<?xml version="1.0" encoding="UTF-8" standalone="no"?>
<svg xmlns:ffdec="https://www.free-decompiler.com/flash" xmlns:xlink="http://www.w3.org/1999/xlink" ffdec:objectType="shape" height="356.75px" width="240.4px" xmlns="http://www.w3.org/2000/svg">
  <g transform="matrix(1.0, 0.0, 0.0, 1.0, 125.85, 99.0)">
    <path d="M-34.0 -49.5 Q-23.75 -27.0 -28.5 -17.75 L-30.0 -14.5 -38.0 -11.0 Q-55.9 -1.8 -75.95 -0.8 -84.4 -0.8 -91.75 -5.0 L-97.75 -10.0 Q-109.95 -25.35 -102.8 -44.2 -98.3 -56.1 -88.5 -64.25 L-79.25 -71.75 -69.0 -78.0 -67.75 -75.5 Q-66.5 -71.5 -64.25 -70.0 L-58.5 -66.75 Q-51.75 -48.5 -34.0 -49.5 M-125.6 64.7 Q-122.3 34.75 -98.5 16.75 -110.8 55.6 -100.5 95.6 L-99.5 99.75 Q-114.75 99.1 -121.55 86.35 -126.9 76.25 -125.6 64.7 M-32.65 157.95 Q-18.75 161.25 -4.25 162.0 22.6 176.25 52.75 174.75 L53.75 174.5 56.0 190.5 Q40.35 209.25 20.5 223.45 -7.55 243.7 -33.7 223.65 -74.05 192.75 -60.0 149.0 -46.65 154.75 -32.65 157.95" fill="#e58508" fill-rule="evenodd" stroke="none"/>
    <path d="M-34.0 -49.5 Q-51.75 -48.5 -58.5 -66.75 L-64.25 -70.0 Q-66.5 -71.5 -67.75 -75.5 L-67.5 -75.5 Q-65.0 -73.25 -64.0 -74.5 L-62.25 -78.5 Q-64.25 -85.75 -65.5 -85.75 L-68.5 -84.5 Q-69.25 -86.5 -66.25 -92.75 L-61.25 -99.0 -60.5 -98.75 -51.75 -87.0 -42.75 -78.75 -35.0 -70.25 -26.0 -59.0 -34.0 -49.5 M-55.75 -70.0 Q-59.0 -60.75 -50.5 -59.0 -45.5 -69.75 -55.75 -70.0" fill="#ffffff" fill-rule="evenodd" stroke="none"/>
    <path d="M-67.75 -75.5 L-69.0 -78.0 -69.5 -79.25 -68.5 -84.5 -65.5 -85.75 Q-64.25 -85.75 -62.25 -78.5 L-64.0 -74.5 Q-65.0 -73.25 -67.5 -75.5 L-67.75 -75.5 M-55.75 -70.0 Q-45.5 -69.75 -50.5 -59.0 -59.0 -60.75 -55.75 -70.0" fill="#000000" fill-rule="evenodd" stroke="none"/>
    <path d="M-87.0 -81.05 Q-85.6 -84.35 -84.5 -87.5 -79.4 -83.5 -81.8 -76.9 -84.15 -70.55 -87.5 -64.75 -90.5 -72.55 -87.0 -81.05 M-98.25 -10.7 Q-105.2 -18.5 -105.3 -28.9 L-105.25 -32.0 Q-104.7 -25.05 -101.65 -18.85 -98.3 -12.05 -91.35 -9.2 -59.15 3.75 -28.25 -17.25 L-85.75 67.5 -95.5 80.0 Q-96.05 89.9 -91.15 98.35 -60.55 151.1 -0.15 145.85 0.75 143.6 0.5 141.3 0.0 136.8 -2.25 133.0 17.55 142.95 39.5 147.25 L20.65 45.4 Q31.8 98.25 58.6 143.7 L55.7 143.3 52.25 144.0 Q56.75 197.45 69.85 249.45 60.3 220.5 56.5 190.25 42.8 208.65 23.7 221.3 -19.15 249.6 -50.15 209.65 -72.95 180.3 -59.75 149.0 -88.2 131.55 -99.0 99.75 -102.5 99.35 -105.95 98.0 -119.05 93.1 -123.25 80.0 L-119.75 87.0 Q-117.4 70.9 -105.0 60.0 -97.85 25.3 -97.5 -10.0 L-98.25 -10.7 M-34.15 177.1 Q-49.15 173.05 -64.3 171.95 -60.05 192.75 -46.6 209.05 -30.5 228.55 -5.5 228.3 -2.1 228.25 0.75 226.75 24.0 214.7 44.0 197.5 L42.0 191.75 Q21.15 190.75 1.75 183.0 0.6 183.75 -0.7 184.15 L-6.65 184.3 -34.15 177.1 M93.25 198.75 L89.75 215.45 Q85.95 233.0 81.1 250.4 79.6 255.75 75.0 257.75 71.9 255.4 70.6 251.6 L70.1 250.1 Q73.3 253.75 77.45 251.25 78.6 250.5 79.0 249.3 87.05 224.4 93.25 198.75 M105.75 43.2 L107.3 48.45 Q113.75 69.9 114.5 92.45 115.4 118.6 102.7 141.7 102.5 133.0 98.75 125.25 102.95 115.4 105.5 105.15 113.3 74.15 105.75 43.2" fill="#000000" fill-opacity="0.49803922" fill-rule="evenodd" stroke="none"/>
  </g>
</svg>
