<?xml version="1.0" encoding="UTF-8" standalone="no"?>
<svg xmlns:ffdec="https://www.free-decompiler.com/flash" xmlns:xlink="http://www.w3.org/1999/xlink" ffdec:objectType="shape" height="401.6px" width="275.0px" xmlns="http://www.w3.org/2000/svg">
  <g transform="matrix(1.0, 0.0, 0.0, 1.0, 166.6, 139.25)">
    <path d="M-59.5 -127.75 Q-58.25 -127.75 -56.75 -133.0 L-53.75 -136.5 -50.0 -139.25 -51.25 -132.25 -54.5 -130.25 Q-62.4 -112.2 -52.75 -95.0 L-55.75 -91.0 -56.25 -91.25 Q-57.15 -91.75 -57.9 -92.4 -66.15 -99.3 -66.0 -110.0 -64.0 -112.0 -62.25 -119.25 L-62.75 -120.75 -59.75 -124.75 -59.5 -127.75" fill="#ffffff" fill-rule="evenodd" stroke="none"/>
    <path d="M-53.75 -136.5 L-56.75 -133.0 Q-58.25 -127.75 -59.5 -127.75 -61.75 -135.25 -53.75 -136.5 M-62.75 -120.75 L-62.25 -119.25 Q-64.0 -112.0 -66.0 -110.0 L-67.5 -113.25 -66.25 -118.75 -64.75 -120.25 -62.75 -120.75" fill="#000000" fill-rule="evenodd" stroke="none"/>
    <path d="M-59.5 -127.75 L-59.75 -124.75 -62.75 -120.75 -64.75 -120.25 -66.25 -118.75 -67.5 -113.25 -66.0 -110.0 Q-66.15 -99.3 -57.9 -92.4 -57.15 -91.75 -56.25 -91.25 -59.95 -74.65 -66.0 -58.75 L-67.5 -59.0 -77.5 -62.75 Q-87.95 -65.8 -97.15 -71.4 -105.15 -76.35 -105.35 -85.35 -106.25 -130.8 -59.5 -127.75 M-103.5 87.0 L-102.4 90.2 Q-95.5 109.25 -81.25 123.0 L-73.25 142.85 Q-69.3 152.9 -62.25 161.0 L-60.75 174.25 Q-97.25 191.0 -128.25 187.75 -163.25 180.0 -166.5 126.0 -167.75 98.75 -150.0 86.25 -136.0 80.25 -103.5 87.0" fill="#e58508" fill-rule="evenodd" stroke="none"/>
    <path d="M-103.0 -78.95 Q-86.3 -65.45 -65.0 -60.25 L-69.25 -52.25 Q-72.4 -51.3 -75.4 -49.7 -77.7 -48.45 -79.0 -46.05 L-83.75 -36.75 -83.25 -36.25 -84.55 -32.7 Q-89.1 3.85 -97.3 21.35 L-98.15 23.35 -84.55 -32.7 -83.75 -36.75 -77.25 -62.75 Q-85.55 -66.35 -93.6 -70.4 -101.25 -74.2 -105.65 -81.45 -104.45 -80.05 -103.0 -78.95 M-107.0 86.75 L-103.0 86.75 Q-110.0 51.8 -101.25 34.0 -112.0 80.0 -86.0 102.5 -88.15 28.15 -83.0 9.5 -88.25 68.75 -72.5 111.75 -69.25 124.0 -64.0 129.0 L-62.25 72.25 Q-61.3 77.15 -60.0 121.75 -57.5 122.75 -57.25 137.5 L-55.25 140.25 Q-56.75 141.25 -59.25 137.0 L-60.75 138.0 -60.75 140.5 -61.5 141.5 -61.0 145.75 -61.5 156.5 Q-56.8 188.15 -43.5 253.5 -42.5 256.25 -35.5 256.75 -6.75 207.0 -5.25 175.0 77.0 157.0 94.0 108.0 108.0 77.4 107.95 46.2 110.9 89.2 94.5 117.0 52.5 188.75 -7.5 191.25 -18.0 238.75 -37.75 262.25 -39.75 262.75 -41.75 260.75 -49.65 238.6 -60.25 174.25 -117.5 203.0 -151.75 173.25 -168.5 151.25 -166.25 118.75 -169.0 207.0 -68.0 171.75 -66.75 168.0 -79.25 150.25 L-87.0 129.25 -88.5 128.5 -104.0 102.75 -106.0 96.75 -107.0 86.75 M-7.35 146.3 Q-8.75 143.0 -12.25 142.25 L-2.0 101.5 4.0 61.5 4.25 50.75 4.5 66.25 -0.5 110.0 -0.25 112.5 -5.25 151.75 -7.35 146.3" fill="#000000" fill-opacity="0.49803922" fill-rule="evenodd" stroke="none"/>
  </g>
</svg>
