<?xml version="1.0" encoding="UTF-8" standalone="no"?>
<svg xmlns:ffdec="https://www.free-decompiler.com/flash" xmlns:xlink="http://www.w3.org/1999/xlink" ffdec:objectType="shape" height="393.35px" width="244.4px" xmlns="http://www.w3.org/2000/svg">
  <g transform="matrix(1.0, 0.0, 0.0, 1.0, 131.65, 137.25)">
    <path d="M-54.25 -132.25 L-52.75 -135.5 Q-51.25 -137.25 -47.75 -137.25 L-48.25 -136.25 -51.75 -133.75 -53.25 -131.25 -54.5 -130.5 -54.25 -132.25 M-67.0 -114.25 Q-69.25 -121.0 -63.75 -123.0 L-62.0 -123.25 -67.0 -114.25" fill="#000000" fill-rule="evenodd" stroke="none"/>
    <path d="M-54.5 -130.5 L-60.5 -124.25 -62.0 -123.25 -63.75 -123.0 Q-69.25 -121.0 -67.0 -114.25 -69.2 -105.05 -64.2 -96.65 L-62.0 -93.75 -73.25 -64.5 -76.5 -66.5 Q-88.3 -73.15 -96.1 -83.6 -100.05 -88.95 -99.7 -95.15 -97.2 -139.25 -54.25 -132.25 L-54.5 -130.5 M-100.5 140.0 L-100.25 140.5 Q-102.1 148.45 -101.5 156.25 L-92.75 219.5 Q-122.1 204.7 -129.7 172.5 -139.6 130.55 -98.75 122.25 -96.05 127.95 -98.55 133.4 -100.0 136.5 -100.5 140.0 M-53.25 185.0 Q-34.75 192.35 -15.0 189.25 -23.25 195.25 -32.0 200.4 -46.0 208.6 -60.5 216.0 -54.7 201.35 -53.4 185.5 L-53.25 185.0" fill="#e58508" fill-rule="evenodd" stroke="none"/>
    <path d="M-48.25 -136.25 L-49.75 -131.75 -53.25 -131.25 -51.75 -133.75 -48.25 -136.25 M-60.5 -124.25 Q-67.1 -109.75 -60.25 -95.25 L-62.0 -93.75 -64.2 -96.65 Q-69.2 -105.05 -67.0 -114.25 L-62.0 -123.25 -60.5 -124.25" fill="#ffffff" fill-rule="evenodd" stroke="none"/>
    <path d="M78.25 -71.75 L72.25 -80.25 Q72.75 -82.0 82.0 -82.5 L80.75 -86.0 Q82.5 -86.25 84.0 -79.25 L83.5 -69.25 Q86.0 -67.0 86.25 -70.0 L87.0 -71.75 88.25 -72.0 87.75 -73.5 90.25 -69.25 89.25 -63.75 86.0 -57.25 78.25 -71.75 M112.45 33.15 Q112.9 41.05 112.65 49.0 112.4 56.65 111.5 64.3 110.85 69.9 109.65 75.3 L108.0 82.55 107.1 86.05 106.05 89.6 103.75 96.5 102.45 99.95 Q98.45 110.1 92.8 119.6 L86.75 129.0 Q78.25 140.1 67.95 149.5 59.4 157.25 49.9 163.7 40.0 170.5 29.35 176.1 20.85 180.65 11.95 183.15 -1.4 186.75 -15.0 189.25 -35.65 206.35 -60.75 216.5 -66.35 235.1 -76.45 251.25 -77.7 253.3 -79.75 255.05 -80.95 256.2 -82.45 256.1 -84.55 255.75 -85.35 253.75 L-86.15 251.0 -92.0 220.75 Q-99.15 218.3 -104.9 213.3 -109.95 208.95 -113.9 203.4 -118.4 197.1 -121.65 190.1 -124.45 184.05 -126.75 177.75 -122.65 188.2 -116.05 197.2 -112.3 202.25 -107.75 206.25 -106.2 205.9 -105.55 204.45 -104.8 202.65 -104.55 200.8 -103.95 196.0 -103.95 191.3 -104.0 183.9 -103.5 176.6 L-102.75 167.65 -102.3 163.4 Q-102.05 161.3 -102.4 159.35 -105.5 142.1 -109.25 125.0 L-99.0 122.25 -98.5 121.5 Q-100.75 105.85 -103.25 90.25 -106.4 70.75 -107.8 51.15 -108.25 45.1 -106.75 39.0 L-105.75 39.25 -106.75 56.5 -104.5 68.5 Q-103.75 61.1 -102.65 53.8 -98.75 27.85 -94.5 2.0 L-93.5 2.25 -97.25 22.75 -96.75 23.75 Q-99.75 40.35 -98.5 57.05 L-98.15 61.7 Q-98.05 62.8 -98.5 64.1 L-98.6 64.75 -98.0 76.0 -96.25 86.5 -95.5 87.0 -95.15 82.95 -94.7 82.7 Q-94.85 88.15 -95.4 93.65 L-96.9 111.45 Q-97.35 117.95 -96.9 124.2 -96.65 128.15 -95.25 131.75 L-94.5 133.8 -94.8 133.9 -95.25 134.05 -97.5 130.5 -99.25 131.75 Q-100.8 138.4 -100.6 145.35 L-100.2 149.85 Q-100.05 150.9 -99.25 151.75 L-94.75 188.5 Q-92.9 189.9 -92.6 192.45 L-90.8 204.8 Q-88.75 217.45 -87.25 230.2 -86.2 239.25 -85.5 248.75 L-82.4 250.35 -82.1 250.0 -81.9 249.75 Q-81.4 250.35 -81.0 251.25 -74.0 240.25 -68.05 228.6 -64.0 220.8 -60.7 212.7 -57.9 205.85 -55.9 198.75 -54.6 194.2 -54.05 189.5 L-52.7 179.75 -52.1 175.3 -51.7 171.15 -51.3 163.75 -51.15 160.5 Q-50.9 153.35 -54.55 147.35 -55.85 145.25 -58.0 144.5 -51.75 128.4 -46.2 111.85 -42.25 100.1 -38.6 87.95 -35.35 77.15 -32.75 66.1 -30.95 58.65 -29.5 51.0 L-31.6 65.8 Q-33.45 78.3 -35.55 90.5 L-39.4 112.85 -41.6 125.3 -44.05 138.45 -45.75 147.7 -47.6 157.25 -49.5 167.25 Q-39.5 170.95 -29.05 172.25 L-11.15 172.9 Q-1.4 172.45 8.05 170.65 15.8 169.15 23.15 166.7 28.65 164.9 34.05 162.75 L39.25 160.4 44.15 157.8 53.55 152.2 58.0 149.1 Q70.85 139.6 80.6 126.6 94.3 108.4 101.05 86.65 103.8 77.8 105.65 68.6 L106.75 62.3 Q110.8 37.6 110.0 12.5 111.85 22.75 112.45 33.15 M-101.35 -97.45 Q-99.9 -81.4 -72.5 -66.25 L-76.25 -55.5 -80.75 -51.0 -81.25 -51.75 -76.25 -66.75 Q-98.6 -82.65 -100.25 -91.25 -101.2 -93.7 -101.35 -97.45 M-94.25 1.25 L-92.75 -3.5 -93.75 1.5 -94.25 1.25 M-92.0 66.75 L-94.5 82.0 Q-95.7 80.2 -92.0 66.75" fill="#000000" fill-opacity="0.49803922" fill-rule="evenodd" stroke="none"/>
  </g>
</svg>
