<?xml version="1.0" encoding="UTF-8" standalone="no"?>
<svg xmlns:ffdec="https://www.free-decompiler.com/flash" xmlns:xlink="http://www.w3.org/1999/xlink" ffdec:objectType="shape" height="389.75px" width="230.75px" xmlns="http://www.w3.org/2000/svg">
  <g transform="matrix(1.0, 0.0, 0.0, 1.0, 120.5, 125.5)">
    <path d="M-55.5 -124.0 L-52.75 -125.5 -54.75 -117.75 -57.75 -116.5 Q-59.5 -114.0 -60.7 -111.25 -67.9 -95.25 -59.25 -80.0 L-61.75 -77.75 -64.55 -80.45 Q-71.3 -87.8 -70.25 -97.75 L-69.5 -99.5 -68.75 -99.5 -66.25 -107.75 -62.25 -111.75 -61.5 -115.5 Q-59.5 -120.25 -55.5 -124.0" fill="#ffffff" fill-rule="evenodd" stroke="none"/>
    <path d="M-61.75 -77.75 L-71.75 -47.5 -72.75 -47.5 -80.75 -51.5 Q-123.65 -69.1 -97.6 -105.95 -91.5 -114.55 -80.8 -117.1 -71.5 -119.5 -62.0 -118.0 L-61.5 -115.5 -62.25 -111.75 -66.25 -107.75 -68.75 -107.0 Q-71.25 -106.0 -71.75 -101.25 L-70.25 -97.75 Q-71.3 -87.8 -64.55 -80.45 L-61.75 -77.75 M-26.25 194.75 L-22.0 195.75 -8.75 195.0 -18.25 202.5 -29.25 209.25 -26.25 194.75 M-88.25 125.75 Q-87.35 128.6 -86.8 131.55 -77.8 177.9 -70.75 224.75 -112.6 215.1 -119.8 167.95 -125.3 131.7 -88.25 125.75" fill="#e58508" fill-rule="evenodd" stroke="none"/>
    <path d="M-62.0 -118.0 L-61.0 -121.25 Q-60.75 -123.0 -55.5 -124.0 -59.5 -120.25 -61.5 -115.5 L-62.0 -118.0 M-66.25 -107.75 L-68.75 -99.5 -69.5 -99.5 -70.25 -97.75 -71.75 -101.25 Q-71.25 -106.0 -68.75 -107.0 L-66.25 -107.75" fill="#000000" fill-rule="evenodd" stroke="none"/>
    <path d="M71.0 -76.25 L69.75 -81.0 Q73.25 -80.5 70.75 -70.75 L69.75 -71.25 67.0 -76.25 Q70.5 -74.0 69.0 -78.0 L71.0 -76.25 M65.75 -88.25 L66.25 -77.0 59.0 -87.5 64.5 -90.5 65.75 -88.25 M108.25 26.25 Q117.25 80.5 85.25 134.75 L71.25 153.0 54.75 169.0 Q14.0 196.0 -8.75 195.0 L-17.25 201.75 -29.25 209.25 Q-39.75 245.75 -57.5 264.25 -65.75 262.5 -70.5 224.75 -83.5 225.75 -96.5 213.5 -110.25 202.0 -118.25 173.25 -102.0 216.25 -82.0 215.0 L-82.25 202.25 -83.75 192.25 -83.0 177.75 -92.75 160.25 -97.75 140.25 Q-102.0 130.75 -104.25 131.0 L-87.75 125.5 -89.75 118.25 -92.25 114.75 Q-114.35 75.7 -107.75 60.0 -104.35 41.4 -94.5 2.5 L-83.7 -39.0 -80.5 -51.0 Q-101.75 -59.25 -107.3 -72.65 -100.2 -59.7 -71.0 -49.25 L-75.25 -39.75 -75.0 -39.0 -83.5 -33.5 -89.25 -14.75 -92.3 2.5 -96.0 14.25 -98.0 25.5 -98.75 26.0 Q-98.0 27.0 -101.25 34.0 L-104.75 52.25 -105.5 63.5 -102.75 78.25 Q-97.5 94.5 -94.5 95.25 -93.8 33.85 -86.35 4.5 -86.75 7.3 -86.75 11.0 L-87.5 12.0 -87.25 15.0 -89.5 34.75 -89.75 47.0 -88.75 66.25 -86.0 85.25 -81.0 105.75 -78.0 112.25 -77.0 102.0 -75.0 125.25 Q-75.75 147.0 -73.0 149.25 L-74.0 149.5 Q-75.75 145.5 -76.75 146.0 -79.5 147.25 -79.75 164.25 -78.5 178.75 -75.5 182.75 L-73.25 198.0 -72.5 198.75 -68.5 214.25 -67.5 223.5 -63.25 242.75 -62.0 255.75 -61.0 258.5 Q-48.0 253.5 -27.25 198.5 -19.75 158.75 -31.5 155.75 -12.2 97.35 -9.5 60.5 -7.5 72.25 -23.25 174.25 0.0 183.0 53.25 156.75 94.5 128.0 106.75 71.0 107.6 33.3 104.9 12.6 L108.25 26.25" fill="#000000" fill-opacity="0.49803922" fill-rule="evenodd" stroke="none"/>
  </g>
</svg>
