<?xml version="1.0" encoding="UTF-8" standalone="no"?>
<svg xmlns:ffdec="https://www.free-decompiler.com/flash" xmlns:xlink="http://www.w3.org/1999/xlink" ffdec:objectType="shape" height="414.05px" width="224.8px" xmlns="http://www.w3.org/2000/svg">
  <g transform="matrix(1.0, 0.0, 0.0, 1.0, 115.85, 159.2)">
    <path d="M-56.0 -129.25 L-54.75 -132.75 Q-54.75 -141.5 -38.25 -138.0 -12.25 -187.75 33.5 -120.75 L43.5 -116.5 Q59.75 -105.75 60.0 -102.25 83.0 -93.25 71.75 -56.5 159.25 93.75 37.5 182.75 L26.25 188.25 Q-16.0 199.75 -28.5 186.25 L-37.0 203.5 -57.5 231.25 -74.5 249.0 Q-87.25 262.25 -87.0 245.0 L-87.0 222.0 -85.75 199.5 -84.0 178.0 -84.25 177.5 Q-83.75 164.05 -79.85 151.25 -78.25 146.0 -75.5 141.35 -74.25 139.25 -72.5 137.5 L-73.0 134.5 -73.25 130.0 Q-94.75 59.25 -68.5 -46.5 L-66.0 -46.0 Q-60.1 -62.15 -58.0 -79.25 L-57.0 -79.0 -53.5 -83.25 Q-62.55 -98.85 -58.6 -115.75 -58.0 -118.25 -56.25 -120.5 -56.8 -125.15 -56.0 -129.25" fill="#2e47aa" fill-rule="evenodd" stroke="none"/>
    <path d="M37.5 182.75 Q33.85 187.3 29.9 191.5 27.4 194.15 23.95 194.75 L-9.5 201.25 -37.0 203.5 -28.5 186.25 Q-16.0 199.75 26.25 188.25 L37.5 182.75 M-85.75 199.5 Q-93.35 198.2 -99.55 193.65 -116.5 181.2 -115.85 160.05 -114.9 130.8 -96.25 108.25 L-93.0 115.0 -75.0 133.5 -73.0 134.5 -72.5 137.5 Q-74.25 139.25 -75.5 141.35 -78.25 146.0 -79.85 151.25 -83.75 164.05 -84.25 177.5 L-84.0 178.0 -85.75 199.5 M-82.25 -50.0 Q-107.5 -57.0 -111.0 -67.25 L-112.0 -69.25 -112.75 -80.75 Q-111.75 -93.75 -108.75 -96.75 -99.5 -115.5 -66.25 -116.5 L-65.5 -115.5 -65.75 -110.5 -66.75 -108.5 Q-68.5 -107.25 -69.75 -105.6 -72.85 -101.45 -69.5 -97.25 -68.5 -88.0 -64.5 -84.25 L-58.0 -79.25 Q-60.1 -62.15 -66.0 -46.0 L-68.5 -46.5 -82.25 -50.0" fill="#e58508" fill-rule="evenodd" stroke="none"/>
    <path d="M-96.25 108.25 L-98.25 103.25 -107.0 73.75 -104.5 47.5 -102.25 32.25 -92.75 0.25 -82.25 -50.0 -68.5 -46.5 Q-94.75 59.25 -73.25 130.0 L-73.0 134.5 -75.0 133.5 -93.0 115.0 -96.25 108.25 M-61.0 -125.0 L-56.0 -129.25 Q-56.8 -125.15 -56.25 -120.5 -58.0 -118.25 -58.6 -115.75 -62.55 -98.85 -53.5 -83.25 L-57.0 -79.0 -58.0 -79.25 -64.5 -84.25 Q-68.5 -88.0 -69.5 -97.25 -66.5 -98.25 -66.75 -108.5 L-65.75 -110.5 -65.5 -115.5 -64.25 -116.75 Q-63.0 -123.25 -61.0 -125.0" fill="#ffffff" fill-rule="evenodd" stroke="none"/>
    <path d="M-66.25 -116.5 L-66.0 -121.75 Q-66.0 -124.25 -61.0 -125.0 -63.0 -123.25 -64.25 -116.75 L-65.5 -115.5 -66.25 -116.5 M-69.5 -97.25 Q-72.85 -101.45 -69.75 -105.6 -68.5 -107.25 -66.75 -108.5 -66.5 -98.25 -69.5 -97.25" fill="#31333d" fill-rule="evenodd" stroke="none"/>
    <path d="M47.5 -100.5 Q69.75 -110.0 61.0 -79.0 L47.5 -100.5 M72.0 -56.75 L62.25 -76.25 Q75.05 -76.25 75.1 -81.2 L76.0 -70.5 72.0 -56.75 M4.75 66.75 L-3.75 101.25 -17.5 170.25 Q23.75 189.0 77.0 137.5 118.5 81.0 101.0 15.5 125.0 73.25 76.75 151.0 48.6 178.95 37.75 182.5 35.7 193.25 6.75 198.75 L-7.75 201.0 -37.25 203.5 -39.0 206.75 -56.75 230.25 -72.25 247.25 -81.25 254.75 Q-83.0 255.25 -85.75 253.25 L-86.75 245.5 Q-82.5 252.25 -76.5 248.5 L-72.75 242.75 -44.75 208.5 -39.0 198.5 Q-35.75 196.75 -33.5 192.0 L-25.5 177.25 Q-24.75 168.5 -23.25 168.0 L-23.75 167.25 Q-21.0 166.5 -19.25 153.25 L-22.25 147.25 Q-26.0 148.75 -26.5 147.75 L-14.0 120.75 -8.5 107.0 -0.25 79.25 1.0 77.0 Q3.0 67.65 4.75 66.75 M-109.6 -65.75 L-110.8 -67.55 Q-98.55 -55.3 -81.35 -50.7 -73.0 -48.45 -64.5 -47.75 L-69.75 -38.75 -79.75 -33.25 -79.5 -32.5 Q-88.7 -15.6 -91.3 3.55 -100.15 32.85 -103.5 63.5 L-98.75 89.75 -81.0 113.25 -77.75 114.75 -80.5 75.0 Q-84.35 50.85 -80.75 26.5 L-77.25 71.5 -71.25 96.75 -70.2 98.9 -69.25 98.75 Q-71.55 119.15 -71.0 139.5 -77.95 140.55 -79.4 149.05 L-80.0 154.0 -81.5 153.75 -100.25 132.75 Q-103.5 127.75 -104.7 121.85 L-104.95 120.2 Q-101.3 113.2 -95.75 107.75 L-98.25 103.25 -106.75 75.75 -106.75 70.75 -102.25 32.25 -93.0 2.5 -88.75 -16.0 -82.0 -49.75 -84.8 -50.3 Q-100.6 -52.5 -109.6 -65.75 M-62.5 52.0 L-65.25 70.25 -65.75 69.0 -62.5 52.0 M-66.75 78.0 L-69.4 95.15 -69.5 93.25 -66.75 78.0 M-92.3 193.05 Q-85.35 195.95 -84.35 188.5 L-86.0 227.95 -85.5 200.0 -88.1 199.25 Q-110.0 192.05 -115.25 169.0 -113.95 172.5 -112.2 175.5 -105.15 187.65 -92.3 193.05" fill="#000000" fill-opacity="0.49803922" fill-rule="evenodd" stroke="none"/>
  </g>
</svg>
