<?xml version="1.0" encoding="UTF-8" standalone="no"?>
<svg xmlns:ffdec="https://www.free-decompiler.com/flash" xmlns:xlink="http://www.w3.org/1999/xlink" ffdec:objectType="shape" height="395.05px" width="259.55px" xmlns="http://www.w3.org/2000/svg">
  <g transform="matrix(1.0, 0.0, 0.0, 1.0, 142.6, 169.8)">
    <path d="M-28.5 -149.75 L-23.75 -155.75 -18.25 -159.0 Q-15.25 -160.0 -10.25 -157.5 20.75 -195.75 67.25 -115.0 L84.0 -102.75 94.0 -92.75 103.5 -79.25 Q125.5 -68.75 105.5 -27.75 135.0 90.5 76.5 142.75 -10.75 214.25 -68.25 167.5 L-69.25 166.5 -69.75 167.5 -79.5 185.5 -96.0 206.5 -110.5 220.5 Q-123.0 232.0 -121.75 215.0 L-121.25 196.5 -118.25 159.0 -116.25 141.0 -116.75 140.75 Q-114.65 120.95 -104.25 104.25 L-103.75 100.7 Q-101.9 90.25 -99.5 79.75 -97.4 71.35 -95.95 62.9 -94.5 54.6 -93.75 46.25 L-85.5 4.25 -76.0 -27.75 -68.0 -49.75 -56.75 -76.75 -53.25 -82.75 -43.0 -106.75 -40.75 -109.5 Q-46.55 -124.05 -40.25 -138.25 L-36.75 -142.5 -36.25 -143.0 -34.25 -144.5 -30.0 -145.25 -28.5 -149.75" fill="#2e47aa" fill-rule="evenodd" stroke="none"/>
    <path d="M-105.0 60.5 L-104.25 46.75 -97.5 22.5 -85.0 -10.25 -73.75 -45.0 -61.25 -79.5 -56.75 -76.75 -68.0 -49.75 -76.0 -27.75 -85.5 4.25 -93.75 46.25 Q-94.5 54.6 -95.95 62.9 -97.4 71.35 -99.5 79.75 L-105.0 60.5 M-29.5 -149.5 L-28.5 -149.75 -30.0 -145.25 -34.25 -144.5 -32.55 -146.8 -29.5 -149.5 M-42.75 -136.5 L-40.25 -138.25 Q-46.55 -124.05 -40.75 -109.5 L-43.0 -106.75 Q-48.3 -112.45 -48.35 -120.25 -48.4 -124.0 -48.0 -127.75 L-42.75 -136.5" fill="#ffffff" fill-rule="evenodd" stroke="none"/>
    <path d="M-68.25 167.5 L-69.75 167.5 -69.25 166.5 -68.25 167.5 M-118.25 159.0 L-126.5 154.75 Q-156.25 131.5 -131.0 83.75 -118.0 62.75 -105.0 60.5 L-99.5 79.75 Q-101.9 90.25 -103.75 100.7 L-104.25 104.25 Q-114.65 120.95 -116.75 140.75 L-116.25 141.0 -118.25 159.0 M-61.25 -79.5 Q-85.0 -95.75 -85.0 -103.25 -89.0 -122.0 -71.25 -138.75 L-70.75 -139.0 Q-64.5 -146.75 -36.75 -142.5 L-40.25 -138.25 -42.75 -136.5 -46.25 -135.5 Q-47.5 -135.5 -49.0 -130.5 L-48.0 -127.75 Q-48.4 -124.0 -48.35 -120.25 -48.3 -112.45 -43.0 -106.75 L-53.25 -82.75 -56.75 -76.75 -61.25 -79.5" fill="#e58508" fill-rule="evenodd" stroke="none"/>
    <path d="M-36.25 -143.0 L-34.75 -147.5 Q-33.5 -149.5 -29.5 -149.5 L-32.55 -146.8 -34.25 -144.5 -36.25 -143.0 M-48.0 -127.75 L-49.0 -130.5 Q-47.5 -135.5 -46.25 -135.5 L-42.75 -136.5 -48.0 -127.75" fill="#31333d" fill-rule="evenodd" stroke="none"/>
    <path d="M84.5 -83.0 Q100.0 -77.25 102.25 -81.5 L105.75 -74.25 Q100.0 -59.5 104.25 -51.75 113.5 -47.25 114.75 -61.75 116.25 -37.75 105.5 -27.75 L109.25 -12.0 Q90.8 -76.35 84.5 -83.0 M104.25 88.5 L104.0 87.75 Q107.25 82.75 108.25 78.5 118.95 30.65 111.55 -3.35 131.6 79.9 77.0 142.25 -10.0 214.5 -70.0 167.5 -90.5 206.5 -117.0 225.25 -123.7 223.6 -122.3 205.25 -123.05 221.25 -114.5 221.25 -80.05 185.15 -63.0 151.0 -54.0 127.0 -64.5 125.25 -59.35 114.6 -57.5 114.25 L-61.75 120.75 -61.25 121.5 -60.0 120.0 -59.0 117.5 -50.75 105.5 -50.75 104.5 -49.5 103.5 -46.75 97.75 Q-22.2 50.35 -19.7 42.45 L-24.5 59.5 -33.5 80.75 -39.5 99.5 -52.75 134.5 -56.5 148.0 Q-59.25 156.75 -58.25 158.0 -34.0 179.5 16.0 166.75 54.25 157.25 80.5 128.5 L95.5 106.5 101.5 93.0 104.25 88.5 M-65.0 -67.5 L-65.75 -67.75 -61.0 -79.75 Q-85.75 -96.5 -84.75 -102.5 -81.25 -94.75 -56.0 -78.5 -55.5 -77.5 -59.0 -70.75 L-65.0 -67.5 M-83.0 -2.5 L-82.75 -1.75 -86.5 12.5 Q-87.55 10.65 -83.0 -2.5 M-82.75 -3.0 L-83.25 -3.25 -80.25 -13.5 -81.5 -6.0 Q-83.75 -3.75 -82.75 -3.0 M-85.0 -105.5 L-85.75 -105.75 -85.75 -112.5 -85.0 -105.5 M-77.5 -22.75 L-77.0 -23.5 -77.5 -21.75 -77.5 -22.75 M-94.75 15.25 L-92.75 11.5 -94.25 16.0 -94.75 15.25 M-92.25 8.5 L-91.5 8.5 -91.75 9.25 -92.25 8.5 M-87.25 17.75 Q-90.5 33.6 -91.25 50.0 L-90.5 50.75 -94.75 63.25 -95.25 63.0 Q-92.45 39.15 -87.25 16.0 L-87.25 17.75 M-65.5 125.75 L-66.25 125.5 -64.75 125.0 -65.5 125.75 M-57.0 113.25 L-57.5 113.0 -56.75 112.0 -57.0 113.25 M-120.25 193.75 L-120.75 188.0 -119.75 188.25 -120.25 193.75 M-138.75 140.25 L-139.75 136.6 Q-134.65 147.0 -117.0 152.5 L-119.75 187.0 -120.25 182.75 -118.0 159.5 Q-134.25 152.5 -138.75 140.25 M-103.75 106.25 Q-105.5 104.75 -104.25 101.75 L-103.25 105.25 -103.75 106.25 M-94.25 16.75 L-98.25 27.5 Q-98.95 26.0 -94.25 16.75 M-99.75 34.25 L-100.25 35.25 -100.75 34.0 -99.75 34.25 M-99.75 33.5 L-100.25 32.5 -99.5 32.5 -99.75 33.5 M-99.75 30.5 L-98.75 30.75 -99.25 31.75 -99.75 30.5 M-102.3 41.85 L-102.25 42.35 Q-103.1 57.45 -98.0 71.75 L-98.25 73.75 -97.0 71.5 -103.25 97.75 Q-105.1 96.35 -105.7 94.05 -108.9 81.55 -107.1 68.7 -105.1 54.25 -102.3 41.85" fill="#000000" fill-opacity="0.49803922" fill-rule="evenodd" stroke="none"/>
  </g>
</svg>
