<?xml version="1.0" encoding="UTF-8" standalone="no"?>
<svg xmlns:ffdec="https://www.free-decompiler.com/flash" xmlns:xlink="http://www.w3.org/1999/xlink" ffdec:objectType="shape" height="333.1px" width="351.75px" xmlns="http://www.w3.org/2000/svg">
  <g transform="matrix(1.0, 0.0, 0.0, 1.0, 183.25, 160.6)">
    <path d="M80.5 142.25 Q79.25 146.6 76.15 150.0 64.8 162.85 48.0 159.75 L80.5 142.25 M-83.0 156.0 L-108.5 151.75 Q-133.75 144.25 -138.25 138.25 -154.0 124.0 -150.0 101.25 L-144.5 86.25 Q-142.15 82.1 -139.4 78.2 L-131.25 67.25 Q-132.85 96.95 -118.6 123.2 L-117.25 125.5 -117.25 126.0 Q-103.7 144.85 -83.0 156.0 M-51.5 -127.75 Q-47.05 -150.6 -25.0 -159.45 -18.55 -162.0 -12.25 -159.0 -23.5 -154.9 -34.35 -149.65 -37.7 -148.0 -39.3 -144.75 -44.0 -135.25 -51.5 -127.75" fill="#e58508" fill-rule="evenodd" stroke="none"/>
    <path d="M-12.25 -159.0 Q10.6 -157.55 28.4 -142.55 58.05 -117.6 78.5 -84.5 L99.25 -74.5 123.5 -56.0 125.85 -54.3 Q135.35 -45.65 144.0 -36.25 L146.2 -35.0 Q151.6 -30.85 154.05 -24.6 163.95 0.25 168.5 26.75 165.2 29.5 161.0 28.55 153.15 27.2 148.2 20.8 139.95 10.3 134.25 -1.75 L118.25 -8.0 Q123.9 6.3 127.3 21.3 137.35 65.85 115.55 105.6 103.0 128.5 80.5 142.25 L48.0 159.75 Q2.25 187.0 -83.0 156.0 -103.7 144.85 -117.25 126.0 L-117.25 125.5 -118.6 123.2 Q-132.85 96.95 -131.25 67.25 L-131.0 58.75 -139.5 68.0 -140.5 74.75 -144.5 86.25 -150.0 101.25 Q-158.8 130.6 -177.95 154.0 -179.7 156.15 -181.35 154.25 -182.9 152.55 -182.75 150.2 -179.8 110.5 -171.55 71.35 -168.7 57.85 -162.3 45.85 L-161.45 44.2 -157.75 36.5 -143.5 11.25 -120.5 -24.25 -101.5 -47.75 -81.25 -83.75 -66.75 -106.75 -51.5 -127.75 Q-44.0 -135.25 -39.3 -144.75 -37.7 -148.0 -34.35 -149.65 -23.5 -154.9 -12.25 -159.0" fill="#2e47aa" fill-rule="evenodd" stroke="none"/>
    <path d="M148.5 -6.0 Q148.75 -4.25 141.0 2.5 L140.5 4.25 Q142.5 8.5 144.25 7.0 L147.25 11.25 148.5 11.5 Q146.25 8.5 147.25 8.0 L149.25 11.25 153.5 14.75 Q165.75 13.5 161.75 -4.0 173.0 26.75 164.5 31.0 150.0 29.75 134.5 -1.75 L118.0 -8.25 Q148.0 73.0 103.0 124.25 73.75 144.5 73.25 153.75 L64.75 158.25 Q52.75 155.5 19.5 169.75 -28.6 175.7 -71.25 162.25 -79.5 154.65 -110.0 151.25 L-128.5 144.75 Q-148.5 142.25 -149.75 101.5 -168.0 149.75 -181.25 155.0 L-182.75 153.75 -183.25 146.75 -181.25 129.5 -172.25 76.0 -171.0 76.25 -171.75 77.25 -171.5 79.0 -173.75 90.25 Q-175.25 96.25 -174.0 97.0 -177.2 124.4 -173.5 133.25 -159.25 121.25 -150.0 96.5 -146.85 93.0 -140.75 73.5 -143.5 70.0 -147.25 71.0 -101.75 23.3 -89.0 7.5 -115.0 51.75 -123.5 83.75 L-119.0 100.25 Q-117.0 104.0 -117.75 104.75 L-115.75 108.25 Q-71.75 175.0 18.25 158.5 95.0 131.75 116.5 82.0 139.0 19.0 104.5 -19.5 L126.75 -10.5 148.5 -6.0 M-130.5 58.75 L-139.25 67.75 -140.5 74.75 -144.75 86.75 -144.25 87.0 Q-141.0 77.5 -130.75 67.0 L-130.5 58.75 M-156.75 36.0 L-157.25 37.5 -157.5 36.75 -156.75 36.0 M149.25 -9.5 L148.75 -10.0 150.5 -11.0 149.25 -9.5 M-128.25 139.0 L-131.75 126.5 -133.75 127.0 Q-145.5 133.75 -128.25 139.0 M-162.25 53.5 L-162.25 51.75 -161.0 53.5 -162.25 53.5" fill="#000000" fill-opacity="0.49803922" fill-rule="evenodd" stroke="none"/>
  </g>
</svg>
