<?xml version="1.0" encoding="UTF-8" standalone="no"?>
<svg xmlns:ffdec="https://www.free-decompiler.com/flash" xmlns:xlink="http://www.w3.org/1999/xlink" ffdec:objectType="shape" height="331.65px" width="328.95px" xmlns="http://www.w3.org/2000/svg">
  <g transform="matrix(1.0, 0.0, 0.0, 1.0, 173.5, 154.45)">
    <path d="M-26.5 -150.25 Q-1.0 -170.75 68.0 -91.75 108.75 -74.0 133.5 -46.5 154.75 -26.5 154.75 13.25 142.0 19.5 122.75 -18.75 L109.25 -23.25 Q149.5 67.5 92.75 126.25 25.0 200.25 -81.75 164.25 -100.55 152.6 -114.35 135.85 L-114.75 135.5 Q-116.7 130.35 -119.65 125.75 L-120.7 123.5 -123.75 114.25 -127.75 88.75 -131.25 92.75 Q-134.05 114.75 -142.5 135.5 -150.6 159.2 -169.2 175.2 L-170.7 175.1 Q-174.3 170.7 -173.3 164.7 -172.45 159.6 -172.2 154.45 L-172.0 149.25 -166.25 96.5 Q-156.55 60.9 -140.25 27.75 L-124.5 -1.5 -107.5 -27.0 -102.25 -40.0 -88.0 -68.5 -68.5 -102.75 -56.75 -120.75 Q-58.25 -127.9 -54.35 -134.2 -47.45 -145.45 -34.0 -144.75 L-26.5 -150.25" fill="#2e47aa" fill-rule="evenodd" stroke="none"/>
    <path d="M-81.75 164.25 Q-101.25 161.75 -119.95 155.8 -135.65 150.95 -142.5 135.5 -134.05 114.75 -131.25 92.75 L-127.75 88.75 -123.75 114.25 -120.7 123.5 -119.65 125.75 Q-116.7 130.35 -114.75 135.5 L-114.35 135.85 Q-100.55 152.6 -81.75 164.25 M-68.5 -102.75 Q-76.15 -122.1 -62.7 -137.85 -55.5 -146.3 -46.0 -152.25 -39.95 -152.9 -34.05 -152.0 L-26.5 -150.25 -34.0 -144.75 Q-47.45 -145.45 -54.35 -134.2 -58.25 -127.9 -56.75 -120.75 L-68.5 -102.75" fill="#e58508" fill-rule="evenodd" stroke="none"/>
    <path d="M-165.25 86.75 L-163.5 81.5 -163.25 84.25 Q-163.75 91.25 -165.25 93.25 -166.5 92.5 -165.25 86.75 M-165.75 98.25 L-166.25 95.0 -165.25 95.25 -165.75 98.25 M-140.25 92.75 L-141.25 92.5 -140.0 92.0 -139.5 92.25 -140.25 92.75 M-156.25 77.5 L-156.0 79.0 -157.0 77.25 -156.25 77.5 M-156.25 66.25 Q-157.5 65.75 -156.25 63.0 L-154.75 60.5 -154.0 60.75 -156.25 66.25 M-157.25 73.0 L-157.5 71.0 Q-154.65 71.95 -157.25 73.0 M117.75 1.5 Q142.0 57.0 99.0 119.5 45.25 180.75 -27.75 177.0 -44.55 178.35 -81.0 164.25 -108.2 161.9 -131.0 150.25 -138.5 145.5 -142.25 135.5 -155.5 168.0 -171.0 175.5 -172.75 174.75 -172.75 171.75 L-172.75 161.75 -171.75 146.0 -166.75 99.0 -165.75 99.25 -166.5 111.0 -165.25 111.75 Q-166.5 113.75 -165.75 120.75 L-166.5 122.75 -165.75 125.25 -166.0 132.25 Q-164.25 133.25 -164.5 145.75 L-162.75 149.75 Q-160.75 150.75 -155.75 148.5 -148.5 147.0 -132.75 106.0 L-130.75 96.75 Q-137.75 95.25 -137.5 93.5 L-113.0 67.0 -113.25 66.5 -90.0 36.5 -89.0 34.0 -84.25 27.5 -88.25 36.25 -88.0 37.0 -90.25 40.75 -90.0 41.5 -105.0 70.75 -116.0 99.75 -116.75 102.5 -104.75 128.75 Q-42.75 186.0 30.25 157.0 137.0 110.75 117.75 1.5 M110.75 -18.75 L97.75 -33.0 123.0 -24.25 Q124.5 -27.0 139.25 -23.75 L138.5 -20.75 Q136.5 -20.75 132.25 -11.0 134.0 -9.25 134.75 -11.5 L138.25 -6.0 Q139.0 -7.0 136.75 -9.75 L137.5 -10.0 140.75 -4.5 144.5 -4.0 147.25 -2.25 Q152.75 -3.75 152.0 -12.5 159.0 9.5 151.75 16.0 143.25 17.0 123.0 -18.75 L109.5 -23.25 112.5 -15.0 Q111.25 -15.0 110.75 -18.75" fill="#000000" fill-opacity="0.49803922" fill-rule="evenodd" stroke="none"/>
  </g>
</svg>
