<?xml version="1.0" encoding="UTF-8" standalone="no"?>
<svg xmlns:ffdec="https://www.free-decompiler.com/flash" xmlns:xlink="http://www.w3.org/1999/xlink" ffdec:objectType="shape" height="339.5px" width="306.05px" xmlns="http://www.w3.org/2000/svg">
  <g transform="matrix(1.0, 0.0, 0.0, 1.0, 162.65, 144.25)">
    <path d="M-42.75 -138.25 Q-32.4 -145.55 -19.55 -143.95 8.6 -140.7 29.75 -121.75 L55.7 -98.05 Q59.85 -94.25 65.5 -92.15 107.2 -76.3 134.0 -41.05 137.45 -36.5 138.8 -30.95 141.25 -21.05 143.15 -11.0 143.8 -7.7 142.75 -4.5 141.55 -0.65 138.0 1.25 130.45 -2.5 125.1 -9.2 115.5 -21.2 107.5 -34.25 L98.25 -36.25 Q118.95 9.2 117.85 59.0 117.75 63.75 116.45 68.4 113.75 78.3 109.3 87.7 93.85 120.6 67.9 145.8 32.9 179.75 -15.7 182.45 -45.45 183.7 -74.25 175.75 L-89.35 164.15 Q-93.1 161.2 -97.15 158.75 -105.05 153.8 -108.75 146.0 L-109.5 145.75 -109.25 145.25 -110.65 142.1 Q-115.05 132.7 -118.5 123.0 L-119.55 128.1 Q-122.45 143.65 -128.75 158.0 -139.25 176.8 -153.4 193.05 -155.1 195.0 -157.85 195.1 -159.4 194.85 -159.95 193.65 -162.5 187.75 -162.6 181.3 -162.75 170.25 -162.3 159.1 -161.25 131.9 -156.15 105.4 -152.4 85.85 -144.55 67.65 -140.2 57.5 -136.75 47.25 L-122.5 16.0 -112.25 -1.25 -103.0 -28.75 -91.25 -56.5 -80.0 -80.0 -68.25 -102.75 Q-73.85 -119.35 -59.2 -129.3 -53.9 -132.85 -47.5 -133.0 L-42.75 -138.25" fill="#2e47aa" fill-rule="evenodd" stroke="none"/>
    <path d="M-74.25 175.75 Q-114.0 171.0 -123.75 162.0 L-128.75 158.0 Q-122.45 143.65 -119.55 128.1 L-118.5 123.0 Q-115.05 132.7 -110.65 142.1 L-109.25 145.25 -109.5 145.75 -108.75 146.0 Q-105.05 153.8 -97.15 158.75 -93.1 161.2 -89.35 164.15 L-74.25 175.75 M-80.0 -80.0 Q-83.85 -86.45 -86.55 -93.45 -95.45 -116.4 -77.0 -133.4 -73.8 -136.35 -70.0 -138.05 -56.5 -143.6 -42.75 -138.25 L-47.5 -133.0 Q-53.9 -132.85 -59.2 -129.3 -73.85 -119.35 -68.25 -102.75 L-80.0 -80.0" fill="#e58508" fill-rule="evenodd" stroke="none"/>
    <path d="M108.0 -13.0 L106.25 -17.0 107.0 -16.75 108.0 -13.0 M113.5 -41.0 L119.75 -39.5 127.25 -40.25 127.0 -37.0 Q121.0 -28.5 121.75 -26.75 126.0 -21.75 125.0 -27.5 L130.5 -20.25 131.0 -20.75 127.0 -26.5 128.75 -25.75 132.0 -20.0 Q139.5 -17.0 140.75 -23.25 L141.75 -21.25 Q146.0 -0.75 138.0 1.5 130.0 2.0 108.25 -33.75 L98.5 -36.25 101.75 -28.75 102.0 -27.5 99.5 -31.75 87.0 -45.5 93.5 -44.5 97.75 -42.75 116.0 -38.25 117.5 -38.25 118.5 -39.25 113.5 -41.0 M113.75 5.6 Q136.8 96.1 59.75 155.25 9.25 185.5 -30.5 184.5 -121.5 172.0 -128.25 158.25 -145.5 190.25 -156.75 195.25 -166.75 187.0 -158.75 111.25 -158.75 119.5 -157.25 120.25 -158.5 140.85 -153.5 157.25 -151.25 168.75 -137.25 162.75 -130.75 159.25 -121.25 136.5 -113.0 116.5 -124.75 116.75 -93.05 77.45 -76.5 47.5 -75.75 48.75 -79.25 57.0 L-92.75 86.0 -105.0 122.25 -96.5 135.75 -95.5 136.25 -87.5 147.75 -85.0 150.0 Q-19.5 194.5 57.0 145.0 95.0 112.75 107.75 83.5 122.0 42.2 113.75 5.6 M-149.75 82.75 L-147.5 77.5 -147.25 78.75 Q-148.75 79.0 -149.75 86.25 -151.0 85.75 -149.75 82.75 M-111.25 -2.5 L-111.75 -3.75 Q-110.25 -10.0 -108.75 -10.0 L-111.25 -2.5 M-150.5 95.0 Q-150.25 97.85 -148.45 99.35 L-150.5 97.75 -150.5 95.0 M-126.25 116.0 L-126.5 116.75 -127.25 116.5 -126.25 116.0 M-150.75 89.25 L-151.75 88.5 -150.25 88.5 -150.25 91.75 Q-151.75 91.75 -150.75 89.25 M-148.0 104.25 L-147.75 103.5 -146.75 104.75 -148.0 104.25 M-157.25 106.75 L-157.75 104.25 -155.5 99.0 -157.25 106.75" fill="#000000" fill-opacity="0.49803922" fill-rule="evenodd" stroke="none"/>
  </g>
</svg>
