<?xml version="1.0" encoding="UTF-8" standalone="no"?>
<svg xmlns:ffdec="https://www.free-decompiler.com/flash" xmlns:xlink="http://www.w3.org/1999/xlink" ffdec:objectType="shape" height="385.85px" width="232.2px" xmlns="http://www.w3.org/2000/svg">
  <g transform="matrix(1.0, 0.0, 0.0, 1.0, 123.25, 149.3)">
    <path d="M-55.25 -128.0 L-52.0 -133.0 Q-46.5 -141.0 -36.5 -136.0 -15.25 -171.5 39.0 -112.25 56.75 -109.5 86.25 -87.0 118.25 -70.5 98.25 -31.5 96.0 -28.75 94.5 -29.0 L91.5 -30.25 Q146.5 114.0 28.25 182.25 -0.4 196.65 -31.95 193.3 -41.8 192.0 -50.65 187.35 -59.8 182.55 -67.0 175.25 L-77.25 196.0 -78.75 198.75 -96.75 220.0 -110.0 231.75 Q-122.5 243.0 -122.25 228.0 L-122.5 208.5 -120.5 165.5 Q-120.2 145.9 -112.0 128.25 L-109.75 126.75 -109.7 126.05 -107.75 111.0 -104.25 91.75 Q-101.75 81.85 -99.9 71.9 -99.25 68.35 -99.25 64.75 L-96.25 28.75 Q-94.5 18.25 -92.4 7.85 -86.15 -22.65 -76.25 -52.0 L-65.75 -81.5 -63.75 -83.75 Q-71.85 -99.1 -65.0 -115.0 L-63.5 -117.25 -60.0 -120.5 -57.25 -121.25 -55.25 -128.0" fill="#2e47aa" fill-rule="evenodd" stroke="none"/>
    <path d="M28.25 182.25 Q24.2 189.45 16.45 191.25 L-2.5 195.0 -34.5 198.0 Q-55.95 199.65 -77.25 196.0 L-67.0 175.25 Q-59.8 182.55 -50.65 187.35 -41.8 192.0 -31.95 193.3 -0.4 196.65 28.25 182.25 M-120.5 165.5 Q-127.0 145.75 -111.5 116.75 L-107.75 111.0 -109.7 126.05 -109.75 126.75 -112.0 128.25 Q-120.2 145.9 -120.5 165.5 M-82.25 -55.0 Q-90.9 -60.65 -99.25 -66.65 -112.3 -75.9 -109.55 -91.0 -108.85 -94.8 -107.8 -98.4 -103.3 -113.8 -88.4 -119.5 -76.3 -124.05 -63.25 -121.75 L-63.0 -119.25 -63.5 -117.25 -65.0 -115.0 -68.75 -111.75 -71.25 -111.25 Q-73.75 -110.75 -74.5 -105.25 L-73.25 -102.0 Q-74.5 -93.6 -69.7 -86.7 -67.9 -84.0 -65.75 -81.5 L-76.25 -52.0 -82.25 -55.0" fill="#e58508" fill-rule="evenodd" stroke="none"/>
    <path d="M-104.25 91.75 Q-121.75 74.0 -82.25 -55.0 L-76.25 -52.0 Q-86.15 -22.65 -92.4 7.85 -94.5 18.25 -96.25 28.75 L-99.25 64.75 Q-99.25 68.35 -99.9 71.9 -101.75 81.85 -104.25 91.75 M-56.75 -127.25 L-55.25 -128.0 -57.25 -121.25 -60.0 -120.5 -63.5 -117.25 -63.0 -119.25 -60.5 -123.5 -56.75 -127.25 M-65.0 -115.0 Q-71.85 -99.1 -63.75 -83.75 L-65.75 -81.5 Q-67.9 -84.0 -69.7 -86.7 -74.5 -93.6 -73.25 -102.0 L-72.25 -104.25 -71.75 -104.0 -71.75 -105.5 Q-69.25 -108.5 -68.75 -111.75 L-65.0 -115.0" fill="#ffffff" fill-rule="evenodd" stroke="none"/>
    <path d="M-63.25 -121.75 Q-62.5 -125.75 -61.0 -126.0 L-56.75 -127.25 -60.5 -123.5 -63.0 -119.25 -63.25 -121.75 M-73.25 -102.0 L-74.5 -105.25 Q-73.75 -110.75 -71.25 -111.25 L-68.75 -111.75 Q-69.25 -108.5 -71.75 -105.5 L-71.75 -104.0 -72.25 -104.25 -73.25 -102.0" fill="#31333d" fill-rule="evenodd" stroke="none"/>
    <path d="M89.25 -61.75 Q104.25 -55.5 105.5 -63.0 108.75 -39.5 95.0 -29.0 L91.5 -30.25 Q72.4 -70.95 63.75 -81.0 88.25 -76.25 90.75 -82.0 94.5 -79.75 89.25 -61.75 M-106.25 104.0 L-105.5 104.0 -105.75 106.25 -106.25 104.0 M-101.0 81.75 L-103.75 91.75 Q-117.4 82.8 -103.25 27.4 -112.7 68.5 -101.0 81.75 M-95.25 -2.0 L-94.5 -2.0 -94.75 -0.5 -95.25 -2.0 M-94.75 -4.0 L-94.0 -4.0 -94.25 -2.75 -94.75 -4.0 M-85.75 -19.5 L-86.05 -17.95 Q-91.95 10.1 -94.25 38.75 L-99.25 74.25 Q-96.9 26.8 -85.75 -19.5 M-87.75 -34.0 L-87.0 -34.0 -87.25 -33.25 -87.75 -34.0 M-87.25 -36.0 L-86.5 -36.0 -86.75 -34.75 -87.25 -36.0 M-109.75 -81.75 L-109.75 -83.55 Q-107.2 -66.75 -75.0 -53.75 -76.5 -41.0 -86.25 -36.5 L-86.75 -38.25 -82.0 -55.25 -95.75 -63.25 Q-107.5 -72.75 -107.25 -75.25 L-109.75 -81.75 M64.0 157.5 L48.5 170.5 Q23.5 183.25 22.25 188.75 -10.0 198.8 -77.0 196.0 -104.65 230.95 -116.75 236.5 -127.25 230.25 -120.75 169.0 -119.2 170.4 -119.5 184.5 -121.3 227.0 -119.25 231.75 -98.3 214.15 -71.0 179.0 -69.5 177.75 -70.0 175.25 L-68.75 175.0 Q-67.5 170.0 -64.5 167.0 -56.0 145.5 -69.5 146.75 -58.65 131.35 -51.5 116.5 -47.5 111.75 -48.25 110.5 L-47.25 110.0 -47.25 108.75 -34.0 80.5 -33.0 77.0 -31.5 75.0 -28.5 64.5 Q-30.55 77.2 -48.25 131.0 -61.7 164.0 -46.75 167.0 -19.0 180.75 0.75 174.25 53.5 163.5 69.25 141.5 104.05 105.75 107.7 56.75 106.85 122.45 67.75 153.5 L64.0 157.5 M-107.0 109.5 L-106.75 111.25 -107.75 110.75 -107.0 109.5 M-119.75 167.75 L-121.25 162.0 -119.5 164.25 -119.75 167.75 M-118.5 146.0 L-116.5 140.5 -116.25 142.5 -118.0 147.0 -118.5 146.0 M-108.0 131.5 L-107.0 132.25 -107.25 133.0 -108.0 131.5 M-109.5 128.5 L-109.75 125.25 -108.0 127.25 -108.0 129.0 -109.5 128.5 M-110.75 115.5 Q-109.0 110.75 -107.25 111.5 -107.0 116.75 -108.75 117.0 L-108.25 118.5 -110.75 115.5 M-105.75 107.25 L-106.25 108.75 -106.75 107.0 -105.75 107.25" fill="#000000" fill-opacity="0.49803922" fill-rule="evenodd" stroke="none"/>
  </g>
</svg>
