<?xml version="1.0" encoding="UTF-8" standalone="no"?>
<svg xmlns:ffdec="https://www.free-decompiler.com/flash" xmlns:xlink="http://www.w3.org/1999/xlink" ffdec:objectType="shape" height="384.3px" width="222.7px" xmlns="http://www.w3.org/2000/svg">
  <g transform="matrix(1.0, 0.0, 0.0, 1.0, 115.25, 129.25)">
    <path d="M-69.5 -97.25 Q-72.85 -101.45 -69.75 -105.6 -68.5 -107.25 -66.75 -108.5 -66.5 -98.25 -69.5 -97.25 M-65.5 -115.5 L-66.25 -116.5 -66.0 -121.75 Q-66.0 -124.25 -61.0 -125.0 -63.0 -123.25 -64.25 -116.75 L-65.5 -115.5" fill="#000000" fill-rule="evenodd" stroke="none"/>
    <path d="M-69.5 -97.25 Q-66.5 -98.25 -66.75 -108.5 L-65.75 -110.5 -65.5 -115.5 -64.25 -116.75 Q-63.0 -123.25 -61.0 -125.0 L-56.0 -129.25 Q-56.8 -125.15 -56.25 -120.5 -58.0 -118.25 -58.6 -115.75 -62.55 -98.85 -53.5 -83.25 L-57.0 -79.0 -58.0 -79.25 -64.5 -84.25 Q-68.5 -88.0 -69.5 -97.25" fill="#ffffff" fill-rule="evenodd" stroke="none"/>
    <path d="M-66.75 -108.5 Q-68.5 -107.25 -69.75 -105.6 -72.85 -101.45 -69.5 -97.25 -68.5 -88.0 -64.5 -84.25 L-58.0 -79.25 Q-60.1 -62.15 -66.0 -46.0 L-82.25 -50.0 Q-90.45 -52.15 -98.2 -55.45 -106.85 -59.1 -108.5 -67.75 -117.55 -115.45 -66.25 -116.5 L-65.5 -115.5 -65.75 -110.5 -66.75 -108.5 M-84.0 178.0 L-85.75 199.5 Q-98.45 197.0 -104.95 185.8 -128.0 145.9 -96.25 108.25 L-74.7 133.25 -73.0 134.5 -72.5 137.5 Q-84.65 155.15 -84.25 177.5 L-84.0 178.0 M-28.5 186.25 Q-16.0 199.75 26.25 188.25 L37.5 182.75 Q35.65 185.0 33.3 186.5 2.8 206.0 -37.0 203.5 L-28.5 186.25" fill="#e58508" fill-rule="evenodd" stroke="none"/>
    <path d="M75.1 -81.2 L76.0 -70.5 72.0 -56.75 62.25 -76.25 Q75.05 -76.25 75.1 -81.2 M47.5 -100.5 Q69.75 -110.0 61.0 -79.0 L47.5 -100.5 M-82.0 -49.75 L-84.8 -50.3 Q-100.65 -52.5 -109.6 -65.75 L-110.8 -67.55 Q-91.4 -49.25 -64.5 -47.75 L-69.75 -38.75 -79.75 -33.25 -79.5 -32.5 Q-85.25 -21.9 -88.0 -10.35 -90.95 2.2 -95.4 14.25 -116.25 70.75 -77.75 114.75 L-80.5 75.0 Q-84.15 50.75 -80.75 26.5 L-77.25 71.5 -70.2 98.9 -69.25 98.75 Q-71.5 119.1 -71.0 139.5 -80.7 142.9 -80.0 154.0 L-81.5 153.75 Q-100.4 140.75 -104.95 120.2 -101.2 113.3 -95.75 107.75 -107.05 90.5 -106.75 70.75 L-102.25 32.25 -93.0 2.5 -88.75 -16.0 -82.0 -49.75 M101.0 15.5 Q105.55 26.4 106.6 38.0 115.2 131.75 37.75 182.5 35.15 190.25 27.0 193.0 -3.85 203.8 -37.25 203.5 L-39.3 206.5 Q-55.65 227.0 -70.85 248.25 -78.2 258.55 -85.75 253.25 L-86.75 245.5 Q-78.85 255.1 -72.75 242.75 L-44.75 208.5 -39.0 198.5 Q-36.25 197.1 -34.65 194.25 L-34.1 193.2 -33.45 192.05 Q-26.45 180.7 -23.25 168.0 L-23.75 167.25 -23.1 166.9 -22.7 166.6 -22.45 166.1 Q-19.6 160.1 -19.25 153.25 L-22.25 147.25 -26.25 148.0 Q-20.15 134.35 -15.05 120.35 -5.35 93.5 4.75 66.75 L-3.75 101.25 -17.5 170.25 Q25.75 183.9 60.65 151.9 121.4 96.2 101.0 15.5 M-112.2 175.5 Q-105.15 187.65 -92.3 193.05 -85.35 195.95 -84.35 188.5 L-86.0 227.95 -85.5 200.0 -88.1 199.25 Q-110.0 192.05 -115.25 169.0 -113.95 172.5 -112.2 175.5" fill="#000000" fill-opacity="0.49803922" fill-rule="evenodd" stroke="none"/>
  </g>
</svg>
