<?xml version="1.0" encoding="UTF-8" standalone="no"?>
<svg xmlns:ffdec="https://www.free-decompiler.com/flash" xmlns:xlink="http://www.w3.org/1999/xlink" ffdec:objectType="shape" height="380.6px" width="234.6px" xmlns="http://www.w3.org/2000/svg">
  <g transform="matrix(1.0, 0.0, 0.0, 1.0, 122.5, 140.0)">
    <path d="M-53.0 -129.75 Q-55.0 -137.0 -47.0 -138.25 -50.0 -136.0 -53.0 -129.75 M-57.25 -123.0 L-57.25 -120.25 -61.0 -112.5 -62.5 -115.75 Q-62.5 -121.35 -57.25 -123.0" fill="#000000" fill-rule="evenodd" stroke="none"/>
    <path d="M-52.5 -93.0 L-63.25 -61.5 -64.5 -61.75 -73.25 -65.5 Q-105.35 -74.75 -98.1 -103.75 -90.8 -132.8 -60.15 -130.5 L-53.0 -129.75 Q-53.75 -128.5 -53.5 -127.0 L-57.25 -123.0 Q-62.5 -121.35 -62.5 -115.75 L-61.0 -112.5 Q-60.75 -98.0 -52.5 -93.0 M-90.75 118.5 L-90.25 119.0 Q-90.4 120.6 -91.0 122.0 -106.2 156.15 -104.75 194.5 -133.0 177.5 -116.25 127.25 -107.5 107.0 -95.75 101.75 L-90.0 110.75 -90.75 118.5 M-50.5 178.5 L-47.5 180.4 Q-17.2 198.4 16.0 186.7 L13.25 187.75 -13.75 194.75 -44.25 200.0 -63.5 201.5 -50.5 178.5" fill="#e58508" fill-rule="evenodd" stroke="none"/>
    <path d="M-47.0 -138.25 L-44.0 -140.0 -45.25 -133.5 -47.75 -132.75 Q-49.65 -130.25 -50.75 -127.45 -57.15 -111.55 -49.25 -96.25 L-52.5 -93.0 Q-60.75 -98.0 -61.0 -112.5 L-57.25 -120.25 -57.25 -123.0 -53.5 -127.0 Q-53.75 -128.5 -53.0 -129.75 -50.0 -136.0 -47.0 -138.25" fill="#ffffff" fill-rule="evenodd" stroke="none"/>
    <path d="M66.0 -93.0 Q92.25 -94.2 82.9 -67.95 82.45 -66.7 82.5 -65.25 88.05 -64.0 92.6 -66.8 94.6 -68.0 95.35 -70.0 L89.5 -42.0 75.5 -75.25 66.0 -93.0 M99.75 -14.25 L105.5 7.5 Q127.75 72.0 74.75 147.25 34.25 196.5 -63.5 201.5 L-77.75 220.0 -93.25 235.5 -100.0 240.5 Q-103.0 241.0 -104.25 239.25 L-105.25 232.25 Q-103.0 236.75 -96.0 235.0 L-96.25 234.5 Q-51.7 185.6 -48.75 173.0 -33.25 142.75 -47.0 138.75 -26.85 103.9 -8.25 50.5 -14.7 76.5 -39.25 165.75 5.5 193.0 78.0 133.0 123.75 64.75 105.5 7.5 L97.25 -20.0 99.75 -14.25 M-101.75 -96.5 Q-104.65 -89.9 -98.3 -83.0 -89.45 -73.35 -62.5 -63.0 L-66.25 -55.0 -75.0 -50.75 Q-80.75 -45.0 -84.75 -20.5 -83.65 -32.7 -73.0 -65.5 -92.45 -74.75 -99.3 -83.0 -105.25 -90.15 -101.75 -96.5 M-82.5 5.0 Q-86.0 25.35 -83.5 77.5 -93.1 116.2 -89.05 123.25 -90.6 121.6 -92.25 123.25 L-96.0 132.5 -107.75 113.25 Q-108.0 110.75 -100.25 104.0 L-95.25 101.5 Q-103.3 98.15 -105.75 55.5 -105.0 39.5 -99.25 28.5 -113.25 67.25 -89.25 96.5 -89.1 34.4 -82.5 5.0 M-105.1 189.0 Q-104.65 189.35 -104.0 189.5 L-103.75 179.0 Q-102.65 202.9 -104.75 226.75 L-104.25 194.75 Q-115.35 187.95 -119.7 175.55 -113.9 183.7 -105.1 189.0" fill="#000000" fill-opacity="0.49803922" fill-rule="evenodd" stroke="none"/>
  </g>
</svg>
