<?xml version="1.0" encoding="UTF-8" standalone="no"?>
<svg xmlns:ffdec="https://www.free-decompiler.com/flash" xmlns:xlink="http://www.w3.org/1999/xlink" ffdec:objectType="shape" height="329.7px" width="328.2px" xmlns="http://www.w3.org/2000/svg">
  <g transform="matrix(1.0, 0.0, 0.0, 1.0, 172.75, 152.5)">
    <path d="M-34.05 -152.0 L-26.5 -150.25 -34.0 -144.75 Q-47.45 -145.45 -54.35 -134.2 -58.25 -127.9 -56.75 -120.75 L-68.5 -102.75 Q-76.15 -122.1 -62.7 -137.85 -55.5 -146.3 -46.0 -152.25 -39.95 -152.9 -34.05 -152.0 M-127.75 88.75 Q-127.5 130.4 -95.25 155.05 -88.75 159.95 -81.75 164.25 -101.25 161.75 -119.95 155.8 -135.65 150.95 -142.5 135.5 -135.05 117.55 -132.05 98.25 L-131.25 92.75 -127.75 88.75" fill="#e58508" fill-rule="evenodd" stroke="none"/>
    <path d="M97.75 -33.0 L123.0 -24.25 Q124.5 -27.0 139.25 -23.75 L138.5 -20.75 Q136.5 -20.75 132.25 -11.0 134.0 -9.25 134.75 -11.5 L138.25 -6.0 Q139.0 -7.0 136.75 -9.75 L137.5 -10.0 140.75 -4.5 144.5 -4.0 147.25 -2.25 Q152.75 -3.75 152.0 -12.5 159.0 9.5 151.75 16.0 143.25 17.0 123.0 -18.75 L109.5 -23.25 112.5 -15.0 97.75 -33.0 M99.0 119.5 Q45.25 180.75 -27.75 177.0 -44.55 178.35 -81.0 164.25 -108.2 161.9 -131.0 150.25 -135.8 147.2 -139.05 142.0 L-142.25 135.5 -145.0 142.0 Q-157.1 168.8 -171.0 175.5 -172.75 174.75 -172.75 171.75 L-172.75 161.75 -171.3 142.0 -166.75 99.0 -165.75 99.25 -166.5 111.0 -165.25 111.75 -165.55 117.3 Q-166.0 129.7 -164.45 142.0 -164.45 153.75 -155.75 148.5 -153.05 147.95 -149.2 142.0 -136.65 123.05 -131.65 100.7 L-130.75 96.75 -137.1 94.35 -125.5 80.55 -113.0 67.0 -84.25 27.5 -106.05 73.5 -116.0 99.75 -116.75 102.5 -104.75 128.75 Q-42.75 186.0 30.25 157.0 137.0 110.75 117.75 1.5 142.0 57.0 99.0 119.5" fill="#000000" fill-opacity="0.49803922" fill-rule="evenodd" stroke="none"/>
  </g>
</svg>
