<?xml version="1.0" encoding="UTF-8" standalone="no"?>
<svg xmlns:ffdec="https://www.free-decompiler.com/flash" xmlns:xlink="http://www.w3.org/1999/xlink" ffdec:objectType="shape" height="335.6px" width="305.5px" xmlns="http://www.w3.org/2000/svg">
  <g transform="matrix(1.0, 0.0, 0.0, 1.0, 162.3, 140.35)">
    <path d="M-47.5 -133.0 Q-53.9 -132.85 -59.2 -129.3 -73.85 -119.35 -68.25 -102.75 L-80.0 -80.0 Q-103.4 -117.95 -65.6 -137.25 -54.6 -142.9 -42.75 -138.25 L-47.5 -133.0 M-109.5 145.75 L-108.75 146.0 -107.5 147.75 Q-93.15 163.9 -74.25 175.75 -114.0 171.0 -123.75 162.0 L-128.75 158.0 Q-121.45 141.2 -118.5 123.0 L-109.25 145.25 -109.5 145.75" fill="#e58508" fill-rule="evenodd" stroke="none"/>
    <path d="M119.75 -39.5 L127.25 -40.25 127.0 -37.0 Q121.0 -28.5 121.75 -26.75 126.0 -21.75 125.0 -27.5 L130.5 -20.25 131.0 -20.75 132.0 -20.0 Q139.5 -17.0 140.75 -23.25 L141.75 -21.25 Q146.0 -0.75 138.0 1.5 130.0 2.0 108.25 -33.75 L98.5 -36.25 101.75 -28.75 102.0 -27.5 99.5 -31.75 87.0 -45.5 93.5 -44.5 97.75 -42.75 116.0 -38.25 117.5 -38.25 118.5 -39.25 113.5 -41.0 119.75 -39.5 M107.75 83.5 Q122.0 42.2 113.75 5.6 136.8 96.1 59.75 155.25 9.25 185.5 -30.5 184.5 -121.5 172.0 -128.25 158.25 -145.5 190.25 -156.75 195.25 -166.75 187.0 -158.75 111.5 -158.75 119.5 -157.25 120.25 -158.5 140.85 -153.5 157.25 -151.25 168.75 -137.25 162.75 -130.75 159.25 -121.25 136.5 -113.0 116.5 -124.75 116.75 -94.4 79.15 -76.7 50.1 -77.35 52.5 -79.25 57.0 L-92.75 86.0 -105.0 122.25 -96.5 135.75 -95.5 136.25 -87.5 147.75 -85.0 150.0 Q-19.5 194.5 57.0 145.0 95.0 112.75 107.75 83.5" fill="#000000" fill-opacity="0.49803922" fill-rule="evenodd" stroke="none"/>
  </g>
</svg>
