<?xml version="1.0" encoding="UTF-8" standalone="no"?>
<svg xmlns:ffdec="https://www.free-decompiler.com/flash" xmlns:xlink="http://www.w3.org/1999/xlink" ffdec:objectType="shape" height="364.5px" width="230.95px" xmlns="http://www.w3.org/2000/svg">
  <g transform="matrix(1.0, 0.0, 0.0, 1.0, 123.25, 128.0)">
    <path d="M-56.75 -127.25 L-55.25 -128.0 -57.25 -121.25 -60.0 -120.5 -63.5 -117.25 -63.0 -119.25 -60.5 -123.5 -56.75 -127.25 M-65.0 -115.0 Q-71.85 -99.1 -63.75 -83.75 L-65.75 -81.5 Q-67.9 -84.0 -69.7 -86.7 -74.5 -93.6 -73.25 -102.0 L-68.75 -111.75 -65.0 -115.0" fill="#ffffff" fill-rule="evenodd" stroke="none"/>
    <path d="M-56.75 -127.25 L-60.5 -123.5 -63.0 -119.25 -63.25 -121.75 Q-62.5 -125.75 -61.0 -126.0 L-56.75 -127.25" fill="#000000" fill-rule="evenodd" stroke="none"/>
    <path d="M-63.0 -119.25 L-63.5 -117.25 -65.0 -115.0 -68.75 -111.75 Q-70.3 -111.4 -71.55 -110.6 -74.35 -108.85 -74.5 -105.25 L-73.25 -102.0 Q-74.5 -93.6 -69.7 -86.7 -67.9 -84.0 -65.75 -81.5 L-76.25 -52.0 -82.25 -55.0 -99.35 -66.5 Q-108.55 -72.95 -108.1 -83.7 -106.4 -126.2 -63.25 -121.75 L-63.0 -119.25 M-112.0 128.25 Q-120.2 146.0 -120.5 165.5 -127.0 145.75 -111.5 116.75 L-107.75 111.0 -109.75 126.75 -112.0 128.25 M-67.0 175.25 Q-35.45 203.25 6.55 190.95 17.75 187.55 28.25 182.25 24.2 189.45 16.45 191.25 L-2.5 195.0 -34.5 198.0 Q-55.95 199.65 -77.25 196.0 L-67.0 175.25" fill="#e58508" fill-rule="evenodd" stroke="none"/>
    <path d="M90.75 -82.0 Q94.5 -79.75 89.25 -61.75 104.25 -55.5 105.5 -63.0 108.75 -39.5 95.0 -29.0 L91.5 -30.25 Q72.4 -70.95 63.75 -81.0 88.25 -76.25 90.75 -82.0 M48.5 170.5 Q23.5 183.25 22.25 188.75 -10.0 198.8 -77.0 196.0 -104.65 230.95 -116.75 236.5 -127.25 230.25 -120.75 169.0 -119.2 170.4 -119.5 184.5 -121.3 227.0 -119.25 231.75 -98.3 214.15 -71.0 179.0 -69.5 177.75 -68.75 175.0 -67.5 170.0 -64.5 167.0 -56.0 145.5 -69.5 146.75 -58.65 131.35 -51.5 116.5 -47.5 111.75 -48.25 110.5 L-47.25 110.0 -47.25 108.75 -34.0 80.5 -33.0 77.0 -31.5 75.0 -28.5 64.5 Q-30.55 77.2 -48.25 131.0 -61.7 164.0 -46.75 167.0 -19.0 180.75 0.75 174.25 53.5 163.5 69.25 141.5 104.05 105.75 107.7 56.75 106.85 122.45 67.75 153.5 L64.0 157.5 48.5 170.5 M-109.75 -83.55 Q-100.3 -60.85 -75.0 -53.75 -75.6 -46.6 -80.1 -41.05 -82.65 -37.95 -86.25 -36.5 L-86.75 -38.25 -82.0 -55.25 Q-102.75 -62.5 -109.75 -81.75 L-109.75 -83.55 M-103.75 91.75 Q-117.4 82.8 -103.25 27.4 -112.7 68.5 -101.0 81.75 L-103.75 91.75 M-99.25 74.25 Q-96.7 26.7 -85.75 -19.5 -93.35 24.95 -98.65 69.85 L-99.25 74.25 M-107.25 111.5 Q-107.0 116.75 -108.75 117.0 L-108.25 118.5 -110.75 115.5 Q-109.0 110.75 -107.25 111.5" fill="#000000" fill-opacity="0.49803922" fill-rule="evenodd" stroke="none"/>
  </g>
</svg>
