<?xml version="1.0" encoding="UTF-8" standalone="no"?>
<svg xmlns:ffdec="https://www.free-decompiler.com/flash" xmlns:xlink="http://www.w3.org/1999/xlink" ffdec:objectType="shape" height="338.25px" width="348.75px" xmlns="http://www.w3.org/2000/svg">
  <g transform="matrix(1.0, 0.0, 0.0, 1.0, 182.35, 158.25)">
    <path d="M65.65 -109.65 Q68.65 -104.65 73.4 -101.25 92.0 -87.95 111.35 -75.5 167.25 -39.5 166.4 25.3 L166.35 28.15 Q148.2 24.25 138.5 0.0 L120.25 -31.0 107.0 -37.75 Q114.85 -21.7 118.85 -4.25 129.0 40.0 111.95 82.2 75.5 172.25 -20.5 179.75 L-30.0 180.0 Q-56.5 179.45 -79.75 167.0 L-92.25 157.75 Q-117.15 127.4 -116.75 87.0 L-121.25 91.75 -121.0 93.75 -121.5 94.25 Q-120.85 98.0 -122.45 101.4 L-122.75 102.75 -123.25 103.0 -129.5 115.5 Q-138.2 132.0 -153.95 140.4 -167.05 147.4 -180.8 153.0 L-182.1 153.25 -182.35 153.15 Q-182.75 123.9 -171.95 95.3 -161.45 67.4 -145.4 42.35 L-133.75 24.0 -114.25 -5.0 -94.25 -27.75 -88.25 -42.75 -64.5 -90.5 -50.25 -115.25 -51.0 -118.25 -50.85 -121.1 Q-50.05 -144.6 -29.5 -146.75 L-29.0 -148.5 -27.25 -149.5 Q-21.95 -153.05 -16.3 -155.9 -10.7 -158.7 -4.9 -158.15 40.05 -152.45 65.65 -109.65" fill="#2e47aa" fill-rule="evenodd" stroke="none"/>
  </g>
</svg>
