<?xml version="1.0" encoding="UTF-8" standalone="no"?>
<svg xmlns:ffdec="https://www.free-decompiler.com/flash" xmlns:xlink="http://www.w3.org/1999/xlink" ffdec:objectType="shape" height="328.8px" width="364.8px" xmlns="http://www.w3.org/2000/svg">
  <g transform="matrix(1.0, 0.0, 0.0, 1.0, 185.15, 158.4)">
    <path d="M7.0 -152.5 L14.0 -156.5 Q21.35 -160.25 28.3 -156.55 78.65 -130.4 102.75 -75.5 L119.0 -62.0 145.5 -33.25 Q184.2 10.4 179.05 69.25 178.9 71.25 177.9 71.0 163.85 68.95 160.25 49.5 L146.25 14.25 140.3 9.2 Q135.85 5.6 131.25 3.0 136.2 21.1 137.4 39.8 140.45 88.4 106.1 122.4 40.75 187.05 -49.2 164.65 -124.25 145.85 -123.5 68.0 L-120.75 46.5 -130.75 53.5 Q-143.45 83.55 -167.1 105.35 -168.75 106.9 -170.75 108.05 -176.25 111.35 -182.35 112.25 -183.2 112.55 -183.7 111.65 -186.3 107.25 -184.25 102.05 -182.55 97.65 -181.4 93.1 L-180.25 88.5 -161.75 35.25 -132.5 -4.25 -101.25 -38.25 -78.75 -56.5 -60.5 -82.75 -44.0 -104.25 -32.0 -118.75 -18.0 -133.75 Q-18.55 -140.75 -13.4 -145.5 -4.55 -153.9 7.0 -152.5" fill="#2e47aa" fill-rule="evenodd" stroke="none"/>
  </g>
</svg>
