<?xml version="1.0" encoding="UTF-8" standalone="no"?>
<svg xmlns:ffdec="https://www.free-decompiler.com/flash" xmlns:xlink="http://www.w3.org/1999/xlink" ffdec:objectType="shape" height="326.25px" width="366.5px" xmlns="http://www.w3.org/2000/svg">
  <g transform="matrix(1.0, 0.0, 0.0, 1.0, 179.25, 154.75)">
    <path d="M35.0 -148.75 Q52.5 -147.9 55.7 -130.5 L56.0 -128.25 66.25 -114.0 76.7 -97.05 89.25 -75.25 103.25 -45.75 106.4 -43.4 Q115.75 -34.5 124.75 -25.25 L143.25 -1.25 157.05 18.4 Q186.8 61.5 187.25 115.95 187.25 118.65 186.7 121.4 183.65 122.2 180.2 121.05 165.85 116.6 159.0 102.95 147.5 80.15 132.75 59.9 131.15 57.75 129.0 56.0 132.25 73.9 129.25 91.65 118.85 152.85 59.0 168.0 L19.45 171.3 Q7.35 171.75 -4.75 171.25 -79.0 163.45 -117.3 97.2 -126.5 81.25 -126.6 62.7 -126.85 26.05 -115.25 -9.0 L-134.0 1.75 -153.5 35.25 Q-162.35 51.9 -176.75 62.5 -182.5 47.75 -175.0 27.0 -164.8 -1.25 -145.5 -24.5 L-124.25 -46.25 -99.25 -67.5 Q-65.5 -92.05 -37.65 -124.3 -12.4 -153.4 25.5 -154.75 L35.0 -148.75" fill="#2e47aa" fill-rule="evenodd" stroke="none"/>
  </g>
</svg>
