<?xml version="1.0" encoding="UTF-8" standalone="no"?>
<svg xmlns:ffdec="https://www.free-decompiler.com/flash" xmlns:xlink="http://www.w3.org/1999/xlink" ffdec:objectType="shape" height="335.0px" width="352.85px" xmlns="http://www.w3.org/2000/svg">
  <g transform="matrix(1.0, 0.0, 0.0, 1.0, 169.35, 158.7)">
    <path d="M25.75 -150.0 L27.75 -148.75 28.25 -146.75 32.7 -146.6 37.0 -145.55 Q50.3 -139.75 50.5 -125.05 L50.5 -121.75 49.75 -116.25 56.0 -106.0 56.95 -104.35 63.75 -91.75 86.25 -46.25 93.25 -28.0 113.25 -5.5 133.0 24.0 Q175.1 80.95 183.45 151.15 L183.5 151.65 Q132.25 143.9 120.5 91.25 L115.25 86.25 115.25 88.0 Q114.35 97.85 113.7 107.75 112.8 121.65 107.0 133.75 91.75 169.5 51.25 176.25 31.0 176.5 10.8 175.8 2.35 175.0 -6.0 173.25 -61.15 165.85 -97.45 123.15 -109.4 109.1 -114.2 91.65 -132.1 26.75 -107.75 -37.75 L-121.25 -30.75 -138.0 -2.25 Q-148.25 17.8 -164.95 32.6 L-165.6 32.6 Q-172.3 17.1 -166.95 -1.45 -157.75 -33.6 -130.45 -54.4 -82.9 -90.6 -44.1 -135.85 -12.4 -172.85 25.75 -150.0" fill="#2e47aa" fill-rule="evenodd" stroke="none"/>
  </g>
</svg>
