<?xml version="1.0" encoding="UTF-8" standalone="no"?>
<svg xmlns:ffdec="https://www.free-decompiler.com/flash" xmlns:xlink="http://www.w3.org/1999/xlink" ffdec:objectType="shape" height="333.0px" width="365.15px" xmlns="http://www.w3.org/2000/svg">
  <g transform="matrix(1.0, 0.0, 0.0, 1.0, 184.85, 160.25)">
    <path d="M14.0 -156.5 L7.0 -152.5 Q-4.55 -153.9 -13.4 -145.5 -18.55 -140.75 -18.0 -133.75 L-32.0 -118.75 Q-34.75 -147.0 -0.5 -160.25 L8.5 -158.75 14.0 -156.5 M-126.25 60.25 L-127.0 51.0 -120.75 46.5 -123.5 68.0 -126.25 60.25" fill="#e58508" fill-rule="evenodd" stroke="none"/>
    <path d="M-145.85 78.25 L-134.75 62.9 Q-146.1 90.9 -170.95 107.95 -185.85 118.2 -184.75 104.0 L-175.75 75.0 -175.0 75.0 -182.5 102.25 -182.0 102.55 Q-179.55 101.1 -176.95 100.05 -158.45 92.95 -145.85 78.25 M120.25 -8.75 L115.0 -16.0 Q155.5 15.75 164.0 13.0 164.25 15.5 153.5 23.25 157.0 35.5 166.5 42.25 179.95 46.9 176.65 26.75 184.65 68.4 175.0 73.0 162.4 60.25 146.5 13.75 L131.25 3.0 Q146.5 55.0 117.75 112.0 84.0 161.0 2.0 172.75 -78.8 166.05 -98.3 142.3 -117.85 118.5 -122.0 101.75 -121.75 59.75 -126.75 55.75 -128.5 52.75 -121.0 50.0 L-120.75 46.5 Q-126.5 49.5 -126.25 51.0 -129.15 51.95 -133.05 59.5 L-132.5 57.75 Q-132.25 56.25 -137.75 53.0 -130.25 50.8 -77.75 10.0 -107.85 45.45 -119.25 69.75 -123.25 89.5 -108.25 113.75 -57.75 175.25 18.75 159.5 88.0 140.75 114.25 95.0 132.6 54.75 130.25 9.75 L120.25 -8.75" fill="#000000" fill-opacity="0.49803922" fill-rule="evenodd" stroke="none"/>
  </g>
</svg>
