<?xml version="1.0" encoding="UTF-8" standalone="no"?>
<svg xmlns:ffdec="https://www.free-decompiler.com/flash" xmlns:xlink="http://www.w3.org/1999/xlink" ffdec:objectType="shape" height="343.05px" width="366.3px" xmlns="http://www.w3.org/2000/svg">
  <g transform="matrix(1.0, 0.0, 0.0, 1.0, 179.5, 156.3)">
    <path d="M35.0 -148.75 L25.5 -154.75 Q40.9 -159.7 52.65 -148.95 67.95 -135.0 66.25 -114.0 L56.0 -128.25 55.7 -130.5 Q52.5 -147.9 35.0 -148.75 M13.65 184.15 Q1.7 181.75 -4.75 171.25 7.35 171.75 19.45 171.3 L59.0 168.0 Q39.1 188.8 13.65 184.15" fill="#e58508" fill-rule="evenodd" stroke="none"/>
    <path d="M-123.5 -10.0 L-91.0 -29.0 Q-149.5 42.65 -104.5 102.85 -97.4 111.4 -89.6 119.35 -73.75 135.5 -53.45 145.2 -31.1 155.9 -6.0 157.7 45.75 161.75 92.25 132.0 116.25 118.75 124.25 68.5 L115.75 48.75 100.25 26.0 130.5 53.75 137.25 58.5 139.4 58.15 146.25 63.5 152.5 66.25 Q141.75 70.0 142.75 73.25 141.0 68.25 142.0 66.75 L129.0 56.0 Q129.75 118.0 117.25 129.0 97.45 154.65 69.0 165.5 53.05 171.05 31.5 184.75 L24.5 186.75 Q1.5 185.75 -4.5 171.25 L-6.0 171.05 Q-15.95 169.75 -25.7 167.35 -48.75 161.8 -69.35 150.35 -89.95 138.85 -104.5 120.55 L-105.25 119.25 Q-143.5 78.0 -115.0 -8.75 L-133.25 1.25 -157.55 41.0 -169.25 56.75 -174.5 61.75 Q-182.5 58.4 -177.75 41.0 L-171.75 24.5 -172.4 26.45 Q-175.0 32.75 -170.7 37.45 -152.1 29.65 -140.75 8.0 L-146.5 4.25 -148.0 1.25 -123.5 -10.0 M185.0 122.5 Q156.5 114.25 143.0 73.5 181.0 128.0 176.75 59.5 191.0 115.25 185.0 122.5" fill="#000000" fill-opacity="0.49803922" fill-rule="evenodd" stroke="none"/>
  </g>
</svg>
