<?xml version="1.0" encoding="UTF-8" standalone="no"?>
<svg xmlns:ffdec="https://www.free-decompiler.com/flash" xmlns:xlink="http://www.w3.org/1999/xlink" ffdec:objectType="shape" height="340.45px" width="352.25px" xmlns="http://www.w3.org/2000/svg">
  <g transform="matrix(1.0, 0.0, 0.0, 1.0, 168.75, 151.75)">
    <path d="M51.25 176.25 Q48.1 178.1 45.1 180.15 15.05 200.15 -6.0 173.25 2.35 175.0 10.8 175.8 31.0 176.5 51.25 176.25 M115.25 88.0 Q117.25 92.0 118.1 96.25 122.4 117.55 107.0 133.75 112.8 121.65 113.7 107.75 114.35 97.85 115.25 88.0 M27.75 -148.75 Q32.25 -150.8 37.0 -151.45 46.05 -152.8 53.85 -148.15 78.5 -133.35 71.4 -106.0 68.95 -99.15 63.75 -91.75 L56.95 -104.35 56.0 -106.0 49.75 -116.25 50.5 -121.75 50.5 -125.05 Q50.3 -139.75 37.0 -145.55 L32.7 -146.6 28.25 -146.75 27.75 -148.75" fill="#e58508" fill-rule="evenodd" stroke="none"/>
    <path d="M-140.25 -13.25 L-136.25 -20.0 Q-136.0 -23.0 -143.75 -27.5 L-145.25 -30.75 Q-138.25 -34.5 -136.25 -33.5 L-124.5 -38.5 -95.25 -52.5 Q-124.0 -19.75 -118.0 59.75 -98.0 134.0 -44.0 148.75 40.75 174.5 93.0 136.0 108.0 110.75 106.75 102.25 87.1 59.15 73.25 41.0 113.45 84.0 128.0 91.0 122.5 91.25 120.75 94.25 119.75 93.5 120.75 91.25 L115.25 86.25 Q126.0 106.25 113.5 125.25 96.7 152.5 85.25 162.5 L71.0 170.75 Q52.25 173.25 29.25 187.5 17.2 191.15 -0.75 180.75 -3.25 179.25 -5.75 173.25 -61.05 161.3 -96.25 123.25 -145.75 60.5 -107.5 -37.75 L-121.0 -31.0 -137.75 -2.5 -149.0 15.0 -159.0 28.75 -163.5 32.75 -166.5 32.0 -168.25 28.75 -168.75 16.5 -167.25 3.5 -164.75 -6.0 Q-167.5 7.0 -159.5 4.5 -144.5 -14.0 -140.25 -13.25 M183.0 146.25 L183.5 151.75 181.5 153.75 Q140.25 143.75 122.0 101.5 130.5 118.0 143.0 125.25 158.8 133.8 175.75 144.25 181.0 150.5 183.0 146.25" fill="#000000" fill-opacity="0.49803922" fill-rule="evenodd" stroke="none"/>
  </g>
</svg>
