<?xml version="1.0" encoding="UTF-8" standalone="no"?>
<svg xmlns:ffdec="https://www.free-decompiler.com/flash" xmlns:xlink="http://www.w3.org/1999/xlink" ffdec:objectType="shape" height="330.45px" width="359.6px" xmlns="http://www.w3.org/2000/svg">
  <g transform="matrix(1.0, 0.0, 0.0, 1.0, 174.9, 156.0)">
    <path d="M6.75 -153.75 Q47.6 -164.75 52.7 -121.55 53.6 -113.75 50.5 -106.5 L35.5 -126.5 Q35.6 -134.2 32.0 -140.85 25.5 -152.75 11.0 -150.75 L6.75 -153.75 M119.5 76.75 Q122.25 79.6 123.25 83.25 128.8 103.1 115.25 119.75 117.75 102.0 119.5 84.15 119.85 80.5 119.5 76.75" fill="#e58508" fill-rule="evenodd" stroke="none"/>
    <path d="M-135.5 -9.75 L-155.7 32.5 Q-161.6 43.1 -169.5 52.5 -173.7 53.7 -174.2 49.15 -175.15 40.8 -174.8 32.5 L-171.8 14.15 -171.3 14.7 -171.1 15.35 Q-170.9 16.95 -171.8 14.15 -171.75 25.15 -167.35 26.55 -159.85 28.8 -149.75 7.75 L-147.95 4.15 Q-146.15 0.2 -149.05 -2.8 -150.0 -3.85 -151.55 -4.3 L-153.25 -4.75 -155.25 -8.5 -134.5 -18.0 -106.5 -35.0 -120.4 -12.05 Q-121.05 -11.25 -121.3 -10.35 -123.1 -3.75 -124.5 3.0 -125.6 10.9 -126.35 18.9 -130.4 62.25 -109.05 99.95 -88.45 136.35 -48.9 149.45 -40.15 152.4 -30.9 154.2 28.55 164.6 82.4 137.85 86.25 135.95 89.4 133.15 98.9 124.65 107.75 115.5 L115.5 88.0 Q108.5 69.8 98.0 53.25 L78.0 26.5 112.0 57.75 126.4 67.95 Q122.7 65.2 120.25 61.5 L135.5 72.5 Q129.55 73.6 128.0 79.25 128.25 69.55 118.75 65.75 119.45 77.4 125.0 87.5 123.0 105.5 115.55 122.15 104.25 147.5 79.7 159.7 50.8 174.1 18.35 174.45 -40.2 175.15 -86.55 139.2 -92.2 134.85 -97.15 129.6 -120.05 105.3 -127.25 72.55 -135.05 37.35 -127.3 3.0 L-121.0 -18.25 -129.0 -13.55 -135.5 -9.75 M169.2 129.1 Q142.9 114.2 131.5 86.0 152.45 112.55 183.75 126.5 188.55 139.95 169.2 129.1" fill="#000000" fill-opacity="0.49803922" fill-rule="evenodd" stroke="none"/>
  </g>
</svg>
