<?xml version="1.0" encoding="UTF-8" standalone="no"?>
<svg xmlns:ffdec="https://www.free-decompiler.com/flash" xmlns:xlink="http://www.w3.org/1999/xlink" ffdec:objectType="shape" height="303.9px" width="364.7px" xmlns="http://www.w3.org/2000/svg">
  <g transform="matrix(1.0, 0.0, 0.0, 1.0, 182.85, 128.9)">
    <path d="M3.7 -127.8 Q21.75 -122.0 36.4 -110.0 L41.7 -105.45 Q63.25 -86.15 79.45 -62.3 L84.75 -54.5 Q87.85 -53.15 90.4 -51.0 110.35 -34.25 128.95 -15.95 L151.9 6.6 Q154.85 9.45 157.1 13.2 167.3 29.95 171.65 49.0 175.1 64.05 177.9 79.05 L178.8 84.0 Q179.7 89.15 181.05 94.25 182.8 100.9 180.7 106.95 L180.15 107.8 Q176.1 107.45 173.65 103.75 164.6 89.85 156.0 75.75 L139.75 43.75 124.75 34.0 Q125.75 38.75 125.85 43.5 126.1 59.5 125.5 75.5 109.25 76.25 88.75 90.0 L81.5 94.5 63.0 107.75 57.25 113.25 54.0 117.0 50.25 123.25 Q50.0 163.25 41.5 166.0 13.0 185.0 -43.0 164.0 L-48.5 161.25 Q-50.4 141.75 -55.35 123.05 -57.25 116.0 -63.0 110.55 -68.4 105.35 -74.5 101.0 L-85.25 94.75 -113.5 81.75 -126.5 78.0 Q-127.5 66.85 -127.35 55.75 -127.25 45.1 -126.0 34.5 -128.65 35.85 -131.1 37.45 L-141.25 44.25 -158.0 77.5 -175.4 104.65 Q-176.8 106.85 -179.3 108.05 L-180.75 107.95 Q-183.1 105.55 -182.8 101.9 L-182.6 100.3 Q-178.9 80.1 -173.95 60.25 -169.65 42.85 -163.15 26.2 -160.15 18.5 -155.35 11.7 -153.75 9.35 -151.75 7.25 -131.9 -13.75 -110.8 -33.45 -98.75 -44.65 -85.25 -54.25 -77.8 -64.6 -69.95 -74.75 -57.05 -91.55 -41.85 -106.15 -29.75 -117.9 -14.95 -125.85 -5.8 -130.75 3.7 -127.8" fill="#2e47aa" fill-rule="evenodd" stroke="none"/>
  </g>
</svg>
