<?xml version="1.0" encoding="UTF-8" standalone="no"?>
<svg xmlns:ffdec="https://www.free-decompiler.com/flash" xmlns:xlink="http://www.w3.org/1999/xlink" ffdec:objectType="shape" height="161.55px" width="156.0px" xmlns="http://www.w3.org/2000/svg">
  <g transform="matrix(1.0, 0.0, 0.0, 1.0, 74.5, -13.5)">
    <path d="M33.2 18.7 L35.25 13.5 Q41.6 29.85 48.7 45.95 54.3 58.6 61.0 70.8 65.15 78.3 72.4 83.3 78.55 87.55 81.5 94.5 L63.0 107.75 57.25 113.25 54.0 117.0 50.25 123.25 Q50.0 163.25 41.5 166.0 13.0 185.0 -43.0 164.0 L-48.5 161.25 Q-50.4 141.75 -55.35 123.05 -57.25 116.0 -63.0 110.55 -68.4 105.35 -74.5 101.0 -63.55 85.3 -55.9 67.8 L-49.15 51.85 Q-41.9 34.1 -35.0 16.25 -28.15 36.85 -7.15 41.05 14.1 45.1 27.45 28.6 31.1 24.1 33.2 18.7" fill="#ffffff" fill-rule="evenodd" stroke="none"/>
  </g>
</svg>
