<?xml version="1.0" encoding="UTF-8" standalone="no"?>
<svg xmlns:ffdec="https://www.free-decompiler.com/flash" xmlns:xlink="http://www.w3.org/1999/xlink" ffdec:objectType="shape" height="246.3px" width="363.6px" xmlns="http://www.w3.org/2000/svg">
  <g transform="matrix(1.0, 0.0, 0.0, 1.0, 182.45, 53.55)">
    <path d="M14.0 -40.5 Q21.25 -33.0 11.5 -30.75 -1.25 -38.5 14.0 -40.5 M-15.75 -39.75 Q0.25 -40.0 -11.75 -30.75 -21.75 -33.0 -15.75 -39.75" fill="#000000" fill-rule="evenodd" stroke="none"/>
    <path d="M-25.25 -32.5 L-29.25 -39.25 Q-30.5 -40.25 -30.0 -48.25 -26.0 -53.15 -19.0 -53.25 -10.9 -54.1 -3.25 -52.5 L-3.0 -52.25 18.25 -53.0 Q24.45 -53.05 29.0 -49.0 L29.0 -48.0 Q30.0 -47.25 28.75 -40.5 L25.0 -33.25 Q18.5 -23.5 -0.5 -30.75 -17.75 -23.5 -25.25 -32.5 M14.0 -40.5 Q-1.25 -38.5 11.5 -30.75 21.25 -33.0 14.0 -40.5 M-15.75 -39.75 Q-21.75 -33.0 -11.75 -30.75 0.25 -40.0 -15.75 -39.75" fill="#ffffff" fill-rule="evenodd" stroke="none"/>
    <path d="M25.0 -33.25 Q46.25 -22.75 36.25 9.5 L35.25 13.5 33.2 18.7 Q31.1 24.1 27.45 28.6 14.1 45.1 -7.15 41.05 -28.15 36.85 -35.0 16.25 -48.0 -23.5 -25.25 -32.5 -17.75 -23.5 -0.5 -30.75 18.5 -23.5 25.0 -33.25 M81.5 94.5 L88.75 90.0 Q109.25 76.25 125.5 75.5 127.65 74.65 129.35 75.8 141.35 83.55 147.25 97.0 L145.75 100.5 145.65 100.95 Q144.0 104.5 141.75 107.65 134.75 117.75 127.1 127.35 106.65 152.95 83.0 175.75 72.0 186.4 58.25 192.75 L57.75 192.5 Q43.1 183.35 41.5 166.0 50.0 163.25 50.25 123.25 L54.0 117.0 57.25 113.25 63.0 107.75 81.5 94.5 M-138.6 79.2 Q-135.05 76.95 -130.85 77.3 L-126.5 78.0 -113.5 81.75 -85.25 94.75 -74.5 101.0 Q-68.4 105.35 -63.0 110.55 -57.25 116.0 -55.35 123.05 -50.4 141.75 -48.5 161.25 L-43.0 164.0 Q-44.6 174.35 -52.6 181.95 L-56.25 185.15 Q-56.75 185.6 -57.35 185.35 -75.0 178.85 -89.5 166.7 L-110.85 148.05 -132.75 128.0 Q-144.5 117.0 -153.5 104.0 L-154.25 100.5 Q-150.5 86.55 -138.6 79.2" fill="#e58508" fill-rule="evenodd" stroke="none"/>
    <path d="M2.25 97.5 Q-39.0 101.75 -39.5 -6.5 -36.0 40.0 1.5 41.25 36.0 37.75 39.25 -7.0 38.75 95.75 2.25 97.5 M-103.0 17.5 Q-114.2 32.0 -120.75 49.25 L-109.5 83.5 Q-119.7 78.5 -131.1 77.85 L-126.25 78.0 Q-131.2 56.7 -126.0 36.0 L-126.5 34.5 -141.0 43.75 Q-155.1 79.0 -178.75 108.25 -179.5 107.6 -179.9 106.5 -184.2 94.65 -181.2 81.95 -177.3 65.5 -172.25 49.5 -174.25 69.25 -174.5 79.15 L-174.0 83.25 Q-169.75 82.05 -166.7 78.8 -155.3 66.75 -146.25 49.0 L-148.6 48.35 Q-150.8 47.45 -152.25 45.6 -154.4 43.0 -156.0 40.25 L-153.65 41.15 Q-139.95 40.05 -128.15 32.3 -112.9 22.1 -98.5 10.75 L-99.5 13.5 -100.5 14.0 -101.25 16.0 -102.25 16.25 -102.0 17.0 -103.0 17.5 M137.5 95.75 Q142.75 93.75 145.75 94.75 136.75 130.75 58.5 192.75 44.25 185.75 41.75 166.5 14.25 184.5 -42.25 164.25 -51.25 185.75 -59.5 185.25 -110.75 158.5 -154.25 100.25 -81.0 116.25 -61.75 155.75 -60.25 156.75 -58.0 154.75 L-50.0 147.5 -49.0 147.5 -35.25 156.75 Q2.7 175.05 37.5 155.5 L47.25 149.75 57.25 158.0 Q59.75 160.25 60.75 159.5 61.0 134.5 131.0 98.25 L137.5 95.75 M173.25 83.0 Q174.45 66.3 170.5 49.75 L171.0 49.5 Q175.7 65.5 179.2 81.85 181.45 92.35 181.1 102.9 181.0 106.15 178.85 108.2 L177.8 107.85 Q170.4 102.85 166.2 94.55 161.35 85.0 155.35 76.2 140.85 55.0 125.75 34.25 L124.75 34.25 Q130.25 54.55 125.75 75.5 L108.25 80.0 120.75 48.25 98.75 11.5 Q112.05 21.75 126.1 30.75 136.15 37.1 147.7 40.5 151.5 41.7 155.0 40.0 153.9 43.9 150.4 46.1 L148.9 47.0 147.15 47.7 145.25 48.5 145.75 49.75 145.25 51.75 Q153.25 64.35 162.75 75.75 167.05 80.85 173.25 83.0" fill="#000000" fill-opacity="0.49803922" fill-rule="evenodd" stroke="none"/>
  </g>
</svg>
