<?xml version="1.0" encoding="UTF-8" standalone="no"?>
<svg xmlns:ffdec="https://www.free-decompiler.com/flash" xmlns:xlink="http://www.w3.org/1999/xlink" ffdec:objectType="shape" height="301.2px" width="285.3px" xmlns="http://www.w3.org/2000/svg">
  <g transform="matrix(1.0, 0.0, 0.0, 1.0, 142.5, 75.95)">
    <path d="M-125.0 -10.0 L-118.8 -9.65 Q-114.1 -8.8 -112.25 -4.5 L-109.0 2.25 -109.25 2.75 -108.5 3.75 -107.25 6.75 -107.25 7.75 -105.5 11.5 -105.0 13.0 -105.0 14.0 -104.5 14.75 -104.5 15.5 -103.25 17.75 -102.0 21.25 -102.25 23.0 -102.15 23.5 Q-102.5 34.6 -98.75 45.0 -98.75 55.75 -95.9 66.0 -95.15 68.75 -95.25 71.6 -95.8 84.4 -94.65 96.65 -93.15 112.25 -88.25 127.5 L-98.25 128.5 Q-105.9 115.55 -112.0 101.85 L-127.9 66.65 Q-130.65 60.55 -132.4 54.05 -138.15 32.7 -141.2 11.2 -142.15 4.5 -142.5 -2.25 -134.35 -7.75 -125.0 -10.0 M-56.25 -55.5 L-56.0 -54.0 -52.75 -48.5 Q-48.5 -46.0 -43.5 -45.0 -30.75 -26.25 -17.5 -31.0 -5.75 -9.75 -10.25 -0.75 L-12.25 3.0 -20.25 8.0 Q-36.7 19.35 -56.35 21.85 -63.65 22.85 -70.55 19.8 -77.45 16.75 -82.75 11.25 -84.15 9.35 -85.15 7.35 -94.15 -11.25 -83.2 -28.8 -72.95 -45.25 -56.5 -56.0 L-56.25 -55.5 M-30.15 197.55 Q-37.5 183.45 -38.0 167.5 L-38.0 161.75 Q-38.75 135.0 -24.5 127.0 -20.75 123.0 12.75 128.0 L16.25 128.75 Q90.0 140.25 74.5 173.0 72.75 178.0 71.25 183.05 71.0 183.85 71.0 184.75 63.75 193.4 53.45 197.1 38.6 202.6 23.55 207.35 15.6 209.75 7.4 210.1 0.0 210.85 -7.5 210.25 -17.35 209.55 -24.85 203.85 -28.15 201.35 -30.15 197.55" fill="#e58508" fill-rule="evenodd" stroke="none"/>
    <path d="M-56.5 -56.0 L-57.0 -64.0 Q-57.0 -67.75 -52.25 -75.5 -49.55 -76.75 -47.1 -74.4 L-38.5 -66.5 -38.25 -65.5 -36.0 -63.5 -35.5 -63.5 -34.25 -62.75 Q-19.85 -54.8 -9.75 -41.75 L-9.5 -41.25 -12.0 -35.25 Q-15.25 -31.5 -17.5 -31.0 -30.75 -26.25 -43.5 -45.0 -48.5 -46.0 -52.75 -48.5 L-56.0 -54.0 -56.25 -55.5 Q-49.0 -46.5 -48.0 -55.75 -51.5 -65.75 -55.5 -60.25 L-55.75 -59.5 -56.5 -56.0 M-34.0 -47.75 Q-42.5 -51.25 -40.0 -42.0 L-39.5 -41.5 Q-25.75 -34.5 -34.0 -47.75" fill="#ffffff" fill-rule="evenodd" stroke="none"/>
    <path d="M-56.5 -56.0 L-55.75 -59.5 -55.5 -60.25 Q-51.5 -65.75 -48.0 -55.75 -49.0 -46.5 -56.25 -55.5 L-56.5 -56.0 M-34.0 -47.75 Q-25.75 -34.5 -39.5 -41.5 L-40.0 -42.0 Q-42.5 -51.25 -34.0 -47.75" fill="#000000" fill-rule="evenodd" stroke="none"/>
    <path d="M-122.75 -34.0 Q-118.25 -24.5 -112.0 -30.5 -116.75 -46.5 -113.75 -52.0 -108.75 -53.5 -111.75 -49.5 -95.75 -50.0 -86.5 -51.75 -103.25 -13.75 -91.0 29.25 -100.0 38.75 -97.25 59.0 -109.9 13.7 -114.75 -7.75 -116.75 -11.0 -124.75 -9.75 L-124.75 -16.0 -122.75 -34.0 M-112.0 -4.0 L-109.0 1.5 -101.75 21.25 -100.5 -2.5 -96.5 -24.75 -112.0 -4.0 M75.0 172.85 Q79.25 155.5 70.25 148.5 L80.0 145.5 Q73.1 121.25 49.75 61.5 89.5 131.75 103.25 133.5 94.5 134.75 94.0 136.0 102.9 168.65 130.75 221.25 143.0 213.25 141.75 130.0 145.1 165.3 138.0 216.0 136.0 224.75 134.25 225.25 123.0 222.5 99.5 159.0 L85.25 169.0 75.0 172.85 M-112.25 102.25 Q-111.25 101.5 -106.0 105.75 L-98.0 108.25 Q-98.4 102.35 -96.5 85.0 -82.5 143.0 -39.5 153.5 L-38.25 154.0 -37.0 153.5 -36.75 158.5 Q-33.25 147.25 7.75 154.75 61.75 164.25 72.0 182.25 L68.75 187.5 64.0 191.5 57.75 195.25 Q21.75 213.0 -4.5 210.75 L-13.5 209.25 -23.5 206.5 Q-37.0 193.25 -37.75 167.5 -82.25 147.25 -86.75 128.5 L-87.75 127.5 Q-95.5 129.0 -98.25 128.25 L-101.25 123.75 -112.25 102.25 M-85.0 88.75 Q-95.0 84.75 -96.25 81.25 -94.15 36.3 -84.5 10.0 -86.1 8.4 -89.5 -8.5 -81.5 16.5 -66.5 20.25 -40.75 22.5 -10.25 -0.5 -60.25 88.25 -78.0 88.75 L-85.0 88.75" fill="#000000" fill-opacity="0.49803922" fill-rule="evenodd" stroke="none"/>
  </g>
</svg>
