<?xml version="1.0" encoding="UTF-8" standalone="no"?>
<svg xmlns:ffdec="https://www.free-decompiler.com/flash" xmlns:xlink="http://www.w3.org/1999/xlink" ffdec:objectType="shape" height="346.5px" width="272.6px" xmlns="http://www.w3.org/2000/svg">
  <g transform="matrix(1.0, 0.0, 0.0, 1.0, 143.15, 125.25)">
    <path d="M-38.25 -120.0 L-42.75 -118.5 -48.25 -113.75 Q-56.0 -112.0 -54.0 -105.5 L-55.2 -97.95 Q-56.0 -91.0 -52.0 -85.25 L-65.0 -59.25 -65.5 -59.5 Q-77.8 -69.7 -83.75 -84.0 -85.45 -88.1 -84.95 -92.55 -83.2 -108.05 -71.1 -118.9 -69.2 -120.6 -67.0 -121.55 -52.75 -127.65 -37.5 -122.5 L-38.25 -120.0 M-103.2 42.55 Q-110.5 60.15 -116.9 77.85 -118.9 83.35 -120.4 89.0 -124.1 102.95 -129.7 115.5 L-134.25 125.75 Q-137.5 121.5 -139.35 116.7 -142.8 107.75 -143.05 98.0 -143.6 78.95 -140.15 60.15 -136.8 42.0 -131.65 24.35 -130.2 19.45 -126.0 16.6 -123.55 15.05 -120.6 14.65 -106.6 12.3 -97.0 21.75 -99.0 32.5 -103.2 42.55" fill="#e58508" fill-rule="evenodd" stroke="none"/>
    <path d="M-48.25 -113.75 L-50.5 -110.25 -51.75 -109.5 -54.0 -105.5 Q-56.0 -112.0 -48.25 -113.75 M-37.5 -122.5 L-36.25 -124.0 -32.25 -125.25 -33.75 -123.5 -38.25 -120.0 -37.5 -122.5" fill="#000000" fill-rule="evenodd" stroke="none"/>
    <path d="M-50.5 -110.25 Q-56.75 -98.45 -51.25 -86.25 L-51.0 -85.75 -52.0 -85.25 Q-56.0 -91.0 -55.2 -97.95 L-54.0 -105.5 -51.75 -109.5 -50.5 -110.25 M-33.75 -123.5 L-35.5 -120.0 -38.25 -120.0 -33.75 -123.5" fill="#ffffff" fill-rule="evenodd" stroke="none"/>
    <path d="M116.9 -26.3 L120.75 -25.5 122.75 -23.5 Q125.1 -24.0 126.85 -25.75 128.1 -27.05 128.5 -29.0 129.3 -26.35 129.4 -23.55 130.05 -8.15 117.2 0.7 115.5 0.8 114.5 -0.5 109.45 -7.05 105.0 -11.75 L87.5 -49.5 109.75 -44.75 108.75 -46.0 117.25 -46.5 Q118.75 -38.05 113.25 -31.5 L116.9 -26.3 M111.75 13.0 Q132.5 84.75 75.0 153.25 41.25 185.0 -8.5 194.75 -78.0 197.75 -92.5 162.25 -94.85 174.05 -101.85 183.85 -116.9 205.1 -137.25 221.25 -146.1 200.85 -140.5 178.1 -143.65 198.25 -137.0 216.5 -123.5 202.5 -110.85 187.75 -100.1 175.25 -92.5 160.6 -83.75 139.8 -93.0 135.75 -61.5 90.75 -46.25 63.5 -69.5 117.8 -81.0 155.5 L-75.5 162.25 Q-7.5 201.75 59.5 156.0 125.25 106.5 111.75 13.0 M-94.75 136.25 L-95.75 136.25 -94.75 135.5 -94.75 136.25 M-93.5 134.75 L-84.5 122.5 -93.5 136.25 -93.5 134.75 M-140.75 117.5 L-131.25 119.0 -133.75 125.75 Q-134.75 126.0 -137.75 122.75 L-140.75 117.5" fill="#000000" fill-opacity="0.49803922" fill-rule="evenodd" stroke="none"/>
  </g>
</svg>
