<?xml version="1.0" encoding="UTF-8" standalone="no"?>
<svg xmlns:ffdec="https://www.free-decompiler.com/flash" xmlns:xlink="http://www.w3.org/1999/xlink" ffdec:objectType="shape" height="309.8px" width="368.55px" xmlns="http://www.w3.org/2000/svg">
  <g transform="matrix(1.0, 0.0, 0.0, 1.0, 186.25, 145.65)">
    <path d="M59.15 -89.25 Q64.05 -82.6 70.65 -77.95 111.75 -48.75 145.25 -9.5 156.05 -3.9 161.15 7.7 L166.0 19.55 Q180.0 56.15 182.3 93.8 179.7 94.05 178.25 91.85 172.25 82.65 166.0 73.85 145.25 44.7 121.5 20.0 124.4 26.45 125.05 33.6 129.4 81.95 93.85 112.45 87.05 118.3 78.75 123.5 55.25 155.9 15.65 162.4 L10.1 163.25 -6.65 164.15 Q-49.95 163.25 -82.25 127.75 -88.65 126.0 -93.9 122.0 L-96.9 119.6 Q-140.95 83.65 -133.75 22.75 L-149.75 34.25 Q-152.7 54.0 -164.25 69.75 L-164.0 70.5 Q-170.75 85.7 -179.8 99.75 -181.1 101.75 -181.6 100.75 -188.55 87.35 -185.1 69.85 -180.95 48.7 -174.25 28.2 -156.55 -25.7 -108.25 -61.15 -104.5 -63.9 -102.6 -67.4 -75.95 -115.85 -30.1 -143.95 -26.2 -146.3 -22.35 -145.4 27.45 -132.55 59.15 -89.25 M21.75 -4.0 L21.25 -3.25 21.95 -3.55 21.75 -4.0" fill="#2e47aa" fill-rule="evenodd" stroke="none"/>
    <path d="M21.75 -4.0 L21.95 -3.55 21.25 -3.25 21.75 -4.0" fill="#ffffff" fill-rule="evenodd" stroke="none"/>
  </g>
</svg>
