<?xml version="1.0" encoding="UTF-8" standalone="no"?>
<svg xmlns:ffdec="https://www.free-decompiler.com/flash" xmlns:xlink="http://www.w3.org/1999/xlink" ffdec:objectType="shape" height="168.15px" width="176.75px" xmlns="http://www.w3.org/2000/svg">
  <g transform="matrix(1.0, 0.0, 0.0, 1.0, 91.7, 4.0)">
    <path d="M21.75 -4.0 Q30.0 15.35 38.7 34.45 47.4 53.55 63.65 65.65 L63.85 65.8 64.05 65.95 64.25 66.1 64.85 66.55 65.05 66.7 65.2 66.8 65.75 67.25 84.95 98.95 85.0 99.5 Q85.4 108.35 81.4 118.05 L78.75 123.5 Q55.25 155.9 15.65 162.4 L10.1 163.25 -6.65 164.15 Q-49.95 163.25 -82.25 127.75 -90.25 117.45 -91.45 110.1 -92.35 104.8 -89.75 101.0 -64.5 67.5 -49.5 5.0 -26.45 42.3 8.4 16.2 18.3 8.75 21.25 -3.25 L21.75 -4.0" fill="#ffffff" fill-rule="evenodd" stroke="none"/>
  </g>
</svg>
