<?xml version="1.0" encoding="UTF-8" standalone="no"?>
<svg xmlns:ffdec="https://www.free-decompiler.com/flash" xmlns:xlink="http://www.w3.org/1999/xlink" ffdec:objectType="shape" height="170.95px" width="175.05px" xmlns="http://www.w3.org/2000/svg">
  <g transform="matrix(1.0, 0.0, 0.0, 1.0, 97.25, 6.5)">
    <path d="M73.25 122.55 L71.75 123.5 Q57.1 143.25 36.4 153.5 24.25 159.5 10.0 162.25 L8.4 162.55 Q0.65 163.9 -6.7 164.3 -34.5 165.75 -57.3 153.5 -73.4 144.8 -87.0 129.25 L-97.0 114.5 -96.7 112.3 Q-95.8 107.8 -97.25 104.0 -75.7 60.8 -70.5 11.0 -46.35 41.95 -16.7 17.0 -5.6 7.6 -1.0 -6.5 22.0 43.3 63.3 78.45 85.3 97.2 73.95 122.15 L73.25 122.6 73.25 122.55" fill="#ffffff" fill-rule="evenodd" stroke="none"/>
  </g>
</svg>
