<?xml version="1.0" encoding="UTF-8" standalone="no"?>
<svg xmlns:ffdec="https://www.free-decompiler.com/flash" xmlns:xlink="http://www.w3.org/1999/xlink" ffdec:objectType="shape" height="273.15px" width="368.6px" xmlns="http://www.w3.org/2000/svg">
  <g transform="matrix(1.0, 0.0, 0.0, 1.0, 185.9, 70.45)">
    <path d="M-42.0 -47.5 Q-43.75 -47.75 -47.0 -55.5 L-47.75 -63.5 Q-37.9 -73.25 -22.25 -69.25 L-21.25 -69.0 -21.0 -68.5 Q-3.5 -73.5 12.1 -65.7 L12.75 -65.0 12.25 -56.5 8.75 -49.75 Q-1.25 -39.25 -17.5 -46.5 -37.5 -39.0 -42.0 -47.5 M-5.75 -47.0 Q5.0 -52.5 -3.25 -57.0 -19.0 -56.0 -5.75 -47.0 M-33.25 -56.25 Q-40.5 -49.25 -28.75 -46.5 -18.5 -56.25 -33.25 -56.25" fill="#ffffff" fill-rule="evenodd" stroke="none"/>
    <path d="M8.75 -49.75 L11.3 -47.95 Q32.7 -30.75 21.75 -4.0 L21.25 -3.25 Q18.3 8.75 8.4 16.2 -26.45 42.3 -49.5 5.0 -64.25 -34.25 -42.0 -47.5 -37.5 -39.0 -17.5 -46.5 -1.25 -39.25 8.75 -49.75 M-82.25 127.75 Q-49.95 163.25 -6.65 164.15 -8.95 197.05 -39.35 200.95 -70.85 204.6 -96.05 185.65 -117.0 170.0 -108.15 145.15 -103.35 131.7 -96.9 119.6 L-93.9 122.0 Q-88.65 126.0 -82.25 127.75 M10.1 163.25 L15.65 162.4 Q55.25 155.9 78.75 123.5 87.05 118.3 93.85 112.45 102.2 126.05 108.0 141.8 112.35 153.6 107.1 164.4 85.0 210.0 30.95 200.1 16.85 197.4 14.0 184.35 11.7 173.8 10.1 163.25" fill="#e58508" fill-rule="evenodd" stroke="none"/>
    <path d="M-33.25 -56.25 Q-18.5 -56.25 -28.75 -46.5 -40.5 -49.25 -33.25 -56.25 M-5.75 -47.0 Q-19.0 -56.0 -3.25 -57.0 5.0 -52.5 -5.75 -47.0" fill="#000000" fill-rule="evenodd" stroke="none"/>
    <path d="M24.8 -20.0 Q25.8 79.05 -22.5 86.5 -58.1 76.55 -55.0 -20.0 L-54.9 -20.0 Q-49.95 24.75 -13.75 27.0 22.25 20.4 24.65 -20.0 L24.8 -20.0 M92.9 -2.05 L95.9 0.0 98.9 2.0 109.8 9.05 112.3 10.6 114.85 12.15 Q124.6 18.2 135.2 22.95 141.75 25.9 148.75 24.8 L150.25 24.5 149.0 25.45 147.85 26.35 145.8 28.0 142.9 31.0 142.4 31.65 141.95 32.25 141.65 32.85 Q141.1 33.75 141.35 34.85 L142.5 35.75 142.45 36.25 142.6 36.85 142.9 37.65 Q144.1 40.35 146.0 42.65 L147.3 44.2 149.9 47.25 Q162.15 61.0 173.05 75.7 178.95 83.65 182.7 92.65 L181.95 92.5 181.1 92.25 180.3 91.8 176.55 89.3 175.45 88.4 174.4 87.45 Q167.0 79.95 161.25 71.15 147.55 50.3 136.0 28.25 L121.5 20.0 122.4 23.7 123.25 27.3 124.0 30.85 Q125.25 37.45 125.6 44.5 L125.75 47.75 125.75 51.05 Q125.55 66.65 119.25 80.9 110.75 100.05 94.0 112.75 L95.15 114.45 96.15 116.0 97.15 117.55 99.45 121.5 100.05 122.65 100.45 123.7 100.95 124.75 Q101.8 126.45 101.6 128.4 L101.5 128.9 101.2 129.2 99.0 131.15 97.95 132.05 95.0 134.25 93.2 135.45 91.65 136.45 90.9 136.9 Q89.55 137.65 88.0 138.0 L87.3 139.7 86.55 141.45 85.75 143.15 Q83.95 146.55 81.8 149.65 L80.6 151.2 78.1 154.15 Q67.95 165.6 54.5 172.55 45.4 177.2 35.6 180.0 L20.75 184.0 21.25 184.65 22.1 185.3 23.4 186.1 Q26.55 187.3 29.9 188.0 L31.45 188.35 33.0 188.65 36.5 189.25 36.75 196.25 55.75 196.5 56.15 196.0 56.85 195.55 57.9 195.15 Q61.55 194.25 65.35 194.2 L68.0 194.0 71.95 193.2 Q89.05 189.6 101.15 176.8 106.6 171.05 109.5 163.5 L109.8 164.15 109.85 164.55 109.8 164.95 Q109.5 167.3 108.6 169.35 L107.7 171.35 106.55 173.65 Q100.25 185.15 89.05 191.4 80.45 196.15 70.85 197.95 51.45 201.65 31.8 200.65 26.2 200.05 21.55 197.0 13.65 191.8 10.95 182.7 8.25 173.65 8.25 164.25 L5.25 165.0 -8.25 163.75 -8.4 166.35 -8.55 168.8 -8.85 171.2 Q-9.3 175.5 -10.5 179.85 L-11.05 181.75 -11.65 183.65 Q-14.45 192.0 -21.4 197.35 -26.7 201.45 -33.4 202.4 -38.2 202.95 -43.0 202.5 L-51.85 202.7 Q-80.9 201.45 -102.35 181.5 -108.8 175.5 -111.15 166.7 -111.5 165.5 -111.0 164.3 L-110.9 164.1 -110.4 165.5 -110.05 166.95 Q-108.75 171.35 -105.8 174.9 L-103.65 177.35 -101.15 179.65 Q-91.2 187.85 -79.0 191.85 -69.75 194.9 -59.95 195.9 L-37.5 197.25 -37.25 189.75 -35.7 189.6 -34.3 189.4 -31.65 188.9 Q-28.45 188.3 -25.5 187.15 L-24.7 186.8 -24.05 186.4 -22.9 185.6 -22.0 184.75 -21.9 184.5 Q-23.75 183.5 -25.8 182.95 -30.65 181.85 -35.15 180.1 -53.9 172.6 -71.4 162.75 -75.3 160.55 -78.35 156.9 L-81.2 153.65 -83.9 150.55 Q-91.15 141.95 -100.9 136.25 -103.4 134.9 -106.0 135.5 -104.4 131.1 -102.4 126.95 L-97.75 118.25 -100.7 116.15 -103.55 113.9 -106.25 111.65 Q-111.5 107.05 -115.9 101.8 L-118.0 99.1 -119.95 96.5 Q-130.35 81.65 -132.35 63.65 L-133.85 48.95 Q-135.05 35.7 -133.5 22.5 L-149.5 34.25 Q-155.65 49.85 -162.4 65.2 -169.15 80.6 -177.05 95.45 -178.75 98.6 -181.0 101.5 L-184.75 101.25 -185.4 99.7 Q-186.0 97.0 -185.85 94.3 -185.25 84.1 -183.8 74.1 -181.0 54.75 -177.75 35.5 L-178.1 39.25 -178.4 42.75 -178.6 46.05 Q-178.95 51.45 -178.35 56.95 L-178.05 59.1 -177.75 61.05 Q-176.95 66.4 -172.25 68.25 L-170.75 66.5 -169.25 66.5 -166.25 59.75 -165.3 59.55 -164.8 59.2 -164.25 58.8 Q-161.95 56.7 -160.15 53.85 L-159.35 52.55 -158.45 51.2 Q-155.8 47.5 -154.5 43.0 L-155.25 41.75 -154.75 40.25 -156.7 39.5 -158.6 38.85 -160.25 37.9 Q-162.55 36.3 -164.05 33.9 L-164.95 32.3 -165.75 30.5 -165.0 30.9 -164.25 31.15 Q-163.85 31.25 -163.4 31.5 L-159.4 31.25 -158.25 31.0 -157.05 30.6 Q-148.75 27.8 -141.25 22.85 -125.45 12.5 -111.25 0.0 L-115.55 7.3 -119.5 14.7 -123.05 22.1 -126.25 29.5 -124.55 35.2 -122.75 40.7 -120.85 46.0 Q-117.25 55.95 -112.15 65.1 L-109.65 69.3 -107.1 73.4 Q-98.4 86.8 -85.75 96.5 L-86.6 97.1 -87.3 97.65 -87.65 98.35 Q-88.35 100.85 -87.05 102.85 L-86.15 104.2 Q-79.65 113.5 -70.9 119.85 -48.5 136.1 -22.8 146.55 -11.25 151.2 1.55 152.15 L11.05 151.4 Q41.55 146.65 63.15 124.65 73.85 113.7 83.05 101.3 84.7 99.05 84.0 95.9 L83.5 93.25 87.0 90.5 90.35 87.75 93.55 84.9 Q99.5 79.25 104.5 72.7 L106.8 69.5 109.05 66.25 Q117.3 54.05 118.45 39.9 118.6 38.3 117.85 36.8 112.45 25.6 104.95 15.45 97.55 5.45 89.75 -4.25 L92.9 -2.05" fill="#000000" fill-opacity="0.49803922" fill-rule="evenodd" stroke="none"/>
  </g>
</svg>
