<?xml version="1.0" encoding="UTF-8" standalone="no"?>
<svg xmlns:ffdec="https://www.free-decompiler.com/flash" xmlns:xlink="http://www.w3.org/1999/xlink" ffdec:objectType="shape" height="273.3px" width="306.9px" xmlns="http://www.w3.org/2000/svg">
  <g transform="matrix(1.0, 0.0, 0.0, 1.0, 185.7, 69.9)">
    <path d="M-7.75 -50.0 Q17.35 -36.0 7.6 -7.45 L7.25 -6.0 Q-4.7 35.1 -44.85 23.45 -53.3 21.1 -59.0 13.9 L-63.0 8.75 Q-79.7 -20.85 -60.85 -43.85 L-58.5 -46.25 Q-56.25 -38.0 -34.5 -46.0 -11.0 -40.0 -7.75 -50.0 M-85.25 128.75 Q-51.8 162.5 -6.55 162.4 -8.15 196.95 -39.35 200.95 -70.85 204.6 -96.05 185.65 -117.0 170.0 -108.15 145.15 -103.7 132.7 -97.8 121.35 L-91.55 125.6 Q-88.6 127.5 -85.25 128.75 M9.85 161.3 L12.6 160.9 Q51.6 154.9 74.9 123.25 85.45 118.25 93.6 112.05 102.1 125.8 108.0 141.8 112.35 153.6 107.1 164.4 85.0 210.0 30.95 200.1 16.85 197.4 14.0 184.35 11.45 172.85 9.85 161.3" fill="#e58508" fill-rule="evenodd" stroke="none"/>
    <path d="M-58.5 -46.25 Q-60.25 -46.5 -63.75 -54.5 L-64.75 -62.0 -64.75 -62.75 Q-54.3 -71.9 -39.5 -68.25 L-39.5 -68.0 Q-21.65 -72.75 -5.15 -65.65 -4.75 -65.5 -4.5 -65.0 L-4.75 -56.25 -7.75 -50.0 Q-11.0 -40.0 -34.5 -46.0 -56.25 -38.0 -58.5 -46.25 M-24.5 -56.5 Q-35.5 -53.75 -22.75 -46.75 -11.5 -54.0 -24.5 -56.5 M-46.5 -45.5 Q-36.25 -55.75 -51.0 -55.25 -57.25 -47.75 -46.5 -45.5" fill="#ffffff" fill-rule="evenodd" stroke="none"/>
    <path d="M-24.5 -56.5 Q-11.5 -54.0 -22.75 -46.75 -35.5 -53.75 -24.5 -56.5 M-46.5 -45.5 Q-57.25 -47.75 -51.0 -55.25 -36.25 -55.75 -46.5 -45.5" fill="#000000" fill-rule="evenodd" stroke="none"/>
    <path d="M82.25 -20.45 Q77.3 -24.15 72.0 -27.5 L95.75 -28.05 98.4 -23.65 Q104.85 -12.7 109.65 -1.2 L113.6 9.15 Q109.65 3.1 103.4 -2.65 92.2 -12.9 82.25 -20.45 M120.2 35.75 Q120.95 41.2 121.15 46.75 121.35 52.4 120.6 58.05 119.15 69.3 115.35 80.05 110.7 93.15 101.5 103.2 97.6 107.5 92.75 110.5 L101.75 127.0 Q100.1 127.35 98.75 128.15 L84.0 137.75 83.75 142.0 Q73.5 153.35 61.1 161.45 41.6 174.0 20.0 183.25 L20.35 183.75 21.75 185.05 24.15 186.2 27.35 187.4 31.55 188.4 36.5 189.25 36.75 196.25 56.0 196.5 56.35 196.1 Q58.75 194.4 62.0 194.4 70.1 194.45 77.75 191.8 86.1 188.8 93.2 183.75 101.3 177.95 106.25 169.4 L109.5 163.5 109.3 165.2 Q108.85 169.4 106.95 173.25 104.0 179.15 99.2 183.5 93.9 188.4 87.55 191.7 76.95 197.1 65.5 199.45 46.0 203.65 26.3 199.25 24.35 198.95 22.5 197.9 15.15 193.5 12.0 185.55 11.15 183.4 10.45 181.05 9.7 178.4 9.35 175.9 L8.85 172.1 8.5 168.1 8.25 163.75 2.75 164.4 -8.75 164.0 -8.95 166.75 Q-9.3 172.8 -10.6 178.65 -11.75 183.65 -13.95 188.15 -15.8 192.05 -18.55 195.3 -21.6 198.9 -26.0 200.7 -33.25 203.85 -41.05 203.3 L-47.45 202.8 Q-71.75 203.25 -85.15 193.2 -92.0 188.0 -96.9 183.1 -92.55 186.05 -87.85 188.25 -79.85 191.85 -71.35 194.3 -65.85 195.75 -60.0 196.2 L-37.5 197.25 -37.25 189.75 -33.95 189.25 -29.7 188.45 -26.5 187.7 Q-24.55 187.05 -22.9 185.45 L-22.6 185.15 -22.55 184.9 Q-48.75 174.85 -74.2 163.25 -77.9 161.5 -80.8 158.05 -86.55 151.25 -93.15 145.05 -97.4 141.1 -102.35 138.55 -104.7 137.35 -107.25 137.75 L-99.15 120.5 -99.25 120.25 Q-101.8 119.85 -103.9 118.15 L-111.35 111.25 Q-116.7 105.65 -121.5 99.65 -126.8 93.1 -129.65 85.3 -133.5 74.8 -135.7 63.85 -139.65 44.4 -139.25 24.5 L-141.3 25.05 Q-146.85 26.85 -150.6 31.55 -155.4 37.7 -158.0 45.15 -161.5 55.2 -164.0 65.4 -165.0 69.6 -166.45 73.7 -170.7 85.65 -175.95 97.3 -177.9 101.65 -181.0 105.25 L-185.25 104.25 -185.45 100.7 Q-185.9 90.85 -185.55 81.15 -185.2 70.1 -184.05 58.95 -182.75 46.4 -181.1 34.0 L-181.05 34.0 Q-181.65 42.3 -181.35 50.45 -181.1 56.5 -179.25 62.1 -177.9 66.1 -174.6 68.95 L-173.5 69.75 -173.45 69.35 Q-173.0 67.5 -172.0 65.85 L-168.15 60.6 Q-165.1 56.95 -162.65 53.1 -161.0 50.5 -160.0 47.5 L-161.0 44.0 -161.55 44.1 -162.25 43.95 -162.95 43.6 -163.95 43.2 -164.9 42.65 -166.0 41.85 -167.15 40.9 -168.5 39.75 -168.35 38.95 -171.25 36.75 -172.25 34.0 -171.45 34.35 -166.95 34.5 Q-163.85 33.75 -161.15 32.55 -157.35 30.95 -153.9 28.8 -148.5 25.45 -143.45 21.6 -132.1 12.9 -121.75 3.0 L-131.0 22.0 -122.95 46.15 Q-121.0 51.8 -118.3 57.15 -114.05 65.65 -108.5 73.35 -103.1 80.85 -96.6 87.45 -92.65 91.4 -88.5 94.75 L-89.0 95.55 Q-90.3 98.15 -89.45 100.95 -88.1 105.6 -85.75 109.8 -82.2 116.0 -77.35 121.15 -74.5 124.2 -70.95 126.7 -60.4 134.2 -49.5 141.25 -35.75 150.0 -19.35 151.2 -1.9 152.85 14.85 148.35 24.85 145.7 34.25 141.3 L37.55 139.7 40.85 138.05 47.6 134.65 Q62.8 126.85 71.35 112.0 73.4 108.35 75.9 105.05 L83.8 94.5 Q85.1 92.7 86.9 91.25 102.55 79.05 111.35 61.35 116.85 50.2 119.4 40.1 L120.2 35.75 M-28.75 27.25 Q5.5 23.25 9.75 -22.0 6.5 88.0 -40.75 89.75 -75.0 85.5 -69.75 -28.25 -65.25 27.75 -28.75 27.25" fill="#000000" fill-opacity="0.49803922" fill-rule="evenodd" stroke="none"/>
  </g>
</svg>
