<?xml version="1.0" encoding="UTF-8" standalone="no"?>
<svg xmlns:ffdec="https://www.free-decompiler.com/flash" xmlns:xlink="http://www.w3.org/1999/xlink" ffdec:objectType="shape" height="418.45px" width="487.7px" xmlns="http://www.w3.org/2000/svg">
  <g transform="matrix(1.0, 0.0, 0.0, 1.0, 188.2, 213.0)">
    <path d="M-74.5 -44.25 Q-76.5 -45.5 -79.5 -51.25 L-81.75 -60.25 Q-81.4 -61.25 -80.65 -61.85 -70.9 -70.1 -57.25 -67.0 L-57.0 -66.5 Q-55.65 -66.5 -54.45 -67.0 -37.35 -73.35 -21.75 -64.75 L-21.25 -57.0 Q-22.75 -51.25 -24.5 -49.5 -33.25 -38.75 -51.5 -45.0 -65.75 -36.5 -74.5 -44.25 M-69.75 -47.0 Q-56.0 -40.5 -60.25 -52.0 -71.75 -57.75 -70.25 -47.5 L-69.75 -47.0 M-41.75 -56.0 Q-51.75 -46.75 -39.75 -46.0 -29.25 -53.75 -41.75 -56.0" fill="#ffffff" fill-rule="evenodd" stroke="none"/>
    <path d="M-24.5 -49.5 Q-0.3 -39.3 -6.0 -13.95 L-7.25 -7.25 Q-17.15 32.05 -54.2 26.85 -68.1 24.85 -76.0 13.0 -94.85 -18.45 -74.9 -44.1 L-74.5 -44.25 Q-65.75 -36.5 -51.5 -45.0 -33.25 -38.75 -24.5 -49.5 M-98.9 123.45 Q-93.85 126.75 -88.25 129.75 -53.9 166.1 -6.6 163.05 -8.45 196.95 -39.35 200.95 -70.85 204.6 -96.05 185.65 -117.0 170.0 -108.15 145.15 -104.1 133.8 -98.9 123.45 M69.75 123.75 L72.25 122.1 Q82.95 115.65 91.05 108.05 101.25 123.45 108.0 141.8 112.35 153.6 107.1 164.4 85.0 210.0 30.95 200.1 16.85 197.4 14.0 184.35 11.4 172.65 9.8 160.85 35.35 155.75 55.25 138.6 63.15 131.85 69.75 123.75" fill="#e58508" fill-rule="evenodd" stroke="none"/>
    <path d="M-41.75 -56.0 Q-29.25 -53.75 -39.75 -46.0 -51.75 -46.75 -41.75 -56.0 M-69.75 -47.0 L-70.25 -47.5 Q-71.75 -57.75 -60.25 -52.0 -56.0 -40.5 -69.75 -47.0" fill="#000000" fill-rule="evenodd" stroke="none"/>
    <path d="M54.0 -37.5 L59.75 -38.0 92.25 -47.75 140.25 -68.5 178.5 -88.5 184.0 -94.5 176.25 -99.0 Q184.15 -102.0 204.75 -116.25 239.75 -143.65 299.5 -213.0 291.55 -198.25 249.75 -148.75 213.9 -104.0 187.25 -95.75 L182.0 -88.75 177.5 -85.0 164.25 -78.25 147.25 -68.25 97.25 -45.75 79.25 -40.25 Q103.9 -12.65 112.35 21.5 101.6 -10.0 54.0 -37.5 M112.9 50.45 Q114.95 44.6 115.45 38.25 121.6 67.55 105.55 91.8 99.45 101.0 91.0 108.25 L100.2 124.0 Q95.3 126.2 91.15 129.65 L86.8 133.2 Q83.55 135.85 79.75 137.5 71.2 157.1 51.1 169.15 36.35 178.0 20.1 183.35 L21.8 184.55 Q24.45 186.05 27.3 187.2 L30.15 188.0 36.5 189.25 36.75 196.25 Q60.3 197.45 82.4 189.85 94.75 185.5 103.45 176.1 78.65 206.25 36.8 201.5 6.25 197.8 8.0 162.75 L1.15 163.65 -9.0 164.25 Q-14.0 218.4 -71.15 201.4 -101.6 192.3 -111.0 164.3 -102.9 184.15 -81.7 191.15 -60.3 198.4 -37.5 197.25 L-37.25 189.75 -28.45 187.95 -25.95 187.15 Q-25.35 186.9 -24.85 186.5 L-23.85 185.65 Q-58.35 173.7 -87.5 149.85 -97.05 142.1 -108.0 140.0 L-108.25 139.25 -100.75 123.0 Q-145.6 89.15 -144.8 31.2 L-144.75 25.75 -159.5 39.25 Q-166.0 75.2 -180.25 108.75 L-183.45 108.9 Q-190.15 78.25 -187.35 45.8 -186.75 38.6 -184.25 32.0 -185.55 43.1 -183.8 54.05 -182.2 64.0 -177.25 72.75 -175.9 72.95 -175.1 72.0 -172.4 68.85 -170.5 65.55 -166.45 58.45 -165.25 50.25 L-167.1 47.3 -173.75 44.5 -176.1 41.05 -177.0 41.0 -178.5 37.5 Q-167.75 37.1 -158.5 30.05 -144.55 19.6 -132.15 7.0 L-136.0 16.75 Q-122.1 58.2 -92.5 90.5 -66.7 165.2 18.4 145.6 59.55 136.25 75.0 97.75 83.6 92.25 91.75 86.2 97.6 81.85 101.75 75.85 L102.6 74.55 Q108.55 62.75 112.9 50.45 M-84.25 -26.75 Q-81.25 26.5 -43.5 28.25 -9.75 21.3 -5.55 -18.65 -14.65 96.95 -57.75 94.25 -94.5 86.5 -84.25 -26.75" fill="#000000" fill-opacity="0.49803922" fill-rule="evenodd" stroke="none"/>
  </g>
</svg>
