<?xml version="1.0" encoding="UTF-8" standalone="no"?>
<svg xmlns:ffdec="https://www.free-decompiler.com/flash" xmlns:xlink="http://www.w3.org/1999/xlink" ffdec:objectType="shape" height="272.0px" width="220.75px" xmlns="http://www.w3.org/2000/svg">
  <g transform="matrix(1.0, 0.0, 0.0, 1.0, 110.8, 70.15)">
    <path d="M-67.75 -45.25 Q-69.5 -46.0 -72.5 -52.25 L-74.5 -61.0 -74.5 -61.75 Q-64.9 -71.1 -50.5 -67.75 L-49.75 -67.5 -49.25 -67.25 -46.75 -67.0 Q-29.45 -74.2 -14.25 -65.0 L-14.0 -57.25 Q-15.25 -51.5 -17.5 -49.75 -22.75 -39.5 -44.25 -45.5 -57.0 -37.25 -67.75 -45.25 M-62.75 -48.0 Q-49.0 -41.5 -52.5 -52.5 -64.5 -58.25 -62.75 -48.0 M-33.0 -46.25 Q-22.0 -52.25 -32.25 -56.5 -46.5 -53.75 -33.0 -46.25" fill="#ffffff" fill-rule="evenodd" stroke="none"/>
    <path d="M-17.5 -49.75 Q7.9 -37.6 -0.25 -9.9 L-1.0 -6.5 Q-5.6 7.6 -16.7 17.0 -46.35 41.95 -70.5 11.0 L-72.8 6.55 Q-88.4 -23.9 -67.75 -45.25 -57.0 -37.25 -44.25 -45.5 -22.75 -39.5 -17.5 -49.75" fill="#e58508" fill-rule="evenodd" stroke="none"/>
    <path d="M-33.0 -46.25 Q-46.5 -53.75 -32.25 -56.5 -22.0 -52.25 -33.0 -46.25 M-62.75 -48.0 Q-64.5 -58.25 -52.5 -52.5 -49.0 -41.5 -62.75 -48.0" fill="#000000" fill-rule="evenodd" stroke="none"/>
    <path d="M-87.5 129.25 L-95.45 116.9 -95.4 116.85 -87.0 129.25 Q-73.4 144.8 -57.3 153.5 -34.5 165.75 -6.7 164.3 -9.05 197.05 -39.35 200.95 -70.85 204.6 -96.05 185.65 -117.0 170.0 -108.15 145.15 -104.0 133.5 -98.6 122.85 L-87.5 129.25 M71.75 123.5 L73.25 122.55 73.25 122.6 73.1 122.85 Q78.1 120.25 82.6 117.0 L86.75 113.75 91.75 109.5 91.9 109.35 Q101.5 124.25 108.0 141.8 112.35 153.6 107.1 164.4 85.0 210.0 30.95 200.1 16.85 197.4 14.0 184.35 11.55 173.35 10.0 162.25 24.25 159.5 36.4 153.5 57.1 143.25 71.75 123.5" fill="#e58508" fill-rule="evenodd" stroke="none"/>
  </g>
</svg>
