<?xml version="1.0" encoding="UTF-8" standalone="no"?>
<svg xmlns:ffdec="https://www.free-decompiler.com/flash" xmlns:xlink="http://www.w3.org/1999/xlink" ffdec:objectType="shape" height="336.55px" width="269.65px" xmlns="http://www.w3.org/2000/svg">
  <g transform="matrix(1.0, 0.0, 0.0, 1.0, 154.85, 154.55)">
    <path d="M49.4 -73.0 Q63.1 -58.95 74.3 -42.8 85.55 -26.5 94.25 -8.75 L94.95 -7.7 111.6 18.9 Q113.45 21.9 114.05 25.35 117.65 36.0 103.5 59.25 L79.75 107.25 39.8 177.3 39.55 177.8 Q38.0 180.6 35.0 182.0 L30.3 181.25 10.25 177.05 Q0.1 174.6 -10.1 171.6 L-10.5 171.5 -59.25 155.25 Q-65.9 152.35 -72.8 150.75 -85.65 147.45 -97.85 142.45 -102.9 140.4 -107.5 137.85 -121.8 129.8 -132.0 116.6 -144.9 99.9 -149.6 79.2 -154.45 57.8 -154.8 35.75 -155.15 16.35 -153.3 -2.85 -151.65 -19.6 -148.05 -36.1 -143.9 -55.2 -138.65 -73.95 -132.75 -94.75 -124.95 -114.8 -116.9 -135.65 -101.0 -150.85 -97.75 -154.05 -93.2 -154.3 -71.45 -156.1 -51.7 -145.6 -32.65 -135.5 -14.5 -123.95 2.25 -113.25 18.05 -101.05 34.7 -88.1 49.4 -73.0" fill="#2e47aa" fill-rule="evenodd" stroke="none"/>
  </g>
</svg>
