<?xml version="1.0" encoding="UTF-8" standalone="no"?>
<svg xmlns:ffdec="https://www.free-decompiler.com/flash" xmlns:xlink="http://www.w3.org/1999/xlink" ffdec:objectType="shape" height="353.8px" width="262.75px" xmlns="http://www.w3.org/2000/svg">
  <g transform="matrix(1.0, 0.0, 0.0, 1.0, 159.0, 167.0)">
    <path d="M-100.75 -167.0 Q-39.75 -168.5 72.25 -46.5 131.6 27.65 79.1 91.6 L75.75 95.5 75.45 95.85 75.5 95.9 48.75 130.0 Q44.5 139.75 39.8 149.3 L25.25 178.25 Q30.0 182.9 24.65 185.45 18.65 188.2 13.55 185.25 L13.05 184.6 12.75 183.5 11.6 183.0 Q0.45 178.25 -10.35 172.55 L-17.7 168.45 Q-28.5 162.25 -39.25 156.0 L-42.2 154.0 Q-53.35 156.35 -64.5 146.75 -88.35 142.8 -105.95 133.7 -154.0 108.85 -156.0 45.75 -165.25 11.5 -145.75 -72.0 -134.75 -134.5 -100.75 -167.0 M-88.0 123.15 L-88.25 123.0 -88.25 123.5 -88.0 123.15" fill="#2e47aa" fill-rule="evenodd" stroke="none"/>
  </g>
</svg>
