<?xml version="1.0" encoding="UTF-8" standalone="no"?>
<svg xmlns:ffdec="https://www.free-decompiler.com/flash" xmlns:xlink="http://www.w3.org/1999/xlink" ffdec:objectType="shape" height="356.3px" width="261.85px" xmlns="http://www.w3.org/2000/svg">
  <g transform="matrix(1.0, 0.0, 0.0, 1.0, 153.0, 183.65)">
    <path d="M-91.65 109.2 L-91.6 108.15 -91.65 109.2 M6.9 141.2 L6.9 140.85 8.45 135.95 6.9 141.2" fill="#e58508" fill-rule="evenodd" stroke="none"/>
    <path d="M27.75 -110.0 L55.75 -80.5 71.75 -59.75 84.25 -39.25 Q135.0 35.75 81.0 94.05 75.95 99.45 70.0 104.75 67.15 116.95 27.0 142.75 L11.5 166.0 12.7 168.2 Q11.0 170.35 9.2 171.45 4.45 174.4 -1.0 170.15 -4.05 167.75 -7.45 165.7 L-8.75 164.9 Q-19.55 158.2 -30.5 152.0 -52.0 151.65 -66.0 140.0 L-66.25 140.0 -73.25 139.0 -95.75 131.75 Q-99.95 130.65 -103.9 129.0 -150.45 108.95 -153.0 4.5 -137.0 -136.5 -86.0 -183.5 -61.25 -186.25 -11.75 -145.5 L11.0 -125.75 27.75 -110.0 M6.9 141.2 L8.45 135.95 6.9 140.85 6.9 141.2 M-91.65 109.2 L-91.6 108.15 -91.65 109.2" fill="#2e47aa" fill-rule="evenodd" stroke="none"/>
  </g>
</svg>
