<?xml version="1.0" encoding="UTF-8" standalone="no"?>
<svg xmlns:ffdec="https://www.free-decompiler.com/flash" xmlns:xlink="http://www.w3.org/1999/xlink" ffdec:objectType="shape" height="352.3px" width="260.6px" xmlns="http://www.w3.org/2000/svg">
  <g transform="matrix(1.0, 0.0, 0.0, 1.0, 147.05, 198.5)">
    <path d="M45.25 -107.75 L69.0 -77.75 82.5 -56.5 93.25 -35.25 Q138.35 46.1 83.35 97.15 74.95 104.9 64.25 112.0 L64.8 111.35 65.1 110.95 65.5 110.45 65.8 110.05 66.0 109.8 Q40.3 139.4 3.75 147.25 L3.5 147.5 2.35 148.95 Q-2.3 153.15 -7.5 153.7 -13.95 154.4 -21.25 149.5 -47.25 146.15 -69.5 133.0 -86.55 129.05 -99.8 121.4 -148.55 93.3 -147.0 15.25 -131.0 -143.5 -69.0 -198.5 -45.0 -199.0 1.0 -154.75 L29.5 -125.25 45.25 -107.75" fill="#2e47aa" fill-rule="evenodd" stroke="none"/>
  </g>
</svg>
