<?xml version="1.0" encoding="UTF-8" standalone="no"?>
<svg xmlns:ffdec="https://www.free-decompiler.com/flash" xmlns:xlink="http://www.w3.org/1999/xlink" ffdec:objectType="shape" height="361.25px" width="258.05px" xmlns="http://www.w3.org/2000/svg">
  <g transform="matrix(1.0, 0.0, 0.0, 1.0, 129.65, 204.25)">
    <path d="M-8.0 143.45 L-7.3 144.1 -8.0 143.45" fill="#e58508" fill-rule="evenodd" stroke="none"/>
    <path d="M124.5 -4.5 Q127.1 6.6 127.95 18.0 128.65 26.6 128.3 35.1 127.95 43.8 126.85 52.5 125.85 60.35 123.05 67.55 121.2 72.35 118.8 76.95 114.25 85.55 108.25 93.25 102.6 100.45 95.5 106.2 L91.75 109.2 Q82.2 116.25 70.75 120.5 53.55 136.65 30.0 143.25 L26.0 147.5 17.25 154.75 13.5 154.5 Q10.0 157.75 7.5 156.75 L-3.75 147.75 Q-40.8 146.25 -64.75 123.5 -80.5 117.65 -92.4 109.35 -144.5 73.25 -123.75 -8.75 L-118.25 -31.0 -109.5 -56.0 -91.0 -93.75 -75.0 -121.0 Q-48.75 -174.5 0.5 -204.25 25.75 -200.75 61.0 -146.75 119.75 -56.0 124.5 -4.5 M-8.0 143.45 L-7.3 144.1 -8.0 143.45" fill="#2e47aa" fill-rule="evenodd" stroke="none"/>
  </g>
</svg>
