<?xml version="1.0" encoding="UTF-8" standalone="no"?>
<svg xmlns:ffdec="https://www.free-decompiler.com/flash" xmlns:xlink="http://www.w3.org/1999/xlink" ffdec:objectType="shape" height="337.65px" width="312.4px" xmlns="http://www.w3.org/2000/svg">
  <g transform="matrix(1.0, 0.0, 0.0, 1.0, 115.05, 182.75)">
    <path d="M-15.15 80.3 L-14.1 80.9 -15.15 80.3" fill="#e58508" fill-rule="evenodd" stroke="none"/>
    <path d="M105.6 -171.15 Q116.85 -157.95 123.9 -141.9 131.65 -124.35 136.2 -105.65 142.4 -80.0 152.95 -55.85 177.05 -0.7 195.7 56.5 199.3 67.65 195.1 78.15 192.55 84.45 185.95 86.7 160.1 95.35 133.5 101.25 121.7 117.1 105.4 128.25 L103.25 129.65 Q87.65 139.6 69.25 141.0 -2.9 180.95 -66.0 106.0 -74.0 100.55 -80.95 93.55 L-82.5 91.95 Q-94.85 78.9 -101.05 62.1 -109.4 39.5 -105.0 15.5 -107.8 12.5 -109.95 9.15 -115.15 1.15 -115.05 -8.45 -115.0 -10.4 -114.15 -11.9 -102.25 -33.65 -85.25 -52.0 L-52.25 -85.0 -25.25 -108.75 20.3 -147.7 Q52.85 -175.1 94.25 -182.75 100.35 -177.3 105.6 -171.15 M-15.15 80.3 L-14.1 80.9 -15.15 80.3" fill="#2e47aa" fill-rule="evenodd" stroke="none"/>
  </g>
</svg>
