<?xml version="1.0" encoding="UTF-8" standalone="no"?>
<svg xmlns:ffdec="https://www.free-decompiler.com/flash" xmlns:xlink="http://www.w3.org/1999/xlink" ffdec:objectType="shape" height="313.05px" width="340.5px" xmlns="http://www.w3.org/2000/svg">
  <g transform="matrix(1.0, 0.0, 0.0, 1.0, 135.95, 153.0)">
    <path d="M9.5 92.45 Q10.0 92.7 10.5 92.9 L9.5 92.5 9.5 92.45" fill="#e58508" fill-rule="evenodd" stroke="none"/>
    <path d="M129.85 -115.8 Q135.4 -103.3 139.3 -90.3 L149.6 -55.8 Q154.1 -40.6 159.65 -25.8 179.0 25.95 196.85 78.1 199.1 84.75 201.8 91.25 204.8 98.45 204.5 106.1 204.3 111.15 200.75 114.85 198.0 117.85 194.0 119.15 161.5 130.35 127.5 123.0 117.95 132.0 107.0 139.05 L106.25 139.5 Q87.85 151.25 66.25 151.25 -27.8 183.8 -75.25 95.75 L-79.2 91.35 -81.85 88.15 Q-101.4 64.2 -102.75 33.25 -108.05 29.45 -113.0 25.3 -118.05 21.1 -123.25 17.25 -141.4 3.95 -133.65 -16.25 -132.0 -20.5 -128.6 -23.6 -104.85 -44.9 -77.95 -62.65 -52.75 -79.2 -26.0 -93.15 -21.9 -95.25 -18.2 -97.85 8.8 -116.9 36.65 -134.25 67.4 -153.35 102.75 -153.0 108.55 -148.25 113.3 -142.5 123.45 -130.35 129.85 -115.8 M152.25 69.0 L148.75 84.25 159.5 84.0 152.25 69.0 M9.5 92.45 L9.5 92.5 10.5 92.9 Q10.0 92.7 9.5 92.45" fill="#2e47aa" fill-rule="evenodd" stroke="none"/>
  </g>
</svg>
