<?xml version="1.0" encoding="UTF-8" standalone="no"?>
<svg xmlns:ffdec="https://www.free-decompiler.com/flash" xmlns:xlink="http://www.w3.org/1999/xlink" ffdec:objectType="shape" height="308.6px" width="336.65px" xmlns="http://www.w3.org/2000/svg">
  <g transform="matrix(1.0, 0.0, 0.0, 1.0, 163.15, 142.75)">
    <path d="M132.75 44.5 L121.0 33.5 120.5 56.25 132.75 44.5 M98.25 -45.2 L102.05 -41.7 105.75 -38.25 139.0 -1.75 144.9 5.7 150.85 12.8 Q165.25 28.8 173.5 48.5 L172.55 51.25 172.0 52.7 Q168.95 60.0 162.85 64.75 156.1 70.05 150.05 76.2 L138.0 88.5 106.0 114.0 67.25 141.5 26.75 165.25 22.75 161.5 Q-26.25 175.65 -67.0 143.75 L-81.0 140.25 -121.25 125.75 -125.35 124.0 -129.5 122.25 Q-150.1 114.35 -162.3 96.85 -163.35 95.4 -163.1 93.65 -159.5 65.3 -148.6 38.7 L-145.75 31.0 -127.25 -13.0 -124.35 -19.45 -121.55 -25.7 Q-101.3 -72.5 -69.75 -112.5 -55.25 -130.85 -35.25 -142.75 L-30.75 -142.65 -26.25 -142.1 Q8.2 -135.15 34.0 -110.75 56.1 -89.7 76.25 -66.7 81.25 -61.0 87.0 -55.7 L98.25 -45.2" fill="#2e47aa" fill-rule="evenodd" stroke="none"/>
  </g>
</svg>
