<?xml version="1.0" encoding="UTF-8" standalone="no"?>
<svg xmlns:ffdec="https://www.free-decompiler.com/flash" xmlns:xlink="http://www.w3.org/1999/xlink" ffdec:objectType="shape" height="183.25px" width="131.8px" xmlns="http://www.w3.org/2000/svg">
  <g transform="matrix(1.0, 0.0, 0.0, 1.0, 54.25, 45.9)">
    <path d="M28.3 -42.45 Q44.75 -51.6 55.0 -36.5 64.85 -32.65 71.9 -25.05 82.7 -13.25 72.85 0.5 L72.1 0.5 Q66.95 -3.1 64.35 -8.9 L63.85 -9.15 64.0 -3.75 Q64.25 1.4 63.6 6.55 63.7 64.35 34.05 80.65 17.8 92.5 -1.9 86.6 -14.3 91.2 -27.4 88.75 L-28.5 93.7 Q-33.55 114.65 -43.3 134.0 -44.7 136.85 -47.3 137.35 -48.5 136.65 -48.7 135.35 -51.6 117.9 -51.55 100.1 -51.55 87.45 -48.0 75.75 -50.9 69.25 -52.45 62.45 -58.35 36.65 -44.8 13.7 -40.65 6.65 -34.35 1.5 -16.4 -13.0 2.6 -26.4 15.05 -35.15 28.3 -42.45" fill="#2e47aa" fill-rule="evenodd" stroke="none"/>
  </g>
</svg>
