<?xml version="1.0" encoding="UTF-8" standalone="no"?>
<svg xmlns:ffdec="https://www.free-decompiler.com/flash" xmlns:xlink="http://www.w3.org/1999/xlink" ffdec:objectType="shape" height="200.0px" width="171.6px" xmlns="http://www.w3.org/2000/svg">
  <g transform="matrix(1.0, 0.0, 0.0, 1.0, 92.0, 48.0)">
    <path d="M-13.0 -48.0 L5.3 -22.15 21.15 1.35 Q31.75 17.35 47.75 27.5 L27.25 81.25 13.0 121.25 3.75 151.0 1.25 151.5 -21.75 123.25 -50.0 90.5 -82.75 55.0 -77.5 -25.75 Q-61.0 -9.85 -37.75 -16.4 -27.9 -19.3 -21.9 -27.9 -15.45 -37.1 -13.0 -48.0 M-91.5 106.5 L-67.25 126.25 -30.5 152.0 Q-49.7 150.25 -66.0 140.0 L-66.25 140.0 -90.15 116.45 Q-91.25 115.25 -92.0 113.75 L-91.5 106.5 M71.75 59.25 L73.0 54.0 Q84.05 64.3 76.55 88.35 74.2 95.85 70.0 104.75 70.0 113.5 27.0 142.75 L51.75 99.75 71.75 59.25" fill="#ffffff" fill-rule="evenodd" stroke="none"/>
  </g>
</svg>
