<?xml version="1.0" encoding="UTF-8" standalone="no"?>
<svg xmlns:ffdec="https://www.free-decompiler.com/flash" xmlns:xlink="http://www.w3.org/1999/xlink" ffdec:objectType="shape" height="201.85px" width="175.8px" xmlns="http://www.w3.org/2000/svg">
  <g transform="matrix(1.0, 0.0, 0.0, 1.0, 86.8, 53.75)">
    <path d="M38.3 -44.55 Q48.4 -11.8 62.8 19.3 67.5 29.45 73.95 38.25 L37.5 98.0 16.5 136.75 11.75 147.0 7.0 137.1 Q-1.5 119.7 -10.65 102.6 L-17.6 89.75 Q-23.85 78.4 -29.75 66.75 L-30.5 66.5 -34.05 59.9 -34.25 59.0 -35.0 58.75 -35.0 57.75 -56.75 21.5 -56.0 21.0 Q-49.4 2.1 -43.45 -16.95 -38.05 -34.3 -31.5 -51.25 -19.05 -31.6 3.0 -32.15 25.65 -32.7 35.5 -53.75 L38.3 -44.55 M88.75 73.75 Q89.15 79.95 88.95 86.0 L88.75 89.45 Q88.15 95.6 86.2 101.0 81.8 112.7 70.75 120.5 67.5 127.5 30.0 143.25 55.2 117.6 77.2 89.2 L88.75 73.75 M-54.75 95.0 L-21.5 130.75 -4.5 146.75 -3.75 147.75 -7.3 148.05 Q-23.25 148.65 -47.25 136.75 L-64.75 123.5 -67.95 120.15 Q-79.55 107.8 -84.0 97.45 -92.15 78.65 -76.75 66.5 L-54.75 95.0" fill="#ffffff" fill-rule="evenodd" stroke="none"/>
  </g>
</svg>
