<?xml version="1.0" encoding="UTF-8" standalone="no"?>
<svg xmlns:ffdec="https://www.free-decompiler.com/flash" xmlns:xlink="http://www.w3.org/1999/xlink" ffdec:objectType="shape" height="202.0px" width="174.7px" xmlns="http://www.w3.org/2000/svg">
  <g transform="matrix(1.0, 0.0, 0.0, 1.0, 81.5, 55.25)">
    <path d="M64.35 -7.65 Q69.05 12.65 75.45 32.7 79.3 44.7 88.25 52.75 L53.75 85.5 23.75 115.5 9.65 94.6 9.45 94.3 -7.8 68.75 -11.0 64.0 -45.25 17.25 Q-28.75 -19.35 -11.25 -55.25 -2.0 -35.6 19.2 -32.9 42.65 -29.95 55.25 -50.0 59.45 -28.7 64.35 -7.65 M93.1 93.6 Q92.55 97.7 91.35 101.45 L89.65 106.0 89.5 106.35 75.05 123.75 74.85 123.9 74.65 124.0 74.3 124.25 73.55 124.75 72.0 125.75 Q65.75 132.05 57.55 135.25 37.05 143.35 15.1 146.05 L6.95 146.7 -7.3 146.15 Q-16.4 145.15 -25.4 142.45 -46.9 136.05 -61.75 119.25 -70.85 106.15 -79.45 92.65 L-79.8 92.05 Q-80.75 90.25 -81.05 88.4 -83.6 72.7 -71.0 61.0 L-48.0 83.25 -10.75 112.75 12.5 128.5 9.55 133.25 9.8 133.95 Q10.65 136.5 13.05 136.6 17.9 136.05 22.75 134.75 23.95 135.9 25.7 136.35 27.95 136.9 29.75 135.5 32.25 133.45 32.0 130.0 L34.45 128.75 Q60.25 115.2 84.25 98.35 L89.4 94.65 91.8 92.9 93.0 92.0 93.15 93.3 93.1 93.6" fill="#ffffff" fill-rule="evenodd" stroke="none"/>
  </g>
</svg>
