<?xml version="1.0" encoding="UTF-8" standalone="no"?>
<svg xmlns:ffdec="https://www.free-decompiler.com/flash" xmlns:xlink="http://www.w3.org/1999/xlink" ffdec:objectType="shape" height="205.1px" width="174.25px" xmlns="http://www.w3.org/2000/svg">
  <g transform="matrix(1.0, 0.0, 0.0, 1.0, 78.25, 55.0)">
    <path d="M43.25 116.3 L43.65 116.0 43.9 115.55 44.1 115.05 44.25 114.0 96.0 99.0 95.65 101.75 Q94.55 106.5 92.7 110.75 86.6 124.4 72.0 132.0 38.55 152.5 7.0 149.8 -0.2 149.2 -7.3 147.35 -35.05 140.2 -61.25 114.5 L-78.25 76.0 Q-75.6 72.3 -74.1 67.95 -72.95 64.75 -72.5 61.25 L-64.25 55.25 -45.25 70.75 -5.5 96.25 17.75 108.75 11.75 114.0 14.65 119.45 33.0 116.5 39.5 119.0 40.45 118.4 43.25 116.3 M72.25 -42.5 Q74.35 -21.3 77.05 -0.05 79.85 21.8 84.9 43.15 87.45 53.85 94.75 61.5 L45.25 90.5 33.75 98.0 31.1 94.45 12.55 70.35 Q-10.15 41.45 -34.25 13.75 L-33.25 13.25 Q-14.5 -21.7 6.75 -55.0 13.8 -34.25 35.1 -29.5 58.05 -24.6 72.25 -42.5" fill="#ffffff" fill-rule="evenodd" stroke="none"/>
  </g>
</svg>
