<?xml version="1.0" encoding="UTF-8" standalone="no"?>
<svg xmlns:ffdec="https://www.free-decompiler.com/flash" xmlns:xlink="http://www.w3.org/1999/xlink" ffdec:objectType="shape" height="200.8px" width="172.95px" xmlns="http://www.w3.org/2000/svg">
  <g transform="matrix(1.0, 0.0, 0.0, 1.0, 76.5, 46.0)">
    <path d="M-75.75 89.0 L-76.5 70.0 Q-71.0 63.0 -69.5 57.0 L-61.75 52.25 -53.25 58.5 -8.25 84.25 16.25 96.0 Q8.5 95.75 13.5 104.5 L28.5 106.0 64.0 106.5 96.25 105.25 Q96.95 109.7 95.05 114.55 90.3 126.55 69.25 141.0 36.55 157.9 7.25 154.1 -0.2 153.15 -7.35 150.9 -38.75 141.0 -66.0 106.0 L-75.75 89.0 M18.0 -46.0 Q22.35 -23.7 44.0 -16.7 67.1 -9.1 83.0 -27.5 83.1 -7.6 83.75 12.35 84.45 34.15 87.7 55.55 89.05 64.3 94.5 71.0 L35.0 89.0 15.15 64.75 -28.25 16.0 Q-5.5 -15.25 18.0 -46.0" fill="#ffffff" fill-rule="evenodd" stroke="none"/>
  </g>
</svg>
