<?xml version="1.0" encoding="UTF-8" standalone="no"?>
<svg xmlns:ffdec="https://www.free-decompiler.com/flash" xmlns:xlink="http://www.w3.org/1999/xlink" ffdec:objectType="shape" height="184.05px" width="168.95px" xmlns="http://www.w3.org/2000/svg">
  <g transform="matrix(1.0, 0.0, 0.0, 1.0, 78.95, 23.75)">
    <path d="M13.75 -23.75 L14.95 -17.95 Q18.9 4.0 40.7 10.65 63.45 17.45 80.25 -1.0 79.35 19.6 79.75 40.0 80.15 61.95 84.0 83.45 L84.75 86.5 25.5 90.75 25.0 91.0 11.45 75.15 -5.75 55.7 Q-18.8 41.35 -32.5 27.25 L13.75 -23.75 M-66.75 56.25 L-30.5 74.75 11.25 93.25 11.5 99.5 Q49.8 112.55 90.0 117.75 87.85 141.45 66.25 151.25 46.9 159.9 25.7 160.3 L7.65 159.3 Q-0.1 158.25 -7.65 156.15 L-16.1 153.5 Q-35.95 146.55 -50.3 130.95 -64.95 114.9 -75.25 95.75 L-75.85 94.6 -75.9 94.45 -77.85 89.7 -78.05 89.15 -78.95 73.0 Q-77.25 66.05 -71.85 59.6 -69.85 57.25 -66.75 56.25" fill="#ffffff" fill-rule="evenodd" stroke="none"/>
  </g>
</svg>
