<?xml version="1.0" encoding="UTF-8" standalone="no"?>
<svg xmlns:ffdec="https://www.free-decompiler.com/flash" xmlns:xlink="http://www.w3.org/1999/xlink" ffdec:objectType="shape" height="178.05px" width="167.9px" xmlns="http://www.w3.org/2000/svg">
  <g transform="matrix(1.0, 0.0, 0.0, 1.0, 83.9, 12.75)">
    <path d="M0.0 103.75 L0.25 110.0 8.15 112.5 Q26.0 117.85 44.5 121.0 L84.0 128.25 83.75 130.05 Q80.55 145.35 66.25 152.75 L45.75 162.75 Q26.35 166.25 8.25 164.95 -0.25 164.3 -8.4 162.65 L-17.25 160.5 -41.25 147.25 -50.25 140.25 -73.0 115.0 -80.75 93.75 -80.85 93.35 -83.3 82.85 Q-85.65 72.4 -78.5 66.75 L-36.5 88.25 0.0 103.75 M52.95 20.35 Q62.7 16.2 69.25 7.75 68.1 28.55 69.05 49.25 69.95 69.0 76.15 87.85 L76.65 89.4 79.5 96.75 Q46.1 97.5 13.0 101.25 L9.4 96.75 Q-3.4 81.05 -17.15 66.25 L-22.3 60.85 -23.0 60.05 -24.3 58.75 -43.6 39.6 -44.75 38.5 Q-21.05 13.7 1.0 -12.75 1.8 10.55 22.65 20.1 37.7 27.0 52.95 20.35" fill="#ffffff" fill-rule="evenodd" stroke="none"/>
  </g>
</svg>
