<?xml version="1.0" encoding="UTF-8" standalone="no"?>
<svg xmlns:ffdec="https://www.free-decompiler.com/flash" xmlns:xlink="http://www.w3.org/1999/xlink" ffdec:objectType="shape" height="155.95px" width="162.0px" xmlns="http://www.w3.org/2000/svg">
  <g transform="matrix(1.0, 0.0, 0.0, 1.0, 74.25, -15.0)">
    <path d="M58.6 62.05 Q60.55 68.15 63.4 73.8 67.7 82.45 74.05 90.05 83.05 100.95 87.2 114.4 87.65 115.9 87.75 117.5 L31.75 146.0 11.25 158.75 14.25 165.0 61.5 155.0 Q35.7 171.2 9.15 170.95 -0.15 170.85 -9.5 168.75 -41.2 161.65 -74.05 131.65 L-74.25 131.5 -45.0 143.5 -13.0 154.25 -12.5 154.25 -7.6 155.3 Q14.35 159.3 -4.5 142.5 L-32.75 118.5 -73.25 87.0 -68.25 82.25 Q-64.75 78.25 -65.25 77.25 L-53.75 63.5 -43.0 45.5 -36.75 31.75 -26.0 15.0 Q-24.5 23.35 -20.0 30.4 -7.4 50.15 15.55 46.65 38.6 43.35 46.75 21.0 52.1 41.75 58.6 62.05" fill="#ffffff" fill-rule="evenodd" stroke="none"/>
  </g>
</svg>
