<?xml version="1.0" encoding="UTF-8" standalone="no"?>
<svg xmlns:ffdec="https://www.free-decompiler.com/flash" xmlns:xlink="http://www.w3.org/1999/xlink" ffdec:objectType="shape" height="168.0px" width="161.25px" xmlns="http://www.w3.org/2000/svg">
  <g transform="matrix(1.0, 0.0, 0.0, 1.0, 73.5, 2.75)">
    <path d="M81.35 75.65 Q84.85 81.85 87.75 88.5 L53.25 124.25 22.25 160.25 22.75 161.5 Q15.3 163.35 8.2 164.3 L-8.8 165.25 Q-40.85 164.45 -67.0 143.75 L-25.2 154.35 Q-16.55 156.5 -7.8 157.85 L7.65 159.6 18.05 160.0 Q20.45 160.05 21.2 157.7 L21.75 154.25 -17.25 127.75 -73.5 94.75 Q-69.4 86.05 -66.15 76.85 L-65.6 75.2 Q-54.3 42.25 -46.25 8.25 -35.05 30.2 -11.3 30.15 -5.75 29.3 -0.25 27.55 21.5 20.35 24.5 -2.75 38.8 25.3 56.85 51.1 63.5 60.55 73.65 65.95 L75.25 67.25 Q78.75 71.1 81.35 75.65" fill="#ffffff" fill-rule="evenodd" stroke="none"/>
  </g>
</svg>
