<?xml version="1.0" encoding="UTF-8" standalone="no"?>
<svg xmlns:ffdec="https://www.free-decompiler.com/flash" xmlns:xlink="http://www.w3.org/1999/xlink" ffdec:objectType="shape" height="66.3px" width="63.0px" xmlns="http://www.w3.org/2000/svg">
  <g transform="matrix(1.0, 0.0, 0.0, 1.0, 1.9, -22.35)">
    <path d="M61.1 30.75 Q61.0 36.3 60.2 41.4 56.45 65.15 37.4 78.75 32.85 82.0 27.4 84.65 L26.55 85.05 Q12.75 91.4 -1.9 86.6 L-1.65 85.75 -1.25 85.6 -1.4 83.85 Q1.5 82.4 2.6 79.35 8.6 74.25 13.55 68.35 L15.9 65.4 Q23.25 55.75 28.0 44.05 L35.25 26.1 36.75 22.35 Q45.45 29.8 56.65 30.8 58.85 31.05 61.1 30.75" fill="#ffffff" fill-rule="evenodd" stroke="none"/>
  </g>
</svg>
