<?xml version="1.0" encoding="UTF-8" standalone="no"?>
<svg xmlns:ffdec="https://www.free-decompiler.com/flash" xmlns:xlink="http://www.w3.org/1999/xlink" ffdec:objectType="shape" height="279.3px" width="293.9px" xmlns="http://www.w3.org/2000/svg">
  <g transform="matrix(1.0, 0.0, 0.0, 1.0, 153.15, 76.55)">
    <path d="M-76.25 -39.75 L-83.75 -45.75 -86.5 -53.0 -86.75 -53.5 Q-76.9 -67.55 -59.75 -68.5 -46.9 -80.1 -30.5 -75.0 L-28.5 -67.75 -29.5 -59.0 Q-37.0 -46.0 -52.0 -48.0 -62.5 -35.75 -76.25 -39.75 M-43.0 -52.25 Q-32.0 -57.75 -41.25 -63.25 -55.0 -56.25 -43.0 -52.25 M-65.75 -43.5 Q-57.0 -44.0 -60.5 -52.75 -78.5 -52.0 -65.75 -43.5" fill="#ffffff" fill-rule="evenodd" stroke="none"/>
    <path d="M-65.75 -43.5 Q-78.5 -52.0 -60.5 -52.75 -57.0 -44.0 -65.75 -43.5 M-43.0 -52.25 Q-55.0 -56.25 -41.25 -63.25 -32.0 -57.75 -43.0 -52.25" fill="#000000" fill-rule="evenodd" stroke="none"/>
    <path d="M-29.5 -59.0 Q-5.0 -54.5 -2.5 -23.0 L-2.0 -16.0 Q-0.95 8.15 -22.1 19.6 -31.25 24.5 -41.75 23.7 -57.1 22.1 -67.5 10.5 -71.35 5.2 -75.4 0.05 -90.4 -19.15 -76.25 -39.75 -62.5 -35.75 -52.0 -48.0 -37.0 -46.0 -29.5 -59.0 M-110.05 167.15 Q-112.0 159.95 -110.95 152.5 L-110.05 147.35 -104.25 148.75 -64.0 157.5 Q-51.7 157.6 -40.45 161.9 -37.25 163.1 -33.75 163.15 L-19.0 163.5 -8.65 164.2 Q-10.85 177.75 -16.5 190.65 -17.6 193.2 -19.6 195.25 -21.0 196.75 -22.95 197.8 -30.45 201.6 -39.1 201.85 L-65.45 201.05 Q-81.95 198.15 -95.2 188.5 -106.5 180.35 -110.05 167.15 M8.3 165.35 L25.0 166.5 38.5 166.25 39.75 163.5 41.25 163.75 71.0 129.25 88.9 104.9 Q96.5 116.1 102.55 128.2 108.25 139.7 110.0 152.35 111.55 163.75 105.55 173.55 95.8 189.5 78.3 196.05 61.6 202.35 43.75 201.65 34.95 201.5 26.75 198.65 14.05 194.25 11.1 181.1 9.35 173.25 8.3 165.35" fill="#e58508" fill-rule="evenodd" stroke="none"/>
    <path d="M56.5 -24.75 L87.25 -5.25 86.5 -4.75 88.25 -4.5 89.0 -3.25 106.5 9.0 108.5 7.25 104.1 14.75 101.0 12.75 100.7 14.25 100.5 12.25 88.0 4.0 97.5 26.25 81.5 58.5 65.0 22.35 Q62.25 16.3 59.05 10.5 43.35 -18.15 27.25 -46.5 L56.5 -24.75 M132.2 21.8 L130.2 24.3 Q130.05 22.9 130.3 21.65 131.25 17.4 136.45 17.4 L137.9 17.2 139.25 9.5 140.75 9.5 Q138.65 24.6 131.8 38.3 L127.35 46.8 Q109.9 78.25 87.5 106.5 85.9 129.15 72.3 147.05 69.4 150.9 65.75 153.95 44.2 172.0 17.5 181.25 L21.0 184.05 Q27.9 188.8 36.5 189.25 L36.75 196.25 56.0 196.5 Q74.35 192.05 91.1 184.7 95.05 166.05 108.5 150.5 L110.0 150.5 Q113.05 171.9 96.25 186.15 86.1 194.7 73.0 197.55 50.7 202.5 27.85 200.1 25.35 199.6 23.3 198.1 7.6 186.5 8.25 166.0 L-8.75 164.5 Q-8.75 173.55 -11.1 182.15 -13.9 192.35 -22.75 198.05 -31.05 203.4 -40.9 202.65 -62.45 201.9 -82.75 195.0 L-90.1 191.95 Q-108.1 183.4 -111.25 164.0 -108.65 169.95 -104.6 175.0 -101.7 178.75 -97.75 181.55 -79.45 194.65 -57.0 197.5 L-37.75 197.25 -37.25 189.75 -34.2 189.35 Q-28.65 188.9 -23.95 186.1 L-23.0 185.25 Q-38.25 182.85 -50.9 175.8 -79.9 159.75 -111.25 160.5 L-110.25 147.0 -114.25 146.25 -151.25 123.25 -151.25 117.0 -149.75 117.45 -148.85 117.2 -148.45 117.65 Q-142.7 121.6 -135.45 120.8 L-133.0 120.75 Q-135.25 121.7 -136.75 123.6 L-137.65 125.1 -138.75 127.25 -139.75 127.75 Q-53.55 160.8 39.25 165.0 L39.75 163.25 40.75 163.0 Q55.35 147.6 67.25 130.0 L121.0 50.0 134.25 22.75 132.2 21.8 M36.5 156.5 L17.75 147.25 46.1 132.35 36.5 156.5 M-145.0 -9.0 Q-146.25 6.55 -148.35 22.4 -151.1 43.35 -151.25 64.5 -153.75 44.25 -152.95 23.9 -151.45 -14.65 -137.5 -50.5 -140.0 -40.15 -142.0 -29.65 -144.4 -16.9 -146.25 -4.0 L-145.0 -9.0 M-83.0 -19.5 Q-69.25 13.75 -42.5 22.5 -9.75 25.0 -2.0 -7.5 3.0 69.5 -42.25 75.5 -75.5 66.25 -83.0 -19.5" fill="#000000" fill-opacity="0.49803922" fill-rule="evenodd" stroke="none"/>
  </g>
</svg>
