<?xml version="1.0" encoding="UTF-8" standalone="no"?>
<svg xmlns:ffdec="https://www.free-decompiler.com/flash" xmlns:xlink="http://www.w3.org/1999/xlink" ffdec:objectType="shape" height="290.2px" width="269.45px" xmlns="http://www.w3.org/2000/svg">
  <g transform="matrix(1.0, 0.0, 0.0, 1.0, 155.7, 87.8)">
    <path d="M-83.75 -51.5 L-91.25 -57.75 -94.25 -65.75 Q-86.15 -78.95 -70.75 -80.5 L-70.25 -80.0 Q-55.45 -92.05 -37.75 -85.5 L-35.75 -78.0 -37.0 -69.5 Q-36.25 -61.0 -60.25 -59.75 -72.0 -47.5 -83.75 -51.5 M-75.75 -65.75 Q-83.0 -56.0 -73.5 -55.75 -60.5 -62.5 -75.75 -65.75 M-49.75 -74.75 Q-62.75 -69.75 -51.75 -63.75 -39.75 -68.75 -49.75 -74.75" fill="#ffffff" fill-rule="evenodd" stroke="none"/>
    <path d="M-37.0 -69.5 Q-10.75 -62.5 -10.5 -32.75 L-10.25 -26.5 Q-10.35 -23.65 -10.6 -20.8 -12.65 2.95 -35.1 10.25 -58.05 17.6 -75.0 0.0 L-83.45 -11.4 Q-97.45 -30.9 -83.75 -51.5 -72.0 -47.5 -60.25 -59.75 -36.25 -61.0 -37.0 -69.5 M-97.85 142.45 Q-85.65 147.45 -72.8 150.75 -65.9 152.35 -59.25 155.25 L-10.5 171.5 -10.1 171.6 Q-12.4 181.3 -16.5 190.65 -17.6 193.2 -19.6 195.25 -21.0 196.75 -22.95 197.8 -30.45 201.6 -39.1 201.85 L-65.45 201.05 Q-81.95 198.15 -95.2 188.5 -106.5 180.35 -110.05 167.15 -112.0 159.95 -110.95 152.5 -109.9 144.9 -107.5 137.85 -102.9 140.4 -97.85 142.45 M79.75 107.25 L84.2 98.3 Q94.7 112.5 102.55 128.2 108.25 139.7 110.0 152.35 111.55 163.75 105.55 173.55 95.8 189.5 78.3 196.05 61.6 202.35 43.75 201.65 34.95 201.5 26.75 198.65 14.05 194.25 11.1 181.1 L10.25 177.05 30.3 181.25 35.0 182.0 Q38.0 180.6 39.55 177.8 39.95 177.1 39.85 176.25 L39.5 175.55 38.75 174.75 57.5 146.0 79.75 107.25 M29.0 166.0 L28.5 166.0 14.15 155.35 14.75 155.75 24.75 153.25 35.5 145.5 29.0 166.0" fill="#e58508" fill-rule="evenodd" stroke="none"/>
    <path d="M-49.75 -74.75 Q-39.75 -68.75 -51.75 -63.75 -62.75 -69.75 -49.75 -74.75 M-75.75 -65.75 Q-60.5 -62.5 -73.5 -55.75 -83.0 -56.0 -75.75 -65.75" fill="#000000" fill-rule="evenodd" stroke="none"/>
    <path d="M-139.0 -67.75 L-144.75 -46.5 -144.25 -45.75 Q-149.95 -24.25 -150.75 -2.0 L-147.0 -19.75 Q-146.85 25.6 -140.25 71.25 L-139.5 71.75 -136.25 91.0 Q-138.9 98.15 -132.55 103.15 -125.25 108.85 -117.6 113.95 -102.9 123.65 -87.5 132.0 -35.3 163.55 36.5 181.25 L39.8 176.75 37.0 182.25 17.0 178.5 16.0 179.0 19.25 182.5 Q23.0 186.15 27.7 187.85 32.0 189.3 36.5 189.25 L36.75 196.25 56.25 196.5 56.0 195.5 74.0 192.5 Q73.85 191.1 74.25 189.9 82.35 166.35 91.0 143.0 L91.75 142.5 91.5 141.75 92.75 140.0 79.0 125.5 Q63.35 152.6 39.25 174.0 L38.25 174.25 63.5 131.0 99.0 62.0 Q104.9 49.35 109.1 35.45 110.0 32.5 108.75 29.75 L113.7 25.0 113.75 30.3 Q110.15 34.35 108.9 39.75 101.7 70.95 84.0 98.25 L86.05 101.2 Q89.0 105.3 91.65 109.55 L93.4 112.25 Q98.75 120.5 103.45 129.4 110.55 142.9 109.8 157.75 108.8 177.7 92.3 189.0 82.45 195.8 70.75 198.05 52.0 201.65 32.75 200.75 23.75 200.5 17.9 193.85 11.4 186.55 10.25 176.75 L-10.0 171.5 -10.15 175.4 Q-10.55 188.8 -21.0 196.6 -28.9 202.5 -39.0 202.4 -53.8 202.25 -68.25 199.2 -80.85 196.75 -92.3 190.65 -100.25 186.4 -105.4 179.1 -110.2 172.3 -111.25 164.0 -106.3 176.3 -95.35 183.75 -82.4 192.6 -66.6 194.05 -61.25 194.8 -57.0 197.5 L-37.5 197.25 -37.25 189.75 -31.6 188.9 Q-27.95 188.05 -24.65 186.6 -21.7 185.35 -19.5 183.25 -56.05 181.25 -86.5 161.8 -94.3 156.75 -103.5 154.45 -107.95 153.35 -111.75 155.25 L-107.25 137.75 Q-112.15 135.55 -116.45 132.3 -133.7 119.25 -142.0 99.05 -149.65 80.5 -152.9 60.75 -156.35 39.65 -155.55 18.2 -154.75 -2.65 -151.0 -23.15 -146.8 -45.95 -140.25 -68.0 L-139.0 -67.75 M84.0 17.0 L70.75 49.75 70.0 50.0 66.0 61.0 16.75 -50.0 81.7 19.5 84.0 17.0 M39.75 131.5 L40.5 131.75 35.0 147.0 35.25 148.0 32.75 154.0 33.0 155.0 29.25 166.25 2.0 146.75 Q11.5 149.25 39.75 131.5 M-90.5 -32.0 Q-77.0 3.75 -51.75 11.0 -20.5 14.0 -10.25 -17.25 -3.5 44.75 -52.75 57.5 -84.0 50.5 -90.5 -32.0" fill="#000000" fill-opacity="0.49803922" fill-rule="evenodd" stroke="none"/>
  </g>
</svg>
