<?xml version="1.0" encoding="UTF-8" standalone="no"?>
<svg xmlns:ffdec="https://www.free-decompiler.com/flash" xmlns:xlink="http://www.w3.org/1999/xlink" ffdec:objectType="shape" height="302.15px" width="267.95px" xmlns="http://www.w3.org/2000/svg">
  <g transform="matrix(1.0, 0.0, 0.0, 1.0, 157.65, 99.65)">
    <path d="M-90.5 -63.5 L-97.5 -69.5 Q-101.5 -76.5 -100.75 -77.5 L-101.0 -78.25 Q-92.7 -93.45 -75.0 -92.75 -60.6 -104.3 -44.5 -96.5 L-42.75 -88.75 -44.0 -80.25 Q-43.75 -72.25 -67.75 -71.75 -84.0 -58.5 -90.5 -63.5 M-57.5 -86.75 Q-70.75 -80.25 -59.0 -75.75 -47.25 -80.25 -57.5 -86.75 M-82.75 -78.5 Q-91.25 -68.75 -81.0 -68.25 -68.75 -74.25 -82.75 -78.5" fill="#ffffff" fill-rule="evenodd" stroke="none"/>
    <path d="M-44.0 -80.25 Q-21.45 -72.6 -18.2 -48.2 -17.5 -42.7 -18.0 -37.25 -18.2 -13.6 -38.85 -4.0 -60.7 6.25 -79.6 -8.4 L-81.75 -10.25 -89.25 -20.5 Q-105.25 -38.75 -90.5 -63.5 -84.0 -58.5 -67.75 -71.75 -43.75 -72.25 -44.0 -80.25 M7.5 157.95 L7.25 154.05 18.25 151.5 19.85 145.4 15.0 166.0 7.5 157.95 M75.45 95.85 L79.1 91.6 83.95 97.95 Q94.6 112.3 102.55 128.2 108.25 139.7 110.0 152.35 111.55 163.75 105.55 173.55 95.8 189.5 78.3 196.05 61.6 202.35 43.75 201.65 34.95 201.5 26.75 198.65 15.0 194.6 11.6 183.0 L12.75 183.5 13.05 184.6 13.55 185.25 Q18.65 188.2 24.65 185.45 30.0 182.9 25.25 178.25 L39.8 149.3 Q44.5 139.75 48.75 130.0 58.35 120.35 65.2 109.05 69.45 102.15 75.45 95.85 M-110.05 167.15 Q-112.0 159.95 -110.95 152.5 -109.6 142.65 -105.95 133.7 -88.35 142.8 -64.5 146.75 L-52.75 152.75 -39.25 156.0 Q-28.5 162.25 -17.7 168.45 L-10.35 172.55 Q-12.6 181.75 -16.5 190.65 -17.6 193.2 -19.6 195.25 -21.0 196.75 -22.95 197.8 -30.45 201.6 -39.1 201.85 L-65.45 201.05 Q-81.95 198.15 -95.2 188.5 -106.5 180.35 -110.05 167.15" fill="#e58508" fill-rule="evenodd" stroke="none"/>
    <path d="M-82.75 -78.5 Q-68.75 -74.25 -81.0 -68.25 -91.25 -68.75 -82.75 -78.5 M-57.5 -86.75 Q-47.25 -80.25 -59.0 -75.75 -70.75 -80.25 -57.5 -86.75" fill="#000000" fill-rule="evenodd" stroke="none"/>
    <path d="M22.5 -25.75 Q39.35 7.9 54.0 21.75 51.5 33.25 49.5 34.0 L42.5 60.0 26.5 14.25 22.75 0.25 11.0 -34.75 5.75 -53.5 21.0 -27.25 22.5 -25.75 M98.25 2.5 Q114.75 53.5 79.25 92.25 L88.0 104.0 Q86.5 103.0 82.5 107.5 L81.0 113.5 90.5 136.75 93.0 151.75 90.0 153.75 84.5 188.0 Q103.25 181.0 109.75 163.75 L109.75 166.0 105.25 176.25 Q94.5 197.5 43.75 201.5 L33.0 200.75 24.0 198.25 Q16.0 196.5 12.0 183.25 L-10.25 172.25 Q-10.5 203.0 -43.0 202.5 -107.5 198.0 -111.25 164.0 -106.5 187.5 -57.0 197.5 L-37.5 197.25 -37.25 189.75 Q-26.25 189.75 -17.5 180.5 L-51.0 174.0 -62.75 171.0 Q-91.5 149.5 -110.5 149.5 L-110.25 145.75 -106.0 134.75 -115.75 129.75 -129.75 116.25 -137.25 105.75 -147.7 81.5 -151.4 65.25 Q-166.8 -7.15 -144.25 -77.5 L-143.25 -77.25 -152.75 -25.75 -152.25 -24.75 Q-154.8 -3.65 -151.5 17.25 L-150.5 17.0 -147.75 -34.5 Q-146.8 -24.55 -145.3 -14.55 -138.0 35.15 -119.0 81.5 L-117.25 84.25 -116.0 84.5 -99.75 102.75 -59.0 135.25 -32.25 154.25 8.0 179.25 22.5 186.25 Q25.75 180.75 28.0 182.0 28.0 184.5 25.0 186.75 L33.75 189.0 36.5 189.25 36.75 196.25 46.75 196.5 47.75 186.5 57.25 151.0 Q49.25 161.75 31.25 167.25 L26.0 177.5 25.5 178.25 25.0 177.25 27.0 174.5 27.25 172.75 41.25 143.5 41.0 142.75 57.5 104.0 57.25 103.25 58.75 101.0 58.5 100.25 66.5 81.5 70.75 69.0 71.5 68.5 Q70.5 67.5 73.75 62.5 L77.2 48.8 75.25 64.0 77.25 73.75 Q80.75 68.0 79.75 75.25 L84.75 70.5 95.25 53.75 101.5 35.0 101.5 17.0 98.0 3.75 98.25 2.5 M80.75 34.0 L82.0 34.0 79.5 35.25 80.75 34.0 M7.5 158.25 L7.5 154.25 4.25 154.75 -5.5 144.25 Q13.25 143.75 22.0 137.0 L15.25 166.25 7.5 158.25 M-18.0 -35.0 Q-12.25 29.5 -61.75 40.0 -89.5 41.5 -97.0 -44.0 -84.25 -2.5 -53.5 -0.25 -20.75 -4.5 -18.0 -35.0" fill="#000000" fill-opacity="0.49803922" fill-rule="evenodd" stroke="none"/>
  </g>
</svg>
