<?xml version="1.0" encoding="UTF-8" standalone="no"?>
<svg xmlns:ffdec="https://www.free-decompiler.com/flash" xmlns:xlink="http://www.w3.org/1999/xlink" ffdec:objectType="shape" height="330.75px" width="288.65px" xmlns="http://www.w3.org/2000/svg">
  <g transform="matrix(1.0, 0.0, 0.0, 1.0, 112.65, 127.5)">
    <path d="M24.75 -103.5 L21.75 -112.0 Q21.75 -120.25 23.0 -121.0 36.85 -132.95 53.75 -123.0 61.25 -124.55 68.7 -122.6 79.35 -119.9 80.0 -110.25 L78.0 -102.25 72.5 -95.75 Q68.75 -90.5 49.5 -101.0 32.75 -97.5 24.75 -103.5 M64.0 -100.0 Q71.0 -103.75 66.0 -109.75 L62.5 -110.5 57.5 -108.5 Q55.25 -98.0 64.0 -100.0 M41.75 -104.0 Q48.0 -118.0 35.0 -113.25 31.5 -103.0 41.75 -104.0" fill="#ffffff" fill-rule="evenodd" stroke="none"/>
    <path d="M41.75 -104.0 Q31.5 -103.0 35.0 -113.25 48.0 -118.0 41.75 -104.0 M64.0 -100.0 Q55.25 -98.0 57.5 -108.5 L62.5 -110.5 66.0 -109.75 Q71.0 -103.75 64.0 -100.0" fill="#000000" fill-rule="evenodd" stroke="none"/>
    <path d="M24.75 -103.5 Q32.75 -97.5 49.5 -101.0 68.75 -90.5 72.5 -95.75 78.6 -90.15 80.1 -82.0 84.0 -60.95 72.25 -42.5 58.05 -24.6 35.1 -29.5 13.8 -34.25 6.75 -55.0 5.6 -65.15 5.75 -75.25 6.0 -95.25 24.75 -103.5 M-110.05 167.15 Q-112.0 159.95 -110.95 152.5 -108.95 138.05 -102.05 125.4 -94.35 111.3 -84.85 98.6 -74.8 107.35 -61.25 114.5 -35.05 140.2 -7.3 147.35 -7.35 169.85 -16.5 190.65 -17.6 193.2 -19.6 195.25 -21.0 196.75 -22.95 197.8 -30.45 201.6 -39.1 201.85 L-65.45 201.05 Q-81.95 198.15 -95.2 188.5 -106.5 180.35 -110.05 167.15 M11.1 181.1 Q7.6 165.55 7.0 149.8 38.55 152.5 72.0 132.0 85.6 130.9 99.05 121.5 L102.55 128.2 Q108.25 139.7 110.0 152.35 111.55 163.75 105.55 173.55 95.8 189.5 78.3 196.05 61.6 202.35 43.75 201.65 34.95 201.5 26.75 198.65 14.05 194.25 11.1 181.1" fill="#e58508" fill-rule="evenodd" stroke="none"/>
    <path d="M4.8 -60.2 L4.6 -65.65 Q7.7 -42.85 28.5 -33.45 50.7 -23.45 67.35 -39.75 77.35 -49.5 80.2 -63.45 81.4 -69.4 82.0 -75.5 87.15 -41.45 69.95 -13.05 64.3 -3.75 53.85 -1.4 28.2 4.7 15.95 -18.8 5.8 -38.2 4.8 -60.2 M111.75 -26.75 L139.0 36.75 140.0 37.25 128.9 42.7 110.75 -27.5 111.75 -26.75 M-38.25 -55.5 L-23.75 -78.25 Q-25.75 -69.35 -28.7 -60.6 -36.1 -38.95 -43.85 -17.35 L-48.75 -3.5 -65.0 -18.75 -41.75 -50.5 -39.25 -55.0 -38.25 -55.5 M163.35 54.8 L163.5 59.25 174.0 51.0 Q172.65 45.05 175.0 39.75 179.35 57.8 164.6 66.7 162.55 67.9 160.25 67.75 147.45 77.75 132.75 84.5 119.65 106.5 98.75 120.75 L104.25 132.75 100.5 133.25 Q77.9 158.55 45.65 168.7 35.0 171.95 24.0 172.75 L13.0 172.25 Q17.5 188.9 36.5 189.25 L36.75 196.25 Q65.1 199.05 90.1 185.7 99.6 180.6 105.9 172.0 107.7 169.5 108.65 166.6 L109.5 163.5 Q106.55 181.4 90.05 190.65 79.5 196.5 67.7 198.9 59.8 200.45 51.85 200.85 43.6 201.3 35.25 200.45 29.45 200.2 23.95 198.0 20.75 196.65 18.2 194.3 14.35 190.6 12.5 185.45 8.4 173.95 7.5 161.85 7.05 155.7 7.25 149.75 L-8.0 146.75 Q-3.0 177.4 -23.45 197.65 -28.8 203.0 -36.45 203.2 L-54.95 202.35 Q-64.25 201.6 -73.25 199.2 -83.45 196.25 -91.95 190.0 -97.2 186.2 -101.4 181.4 -107.6 174.3 -111.25 165.75 L-110.75 164.0 Q-98.55 187.5 -72.5 192.3 -64.4 193.95 -57.0 197.5 L-54.45 196.85 Q-78.3 168.0 -109.5 145.75 -102.05 119.4 -84.0 98.5 -114.1 73.0 -112.55 33.15 -111.8 13.95 -106.75 -4.5 -107.55 2.85 -100.25 4.0 L-97.0 4.5 -100.25 5.0 -102.35 11.65 Q-63.45 59.8 -9.4 91.05 L18.5 107.5 17.5 108.75 Q-27.1 85.2 -66.25 53.5 L-67.5 53.5 -73.5 73.75 Q-40.95 92.65 -27.25 130.0 14.75 140.55 55.7 122.75 69.3 116.9 81.0 108.05 84.85 105.1 88.25 101.5 L44.25 114.0 42.45 110.95 Q104.45 86.05 163.35 54.8 M-107.25 0.25 Q-109.3 21.6 -110.95 43.15 -111.8 53.95 -103.75 61.0 L-95.0 25.25 Q-99.95 18.6 -103.3 11.05 -105.5 6.1 -106.25 0.75 L-107.25 0.25 M-21.4 164.95 L-25.5 164.5 -15.25 176.25 Q-10.15 169.9 -16.85 166.35 -19.0 165.2 -21.4 164.95" fill="#000000" fill-opacity="0.49803922" fill-rule="evenodd" stroke="none"/>
  </g>
</svg>
