<?xml version="1.0" encoding="UTF-8" standalone="no"?>
<svg xmlns:ffdec="https://www.free-decompiler.com/flash" xmlns:xlink="http://www.w3.org/1999/xlink" ffdec:objectType="shape" height="291.7px" width="340.2px" xmlns="http://www.w3.org/2000/svg">
  <g transform="matrix(1.0, 0.0, 0.0, 1.0, 137.45, 88.25)">
    <path d="M42.0 -68.5 L40.75 -78.25 43.5 -85.75 Q56.65 -92.1 69.65 -82.4 L70.75 -81.5 73.0 -79.75 Q90.7 -79.2 98.75 -64.35 L99.0 -63.25 95.25 -56.0 88.5 -50.75 Q81.75 -44.75 64.75 -59.25 46.5 -58.75 42.0 -68.5 M57.5 -63.5 Q65.75 -75.0 51.75 -73.75 47.25 -64.0 57.5 -63.5 M79.0 -54.75 L83.5 -57.5 Q85.0 -61.5 82.5 -63.75 79.5 -65.75 76.0 -65.0 L73.25 -64.0 Q69.25 -55.25 79.0 -54.75" fill="#ffffff" fill-rule="evenodd" stroke="none"/>
    <path d="M79.0 -54.75 Q69.25 -55.25 73.25 -64.0 L76.0 -65.0 Q79.5 -65.75 82.5 -63.75 85.0 -61.5 83.5 -57.5 L79.0 -54.75 M57.5 -63.5 Q47.25 -64.0 51.75 -73.75 65.75 -75.0 57.5 -63.5" fill="#000000" fill-rule="evenodd" stroke="none"/>
    <path d="M88.5 -50.75 Q98.35 -39.6 93.5 -24.15 89.4 -11.1 80.25 -1.0 63.45 17.45 40.7 10.65 18.9 4.0 14.95 -17.95 L13.75 -23.75 Q14.25 -32.1 15.7 -40.5 19.65 -63.25 42.0 -68.5 46.5 -58.75 64.75 -59.25 81.75 -44.75 88.5 -50.75 M-79.2 91.35 L-75.25 95.75 Q-64.95 114.9 -50.3 130.95 -35.95 146.55 -16.1 153.5 L-7.65 156.15 Q-9.15 173.95 -16.5 190.65 -17.6 193.2 -19.6 195.25 -21.0 196.75 -22.95 197.8 -30.45 201.6 -39.1 201.85 L-65.45 201.05 Q-81.95 198.15 -95.2 188.5 -106.5 180.35 -110.05 167.15 -112.0 159.95 -110.95 152.5 -108.95 138.05 -102.05 125.4 -92.15 107.25 -79.2 91.35 M11.1 181.1 Q8.65 170.25 7.65 159.3 L25.7 160.3 Q46.9 159.9 66.25 151.25 87.85 151.25 106.25 139.5 L107.0 139.05 Q109.05 145.55 110.0 152.35 111.55 163.75 105.55 173.55 95.8 189.5 78.3 196.05 61.6 202.35 43.75 201.65 34.95 201.5 26.75 198.65 14.05 194.25 11.1 181.1" fill="#e58508" fill-rule="evenodd" stroke="none"/>
    <path d="M-113.65 -7.5 L-122.25 0.25 Q-131.0 -3.75 -132.75 -12.0 -121.1 -1.9 -113.65 -7.5 M-11.75 -64.5 L-11.75 -63.5 -40.25 -20.0 -40.25 -19.0 -54.5 4.5 Q-70.5 -3.65 -75.5 -19.35 L-75.45 -20.4 -75.0 -21.5 -80.0 -19.0 -84.25 -22.5 Q-58.0 -37.25 -31.95 -52.35 -21.75 -58.25 -11.75 -64.5 M-79.0 49.0 L-81.75 54.5 -83.0 59.0 -85.75 64.25 -86.5 67.5 -79.75 75.75 -78.75 76.0 -78.5 71.0 -74.0 84.75 Q-73.25 83.0 -62.5 81.0 L-35.5 94.75 -6.75 120.5 4.5 137.75 8.5 144.75 10.0 149.0 Q70.75 148.25 86.5 117.25 L60.5 112.5 25.75 104.5 12.5 100.25 11.5 99.0 28.25 103.0 61.25 107.75 129.75 115.0 150.75 116.5 181.75 116.0 185.25 119.5 191.5 114.0 200.0 110.25 Q201.95 109.65 202.5 105.9 L202.75 112.5 Q202.5 114.25 194.0 120.75 191.0 125.0 159.0 125.75 L127.75 123.0 115.25 134.5 107.75 138.75 Q106.5 139.75 109.75 147.5 L110.5 157.5 Q100.25 151.25 60.0 179.0 L35.5 182.25 22.5 185.0 Q23.25 187.0 36.5 189.25 L36.75 196.25 55.5 196.5 Q56.25 194.5 67.25 194.25 100.0 187.5 109.5 163.5 107.75 181.5 84.0 193.5 57.25 205.75 25.25 198.75 8.25 191.75 8.0 160.25 L-8.25 158.25 Q-11.5 210.0 -43.0 202.5 -94.5 200.5 -107.25 175.25 L-110.75 167.25 Q-111.75 165.75 -110.75 164.0 -106.75 187.5 -57.0 197.5 L-37.5 197.25 Q-42.75 187.25 -26.25 187.25 L-30.75 184.25 -39.0 180.5 -79.25 164.5 -103.75 152.5 -107.75 151.0 -111.0 151.5 Q-113.5 145.5 -93.75 111.25 L-89.75 111.75 -78.75 118.75 Q-78.5 108.75 -88.25 104.25 L-85.25 99.5 -78.75 92.0 Q-102.0 67.0 -102.5 32.75 -142.5 2.5 -136.75 -9.0 -125.0 16.75 -88.25 39.0 L-64.75 53.5 -24.75 75.0 6.25 90.0 21.0 95.0 Q22.0 95.5 25.0 92.0 25.5 94.75 21.75 98.25 L12.25 96.75 11.5 96.25 11.25 93.5 -24.5 78.0 -69.75 54.75 -78.25 49.0 -79.0 49.0 M137.55 66.5 L138.85 63.85 140.25 61.0 130.25 16.0 161.25 83.75 159.25 83.75 152.0 69.0 148.75 84.25 125.3 84.9 Q130.7 80.0 133.85 73.4 L135.0 71.25 137.55 66.5 M95.0 -31.5 Q88.5 51.0 56.75 56.5 14.75 55.5 14.5 -17.75 20.5 12.75 58.5 10.75 82.25 2.25 95.0 -31.5" fill="#000000" fill-opacity="0.49803922" fill-rule="evenodd" stroke="none"/>
  </g>
</svg>
