<?xml version="1.0" encoding="UTF-8" standalone="no"?>
<svg xmlns:ffdec="https://www.free-decompiler.com/flash" xmlns:xlink="http://www.w3.org/1999/xlink" ffdec:objectType="shape" height="282.2px" width="340.8px" xmlns="http://www.w3.org/2000/svg">
  <g transform="matrix(1.0, 0.0, 0.0, 1.0, 149.25, 77.35)">
    <path d="M36.0 -57.75 Q39.0 -68.5 47.5 -57.75 45.5 -47.0 36.0 -57.75 M59.25 -51.25 Q60.25 -55.25 68.25 -52.5 72.5 -45.0 65.5 -43.5 55.5 -44.25 59.25 -51.25" fill="#000000" fill-rule="evenodd" stroke="none"/>
    <path d="M28.75 -58.0 Q27.25 -59.0 27.5 -68.25 L30.0 -75.25 Q40.9 -80.3 52.3 -73.1 L56.75 -70.5 56.5 -70.0 Q57.75 -69.25 59.05 -69.25 77.0 -67.95 86.0 -52.75 L82.25 -45.25 76.0 -40.25 Q68.25 -33.75 51.25 -48.0 30.0 -48.75 28.75 -58.0 M59.25 -51.25 Q55.5 -44.25 65.5 -43.5 72.5 -45.0 68.25 -52.5 60.25 -55.25 59.25 -51.25 M36.0 -57.75 Q45.5 -47.0 47.5 -57.75 39.0 -68.5 36.0 -57.75" fill="#ffffff" fill-rule="evenodd" stroke="none"/>
    <path d="M76.0 -40.25 Q89.15 -25.2 79.0 -6.75 74.75 0.9 69.25 7.75 62.7 16.2 52.95 20.35 37.7 27.0 22.65 20.1 1.8 10.55 1.0 -12.75 4.0 -57.5 28.75 -58.0 30.0 -48.75 51.25 -48.0 68.25 -33.75 76.0 -40.25 M-80.95 93.55 L-80.75 93.75 -73.0 115.0 -50.25 140.25 -41.25 147.25 -17.25 160.5 -8.4 162.65 Q-10.5 177.0 -16.5 190.65 -17.6 193.2 -19.6 195.25 -21.0 196.75 -22.95 197.8 -30.45 201.6 -39.1 201.85 L-65.45 201.05 Q-81.95 198.15 -95.2 188.5 -106.5 180.35 -110.05 167.15 -112.0 159.95 -110.95 152.5 -108.95 138.05 -102.05 125.4 -92.85 108.5 -80.95 93.55 M11.1 181.1 Q9.3 173.05 8.25 164.95 26.35 166.25 45.75 162.75 L66.25 152.75 Q91.25 150.15 107.35 140.15 109.15 146.1 110.0 152.35 111.55 163.75 105.55 173.55 95.8 189.5 78.3 196.05 61.6 202.35 43.75 201.65 34.95 201.5 26.75 198.65 14.05 194.25 11.1 181.1" fill="#e58508" fill-rule="evenodd" stroke="none"/>
    <path d="M3.25 -3.0 L2.0 -3.25 Q2.0 -3.9 2.25 -4.35 L2.75 -4.5 3.25 -3.0 M171.25 125.75 L175.25 128.75 189.75 121.25 Q188.5 113.5 191.5 106.5 191.75 115.2 190.35 123.7 189.95 126.05 188.0 126.95 154.7 141.45 117.5 132.5 L107.5 139.75 Q112.15 150.05 110.25 161.0 L107.25 161.0 Q96.8 161.0 87.85 165.9 59.95 181.1 29.9 187.65 L36.5 189.25 36.75 196.25 Q52.0 197.85 66.7 194.15 L82.8 189.7 Q103.35 183.45 109.5 163.5 L108.85 166.95 Q102.4 185.65 83.3 194.0 61.2 203.6 37.25 201.1 L29.25 199.85 Q25.85 199.45 23.4 197.4 7.85 184.7 8.25 164.25 L-8.75 161.75 Q-8.9 168.9 -10.2 176.0 -12.45 188.15 -21.6 196.15 -33.35 206.4 -49.8 204.55 -75.2 202.25 -95.95 187.45 -102.2 183.0 -105.35 176.25 L-106.7 173.2 Q-93.3 194.0 -46.5 197.75 -58.7 183.85 -107.65 170.65 -115.75 147.95 -102.5 126.25 -86.2 130.75 -72.0 143.75 -74.6 121.35 -90.75 107.25 -89.0 102.9 -86.3 99.1 -83.25 94.85 -79.0 97.5 L-81.0 87.75 -82.5 84.5 -81.0 93.5 -85.25 89.25 -85.25 88.25 Q-99.05 71.8 -103.25 50.75 -113.1 42.35 -123.8 35.3 -143.0 22.55 -149.25 2.0 L-141.55 12.15 -143.5 8.0 -128.5 22.95 Q-121.05 30.35 -112.65 36.6 L-66.5 70.3 -58.2 75.95 -86.5 62.5 -88.25 68.25 -82.8 74.0 -82.25 72.0 -81.25 78.0 -62.25 115.5 -59.4 115.7 Q-36.2 124.4 -18.5 144.75 L-17.75 148.0 Q-9.85 149.15 -1.95 150.65 10.1 152.95 21.85 151.1 52.15 146.3 76.0 127.0 36.0 123.35 0.25 109.0 86.05 126.4 172.45 121.5 L171.25 125.75 M143.5 95.0 L114.5 95.25 131.0 72.25 120.75 22.0 125.5 35.25 152.75 94.25 150.5 94.75 146.25 85.25 143.5 95.0 M0.25 103.75 L-16.55 95.75 Q-2.05 100.4 13.25 102.5 L13.25 103.35 Q13.1 106.3 10.9 108.15 L10.0 109.0 0.5 107.5 0.25 103.75 M1.75 -2.25 Q40.25 56.5 82.75 -20.0 76.75 63.75 43.5 74.25 -0.75 72.25 1.75 -2.25 M-83.75 -13.5 L-94.0 -7.75 -98.25 -11.25 Q-59.3 -31.15 -23.0 -55.5 L-23.0 -54.5 -31.75 -40.5 -32.75 -40.0 -65.75 18.25 Q-84.95 5.1 -83.15 -12.9 L-83.75 -13.5 M-114.65 37.1 Q-128.35 26.05 -141.0 12.75 L-133.75 20.45 Q-118.65 34.85 -101.75 47.5 L-114.65 37.1 M-124.0 1.5 Q-130.0 7.75 -131.25 7.75 L-135.25 13.0 Q-144.5 8.0 -147.75 -3.5 -144.0 4.25 -134.5 5.5 L-124.0 1.5" fill="#000000" fill-opacity="0.49803922" fill-rule="evenodd" stroke="none"/>
  </g>
</svg>
