<?xml version="1.0" encoding="UTF-8" standalone="no"?>
<svg xmlns:ffdec="https://www.free-decompiler.com/flash" xmlns:xlink="http://www.w3.org/1999/xlink" ffdec:objectType="shape" height="268.3px" width="354.9px" xmlns="http://www.w3.org/2000/svg">
  <g transform="matrix(1.0, 0.0, 0.0, 1.0, 159.9, 65.5)">
    <path d="M10.5 -47.25 Q9.0 -48.0 8.0 -56.25 L9.75 -64.0 11.25 -65.5 Q24.85 -65.2 38.15 -62.65 L39.4 -61.8 41.45 -62.0 Q48.7 -60.45 55.9 -58.25 64.15 -55.75 68.5 -48.5 L65.25 -40.5 60.25 -35.25 Q53.0 -27.0 34.5 -39.25 12.0 -38.0 10.5 -47.25 M42.0 -44.25 Q40.25 -35.0 49.25 -36.25 57.25 -50.0 42.0 -44.25 M26.5 -42.25 Q34.0 -52.25 19.25 -51.5 17.0 -40.25 26.5 -42.25" fill="#ffffff" fill-rule="evenodd" stroke="none"/>
    <path d="M60.25 -35.25 Q79.25 -17.5 59.75 11.5 L59.0 13.25 Q47.65 33.25 25.35 33.2 14.2 33.2 4.6 27.15 -10.7 17.5 -11.5 -0.75 -14.5 -43.0 10.5 -47.25 12.0 -38.0 34.5 -39.25 53.0 -27.0 60.25 -35.25 M-86.25 102.75 L-82.0 106.25 Q-72.5 124.3 -57.4 138.15 -41.2 152.95 -20.45 160.6 -14.65 162.8 -8.6 164.05 -10.8 177.65 -16.5 190.65 -17.6 193.2 -19.6 195.25 -21.0 196.75 -22.95 197.8 -30.45 201.6 -39.1 201.85 L-65.45 201.05 Q-81.95 198.15 -95.2 188.5 -106.5 180.35 -110.05 167.15 -112.0 159.95 -110.95 152.5 -108.95 138.05 -102.05 125.4 -95.3 113.1 -87.2 101.75 L-87.0 102.0 -86.25 102.75 M75.25 145.25 L80.5 144.25 99.5 135.75 105.6 135.1 Q108.75 143.45 110.0 152.35 111.55 163.75 105.55 173.55 95.8 189.5 78.3 196.05 61.6 202.35 43.75 201.65 34.95 201.5 26.75 198.65 14.05 194.25 11.1 181.1 9.35 173.4 8.35 165.7 L13.6 165.45 Q25.95 165.15 37.85 162.2 58.0 157.2 75.25 145.25" fill="#e58508" fill-rule="evenodd" stroke="none"/>
    <path d="M42.0 -44.25 Q57.25 -50.0 49.25 -36.25 40.25 -35.0 42.0 -44.25 M26.5 -42.25 Q17.0 -40.25 19.25 -51.5 34.0 -52.25 26.5 -42.25" fill="#000000" fill-rule="evenodd" stroke="none"/>
    <path d="M-53.75 -14.25 L-53.5 -13.5 -67.25 16.25 -67.0 17.0 -68.0 18.0 -78.0 44.0 -104.25 22.75 -101.0 14.0 -108.75 19.75 -113.25 16.75 -110.25 14.25 Q-107.4 12.2 -104.4 10.3 -86.4 -1.4 -69.75 -15.35 -55.4 -27.45 -41.5 -40.0 L-51.75 -18.75 -51.5 -18.0 -53.75 -14.25 M-158.25 28.5 Q-152.75 36.5 -144.25 37.0 L-136.25 33.5 Q-143.5 40.25 -144.0 45.0 -150.0 39.75 -151.5 41.75 L-127.75 62.75 -85.25 88.5 -38.75 111.75 -8.25 125.25 -1.5 126.75 5.75 129.5 9.25 128.5 Q8.75 133.75 4.25 133.75 L3.25 130.0 -7.25 127.25 Q-23.95 121.45 -40.25 114.75 L-78.75 97.5 Q-82.75 108.75 -47.0 137.5 L-12.5 153.25 Q26.5 160.0 64.25 137.75 L21.75 138.25 Q6.0 138.0 4.75 136.0 L19.5 136.25 72.75 130.75 153.0 118.75 176.0 112.0 Q177.5 112.25 176.0 115.25 L179.75 118.0 186.5 113.0 Q191.25 110.0 194.0 110.0 191.5 101.0 193.25 100.0 L195.0 111.0 Q191.0 117.25 185.0 120.5 L181.75 122.25 Q180.0 123.5 176.25 122.5 L153.75 129.75 105.75 135.25 109.75 147.5 110.25 152.75 Q95.75 151.0 63.0 179.25 L61.25 180.5 41.75 185.25 33.55 188.15 Q38.1 186.95 36.75 196.25 L42.25 196.75 56.25 196.5 56.0 195.5 66.25 194.5 75.5 192.0 Q106.85 179.7 109.35 164.65 107.0 181.9 84.0 193.5 55.5 205.25 29.0 199.75 10.5 198.0 8.75 166.75 L-8.75 165.75 Q-11.25 206.25 -43.0 202.5 -79.25 205.0 -105.75 178.25 L-111.25 165.75 Q-113.75 158.25 -108.5 159.5 -52.25 187.25 -50.25 197.75 L-37.75 197.25 -37.25 189.75 Q-24.5 188.25 -20.75 183.75 L-28.5 179.75 -46.25 173.0 -69.5 154.25 Q-74.75 153.0 -88.5 122.75 L-93.75 118.25 -95.0 118.0 -100.5 123.5 -100.75 122.75 -100.0 122.5 -93.75 111.25 -86.75 102.0 -89.25 99.75 -99.75 86.0 -134.75 65.25 -153.5 47.5 -159.75 35.25 Q-160.25 33.5 -158.75 32.5 L-154.0 43.75 -152.25 45.5 -157.5 34.75 Q-159.75 29.75 -158.25 28.5 M110.5 16.25 L110.75 14.0 128.5 46.75 132.25 51.5 155.75 90.25 142.6 93.05 152.5 90.75 142.5 74.0 Q134.5 91.25 138.25 94.25 L85.75 106.75 84.75 106.75 84.75 105.25 94.75 99.75 113.25 83.0 123.75 68.0 116.25 35.75 110.5 16.25 M143.75 115.25 Q143.75 113.5 152.0 111.25 L178.5 106.0 154.0 113.5 143.75 115.25 M-11.5 2.0 Q3.25 39.75 32.75 31.25 62.25 19.0 69.5 -15.5 69.75 74.75 28.0 94.0 -16.25 88.25 -11.5 2.0" fill="#000000" fill-opacity="0.49803922" fill-rule="evenodd" stroke="none"/>
  </g>
</svg>
