<?xml version="1.0" encoding="UTF-8" standalone="no"?>
<svg xmlns:ffdec="https://www.free-decompiler.com/flash" xmlns:xlink="http://www.w3.org/1999/xlink" ffdec:objectType="shape" height="262.8px" width="350.7px" xmlns="http://www.w3.org/2000/svg">
  <g transform="matrix(1.0, 0.0, 0.0, 1.0, 167.3, 60.0)">
    <path d="M-25.75 -38.5 Q-33.0 -47.75 -30.5 -54.5 L-29.05 -55.85 Q-16.75 -61.9 -3.0 -58.5 4.1 -58.15 11.5 -59.5 23.0 -61.65 30.25 -54.25 L29.0 -45.25 Q26.5 -39.5 25.25 -39.25 16.0 -28.75 -0.25 -36.5 -17.0 -29.25 -25.75 -38.5 M12.5 -36.5 Q22.0 -42.25 14.25 -46.25 -1.5 -44.25 12.5 -36.5 M-11.0 -36.5 Q-0.5 -45.25 -15.0 -46.25 -23.0 -37.75 -11.0 -36.5" fill="#ffffff" fill-rule="evenodd" stroke="none"/>
    <path d="M12.5 -36.5 Q-1.5 -44.25 14.25 -46.25 22.0 -42.25 12.5 -36.5 M-11.0 -36.5 Q-23.0 -37.75 -15.0 -46.25 -0.5 -45.25 -11.0 -36.5" fill="#000000" fill-rule="evenodd" stroke="none"/>
    <path d="M-25.75 -38.5 Q-17.0 -29.25 -0.25 -36.5 16.0 -28.75 25.25 -39.25 46.15 -26.65 38.95 -2.15 L36.25 8.0 Q29.7 31.2 6.65 35.65 -17.0 39.95 -30.75 20.95 -34.15 16.2 -35.75 10.75 -48.75 -30.25 -25.75 -38.5 M11.1 181.1 Q9.35 173.45 8.35 165.7 L19.25 165.25 36.75 161.75 55.0 152.0 64.75 148.0 103.2 129.5 Q108.35 140.4 110.0 152.35 111.55 163.75 105.55 173.55 95.8 189.5 78.3 196.05 61.6 202.35 43.75 201.65 34.95 201.5 26.75 198.65 14.05 194.25 11.1 181.1 M-102.35 126.0 L-93.75 129.75 -70.75 138.0 Q-52.8 150.1 -33.4 159.6 -28.9 161.85 -23.65 162.75 L-8.75 164.9 Q-11.0 178.1 -16.5 190.65 -17.6 193.2 -19.6 195.25 -21.0 196.75 -22.95 197.8 -30.45 201.6 -39.1 201.85 L-65.45 201.05 Q-81.95 198.15 -95.2 188.5 -106.5 180.35 -110.05 167.15 -112.0 159.95 -110.95 152.5 -109.0 138.4 -102.35 126.0" fill="#e58508" fill-rule="evenodd" stroke="none"/>
    <path d="M82.75 -10.0 L95.25 5.75 103.0 13.75 139.0 55.25 146.5 62.0 150.25 61.0 141.0 66.75 Q145.5 61.25 129.75 50.0 L127.75 68.5 125.0 77.0 126.25 77.25 92.75 100.25 85.5 106.0 Q89.0 99.75 88.25 98.25 L85.25 90.75 92.0 86.25 96.75 81.75 108.0 69.0 101.5 45.25 94.25 22.75 82.0 -10.0 82.75 -10.0 M183.25 72.0 Q185.5 81.75 152.5 102.5 127.9 115.9 103.25 129.25 L105.25 134.5 103.0 134.75 Q97.25 140.0 92.5 141.25 L92.75 144.5 73.75 165.25 72.0 168.0 47.25 179.5 40.75 183.25 26.0 186.75 36.5 189.25 36.75 196.25 56.0 196.5 Q57.25 194.0 73.75 192.5 108.8 178.7 109.5 163.9 109.25 176.45 92.25 189.0 72.25 203.0 33.25 200.75 13.0 203.25 8.75 167.25 L5.75 167.5 -9.0 165.75 Q-11.0 206.25 -43.0 202.5 -79.0 202.75 -100.25 184.75 L-105.75 178.25 -109.75 169.75 -111.25 164.0 Q-101.0 188.25 -69.0 195.0 -58.0 195.5 -57.0 197.5 L-37.75 197.25 -37.25 189.75 Q-26.5 188.25 -23.75 185.75 L-26.75 184.25 -37.75 181.5 -69.25 166.25 Q-92.5 135.25 -105.75 134.75 L-102.25 126.0 -136.25 111.25 -158.75 94.75 -164.75 86.25 Q-169.25 84.0 -165.75 76.25 -163.25 74.5 -157.75 82.25 -150.0 75.75 -149.25 83.25 L-145.5 80.5 -149.0 88.25 -132.5 97.75 -123.25 105.25 Q-124.5 105.75 -131.5 102.0 L-148.0 89.75 Q-150.5 92.75 -155.0 90.75 L-140.75 100.5 -129.25 107.0 -106.5 117.75 -82.0 127.75 -23.75 149.5 -5.25 155.5 10.0 158.75 Q14.75 154.25 12.25 152.75 L27.0 149.5 16.25 159.75 19.5 164.5 36.25 157.75 60.5 145.25 151.0 93.0 167.75 80.0 169.5 79.0 Q169.0 80.25 173.0 81.5 L175.75 77.75 183.25 72.0 M3.25 103.25 Q-41.25 107.25 -40.25 -9.75 -36.25 33.25 0.5 36.0 35.75 36.0 39.75 -14.25 45.5 83.5 3.25 103.25 M-126.0 59.0 L-74.25 -15.25 -97.75 75.0 -126.0 59.0" fill="#000000" fill-opacity="0.49803922" fill-rule="evenodd" stroke="none"/>
  </g>
</svg>
