<?xml version="1.0" encoding="UTF-8" standalone="no"?>
<svg xmlns:ffdec="https://www.free-decompiler.com/flash" xmlns:xlink="http://www.w3.org/1999/xlink" ffdec:objectType="shape" height="276.2px" width="315.85px" xmlns="http://www.w3.org/2000/svg">
  <g transform="matrix(1.0, 0.0, 0.0, 1.0, 158.1, 73.35)">
    <path d="M-10.5 -55.0 Q12.75 -48.75 11.75 -16.75 L11.5 -10.0 Q9.85 14.4 -12.05 23.65 -22.4 27.95 -33.25 25.6 -48.35 22.1 -57.0 9.0 -61.5 2.35 -65.0 -4.55 -75.7 -25.45 -59.5 -41.75 -46.0 -36.0 -34.5 -46.5 -14.5 -44.25 -10.5 -55.0 M-110.05 167.15 Q-112.0 159.95 -110.95 152.5 -110.05 146.0 -108.15 139.9 L-74.5 149.75 -57.5 153.0 Q-24.55 164.15 -8.8 165.1 -11.0 178.15 -16.5 190.65 -17.6 193.2 -19.6 195.25 -21.0 196.75 -22.95 197.8 -30.45 201.6 -39.1 201.85 L-65.45 201.05 Q-81.95 198.15 -95.2 188.5 -106.5 180.35 -110.05 167.15 M28.0 164.75 L29.0 162.75 33.25 165.25 Q51.2 151.4 68.05 136.15 81.1 124.4 93.45 111.9 98.35 119.85 102.55 128.2 108.25 139.7 110.0 152.35 111.55 163.75 105.55 173.55 95.8 189.5 78.3 196.05 61.6 202.35 43.75 201.65 34.95 201.5 26.75 198.65 14.05 194.25 11.1 181.1 9.1 172.35 8.1 163.5 L21.25 164.55 28.0 164.75" fill="#e58508" fill-rule="evenodd" stroke="none"/>
    <path d="M-10.5 -55.0 Q-14.5 -44.25 -34.5 -46.5 -46.0 -36.0 -59.5 -41.75 -61.0 -41.75 -66.0 -48.25 L-68.25 -56.0 Q-60.2 -68.0 -43.75 -67.9 L-42.75 -67.75 -42.25 -67.5 Q-41.0 -67.65 -40.0 -68.2 -25.3 -76.8 -9.75 -71.0 L-8.5 -63.25 -10.5 -55.0 M-22.5 -60.25 Q-37.25 -54.5 -23.0 -49.75 -13.75 -58.0 -22.5 -60.25 M-46.75 -53.5 L-50.5 -53.25 Q-57.5 -45.25 -47.5 -43.75 -40.25 -44.25 -42.25 -52.0 L-46.75 -53.5" fill="#ffffff" fill-rule="evenodd" stroke="none"/>
    <path d="M-46.75 -53.5 L-42.25 -52.0 Q-40.25 -44.25 -47.5 -43.75 -57.5 -45.25 -50.5 -53.25 L-46.75 -53.5 M-22.5 -60.25 Q-13.75 -58.0 -23.0 -49.75 -37.25 -54.5 -22.5 -60.25" fill="#000000" fill-rule="evenodd" stroke="none"/>
    <path d="M151.8 41.95 Q142.8 57.6 131.8 71.75 114.55 93.9 93.25 112.0 L95.25 115.0 92.8 117.95 Q82.3 131.05 78.0 147.25 L68.65 154.5 Q45.9 171.75 19.5 183.0 L21.15 184.4 Q24.4 186.8 28.4 187.95 32.3 189.1 36.5 189.25 L36.75 196.25 Q56.0 196.65 75.0 192.25 83.75 190.2 91.15 185.15 103.5 176.85 110.0 163.5 107.2 176.65 96.8 185.45 89.2 192.0 80.0 195.4 53.85 205.3 27.45 197.9 18.75 195.55 14.0 187.55 7.4 176.55 7.85 163.7 L1.85 162.8 Q-3.55 162.7 -8.75 164.5 -8.2 173.0 -10.85 181.15 -14.5 192.65 -24.55 198.75 -29.05 201.4 -34.45 202.1 -59.55 205.2 -83.15 195.55 -93.3 191.4 -101.0 183.7 -109.25 175.45 -111.25 164.0 L-109.8 167.0 Q-104.45 177.1 -94.95 182.95 -68.75 198.9 -37.25 197.0 L-37.25 189.75 -34.5 189.85 Q-31.3 189.45 -28.3 188.25 -25.7 187.15 -23.5 185.5 L-33.25 181.75 Q-52.8 173.85 -71.55 163.9 -90.25 154.0 -111.0 151.0 L-108.25 140.0 Q-130.45 130.45 -151.1 117.8 -161.5 111.4 -156.5 101.0 L-155.9 103.05 Q-155.0 105.25 -152.9 106.65 -150.2 108.55 -146.95 109.25 -142.15 110.15 -137.5 108.5 L-143.75 111.75 -112.25 127.0 -116.1 126.35 Q-122.9 125.0 -129.4 122.95 L-95.5 136.9 Q-53.15 154.4 28.5 163.5 L30.65 160.1 30.25 162.25 33.25 164.25 55.7 143.45 Q77.15 123.5 96.65 101.55 123.3 71.45 145.75 37.75 L147.2 38.15 148.4 34.7 Q149.4 32.25 151.2 30.35 153.85 27.55 157.75 26.5 156.0 34.65 151.8 41.95 M109.5 20.75 L104.0 17.0 108.75 30.0 109.5 20.75 M113.5 36.25 L92.25 65.0 87.85 54.0 Q69.0 7.4 46.75 -37.5 L120.75 23.0 122.5 23.0 118.75 28.2 111.25 22.25 113.5 36.25 M17.0 149.0 L40.5 139.0 29.75 157.5 17.0 149.0 M-99.0 3.25 L-112.25 84.0 -123.75 80.0 -114.25 52.0 -114.5 51.0 -99.25 1.0 -99.0 3.25 M-69.0 -21.5 Q-54.75 21.5 -29.5 25.25 5.25 25.5 11.75 -7.5 16.25 76.0 -26.25 83.25 -60.25 84.75 -69.0 -21.5" fill="#000000" fill-opacity="0.49803922" fill-rule="evenodd" stroke="none"/>
  </g>
</svg>
