<?xml version="1.0" encoding="UTF-8" standalone="no"?>
<svg xmlns:ffdec="https://www.free-decompiler.com/flash" xmlns:xlink="http://www.w3.org/1999/xlink" ffdec:objectType="shape" height="139.8px" width="131.9px" xmlns="http://www.w3.org/2000/svg">
  <g transform="matrix(1.0, 0.0, 0.0, 1.0, 54.15, 26.25)">
    <path d="M57.5 -4.75 L53.0 -1.65 52.25 0.0 Q52.5 -4.4 48.6 -0.65 46.1 4.0 50.5 2.0 46.75 6.5 39.35 4.85 38.3 4.05 37.55 3.05 36.75 1.85 36.25 0.5 48.35 -6.5 58.0 -16.9 L59.35 -9.65 Q54.35 -6.5 57.5 -4.75" fill="#ffffff" fill-rule="evenodd" stroke="none"/>
    <path d="M57.5 -4.75 Q58.35 -4.75 59.0 -5.75 59.6 -6.75 59.6 -8.15 L64.0 -3.75 Q69.15 1.6 70.85 8.7 74.5 23.95 61.1 30.75 58.85 31.05 56.65 30.8 45.45 29.8 36.75 22.35 L33.0 19.25 Q33.2 11.05 39.35 4.85 46.75 6.5 50.5 2.0 L51.35 1.6 52.25 0.0 53.0 -1.65 57.5 -4.75 M40.1 78.55 L39.7 78.55 38.4 78.85 37.85 78.85 37.4 78.75 Q56.45 65.15 60.2 41.4 65.6 53.25 53.7 68.55 L53.55 68.85 49.1 73.7 46.0 76.1 41.1 78.4 40.55 78.4 40.1 78.55 M27.25 86.4 L27.25 86.55 Q27.0 97.25 16.1 104.85 -3.9 119.85 -19.3 109.0 -24.75 103.35 -28.5 93.7 L-27.4 88.75 Q-14.3 91.2 -1.9 86.6 12.75 91.4 26.55 85.05 L27.25 86.4" fill="#e58508" fill-rule="evenodd" stroke="none"/>
    <path d="M59.6 -8.15 Q59.6 -6.75 59.0 -5.75 58.35 -4.75 57.5 -4.75 54.35 -6.5 59.35 -9.65 L59.6 -8.15 M52.25 0.0 L51.35 1.6 50.5 2.0 Q46.1 4.0 48.6 -0.65 52.5 -4.4 52.25 0.0" fill="#000000" fill-rule="evenodd" stroke="none"/>
    <path d="M60.8 33.75 Q59.9 41.45 61.85 49.0 54.9 76.3 27.0 85.25 28.3 87.5 26.95 89.6 23.25 95.25 19.6 99.5 9.2 97.45 -1.0 99.9 L-2.75 100.35 -10.5 110.0 Q5.35 111.35 17.45 101.9 -6.2 126.75 -28.75 94.1 L-26.75 86.6 -27.65 86.5 -28.0 86.0 -29.9 86.0 -30.65 85.5 -26.9 81.0 Q-25.35 79.1 -23.15 78.25 -7.6 57.1 2.85 35.5 L-1.4 57.6 -0.75 57.6 Q23.0 43.35 33.1 19.6 L38.5 23.25 Q61.65 37.95 72.1 14.0 72.45 18.6 70.2 22.65 67.05 28.3 61.1 30.75 L60.8 33.75 M58.25 -26.0 L60.1 -26.25 62.75 -18.0 70.6 -18.65 Q73.6 -19.0 74.35 -21.5 L75.25 -18.75 Q75.8 -17.15 75.3 -15.45 L76.75 -15.0 77.75 -13.9 Q74.8 9.15 64.0 -8.9 L64.1 -3.8 59.85 -9.25 Q59.85 -11.4 59.1 -13.55 58.0 -16.55 59.75 -19.4 L56.75 -22.4 58.25 -26.0 M34.25 28.5 L26.6 47.7 26.25 48.0 16.0 66.85 16.1 67.35 14.75 69.75 10.2 74.9 9.55 75.7 Q9.35 76.1 9.45 76.7 L16.85 73.85 20.25 66.35 Q27.3 51.1 38.6 36.85 L35.6 29.1 35.5 28.35 34.85 28.0 34.25 28.5 M-43.15 68.85 Q-43.0 69.75 -45.75 70.6 L-47.9 75.85 Q-55.8 69.9 -53.75 40.4 -54.75 61.5 -43.15 68.85" fill="#000000" fill-opacity="0.49803922" fill-rule="evenodd" stroke="none"/>
  </g>
</svg>
