<?xml version="1.0" encoding="UTF-8" standalone="no"?>
<svg xmlns:ffdec="https://www.free-decompiler.com/flash" xmlns:xlink="http://www.w3.org/1999/xlink" ffdec:objectType="shape" height="173.3px" width="144.95px" xmlns="http://www.w3.org/2000/svg">
  <g transform="matrix(1.0, 0.0, 0.0, 1.0, 48.7, 7.0)">
    <path d="M88.8 24.5 L85.8 29.5 82.65 31.65 82.15 32.65 Q77.0 35.15 78.15 37.0 74.15 38.8 72.8 38.5 L67.5 37.5 66.5 36.5 66.65 34.8 67.95 34.5 Q81.15 31.95 89.0 20.15 L88.8 24.5" fill="#ffffff" fill-rule="evenodd" stroke="none"/>
    <path d="M88.8 24.5 L89.3 26.5 Q89.3 27.75 88.3 28.65 87.25 29.5 85.8 29.5 L88.8 24.5 M82.15 32.65 Q82.8 34.0 80.65 36.5 L78.15 37.0 Q77.0 35.15 82.15 32.65" fill="#000000" fill-rule="evenodd" stroke="none"/>
    <path d="M85.8 29.5 Q87.25 29.5 88.3 28.65 89.3 27.75 89.3 26.5 100.0 38.6 93.35 52.55 90.05 59.4 82.9 60.8 74.35 62.75 67.3 56.8 L58.5 49.5 58.3 48.3 60.6 45.65 61.35 44.75 62.15 43.8 67.5 37.5 72.8 38.5 Q74.15 38.8 78.15 37.0 L80.65 36.5 Q82.8 34.0 82.15 32.65 L82.65 31.65 85.8 29.5 M-29.1 92.1 Q-26.2 93.5 -22.85 94.65 L-25.5 100.3 Q-27.45 96.6 -29.1 92.1 M5.0 94.8 Q14.95 98.15 24.7 95.9 21.9 100.8 16.1 104.85 3.8 114.1 -6.75 113.55 -2.05 103.55 5.0 94.8" fill="#e58508" fill-rule="evenodd" stroke="none"/>
    <path d="M-9.3 121.85 L-9.4 122.5 Q-13.75 137.55 -19.1 152.45 -21.85 160.05 -27.2 166.3 L-29.35 165.65 -29.85 162.0 -27.55 163.45 -26.05 163.05 -9.3 121.85 M-14.85 78.3 L-21.2 94.0 Q-24.2 93.65 -25.2 100.0 -24.85 92.65 -39.35 85.8 L-44.2 79.15 Q-50.85 65.3 -47.7 48.5 -51.2 87.8 -14.85 78.3 M91.7 -6.6 L92.15 -7.0 Q95.65 -2.5 94.0 3.3 L87.15 8.0 Q88.95 15.25 82.0 21.3 70.85 23.75 66.65 34.5 80.2 33.3 88.5 20.5 90.4 23.75 88.65 27.0 L89.65 26.9 92.8 32.0 90.8 32.0 89.65 33.0 84.65 33.15 83.8 36.0 Q78.7 47.35 67.5 41.0 62.25 44.3 60.65 50.0 L62.15 51.7 62.95 52.55 63.85 53.15 Q84.45 65.05 96.25 46.3 88.4 69.55 67.3 56.8 55.7 86.05 26.15 94.15 13.6 112.0 -6.35 113.35 -7.75 110.8 -10.05 110.65 L-7.0 107.0 -5.0 106.5 Q15.2 83.7 26.5 56.0 L26.5 59.1 27.25 59.55 Q65.5 35.95 86.95 -1.6 L87.65 1.0 92.15 -3.2 91.7 -6.6" fill="#000000" fill-opacity="0.49803922" fill-rule="evenodd" stroke="none"/>
  </g>
</svg>
