<?xml version="1.0" encoding="UTF-8" standalone="no"?>
<svg xmlns:ffdec="https://www.free-decompiler.com/flash" xmlns:xlink="http://www.w3.org/1999/xlink" ffdec:objectType="shape" height="136.55px" width="162.65px" xmlns="http://www.w3.org/2000/svg">
  <g transform="matrix(1.0, 0.0, 0.0, 1.0, 38.45, 12.05)">
    <path d="M123.15 37.65 L121.3 40.0 121.3 40.15 120.75 40.55 Q121.3 42.6 116.9 47.0 L116.8 47.0 116.35 47.5 114.7 49.0 Q106.45 56.3 87.0 68.65 84.55 78.4 77.25 83.05 L77.15 83.1 76.7 82.8 Q75.15 81.55 75.15 79.15 75.3 77.7 75.75 76.45 L70.4 79.9 Q73.75 93.4 72.0 107.8 L76.0 111.95 Q80.9 116.85 81.5 123.65 L80.65 124.5 Q71.85 122.7 63.3 119.8 51.1 115.55 47.3 104.0 L48.8 102.3 45.65 93.6 Q33.3 99.1 23.0 98.65 L16.15 100.15 1.3 102.0 -0.85 101.8 -1.2 101.8 -2.2 101.65 -10.35 101.15 -15.5 99.5 -16.0 99.3 -16.2 99.3 -16.5 99.15 -16.7 99.0 -17.0 99.0 -17.2 98.8 -17.5 98.8 -17.7 98.65 -18.0 98.65 -18.2 98.5 -18.5 98.5 -18.7 98.3 -19.0 98.15 -19.2 98.3 -20.0 97.8 -22.2 96.8 -23.35 96.0 -24.0 95.65 -24.5 95.15 -29.0 92.0 Q-41.5 85.8 -37.5 48.0 -26.35 6.5 -4.0 -2.35 18.8 -16.5 73.3 -10.0 130.0 1.65 122.0 29.65 L124.15 33.3 Q124.5 35.65 123.0 37.3 L123.15 37.5 123.15 37.65" fill="#2e47aa" fill-rule="evenodd" stroke="none"/>
  </g>
</svg>
