<?xml version="1.0" encoding="UTF-8" standalone="no"?>
<svg xmlns:ffdec="https://www.free-decompiler.com/flash" xmlns:xlink="http://www.w3.org/1999/xlink" ffdec:objectType="shape" height="165.8px" width="178.1px" xmlns="http://www.w3.org/2000/svg">
  <g transform="matrix(1.0, 0.0, 0.0, 1.0, 116.4, 88.55)">
    <path d="M12.1 -73.1 L20.55 -65.45 Q39.15 -47.3 51.0 -22.6 61.35 -0.95 61.7 22.5 61.85 33.15 61.05 43.6 60.4 51.8 59.2 59.9 58.15 67.0 56.6 74.0 53.85 72.75 53.25 69.2 L53.15 68.5 50.85 45.25 40.6 54.6 Q7.65 92.5 -32.65 67.0 L-34.85 66.65 Q-38.25 66.0 -41.55 64.75 -52.15 60.8 -58.0 51.05 -66.1 37.65 -67.7 23.05 -69.35 8.35 -64.4 -7.5 -70.7 -4.5 -77.75 -3.15 L-91.25 -2.4 Q-92.65 -0.35 -94.75 0.95 -96.9 2.25 -99.05 1.4 -117.0 -5.35 -116.4 -26.4 -110.2 -30.15 -103.05 -31.25 -97.35 -31.85 -91.75 -31.25 -72.15 -44.55 -48.5 -45.0 -37.15 -71.0 -14.25 -87.65 -11.8 -89.35 -9.2 -87.9 L-4.75 -85.2 Q4.2 -79.65 12.1 -73.1" fill="#2e47aa" fill-rule="evenodd" stroke="none"/>
  </g>
</svg>
