<?xml version="1.0" encoding="UTF-8" standalone="no"?>
<svg xmlns:ffdec="https://www.free-decompiler.com/flash" xmlns:xlink="http://www.w3.org/1999/xlink" ffdec:objectType="shape" height="92.85px" width="83.4px" xmlns="http://www.w3.org/2000/svg">
  <g transform="matrix(1.0, 0.0, 0.0, 1.0, 37.2, 16.35)">
    <path d="M19.65 -16.35 Q27.25 0.05 38.55 14.45 L40.85 17.6 41.45 18.6 Q44.85 24.1 46.1 29.9 L46.2 30.4 45.2 46.95 45.0 47.5 Q36.35 63.9 22.95 71.05 L18.2 73.25 Q4.55 78.5 -13.35 75.3 -19.75 74.1 -25.35 70.5 L-33.35 65.65 -37.2 58.0 Q-36.0 55.15 -35.75 53.3 L-35.75 53.25 -35.7 52.95 -35.7 52.15 -35.8 51.45 -35.8 51.4 -35.85 51.3 -32.0 46.3 -31.85 45.0 -28.35 38.0 -25.35 28.5 -23.7 25.0 -19.85 10.3 -18.5 1.3 -14.2 -14.0 Q-7.5 -4.75 3.9 -5.2 16.2 -5.45 19.65 -16.35" fill="#ffffff" fill-rule="evenodd" stroke="none"/>
  </g>
</svg>
