<?xml version="1.0" encoding="UTF-8" standalone="no"?>
<svg xmlns:ffdec="https://www.free-decompiler.com/flash" xmlns:xlink="http://www.w3.org/1999/xlink" ffdec:objectType="shape" height="90.8px" width="79.85px" xmlns="http://www.w3.org/2000/svg">
  <g transform="matrix(1.0, 0.0, 0.0, 1.0, 29.4, 14.4)">
    <path d="M23.3 -8.7 Q26.55 -10.65 27.35 -14.4 29.6 -9.45 32.15 -4.7 35.55 1.65 40.5 6.6 51.55 17.5 50.35 31.9 L49.95 34.8 Q48.3 44.15 43.5 52.15 39.0 59.6 32.15 64.75 27.4 68.25 22.55 70.7 L17.85 72.85 Q1.2 79.4 -16.65 73.85 L-25.9 70.25 -29.4 62.75 Q-28.65 61.0 -28.25 59.2 -27.9 57.8 -27.9 56.35 L-26.7 54.9 -26.2 54.25 -24.5 51.75 Q-22.05 47.9 -20.5 43.5 L-19.75 41.2 Q-15.6 27.0 -12.1 12.6 -8.95 -0.2 -6.4 -13.15 6.85 0.95 23.3 -8.7" fill="#ffffff" fill-rule="evenodd" stroke="none"/>
  </g>
</svg>
