<?xml version="1.0" encoding="UTF-8" standalone="no"?>
<svg xmlns:ffdec="https://www.free-decompiler.com/flash" xmlns:xlink="http://www.w3.org/1999/xlink" ffdec:objectType="shape" height="79.7px" width="57.25px" xmlns="http://www.w3.org/2000/svg">
  <g transform="matrix(1.0, 0.0, 0.0, 1.0, 4.15, -1.0)">
    <path d="M14.0 31.25 L17.3 32.5 Q34.55 39.0 53.0 40.1 48.3 64.6 28.0 74.6 L21.5 77.25 Q17.45 78.6 12.95 79.55 6.55 80.85 -0.15 80.7 L-3.15 79.85 -4.15 75.7 Q0.3 68.0 3.95 59.95 L5.75 55.9 Q10.75 43.9 14.0 31.25 M46.55 1.8 L47.7 1.0 Q48.55 3.55 50.4 4.85 L51.4 7.7 53.1 16.4 48.85 16.4 Q47.9 15.2 46.7 14.45 L27.25 2.4 Q37.4 6.95 46.55 1.8" fill="#ffffff" fill-rule="evenodd" stroke="none"/>
  </g>
</svg>
