<?xml version="1.0" encoding="UTF-8" standalone="no"?>
<svg xmlns:ffdec="https://www.free-decompiler.com/flash" xmlns:xlink="http://www.w3.org/1999/xlink" ffdec:objectType="shape" height="77.0px" width="59.35px" xmlns="http://www.w3.org/2000/svg">
  <g transform="matrix(1.0, 0.0, 0.0, 1.0, 2.25, -6.0)">
    <path d="M8.2 61.4 L9.3 59.35 10.1 57.75 13.8 61.85 Q21.5 71.4 32.6 76.0 L31.5 76.7 29.45 77.5 22.65 78.85 -1.15 83.0 -1.85 82.1 -2.25 78.0 -0.85 76.05 -0.6 75.65 Q3.75 69.35 7.45 62.8 L7.75 62.25 8.2 61.4 M50.5 10.6 Q52.1 10.15 53.35 9.1 L53.85 10.35 57.1 29.75 56.4 35.65 Q53.55 55.05 46.85 60.6 L43.25 59.0 Q35.4 40.25 21.15 24.6 L20.6 23.75 24.85 6.0 Q37.05 14.8 50.5 10.6" fill="#ffffff" fill-rule="evenodd" stroke="none"/>
  </g>
</svg>
