<?xml version="1.0" encoding="UTF-8" standalone="no"?>
<svg xmlns:ffdec="https://www.free-decompiler.com/flash" xmlns:xlink="http://www.w3.org/1999/xlink" ffdec:objectType="shape" height="76.85px" width="62.25px" xmlns="http://www.w3.org/2000/svg">
  <g transform="matrix(1.0, 0.0, 0.0, 1.0, 5.0, -7.25)">
    <path d="M52.6 10.1 L53.35 10.6 54.25 13.0 Q58.95 22.5 56.3 35.55 53.25 50.4 40.75 69.85 36.6 74.0 31.95 77.0 28.2 79.35 24.15 81.0 18.4 83.3 12.0 84.1 L-3.4 83.0 -4.4 82.25 -5.0 78.5 Q0.65 69.95 5.25 61.0 L6.7 58.2 7.15 57.25 Q10.65 49.95 13.5 42.4 L19.05 24.8 19.55 22.95 19.95 21.25 22.45 9.25 22.75 7.25 Q32.3 14.45 43.95 14.3 49.0 13.65 52.6 10.1" fill="#ffffff" fill-rule="evenodd" stroke="none"/>
  </g>
</svg>
