<?xml version="1.0" encoding="UTF-8" standalone="no"?>
<svg xmlns:ffdec="https://www.free-decompiler.com/flash" xmlns:xlink="http://www.w3.org/1999/xlink" ffdec:objectType="shape" height="81.0px" width="64.05px" xmlns="http://www.w3.org/2000/svg">
  <g transform="matrix(1.0, 0.0, 0.0, 1.0, 9.3, -1.1)">
    <path d="M46.0 2.55 Q48.7 8.25 50.85 9.25 L52.4 13.1 Q55.55 24.0 54.45 34.25 52.75 49.8 41.3 63.9 35.6 70.9 29.0 75.25 25.85 77.25 22.55 78.7 10.25 84.0 -4.75 81.0 -8.75 81.55 -9.3 75.55 -3.75 66.6 0.55 57.3 L2.55 52.8 11.7 24.05 12.15 22.05 12.1 22.05 12.6 19.55 15.0 1.6 15.0 1.1 Q20.85 5.3 27.9 7.3 39.0 10.6 46.0 2.55" fill="#ffffff" fill-rule="evenodd" stroke="none"/>
  </g>
</svg>
