<?xml version="1.0" encoding="UTF-8" standalone="no"?>
<svg xmlns:ffdec="https://www.free-decompiler.com/flash" xmlns:xlink="http://www.w3.org/1999/xlink" ffdec:objectType="shape" height="81.85px" width="61.4px" xmlns="http://www.w3.org/2000/svg">
  <g transform="matrix(1.0, 0.0, 0.0, 1.0, 9.9, 1.75)">
    <path d="M14.35 -0.35 Q29.6 10.3 43.25 -0.9 L49.05 7.75 51.25 12.1 Q52.0 22.5 50.35 31.9 46.2 54.55 27.75 71.2 L25.5 72.95 Q23.05 74.55 20.1 75.5 L19.65 75.65 Q7.8 78.9 -4.45 80.1 L-7.6 79.7 -9.9 74.1 -8.7 71.3 Q-5.0 63.5 -1.9 55.5 L0.05 50.25 Q5.1 36.25 8.3 21.75 10.85 10.15 12.25 -1.75 L14.35 -0.35" fill="#ffffff" fill-rule="evenodd" stroke="none"/>
  </g>
</svg>
