<?xml version="1.0" encoding="UTF-8" standalone="no"?>
<svg xmlns:ffdec="https://www.free-decompiler.com/flash" xmlns:xlink="http://www.w3.org/1999/xlink" ffdec:objectType="shape" height="147.3px" width="162.9px" xmlns="http://www.w3.org/2000/svg">
  <g transform="matrix(1.0, 0.0, 0.0, 1.0, 39.9, -26.5)">
    <path d="M119.8 47.15 L120.15 49.0 118.8 50.8 117.0 51.5 118.8 49.5 119.8 47.15 M109.8 59.5 L114.0 56.0 Q114.3 59.5 109.8 59.5" fill="#000000" fill-rule="evenodd" stroke="none"/>
    <path d="M99.0 59.15 L98.8 58.65 100.15 57.65 Q109.0 59.95 115.0 53.15 L114.0 56.0 109.8 59.5 107.15 60.3 99.0 59.15 M115.5 52.3 L116.65 48.65 120.0 46.3 119.8 47.15 118.8 49.5 117.0 51.5 115.5 52.3" fill="#ffffff" fill-rule="evenodd" stroke="none"/>
    <path d="M118.8 50.8 Q121.85 56.5 121.55 62.75 121.3 68.5 117.25 72.2 102.8 85.6 89.0 70.5 L86.5 68.3 99.0 59.15 107.15 60.3 109.8 59.5 Q114.3 59.5 114.0 56.0 L115.0 53.15 115.5 52.3 117.0 51.5 118.8 50.8 M21.3 100.45 Q19.1 102.75 16.1 104.85 -3.9 119.85 -19.3 109.0 -25.65 102.4 -29.65 90.45 L-27.3 92.45 Q-19.3 98.75 -8.8 100.1 5.05 102.05 19.0 100.3 L21.3 100.45" fill="#e58508" fill-rule="evenodd" stroke="none"/>
    <path d="M27.6 123.85 Q31.45 136.4 40.3 144.65 L41.8 148.15 Q42.85 150.05 44.85 149.6 50.05 148.75 49.2 142.5 52.7 159.15 47.15 173.8 31.9 151.15 27.3 123.5 L27.6 123.85 M29.15 107.3 L29.8 107.65 30.0 109.65 29.5 117.0 Q27.8 116.0 29.15 107.3 M47.8 119.3 L48.1 119.2 Q47.65 122.95 47.5 127.0 L48.15 129.65 47.3 129.5 46.8 130.0 45.5 130.05 Q40.9 130.05 37.0 127.7 38.5 128.6 40.3 128.8 42.1 129.05 44.1 128.2 L47.8 119.3 M35.5 83.0 Q33.15 85.85 31.7 89.25 29.2 94.9 30.0 101.0 L21.3 100.5 Q17.1 104.75 11.7 106.2 -33.7 119.35 -39.9 66.0 -39.3 69.4 -37.15 72.15 -10.6 106.35 35.5 83.0 M113.0 55.3 L115.15 53.0 Q103.8 54.0 104.65 58.3 110.15 57.5 113.0 55.3 M122.55 39.3 L123.0 41.15 122.85 41.95 Q122.55 43.45 121.6 44.6 L120.6 45.65 120.0 46.15 119.8 49.8 118.8 50.65 Q123.3 58.75 120.2 66.3 L120.15 66.15 118.5 66.0 Q115.65 71.3 113.5 70.65 112.0 71.3 105.65 69.0 L101.65 71.5 Q97.0 78.15 106.8 75.65 114.8 72.85 118.05 70.25 106.0 87.6 89.0 70.65 68.6 77.0 58.2 91.55 59.75 82.4 59.3 73.0 99.0 58.5 123.0 26.5 L122.85 29.55 Q122.6 33.0 120.65 35.8 L122.55 39.3" fill="#000000" fill-opacity="0.49803922" fill-rule="evenodd" stroke="none"/>
  </g>
</svg>
