<?xml version="1.0" encoding="UTF-8" standalone="no"?>
<svg xmlns:ffdec="https://www.free-decompiler.com/flash" xmlns:xlink="http://www.w3.org/1999/xlink" ffdec:objectType="shape" height="73.4px" width="153.5px" xmlns="http://www.w3.org/2000/svg">
  <g transform="matrix(1.0, 0.0, 0.0, 1.0, 29.85, -40.15)">
    <path d="M117.3 46.0 L118.3 42.15 121.3 40.15 121.3 40.65 120.25 42.95 118.5 45.15 117.3 46.0 M101.15 53.5 L102.0 52.15 Q110.85 53.45 116.8 47.0 L116.0 49.3 112.0 53.3 107.3 54.65 Q102.3 54.5 101.15 53.5" fill="#ffffff" fill-rule="evenodd" stroke="none"/>
    <path d="M121.3 40.65 L121.5 43.15 120.15 44.65 118.5 45.15 120.25 42.95 121.3 40.65 M116.0 49.3 L116.0 50.0 Q116.65 53.0 112.0 53.3 L116.0 49.3" fill="#000000" fill-rule="evenodd" stroke="none"/>
    <path d="M120.15 44.65 Q125.25 52.55 122.95 61.4 121.2 68.25 114.65 71.2 101.45 77.1 91.3 65.5 L88.8 63.3 101.15 53.5 Q102.3 54.5 107.3 54.65 L112.0 53.3 Q116.65 53.0 116.0 50.0 L116.0 49.3 116.8 47.0 117.3 46.0 118.5 45.15 120.15 44.65 M21.5 99.0 L22.55 99.05 Q20.0 102.15 16.1 104.85 -3.9 119.85 -19.3 109.0 -25.8 102.25 -29.85 89.9 -28.05 92.05 -25.55 93.65 -3.8 107.4 21.5 99.0" fill="#e58508" fill-rule="evenodd" stroke="none"/>
  </g>
</svg>
