<?xml version="1.0" encoding="UTF-8" standalone="no"?>
<svg xmlns:ffdec="https://www.free-decompiler.com/flash" xmlns:xlink="http://www.w3.org/1999/xlink" ffdec:objectType="shape" height="99.8px" width="163.3px" xmlns="http://www.w3.org/2000/svg">
  <g transform="matrix(1.0, 0.0, 0.0, 1.0, 39.0, -24.5)">
    <path d="M113.65 46.3 Q111.3 47.45 109.2 48.95 107.5 50.2 106.0 51.8 L106.15 52.3 Q110.8 52.1 114.5 49.1 L117.25 46.4 113.65 46.3 M122.2 26.45 Q120.7 31.3 124.3 34.15 123.55 40.0 120.15 44.5 124.75 52.15 122.6 59.15 L121.8 58.5 120.5 58.5 120.2 59.45 Q116.5 66.55 108.35 62.8 L107.65 62.5 Q103.25 64.65 100.5 68.75 114.8 72.3 121.95 60.8 120.9 63.1 119.1 65.35 106.85 80.65 91.3 65.5 83.05 72.8 78.0 83.15 L76.0 82.65 74.65 76.3 74.15 76.15 70.8 78.0 70.75 77.2 Q70.6 75.3 69.25 73.9 65.85 70.4 60.8 70.15 96.65 53.35 122.7 24.5 L122.2 26.45 M52.5 74.65 Q43.85 92.15 63.05 102.1 L65.8 103.5 Q70.5 98.7 71.6 92.25 L72.0 107.5 74.8 110.3 72.8 111.3 72.5 112.0 72.8 112.5 72.3 112.8 Q81.1 114.85 81.65 123.5 L81.0 124.3 Q59.6 123.2 47.65 106.5 49.35 108.3 51.3 109.7 52.75 110.75 54.3 110.9 L55.15 110.5 Q52.9 106.7 48.8 105.95 L47.5 106.15 47.25 105.2 Q47.15 104.3 47.55 103.55 48.15 102.55 49.0 101.65 L45.65 93.5 22.3 99.0 Q7.3 116.9 -14.85 112.15 -36.15 92.25 -39.0 64.3 -20.7 109.45 32.45 84.0 42.4 79.2 52.5 74.65" fill="#000000" fill-opacity="0.49803922" fill-rule="evenodd" stroke="none"/>
    <path d="M73.4 97.95 Q76.35 97.75 79.3 98.8 84.75 100.95 86.9 106.6 88.2 110.0 87.4 113.75 86.8 116.55 85.45 119.05 84.5 120.85 82.7 121.8 81.15 116.95 78.1 112.75 75.8 109.45 72.0 107.8 L73.4 97.95" fill="#ffffff" fill-rule="evenodd" stroke="none"/>
    <path d="M82.7 121.8 Q84.5 120.85 85.45 119.05 86.8 116.55 87.4 113.75 88.2 110.0 86.9 106.6 84.75 100.95 79.3 98.8 76.35 97.75 73.4 97.95" fill="none" stroke="#333333" stroke-linecap="round" stroke-linejoin="round" stroke-width="4.0"/>
  </g>
</svg>
