<?xml version="1.0" encoding="UTF-8" standalone="no"?>
<svg xmlns:ffdec="https://www.free-decompiler.com/flash" xmlns:xlink="http://www.w3.org/1999/xlink" ffdec:objectType="shape" height="43.75px" width="32.15px" xmlns="http://www.w3.org/2000/svg">
  <g transform="matrix(1.0, 0.0, 0.0, 1.0, 15.05, 21.85)">
    <path d="M-7.85 13.3 L-11.85 10.75 Q-9.6 2.75 -15.05 -9.1 L0.95 -19.85 Q4.85 -18.5 8.1 -15.55 10.9 9.1 -7.85 13.3" fill="#ffffff" fill-rule="evenodd" stroke="none"/>
    <path d="M8.1 -15.55 L8.95 -14.75 Q15.1 -8.6 15.1 0.1 15.1 8.75 8.95 14.95 5.45 18.4 1.2 19.9 1.05 15.3 -7.85 13.3 10.9 9.1 8.1 -15.55" fill="#cccccc" fill-rule="evenodd" stroke="none"/>
    <path d="M8.1 -15.55 L8.95 -14.75 Q15.1 -8.6 15.1 0.1 15.1 8.75 8.95 14.95 5.45 18.4 1.2 19.9 M0.95 -19.85 Q4.85 -18.5 8.1 -15.55" fill="none" stroke="#333333" stroke-linecap="round" stroke-linejoin="round" stroke-width="4.0"/>
  </g>
</svg>
