<?xml version="1.0" encoding="UTF-8" standalone="no"?>
<svg xmlns:ffdec="https://www.free-decompiler.com/flash" xmlns:xlink="http://www.w3.org/1999/xlink" ffdec:objectType="shape" height="90.2px" width="163.3px" xmlns="http://www.w3.org/2000/svg">
  <g transform="matrix(1.0, 0.0, 0.0, 1.0, 39.0, -19.8)">
    <path d="M123.95 33.85 L124.3 34.15 Q123.55 40.0 120.15 44.5 121.6 52.7 121.3 58.5 120.25 59.25 119.9 59.95 117.5 65.0 111.9 63.85 L107.65 62.5 Q103.35 64.8 100.5 68.75 113.5 72.15 120.85 62.35 117.6 79.3 93.15 67.0 86.9 83.9 77.0 98.65 L76.5 98.8 Q75.6 98.8 75.2 98.05 74.45 96.5 74.3 94.65 L74.0 99.0 Q77.2 100.4 79.0 103.3 L79.15 105.0 78.0 106.65 Q53.55 116.85 47.3 92.65 L22.3 99.0 Q-29.7 132.5 -39.0 64.15 -28.5 104.1 18.3 89.75 82.25 70.15 124.15 19.8 120.05 27.4 123.95 33.85 M70.05 81.8 Q44.7 72.2 68.15 86.3 73.75 83.1 70.05 81.8 M113.65 46.3 Q111.3 47.45 109.2 48.95 107.5 50.2 106.0 51.8 L106.15 52.3 Q110.8 52.1 114.5 49.1 L117.25 46.4 113.65 46.3" fill="#000000" fill-opacity="0.49803922" fill-rule="evenodd" stroke="none"/>
  </g>
</svg>
