<?xml version="1.0" encoding="UTF-8" standalone="no"?>
<svg xmlns:ffdec="https://www.free-decompiler.com/flash" xmlns:xlink="http://www.w3.org/1999/xlink" ffdec:objectType="shape" height="121.45px" width="152.1px" xmlns="http://www.w3.org/2000/svg">
  <g transform="matrix(1.0, 0.0, 0.0, 1.0, 45.0, -5.1)">
    <path d="M101.85 34.0 L100.7 35.25 98.85 35.7 101.85 31.0 102.25 33.1 101.85 34.0 M95.4 39.1 Q95.7 43.55 91.4 43.25 L95.4 39.1" fill="#000000" fill-rule="evenodd" stroke="none"/>
    <path d="M98.85 35.7 L100.7 35.25 101.85 34.0 Q114.85 54.95 94.15 65.35 91.35 66.8 88.0 66.4 85.4 65.4 83.3 63.8 79.9 61.25 76.0 59.85 L70.1 54.55 80.55 43.55 80.7 43.55 Q86.4 46.0 91.4 43.25 95.7 43.55 95.4 39.1 L96.1 37.55 98.85 35.7 M24.2 96.6 L24.3 96.6 Q21.5 101.1 16.1 104.85 -3.9 119.85 -19.3 109.0 L-23.6 103.85 -27.45 96.4 -28.3 93.85 Q-24.1 96.15 -18.7 97.1 -5.45 99.65 7.55 96.1 L24.2 96.6" fill="#e58508" fill-rule="evenodd" stroke="none"/>
    <path d="M101.85 31.0 L98.85 35.7 96.1 37.55 95.4 39.1 91.4 43.25 Q86.4 46.0 80.7 43.55 L80.55 43.55 80.0 42.55 80.7 41.25 Q94.2 39.7 102.1 27.7 L101.85 31.0" fill="#ffffff" fill-rule="evenodd" stroke="none"/>
    <path d="M103.9 22.7 L97.4 30.85 Q85.7 30.4 81.55 41.1 85.15 41.3 88.5 39.8 96.9 36.25 101.55 28.1 100.95 35.55 105.7 41.55 103.05 39.35 99.1 40.25 L98.85 41.75 Q96.55 50.45 87.4 50.55 L82.4 48.8 Q76.0 51.2 74.7 57.55 90.1 68.9 105.0 56.0 L104.7 54.55 Q106.1 52.85 106.35 50.75 L106.7 47.7 107.1 47.55 106.95 54.0 Q106.95 55.95 105.7 57.5 98.8 66.2 88.0 66.7 82.8 83.25 73.55 98.85 L72.7 99.25 Q71.75 98.65 71.35 97.4 66.75 83.25 67.1 68.25 L53.85 82.1 53.25 82.1 Q53.5 77.75 53.15 73.25 52.35 63.45 43.7 60.55 55.45 53.2 66.95 45.4 90.0 29.85 100.55 5.1 L100.75 5.6 Q101.65 11.35 100.0 17.0 L101.4 18.25 Q102.75 19.45 103.5 20.95 104.0 21.9 103.9 22.7 M36.5 97.2 L38.85 100.4 Q42.95 101.95 45.65 105.3 L47.4 107.55 47.7 105.85 51.25 106.1 Q50.8 102.05 53.25 99.4 L53.55 87.55 54.85 103.25 55.55 103.85 Q55.75 105.45 55.1 107.05 L54.8 107.5 54.4 107.85 54.25 110.7 Q63.65 114.75 72.2 120.8 75.0 122.75 76.85 125.25 L76.0 126.55 Q49.55 123.5 31.4 105.1 L31.7 104.25 Q33.45 106.4 36.15 107.15 L38.35 107.8 39.55 107.85 Q38.1 104.95 34.95 103.85 L32.8 103.6 31.55 103.7 31.4 102.9 32.7 101.0 30.85 95.25 Q-7.25 130.85 -34.5 91.7 -47.45 73.15 -44.45 51.1 -40.05 100.95 13.0 77.4 21.4 73.75 29.4 69.1 26.65 84.0 36.5 97.2" fill="#000000" fill-opacity="0.49803922" fill-rule="evenodd" stroke="none"/>
  </g>
</svg>
