<?xml version="1.0" encoding="UTF-8" standalone="no"?>
<svg xmlns:ffdec="https://www.free-decompiler.com/flash" xmlns:xlink="http://www.w3.org/1999/xlink" ffdec:objectType="shape" height="163.4px" width="142.8px" xmlns="http://www.w3.org/2000/svg">
  <g transform="matrix(1.0, 0.0, 0.0, 1.0, 80.9, 49.85)">
    <path d="M-18.0 -34.75 Q-19.4 -35.65 -21.25 -38.75 L-21.75 -42.5 -20.1 -43.85 Q-6.25 -53.85 7.5 -47.15 L7.75 -43.0 Q6.85 -39.25 6.25 -39.0 3.0 -34.4 -5.5 -36.65 -15.0 -31.65 -18.0 -34.75 M-13.5 -40.75 Q-16.65 -36.15 -10.9 -36.15 -5.65 -41.65 -13.5 -40.75 M-2.75 -40.9 L-2.25 -39.15 -1.4 -38.0 Q5.35 -38.55 1.05 -42.35 L-0.15 -43.15 -2.75 -40.9" fill="#ffffff" fill-rule="evenodd" stroke="none"/>
    <path d="M6.25 -39.0 Q18.1 -34.0 14.85 -13.75 13.45 -5.55 5.85 -2.3 -9.7 4.35 -19.65 -9.5 L-20.85 -11.8 Q-29.0 -24.0 -18.0 -34.75 -15.0 -31.65 -5.5 -36.65 3.0 -34.4 6.25 -39.0 M-34.7 68.1 L-31.65 68.75 Q-5.85 84.15 18.4 73.5 24.05 79.95 27.25 86.4 L27.25 86.55 Q27.0 97.25 16.1 104.85 -3.9 119.85 -19.3 109.0 L-23.6 103.85 -27.45 96.4 -28.6 93.0 -28.75 92.4 -29.15 91.7 -29.3 91.1 -29.3 91.0 -29.6 90.4 -29.6 90.25 -29.9 89.55 -30.3 88.25 -30.6 87.55 -30.75 86.85 -30.75 86.7 -30.9 86.4 -31.15 85.55 -31.15 85.1 -32.9 78.55 -33.0 78.0 -33.0 77.7 -33.3 76.85 -34.0 72.4 -34.0 72.1 -34.15 71.7 -34.15 71.25 -34.3 71.0 -34.3 70.55 -34.45 70.25 -34.7 68.1 M58.85 38.95 Q66.9 51.6 53.7 68.55 L53.55 68.85 52.2 70.35 Q56.5 55.7 58.7 40.1 L58.85 38.95 M23.1 71.15 Q27.5 68.7 31.9 65.4 38.7 60.2 42.35 52.5 L44.0 51.25 Q43.45 64.1 45.7 76.25 L41.1 78.4 40.55 78.4 40.1 78.55 39.7 78.55 39.4 78.7 39.0 78.7 38.55 78.85 38.1 78.85 38.0 79.0 34.85 78.25 33.7 77.7 33.25 77.55 32.7 77.25 32.0 77.0 30.4 76.1 30.1 76.0 29.85 75.7 29.25 75.4 27.25 74.1 27.0 74.0 25.4 72.85 25.1 72.7 23.1 71.15" fill="#e58508" fill-rule="evenodd" stroke="none"/>
    <path d="M-2.75 -40.9 L-0.15 -43.15 1.05 -42.35 Q5.35 -38.55 -1.4 -38.0 L-2.25 -39.15 -2.75 -40.9 M-13.5 -40.75 Q-5.65 -41.65 -10.9 -36.15 -16.65 -36.15 -13.5 -40.75" fill="#000000" fill-rule="evenodd" stroke="none"/>
    <path d="M57.7 9.6 Q58.2 1.3 55.75 -6.5 62.15 12.15 58.75 31.85 L59.15 21.8 Q59.3 15.9 57.0 10.6 L57.6 10.5 57.7 9.6 M56.5 44.35 L57.85 37.5 Q63.35 44.35 60.25 52.4 L48.05 83.7 46.85 83.75 45.85 83.1 45.35 80.1 46.75 81.95 48.1 81.95 49.3 77.8 Q54.0 61.45 56.0 44.5 L56.5 44.35 M43.25 9.0 Q44.0 8.75 46.25 12.35 L50.35 21.1 51.0 21.75 52.1 21.5 52.75 22.35 Q45.85 25.1 43.25 9.0 M44.55 48.0 Q44.5 56.75 44.75 65.5 L44.0 65.5 40.75 72.3 44.75 71.5 45.1 76.75 43.05 77.7 40.95 78.45 Q35.1 79.3 30.35 76.05 L23.6 71.35 19.0 73.35 Q22.0 79.85 23.05 85.2 -0.55 92.9 -23.9 84.7 L-31.25 84.5 -32.4 80.4 -33.3 76.25 -34.5 68.1 Q-39.15 66.95 -43.4 65.1 -51.55 61.45 -58.4 55.5 -61.6 43.2 -65.9 31.15 L-68.75 23.5 -68.15 24.55 -67.7 25.55 -67.0 27.75 -66.05 30.3 -64.75 32.15 Q-60.45 26.4 -55.65 17.25 -49.6 5.75 -43.65 -6.5 L-55.9 44.6 -52.65 48.05 -49.25 51.25 Q-47.2 53.2 -44.75 54.05 -42.8 54.8 -40.7 54.35 L-39.65 53.5 Q8.6 93.95 43.35 43.4 44.4 41.9 45.0 40.1 44.6 44.05 44.55 48.0 M-4.4 -0.15 Q11.0 1.25 15.75 -17.0 20.5 15.75 -3.9 21.0 -20.0 17.6 -24.15 -21.5 -18.75 -2.0 -4.4 -0.15 M-79.4 32.35 Q-72.2 57.75 -60.15 81.3 -64.8 75.5 -68.3 68.8 -77.35 51.55 -80.9 32.5 L-79.4 32.35 M-13.2 109.65 Q-19.45 109.15 -23.65 102.75 -28.95 94.6 -31.25 85.0 -24.3 106.7 -10.85 109.7 L-13.2 109.65" fill="#000000" fill-opacity="0.49803922" fill-rule="evenodd" stroke="none"/>
  </g>
</svg>
