<?xml version="1.0" encoding="UTF-8" standalone="no"?>
<svg xmlns:ffdec="https://www.free-decompiler.com/flash" xmlns:xlink="http://www.w3.org/1999/xlink" ffdec:objectType="shape" height="167.3px" width="179.35px" xmlns="http://www.w3.org/2000/svg">
  <g transform="matrix(1.0, 0.0, 0.0, 1.0, 116.75, 53.75)">
    <path d="M-18.5 -38.5 L-21.9 -46.4 Q-18.2 -51.45 -12.05 -51.4 -9.9 -51.4 -8.2 -52.2 1.15 -56.2 7.5 -49.9 8.0 -45.4 7.35 -44.9 L6.0 -41.75 Q5.1 -37.9 -5.9 -40.0 -13.15 -35.5 -18.5 -38.5 M-0.75 -46.15 Q-6.25 -44.75 0.1 -41.15 5.5 -43.75 -0.75 -46.15 M-11.4 -39.75 Q-6.5 -45.15 -13.25 -44.75 -17.5 -39.9 -11.4 -39.75" fill="#ffffff" fill-rule="evenodd" stroke="none"/>
    <path d="M6.0 -41.75 Q7.55 -41.55 8.6 -40.35 17.2 -30.35 13.75 -16.65 9.4 -2.5 -5.65 -3.95 -15.25 -4.3 -20.4 -12.75 L-21.65 -15.1 Q-29.25 -27.8 -18.5 -38.5 -13.15 -35.5 -5.9 -40.0 5.1 -37.9 6.0 -41.75 M22.35 70.55 Q27.95 67.35 33.5 62.65 37.6 59.15 40.6 54.6 L50.85 45.25 53.15 68.5 53.25 69.2 49.1 73.7 46.0 76.1 41.1 78.4 40.55 78.4 40.1 78.55 39.7 78.55 39.4 78.7 39.0 78.7 38.55 78.85 38.1 78.85 38.0 79.0 34.85 78.25 33.7 77.7 33.25 77.55 32.7 77.25 32.0 77.0 30.4 76.1 30.1 76.0 29.85 75.7 29.25 75.4 27.25 74.1 27.0 74.0 25.4 72.85 25.1 72.7 22.7 70.85 22.4 70.55 22.35 70.55 M27.25 86.55 Q27.0 97.25 16.1 104.85 -3.9 119.85 -19.3 109.0 L-23.6 103.85 -27.45 96.4 -28.6 93.0 -28.75 92.4 -29.15 91.7 -29.3 91.1 -29.3 91.0 -29.6 90.4 -29.6 90.25 -29.9 89.55 -30.3 88.25 -30.6 87.55 -30.75 86.85 -30.75 86.7 -30.9 86.4 -31.15 85.55 -31.15 85.1 -32.9 78.55 -33.0 78.0 -33.0 77.7 -33.3 76.85 -34.0 72.4 -34.0 72.1 -34.15 71.7 -34.15 71.25 -34.3 71.0 -34.3 70.55 -34.45 70.25 -34.85 66.65 -32.65 67.0 Q-6.7 84.1 17.85 72.85 23.85 79.65 27.25 86.4 L27.25 86.55" fill="#e58508" fill-rule="evenodd" stroke="none"/>
    <path d="M-11.4 -39.75 Q-17.5 -39.9 -13.25 -44.75 -6.5 -45.15 -11.4 -39.75 M-0.75 -46.15 Q5.5 -43.75 0.1 -41.15 -6.25 -44.75 -0.75 -46.15" fill="#000000" fill-rule="evenodd" stroke="none"/>
    <path d="M-88.5 -29.25 Q-81.8 -16.7 -90.6 -4.2 -66.65 -4.5 -45.65 -17.0 -78.5 21.9 -46.05 51.7 -42.6 54.95 -40.9 51.0 -2.55 85.0 33.85 55.25 41.3 49.2 44.1 39.85 L44.75 40.2 Q46.5 39.85 47.65 38.4 L50.75 34.5 52.35 56.1 51.35 55.5 Q50.65 55.6 50.15 55.95 48.15 57.1 46.6 59.0 L46.85 60.6 Q42.1 66.15 39.5 72.75 L47.5 70.0 48.5 72.0 50.1 69.95 Q51.0 68.9 52.15 68.55 L53.45 68.75 Q46.65 80.7 33.2 76.7 27.5 74.95 23.0 70.85 L18.25 72.85 Q21.55 78.75 22.9 83.75 -4.05 88.05 -31.15 82.0 L-31.4 82.5 -30.9 83.75 -31.4 84.0 Q-34.2 75.4 -34.75 66.35 -81.9 45.1 -64.15 -7.4 -77.0 -1.6 -91.25 -2.4 -98.75 6.15 -107.1 -2.3 -114.45 -9.6 -116.15 -19.85 L-116.75 -24.0 Q-103.65 -9.85 -89.8 -14.5 -86.8 -15.6 -87.8 -19.8 L-90.0 -29.5 -88.5 -29.25 M-6.25 -3.5 Q9.85 -2.0 15.0 -19.5 16.1 16.35 -5.4 16.1 -21.4 13.0 -24.4 -23.9 -20.0 -6.15 -6.25 -3.5 M-10.95 110.05 Q-21.3 110.75 -25.7 100.0 L-30.25 87.85 Q-23.05 107.25 -10.15 110.05 L-10.95 110.05 M46.0 3.5 Q55.6 18.0 58.6 18.0 50.85 22.1 46.0 3.5 M53.75 70.1 L56.4 71.9 62.6 32.0 Q62.35 48.5 59.15 64.55 L57.25 73.6 56.25 74.1 55.0 73.75 53.75 70.1" fill="#000000" fill-opacity="0.49803922" fill-rule="evenodd" stroke="none"/>
  </g>
</svg>
