<?xml version="1.0" encoding="UTF-8" standalone="no"?>
<svg xmlns:ffdec="https://www.free-decompiler.com/flash" xmlns:xlink="http://www.w3.org/1999/xlink" ffdec:objectType="shape" height="168.2px" width="183.25px" xmlns="http://www.w3.org/2000/svg">
  <g transform="matrix(1.0, 0.0, 0.0, 1.0, 105.5, 54.65)">
    <path d="M-6.9 -36.25 Q-11.25 -39.4 -11.15 -43.25 -5.5 -50.65 3.75 -51.15 L4.9 -51.95 Q11.4 -57.0 15.85 -52.65 16.85 -50.9 16.85 -47.9 L15.85 -44.15 Q14.0 -39.5 6.35 -40.5 -2.5 -33.4 -6.9 -36.25 M10.75 -42.5 Q17.0 -46.25 12.25 -48.15 6.5 -45.25 10.75 -42.5 M0.75 -38.9 Q6.25 -41.9 2.1 -44.0 -5.25 -42.15 0.75 -38.9" fill="#ffffff" fill-rule="evenodd" stroke="none"/>
    <path d="M-6.9 -36.25 Q-2.5 -33.4 6.35 -40.5 14.0 -39.5 15.85 -44.15 L17.8 -42.3 Q30.65 -30.75 27.35 -14.4 26.55 -10.65 23.3 -8.7 6.85 0.95 -6.4 -13.15 L-6.35 -13.3 Q-17.9 -23.75 -6.9 -36.25 M27.25 86.4 L27.25 86.55 Q27.0 97.25 16.1 104.85 -3.9 119.85 -19.3 109.0 L-23.6 103.85 -27.45 96.4 -28.6 93.0 -28.75 92.4 -29.15 91.7 -29.3 91.1 -29.3 91.0 -29.6 90.4 -29.6 90.25 -29.9 89.55 -30.3 88.25 -30.6 87.55 -30.75 86.85 -30.75 86.7 -30.9 86.4 -31.15 85.55 -31.15 85.1 -32.9 78.55 -33.0 78.0 -33.0 77.7 -33.3 76.85 -33.9 73.0 Q-25.65 74.8 -16.65 73.85 1.2 79.4 17.85 72.85 23.85 79.65 27.25 86.4 M51.1 32.3 Q53.7 33.65 56.0 35.25 68.85 49.1 53.7 68.55 L53.55 68.85 49.1 73.7 46.0 76.1 41.1 78.4 40.55 78.4 40.1 78.55 39.7 78.55 39.4 78.7 39.0 78.7 38.55 78.85 38.1 78.85 38.0 79.0 34.85 78.25 33.7 77.7 33.25 77.55 32.7 77.25 32.0 77.0 30.4 76.1 30.1 76.0 29.85 75.7 29.25 75.4 27.25 74.1 27.0 74.0 25.4 72.85 25.1 72.7 22.7 70.85 22.55 70.7 Q27.4 68.25 32.15 64.75 39.0 59.6 43.5 52.15 48.3 44.15 49.95 34.8 L51.1 32.3" fill="#e58508" fill-rule="evenodd" stroke="none"/>
    <path d="M0.75 -38.9 Q-5.25 -42.15 2.1 -44.0 6.25 -41.9 0.75 -38.9 M10.75 -42.5 Q6.5 -45.25 12.25 -48.15 17.0 -46.25 10.75 -42.5" fill="#000000" fill-rule="evenodd" stroke="none"/>
    <path d="M53.1 -15.5 Q60.95 8.85 51.35 32.0 L56.75 35.85 Q51.95 41.25 50.6 48.45 49.45 54.55 49.0 60.75 L39.85 72.5 47.5 70.0 48.6 72.0 54.35 66.75 54.25 66.0 59.1 58.5 59.6 58.35 Q55.0 71.15 42.45 76.75 32.25 81.2 24.1 71.75 L19.25 73.85 Q22.15 78.9 23.45 83.25 -3.65 89.0 -30.4 81.5 L-31.0 83.85 -33.75 72.85 Q-81.3 56.55 -62.2 2.8 -59.1 -6.0 -56.25 -14.9 -72.95 -19.7 -88.15 -28.4 L-88.25 -27.5 Q-90.3 -25.8 -93.4 -25.7 -96.45 -25.6 -99.1 -27.4 -102.35 -29.6 -105.5 -31.95 L-94.65 -27.25 -88.25 -28.75 -88.65 -30.5 Q-64.0 -16.5 -37.15 -14.5 -80.05 22.85 -45.6 57.6 -38.85 64.5 -28.9 64.25 L-29.15 62.0 -28.65 62.0 Q2.55 77.5 31.65 61.2 35.15 59.2 37.35 56.0 L38.5 55.0 38.5 54.5 Q58.1 21.95 52.6 -15.5 L53.1 -15.5 M52.0 -20.65 L52.35 -18.5 47.5 -26.0 Q55.05 -22.75 62.65 -19.0 L63.0 -18.75 64.1 -18.5 64.0 -19.0 67.85 -17.65 67.7 -17.05 67.5 -16.4 Q66.35 -14.1 63.85 -13.15 L63.6 -10.4 Q64.3 -10.3 64.85 -9.65 68.05 -5.9 70.25 -1.35 L70.35 -0.9 74.25 3.85 74.5 3.35 Q75.3 0.05 74.75 -3.1 L74.5 -5.0 Q78.05 4.65 77.75 14.65 77.75 15.55 77.1 16.1 63.8 2.25 57.1 -17.75 L52.0 -20.65 M16.6 15.6 Q4.35 19.5 -11.75 -20.0 11.75 7.75 28.1 -15.5 34.35 13.6 16.6 15.6 M-31.25 85.0 Q-26.3 106.4 -11.55 109.6 -28.6 108.15 -31.25 85.0" fill="#000000" fill-opacity="0.49803922" fill-rule="evenodd" stroke="none"/>
  </g>
</svg>
