<?xml version="1.0" encoding="UTF-8" standalone="no"?>
<svg xmlns:ffdec="https://www.free-decompiler.com/flash" xmlns:xlink="http://www.w3.org/1999/xlink" ffdec:objectType="shape" height="158.45px" width="199.4px" xmlns="http://www.w3.org/2000/svg">
  <g transform="matrix(1.0, 0.0, 0.0, 1.0, 59.3, 44.9)">
    <path d="M17.4 -20.9 L14.7 -22.75 13.1 -26.15 Q18.85 -33.05 25.85 -38.0 L28.25 -41.0 32.55 -44.9 34.85 -41.75 Q36.1 -38.0 35.55 -36.75 32.85 -39.45 32.1 -34.0 L32.55 -32.75 33.25 -32.15 34.7 -32.75 34.4 -31.45 33.7 -30.75 29.7 -28.9 Q25.55 -20.0 17.4 -20.9 M27.85 -30.45 Q21.4 -27.45 26.25 -25.15 30.25 -28.0 27.85 -30.45" fill="#ffffff" fill-rule="evenodd" stroke="none"/>
    <path d="M34.7 -32.75 L33.25 -32.15 32.55 -32.75 32.1 -34.0 Q32.85 -39.45 35.55 -36.75 L36.0 -34.6 35.1 -33.9 34.7 -32.75 M27.85 -30.45 Q30.25 -28.0 26.25 -25.15 21.4 -27.45 27.85 -30.45" fill="#000000" fill-rule="evenodd" stroke="none"/>
    <path d="M17.4 -20.9 Q25.55 -20.0 29.7 -28.9 L33.7 -30.75 34.4 -31.45 34.7 -32.75 35.1 -33.9 36.0 -34.6 37.95 -33.35 Q51.5 -24.9 52.7 -9.3 L51.25 -3.6 47.7 1.0 46.55 1.8 Q37.4 6.95 27.25 2.4 L14.25 -4.0 13.95 -5.45 Q12.7 -13.65 17.4 -20.9 M27.25 86.4 L27.25 86.55 Q27.0 97.25 16.1 104.85 -3.9 119.85 -19.3 109.0 L-23.6 103.85 -27.45 96.4 -28.6 93.0 -28.75 92.4 -29.15 91.7 -29.3 91.1 -29.3 91.0 -29.6 90.4 -29.6 90.25 -29.9 89.55 -30.3 88.25 -30.6 87.55 -30.75 86.85 -30.75 86.7 -30.9 86.4 -31.15 85.55 -31.15 85.3 Q-17.05 89.65 -0.15 80.7 6.55 80.85 12.95 79.55 17.45 78.6 21.5 77.25 24.95 81.85 27.25 86.4 M53.0 40.1 L60.2 41.4 Q65.65 53.25 53.7 68.55 L53.55 68.85 49.1 73.7 46.0 76.1 41.1 78.4 40.55 78.4 40.1 78.55 39.7 78.55 39.4 78.7 39.0 78.7 38.55 78.85 38.1 78.85 38.0 79.0 34.85 78.25 33.7 77.7 33.25 77.55 32.7 77.25 32.0 77.0 30.4 76.1 30.1 76.0 29.85 75.7 29.25 75.4 28.0 74.6 Q48.3 64.6 53.0 40.1" fill="#e58508" fill-rule="evenodd" stroke="none"/>
    <path d="M14.0 -4.6 Q17.15 -2.95 20.05 -1.6 40.0 7.75 45.4 1.1 51.1 -4.8 52.5 -9.05 L52.55 -9.15 Q53.25 -11.45 52.7 -13.3 L50.85 -19.45 48.4 -23.0 47.25 -28.9 45.7 -34.0 45.1 -34.75 Q53.85 -32.75 54.4 -36.0 L55.85 -32.9 55.25 -24.9 56.4 -23.6 Q58.0 -27.15 58.85 -27.0 L58.85 -20.15 57.55 -10.15 Q56.55 -5.3 52.7 -9.0 L52.55 -6.9 51.4 -4.0 Q49.15 15.2 56.15 16.95 L49.4 16.4 46.4 13.1 26.85 2.1 15.0 -3.6 14.0 -4.6 M140.1 35.55 Q100.5 45.0 58.1 41.55 62.25 49.3 60.35 57.8 L59.45 60.5 Q49.1 83.35 29.25 75.4 L22.7 77.55 Q30.2 83.5 25.6 92.05 10.6 119.65 -17.9 110.25 -22.55 107.45 -24.55 102.15 L-25.3 100.25 -26.2 98.25 -27.1 96.05 -31.0 85.4 Q-50.75 81.55 -56.45 62.25 -61.45 45.3 -57.75 27.85 -57.8 47.05 -46.3 61.65 -33.3 78.3 -11.85 71.5 -4.95 69.25 1.1 65.1 L0.3 66.2 Q-2.05 69.35 -2.9 73.4 L9.85 73.55 Q-1.7 41.75 -19.55 12.8 L-19.8 12.25 Q-0.35 24.85 22.3 32.1 33.85 35.85 45.9 36.95 L48.2 36.5 49.4 34.25 Q88.05 39.45 127.25 37.0 L140.1 35.55 M-25.0 96.1 Q-22.3 110.1 -6.45 111.25 13.7 108.0 20.1 98.85 16.25 86.25 -25.0 96.1 M58.4 59.1 L58.7 59.4 58.85 59.1 58.4 59.1 M58.55 59.55 Q47.4 65.25 48.7 72.0 L54.4 66.7 Q54.0 65.4 58.55 59.55 M47.4 47.85 L46.7 46.45 Q40.8 36.4 28.55 36.4 L37.4 60.1 38.0 60.4 42.85 56.1 47.4 47.85" fill="#000000" fill-opacity="0.49803922" fill-rule="evenodd" stroke="none"/>
  </g>
</svg>
