<?xml version="1.0" encoding="UTF-8" standalone="no"?>
<svg xmlns:ffdec="https://www.free-decompiler.com/flash" xmlns:xlink="http://www.w3.org/1999/xlink" ffdec:objectType="shape" height="150.55px" width="170.4px" xmlns="http://www.w3.org/2000/svg">
  <g transform="matrix(1.0, 0.0, 0.0, 1.0, 57.4, 37.0)">
    <path d="M24.35 -13.15 L22.0 -14.65 Q21.25 -14.9 20.6 -18.25 L32.85 -29.4 40.0 -37.0 42.5 -32.15 Q43.3 -30.65 42.85 -29.0 L42.25 -29.65 41.6 -29.65 39.6 -26.15 39.85 -24.5 40.5 -24.0 41.75 -24.5 Q40.55 -21.3 36.85 -20.9 L36.55 -20.05 Q33.3 -12.4 24.35 -13.15 M33.6 -16.9 Q37.75 -19.5 35.25 -22.15 28.85 -19.0 33.6 -16.9" fill="#ffffff" fill-rule="evenodd" stroke="none"/>
    <path d="M24.35 -13.15 Q33.3 -12.4 36.55 -20.05 L36.85 -20.9 Q40.55 -21.3 41.75 -24.5 L43.25 -27.0 Q50.45 -22.25 55.0 -14.85 L58.1 -9.15 Q58.6 -6.15 58.65 -3.15 58.7 3.95 54.1 8.6 L53.35 9.1 Q52.1 10.15 50.5 10.6 37.05 14.8 24.85 6.0 L20.1 2.75 20.0 1.85 Q19.5 -6.2 24.35 -13.15 M55.65 65.95 L46.85 60.6 Q53.55 55.05 56.4 35.65 67.8 48.45 55.65 65.95 M27.25 86.4 L27.25 86.55 Q27.0 97.25 16.1 104.85 -3.9 119.85 -19.3 109.0 L-23.6 103.85 -27.45 96.4 -28.6 93.0 -28.75 92.4 -29.15 91.7 -29.3 91.1 -29.3 91.0 -29.6 90.4 -29.6 90.25 -29.9 89.55 -30.3 88.25 -30.6 87.55 -30.75 86.85 -30.75 86.7 -30.9 86.4 -31.0 85.95 Q-17.35 90.0 -1.15 83.0 L22.65 78.85 Q25.35 82.65 27.25 86.4 M38.1 78.9 L38.0 79.0 34.85 78.25 33.7 77.7 33.25 77.55 32.7 77.25 32.0 77.0 31.5 76.7 32.6 76.0 33.6 76.1 38.1 78.9" fill="#e58508" fill-rule="evenodd" stroke="none"/>
    <path d="M41.75 -24.5 L40.5 -24.0 39.85 -24.5 39.6 -26.15 41.6 -29.65 42.25 -29.65 42.85 -29.0 43.25 -27.0 41.75 -24.5 M33.6 -16.9 Q28.85 -19.0 35.25 -22.15 37.75 -19.5 33.6 -16.9" fill="#000000" fill-rule="evenodd" stroke="none"/>
    <path d="M56.85 -31.25 L57.35 -33.0 Q59.6 -32.5 59.35 -22.9 L60.35 -23.4 60.85 -25.0 61.6 -24.75 60.75 -18.0 58.25 -9.25 Q55.75 -15.75 51.1 -20.0 L51.0 -24.65 49.6 -30.9 56.85 -31.25 M59.0 -1.4 Q58.65 4.15 55.4 8.5 L53.85 10.75 Q52.9 29.1 60.9 43.6 L61.6 44.5 60.85 49.85 Q59.55 58.4 55.75 66.0 L43.6 59.1 43.35 58.1 44.25 57.5 44.75 56.25 Q33.55 28.6 20.0 2.0 32.35 15.55 47.75 8.6 55.7 5.05 59.1 -3.0 L59.0 -1.4 M27.25 70.0 L34.05 73.9 34.55 74.0 36.85 71.5 37.85 71.5 51.5 80.1 93.25 100.75 113.0 107.6 Q72.9 102.1 37.35 78.75 L31.6 76.75 24.25 80.0 Q30.75 102.3 5.0 110.9 -20.7 119.6 -28.55 93.1 L-30.65 86.6 Q-48.5 82.85 -53.85 65.45 -58.45 50.35 -57.1 34.7 -56.6 29.1 -54.4 24.0 -60.3 53.2 -37.8 67.85 -27.6 74.6 -15.7 70.0 L-6.5 66.1 Q-9.25 43.05 -18.0 21.7 0.7 48.15 25.05 70.05 L27.25 70.0 M-11.0 96.35 L-24.25 98.0 Q-23.15 105.25 -16.15 107.25 15.15 116.0 -5.15 96.0 L-11.0 96.35" fill="#000000" fill-opacity="0.49803922" fill-rule="evenodd" stroke="none"/>
  </g>
</svg>
