<?xml version="1.0" encoding="UTF-8" standalone="no"?>
<svg xmlns:ffdec="https://www.free-decompiler.com/flash" xmlns:xlink="http://www.w3.org/1999/xlink" ffdec:objectType="shape" height="174.15px" width="122.75px" xmlns="http://www.w3.org/2000/svg">
  <g transform="matrix(1.0, 0.0, 0.0, 1.0, 59.0, 35.4)">
    <path d="M22.35 -12.0 L20.1 -13.5 Q19.35 -13.75 18.6 -17.15 L24.4 -22.2 24.5 -22.65 25.6 -23.25 30.85 -27.75 31.35 -27.9 31.5 -27.9 38.75 -35.4 38.85 -35.4 Q42.0 -33.9 41.6 -26.5 L41.1 -27.9 39.75 -27.65 38.0 -24.15 38.5 -22.75 39.25 -22.25 40.5 -22.75 Q38.95 -21.0 37.05 -19.95 L35.6 -19.25 Q31.7 -11.0 22.35 -12.0 M34.25 -17.9 L33.85 -20.5 Q27.0 -18.0 31.6 -15.4 33.25 -15.4 34.25 -17.9" fill="#ffffff" fill-rule="evenodd" stroke="none"/>
    <path d="M40.5 -22.75 L39.25 -22.25 38.5 -22.75 38.0 -24.15 39.75 -27.65 41.1 -27.9 41.6 -26.5 41.6 -25.9 41.85 -24.9 40.5 -22.75 M34.25 -17.9 Q33.25 -15.4 31.6 -15.4 27.0 -18.0 33.85 -20.5 L34.25 -17.9" fill="#000000" fill-rule="evenodd" stroke="none"/>
    <path d="M22.35 -12.0 Q31.7 -11.0 35.6 -19.25 L37.05 -19.95 Q38.95 -21.0 40.5 -22.75 L41.85 -24.9 41.6 -25.9 47.05 -21.2 Q53.75 -15.35 56.5 -6.75 L56.8 -5.6 Q58.35 1.3 54.85 7.6 L52.6 10.1 Q49.0 13.65 43.95 14.3 32.3 14.45 22.75 7.25 L18.5 4.5 17.85 3.0 Q15.85 -0.5 22.35 -12.0 M27.25 86.4 L27.25 86.55 Q27.0 97.25 16.1 104.85 3.95 114.0 -6.5 113.55 -7.7 99.65 -11.75 85.6 L-3.4 83.0 12.0 84.1 Q18.4 83.3 24.15 81.0 25.9 83.7 27.25 86.4 M40.1 78.55 L39.7 78.55 39.4 78.7 39.0 78.7 38.55 78.85 38.1 78.85 38.0 79.0 34.85 78.25 33.7 77.7 33.25 77.55 32.7 77.25 32.0 77.0 31.95 77.0 Q36.6 74.0 40.75 69.85 53.25 50.4 56.3 35.55 68.7 49.3 53.7 68.55 L53.55 68.85 49.1 73.7 46.0 76.1 41.1 78.4 40.55 78.4 40.1 78.55" fill="#e58508" fill-rule="evenodd" stroke="none"/>
    <path d="M60.85 -29.5 L61.35 -26.4 61.0 -24.75 Q60.8 -22.6 61.6 -20.65 L62.75 -21.15 62.75 -22.15 63.75 -22.5 63.75 -20.25 Q63.7 -12.05 59.25 -5.25 58.0 -6.25 57.1 -7.45 50.15 -16.7 50.35 -28.9 L58.25 -29.0 59.1 -29.65 58.85 -30.15 59.5 -30.5 59.35 -31.0 60.85 -29.5 M59.9 45.5 L61.85 49.75 Q59.95 65.05 48.2 75.0 40.55 81.45 31.5 76.75 L24.5 80.25 Q26.45 82.6 26.95 85.75 27.55 89.5 25.35 92.9 L23.7 95.7 22.75 93.1 23.6 91.75 Q13.1 95.8 1.85 95.3 L-5.75 94.5 -8.25 103.85 Q-7.6 93.75 -12.25 85.1 L-14.75 81.1 Q-8.2 67.8 -6.75 53.0 -5.95 45.05 -4.65 37.1 L-4.0 37.1 -5.4 63.6 8.5 54.6 9.25 54.6 Q4.3 65.35 -2.75 75.1 17.15 76.25 33.85 66.5 38.85 63.5 42.6 59.1 31.35 31.5 18.5 4.35 32.45 16.15 48.25 9.5 54.65 6.7 56.75 0.3 L56.0 3.25 Q50.9 24.9 59.9 45.5 M-35.5 49.6 L-35.0 49.5 -35.0 56.0 -33.35 74.6 -32.75 77.0 -32.3 77.15 -31.85 77.55 Q-28.85 80.6 -26.5 84.35 L-27.35 84.65 -28.2 84.8 -28.95 84.85 Q-30.8 84.65 -31.6 83.1 L-31.15 85.55 -29.5 90.1 -28.0 90.25 -26.25 95.0 Q-24.6 98.8 -21.9 102.0 -14.2 117.95 -9.25 135.1 L-8.5 135.25 -8.0 135.85 -7.8 135.75 -7.4 135.1 -6.9 135.5 -6.5 135.25 -5.75 137.35 -7.5 138.75 Q-25.15 114.2 -33.0 85.35 -66.85 69.65 -56.65 29.5 -60.85 58.1 -36.65 69.6 L-35.5 49.6 M-7.5 111.25 Q11.0 110.25 23.25 96.45 13.35 112.25 -7.15 113.75 L-7.5 111.25" fill="#000000" fill-opacity="0.49803922" fill-rule="evenodd" stroke="none"/>
  </g>
</svg>
