<?xml version="1.0" encoding="UTF-8" standalone="no"?>
<svg xmlns:ffdec="https://www.free-decompiler.com/flash" xmlns:xlink="http://www.w3.org/1999/xlink" ffdec:objectType="shape" height="155.45px" width="133.45px" xmlns="http://www.w3.org/2000/svg">
  <g transform="matrix(1.0, 0.0, 0.0, 1.0, 70.05, 41.9)">
    <path d="M13.7 -18.9 Q21.85 -17.3 26.55 -26.0 28.55 -26.15 31.7 -28.15 L32.85 -30.9 33.1 -32.0 Q48.25 -22.55 48.85 -5.65 49.0 -1.0 46.0 2.55 39.0 10.6 27.9 7.3 20.85 5.3 15.0 1.1 L10.4 -1.9 9.7 -3.6 Q7.4 -8.3 13.7 -18.9 M27.25 86.4 L27.25 86.55 Q27.0 97.25 16.1 104.85 -3.9 119.85 -19.3 109.0 L-23.6 103.85 -27.45 96.4 -28.6 93.0 -28.75 92.4 -29.15 91.7 -29.3 91.1 -29.3 91.0 -29.6 90.4 -29.6 90.25 -29.9 89.55 -30.3 88.25 -30.6 87.55 -30.75 86.85 -30.75 86.7 -30.9 86.4 -31.15 85.55 -31.15 85.1 -31.5 83.7 Q-18.55 86.35 -4.75 81.0 10.25 84.0 22.55 78.7 25.35 82.55 27.25 86.4 M54.45 34.25 L56.0 35.25 Q68.85 49.1 53.7 68.55 L53.55 68.85 49.1 73.7 46.0 76.1 41.1 78.4 40.55 78.4 40.1 78.55 39.7 78.55 39.4 78.7 39.0 78.7 38.55 78.85 38.1 78.85 38.0 79.0 34.85 78.25 33.7 77.7 33.25 77.55 32.7 77.25 32.0 77.0 30.4 76.1 30.1 76.0 29.85 75.7 29.25 75.4 29.0 75.25 Q35.6 70.9 41.3 63.9 52.75 49.8 54.45 34.25" fill="#e58508" fill-rule="evenodd" stroke="none"/>
    <path d="M32.85 -30.9 L31.7 -28.15 Q28.55 -26.15 26.55 -26.0 21.85 -17.3 13.7 -18.9 12.25 -19.3 10.85 -21.0 L9.4 -24.45 10.65 -25.8 Q13.65 -29.1 17.2 -31.7 24.35 -35.8 30.25 -41.9 L30.85 -41.9 Q34.4 -36.9 33.1 -32.0 31.1 -37.9 29.1 -31.0 31.0 -27.15 32.85 -30.9 M25.1 -25.0 L24.85 -27.6 Q17.7 -26.15 22.4 -22.45 24.1 -22.6 25.1 -25.0" fill="#ffffff" fill-rule="evenodd" stroke="none"/>
    <path d="M33.1 -32.0 L32.85 -30.9 Q31.0 -27.15 29.1 -31.0 31.1 -37.9 33.1 -32.0 M25.1 -25.0 Q24.1 -22.6 22.4 -22.45 17.7 -26.15 24.85 -27.6 L25.1 -25.0" fill="#000000" fill-rule="evenodd" stroke="none"/>
    <path d="M10.0 -3.45 Q57.4 21.15 46.85 -30.9 L51.8 -30.2 55.4 -29.6 Q57.15 -29.3 58.65 -30.45 L59.0 -31.3 59.7 -28.75 Q59.95 -27.5 59.8 -26.2 L59.1 -21.0 61.85 -19.8 63.4 -22.3 63.0 -5.15 61.25 -4.55 Q60.2 -4.25 59.3 -4.85 54.25 -8.3 51.7 -14.15 65.35 33.0 48.25 71.0 49.3 70.6 50.25 70.0 52.7 68.75 54.4 66.85 57.35 63.45 59.25 59.4 54.2 72.75 41.0 77.45 34.15 79.95 28.7 75.1 L23.0 78.25 Q24.5 84.3 24.25 89.2 L19.55 89.7 -25.75 94.7 Q-19.15 105.25 -11.45 108.9 -22.95 107.45 -28.2 95.35 -30.65 89.75 -31.45 83.85 -35.2 83.6 -38.6 82.25 -44.6 80.1 -49.3 75.85 -52.9 93.8 -65.45 106.0 -71.7 84.85 -69.45 62.7 L-68.9 62.7 -68.0 72.7 -68.3 73.25 Q-65.25 86.35 -65.3 100.0 L-64.6 100.7 -63.5 98.1 -62.35 95.85 -61.6 94.65 -57.15 87.0 Q-54.35 83.15 -52.45 79.7 -50.55 76.3 -49.45 72.55 L-48.9 72.4 -47.75 70.05 -46.7 67.6 Q-45.9 65.65 -47.25 63.9 -48.4 62.45 -50.45 62.55 -32.6 48.15 -22.75 27.0 L-22.15 27.1 Q-31.2 47.8 -37.3 69.4 -25.15 72.95 -12.55 69.5 -8.2 68.15 -3.95 66.2 -5.3 67.7 -6.2 69.45 -7.1 71.15 -7.6 73.1 26.55 75.75 46.0 50.7 21.2 30.25 10.1 -2.0 L10.0 -3.45 M-22.3 26.1 L-21.9 26.1 -22.0 26.4 -22.3 26.1" fill="#000000" fill-opacity="0.49803922" fill-rule="evenodd" stroke="none"/>
  </g>
</svg>
