<?xml version="1.0" encoding="UTF-8" standalone="no"?>
<svg xmlns:ffdec="https://www.free-decompiler.com/flash" xmlns:xlink="http://www.w3.org/1999/xlink" ffdec:objectType="shape" height="157.0px" width="135.45px" xmlns="http://www.w3.org/2000/svg">
  <g transform="matrix(1.0, 0.0, 0.0, 1.0, 72.0, 43.45)">
    <path d="M12.1 -20.45 L9.55 -22.15 7.7 -26.0 28.4 -43.45 29.25 -43.3 Q32.7 -38.45 31.4 -33.6 29.0 -39.15 27.4 -32.9 28.7 -28.6 31.1 -32.6 L29.55 -29.45 Q26.7 -27.6 24.85 -27.6 23.1 -20.6 12.1 -20.45 M22.25 -24.9 L23.4 -26.6 23.0 -29.3 Q15.7 -27.3 21.0 -24.15 L22.25 -24.9" fill="#ffffff" fill-rule="evenodd" stroke="none"/>
    <path d="M31.1 -32.6 Q28.7 -28.6 27.4 -32.9 29.0 -39.15 31.4 -33.6 L31.1 -32.6 M22.25 -24.9 L21.0 -24.15 Q15.7 -27.3 23.0 -29.3 L23.4 -26.6 22.25 -24.9" fill="#000000" fill-rule="evenodd" stroke="none"/>
    <path d="M31.4 -33.6 Q36.9 -29.9 41.15 -25.05 51.9 -12.7 44.55 0.85 43.45 1.9 42.15 2.55 27.7 10.75 13.7 -0.15 11.55 -1.6 10.35 -3.6 5.35 -11.8 12.1 -20.45 23.1 -20.6 24.85 -27.6 26.7 -27.6 29.55 -29.45 L31.1 -32.6 31.4 -33.6 M49.3 45.2 Q51.0 39.0 51.8 32.65 54.0 33.9 56.0 35.25 68.85 49.1 53.7 68.55 L53.55 68.85 49.1 73.7 46.0 76.1 41.1 78.4 40.55 78.4 40.1 78.55 39.7 78.55 39.4 78.7 39.0 78.7 38.55 78.85 38.1 78.85 38.0 79.0 34.85 78.25 33.7 77.7 33.25 77.55 32.7 77.25 32.0 77.0 30.4 76.1 30.1 76.0 29.85 75.7 29.25 75.4 27.9 74.5 Q32.7 71.45 36.95 67.05 45.85 57.7 49.3 45.2 M27.25 86.4 L27.25 86.55 Q27.0 97.25 16.1 104.85 -3.9 119.85 -19.3 109.0 L-23.6 103.85 -27.45 96.4 -28.6 93.0 -28.75 92.4 -29.15 91.7 -29.3 91.1 -29.3 91.0 -29.6 90.4 -29.6 90.25 -29.9 89.55 -30.3 88.25 -30.6 87.55 -30.75 86.85 -30.75 86.7 -30.9 86.4 -31.15 85.55 -31.15 85.1 -31.85 82.4 Q-18.6 85.0 -4.75 80.55 10.05 82.7 21.8 77.7 25.05 82.05 27.25 86.4" fill="#e58508" fill-rule="evenodd" stroke="none"/>
    <path d="M8.85 -4.75 Q33.55 17.3 47.85 -7.9 48.1 -5.85 47.35 -3.85 L46.35 -1.6 45.1 0.4 Q50.6 13.8 52.25 28.0 L52.85 28.1 Q54.6 15.0 47.25 5.25 53.45 -13.55 45.85 -31.75 49.75 -30.7 53.85 -30.15 55.4 -30.15 56.75 -30.9 L58.1 -31.75 Q59.55 -29.35 59.25 -26.45 58.95 -23.75 58.1 -21.45 L59.85 -19.95 62.7 -22.3 Q64.05 -15.5 62.9 -8.45 L62.1 -4.0 61.4 -3.6 60.25 -3.75 Q56.75 -6.5 54.45 -10.2 L50.7 -15.3 Q54.2 9.65 53.85 34.25 L54.85 35.4 Q59.85 54.6 47.7 70.1 L48.55 72.0 Q55.65 64.75 56.7 63.2 L58.25 60.55 58.85 59.1 59.25 59.4 Q51.5 82.2 30.7 76.05 29.4 75.6 28.25 74.85 L23.1 77.7 Q24.15 83.7 23.95 88.55 -0.15 93.5 -25.0 93.7 L-26.0 94.55 Q-19.05 105.45 -10.95 109.0 L-13.25 108.7 Q-21.8 107.45 -26.1 98.95 -29.75 91.7 -31.45 83.7 -38.8 82.7 -45.1 78.8 -47.65 77.15 -49.9 75.1 L-50.6 76.0 Q-49.4 68.65 -51.6 62.25 -32.95 48.35 -23.9 26.1 L-23.3 26.25 Q-32.15 47.4 -38.9 69.0 -22.5 75.2 -5.85 67.2 L-8.3 72.55 Q30.8 74.95 49.4 43.85 19.1 35.65 8.25 -4.75 L8.85 -4.75 M-52.45 62.4 L-51.75 62.4 -52.15 62.7 -52.45 62.4 M-69.1 108.0 Q-71.1 100.5 -72.0 92.9 -70.25 99.55 -66.4 105.55 L-69.1 108.0" fill="#000000" fill-opacity="0.49803922" fill-rule="evenodd" stroke="none"/>
  </g>
</svg>
