<?xml version="1.0" encoding="UTF-8" standalone="no"?>
<svg xmlns:ffdec="https://www.free-decompiler.com/flash" xmlns:xlink="http://www.w3.org/1999/xlink" ffdec:objectType="shape" height="192.35px" width="169.95px" xmlns="http://www.w3.org/2000/svg">
  <g transform="matrix(1.0, 0.0, 0.0, 1.0, 48.05, 110.1)">
    <path d="M42.7 -103.15 Q52.15 -109.75 63.6 -109.95 65.1 -110.35 66.35 -109.5 69.0 -107.95 70.35 -105.1 75.2 -95.1 76.85 -83.95 80.2 -60.95 80.0 -37.5 L86.1 -30.25 Q90.65 -24.15 94.1 -17.45 101.7 -2.85 106.4 12.75 107.35 15.85 109.05 18.6 112.6 24.2 115.1 30.75 122.5 50.05 121.85 70.25 114.55 68.9 108.85 64.0 102.05 58.25 96.55 51.35 88.45 41.4 87.1 29.0 L75.85 13.5 Q73.8 24.2 71.05 34.6 68.0 46.0 63.15 56.75 L59.95 63.2 Q56.8 69.25 51.75 73.6 47.8 77.0 43.1 79.15 38.95 81.15 34.5 81.85 26.95 82.9 19.5 81.25 3.6 77.55 -10.5 69.75 -15.65 66.9 -20.5 63.55 L-22.4 62.2 Q-29.95 56.75 -35.75 49.7 -38.75 46.05 -41.3 42.0 -43.7 38.2 -45.1 34.0 -49.0 22.4 -47.75 10.25 -46.9 1.9 -43.65 -5.95 -33.6 -30.3 -15.9 -50.0 L-18.9 -49.15 Q-30.35 -33.4 -46.35 -22.4 L-46.9 -22.85 Q-47.3 -35.5 -39.4 -45.5 -31.4 -55.6 -20.25 -61.9 L1.3 -73.7 Q5.8 -76.1 9.95 -79.0 20.55 -86.4 30.7 -94.3 36.55 -98.9 42.7 -103.15" fill="#2e47aa" fill-rule="evenodd" stroke="none"/>
  </g>
</svg>
