<?xml version="1.0" encoding="UTF-8" standalone="no"?>
<svg xmlns:ffdec="https://www.free-decompiler.com/flash" xmlns:xlink="http://www.w3.org/1999/xlink" ffdec:objectType="shape" height="193.7px" width="161.3px" xmlns="http://www.w3.org/2000/svg">
  <g transform="matrix(1.0, 0.0, 0.0, 1.0, 45.1, 117.65)">
    <path d="M54.55 -107.65 Q64.05 -113.6 74.75 -116.7 L80.5 -117.65 Q87.3 -107.85 88.95 -95.9 90.95 -81.45 90.7 -66.7 L90.25 -46.9 Q96.6 -40.75 99.9 -32.55 104.1 -22.05 107.25 -11.15 109.45 -3.4 110.75 4.75 114.35 8.1 114.4 13.5 114.5 20.9 115.25 28.3 116.25 38.7 116.2 49.1 116.2 50.2 115.85 51.1 115.45 52.05 114.45 52.5 105.25 47.4 99.15 38.4 96.15 34.1 94.25 29.2 L92.1 23.1 Q90.75 19.05 92.25 15.1 L86.0 4.85 86.0 4.35 84.25 2.0 Q81.15 22.35 73.45 41.65 71.35 46.85 68.55 51.6 66.25 55.45 63.4 59.1 L63.0 59.55 Q55.0 69.65 42.9 74.15 39.7 75.3 36.35 75.8 26.1 76.7 16.0 74.05 7.65 71.9 -0.1 68.0 L-6.45 64.55 Q-10.35 62.25 -13.9 59.7 -25.45 51.45 -34.3 40.25 L-39.15 33.6 Q-46.5 22.65 -44.75 9.6 -41.75 -12.4 -27.55 -30.1 L-13.6 -47.0 -6.75 -54.9 -9.5 -54.15 Q-23.65 -36.8 -40.5 -22.05 L-42.05 -20.9 -42.55 -21.05 Q-44.3 -25.7 -41.6 -30.45 L-36.25 -40.3 Q-32.25 -48.25 -26.65 -55.1 -23.6 -58.85 -19.6 -61.6 -7.2 -70.0 6.7 -75.7 13.45 -78.45 19.6 -82.2 26.75 -86.7 33.3 -92.2 43.4 -100.7 54.55 -107.65" fill="#2e47aa" fill-rule="evenodd" stroke="none"/>
  </g>
</svg>
