<?xml version="1.0" encoding="UTF-8" standalone="no"?>
<svg xmlns:ffdec="https://www.free-decompiler.com/flash" xmlns:xlink="http://www.w3.org/1999/xlink" ffdec:objectType="shape" height="194.85px" width="155.45px" xmlns="http://www.w3.org/2000/svg">
  <g transform="matrix(1.0, 0.0, 0.0, 1.0, 45.6, 119.9)">
    <path d="M51.05 -109.9 Q62.4 -116.8 75.25 -119.9 79.25 -112.85 81.85 -105.15 84.95 -95.85 86.15 -85.95 88.25 -68.3 87.0 -50.5 94.85 -43.45 98.35 -33.5 L104.6 -16.35 Q108.5 -5.95 109.5 5.05 110.45 15.6 108.75 26.0 L107.85 26.6 Q102.7 25.85 98.25 23.0 93.5 20.05 90.65 15.15 87.55 9.8 88.25 3.5 L83.25 -3.5 Q80.8 14.15 75.2 31.25 71.65 42.15 66.35 52.3 L63.25 57.6 Q61.2 60.6 58.8 63.3 54.8 67.75 49.45 70.85 45.95 72.9 42.2 73.95 L38.05 74.55 Q20.65 76.4 4.55 69.7 -1.1 67.35 -6.35 64.45 L-14.05 59.8 Q-20.6 55.4 -26.5 50.05 -30.9 46.0 -34.45 41.35 -39.45 34.8 -42.75 27.05 -45.6 20.35 -45.6 12.95 -45.6 -1.05 -38.95 -13.2 -33.4 -23.5 -26.55 -32.8 L-8.25 -57.4 -9.9 -56.9 -13.8 -51.4 Q-24.85 -36.0 -38.2 -22.45 L-39.25 -23.0 Q-40.0 -29.95 -38.5 -36.85 -36.2 -47.75 -28.95 -56.15 -20.25 -66.15 -7.95 -71.35 3.2 -76.1 13.25 -82.5 23.5 -89.1 32.8 -96.9 41.45 -104.15 51.05 -109.9" fill="#2e47aa" fill-rule="evenodd" stroke="none"/>
  </g>
</svg>
