<?xml version="1.0" encoding="UTF-8" standalone="no"?>
<svg xmlns:ffdec="https://www.free-decompiler.com/flash" xmlns:xlink="http://www.w3.org/1999/xlink" ffdec:objectType="shape" height="195.7px" width="139.85px" xmlns="http://www.w3.org/2000/svg">
  <g transform="matrix(1.0, 0.0, 0.0, 1.0, 47.55, 116.75)">
    <path d="M41.45 -104.95 Q51.45 -113.3 63.8 -116.6 66.5 -117.25 68.45 -115.25 74.25 -109.1 76.35 -100.55 78.9 -89.9 80.2 -78.95 81.5 -68.3 81.5 -57.6 L81.6 -45.75 Q87.6 -37.15 90.75 -27.15 95.5 -12.25 85.65 0.1 83.7 2.55 81.0 4.4 79.8 5.1 78.35 5.0 74.95 25.65 68.45 45.45 66.4 51.65 63.15 57.15 60.9 61.0 58.0 64.55 52.3 71.5 44.45 75.55 40.95 77.3 36.95 78.2 L27.05 78.8 Q12.9 78.05 0.2 72.0 -4.4 69.75 -8.75 67.2 -13.15 64.6 -17.2 61.7 -25.9 55.45 -33.4 47.65 L-35.15 45.75 Q-42.65 37.05 -45.95 26.1 -47.75 20.25 -47.55 14.2 -47.2 3.7 -42.85 -5.9 -29.45 -35.35 -8.6 -59.95 8.1 -79.65 28.7 -95.4 L41.45 -104.95" fill="#2e47aa" fill-rule="evenodd" stroke="none"/>
  </g>
</svg>
