<?xml version="1.0" encoding="UTF-8" standalone="no"?>
<svg xmlns:ffdec="https://www.free-decompiler.com/flash" xmlns:xlink="http://www.w3.org/1999/xlink" ffdec:objectType="shape" height="181.7px" width="177.8px" xmlns="http://www.w3.org/2000/svg">
  <g transform="matrix(1.0, 0.0, 0.0, 1.0, 51.35, 88.5)">
    <path d="M40.6 -79.85 Q45.15 -78.5 46.25 -73.9 L50.4 -69.9 51.7 -66.75 51.85 -66.15 Q53.0 -59.9 49.55 -55.3 L49.25 -54.75 54.7 -22.75 55.85 -12.45 Q75.25 -0.7 90.55 16.4 106.8 10.45 124.0 9.85 125.45 9.8 126.45 10.9 L126.05 11.95 Q119.7 19.45 111.9 25.55 103.7 31.95 94.35 36.25 L90.85 37.75 Q85.0 40.05 79.7 37.0 L78.35 36.25 Q68.3 30.75 56.7 25.7 56.75 28.05 56.4 30.3 L55.35 36.25 54.0 42.4 Q50.5 62.75 39.15 80.1 L38.3 81.4 Q32.7 89.05 23.4 91.65 15.65 93.9 7.65 92.9 2.3 91.95 -2.7 89.45 -15.65 83.0 -27.05 73.7 -35.6 66.75 -41.5 57.4 -46.35 49.8 -48.8 41.15 -51.5 31.7 -51.35 21.85 -51.2 10.45 -47.05 -0.1 -42.55 -11.45 -36.85 -22.3 -31.1 -33.3 -24.05 -43.7 -13.85 -58.8 -0.7 -71.2 3.35 -75.05 7.75 -78.35 13.05 -82.35 18.8 -85.6 22.65 -87.75 26.95 -88.3 36.85 -89.7 39.85 -80.0 L40.6 -79.85" fill="#2e47aa" fill-rule="evenodd" stroke="none"/>
  </g>
</svg>
