<?xml version="1.0" encoding="UTF-8" standalone="no"?>
<svg xmlns:ffdec="https://www.free-decompiler.com/flash" xmlns:xlink="http://www.w3.org/1999/xlink" ffdec:objectType="shape" height="168.75px" width="212.95px" xmlns="http://www.w3.org/2000/svg">
  <g transform="matrix(1.0, 0.0, 0.0, 1.0, 58.85, 68.5)">
    <path d="M5.7 -61.0 Q7.55 -61.0 8.25 -57.9 L8.55 -57.15 8.55 -56.75 Q25.75 -30.8 45.25 15.9 L67.55 23.4 Q86.6 13.6 106.5 5.55 126.8 -2.75 147.55 -9.75 L147.85 -9.75 149.0 -10.0 Q149.75 -10.25 150.35 -10.7 151.95 -11.85 153.1 -10.45 154.05 -9.3 154.1 -7.9 151.5 -4.4 148.55 -2.6 L148.1 -2.25 147.95 -2.2 Q130.9 10.7 112.95 22.15 96.75 32.45 79.7 41.4 78.7 41.95 77.55 42.1 L69.4 42.7 47.55 38.1 Q45.8 58.6 32.85 67.0 27.45 77.85 21.6 85.15 -1.3 113.75 -30.75 88.25 -55.15 64.85 -57.45 44.7 -62.75 36.55 -48.0 -10.0 L-47.9 -10.15 -47.75 -10.75 -47.6 -11.15 -47.45 -11.75 -47.45 -12.0 -47.3 -12.6 Q-43.9 -36.75 -28.0 -61.3 -13.3 -76.3 -0.45 -60.0 L5.7 -61.0" fill="#2e47aa" fill-rule="evenodd" stroke="none"/>
  </g>
</svg>
