<?xml version="1.0" encoding="UTF-8" standalone="no"?>
<svg xmlns:ffdec="https://www.free-decompiler.com/flash" xmlns:xlink="http://www.w3.org/1999/xlink" ffdec:objectType="shape" height="168.35px" width="173.6px" xmlns="http://www.w3.org/2000/svg">
  <g transform="matrix(1.0, 0.0, 0.0, 1.0, 59.45, 69.0)">
    <path d="M2.0 -61.0 Q3.1 -61.4 4.25 -57.65 L4.25 -57.25 4.3 -56.9 Q26.55 -24.35 42.1 10.5 50.35 4.85 59.1 -0.1 L77.95 -10.4 94.9 -19.15 Q101.0 -22.15 106.8 -25.6 110.45 -27.7 113.45 -25.45 114.35 -24.85 114.1 -23.95 110.85 -13.55 104.1 -4.75 96.1 5.65 87.65 15.4 79.65 24.55 69.7 31.5 60.5 38.05 50.45 35.35 L47.0 34.2 Q44.0 62.35 30.5 67.85 27.05 78.2 21.45 85.2 10.6 98.7 -8.4 99.35 -34.25 98.35 -56.15 53.25 -67.75 40.6 -38.75 -49.75 -26.9 -82.0 -4.15 -60.25 L2.0 -61.0" fill="#2e47aa" fill-rule="evenodd" stroke="none"/>
  </g>
</svg>
