<?xml version="1.0" encoding="UTF-8" standalone="no"?>
<svg xmlns:ffdec="https://www.free-decompiler.com/flash" xmlns:xlink="http://www.w3.org/1999/xlink" ffdec:objectType="shape" height="210.5px" width="165.45px" xmlns="http://www.w3.org/2000/svg">
  <g transform="matrix(1.0, 0.0, 0.0, 1.0, 69.0, 121.4)">
    <path d="M19.55 -74.45 L26.85 -70.75 28.0 -69.9 29.55 -61.45 28.55 -58.15 36.0 -43.0 Q48.85 -60.8 65.0 -75.45 L65.0 -75.75 Q81.2 -109.85 95.45 -121.4 99.25 -103.6 88.85 -80.65 L72.4 -45.0 Q66.35 -32.3 48.4 -11.75 L51.2 -0.1 Q54.25 12.8 55.6 25.95 56.4 34.0 56.25 42.05 L56.2 43.5 55.75 51.2 Q55.2 57.9 53.1 64.5 50.2 73.5 44.2 79.25 38.6 84.6 30.35 87.15 19.45 90.55 8.25 88.05 L3.65 87.0 -3.15 85.45 -4.55 85.2 Q-14.05 83.15 -23.0 79.3 -41.55 71.1 -51.5 53.7 -54.65 48.1 -56.0 41.8 -62.85 9.4 -51.15 -22.0 -56.15 -10.35 -64.3 -1.0 L-65.45 -1.0 Q-68.0 -4.3 -68.65 -8.5 -70.55 -21.4 -61.6 -31.25 L-58.05 -34.7 Q-49.1 -42.5 -39.85 -49.95 -34.5 -54.2 -29.9 -59.2 -22.2 -67.55 -13.5 -74.9 -9.55 -78.2 -5.0 -80.05 7.8 -85.5 18.0 -76.0 L19.1 -74.45 19.55 -74.45" fill="#2e47aa" fill-rule="evenodd" stroke="none"/>
    <path d="M18.0 -76.0 L19.55 -74.45 19.1 -74.45 18.0 -76.0" fill="#000000" fill-rule="evenodd" stroke="none"/>
  </g>
</svg>
