<?xml version="1.0" encoding="UTF-8" standalone="no"?>
<svg xmlns:ffdec="https://www.free-decompiler.com/flash" xmlns:xlink="http://www.w3.org/1999/xlink" ffdec:objectType="shape" height="184.35px" width="133.9px" xmlns="http://www.w3.org/2000/svg">
  <g transform="matrix(1.0, 0.0, 0.0, 1.0, 63.9, 80.9)">
    <path d="M18.0 -77.0 L23.65 -72.5 23.5 -72.2 Q26.8 -71.55 29.0 -69.0 L29.5 -68.35 31.0 -65.2 Q32.7 -60.25 30.3 -55.5 L30.8 -54.7 37.15 -41.0 41.55 -28.4 Q44.55 -19.65 47.9 -11.15 58.15 14.95 65.4 41.5 65.9 43.1 67.85 53.2 69.8 63.25 70.0 78.7 70.2 94.15 66.85 103.45 L63.4 100.5 Q54.0 92.2 49.0 80.6 L47.95 77.6 47.15 75.0 44.6 78.9 44.4 79.2 41.75 82.05 Q29.15 93.4 11.8 90.85 2.95 89.8 -5.4 86.65 -18.2 81.8 -30.1 75.1 -40.85 69.05 -48.1 59.0 -54.1 50.7 -55.65 40.6 -60.0 12.1 -51.5 -15.5 L-58.7 -5.85 -59.7 -5.85 Q-63.6 -9.55 -63.85 -14.9 -64.45 -26.9 -55.95 -36.0 -48.15 -44.4 -37.9 -49.95 -30.6 -53.9 -25.55 -60.35 -18.05 -70.0 -7.7 -76.75 4.9 -84.95 18.0 -77.0" fill="#2e47aa" fill-rule="evenodd" stroke="none"/>
  </g>
</svg>
