<?xml version="1.0" encoding="UTF-8" standalone="no"?>
<svg xmlns:ffdec="https://www.free-decompiler.com/flash" xmlns:xlink="http://www.w3.org/1999/xlink" ffdec:objectType="shape" height="141.35px" width="170.5px" xmlns="http://www.w3.org/2000/svg">
  <g transform="matrix(1.0, 0.0, 0.0, 1.0, 48.15, 54.0)">
    <path d="M1.3 87.0 L-0.7 86.65 -1.7 86.3 -3.35 85.5 -6.85 83.0 -10.0 79.0 -11.2 76.15 -11.35 75.65 -11.5 75.3 -11.5 75.0 -11.85 73.3 -11.7 72.3 -11.7 72.0 -10.7 70.0 -10.5 69.75 Q3.6 77.55 19.5 81.25 26.95 82.9 34.5 81.85 38.95 81.15 43.1 79.15 47.8 77.0 51.75 73.6 56.8 69.25 59.95 63.2 L63.15 56.75 Q64.5 65.0 58.3 70.8 41.15 85.3 1.8 87.15 L1.3 87.0 M-35.75 49.7 Q-29.95 56.75 -22.4 62.2 L-20.5 63.55 -23.35 65.15 -24.35 65.0 -26.2 64.5 -26.7 64.3 -30.7 61.8 -33.5 58.8 -35.35 55.0 -35.5 54.5 -35.85 50.15 -35.75 49.7" fill="#e58508" fill-rule="evenodd" stroke="none"/>
    <path d="M89.35 40.5 L90.1 40.85 Q95.25 51.1 113.35 65.1 L118.6 69.0 Q122.0 69.0 122.35 66.5 L122.35 69.6 122.0 70.25 121.1 70.6 Q93.25 53.6 89.35 40.5 M-35.5 48.1 Q-37.8 45.15 -39.45 41.8 -44.7 31.0 -46.95 19.4 L-48.15 12.0 Q-47.0 19.2 -44.7 25.95 -42.45 32.55 -38.7 38.5 -29.95 52.5 -15.75 60.75 -5.9 66.6 4.6 70.3 14.3 73.6 24.45 75.4 31.0 76.8 37.3 74.9 55.75 69.2 63.15 51.25 71.3 31.6 74.85 10.5 L78.0 15.35 77.5 15.6 76.0 13.6 Q74.15 24.3 70.8 34.5 66.65 47.05 62.65 59.5 58.6 72.3 46.9 78.45 42.3 80.8 37.35 82.0 25.6 84.95 13.4 86.95 7.4 87.85 1.6 86.7 -10.95 84.45 -10.9 72.3 -10.9 71.0 -10.5 69.75 L-19.5 63.75 -23.0 65.25 -28.25 62.55 Q-30.9 61.0 -32.9 58.65 -36.75 54.05 -35.5 48.1 M-12.65 -54.0 L-15.5 -50.15 -18.65 -49.25 -28.25 -38.65 -42.4 -24.75 -45.65 -22.5 Q-49.4 -22.9 -46.65 -30.5 -42.9 -29.65 -27.65 -45.25 L-26.95 -45.9 Q-26.2 -47.2 -28.75 -48.75 L-29.5 -50.0 -18.9 -52.15 -12.65 -54.0" fill="#000000" fill-opacity="0.49803922" fill-rule="evenodd" stroke="none"/>
  </g>
</svg>
