<?xml version="1.0" encoding="UTF-8" standalone="no"?>
<svg xmlns:ffdec="https://www.free-decompiler.com/flash" xmlns:xlink="http://www.w3.org/1999/xlink" ffdec:objectType="shape" height="46.9px" width="99.25px" xmlns="http://www.w3.org/2000/svg">
  <g transform="matrix(1.0, 0.0, 0.0, 1.0, 35.85, -40.25)">
    <path d="M1.3 87.0 L-0.7 86.65 -1.7 86.3 -3.35 85.5 -6.85 83.0 -10.0 79.0 -11.2 76.15 -11.35 75.65 -11.5 75.3 -11.5 75.0 -11.85 73.3 -11.7 72.3 -11.7 72.0 -10.7 70.0 -6.45 64.55 -0.1 68.0 Q7.65 71.9 16.0 74.05 26.1 76.7 36.35 75.8 39.7 75.3 42.9 74.15 55.0 69.65 63.0 59.55 L63.4 59.1 Q63.6 65.85 58.3 70.8 41.15 85.3 1.8 87.15 L1.3 87.0 M-35.85 50.15 L-34.3 40.25 Q-25.45 51.45 -13.9 59.7 L-23.35 65.15 -24.35 65.0 -26.2 64.5 -26.7 64.3 -30.7 61.8 -33.5 58.8 -35.35 55.0 -35.5 54.5 -35.85 50.15" fill="#e58508" fill-rule="evenodd" stroke="none"/>
  </g>
</svg>
