<?xml version="1.0" encoding="UTF-8" standalone="no"?>
<svg xmlns:ffdec="https://www.free-decompiler.com/flash" xmlns:xlink="http://www.w3.org/1999/xlink" ffdec:objectType="shape" height="147.45px" width="155.9px" xmlns="http://www.w3.org/2000/svg">
  <g transform="matrix(1.0, 0.0, 0.0, 1.0, 45.9, 60.5)">
    <path d="M82.8 -2.2 Q85.25 -14.85 86.0 -28.0 L86.1 -1.9 92.35 4.35 92.0 4.6 Q86.15 2.75 82.8 -2.2 M109.35 23.5 L108.75 25.85 107.85 26.6 Q88.75 19.75 89.1 12.1 101.1 22.35 109.6 -1.5 L110.0 5.85 109.35 23.5 M-16.0 -50.75 L-17.0 -53.15 -21.9 -57.0 -5.4 -60.5 Q-20.25 -41.8 -36.05 -23.85 -36.95 -22.85 -38.25 -22.7 L-39.5 -23.25 -40.0 -25.0 -37.9 -24.0 Q-34.7 -26.7 -32.35 -30.4 -25.3 -41.45 -16.0 -50.75 M81.8 2.5 L81.35 4.8 Q79.05 16.7 75.5 28.3 72.15 39.1 67.3 49.65 63.3 58.3 60.75 67.6 59.8 71.05 56.6 73.15 45.55 80.55 32.5 82.95 20.2 85.45 7.55 86.75 2.2 87.55 -2.65 85.3 -13.2 80.7 -10.0 70.0 -9.45 73.1 -7.6 75.55 L-6.15 77.5 -7.0 80.75 Q-1.4 84.85 6.0 83.9 L20.35 82.5 Q5.85 74.95 -10.0 70.0 L-6.5 64.1 -13.65 60.1 -19.0 61.85 Q-30.2 65.4 -34.95 55.3 L-33.35 57.3 -31.65 56.0 -30.15 56.0 -28.25 57.35 -27.75 57.35 -34.65 50.35 -35.9 50.1 -34.5 41.35 Q-44.5 30.05 -45.9 15.0 -44.15 20.95 -41.0 26.3 -37.8 31.8 -33.7 36.55 -25.25 46.4 -14.45 53.75 0.1 63.75 17.1 68.6 27.75 71.65 38.75 70.35 45.85 69.2 51.55 64.5 60.6 57.2 65.9 46.7 76.7 25.45 81.8 2.5" fill="#000000" fill-opacity="0.49803922" fill-rule="evenodd" stroke="none"/>
  </g>
</svg>
