<?xml version="1.0" encoding="UTF-8" standalone="no"?>
<svg xmlns:ffdec="https://www.free-decompiler.com/flash" xmlns:xlink="http://www.w3.org/1999/xlink" ffdec:objectType="shape" height="125.6px" width="140.95px" xmlns="http://www.w3.org/2000/svg">
  <g transform="matrix(1.0, 0.0, 0.0, 1.0, 47.7, 38.5)">
    <path d="M83.5 -37.9 L83.5 -38.5 84.1 -38.4 85.1 -17.0 Q85.25 -11.0 86.1 -10.4 93.6 -18.4 90.1 -38.0 L92.5 -26.9 93.25 -18.9 92.85 -13.65 90.75 -6.4 Q88.6 -3.65 88.85 -2.5 L81.85 6.6 78.75 9.85 74.85 27.25 71.1 39.35 68.1 47.1 63.0 56.5 63.0 61.6 60.85 67.6 Q56.85 81.1 4.25 87.1 -19.5 81.5 -6.4 64.25 L-11.9 61.6 -13.9 60.25 -18.4 63.1 Q-22.15 65.25 -23.4 65.25 L-26.75 64.35 Q-31.0 62.1 -32.75 59.6 L-32.65 59.35 -34.25 57.6 -34.55 56.55 Q-33.05 58.95 -31.4 55.75 -34.9 51.85 -35.75 52.25 L-35.9 50.5 -34.75 42.75 Q-49.75 22.75 -47.4 16.0 -42.75 39.25 -0.75 61.85 28.85 74.5 47.75 66.5 78.85 47.35 83.5 -37.9 M89.75 -7.65 Q89.5 -6.75 86.25 -6.0 L86.5 -2.75 89.6 -6.75 89.75 -7.65 M19.75 82.6 L22.6 81.85 Q6.85 75.45 -10.0 70.5 -7.9 73.3 -6.4 76.5 -5.45 78.6 -6.7 80.45 L-7.0 80.75 Q-3.25 84.1 1.1 84.6 L19.75 82.6" fill="#000000" fill-opacity="0.49803922" fill-rule="evenodd" stroke="none"/>
  </g>
</svg>
