<?xml version="1.0" encoding="UTF-8" standalone="no"?>
<svg xmlns:ffdec="https://www.free-decompiler.com/flash" xmlns:xlink="http://www.w3.org/1999/xlink" ffdec:objectType="shape" height="147.6px" width="132.55px" xmlns="http://www.w3.org/2000/svg">
  <g transform="matrix(1.0, 0.0, 0.0, 1.0, 47.7, 60.5)">
    <path d="M83.25 -60.4 L83.6 -60.5 Q90.25 -9.65 60.85 67.6 56.85 81.1 4.25 87.1 -19.5 81.5 -6.4 64.25 L-11.9 61.6 -13.9 60.25 -18.4 63.1 Q-22.15 65.25 -23.4 65.25 L-26.75 64.35 Q-31.0 62.1 -32.75 59.6 L-32.65 59.35 -34.25 57.6 -34.55 56.55 Q-33.05 58.95 -31.4 55.75 -34.9 51.85 -35.75 52.25 L-35.9 50.5 -34.75 43.0 Q-49.75 22.6 -47.4 16.1 -42.65 39.25 -1.0 61.75 28.6 74.75 48.5 66.25 64.35 59.6 74.25 24.0 L76.0 16.0 76.5 15.5 80.0 -1.4 82.6 -19.15 83.75 -39.0 83.25 -60.4 M19.75 82.6 L22.6 81.85 Q6.85 75.45 -10.0 70.5 -7.9 73.3 -6.4 76.5 -5.45 78.6 -6.7 80.45 L-7.0 80.75 Q-3.25 84.1 1.1 84.6 L19.75 82.6" fill="#000000" fill-opacity="0.49803922" fill-rule="evenodd" stroke="none"/>
  </g>
</svg>
