<?xml version="1.0" encoding="UTF-8" standalone="no"?>
<svg xmlns:ffdec="https://www.free-decompiler.com/flash" xmlns:xlink="http://www.w3.org/1999/xlink" ffdec:objectType="shape" height="125.0px" width="131.3px" xmlns="http://www.w3.org/2000/svg">
  <g transform="matrix(1.0, 0.0, 0.0, 1.0, 47.7, 37.9)">
    <path d="M19.75 79.85 L4.3 75.3 -10.0 70.5 -8.6 72.5 -7.95 73.35 Q-5.15 76.8 -6.7 80.45 L-7.0 80.75 Q-5.35 82.0 -3.45 82.8 -1.3 83.75 1.1 84.25 L1.75 84.6 22.6 81.85 19.75 79.85 M83.6 -37.9 L83.35 -22.0 81.75 -7.15 78.35 12.6 74.85 27.25 71.6 38.0 68.0 47.5 63.0 56.5 63.0 61.6 60.85 67.6 Q56.85 81.1 4.25 87.1 -19.5 81.5 -6.4 64.25 L-11.9 61.6 -13.9 60.25 -18.4 63.1 Q-22.15 65.25 -23.4 65.25 L-26.75 64.35 Q-31.0 62.1 -32.75 59.6 L-32.65 59.35 -34.25 57.6 -34.55 56.55 Q-33.05 58.95 -31.4 55.75 -34.9 51.85 -35.75 52.25 L-35.9 50.5 -34.75 42.75 Q-49.75 22.75 -47.4 16.0 -42.5 39.35 -1.25 61.6 28.85 74.75 48.5 66.25 61.25 60.85 69.85 37.0 L73.35 27.0 76.0 16.0 76.5 15.5 79.85 -0.75 82.75 -20.5 83.6 -37.9" fill="#000000" fill-opacity="0.49803922" fill-rule="evenodd" stroke="none"/>
  </g>
</svg>
