<?xml version="1.0" encoding="UTF-8" standalone="no"?>
<svg xmlns:ffdec="https://www.free-decompiler.com/flash" xmlns:xlink="http://www.w3.org/1999/xlink" ffdec:objectType="shape" height="168.0px" width="153.3px" xmlns="http://www.w3.org/2000/svg">
  <g transform="matrix(1.0, 0.0, 0.0, 1.0, 49.15, 80.9)">
    <path d="M74.25 -60.0 L72.4 -80.9 73.15 -79.85 Q80.1 -70.0 74.25 -60.0 M31.5 82.4 Q44.45 81.4 52.9 71.15 58.9 63.8 62.8 55.0 64.8 63.95 58.35 70.75 L58.35 70.85 58.1 71.1 Q41.75 85.1 1.75 87.1 -8.15 87.25 -11.05 72.15 -3.0 77.1 6.35 79.7 18.65 83.35 31.5 82.4 M-23.4 65.25 Q-37.25 60.25 -35.75 49.5 L-35.6 48.7 -33.15 52.0 Q-27.9 58.7 -21.6 64.25 L-23.4 65.25" fill="#e58508" fill-rule="evenodd" stroke="none"/>
    <path d="M75.25 -12.3 L76.25 -1.15 Q85.4 4.25 95.0 3.25 L92.1 6.25 Q89.4 8.25 87.1 8.55 L85.55 11.25 86.25 12.0 Q92.1 11.7 96.7 3.25 L96.85 2.85 96.25 2.25 95.25 2.15 Q97.45 2.3 99.4 -4.25 99.6 7.7 89.0 13.7 L86.25 13.55 85.55 12.25 84.55 11.7 84.1 8.0 77.25 4.0 75.1 2.25 74.55 2.25 74.0 8.85 71.4 23.85 68.4 36.4 65.25 46.85 62.55 53.55 63.1 56.7 63.0 61.85 60.85 67.7 57.7 71.85 Q42.7 84.1 4.25 87.1 L-0.45 86.85 Q-1.45 87.0 -5.45 84.1 -12.15 79.25 -11.45 71.4 -23.6 61.55 -26.6 64.4 L-30.9 61.85 Q-30.75 61.1 -33.45 58.85 -31.9 54.1 -45.75 34.4 L-48.75 24.55 -49.15 22.4 -49.15 14.55 Q-46.75 39.25 -27.9 54.7 L-18.75 61.0 4.55 73.25 15.85 77.25 27.55 77.85 37.0 76.25 Q64.1 72.0 74.7 -11.9 L74.7 -12.45 75.25 -12.3" fill="#000000" fill-opacity="0.49803922" fill-rule="evenodd" stroke="none"/>
    <path d="M95.2 -30.1 Q96.2 -21.25 94.4 -15.0 L77.65 -35.2 81.2 -35.45 Q89.3 -35.5 95.2 -30.1" fill="#ffffff" fill-rule="evenodd" stroke="none"/>
    <path d="M94.4 -15.0 Q96.2 -21.25 95.2 -30.1 104.4 -21.3 101.45 -8.8 L100.95 -7.1 94.4 -15.0" fill="#cccccc" fill-rule="evenodd" stroke="none"/>
    <path d="M100.95 -7.1 L101.45 -8.8 Q104.4 -21.3 95.2 -30.1 89.3 -35.5 81.2 -35.45 L77.65 -35.2" fill="none" stroke="#333333" stroke-linecap="round" stroke-linejoin="round" stroke-width="4.0"/>
  </g>
</svg>
