<?xml version="1.0" encoding="UTF-8" standalone="no"?>
<svg xmlns:ffdec="https://www.free-decompiler.com/flash" xmlns:xlink="http://www.w3.org/1999/xlink" ffdec:objectType="shape" height="223.85px" width="173.25px" xmlns="http://www.w3.org/2000/svg">
  <g transform="matrix(1.0, 0.0, 0.0, 1.0, 61.7, 130.0)">
    <path d="M17.7 -62.6 L16.0 -63.45 13.7 -65.6 14.0 -66.3 13.55 -67.0 Q26.85 -71.4 35.55 -60.95 40.25 -55.25 38.15 -48.35 35.55 -39.95 28.0 -35.45 L26.0 -34.15 18.85 -47.75 Q22.55 -51.6 20.55 -58.3 20.55 -60.1 19.75 -61.35 18.9 -62.6 17.7 -62.6 M52.35 37.25 Q70.6 57.85 58.35 70.75 L58.35 70.85 58.1 71.1 Q51.2 77.0 40.05 80.8 42.05 78.2 43.4 75.15 47.6 65.7 48.2 55.35 48.7 46.75 48.0 38.0 49.05 36.7 49.5 34.5 L52.35 37.25" fill="#e58508" fill-rule="evenodd" stroke="none"/>
    <path d="M16.0 -63.45 L17.7 -62.6 20.55 -58.3 Q22.55 -51.6 18.85 -47.75 L17.85 -49.15 Q20.8 -56.75 16.0 -63.45 M9.7 -69.0 L12.1 -67.75 13.7 -65.6 11.1 -66.3 9.7 -69.0" fill="#ffffff" fill-rule="evenodd" stroke="none"/>
    <path d="M20.55 -58.3 L17.7 -62.6 Q18.9 -62.6 19.75 -61.35 20.55 -60.1 20.55 -58.3 M13.7 -65.6 L12.1 -67.75 9.7 -69.0 Q11.3 -69.0 12.45 -68.4 13.55 -67.85 13.55 -67.0 L14.0 -66.3 13.7 -65.6" fill="#000000" fill-rule="evenodd" stroke="none"/>
    <path d="M32.85 -40.45 Q37.55 -45.0 37.55 -46.3 L38.0 -46.3 Q36.4 -42.0 28.0 -35.6 L30.1 -31.0 29.0 -29.75 28.1 -29.9 25.85 -35.15 32.85 -40.45 M111.55 -130.0 L108.4 -114.3 101.4 -88.15 91.7 -62.15 83.55 -49.45 82.1 -47.9 77.85 -44.75 76.25 -42.3 60.85 -25.15 46.4 -11.15 39.1 -5.15 39.25 -4.75 38.7 -4.75 Q52.4 27.25 48.85 34.0 L55.4 40.4 58.1 44.1 61.25 50.0 57.4 51.0 49.55 54.4 Q49.0 54.85 50.4 59.0 L50.1 73.25 Q60.05 68.95 62.1 64.35 L60.85 67.7 58.25 71.1 54.85 74.1 46.25 78.55 39.4 80.85 34.4 86.25 28.55 90.0 Q27.85 91.4 18.0 93.55 L11.4 93.85 Q-29.0 89.85 -51.3 57.55 -65.15 40.55 -54.6 -11.6 -62.6 -15.75 -61.6 -27.0 -61.6 -24.3 -59.3 -23.45 L-56.6 -23.75 Q-55.6 -27.15 -57.6 -32.45 L-56.15 -36.0 Q-55.6 -33.45 -46.75 -35.0 -68.3 16.25 -47.0 57.1 -25.3 86.55 27.25 80.85 52.55 59.85 44.7 20.0 36.0 1.0 17.4 3.55 L26.0 -1.45 34.0 -8.0 37.25 -10.0 43.55 -15.75 44.85 -16.45 55.1 -25.9 61.1 -32.45 61.85 -32.75 71.0 -42.0 Q73.4 -42.75 73.85 -46.15 76.5 -47.3 80.7 -54.3 104.1 -86.45 111.0 -129.45 L111.55 -130.0" fill="#000000" fill-opacity="0.49803922" fill-rule="evenodd" stroke="none"/>
  </g>
</svg>
