<?xml version="1.0" encoding="UTF-8" standalone="no"?>
<svg xmlns:ffdec="https://www.free-decompiler.com/flash" xmlns:xlink="http://www.w3.org/1999/xlink" ffdec:objectType="shape" height="165.3px" width="132.65px" xmlns="http://www.w3.org/2000/svg">
  <g transform="matrix(1.0, 0.0, 0.0, 1.0, 69.4, 75.9)">
    <path d="M56.2 43.5 L56.25 42.05 Q69.15 59.4 58.35 70.75 L58.35 70.85 58.1 71.1 Q52.5 75.9 44.2 79.25 50.2 73.5 53.1 64.5 55.2 57.9 55.75 51.2 L56.2 43.5 M19.55 -74.45 Q33.7 -79.6 40.25 -66.7 44.1 -59.15 39.7 -51.85 37.6 -48.25 35.1 -44.9 L28.55 -58.15 29.55 -61.45 28.0 -69.9 26.85 -70.75 19.55 -74.45" fill="#e58508" fill-rule="evenodd" stroke="none"/>
    <path d="M-49.6 -25.3 L-51.3 -21.75 -51.15 -21.3 Q-54.9 -14.8 -58.95 -8.55 -61.45 -4.65 -64.3 -1.0 -66.25 -1.15 -67.1 -2.9 -70.3 -9.6 -69.0 -16.9 L-67.85 -15.75 Q-64.1 -13.7 -60.7 -17.4 -60.1 -18.1 -59.95 -18.85 -59.2 -22.65 -62.3 -25.6 L-62.6 -27.75 Q-60.2 -25.95 -57.05 -26.85 -51.05 -28.55 -45.45 -31.3 L-49.6 -25.3 M56.25 41.4 L57.4 43.1 59.25 51.7 59.0 67.25 Q61.2 65.95 62.3 63.75 L60.85 67.7 Q39.0 89.4 15.25 89.4 -43.55 86.2 -55.5 40.15 -43.2 75.5 11.55 79.85 60.25 90.0 53.0 6.85 L54.1 11.85 55.55 22.1 56.1 29.4 56.25 41.4 M52.85 6.0 L52.7 6.4 52.4 6.0 52.85 6.0" fill="#000000" fill-opacity="0.49803922" fill-rule="evenodd" stroke="none"/>
  </g>
</svg>
