<?xml version="1.0" encoding="UTF-8" standalone="no"?>
<svg xmlns:ffdec="https://www.free-decompiler.com/flash" xmlns:xlink="http://www.w3.org/1999/xlink" ffdec:objectType="shape" height="166.3px" width="170.95px" xmlns="http://www.w3.org/2000/svg">
  <g transform="matrix(1.0, 0.0, 0.0, 1.0, 67.4, 78.2)">
    <path d="M37.1 -65.0 L37.15 -65.45 Q38.6 -74.75 30.1 -78.15 44.85 -79.1 47.4 -64.15 48.95 -55.05 42.4 -48.6 L36.55 -62.6 37.1 -65.0 M51.65 69.85 Q57.75 60.7 59.35 49.85 L59.7 47.3 Q67.45 61.15 58.35 70.75 L58.35 70.85 58.1 71.1 Q51.65 76.6 41.55 80.3 47.4 76.25 51.65 69.85" fill="#e58508" fill-rule="evenodd" stroke="none"/>
    <path d="M63.4 -12.9 Q77.6 -22.6 91.2 -33.15 96.2 -36.95 94.55 -42.3 L97.0 -46.4 98.55 -49.75 98.4 -50.15 97.85 -50.15 96.0 -48.3 Q102.05 -57.95 103.1 -69.45 L103.55 -69.45 Q101.5 -53.05 95.4 -37.95 94.0 -34.45 91.5 -31.85 75.85 -15.85 55.25 -7.15 60.8 18.55 58.55 44.7 L61.8 52.25 63.0 56.0 62.95 56.2 Q62.6 57.65 62.4 59.25 61.85 63.25 59.6 66.1 50.35 77.5 37.4 84.15 33.05 86.45 28.3 87.2 15.25 89.15 2.3 86.8 -3.2 85.9 -8.25 83.45 -18.8 78.3 -28.65 72.15 -36.7 67.05 -43.4 60.2 -52.5 50.85 -55.85 38.2 -59.85 23.05 -57.0 7.7 -56.95 14.6 -56.25 21.75 -55.05 33.95 -49.9 45.1 -44.5 56.7 -34.2 64.45 -24.75 71.45 -13.45 74.4 -2.55 77.3 8.9 77.85 19.55 78.35 30.15 77.45 38.7 77.75 44.0 71.3 51.25 62.35 54.1 50.95 56.8 40.25 57.5 29.25 58.35 16.35 57.05 3.5 56.35 -3.45 50.85 -7.15 L63.4 -12.9 M-58.6 -29.15 Q-57.9 -28.6 -51.6 -30.45 L-40.45 -34.75 Q-44.45 -28.3 -45.9 -28.3 L-56.75 -10.3 -61.0 -4.3 -63.6 -1.9 Q-68.0 -2.0 -67.3 -14.0 L-66.75 -16.75 Q-64.0 -13.15 -54.9 -21.45 L-54.9 -23.9 Q-58.75 -26.45 -58.6 -29.15" fill="#000000" fill-opacity="0.49803922" fill-rule="evenodd" stroke="none"/>
  </g>
</svg>
