<?xml version="1.0" encoding="UTF-8" standalone="no"?>
<svg xmlns:ffdec="https://www.free-decompiler.com/flash" xmlns:xlink="http://www.w3.org/1999/xlink" ffdec:objectType="shape" height="167.55px" width="175.8px" xmlns="http://www.w3.org/2000/svg">
  <g transform="matrix(1.0, 0.0, 0.0, 1.0, 65.95, 80.3)">
    <path d="M57.5 59.95 Q58.9 56.3 59.7 52.55 L60.45 48.75 Q67.0 61.65 58.35 70.75 L58.35 70.85 58.1 71.1 Q52.85 75.6 45.2 78.85 L46.25 77.9 Q52.3 72.4 55.45 64.95 L57.5 59.95 M7.55 86.15 L9.8 86.55 1.75 87.1 Q-4.1 87.2 -7.5 82.0 -0.15 84.55 7.55 86.15 M50.6 -75.1 Q58.85 -63.1 49.7 -52.15 L44.4 -66.6 44.7 -67.75 Q46.4 -74.45 42.85 -78.6 L41.0 -80.3 Q47.15 -80.2 50.6 -75.1" fill="#e58508" fill-rule="evenodd" stroke="none"/>
    <path d="M-54.6 -31.15 L-46.0 -33.45 -36.3 -37.15 Q-40.6 -30.3 -42.3 -30.75 L-56.15 -10.3 -60.6 -4.75 -63.45 -2.6 Q-67.75 -4.75 -64.6 -18.45 -64.75 -14.75 -61.45 -15.75 -53.45 -24.15 -51.45 -23.75 -48.3 -26.0 -54.6 -31.15 M57.7 -1.3 L64.4 -0.45 77.4 0.25 94.1 -1.15 Q97.25 -3.6 99.4 -8.9 99.0 -10.45 103.7 -11.3 L103.7 -13.6 100.85 -14.45 Q106.4 -14.15 106.7 -15.9 116.85 -6.75 94.4 3.7 88.7 5.1 86.25 2.25 L80.1 2.7 61.55 1.55 62.1 7.7 62.1 29.4 61.55 39.0 60.25 48.0 62.1 52.1 63.1 58.4 Q63.4 64.1 58.4 70.85 39.55 86.25 22.85 87.25 L15.85 87.1 11.25 86.55 1.55 87.1 -0.9 86.7 Q-2.9 86.1 -5.45 84.1 L-8.75 80.85 -17.15 77.25 -28.6 71.25 -37.3 64.0 Q-57.9 51.55 -55.75 9.85 -51.15 81.7 27.55 79.0 49.85 73.55 55.0 54.25 65.25 13.4 57.7 -1.3" fill="#000000" fill-opacity="0.49803922" fill-rule="evenodd" stroke="none"/>
  </g>
</svg>
