<?xml version="1.0" encoding="UTF-8" standalone="no"?>
<svg xmlns:ffdec="https://www.free-decompiler.com/flash" xmlns:xlink="http://www.w3.org/1999/xlink" ffdec:objectType="shape" height="166.4px" width="164.85px" xmlns="http://www.w3.org/2000/svg">
  <g transform="matrix(1.0, 0.0, 0.0, 1.0, 65.15, 77.05)">
    <path d="M37.4 -61.3 L38.7 -65.0 Q38.7 -69.95 36.6 -73.45 34.55 -76.95 31.65 -77.0 47.3 -77.9 49.75 -62.7 51.3 -52.85 43.4 -46.6 L37.7 -60.75 37.4 -61.3 M45.5 76.95 Q53.15 66.5 55.9 53.9 56.95 48.9 57.6 43.9 68.55 60.0 58.35 70.75 L58.35 70.85 58.1 71.1 Q52.25 76.1 43.4 79.6 L45.5 76.95" fill="#e58508" fill-rule="evenodd" stroke="none"/>
    <path d="M-55.6 -28.75 L-56.45 -31.3 Q-47.35 -31.5 -38.9 -36.0 -48.6 -18.7 -61.35 -4.3 -67.1 -11.0 -64.15 -19.75 L-62.45 -18.25 Q-59.2 -18.15 -56.35 -19.9 -54.75 -20.95 -53.75 -22.35 -51.0 -26.2 -55.6 -28.75 M86.65 29.95 Q85.75 33.8 81.6 34.7 L71.65 36.15 70.85 32.7 58.55 25.1 57.85 44.0 Q61.7 48.7 63.1 56.7 L63.0 61.85 60.85 67.7 Q34.0 91.55 20.1 89.1 -51.9 79.55 -56.65 27.75 -51.2 68.8 10.85 79.85 37.85 83.25 46.55 67.25 53.55 58.85 56.4 29.85 L55.1 25.55 49.4 16.7 61.4 25.1 64.75 26.9 79.25 33.25 79.0 32.65 Q80.05 32.05 81.4 32.0 L84.45 28.75 Q85.9 26.95 86.5 29.15 L86.65 29.95 M94.85 26.55 Q101.25 37.35 99.2 49.8 L95.55 50.35 93.75 50.45 Q84.55 50.75 77.55 44.7 74.0 41.65 71.95 37.05 L75.8 39.65 78.05 39.5 78.0 38.0 81.55 39.85 Q89.35 38.9 94.85 26.55" fill="#000000" fill-opacity="0.49803922" fill-rule="evenodd" stroke="none"/>
  </g>
</svg>
