<?xml version="1.0" encoding="UTF-8" standalone="no"?>
<svg xmlns:ffdec="https://www.free-decompiler.com/flash" xmlns:xlink="http://www.w3.org/1999/xlink" ffdec:objectType="shape" height="87.15px" width="99.2px" xmlns="http://www.w3.org/2000/svg">
  <g transform="matrix(1.0, 0.0, 0.0, 1.0, 35.85, 0.0)">
    <path d="M-13.85 1.3 L-13.2 1.15 -11.0 0.5 -10.5 0.3 -6.5 0.0 1.65 1.0 6.65 2.65 14.0 6.65 Q23.5 12.5 25.0 19.5 20.8 40.65 -23.35 65.15 L-24.35 65.0 -26.2 64.5 -26.7 64.3 -30.7 61.8 -33.5 58.8 -35.35 55.0 -35.5 54.5 -35.85 50.15 -33.85 37.3 -32.0 30.0 -29.2 21.65 -25.5 13.65 -25.2 13.15 -25.0 13.0 -21.35 7.3 -18.5 4.3 -18.35 4.3 -17.2 3.15 -16.85 3.0 -16.35 2.65 -16.0 2.5 -15.5 2.15 -15.2 2.0 -14.7 1.65 -14.5 1.65 -13.85 1.3 M-9.0 67.5 L-2.0 59.3 -1.7 58.8 1.8 55.15 17.0 40.65 17.3 40.5 17.8 40.0 24.8 34.5 25.0 34.3 28.0 32.3 29.0 31.8 29.15 31.65 29.5 31.5 30.15 31.0 30.65 30.8 31.8 30.15 32.3 30.0 32.65 29.8 33.15 29.65 34.3 29.15 34.8 29.0 35.65 29.0 36.65 28.8 37.0 28.65 Q43.8 28.5 52.5 37.3 70.8 59.15 58.3 70.8 41.15 85.3 1.8 87.15 L1.3 87.0 -0.7 86.65 -1.7 86.3 -3.35 85.5 -6.85 83.0 -10.0 79.0 -11.2 76.15 -11.35 75.65 -11.5 75.3 -11.5 75.0 -11.85 73.3 -11.7 72.3 -11.7 72.0 -10.7 70.0 -9.0 67.5" fill="#e58508" fill-rule="evenodd" stroke="none"/>
  </g>
</svg>
