<?xml version="1.0" encoding="UTF-8" standalone="no"?>
<svg xmlns:ffdec="https://www.free-decompiler.com/flash" xmlns:xlink="http://www.w3.org/1999/xlink" ffdec:objectType="shape" height="204.3px" width="161.7px" xmlns="http://www.w3.org/2000/svg">
  <g transform="matrix(1.0, 0.0, 0.0, 1.0, 45.1, 117.65)">
    <path d="M74.75 -116.7 L80.5 -117.65 Q87.3 -107.85 88.95 -95.9 90.95 -81.45 90.7 -66.7 L90.25 -46.9 Q96.6 -40.75 99.9 -32.55 104.1 -22.05 107.25 -11.15 109.45 -3.4 110.75 4.75 114.35 8.1 114.4 13.5 114.5 20.9 115.25 28.3 116.25 38.7 116.2 49.1 116.2 50.2 115.85 51.1 115.45 52.05 114.45 52.5 105.25 47.4 99.15 38.4 96.15 34.1 94.25 29.2 L92.1 23.1 Q90.75 19.05 92.25 15.1 L86.0 4.85 86.0 4.35 84.25 2.0 Q81.15 22.35 73.45 41.65 71.35 46.85 68.55 51.6 66.1 55.7 63.0 59.55 55.0 69.65 42.9 74.15 39.7 75.3 36.35 75.8 26.1 76.7 16.0 74.05 7.65 71.9 -0.1 68.0 -24.2 55.9 -39.15 33.6 -46.5 22.65 -44.75 9.6 -41.75 -12.4 -27.55 -30.1 L-13.6 -47.0 -6.75 -54.9 -9.5 -54.15 Q-23.65 -36.8 -40.5 -22.05 L-42.05 -20.9 -42.55 -21.05 Q-44.3 -25.7 -41.6 -30.45 L-36.25 -40.3 Q-32.25 -48.25 -26.65 -55.1 -23.6 -58.85 -19.6 -61.6 -7.2 -70.0 6.7 -75.7 13.45 -78.45 19.6 -82.2 26.75 -86.7 33.3 -92.2 43.4 -100.7 54.55 -107.65 64.05 -113.6 74.75 -116.7" fill="#2e47aa" fill-rule="evenodd" stroke="none"/>
    <path d="M-15.75 -51.65 L-19.9 -54.25 -20.1 -54.65 -3.0 -58.75 Q-11.8 -50.25 -20.4 -41.25 L-24.6 -36.85 Q-32.8 -28.45 -41.9 -21.0 L-43.25 -21.4 -42.9 -24.0 -42.9 -23.4 -40.65 -22.65 -16.5 -49.0 -15.9 -49.0 -15.15 -49.65 -15.75 -51.65 M95.35 31.0 L94.85 30.5 95.25 30.5 95.35 31.0 M85.35 2.75 L85.0 3.0 84.35 2.0 84.0 2.25 Q80.15 21.4 73.0 39.6 68.95 50.0 63.35 59.75 62.55 61.1 62.1 62.75 60.0 69.95 53.65 74.15 41.55 82.0 27.35 84.55 16.6 86.55 5.7 86.65 0.3 86.7 -4.4 84.25 -13.05 79.7 -9.95 70.25 L-9.4 72.0 Q-8.35 75.1 -6.15 77.5 L-7.0 80.75 Q-3.55 84.1 1.1 84.0 L18.25 82.85 Q4.5 75.85 -9.85 70.0 L-6.4 64.25 -13.4 60.0 Q-17.1 63.5 -21.9 64.65 L-26.55 64.45 Q-29.05 63.5 -31.1 61.65 -34.55 58.6 -35.65 54.1 L-35.5 53.6 -35.0 53.85 -32.65 57.85 -30.25 56.05 -29.75 56.2 Q-27.35 56.95 -25.4 58.6 L-35.0 48.1 -35.65 48.1 -34.15 39.75 Q-41.3 30.8 -43.55 19.65 L-44.4 13.5 Q-42.4 21.75 -37.95 29.1 -34.15 35.3 -29.15 40.7 -23.15 47.05 -16.05 52.45 2.25 66.4 24.85 71.35 39.05 74.3 51.25 66.45 60.2 60.75 65.1 51.3 80.75 21.2 86.35 -12.5 L85.35 2.75 M114.85 21.0 L115.25 20.0 Q116.85 33.15 116.55 46.35 116.5 49.7 114.75 52.35 102.0 45.1 95.35 31.6 L95.85 31.5 Q102.6 42.5 113.35 50.5 L114.5 50.75 114.6 50.0 115.6 50.0 115.55 49.5 Q115.55 49.25 115.7 49.1 L116.0 49.0 114.85 21.0" fill="#000000" fill-opacity="0.49803922" fill-rule="evenodd" stroke="none"/>
  </g>
</svg>
