<?xml version="1.0" encoding="UTF-8" standalone="no"?>
<svg xmlns:ffdec="https://www.free-decompiler.com/flash" xmlns:xlink="http://www.w3.org/1999/xlink" ffdec:objectType="shape" height="208.85px" width="140.95px" xmlns="http://www.w3.org/2000/svg">
  <g transform="matrix(1.0, 0.0, 0.0, 1.0, 47.7, 121.75)">
    <path d="M30.7 -100.05 L36.6 -104.75 Q46.3 -112.75 57.05 -119.1 63.0 -122.6 69.7 -121.5 72.25 -120.95 73.5 -118.4 78.8 -107.45 80.65 -95.3 82.55 -83.2 83.2 -70.6 L83.75 -52.5 Q87.35 -48.85 88.8 -43.85 92.8 -29.9 92.55 -15.5 92.5 -12.8 92.0 -10.1 91.25 -5.75 88.75 -1.9 L84.65 3.6 Q82.0 6.75 78.85 9.6 76.8 24.3 72.4 38.6 66.9 56.4 52.5 68.15 46.7 72.9 39.35 74.3 32.8 75.4 26.35 74.4 4.65 71.7 -13.9 60.1 -26.9 51.95 -37.25 40.5 -50.7 25.6 -46.8 5.7 -44.25 -7.1 -37.85 -18.4 -24.4 -42.1 -6.95 -63.05 10.05 -83.45 30.7 -100.05" fill="#2e47aa" fill-rule="evenodd" stroke="none"/>
    <path d="M83.5 -37.9 L83.5 -38.5 84.1 -38.4 85.1 -17.0 Q85.25 -11.0 86.1 -10.4 93.6 -18.4 90.1 -38.0 L92.5 -26.9 93.25 -18.9 92.85 -13.65 90.75 -6.4 Q88.6 -3.65 88.85 -2.5 L81.85 6.6 78.75 9.85 74.85 27.25 71.1 39.35 68.1 47.1 63.0 56.5 63.0 61.6 60.85 67.6 Q56.85 81.1 4.25 87.1 -19.5 81.5 -6.4 64.25 L-11.9 61.6 -13.9 60.25 -18.4 63.1 Q-22.15 65.25 -23.4 65.25 L-26.75 64.35 Q-31.0 62.1 -32.75 59.6 L-32.65 59.35 -34.25 57.6 -34.55 56.55 Q-33.05 58.95 -31.4 55.75 -34.9 51.85 -35.75 52.25 L-35.9 50.5 -34.75 42.75 Q-49.75 22.75 -47.4 16.0 -42.75 39.25 -0.75 61.85 28.85 74.5 47.75 66.5 78.85 47.35 83.5 -37.9 M89.75 -7.65 Q89.5 -6.75 86.25 -6.0 L86.5 -2.75 89.6 -6.75 89.75 -7.65 M19.75 82.6 L22.6 81.85 Q6.85 75.45 -10.0 70.5 -7.9 73.3 -6.4 76.5 -5.45 78.6 -6.7 80.45 L-7.0 80.75 Q-3.25 84.1 1.1 84.6 L19.75 82.6" fill="#000000" fill-opacity="0.49803922" fill-rule="evenodd" stroke="none"/>
  </g>
</svg>
