<?xml version="1.0" encoding="UTF-8" standalone="no"?>
<svg xmlns:ffdec="https://www.free-decompiler.com/flash" xmlns:xlink="http://www.w3.org/1999/xlink" ffdec:objectType="shape" height="168.35px" width="122.4px" xmlns="http://www.w3.org/2000/svg">
  <g transform="matrix(1.0, 0.0, 0.0, 1.0, 60.15, 69.2)">
    <path d="M28.0 68.85 Q15.4 100.25 -11.6 99.1 -38.45 96.1 -57.45 52.25 -67.6 39.25 -39.45 -58.0 -31.9 -79.15 -8.3 -60.3 L-2.0 -60.9 -1.45 -60.45 -0.45 -57.45 -0.45 -57.3 Q1.65 -44.85 -1.45 -32.6 L1.1 -30.6 2.7 -30.6 Q3.2 -22.35 7.75 -15.9 L8.55 -14.9 11.7 -15.45 Q29.85 21.1 28.0 68.85" fill="#2e47aa" fill-rule="evenodd" stroke="none"/>
    <path d="M-0.45 -57.3 L2.7 -55.9 4.25 -54.15 Q5.1 -49.0 6.85 -49.15 L6.55 -45.0 Q3.4 -42.45 7.85 -39.9 8.1 -34.3 2.7 -30.6 L1.1 -30.6 -1.45 -32.6 Q1.65 -44.85 -0.45 -57.3 M24.25 -19.3 Q42.25 4.55 46.0 23.55 L45.25 44.7 Q42.1 60.25 28.0 68.85 29.85 21.1 11.7 -15.45 L24.25 -19.3" fill="#ffffff" fill-rule="evenodd" stroke="none"/>
    <path d="M7.25 -51.15 Q13.0 -51.75 18.5 -50.4 31.95 -47.05 34.05 -33.25 34.4 -30.95 33.65 -28.9 31.3 -22.05 24.25 -19.3 L11.7 -15.45 8.55 -14.9 7.75 -15.9 Q3.2 -22.35 2.7 -30.6 8.1 -34.3 7.85 -39.9 L8.4 -42.6 7.25 -44.6 6.55 -45.0 6.85 -49.15 7.25 -51.15" fill="#e58508" fill-rule="evenodd" stroke="none"/>
    <path d="M4.25 -54.15 L6.1 -53.6 7.25 -51.15 6.85 -49.15 Q5.1 -49.0 4.25 -54.15 M7.85 -39.9 Q3.4 -42.45 6.55 -45.0 L7.25 -44.6 8.4 -42.6 7.85 -39.9" fill="#31333d" fill-rule="evenodd" stroke="none"/>
    <path d="M41.9 42.2 Q44.05 32.75 45.1 23.1 48.8 36.75 47.35 50.75 46.1 62.5 39.6 72.4 37.15 76.15 33.85 79.25 40.3 77.8 46.6 75.8 54.1 73.2 59.75 67.4 61.35 65.8 62.25 63.8 60.0 71.9 52.25 75.95 41.25 81.8 28.7 84.15 L18.7 85.55 Q16.65 88.3 13.95 90.65 10.75 93.35 6.95 95.05 -4.05 100.25 -16.05 97.3 -25.1 95.25 -32.05 89.15 -44.3 78.6 -51.7 64.25 -62.05 44.05 -58.15 21.8 L-56.65 14.7 Q-51.35 -6.75 -47.3 -28.7 -45.65 -37.55 -43.6 -46.3 L-42.9 -46.15 -45.9 -22.75 -45.6 -22.3 Q-47.5 -11.6 -48.9 -0.85 -49.7 5.05 -52.35 10.05 -58.95 22.7 -55.9 36.3 -53.05 48.8 -45.45 59.0 -40.6 65.45 -34.9 71.1 L-34.45 71.0 Q-35.2 54.0 -34.25 37.15 -33.65 27.0 -32.45 16.85 L-31.55 17.95 Q-29.25 21.0 -25.7 22.05 L-24.05 21.9 Q-23.2 21.3 -22.75 20.3 L-22.45 19.55 Q-26.75 12.75 -27.1 4.2 L-27.6 -13.6 -26.9 -13.75 -27.15 -14.15 Q-25.8 -14.45 -24.75 -13.4 -6.2 5.15 7.35 27.9 9.05 30.75 7.35 33.0 6.15 34.65 4.25 35.25 L7.7 83.1 Q12.0 81.85 15.4 78.8 21.4 73.25 24.7 65.85 26.25 62.45 27.1 59.0 L27.85 59.7 27.55 62.7 Q34.35 56.85 39.05 49.2 41.1 45.85 41.9 42.2 M13.55 -10.45 L7.7 -15.9 Q26.65 -19.7 31.7 -24.6 L30.25 -22.9 24.55 -19.45 Q39.25 0.25 36.4 4.7 21.85 -10.15 13.55 -10.45" fill="#000000" fill-opacity="0.49803922" fill-rule="evenodd" stroke="none"/>
    <path d="M-9.8 -50.4 Q5.45 -32.1 -12.8 -16.95 L-14.05 -16.1 Q-18.35 -22.85 -25.1 -21.75 -30.45 -19.3 -31.15 -15.0 -35.3 -16.55 -38.65 -19.9 L-39.55 -20.85 Q-6.15 -18.3 -9.8 -50.4" fill="#cccccc" fill-rule="evenodd" stroke="none"/>
    <path d="M-39.55 -20.85 Q-52.15 -39.85 -33.2 -52.6 -27.15 -56.75 -19.85 -55.4 -14.05 -54.35 -9.8 -50.4 -6.15 -18.3 -39.55 -20.85" fill="#ffffff" fill-rule="evenodd" stroke="none"/>
    <path d="M-39.55 -20.85 Q-52.15 -39.85 -33.2 -52.6 -27.15 -56.75 -19.85 -55.4 -14.05 -54.35 -9.8 -50.4 5.45 -32.1 -12.8 -16.95 L-14.05 -16.1 M-31.15 -15.0 Q-35.3 -16.55 -38.65 -19.9 L-39.55 -20.85" fill="none" stroke="#333333" stroke-linecap="round" stroke-linejoin="round" stroke-width="4.0"/>
  </g>
</svg>
