<?xml version="1.0" encoding="UTF-8" standalone="no"?>
<svg xmlns:ffdec="https://www.free-decompiler.com/flash" xmlns:xlink="http://www.w3.org/1999/xlink" ffdec:objectType="shape" height="210.8px" width="165.85px" xmlns="http://www.w3.org/2000/svg">
  <g transform="matrix(1.0, 0.0, 0.0, 1.0, 69.4, 121.4)">
    <path d="M35.1 -44.9 L36.0 -43.0 Q48.85 -60.8 65.0 -75.45 L65.0 -75.75 Q81.2 -109.85 95.45 -121.4 99.25 -103.6 88.85 -80.65 L72.4 -45.0 Q66.35 -32.3 48.4 -11.75 L51.2 -0.1 Q54.25 12.8 55.6 25.95 56.5 34.75 56.2 43.5 L55.75 51.2 Q55.2 57.9 53.1 64.5 47.5 81.85 30.35 87.15 19.45 90.55 8.25 88.05 L-3.15 85.45 Q-13.4 83.45 -23.0 79.3 -41.55 71.1 -51.5 53.7 -54.65 48.1 -56.0 41.8 -62.85 9.4 -51.15 -22.0 -56.15 -10.35 -64.3 -1.0 L-65.45 -1.0 Q-68.0 -4.3 -68.65 -8.5 -70.55 -21.4 -61.6 -31.25 L-58.05 -34.7 Q-49.1 -42.5 -39.85 -49.95 -34.5 -54.2 -29.9 -59.2 -22.2 -67.55 -13.5 -74.9 -9.55 -78.2 -5.0 -80.05 7.8 -85.5 18.0 -76.0 L19.1 -74.45 19.55 -74.45 26.85 -70.75 28.0 -69.9 29.55 -61.45 28.55 -58.15 35.1 -44.9" fill="#2e47aa" fill-rule="evenodd" stroke="none"/>
    <path d="M19.55 -74.45 Q33.7 -79.6 40.25 -66.7 44.1 -59.15 39.7 -51.85 37.6 -48.25 35.1 -44.9 L28.55 -58.15 29.55 -61.45 28.0 -69.9 26.85 -70.75 19.55 -74.45" fill="#e58508" fill-rule="evenodd" stroke="none"/>
    <path d="M18.0 -76.0 L19.55 -74.45 19.1 -74.45 18.0 -76.0" fill="#31333d" fill-rule="evenodd" stroke="none"/>
    <path d="M-49.6 -25.3 L-51.3 -21.75 -51.15 -21.3 Q-54.9 -14.8 -58.95 -8.55 -61.45 -4.65 -64.3 -1.0 -66.25 -1.15 -67.1 -2.9 -70.3 -9.6 -69.0 -16.9 L-67.85 -15.75 Q-64.1 -13.7 -60.7 -17.4 -60.1 -18.1 -59.95 -18.85 -59.2 -22.65 -62.3 -25.6 L-62.6 -27.75 Q-60.2 -25.95 -57.05 -26.85 -51.05 -28.55 -45.45 -31.3 L-49.6 -25.3 M52.85 6.0 L52.7 6.4 52.4 6.0 52.85 6.0 M56.25 41.4 L57.4 43.1 59.25 51.7 59.0 67.25 Q61.2 65.95 62.3 63.75 L60.85 67.7 Q39.0 89.4 15.25 89.4 -43.55 86.2 -55.5 40.15 -43.2 75.5 11.55 79.85 60.25 90.0 53.0 6.85 L54.1 11.85 55.55 22.1 56.1 29.4 56.25 41.4" fill="#000000" fill-opacity="0.49803922" fill-rule="evenodd" stroke="none"/>
  </g>
</svg>
