<?xml version="1.0" encoding="UTF-8" standalone="no"?>
<svg xmlns:ffdec="https://www.free-decompiler.com/flash" xmlns:xlink="http://www.w3.org/1999/xlink" ffdec:objectType="shape" height="175.45px" width="171.15px" xmlns="http://www.w3.org/2000/svg">
  <g transform="matrix(1.0, 0.0, 0.0, 1.0, 67.6, 87.35)">
    <path d="M42.4 -48.6 L36.55 -62.6 37.1 -65.0 37.15 -65.45 Q38.6 -74.75 30.1 -78.15 44.85 -79.1 47.4 -64.15 48.95 -55.05 42.4 -48.6" fill="#e58508" fill-rule="evenodd" stroke="none"/>
    <path d="M30.1 -78.15 Q38.6 -74.75 37.15 -65.45 L37.1 -65.0 36.55 -62.6 42.4 -48.6 46.7 -36.75 Q65.7 -47.1 86.4 -51.6 91.8 -62.4 99.95 -71.5 101.05 -72.65 102.4 -72.65 103.15 -71.95 103.1 -70.9 102.95 -66.7 102.0 -62.55 99.2 -50.75 96.75 -38.8 95.65 -33.65 91.4 -30.0 74.9 -16.05 55.25 -7.0 L57.6 5.35 Q59.45 14.9 60.2 24.75 61.2 37.35 59.35 49.85 57.75 60.7 51.65 69.85 43.15 82.7 28.2 85.85 22.65 87.05 16.95 87.35 L10.65 87.4 Q-8.6 85.25 -25.65 75.75 -44.6 65.25 -53.45 45.75 -56.75 38.4 -57.25 30.4 -59.3 -0.5 -45.15 -28.6 L-46.3 -28.15 Q-53.2 -13.65 -63.75 -1.9 L-64.75 -1.9 Q-69.8 -11.2 -65.85 -21.4 L-64.25 -24.6 Q-50.1 -46.65 -26.0 -57.75 L-21.7 -62.95 Q-13.1 -73.3 -2.45 -81.55 1.95 -84.9 7.3 -86.5 20.4 -90.15 27.55 -78.15 L30.1 -78.15" fill="#2e47aa" fill-rule="evenodd" stroke="none"/>
    <path d="M63.4 -12.9 Q77.6 -22.6 91.2 -33.15 96.2 -36.95 94.55 -42.3 L97.0 -46.4 98.55 -49.75 98.4 -50.15 97.85 -50.15 96.0 -48.3 Q102.05 -57.95 103.1 -69.45 L103.55 -69.45 Q101.5 -53.05 95.4 -37.95 94.0 -34.45 91.5 -31.85 75.85 -15.85 55.25 -7.15 60.8 18.55 58.55 44.7 L61.8 52.25 63.0 56.0 62.95 56.2 Q62.6 57.65 62.4 59.25 61.85 63.25 59.6 66.1 50.35 77.5 37.4 84.15 33.05 86.45 28.3 87.2 15.25 89.15 2.3 86.8 -3.2 85.9 -8.25 83.45 -18.8 78.3 -28.65 72.15 -36.7 67.05 -43.4 60.2 -52.5 50.85 -55.85 38.2 -59.85 23.05 -57.0 7.7 -56.95 14.6 -56.25 21.75 -55.05 33.95 -49.9 45.1 -44.5 56.7 -34.2 64.45 -24.75 71.45 -13.45 74.4 -2.55 77.3 8.9 77.85 19.55 78.35 30.15 77.45 38.7 77.75 44.0 71.3 51.25 62.35 54.1 50.95 56.8 40.25 57.5 29.25 58.35 16.35 57.05 3.5 56.35 -3.45 50.85 -7.15 L63.4 -12.9 M-58.6 -29.15 Q-57.9 -28.6 -51.6 -30.45 L-40.45 -34.75 Q-44.45 -28.3 -45.9 -28.3 L-56.75 -10.3 -61.0 -4.3 -63.6 -1.9 Q-68.0 -2.0 -67.3 -14.0 L-66.75 -16.75 Q-64.0 -13.15 -54.9 -21.45 L-54.9 -23.9 Q-58.75 -26.45 -58.6 -29.15" fill="#000000" fill-opacity="0.49803922" fill-rule="evenodd" stroke="none"/>
  </g>
</svg>
