<?xml version="1.0" encoding="UTF-8" standalone="no"?>
<svg xmlns:ffdec="https://www.free-decompiler.com/flash" xmlns:xlink="http://www.w3.org/1999/xlink" ffdec:objectType="shape" height="165.2px" width="137.5px" xmlns="http://www.w3.org/2000/svg">
  <g transform="matrix(1.0, 0.0, 0.0, 1.0, 51.0, 23.15)">
    <path d="M79.75 -3.0 Q85.35 7.75 86.5 27.85 L85.25 48.5 Q79.3 71.0 69.85 92.4 68.6 95.2 65.95 95.95 L65.8 95.85 Q60.9 79.85 61.1 62.7 L30.2 91.25 30.35 101.0 Q47.05 117.05 62.05 134.6 64.8 137.85 65.5 142.05 34.35 132.25 12.85 107.15 L9.85 103.5 9.8 101.95 9.9 100.4 10.05 99.45 10.35 98.5 9.3 93.95 0.85 92.05 1.0 91.35 -0.5 91.75 Q-17.2 95.65 -29.4 90.75 -40.15 86.4 -47.4 75.25 -58.75 47.75 -34.25 10.75 -28.25 -7.75 43.1 -22.75 81.75 -26.0 79.75 -3.0 M29.95 75.8 L30.0 75.85 29.9 73.6 29.95 75.8" fill="#2e47aa" fill-rule="evenodd" stroke="none"/>
    <path d="M29.95 75.8 L29.9 73.6 30.0 75.85 29.95 75.8" fill="#e58508" fill-rule="evenodd" stroke="none"/>
  </g>
</svg>
