<?xml version="1.0" encoding="UTF-8" standalone="no"?>
<svg xmlns:ffdec="https://www.free-decompiler.com/flash" xmlns:xlink="http://www.w3.org/1999/xlink" ffdec:objectType="shape" height="156.7px" width="199.05px" xmlns="http://www.w3.org/2000/svg">
  <g transform="matrix(1.0, 0.0, 0.0, 1.0, 58.6, 70.0)">
    <path d="M34.0 -47.15 L32.55 -44.9 29.25 -42.0 34.0 -47.15 M13.1 -26.15 L12.95 -26.05 13.05 -26.2 13.1 -26.15" fill="#243773" fill-rule="evenodd" stroke="none"/>
    <path d="M28.4 -63.4 L54.7 -34.25 Q59.75 -28.55 59.15 -20.0 58.65 -13.4 55.85 -7.45 L54.85 -7.45 53.15 -8.9 52.75 -8.5 51.25 -3.6 51.4 7.7 51.55 7.7 53.1 16.4 Q97.3 21.35 140.0 32.5 140.95 34.2 140.0 36.1 126.9 39.1 113.4 40.1 L89.0 41.85 62.4 41.5 60.2 41.4 53.0 40.1 Q45.3 78.85 -0.15 80.7 -17.05 89.65 -31.15 85.3 -40.4 82.4 -48.45 73.8 -53.45 68.45 -55.5 61.4 -63.65 33.85 -50.25 9.5 -43.05 -3.6 -35.35 -16.35 -25.35 -32.9 -14.45 -48.9 L-14.45 -49.45 Q-5.35 -70.75 15.1 -69.95 19.7 -69.65 23.55 -67.4 26.15 -65.85 28.4 -63.4 M34.0 -47.15 L29.25 -42.0 32.55 -44.9 34.0 -47.15 M13.1 -26.15 L13.05 -26.2 12.95 -26.05 13.1 -26.15" fill="#2e47aa" fill-rule="evenodd" stroke="none"/>
  </g>
</svg>
