<?xml version="1.0" encoding="UTF-8" standalone="no"?>
<svg xmlns:ffdec="https://www.free-decompiler.com/flash" xmlns:xlink="http://www.w3.org/1999/xlink" ffdec:objectType="shape" height="180.45px" width="135.95px" xmlns="http://www.w3.org/2000/svg">
  <g transform="matrix(1.0, 0.0, 0.0, 1.0, 72.65, 72.5)">
    <path d="M36.05 -52.1 Q41.35 -47.65 47.05 -43.7 68.35 -29.0 61.7 -4.0 L60.85 -3.75 Q56.75 -5.9 54.3 -9.8 L49.7 -16.45 Q51.65 -2.3 51.25 12.1 52.2 74.85 -4.45 80.1 -18.55 85.85 -31.65 83.25 -40.25 81.5 -48.45 76.2 L-50.75 74.4 Q-56.4 92.55 -67.5 107.45 -67.95 108.05 -68.8 107.95 -76.95 77.9 -67.75 47.1 -63.6 42.2 -62.15 34.55 -60.7 26.85 -58.25 20.65 L-53.45 9.1 -53.6 8.7 -49.55 1.1 Q-37.05 -22.05 -23.3 -44.45 L-22.9 -44.6 Q-15.4 -64.0 1.75 -70.5 L7.25 -72.2 10.65 -72.35 Q12.35 -72.0 13.85 -70.75 L20.35 -65.3 36.05 -52.1 M6.0 -27.45 L12.4 -33.75 12.25 -33.9 5.8 -27.65 5.25 -27.15 5.7 -27.0 6.0 -27.45" fill="#2e47aa" fill-rule="evenodd" stroke="none"/>
    <path d="M6.0 -27.45 L5.7 -27.0 5.25 -27.15 5.8 -27.65 12.25 -33.9 12.4 -33.75 6.0 -27.45" fill="#243773" fill-rule="evenodd" stroke="none"/>
  </g>
</svg>
