<?xml version="1.0" encoding="UTF-8" standalone="no"?>
<svg xmlns:ffdec="https://www.free-decompiler.com/flash" xmlns:xlink="http://www.w3.org/1999/xlink" ffdec:objectType="shape" height="407.7px" width="223.3px" xmlns="http://www.w3.org/2000/svg">
  <g transform="matrix(1.0, 0.0, 0.0, 1.0, 115.05, 148.95)">
    <path d="M-60.0 -110.75 Q-56.8 -85.55 -43.5 -63.5 L-46.35 -59.6 Q-47.75 -57.75 -50.0 -57.75 -64.75 -62.75 -66.5 -73.0 L-64.25 -72.25 -63.5 -72.75 -62.5 -76.75 -63.5 -82.75 Q-66.25 -85.0 -66.75 -83.25 L-68.0 -84.5 -69.75 -91.0 Q-65.5 -92.0 -67.5 -102.0 L-65.75 -105.5 -60.0 -110.75 M-58.75 -22.75 L-63.25 30.75 -62.0 63.5 Q-54.05 99.5 -45.3 135.2 -44.25 139.6 -43.55 144.2 -43.15 146.7 -43.75 148.75 L-42.0 153.0 -42.75 154.25 Q-63.6 149.7 -77.1 138.0 -108.7 98.4 -100.9 45.65 -96.2 13.6 -88.1 -18.0 L-87.0 -23.25 -77.25 -22.5 -58.75 -22.75" fill="#ffffff" fill-rule="evenodd" stroke="none"/>
    <path d="M-60.0 -110.75 L-59.75 -117.75 Q-57.0 -120.0 -48.5 -120.5 -21.5 -163.5 4.25 -141.5 L16.25 -128.75 26.5 -112.75 42.25 -82.75 61.5 -49.25 76.0 -26.75 91.5 3.0 96.0 14.5 103.0 36.75 108.25 71.0 Q106.25 126.25 84.25 155.25 97.5 185.75 79.75 250.0 76.75 266.75 66.75 251.5 L55.75 233.25 44.75 212.75 33.75 191.0 Q25.8 192.0 17.65 190.95 -16.8 185.65 -39.0 158.5 L-42.75 154.25 -42.0 153.0 -43.75 148.75 Q-43.15 146.7 -43.55 144.2 -44.25 139.6 -45.3 135.2 -54.05 99.5 -62.0 63.5 L-63.25 30.75 -58.75 -22.75 -53.25 -23.25 Q-49.55 -28.0 -49.55 -34.15 -49.6 -45.95 -50.0 -57.75 -47.75 -57.75 -46.35 -59.6 L-43.5 -63.5 Q-56.8 -85.55 -60.0 -110.75" fill="#2e47aa" fill-rule="evenodd" stroke="none"/>
    <path d="M-50.0 -57.75 Q-49.6 -45.95 -49.55 -34.15 -49.55 -28.0 -53.25 -23.25 L-58.75 -22.75 -77.25 -22.5 -87.0 -23.25 Q-93.15 -24.05 -98.85 -26.0 -105.25 -28.25 -109.0 -33.65 -118.7 -47.7 -112.9 -64.5 -111.5 -68.6 -108.45 -71.85 -93.1 -88.15 -71.0 -93.5 L-69.75 -91.0 -68.0 -84.5 -66.75 -83.25 -68.75 -77.25 -66.5 -73.0 Q-64.75 -62.75 -50.0 -57.75 M-39.0 158.5 Q-16.8 185.65 17.65 190.95 25.8 192.0 33.75 191.0 L44.75 212.75 39.75 226.5 36.0 233.25 32.5 237.75 Q19.75 264.0 -40.0 238.25 -61.75 228.5 -66.5 203.5 -67.25 191.5 -39.0 158.5" fill="#e58508" fill-rule="evenodd" stroke="none"/>
    <path d="M-67.5 -102.0 Q-65.5 -92.0 -69.75 -91.0 L-71.0 -93.5 Q-72.75 -100.75 -67.5 -102.0 M-66.75 -83.25 Q-66.25 -85.0 -63.5 -82.75 L-62.5 -76.75 -63.5 -72.75 -64.25 -72.25 -66.5 -73.0 -68.75 -77.25 -66.75 -83.25" fill="#31333d" fill-rule="evenodd" stroke="none"/>
    <path d="M73.25 138.75 L72.6 138.5 Q72.1 137.85 72.0 137.0 L73.25 138.75 M77.0 140.75 L77.75 142.0 75.75 140.5 77.0 140.75 M105.3 61.6 L104.6 52.25 Q103.8 44.2 102.5 36.5 106.35 50.6 107.5 65.3 111.3 114.05 84.75 155.0 L79.5 142.75 Q85.15 134.65 90.05 126.2 107.65 96.1 105.3 61.6 M-8.9 66.55 L-5.1 78.1 7.7 113.4 Q16.1 136.25 30.3 155.6 L23.75 156.0 Q26.25 168.65 31.8 180.4 34.0 185.1 36.75 189.5 56.2 220.2 70.5 253.75 75.9 251.55 77.95 245.95 88.15 218.35 88.85 189.0 88.9 200.1 88.25 211.15 86.75 236.45 75.0 258.75 71.9 257.6 70.0 255.1 54.9 235.35 45.0 212.5 40.8 229.8 28.4 242.55 24.75 246.35 19.6 248.05 -1.15 255.15 -22.05 246.4 -32.45 242.05 -42.75 237.0 -62.75 227.2 -66.5 205.5 -56.75 225.75 -36.8 236.0 -10.8 249.45 17.85 243.7 25.6 242.3 28.5 235.05 29.2 233.25 28.55 231.55 23.8 219.1 14.25 209.25 -20.75 204.0 -45.75 178.25 L-53.5 177.5 -38.75 158.25 -42.25 154.25 -43.6 154.2 Q-57.95 151.45 -70.4 143.1 -78.55 137.6 -84.6 129.7 -108.25 98.55 -102.85 59.75 -98.65 101.25 -66.55 127.6 -57.2 135.3 -46.0 137.5 L-53.75 101.25 -53.5 100.85 -52.1 103.35 Q-30.75 145.85 11.95 164.15 L11.9 163.8 Q2.1 114.95 -9.05 66.6 L-8.9 66.55 M-102.8 -30.05 Q-100.1 -27.6 -96.6 -27.3 -74.0 -25.5 -51.25 -26.0 -54.9 -20.0 -60.1 -16.1 -74.7 -5.1 -82.75 11.75 L-82.5 12.75 Q-94.05 34.95 -102.75 58.2 L-102.1 53.4 Q-96.7 14.75 -86.75 -23.0 L-88.5 -23.05 Q-101.8 -24.35 -109.8 -34.85 -116.2 -43.15 -114.75 -54.0 -113.45 -39.65 -102.8 -30.05" fill="#000000" fill-opacity="0.49803922" fill-rule="evenodd" stroke="none"/>
  </g>
</svg>
