<?xml version="1.0" encoding="UTF-8" standalone="no"?>
<svg xmlns:ffdec="https://www.free-decompiler.com/flash" xmlns:xlink="http://www.w3.org/1999/xlink" ffdec:objectType="shape" height="356.45px" width="335.4px" xmlns="http://www.w3.org/2000/svg">
  <g transform="matrix(1.0, 0.0, 0.0, 1.0, 171.9, 137.65)">
    <path d="M-106.5 66.5 Q-108.75 61.15 -110.5 55.65 -114.05 44.65 -114.5 33.25 -115.85 -0.15 -105.25 -32.25 L-115.25 -30.25 Q-125.5 -8.45 -143.25 8.0 L-145.5 8.0 -145.95 6.55 Q-146.4 3.1 -146.4 -0.4 -146.45 -18.15 -140.2 -34.85 -133.55 -52.45 -118.45 -63.65 -95.7 -80.45 -70.1 -93.3 -66.85 -94.9 -64.1 -97.15 -52.45 -106.8 -40.9 -116.8 L-31.9 -124.45 Q-12.9 -140.6 11.3 -137.0 15.0 -136.35 18.15 -134.05 31.85 -123.95 43.25 -111.15 80.5 -69.15 103.5 -17.75 L118.0 4.75 138.25 43.5 149.75 71.75 152.75 73.25 160.75 94.75 163.25 126.0 163.0 166.0 162.65 183.3 Q162.4 190.75 159.1 196.45 156.05 196.85 154.45 194.25 143.8 176.7 138.0 157.0 L129.75 131.75 124.5 112.5 Q124.3 114.25 123.4 115.75 114.0 132.2 98.0 143.25 80.15 154.0 59.2 155.65 L44.25 156.75 Q56.45 148.6 55.65 134.6 55.5 131.8 54.1 129.45 42.5 110.35 31.25 91.1 L26.5 82.5 16.5 53.0 Q13.3 29.8 7.25 7.0 L15.25 -2.75 16.75 -6.25 Q21.75 -17.5 6.75 -35.25 L11.25 -39.25 Q13.0 -40.75 14.5 -47.25 L15.75 -46.75 Q15.25 -50.4 12.25 -52.75 -0.8 -63.0 -17.0 -65.25 L-26.65 -71.6 Q-33.5 -76.25 -41.75 -75.5 L-41.25 -71.75 -39.75 -70.75 Q-41.75 -68.75 -42.0 -59.75 L-41.0 -53.25 -46.25 -50.75 Q-50.75 -47.5 -53.75 -41.25 -70.0 -14.0 -64.75 5.5 L-73.0 23.5 -89.25 50.75 Q-96.5 62.25 -100.0 61.75 -99.5 67.5 -101.25 69.25 L-100.75 73.75 -100.5 74.25 -99.75 79.25 Q-103.55 74.05 -105.95 67.95 L-106.5 66.5 M-13.5 -63.0 L-14.5 -63.25 -14.25 -63.75 -13.5 -63.0 M-18.5 -65.0 L-18.5 -65.25 -17.0 -65.25 -18.5 -65.0" fill="#2e47aa" fill-rule="evenodd" stroke="none"/>
    <path d="M-39.75 -70.75 L-41.25 -71.75 -41.75 -75.5 Q-33.5 -76.25 -26.65 -71.6 L-17.0 -65.25 Q-0.8 -63.0 12.25 -52.75 15.25 -50.4 15.75 -46.75 L14.5 -47.25 13.9 -48.15 Q2.5 -59.95 -13.5 -63.0 L-14.25 -63.75 -14.5 -63.25 -16.0 -63.25 -18.5 -65.0 -17.0 -65.25 -18.5 -65.25 -32.6 -71.8 -39.0 -72.0 -39.75 -70.75" fill="#243773" fill-rule="evenodd" stroke="none"/>
    <path d="M-99.75 79.25 L-100.5 74.25 -100.75 73.75 -101.25 69.25 Q-99.5 67.5 -100.0 61.75 -96.5 62.25 -89.25 50.75 L-73.0 23.5 -64.75 5.5 Q-59.7 21.5 -43.5 26.4 -40.1 27.4 -36.55 27.35 -9.25 29.1 7.25 7.0 13.3 29.8 16.5 53.0 L26.5 82.5 31.25 91.1 Q42.5 110.35 54.1 129.45 55.5 131.8 55.65 134.6 56.45 148.6 44.25 156.75 L21.0 166.0 -10.0 166.75 Q-38.75 165.0 -67.75 141.75 L-74.0 137.25 -91.25 113.0 -94.45 101.65 -99.75 79.25 M-41.0 -53.25 L-42.0 -59.75 Q-41.75 -68.75 -39.75 -70.75 L-39.0 -72.0 -32.6 -71.8 -18.5 -65.25 -18.5 -65.0 -16.0 -63.25 -14.5 -63.25 -13.5 -63.0 Q2.5 -59.95 13.9 -48.15 L14.5 -47.25 Q13.0 -40.75 11.25 -39.25 L6.75 -35.25 Q-3.75 -27.5 -21.5 -43.0 -41.5 -44.5 -40.75 -53.25 L-41.0 -53.25 M-36.75 -51.25 L-36.25 -50.75 Q-21.75 -44.5 -31.25 -57.5 -38.5 -60.75 -36.75 -51.25 M-13.25 -39.0 L-7.25 -38.75 Q-4.45 -39.65 -5.35 -42.65 -7.65 -50.5 -15.5 -47.5 -17.45 -42.05 -13.25 -39.0" fill="#ffffff" fill-rule="evenodd" stroke="none"/>
    <path d="M-106.5 66.5 L-105.95 67.95 Q-103.55 74.05 -99.75 79.25 L-94.45 101.65 -91.25 113.0 -74.0 137.25 -67.75 141.75 Q-90.65 159.4 -119.25 164.55 -129.7 166.55 -138.5 160.25 -150.7 151.65 -160.2 139.95 -176.25 120.2 -169.9 96.1 -166.25 82.25 -153.0 77.15 -130.6 68.7 -106.5 66.5 M-64.75 5.5 Q-70.0 -14.0 -53.75 -41.25 -50.75 -47.5 -46.25 -50.75 L-41.0 -53.25 -40.75 -53.25 Q-41.5 -44.5 -21.5 -43.0 -3.75 -27.5 6.75 -35.25 21.75 -17.5 16.75 -6.25 L15.25 -2.75 7.25 7.0 Q-9.25 29.1 -36.55 27.35 -40.1 27.4 -43.5 26.4 -59.7 21.5 -64.75 5.5 M44.25 156.75 L59.2 155.65 Q80.15 154.0 98.0 143.25 L97.6 172.2 Q97.1 196.75 77.7 210.55 68.3 217.25 56.9 218.4 35.95 220.45 16.65 211.35 10.2 208.35 4.4 204.3 -15.25 190.55 -10.0 166.75 L21.0 166.0 44.25 156.75" fill="#e58508" fill-rule="evenodd" stroke="none"/>
    <path d="M-36.75 -51.25 Q-38.5 -60.75 -31.25 -57.5 -21.75 -44.5 -36.25 -50.75 L-36.75 -51.25 M-13.25 -39.0 Q-17.45 -42.05 -15.5 -47.5 -7.65 -50.5 -5.35 -42.65 -4.45 -39.65 -7.25 -38.75 L-13.25 -39.0" fill="#31333d" fill-rule="evenodd" stroke="none"/>
    <path d="M-29.75 27.75 Q-21.8 27.0 -14.8 23.05 4.65 12.15 17.25 -6.5 L11.05 13.2 3.35 36.35 Q-6.45 64.35 -26.25 85.75 -35.05 95.25 -48.1 94.3 -51.5 93.75 -54.25 92.15 -65.05 85.9 -67.6 73.1 -71.65 52.65 -67.85 32.0 L-66.35 24.25 Q-63.4 10.3 -65.6 -3.7 -62.15 3.95 -57.5 10.8 -47.35 25.9 -29.75 27.75 M-109.0 -11.85 L-108.95 -9.0 -108.4 3.05 Q-107.65 22.75 -99.15 40.65 L-92.5 54.25 Q-99.0 58.8 -98.05 67.55 -97.45 73.15 -96.5 78.55 -95.9 81.9 -94.25 84.65 -81.0 106.5 -64.2 125.5 -54.75 136.25 -41.4 141.05 -21.15 148.5 -0.05 146.65 26.5 143.85 52.25 134.75 53.3 134.45 53.75 133.25 55.4 128.85 52.0 125.25 81.45 124.2 102.5 104.5 92.1 69.75 76.5 37.0 97.05 68.1 121.0 96.75 L123.25 96.5 126.25 101.0 Q128.75 104.5 132.65 105.65 L132.8 105.55 Q130.35 108.15 126.35 108.05 L124.9 107.95 Q124.6 108.75 124.35 111.75 124.0 115.65 121.6 118.95 111.7 132.6 98.25 143.0 L98.0 166.0 Q87.0 164.25 76.35 168.6 67.15 172.5 57.25 173.0 41.1 180.35 24.25 185.2 13.9 188.2 2.8 188.65 -2.05 188.9 -5.0 192.75 28.25 219.2 70.3 211.5 77.2 210.25 82.4 205.65 90.2 198.75 93.4 188.8 96.9 177.95 97.5 166.5 97.6 189.1 84.45 207.05 81.9 210.55 78.15 212.85 67.1 219.65 54.1 218.6 36.15 218.05 19.45 212.1 7.55 207.9 -2.25 199.95 -15.55 189.1 -11.55 172.5 -10.85 169.6 -9.75 166.75 -42.2 163.65 -67.0 141.75 -89.85 158.85 -117.35 165.05 L-124.0 165.9 -125.0 165.85 -125.0 165.6 -124.0 165.55 -121.1 165.05 Q-115.15 163.55 -109.45 160.9 -93.35 153.55 -78.75 143.5 -78.9 137.65 -81.45 132.35 L-102.25 88.25 Q-110.6 79.15 -114.25 67.25 L-106.25 66.25 Q-112.75 58.0 -113.2 46.6 L-113.75 33.5 Q-114.2 22.25 -112.65 11.2 L-109.0 -11.85 M-132.5 -31.25 L-133.5 -38.75 Q-125.5 -36.15 -117.3 -37.25 -106.85 -38.55 -96.5 -41.0 -102.9 -34.95 -106.0 -27.35 L-105.0 -32.25 -115.0 -30.25 Q-125.25 -10.8 -140.2 5.3 L-143.6 8.15 -146.1 7.5 Q-148.7 -9.9 -142.0 -26.65 L-141.4 -23.65 -138.25 -19.5 -136.5 -20.25 -132.75 -25.5 -133.85 -20.45 -129.75 -25.5 -132.5 -31.25 M-146.95 155.0 Q-167.9 137.7 -171.5 111.25 -171.95 108.05 -171.9 104.8 L-171.75 100.0 Q-165.6 125.25 -153.0 147.7 -150.7 151.75 -146.95 155.0 M150.5 78.5 L151.25 78.5 151.25 79.25 150.5 79.25 150.5 78.5 M163.25 151.75 L162.05 185.3 Q161.85 191.6 158.75 196.5 156.25 196.6 154.65 194.05 142.35 174.7 136.0 152.55 L128.25 126.25 130.85 132.1 Q143.5 161.6 154.5 191.75 L158.95 191.45 Q159.6 189.95 159.6 188.5 L160.4 130.5 160.65 105.0 160.5 103.8 Q159.45 98.55 160.0 93.0 164.5 121.9 163.25 151.75 M132.0 102.75 L134.25 103.0 136.0 104.5 134.25 104.5 132.0 102.75" fill="#000000" fill-opacity="0.49803922" fill-rule="evenodd" stroke="none"/>
  </g>
</svg>
