<?xml version="1.0" encoding="UTF-8" standalone="no"?>
<svg xmlns:ffdec="https://www.free-decompiler.com/flash" xmlns:xlink="http://www.w3.org/1999/xlink" ffdec:objectType="shape" height="168.15px" width="163.75px" xmlns="http://www.w3.org/2000/svg">
  <g transform="matrix(1.0, 0.0, 0.0, 1.0, 104.25, 4.0)">
    <path d="M35.2 83.25 Q54.8 103.6 59.5 131.0 L54.5 145.25 28.25 159.5 -1.0 163.5 Q-30.25 167.5 -60.5 147.25 L-69.25 142.5 -89.75 120.25 -101.0 90.25 -104.25 79.75 -104.0 78.9 Q-102.9 74.25 -103.75 69.5 -97.8 64.0 -94.25 56.25 L-80.5 24.75 -73.0 2.75 Q-70.2 8.05 -65.2 11.2 -28.4 34.3 -2.25 -4.0 5.55 19.1 12.0 42.5 L25.0 71.75 Q29.8 77.65 35.2 83.25" fill="#ffffff" fill-rule="evenodd" stroke="none"/>
  </g>
</svg>
