<?xml version="1.0" encoding="UTF-8" standalone="no"?>
<svg xmlns:ffdec="https://www.free-decompiler.com/flash" xmlns:xlink="http://www.w3.org/1999/xlink" ffdec:objectType="shape" height="174.25px" width="146.5px" xmlns="http://www.w3.org/2000/svg">
  <g transform="matrix(1.0, 0.0, 0.0, 1.0, 107.5, 13.25)">
    <path d="M-22.75 -13.25 L-22.0 -12.5 -8.75 40.75 2.5 70.0 Q22.0 95.15 35.0 124.1 46.45 149.45 25.0 154.8 L20.7 156.05 Q-3.6 164.15 -29.25 159.0 -39.4 156.0 -49.0 151.85 -57.0 148.35 -64.5 143.75 -73.75 136.5 -81.45 127.85 -106.35 99.9 -107.0 63.25 L-107.5 50.75 -105.25 47.75 Q-105.55 45.75 -104.7 43.95 -94.45 21.45 -88.0 -3.0 -54.85 19.4 -24.75 -11.15 L-22.75 -13.25" fill="#ffffff" fill-rule="evenodd" stroke="none"/>
  </g>
</svg>
