<?xml version="1.0" encoding="UTF-8" standalone="no"?>
<svg xmlns:ffdec="https://www.free-decompiler.com/flash" xmlns:xlink="http://www.w3.org/1999/xlink" ffdec:objectType="shape" height="279.65px" width="350.9px" xmlns="http://www.w3.org/2000/svg">
  <g transform="matrix(1.0, 0.0, 0.0, 1.0, 170.3, 66.0)">
    <path d="M-39.5 -47.5 Q-41.25 -48.25 -43.0 -55.25 L-43.25 -64.5 -42.25 -66.0 -17.75 -65.25 Q-11.0 -63.75 -3.75 -64.5 8.75 -64.45 16.75 -56.25 L15.25 -48.25 11.0 -42.25 Q-5.0 -33.0 -16.5 -42.75 -31.5 -37.5 -39.5 -47.5 M-34.25 -48.5 Q-22.25 -40.0 -23.25 -50.75 -34.25 -59.0 -34.5 -49.25 L-34.25 -48.5 M-5.0 -41.25 Q5.75 -45.0 -2.75 -51.0 -17.75 -51.0 -5.0 -41.25" fill="#ffffff" fill-rule="evenodd" stroke="none"/>
    <path d="M11.0 -42.25 Q14.3 -40.3 16.95 -37.35 28.8 -24.2 22.75 -7.0 L22.0 -6.5 18.75 2.5 Q-2.75 45.4 -43.1 19.75 -50.45 15.1 -53.25 6.75 -58.25 -4.25 -53.25 -32.25 -51.25 -41.5 -39.5 -47.5 -31.5 -37.5 -16.5 -42.75 -5.0 -33.0 11.0 -42.25 M-117.75 81.75 L-117.25 81.75 Q-108.25 100.1 -91.0 112.0 L-76.75 135.5 -58.75 148.5 Q-72.25 160.75 -88.55 169.15 -94.1 171.95 -100.0 171.55 -128.45 170.0 -141.55 140.3 -160.2 98.05 -120.75 76.0 -119.15 78.3 -118.1 80.8 L-117.75 81.75 M49.0 154.25 L68.5 138.25 Q82.45 134.15 94.5 125.9 L101.75 120.25 Q110.0 152.5 101.9 184.8 97.35 203.05 80.2 207.8 61.15 212.9 41.5 210.8 -1.1 205.8 -3.5 165.75 L16.0 164.5 49.0 154.25" fill="#e58508" fill-rule="evenodd" stroke="none"/>
    <path d="M-5.0 -41.25 Q-17.75 -51.0 -2.75 -51.0 5.75 -45.0 -5.0 -41.25 M-34.25 -48.5 L-34.5 -49.25 Q-34.25 -59.0 -23.25 -50.75 -22.25 -40.0 -34.25 -48.5" fill="#000000" fill-rule="evenodd" stroke="none"/>
    <path d="M-162.75 -11.0 Q-165.55 -1.1 -160.45 7.3 -158.5 10.5 -154.95 10.9 L-150.25 5.0 -150.75 8.0 -149.75 7.75 -147.6 4.45 -153.35 -4.95 -154.25 -7.5 Q-131.55 -5.95 -111.5 -16.75 L-121.25 0.25 Q-122.7 46.2 -92.05 79.8 L-89.25 82.75 Q-92.95 110.5 -64.15 127.7 -45.25 139.0 -24.7 146.55 19.05 162.75 57.2 133.7 71.45 122.95 74.9 108.05 75.05 107.35 74.5 106.5 104.8 97.4 109.9 70.35 110.55 66.75 109.25 62.85 100.15 34.8 83.75 10.5 L128.25 55.25 129.25 55.0 141.35 67.0 Q142.55 66.25 144.0 66.75 L146.25 67.75 147.5 68.5 Q142.25 70.25 138.5 73.75 L175.0 154.25 177.75 155.5 180.55 152.1 180.25 158.9 178.75 159.7 176.0 159.25 Q151.5 115.25 136.25 67.25 L129.75 61.75 Q130.3 85.35 116.7 104.7 110.5 113.4 102.0 120.0 L105.0 142.5 Q91.05 142.85 79.5 151.75 L78.5 156.0 Q44.0 175.5 6.5 188.5 46.15 218.55 86.15 195.8 99.45 188.25 103.5 173.5 96.75 216.95 51.65 213.4 9.3 209.6 -3.6 173.4 -4.9 169.65 -3.25 165.75 -32.55 163.55 -58.0 148.75 -83.7 178.2 -114.5 167.75 -121.65 165.3 -127.1 159.8 -142.35 144.25 -147.25 123.0 -133.95 161.55 -97.65 168.0 -91.4 169.05 -86.05 164.9 -83.55 162.95 -81.65 160.4 -104.7 122.35 -129.6 84.95 L-131.5 81.75 -120.25 76.0 Q-134.85 35.35 -122.5 -6.0 L-123.5 -6.25 -139.5 -0.5 Q-151.0 19.8 -166.25 37.5 -175.1 16.95 -164.5 -6.45 -163.5 -8.65 -162.75 -11.0 M169.75 77.75 Q180.8 112.15 180.6 147.45 L169.75 77.75 M-26.5 94.0 Q-64.5 93.0 -55.75 -5.25 -49.5 29.0 -15.25 30.0 13.75 25.5 24.75 -15.0 15.75 86.5 -26.5 94.0" fill="#000000" fill-opacity="0.49803922" fill-rule="evenodd" stroke="none"/>
  </g>
</svg>
