<?xml version="1.0" encoding="UTF-8" standalone="no"?>
<svg xmlns:ffdec="https://www.free-decompiler.com/flash" xmlns:xlink="http://www.w3.org/1999/xlink" ffdec:objectType="shape" height="324.95px" width="302.9px" xmlns="http://www.w3.org/2000/svg">
  <g transform="matrix(1.0, 0.0, 0.0, 1.0, 145.45, 92.95)">
    <path d="M-24.75 -54.75 L-22.85 -52.55 Q-3.35 -31.5 -22.75 -13.25 L-24.75 -11.15 Q-54.85 19.4 -88.0 -3.0 -99.05 -18.05 -93.3 -36.5 -86.6 -57.9 -69.25 -72.25 -68.0 -63.5 -53.0 -63.75 -40.75 -50.0 -24.75 -54.75 M-41.75 192.75 Q-44.5 184.5 -29.25 159.0 -3.6 164.15 20.7 156.05 L25.0 154.8 Q36.35 155.4 47.75 155.1 59.95 154.75 71.75 151.25 76.75 177.5 61.5 214.75 L61.25 215.25 Q53.25 242.5 -11.0 223.75 -33.25 218.0 -41.75 192.75 M-108.5 60.5 L-107.0 63.25 Q-106.35 99.9 -81.45 127.85 -73.75 136.5 -64.5 143.75 -97.75 157.9 -114.4 122.65 -130.65 88.25 -108.5 60.5" fill="#e58508" fill-rule="evenodd" stroke="none"/>
    <path d="M-24.75 -54.75 Q-40.75 -50.0 -53.0 -63.75 -68.0 -63.5 -69.25 -72.25 L-70.75 -78.25 Q-71.25 -87.75 -69.0 -91.5 L-68.0 -92.75 Q-58.45 -94.0 -50.75 -86.75 L-51.0 -86.25 Q-49.65 -85.4 -48.1 -85.15 -30.15 -81.1 -18.0 -67.25 -19.25 -58.5 -24.75 -54.75 M-68.5 -75.75 Q-62.75 -62.65 -59.25 -74.25 -63.0 -82.4 -68.0 -77.25 L-68.5 -75.75 M-49.0 -63.25 Q-34.0 -55.75 -41.5 -68.75 -52.75 -71.5 -49.0 -63.25" fill="#ffffff" fill-rule="evenodd" stroke="none"/>
    <path d="M-49.0 -63.25 Q-52.75 -71.5 -41.5 -68.75 -34.0 -55.75 -49.0 -63.25 M-68.5 -75.75 L-68.0 -77.25 Q-63.0 -82.4 -59.25 -74.25 -62.75 -62.65 -68.5 -75.75" fill="#000000" fill-rule="evenodd" stroke="none"/>
    <path d="M-133.75 -46.25 L-108.75 -53.5 Q-116.05 -11.25 -100.5 29.0 -92.95 6.25 -92.7 -17.45 L-90.4 -12.75 Q-83.2 1.6 -68.2 5.15 -61.85 6.55 -55.6 4.25 -30.85 -4.45 -13.25 -24.5 L-13.0 -23.5 Q-18.8 -10.05 -25.55 3.1 -32.3 16.2 -39.55 28.95 -52.0 50.8 -69.95 68.15 -77.85 75.8 -87.75 74.5 L-94.5 77.0 -99.0 74.75 -101.5 70.0 Q-93.65 108.45 -61.8 131.15 -52.4 137.95 -41.05 140.9 -1.75 150.95 35.9 135.45 38.5 134.4 37.25 131.8 68.45 133.65 95.5 118.25 L95.75 116.75 Q76.8 71.6 54.0 28.5 L54.25 27.5 Q74.95 57.8 99.75 84.5 L102.5 85.0 113.45 95.55 113.25 96.5 106.75 98.0 Q124.85 142.75 149.5 184.75 150.85 184.6 151.8 183.55 155.05 180.05 156.4 175.3 157.2 172.65 157.45 169.95 L156.35 187.9 153.5 189.5 Q148.5 187.2 145.7 182.4 128.15 151.8 114.0 119.5 L111.1 124.2 Q96.9 145.15 72.0 151.0 L72.5 167.0 70.75 165.5 39.75 166.5 37.0 169.5 -36.25 173.0 -29.25 158.75 -33.0 158.05 Q-50.05 154.8 -63.65 144.5 -75.15 150.1 -87.2 147.5 -90.75 146.65 -93.6 144.45 -113.35 129.2 -119.25 104.75 -112.85 123.95 -97.75 137.25 -104.75 127.4 -107.5 115.9 -108.55 111.4 -108.65 106.95 -109.1 89.25 -118.75 74.75 -117.0 69.5 -113.6 65.0 -111.6 62.3 -108.8 60.4 L-110.8 53.65 Q-112.2 49.3 -113.1 45.0 -120.8 7.6 -115.0 -30.75 -126.3 -6.65 -141.55 14.8 L-143.1 14.25 Q-144.2 13.8 -144.25 12.85 -146.0 -10.0 -145.25 -33.25 -145.25 -29.05 -144.2 -25.0 -142.9 -20.05 -138.05 -20.95 -135.8 -21.1 -134.0 -22.5 -136.8 -30.35 -139.1 -38.25 -140.75 -43.95 -137.75 -48.5 L-133.75 -48.5 -134.5 -47.0 -133.75 -46.25 M32.0 226.5 Q60.4 220.05 68.35 201.6 60.4 228.05 31.5 232.0 -35.5 226.75 -41.5 191.25 -21.75 227.0 32.0 226.5 M-104.2 54.1 Q-105.3 60.65 -102.25 66.0 L-103.0 49.75 -101.75 39.0 -104.2 54.1" fill="#000000" fill-opacity="0.49803922" fill-rule="evenodd" stroke="none"/>
  </g>
</svg>
