<?xml version="1.0" encoding="UTF-8" standalone="no"?>
<svg xmlns:ffdec="https://www.free-decompiler.com/flash" xmlns:xlink="http://www.w3.org/1999/xlink" ffdec:objectType="shape" height="355.5px" width="228.6px" xmlns="http://www.w3.org/2000/svg">
  <g transform="matrix(1.0, 0.0, 0.0, 1.0, 113.1, 109.75)">
    <path d="M-74.0 -97.0 Q-72.45 -104.45 -66.65 -109.35 -66.3 -109.65 -65.75 -109.75 L-36.5 -68.0 Q-38.95 -63.7 -42.35 -60.55 L-44.0 -59.25 Q-60.5 -60.5 -65.0 -73.0 -63.85 -71.55 -62.0 -70.7 L-59.25 -70.75 -58.25 -75.5 -59.3 -77.65 Q-64.2 -85.55 -66.0 -75.25 L-66.5 -79.0 Q-72.2 -80.6 -73.75 -87.0 -72.0 -84.75 -70.5 -87.5 L-69.75 -92.0 -71.5 -97.75 -74.0 -97.0" fill="#ffffff" fill-rule="evenodd" stroke="none"/>
    <path d="M-73.75 -87.0 Q-72.2 -80.6 -66.5 -79.0 L-66.0 -75.25 -65.0 -73.0 Q-60.5 -60.5 -44.0 -59.25 -36.0 -36.25 -40.25 -26.75 L-41.75 -23.5 -49.0 -21.25 Q-76.0 -12.25 -93.5 -15.75 L-93.75 -15.75 Q-104.45 -18.0 -109.05 -27.95 -118.85 -49.3 -104.25 -67.75 L-98.05 -73.55 Q-87.55 -82.8 -74.75 -88.5 L-73.75 -87.0 M-102.2 192.85 Q-104.8 187.05 -101.55 181.1 -88.35 157.1 -62.5 145.25 L-46.25 154.5 -16.5 159.0 Q-7.5 164.25 1.75 169.0 12.3 174.45 23.75 176.5 17.95 222.7 -20.75 243.15 -27.7 246.9 -35.65 245.2 -83.15 235.45 -102.2 192.85" fill="#e58508" fill-rule="evenodd" stroke="none"/>
    <path d="M-74.0 -97.0 L-71.5 -97.75 -69.75 -92.0 -70.5 -87.5 Q-72.0 -84.75 -73.75 -87.0 L-74.75 -88.5 -76.0 -92.0 -74.0 -97.0 M-66.0 -75.25 Q-64.2 -85.55 -59.3 -77.65 L-58.25 -75.5 -59.25 -70.75 -62.0 -70.7 Q-63.85 -71.55 -65.0 -73.0 L-66.0 -75.25" fill="#000000" fill-rule="evenodd" stroke="none"/>
    <path d="M-82.85 -87.0 L-79.75 -86.75 -96.5 -75.0 Q-98.8 -88.6 -82.85 -87.0 M-112.9 -38.95 L-113.1 -42.05 Q-102.7 -8.2 -64.65 -17.0 -52.1 -19.75 -40.75 -25.5 -84.25 19.05 -98.45 77.55 -99.75 83.0 -96.9 88.3 -70.95 136.95 -14.75 143.5 L-18.25 129.0 Q12.75 153.7 50.65 156.5 36.75 107.85 19.25 60.4 36.1 101.9 66.0 134.2 54.2 140.2 63.8 155.95 85.6 191.65 106.0 228.25 110.05 227.25 112.75 223.9 114.55 221.65 115.5 218.75 L111.25 233.5 108.75 233.25 Q86.6 204.05 71.75 170.75 49.05 182.2 24.0 176.5 L21.5 186.0 Q-20.15 161.8 -66.75 148.5 L-68.25 148.75 -62.25 145.0 Q-93.8 127.8 -101.2 89.6 -111.5 36.1 -93.5 -15.5 L-95.5 -16.25 Q-111.0 -22.5 -112.9 -38.95 M-103.25 186.5 Q-81.5 244.5 -19.35 238.8 -10.5 238.05 -3.95 231.85 10.5 218.1 17.2 199.2 10.35 224.7 -10.1 240.1 -13.4 242.6 -17.15 244.1 -80.85 245.4 -102.45 189.5 L-103.25 186.5 M104.0 108.75 L104.75 104.5 Q109.15 79.65 106.25 54.5 113.5 82.5 108.5 111.0 L104.0 108.75" fill="#000000" fill-opacity="0.49803922" fill-rule="evenodd" stroke="none"/>
  </g>
</svg>
