<?xml version="1.0" encoding="UTF-8" standalone="no"?>
<svg xmlns:ffdec="https://www.free-decompiler.com/flash" xmlns:xlink="http://www.w3.org/1999/xlink" ffdec:objectType="shape" height="290.95px" width="335.45px" xmlns="http://www.w3.org/2000/svg">
  <g transform="matrix(1.0, 0.0, 0.0, 1.0, 171.85, 72.0)">
    <path d="M-41.0 -53.25 L-42.0 -59.75 Q-41.75 -68.75 -39.75 -70.75 L-39.0 -72.0 Q-28.2 -72.05 -18.5 -65.25 L-18.5 -65.0 -16.0 -63.25 -14.5 -63.25 -13.5 -63.0 Q2.5 -59.95 13.9 -48.15 L14.5 -47.25 Q13.0 -40.75 11.25 -39.25 L6.75 -35.25 Q-3.75 -27.5 -21.5 -43.0 -41.5 -44.5 -40.75 -53.25 L-41.0 -53.25 M-36.75 -51.25 L-36.25 -50.75 Q-21.75 -44.5 -31.25 -57.5 -38.5 -60.75 -36.75 -51.25 M-13.25 -39.0 Q2.15 -41.5 -13.75 -47.5 -14.55 -47.8 -15.5 -47.5 -17.45 -42.35 -13.25 -39.0" fill="#ffffff" fill-rule="evenodd" stroke="none"/>
    <path d="M6.75 -35.25 L8.65 -33.05 Q27.2 -12.45 7.25 7.0 1.6 14.85 -6.95 19.6 -45.35 41.1 -64.75 5.5 L-65.15 3.1 Q-68.35 -32.5 -41.0 -53.25 L-40.75 -53.25 Q-41.5 -44.5 -21.5 -43.0 -3.75 -27.5 6.75 -35.25 M-105.95 67.95 Q-103.55 74.05 -99.75 79.25 -95.85 112.35 -73.45 136.75 -70.9 139.5 -67.75 141.75 -98.7 168.65 -135.85 160.05 -140.4 159.0 -144.5 155.95 -184.2 126.6 -162.2 85.3 -159.2 79.65 -152.95 77.25 -130.35 68.8 -106.5 66.5 L-105.95 67.95 M-10.0 166.75 L21.0 166.0 44.25 156.75 59.2 155.65 Q80.15 154.0 98.0 143.25 106.65 186.3 74.25 210.75 62.1 219.95 46.6 218.8 0.8 217.8 -9.85 177.7 -11.25 172.35 -10.0 166.75" fill="#e58508" fill-rule="evenodd" stroke="none"/>
    <path d="M-36.75 -51.25 Q-38.5 -60.75 -31.25 -57.5 -21.75 -44.5 -36.25 -50.75 L-36.75 -51.25 M-13.25 -39.0 Q-17.45 -42.35 -15.5 -47.5 -14.55 -47.8 -13.75 -47.5 2.15 -41.5 -13.25 -39.0" fill="#000000" fill-rule="evenodd" stroke="none"/>
    <path d="M17.25 -6.5 Q7.0 52.45 -36.25 90.35 -42.0 95.4 -49.15 92.5 -71.35 83.7 -68.8 57.9 -65.7 27.05 -65.6 -3.7 -57.95 17.45 -37.95 25.8 -34.0 27.4 -29.75 27.75 -2.55 21.7 14.0 -1.9 L17.25 -6.5 M-133.5 -38.75 Q-125.5 -36.15 -117.3 -37.25 -106.85 -38.55 -96.5 -41.0 -102.9 -34.95 -106.0 -27.35 L-105.0 -32.25 -115.0 -30.25 Q-125.25 -10.8 -140.2 5.3 L-143.6 8.15 -146.1 7.5 Q-148.7 -9.9 -142.0 -26.65 L-141.4 -23.65 -138.25 -19.5 -136.5 -20.25 -132.75 -25.5 -133.85 -20.45 -129.75 -25.5 -132.5 -31.25 -133.5 -38.75 M-92.5 54.25 Q-105.75 78.3 -85.2 101.95 -73.7 115.2 -60.65 126.95 -32.2 152.55 6.8 147.4 32.8 143.85 53.1 130.6 54.7 129.5 53.3 127.2 L52.0 125.25 Q71.6 124.8 88.55 114.95 96.05 110.6 102.5 104.5 92.1 69.7 76.5 37.0 97.15 68.05 121.0 96.75 L123.25 96.5 126.4 100.9 129.2 103.8 130.85 104.9 132.65 105.65 132.7 105.6 132.15 106.15 131.5 106.7 130.75 107.05 130.0 107.5 129.2 107.8 128.3 107.95 127.35 108.1 126.35 108.05 124.9 107.95 Q124.75 114.0 121.4 118.8 111.7 132.65 98.25 143.0 L98.0 166.0 Q51.45 174.2 5.05 186.45 -0.65 187.95 -4.75 192.5 -7.55 188.2 -9.75 183.2 -13.3 175.15 -9.75 166.75 -35.9 164.3 -57.4 149.35 -62.4 145.85 -67.0 141.75 -85.3 155.6 -107.05 162.7 -115.85 165.5 -125.0 165.85 -112.85 163.45 -101.35 157.3 -89.65 151.1 -78.75 143.5 -92.6 103.75 -114.25 67.25 L-106.25 66.25 Q-121.15 28.85 -109.0 -11.85 -110.3 21.7 -94.25 50.95 L-92.5 54.25 M-146.95 155.0 Q-155.85 147.7 -161.8 138.15 -172.8 120.65 -171.75 100.0 L-170.15 106.35 Q-163.7 133.5 -146.95 155.0 M97.5 166.5 Q96.8 220.8 45.25 218.05 11.7 217.0 -4.15 193.4 38.65 227.0 83.1 201.8 90.7 197.45 93.5 188.85 97.05 178.05 97.5 166.5 M158.75 196.5 L155.15 191.7 158.95 191.45 Q161.4 142.3 160.0 93.0 164.7 122.15 163.25 151.75 164.5 174.05 159.25 195.25 L158.75 196.5 M128.25 126.25 Q142.0 157.5 153.8 189.75 134.55 162.1 128.25 126.25" fill="#000000" fill-opacity="0.49803922" fill-rule="evenodd" stroke="none"/>
  </g>
</svg>
