<?xml version="1.0" encoding="UTF-8" standalone="no"?>
<svg xmlns:ffdec="https://www.free-decompiler.com/flash" xmlns:xlink="http://www.w3.org/1999/xlink" ffdec:objectType="shape" height="405.7px" width="240.4px" xmlns="http://www.w3.org/2000/svg">
  <g transform="matrix(1.0, 0.0, 0.0, 1.0, 125.85, 147.95)">
    <path d="M-61.25 -99.0 L-63.75 -102.25 -63.75 -102.75 -60.5 -98.75 -61.25 -99.0 M-51.75 -87.0 L-45.25 -81.75 -45.75 -81.5 -44.75 -81.25 -42.75 -78.75 -39.25 -75.75 -35.0 -70.25 -42.75 -78.75 -45.75 -81.5 -51.75 -87.0" fill="#243773" fill-rule="evenodd" stroke="none"/>
    <path d="M-88.5 -64.25 Q-89.55 -79.8 -81.2 -92.4 -78.05 -97.1 -74.25 -101.85 L-50.0 -131.6 Q-40.65 -142.7 -26.8 -146.65 -13.1 -150.45 -0.7 -143.35 3.05 -141.25 5.8 -137.85 39.7 -96.1 63.3 -47.55 76.8 -19.75 91.2 7.7 97.9 20.45 103.2 34.25 117.95 72.75 112.55 113.25 111.3 122.8 107.65 131.55 105.45 136.95 102.5 142.0 L103.25 146.75 98.5 185.25 89.75 221.75 81.5 247.25 Q80.5 251.0 78.1 254.0 76.5 256.0 74.55 257.4 70.0 255.6 68.8 250.35 L64.0 231.0 56.0 190.5 53.75 174.5 52.75 174.75 Q22.6 176.25 -4.25 162.0 -0.7 161.3 0.75 158.2 3.9 151.45 1.3 144.05 -8.25 116.55 -20.15 90.0 -22.7 84.25 -24.15 78.4 -34.85 34.45 -38.0 -11.0 L-30.0 -14.5 -28.5 -17.75 Q-23.75 -27.0 -34.0 -49.5 L-26.0 -59.0 -35.0 -70.25 -39.25 -75.75 -42.75 -78.75 -44.75 -81.25 -45.75 -81.5 -45.25 -81.75 -51.75 -87.0 -60.5 -98.75 -63.75 -102.75 -63.75 -102.25 -61.25 -99.0 -66.25 -92.75 Q-69.25 -86.5 -68.5 -84.5 L-69.5 -79.25 -69.0 -78.0 -79.25 -71.75 -88.5 -64.25 M-98.0 14.75 L-98.5 1.25 -97.75 -10.0 -91.75 -5.0 -98.0 14.75" fill="#2e47aa" fill-rule="evenodd" stroke="none"/>
    <path d="M56.0 190.5 Q26.25 224.25 -0.5 232.75 -35.25 241.5 -60.25 189.0 -70.75 170.5 -61.25 150.5 L-60.0 149.0 Q-46.65 154.75 -32.65 157.95 -18.75 161.25 -4.25 162.0 22.6 176.25 52.75 174.75 L53.75 174.5 56.0 190.5 M-99.5 99.75 Q-114.75 99.1 -121.55 86.35 -126.9 76.25 -125.6 64.7 -122.3 34.75 -98.5 16.75 -110.8 55.6 -100.5 95.6 L-99.5 99.75 M-97.75 -10.0 Q-109.95 -25.35 -102.8 -44.2 -98.3 -56.1 -88.5 -64.25 L-79.25 -71.75 -69.0 -78.0 -67.75 -75.5 Q-66.5 -71.5 -64.25 -70.0 L-58.5 -66.75 Q-51.75 -48.5 -34.0 -49.5 -23.75 -27.0 -28.5 -17.75 L-30.0 -14.5 -38.0 -11.0 Q-55.9 -1.8 -75.95 -0.8 -84.4 -0.8 -91.75 -5.0 L-97.75 -10.0" fill="#e58508" fill-rule="evenodd" stroke="none"/>
    <path d="M-60.0 149.0 Q-73.0 137.5 -83.7 124.15 -92.75 112.85 -99.5 99.75 L-100.5 95.6 Q-110.8 55.6 -98.5 16.75 L-98.0 14.75 -91.75 -5.0 Q-84.4 -0.8 -75.95 -0.8 -55.9 -1.8 -38.0 -11.0 -34.85 34.45 -24.15 78.4 -22.7 84.25 -20.15 90.0 -8.25 116.55 1.3 144.05 3.9 151.45 0.75 158.2 -0.7 161.3 -4.25 162.0 -18.75 161.25 -32.65 157.95 -46.65 154.75 -60.0 149.0 M-68.5 -84.5 Q-69.25 -86.5 -66.25 -92.75 L-61.25 -99.0 -60.5 -98.75 -51.75 -87.0 -45.75 -81.5 -42.75 -78.75 -35.0 -70.25 -26.0 -59.0 -34.0 -49.5 Q-51.75 -48.5 -58.5 -66.75 L-64.25 -70.0 Q-66.5 -71.5 -67.75 -75.5 L-67.5 -75.5 Q-65.0 -73.25 -64.0 -74.5 L-62.25 -78.5 Q-64.25 -85.75 -65.5 -85.75 L-68.5 -84.5 M-50.5 -59.0 Q-45.5 -69.75 -55.75 -70.0 -59.0 -60.75 -50.5 -59.0" fill="#ffffff" fill-rule="evenodd" stroke="none"/>
    <path d="M-69.0 -78.0 L-69.5 -79.25 -68.5 -84.5 -65.5 -85.75 Q-64.25 -85.75 -62.25 -78.5 L-64.0 -74.5 Q-65.0 -73.25 -67.5 -75.5 L-67.75 -75.5 -69.0 -78.0 M-50.5 -59.0 Q-59.0 -60.75 -55.75 -70.0 -45.5 -69.75 -50.5 -59.0" fill="#31333d" fill-rule="evenodd" stroke="none"/>
    <path d="M-87.5 -64.75 Q-90.5 -72.55 -87.0 -81.05 -85.6 -84.35 -84.5 -87.5 -79.4 -83.5 -81.8 -76.9 -84.15 -70.55 -87.5 -64.75 M-105.3 -28.9 L-105.25 -32.0 Q-103.65 -12.3 -86.0 -4.25 -80.45 -1.85 -74.3 -2.55 -49.6 -4.75 -28.25 -17.25 L-85.75 67.5 -95.5 80.0 Q-96.6 98.1 -84.55 112.25 -78.9 118.9 -72.25 124.4 -46.7 145.65 -13.1 146.4 L-7.3 147.55 Q-3.4 148.1 -0.15 145.85 0.7 143.6 0.45 141.3 0.1 137.7 -1.55 134.45 L-2.25 133.0 Q17.65 142.85 39.5 147.25 L20.65 45.4 Q27.9 70.95 36.35 97.2 42.55 116.4 51.55 134.3 52.85 136.95 54.7 139.25 L58.6 143.7 55.7 143.3 53.4 143.65 52.25 144.0 Q56.75 197.65 69.85 249.45 60.15 220.55 56.5 190.25 33.9 220.25 -1.3 232.2 -6.65 234.05 -12.5 233.3 -30.35 231.5 -42.75 218.25 -63.95 195.55 -65.4 164.4 L-65.3 161.95 Q-64.55 154.6 -59.75 149.0 -88.3 131.6 -99.0 99.75 -111.0 98.2 -118.5 89.25 -121.9 85.2 -123.25 80.0 L-119.75 87.0 Q-117.5 70.75 -105.0 60.0 -103.05 41.45 -99.3 23.1 -97.65 15.05 -97.35 6.7 -97.0 -1.8 -97.5 -10.0 L-98.25 -10.7 Q-105.25 -18.55 -105.3 -28.9 M-124.75 77.25 L-124.75 76.0 Q-124.4 76.75 -124.4 77.35 L-124.75 77.25 M-6.65 184.3 L-34.15 177.1 Q-49.15 173.05 -64.3 171.95 -60.05 192.75 -46.6 209.05 -30.5 228.55 -5.5 228.3 -2.1 228.25 0.75 226.75 24.0 214.7 44.0 197.5 L42.0 191.75 Q21.15 190.75 1.75 183.0 0.6 183.75 -0.7 184.15 L-6.65 184.3 M107.3 48.45 Q113.75 69.9 114.5 92.45 115.4 118.6 102.7 141.7 102.5 133.0 98.75 125.25 102.95 115.4 105.5 105.15 113.3 74.15 105.75 43.2 L107.3 48.45 M89.75 215.45 Q85.95 233.0 81.1 250.4 79.6 255.75 75.0 257.75 71.9 255.4 70.6 251.6 L70.1 250.1 Q73.3 253.75 77.45 251.25 78.6 250.5 79.0 249.3 87.05 224.4 93.25 198.75 L89.75 215.45" fill="#000000" fill-opacity="0.49803922" fill-rule="evenodd" stroke="none"/>
  </g>
</svg>
