<?xml version="1.0" encoding="UTF-8" standalone="no"?>
<svg xmlns:ffdec="https://www.free-decompiler.com/flash" xmlns:xlink="http://www.w3.org/1999/xlink" ffdec:objectType="shape" height="411.95px" width="243.65px" xmlns="http://www.w3.org/2000/svg">
  <g transform="matrix(1.0, 0.0, 0.0, 1.0, 130.5, 155.9)">
    <path d="M-47.75 -137.25 L-43.25 -142.5 -38.25 -146.0 Q-34.25 -147.5 -29.5 -145.25 -7.25 -177.25 48.25 -113.25 65.0 -107.25 79.75 -88.5 97.75 -66.0 85.75 -57.0 131.75 25.75 100.5 105.0 63.25 178.25 -15.0 189.25 -34.75 192.35 -53.25 185.0 L-53.4 185.5 Q-54.7 201.35 -60.5 216.0 L-75.25 248.75 Q-76.8 252.2 -79.5 254.8 -80.15 255.4 -80.75 255.2 -86.45 254.5 -87.0 247.75 L-92.75 219.5 -101.5 156.25 Q-102.1 148.45 -100.25 140.5 L-100.5 140.0 Q-100.0 136.5 -98.55 133.4 -96.05 127.95 -98.75 122.25 L-101.5 109.5 -103.5 89.0 Q-112.75 47.75 -73.25 -64.5 L-61.75 -93.5 -62.0 -93.75 -60.25 -95.25 Q-67.1 -109.75 -60.5 -124.25 L-54.5 -130.5 -53.25 -131.25 -49.75 -131.75 -48.25 -136.25 -47.75 -137.25" fill="#2e47aa" fill-rule="evenodd" stroke="none"/>
    <path d="M-15.0 189.25 Q-23.25 195.25 -32.0 200.4 -46.0 208.6 -60.5 216.0 -54.7 201.35 -53.4 185.5 L-53.25 185.0 Q-34.75 192.35 -15.0 189.25 M-92.75 219.5 Q-122.25 206.5 -129.0 167.25 -134.0 145.5 -122.25 131.5 -118.0 126.0 -98.75 122.25 -96.05 127.95 -98.55 133.4 -100.0 136.5 -100.5 140.0 L-100.25 140.5 Q-102.1 148.45 -101.5 156.25 L-92.75 219.5 M-76.5 -66.5 L-91.25 -78.0 Q-95.5 -81.75 -98.75 -88.0 L-99.75 -90.0 Q-107.25 -103.0 -88.0 -127.25 -80.0 -135.75 -54.25 -132.25 L-54.5 -130.5 -60.5 -124.25 -62.0 -123.25 -63.75 -123.0 Q-69.25 -121.0 -67.0 -114.25 -69.2 -105.05 -64.2 -96.65 L-62.0 -93.75 -61.75 -93.5 -73.25 -64.5 -76.5 -66.5" fill="#e58508" fill-rule="evenodd" stroke="none"/>
    <path d="M-103.5 89.0 L-109.25 66.75 Q-113.45 51.55 -76.5 -66.5 L-73.25 -64.5 Q-112.75 47.75 -103.5 89.0 M-48.25 -136.25 L-49.75 -131.75 -53.25 -131.25 -51.75 -133.75 -48.25 -136.25 M-60.5 -124.25 Q-67.1 -109.75 -60.25 -95.25 L-62.0 -93.75 -64.2 -96.65 Q-69.2 -105.05 -67.0 -114.25 L-62.0 -123.25 -60.5 -124.25" fill="#ffffff" fill-rule="evenodd" stroke="none"/>
    <path d="M-54.25 -132.25 L-52.75 -135.5 Q-51.25 -137.25 -47.75 -137.25 L-48.25 -136.25 -51.75 -133.75 -53.25 -131.25 -54.5 -130.5 -54.25 -132.25 M-67.0 -114.25 Q-69.25 -121.0 -63.75 -123.0 L-62.0 -123.25 -67.0 -114.25" fill="#31333d" fill-rule="evenodd" stroke="none"/>
    <path d="M72.25 -80.25 Q72.75 -82.0 82.0 -82.5 L80.75 -86.0 Q82.5 -86.25 84.0 -79.25 L83.5 -69.25 Q86.0 -67.0 86.25 -70.0 L88.0 -67.5 87.0 -71.75 88.25 -72.0 87.75 -73.5 90.25 -69.25 89.25 -63.75 86.0 -57.25 78.25 -71.75 72.25 -80.25 M106.5 -1.5 L103.5 -11.0 104.25 -10.5 106.5 -1.5 M110.0 12.5 Q121.0 79.75 86.75 129.0 59.7 164.0 12.25 184.25 L-7.5 188.75 -15.0 189.25 -31.0 201.0 -45.5 209.5 -59.5 215.75 -60.75 216.5 -66.25 231.75 -75.5 249.75 Q-79.5 256.0 -81.5 256.0 -85.5 256.75 -86.75 249.25 L-92.0 220.75 Q-114.25 213.0 -126.75 177.75 -119.75 195.25 -107.75 206.25 -104.75 206.25 -104.25 196.5 -104.25 175.3 -101.75 159.25 L-107.75 139.25 -109.25 125.0 -99.0 122.25 -98.5 121.5 -101.75 108.25 -103.0 90.25 -109.25 66.75 -109.75 51.25 -106.75 39.0 -105.75 39.25 -106.75 56.5 -106.0 57.75 -104.5 68.5 -102.75 58.25 -103.0 53.75 -100.5 31.5 -94.5 2.0 -93.5 2.25 -95.0 6.75 -94.75 9.0 -96.5 21.5 -97.25 22.75 -96.75 23.75 -98.0 35.0 -98.75 36.5 -99.0 55.0 Q-97.75 63.5 -98.75 64.75 L-97.5 74.25 -98.0 76.0 -97.25 77.25 -96.25 86.5 -95.5 87.0 Q-96.5 82.5 -94.25 82.75 -100.0 128.5 -94.25 133.75 -96.5 135.0 -97.5 130.5 L-99.25 131.75 -100.5 141.0 Q-100.75 150.75 -99.25 151.75 L-99.75 159.0 -94.75 188.5 Q-92.75 188.75 -91.75 198.25 -87.4 224.25 -85.5 248.75 -83.0 251.75 -81.75 249.5 L-81.0 251.25 Q-57.0 212.5 -54.25 189.5 -46.75 148.0 -58.0 144.5 -37.1 89.55 -29.5 51.0 -34.05 85.95 -49.5 167.25 -18.5 178.75 23.25 167.0 112.75 136.25 110.0 12.5 M-126.75 174.0 L-127.75 173.75 -128.75 167.5 -126.75 174.0 M-126.25 176.0 L-127.0 176.0 -127.25 174.5 -126.25 176.0 M-94.5 134.5 Q-93.15 134.45 -93.25 138.25 L-94.5 134.5 M-91.75 62.75 Q-92.85 60.65 -88.75 44.25 L-91.75 62.75 M-94.5 82.0 Q-95.7 80.2 -92.0 66.75 L-94.5 82.0 M-88.75 42.5 L-89.25 42.25 -88.5 40.0 -88.75 42.5 M-93.75 1.5 L-94.25 1.25 -92.75 -3.5 -93.75 1.5 M-91.0 -11.5 L-89.0 -16.5 -90.5 -10.75 -91.0 -11.5 M-88.75 -18.75 L-88.0 -19.5 -88.5 -17.5 -88.75 -18.75 M-81.75 -39.5 L-82.0 -40.75 -81.25 -41.5 -81.75 -39.5 M-100.25 -91.25 Q-101.2 -93.7 -101.35 -97.45 -99.9 -81.4 -72.5 -66.25 L-76.25 -55.5 -80.75 -51.0 -81.25 -51.75 -76.25 -66.75 Q-98.6 -82.65 -100.25 -91.25 M-66.75 -114.25 L-67.5 -115.0 -66.75 -115.0 -66.75 -114.25 M-53.75 -131.5 L-53.75 -130.75 -54.5 -131.5 -53.75 -131.5" fill="#000000" fill-opacity="0.49803922" fill-rule="evenodd" stroke="none"/>
  </g>
</svg>
