<?xml version="1.0" encoding="UTF-8" standalone="no"?>
<svg xmlns:ffdec="https://www.free-decompiler.com/flash" xmlns:xlink="http://www.w3.org/1999/xlink" ffdec:objectType="shape" height="408.55px" width="222.0px" xmlns="http://www.w3.org/2000/svg">
  <g transform="matrix(1.0, 0.0, 0.0, 1.0, 113.3, 137.3)">
    <path d="M-55.25 -111.25 L-54.0 -114.0 Q-53.75 -124.0 -36.75 -119.25 -15.0 -159.75 31.75 -109.75 L41.25 -104.25 Q49.25 -95.75 48.75 -93.75 L50.5 -92.25 Q53.25 -86.75 53.0 -83.5 119.75 19.0 106.5 88.25 91.75 175.5 4.0 199.5 L1.0 199.5 0.25 202.5 -4.0 220.75 -17.25 248.0 -28.1 264.6 Q-31.1 269.3 -35.9 270.85 -36.85 271.1 -37.3 270.45 -42.55 263.0 -43.75 253.5 L-49.25 228.0 Q-53.25 207.1 -56.7 186.35 -58.0 178.55 -55.75 170.75 -67.6 156.05 -74.75 138.25 -96.0 44.25 -69.25 -29.0 L-66.75 -28.5 Q-64.4 -34.25 -62.85 -40.2 -60.25 -50.0 -58.5 -60.0 L-57.75 -59.5 -54.25 -62.75 Q-58.1 -73.5 -58.95 -85.1 -59.2 -88.95 -58.35 -92.65 -56.2 -101.95 -55.25 -111.25" fill="#2e47aa" fill-rule="evenodd" stroke="none"/>
    <path d="M-55.25 -111.25 Q-56.2 -101.95 -58.35 -92.65 -59.2 -88.95 -58.95 -85.1 -58.1 -73.5 -54.25 -62.75 L-57.75 -59.5 -58.5 -60.0 Q-65.75 -61.5 -70.0 -78.25 -66.75 -78.75 -67.25 -89.5 L-66.8 -90.05 Q-64.65 -93.1 -65.25 -97.5 L-63.5 -99.25 Q-63.5 -103.25 -60.5 -107.25 L-55.25 -111.25 M-69.25 -29.0 Q-96.0 44.25 -74.75 138.25 L-76.5 138.0 -82.0 131.75 -94.25 118.0 -99.5 108.0 -107.5 78.25 -104.25 48.25 -104.25 47.75 -102.75 41.0 -103.0 40.5 -101.75 34.75 -93.0 9.0 -83.25 -33.25 -69.25 -29.0" fill="#ffffff" fill-rule="evenodd" stroke="none"/>
    <path d="M-58.5 -60.0 Q-60.25 -50.0 -62.85 -40.2 -64.4 -34.25 -66.75 -28.5 L-69.25 -29.0 -83.25 -33.25 -98.0 -39.0 Q-107.75 -44.5 -110.75 -50.5 -116.5 -57.75 -109.25 -81.25 -106.25 -97.5 -66.25 -101.0 L-66.25 -98.75 -65.25 -97.5 Q-64.65 -93.1 -66.8 -90.05 L-67.25 -89.5 -69.5 -88.25 -71.75 -84.0 Q-72.75 -81.5 -70.0 -78.25 -65.75 -61.5 -58.5 -60.0 M-74.75 138.25 Q-67.6 156.05 -55.75 170.75 -58.0 178.55 -56.7 186.35 -53.25 207.1 -49.25 228.0 -83.25 233.0 -102.5 178.75 -109.75 160.0 -99.0 141.0 L-95.75 138.0 -88.75 134.25 -82.0 131.75 -76.5 138.0 -74.75 138.25 M0.25 202.5 L1.0 199.5 4.0 199.5 0.25 202.5 M-103.0 40.5 L-102.75 41.0 -104.25 47.75 -104.25 44.75 -103.0 40.5" fill="#e58508" fill-rule="evenodd" stroke="none"/>
    <path d="M-66.25 -101.0 Q-65.75 -107.5 -60.5 -107.25 -63.5 -103.25 -63.5 -99.25 L-65.25 -97.5 -66.25 -98.75 -66.25 -101.0 M-67.25 -89.5 Q-66.75 -78.75 -70.0 -78.25 -72.75 -81.5 -71.75 -84.0 L-69.5 -88.25 -67.25 -89.5" fill="#31333d" fill-rule="evenodd" stroke="none"/>
    <path d="M-81.5 -11.5 L-82.75 -9.0 -84.0 -8.25 -83.5 -7.75 -90.25 6.25 -91.25 13.5 -94.25 25.0 -96.5 30.25 -96.5 32.25 Q-98.0 32.25 -99.0 38.5 L-100.25 39.75 -100.25 42.5 Q-102.75 48.25 -102.5 54.75 L-103.25 55.75 -103.25 70.75 Q-102.25 98.0 -80.5 117.0 -84.9 72.85 -81.5 31.0 -79.0 82.9 -62.0 121.75 L-57.75 128.5 -57.0 99.5 Q-58.0 93.25 -55.75 93.25 -56.25 155.05 -48.25 163.55 -53.1 159.35 -54.5 160.75 -56.75 172.0 -55.0 178.25 -43.1 245.3 -35.75 265.5 -31.9 266.35 -27.75 253.5 -13.35 232.45 1.75 194.0 6.75 165.25 -6.0 165.75 9.55 102.2 10.9 86.15 8.8 123.15 4.75 176.0 13.75 179.5 37.5 169.0 90.75 134.25 91.75 118.5 118.0 63.0 98.25 7.5 L99.75 10.75 105.25 31.0 Q117.0 88.0 88.75 137.0 71.25 180.25 0.75 202.25 -15.0 254.25 -35.0 271.25 -43.25 269.0 -48.75 228.25 -64.0 233.75 -87.25 209.75 -102.35 185.35 -102.75 174.5 -96.5 197.25 -83.25 210.75 -65.5 225.5 -58.0 220.75 -59.35 215.95 -61.0 192.5 -87.85 153.85 -99.75 142.0 -94.2 135.55 -81.75 131.75 -105.0 110.75 -107.25 75.25 L-104.25 53.25 Q-105.25 52.25 -104.25 45.0 L-101.75 37.25 -101.75 34.75 Q-96.4 25.3 -83.0 -33.0 -109.1 -40.05 -112.7 -56.3 -107.75 -38.25 -65.25 -30.25 -69.0 -18.3 -81.75 -12.25 L-81.5 -11.5 M-102.75 174.0 L-103.5 174.0 -103.75 172.0 -102.75 174.0 M-104.0 169.5 L-104.75 169.25 -104.75 168.0 -104.0 169.5 M-104.0 171.5 L-104.25 170.0 -103.25 171.5 -104.0 171.5 M-55.75 90.25 L-56.5 87.25 -56.25 75.0 -55.75 90.25 M-53.0 156.0 L-54.25 147.5 -53.75 154.75 -53.0 156.0" fill="#000000" fill-opacity="0.49803922" fill-rule="evenodd" stroke="none"/>
  </g>
</svg>
