<?xml version="1.0" encoding="UTF-8" standalone="no"?>
<svg xmlns:ffdec="https://www.free-decompiler.com/flash" xmlns:xlink="http://www.w3.org/1999/xlink" ffdec:objectType="shape" height="364.95px" width="345.85px" xmlns="http://www.w3.org/2000/svg">
  <g transform="matrix(1.0, 0.0, 0.0, 1.0, 187.25, 200.5)">
    <path d="M73.25 122.55 L71.75 123.5 Q57.1 143.25 36.4 153.5 24.25 159.5 10.0 162.25 L8.4 162.55 Q0.65 163.9 -6.7 164.3 -34.5 165.75 -57.3 153.5 -73.4 144.8 -87.0 129.25 L-97.0 114.5 -87.5 129.25 -100.0 122.0 -106.3 117.0 Q-146.25 83.05 -142.75 25.0 L-157.5 38.5 Q-165.1 73.2 -179.5 105.6 -180.6 108.1 -181.05 106.85 -191.95 75.35 -183.65 39.15 -169.95 -20.4 -121.25 -60.5 -102.75 -112.45 -59.35 -143.45 -56.0 -145.85 -52.2 -144.75 4.45 -129.4 44.5 -82.75 L72.5 -90.5 82.5 -93.25 83.9 -93.6 87.1 -94.5 88.0 -94.75 88.2 -94.8 88.0 -96.05 Q87.45 -100.55 87.75 -105.75 L88.0 -106.75 88.55 -109.0 Q89.9 -114.3 91.55 -119.5 105.45 -163.65 138.9 -199.0 142.1 -202.4 143.7 -198.15 155.7 -166.5 158.05 -133.55 L158.6 -119.5 Q158.65 -107.1 157.45 -94.5 L157.35 -93.5 Q156.55 -85.9 155.25 -78.25 150.4 -75.1 145.25 -73.0 L144.95 -72.75 138.5 -66.65 Q128.2 -57.65 116.0 -51.3 105.9 -46.05 94.5 -42.6 L94.5 -42.15 92.0 -41.5 89.0 -40.85 83.25 -39.75 Q100.65 -16.25 111.75 10.7 135.2 67.5 91.9 109.35 L91.75 109.5 86.75 113.75 82.6 117.0 Q78.1 120.25 73.1 122.85 L73.25 122.55 73.25 122.6 73.95 122.15 73.25 122.55 M-1.25 -5.7 L-0.5 -5.4 -0.65 -5.8 -1.0 -6.5 -1.15 -6.0 -1.25 -5.7" fill="#2e47aa" fill-rule="evenodd" stroke="none"/>
    <path d="M73.25 122.55 L73.95 122.15 73.25 122.6 73.25 122.55 M-1.25 -5.7 L-1.15 -6.0 -1.0 -6.5 -0.65 -5.8 -0.5 -5.4 -1.25 -5.7" fill="#ffffff" fill-rule="evenodd" stroke="none"/>
  </g>
</svg>
