<?xml version="1.0" encoding="UTF-8" standalone="no"?>
<svg xmlns:ffdec="https://www.free-decompiler.com/flash" xmlns:xlink="http://www.w3.org/1999/xlink" ffdec:objectType="shape" height="311.95px" width="369.8px" xmlns="http://www.w3.org/2000/svg">
  <g transform="matrix(1.0, 0.0, 0.0, 1.0, 185.25, 148.4)">
    <path d="M86.4 -69.65 Q125.35 -45.05 154.1 -10.55 161.7 -1.45 165.55 9.0 172.0 26.45 176.0 44.7 180.8 66.6 184.35 88.85 185.0 92.8 183.5 96.4 L183.2 96.85 182.8 97.2 Q179.8 97.35 177.85 94.7 156.2 64.95 141.4 30.8 140.85 29.6 139.45 28.75 L135.15 26.1 126.4 20.6 Q131.45 40.8 128.25 61.4 125.6 78.6 115.8 93.1 107.35 105.6 95.4 114.85 90.2 119.65 84.1 122.75 L82.65 123.35 Q5.1 202.0 -78.35 126.85 L-88.35 121.85 -96.6 115.85 Q-112.15 105.1 -121.0 88.2 -129.25 72.45 -130.3 54.75 -131.35 37.8 -128.35 21.1 -136.15 25.8 -140.9 32.9 -160.75 62.45 -178.2 93.65 -181.55 99.7 -184.55 95.6 -185.4 94.4 -185.25 92.55 -183.4 66.4 -175.8 41.2 -170.85 24.7 -163.25 9.05 -162.2 6.9 -160.95 4.9 -132.45 -41.0 -87.1 -69.65 -67.65 -99.55 -42.3 -124.2 -26.65 -139.3 -6.35 -146.85 L-1.6 -148.4 Q27.45 -139.55 48.85 -117.7 70.2 -95.75 86.4 -69.65 M-1.3 -70.7 L-1.45 -70.8 -1.45 -70.75 -1.3 -70.7" fill="#2e47aa" fill-rule="evenodd" stroke="none"/>
    <path d="M-1.3 -70.7 L-1.45 -70.75 -1.45 -70.8 -1.3 -70.7" fill="#243773" fill-rule="evenodd" stroke="none"/>
  </g>
</svg>
