<?xml version="1.0" encoding="UTF-8" standalone="no"?>
<svg xmlns:ffdec="https://www.free-decompiler.com/flash" xmlns:xlink="http://www.w3.org/1999/xlink" ffdec:objectType="shape" height="393.15px" width="345.9px" xmlns="http://www.w3.org/2000/svg">
  <g transform="matrix(1.0, 0.0, 0.0, 1.0, 186.25, 189.4)">
    <path d="M-16.7 17.0 Q-5.6 7.6 -1.0 -6.5 22.0 43.3 63.3 78.45 85.3 97.2 73.95 122.15 L73.25 122.6 73.25 122.55 71.75 123.5 Q57.1 143.25 36.4 153.5 24.25 159.5 10.0 162.25 L8.4 162.55 Q0.65 163.9 -6.7 164.3 -34.5 165.75 -57.3 153.5 -73.4 144.8 -87.0 129.25 L-97.0 114.5 -96.7 112.3 Q-95.8 107.8 -97.25 104.0 -75.7 60.8 -70.5 11.0 -46.35 41.95 -16.7 17.0" fill="#ffffff" fill-rule="evenodd" stroke="none"/>
    <path d="M-67.75 -45.25 Q-69.5 -46.0 -72.5 -52.25 L-74.5 -61.0 -74.5 -61.75 Q-64.9 -71.1 -50.5 -67.75 L-49.75 -67.5 -49.25 -67.25 -46.75 -67.0 Q-29.45 -74.2 -14.25 -65.0 L-14.0 -57.25 Q-15.25 -51.5 -17.5 -49.75 -22.75 -39.5 -44.25 -45.5 -57.0 -37.25 -67.75 -45.25 M-33.0 -46.25 Q-22.0 -52.25 -32.25 -56.5 -46.5 -53.75 -33.0 -46.25 M-62.75 -48.0 Q-49.0 -41.5 -52.5 -52.5 -64.5 -58.25 -62.75 -48.0" fill="#ffffff" fill-rule="evenodd" stroke="none"/>
    <path d="M-17.5 -49.75 Q7.9 -37.6 -0.25 -9.9 L-1.0 -6.5 Q-5.6 7.6 -16.7 17.0 -46.35 41.95 -70.5 11.0 L-72.8 6.55 Q-88.4 -23.9 -67.75 -45.25 -57.0 -37.25 -44.25 -45.5 -22.75 -39.5 -17.5 -49.75 M71.75 123.5 L73.25 122.55 73.25 122.6 73.1 122.85 Q78.1 120.25 82.6 117.0 L86.75 113.75 91.75 109.5 91.9 109.35 Q101.5 124.25 108.0 141.8 112.35 153.6 107.1 164.4 85.0 210.0 30.95 200.1 16.85 197.4 14.0 184.35 11.55 173.35 10.0 162.25 24.25 159.5 36.4 153.5 57.1 143.25 71.75 123.5 M-98.6 122.85 L-87.5 129.25 -95.45 116.9 -95.4 116.85 -87.0 129.25 Q-73.4 144.8 -57.3 153.5 -34.5 165.75 -6.7 164.3 -9.05 197.05 -39.35 200.95 -70.85 204.6 -96.05 185.65 -117.0 170.0 -108.15 145.15 -104.0 133.5 -98.6 122.85" fill="#e58508" fill-rule="evenodd" stroke="none"/>
    <path d="M-62.75 -48.0 Q-64.5 -58.25 -52.5 -52.5 -49.0 -41.5 -62.75 -48.0 M-33.0 -46.25 Q-46.5 -53.75 -32.25 -56.5 -22.0 -52.25 -33.0 -46.25" fill="#000000" fill-rule="evenodd" stroke="none"/>
    <path d="M87.25 -99.25 L87.25 -104.25 Q94.5 -95.75 124.25 -117.5 133.6 -124.2 146.8 -189.4 167.2 -132.95 155.25 -78.5 148.3 -74.15 144.15 -68.5 L149.6 -68.5 141.45 -63.5 134.75 -60.0 Q115.05 -50.3 81.25 -39.5 96.5 -22.55 106.2 -1.0 110.3 8.1 113.4 18.0 116.95 29.35 119.25 41.75 124.5 77.0 91.75 109.25 L101.0 125.25 Q98.5 124.25 88.0 134.25 L81.25 137.75 81.25 141.5 Q63.05 165.45 38.25 176.6 L19.5 183.0 22.2 184.9 Q28.75 188.9 36.5 189.25 L36.75 196.25 Q42.95 196.6 49.4 196.05 79.4 194.7 102.8 176.6 L103.75 175.6 105.55 175.6 105.25 176.25 105.0 176.6 Q84.9 200.8 53.4 203.45 19.2 206.55 9.9 176.6 8.7 170.65 8.25 163.25 L1.5 165.0 -8.75 164.25 Q-9.75 205.0 -43.0 202.5 -78.8 203.0 -94.8 184.45 -81.4 192.6 -57.0 197.5 L-37.5 197.25 -37.25 189.75 Q-24.5 187.75 -23.0 185.5 -24.6 184.65 -26.25 183.75 L-48.25 179.0 Q-81.55 166.4 -99.25 142.0 -106.25 137.75 -107.5 139.0 L-103.75 129.0 -100.0 122.25 Q-131.75 97.75 -135.5 76.75 L-139.0 65.25 -141.25 51.25 -142.5 25.5 -143.25 25.25 -157.5 38.25 -165.0 66.75 -170.0 82.75 Q-177.3 108.0 -184.25 107.25 -185.5 106.75 -186.25 100.75 L-186.25 74.75 -184.25 37.5 -182.75 31.0 Q-186.0 59.0 -175.5 71.5 -162.75 56.5 -163.0 49.5 L-164.25 46.0 Q-167.25 46.0 -171.5 42.5 -172.0 39.5 -174.75 39.0 L-175.5 36.5 Q-163.5 39.25 -127.75 5.0 L-133.75 19.0 Q-122.7 57.4 -90.75 92.25 -96.75 97.5 -80.75 121.0 -10.5 172.5 33.5 142.5 L58.5 126.5 75.75 103.0 Q77.75 102.75 76.75 97.5 104.25 81.75 112.75 57.0 104.3 39.5 89.55 18.0 83.3 8.85 75.9 -1.0 58.1 -24.7 33.75 -52.5 52.95 -54.1 77.5 -60.0 L91.15 -63.5 98.95 -65.65 97.0 -73.75 Q93.5 -78.5 91.0 -76.75 91.75 -86.25 87.25 -99.25 M0.7 -1.0 Q-5.85 81.1 -49.0 91.75 -85.75 88.0 -78.25 -26.75 -73.25 27.75 -37.25 27.75 -12.15 23.75 -2.95 -1.0 0.5 -10.3 1.75 -22.5 1.5 -11.2 0.7 -1.0" fill="#000000" fill-opacity="0.49803922" fill-rule="evenodd" stroke="none"/>
  </g>
</svg>
