<?xml version="1.0" encoding="UTF-8" standalone="no"?>
<svg xmlns:ffdec="https://www.free-decompiler.com/flash" xmlns:xlink="http://www.w3.org/1999/xlink" ffdec:objectType="shape" height="273.9px" width="370.25px" xmlns="http://www.w3.org/2000/svg">
  <g transform="matrix(1.0, 0.0, 0.0, 1.0, 185.7, 70.75)">
    <path d="M69.9 65.35 Q83.6 78.35 88.05 96.65 91.55 111.25 82.65 123.35 71.65 136.75 57.0 145.95 43.8 154.15 28.85 158.95 18.7 162.2 8.15 164.35 L4.65 164.6 -9.35 162.85 Q-28.3 159.7 -45.65 151.15 -64.25 142.0 -78.35 126.85 -93.1 107.1 -85.1 98.85 -58.35 70.6 -35.6 1.35 -31.6 13.0 -21.35 19.7 -4.55 30.7 13.95 23.45 31.15 16.85 35.9 -1.65 L47.85 28.1 Q54.45 44.95 64.85 59.65 67.1 62.8 69.9 65.35" fill="#ffffff" fill-rule="evenodd" stroke="none"/>
    <path d="M25.4 -49.55 Q43.05 -39.55 39.9 -18.95 38.55 -10.15 36.15 -1.55 31.4 16.95 14.2 23.55 -4.3 30.8 -21.1 19.8 -31.35 13.1 -35.35 1.45 L-38.35 -8.55 Q-47.85 -33.3 -25.6 -48.8 -17.35 -39.55 -0.35 -47.3 18.65 -39.8 25.4 -49.55 M-88.1 121.95 L-78.1 126.95 Q-64.0 142.1 -45.4 151.25 -28.05 159.8 -9.1 162.95 -8.35 175.3 -13.95 186.45 -15.9 190.25 -19.2 193.0 -34.15 205.6 -55.15 202.55 -75.5 199.95 -92.9 189.3 -111.3 178.15 -110.65 156.4 -109.95 134.25 -96.35 115.95 L-88.1 121.95 M29.1 159.05 Q44.05 154.25 57.25 146.05 71.9 136.85 82.9 123.45 L84.35 122.85 Q90.45 119.75 95.65 114.95 111.15 141.45 110.65 153.7 111.15 192.7 55.4 200.7 30.65 203.95 16.9 192.7 11.65 189.7 8.4 164.45 18.95 162.3 29.1 159.05" fill="#e58508" fill-rule="evenodd" stroke="none"/>
    <path d="M-25.6 -48.8 Q-27.35 -49.3 -30.35 -57.55 L-30.35 -64.8 -29.1 -66.8 Q-17.45 -72.7 -4.4 -69.8 L-3.1 -69.55 -2.85 -69.3 Q10.8 -71.35 24.6 -68.8 28.2 -68.0 30.15 -64.8 29.65 -56.3 28.65 -55.3 L25.4 -49.55 Q18.65 -39.8 -0.35 -47.3 -17.35 -39.55 -25.6 -48.8 M12.15 -47.3 Q22.65 -52.8 14.15 -57.3 -1.35 -55.3 12.15 -47.3 M-11.6 -47.3 Q-0.35 -56.55 -15.35 -57.05 -22.35 -49.05 -11.6 -47.3" fill="#ffffff" fill-rule="evenodd" stroke="none"/>
    <path d="M-11.6 -47.3 Q-22.35 -49.05 -15.35 -57.05 -0.35 -56.55 -11.6 -47.3 M12.15 -47.3 Q-1.35 -55.3 14.15 -57.3 22.65 -52.8 12.15 -47.3" fill="#000000" fill-rule="evenodd" stroke="none"/>
    <path d="M-100.1 -3.3 L-101.35 -0.3 -102.45 0.8 -122.6 35.95 -120.85 46.95 Q-108.0 85.05 -83.1 97.45 -85.85 98.45 -84.85 100.45 -71.4 130.25 -37.1 145.2 2.25 157.85 38.4 144.7 70.65 130.95 86.9 101.2 90.15 97.2 87.4 91.2 103.4 79.95 109.15 69.7 L118.4 51.7 122.65 34.7 100.65 -2.8 Q112.15 5.5 137.15 21.95 138.9 23.7 143.65 23.95 155.4 31.95 157.9 26.7 155.4 33.7 147.65 35.7 L148.15 36.45 147.65 38.95 Q156.4 54.2 159.9 54.2 L164.4 62.45 Q168.65 67.7 172.65 69.45 179.15 66.2 173.4 35.7 186.75 89.45 184.15 96.2 170.65 95.2 142.4 30.45 L126.65 20.45 Q143.15 70.2 95.65 114.7 L99.9 121.95 104.15 131.45 102.15 131.95 Q96.9 136.45 92.65 137.7 L92.4 141.7 Q62.2 180.05 21.9 184.2 22.65 186.7 36.65 188.95 L36.9 195.95 Q56.65 193.95 66.4 194.2 98.65 188.2 109.65 163.2 111.15 164.95 105.4 175.95 L99.15 183.45 Q83.9 201.45 33.4 200.45 8.65 198.2 8.65 164.45 L5.65 164.7 -8.85 162.95 Q-10.85 207.2 -42.85 202.2 -93.35 201.2 -108.1 172.95 L-110.6 166.95 -110.85 163.7 Q-106.35 187.2 -37.35 196.95 L-37.1 189.45 Q-25.35 188.2 -20.6 183.95 -21.6 181.95 -33.35 180.45 -69.35 171.65 -89.6 140.7 -102.6 131.45 -104.85 132.45 L-101.6 124.2 -96.1 115.45 Q-119.35 98.45 -125.85 76.95 L-128.1 68.7 -130.35 43.95 -129.35 29.2 -127.6 21.45 -128.35 21.2 -143.1 30.95 -159.6 64.45 -175.1 90.7 Q-181.35 102.7 -185.6 93.45 -186.8 87.3 -174.6 36.7 -179.35 66.45 -173.6 69.7 -168.1 69.2 -148.35 40.2 L-148.1 39.45 -149.1 38.45 -148.35 36.45 Q-156.1 33.95 -158.85 27.2 -148.1 33.7 -100.1 -3.3 M149.9 38.2 L150.9 38.95 152.9 43.7 149.9 38.2 M3.7 24.25 Q35.65 22.35 40.15 -22.3 40.15 81.45 1.9 84.2 -39.35 87.95 -40.1 -22.05 -36.1 25.45 3.7 24.25" fill="#000000" fill-opacity="0.49803922" fill-rule="evenodd" stroke="none"/>
  </g>
</svg>
