<?xml version="1.0" encoding="UTF-8" standalone="no"?>
<svg xmlns:ffdec="https://www.free-decompiler.com/flash" xmlns:xlink="http://www.w3.org/1999/xlink" ffdec:objectType="shape" height="312.75px" width="399.5px" xmlns="http://www.w3.org/2000/svg">
  <g transform="matrix(1.0, 0.0, 0.0, 1.0, 204.5, 147.75)">
    <path d="M-92.25 -61.5 Q-37.75 -142.5 -1.25 -147.75 38.0 -142.0 91.0 -62.75 L100.75 -56.25 120.75 -37.5 151.0 -5.25 170.5 18.5 171.25 19.25 171.5 19.75 172.25 20.5 172.25 20.75 185.25 36.25 188.25 39.0 191.0 47.5 191.5 47.75 191.5 48.0 191.75 48.75 192.0 48.75 192.0 49.25 194.0 53.5 195.0 56.75 188.0 66.5 Q180.5 89.75 97.0 118.0 L87.75 121.25 86.25 122.25 82.25 124.25 81.5 125.25 64.75 144.25 36.75 158.75 8.25 165.0 -13.75 162.75 Q-30.25 161.5 -42.0 154.75 L-62.5 144.75 -78.5 127.25 -79.25 127.0 -82.75 125.25 -84.25 124.75 -84.75 124.5 -85.5 124.0 -85.75 124.0 -86.25 123.25 -88.5 122.0 -86.75 123.75 -86.0 124.75 -70.25 142.25 -66.25 148.0 -63.0 151.75 -62.75 153.25 -63.5 154.5 -65.5 156.5 -68.0 157.25 -69.0 157.0 -78.5 152.5 -78.75 152.5 -79.25 152.0 -79.75 151.75 -80.0 151.5 -95.0 142.75 -95.5 142.5 -95.75 142.5 -95.75 142.25 -96.25 142.0 -97.0 141.75 -97.5 141.75 -97.75 141.0 -103.5 137.75 -141.5 112.0 -170.25 89.25 -171.25 88.25 -174.5 86.0 -190.75 67.5 -196.0 60.0 Q-209.5 47.0 -201.5 42.75 -199.25 29.0 -191.0 28.5 L-170.0 6.0 -132.0 -30.25 -105.0 -53.0 -92.75 -61.0 -92.25 -61.5 M128.75 31.75 L129.75 45.0 127.75 60.75 146.5 49.25 147.0 49.0 128.75 31.75 M-121.75 86.75 Q-135.5 53.75 -127.25 16.5 L-163.5 45.5 -121.75 86.75 M-88.5 122.0 L-88.75 121.5 -89.25 121.25 -88.5 122.0" fill="#2e47aa" fill-rule="evenodd" stroke="none"/>
    <path d="M-88.5 122.0 L-89.25 121.25 -88.75 121.5 -88.5 122.0" fill="#e58508" fill-rule="evenodd" stroke="none"/>
  </g>
</svg>
