<?xml version="1.0" encoding="UTF-8" standalone="no"?>
<svg xmlns:ffdec="https://www.free-decompiler.com/flash" xmlns:xlink="http://www.w3.org/1999/xlink" ffdec:objectType="shape" height="312.75px" width="402.85px" xmlns="http://www.w3.org/2000/svg">
  <g transform="matrix(1.0, 0.0, 0.0, 1.0, 207.85, 147.75)">
    <path d="M100.75 -56.25 L120.75 -37.5 151.0 -5.25 170.5 18.5 171.25 19.25 171.5 19.75 172.25 20.5 172.25 20.75 185.25 36.25 188.25 39.0 191.0 47.5 191.5 47.75 191.5 48.0 191.75 48.75 192.0 48.75 192.0 49.25 194.0 53.5 195.0 56.75 188.0 66.5 Q180.5 89.75 97.0 118.0 L87.75 121.25 87.0 121.75 86.5 122.0 85.75 122.5 82.25 124.25 81.5 125.25 80.25 126.5 64.75 144.25 36.75 158.75 8.25 165.0 -13.75 162.75 Q-30.25 161.5 -42.0 154.75 L-62.5 144.75 -67.5 139.0 -69.75 139.75 -75.25 138.0 -76.25 137.5 -81.25 136.0 -82.0 135.5 -82.25 135.5 -84.25 134.75 -85.25 134.25 -86.75 133.75 -99.25 128.0 Q-192.25 79.75 -197.5 58.75 L-197.75 58.25 -199.0 56.25 Q-213.25 39.5 -204.5 34.25 -202.25 20.25 -193.0 20.25 L-171.5 -1.25 -129.75 -37.25 -102.75 -57.75 -90.25 -64.5 Q-38.75 -141.0 -1.25 -147.75 38.0 -142.0 91.0 -62.75 L100.75 -56.25 M128.75 31.75 L129.75 45.0 127.75 60.75 146.5 49.25 147.0 49.0 128.75 31.75 M-126.5 13.25 L-162.0 38.5 -128.5 69.0 -130.5 44.75 -129.75 31.75 -126.5 13.25" fill="#2e47aa" fill-rule="evenodd" stroke="none"/>
  </g>
</svg>
