<?xml version="1.0" encoding="UTF-8" standalone="no"?>
<svg xmlns:ffdec="https://www.free-decompiler.com/flash" xmlns:xlink="http://www.w3.org/1999/xlink" ffdec:objectType="shape" height="312.75px" width="405.1px" xmlns="http://www.w3.org/2000/svg">
  <g transform="matrix(1.0, 0.0, 0.0, 1.0, 210.1, 147.75)">
    <path d="M100.75 -56.25 L120.75 -37.5 151.0 -5.25 170.5 18.5 171.25 19.25 171.5 19.75 172.25 20.5 172.25 20.75 185.25 36.25 188.25 39.0 191.0 47.5 191.5 47.75 191.5 48.0 191.75 48.75 192.0 48.75 192.0 49.25 194.0 53.5 195.0 56.75 188.0 66.5 Q179.5 90.25 97.0 118.0 L87.75 121.25 86.25 122.25 82.25 124.25 81.5 125.25 64.75 144.25 36.75 158.75 8.25 165.0 -13.75 162.75 Q-30.25 161.5 -42.0 154.75 L-62.5 144.75 -78.5 127.25 -79.25 127.0 -82.75 125.25 -84.25 124.75 -84.75 124.5 -85.5 124.0 -86.25 123.25 -86.75 123.0 -104.5 110.25 -108.5 105.25 -144.25 92.5 -179.0 73.75 -200.0 53.5 -202.0 49.0 Q-213.75 37.0 -208.5 24.75 L-207.0 22.5 -207.0 22.0 Q-205.5 9.75 -195.25 8.25 L-189.5 3.5 -189.0 3.0 -188.0 2.25 -187.0 1.25 -186.5 1.0 -170.25 -13.5 -128.5 -45.25 -99.75 -63.5 -87.25 -68.5 Q-40.25 -139.0 -1.25 -147.75 38.0 -142.0 91.0 -62.75 L100.75 -56.25 M128.75 31.75 L129.75 45.0 127.75 60.75 146.5 49.25 147.0 49.0 128.75 31.75 M-125.25 9.0 L-156.75 28.5 -130.0 50.0 -130.5 44.75 -129.5 29.25 -125.25 9.0" fill="#2e47aa" fill-rule="evenodd" stroke="none"/>
  </g>
</svg>
