<?xml version="1.0" encoding="UTF-8" standalone="no"?>
<svg xmlns:ffdec="https://www.free-decompiler.com/flash" xmlns:xlink="http://www.w3.org/1999/xlink" ffdec:objectType="shape" height="312.75px" width="408.8px" xmlns="http://www.w3.org/2000/svg">
  <g transform="matrix(1.0, 0.0, 0.0, 1.0, 213.6, 147.75)">
    <path d="M100.75 -56.25 L120.75 -37.5 151.0 -5.25 170.5 18.5 171.25 19.25 171.5 19.75 172.25 20.75 173.25 21.75 173.25 22.0 185.25 36.25 188.5 39.5 191.0 47.5 191.5 47.75 191.5 48.0 191.75 48.75 192.0 48.75 192.0 49.25 193.75 53.0 Q196.0 56.5 194.75 57.25 L188.0 66.5 Q179.5 90.25 97.0 118.0 L87.75 121.25 86.25 122.25 82.25 124.25 81.5 125.25 64.75 144.25 36.75 158.75 8.25 165.0 -13.75 162.75 Q-30.25 161.5 -42.0 154.75 L-62.5 144.75 -78.5 127.25 -79.25 127.0 -82.75 125.25 -84.25 124.75 -84.75 124.5 -85.5 124.0 -86.25 123.25 -86.75 123.0 -94.0 118.0 Q-120.0 99.0 -126.25 76.25 -184.5 65.75 -199.0 46.75 L-200.0 45.75 -200.25 45.25 -203.0 42.0 -205.5 37.0 Q-219.75 18.5 -209.0 5.75 L-208.75 5.25 -206.25 -0.75 Q-203.5 -4.75 -201.75 -4.75 L-197.0 -7.25 -196.75 -7.25 -172.5 -25.5 -127.25 -53.75 -98.0 -68.5 -85.0 -71.5 Q-37.5 -141.5 -1.25 -147.75 38.0 -142.0 91.0 -62.75 L100.75 -56.25 M128.75 31.75 L129.75 45.0 127.75 60.75 146.5 49.25 147.0 49.0 128.75 31.75 M-123.75 3.5 L-146.5 15.0 -129.0 26.75 -127.0 15.5 -123.75 3.5" fill="#2e47aa" fill-rule="evenodd" stroke="none"/>
  </g>
</svg>
