<?xml version="1.0" encoding="UTF-8" standalone="no"?>
<svg xmlns:ffdec="https://www.free-decompiler.com/flash" xmlns:xlink="http://www.w3.org/1999/xlink" ffdec:objectType="shape" height="312.75px" width="410.65px" xmlns="http://www.w3.org/2000/svg">
  <g transform="matrix(1.0, 0.0, 0.0, 1.0, 215.45, 147.75)">
    <path d="M100.75 -56.25 L120.75 -37.5 151.0 -5.25 169.5 17.25 170.0 17.75 170.5 18.5 171.25 19.25 171.5 19.75 172.25 20.75 173.25 21.75 173.25 22.0 189.0 40.25 191.0 47.5 191.5 47.75 191.5 48.0 191.75 48.75 192.0 48.75 192.0 49.25 193.75 53.0 Q196.0 56.5 194.75 57.25 L188.0 66.5 Q179.5 90.25 97.0 118.0 L87.75 121.25 86.25 122.25 82.25 124.25 81.5 125.25 80.25 126.5 64.75 144.25 36.75 158.75 8.25 165.0 -13.75 162.75 Q-30.25 161.5 -42.0 154.75 L-62.5 144.75 -78.5 127.25 -79.25 127.0 -82.75 125.25 -84.25 124.75 -84.75 124.5 -85.5 124.0 -86.25 123.25 -86.75 123.0 -94.0 118.0 Q-125.5 102.75 -130.25 47.25 L-147.75 48.5 -176.75 44.0 -177.0 44.0 -187.5 40.5 -202.5 31.75 -204.25 28.5 -204.5 28.25 -205.0 27.5 -208.25 21.75 Q-219.25 14.75 -213.5 -9.5 L-209.0 -15.0 -207.75 -17.75 -200.0 -24.75 -197.0 -26.0 -196.25 -26.5 -177.0 -37.25 -176.75 -37.5 -175.75 -38.0 -175.5 -38.25 -163.0 -45.5 -126.5 -63.0 -97.0 -73.25 -82.5 -75.0 Q-39.25 -139.25 -1.25 -147.75 38.0 -142.0 91.0 -62.75 L100.75 -56.25 M128.75 31.75 L129.75 45.0 127.75 60.75 146.5 49.25 147.0 49.0 128.75 31.75 M-125.25 -0.75 L-122.75 0.5 -122.0 -2.0 -125.25 -0.75" fill="#2e47aa" fill-rule="evenodd" stroke="none"/>
  </g>
</svg>
