<?xml version="1.0" encoding="UTF-8" standalone="no"?>
<svg xmlns:ffdec="https://www.free-decompiler.com/flash" xmlns:xlink="http://www.w3.org/1999/xlink" ffdec:objectType="shape" height="312.75px" width="405.35px" xmlns="http://www.w3.org/2000/svg">
  <g transform="matrix(1.0, 0.0, 0.0, 1.0, 210.15, 147.75)">
    <path d="M100.75 -56.25 L120.75 -37.5 151.0 -5.25 169.5 17.25 170.0 17.75 170.5 18.5 171.25 19.25 171.5 19.75 172.25 20.75 173.25 21.75 173.25 22.0 189.0 40.25 191.0 47.5 191.5 47.75 191.5 48.25 191.75 48.25 191.75 48.75 193.75 53.0 Q196.0 56.5 194.75 57.25 L188.0 66.5 Q179.5 90.25 97.0 118.0 L87.75 121.25 86.25 122.25 82.25 124.25 81.5 125.25 80.25 126.5 64.75 144.25 36.75 158.75 8.25 165.0 -13.75 162.75 Q-30.25 161.5 -42.0 154.75 L-62.5 144.75 -78.5 127.25 -79.25 127.0 -82.75 125.25 -84.25 124.75 -85.0 124.25 -85.5 124.0 -86.25 123.25 -86.75 123.0 -104.5 110.25 -108.5 105.25 -143.25 92.75 -179.75 73.25 -182.75 70.0 -196.5 57.25 Q-201.25 53.0 -202.25 48.5 -212.75 39.0 -209.25 25.25 L-207.5 22.75 -207.25 22.25 -207.25 22.0 -207.0 21.75 -207.0 21.5 Q-205.25 9.25 -195.5 8.0 L-195.0 7.75 -188.75 2.5 -188.0 1.75 -187.25 1.25 -186.0 0.0 -185.0 -0.75 -169.75 -14.25 -128.0 -45.75 -101.75 -62.25 -87.25 -68.5 Q-40.5 -138.75 -1.25 -147.75 38.0 -142.0 91.0 -62.75 L100.75 -56.25 M128.75 31.75 L129.75 45.0 127.75 60.75 147.0 49.0 128.75 31.75 M-125.25 8.75 L-156.75 28.25 -130.25 49.75 -130.5 42.75 -129.5 29.25 -125.25 8.75 M-86.55 111.75 L-85.5 111.25 -87.0 110.75 -86.55 111.75" fill="#2e47aa" fill-rule="evenodd" stroke="none"/>
    <path d="M-86.55 111.75 L-87.0 110.75 -85.5 111.25 -86.55 111.75" fill="#ffffff" fill-rule="evenodd" stroke="none"/>
  </g>
</svg>
