<?xml version="1.0" encoding="UTF-8" standalone="no"?>
<svg xmlns:ffdec="https://www.free-decompiler.com/flash" xmlns:xlink="http://www.w3.org/1999/xlink" ffdec:objectType="shape" height="312.75px" width="403.05px" xmlns="http://www.w3.org/2000/svg">
  <g transform="matrix(1.0, 0.0, 0.0, 1.0, 207.85, 147.75)">
    <path d="M100.75 -56.25 L121.0 -37.25 153.75 -2.25 169.5 17.25 170.0 17.75 170.5 18.5 171.0 19.0 172.25 20.75 173.25 21.75 173.25 22.0 189.0 40.25 191.0 47.5 191.5 47.75 191.5 48.25 191.75 48.25 191.75 48.75 193.75 53.0 Q196.0 56.5 194.75 57.25 L188.0 66.5 Q179.5 90.25 97.0 118.0 L87.75 121.25 87.0 121.75 86.5 122.0 85.75 122.5 82.25 124.25 81.5 125.25 80.25 126.5 64.75 144.25 36.75 158.75 8.25 165.0 -13.75 162.75 Q-30.25 161.5 -42.0 154.75 L-62.5 144.75 -67.5 139.0 -70.0 139.75 -74.0 138.25 -75.5 138.0 -91.25 131.75 -91.75 131.5 -92.5 131.0 -99.5 128.0 Q-195.5 77.5 -197.75 58.25 L-199.25 55.75 Q-213.25 40.5 -204.5 34.0 -201.75 18.75 -193.25 20.25 L-171.5 -1.5 -134.0 -33.75 -101.0 -59.0 -90.25 -64.5 Q-38.75 -141.0 -1.25 -147.75 38.0 -142.0 91.0 -62.75 L100.75 -56.25 M128.75 31.75 L129.75 45.0 127.75 60.75 147.0 49.0 128.75 31.75 M-129.75 31.75 L-126.5 13.0 -162.25 38.25 -128.5 69.0 -130.5 44.75 -129.75 31.75" fill="#2e47aa" fill-rule="evenodd" stroke="none"/>
  </g>
</svg>
