<?xml version="1.0" encoding="UTF-8" standalone="no"?>
<svg xmlns:ffdec="https://www.free-decompiler.com/flash" xmlns:xlink="http://www.w3.org/1999/xlink" ffdec:objectType="shape" height="327.25px" width="399.0px" xmlns="http://www.w3.org/2000/svg">
  <g transform="matrix(1.0, 0.0, 0.0, 1.0, 203.75, 125.5)">
    <path d="M8.5 -55.75 L5.75 -53.0 Q5.5 -49.5 8.0 -47.25 L12.25 -46.75 Q22.5 -52.25 13.5 -56.75 L8.5 -55.75 M-25.75 -48.25 Q-32.5 -56.0 -30.5 -64.25 L-29.0 -66.25 -27.5 -67.25 -25.25 -68.25 -22.5 -69.0 -16.0 -70.0 -12.25 -70.0 -4.0 -69.25 -0.5 -68.25 3.5 -69.25 6.75 -69.5 7.25 -69.75 15.25 -70.0 21.5 -69.25 26.75 -67.5 28.5 -66.25 29.5 -65.0 30.0 -64.0 29.0 -55.75 25.5 -49.0 Q19.75 -39.25 -0.5 -46.5 -18.5 -39.25 -25.75 -48.25 M36.0 -1.0 L38.25 5.25 45.0 20.0 50.5 36.75 61.75 58.5 68.75 67.25 79.25 76.25 85.75 88.25 79.25 92.5 78.75 93.0 41.25 119.5 30.75 128.5 30.75 130.0 Q31.5 132.5 34.25 134.5 L47.25 132.5 83.5 122.5 82.25 124.25 81.5 125.25 64.75 144.25 36.75 158.75 8.25 165.0 -4.75 163.75 -13.75 162.75 Q-30.25 161.5 -42.0 154.75 L-62.5 144.75 -78.5 127.25 -80.75 124.75 -87.25 110.5 -87.5 107.5 Q-84.25 105.0 -85.0 99.5 -57.0 68.25 -37.25 6.0 L-35.5 2.0 -34.75 3.75 Q-23.0 28.25 -1.5 27.25 L1.0 27.25 Q24.0 27.75 34.0 4.0 L34.0 3.75 36.0 -1.0 M-11.25 -46.75 Q-0.25 -55.5 -15.5 -56.5 -22.75 -48.0 -11.25 -46.75" fill="#f4f5fa" fill-rule="evenodd" stroke="none"/>
    <path d="M8.5 -55.75 L13.5 -56.75 Q22.5 -52.25 12.25 -46.75 L8.0 -47.25 Q5.5 -49.5 5.75 -53.0 L8.5 -55.75 M-11.25 -46.75 Q-22.75 -48.0 -15.5 -56.5 -0.25 -55.5 -11.25 -46.75" fill="#030409" fill-rule="evenodd" stroke="none"/>
    <path d="M25.5 -49.0 Q40.0 -39.0 39.5 -28.25 L39.75 -19.5 36.0 -1.0 34.0 3.75 34.0 4.0 Q24.0 27.75 1.0 27.25 L-1.5 27.25 Q-23.0 28.25 -34.75 3.75 L-35.5 2.0 -38.5 -8.0 -40.25 -20.75 -40.0 -27.75 Q-42.25 -35.0 -25.75 -48.25 -18.5 -39.25 -0.5 -46.5 19.75 -39.25 25.5 -49.0" fill="#dc8211" fill-rule="evenodd" stroke="none"/>
    <path d="M82.25 124.25 L86.25 122.25 87.75 121.25 97.0 118.0 Q109.75 139.25 110.5 154.0 111.0 193.0 55.25 201.0 30.5 204.25 16.75 193.0 11.5 189.75 8.25 165.0 L36.75 158.75 64.75 144.25 81.5 125.25 82.25 124.25 M-4.75 163.75 L-8.5 183.5 Q-12.25 192.5 -14.0 193.25 L-14.75 194.5 -20.0 197.5 -30.75 200.75 -40.0 201.5 -52.25 200.75 Q-108.75 192.75 -107.5 153.5 L-107.25 152.75 -106.5 146.75 -103.5 137.75 -97.75 141.0 -97.5 141.75 -97.0 141.75 -96.25 142.0 -95.75 142.25 -95.75 142.5 -95.5 142.5 -95.0 142.75 -80.0 151.5 -79.75 151.75 -79.25 152.0 -78.75 152.5 -78.5 152.5 -69.0 157.0 -68.0 157.25 -65.5 156.5 -63.5 154.5 -62.75 153.25 -63.0 151.75 -66.25 148.0 -70.25 142.25 -86.0 124.75 -86.75 123.75 -88.5 122.0 -89.25 121.25 -88.75 121.5 -88.5 122.0 -86.25 123.25 -85.75 124.0 -85.5 124.0 -84.75 124.5 -84.25 124.75 -82.75 125.25 -79.25 127.0 -78.5 127.25 -62.5 144.75 -42.0 154.75 Q-30.25 161.5 -13.75 162.75 L-4.75 163.75" fill="#e58508" fill-rule="evenodd" stroke="none"/>
    <path d="M87.0 -14.5 L104.75 3.5 127.0 23.25 151.25 46.25 147.25 48.5 128.75 31.75 129.75 42.5 128.0 60.75 105.3 75.4 Q127.0 60.6 86.25 -14.5 L87.0 -14.5 M195.25 56.0 Q178.75 93.5 97.0 118.0 L100.5 123.5 104.25 132.0 102.5 132.0 Q96.75 137.0 92.75 138.0 94.25 143.25 72.75 164.5 L39.75 180.75 Q23.0 182.0 17.25 187.25 21.75 201.5 70.0 193.5 98.75 188.0 109.5 163.5 111.0 165.25 105.25 176.25 L99.0 183.75 Q76.75 201.25 47.5 201.5 L33.0 200.75 Q24.75 199.0 19.5 195.75 9.0 185.75 8.5 165.25 L-4.25 163.75 Q-6.75 184.5 -14.25 194.25 -23.75 202.75 -51.25 201.0 -75.0 198.0 -87.75 189.75 -105.25 177.75 -106.75 163.5 -96.5 187.5 -63.25 194.25 -23.25 201.25 -13.5 187.25 -19.75 181.5 -33.25 180.5 L-69.5 163.25 -80.75 151.0 -103.0 138.0 -138.25 114.25 -174.75 85.75 -192.25 65.75 -195.75 60.5 -196.25 59.25 -199.75 56.75 -203.75 49.0 Q-196.0 62.0 -191.0 55.0 L-177.0 71.25 -133.75 109.25 -97.0 137.5 -82.0 147.5 -78.25 151.0 -67.75 156.25 Q-67.25 153.25 -63.0 152.0 L-70.0 142.25 -95.75 113.75 -121.25 87.5 -125.0 79.75 Q-135.25 41.0 -126.75 16.75 L-128.25 17.25 -163.0 45.25 -163.75 45.5 -166.75 42.75 -136.75 17.5 -106.75 -5.75 -86.5 -23.0 Q-85.75 -22.25 -88.25 -17.5 L-100.25 7.0 -111.75 36.25 -117.75 55.25 Q-114.5 76.0 -84.25 97.25 -86.0 101.75 -68.0 124.75 L-36.5 146.25 0.25 153.25 9.5 152.0 37.5 145.25 48.5 139.25 65.0 128.25 Q43.85 135.35 36.15 133.55 L36.25 133.5 49.5 130.0 87.5 116.0 119.0 102.25 165.25 78.5 181.0 67.0 180.75 66.0 184.25 66.75 Q186.25 62.5 195.25 56.0 M2.0 85.0 Q-39.75 89.0 -40.25 -21.5 -35.75 26.5 1.75 27.0 34.5 25.5 40.0 -22.0 39.0 85.5 2.0 85.0 M-41.25 -124.5 L-39.75 -125.5 -40.75 -124.25 -41.25 -124.5 M-48.25 -116.25 L-48.75 -116.5 -46.75 -118.0 -48.25 -116.25 M-57.25 -106.5 L-57.75 -105.75 -58.25 -106.0 -57.25 -106.5 M-54.75 -110.0 L-52.75 -111.5 -54.25 -109.75 -54.75 -110.0 M-200.75 42.0 L-201.25 40.0 -200.0 40.25 -200.75 42.0" fill="#000000" fill-opacity="0.49803922" fill-rule="evenodd" stroke="none"/>
  </g>
</svg>
