<?xml version="1.0" encoding="UTF-8" standalone="no"?>
<svg xmlns:ffdec="https://www.free-decompiler.com/flash" xmlns:xlink="http://www.w3.org/1999/xlink" ffdec:objectType="shape" height="327.25px" width="403.0px" xmlns="http://www.w3.org/2000/svg">
  <g transform="matrix(1.0, 0.0, 0.0, 1.0, 207.75, 125.5)">
    <path d="M8.5 -55.75 L5.75 -53.0 Q5.5 -49.5 8.0 -47.25 L12.25 -46.75 Q22.5 -52.25 13.5 -56.75 L8.5 -55.75 M-25.75 -48.25 Q-32.5 -56.0 -30.5 -64.25 L-29.0 -66.25 -27.5 -67.25 -25.25 -68.25 -22.5 -69.0 -16.0 -70.0 -12.25 -70.0 -4.0 -69.25 -0.5 -68.25 3.5 -69.25 6.75 -69.5 7.25 -69.75 15.25 -70.0 21.5 -69.25 26.75 -67.5 28.5 -66.25 29.5 -65.0 30.0 -64.0 29.0 -55.75 25.5 -49.0 Q19.75 -39.25 -0.5 -46.5 -18.5 -39.25 -25.75 -48.25 M36.0 -1.0 L38.25 5.25 45.0 20.0 50.5 36.75 61.75 58.5 68.75 67.25 79.25 76.25 85.75 88.25 79.25 92.5 78.75 93.0 41.25 119.5 30.75 128.5 30.75 130.0 Q33.0 134.5 34.25 134.5 L47.25 132.5 83.5 122.5 82.25 124.25 81.5 125.25 80.25 126.5 64.75 144.25 36.75 158.75 8.25 165.0 -4.75 163.75 -13.75 162.75 Q-30.25 161.5 -42.0 154.75 L-62.5 144.75 -67.5 139.0 Q-60.25 133.75 -74.75 122.5 L-87.75 108.75 -85.25 104.25 -85.0 99.25 -77.75 93.5 -76.25 90.0 -70.25 81.75 -57.75 58.25 -48.75 36.5 -44.5 21.5 -35.5 2.0 -34.75 3.75 Q-23.0 28.25 -1.5 27.25 L1.0 27.25 Q24.0 27.75 34.0 4.0 L34.0 3.75 36.0 -1.0 M-11.25 -46.75 Q-0.25 -55.5 -15.5 -56.5 -22.75 -48.0 -11.25 -46.75" fill="#f6f7fb" fill-rule="evenodd" stroke="none"/>
    <path d="M8.5 -55.75 L13.5 -56.75 Q22.5 -52.25 12.25 -46.75 L8.0 -47.25 Q5.5 -49.5 5.75 -53.0 L8.5 -55.75 M-11.25 -46.75 Q-22.75 -48.0 -15.5 -56.5 -0.25 -55.5 -11.25 -46.75" fill="#020307" fill-rule="evenodd" stroke="none"/>
    <path d="M25.5 -49.0 Q40.0 -39.0 39.5 -28.25 L39.75 -19.5 36.0 -1.0 34.0 3.75 34.0 4.0 Q24.0 27.75 1.0 27.25 L-1.5 27.25 Q-23.0 28.25 -34.75 3.75 L-35.5 2.0 -38.5 -8.0 -40.25 -20.75 -40.0 -27.75 Q-42.25 -35.0 -25.75 -48.25 -18.5 -39.25 -0.5 -46.5 19.75 -39.25 25.5 -49.0" fill="#de830f" fill-rule="evenodd" stroke="none"/>
    <path d="M82.25 124.25 L85.75 122.5 86.5 122.0 87.0 121.75 87.75 121.25 97.0 118.0 Q109.75 139.25 110.5 154.0 111.0 193.0 55.25 201.0 30.5 204.25 16.75 193.0 11.5 189.75 8.25 165.0 L36.75 158.75 64.75 144.25 80.25 126.5 81.5 125.25 82.25 124.25 M-4.75 163.75 L-8.5 183.5 Q-12.25 192.5 -14.0 193.25 L-14.75 194.5 -20.0 197.5 -30.75 200.75 -40.0 201.5 -52.25 200.75 Q-108.75 192.75 -107.5 153.5 L-107.25 152.75 -105.25 142.25 -99.25 128.0 -86.75 133.75 -85.25 134.25 -84.25 134.75 -82.25 135.5 -82.0 135.5 -81.25 136.0 -76.25 137.5 -75.25 138.0 -69.75 139.75 -67.5 139.0 -62.5 144.75 -42.0 154.75 Q-30.25 161.5 -13.75 162.75 L-4.75 163.75" fill="#e58508" fill-rule="evenodd" stroke="none"/>
    <path d="M87.0 -14.5 L105.0 3.75 124.25 20.75 151.25 46.25 147.25 48.5 128.75 31.75 129.75 42.5 128.0 60.75 105.3 75.4 Q127.0 60.6 86.25 -14.5 L87.0 -14.5 M50.25 132.0 L35.75 134.5 34.5 134.5 32.75 131.75 Q125.0 110.0 195.25 56.0 178.75 93.5 97.0 118.0 L100.5 123.5 104.25 132.0 102.5 132.0 Q96.75 137.0 92.75 138.0 94.25 143.25 72.75 164.5 L39.75 180.75 Q23.0 182.0 17.25 187.25 21.75 201.5 70.0 193.5 98.75 188.0 109.5 163.5 111.0 165.25 105.25 176.25 L98.75 184.0 Q80.75 199.75 47.5 201.5 L33.0 200.75 Q24.75 199.0 19.5 195.75 9.0 185.75 8.5 165.25 L-4.25 163.75 Q-6.75 184.5 -14.25 194.25 -23.75 202.75 -51.25 201.0 -75.0 198.0 -87.75 189.75 -105.25 177.75 -106.75 163.5 -96.5 187.5 -63.25 194.25 -23.25 201.25 -13.5 187.25 -19.75 181.5 -33.25 180.5 L-69.5 163.25 Q-93.25 132.75 -102.25 134.75 L-99.0 127.75 -103.25 126.25 -139.25 107.25 -165.75 89.75 -180.25 79.25 -195.5 62.0 Q-208.0 46.25 -207.75 40.0 L-204.75 40.75 -199.75 47.25 -198.0 51.25 -196.0 51.1 -194.95 52.65 Q-194.0 54.7 -190.5 58.4 L-187.6 61.3 -182.75 65.75 -148.75 91.75 -109.75 117.75 -83.25 132.75 Q-71.5 139.25 -69.25 138.0 L-64.75 134.5 -72.0 124.75 -96.5 99.5 -128.25 69.25 -130.5 44.75 -129.5 29.0 -126.25 13.25 -161.25 38.25 Q-162.5 38.75 -166.25 34.75 L-161.25 30.75 -150.0 25.0 -107.5 -7.0 -86.25 -24.0 Q-129.25 55.25 -111.75 70.25 L-107.75 76.25 -96.75 88.75 -83.25 97.75 Q-86.0 99.0 -84.75 101.25 L-68.0 124.75 -36.5 146.25 -0.25 153.25 Q44.75 148.25 62.75 130.0 L65.0 128.5 65.25 128.0 64.25 128.0 50.25 132.0 M2.0 85.0 Q-39.75 89.0 -40.25 -21.5 -35.75 26.5 1.75 27.0 34.5 25.5 40.0 -22.0 39.0 85.5 2.0 85.0 M-41.25 -124.5 L-39.75 -125.5 -40.75 -124.25 -41.25 -124.5 M-48.25 -116.25 L-48.75 -116.5 -46.75 -118.0 -48.25 -116.25 M-57.25 -106.5 L-57.75 -105.75 -58.25 -106.0 -57.25 -106.5 M-54.75 -110.0 L-52.75 -111.5 -54.25 -109.75 -54.75 -110.0 M-152.75 22.75 L-153.25 22.5 -152.25 22.0 -152.75 22.75 M-67.75 139.25 L-65.5 137.5 -65.0 136.0 -68.5 139.0 -67.75 139.25 M-167.75 33.25 L-153.5 23.0 -166.75 33.75 -167.75 33.25 M-203.75 34.0 L-204.25 32.5 -203.5 32.0 -203.0 32.75 -203.75 34.0" fill="#000000" fill-opacity="0.49803922" fill-rule="evenodd" stroke="none"/>
  </g>
</svg>
