<?xml version="1.0" encoding="UTF-8" standalone="no"?>
<svg xmlns:ffdec="https://www.free-decompiler.com/flash" xmlns:xlink="http://www.w3.org/1999/xlink" ffdec:objectType="shape" height="314.15px" width="546.95px" xmlns="http://www.w3.org/2000/svg">
  <g transform="matrix(1.0, 0.0, 0.0, 1.0, 274.7, 149.35)">
    <path d="M17.25 -140.5 Q34.8 -131.75 48.95 -117.3 65.3 -100.5 78.6 -81.3 L83.2 -74.5 Q95.2 -72.95 108.7 -70.1 L109.1 -70.0 Q128.55 -70.2 132.55 -69.35 L133.6 -69.35 Q189.95 -67.75 272.25 -95.95 256.65 -71.0 218.75 -44.75 204.1 -33.35 183.6 -21.65 159.9 -8.1 140.05 -0.9 133.2 1.6 127.5 3.05 L122.65 5.0 Q125.25 13.45 126.65 21.1 L126.5 21.0 126.9 22.55 127.05 23.35 Q131.35 42.4 128.35 61.8 125.7 79.0 115.9 93.5 107.45 106.0 95.5 115.25 90.3 120.05 84.2 123.15 L82.75 123.75 Q71.75 137.15 57.1 146.35 43.9 154.55 28.95 159.35 L27.05 159.95 27.05 160.95 Q20.85 163.05 14.45 164.5 L-10.7 164.7 Q-21.25 165.35 -31.4 162.1 -46.35 157.3 -59.55 149.1 -74.2 139.9 -85.2 126.5 L-86.65 125.9 Q-92.75 122.8 -97.95 118.0 -109.9 108.75 -118.35 96.25 -128.15 81.75 -130.8 64.55 -133.8 45.15 -129.5 26.1 L-129.35 25.3 -128.95 23.75 -129.1 23.85 Q-127.7 16.2 -125.1 7.75 L-129.95 5.8 Q-135.65 4.35 -142.5 1.85 -162.35 -5.35 -186.05 -18.9 -206.55 -30.6 -221.2 -42.0 -259.1 -68.25 -274.7 -93.2 -192.4 -65.0 -136.05 -66.6 L-134.55 -66.6 Q-134.7 -67.05 -134.4 -67.15 -132.8 -67.75 -115.45 -66.8 L-97.2 -69.4 -85.8 -71.55 -81.05 -78.55 Q-69.6 -95.05 -55.9 -109.8 -50.35 -118.55 -41.85 -126.95 -35.55 -133.2 -28.55 -138.2 L-28.15 -138.55 Q-19.45 -145.55 -14.1 -146.85 L-8.75 -149.35 Q7.6 -148.7 17.25 -140.5 M-1.35 -67.5 L-1.1 -67.6 -1.1 -67.65 -1.35 -67.5" fill="#2e47aa" fill-rule="evenodd" stroke="none"/>
    <path d="M-1.35 -67.5 L-1.1 -67.65 -1.1 -67.6 -1.35 -67.5" fill="#243773" fill-rule="evenodd" stroke="none"/>
  </g>
</svg>
