<?xml version="1.0" encoding="UTF-8" standalone="no"?>
<svg xmlns:ffdec="https://www.free-decompiler.com/flash" xmlns:xlink="http://www.w3.org/1999/xlink" ffdec:objectType="shape" height="299.55px" width="547.2px" xmlns="http://www.w3.org/2000/svg">
  <g transform="matrix(1.0, 0.0, 0.0, 1.0, 273.35, 96.1)">
    <path d="M-25.75 -48.5 Q-27.5 -49.0 -30.5 -57.25 L-30.5 -64.5 -29.25 -66.5 Q-17.6 -72.4 -4.55 -69.5 L-3.25 -69.25 -3.0 -69.0 Q10.65 -71.05 24.45 -68.5 28.05 -67.7 30.0 -64.5 29.5 -56.0 28.5 -55.0 L25.25 -49.25 Q18.5 -39.5 -0.5 -47.0 -17.5 -39.25 -25.75 -48.5 M12.0 -47.0 Q22.5 -52.5 14.0 -57.0 -1.5 -55.0 12.0 -47.0 M-11.75 -47.0 Q-0.5 -56.25 -15.5 -56.75 -22.5 -48.75 -11.75 -47.0" fill="#ffffff" fill-rule="evenodd" stroke="none"/>
    <path d="M25.25 -49.25 Q42.9 -39.25 39.75 -18.65 38.4 -9.85 36.0 -1.25 31.25 17.25 14.05 23.85 -4.45 31.1 -21.25 20.1 -31.5 13.4 -35.5 1.75 L-38.5 -8.25 Q-48.0 -33.0 -25.75 -48.5 -17.5 -39.25 -0.5 -47.0 18.5 -39.5 25.25 -49.25 M-88.25 122.25 L-78.25 127.25 Q-64.15 142.4 -45.55 151.55 -28.2 160.1 -9.25 163.25 -8.5 175.6 -14.1 186.75 -16.05 190.55 -19.35 193.3 -34.3 205.9 -55.3 202.85 -75.65 200.25 -93.05 189.6 -111.45 178.45 -110.8 156.7 -110.1 134.55 -96.5 116.25 L-88.25 122.25 M28.95 159.35 Q43.9 154.55 57.1 146.35 71.75 137.15 82.75 123.75 L84.2 123.15 Q90.3 120.05 95.5 115.25 111.0 141.75 110.5 154.0 111.0 193.0 55.25 201.0 30.5 204.25 16.75 193.0 11.5 190.0 8.25 164.75 18.8 162.6 28.95 159.35" fill="#e58508" fill-rule="evenodd" stroke="none"/>
    <path d="M-11.75 -47.0 Q-22.5 -48.75 -15.5 -56.75 -0.5 -56.25 -11.75 -47.0 M12.0 -47.0 Q-1.5 -55.0 14.0 -57.0 22.5 -52.5 12.0 -47.0" fill="#000000" fill-rule="evenodd" stroke="none"/>
    <path d="M3.55 24.55 Q35.5 22.65 40.0 -22.0 40.0 81.75 1.75 84.5 -39.5 88.25 -40.25 -21.75 -36.25 25.75 3.55 24.55 M100.5 -2.5 L101.15 -2.05 103.1 -0.65 102.95 -0.85 101.95 -2.25 Q131.55 -9.95 148.25 -15.5 174.2 -24.15 191.7 -34.3 217.25 -49.1 230.0 -59.05 250.85 -75.45 257.65 -91.6 L265.65 -93.95 273.85 -96.1 Q247.8 -61.1 207.75 -34.4 169.5 -8.85 124.4 4.2 125.85 8.35 126.6 15.4 L127.1 21.15 126.5 20.75 127.2 22.85 Q142.0 71.45 95.5 115.0 L99.75 122.25 104.0 131.75 102.0 132.25 Q96.75 136.75 92.5 138.0 L92.25 142.0 Q62.05 180.35 21.75 184.5 22.5 187.0 36.5 189.25 L36.75 196.25 Q56.5 194.25 66.25 194.5 98.5 188.5 109.5 163.5 111.0 165.25 105.25 176.25 L99.0 183.75 Q83.75 201.75 33.25 200.75 8.5 198.5 8.5 164.75 L5.5 165.0 -9.0 163.25 Q-11.0 207.5 -43.0 202.5 -93.5 201.5 -108.25 173.25 L-110.75 167.25 -111.0 164.0 Q-106.5 187.5 -37.5 197.25 L-37.25 189.75 Q-25.5 188.5 -20.75 184.25 -21.75 182.25 -33.5 180.75 -69.5 171.95 -89.75 141.0 -102.75 131.75 -105.0 132.75 L-101.75 124.5 -96.25 115.75 Q-119.5 98.75 -126.0 77.25 L-128.25 69.0 -130.5 44.25 -129.5 29.5 -128.2 23.7 Q-126.95 20.05 -125.75 15.35 L-125.45 14.15 -123.3 5.95 Q-134.9 3.7 -145.55 -0.65 -159.15 -6.25 -165.2 -9.1 -179.25 -16.1 -186.35 -20.05 -199.3 -27.25 -210.15 -34.6 -221.05 -42.0 -232.4 -50.4 -243.75 -58.8 -256.15 -70.6 -268.6 -82.45 -273.35 -93.45 L-266.25 -91.1 -258.25 -88.55 -254.1 -81.4 Q-250.0 -74.2 -240.35 -65.95 -230.7 -57.7 -218.0 -48.8 -205.3 -39.95 -177.8 -25.6 -150.3 -11.3 -99.4 -4.2 L-100.75 -1.75 -101.5 0.0 -102.6 1.1 -122.75 36.25 -121.0 47.25 Q-108.15 85.35 -83.25 97.75 -86.0 98.75 -85.0 100.75 -71.55 130.55 -37.25 145.5 2.1 158.15 38.25 145.0 70.5 131.25 86.75 101.5 90.0 97.5 87.25 91.5 103.25 80.25 109.0 70.0 L118.25 52.0 122.5 35.0 100.5 -2.5" fill="#000000" fill-opacity="0.49803922" fill-rule="evenodd" stroke="none"/>
  </g>
</svg>
