<?xml version="1.0" encoding="UTF-8" standalone="no"?>
<svg xmlns:ffdec="https://www.free-decompiler.com/flash" xmlns:xlink="http://www.w3.org/1999/xlink" ffdec:objectType="shape" height="311.95px" width="366.85px" xmlns="http://www.w3.org/2000/svg">
  <g transform="matrix(1.0, 0.0, 0.0, 1.0, 193.85, 148.0)">
    <path d="M103.7 -52.35 L132.75 -31.6 Q147.55 -20.25 155.15 -10.5 159.3 -5.85 162.5 -1.3 173.0 13.7 173.0 27.5 173.0 45.0 135.0 45.0 L129.6 44.95 Q129.65 53.35 128.35 61.8 125.7 79.0 115.9 93.5 107.45 106.0 95.5 115.25 90.3 120.05 84.2 123.15 L82.75 123.75 Q5.2 202.4 -78.25 127.25 L-88.25 122.25 -96.5 116.25 Q-112.05 105.5 -120.9 88.6 L-121.95 86.5 Q-136.9 79.3 -151.0 71.3 -193.85 47.05 -193.85 36.0 -193.85 28.15 -186.75 17.3 -177.25 2.8 -155.05 -17.05 L-149.6 -22.15 Q-145.0 -26.4 -136.8 -32.8 -128.6 -39.2 -120.35 -45.2 L-109.8 -52.55 -83.6 -69.7 Q-68.7 -95.1 -56.15 -108.15 -26.55 -138.9 -6.25 -146.45 L-1.5 -148.0 Q27.55 -139.15 56.2 -109.35 69.65 -95.4 86.0 -65.8 93.4 -59.7 103.7 -52.35 M127.6 25.85 L129.0 25.9 127.5 25.35 127.6 25.85 M-1.35 -70.4 L-1.35 -70.35 -1.0 -70.25 -1.35 -70.4" fill="#2e47aa" fill-rule="evenodd" stroke="none"/>
    <path d="M-1.35 -70.4 L-1.0 -70.25 -1.35 -70.35 -1.35 -70.4" fill="#243773" fill-rule="evenodd" stroke="none"/>
  </g>
</svg>
