<?xml version="1.0" encoding="UTF-8" standalone="no"?>
<svg xmlns:ffdec="https://www.free-decompiler.com/flash" xmlns:xlink="http://www.w3.org/1999/xlink" ffdec:objectType="shape" height="273.9px" width="366.85px" xmlns="http://www.w3.org/2000/svg">
  <g transform="matrix(1.0, 0.0, 0.0, 1.0, 193.85, 70.45)">
    <path d="M-25.75 -48.5 Q-27.5 -49.0 -30.5 -57.25 L-30.5 -64.5 -29.25 -66.5 Q-17.6 -72.4 -4.55 -69.5 L-3.25 -69.25 -3.0 -69.0 Q10.65 -71.05 24.45 -68.5 28.05 -67.7 30.0 -64.5 29.5 -56.0 28.5 -55.0 L25.25 -49.25 Q18.5 -39.5 -0.5 -47.0 -17.5 -39.25 -25.75 -48.5 M12.0 -47.0 Q22.5 -52.5 14.0 -57.0 -1.5 -55.0 12.0 -47.0 M-11.75 -47.0 Q-0.5 -56.25 -15.5 -56.75 -22.5 -48.75 -11.75 -47.0" fill="#ffffff" fill-rule="evenodd" stroke="none"/>
    <path d="M25.25 -49.25 Q41.65 -39.95 40.1 -21.5 L40.2 -21.05 39.4 -20.3 38.9 -19.8 36.8 -20.55 Q24.85 -24.0 15.0 -24.0 6.3 -24.0 -4.85 -19.85 -16.55 -15.5 -18.0 -11.0 L-18.0 -6.0 Q-16.45 -6.0 -13.8 -5.0 -11.2 -4.0 -10.0 -4.0 -1.0 -4.0 28.2 12.2 L32.5 15.25 29.2 13.05 Q23.5 20.25 14.05 23.85 -4.45 31.1 -21.25 20.1 -31.5 13.4 -35.5 1.75 L-38.5 -8.25 Q-48.0 -33.0 -25.75 -48.5 -17.5 -39.25 -0.5 -47.0 18.5 -39.5 25.25 -49.25 M-88.25 122.25 L-78.25 127.25 Q-64.15 142.4 -45.55 151.55 -28.2 160.1 -9.25 163.25 -8.5 175.6 -14.1 186.75 -16.05 190.55 -19.35 193.3 -34.3 205.9 -55.3 202.85 -75.65 200.25 -93.05 189.6 -111.45 178.45 -110.8 156.7 -110.1 134.55 -96.5 116.25 L-88.25 122.25 M28.95 159.35 Q43.9 154.55 57.1 146.35 71.75 137.15 82.75 123.75 L84.2 123.15 Q90.3 120.05 95.5 115.25 111.0 141.75 110.5 154.0 111.0 193.0 55.25 201.0 30.5 204.25 16.75 193.0 11.5 190.0 8.25 164.75 18.8 162.6 28.95 159.35" fill="#e58508" fill-rule="evenodd" stroke="none"/>
    <path d="M-11.75 -47.0 Q-22.5 -48.75 -15.5 -56.75 -0.5 -56.25 -11.75 -47.0 M12.0 -47.0 Q-1.5 -55.0 14.0 -57.0 22.5 -52.5 12.0 -47.0" fill="#000000" fill-rule="evenodd" stroke="none"/>
    <path d="M73.0 -13.0 Q73.0 -15.55 74.95 -18.5 76.95 -21.45 77.0 -24.0 83.35 -19.85 108.65 -6.5 L108.7 -6.45 Q97.0 -7.7 73.0 -12.0 L73.0 -13.0 M60.5 -9.7 L59.75 -9.9 60.15 -9.95 Q60.4 -10.1 60.5 -9.7 M118.2 -1.75 L117.85 -1.95 Q116.55 -2.65 115.4 -3.3 116.65 -2.7 118.0 -2.05 L118.6 -1.75 118.2 -1.75 M162.5 -1.3 Q173.0 13.7 173.0 27.5 173.0 45.0 135.0 45.0 L130.75 44.95 Q131.3 81.45 95.5 115.0 L99.75 122.25 104.0 131.75 102.0 132.25 Q96.75 136.75 92.5 138.0 L92.25 142.0 Q62.05 180.35 21.75 184.5 22.5 187.0 36.5 189.25 L36.75 196.25 Q56.5 194.25 66.25 194.5 98.5 188.5 109.5 163.5 111.0 165.25 105.25 176.25 L99.0 183.75 Q83.75 201.75 33.25 200.75 8.5 198.5 8.5 164.75 L5.5 165.0 -9.0 163.25 Q-11.0 207.5 -43.0 202.5 -93.5 201.5 -108.25 173.25 L-110.75 167.25 -111.0 164.0 Q-106.5 187.5 -37.5 197.25 L-37.25 189.75 Q-25.5 188.5 -20.75 184.25 -21.75 182.25 -33.5 180.75 -69.5 171.95 -89.75 141.0 -102.75 131.75 -105.0 132.75 L-101.75 124.5 -96.25 115.75 Q-114.5 102.4 -122.4 86.3 -137.1 79.15 -151.0 71.3 -193.85 47.05 -193.85 36.0 -193.85 28.15 -186.75 17.3 L-186.85 19.0 Q-186.85 37.45 -140.95 63.9 -134.6 67.55 -127.65 71.2 L-127.65 71.25 Q-115.2 77.75 -100.75 84.3 -92.9 92.95 -83.25 97.75 -86.0 98.75 -85.0 100.75 -71.55 130.55 -37.25 145.5 2.1 158.15 38.25 145.0 70.5 131.25 86.75 101.5 90.0 97.5 87.25 91.5 103.25 80.25 109.0 70.0 L118.25 52.0 120.15 44.5 Q77.75 41.45 39.55 21.0 L38.0 20.15 Q31.25 82.4 1.75 84.5 -30.4 87.4 -39.65 -0.2 -40.15 -10.4 -40.25 -21.75 -36.25 25.75 1.75 26.75 18.15 25.65 27.65 14.1 21.05 10.15 12.2 4.5 0.4 -3.0 -3.5 -3.0 L-12.0 -3.05 Q-18.0 -3.9 -18.0 -8.5 -18.0 -9.7 -16.2 -12.4 L-15.05 -11.0 Q-13.05 -9.0 -11.0 -9.0 -9.75 -9.0 -6.0 -10.0 L-1.0 -11.0 Q6.6 -11.0 19.1 -5.2 L34.6 2.2 39.3 4.45 45.55 7.5 55.35 11.6 Q89.15 24.6 127.6 25.85 L129.0 25.9 136.0 26.0 Q148.05 26.0 157.05 22.0 163.05 19.3 165.45 15.7 L166.1 14.6 Q167.0 12.65 167.0 10.5 167.0 9.85 162.95 -0.2 L162.5 -1.3" fill="#000000" fill-opacity="0.49803922" fill-rule="evenodd" stroke="none"/>
    <path d="M-167.75 30.15 L-167.7 30.1 -167.5 30.2 -167.75 30.15" fill="#2e47aa" fill-rule="evenodd" stroke="none"/>
  </g>
</svg>
