<?xml version="1.0" encoding="UTF-8" standalone="no"?>
<svg xmlns:ffdec="https://www.free-decompiler.com/flash" xmlns:xlink="http://www.w3.org/1999/xlink" ffdec:objectType="shape" height="311.15px" width="369.1px" xmlns="http://www.w3.org/2000/svg">
  <g transform="matrix(1.0, 0.0, 0.0, 1.0, 185.4, 147.3)">
    <path d="M86.25 -69.5 L112.0 -50.75 133.75 -28.5 152.5 -5.75 Q165.65 3.6 170.05 20.3 L177.4 49.65 Q182.95 72.95 183.7 96.4 183.75 97.55 182.45 97.2 179.55 97.05 177.8 94.6 170.0 83.6 162.75 72.25 L142.0 31.25 126.75 21.25 Q140.6 65.5 109.15 100.3 97.05 113.75 82.25 124.25 60.3 149.45 28.6 159.3 -5.8 169.95 -39.9 155.7 -62.35 146.3 -78.25 127.25 -121.9 106.4 -129.25 59.1 -132.2 40.1 -128.0 21.25 -136.1 25.8 -143.5 31.25 L-144.0 33.5 -160.25 65.25 Q-168.35 83.35 -181.6 96.7 -183.7 98.8 -184.35 95.95 -186.35 87.05 -184.55 78.0 -178.1 46.0 -165.95 15.75 -157.6 -4.95 -141.6 -21.35 L-124.4 -38.8 Q-107.3 -56.0 -88.0 -70.6 -83.9 -73.7 -80.95 -78.2 -55.75 -117.1 -17.45 -141.85 -1.0 -152.55 16.05 -142.15 60.3 -115.1 86.25 -69.5" fill="#2e47aa" fill-rule="evenodd" stroke="none"/>
  </g>
</svg>
