<?xml version="1.0" encoding="UTF-8" standalone="no"?>
<svg xmlns:ffdec="https://www.free-decompiler.com/flash" xmlns:xlink="http://www.w3.org/1999/xlink" ffdec:objectType="shape" height="311.15px" width="364.55px" xmlns="http://www.w3.org/2000/svg">
  <g transform="matrix(1.0, 0.0, 0.0, 1.0, 185.3, 147.1)">
    <path d="M87.25 -70.35 Q96.95 -71.75 106.05 -68.55 124.65 -62.6 141.7 -53.05 171.5 -36.5 178.25 -4.9 181.15 8.85 175.8 21.95 169.0 38.5 157.15 32.05 156.9 26.75 154.45 11.1 133.0 0.35 127.05 23.35 L127.3 23.9 Q139.35 67.15 109.25 100.5 97.15 113.95 82.35 124.45 60.4 149.65 28.7 159.5 -5.7 170.15 -39.8 155.9 -62.25 146.5 -78.15 127.45 -121.8 106.6 -129.15 59.3 -132.1 40.3 -127.9 21.45 -136.0 26.0 -143.4 31.45 L-143.9 33.7 -160.15 65.45 Q-168.25 83.55 -181.5 96.9 -183.6 99.0 -184.25 96.15 -186.25 87.25 -184.45 78.2 -178.0 46.2 -165.85 15.95 -157.5 -4.75 -141.5 -21.15 L-124.3 -38.6 Q-107.2 -55.8 -87.9 -70.4 -83.8 -73.5 -80.85 -78.0 -55.65 -116.9 -17.35 -141.65 -0.9 -152.35 16.15 -141.95 60.0 -115.15 85.9 -70.1 L87.25 -70.35" fill="#2e47aa" fill-rule="evenodd" stroke="none"/>
  </g>
</svg>
