<?xml version="1.0" encoding="UTF-8" standalone="no"?>
<svg xmlns:ffdec="https://www.free-decompiler.com/flash" xmlns:xlink="http://www.w3.org/1999/xlink" ffdec:objectType="shape" height="311.15px" width="316.05px" xmlns="http://www.w3.org/2000/svg">
  <g transform="matrix(1.0, 0.0, 0.0, 1.0, 185.3, 147.1)">
    <path d="M89.8 -71.1 L113.3 -49.95 Q133.7 -18.75 124.0 16.4 L125.1 18.95 127.3 23.9 Q139.35 67.15 109.25 100.5 97.15 113.95 82.35 124.45 60.4 149.65 28.7 159.5 -5.7 170.15 -39.8 155.9 -62.25 146.5 -78.15 127.45 -121.8 106.6 -129.15 59.3 -132.1 40.3 -127.9 21.45 -136.0 26.0 -143.4 31.45 L-143.9 33.7 -160.15 65.45 Q-168.25 83.55 -181.5 96.9 -183.6 99.0 -184.25 96.15 -186.25 87.25 -184.45 78.2 -178.0 46.2 -165.85 15.95 -157.5 -4.75 -141.5 -21.15 L-124.3 -38.6 Q-107.2 -55.8 -87.9 -70.4 -83.8 -73.5 -80.85 -78.0 -55.65 -116.9 -17.35 -141.65 -0.9 -152.35 16.15 -141.95 60.35 -114.9 86.3 -69.35 87.75 -70.4 89.8 -71.1" fill="#2e47aa" fill-rule="evenodd" stroke="none"/>
  </g>
</svg>
