<?xml version="1.0" encoding="UTF-8" standalone="no"?>
<svg xmlns:ffdec="https://www.free-decompiler.com/flash" xmlns:xlink="http://www.w3.org/1999/xlink" ffdec:objectType="shape" height="311.15px" width="425.4px" xmlns="http://www.w3.org/2000/svg">
  <g transform="matrix(1.0, 0.0, 0.0, 1.0, 185.3, 147.1)">
    <path d="M84.0 -73.35 L86.35 -69.3 87.25 -68.65 Q89.75 -62.75 96.7 -47.6 106.9 -25.2 111.05 -15.2 L112.55 -11.55 Q120.15 7.7 125.1 18.95 L127.3 23.9 Q139.35 67.15 109.25 100.5 97.15 113.95 82.35 124.45 60.4 149.65 28.7 159.5 -5.7 170.15 -39.8 155.9 -62.25 146.5 -78.15 127.45 -121.8 106.6 -129.15 59.3 -132.1 40.3 -127.9 21.45 -136.0 26.0 -143.4 31.45 L-143.9 33.7 -160.15 65.45 Q-168.25 83.55 -181.5 96.9 -183.6 99.0 -184.25 96.15 -186.25 87.25 -184.45 78.2 -178.0 46.2 -165.85 15.95 -157.5 -4.75 -141.5 -21.15 L-124.3 -38.6 Q-107.2 -55.8 -87.9 -70.4 -83.8 -73.5 -80.85 -78.0 -55.65 -116.9 -17.35 -141.65 -0.9 -152.35 16.15 -141.95 58.4 -116.1 84.0 -73.35" fill="#2e47aa" fill-rule="evenodd" stroke="none"/>
    <path d="M111.05 -15.2 Q106.9 -25.2 96.7 -47.6 89.75 -62.75 87.25 -68.65 L86.35 -69.3 84.0 -73.35 Q100.65 -72.8 137.4 -59.15 166.35 -48.35 179.35 -40.55 187.6 -33.1 209.6 -14.35 L222.95 -2.45 231.25 5.95 232.25 6.95 Q237.35 12.3 240.1 18.25 239.65 18.25 239.5 18.6 L239.4 18.95 233.7 18.95 Q214.95 15.75 196.3 7.85 178.45 0.25 167.8 -8.9 L146.0 -9.75 Q125.2 -10.95 111.05 -15.2" fill="#2d46aa" fill-rule="evenodd" stroke="none"/>
  </g>
</svg>
