<?xml version="1.0" encoding="UTF-8" standalone="no"?>
<svg xmlns:ffdec="https://www.free-decompiler.com/flash" xmlns:xlink="http://www.w3.org/1999/xlink" ffdec:objectType="shape" height="374.5px" width="221.35px" xmlns="http://www.w3.org/2000/svg">
  <g transform="matrix(1.0, 0.0, 0.0, 1.0, 111.15, 114.25)">
    <path d="M-69.5 -102.25 L-67.75 -107.25 -63.0 -113.0 -61.25 -114.25 Q-57.55 -104.75 -51.5 -96.5 L-35.25 -71.0 -35.9 -69.4 Q-37.95 -64.45 -42.75 -62.75 -59.5 -65.5 -62.5 -77.5 -60.0 -74.25 -57.5 -75.25 L-56.25 -79.75 Q-58.75 -90.25 -63.25 -84.0 L-63.75 -83.0 -63.75 -84.0 Q-68.75 -86.25 -69.75 -92.0 L-68.5 -91.25 -67.5 -92.0 -66.0 -95.75 -67.5 -103.0 -69.5 -102.25" fill="#ffffff" fill-rule="evenodd" stroke="none"/>
    <path d="M-69.5 -102.25 L-67.5 -103.0 -66.0 -95.75 -67.5 -92.0 -68.5 -91.25 -69.75 -92.0 -71.0 -93.5 -71.5 -94.5 -71.75 -99.0 -69.5 -102.25 M-63.75 -83.0 L-63.25 -84.0 Q-58.75 -90.25 -56.25 -79.75 L-57.5 -75.25 Q-60.0 -74.25 -62.5 -77.5 L-63.75 -83.0" fill="#000000" fill-rule="evenodd" stroke="none"/>
    <path d="M-69.75 -92.0 Q-68.75 -86.25 -63.75 -84.0 L-63.75 -83.0 -62.5 -77.5 Q-59.5 -65.5 -42.75 -62.75 -36.0 -40.25 -40.25 -30.25 L-42.0 -27.0 -49.0 -25.25 -89.5 -21.25 Q-109.75 -26.2 -111.05 -46.95 -112.0 -62.6 -101.15 -74.1 -88.85 -87.1 -72.25 -93.0 L-71.0 -93.5 -69.75 -92.0 M-23.0 157.5 L-1.4 169.8 Q12.65 178.2 28.75 180.25 L29.25 182.0 34.0 208.5 19.7 223.35 Q0.3 242.75 -25.9 234.95 -50.2 227.6 -64.5 205.8 -86.75 171.9 -56.25 148.25 -54.4 149.5 -52.3 150.0 -37.75 154.1 -23.0 157.5 M-100.5 91.5 Q-101.6 90.5 -102.35 89.3 -116.75 66.85 -103.0 41.75 -104.15 53.35 -103.55 64.9 -102.9 78.25 -100.5 91.5" fill="#e58508" fill-rule="evenodd" stroke="none"/>
    <path d="M52.25 260.25 Q49.8 257.25 47.7 254.1 L48.7 254.0 Q68.45 228.75 75.4 194.1 69.35 228.95 52.25 260.25 M74.7 127.95 L74.5 128.75 73.0 88.5 Q77.4 108.15 74.7 127.95 M105.0 95.0 L107.75 59.5 108.5 64.4 Q117.05 119.85 82.6 161.4 84.0 153.35 82.25 145.25 L81.95 143.8 Q93.15 131.15 99.4 115.55 103.45 105.6 105.0 95.0 M-91.55 -21.35 Q-107.2 -25.3 -110.15 -41.3 L-111.05 -51.55 Q-110.15 -44.2 -104.95 -38.8 -79.2 -12.05 -40.75 -29.0 -68.9 0.65 -89.75 35.75 L-89.5 37.0 Q-93.15 42.0 -95.35 47.9 -99.6 59.25 -97.45 70.85 -86.55 129.85 -25.5 143.25 L-21.25 142.0 -24.0 127.5 Q-5.25 144.6 18.25 154.25 L2.0 44.25 Q13.0 95.75 33.0 144.5 29.75 145.9 29.7 148.5 28.6 201.1 47.05 253.15 34.45 233.8 34.25 208.5 24.15 221.95 9.4 229.95 -0.3 235.1 -11.15 235.05 -56.1 234.85 -70.35 188.25 -67.2 195.4 -62.95 202.05 -38.05 241.1 3.25 228.3 32.0 219.45 20.0 195.75 -26.5 180.2 -72.25 165.25 -67.7 153.4 -56.25 147.75 -87.2 122.95 -102.1 87.95 -104.65 82.0 -104.8 76.1 -106.1 27.2 -89.5 -21.0 L-91.55 -21.35" fill="#000000" fill-opacity="0.49803922" fill-rule="evenodd" stroke="none"/>
  </g>
</svg>
