<?xml version="1.0" encoding="UTF-8" standalone="no"?>
<svg xmlns:ffdec="https://www.free-decompiler.com/flash" xmlns:xlink="http://www.w3.org/1999/xlink" ffdec:objectType="shape" height="372.75px" width="356.45px" xmlns="http://www.w3.org/2000/svg">
  <g transform="matrix(1.0, 0.0, 0.0, 1.0, 204.7, 146.9)">
    <path d="M78.5 -96.0 Q123.0 -34.5 130.5 10.5 L130.5 11.0 142.0 45.0 150.5 78.5 150.75 79.0 151.75 95.5 Q151.5 98.0 146.0 102.25 L137.75 122.5 108.75 167.75 108.75 168.0 75.5 217.0 74.25 218.25 74.25 218.5 67.75 225.75 Q65.5 226.0 63.0 223.75 L62.75 222.5 65.25 213.5 71.25 197.75 91.75 150.5 92.0 149.75 92.5 149.0 92.75 148.0 96.25 141.25 96.5 140.5 96.75 140.25 97.25 139.0 97.25 138.25 97.5 138.0 98.0 137.25 98.75 135.75 99.25 134.25 113.25 106.25 105.25 114.75 89.25 125.75 89.0 126.0 88.5 126.25 86.0 128.0 82.0 129.5 62.75 148.75 33.5 161.25 8.25 165.0 2.25 165.5 -25.75 160.25 -38.5 155.25 -62.75 141.25 -67.85 135.4 -78.75 122.0 -79.75 121.75 -83.25 120.0 -84.0 119.25 -84.75 119.0 -91.5 113.75 Q-120.75 88.25 -123.0 69.5 -131.25 35.25 -115.75 -3.25 L-146.9 6.4 -170.2 42.85 -195.65 76.65 Q-198.4 79.05 -201.7 80.4 L-203.15 80.6 -203.95 80.35 Q-205.45 76.05 -203.9 71.45 -201.3 64.05 -199.0 56.6 L-188.7 28.05 -172.75 -9.95 Q-171.2 -12.6 -169.3 -14.95 L-167.8 -16.8 Q-155.35 -33.3 -134.5 -48.05 L-128.15 -52.4 -102.0 -67.75 Q-74.0 -81.25 -69.25 -78.75 L-44.25 -106.25 -22.5 -127.0 Q9.75 -151.75 26.75 -145.75 41.25 -144.25 78.5 -96.0" fill="#2e47aa" fill-rule="evenodd" stroke="none"/>
  </g>
</svg>
