<?xml version="1.0" encoding="UTF-8" standalone="no"?>
<svg xmlns:ffdec="https://www.free-decompiler.com/flash" xmlns:xlink="http://www.w3.org/1999/xlink" ffdec:objectType="shape" height="223.5px" width="363.9px" xmlns="http://www.w3.org/2000/svg">
  <g transform="matrix(1.0, 0.0, 0.0, 1.0, 185.75, 22.0)">
    <path d="M101.35 -0.85 L100.25 -2.5 101.85 -1.25 101.9 -1.25 102.65 -1.0 105.45 0.05 Q110.3 1.55 116.85 1.85 L116.9 2.0 116.95 2.0 117.0 2.05 117.1 2.3 124.0 1.45 Q138.55 0.5 153.55 -7.05 158.6 -9.6 162.45 -12.1 160.0 -7.9 159.35 0.4 158.7 8.5 159.65 17.3 L159.7 19.7 159.7 18.95 160.85 22.0 Q162.35 26.7 164.7 26.7 169.25 26.7 173.2 20.75 L177.45 13.55 178.15 14.15 177.95 15.3 174.35 23.8 172.2 29.0 Q167.5 34.2 162.8 34.2 L159.75 33.65 159.45 33.75 158.75 32.45 159.2 33.3 158.25 32.35 Q157.65 31.5 157.65 30.35 L157.7 29.7 Q156.9 26.9 156.9 23.7 156.3 18.6 155.75 16.3 L155.1 14.6 155.05 14.15 Q154.7 7.65 142.2 7.65 134.7 7.65 129.7 16.8 L127.0 22.35 128.75 31.25 129.75 42.5 127.25 68.5 Q121.0 95.25 95.5 115.0 L99.75 122.25 104.25 132.25 102.5 132.0 Q96.75 137.0 92.75 138.0 94.25 143.25 72.75 164.5 L41.25 180.0 Q22.5 181.75 16.75 188.5 23.5 200.5 67.25 194.25 98.75 188.25 109.25 164.25 L110.0 163.5 109.75 166.0 Q105.75 194.25 47.5 201.5 L33.0 200.75 Q24.75 199.0 19.5 195.75 9.0 185.75 8.5 165.25 L-4.25 163.75 Q-6.75 184.5 -14.25 194.25 -23.75 202.75 -51.25 201.0 -75.0 198.0 -87.75 189.75 -105.25 177.75 -106.75 163.5 -96.0 187.25 -65.25 193.75 -23.0 201.0 -13.0 188.25 -18.25 181.75 -34.5 180.0 L-69.0 163.5 -89.75 140.5 Q-100.5 134.0 -102.25 134.75 L-97.75 124.0 -93.75 117.75 Q-121.75 97.0 -126.0 77.0 L-127.5 71.5 Q-133.25 42.25 -128.25 22.5 L-127.75 22.0 -128.25 21.5 -142.75 31.0 -158.0 61.5 -168.25 80.0 -176.75 93.5 -181.5 98.0 -184.75 97.25 Q-184.0 96.25 -185.75 90.75 L-183.25 74.25 -174.75 37.0 -174.0 37.5 Q-176.5 44.25 -175.25 50.0 L-176.25 52.0 -176.5 65.25 -176.0 70.25 -173.25 69.75 -172.5 68.5 Q-170.0 68.75 -165.75 63.75 -161.75 53.5 -155.0 50.0 L-150.5 41.0 -149.75 40.5 -150.5 42.25 -148.5 40.5 -148.75 39.25 -149.5 39.25 -148.5 37.25 -149.25 36.5 -151.0 36.5 -152.25 34.5 -155.0 33.25 -155.75 30.75 -158.5 28.0 -154.75 29.0 -155.0 30.75 Q-143.25 23.0 -140.75 24.25 L-128.25 17.0 -112.75 6.25 -108.25 2.0 -106.5 1.75 -100.0 -3.0 -100.75 -1.0 -104.0 2.75 -113.75 18.0 -114.75 18.5 -122.75 36.5 -121.0 46.75 -111.75 70.75 -104.5 80.25 -96.75 88.75 -83.25 97.75 Q-86.0 99.0 -84.75 101.25 L-68.0 124.75 -36.5 146.25 0.0 153.25 Q40.5 151.0 69.0 125.75 L86.5 102.0 Q90.0 97.25 87.25 91.5 103.25 80.0 107.0 72.5 L112.75 63.0 118.0 52.0 122.5 35.25 114.75 18.75 103.65 2.45 103.6 2.45 103.35 2.05 Q101.95 0.8 101.25 -0.6 L101.35 -0.85 M2.0 27.0 Q34.5 25.5 40.0 -22.0 39.0 85.5 2.0 85.0 -20.0 89.0 -29.25 60.75 L-32.75 50.25 -37.75 24.25 -39.5 11.25 -40.25 -21.5 Q-36.0 26.5 2.0 27.0" fill="#000000" fill-opacity="0.49803922" fill-rule="evenodd" stroke="none"/>
  </g>
</svg>
