<?xml version="1.0" encoding="UTF-8" standalone="no"?>
<svg xmlns:ffdec="https://www.free-decompiler.com/flash" xmlns:xlink="http://www.w3.org/1999/xlink" ffdec:objectType="shape" height="223.5px" width="315.5px" xmlns="http://www.w3.org/2000/svg">
  <g transform="matrix(1.0, 0.0, 0.0, 1.0, 185.75, 22.0)">
    <path d="M99.65 -13.2 L103.7 -7.3 Q109.9 1.05 117.5 1.05 121.8 1.05 122.7 -6.0 L123.45 -10.85 123.55 -11.1 124.0 -14.65 124.65 -20.1 125.1 -20.1 126.45 -15.25 Q127.2 -12.6 127.2 -11.15 127.2 -7.65 126.85 -4.95 L127.45 -2.1 127.3 -0.95 127.15 -0.35 Q126.4 2.9 126.35 5.9 125.15 13.95 123.95 17.4 L126.2 20.1 126.45 20.4 126.35 22.1 126.35 22.2 127.35 23.95 128.75 31.25 129.75 42.5 127.25 68.5 Q121.0 95.25 95.5 115.0 L99.75 122.25 104.25 132.25 102.5 132.0 Q96.75 137.0 92.75 138.0 94.25 143.25 72.75 164.5 L41.25 180.0 Q22.5 181.75 16.75 188.5 23.5 200.5 67.25 194.25 98.75 188.25 109.25 164.25 L110.0 163.5 109.75 166.0 Q105.75 194.25 47.5 201.5 L33.0 200.75 Q24.75 199.0 19.5 195.75 9.0 185.75 8.5 165.25 L-4.25 163.75 Q-6.75 184.5 -14.25 194.25 -23.75 202.75 -51.25 201.0 -75.0 198.0 -87.75 189.75 -105.25 177.75 -106.75 163.5 -96.0 187.25 -65.25 193.75 -23.0 201.0 -13.0 188.25 -18.25 181.75 -34.5 180.0 L-69.0 163.5 -89.75 140.5 Q-100.5 134.0 -102.25 134.75 L-97.75 124.0 -93.75 117.75 Q-121.75 97.0 -126.0 77.0 L-127.5 71.5 Q-133.25 42.25 -128.25 22.5 L-127.75 22.0 -128.25 21.5 -142.75 31.0 -158.0 61.5 -168.25 80.0 -176.75 93.5 -181.5 98.0 -184.75 97.25 Q-184.0 96.25 -185.75 90.75 L-183.25 74.25 -174.75 37.0 -174.0 37.5 Q-176.5 44.25 -175.25 50.0 L-176.25 52.0 -176.5 65.25 -176.0 70.25 -173.25 69.75 -172.5 68.5 Q-170.0 68.75 -165.75 63.75 -161.75 53.5 -155.0 50.0 L-150.5 41.0 -149.75 40.5 -150.5 42.25 -148.5 40.5 -148.75 39.25 -149.5 39.25 -148.5 37.25 -149.25 36.5 -151.0 36.5 -152.25 34.5 -155.0 33.25 -155.75 30.75 -158.5 28.0 -154.75 29.0 -155.0 30.75 Q-143.25 23.0 -140.75 24.25 L-128.25 17.0 -112.75 6.25 -108.25 2.0 -106.5 1.75 -100.0 -3.0 -100.75 -1.0 -104.0 2.75 -113.75 18.0 -114.75 18.5 -122.75 36.5 -121.0 46.75 -111.75 70.75 -104.5 80.25 -96.75 88.75 -83.25 97.75 Q-86.0 99.0 -84.75 101.25 L-68.0 124.75 -36.5 146.25 0.0 153.25 Q40.5 151.0 69.0 125.75 L86.5 102.0 Q90.0 97.25 87.25 91.5 103.25 80.0 107.0 72.5 L112.75 63.0 118.0 52.0 122.5 35.25 114.75 18.75 107.05 7.45 104.6 1.5 97.7 -15.35 99.65 -13.2 M2.0 27.0 Q34.5 25.5 40.0 -22.0 39.0 85.5 2.0 85.0 -20.0 89.0 -29.25 60.75 L-32.75 50.25 -37.75 24.25 -39.5 11.25 -40.25 -21.5 Q-36.0 26.5 2.0 27.0" fill="#000000" fill-opacity="0.49803922" fill-rule="evenodd" stroke="none"/>
  </g>
</svg>
