<?xml version="1.0" encoding="UTF-8" standalone="no"?>
<svg xmlns:ffdec="https://www.free-decompiler.com/flash" xmlns:xlink="http://www.w3.org/1999/xlink" ffdec:objectType="shape" height="271.05px" width="375.9px" xmlns="http://www.w3.org/2000/svg">
  <g transform="matrix(1.0, 0.0, 0.0, 1.0, 185.55, 69.3)">
    <path d="M3.25 -55.5 L-0.25 -52.5 Q-1.0 -49.0 2.0 -46.75 L6.0 -46.25 Q16.0 -51.75 7.75 -56.25 L3.25 -55.5 M-31.5 -46.5 Q-34.8 -49.5 -35.75 -54.1 -36.65 -58.25 -37.0 -62.5 -34.4 -64.65 -31.4 -65.5 -23.25 -67.75 -14.75 -68.75 L-11.3 -68.2 Q-9.15 -68.0 -6.95 -68.2 L-4.5 -68.0 Q3.35 -69.85 11.7 -69.05 15.85 -68.5 19.8 -66.95 21.5 -66.4 23.0 -65.25 23.1 -60.9 22.2 -56.75 21.35 -52.75 19.5 -49.0 10.25 -38.75 -6.25 -45.75 -26.25 -38.0 -31.5 -46.5 M31.5 -1.5 Q36.75 9.5 41.45 20.75 43.85 26.5 45.75 32.5 L59.0 56.25 Q68.35 65.35 76.45 75.5 82.85 83.6 83.85 93.2 85.35 107.1 82.75 121.5 L80.25 124.5 79.4 125.4 Q66.5 137.35 52.55 148.0 45.25 153.6 37.0 158.0 L8.25 165.0 -5.0 164.0 -23.95 161.65 -32.25 160.0 -62.0 146.5 -78.0 129.75 Q-80.25 126.75 -82.1 123.55 -85.15 118.25 -87.75 112.75 L-86.6 109.95 -86.1 108.65 Q-85.15 105.6 -85.75 102.25 -81.65 97.75 -78.2 92.8 -73.4 85.85 -69.65 78.3 -61.75 62.35 -55.25 45.85 -47.0 25.1 -39.75 4.0 -35.95 13.0 -29.0 19.7 -21.4 27.0 -10.7 28.1 0.65 28.85 11.35 24.7 16.0 22.8 19.9 19.4 26.95 13.15 29.7 4.1 L31.5 -1.5 M-18.25 -55.5 L-21.75 -55.25 Q-28.75 -47.25 -17.75 -45.5 -14.75 -45.25 -13.0 -49.0 L-13.0 -52.5 -18.25 -55.5" fill="#ffffff" fill-rule="evenodd" stroke="none"/>
    <path d="M3.25 -55.5 L7.75 -56.25 Q16.0 -51.75 6.0 -46.25 L2.0 -46.75 Q-1.0 -49.0 -0.25 -52.5 L3.25 -55.5 M-18.25 -55.5 L-13.0 -52.5 -13.0 -49.0 Q-14.75 -45.25 -17.75 -45.5 -28.75 -47.25 -21.75 -55.25 L-18.25 -55.5" fill="#000000" fill-rule="evenodd" stroke="none"/>
    <path d="M19.5 -49.0 Q27.2 -43.95 32.6 -36.5 35.2 -32.9 34.75 -28.7 33.5 -17.4 32.6 -6.0 L32.2 -4.0 31.5 -1.5 29.7 4.1 Q26.95 13.15 19.9 19.4 16.0 22.8 11.35 24.7 0.65 28.85 -10.7 28.1 -21.4 27.0 -29.0 19.7 -35.95 13.0 -39.75 4.0 L-43.5 -8.0 -45.25 -19.0 -45.25 -25.75 Q-43.75 -39.5 -31.5 -46.5 -26.25 -38.0 -6.25 -45.75 10.25 -38.75 19.5 -49.0 M82.75 121.5 L84.75 120.75 85.75 120.0 88.0 118.75 90.25 116.5 94.25 113.5 Q111.5 142.5 110.5 154.0 111.0 193.0 55.25 201.0 30.5 204.25 16.75 193.0 11.5 189.75 8.25 165.0 L37.0 158.0 Q45.25 153.6 52.55 148.0 66.5 137.35 79.4 125.4 L80.25 124.5 82.75 121.5 M-5.0 164.0 Q-7.2 174.8 -9.7 185.6 -10.15 187.4 -10.9 189.2 -12.05 191.7 -14.0 193.25 -17.0 195.35 -20.35 196.4 -30.0 199.5 -40.1 200.2 -47.85 200.85 -55.65 199.8 L-62.3 199.05 Q-69.8 197.4 -76.9 194.95 -87.6 191.0 -95.85 183.35 -103.1 176.6 -105.8 167.2 -107.4 161.7 -107.35 156.0 -107.35 154.35 -106.9 152.85 -102.9 139.25 -98.05 125.95 -96.9 122.85 -95.25 120.0 L-89.0 124.25 Q-83.85 127.75 -78.0 129.75 L-62.0 146.5 -32.25 160.0 -23.95 161.65 -5.0 164.0" fill="#e58508" fill-rule="evenodd" stroke="none"/>
    <path d="M-45.25 -10.75 Q-45.85 -15.85 -44.95 -16.95 -39.3 26.05 -2.25 27.75 31.5 24.25 35.0 -20.5 37.5 86.75 -10.0 86.75 -20.75 90.75 -33.5 64.25 L-36.75 54.75 -40.25 40.25 -44.25 15.25 -45.25 -10.75 M90.5 -16.0 L100.7 -10.4 Q102.0 -10.1 103.6 -9.0 105.8 -7.5 111.6 -7.5 123.5 -7.5 138.1 -17.2 145.05 -21.85 151.2 -26.85 L150.5 -26.3 150.45 -26.7 150.7 -27.3 151.85 -27.6 155.6 -24.0 Q159.55 -20.25 161.55 -19.5 L168.15 -16.85 Q173.2 -15.2 182.6 -13.85 L182.75 -13.55 182.85 -14.4 Q182.85 -16.8 180.55 -21.95 178.25 -27.1 178.25 -28.7 178.25 -29.5 178.4 -30.05 L178.4 -30.75 178.85 -30.75 Q181.0 -28.7 183.85 -21.9 L184.1 -21.3 186.05 -18.45 Q188.2 -14.9 190.35 -10.05 190.35 -8.75 187.8 -7.5 182.15 -6.2 174.0 -6.2 165.8 -6.2 154.8 -9.3 L149.85 -10.4 148.9 -10.95 145.7 -7.85 Q142.45 -6.0 137.2 -1.7 132.7 1.95 127.75 6.65 L123.45 10.85 123.5 11.05 122.4 11.85 122.3 11.45 122.65 13.05 Q126.05 19.0 128.55 26.85 131.1 35.0 131.7 39.8 132.15 43.3 132.15 51.45 132.15 66.3 118.9 88.75 113.1 98.55 107.35 104.65 101.1 111.2 96.9 111.2 L96.75 111.2 94.25 113.25 99.75 122.25 103.25 129.75 101.0 130.25 Q95.5 135.25 91.75 136.25 L91.75 140.5 72.25 163.5 40.5 180.0 Q22.25 181.25 16.75 188.25 24.0 200.5 66.0 194.5 99.25 188.0 109.25 164.25 L110.0 163.5 110.0 165.0 Q105.75 194.75 47.5 201.5 L33.0 200.75 Q24.75 199.0 19.5 195.75 9.0 185.75 8.5 165.25 L-3.5 164.0 -5.0 164.0 -8.25 182.75 -10.75 189.25 -14.25 194.25 Q-23.75 202.75 -51.5 201.0 -73.25 199.25 -91.25 187.25 -104.5 178.0 -106.75 163.5 -97.25 184.5 -71.75 192.0 -39.0 203.0 -13.25 188.75 -14.25 184.0 -37.0 179.5 L-68.25 165.5 -90.0 143.0 Q-101.5 136.0 -103.25 137.0 L-97.75 124.0 -97.15 123.1 Q-97.0 121.8 -96.2 120.15 L-94.95 118.0 -94.4 118.4 Q-100.05 113.9 -104.9 109.25 -113.65 100.8 -117.95 93.2 -119.0 90.2 -121.1 85.3 -124.25 78.0 -125.55 75.6 -127.2 71.95 -128.7 67.25 -130.1 58.75 -130.7 50.15 L-130.6 42.35 -130.4 41.55 -130.55 38.6 Q-130.55 36.05 -129.7 30.9 -128.95 26.45 -128.25 23.9 L-128.55 22.65 Q-129.45 22.75 -130.4 23.35 L-130.25 22.25 -142.3 29.9 Q-142.95 32.05 -149.3 44.35 L-159.6 64.2 Q-164.85 74.55 -170.35 83.35 -178.1 95.85 -181.7 97.1 -182.2 98.1 -182.75 98.1 -185.05 98.1 -185.55 94.3 L-185.55 90.3 Q-185.55 77.2 -181.6 62.85 -178.15 50.25 -171.2 35.15 -170.9 35.25 -170.65 35.45 L-172.3 40.4 Q-177.3 55.85 -177.3 59.3 L-176.85 61.2 -176.25 62.25 -176.3 62.55 Q-175.3 63.4 -174.0 63.75 -169.25 61.75 -168.75 59.5 L-166.25 58.5 -164.25 54.25 -159.5 51.0 -159.75 49.75 -155.5 40.75 -154.5 39.75 -155.5 43.5 Q-160.0 48.5 -158.75 50.0 L-157.0 48.05 -155.25 44.65 -153.5 40.0 -153.0 39.5 -153.5 38.25 Q-159.25 36.5 -163.25 28.5 -160.5 31.25 -158.75 30.75 L-158.5 32.0 -144.75 24.5 Q-142.75 22.75 -141.0 23.75 L-134.25 20.0 -105.5 0.5 -106.5 3.0 -108.5 5.0 -110.75 9.5 -118.5 20.75 -124.5 34.5 Q-123.25 51.25 -106.25 79.75 L-98.0 89.25 -82.75 99.25 Q-82.5 100.25 -85.75 102.0 L-85.5 102.75 -67.25 126.5 -35.75 147.0 2.0 153.5 38.5 144.5 46.75 139.75 69.0 124.5 86.25 100.5 Q90.0 91.75 86.75 90.0 L91.5 87.0 105.0 73.5 112.5 60.5 117.25 50.0 121.0 34.25 121.25 30.25 113.5 16.0 100.5 -3.25 90.25 -15.5 90.5 -16.0" fill="#000000" fill-opacity="0.49803922" fill-rule="evenodd" stroke="none"/>
  </g>
</svg>
