<?xml version="1.0" encoding="UTF-8" standalone="no"?>
<svg xmlns:ffdec="https://www.free-decompiler.com/flash" xmlns:xlink="http://www.w3.org/1999/xlink" ffdec:objectType="shape" height="390.25px" width="220.55px" xmlns="http://www.w3.org/2000/svg">
  <g transform="matrix(1.0, 0.0, 0.0, 1.0, 112.5, 129.75)">
    <path d="M-64.75 -93.75 L-62.25 -92.5 Q-60.75 -93.0 -60.25 -97.5 L-61.25 -103.0 Q-63.5 -105.75 -64.75 -103.75 L-65.5 -102.5 -67.5 -105.5 -68.25 -109.75 Q-64.0 -113.25 -66.0 -120.75 L-64.0 -124.75 -58.5 -129.75 Q-53.8 -106.0 -41.25 -85.25 L-43.0 -82.75 Q-45.0 -79.85 -48.0 -78.0 L-57.25 -82.25 Q-61.0 -84.25 -64.75 -93.75" fill="#ffffff" fill-rule="evenodd" stroke="none"/>
    <path d="M-64.75 -93.75 Q-61.0 -84.25 -57.25 -82.25 L-48.0 -78.0 Q-44.5 -52.5 -49.25 -45.25 L-50.5 -42.25 -56.25 -41.5 -84.75 -41.5 -88.15 -41.65 Q-107.1 -43.3 -109.0 -61.25 -113.3 -102.5 -68.5 -110.25 L-68.25 -109.75 -67.5 -105.5 -65.5 -102.5 -66.25 -100.5 -66.5 -97.25 -64.75 -93.75 M-106.95 177.9 Q-122.3 137.1 -82.5 123.75 -76.25 130.25 -68.8 134.7 -55.4 142.6 -40.75 148.5 -25.65 161.5 -9.4 172.95 -2.65 177.75 5.25 181.0 L6.25 188.0 Q-13.05 207.75 -38.1 218.65 -49.75 223.65 -61.95 220.15 -94.45 211.05 -106.95 177.9" fill="#e58508" fill-rule="evenodd" stroke="none"/>
    <path d="M-65.5 -102.5 L-64.75 -103.75 Q-63.5 -105.75 -61.25 -103.0 L-60.25 -97.5 Q-60.75 -93.0 -62.25 -92.5 L-64.75 -93.75 -66.5 -97.25 -66.25 -100.5 -65.5 -102.5 M-66.0 -120.75 Q-64.0 -113.25 -68.25 -109.75 L-68.5 -110.25 Q-72.75 -116.5 -66.0 -120.75" fill="#000000" fill-rule="evenodd" stroke="none"/>
    <path d="M-93.25 -45.0 L-77.25 -43.5 -71.5 -42.25 -49.75 -43.25 -55.75 -35.0 Q-68.5 -30.25 -79.5 -14.5 -84.05 -5.35 -96.0 25.0 -97.25 29.25 -98.25 29.25 -99.55 32.15 -100.5 35.2 -94.85 -1.95 -84.75 -41.0 -115.0 -42.0 -112.25 -74.5 -110.25 -51.5 -102.25 -47.75 L-93.25 -45.0 M-103.25 55.05 Q-98.15 114.75 -41.5 135.0 L-45.0 116.5 Q-27.6 140.9 -2.25 156.25 -10.1 99.95 -14.5 43.0 -8.35 92.05 7.25 138.9 L7.75 140.25 Q-0.15 146.05 1.55 157.2 L3.5 169.25 16.75 228.75 23.3 252.1 Q15.1 238.3 12.4 221.4 L6.75 188.0 Q-24.0 223.6 -67.55 218.65 -77.15 217.4 -84.25 210.5 -106.45 188.9 -108.75 159.0 -100.7 209.25 -53.05 214.1 -41.65 215.05 -30.85 209.55 -18.05 202.9 -7.0 193.5 -11.95 185.35 -20.8 180.7 -32.2 174.7 -41.5 166.0 L-46.5 165.75 -74.75 151.25 Q-82.9 137.55 -94.85 128.8 L-82.25 123.5 Q-104.4 97.9 -103.7 61.8 -103.65 58.4 -103.25 55.05 M55.5 88.75 L57.0 115.75 56.75 131.0 Q48.5 126.75 54.75 86.0 L55.5 88.75 M62.25 156.25 Q108.9 115.45 106.5 53.0 116.55 127.85 60.75 173.25 53.8 204.55 42.35 234.5 45.5 221.4 50.0 208.75 60.45 179.4 61.0 148.25 62.05 149.05 62.2 150.45 62.5 153.4 62.25 156.25 M36.5 248.95 L34.55 253.45 Q32.65 257.8 29.0 260.5 26.5 257.25 24.35 253.8 31.95 254.35 36.5 248.95" fill="#000000" fill-opacity="0.49803922" fill-rule="evenodd" stroke="none"/>
  </g>
</svg>
