<?xml version="1.0" encoding="UTF-8" standalone="no"?>
<svg xmlns:ffdec="https://www.free-decompiler.com/flash" xmlns:xlink="http://www.w3.org/1999/xlink" ffdec:objectType="shape" height="271.5px" width="425.1px" xmlns="http://www.w3.org/2000/svg">
  <g transform="matrix(1.0, 0.0, 0.0, 1.0, 185.55, 69.75)">
    <path d="M-37.25 -45.5 Q-39.6 -47.05 -40.9 -49.85 L-41.95 -53.35 Q-42.75 -57.65 -42.1 -61.85 -41.9 -63.25 -40.5 -63.9 -34.65 -66.25 -28.4 -67.05 L-14.9 -68.6 1.75 -69.75 Q7.75 -68.9 13.55 -67.25 15.25 -66.9 16.75 -65.75 16.85 -61.5 16.35 -57.35 15.85 -53.15 13.5 -49.5 2.75 -38.5 -12.25 -45.5 -24.75 -37.0 -37.25 -45.5 M27.25 -2.75 Q32.85 8.25 38.05 19.45 41.25 26.35 44.0 33.5 L57.5 55.5 Q60.85 59.25 64.65 62.5 70.1 67.35 76.0 71.75 L82.4 81.7 Q84.85 85.75 84.85 90.0 84.85 104.5 82.75 119.0 L67.0 140.0 41.0 155.5 10.5 164.75 8.25 164.75 -5.0 164.0 -20.5 163.25 -29.75 161.5 -61.0 148.5 -77.75 132.0 -87.65 115.95 Q-88.65 114.35 -87.65 112.65 -85.5 109.05 -86.25 105.0 -82.25 100.1 -79.15 94.75 -70.4 79.35 -64.05 62.9 -57.15 45.0 -51.3 26.65 -47.9 16.0 -44.0 5.5 -39.45 15.25 -30.7 22.05 -22.0 28.7 -11.15 28.5 -5.5 28.4 0.05 27.15 16.4 23.35 23.55 8.45 24.85 5.85 25.55 3.05 26.25 0.1 27.25 -2.75 M-6.5 -52.5 Q-6.75 -49.0 -4.0 -46.75 L-0.25 -46.25 Q10.5 -52.75 1.0 -56.5 L-4.0 -55.0 -6.5 -52.5 M-24.5 -54.75 L-28.0 -54.5 Q-34.5 -46.0 -23.0 -45.0 -20.5 -44.75 -19.0 -48.75 L-19.5 -52.5 -24.5 -54.75" fill="#ffffff" fill-rule="evenodd" stroke="none"/>
    <path d="M-37.25 -45.5 Q-24.75 -37.0 -12.25 -45.5 2.75 -38.5 13.5 -49.5 23.6 -45.35 27.35 -34.95 28.65 -31.35 28.65 -27.75 28.6 -16.5 27.5 -5.25 L27.25 -2.75 Q26.25 0.1 25.55 3.05 24.85 5.85 23.55 8.45 16.4 23.35 0.05 27.15 -5.5 28.4 -11.15 28.5 -22.0 28.7 -30.7 22.05 -39.45 15.25 -44.0 5.5 L-47.5 -4.0 -50.25 -18.25 -50.5 -24.5 Q-53.25 -31.5 -37.25 -45.5 M82.75 119.0 L84.0 118.5 86.75 117.0 93.0 111.5 Q108.75 135.5 110.5 154.0 111.0 193.0 55.25 201.0 30.5 204.25 16.75 193.0 11.5 190.0 8.25 164.75 L10.5 164.75 41.0 155.5 67.0 140.0 82.75 119.0 M-5.0 164.0 Q-6.75 173.75 -8.9 183.45 -9.35 185.5 -10.25 187.45 L-10.95 189.15 Q-12.05 191.7 -14.0 193.25 -17.0 195.35 -20.35 196.4 -30.0 199.5 -40.1 199.85 -61.9 201.4 -81.85 192.75 -91.8 188.35 -98.8 180.15 -106.0 171.75 -107.05 160.7 L-107.35 156.0 Q-107.35 154.35 -106.9 152.9 -101.9 137.35 -96.5 122.0 -93.25 124.0 -90.1 126.15 -84.35 130.2 -77.75 132.0 L-61.0 148.5 -29.75 161.5 -20.5 163.25 -5.0 164.0" fill="#e58508" fill-rule="evenodd" stroke="none"/>
    <path d="M-24.5 -54.75 L-19.5 -52.5 -19.0 -48.75 Q-20.5 -44.75 -23.0 -45.0 -34.5 -46.0 -28.0 -54.5 L-24.5 -54.75 M-6.5 -52.5 L-4.0 -55.0 1.0 -56.5 Q10.5 -52.75 -0.25 -46.25 L-4.0 -46.75 Q-6.75 -49.0 -6.5 -52.5" fill="#000000" fill-rule="evenodd" stroke="none"/>
    <path d="M99.4 -23.9 Q118.5 -16.85 151.85 -16.95 L163.15 -16.85 164.0 -16.85 163.65 -16.7 Q163.25 -16.5 163.15 -16.85 163.45 -15.4 166.45 -16.25 L168.15 -16.8 171.9 -16.8 Q178.85 -17.9 184.65 -20.1 184.5 -17.3 181.45 -13.2 L179.55 -11.0 179.75 -10.85 181.8 -8.95 Q191.0 -4.3 193.1 -3.75 L207.1 1.35 213.4 3.6 216.0 3.9 219.35 4.2 222.0 4.05 222.8 3.3 222.95 3.2 222.85 3.1 222.95 2.15 Q222.95 1.65 214.05 -7.1 L209.85 -11.15 209.9 -11.45 210.15 -11.85 Q214.6 -10.5 226.4 0.05 238.75 11.05 239.1 15.85 239.55 16.3 239.55 16.8 239.55 18.3 238.25 18.75 L235.55 19.05 Q219.85 19.05 192.45 6.6 181.1 1.45 173.7 -3.45 168.95 -6.55 167.1 -8.7 L155.6 -8.7 Q133.65 -9.05 117.15 -12.4 L112.1 -13.55 111.05 -12.75 112.55 -9.15 113.85 -6.05 116.85 0.9 Q119.95 7.85 122.45 12.1 L122.65 13.05 Q126.05 19.0 128.55 26.85 131.1 35.0 131.7 39.8 132.15 43.3 132.15 51.45 132.15 66.3 118.9 88.75 113.1 98.55 107.35 104.65 101.1 111.2 96.9 111.2 L96.75 111.2 94.25 113.25 99.75 122.25 103.25 129.75 101.0 130.25 Q95.5 135.25 91.75 136.25 L91.75 140.5 72.25 163.5 40.5 180.0 Q22.25 181.25 16.75 188.25 24.0 200.5 66.0 194.5 99.25 188.0 109.25 164.25 L110.0 163.5 110.0 165.0 Q105.75 194.75 47.5 201.5 L33.0 200.75 Q24.75 199.0 19.5 195.75 9.0 185.75 8.5 165.25 L-3.5 164.0 -5.0 164.0 -8.25 182.75 -10.75 189.25 -14.25 194.25 Q-23.75 202.75 -51.5 201.0 -73.25 199.25 -91.25 187.25 -104.5 178.0 -106.75 163.5 -97.25 184.5 -71.75 192.0 -39.0 203.0 -13.25 188.75 -14.25 184.0 -37.0 179.5 L-68.25 165.5 -90.0 143.0 Q-101.5 136.0 -103.25 137.0 L-97.75 124.0 -97.15 123.1 Q-97.0 121.8 -96.2 120.15 L-94.95 118.0 -94.4 118.4 Q-100.05 113.9 -104.9 109.25 -113.65 100.8 -117.95 93.2 -119.0 90.2 -121.1 85.3 -124.25 78.0 -125.55 75.6 -127.2 71.95 -128.7 67.25 -130.1 58.75 -130.7 50.15 L-130.6 42.35 -130.4 41.55 -130.55 38.6 Q-130.55 36.05 -129.7 30.9 -128.95 26.45 -128.25 23.9 L-128.55 22.65 Q-129.45 22.75 -130.4 23.35 L-130.25 22.25 -142.3 29.9 Q-142.95 32.05 -149.3 44.35 L-159.6 64.2 Q-164.85 74.55 -170.35 83.35 -178.1 95.85 -181.7 97.1 -182.2 98.1 -182.75 98.1 -185.05 98.1 -185.55 94.3 L-185.55 90.3 Q-185.55 77.2 -181.6 62.85 -178.15 50.25 -171.2 35.15 -170.9 35.25 -170.65 35.45 L-172.3 40.4 Q-177.3 55.85 -177.3 59.3 L-176.85 61.2 -176.25 62.25 -176.3 62.55 Q-175.3 63.4 -174.0 63.75 -169.25 61.75 -168.75 59.5 L-166.25 58.5 -164.25 54.25 -159.5 51.0 -159.75 49.75 -155.5 40.75 -154.5 39.75 -155.5 43.5 Q-160.0 48.5 -158.75 50.0 L-157.0 48.05 -155.25 44.65 -153.5 40.0 -153.0 39.5 -153.5 38.25 Q-159.25 36.5 -163.25 28.5 -160.5 31.25 -158.75 30.75 L-158.5 32.0 -144.75 24.5 Q-142.75 22.75 -141.0 23.75 L-134.25 20.0 -105.5 0.5 -106.5 3.0 -108.5 5.0 -110.75 9.5 -118.5 20.75 -124.5 34.5 Q-123.25 51.25 -106.25 79.75 L-98.0 89.25 -82.75 99.25 Q-82.5 100.25 -85.75 102.0 L-85.5 102.75 -67.25 126.5 -35.75 147.0 2.0 153.5 38.5 144.5 46.75 139.75 69.0 124.5 86.25 100.5 Q90.0 91.75 86.75 90.0 L91.5 87.0 105.0 73.5 112.5 60.5 117.25 50.0 121.0 34.25 121.1 32.6 118.2 24.05 Q113.25 8.6 111.75 5.15 108.35 -2.55 99.4 -14.9 91.35 -25.95 91.35 -26.25 L91.4 -27.15 91.7 -27.5 Q94.9 -25.6 99.4 -23.9 M-50.05 -5.9 Q-51.2 -10.85 -50.45 -12.05 -39.95 30.0 -2.95 27.45 30.2 20.15 28.55 -24.7 43.3 81.5 -3.9 86.95 -14.1 92.1 -29.75 67.25 L-34.1 58.2 -39.2 44.2 -46.05 19.85 -50.05 -5.9" fill="#000000" fill-opacity="0.49803922" fill-rule="evenodd" stroke="none"/>
  </g>
</svg>
