<?xml version="1.0" encoding="UTF-8" standalone="no"?>
<svg xmlns:ffdec="https://www.free-decompiler.com/flash" xmlns:xlink="http://www.w3.org/1999/xlink" ffdec:objectType="shape" height="296.05px" width="356.7px" xmlns="http://www.w3.org/2000/svg">
  <g transform="matrix(1.0, 0.0, 0.0, 1.0, 204.95, 70.3)">
    <path d="M-12.5 -49.5 Q-14.4 -57.65 -15.4 -65.85 -15.5 -66.65 -14.55 -67.2 -12.65 -68.5 -10.4 -69.1 0.0 -71.55 10.2 -69.05 L14.25 -67.75 16.75 -68.25 Q26.5 -69.6 36.25 -67.25 41.0 -66.2 43.75 -62.5 44.05 -60.1 43.75 -57.7 43.6 -56.5 43.1 -55.45 L38.5 -46.75 Q34.75 -37.75 12.75 -46.0 -1.75 -39.5 -12.5 -49.5 M45.5 2.5 Q49.5 14.25 53.0 26.15 54.5 31.25 55.5 36.5 L67.0 63.75 Q74.75 72.85 81.05 82.9 86.5 91.6 86.4 101.25 86.25 115.35 82.0 129.5 L62.75 148.75 33.5 161.25 8.25 165.0 2.25 165.5 -5.0 164.0 -38.5 155.25 -62.75 141.25 -67.85 135.4 -78.75 122.0 Q-82.65 113.1 -86.65 104.35 -87.15 103.2 -86.45 102.05 -85.2 100.05 -83.75 98.5 L-83.25 93.75 Q-78.65 89.6 -74.95 84.8 -64.5 71.35 -54.8 57.4 -54.0 56.25 -53.0 55.25 L-41.5 32.25 -28.05 3.75 -26.0 -0.5 -22.75 7.35 Q-18.9 16.55 -10.4 21.95 -2.65 26.8 6.5 27.5 17.7 28.7 27.75 23.75 38.4 18.45 43.0 7.5 L44.3 4.55 45.5 2.5 M22.25 -54.5 L19.5 -52.25 Q18.5 -49.0 21.25 -46.25 L26.0 -45.5 Q35.75 -50.25 27.5 -55.25 L22.25 -54.5 M-4.5 -50.5 L-1.75 -47.75 1.75 -47.0 Q13.75 -55.25 -1.25 -57.0 L-4.25 -55.5 Q-5.75 -51.25 -4.5 -50.5" fill="#ffffff" fill-rule="evenodd" stroke="none"/>
    <path d="M22.25 -54.5 L27.5 -55.25 Q35.75 -50.25 26.0 -45.5 L21.25 -46.25 Q18.5 -49.0 19.5 -52.25 L22.25 -54.5 M-4.5 -50.5 Q-5.75 -51.25 -4.25 -55.5 L-1.25 -57.0 Q13.75 -55.25 1.75 -47.0 L-1.75 -47.75 -4.5 -50.5" fill="#000000" fill-rule="evenodd" stroke="none"/>
    <path d="M-12.5 -49.5 Q-1.75 -39.5 12.75 -46.0 34.75 -37.75 38.5 -46.75 45.45 -41.55 49.4 -34.1 51.7 -29.8 51.05 -25.0 49.75 -15.4 47.85 -5.9 47.0 -1.65 45.5 2.5 L44.3 4.55 43.0 7.5 Q38.4 18.45 27.75 23.75 17.7 28.7 6.5 27.5 -2.65 26.8 -10.4 21.95 -18.9 16.55 -22.75 7.35 L-26.0 -0.5 Q-30.0 -15.0 -28.05 -29.95 -27.75 -32.35 -26.85 -34.6 -24.2 -41.4 -18.35 -45.9 -15.55 -48.0 -12.5 -49.5 M82.0 129.5 Q86.0 128.5 89.4 125.95 L98.0 119.75 102.5 128.0 97.25 138.25 Q96.95 139.9 96.25 141.25 L92.8 148.0 92.4 148.95 91.75 150.5 71.25 197.75 Q55.1 202.75 38.3 201.45 25.75 200.35 16.2 192.45 L15.55 191.85 Q12.1 186.8 10.85 180.65 9.3 172.9 8.25 165.0 L33.5 161.25 62.75 148.75 82.0 129.5 M-5.0 164.0 L-8.5 183.5 Q-12.25 192.5 -14.0 193.25 L-14.75 194.5 -20.0 197.5 -30.75 200.75 -40.0 201.5 -52.25 200.75 Q-108.75 192.75 -107.5 153.5 L-107.25 152.75 -104.75 140.5 -98.5 125.75 -91.5 113.75 -84.75 119.0 -84.0 119.25 -83.25 120.0 -79.75 121.75 -78.75 122.0 -67.85 135.4 -62.75 141.25 -38.5 155.25 -5.0 164.0 M104.75 177.0 L97.75 184.5 108.75 168.0 104.75 177.0" fill="#e58508" fill-rule="evenodd" stroke="none"/>
    <path d="M-132.65 -2.45 Q-135.7 -1.9 -135.25 -0.75 L-128.75 -2.5 -102.75 -11.5 -91.0 -16.5 -97.25 -10.0 Q-98.75 -10.0 -103.0 -1.5 L-110.25 6.5 -110.75 8.5 -111.5 8.75 Q-117.5 16.75 -117.0 18.5 L-118.5 19.75 -120.5 25.0 -117.75 49.5 -108.75 69.75 -103.5 77.25 -94.5 87.25 -83.0 95.25 -83.5 97.75 -68.25 122.25 -47.5 138.25 -38.25 144.0 -2.5 153.25 10.5 152.0 35.75 147.0 52.0 139.0 69.25 129.0 Q93.75 102.0 88.25 94.5 L94.5 90.25 103.25 81.0 96.75 51.0 86.0 10.75 86.25 8.0 88.75 15.25 93.75 25.25 108.75 60.25 110.0 61.25 117.25 75.75 119.75 79.0 119.25 79.25 121.75 83.25 122.25 85.75 127.25 95.75 Q126.25 96.75 121.75 94.0 L119.0 94.5 113.5 106.25 105.5 114.5 98.25 119.5 102.75 128.0 96.25 142.0 94.25 142.75 93.75 146.75 90.75 148.75 71.5 168.25 38.5 182.75 Q23.75 183.5 18.0 188.25 18.25 194.75 42.0 196.75 L56.25 196.5 56.0 195.5 66.0 194.5 73.25 192.5 73.75 192.75 72.25 196.25 Q70.25 200.0 47.5 201.5 L33.0 200.75 Q24.75 199.0 19.5 195.75 11.0 190.75 8.5 165.25 L3.5 165.5 -4.25 164.0 Q-7.25 186.25 -14.25 194.25 -23.5 202.75 -51.75 201.0 -85.5 196.5 -99.25 179.75 -102.0 178.75 -106.75 163.5 -96.0 187.25 -65.25 193.75 -23.0 201.0 -12.75 188.25 -17.75 180.75 -34.75 179.0 L-69.0 160.25 Q-92.0 127.5 -100.25 130.25 L-97.75 124.0 -91.25 113.25 -104.25 102.75 Q-116.5 89.5 -121.75 72.75 L-123.25 68.75 -125.0 57.0 -125.25 34.75 -123.25 21.5 -119.0 5.5 -115.5 -3.5 -149.0 7.0 -159.4 24.8 Q-162.55 32.75 -171.55 45.55 L-180.75 57.2 -186.05 64.5 -188.75 67.65 -188.4 67.3 -189.0 68.8 -191.05 71.85 Q-195.85 76.4 -200.9 80.1 L-201.65 80.0 -201.75 80.1 -202.5 80.45 Q-203.35 80.2 -204.15 79.0 -204.95 77.85 -204.95 77.1 -204.95 75.7 -203.55 71.0 L-203.55 70.1 -203.25 69.9 -200.7 61.95 Q-196.15 48.45 -193.5 44.85 L-193.5 46.0 -193.35 47.6 Q-193.35 48.35 -197.8 60.6 -199.65 66.3 -200.55 70.6 L-200.4 70.05 -200.1 70.75 -199.8 72.45 Q-189.65 63.15 -177.55 47.3 L-162.2 26.95 -158.75 22.0 -153.0 10.75 -152.25 10.5 -151.75 9.25 -154.75 3.25 -143.5 0.5 -139.0 -1.5 -132.65 -2.45 M151.5 84.5 L151.65 90.7 151.75 92.0 151.7 92.6 151.75 95.25 Q151.55 97.4 148.65 100.15 L144.8 107.5 141.3 113.95 138.25 121.5 109.25 166.75 105.25 176.25 97.25 185.0 76.25 216.0 67.75 225.75 Q65.0 225.75 63.0 223.5 L63.25 220.5 63.75 223.75 65.75 224.0 Q67.75 223.5 71.5 218.75 L73.0 218.25 86.25 198.5 107.25 164.25 108.0 164.0 109.25 161.0 110.5 160.0 113.75 153.75 114.5 153.5 116.5 149.25 118.5 147.0 120.5 142.75 120.9 142.65 Q126.05 130.25 133.4 117.9 L133.65 117.5 137.25 109.75 137.75 110.0 141.8 102.2 Q146.65 92.95 149.9 88.3 L149.5 87.5 151.5 84.5 M14.0 27.0 Q47.75 20.5 51.25 -24.0 53.75 76.0 12.25 86.0 -13.75 80.5 -15.75 67.75 -28.75 42.25 -29.0 -17.75 -22.5 29.75 14.0 27.0" fill="#000000" fill-opacity="0.49803922" fill-rule="evenodd" stroke="none"/>
  </g>
</svg>
