<?xml version="1.0" encoding="UTF-8" standalone="no"?>
<svg xmlns:ffdec="https://www.free-decompiler.com/flash" xmlns:xlink="http://www.w3.org/1999/xlink" ffdec:objectType="shape" height="271.25px" width="340.95px" xmlns="http://www.w3.org/2000/svg">
  <g transform="matrix(1.0, 0.0, 0.0, 1.0, 200.7, 69.1)">
    <path d="M3.25 -49.75 L2.0 -51.85 Q-0.2 -55.75 -0.4 -60.35 -0.5 -63.55 0.75 -66.5 2.5 -67.75 4.45 -68.3 8.6 -69.5 12.9 -68.9 20.85 -68.4 28.65 -66.4 L34.0 -66.0 38.7 -65.95 Q47.25 -64.4 55.55 -61.85 57.6 -61.15 59.15 -59.4 60.0 -58.5 59.65 -57.55 57.1 -50.15 53.75 -43.0 49.0 -34.5 28.0 -44.5 7.25 -40.0 3.25 -49.75 M56.25 7.0 Q59.0 17.85 61.2 28.85 62.6 35.75 63.5 42.75 L71.5 68.0 Q78.6 78.5 84.5 89.65 88.35 97.0 91.0 105.0 L33.5 141.0 -2.25 165.25 -5.0 164.5 -29.5 158.0 -33.9 155.8 -45.0 149.5 -66.0 134.75 -74.25 122.5 Q-76.25 119.5 -78.4 116.6 L-79.0 116.0 Q-82.0 106.75 -84.6 97.35 -84.9 96.25 -84.75 95.0 L-83.95 94.55 -83.25 93.95 Q-80.75 91.0 -80.5 87.0 -75.5 83.25 -71.05 78.9 -64.9 73.0 -59.8 66.1 -46.5 48.35 -34.45 29.8 -25.5 16.1 -17.25 2.0 L-14.5 -2.5 Q-13.45 1.85 -11.55 6.55 -7.4 17.0 1.65 23.55 6.7 27.2 12.95 28.2 L16.7 28.8 26.45 29.35 Q36.95 28.85 44.75 21.85 51.9 15.55 56.25 7.0 M14.75 -56.5 Q6.0 -49.25 18.0 -46.25 20.25 -46.0 22.25 -48.75 L22.5 -53.0 18.0 -56.25 14.75 -56.5 M35.5 -50.0 Q34.25 -46.75 36.75 -43.75 L40.75 -42.75 Q51.5 -46.5 43.0 -52.5 L38.0 -51.75 35.5 -50.0" fill="#ffffff" fill-rule="evenodd" stroke="none"/>
    <path d="M35.5 -50.0 L38.0 -51.75 43.0 -52.5 Q51.5 -46.5 40.75 -42.75 L36.75 -43.75 Q34.25 -46.75 35.5 -50.0 M14.75 -56.5 L18.0 -56.25 22.5 -53.0 22.25 -48.75 Q20.25 -46.0 18.0 -46.25 6.0 -49.25 14.75 -56.5" fill="#000000" fill-rule="evenodd" stroke="none"/>
    <path d="M3.25 -49.75 Q7.25 -40.0 28.0 -44.5 49.0 -34.5 53.75 -43.0 66.5 -30.5 64.0 -20.5 66.0 -17.0 56.25 7.0 51.9 15.55 44.75 21.85 36.95 28.85 26.45 29.35 L16.7 28.8 12.95 28.2 Q6.7 27.2 1.65 23.55 -7.4 17.0 -11.55 6.55 -13.45 1.85 -14.5 -2.5 L-14.8 -10.3 Q-15.15 -21.0 -14.1 -31.75 -13.95 -33.3 -13.3 -34.8 -8.45 -45.9 3.25 -49.75 M-5.0 164.5 L-5.25 167.25 -28.5 184.5 -29.5 185.0 -37.75 192.25 -36.25 196.25 -34.75 197.75 -33.75 197.75 -22.0 193.5 -11.25 188.75 -11.0 188.75 -14.75 194.5 -20.0 197.5 -30.75 200.75 -40.0 201.5 -52.25 200.75 Q-108.75 192.75 -107.5 153.5 L-107.25 152.75 Q-110.25 146.25 -88.5 109.0 L-85.5 111.75 -80.25 115.25 -80.0 115.75 -79.5 115.75 -79.0 116.0 -78.4 116.6 Q-76.25 119.5 -74.25 122.5 L-66.0 134.75 -45.0 149.5 -33.9 155.8 -29.5 158.0 -5.0 164.5 M17.5 192.55 Q13.6 186.0 10.5 179.0 L73.25 148.25 92.9 137.85 94.3 137.1 Q98.9 133.9 103.5 130.25 105.75 135.75 107.45 141.4 109.25 147.6 110.1 154.05 110.75 158.7 109.85 163.3 107.05 177.75 95.15 186.65 86.85 192.9 77.05 196.25 58.15 202.55 38.3 201.45 28.8 200.55 20.5 195.5 18.55 194.3 17.5 192.55" fill="#e58508" fill-rule="evenodd" stroke="none"/>
    <path d="M91.5 95.0 L87.5 58.0 88.5 58.75 Q88.0 61.75 89.5 64.25 L89.5 69.75 90.5 72.75 93.75 100.75 94.0 105.5 Q91.75 103.25 90.25 105.75 87.5 95.5 91.5 95.0 M121.75 -8.5 L122.25 -9.0 127.0 38.75 Q127.25 45.5 128.5 46.25 136.9 14.25 134.55 -3.9 L137.5 7.25 139.5 25.25 140.25 41.5 139.75 59.25 139.25 63.75 133.75 85.0 131.5 90.5 123.5 103.5 123.25 108.75 119.5 122.5 117.0 123.75 116.1 123.9 113.9 125.8 Q109.75 128.95 104.1 131.1 112.15 146.0 109.75 166.0 105.75 194.25 47.5 201.5 18.5 206.0 10.5 179.0 L-10.75 188.5 Q-12.75 195.0 -20.75 198.25 L-28.25 200.25 -41.25 201.5 -51.0 201.0 -62.75 199.25 Q-101.75 189.75 -106.75 163.75 -93.5 195.75 -35.25 196.5 L-23.0 192.25 38.25 160.5 69.5 145.25 95.25 131.25 103.9 125.15 Q105.5 123.45 108.0 121.55 110.25 119.85 112.65 118.35 L119.0 112.5 Q121.0 113.0 121.5 107.75 L122.25 85.5 124.25 59.0 123.5 14.25 121.75 -8.5 M12.75 152.0 L18.25 151.75 Q-0.75 167.0 -5.0 164.5 L-5.0 167.5 -23.25 180.5 -38.5 176.5 -65.0 159.5 -70.5 155.25 -86.75 131.25 -93.75 126.25 Q-96.75 123.75 -97.75 124.75 L-88.25 108.75 Q-103.0 99.0 -114.75 73.75 L-119.0 59.75 -120.0 50.25 Q-124.0 28.75 -104.25 -13.75 L-136.95 -7.45 Q-138.9 -4.05 -149.3 8.8 L-159.6 21.5 -162.7 26.35 -172.2 36.35 Q-181.7 47.25 -186.5 55.9 -193.95 63.45 -198.05 63.45 -199.55 63.45 -200.25 61.35 L-200.7 59.1 Q-200.7 52.5 -194.25 38.5 -188.2 25.35 -184.2 21.35 L-187.7 29.55 Q-189.4 33.7 -189.9 35.4 -189.6 35.6 -189.6 36.35 L-190.65 41.0 Q-191.7 45.8 -191.7 47.15 -191.7 48.0 -191.35 48.55 -191.0 49.05 -191.0 49.35 L-189.65 49.5 Q-186.4 49.5 -181.3 44.8 L-181.9 45.5 -179.3 42.4 -165.6 24.05 -152.05 5.35 Q-148.15 0.15 -144.35 -3.65 L-143.25 -6.0 -144.0 -6.75 -144.5 -10.75 -137.0 -11.75 -129.25 -14.0 -123.25 -14.0 Q-129.25 -13.5 -129.5 -12.0 L-119.5 -13.5 -92.0 -20.0 -77.0 -25.0 Q-103.75 -3.75 -115.5 21.25 L-115.25 23.5 -116.25 27.5 -115.5 29.25 -115.5 33.75 -113.25 48.75 -113.75 49.5 -105.75 69.75 -92.25 85.0 -82.5 91.75 -81.25 95.25 -67.75 120.0 -60.0 127.0 -40.0 141.5 -5.5 153.0 6.25 153.0 12.75 152.0 M33.0 196.0 L51.75 196.75 Q78.0 195.25 100.0 178.5 L96.25 148.5 Q94.5 149.0 94.5 152.25 L68.5 173.5 35.5 185.5 Q20.75 186.25 19.75 189.0 20.5 194.25 33.0 196.0 M64.5 -23.5 Q62.0 83.75 28.5 88.0 8.0 88.0 -3.75 67.75 L-8.25 56.25 -11.75 41.25 -15.0 18.75 -15.75 -8.25 Q-4.0 33.5 27.75 28.0 56.75 22.75 64.5 -23.5 M-21.25 193.75 L-19.25 192.5 -22.0 193.5 -21.25 193.75" fill="#000000" fill-opacity="0.49803922" fill-rule="evenodd" stroke="none"/>
  </g>
</svg>
