<?xml version="1.0" encoding="UTF-8" standalone="no"?>
<svg xmlns:ffdec="https://www.free-decompiler.com/flash" xmlns:xlink="http://www.w3.org/1999/xlink" ffdec:objectType="shape" height="311.15px" width="369.1px" xmlns="http://www.w3.org/2000/svg">
  <g transform="matrix(1.0, 0.0, 0.0, 1.0, 185.5, 147.3)">
    <path d="M85.95 -69.9 L86.15 -69.5 Q99.0 -60.15 111.9 -50.75 L133.65 -28.5 152.4 -5.75 Q165.55 3.6 169.95 20.3 L177.3 49.65 Q182.85 72.95 183.6 96.4 183.65 97.55 182.35 97.2 179.45 97.05 177.7 94.6 169.9 83.6 162.65 72.25 L141.9 31.25 126.65 21.25 127.45 23.95 Q139.55 66.55 109.05 100.3 96.95 113.75 82.15 124.25 60.2 149.45 28.5 159.3 -5.9 169.95 -40.0 155.7 -62.45 146.3 -78.35 127.25 -122.0 106.4 -129.35 59.1 -132.3 40.1 -128.1 21.25 -136.2 25.8 -143.6 31.25 L-144.1 33.5 -160.35 65.25 Q-168.45 83.35 -181.7 96.7 -183.8 98.8 -184.45 95.95 -186.45 87.05 -184.65 78.0 -178.2 46.0 -166.05 15.75 -157.7 -4.95 -141.7 -21.35 L-124.5 -38.8 Q-107.4 -56.0 -88.1 -70.6 -84.0 -73.7 -81.05 -78.2 -55.85 -117.1 -17.55 -141.85 -1.1 -152.55 15.95 -142.15 60.0 -115.2 85.95 -69.9" fill="#2e47aa" fill-rule="evenodd" stroke="none"/>
  </g>
</svg>
