<?xml version="1.0" encoding="UTF-8" standalone="no"?>
<svg xmlns:ffdec="https://www.free-decompiler.com/flash" xmlns:xlink="http://www.w3.org/1999/xlink" ffdec:objectType="shape" height="311.15px" width="422.65px" xmlns="http://www.w3.org/2000/svg">
  <g transform="matrix(1.0, 0.0, 0.0, 1.0, 185.5, 147.3)">
    <path d="M35.25 -128.85 Q60.4 -109.2 78.35 -82.2 L78.4 -82.1 Q82.35 -76.2 85.95 -69.9 L85.95 -69.65 116.5 -61.75 144.85 -49.0 170.65 -34.8 Q186.25 -30.9 196.5 -17.0 L214.05 7.55 Q227.75 27.15 237.05 48.7 237.5 49.7 236.15 49.9 233.4 50.8 230.9 49.15 219.65 41.8 208.75 33.9 L174.45 3.4 158.6 0.15 Q148.65 -0.8 142.4 -2.0 131.45 -4.1 115.8 -7.8 L118.1 -3.05 Q124.25 10.25 127.55 21.85 L128.65 26.25 Q137.55 55.7 121.95 82.55 L109.05 100.3 Q96.95 113.75 82.15 124.25 60.2 149.45 28.5 159.3 -5.9 169.95 -40.0 155.7 -62.45 146.3 -78.35 127.25 -122.0 106.4 -129.35 59.1 -132.3 40.1 -128.1 21.25 -136.2 25.8 -143.6 31.25 L-144.1 33.5 -160.35 65.25 Q-168.45 83.35 -181.7 96.7 -183.8 98.8 -184.45 95.95 -186.45 87.05 -184.65 78.0 -178.2 46.0 -166.05 15.75 -157.7 -4.95 -141.7 -21.35 L-124.5 -38.8 Q-107.4 -56.0 -88.1 -70.6 -84.0 -73.7 -81.05 -78.2 -55.85 -117.1 -17.55 -141.85 -1.1 -152.55 15.95 -142.15 22.35 -138.25 28.35 -133.95 L35.25 -128.85" fill="#2e47aa" fill-rule="evenodd" stroke="none"/>
  </g>
</svg>
