<?xml version="1.0" encoding="UTF-8" standalone="no"?>
<svg xmlns:ffdec="https://www.free-decompiler.com/flash" xmlns:xlink="http://www.w3.org/1999/xlink" ffdec:objectType="shape" height="311.35px" width="430.65px" xmlns="http://www.w3.org/2000/svg">
  <g transform="matrix(1.0, 0.0, 0.0, 1.0, 185.5, 147.3)">
    <path d="M86.15 -69.5 L86.25 -69.3 87.15 -68.65 88.4 -65.7 85.95 -65.6 Q86.45 -53.1 91.75 -39.6 L108.05 -19.95 108.25 -20.2 109.4 -21.0 110.9 -21.0 Q111.75 -20.7 112.9 -18.85 113.9 -17.15 113.9 -16.65 L113.65 -15.7 112.9 -15.5 111.6 -15.5 110.95 -15.5 Q120.05 0.75 124.25 12.0 129.2 25.25 129.8 37.85 L130.75 43.75 Q131.55 59.4 125.95 73.75 123.35 80.35 119.4 86.7 L119.05 87.4 Q114.9 94.15 109.15 100.5 97.05 113.95 82.25 124.45 60.3 149.65 28.6 159.5 -5.8 170.15 -39.9 155.9 -62.35 146.5 -78.25 127.45 L-85.45 123.65 -85.6 123.45 Q-109.25 109.95 -120.55 87.45 -126.25 76.0 -128.8 62.3 L-129.25 59.75 -129.3 59.4 -129.35 59.1 -128.3 22.15 -128.15 21.55 Q-136.2 26.05 -143.5 31.45 L-144.0 33.7 -160.25 65.45 Q-168.35 83.55 -181.6 96.9 -183.35 98.65 -184.05 97.0 L-184.4 96.05 -184.45 95.95 Q-186.45 87.05 -184.65 78.0 -178.2 46.0 -166.05 15.75 -157.7 -4.95 -141.7 -21.35 L-124.5 -38.8 Q-107.4 -56.0 -88.1 -70.6 -84.0 -73.7 -81.05 -78.2 -55.85 -117.1 -17.55 -141.85 -1.1 -152.55 15.95 -142.15 60.0 -115.2 85.95 -69.9 L85.95 -69.85 86.15 -69.5" fill="#2e47aa" fill-rule="evenodd" stroke="none"/>
    <path d="M111.6 -15.5 L112.9 -15.5 113.65 -15.7 113.9 -16.65 Q113.9 -17.15 112.9 -18.85 111.75 -20.7 110.9 -21.0 L109.4 -21.0 108.25 -20.2 108.05 -19.95 91.75 -39.6 Q86.45 -53.1 85.95 -65.6 L88.4 -65.7 87.15 -68.65 86.25 -69.3 86.15 -69.5 Q121.95 -70.15 157.1 -60.6 165.25 -59.3 170.95 -57.7 180.85 -52.7 207.05 -40.55 216.4 -36.2 223.1 -32.7 L233.35 -26.8 234.55 -26.15 Q240.9 -22.35 245.15 -17.4 244.7 -17.25 244.7 -16.9 L244.7 -16.5 239.2 -14.95 Q220.25 -13.05 200.2 -15.65 180.95 -18.15 168.25 -24.1 L147.1 -19.1 Q126.7 -14.7 112.0 -15.0 L111.6 -15.5" fill="#2d46aa" fill-rule="evenodd" stroke="none"/>
  </g>
</svg>
