<?xml version="1.0" encoding="UTF-8" standalone="no"?>
<svg xmlns:ffdec="https://www.free-decompiler.com/flash" xmlns:xlink="http://www.w3.org/1999/xlink" ffdec:objectType="shape" height="310.75px" width="461.9px" xmlns="http://www.w3.org/2000/svg">
  <g transform="matrix(1.0, 0.0, 0.0, 1.0, 202.4, 146.5)">
    <path d="M5.25 -133.85 Q23.35 -122.7 38.5 -107.85 53.8 -92.95 67.4 -76.25 L79.4 -73.5 106.15 -60.5 136.65 -42.5 173.9 -17.25 Q180.0 -10.5 186.55 -4.15 193.4 2.5 200.65 8.75 L223.65 35.0 243.15 59.0 257.3 79.7 258.95 82.8 Q259.8 84.8 259.35 87.05 259.1 88.05 258.1 88.15 254.95 87.75 252.4 86.0 L233.9 73.25 210.15 54.25 172.9 22.0 168.4 21.5 113.4 -1.25 113.5 -1.0 Q116.7 7.2 119.05 15.7 124.35 34.55 122.4 54.2 120.45 73.85 109.4 90.15 98.6 106.05 82.4 116.75 L67.15 138.0 40.4 155.0 11.4 164.25 -7.6 163.8 -14.1 163.75 -29.35 162.0 -60.1 150.25 -77.85 134.25 -82.75 132.3 -89.1 129.25 -89.35 128.75 -90.05 128.4 Q-97.35 124.6 -103.65 119.6 -117.75 108.55 -126.4 93.1 -135.95 76.05 -137.3 56.45 -138.6 38.15 -135.1 20.25 L-161.35 35.0 Q-170.1 49.6 -179.25 64.0 -186.45 75.45 -196.4 85.2 L-197.1 85.85 Q-198.0 86.5 -199.0 86.8 -199.9 86.95 -200.5 86.35 -202.15 84.7 -202.35 82.25 L-202.35 81.1 -201.7 74.75 Q-198.85 55.3 -194.55 36.2 -190.9 20.1 -183.85 5.55 -180.65 -1.1 -174.75 -5.15 L-172.75 -6.85 -156.85 -23.0 -131.85 -46.75 Q-122.0 -54.95 -111.1 -61.85 -107.45 -64.25 -103.1 -64.25 -96.55 -76.7 -89.15 -88.65 -77.75 -106.85 -63.35 -122.6 -48.6 -138.75 -28.35 -146.5 -10.35 -143.4 5.25 -133.85" fill="#2e47aa" fill-rule="evenodd" stroke="none"/>
  </g>
</svg>
