<?xml version="1.0" encoding="UTF-8" standalone="no"?>
<svg xmlns:ffdec="https://www.free-decompiler.com/flash" xmlns:xlink="http://www.w3.org/1999/xlink" ffdec:objectType="shape" height="310.75px" width="455.45px" xmlns="http://www.w3.org/2000/svg">
  <g transform="matrix(1.0, 0.0, 0.0, 1.0, 202.4, 146.5)">
    <path d="M5.25 -133.85 Q23.35 -122.7 38.5 -107.85 52.35 -94.35 64.85 -79.35 L70.1 -70.75 Q79.05 -67.05 86.5 -63.45 L94.6 -60.5 119.5 -44.25 147.45 -22.5 181.15 7.25 Q186.35 14.75 192.05 21.85 198.0 29.35 204.4 36.45 L223.85 65.4 240.15 91.65 251.5 113.95 252.8 117.25 Q253.35 119.4 252.65 121.5 252.25 122.5 251.25 122.45 248.15 121.65 245.85 119.6 L229.15 104.65 208.0 82.75 175.15 46.05 170.75 44.95 119.55 15.6 119.3 14.95 118.8 14.85 119.05 15.7 Q124.35 34.55 122.4 54.2 121.85 59.9 120.55 65.3 118.6 73.1 115.1 80.35 112.6 85.4 109.4 90.15 98.6 106.05 82.4 116.75 L67.15 138.0 40.4 155.0 11.4 164.25 -7.6 163.8 -14.1 163.75 -29.35 162.0 -60.1 150.25 -77.85 134.25 -82.75 132.3 -89.1 129.25 -89.35 128.75 -90.05 128.4 Q-97.35 124.6 -103.65 119.6 -117.75 108.55 -126.4 93.1 -135.95 76.05 -137.3 56.45 -138.6 38.15 -135.1 20.25 L-161.35 35.0 Q-170.1 49.6 -179.25 64.0 -186.45 75.45 -196.4 85.2 L-197.1 85.85 Q-198.0 86.5 -199.0 86.8 -199.9 86.95 -200.5 86.35 -202.15 84.7 -202.35 82.25 L-202.35 81.1 -201.7 74.75 Q-198.85 55.3 -194.55 36.2 -190.9 20.1 -183.85 5.55 -180.65 -1.1 -174.75 -5.15 L-172.75 -6.85 -156.85 -23.0 -131.85 -46.75 Q-122.0 -54.95 -111.1 -61.85 -107.45 -64.25 -103.1 -64.25 -96.55 -76.7 -89.15 -88.65 -77.75 -106.85 -63.35 -122.6 -48.6 -138.75 -28.35 -146.5 -10.35 -143.4 5.25 -133.85" fill="#2e47aa" fill-rule="evenodd" stroke="none"/>
  </g>
</svg>
