<?xml version="1.0" encoding="UTF-8" standalone="no"?>
<svg xmlns:ffdec="https://www.free-decompiler.com/flash" xmlns:xlink="http://www.w3.org/1999/xlink" ffdec:objectType="shape" height="314.75px" width="452.7px" xmlns="http://www.w3.org/2000/svg">
  <g transform="matrix(1.0, 0.0, 0.0, 1.0, 208.65, 145.95)">
    <path d="M36.7 -125.3 Q59.1 -102.35 75.6 -80.15 85.25 -67.2 98.65 -47.0 L98.7 -46.85 98.8 -46.6 99.0 -46.5 107.1 -41.5 112.5 -38.05 115.6 -36.3 137.6 -16.35 161.8 9.45 190.5 44.1 Q194.45 52.3 198.9 60.2 203.65 68.5 208.85 76.55 L223.55 108.15 235.5 136.65 Q239.55 148.45 243.25 160.45 L244.0 163.85 Q244.25 166.05 243.2 168.1 242.7 168.95 241.7 168.8 238.75 167.5 236.8 165.15 L222.65 147.7 205.2 122.85 178.5 81.45 174.35 79.7 129.0 43.4 128.75 42.6 128.25 42.4 128.65 44.25 Q127.8 64.3 120.65 82.9 114.25 99.55 100.1 110.55 L94.75 114.65 86.2 120.7 82.4 123.0 81.9 123.75 64.9 143.5 36.4 158.5 8.15 165.0 -11.8 163.4 Q-17.1 162.7 -22.15 161.3 -32.75 158.25 -42.9 154.0 -52.5 150.1 -60.65 144.1 -70.5 136.85 -79.1 128.0 -84.45 126.25 -88.75 122.9 L-97.7 116.25 Q-112.8 105.2 -122.15 88.95 -124.95 84.1 -126.65 78.75 -132.2 61.25 -131.2 43.0 -130.25 25.2 -126.1 8.0 L-155.85 20.75 -176.6 59.0 -199.6 94.5 Q-202.15 97.1 -205.35 98.65 L-206.75 98.95 -207.6 98.8 Q-209.4 94.6 -208.15 89.9 -206.1 82.35 -204.35 74.75 L-196.1 45.5 -182.85 6.5 Q-181.5 3.75 -179.75 1.25 -174.25 -6.9 -167.75 -14.2 -159.6 -23.4 -150.75 -31.9 L-149.55 -33.0 -144.35 -37.75 -117.85 -57.5 Q-105.45 -65.8 -91.75 -71.6 -89.15 -72.75 -86.6 -72.25 -72.45 -94.15 -54.95 -113.6 -39.55 -130.85 -19.25 -141.85 -12.2 -145.7 -4.5 -145.8 0.6 -146.35 5.65 -144.55 9.8 -143.15 13.75 -141.15 21.2 -137.45 27.75 -132.6 L30.65 -130.4 33.45 -128.05 36.4 -125.55 36.7 -125.3" fill="#2e47aa" fill-rule="evenodd" stroke="none"/>
  </g>
</svg>
