<?xml version="1.0" encoding="UTF-8" standalone="no"?>
<svg xmlns:ffdec="https://www.free-decompiler.com/flash" xmlns:xlink="http://www.w3.org/1999/xlink" ffdec:objectType="shape" height="330.4px" width="446.9px" xmlns="http://www.w3.org/2000/svg">
  <g transform="matrix(1.0, 0.0, 0.0, 1.0, 206.1, 145.5)">
    <path d="M31.45 -139.6 Q38.7 -135.4 44.9 -130.1 L47.6 -127.75 50.25 -125.2 53.05 -122.5 53.3 -122.25 Q74.15 -97.85 89.1 -74.6 97.9 -61.05 109.9 -40.0 L109.95 -39.85 110.0 -39.6 110.2 -39.5 117.95 -33.95 123.1 -30.15 126.05 -28.2 146.7 -6.8 169.1 20.55 195.45 57.0 Q198.8 65.45 202.75 73.65 206.95 82.25 211.6 90.6 L224.15 123.15 234.15 152.35 Q237.4 164.4 240.3 176.6 L240.8 180.05 Q240.9 182.25 239.75 184.25 239.15 185.05 238.2 184.85 235.3 183.35 233.55 180.85 L220.6 162.5 204.85 136.55 180.95 93.45 176.95 91.45 134.15 52.2 133.95 51.4 133.45 51.15 133.75 53.05 Q131.55 73.0 123.15 91.05 115.65 107.25 100.8 117.3 L95.2 121.0 86.3 126.45 82.35 128.5 81.8 129.2 63.5 147.8 34.05 160.85 5.5 165.45 Q-4.3 163.5 -14.3 162.5 -19.55 161.45 -24.5 159.75 -34.85 155.95 -44.75 151.05 -54.0 146.55 -61.75 140.0 -71.15 132.1 -79.1 122.75 -84.35 120.6 -88.4 117.0 L-96.85 109.75 Q-111.15 97.75 -119.45 80.9 -121.9 75.85 -123.25 70.4 -127.6 52.6 -125.4 34.45 -123.3 16.75 -118.0 -0.1 L-148.5 10.6 -171.75 47.35 -197.05 81.25 Q-199.8 83.65 -203.1 85.0 L-204.5 85.2 -205.35 85.0 Q-206.85 80.7 -205.3 76.1 -202.75 68.7 -200.5 61.2 L-190.3 32.6 -174.5 -5.4 -171.05 -10.45 Q-165.0 -18.25 -158.05 -25.05 -149.3 -33.7 -139.9 -41.55 L-138.65 -42.6 -133.15 -47.0 -105.35 -64.9 Q-92.45 -72.4 -78.35 -77.2 L-73.25 -77.5 Q-57.6 -98.45 -38.85 -116.65 -22.35 -132.9 -1.4 -142.5 5.95 -145.85 13.6 -145.45 18.7 -145.65 23.65 -143.5 27.7 -141.85 31.45 -139.6" fill="#2e47aa" fill-rule="evenodd" stroke="none"/>
  </g>
</svg>
