<?xml version="1.0" encoding="UTF-8" standalone="no"?>
<svg xmlns:ffdec="https://www.free-decompiler.com/flash" xmlns:xlink="http://www.w3.org/1999/xlink" ffdec:objectType="shape" height="321.3px" width="449.75px" xmlns="http://www.w3.org/2000/svg">
  <g transform="matrix(1.0, 0.0, 0.0, 1.0, 206.1, 145.5)">
    <path d="M31.45 -139.6 Q38.7 -135.4 44.9 -130.1 L47.6 -127.75 50.25 -125.2 53.05 -122.5 53.3 -122.25 Q74.15 -97.85 89.1 -74.6 96.15 -63.75 105.2 -48.1 L106.5 -45.05 107.05 -44.7 108.5 -40.55 109.1 -40.2 109.95 -40.1 Q110.2 -40.0 109.9 -39.65 L112.4 -38.05 117.75 -34.45 120.75 -32.6 142.2 -12.05 165.65 14.35 193.45 49.75 Q197.15 58.0 201.45 66.05 205.95 74.5 210.9 82.7 L224.75 114.7 235.9 143.45 Q239.65 155.4 243.05 167.45 L243.6 170.85 Q243.8 173.05 242.8 175.15 242.25 175.95 241.3 175.75 238.3 174.4 236.45 172.0 L222.75 154.15 206.0 128.8 180.4 86.7 176.35 84.95 133.9 49.0 133.95 50.8 133.95 51.4 133.7 51.3 133.45 51.15 133.75 53.05 Q133.15 58.35 132.15 63.55 129.3 77.8 123.15 91.05 120.05 97.7 115.75 103.35 109.55 111.4 100.8 117.3 L95.2 121.0 86.3 126.45 82.35 128.5 81.8 129.2 63.5 147.8 34.05 160.85 5.5 165.45 Q-4.3 163.5 -14.3 162.5 -19.55 161.45 -24.5 159.75 -34.85 155.95 -44.75 151.05 -54.0 146.55 -61.75 140.0 -71.15 132.1 -79.1 122.75 -84.35 120.6 -88.4 117.0 L-96.85 109.75 Q-111.15 97.75 -119.45 80.9 -121.9 75.85 -123.25 70.4 -127.6 52.6 -125.4 34.45 -123.3 16.75 -118.0 -0.1 L-148.5 10.6 -171.75 47.35 -197.05 81.25 Q-199.8 83.65 -203.1 85.0 L-204.5 85.2 -205.35 85.0 Q-206.85 80.7 -205.3 76.1 -202.75 68.7 -200.5 61.2 L-190.3 32.6 -174.5 -5.4 -171.05 -10.45 Q-165.0 -18.25 -158.05 -25.05 -149.3 -33.7 -139.9 -41.55 L-138.65 -42.6 -133.15 -47.0 -105.35 -64.9 Q-92.45 -72.4 -78.35 -77.2 L-73.25 -77.5 Q-57.6 -98.45 -38.85 -116.65 -22.35 -132.9 -1.4 -142.5 5.95 -145.85 13.6 -145.45 18.7 -145.65 23.65 -143.5 27.7 -141.85 31.45 -139.6 M133.85 53.8 L133.9 55.5 133.85 55.3 133.85 54.7 133.85 53.8" fill="#2e47aa" fill-rule="evenodd" stroke="none"/>
  </g>
</svg>
