<?xml version="1.0" encoding="UTF-8" standalone="no"?>
<svg xmlns:ffdec="https://www.free-decompiler.com/flash" xmlns:xlink="http://www.w3.org/1999/xlink" ffdec:objectType="shape" height="316.4px" width="450.9px" xmlns="http://www.w3.org/2000/svg">
  <g transform="matrix(1.0, 0.0, 0.0, 1.0, 206.1, 145.5)">
    <path d="M31.45 -139.6 Q38.7 -135.4 44.9 -130.1 L47.6 -127.75 50.25 -125.2 53.05 -122.5 53.3 -122.25 Q74.15 -97.85 89.1 -74.6 96.15 -63.75 105.2 -48.1 L106.5 -45.05 111.7 -41.75 117.05 -38.2 120.1 -36.4 141.7 -16.05 165.4 10.15 193.5 45.3 Q197.3 53.55 201.65 61.55 206.2 69.95 211.25 78.1 L225.4 110.0 236.8 138.65 Q240.65 150.55 244.15 162.55 L244.75 165.95 Q244.95 168.15 243.95 170.25 243.4 171.05 242.45 170.9 239.45 169.55 237.6 167.15 L223.75 149.45 206.75 124.25 180.8 82.4 176.7 80.65 133.6 44.8 134.0 51.6 133.95 51.4 133.45 51.15 133.75 53.05 Q133.15 58.35 132.15 63.55 129.3 77.8 123.15 91.05 120.05 97.7 115.75 103.35 109.55 111.4 100.8 117.3 L95.2 121.0 86.3 126.45 82.35 128.5 81.8 129.2 63.5 147.8 34.05 160.85 5.5 165.45 Q-4.3 163.5 -14.3 162.5 -19.55 161.45 -24.5 159.75 -34.85 155.95 -44.75 151.05 -54.0 146.55 -61.75 140.0 -71.15 132.1 -79.1 122.75 -84.35 120.6 -88.4 117.0 L-96.85 109.75 Q-111.15 97.75 -119.45 80.9 -121.9 75.85 -123.25 70.4 -127.6 52.6 -125.4 34.45 -123.3 16.75 -118.0 -0.1 L-148.5 10.6 -171.75 47.35 -197.05 81.25 Q-199.8 83.65 -203.1 85.0 L-204.5 85.2 -205.35 85.0 Q-206.85 80.7 -205.3 76.1 -202.75 68.7 -200.5 61.2 L-190.3 32.6 -174.5 -5.4 -171.05 -10.45 Q-165.0 -18.25 -158.05 -25.05 -149.3 -33.7 -139.9 -41.55 L-138.65 -42.6 -133.15 -47.0 -105.35 -64.9 Q-92.45 -72.4 -78.35 -77.2 L-73.25 -77.5 Q-57.6 -98.45 -38.85 -116.65 -22.35 -132.9 -1.4 -142.5 5.95 -145.85 13.6 -145.45 18.7 -145.65 23.65 -143.5 27.7 -141.85 31.45 -139.6" fill="#2e47aa" fill-rule="evenodd" stroke="none"/>
  </g>
</svg>
