<?xml version="1.0" encoding="UTF-8" standalone="no"?>
<svg xmlns:ffdec="https://www.free-decompiler.com/flash" xmlns:xlink="http://www.w3.org/1999/xlink" ffdec:objectType="shape" height="310.95px" width="429.4px" xmlns="http://www.w3.org/2000/svg">
  <g transform="matrix(1.0, 0.0, 0.0, 1.0, 208.65, 145.95)">
    <path d="M36.7 -125.3 Q59.1 -102.35 75.6 -80.15 80.85 -73.15 87.15 -63.95 L88.95 -61.35 91.5 -60.05 94.35 -58.6 95.8 -57.55 106.05 -50.1 118.9 -40.75 140.65 -18.5 159.4 4.25 Q162.0 6.1 164.25 8.25 L164.7 8.65 Q168.6 12.45 171.45 17.2 L171.5 17.3 172.05 18.0 174.5 21.05 180.85 28.9 180.8 29.05 184.2 31.4 Q188.95 37.85 191.3 41.65 195.15 47.85 203.8 68.15 207.45 76.9 213.55 95.85 217.0 106.45 218.95 114.05 L220.35 120.85 220.35 122.1 220.7 123.8 220.75 124.05 220.75 124.2 220.75 124.35 220.6 125.65 219.85 126.6 219.5 126.65 219.35 126.85 219.15 126.7 218.95 126.7 218.35 126.85 218.3 126.7 Q214.85 125.0 210.45 119.85 197.05 108.7 188.1 98.05 181.4 90.05 177.05 82.2 L174.25 77.65 Q170.5 71.1 169.35 65.55 162.0 57.55 153.15 49.65 145.7 43.0 137.2 36.45 L126.4 28.5 124.7 27.65 Q127.75 40.85 128.25 50.25 126.7 67.1 120.65 82.9 114.25 99.55 100.1 110.55 L94.75 114.65 86.2 120.7 82.4 123.0 81.9 123.75 64.9 143.5 36.4 158.5 8.15 165.0 -11.8 163.4 Q-17.1 162.7 -22.15 161.3 -32.75 158.25 -42.9 154.0 -52.5 150.1 -60.65 144.1 -70.5 136.85 -79.1 128.0 -84.45 126.25 -88.75 122.9 L-97.7 116.25 Q-112.8 105.2 -122.15 88.95 -124.95 84.1 -126.65 78.75 -132.2 61.25 -131.2 43.0 -130.25 25.2 -126.1 8.0 L-155.85 20.75 -176.6 59.0 -199.6 94.5 Q-202.15 97.1 -205.35 98.65 L-206.75 98.95 -207.6 98.8 Q-209.4 94.6 -208.15 89.9 -206.1 82.35 -204.35 74.75 L-196.1 45.5 -182.85 6.5 Q-181.5 3.75 -179.75 1.25 -174.25 -6.9 -167.75 -14.2 -159.6 -23.4 -150.75 -31.9 L-149.55 -33.0 -144.35 -37.75 -117.85 -57.5 Q-105.45 -65.8 -91.75 -71.6 -89.15 -72.75 -86.6 -72.25 -72.45 -94.15 -54.95 -113.6 -39.55 -130.85 -19.25 -141.85 -12.2 -145.7 -4.5 -145.8 0.6 -146.35 5.65 -144.55 9.8 -143.15 13.75 -141.15 21.2 -137.45 27.75 -132.6 L30.65 -130.4 33.45 -128.05 36.4 -125.55 36.7 -125.3 M133.95 32.25 L133.95 32.3 134.05 32.3 133.95 32.25" fill="#2e47aa" fill-rule="evenodd" stroke="none"/>
  </g>
</svg>
