<?xml version="1.0" encoding="UTF-8" standalone="no"?>
<svg xmlns:ffdec="https://www.free-decompiler.com/flash" xmlns:xlink="http://www.w3.org/1999/xlink" ffdec:objectType="shape" height="271.25px" width="217.85px" xmlns="http://www.w3.org/2000/svg">
  <g transform="matrix(1.0, 0.0, 0.0, 1.0, 107.35, 69.5)">
    <path d="M-25.75 -48.25 Q-28.1 -50.95 -29.6 -54.1 -30.9 -56.8 -30.8 -60.1 -30.75 -62.2 -30.05 -64.05 -28.75 -67.35 -25.25 -68.15 -20.65 -69.15 -15.95 -68.95 -10.0 -69.65 -4.0 -69.25 L3.5 -69.25 7.25 -69.5 21.35 -68.35 Q25.0 -67.75 28.2 -65.75 29.25 -65.15 30.0 -64.0 29.5 -59.9 28.3 -55.95 27.25 -52.4 25.5 -49.0 19.75 -39.25 -0.5 -46.5 -18.5 -39.25 -25.75 -48.25 M36.0 -1.0 L38.3 5.2 Q44.35 21.0 51.2 36.4 56.25 47.75 63.45 57.7 70.6 67.5 78.45 76.95 82.1 81.25 83.8 86.65 86.2 94.25 86.45 101.95 L86.35 107.55 Q85.75 116.0 82.25 124.25 L81.5 125.25 64.75 144.25 36.75 158.75 8.25 165.0 -4.75 163.75 -13.75 162.75 Q-30.25 161.5 -42.0 154.75 L-62.5 144.75 -78.5 127.25 -80.75 124.75 -87.25 110.5 -87.5 107.5 Q-84.25 105.0 -85.0 99.5 L-77.75 93.5 -76.25 90.0 -70.25 81.75 -59.0 60.5 -51.5 44.0 -44.5 21.5 -35.5 2.0 -34.75 3.75 Q-23.0 28.25 -1.5 27.25 L1.0 27.25 Q24.0 27.75 34.0 4.0 L34.0 3.75 36.0 -1.0 M8.5 -55.75 L5.75 -53.0 Q5.5 -49.5 8.0 -47.25 L12.25 -46.75 Q22.5 -52.25 13.5 -56.75 L8.5 -55.75 M-11.25 -46.75 Q-0.25 -55.5 -15.5 -56.5 -22.75 -48.0 -11.25 -46.75" fill="#ffffff" fill-rule="evenodd" stroke="none"/>
    <path d="M8.5 -55.75 L13.5 -56.75 Q22.5 -52.25 12.25 -46.75 L8.0 -47.25 Q5.5 -49.5 5.75 -53.0 L8.5 -55.75 M-11.25 -46.75 Q-22.75 -48.0 -15.5 -56.5 -0.25 -55.5 -11.25 -46.75" fill="#000000" fill-rule="evenodd" stroke="none"/>
    <path d="M-25.75 -48.25 Q-18.5 -39.25 -0.5 -46.5 19.75 -39.25 25.5 -49.0 40.0 -39.0 39.5 -28.25 L39.75 -19.5 36.0 -1.0 34.0 3.75 34.0 4.0 Q24.0 27.75 1.0 27.25 L-1.5 27.25 Q-23.0 28.25 -34.75 3.75 L-35.5 2.0 -38.5 -8.0 -40.25 -20.75 -40.0 -27.75 Q-42.25 -35.0 -25.75 -48.25 M82.25 124.25 L85.75 122.5 86.5 122.0 87.0 121.75 95.5 115.25 Q99.65 122.35 102.7 128.5 106.35 135.95 108.35 141.9 110.7 149.1 110.5 154.0 L110.5 155.65 110.5 156.65 110.05 161.6 109.9 162.5 Q104.65 193.9 55.25 201.0 30.5 204.25 16.75 193.0 11.5 189.75 8.25 165.0 L36.75 158.75 64.75 144.25 81.5 125.25 82.25 124.25 M-4.75 163.75 Q-7.05 174.7 -9.7 185.6 -10.15 187.4 -10.9 189.2 -12.05 191.7 -14.0 193.25 -14.4 193.85 -14.95 194.05 -22.75 197.6 -31.05 199.0 -41.5 200.75 -52.2 199.9 -60.5 199.65 -68.4 197.55 -79.1 194.85 -88.6 189.25 -101.45 181.5 -105.8 167.15 -107.1 162.85 -107.35 158.35 -107.45 155.9 -107.1 153.55 -106.15 147.0 -103.8 140.9 -99.4 129.25 -94.0 118.0 L-86.8 123.05 Q-82.95 125.85 -78.5 127.25 L-62.5 144.75 -42.0 154.75 Q-30.25 161.5 -13.75 162.75 L-4.75 163.75" fill="#e58508" fill-rule="evenodd" stroke="none"/>
  </g>
</svg>
