<?xml version="1.0" encoding="UTF-8" standalone="no"?>
<svg xmlns:ffdec="https://www.free-decompiler.com/flash" xmlns:xlink="http://www.w3.org/1999/xlink" ffdec:objectType="shape" height="223.5px" width="370.0px" xmlns="http://www.w3.org/2000/svg">
  <g transform="matrix(1.0, 0.0, 0.0, 1.0, 185.75, 22.0)">
    <path d="M-155.0 30.75 L-154.35 30.35 -154.9 30.35 -155.0 30.75 M40.0 -22.0 Q39.0 85.5 2.0 85.0 -20.0 89.0 -29.25 60.75 L-32.75 50.25 -37.75 24.25 -39.5 11.25 -40.25 -21.5 Q-36.0 26.5 2.0 27.0 34.5 25.5 40.0 -22.0 M153.55 30.65 L153.75 30.75 154.5 30.25 154.45 30.15 154.35 30.2 154.25 30.35 154.1 30.35 153.55 30.65 M173.5 37.0 L176.25 47.25 184.0 85.5 184.25 95.75 Q184.25 97.0 180.5 97.75 L176.0 93.75 168.5 82.25 154.25 56.25 142.25 32.25 142.25 30.75 140.5 30.25 126.75 21.0 128.75 31.25 129.0 34.1 Q129.65 35.85 129.85 38.6 130.35 43.6 130.35 47.8 L130.1 54.15 Q129.8 58.7 129.35 60.0 128.75 61.8 127.5 66.35 L127.45 66.55 127.25 68.5 Q121.0 95.25 95.5 115.0 L99.75 122.25 104.25 132.25 102.5 132.0 Q96.75 137.0 92.75 138.0 94.25 143.25 72.75 164.5 L41.25 180.0 Q22.5 181.75 16.75 188.5 23.5 200.5 67.25 194.25 98.75 188.25 109.25 164.25 L110.0 163.5 109.75 166.0 Q105.75 194.25 47.5 201.5 L33.0 200.75 Q24.75 199.0 19.5 195.75 9.0 185.75 8.5 165.25 L-4.25 163.75 Q-6.75 184.5 -14.25 194.25 -23.75 202.75 -51.25 201.0 -75.0 198.0 -87.75 189.75 -105.25 177.75 -106.75 163.5 -96.0 187.25 -65.25 193.75 -23.0 201.0 -13.0 188.25 -18.25 181.75 -34.5 180.0 L-69.0 163.5 -89.75 140.5 Q-100.5 134.0 -102.25 134.75 L-97.75 124.0 -93.75 117.75 Q-121.75 97.0 -126.0 77.0 L-127.5 71.5 Q-133.25 42.25 -128.25 22.5 L-127.75 22.0 -128.25 21.5 -142.75 31.0 -158.0 61.5 -168.25 80.0 -176.75 93.5 -181.5 98.0 -184.75 97.25 Q-184.0 96.25 -185.75 90.75 L-183.25 74.25 -175.8 41.65 -174.9 40.45 Q-176.2 45.5 -175.25 50.0 L-176.25 52.0 -176.5 65.25 -176.0 70.25 -173.25 69.75 -172.5 68.5 Q-170.65 68.7 -167.8 66.0 L-167.85 65.85 -166.65 64.25 Q-162.6 61.65 -158.25 53.5 L-155.25 47.35 Q-152.4 42.3 -150.7 37.9 L-150.25 36.5 -151.0 36.5 -152.25 34.5 -155.0 33.25 -155.75 30.75 -158.5 28.0 -158.25 27.6 Q-157.95 27.55 -155.0 28.4 L-152.35 29.05 Q-142.95 23.15 -140.75 24.25 L-128.25 17.0 -112.75 6.25 -108.25 2.0 -106.5 1.75 -100.0 -3.0 -100.75 -1.0 -104.0 2.75 -113.75 18.0 -114.75 18.5 -122.75 36.5 -121.0 46.75 -111.75 70.75 -104.5 80.25 -96.75 88.75 -83.25 97.75 Q-86.0 99.0 -84.75 101.25 L-68.0 124.75 -36.5 146.25 0.0 153.25 Q40.5 151.0 69.0 125.75 L86.5 102.0 Q90.0 97.25 87.25 91.5 103.25 80.0 107.0 72.5 L112.75 63.0 118.0 52.0 121.1 40.5 120.5 36.35 118.1 25.9 114.75 18.75 100.25 -2.5 104.5 0.75 106.75 1.5 110.75 5.25 112.0 5.5 127.0 16.5 127.9 17.05 128.0 17.0 138.25 23.15 Q144.45 26.9 150.4 29.0 L151.5 29.0 Q153.85 29.0 155.3 28.2 L156.5 28.0 156.25 27.5 157.75 27.0 Q155.4 33.35 148.4 35.95 L149.5 39.6 150.95 43.2 151.0 43.3 152.85 47.55 Q155.45 51.15 157.25 52.9 L159.1 56.25 Q163.75 64.35 167.25 66.05 169.95 68.7 172.25 69.5 L175.25 70.75 175.75 65.0 175.5 53.0 174.5 49.25 Q175.25 44.0 173.0 37.25 L173.5 37.0" fill="#000000" fill-opacity="0.49803922" fill-rule="evenodd" stroke="none"/>
  </g>
</svg>
