<?xml version="1.0" encoding="UTF-8" standalone="no"?>
<svg xmlns:ffdec="https://www.free-decompiler.com/flash" xmlns:xlink="http://www.w3.org/1999/xlink" ffdec:objectType="shape" height="254.8px" width="430.0px" xmlns="http://www.w3.org/2000/svg">
  <g transform="matrix(1.0, 0.0, 0.0, 1.0, 185.75, 53.3)">
    <path d="M185.75 -19.25 L184.35 -19.3 185.8 -19.0 185.75 -19.25 M97.35 -18.05 L97.35 -18.35 94.25 -19.05 94.0 -19.5 106.5 -19.5 112.15 -19.95 116.4 -20.25 118.0 -20.05 118.4 -19.7 125.15 -20.05 135.5 -21.25 Q138.15 -21.7 141.45 -22.8 L146.25 -24.55 Q152.8 -25.75 161.85 -29.1 167.0 -31.0 169.2 -31.55 L169.2 -31.7 Q169.5 -33.35 169.6 -35.95 169.1 -37.75 169.1 -38.4 169.1 -39.65 169.35 -39.25 L169.55 -39.1 169.4 -39.9 168.75 -41.3 169.25 -41.4 169.25 -41.8 170.0 -41.75 169.95 -41.2 Q170.95 -40.65 171.55 -38.3 172.1 -36.0 172.1 -33.55 L172.0 -30.55 171.45 -27.95 170.75 -25.8 Q172.65 -25.8 181.85 -23.05 L190.8 -22.05 197.4 -20.95 Q201.0 -21.35 206.1 -22.5 L216.25 -25.05 219.85 -26.45 Q213.45 -31.35 205.2 -36.85 192.7 -45.25 178.75 -53.3 181.65 -53.15 184.85 -51.5 186.8 -50.55 191.25 -47.8 L192.15 -47.25 193.5 -47.55 Q194.5 -46.95 226.2 -30.7 243.6 -21.8 244.1 -18.1 L244.25 -17.1 Q244.25 -16.3 244.05 -16.25 L243.85 -16.3 242.9 -16.25 242.5 -16.05 Q239.65 -14.55 231.25 -14.55 L205.0 -15.05 Q186.0 -16.4 179.95 -18.9 L178.45 -19.9 177.45 -20.15 Q174.9 -20.8 173.75 -22.3 L172.25 -22.8 172.65 -23.05 166.55 -24.5 Q163.85 -23.35 159.6 -22.55 L156.85 -22.05 156.45 -21.9 Q151.75 -19.85 145.75 -19.25 L142.95 -18.4 136.8 -17.3 135.45 -16.75 126.25 -15.75 116.6 -15.65 111.5 -15.3 111.05 -15.6 112.5 -13.05 114.85 -9.15 115.5 -8.0 115.7 -7.95 116.55 -6.5 118.2 -3.05 Q122.95 7.25 126.0 16.5 L127.65 21.85 128.75 26.25 128.9 26.75 131.3 37.5 131.35 37.85 131.35 37.9 131.25 38.85 131.45 42.4 131.3 43.85 131.3 48.35 Q131.3 54.35 129.15 63.5 127.7 69.7 126.1 72.8 118.95 96.85 95.5 115.0 L99.75 122.25 104.25 132.25 102.5 132.0 Q96.75 137.0 92.75 138.0 94.25 143.25 72.75 164.5 L41.25 180.0 Q22.5 181.75 16.75 188.5 23.5 200.5 67.25 194.25 98.75 188.25 109.25 164.25 L110.0 163.5 109.75 166.0 Q105.75 194.25 47.5 201.5 L33.0 200.75 Q24.75 199.0 19.5 195.75 9.0 185.75 8.5 165.25 L-4.25 163.75 Q-6.75 184.5 -14.25 194.25 -23.75 202.75 -51.25 201.0 -75.0 198.0 -87.75 189.75 -105.25 177.75 -106.75 163.5 -96.0 187.25 -65.25 193.75 -23.0 201.0 -13.0 188.25 -18.25 181.75 -34.5 180.0 L-69.0 163.5 -89.75 140.5 Q-100.5 134.0 -102.25 134.75 L-97.75 124.0 -93.75 117.75 Q-121.75 97.0 -126.0 77.0 L-127.5 71.5 Q-133.25 42.25 -128.25 22.5 L-127.75 22.0 -128.25 21.5 -142.75 31.0 -158.0 61.5 -168.25 80.0 -176.75 93.5 -181.5 98.0 -184.75 97.25 Q-184.0 96.25 -185.75 90.75 L-183.25 74.25 -174.75 37.0 -174.0 37.5 Q-176.5 44.25 -175.25 50.0 L-176.25 52.0 -176.5 65.25 -176.0 70.25 -173.25 69.75 -172.5 68.5 Q-170.0 68.75 -165.75 63.75 -161.75 53.5 -155.0 50.0 L-150.5 41.0 -149.75 40.5 -150.5 42.25 -148.5 40.5 -148.75 39.25 -149.5 39.25 -148.5 37.25 -149.25 36.5 -151.0 36.5 -152.25 34.5 -155.0 33.25 -155.75 30.75 -158.5 28.0 -154.75 29.0 -155.0 30.75 Q-143.25 23.0 -140.75 24.25 L-128.25 17.0 -112.75 6.25 -108.25 2.0 -106.5 1.75 -100.0 -3.0 -100.75 -1.0 -104.0 2.75 -113.75 18.0 -114.75 18.5 -122.75 36.5 -121.0 46.75 -111.75 70.75 -104.5 80.25 -96.75 88.75 -83.25 97.75 Q-86.0 99.0 -84.75 101.25 L-68.0 124.75 -36.5 146.25 0.0 153.25 Q40.5 151.0 69.0 125.75 L86.5 102.0 Q90.0 97.25 87.25 91.5 103.25 80.0 107.0 72.5 L112.75 63.0 116.75 54.65 Q118.85 45.1 118.85 41.1 L118.1 31.0 117.25 26.1 117.2 25.7 113.6 14.0 Q110.15 4.0 103.4 -7.9 L97.35 -18.05 M171.55 85.25 L171.95 87.5 171.55 86.9 171.5 85.8 171.55 85.05 171.55 85.25 M40.0 -22.0 Q39.0 85.5 2.0 85.0 -20.0 89.0 -29.25 60.75 L-32.75 50.25 -37.75 24.25 -39.5 11.25 -40.25 -21.5 Q-36.0 26.5 2.0 27.0 34.5 25.5 40.0 -22.0" fill="#000000" fill-opacity="0.49803922" fill-rule="evenodd" stroke="none"/>
  </g>
</svg>
