<?xml version="1.0" encoding="UTF-8" standalone="no"?>
<svg xmlns:ffdec="https://www.free-decompiler.com/flash" xmlns:xlink="http://www.w3.org/1999/xlink" ffdec:objectType="shape" height="270.9px" width="218.05px" xmlns="http://www.w3.org/2000/svg">
  <g transform="matrix(1.0, 0.0, 0.0, 1.0, 107.35, 69.15)">
    <path d="M-43.25 -45.0 Q-46.5 -52.75 -48.9 -60.75 -49.15 -61.5 -48.35 -62.35 -44.5 -66.2 -39.2 -66.5 L-23.75 -68.0 -21.25 -67.5 -17.75 -68.2 -4.7 -68.75 6.85 -68.35 Q8.6 -68.0 10.25 -67.0 L10.25 -66.0 7.5 -50.5 Q6.25 -41.0 -18.0 -45.75 -37.0 -36.75 -43.25 -45.0 M22.75 -4.25 L26.0 2.25 40.0 30.25 55.5 53.75 Q65.0 61.6 73.2 70.7 80.25 78.5 81.9 88.2 84.25 102.1 82.5 116.75 L67.25 138.0 40.5 155.0 11.5 164.25 8.0 164.25 -5.0 164.0 -7.5 163.75 -14.0 163.75 -29.25 162.0 -60.0 150.25 -77.75 134.25 -80.25 131.5 -88.0 118.0 Q-89.25 117.0 -86.5 112.5 L-86.75 107.25 -80.25 100.75 -79.25 97.25 -73.25 86.75 -65.0 65.75 -59.75 50.25 -54.75 26.0 -48.0 6.25 Q-44.25 13.85 -38.05 19.6 -28.25 28.7 -14.95 28.25 L-12.25 27.75 Q-5.1 27.75 1.45 24.9 11.4 20.65 16.7 11.4 20.9 3.95 22.75 -4.25 M-34.25 -54.25 Q-41.0 -47.25 -29.75 -44.75 -25.75 -45.5 -25.0 -48.5 L-25.25 -52.25 Q-27.75 -54.75 -31.25 -54.75 L-34.25 -54.25 M-12.0 -49.75 L-9.5 -47.25 -5.75 -47.0 Q-3.25 -47.25 -1.75 -49.5 L-0.5 -52.5 -1.5 -55.5 Q-4.25 -58.0 -7.25 -57.0 L-12.5 -53.5 -12.0 -49.75" fill="#ffffff" fill-rule="evenodd" stroke="none"/>
    <path d="M7.5 -50.5 Q17.05 -45.55 22.7 -36.6 24.2 -34.15 23.75 -31.25 24.8 -28.7 24.8 -25.75 24.85 -14.85 22.75 -4.25 20.9 3.95 16.7 11.4 11.4 20.65 1.45 24.9 -5.1 27.75 -12.25 27.75 L-14.95 28.25 Q-28.25 28.7 -38.05 19.6 -44.25 13.85 -48.0 6.25 L-51.75 -2.5 -54.75 -15.25 -55.5 -23.5 Q-54.75 -37.25 -43.25 -45.0 -37.0 -36.75 -18.0 -45.75 6.25 -41.0 7.5 -50.5 M82.5 116.75 L87.0 114.0 92.0 109.5 Q112.75 144.5 110.5 154.0 111.0 193.0 55.25 201.0 30.5 204.25 16.75 193.0 11.5 190.25 8.0 164.25 L11.5 164.25 40.5 155.0 67.25 138.0 82.5 116.75 M-5.0 164.0 Q-7.2 174.8 -9.7 185.6 -10.15 187.4 -10.9 189.2 -12.05 191.7 -14.0 193.25 -17.0 195.35 -20.35 196.4 -30.0 199.5 -40.1 200.2 -47.85 200.85 -55.65 199.8 L-62.3 199.05 Q-69.8 197.4 -76.9 194.95 -87.6 191.0 -95.85 183.35 -103.1 176.6 -105.8 167.2 -107.4 161.7 -107.35 156.0 -107.35 154.35 -106.9 152.9 -102.4 138.35 -97.5 124.0 L-89.25 128.75 -89.0 129.25 -88.3 129.55 Q-83.25 132.6 -77.75 134.25 L-60.0 150.25 -29.25 162.0 -14.0 163.75 -7.5 163.75 -5.0 164.0" fill="#e58508" fill-rule="evenodd" stroke="none"/>
    <path d="M-12.0 -49.75 L-12.5 -53.5 -7.25 -57.0 Q-4.25 -58.0 -1.5 -55.5 L-0.5 -52.5 -1.75 -49.5 Q-3.25 -47.25 -5.75 -47.0 L-9.5 -47.25 -12.0 -49.75 M-34.25 -54.25 L-31.25 -54.75 Q-27.75 -54.75 -25.25 -52.25 L-25.0 -48.5 Q-25.75 -45.5 -29.75 -44.75 -41.0 -47.25 -34.25 -54.25" fill="#000000" fill-rule="evenodd" stroke="none"/>
  </g>
</svg>
