<?xml version="1.0" encoding="UTF-8" standalone="no"?>
<svg xmlns:ffdec="https://www.free-decompiler.com/flash" xmlns:xlink="http://www.w3.org/1999/xlink" ffdec:objectType="shape" height="233.0px" width="465.85px" xmlns="http://www.w3.org/2000/svg">
  <g transform="matrix(1.0, 0.0, 0.0, 1.0, 196.7, 31.5)">
    <path d="M12.25 66.5 L6.75 75.5 -0.75 81.75 Q-5.25 81.75 -12.75 86.75 L-20.5 87.75 Q-30.25 90.75 -45.0 59.25 L-49.25 43.25 -50.75 32.0 -53.25 21.25 -55.0 -7.25 -55.0 -19.25 Q-46.25 25.75 -13.5 27.5 21.25 25.5 25.0 -18.5 26.25 37.0 12.25 66.5 M89.6 -16.6 L90.05 -15.95 90.15 -16.0 89.6 -16.6 M77.75 -28.15 L77.75 -28.25 75.25 -30.75 75.0 -31.5 78.5 -30.0 90.25 -27.55 90.35 -27.75 108.6 -25.95 134.6 -23.25 162.15 -20.45 186.5 -19.0 Q189.0 -21.05 190.15 -23.95 191.15 -26.4 191.25 -30.3 L192.0 -30.25 192.2 -27.4 192.35 -24.9 Q192.35 -23.25 191.2 -20.7 L190.2 -18.45 191.25 -19.0 Q190.4 -17.95 190.4 -16.65 L193.8 -14.65 199.5 -10.75 200.55 -10.0 Q203.8 -7.35 209.15 -4.5 211.4 -3.3 213.8 -2.2 L214.5 -0.85 217.6 0.95 Q219.85 2.2 221.8 3.6 L229.15 7.95 230.95 8.55 235.25 11.0 Q242.25 15.15 249.5 15.1 L249.5 8.85 247.6 5.35 Q246.1 2.55 246.1 1.55 246.1 0.8 246.3 0.75 L246.75 0.6 249.15 2.75 252.0 6.0 254.5 9.35 257.6 12.75 Q260.95 15.9 263.55 19.05 265.45 21.35 266.45 23.1 L266.75 23.0 Q273.75 32.75 260.5 29.5 L248.75 23.75 224.75 10.25 203.25 -3.25 186.75 -15.0 181.25 -14.5 147.0 -17.0 105.5 -22.0 Q125.5 23.0 122.5 49.75 119.75 87.5 92.0 109.25 L101.25 125.25 99.5 125.5 Q95.25 129.75 90.75 131.75 L90.75 136.0 73.0 160.0 43.0 177.25 25.5 181.5 19.0 184.25 16.0 188.25 Q23.25 200.75 68.25 194.0 99.5 187.75 109.5 163.5 111.0 165.25 105.25 176.25 L99.0 183.75 Q76.75 201.25 47.5 201.5 L33.25 200.75 Q21.75 198.5 18.0 194.75 9.75 186.5 8.5 164.75 L3.25 164.0 -5.0 164.0 -6.5 175.5 -8.25 182.75 -11.0 189.75 -14.25 194.25 Q-23.75 202.75 -51.25 201.0 -75.0 198.0 -87.75 189.75 -105.25 177.75 -106.75 163.5 -96.0 187.25 -65.25 193.75 -23.5 201.0 -13.75 188.25 -15.0 184.5 -34.25 181.5 L-67.75 168.25 -90.5 146.75 -102.5 141.5 -104.5 141.5 -103.75 137.75 -97.5 124.25 Q-122.0 109.5 -131.75 81.5 L-136.75 55.75 -137.25 41.75 -136.0 25.0 -135.25 22.75 -158.0 35.5 -163.0 46.25 -170.75 59.25 -178.75 71.5 -187.5 83.0 -190.5 86.25 Q-193.25 88.5 -195.0 87.5 -200.75 80.25 -187.25 25.0 L-186.5 27.25 Q-189.75 35.5 -187.0 43.5 L-188.0 47.0 -186.5 47.75 Q-183.75 52.25 -185.0 54.25 L-183.0 54.0 Q-179.5 54.75 -179.25 56.25 L-177.25 53.5 Q-173.0 54.5 -170.75 51.5 L-167.0 44.25 -166.0 43.5 Q-168.75 47.25 -167.5 48.25 L-163.5 41.5 -162.75 40.75 -163.75 39.0 -165.25 37.25 -167.25 37.0 Q-168.0 33.25 -170.75 33.0 L-172.25 30.0 -170.75 31.25 -166.0 29.5 -166.0 31.75 -165.25 32.25 -160.0 29.0 Q-158.0 29.75 -146.0 23.0 L-144.75 23.25 -115.25 4.5 Q-131.0 28.25 -128.25 33.0 -124.5 59.5 -99.75 90.75 L-91.5 97.25 -82.5 102.5 Q-88.5 110.0 -64.5 130.25 L-33.75 148.25 -14.5 151.25 3.75 153.0 22.5 148.25 40.0 142.75 69.75 121.0 85.25 96.0 Q87.75 95.25 86.0 87.25 93.65 81.15 99.55 74.4 104.35 66.95 105.8 63.9 110.25 54.1 110.25 39.65 110.25 32.45 108.5 23.55 L104.35 11.75 Q102.9 7.65 99.3 1.65 L93.35 -8.05 89.75 -13.2 86.1 -17.8 80.95 -23.7 Q77.75 -27.2 77.75 -28.15" fill="#000000" fill-opacity="0.49803922" fill-rule="evenodd" stroke="none"/>
  </g>
</svg>
