<?xml version="1.0" encoding="UTF-8" standalone="no"?>
<svg xmlns:ffdec="https://www.free-decompiler.com/flash" xmlns:xlink="http://www.w3.org/1999/xlink" ffdec:objectType="shape" height="226.0px" width="462.65px" xmlns="http://www.w3.org/2000/svg">
  <g transform="matrix(1.0, 0.0, 0.0, 1.0, 202.15, 24.5)">
    <path d="M12.25 66.5 L6.75 75.5 -0.75 81.75 Q-5.25 81.75 -12.75 86.75 L-20.5 87.75 Q-30.25 90.75 -45.0 59.25 L-49.25 43.25 -50.75 32.0 -53.25 21.25 -55.0 -7.25 -55.0 -19.25 Q-46.25 25.75 -13.5 27.5 21.25 25.5 25.0 -18.5 26.25 37.0 12.25 66.5 M112.75 33.75 L112.8 33.65 112.65 33.1 112.75 33.75 M124.8 1.55 L124.65 1.45 124.1 1.25 124.8 1.55 M171.4 19.3 L171.7 19.5 172.3 19.5 171.4 19.3 M258.45 83.0 L258.5 83.0 257.8 81.8 258.45 83.0 M73.25 -24.25 L74.0 -24.5 93.3 -13.4 107.05 -8.25 130.5 1.0 141.15 4.9 Q147.05 7.15 149.85 8.85 L158.05 12.9 Q159.75 13.7 161.05 14.45 L173.65 18.6 Q177.25 16.85 178.95 14.5 180.0 13.0 181.25 10.0 L182.0 10.0 Q182.35 12.75 180.85 15.7 179.9 17.6 178.05 19.85 L178.15 19.9 178.5 20.0 178.4 20.15 178.8 20.55 183.75 26.35 185.0 27.6 185.25 27.5 201.25 41.25 222.0 57.5 240.45 73.3 245.1 75.1 249.8 76.5 249.85 74.15 Q249.85 72.75 247.1 67.7 L244.35 62.75 Q244.35 61.95 244.55 61.9 L244.75 62.0 Q249.05 66.5 253.0 73.05 L257.5 81.25 258.25 81.25 257.0 78.75 257.5 78.5 259.75 82.75 260.5 86.0 Q260.0 87.75 257.25 88.25 L247.75 83.25 234.0 73.25 209.0 53.25 174.0 22.25 167.75 21.5 139.75 10.25 113.75 -1.25 119.0 16.0 122.0 29.0 122.25 56.75 Q118.75 85.5 92.0 109.25 L101.25 125.25 99.5 125.5 Q95.25 129.75 90.75 131.75 L90.75 136.0 73.0 160.0 43.0 177.25 25.5 181.5 19.0 184.25 16.0 188.25 Q22.0 201.0 71.0 193.25 97.0 188.25 110.0 164.25 L105.25 176.25 Q99.75 184.5 91.0 189.75 80.75 198.25 47.5 201.5 L33.25 200.75 Q21.75 198.5 18.0 194.75 9.75 186.5 8.5 164.75 L3.25 164.0 -5.0 164.0 -6.5 175.5 -8.25 182.75 -11.0 189.75 -14.25 194.25 Q-23.75 202.75 -51.25 201.0 -75.0 198.0 -87.75 189.75 -105.25 177.75 -106.75 163.5 -96.0 187.25 -65.25 193.75 -23.5 201.0 -13.75 188.25 -15.0 184.5 -34.25 181.5 L-67.75 168.25 -90.5 146.75 -102.5 141.5 -104.5 141.5 -103.75 137.75 -97.5 124.25 Q-99.95 122.8 -102.2 121.2 -122.8 106.85 -132.25 80.75 -140.0 60.75 -134.75 20.25 L-160.75 34.75 Q-190.5 85.75 -200.5 86.25 -206.25 79.25 -191.75 27.5 -196.75 56.75 -183.5 56.25 L-180.25 53.0 -180.5 52.5 -177.25 52.75 -173.75 50.0 Q-172.15 47.8 -170.9 45.4 -171.1 46.4 -170.5 46.75 L-166.0 40.5 -165.75 39.5 -167.25 37.0 Q-169.9 37.7 -174.6 29.7 -173.35 31.2 -170.0 29.5 L-169.25 32.0 Q-163.75 28.0 -159.25 27.75 L-153.25 24.25 -148.25 22.25 -147.0 22.0 -147.75 22.25 -147.25 22.75 -114.25 2.5 Q-131.75 28.75 -128.0 34.25 L-126.0 43.75 -115.75 67.75 -100.25 90.0 -95.25 94.75 -82.5 102.5 Q-88.5 110.0 -64.5 130.25 L-33.75 148.25 -14.5 151.25 3.75 153.0 22.5 148.25 40.0 142.75 69.75 121.0 85.25 96.0 Q87.75 95.25 86.0 87.25 95.6 79.55 102.5 70.85 L103.45 68.9 107.35 60.95 Q108.5 57.6 108.5 56.4 110.35 40.6 110.35 37.3 110.35 33.25 109.4 27.9 L107.35 18.35 106.85 16.65 106.0 15.0 102.45 8.55 102.25 7.55 97.35 -0.75 97.6 -0.6 96.5 -2.0 Q90.8 -9.3 83.25 -16.2 77.95 -21.05 73.85 -23.65 L73.75 -23.75 73.25 -24.25" fill="#000000" fill-opacity="0.49803922" fill-rule="evenodd" stroke="none"/>
  </g>
</svg>
