<?xml version="1.0" encoding="UTF-8" standalone="no"?>
<svg xmlns:ffdec="https://www.free-decompiler.com/flash" xmlns:xlink="http://www.w3.org/1999/xlink" ffdec:objectType="shape" height="270.9px" width="454.9px" xmlns="http://www.w3.org/2000/svg">
  <g transform="matrix(1.0, 0.0, 0.0, 1.0, 202.15, 69.15)">
    <path d="M-43.25 -45.0 Q-46.5 -52.75 -48.9 -60.75 -49.15 -61.5 -48.35 -62.35 -44.5 -66.2 -39.2 -66.5 L-23.75 -68.0 -21.25 -67.5 -17.75 -68.2 -4.7 -68.75 6.85 -68.35 Q8.6 -68.0 10.25 -67.0 L10.25 -66.0 7.5 -50.5 Q6.25 -41.0 -18.0 -45.75 -37.0 -36.75 -43.25 -45.0 M22.75 -4.25 Q29.1 7.35 35.05 19.2 37.75 24.6 40.0 30.25 L55.5 53.75 Q65.0 61.6 73.95 70.05 77.5 73.5 79.25 78.0 84.1 90.5 84.75 103.7 85.1 110.1 82.5 116.75 L67.25 138.0 40.5 155.0 11.5 164.25 8.0 164.25 -5.0 164.0 -7.5 163.75 -14.0 163.75 -29.25 162.0 -60.0 150.25 -77.75 134.25 -80.25 131.5 -88.0 118.0 Q-89.25 117.0 -86.5 112.5 L-86.75 107.25 -80.25 100.75 -79.25 97.25 -73.25 86.75 -65.0 65.75 -59.75 50.25 -54.75 26.0 -48.0 6.25 Q-44.25 13.85 -38.05 19.6 -28.25 28.7 -14.95 28.25 L-12.25 27.75 Q-5.1 27.75 1.45 24.9 11.4 20.65 16.7 11.4 20.9 3.95 22.75 -4.25 M-31.25 -54.75 L-34.25 -54.25 Q-41.0 -47.25 -29.75 -44.75 -25.75 -45.5 -25.0 -48.5 L-25.25 -52.25 Q-27.75 -54.75 -31.25 -54.75 M-12.0 -49.75 L-9.5 -47.25 -5.75 -47.0 Q-3.25 -47.25 -1.75 -49.5 L-0.5 -52.5 -1.5 -55.5 Q-4.25 -58.0 -7.25 -57.0 L-12.5 -53.5 -12.0 -49.75" fill="#ffffff" fill-rule="evenodd" stroke="none"/>
    <path d="M7.5 -50.5 Q17.05 -45.55 22.7 -36.6 24.2 -34.15 23.75 -31.25 24.8 -28.7 24.8 -25.75 24.85 -14.85 22.75 -4.25 20.9 3.95 16.7 11.4 11.4 20.65 1.45 24.9 -5.1 27.75 -12.25 27.75 L-14.95 28.25 Q-28.25 28.7 -38.05 19.6 -44.25 13.85 -48.0 6.25 L-51.75 -2.5 -54.75 -15.25 -55.5 -23.5 Q-54.75 -37.25 -43.25 -45.0 -37.0 -36.75 -18.0 -45.75 6.25 -41.0 7.5 -50.5 M82.5 116.75 L87.0 114.0 92.0 109.5 Q112.75 144.5 110.5 154.0 111.0 193.0 55.25 201.0 30.5 204.25 16.75 193.0 11.5 190.25 8.0 164.25 L11.5 164.25 40.5 155.0 67.25 138.0 82.5 116.75 M-5.0 164.0 Q-7.2 174.8 -9.7 185.6 -10.15 187.4 -10.9 189.2 -12.05 191.7 -14.0 193.25 -17.0 195.35 -20.35 196.4 -30.0 199.5 -40.1 200.2 -47.85 200.85 -55.65 199.8 L-62.3 199.05 Q-69.8 197.4 -76.9 194.95 -87.6 191.0 -95.85 183.35 -103.1 176.6 -105.8 167.2 -107.4 161.7 -107.35 156.0 -107.35 154.35 -106.9 152.9 -102.4 138.35 -97.5 124.0 L-89.25 128.75 -89.0 129.25 -88.3 129.55 Q-83.25 132.6 -77.75 134.25 L-60.0 150.25 -29.25 162.0 -14.0 163.75 -7.5 163.75 -5.0 164.0" fill="#e58508" fill-rule="evenodd" stroke="none"/>
    <path d="M-12.0 -49.75 L-12.5 -53.5 -7.25 -57.0 Q-4.25 -58.0 -1.5 -55.5 L-0.5 -52.5 -1.75 -49.5 Q-3.25 -47.25 -5.75 -47.0 L-9.5 -47.25 -12.0 -49.75 M-31.25 -54.75 Q-27.75 -54.75 -25.25 -52.25 L-25.0 -48.5 Q-25.75 -45.5 -29.75 -44.75 -41.0 -47.25 -34.25 -54.25 L-31.25 -54.75" fill="#000000" fill-rule="evenodd" stroke="none"/>
    <path d="M12.25 66.5 L6.75 75.5 -0.75 81.75 Q-5.25 81.75 -12.75 86.75 L-20.5 87.75 Q-30.25 90.75 -45.0 59.25 L-49.25 43.25 -50.75 32.0 -53.25 21.25 -55.0 -7.25 -55.0 -19.25 Q-46.25 25.75 -13.5 27.5 21.25 25.5 25.0 -18.5 26.25 37.0 12.25 66.5 M112.8 33.65 L112.65 33.1 112.75 33.75 112.8 33.65 M95.8 -2.9 L95.1 -3.8 96.05 -3.25 104.35 1.6 Q113.1 7.2 123.3 12.9 129.95 16.6 134.1 18.5 141.4 22.9 151.9 29.45 162.45 35.75 173.35 40.75 178.35 40.55 179.65 37.6 180.15 35.75 180.5 35.1 181.0 34.05 182.5 34.35 L182.6 36.1 Q182.6 38.15 181.3 39.55 179.25 41.8 178.35 43.6 L177.65 43.8 177.85 44.0 180.9 46.35 183.75 49.5 189.05 54.5 194.6 59.35 Q199.25 63.6 204.45 69.4 L213.35 79.6 221.95 89.5 Q227.3 95.6 231.1 99.35 L240.3 108.8 Q245.3 113.55 249.7 116.05 L250.0 114.5 250.0 114.25 249.85 113.85 249.9 113.85 249.85 113.75 249.9 113.75 249.6 113.0 Q249.25 112.25 249.35 111.85 250.55 111.7 250.9 112.75 L251.0 114.25 251.5 114.9 Q252.05 114.55 252.35 114.9 252.75 115.35 252.75 117.85 252.75 119.15 251.85 121.6 L250.25 121.6 247.15 120.5 Q245.25 119.75 245.25 118.75 L245.35 117.95 Q241.0 114.7 228.75 102.8 217.95 92.3 207.85 81.85 200.25 74.0 188.0 60.1 178.65 49.45 175.9 45.7 L173.5 45.85 Q169.1 45.85 154.9 36.8 134.1 23.6 127.25 20.0 L118.6 15.3 122.0 29.0 122.25 56.75 Q118.75 85.5 92.0 109.25 L101.25 125.25 99.5 125.5 Q95.25 129.75 90.75 131.75 L90.75 136.0 73.0 160.0 43.0 177.25 25.5 181.5 19.0 184.25 16.0 188.25 Q22.0 201.0 71.0 193.25 97.0 188.25 110.0 164.25 L105.25 176.25 Q99.75 184.5 91.0 189.75 80.75 198.25 47.5 201.5 L33.25 200.75 Q21.75 198.5 18.0 194.75 9.75 186.5 8.5 164.75 L3.25 164.0 -5.0 164.0 -6.5 175.5 -8.25 182.75 -11.0 189.75 -14.25 194.25 Q-23.75 202.75 -51.25 201.0 -75.0 198.0 -87.75 189.75 -105.25 177.75 -106.75 163.5 -96.0 187.25 -65.25 193.75 -23.5 201.0 -13.75 188.25 -15.0 184.5 -34.25 181.5 L-67.75 168.25 -90.5 146.75 -102.5 141.5 -104.5 141.5 -103.75 137.75 -97.5 124.25 Q-99.95 122.8 -102.2 121.2 -122.8 106.85 -132.25 80.75 -140.0 60.75 -134.75 20.25 L-160.75 34.75 Q-190.5 85.75 -200.5 86.25 -206.25 79.25 -191.75 27.5 -196.75 56.75 -183.5 56.25 L-180.25 53.0 -180.5 52.5 -177.25 52.75 -173.75 50.0 Q-172.15 47.8 -170.9 45.4 -171.1 46.4 -170.5 46.75 L-166.0 40.5 -165.75 39.5 -167.25 37.0 Q-169.9 37.7 -174.6 29.7 -173.35 31.2 -170.0 29.5 L-169.25 32.0 Q-163.75 28.0 -159.25 27.75 L-153.25 24.25 -148.25 22.25 -147.0 22.0 -147.75 22.25 -147.25 22.75 -114.25 2.5 Q-131.75 28.75 -128.0 34.25 L-126.0 43.75 -115.75 67.75 -100.25 90.0 -95.25 94.75 -82.5 102.5 Q-88.5 110.0 -64.5 130.25 L-33.75 148.25 -14.5 151.25 3.75 153.0 22.5 148.25 40.0 142.75 69.75 121.0 85.25 96.0 Q87.75 95.25 86.0 87.25 95.6 79.55 102.5 70.85 L103.45 68.9 107.35 60.95 Q108.5 57.6 108.5 56.4 110.35 40.6 110.35 37.3 110.35 33.25 109.4 27.9 L107.35 18.35 106.85 16.65 106.0 15.0 102.45 8.55 102.25 7.55 99.9 3.6 98.95 2.95 Q97.0 0.25 94.85 -1.25 L86.25 -8.0 95.8 -2.9" fill="#000000" fill-opacity="0.49803922" fill-rule="evenodd" stroke="none"/>
  </g>
</svg>
