<?xml version="1.0" encoding="UTF-8" standalone="no"?>
<svg xmlns:ffdec="https://www.free-decompiler.com/flash" xmlns:xlink="http://www.w3.org/1999/xlink" ffdec:objectType="shape" height="271.5px" width="452.35px" xmlns="http://www.w3.org/2000/svg">
  <g transform="matrix(1.0, 0.0, 0.0, 1.0, 208.6, 69.75)">
    <path d="M-27.75 -47.75 L-28.6 -48.35 Q-29.85 -49.5 -30.45 -50.8 L-31.4 -53.75 Q-32.4 -58.75 -32.25 -63.75 -32.2 -66.0 -29.95 -66.9 L-24.95 -68.5 Q-15.3 -70.55 -5.75 -69.25 L-6.0 -68.75 Q-3.65 -67.9 -1.25 -68.75 L1.0 -69.25 Q8.25 -69.65 15.4 -69.0 20.6 -68.4 25.5 -66.2 26.6 -65.65 27.5 -64.5 27.25 -60.65 26.2 -57.0 25.0 -53.0 23.0 -49.25 17.75 -39.75 -2.75 -46.5 -18.25 -39.0 -27.75 -47.75 M34.25 -1.5 Q39.1 9.35 43.5 20.45 46.25 27.35 48.5 34.5 L60.75 57.5 Q69.75 66.5 78.05 76.1 81.6 80.25 83.05 85.4 86.6 97.85 85.95 110.6 85.6 116.85 82.5 123.0 L82.0 123.75 65.0 143.5 36.5 158.5 8.25 165.0 -4.75 163.75 -11.7 163.4 Q-17.0 162.7 -22.05 161.3 -32.65 158.25 -42.8 154.0 -52.4 150.1 -60.55 144.1 -70.4 136.85 -79.0 128.0 L-81.5 124.25 -87.5 111.25 Q-84.75 105.0 -85.25 100.5 L-78.25 94.5 -76.5 90.75 -70.75 82.75 -58.75 59.25 -50.5 38.75 -46.0 22.25 -37.25 2.5 Q-33.45 11.6 -26.4 18.65 -19.9 25.15 -10.95 26.75 3.25 29.05 16.15 23.0 24.4 19.1 28.95 11.25 31.0 7.7 32.25 3.75 33.2 0.75 34.25 -1.5 M6.75 -56.0 L3.5 -53.75 Q3.0 -49.5 5.5 -47.5 L9.25 -46.75 Q19.75 -51.75 12.25 -56.75 L6.75 -56.0 M-18.0 -56.25 Q-26.0 -50.75 -14.25 -46.5 L-10.5 -48.0 Q-8.75 -49.75 -9.25 -53.5 -10.75 -55.75 -14.5 -56.5 L-18.0 -56.25" fill="#ffffff" fill-rule="evenodd" stroke="none"/>
    <path d="M6.75 -56.0 L12.25 -56.75 Q19.75 -51.75 9.25 -46.75 L5.5 -47.5 Q3.0 -49.5 3.5 -53.75 L6.75 -56.0 M-18.0 -56.25 L-14.5 -56.5 Q-10.75 -55.75 -9.25 -53.5 -8.75 -49.75 -10.5 -48.0 L-14.25 -46.5 Q-26.0 -50.75 -18.0 -56.25" fill="#000000" fill-rule="evenodd" stroke="none"/>
    <path d="M-27.75 -47.75 Q-18.25 -39.0 -2.75 -46.5 17.75 -39.75 23.0 -49.25 32.9 -44.35 36.2 -33.75 37.2 -30.6 37.05 -27.25 36.6 -16.5 35.05 -5.75 L34.25 -1.5 Q33.2 0.75 32.25 3.75 31.0 7.7 28.95 11.25 24.4 19.1 16.15 23.0 3.25 29.05 -10.95 26.75 -19.9 25.15 -26.4 18.65 -33.45 11.6 -37.25 2.5 L-40.25 -7.5 -42.25 -21.25 -42.0 -27.25 Q-44.75 -34.5 -27.75 -47.75 M82.5 123.0 L86.0 121.5 86.5 121.0 87.5 120.5 94.75 114.5 Q110.0 138.75 110.25 153.5 114.75 190.75 55.25 201.0 30.5 204.25 16.75 193.0 11.5 189.75 8.25 165.0 L36.5 158.5 65.0 143.5 82.0 123.75 82.5 123.0 M-4.75 163.75 Q-7.05 174.7 -9.7 185.6 -10.15 187.4 -10.9 189.2 -12.05 191.7 -14.0 193.25 -17.0 195.35 -20.35 196.4 -30.0 199.5 -40.1 200.2 -47.85 200.85 -55.65 199.8 L-62.3 199.05 Q-69.8 197.4 -76.9 194.95 -87.6 191.0 -95.85 183.35 -103.1 176.6 -105.8 167.2 -107.4 161.7 -107.35 156.0 -107.35 154.35 -106.9 152.85 -102.5 138.35 -97.2 124.2 -96.15 121.35 -94.5 118.75 L-88.55 122.8 -85.65 124.6 -79.0 128.0 Q-70.4 136.85 -60.55 144.1 -52.4 150.1 -42.8 154.0 -32.65 158.25 -22.05 161.3 -17.0 162.7 -11.7 163.4 L-4.75 163.75" fill="#e58508" fill-rule="evenodd" stroke="none"/>
    <path d="M32.5 13.9 L32.3 15.35 32.95 12.15 32.8 12.6 32.5 13.9 M119.6 39.85 L119.5 39.35 119.55 39.95 119.6 39.85 M185.45 66.15 Q186.15 64.8 188.1 65.5 186.4 70.7 185.35 72.4 184.1 74.35 182.3 76.0 L184.0 78.8 188.05 84.45 194.85 95.85 Q197.3 100.2 202.4 107.2 L210.35 118.35 217.45 129.7 223.8 140.1 Q226.75 144.1 233.0 151.55 L240.15 160.45 Q242.1 159.6 243.1 159.75 243.05 160.8 243.4 162.7 L243.75 165.15 Q243.75 167.6 241.8 167.6 240.2 167.6 238.0 165.2 236.3 163.4 235.9 162.5 233.15 160.25 228.15 153.9 L218.0 140.75 Q215.5 137.9 210.3 129.7 207.45 125.25 205.85 122.2 202.5 119.3 199.85 114.9 195.5 106.2 192.6 102.5 191.1 100.5 188.55 96.3 L184.85 90.5 180.85 84.5 Q179.95 82.95 178.4 81.7 L175.0 79.25 Q162.1 70.0 146.05 57.1 L128.75 43.0 127.8 63.4 Q124.75 80.5 113.55 95.35 L104.7 103.75 94.5 113.6 101.25 125.25 99.5 125.5 Q95.25 129.75 90.75 131.75 L90.75 136.0 73.0 160.0 43.0 177.25 25.5 181.5 19.0 184.25 16.0 188.25 Q22.0 201.0 71.0 193.25 97.0 188.25 110.0 164.25 L105.25 176.25 Q99.75 184.5 91.0 189.75 80.75 198.25 47.5 201.5 L33.25 200.75 Q21.75 198.5 18.0 194.75 9.75 186.5 8.5 164.75 L4.55 164.2 4.15 164.25 3.25 164.05 -5.0 164.0 -6.5 175.5 -8.25 182.75 -11.0 189.75 -14.25 194.25 Q-23.75 202.75 -51.25 201.0 -75.0 198.0 -87.75 189.75 -105.25 177.75 -106.75 163.5 -96.0 187.25 -65.25 193.75 -23.5 201.0 -13.75 188.25 -15.0 184.5 -34.25 181.5 L-67.75 168.25 -90.5 146.75 -102.5 141.5 -103.15 141.5 -101.55 136.95 -94.35 118.9 -94.8 118.7 -94.5 118.3 -102.5 113.1 -104.05 112.15 Q-120.45 97.3 -127.55 73.7 -134.2 53.35 -126.8 13.2 L-127.9 13.75 -126.4 8.0 -125.2 7.35 Q-132.3 10.05 -134.75 11.1 L-144.6 15.5 -151.35 18.55 -155.7 20.05 -156.7 21.65 -157.95 23.45 Q-160.45 29.0 -164.3 35.95 -173.25 52.1 -175.35 56.85 -177.5 61.65 -181.5 67.55 L-188.75 77.85 -195.75 88.35 -198.65 93.65 Q-201.2 97.0 -207.0 98.6 -208.2 98.4 -208.5 96.6 L-208.6 94.1 Q-208.6 93.2 -205.6 80.9 L-201.1 63.35 -198.7 55.45 -196.6 48.0 Q-196.2 46.0 -194.25 40.1 L-193.25 36.7 -192.3 35.45 -190.95 32.2 -191.0 34.75 Q-191.0 39.9 -190.25 44.9 -189.7 48.35 -188.9 50.55 -188.7 51.6 -188.15 52.4 L-187.05 53.45 Q-186.35 54.0 -185.5 54.0 L-185.1 54.0 -184.75 54.0 Q-180.9 54.0 -178.15 50.6 L-175.85 46.75 -172.8 42.65 -169.75 38.85 Q-167.7 36.3 -165.2 31.85 L-163.1 27.65 -159.75 23.35 -157.5 19.05 Q-159.55 18.05 -162.25 16.15 -165.65 13.7 -166.4 12.1 L-167.6 10.85 -166.55 10.9 -166.4 10.4 -166.25 10.5 Q-165.9 10.6 -165.25 11.2 L-162.1 12.4 Q-157.65 14.3 -154.15 14.35 -148.95 11.9 -136.5 7.85 L-135.45 7.5 -135.25 7.0 -129.0 5.35 Q-114.1 0.3 -108.0 -2.5 L-107.55 -2.2 -105.4 -3.4 Q-124.25 21.85 -120.85 27.55 L-119.35 37.15 -110.4 61.65 -96.1 84.7 -91.4 89.7 -79.05 98.1 Q-85.45 105.25 -62.6 126.8 L-32.85 146.4 -13.8 150.4 4.35 153.15 23.3 149.4 41.1 144.85 71.95 124.75 88.75 100.6 Q91.3 100.0 89.95 91.9 100.0 84.7 107.3 76.45 L108.35 74.55 112.7 66.8 Q114.0 63.5 114.1 62.3 L116.3 48.85 Q115.65 42.25 113.35 36.4 110.95 30.35 105.85 22.7 102.0 19.8 102.0 19.15 102.0 18.45 102.15 18.4 L102.2 18.45 102.25 18.6 103.1 19.2 112.5 26.6 Q116.2 29.9 128.95 37.65 L128.95 37.75 140.85 46.1 159.45 60.45 Q169.85 68.45 178.3 72.25 181.55 71.0 184.85 68.25 L185.45 66.15 M36.15 -8.2 L35.6 -6.9 35.4 -6.05 35.75 -6.05 35.65 -4.85 35.7 -4.85 36.15 -8.2 M36.3 -13.75 L36.65 -13.4 36.8 -18.05 37.25 -18.05 Q37.45 -15.0 37.25 -11.4 L37.25 -10.8 Q37.25 -8.0 36.1 -2.0 L35.6 0.6 34.25 6.8 Q33.05 15.05 31.25 22.8 26.85 49.9 17.5 67.25 L11.5 75.9 3.65 81.75 Q-0.85 81.5 -8.6 86.1 L-16.35 86.7 Q-26.25 89.2 -39.3 56.95 L-42.65 40.75 -43.2 33.95 -43.0 31.9 Q-43.0 27.7 -43.75 17.15 -44.5 6.6 -44.5 1.75 -44.0 -9.8 -44.0 -15.5 L-44.0 -15.55 -43.75 -14.45 -43.1 -24.75 -42.6 -24.75 -42.45 -18.7 Q-40.4 -6.65 -38.15 0.6 L-38.0 1.05 Q-37.15 2.25 -36.2 4.2 L-33.7 9.8 -30.75 13.25 Q-27.55 16.75 -25.3 19.7 -17.25 25.75 -6.15 26.95 L-2.3 26.8 0.25 27.0 4.35 26.85 5.9 26.45 Q12.15 25.0 15.25 22.85 17.0 22.1 21.7 18.95 L24.3 17.35 Q28.3 13.0 31.05 6.75 34.7 -1.5 35.65 -10.7 L36.3 -13.75" fill="#000000" fill-opacity="0.49803922" fill-rule="evenodd" stroke="none"/>
  </g>
</svg>
