<?xml version="1.0" encoding="UTF-8" standalone="no"?>
<svg xmlns:ffdec="https://www.free-decompiler.com/flash" xmlns:xlink="http://www.w3.org/1999/xlink" ffdec:objectType="shape" height="272.05px" width="218.1px" xmlns="http://www.w3.org/2000/svg">
  <g transform="matrix(1.0, 0.0, 0.0, 1.0, 107.55, 70.3)">
    <path d="M-12.5 -49.5 Q-14.4 -57.65 -15.4 -65.85 -15.5 -66.65 -14.55 -67.2 -12.65 -68.5 -10.4 -69.1 0.0 -71.55 10.2 -69.05 L14.25 -67.75 16.75 -68.25 Q26.5 -69.6 36.25 -67.25 41.0 -66.2 43.75 -62.5 44.05 -60.1 43.75 -57.7 43.6 -56.5 43.1 -55.45 L38.5 -46.75 Q34.75 -37.75 12.75 -46.0 -1.75 -39.5 -12.5 -49.5 M45.5 2.5 Q49.5 14.25 53.0 26.15 54.5 31.25 55.5 36.5 L67.0 63.75 Q74.75 72.85 81.05 82.9 86.5 91.6 86.4 101.25 86.25 115.0 82.2 128.85 L82.0 129.5 62.75 148.75 33.5 161.25 8.25 165.0 2.25 165.5 -5.0 164.0 -38.5 155.25 -62.75 141.25 -67.85 135.4 -78.75 122.0 Q-82.65 113.1 -86.65 104.35 -87.15 103.2 -86.45 102.05 -85.2 100.05 -83.75 98.5 L-83.25 93.75 Q-78.65 89.6 -74.95 84.8 -64.5 71.35 -54.8 57.4 -54.0 56.25 -53.0 55.25 L-41.5 32.25 -28.05 3.75 -26.0 -0.5 -22.75 7.35 Q-18.9 16.55 -10.4 21.95 -2.65 26.8 6.5 27.5 17.7 28.7 27.75 23.75 38.4 18.45 43.0 7.5 L44.3 4.55 45.5 2.5 M22.25 -54.5 L19.5 -52.25 Q18.5 -49.0 21.25 -46.25 L26.0 -45.5 Q35.75 -50.25 27.5 -55.25 L22.25 -54.5 M-4.25 -55.5 Q-5.75 -51.25 -4.5 -50.5 L-1.75 -47.75 1.75 -47.0 Q13.75 -55.25 -1.25 -57.0 L-4.25 -55.5" fill="#ffffff" fill-rule="evenodd" stroke="none"/>
    <path d="M22.25 -54.5 L27.5 -55.25 Q35.75 -50.25 26.0 -45.5 L21.25 -46.25 Q18.5 -49.0 19.5 -52.25 L22.25 -54.5 M-4.25 -55.5 L-1.25 -57.0 Q13.75 -55.25 1.75 -47.0 L-1.75 -47.75 -4.5 -50.5 Q-5.75 -51.25 -4.25 -55.5" fill="#000000" fill-rule="evenodd" stroke="none"/>
    <path d="M-12.5 -49.5 Q-1.75 -39.5 12.75 -46.0 34.75 -37.75 38.5 -46.75 45.45 -41.55 49.4 -34.1 51.7 -29.8 51.05 -25.0 49.75 -15.4 47.85 -5.9 47.0 -1.65 45.5 2.5 L44.3 4.55 43.0 7.5 Q38.4 18.45 27.75 23.75 17.7 28.7 6.5 27.5 -2.65 26.8 -10.4 21.95 -18.9 16.55 -22.75 7.35 L-26.0 -0.5 Q-30.0 -15.0 -28.05 -29.95 -27.75 -32.35 -26.85 -34.6 -24.2 -41.4 -18.35 -45.9 -15.55 -48.0 -12.5 -49.5 M82.2 128.85 L82.45 128.5 Q84.5 127.65 86.4 126.45 L95.3 121.0 97.75 119.4 98.0 119.8 98.0 119.75 102.5 128.0 102.5 128.05 Q110.05 143.1 110.25 153.5 114.1 185.25 71.4 197.4 L71.25 197.75 Q61.05 200.9 50.55 201.55 L46.05 201.75 40.55 201.6 39.45 201.55 38.3 201.45 32.2 200.45 26.4 198.6 23.8 197.45 Q19.95 195.65 16.75 193.0 14.75 191.75 13.1 187.5 11.6 184.25 10.85 180.65 L10.15 176.95 9.5 173.2 8.25 165.05 8.25 165.0 33.5 161.25 62.75 148.75 82.0 129.5 82.2 128.85 M-5.0 164.0 L-8.5 183.5 Q-12.25 192.5 -14.0 193.25 L-14.75 194.5 -20.0 197.5 -30.75 200.75 -40.0 201.5 -52.25 200.75 Q-108.75 192.75 -107.5 153.5 L-107.25 152.75 -104.75 140.5 -98.5 125.75 -91.5 113.75 -84.75 119.0 -84.0 119.25 -83.25 120.0 -79.75 121.75 -78.75 122.0 -67.85 135.4 -62.75 141.25 -38.5 155.25 -5.0 164.0" fill="#e58508" fill-rule="evenodd" stroke="none"/>
  </g>
</svg>
