<?xml version="1.0" encoding="UTF-8" standalone="no"?>
<svg xmlns:ffdec="https://www.free-decompiler.com/flash" xmlns:xlink="http://www.w3.org/1999/xlink" ffdec:objectType="shape" height="228.5px" width="445.75px" xmlns="http://www.w3.org/2000/svg">
  <g transform="matrix(1.0, 0.0, 0.0, 1.0, 205.35, 27.0)">
    <path d="M-123.5 32.95 L-123.4 32.7 -123.15 31.1 -123.5 32.95 M-124.6 46.2 L-124.75 46.25 -124.75 46.3 -124.6 54.65 -124.45 55.7 Q-124.75 51.25 -124.6 46.2 M-119.1 10.25 L-119.25 11.2 -119.05 10.35 -119.1 10.25 M-116.2 -0.4 L-116.15 -0.3 -115.7 -0.55 -116.2 -0.4 M43.4 15.9 L43.0 17.15 42.7 18.6 43.6 15.45 43.4 15.9 M125.95 50.0 Q125.85 49.8 125.9 49.6 L125.9 50.1 125.95 50.0 M181.45 96.1 L178.2 93.4 Q166.05 83.2 151.0 69.2 L135.05 54.05 134.65 53.5 134.25 52.95 Q132.25 71.95 125.3 87.85 121.1 97.5 115.35 105.25 110.4 109.2 97.95 119.55 L101.25 125.25 99.5 125.5 Q95.25 129.75 90.75 131.75 L90.75 136.0 73.0 160.0 43.0 177.25 25.5 181.5 19.0 184.25 16.0 188.25 Q22.0 201.0 71.0 193.25 97.0 188.25 110.0 164.25 L105.25 176.25 Q99.75 184.5 91.0 189.75 80.75 198.25 47.5 201.5 L33.25 200.75 Q21.75 198.5 18.0 194.75 10.2 186.95 8.7 167.2 L8.4 167.15 8.1 164.7 7.7 164.65 6.8 164.7 1.5 165.0 -3.1 164.9 -4.4 164.8 -5.1 164.75 -6.5 175.5 -8.25 182.75 -11.0 189.75 -14.25 194.25 Q-23.75 202.75 -51.25 201.0 -75.0 198.0 -87.75 189.75 -105.25 177.75 -106.75 163.5 -96.0 187.25 -65.25 193.75 -23.5 201.0 -13.75 188.25 -15.0 184.5 -34.25 181.5 L-67.75 168.25 -90.5 146.75 -102.5 141.5 -103.15 141.5 -103.05 141.2 -104.75 140.55 Q-103.05 133.95 -99.65 127.45 L-94.75 118.7 -94.8 118.7 -94.65 118.5 -94.5 118.3 -93.8 117.0 -92.45 114.5 -92.05 113.8 -93.25 113.05 -93.2 112.95 -93.65 112.7 -93.3 112.35 -102.4 105.5 Q-111.45 95.95 -117.0 83.6 -118.45 81.6 -120.0 78.3 -122.35 73.15 -122.35 71.25 -125.35 61.85 -125.35 60.15 L-126.25 46.1 Q-126.25 39.65 -125.65 35.45 L-123.25 22.1 -122.1 15.8 -120.75 10.1 -119.3 3.85 Q-118.75 1.4 -117.75 0.05 L-125.5 2.45 -135.65 6.15 -142.65 8.7 -147.1 9.85 -148.2 11.4 -149.6 13.1 Q-152.45 18.4 -156.8 25.05 -166.95 40.5 -169.35 45.1 -171.85 49.7 -176.3 55.3 L-184.3 65.0 -192.05 75.0 -195.35 80.0 Q-198.15 83.2 -204.05 84.35 -205.2 84.05 -205.35 82.25 L-205.3 79.75 Q-205.2 78.85 -201.35 66.8 L-195.55 49.65 -192.55 41.95 Q-190.65 37.15 -189.9 34.65 L-186.95 27.0 -185.7 23.65 -184.7 22.5 -183.15 19.35 -183.4 21.9 Q-183.75 27.05 -183.4 32.05 -183.1 35.55 -182.45 37.8 -182.35 38.85 -181.85 39.7 L-180.8 40.85 Q-180.15 41.45 -179.3 41.5 L-178.9 41.5 -178.55 41.55 Q-174.7 41.85 -171.7 38.65 L-169.1 34.95 -165.8 31.1 -162.5 27.55 Q-160.25 25.15 -157.4 20.9 L-155.0 16.85 -151.35 12.85 -148.8 8.7 Q-150.75 7.55 -153.3 5.45 -156.5 2.75 -157.15 1.1 L-158.25 -0.25 -157.2 -0.1 -157.0 -0.6 -156.9 -0.5 -155.95 0.3 Q-154.65 0.8 -152.85 1.75 -148.6 3.95 -145.1 4.25 -139.75 2.2 -127.05 -0.85 L-125.95 -1.15 -125.7 -1.65 -119.35 -2.8 Q-104.1 -6.75 -97.85 -9.1 L-97.45 -8.8 -95.2 -9.8 Q-115.85 14.0 -112.9 19.9 L-112.1 29.6 -104.95 54.65 -92.45 78.7 -88.15 84.05 -76.4 93.35 Q-83.35 100.0 -62.15 123.15 L-33.95 144.9 -15.25 150.35 2.65 154.4 21.8 152.1 39.9 148.85 70.85 131.9 73.5 129.5 90.7 108.3 Q93.3 107.85 92.55 99.65 103.05 93.25 111.0 85.55 L112.1 83.8 117.05 76.35 Q118.6 73.15 118.8 71.95 L122.0 58.7 Q121.8 52.1 119.95 46.1 118.0 39.9 113.5 31.9 109.9 28.7 109.95 28.05 110.0 27.35 110.15 27.35 L110.2 27.4 110.2 27.55 Q110.6 27.8 111.05 28.2 L119.85 36.25 125.85 41.4 134.65 47.95 135.4 48.5 135.4 48.6 146.7 57.8 164.1 73.45 Q172.8 81.25 180.2 85.6 L183.55 85.1 184.5 85.1 184.75 84.85 186.3 84.8 187.9 87.45 186.35 89.0 184.8 89.05 187.25 93.6 190.9 99.55 Q193.35 103.95 196.8 111.4 198.9 115.95 203.5 123.3 L210.55 135.0 216.85 146.85 222.4 157.7 Q225.0 161.85 230.7 169.8 235.8 176.8 237.2 179.15 239.15 178.45 240.15 178.7 240.05 179.7 240.25 181.65 L240.4 184.15 Q240.2 186.6 238.25 186.45 236.7 186.3 234.7 183.75 233.15 181.8 232.8 180.9 230.2 178.45 225.7 171.75 L216.55 157.9 Q214.25 154.9 209.7 146.3 207.2 141.65 205.85 138.5 202.7 135.35 200.4 130.75 196.65 121.8 194.05 117.9 L190.5 111.4 187.25 105.35 183.7 99.05 Q182.9 97.45 181.45 96.1 M48.3 -4.6 L47.65 -3.35 47.4 -2.5 47.75 -2.5 47.55 -1.3 47.6 -1.3 48.3 -4.6 M49.7 -14.35 L50.15 -14.35 Q50.1 -11.25 49.65 -7.7 L49.6 -7.1 Q49.4 -4.35 47.8 1.6 L47.1 4.15 45.3 10.25 Q43.5 18.35 41.1 25.95 34.7 52.65 24.1 69.25 L17.45 77.4 9.25 82.65 Q4.75 82.1 -3.3 86.1 L-11.1 86.15 Q-21.1 87.9 -31.75 54.8 L-33.85 38.4 -33.9 31.55 -33.55 29.5 Q-33.25 25.3 -33.2 14.75 -33.2 4.2 -32.85 -0.65 -31.45 -12.1 -31.05 -17.8 L-30.9 -16.75 -29.45 -27.0 -28.95 -26.95 -29.25 -20.9 Q-28.15 -8.75 -26.45 -1.35 L-26.35 -0.85 Q-25.55 0.4 -24.75 2.4 L-22.7 8.15 -20.0 11.8 Q-17.05 15.55 -15.0 18.65 -7.45 25.25 3.5 27.3 L7.35 27.45 9.9 27.8 14.0 27.95 15.6 27.7 Q21.9 26.7 25.15 24.85 26.95 24.2 31.9 21.4 L34.6 20.0 Q38.9 15.95 42.1 9.95 46.35 1.95 48.0 -7.1 L48.85 -10.1 49.2 -9.75 49.7 -14.35 M-108.85 157.65 L-108.9 156.5 -108.1 158.5 -108.25 158.35 -108.85 157.65" fill="#000000" fill-opacity="0.49803922" fill-rule="evenodd" stroke="none"/>
  </g>
</svg>
