<?xml version="1.0" encoding="UTF-8" standalone="no"?>
<svg xmlns:ffdec="https://www.free-decompiler.com/flash" xmlns:xlink="http://www.w3.org/1999/xlink" ffdec:objectType="shape" height="223.5px" width="428.65px" xmlns="http://www.w3.org/2000/svg">
  <g transform="matrix(1.0, 0.0, 0.0, 1.0, 208.6, 22.0)">
    <path d="M171.6 59.5 L171.6 59.55 171.6 59.5 M173.35 55.8 L173.55 55.25 173.15 55.8 173.35 55.8 M-37.75 24.25 L-39.5 11.25 -40.25 -21.5 Q-36.0 26.5 2.0 27.0 34.5 25.5 40.0 -22.0 39.0 85.5 2.0 85.0 -20.0 89.0 -29.25 60.75 L-32.75 50.25 -37.75 24.25 M-108.0 -2.5 L-107.55 -2.2 -105.4 -3.4 Q-124.25 21.85 -120.85 27.55 L-119.35 37.15 -110.4 61.65 -96.1 84.7 -91.4 89.7 -79.05 98.1 Q-85.45 105.25 -62.6 126.8 L-32.85 146.4 -13.8 150.4 4.35 153.15 23.3 149.4 41.1 144.85 71.95 124.75 88.75 100.6 Q91.3 100.0 89.95 91.9 100.0 84.7 107.3 76.45 L108.35 74.55 112.7 66.8 Q114.0 63.5 114.1 62.3 L115.05 56.65 115.55 52.15 115.95 46.6 117.0 37.25 Q117.0 32.55 115.9 29.0 114.85 25.7 111.55 19.6 L109.45 15.0 107.85 11.8 107.5 10.85 107.5 10.5 107.25 10.1 107.55 10.3 107.65 10.0 107.75 10.1 108.55 10.95 117.7 17.3 125.45 22.75 125.6 22.65 Q127.9 23.85 130.4 25.4 135.85 28.7 139.75 31.85 L156.15 45.35 Q165.3 52.95 170.4 56.65 L170.5 56.5 171.5 55.9 Q174.45 53.35 175.3 49.25 L175.7 49.25 175.75 49.1 176.5 49.25 175.15 56.6 Q174.25 59.05 172.05 61.0 173.8 65.85 179.55 75.3 185.55 85.05 189.3 90.0 L196.2 98.6 202.8 106.5 Q205.55 109.9 213.3 116.4 L216.5 119.25 217.65 117.8 Q219.2 115.8 220.05 119.0 L220.05 126.1 219.45 126.5 218.5 126.6 Q218.05 126.6 214.9 123.6 L211.3 119.85 211.65 119.6 Q201.3 112.8 186.85 95.35 168.8 73.6 168.8 63.5 L168.8 63.35 168.7 63.25 168.5 63.35 168.25 63.1 168.45 63.0 165.35 59.85 164.25 59.85 163.75 59.5 164.75 59.25 Q155.1 49.75 141.05 38.25 134.3 32.75 124.55 27.3 125.4 30.0 126.25 35.85 127.55 44.85 127.55 50.55 127.55 55.9 126.65 60.25 L127.05 60.55 124.5 71.85 Q123.45 76.4 118.7 87.7 L113.55 95.35 104.7 103.75 94.5 113.6 101.25 125.25 99.5 125.5 Q95.25 129.75 90.75 131.75 L90.75 136.0 73.0 160.0 43.0 177.25 25.5 181.5 19.0 184.25 16.0 188.25 Q22.0 201.0 71.0 193.25 97.0 188.25 110.0 164.25 L105.25 176.25 Q99.75 184.5 91.0 189.75 80.75 198.25 47.5 201.5 L33.25 200.75 Q21.75 198.5 18.0 194.75 9.75 186.5 8.5 164.75 L4.55 164.2 4.15 164.25 3.25 164.05 -5.0 164.0 -6.5 175.5 -8.25 182.75 -11.0 189.75 -14.25 194.25 Q-23.75 202.75 -51.25 201.0 -75.0 198.0 -87.75 189.75 -105.25 177.75 -106.75 163.5 -96.0 187.25 -65.25 193.75 -23.5 201.0 -13.75 188.25 -15.0 184.5 -34.25 181.5 L-67.75 168.25 -90.5 146.75 -102.5 141.5 -103.15 141.5 -101.55 136.95 -94.35 118.9 -94.8 118.7 -94.5 118.3 -102.5 113.1 -104.05 112.15 Q-120.45 97.3 -127.55 73.7 -134.2 53.35 -126.8 13.2 L-127.9 13.75 -126.4 8.0 -125.2 7.35 Q-132.3 10.05 -134.75 11.1 L-144.6 15.5 -151.35 18.55 -155.7 20.05 -156.7 21.65 -157.95 23.45 Q-160.45 29.0 -164.3 35.95 -173.25 52.1 -175.35 56.85 -177.5 61.65 -181.5 67.55 L-188.75 77.85 -195.75 88.35 -198.65 93.65 Q-201.2 97.0 -207.0 98.6 -208.2 98.4 -208.5 96.6 L-208.6 94.1 Q-208.6 93.2 -205.6 80.9 L-201.1 63.35 -198.7 55.45 -196.6 48.0 Q-196.2 46.0 -194.25 40.1 L-193.25 36.7 -192.3 35.45 -190.95 32.2 -191.0 34.75 Q-191.0 39.9 -190.25 44.9 -189.7 48.35 -188.9 50.55 -188.7 51.6 -188.15 52.4 L-187.05 53.45 Q-186.35 54.0 -185.5 54.0 L-185.1 54.0 -184.75 54.0 Q-180.9 54.0 -178.15 50.6 L-175.85 46.75 -172.8 42.65 -169.75 38.85 Q-167.7 36.3 -165.2 31.85 L-163.1 27.65 -159.75 23.35 -157.5 19.05 Q-159.55 18.05 -162.25 16.15 -165.65 13.7 -166.4 12.1 L-167.6 10.85 -166.55 10.9 -166.4 10.4 -166.25 10.5 Q-165.9 10.6 -165.25 11.2 L-162.1 12.4 Q-157.65 14.3 -154.15 14.35 -148.95 11.9 -136.5 7.85 L-135.45 7.5 -135.25 7.0 -129.0 5.35 Q-114.1 0.3 -108.0 -2.5" fill="#000000" fill-opacity="0.49803922" fill-rule="evenodd" stroke="none"/>
  </g>
</svg>
