<?xml version="1.0" encoding="UTF-8" standalone="no"?>
<svg xmlns:ffdec="https://www.free-decompiler.com/flash" xmlns:xlink="http://www.w3.org/1999/xlink" ffdec:objectType="shape" height="223.5px" width="408.6px" xmlns="http://www.w3.org/2000/svg">
  <g transform="matrix(1.0, 0.0, 0.0, 1.0, 208.6, 22.0)">
    <path d="M197.9 95.4 L198.1 95.35 198.1 95.0 197.9 95.4 M190.75 96.8 L191.0 96.75 189.95 96.0 190.3 96.4 190.75 96.8 M-37.75 24.25 L-39.5 11.25 -40.25 -21.5 Q-36.0 26.5 2.0 27.0 34.5 25.5 40.0 -22.0 39.0 85.5 2.0 85.0 -20.0 89.0 -29.25 60.75 L-32.75 50.25 -37.75 24.25 M-108.0 -2.5 L-107.55 -2.2 -105.4 -3.4 Q-124.25 21.85 -120.85 27.55 L-119.35 37.15 -110.4 61.65 -96.1 84.7 -91.4 89.7 -79.05 98.1 Q-85.45 105.25 -62.6 126.8 L-32.85 146.4 -13.8 150.4 4.35 153.15 23.3 149.4 41.1 144.85 71.95 124.75 88.75 100.6 Q91.3 100.0 89.95 91.9 100.0 84.7 107.3 76.45 L108.35 74.55 112.7 66.8 Q114.0 63.5 114.1 62.3 L115.05 56.65 115.55 52.15 115.75 49.45 116.35 45.35 116.5 39.15 Q116.5 33.4 114.8 28.0 L114.9 28.0 114.3 26.05 Q110.9 15.55 104.45 5.85 L102.5 4.0 103.65 4.25 103.75 4.1 104.35 4.55 Q106.45 5.5 109.3 8.05 L115.75 13.85 124.6 19.3 Q130.5 22.8 132.8 24.85 144.35 30.85 147.85 33.1 L149.05 32.1 Q154.1 27.4 153.75 23.1 L154.3 23.1 Q154.55 27.3 153.2 31.15 152.25 33.85 150.7 36.05 152.05 37.4 153.8 40.05 L160.25 49.35 Q162.5 52.1 165.9 57.6 169.65 63.75 171.25 65.85 L182.9 82.45 Q188.45 89.9 195.55 95.8 197.45 95.15 197.85 94.35 197.6 92.55 197.8 91.75 L198.15 91.75 198.25 91.0 199.0 91.0 199.6 94.85 200.0 97.9 Q200.0 99.0 199.3 100.65 198.6 102.35 197.8 103.0 L195.25 103.0 Q192.1 101.2 189.85 98.45 L189.65 98.2 189.5 98.1 189.3 97.7 189.25 97.6 187.75 95.55 Q184.85 92.9 180.9 88.5 172.15 78.65 166.5 69.25 164.65 66.15 155.15 53.35 147.85 43.4 145.45 37.65 L144.55 37.3 143.3 38.1 143.05 37.75 143.65 36.95 Q139.15 35.1 135.25 33.1 130.5 30.65 127.55 28.4 L125.6 27.2 126.1 27.1 124.3 25.75 124.5 27.15 124.45 28.8 125.25 32.6 Q126.55 38.2 126.8 41.35 L127.0 41.45 127.35 45.2 127.55 50.55 127.4 54.85 126.65 60.25 127.05 60.55 124.5 71.85 Q123.45 76.4 118.7 87.7 L113.55 95.35 104.7 103.75 94.5 113.6 101.25 125.25 99.5 125.5 Q95.25 129.75 90.75 131.75 L90.75 136.0 73.0 160.0 43.0 177.25 25.5 181.5 19.0 184.25 16.0 188.25 Q22.0 201.0 71.0 193.25 97.0 188.25 110.0 164.25 L105.25 176.25 Q99.75 184.5 91.0 189.75 80.75 198.25 47.5 201.5 L33.25 200.75 Q21.75 198.5 18.0 194.75 9.75 186.5 8.5 164.75 L4.55 164.2 4.15 164.25 3.25 164.05 -5.0 164.0 -6.5 175.5 -8.25 182.75 -11.0 189.75 -14.25 194.25 Q-23.75 202.75 -51.25 201.0 -75.0 198.0 -87.75 189.75 -105.25 177.75 -106.75 163.5 -96.0 187.25 -65.25 193.75 -23.5 201.0 -13.75 188.25 -15.0 184.5 -34.25 181.5 L-67.75 168.25 -90.5 146.75 -102.5 141.5 -103.15 141.5 -101.55 136.95 -94.35 118.9 -94.8 118.7 -94.5 118.3 -102.5 113.1 -104.05 112.15 Q-120.45 97.3 -127.55 73.7 -134.2 53.35 -126.8 13.2 L-127.9 13.75 -126.4 8.0 -125.2 7.35 Q-132.3 10.05 -134.75 11.1 L-144.6 15.5 -151.35 18.55 -155.7 20.05 -156.7 21.65 -157.95 23.45 Q-160.45 29.0 -164.3 35.95 -173.25 52.1 -175.35 56.85 -177.5 61.65 -181.5 67.55 L-188.75 77.85 -195.75 88.35 -198.65 93.65 Q-201.2 97.0 -207.0 98.6 -208.2 98.4 -208.5 96.6 L-208.6 94.1 Q-208.6 93.2 -205.6 80.9 L-201.1 63.35 -198.7 55.45 -196.6 48.0 Q-196.2 46.0 -194.25 40.1 L-193.25 36.7 -192.3 35.45 -190.95 32.2 -191.0 34.75 Q-191.0 39.9 -190.25 44.9 -189.7 48.35 -188.9 50.55 -188.7 51.6 -188.15 52.4 L-187.05 53.45 Q-186.35 54.0 -185.5 54.0 L-185.1 54.0 -184.75 54.0 Q-180.9 54.0 -178.15 50.6 L-175.85 46.75 -172.8 42.65 -169.75 38.85 Q-167.7 36.3 -165.2 31.85 L-163.1 27.65 -159.75 23.35 -157.5 19.05 Q-159.55 18.05 -162.25 16.15 -165.65 13.7 -166.4 12.1 L-167.6 10.85 -166.55 10.9 -166.4 10.4 -166.25 10.5 Q-165.9 10.6 -165.25 11.2 L-162.1 12.4 Q-157.65 14.3 -154.15 14.35 -148.95 11.9 -136.5 7.85 L-135.45 7.5 -135.25 7.0 -129.0 5.35 Q-114.1 0.3 -108.0 -2.5" fill="#000000" fill-opacity="0.49803922" fill-rule="evenodd" stroke="none"/>
  </g>
</svg>
