<?xml version="1.0" encoding="UTF-8" standalone="no"?>
<svg xmlns:ffdec="https://www.free-decompiler.com/flash" xmlns:xlink="http://www.w3.org/1999/xlink" ffdec:objectType="shape" height="311.15px" width="261.45px" xmlns="http://www.w3.org/2000/svg">
  <g transform="matrix(1.0, 0.0, 0.0, 1.0, 0.0, 0.0)">
    <path d="M216.7 77.75 L216.7 77.8 Q239.7 115.9 257.2 168.55 L258.0 171.25 Q270.1 213.85 239.6 247.6 227.5 261.05 212.7 271.55 190.75 296.75 159.05 306.6 124.65 317.25 90.55 303.0 68.1 293.6 52.2 274.55 8.55 253.7 1.2 206.4 -1.65 188.0 2.2 169.8 19.8 114.85 47.0 72.45 L49.5 69.1 Q74.7 30.2 113.0 5.45 129.45 -5.25 146.5 5.15 190.55 32.1 216.5 77.4 L216.7 77.75" fill="#2e47aa" fill-rule="evenodd" stroke="none"/>
  </g>
</svg>
