<?xml version="1.0" encoding="UTF-8" standalone="no"?>
<svg xmlns:ffdec="https://www.free-decompiler.com/flash" xmlns:xlink="http://www.w3.org/1999/xlink" ffdec:objectType="shape" height="382.5px" width="221.0px" xmlns="http://www.w3.org/2000/svg">
  <g transform="matrix(1.0, 0.0, 0.0, 1.0, 112.7, 111.25)">
    <path d="M-60.5 -107.25 Q-63.5 -103.25 -63.5 -99.25 L-65.25 -97.5 -66.25 -98.75 -66.25 -101.0 Q-65.75 -107.5 -60.5 -107.25 M-67.25 -89.5 Q-66.75 -78.75 -70.0 -78.25 -72.75 -81.5 -71.75 -84.0 L-69.5 -88.25 -67.25 -89.5" fill="#000000" fill-rule="evenodd" stroke="none"/>
    <path d="M-65.25 -97.5 L-63.5 -99.25 Q-63.5 -103.25 -60.5 -107.25 L-55.25 -111.25 Q-62.2 -86.7 -54.25 -62.75 L-57.75 -59.5 -58.5 -60.0 Q-65.75 -61.5 -70.0 -78.25 -66.75 -78.75 -67.25 -89.5 L-66.8 -90.05 Q-64.65 -93.1 -65.25 -97.5" fill="#ffffff" fill-rule="evenodd" stroke="none"/>
    <path d="M-66.25 -101.0 L-66.25 -98.75 -65.25 -97.5 Q-64.65 -93.1 -66.8 -90.05 L-67.25 -89.5 -69.5 -88.25 -71.75 -84.0 Q-72.75 -81.5 -70.0 -78.25 -65.75 -61.5 -58.5 -60.0 -61.0 -43.85 -66.75 -28.5 L-69.25 -29.0 -83.25 -33.25 Q-115.5 -39.15 -111.15 -67.9 -105.8 -103.15 -66.25 -101.0 M-101.7 185.9 Q-105.9 173.35 -105.15 159.95 -103.9 137.45 -82.0 131.75 L-76.5 138.0 -74.75 138.25 Q-67.6 156.05 -55.75 170.75 -58.0 178.55 -56.7 186.35 -53.25 207.1 -49.25 228.0 -88.25 226.35 -101.7 185.9" fill="#e58508" fill-rule="evenodd" stroke="none"/>
    <path d="M-81.75 -12.25 L-81.5 -11.5 -82.75 -9.0 -84.0 -8.25 -83.5 -7.75 Q-92.4 11.7 -96.8 32.35 -97.95 33.3 -98.25 34.75 L-99.0 38.5 -100.25 39.75 Q-101.9 47.0 -102.5 54.75 L-103.25 55.75 Q-107.4 92.55 -80.5 117.0 -84.85 74.0 -81.5 31.0 -80.55 82.75 -57.75 128.5 -61.75 107.9 -55.75 93.25 -59.05 129.8 -48.25 163.55 L-49.35 162.6 Q-50.9 161.25 -52.9 160.5 -53.75 160.15 -54.5 160.75 -52.8 213.9 -35.75 265.5 -13.75 236.0 1.2 199.3 10.6 176.15 -6.0 165.75 4.7 126.35 10.9 86.15 L4.75 176.0 Q46.0 173.45 74.8 139.65 123.65 82.3 98.25 7.5 113.5 47.3 105.6 89.2 88.65 178.65 0.75 202.25 -8.5 241.75 -35.0 271.25 -48.55 252.95 -48.75 228.25 -51.75 229.35 -54.5 228.65 -94.85 217.2 -102.75 174.5 -100.5 182.6 -97.4 190.45 -85.75 219.45 -58.0 220.75 -59.6 212.0 -61.95 203.65 -71.9 168.65 -99.75 142.0 -92.1 134.6 -81.75 131.75 -114.75 99.15 -104.25 53.25 -94.95 10.45 -83.0 -33.0 -104.85 -36.75 -112.7 -56.3 -96.8 -32.2 -65.25 -30.25 -69.55 -17.55 -81.75 -12.25" fill="#000000" fill-opacity="0.49803922" fill-rule="evenodd" stroke="none"/>
  </g>
</svg>
