<?xml version="1.0" encoding="UTF-8" standalone="no"?>
<svg xmlns:ffdec="https://www.free-decompiler.com/flash" xmlns:xlink="http://www.w3.org/1999/xlink" ffdec:objectType="shape" height="256.05px" width="271.95px" xmlns="http://www.w3.org/2000/svg">
  <g transform="matrix(1.0, 0.0, 0.0, 1.0, 0.0, 0.0)">
    <path d="M170.7 7.15 Q187.3 14.15 202.05 24.6 232.95 36.95 252.6 63.45 273.9 92.3 271.75 129.05 270.3 153.25 257.6 174.45 252.4 222.3 210.35 244.75 194.0 253.5 175.65 255.9 118.2 257.4 69.4 245.8 67.5 245.0 65.45 244.55 L58.6 242.75 Q35.1 236.7 16.1 218.65 -2.85 200.5 0.5 164.05 3.8 127.6 6.45 113.2 9.2 98.3 14.75 89.1 L18.35 84.85 18.55 84.55 18.6 84.5 Q46.85 50.4 90.6 16.65 L92.9 15.0 Q128.95 -10.4 170.7 7.15" fill="#2e47aa" fill-rule="evenodd" stroke="none"/>
  </g>
</svg>
