<?xml version="1.0" encoding="UTF-8" standalone="no"?>
<svg xmlns:ffdec="https://www.free-decompiler.com/flash" xmlns:xlink="http://www.w3.org/1999/xlink" ffdec:objectType="shape" height="88.35px" width="218.25px" xmlns="http://www.w3.org/2000/svg">
  <g transform="matrix(1.0, 0.0, 0.0, 1.0, 106.55, -113.75)">
    <path d="M-93.95 115.7 Q-91.65 118.4 -84.6 122.4 -77.6 126.35 -78.1 125.8 L-70.75 133.35 Q-62.95 141.45 -56.5 145.5 -48.5 150.5 -30.3 156.05 -15.25 160.7 -3.85 162.0 -5.35 180.45 -10.6 189.75 -14.55 196.8 -24.0 199.3 -33.5 201.75 -44.6 202.1 -55.6 202.4 -74.0 197.45 -88.6 190.9 -96.75 184.8 -104.9 178.65 -106.2 165.7 -107.55 152.75 -104.0 142.25 -101.2 133.85 -98.9 128.65 -96.9 124.2 -93.95 115.7 M19.55 160.05 Q32.45 156.7 36.5 156.0 42.7 154.85 50.5 150.25 L63.0 142.0 Q71.45 136.25 82.15 126.75 L96.4 113.75 98.75 116.95 98.95 117.4 105.1 130.65 Q108.35 138.3 110.05 144.3 112.05 151.6 111.6 156.5 L111.55 158.15 111.5 159.15 110.8 164.0 110.6 164.9 Q109.05 172.2 106.8 177.75 92.25 197.05 54.25 200.65 L29.95 199.9 Q20.1 197.85 14.65 188.0 9.45 178.65 8.95 162.2 13.45 161.65 19.55 160.05" fill="#e58508" fill-rule="evenodd" stroke="none"/>
  </g>
</svg>
