<?xml version="1.0" encoding="UTF-8" standalone="no"?>
<svg xmlns:ffdec="https://www.free-decompiler.com/flash" xmlns:xlink="http://www.w3.org/1999/xlink" ffdec:objectType="shape" height="186.75px" width="174.0px" xmlns="http://www.w3.org/2000/svg">
  <g transform="matrix(1.0, 0.0, 0.0, 1.0, 0.0, 0.0)">
    <path d="M173.85 129.3 Q173.25 137.75 169.75 146.0 L169.0 147.0 152.25 166.0 124.25 180.5 95.75 186.75 95.7 186.75 73.75 184.5 Q57.25 183.25 45.5 176.5 L25.0 166.5 6.75 146.5 0.25 132.25 0.0 129.25 Q3.25 126.75 2.5 121.25 L9.75 115.25 11.25 111.75 17.25 103.5 28.5 82.25 36.0 65.75 43.0 43.25 52.0 23.75 Q85.9 -22.2 123.5 20.75 L125.8 26.95 Q131.85 42.75 138.7 58.15 143.75 69.5 150.95 79.45 158.1 89.25 165.95 98.7 169.6 103.0 171.3 108.4 172.3 111.45 172.9 114.55 173.8 119.1 173.95 123.7 L173.85 129.3" fill="#ffffff" fill-rule="evenodd" stroke="none"/>
  </g>
</svg>
