<?xml version="1.0" encoding="UTF-8" standalone="no"?>
<svg xmlns:ffdec="https://www.free-decompiler.com/flash" xmlns:xlink="http://www.w3.org/1999/xlink" ffdec:objectType="shape" height="87.1px" width="80.0px" xmlns="http://www.w3.org/2000/svg">
  <g transform="matrix(1.0, 0.0, 0.0, 1.0, 0.0, 0.0)">
    <path d="M58.2 4.7 Q63.65 7.05 65.75 10.8 80.25 20.8 79.75 31.55 L80.0 40.3 76.25 58.8 74.25 63.55 74.25 63.8 Q64.25 87.55 41.25 87.05 L38.75 87.05 Q17.25 88.05 5.5 63.55 L4.75 61.8 1.75 51.8 0.0 39.05 0.25 32.05 Q-0.35 30.05 3.0 24.3 6.7 17.95 12.4 12.35 28.25 -3.1 45.05 0.8 54.2 2.95 58.2 4.7" fill="#e58508" fill-rule="evenodd" stroke="none"/>
  </g>
</svg>
