<?xml version="1.0" encoding="UTF-8" standalone="no"?>
<svg xmlns:ffdec="https://www.free-decompiler.com/flash" xmlns:xlink="http://www.w3.org/1999/xlink" ffdec:objectType="shape" height="371.0px" width="264.95px" xmlns="http://www.w3.org/2000/svg">
  <g transform="matrix(1.0, 0.0, 0.0, 1.0, 155.05, 100.0)">
    <path d="M-42.5 -47.0 L-52.25 -50.25 Q-57.0 -52.25 -61.0 -61.5 -54.0 -57.75 -56.0 -67.25 -56.25 -70.25 -59.75 -71.75 L-62.0 -69.75 -65.5 -74.25 -66.75 -78.5 Q-60.75 -80.0 -65.75 -89.5 L-63.75 -94.0 Q-59.0 -100.25 -57.5 -100.0 -49.9 -74.95 -35.25 -53.25 -36.5 -51.25 -37.9 -49.35 -39.65 -47.0 -42.5 -47.0" fill="#ffffff" fill-rule="evenodd" stroke="none"/>
    <path d="M-42.5 -47.0 Q-41.75 -32.9 -42.5 -18.85 -42.65 -15.5 -44.25 -12.25 L-50.5 -11.25 -79.5 -9.0 -87.5 -10.0 Q-90.7 -10.3 -93.65 -11.6 -104.4 -16.3 -106.4 -27.6 -114.0 -70.15 -68.5 -81.75 L-66.75 -78.5 -65.5 -74.25 -62.0 -69.75 -62.5 -64.25 -61.0 -61.5 Q-57.0 -52.25 -52.25 -50.25 L-42.5 -47.0 M-134.5 76.0 Q-143.4 72.75 -149.5 66.25 -159.5 46.7 -151.5 23.45 -135.75 -22.15 -88.5 -7.25 -100.85 34.85 -102.85 78.8 L-103.0 83.5 Q-118.9 81.7 -134.5 76.0 M-30.5 160.5 Q-15.0 171.35 0.9 181.6 5.9 184.85 11.5 186.0 L15.75 219.0 Q-18.25 247.45 -48.75 219.8 -85.3 186.7 -67.0 146.0 L-33.0 161.25 -30.5 160.5" fill="#e58508" fill-rule="evenodd" stroke="none"/>
    <path d="M-61.0 -61.5 L-62.5 -64.25 -62.0 -69.75 -59.75 -71.75 Q-56.25 -70.25 -56.0 -67.25 -54.0 -57.75 -61.0 -61.5 M-66.75 -78.5 L-68.5 -81.75 -68.75 -85.25 -65.75 -89.5 Q-60.75 -80.0 -66.75 -78.5" fill="#000000" fill-rule="evenodd" stroke="none"/>
    <path d="M107.0 52.5 Q120.8 126.55 68.5 178.75 57.6 228.25 32.0 271.0 L28.15 265.0 32.3 264.7 32.75 265.25 33.2 265.05 Q34.45 264.55 35.05 263.4 39.35 255.0 42.75 246.5 L42.5 245.75 59.0 206.0 Q71.85 180.6 68.0 154.25 114.9 115.55 107.0 52.5 M62.5 132.25 L63.5 109.25 63.5 102.0 64.5 106.75 66.25 150.0 63.5 147.5 61.0 149.75 62.5 132.25 M-89.8 -9.75 Q-103.95 -13.3 -108.5 -26.25 L-110.25 -41.0 Q-107.0 -24.75 -94.75 -13.25 -68.3 -7.95 -42.0 -14.75 -71.8 21.7 -95.85 62.35 -98.15 66.3 -98.05 70.6 -97.35 108.7 -65.5 131.75 L-36.25 144.0 -34.75 144.3 -33.05 144.3 Q-32.4 144.1 -31.75 143.5 -30.75 128.3 -39.25 113.5 -22.5 136.45 2.0 150.5 L2.5 149.75 -0.75 113.0 Q-4.4 93.85 -4.25 74.5 -0.8 89.9 1.3 105.6 5.4 136.7 21.5 162.75 19.25 161.7 17.05 161.05 14.95 160.4 13.25 161.5 12.65 213.65 27.35 263.6 16.35 243.9 16.5 219.25 9.4 224.7 1.5 228.5 -6.9 232.55 -15.95 231.35 -63.7 226.0 -73.25 176.5 -71.15 181.75 -69.35 187.1 -56.95 224.45 -20.6 227.15 11.7 229.1 3.5 202.25 -4.95 198.85 -13.2 194.85 -41.7 180.75 -71.0 168.75 L-71.75 168.5 -72.95 168.1 -73.75 168.25 Q-74.05 168.3 -74.3 168.5 -77.5 155.05 -67.25 146.0 -69.35 145.6 -71.15 144.05 -98.1 119.9 -102.5 83.75 -123.55 82.9 -138.4 72.95 -131.9 75.95 -123.5 76.0 -124.7 71.4 -124.65 66.65 -124.35 39.8 -98.0 30.0 L-87.5 -9.25 -89.8 -9.75" fill="#000000" fill-opacity="0.49803922" fill-rule="evenodd" stroke="none"/>
  </g>
</svg>
