<?xml version="1.0" encoding="UTF-8" standalone="no"?>
<svg xmlns:ffdec="https://www.free-decompiler.com/flash" xmlns:xlink="http://www.w3.org/1999/xlink" ffdec:objectType="shape" height="26.25px" width="60.8px" xmlns="http://www.w3.org/2000/svg">
  <g transform="matrix(1.0, 0.0, 0.0, 1.0, 0.0, 0.0)">
    <path d="M59.1 13.55 Q58.05 17.1 56.3 20.5 50.55 30.25 30.3 23.0 12.3 30.25 5.05 21.25 2.7 18.55 1.2 15.4 -0.1 12.7 0.0 9.4 0.05 7.3 0.75 5.45 2.05 2.15 5.55 1.35 10.15 0.35 14.85 0.55 20.8 -0.15 26.8 0.25 L34.3 0.25 38.05 0.0 Q45.15 0.0 52.15 1.15 55.8 1.75 59.0 3.75 60.05 4.35 60.8 5.5 60.3 9.6 59.1 13.55" fill="#ffffff" fill-rule="evenodd" stroke="none"/>
  </g>
</svg>
