<?xml version="1.0" encoding="UTF-8" standalone="no"?>
<svg xmlns:ffdec="https://www.free-decompiler.com/flash" xmlns:xlink="http://www.w3.org/1999/xlink" ffdec:objectType="shape" height="113.05px" width="209.35px" xmlns="http://www.w3.org/2000/svg">
  <g transform="matrix(1.0, 0.0, 0.0, 1.0, 108.85, -85.75)">
    <path d="M85.7 89.15 L85.9 89.55 92.7 102.55 Q96.35 110.0 98.35 115.95 100.7 123.15 100.5 128.05 L100.5 129.7 100.5 130.7 100.05 135.65 99.9 136.55 Q98.7 143.9 96.75 149.6 83.1 169.6 45.25 175.05 30.8 176.95 20.9 175.45 10.95 173.9 5.0 164.3 1.1 158.1 -0.7 148.45 27.45 140.95 36.55 136.05 56.5 125.5 68.4 110.1 75.2 101.3 82.9 85.75 L85.7 89.15 M-97.05 141.55 Q-93.35 145.1 -90.75 145.4 -88.15 145.65 -76.25 152.65 -64.35 159.6 -50.2 159.6 -44.9 159.6 -11.1 151.1 L-6.3 149.9 Q-4.0 167.2 -6.9 177.1 -9.2 184.9 -17.85 189.4 -26.65 193.9 -37.35 196.7 -48.1 199.4 -67.05 198.65 -82.8 195.45 -92.1 191.35 -101.45 187.15 -105.55 174.8 -109.75 162.45 -108.6 151.45 -107.7 142.6 -106.6 137.05 L-105.9 133.8 Q-100.8 138.0 -97.05 141.55" fill="#e58508" fill-rule="evenodd" stroke="none"/>
  </g>
</svg>
