<?xml version="1.0" encoding="UTF-8" standalone="no"?>
<svg xmlns:ffdec="https://www.free-decompiler.com/flash" xmlns:xlink="http://www.w3.org/1999/xlink" ffdec:objectType="shape" height="299.8px" width="399.1px" xmlns="http://www.w3.org/2000/svg">
  <g transform="matrix(1.0, 0.0, 0.0, 1.0, 273.2, 101.0)">
    <path d="M45.6 130.45 Q55.05 124.45 62.65 117.05 56.9 121.15 50.9 124.65 L50.2 125.1 45.6 130.45 M89.5 -1.6 L89.9 -4.0 Q90.9 6.4 90.5 17.0 97.15 49.7 85.8 80.8 L83.55 86.5 85.7 89.15 85.9 89.55 88.3 94.0 92.7 102.55 95.15 107.8 Q91.95 119.65 83.7 128.4 79.15 133.25 72.0 138.35 L59.0 147.0 Q51.95 151.7 41.95 154.5 L25.65 158.45 Q16.8 160.75 12.0 164.35 9.75 166.05 7.95 168.3 6.35 166.5 5.0 164.3 3.55 161.95 2.35 159.1 -1.5 160.35 -5.3 161.1 -5.0 170.65 -6.9 177.1 -7.4 178.8 -8.2 180.35 -11.1 185.9 -17.85 189.4 -26.65 193.9 -37.35 196.7 -48.1 199.4 -67.05 198.65 -82.8 195.45 -92.1 191.35 -101.45 187.15 -105.55 174.8 L-105.7 174.3 Q-95.65 180.15 -85.55 184.45 -65.8 192.85 -50.5 192.85 -41.85 192.85 -28.8 186.9 L-22.75 183.8 Q-32.45 185.85 -35.5 185.85 -57.45 185.85 -81.25 177.15 -97.25 171.3 -108.4 162.9 -109.2 157.0 -108.6 151.45 -107.7 142.6 -106.6 137.05 L-105.95 133.95 Q-112.25 128.65 -117.7 122.3 -134.3 98.55 -146.85 74.75 L-148.2 78.05 Q-148.3 77.8 -152.4 86.55 L-156.4 95.3 Q-170.8 102.6 -178.3 99.25 -190.3 98.15 -213.9 79.75 L-214.05 79.7 -243.7 59.9 Q-260.75 49.8 -272.5 35.15 -273.7 33.65 -272.85 33.0 L-261.75 40.5 -229.95 61.4 Q-183.3 91.0 -174.0 91.0 -156.1 91.0 -149.05 65.0 -147.25 58.35 -144.8 43.5 -142.7 30.5 -141.0 26.0 -139.85 32.8 -138.85 45.9 -137.85 59.0 -136.85 65.1 -133.35 86.5 -120.0 98.0 -117.45 100.15 -114.5 103.95 L-109.4 110.3 Q-102.55 118.05 -91.0 122.0 L-74.45 127.7 -43.9 138.2 Q-28.45 143.0 -15.5 143.0 5.95 143.0 26.05 136.15 34.85 128.0 43.45 114.45 51.95 101.0 58.3 84.8 64.4 69.2 67.0 55.0 L67.0 50.0 67.25 49.3 Q67.9 47.85 69.8 45.5 L74.95 39.35 Q82.65 29.9 85.0 21.0 87.05 13.0 89.5 -1.6 M52.0 -88.95 Q45.9 -91.8 41.2 -94.5 L27.8 -83.35 35.75 -80.7 Q37.05 -80.15 38.4 -79.7 61.55 -70.55 74.3 -52.4 65.85 -56.55 57.0 -58.0 L33.05 -61.2 9.0 -63.0 Q3.8 -63.0 -6.15 -61.1 L-18.0 -59.05 -9.85 -68.85 Q-2.6 -77.65 3.15 -83.15 21.8 -101.0 41.0 -101.0 52.35 -101.0 65.3 -96.15 73.85 -92.95 87.8 -85.5 103.15 -77.25 108.85 -74.85 118.3 -70.85 125.9 -70.15 124.1 -69.2 121.9 -69.55 108.6 -71.85 95.45 -74.7 L52.0 -88.95 M10.3 169.35 Q16.0 170.85 20.0 170.85 25.1 170.85 47.35 167.0 69.1 163.25 73.0 161.85 80.8 159.2 93.9 144.15 L99.9 136.8 Q98.65 144.0 96.75 149.6 83.1 169.6 45.25 175.05 30.8 176.95 20.9 175.45 13.65 174.3 8.5 168.9 L10.3 169.35 M-55.7 35.65 Q-41.4 21.95 -46.6 2.4 -43.4 9.05 -42.55 14.4 -42.0 17.8 -42.0 34.5 -42.0 55.0 -51.0 71.0 -61.7 90.0 -80.0 90.0 L-80.05 90.0 Q-105.7 89.95 -117.65 61.1 -124.55 44.45 -125.85 22.3 -124.7 25.1 -123.55 25.7 L-118.8 30.85 -108.5 38.65 -99.35 43.6 -97.55 44.3 -93.05 45.7 Q-70.65 51.9 -57.45 37.4 L-55.7 35.65" fill="#000000" fill-opacity="0.4" fill-rule="evenodd" stroke="none"/>
  </g>
</svg>
