<?xml version="1.0" encoding="UTF-8" standalone="no"?>
<svg xmlns:ffdec="https://www.free-decompiler.com/flash" xmlns:xlink="http://www.w3.org/1999/xlink" ffdec:objectType="shape" height="211.5px" width="148.3px" xmlns="http://www.w3.org/2000/svg">
  <g transform="matrix(1.0, 0.0, 0.0, 1.0, 144.7, 17.8)">
    <path d="M-43.65 -17.2 L-29.25 -15.45 Q-21.8 -13.9 -17.65 -11.3 L-16.25 -10.45 -15.35 -9.95 Q-13.25 -8.7 -11.35 -7.1 L-10.6 -6.55 Q-4.85 -1.85 -0.9 2.65 9.65 24.4 -4.4 59.85 -10.0 73.3 -16.2 81.15 -22.45 89.0 -33.75 89.35 -45.05 89.8 -61.0 81.9 -74.85 75.1 -88.55 65.3 -82.65 47.85 -82.65 28.1 -82.65 7.0 -82.9 2.25 -83.25 -4.85 -84.3 -11.85 -73.05 -15.55 -58.7 -17.8 L-58.25 -17.8 -43.65 -17.2 M-103.25 93.85 Q-99.55 88.7 -96.55 83.3 L-92.5 83.8 Q-72.85 86.55 -55.0 93.45 -36.8 100.6 -29.15 108.65 -23.55 114.55 -23.95 124.3 -24.45 134.1 -27.45 144.8 -30.45 155.45 -40.6 171.5 -51.2 183.55 -59.4 189.55 -67.7 195.5 -80.45 192.9 -93.3 190.4 -102.2 183.85 -109.45 178.65 -113.7 174.95 L-124.5 165.05 -124.85 164.7 Q-139.3 145.05 -144.7 128.6 -119.6 116.6 -103.25 93.85" fill="#e58508" fill-rule="evenodd" stroke="none"/>
  </g>
</svg>
