<?xml version="1.0" encoding="UTF-8" standalone="no"?>
<svg xmlns:ffdec="https://www.free-decompiler.com/flash" xmlns:xlink="http://www.w3.org/1999/xlink" ffdec:objectType="shape" height="343.55px" width="471.85px" xmlns="http://www.w3.org/2000/svg">
  <g transform="matrix(1.0, 0.0, 0.0, 1.0, 468.2, 149.85)">
    <path d="M-347.45 -149.85 Q-307.5 -126.6 -302.05 -123.65 -269.6 -106.25 -253.0 -104.0 -247.0 -103.15 -233.8 -88.95 L-223.0 -77.05 Q-216.75 -70.25 -213.0 -67.0 -202.5 -57.85 -191.2 -53.3 -184.0 -50.35 -169.0 -47.0 -169.0 -46.5 -168.5 -46.0 -168.0 -45.5 -168.0 -45.0 -170.0 -44.0 -176.5 -44.0 -191.25 -44.0 -222.4 -64.05 -238.6 -74.5 -258.0 -89.0 -276.2 -101.35 -293.2 -110.45 L-293.05 -110.45 -309.55 -120.45 Q-330.0 -133.0 -347.1 -149.0 -347.55 -149.45 -347.45 -149.85 M-467.5 -8.85 Q-469.25 -11.05 -466.6 -11.4 -453.05 -2.55 -436.0 9.05 -403.05 31.5 -389.2 40.05 -364.2 55.5 -343.8 63.8 -319.55 73.65 -296.0 76.0 -292.4 89.05 -281.95 102.7 -275.4 111.25 -267.7 118.1 L-255.0 119.0 Q-247.2 119.0 -220.95 110.25 L-206.35 105.2 Q-169.25 92.1 -159.0 86.0 -136.35 72.7 -119.3 45.95 -111.55 33.7 -107.95 22.6 -104.2 10.9 -106.0 3.0 L-103.25 0.75 Q-96.8 -5.15 -93.45 -13.75 -90.0 -22.6 -89.2 -35.85 -86.3 -23.85 -85.25 -11.55 -84.8 -6.3 -84.7 -0.95 -77.45 26.45 -83.35 53.55 L-85.0 51.9 -92.9 78.75 -104.35 97.5 Q-98.85 90.95 -94.6 83.55 L-93.95 83.6 Q-95.95 99.4 -101.8 114.5 -109.6 134.45 -121.65 143.7 -112.5 154.4 -106.3 160.2 -97.55 168.3 -89.15 171.95 -80.1 175.85 -69.0 175.85 -48.65 175.85 -36.0 159.9 -30.15 152.5 -26.9 142.9 L-27.45 144.8 Q-30.45 155.45 -40.6 171.5 -51.2 183.55 -59.4 189.55 -67.7 195.5 -80.45 192.9 -93.3 190.4 -102.2 183.85 -109.45 178.65 -113.7 174.95 L-124.5 165.05 -124.85 164.7 Q-138.4 146.25 -144.0 130.65 L-150.15 132.85 -171.5 140.7 -186.75 140.35 Q-221.25 153.95 -256.85 137.15 -273.6 129.2 -286.45 115.85 L-288.25 113.55 Q-297.5 101.6 -305.65 89.6 -339.1 89.4 -373.5 63.35 -373.15 63.3 -380.55 57.1 L-388.0 50.95 -388.2 49.8 Q-397.1 44.95 -408.9 35.75 L-409.05 35.7 -438.7 15.9 Q-455.75 5.8 -467.5 -8.85 M-219.35 -2.3 Q-219.0 -0.35 -219.0 12.0 -219.0 34.5 -229.0 47.0 -233.7 52.85 -240.4 56.3 -249.75 61.0 -263.0 61.0 -285.6 61.0 -295.0 44.0 -302.0 31.4 -302.0 8.0 L-301.95 5.35 -300.15 10.1 Q-297.45 16.25 -295.5 16.9 L-289.95 21.25 -278.6 27.3 -268.75 30.75 -266.9 31.15 Q-258.85 32.65 -252.15 32.05 -236.65 30.65 -228.4 18.05 L-226.9 16.05 Q-219.7 6.55 -219.8 -3.95 L-219.35 -2.3 M-31.0 76.0 Q-18.0 76.0 -7.0 55.0 -2.4 46.2 0.3 36.2 3.0 26.3 3.0 18.5 L1.95 10.35 Q7.3 30.35 -4.4 59.85 -10.0 73.3 -16.2 81.15 -22.45 89.0 -33.75 89.35 -45.05 89.8 -61.0 81.9 -74.0 75.5 -86.9 66.45 L-85.8 62.95 Q-84.4 58.25 -83.35 53.55 -72.75 63.9 -64.05 68.7 -50.7 76.0 -31.0 76.0" fill="#000000" fill-opacity="0.4" fill-rule="evenodd" stroke="none"/>
  </g>
</svg>
