<?xml version="1.0" encoding="UTF-8" standalone="no"?>
<svg xmlns:ffdec="https://www.free-decompiler.com/flash" xmlns:xlink="http://www.w3.org/1999/xlink" ffdec:objectType="shape" height="222.75px" width="102.85px" xmlns="http://www.w3.org/2000/svg">
  <g transform="matrix(1.0, 0.0, 0.0, 1.0, 201.2, 47.5)">
    <path d="M-188.0 -42.8 Q-184.45 -44.65 -181.45 -45.35 L-179.85 -45.8 -178.9 -46.05 -174.0 -46.95 -173.1 -47.0 Q-165.7 -47.8 -159.7 -47.35 -136.85 -39.45 -121.75 -4.4 -116.15 9.0 -115.0 18.95 -113.9 28.95 -121.6 37.15 -129.3 45.45 -146.15 51.15 L-152.85 53.3 Q-152.0 46.2 -152.0 37.85 -152.0 8.2 -166.45 -16.35 -174.95 -30.7 -188.0 -42.8 M-157.3 71.5 L-138.3 72.45 Q-118.85 74.6 -109.4 80.4 -102.45 84.65 -100.35 94.2 -98.25 103.8 -98.35 114.9 -98.5 125.95 -104.15 144.1 -111.3 158.5 -117.7 166.4 -124.15 174.3 -137.15 175.1 -150.2 175.95 -160.5 172.0 -168.8 168.85 -173.9 166.35 -179.9 163.4 -186.9 159.55 L-187.3 159.35 Q-195.05 153.15 -201.2 147.1 -189.45 140.8 -180.55 128.25 -172.05 116.2 -168.0 101.25 -165.35 91.55 -161.9 82.7 L-157.3 71.5" fill="#e58508" fill-rule="evenodd" stroke="none"/>
  </g>
</svg>
