<?xml version="1.0" encoding="UTF-8" standalone="no"?>
<svg xmlns:ffdec="https://www.free-decompiler.com/flash" xmlns:xlink="http://www.w3.org/1999/xlink" ffdec:objectType="shape" height="241.0px" width="396.3px" xmlns="http://www.w3.org/2000/svg">
  <g transform="matrix(1.0, 0.0, 0.0, 1.0, 494.65, 51.0)">
    <path d="M-381.15 -32.1 L-392.95 -40.55 -393.15 -40.6 -396.25 -43.45 Q-399.5 -37.65 -404.65 -32.55 L-426.4 -11.55 Q-443.8 4.9 -463.75 17.3 L-464.1 17.5 Q-447.15 -3.25 -433.3 -18.7 -404.35 -51.0 -395.5 -51.0 -381.5 -51.0 -345.4 -25.05 -333.25 -16.3 -321.0 -6.3 -310.95 1.85 -309.0 4.0 -328.4 1.3 -352.5 -10.45 -366.3 -17.15 -384.75 -28.55 L-381.15 -32.1 M-161.6 -6.85 L-154.5 13.9 -153.4 16.95 Q-148.85 30.75 -150.0 42.85 L-150.05 46.75 Q-140.7 43.5 -133.0 37.1 -119.0 25.45 -119.0 8.5 -119.0 7.05 -119.85 0.3 -115.95 10.8 -115.0 18.95 -113.9 28.95 -121.6 37.15 -129.3 45.45 -146.15 51.15 L-150.2 52.5 -150.5 65.55 -159.1 86.0 Q-156.8 94.4 -156.25 101.55 -156.0 104.9 -156.0 119.5 -156.0 133.45 -160.65 148.25 -162.65 154.6 -166.75 166.0 -157.9 169.85 -152.5 169.85 -125.75 169.85 -112.7 144.8 -107.45 134.75 -103.4 118.95 -101.75 112.55 -99.25 100.35 -98.3 107.25 -98.35 114.9 -98.5 125.95 -104.15 144.1 -111.3 158.5 -117.7 166.4 -124.15 174.3 -137.15 175.1 -150.2 175.95 -160.5 172.0 L-167.85 169.1 -173.9 166.35 Q-179.9 163.4 -186.9 159.55 L-187.3 159.35 Q-195.15 153.05 -201.35 146.9 -207.15 151.15 -213.9 154.75 -230.25 163.5 -248.6 165.9 -289.75 167.0 -326.5 161.35 -359.45 196.15 -418.9 188.65 -418.6 188.5 -428.15 186.8 L-437.65 185.2 Q-441.6 180.8 -443.9 176.9 -454.25 170.8 -466.15 141.45 L-466.2 141.4 -482.05 109.45 Q-491.8 92.2 -494.6 73.6 L-494.65 72.6 Q-484.45 87.85 -475.05 107.2 -463.55 132.6 -458.05 142.9 -448.95 160.05 -438.65 167.6 -426.15 176.85 -406.5 176.85 -393.1 176.85 -365.25 166.65 -346.9 159.9 -337.1 154.05 -342.3 152.55 -347.25 148.55 -354.5 142.7 -360.15 132.35 -365.45 122.55 -368.1 110.95 L-368.7 108.15 -368.2 107.9 Q-365.25 106.35 -362.75 104.05 -359.6 106.45 -355.65 108.55 -348.6 112.3 -341.45 113.95 L-333.25 114.2 -326.5 112.35 -314.9 106.9 -306.25 101.05 -304.85 99.8 -302.45 97.5 Q-297.2 99.25 -291.0 100.55 L-290.2 100.55 Q-291.7 122.25 -303.05 138.05 L-304.15 139.6 Q-290.5 143.0 -287.0 143.0 -277.85 143.0 -266.1 140.65 -252.3 137.95 -240.95 133.0 -211.65 120.2 -211.0 98.5 L-211.0 97.5 -211.0 96.45 Q-203.2 89.1 -198.5 83.85 -187.05 71.1 -183.0 58.0 -180.5 49.85 -176.3 38.7 -171.45 26.05 -170.15 22.15 -164.85 6.3 -164.1 -10.2 L-161.6 -6.9 -161.6 -6.85" fill="#000000" fill-opacity="0.4" fill-rule="evenodd" stroke="none"/>
  </g>
</svg>
