<?xml version="1.0" encoding="UTF-8" standalone="no"?>
<svg xmlns:ffdec="https://www.free-decompiler.com/flash" xmlns:xlink="http://www.w3.org/1999/xlink" ffdec:objectType="shape" height="212.75px" width="77.3px" xmlns="http://www.w3.org/2000/svg">
  <g transform="matrix(1.0, 0.0, 0.0, 1.0, 349.7, 47.5)">
    <path d="M-285.8 -4.4 Q-280.2 9.0 -279.05 18.95 -277.95 28.95 -285.65 37.15 -288.35 40.05 -292.1 42.65 L-291.85 36.55 Q-291.85 5.0 -310.05 -22.3 -320.15 -37.5 -332.9 -47.35 -328.0 -47.65 -323.75 -47.35 -300.9 -39.45 -285.8 -4.4 M-297.1 65.1 Q-288.7 67.15 -283.45 70.4 -276.5 74.65 -274.4 84.2 -272.3 93.8 -272.4 104.9 -272.55 115.95 -278.2 134.1 -285.35 148.5 -291.75 156.4 -298.2 164.3 -311.2 165.1 -324.25 165.95 -334.55 162.0 -342.85 158.85 -347.95 156.35 L-349.7 155.5 Q-345.25 151.4 -338.15 146.2 -330.25 140.4 -326.65 136.05 -314.1 120.9 -310.75 104.1 -309.3 97.0 -305.85 87.8 L-299.55 71.9 -297.1 65.1" fill="#e58508" fill-rule="evenodd" stroke="none"/>
  </g>
</svg>
