<?xml version="1.0" encoding="UTF-8" standalone="no"?>
<svg xmlns:ffdec="https://www.free-decompiler.com/flash" xmlns:xlink="http://www.w3.org/1999/xlink" ffdec:objectType="shape" height="341.75px" width="245.5px" xmlns="http://www.w3.org/2000/svg">
  <g transform="matrix(1.0, 0.0, 0.0, 1.0, 517.9, 138.25)">
    <path d="M-489.0 -65.0 Q-489.0 -75.2 -487.35 -80.1 -485.85 -84.5 -481.85 -87.4 L-471.7 -93.25 Q-463.4 -97.95 -456.0 -104.0 -446.0 -113.5 -435.65 -122.05 -419.5 -135.45 -411.6 -138.25 -411.6 -136.0 -413.25 -134.1 -422.3 -124.1 -431.8 -114.6 L-467.15 -85.65 Q-470.2 -83.7 -472.95 -82.1 L-469.8 -73.3 -466.1 -75.7 Q-462.4 -70.75 -460.45 -63.9 -458.0 -55.1 -458.0 -41.0 -458.0 -30.35 -460.0 -19.0 -462.8 -3.0 -468.0 -3.0 -477.55 -3.0 -483.95 -29.05 -489.0 -49.35 -489.0 -65.0 M-292.75 -18.35 Q-289.1 -12.05 -285.8 -4.4 -280.2 9.0 -279.05 18.95 -277.95 28.95 -285.65 37.15 L-289.25 40.5 -290.35 35.3 Q-289.85 31.45 -289.75 27.6 -284.0 18.35 -284.0 12.5 -284.0 5.9 -290.05 -10.95 L-292.75 -18.35 M-289.65 67.4 L-288.8 67.75 Q-288.35 69.35 -288.15 71.35 -288.0 73.1 -288.0 80.5 -288.0 111.8 -300.0 133.95 -307.45 147.7 -319.25 157.1 L-314.45 157.5 -308.0 158.0 Q-292.95 158.0 -282.2 135.75 -276.15 123.2 -272.4 106.25 -272.9 117.05 -278.2 134.1 -285.35 148.5 -291.75 156.4 -298.2 164.3 -311.2 165.1 -320.85 165.75 -329.0 163.75 L-334.55 162.0 Q-342.85 158.85 -347.95 156.35 L-350.05 155.3 -353.55 157.25 Q-369.9 166.0 -388.25 168.4 L-406.95 168.55 -404.15 170.65 -398.8 174.6 Q-389.35 173.85 -376.15 174.6 L-376.05 174.55 -340.45 173.9 Q-321.65 172.55 -304.45 177.35 L-302.75 177.85 Q-299.9 178.75 -302.1 180.65 -309.0 186.6 -317.8 189.25 -349.0 198.65 -381.3 202.2 -391.9 203.35 -402.45 202.5 -413.7 206.45 -440.75 194.8 -444.9 193.15 -449.05 191.15 -460.05 185.8 -470.95 180.25 -492.6 169.4 -512.45 155.65 -514.95 153.8 -517.9 152.6 L-516.15 151.75 -517.75 151.1 Q-507.45 151.65 -492.9 157.4 -491.15 158.1 -481.85 162.25 L-475.0 162.85 Q-443.5 162.85 -420.4 153.85 -394.1 143.65 -370.0 119.0 -367.6 116.55 -358.25 111.85 L-348.55 113.3 -338.85 116.25 -335.05 116.5 -327.0 121.35 Q-322.05 118.85 -318.65 121.1 -317.3 120.5 -315.95 119.85 L-304.65 109.1 -291.8 85.35 -289.65 67.4 M-407.4 79.3 Q-407.0 84.15 -407.0 93.5 -407.0 101.5 -407.75 108.6 -409.65 125.9 -416.05 138.0 -426.15 157.0 -445.0 157.0 -459.6 157.0 -469.3 138.65 L-471.55 134.05 -469.75 133.9 Q-467.85 133.5 -466.05 132.4 -463.2 130.75 -461.65 128.2 -459.9 125.4 -458.85 122.2 L-450.45 122.5 Q-442.5 122.25 -435.5 120.1 -429.15 118.1 -428.25 116.25 L-423.35 111.25 -416.05 100.7 -411.5 91.35 -410.85 89.55 Q-408.05 80.3 -408.3 72.65 -407.7 75.8 -407.4 79.3" fill="#000000" fill-opacity="0.4" fill-rule="evenodd" stroke="none"/>
  </g>
</svg>
