<?xml version="1.0" encoding="UTF-8" standalone="no"?>
<svg xmlns:ffdec="https://www.free-decompiler.com/flash" xmlns:xlink="http://www.w3.org/1999/xlink" ffdec:objectType="shape" height="213.45px" width="99.4px" xmlns="http://www.w3.org/2000/svg">
  <g transform="matrix(1.0, 0.0, 0.0, 1.0, 830.85, 64.65)">
    <path d="M-827.3 -9.45 Q-825.85 -20.4 -818.1 -37.7 -809.3 -51.15 -802.05 -58.2 -794.7 -65.3 -781.7 -64.6 -768.65 -63.9 -758.95 -58.8 -751.1 -54.65 -746.3 -51.55 L-734.25 -43.35 -733.85 -43.1 -731.45 -40.6 Q-738.45 -32.95 -750.4 -22.6 -767.0 -8.2 -773.05 -1.75 -784.9 10.95 -790.8 24.9 -793.2 30.6 -794.8 36.85 -812.2 32.5 -820.4 26.05 -826.75 21.05 -827.75 11.3 -828.7 1.55 -827.3 -9.45 M-795.9 91.55 Q-793.9 101.8 -789.25 110.9 -785.85 117.5 -777.6 129.45 L-765.95 146.5 Q-769.6 147.85 -772.5 148.15 L-774.15 148.4 -775.1 148.55 -780.1 148.8 -781.0 148.8 -794.3 147.6 Q-816.0 137.05 -826.9 100.55 -830.85 86.55 -830.85 76.55 -830.75 66.55 -822.15 59.3 -813.8 52.2 -797.05 48.5 -798.0 55.8 -798.0 63.75 -798.0 80.6 -795.9 91.55" fill="#e58508" fill-rule="evenodd" stroke="none"/>
  </g>
</svg>
