<?xml version="1.0" encoding="UTF-8" standalone="no"?>
<svg xmlns:ffdec="https://www.free-decompiler.com/flash" xmlns:xlink="http://www.w3.org/1999/xlink" ffdec:objectType="shape" height="287.05px" width="384.55px" xmlns="http://www.w3.org/2000/svg">
  <g transform="matrix(1.0, 0.0, 0.0, 1.0, 828.15, 89.9)">
    <path d="M-597.45 -5.55 Q-598.8 -5.0 -601.1 -5.0 -615.8 -5.0 -631.75 -14.05 -642.6 -20.2 -658.75 -33.9 -677.55 -49.85 -682.9 -53.55 -689.05 -57.8 -694.4 -59.9 L-684.55 -61.15 Q-691.75 -62.85 -700.55 -65.75 L-700.7 -65.75 -735.2 -74.25 Q-754.6 -77.95 -770.6 -87.65 -772.5 -88.9 -771.4 -89.9 -756.9 -86.35 -725.9 -80.2 -682.5 -71.65 -669.1 -68.0 -644.35 -61.35 -621.6 -39.6 -606.2 -24.9 -595.0 -7.0 -596.6 -5.85 -597.45 -5.55 M-473.05 183.85 L-517.75 192.7 Q-531.2 193.75 -539.6 192.55 L-541.6 194.15 -541.85 194.05 -588.45 196.0 Q-609.0 191.6 -622.45 183.25 -646.95 190.5 -675.15 195.8 L-677.95 196.2 Q-721.55 202.35 -750.65 167.75 L-751.95 166.2 -756.6 164.2 -757.55 163.45 -773.05 148.25 -774.15 148.4 -775.1 148.55 -780.1 148.8 -781.0 148.8 -789.4 148.3 -794.3 147.6 Q-811.25 139.35 -821.6 115.25 -818.6 120.2 -815.55 124.05 -805.7 136.5 -793.2 141.1 L-797.7 130.75 Q-806.1 109.75 -806.1 94.5 -806.1 78.9 -803.75 70.9 L-799.2 59.4 -796.7 53.05 -793.05 69.0 Q-792.9 73.4 -791.65 78.35 -789.3 87.75 -783.05 98.95 -773.75 115.7 -759.05 130.8 -744.0 146.25 -729.05 153.95 -715.6 160.95 -705.4 159.85 L-701.1 159.0 Q-693.9 168.65 -677.75 172.2 -665.75 174.85 -642.6 174.85 -634.9 174.85 -629.5 172.35 L-627.75 171.6 -630.15 168.9 Q-638.1 158.55 -638.1 138.5 L-637.45 131.55 -637.15 129.35 Q-632.15 146.25 -611.45 152.05 L-611.2 152.0 -606.3 153.35 -587.5 154.7 -578.95 153.35 Q-572.3 152.8 -566.65 146.55 L-566.5 147.45 Q-566.0 150.3 -566.0 151.5 -566.0 156.4 -568.1 160.95 L-568.0 160.9 Q-564.5 159.7 -561.8 159.3 L-563.05 161.45 Q-565.0 164.3 -565.0 167.85 -565.0 177.4 -551.05 180.9 -543.1 182.85 -529.0 182.85 -509.05 182.85 -483.4 178.65 -462.7 175.25 -444.5 170.15 L-444.25 170.2 Q-443.15 170.5 -443.85 171.65 -444.75 174.35 -447.6 175.4 -460.2 179.9 -473.05 183.85 M-810.1 -41.7 Q-821.1 -19.45 -821.1 -5.5 -821.1 10.95 -809.85 21.4 -804.3 26.6 -793.7 31.85 L-795.3 36.7 Q-812.35 32.4 -820.4 26.05 -826.75 21.05 -827.75 11.3 -828.7 1.55 -827.3 -9.45 -825.85 -20.4 -818.1 -37.7 -809.3 -51.15 -802.05 -58.2 L-801.4 -58.8 -802.55 -56.45 -810.1 -41.7" fill="#000000" fill-opacity="0.4" fill-rule="evenodd" stroke="none"/>
  </g>
</svg>
