<?xml version="1.0" encoding="UTF-8" standalone="no"?>
<svg xmlns:ffdec="https://www.free-decompiler.com/flash" xmlns:xlink="http://www.w3.org/1999/xlink" ffdec:objectType="shape" height="96.9px" width="220.35px" xmlns="http://www.w3.org/2000/svg">
  <g transform="matrix(1.0, 0.0, 0.0, 1.0, 872.85, -104.2)">
    <path d="M-801.55 154.95 Q-792.75 158.3 -784.1 160.15 -788.25 163.3 -794.45 164.25 L-815.25 164.9 Q-826.25 164.05 -844.0 157.35 -857.9 149.3 -865.4 142.45 -872.85 135.5 -872.85 122.5 -872.9 112.45 -870.15 104.2 L-868.55 106.3 Q-861.2 115.7 -850.55 120.95 -839.95 126.2 -837.1 131.0 -834.25 135.8 -826.1 142.25 -817.95 148.65 -801.55 154.95 M-755.25 162.15 Q-727.15 159.7 -697.8 139.55 -687.6 132.55 -676.0 122.4 L-667.1 114.7 -665.45 116.95 -665.25 117.4 Q-661.75 124.5 -659.1 130.65 -655.85 138.3 -654.15 144.3 -652.15 151.6 -652.6 156.5 L-652.65 158.15 -652.7 159.15 -653.4 164.0 -653.6 164.9 Q-655.15 172.2 -657.4 177.75 -671.95 197.05 -709.95 200.65 -724.45 201.85 -734.25 199.9 -744.1 197.85 -749.55 188.0 -754.75 178.6 -755.25 162.15" fill="#e58508" fill-rule="evenodd" stroke="none"/>
  </g>
</svg>
