<?xml version="1.0" encoding="UTF-8" standalone="no"?>
<svg xmlns:ffdec="https://www.free-decompiler.com/flash" xmlns:xlink="http://www.w3.org/1999/xlink" ffdec:objectType="shape" height="223.5px" width="372.3px" xmlns="http://www.w3.org/2000/svg">
  <g transform="matrix(1.0, 0.0, 0.0, 1.0, 951.25, 21.95)">
    <path d="M-863.9 -1.1 L-863.95 -0.95 -867.2 2.8 -876.95 18.05 -877.95 18.55 -885.95 36.55 -884.2 46.8 -874.95 70.8 -867.7 80.3 -859.95 88.8 -846.45 97.8 Q-849.2 99.05 -847.95 101.3 L-831.2 124.8 -799.7 146.3 -763.2 153.3 Q-722.7 151.05 -694.2 125.8 L-676.7 102.05 Q-673.2 97.3 -675.95 91.55 -659.95 80.05 -656.2 72.55 L-650.45 63.05 -645.2 52.05 -642.1 40.55 -642.7 36.4 -645.1 25.95 -648.45 18.8 -662.95 -2.45 -658.7 0.8 -656.45 1.55 -652.45 5.3 -651.2 5.55 -636.2 16.55 -635.3 17.1 -635.2 17.05 -624.95 23.2 Q-618.75 26.95 -612.8 29.05 L-611.7 29.05 Q-609.35 29.05 -607.9 28.25 L-606.7 28.05 -606.95 27.55 -605.45 27.05 Q-607.8 33.4 -614.8 36.0 L-613.7 39.65 -612.25 43.25 -612.2 43.35 -610.35 47.6 Q-607.75 51.2 -605.95 52.95 L-604.1 56.3 Q-599.45 64.4 -595.95 66.1 -593.25 68.75 -590.95 69.55 L-587.95 70.8 -587.45 65.05 -587.7 53.05 -588.7 49.3 Q-587.95 44.05 -590.2 37.3 L-589.7 37.05 -586.55 49.1 -582.3 70.3 -579.2 85.55 -578.95 95.8 Q-578.95 96.35 -579.7 96.85 L-582.1 97.7 -582.7 97.8 -583.35 97.25 -585.6 95.2 -587.2 93.8 -595.0 81.75 -608.95 56.3 -620.95 32.3 -620.95 30.8 -622.7 30.3 -636.45 21.05 -634.45 31.3 -634.2 34.15 Q-633.55 35.9 -633.35 38.65 -632.85 43.65 -632.85 47.85 L-633.1 54.2 Q-633.4 58.75 -633.85 60.05 L-635.7 66.4 -635.75 66.6 -635.95 68.55 Q-637.55 75.35 -640.35 81.7 -648.55 100.05 -667.15 114.65 L-667.7 115.05 -663.45 122.3 -658.95 132.3 -660.7 132.05 Q-666.45 137.05 -670.45 138.05 -668.95 143.3 -690.45 164.55 L-721.95 180.05 Q-740.7 181.8 -746.45 188.55 -739.7 200.55 -695.95 194.3 -664.45 188.3 -653.95 164.3 L-653.2 163.55 -653.45 166.05 Q-654.15 170.85 -656.4 175.1 -666.45 193.8 -707.8 200.45 L-715.7 201.55 -730.2 200.8 -733.1 200.15 Q-737.55 198.95 -741.0 197.3 L-743.7 195.8 Q-747.6 192.1 -750.1 187.0 L-753.4 177.4 Q-754.55 171.9 -754.7 165.3 L-755.1 165.25 -767.45 163.8 -767.5 164.15 -773.15 162.95 -773.5 162.9 -784.85 160.7 -788.05 160.0 Q-795.05 158.0 -802.6 154.8 -811.45 151.05 -817.55 147.0 L-818.25 146.55 Q-823.25 143.2 -829.6 138.05 L-833.75 134.6 -839.05 130.0 Q-842.0 127.25 -849.1 122.65 L-858.55 116.5 -858.6 116.55 Q-865.35 111.4 -870.65 106.35 L-870.8 106.2 Q-886.15 91.45 -889.2 77.05 L-890.7 71.55 Q-896.15 43.75 -891.9 24.55 L-891.45 22.55 -890.95 22.05 -891.2 21.8 -889.05 16.05 -888.65 15.15 -887.55 14.35 -887.4 14.25 -875.95 6.3 -871.45 2.05 -869.7 1.8 -863.2 -2.95 -863.9 -1.1 M-950.8 77.65 Q-951.0 77.55 -951.15 77.5 L-950.85 76.95 -950.9 73.15 -951.25 70.95 -950.55 68.5 -946.6 54.95 -940.5 38.75 -934.8 23.65 -933.7 22.55 -934.7 25.5 Q-935.6 28.8 -935.35 31.95 L-936.65 33.85 -938.7 46.9 -938.85 51.9 -936.1 51.85 -935.15 50.7 Q-933.35 51.15 -930.2 48.85 L-930.2 48.65 -928.8 47.3 Q-924.45 45.25 -919.05 37.75 L-915.2 32.05 Q-911.7 27.45 -909.45 23.35 L-908.8 22.0 -909.55 21.9 -910.5 19.75 -913.05 18.15 -913.45 15.55 -915.85 12.5 -915.55 12.1 -912.4 13.35 -909.9 14.3 Q-899.8 9.8 -897.75 11.15 L-881.35 4.15 -881.55 4.5 -881.85 5.0 -884.75 10.4 -884.95 10.1 -886.25 10.75 -900.65 17.55 -919.85 45.7 -932.5 62.65 -942.75 74.85 -948.05 78.7 -950.8 77.65 M-727.85 -0.4 Q-724.65 -9.65 -723.2 -21.95 -723.35 -5.35 -724.35 8.7 -729.9 85.45 -761.2 85.05 -783.2 89.05 -792.45 60.8 L-795.95 50.3 -800.95 24.3 -802.7 11.3 -803.45 -21.45 Q-799.4 24.3 -764.7 26.9 L-761.2 27.05 Q-737.15 25.95 -727.85 -0.4 M-608.7 30.3 L-608.75 30.2 -608.85 30.25 -608.95 30.4 -609.1 30.4 -609.65 30.7 -609.45 30.8 -608.7 30.3 M-912.55 15.25 L-912.7 15.65 -912.0 15.35 -912.55 15.25" fill="#000000" fill-opacity="0.49803922" fill-rule="evenodd" stroke="none"/>
    <path d="M-586.55 49.1 L-586.25 50.45 Q-583.85 60.35 -582.3 70.3 L-586.55 49.1 M-579.7 96.85 L-579.7 97.05 Q-579.6 98.2 -580.9 97.85 L-582.1 97.7 -579.7 96.85 M-583.35 97.25 Q-584.6 96.6 -585.55 95.3 L-585.6 95.2 -583.35 97.25 M-595.0 81.75 L-600.75 73.05 -621.45 32.75 -622.75 32.75 -622.85 32.55 -635.05 23.85 Q-626.15 55.15 -640.35 81.7 -637.55 75.35 -635.95 68.55 L-635.75 66.6 -635.7 66.4 -633.85 60.05 Q-633.4 58.75 -633.1 54.2 L-632.85 47.85 Q-632.85 43.65 -633.35 38.65 -633.55 35.9 -634.2 34.15 L-634.45 31.3 -636.45 21.05 -622.7 30.3 -620.95 30.8 -620.95 32.3 -608.95 56.3 -595.0 81.75 M-773.5 162.9 L-785.05 160.9 -784.85 160.7 -773.5 162.9 M-886.4 11.1 L-892.3 14.1 -900.4 18.4 -902.9 21.55 -902.95 21.65 -923.05 51.05 Q-933.3 68.0 -948.15 79.55 -950.45 81.35 -950.75 78.45 L-950.8 77.65 -948.05 78.7 -942.75 74.85 -932.5 62.65 -919.85 45.7 -900.65 17.55 -886.25 10.75 -886.4 11.1 M-950.55 68.5 Q-950.0 64.55 -948.7 60.65 -944.95 49.55 -940.5 38.75 L-946.6 54.95 -950.55 68.5 M-608.7 30.3 L-609.45 30.8 -609.65 30.7 -609.1 30.4 -608.95 30.4 -608.85 30.25 -608.75 30.2 -608.7 30.3 M-912.55 15.25 L-912.0 15.35 -912.7 15.65 -912.55 15.25" fill="#2e47aa" fill-rule="evenodd" stroke="none"/>
    <path d="M-764.7 26.9 L-762.4 26.85 Q-739.4 26.9 -729.9 3.0 L-729.9 2.75 -728.25 -1.45 -727.85 -0.4 Q-737.15 25.95 -761.2 27.05 L-764.7 26.9" fill="#ffffff" fill-rule="evenodd" stroke="none"/>
    <path d="M-656.4 175.1 L-657.4 177.75 Q-671.55 196.5 -707.8 200.45 -666.45 193.8 -656.4 175.1 M-733.1 200.15 L-734.25 199.9 Q-737.95 199.15 -741.0 197.3 -737.55 198.95 -733.1 200.15 M-753.4 177.4 Q-754.7 171.95 -755.1 165.25 L-754.7 165.3 Q-754.55 171.9 -753.4 177.4 M-872.55 115.9 Q-872.05 110.8 -870.8 106.2 L-870.65 106.35 Q-871.95 111.25 -872.55 115.9" fill="#e58508" fill-rule="evenodd" stroke="none"/>
    <path d="M-881.55 4.5 L-875.3 0.55 Q-865.05 -6.45 -858.6 -8.35 -860.35 -5.1 -862.25 -2.9 L-863.9 -1.1 -863.2 -2.95 -869.7 1.8 -871.45 2.05 -875.95 6.3 -887.4 14.25 -887.55 14.35 -886.4 11.1 -886.25 10.75 -884.95 10.1 -884.75 10.4 -881.85 5.0 -881.55 4.5 M-785.05 160.9 Q-790.65 166.0 -809.3 166.0 -829.6 166.0 -849.6 155.25 -868.7 145.0 -874.1 131.65 L-870.65 134.8 -866.95 138.1 Q-858.75 145.15 -851.55 149.5 -843.85 154.2 -834.2 157.9 -822.05 162.5 -813.8 162.5 L-812.65 162.25 -812.05 162.0 -812.05 161.5 -830.5 154.7 Q-841.4 150.25 -849.55 144.5 L-858.1 138.75 Q-864.0 134.7 -867.8 131.5 L-872.6 126.95 -872.65 126.9 -873.05 123.25 Q-873.05 119.7 -872.55 115.9 -871.95 111.25 -870.65 106.35 -865.35 111.4 -858.6 116.55 L-858.55 116.5 -849.1 122.65 Q-842.0 127.25 -839.05 130.0 L-833.75 134.6 -829.6 138.05 Q-823.25 143.2 -818.25 146.55 L-817.55 147.0 Q-811.45 151.05 -802.6 154.8 -795.05 158.0 -788.05 160.0 L-784.85 160.7 -785.05 160.9" fill="#000000" fill-opacity="0.4" fill-rule="evenodd" stroke="none"/>
  </g>
</svg>
