<?xml version="1.0" encoding="UTF-8" standalone="no"?>
<svg xmlns:ffdec="https://www.free-decompiler.com/flash" xmlns:xlink="http://www.w3.org/1999/xlink" ffdec:objectType="shape" height="113.2px" width="209.35px" xmlns="http://www.w3.org/2000/svg">
  <g transform="matrix(1.0, 0.0, 0.0, 1.0, 858.65, -83.6)">
    <path d="M-759.15 145.2 L-757.3 145.8 Q-759.15 155.9 -763.15 162.3 -769.1 171.9 -779.05 173.45 -788.95 174.95 -803.4 173.05 -841.25 167.6 -854.9 147.6 -856.85 141.9 -858.05 134.55 L-858.2 133.65 -858.65 128.7 -858.65 127.7 -858.65 126.05 Q-858.85 121.15 -856.5 113.95 -854.5 108.0 -850.85 100.55 L-844.05 87.55 -843.85 87.15 -840.9 83.6 -838.1 88.5 Q-830.8 101.45 -827.1 106.95 -812.9 128.2 -795.15 133.2 -777.45 139.4 -759.15 145.2 M-751.25 175.1 Q-754.2 165.1 -751.8 147.5 -721.6 156.75 -712.1 156.75 -698.4 156.75 -688.95 153.15 -679.55 149.5 -674.5 146.3 -669.5 143.1 -663.9 139.8 L-652.1 132.3 -651.55 135.05 Q-650.45 140.6 -649.55 149.45 -648.4 160.45 -652.6 172.8 -656.7 185.15 -666.05 189.35 -675.35 193.45 -691.1 196.65 -710.05 197.4 -720.8 194.7 -731.5 191.9 -740.3 187.4 -748.95 182.9 -751.25 175.1" fill="#e58508" fill-rule="evenodd" stroke="none"/>
  </g>
</svg>
