<?xml version="1.0" encoding="UTF-8" standalone="no"?>
<svg xmlns:ffdec="https://www.free-decompiler.com/flash" xmlns:xlink="http://www.w3.org/1999/xlink" ffdec:objectType="shape" height="299.8px" width="399.1px" xmlns="http://www.w3.org/2000/svg">
  <g transform="matrix(1.0, 0.0, 0.0, 1.0, 884.35, 103.0)">
    <path d="M-485.95 33.15 Q-497.7 47.8 -514.75 57.9 L-544.4 77.7 -544.55 77.75 Q-568.15 96.15 -580.15 97.25 -587.65 100.6 -602.05 93.3 L-606.05 84.55 Q-610.15 75.8 -610.25 76.05 L-611.6 72.75 Q-624.15 96.55 -640.75 120.3 -646.2 126.65 -652.5 131.95 L-651.85 135.05 Q-650.75 140.6 -649.85 149.45 -649.25 155.0 -650.05 160.9 -661.2 169.3 -677.2 175.15 -701.0 183.85 -722.95 183.85 -726.0 183.85 -735.7 181.8 L-729.65 184.9 Q-716.6 190.85 -707.95 190.85 -692.65 190.85 -672.9 182.45 -662.8 178.15 -652.75 172.3 L-652.9 172.8 Q-657.0 185.15 -666.35 189.35 -675.65 193.45 -691.4 196.65 -710.35 197.4 -721.1 194.7 -731.8 191.9 -740.6 187.4 -747.35 183.9 -750.25 178.35 L-751.55 175.1 Q-753.45 168.65 -753.15 159.1 L-760.8 157.1 Q-762.0 159.95 -763.45 162.3 -764.8 164.5 -766.4 166.3 -768.2 164.05 -770.45 162.35 -775.25 158.75 -784.1 156.45 L-800.4 152.5 Q-810.4 149.7 -817.45 145.0 L-830.45 136.35 Q-837.6 131.25 -842.15 126.4 -850.4 117.65 -853.6 105.8 L-851.15 100.55 -846.75 92.0 -844.35 87.55 -844.15 87.15 -842.0 84.5 -844.25 78.8 Q-855.6 47.7 -848.95 15.0 -849.35 4.4 -848.35 -6.0 L-847.95 -3.6 Q-845.5 11.0 -843.45 19.0 -841.1 27.9 -833.4 37.35 L-828.25 43.5 Q-826.35 45.85 -825.7 47.3 L-825.45 48.0 -825.45 53.0 Q-822.85 67.2 -816.75 82.8 -810.4 99.0 -801.9 112.45 -793.3 126.0 -784.5 134.15 -764.4 141.0 -742.95 141.0 -730.0 141.0 -714.55 136.2 L-684.0 125.7 -667.45 120.0 Q-655.9 116.05 -649.05 108.3 L-643.95 101.95 Q-641.0 98.15 -638.45 96.0 -625.1 84.5 -621.6 63.1 -620.6 57.0 -619.6 43.9 -618.6 30.8 -617.45 24.0 -615.75 28.5 -613.65 41.5 -611.2 56.35 -609.4 63.0 -602.35 89.0 -584.45 89.0 -575.15 89.0 -528.5 59.4 -513.2 49.65 -496.7 38.5 L-485.6 31.0 Q-484.75 31.65 -485.95 33.15 M-639.65 28.85 L-634.9 23.7 Q-633.75 23.1 -632.6 20.3 -633.9 42.45 -640.8 59.1 -652.75 87.95 -678.4 88.0 L-678.45 88.0 Q-696.75 88.0 -707.45 69.0 -716.45 53.0 -716.45 32.5 -716.45 15.8 -715.9 12.4 -715.05 7.05 -711.85 0.4 -717.05 19.95 -702.75 33.65 L-701.0 35.4 Q-687.8 49.9 -665.4 43.7 L-660.9 42.3 -659.1 41.6 -649.95 36.65 -639.65 28.85 M-823.75 -98.15 Q-810.8 -103.0 -799.45 -103.0 -780.25 -103.0 -761.6 -85.15 -755.85 -79.65 -748.6 -70.85 L-740.45 -61.05 -752.3 -63.1 Q-762.25 -65.0 -767.45 -65.0 L-791.5 -63.2 -815.45 -60.0 Q-824.3 -58.55 -832.75 -54.4 -820.0 -72.55 -796.85 -81.7 L-794.2 -82.7 -786.25 -85.35 -799.65 -96.5 Q-804.35 -93.8 -810.45 -90.95 L-853.9 -76.7 Q-867.05 -73.85 -880.35 -71.55 -882.55 -71.2 -884.35 -72.15 -876.75 -72.85 -867.3 -76.85 -861.6 -79.25 -846.25 -87.5 -832.3 -94.95 -823.75 -98.15 M-809.35 122.65 Q-815.35 119.15 -821.1 115.05 -813.5 122.45 -804.05 128.45 L-808.65 123.1 -809.35 122.65 M-779.35 173.45 Q-789.25 174.95 -803.7 173.05 -841.55 167.6 -855.2 147.6 -857.1 142.0 -858.35 134.8 L-852.35 142.15 Q-839.25 157.2 -831.45 159.85 -827.55 161.25 -805.8 165.0 -783.55 168.85 -778.45 168.85 -774.45 168.85 -768.75 167.35 L-766.95 166.9 Q-772.1 172.3 -779.35 173.45" fill="#000000" fill-opacity="0.4" fill-rule="evenodd" stroke="none"/>
  </g>
</svg>
