<?xml version="1.0" encoding="UTF-8" standalone="no"?>
<svg xmlns:ffdec="https://www.free-decompiler.com/flash" xmlns:xlink="http://www.w3.org/1999/xlink" ffdec:objectType="shape" height="211.5px" width="148.85px" xmlns="http://www.w3.org/2000/svg">
  <g transform="matrix(1.0, 0.0, 0.0, 1.0, 760.15, 23.8)">
    <path d="M-611.3 121.05 Q-616.6 138.1 -631.7 158.7 L-632.05 159.05 -642.85 168.95 Q-647.1 172.65 -654.35 177.85 -663.25 184.4 -676.1 186.9 -688.85 189.5 -697.15 183.55 -705.35 177.55 -715.95 165.5 -726.1 149.45 -729.1 138.8 -732.1 128.1 -732.6 118.3 -733.0 108.55 -727.4 102.65 -719.75 94.6 -701.55 87.45 -683.7 80.55 -664.05 77.8 L-658.75 77.15 -652.5 88.2 Q-644.5 101.6 -626.05 112.7 L-611.7 120.8 -611.3 121.05 M-740.3 -16.45 L-738.9 -17.3 Q-734.75 -19.9 -727.3 -21.45 L-712.9 -23.2 -698.3 -23.8 -697.85 -23.8 Q-683.1 -21.5 -671.6 -17.65 -671.0 -10.45 -671.15 -5.3 -671.3 -0.2 -674.55 16.8 -677.8 33.8 -674.4 44.05 L-668.95 60.4 Q-681.45 68.95 -695.55 75.9 -711.5 83.8 -722.8 83.35 -734.1 83.0 -740.35 75.15 -746.55 67.3 -752.15 53.85 -766.2 18.4 -755.65 -3.35 -751.7 -7.85 -745.95 -12.55 L-745.2 -13.1 -741.2 -15.95 -740.3 -16.45" fill="#e58508" fill-rule="evenodd" stroke="none"/>
  </g>
</svg>
