<?xml version="1.0" encoding="UTF-8" standalone="no"?>
<svg xmlns:ffdec="https://www.free-decompiler.com/flash" xmlns:xlink="http://www.w3.org/1999/xlink" ffdec:objectType="shape" height="343.55px" width="471.85px" xmlns="http://www.w3.org/2000/svg">
  <g transform="matrix(1.0, 0.0, 0.0, 1.0, 760.35, 155.85)">
    <path d="M-537.35 -8.3 L-536.9 -9.95 Q-537.0 0.55 -529.8 10.05 L-528.3 12.05 Q-520.05 24.65 -504.55 26.05 -497.85 26.65 -489.8 25.15 L-487.95 24.75 -478.1 21.3 -466.75 15.25 -461.2 10.9 Q-459.25 10.25 -456.55 4.1 L-454.75 -0.65 -454.7 2.0 Q-454.7 25.4 -461.7 38.0 -471.1 55.0 -493.7 55.0 -506.95 55.0 -516.3 50.3 -523.0 46.85 -527.7 41.0 -537.7 28.5 -537.7 6.0 -537.7 -6.35 -537.35 -8.3 M-580.2 -50.0 Q-586.7 -50.0 -588.7 -51.0 L-588.2 -52.0 Q-587.7 -52.5 -587.7 -53.0 -572.7 -56.35 -565.5 -59.3 -554.2 -63.85 -543.7 -73.0 -539.95 -76.25 -533.7 -83.05 L-522.9 -94.95 Q-509.7 -109.15 -503.7 -110.0 -487.1 -112.25 -454.65 -129.65 -449.2 -132.6 -409.25 -155.85 -409.15 -155.45 -409.6 -155.0 -426.7 -139.0 -447.15 -126.45 L-463.65 -116.45 -463.5 -116.45 Q-480.5 -107.35 -498.7 -95.0 -518.1 -80.5 -534.3 -70.05 -565.45 -50.0 -580.2 -50.0 M-289.2 -14.85 Q-300.95 -0.2 -318.0 9.9 L-347.65 29.7 -347.8 29.75 Q-359.6 38.95 -368.5 43.8 L-368.7 44.95 -376.15 51.1 Q-383.55 57.3 -383.2 57.35 -417.6 83.4 -451.05 83.6 -459.2 95.6 -468.45 107.55 L-470.25 109.85 Q-483.1 123.2 -499.85 131.15 -535.45 147.95 -569.95 134.35 L-585.2 134.7 -606.55 126.85 Q-609.65 125.95 -612.7 124.65 -618.3 140.25 -631.85 158.7 L-632.2 159.05 -643.0 168.95 Q-647.25 172.65 -654.5 177.85 -663.4 184.4 -676.25 186.9 -689.0 189.5 -697.3 183.55 -705.5 177.55 -716.1 165.5 -726.25 149.45 -729.25 138.8 L-729.8 136.9 Q-726.55 146.5 -720.7 153.9 -708.05 169.85 -687.7 169.85 -676.6 169.85 -667.55 165.95 -659.15 162.3 -650.4 154.2 -644.2 148.4 -635.05 137.7 -647.1 128.45 -654.9 108.5 -660.75 93.4 -662.75 77.6 L-662.1 77.55 Q-657.85 84.95 -652.35 91.5 L-663.8 72.75 -671.7 45.9 -673.35 47.55 -670.9 56.95 -669.8 60.45 Q-682.7 69.5 -695.7 75.9 -711.65 83.8 -722.95 83.35 -734.25 83.0 -740.5 75.15 -746.7 67.3 -752.3 53.85 -764.0 24.35 -758.65 4.35 L-759.7 12.5 Q-759.7 20.3 -757.0 30.2 -754.3 40.2 -749.7 49.0 -738.7 70.0 -725.7 70.0 -706.0 70.0 -692.65 62.7 -683.95 57.9 -673.35 47.55 -679.25 20.45 -672.0 -6.95 -671.9 -12.3 -671.45 -17.55 -670.4 -29.85 -667.5 -41.85 -666.7 -28.6 -663.25 -19.75 -659.9 -11.15 -653.45 -5.25 L-650.7 -3.0 Q-652.5 4.9 -648.75 16.6 -645.15 27.7 -637.4 39.95 -620.35 66.7 -597.7 80.0 -587.45 86.1 -550.35 99.2 L-535.75 104.25 Q-509.5 113.0 -501.7 113.0 L-489.0 112.1 Q-481.3 105.25 -474.75 96.7 -464.3 83.05 -460.7 70.0 -437.15 67.65 -412.9 57.8 -392.5 49.5 -367.5 34.05 -353.65 25.5 -320.7 3.05 L-290.1 -17.4 Q-287.45 -17.05 -289.2 -14.85" fill="#000000" fill-opacity="0.4" fill-rule="evenodd" stroke="none"/>
  </g>
</svg>
