<?xml version="1.0" encoding="UTF-8" standalone="no"?>
<svg xmlns:ffdec="https://www.free-decompiler.com/flash" xmlns:xlink="http://www.w3.org/1999/xlink" ffdec:objectType="shape" height="222.75px" width="102.65px" xmlns="http://www.w3.org/2000/svg">
  <g transform="matrix(1.0, 0.0, 0.0, 1.0, 526.85, 47.5)">
    <path d="M-461.0 -10.0 Q-464.85 0.8 -468.1 14.45 -472.0 30.8 -472.0 39.5 -472.0 46.0 -470.7 53.8 L-479.05 51.15 Q-495.9 45.45 -503.6 37.15 -511.3 28.95 -510.2 18.95 -509.05 9.0 -503.45 -4.4 -488.35 -39.45 -465.5 -47.35 -459.5 -47.8 -452.1 -47.0 L-451.2 -46.95 -446.3 -46.05 -445.35 -45.8 -443.75 -45.35 Q-441.05 -44.7 -437.8 -43.1 L-449.5 -30.85 Q-456.7 -22.05 -461.0 -10.0 M-464.5 77.0 Q-461.65 83.8 -457.65 91.6 -454.45 98.4 -452.0 108.0 -447.75 124.25 -437.0 135.5 L-430.85 141.3 -425.5 146.0 -424.2 147.3 Q-430.3 153.25 -437.9 159.35 L-438.3 159.55 -451.3 166.35 Q-456.4 168.85 -464.7 172.0 -475.0 175.95 -488.05 175.1 -501.05 174.3 -507.5 166.4 -513.9 158.5 -521.05 144.1 -526.7 125.95 -526.85 114.9 -526.95 103.8 -524.85 94.2 -522.75 84.65 -515.8 80.4 -506.35 74.6 -486.9 72.45 L-466.5 71.55 -464.5 77.0" fill="#e58508" fill-rule="evenodd" stroke="none"/>
  </g>
</svg>
