<?xml version="1.0" encoding="UTF-8" standalone="no"?>
<svg xmlns:ffdec="https://www.free-decompiler.com/flash" xmlns:xlink="http://www.w3.org/1999/xlink" ffdec:objectType="shape" height="241.0px" width="396.3px" xmlns="http://www.w3.org/2000/svg">
  <g transform="matrix(1.0, 0.0, 0.0, 1.0, 526.65, 51.0)">
    <path d="M-463.4 -6.9 L-460.9 -10.2 Q-460.15 6.3 -454.85 22.15 L-448.7 38.7 Q-444.5 49.85 -442.0 58.0 -437.95 71.1 -426.5 83.85 -421.8 89.1 -414.0 96.45 L-414.0 97.5 -414.0 98.5 Q-413.35 120.2 -384.05 133.0 -372.7 137.95 -358.9 140.65 -347.15 143.0 -338.0 143.0 -334.5 143.0 -320.85 139.6 L-321.95 138.05 Q-333.3 122.25 -334.8 100.55 L-334.0 100.55 Q-327.8 99.25 -322.55 97.5 L-320.15 99.8 -318.75 101.05 -310.1 106.9 -298.5 112.35 -291.75 114.2 -283.55 113.95 Q-276.4 112.3 -269.35 108.55 -265.4 106.45 -262.25 104.05 -259.75 106.35 -256.8 107.9 L-256.3 108.15 -256.9 110.95 Q-259.55 122.55 -264.85 132.35 -270.5 142.7 -277.75 148.55 -282.7 152.55 -287.9 154.05 -278.1 159.9 -259.75 166.65 -231.9 176.85 -218.5 176.85 -198.85 176.85 -186.35 167.6 -176.05 160.05 -166.95 142.9 -161.45 132.6 -149.95 107.2 -140.55 87.85 -130.35 72.6 L-130.4 73.6 Q-133.2 92.2 -142.95 109.45 L-158.8 141.4 -158.85 141.45 Q-170.75 170.8 -181.1 176.9 -183.4 180.8 -187.35 185.2 L-196.85 186.8 -206.1 188.65 Q-265.55 196.15 -298.5 161.35 -335.25 167.0 -376.4 165.9 -394.75 163.5 -411.1 154.75 -417.85 151.15 -423.65 146.9 -429.85 153.05 -437.7 159.35 L-438.1 159.55 Q-445.1 163.4 -451.1 166.35 L-457.15 169.1 -464.5 172.0 Q-474.8 175.95 -487.85 175.1 -500.85 174.3 -507.3 166.4 -513.7 158.5 -520.85 144.1 -526.5 125.95 -526.65 114.9 -526.7 107.25 -525.75 100.35 -523.25 112.55 -521.6 118.95 -517.55 134.75 -512.3 144.8 -499.25 169.85 -472.5 169.85 -467.1 169.85 -458.25 166.0 L-464.35 148.25 Q-469.0 133.45 -469.0 119.5 L-468.75 101.55 Q-468.2 94.4 -465.9 86.0 L-474.5 65.55 -474.8 52.5 -478.85 51.15 Q-495.7 45.45 -503.4 37.15 -511.1 28.95 -510.0 18.95 -509.05 10.8 -505.15 0.3 L-506.0 8.5 Q-506.0 25.45 -492.0 37.1 -484.3 43.5 -474.95 46.75 L-475.0 42.85 Q-476.15 30.75 -471.6 16.95 L-470.5 13.9 -463.4 -6.85 -463.4 -6.9 M-279.6 -25.05 Q-243.5 -51.0 -229.5 -51.0 -220.65 -51.0 -191.7 -18.7 -177.85 -3.25 -160.9 17.5 L-161.25 17.3 Q-181.2 4.9 -198.6 -11.55 L-220.35 -32.55 Q-225.5 -37.65 -228.75 -43.45 L-231.85 -40.6 -232.05 -40.55 -243.85 -32.1 -240.25 -28.55 Q-258.7 -17.15 -272.5 -10.45 -296.6 1.3 -316.0 4.0 -314.05 1.85 -304.0 -6.3 -291.75 -16.3 -279.6 -25.05" fill="#000000" fill-opacity="0.4" fill-rule="evenodd" stroke="none"/>
  </g>
</svg>
