<?xml version="1.0" encoding="UTF-8" standalone="no"?>
<svg xmlns:ffdec="https://www.free-decompiler.com/flash" xmlns:xlink="http://www.w3.org/1999/xlink" ffdec:objectType="shape" height="212.75px" width="77.8px" xmlns="http://www.w3.org/2000/svg">
  <g transform="matrix(1.0, 0.0, 0.0, 1.0, 434.05, 47.5)">
    <path d="M-400.6 -15.1 Q-413.5 8.8 -413.5 35.0 L-413.25 43.3 Q-417.75 40.45 -420.8 37.15 -428.5 28.95 -427.4 18.95 -426.25 9.0 -420.65 -4.4 -405.55 -39.45 -382.7 -47.35 -378.05 -47.7 -372.5 -47.3 -389.25 -36.1 -400.6 -15.1 M-398.0 90.75 Q-398.0 93.8 -393.5 108.6 -388.5 125.25 -384.5 131.5 -380.05 138.45 -366.8 148.05 L-356.25 155.25 -358.5 156.35 Q-363.6 158.85 -371.9 162.0 -382.2 165.95 -395.25 165.1 -408.25 164.3 -414.7 156.4 -421.1 148.5 -428.25 134.1 -433.9 115.95 -434.05 104.9 -434.15 93.8 -432.05 84.2 -429.95 74.65 -423.0 70.4 -417.85 67.25 -409.75 65.2 -405.85 78.15 -397.0 88.0 -398.0 89.0 -398.0 90.75" fill="#e58508" fill-rule="evenodd" stroke="none"/>
  </g>
</svg>
