<?xml version="1.0" encoding="UTF-8" standalone="no"?>
<svg xmlns:ffdec="https://www.free-decompiler.com/flash" xmlns:xlink="http://www.w3.org/1999/xlink" ffdec:objectType="shape" height="341.75px" width="245.5px" xmlns="http://www.w3.org/2000/svg">
  <g transform="matrix(1.0, 0.0, 0.0, 1.0, 433.85, 138.25)">
    <path d="M-413.5 -18.35 L-416.2 -10.95 Q-422.25 5.9 -422.25 12.5 -422.25 18.35 -416.5 27.6 -416.4 31.45 -415.9 35.3 L-417.0 40.5 -420.6 37.15 Q-428.3 28.95 -427.2 18.95 -426.05 9.0 -420.45 -4.4 -417.15 -12.05 -413.5 -18.35 M-294.65 -138.25 Q-286.75 -135.45 -270.6 -122.05 -260.25 -113.5 -250.25 -104.0 -242.85 -97.95 -234.55 -93.25 L-224.4 -87.4 Q-220.4 -84.5 -218.9 -80.1 -217.25 -75.2 -217.25 -65.0 -217.25 -49.35 -222.3 -29.05 -228.7 -3.0 -238.25 -3.0 -243.45 -3.0 -246.25 -19.0 -248.25 -30.35 -248.25 -41.0 -248.25 -55.1 -245.8 -63.9 -243.85 -70.75 -240.15 -75.7 L-236.45 -73.3 -233.3 -82.1 -239.1 -85.65 -274.45 -114.6 Q-283.95 -124.1 -293.0 -134.1 -294.65 -136.0 -294.65 -138.25 M-298.85 79.3 L-297.95 72.65 Q-298.2 80.3 -295.4 89.55 L-294.75 91.35 -290.2 100.7 -282.9 111.25 -278.0 116.25 Q-277.1 118.1 -270.75 120.1 -263.75 122.25 -255.8 122.5 L-247.4 122.2 Q-246.35 125.4 -244.6 128.2 -243.05 130.75 -240.2 132.4 -238.4 133.5 -236.5 133.9 L-234.7 134.05 -236.95 138.65 Q-246.65 157.0 -261.25 157.0 -280.1 157.0 -290.2 138.0 -296.6 125.9 -298.5 108.6 -299.25 101.5 -299.25 93.5 -299.25 84.15 -298.85 79.3 M-302.1 170.65 L-299.3 168.55 -318.0 168.4 Q-336.35 166.0 -352.7 157.25 L-356.2 155.3 -358.3 156.35 Q-363.4 158.85 -371.7 162.0 -374.35 163.05 -377.25 163.75 -385.4 165.75 -395.05 165.1 -408.05 164.3 -414.5 156.4 -420.9 148.5 -428.05 134.1 -433.35 117.05 -433.85 106.25 -430.1 123.2 -424.05 135.75 -413.3 158.0 -398.25 158.0 L-391.8 157.5 -387.0 157.1 Q-398.8 147.7 -406.25 133.95 -418.25 111.8 -418.25 80.5 L-418.1 71.35 -417.45 67.75 -416.6 67.4 -414.45 85.35 -401.6 109.1 -390.3 119.85 -387.6 121.1 Q-384.2 118.85 -379.25 121.35 L-371.2 116.5 -367.4 116.25 -357.7 113.3 -348.0 111.85 Q-338.65 116.55 -336.25 119.0 -312.15 143.65 -285.85 153.85 -262.75 162.85 -231.25 162.85 L-224.4 162.25 -213.35 157.4 Q-198.8 151.65 -188.5 151.1 L-190.1 151.75 Q-189.25 152.15 -188.35 152.6 -191.3 153.8 -193.8 155.65 -213.65 169.4 -235.3 180.25 L-257.2 191.15 -265.5 194.8 Q-292.55 206.45 -303.8 202.5 -314.35 203.35 -324.95 202.2 -357.25 198.65 -388.45 189.25 -397.25 186.6 -404.15 180.65 -406.35 178.75 -403.5 177.85 L-401.8 177.35 Q-384.6 172.55 -365.8 173.9 L-330.2 174.55 -330.1 174.6 Q-316.9 173.85 -307.45 174.6 L-302.1 170.65" fill="#000000" fill-opacity="0.4" fill-rule="evenodd" stroke="none"/>
  </g>
</svg>
