<?xml version="1.0" encoding="UTF-8" standalone="no"?>
<svg xmlns:ffdec="https://www.free-decompiler.com/flash" xmlns:xlink="http://www.w3.org/1999/xlink" ffdec:objectType="shape" height="213.45px" width="98.25px" xmlns="http://www.w3.org/2000/svg">
  <g transform="matrix(1.0, 0.0, 0.0, 1.0, 101.6, 76.65)">
    <path d="M-101.6 -53.8 L-100.35 -55.1 -99.95 -55.35 Q-93.5 -59.95 -87.9 -63.55 -83.1 -66.65 -75.25 -70.8 -65.55 -75.9 -52.5 -76.6 -39.5 -77.3 -32.15 -70.2 -24.9 -63.15 -16.1 -49.7 -8.35 -32.4 -6.9 -21.45 -5.5 -10.45 -6.45 -0.7 -7.45 9.05 -13.8 14.05 -21.85 20.4 -38.8 24.7 -41.45 16.5 -45.95 7.5 -56.55 -13.45 -68.5 -22.0 -76.45 -27.65 -79.7 -30.85 -82.25 -33.25 -89.0 -41.5 -94.4 -48.0 -101.2 -53.45 L-101.6 -53.8 M-35.8 36.8 Q-20.05 40.45 -12.05 47.3 -3.45 54.55 -3.35 64.55 -3.35 74.55 -7.3 88.55 -18.2 125.05 -39.9 135.6 L-53.2 136.8 -54.1 136.8 -59.1 136.55 -60.05 136.4 -61.7 136.15 Q-64.35 135.85 -67.55 134.75 L-54.95 118.6 Q-47.55 108.6 -45.0 100.5 -39.65 83.35 -37.6 73.1 -35.0 60.15 -35.0 46.5 -35.0 41.8 -35.8 36.8" fill="#e58508" fill-rule="evenodd" stroke="none"/>
  </g>
</svg>
