<?xml version="1.0" encoding="UTF-8" standalone="no"?>
<svg xmlns:ffdec="https://www.free-decompiler.com/flash" xmlns:xlink="http://www.w3.org/1999/xlink" ffdec:objectType="shape" height="287.05px" width="384.55px" xmlns="http://www.w3.org/2000/svg">
  <g transform="matrix(1.0, 0.0, 0.0, 1.0, 390.1, 101.85)">
    <path d="M-236.25 -17.5 L-238.7 -18.95 Q-227.5 -36.85 -212.1 -51.55 -189.35 -73.3 -164.6 -79.95 -151.2 -83.6 -107.8 -92.15 -76.8 -98.3 -62.3 -101.85 -61.2 -100.85 -63.1 -99.6 -79.1 -89.9 -98.5 -86.2 L-133.0 -77.7 -133.15 -77.7 Q-141.95 -74.8 -149.15 -73.1 L-139.3 -71.85 Q-144.65 -69.75 -150.8 -65.5 -156.15 -61.8 -174.95 -45.85 -191.1 -32.15 -201.95 -26.0 -217.9 -16.95 -232.6 -16.95 -234.9 -16.95 -236.25 -17.5 M-15.6 -49.65 Q-7.85 -32.35 -6.4 -21.4 -5.0 -10.4 -5.95 -0.65 -6.95 9.1 -13.3 14.1 -21.35 20.45 -38.4 24.75 L-40.0 19.9 Q-29.4 14.65 -23.85 9.45 -12.6 -1.0 -12.6 -17.45 -12.6 -31.4 -23.6 -53.65 L-31.15 -68.4 -32.3 -70.75 -31.65 -70.15 Q-24.4 -63.1 -15.6 -49.65 M-37.0 41.1 L-34.5 47.45 -29.95 58.95 Q-27.6 66.95 -27.6 82.55 -27.6 97.8 -36.0 118.8 -38.2 124.3 -40.5 129.15 -28.0 124.55 -18.15 112.1 -15.1 108.25 -12.1 103.3 -22.45 127.4 -39.4 135.65 L-44.3 136.35 -52.7 136.85 -53.6 136.85 -58.6 136.6 -59.55 136.45 -60.65 136.3 -76.15 151.5 -77.1 152.25 -81.75 154.25 -83.05 155.8 Q-112.15 190.4 -155.75 184.25 L-158.55 183.85 Q-186.75 178.55 -211.25 171.3 -224.7 179.65 -245.25 184.05 L-291.85 182.1 -292.1 182.2 -294.1 180.6 Q-302.5 181.8 -315.95 180.75 L-360.65 171.9 Q-373.5 167.95 -386.1 163.45 -388.95 162.4 -389.85 159.7 -390.55 158.55 -389.45 158.25 L-389.2 158.2 Q-371.0 163.3 -350.3 166.7 -324.65 170.9 -304.7 170.9 -290.6 170.9 -282.65 168.95 -268.7 165.45 -268.7 155.9 -268.7 152.35 -270.65 149.5 L-271.9 147.35 Q-269.2 147.75 -265.7 148.95 L-265.6 149.0 Q-267.7 144.45 -267.7 139.55 L-267.2 135.5 -267.05 134.6 Q-261.4 140.85 -254.75 141.4 L-246.2 142.75 -227.4 141.4 -222.5 140.05 -222.25 140.1 Q-201.55 134.3 -196.55 117.4 L-196.25 119.6 Q-195.6 124.7 -195.6 126.55 -195.6 146.6 -203.55 156.95 L-205.95 159.65 -204.2 160.4 Q-198.8 162.9 -191.1 162.9 -167.95 162.9 -155.95 160.25 -139.8 156.7 -132.6 147.05 L-128.3 147.9 Q-118.1 149.0 -104.65 142.0 -89.7 134.3 -74.65 118.85 -59.95 103.75 -50.65 87.0 -44.4 75.8 -42.05 66.4 -40.8 61.45 -40.65 57.05 L-37.0 41.1" fill="#000000" fill-opacity="0.4" fill-rule="evenodd" stroke="none"/>
  </g>
</svg>
