<?xml version="1.0" encoding="UTF-8" standalone="no"?>
<svg xmlns:ffdec="https://www.free-decompiler.com/flash" xmlns:xlink="http://www.w3.org/1999/xlink" ffdec:objectType="shape" height="405.8px" width="234.6px" xmlns="http://www.w3.org/2000/svg">
  <g transform="matrix(1.0, 0.0, 0.0, 1.0, 122.5, 165.2)">
    <path d="M-44.0 -140.0 L-41.25 -145.0 Q-40.75 -152.0 -25.25 -148.25 1.0 -193.25 49.5 -118.75 L65.5 -109.25 Q76.75 -101.75 82.0 -91.75 104.25 -86.75 89.25 -42.0 123.25 17.75 102.0 103.25 86.75 151.25 23.5 183.25 L20.0 185.25 16.95 186.4 Q8.8 189.2 0.35 190.5 -27.65 194.4 -50.5 178.5 L-50.8 179.2 Q-56.8 190.55 -63.5 201.5 -76.85 221.55 -94.95 237.1 -98.1 239.8 -102.0 240.5 -103.8 240.6 -104.5 238.65 -105.55 235.65 -105.5 232.25 L-104.75 194.5 -103.45 177.35 Q-102.7 168.75 -102.3 160.25 -101.3 139.5 -90.5 122.25 L-90.25 119.0 -90.75 118.5 -90.0 110.75 Q-86.8 101.6 -88.5 91.8 -89.35 87.0 -89.5 82.15 -91.0 38.9 -81.6 -3.45 -75.0 -33.2 -64.5 -61.75 L-63.25 -61.5 -59.75 -69.0 -52.5 -93.0 -49.25 -96.25 Q-57.15 -111.55 -50.75 -127.45 -49.65 -130.25 -47.75 -132.75 L-45.25 -133.5 -44.0 -140.0" fill="#2e47aa" fill-rule="evenodd" stroke="none"/>
    <path d="M-52.5 -93.0 L-59.75 -69.0 -63.25 -61.5 -64.5 -61.75 -73.25 -65.5 -92.45 -76.9 Q-97.9 -80.25 -100.2 -86.05 -101.65 -89.75 -101.5 -93.85 -100.95 -108.25 -91.95 -120.0 -87.9 -125.25 -81.35 -127.4 -67.4 -132.15 -53.0 -129.75 -53.75 -128.5 -53.5 -127.0 L-57.25 -123.0 Q-62.5 -121.35 -62.5 -115.75 L-61.0 -112.5 Q-60.75 -98.0 -52.5 -93.0 M-90.0 110.75 L-90.75 118.5 -90.25 119.0 -90.5 122.25 Q-101.3 139.5 -102.3 160.25 -102.7 168.75 -103.45 177.35 L-104.75 194.5 Q-133.0 177.5 -116.25 127.25 -107.5 107.0 -95.75 101.75 L-90.0 110.75 M-63.5 201.5 Q-56.8 190.55 -50.8 179.2 L-50.5 178.5 Q-27.65 194.4 0.35 190.5 8.8 189.2 16.95 186.4 L13.25 187.75 -13.75 194.75 -44.25 200.0 -63.5 201.5" fill="#e58508" fill-rule="evenodd" stroke="none"/>
    <path d="M-44.0 -140.0 L-45.25 -133.5 -47.75 -132.75 Q-49.65 -130.25 -50.75 -127.45 -57.15 -111.55 -49.25 -96.25 L-52.5 -93.0 Q-60.75 -98.0 -61.0 -112.5 L-57.25 -120.25 -57.25 -123.0 -53.5 -127.0 Q-53.75 -128.5 -53.0 -129.75 -50.0 -136.0 -47.0 -138.25 L-44.0 -140.0 M-64.5 -61.75 Q-75.0 -33.2 -81.6 -3.45 -91.0 38.9 -89.5 82.15 -89.35 87.0 -88.5 91.8 -86.8 101.6 -90.0 110.75 L-95.75 101.75 -99.0 96.0 -104.0 83.25 -105.75 54.0 Q-98.25 21.25 -73.25 -65.5 L-64.5 -61.75" fill="#ffffff" fill-rule="evenodd" stroke="none"/>
    <path d="M-47.0 -138.25 Q-50.0 -136.0 -53.0 -129.75 -55.0 -137.0 -47.0 -138.25 M-61.0 -112.5 L-62.5 -115.75 Q-62.5 -121.35 -57.25 -123.0 L-57.25 -120.25 -61.0 -112.5" fill="#31333d" fill-rule="evenodd" stroke="none"/>
    <path d="M-99.3 -83.0 Q-105.25 -90.15 -101.75 -96.5 -104.65 -89.9 -98.3 -83.0 -89.45 -73.35 -62.5 -63.0 L-66.25 -55.0 -75.0 -50.75 Q-80.75 -45.0 -84.75 -20.5 -83.65 -32.7 -73.0 -65.5 -92.45 -74.75 -99.3 -83.0 M105.5 7.5 Q127.75 72.0 74.75 147.25 34.25 196.5 -63.5 201.5 L-77.75 220.0 -93.25 235.5 -100.0 240.5 Q-103.0 241.0 -104.25 239.25 L-105.25 232.25 Q-103.0 236.75 -96.0 235.0 L-96.25 234.5 Q-51.7 185.6 -48.75 173.0 -33.25 142.75 -47.0 138.75 -26.85 103.9 -8.25 50.5 -14.7 76.5 -39.25 165.75 5.5 193.0 78.0 133.0 123.75 64.75 105.5 7.5 M97.25 -20.0 L99.75 -14.25 104.0 2.0 97.25 -20.0 M95.5 -72.5 L94.75 -73.25 94.5 -76.5 95.5 -72.5 M66.0 -93.0 L72.0 -92.75 Q86.25 -93.05 85.0 -82.25 81.75 -77.25 82.5 -65.25 94.75 -63.5 95.75 -72.0 L95.5 -56.0 89.5 -42.0 75.5 -75.25 66.0 -93.0 M-85.0 -20.0 Q-90.45 5.1 -93.25 7.25 L-87.75 -12.75 Q-86.15 -19.6 -85.0 -20.0 M-120.5 171.5 L-121.25 171.25 -122.25 165.0 -121.25 166.25 -120.5 171.5 M-119.7 175.55 Q-113.9 183.7 -105.1 189.0 -104.65 189.35 -104.0 189.5 L-103.75 179.0 Q-102.65 202.9 -104.75 226.75 L-104.25 194.75 Q-115.35 187.95 -119.7 175.55 M-100.0 142.75 L-98.5 139.0 -98.25 140.75 Q-101.25 148.25 -100.25 149.5 -101.5 148.75 -100.0 142.75 M-89.25 96.5 Q-89.1 34.4 -82.5 5.0 -86.0 25.35 -83.5 77.5 -93.1 116.2 -89.05 123.25 -90.6 121.6 -92.25 123.25 L-96.0 132.5 -107.75 113.25 Q-108.0 110.75 -100.25 104.0 L-95.25 101.5 Q-103.3 98.15 -105.75 55.5 -105.0 39.5 -99.25 28.5 -113.25 67.25 -89.25 96.5 M-98.0 25.0 L-98.25 26.0 -98.75 25.0 -98.0 25.0 M-93.75 9.0 L-92.75 8.5 -97.75 24.5 -98.25 24.25 -93.75 9.0" fill="#000000" fill-opacity="0.49803922" fill-rule="evenodd" stroke="none"/>
  </g>
</svg>
