<?xml version="1.0" encoding="UTF-8" standalone="no"?>
<svg xmlns:ffdec="https://www.free-decompiler.com/flash" xmlns:xlink="http://www.w3.org/1999/xlink" ffdec:objectType="shape" height="189.5px" width="308.15px" xmlns="http://www.w3.org/2000/svg">
  <g transform="matrix(1.0, 0.0, 0.0, 1.0, 153.9, 72.5)">
    <path d="M83.95 -72.5 Q106.5 -52.95 126.05 -26.1 143.3 -2.35 154.25 21.85 152.95 39.6 145.5 66.85 137.9 94.6 131.5 108.0 129.0 106.35 126.9 100.55 125.0 95.35 125.0 92.0 L124.25 86.2 123.5 81.25 Q123.5 77.35 122.25 66.8 121.0 56.2 121.0 51.75 L121.4 36.15 116.85 31.9 109.85 26.3 Q107.15 2.5 99.55 -24.1 95.9 -36.95 89.3 -56.45 L83.95 -72.5 M-82.4 -72.1 Q-90.25 -57.1 -97.15 -37.5 -109.45 -2.6 -112.1 23.6 -121.1 36.8 -124.55 52.0 -125.5 56.2 -132.95 82.75 -137.95 101.9 -139.35 112.85 -141.4 117.0 -143.25 117.0 L-144.55 116.8 Q-147.2 109.75 -149.15 101.9 -153.9 82.6 -153.9 60.45 -153.9 37.2 -145.4 13.0 -137.35 -9.7 -122.9 -30.4 -108.9 -50.45 -91.2 -65.3 -86.8 -68.95 -82.4 -72.1" fill="#2e47aa" fill-rule="evenodd" stroke="none"/>
  </g>
</svg>
