<?xml version="1.0" encoding="UTF-8" standalone="no"?>
<svg xmlns:ffdec="https://www.free-decompiler.com/flash" xmlns:xlink="http://www.w3.org/1999/xlink" ffdec:objectType="shape" height="181.25px" width="288.15px" xmlns="http://www.w3.org/2000/svg">
  <g transform="matrix(1.0, 0.0, 0.0, 1.0, 136.4, 72.25)">
    <path d="M127.45 -24.3 Q142.45 -1.95 151.75 21.9 149.05 29.45 140.85 38.95 136.15 44.35 120.5 59.0 L99.65 76.3 Q78.05 93.5 73.75 93.5 L72.0 92.5 Q70.5 91.45 70.5 91.0 70.5 81.5 93.6 48.0 101.35 36.75 109.8 25.3 106.35 0.8 99.95 -23.65 93.45 -48.45 84.15 -72.25 107.85 -53.55 127.45 -24.3 M-86.0 -68.75 Q-91.0 -49.45 -94.65 -27.15 -100.0 6.05 -100.0 33.0 L-100.0 34.05 Q-96.75 48.85 -91.25 65.45 -86.3 80.35 -77.5 102.0 L-77.5 103.0 -78.0 106.0 Q-78.8 109.0 -80.25 109.0 -82.6 109.0 -84.7 107.9 -105.95 85.4 -116.1 70.2 -129.65 50.0 -136.4 27.15 -132.25 2.75 -119.6 -22.1 -105.9 -49.05 -86.0 -68.75" fill="#2e47aa" fill-rule="evenodd" stroke="none"/>
  </g>
</svg>
