<?xml version="1.0" encoding="UTF-8" standalone="no"?>
<svg xmlns:ffdec="https://www.free-decompiler.com/flash" xmlns:xlink="http://www.w3.org/1999/xlink" ffdec:objectType="shape" height="190.85px" width="261.45px" xmlns="http://www.w3.org/2000/svg">
  <g transform="matrix(1.0, 0.0, 0.0, 1.0, 104.0, 71.35)">
    <path d="M100.6 -54.9 Q115.95 -38.2 129.2 -17.5 143.2 4.45 151.2 25.5 155.25 36.15 157.45 45.8 155.95 52.3 150.35 55.1 L143.75 55.5 126.05 53.9 Q110.75 52.1 97.05 49.5 61.5 42.8 58.35 35.45 67.15 29.3 89.45 26.35 L106.35 24.75 Q104.9 6.6 92.55 -38.8 L83.45 -71.35 Q91.6 -64.65 100.6 -54.9 M-98.4 -38.55 Q-94.1 -56.35 -87.65 -69.2 -86.5 -51.2 -81.3 -26.35 -74.75 5.15 -63.85 37.55 -52.35 71.7 -39.45 96.7 -33.4 108.4 -27.55 117.05 -27.85 119.5 -30.0 119.5 -35.95 119.5 -57.4 99.9 -75.05 83.75 -80.5 77.0 -92.1 62.5 -99.8 47.35 L-100.5 44.0 Q-101.55 39.1 -102.75 27.15 -104.0 14.6 -104.0 7.5 -104.0 -15.3 -98.4 -38.55" fill="#2e47aa" fill-rule="evenodd" stroke="none"/>
  </g>
</svg>
