<?xml version="1.0" encoding="UTF-8" standalone="no"?>
<svg xmlns:ffdec="https://www.free-decompiler.com/flash" xmlns:xlink="http://www.w3.org/1999/xlink" ffdec:objectType="shape" height="181.85px" width="251.0px" xmlns="http://www.w3.org/2000/svg">
  <g transform="matrix(1.0, 0.0, 0.0, 1.0, 93.5, 70.35)">
    <path d="M72.0 -5.5 Q72.0 -9.0 78.5 -9.0 81.45 -9.0 104.55 2.55 L105.2 2.85 Q102.25 -15.65 97.25 -33.95 92.4 -51.7 85.5 -69.65 L95.85 -60.05 Q111.8 -44.55 124.95 -27.45 157.5 14.85 157.5 45.5 157.5 53.2 156.5 55.05 154.9 58.0 148.25 58.0 140.8 58.0 123.7 44.7 116.95 39.45 103.0 27.0 L81.65 7.45 Q75.95 1.55 72.35 -3.9 72.0 -4.9 72.0 -5.5 M19.2 103.15 Q23.5 108.05 23.5 110.25 L23.25 111.15 23.0 111.5 20.5 111.5 Q-21.1 97.8 -47.2 79.15 -67.5 64.65 -81.25 45.7 L-84.6 35.8 Q-93.5 6.95 -93.5 -21.5 -93.5 -36.95 -90.3 -55.0 -89.2 -61.4 -87.15 -70.35 -74.15 -17.25 -47.9 26.35 -30.25 55.6 -7.55 79.05 5.05 92.0 19.2 103.15" fill="#2e47aa" fill-rule="evenodd" stroke="none"/>
  </g>
</svg>
