<?xml version="1.0" encoding="UTF-8" standalone="no"?>
<svg xmlns:ffdec="https://www.free-decompiler.com/flash" xmlns:xlink="http://www.w3.org/1999/xlink" ffdec:objectType="shape" height="163.25px" width="240.0px" xmlns="http://www.w3.org/2000/svg">
  <g transform="matrix(1.0, 0.0, 0.0, 1.0, 102.0, 70.75)">
    <path d="M57.0 -10.5 L60.5 -11.0 Q68.1 -11.0 93.25 1.3 L94.0 1.7 Q93.85 -14.7 87.75 -51.8 L84.5 -70.75 92.15 -62.9 Q104.65 -49.3 115.0 -32.5 125.6 -15.35 131.6 1.35 138.0 19.15 138.0 33.25 138.0 42.0 136.5 46.5 134.2 53.5 128.0 53.5 122.7 53.5 110.25 45.3 98.6 37.6 85.5 26.0 72.05 14.05 63.5 3.65 57.05 -4.2 55.0 -9.4 55.6 -10.1 57.0 -10.5 M-91.9 -62.05 Q-89.75 -64.85 -87.2 -68.9 -80.35 -14.5 -62.45 20.85 -43.6 58.0 -5.55 88.55 L-5.5 89.5 Q-5.5 90.65 -6.5 91.5 -7.65 92.5 -9.5 92.5 -16.1 92.5 -39.2 79.55 -52.25 72.2 -63.5 65.0 -82.15 52.5 -88.65 45.85 -93.45 40.9 -98.2 33.2 L-99.4 26.55 Q-102.0 10.25 -102.0 -12.75 -102.0 -31.35 -95.8 -51.3 -94.05 -56.95 -91.9 -62.05" fill="#2e47aa" fill-rule="evenodd" stroke="none"/>
  </g>
</svg>
