<?xml version="1.0" encoding="UTF-8" standalone="no"?>
<svg xmlns:ffdec="https://www.free-decompiler.com/flash" xmlns:xlink="http://www.w3.org/1999/xlink" ffdec:objectType="shape" height="153.45px" width="261.55px" xmlns="http://www.w3.org/2000/svg">
  <g transform="matrix(1.0, 0.0, 0.0, 1.0, 143.05, 71.1)">
    <path d="M21.95 -16.35 L24.25 -16.5 Q34.75 -16.5 65.45 -0.95 72.95 2.85 78.9 6.0 80.6 -2.95 82.4 -17.2 85.5 -41.95 85.5 -53.25 85.5 -61.9 84.4 -71.1 94.55 -57.8 102.1 -42.6 118.5 -9.6 118.5 24.25 118.5 38.85 115.5 44.5 111.25 52.5 98.5 52.5 93.75 52.5 80.85 43.7 69.1 35.7 55.0 23.5 40.95 11.35 31.65 1.2 21.5 -9.95 21.5 -14.0 21.5 -15.15 21.95 -16.35 M-87.0 -69.0 Q-93.1 -53.85 -97.8 -32.55 -105.2 0.7 -105.5 29.75 -92.9 43.85 -74.0 57.05 -60.5 66.1 -55.9 69.45 -48.5 74.8 -48.5 77.75 -48.5 80.4 -51.0 82.05 L-51.45 82.35 Q-60.15 81.6 -73.05 77.65 -89.75 72.5 -105.0 64.5 -122.35 55.4 -132.4 45.25 -140.75 36.8 -143.05 28.5 -141.6 18.6 -137.7 6.9 -131.25 -12.35 -120.35 -30.3 -108.6 -49.7 -94.45 -62.75 L-87.0 -69.0" fill="#2e47aa" fill-rule="evenodd" stroke="none"/>
  </g>
</svg>
