<?xml version="1.0" encoding="UTF-8" standalone="no"?>
<svg xmlns:ffdec="https://www.free-decompiler.com/flash" xmlns:xlink="http://www.w3.org/1999/xlink" ffdec:objectType="shape" height="176.75px" width="257.45px" xmlns="http://www.w3.org/2000/svg">
  <g transform="matrix(1.0, 0.0, 0.0, 1.0, 149.45, 72.25)">
    <path d="M82.0 -47.95 Q84.1 -61.2 85.9 -69.95 91.8 -57.55 97.4 -37.8 108.0 -0.1 108.0 26.75 108.0 32.65 105.6 41.3 104.15 44.25 102.55 46.5 101.15 48.45 99.35 50.2 94.85 52.5 89.0 52.5 83.95 52.5 68.6 47.65 52.15 42.5 36.0 35.5 3.8 21.5 -4.55 10.45 -3.05 8.9 1.0 8.0 5.45 7.0 10.75 7.0 L20.5 7.75 30.0 8.5 Q39.6 8.5 55.5 11.9 L68.0 14.95 Q73.55 0.15 77.25 -19.4 L82.0 -47.95 M-83.8 -72.25 Q-96.1 -40.95 -102.6 -18.8 -109.85 5.75 -113.85 31.15 -111.65 46.25 -105.25 68.75 L-98.55 90.95 Q-95.5 100.75 -95.5 101.75 -95.5 104.5 -98.25 104.5 -102.65 104.5 -116.25 85.5 -128.05 69.05 -131.0 62.5 -133.45 57.1 -138.2 49.8 -143.35 42.0 -145.4 37.8 -147.7 33.15 -149.45 27.25 -148.75 15.05 -140.05 -2.55 -131.35 -20.1 -117.15 -38.3 -103.1 -56.25 -88.9 -68.2 L-83.8 -72.25" fill="#2e47aa" fill-rule="evenodd" stroke="none"/>
  </g>
</svg>
