<?xml version="1.0" encoding="UTF-8" standalone="no"?>
<svg xmlns:ffdec="https://www.free-decompiler.com/flash" xmlns:xlink="http://www.w3.org/1999/xlink" ffdec:objectType="shape" height="213.2px" width="247.5px" xmlns="http://www.w3.org/2000/svg">
  <g transform="matrix(1.0, 0.0, 0.0, 1.0, 156.0, 72.7)">
    <path d="M78.9 -52.45 L85.35 -69.6 Q91.0 -53.35 91.0 -40.25 L91.5 -26.25 Q91.5 -19.05 87.75 2.5 L84.0 22.75 Q84.0 42.3 52.5 51.5 30.1 58.0 -0.5 58.0 -12.6 58.0 -18.5 57.5 -31.5 56.4 -31.5 53.0 -31.5 44.85 3.85 33.35 22.4 27.3 38.2 23.65 54.65 3.65 65.7 -20.2 71.3 -32.3 78.9 -52.45 M-81.4 -72.7 Q-104.65 -19.0 -123.2 59.45 L-136.05 117.5 Q-141.1 140.5 -143.0 140.5 -144.15 140.5 -145.25 139.6 -147.45 132.25 -149.6 122.4 -156.0 92.8 -156.0 72.75 -156.0 19.1 -131.8 -20.75 -113.35 -51.1 -81.4 -72.7" fill="#2e47aa" fill-rule="evenodd" stroke="none"/>
  </g>
</svg>
