<?xml version="1.0" encoding="UTF-8" standalone="no"?>
<svg xmlns:ffdec="https://www.free-decompiler.com/flash" xmlns:xlink="http://www.w3.org/1999/xlink" ffdec:objectType="shape" height="270.95px" width="235.0px" xmlns="http://www.w3.org/2000/svg">
  <g transform="matrix(1.0, 0.0, 0.0, 1.0, 131.5, 70.45)">
    <path d="M-120.55 -4.1 Q-110.9 -32.1 -86.75 -65.7 -89.55 -39.45 -93.2 12.4 -98.0 79.95 -98.0 90.25 L-96.75 116.65 Q-95.5 141.2 -95.5 144.5 -95.5 148.2 -92.75 169.5 -90.0 190.85 -90.0 196.75 L-90.0 199.0 Q-90.25 200.5 -91.75 200.5 -107.9 200.5 -121.0 144.5 -125.65 124.6 -128.8 102.25 -131.5 83.15 -131.5 75.25 -131.5 27.65 -120.55 -4.1 M85.45 -70.45 L86.25 -68.65 Q87.95 -64.9 97.0 -39.0 99.6 -31.55 101.65 -15.0 103.5 -0.15 103.5 9.0 103.5 25.15 96.9 39.9 L95.85 41.0 Q89.75 47.4 81.25 53.5 L66.5 63.5 Q53.75 72.05 35.5 80.7 12.8 91.5 2.25 91.5 -0.1 91.5 -1.9 90.05 1.9 78.4 31.5 54.8 44.0 44.85 55.05 37.05 64.9 17.85 74.45 -18.5 82.0 -47.35 85.45 -70.45" fill="#2e47aa" fill-rule="evenodd" stroke="none"/>
  </g>
</svg>
