<?xml version="1.0" encoding="UTF-8" standalone="no"?>
<svg xmlns:ffdec="https://www.free-decompiler.com/flash" xmlns:xlink="http://www.w3.org/1999/xlink" ffdec:objectType="shape" height="240.95px" width="247.5px" xmlns="http://www.w3.org/2000/svg">
  <g transform="matrix(1.0, 0.0, 0.0, 1.0, 99.5, 68.95)">
    <path d="M-95.95 -36.45 Q-94.4 -43.65 -86.9 -68.95 -85.2 -50.85 -78.75 -15.4 -72.15 20.65 -65.0 52.5 -55.95 92.5 -48.05 118.35 -42.1 137.75 -30.5 168.5 L-30.5 172.0 Q-64.05 150.15 -82.55 102.05 -99.5 57.85 -99.5 4.25 -99.5 -19.8 -95.95 -36.45 M86.75 -66.1 L95.55 -57.25 Q106.75 -45.4 119.5 -28.5 130.35 -14.0 138.85 5.85 148.0 27.2 148.0 40.75 148.0 43.55 147.2 46.05 L144.0 49.5 Q135.0 57.5 114.75 57.5 97.8 57.5 72.0 54.0 44.2 50.2 37.9 44.7 46.35 36.35 73.4 31.5 87.45 28.95 102.45 27.75 100.75 -0.8 95.9 -27.45 92.2 -47.65 86.75 -66.1" fill="#2e47aa" fill-rule="evenodd" stroke="none"/>
  </g>
</svg>
