<?xml version="1.0" encoding="UTF-8" standalone="no"?>
<svg xmlns:ffdec="https://www.free-decompiler.com/flash" xmlns:xlink="http://www.w3.org/1999/xlink" ffdec:objectType="shape" height="184.7px" width="255.0px" xmlns="http://www.w3.org/2000/svg">
  <g transform="matrix(1.0, 0.0, 0.0, 1.0, 88.0, 70.2)">
    <path d="M24.5 112.5 Q24.5 113.4 24.0 114.0 23.55 114.5 23.0 114.5 13.65 114.5 -20.55 86.75 -33.0 76.65 -44.2 66.55 -54.55 57.15 -56.0 55.0 -67.35 37.95 -76.85 11.65 -88.0 -19.25 -88.0 -42.0 -88.0 -54.0 -86.9 -64.75 L-86.5 -68.3 Q-80.0 -50.4 -70.2 -32.25 -64.4 -21.55 -54.7 -5.65 L-38.5 21.0 Q-28.9 37.2 -1.2 76.5 L24.5 112.5 M73.0 -8.0 Q74.05 -9.0 75.5 -9.0 81.8 -9.0 104.7 4.45 L109.65 7.4 Q103.55 -16.8 95.75 -40.45 90.95 -54.95 85.2 -70.2 L93.15 -63.35 Q109.4 -48.2 126.9 -24.2 144.05 -0.6 155.15 21.45 167.0 45.0 167.0 57.5 167.0 59.35 166.45 61.05 162.2 67.5 153.5 67.5 141.95 67.5 128.7 56.25 124.05 52.35 118.0 46.0 L108.5 36.0 Q97.95 26.75 89.2 18.0 72.0 0.8 72.0 -5.75 72.0 -7.0 73.0 -8.0" fill="#2e47aa" fill-rule="evenodd" stroke="none"/>
  </g>
</svg>
