<?xml version="1.0" encoding="UTF-8" standalone="no"?>
<svg xmlns:ffdec="https://www.free-decompiler.com/flash" xmlns:xlink="http://www.w3.org/1999/xlink" ffdec:objectType="shape" height="157.7px" width="235.1px" xmlns="http://www.w3.org/2000/svg">
  <g transform="matrix(1.0, 0.0, 0.0, 1.0, 87.6, 70.7)">
    <path d="M91.85 -60.15 Q104.2 -46.6 116.15 -30.3 147.5 12.3 147.5 32.75 147.5 42.75 143.0 49.5 138.05 57.0 129.5 57.0 122.95 57.0 115.4 45.5 108.8 35.5 102.5 18.5 96.8 3.15 93.15 -12.9 89.5 -28.65 89.5 -37.5 89.5 -41.0 90.0 -42.5 90.6 -44.3 92.15 -44.45 L87.25 -57.65 Q85.45 -63.1 84.25 -68.15 L91.85 -60.15 M24.5 53.0 Q28.5 57.1 35.45 61.8 39.4 64.55 47.5 69.65 61.65 78.9 63.5 86.0 61.5 87.0 59.75 87.0 44.15 87.0 8.3 69.65 -26.25 52.95 -38.0 41.0 -41.6 37.35 -49.3 25.0 -58.2 10.8 -66.1 -5.0 -85.15 -43.05 -87.6 -68.2 L-86.1 -70.7 Q-73.0 -46.4 -60.7 -31.5 -53.55 -22.85 -41.55 -11.15 L-38.45 -8.15 -35.5 1.75 Q-31.5 13.4 -21.25 20.1 -12.4 25.9 -3.1 26.65 L4.05 33.3 Q17.0 45.3 24.5 53.0" fill="#2e47aa" fill-rule="evenodd" stroke="none"/>
  </g>
</svg>
