<?xml version="1.0" encoding="UTF-8" standalone="no"?>
<svg xmlns:ffdec="https://www.free-decompiler.com/flash" xmlns:xlink="http://www.w3.org/1999/xlink" ffdec:objectType="shape" height="152.25px" width="247.15px" xmlns="http://www.w3.org/2000/svg">
  <g transform="matrix(1.0, 0.0, 0.0, 1.0, 88.15, 68.75)">
    <path d="M14.05 23.85 L15.0 23.5 43.7 48.0 Q82.0 80.95 82.0 81.75 82.0 82.45 80.55 83.0 L77.75 83.5 Q69.9 83.5 53.5 78.0 38.1 72.85 20.1 64.55 -21.55 45.35 -33.5 31.5 -50.05 12.3 -52.6 9.0 -63.25 -4.9 -69.0 -18.5 -74.35 -29.3 -79.6 -42.35 -85.6 -57.35 -88.15 -68.1 L-87.65 -68.75 Q-83.6 -63.75 -79.0 -58.65 L-75.05 -54.35 Q-64.9 -40.95 -53.6 -30.4 -48.15 -25.3 -41.25 -19.75 -40.8 -14.25 -38.5 -8.25 L-35.5 1.75 Q-31.5 13.4 -21.25 20.1 -4.45 31.1 14.05 23.85 M85.45 -68.5 Q92.5 -63.25 100.4 -56.15 115.35 -42.7 127.65 -27.65 159.0 10.65 159.0 40.5 159.0 48.6 155.0 53.5 150.45 59.0 141.75 59.0 131.2 59.0 110.0 15.0 101.85 -1.85 95.9 -17.8 90.0 -33.45 90.0 -38.0 90.0 -39.55 91.0 -41.0 92.05 -42.5 93.25 -42.5 L97.95 -38.35 Q94.95 -46.65 91.65 -54.35 L85.45 -68.5" fill="#2e47aa" fill-rule="evenodd" stroke="none"/>
  </g>
</svg>
