<?xml version="1.0" encoding="UTF-8" standalone="no"?>
<svg xmlns:ffdec="https://www.free-decompiler.com/flash" xmlns:xlink="http://www.w3.org/1999/xlink" ffdec:objectType="shape" height="157.3px" width="217.15px" xmlns="http://www.w3.org/2000/svg">
  <g transform="matrix(1.0, 0.0, 0.0, 1.0, 86.15, 68.8)">
    <path d="M95.0 86.0 L91.65 87.65 Q89.5 88.5 88.0 88.5 69.55 88.5 27.25 68.1 9.25 59.45 -5.6 50.4 -21.0 41.0 -27.5 34.5 -52.85 9.1 -67.9 -19.8 -78.85 -40.85 -86.15 -67.45 -76.1 -54.0 -62.2 -39.95 -52.95 -30.6 -41.25 -20.3 -40.95 -14.6 -38.5 -8.25 L-35.5 1.75 Q-31.5 13.4 -21.25 20.1 -4.45 31.1 14.05 23.85 L14.15 23.85 45.4 47.1 Q78.5 71.6 95.0 86.0 M67.0 -42.0 Q67.45 -45.0 69.75 -45.0 73.9 -45.0 88.4 -25.4 L88.5 -29.5 Q88.5 -40.1 86.45 -56.6 L85.0 -68.8 92.2 -61.3 Q101.7 -50.4 109.5 -34.0 L115.75 -21.35 Q120.1 -12.5 122.8 -6.05 131.0 13.5 131.0 27.75 131.0 38.0 128.0 45.0 124.1 54.0 116.25 54.0 104.0 54.0 95.95 41.55 92.9 36.8 89.6 29.05 L84.0 15.0 Q76.15 -2.35 72.8 -10.85 67.0 -25.6 67.0 -37.25 L67.0 -42.0" fill="#2e47aa" fill-rule="evenodd" stroke="none"/>
  </g>
</svg>
