<?xml version="1.0" encoding="UTF-8" standalone="no"?>
<svg xmlns:ffdec="https://www.free-decompiler.com/flash" xmlns:xlink="http://www.w3.org/1999/xlink" ffdec:objectType="shape" height="167.25px" width="211.15px" xmlns="http://www.w3.org/2000/svg">
  <g transform="matrix(1.0, 0.0, 0.0, 1.0, 87.65, 70.75)">
    <path d="M85.5 94.75 L85.25 95.9 85.0 96.5 75.0 96.5 Q48.05 89.75 17.1 73.5 -21.8 53.05 -38.0 30.5 -60.75 -1.15 -72.25 -24.1 -84.3 -48.3 -87.65 -69.0 L-86.55 -70.75 Q-71.1 -47.55 -53.45 -30.5 -48.25 -25.5 -41.2 -19.45 -40.75 -14.1 -38.5 -8.25 L-35.5 1.75 Q-31.5 13.4 -21.25 20.1 -5.75 30.25 11.25 24.85 L48.4 58.85 Q85.5 93.2 85.5 94.75 M33.5 -19.5 L34.05 -19.75 Q45.0 -16.8 66.65 -1.9 L82.9 9.85 84.25 -8.85 Q86.5 -41.05 86.5 -50.75 86.5 -57.8 85.75 -67.35 95.2 -54.35 103.75 -36.05 112.6 -17.25 117.95 1.5 123.5 21.1 123.5 34.75 123.5 48.05 119.5 56.0 L119.15 56.7 Q114.85 60.5 109.75 60.5 98.4 60.5 86.15 50.9 76.7 43.5 67.5 31.0 L47.1 8.0 Q31.5 -10.0 31.5 -16.5 31.5 -18.4 33.5 -19.5" fill="#2e47aa" fill-rule="evenodd" stroke="none"/>
  </g>
</svg>
