<?xml version="1.0" encoding="UTF-8" standalone="no"?>
<svg xmlns:ffdec="https://www.free-decompiler.com/flash" xmlns:xlink="http://www.w3.org/1999/xlink" ffdec:objectType="shape" height="193.9px" width="219.55px" xmlns="http://www.w3.org/2000/svg">
  <g transform="matrix(1.0, 0.0, 0.0, 1.0, 87.05, 69.4)">
    <path d="M43.55 -1.35 L45.75 -1.5 Q55.5 -1.5 77.55 6.35 L89.45 10.65 89.45 9.8 89.5 -5.5 Q89.5 -29.05 87.75 -42.4 86.0 -55.75 86.0 -63.5 L85.05 -69.4 Q95.7 -55.65 106.15 -36.55 117.75 -15.35 124.8 4.8 132.5 26.65 132.5 41.0 132.5 51.45 129.0 55.5 L127.8 56.7 121.25 57.0 Q117.85 57.0 99.95 45.95 86.65 37.7 81.5 34.0 70.95 26.8 61.55 19.65 43.0 5.5 43.0 1.25 43.0 -0.2 43.55 -1.35 M14.75 44.3 Q31.3 67.35 36.5 73.5 42.45 80.6 64.55 102.3 84.5 121.95 84.5 122.5 84.5 123.45 82.0 124.0 L77.25 124.5 Q52.45 124.5 14.85 95.55 -0.65 83.6 -14.15 69.7 -27.15 56.3 -34.0 45.5 -60.3 4.05 -71.8 -20.85 -83.5 -46.1 -87.05 -66.8 L-81.3 -59.95 Q-72.85 -50.3 -52.5 -31.0 L-41.3 -21.05 Q-41.1 -15.0 -38.5 -8.25 L-35.5 1.75 Q-31.5 13.4 -21.25 20.1 -10.15 27.4 1.75 26.7 L14.75 44.3" fill="#2e47aa" fill-rule="evenodd" stroke="none"/>
  </g>
</svg>
