<?xml version="1.0" encoding="UTF-8" standalone="no"?>
<svg xmlns:ffdec="https://www.free-decompiler.com/flash" xmlns:xlink="http://www.w3.org/1999/xlink" ffdec:objectType="shape" height="209.65px" width="225.7px" xmlns="http://www.w3.org/2000/svg">
  <g transform="matrix(1.0, 0.0, 0.0, 1.0, 87.7, 70.15)">
    <path d="M66.0 139.5 Q40.5 135.7 11.55 110.0 -15.0 86.45 -38.85 49.9 -61.95 14.5 -75.45 -22.0 -85.25 -48.45 -87.7 -69.65 L-87.65 -69.75 -87.3 -70.15 -81.85 -62.25 Q-74.3 -51.85 -59.5 -34.7 L-39.6 -11.5 -38.5 -8.25 -35.5 1.75 Q-31.5 13.4 -21.25 20.1 -16.95 22.9 -12.5 24.55 4.85 52.05 31.25 88.05 54.95 120.35 66.0 139.5 M91.75 -3.8 Q91.35 -22.05 90.35 -34.5 88.9 -52.5 85.45 -69.15 99.1 -54.7 108.5 -35.0 121.5 -7.65 126.55 4.9 138.0 33.45 138.0 48.5 138.0 53.15 135.0 56.5 133.15 58.6 130.8 59.45 126.1 58.1 116.05 53.4 104.6 48.05 91.8 41.0 L86.5 38.0 Q46.5 15.3 46.5 7.75 46.5 6.65 48.5 6.0 50.1 5.5 52.0 5.5 61.1 5.5 83.45 11.5 L92.2 13.9 91.75 -3.8" fill="#2e47aa" fill-rule="evenodd" stroke="none"/>
  </g>
</svg>
