<?xml version="1.0" encoding="UTF-8" standalone="no"?>
<svg xmlns:ffdec="https://www.free-decompiler.com/flash" xmlns:xlink="http://www.w3.org/1999/xlink" ffdec:objectType="shape" height="212.1px" width="230.0px" xmlns="http://www.w3.org/2000/svg">
  <g transform="matrix(1.0, 0.0, 0.0, 1.0, 86.5, 73.1)">
    <path d="M87.6 -67.5 Q101.35 -51.9 114.1 -30.55 127.2 -8.55 135.0 12.5 143.5 35.45 143.5 51.75 143.5 58.05 142.0 62.6 139.05 68.0 135.5 68.0 129.75 68.0 111.8 56.5 96.95 46.95 94.5 44.5 83.2 34.95 74.6 27.0 59.7 13.25 58.2 6.7 59.25 6.0 60.5 6.0 73.45 6.0 91.25 12.4 L96.3 14.35 Q96.3 3.35 95.45 -7.3 94.15 -23.8 90.5 -41.5 88.85 -49.5 86.8 -57.75 84.3 -67.7 82.5 -73.0 L82.5 -73.1 87.6 -67.5 M43.5 138.5 L41.55 138.75 39.75 139.0 Q37.95 139.0 15.9 125.85 -5.4 113.15 -9.5 110.0 -23.65 98.95 -31.1 90.7 -39.1 81.85 -47.5 67.5 -63.4 40.2 -74.1 10.2 -86.5 -24.5 -86.5 -49.0 -86.5 -58.05 -85.55 -69.45 -77.15 -49.6 -62.2 -26.4 L-43.1 2.7 Q-32.55 19.15 -27.0 31.0 -15.55 55.35 7.7 88.2 L26.5 114.2 Q37.45 129.3 43.5 138.5" fill="#2e47aa" fill-rule="evenodd" stroke="none"/>
  </g>
</svg>
