<?xml version="1.0" encoding="UTF-8" standalone="no"?>
<svg xmlns:ffdec="https://www.free-decompiler.com/flash" xmlns:xlink="http://www.w3.org/1999/xlink" ffdec:objectType="shape" height="179.7px" width="213.0px" xmlns="http://www.w3.org/2000/svg">
  <g transform="matrix(1.0, 0.0, 0.0, 1.0, 86.5, 69.7)">
    <path d="M19.5 107.75 L19.5 109.5 Q19.25 110.0 17.5 110.0 3.05 110.0 -26.05 85.3 -37.55 75.55 -47.3 65.2 -56.75 55.2 -60.0 49.5 -73.6 26.05 -80.1 1.4 -86.5 -22.95 -86.5 -50.75 -86.5 -60.05 -85.95 -69.7 -80.15 -54.85 -70.7 -36.8 -60.85 -18.1 -40.5 15.5 -31.65 30.1 -5.1 70.5 L19.5 107.75 M73.5 -8.5 Q74.2 -10.5 75.5 -10.5 77.55 -10.5 89.85 3.8 L88.45 -10.8 Q85.0 -47.95 85.0 -53.0 85.0 -58.05 85.8 -68.3 92.65 -59.1 98.55 -48.05 104.05 -39.2 113.3 -14.15 126.0 20.4 126.0 35.5 L126.5 48.75 Q126.5 54.6 125.75 58.95 125.0 63.35 125.0 65.25 125.0 70.8 122.85 74.7 120.5 81.5 114.5 81.5 104.35 81.5 88.05 42.45 81.85 27.65 77.35 13.1 73.0 -0.9 73.0 -5.5 73.0 -7.05 73.5 -8.5" fill="#2e47aa" fill-rule="evenodd" stroke="none"/>
  </g>
</svg>
