<?xml version="1.0" encoding="UTF-8" standalone="no"?>
<svg xmlns:ffdec="https://www.free-decompiler.com/flash" xmlns:xlink="http://www.w3.org/1999/xlink" ffdec:objectType="shape" height="349.05px" width="319.25px" xmlns="http://www.w3.org/2000/svg">
  <g transform="matrix(1.0, 0.0, 0.0, 1.0, 169.25, 164.05)">
    <path d="M79.5 138.75 L79.5 139.0 Q78.0 154.5 51.25 159.0 L70.75 146.5 79.5 138.75 M-152.5 90.0 Q-166.7 79.85 -168.5 62.25 -170.95 37.9 -154.45 19.45 -144.35 8.2 -131.5 0.45 -120.9 -5.95 -109.0 -3.0 L-129.75 35.5 Q-137.25 54.45 -145.75 73.0 L-146.5 73.25 -146.0 73.5 -146.75 74.25 -152.5 90.0 M-54.75 -102.5 Q-62.95 -117.4 -58.45 -133.8 -56.1 -142.45 -49.45 -148.55 -33.5 -163.3 -13.5 -154.25 L-15.75 -152.5 Q-30.85 -153.95 -37.65 -140.3 -41.0 -133.5 -39.25 -126.0 L-54.75 -102.5" fill="#e58508" fill-rule="evenodd" stroke="none"/>
    <path d="M-13.5 -154.25 Q0.85 -168.95 20.35 -161.55 29.6 -158.1 37.05 -151.7 54.75 -136.45 68.1 -117.45 73.6 -109.5 80.3 -102.8 83.7 -99.45 87.55 -96.5 L95.25 -90.75 115.5 -74.25 Q135.05 -54.35 147.75 -30.0 148.8 -27.95 149.05 -25.5 150.55 -11.25 147.2 2.45 146.65 4.75 144.6 6.4 L141.75 8.5 Q125.1 -8.4 118.5 -31.75 L114.75 -33.5 121.5 -9.5 126.25 20.5 Q131.2 57.8 115.65 91.6 102.95 119.25 79.5 138.75 L70.75 146.5 51.25 159.0 Q-84.0 207.25 -116.5 111.25 L-116.75 111.25 Q-125.75 150.25 -154.75 181.0 -163.25 190.5 -163.75 176.75 L-161.25 151.25 -152.5 90.0 -146.75 74.25 -146.0 73.5 -146.5 73.25 -145.75 73.0 Q-137.25 54.45 -129.75 35.5 L-109.0 -3.0 -106.0 -8.75 -97.5 -21.25 -83.75 -51.5 -71.25 -74.5 -54.75 -102.5 -39.25 -126.0 Q-41.0 -133.5 -37.65 -140.3 -30.85 -153.95 -15.75 -152.5 L-13.5 -154.25" fill="#2e47aa" fill-rule="evenodd" stroke="none"/>
    <path d="M114.5 -32.75 L107.0 -45.0 126.0 -37.75 133.75 -37.5 138.5 -36.5 140.5 -37.0 140.25 -32.75 Q133.5 -24.25 133.5 -21.0 132.0 -18.25 141.25 -13.0 149.2 -12.55 149.6 -21.0 L150.0 -5.0 Q149.0 4.75 142.0 8.5 136.6 9.95 128.25 -8.75 L125.5 -15.75 123.75 -18.25 118.75 -31.75 Q115.25 -35.0 114.5 -32.75 M-150.0 84.25 L-150.25 83.0 -148.5 80.5 -150.0 84.25 M-150.75 85.5 L-152.25 90.0 Q-163.75 86.25 -169.25 62.0 -164.0 79.5 -150.75 85.5 M-122.0 93.5 L-122.75 93.25 -121.25 93.0 -122.0 93.5 M-59.75 -121.0 L-60.5 -121.0 -60.75 -123.0 -59.75 -121.0 M-54.75 -104.5 L-55.5 -104.5 -56.75 -107.5 -54.75 -104.5 M66.25 155.25 Q53.0 160.25 50.5 159.0 15.45 174.5 -17.5 175.75 -61.5 177.5 -92.5 153.75 -101.85 145.9 -110.75 130.25 -123.5 107.0 -113.25 98.5 -113.5 96.0 -118.75 94.25 -73.0 40.7 -63.95 23.25 -72.75 41.45 -106.0 115.5 -107.25 116.25 -104.5 121.75 L-90.75 139.0 Q-28.0 188.25 53.5 146.5 154.0 72.25 115.25 -32.0 143.25 39.25 109.25 104.5 L103.25 113.5 89.75 129.5 80.0 138.25 Q75.8 151.9 66.25 155.25 M148.25 -27.0 Q145.65 -30.15 147.25 -32.25 L148.25 -27.0 M-148.75 79.75 L-148.0 78.5 -148.25 80.0 -148.75 79.75 M-157.75 143.0 L-158.75 146.0 -158.25 147.25 -162.75 176.5 -162.5 178.5 Q-160.5 178.25 -160.75 180.75 -131.0 150.5 -119.5 120.0 -123.5 146.0 -158.75 184.75 -165.25 186.5 -163.75 175.0 L-155.75 111.5 -154.5 112.5 -154.5 113.75 -156.75 127.5 -156.5 131.25 -157.75 143.0" fill="#000000" fill-opacity="0.49803922" fill-rule="evenodd" stroke="none"/>
  </g>
</svg>
