<?xml version="1.0" encoding="UTF-8" standalone="no"?>
<svg xmlns:ffdec="https://www.free-decompiler.com/flash" xmlns:xlink="http://www.w3.org/1999/xlink" ffdec:objectType="shape" height="169.85px" width="216.5px" xmlns="http://www.w3.org/2000/svg">
  <g transform="matrix(1.0, 0.0, 0.0, 1.0, 98.0, 69.85)">
    <path d="M55.5 -13.5 Q56.5 -14.45 57.75 -14.8 65.75 -11.4 79.25 1.75 L82.15 -23.05 Q86.0 -56.75 86.0 -62.75 L85.8 -66.6 Q96.4 -49.1 102.95 -34.3 118.5 0.95 118.5 33.75 118.5 43.8 117.35 52.4 112.75 73.5 104.5 73.5 95.0 73.5 74.0 35.5 65.85 20.75 59.9 7.1 54.0 -6.5 54.0 -10.5 54.0 -12.1 55.5 -13.5 M-85.2 -69.85 Q-83.65 -49.75 -74.2 -14.85 -64.1 22.35 -58.0 33.5 -52.35 43.75 -43.3 55.05 L-25.5 76.0 -17.75 84.4 Q-12.6 89.9 -9.6 93.85 L-8.7 95.1 -8.5 96.25 Q-8.5 98.9 -9.5 99.5 L-13.9 100.0 Q-34.5 92.25 -53.5 78.25 -77.15 60.85 -93.0 37.35 L-94.6 29.3 Q-98.0 10.3 -98.0 -7.0 -98.0 -32.6 -91.75 -53.05 -89.05 -61.85 -85.2 -69.85" fill="#2e47aa" fill-rule="evenodd" stroke="none"/>
  </g>
</svg>
