<?xml version="1.0" encoding="UTF-8" standalone="no"?>
<svg xmlns:ffdec="https://www.free-decompiler.com/flash" xmlns:xlink="http://www.w3.org/1999/xlink" ffdec:objectType="shape" height="225.0px" width="370.25px" xmlns="http://www.w3.org/2000/svg">
  <g transform="matrix(1.0, 0.0, 0.0, 1.0, 185.85, 22.0)">
    <path d="M-101.5 0.0 L-102.6 1.1 -122.75 36.25 -121.0 47.25 Q-108.15 85.35 -83.25 97.75 -86.0 98.75 -85.0 100.75 -71.55 130.55 -37.25 145.5 2.1 158.15 38.25 145.0 70.5 131.25 86.75 101.5 90.0 97.5 87.25 91.5 103.25 80.25 109.0 70.0 L118.25 52.0 122.5 35.0 100.5 -2.5 Q112.0 5.8 137.0 22.25 138.75 24.0 143.5 24.25 155.25 32.25 157.75 27.0 155.25 34.0 147.5 36.0 L148.0 36.75 147.5 39.25 Q156.25 54.5 159.75 54.5 L164.25 62.75 Q168.5 68.0 172.5 69.75 179.0 66.5 173.25 36.0 186.6 89.75 184.0 96.5 170.5 95.5 142.25 30.75 L126.5 20.75 Q143.0 70.5 95.5 115.0 L99.75 122.25 104.0 131.75 102.0 132.25 Q96.75 136.75 92.5 138.0 L92.25 142.0 Q62.05 180.35 21.75 184.5 22.5 187.0 36.5 189.25 L36.75 196.25 Q56.5 194.25 66.25 194.5 98.5 188.5 109.5 163.5 111.0 165.25 105.25 176.25 L99.0 183.75 Q83.75 201.75 33.25 200.75 8.5 198.5 8.5 164.75 L5.5 165.0 -9.0 163.25 Q-11.0 207.5 -43.0 202.5 -93.5 201.5 -108.25 173.25 L-110.75 167.25 -111.0 164.0 Q-106.5 187.5 -37.5 197.25 L-37.25 189.75 Q-25.5 188.5 -20.75 184.25 -21.75 182.25 -33.5 180.75 -69.5 171.95 -89.75 141.0 -102.75 131.75 -105.0 132.75 L-101.75 124.5 -96.25 115.75 Q-119.5 98.75 -126.0 77.25 L-128.25 69.0 -130.5 44.25 -129.5 29.5 -127.75 21.75 -128.5 21.5 -143.25 31.25 -159.75 64.75 -175.25 91.0 Q-181.5 103.0 -185.75 93.75 -186.95 87.6 -174.75 37.0 -179.5 66.75 -173.75 70.0 -168.25 69.5 -148.5 40.5 L-148.25 39.75 -149.25 38.75 -148.5 36.75 Q-156.25 34.25 -159.0 27.5 -148.25 34.0 -100.25 -3.0 L-101.5 0.0 M149.75 38.5 L150.75 39.25 152.75 44.0 149.75 38.5 M3.55 24.55 Q35.5 22.65 40.0 -22.0 40.0 81.75 1.75 84.5 -39.5 88.25 -40.25 -21.75 -36.25 25.75 3.55 24.55" fill="#000000" fill-opacity="0.49803922" fill-rule="evenodd" stroke="none"/>
  </g>
</svg>
