<?xml version="1.0" encoding="UTF-8" standalone="no"?>
<svg xmlns:ffdec="https://www.free-decompiler.com/flash" xmlns:xlink="http://www.w3.org/1999/xlink" ffdec:objectType="shape" height="225.0px" width="308.15px" xmlns="http://www.w3.org/2000/svg">
  <g transform="matrix(1.0, 0.0, 0.0, 1.0, 153.9, 22.0)">
    <path d="M121.3 40.5 L121.0 51.75 Q121.0 56.2 122.25 66.8 L123.4 78.3 Q114.65 97.05 95.5 115.0 L99.75 122.25 104.0 131.75 102.0 132.25 Q96.75 136.75 92.5 138.0 L92.25 142.0 Q62.05 180.35 21.75 184.5 22.5 187.0 36.5 189.25 L36.75 196.25 Q56.5 194.25 66.25 194.5 98.5 188.5 109.5 163.5 111.0 165.25 105.25 176.25 L99.0 183.75 Q83.75 201.75 33.25 200.75 8.5 198.5 8.5 164.75 L5.5 165.0 -9.0 163.25 Q-11.0 207.5 -43.0 202.5 -93.5 201.5 -108.25 173.25 L-110.75 167.25 -111.0 164.0 Q-106.5 187.5 -37.5 197.25 L-37.25 189.75 Q-25.5 188.5 -20.75 184.25 -21.75 182.25 -33.5 180.75 -69.5 171.95 -89.75 141.0 -102.75 131.75 -105.0 132.75 L-101.75 124.5 -96.25 115.75 Q-119.5 98.75 -126.0 77.25 L-128.25 69.0 -128.45 66.65 Q-125.15 54.7 -124.55 52.0 -123.5 47.45 -121.95 43.05 L-121.25 45.7 -121.0 47.25 Q-108.15 85.35 -83.25 97.75 -86.0 98.75 -85.0 100.75 -71.55 130.55 -37.25 145.5 2.1 158.15 38.25 145.0 70.5 131.25 86.75 101.5 90.0 97.5 87.25 91.5 103.25 80.25 109.0 70.0 L118.25 52.0 120.7 42.2 121.3 40.5 M1.75 84.5 Q-39.5 88.25 -40.25 -21.75 -36.25 25.75 3.55 24.55 35.5 22.65 40.0 -22.0 40.0 81.75 1.75 84.5" fill="#000000" fill-opacity="0.49803922" fill-rule="evenodd" stroke="none"/>
    <path d="M154.25 21.85 Q152.95 39.6 145.5 66.85 137.9 94.6 131.5 108.0 129.0 106.35 126.9 100.55 125.0 95.35 125.0 92.0 L124.25 86.2 123.5 81.25 Q123.5 77.35 122.25 66.8 121.0 56.2 121.0 51.75 L121.4 36.15 116.85 31.9 109.85 26.3 108.3 15.0 Q114.9 20.0 118.8 24.05 121.65 27.0 124.4 30.7 122.85 38.0 122.55 45.2 122.9 51.1 125.0 61.5 128.05 76.5 131.5 76.5 140.6 76.5 149.05 43.5 151.8 32.7 153.8 20.95 L154.25 21.85 M-112.1 23.6 Q-121.1 36.8 -124.55 52.0 -125.5 56.2 -132.95 82.75 -137.95 101.9 -139.35 112.85 -141.4 117.0 -143.25 117.0 L-144.55 116.8 Q-147.2 109.75 -149.15 101.9 -153.9 82.6 -153.9 60.45 -153.9 46.85 -151.0 32.95 -151.5 38.1 -151.5 43.0 -151.5 51.65 -149.5 60.5 -146.7 73.0 -141.5 73.0 -135.3 59.3 -127.05 42.95 -117.95 24.85 -110.65 12.75 L-112.1 23.6" fill="#000000" fill-opacity="0.49803922" fill-rule="evenodd" stroke="none"/>
  </g>
</svg>
