<?xml version="1.0" encoding="UTF-8" standalone="no"?>
<svg xmlns:ffdec="https://www.free-decompiler.com/flash" xmlns:xlink="http://www.w3.org/1999/xlink" ffdec:objectType="shape" height="166.25px" width="176.95px" xmlns="http://www.w3.org/2000/svg">
  <g transform="matrix(1.0, 0.0, 0.0, 1.0, 87.8, 1.25)">
    <path d="M88.15 97.05 Q91.65 111.65 82.75 123.75 71.75 137.15 57.1 146.35 43.9 154.55 28.95 159.35 18.8 162.6 8.25 164.75 L4.75 165.0 -9.25 163.25 Q-28.2 160.1 -45.55 151.55 -64.15 142.4 -78.25 127.25 -88.9 113.0 -87.7 104.75 L-84.7 107.9 Q-82.6 109.0 -80.25 109.0 -78.8 109.0 -78.0 106.0 L-77.5 103.0 -77.5 102.0 -80.6 94.3 Q-56.35 65.3 -35.5 1.75 -31.5 13.4 -21.25 20.1 -4.45 31.1 14.05 23.85 31.25 17.25 36.0 -1.25 L47.95 28.5 Q54.55 45.35 64.95 60.05 67.2 63.2 70.0 65.75 74.0 69.55 77.2 73.8 70.5 85.9 70.5 91.0 70.5 91.45 72.0 92.5 L73.75 93.5 Q76.3 93.5 85.0 87.4 86.95 92.0 88.15 97.05" fill="#ffffff" fill-rule="evenodd" stroke="none"/>
  </g>
</svg>
