<?xml version="1.0" encoding="UTF-8" standalone="no"?>
<svg xmlns:ffdec="https://www.free-decompiler.com/flash" xmlns:xlink="http://www.w3.org/1999/xlink" ffdec:objectType="shape" height="225.0px" width="275.55px" xmlns="http://www.w3.org/2000/svg">
  <g transform="matrix(1.0, 0.0, 0.0, 1.0, 135.1, 22.0)">
    <path d="M40.0 -22.0 Q40.0 81.75 1.75 84.5 -39.5 88.25 -40.25 -21.75 -36.25 25.75 3.55 24.55 35.5 22.65 40.0 -22.0 M110.15 67.8 L120.5 59.0 130.7 49.35 Q129.15 83.5 95.5 115.0 L99.75 122.25 104.0 131.75 102.0 132.25 Q96.75 136.75 92.5 138.0 L92.25 142.0 Q62.05 180.35 21.75 184.5 22.5 187.0 36.5 189.25 L36.75 196.25 Q56.5 194.25 66.25 194.5 98.5 188.5 109.5 163.5 111.0 165.25 105.25 176.25 L99.0 183.75 Q83.75 201.75 33.25 200.75 8.5 198.5 8.5 164.75 L5.5 165.0 -9.0 163.25 Q-11.0 207.5 -43.0 202.5 -93.5 201.5 -108.25 173.25 L-110.75 167.25 -111.0 164.0 Q-106.5 187.5 -37.5 197.25 L-37.25 189.75 Q-25.5 188.5 -20.75 184.25 -21.75 182.25 -33.5 180.75 -69.5 171.95 -89.75 141.0 -102.75 131.75 -105.0 132.75 L-101.75 124.5 -96.25 115.75 Q-119.5 98.75 -126.0 77.25 L-128.25 69.0 -130.5 44.25 -130.45 43.75 Q-124.6 57.5 -116.1 70.2 -105.95 85.4 -84.7 107.9 -82.8 108.9 -80.7 109.0 -66.65 132.7 -37.25 145.5 2.1 158.15 38.25 145.0 70.5 131.25 86.75 101.5 90.0 97.5 87.25 91.5 103.25 80.25 109.0 70.0 L110.15 67.8" fill="#000000" fill-opacity="0.49803922" fill-rule="evenodd" stroke="none"/>
    <path d="M111.2 9.95 Q114.3 16.3 116.7 23.85 L108.65 31.65 105.55 34.85 101.25 41.1 Q89.0 59.1 89.0 64.25 89.0 66.15 89.5 67.0 90.1 68.0 91.5 68.0 98.55 68.0 112.0 60.45 122.2 54.7 128.5 49.5 L140.45 39.4 Q135.5 44.95 120.5 59.0 L99.65 76.3 Q78.05 93.5 73.75 93.5 L72.0 92.5 Q70.5 91.45 70.5 91.0 70.5 81.5 93.6 48.0 101.35 36.75 109.8 25.3 108.0 12.4 105.35 -0.5 109.25 6.0 111.2 9.95 M-107.6 31.35 Q-106.8 22.45 -104.75 15.1 -102.6 7.4 -98.1 -1.4 -100.0 16.9 -100.0 33.0 L-100.0 34.05 Q-96.75 48.85 -91.25 65.45 -86.3 80.35 -77.5 102.0 L-77.5 103.0 -78.0 106.0 Q-78.8 109.0 -80.25 109.0 -82.6 109.0 -84.7 107.9 -105.95 85.4 -116.1 70.2 -128.4 51.85 -135.1 31.35 L-133.25 35.05 Q-127.4 46.6 -121.15 56.75 -103.8 85.0 -94.75 85.0 -93.7 85.0 -92.5 83.5 -91.5 82.25 -91.5 81.75 -91.5 76.75 -100.8 53.85 L-107.85 35.45 -107.6 31.35" fill="#000000" fill-opacity="0.49803922" fill-rule="evenodd" stroke="none"/>
  </g>
</svg>
