<?xml version="1.0" encoding="UTF-8" standalone="no"?>
<svg xmlns:ffdec="https://www.free-decompiler.com/flash" xmlns:xlink="http://www.w3.org/1999/xlink" ffdec:objectType="shape" height="225.0px" width="287.95px" xmlns="http://www.w3.org/2000/svg">
  <g transform="matrix(1.0, 0.0, 0.0, 1.0, 130.5, 22.0)">
    <path d="M117.8 52.85 L126.05 53.9 130.3 54.4 Q126.65 85.85 95.5 115.0 L99.75 122.25 104.0 131.75 102.0 132.25 Q96.75 136.75 92.5 138.0 L92.25 142.0 Q62.05 180.35 21.75 184.5 22.5 187.0 36.5 189.25 L36.75 196.25 Q56.5 194.25 66.25 194.5 98.5 188.5 109.5 163.5 111.0 165.25 105.25 176.25 L99.0 183.75 Q83.75 201.75 33.25 200.75 8.5 198.5 8.5 164.75 L5.5 165.0 -9.0 163.25 Q-11.0 207.5 -43.0 202.5 -93.5 201.5 -108.25 173.25 L-110.75 167.25 -111.0 164.0 Q-106.5 187.5 -37.5 197.25 L-37.25 189.75 Q-25.5 188.5 -20.75 184.25 -21.75 182.25 -33.5 180.75 -69.5 171.95 -89.75 141.0 -102.75 131.75 -105.0 132.75 L-101.75 124.5 -96.25 115.75 Q-119.5 98.75 -126.0 77.25 L-128.25 69.0 -130.5 44.25 -129.5 29.5 -127.75 21.75 -126.0 16.2 -125.65 15.3 -124.15 14.3 Q-124.5 18.0 -124.5 22.0 -124.5 34.75 -121.25 45.7 L-121.0 47.25 Q-108.15 85.35 -83.25 97.75 -86.0 98.75 -85.0 100.75 -71.55 130.55 -37.25 145.5 2.1 158.15 38.25 145.0 70.5 131.25 86.75 101.5 90.0 97.5 87.25 91.5 103.25 80.25 109.0 70.0 L117.8 52.85 M3.55 24.55 Q35.5 22.65 40.0 -22.0 40.0 81.75 1.75 84.5 -39.5 88.25 -40.25 -21.75 -36.25 25.75 3.55 24.55" fill="#000000" fill-opacity="0.49803922" fill-rule="evenodd" stroke="none"/>
    <path d="M147.5 45.5 Q153.95 43.8 155.55 38.3 L157.45 45.8 Q155.95 52.3 150.35 55.1 L143.75 55.5 126.05 53.9 Q110.75 52.1 97.05 49.5 61.5 42.8 58.35 35.45 63.35 31.95 72.8 29.5 70.5 30.95 70.5 32.5 70.5 40.1 97.5 44.0 114.85 46.5 129.25 46.5 L147.5 45.5 M113.8 24.55 L107.0 24.5 106.3 24.5 Q105.3 12.35 99.5 -11.8 104.05 -3.65 107.8 5.65 111.85 15.8 113.8 24.55 M-54.5 83.5 Q-53.5 82.55 -53.5 80.25 -53.5 74.85 -57.0 67.25 -61.95 57.65 -64.75 51.5 -75.8 27.3 -76.0 -3.45 -70.8 16.85 -63.85 37.55 -52.35 71.7 -39.45 96.7 -33.4 108.4 -27.55 117.05 -27.85 119.5 -30.0 119.5 -35.95 119.5 -57.4 99.9 -75.05 83.75 -80.5 77.0 -92.1 62.5 -99.8 47.35 L-100.25 45.1 Q-95.1 52.9 -89.65 59.8 -70.25 84.5 -58.25 84.5 -55.55 84.5 -54.5 83.5" fill="#000000" fill-opacity="0.49803922" fill-rule="evenodd" stroke="none"/>
  </g>
</svg>
