<?xml version="1.0" encoding="UTF-8" standalone="no"?>
<svg xmlns:ffdec="https://www.free-decompiler.com/flash" xmlns:xlink="http://www.w3.org/1999/xlink" ffdec:objectType="shape" height="225.05px" width="288.0px" xmlns="http://www.w3.org/2000/svg">
  <g transform="matrix(1.0, 0.0, 0.0, 1.0, 130.5, 22.05)">
    <path d="M109.0 70.0 L118.25 52.0 120.7 42.3 123.7 44.7 130.65 49.85 Q128.9 83.7 95.5 115.0 L99.75 122.25 104.0 131.75 102.0 132.25 Q96.75 136.75 92.5 138.0 L92.25 142.0 Q62.05 180.35 21.75 184.5 22.5 187.0 36.5 189.25 L36.75 196.25 Q56.5 194.25 66.25 194.5 98.5 188.5 109.5 163.5 111.0 165.25 105.25 176.25 L99.0 183.75 Q83.75 201.75 33.25 200.75 8.5 198.5 8.5 164.75 L5.5 165.0 -9.0 163.25 Q-11.0 207.5 -43.0 202.5 -93.5 201.5 -108.25 173.25 L-110.75 167.25 -111.0 164.0 Q-106.5 187.5 -37.5 197.25 L-37.25 189.75 Q-25.5 188.5 -20.75 184.25 -21.75 182.25 -33.5 180.75 -69.5 171.95 -89.75 141.0 -102.75 131.75 -105.0 132.75 L-101.75 124.5 -96.25 115.75 Q-119.5 98.75 -126.0 77.25 L-128.25 69.0 -130.5 44.25 -129.5 29.5 -127.75 21.75 -126.0 16.2 -125.65 15.3 -124.15 14.3 Q-124.5 18.0 -124.5 22.0 -124.5 34.75 -121.25 45.7 L-121.0 47.25 Q-108.15 85.35 -83.25 97.75 -86.0 98.75 -85.0 100.75 -71.55 130.55 -37.25 145.5 2.1 158.15 38.25 145.0 70.5 131.25 86.75 101.5 90.0 97.5 87.25 91.5 103.25 80.25 109.0 70.0 M-7.55 79.05 Q-21.15 65.0 -32.95 48.85 -39.95 22.95 -40.25 -21.75 -36.25 25.75 3.55 24.55 35.5 22.65 40.0 -22.0 40.0 81.75 1.75 84.5 L-1.95 84.6 -7.55 79.05" fill="#000000" fill-opacity="0.49803922" fill-rule="evenodd" stroke="none"/>
    <path d="M74.9 -0.35 L72.35 -3.9 Q72.0 -4.9 72.0 -5.5 L72.0 -5.7 Q72.8 -3.2 74.9 -0.35 M107.75 -9.35 Q112.2 -0.8 115.35 8.5 110.85 6.05 105.6 3.3 L98.45 -0.45 104.55 2.55 105.2 2.85 Q103.2 -9.65 100.3 -22.05 104.45 -15.75 107.75 -9.35 M143.35 0.0 Q157.5 25.3 157.5 45.5 157.5 53.2 156.5 55.05 154.9 58.0 148.25 58.0 140.8 58.0 123.7 44.7 116.95 39.45 103.0 27.0 L81.65 7.45 77.2 2.55 80.9 6.35 Q89.0 14.1 102.5 22.5 114.7 30.05 126.55 35.3 138.35 40.5 143.25 40.5 149.2 40.5 151.5 38.0 153.5 35.8 153.5 30.5 153.5 25.15 146.2 6.95 L143.35 0.0 M20.5 111.5 Q-21.1 97.8 -47.2 79.15 -67.5 64.65 -81.25 45.7 L-82.1 43.3 -80.7 44.7 Q-72.45 52.85 -63.5 60.15 -38.5 80.5 -25.0 80.5 L-20.5 80.0 Q-18.0 79.15 -18.0 76.75 -30.1 62.7 -42.25 43.45 -59.3 16.4 -64.35 -4.7 -56.9 11.35 -47.9 26.35 -30.25 55.6 -7.55 79.05 5.05 92.0 19.2 103.15 23.5 108.05 23.5 110.25 L23.25 111.15 23.0 111.5 20.5 111.5" fill="#000000" fill-opacity="0.49803922" fill-rule="evenodd" stroke="none"/>
  </g>
</svg>
