<?xml version="1.0" encoding="UTF-8" standalone="no"?>
<svg xmlns:ffdec="https://www.free-decompiler.com/flash" xmlns:xlink="http://www.w3.org/1999/xlink" ffdec:objectType="shape" height="227.9px" width="268.5px" xmlns="http://www.w3.org/2000/svg">
  <g transform="matrix(1.0, 0.0, 0.0, 1.0, 130.5, 24.9)">
    <path d="M118.7 50.35 Q124.7 53.5 128.0 53.5 L130.4 53.2 Q127.25 85.25 95.5 115.0 L99.75 122.25 104.0 131.75 102.0 132.25 Q96.75 136.75 92.5 138.0 L92.25 142.0 Q62.05 180.35 21.75 184.5 22.5 187.0 36.5 189.25 L36.75 196.25 Q56.5 194.25 66.25 194.5 98.5 188.5 109.5 163.5 111.0 165.25 105.25 176.25 L99.0 183.75 Q83.75 201.75 33.25 200.75 8.5 198.5 8.5 164.75 L5.5 165.0 -9.0 163.25 Q-11.0 207.5 -43.0 202.5 -93.5 201.5 -108.25 173.25 L-110.75 167.25 -111.0 164.0 Q-106.5 187.5 -37.5 197.25 L-37.25 189.75 Q-25.5 188.5 -20.75 184.25 -21.75 182.25 -33.5 180.75 -69.5 171.95 -89.75 141.0 -102.75 131.75 -105.0 132.75 L-101.75 124.5 -96.25 115.75 Q-119.5 98.75 -126.0 77.25 L-128.25 69.0 -130.5 44.25 -129.5 29.5 -127.75 21.75 -126.0 16.2 -125.65 15.3 -124.15 14.3 Q-124.5 18.0 -124.5 22.0 -124.5 34.75 -121.25 45.7 L-121.0 47.25 Q-108.15 85.35 -83.25 97.75 -86.0 98.75 -85.0 100.75 -71.55 130.55 -37.25 145.5 2.1 158.15 38.25 145.0 70.5 131.25 86.75 101.5 90.0 97.5 87.25 91.5 103.25 80.25 109.0 70.0 L118.25 52.0 118.7 50.35 M1.75 84.5 Q-39.5 88.25 -40.25 -21.75 -36.25 25.75 3.55 24.55 35.5 22.65 40.0 -22.0 40.0 81.75 1.75 84.5" fill="#000000" fill-opacity="0.49803922" fill-rule="evenodd" stroke="none"/>
    <path d="M91.75 -24.9 L92.15 -23.9 Q100.5 -3.25 100.5 2.5 L100.6 4.0 94.0 0.65 Q93.8 -8.9 91.75 -24.9 M135.5 32.0 Q136.9 30.05 137.75 27.45 L138.0 33.25 Q138.0 42.0 136.5 46.5 134.2 53.5 128.0 53.5 122.7 53.5 110.25 45.3 98.6 37.6 85.5 26.0 75.6 17.2 68.4 9.3 73.5 13.9 80.0 18.5 91.65 26.8 103.2 31.95 115.55 37.5 123.5 37.5 131.6 37.5 135.5 32.0 M-53.55 68.4 Q-41.95 74.0 -36.0 74.0 -33.7 74.0 -33.0 73.0 -32.5 72.25 -32.5 70.0 -32.5 69.15 -38.85 60.3 L-52.75 40.35 Q-72.75 10.15 -73.0 -4.35 -68.3 9.25 -62.45 20.85 -43.6 58.0 -5.55 88.55 L-5.5 89.5 Q-5.5 90.65 -6.5 91.5 -7.65 92.5 -9.5 92.5 -16.1 92.5 -39.2 79.55 -52.25 72.2 -63.5 65.0 -82.15 52.5 -88.65 45.85 L-91.55 42.6 Q-85.2 48.55 -76.4 54.75 -64.75 63.0 -53.55 68.4" fill="#000000" fill-opacity="0.49803922" fill-rule="evenodd" stroke="none"/>
  </g>
</svg>
