<?xml version="1.0" encoding="UTF-8" standalone="no"?>
<svg xmlns:ffdec="https://www.free-decompiler.com/flash" xmlns:xlink="http://www.w3.org/1999/xlink" ffdec:objectType="shape" height="273.9px" width="269.05px" xmlns="http://www.w3.org/2000/svg">
  <g transform="matrix(1.0, 0.0, 0.0, 1.0, 138.3, 70.45)">
    <path d="M47.95 28.5 Q54.55 45.35 64.95 60.05 67.2 63.2 70.0 65.75 83.7 78.75 88.15 97.05 91.65 111.65 82.75 123.75 71.75 137.15 57.1 146.35 43.9 154.55 28.95 159.35 18.8 162.6 8.25 164.75 L4.75 165.0 -9.25 163.25 Q-28.2 160.1 -45.55 151.55 -64.15 142.4 -78.25 127.25 -93.0 107.5 -85.0 99.25 -77.0 90.8 -69.4 78.75 -58.9 81.7 -51.45 82.35 L-51.0 82.05 Q-48.5 80.4 -48.5 77.75 -48.5 74.8 -55.9 69.45 L-61.65 65.4 Q-48.0 39.75 -35.5 1.75 -31.5 13.4 -21.25 20.1 -4.45 31.1 14.05 23.85 28.65 18.25 34.3 4.05 L40.8 10.6 47.95 28.5" fill="#ffffff" fill-rule="evenodd" stroke="none"/>
    <path d="M-25.75 -48.5 Q-27.5 -49.0 -30.5 -57.25 L-30.5 -64.5 -29.25 -66.5 Q-17.6 -72.4 -4.55 -69.5 L-3.25 -69.25 -3.0 -69.0 Q10.65 -71.05 24.45 -68.5 28.05 -67.7 30.0 -64.5 29.5 -56.0 28.5 -55.0 L25.25 -49.25 Q18.5 -39.5 -0.5 -47.0 -17.5 -39.25 -25.75 -48.5 M14.0 -57.0 Q-1.5 -55.0 12.0 -47.0 22.5 -52.5 14.0 -57.0 M-15.5 -56.75 Q-22.5 -48.75 -11.75 -47.0 -0.5 -56.25 -15.5 -56.75" fill="#ffffff" fill-rule="evenodd" stroke="none"/>
    <path d="M25.25 -49.25 Q42.9 -39.25 39.75 -18.65 L38.8 -13.0 Q29.25 -16.5 24.25 -16.5 L21.95 -16.35 Q21.5 -15.15 21.5 -14.0 21.5 -9.95 31.65 1.2 L34.3 4.05 Q28.65 18.25 14.05 23.85 -4.45 31.1 -21.25 20.1 -31.5 13.4 -35.5 1.75 L-38.5 -8.25 Q-48.0 -33.0 -25.75 -48.5 -17.5 -39.25 -0.5 -47.0 18.5 -39.5 25.25 -49.25 M-88.25 122.25 L-78.25 127.25 Q-64.15 142.4 -45.55 151.55 -28.2 160.1 -9.25 163.25 -8.5 175.6 -14.1 186.75 -16.05 190.55 -19.35 193.3 -34.3 205.9 -55.3 202.85 -75.65 200.25 -93.05 189.6 -111.45 178.45 -110.8 156.7 -110.1 134.55 -96.5 116.25 L-88.25 122.25 M8.25 164.75 Q18.8 162.6 28.95 159.35 43.9 154.55 57.1 146.35 71.75 137.15 82.75 123.75 L84.2 123.15 Q90.3 120.05 95.5 115.25 111.0 141.75 110.5 154.0 111.0 193.0 55.25 201.0 30.5 204.25 16.75 193.0 11.5 190.0 8.25 164.75" fill="#e58508" fill-rule="evenodd" stroke="none"/>
    <path d="M-15.5 -56.75 Q-0.5 -56.25 -11.75 -47.0 -22.5 -48.75 -15.5 -56.75 M14.0 -57.0 Q22.5 -52.5 12.0 -47.0 -1.5 -55.0 14.0 -57.0" fill="#000000" fill-rule="evenodd" stroke="none"/>
    <path d="M38.75 -13.0 L40.0 -22.0 39.95 -12.55 38.75 -13.0 M125.0 14.3 L127.35 21.3 126.5 20.75 Q143.0 70.5 95.5 115.0 L99.75 122.25 104.0 131.75 102.0 132.25 Q96.75 136.75 92.5 138.0 L92.25 142.0 Q62.05 180.35 21.75 184.5 22.5 187.0 36.5 189.25 L36.75 196.25 Q56.5 194.25 66.25 194.5 98.5 188.5 109.5 163.5 111.0 165.25 105.25 176.25 L99.0 183.75 Q83.75 201.75 33.25 200.75 8.5 198.5 8.5 164.75 L5.5 165.0 -9.0 163.25 Q-11.0 207.5 -43.0 202.5 -93.5 201.5 -108.25 173.25 L-110.75 167.25 -111.0 164.0 Q-106.5 187.5 -37.5 197.25 L-37.25 189.75 Q-25.5 188.5 -20.75 184.25 -21.75 182.25 -33.5 180.75 -69.5 171.95 -89.75 141.0 -102.75 131.75 -105.0 132.75 L-101.75 124.5 -96.25 115.75 Q-119.5 98.75 -126.0 77.25 L-128.25 69.0 -130.2 47.35 Q-124.65 52.5 -117.15 57.4 -104.65 87.1 -83.25 97.75 -86.0 98.75 -85.0 100.75 -71.55 130.55 -37.25 145.5 2.1 158.15 38.25 145.0 70.5 131.25 86.75 101.5 90.0 97.5 87.25 91.5 103.25 80.25 109.0 70.0 L118.25 52.0 120.7 42.2 Q125.0 30.65 125.0 22.0 L124.55 14.0 125.0 14.3 M39.0 8.85 Q33.85 82.2 1.75 84.5 -39.5 88.25 -40.25 -21.75 -36.25 25.75 3.55 24.55 24.6 23.3 33.75 3.45 L39.0 8.85" fill="#000000" fill-opacity="0.49803922" fill-rule="evenodd" stroke="none"/>
    <path d="M30.2 -1.25 Q39.95 8.35 56.0 19.0 70.85 28.85 84.8 35.6 99.1 42.5 105.0 42.5 109.85 42.5 114.5 40.0 116.35 39.0 117.55 37.9 116.8 42.05 115.5 44.5 111.25 52.5 98.5 52.5 93.75 52.5 80.85 43.7 69.1 35.7 55.0 23.5 40.95 11.35 31.65 1.2 27.35 -3.55 24.85 -7.0 27.1 -4.3 30.2 -1.25 M83.45 -23.35 Q84.5 -14.7 84.5 -9.0 L83.5 7.75 83.5 8.2 79.55 5.7 79.05 5.4 79.05 5.2 Q80.7 -3.6 82.4 -17.2 L83.3 -24.65 83.45 -23.35 M-66.5 69.5 L-66.25 68.8 -66.0 67.5 Q-66.0 65.15 -75.85 55.75 L-74.0 57.05 Q-60.5 66.1 -55.9 69.45 -48.5 74.8 -48.5 77.75 -48.5 80.4 -51.0 82.05 L-51.45 82.35 Q-60.15 81.6 -73.05 77.65 -89.75 72.5 -105.0 64.5 -122.35 55.4 -132.4 45.25 -135.9 41.7 -138.3 38.25 -132.2 45.7 -123.3 52.25 -112.25 60.35 -99.75 65.05 -86.55 70.0 -74.5 70.0 L-66.5 69.5 M-107.7 9.45 Q-106.15 3.65 -103.05 -3.2 -105.3 13.55 -105.5 29.1 L-110.25 24.0 -110.05 22.1 Q-109.15 15.0 -107.7 9.45" fill="#000000" fill-opacity="0.49803922" fill-rule="evenodd" stroke="none"/>
  </g>
</svg>
