<?xml version="1.0" encoding="UTF-8" standalone="no"?>
<svg xmlns:ffdec="https://www.free-decompiler.com/flash" xmlns:xlink="http://www.w3.org/1999/xlink" ffdec:objectType="shape" height="273.9px" width="278.65px" xmlns="http://www.w3.org/2000/svg">
  <g transform="matrix(1.0, 0.0, 0.0, 1.0, 147.9, 70.45)">
    <path d="M36.0 35.5 Q45.2 39.5 54.5 42.9 59.1 51.8 64.95 60.05 67.2 63.2 70.0 65.75 83.7 78.75 88.15 97.05 91.65 111.65 82.75 123.75 71.75 137.15 57.1 146.35 43.9 154.55 28.95 159.35 18.8 162.6 8.25 164.75 L4.75 165.0 -9.25 163.25 Q-28.2 160.1 -45.55 151.55 -64.15 142.4 -78.25 127.25 -93.0 107.5 -85.0 99.25 -58.25 71.0 -35.5 1.75 -31.5 13.4 -21.25 20.1 -4.9 30.8 13.1 24.25 22.4 29.6 36.0 35.5 M32.2 8.55 Q34.6 4.15 36.0 -1.25 L40.3 9.25 32.2 8.55" fill="#ffffff" fill-rule="evenodd" stroke="none"/>
    <path d="M-25.75 -48.5 Q-27.5 -49.0 -30.5 -57.25 L-30.5 -64.5 -29.25 -66.5 Q-17.6 -72.4 -4.55 -69.5 L-3.25 -69.25 -3.0 -69.0 Q10.65 -71.05 24.45 -68.5 28.05 -67.7 30.0 -64.5 29.5 -56.0 28.5 -55.0 L25.25 -49.25 Q18.5 -39.5 -0.5 -47.0 -17.5 -39.25 -25.75 -48.5 M12.0 -47.0 Q22.5 -52.5 14.0 -57.0 -1.5 -55.0 12.0 -47.0 M-11.75 -47.0 Q-0.5 -56.25 -15.5 -56.75 -22.5 -48.75 -11.75 -47.0" fill="#ffffff" fill-rule="evenodd" stroke="none"/>
    <path d="M25.25 -49.25 Q42.9 -39.25 39.75 -18.65 38.4 -9.85 36.0 -1.25 34.6 4.15 32.2 8.55 L30.0 8.5 20.5 7.75 10.75 7.0 Q5.45 7.0 1.0 8.0 -3.05 8.9 -4.55 10.45 0.25 16.85 13.1 24.25 -4.9 30.8 -21.25 20.1 -31.5 13.4 -35.5 1.75 L-38.5 -8.25 Q-48.0 -33.0 -25.75 -48.5 -17.5 -39.25 -0.5 -47.0 18.5 -39.5 25.25 -49.25 M-88.25 122.25 L-78.25 127.25 Q-64.15 142.4 -45.55 151.55 -28.2 160.1 -9.25 163.25 -8.5 175.6 -14.1 186.75 -16.05 190.55 -19.35 193.3 -34.3 205.9 -55.3 202.85 -75.65 200.25 -93.05 189.6 -111.45 178.45 -110.8 156.7 -110.1 134.55 -96.5 116.25 L-88.25 122.25 M28.95 159.35 Q43.9 154.55 57.1 146.35 71.75 137.15 82.75 123.75 L84.2 123.15 Q90.3 120.05 95.5 115.25 111.0 141.75 110.5 154.0 111.0 193.0 55.25 201.0 30.5 204.25 16.75 193.0 11.5 190.0 8.25 164.75 18.8 162.6 28.95 159.35" fill="#e58508" fill-rule="evenodd" stroke="none"/>
    <path d="M-11.75 -47.0 Q-22.5 -48.75 -15.5 -56.75 -0.5 -56.25 -11.75 -47.0 M12.0 -47.0 Q-1.5 -55.0 14.0 -57.0 22.5 -52.5 12.0 -47.0" fill="#000000" fill-rule="evenodd" stroke="none"/>
    <path d="M127.35 21.3 L126.5 20.75 Q143.0 70.5 95.5 115.0 L99.75 122.25 104.0 131.75 102.0 132.25 Q96.75 136.75 92.5 138.0 L92.25 142.0 Q62.05 180.35 21.75 184.5 22.5 187.0 36.5 189.25 L36.75 196.25 Q56.5 194.25 66.25 194.5 98.5 188.5 109.5 163.5 111.0 165.25 105.25 176.25 L99.0 183.75 Q83.75 201.75 33.25 200.75 8.5 198.5 8.5 164.75 L5.5 165.0 -9.0 163.25 Q-11.0 207.5 -43.0 202.5 -93.5 201.5 -108.25 173.25 L-110.75 167.25 -111.0 164.0 Q-106.5 187.5 -37.5 197.25 L-37.25 189.75 Q-25.5 188.5 -20.75 184.25 -21.75 182.25 -33.5 180.75 -69.5 171.95 -89.75 141.0 -102.75 131.75 -105.0 132.75 L-101.75 124.5 -96.25 115.75 Q-119.5 98.75 -126.0 77.25 L-128.25 69.0 -128.4 67.4 Q-124.45 74.05 -116.25 85.5 -102.65 104.5 -98.25 104.5 -95.5 104.5 -95.5 101.75 -95.5 100.75 -98.55 90.95 L-100.55 84.5 Q-92.8 93.0 -83.25 97.75 -86.0 98.75 -85.0 100.75 -71.55 130.55 -37.25 145.5 2.1 158.15 38.25 145.0 70.5 131.25 86.75 101.5 90.0 97.5 87.25 91.5 103.25 80.25 109.0 70.0 L118.25 52.0 120.7 42.2 Q125.0 30.65 125.0 22.0 L124.55 14.0 125.0 14.3 127.35 21.3 M3.55 24.55 Q7.75 24.3 11.55 23.3 21.2 29.05 35.85 35.45 27.4 82.65 1.75 84.5 -39.5 88.25 -40.25 -21.75 -36.25 25.75 3.55 24.55 M31.05 8.5 Q38.05 -2.8 40.0 -22.0 40.0 -5.15 39.0 9.1 L31.05 8.5" fill="#000000" fill-opacity="0.49803922" fill-rule="evenodd" stroke="none"/>
    <path d="M77.3 -19.6 L77.5 -14.5 Q77.5 -5.95 74.5 7.8 L72.3 16.85 62.75 13.9 56.3 12.1 Q62.25 13.35 68.0 14.95 73.55 0.15 77.25 -19.4 L77.3 -19.6 M103.5 35.0 Q106.1 33.1 107.8 30.4 107.3 35.15 105.6 41.3 104.15 44.25 102.55 46.5 101.15 48.45 99.35 50.2 94.85 52.5 89.0 52.5 83.95 52.5 68.6 47.65 52.15 42.5 36.0 35.5 3.8 21.5 -4.55 10.45 -3.15 9.05 0.35 8.15 L2.3 9.8 Q11.3 16.85 28.2 24.1 43.65 30.7 60.0 35.1 76.35 39.5 85.5 39.5 97.3 39.5 103.5 35.0 M-121.5 44.0 L-121.5 43.5 -121.35 43.5 -121.5 44.0 M-118.3 29.0 Q-116.75 20.25 -115.3 15.6 -112.9 7.85 -107.4 -1.0 -111.3 14.9 -113.85 31.15 -111.65 46.25 -105.25 68.75 L-98.55 90.95 Q-95.5 100.75 -95.5 101.75 -95.5 104.5 -98.25 104.5 -102.65 104.5 -116.25 85.5 -128.0 69.1 -130.95 62.55 -120.5 77.5 -113.5 77.5 -112.15 77.5 -111.0 76.0 -110.0 74.75 -110.0 73.75 -110.0 63.65 -114.6 46.6 -117.25 36.95 -118.6 30.65 L-118.3 29.0 M-143.85 40.75 L-145.4 37.8 -147.9 31.95 -143.85 40.75" fill="#000000" fill-opacity="0.49803922" fill-rule="evenodd" stroke="none"/>
  </g>
</svg>
