<?xml version="1.0" encoding="UTF-8" standalone="no"?>
<svg xmlns:ffdec="https://www.free-decompiler.com/flash" xmlns:xlink="http://www.w3.org/1999/xlink" ffdec:objectType="shape" height="166.25px" width="176.95px" xmlns="http://www.w3.org/2000/svg">
  <g transform="matrix(1.0, 0.0, 0.0, 1.0, 87.8, 1.25)">
    <path d="M38.2 23.65 Q22.4 27.3 3.85 33.35 -31.5 44.85 -31.5 53.0 -31.5 56.4 -18.5 57.5 -12.6 58.0 -0.5 58.0 30.1 58.0 52.5 51.5 L58.25 49.65 Q61.35 55.0 64.95 60.05 67.2 63.2 70.0 65.75 83.7 78.75 88.15 97.05 91.65 111.65 82.75 123.75 71.75 137.15 57.1 146.35 43.9 154.55 28.95 159.35 18.8 162.6 8.25 164.75 L4.75 165.0 -9.25 163.25 Q-28.2 160.1 -45.55 151.55 -64.15 142.4 -78.25 127.25 -93.0 107.5 -85.0 99.25 -58.25 71.0 -35.5 1.75 -31.5 13.4 -21.25 20.1 -4.45 31.1 14.05 23.85 31.25 17.25 36.0 -1.25 L43.4 17.05 38.2 23.65" fill="#ffffff" fill-rule="evenodd" stroke="none"/>
  </g>
</svg>
