<?xml version="1.0" encoding="UTF-8" standalone="no"?>
<svg xmlns:ffdec="https://www.free-decompiler.com/flash" xmlns:xlink="http://www.w3.org/1999/xlink" ffdec:objectType="shape" height="225.0px" width="286.75px" xmlns="http://www.w3.org/2000/svg">
  <g transform="matrix(1.0, 0.0, 0.0, 1.0, 156.0, 22.0)">
    <path d="M126.5 20.75 Q143.0 70.5 95.5 115.0 L99.75 122.25 104.0 131.75 102.0 132.25 Q96.75 136.75 92.5 138.0 L92.25 142.0 Q62.05 180.35 21.75 184.5 22.5 187.0 36.5 189.25 L36.75 196.25 Q56.5 194.25 66.25 194.5 98.5 188.5 109.5 163.5 111.0 165.25 105.25 176.25 L99.0 183.75 Q83.75 201.75 33.25 200.75 8.5 198.5 8.5 164.75 L5.5 165.0 -9.0 163.25 Q-11.0 207.5 -43.0 202.5 -93.5 201.5 -108.25 173.25 L-110.75 167.25 -111.0 164.0 Q-106.5 187.5 -37.5 197.25 L-37.25 189.75 Q-25.5 188.5 -20.75 184.25 -21.75 182.25 -33.5 180.75 -69.5 171.95 -89.75 141.0 -102.75 131.75 -105.0 132.75 L-101.75 124.5 -96.25 115.75 Q-119.5 98.75 -126.0 77.25 L-126.65 74.9 -123.2 59.45 -120.55 48.55 Q-107.75 85.55 -83.25 97.75 -86.0 98.75 -85.0 100.75 -71.55 130.55 -37.25 145.5 2.1 158.15 38.25 145.0 70.5 131.25 86.75 101.5 90.0 97.5 87.25 91.5 103.25 80.25 109.0 70.0 L118.25 52.0 120.7 42.2 Q125.0 30.65 125.0 22.0 L124.55 14.0 125.0 14.3 127.35 21.3 126.5 20.75 M37.6 23.8 Q22.05 27.4 3.85 33.35 -31.5 44.85 -31.5 53.0 -31.5 56.4 -18.5 57.5 -12.6 58.0 -0.5 58.0 16.3 58.0 30.6 56.05 21.05 83.1 1.75 84.5 -39.5 88.25 -40.25 -21.75 -36.25 25.75 3.55 24.55 35.5 22.65 40.0 -22.0 40.0 4.05 37.6 23.8" fill="#000000" fill-opacity="0.49803922" fill-rule="evenodd" stroke="none"/>
    <path d="M84.0 22.75 Q84.0 42.3 52.5 51.5 30.1 58.0 -0.5 58.0 -12.6 58.0 -18.5 57.5 -31.5 56.4 -31.5 53.0 -31.5 48.8 -22.1 43.75 -19.8 45.9 -13.5 47.0 L0.0 48.0 Q11.5 48.0 27.8 44.8 37.1 43.0 54.0 39.0 68.6 35.75 76.25 29.95 79.65 27.4 84.05 22.6 L84.0 22.75 M52.65 7.45 Q50.1 11.9 42.1 22.45 L38.8 22.9 Q50.05 9.05 58.8 -6.55 56.35 0.9 52.65 7.45 M-113.8 11.15 Q-111.15 3.65 -106.2 -4.05 -115.15 25.35 -123.2 59.45 L-136.05 117.5 Q-141.1 140.5 -143.0 140.5 -144.15 140.5 -145.25 139.6 -147.45 132.25 -149.6 122.4 -156.0 92.8 -156.0 72.75 -156.0 49.3 -151.35 28.45 L-152.1 33.85 Q-154.5 52.25 -154.5 57.75 -154.5 70.85 -153.0 81.0 -150.5 98.0 -144.5 98.0 -136.75 98.0 -129.45 70.5 -127.3 62.25 -125.05 51.0 L-123.0 41.0 Q-120.4 34.5 -117.9 25.2 -115.1 14.85 -113.8 11.15" fill="#000000" fill-opacity="0.49803922" fill-rule="evenodd" stroke="none"/>
  </g>
</svg>
