<?xml version="1.0" encoding="UTF-8" standalone="no"?>
<svg xmlns:ffdec="https://www.free-decompiler.com/flash" xmlns:xlink="http://www.w3.org/1999/xlink" ffdec:objectType="shape" height="225.0px" width="278.75px" xmlns="http://www.w3.org/2000/svg">
  <g transform="matrix(1.0, 0.0, 0.0, 1.0, 148.0, 22.0)">
    <path d="M124.55 14.0 L125.0 14.3 127.35 21.3 126.5 20.75 Q143.0 70.5 95.5 115.0 L99.75 122.25 104.0 131.75 102.0 132.25 Q96.75 136.75 92.5 138.0 L92.25 142.0 Q62.05 180.35 21.75 184.5 22.5 187.0 36.5 189.25 L36.75 196.25 Q56.5 194.25 66.25 194.5 98.5 188.5 109.5 163.5 111.0 165.25 105.25 176.25 L99.0 183.75 Q83.75 201.75 33.25 200.75 8.5 198.5 8.5 164.75 L5.5 165.0 -9.0 163.25 Q-11.0 207.5 -43.0 202.5 -93.5 201.5 -108.25 173.25 L-110.75 167.25 -111.0 164.0 Q-106.5 187.5 -37.5 197.25 L-37.25 189.75 Q-25.5 188.5 -20.75 184.25 -21.75 182.25 -33.5 180.75 -69.5 171.95 -89.75 141.0 -102.75 131.75 -105.0 132.75 L-101.75 124.5 -96.25 115.75 Q-108.5 106.8 -116.1 96.55 -114.6 82.35 -112.55 67.15 -100.95 88.95 -83.25 97.75 -86.0 98.75 -85.0 100.75 -71.55 130.55 -37.25 145.5 2.1 158.15 38.25 145.0 70.5 131.25 86.75 101.5 90.0 97.5 87.25 91.5 103.25 80.25 109.0 70.0 L118.25 52.0 120.7 42.2 Q125.0 30.65 125.0 22.0 L124.55 14.0 M18.75 46.5 Q-15.5 66.35 -15.5 73.75 -15.5 74.4 -14.5 75.0 -13.65 75.5 -13.25 75.5 -7.75 75.5 26.25 66.15 17.05 83.4 1.75 84.5 -39.5 88.25 -40.25 -21.75 -36.25 25.75 3.55 24.55 35.5 22.65 40.0 -22.0 40.0 13.55 35.55 37.25 26.85 41.8 18.75 46.5" fill="#000000" fill-opacity="0.49803922" fill-rule="evenodd" stroke="none"/>
    <path d="M94.95 16.4 Q93.55 25.35 90.6 31.85 86.6 40.65 78.45 48.2 L78.15 48.5 Q73.5 51.45 67.5 54.0 62.55 56.1 28.6 65.5 -7.55 75.5 -13.25 75.5 -13.65 75.5 -14.5 75.0 -15.5 74.4 -15.5 73.75 -15.5 69.2 -2.6 60.0 8.25 59.9 29.45 53.95 46.35 49.2 59.5 44.0 69.65 39.95 74.45 37.4 81.1 33.9 85.65 29.35 90.25 24.75 94.95 16.4 M-107.75 15.75 Q-105.45 8.75 -101.75 -0.05 -104.85 16.4 -107.75 34.55 -120.5 114.4 -120.5 169.5 L-120.45 176.0 Q-120.85 180.0 -123.0 180.0 -133.4 180.0 -141.5 135.0 -144.45 118.75 -146.35 100.35 -148.0 84.4 -148.0 76.75 -148.0 63.5 -146.55 50.85 -147.0 58.0 -147.0 66.0 -147.0 78.9 -144.0 93.5 -139.75 114.0 -132.25 114.0 -123.9 114.0 -119.25 82.75 -117.75 72.9 -116.8 60.55 L-116.0 49.0 Q-111.6 27.3 -107.75 15.75" fill="#000000" fill-opacity="0.49803922" fill-rule="evenodd" stroke="none"/>
  </g>
</svg>
