<?xml version="1.0" encoding="UTF-8" standalone="no"?>
<svg xmlns:ffdec="https://www.free-decompiler.com/flash" xmlns:xlink="http://www.w3.org/1999/xlink" ffdec:objectType="shape" height="166.25px" width="176.95px" xmlns="http://www.w3.org/2000/svg">
  <g transform="matrix(1.0, 0.0, 0.0, 1.0, 87.8, 1.25)">
    <path d="M52.5 38.9 Q42.55 46.0 31.5 54.8 1.9 78.4 -1.9 90.05 -0.1 91.5 2.25 91.5 12.8 91.5 35.5 80.7 53.75 72.05 66.5 63.5 L67.3 63.0 70.0 65.75 Q83.7 78.75 88.15 97.05 91.65 111.65 82.75 123.75 71.75 137.15 57.1 146.35 43.9 154.55 28.95 159.35 18.8 162.6 8.25 164.75 L4.75 165.0 -9.25 163.25 Q-28.2 160.1 -45.55 151.55 -64.15 142.4 -78.25 127.25 -93.0 107.5 -85.0 99.25 -58.25 71.0 -35.5 1.75 -31.5 13.4 -21.25 20.1 -4.45 31.1 14.05 23.85 31.25 17.25 36.0 -1.25 L47.95 28.5 Q50.0 33.8 52.5 38.9" fill="#ffffff" fill-rule="evenodd" stroke="none"/>
  </g>
</svg>
