<?xml version="1.0" encoding="UTF-8" standalone="no"?>
<svg xmlns:ffdec="https://www.free-decompiler.com/flash" xmlns:xlink="http://www.w3.org/1999/xlink" ffdec:objectType="shape" height="225.0px" width="262.25px" xmlns="http://www.w3.org/2000/svg">
  <g transform="matrix(1.0, 0.0, 0.0, 1.0, 131.5, 22.0)">
    <path d="M125.0 14.3 L127.35 21.3 126.5 20.75 Q143.0 70.5 95.5 115.0 L99.75 122.25 104.0 131.75 102.0 132.25 Q96.75 136.75 92.5 138.0 L92.25 142.0 Q62.05 180.35 21.75 184.5 22.5 187.0 36.5 189.25 L36.75 196.25 Q56.5 194.25 66.25 194.5 98.5 188.5 109.5 163.5 111.0 165.25 105.25 176.25 L99.0 183.75 Q83.75 201.75 33.25 200.75 8.5 198.5 8.5 164.75 L5.5 165.0 -9.0 163.25 Q-11.0 207.5 -43.0 202.5 -72.9 201.9 -90.25 191.8 L-91.0 183.8 Q-72.6 192.3 -37.5 197.25 L-37.25 189.75 Q-25.5 188.5 -20.75 184.25 -21.75 182.25 -33.5 180.75 -69.5 171.95 -89.75 141.0 L-95.75 136.9 -96.75 116.65 -96.75 116.55 -96.25 115.75 -96.8 115.35 -98.0 90.25 -97.95 87.2 Q-91.2 93.8 -83.25 97.75 -86.0 98.75 -85.0 100.75 -71.55 130.55 -37.25 145.5 2.1 158.15 38.25 145.0 70.5 131.25 86.75 101.5 90.0 97.5 87.25 91.5 103.25 80.25 109.0 70.0 L118.25 52.0 120.7 42.2 Q125.0 30.65 125.0 22.0 L124.55 14.0 125.0 14.3 M0.85 84.6 Q-39.5 87.05 -40.25 -21.75 -36.25 25.75 3.55 24.55 35.5 22.65 40.0 -22.0 40.0 28.75 30.85 55.35 8.05 73.55 0.85 84.6 M-126.25 16.95 Q-129.05 30.4 -130.35 46.0 L-130.5 44.25 -129.5 29.5 -127.75 21.75 -126.25 16.95" fill="#000000" fill-opacity="0.49803922" fill-rule="evenodd" stroke="none"/>
    <path d="M100.5 18.0 L103.45 11.65 Q102.95 26.35 96.9 39.9 L95.85 41.0 Q89.75 47.4 81.25 53.5 L66.5 63.5 Q53.75 72.05 35.5 80.7 12.8 91.5 2.25 91.5 -0.1 91.5 -1.9 90.05 0.25 83.35 10.95 72.75 11.35 73.45 12.0 74.0 13.8 75.5 16.75 75.5 25.7 75.5 50.55 61.6 72.95 49.15 78.5 43.5 82.1 39.85 90.15 32.1 97.1 24.9 100.5 18.0 M-92.45 2.15 L-93.2 12.4 Q-98.0 79.95 -98.0 90.25 L-96.75 116.65 Q-95.5 141.2 -95.5 144.5 -95.5 148.2 -92.75 169.5 -90.0 190.85 -90.0 196.75 L-90.0 199.0 Q-90.25 200.5 -91.75 200.5 -107.9 200.5 -121.0 144.5 -125.65 124.6 -128.8 102.25 -131.5 83.15 -131.5 75.25 -131.5 58.55 -130.15 43.85 L-130.5 56.75 Q-130.5 71.65 -126.5 93.5 -121.0 123.5 -112.25 123.5 -104.3 123.5 -101.55 92.9 -100.75 83.6 -100.35 70.8 L-100.0 58.5 Q-99.2 51.55 -98.5 40.65 -97.85 30.6 -97.15 25.05 -95.9 15.3 -92.45 2.15" fill="#000000" fill-opacity="0.49803922" fill-rule="evenodd" stroke="none"/>
  </g>
</svg>
