<?xml version="1.0" encoding="UTF-8" standalone="no"?>
<svg xmlns:ffdec="https://www.free-decompiler.com/flash" xmlns:xlink="http://www.w3.org/1999/xlink" ffdec:objectType="shape" height="166.25px" width="176.95px" xmlns="http://www.w3.org/2000/svg">
  <g transform="matrix(1.0, 0.0, 0.0, 1.0, 87.8, 1.25)">
    <path d="M51.6 37.05 Q42.25 40.4 37.9 44.7 42.65 48.85 59.65 52.05 L64.95 60.05 Q67.2 63.2 70.0 65.75 83.7 78.75 88.15 97.05 91.65 111.65 82.75 123.75 71.75 137.15 57.1 146.35 43.9 154.55 28.95 159.35 18.8 162.6 8.25 164.75 L4.75 165.0 -9.25 163.25 Q-22.55 161.05 -35.1 156.15 -43.35 133.7 -48.05 118.35 -54.6 96.95 -61.9 65.85 -48.1 40.1 -35.5 1.75 -31.5 13.4 -21.25 20.1 -4.45 31.1 14.05 23.85 31.25 17.25 36.0 -1.25 L47.95 28.5 51.6 37.05 M-78.25 127.25 Q-93.0 107.5 -85.0 99.25 L-84.0 98.2 -82.55 102.05 Q-73.7 125.1 -61.35 142.1 -70.5 135.6 -78.25 127.25" fill="#ffffff" fill-rule="evenodd" stroke="none"/>
  </g>
</svg>
