<?xml version="1.0" encoding="UTF-8" standalone="no"?>
<svg xmlns:ffdec="https://www.free-decompiler.com/flash" xmlns:xlink="http://www.w3.org/1999/xlink" ffdec:objectType="shape" height="225.0px" width="278.5px" xmlns="http://www.w3.org/2000/svg">
  <g transform="matrix(1.0, 0.0, 0.0, 1.0, 130.5, 22.0)">
    <path d="M115.45 57.5 Q123.7 57.45 130.1 56.05 125.85 86.6 95.5 115.0 L99.75 122.25 104.0 131.75 102.0 132.25 Q96.75 136.75 92.5 138.0 L92.25 142.0 Q62.05 180.35 21.75 184.5 22.5 187.0 36.5 189.25 L36.75 196.25 Q56.5 194.25 66.25 194.5 98.5 188.5 109.5 163.5 111.0 165.25 105.25 176.25 L99.0 183.75 Q83.75 201.75 33.25 200.75 8.5 198.5 8.5 164.75 L5.5 165.0 -9.0 163.25 Q-11.0 207.5 -43.0 202.5 -93.5 201.5 -108.25 173.25 L-110.75 167.25 -111.0 164.0 Q-106.5 187.5 -37.5 197.25 L-37.25 189.75 Q-25.5 188.5 -20.75 184.25 -21.75 182.25 -33.5 180.75 -69.5 171.95 -89.75 141.0 -102.75 131.75 -105.0 132.75 L-101.75 124.5 -96.25 115.75 Q-119.5 98.75 -126.0 77.25 L-128.25 69.0 -130.5 44.25 -129.5 29.5 -127.75 21.75 -126.0 16.2 -125.65 15.3 -124.15 14.3 Q-124.5 18.0 -124.5 22.0 -124.5 34.75 -121.25 45.7 L-121.0 47.25 Q-108.45 84.5 -84.35 97.2 L-84.0 98.1 Q-85.85 99.05 -85.0 100.75 -81.9 107.65 -77.65 113.8 -59.8 152.9 -30.5 172.0 L-30.5 168.5 -39.25 144.6 -37.25 145.5 Q2.1 158.15 38.25 145.0 70.5 131.25 86.75 101.5 90.0 97.5 87.25 91.5 103.25 80.25 109.0 70.0 L115.45 57.5 M3.55 24.55 Q35.5 22.65 40.0 -22.0 40.0 81.75 1.75 84.5 -39.5 88.25 -40.25 -21.75 -36.25 25.75 3.55 24.55" fill="#000000" fill-opacity="0.49803922" fill-rule="evenodd" stroke="none"/>
    <path d="M147.75 35.95 L148.0 40.75 Q148.0 43.55 147.2 46.05 L144.0 49.5 Q135.0 57.5 114.75 57.5 97.8 57.5 72.0 54.0 44.2 50.2 37.9 44.7 40.65 41.95 45.4 39.6 51.15 44.0 70.5 46.0 L105.5 47.5 Q124.5 47.5 134.0 45.0 144.65 42.2 147.75 35.95 M102.75 4.35 Q106.6 17.05 107.65 27.95 L96.65 28.3 102.45 27.75 Q101.45 10.65 99.3 -5.7 101.1 -1.2 102.75 4.35 M-62.35 73.55 L-67.5 52.75 Q-73.5 28.5 -74.7 6.05 -70.0 30.3 -65.0 52.5 -55.95 92.5 -48.05 118.35 -42.1 137.75 -30.5 168.5 L-30.5 172.0 Q-64.05 150.15 -82.55 102.05 -94.7 70.3 -98.15 33.75 -94.05 49.75 -89.55 63.7 -75.9 106.0 -66.25 106.0 -60.0 106.0 -60.0 92.0 -60.0 84.25 -62.35 73.55" fill="#000000" fill-opacity="0.49803922" fill-rule="evenodd" stroke="none"/>
  </g>
</svg>
