<?xml version="1.0" encoding="UTF-8" standalone="no"?>
<svg xmlns:ffdec="https://www.free-decompiler.com/flash" xmlns:xlink="http://www.w3.org/1999/xlink" ffdec:objectType="shape" height="234.45px" width="297.5px" xmlns="http://www.w3.org/2000/svg">
  <g transform="matrix(1.0, 0.0, 0.0, 1.0, 130.5, 31.45)">
    <path d="M109.0 70.0 L118.25 52.0 119.4 47.45 Q124.6 52.8 128.7 56.25 L129.9 57.25 Q125.25 87.15 95.5 115.0 L99.75 122.25 104.0 131.75 102.0 132.25 Q96.75 136.75 92.5 138.0 L92.25 142.0 Q62.05 180.35 21.75 184.5 22.5 187.0 36.5 189.25 L36.75 196.25 Q56.5 194.25 66.25 194.5 98.5 188.5 109.5 163.5 111.0 165.25 105.25 176.25 L99.0 183.75 Q83.75 201.75 33.25 200.75 8.5 198.5 8.5 164.75 L5.5 165.0 -9.0 163.25 Q-11.0 207.5 -43.0 202.5 -93.5 201.5 -108.25 173.25 L-110.75 167.25 -111.0 164.0 Q-106.5 187.5 -37.5 197.25 L-37.25 189.75 Q-25.5 188.5 -20.75 184.25 -21.75 182.25 -33.5 180.75 -69.5 171.95 -89.75 141.0 -102.75 131.75 -105.0 132.75 L-101.75 124.5 -96.25 115.75 Q-119.5 98.75 -126.0 77.25 L-128.25 69.0 -130.5 44.25 -129.5 29.5 -127.75 21.75 -126.0 16.2 -125.65 15.3 -124.15 14.3 Q-124.5 18.0 -124.5 22.0 -124.5 34.75 -121.25 45.7 L-121.0 47.25 Q-108.15 85.35 -83.25 97.75 -86.0 98.75 -85.0 100.75 -71.55 130.55 -37.25 145.5 2.1 158.15 38.25 145.0 70.5 131.25 86.75 101.5 90.0 97.5 87.25 91.5 103.25 80.25 109.0 70.0 M-37.85 22.1 Q-40.1 3.05 -40.25 -21.75 -36.25 25.75 3.55 24.55 35.5 22.65 40.0 -22.0 40.0 78.3 4.3 84.2 L-1.2 76.5 Q-28.0 38.5 -37.85 22.1" fill="#000000" fill-opacity="0.49803922" fill-rule="evenodd" stroke="none"/>
    <path d="M24.5 112.5 Q24.5 113.4 24.0 114.0 23.55 114.5 23.0 114.5 13.65 114.5 -20.55 86.75 -33.0 76.65 -44.2 66.55 -54.55 57.15 -56.0 55.0 L-60.25 48.2 Q-56.9 52.35 -53.0 55.5 -45.15 62.4 -38.25 67.4 -24.9 77.0 -17.5 77.0 -14.5 77.0 -14.5 71.5 -14.5 69.3 -21.6 55.7 L-37.25 25.8 -44.45 11.15 -38.5 21.0 Q-28.9 37.2 -1.2 76.5 L24.5 112.5 M98.65 -31.45 Q105.75 -19.05 110.1 -9.35 114.7 0.95 118.7 13.85 L109.05 7.2 106.4 5.45 109.65 7.4 Q104.7 -12.2 98.65 -31.45 M72.0 -5.75 Q72.0 -6.35 72.25 -6.85 74.4 -0.85 80.45 6.35 88.7 16.25 102.5 26.5 115.2 35.9 127.8 42.15 140.5 48.5 147.0 48.5 154.25 48.5 158.0 45.0 161.5 41.7 161.5 35.75 L161.5 35.35 Q167.0 49.0 167.0 57.5 167.0 59.35 166.45 61.05 162.2 67.5 153.5 67.5 141.95 67.5 128.7 56.25 124.05 52.35 118.0 46.0 L108.5 36.0 Q97.95 26.75 89.2 18.0 72.0 0.8 72.0 -5.75" fill="#000000" fill-opacity="0.49803922" fill-rule="evenodd" stroke="none"/>
  </g>
</svg>
