<?xml version="1.0" encoding="UTF-8" standalone="no"?>
<svg xmlns:ffdec="https://www.free-decompiler.com/flash" xmlns:xlink="http://www.w3.org/1999/xlink" ffdec:objectType="shape" height="166.25px" width="176.95px" xmlns="http://www.w3.org/2000/svg">
  <g transform="matrix(1.0, 0.0, 0.0, 1.0, 87.8, 1.25)">
    <path d="M24.5 53.0 Q17.0 45.3 4.05 33.3 L-3.1 26.65 Q5.3 27.3 14.05 23.85 31.25 17.25 36.0 -1.25 L47.95 28.5 Q54.55 45.35 64.95 60.05 67.2 63.2 70.0 65.75 83.7 78.75 88.15 97.05 91.65 111.65 82.75 123.75 71.75 137.15 57.1 146.35 43.9 154.55 28.95 159.35 18.8 162.6 8.25 164.75 L4.75 165.0 -9.25 163.25 Q-28.2 160.1 -45.55 151.55 -64.15 142.4 -78.25 127.25 -93.0 107.5 -85.0 99.25 -64.2 77.25 -45.8 30.5 -40.75 38.25 -38.0 41.0 -26.25 52.95 8.3 69.65 44.15 87.0 59.75 87.0 61.5 87.0 63.5 86.0 61.65 78.9 47.5 69.65 39.4 64.55 35.45 61.8 28.5 57.1 24.5 53.0" fill="#ffffff" fill-rule="evenodd" stroke="none"/>
  </g>
</svg>
