<?xml version="1.0" encoding="UTF-8" standalone="no"?>
<svg xmlns:ffdec="https://www.free-decompiler.com/flash" xmlns:xlink="http://www.w3.org/1999/xlink" ffdec:objectType="shape" height="225.0px" width="278.0px" xmlns="http://www.w3.org/2000/svg">
  <g transform="matrix(1.0, 0.0, 0.0, 1.0, 130.5, 22.0)">
    <path d="M-40.0 -9.65 L-40.25 -21.75 Q-36.25 25.75 3.55 24.55 35.5 22.65 40.0 -22.0 40.0 31.15 29.95 57.85 26.75 55.3 24.5 53.0 17.0 45.3 4.05 33.3 L-3.1 26.65 Q-12.4 25.9 -21.25 20.1 -31.5 13.4 -35.5 1.75 L-38.45 -8.15 -40.0 -9.65 M-121.0 47.25 Q-108.15 85.35 -83.25 97.75 -86.0 98.75 -85.0 100.75 -71.55 130.55 -37.25 145.5 2.1 158.15 38.25 145.0 70.5 131.25 86.75 101.5 90.0 97.5 87.25 91.5 103.25 80.25 109.0 70.0 L118.25 52.0 118.75 50.1 Q124.4 57.0 129.5 57.0 L129.95 57.0 Q125.35 87.05 95.5 115.0 L99.75 122.25 104.0 131.75 102.0 132.25 Q96.75 136.75 92.5 138.0 L92.25 142.0 Q62.05 180.35 21.75 184.5 22.5 187.0 36.5 189.25 L36.75 196.25 Q56.5 194.25 66.25 194.5 98.5 188.5 109.5 163.5 111.0 165.25 105.25 176.25 L99.0 183.75 Q83.75 201.75 33.25 200.75 8.5 198.5 8.5 164.75 L5.5 165.0 -9.0 163.25 Q-11.0 207.5 -43.0 202.5 -93.5 201.5 -108.25 173.25 L-110.75 167.25 -111.0 164.0 Q-106.5 187.5 -37.5 197.25 L-37.25 189.75 Q-25.5 188.5 -20.75 184.25 -21.75 182.25 -33.5 180.75 -69.5 171.95 -89.75 141.0 -102.75 131.75 -105.0 132.75 L-101.75 124.5 -96.25 115.75 Q-119.5 98.75 -126.0 77.25 L-128.25 69.0 -130.5 44.25 -129.5 29.5 -127.75 21.75 -126.0 16.2 -125.65 15.3 -124.15 14.3 Q-124.5 18.0 -124.5 22.0 -124.5 34.75 -121.25 45.7 L-121.0 47.25 M20.1 75.15 Q12.4 83.75 1.75 84.5 -24.05 86.85 -34.0 44.65 -21.1 55.45 8.3 69.65 L20.1 75.15" fill="#000000" fill-opacity="0.49803922" fill-rule="evenodd" stroke="none"/>
    <path d="M144.0 29.5 Q145.45 27.25 146.4 24.35 147.5 28.9 147.5 32.75 147.5 42.75 143.0 49.5 138.05 57.0 129.5 57.0 122.95 57.0 115.4 45.5 108.8 35.5 102.5 18.5 L101.15 14.75 Q112.5 37.0 127.75 37.0 139.05 37.0 144.0 29.5 M21.5 65.0 Q22.5 63.7 22.5 62.75 22.5 56.25 7.4 40.55 0.8 33.65 -7.3 26.05 L-3.1 26.65 4.05 33.3 Q17.0 45.3 24.5 53.0 28.5 57.1 35.45 61.8 39.4 64.55 47.5 69.65 61.65 78.9 63.5 86.0 61.5 87.0 59.75 87.0 44.15 87.0 8.3 69.65 -26.25 52.95 -38.0 41.0 -39.85 39.1 -42.8 34.95 -35.25 40.5 -26.05 46.3 6.1 66.5 19.0 66.5 20.35 66.5 21.5 65.0" fill="#000000" fill-opacity="0.49803922" fill-rule="evenodd" stroke="none"/>
  </g>
</svg>
