<?xml version="1.0" encoding="UTF-8" standalone="no"?>
<svg xmlns:ffdec="https://www.free-decompiler.com/flash" xmlns:xlink="http://www.w3.org/1999/xlink" ffdec:objectType="shape" height="166.25px" width="176.95px" xmlns="http://www.w3.org/2000/svg">
  <g transform="matrix(1.0, 0.0, 0.0, 1.0, 87.8, 1.25)">
    <path d="M77.75 83.5 L80.55 83.0 Q82.0 82.45 82.0 81.75 82.0 80.95 43.7 48.0 L15.0 23.5 Q31.4 16.75 36.0 -1.25 L47.95 28.5 Q54.55 45.35 64.95 60.05 67.2 63.2 70.0 65.75 83.7 78.75 88.15 97.05 91.65 111.65 82.75 123.75 71.75 137.15 57.1 146.35 43.9 154.55 28.95 159.35 18.8 162.6 8.25 164.75 L4.75 165.0 -9.25 163.25 Q-28.2 160.1 -45.55 151.55 -64.15 142.4 -78.25 127.25 -93.0 107.5 -85.0 99.25 -62.2 75.15 -42.3 21.3 L-33.5 31.5 Q-21.55 45.35 20.1 64.55 38.1 72.85 53.5 78.0 69.9 83.5 77.75 83.5" fill="#ffffff" fill-rule="evenodd" stroke="none"/>
  </g>
</svg>
