<?xml version="1.0" encoding="UTF-8" standalone="no"?>
<svg xmlns:ffdec="https://www.free-decompiler.com/flash" xmlns:xlink="http://www.w3.org/1999/xlink" ffdec:objectType="shape" height="256.05px" width="289.5px" xmlns="http://www.w3.org/2000/svg">
  <g transform="matrix(1.0, 0.0, 0.0, 1.0, 130.5, 53.05)">
    <path d="M-40.1 -13.25 L-40.25 -21.75 Q-36.25 25.75 3.55 24.55 35.5 22.65 40.0 -22.0 40.0 15.95 34.9 40.45 L15.0 23.5 14.05 23.85 Q-4.45 31.1 -21.25 20.1 -31.5 13.4 -35.5 1.75 L-38.5 -8.25 Q-39.5 -10.8 -40.1 -13.25 M-33.5 31.5 Q-21.55 45.35 20.1 64.55 L25.75 67.1 Q16.65 83.45 1.75 84.5 -28.9 87.3 -37.2 27.2 L-33.5 31.5 M-121.0 47.25 Q-108.15 85.35 -83.25 97.75 -86.0 98.75 -85.0 100.75 -71.55 130.55 -37.25 145.5 2.1 158.15 38.25 145.0 70.5 131.25 86.75 101.5 90.0 97.5 87.25 91.5 103.25 80.25 109.0 70.0 L118.25 52.0 120.7 42.2 122.15 38.1 Q126.7 45.85 130.6 50.75 128.45 84.15 95.5 115.0 L99.75 122.25 104.0 131.75 102.0 132.25 Q96.75 136.75 92.5 138.0 L92.25 142.0 Q62.05 180.35 21.75 184.5 22.5 187.0 36.5 189.25 L36.75 196.25 Q56.5 194.25 66.25 194.5 98.5 188.5 109.5 163.5 111.0 165.25 105.25 176.25 L99.0 183.75 Q83.75 201.75 33.25 200.75 8.5 198.5 8.5 164.75 L5.5 165.0 -9.0 163.25 Q-11.0 207.5 -43.0 202.5 -93.5 201.5 -108.25 173.25 L-110.75 167.25 -111.0 164.0 Q-106.5 187.5 -37.5 197.25 L-37.25 189.75 Q-25.5 188.5 -20.75 184.25 -21.75 182.25 -33.5 180.75 -69.5 171.95 -89.75 141.0 -102.75 131.75 -105.0 132.75 L-101.75 124.5 -96.25 115.75 Q-119.5 98.75 -126.0 77.25 L-128.25 69.0 -130.5 44.25 -129.5 29.5 -127.75 21.75 -126.0 16.2 -125.65 15.3 -124.15 14.3 Q-124.5 18.0 -124.5 22.0 -124.5 34.75 -121.25 45.7 L-121.0 47.25" fill="#000000" fill-opacity="0.49803922" fill-rule="evenodd" stroke="none"/>
    <path d="M101.65 -38.2 Q99.15 -39.95 97.05 -40.9 L92.2 -53.05 96.25 -46.95 101.65 -38.2 M94.05 -41.85 L92.5 -42.0 91.85 -41.9 Q92.5 -42.5 93.25 -42.5 L94.05 -41.85 M149.4 4.85 Q159.0 23.95 159.0 40.5 159.0 48.6 155.0 53.5 150.45 59.0 141.75 59.0 131.2 59.0 110.0 15.0 106.0 6.75 102.55 -1.3 105.0 3.15 107.75 7.6 124.65 35.0 136.25 35.0 143.75 35.0 147.5 27.5 150.5 21.5 150.5 12.75 150.5 9.2 149.4 4.85 M9.9 25.25 L14.05 23.85 15.0 23.5 43.7 48.0 Q82.0 80.95 82.0 81.75 82.0 82.45 80.55 83.0 L77.75 83.5 Q69.9 83.5 53.5 78.0 38.1 72.85 20.1 64.55 -21.55 45.35 -33.5 31.5 L-38.0 26.3 -24.9 34.9 Q9.2 56.0 26.75 56.0 29.3 56.0 31.5 55.0 34.0 53.9 34.0 52.25 34.0 48.35 22.85 37.35 L9.9 25.25" fill="#000000" fill-opacity="0.49803922" fill-rule="evenodd" stroke="none"/>
  </g>
</svg>
