<?xml version="1.0" encoding="UTF-8" standalone="no"?>
<svg xmlns:ffdec="https://www.free-decompiler.com/flash" xmlns:xlink="http://www.w3.org/1999/xlink" ffdec:objectType="shape" height="166.25px" width="176.95px" xmlns="http://www.w3.org/2000/svg">
  <g transform="matrix(1.0, 0.0, 0.0, 1.0, 87.8, 1.25)">
    <path d="M88.15 97.05 Q91.65 111.65 82.75 123.75 71.75 137.15 57.1 146.35 43.9 154.55 28.95 159.35 18.8 162.6 8.25 164.75 L4.75 165.0 -9.25 163.25 Q-28.2 160.1 -45.55 151.55 -64.15 142.4 -78.25 127.25 -93.0 107.5 -85.0 99.25 -61.75 74.7 -41.55 19.25 -34.95 27.0 -27.5 34.5 -21.0 41.0 -5.6 50.4 9.25 59.45 27.25 68.1 66.7 87.15 85.45 88.4 87.05 92.55 88.15 97.05 M69.6 65.35 L45.4 47.1 14.15 23.85 Q31.25 17.2 36.0 -1.25 L47.95 28.5 Q54.55 45.35 64.95 60.05 67.05 62.95 69.6 65.35" fill="#ffffff" fill-rule="evenodd" stroke="none"/>
  </g>
</svg>
