<?xml version="1.0" encoding="UTF-8" standalone="no"?>
<svg xmlns:ffdec="https://www.free-decompiler.com/flash" xmlns:xlink="http://www.w3.org/1999/xlink" ffdec:objectType="shape" height="248.0px" width="261.5px" xmlns="http://www.w3.org/2000/svg">
  <g transform="matrix(1.0, 0.0, 0.0, 1.0, 130.5, 45.0)">
    <path d="M-40.1 -13.3 L-40.25 -21.75 Q-36.25 25.75 3.55 24.55 35.5 22.65 40.0 -22.0 40.0 15.2 35.1 39.45 L14.15 23.85 14.05 23.85 Q-4.45 31.1 -21.25 20.1 -31.5 13.4 -35.5 1.75 L-38.5 -8.25 Q-39.5 -10.8 -40.1 -13.3 M-37.65 23.75 L-27.5 34.5 Q-21.0 41.0 -5.6 50.4 8.55 59.05 25.6 67.3 16.55 83.45 1.75 84.5 -29.8 87.35 -37.65 23.75 M-121.0 47.25 Q-108.15 85.35 -83.25 97.75 -86.0 98.75 -85.0 100.75 -71.55 130.55 -37.25 145.5 2.1 158.15 38.25 145.0 70.5 131.25 86.75 101.5 90.0 97.5 87.25 91.5 L93.75 86.65 Q94.3 86.35 95.0 86.0 L94.8 85.8 Q104.7 77.65 109.0 70.0 L117.25 54.0 Q124.35 53.4 128.0 45.0 129.5 41.55 130.25 37.3 135.05 77.95 95.5 115.0 L99.75 122.25 104.0 131.75 102.0 132.25 Q96.75 136.75 92.5 138.0 L92.25 142.0 Q62.05 180.35 21.75 184.5 22.5 187.0 36.5 189.25 L36.75 196.25 Q56.5 194.25 66.25 194.5 98.5 188.5 109.5 163.5 111.0 165.25 105.25 176.25 L99.0 183.75 Q83.75 201.75 33.25 200.75 8.5 198.5 8.5 164.75 L5.5 165.0 -9.0 163.25 Q-11.0 207.5 -43.0 202.5 -93.5 201.5 -108.25 173.25 L-110.75 167.25 -111.0 164.0 Q-106.5 187.5 -37.5 197.25 L-37.25 189.75 Q-25.5 188.5 -20.75 184.25 -21.75 182.25 -33.5 180.75 -69.5 171.95 -89.75 141.0 -102.75 131.75 -105.0 132.75 L-101.75 124.5 -96.25 115.75 Q-119.5 98.75 -126.0 77.25 L-128.25 69.0 -130.5 44.25 -129.5 29.5 -127.75 21.75 -126.0 16.2 -125.65 15.3 -124.15 14.3 Q-124.5 18.0 -124.5 22.0 -124.5 34.75 -121.25 45.7 L-121.0 47.25" fill="#000000" fill-opacity="0.49803922" fill-rule="evenodd" stroke="none"/>
    <path d="M95.0 86.0 L91.65 87.65 Q89.5 88.5 88.0 88.5 69.55 88.5 27.25 68.1 9.25 59.45 -5.6 50.4 -21.0 41.0 -27.5 34.5 L-34.85 26.85 -31.5 29.15 Q-14.95 40.45 1.05 47.1 18.8 54.5 32.0 54.5 L34.5 54.0 Q36.0 53.35 36.0 52.25 36.0 47.85 21.9 34.0 L12.0 24.6 14.05 23.85 14.15 23.85 45.4 47.1 Q78.5 71.6 95.0 86.0 M88.4 -26.0 L88.5 -29.5 Q88.5 -36.1 87.7 -45.0 L91.35 -30.15 93.9 -19.25 88.4 -26.0 M72.8 -10.85 Q68.65 -21.4 67.5 -30.35 L69.85 -23.25 Q74.15 -11.35 80.5 1.0 96.45 32.0 106.5 32.0 115.95 32.0 121.5 25.0 126.5 18.65 126.5 9.25 L126.15 2.65 Q131.0 16.75 131.0 27.75 131.0 38.0 128.0 45.0 124.1 54.0 116.25 54.0 104.0 54.0 95.95 41.55 92.9 36.8 89.6 29.05 L84.0 15.0 Q76.15 -2.35 72.8 -10.85" fill="#000000" fill-opacity="0.49803922" fill-rule="evenodd" stroke="none"/>
  </g>
</svg>
