<?xml version="1.0" encoding="UTF-8" standalone="no"?>
<svg xmlns:ffdec="https://www.free-decompiler.com/flash" xmlns:xlink="http://www.w3.org/1999/xlink" ffdec:objectType="shape" height="273.9px" width="261.25px" xmlns="http://www.w3.org/2000/svg">
  <g transform="matrix(1.0, 0.0, 0.0, 1.0, 130.5, 70.45)">
    <path d="M85.5 94.75 Q85.5 93.2 48.4 58.85 L11.25 24.85 14.05 23.85 Q31.25 17.25 36.0 -1.25 L47.95 28.5 Q54.55 45.35 64.95 60.05 67.2 63.2 70.0 65.75 83.7 78.75 88.15 97.05 91.65 111.65 82.75 123.75 71.75 137.15 57.1 146.35 43.9 154.55 28.95 159.35 18.8 162.6 8.25 164.75 L4.75 165.0 -9.25 163.25 Q-28.2 160.1 -45.55 151.55 -64.15 142.4 -78.25 127.25 -93.0 107.5 -85.0 99.25 -62.65 75.65 -43.05 23.35 L-38.0 30.5 Q-21.8 53.05 17.1 73.5 48.05 89.75 75.0 96.5 L85.0 96.5 85.25 95.9 85.5 94.75" fill="#ffffff" fill-rule="evenodd" stroke="none"/>
    <path d="M-25.75 -48.5 Q-27.5 -49.0 -30.5 -57.25 L-30.5 -64.5 -29.25 -66.5 Q-17.6 -72.4 -4.55 -69.5 L-3.25 -69.25 -3.0 -69.0 Q10.65 -71.05 24.45 -68.5 28.05 -67.7 30.0 -64.5 29.5 -56.0 28.5 -55.0 L25.25 -49.25 Q18.5 -39.5 -0.5 -47.0 -17.5 -39.25 -25.75 -48.5 M12.0 -47.0 Q22.5 -52.5 14.0 -57.0 -1.5 -55.0 12.0 -47.0 M-11.75 -47.0 Q-0.5 -56.25 -15.5 -56.75 -22.5 -48.75 -11.75 -47.0" fill="#ffffff" fill-rule="evenodd" stroke="none"/>
    <path d="M25.25 -49.25 Q42.9 -39.25 39.75 -18.65 L39.65 -17.75 Q36.55 -19.1 34.05 -19.75 L33.5 -19.5 Q31.5 -18.4 31.5 -16.5 31.5 -12.65 36.95 -4.8 L36.0 -1.25 Q31.25 17.25 14.05 23.85 -4.45 31.1 -21.25 20.1 -31.5 13.4 -35.5 1.75 L-38.5 -8.25 Q-48.0 -33.0 -25.75 -48.5 -17.5 -39.25 -0.5 -47.0 18.5 -39.5 25.25 -49.25 M-88.25 122.25 L-78.25 127.25 Q-64.15 142.4 -45.55 151.55 -28.2 160.1 -9.25 163.25 -8.5 175.6 -14.1 186.75 -16.05 190.55 -19.35 193.3 -34.3 205.9 -55.3 202.85 -75.65 200.25 -93.05 189.6 -111.45 178.45 -110.8 156.7 -110.1 134.55 -96.5 116.25 L-88.25 122.25 M28.95 159.35 Q43.9 154.55 57.1 146.35 71.75 137.15 82.75 123.75 L84.2 123.15 Q90.3 120.05 95.5 115.25 111.0 141.75 110.5 154.0 111.0 193.0 55.25 201.0 30.5 204.25 16.75 193.0 11.5 190.0 8.25 164.75 18.8 162.6 28.95 159.35" fill="#e58508" fill-rule="evenodd" stroke="none"/>
    <path d="M-11.75 -47.0 Q-22.5 -48.75 -15.5 -56.75 -0.5 -56.25 -11.75 -47.0 M12.0 -47.0 Q-1.5 -55.0 14.0 -57.0 22.5 -52.5 12.0 -47.0" fill="#000000" fill-rule="evenodd" stroke="none"/>
    <path d="M39.5 -17.8 L40.0 -22.0 40.0 -17.6 39.5 -17.8 M39.6 -1.2 Q38.35 26.55 33.75 45.35 L11.25 24.85 Q-5.75 30.25 -21.25 20.1 -31.5 13.4 -35.5 1.75 L-38.5 -8.25 Q-39.5 -10.8 -40.1 -13.25 L-40.25 -21.75 Q-36.25 25.75 3.55 24.55 28.7 23.05 36.85 -4.95 L39.6 -1.2 M126.5 20.75 Q143.0 70.5 95.5 115.0 L99.75 122.25 104.0 131.75 102.0 132.25 Q96.75 136.75 92.5 138.0 L92.25 142.0 Q62.05 180.35 21.75 184.5 22.5 187.0 36.5 189.25 L36.75 196.25 Q56.5 194.25 66.25 194.5 98.5 188.5 109.5 163.5 111.0 165.25 105.25 176.25 L99.0 183.75 Q83.75 201.75 33.25 200.75 8.5 198.5 8.5 164.75 L5.5 165.0 -9.0 163.25 Q-11.0 207.5 -43.0 202.5 -93.5 201.5 -108.25 173.25 L-110.75 167.25 -111.0 164.0 Q-106.5 187.5 -37.5 197.25 L-37.25 189.75 Q-25.5 188.5 -20.75 184.25 -21.75 182.25 -33.5 180.75 -69.5 171.95 -89.75 141.0 -102.75 131.75 -105.0 132.75 L-101.75 124.5 -96.25 115.75 Q-119.5 98.75 -126.0 77.25 L-128.25 69.0 -130.5 44.25 -129.5 29.5 -127.75 21.75 -126.0 16.2 -125.65 15.3 -124.15 14.3 Q-124.5 18.0 -124.5 22.0 -124.5 34.75 -121.25 45.7 L-121.0 47.25 Q-108.15 85.35 -83.25 97.75 -86.0 98.75 -85.0 100.75 -71.55 130.55 -37.25 145.5 2.1 158.15 38.25 145.0 70.5 131.25 86.75 101.5 90.0 97.5 87.25 91.5 103.25 80.25 109.0 70.0 L114.3 59.7 Q116.85 58.75 119.15 56.7 L119.5 56.0 Q123.5 48.05 123.5 34.75 L123.5 33.3 Q125.0 27.15 125.0 22.0 L124.55 14.0 125.0 14.3 127.35 21.3 126.5 20.75 M20.15 75.1 Q12.45 83.75 1.75 84.5 -27.5 87.15 -36.35 32.7 -19.9 54.05 17.1 73.5 L20.15 75.1" fill="#000000" fill-opacity="0.49803922" fill-rule="evenodd" stroke="none"/>
    <path d="M37.75 -8.8 Q45.6 2.4 57.5 14.5 69.85 27.0 81.1 34.8 93.65 43.5 101.0 43.5 113.2 43.5 119.0 33.0 121.35 28.7 122.6 22.85 123.5 29.3 123.5 34.75 123.5 48.05 119.5 56.0 L119.15 56.7 Q114.85 60.5 109.75 60.5 98.4 60.5 86.15 50.9 76.7 43.5 67.5 31.0 L47.1 8.0 Q31.5 -10.0 31.5 -16.5 31.5 -17.45 32.05 -18.2 34.05 -14.1 37.75 -8.8 M85.5 94.75 L85.25 95.9 85.0 96.5 75.0 96.5 Q48.05 89.75 17.1 73.5 -21.8 53.05 -38.0 30.5 -45.75 19.75 -52.15 10.0 -44.55 19.0 -35.85 27.15 -8.7 52.5 14.25 52.5 18.3 52.5 19.5 51.0 20.5 49.75 20.5 45.75 20.5 37.7 13.65 28.25 L11.05 24.9 11.25 24.85 48.4 58.85 Q85.5 93.2 85.5 94.75 M85.9 -24.35 Q87.0 -15.45 87.0 -6.5 L86.55 7.75 86.35 12.05 82.95 9.3 84.25 -8.85 85.5 -27.4 85.9 -24.35" fill="#000000" fill-opacity="0.49803922" fill-rule="evenodd" stroke="none"/>
  </g>
</svg>
