<?xml version="1.0" encoding="UTF-8" standalone="no"?>
<svg xmlns:ffdec="https://www.free-decompiler.com/flash" xmlns:xlink="http://www.w3.org/1999/xlink" ffdec:objectType="shape" height="166.25px" width="176.95px" xmlns="http://www.w3.org/2000/svg">
  <g transform="matrix(1.0, 0.0, 0.0, 1.0, 87.8, 1.25)">
    <path d="M14.05 23.85 Q31.25 17.25 36.0 -1.25 L47.95 28.5 Q54.55 45.35 64.95 60.05 67.2 63.2 70.0 65.75 83.7 78.75 88.15 97.05 91.4 110.55 84.05 121.9 81.45 118.95 64.55 102.3 42.45 80.6 36.5 73.5 31.3 67.35 14.75 44.3 L1.75 26.7 1.05 26.7 Q7.45 26.45 14.05 23.85 M8.25 164.75 L4.75 165.0 -9.25 163.25 Q-28.2 160.1 -45.55 151.55 -64.15 142.4 -78.25 127.25 -93.0 107.5 -85.0 99.25 -63.65 76.7 -44.85 28.05 L-34.0 45.5 Q-27.15 56.3 -14.15 69.7 -0.65 83.6 14.85 95.55 52.45 124.5 77.25 124.5 L82.0 124.0 82.7 123.85 Q71.7 137.2 57.1 146.35 43.9 154.55 28.95 159.35 18.8 162.6 8.25 164.75" fill="#ffffff" fill-rule="evenodd" stroke="none"/>
  </g>
</svg>
