<?xml version="1.0" encoding="UTF-8" standalone="no"?>
<svg xmlns:ffdec="https://www.free-decompiler.com/flash" xmlns:xlink="http://www.w3.org/1999/xlink" ffdec:objectType="shape" height="227.5px" width="263.0px" xmlns="http://www.w3.org/2000/svg">
  <g transform="matrix(1.0, 0.0, 0.0, 1.0, 130.5, 24.5)">
    <path d="M-33.7 46.0 Q-26.85 56.6 -14.15 69.7 -6.65 77.4 1.45 84.55 -23.7 86.55 -33.7 46.0 M-38.5 -8.25 Q-39.5 -10.8 -40.1 -13.25 L-40.25 -21.75 Q-36.25 25.75 3.55 24.55 35.5 22.65 40.0 -22.0 40.0 36.1 28.0 62.55 L14.75 44.3 1.75 26.7 Q-10.15 27.4 -21.25 20.1 -31.5 13.4 -35.5 1.75 L-38.5 -8.25 M-121.0 47.25 Q-108.15 85.35 -83.25 97.75 -86.0 98.75 -85.0 100.75 -71.55 130.55 -37.25 145.5 2.1 158.15 38.25 145.0 56.75 137.1 70.05 123.95 L77.25 124.5 82.0 124.0 Q84.5 123.45 84.5 122.5 84.5 122.2 77.7 115.35 82.7 108.9 86.75 101.5 90.0 97.5 87.25 91.5 103.25 80.25 109.0 70.0 L116.55 55.4 Q119.95 57.0 121.25 57.0 L127.8 56.7 129.0 55.5 130.4 53.4 Q127.15 85.35 95.5 115.0 L99.75 122.25 104.0 131.75 102.0 132.25 Q96.75 136.75 92.5 138.0 L92.25 142.0 Q62.05 180.35 21.75 184.5 22.5 187.0 36.5 189.25 L36.75 196.25 Q56.5 194.25 66.25 194.5 98.5 188.5 109.5 163.5 111.0 165.25 105.25 176.25 L99.0 183.75 Q83.75 201.75 33.25 200.75 8.5 198.5 8.5 164.75 L5.5 165.0 -9.0 163.25 Q-11.0 207.5 -43.0 202.5 -93.5 201.5 -108.25 173.25 L-110.75 167.25 -111.0 164.0 Q-106.5 187.5 -37.5 197.25 L-37.25 189.75 Q-25.5 188.5 -20.75 184.25 -21.75 182.25 -33.5 180.75 -69.5 171.95 -89.75 141.0 -102.75 131.75 -105.0 132.75 L-101.75 124.5 -96.25 115.75 Q-119.5 98.75 -126.0 77.25 L-128.25 69.0 -130.5 44.25 -129.5 29.5 -127.75 21.75 -126.0 16.2 -125.65 15.3 -124.15 14.3 Q-124.5 18.0 -124.5 22.0 -124.5 34.75 -121.25 45.7 L-121.0 47.25" fill="#000000" fill-opacity="0.49803922" fill-rule="evenodd" stroke="none"/>
    <path d="M89.15 -24.5 Q90.7 -17.65 91.35 -9.75 L92.25 6.4 92.5 11.25 89.45 9.95 89.45 9.8 89.5 -5.5 Q89.5 -16.0 89.15 -24.5 M130.0 22.2 Q132.5 32.8 132.5 41.0 132.5 51.45 129.0 55.5 L127.8 56.7 121.25 57.0 Q117.85 57.0 99.95 45.95 86.65 37.7 81.5 34.0 70.95 26.8 61.55 19.65 46.4 8.05 43.65 3.15 51.6 13.55 75.0 25.5 88.15 32.2 101.8 37.0 114.45 41.5 119.0 41.5 126.15 41.5 128.55 35.5 130.0 31.8 130.0 22.75 L130.0 22.2 M1.75 26.7 L14.75 44.3 Q31.3 67.35 36.5 73.5 42.45 80.6 64.55 102.3 84.5 121.95 84.5 122.5 84.5 123.45 82.0 124.0 L77.25 124.5 Q52.45 124.5 14.85 95.55 -0.65 83.6 -14.15 69.7 -27.15 56.3 -34.0 45.5 L-47.15 24.25 -42.1 30.8 Q-12.95 67.5 5.0 67.5 7.9 67.5 10.5 64.0 13.0 60.7 13.0 57.5 13.0 46.7 0.25 26.75 L1.75 26.7" fill="#000000" fill-opacity="0.49803922" fill-rule="evenodd" stroke="none"/>
  </g>
</svg>
