<?xml version="1.0" encoding="UTF-8" standalone="no"?>
<svg xmlns:ffdec="https://www.free-decompiler.com/flash" xmlns:xlink="http://www.w3.org/1999/xlink" ffdec:objectType="shape" height="225.5px" width="268.5px" xmlns="http://www.w3.org/2000/svg">
  <g transform="matrix(1.0, 0.0, 0.0, 1.0, 130.5, 22.5)">
    <path d="M-40.1 -12.05 L-40.25 -21.75 Q-36.25 25.75 3.55 24.55 35.5 22.65 40.0 -22.0 40.0 51.0 21.05 74.0 1.35 46.55 -12.5 24.55 -16.95 22.9 -21.25 20.1 -31.5 13.4 -35.5 1.75 L-38.5 -8.25 -39.6 -11.5 -40.1 -12.05 M-121.0 47.25 Q-108.15 85.35 -83.25 97.75 -86.0 98.75 -85.0 100.75 -71.55 130.55 -37.25 145.5 2.1 158.15 38.25 145.0 46.75 141.35 54.2 136.65 60.15 138.65 66.0 139.5 L61.3 131.65 Q76.95 119.5 86.75 101.5 90.0 97.5 87.25 91.5 103.25 80.25 109.0 70.0 L117.25 53.95 Q125.2 57.6 129.6 59.1 124.3 88.0 95.5 115.0 L99.75 122.25 104.0 131.75 102.0 132.25 Q96.75 136.75 92.5 138.0 L92.25 142.0 Q62.05 180.35 21.75 184.5 22.5 187.0 36.5 189.25 L36.75 196.25 Q56.5 194.25 66.25 194.5 98.5 188.5 109.5 163.5 111.0 165.25 105.25 176.25 L99.0 183.75 Q83.75 201.75 33.25 200.75 8.5 198.5 8.5 164.75 L5.5 165.0 -9.0 163.25 Q-11.0 207.5 -43.0 202.5 -93.5 201.5 -108.25 173.25 L-110.75 167.25 -111.0 164.0 Q-106.5 187.5 -37.5 197.25 L-37.25 189.75 Q-25.5 188.5 -20.75 184.25 -21.75 182.25 -33.5 180.75 -69.5 171.95 -89.75 141.0 -102.75 131.75 -105.0 132.75 L-101.75 124.5 -96.25 115.75 Q-119.5 98.75 -126.0 77.25 L-128.25 69.0 -130.5 44.25 -129.5 29.5 -127.75 21.75 -126.0 16.2 -125.65 15.3 -124.15 14.3 Q-124.5 18.0 -124.5 22.0 -124.5 34.75 -121.25 45.7 L-121.0 47.25" fill="#000000" fill-opacity="0.49803922" fill-rule="evenodd" stroke="none"/>
    <path d="M91.1 -22.5 L93.35 -7.6 95.7 15.55 86.55 12.6 78.05 10.1 83.45 11.5 92.2 13.9 91.75 -3.8 91.1 -22.5 M135.85 32.85 Q138.0 41.95 138.0 48.5 138.0 53.15 135.0 56.5 133.15 58.6 130.8 59.45 126.1 58.1 116.05 53.4 104.6 48.05 91.8 41.0 L86.5 38.0 Q46.5 15.3 46.5 7.75 L46.55 7.4 47.15 8.05 Q54.85 16.8 67.6 24.9 80.0 32.75 93.2 37.5 106.95 42.5 117.25 42.5 128.45 42.5 132.5 39.0 134.85 36.95 135.85 32.85 M7.0 73.0 Q9.0 70.75 9.0 68.25 9.0 59.35 -4.65 36.75 10.5 59.8 31.25 88.05 54.95 120.35 66.0 139.5 40.5 135.7 11.55 110.0 -15.0 86.45 -38.85 49.9 -52.45 29.05 -62.7 7.9 -55.75 19.8 -47.6 31.5 -17.0 75.5 1.5 75.5 4.75 75.5 7.0 73.0" fill="#000000" fill-opacity="0.49803922" fill-rule="evenodd" stroke="none"/>
  </g>
</svg>
