<?xml version="1.0" encoding="UTF-8" standalone="no"?>
<svg xmlns:ffdec="https://www.free-decompiler.com/flash" xmlns:xlink="http://www.w3.org/1999/xlink" ffdec:objectType="shape" height="166.25px" width="176.95px" xmlns="http://www.w3.org/2000/svg">
  <g transform="matrix(1.0, 0.0, 0.0, 1.0, 87.8, 1.25)">
    <path d="M70.0 65.75 Q83.7 78.75 88.15 97.05 91.65 111.65 82.75 123.75 71.75 137.15 57.1 146.35 43.9 154.55 28.95 159.35 18.8 162.6 8.25 164.75 L4.75 165.0 -9.25 163.25 Q-28.2 160.1 -45.55 151.55 -64.15 142.4 -78.25 127.25 -93.0 107.5 -85.0 99.25 -69.55 82.95 -55.45 53.05 L-47.5 67.5 Q-39.1 81.85 -31.1 90.7 -23.65 98.95 -9.5 110.0 -5.4 113.15 15.9 125.85 37.95 139.0 39.75 139.0 L41.55 138.75 43.5 138.5 Q37.45 129.3 26.5 114.2 L7.7 88.2 Q-15.55 55.35 -27.0 31.0 -31.25 21.95 -38.35 10.3 L-35.5 1.75 Q-31.5 13.4 -21.25 20.1 -4.45 31.1 14.05 23.85 31.25 17.25 36.0 -1.25 L47.95 28.5 Q54.55 45.35 64.95 60.05 67.2 63.2 70.0 65.75" fill="#ffffff" fill-rule="evenodd" stroke="none"/>
  </g>
</svg>
