<?xml version="1.0" encoding="UTF-8" standalone="no"?>
<svg xmlns:ffdec="https://www.free-decompiler.com/flash" xmlns:xlink="http://www.w3.org/1999/xlink" ffdec:objectType="shape" height="225.0px" width="274.0px" xmlns="http://www.w3.org/2000/svg">
  <g transform="matrix(1.0, 0.0, 0.0, 1.0, 130.5, 22.0)">
    <path d="M114.95 58.5 Q122.8 63.4 128.05 65.75 121.0 91.15 95.5 115.0 L99.75 122.25 104.0 131.75 102.0 132.25 Q96.75 136.75 92.5 138.0 L92.25 142.0 Q62.05 180.35 21.75 184.5 22.5 187.0 36.5 189.25 L36.75 196.25 Q56.5 194.25 66.25 194.5 98.5 188.5 109.5 163.5 111.0 165.25 105.25 176.25 L99.0 183.75 Q83.75 201.75 33.25 200.75 8.5 198.5 8.5 164.75 L5.5 165.0 -9.0 163.25 Q-11.0 207.5 -43.0 202.5 -93.5 201.5 -108.25 173.25 L-110.75 167.25 -111.0 164.0 Q-106.5 187.5 -37.5 197.25 L-37.25 189.75 Q-25.5 188.5 -20.75 184.25 -21.75 182.25 -33.5 180.75 -69.5 171.95 -89.75 141.0 -102.75 131.75 -105.0 132.75 L-101.75 124.5 -96.25 115.75 Q-119.5 98.75 -126.0 77.25 L-128.25 69.0 -130.5 44.25 -129.5 29.5 -127.75 21.75 -126.0 16.2 -125.65 15.3 -124.15 14.3 Q-124.5 18.0 -124.5 22.0 -124.5 34.75 -121.25 45.7 L-121.0 47.25 Q-108.15 85.35 -83.25 97.75 -86.0 98.75 -85.0 100.75 -71.55 130.55 -37.25 145.5 2.1 158.15 38.25 145.0 70.5 131.25 86.75 101.5 90.0 97.5 87.25 91.5 103.25 80.25 109.0 70.0 L114.95 58.5 M-39.05 9.1 Q-40.15 -5.0 -40.25 -21.75 -36.25 25.75 3.55 24.55 35.5 22.65 40.0 -22.0 40.0 77.5 4.85 84.1 -16.25 53.8 -27.0 31.0 -31.45 21.5 -39.05 9.1" fill="#000000" fill-opacity="0.49803922" fill-rule="evenodd" stroke="none"/>
    <path d="M138.5 30.75 Q138.5 24.4 136.5 16.75 143.5 36.95 143.5 51.75 143.5 58.05 142.0 62.6 139.05 68.0 135.5 68.0 129.75 68.0 111.8 56.5 96.95 46.95 94.5 44.5 83.2 34.95 74.6 27.0 59.7 13.25 58.2 6.7 58.45 6.5 58.75 6.4 L62.6 12.65 Q69.4 22.2 81.0 31.0 91.95 39.25 103.75 44.35 115.7 49.5 124.25 49.5 132.6 49.5 136.0 43.5 138.5 39.1 138.5 30.75 M43.5 138.5 L41.55 138.75 39.75 139.0 Q37.95 139.0 15.9 125.85 -5.4 113.15 -9.5 110.0 -23.65 98.95 -31.1 90.7 -39.1 81.85 -47.5 67.5 -63.4 40.2 -74.1 10.2 L-79.05 -5.0 -75.6 3.8 Q-68.5 21.25 -60.8 36.35 -37.55 82.0 -21.5 82.0 -18.2 82.0 -16.0 79.0 -14.0 76.25 -14.0 72.75 -14.0 58.95 -32.45 21.9 L-39.2 8.85 Q-31.5 21.45 -27.0 31.0 -15.55 55.35 7.7 88.2 L26.5 114.2 Q37.45 129.3 43.5 138.5 M99.6 15.55 L96.3 14.0 Q96.3 4.15 95.6 -5.35 98.6 8.35 99.6 15.55" fill="#000000" fill-opacity="0.49803922" fill-rule="evenodd" stroke="none"/>
  </g>
</svg>
