<?xml version="1.0" encoding="UTF-8" standalone="no"?>
<svg xmlns:ffdec="https://www.free-decompiler.com/flash" xmlns:xlink="http://www.w3.org/1999/xlink" ffdec:objectType="shape" height="233.6px" width="261.25px" xmlns="http://www.w3.org/2000/svg">
  <g transform="matrix(1.0, 0.0, 0.0, 1.0, 130.5, 30.6)">
    <path d="M124.9 24.9 L125.0 22.0 124.55 14.0 125.0 14.3 127.35 21.3 126.5 20.75 Q143.0 70.5 95.5 115.0 L99.75 122.25 104.0 131.75 102.0 132.25 Q96.75 136.75 92.5 138.0 L92.25 142.0 Q62.05 180.35 21.75 184.5 22.5 187.0 36.5 189.25 L36.75 196.25 Q56.5 194.25 66.25 194.5 98.5 188.5 109.5 163.5 111.0 165.25 105.25 176.25 L99.0 183.75 Q83.75 201.75 33.25 200.75 8.5 198.5 8.5 164.75 L5.5 165.0 -9.0 163.25 Q-11.0 207.5 -43.0 202.5 -93.5 201.5 -108.25 173.25 L-110.75 167.25 -111.0 164.0 Q-106.5 187.5 -37.5 197.25 L-37.25 189.75 Q-25.5 188.5 -20.75 184.25 -21.75 182.25 -33.5 180.75 -69.5 171.95 -89.75 141.0 -102.75 131.75 -105.0 132.75 L-101.75 124.5 -96.25 115.75 Q-119.5 98.75 -126.0 77.25 L-128.25 69.0 -130.5 44.25 -129.5 29.5 -127.75 21.75 -126.0 16.2 -125.65 15.3 -124.15 14.3 Q-124.5 18.0 -124.5 22.0 -124.5 34.75 -121.25 45.7 L-121.0 47.25 Q-108.15 85.35 -83.25 97.75 -86.0 98.75 -85.0 100.75 -71.55 130.55 -37.25 145.5 2.1 158.15 38.25 145.0 70.5 131.25 86.75 101.5 90.0 97.5 87.25 91.5 99.2 83.1 105.45 75.3 110.45 81.5 114.5 81.5 120.5 81.5 122.85 74.7 125.0 70.8 125.0 65.25 125.0 63.35 125.75 58.95 126.5 54.6 126.5 48.75 L126.0 35.5 Q126.0 31.05 124.9 24.9 M-38.15 19.3 Q-40.1 1.25 -40.25 -21.75 -36.25 25.75 3.55 24.55 35.5 22.65 40.0 -22.0 40.0 78.7 4.0 84.25 L-5.1 70.5 Q-28.5 34.85 -38.15 19.3" fill="#000000" fill-opacity="0.49803922" fill-rule="evenodd" stroke="none"/>
    <path d="M86.65 -30.6 Q88.8 -23.95 90.8 -15.0 93.95 -0.75 94.75 10.4 L89.8 3.4 88.45 -10.8 86.65 -30.6 M126.15 39.6 L126.5 48.75 Q126.5 54.6 125.75 58.95 125.0 63.35 125.0 65.25 125.0 70.8 122.85 74.7 120.5 81.5 114.5 81.5 104.35 81.5 88.05 42.45 L88.0 42.35 Q98.0 57.5 109.75 57.5 118.95 57.5 123.5 48.0 125.3 44.25 126.15 39.6 M19.5 107.75 L19.5 109.5 Q19.25 110.0 17.5 110.0 3.05 110.0 -26.05 85.3 -37.55 75.55 -47.3 65.2 -56.75 55.2 -60.0 49.5 -70.1 32.1 -76.25 14.1 -72.9 21.6 -68.7 29.45 -57.95 49.7 -46.8 62.15 -33.9 76.5 -23.75 76.5 -20.5 76.5 -19.0 73.5 -18.0 71.45 -18.0 68.75 -18.0 58.3 -27.95 35.4 L-5.1 70.5 19.5 107.75" fill="#000000" fill-opacity="0.49803922" fill-rule="evenodd" stroke="none"/>
  </g>
</svg>
