<?xml version="1.0" encoding="UTF-8" standalone="no"?>
<svg xmlns:ffdec="https://www.free-decompiler.com/flash" xmlns:xlink="http://www.w3.org/1999/xlink" ffdec:objectType="shape" height="166.25px" width="176.95px" xmlns="http://www.w3.org/2000/svg">
  <g transform="matrix(1.0, 0.0, 0.0, 1.0, 87.8, 1.25)">
    <path d="M70.0 65.75 Q83.7 78.75 88.15 97.05 91.65 111.65 82.75 123.75 71.75 137.15 57.1 146.35 43.9 154.55 28.95 159.35 18.8 162.6 8.25 164.75 L4.75 165.0 -9.25 163.25 Q-28.2 160.1 -45.55 151.55 -64.15 142.4 -78.25 127.25 -93.0 107.5 -85.0 99.25 -74.2 87.85 -64.05 69.8 -59.0 74.2 -53.5 78.25 -34.5 92.25 -13.9 100.0 L-9.5 99.5 Q-8.5 98.9 -8.5 96.25 L-8.7 95.1 -9.6 93.85 Q-12.6 89.9 -17.75 84.4 L-25.5 76.0 -43.3 55.05 Q-47.8 49.45 -51.4 44.1 -43.25 25.3 -35.5 1.75 -31.5 13.4 -21.25 20.1 -4.45 31.1 14.05 23.85 31.25 17.25 36.0 -1.25 L47.95 28.5 Q54.55 45.35 64.95 60.05 67.2 63.2 70.0 65.75" fill="#ffffff" fill-rule="evenodd" stroke="none"/>
  </g>
</svg>
