<?xml version="1.0" encoding="UTF-8" standalone="no"?>
<svg xmlns:ffdec="https://www.free-decompiler.com/flash" xmlns:xlink="http://www.w3.org/1999/xlink" ffdec:objectType="shape" height="238.15px" width="261.25px" xmlns="http://www.w3.org/2000/svg">
  <g transform="matrix(1.0, 0.0, 0.0, 1.0, 130.5, 35.15)">
    <path d="M124.55 14.0 L125.0 14.3 127.35 21.3 126.5 20.75 Q143.0 70.5 95.5 115.0 L99.75 122.25 104.0 131.75 102.0 132.25 Q96.75 136.75 92.5 138.0 L92.25 142.0 Q62.05 180.35 21.75 184.5 22.5 187.0 36.5 189.25 L36.75 196.25 Q56.5 194.25 66.25 194.5 98.5 188.5 109.5 163.5 111.0 165.25 105.25 176.25 L99.0 183.75 Q83.75 201.75 33.25 200.75 8.5 198.5 8.5 164.75 L5.5 165.0 -9.0 163.25 Q-11.0 207.5 -43.0 202.5 -93.5 201.5 -108.25 173.25 L-110.75 167.25 -111.0 164.0 Q-106.5 187.5 -37.5 197.25 L-37.25 189.75 Q-25.5 188.5 -20.75 184.25 -21.75 182.25 -33.5 180.75 -69.5 171.95 -89.75 141.0 -102.75 131.75 -105.0 132.75 L-101.75 124.5 -96.25 115.75 Q-119.5 98.75 -126.0 77.25 L-128.25 69.0 -130.5 44.25 -129.5 29.5 -127.75 21.75 -126.0 16.2 -125.65 15.3 -124.15 14.3 Q-124.5 18.0 -124.5 22.0 -124.5 34.75 -121.25 45.7 L-121.0 47.25 Q-108.15 85.35 -83.25 97.75 -86.0 98.75 -85.0 100.75 -71.55 130.55 -37.25 145.5 2.1 158.15 38.25 145.0 70.5 131.25 86.75 101.5 90.0 97.5 87.25 91.5 101.0 81.85 107.2 72.9 113.05 70.15 116.75 54.95 L118.25 52.0 120.7 42.2 Q125.0 30.65 125.0 22.0 L124.55 14.0 M1.75 84.5 Q-39.5 88.25 -40.25 -21.75 -36.25 25.75 3.55 24.55 35.5 22.65 40.0 -22.0 40.0 81.75 1.75 84.5" fill="#000000" fill-opacity="0.49803922" fill-rule="evenodd" stroke="none"/>
    <path d="M83.5 -35.15 L85.6 -25.8 Q87.0 -17.4 87.0 0.5 L86.7 10.35 Q83.05 5.6 79.85 2.05 L79.3 1.4 82.15 -23.05 83.5 -35.15 M118.3 41.6 Q118.05 47.25 117.35 52.4 112.75 73.5 104.5 73.5 95.0 73.5 74.0 35.5 65.85 20.75 59.9 7.1 L59.15 5.35 Q62.35 11.75 66.35 18.3 75.15 32.55 84.3 41.15 94.75 51.0 103.25 51.0 111.9 51.0 117.0 43.7 L118.3 41.6 M-74.2 -14.85 Q-64.1 22.35 -58.0 33.5 -52.35 43.75 -43.3 55.05 L-25.5 76.0 -17.75 84.4 Q-12.6 89.9 -9.6 93.85 L-8.7 95.1 -8.5 96.25 Q-8.5 98.9 -9.5 99.5 L-13.9 100.0 Q-34.5 92.25 -53.5 78.25 -74.2 63.0 -88.9 43.1 -84.0 48.8 -78.1 54.5 -67.1 65.05 -56.85 71.4 -45.3 78.5 -37.25 78.5 -36.55 78.5 -35.5 77.5 -34.5 76.5 -34.5 76.0 -34.5 73.1 -39.9 65.7 L-51.75 50.25 Q-69.0 27.5 -69.0 15.0 L-72.0 0.35 Q-74.1 -10.65 -74.7 -16.8 L-74.2 -14.85" fill="#000000" fill-opacity="0.49803922" fill-rule="evenodd" stroke="none"/>
  </g>
</svg>
