<?xml version="1.0" encoding="UTF-8" standalone="no"?>
<svg xmlns:ffdec="https://www.free-decompiler.com/flash" xmlns:xlink="http://www.w3.org/1999/xlink" ffdec:objectType="shape" height="156.75px" width="194.25px" xmlns="http://www.w3.org/2000/svg">
  <g transform="matrix(1.0, 0.0, 0.0, 1.0, 98.75, 74.25)">
    <path d="M54.75 -26.5 L70.25 -10.0 71.0 -9.0 71.5 -8.5 72.25 -7.5 73.0 -6.75 73.25 -6.25 74.25 -5.25 74.5 -4.75 75.75 -3.25 76.0 -3.0 78.25 -2.0 Q84.25 4.5 84.25 6.75 L89.25 19.5 93.25 32.5 95.5 42.0 94.75 45.75 93.5 45.75 91.5 45.25 87.0 40.0 80.0 30.25 71.25 16.0 63.0 10.75 Q71.75 40.75 41.25 61.75 L32.5 71.75 Q19.0 80.75 3.25 82.5 L-12.0 80.75 -17.25 79.25 -31.0 72.5 -39.75 63.25 Q-72.25 47.25 -64.0 7.75 L-74.0 13.75 -78.25 21.0 -90.5 37.25 -95.0 42.0 -97.0 42.5 -98.0 42.5 -98.25 41.75 -98.75 38.5 -91.25 15.5 -85.25 2.25 Q-79.75 -5.5 -78.0 -5.0 L-68.0 -16.0 -59.0 -24.5 -49.75 -32.0 -43.75 -35.25 Q-19.0 -71.25 -0.5 -74.25 17.5 -71.75 43.25 -34.5 45.25 -35.25 54.75 -26.5" fill="#2e47aa" fill-rule="evenodd" stroke="none"/>
  </g>
</svg>
