<?xml version="1.0" encoding="UTF-8" standalone="no"?>
<svg xmlns:ffdec="https://www.free-decompiler.com/flash" xmlns:xlink="http://www.w3.org/1999/xlink" ffdec:objectType="shape" height="156.75px" width="200.0px" xmlns="http://www.w3.org/2000/svg">
  <g transform="matrix(1.0, 0.0, 0.0, 1.0, 103.75, 74.25)">
    <path d="M46.75 -32.75 L56.25 -25.0 71.5 -8.5 72.0 -7.75 73.0 -6.75 73.25 -6.25 74.25 -5.25 74.5 -4.75 76.5 -2.25 79.5 -0.5 Q84.25 4.5 84.75 7.25 L85.0 7.75 93.0 29.75 Q97.5 43.5 95.75 45.5 L95.5 46.75 92.25 46.0 87.75 40.75 81.75 32.75 71.75 16.75 63.0 11.0 Q70.75 42.5 41.25 61.75 L32.5 71.75 Q19.0 80.75 3.25 82.5 L-12.0 80.75 -17.25 79.25 -31.0 72.5 -39.75 63.25 Q-74.75 47.5 -62.0 1.25 L-72.0 6.0 -73.5 6.5 -76.75 8.25 -77.5 8.5 Q-97.5 33.75 -102.75 33.75 L-103.75 33.0 Q-90.25 -7.25 -78.75 -10.5 L-60.75 -25.75 -55.75 -29.5 -45.5 -35.25 -43.25 -35.75 Q-19.25 -71.0 -0.5 -74.25 17.5 -72.0 43.5 -34.25 L46.75 -32.75" fill="#2e47aa" fill-rule="evenodd" stroke="none"/>
  </g>
</svg>
