<?xml version="1.0" encoding="UTF-8" standalone="no"?>
<svg xmlns:ffdec="https://www.free-decompiler.com/flash" xmlns:xlink="http://www.w3.org/1999/xlink" ffdec:objectType="shape" height="156.75px" width="203.0px" xmlns="http://www.w3.org/2000/svg">
  <g transform="matrix(1.0, 0.0, 0.0, 1.0, 103.75, 74.25)">
    <path d="M78.5 -0.25 L82.0 2.25 Q86.75 6.75 87.5 10.75 L92.75 23.5 97.0 36.5 99.25 45.75 98.75 47.75 98.75 48.5 98.5 49.75 95.75 49.25 93.25 47.0 86.0 38.25 76.75 25.0 73.25 19.25 66.0 14.25 65.0 13.75 64.25 13.25 63.75 13.0 Q66.5 50.5 41.25 61.75 L32.5 71.75 Q19.0 80.75 3.25 82.5 L-12.0 80.75 -17.25 79.25 -31.0 72.5 -39.75 63.25 Q-79.5 44.25 -58.25 -10.25 L-75.0 -6.75 -75.25 -6.75 -79.75 -6.0 -96.0 6.5 Q-102.25 11.0 -103.75 7.25 -84.25 -27.5 -74.75 -24.75 L-53.25 -35.25 -42.25 -38.5 -41.25 -38.5 Q-20.75 -69.0 -0.5 -74.25 20.25 -69.75 44.75 -32.5 L46.75 -31.75 56.5 -24.0 68.25 -12.25 78.5 -0.25" fill="#2e47aa" fill-rule="evenodd" stroke="none"/>
  </g>
</svg>
