<?xml version="1.0" encoding="UTF-8" standalone="no"?>
<svg xmlns:ffdec="https://www.free-decompiler.com/flash" xmlns:xlink="http://www.w3.org/1999/xlink" ffdec:objectType="shape" height="156.75px" width="194.25px" xmlns="http://www.w3.org/2000/svg">
  <g transform="matrix(1.0, 0.0, 0.0, 1.0, 93.5, 74.25)">
    <path d="M47.75 -30.5 L56.5 -23.5 69.75 -10.0 79.5 1.0 Q88.75 2.25 100.75 48.75 L100.5 49.25 100.5 49.75 100.25 51.5 97.0 51.0 86.0 38.5 78.25 28.0 74.0 20.75 64.75 14.5 64.25 14.25 64.0 14.25 Q65.75 51.0 41.25 61.75 L32.5 71.75 Q19.0 80.75 3.25 82.5 L-12.0 80.75 -17.25 79.25 -31.0 72.5 -39.75 63.25 Q-80.75 44.25 -56.75 -14.0 L-74.75 -12.0 -76.25 -10.25 -89.75 -1.75 -93.0 -1.75 -93.5 -4.0 Q-84.0 -27.0 -68.5 -30.25 L-52.0 -37.0 -40.25 -39.75 Q-21.25 -68.5 -0.5 -74.25 20.0 -70.25 45.5 -31.5 L47.75 -30.5" fill="#2e47aa" fill-rule="evenodd" stroke="none"/>
  </g>
</svg>
