<?xml version="1.0" encoding="UTF-8" standalone="no"?>
<svg xmlns:ffdec="https://www.free-decompiler.com/flash" xmlns:xlink="http://www.w3.org/1999/xlink" ffdec:objectType="shape" height="156.75px" width="180.95px" xmlns="http://www.w3.org/2000/svg">
  <g transform="matrix(1.0, 0.0, 0.0, 1.0, 78.7, 74.25)">
    <path d="M57.0 -22.5 L71.75 -7.5 72.25 -6.75 80.5 2.5 83.5 4.5 84.75 6.0 Q96.5 21.75 102.25 51.0 L102.0 51.75 102.0 52.0 101.75 53.5 98.25 52.75 94.5 48.5 93.75 47.5 85.75 38.5 79.0 29.5 74.5 22.0 64.0 15.25 Q65.75 50.5 41.25 61.75 L32.5 71.75 Q19.0 80.75 3.25 82.5 L-12.0 80.75 -17.25 79.25 -31.0 72.5 -39.75 63.25 -42.5 62.25 -52.25 55.25 -58.25 48.5 -61.0 43.75 -64.25 35.5 Q-70.25 17.75 -55.25 -17.25 L-65.25 -17.25 Q-75.0 -7.0 -78.5 -12.25 -79.75 -23.25 -73.0 -27.0 L-70.25 -29.5 -69.75 -29.75 -68.75 -30.5 -68.25 -30.75 -68.0 -31.0 -66.25 -32.5 -51.5 -38.0 -39.5 -40.5 Q-22.0 -67.75 -0.5 -74.25 19.5 -70.75 46.25 -30.5 L57.0 -22.5" fill="#2e47aa" fill-rule="evenodd" stroke="none"/>
  </g>
</svg>
