<?xml version="1.0" encoding="UTF-8" standalone="no"?>
<svg xmlns:ffdec="https://www.free-decompiler.com/flash" xmlns:xlink="http://www.w3.org/1999/xlink" ffdec:objectType="shape" height="156.75px" width="172.0px" xmlns="http://www.w3.org/2000/svg">
  <g transform="matrix(1.0, 0.0, 0.0, 1.0, 68.25, 74.25)">
    <path d="M57.25 -21.75 L74.0 -4.5 74.5 -3.75 81.25 3.75 83.75 4.75 89.75 12.0 96.5 27.75 100.75 39.75 103.75 51.75 103.75 52.5 103.25 55.25 99.75 54.5 95.5 50.0 94.75 49.0 86.75 40.25 75.0 23.5 64.25 16.25 Q65.75 50.0 41.25 61.75 L32.5 71.75 Q19.0 80.75 3.25 82.5 L-12.0 80.75 -17.25 79.25 -31.0 72.5 -39.75 63.25 Q-80.75 47.25 -55.75 -16.0 L-58.75 -14.5 Q-61.5 -14.75 -65.5 -17.5 L-67.75 -19.75 Q-69.0 -22.75 -67.25 -25.0 L-66.0 -28.5 -63.25 -31.25 -62.5 -31.75 -61.25 -32.25 -52.5 -37.5 -45.75 -39.75 -39.5 -40.75 Q-22.25 -67.5 -0.5 -74.25 19.25 -71.25 46.75 -29.5 L57.25 -21.75" fill="#2e47aa" fill-rule="evenodd" stroke="none"/>
  </g>
</svg>
