<?xml version="1.0" encoding="UTF-8" standalone="no"?>
<svg xmlns:ffdec="https://www.free-decompiler.com/flash" xmlns:xlink="http://www.w3.org/1999/xlink" ffdec:objectType="shape" height="156.75px" width="171.1px" xmlns="http://www.w3.org/2000/svg">
  <g transform="matrix(1.0, 0.0, 0.0, 1.0, 66.1, 74.25)">
    <path d="M75.0 -3.0 L75.25 -2.5 82.0 5.0 82.75 4.75 85.5 7.25 90.5 13.0 96.5 26.25 102.5 43.25 105.0 53.5 104.75 54.0 104.75 54.25 104.5 56.75 102.5 56.5 100.75 56.0 85.0 38.5 75.5 24.5 64.5 17.25 64.0 17.25 Q64.25 51.5 41.25 61.75 L32.5 71.75 Q19.0 80.75 3.25 82.5 L-12.0 80.75 -17.25 79.25 -31.0 72.5 -39.75 63.25 -42.5 62.25 -52.25 55.25 -58.25 48.5 -61.0 43.75 -64.25 35.5 Q-70.75 18.75 -54.25 -19.25 L-54.25 -19.5 -57.0 -21.25 -58.25 -22.25 -59.0 -25.0 -59.0 -25.5 -59.25 -27.25 -59.25 -28.5 Q-58.75 -35.5 -39.5 -40.75 -22.0 -67.5 -0.5 -74.25 19.0 -71.75 47.25 -28.75 L57.25 -21.25 75.0 -3.0" fill="#2e47aa" fill-rule="evenodd" stroke="none"/>
  </g>
</svg>
