<?xml version="1.0" encoding="UTF-8" standalone="no"?>
<svg xmlns:ffdec="https://www.free-decompiler.com/flash" xmlns:xlink="http://www.w3.org/1999/xlink" ffdec:objectType="shape" height="156.75px" width="171.75px" xmlns="http://www.w3.org/2000/svg">
  <g transform="matrix(1.0, 0.0, 0.0, 1.0, 66.0, 74.25)">
    <path d="M76.25 -1.25 L76.75 -0.5 77.25 0.0 82.25 5.75 84.0 6.0 89.25 11.75 92.5 17.0 98.0 29.75 102.75 43.0 105.75 54.5 105.5 55.0 105.5 55.25 105.25 58.0 103.25 57.75 101.25 57.0 86.5 40.75 80.5 33.0 75.75 25.25 64.5 18.0 64.25 18.0 Q64.25 51.0 41.25 61.75 L32.5 71.75 Q19.0 80.75 3.25 82.5 L-12.0 80.75 -17.25 79.25 -31.0 72.5 -39.75 63.25 -42.5 62.25 -52.25 55.25 -58.25 48.5 -61.0 43.75 -64.25 35.5 Q-71.0 15.5 -52.0 -22.75 L-52.5 -24.25 -54.25 -26.0 -54.5 -29.0 -54.75 -29.5 -54.5 -29.5 -51.5 -35.0 Q-48.5 -38.25 -39.5 -40.75 -22.0 -67.5 -0.5 -74.25 19.0 -72.0 47.5 -28.25 L57.75 -20.5 76.25 -1.25" fill="#2e47aa" fill-rule="evenodd" stroke="none"/>
  </g>
</svg>
