<?xml version="1.0" encoding="UTF-8" standalone="no"?>
<svg xmlns:ffdec="https://www.free-decompiler.com/flash" xmlns:xlink="http://www.w3.org/1999/xlink" ffdec:objectType="shape" height="156.75px" width="171.4px" xmlns="http://www.w3.org/2000/svg">
  <g transform="matrix(1.0, 0.0, 0.0, 1.0, 65.4, 74.25)">
    <path d="M75.75 -1.75 L76.0 -1.25 82.5 6.0 84.5 6.5 91.5 14.75 97.5 27.75 103.5 44.75 106.0 55.0 105.75 55.5 105.75 55.75 105.5 58.25 101.75 57.5 96.75 52.25 96.0 51.25 86.75 41.25 81.25 34.25 75.75 25.5 64.75 18.25 64.25 18.25 Q65.75 49.0 41.25 61.75 L32.5 71.75 Q19.0 80.75 3.25 82.5 L-12.0 80.75 -17.25 79.25 -31.0 72.5 -39.75 63.25 -42.5 62.25 -52.25 55.25 -58.25 48.5 -61.0 43.75 -64.25 35.5 Q-69.5 6.0 -50.75 -24.5 L-51.0 -24.75 Q-59.5 -33.25 -39.5 -40.75 -22.0 -67.5 -0.5 -74.25 18.75 -72.0 47.75 -28.0 L58.5 -19.75 75.75 -1.75" fill="#2e47aa" fill-rule="evenodd" stroke="none"/>
  </g>
</svg>
