<?xml version="1.0" encoding="UTF-8" standalone="no"?>
<svg xmlns:ffdec="https://www.free-decompiler.com/flash" xmlns:xlink="http://www.w3.org/1999/xlink" ffdec:objectType="shape" height="156.75px" width="171.65px" xmlns="http://www.w3.org/2000/svg">
  <g transform="matrix(1.0, 0.0, 0.0, 1.0, 65.9, 74.25)">
    <path d="M58.5 -19.75 L75.75 -1.75 76.0 -1.25 77.0 -0.25 77.75 0.75 82.5 6.0 84.5 6.5 91.25 14.25 98.0 29.25 103.5 45.0 105.75 55.0 105.75 55.5 105.5 58.25 103.5 58.0 101.75 57.5 97.0 52.5 96.75 52.0 89.0 44.0 83.0 36.5 75.75 25.5 64.25 18.25 Q65.75 49.0 41.25 61.75 L32.5 71.75 Q19.0 80.75 3.25 82.5 L-12.0 80.75 -17.25 79.25 -31.0 72.5 -39.75 63.25 -42.5 62.25 -52.25 55.25 -58.25 48.5 -61.0 43.75 -64.25 35.5 Q-70.75 13.25 -51.25 -24.0 L-52.25 -24.5 -52.75 -25.5 -54.0 -26.25 -55.0 -28.5 -54.75 -30.25 -55.0 -30.5 -55.0 -31.25 -54.75 -31.75 Q-52.25 -38.5 -39.0 -41.25 -22.25 -67.25 -0.5 -74.25 18.75 -72.0 47.75 -28.0 L58.5 -19.75" fill="#2e47aa" fill-rule="evenodd" stroke="none"/>
  </g>
</svg>
