<?xml version="1.0" encoding="UTF-8" standalone="no"?>
<svg xmlns:ffdec="https://www.free-decompiler.com/flash" xmlns:xlink="http://www.w3.org/1999/xlink" ffdec:objectType="shape" height="156.65px" width="170.9px" xmlns="http://www.w3.org/2000/svg">
  <g transform="matrix(1.0, 0.0, 0.0, 1.0, 65.4, 74.15)">
    <path d="M76.0 -1.5 L76.5 -0.75 82.25 5.75 84.75 6.5 91.0 14.0 97.25 27.5 103.0 43.75 105.5 54.75 105.5 55.25 105.25 58.0 103.25 57.75 101.25 57.0 83.0 36.5 75.75 25.25 65.0 18.25 64.5 18.0 64.25 18.0 Q64.25 51.0 41.25 61.75 L32.5 71.75 Q19.0 80.75 3.25 82.5 L-12.0 80.75 -17.25 79.25 -31.0 72.5 -39.75 63.25 -42.5 62.25 -52.25 55.25 -58.25 48.5 -61.0 43.75 -64.25 35.5 Q-69.5 6.0 -50.75 -24.75 L-50.75 -25.0 -60.25 -28.5 -60.75 -30.0 -61.5 -31.5 -61.75 -33.25 -61.5 -35.25 Q-59.75 -38.0 -57.0 -38.75 L-56.5 -39.0 -48.0 -42.0 -45.75 -42.5 -37.75 -43.0 Q-11.25 -77.75 3.25 -73.75 17.0 -72.25 47.5 -28.25 L58.0 -20.25 76.0 -1.5" fill="#2e47aa" fill-rule="evenodd" stroke="none"/>
  </g>
</svg>
