<?xml version="1.0" encoding="UTF-8" standalone="no"?>
<svg xmlns:ffdec="https://www.free-decompiler.com/flash" xmlns:xlink="http://www.w3.org/1999/xlink" ffdec:objectType="shape" height="156.6px" width="178.1px" xmlns="http://www.w3.org/2000/svg">
  <g transform="matrix(1.0, 0.0, 0.0, 1.0, 72.85, 74.1)">
    <path d="M75.25 -2.5 L75.5 -2.0 82.0 5.25 84.25 6.0 91.0 14.25 97.5 29.0 102.75 43.75 105.25 54.25 104.75 57.5 103.0 57.25 100.75 56.5 95.5 50.75 95.25 50.25 83.5 37.0 75.5 25.0 64.25 17.5 64.0 17.5 Q64.25 51.25 41.25 61.75 L32.5 71.75 Q19.0 80.75 3.25 82.5 L-12.0 80.75 -17.25 79.25 -31.0 72.5 -39.75 63.25 Q-58.0 55.5 -64.5 34.5 -70.5 11.75 -50.5 -25.25 L-56.25 -26.5 -66.75 -31.5 -67.0 -31.75 -67.25 -31.75 -71.75 -32.75 Q-73.5 -33.5 -72.5 -36.75 L-71.0 -40.25 -65.75 -43.5 -64.75 -44.0 -64.5 -44.25 -64.25 -44.25 Q-52.25 -51.25 -48.25 -45.25 L-37.0 -43.75 Q-11.5 -77.25 3.0 -73.75 17.25 -72.0 47.5 -28.5 L58.5 -20.0 75.25 -2.5" fill="#2e47aa" fill-rule="evenodd" stroke="none"/>
  </g>
</svg>
