<?xml version="1.0" encoding="UTF-8" standalone="no"?>
<svg xmlns:ffdec="https://www.free-decompiler.com/flash" xmlns:xlink="http://www.w3.org/1999/xlink" ffdec:objectType="shape" height="156.6px" width="191.8px" xmlns="http://www.w3.org/2000/svg">
  <g transform="matrix(1.0, 0.0, 0.0, 1.0, 87.05, 74.1)">
    <path d="M74.75 -3.0 L75.75 -2.0 76.5 -1.0 81.75 5.0 83.5 5.25 88.25 10.5 88.75 11.25 90.25 12.75 96.5 26.75 101.75 41.5 104.75 53.75 104.5 54.25 104.5 54.5 104.25 56.75 100.5 56.0 84.5 38.0 75.25 24.5 64.0 17.25 Q64.25 51.5 41.25 61.75 L32.5 71.75 Q19.0 80.75 3.25 82.5 L-12.0 80.75 -17.25 79.25 -31.0 72.5 -39.75 63.25 -42.5 62.25 -52.25 55.25 -58.25 48.5 -61.0 43.75 -64.25 35.5 Q-69.5 6.0 -50.75 -24.75 L-61.0 -27.0 -74.0 -32.25 -74.5 -32.5 -74.75 -32.5 -75.75 -33.0 -76.0 -33.0 -76.25 -33.25 -76.5 -33.25 -78.75 -34.0 -84.25 -35.0 -85.0 -35.25 -85.5 -35.75 Q-90.5 -40.0 -79.25 -47.75 -68.0 -54.0 -63.0 -49.5 L-62.25 -49.5 -61.75 -47.5 -47.75 -46.0 -37.25 -43.75 Q-11.75 -77.25 3.25 -73.75 17.25 -72.0 47.25 -28.75 L57.25 -21.25 74.5 -3.5 74.75 -3.0" fill="#2e47aa" fill-rule="evenodd" stroke="none"/>
  </g>
</svg>
