<?xml version="1.0" encoding="UTF-8" standalone="no"?>
<svg xmlns:ffdec="https://www.free-decompiler.com/flash" xmlns:xlink="http://www.w3.org/1999/xlink" ffdec:objectType="shape" height="156.75px" width="208.65px" xmlns="http://www.w3.org/2000/svg">
  <g transform="matrix(1.0, 0.0, 0.0, 1.0, 104.65, 74.25)">
    <path d="M57.25 -21.5 L74.25 -4.0 74.5 -3.5 81.5 4.25 82.5 4.25 87.25 9.25 88.25 10.5 89.75 12.0 95.75 25.5 100.75 39.5 104.0 52.75 104.0 53.25 103.5 56.0 101.75 55.75 100.0 55.25 85.5 39.0 75.0 23.75 64.75 17.0 64.25 16.75 Q65.75 49.75 41.25 61.75 L32.5 71.75 Q19.0 80.75 3.25 82.5 L-12.0 80.75 -17.25 79.25 -31.0 72.5 -39.75 63.25 -42.5 62.25 -52.25 55.25 -58.25 48.5 -61.0 43.75 -64.25 35.5 Q-70.75 13.0 -51.25 -23.75 L-63.75 -25.75 -89.0 -33.25 -92.75 -33.0 -98.25 -34.75 -98.5 -35.0 -102.0 -37.75 Q-110.25 -46.25 -92.75 -49.25 L-80.5 -51.5 Q-76.0 -52.25 -72.75 -47.25 L-71.75 -47.0 -52.25 -45.75 -38.0 -43.0 -21.0 -62.5 Q-15.25 -69.75 -0.5 -74.25 19.25 -71.5 47.0 -29.25 L57.25 -21.5" fill="#2e47aa" fill-rule="evenodd" stroke="none"/>
  </g>
</svg>
