<?xml version="1.0" encoding="UTF-8" standalone="no"?>
<svg xmlns:ffdec="https://www.free-decompiler.com/flash" xmlns:xlink="http://www.w3.org/1999/xlink" ffdec:objectType="shape" height="156.75px" width="221.55px" xmlns="http://www.w3.org/2000/svg">
  <g transform="matrix(1.0, 0.0, 0.0, 1.0, 118.3, 74.25)">
    <path d="M48.75 -28.75 L56.75 -22.25 74.0 -4.5 74.75 -3.5 81.0 3.5 82.0 3.5 89.5 12.0 95.0 24.25 101.0 41.25 103.25 51.75 103.25 52.25 102.75 55.0 101.25 54.75 99.0 54.0 87.75 41.5 81.5 33.5 74.75 23.0 65.0 16.5 64.5 16.25 64.25 16.25 Q65.75 50.0 41.25 61.75 L32.5 71.75 Q19.0 80.75 3.25 82.5 L-12.0 80.75 -17.25 79.25 -31.0 72.5 -39.75 63.25 -42.5 62.25 -52.25 55.25 -58.25 48.5 -61.0 43.75 -64.25 35.5 Q-70.25 12.75 -52.25 -22.25 L-65.0 -23.25 -94.5 -29.0 -100.0 -28.5 Q-106.25 -29.0 -106.75 -30.0 L-108.0 -30.25 Q-122.0 -33.75 -117.0 -40.0 -85.25 -53.75 -80.25 -44.0 L-79.5 -44.0 -78.25 -44.25 -52.25 -44.0 -38.5 -42.0 Q-22.5 -67.0 -0.5 -74.25 19.5 -71.25 46.5 -29.75 L48.75 -28.75" fill="#2e47aa" fill-rule="evenodd" stroke="none"/>
  </g>
</svg>
