<?xml version="1.0" encoding="UTF-8" standalone="no"?>
<svg xmlns:ffdec="https://www.free-decompiler.com/flash" xmlns:xlink="http://www.w3.org/1999/xlink" ffdec:objectType="shape" height="156.75px" width="230.2px" xmlns="http://www.w3.org/2000/svg">
  <g transform="matrix(1.0, 0.0, 0.0, 1.0, 127.7, 74.25)">
    <path d="M57.25 -22.25 L71.25 -8.0 72.0 -7.0 73.0 -6.0 73.75 -5.0 80.5 2.5 83.5 4.5 85.0 6.25 Q95.75 19.75 102.5 51.0 L102.25 51.75 102.25 52.0 102.0 53.75 100.5 53.5 98.25 52.75 85.75 38.5 79.5 30.25 74.75 22.25 64.5 15.5 64.0 15.25 Q66.25 48.75 41.25 61.75 L32.5 71.75 Q19.0 80.75 3.25 82.5 L-12.0 80.75 -17.25 79.25 -31.0 72.5 -39.75 63.25 -42.5 62.25 -52.25 55.25 -58.25 48.5 -61.0 43.75 -64.25 35.5 Q-71.25 20.25 -53.5 -20.25 L-64.5 -19.75 -97.75 -22.5 -101.0 -21.25 -113.5 -21.75 -124.5 -24.5 Q-128.5 -25.5 -127.5 -28.0 -97.0 -46.75 -85.75 -38.75 L-84.25 -38.75 -83.75 -39.0 -82.5 -39.0 -82.0 -39.25 -58.25 -41.5 -39.5 -41.0 Q-22.25 -67.5 -0.5 -74.25 19.5 -70.75 46.25 -30.5 L57.25 -22.25" fill="#2e47aa" fill-rule="evenodd" stroke="none"/>
  </g>
</svg>
