<?xml version="1.0" encoding="UTF-8" standalone="no"?>
<svg xmlns:ffdec="https://www.free-decompiler.com/flash" xmlns:xlink="http://www.w3.org/1999/xlink" ffdec:objectType="shape" height="156.75px" width="237.25px" xmlns="http://www.w3.org/2000/svg">
  <g transform="matrix(1.0, 0.0, 0.0, 1.0, 135.5, 74.25)">
    <path d="M47.75 -30.25 L56.0 -23.75 71.5 -8.0 80.0 1.5 82.25 2.75 Q93.75 15.25 101.75 49.25 L101.5 49.75 101.5 50.25 101.25 52.25 97.75 51.5 88.0 40.75 78.5 28.0 74.5 21.25 64.0 14.5 Q65.75 50.75 41.25 61.75 L32.5 71.75 Q19.0 80.75 3.25 82.5 L-12.0 80.75 -17.25 79.25 -31.0 72.5 -39.75 63.25 -42.5 62.25 -52.25 55.25 -58.25 48.5 -61.0 43.75 -64.25 35.5 Q-70.25 17.75 -55.25 -17.0 L-67.0 -15.5 -99.75 -14.25 Q-122.5 -7.75 -135.5 -13.5 L-134.0 -17.0 -126.5 -21.75 -113.25 -28.5 -99.0 -33.5 Q-91.0 -34.25 -90.75 -31.5 L-90.0 -31.5 -89.75 -31.75 -89.0 -31.75 -86.25 -32.5 -86.0 -32.75 -85.25 -32.75 -58.75 -38.5 -45.25 -40.0 -40.25 -39.75 Q-21.25 -68.5 -0.5 -74.25 19.75 -70.5 45.75 -31.0 L47.75 -30.25" fill="#2e47aa" fill-rule="evenodd" stroke="none"/>
  </g>
</svg>
