<?xml version="1.0" encoding="UTF-8" standalone="no"?>
<svg xmlns:ffdec="https://www.free-decompiler.com/flash" xmlns:xlink="http://www.w3.org/1999/xlink" ffdec:objectType="shape" height="156.75px" width="242.75px" xmlns="http://www.w3.org/2000/svg">
  <g transform="matrix(1.0, 0.0, 0.0, 1.0, 142.0, 74.25)">
    <path d="M54.75 -25.25 L71.25 -8.75 79.25 0.25 Q88.5 1.5 100.75 47.25 L100.75 48.0 100.5 48.5 100.5 49.0 100.25 50.75 96.75 50.0 93.25 46.0 92.75 45.25 86.5 38.25 79.0 28.25 74.0 20.0 63.75 13.25 Q65.5 52.0 41.25 61.75 L32.5 71.75 Q19.0 80.75 3.25 82.5 L-12.0 80.75 -17.25 79.25 -31.0 72.5 -39.75 63.25 Q-52.75 60.0 -63.75 37.25 -70.0 19.75 -57.25 -12.75 L-63.75 -11.0 -100.25 -4.75 Q-104.5 1.75 -140.75 3.25 L-142.0 2.5 -141.5 1.75 -141.5 1.5 Q-112.5 -25.75 -94.0 -23.0 L-79.5 -28.75 -64.75 -33.5 -48.5 -37.75 -41.0 -38.5 Q-20.75 -69.25 -0.5 -74.25 20.0 -70.25 45.25 -31.75 46.75 -32.25 54.75 -25.25" fill="#2e47aa" fill-rule="evenodd" stroke="none"/>
  </g>
</svg>
