<?xml version="1.0" encoding="UTF-8" standalone="no"?>
<svg xmlns:ffdec="https://www.free-decompiler.com/flash" xmlns:xlink="http://www.w3.org/1999/xlink" ffdec:objectType="shape" height="156.75px" width="244.5px" xmlns="http://www.w3.org/2000/svg">
  <g transform="matrix(1.0, 0.0, 0.0, 1.0, 145.0, 74.25)">
    <path d="M78.5 -0.75 Q88.0 0.25 99.5 46.75 L99.5 47.5 99.25 48.75 98.0 48.75 95.75 48.25 88.75 40.25 79.25 27.75 73.75 18.75 63.5 12.0 64.75 22.25 63.5 34.0 62.0 38.5 Q53.25 56.75 41.25 61.75 L32.5 71.75 Q19.0 80.75 3.25 82.5 L-12.0 80.75 -17.25 79.25 -31.0 72.5 -39.75 63.25 Q-77.0 49.25 -59.5 -7.25 L-96.0 5.0 -99.0 5.25 Q-102.0 12.25 -143.0 21.25 L-145.0 20.5 -144.0 18.5 Q-112.5 -15.5 -96.25 -13.75 L-65.5 -29.25 -52.5 -34.5 -42.25 -37.25 Q-20.25 -69.75 -0.5 -74.25 16.75 -72.75 44.75 -32.75 L46.75 -32.0 55.75 -25.0 68.0 -13.0 78.5 -0.75" fill="#2e47aa" fill-rule="evenodd" stroke="none"/>
  </g>
</svg>
