<?xml version="1.0" encoding="UTF-8" standalone="no"?>
<svg xmlns:ffdec="https://www.free-decompiler.com/flash" xmlns:xlink="http://www.w3.org/1999/xlink" ffdec:objectType="shape" height="156.75px" width="243.05px" xmlns="http://www.w3.org/2000/svg">
  <g transform="matrix(1.0, 0.0, 0.0, 1.0, 144.25, 74.25)">
    <path d="M77.5 -2.5 L81.0 -0.25 Q87.0 6.0 86.75 8.0 L87.0 8.5 93.75 25.5 97.25 36.5 Q99.5 43.5 98.5 44.75 L98.5 45.75 98.25 47.0 95.25 46.5 90.75 41.75 83.5 32.75 73.25 17.25 63.0 10.75 Q70.75 42.25 41.25 61.75 L32.5 71.75 Q19.0 80.75 3.25 82.5 L-12.0 80.75 -17.25 79.25 -31.0 72.5 -39.75 63.25 Q-76.0 46.0 -61.5 -0.75 L-92.75 14.5 -95.5 15.0 Q-99.0 23.0 -141.75 39.75 L-144.25 39.5 -143.25 36.75 Q-110.25 -6.5 -96.5 -4.0 L-65.75 -25.0 -51.75 -32.75 -43.0 -35.75 Q-18.75 -71.5 -0.5 -74.25 17.25 -72.25 44.0 -33.75 45.75 -34.25 55.0 -26.25 L70.0 -11.25 71.0 -10.0 71.75 -9.25 72.5 -8.25 73.75 -7.0 74.0 -6.5 77.5 -2.5" fill="#2e47aa" fill-rule="evenodd" stroke="none"/>
  </g>
</svg>
