<?xml version="1.0" encoding="UTF-8" standalone="no"?>
<svg xmlns:ffdec="https://www.free-decompiler.com/flash" xmlns:xlink="http://www.w3.org/1999/xlink" ffdec:objectType="shape" height="156.75px" width="237.55px" xmlns="http://www.w3.org/2000/svg">
  <g transform="matrix(1.0, 0.0, 0.0, 1.0, 139.75, 74.25)">
    <path d="M80.25 -1.75 Q85.75 4.25 85.5 5.75 L85.75 6.25 94.5 28.75 Q98.75 41.5 97.5 43.5 L97.25 44.75 96.0 44.75 94.5 44.5 90.25 40.25 83.25 31.5 72.5 15.25 66.0 11.0 65.0 10.5 63.5 9.5 63.0 9.25 62.75 9.25 Q72.0 41.5 41.25 61.75 L32.5 71.75 Q19.0 80.75 3.25 82.5 L-12.0 80.75 -17.25 79.25 -31.0 72.5 -39.75 63.25 Q-72.25 47.5 -64.0 7.5 L-77.5 16.25 -78.75 16.75 -88.75 23.0 -89.0 23.25 -91.0 24.0 Q-92.25 32.0 -136.75 57.5 L-139.75 57.75 -139.0 54.0 Q-107.5 2.5 -95.0 5.5 L-81.25 -7.75 -66.25 -20.25 -53.5 -29.5 -44.5 -34.0 Q-18.0 -72.5 -0.5 -74.25 21.25 -68.5 43.0 -35.0 44.75 -35.5 54.25 -27.5 L68.75 -13.25 73.0 -8.5 73.5 -7.75 75.0 -6.25 75.0 -6.0 77.0 -3.75 80.25 -1.75" fill="#2e47aa" fill-rule="evenodd" stroke="none"/>
  </g>
</svg>
