<?xml version="1.0" encoding="UTF-8" standalone="no"?>
<svg xmlns:ffdec="https://www.free-decompiler.com/flash" xmlns:xlink="http://www.w3.org/1999/xlink" ffdec:objectType="shape" height="156.75px" width="230.25px" xmlns="http://www.w3.org/2000/svg">
  <g transform="matrix(1.0, 0.0, 0.0, 1.0, 133.25, 74.25)">
    <path d="M46.5 -33.5 L56.0 -26.0 70.0 -11.5 71.0 -10.25 71.75 -9.5 72.5 -8.5 73.5 -7.5 74.0 -6.75 75.25 -5.5 75.25 -5.25 76.75 -3.25 79.5 -2.0 Q85.5 4.25 85.25 6.25 L90.75 19.5 94.75 31.75 97.0 40.5 96.5 44.0 96.25 45.0 95.5 44.75 Q90.0 44.25 72.25 15.5 L62.75 9.5 Q72.5 39.75 41.25 61.75 L32.5 71.75 Q19.0 80.75 3.25 82.5 L-12.0 80.75 -17.25 79.25 -31.0 72.5 -39.75 63.25 Q-68.0 51.5 -65.25 14.25 L-80.25 25.75 -82.0 26.75 -82.75 27.5 -86.0 29.5 -87.5 33.25 -96.75 43.25 -120.75 64.0 Q-128.5 70.5 -130.0 70.0 L-133.25 70.75 -132.5 66.75 -132.5 65.25 -126.75 53.25 -118.75 39.0 -106.75 21.5 Q-97.75 10.75 -93.0 11.75 L-84.5 1.5 -63.0 -20.25 -52.0 -29.25 -44.75 -33.5 Q-22.0 -68.75 -0.5 -74.25 21.25 -68.5 43.0 -35.0 L46.5 -33.5" fill="#2e47aa" fill-rule="evenodd" stroke="none"/>
  </g>
</svg>
