<?xml version="1.0" encoding="UTF-8" standalone="no"?>
<svg xmlns:ffdec="https://www.free-decompiler.com/flash" xmlns:xlink="http://www.w3.org/1999/xlink" ffdec:objectType="shape" height="156.75px" width="222.15px" xmlns="http://www.w3.org/2000/svg">
  <g transform="matrix(1.0, 0.0, 0.0, 1.0, 125.75, 74.25)">
    <path d="M54.25 -27.25 L67.25 -14.25 71.5 -9.25 72.25 -8.5 72.75 -7.75 74.0 -6.5 74.25 -6.0 76.5 -3.5 79.0 -2.25 Q85.0 4.25 84.75 6.25 L91.75 24.25 Q97.75 41.5 96.0 44.0 L95.75 45.0 94.75 45.0 Q89.25 44.25 72.0 15.5 L62.75 9.75 Q72.0 41.25 41.25 61.75 L32.5 71.75 Q19.0 80.75 3.25 82.5 L-12.0 80.75 -17.25 79.25 -31.0 72.5 -39.75 63.25 Q-65.0 53.75 -65.5 20.0 L-65.75 20.0 -81.5 33.25 -83.0 37.5 -91.25 48.5 -113.75 72.75 Q-120.5 80.0 -122.0 80.0 L-125.75 81.5 -125.5 77.0 -122.5 67.25 -113.5 46.0 -103.75 28.25 Q-94.5 15.0 -91.0 16.0 L-81.5 3.5 -81.0 3.0 -66.5 -14.25 -53.0 -27.75 -52.25 -28.25 -51.75 -28.75 -49.5 -30.25 -49.0 -30.5 -45.25 -33.0 Q-21.75 -69.0 -0.5 -74.25 21.25 -68.5 43.0 -35.0 44.75 -35.5 54.25 -27.25" fill="#2e47aa" fill-rule="evenodd" stroke="none"/>
  </g>
</svg>
