<?xml version="1.0" encoding="UTF-8" standalone="no"?>
<svg xmlns:ffdec="https://www.free-decompiler.com/flash" xmlns:xlink="http://www.w3.org/1999/xlink" ffdec:objectType="shape" height="164.0px" width="214.5px" xmlns="http://www.w3.org/2000/svg">
  <g transform="matrix(1.0, 0.0, 0.0, 1.0, 118.5, 74.25)">
    <path d="M54.75 -26.75 L67.0 -14.25 69.75 -11.0 70.25 -10.5 71.0 -9.5 71.75 -8.75 72.25 -8.0 73.25 -7.0 73.5 -6.5 76.0 -3.75 76.0 -3.5 78.0 -2.75 Q83.75 3.25 84.25 6.0 L84.5 6.5 89.75 19.5 93.5 31.5 96.0 41.75 95.5 44.0 95.0 45.25 94.0 45.25 92.0 44.75 88.25 40.5 78.25 26.75 71.75 15.75 62.75 10.0 Q72.0 41.0 41.25 61.75 L32.5 71.75 Q19.0 80.75 3.25 82.5 L-12.0 80.75 -17.25 79.25 -31.0 72.5 -39.75 63.25 Q-67.0 48.75 -65.5 24.0 L-76.0 34.25 -78.25 35.5 -79.5 40.0 -86.0 50.75 -106.5 78.75 -113.25 87.0 -118.25 89.75 -118.5 84.75 -116.25 74.5 -109.0 52.0 -101.75 34.75 Q-99.0 27.75 -95.25 24.5 L-92.0 20.5 -89.5 19.5 -80.5 6.25 -80.25 6.0 -64.0 -15.5 -52.5 -27.5 -51.5 -28.25 -50.75 -29.0 -46.0 -32.5 -45.5 -32.75 Q-21.5 -69.0 -0.5 -74.25 21.0 -68.75 43.25 -34.75 45.25 -35.25 54.75 -26.75" fill="#2e47aa" fill-rule="evenodd" stroke="none"/>
  </g>
</svg>
