<?xml version="1.0" encoding="UTF-8" standalone="no"?>
<svg xmlns:ffdec="https://www.free-decompiler.com/flash" xmlns:xlink="http://www.w3.org/1999/xlink" ffdec:objectType="shape" height="174.0px" width="203.5px" xmlns="http://www.w3.org/2000/svg">
  <g transform="matrix(1.0, 0.0, 0.0, 1.0, 108.25, 74.25)">
    <path d="M55.75 -25.75 L69.0 -11.5 70.0 -10.25 70.5 -9.75 71.25 -8.75 72.0 -8.0 72.5 -7.25 73.25 -6.5 73.75 -5.75 74.75 -4.75 75.0 -4.25 75.75 -3.25 78.75 -1.5 Q84.0 4.25 84.0 6.5 L89.25 19.75 93.0 32.25 95.25 41.5 94.5 45.5 91.5 45.0 88.5 41.75 82.25 33.5 71.25 15.75 63.0 10.5 Q70.75 42.25 41.25 61.75 L32.5 71.75 Q19.0 80.75 3.25 82.5 L-12.0 80.75 -17.25 79.25 -31.0 72.5 -39.75 63.25 Q-66.0 49.5 -65.5 25.5 L-75.75 35.25 -79.75 45.5 -80.0 46.0 -80.5 47.5 -96.25 82.75 -103.5 96.0 -107.75 99.75 -108.25 94.0 -106.5 78.0 -102.25 56.0 -97.5 39.25 Q-95.0 29.25 -88.5 22.25 L-88.0 20.25 -80.0 7.5 -79.75 7.25 -63.25 -15.75 -54.25 -26.0 -46.25 -32.25 -45.75 -32.75 -45.25 -33.0 Q-21.75 -69.0 -0.5 -74.25 21.0 -68.75 43.25 -34.75 45.25 -35.25 55.75 -25.75" fill="#2e47aa" fill-rule="evenodd" stroke="none"/>
  </g>
</svg>
