<?xml version="1.0" encoding="UTF-8" standalone="no"?>
<svg xmlns:ffdec="https://www.free-decompiler.com/flash" xmlns:xlink="http://www.w3.org/1999/xlink" ffdec:objectType="shape" height="177.5px" width="199.25px" xmlns="http://www.w3.org/2000/svg">
  <g transform="matrix(1.0, 0.0, 0.0, 1.0, 104.25, 74.25)">
    <path d="M54.5 -26.75 L69.0 -11.5 69.75 -10.5 70.25 -10.0 71.0 -9.0 71.5 -8.5 72.25 -7.5 73.0 -6.75 73.25 -6.25 74.25 -5.25 74.5 -4.75 75.5 -3.75 75.75 -3.0 78.0 -2.25 Q83.5 3.75 84.0 6.5 L89.0 19.25 92.5 30.75 95.0 41.0 94.5 44.5 94.25 45.5 93.25 45.5 91.25 45.0 86.75 39.75 81.25 32.25 71.25 16.0 63.0 10.5 Q70.75 42.25 41.25 61.75 L32.5 71.75 Q19.0 80.75 3.25 82.5 L-12.0 80.75 -17.25 79.25 -31.0 72.5 -39.75 63.25 Q-67.0 48.5 -65.5 24.5 L-74.5 33.5 -76.0 34.0 -79.25 46.25 -89.75 75.75 -99.25 99.0 -103.25 103.25 -104.25 97.25 -104.0 92.0 -100.75 65.25 -96.0 40.75 -95.75 40.25 -95.5 39.0 -95.5 38.75 -95.0 35.5 -90.5 25.0 -89.0 23.25 -87.25 18.0 -79.75 6.5 -79.5 6.25 -62.75 -16.75 -53.5 -27.0 -46.0 -32.75 -45.5 -33.0 Q-21.75 -68.75 -0.5 -74.25 21.0 -68.75 43.25 -34.75 45.0 -35.25 54.5 -26.75" fill="#2e47aa" fill-rule="evenodd" stroke="none"/>
  </g>
</svg>
