<?xml version="1.0" encoding="UTF-8" standalone="no"?>
<svg xmlns:ffdec="https://www.free-decompiler.com/flash" xmlns:xlink="http://www.w3.org/1999/xlink" ffdec:objectType="shape" height="179.75px" width="198.05px" xmlns="http://www.w3.org/2000/svg">
  <g transform="matrix(1.0, 0.0, 0.0, 1.0, 100.75, 74.25)">
    <path d="M53.5 -27.75 L68.25 -12.75 70.75 -9.75 71.25 -9.25 72.0 -8.25 72.75 -7.5 73.0 -7.0 76.75 -2.75 79.25 -1.25 Q84.25 3.75 85.25 7.5 L94.0 30.75 Q98.25 44.0 97.0 46.0 L96.75 47.25 93.5 46.75 89.75 42.5 81.75 32.0 71.75 16.0 63.0 10.5 Q70.75 42.25 41.25 61.75 L32.5 71.75 Q19.0 80.75 3.25 82.5 L-12.0 80.75 -17.25 79.25 -31.0 72.5 -39.75 63.25 Q-64.0 53.75 -65.5 23.0 L-76.0 32.25 -85.75 70.25 -95.5 100.5 -99.25 105.5 -100.75 99.0 -100.0 82.5 -98.0 62.75 -94.5 39.25 -89.25 23.5 -89.0 23.25 -88.75 22.5 -88.75 22.25 -88.5 21.0 -87.0 16.25 -78.0 2.75 -77.75 2.5 -62.5 -17.5 Q-51.25 -31.25 -45.25 -33.25 L-44.75 -33.75 Q-18.0 -72.5 -0.5 -74.25 21.0 -68.75 43.25 -34.75 45.0 -35.5 53.5 -27.75" fill="#2e47aa" fill-rule="evenodd" stroke="none"/>
  </g>
</svg>
