<?xml version="1.0" encoding="UTF-8" standalone="no"?>
<svg xmlns:ffdec="https://www.free-decompiler.com/flash" xmlns:xlink="http://www.w3.org/1999/xlink" ffdec:objectType="shape" height="178.5px" width="201.75px" xmlns="http://www.w3.org/2000/svg">
  <g transform="matrix(1.0, 0.0, 0.0, 1.0, 98.0, 74.25)">
    <path d="M68.75 -13.25 L71.75 -9.75 72.5 -9.0 73.0 -8.25 74.5 -6.75 74.5 -6.5 78.5 -1.75 Q87.75 0.0 103.75 49.0 L103.5 49.5 103.5 50.0 103.25 53.0 101.25 52.25 99.75 52.0 87.5 37.5 73.0 16.5 65.5 11.5 64.5 11.0 63.75 10.5 62.75 10.0 Q72.0 41.0 41.25 61.75 L32.5 71.75 Q19.0 80.75 3.25 82.5 L-12.0 80.75 -17.25 79.25 -31.0 72.5 -39.75 63.25 Q-64.0 54.5 -65.5 21.25 L-65.75 21.25 -75.75 30.0 -83.0 64.25 -83.75 65.0 -87.75 82.75 -92.75 99.0 -96.5 104.25 -98.0 97.5 -98.0 80.75 -95.25 47.75 -93.75 35.5 -88.5 20.0 -88.25 19.5 -86.25 13.5 -77.25 0.5 -61.75 -19.0 -52.25 -28.75 -45.0 -33.5 Q-18.0 -72.5 -0.5 -74.25 21.25 -68.5 43.0 -35.0 46.0 -34.75 52.75 -28.75 L68.75 -13.25" fill="#2e47aa" fill-rule="evenodd" stroke="none"/>
  </g>
</svg>
