<?xml version="1.0" encoding="UTF-8" standalone="no"?>
<svg xmlns:ffdec="https://www.free-decompiler.com/flash" xmlns:xlink="http://www.w3.org/1999/xlink" ffdec:objectType="shape" height="173.0px" width="212.45px" xmlns="http://www.w3.org/2000/svg">
  <g transform="matrix(1.0, 0.0, 0.0, 1.0, 94.2, 74.25)">
    <path d="M56.5 -27.0 L72.5 -12.25 85.25 2.0 89.0 4.25 96.75 14.25 105.75 33.0 112.75 51.0 117.75 66.5 118.25 73.0 113.5 70.25 106.0 60.75 105.25 60.0 105.0 59.5 104.5 59.0 88.5 37.25 76.75 18.5 62.75 9.75 Q72.0 41.25 41.25 61.75 L32.25 72.0 Q19.75 80.75 3.25 82.5 L-12.0 80.75 -17.25 79.25 -31.0 72.5 -39.75 63.25 Q-67.0 52.0 -65.25 17.25 L-65.5 17.25 -72.75 23.0 -78.25 58.75 -85.0 93.0 -88.25 98.75 -91.25 92.25 Q-99.0 20.25 -86.5 13.25 L-86.25 12.5 -86.0 12.25 -85.75 11.5 Q-57.0 -30.25 -44.25 -34.25 -18.25 -72.25 -0.5 -74.25 21.5 -68.25 42.5 -35.5 48.0 -34.5 56.5 -27.0" fill="#2e47aa" fill-rule="evenodd" stroke="none"/>
  </g>
</svg>
