<?xml version="1.0" encoding="UTF-8" standalone="no"?>
<svg xmlns:ffdec="https://www.free-decompiler.com/flash" xmlns:xlink="http://www.w3.org/1999/xlink" ffdec:objectType="shape" height="170.25px" width="212.0px" xmlns="http://www.w3.org/2000/svg">
  <g transform="matrix(1.0, 0.0, 0.0, 1.0, 93.0, 74.25)">
    <path d="M49.5 -32.5 L57.5 -26.75 73.0 -12.75 76.0 -10.5 86.5 0.75 88.5 4.5 94.0 8.5 100.0 17.75 101.25 20.25 101.5 20.5 110.25 44.0 119.0 77.5 118.5 84.25 113.5 80.25 105.5 68.0 105.25 67.75 105.0 67.25 94.75 51.0 84.75 33.5 77.75 19.25 77.5 19.0 62.75 10.0 Q72.0 41.0 41.25 61.75 L32.25 72.0 Q17.75 81.25 3.25 82.5 L-12.0 80.75 -17.25 79.25 -31.0 72.5 -39.75 63.25 Q-67.5 52.0 -65.25 15.25 L-71.25 20.0 -71.25 34.25 -73.25 54.0 -75.5 67.25 -75.5 68.0 -75.75 69.0 -78.5 90.0 -81.25 96.0 -84.75 90.0 -87.5 78.25 -91.25 55.75 -92.75 30.75 -93.0 30.5 -92.75 29.0 -92.75 27.75 -91.75 21.25 -90.25 15.5 Q-88.25 10.25 -85.5 11.0 L-85.25 10.25 -83.0 5.0 -71.25 -9.75 -57.5 -24.5 Q-48.75 -33.5 -44.0 -34.5 -18.25 -72.25 -0.5 -74.25 21.5 -68.25 42.5 -35.5 L49.5 -32.5" fill="#2e47aa" fill-rule="evenodd" stroke="none"/>
  </g>
</svg>
