<?xml version="1.0" encoding="UTF-8" standalone="no"?>
<svg xmlns:ffdec="https://www.free-decompiler.com/flash" xmlns:xlink="http://www.w3.org/1999/xlink" ffdec:objectType="shape" height="167.0px" width="203.4px" xmlns="http://www.w3.org/2000/svg">
  <g transform="matrix(1.0, 0.0, 0.0, 1.0, 91.9, 74.25)">
    <path d="M-0.5 -74.25 Q21.5 -68.25 42.5 -35.75 58.25 -30.75 87.75 1.0 L89.75 3.25 92.0 7.75 Q108.25 11.75 111.5 85.75 L109.75 92.5 104.75 87.25 97.75 71.25 97.5 71.0 97.25 70.5 96.5 68.5 96.5 68.25 95.75 67.0 95.5 66.0 95.25 65.75 95.0 65.0 94.75 64.5 94.5 63.75 94.25 63.25 94.25 63.0 83.0 35.0 83.0 34.75 82.5 33.75 82.5 33.5 78.0 19.75 63.0 10.75 Q70.75 42.25 41.25 61.75 L32.25 72.0 Q17.75 81.25 3.25 82.5 L-12.0 80.75 -17.25 79.25 -31.0 72.5 -39.75 63.25 Q-67.25 53.75 -65.0 13.75 L-69.0 16.5 -68.75 16.75 -68.75 20.25 -67.75 24.0 -68.0 54.0 -68.75 59.5 -70.0 86.5 -72.5 92.75 -76.75 87.0 -80.75 76.25 -88.25 50.75 -91.0 33.0 Q-94.5 13.25 -84.25 8.75 -72.5 -14.0 -43.75 -34.75 -18.5 -72.0 -0.5 -74.25" fill="#2e47aa" fill-rule="evenodd" stroke="none"/>
  </g>
</svg>
