<?xml version="1.0" encoding="UTF-8" standalone="no"?>
<svg xmlns:ffdec="https://www.free-decompiler.com/flash" xmlns:xlink="http://www.w3.org/1999/xlink" ffdec:objectType="shape" height="168.75px" width="194.45px" xmlns="http://www.w3.org/2000/svg">
  <g transform="matrix(1.0, 0.0, 0.0, 1.0, 90.25, 74.25)">
    <path d="M-0.5 -74.25 Q21.5 -68.25 42.5 -35.5 59.25 -30.75 90.0 2.5 L91.75 4.25 91.75 4.5 93.0 6.5 93.25 6.75 93.5 7.75 95.0 11.0 Q113.25 18.5 95.25 88.25 L91.5 94.5 87.75 87.75 84.25 71.0 84.25 69.75 84.0 69.25 84.0 68.25 83.75 67.5 83.75 66.75 83.25 64.25 83.25 64.0 82.5 60.75 82.5 59.5 82.25 59.0 82.25 58.25 82.0 57.25 81.5 54.0 81.5 53.75 79.5 40.75 79.5 40.0 79.25 39.5 79.25 38.25 79.0 37.75 77.75 27.75 77.75 20.5 63.0 11.25 Q71.75 40.5 41.25 61.75 L32.25 72.0 Q17.75 81.25 3.25 82.5 L-12.0 80.75 -17.25 79.25 -31.0 72.5 -39.75 63.25 Q-53.5 58.5 -62.5 40.25 L-63.0 40.0 -63.0 41.25 -62.75 43.0 -62.75 43.75 -62.5 45.25 -62.5 47.25 -62.25 48.75 -61.0 65.0 -60.75 82.25 -62.5 88.75 -67.25 83.5 -73.0 73.25 -82.75 51.5 -89.75 28.25 -90.25 15.75 Q-89.5 7.5 -83.0 7.0 -77.0 -9.25 -44.0 -34.75 -18.25 -72.0 -0.5 -74.25 M-66.75 13.75 L-66.5 14.0 -66.25 14.75 -65.75 18.0 -65.5 18.25 -65.0 12.5 -66.75 13.75" fill="#2e47aa" fill-rule="evenodd" stroke="none"/>
  </g>
</svg>
