<?xml version="1.0" encoding="UTF-8" standalone="no"?>
<svg xmlns:ffdec="https://www.free-decompiler.com/flash" xmlns:xlink="http://www.w3.org/1999/xlink" ffdec:objectType="shape" height="163.25px" width="192.45px" xmlns="http://www.w3.org/2000/svg">
  <g transform="matrix(1.0, 0.0, 0.0, 1.0, 89.3, 74.25)">
    <path d="M-0.5 -74.25 Q21.25 -68.5 42.75 -35.25 62.5 -28.0 89.0 1.0 L93.5 6.0 96.25 11.0 96.25 11.25 97.25 13.5 97.5 13.75 97.5 14.25 101.0 18.0 Q103.75 25.0 103.0 26.25 L102.75 26.75 101.25 37.0 97.25 47.25 96.75 48.25 96.75 48.5 96.5 49.25 96.0 50.25 95.75 51.0 94.75 53.0 94.75 53.25 93.5 56.0 83.0 73.0 74.0 84.75 68.25 89.0 66.75 81.75 68.75 61.75 73.0 33.25 76.25 20.25 63.5 12.25 Q70.5 42.0 41.25 61.75 L32.25 72.0 Q17.75 81.25 3.25 82.5 L-12.0 80.75 -17.25 79.25 -31.0 72.5 -39.75 63.25 -43.25 61.75 -49.25 57.5 -54.75 52.5 -51.0 77.0 -52.0 83.75 -57.5 79.25 -66.0 68.25 -77.75 49.25 -87.25 28.0 -89.25 15.5 Q-90.0 9.25 -82.0 5.75 -68.25 -19.0 -44.0 -34.75 -18.25 -72.0 -0.5 -74.25" fill="#2e47aa" fill-rule="evenodd" stroke="none"/>
  </g>
</svg>
