<?xml version="1.0" encoding="UTF-8" standalone="no"?>
<svg xmlns:ffdec="https://www.free-decompiler.com/flash" xmlns:xlink="http://www.w3.org/1999/xlink" ffdec:objectType="shape" height="156.7px" width="189.35px" xmlns="http://www.w3.org/2000/svg">
  <g transform="matrix(1.0, 0.0, 0.0, 1.0, 87.5, 74.25)">
    <path d="M-0.5 -74.25 Q21.25 -68.5 43.0 -35.0 66.25 -25.0 89.25 1.5 L96.75 9.75 100.0 17.5 99.5 19.75 Q106.5 32.5 92.5 41.25 L74.5 52.25 52.5 61.0 38.0 65.25 Q4.75 98.25 -35.5 68.0 L-35.25 73.5 -42.0 70.5 -53.75 60.75 -69.75 45.5 -80.5 31.25 -80.75 31.0 -81.25 30.25 -81.5 29.75 -82.75 28.5 -84.75 23.75 -84.75 23.5 -85.0 23.25 -85.0 23.0 -85.25 22.75 -85.25 22.5 -87.0 18.75 -87.25 18.0 -87.5 17.5 -87.0 10.25 Q-87.25 8.5 -80.75 4.5 -74.75 -11.75 -44.0 -34.75 -18.25 -72.0 -0.5 -74.25 M64.0 14.25 L64.5 22.25 64.0 25.25 70.75 19.0 64.0 14.25" fill="#2e47aa" fill-rule="evenodd" stroke="none"/>
  </g>
</svg>
