<?xml version="1.0" encoding="UTF-8" standalone="no"?>
<svg xmlns:ffdec="https://www.free-decompiler.com/flash" xmlns:xlink="http://www.w3.org/1999/xlink" ffdec:objectType="shape" height="156.75px" width="195.1px" xmlns="http://www.w3.org/2000/svg">
  <g transform="matrix(1.0, 0.0, 0.0, 1.0, 93.6, 74.25)">
    <path d="M43.5 -35.0 Q63.0 -27.0 89.0 1.5 L90.5 3.0 91.0 3.75 97.0 10.25 100.25 17.25 99.5 21.5 101.5 27.0 99.5 33.5 98.5 35.0 90.75 40.5 68.75 49.5 52.75 53.0 43.5 60.75 41.25 61.75 32.0 72.0 Q20.0 80.75 3.0 82.5 -19.5 82.0 -33.0 70.25 L-53.0 59.75 -67.75 51.0 -86.0 36.0 -91.0 29.0 Q-97.0 18.5 -89.25 14.0 L-89.0 12.25 -88.75 12.0 -88.5 11.5 -88.25 10.75 -88.0 10.25 -86.5 6.0 -77.0 -5.75 -60.0 -23.5 Q-49.25 -33.75 -43.75 -35.0 -18.5 -72.0 -0.5 -74.25 21.25 -68.5 43.0 -35.0 L43.5 -35.0 M64.0 14.75 L64.5 21.0 68.75 18.25 64.0 14.75 M-65.75 14.75 L-65.0 15.25 -65.0 14.25 -65.75 14.75" fill="#2e47aa" fill-rule="evenodd" stroke="none"/>
  </g>
</svg>
