<?xml version="1.0" encoding="UTF-8" standalone="no"?>
<svg xmlns:ffdec="https://www.free-decompiler.com/flash" xmlns:xlink="http://www.w3.org/1999/xlink" ffdec:objectType="shape" height="152.25px" width="192.8px" xmlns="http://www.w3.org/2000/svg">
  <g transform="matrix(1.0, 0.0, 0.0, 1.0, 93.25, 65.0)">
    <path d="M-44.25 -26.25 L-43.5 -26.5 Q-18.25 -62.75 -1.0 -65.0 14.75 -65.0 42.25 -27.25 64.0 -18.25 87.5 8.5 L89.25 10.25 89.5 10.75 96.0 18.0 98.75 24.5 Q99.25 26.0 97.5 28.5 102.5 34.0 95.25 42.25 88.25 49.5 53.25 56.5 L50.75 59.5 40.75 66.75 32.25 76.75 17.75 84.25 3.25 87.25 Q-19.25 87.25 -33.0 75.0 L-59.25 65.25 -59.5 65.0 -60.0 64.75 -60.75 64.5 -76.5 56.25 -81.25 53.25 -90.75 45.25 -91.0 44.75 -93.25 38.25 -90.75 33.5 -91.5 32.25 -91.25 30.0 -90.75 28.75 -89.75 24.75 -89.5 24.0 -89.5 23.75 -88.25 21.5 -87.75 21.0 -85.75 18.25 -85.5 17.75 -80.0 9.5 -67.25 -6.0 -52.0 -21.5 Q-45.75 -26.75 -44.25 -26.25 M-64.5 29.25 L-65.75 30.25 -64.25 31.0 -64.5 29.25 M63.25 22.0 L63.5 26.0 66.5 24.5 63.25 22.0" fill="#2e47aa" fill-rule="evenodd" stroke="none"/>
  </g>
</svg>
