<?xml version="1.0" encoding="UTF-8" standalone="no"?>
<svg xmlns:ffdec="https://www.free-decompiler.com/flash" xmlns:xlink="http://www.w3.org/1999/xlink" ffdec:objectType="shape" height="152.25px" width="192.2px" xmlns="http://www.w3.org/2000/svg">
  <g transform="matrix(1.0, 0.0, 0.0, 1.0, 99.25, 65.0)">
    <path d="M-1.0 -65.0 Q21.0 -60.0 43.0 -26.25 55.5 -22.5 84.25 16.0 L84.75 16.75 85.25 17.25 85.5 17.75 88.5 21.75 88.5 22.25 88.75 22.25 88.75 22.5 91.25 30.25 91.25 30.75 90.75 33.25 Q95.5 39.0 90.0 45.5 L81.25 52.5 60.25 63.0 37.25 70.5 Q36.0 76.75 18.5 84.0 L1.75 87.25 -10.75 85.75 -17.25 84.0 -31.25 77.0 -39.5 68.25 -48.0 63.0 -53.5 58.0 -64.75 55.75 Q-106.5 46.25 -97.75 29.0 L-99.0 25.25 -95.5 17.75 -88.5 9.75 Q-67.5 -15.75 -43.5 -27.25 -19.0 -62.0 -1.0 -65.0 M64.25 29.25 L63.5 28.5 63.5 29.75 64.25 29.25 M-64.25 22.75 L-67.5 25.0 -64.5 26.75 -64.25 22.75" fill="#2e47aa" fill-rule="evenodd" stroke="none"/>
  </g>
</svg>
