<?xml version="1.0" encoding="UTF-8" standalone="no"?>
<svg xmlns:ffdec="https://www.free-decompiler.com/flash" xmlns:xlink="http://www.w3.org/1999/xlink" ffdec:objectType="shape" height="152.25px" width="191.75px" xmlns="http://www.w3.org/2000/svg">
  <g transform="matrix(1.0, 0.0, 0.0, 1.0, 99.95, 65.0)">
    <path d="M43.25 -26.25 Q61.5 -15.75 83.5 16.5 L85.25 19.0 85.75 19.5 85.75 19.75 87.5 22.5 88.0 23.0 90.25 30.75 90.5 31.25 89.75 33.5 91.75 38.25 Q93.0 52.75 36.5 71.5 36.5 76.25 18.5 84.0 L1.75 87.25 -10.75 85.75 -17.25 84.0 -31.25 77.0 -39.5 68.25 -48.0 63.0 -55.0 56.25 -66.25 54.25 Q-107.0 45.5 -98.5 28.5 L-99.75 25.5 -96.5 17.25 -90.5 10.75 -90.25 10.25 -88.5 8.5 Q-68.5 -15.25 -43.75 -27.25 L-43.0 -27.25 Q-19.0 -62.0 -1.0 -65.0 21.0 -60.0 42.75 -26.5 L43.25 -26.25 M63.5 29.25 L63.5 30.0 64.0 29.75 63.5 29.25 M-64.25 22.0 L-67.75 24.5 -64.75 26.0 -64.25 22.0" fill="#2e47aa" fill-rule="evenodd" stroke="none"/>
  </g>
</svg>
