<?xml version="1.0" encoding="UTF-8" standalone="no"?>
<svg xmlns:ffdec="https://www.free-decompiler.com/flash" xmlns:xlink="http://www.w3.org/1999/xlink" ffdec:objectType="shape" height="152.25px" width="192.75px" xmlns="http://www.w3.org/2000/svg">
  <g transform="matrix(1.0, 0.0, 0.0, 1.0, 97.75, 65.0)">
    <path d="M43.5 -26.5 Q60.75 -18.25 85.75 14.5 L86.25 15.0 86.5 15.5 90.75 21.0 93.5 28.5 92.75 32.0 95.0 37.0 93.5 41.25 93.25 41.5 92.75 42.75 Q90.5 52.25 39.5 67.75 L32.0 77.0 Q18.75 85.75 3.5 87.25 L-16.5 84.5 -31.25 77.0 -39.5 68.25 -42.25 67.0 -51.25 60.25 -61.75 58.0 -82.25 51.0 -92.25 44.75 Q-94.75 45.0 -97.75 36.75 L-95.75 30.5 -97.0 27.5 -93.75 19.0 -93.5 18.75 -91.5 16.25 -91.0 15.75 -90.25 14.75 -89.25 13.75 -87.5 11.5 -87.0 11.0 Q-65.75 -16.0 -43.75 -27.0 -19.0 -62.0 -1.0 -65.0 14.5 -65.25 42.75 -26.75 L43.5 -26.5 M63.5 26.75 L63.5 29.0 63.75 29.25 65.25 28.0 63.5 26.75 M-66.5 26.0 L-64.5 27.25 -64.25 24.5 -66.5 26.0" fill="#2e47aa" fill-rule="evenodd" stroke="none"/>
  </g>
</svg>
