<?xml version="1.0" encoding="UTF-8" standalone="no"?>
<svg xmlns:ffdec="https://www.free-decompiler.com/flash" xmlns:xlink="http://www.w3.org/1999/xlink" ffdec:objectType="shape" height="152.25px" width="192.75px" xmlns="http://www.w3.org/2000/svg">
  <g transform="matrix(1.0, 0.0, 0.0, 1.0, 95.5, 65.0)">
    <path d="M75.5 -1.0 L86.0 11.0 86.5 11.5 93.25 19.75 96.0 26.5 96.0 28.5 95.0 30.25 97.25 36.0 96.25 38.0 Q96.25 50.5 46.25 62.75 L40.75 66.75 31.0 77.5 Q19.25 85.5 3.5 87.25 L-16.5 84.5 -31.25 77.0 -39.5 68.25 -47.25 63.25 -59.75 60.25 -82.75 51.25 -91.5 45.25 -95.25 38.75 -95.5 37.25 -93.5 32.5 -93.5 32.25 -94.5 29.0 -94.5 28.5 -94.25 28.25 -93.25 25.25 -93.25 25.0 -91.5 20.5 -91.0 20.0 -90.5 19.25 -87.5 15.5 -87.25 15.0 -86.75 14.5 -82.0 8.0 -63.5 -12.0 -62.75 -12.5 -61.25 -14.0 -60.25 -14.75 -53.0 -21.5 -44.0 -26.75 Q-18.75 -62.25 -1.0 -65.0 14.75 -65.25 42.5 -27.0 L43.5 -27.0 51.75 -22.5 63.0 -13.25 75.5 -1.0 M63.5 24.5 L63.75 28.0 65.0 27.25 65.5 26.75 66.0 26.5 63.5 24.5 M-65.5 27.5 L-64.5 28.0 -64.5 26.75 -65.5 27.5" fill="#2e47aa" fill-rule="evenodd" stroke="none"/>
  </g>
</svg>
