<?xml version="1.0" encoding="UTF-8" standalone="no"?>
<svg xmlns:ffdec="https://www.free-decompiler.com/flash" xmlns:xlink="http://www.w3.org/1999/xlink" ffdec:objectType="shape" height="152.25px" width="192.35px" xmlns="http://www.w3.org/2000/svg">
  <g transform="matrix(1.0, 0.0, 0.0, 1.0, 93.5, 65.0)">
    <path d="M43.25 -27.25 Q66.0 -16.0 87.5 9.75 L95.0 18.25 98.0 25.5 96.75 29.0 Q101.75 34.5 94.75 42.75 89.25 50.0 51.75 58.25 L43.25 65.5 40.75 66.75 32.0 77.0 Q19.0 85.75 3.75 87.25 L-16.25 84.5 Q-34.25 78.0 -38.25 69.0 L-58.5 62.75 -75.25 55.75 -80.5 53.0 -90.5 45.5 -92.0 42.75 -93.5 39.0 -93.5 37.5 -91.5 33.75 -91.5 33.5 -92.5 31.5 -92.25 29.75 -92.25 29.5 -91.5 27.0 -91.25 26.75 -90.0 23.0 -90.0 22.75 -89.5 21.75 -89.0 21.0 -88.5 20.5 -86.5 17.75 -86.25 17.25 -85.75 16.75 -85.5 16.25 -80.5 9.0 -61.75 -12.25 -52.25 -21.5 -44.0 -26.5 Q-18.25 -62.75 -1.0 -65.0 14.75 -65.0 42.25 -27.25 L43.25 -27.25 M-64.5 28.5 L-65.25 29.25 -64.75 29.25 -64.5 28.5 M66.5 25.0 L63.25 22.75 63.5 26.75 66.5 25.0" fill="#2e47aa" fill-rule="evenodd" stroke="none"/>
  </g>
</svg>
