<?xml version="1.0" encoding="UTF-8" standalone="no"?>
<svg xmlns:ffdec="https://www.free-decompiler.com/flash" xmlns:xlink="http://www.w3.org/1999/xlink" ffdec:objectType="shape" height="152.25px" width="192.95px" xmlns="http://www.w3.org/2000/svg">
  <g transform="matrix(1.0, 0.0, 0.0, 1.0, 93.4, 65.0)">
    <path d="M-44.25 -26.25 L-43.5 -26.5 Q-18.25 -62.75 -1.0 -65.0 14.75 -65.0 42.25 -27.25 64.0 -18.25 87.5 8.5 L89.25 10.25 89.5 10.75 96.0 18.0 98.75 24.5 Q99.25 26.0 97.5 28.5 102.5 34.0 95.25 42.25 87.75 49.5 53.25 56.5 L50.75 59.5 40.75 66.75 31.0 77.5 Q19.25 85.5 3.5 87.25 L-16.5 84.5 Q-32.25 77.75 -32.75 75.25 L-41.5 72.25 -60.5 64.75 -77.25 56.0 -90.75 45.25 -91.0 44.5 -91.25 44.25 -91.25 44.0 -91.5 43.25 -93.25 39.5 Q-94.0 38.0 -90.75 33.5 L-91.5 32.25 -91.25 30.0 -91.0 29.75 -90.5 28.0 -90.5 27.75 -90.25 26.25 -89.25 23.5 -88.5 22.0 -88.25 21.75 -87.75 21.0 -87.5 20.75 -85.75 18.25 -85.5 17.75 -80.25 10.0 -63.0 -10.5 -52.75 -20.75 Q-45.75 -26.75 -44.25 -26.25 M-65.75 30.5 L-64.25 31.0 -64.5 29.25 -65.75 30.5 M63.25 22.0 L63.5 26.0 66.5 24.5 63.25 22.0" fill="#2e47aa" fill-rule="evenodd" stroke="none"/>
  </g>
</svg>
