<?xml version="1.0" encoding="UTF-8" standalone="no"?>
<svg xmlns:ffdec="https://www.free-decompiler.com/flash" xmlns:xlink="http://www.w3.org/1999/xlink" ffdec:objectType="shape" height="136.75px" width="131.2px" xmlns="http://www.w3.org/2000/svg">
  <g transform="matrix(1.0, 0.0, 0.0, 1.0, 66.2, 35.75)">
    <path d="M7.5 -28.0 L7.0 -28.25 6.0 -28.5 5.25 -28.5 4.25 -27.75 3.75 -27.5 Q1.75 -27.5 3.5 -24.0 L6.75 -23.75 8.5 -25.5 8.25 -27.75 7.5 -28.0 M-13.0 -24.25 L-15.5 -28.25 -15.5 -33.25 -11.0 -35.25 Q-6.75 -36.25 -1.75 -35.25 L-0.25 -34.75 0.0 -34.75 0.75 -35.0 6.75 -35.75 Q11.75 -35.75 14.5 -33.25 L14.5 -28.5 12.25 -24.75 Q10.0 -20.0 -0.25 -23.5 L-7.25 -21.75 Q-13.25 -22.5 -13.0 -24.25 M17.75 -0.5 L22.0 9.0 24.25 16.25 30.5 28.75 Q30.75 30.75 39.0 37.5 L44.0 46.75 44.25 55.5 41.25 61.75 31.25 72.5 Q18.5 81.0 3.75 82.25 L-4.5 81.5 Q-30.0 77.5 -39.75 63.25 L-41.75 60.25 -44.0 55.0 -42.75 50.0 -39.0 46.75 -38.75 45.25 -35.75 41.5 -30.25 30.25 -29.25 29.5 -24.5 18.0 -22.5 10.5 -18.0 0.75 Q-12.75 14.5 1.25 13.0 L2.5 13.0 3.25 12.75 Q13.5 11.25 17.75 -0.5 M-7.0 -28.5 L-8.0 -28.25 -8.5 -27.75 Q-12.25 -25.5 -6.25 -23.5 -2.0 -25.0 -4.75 -27.75 L-5.5 -27.75 -7.0 -28.5" fill="#ffffff" fill-rule="evenodd" stroke="none"/>
    <path d="M7.5 -28.0 L8.25 -27.75 8.5 -25.5 6.75 -23.75 3.5 -24.0 Q1.75 -27.5 3.75 -27.5 L4.25 -27.75 5.25 -28.5 6.0 -28.5 7.0 -28.25 7.5 -28.0 M-7.0 -28.5 L-5.5 -27.75 -4.75 -27.75 Q-2.0 -25.0 -6.25 -23.5 -12.25 -25.5 -8.5 -27.75 L-8.0 -28.25 -7.0 -28.5" fill="#000000" fill-rule="evenodd" stroke="none"/>
    <path d="M12.25 -24.75 Q20.5 -20.0 19.5 -12.25 L19.5 -8.25 17.75 -0.5 Q13.5 11.25 3.25 12.75 L2.5 13.0 1.25 13.0 Q-12.75 14.5 -18.0 0.75 -25.5 -18.75 -13.0 -24.25 -13.25 -22.5 -7.25 -21.75 L-0.25 -23.5 Q10.0 -20.0 12.25 -24.75 M41.25 61.75 L47.25 57.5 Q63.75 78.0 46.0 94.25 3.0 110.5 3.75 82.25 18.5 81.0 31.25 72.5 L41.25 61.75 M-4.5 81.5 L-4.5 84.75 -6.75 92.25 Q-16.5 107.25 -48.5 93.25 -63.25 84.0 -49.0 57.5 L-43.25 61.75 -39.75 63.25 Q-30.0 77.5 -4.5 81.5" fill="#e58508" fill-rule="evenodd" stroke="none"/>
    <path d="M1.45 12.9 Q17.4 11.95 19.65 -10.4 19.65 41.5 0.55 42.85 -20.1 44.75 -20.45 -10.25 -18.45 13.5 1.45 12.9 M59.65 5.0 L60.9 6.5 63.25 10.15 62.85 9.9 Q71.1 34.75 47.35 57.0 L49.5 60.65 51.6 65.4 50.6 65.65 Q48.0 67.9 45.85 68.5 L45.75 70.5 Q30.65 89.7 10.5 91.75 10.85 93.0 17.85 94.15 L18.0 97.65 32.75 96.75 Q48.85 93.75 54.35 81.25 55.1 82.15 52.25 87.65 L49.1 91.4 Q41.5 100.4 16.25 99.9 3.85 98.75 3.85 81.9 L2.35 82.0 -4.9 81.15 Q-5.9 103.25 -21.9 100.75 -47.15 100.25 -54.5 86.15 L-55.75 83.15 -55.9 81.5 Q-53.65 93.25 -19.15 98.15 L-19.0 94.4 Q-13.15 93.75 -10.75 91.65 -11.25 90.65 -17.15 89.9 -35.15 85.5 -45.25 70.0 -51.75 65.4 -52.9 65.9 L-51.25 61.75 -48.5 57.4 Q-60.15 48.9 -63.4 38.15 L-64.5 34.0 -64.6 32.7 Q-67.5 24.6 -65.2 14.85 L-65.15 14.25 -64.25 10.4 -64.5 10.3 -63.55 7.4 Q-57.9 3.7 -50.5 -2.0 L-51.15 -0.5 -51.7 0.05 -61.75 17.65 -60.9 23.15 Q-54.45 42.2 -42.0 48.4 -43.4 48.9 -42.9 49.9 -36.15 64.8 -19.0 72.25 0.65 78.6 18.75 72.0 34.85 65.15 43.0 50.25 44.6 48.25 43.25 45.25 51.25 39.65 54.1 34.5 L58.75 25.5 60.85 17.0 49.85 -1.75 59.65 5.0" fill="#000000" fill-opacity="0.49803922" fill-rule="evenodd" stroke="none"/>
  </g>
</svg>
