<?xml version="1.0" encoding="UTF-8" standalone="no"?>
<svg xmlns:ffdec="https://www.free-decompiler.com/flash" xmlns:xlink="http://www.w3.org/1999/xlink" ffdec:objectType="shape" height="126.55px" width="140.0px" xmlns="http://www.w3.org/2000/svg">
  <g transform="matrix(1.0, 0.0, 0.0, 1.0, 67.75, 27.55)">
    <path d="M6.75 -20.0 L5.75 -20.5 5.25 -20.25 4.5 -20.0 4.0 -19.75 3.75 -19.5 Q1.75 -19.25 3.75 -15.75 L7.0 -15.75 Q8.75 -17.5 8.25 -19.5 L7.0 -20.0 6.75 -20.0 M-12.75 -16.25 L-15.25 -20.25 -15.25 -25.0 -10.25 -27.0 -1.5 -26.75 -0.25 -26.25 0.0 -26.5 0.75 -26.75 6.75 -27.5 Q13.75 -26.5 14.25 -25.0 L14.25 -20.5 12.0 -16.75 Q9.5 -12.0 -0.25 -15.5 L-7.25 -13.75 Q-13.0 -14.5 -12.75 -16.25 M17.5 6.5 L22.0 16.75 23.75 23.5 30.0 35.25 37.25 42.75 22.0 53.25 18.25 58.5 25.75 59.5 26.75 59.5 22.25 67.5 Q21.75 81.75 19.75 83.25 4.5 91.75 -21.75 81.75 L-22.25 81.25 -21.75 77.75 -16.25 78.0 -19.5 72.5 -22.75 69.0 Q-24.0 63.0 -27.25 59.75 L-38.0 51.5 -28.75 35.75 -25.0 26.75 -22.25 17.5 -17.75 8.25 -17.5 8.25 Q-8.25 24.0 1.0 20.25 L2.5 20.25 3.25 20.0 Q14.0 18.25 17.5 6.5 M-3.5 -19.0 L-4.75 -19.75 -6.75 -20.5 -8.0 -20.0 -9.0 -18.75 -9.5 -17.5 -7.75 -15.75 -4.5 -15.75 -3.5 -17.25 -3.5 -19.0" fill="#ffffff" fill-rule="evenodd" stroke="none"/>
    <path d="M6.75 -20.0 L7.0 -20.0 8.25 -19.5 Q8.75 -17.5 7.0 -15.75 L3.75 -15.75 Q1.75 -19.25 3.75 -19.5 L4.0 -19.75 4.5 -20.0 5.25 -20.25 5.75 -20.5 6.75 -20.0 M-3.5 -19.0 L-3.5 -17.25 -4.5 -15.75 -7.75 -15.75 -9.5 -17.5 -9.0 -18.75 -8.0 -20.0 -6.75 -20.5 -4.75 -19.75 -3.5 -19.0" fill="#000000" fill-rule="evenodd" stroke="none"/>
    <path d="M12.0 -16.75 L15.5 -14.5 18.5 -10.25 19.25 -2.5 17.5 6.5 Q14.0 18.25 3.25 20.0 L2.5 20.25 1.0 20.25 Q-8.25 24.0 -17.5 8.25 L-17.75 8.25 Q-24.75 -12.0 -12.75 -16.25 -13.0 -14.5 -7.25 -13.75 L-0.25 -15.5 Q9.5 -12.0 12.0 -16.75 M26.75 59.5 L41.25 58.5 65.75 54.25 72.25 52.25 66.75 61.5 53.0 78.0 40.0 91.5 32.5 96.75 27.5 99.0 26.25 98.25 21.0 92.0 Q19.0 88.25 19.75 83.25 21.75 81.75 22.25 67.5 L26.75 59.5 M-21.75 81.75 L-23.0 87.75 -25.25 93.25 -31.0 98.25 -45.25 88.5 -50.25 82.25 -51.0 81.5 -51.25 81.0 -52.5 79.75 -67.75 61.0 -61.0 64.5 -60.75 64.75 -60.25 64.75 -60.0 65.0 -59.5 65.0 -59.25 65.25 -59.0 65.25 -51.25 68.25 -50.75 68.5 -41.75 72.0 -23.5 77.75 -21.75 77.75 -22.25 81.25 -21.75 81.75 M-22.75 69.0 L-45.75 47.0 -38.0 51.5 -27.25 59.75 Q-24.0 63.0 -22.75 69.0" fill="#e58508" fill-rule="evenodd" stroke="none"/>
    <path d="M-61.25 26.2 L-60.9 28.4 Q-59.3 33.15 -57.3 37.1 L-64.25 31.0 -65.75 30.25 -61.25 26.2 M19.9 85.75 Q19.45 84.2 19.25 82.5 5.55 91.5 -22.65 81.45 -23.0 86.6 -24.25 89.75 -24.7 91.0 -27.05 94.05 -29.9 97.75 -31.5 97.75 -38.85 97.75 -56.95 73.75 L-62.4 68.5 Q-65.05 64.9 -66.4 62.1 L-65.35 62.55 Q-57.85 65.9 -53.75 67.25 -51.3 68.05 -47.45 69.75 L-41.5 72.25 -37.6 72.9 Q-36.45 73.75 -34.3 73.95 L-32.5 77.15 Q-31.75 77.65 -30.65 76.65 L-29.4 75.55 -29.25 75.75 -29.25 75.5 -23.9 77.45 -18.45 78.0 Q0.05 86.6 17.1 77.0 L22.0 74.15 27.0 78.25 Q28.25 79.4 28.75 79.0 28.8 69.95 47.15 58.0 L61.8 55.2 72.2 52.9 Q68.7 61.15 54.0 77.25 45.9 86.1 38.85 91.95 31.25 98.25 28.0 98.25 25.8 98.25 22.75 94.75 19.75 91.3 19.75 89.0 L19.9 85.75 M64.9 25.3 L63.5 26.0 59.25 28.75 60.85 22.25 58.85 18.85 64.7 23.1 64.9 25.3 M-17.6 77.95 L-17.5 77.95 -17.75 77.95 -17.6 77.95 M0.55 49.85 Q-20.1 51.75 -20.45 -3.25 -18.45 20.5 1.45 19.9 17.4 18.95 19.65 -3.4 19.65 48.5 0.55 49.85" fill="#000000" fill-opacity="0.49803922" fill-rule="evenodd" stroke="none"/>
  </g>
</svg>
