<?xml version="1.0" encoding="UTF-8" standalone="no"?>
<svg xmlns:ffdec="https://www.free-decompiler.com/flash" xmlns:xlink="http://www.w3.org/1999/xlink" ffdec:objectType="shape" height="126.55px" width="142.05px" xmlns="http://www.w3.org/2000/svg">
  <g transform="matrix(1.0, 0.0, 0.0, 1.0, 73.5, 27.55)">
    <path d="M5.75 -20.5 L5.25 -20.25 4.5 -20.0 4.0 -19.75 3.75 -19.5 Q1.75 -19.25 3.75 -15.75 L7.0 -15.75 Q8.75 -17.5 8.25 -19.5 L7.0 -20.0 6.75 -20.0 5.75 -20.5 M-12.75 -16.25 L-15.25 -20.25 -15.25 -25.0 -10.25 -27.0 -1.5 -26.75 -0.25 -26.25 0.0 -26.5 0.75 -26.75 6.75 -27.5 Q13.75 -26.5 14.25 -25.0 L14.25 -20.5 12.0 -16.75 Q9.5 -12.0 -0.25 -15.5 L-7.25 -13.75 Q-13.0 -14.5 -12.75 -16.25 M17.5 6.5 L21.75 16.25 23.75 23.0 29.75 34.5 Q30.25 37.25 38.75 43.75 L41.25 48.0 37.25 51.5 36.75 51.75 36.25 52.25 33.25 53.75 26.25 59.75 25.5 61.25 17.0 69.75 13.25 75.5 20.75 75.5 21.5 75.25 20.75 82.75 19.75 83.25 Q4.5 91.75 -21.75 81.75 -21.0 65.25 -27.5 59.5 L-19.25 58.5 -23.0 53.25 -34.0 45.5 -26.0 29.75 -22.25 17.5 -17.75 8.25 -17.5 8.25 Q-8.25 24.0 1.0 20.25 L2.5 20.25 3.25 20.0 Q14.0 18.25 17.5 6.5 M-3.5 -19.0 L-4.75 -19.75 -6.75 -20.5 -8.0 -20.0 -9.0 -18.75 -9.5 -17.5 -7.75 -15.75 -4.5 -15.75 -3.5 -17.25 -3.5 -19.0" fill="#ffffff" fill-rule="evenodd" stroke="none"/>
    <path d="M5.75 -20.5 L6.75 -20.0 7.0 -20.0 8.25 -19.5 Q8.75 -17.5 7.0 -15.75 L3.75 -15.75 Q1.75 -19.25 3.75 -19.5 L4.0 -19.75 4.5 -20.0 5.25 -20.25 5.75 -20.5 M-3.5 -19.0 L-3.5 -17.25 -4.5 -15.75 -7.75 -15.75 -9.5 -17.5 -9.0 -18.75 -8.0 -20.0 -6.75 -20.5 -4.75 -19.75 -3.5 -19.0" fill="#000000" fill-rule="evenodd" stroke="none"/>
    <path d="M12.0 -16.75 L15.5 -14.5 18.5 -10.25 19.25 -2.5 17.5 6.5 Q14.0 18.25 3.25 20.0 L2.5 20.25 1.0 20.25 Q-8.25 24.0 -17.5 8.25 L-17.75 8.25 Q-24.75 -12.0 -12.75 -16.25 -13.0 -14.5 -7.25 -13.75 L-0.25 -15.5 Q9.5 -12.0 12.0 -16.75 M36.25 52.25 L25.5 61.25 26.25 59.75 33.25 53.75 36.25 52.25 M21.5 75.25 L36.75 71.5 56.25 64.75 68.0 59.25 64.25 64.75 46.75 84.75 38.75 92.5 30.25 98.0 28.0 99.0 26.75 98.75 22.0 93.5 19.75 88.0 19.75 83.25 20.75 82.75 21.5 75.25 M-21.75 81.75 L-23.0 87.75 -25.25 93.25 -31.0 98.25 -45.25 88.5 -50.25 82.25 -51.0 81.5 -51.25 81.0 -52.5 79.75 -53.25 78.75 -58.5 73.0 -71.0 56.25 -71.0 56.0 -71.75 55.25 -73.5 52.25 -66.25 54.25 -42.0 58.5 -27.5 59.5 Q-21.0 65.25 -21.75 81.75" fill="#e58508" fill-rule="evenodd" stroke="none"/>
    <path d="M30.65 73.0 L31.35 71.85 52.1 66.1 Q61.2 63.15 68.55 59.35 63.75 66.55 54.0 77.25 45.9 86.1 38.85 91.95 31.25 98.25 28.0 98.25 25.8 98.25 22.75 94.75 19.75 91.3 19.75 89.0 L19.9 85.75 19.45 83.6 18.5 84.0 15.05 84.7 Q10.4 86.55 4.5 86.75 L1.75 87.25 -10.75 85.75 -17.25 84.0 -21.65 81.8 -22.65 81.45 Q-23.0 86.6 -24.25 89.75 -24.7 91.0 -27.05 94.05 -29.9 97.75 -31.5 97.75 -38.85 97.75 -56.95 73.75 L-62.4 68.5 Q-67.75 61.3 -67.75 57.1 -67.75 54.85 -66.05 54.3 L-59.55 55.25 -59.1 55.3 Q-56.0 56.55 -53.2 57.95 L-55.0 56.25 -54.75 56.25 -42.75 58.25 -41.85 58.35 Q-37.15 67.25 -28.45 73.3 L-27.6 73.9 -26.65 73.0 -26.15 73.0 -19.25 77.65 -13.2 80.1 Q-3.3 82.35 6.2 81.25 11.7 80.05 17.1 77.0 L22.0 74.15 23.95 75.75 26.9 73.95 30.65 73.0 M64.0 29.75 L63.5 30.0 57.1 34.95 58.75 31.75 60.15 26.2 64.0 29.75 M-57.95 17.25 L-61.75 23.9 -61.05 28.25 -64.5 26.25 -64.75 26.0 -64.25 22.0 -57.95 17.25 M-31.25 77.0 L-34.65 73.4 Q-33.45 75.2 -32.5 77.15 L-31.15 77.05 -31.25 77.0 M-20.45 -3.25 Q-18.45 20.5 1.45 19.9 17.4 18.95 19.65 -3.4 19.65 48.5 0.55 49.85 -20.1 51.75 -20.45 -3.25" fill="#000000" fill-opacity="0.49803922" fill-rule="evenodd" stroke="none"/>
  </g>
</svg>
