<?xml version="1.0" encoding="UTF-8" standalone="no"?>
<svg xmlns:ffdec="https://www.free-decompiler.com/flash" xmlns:xlink="http://www.w3.org/1999/xlink" ffdec:objectType="shape" height="126.55px" width="141.9px" xmlns="http://www.w3.org/2000/svg">
  <g transform="matrix(1.0, 0.0, 0.0, 1.0, 73.25, 27.55)">
    <path d="M5.75 -20.5 L5.25 -20.25 4.5 -20.0 4.0 -19.75 3.75 -19.5 Q1.75 -19.25 3.75 -15.75 L7.0 -15.75 Q8.75 -17.5 8.25 -19.5 L7.0 -20.0 6.75 -20.0 5.75 -20.5 M-12.75 -16.25 L-15.25 -20.25 -15.25 -25.0 -10.25 -27.0 -1.5 -26.75 -0.25 -26.25 0.0 -26.5 0.75 -26.75 6.75 -27.5 Q13.75 -26.5 14.25 -25.0 L14.25 -20.5 12.0 -16.75 Q9.5 -12.0 -0.25 -15.5 L-7.25 -13.75 Q-13.0 -14.5 -12.75 -16.25 M17.5 6.5 L22.0 16.75 23.75 23.5 29.75 34.75 Q32.75 39.5 38.75 43.75 L41.0 47.75 40.0 48.75 39.0 49.5 38.5 50.0 37.5 50.75 37.0 51.25 36.0 52.0 35.5 52.5 34.5 53.25 34.0 53.75 33.75 53.75 33.25 54.0 33.0 54.5 32.5 54.75 32.0 55.25 30.5 56.25 29.25 57.5 27.0 59.5 Q26.3 59.3 26.25 60.0 L17.25 68.75 13.75 74.25 21.0 74.25 20.75 82.75 19.75 83.25 Q4.5 91.75 -21.75 81.75 L-22.25 70.0 Q-23.5 64.0 -26.0 61.5 L-18.0 60.25 -22.0 55.0 -34.5 46.0 -26.0 29.5 -22.25 17.5 -17.75 8.25 -17.5 8.25 Q-8.25 24.0 1.0 20.25 L2.5 20.25 3.25 20.0 Q14.0 18.25 17.5 6.5 M-3.5 -19.0 L-4.75 -19.75 -6.75 -20.5 -8.0 -20.0 -9.0 -18.75 -9.5 -17.5 -7.75 -15.75 -4.5 -15.75 -3.5 -17.25 -3.5 -19.0" fill="#ffffff" fill-rule="evenodd" stroke="none"/>
    <path d="M5.75 -20.5 L6.75 -20.0 7.0 -20.0 8.25 -19.5 Q8.75 -17.5 7.0 -15.75 L3.75 -15.75 Q1.75 -19.25 3.75 -19.5 L4.0 -19.75 4.5 -20.0 5.25 -20.25 5.75 -20.5 M-3.5 -19.0 L-3.5 -17.25 -4.5 -15.75 -7.75 -15.75 -9.5 -17.5 -9.0 -18.75 -8.0 -20.0 -6.75 -20.5 -4.75 -19.75 -3.5 -19.0" fill="#000000" fill-rule="evenodd" stroke="none"/>
    <path d="M12.0 -16.75 L15.5 -14.5 18.5 -10.25 19.25 -2.5 17.5 6.5 Q14.0 18.25 3.25 20.0 L2.5 20.25 1.0 20.25 Q-8.25 24.0 -17.5 8.25 L-17.75 8.25 Q-24.75 -12.0 -12.75 -16.25 -13.0 -14.5 -7.25 -13.75 L-0.25 -15.5 Q9.5 -12.0 12.0 -16.75 M32.0 55.25 L31.0 56.25 30.5 56.25 30.5 56.5 29.25 57.5 30.5 56.25 32.0 55.25 M21.0 74.25 L37.0 70.75 60.5 62.75 68.25 59.0 62.5 67.0 46.75 84.75 38.75 92.5 30.25 98.0 28.0 99.0 26.75 98.75 22.0 93.5 19.75 88.0 19.75 83.25 20.75 82.75 21.0 74.25 M-21.75 81.75 L-23.0 87.75 -25.25 93.25 -31.0 98.25 -45.25 88.5 -50.25 82.25 -51.0 81.5 -51.25 81.0 -52.5 79.75 -53.25 78.75 -58.5 73.0 -71.0 56.25 -71.0 56.0 -71.75 55.25 -73.25 53.0 -65.25 55.5 -41.75 60.0 -26.0 61.5 Q-23.5 64.0 -22.25 70.0 L-21.75 81.75" fill="#e58508" fill-rule="evenodd" stroke="none"/>
    <path d="M-65.55 26.05 L-66.0 25.9 -66.0 25.85 -65.55 26.05 M-64.4 26.55 L-64.7 26.4 -64.25 22.75 -58.55 18.35 -61.75 23.9 -61.0 28.85 -64.4 26.55 M31.35 71.85 L32.0 70.95 54.2 64.85 Q62.05 62.25 68.65 59.2 63.85 66.5 54.0 77.25 45.9 86.1 38.85 91.95 31.25 98.25 28.0 98.25 25.8 98.25 22.75 94.75 19.75 91.3 19.75 89.0 L19.9 85.75 19.45 83.65 18.5 84.0 15.05 84.7 Q10.4 86.55 4.5 86.75 L1.75 87.25 -10.75 85.75 -17.25 84.0 -21.65 81.8 -22.65 81.45 Q-23.0 86.6 -24.25 89.75 -24.7 91.0 -27.05 94.05 -29.9 97.75 -31.5 97.75 -38.85 97.75 -56.95 73.75 L-62.4 68.5 Q-67.75 61.3 -67.75 57.1 -67.75 55.75 -67.15 55.0 -61.3 56.6 -54.3 57.45 L-53.5 57.85 -53.5 57.75 -53.25 57.75 -43.25 59.75 -40.9 60.0 Q-36.35 67.8 -28.45 73.3 L-27.6 73.9 -26.65 73.0 -26.15 73.0 -19.25 77.65 -13.2 80.1 Q-3.3 82.35 6.2 81.25 11.7 80.05 17.1 77.0 L22.0 74.15 23.95 75.75 29.2 72.35 31.35 71.85 M58.75 31.75 L60.3 25.6 64.25 29.25 63.5 29.75 63.0 30.25 62.25 30.5 62.0 31.0 61.75 31.0 61.25 31.5 57.25 34.7 58.75 31.75 M-31.25 77.0 L-34.65 73.4 Q-33.45 75.2 -32.5 77.15 L-31.15 77.05 -31.25 77.0 M-20.45 -3.25 Q-18.45 20.5 1.45 19.9 17.4 18.95 19.65 -3.4 19.65 48.5 0.55 49.85 -20.1 51.75 -20.45 -3.25" fill="#000000" fill-opacity="0.49803922" fill-rule="evenodd" stroke="none"/>
  </g>
</svg>
