<?xml version="1.0" encoding="UTF-8" standalone="no"?>
<svg xmlns:ffdec="https://www.free-decompiler.com/flash" xmlns:xlink="http://www.w3.org/1999/xlink" ffdec:objectType="shape" height="126.55px" width="141.2px" xmlns="http://www.w3.org/2000/svg">
  <g transform="matrix(1.0, 0.0, 0.0, 1.0, 72.0, 27.55)">
    <path d="M5.75 -20.5 L5.25 -20.25 4.5 -20.0 4.0 -19.75 3.75 -19.5 Q1.75 -19.25 3.75 -15.75 L7.0 -15.75 Q8.75 -17.5 8.25 -19.5 L7.0 -20.0 6.75 -20.0 5.75 -20.5 M-12.75 -16.25 L-15.25 -20.25 -15.25 -25.0 -10.25 -27.0 -1.5 -26.75 -0.25 -26.25 0.0 -26.5 0.75 -26.75 6.75 -27.5 Q13.75 -26.5 14.25 -25.0 L14.25 -20.5 12.0 -16.75 Q9.5 -12.0 -0.25 -15.5 L-7.25 -13.75 Q-13.0 -14.5 -12.75 -16.25 M17.5 6.5 L22.0 16.75 23.75 23.5 29.75 34.75 Q32.75 39.5 38.75 43.75 L40.5 46.75 23.0 61.0 18.5 65.5 14.75 71.25 21.75 71.5 20.75 82.75 19.75 83.25 Q4.5 91.75 -21.75 81.75 L-22.25 70.0 -24.0 64.75 -23.0 64.75 -15.5 64.0 -19.25 58.5 -35.25 46.75 -34.25 46.0 -26.25 30.25 -22.25 17.5 -17.75 8.25 -17.5 8.25 Q-8.25 24.0 1.0 20.25 L2.5 20.25 3.25 20.0 Q14.0 18.25 17.5 6.5 M-3.5 -19.0 L-4.75 -19.75 -6.75 -20.5 -8.0 -20.0 -9.0 -18.75 -9.5 -17.5 -7.75 -15.75 -4.5 -15.75 -3.5 -17.25 -3.5 -19.0" fill="#ffffff" fill-rule="evenodd" stroke="none"/>
    <path d="M5.75 -20.5 L6.75 -20.0 7.0 -20.0 8.25 -19.5 Q8.75 -17.5 7.0 -15.75 L3.75 -15.75 Q1.75 -19.25 3.75 -19.5 L4.0 -19.75 4.5 -20.0 5.25 -20.25 5.75 -20.5 M-3.5 -19.0 L-3.5 -17.25 -4.5 -15.75 -7.75 -15.75 -9.5 -17.5 -9.0 -18.75 -8.0 -20.0 -6.75 -20.5 -4.75 -19.75 -3.5 -19.0" fill="#000000" fill-rule="evenodd" stroke="none"/>
    <path d="M12.0 -16.75 L15.5 -14.5 18.5 -10.25 19.25 -2.5 17.5 6.5 Q14.0 18.25 3.25 20.0 L2.5 20.25 1.0 20.25 Q-8.25 24.0 -17.5 8.25 L-17.75 8.25 Q-24.75 -12.0 -12.75 -16.25 -13.0 -14.5 -7.25 -13.75 L-0.25 -15.5 Q9.5 -12.0 12.0 -16.75 M21.75 71.5 L36.25 68.75 59.5 62.0 69.0 58.0 64.25 64.75 47.25 84.25 38.25 92.75 30.75 97.75 27.0 99.0 22.5 94.25 20.0 89.25 19.75 83.25 20.75 82.75 21.75 71.5 M-21.75 81.75 L-23.0 87.75 -25.25 93.25 -31.0 98.25 -45.25 88.5 -50.25 82.25 -51.0 81.5 -51.25 81.0 -52.5 79.75 -53.25 78.75 -58.5 73.0 -71.0 56.25 -71.0 56.0 -71.75 55.25 -72.0 54.75 -59.75 58.5 -47.5 61.0 -24.0 64.75 -22.25 70.0 -21.75 81.75" fill="#e58508" fill-rule="evenodd" stroke="none"/>
    <path d="M33.55 69.05 L34.1 68.5 49.5 64.25 Q54.45 62.75 64.05 60.3 L69.2 58.35 Q64.4 65.85 54.0 77.25 45.9 86.1 38.85 91.95 31.25 98.25 28.0 98.25 25.8 98.25 22.75 94.75 19.75 91.3 19.75 89.0 L19.9 85.75 19.4 83.5 Q11.75 86.45 3.5 87.25 L-2.5 86.45 -5.8 86.0 -16.5 84.5 -22.15 81.65 -22.65 81.45 Q-23.0 86.6 -24.25 89.75 -24.7 91.0 -27.05 94.05 -29.9 97.75 -31.5 97.75 -38.85 97.75 -56.95 73.75 L-62.4 68.5 Q-67.75 61.3 -67.75 57.1 L-67.65 56.15 Q-61.65 58.25 -54.2 59.8 L-44.6 61.5 -39.35 62.45 Q-35.1 68.7 -28.45 73.3 L-27.6 73.9 -26.65 73.0 -26.15 73.0 -19.25 77.65 -13.2 80.1 Q-3.3 82.35 6.2 81.25 11.7 80.05 17.1 77.0 L22.0 74.15 23.95 75.75 Q29.0 72.9 33.15 69.15 L33.55 69.05 M57.9 33.4 L58.75 31.75 60.6 24.3 63.5 26.75 63.5 29.0 63.25 29.5 62.5 30.0 62.0 30.25 57.9 33.4 M-60.25 21.35 L-61.75 23.9 -60.9 29.4 -60.8 29.75 -64.5 27.25 -64.25 24.5 -60.25 21.35 M-20.45 -3.25 Q-18.45 20.5 1.45 19.9 17.4 18.95 19.65 -3.4 19.65 48.5 0.55 49.85 -20.1 51.75 -20.45 -3.25 M-32.5 77.15 L-31.15 77.05 -31.25 77.0 -34.65 73.4 Q-33.45 75.2 -32.5 77.15" fill="#000000" fill-opacity="0.49803922" fill-rule="evenodd" stroke="none"/>
  </g>
</svg>
