<?xml version="1.0" encoding="UTF-8" standalone="no"?>
<svg xmlns:ffdec="https://www.free-decompiler.com/flash" xmlns:xlink="http://www.w3.org/1999/xlink" ffdec:objectType="shape" height="126.55px" width="141.4px" xmlns="http://www.w3.org/2000/svg">
  <g transform="matrix(1.0, 0.0, 0.0, 1.0, 69.5, 27.55)">
    <path d="M6.75 -20.0 L5.75 -20.5 5.25 -20.25 4.5 -20.0 4.0 -19.75 3.75 -19.5 Q1.75 -19.25 3.75 -15.75 L7.0 -15.75 Q8.75 -17.5 8.25 -19.5 L7.0 -20.0 6.75 -20.0 M-12.75 -16.25 L-15.25 -20.25 -15.25 -25.0 -10.25 -27.0 -1.5 -26.75 -0.25 -26.25 0.0 -26.5 0.75 -26.75 6.75 -27.5 Q13.75 -26.5 14.25 -25.0 L14.25 -20.5 12.0 -16.75 Q9.5 -12.0 -0.25 -15.5 L-7.25 -13.75 Q-13.0 -14.5 -12.75 -16.25 M17.5 6.5 Q30.5 42.5 38.0 43.5 L21.25 55.75 17.5 61.0 25.0 62.0 22.25 68.0 Q21.75 82.0 19.75 83.25 4.5 91.75 -21.75 81.75 L-22.25 72.5 -21.0 72.75 -13.75 72.5 -17.25 67.0 -37.25 50.0 -34.25 46.0 -29.75 36.5 -28.75 35.75 -25.0 26.75 -22.25 17.5 -17.75 8.25 -17.5 8.25 Q-8.25 24.0 1.0 20.25 L2.5 20.25 3.25 20.0 Q14.0 18.25 17.5 6.5 M-3.5 -19.0 L-4.75 -19.75 -6.75 -20.5 -8.0 -20.0 -9.0 -18.75 -9.5 -17.5 -7.75 -15.75 -4.5 -15.75 -3.5 -17.25 -3.5 -19.0" fill="#ffffff" fill-rule="evenodd" stroke="none"/>
    <path d="M6.75 -20.0 L7.0 -20.0 8.25 -19.5 Q8.75 -17.5 7.0 -15.75 L3.75 -15.75 Q1.75 -19.25 3.75 -19.5 L4.0 -19.75 4.5 -20.0 5.25 -20.25 5.75 -20.5 6.75 -20.0 M-3.5 -19.0 L-3.5 -17.25 -4.5 -15.75 -7.75 -15.75 -9.5 -17.5 -9.0 -18.75 -8.0 -20.0 -6.75 -20.5 -4.75 -19.75 -3.5 -19.0" fill="#000000" fill-rule="evenodd" stroke="none"/>
    <path d="M12.0 -16.75 L15.5 -14.5 18.5 -10.25 19.25 -2.5 17.5 6.5 Q14.0 18.25 3.25 20.0 L2.5 20.25 1.0 20.25 Q-8.25 24.0 -17.5 8.25 L-17.75 8.25 Q-24.75 -12.0 -12.75 -16.25 -13.0 -14.5 -7.25 -13.75 L-0.25 -15.5 Q9.5 -12.0 12.0 -16.75 M25.0 62.0 L42.25 60.25 65.0 55.75 71.75 53.5 66.25 62.25 52.75 78.25 40.0 91.5 31.25 97.5 27.0 99.0 22.5 94.25 20.0 89.25 19.75 83.25 Q21.75 82.0 22.25 68.0 L25.0 62.0 M-21.75 81.75 L-23.0 87.75 -25.25 93.25 -31.0 98.25 -45.25 88.5 -50.25 82.25 -51.0 81.5 -51.25 81.0 -52.5 79.75 -53.25 78.75 -61.0 70.0 -69.5 58.25 -69.0 58.5 -58.5 62.75 -43.75 67.25 -22.25 72.5 -21.75 81.75" fill="#e58508" fill-rule="evenodd" stroke="none"/>
    <path d="M63.4 17.9 L63.7 18.9 57.5 13.75 63.4 17.9 M60.85 23.25 L58.55 19.35 63.25 22.75 63.5 26.75 59.3 29.5 60.85 23.25 M6.2 81.25 Q11.7 80.05 17.1 77.0 L22.0 74.15 23.95 75.75 Q34.25 70.0 40.7 60.3 L43.5 60.0 44.5 59.8 55.4 57.9 Q64.15 56.1 71.9 53.5 68.15 61.7 54.0 77.25 45.9 86.1 38.85 91.95 31.25 98.25 28.0 98.25 25.8 98.25 22.75 94.75 19.75 91.3 19.75 89.0 L19.9 85.75 19.4 83.6 Q11.9 86.45 3.75 87.25 L-1.55 86.55 -6.8 85.8 -16.25 84.5 -22.65 81.9 Q-23.05 86.75 -24.25 89.75 -24.7 91.0 -27.05 94.05 -29.9 97.75 -31.5 97.75 -38.85 97.75 -56.95 73.75 L-62.4 68.5 Q-66.85 62.5 -67.6 58.65 -53.9 64.6 -49.1 66.1 -43.7 67.8 -38.25 68.8 L-38.0 69.05 -32.3 70.3 -28.45 73.3 -27.6 73.9 -26.65 73.0 -26.15 73.0 -19.25 77.65 -13.2 80.1 Q-3.3 82.35 6.2 81.25 M-63.25 30.5 L-63.75 30.0 -64.5 29.5 -64.75 29.5 -65.25 29.25 -61.45 25.8 -60.9 29.4 -59.5 33.2 -62.75 30.75 -63.25 30.5 M-20.45 -3.25 Q-18.45 20.5 1.45 19.9 17.4 18.95 19.65 -3.4 19.65 48.5 0.55 49.85 -20.1 51.75 -20.45 -3.25 M-32.5 77.15 L-31.15 77.05 -33.55 75.15 -32.5 77.15" fill="#000000" fill-opacity="0.49803922" fill-rule="evenodd" stroke="none"/>
  </g>
</svg>
