<?xml version="1.0" encoding="UTF-8" standalone="no"?>
<svg xmlns:ffdec="https://www.free-decompiler.com/flash" xmlns:xlink="http://www.w3.org/1999/xlink" ffdec:objectType="shape" height="126.55px" width="139.95px" xmlns="http://www.w3.org/2000/svg">
  <g transform="matrix(1.0, 0.0, 0.0, 1.0, 67.5, 27.55)">
    <path d="M6.75 -20.0 L5.75 -20.5 5.25 -20.25 4.5 -20.0 4.0 -19.75 3.75 -19.5 Q1.75 -19.25 3.75 -15.75 L7.0 -15.75 Q8.75 -17.5 8.25 -19.5 L7.0 -20.0 6.75 -20.0 M-12.75 -16.25 L-15.25 -20.25 -15.25 -25.0 -10.25 -27.0 -1.5 -26.75 -0.25 -26.25 0.0 -26.5 0.75 -26.75 6.75 -27.5 Q13.75 -26.5 14.25 -25.0 L14.25 -20.5 12.0 -16.75 Q9.5 -12.0 -0.25 -15.5 L-7.25 -13.75 Q-13.0 -14.5 -12.75 -16.25 M17.5 6.5 L22.0 16.75 23.75 23.5 30.0 35.25 37.25 42.75 22.0 53.25 18.0 58.5 25.75 59.5 26.75 59.5 22.25 67.5 Q21.75 81.75 19.75 83.25 4.5 91.75 -21.75 81.75 L-22.25 81.25 -21.75 78.0 -16.25 78.0 -19.75 72.75 -22.75 69.25 Q-23.0 64.75 -26.25 60.75 L-38.0 51.5 -28.75 35.75 -25.0 26.75 -22.25 17.5 -17.75 8.25 -17.5 8.25 Q-8.25 24.0 1.0 20.25 L2.5 20.25 3.25 20.0 Q14.0 18.25 17.5 6.5 M-3.5 -19.0 L-4.75 -19.75 -6.75 -20.5 -8.0 -20.0 -9.0 -18.75 -9.5 -17.5 -7.75 -15.75 -4.5 -15.75 -3.5 -17.25 -3.5 -19.0" fill="#ffffff" fill-rule="evenodd" stroke="none"/>
    <path d="M6.75 -20.0 L7.0 -20.0 8.25 -19.5 Q8.75 -17.5 7.0 -15.75 L3.75 -15.75 Q1.75 -19.25 3.75 -19.5 L4.0 -19.75 4.5 -20.0 5.25 -20.25 5.75 -20.5 6.75 -20.0 M-3.5 -19.0 L-3.5 -17.25 -4.5 -15.75 -7.75 -15.75 -9.5 -17.5 -9.0 -18.75 -8.0 -20.0 -6.75 -20.5 -4.75 -19.75 -3.5 -19.0" fill="#000000" fill-rule="evenodd" stroke="none"/>
    <path d="M12.0 -16.75 L15.5 -14.5 18.5 -10.25 19.25 -2.5 17.5 6.5 Q14.0 18.25 3.25 20.0 L2.5 20.25 1.0 20.25 Q-8.25 24.0 -17.5 8.25 L-17.75 8.25 Q-24.75 -12.0 -12.75 -16.25 -13.0 -14.5 -7.25 -13.75 L-0.25 -15.5 Q9.5 -12.0 12.0 -16.75 M26.75 59.5 L41.25 58.5 65.75 54.25 72.25 52.25 66.75 61.5 53.0 78.0 40.0 91.5 32.5 96.75 27.5 99.0 26.25 98.25 21.0 92.0 Q19.0 88.25 19.75 83.25 21.75 81.75 22.25 67.5 L26.75 59.5 M-21.75 81.75 L-23.0 87.75 -25.25 93.25 -31.0 98.25 -45.25 88.5 -50.25 82.25 -51.0 81.5 -51.25 81.0 -52.5 79.75 -67.5 61.25 -60.75 64.75 -60.5 65.0 -60.0 65.0 -59.75 65.25 -59.25 65.25 -58.75 65.5 -50.0 69.0 -49.75 69.25 -49.5 69.25 -41.5 72.25 -23.5 78.0 -21.75 78.0 -22.25 81.25 -21.75 81.75 M-22.75 69.25 L-46.75 46.5 -38.0 51.5 -26.25 60.75 Q-23.0 64.75 -22.75 69.25" fill="#e58508" fill-rule="evenodd" stroke="none"/>
    <path d="M57.85 18.15 L63.25 22.0 63.5 26.0 59.55 28.55 60.85 23.25 57.85 18.15 M-20.45 -3.25 Q-18.45 20.5 1.45 19.9 17.4 18.95 19.65 -3.4 19.65 48.5 0.55 49.85 -20.1 51.75 -20.45 -3.25 M-58.05 36.55 L-64.25 31.0 -65.75 30.5 -61.35 26.35 -60.9 29.4 -58.95 34.5 -58.05 36.55 M28.75 78.95 L28.5 79.1 28.75 79.0 28.75 78.95 M6.2 81.25 Q11.7 80.05 17.1 77.0 L22.0 74.15 23.95 75.75 Q34.25 70.0 40.7 60.3 L42.1 58.15 48.35 57.25 48.8 56.95 54.55 56.0 Q63.8 54.4 72.45 52.2 69.3 60.45 54.0 77.25 45.9 86.1 38.85 91.95 31.25 98.25 28.0 98.25 25.8 98.25 22.75 94.75 19.75 91.3 19.75 89.0 L19.9 85.75 19.4 83.55 Q12.05 86.3 3.5 87.25 L-2.5 86.45 -5.8 86.0 -16.5 84.5 -22.65 81.75 Q-23.05 86.7 -24.25 89.75 -24.7 91.0 -27.05 94.05 -29.9 97.75 -31.5 97.75 -38.85 97.75 -56.95 73.75 L-62.4 68.5 Q-65.25 64.7 -66.55 61.75 -57.75 65.9 -49.1 69.35 -40.45 72.85 -33.7 74.9 L-32.5 77.15 -31.15 77.05 Q-32.6 75.95 -32.75 75.25 L-30.0 76.1 -29.85 75.95 Q-23.4 77.65 -19.05 77.75 L-13.2 80.1 Q-3.3 82.35 6.2 81.25" fill="#000000" fill-opacity="0.49803922" fill-rule="evenodd" stroke="none"/>
  </g>
</svg>
