<?xml version="1.0" encoding="UTF-8" standalone="no"?>
<svg xmlns:ffdec="https://www.free-decompiler.com/flash" xmlns:xlink="http://www.w3.org/1999/xlink" ffdec:objectType="shape" height="156.75px" width="190.5px" xmlns="http://www.w3.org/2000/svg">
  <g transform="matrix(1.0, 0.0, 0.0, 1.0, 95.5, 73.25)">
    <path d="M43.25 -33.5 Q45.0 -34.0 54.5 -25.5 L69.0 -10.25 69.75 -9.25 70.25 -8.75 71.0 -7.75 71.5 -7.25 72.25 -6.25 73.0 -5.5 73.25 -5.0 74.25 -4.0 74.5 -3.5 75.75 -2.0 78.0 -1.0 Q83.5 5.0 84.0 7.75 L88.75 19.75 92.25 31.25 95.0 42.25 94.75 45.5 94.25 46.75 93.25 46.75 91.25 46.25 86.75 41.0 81.25 33.5 71.25 17.25 63.25 11.75 Q69.5 41.75 47.5 58.75 L41.5 62.75 31.25 73.75 Q19.0 82.25 3.75 83.5 L-13.0 81.75 -31.5 73.5 -40.0 64.5 -42.5 63.5 -49.0 58.75 Q-70.25 43.5 -64.5 11.75 L-72.5 17.25 -74.0 19.75 Q-89.5 46.0 -94.25 46.5 L-95.0 46.75 -95.5 46.0 Q-90.25 9.25 -77.25 -1.75 L-58.5 -22.75 -49.5 -30.5 -44.0 -33.5 Q-21.0 -67.5 -2.25 -72.75 9.75 -77.75 43.25 -33.5" fill="#2e47aa" fill-rule="evenodd" stroke="none"/>
  </g>
</svg>
