<?xml version="1.0" encoding="UTF-8" standalone="no"?>
<svg xmlns:ffdec="https://www.free-decompiler.com/flash" xmlns:xlink="http://www.w3.org/1999/xlink" ffdec:objectType="shape" height="156.8px" width="197.75px" xmlns="http://www.w3.org/2000/svg">
  <g transform="matrix(1.0, 0.0, 0.0, 1.0, 98.5, 73.3)">
    <path d="M55.75 -23.5 L67.25 -11.5 77.5 1.0 78.25 0.75 81.0 3.25 85.75 8.75 92.0 23.5 97.0 38.25 99.25 48.75 99.25 49.25 99.0 50.0 99.0 50.25 98.75 52.0 95.25 51.25 91.0 46.5 90.75 46.0 82.5 36.5 77.25 29.5 71.75 20.25 63.75 14.5 63.5 14.5 Q68.75 42.75 47.75 59.0 L42.75 62.75 41.0 63.25 31.75 73.5 Q16.25 83.0 3.75 83.5 L-4.5 82.75 Q-34.75 76.5 -40.25 64.0 L-49.0 58.75 Q-71.0 42.25 -64.0 8.5 L-69.75 12.0 -70.0 12.25 -70.5 12.5 -72.0 13.5 -72.5 13.75 -73.25 14.25 -77.75 22.25 -89.75 39.25 -95.0 45.5 -98.0 46.0 -98.5 45.0 Q-89.0 0.5 -77.5 -4.25 L-68.25 -14.75 -59.75 -23.0 -47.75 -32.5 -47.5 -32.75 -44.0 -34.25 Q-18.0 -70.5 -3.0 -72.75 9.5 -78.0 43.25 -32.5 L47.25 -30.75 55.75 -23.5" fill="#2e47aa" fill-rule="evenodd" stroke="none"/>
  </g>
</svg>
