<?xml version="1.0" encoding="UTF-8" standalone="no"?>
<svg xmlns:ffdec="https://www.free-decompiler.com/flash" xmlns:xlink="http://www.w3.org/1999/xlink" ffdec:objectType="shape" height="156.75px" width="212.75px" xmlns="http://www.w3.org/2000/svg">
  <g transform="matrix(1.0, 0.0, 0.0, 1.0, 105.5, 73.0)">
    <path d="M48.25 -27.25 L54.75 -21.25 65.0 -9.75 65.75 -8.75 66.75 -7.75 67.0 -7.25 68.25 -6.0 68.5 -5.5 69.75 -4.25 69.75 -4.0 75.25 3.0 75.25 3.25 75.75 3.75 76.0 4.25 80.25 9.75 Q93.25 10.0 107.25 65.25 L107.0 69.25 104.0 68.25 91.25 55.75 90.75 55.0 78.5 40.75 71.25 30.0 70.75 28.0 64.25 23.0 Q67.75 41.75 48.0 59.5 L42.5 63.5 39.0 65.0 29.5 74.75 Q13.25 83.5 3.75 83.25 L-0.5 83.75 -14.25 81.5 -20.0 79.75 -33.75 72.25 -42.0 62.25 -43.75 61.75 -48.5 58.0 Q-73.0 40.0 -62.5 0.5 L-76.0 7.75 -89.0 27.0 -97.0 37.25 -102.5 42.75 -103.0 43.0 -103.5 43.0 -105.5 43.75 -105.5 41.75 Q-90.25 -9.0 -79.5 -10.0 L-78.25 -10.75 -61.75 -25.5 -56.75 -29.5 -46.0 -36.0 -44.5 -36.5 -43.5 -37.0 Q-21.25 -69.5 -3.0 -73.0 12.0 -73.75 44.0 -29.75 L48.25 -27.25" fill="#2e47aa" fill-rule="evenodd" stroke="none"/>
  </g>
</svg>
