<?xml version="1.0" encoding="UTF-8" standalone="no"?>
<svg xmlns:ffdec="https://www.free-decompiler.com/flash" xmlns:xlink="http://www.w3.org/1999/xlink" ffdec:objectType="shape" height="171.5px" width="219.75px" xmlns="http://www.w3.org/2000/svg">
  <g transform="matrix(1.0, 0.0, 0.0, 1.0, 113.75, 73.25)">
    <path d="M48.5 -22.25 L58.75 -10.75 69.25 3.75 75.75 14.75 76.0 15.25 76.5 16.0 80.0 22.25 80.25 22.5 80.25 23.0 80.5 23.0 87.0 26.25 88.0 27.75 88.25 28.25 89.25 29.75 Q102.75 50.75 106.0 92.25 L104.75 98.25 100.25 95.25 92.0 84.75 74.0 57.75 65.75 41.75 65.25 40.0 65.5 38.75 63.25 36.75 63.0 36.75 61.5 44.25 58.25 49.0 56.5 52.75 48.75 60.5 40.5 65.75 36.25 67.25 27.25 75.75 12.0 81.75 -2.75 83.75 -17.75 80.5 -24.5 77.75 -36.5 70.5 -44.25 59.75 -48.25 57.25 Q-75.25 37.0 -60.5 -9.5 L-78.25 -2.75 -83.5 5.25 -103.5 30.0 -110.25 36.75 -113.75 38.0 -113.75 34.75 Q-92.25 -19.75 -79.75 -19.25 L-62.75 -31.0 -56.5 -34.75 -47.75 -39.0 -43.5 -40.25 Q-23.75 -69.75 -5.0 -73.25 13.75 -71.0 45.5 -24.25 L48.5 -22.25" fill="#2e47aa" fill-rule="evenodd" stroke="none"/>
  </g>
</svg>
