<?xml version="1.0" encoding="UTF-8" standalone="no"?>
<svg xmlns:ffdec="https://www.free-decompiler.com/flash" xmlns:xlink="http://www.w3.org/1999/xlink" ffdec:objectType="shape" height="202.0px" width="205.0px" xmlns="http://www.w3.org/2000/svg">
  <g transform="matrix(1.0, 0.0, 0.0, 1.0, 119.5, 73.75)">
    <path d="M54.75 -4.5 L67.75 20.75 68.0 21.5 68.25 21.5 68.25 22.0 68.5 22.5 68.75 23.25 69.0 23.5 69.0 23.75 73.5 33.25 74.75 38.25 74.75 40.25 76.5 40.25 81.25 45.25 81.5 45.75 85.0 57.25 85.5 83.25 82.75 105.0 79.25 122.0 76.25 128.25 72.0 122.75 60.5 86.5 55.0 65.0 54.25 56.5 46.25 63.5 38.5 67.75 32.5 69.75 23.5 77.0 7.75 82.25 -4.75 83.25 -6.75 83.25 -26.0 77.75 -39.0 68.75 -46.25 57.0 -46.5 57.0 -47.5 56.25 Q-76.5 34.75 -58.75 -19.25 L-78.5 -15.25 -85.25 -5.75 -108.25 20.75 -115.75 27.75 -119.5 29.25 -119.0 25.0 -116.0 18.0 -104.25 -3.75 -93.75 -20.5 -85.75 -29.0 Q-80.5 -32.25 -79.25 -30.25 L-72.5 -34.0 -60.75 -39.0 -43.25 -44.25 Q-19.25 -78.5 -4.25 -73.0 18.0 -65.0 54.25 -5.25 L54.25 -5.0 54.75 -4.5" fill="#2e47aa" fill-rule="evenodd" stroke="none"/>
  </g>
</svg>
