<?xml version="1.0" encoding="UTF-8" standalone="no"?>
<svg xmlns:ffdec="https://www.free-decompiler.com/flash" xmlns:xlink="http://www.w3.org/1999/xlink" ffdec:objectType="shape" height="214.6px" width="185.0px" xmlns="http://www.w3.org/2000/svg">
  <g transform="matrix(1.0, 0.0, 0.0, 1.0, 120.0, 75.1)">
    <path d="M-84.25 -40.75 Q-78.5 -45.0 -77.25 -41.5 L-69.0 -44.25 -56.5 -47.0 -43.75 -48.5 -33.25 -62.25 Q-26.75 -70.0 -17.5 -74.0 -9.75 -78.5 6.0 -64.5 73.25 4.5 61.0 45.25 L61.25 45.5 61.25 46.25 61.75 48.25 62.0 48.75 61.5 56.0 63.5 58.25 64.5 63.5 65.0 64.25 Q56.5 103.0 28.75 134.75 L22.5 139.5 21.75 132.5 26.25 101.5 28.0 92.25 28.0 91.75 28.25 91.0 32.0 72.25 32.25 71.5 32.25 70.75 28.5 71.75 19.25 78.0 3.75 82.25 -4.5 82.5 Q-33.5 82.5 -47.5 56.25 L-48.25 54.0 -48.75 53.5 Q-59.25 48.0 -64.75 23.25 -70.0 8.75 -56.5 -27.75 L-76.5 -27.5 -82.5 -19.25 -94.0 -6.5 -95.25 -4.25 -98.0 -2.0 -109.25 11.0 -115.75 17.0 -120.0 19.0 -119.0 14.0 -113.0 1.25 -92.75 -31.75 -84.25 -40.75" fill="#2e47aa" fill-rule="evenodd" stroke="none"/>
  </g>
</svg>
