<?xml version="1.0" encoding="UTF-8" standalone="no"?>
<svg xmlns:ffdec="https://www.free-decompiler.com/flash" xmlns:xlink="http://www.w3.org/1999/xlink" ffdec:objectType="shape" height="202.45px" width="177.7px" xmlns="http://www.w3.org/2000/svg">
  <g transform="matrix(1.0, 0.0, 0.0, 1.0, 115.75, 76.45)">
    <path d="M43.5 -16.5 L53.25 2.25 59.0 16.25 Q68.0 48.5 49.75 62.5 L42.5 67.0 42.25 68.25 Q43.25 69.25 41.0 76.75 L29.75 89.0 19.75 97.25 19.0 98.0 18.25 98.5 17.0 99.75 16.75 99.75 15.75 101.25 15.0 101.25 13.25 103.25 7.5 106.75 7.25 106.75 0.75 111.0 0.5 111.25 -5.25 115.0 -22.75 124.25 -29.5 126.0 -27.25 119.5 -12.5 98.25 -12.0 97.75 -7.5 91.5 -7.25 91.0 -0.25 82.0 -13.5 82.0 -33.25 74.25 -43.25 65.25 -45.5 62.0 -50.75 50.5 Q-63.5 38.0 -65.25 17.25 -69.25 -5.25 -55.5 -34.75 L-60.25 -35.0 -73.0 -37.75 -90.5 -15.5 -111.25 7.25 -115.75 9.25 -114.75 4.25 -108.75 -9.0 -100.0 -24.75 -88.75 -42.75 -80.25 -51.75 Q-74.75 -55.75 -73.5 -51.75 L-64.25 -53.0 -45.0 -52.75 Q-27.0 -78.5 -16.25 -76.25 -4.0 -72.25 3.0 -64.75 L22.5 -44.0 43.5 -16.5" fill="#2e47aa" fill-rule="evenodd" stroke="none"/>
  </g>
</svg>
