<?xml version="1.0" encoding="UTF-8" standalone="no"?>
<svg xmlns:ffdec="https://www.free-decompiler.com/flash" xmlns:xlink="http://www.w3.org/1999/xlink" ffdec:objectType="shape" height="182.55px" width="170.25px" xmlns="http://www.w3.org/2000/svg">
  <g transform="matrix(1.0, 0.0, 0.0, 1.0, 109.75, 77.8)">
    <path d="M-96.25 -30.25 L-84.25 -50.75 -76.25 -59.5 Q-70.5 -63.5 -69.0 -59.0 L-58.75 -59.0 -46.25 -57.25 Q-32.75 -78.5 -20.5 -77.75 -6.25 -76.0 25.0 -37.75 80.0 28.5 49.75 62.25 40.0 71.0 22.25 73.75 L18.75 80.25 4.5 88.25 -1.75 90.75 -2.25 91.0 -3.0 91.25 -3.5 91.5 -3.75 91.5 -15.5 96.5 -30.0 100.0 -30.25 100.0 -31.0 100.25 -31.25 100.25 -32.0 100.5 -32.25 100.5 -34.25 101.0 -34.75 101.25 -54.5 104.75 -60.75 104.25 -56.75 99.0 -49.5 93.5 -26.0 77.0 -35.75 72.75 -46.0 62.75 -48.5 58.0 -52.75 47.25 -53.25 46.75 -61.0 34.5 -64.25 23.5 -66.0 11.25 Q-66.75 -25.75 -55.75 -39.75 L-62.5 -41.5 -69.75 -44.5 -85.5 -23.25 -105.5 -0.25 -109.75 2.0 -109.25 -2.75 -103.75 -15.75 -96.25 -30.25" fill="#2e47aa" fill-rule="evenodd" stroke="none"/>
  </g>
</svg>
