<?xml version="1.0" encoding="UTF-8" standalone="no"?>
<svg xmlns:ffdec="https://www.free-decompiler.com/flash" xmlns:xlink="http://www.w3.org/1999/xlink" ffdec:objectType="shape" height="173.6px" width="166.05px" xmlns="http://www.w3.org/2000/svg">
  <g transform="matrix(1.0, 0.0, 0.0, 1.0, 106.5, 79.35)">
    <path d="M-94.0 -32.5 L-81.0 -55.0 -79.25 -56.75 -79.0 -57.25 -76.25 -60.25 Q-70.5 -67.75 -67.0 -62.25 L-57.0 -61.5 -49.0 -59.75 Q-36.75 -80.0 -25.5 -79.25 -15.0 -81.25 25.5 -34.25 78.0 29.0 49.5 61.75 40.75 71.5 18.0 74.25 L10.75 78.25 7.25 78.75 6.25 80.0 -4.75 84.75 -29.25 91.5 -49.0 93.75 -67.0 94.25 -72.25 93.0 -67.75 88.25 -55.75 81.75 -55.75 81.5 -37.25 72.0 -37.25 71.75 -46.0 63.0 -48.75 59.0 -49.0 59.0 -51.25 54.5 -54.5 45.0 -54.75 44.75 Q-78.25 8.25 -58.0 -42.75 L-68.25 -47.25 -83.25 -26.5 -102.25 -3.75 -106.5 -1.5 -106.0 -6.0 -103.5 -12.75 -94.0 -32.5" fill="#2e47aa" fill-rule="evenodd" stroke="none"/>
  </g>
</svg>
