<?xml version="1.0" encoding="UTF-8" standalone="no"?>
<svg xmlns:ffdec="https://www.free-decompiler.com/flash" xmlns:xlink="http://www.w3.org/1999/xlink" ffdec:objectType="shape" height="172.95px" width="165.4px" xmlns="http://www.w3.org/2000/svg">
  <g transform="matrix(1.0, 0.0, 0.0, 1.0, 105.75, 79.95)">
    <path d="M-95.0 -29.75 L-80.75 -55.0 -79.25 -56.75 -79.0 -57.0 -78.5 -58.5 -75.5 -61.0 Q-70.25 -68.25 -66.25 -62.75 L-58.5 -62.25 -51.0 -60.75 Q-37.0 -89.75 -17.25 -75.0 29.0 -39.0 53.25 12.5 L54.5 15.5 Q67.0 42.5 49.25 61.25 40.75 71.25 17.0 74.0 L9.75 78.0 3.5 79.25 2.75 79.25 -10.75 85.0 -33.0 90.5 -58.75 93.0 -70.0 92.75 -75.25 91.5 -70.5 86.75 -39.25 70.5 -39.25 70.25 -45.5 64.0 -49.25 59.25 -52.25 53.5 -55.25 44.25 -55.5 44.0 Q-78.75 6.75 -59.25 -43.75 L-68.0 -47.5 -84.5 -25.0 -101.5 -4.75 Q-103.6 -3.6 -105.75 -2.5 L-105.25 -7.25 -95.0 -29.75" fill="#2e47aa" fill-rule="evenodd" stroke="none"/>
  </g>
</svg>
