<?xml version="1.0" encoding="UTF-8" standalone="no"?>
<svg xmlns:ffdec="https://www.free-decompiler.com/flash" xmlns:xlink="http://www.w3.org/1999/xlink" ffdec:objectType="shape" height="172.3px" width="164.6px" xmlns="http://www.w3.org/2000/svg">
  <g transform="matrix(1.0, 0.0, 0.0, 1.0, 105.25, 80.05)">
    <path d="M-85.0 -47.75 L-78.75 -57.0 -78.5 -57.25 -78.25 -58.75 -74.75 -61.5 Q-69.0 -68.75 -65.75 -63.0 L-57.5 -62.5 -51.75 -61.25 Q-38.5 -89.25 -18.5 -75.5 29.5 -37.5 52.5 11.25 L54.0 14.75 54.25 15.5 54.5 16.0 55.75 19.25 Q65.5 43.5 49.0 61.25 39.75 71.75 16.5 74.0 L10.25 77.75 0.75 79.5 0.5 79.5 0.0 79.75 -12.25 84.75 -32.5 89.75 -51.0 91.75 -71.25 92.25 -76.25 91.0 -71.75 86.25 -40.0 69.75 -49.0 60.0 -49.0 59.75 -49.5 59.5 -52.75 53.0 -55.25 44.25 -55.75 43.5 Q-78.25 10.25 -60.0 -44.25 L-67.75 -48.0 -91.0 -17.0 -101.25 -5.25 -105.25 -3.25 -104.75 -7.5 -104.75 -8.75 -94.0 -31.25 -85.0 -47.75" fill="#2e47aa" fill-rule="evenodd" stroke="none"/>
  </g>
</svg>
