<?xml version="1.0" encoding="UTF-8" standalone="no"?>
<svg xmlns:ffdec="https://www.free-decompiler.com/flash" xmlns:xlink="http://www.w3.org/1999/xlink" ffdec:objectType="shape" height="375.0px" width="260.4px" xmlns="http://www.w3.org/2000/svg">
  <g transform="matrix(1.0, 0.0, 0.0, 1.0, 143.45, 149.75)">
    <path d="M-29.5 -149.5 L-28.5 -149.75 -30.0 -145.25 -34.25 -144.5 -29.5 -149.5 M-48.0 -127.75 L-42.75 -136.5 -40.25 -138.25 Q-46.55 -124.05 -40.75 -109.5 L-43.0 -106.75 Q-48.3 -112.45 -48.35 -120.25 -48.4 -124.0 -48.0 -127.75" fill="#ffffff" fill-rule="evenodd" stroke="none"/>
    <path d="M-34.25 -144.5 L-36.25 -143.0 -34.75 -147.5 Q-33.5 -149.5 -29.5 -149.5 L-34.25 -144.5 M-42.75 -136.5 L-48.0 -127.75 -49.0 -130.5 Q-47.5 -135.5 -46.25 -135.5 L-42.75 -136.5" fill="#000000" fill-rule="evenodd" stroke="none"/>
    <path d="M-42.75 -136.5 L-46.25 -135.5 Q-47.5 -135.5 -49.0 -130.5 L-48.0 -127.75 Q-48.4 -124.0 -48.35 -120.25 -48.3 -112.45 -43.0 -106.75 L-53.25 -82.75 -56.75 -76.75 -61.25 -79.5 Q-90.6 -92.75 -81.7 -120.85 -73.3 -147.4 -46.3 -144.0 L-36.75 -142.5 -40.25 -138.25 -42.75 -136.5 M-99.5 79.75 Q-100.65 85.0 -102.25 90.1 -110.0 115.25 -116.75 140.75 L-116.25 141.0 -118.25 159.0 Q-155.1 136.55 -138.05 94.7 -128.15 70.3 -105.0 60.5 L-99.5 79.75" fill="#e58508" fill-rule="evenodd" stroke="none"/>
    <path d="M102.25 -81.5 L105.75 -74.25 Q100.0 -59.5 104.25 -51.75 113.5 -47.25 114.75 -61.75 116.25 -37.75 105.5 -27.75 L109.25 -12.0 Q90.8 -76.35 84.5 -83.0 100.0 -77.25 102.25 -81.5 M101.5 93.0 L104.25 88.5 104.0 87.75 Q107.25 82.75 108.25 78.5 118.95 30.65 111.55 -3.35 131.6 79.9 77.0 142.25 -10.0 214.5 -70.0 167.5 -90.5 206.5 -117.0 225.25 -123.7 223.6 -122.3 205.25 -123.05 221.25 -114.5 221.25 -80.05 185.15 -63.0 151.0 L-61.9 148.0 Q-55.1 135.15 -63.5 125.85 L-64.5 125.25 -61.25 121.5 -35.85 76.5 Q-21.55 48.35 -19.7 42.45 L-24.5 59.5 -31.7 76.5 -56.5 148.0 Q-59.25 156.75 -58.25 158.0 -34.0 179.5 16.0 166.75 54.25 157.25 80.5 128.5 L95.5 106.5 101.5 93.0 M-65.75 -67.75 L-61.0 -79.75 Q-85.75 -96.5 -84.75 -102.5 -81.25 -94.75 -56.0 -78.5 -55.5 -77.5 -59.0 -70.75 L-65.0 -67.5 -65.75 -67.75 M-91.1 35.0 L-90.0 35.0 Q-90.9 42.45 -91.25 50.0 L-90.5 50.75 -94.75 63.25 -95.25 63.0 Q-93.6 48.9 -91.1 35.0 M-98.25 73.75 L-97.0 71.5 -103.25 97.75 Q-111.75 77.4 -105.4 54.7 -103.6 48.3 -102.3 41.85 -102.95 57.25 -98.4 71.85 -98.15 72.75 -98.25 73.75 M-139.75 136.6 Q-134.65 147.0 -117.0 152.5 L-119.75 187.0 -120.25 182.75 -118.0 159.5 Q-134.25 152.5 -138.75 140.25 L-139.75 136.6" fill="#000000" fill-opacity="0.49803922" fill-rule="evenodd" stroke="none"/>
  </g>
</svg>
