<?xml version="1.0" encoding="UTF-8" standalone="no"?>
<svg xmlns:ffdec="https://www.free-decompiler.com/flash" xmlns:xlink="http://www.w3.org/1999/xlink" ffdec:objectType="shape" height="172.85px" width="164.85px" xmlns="http://www.w3.org/2000/svg">
  <g transform="matrix(1.0, 0.0, 0.0, 1.0, 105.25, 80.6)">
    <path d="M-84.25 -49.0 L-78.75 -57.0 -78.5 -57.25 -78.0 -59.0 -74.75 -61.5 Q-69.0 -68.75 -65.5 -63.0 L-57.5 -62.5 -51.75 -61.25 Q-36.0 -90.0 -19.25 -76.0 30.75 -36.25 52.5 11.25 L54.0 14.75 54.25 15.5 54.5 16.0 54.75 16.75 55.0 17.25 56.25 20.5 Q65.5 41.0 49.25 61.25 41.0 71.25 16.5 74.0 L10.25 77.75 1.0 79.5 -12.0 84.75 -34.25 90.25 -51.0 91.75 -71.25 92.25 -76.25 91.0 -71.75 86.25 -40.0 69.75 -49.0 59.75 -49.5 59.5 -52.5 53.25 -55.25 44.25 -56.0 43.25 -56.0 43.0 Q-78.25 10.0 -59.75 -44.25 L-67.75 -48.0 -82.75 -27.25 -101.25 -5.25 -105.25 -3.25 -104.75 -7.5 -103.5 -11.5 -94.0 -31.25 -84.25 -49.0" fill="#2e47aa" fill-rule="evenodd" stroke="none"/>
  </g>
</svg>
