<?xml version="1.0" encoding="UTF-8" standalone="no"?>
<svg xmlns:ffdec="https://www.free-decompiler.com/flash" xmlns:xlink="http://www.w3.org/1999/xlink" ffdec:objectType="shape" height="172.75px" width="165.35px" xmlns="http://www.w3.org/2000/svg">
  <g transform="matrix(1.0, 0.0, 0.0, 1.0, 105.75, 79.75)">
    <path d="M-91.25 -37.0 L-80.5 -55.25 -78.75 -57.0 -78.5 -57.5 -78.25 -58.75 -75.5 -61.0 Q-69.25 -68.75 -66.0 -62.75 L-57.25 -62.25 -50.75 -60.75 Q-37.0 -89.0 -17.5 -75.25 31.0 -37.0 53.5 13.0 67.5 44.25 49.25 61.25 40.75 71.25 17.0 74.0 L10.75 77.75 3.5 79.25 2.75 79.25 -10.75 85.0 -32.25 90.5 -60.0 93.0 -70.0 92.75 -75.25 91.5 -70.5 86.75 -39.25 70.5 -49.25 59.25 -52.5 53.0 -55.0 44.5 -55.5 43.75 Q-78.25 9.75 -59.25 -43.75 L-68.0 -47.75 -86.5 -22.5 -101.75 -4.75 -105.75 -2.75 -105.0 -7.25 -100.25 -19.25 -91.25 -37.0" fill="#2e47aa" fill-rule="evenodd" stroke="none"/>
  </g>
</svg>
