<?xml version="1.0" encoding="UTF-8" standalone="no"?>
<svg xmlns:ffdec="https://www.free-decompiler.com/flash" xmlns:xlink="http://www.w3.org/1999/xlink" ffdec:objectType="shape" height="179.05px" width="177.55px" xmlns="http://www.w3.org/2000/svg">
  <g transform="matrix(1.0, 0.0, 0.0, 1.0, 117.0, 77.3)">
    <path d="M28.75 -33.25 Q79.25 29.5 49.5 61.75 L39.5 68.5 31.25 71.75 22.25 73.5 18.25 79.75 4.25 87.0 -17.0 95.0 -37.5 99.25 -55.25 101.75 -61.25 101.0 -56.75 95.75 -27.5 76.25 -35.0 73.25 Q-47.5 62.75 -47.5 60.0 L-52.75 48.0 -52.75 47.75 -53.0 47.5 Q-62.5 40.25 -66.25 14.5 L-66.0 -9.75 -64.25 -19.75 -61.0 -29.5 -56.5 -39.5 -60.5 -40.25 -72.25 -45.0 -89.5 -26.0 -112.5 -4.0 -117.0 -2.5 -115.75 -7.25 -109.5 -18.75 -99.25 -34.5 -86.75 -51.5 -77.5 -60.0 Q-72.75 -63.75 -70.25 -59.0 L-62.0 -59.0 -47.0 -56.75 Q-33.25 -80.75 -17.5 -76.75 L-10.75 -73.0 1.25 -63.5 28.75 -33.25" fill="#2e47aa" fill-rule="evenodd" stroke="none"/>
  </g>
</svg>
