<?xml version="1.0" encoding="UTF-8" standalone="no"?>
<svg xmlns:ffdec="https://www.free-decompiler.com/flash" xmlns:xlink="http://www.w3.org/1999/xlink" ffdec:objectType="shape" height="192.4px" width="196.35px" xmlns="http://www.w3.org/2000/svg">
  <g transform="matrix(1.0, 0.0, 0.0, 1.0, 134.25, 76.65)">
    <path d="M51.75 -2.75 L58.25 12.75 Q69.25 46.0 49.0 61.0 47.65 61.9 46.25 62.75 45.5 66.25 44.5 66.25 L43.25 66.5 Q47.0 74.0 22.5 89.75 L22.0 90.0 21.75 90.25 9.25 98.5 -9.75 107.75 -27.75 114.75 -34.25 115.75 -31.0 109.25 -5.75 82.5 -5.5 82.0 Q-36.0 81.0 -47.75 56.5 L-49.5 53.25 -58.5 43.0 Q-65.5 30.75 -65.75 21.25 -70.5 -4.75 -56.5 -33.75 L-63.0 -34.5 -80.5 -38.75 -81.0 -38.5 -83.0 -36.5 -106.0 -21.0 -120.0 -12.25 -130.0 -7.0 -134.25 -6.5 -132.25 -10.25 Q-90.25 -58.0 -77.0 -52.25 L-68.75 -53.0 -46.0 -51.75 Q-28.0 -78.5 -17.25 -76.5 0.25 -72.0 22.5 -44.75 L42.5 -19.25 51.75 -2.75" fill="#2e47aa" fill-rule="evenodd" stroke="none"/>
  </g>
</svg>
