<?xml version="1.0" encoding="UTF-8" standalone="no"?>
<svg xmlns:ffdec="https://www.free-decompiler.com/flash" xmlns:xlink="http://www.w3.org/1999/xlink" ffdec:objectType="shape" height="202.1px" width="214.55px" xmlns="http://www.w3.org/2000/svg">
  <g transform="matrix(1.0, 0.0, 0.0, 1.0, 143.75, 76.1)">
    <path d="M-141.25 -8.0 L-118.25 -26.0 -105.25 -34.75 -104.75 -35.0 Q-104.0 -37.25 -91.75 -41.75 L-85.0 -42.0 -68.5 -44.75 -59.75 -45.75 -45.5 -46.0 -34.75 -60.75 -24.25 -71.0 Q-13.25 -80.5 -2.25 -72.25 44.25 -37.75 61.5 17.5 L63.25 22.5 63.5 22.5 63.5 23.0 63.75 23.0 67.5 34.25 67.5 35.25 67.75 35.75 67.75 36.0 68.0 36.5 70.75 44.0 70.0 52.75 Q71.25 53.5 70.5 61.25 L69.25 63.25 69.0 63.75 69.0 64.0 68.25 65.25 68.0 65.5 68.0 65.75 64.0 73.5 62.0 75.75 61.75 76.25 59.25 79.75 58.75 80.25 58.5 80.75 57.75 81.5 57.5 82.0 56.75 82.75 56.75 83.0 50.25 91.75 32.75 109.5 18.0 122.5 11.0 126.0 12.0 118.75 19.25 101.5 35.5 67.0 32.75 68.0 24.5 75.25 9.0 81.0 -4.5 82.75 -16.0 80.5 -25.25 77.75 -38.25 69.5 -46.25 58.25 -48.25 57.0 Q-62.75 46.5 -66.25 25.5 -68.0 -8.5 -56.75 -26.75 L-82.0 -27.25 -82.75 -27.5 -85.0 -27.5 -86.5 -27.75 -90.0 -27.75 -119.25 -12.25 -140.0 -3.25 -143.75 -3.5 -141.25 -8.0" fill="#2e47aa" fill-rule="evenodd" stroke="none"/>
  </g>
</svg>
