<?xml version="1.0" encoding="UTF-8" standalone="no"?>
<svg xmlns:ffdec="https://www.free-decompiler.com/flash" xmlns:xlink="http://www.w3.org/1999/xlink" ffdec:objectType="shape" height="195.25px" width="244.3px" xmlns="http://www.w3.org/2000/svg">
  <g transform="matrix(1.0, 0.0, 0.0, 1.0, 146.25, 76.25)">
    <path d="M62.0 -15.25 L76.75 2.25 77.25 2.75 77.5 3.25 78.0 4.0 78.0 4.25 83.5 11.0 83.5 11.25 84.0 11.75 84.25 12.25 84.75 12.75 85.0 13.25 90.75 21.0 92.75 28.0 Q102.5 30.75 94.25 61.5 L91.5 72.25 91.5 72.75 91.25 73.75 91.0 74.25 90.5 75.75 90.25 76.25 90.0 77.0 89.75 77.5 89.5 78.25 89.25 78.75 88.75 80.25 88.5 80.75 88.25 81.5 88.0 82.0 87.75 82.75 87.5 83.0 81.25 99.25 74.25 113.0 69.0 119.0 67.0 111.75 66.25 95.5 66.75 60.5 67.5 45.25 69.75 36.5 62.5 30.25 Q58.75 50.5 46.75 57.5 L42.25 61.25 39.25 62.5 30.75 72.0 Q15.25 81.25 3.75 82.25 L1.25 82.75 -4.5 82.0 Q-27.25 80.0 -41.25 63.75 L-44.25 62.25 -49.25 59.0 Q-60.5 52.0 -65.75 34.75 -70.5 11.5 -58.25 -18.0 L-84.5 -14.5 -85.0 -14.25 -86.75 -14.25 -87.5 -14.0 -89.0 -14.0 -90.25 -13.75 -91.5 -13.75 -93.0 -13.5 -93.75 -13.5 -95.25 -13.25 -96.5 -13.25 -118.0 0.5 -131.25 8.0 -143.0 13.5 -146.25 13.5 -145.25 11.25 Q-104.5 -29.75 -94.75 -27.75 L-78.25 -33.25 -64.25 -37.0 -47.75 -39.75 -45.5 -39.75 Q-30.75 -67.5 -7.25 -76.25 7.75 -76.75 41.75 -31.5 L49.0 -27.25 62.0 -15.25" fill="#2e47aa" fill-rule="evenodd" stroke="none"/>
  </g>
</svg>
