<?xml version="1.0" encoding="UTF-8" standalone="no"?>
<svg xmlns:ffdec="https://www.free-decompiler.com/flash" xmlns:xlink="http://www.w3.org/1999/xlink" ffdec:objectType="shape" height="165.75px" width="274.0px" xmlns="http://www.w3.org/2000/svg">
  <g transform="matrix(1.0, 0.0, 0.0, 1.0, 148.0, 77.5)">
    <path d="M39.75 -41.5 L48.75 -39.5 61.0 -34.0 86.75 -18.25 87.25 -18.0 87.75 -17.5 88.0 -17.5 89.0 -16.75 89.25 -16.5 89.75 -16.25 90.25 -15.75 90.75 -15.5 101.75 -8.0 106.0 -2.0 Q108.0 -4.25 114.75 2.75 L120.25 15.25 124.75 38.0 126.0 63.25 125.5 80.75 123.25 88.25 118.0 82.75 100.75 47.75 92.25 27.75 92.0 27.5 91.75 26.75 91.25 25.75 90.5 23.75 88.25 13.5 80.75 10.0 79.75 9.75 79.0 9.25 74.5 7.5 73.5 7.0 72.75 6.75 60.25 1.0 61.75 8.25 62.25 27.0 58.0 39.75 Q54.75 47.75 45.5 55.5 L44.0 56.5 36.25 67.75 25.75 75.0 9.25 81.5 -4.5 81.75 Q-29.5 77.0 -34.75 68.75 L-40.25 67.0 -50.25 61.25 Q-78.0 41.5 -60.0 -7.5 L-99.0 3.75 -123.5 24.0 -135.25 32.75 -143.5 38.25 -144.5 38.25 -148.0 38.75 -147.0 36.25 -147.0 35.75 -146.5 34.0 -140.25 26.0 -126.5 10.0 -116.5 -0.25 -108.75 -7.25 Q-101.25 -13.0 -99.5 -12.0 L-88.75 -17.5 -66.75 -27.25 -54.25 -31.75 -46.0 -33.75 Q-24.25 -71.0 -4.75 -77.5 17.0 -73.75 38.75 -41.25 L39.75 -41.5" fill="#2e47aa" fill-rule="evenodd" stroke="none"/>
  </g>
</svg>
