<?xml version="1.0" encoding="UTF-8" standalone="no"?>
<svg xmlns:ffdec="https://www.free-decompiler.com/flash" xmlns:xlink="http://www.w3.org/1999/xlink" ffdec:objectType="shape" height="161.45px" width="311.75px" xmlns="http://www.w3.org/2000/svg">
  <g transform="matrix(1.0, 0.0, 0.0, 1.0, 155.0, 79.95)">
    <path d="M55.0 -18.0 Q64.25 12.0 60.5 22.75 57.5 41.0 47.25 50.0 L45.0 54.75 Q33.75 78.5 3.5 81.0 L-1.25 81.5 -4.25 81.0 -4.5 81.0 -14.75 79.25 -21.0 76.75 -28.0 72.25 -39.0 69.5 -45.25 67.0 -51.5 63.0 Q-74.75 46.5 -62.0 4.5 L-95.75 20.0 -98.25 24.25 -109.5 33.25 -128.0 46.75 -147.25 59.75 -150.25 61.0 -155.0 62.0 -153.25 57.0 Q-113.0 -0.5 -98.75 3.0 L-80.75 -9.25 -66.5 -18.0 Q-56.85 -22.85 -47.25 -27.75 -22.75 -70.0 -2.25 -79.25 7.75 -84.5 36.0 -49.5 L45.25 -50.25 60.75 -48.25 84.5 -42.25 86.0 -41.75 87.0 -41.25 90.75 -40.0 91.0 -40.0 102.5 -36.5 108.25 -32.25 110.0 -33.25 110.75 -33.5 114.25 -32.5 114.5 -32.5 116.75 -31.75 Q144.0 -8.75 156.0 34.0 L156.75 41.5 150.0 38.5 126.0 18.0 106.25 -1.0 103.5 -3.25 97.25 -12.75 83.25 -14.0 82.5 -14.25 80.75 -14.25 55.0 -18.0" fill="#2e47aa" fill-rule="evenodd" stroke="none"/>
  </g>
</svg>
