<?xml version="1.0" encoding="UTF-8" standalone="no"?>
<svg xmlns:ffdec="https://www.free-decompiler.com/flash" xmlns:xlink="http://www.w3.org/1999/xlink" ffdec:objectType="shape" height="166.7px" width="326.75px" xmlns="http://www.w3.org/2000/svg">
  <g transform="matrix(1.0, 0.0, 0.0, 1.0, 159.25, 81.45)">
    <path d="M53.5 -60.75 L79.25 -61.25 80.75 -61.0 92.0 -60.75 97.75 -59.75 98.0 -59.75 98.5 -59.5 102.0 -58.25 Q120.0 -70.0 165.0 -12.5 L167.5 -6.75 160.5 -7.25 127.5 -20.5 106.25 -30.0 97.5 -36.75 83.0 -34.0 82.5 -34.0 81.75 -33.75 60.5 -30.5 50.5 -30.25 55.75 -16.75 59.0 -3.5 59.75 3.0 Q62.25 23.0 51.25 41.0 L50.5 42.0 50.25 42.75 50.0 43.0 45.5 55.5 Q35.5 75.25 3.5 80.75 L-11.25 79.25 -21.75 74.5 -30.25 73.75 -39.25 71.25 -48.5 67.0 -52.0 64.5 -57.75 59.5 -63.5 49.5 -65.75 36.0 -65.75 31.25 -63.75 18.0 -87.25 33.25 -89.0 37.5 -90.0 38.75 -93.0 41.25 -93.5 41.75 -94.5 42.5 -95.75 43.75 -100.75 48.0 -101.25 48.25 -110.75 55.25 -110.75 55.5 -111.75 56.25 -112.25 56.25 -122.5 63.75 -122.75 64.0 -126.75 66.75 -127.25 67.0 -128.5 68.0 -129.0 68.25 -137.75 74.5 -152.5 83.25 -159.25 85.25 -157.25 78.5 Q-114.5 11.5 -96.5 17.25 L-96.0 17.25 -92.25 13.75 -91.5 13.25 -77.0 -0.25 -63.0 -11.75 -48.75 -21.75 Q-20.25 -71.25 -4.25 -79.75 8.5 -88.0 33.25 -56.5 L39.25 -58.75 53.5 -60.75" fill="#2e47aa" fill-rule="evenodd" stroke="none"/>
  </g>
</svg>
