<?xml version="1.0" encoding="UTF-8" standalone="no"?>
<svg xmlns:ffdec="https://www.free-decompiler.com/flash" xmlns:xlink="http://www.w3.org/1999/xlink" ffdec:objectType="shape" height="341.55px" width="319.75px" xmlns="http://www.w3.org/2000/svg">
  <g transform="matrix(1.0, 0.0, 0.0, 1.0, 169.25, 156.55)">
    <path d="M-15.75 -152.5 Q-30.85 -153.95 -37.65 -140.3 -41.0 -133.5 -39.25 -126.0 L-54.75 -102.5 Q-60.7 -113.25 -58.6 -125.4 -51.75 -165.05 -13.5 -154.25 L-15.75 -152.5 M-146.0 73.5 L-146.75 74.25 -152.5 90.0 Q-176.0 69.9 -165.05 39.85 -150.1 -1.15 -109.0 -3.0 L-129.75 35.5 Q-137.25 54.45 -145.75 73.0 L-146.5 73.25 -146.0 73.5 M79.5 139.0 Q78.0 154.5 51.25 159.0 L70.75 146.5 79.5 138.75 79.5 139.0" fill="#e58508" fill-rule="evenodd" stroke="none"/>
    <path d="M115.1 -33.5 L107.0 -45.0 Q119.85 -35.85 133.75 -37.5 L140.5 -37.0 140.25 -32.75 136.3 -27.0 Q129.35 -16.1 143.35 -14.9 149.65 -14.05 149.6 -21.0 152.05 -9.3 147.8 1.25 143.15 12.8 137.6 3.9 125.4 -15.55 115.1 -33.5 M50.5 159.0 Q15.45 174.5 -17.5 175.75 -61.5 177.5 -92.5 153.75 -101.85 145.9 -110.75 130.25 -123.5 107.0 -113.25 98.5 -113.5 96.0 -118.75 94.25 -73.0 40.7 -63.95 23.25 -72.75 41.45 -106.0 115.5 -107.25 116.25 -104.5 121.75 L-90.75 139.0 Q-28.0 188.25 53.5 146.5 145.25 78.7 121.0 -15.35 139.0 47.4 109.25 104.5 L103.25 113.5 89.75 129.5 80.0 138.25 Q75.8 151.9 66.25 155.25 53.0 160.25 50.5 159.0 M-152.25 90.0 Q-163.75 86.25 -169.25 62.0 -164.0 79.5 -150.75 85.5 L-152.25 90.0 M-154.5 112.5 L-160.1 159.5 -162.75 176.5 -162.5 178.5 Q-160.5 178.25 -160.75 180.75 -131.0 150.5 -119.5 120.0 -123.5 146.0 -158.75 184.75 -165.25 186.5 -163.75 175.0 L-155.75 111.5 -154.5 112.5" fill="#000000" fill-opacity="0.49803922" fill-rule="evenodd" stroke="none"/>
  </g>
</svg>
