<?xml version="1.0" encoding="UTF-8" standalone="no"?>
<svg xmlns:ffdec="https://www.free-decompiler.com/flash" xmlns:xlink="http://www.w3.org/1999/xlink" ffdec:objectType="shape" height="197.7px" width="299.75px" xmlns="http://www.w3.org/2000/svg">
  <g transform="matrix(1.0, 0.0, 0.0, 1.0, 134.0, 83.7)">
    <path d="M72.5 -75.0 L86.5 -77.75 93.25 -76.75 94.5 -79.25 101.25 -81.25 Q130.5 -77.75 162.25 -49.75 L162.5 -49.25 165.75 -45.0 159.75 -43.5 125.5 -47.5 105.0 -50.75 94.25 -55.0 81.0 -49.0 80.25 -48.75 79.75 -48.5 60.25 -40.75 47.0 -37.5 Q67.0 -1.5 52.0 36.25 L51.75 36.75 49.25 46.75 45.75 55.75 36.5 67.0 23.0 75.75 7.75 80.0 -7.25 79.5 -17.5 75.5 Q-39.5 75.75 -52.5 65.5 -65.75 57.0 -65.0 31.0 L-77.25 41.0 -77.75 41.5 -77.25 44.75 -78.25 46.25 -78.5 47.0 -78.75 47.25 -83.5 57.25 -97.5 75.5 -126.75 109.75 -133.75 114.0 -134.0 105.75 -129.75 87.75 -122.5 63.75 -113.25 44.5 -113.0 44.25 -111.25 40.25 -105.0 32.75 -104.5 32.25 Q-99.0 26.5 -91.75 27.75 L-81.0 14.75 -80.5 14.25 -79.75 13.25 -65.75 -1.75 -51.25 -15.25 -44.5 -28.25 -29.25 -52.25 -16.25 -69.75 -13.0 -73.5 -4.0 -81.25 Q5.75 -91.0 30.25 -62.0 L33.0 -63.75 45.25 -68.5 69.75 -74.5 70.25 -74.75 70.75 -74.75 71.25 -75.0 72.5 -75.0" fill="#2e47aa" fill-rule="evenodd" stroke="none"/>
  </g>
</svg>
