<?xml version="1.0" encoding="UTF-8" standalone="no"?>
<svg xmlns:ffdec="https://www.free-decompiler.com/flash" xmlns:xlink="http://www.w3.org/1999/xlink" ffdec:objectType="shape" height="221.8px" width="270.75px" xmlns="http://www.w3.org/2000/svg">
  <g transform="matrix(1.0, 0.0, 0.0, 1.0, 105.25, 92.55)">
    <path d="M68.25 -82.5 L68.5 -82.75 69.0 -83.0 82.25 -87.25 88.25 -87.0 88.75 -89.0 95.25 -92.0 95.25 -92.25 95.75 -92.5 Q127.0 -93.5 161.25 -71.75 L165.5 -67.75 159.75 -65.25 125.25 -63.25 102.0 -63.25 92.75 -65.5 84.25 -60.25 84.0 -60.25 80.25 -57.75 78.75 -57.0 78.5 -56.75 59.0 -46.0 45.25 -40.75 Q66.75 3.5 52.0 34.5 L49.0 47.75 45.5 55.5 37.25 66.0 23.5 75.25 9.0 79.5 -4.5 79.5 -16.25 75.5 Q-40.25 76.0 -52.5 66.0 -62.0 61.75 -64.75 39.25 L-71.0 45.25 -70.5 48.5 -71.75 60.5 -86.25 104.5 -93.5 123.0 -98.25 129.25 -101.5 121.25 -103.75 106.0 -105.25 78.0 -103.0 51.25 -99.25 39.75 -96.75 37.0 -92.25 33.5 -89.25 33.5 -89.0 33.0 -78.75 18.0 -63.0 -1.25 -52.25 -13.0 -44.75 -28.0 -27.75 -55.0 -13.75 -73.75 -4.25 -82.25 Q4.75 -91.75 28.75 -64.75 L30.25 -66.25 41.75 -72.5 66.25 -82.0 68.25 -82.5" fill="#2e47aa" fill-rule="evenodd" stroke="none"/>
  </g>
</svg>
