<?xml version="1.0" encoding="UTF-8" standalone="no"?>
<svg xmlns:ffdec="https://www.free-decompiler.com/flash" xmlns:xlink="http://www.w3.org/1999/xlink" ffdec:objectType="shape" height="229.45px" width="268.5px" xmlns="http://www.w3.org/2000/svg">
  <g transform="matrix(1.0, 0.0, 0.0, 1.0, 98.0, 100.2)">
    <path d="M80.75 -92.25 L87.0 -92.75 87.25 -94.0 Q96.5 -109.5 165.0 -86.25 L170.5 -82.25 164.5 -79.0 118.25 -71.75 104.75 -70.25 93.5 -71.25 77.0 -59.75 58.5 -48.0 44.5 -41.75 Q66.75 1.5 52.0 34.25 L48.5 48.5 45.5 55.25 37.25 65.75 23.5 75.0 9.25 79.25 -4.5 79.25 -16.0 75.5 Q-37.25 77.0 -52.5 66.0 -61.0 60.5 -64.5 44.5 L-65.5 45.5 -64.25 58.25 -67.75 83.75 -75.25 122.25 -79.0 129.25 -84.0 121.75 -88.5 109.25 -96.0 79.25 -98.0 55.75 -95.5 42.0 Q-90.0 34.75 -87.75 35.75 L-87.0 32.5 -82.25 25.75 -74.75 13.75 -64.25 -0.25 -52.0 -14.25 -45.0 -28.25 -29.0 -54.0 -15.75 -72.25 -5.25 -82.25 Q4.0 -92.5 28.0 -65.5 L41.25 -74.5 63.0 -84.75 63.75 -85.25 67.25 -86.75 67.5 -86.75 68.5 -87.25 69.25 -87.5 80.75 -92.25" fill="#2e47aa" fill-rule="evenodd" stroke="none"/>
  </g>
</svg>
