<?xml version="1.0" encoding="UTF-8" standalone="no"?>
<svg xmlns:ffdec="https://www.free-decompiler.com/flash" xmlns:xlink="http://www.w3.org/1999/xlink" ffdec:objectType="shape" height="232.65px" width="264.25px" xmlns="http://www.w3.org/2000/svg">
  <g transform="matrix(1.0, 0.0, 0.0, 1.0, 88.75, 107.4)">
    <path d="M90.5 -103.5 Q123.0 -112.75 169.0 -100.0 L175.5 -96.75 169.0 -92.75 130.0 -82.0 106.0 -76.75 93.5 -76.5 92.5 -75.5 91.75 -75.0 91.25 -74.5 85.5 -70.0 85.0 -69.5 79.25 -65.0 78.5 -64.25 78.0 -64.0 77.5 -63.5 58.25 -49.5 44.0 -42.0 49.25 -32.75 54.75 -17.25 56.75 -6.75 Q60.25 19.5 51.75 34.5 L48.5 48.0 45.5 55.0 Q24.0 81.75 3.5 79.25 L-4.5 79.25 -16.25 75.5 Q-39.25 76.5 -52.5 66.25 L-53.75 65.0 -54.0 65.0 -53.75 68.25 -53.75 68.75 -52.25 90.75 -52.5 91.75 -52.25 92.5 -51.5 118.0 -53.75 125.25 -60.25 118.25 -71.0 99.5 -72.75 95.75 -73.0 94.75 -73.25 94.5 -74.25 92.5 -74.5 91.75 -76.5 87.5 -76.5 87.25 -78.0 84.5 -78.25 83.75 -81.25 77.0 -86.5 60.5 -87.75 55.0 -88.75 42.75 -88.5 42.25 -88.0 40.5 -83.75 34.75 -83.5 32.0 -82.75 30.25 -74.75 15.75 -74.75 15.5 -61.5 -4.5 -51.0 -17.0 -45.5 -28.0 -28.25 -56.0 -14.75 -74.25 -5.25 -82.75 Q3.5 -92.0 27.5 -65.5 L28.25 -66.75 38.75 -74.5 62.0 -87.75 62.5 -88.25 80.25 -97.0 85.0 -97.5 85.0 -99.25 90.5 -103.5" fill="#2e47aa" fill-rule="evenodd" stroke="none"/>
  </g>
</svg>
