<?xml version="1.0" encoding="UTF-8" standalone="no"?>
<svg xmlns:ffdec="https://www.free-decompiler.com/flash" xmlns:xlink="http://www.w3.org/1999/xlink" ffdec:objectType="shape" height="229.5px" width="252.5px" xmlns="http://www.w3.org/2000/svg">
  <g transform="matrix(1.0, 0.0, 0.0, 1.0, 76.25, 116.0)">
    <path d="M86.5 -107.75 Q117.0 -120.5 168.5 -113.5 L176.25 -110.75 170.0 -106.0 150.5 -98.25 150.25 -98.0 146.75 -96.75 146.25 -96.5 144.75 -96.0 144.5 -96.0 143.0 -95.5 142.5 -95.25 136.5 -93.0 136.25 -93.0 131.25 -91.0 130.75 -90.75 124.5 -88.75 124.25 -88.75 115.25 -85.75 115.0 -85.5 109.75 -83.75 109.25 -83.75 108.5 -83.5 99.0 -81.75 98.25 -81.75 97.5 -81.5 96.25 -81.5 95.75 -81.25 92.75 -81.0 76.0 -65.75 58.0 -50.75 43.5 -42.0 49.0 -32.5 53.75 -19.5 56.5 -7.5 57.75 12.5 Q56.75 26.75 51.5 35.0 L48.25 48.25 45.5 55.0 37.0 65.75 23.0 75.25 9.0 79.25 -4.5 79.25 -7.25 79.0 -16.75 75.5 -27.25 75.5 -37.25 73.5 -31.25 105.25 -32.25 113.5 -39.25 107.5 -48.0 94.5 -55.25 81.75 -55.75 81.5 Q-79.5 37.25 -75.75 30.0 L-74.25 26.25 -74.5 23.75 -73.75 21.5 -73.75 20.0 -66.25 5.5 -66.25 5.25 -58.25 -9.25 -50.25 -19.25 -44.75 -30.25 -28.5 -56.5 -16.75 -72.5 -5.75 -82.75 Q2.75 -91.5 26.75 -65.5 L39.25 -76.25 59.75 -89.75 60.0 -90.0 61.0 -90.5 61.75 -91.0 62.0 -91.25 76.75 -100.0 81.0 -101.25 81.25 -101.75 83.25 -104.25 84.75 -105.75 85.25 -106.5 86.5 -107.75" fill="#2e47aa" fill-rule="evenodd" stroke="none"/>
  </g>
</svg>
