<?xml version="1.0" encoding="UTF-8" standalone="no"?>
<svg xmlns:ffdec="https://www.free-decompiler.com/flash" xmlns:xlink="http://www.w3.org/1999/xlink" ffdec:objectType="shape" height="207.75px" width="235.7px" xmlns="http://www.w3.org/2000/svg">
  <g transform="matrix(1.0, 0.0, 0.0, 1.0, 65.95, 125.5)">
    <path d="M113.25 -122.0 L138.0 -124.75 161.0 -125.5 169.75 -123.5 164.25 -118.0 150.25 -110.0 126.5 -98.25 126.5 -98.0 104.25 -87.5 91.5 -84.5 89.75 -84.5 86.25 -80.0 77.75 -71.75 76.5 -70.75 75.5 -69.5 56.5 -51.25 43.25 -42.0 Q66.75 -1.0 51.25 35.5 L48.25 47.75 45.25 55.0 37.0 65.75 22.75 75.25 8.25 79.5 -4.5 79.5 -7.0 79.25 -17.25 75.5 -24.75 75.5 -24.5 77.0 -26.0 82.25 -30.0 79.5 -32.5 76.5 -32.5 76.25 -33.75 74.25 -38.5 73.25 -47.5 69.75 -52.5 66.25 Q-73.25 48.0 -62.0 10.25 L-62.0 4.0 -61.5 3.0 -61.25 2.25 -61.25 2.0 -61.0 1.5 -59.25 -3.5 -52.0 -18.25 -48.5 -23.5 -45.0 -30.5 -23.25 -65.0 -15.75 -74.5 -7.25 -82.0 Q1.75 -91.75 26.5 -65.0 L39.25 -77.5 57.5 -91.5 71.25 -101.25 75.25 -103.25 78.0 -107.75 Q78.0 -111.0 90.75 -116.25 L113.25 -122.0" fill="#2e47aa" fill-rule="evenodd" stroke="none"/>
  </g>
</svg>
