<?xml version="1.0" encoding="UTF-8" standalone="no"?>
<svg xmlns:ffdec="https://www.free-decompiler.com/flash" xmlns:xlink="http://www.w3.org/1999/xlink" ffdec:objectType="shape" height="214.75px" width="220.2px" xmlns="http://www.w3.org/2000/svg">
  <g transform="matrix(1.0, 0.0, 0.0, 1.0, 65.95, 135.25)">
    <path d="M117.75 -104.0 L99.75 -92.0 88.25 -87.5 85.0 -87.25 83.75 -84.75 57.0 -54.25 42.75 -41.75 Q66.5 -5.0 51.0 36.25 L50.75 36.75 48.0 47.75 45.25 55.0 36.25 66.25 22.25 75.5 8.25 79.5 -7.75 79.25 -18.0 75.5 Q-39.25 76.0 -52.5 66.25 -79.25 47.5 -52.75 -15.25 L-52.75 -16.0 -52.25 -19.75 -49.75 -25.0 -45.0 -31.25 -44.5 -31.75 -34.0 -49.75 -24.0 -65.0 -17.0 -73.75 -7.5 -82.25 Q1.25 -91.0 26.0 -64.5 L36.0 -76.0 49.75 -89.0 68.5 -104.25 70.25 -110.0 72.0 -112.5 72.75 -113.0 73.25 -113.5 Q95.25 -130.75 145.0 -135.25 L154.25 -134.25 150.0 -128.0 118.25 -104.5 117.75 -104.0" fill="#2e47aa" fill-rule="evenodd" stroke="none"/>
  </g>
</svg>
