<?xml version="1.0" encoding="UTF-8" standalone="no"?>
<svg xmlns:ffdec="https://www.free-decompiler.com/flash" xmlns:xlink="http://www.w3.org/1999/xlink" ffdec:objectType="shape" height="222.25px" width="197.1px" xmlns="http://www.w3.org/2000/svg">
  <g transform="matrix(1.0, 0.0, 0.0, 1.0, 66.45, 142.5)">
    <path d="M105.25 -137.75 L122.25 -142.5 130.5 -142.5 Q131.25 -141.75 128.5 -135.5 89.75 -87.25 78.5 -89.25 L76.75 -85.75 52.75 -53.25 42.0 -42.25 Q68.25 2.25 50.5 37.5 L50.25 38.0 45.25 54.75 35.75 66.5 21.5 75.75 6.75 79.75 -8.25 79.25 -18.75 75.25 -28.5 75.0 -37.25 73.25 -47.25 69.25 -52.5 66.0 Q-64.75 58.5 -66.25 36.75 -68.25 14.0 -50.25 -22.0 L-54.5 -31.25 -58.0 -40.75 -60.5 -50.5 -60.75 -55.0 Q-60.25 -58.75 -55.75 -58.75 L-51.75 -59.25 -44.5 -58.0 -43.75 -57.5 -41.5 -56.5 Q-36.75 -52.5 -35.25 -49.0 -17.5 -78.25 -5.75 -83.5 5.5 -87.25 25.5 -64.25 L36.5 -78.25 47.25 -90.25 58.75 -101.25 59.75 -102.0 61.25 -103.5 61.75 -111.5 62.0 -112.0 68.5 -120.25 84.75 -130.25 105.25 -137.75" fill="#2e47aa" fill-rule="evenodd" stroke="none"/>
  </g>
</svg>
