<?xml version="1.0" encoding="UTF-8" standalone="no"?>
<svg xmlns:ffdec="https://www.free-decompiler.com/flash" xmlns:xlink="http://www.w3.org/1999/xlink" ffdec:objectType="shape" height="227.5px" width="180.8px" xmlns="http://www.w3.org/2000/svg">
  <g transform="matrix(1.0, 0.0, 0.0, 1.0, 75.75, 148.0)">
    <path d="M90.75 -112.5 L80.5 -95.75 77.25 -92.75 76.75 -92.5 74.75 -90.75 71.25 -90.5 71.25 -90.25 64.0 -77.5 63.5 -76.75 63.25 -76.25 63.0 -76.0 48.75 -52.75 41.0 -43.0 Q69.0 2.75 50.5 38.25 L49.5 40.0 45.0 54.5 34.75 67.0 22.25 75.0 11.75 78.25 3.5 79.5 -8.25 79.0 -19.75 74.75 -30.0 74.25 -38.25 72.5 -48.75 68.0 -52.25 65.5 Q-66.25 56.75 -66.5 33.5 -66.75 5.5 -48.25 -27.75 L-48.75 -30.25 -50.5 -31.0 -55.5 -37.5 -62.75 -52.75 -68.75 -67.75 -68.75 -68.0 -75.75 -86.0 -75.25 -92.75 Q-69.75 -94.0 -69.0 -92.5 L-60.5 -88.0 -48.0 -78.5 -38.25 -66.0 -34.75 -54.5 -34.75 -51.75 Q-16.75 -80.5 -5.75 -84.25 4.75 -87.5 25.25 -64.0 L31.25 -73.25 44.25 -90.5 45.0 -91.25 52.0 -99.5 52.25 -100.0 54.75 -102.75 53.75 -107.5 54.0 -112.75 54.25 -113.5 57.75 -121.25 Q71.5 -136.75 77.25 -137.25 L82.0 -140.0 97.5 -147.5 105.0 -148.0 Q105.25 -141.75 104.25 -141.0 L99.25 -129.0 90.75 -112.5" fill="#2e47aa" fill-rule="evenodd" stroke="none"/>
  </g>
</svg>
