<?xml version="1.0" encoding="UTF-8" standalone="no"?>
<svg xmlns:ffdec="https://www.free-decompiler.com/flash" xmlns:xlink="http://www.w3.org/1999/xlink" ffdec:objectType="shape" height="237.0px" width="168.5px" xmlns="http://www.w3.org/2000/svg">
  <g transform="matrix(1.0, 0.0, 0.0, 1.0, 84.5, 157.5)">
    <path d="M83.75 -151.25 L81.25 -135.75 81.25 -135.0 80.5 -132.0 80.5 -131.75 78.25 -119.5 74.5 -105.75 74.5 -105.5 72.75 -100.75 72.5 -100.5 72.0 -99.5 72.0 -99.25 71.0 -96.0 70.25 -95.75 68.25 -93.75 65.5 -93.5 47.0 -55.75 40.0 -44.75 Q71.75 3.75 48.25 42.75 L43.25 57.0 34.5 66.5 31.5 68.75 19.0 76.25 3.5 79.5 -11.25 78.25 -21.25 74.0 -35.0 72.25 -40.0 71.0 -50.5 66.0 -52.0 64.75 Q-82.75 42.0 -49.75 -27.75 L-51.75 -33.25 -52.0 -33.75 -52.25 -34.5 -52.5 -35.0 -53.75 -38.5 -57.0 -39.5 -60.0 -43.75 -60.25 -44.25 -62.5 -47.25 -70.5 -64.75 -76.0 -79.0 -76.0 -79.25 -76.75 -80.75 -77.25 -82.25 -77.25 -82.5 -77.5 -82.75 -77.75 -83.5 -78.25 -84.5 -84.5 -101.5 -84.25 -108.75 Q-78.0 -109.0 -77.5 -107.25 -48.0 -88.25 -42.75 -70.5 L-39.75 -60.75 -40.5 -52.75 -37.5 -49.5 -26.5 -66.75 Q-20.25 -76.75 -7.25 -85.0 1.5 -90.25 25.25 -64.0 L29.0 -71.5 42.75 -93.5 43.25 -94.0 43.5 -94.5 44.5 -96.0 45.0 -96.5 46.0 -98.0 46.25 -98.5 47.25 -100.0 47.75 -100.5 48.25 -101.25 48.5 -101.75 50.0 -104.0 48.0 -110.25 47.75 -112.25 48.25 -121.5 50.5 -126.75 57.0 -137.75 65.25 -146.5 76.0 -155.75 Q76.25 -157.0 82.25 -157.5 L84.0 -152.0 83.75 -151.5 83.75 -151.25" fill="#2e47aa" fill-rule="evenodd" stroke="none"/>
  </g>
</svg>
