<?xml version="1.0" encoding="UTF-8" standalone="no"?>
<svg xmlns:ffdec="https://www.free-decompiler.com/flash" xmlns:xlink="http://www.w3.org/1999/xlink" ffdec:objectType="shape" height="332.15px" width="351.4px" xmlns="http://www.w3.org/2000/svg">
  <g transform="matrix(1.0, 0.0, 0.0, 1.0, 183.25, 160.6)">
    <path d="M76.15 150.0 Q64.8 162.85 48.0 159.75 L80.5 142.25 Q79.25 146.6 76.15 150.0 M-144.5 86.25 Q-142.15 82.1 -139.4 78.2 L-131.25 67.25 Q-132.85 96.95 -118.6 123.2 L-117.25 125.5 -117.25 126.0 Q-103.7 144.85 -83.0 156.0 L-108.5 151.75 Q-152.2 144.05 -150.0 101.25 L-144.5 86.25 M-25.0 -159.45 Q-18.55 -162.0 -12.25 -159.0 -37.8 -152.9 -50.0 -129.8 -50.6 -128.7 -51.5 -127.75 -47.05 -150.6 -25.0 -159.45" fill="#e58508" fill-rule="evenodd" stroke="none"/>
    <path d="M-128.25 139.0 L-131.75 126.5 -135.3 128.5 Q-140.2 131.4 -136.3 135.5 -133.75 137.35 -128.25 139.0 M126.75 -10.5 L148.5 -6.0 Q148.75 -4.25 141.0 2.5 L140.5 4.25 Q142.5 8.5 144.25 7.0 L147.25 8.0 149.25 11.25 153.5 14.75 Q165.75 13.5 161.75 -4.0 173.0 26.75 164.5 31.0 150.0 29.75 134.5 -1.75 L118.0 -8.25 Q148.0 73.0 103.0 124.25 73.75 144.5 73.25 153.75 L64.75 158.25 Q52.75 155.5 19.5 169.75 -28.6 175.7 -71.25 162.25 -79.5 154.65 -110.0 151.25 L-128.5 144.75 Q-137.1 143.65 -142.25 135.5 -144.65 131.2 -146.05 126.65 -149.75 114.5 -149.75 101.5 L-151.35 105.85 Q-157.15 121.15 -164.75 135.5 -173.8 152.05 -181.25 155.0 L-182.75 153.75 -183.25 146.75 -181.25 129.5 -172.25 76.0 -171.0 76.25 -171.75 77.25 -171.8 78.15 -174.25 93.9 -174.35 94.35 Q-177.45 115.9 -173.5 133.25 L-171.75 131.7 Q-167.35 127.95 -163.9 123.35 -161.15 119.7 -158.95 115.8 -151.1 101.7 -144.25 87.0 -142.15 81.75 -139.05 77.1 -135.35 71.7 -130.75 67.0 L-130.5 58.75 -139.25 67.75 -140.85 73.4 -141.45 72.8 -142.25 72.15 -143.25 71.45 -144.5 70.95 -145.4 70.8 -147.25 71.0 -141.65 65.2 Q-114.25 37.4 -89.0 7.5 -110.95 43.5 -123.5 83.75 -120.55 94.15 -116.0 103.9 -107.55 122.05 -91.95 135.5 -50.15 171.05 18.25 158.5 95.0 131.75 116.5 82.0 139.0 19.0 104.5 -19.5 L126.75 -10.5" fill="#000000" fill-opacity="0.49803922" fill-rule="evenodd" stroke="none"/>
  </g>
</svg>
