<?xml version="1.0" encoding="UTF-8" standalone="no"?>
<svg xmlns:ffdec="https://www.free-decompiler.com/flash" xmlns:xlink="http://www.w3.org/1999/xlink" ffdec:objectType="shape" height="249.25px" width="161.5px" xmlns="http://www.w3.org/2000/svg">
  <g transform="matrix(1.0, 0.0, 0.0, 1.0, 94.0, 170.5)">
    <path d="M66.75 -164.25 L67.5 -125.75 67.0 -112.0 65.5 -102.75 65.0 -101.0 65.0 -100.75 63.0 -98.75 61.0 -98.0 46.5 -61.5 39.0 -46.25 Q74.5 9.75 47.0 45.5 L42.0 58.0 31.25 68.25 17.0 76.5 3.75 78.75 -4.5 78.5 -13.5 77.25 -23.25 72.75 -34.75 71.0 -41.0 69.25 -51.75 63.75 Q-68.25 49.75 -67.0 32.25 -69.25 11.0 -51.5 -27.25 L-54.0 -31.75 -54.5 -32.5 -55.0 -33.5 -55.5 -34.25 -56.25 -35.75 -56.5 -36.0 -56.5 -36.25 -58.5 -39.75 -58.5 -40.0 -59.25 -41.0 -60.75 -43.75 -65.0 -45.0 -72.25 -57.0 -72.25 -57.25 -77.0 -67.0 -84.75 -86.25 -84.75 -86.5 -85.0 -86.75 -85.25 -87.5 -85.75 -88.5 -86.75 -91.25 -86.75 -91.5 -87.0 -91.75 -87.25 -92.5 -87.75 -93.5 -94.0 -110.75 -94.0 -118.5 Q-86.75 -118.0 -86.5 -116.0 -55.5 -96.25 -47.5 -69.75 L-47.25 -69.0 -46.25 -64.75 -46.75 -60.25 -47.0 -59.0 -46.75 -58.5 -44.5 -56.75 -42.5 -53.5 -39.5 -50.0 -23.75 -73.0 Q-13.0 -85.5 -7.5 -87.0 2.75 -90.25 24.75 -64.75 L36.5 -89.25 46.75 -106.75 43.5 -113.25 42.25 -126.25 45.75 -142.0 52.25 -156.75 58.5 -166.25 Q57.75 -168.0 63.5 -170.5 L66.75 -164.25" fill="#2e47aa" fill-rule="evenodd" stroke="none"/>
  </g>
</svg>
