<?xml version="1.0" encoding="UTF-8" standalone="no"?>
<svg xmlns:ffdec="https://www.free-decompiler.com/flash" xmlns:xlink="http://www.w3.org/1999/xlink" ffdec:objectType="shape" height="259.0px" width="165.25px" xmlns="http://www.w3.org/2000/svg">
  <g transform="matrix(1.0, 0.0, 0.0, 1.0, 104.25, 180.5)">
    <path d="M56.5 -152.0 L60.25 -120.25 60.5 -119.75 61.0 -109.75 60.5 -105.75 60.25 -105.0 57.25 -102.25 46.0 -66.75 38.25 -47.75 Q76.5 9.0 45.5 48.5 L43.75 52.5 Q30.5 74.25 4.0 78.0 L-1.5 78.5 -15.0 76.5 -25.5 71.25 -34.25 69.75 -46.75 64.75 -51.0 62.25 -60.25 53.75 Q-67.0 43.5 -67.0 33.75 -71.0 13.0 -53.25 -27.0 L-65.0 -41.75 -68.75 -48.0 -73.75 -49.5 -74.25 -49.75 -77.0 -54.5 -77.25 -54.75 -78.0 -55.75 -78.0 -56.0 -78.25 -56.25 -80.75 -60.25 -81.25 -61.25 -81.25 -61.75 -82.5 -64.0 -82.75 -64.75 -83.25 -65.75 -83.25 -66.0 -93.5 -89.75 -93.5 -90.0 -94.5 -92.0 -96.0 -96.0 -96.0 -96.25 -97.0 -98.25 -97.25 -99.0 -97.5 -99.5 -104.0 -117.75 -104.25 -125.75 Q-97.0 -124.5 -96.5 -123.0 L-85.75 -115.0 -68.75 -98.5 -56.75 -81.5 Q-51.75 -69.0 -54.0 -63.5 L-53.25 -64.0 -50.0 -60.25 -40.25 -51.25 Q-28.5 -76.25 -7.75 -89.25 4.5 -90.75 24.75 -65.75 L27.5 -74.25 36.0 -94.75 43.5 -109.25 41.25 -113.25 41.0 -113.5 40.5 -114.75 Q32.5 -134.5 44.5 -175.25 L48.5 -180.5 52.5 -174.0 56.5 -152.0" fill="#2e47aa" fill-rule="evenodd" stroke="none"/>
  </g>
</svg>
