<?xml version="1.0" encoding="UTF-8" standalone="no"?>
<svg xmlns:ffdec="https://www.free-decompiler.com/flash" xmlns:xlink="http://www.w3.org/1999/xlink" ffdec:objectType="shape" height="262.25px" width="175.75px" xmlns="http://www.w3.org/2000/svg">
  <g transform="matrix(1.0, 0.0, 0.0, 1.0, 115.25, 184.5)">
    <path d="M47.25 -166.5 L56.75 -123.25 58.5 -110.75 Q58.5 -106.75 55.5 -105.0 L55.25 -104.5 45.0 -67.0 38.25 -48.5 Q59.5 -18.75 60.5 12.75 L60.5 17.75 58.25 30.5 53.25 40.75 48.5 46.75 43.5 51.5 43.25 52.0 Q29.75 73.75 4.25 77.25 L-4.5 77.75 -17.75 75.0 -27.75 69.25 -35.5 67.75 -42.0 65.25 -50.0 60.75 -50.25 60.75 Q-63.0 54.5 -67.0 32.75 -69.75 5.75 -54.5 -27.25 L-76.0 -48.75 -77.5 -51.75 -77.75 -52.0 -82.0 -53.0 -83.75 -54.25 -86.75 -58.75 -92.0 -68.0 -92.5 -69.5 -92.75 -69.75 -93.25 -70.75 -93.5 -71.5 -94.75 -74.25 -94.75 -74.5 -96.25 -77.25 -96.5 -78.0 -100.25 -86.5 -100.25 -86.75 -101.25 -88.75 -101.5 -89.5 -102.0 -90.5 -104.75 -97.5 -104.75 -97.75 -106.25 -101.0 -106.5 -101.75 -107.0 -102.75 -107.25 -103.5 -108.75 -107.0 -114.25 -123.25 Q-115.75 -124.25 -115.0 -132.0 L-107.25 -129.25 -95.25 -119.75 -88.0 -112.5 Q-60.25 -88.25 -61.5 -68.5 L-58.75 -67.25 -50.0 -60.75 -41.25 -52.75 -26.75 -75.5 Q-13.25 -91.0 -7.75 -91.75 3.5 -93.25 24.5 -67.0 L32.75 -90.25 33.0 -90.75 33.25 -91.5 33.5 -92.0 35.0 -96.0 35.5 -97.0 35.5 -97.25 41.75 -110.75 39.0 -115.25 38.75 -115.5 37.25 -120.0 37.0 -120.25 Q30.0 -141.5 36.0 -178.75 L39.25 -184.5 Q43.0 -181.25 43.75 -178.25 L47.25 -166.5" fill="#2e47aa" fill-rule="evenodd" stroke="none"/>
  </g>
</svg>
