<?xml version="1.0" encoding="UTF-8" standalone="no"?>
<svg xmlns:ffdec="https://www.free-decompiler.com/flash" xmlns:xlink="http://www.w3.org/1999/xlink" ffdec:objectType="shape" height="262.5px" width="186.65px" xmlns="http://www.w3.org/2000/svg">
  <g transform="matrix(1.0, 0.0, 0.0, 1.0, 125.8, 185.5)">
    <path d="M39.75 -179.25 Q61.5 -115.0 55.25 -105.75 L44.5 -65.25 38.5 -49.0 Q80.25 15.5 44.0 52.5 L41.75 54.0 36.5 61.5 22.25 71.0 9.25 76.25 -4.5 77.0 -19.75 73.5 -29.75 67.5 -37.25 65.5 -44.5 62.5 -49.25 59.5 -49.5 59.5 Q-63.5 50.75 -66.75 31.75 -68.75 0.5 -55.0 -28.75 L-58.5 -30.75 -82.25 -50.0 Q-86.0 -53.75 -86.0 -55.75 L-91.0 -57.0 -92.25 -58.25 -93.0 -58.75 -95.5 -62.25 -95.75 -62.75 -98.25 -66.0 -110.5 -92.0 -110.75 -92.75 -111.25 -93.75 -111.5 -94.5 -112.0 -95.5 -124.75 -128.0 Q-126.0 -129.0 -125.75 -136.75 L-117.5 -133.5 -104.25 -123.25 -86.5 -106.25 -86.25 -105.75 -82.5 -100.75 -81.75 -100.0 -81.25 -99.25 -75.5 -92.5 -74.0 -89.25 Q-72.25 -88.5 -69.0 -77.0 L-69.0 -72.75 -60.0 -68.25 -48.5 -60.75 -41.5 -54.5 -27.0 -77.25 Q-19.5 -88.0 -8.25 -93.75 5.0 -94.75 25.0 -68.0 L31.75 -88.0 41.5 -111.5 41.25 -112.0 38.75 -115.5 37.75 -118.0 Q28.5 -142.0 32.25 -179.5 L35.0 -185.5 Q38.5 -182.75 39.75 -179.25" fill="#2e47aa" fill-rule="evenodd" stroke="none"/>
  </g>
</svg>
