<?xml version="1.0" encoding="UTF-8" standalone="no"?>
<svg xmlns:ffdec="https://www.free-decompiler.com/flash" xmlns:xlink="http://www.w3.org/1999/xlink" ffdec:objectType="shape" height="262.55px" width="197.35px" xmlns="http://www.w3.org/2000/svg">
  <g transform="matrix(1.0, 0.0, 0.0, 1.0, 135.75, 186.3)">
    <path d="M37.25 -180.0 L46.0 -155.25 55.75 -121.75 57.75 -112.75 Q58.25 -110.5 55.75 -106.5 L45.5 -67.75 39.0 -49.5 Q58.25 -22.25 61.5 10.5 62.75 40.5 45.0 52.5 L39.5 56.25 35.25 62.0 20.0 71.5 7.0 76.0 -4.5 76.0 Q-6.75 77.25 -21.75 72.25 L-31.25 65.75 -37.5 64.0 -49.0 58.25 Q-63.75 48.25 -66.5 28.75 -70.25 10.75 -55.0 -30.25 L-62.75 -34.5 -75.25 -42.75 -89.5 -53.25 -93.0 -58.5 -98.25 -60.0 -99.5 -61.25 -100.25 -61.75 -101.75 -63.75 -102.0 -64.0 -102.5 -64.75 -106.5 -69.75 -117.25 -91.25 -128.25 -114.75 -134.75 -131.25 -135.75 -139.75 -127.5 -136.75 -116.0 -128.0 -95.75 -110.0 -94.0 -108.75 -90.0 -103.25 -89.75 -103.0 -89.0 -102.0 -88.25 -101.25 -87.75 -100.5 -82.25 -94.0 -75.25 -79.25 -75.75 -75.75 -64.5 -71.0 -51.25 -63.5 -41.5 -56.25 -26.0 -80.0 Q-18.25 -90.75 -7.75 -95.75 3.5 -97.75 25.75 -69.0 L31.25 -86.0 41.75 -112.0 41.5 -112.5 39.5 -115.0 33.75 -129.75 30.75 -148.0 29.5 -166.75 29.75 -179.75 Q31.0 -192.75 37.25 -180.0" fill="#2e47aa" fill-rule="evenodd" stroke="none"/>
  </g>
</svg>
