<?xml version="1.0" encoding="UTF-8" standalone="no"?>
<svg xmlns:ffdec="https://www.free-decompiler.com/flash" xmlns:xlink="http://www.w3.org/1999/xlink" ffdec:objectType="shape" height="262.7px" width="207.1px" xmlns="http://www.w3.org/2000/svg">
  <g transform="matrix(1.0, 0.0, 0.0, 1.0, 145.0, 186.8)">
    <path d="M40.0 -170.0 L51.75 -135.25 57.5 -116.0 Q58.5 -110.75 57.25 -109.25 L56.0 -106.75 46.25 -69.0 39.25 -49.75 Q81.25 20.0 46.0 52.25 L41.0 56.25 38.25 57.5 Q38.25 61.25 20.0 71.0 L5.5 75.75 -4.5 75.5 Q-7.0 77.25 -23.0 71.25 L-32.5 64.5 -39.0 62.5 -48.5 57.25 Q-81.0 40.0 -54.75 -31.5 L-62.5 -34.75 -77.25 -43.25 -94.0 -54.0 -98.0 -59.25 -98.25 -59.5 -103.5 -60.75 -112.0 -70.0 -124.25 -91.75 -135.75 -113.75 -143.75 -131.0 -145.0 -139.5 -136.5 -136.5 -125.75 -129.0 -104.25 -112.0 -87.5 -93.0 -80.75 -80.25 -81.0 -76.75 -67.75 -72.0 -52.75 -64.75 -41.5 -57.25 -27.5 -79.0 Q-18.0 -92.5 -6.75 -97.25 3.25 -99.25 26.25 -69.5 L31.75 -86.5 42.25 -112.25 Q32.0 -117.25 28.25 -179.75 28.5 -193.5 35.5 -180.5 L40.0 -170.0" fill="#2e47aa" fill-rule="evenodd" stroke="none"/>
  </g>
</svg>
