<?xml version="1.0" encoding="UTF-8" standalone="no"?>
<svg xmlns:ffdec="https://www.free-decompiler.com/flash" xmlns:xlink="http://www.w3.org/1999/xlink" ffdec:objectType="shape" height="262.45px" width="216.7px" xmlns="http://www.w3.org/2000/svg">
  <g transform="matrix(1.0, 0.0, 0.0, 1.0, 154.5, 186.8)">
    <path d="M27.0 -179.5 Q27.0 -193.0 33.75 -181.5 L34.25 -180.5 43.75 -157.25 56.5 -119.25 56.75 -118.75 58.0 -113.75 57.25 -109.5 56.25 -107.0 46.75 -70.5 39.5 -49.75 Q80.75 17.5 47.0 51.5 L41.75 56.0 37.5 58.0 Q20.75 73.25 5.75 75.5 L-4.5 75.25 Q-7.0 77.0 -22.25 71.25 L-32.75 64.0 -39.25 61.75 -48.25 56.75 -58.5 47.25 Q-65.25 38.25 -66.0 26.75 -69.75 6.75 -54.75 -31.5 L-63.75 -34.75 -78.0 -41.75 -96.5 -51.75 -101.0 -56.75 -106.25 -57.75 -108.0 -59.0 -115.5 -66.25 -125.75 -81.25 -140.25 -104.25 -152.5 -125.5 -154.5 -133.75 -145.75 -131.5 -130.75 -122.25 -110.5 -108.25 -93.25 -91.25 -92.0 -90.25 -91.5 -88.5 -90.25 -86.5 -89.75 -85.5 -89.25 -84.75 -89.0 -84.25 -85.5 -79.0 -85.0 -75.0 -72.25 -71.25 -57.75 -65.5 -41.75 -57.0 -27.5 -79.25 -17.0 -91.0 -8.5 -97.25 Q7.0 -98.25 26.25 -69.75 L33.5 -91.0 42.5 -112.25 42.25 -113.0 41.75 -113.5 Q32.5 -118.5 27.0 -179.5" fill="#2e47aa" fill-rule="evenodd" stroke="none"/>
  </g>
</svg>
