<?xml version="1.0" encoding="UTF-8" standalone="no"?>
<svg xmlns:ffdec="https://www.free-decompiler.com/flash" xmlns:xlink="http://www.w3.org/1999/xlink" ffdec:objectType="shape" height="260.9px" width="226.45px" xmlns="http://www.w3.org/2000/svg">
  <g transform="matrix(1.0, 0.0, 0.0, 1.0, 164.5, 185.0)">
    <path d="M37.25 -179.0 L49.0 -148.5 57.5 -122.0 60.0 -112.25 Q59.0 -107.25 57.75 -106.5 L46.75 -67.75 39.75 -49.25 Q76.0 9.0 53.0 45.0 L52.25 46.0 48.0 50.75 Q41.5 54.5 41.75 56.0 L38.0 57.75 33.5 62.75 20.75 70.5 17.25 72.25 7.0 75.25 -4.5 75.5 Q-7.0 77.25 -22.5 71.25 L-33.0 64.25 -39.5 62.0 -48.25 57.0 -48.5 57.0 Q-63.75 46.5 -66.0 27.0 -69.5 7.0 -55.25 -30.0 L-62.25 -31.75 -97.5 -45.75 -102.0 -49.75 -107.5 -50.25 -109.0 -51.25 -109.5 -51.25 -112.25 -53.5 -113.0 -54.25 -117.5 -57.5 -129.0 -70.5 -150.75 -97.0 -161.75 -112.0 -164.5 -119.75 -155.75 -118.5 -139.0 -111.0 -118.25 -99.5 -101.0 -87.0 -97.25 -83.0 -94.25 -79.0 -93.75 -78.5 -93.25 -77.75 -90.25 -74.25 -89.0 -69.75 -65.25 -64.25 -59.25 -62.5 -42.5 -55.25 -27.0 -79.25 Q-12.75 -96.5 -6.75 -97.0 4.0 -99.25 26.75 -69.0 L33.5 -88.0 44.0 -112.0 41.5 -115.25 35.75 -128.5 32.0 -147.25 30.25 -163.75 29.75 -180.25 32.0 -185.0 35.5 -182.0 37.25 -179.0" fill="#2e47aa" fill-rule="evenodd" stroke="none"/>
  </g>
</svg>
