<?xml version="1.0" encoding="UTF-8" standalone="no"?>
<svg xmlns:ffdec="https://www.free-decompiler.com/flash" xmlns:xlink="http://www.w3.org/1999/xlink" ffdec:objectType="shape" height="257.25px" width="239.2px" xmlns="http://www.w3.org/2000/svg">
  <g transform="matrix(1.0, 0.0, 0.0, 1.0, 174.5, 181.25)">
    <path d="M48.5 -175.0 L53.0 -161.25 59.75 -135.25 63.25 -120.0 Q65.5 -109.25 64.25 -107.25 L61.5 -104.25 47.75 -64.0 40.5 -47.75 Q59.0 -20.75 62.25 11.75 65.75 29.75 49.25 49.5 L42.25 55.5 39.0 57.25 34.5 63.0 Q16.25 75.0 8.0 75.75 L-4.5 76.0 Q-24.0 74.0 -32.5 64.75 L-40.75 62.0 -48.5 57.5 -48.75 57.5 Q-80.0 37.5 -56.25 -26.75 L-72.25 -29.75 -94.75 -35.75 -100.25 -38.0 -102.25 -39.75 -107.5 -39.25 -109.0 -39.75 -109.75 -39.75 -112.75 -41.75 -113.25 -42.0 -114.0 -42.5 -117.25 -44.0 -131.0 -54.75 -153.75 -74.25 -170.0 -89.75 -174.5 -97.0 -165.75 -97.5 -150.25 -93.75 -126.25 -85.75 -108.5 -77.0 -105.0 -74.5 -94.5 -65.25 -93.25 -61.0 -81.0 -60.5 -64.5 -58.25 -43.0 -52.25 Q-26.5 -84.25 -6.0 -95.25 4.5 -97.25 27.75 -66.75 L30.25 -73.75 43.75 -103.25 47.75 -110.75 45.25 -114.75 45.0 -115.75 44.75 -116.0 44.5 -116.75 44.25 -117.25 44.0 -118.0 43.75 -118.5 42.75 -121.0 Q35.75 -140.75 40.5 -175.75 L43.75 -181.25 Q46.75 -179.0 48.5 -175.0" fill="#2e47aa" fill-rule="evenodd" stroke="none"/>
  </g>
</svg>
