<?xml version="1.0" encoding="UTF-8" standalone="no"?>
<svg xmlns:ffdec="https://www.free-decompiler.com/flash" xmlns:xlink="http://www.w3.org/1999/xlink" ffdec:objectType="shape" height="251.5px" width="253.0px" xmlns="http://www.w3.org/2000/svg">
  <g transform="matrix(1.0, 0.0, 0.0, 1.0, 181.0, 174.5)">
    <path d="M66.75 -168.25 L71.0 -133.75 72.0 -118.5 71.5 -105.5 71.25 -104.75 71.25 -104.5 67.25 -101.25 52.5 -66.0 41.75 -45.0 Q59.25 -17.75 61.75 6.0 66.5 29.0 50.25 48.75 L44.75 53.75 41.15 56.05 40.75 56.25 Q35.25 61.75 35.75 63.25 L20.25 72.5 7.75 77.0 -9.25 76.75 -21.5 73.0 -32.5 65.75 -38.0 64.0 -49.0 58.0 Q-78.75 41.5 -57.5 -21.25 L-93.0 -24.5 Q-99.25 -25.5 -100.75 -27.0 L-106.25 -25.5 -107.5 -25.5 -111.0 -26.75 -111.5 -27.0 -117.0 -28.5 -157.25 -49.25 -175.0 -60.25 Q-176.5 -60.25 -181.0 -66.25 L-172.75 -68.75 -154.75 -68.5 -132.75 -66.5 -109.5 -60.25 Q-96.75 -54.0 -97.0 -50.0 L-86.5 -51.0 -63.0 -51.25 -49.0 -49.75 -43.5 -48.25 Q-23.25 -85.0 -6.25 -92.0 5.25 -95.0 28.5 -64.25 L39.25 -85.75 53.25 -109.25 51.0 -113.25 Q43.25 -141.5 58.5 -169.75 57.75 -171.25 63.0 -174.5 L66.75 -168.25" fill="#2e47aa" fill-rule="evenodd" stroke="none"/>
  </g>
</svg>
