<?xml version="1.0" encoding="UTF-8" standalone="no"?>
<svg xmlns:ffdec="https://www.free-decompiler.com/flash" xmlns:xlink="http://www.w3.org/1999/xlink" ffdec:objectType="shape" height="242.75px" width="271.5px" xmlns="http://www.w3.org/2000/svg">
  <g transform="matrix(1.0, 0.0, 0.0, 1.0, 181.25, 164.5)">
    <path d="M88.5 -164.5 L90.25 -158.5 88.25 -142.25 88.25 -141.25 87.75 -138.75 87.75 -138.5 85.75 -124.5 82.75 -110.75 81.0 -106.0 81.0 -105.75 80.75 -105.25 79.0 -100.5 79.0 -100.25 77.0 -98.25 74.25 -97.75 55.5 -60.5 43.5 -41.75 Q76.75 13.25 51.0 48.0 L42.5 55.25 35.75 64.5 Q23.75 73.75 11.5 77.0 L8.75 78.0 -4.5 78.25 Q-22.25 76.25 -32.0 66.75 L-37.0 65.5 -49.25 59.0 -49.5 59.0 Q-78.25 37.5 -59.0 -14.0 L-91.5 -11.75 -97.75 -12.75 -100.0 -10.75 -102.75 -10.25 -102.75 -10.0 -113.0 -10.25 -158.75 -20.0 -174.0 -24.75 Q-175.5 -24.25 -181.25 -29.0 L-175.25 -33.5 -159.5 -38.25 -138.0 -42.75 -116.75 -43.25 -116.0 -43.0 -104.75 -40.25 Q-102.5 -40.0 -99.5 -36.25 L-66.0 -43.5 -52.5 -44.25 -43.75 -43.5 Q-24.25 -79.5 -4.0 -88.5 7.0 -90.75 29.75 -61.5 L34.75 -71.0 47.75 -91.25 59.0 -107.25 56.75 -113.5 56.5 -115.25 56.75 -125.25 64.75 -142.0 72.0 -151.5 Q76.75 -157.1 82.25 -162.0 82.25 -163.5 88.5 -164.5" fill="#2e47aa" fill-rule="evenodd" stroke="none"/>
  </g>
</svg>
