<?xml version="1.0" encoding="UTF-8" standalone="no"?>
<svg xmlns:ffdec="https://www.free-decompiler.com/flash" xmlns:xlink="http://www.w3.org/1999/xlink" ffdec:objectType="shape" height="217.25px" width="300.5px" xmlns="http://www.w3.org/2000/svg">
  <g transform="matrix(1.0, 0.0, 0.0, 1.0, 159.5, 136.5)">
    <path d="M138.25 -129.75 L113.0 -105.25 97.75 -92.5 Q88.75 -87.75 87.25 -88.5 L63.75 -52.75 51.25 -38.25 47.5 -34.75 Q75.25 18.5 52.75 46.25 L46.0 53.25 39.0 65.25 Q27.0 76.25 14.75 79.0 L10.25 80.25 -4.5 80.75 -5.5 80.25 -17.75 77.5 -21.25 76.0 -31.25 69.5 -37.5 67.75 -45.75 63.75 -50.5 60.75 Q-72.25 46.75 -63.0 7.5 L-83.25 16.0 -86.0 16.25 -86.5 18.0 -88.5 19.75 -88.75 20.75 -89.75 21.0 -94.75 25.25 -109.5 32.5 -130.25 41.75 -151.25 50.0 -159.5 50.5 -157.25 42.75 Q-133.75 7.5 -120.25 1.25 L-119.5 0.75 -119.25 0.5 -118.75 0.25 -116.75 -1.0 -116.5 -1.0 -106.75 -5.0 -100.0 -4.25 Q-60.75 -32.0 -43.75 -33.0 -17.75 -73.5 -3.0 -78.25 6.25 -85.5 31.5 -56.75 L40.5 -69.5 53.75 -85.5 69.75 -102.25 70.25 -102.5 70.75 -110.5 72.25 -112.75 73.0 -113.5 Q88.75 -130.5 132.5 -136.5 L141.0 -136.0 138.25 -129.75" fill="#2e47aa" fill-rule="evenodd" stroke="none"/>
  </g>
</svg>
