<?xml version="1.0" encoding="UTF-8" standalone="no"?>
<svg xmlns:ffdec="https://www.free-decompiler.com/flash" xmlns:xlink="http://www.w3.org/1999/xlink" ffdec:objectType="shape" height="206.5px" width="299.75px" xmlns="http://www.w3.org/2000/svg">
  <g transform="matrix(1.0, 0.0, 0.0, 1.0, 140.5, 121.75)">
    <path d="M119.25 -120.25 L121.0 -120.25 121.75 -120.5 123.75 -120.5 124.25 -120.75 150.75 -121.75 159.25 -120.0 Q159.5 -119.0 154.75 -114.5 L141.75 -106.5 122.25 -96.25 122.0 -96.0 103.0 -86.25 91.0 -83.75 78.75 -65.25 65.75 -47.5 54.5 -35.25 49.5 -31.25 Q75.0 17.0 53.25 45.75 L47.5 52.0 40.5 65.5 Q27.75 77.75 16.75 79.75 L11.75 81.25 -0.25 82.0 -4.5 81.5 -16.75 78.75 -22.0 76.75 -30.5 70.75 -38.0 68.75 -47.0 64.25 -51.0 61.5 Q-66.75 54.0 -64.75 21.25 L-77.25 28.75 -78.75 29.0 -80.75 33.5 -84.75 39.75 -101.25 55.5 -132.5 81.75 -140.5 84.75 -140.25 76.25 -136.25 63.5 -127.0 40.25 -116.0 23.5 -115.25 22.75 -114.75 22.0 -112.25 19.25 -109.75 17.25 -109.25 16.75 -108.25 16.0 -107.75 15.5 -106.75 14.75 -106.25 14.25 -104.25 12.75 -97.25 11.75 Q-66.5 -19.0 -44.0 -27.0 -16.0 -67.75 -0.25 -73.5 8.0 -80.5 32.75 -54.5 L42.5 -67.75 54.25 -81.0 73.0 -99.0 74.75 -99.75 74.5 -101.5 Q76.75 -108.5 78.25 -108.5 L86.5 -113.25 112.0 -119.5 113.5 -119.5 114.5 -119.75 116.0 -119.75 117.0 -120.0 118.5 -120.0 119.25 -120.25" fill="#2e47aa" fill-rule="evenodd" stroke="none"/>
  </g>
</svg>
