<?xml version="1.0" encoding="UTF-8" standalone="no"?>
<svg xmlns:ffdec="https://www.free-decompiler.com/flash" xmlns:xlink="http://www.w3.org/1999/xlink" ffdec:objectType="shape" height="222.0px" width="291.25px" xmlns="http://www.w3.org/2000/svg">
  <g transform="matrix(1.0, 0.0, 0.0, 1.0, 121.5, 110.5)">
    <path d="M116.25 -110.5 L137.25 -110.0 139.0 -109.75 144.0 -109.75 161.25 -107.5 169.75 -104.75 163.5 -100.25 141.0 -92.0 140.75 -91.75 123.5 -86.25 123.0 -86.0 102.5 -80.0 92.5 -79.25 92.0 -78.75 86.0 -69.75 86.0 -69.5 85.5 -69.0 85.5 -68.75 82.0 -63.5 81.5 -63.0 81.0 -62.25 78.25 -58.75 77.5 -57.5 68.75 -45.75 56.0 -31.75 51.5 -28.75 Q74.75 15.5 54.0 45.25 L50.5 49.25 50.25 49.5 43.25 63.5 40.75 67.0 29.25 76.25 14.25 82.0 1.75 83.0 -4.75 82.75 -19.5 79.0 -29.75 72.0 -36.75 70.5 -47.0 65.5 -51.0 62.5 -51.5 62.5 Q-63.75 53.75 -65.0 35.0 L-71.5 40.0 -72.25 41.75 -72.75 44.0 -75.25 51.5 -89.25 73.75 -112.75 106.5 -119.75 111.5 -121.5 103.0 -120.25 88.75 -116.0 61.5 -109.25 42.5 -106.75 38.0 -106.75 37.75 -104.5 34.5 -104.0 34.0 -103.75 33.5 -103.25 32.75 -102.75 32.25 -102.5 31.75 -102.0 31.0 -101.5 30.5 -100.25 29.0 -93.0 25.75 -92.0 23.5 -78.25 7.75 -62.5 -7.75 -52.5 -15.75 Q-48.6 -18.1 -44.75 -20.5 -12.0 -64.25 1.5 -68.25 9.25 -76.5 34.0 -52.5 L42.0 -63.5 56.75 -79.25 72.5 -94.5 77.5 -97.0 78.0 -98.75 78.25 -99.0 79.75 -101.0 80.0 -101.5 80.5 -102.0 83.0 -105.0 93.0 -108.0 109.25 -109.75 110.0 -110.0 112.0 -110.0 113.0 -110.25 115.0 -110.25 116.25 -110.5" fill="#2e47aa" fill-rule="evenodd" stroke="none"/>
  </g>
</svg>
