<?xml version="1.0" encoding="UTF-8" standalone="no"?>
<svg xmlns:ffdec="https://www.free-decompiler.com/flash" xmlns:xlink="http://www.w3.org/1999/xlink" ffdec:objectType="shape" height="233.75px" width="277.75px" xmlns="http://www.w3.org/2000/svg">
  <g transform="matrix(1.0, 0.0, 0.0, 1.0, 105.5, 103.25)">
    <path d="M117.75 -103.0 L133.0 -101.25 134.0 -101.25 134.75 -101.0 135.75 -101.0 136.5 -100.75 137.5 -100.75 138.25 -100.5 139.25 -100.5 140.0 -100.25 141.25 -100.25 144.75 -99.75 164.75 -95.25 172.25 -91.75 165.75 -88.25 147.25 -83.5 117.5 -77.5 102.5 -75.0 92.25 -75.25 86.25 -66.0 86.25 -65.75 85.75 -65.0 85.5 -64.5 82.5 -60.0 82.25 -59.75 70.0 -42.5 57.5 -29.5 53.25 -26.5 Q74.5 12.0 54.5 45.0 L52.0 48.0 42.75 66.5 Q31.0 79.5 20.0 81.25 L14.75 83.0 -0.5 84.25 -4.75 83.75 -18.5 80.25 -29.0 73.25 -37.25 71.25 -47.75 66.0 -48.25 65.5 -51.75 63.0 -58.75 55.75 -63.0 46.75 -63.25 46.75 -65.75 48.75 -65.75 50.75 -67.25 60.75 -75.75 82.5 -94.75 124.0 -101.0 130.5 -104.0 122.25 -105.0 108.75 -105.5 81.25 -102.25 58.5 -102.0 58.25 -101.75 56.5 -100.75 53.5 -100.75 53.25 -95.75 42.5 -88.5 37.25 -87.25 33.75 -74.25 16.0 -61.0 0.25 -46.75 -13.0 -38.5 -24.5 -21.0 -43.75 -11.75 -52.75 0.75 -62.5 Q13.5 -73.25 35.0 -50.5 L42.25 -60.75 61.75 -81.25 73.0 -91.75 79.0 -94.25 Q78.0 -96.25 85.25 -101.0 L99.5 -103.0 110.0 -103.25 112.5 -103.0 117.75 -103.0" fill="#2e47aa" fill-rule="evenodd" stroke="none"/>
  </g>
</svg>
