<?xml version="1.0" encoding="UTF-8" standalone="no"?>
<svg xmlns:ffdec="https://www.free-decompiler.com/flash" xmlns:xlink="http://www.w3.org/1999/xlink" ffdec:objectType="shape" height="241.5px" width="266.75px" xmlns="http://www.w3.org/2000/svg">
  <g transform="matrix(1.0, 0.0, 0.0, 1.0, 96.5, 98.75)">
    <path d="M79.75 -92.0 Q78.75 -94.5 86.5 -98.0 L102.25 -98.75 103.25 -98.5 110.75 -98.0 111.25 -97.75 113.0 -97.75 113.5 -97.5 115.25 -97.5 115.75 -97.25 117.25 -97.25 118.0 -97.0 119.5 -97.0 120.5 -96.75 121.75 -96.75 122.75 -96.5 123.5 -96.5 124.25 -96.25 130.75 -94.75 131.5 -94.75 132.5 -94.5 133.0 -94.25 134.0 -94.0 134.75 -94.0 135.75 -93.75 136.25 -93.5 137.0 -93.5 143.5 -92.0 164.0 -85.5 170.25 -82.0 163.5 -78.75 123.5 -73.0 99.5 -70.75 91.0 -71.75 85.0 -62.25 85.0 -62.0 84.25 -61.0 84.25 -60.75 83.25 -59.5 83.25 -59.25 83.0 -59.0 83.0 -58.75 82.5 -58.0 82.25 -57.75 70.0 -39.75 59.0 -28.0 54.5 -25.0 Q74.5 8.5 55.25 44.75 L53.5 46.5 53.0 47.25 47.0 61.5 43.5 66.75 32.25 77.25 21.5 81.75 Q19.75 84.0 0.75 85.25 L-17.25 81.5 -28.25 74.25 -34.75 73.0 -43.25 69.5 -47.75 66.75 -48.5 66.0 -52.0 63.75 -57.0 58.5 -59.5 54.25 -61.0 55.25 -60.25 56.75 -61.0 59.25 -61.25 67.25 -64.75 82.0 -72.5 109.75 -80.75 135.5 -85.75 142.75 -90.0 134.75 -93.25 117.5 -96.5 91.25 -95.75 69.75 -95.5 69.0 -95.5 67.0 -95.25 66.0 -95.25 65.5 -91.75 53.25 Q-86.0 45.75 -84.5 46.0 L-84.5 45.75 -83.25 41.25 -70.5 21.5 -58.75 5.75 -50.75 -3.0 -44.25 -13.5 -36.5 -23.0 -19.25 -40.75 -9.25 -50.0 2.25 -58.75 8.0 -61.25 Q13.25 -63.0 16.25 -62.0 L24.25 -58.75 29.5 -55.25 36.0 -49.25 44.0 -60.75 58.5 -76.0 68.25 -85.5 68.75 -85.75 71.75 -88.75 79.75 -92.0" fill="#2e47aa" fill-rule="evenodd" stroke="none"/>
  </g>
</svg>
