<?xml version="1.0" encoding="UTF-8" standalone="no"?>
<svg xmlns:ffdec="https://www.free-decompiler.com/flash" xmlns:xlink="http://www.w3.org/1999/xlink" ffdec:objectType="shape" height="245.3px" width="258.5px" xmlns="http://www.w3.org/2000/svg">
  <g transform="matrix(1.0, 0.0, 0.0, 1.0, 91.25, 96.05)">
    <path d="M79.5 -90.25 Q81.5 -99.25 110.75 -94.25 L120.75 -92.5 121.25 -92.25 122.5 -92.25 123.25 -92.0 123.75 -91.75 125.25 -91.5 145.75 -85.5 Q153.3 -81.95 161.25 -79.25 L167.25 -75.25 160.5 -72.75 142.75 -70.5 102.0 -68.0 89.25 -69.0 84.25 -60.75 84.0 -60.25 84.0 -60.0 82.5 -57.5 82.25 -57.25 81.75 -56.5 81.5 -56.0 69.75 -38.0 59.5 -26.75 55.25 -23.75 60.75 -13.25 63.25 -5.25 65.0 7.0 Q67.25 26.0 55.25 44.75 L53.5 46.75 Q50.0 69.5 22.25 82.25 L18.0 84.0 2.5 85.75 -5.0 84.75 -16.75 82.0 -27.5 75.0 -34.5 73.5 -42.25 70.5 -52.25 64.25 -57.0 58.75 -57.75 59.25 -57.0 60.25 -57.5 64.25 -57.25 71.25 -60.5 90.5 -65.75 116.5 -72.0 141.75 -76.0 149.25 -80.75 141.75 -85.75 123.0 -90.25 98.5 -90.5 97.75 -90.5 91.75 -90.75 91.0 -91.25 76.75 -91.0 76.0 -90.75 71.5 -88.0 58.25 Q-83.25 51.0 -81.5 51.25 L-81.5 51.0 -80.5 46.0 -69.0 26.75 -55.75 7.75 -55.5 7.25 Q-48.5 -14.75 4.0 -56.75 L9.25 -59.0 17.5 -60.0 25.25 -57.0 30.5 -53.75 36.75 -48.25 44.0 -59.25 59.25 -75.75 71.0 -87.0 79.5 -90.25" fill="#2e47aa" fill-rule="evenodd" stroke="none"/>
  </g>
</svg>
