<?xml version="1.0" encoding="UTF-8" standalone="no"?>
<svg xmlns:ffdec="https://www.free-decompiler.com/flash" xmlns:xlink="http://www.w3.org/1999/xlink" ffdec:objectType="shape" height="245.75px" width="254.5px" xmlns="http://www.w3.org/2000/svg">
  <g transform="matrix(1.0, 0.0, 0.0, 1.0, 89.5, 94.25)">
    <path d="M79.0 -89.0 Q78.75 -90.75 86.0 -94.25 L104.0 -93.75 122.0 -90.25 144.75 -83.0 159.75 -76.25 165.0 -72.5 158.5 -70.0 144.25 -68.5 111.0 -66.75 95.25 -66.5 88.5 -67.75 83.0 -58.75 82.5 -57.75 82.5 -57.5 82.0 -56.75 81.0 -55.75 81.0 -55.25 80.5 -54.5 80.25 -54.0 69.75 -37.5 60.0 -26.5 55.75 -23.5 Q74.75 17.75 55.5 44.75 L53.75 46.75 48.0 61.75 44.5 66.75 33.75 77.25 22.5 82.25 Q20.75 84.75 1.5 86.0 L-16.0 82.5 -28.0 75.0 -33.5 74.0 -38.75 72.0 -48.25 67.0 -48.75 66.5 -52.25 64.25 -55.75 60.25 -56.75 60.5 -56.0 61.75 -56.5 64.75 -56.0 72.75 -65.25 127.75 -69.0 144.0 -72.75 151.5 -77.75 144.0 -83.0 125.75 -88.25 100.25 -88.25 97.25 -88.5 96.5 -89.5 78.0 -89.25 74.25 -86.75 60.25 Q-82.25 53.0 -80.5 53.25 L-80.5 53.0 -79.25 47.5 -68.5 28.75 -57.0 11.25 Q-48.75 -14.25 4.25 -55.75 L8.25 -57.75 Q15.0 -60.0 17.75 -59.25 L26.0 -56.25 Q32.75 -53.0 36.5 -48.0 L44.0 -58.75 59.25 -75.25 70.5 -86.0 79.0 -89.0" fill="#2e47aa" fill-rule="evenodd" stroke="none"/>
  </g>
</svg>
