<?xml version="1.0" encoding="UTF-8" standalone="no"?>
<svg xmlns:ffdec="https://www.free-decompiler.com/flash" xmlns:xlink="http://www.w3.org/1999/xlink" ffdec:objectType="shape" height="136.45px" width="189.35px" xmlns="http://www.w3.org/2000/svg">
  <g transform="matrix(1.0, 0.0, 0.0, 1.0, 95.35, 34.5)">
    <path d="M5.25 -27.25 L4.25 -26.5 3.75 -26.25 Q1.75 -26.25 3.5 -22.75 L6.75 -22.5 8.5 -24.25 8.25 -26.5 7.5 -26.75 7.0 -27.0 6.0 -27.25 5.25 -27.25 M-13.0 -23.0 L-15.5 -27.0 -15.5 -32.0 -11.0 -34.0 Q-6.75 -35.0 -1.75 -34.0 L-0.25 -33.5 0.0 -33.5 0.75 -33.75 7.25 -34.5 Q14.0 -33.5 14.5 -32.0 L14.5 -27.25 12.25 -23.5 Q10.0 -18.75 -0.5 -22.25 L-7.25 -20.5 Q-13.25 -21.25 -13.0 -23.0 M17.75 0.75 L22.0 10.25 24.25 17.5 30.5 29.75 Q30.75 32.0 39.0 38.75 L43.75 47.25 44.25 56.5 41.5 62.75 31.75 73.5 Q18.75 82.5 3.75 83.5 L-4.5 82.75 Q-16.5 82.75 -31.5 73.5 L-40.0 64.5 -41.75 61.5 -44.0 56.25 -44.0 54.75 -42.75 53.25 -42.75 50.75 Q-32.75 43.0 -18.0 2.0 -12.5 15.75 1.0 14.25 L2.5 14.25 3.5 14.0 Q10.75 15.0 17.75 0.75 M-7.0 -27.25 L-8.0 -27.0 -8.5 -26.5 Q-11.75 -24.25 -6.25 -22.25 -2.0 -23.75 -4.75 -26.5 L-5.5 -26.5 -7.0 -27.25" fill="#ffffff" fill-rule="evenodd" stroke="none"/>
    <path d="M5.25 -27.25 L6.0 -27.25 7.0 -27.0 7.5 -26.75 8.25 -26.5 8.5 -24.25 6.75 -22.5 3.5 -22.75 Q1.75 -26.25 3.75 -26.25 L4.25 -26.5 5.25 -27.25 M-7.0 -27.25 L-5.5 -26.5 -4.75 -26.5 Q-2.0 -23.75 -6.25 -22.25 -11.75 -24.25 -8.5 -26.5 L-8.0 -27.0 -7.0 -27.25" fill="#000000" fill-rule="evenodd" stroke="none"/>
    <path d="M12.25 -23.5 Q20.5 -18.75 19.5 -11.0 L19.5 -7.0 17.75 0.75 Q10.75 15.0 3.5 14.0 L2.5 14.25 1.0 14.25 Q-12.5 15.75 -18.0 2.0 -25.5 -17.5 -13.0 -23.0 -13.25 -21.25 -7.25 -20.5 L-0.5 -22.25 Q10.0 -18.75 12.25 -23.5 M41.5 62.75 L47.5 58.75 Q61.6 79.5 50.15 92.0 48.2 94.1 45.5 96.0 35.75 102.75 16.0 101.5 L12.5 100.5 8.0 97.75 6.0 94.25 3.75 83.5 Q18.75 82.5 31.75 73.5 L41.5 62.75 M-4.5 82.75 L-4.5 86.0 -6.75 93.5 Q-14.5 108.5 -48.5 94.5 L-51.65 92.0 Q-61.5 82.05 -49.0 58.75 L-42.5 63.5 -40.0 64.5 -31.5 73.5 Q-16.5 82.75 -4.5 82.75" fill="#e58508" fill-rule="evenodd" stroke="none"/>
    <path d="M-51.0 -0.6 L-49.95 -1.55 -52.95 2.95 -56.45 5.7 -57.2 6.45 -60.55 8.9 -64.5 12.3 -64.45 11.7 -60.75 9.05 -72.7 17.2 -72.7 17.45 -73.45 18.7 -73.45 18.95 -73.95 19.45 -74.45 20.2 -74.45 20.7 -75.2 21.45 -75.2 21.95 -75.45 22.2 -80.45 30.45 -90.2 43.7 -93.2 46.45 -94.2 46.7 -95.2 46.7 -95.35 46.2 -94.2 45.0 -94.7 45.95 -94.55 46.2 -92.9 43.85 -93.1 44.35 -92.1 42.7 -89.5 38.7 -89.55 38.65 -87.25 35.55 -87.15 35.45 -81.15 26.0 Q-76.2 18.65 -74.0 16.85 L-69.0 12.75 -62.35 8.3 -60.75 6.95 -55.4 2.5 Q-52.4 0.1 -51.0 -0.6 M-49.85 -0.45 L-51.85 1.35 -50.4 -0.8 Q-49.85 -0.95 -49.85 -0.45 M-42.45 63.45 L-48.95 58.7 Q-64.7 49.95 -65.45 20.7 -61.45 42.45 -41.7 49.95 L-42.7 50.7 -42.95 53.7 -33.45 63.45 Q-22.45 70.7 -0.45 73.7 L19.05 71.2 34.3 64.7 44.3 53.95 44.3 48.95 43.75 47.75 44.0 48.2 Q49.3 46.4 54.95 40.85 60.15 35.8 62.45 30.2 63.25 28.95 63.6 26.75 64.3 23.9 64.3 20.9 L64.05 21.05 64.55 20.7 Q62.05 52.2 47.55 58.7 L41.55 62.7 31.8 73.45 Q18.8 82.45 3.8 83.45 L-4.7 82.7 Q-16.45 82.7 -31.45 73.45 L-39.95 64.45 -42.45 63.45 M-55.2 84.2 Q-53.0 88.85 -48.8 91.95 -43.1 96.25 -33.7 97.7 -11.45 100.8 -6.45 91.95 L-6.0 91.05 -6.2 91.95 -6.7 93.45 Q-6.45 101.45 -29.95 100.95 -43.3 100.4 -50.5 91.95 -53.3 88.65 -55.2 84.2 M86.05 34.55 Q87.9 36.5 89.8 37.7 L93.6 45.45 94.0 45.85 93.7 46.0 91.75 47.0 Q89.35 45.35 87.1 41.45 L86.95 41.15 81.3 33.45 71.3 17.2 63.05 11.7 53.3 4.45 Q49.55 0.45 48.55 -3.05 L53.2 0.7 59.7 6.2 Q70.9 15.1 77.1 16.0 L74.95 17.4 76.0 18.85 78.75 23.0 78.8 22.95 78.95 23.25 84.05 30.85 86.05 34.55 M5.85 91.95 Q10.45 100.85 27.05 98.95 41.1 96.55 48.15 91.95 53.0 88.75 54.5 84.5 53.15 88.75 50.25 91.95 43.05 100.0 26.3 101.7 7.85 103.45 5.05 91.95 4.6 90.2 4.55 88.2 5.0 90.25 5.85 91.95 M0.25 43.45 Q-20.4 45.35 -20.75 -9.65 -18.75 14.1 0.25 14.6 17.1 13.45 19.35 -9.8 19.35 42.1 0.25 43.45" fill="#000000" fill-opacity="0.49803922" fill-rule="evenodd" stroke="none"/>
  </g>
</svg>
