<?xml version="1.0" encoding="UTF-8" standalone="no"?>
<svg xmlns:ffdec="https://www.free-decompiler.com/flash" xmlns:xlink="http://www.w3.org/1999/xlink" ffdec:objectType="shape" height="136.15px" width="197.5px" xmlns="http://www.w3.org/2000/svg">
  <g transform="matrix(1.0, 0.0, 0.0, 1.0, 98.45, 34.5)">
    <path d="M3.25 -26.75 L2.75 -26.25 1.75 -26.0 1.75 -24.75 2.75 -22.5 6.0 -22.5 Q8.25 -24.75 7.5 -26.25 L6.25 -27.0 6.0 -27.0 5.0 -27.25 3.25 -26.75 M-14.0 -23.25 L-16.0 -26.5 -16.5 -32.0 Q-16.5 -33.5 -10.75 -34.25 L-2.5 -34.0 -1.25 -33.5 -0.75 -33.5 0.0 -33.75 5.75 -34.5 Q13.25 -33.5 13.75 -31.75 L13.75 -27.0 11.25 -23.25 Q9.0 -20.25 5.5 -20.5 L-1.25 -22.25 -8.25 -20.5 Q-14.0 -21.25 -14.0 -23.25 M16.75 0.5 L21.0 10.0 23.5 18.0 29.25 29.5 Q31.0 34.0 38.5 39.25 L43.75 49.0 43.75 57.0 41.0 63.25 31.75 73.5 Q16.25 83.0 3.75 83.5 L-4.5 82.75 Q-34.75 76.5 -40.25 64.0 L-42.25 61.0 -44.5 55.75 Q-42.75 52.5 -43.25 50.25 -30.5 37.25 -19.0 2.25 -14.0 15.0 -1.0 14.25 L2.0 14.25 2.5 14.0 Q10.25 14.75 16.75 0.5 M-7.75 -27.5 L-9.0 -27.0 -9.5 -26.5 -10.25 -26.25 -10.5 -24.25 Q-3.0 -20.25 -5.75 -26.75 L-6.25 -26.75 -7.75 -27.5" fill="#ffffff" fill-rule="evenodd" stroke="none"/>
    <path d="M3.25 -26.75 L5.0 -27.25 6.0 -27.0 6.25 -27.0 7.5 -26.25 Q8.25 -24.75 6.0 -22.5 L2.75 -22.5 1.75 -24.75 1.75 -26.0 2.75 -26.25 3.25 -26.75 M-7.75 -27.5 L-6.25 -26.75 -5.75 -26.75 Q-3.0 -20.25 -10.5 -24.25 L-10.25 -26.25 -9.5 -26.5 -9.0 -27.0 -7.75 -27.5" fill="#000000" fill-rule="evenodd" stroke="none"/>
    <path d="M11.25 -23.25 L13.25 -22.5 18.0 -16.75 18.75 -9.25 Q18.25 -1.75 16.75 0.5 10.25 14.75 2.5 14.0 L2.0 14.25 -1.0 14.25 Q-14.0 15.0 -19.0 2.25 -26.0 -18.0 -14.0 -23.25 -14.0 -21.25 -8.25 -20.5 L-1.25 -22.25 5.5 -20.5 Q9.0 -20.25 11.25 -23.25 M41.0 63.25 L42.75 62.75 47.75 59.0 Q60.25 81.4 50.35 92.0 42.2 100.7 19.0 101.5 L13.25 100.75 9.0 98.75 5.75 93.5 3.75 83.5 Q16.25 83.0 31.75 73.5 L41.0 63.25 M-4.5 82.75 L-4.5 86.0 -6.75 93.5 Q-7.25 99.75 -21.25 101.25 -36.25 102.25 -49.25 94.0 -50.7 93.1 -51.85 92.0 -61.5 82.65 -49.0 58.75 L-40.25 64.0 Q-34.75 76.5 -4.5 82.75" fill="#e58508" fill-rule="evenodd" stroke="none"/>
    <path d="M90.8 45.95 L82.55 36.45 77.3 29.45 71.8 20.2 63.8 14.45 63.55 14.45 63.3 14.2 62.55 13.7 62.05 13.2 52.05 5.95 Q48.8 2.95 47.3 -1.55 L56.8 6.45 59.25 8.05 59.4 8.15 Q68.95 15.45 75.05 17.95 L76.3 18.95 77.4 18.8 77.7 18.85 76.8 19.95 75.45 20.3 Q77.1 22.55 78.55 26.05 L78.85 26.65 84.8 35.55 85.3 36.2 87.8 38.45 90.6 43.2 91.05 43.7 Q94.0 46.9 97.55 49.6 L98.7 50.5 99.05 50.2 98.8 51.95 95.3 51.2 91.05 46.45 90.8 45.95 M55.05 40.45 Q59.2 35.85 61.5 31.35 L61.55 31.7 63.55 27.2 64.3 19.95 Q68.55 39.95 47.8 58.95 L42.8 62.7 41.05 63.2 31.8 73.45 Q16.3 82.95 3.8 83.45 L-4.7 82.7 Q-34.45 76.45 -40.2 63.95 L-48.95 58.7 -52.95 55.45 -60.2 46.2 -64.2 36.2 -65.45 20.2 Q-60.95 41.95 -42.45 49.45 L-43.7 53.2 -34.95 62.45 Q-21.45 71.7 -1.2 73.7 29.8 73.2 43.8 54.45 L43.55 52.2 43.55 51.2 43.8 49.45 43.7 49.25 Q48.95 47.15 55.05 40.45 M13.8 6.2 Q17.2 1.2 18.3 -4.35 17.3 42.15 -0.75 43.45 -21.4 45.35 -21.75 -9.65 -19.75 14.1 -0.75 14.6 L-0.2 14.55 3.7 13.85 4.2 13.7 4.55 13.7 Q6.3 13.7 7.9 12.2 11.0 10.3 13.8 6.2 M5.85 91.95 Q10.4 100.85 26.8 98.95 41.0 96.8 48.15 91.95 51.05 89.95 52.8 87.55 51.4 89.95 49.65 91.95 39.85 102.95 19.05 101.45 8.1 102.3 5.3 91.95 4.8 90.25 4.55 88.2 5.0 90.25 5.85 91.95 M-50.2 -3.05 L-55.9 3.05 -56.4 3.55 -56.5 3.5 -69.7 11.95 -69.95 12.2 -70.45 12.45 -71.95 13.45 -72.45 13.7 -73.2 14.2 -73.95 15.2 -74.45 16.2 -75.2 16.95 -75.45 17.45 -75.45 17.7 -75.95 18.45 -76.2 18.95 -76.7 19.7 -76.95 20.2 -82.45 28.95 -92.95 42.95 -95.95 45.7 -96.7 45.7 -97.45 45.95 -98.2 45.7 -98.45 44.95 -98.4 44.7 -96.25 43.95 -89.45 36.7 -84.7 29.8 -84.2 28.95 -79.1 20.95 -78.15 19.5 -78.05 19.3 Q-76.6 16.6 -75.55 15.2 L-75.95 15.2 -74.45 14.25 -74.4 14.25 -73.6 13.7 -73.6 13.65 -73.9 13.6 Q-71.4 10.9 -62.95 5.95 L-59.65 3.9 -58.4 2.85 -58.4 2.8 -58.1 2.55 -56.5 1.05 Q-54.0 -1.35 -52.0 -2.5 L-50.85 -3.45 -50.75 -3.35 -51.0 -3.0 -50.45 -3.2 -50.2 -3.05 M-49.1 91.95 Q-42.4 96.65 -28.95 98.45 -9.65 99.05 -6.2 91.95 L-6.7 93.45 Q-7.45 102.45 -31.45 100.7 -43.7 100.0 -50.55 91.95 -52.3 89.85 -53.7 87.3 -52.05 89.9 -49.1 91.95" fill="#000000" fill-opacity="0.49803922" fill-rule="evenodd" stroke="none"/>
  </g>
</svg>
