<?xml version="1.0" encoding="UTF-8" standalone="no"?>
<svg xmlns:ffdec="https://www.free-decompiler.com/flash" xmlns:xlink="http://www.w3.org/1999/xlink" ffdec:objectType="shape" height="136.4px" width="212.75px" xmlns="http://www.w3.org/2000/svg">
  <g transform="matrix(1.0, 0.0, 0.0, 1.0, 105.45, 34.9)">
    <path d="M-16.25 -23.5 L-18.25 -27.0 -18.5 -32.5 -14.25 -34.5 Q-6.0 -35.5 -5.0 -34.0 L-3.75 -33.5 -3.25 -33.5 -2.75 -33.75 Q3.5 -36.0 11.5 -31.5 L11.0 -25.75 9.25 -23.0 5.25 -20.5 Q-1.75 -20.75 -4.0 -22.5 -14.5 -19.25 -16.25 -23.5 M14.25 0.25 L19.25 11.75 21.25 19.0 27.5 31.0 Q27.5 32.75 36.5 40.25 L42.0 50.0 42.25 58.25 39.0 65.0 29.5 74.75 Q13.25 83.5 3.75 83.25 L-0.5 83.75 -4.5 83.0 -14.25 81.5 -20.0 79.75 -33.75 72.25 -42.0 62.25 -43.0 60.75 -46.0 54.0 Q-44.25 51.0 -44.75 48.75 -37.75 46.5 -21.5 2.5 -16.75 15.5 -2.0 14.25 L-1.0 14.0 Q7.75 14.25 14.25 0.25 M3.5 -26.75 L2.5 -27.25 0.25 -26.5 0.25 -26.25 Q-2.25 -26.25 0.0 -22.5 L2.75 -22.25 Q6.75 -24.5 3.5 -26.75 M-10.5 -27.75 L-11.75 -27.25 -12.25 -26.75 -13.0 -26.5 -13.25 -24.75 -12.75 -24.25 -10.75 -22.75 -8.25 -23.0 -7.25 -24.5 -7.25 -26.25 -8.25 -26.75 -9.0 -26.75 -9.25 -27.25 -10.5 -27.75" fill="#ffffff" fill-rule="evenodd" stroke="none"/>
    <path d="M3.5 -26.75 Q6.75 -24.5 2.75 -22.25 L0.0 -22.5 Q-2.25 -26.25 0.25 -26.25 L0.25 -26.5 2.5 -27.25 3.5 -26.75 M-10.5 -27.75 L-9.25 -27.25 -9.0 -26.75 -8.25 -26.75 -7.25 -26.25 -7.25 -24.5 -8.25 -23.0 -10.75 -22.75 -12.75 -24.25 -13.25 -24.75 -13.0 -26.5 -12.25 -26.75 -11.75 -27.25 -10.5 -27.75" fill="#000000" fill-rule="evenodd" stroke="none"/>
    <path d="M-16.25 -23.5 Q-14.5 -19.25 -4.0 -22.5 -1.75 -20.75 5.25 -20.5 L9.25 -23.0 11.25 -22.0 15.75 -16.25 16.5 -8.25 14.25 0.25 Q7.75 14.25 -1.0 14.0 L-2.0 14.25 Q-16.75 15.5 -21.5 2.5 -28.25 -19.0 -16.25 -23.5 M39.0 65.0 L42.5 63.5 48.0 59.5 Q59.55 81.5 50.35 92.0 42.4 101.05 19.0 101.5 L14.25 101.0 8.75 98.5 5.75 93.5 3.75 83.25 Q13.25 83.5 29.5 74.75 L39.0 65.0 M-4.5 83.0 L-4.5 86.0 -6.75 93.5 Q-8.5 100.75 -21.5 101.25 -38.75 101.75 -49.25 94.0 L-53.75 88.25 Q-55.75 85.75 -56.0 81.0 L-55.25 73.5 -52.0 64.25 -48.5 58.0 -43.75 61.75 -42.0 62.25 -33.75 72.25 -20.0 79.75 -14.25 81.5 -4.5 83.0" fill="#e58508" fill-rule="evenodd" stroke="none"/>
    <path d="M-50.0 44.25 Q-47.2 47.1 -44.25 48.45 L-44.7 48.7 -44.95 51.95 -37.95 60.2 -33.95 62.95 -22.2 69.2 -4.45 73.45 Q30.3 73.2 42.05 55.95 L42.05 50.0 Q46.8 48.35 52.25 43.35 L58.3 37.95 62.8 30.45 64.05 22.9 61.95 21.2 61.05 20.45 58.25 18.1 59.0 18.65 47.8 9.45 Q46.05 9.2 42.8 1.7 L53.55 11.7 54.75 12.5 56.55 14.05 61.5 17.75 62.2 18.25 62.7 18.9 74.8 27.7 73.8 28.15 74.2 28.3 73.1 28.45 73.15 28.55 76.95 35.45 Q77.5 37.45 80.65 40.8 L85.9 46.3 90.5 51.8 Q93.65 55.55 95.55 57.2 97.3 58.75 100.85 62.85 103.6 65.45 106.75 66.05 L107.3 65.2 107.05 69.2 104.05 68.2 91.3 55.7 90.8 54.95 78.55 40.7 71.3 29.95 70.8 27.95 64.05 22.7 Q67.8 41.7 48.05 59.45 L42.55 63.45 39.05 64.95 29.55 74.7 Q13.3 83.45 3.8 83.2 L-0.45 83.7 -13.95 81.45 Q-18.45 80.7 -24.2 77.45 L-33.7 72.2 -41.95 62.2 -43.7 61.7 -48.45 57.95 Q-64.2 48.45 -65.2 23.7 -62.45 34.7 -50.7 44.2 L-50.0 44.25 M-21.95 0.35 Q-17.1 14.2 -4.7 14.2 7.8 14.2 13.4 2.0 15.5 -2.65 16.35 -7.55 15.6 40.45 -2.75 41.75 -22.45 43.55 -23.65 -6.35 -23.05 -2.85 -21.95 0.35 M-78.2 -10.8 L-78.55 -10.4 -79.25 -10.15 -78.2 -10.8 M-52.7 -8.75 L-51.7 -9.55 -52.0 -9.0 Q-50.95 -9.3 -50.95 -8.4 -50.95 -6.5 -62.6 1.2 L-62.45 0.45 -66.45 2.45 -67.7 2.7 -67.45 2.95 -68.2 2.95 -67.95 3.2 -68.45 3.2 -68.7 3.45 -68.95 3.7 -69.7 4.2 -76.45 7.7 -76.45 8.45 -77.2 9.45 -77.7 9.95 -77.7 10.2 -78.2 10.7 -78.2 11.2 -78.7 11.7 -78.7 11.95 -79.2 12.45 -79.45 12.95 -89.2 26.95 -99.2 39.45 -102.95 42.95 -103.95 42.95 -103.95 43.2 -104.2 43.2 -105.45 43.7 -105.45 41.7 -105.4 41.65 -105.35 41.35 -105.3 41.35 Q-104.0 41.25 -102.65 40.6 L-99.45 37.7 -88.1 23.1 -84.95 18.3 Q-80.75 12.05 -78.35 9.4 L-77.8 8.6 -77.2 7.95 -78.2 8.2 -76.75 7.5 Q-75.2 6.0 -72.7 4.7 -68.05 2.2 -60.7 -2.85 L-55.65 -6.9 -52.7 -8.75 M-49.2 91.95 Q-42.6 96.4 -28.95 98.45 -9.65 99.05 -6.2 91.95 L-6.7 93.45 Q-6.45 101.45 -29.7 100.95 -43.75 100.05 -50.7 91.95 -52.35 90.05 -53.6 87.75 -52.05 90.05 -49.2 91.95 M-4.95 85.45 L-4.7 85.95 -4.95 86.45 -4.95 85.45 M4.55 88.2 Q5.0 90.25 5.85 91.95 10.4 100.85 26.8 98.95 40.7 97.05 47.95 91.95 52.95 88.45 54.8 83.45 53.85 88.35 50.5 91.95 42.15 100.75 19.05 101.45 7.75 101.9 5.2 91.95 4.75 90.25 4.55 88.2" fill="#000000" fill-opacity="0.49803922" fill-rule="evenodd" stroke="none"/>
  </g>
</svg>
