<?xml version="1.0" encoding="UTF-8" standalone="no"?>
<svg xmlns:ffdec="https://www.free-decompiler.com/flash" xmlns:xlink="http://www.w3.org/1999/xlink" ffdec:objectType="shape" height="137.1px" width="219.75px" xmlns="http://www.w3.org/2000/svg">
  <g transform="matrix(1.0, 0.0, 0.0, 1.0, 113.7, 35.6)">
    <path d="M-19.75 -24.25 L-21.75 -28.25 -22.0 -33.5 -17.5 -35.25 Q-13.0 -36.25 -8.75 -34.5 L-7.5 -33.75 -6.5 -34.25 -0.5 -34.5 Q5.0 -33.75 8.25 -31.25 L8.25 -27.75 5.75 -23.0 Q4.0 -20.25 -0.75 -20.5 L-7.75 -22.75 -14.5 -21.5 Q-20.0 -23.0 -19.75 -24.25 M10.25 -0.5 L15.75 12.25 17.75 19.5 24.5 32.5 Q25.25 35.0 34.0 42.0 L39.0 50.75 Q41.75 62.5 36.25 67.25 L27.25 75.75 12.0 81.75 3.75 82.75 -2.75 83.75 -4.75 83.25 -5.5 83.0 -17.75 80.5 -24.5 77.75 -36.5 70.5 -44.25 59.75 -47.75 52.25 Q-46.25 48.75 -47.0 47.0 -33.75 31.0 -25.5 2.75 L-25.25 2.75 Q-18.75 15.5 -9.5 13.75 L-6.5 13.75 Q2.5 14.75 10.25 -0.5 M-1.5 -27.25 L-2.25 -27.25 -3.75 -26.75 -3.75 -26.5 Q-6.5 -23.75 -2.25 -22.25 2.5 -23.25 0.0 -26.5 L-1.5 -27.25 M-13.0 -27.25 L-14.5 -28.25 -15.5 -28.0 -16.0 -27.5 -17.0 -27.0 -17.0 -25.25 -14.25 -23.25 -12.25 -23.5 -11.25 -25.0 -11.25 -26.75 -12.25 -27.25 -13.0 -27.25" fill="#ffffff" fill-rule="evenodd" stroke="none"/>
    <path d="M-13.0 -27.25 L-12.25 -27.25 -11.25 -26.75 -11.25 -25.0 -12.25 -23.5 -14.25 -23.25 -17.0 -25.25 -17.0 -27.0 -16.0 -27.5 -15.5 -28.0 -14.5 -28.25 -13.0 -27.25 M-1.5 -27.25 L0.0 -26.5 Q2.5 -23.25 -2.25 -22.25 -6.5 -23.75 -3.75 -26.5 L-3.75 -26.75 -2.25 -27.25 -1.5 -27.25" fill="#000000" fill-rule="evenodd" stroke="none"/>
    <path d="M5.75 -23.0 Q18.0 -16.5 10.25 -0.5 2.5 14.75 -6.5 13.75 L-9.5 13.75 Q-18.75 15.5 -25.25 2.75 L-25.5 2.75 Q-31.0 -18.75 -19.75 -24.25 -20.0 -23.0 -14.5 -21.5 L-7.75 -22.75 -0.75 -20.5 Q4.0 -20.25 5.75 -23.0 M36.25 67.25 L40.5 65.75 48.75 60.5 Q60.05 81.75 50.25 92.0 42.0 100.6 19.0 101.5 L14.25 101.0 8.75 98.5 5.75 93.5 3.75 82.75 12.0 81.75 27.25 75.75 36.25 67.25 M-4.75 83.25 L-4.5 86.0 -6.0 91.5 -6.75 93.5 Q-15.75 108.75 -49.25 94.0 L-53.75 88.25 Q-55.75 85.75 -56.0 81.0 L-55.25 73.5 -52.0 64.25 -48.25 57.25 -44.25 59.75 -36.5 70.5 -24.5 77.75 -17.75 80.5 -5.5 83.0 -4.75 83.25" fill="#e58508" fill-rule="evenodd" stroke="none"/>
    <path d="M12.55 -8.65 L13.15 -13.2 13.1 -7.7 12.95 -8.05 12.55 -8.65 M11.85 -2.15 L13.05 -5.2 Q11.6 38.8 -5.95 40.05 -24.6 41.75 -26.7 -2.9 L-25.65 0.35 Q-20.55 14.45 -8.8 14.45 0.3 14.45 7.55 5.0 10.1 1.65 11.85 -2.15 M87.8 78.2 L87.8 77.95 87.05 77.2 72.3 54.95 65.8 41.7 65.35 40.05 65.3 39.95 65.55 38.7 63.3 36.7 63.05 36.7 61.55 44.2 58.3 48.95 56.55 52.7 48.8 60.45 40.55 65.7 36.3 67.2 27.3 75.7 12.05 81.7 -2.7 83.7 -17.7 80.45 -24.45 77.7 -36.45 70.45 -44.2 59.7 -48.2 57.2 -53.7 52.2 -61.2 41.7 -64.7 30.45 -65.45 24.7 -64.95 13.45 Q-64.7 27.2 -41.7 40.45 -43.2 44.7 -46.95 46.95 L-46.95 49.95 -39.95 59.45 -25.7 67.95 -7.7 73.2 Q29.05 74.2 39.8 56.2 L39.55 51.95 Q51.25 48.7 60.75 34.3 L55.6 29.0 41.3 14.7 Q36.05 7.95 35.8 5.7 L46.8 18.2 50.15 21.15 51.8 22.95 56.45 27.95 Q62.8 33.0 67.95 39.2 67.8 39.7 67.3 39.7 L66.7 39.4 68.3 43.95 69.95 47.6 Q71.0 49.9 72.15 51.45 74.2 54.15 77.15 58.8 L81.8 66.2 93.05 83.6 Q96.65 88.95 99.15 91.95 102.4 95.85 103.8 95.85 104.65 95.85 105.0 94.45 L105.25 93.75 105.3 92.95 106.05 92.2 104.8 98.2 100.3 95.2 87.8 78.2 M67.85 39.7 L67.8 39.7 67.8 39.65 67.85 39.7 M4.55 88.2 Q4.95 90.25 5.85 91.95 10.3 100.4 26.55 98.95 39.55 97.85 47.75 91.95 50.85 89.7 53.3 86.7 52.35 89.6 50.35 91.95 42.6 100.85 19.05 101.45 7.75 101.9 5.2 91.95 4.75 90.25 4.55 88.2 M-82.2 -2.05 L-85.2 -2.8 -86.2 -3.55 -85.65 -3.75 -82.8 -3.55 Q-79.7 -3.55 -74.55 -5.95 L-72.45 -6.55 -52.95 -17.05 -56.2 -12.05 -60.45 -9.55 -78.2 -2.8 -78.7 -2.05 -79.2 -1.05 -79.95 -0.05 -80.45 0.45 -80.45 0.7 -80.95 1.2 -81.2 1.7 -81.7 2.2 -82.2 2.95 -82.95 3.7 -82.95 3.95 -94.2 18.7 -106.7 33.2 -110.2 36.7 -112.95 37.95 -113.7 37.95 -113.7 34.7 -112.2 36.4 Q-110.7 35.65 -108.1 33.1 L-106.7 30.7 -91.95 14.2 -85.2 5.05 Q-82.1 0.45 -80.2 -1.7 L-82.15 -2.05 -81.8 -2.15 -82.2 -2.05 M-49.0 91.95 Q-42.2 96.0 -27.95 98.45 -10.3 99.05 -6.45 91.95 -5.65 90.5 -5.45 88.7 L-4.95 86.45 -4.95 85.45 -4.7 85.95 -4.95 86.45 -5.95 91.45 -6.7 93.45 Q-7.7 102.45 -31.2 100.7 -43.85 99.65 -50.55 91.95 L-52.65 89.15 Q-51.25 90.65 -49.0 91.95" fill="#000000" fill-opacity="0.49803922" fill-rule="evenodd" stroke="none"/>
  </g>
</svg>
