<?xml version="1.0" encoding="UTF-8" standalone="no"?>
<svg xmlns:ffdec="https://www.free-decompiler.com/flash" xmlns:xlink="http://www.w3.org/1999/xlink" ffdec:objectType="shape" height="164.7px" width="198.5px" xmlns="http://www.w3.org/2000/svg">
  <g transform="matrix(1.0, 0.0, 0.0, 1.0, 119.45, 36.5)">
    <path d="M-24.0 -25.5 L-25.5 -28.25 -26.0 -33.75 -26.0 -34.75 Q-21.0 -38.0 -13.25 -35.25 L-13.5 -34.75 -12.0 -34.5 -11.5 -34.75 -10.75 -35.0 -5.25 -35.0 Q1.75 -33.5 3.75 -31.25 L3.5 -26.5 1.25 -23.25 Q0.0 -21.0 -6.25 -21.0 L-12.5 -23.5 -18.75 -22.5 Q-21.75 -22.25 -24.0 -25.5 M5.5 -1.0 L11.25 12.25 13.5 20.0 20.25 33.0 22.75 36.5 30.5 43.5 36.5 53.75 36.25 55.5 37.5 60.25 35.0 67.5 32.5 69.75 23.5 77.0 7.75 82.25 3.75 82.5 -4.75 83.25 -6.75 83.25 -26.0 77.75 -39.0 68.75 -46.25 57.0 -46.5 57.0 -49.75 49.75 Q-48.5 47.25 -49.25 44.5 L-46.25 42.0 -38.25 25.75 -34.0 14.5 -34.0 12.5 -30.0 3.0 Q-26.5 12.0 -16.25 12.75 L-14.5 13.0 -13.75 13.0 Q-6.0 16.5 5.5 -1.0 M-8.0 -27.25 L-8.75 -27.25 Q-10.75 -27.0 -8.75 -23.25 L-5.5 -23.0 Q-3.25 -24.5 -4.0 -26.0 L-5.5 -27.25 -7.25 -27.75 -8.0 -27.25 M-16.0 -26.0 L-16.0 -27.5 -17.0 -28.25 -17.5 -28.5 -18.25 -29.0 -19.25 -29.25 -20.75 -29.0 -21.0 -28.5 Q-23.25 -27.0 -20.5 -24.75 L-17.75 -24.25 -16.0 -26.0" fill="#ffffff" fill-rule="evenodd" stroke="none"/>
    <path d="M-16.0 -26.0 L-17.75 -24.25 -20.5 -24.75 Q-23.25 -27.0 -21.0 -28.5 L-20.75 -29.0 -19.25 -29.25 -18.25 -29.0 -17.5 -28.5 -17.0 -28.25 -16.0 -27.5 -16.0 -26.0 M-8.0 -27.25 L-7.25 -27.75 -5.5 -27.25 -4.0 -26.0 Q-3.25 -24.5 -5.5 -23.0 L-8.75 -23.25 Q-10.75 -27.0 -8.75 -27.25 L-8.0 -27.25" fill="#000000" fill-rule="evenodd" stroke="none"/>
    <path d="M1.25 -23.25 Q13.5 -16.5 5.5 -1.0 -6.0 16.5 -13.75 13.0 L-14.5 13.0 -16.25 12.75 Q-26.5 12.0 -30.0 3.0 -34.5 -23.75 -24.0 -25.5 -21.75 -22.25 -18.75 -22.5 L-12.5 -23.5 -6.25 -21.0 Q0.0 -21.0 1.25 -23.25 M32.5 69.75 L38.5 67.75 46.25 63.5 48.75 61.25 Q59.9 82.05 50.8 92.0 48.05 95.0 43.5 97.0 9.9 108.25 4.65 92.0 3.35 88.05 3.75 82.5 L7.75 82.25 23.5 77.0 32.5 69.75 M-4.75 83.25 L-4.5 86.0 -6.0 91.5 -5.95 92.0 Q-5.5 98.85 -19.25 101.0 -34.25 102.75 -49.25 94.0 L-54.0 87.75 -56.0 81.0 -55.25 73.5 -52.0 64.25 -47.5 56.25 -46.5 57.0 -46.25 57.0 -39.0 68.75 -26.0 77.75 -6.75 83.25 -4.75 83.25" fill="#e58508" fill-rule="evenodd" stroke="none"/>
    <path d="M-85.75 -6.55 L-80.3 -13.5 -78.75 -15.2 -78.7 -15.3 -82.45 -15.0 Q-79.45 -15.95 -76.15 -17.35 L-74.65 -18.0 -64.95 -21.05 -60.45 -23.3 -54.2 -24.8 -56.95 -20.05 -58.7 -19.3 -78.7 -15.3 -78.95 -14.55 -79.7 -13.3 -96.2 7.2 -110.7 22.95 -115.7 27.7 -119.45 29.2 -119.2 27.35 -118.6 27.6 -117.85 27.45 -117.7 26.95 -117.3 27.2 Q-114.95 25.85 -109.6 20.65 L-105.2 15.1 Q-97.7 5.95 -95.7 4.2 -93.45 2.25 -90.5 -1.15 L-85.75 -6.55 M-29.55 2.35 Q-24.8 13.2 -13.3 13.2 -4.1 13.2 3.35 1.9 6.25 -2.5 8.0 -7.2 6.65 37.15 -11.0 38.4 -29.85 40.15 -31.75 -5.45 -31.15 -1.3 -29.55 2.35 M-44.45 38.2 Q-45.7 42.45 -49.2 44.45 L-49.2 47.45 -42.7 57.45 -28.7 66.95 -11.7 72.7 7.8 72.95 23.8 68.7 36.05 59.95 36.8 57.45 36.8 56.7 36.55 53.7 42.55 51.2 50.55 46.2 50.15 45.4 Q47.9 42.9 46.05 39.65 L44.0 36.05 29.8 16.2 27.05 9.7 27.05 9.5 27.05 9.05 27.7 9.9 27.35 9.8 27.8 9.95 28.25 10.75 42.85 31.0 40.55 27.45 44.5 32.8 45.3 34.05 45.3 34.2 46.0 35.45 47.95 38.25 48.55 39.0 49.1 39.85 54.5 47.8 56.3 50.2 56.3 50.35 56.95 50.95 57.3 51.45 56.55 51.2 56.05 50.95 56.0 50.75 55.55 50.8 54.6 50.65 Q55.3 53.8 55.8 58.95 56.5 65.65 57.15 68.55 59.45 78.95 62.45 87.45 L63.9 91.95 Q65.9 98.55 68.95 110.55 72.85 122.95 77.8 124.9 L77.8 124.95 77.3 125.7 77.05 126.2 75.8 128.2 72.05 122.7 62.45 91.95 58.3 76.95 58.05 76.45 54.8 63.95 54.5 59.1 54.25 57.55 54.1 56.65 46.3 63.45 38.55 67.7 32.55 69.7 23.55 76.95 7.8 82.2 -4.7 83.2 -6.7 83.2 -25.95 77.7 -38.95 68.7 -46.2 56.95 -46.45 56.95 -47.45 56.2 Q-66.95 43.15 -65.25 11.1 -65.5 24.4 -44.45 38.2 M-49.15 91.95 Q-42.4 96.2 -27.95 98.45 -10.3 99.05 -6.45 91.95 -5.65 90.5 -5.45 88.7 L-4.95 86.45 -4.95 85.45 -4.7 85.95 -4.95 86.45 -5.95 91.45 -5.9 91.95 Q-5.3 101.7 -29.7 100.95 -43.4 100.05 -50.5 91.95 L-52.6 89.2 -49.15 91.95 M16.05 98.7 L26.05 98.95 Q40.5 97.2 48.05 91.95 51.35 89.65 53.3 86.7 52.7 89.55 50.6 91.95 44.5 98.75 25.8 101.7 8.75 103.9 5.3 91.95 4.75 90.2 4.55 88.2 L6.55 93.2 9.8 96.45 16.05 98.7 M78.3 123.7 L78.8 122.2 79.05 121.95 78.3 123.7" fill="#000000" fill-opacity="0.49803922" fill-rule="evenodd" stroke="none"/>
  </g>
</svg>
