<?xml version="1.0" encoding="UTF-8" standalone="no"?>
<svg xmlns:ffdec="https://www.free-decompiler.com/flash" xmlns:xlink="http://www.w3.org/1999/xlink" ffdec:objectType="shape" height="177.55px" width="182.75px" xmlns="http://www.w3.org/2000/svg">
  <g transform="matrix(1.0, 0.0, 0.0, 1.0, 119.95, 38.1)">
    <path d="M0.25 -2.0 L-1.5 0.25 Q-8.75 12.5 -20.25 11.75 L-23.0 11.25 Q-25.75 11.5 -29.75 9.25 L-35.0 2.75 -36.5 -2.0 -36.75 -11.25 -36.5 -11.75 -36.0 -14.5 -33.75 -22.25 Q-32.75 -25.0 -28.75 -27.0 L-28.0 -26.0 -24.5 -24.0 -17.75 -24.75 -11.75 -22.0 Q-6.25 -21.25 -4.0 -23.75 8.75 -16.75 0.25 -2.0 M-47.5 56.25 Q-33.5 82.5 -4.5 82.5 L-4.5 86.0 -6.0 91.5 -5.95 92.0 Q-5.5 98.85 -19.25 101.0 -36.75 102.25 -49.25 94.0 L-54.0 87.75 -56.0 81.0 -55.25 73.5 -52.0 64.25 -47.5 56.25 M3.75 82.25 L19.25 78.0 28.5 71.75 32.25 70.75 32.25 71.5 32.0 72.25 28.25 91.0 28.0 91.75 28.0 92.25 26.25 101.5 16.25 101.5 Q11.0 100.25 8.75 98.5 6.5 96.5 5.25 92.0 L3.75 82.25" fill="#e58508" fill-rule="evenodd" stroke="none"/>
    <path d="M0.25 -2.0 L1.5 -0.25 8.75 19.75 15.75 33.5 Q16.5 36.5 26.0 44.25 L32.75 55.0 34.0 62.0 Q32.75 70.5 28.5 71.75 L19.25 78.0 3.75 82.25 -4.5 82.5 Q-33.5 82.5 -47.5 56.25 L-48.25 54.0 -48.75 53.5 -51.75 46.75 Q-50.5 44.25 -51.5 41.75 -48.5 41.25 -42.5 25.25 L-35.0 2.75 -29.75 9.25 Q-25.75 11.5 -23.0 11.25 L-20.25 11.75 Q-8.75 12.5 -1.5 0.25 L0.25 -2.0 M-14.0 -28.5 L-14.5 -28.0 Q-16.0 -27.75 -14.5 -24.5 L-11.0 -24.0 -9.75 -25.0 -9.5 -27.25 -12.25 -29.0 -12.75 -28.75 -14.0 -28.5 M-28.75 -27.0 L-30.25 -30.0 Q-31.25 -35.0 -30.25 -36.5 L-27.0 -38.0 Q-21.0 -38.5 -18.25 -36.5 L-17.0 -35.75 -16.75 -36.0 -10.75 -36.0 Q-4.5 -34.75 -1.25 -31.75 L-1.5 -27.25 -4.0 -23.75 Q-6.25 -21.25 -11.75 -22.0 L-17.75 -24.75 -24.5 -24.0 -28.0 -26.0 -28.75 -27.0 M-25.5 -30.75 L-25.5 -30.5 -26.0 -30.25 -26.75 -30.5 -27.25 -28.5 -26.75 -27.5 -23.75 -25.75 Q-20.0 -26.75 -22.5 -29.75 L-23.0 -30.0 -23.5 -30.5 -25.0 -31.0 -25.5 -30.75" fill="#ffffff" fill-rule="evenodd" stroke="none"/>
    <path d="M-14.0 -28.5 L-12.75 -28.75 -12.25 -29.0 -9.5 -27.25 -9.75 -25.0 -11.0 -24.0 -14.5 -24.5 Q-16.0 -27.75 -14.5 -28.0 L-14.0 -28.5 M-25.5 -30.75 L-25.0 -31.0 -23.5 -30.5 -23.0 -30.0 -22.5 -29.75 Q-20.0 -26.75 -23.75 -25.75 L-26.75 -27.5 -27.25 -28.5 -26.75 -30.5 -26.0 -30.25 -25.5 -30.5 -25.5 -30.75" fill="#000000" fill-rule="evenodd" stroke="none"/>
    <path d="M1.1 -4.3 L3.25 -10.0 Q2.05 35.45 -15.8 36.7 -33.45 38.3 -36.25 -1.65 -35.85 -0.15 -35.25 1.2 -30.65 11.7 -18.2 11.7 -5.9 11.7 1.1 -4.3 M-83.1 -28.05 L-72.15 -30.3 -63.2 -31.8 -53.7 -32.3 -56.45 -27.8 -76.45 -27.55 -77.45 -26.55 -77.45 -26.3 -77.6 -26.05 -77.7 -25.8 -95.2 -4.3 -112.95 14.45 -115.7 16.95 -119.95 18.95 -119.75 17.95 Q-117.35 17.35 -114.6 15.2 -112.85 13.85 -110.2 11.1 L-109.65 10.55 -105.45 5.45 -97.2 -2.8 -94.95 -6.3 -93.6 -7.35 -87.1 -15.7 Q-79.5 -25.3 -76.45 -27.55 L-81.2 -27.8 -83.1 -28.05 M-47.2 35.7 Q-49.45 38.2 -48.7 39.45 L-51.45 41.7 -51.2 44.45 -44.95 55.7 Q-36.45 64.95 -16.2 71.7 25.55 74.95 33.3 58.95 L32.8 55.2 35.5 54.55 35.2 54.6 30.95 45.7 30.3 44.7 20.3 22.95 18.55 17.6 17.2 14.25 17.45 13.7 17.55 13.6 Q18.1 13.85 18.5 14.9 L19.4 17.3 21.55 21.85 29.3 38.0 34.6 49.45 35.3 50.7 35.2 50.85 36.95 55.3 37.4 56.25 40.2 59.45 40.15 59.7 39.65 59.85 39.1 59.7 39.05 59.7 Q38.3 59.3 37.4 58.05 L37.3 57.95 34.3 64.7 34.05 65.45 33.8 65.95 33.8 66.2 33.55 66.95 33.3 67.2 33.3 67.45 33.05 68.95 32.8 69.7 32.55 69.95 32.3 71.45 32.3 70.7 28.55 71.7 19.3 77.95 3.8 82.2 -4.7 82.45 Q-33.45 82.45 -47.45 56.2 L-48.2 53.95 -48.7 53.45 Q-68.6 34.3 -65.3 7.85 -66.55 21.9 -47.2 35.7 M-49.1 91.95 Q-42.3 96.2 -27.95 98.45 -10.3 99.05 -6.45 91.95 -5.65 90.5 -5.45 88.7 L-4.95 86.45 -4.95 85.45 -4.7 85.95 -4.95 86.45 -5.95 91.45 -6.0 91.95 Q-7.45 101.95 -27.2 101.2 -43.5 99.95 -50.75 91.95 L-53.45 88.15 Q-51.9 90.2 -49.1 91.95 M62.8 29.7 L62.8 39.45 61.05 45.2 60.05 41.45 62.05 37.45 62.8 29.7 M4.55 88.2 Q5.0 90.25 5.85 91.95 10.4 100.8 26.8 98.7 L26.3 101.45 19.3 101.45 Q7.6 101.9 5.15 91.95 4.7 90.25 4.55 88.2 M57.05 89.7 L52.05 100.95 41.05 118.2 28.8 134.7 22.8 139.45 22.05 135.95 22.05 135.8 22.85 135.95 Q25.4 135.95 28.6 133.7 L40.8 117.95 57.3 88.95 57.05 89.7" fill="#000000" fill-opacity="0.49803922" fill-rule="evenodd" stroke="none"/>
  </g>
</svg>
