<?xml version="1.0" encoding="UTF-8" standalone="no"?>
<svg xmlns:ffdec="https://www.free-decompiler.com/flash" xmlns:xlink="http://www.w3.org/1999/xlink" ffdec:objectType="shape" height="166.25px" width="165.4px" xmlns="http://www.w3.org/2000/svg">
  <g transform="matrix(1.0, 0.0, 0.0, 1.0, 102.8, 40.3)">
    <path d="M-34.0 -29.0 L-33.75 -29.0 -30.5 -26.25 -23.25 -26.5 Q-15.0 -21.0 -8.75 -25.0 4.25 -13.0 -5.25 -3.75 -16.0 11.75 -26.0 10.0 L-27.75 9.75 -28.5 9.5 Q-32.25 9.5 -36.0 7.0 L-39.75 2.25 -42.0 -5.0 Q-42.75 -12.25 -39.75 -20.5 L-38.25 -24.0 -34.0 -29.0 M-4.5 82.0 L-5.0 88.0 -7.25 91.0 -7.5 91.5 -12.0 97.75 -12.5 98.25 -13.5 99.75 Q-41.25 103.5 -51.25 92.0 L-54.75 86.25 -56.0 79.5 -55.0 72.5 -51.75 63.5 -48.0 56.75 -45.5 62.0 -43.25 65.25 -33.25 74.25 -13.5 82.0 -4.5 82.0 M29.75 89.0 L41.0 76.75 Q43.25 69.25 42.25 68.25 L42.5 67.0 49.75 62.5 Q59.25 79.5 52.5 89.25 51.8 90.7 50.7 92.0 43.4 100.65 19.25 101.5 L15.75 101.25 16.75 99.75 17.0 99.75 18.25 98.5 19.0 98.0 19.75 97.25 29.75 89.0" fill="#e58508" fill-rule="evenodd" stroke="none"/>
    <path d="M-16.5 -25.5 L-15.0 -27.5 -15.25 -29.0 -18.0 -30.5 -18.5 -30.25 -19.75 -30.25 -20.0 -29.75 Q-21.5 -30.5 -21.25 -27.5 L-20.0 -26.0 -16.5 -25.5 M-34.0 -29.0 L-35.25 -32.75 -35.25 -37.0 -34.75 -38.5 Q-34.5 -40.75 -27.5 -39.75 L-22.25 -37.5 -22.0 -37.5 -21.25 -37.75 -15.5 -37.25 Q-7.0 -34.5 -6.5 -32.75 L-6.5 -28.75 -8.75 -25.0 Q-15.0 -21.0 -23.25 -26.5 L-30.5 -26.25 -33.75 -29.0 -34.0 -29.0 M-5.25 -3.75 L1.25 11.0 3.75 19.25 9.5 29.75 9.5 30.0 13.25 44.25 13.5 44.75 13.5 45.0 14.0 46.5 14.0 46.75 14.75 49.25 15.0 49.5 15.25 50.75 18.25 61.25 12.0 66.25 -0.25 82.0 -4.5 82.0 -13.5 82.0 -33.25 74.25 -43.25 65.25 -45.5 62.0 -48.0 56.75 -52.75 45.75 -53.25 39.0 Q-51.0 38.0 -45.75 23.0 L-39.75 2.25 -36.0 7.0 Q-32.25 9.5 -28.5 9.5 L-27.75 9.75 -26.0 10.0 Q-16.0 11.75 -5.25 -3.75 M-32.0 -31.5 Q-33.5 -30.75 -31.0 -28.25 L-27.75 -27.75 -26.75 -30.75 -27.75 -31.5 -28.25 -32.0 -29.0 -32.5 -30.0 -32.75 -30.5 -32.25 -32.0 -31.5" fill="#ffffff" fill-rule="evenodd" stroke="none"/>
    <path d="M-16.5 -25.5 L-20.0 -26.0 -21.25 -27.5 Q-21.5 -30.5 -20.0 -29.75 L-19.75 -30.25 -18.5 -30.25 -18.0 -30.5 -15.25 -29.0 -15.0 -27.5 -16.5 -25.5 M-32.0 -31.5 L-30.5 -32.25 -30.0 -32.75 -29.0 -32.5 -28.25 -32.0 -27.75 -31.5 -26.75 -30.75 -27.75 -27.75 -31.0 -28.25 Q-33.5 -30.75 -32.0 -31.5" fill="#000000" fill-rule="evenodd" stroke="none"/>
    <path d="M-65.3 12.95 Q-64.1 16.9 -61.45 20.6 -57.05 26.85 -54.25 29.45 L-52.25 31.15 -49.95 33.45 -51.7 37.45 Q-51.95 48.7 -48.2 52.7 L-36.7 62.95 -20.45 70.45 -1.7 72.7 8.3 71.2 -0.2 81.95 -13.7 81.95 -31.95 74.7 -40.45 67.7 Q-45.7 63.45 -45.45 61.95 L-50.7 50.45 Q-64.1 38.85 -65.3 12.95 M-41.35 -2.5 L-40.95 -1.55 Q-35.95 9.7 -23.95 9.7 -16.3 9.7 -9.0 1.95 -5.35 -1.95 -3.1 -6.05 L-2.0 -9.1 Q-3.6 33.8 -20.95 35.05 -38.45 36.65 -41.35 -2.5 M-73.45 -37.55 L-73.45 -37.8 -72.95 -37.8 -73.7 -36.8 -73.45 -37.55 M-55.45 -34.8 L-58.95 -34.8 -71.7 -37.55 -72.2 -37.8 -72.95 -37.8 -73.7 -38.05 -74.2 -38.3 -80.2 -39.8 -74.95 -40.3 -61.2 -37.8 -60.2 -37.05 -54.2 -37.05 -55.45 -34.8 M-90.45 -15.55 L-102.8 -1.95 -101.2 -3.8 -100.45 -5.55 -92.7 -13.55 -90.95 -16.55 -76.7 -33.3 -76.45 -33.8 -75.7 -34.55 -74.95 -35.55 -73.7 -36.8 -90.45 -15.55 M-48.35 91.95 Q-36.25 100.85 -10.95 96.2 L-11.95 97.7 -12.45 98.2 -13.45 99.7 -22.7 101.2 -27.7 101.2 -38.45 99.2 Q-46.65 97.2 -51.1 91.95 -53.85 88.7 -55.2 84.2 -52.55 88.9 -48.35 91.95 M-4.95 86.45 L-4.95 87.95 -5.7 88.95 -5.45 88.45 -4.95 86.45 -4.95 85.45 -4.7 85.95 -4.95 86.45 M57.55 45.95 L61.3 37.95 61.8 30.7 Q65.8 45.7 49.8 62.45 L42.55 66.95 42.3 68.2 41.55 67.2 45.05 59.7 44.95 56.7 45.65 56.2 47.75 54.6 Q48.7 54.65 51.3 52.45 L57.55 45.95 M-14.9 119.5 Q-11.35 117.6 -6.85 114.75 L9.05 103.8 9.2 103.95 14.7 99.85 18.9 96.35 24.6 91.95 28.8 88.7 29.4 88.2 31.85 85.3 Q32.9 84.1 33.85 83.55 L37.1 79.9 40.4 76.35 41.25 74.6 41.55 73.7 41.4 74.5 41.65 74.5 41.8 74.95 Q41.8 75.8 41.2 76.95 40.55 78.45 38.15 80.95 L37.85 81.25 Q34.35 85.0 27.7 90.45 L25.85 91.95 Q23.9 93.5 21.85 95.15 L22.8 94.7 18.3 98.7 Q38.4 99.05 48.0 91.95 52.6 88.55 54.8 83.45 53.75 88.35 50.5 91.95 42.1 101.1 19.3 101.45 L15.05 101.2 13.3 103.2 7.55 106.7 7.3 106.7 0.8 110.95 0.55 111.2 -5.2 114.95 -22.7 124.2 -29.45 125.95 -28.1 122.45 Q-26.5 123.3 -25.35 123.3 -23.1 123.3 -19.0 121.5 L-14.9 119.5 M10.9 33.35 L13.45 42.05 Q14.9 47.65 16.8 52.55 L17.2 53.6 19.45 61.95 19.3 62.05 19.55 62.95 19.05 62.95 18.3 61.2 17.05 56.7 17.05 56.5 Q15.35 51.6 13.1 43.95 9.55 31.85 9.55 30.4 L9.6 30.05 9.55 29.95 9.55 29.7 9.65 29.9 9.65 29.85 10.05 29.7 10.15 29.9 10.9 33.35 M54.8 81.95 L55.05 81.95 54.8 82.2 54.8 81.95" fill="#000000" fill-opacity="0.49803922" fill-rule="evenodd" stroke="none"/>
  </g>
</svg>
