<?xml version="1.0" encoding="UTF-8" standalone="no"?>
<svg xmlns:ffdec="https://www.free-decompiler.com/flash" xmlns:xlink="http://www.w3.org/1999/xlink" ffdec:objectType="shape" height="153.25px" width="163.3px" xmlns="http://www.w3.org/2000/svg">
  <g transform="matrix(1.0, 0.0, 0.0, 1.0, 102.45, 48.55)">
    <path d="M-44.0 1.75 Q-42.25 5.0 -39.75 6.0 L-33.5 7.75 -32.75 7.75 -32.0 8.0 Q-22.0 10.25 -11.25 -4.25 L-10.75 -5.0 -2.75 11.75 -2.25 22.0 -2.0 23.75 -2.0 25.0 -1.75 26.25 -1.75 28.25 -1.5 28.75 -1.5 31.0 -1.25 31.75 -1.0 34.0 -1.0 34.5 -0.75 36.25 -0.75 36.5 2.25 60.25 -4.0 62.5 -26.0 77.0 -35.75 72.75 -46.0 62.75 -48.5 58.0 -52.75 47.25 -53.25 46.75 -54.25 43.5 -55.0 37.25 -53.75 35.75 -49.0 22.25 -44.0 1.75 M-14.0 -26.25 L-20.0 -24.75 Q-23.25 -24.75 -28.5 -28.25 L-34.75 -28.0 Q-37.5 -28.75 -38.5 -30.75 L-39.75 -34.25 Q-40.5 -38.5 -39.25 -40.75 L-36.75 -42.0 Q-30.75 -42.25 -28.75 -40.0 L-27.5 -39.25 -27.0 -39.25 -26.5 -39.5 -21.25 -39.0 -11.25 -34.25 -11.5 -30.5 -14.0 -26.25 M-25.5 -31.5 L-26.5 -31.25 -26.25 -28.75 -25.5 -27.75 Q-17.75 -27.0 -22.25 -31.5 L-23.5 -32.25 -24.0 -32.0 -25.25 -31.75 -25.5 -31.5 M-34.25 -34.5 L-35.0 -34.75 -35.5 -35.0 -36.5 -34.5 Q-39.0 -32.0 -34.75 -29.75 -30.75 -30.0 -33.0 -33.5 L-33.5 -34.0 -34.25 -34.5 M24.75 71.5 L26.0 70.0 26.0 71.0 24.75 71.5" fill="#ffffff" fill-rule="evenodd" stroke="none"/>
    <path d="M-34.25 -34.5 L-33.5 -34.0 -33.0 -33.5 Q-30.75 -30.0 -34.75 -29.75 -39.0 -32.0 -36.5 -34.5 L-35.5 -35.0 -35.0 -34.75 -34.25 -34.5 M-25.5 -31.5 L-25.25 -31.75 -24.0 -32.0 -23.5 -32.25 -22.25 -31.5 Q-17.75 -27.0 -25.5 -27.75 L-26.25 -28.75 -26.5 -31.25 -25.5 -31.5" fill="#000000" fill-rule="evenodd" stroke="none"/>
    <path d="M-44.0 1.75 L-46.0 -2.0 Q-49.25 -8.25 -43.5 -24.0 L-41.25 -28.0 -38.5 -30.75 Q-37.5 -28.75 -34.75 -28.0 L-28.5 -28.25 Q-23.25 -24.75 -20.0 -24.75 L-14.0 -26.25 Q-4.5 -19.75 -7.5 -10.25 L-8.25 -8.75 -10.75 -5.0 -11.25 -4.25 Q-22.0 10.25 -32.0 8.0 L-32.75 7.75 -33.5 7.75 -39.75 6.0 Q-42.25 5.0 -44.0 1.75 M-48.5 58.0 L-46.0 62.75 -35.75 72.75 -26.0 77.0 -49.5 93.5 -51.15 92.0 Q-53.15 89.95 -54.25 87.25 L-56.0 81.0 -55.25 73.5 -52.0 64.25 -48.5 58.0 M-15.5 96.5 L-6.5 92.75 Q-6.5 102.25 -32.0 100.5 L-31.25 100.25 -31.0 100.25 -30.25 100.0 -30.0 100.0 -15.5 96.5 M5.1 92.0 Q4.65 90.3 4.5 88.25 L18.75 80.25 22.25 73.75 Q40.0 71.0 49.75 62.25 60.3 82.1 50.15 92.0 41.75 100.15 19.25 101.5 7.55 101.95 5.1 92.0" fill="#e58508" fill-rule="evenodd" stroke="none"/>
    <path d="M-102.45 -3.55 L-71.95 -41.8 -71.7 -42.3 -71.2 -42.8 -70.7 -43.55 -69.7 -44.55 -78.2 -48.55 -73.7 -48.3 -60.95 -43.55 -59.95 -42.55 -54.95 -41.8 -55.7 -39.8 -62.45 -41.55 -69.7 -44.55 -85.7 -23.05 -102.45 -3.55 M-46.5 -3.75 L-46.2 -3.0 Q-41.35 7.7 -29.55 7.7 -21.65 7.7 -16.1 1.9 -14.35 0.0 -12.8 -2.35 -11.5 -4.1 -10.45 -6.25 L-7.15 -11.65 Q-8.6 32.1 -26.15 33.35 -43.55 34.95 -46.5 -3.75 M-50.7 22.45 L-49.95 24.45 -49.95 24.95 -53.7 35.7 -53.4 36.1 Q-53.75 37.25 -53.75 38.9 L-53.85 40.75 -53.5 42.15 -53.1 44.0 -53.05 44.1 -52.7 45.65 -51.4 48.6 -50.7 50.7 -39.2 61.45 -23.95 69.2 -16.2 70.45 -25.95 76.95 -35.7 72.7 -45.95 62.7 -48.45 57.95 -52.7 47.2 -53.2 46.7 Q-67.95 27.45 -65.95 -0.05 L-64.2 6.7 -60.7 13.2 Q-53.2 21.95 -50.7 22.45 M-47.95 92.45 L-49.45 93.45 -52.2 90.7 -55.2 84.2 -53.45 87.7 -47.95 92.45 M-2.95 91.2 L-3.45 91.45 -3.7 91.45 -6.45 92.7 Q-6.45 102.2 -31.95 100.45 L-32.2 100.45 -34.2 100.95 -34.7 101.2 -54.45 104.7 -60.7 104.2 -58.1 101.0 -57.55 102.0 Q-56.3 103.6 -53.8 103.6 L-49.95 103.2 -39.7 101.7 -2.2 90.45 -0.25 89.6 Q0.55 88.2 3.55 87.0 L9.8 84.3 Q18.3 79.0 20.05 76.55 L22.2 73.4 Q25.3 69.9 27.15 66.6 28.85 63.65 29.85 60.15 33.5 59.6 39.25 57.7 42.45 56.6 44.5 55.6 L44.55 55.7 47.05 54.7 Q57.55 49.45 60.8 32.95 L60.8 33.2 Q61.55 52.45 49.8 62.2 40.6 70.5 24.2 73.45 L20.15 77.95 Q18.65 80.7 17.8 80.7 L4.55 88.2 Q4.8 90.25 5.6 91.95 9.7 100.8 29.05 98.7 41.3 96.25 47.85 91.95 53.3 88.35 54.8 83.45 53.5 88.35 50.25 91.95 41.65 101.45 19.3 101.45 7.6 101.9 5.15 91.95 4.7 90.25 4.55 88.2 L-1.7 90.7 -2.2 90.95 -2.95 91.2 M-7.2 92.95 L-14.2 95.95 -23.2 98.45 Q-7.7 97.2 -7.2 92.95 M55.05 81.95 L54.8 82.2 54.8 81.95 55.05 81.95" fill="#000000" fill-opacity="0.49803922" fill-rule="evenodd" stroke="none"/>
  </g>
</svg>
