<?xml version="1.0" encoding="UTF-8" standalone="no"?>
<svg xmlns:ffdec="https://www.free-decompiler.com/flash" xmlns:xlink="http://www.w3.org/1999/xlink" ffdec:objectType="shape" height="159.15px" width="159.05px" xmlns="http://www.w3.org/2000/svg">
  <g transform="matrix(1.0, 0.0, 0.0, 1.0, 98.95, 57.3)">
    <path d="M-42.0 -35.0 L-42.0 -34.25 -41.25 -32.25 -40.0 -31.5 -37.75 -31.5 -37.0 -34.5 -38.0 -35.25 -38.25 -35.5 -39.0 -35.5 -40.0 -36.5 -40.75 -36.5 -41.75 -35.75 -41.75 -35.5 -42.0 -35.0 M-42.75 -32.25 L-44.25 -36.0 -44.0 -42.25 Q-44.0 -43.75 -39.25 -43.5 L-33.75 -41.75 -32.5 -41.0 -26.5 -40.75 -16.25 -35.75 -16.5 -31.75 -18.75 -27.75 Q-25.5 -24.25 -33.25 -30.0 L-39.5 -29.5 -42.75 -32.25 M-14.5 -7.0 L-8.5 7.0 -9.0 21.75 -8.5 42.5 -7.5 51.75 -7.5 52.0 -7.0 57.75 -7.25 58.5 -13.0 60.0 -37.25 71.75 -46.0 63.0 -48.75 59.0 -49.0 59.0 -51.25 54.5 -54.5 45.0 -54.75 44.75 -55.5 42.25 -56.25 36.5 -53.5 29.25 -50.75 18.25 -47.5 1.75 -43.5 4.75 -39.0 5.75 -38.25 6.0 -37.0 6.25 Q-29.25 9.75 -14.5 -7.0 M-30.25 -33.75 L-30.75 -33.5 Q-33.5 -29.5 -27.25 -28.75 L-26.0 -29.75 -25.75 -31.5 -27.5 -33.25 -29.0 -33.75 -30.25 -33.75 M7.25 78.75 L11.0 74.25 10.5 72.5 14.0 72.25 15.0 71.25 15.0 71.0 18.5 65.5 18.5 65.0 19.75 63.5 21.0 53.5 Q30.5 71.5 18.0 74.25 L10.75 78.25 7.25 78.75" fill="#ffffff" fill-rule="evenodd" stroke="none"/>
    <path d="M-42.0 -35.0 L-41.75 -35.5 -41.75 -35.75 -40.75 -36.5 -40.0 -36.5 -39.0 -35.5 -38.25 -35.5 -38.0 -35.25 -37.0 -34.5 -37.75 -31.5 -40.0 -31.5 -41.25 -32.25 -42.0 -34.25 -42.0 -35.0 M-30.25 -33.75 L-29.0 -33.75 -27.5 -33.25 -25.75 -31.5 -26.0 -29.75 -27.25 -28.75 Q-33.5 -29.5 -30.75 -33.5 L-30.25 -33.75" fill="#000000" fill-rule="evenodd" stroke="none"/>
    <path d="M-18.75 -27.75 Q-15.4 -25.2 -13.45 -22.65 -7.75 -15.05 -14.5 -7.0 -29.25 9.75 -37.0 6.25 L-38.25 6.0 -39.0 5.75 -43.5 4.75 -47.5 1.75 Q-55.75 -6.1 -48.05 -22.65 -46.0 -27.15 -42.75 -32.25 L-39.5 -29.5 -33.25 -30.0 Q-25.5 -24.25 -18.75 -27.75 M-37.25 71.75 L-37.25 72.0 -55.75 81.5 -55.0 72.25 -51.75 63.5 -49.0 59.0 -48.75 59.0 -46.0 63.0 -37.25 71.75 M-6.0 91.5 L-6.05 92.0 Q-7.15 99.8 -19.5 101.0 -39.25 102.0 -49.0 93.75 L-29.25 91.5 -4.75 84.75 -6.0 91.5 M18.0 74.25 Q40.75 71.5 49.5 61.75 61.2 80.3 49.75 92.0 46.55 95.25 41.5 98.0 24.5 104.5 11.25 100.0 7.5 100.0 5.25 92.0 4.05 87.75 3.25 81.25 L6.25 80.0 7.25 78.75 10.75 78.25 18.0 74.25" fill="#e58508" fill-rule="evenodd" stroke="none"/>
    <path d="M-98.95 -7.55 L-69.95 -45.3 -69.45 -46.05 -69.2 -46.55 -68.45 -47.3 -76.7 -52.3 -73.2 -51.8 -61.7 -45.8 -57.2 -44.3 -57.95 -42.8 -68.45 -47.3 -82.45 -27.55 -98.95 -7.55 M-78.95 -57.3 L-79.05 -56.45 -79.2 -56.35 -79.2 -56.8 -78.95 -57.3 M-49.95 -1.85 L-48.8 -0.2 Q-43.9 6.2 -35.05 6.2 -26.2 6.2 -17.5 -3.65 -13.35 -8.3 -11.05 -13.3 -12.7 29.35 -30.0 30.55 -46.3 32.05 -49.95 -1.85 M-52.2 23.45 L-55.2 34.45 -54.95 35.65 -55.0 37.05 Q-55.0 41.05 -54.65 42.35 -54.1 44.45 -51.5 48.45 -49.35 51.9 -46.95 54.6 L-46.95 54.7 -41.2 60.45 -28.2 67.45 -37.2 71.7 -45.95 62.95 -48.7 58.95 -48.95 58.95 -51.2 54.45 -54.45 44.95 -54.7 44.7 Q-65.6 31.85 -66.7 5.8 L-65.0 8.95 Q-57.65 18.5 -52.2 22.6 L-52.2 23.45 M-7.05 56.7 L-7.2 55.7 -7.2 53.7 -7.05 56.7 M-7.0 57.95 L-7.0 58.45 -7.2 58.45 -7.0 57.95 M-7.5 51.25 L-7.45 51.5 -7.45 51.7 -7.5 51.25 M-66.95 94.2 L-72.2 92.95 -69.95 90.45 -69.7 92.95 -67.2 93.45 -50.35 91.95 Q-19.1 88.8 -4.4 84.3 L-0.7 82.5 4.15 79.8 4.15 79.75 10.55 73.6 10.55 72.95 Q10.95 72.6 11.3 72.35 L12.05 72.2 11.7 72.25 12.05 71.75 Q16.4 68.05 17.65 64.7 19.7 59.35 20.7 55.65 L21.4 52.7 Q21.4 56.0 19.45 62.25 L19.05 64.45 18.9 64.1 18.65 64.75 18.65 64.85 18.7 64.8 Q23.9 64.25 30.3 61.65 L33.05 60.45 38.05 58.7 48.05 52.7 Q55.3 46.7 55.3 44.45 L55.65 44.45 56.6 42.1 58.8 36.95 60.0 32.15 60.1 32.9 60.05 37.7 Q59.8 52.7 49.55 61.7 40.8 71.45 18.05 74.2 L10.8 78.2 8.4 78.55 Q6.9 79.8 5.9 80.1 L5.8 80.2 5.6 80.3 3.65 81.65 3.55 81.2 3.3 81.2 -4.7 84.95 -29.7 91.45 -46.45 93.45 Q-15.25 103.9 -7.1 91.95 -6.1 90.5 -5.45 88.7 L-4.95 86.45 -5.95 91.45 -6.0 91.95 Q-7.1 99.75 -19.45 100.95 -39.2 101.95 -48.95 93.7 L-66.95 94.2 M-4.95 86.45 L-4.95 85.45 -4.7 85.95 -4.95 86.45 M4.55 88.2 Q4.85 90.25 5.65 91.95 9.9 100.8 28.8 98.7 40.5 97.45 47.7 91.95 52.1 88.55 54.8 83.45 53.1 88.35 49.9 91.95 42.1 100.65 25.3 101.7 7.0 102.55 4.85 91.95 4.5 90.25 4.55 88.2 M54.8 81.95 L55.05 81.95 54.8 82.2 54.8 81.95" fill="#000000" fill-opacity="0.49803922" fill-rule="evenodd" stroke="none"/>
  </g>
</svg>
