<?xml version="1.0" encoding="UTF-8" standalone="no"?>
<svg xmlns:ffdec="https://www.free-decompiler.com/flash" xmlns:xlink="http://www.w3.org/1999/xlink" ffdec:objectType="shape" height="159.15px" width="149.05px" xmlns="http://www.w3.org/2000/svg">
  <g transform="matrix(1.0, 0.0, 0.0, 1.0, 89.5, 57.05)">
    <path d="M-45.25 -33.0 L-46.75 -36.75 -46.75 -43.0 -44.75 -44.25 Q-40.0 -45.25 -36.5 -42.75 L-35.25 -41.75 -29.75 -41.75 -25.0 -40.0 -19.0 -36.5 -19.5 -31.25 -21.25 -28.75 Q-27.0 -25.0 -36.0 -30.75 L-42.0 -30.5 Q-45.5 -32.0 -45.25 -33.0 M-17.0 -8.0 L-10.75 5.75 -11.75 19.25 -11.5 41.0 -10.5 54.0 -10.25 55.0 -10.25 58.25 -14.75 58.75 -39.25 70.25 -45.5 64.0 -49.25 59.25 -52.25 53.5 -55.25 44.25 -55.5 44.0 -57.0 36.0 -54.25 27.75 -49.25 1.75 -47.0 3.25 -42.0 4.75 -41.5 5.0 -40.25 5.25 Q-31.0 8.75 -17.0 -8.0 M-42.5 -37.5 L-43.0 -37.5 -44.0 -37.0 -44.5 -36.25 -45.0 -35.0 -44.0 -33.5 -43.75 -33.0 -40.25 -32.25 Q-39.0 -36.25 -40.75 -36.25 L-41.25 -36.5 -41.75 -37.0 -42.5 -37.5 M-34.25 -33.5 L-33.75 -31.0 -33.25 -30.5 Q-26.0 -29.0 -29.75 -33.75 L-30.5 -34.0 -30.75 -34.5 -31.75 -34.75 -33.0 -34.5 -33.25 -34.0 -34.25 -33.5 M3.5 79.25 L2.75 79.25 7.0 74.25 7.0 72.0 10.5 72.0 11.5 71.5 12.75 69.0 12.75 68.75 13.25 68.25 13.5 67.75 14.5 66.25 14.75 66.0 15.25 65.25 15.25 65.0 16.5 63.0 17.5 51.75 17.75 50.75 17.75 50.25 18.0 50.25 22.0 56.0 Q22.25 59.75 24.5 63.25 24.25 70.0 23.0 70.75 L17.0 74.0 9.75 78.0 3.5 79.25" fill="#ffffff" fill-rule="evenodd" stroke="none"/>
    <path d="M-42.5 -37.5 L-41.75 -37.0 -41.25 -36.5 -40.75 -36.25 Q-39.0 -36.25 -40.25 -32.25 L-43.75 -33.0 -44.0 -33.5 -45.0 -35.0 -44.5 -36.25 -44.0 -37.0 -43.0 -37.5 -42.5 -37.5 M-34.25 -33.5 L-33.25 -34.0 -33.0 -34.5 -31.75 -34.75 -30.75 -34.5 -30.5 -34.0 -29.75 -33.75 Q-26.0 -29.0 -33.25 -30.5 L-33.75 -31.0 -34.25 -33.5" fill="#000000" fill-rule="evenodd" stroke="none"/>
    <path d="M-21.25 -28.75 Q-8.0 -18.25 -17.0 -8.0 -31.0 8.75 -40.25 5.25 L-41.5 5.0 -42.0 4.75 -47.0 3.25 -49.25 1.75 Q-56.5 -3.75 -51.75 -21.5 L-51.5 -22.0 -49.25 -27.75 -45.25 -33.0 Q-45.5 -32.0 -42.0 -30.5 L-36.0 -30.75 Q-27.0 -25.0 -21.25 -28.75 M-39.25 70.25 L-39.25 70.5 -56.0 79.0 -55.0 72.25 -51.75 63.5 -49.25 59.25 -45.5 64.0 -39.25 70.25 M-6.0 91.5 L-6.05 92.0 Q-7.7 101.0 -23.5 101.25 L-36.75 99.75 Q-47.75 96.25 -50.75 92.25 L-33.0 90.5 -10.75 85.0 -4.5 82.25 -4.5 86.0 -6.0 91.5 M17.0 74.0 Q40.75 71.25 49.25 61.25 61.15 80.35 49.8 92.0 46.55 95.3 41.5 98.0 10.55 108.5 4.7 92.0 2.9 86.9 3.5 79.25 L9.75 78.0 17.0 74.0" fill="#e58508" fill-rule="evenodd" stroke="none"/>
    <path d="M-79.2 -56.8 L-78.95 -57.05 -78.7 -56.55 -79.2 -56.8 M-81.2 -30.05 L-81.45 -29.55 -83.45 -26.8 -83.7 -26.55 -84.7 -25.05 -85.45 -24.3 -85.7 -23.8 -87.45 -22.05 -89.45 -19.3 Q-89.95 -20.8 -83.95 -26.55 L-83.45 -28.3 -81.2 -31.05 -80.45 -31.05 -80.7 -30.55 -81.2 -30.05 M-73.2 -52.55 L-61.45 -46.05 -58.7 -45.3 -59.2 -43.8 -67.95 -47.55 -68.2 -47.55 -76.45 -53.05 -73.2 -52.55 M-79.2 -33.3 L-74.45 -40.3 -69.2 -46.05 -77.95 -34.05 -79.2 -33.3 M-79.95 -31.55 L-80.45 -31.8 -79.7 -32.05 -79.95 -31.55 M-20.4 -4.3 Q-16.1 -8.95 -13.7 -13.7 -15.4 28.55 -32.6 29.75 -49.0 31.25 -52.6 -3.15 -48.0 5.45 -36.55 5.45 -29.35 5.45 -20.4 -4.3 M-57.6 18.25 L-57.45 18.45 -53.2 21.7 -55.95 33.95 -55.7 35.9 -55.45 40.65 Q-55.1 42.1 -52.45 47.45 -50.65 50.85 -48.05 54.0 L-47.95 54.1 -47.95 54.2 -42.45 59.95 -30.7 66.2 -39.2 70.2 -45.45 63.95 -49.2 59.2 -52.2 53.45 -55.2 44.2 -55.45 43.95 Q-65.6 31.0 -67.25 6.65 L-65.35 9.95 Q-62.45 13.95 -57.9 18.0 L-57.6 18.25 M-67.7 91.9 L-51.2 91.45 -15.95 85.7 -4.3 81.55 -4.9 81.75 0.45 77.95 0.7 77.8 Q4.7 76.8 8.85 72.2 12.35 68.35 14.7 63.6 15.4 62.2 16.6 56.5 L17.7 50.5 17.8 50.2 17.8 50.95 17.95 52.1 Q17.95 54.2 16.95 58.55 L16.85 59.7 16.9 59.75 16.95 60.2 16.6 62.8 16.55 62.95 16.55 63.0 15.7 65.1 21.5 63.75 24.15 63.05 29.55 61.45 32.75 60.0 40.1 56.7 40.2 56.65 Q43.85 54.35 49.05 50.45 L49.05 50.5 50.6 48.65 57.45 40.05 Q58.75 38.1 59.3 35.3 L59.55 37.95 59.3 40.6 Q57.75 53.9 49.3 61.2 40.8 71.2 17.05 73.95 L9.8 77.95 3.55 79.2 2.8 79.2 -11.95 85.2 -30.45 89.95 -48.45 91.95 Q-42.95 96.2 -32.7 97.95 L-20.2 98.45 -10.7 96.2 -6.6 91.95 -5.8 90.75 -5.95 91.45 -6.0 91.95 Q-7.65 100.95 -23.45 101.2 L-36.7 99.7 Q-47.7 96.2 -50.7 92.2 L-58.7 92.95 -69.95 92.7 -75.2 91.45 -72.95 89.2 -72.9 89.75 Q-71.95 90.85 -69.3 91.45 L-67.7 91.9 M-4.95 86.45 L-4.95 85.45 -4.7 85.95 -4.95 86.45 -5.4 88.8 -5.45 88.7 -4.95 86.45 M6.3 94.45 L4.95 89.65 5.95 91.95 Q10.9 100.8 28.55 98.7 41.35 96.05 48.0 91.95 53.45 88.55 54.65 84.1 53.6 88.55 50.4 91.95 43.85 98.85 28.3 101.45 L16.55 101.45 9.55 98.95 Q6.55 96.45 6.3 94.45" fill="#000000" fill-opacity="0.49803922" fill-rule="evenodd" stroke="none"/>
  </g>
</svg>
