<?xml version="1.0" encoding="UTF-8" standalone="no"?>
<svg xmlns:ffdec="https://www.free-decompiler.com/flash" xmlns:xlink="http://www.w3.org/1999/xlink" ffdec:objectType="shape" height="154.8px" width="164.5px" xmlns="http://www.w3.org/2000/svg">
  <g transform="matrix(1.0, 0.0, 0.0, 1.0, 105.2, 53.3)">
    <path d="M-22.25 -29.0 Q-8.5 -18.5 -18.0 -8.25 -32.25 8.5 -40.75 5.0 L-42.0 4.75 -47.25 3.25 -50.0 1.5 Q-61.0 -10.25 -46.0 -33.25 L-43.0 -30.75 -36.75 -31.0 Q-26.5 -25.25 -22.25 -29.0 M-40.0 69.75 L-55.75 77.75 -55.0 72.25 -49.5 59.5 -49.0 59.75 -49.0 60.0 -40.0 69.75 M-51.0 91.75 L-32.5 89.75 -12.25 84.75 -4.5 81.5 -4.5 86.0 -6.0 91.5 -6.05 92.0 Q-7.7 101.0 -23.75 101.25 -42.0 100.75 -50.75 92.0 L-51.0 91.75 M16.5 74.0 Q39.75 71.75 49.0 61.25 58.5 73.75 52.75 88.75 L50.2 92.0 Q40.95 101.7 19.5 101.5 L13.5 100.75 8.0 97.75 5.25 92.0 3.5 79.0 10.25 77.75 16.5 74.0" fill="#e58508" fill-rule="evenodd" stroke="none"/>
    <path d="M-46.0 -33.25 L-47.5 -37.0 -47.5 -43.25 -44.75 -44.75 Q-39.5 -44.75 -37.25 -43.0 L-37.25 -42.25 -36.0 -42.0 -35.0 -42.25 -29.5 -41.75 -19.75 -36.75 -20.5 -31.25 -22.25 -29.0 Q-26.5 -25.25 -36.75 -31.0 L-43.0 -30.75 -46.0 -33.25 M-18.0 -8.25 L-15.75 -4.75 -11.75 5.25 -13.0 18.5 -12.75 42.0 -12.0 49.5 -12.0 49.75 -11.75 52.0 -11.75 57.75 -16.5 58.75 -40.0 69.75 -49.0 60.0 -49.0 59.75 -49.5 59.5 -52.75 53.0 -55.25 44.25 -55.75 43.5 -56.25 41.75 -57.25 36.0 -54.25 26.25 -54.5 24.75 -51.75 13.5 -50.0 1.5 -47.25 3.25 -42.0 4.75 -40.75 5.0 Q-32.25 8.5 -18.0 -8.25 M-35.25 -32.0 L-34.25 -31.0 Q-26.75 -29.25 -31.0 -34.25 L-31.0 -34.5 -31.5 -34.5 -32.75 -35.0 -33.75 -34.5 -34.5 -34.5 -35.25 -32.0 M-45.75 -35.25 L-44.75 -33.75 Q-39.0 -30.5 -41.5 -36.5 L-42.75 -36.5 -43.25 -37.75 -44.25 -37.0 -45.25 -36.5 -45.75 -35.25 M3.5 79.0 L0.75 79.5 5.75 74.0 5.75 72.0 9.25 71.75 10.25 71.25 11.5 68.75 11.5 68.5 12.0 68.0 12.5 67.25 12.75 66.75 13.75 65.25 13.75 64.5 15.0 63.25 16.0 52.75 16.0 52.25 16.25 51.5 16.25 50.5 16.75 49.5 20.75 54.75 24.0 62.75 Q24.0 68.25 22.75 70.5 L16.5 74.0 10.25 77.75 3.5 79.0" fill="#ffffff" fill-rule="evenodd" stroke="none"/>
    <path d="M-45.75 -35.25 L-45.25 -36.5 -44.25 -37.0 -43.25 -37.75 -42.75 -36.5 -41.5 -36.5 Q-39.0 -30.5 -44.75 -33.75 L-45.75 -35.25 M-35.25 -32.0 L-34.5 -34.5 -33.75 -34.5 -32.75 -35.0 -31.5 -34.5 -31.0 -34.5 -31.0 -34.25 Q-26.75 -29.25 -34.25 -31.0 L-35.25 -32.0" fill="#000000" fill-rule="evenodd" stroke="none"/>
    <path d="M-81.8 -30.35 L-82.3 -29.8 -80.95 -31.7 Q-78.35 -35.4 -75.75 -38.05 L-69.35 -46.4 -67.95 -48.0 -67.95 -47.8 -68.7 -46.8 -68.95 -46.3 -77.7 -34.3 -79.7 -32.05 -79.7 -31.8 -80.45 -31.05 -80.45 -30.8 -80.7 -30.55 -83.7 -26.55 -84.45 -25.8 -84.45 -25.55 -85.7 -23.8 -87.7 -21.8 -93.45 -13.8 -101.2 -5.3 -105.2 -3.3 -105.1 -3.9 Q-100.1 -7.8 -95.3 -13.2 L-89.65 -20.0 -89.7 -20.05 -89.2 -20.55 -89.1 -20.65 -85.25 -25.6 -82.7 -29.2 -82.75 -28.75 -82.7 -29.3 -81.8 -30.35 M-75.45 -53.3 L-73.2 -53.05 -62.45 -46.8 -59.2 -45.8 -59.95 -44.3 -67.95 -48.05 -75.95 -53.3 -75.45 -53.3 M-53.3 -3.75 L-50.95 -0.45 Q-46.0 5.2 -37.45 5.2 -33.95 5.2 -30.85 2.9 L-30.55 2.8 Q-27.0 0.85 -23.1 -3.0 L-21.15 -5.05 -19.05 -7.45 Q-16.25 -10.9 -14.45 -14.45 L-14.45 -14.35 -14.3 -14.65 -14.35 -14.15 -16.05 3.9 Q-17.2 10.65 -19.05 15.6 L-19.15 15.85 -19.3 16.3 -19.4 16.55 -19.5 16.85 -19.55 17.05 -19.7 17.35 -19.85 17.7 -20.0 18.05 -20.05 18.2 -20.2 18.55 -20.35 18.9 -20.5 19.25 -20.6 19.4 -20.8 19.8 -20.9 19.95 -21.05 20.25 -21.15 20.45 -21.25 20.65 -21.35 20.85 -21.45 21.0 -21.55 21.1 -21.65 21.3 -21.75 21.45 -21.85 21.65 -22.0 21.85 -22.1 22.05 -22.2 22.2 -22.35 22.4 -22.5 22.65 -22.6 22.8 -22.75 23.05 -23.0 23.35 -23.2 23.65 -23.45 23.95 -23.7 24.25 -23.95 24.55 -24.05 24.65 -24.55 25.2 -24.6 25.3 -24.75 25.45 -25.1 25.75 -25.25 25.9 -25.4 26.05 -25.55 26.2 -25.65 26.25 -25.8 26.4 -25.9 26.5 -26.1 26.65 -26.3 26.8 -26.4 26.9 -26.6 27.0 -26.7 27.1 -26.8 27.2 -27.0 27.3 -27.15 27.45 -27.7 27.8 -27.8 27.85 -27.95 27.9 -28.25 28.05 -28.35 28.1 -28.5 28.2 -28.6 28.25 -28.85 28.35 -28.95 28.4 -29.1 28.5 -29.2 28.55 -29.3 28.6 -29.65 28.7 -29.9 28.8 -30.1 28.85 -30.35 28.95 -30.6 29.0 -30.7 29.05 -30.85 29.05 -31.05 29.1 -31.3 29.15 -31.5 29.2 -31.65 29.25 -31.9 29.3 -32.05 29.3 -32.15 29.35 -32.45 29.4 -33.25 29.45 -36.0 29.45 -37.1 29.3 -37.2 29.25 -37.45 28.8 Q-50.2 25.95 -53.3 -3.75 M-58.95 16.85 L-57.95 18.2 -56.8 19.05 -53.45 21.5 -56.2 33.95 -56.15 34.4 -56.2 35.55 Q-56.2 38.1 -55.25 41.65 -54.2 45.35 -52.85 47.35 L-47.95 54.3 -47.95 54.45 -41.45 60.45 -31.45 65.7 -39.95 69.7 -48.95 59.95 -48.95 59.7 -49.45 59.45 -52.7 52.95 -55.2 44.2 -59.95 36.7 -63.95 27.45 -67.2 11.95 -67.75 5.7 Q-65.85 8.9 -63.45 11.95 L-58.5 17.5 -58.95 16.85 M-70.85 91.45 Q-10.65 88.65 2.8 76.7 L5.55 73.95 5.55 71.7 Q7.55 72.7 11.05 67.2 L11.25 67.65 Q13.2 64.5 13.9 61.85 L15.05 55.55 Q15.7 51.35 16.3 49.45 L16.45 49.8 16.55 49.45 16.55 49.95 16.5 50.05 16.8 52.3 15.9 58.5 Q15.9 61.5 14.05 65.6 L17.9 63.65 17.45 63.9 18.15 63.95 Q19.75 63.95 24.05 62.4 L25.15 62.0 Q38.35 59.7 48.8 50.2 L48.9 50.55 50.15 48.9 Q52.85 45.45 55.7 42.1 L57.85 38.05 59.1 35.5 59.3 38.2 Q59.3 40.7 58.35 43.3 L57.05 50.45 Q53.05 57.95 49.05 61.2 39.8 71.7 16.55 73.95 L10.3 77.7 0.8 79.45 0.55 79.45 0.05 79.7 -12.2 84.7 -32.45 89.7 -49.2 91.45 -48.45 91.95 Q-37.6 99.2 -20.2 98.45 L-10.7 96.2 -6.6 91.95 -5.8 90.75 -5.95 91.45 -6.0 91.95 Q-7.65 100.95 -23.7 101.2 -41.95 100.7 -50.7 91.95 L-50.95 91.7 -71.2 92.2 -76.2 90.95 -73.95 88.45 -73.95 89.45 -71.75 90.85 -70.85 91.45 M-4.95 86.45 L-4.95 85.45 -4.7 85.95 -4.95 86.45 M-5.45 88.7 L-5.05 87.05 -5.4 88.8 -5.45 88.7 M6.0 91.95 Q10.9 100.8 28.55 98.7 41.4 96.05 48.0 91.95 52.35 89.25 54.0 85.9 52.6 89.3 50.2 91.95 41.55 101.45 19.55 101.45 7.6 101.9 5.15 91.95 4.7 90.25 4.55 88.2 5.05 90.25 6.0 91.95" fill="#000000" fill-opacity="0.49803922" fill-rule="evenodd" stroke="none"/>
  </g>
</svg>
