<?xml version="1.0" encoding="UTF-8" standalone="no"?>
<svg xmlns:ffdec="https://www.free-decompiler.com/flash" xmlns:xlink="http://www.w3.org/1999/xlink" ffdec:objectType="shape" height="155.35px" width="164.5px" xmlns="http://www.w3.org/2000/svg">
  <g transform="matrix(1.0, 0.0, 0.0, 1.0, 105.2, 53.3)">
    <path d="M-45.75 -33.25 L-47.25 -36.5 -47.5 -43.25 -44.75 -44.75 Q-39.5 -44.75 -37.25 -43.0 L-37.25 -42.25 -36.0 -42.0 -29.5 -41.75 -21.5 -38.25 -19.75 -36.75 -19.75 -33.25 -22.0 -29.0 Q-28.25 -25.25 -36.75 -31.0 L-42.75 -30.75 Q-44.75 -31.25 -45.75 -33.25 M-17.75 -8.25 L-11.75 5.25 -13.0 18.25 -12.75 42.75 -11.5 57.75 -17.0 59.0 -40.0 69.75 -49.0 59.75 -49.5 59.5 -52.5 53.25 -55.25 44.25 -56.0 43.25 -56.0 43.0 -57.25 35.75 -54.5 27.25 -50.0 1.5 -47.5 3.25 -40.75 5.0 Q-32.25 8.5 -17.75 -8.25 M-34.25 -34.25 L-35.0 -33.75 -34.75 -31.5 -34.25 -31.0 Q-27.0 -28.5 -30.75 -34.25 L-31.0 -34.5 -31.25 -34.5 -32.75 -35.0 -34.0 -34.5 -34.25 -34.25 M-42.5 -37.25 L-43.25 -37.75 -44.25 -37.5 -45.25 -36.5 -45.75 -35.25 -44.75 -33.75 Q-38.5 -31.0 -41.5 -36.5 L-42.0 -36.75 -42.5 -37.25 M3.5 79.0 L1.0 79.5 6.0 73.75 5.75 72.0 9.25 72.0 13.25 66.25 13.75 64.75 15.25 62.25 16.0 53.0 16.0 52.5 16.25 51.75 16.25 50.75 16.5 50.25 16.5 49.5 20.75 54.75 24.0 62.75 Q24.0 68.25 22.75 70.5 L16.5 74.0 10.25 77.75 3.5 79.0" fill="#ffffff" fill-rule="evenodd" stroke="none"/>
    <path d="M-42.5 -37.25 L-42.0 -36.75 -41.5 -36.5 Q-38.5 -31.0 -44.75 -33.75 L-45.75 -35.25 -45.25 -36.5 -44.25 -37.5 -43.25 -37.75 -42.5 -37.25 M-34.25 -34.25 L-34.0 -34.5 -32.75 -35.0 -31.25 -34.5 -31.0 -34.5 -30.75 -34.25 Q-27.0 -28.5 -34.25 -31.0 L-34.75 -31.5 -35.0 -33.75 -34.25 -34.25" fill="#000000" fill-rule="evenodd" stroke="none"/>
    <path d="M-22.0 -29.0 Q-8.75 -18.5 -17.75 -8.25 -32.25 8.5 -40.75 5.0 L-47.5 3.25 -50.0 1.5 -51.75 -0.75 -54.0 -6.25 -54.5 -13.0 -52.75 -21.25 -52.5 -21.75 -52.5 -22.0 -50.0 -27.75 Q-48.25 -32.0 -45.75 -33.25 -44.75 -31.25 -42.75 -30.75 L-36.75 -31.0 Q-28.25 -25.25 -22.0 -29.0 M-40.0 69.75 L-55.75 77.75 -55.0 72.25 -49.5 59.5 -49.0 59.75 -40.0 69.75 M-50.8 92.0 L-51.0 91.75 -34.25 90.25 -12.0 84.75 -4.5 81.5 -4.5 86.0 -6.0 91.5 -6.05 92.0 Q-7.45 101.0 -24.0 101.25 -43.7 100.25 -50.8 92.0 M16.5 74.0 Q41.0 71.25 49.25 61.25 60.6 81.3 50.4 92.0 46.85 95.7 40.75 98.25 24.75 104.75 9.75 99.0 6.5 96.25 5.25 92.0 L3.5 79.0 10.25 77.75 16.5 74.0" fill="#e58508" fill-rule="evenodd" stroke="none"/>
    <path d="M-82.45 -29.55 L-71.1 -44.6 -67.95 -48.0 -67.95 -47.8 -68.2 -47.3 -68.7 -46.8 -68.95 -46.3 -69.45 -45.8 -69.7 -45.3 -79.7 -31.8 -80.45 -31.05 -80.45 -30.8 -83.7 -26.55 -84.2 -26.05 -84.7 -25.05 -87.45 -22.05 -93.7 -13.55 -101.2 -5.3 -105.2 -3.3 -105.05 -4.6 Q-98.7 -7.6 -82.7 -29.2 L-82.5 -29.45 -82.45 -29.55 M-72.45 -52.8 L-67.2 -49.3 -58.95 -45.8 -59.7 -44.3 -67.95 -48.05 -75.95 -53.3 -75.2 -53.05 -72.45 -52.8 M-24.1 -2.2 Q-21.15 -4.15 -19.05 -7.3 -16.15 -10.65 -14.3 -13.95 -16.0 28.3 -33.2 29.5 -49.65 31.0 -53.2 -3.65 -49.1 5.2 -37.55 5.2 -34.9 5.2 -30.45 2.5 -27.2 0.55 -24.1 -2.2 M-53.55 21.95 L-55.05 28.75 -55.7 30.25 Q-56.25 32.0 -56.25 35.55 -56.25 37.55 -54.55 42.5 -52.95 47.15 -52.0 48.45 L-48.0 54.1 -47.95 54.45 -47.15 55.2 -46.7 55.75 Q-44.55 58.15 -42.5 59.45 L-41.45 60.45 -31.45 65.7 -39.95 69.7 -48.95 59.7 -49.45 59.45 -52.45 53.2 -55.2 44.2 -55.95 43.2 -55.95 42.95 -60.45 35.7 -64.2 26.45 -67.2 11.7 -67.7 5.4 -65.6 9.35 Q-61.4 14.75 -57.95 18.2 L-53.55 21.95 M-71.45 91.45 Q-7.7 88.2 2.8 76.95 L5.55 73.95 5.55 71.7 Q7.3 72.7 11.05 67.45 13.4 63.2 13.95 60.8 L14.3 59.0 Q16.3 53.65 17.0 49.6 L17.05 50.0 16.75 51.5 16.9 52.7 16.45 56.1 16.05 59.0 Q16.05 61.05 14.25 65.6 L20.0 62.75 23.95 62.2 Q37.1 60.25 47.6 51.3 L47.65 51.25 55.15 40.7 Q57.85 36.55 58.95 33.3 L59.3 38.2 59.3 38.35 59.3 38.8 59.3 39.3 59.3 39.45 58.2 46.35 58.2 46.45 Q55.95 55.3 49.3 61.2 41.05 71.2 16.55 73.95 L10.3 77.7 1.05 79.45 -12.95 84.95 -34.2 90.2 -49.2 91.45 -48.45 91.95 Q-37.6 99.2 -20.2 98.45 L-11.45 96.45 -7.95 94.2 -6.45 92.2 -4.95 86.45 -4.95 85.45 -4.7 85.95 -4.95 86.45 -5.95 91.45 -6.0 91.95 Q-7.4 100.95 -23.95 101.2 -43.65 100.2 -50.75 91.95 L-50.95 91.7 -71.2 92.2 -76.2 90.95 -73.95 88.45 -73.95 90.7 -71.45 91.45 M5.65 91.95 Q9.8 100.35 28.55 98.7 41.35 96.05 48.0 91.95 53.45 88.55 54.65 84.1 53.6 88.55 50.4 91.95 43.85 98.85 28.3 101.45 8.75 104.55 5.25 91.95 4.75 90.2 4.55 88.2 4.8 90.25 5.65 91.95" fill="#000000" fill-opacity="0.49803922" fill-rule="evenodd" stroke="none"/>
  </g>
</svg>
