<?xml version="1.0" encoding="UTF-8" standalone="no"?>
<svg xmlns:ffdec="https://www.free-decompiler.com/flash" xmlns:xlink="http://www.w3.org/1999/xlink" ffdec:objectType="shape" height="155.15px" width="165.25px" xmlns="http://www.w3.org/2000/svg">
  <g transform="matrix(1.0, 0.0, 0.0, 1.0, 105.7, 53.05)">
    <path d="M-42.75 -37.5 L-43.25 -37.25 -44.25 -36.25 -44.75 -35.0 -43.75 -33.5 Q-37.5 -31.0 -40.5 -36.0 L-41.5 -36.25 -42.75 -37.5 M-49.25 1.5 L-46.75 3.5 -42.0 4.75 -41.5 5.0 -40.25 5.25 Q-30.0 8.25 -16.75 -8.0 L-10.75 5.5 -11.75 14.25 -11.5 42.5 -10.5 51.75 -10.5 53.0 -10.25 54.0 -10.25 57.75 -10.5 58.0 -15.25 59.0 -39.25 70.5 -49.25 59.25 -52.5 53.0 -55.0 44.5 -55.5 43.75 -57.0 36.0 -54.25 28.0 -49.25 1.5 M-21.0 -28.75 Q-27.75 -25.0 -35.75 -30.75 L-42.0 -30.5 -45.0 -33.0 -46.25 -35.75 Q-47.25 -40.25 -46.25 -43.0 -42.25 -46.0 -36.25 -42.5 L-35.0 -41.75 -34.0 -42.0 -29.0 -41.5 -18.75 -36.5 -19.0 -32.25 -21.0 -28.75 M-33.25 -34.0 L-34.0 -33.75 -33.75 -32.75 -33.5 -31.0 -33.0 -30.25 Q-25.75 -29.0 -29.75 -34.0 L-30.25 -34.0 -30.5 -34.5 -31.5 -34.75 -33.0 -34.25 -33.25 -34.0 M3.5 79.25 L2.75 79.25 7.0 74.25 7.25 72.25 10.75 72.0 13.0 68.75 13.25 68.25 15.25 65.0 15.5 64.5 15.5 64.25 16.5 63.25 17.5 52.25 17.5 51.5 17.75 50.75 18.0 50.75 22.0 56.0 24.25 62.75 23.5 69.75 Q23.25 71.0 17.0 74.0 L10.75 77.75 3.5 79.25" fill="#ffffff" fill-rule="evenodd" stroke="none"/>
    <path d="M-42.75 -37.5 L-41.5 -36.25 -40.5 -36.0 Q-37.5 -31.0 -43.75 -33.5 L-44.75 -35.0 -44.25 -36.25 -43.25 -37.25 -42.75 -37.5 M-33.25 -34.0 L-33.0 -34.25 -31.5 -34.75 -30.5 -34.5 -30.25 -34.0 -29.75 -34.0 Q-25.75 -29.0 -33.0 -30.25 L-33.5 -31.0 -33.75 -32.75 -34.0 -33.75 -33.25 -34.0" fill="#000000" fill-rule="evenodd" stroke="none"/>
    <path d="M-49.25 1.5 Q-56.75 -5.0 -51.5 -21.75 L-51.25 -22.25 -49.25 -27.25 -45.0 -33.0 -42.0 -30.5 -35.75 -30.75 Q-27.75 -25.0 -21.0 -28.75 -7.75 -17.25 -16.75 -8.0 -30.0 8.25 -40.25 5.25 L-41.5 5.0 -42.0 4.75 -46.75 3.5 -49.25 1.5 M-49.25 59.25 L-39.25 70.5 -56.0 79.0 -55.0 72.25 -52.25 64.75 -49.25 59.25 M-6.0 92.0 Q-6.5 100.5 -24.25 101.25 -44.0 100.0 -50.75 92.25 L-32.25 90.5 -10.75 85.0 -4.5 82.5 -4.5 86.0 -6.0 91.5 -6.0 92.0 M17.0 74.0 Q40.75 71.25 49.25 61.25 61.15 80.35 49.8 92.0 46.55 95.3 41.5 98.0 10.55 108.5 4.7 92.0 2.9 86.9 3.5 79.25 L10.75 77.75 17.0 74.0" fill="#e58508" fill-rule="evenodd" stroke="none"/>
    <path d="M-16.65 -8.6 Q-14.75 -11.65 -13.3 -15.1 -14.7 29.05 -32.3 30.3 -48.85 31.8 -52.35 -3.2 -48.0 5.2 -38.45 5.2 -25.05 5.2 -16.65 -8.6 M-105.5 -3.8 Q-99.35 -7.2 -83.45 -28.8 L-71.7 -44.3 Q-69.6 -46.8 -68.4 -47.7 L-76.2 -53.05 -75.45 -52.8 -72.95 -52.55 -66.7 -48.8 -58.45 -45.3 -59.2 -43.8 -68.2 -47.55 -68.2 -47.3 -68.95 -46.55 -68.95 -46.3 -77.45 -34.55 -77.95 -34.05 -84.2 -25.55 -84.7 -25.05 -86.45 -22.8 -88.2 -21.05 -95.95 -10.8 -101.7 -4.8 -105.7 -2.8 -105.5 -3.8 M-60.2 14.95 L-56.7 18.95 -53.45 21.1 -52.95 21.5 -55.95 34.2 -55.35 37.0 Q-54.75 41.9 -51.7 47.95 -50.05 51.25 -47.7 54.25 L-47.7 54.45 -42.7 59.7 -30.45 66.2 -39.2 70.45 -49.2 59.2 -52.45 52.95 -54.95 44.45 -59.7 36.95 -63.7 27.7 -66.95 12.2 -67.7 4.95 -67.65 2.8 -65.2 8.05 Q-63.1 11.1 -60.2 14.35 L-60.2 14.95 M-72.7 88.95 L-72.7 91.45 -70.45 91.95 Q-23.55 88.7 -5.85 82.95 L-9.95 84.7 -32.2 90.45 -48.45 91.95 Q-17.45 105.0 -7.4 91.95 -6.3 90.5 -5.45 88.7 L-4.95 86.45 -4.95 85.45 -4.7 85.95 -4.95 86.45 -5.95 91.45 -5.95 91.95 Q-6.45 100.45 -24.2 101.2 -43.95 99.95 -50.7 92.2 L-59.95 92.95 -69.95 92.7 -75.2 91.45 -72.7 88.95 M57.2 40.45 Q58.6 38.25 59.4 36.15 L59.55 38.2 57.3 50.45 Q53.8 57.45 49.3 61.2 40.8 71.2 17.05 73.95 L10.8 77.7 3.55 79.2 2.8 79.2 1.1 79.95 Q3.4 78.5 4.3 76.95 L7.05 73.7 7.05 71.95 8.8 71.95 11.3 68.85 12.25 67.25 12.7 66.55 Q14.55 63.35 15.2 61.35 L15.25 61.25 15.9 59.15 Q17.25 54.7 17.85 51.4 L17.95 52.25 Q17.95 55.25 16.85 60.2 L16.55 63.2 15.9 63.85 15.55 65.1 20.4 62.85 Q25.2 62.4 31.5 60.15 L32.0 60.0 32.05 60.2 37.05 58.45 45.3 53.7 Q54.55 46.7 54.3 44.7 L54.65 44.6 57.2 40.45 M5.45 91.95 Q9.1 99.95 28.55 98.7 41.25 95.9 47.85 91.95 52.85 88.95 54.3 85.35 53.05 89.05 50.4 91.95 43.75 99.15 28.3 101.45 8.7 104.55 5.25 91.95 L4.85 90.25 5.45 91.95" fill="#000000" fill-opacity="0.49803922" fill-rule="evenodd" stroke="none"/>
  </g>
</svg>
