<?xml version="1.0" encoding="UTF-8" standalone="no"?>
<svg xmlns:ffdec="https://www.free-decompiler.com/flash" xmlns:xlink="http://www.w3.org/1999/xlink" ffdec:objectType="shape" height="158.7px" width="159.05px" xmlns="http://www.w3.org/2000/svg">
  <g transform="matrix(1.0, 0.0, 0.0, 1.0, 98.95, 57.05)">
    <path d="M-42.75 -32.25 L-44.25 -36.0 Q-45.0 -41.5 -43.75 -42.25 -41.25 -45.25 -33.75 -41.5 L-32.5 -41.0 -26.5 -40.75 -16.25 -35.75 -16.5 -31.75 -18.75 -27.75 Q-21.0 -25.75 -27.5 -26.75 L-33.5 -30.0 -39.5 -29.5 -42.75 -32.25 M-14.75 -7.0 L-12.75 -3.75 -8.5 7.0 -9.0 21.75 -8.5 42.75 -7.5 51.5 -7.5 52.0 -7.0 57.75 -7.25 58.5 -12.5 59.75 -37.25 71.75 -46.0 63.0 -48.25 60.25 -49.0 58.75 -51.25 54.5 -54.5 45.0 -54.75 44.75 -55.5 42.25 -56.25 36.5 -53.75 29.75 -47.5 1.75 -44.0 4.5 -37.25 6.25 Q-29.0 9.75 -14.75 -7.0 M-42.0 -35.0 L-42.0 -34.25 -41.0 -32.0 -37.75 -31.25 -37.0 -34.5 -38.0 -35.25 -38.5 -35.5 -39.0 -35.5 -40.0 -36.5 -41.25 -36.25 -41.75 -35.75 -41.75 -35.5 -42.0 -35.0 M-31.75 -31.0 L-31.0 -30.0 -30.5 -29.5 Q-23.25 -27.75 -27.5 -33.25 L-29.0 -33.75 -30.25 -33.75 -30.5 -33.25 -31.5 -33.0 -31.75 -31.0 M7.25 78.75 L10.75 74.75 10.5 72.5 14.25 72.25 15.5 70.5 15.5 70.25 18.5 65.5 18.5 65.0 20.0 62.5 21.0 53.5 Q30.5 71.5 18.0 74.25 L10.75 78.25 7.25 78.75" fill="#ffffff" fill-rule="evenodd" stroke="none"/>
    <path d="M-42.0 -35.0 L-41.75 -35.5 -41.75 -35.75 -41.25 -36.25 -40.0 -36.5 -39.0 -35.5 -38.5 -35.5 -38.0 -35.25 -37.0 -34.5 -37.75 -31.25 -41.0 -32.0 -42.0 -34.25 -42.0 -35.0 M-31.75 -31.0 L-31.5 -33.0 -30.5 -33.25 -30.25 -33.75 -29.0 -33.75 -27.5 -33.25 Q-23.25 -27.75 -30.5 -29.5 L-31.0 -30.0 -31.75 -31.0" fill="#000000" fill-rule="evenodd" stroke="none"/>
    <path d="M-18.75 -27.75 Q-9.75 -22.75 -12.0 -11.25 L-14.75 -7.0 Q-29.0 9.75 -37.25 6.25 L-44.0 4.5 -47.5 1.75 Q-58.0 -8.25 -42.75 -32.25 L-39.5 -29.5 -33.5 -30.0 -27.5 -26.75 Q-21.0 -25.75 -18.75 -27.75 M-37.25 71.75 L-37.25 72.0 -55.75 81.5 -55.0 72.25 -52.25 64.75 -49.0 58.75 -48.25 60.25 -46.0 63.0 -37.25 71.75 M-6.0 91.5 L-5.9 92.0 Q-4.85 98.35 -19.75 101.0 -33.75 103.0 -49.0 93.75 L-29.5 91.5 -4.75 84.75 -6.0 91.5 M18.0 74.25 Q41.75 71.0 49.5 61.75 61.05 80.45 49.8 92.0 46.9 95.0 42.5 97.5 28.5 104.25 11.25 100.0 7.25 98.25 6.0 94.0 L3.5 81.25 6.0 80.25 7.25 78.75 10.75 78.25 18.0 74.25" fill="#e58508" fill-rule="evenodd" stroke="none"/>
    <path d="M-98.95 -7.55 L-70.2 -45.05 -69.95 -45.55 -69.45 -46.05 -69.2 -46.55 -68.7 -47.05 -76.7 -52.3 -73.2 -51.8 -61.7 -45.8 -57.2 -44.3 -57.95 -42.8 -68.7 -47.05 -82.95 -26.8 -98.95 -7.55 M-79.2 -55.8 L-79.45 -56.8 -79.2 -57.05 -79.2 -55.8 -77.45 -54.8 -78.95 -55.55 -79.2 -55.8 M-16.05 -6.5 Q-13.4 -9.6 -11.7 -12.65 -13.4 29.8 -30.65 31.0 -47.15 32.5 -50.7 -2.3 -45.9 6.45 -35.2 6.45 -32.75 6.45 -28.4 3.9 -25.55 2.25 -22.8 0.05 -18.75 -2.15 -16.05 -6.5 M-55.4 19.1 L-52.95 21.25 -52.95 21.2 -52.2 23.2 -55.2 34.45 -54.85 35.95 Q-54.75 39.05 -53.85 42.35 -53.0 45.2 -51.2 49.2 -49.8 52.3 -46.05 56.35 -42.25 60.5 -38.8 61.75 L-28.2 67.45 -37.2 71.7 -45.95 62.95 -48.2 60.2 -51.2 54.45 -54.45 44.95 -54.7 44.7 Q-65.75 31.7 -66.7 5.2 L-63.75 10.0 Q-62.7 12.65 -55.6 18.9 L-55.4 19.1 M-7.2 58.45 L-6.95 57.7 -6.95 58.45 -7.2 58.45 M-72.2 92.95 L-69.7 90.45 -69.7 92.95 -67.45 93.45 -46.4 91.95 Q-4.85 88.0 8.3 77.45 L10.55 74.2 10.55 72.45 12.05 72.2 15.3 68.45 15.75 68.3 16.55 66.8 Q18.6 64.1 20.05 58.7 L21.25 53.35 21.05 55.95 Q21.05 58.9 20.1 62.25 L20.05 62.45 19.95 62.65 19.4 64.3 20.95 63.45 39.85 57.9 Q49.2 53.45 54.85 45.1 L55.4 43.8 58.3 36.85 59.55 34.1 59.9 33.25 60.05 37.7 Q60.8 51.2 49.55 61.7 41.8 70.95 18.05 74.2 L10.8 78.2 7.3 78.7 6.05 80.2 -4.7 84.95 -28.95 91.45 -46.2 93.45 -40.7 95.95 -33.7 97.7 -20.95 98.45 Q-9.3 97.45 -6.35 91.95 -5.6 90.5 -5.45 88.7 L-4.95 85.45 -4.7 85.95 -5.95 91.45 -5.85 91.95 Q-4.8 98.3 -19.7 100.95 -33.7 102.95 -48.95 93.7 L-66.95 94.2 -72.2 92.95 M4.55 88.2 Q4.65 90.3 5.45 91.95 9.1 99.95 28.55 98.7 41.45 96.15 48.05 91.95 53.05 88.75 54.45 84.55 53.25 88.75 50.3 91.95 43.65 99.15 28.3 101.45 6.5 102.75 4.65 91.95 4.35 90.25 4.55 88.2 M54.8 82.2 L54.8 81.95 55.05 81.95 54.8 82.2" fill="#000000" fill-opacity="0.49803922" fill-rule="evenodd" stroke="none"/>
  </g>
</svg>
