<?xml version="1.0" encoding="UTF-8" standalone="no"?>
<svg xmlns:ffdec="https://www.free-decompiler.com/flash" xmlns:xlink="http://www.w3.org/1999/xlink" ffdec:objectType="shape" height="150.3px" width="167.65px" xmlns="http://www.w3.org/2000/svg">
  <g transform="matrix(1.0, 0.0, 0.0, 1.0, 106.7, 48.55)">
    <path d="M-44.0 1.75 L-46.25 -2.75 -47.0 -7.5 -46.75 -13.25 -43.5 -24.25 -41.0 -28.75 -38.75 -30.75 Q-36.75 -28.0 -35.0 -27.75 L-28.5 -28.25 Q-20.75 -22.75 -14.25 -26.5 -5.25 -21.5 -7.5 -10.5 L-10.25 -5.5 -11.25 -4.25 Q-21.5 10.25 -32.0 8.0 L-33.75 7.75 -34.25 7.5 -38.25 6.75 -43.0 3.25 -44.0 1.75 M-48.5 58.0 L-47.5 60.0 Q-47.5 62.75 -35.0 73.25 L-27.5 76.25 -51.0 91.75 Q-62.25 83.5 -48.5 58.0 M-17.0 95.0 L-5.75 90.75 -6.0 91.5 -6.15 92.0 Q-10.75 105.4 -37.5 99.25 L-17.0 95.0 M31.25 71.75 L39.5 68.5 49.5 61.75 Q59.5 79.75 52.5 89.25 L49.65 92.0 Q36.8 103.3 19.75 101.5 8.05 102.3 5.1 92.0 4.45 89.75 4.25 87.0 L18.25 79.75 22.25 73.5 31.25 71.75" fill="#e58508" fill-rule="evenodd" stroke="none"/>
    <path d="M-44.0 1.75 L-43.0 3.25 -38.25 6.75 -34.25 7.5 -33.75 7.75 -32.0 8.0 Q-21.5 10.25 -11.25 -4.25 L-10.25 -5.5 -8.5 -3.0 -6.5 3.25 -2.75 11.0 -2.25 20.75 -2.0 22.5 -2.0 23.75 -1.75 25.0 -1.75 26.75 -1.5 27.5 -1.25 29.25 -1.25 30.75 -1.0 32.0 -1.0 33.0 -0.75 34.25 -0.75 35.0 -0.25 39.0 -0.25 39.25 2.5 59.5 Q-3.25 60.75 -6.0 63.0 L-27.5 76.25 -35.0 73.25 Q-47.5 62.75 -47.5 60.0 L-48.5 58.0 -52.75 48.0 -52.75 47.75 -53.0 47.5 -54.5 43.5 -55.0 38.0 -53.25 35.75 -51.25 30.5 -46.0 12.0 -44.0 1.75 M-14.25 -26.5 Q-20.75 -22.75 -28.5 -28.25 L-35.0 -27.75 Q-36.75 -28.0 -38.75 -30.75 L-40.0 -34.0 -39.75 -40.5 Q-39.75 -42.0 -34.5 -41.75 L-29.0 -40.0 -27.75 -39.25 -27.5 -39.25 -27.0 -39.5 -21.75 -39.25 -11.5 -34.5 -12.25 -29.0 -14.25 -26.5 M-25.5 -31.75 L-25.75 -31.5 -26.5 -31.25 -26.75 -29.25 -26.0 -28.5 -25.75 -28.0 Q-18.25 -26.75 -22.5 -31.75 L-24.0 -32.25 -25.5 -31.75 M-34.75 -34.5 L-35.25 -34.75 -36.25 -34.5 -37.25 -33.5 -37.75 -32.5 -36.75 -30.75 Q-30.75 -28.0 -33.25 -33.5 L-33.75 -33.75 -34.25 -33.75 -34.75 -34.5 M25.5 70.75 L27.0 68.25 26.5 70.5 25.5 70.75 M21.75 71.75 L24.0 71.75 22.0 72.75 21.75 71.75" fill="#ffffff" fill-rule="evenodd" stroke="none"/>
    <path d="M-34.75 -34.5 L-34.25 -33.75 -33.75 -33.75 -33.25 -33.5 Q-30.75 -28.0 -36.75 -30.75 L-37.75 -32.5 -37.25 -33.5 -36.25 -34.5 -35.25 -34.75 -34.75 -34.5 M-25.5 -31.75 L-24.0 -32.25 -22.5 -31.75 Q-18.25 -26.75 -25.75 -28.0 L-26.0 -28.5 -26.75 -29.25 -26.5 -31.25 -25.75 -31.5 -25.5 -31.75" fill="#000000" fill-rule="evenodd" stroke="none"/>
    <path d="M-106.7 -9.3 L-73.7 -43.55 -72.45 -45.05 -79.45 -48.55 -74.7 -48.3 Q-57.95 -40.55 -55.2 -41.8 L-56.45 -39.55 -60.45 -40.3 -72.45 -45.05 -73.95 -43.05 -89.2 -26.3 -106.7 -9.3 M-10.45 -5.8 Q-8.45 -9.1 -7.0 -12.85 -8.35 31.45 -26.0 32.7 -42.95 34.25 -46.2 -2.45 -41.65 7.95 -32.05 7.95 -18.7 7.95 -10.45 -5.8 M-0.45 36.95 L-0.2 37.2 0.05 38.45 -0.2 38.95 -0.45 36.95 -0.7 34.95 -0.45 35.2 -0.45 36.95 M-49.95 23.45 L-49.95 25.2 -51.2 30.45 -53.7 36.2 -53.5 36.35 -53.95 38.25 -53.05 44.15 Q-52.35 46.95 -51.45 48.4 L-50.45 51.2 -38.95 61.7 Q-21.2 71.45 -17.95 70.2 L-27.45 76.2 -34.95 73.2 Q-47.45 62.7 -47.45 59.95 L-52.7 47.95 -52.7 47.7 -52.95 47.45 Q-67.7 30.45 -66.45 0.95 L-64.45 7.7 -60.45 14.45 Q-52.7 22.7 -49.95 23.45 M-52.45 90.45 L-55.2 84.2 -53.45 87.7 -49.95 90.95 -50.95 91.7 -52.45 90.45 M-5.95 91.45 L-6.1 91.95 Q-10.7 105.35 -37.45 99.2 L-55.2 101.7 -61.2 100.95 -58.95 98.2 -58.7 100.45 -55.7 100.95 Q-29.8 96.8 -12.35 91.95 -4.4 89.7 1.85 87.35 7.05 84.2 13.95 78.65 L21.9 72.05 21.8 71.7 22.35 71.7 24.0 70.3 25.4 68.3 29.05 61.7 29.5 62.35 29.45 61.8 34.05 60.2 35.8 59.45 40.3 57.95 48.8 52.95 Q60.8 42.95 60.8 31.7 62.3 51.7 49.55 61.7 L39.55 68.45 31.3 71.7 24.25 73.1 21.0 76.1 19.05 78.15 17.8 79.95 17.0 80.4 16.9 80.45 16.85 80.45 13.05 82.45 Q8.0 86.1 4.55 87.7 L4.55 87.45 4.3 86.95 -5.7 90.7 -5.95 91.45 M-6.2 90.95 L-16.2 94.7 -30.7 97.95 Q-12.9 100.8 -6.8 91.95 L-6.2 90.95 M1.3 47.45 Q2.8 53.95 1.8 54.95 L0.3 44.45 1.3 47.45 M5.45 91.95 Q9.1 99.95 28.55 98.7 41.45 96.15 48.1 91.95 50.85 90.2 52.5 88.15 L49.7 91.95 Q40.45 102.2 19.8 101.45 7.45 101.9 5.1 91.95 4.8 90.65 4.65 89.2 4.85 90.7 5.45 91.95 M54.8 81.95 L55.05 81.95 54.8 82.2 54.8 81.95" fill="#000000" fill-opacity="0.49803922" fill-rule="evenodd" stroke="none"/>
  </g>
</svg>
