<?xml version="1.0" encoding="UTF-8" standalone="no"?>
<svg xmlns:ffdec="https://www.free-decompiler.com/flash" xmlns:xlink="http://www.w3.org/1999/xlink" ffdec:objectType="shape" height="158.5px" width="196.4px" xmlns="http://www.w3.org/2000/svg">
  <g transform="matrix(1.0, 0.0, 0.0, 1.0, 134.2, 42.8)">
    <path d="M-33.0 -28.5 Q-30.75 -25.5 -28.75 -25.75 L-22.25 -26.5 Q-14.75 -21.5 -8.25 -25.75 5.5 -16.75 -3.75 -4.25 -14.5 11.5 -23.5 10.0 L-25.5 9.75 -26.25 9.75 -26.75 9.5 Q-29.75 9.75 -33.75 7.5 L-38.5 2.25 -40.5 -4.0 Q-41.5 -6.75 -40.5 -12.75 L-37.75 -23.5 Q-36.75 -26.5 -33.0 -28.5 M-5.5 82.0 L-5.75 82.5 -23.5 101.0 Q-36.55 102.9 -50.65 92.0 L-52.25 90.75 Q-61.5 78.25 -47.75 56.5 -36.0 81.0 -5.5 82.0 M9.25 98.5 L21.75 90.25 22.0 90.0 22.5 89.75 Q47.0 74.0 43.25 66.5 L44.5 66.25 Q45.5 66.25 46.25 62.75 47.65 61.9 49.0 61.0 60.6 81.7 50.45 92.0 L48.75 93.5 Q26.5 107.0 9.25 98.5" fill="#e58508" fill-rule="evenodd" stroke="none"/>
    <path d="M-17.5 -30.75 L-18.75 -30.5 -19.0 -30.0 Q-22.75 -27.75 -16.75 -25.75 -12.0 -28.0 -15.75 -30.25 L-17.5 -30.75 M-33.0 -28.5 L-34.75 -32.5 -34.5 -38.25 -31.25 -39.75 Q-27.5 -40.75 -23.0 -38.25 L-21.75 -37.75 -21.25 -37.75 -20.5 -38.0 -13.75 -37.5 -5.75 -33.75 -5.5 -30.25 Q-7.25 -25.75 -8.25 -25.75 -14.75 -21.5 -22.25 -26.5 L-28.75 -25.75 Q-30.75 -25.5 -33.0 -28.5 M-3.75 -4.25 L3.5 11.5 5.5 18.0 11.0 28.25 14.25 39.0 14.5 39.25 15.25 42.0 15.25 42.25 15.5 42.75 15.5 43.25 15.75 43.5 15.75 44.25 20.5 58.75 13.5 63.5 -5.5 82.0 Q-36.0 81.0 -47.75 56.5 L-52.5 47.0 -52.75 41.25 -50.25 38.5 Q-51.25 37.25 -47.25 31.25 L-47.5 30.25 -44.5 23.25 -38.5 2.25 -33.75 7.5 Q-29.75 9.75 -26.75 9.5 L-26.25 9.75 -25.5 9.75 -23.5 10.0 Q-14.5 11.5 -3.75 -4.25 M-30.75 -32.0 Q-32.75 -30.5 -30.75 -28.5 L-28.0 -27.5 -26.0 -28.75 -26.0 -31.0 -27.0 -31.5 -27.25 -31.75 -28.0 -31.75 -28.5 -32.5 -29.0 -32.75 -30.0 -32.5 -30.75 -32.0" fill="#ffffff" fill-rule="evenodd" stroke="none"/>
    <path d="M-17.5 -30.75 L-15.75 -30.25 Q-12.0 -28.0 -16.75 -25.75 -22.75 -27.75 -19.0 -30.0 L-18.75 -30.5 -17.5 -30.75 M-30.75 -32.0 L-30.0 -32.5 -29.0 -32.75 -28.5 -32.5 -28.0 -31.75 -27.25 -31.75 -27.0 -31.5 -26.0 -31.0 -26.0 -28.75 -28.0 -27.5 -30.75 -28.5 Q-32.75 -30.5 -30.75 -32.0" fill="#000000" fill-rule="evenodd" stroke="none"/>
    <path d="M-19.1 35.1 Q-35.95 36.65 -39.25 0.3 -34.05 9.95 -23.05 9.95 -15.9 9.95 -10.5 4.7 -8.9 3.15 -7.85 1.7 -1.35 -4.3 0.0 -18.15 0.0 33.75 -19.1 35.1 M-129.95 -7.05 L-134.2 -6.55 -133.8 -7.3 Q-128.25 -8.15 -117.6 -15.0 L-110.6 -19.9 -107.95 -22.05 -106.1 -23.05 -104.95 -23.85 -90.75 -32.85 -84.8 -37.95 -82.6 -39.45 -85.2 -40.05 Q-89.2 -41.8 -88.95 -42.8 L-63.7 -37.55 -61.7 -36.55 -54.95 -36.55 -56.45 -33.8 -79.2 -38.55 -79.7 -38.8 -80.7 -39.05 -80.7 -38.8 -81.95 -37.55 -82.2 -37.55 -82.7 -37.05 -83.45 -37.05 -83.7 -36.55 -84.2 -36.55 -84.45 -36.05 -85.2 -35.8 -85.45 -35.3 -85.95 -35.3 -86.2 -34.8 -100.45 -25.05 -100.7 -24.8 -101.7 -24.3 -105.45 -21.8 -105.95 -21.55 -110.7 -18.3 -111.2 -18.05 -112.7 -17.05 -113.2 -16.8 -113.45 -16.8 -119.95 -12.3 -129.95 -7.05 M-66.65 11.7 Q-62.45 18.3 -61.25 19.45 -56.95 23.75 -50.2 28.2 -48.25 29.45 -47.1 30.4 L-48.65 34.0 -49.1 34.8 -49.6 34.45 -48.95 34.95 -50.9 39.35 Q-51.95 40.6 -51.95 42.35 -51.95 45.1 -51.55 46.15 L-49.2 50.6 -48.2 52.25 -47.2 54.2 -45.3 55.7 -45.15 55.85 Q-42.95 58.05 -41.45 58.7 L-35.45 63.45 -17.95 70.95 -3.2 71.95 5.55 71.2 -5.45 81.95 Q-35.95 80.95 -47.7 56.45 L-49.45 53.2 Q-66.15 39.8 -66.65 12.05 L-66.65 11.7 M-48.35 91.95 Q-38.7 99.15 -20.95 98.45 L-23.45 100.95 Q-42.95 100.75 -50.9 91.95 -53.85 88.65 -55.2 84.2 -52.55 88.8 -48.35 91.95 M-6.35 104.0 Q6.25 97.35 15.05 91.95 L20.3 88.6 Q32.9 80.3 38.9 74.0 41.25 71.0 43.0 67.25 L43.35 66.45 43.3 66.45 43.4 66.25 Q45.35 61.25 46.75 58.15 L46.95 54.65 Q46.95 53.85 47.3 53.65 L47.3 53.55 48.3 52.7 49.8 51.4 49.25 51.7 51.8 50.2 56.55 44.95 Q57.8 44.45 61.3 35.95 L61.8 27.95 Q64.55 46.45 49.05 60.95 L47.3 62.05 47.95 61.7 Q46.5 66.8 42.75 71.55 L42.3 72.4 Q41.6 75.65 28.05 85.95 L25.3 87.85 21.4 90.85 19.9 91.95 11.6 97.2 11.55 97.2 Q34.55 101.6 47.15 91.95 51.65 88.5 54.8 83.2 53.15 88.35 50.15 91.95 45.85 97.05 38.8 98.95 16.05 104.45 9.3 98.45 L-9.7 107.7 -27.7 114.7 -34.2 115.7 -32.7 112.45 -32.45 112.95 -28.3 113.6 -27.2 113.5 -17.7 109.75 -6.35 104.0 M11.55 26.95 L11.9 27.3 11.95 27.9 Q11.95 28.55 12.6 30.8 L13.55 32.95 13.35 33.15 13.5 33.6 13.55 33.7 13.8 33.95 14.4 36.3 14.45 36.35 16.95 43.4 Q21.95 57.05 21.95 60.15 L21.9 60.6 21.55 60.85 21.35 60.55 21.05 60.45 20.8 59.65 Q19.2 56.8 18.15 52.7 L16.35 45.65 15.8 44.2 15.85 44.0 Q12.4 34.4 10.8 27.3 L11.55 26.95 M13.3 31.2 L13.3 32.2 12.8 30.95 13.3 31.2 M55.05 81.95 L54.8 82.2 54.8 81.95 55.05 81.95" fill="#000000" fill-opacity="0.49803922" fill-rule="evenodd" stroke="none"/>
  </g>
</svg>
