<?xml version="1.0" encoding="UTF-8" standalone="no"?>
<svg xmlns:ffdec="https://www.free-decompiler.com/flash" xmlns:xlink="http://www.w3.org/1999/xlink" ffdec:objectType="shape" height="164.25px" width="214.5px" xmlns="http://www.w3.org/2000/svg">
  <g transform="matrix(1.0, 0.0, 0.0, 1.0, 143.7, 38.3)">
    <path d="M-26.5 -27.0 L-28.25 -30.5 -28.75 -35.0 -28.5 -35.5 -28.5 -36.25 Q-24.25 -39.75 -16.0 -37.25 L-14.5 -36.75 -13.5 -37.0 -8.75 -37.5 Q0.5 -35.5 1.25 -34.0 L0.75 -28.5 -1.0 -25.75 -4.75 -23.5 Q-12.25 -23.75 -14.75 -25.5 L-21.5 -24.25 Q-26.75 -25.75 -26.5 -27.0 M4.0 -3.5 L10.5 10.5 12.5 17.5 19.25 29.5 Q21.25 34.0 30.25 41.0 L36.0 50.0 37.75 58.25 Q36.1 66.1 33.8 67.65 L32.75 68.0 24.5 75.25 9.0 81.0 3.75 81.75 -4.5 82.75 -16.0 80.5 -25.25 77.75 -38.25 69.5 -46.25 58.25 -49.75 50.75 -49.25 45.5 -46.5 42.75 Q-47.25 41.5 -43.25 36.25 L-37.25 21.0 -34.75 10.75 -31.25 1.75 Q-26.0 12.0 -15.75 11.0 L-14.75 11.0 Q-5.25 13.25 4.0 -3.5 M-22.25 -31.25 L-22.75 -31.0 -22.75 -30.75 -23.75 -30.25 -23.75 -29.75 -24.0 -28.0 Q-17.0 -23.5 -19.5 -30.25 L-20.5 -30.25 -21.5 -31.25 -22.25 -31.25 M-10.75 -29.75 L-11.25 -29.25 Q-14.75 -26.25 -8.25 -25.25 -4.75 -27.75 -7.5 -29.5 L-9.25 -30.25 -9.75 -30.0 -10.75 -29.75" fill="#ffffff" fill-rule="evenodd" stroke="none"/>
    <path d="M-10.75 -29.75 L-9.75 -30.0 -9.25 -30.25 -7.5 -29.5 Q-4.75 -27.75 -8.25 -25.25 -14.75 -26.25 -11.25 -29.25 L-10.75 -29.75 M-22.25 -31.25 L-21.5 -31.25 -20.5 -30.25 -19.5 -30.25 Q-17.0 -23.5 -24.0 -28.0 L-23.75 -29.75 -23.75 -30.25 -22.75 -30.75 -22.75 -31.0 -22.25 -31.25" fill="#000000" fill-rule="evenodd" stroke="none"/>
    <path d="M-26.5 -27.0 Q-26.75 -25.75 -21.5 -24.25 L-14.75 -25.5 Q-12.25 -23.75 -4.75 -23.5 L-1.0 -25.75 Q11.5 -18.5 4.0 -3.5 -5.25 13.25 -14.75 11.0 L-15.75 11.0 Q-26.0 12.0 -31.25 1.75 -37.25 -19.0 -26.5 -27.0 M33.8 67.65 L35.5 67.0 19.25 101.5 11.75 100.25 8.75 98.5 5.75 93.5 3.75 81.75 9.0 81.0 24.5 75.25 32.75 68.0 33.8 67.65 M-4.5 82.75 L-4.5 85.75 -6.0 91.5 -5.9 92.0 Q-4.85 98.35 -19.75 101.0 -33.75 102.75 -48.75 94.25 L-52.5 90.5 Q-56.25 83.5 -56.0 81.0 L-55.0 72.25 -52.25 64.75 -48.25 57.0 -46.25 58.25 -38.25 69.5 -25.25 77.75 -16.0 80.5 -4.5 82.75" fill="#e58508" fill-rule="evenodd" stroke="none"/>
    <path d="M-141.8 -4.6 L-141.7 -4.8 -141.6 -4.65 Q-136.65 -5.75 -127.6 -10.0 L-124.75 -11.35 -121.45 -13.55 -114.2 -17.3 -112.25 -18.05 -101.75 -23.95 Q-96.65 -26.7 -93.7 -27.8 L-92.95 -28.3 -96.7 -30.55 -63.45 -28.8 -54.95 -29.05 -56.7 -26.8 -81.95 -27.3 -82.7 -27.55 -84.95 -27.55 -86.45 -27.8 -89.95 -27.8 -90.95 -27.3 -90.95 -28.05 -93.45 -26.05 -108.95 -18.55 -111.45 -16.55 -113.45 -15.55 -114.95 -14.55 -119.2 -12.55 -119.95 -12.3 -120.95 -11.8 -121.2 -11.55 -128.45 -8.3 -128.7 -8.05 -139.95 -3.3 -143.7 -3.55 -143.2 -4.35 -141.8 -4.6 M-32.8 -4.1 L-32.2 -2.3 Q-28.45 6.75 -25.0 8.9 -22.15 10.7 -13.05 10.7 -7.2 10.7 -3.45 6.8 L-2.05 5.15 Q5.5 -0.65 6.95 -15.7 6.95 36.2 -12.15 37.55 -30.5 39.25 -32.8 -4.1 M-44.7 38.7 Q-46.95 44.2 -49.2 45.45 L-49.2 48.2 -42.45 57.95 -28.7 66.45 -10.95 71.95 8.55 71.45 25.05 66.45 36.05 57.7 37.05 54.95 36.55 51.2 42.25 48.6 39.45 43.0 39.8 43.45 36.05 38.45 34.4 35.45 Q30.4 29.1 26.95 21.8 L25.3 19.25 24.05 16.45 22.8 14.2 23.65 15.6 23.55 15.35 Q25.1 15.7 26.3 18.25 L26.9 19.85 Q30.5 24.35 36.0 33.5 40.65 41.4 41.9 44.1 43.7 47.1 44.9 50.35 L46.8 53.95 44.8 52.2 39.3 58.95 35.55 66.95 32.8 67.95 24.55 75.2 9.05 80.95 -4.7 82.7 -18.2 79.95 -25.2 77.7 -38.2 69.45 -46.2 58.2 -48.2 56.95 Q-66.7 46.7 -66.45 11.95 -64.95 28.45 -44.7 38.7 M-49.1 91.95 Q-42.15 96.2 -27.2 98.45 -9.5 98.65 -6.2 91.95 L-5.9 91.25 -5.95 91.45 -5.9 91.95 Q-5.55 101.7 -29.2 100.95 -42.3 100.75 -50.1 91.95 L-51.5 90.25 -49.1 91.95 M5.6 91.95 Q8.65 98.35 20.55 98.95 L19.3 101.45 Q7.6 101.9 5.15 91.95 4.7 90.25 4.55 88.2 4.75 90.25 5.6 91.95 M70.55 61.2 L69.3 63.2 69.05 63.7 69.05 63.95 68.3 65.2 68.05 65.45 68.05 65.7 64.05 73.45 62.05 75.7 61.8 76.2 59.3 79.7 58.8 80.2 58.55 80.7 57.8 81.45 57.55 81.95 56.8 82.7 56.8 82.95 50.3 91.7 32.8 109.45 18.05 122.45 11.05 125.95 11.55 122.45 13.55 123.95 16.8 122.2 32.8 108.55 33.7 107.6 Q41.4 99.75 47.65 91.95 L50.9 87.7 Q61.95 74.05 65.35 68.85 70.05 61.7 70.5 53.45 L70.8 53.95 70.55 61.2 M70.05 52.7 L70.0 52.65 70.1 52.6 70.05 52.7" fill="#000000" fill-opacity="0.49803922" fill-rule="evenodd" stroke="none"/>
  </g>
</svg>
