<?xml version="1.0" encoding="UTF-8" standalone="no"?>
<svg xmlns:ffdec="https://www.free-decompiler.com/flash" xmlns:xlink="http://www.w3.org/1999/xlink" ffdec:objectType="shape" height="156.7px" width="244.25px" xmlns="http://www.w3.org/2000/svg">
  <g transform="matrix(1.0, 0.0, 0.0, 1.0, 146.2, 38.25)">
    <path d="M-19.25 -26.0 L-21.75 -30.0 -22.0 -35.0 Q-22.0 -36.5 -15.75 -37.75 L-8.5 -37.5 -7.25 -37.0 -6.0 -37.25 Q0.5 -40.0 8.0 -35.25 L8.0 -30.5 6.0 -26.75 Q4.5 -22.25 -7.0 -25.75 L-13.75 -23.75 Q-19.0 -24.25 -19.25 -26.0 M12.0 -3.5 L17.75 8.5 19.75 15.0 26.5 27.25 Q29.0 31.75 36.5 37.0 L41.25 45.25 Q42.25 46.0 42.5 55.0 L39.25 62.5 30.75 72.0 Q15.25 81.25 3.75 82.25 L1.25 82.75 -4.5 82.0 Q-27.25 80.0 -41.25 63.75 L-45.75 55.25 -44.75 49.75 Q-41.25 47.25 -38.75 41.5 L-33.0 29.0 -28.75 17.0 -27.25 9.25 -23.25 0.25 Q-19.0 11.25 -5.75 11.0 L-3.75 10.75 Q4.75 12.25 12.0 -3.5 M1.75 -27.75 L1.5 -30.0 -1.0 -31.0 -1.5 -30.75 -2.25 -30.5 -2.75 -30.25 -3.25 -29.75 Q-5.5 -29.25 -2.75 -26.0 L0.0 -26.0 1.75 -27.75 M-10.5 -29.5 L-11.5 -30.0 -12.25 -30.0 -13.75 -30.75 -15.25 -30.25 -15.5 -29.75 Q-18.25 -27.0 -12.25 -25.75 L-10.5 -27.25 -10.5 -29.5" fill="#ffffff" fill-rule="evenodd" stroke="none"/>
    <path d="M1.75 -27.75 L0.0 -26.0 -2.75 -26.0 Q-5.5 -29.25 -3.25 -29.75 L-2.75 -30.25 -2.25 -30.5 -1.5 -30.75 -1.0 -31.0 1.5 -30.0 1.75 -27.75 M-10.5 -29.5 L-10.5 -27.25 -12.25 -25.75 Q-18.25 -27.0 -15.5 -29.75 L-15.25 -30.25 -13.75 -30.75 -12.25 -30.0 -11.5 -30.0 -10.5 -29.5" fill="#000000" fill-rule="evenodd" stroke="none"/>
    <path d="M6.0 -26.75 Q17.0 -24.5 12.0 -3.5 4.75 12.25 -3.75 10.75 L-5.75 11.0 Q-19.0 11.25 -23.25 0.25 L-25.25 -5.5 -26.25 -16.75 Q-23.25 -24.75 -19.25 -26.0 -19.0 -24.25 -13.75 -23.75 L-7.0 -25.75 Q4.5 -22.25 6.0 -26.75 M39.25 62.5 L42.25 61.25 46.75 57.5 Q62.3 77.45 49.25 92.0 L45.0 96.0 Q27.5 104.75 11.75 100.25 7.5 99.45 5.4 92.0 4.25 88.05 3.75 82.25 15.25 81.25 30.75 72.0 L39.25 62.5 M-4.5 82.0 L-4.5 85.75 -6.0 91.5 -5.9 92.0 Q-4.85 98.35 -19.75 101.0 -36.25 102.25 -48.75 94.25 L-51.6 92.0 Q-61.45 82.3 -49.25 59.0 L-44.25 62.25 -41.25 63.75 Q-27.25 80.0 -4.5 82.0" fill="#e58508" fill-rule="evenodd" stroke="none"/>
    <path d="M31.4 -1.9 Q37.25 5.4 50.15 16.7 L51.35 17.75 49.55 15.95 54.45 20.45 Q66.3 30.9 71.4 36.3 L71.55 36.2 72.1 37.05 72.45 37.45 72.45 37.6 72.8 38.2 72.3 37.95 72.35 38.0 72.3 38.1 72.3 38.2 72.2 38.15 71.8 38.3 69.75 36.65 69.8 36.45 69.3 35.7 67.65 34.1 62.55 30.2 Q58.8 50.45 46.8 57.45 L42.3 61.2 39.3 62.45 30.8 71.95 Q15.3 81.2 3.8 82.2 L1.3 82.7 -4.7 81.95 Q-30.95 77.95 -41.2 63.7 L-44.2 62.2 -49.2 58.95 Q-70.7 43.7 -66.2 10.95 -66.2 20.7 -61.2 27.4 -60.2 28.05 -58.2 30.0 -54.7 33.45 -52.45 34.45 -51.05 35.0 -49.7 35.6 L-46.45 37.45 Q-42.35 39.65 -38.6 40.75 L-40.1 43.85 -42.35 47.85 -43.95 51.05 -44.85 51.7 -44.95 52.7 -36.45 61.7 -22.45 68.2 -5.2 71.7 -0.7 71.95 17.05 69.45 32.55 62.7 42.3 52.2 42.05 49.95 42.05 46.7 51.8 40.2 56.8 34.45 60.25 28.6 50.4 19.9 Q31.1 2.5 30.0 -2.7 29.65 -3.6 29.8 -4.05 L31.4 -1.9 M98.05 35.7 L97.3 47.7 97.05 48.2 96.8 49.95 96.8 50.7 94.3 61.2 94.05 61.45 94.05 62.2 93.8 62.45 93.8 63.2 93.55 63.45 93.55 64.2 93.3 64.45 93.3 65.45 93.05 66.2 93.05 66.95 92.55 67.95 92.55 68.95 92.3 69.7 92.05 69.95 92.05 70.2 91.8 70.95 92.05 70.95 91.8 71.7 91.55 71.95 91.55 72.7 91.3 73.7 91.05 74.2 90.8 74.95 90.55 75.2 90.3 75.95 90.05 76.45 89.8 77.2 89.55 77.7 89.3 78.45 89.05 78.95 88.55 80.45 88.3 80.95 88.05 81.7 87.8 82.2 87.55 82.95 87.05 83.95 87.3 83.95 87.05 84.2 86.55 85.2 86.8 85.2 86.55 85.45 79.1 102.35 80.8 97.6 82.95 91.95 84.55 87.95 88.3 78.45 Q90.0 73.75 93.2 60.8 97.05 45.35 97.05 40.05 L97.05 37.0 97.4 34.85 98.05 35.7 M8.8 98.45 L5.8 93.45 4.8 89.15 Q5.2 90.65 5.9 91.95 10.05 100.0 24.55 98.95 37.6 98.6 47.2 91.95 50.45 89.7 53.3 86.7 51.65 89.6 49.45 91.95 40.95 100.9 24.3 101.7 L14.05 100.7 8.8 98.45 M69.05 118.45 L68.05 115.4 67.9 114.75 Q73.6 112.35 76.75 107.6 L74.3 112.95 Q70.3 118.45 69.05 118.45 M-115.5 -3.8 L-116.4 -3.05 -102.75 -11.35 -100.15 -12.65 -99.7 -13.3 -101.95 -14.8 -63.95 -19.8 -61.7 -19.55 -53.2 -21.3 -54.7 -19.05 -58.2 -18.05 -78.95 -15.05 -79.7 -15.05 -80.95 -14.8 -81.95 -14.8 -82.95 -14.55 -84.45 -14.55 -84.95 -14.3 -86.7 -14.3 -87.45 -14.05 -89.45 -14.05 -90.2 -13.8 -91.95 -13.8 -92.95 -13.55 -93.7 -13.55 -95.2 -13.3 -96.45 -13.3 -118.7 0.7 -142.95 13.45 -146.2 13.45 -145.85 12.65 -144.8 12.45 -144.7 11.95 -144.4 12.35 Q-139.95 11.05 -130.0 5.3 L-129.95 4.95 -129.6 4.65 -129.55 4.65 Q-125.1 2.5 -117.6 -2.45 L-115.5 -3.8 M-48.4 91.95 Q-40.55 97.8 -27.2 98.45 -9.5 98.65 -6.2 91.95 L-5.9 91.25 -5.95 91.45 -5.9 91.95 Q-5.85 102.4 -32.7 100.45 -44.7 98.75 -50.75 91.95 -53.65 88.65 -55.2 84.2 -52.6 88.8 -48.4 91.95 M-5.25 39.95 Q-25.9 41.85 -26.25 -13.15 -24.25 10.6 -5.25 11.1 11.6 9.95 13.85 -13.3 13.85 38.6 -5.25 39.95" fill="#000000" fill-opacity="0.49803922" fill-rule="evenodd" stroke="none"/>
  </g>
</svg>
