<?xml version="1.0" encoding="UTF-8" standalone="no"?>
<svg xmlns:ffdec="https://www.free-decompiler.com/flash" xmlns:xlink="http://www.w3.org/1999/xlink" ffdec:objectType="shape" height="141.8px" width="274.0px" xmlns="http://www.w3.org/2000/svg">
  <g transform="matrix(1.0, 0.0, 0.0, 1.0, 147.95, 40.1)">
    <path d="M7.75 -32.75 L7.5 -32.75 6.5 -33.0 5.0 -32.5 4.5 -32.0 4.5 -31.75 Q2.0 -31.5 4.5 -28.0 L7.25 -28.0 9.25 -30.5 9.0 -32.25 8.0 -32.5 7.75 -32.75 M12.5 -29.25 Q10.25 -26.25 8.0 -26.25 L0.5 -27.0 -5.75 -24.75 Q-12.25 -24.5 -12.5 -26.25 L-15.0 -29.5 -15.75 -35.0 -11.0 -37.75 Q-4.75 -39.75 -1.75 -38.75 L-0.5 -38.25 0.5 -38.75 Q11.25 -41.75 14.0 -38.0 L14.25 -33.25 12.5 -29.25 M-15.5 -1.75 Q-5.75 13.0 5.0 9.25 L6.25 9.0 7.0 8.75 Q14.75 9.0 19.5 -3.75 L23.5 3.75 26.0 11.0 33.0 23.75 Q36.25 28.5 41.25 31.75 L44.75 37.5 Q49.0 49.0 44.0 56.5 L36.25 67.75 25.75 75.0 9.25 81.5 3.75 81.5 -4.5 81.75 Q-29.5 77.0 -34.75 68.75 L-37.75 66.0 -40.25 60.75 -41.0 57.75 Q-39.25 57.0 -39.5 53.0 L-35.25 48.75 -26.25 30.5 -21.75 17.5 -20.25 10.25 -15.5 -1.75 M-4.0 -31.0 L-4.5 -31.0 -5.0 -31.5 -5.75 -31.75 -6.25 -31.5 -7.25 -31.25 -8.0 -30.5 Q-9.75 -28.5 -7.5 -27.0 L-4.5 -26.75 -2.75 -29.25 -3.0 -30.75 -4.0 -31.0" fill="#ffffff" fill-rule="evenodd" stroke="none"/>
    <path d="M7.75 -32.75 L8.0 -32.5 9.0 -32.25 9.25 -30.5 7.25 -28.0 4.5 -28.0 Q2.0 -31.5 4.5 -31.75 L4.5 -32.0 5.0 -32.5 6.5 -33.0 7.5 -32.75 7.75 -32.75 M-4.0 -31.0 L-3.0 -30.75 -2.75 -29.25 -4.5 -26.75 -7.5 -27.0 Q-9.75 -28.5 -8.0 -30.5 L-7.25 -31.25 -6.25 -31.5 -5.75 -31.75 -5.0 -31.5 -4.5 -31.0 -4.0 -31.0" fill="#000000" fill-rule="evenodd" stroke="none"/>
    <path d="M-12.5 -26.25 Q-12.25 -24.5 -5.75 -24.75 L0.5 -27.0 8.0 -26.25 Q10.25 -26.25 12.5 -29.25 24.0 -24.25 19.5 -3.75 14.75 9.0 7.0 8.75 L6.25 9.0 5.0 9.25 Q-5.75 13.0 -15.5 -1.75 -25.0 -19.5 -12.5 -26.25 M3.75 81.5 L9.25 81.5 25.75 75.0 36.25 67.75 44.0 56.5 45.5 55.5 Q62.6 77.5 49.7 92.0 L46.0 95.5 Q33.5 104.0 11.75 100.25 7.75 100.4 5.55 92.0 4.4 87.8 3.75 81.5 M-4.5 81.75 L-4.5 85.75 -6.0 91.5 -5.9 92.0 Q-4.85 98.35 -19.75 101.0 -38.5 102.0 -49.5 93.75 L-51.5 92.0 Q-61.2 82.25 -50.25 61.25 L-40.25 67.0 -34.75 68.75 Q-29.5 77.0 -4.5 81.75" fill="#e58508" fill-rule="evenodd" stroke="none"/>
    <path d="M18.3 -1.8 Q20.0 -5.8 20.75 -8.85 19.45 35.85 1.75 37.1 -18.9 39.0 -19.25 -16.0 -18.0 -0.95 -9.9 4.75 L-9.7 4.95 Q-5.1 9.45 0.8 9.45 3.25 9.45 6.7 8.2 L7.05 8.2 Q14.0 8.2 18.3 -1.8 M39.15 -12.95 Q41.7 -11.6 48.05 -7.4 54.9 -3.2 62.45 -0.35 85.3 9.35 89.95 12.2 L93.8 13.95 92.3 14.45 92.3 14.2 91.55 13.95 91.55 14.2 90.55 14.0 90.15 14.05 88.35 13.6 88.3 13.45 88.05 12.95 87.8 12.95 82.8 10.95 82.05 10.45 81.3 10.2 80.8 9.95 79.8 9.7 78.85 9.1 74.55 7.45 73.55 6.95 72.8 6.7 60.3 0.95 60.45 1.5 59.3 0.95 Q53.45 -1.85 48.35 -4.8 39.5 -9.95 39.1 -12.3 L38.8 -13.05 39.05 -12.85 39.15 -12.95 M91.3 25.7 L90.55 23.7 91.3 25.2 91.3 25.7 M125.55 72.1 L125.3 51.95 126.05 63.2 125.55 80.7 123.3 88.2 120.55 85.45 122.15 85.25 121.65 85.3 Q123.0 84.4 123.3 83.7 L124.8 78.95 125.3 74.8 125.55 72.2 125.55 72.1 M62.05 15.45 L61.8 15.45 61.8 12.95 62.05 15.45 M55.55 33.2 Q60.3 27.7 62.05 18.95 64.8 37.7 45.55 55.45 L44.05 56.45 36.3 67.7 25.8 74.95 9.3 81.45 -4.7 81.7 Q-29.2 76.95 -34.7 68.7 L-40.2 66.95 -50.2 61.2 Q-66.95 50.7 -66.7 24.7 -65.7 41.7 -38.7 52.45 L-39.45 52.95 -39.95 56.45 -29.95 64.45 -13.95 69.7 5.55 71.2 Q36.55 66.7 46.55 47.2 L46.3 41.45 55.55 33.2 M5.8 93.45 L4.55 87.7 5.05 88.45 Q5.35 90.4 6.1 91.95 9.75 99.8 24.3 98.95 39.5 97.85 47.9 91.95 51.1 89.7 53.3 86.7 52.75 89.6 50.65 91.95 44.25 99.1 23.8 101.7 L15.55 101.2 Q11.55 100.45 8.55 98.2 L5.8 93.45 M-80.2 -1.55 L-80.7 -1.55 -86.95 0.2 -87.45 0.45 -88.7 0.7 -89.2 0.95 -91.95 1.7 -92.45 1.7 -93.95 2.2 -94.2 2.2 -99.95 3.7 -101.45 6.2 -101.7 6.2 -102.7 7.2 -103.45 7.7 -103.95 8.2 -105.45 9.2 -105.95 9.7 -115.2 17.2 -115.95 17.7 -116.45 18.2 -116.7 18.2 -123.2 23.45 -126.45 25.2 -127.95 26.95 -128.2 27.2 -128.7 27.45 -129.7 28.2 -130.2 28.45 -130.95 29.2 -137.45 34.2 -144.45 38.2 -147.95 38.7 -147.15 36.7 -146.95 36.7 Q-145.5 36.7 -140.5 33.75 -140.0 32.9 -138.2 31.95 L-119.7 18.95 -113.95 13.7 -103.95 6.45 -101.7 3.7 -102.95 2.7 -66.45 -7.8 -58.45 -10.8 -56.95 -10.55 -48.2 -14.05 -50.2 -11.55 -59.95 -7.55 -80.2 -1.55 M-55.2 84.2 Q-53.15 88.8 -48.7 91.95 -41.35 97.2 -27.45 98.45 -9.35 98.65 -6.15 91.95 L-5.95 91.5 -5.95 91.95 Q-6.0 100.95 -26.95 101.2 -43.1 100.3 -50.6 91.95 -53.55 88.65 -55.2 84.2" fill="#000000" fill-opacity="0.49803922" fill-rule="evenodd" stroke="none"/>
  </g>
</svg>
