<?xml version="1.0" encoding="UTF-8" standalone="no"?>
<svg xmlns:ffdec="https://www.free-decompiler.com/flash" xmlns:xlink="http://www.w3.org/1999/xlink" ffdec:objectType="shape" height="144.65px" width="311.75px" xmlns="http://www.w3.org/2000/svg">
  <g transform="matrix(1.0, 0.0, 0.0, 1.0, 154.95, 43.1)">
    <path d="M17.5 -32.5 Q17.75 -30.25 12.75 -29.0 L6.5 -29.5 0.25 -26.5 Q-6.75 -25.5 -7.0 -27.5 L-9.75 -30.75 -10.5 -36.0 -3.25 -40.0 3.75 -41.0 5.0 -40.5 5.5 -41.0 11.0 -43.0 Q17.75 -43.5 18.25 -41.5 L19.0 -38.0 17.5 -32.5 M-9.0 -3.75 L-8.75 -3.75 Q2.75 11.0 14.25 6.25 L14.75 6.0 15.5 5.75 Q23.25 3.75 25.75 -4.5 30.0 1.0 31.25 8.0 L39.75 22.25 45.25 26.75 46.75 30.5 47.75 31.25 Q50.25 35.75 49.75 43.0 L47.25 50.0 45.0 54.75 Q33.75 78.5 3.5 81.0 L-1.25 81.5 -4.25 81.0 -4.5 81.0 -14.75 79.25 -21.0 76.75 -28.0 72.25 -32.75 69.25 -36.0 61.5 -34.5 59.0 -34.25 56.0 -30.25 52.25 -20.25 31.75 -15.5 17.75 -14.25 10.5 -9.0 -3.75 M11.0 -34.75 L10.5 -34.5 Q8.25 -31.0 12.75 -30.75 L15.0 -33.25 14.75 -35.25 14.0 -35.5 13.25 -36.0 12.25 -35.75 11.75 -35.5 11.0 -34.75 M3.5 -30.5 L3.0 -33.0 1.25 -33.5 0.0 -33.5 -1.0 -33.0 -1.5 -32.25 Q-4.5 -29.25 1.25 -28.5 L3.5 -30.5" fill="#ffffff" fill-rule="evenodd" stroke="none"/>
    <path d="M3.5 -30.5 L1.25 -28.5 Q-4.5 -29.25 -1.5 -32.25 L-1.0 -33.0 0.0 -33.5 1.25 -33.5 3.0 -33.0 3.5 -30.5 M11.0 -34.75 L11.75 -35.5 12.25 -35.75 13.25 -36.0 14.0 -35.5 14.75 -35.25 15.0 -33.25 12.75 -30.75 Q8.25 -31.0 10.5 -34.5 L11.0 -34.75" fill="#000000" fill-rule="evenodd" stroke="none"/>
    <path d="M17.5 -32.5 L21.25 -30.0 Q23.25 -28.5 24.0 -25.25 L24.25 -24.75 26.5 -16.0 26.5 -10.25 26.25 -9.0 25.75 -4.5 Q23.25 3.75 15.5 5.75 L14.75 6.0 14.25 6.25 Q2.75 11.0 -8.75 -3.75 L-9.0 -3.75 Q-19.5 -18.25 -7.0 -27.5 -6.75 -25.5 0.25 -26.5 L6.5 -29.5 12.75 -29.0 Q17.75 -30.25 17.5 -32.5 M45.0 54.75 Q62.7 77.1 49.65 92.0 L45.75 95.75 Q10.1 109.0 4.45 92.0 2.95 87.55 3.5 81.0 33.75 78.5 45.0 54.75 M-4.5 81.0 L-4.5 85.75 -6.0 91.5 -6.05 92.0 Q-8.6 106.85 -45.25 96.5 -49.5 94.9 -52.0 92.0 -59.6 83.3 -51.5 63.0 L-45.25 67.0 -39.0 69.5 -28.0 72.25 -21.0 76.75 -14.75 79.25 -4.5 81.0" fill="#e58508" fill-rule="evenodd" stroke="none"/>
    <path d="M25.8 -4.55 L25.85 -4.65 Q23.3 32.05 7.25 33.2 -13.4 35.1 -13.75 -19.9 -12.4 -3.85 -3.25 1.6 L-2.95 1.95 Q1.65 6.95 8.05 6.95 21.5 6.95 25.8 -4.55 M44.05 -23.3 L46.25 -22.25 46.45 -22.3 56.45 -20.05 Q67.2 -17.8 72.65 -17.8 L85.55 -16.3 103.65 -14.85 104.55 -14.8 104.65 -14.3 Q104.65 -13.95 104.05 -13.6 L102.8 -13.3 102.4 -13.3 102.05 -13.05 98.75 -12.85 100.6 -10.45 106.9 -1.55 Q108.75 1.2 114.2 5.8 L122.55 12.85 139.05 27.3 142.65 30.7 146.8 34.45 Q148.0 35.45 151.9 37.95 152.75 38.5 155.2 38.95 L156.3 38.2 155.8 34.95 156.05 33.95 156.8 41.45 150.05 38.45 121.05 13.2 106.3 -1.05 103.55 -3.3 97.3 -12.8 91.65 -13.55 93.8 -13.5 88.1 -13.85 87.65 -13.9 87.95 -13.85 83.3 -14.05 82.55 -14.3 80.8 -14.3 79.55 -14.55 79.05 -14.55 55.05 -18.05 46.3 -20.3 Q43.8 -21.55 44.05 -23.3 M61.2 14.2 L60.55 22.7 Q57.55 40.95 47.3 49.95 L45.05 54.7 Q33.8 78.45 3.55 80.95 L-1.2 81.45 -4.45 80.95 -4.7 83.2 -4.7 80.7 -15.2 78.95 -20.95 76.7 -27.95 72.2 -38.95 69.45 -45.2 66.95 -51.45 62.95 Q-64.2 56.95 -65.95 30.45 -61.7 47.45 -33.45 55.2 L-34.7 59.2 -34.4 59.4 -34.45 59.9 Q-34.45 62.25 -28.7 66.3 -22.05 71.05 -14.45 71.2 L-14.45 71.25 -13.3 71.4 -4.55 71.95 Q1.9 71.95 12.75 70.0 L25.05 67.35 42.8 53.95 49.8 41.2 49.3 35.95 Q59.8 26.9 61.2 14.2 M28.55 98.7 Q41.45 96.2 48.1 91.95 51.95 89.45 53.65 86.4 52.25 89.5 50.05 91.95 43.05 99.75 27.8 101.45 L15.55 101.2 Q11.3 100.45 9.05 98.45 L6.55 95.2 5.8 92.4 Q9.25 99.9 28.55 98.7 M4.55 87.7 L5.05 88.45 5.1 89.8 4.55 87.7 M-50.7 -2.8 L-43.95 -6.8 -40.95 -9.55 -42.95 -6.55 -47.7 -3.55 -48.2 -3.3 -48.95 -2.8 -49.45 -2.55 -50.2 -2.05 -50.45 -1.8 -61.95 4.45 -88.45 16.95 -88.7 16.95 -89.45 17.2 -95.95 20.2 -96.4 21.2 -96.2 21.2 -96.95 22.45 -99.7 25.45 -117.45 38.95 -144.45 57.7 -144.7 57.7 -149.95 60.95 -150.7 60.95 -152.2 61.45 -152.45 61.45 -154.95 61.95 -154.5 60.75 Q-148.05 59.2 -136.85 51.55 L-120.7 39.45 -105.75 28.45 -99.05 21.9 -96.75 20.0 -98.7 19.45 -60.7 1.95 -52.45 -2.55 -50.7 -2.8 M-65.95 28.95 L-65.95 25.7 -65.45 27.45 -65.95 28.95 M-54.95 84.75 Q-52.9 89.0 -48.7 91.95 -41.35 97.2 -27.45 98.45 -11.55 99.5 -6.85 91.95 -5.95 90.5 -5.45 88.7 L-5.95 91.45 -5.9 91.95 Q-5.55 101.7 -28.95 100.95 -43.0 100.4 -50.4 91.95 -53.1 88.85 -54.95 84.75" fill="#000000" fill-opacity="0.49803922" fill-rule="evenodd" stroke="none"/>
  </g>
</svg>
