<?xml version="1.0" encoding="UTF-8" standalone="no"?>
<svg xmlns:ffdec="https://www.free-decompiler.com/flash" xmlns:xlink="http://www.w3.org/1999/xlink" ffdec:objectType="shape" height="147.9px" width="326.5px" xmlns="http://www.w3.org/2000/svg">
  <g transform="matrix(1.0, 0.0, 0.0, 1.0, 159.2, 46.35)">
    <path d="M20.75 -35.5 Q19.25 -32.75 17.5 -32.25 L10.75 -32.25 Q1.0 -25.75 -3.0 -29.25 L-5.75 -32.25 -6.75 -37.25 0.25 -41.75 Q2.5 -43.5 7.5 -43.5 L8.75 -43.25 9.25 -43.5 9.75 -44.0 16.25 -46.25 Q21.0 -46.75 21.25 -44.75 22.25 -44.0 22.0 -38.5 L20.75 -35.5 M-4.0 -6.0 Q5.5 6.25 20.0 3.0 L21.0 2.75 26.75 -0.25 30.25 -6.0 Q32.75 -4.0 34.25 3.5 L40.25 14.5 Q41.0 17.0 47.5 22.0 L49.75 27.0 51.5 33.0 Q51.5 40.35 50.65 41.8 L50.5 42.0 50.25 42.75 50.0 43.0 45.5 55.5 Q35.5 75.25 3.5 80.75 L-4.5 80.0 -11.25 79.25 -21.75 74.5 -28.25 71.25 -31.5 63.5 -29.75 60.75 -29.75 57.75 -25.25 53.5 -20.75 45.0 -15.0 31.5 -11.75 22.0 -9.25 10.0 -4.0 -6.0 M6.75 -35.5 L5.25 -36.0 4.5 -35.75 3.5 -35.25 3.0 -34.5 Q0.5 -31.0 6.0 -31.0 9.0 -33.25 6.75 -35.5 M17.0 -39.25 L16.0 -38.75 15.0 -38.0 14.5 -37.5 Q12.25 -37.0 15.0 -33.75 L17.0 -34.0 Q20.5 -37.25 18.0 -38.75 L17.0 -39.25" fill="#ffffff" fill-rule="evenodd" stroke="none"/>
    <path d="M17.0 -39.25 L18.0 -38.75 Q20.5 -37.25 17.0 -34.0 L15.0 -33.75 Q12.25 -37.0 14.5 -37.5 L15.0 -38.0 16.0 -38.75 17.0 -39.25 M6.75 -35.5 Q9.0 -33.25 6.0 -31.0 0.5 -31.0 3.0 -34.5 L3.5 -35.25 4.5 -35.75 5.25 -36.0 6.75 -35.5" fill="#000000" fill-rule="evenodd" stroke="none"/>
    <path d="M20.75 -35.5 Q22.25 -36.0 25.75 -31.75 L30.75 -19.75 31.25 -13.5 30.25 -6.0 26.75 -0.25 21.0 2.75 20.0 3.0 Q5.5 6.25 -4.0 -6.0 -15.5 -17.0 -3.0 -29.25 1.0 -25.75 10.75 -32.25 L17.5 -32.25 Q19.25 -32.75 20.75 -35.5 M45.5 55.5 Q62.65 77.15 49.6 92.0 L46.0 95.5 Q10.25 109.15 4.45 92.0 2.9 87.45 3.5 80.75 35.5 75.25 45.5 55.5 M-4.5 80.0 L-4.5 85.75 -6.0 91.5 -6.05 92.0 Q-8.85 107.05 -45.75 96.25 -49.55 94.65 -51.9 92.0 -59.45 83.55 -52.0 64.5 L-48.5 67.0 -39.25 71.25 -30.25 73.75 -21.75 74.5 -11.25 79.25 -4.5 80.0" fill="#e58508" fill-rule="evenodd" stroke="none"/>
    <path d="M56.7 -31.75 Q65.1 -33.5 79.95 -35.65 L83.05 -36.3 83.65 -36.2 96.6 -38.0 101.55 -38.8 103.8 -40.3 102.05 -38.5 102.05 -38.45 101.7 -38.2 101.55 -38.05 101.45 -38.1 100.0 -37.6 100.4 -37.75 99.05 -37.3 99.4 -37.4 103.7 -34.7 110.3 -30.3 Q113.1 -28.5 115.65 -27.05 L148.8 -12.8 Q154.45 -10.8 160.45 -9.3 L162.55 -8.75 162.55 -8.8 165.55 -8.3 Q166.55 -9.05 165.05 -11.8 L165.05 -12.55 167.3 -6.8 160.55 -7.3 137.55 -16.3 137.3 -16.55 106.3 -30.05 97.55 -36.8 96.55 -36.8 91.65 -35.85 91.6 -35.85 91.3 -35.8 91.25 -35.75 90.55 -35.55 89.3 -35.55 88.8 -35.3 88.05 -35.05 87.8 -35.05 84.55 -34.3 83.55 -34.3 83.55 -34.05 82.55 -34.05 81.8 -33.8 60.55 -30.55 47.05 -30.3 45.3 -32.3 56.7 -31.75 M51.3 40.95 L50.55 41.95 50.3 42.7 50.05 42.95 45.55 55.45 Q35.55 75.2 3.55 80.7 L-11.2 79.2 -21.7 74.45 -30.2 73.7 -39.2 71.2 -48.45 66.95 -51.95 64.45 Q-67.2 54.2 -65.45 28.7 -64.05 35.1 -62.15 38.9 L-61.0 40.2 Q-57.45 44.25 -53.7 46.55 -42.55 54.0 -34.35 56.1 L-33.45 56.3 -33.45 56.15 Q-31.9 57.05 -30.45 57.45 L-30.1 57.95 -29.8 58.35 -29.9 58.35 -27.7 61.2 Q-27.2 61.95 -24.95 63.7 L-18.95 66.7 -7.45 67.7 Q12.2 67.7 25.15 62.95 31.35 59.7 35.45 57.8 L37.7 56.85 45.8 49.7 47.8 46.45 51.55 36.2 50.8 30.95 Q52.55 30.45 57.3 21.7 L59.3 0.45 Q63.05 22.7 51.3 40.95 M4.1 1.3 Q7.6 3.7 16.3 3.7 25.55 3.7 29.7 -5.8 26.8 28.75 11.25 29.85 -7.9 31.6 -9.6 -15.45 L-7.25 -11.6 Q-4.45 -4.55 1.3 -1.4 L4.1 1.3 M28.3 98.7 Q41.35 96.4 48.05 91.95 52.6 88.95 54.25 84.95 52.8 88.9 50.1 91.95 43.1 99.75 27.8 101.45 L15.55 101.2 9.05 98.45 6.55 95.2 4.55 87.7 5.05 88.45 Q5.15 90.4 5.85 91.95 9.35 100.4 28.3 98.7 M-35.95 -2.8 L-47.2 6.2 -63.7 17.95 -75.45 25.7 -75.95 25.95 -77.45 26.95 -77.7 26.95 -78.45 27.45 -78.95 27.95 -79.2 27.95 -87.2 32.7 -87.45 33.2 -87.7 33.2 -87.2 32.7 -80.2 28.2 -79.7 27.95 -68.95 20.7 -67.95 20.2 -67.2 19.45 -64.45 17.7 -44.45 2.7 -43.2 2.45 -42.45 1.2 -41.2 0.95 -34.45 -5.55 -35.95 -2.8 M-48.7 91.95 Q-41.35 97.2 -27.45 98.45 -11.55 99.5 -6.85 91.95 -5.95 90.5 -5.45 88.7 L-5.95 91.45 -5.9 91.95 Q-5.6 101.9 -30.95 100.7 -43.4 100.0 -50.4 91.95 -53.1 88.85 -54.95 84.7 -52.9 88.95 -48.7 91.95 M-87.6 34.35 L-88.95 37.45 -89.95 38.7 -92.95 41.2 -93.45 41.7 -94.45 42.45 -95.7 43.7 -100.7 47.95 -100.95 47.95 -101.2 48.2 -102.8 49.4 Q-101.7 49.1 -101.7 49.85 -101.7 50.4 -113.2 58.65 -124.85 66.95 -126.2 66.95 L-126.85 66.8 -127.2 66.95 -128.45 67.95 -128.95 68.2 -137.7 74.45 -145.0 78.8 -144.95 78.75 -134.95 71.7 Q-129.5 67.9 -114.45 58.1 -110.15 55.35 -105.35 51.2 L-97.95 44.6 -89.6 36.2 -87.6 34.35 M-155.7 84.45 L-159.2 85.2 -158.85 84.05 Q-154.0 83.75 -147.5 80.3 L-152.45 83.2 -155.2 84.2 -155.7 84.45" fill="#000000" fill-opacity="0.49803922" fill-rule="evenodd" stroke="none"/>
  </g>
</svg>
