<?xml version="1.0" encoding="UTF-8" standalone="no"?>
<svg xmlns:ffdec="https://www.free-decompiler.com/flash" xmlns:xlink="http://www.w3.org/1999/xlink" ffdec:objectType="shape" height="159.45px" width="230.75px" xmlns="http://www.w3.org/2000/svg">
  <g transform="matrix(1.0, 0.0, 0.0, 1.0, 64.95, 57.8)">
    <path d="M20.5 -41.5 L18.25 -41.5 17.5 -40.5 16.75 -40.0 Q15.0 -39.5 17.25 -36.5 L20.25 -37.25 21.25 -39.75 20.5 -41.5 M-0.5 -30.75 L-3.75 -34.0 -4.5 -38.75 1.75 -43.25 Q4.25 -45.25 9.75 -45.5 L10.75 -45.25 11.75 -46.25 16.25 -48.5 Q22.0 -49.75 22.5 -47.5 L23.5 -42.75 22.75 -38.25 Q21.25 -35.0 19.75 -35.0 L13.0 -34.5 Q4.75 -28.0 -0.5 -30.75 M32.5 -7.75 L42.0 11.75 48.5 18.5 52.0 28.5 52.0 36.25 51.75 36.75 49.25 46.75 45.75 55.75 36.5 67.0 23.0 75.75 7.75 80.0 3.5 79.75 -4.25 79.75 -7.25 79.5 -17.5 75.5 -25.25 72.25 -28.25 64.25 -26.5 61.75 -26.25 58.75 -22.0 54.25 Q-22.5 52.25 -18.25 47.0 L-11.75 31.25 -8.5 21.25 -7.25 13.25 -1.25 -8.25 Q14.5 6.5 24.25 0.0 L24.5 -0.25 26.0 -0.75 30.25 -3.5 32.5 -7.75 M7.0 -37.75 L6.0 -37.25 5.75 -36.75 Q2.75 -32.75 8.5 -33.0 11.5 -35.75 9.0 -38.0 L7.75 -38.0 7.0 -37.75" fill="#ffffff" fill-rule="evenodd" stroke="none"/>
    <path d="M20.5 -41.5 L21.25 -39.75 20.25 -37.25 17.25 -36.5 Q15.0 -39.5 16.75 -40.0 L17.5 -40.5 18.25 -41.5 20.5 -41.5 M7.0 -37.75 L7.75 -38.0 9.0 -38.0 Q11.5 -35.75 8.5 -33.0 2.75 -32.75 5.75 -36.75 L6.0 -37.25 7.0 -37.75" fill="#000000" fill-rule="evenodd" stroke="none"/>
    <path d="M22.75 -38.25 Q25.25 -37.25 28.5 -32.5 L33.0 -21.5 34.0 -13.5 Q33.75 -8.0 32.5 -7.75 L30.25 -3.5 26.0 -0.75 24.5 -0.25 24.25 0.0 Q14.5 6.5 -1.25 -8.25 L-5.0 -12.75 -6.75 -16.25 -6.0 -22.25 Q-2.0 -30.5 -0.5 -30.75 4.75 -28.0 13.0 -34.5 L19.75 -35.0 Q21.25 -35.0 22.75 -38.25 M45.75 55.75 Q62.45 77.15 49.6 92.0 L46.0 95.5 Q11.1 109.35 4.8 92.0 3.0 87.1 3.5 79.75 L7.75 80.0 23.0 75.75 36.5 67.0 45.75 55.75 M-4.25 79.75 L-4.5 85.75 -6.0 91.5 -6.05 92.0 Q-8.85 107.05 -45.75 96.25 -49.4 94.55 -51.7 92.0 -59.4 83.55 -52.5 65.5 -39.5 75.75 -17.5 75.5 L-7.25 79.5 -4.25 79.75" fill="#e58508" fill-rule="evenodd" stroke="none"/>
    <path d="M79.8 -50.8 L81.3 -51.05 98.05 -57.8 97.8 -57.3 97.05 -56.55 97.3 -57.05 96.8 -56.55 96.55 -56.55 95.55 -55.8 95.6 -55.8 98.2 -54.7 Q101.4 -53.2 104.55 -52.55 L114.5 -50.55 117.05 -50.0 124.8 -49.2 133.55 -47.9 138.45 -47.5 Q151.75 -45.6 161.8 -45.6 L162.35 -45.65 Q163.05 -45.8 164.0 -46.3 L163.8 -47.55 165.8 -44.8 159.8 -43.55 131.55 -46.8 131.3 -46.8 105.05 -50.8 94.3 -55.05 86.8 -51.8 86.55 -51.8 85.3 -51.05 81.05 -49.05 80.3 -48.8 79.8 -48.55 60.3 -40.8 47.05 -37.55 45.55 -37.3 44.55 -39.05 46.3 -39.2 56.75 -42.4 58.1 -42.8 72.95 -47.9 74.05 -48.3 79.05 -50.55 79.3 -50.55 79.8 -50.8 M57.8 -0.05 L57.8 -0.8 58.05 2.45 57.8 -0.05 M1.35 -6.45 L3.95 -3.85 Q9.8 1.45 17.4 1.45 27.8 1.45 32.0 -7.05 28.8 25.4 13.75 26.45 -4.95 28.15 -7.0 -16.65 -4.65 -13.05 -2.9 -11.3 -1.1 -8.4 1.35 -6.45 M58.3 2.95 L58.55 3.7 58.8 13.45 56.55 26.2 51.8 36.7 49.3 46.7 45.8 55.7 36.55 66.95 23.05 75.7 7.8 79.95 -7.2 79.45 -17.45 75.45 Q-39.45 75.7 -52.45 65.45 -65.45 58.45 -64.95 30.95 -63.2 31.95 -63.7 43.45 L-58.7 51.7 Q-43.95 64.2 -28.2 64.2 L-26.7 62.2 Q-22.65 64.35 -19.15 65.7 L-16.25 66.25 -3.0 67.7 Q9.85 67.7 23.4 63.85 L30.95 61.45 34.8 58.95 39.25 54.95 41.7 52.8 47.8 46.2 52.05 33.45 52.05 33.2 52.3 32.2 51.55 27.2 53.3 24.95 58.3 3.05 58.3 2.95 M-28.45 -4.8 L-29.75 -2.2 -29.5 -2.6 Q-30.1 0.95 -39.9 9.8 -46.85 16.05 -50.65 18.7 L-52.75 19.95 Q-47.2 14.95 -40.65 8.2 L-37.9 5.3 -33.95 0.2 -28.2 -5.8 -28.2 -5.55 -28.45 -4.8 M4.55 87.7 L5.05 88.45 Q5.2 90.4 5.9 91.95 9.5 100.4 28.05 98.7 41.0 96.6 47.85 91.95 53.15 88.35 54.8 83.2 53.35 88.25 50.05 91.95 43.05 99.75 27.8 101.45 L17.3 101.45 Q10.8 100.2 9.05 98.45 L6.05 93.95 4.55 87.7 M-48.95 91.95 Q-41.8 96.65 -27.2 98.45 -9.5 98.65 -6.2 91.95 L-5.9 91.25 -5.95 91.45 -5.95 91.95 Q-6.7 101.45 -26.7 101.2 -43.5 99.95 -50.8 91.95 -53.55 88.9 -54.95 84.9 -53.4 89.0 -48.95 91.95" fill="#000000" fill-opacity="0.49803922" fill-rule="evenodd" stroke="none"/>
  </g>
</svg>
