<?xml version="1.0" encoding="UTF-8" standalone="no"?>
<svg xmlns:ffdec="https://www.free-decompiler.com/flash" xmlns:xlink="http://www.w3.org/1999/xlink" ffdec:objectType="shape" height="188.05px" width="257.2px" xmlns="http://www.w3.org/2000/svg">
  <g transform="matrix(1.0, 0.0, 0.0, 1.0, 91.65, 69.8)">
    <path d="M21.5 -40.5 L21.0 -42.25 21.0 -42.5 20.25 -43.0 19.0 -43.0 18.5 -42.75 17.5 -42.0 17.25 -41.5 Q14.5 -38.0 19.5 -38.0 L20.75 -38.75 21.5 -40.5 M23.0 -39.5 L20.5 -36.5 13.5 -35.75 Q4.25 -28.75 0.0 -31.75 L-3.25 -35.0 -4.0 -39.75 4.25 -45.5 10.0 -46.75 11.25 -46.75 11.75 -47.25 16.75 -50.0 Q21.75 -51.25 22.75 -49.0 L23.75 -43.75 23.0 -39.5 M-0.25 -9.25 L8.0 -2.5 16.75 0.25 Q30.0 -0.75 33.25 -8.75 43.0 15.0 48.75 17.25 L52.5 28.25 52.0 34.5 49.0 47.75 45.5 55.5 37.25 66.0 23.5 75.25 9.0 79.5 3.5 79.5 -4.5 79.5 -16.25 75.5 -24.0 72.5 -27.0 65.0 -25.25 61.75 -25.0 58.75 -20.75 54.0 -16.5 45.5 -10.5 30.25 -6.5 16.25 -5.25 8.0 -0.25 -9.25 M6.5 -38.5 L6.25 -37.75 Q4.75 -35.5 6.0 -34.5 L9.25 -34.25 10.75 -36.25 10.75 -38.75 9.0 -39.25 8.25 -39.25 7.5 -39.0 6.5 -38.5" fill="#ffffff" fill-rule="evenodd" stroke="none"/>
    <path d="M21.5 -40.5 L20.75 -38.75 19.5 -38.0 Q14.5 -38.0 17.25 -41.5 L17.5 -42.0 18.5 -42.75 19.0 -43.0 20.25 -43.0 21.0 -42.5 21.0 -42.25 21.5 -40.5 M6.5 -38.5 L7.5 -39.0 8.25 -39.25 9.0 -39.25 10.75 -38.75 10.75 -36.25 9.25 -34.25 6.0 -34.5 Q4.75 -35.5 6.25 -37.75 L6.5 -38.5" fill="#000000" fill-rule="evenodd" stroke="none"/>
    <path d="M23.0 -39.5 Q24.25 -39.75 28.75 -34.0 L33.25 -23.75 Q36.25 -15.5 33.25 -8.75 30.0 -0.75 16.75 0.25 L8.0 -2.5 -0.25 -9.25 -4.25 -13.75 -6.0 -17.0 -5.5 -23.25 Q-5.25 -26.0 0.0 -31.75 4.25 -28.75 13.5 -35.75 L20.5 -36.5 23.0 -39.5 M45.5 55.5 Q62.65 77.15 49.6 92.0 L46.0 95.5 Q10.85 109.3 4.7 92.0 2.9 87.05 3.5 79.5 L9.0 79.5 23.5 75.25 37.25 66.0 45.5 55.5 M-4.5 79.5 L-4.5 85.75 -6.0 91.5 -6.05 92.0 Q-8.85 107.05 -45.75 96.25 -49.35 94.55 -51.65 92.0 -59.45 83.5 -52.5 66.0 -40.25 76.0 -16.25 75.5 L-4.5 79.5" fill="#e58508" fill-rule="evenodd" stroke="none"/>
    <path d="M3.25 -6.45 Q10.2 -0.3 18.8 -0.3 29.0 -0.3 33.3 -8.0 30.15 24.9 15.0 25.95 -3.95 27.7 -5.8 -18.5 -4.1 -15.15 -1.9 -12.15 L-1.65 -11.8 Q0.35 -8.55 3.25 -6.45 M80.3 -57.8 L78.8 -57.05 78.55 -56.8 59.05 -46.05 44.55 -40.55 43.3 -42.3 47.3 -43.15 56.6 -47.6 Q64.05 -51.1 69.55 -54.3 L84.25 -62.4 89.05 -64.7 95.8 -68.55 95.05 -67.8 94.65 -67.2 95.1 -67.05 Q97.95 -65.8 99.55 -65.55 L107.8 -64.95 112.95 -64.5 120.85 -64.85 143.3 -65.8 154.35 -66.5 160.9 -67.25 161.05 -67.55 163.3 -68.05 163.3 -69.8 165.55 -67.55 159.8 -65.3 125.55 -63.55 124.8 -63.3 103.55 -63.3 92.8 -65.55 85.8 -61.3 85.3 -61.05 85.05 -60.8 84.3 -60.3 84.05 -60.3 83.55 -59.8 83.3 -59.8 80.8 -58.05 80.55 -58.05 80.3 -57.8 M52.05 34.45 L49.05 47.7 45.55 55.45 37.3 65.95 23.55 75.2 9.05 79.45 -4.45 79.45 -16.2 75.45 Q-40.2 75.95 -52.45 65.95 -60.85 62.2 -63.95 44.1 -61.65 49.75 -50.95 57.95 L-40.95 62.2 -31.7 64.2 -26.95 64.45 -25.45 62.2 -21.2 63.75 -16.6 64.7 -12.15 65.55 -11.1 65.7 -1.2 66.7 6.3 66.7 Q16.5 66.15 23.6 63.95 29.15 62.25 35.4 58.55 L39.1 55.25 49.05 43.95 52.3 31.7 52.55 28.45 51.8 25.7 56.8 16.45 57.8 1.45 Q59.05 21.95 52.05 34.45 M6.05 93.95 L4.55 87.7 5.05 88.45 Q5.2 90.4 5.9 91.95 9.5 100.4 28.05 98.7 41.0 96.6 47.85 91.95 53.15 88.35 54.8 83.2 53.6 88.25 50.1 91.95 43.3 99.15 27.8 101.45 L17.55 101.45 Q10.8 100.2 9.05 98.45 L6.05 93.95 M-27.6 0.4 L-27.6 0.7 Q-27.6 3.65 -45.0 19.9 L-48.7 23.45 -47.7 22.4 -48.35 22.95 -48.5 22.45 -43.55 17.0 -43.3 16.75 -38.85 12.4 Q-30.25 3.9 -27.6 0.4 M-64.55 40.3 L-64.7 39.2 -63.7 38.2 Q-64.4 39.2 -64.55 40.3 M-48.5 91.95 Q-41.15 97.2 -27.7 98.45 -9.4 98.65 -6.15 91.95 L-5.95 91.45 -5.9 91.95 Q-5.55 101.7 -28.95 100.95 -43.45 100.05 -50.55 91.95 -53.5 88.6 -55.2 83.95 -53.0 88.7 -48.5 91.95 M-91.5 117.7 L-90.95 116.45 -91.65 118.25 -91.5 117.7" fill="#000000" fill-opacity="0.49803922" fill-rule="evenodd" stroke="none"/>
  </g>
</svg>
