<?xml version="1.0" encoding="UTF-8" standalone="no"?>
<svg xmlns:ffdec="https://www.free-decompiler.com/flash" xmlns:xlink="http://www.w3.org/1999/xlink" ffdec:objectType="shape" height="187.6px" width="234.9px" xmlns="http://www.w3.org/2000/svg">
  <g transform="matrix(1.0, 0.0, 0.0, 1.0, 64.35, 85.8)">
    <path d="M22.5 -40.0 Q20.75 -36.75 19.0 -36.5 L13.0 -36.25 Q8.25 -30.5 -0.5 -32.0 L-3.5 -35.0 -4.5 -40.0 1.25 -44.5 Q6.0 -47.75 9.5 -47.25 L10.75 -47.0 11.25 -47.75 16.0 -50.25 Q20.75 -51.75 22.25 -49.5 L23.25 -43.0 22.5 -40.0 M-0.75 -9.75 L7.0 -3.25 16.0 -0.25 Q31.0 -2.0 32.75 -9.0 L33.75 -8.25 36.0 -1.25 42.25 10.25 48.5 17.0 52.0 26.75 52.0 34.25 48.5 48.5 45.5 55.25 37.25 65.75 23.5 75.0 9.25 79.25 3.5 79.25 -4.5 79.25 -16.0 75.5 -24.25 72.25 -27.25 64.75 -25.5 61.75 -25.25 59.0 -21.0 54.0 -17.25 46.5 -10.75 30.25 -0.75 -9.75 M19.5 -43.5 L18.5 -43.5 18.0 -43.25 17.0 -42.5 16.75 -41.75 Q15.0 -41.25 17.25 -38.25 L19.75 -38.75 21.0 -42.0 20.0 -43.25 19.5 -43.5 M6.25 -39.0 L5.75 -38.25 Q3.25 -34.25 8.75 -34.75 L10.25 -36.75 10.25 -39.25 7.75 -39.75 7.0 -39.5 6.25 -39.0" fill="#ffffff" fill-rule="evenodd" stroke="none"/>
    <path d="M19.5 -43.5 L20.0 -43.25 21.0 -42.0 19.75 -38.75 17.25 -38.25 Q15.0 -41.25 16.75 -41.75 L17.0 -42.5 18.0 -43.25 18.5 -43.5 19.5 -43.5 M6.25 -39.0 L7.0 -39.5 7.75 -39.75 10.25 -39.25 10.25 -36.75 8.75 -34.75 Q3.25 -34.25 5.75 -38.25 L6.25 -39.0" fill="#000000" fill-rule="evenodd" stroke="none"/>
    <path d="M22.5 -40.0 L27.5 -35.5 29.75 -32.0 32.75 -24.5 33.75 -20.5 34.25 -13.75 Q34.5 -11.25 32.75 -9.0 31.0 -2.0 16.0 -0.25 L7.0 -3.25 -0.75 -9.75 Q-12.5 -17.25 -0.5 -32.0 8.25 -30.5 13.0 -36.25 L19.0 -36.5 Q20.75 -36.75 22.5 -40.0 M45.5 55.25 Q62.0 79.8 50.4 92.0 48.25 94.2 45.25 96.0 26.75 104.75 12.0 100.25 7.35 98.4 5.25 92.0 3.6 87.0 3.5 79.25 L9.25 79.25 23.5 75.0 37.25 65.75 45.5 55.25 M-4.5 79.25 L-4.5 85.75 -6.0 91.5 -6.05 92.0 Q-8.6 106.85 -45.0 96.5 -48.5 94.45 -50.9 92.0 -60.25 82.35 -52.5 66.0 -37.25 77.0 -16.0 75.5 L-4.5 79.25" fill="#e58508" fill-rule="evenodd" stroke="none"/>
    <path d="M65.3 -85.8 L64.8 -85.55 64.8 -85.8 65.3 -85.8 M57.55 1.7 L58.05 12.7 56.05 24.95 52.05 34.2 48.55 48.45 45.55 55.2 37.3 65.7 23.55 74.95 9.3 79.2 -4.45 79.2 -15.95 75.45 -16.05 75.45 -16.45 75.5 Q-37.4 76.8 -52.45 65.95 -60.8 60.55 -64.35 44.95 L-63.45 44.1 Q-57.35 61.0 -27.2 64.2 L-25.7 62.2 -19.95 64.2 -20.0 64.35 -19.95 64.25 -15.3 65.15 Q-8.4 66.55 -0.55 66.55 13.8 66.55 23.1 63.95 25.7 63.25 32.45 60.2 L37.9 55.7 49.05 43.7 52.05 31.95 52.05 30.95 51.55 25.45 56.55 16.7 57.55 1.7 M57.3 -0.8 L57.55 -0.8 57.55 0.45 57.3 -0.8 M58.55 -48.05 L44.55 -41.8 43.3 -41.55 42.8 -42.8 46.05 -43.85 Q57.25 -49.9 70.95 -58.55 L85.6 -67.8 89.35 -69.85 93.3 -72.4 93.3 -72.55 Q93.65 -72.9 94.1 -72.95 L95.8 -74.05 94.7 -72.95 100.6 -72.25 103.7 -71.8 107.8 -71.8 127.85 -74.0 129.65 -74.3 154.9 -78.7 Q161.65 -79.8 165.15 -80.85 L165.3 -81.3 167.7 -82.15 168.05 -82.55 167.8 -84.05 170.55 -82.05 164.55 -79.05 132.3 -73.8 132.05 -73.8 128.3 -73.05 104.8 -70.3 93.55 -71.3 85.55 -65.8 85.3 -65.8 84.8 -65.3 77.05 -59.8 58.55 -48.05 M17.55 -1.3 Q27.9 -1.3 32.55 -8.4 29.35 24.35 14.25 25.4 -4.05 27.1 -6.4 -15.95 -4.85 -13.2 -3.45 -12.35 -2.5 -11.75 -1.05 -10.45 0.55 -8.4 2.6 -6.95 L4.0 -5.75 Q9.65 -1.3 17.55 -1.3 M6.05 93.95 L4.55 87.7 5.05 88.45 Q5.15 90.4 5.85 91.95 9.35 100.4 28.3 98.7 41.45 96.15 48.1 91.95 52.35 89.25 53.95 85.9 52.6 89.25 50.1 91.95 43.2 99.15 27.55 101.45 L17.55 101.45 Q10.8 100.2 9.05 98.45 L6.05 93.95 M-55.2 83.95 Q-53.65 88.65 -48.75 91.95 -41.7 96.7 -27.7 98.45 -9.4 98.65 -6.15 91.95 L-5.95 91.45 -5.9 91.95 Q-5.55 101.7 -28.95 100.95 -44.05 99.4 -50.8 91.95 -53.85 88.55 -55.2 83.95 M-37.15 14.65 Q-32.25 8.6 -30.2 4.85 L-30.45 4.45 -29.95 5.2 -30.75 6.3 Q-34.35 13.7 -46.35 25.7 L-45.45 24.7 -42.85 21.4 -37.15 14.65" fill="#000000" fill-opacity="0.49803922" fill-rule="evenodd" stroke="none"/>
  </g>
</svg>
