<?xml version="1.0" encoding="UTF-8" standalone="no"?>
<svg xmlns:ffdec="https://www.free-decompiler.com/flash" xmlns:xlink="http://www.w3.org/1999/xlink" ffdec:objectType="shape" height="200.15px" width="255.5px" xmlns="http://www.w3.org/2000/svg">
  <g transform="matrix(1.0, 0.0, 0.0, 1.0, 79.95, 98.3)">
    <path d="M-1.0 -32.0 L-4.0 -35.0 -5.0 -40.0 0.25 -44.5 Q5.25 -47.75 9.0 -47.25 L10.0 -47.0 10.75 -47.75 11.25 -48.0 Q15.5 -52.25 21.5 -49.5 L22.75 -44.5 21.75 -40.0 Q20.75 -37.25 18.5 -36.75 L12.25 -36.25 Q7.25 -30.5 -1.0 -32.0 M32.25 -9.25 Q42.75 14.5 48.25 16.75 L51.5 25.5 51.75 34.5 48.5 48.0 45.5 55.0 Q24.0 81.75 3.5 79.25 L-4.5 79.25 -16.25 75.5 -24.25 72.25 Q-28.0 65.25 -27.25 64.25 L-25.75 62.0 -25.5 58.75 -21.25 53.75 -17.25 45.75 -13.75 35.5 -11.5 31.25 -8.75 22.5 -6.25 8.75 -1.25 -9.75 Q13.25 4.5 25.5 -2.5 L26.0 -2.75 30.25 -5.5 32.25 -9.25 M8.25 -39.5 L7.25 -39.75 6.5 -39.5 5.5 -39.0 5.25 -38.75 5.0 -38.0 Q3.0 -33.5 9.0 -35.25 L9.75 -39.0 8.75 -39.5 8.25 -39.5 M19.5 -43.25 L18.75 -43.0 17.5 -43.25 16.25 -42.5 16.25 -42.0 Q14.0 -41.5 16.5 -38.25 L19.0 -38.75 20.5 -41.75 19.5 -43.25" fill="#ffffff" fill-rule="evenodd" stroke="none"/>
    <path d="M19.5 -43.25 L20.5 -41.75 19.0 -38.75 16.5 -38.25 Q14.0 -41.5 16.25 -42.0 L16.25 -42.5 17.5 -43.25 18.75 -43.0 19.5 -43.25 M8.25 -39.5 L8.75 -39.5 9.75 -39.0 9.0 -35.25 Q3.0 -33.5 5.0 -38.0 L5.25 -38.75 5.5 -39.0 6.5 -39.5 7.25 -39.75 8.25 -39.5" fill="#000000" fill-rule="evenodd" stroke="none"/>
    <path d="M-1.0 -32.0 Q7.25 -30.5 12.25 -36.25 L18.5 -36.75 Q20.75 -37.25 21.75 -40.0 27.0 -39.0 32.25 -24.5 L32.75 -23.0 Q34.25 -19.5 33.75 -14.25 L32.25 -9.25 30.25 -5.5 26.0 -2.75 25.5 -2.5 Q13.25 4.5 -1.25 -9.75 L-5.25 -14.25 -7.0 -17.5 Q-7.0 -22.75 -5.0 -27.25 L-1.0 -32.0 M45.5 55.0 Q62.1 80.1 50.45 92.0 48.4 94.1 45.5 95.75 27.25 105.0 12.0 100.25 7.35 98.4 5.25 92.0 3.6 87.0 3.5 79.25 24.0 81.75 45.5 55.0 M-4.5 79.25 L-4.5 85.75 -6.0 91.5 -6.0 92.0 Q-6.3 101.75 -28.75 101.0 L-41.75 98.0 Q-45.55 97.1 -50.95 92.0 L-52.25 90.75 -53.75 68.75 -53.75 68.25 -52.5 66.25 Q-39.25 76.5 -16.25 75.5 L-4.5 79.25" fill="#e58508" fill-rule="evenodd" stroke="none"/>
    <path d="M58.3 -49.55 L44.05 -42.05 42.8 -41.8 41.8 -43.05 46.95 -45.05 53.55 -49.3 Q64.6 -56.35 70.05 -60.8 78.85 -67.85 84.8 -72.05 89.35 -75.25 91.8 -76.4 L92.3 -76.8 93.7 -77.65 Q93.8 -78.1 94.3 -78.15 L94.4 -78.15 94.85 -78.55 94.65 -78.15 96.9 -78.05 Q98.75 -77.95 100.8 -78.0 L106.9 -78.5 111.55 -79.2 124.3 -81.85 147.3 -87.7 152.4 -88.95 161.55 -92.3 167.0 -94.05 169.3 -94.85 169.3 -95.05 171.55 -96.05 172.3 -96.55 172.3 -98.3 175.55 -96.55 169.05 -92.8 164.8 -91.65 163.55 -91.3 140.8 -85.05 140.55 -85.05 138.8 -84.55 138.55 -84.55 131.3 -82.55 131.05 -82.55 130.55 -82.3 107.3 -77.05 93.55 -76.55 92.55 -75.55 91.8 -75.05 91.3 -74.55 85.55 -70.05 85.05 -69.55 84.8 -69.55 83.3 -68.05 83.05 -68.05 79.3 -65.05 78.55 -64.3 78.05 -64.05 77.55 -63.55 58.3 -49.55 M17.65 -0.8 Q27.3 -0.8 31.8 -6.85 28.5 24.65 13.65 25.7 -4.75 27.4 -7.0 -16.1 -5.8 -13.8 -4.45 -12.95 L-2.25 -10.95 Q0.6 -6.9 5.0 -4.95 11.0 -0.8 17.65 -0.8 M57.3 -1.55 L57.3 0.45 56.8 -1.55 57.3 -1.55 M57.05 -2.05 L56.8 -4.3 57.05 -4.3 57.05 -2.05 M57.8 13.7 L56.05 24.45 51.8 34.45 48.55 47.95 45.55 54.95 Q24.05 81.7 3.55 79.2 L-4.45 79.2 -16.2 75.45 Q-39.2 76.45 -52.45 66.2 L-53.7 64.95 -53.95 64.95 -54.2 60.7 -54.45 59.95 -54.45 57.7 -54.7 56.95 -54.7 55.45 Q-44.45 63.45 -27.2 64.2 L-25.95 62.2 -20.45 63.95 -15.5 64.85 Q-8.1 66.2 2.75 66.2 11.85 66.2 22.8 62.6 30.5 60.05 32.65 58.55 35.9 56.1 38.8 54.2 L48.8 43.7 52.05 30.95 51.55 25.45 56.05 16.95 57.3 0.95 57.55 3.2 57.8 13.7 M28.3 98.7 Q41.1 96.6 47.9 91.95 53.15 88.35 54.8 83.2 53.6 88.25 50.1 91.95 43.3 99.15 27.8 101.45 L15.8 101.2 9.05 98.45 6.05 93.95 4.55 87.7 5.05 88.45 Q5.15 90.4 5.85 91.95 9.35 100.4 28.3 98.7 M-79.9 80.05 L-79.95 79.95 -79.9 80.0 -79.9 80.05 M-53.45 70.7 L-53.45 71.7 -53.7 70.7 -53.45 70.7 M-50.9 91.95 L-52.2 90.7 -52.2 88.95 Q-51.1 90.6 -49.25 91.95 -41.55 97.65 -20.95 98.45 L-10.95 96.2 Q-7.65 94.5 -6.3 91.95 L-5.8 90.8 -5.95 91.45 -5.95 91.95 Q-6.25 101.7 -28.7 100.95 L-41.7 97.95 Q-45.5 97.05 -50.9 91.95" fill="#000000" fill-opacity="0.49803922" fill-rule="evenodd" stroke="none"/>
  </g>
</svg>
