<?xml version="1.0" encoding="UTF-8" standalone="no"?>
<svg xmlns:ffdec="https://www.free-decompiler.com/flash" xmlns:xlink="http://www.w3.org/1999/xlink" ffdec:objectType="shape" height="213.85px" width="244.25px" xmlns="http://www.w3.org/2000/svg">
  <g transform="matrix(1.0, 0.0, 0.0, 1.0, 67.95, 112.05)">
    <path d="M-1.75 -32.0 L-5.0 -35.25 -6.0 -39.75 Q0.75 -46.75 8.25 -47.0 L9.25 -47.0 9.75 -47.5 14.75 -50.25 Q20.5 -51.5 21.0 -49.25 L22.0 -44.5 21.0 -39.75 19.0 -37.0 11.75 -36.0 Q3.0 -29.0 -1.75 -32.0 M31.75 -9.5 L35.0 -1.75 41.25 9.75 48.0 17.0 52.0 28.25 51.5 35.0 48.25 48.25 45.5 55.0 37.0 65.75 23.0 75.25 9.0 79.25 3.5 79.25 -4.5 79.25 -7.25 79.0 -16.75 75.5 -24.75 72.25 -27.75 64.75 -26.0 61.75 -25.75 58.5 -22.0 54.25 -17.0 44.25 -11.75 30.75 -8.75 20.5 -6.75 8.5 -2.0 -9.5 Q17.5 9.5 31.75 -9.5 M7.5 -39.25 L6.5 -39.5 5.75 -39.25 4.75 -38.75 4.25 -38.0 Q2.75 -35.5 4.0 -35.0 L7.25 -34.5 Q10.25 -37.25 8.0 -39.25 L7.5 -39.25 M19.0 -39.25 L19.75 -41.0 19.25 -42.5 18.5 -43.25 18.0 -43.5 16.75 -43.25 16.0 -42.25 15.5 -42.25 15.25 -41.75 Q13.0 -38.75 17.5 -38.25 L19.0 -39.25" fill="#ffffff" fill-rule="evenodd" stroke="none"/>
    <path d="M19.0 -39.25 L17.5 -38.25 Q13.0 -38.75 15.25 -41.75 L15.5 -42.25 16.0 -42.25 16.75 -43.25 18.0 -43.5 18.5 -43.25 19.25 -42.5 19.75 -41.0 19.0 -39.25 M7.5 -39.25 L8.0 -39.25 Q10.25 -37.25 7.25 -34.5 L4.0 -35.0 Q2.75 -35.5 4.25 -38.0 L4.75 -38.75 5.75 -39.25 6.5 -39.5 7.5 -39.25" fill="#000000" fill-rule="evenodd" stroke="none"/>
    <path d="M-1.75 -32.0 Q3.0 -29.0 11.75 -36.0 L19.0 -37.0 21.0 -39.75 Q35.5 -28.5 31.75 -9.5 17.5 9.5 -2.0 -9.5 -13.75 -16.75 -1.75 -32.0 M45.5 55.0 Q62.0 79.9 50.45 92.0 48.3 94.2 45.25 96.0 25.75 104.75 12.0 100.25 7.5 98.95 5.35 92.0 3.8 87.05 3.5 79.25 L9.0 79.25 23.0 75.25 37.0 65.75 45.5 55.0 M-4.5 79.25 L-4.5 85.75 -6.0 91.5 -5.95 92.0 Q-5.9 101.95 -32.0 100.5 L-37.25 73.5 -27.25 75.5 -16.75 75.5 -7.25 79.0 -4.5 79.25 M-55.25 81.75 L-48.0 94.5 -52.75 90.0 Q-56.25 84.0 -55.75 81.5 L-55.25 81.75" fill="#e58508" fill-rule="evenodd" stroke="none"/>
    <path d="M58.05 -50.8 L43.55 -42.05 41.55 -41.8 41.05 -42.8 48.45 -46.3 Q50.9 -48.35 55.1 -51.65 L69.3 -63.05 Q76.3 -69.4 83.55 -75.0 L87.35 -77.75 92.8 -82.3 94.55 -85.05 93.75 -82.65 94.95 -82.55 96.65 -82.6 111.55 -85.3 147.75 -97.8 Q168.7 -106.1 172.8 -110.3 L172.55 -112.05 176.3 -110.8 170.05 -106.05 150.55 -98.3 150.3 -98.05 146.8 -96.8 146.3 -96.55 144.8 -96.05 144.55 -96.05 143.05 -95.55 142.8 -95.3 142.3 -95.3 142.3 -95.05 141.8 -95.05 136.55 -93.05 136.3 -93.05 131.3 -91.05 130.8 -90.8 124.55 -88.8 124.3 -88.8 115.3 -85.8 115.05 -85.55 109.8 -83.8 109.3 -83.8 108.55 -83.55 99.05 -81.8 98.3 -81.8 97.55 -81.55 96.3 -81.55 95.8 -81.3 92.8 -81.05 91.65 -80.0 91.8 -80.05 77.55 -67.05 77.3 -67.05 76.05 -65.8 58.05 -50.8 M57.05 -0.55 L56.55 -0.8 57.05 -2.05 57.05 -0.55 M16.65 -0.55 Q26.75 -0.55 31.55 -9.65 28.65 24.95 13.1 26.05 -5.55 27.75 -7.65 -16.85 -6.25 -13.9 -4.75 -12.3 L-1.6 -9.05 Q-0.4 -7.65 1.05 -6.55 L3.05 -5.0 Q9.35 -0.55 16.65 -0.55 M51.55 34.95 L48.3 48.2 45.55 54.95 37.05 65.7 23.05 75.2 9.05 79.2 -4.45 79.2 -7.2 78.95 -16.7 75.45 -27.2 75.45 -37.2 73.45 -38.45 67.2 -38.7 66.7 -39.45 62.45 -33.7 63.95 -27.7 64.45 -26.2 62.2 -22.15 63.55 -4.7 65.7 1.95 65.7 22.8 62.6 Q27.05 61.5 34.55 57.35 L41.0 52.45 47.8 44.7 51.8 31.45 52.05 28.2 51.3 25.45 55.8 17.2 56.8 11.95 56.3 11.7 57.05 -0.05 57.3 2.2 Q57.55 29.2 51.55 34.95 M4.55 87.7 L5.05 88.45 Q5.4 90.35 6.15 91.95 10.45 100.8 28.3 98.7 41.35 96.0 48.0 91.95 50.5 90.4 52.1 88.7 L49.6 91.95 Q42.25 100.05 27.8 101.45 L15.8 101.2 9.05 98.45 6.55 95.2 4.55 87.7 M54.8 82.2 L54.8 81.7 55.05 81.7 54.8 82.2 M-57.2 77.95 L-61.45 71.2 -67.95 56.7 -57.2 77.95 M-47.95 94.45 L-51.95 90.95 -53.85 86.9 -53.45 87.7 -49.95 90.95 -47.95 94.45 M-35.95 80.2 L-35.95 80.45 -36.2 80.2 -35.95 80.2 M-34.95 85.2 L-34.95 85.45 -35.2 85.2 -34.95 85.2 M-35.2 84.2 L-35.45 83.95 -35.2 83.95 -35.2 84.2 M-4.95 86.2 L-4.95 85.2 -4.7 85.2 -4.95 86.2 M-5.9 91.7 L-5.9 91.95 Q-5.8 101.95 -31.95 100.45 L-32.45 97.95 Q-9.5 99.2 -6.0 91.95 L-5.9 91.7" fill="#000000" fill-opacity="0.49803922" fill-rule="evenodd" stroke="none"/>
  </g>
</svg>
