<?xml version="1.0" encoding="UTF-8" standalone="no"?>
<svg xmlns:ffdec="https://www.free-decompiler.com/flash" xmlns:xlink="http://www.w3.org/1999/xlink" ffdec:objectType="shape" height="225.4px" width="233.2px" xmlns="http://www.w3.org/2000/svg">
  <g transform="matrix(1.0, 0.0, 0.0, 1.0, 63.4, 123.75)">
    <path d="M-2.75 -31.75 L-5.5 -34.5 -6.75 -39.5 1.5 -45.5 7.25 -46.75 8.5 -46.75 9.0 -47.25 Q17.25 -52.25 20.25 -49.0 21.25 -48.5 21.0 -42.5 L20.25 -39.5 17.75 -36.5 11.0 -35.75 Q1.75 -28.75 -2.75 -31.75 M31.0 -9.25 L39.75 8.5 43.0 13.0 47.75 17.5 51.75 28.5 51.25 35.5 48.25 47.75 45.25 55.0 37.0 65.75 22.75 75.25 8.25 79.5 3.5 79.5 -4.5 79.5 -7.0 79.25 -17.25 75.5 -25.25 72.25 -27.25 62.5 -26.5 61.75 -26.0 58.25 -22.25 54.0 -18.0 45.25 -12.5 31.0 -9.25 19.75 -7.5 9.0 -2.75 -9.25 Q16.75 9.75 31.0 -9.25 M6.75 -39.25 L5.5 -39.25 4.75 -39.0 3.75 -38.5 3.25 -37.5 2.75 -35.5 3.5 -34.5 6.5 -34.25 8.0 -36.25 8.0 -38.75 6.75 -39.25 M15.75 -42.75 L14.5 -41.5 Q11.75 -38.0 17.0 -38.0 L19.0 -41.0 18.0 -42.75 17.5 -43.0 16.25 -43.0 15.75 -42.75" fill="#ffffff" fill-rule="evenodd" stroke="none"/>
    <path d="M15.75 -42.75 L16.25 -43.0 17.5 -43.0 18.0 -42.75 19.0 -41.0 17.0 -38.0 Q11.75 -38.0 14.5 -41.5 L15.75 -42.75 M6.75 -39.25 L8.0 -38.75 8.0 -36.25 6.5 -34.25 3.5 -34.5 2.75 -35.5 3.25 -37.5 3.75 -38.5 4.75 -39.0 5.5 -39.25 6.75 -39.25" fill="#000000" fill-rule="evenodd" stroke="none"/>
    <path d="M-2.75 -31.75 Q1.75 -28.75 11.0 -35.75 L17.75 -36.5 20.25 -39.5 Q26.5 -37.5 30.75 -24.0 L31.0 -23.5 32.25 -17.75 Q32.25 -10.0 31.0 -9.25 16.75 9.75 -2.75 -9.25 -14.25 -16.75 -2.75 -31.75 M45.25 55.0 Q62.7 77.6 49.7 92.0 L46.25 95.25 Q11.0 109.45 4.75 92.0 2.95 87.05 3.5 79.5 L8.25 79.5 22.75 75.25 37.0 65.75 45.25 55.0 M-4.5 79.5 L-4.5 85.75 -6.0 91.5 -5.9 92.0 Q-5.3 97.15 -16.5 100.5 L-30.75 100.75 -36.25 99.75 -46.0 96.0 Q-49.4 94.4 -51.6 92.0 -59.3 83.7 -52.5 66.25 L-47.5 69.75 -38.5 73.25 -33.75 74.25 -32.5 76.25 -32.5 76.5 -30.0 79.5 -26.0 82.25 -24.5 77.0 -24.75 75.5 -17.25 75.5 -7.0 79.25 -4.5 79.5" fill="#e58508" fill-rule="evenodd" stroke="none"/>
    <path d="M152.1 -112.75 Q166.75 -120.85 168.95 -123.75 L169.8 -123.55 164.3 -118.05 126.8 -98.3 126.55 -98.05 104.3 -87.55 91.55 -84.55 89.8 -84.55 86.3 -80.05 77.8 -71.8 76.55 -70.8 75.55 -69.55 56.55 -51.3 43.3 -42.05 41.55 -41.05 40.55 -41.05 39.55 -42.3 44.2 -44.85 52.2 -51.7 Q63.45 -61.0 67.05 -64.6 L69.0 -66.5 64.55 -62.55 71.55 -69.55 71.8 -69.55 72.3 -70.05 73.05 -70.55 81.2 -78.25 83.8 -80.45 89.3 -85.55 90.8 -88.8 90.55 -86.55 103.55 -90.05 139.05 -105.8 152.1 -112.75 M15.4 -0.3 Q25.25 -0.3 30.55 -9.45 L31.05 -10.3 Q28.25 25.25 12.5 26.35 -5.9 28.05 -8.15 -15.45 -7.05 -13.5 -5.45 -11.8 -0.1 -6.1 1.8 -4.75 7.85 -0.3 15.4 -0.3 M51.3 35.45 L48.3 47.7 45.3 54.95 37.05 65.7 22.8 75.2 8.3 79.45 -4.45 79.45 -6.95 79.2 -17.2 75.45 -24.7 75.45 -25.45 73.95 -25.7 70.7 -25.7 70.45 -25.95 69.45 -25.95 68.7 -26.2 67.95 -27.2 62.45 -26.7 62.2 -15.3 66.7 -15.75 66.5 -14.1 66.75 -1.75 67.45 Q13.45 67.45 23.1 64.35 26.5 63.25 32.55 59.8 L37.95 54.85 38.05 54.7 43.05 50.2 48.05 44.2 51.55 31.7 51.8 28.7 50.8 25.7 Q52.3 25.45 55.8 17.45 L57.55 8.7 Q57.05 27.7 51.3 35.45 M11.05 96.95 L17.3 98.7 28.3 98.7 Q40.85 96.8 47.75 91.95 52.8 88.4 54.8 83.2 53.15 88.25 49.9 91.95 43.2 99.5 29.55 101.2 7.35 103.75 5.25 91.95 L5.05 90.2 8.05 94.95 11.05 96.95 M5.05 89.95 L4.55 87.7 5.05 88.45 5.05 89.95 M54.8 82.2 L54.8 81.7 55.05 81.7 54.8 82.2 M-36.05 28.85 Q-35.7 29.6 -35.7 29.9 L-35.75 30.55 -35.85 30.7 Q-37.25 29.1 -38.45 25.65 -40.0 21.25 -40.7 19.95 L-43.4 14.4 -43.45 14.45 -46.2 8.45 -43.45 11.95 -42.95 12.95 -42.7 13.2 -42.7 13.7 -42.75 13.75 -40.4 18.45 Q-36.45 26.45 -36.45 27.95 L-36.05 28.85 M-46.45 47.7 L-40.2 58.2 -37.95 63.55 -34.65 69.4 Q-31.1 76.25 -26.6 79.7 -26.0 78.85 -26.0 77.7 L-25.9 77.6 -25.45 77.45 Q-24.9 77.45 -24.75 78.05 L-24.75 78.75 Q-24.75 79.45 -25.2 80.2 L-25.75 80.9 -25.95 81.7 -25.95 81.0 -26.7 81.2 Q-28.25 81.2 -30.3 79.1 L-31.2 78.45 -32.45 76.45 -32.35 76.55 -33.95 74.15 -38.45 73.2 -47.45 69.7 -52.45 66.2 Q-60.4 62.0 -63.4 50.4 -60.05 53.8 -56.05 54.65 L-52.2 57.7 -40.2 62.45 -51.7 38.7 -60.95 13.95 -51.45 37.2 -46.45 47.7 M-48.9 91.95 Q-42.4 96.45 -29.95 98.2 -9.75 99.25 -6.15 91.95 L-5.95 91.45 -5.9 91.95 Q-5.6 101.7 -30.7 100.7 -44.0 99.5 -50.6 91.95 -53.2 89.0 -54.75 85.1 -53.0 89.1 -48.9 91.95 M-4.95 85.2 L-4.7 85.2 -4.95 86.2 -4.95 85.2" fill="#000000" fill-opacity="0.49803922" fill-rule="evenodd" stroke="none"/>
  </g>
</svg>
