<?xml version="1.0" encoding="UTF-8" standalone="no"?>
<svg xmlns:ffdec="https://www.free-decompiler.com/flash" xmlns:xlink="http://www.w3.org/1999/xlink" ffdec:objectType="shape" height="232.45px" width="217.1px" xmlns="http://www.w3.org/2000/svg">
  <g transform="matrix(1.0, 0.0, 0.0, 1.0, 65.05, 130.8)">
    <path d="M19.5 -39.25 Q18.0 -36.0 16.5 -36.0 L10.0 -35.5 3.5 -31.5 Q-1.5 -30.0 -3.75 -31.5 L-6.75 -34.75 -7.75 -39.5 0.0 -45.0 Q2.75 -46.75 6.25 -46.5 L7.5 -46.5 8.0 -47.0 12.75 -49.5 Q17.5 -51.0 19.25 -48.75 L20.5 -43.0 19.5 -39.25 M-3.75 -9.0 Q10.0 5.0 22.5 -1.5 L23.5 -2.0 27.5 -4.5 30.0 -9.25 Q40.25 13.75 47.5 18.25 L51.0 27.25 51.0 36.25 50.75 36.75 48.0 47.75 45.25 55.0 36.25 66.25 22.25 75.5 8.25 79.5 3.5 79.5 -4.5 79.5 -7.75 79.25 -18.0 75.5 -25.5 72.25 -28.75 64.5 -27.25 62.0 -27.0 58.75 -22.75 53.75 -18.25 44.0 -13.25 30.75 -10.75 22.5 -8.25 8.0 -3.75 -9.0 M14.75 -42.5 L13.75 -41.75 13.5 -41.0 12.75 -40.5 13.0 -39.0 14.75 -37.5 17.0 -38.5 Q18.75 -40.75 17.25 -42.0 L17.25 -42.25 16.75 -42.5 16.0 -43.0 15.25 -42.75 14.75 -42.5 M3.75 -38.75 L2.75 -38.25 2.5 -38.0 2.25 -37.25 Q0.75 -32.75 6.25 -34.5 L7.0 -38.25 6.0 -38.75 5.5 -38.75 4.5 -39.0 3.75 -38.75" fill="#ffffff" fill-rule="evenodd" stroke="none"/>
    <path d="M14.75 -42.5 L15.25 -42.75 16.0 -43.0 16.75 -42.5 17.25 -42.25 17.25 -42.0 Q18.75 -40.75 17.0 -38.5 L14.75 -37.5 13.0 -39.0 12.75 -40.5 13.5 -41.0 13.75 -41.75 14.75 -42.5 M3.75 -38.75 L4.5 -39.0 5.5 -38.75 6.0 -38.75 7.0 -38.25 6.25 -34.5 Q0.75 -32.75 2.25 -37.25 L2.5 -38.0 2.75 -38.25 3.75 -38.75" fill="#000000" fill-rule="evenodd" stroke="none"/>
    <path d="M19.5 -39.25 Q20.75 -39.75 25.0 -34.5 L28.25 -27.75 30.25 -22.5 Q31.75 -18.75 31.25 -13.5 L30.0 -9.25 27.5 -4.5 23.5 -2.0 22.5 -1.5 Q10.0 5.0 -3.75 -9.0 -15.25 -17.0 -3.75 -31.5 -1.5 -30.0 3.5 -31.5 L10.0 -35.5 16.5 -36.0 Q18.0 -36.0 19.5 -39.25 M45.25 55.0 Q62.7 77.6 49.7 92.0 L46.25 95.25 Q32.75 104.25 12.25 100.25 7.8 100.4 5.5 92.0 4.15 87.15 3.5 79.5 L8.25 79.5 22.25 75.5 36.25 66.25 45.25 55.0 M-4.5 79.5 L-4.5 85.75 -6.0 91.5 -5.95 92.0 Q-5.7 98.1 -16.5 100.5 L-30.75 100.75 -36.25 99.75 -46.0 96.0 Q-49.4 94.4 -51.6 92.0 -59.3 83.7 -52.5 66.25 -39.25 76.0 -18.0 75.5 L-7.75 79.25 -4.5 79.5" fill="#e58508" fill-rule="evenodd" stroke="none"/>
    <path d="M117.8 -104.05 L99.8 -92.05 88.3 -87.55 85.05 -87.3 83.8 -84.8 57.05 -54.3 42.8 -41.8 39.3 -40.55 38.55 -41.8 44.9 -46.0 51.4 -52.85 65.3 -67.3 Q70.25 -72.75 77.45 -79.45 79.5 -81.3 84.0 -87.4 L84.8 -88.3 84.8 -88.8 85.05 -90.8 88.0 -92.35 88.05 -92.85 Q88.15 -92.85 88.3 -92.95 L88.8 -93.05 Q89.1 -93.05 89.7 -92.3 91.15 -92.3 97.4 -94.65 L99.6 -95.45 138.3 -119.8 149.3 -128.05 152.05 -130.8 150.05 -128.05 126.05 -110.05 125.8 -110.05 118.05 -104.55 117.8 -104.05 M71.65 -111.95 L71.0 -110.25 Q70.15 -108.45 70.15 -106.45 L70.45 -104.55 70.9 -102.55 71.05 -101.8 71.05 -101.35 Q70.95 -101.1 70.55 -101.1 69.75 -101.1 69.25 -103.65 L69.05 -102.8 68.55 -104.3 70.3 -110.05 71.65 -112.0 71.65 -111.95 M14.3 -0.05 Q24.8 -0.05 29.1 -6.85 25.8 24.75 10.95 25.8 -7.6 27.5 -9.75 -16.7 L-9.3 -15.55 Q-8.4 -13.65 -5.75 -12.05 -2.6 -6.8 2.85 -4.6 L3.1 -4.35 Q8.15 -0.05 14.3 -0.05 M57.55 10.2 L57.55 15.7 55.55 26.2 50.8 36.7 48.05 47.7 45.3 54.95 36.3 66.2 22.3 75.45 8.3 79.45 -7.7 79.2 -17.95 75.45 Q-39.2 75.95 -52.45 66.2 -62.35 60.0 -64.85 45.55 -63.25 47.85 -61.25 50.05 -52.95 59.25 -44.35 61.05 -37.85 63.05 -28.7 64.2 L-27.45 62.2 Q-23.15 64.35 -19.5 65.7 L-15.95 66.25 -6.95 66.95 -6.55 66.95 Q-6.85 66.95 -6.9 67.1 L-6.1 67.55 -5.7 67.45 -5.65 68.0 -5.65 67.65 Q-2.95 67.9 5.75 66.45 19.15 64.15 29.55 60.1 31.2 59.5 34.4 57.7 L36.0 56.8 37.3 55.2 47.05 45.2 48.55 42.2 51.3 31.7 50.55 26.2 Q52.05 25.7 56.05 16.95 L57.55 10.2 M54.8 83.2 L54.8 81.7 55.05 81.7 54.8 83.2 Q53.25 88.25 50.0 91.95 43.25 99.5 29.3 101.2 7.35 103.75 5.25 91.95 L5.05 90.2 8.05 94.95 11.05 96.95 17.3 98.7 28.3 98.7 Q40.85 96.8 47.75 91.95 52.8 88.4 54.8 83.2 M5.05 89.95 L4.55 87.7 5.05 88.45 5.05 89.95 M-51.85 -18.3 Q-50.95 -17.4 -50.4 -14.95 L-49.7 -11.2 -48.7 -6.7 -45.9 1.3 -45.8 1.55 Q-40.1 12.7 -37.2 12.7 -35.3 12.7 -34.45 11.4 L-34.35 11.2 Q-33.7 9.1 -33.35 7.05 L-33.1 3.55 Q-32.9 1.35 -32.2 0.5 L-32.05 0.55 -31.85 0.7 -31.3 0.65 -29.7 0.7 -29.2 0.7 -30.45 1.7 -30.95 1.95 -31.8 2.65 -31.8 2.7 -31.7 4.4 -31.95 7.85 -31.95 7.95 -31.7 8.9 Q-31.7 10.15 -33.3 13.05 L-35.0 15.6 Q-36.85 18.6 -40.45 15.2 L-41.95 13.95 -45.7 7.45 -49.7 -3.3 -49.95 -4.3 -49.95 -4.55 -50.45 -6.3 -50.45 -6.55 -50.4 -6.7 -50.7 -7.75 -50.7 -7.05 -51.95 -10.3 -51.25 -10.05 -51.65 -12.15 Q-52.25 -14.7 -52.25 -16.35 -52.25 -17.75 -51.85 -18.3 M-64.95 32.95 L-64.85 33.5 -65.05 32.85 -64.95 32.95 M-48.65 91.95 Q-41.8 95.8 -27.7 98.45 -9.4 98.65 -6.15 91.95 L-5.95 91.45 -5.9 91.95 Q-5.6 101.7 -30.7 100.7 -44.05 99.5 -50.6 91.95 L-53.05 88.6 Q-51.45 90.4 -48.65 91.95 M-4.7 85.2 L-4.95 86.2 -4.95 85.2 -4.7 85.2" fill="#000000" fill-opacity="0.49803922" fill-rule="evenodd" stroke="none"/>
  </g>
</svg>
