<?xml version="1.0" encoding="UTF-8" standalone="no"?>
<svg xmlns:ffdec="https://www.free-decompiler.com/flash" xmlns:xlink="http://www.w3.org/1999/xlink" ffdec:objectType="shape" height="240.15px" width="194.7px" xmlns="http://www.w3.org/2000/svg">
  <g transform="matrix(1.0, 0.0, 0.0, 1.0, 65.15, 138.3)">
    <path d="M18.5 -39.0 L16.5 -36.25 Q10.75 -34.75 8.75 -35.5 2.0 -29.0 -4.75 -31.5 L-7.75 -34.5 -8.75 -39.5 -2.5 -44.25 Q3.0 -47.25 5.25 -46.5 L6.5 -46.25 6.75 -46.75 7.25 -47.0 Q14.75 -51.75 18.25 -48.5 19.75 -47.0 19.25 -42.75 L18.5 -39.0 M-4.75 -8.75 Q9.75 5.25 20.25 -1.0 23.5 -1.75 26.5 -4.5 L29.25 -9.5 Q38.75 13.75 47.0 18.5 L50.75 28.25 50.5 37.5 50.25 38.0 45.25 54.75 35.75 66.5 21.5 75.75 6.75 79.75 3.5 79.5 -4.5 79.5 -8.25 79.25 -18.75 75.25 -26.25 72.0 -29.75 64.0 -28.5 62.25 -27.75 58.25 -23.75 53.5 -19.75 45.0 -14.5 31.25 -10.75 17.75 -9.25 7.5 -4.75 -8.75 M15.25 -37.75 L16.75 -41.0 15.5 -42.5 13.75 -42.5 12.25 -41.0 Q10.5 -40.5 12.75 -37.25 L15.25 -37.75 M3.25 -39.0 L2.5 -38.75 1.75 -38.25 1.0 -37.25 Q-0.5 -34.75 2.0 -33.75 L5.25 -34.5 5.75 -38.25 4.75 -38.75 4.0 -38.5 3.25 -39.0" fill="#ffffff" fill-rule="evenodd" stroke="none"/>
    <path d="M15.25 -37.75 L12.75 -37.25 Q10.5 -40.5 12.25 -41.0 L13.75 -42.5 15.5 -42.5 16.75 -41.0 15.25 -37.75 M3.25 -39.0 L4.0 -38.5 4.75 -38.75 5.75 -38.25 5.25 -34.5 2.0 -33.75 Q-0.5 -34.75 1.0 -37.25 L1.75 -38.25 2.5 -38.75 3.25 -39.0" fill="#000000" fill-rule="evenodd" stroke="none"/>
    <path d="M18.5 -39.0 Q19.5 -39.5 23.5 -35.0 L27.5 -27.0 29.75 -21.25 Q30.5 -10.75 29.25 -9.5 L26.5 -4.5 Q23.5 -1.75 20.25 -1.0 9.75 5.25 -4.75 -8.75 -16.75 -18.5 -4.75 -31.5 2.0 -29.0 8.75 -35.5 10.75 -34.75 16.5 -36.25 L18.5 -39.0 M45.25 54.75 Q62.45 78.15 49.85 92.0 48.2 93.85 46.0 95.5 26.75 105.25 11.5 100.0 7.55 99.4 5.45 92.0 4.1 87.2 3.5 79.5 L6.75 79.75 21.5 75.75 35.75 66.5 45.25 54.75 M-4.5 79.5 L-4.5 85.75 -6.0 91.5 -5.95 92.0 Q-5.9 102.2 -32.5 100.25 L-41.25 98.25 Q-47.65 95.6 -51.1 92.0 L-52.0 91.0 Q-59.75 82.75 -52.5 66.0 L-47.25 69.25 -37.25 73.25 -28.5 75.0 -18.75 75.25 -8.25 79.25 -4.5 79.5" fill="#e58508" fill-rule="evenodd" stroke="none"/>
    <path d="M117.05 -124.3 L119.1 -127.1 120.75 -128.7 125.1 -133.15 127.15 -135.65 127.55 -135.55 129.55 -138.3 128.55 -135.55 126.65 -133.15 Q89.5 -87.35 78.55 -89.3 L76.8 -85.8 52.8 -53.3 42.05 -42.3 38.3 -40.05 36.8 -42.3 Q41.1 -46.05 43.1 -46.75 L49.2 -53.25 61.8 -66.85 63.25 -68.6 77.05 -87.55 78.3 -90.8 75.55 -93.8 79.05 -95.55 80.65 -95.35 88.8 -100.35 91.3 -102.05 92.0 -102.25 91.6 -102.15 94.1 -103.8 97.5 -106.0 117.05 -124.3 M61.3 -103.55 L61.55 -107.55 63.05 -102.05 65.3 -98.8 62.55 -100.3 61.3 -103.55 M50.3 26.95 L55.8 17.95 57.55 9.95 Q58.05 25.7 50.55 37.45 L50.3 37.95 45.3 54.7 35.8 66.45 21.55 75.7 6.8 79.7 -8.2 79.2 -18.7 75.2 -28.45 74.95 -37.2 73.2 -47.2 69.2 -52.45 65.95 Q-62.7 60.0 -65.15 43.9 -63.2 47.15 -60.6 50.15 L-56.7 54.2 -56.3 54.55 Q-49.4 60.65 -41.65 61.65 L-36.95 62.95 -29.7 63.95 -28.2 61.7 Q-23.65 64.2 -19.35 65.65 L-16.05 66.3 -4.05 67.05 Q12.9 67.05 23.4 63.25 27.25 61.85 32.8 58.1 L38.45 53.8 45.3 46.95 47.55 44.2 51.05 32.95 50.3 26.95 M5.05 90.2 L8.05 94.95 11.05 96.95 18.05 98.7 28.3 98.7 Q40.2 97.6 47.55 91.95 52.05 88.45 54.8 83.2 53.55 88.25 50.15 91.95 43.2 99.45 27.3 101.45 7.3 103.3 5.25 91.95 L5.05 90.2 4.55 87.95 5.55 89.7 5.05 90.2 M27.4 -5.6 Q23.85 24.3 9.4 25.3 -9.2 27.0 -11.3 -17.5 -10.0 -15.25 -7.45 -12.85 -4.9 -8.45 -0.75 -6.1 L0.25 -5.25 Q6.95 0.2 13.65 0.2 23.05 0.2 27.4 -5.6 M54.8 83.2 L54.8 81.7 55.05 81.7 54.8 83.2 M-60.5 -50.9 L-58.15 -44.15 Q-54.75 -35.9 -50.3 -33.65 -45.9 -28.3 -40.55 -28.3 -36.35 -28.3 -34.45 -33.0 -33.75 -34.7 -33.5 -36.35 L-33.0 -36.9 -32.85 -34.85 -32.95 -33.45 Q-33.3 -31.65 -34.55 -29.4 L-34.7 -29.55 -34.65 -29.2 -37.0 -25.75 Q-41.2 -20.3 -41.2 -17.75 L-41.15 -16.9 -41.2 -15.05 -40.7 -15.35 -40.6 -15.0 -40.35 -14.05 Q-40.05 -13.35 -39.4 -13.1 L-38.75 -12.45 Q-37.3 -10.6 -35.05 -10.6 L-34.75 -10.6 -32.7 -10.45 -31.05 -10.55 -30.8 -10.65 -30.65 -10.7 Q-26.45 -10.85 -24.1 -13.75 -24.15 -11.7 -24.85 -10.85 L-25.3 -10.4 Q-25.6 -9.45 -26.7 -8.35 -28.55 -6.6 -31.4 -6.35 L-31.7 -6.3 -31.75 -6.35 -32.3 -6.35 -33.8 -6.55 -33.7 -6.3 -38.45 -8.55 -42.65 -13.8 Q-45.35 -13.95 -47.4 -17.5 L-48.7 -18.8 -54.45 -31.3 -57.95 -40.8 -60.45 -50.55 -60.5 -50.9 M-9.7 -40.8 L-9.6 -40.8 -9.7 -40.6 -9.7 -40.8 M-48.65 91.95 Q-41.8 95.8 -27.7 98.45 -9.4 98.65 -6.15 91.95 L-5.95 91.45 -5.9 91.95 Q-5.85 102.15 -32.45 100.2 -43.55 99.85 -50.25 91.95 L-52.15 89.5 -48.65 91.95 M-4.7 85.2 L-4.95 86.2 -4.95 85.2 -4.7 85.2" fill="#000000" fill-opacity="0.49803922" fill-rule="evenodd" stroke="none"/>
  </g>
</svg>
