<?xml version="1.0" encoding="UTF-8" standalone="no"?>
<svg xmlns:ffdec="https://www.free-decompiler.com/flash" xmlns:xlink="http://www.w3.org/1999/xlink" ffdec:objectType="shape" height="247.65px" width="180.75px" xmlns="http://www.w3.org/2000/svg">
  <g transform="matrix(1.0, 0.0, 0.0, 1.0, 75.7, 145.8)">
    <path d="M17.5 -39.25 Q16.75 -36.75 15.0 -36.25 L7.5 -35.75 Q1.25 -29.75 -6.0 -31.75 L-9.0 -35.0 -10.0 -40.0 -3.5 -44.75 Q-0.75 -46.75 4.0 -46.75 L5.25 -46.5 5.75 -47.0 11.25 -49.75 Q17.0 -50.75 17.25 -48.5 18.5 -47.5 18.5 -42.75 L17.5 -39.25 M-6.0 -8.75 Q6.25 4.25 18.5 -1.0 L18.75 -1.25 19.75 -1.5 25.0 -4.5 28.0 -9.75 Q30.75 -6.75 32.25 -0.25 L38.25 10.25 Q39.25 13.0 46.0 18.25 L48.5 23.25 50.75 30.0 Q50.75 37.25 49.85 39.4 L49.5 40.0 45.0 54.5 34.75 67.0 22.25 75.0 11.75 78.25 3.5 79.5 -4.5 79.25 -8.25 79.0 -19.75 74.75 -27.25 71.5 -30.75 63.5 -29.25 61.0 -29.0 57.5 -25.25 53.25 -21.5 45.75 -16.25 31.5 -12.0 17.0 -10.75 7.75 -6.0 -8.75 M14.0 -42.75 L13.0 -42.75 11.25 -41.75 11.25 -41.25 Q9.0 -40.75 11.75 -37.5 L14.25 -38.0 15.5 -41.25 14.5 -42.5 14.0 -42.75 M1.25 -39.0 L0.25 -38.5 -0.25 -37.75 Q-2.75 -34.25 2.75 -34.25 5.75 -36.5 3.5 -39.0 L3.0 -38.75 2.0 -39.25 1.25 -39.0" fill="#ffffff" fill-rule="evenodd" stroke="none"/>
    <path d="M14.0 -42.75 L14.5 -42.5 15.5 -41.25 14.25 -38.0 11.75 -37.5 Q9.0 -40.75 11.25 -41.25 L11.25 -41.75 13.0 -42.75 14.0 -42.75 M1.25 -39.0 L2.0 -39.25 3.0 -38.75 3.5 -39.0 Q5.75 -36.5 2.75 -34.25 -2.75 -34.25 -0.25 -37.75 L0.25 -38.5 1.25 -39.0" fill="#000000" fill-rule="evenodd" stroke="none"/>
    <path d="M17.5 -39.25 L21.75 -36.0 Q25.25 -31.75 26.5 -26.75 L27.0 -25.5 28.75 -18.25 28.0 -9.75 25.0 -4.5 19.75 -1.5 18.75 -1.25 18.5 -1.0 Q6.25 4.25 -6.0 -8.75 -18.0 -19.5 -6.0 -31.75 1.25 -29.75 7.5 -35.75 L15.0 -36.25 Q16.75 -36.75 17.5 -39.25 M45.0 54.5 Q62.65 78.15 49.9 92.0 L46.0 95.5 Q25.75 105.25 11.5 100.0 7.45 100.0 5.35 92.0 4.05 87.2 3.5 79.5 L11.75 78.25 22.25 75.0 34.75 67.0 45.0 54.5 M-4.5 79.25 L-4.5 85.75 -6.25 91.75 -6.25 92.0 Q-8.3 106.65 -45.0 96.5 -49.0 94.7 -51.5 92.0 -59.7 83.3 -52.25 65.5 L-48.75 68.0 -38.25 72.5 -30.0 74.25 -19.75 74.75 -8.25 79.0 -4.5 79.25" fill="#e58508" fill-rule="evenodd" stroke="none"/>
    <path d="M105.05 -145.8 L104.3 -141.05 99.3 -129.05 90.8 -112.55 80.55 -95.8 77.3 -92.8 76.8 -92.55 74.8 -90.8 71.3 -90.3 64.9 -79.3 65.05 -79.3 64.3 -78.3 63.55 -77.55 63.55 -77.05 63.05 -76.8 63.05 -76.05 48.8 -52.8 41.05 -43.05 38.55 -40.55 36.55 -40.8 45.3 -50.95 49.4 -57.15 58.8 -70.7 66.8 -86.1 Q69.0 -90.05 70.45 -91.95 L68.3 -94.3 64.05 -96.0 67.4 -95.7 Q75.85 -95.7 84.2 -109.85 L87.15 -115.4 96.05 -128.05 105.05 -145.8 M57.95 -99.8 Q58.5 -99.05 59.2 -98.45 57.9 -99.3 57.8 -99.8 L55.8 -101.05 54.8 -102.8 54.55 -105.05 57.8 -99.8 57.95 -99.8 M12.55 -0.05 Q21.85 -0.05 25.85 -6.25 22.3 23.75 7.85 24.75 -11.1 26.5 -12.95 -19.55 -11.6 -16.95 -9.45 -14.1 -7.05 -9.7 -3.2 -7.2 4.5 -0.05 12.55 -0.05 M66.55 -98.9 L66.25 -98.85 66.55 -99.05 66.55 -98.9 M57.8 11.2 L57.8 12.95 58.05 13.45 Q56.55 29.2 50.55 38.2 L49.55 39.95 45.05 54.45 34.8 66.95 22.3 74.95 11.8 78.2 3.55 79.45 -8.2 78.95 -19.7 74.7 -29.95 74.2 -38.2 72.45 -48.7 67.95 -52.2 65.45 Q-63.4 58.05 -65.7 43.15 L-62.95 47.3 Q-55.5 57.3 -46.15 59.9 -39.4 62.45 -30.7 63.2 L-29.45 61.2 -24.1 63.45 -17.75 64.8 -6.45 66.85 0.95 66.85 Q24.4 63.45 31.4 58.85 L35.15 56.65 44.55 47.7 46.55 45.45 50.8 32.7 50.8 29.95 49.8 27.45 Q51.3 27.2 55.8 18.2 L57.8 11.2 M5.7 91.95 Q9.75 100.15 28.05 98.7 41.1 96.2 47.85 91.95 51.95 89.4 53.7 86.2 52.25 89.4 49.9 91.95 42.65 99.75 27.05 101.45 L16.05 101.2 Q10.8 99.95 8.55 98.2 L5.55 92.7 5.15 90.65 5.7 91.95 M54.8 82.45 L54.8 81.7 55.05 81.7 54.8 82.45 M-74.45 -91.05 Q-74.45 -88.4 -72.7 -83.15 -68.5 -72.85 -63.35 -62.75 -50.75 -37.95 -43.7 -37.95 -41.4 -37.95 -39.8 -40.2 -41.0 -36.15 -41.0 -35.4 L-41.0 -35.3 Q-42.3 -32.25 -43.2 -32.05 L-43.8 -31.75 -43.2 -32.0 -43.1 -31.1 -43.1 -30.55 -41.45 -26.8 -40.15 -25.2 -39.2 -23.05 Q-36.6 -18.25 -32.35 -18.1 L-32.2 -17.8 -32.3 -18.1 -32.05 -18.1 Q-29.1 -18.1 -27.45 -19.5 L-26.95 -18.55 -26.95 -17.55 -27.2 -16.55 -29.7 -12.3 Q-30.3 -11.4 -31.2 -11.05 -31.3 -9.8 -33.2 -9.7 L-33.2 -9.55 -36.45 -10.05 -40.95 -13.8 -41.7 -14.55 -45.95 -21.55 -48.2 -27.8 -48.7 -30.3 -50.45 -31.05 -55.45 -37.55 -62.7 -52.8 -68.7 -67.8 -68.7 -68.05 -68.95 -68.55 -75.7 -86.05 -75.2 -92.8 -73.9 -93.05 -74.45 -91.05 M-5.45 88.4 L-5.45 87.7 -4.95 86.2 -5.45 88.4 M-4.95 85.2 L-4.7 85.2 -4.95 86.2 -4.95 85.2 M-55.2 83.95 L-54.7 84.95 -54.65 85.15 -55.2 83.95 M-52.2 89.4 L-48.95 91.95 Q-42.5 95.95 -28.95 98.2 -10.2 99.2 -6.35 91.95 L-6.2 91.75 -6.15 91.95 Q-5.25 101.7 -30.2 100.7 -43.0 100.2 -50.2 91.95 L-52.2 89.4" fill="#000000" fill-opacity="0.49803922" fill-rule="evenodd" stroke="none"/>
  </g>
</svg>
