<?xml version="1.0" encoding="UTF-8" standalone="no"?>
<svg xmlns:ffdec="https://www.free-decompiler.com/flash" xmlns:xlink="http://www.w3.org/1999/xlink" ffdec:objectType="shape" height="252.65px" width="168.25px" xmlns="http://www.w3.org/2000/svg">
  <g transform="matrix(1.0, 0.0, 0.0, 1.0, 84.45, 151.3)">
    <path d="M16.0 -39.75 Q15.75 -37.5 12.25 -36.5 L6.0 -36.5 Q2.95 -34.2 -0.5 -32.75 L-7.5 -33.0 -10.5 -36.0 -11.5 -41.25 -6.25 -45.25 Q-1.75 -48.0 2.5 -47.75 L3.75 -47.5 4.25 -48.0 10.0 -50.5 Q15.75 -51.5 16.0 -49.0 16.95 -48.1 17.0 -46.75 17.5 -41.75 16.0 -39.75 M-7.75 -9.75 Q2.75 3.0 16.0 -1.5 L17.0 -1.75 22.75 -5.0 26.25 -10.75 Q29.25 -7.75 31.25 0.0 L38.0 11.75 Q38.5 13.75 44.75 18.5 L47.5 23.25 50.25 31.0 Q51.25 37.0 48.25 42.75 L44.5 54.0 43.25 57.0 34.5 66.5 31.5 68.75 19.0 76.25 3.5 79.5 -4.5 79.0 -11.25 78.25 -21.25 74.0 -29.0 70.25 -32.25 62.5 -30.75 59.5 -30.75 56.75 -26.5 51.25 -17.5 29.5 -14.0 17.0 -13.5 11.25 -7.75 -9.75 M1.5 -40.0 L0.25 -40.25 -0.5 -40.0 -1.5 -39.5 -2.0 -38.75 Q-3.75 -36.25 -1.5 -35.25 L1.25 -35.25 Q4.0 -39.0 1.5 -40.0 M12.5 -43.5 L11.5 -43.5 11.0 -43.25 10.0 -42.5 9.5 -41.75 Q6.75 -38.75 11.75 -38.25 13.5 -39.0 14.0 -41.0 L13.5 -42.5 13.5 -42.75 Q12.8 -42.6 12.75 -43.25 L12.5 -43.5" fill="#ffffff" fill-rule="evenodd" stroke="none"/>
    <path d="M12.5 -43.5 L12.75 -43.25 Q12.8 -42.6 13.5 -42.75 L13.5 -42.5 14.0 -41.0 Q13.5 -39.0 11.75 -38.25 6.75 -38.75 9.5 -41.75 L10.0 -42.5 11.0 -43.25 11.5 -43.5 12.5 -43.5 M1.5 -40.0 Q4.0 -39.0 1.25 -35.25 L-1.5 -35.25 Q-3.75 -36.25 -2.0 -38.75 L-1.5 -39.5 -0.5 -40.0 0.25 -40.25 1.5 -40.0" fill="#000000" fill-rule="evenodd" stroke="none"/>
    <path d="M16.0 -39.75 Q17.75 -40.0 21.5 -35.5 L25.25 -26.5 27.0 -18.5 Q27.25 -11.5 26.25 -10.75 L22.75 -5.0 17.0 -1.75 16.0 -1.5 Q2.75 3.0 -7.75 -9.75 -19.5 -18.75 -7.5 -33.0 L-0.5 -32.75 Q2.95 -34.2 6.0 -36.5 L12.25 -36.5 Q15.75 -37.5 16.0 -39.75 M44.5 54.0 Q62.55 76.95 49.9 92.0 L49.25 92.75 Q39.75 102.0 18.75 101.25 8.55 102.45 5.2 92.0 3.6 87.05 3.5 79.5 L19.0 76.25 31.5 68.75 34.5 66.5 43.25 57.0 44.5 54.0 M-4.5 79.0 L-4.5 85.75 -6.75 93.25 Q-12.75 106.75 -45.25 96.25 -49.35 94.75 -51.8 92.0 -59.1 83.85 -52.0 64.75 L-50.5 66.0 -40.0 71.0 -35.0 72.25 -21.25 74.0 -11.25 78.25 -4.5 79.0" fill="#e58508" fill-rule="evenodd" stroke="none"/>
    <path d="M9.3 -0.8 Q19.9 -0.8 24.4 -7.95 21.05 23.2 6.3 24.25 -12.7 26.0 -14.5 -20.5 L-11.4 -15.45 Q-9.3 -11.15 -5.95 -8.55 1.4 -0.8 9.3 -0.8 M81.55 -149.8 L83.05 -150.05 83.8 -151.3 81.3 -135.8 81.3 -135.05 80.55 -132.05 80.55 -131.8 78.3 -119.55 74.55 -105.8 74.55 -105.55 72.8 -100.8 72.55 -100.55 71.8 -99.05 72.05 -99.05 71.55 -98.55 71.8 -98.55 70.3 -95.8 68.3 -93.8 65.55 -93.55 47.05 -55.8 40.05 -44.8 36.8 -41.3 34.8 -42.3 43.05 -52.3 51.3 -69.0 52.95 -71.55 54.8 -74.95 58.55 -81.05 58.55 -81.3 61.8 -87.8 61.8 -88.3 63.3 -91.3 64.3 -92.3 64.55 -94.3 61.3 -97.55 Q50.3 -101.55 50.05 -104.05 L48.05 -110.3 47.8 -112.3 48.05 -117.3 48.1 -117.3 Q48.15 -115.65 48.45 -114.05 L48.3 -113.55 48.55 -113.55 Q48.9 -111.45 49.65 -109.4 51.0 -105.65 53.25 -103.6 53.95 -102.85 54.8 -102.3 56.85 -100.05 60.8 -100.05 63.9 -100.05 66.15 -102.05 67.7 -103.4 68.0 -104.7 L68.05 -104.9 Q69.5 -107.1 70.65 -110.3 L71.85 -114.15 72.55 -115.8 76.05 -126.8 77.8 -136.3 81.55 -149.8 M57.8 21.2 Q56.05 32.95 48.3 42.7 L43.3 56.95 34.55 66.45 31.55 68.7 19.05 76.2 3.55 79.45 -11.2 78.2 -21.2 73.95 -34.95 72.2 -39.95 70.95 -50.45 65.95 -51.95 64.7 Q-64.25 56.05 -66.45 40.7 L-63.25 45.7 Q-61.7 47.85 -58.3 50.55 L-57.7 51.95 Q-50.45 58.7 -32.2 61.95 L-30.95 59.95 Q-24.9 63.45 -20.3 65.1 L-7.3 66.05 Q2.85 66.05 15.05 62.85 26.6 59.8 33.05 55.8 36.5 53.65 39.45 51.05 L44.65 46.2 46.3 44.45 50.3 34.2 50.3 31.2 49.3 28.45 55.3 20.2 Q57.45 15.1 57.95 12.15 L57.8 21.2 M58.0 9.45 L57.8 8.95 57.8 8.2 58.05 5.95 58.0 9.45 M4.55 86.95 Q4.9 89.8 6.05 91.95 10.5 100.5 27.05 98.7 40.75 96.35 47.75 91.95 51.85 89.35 53.7 86.05 L52.55 88.95 49.3 92.7 Q39.8 101.95 18.8 101.2 8.15 102.0 5.4 91.95 4.8 89.7 4.55 86.95 M-83.2 -107.1 Q-83.2 -104.6 -77.45 -90.35 -72.55 -78.3 -70.85 -74.85 -68.5 -70.1 -64.0 -58.8 -62.1 -54.1 -58.1 -48.2 L-58.0 -48.05 -57.55 -47.4 -56.65 -46.15 Q-54.5 -44.35 -52.3 -44.35 L-50.25 -44.65 Q-48.5 -44.9 -47.0 -45.65 L-46.7 -45.3 -49.45 -40.15 -45.85 -33.3 -42.85 -27.5 -41.5 -24.85 -40.7 -23.95 -40.45 -23.7 -40.2 -23.3 Q-37.3 -19.05 -31.2 -19.05 L-30.55 -19.05 -30.2 -18.55 Q-34.95 -9.3 -38.95 -13.05 L-43.45 -17.05 -43.7 -17.55 -46.7 -21.55 -49.7 -27.8 -51.7 -33.3 -51.95 -33.8 -52.2 -34.55 -52.45 -35.05 -53.7 -38.55 -56.95 -39.55 -59.95 -43.8 -60.2 -44.3 -62.45 -47.3 -70.45 -64.8 -75.95 -79.05 -75.95 -79.3 -76.7 -80.8 -77.2 -82.3 -77.2 -82.55 -77.45 -82.8 -77.7 -83.55 -78.2 -84.55 -84.45 -101.55 -84.2 -108.8 -84.1 -108.8 -82.6 -108.8 -83.2 -107.1 M-48.5 91.95 Q-42.85 96.05 -33.7 97.45 -14.0 101.0 -6.8 91.95 L-5.95 90.75 -6.7 93.2 Q-6.45 101.2 -29.7 100.7 -43.7 99.5 -50.5 91.95 -53.6 88.6 -55.2 83.95 -52.9 88.75 -48.5 91.95 M-4.95 85.2 L-4.7 85.7 -4.95 86.2 -4.95 85.2" fill="#000000" fill-opacity="0.49803922" fill-rule="evenodd" stroke="none"/>
  </g>
</svg>
