<?xml version="1.0" encoding="UTF-8" standalone="no"?>
<svg xmlns:ffdec="https://www.free-decompiler.com/flash" xmlns:xlink="http://www.w3.org/1999/xlink" ffdec:objectType="shape" height="267.65px" width="161.5px" xmlns="http://www.w3.org/2000/svg">
  <g transform="matrix(1.0, 0.0, 0.0, 1.0, 93.95, 166.45)">
    <path d="M-9.5 -34.75 L-12.5 -39.0 -13.5 -43.0 Q-6.25 -50.0 0.75 -49.25 L2.0 -49.0 2.5 -49.5 7.5 -51.75 Q13.25 -52.75 14.75 -50.0 15.75 -49.5 15.5 -44.5 L14.25 -41.0 Q13.5 -38.25 10.5 -37.75 L3.75 -38.0 Q-1.25 -32.75 -9.5 -34.75 M24.0 -12.5 L26.25 -9.0 30.75 1.75 36.0 10.75 Q37.25 14.5 44.25 19.75 L46.5 24.25 Q52.25 37.5 47.0 45.5 L44.0 53.25 42.0 58.0 31.25 68.25 17.0 76.5 3.75 78.75 -4.5 78.5 -13.5 77.25 -23.25 72.75 -30.75 68.75 -34.5 60.25 -33.0 57.5 -33.0 54.5 -28.75 49.5 -20.0 28.0 -17.0 17.5 -14.5 4.0 -10.0 -11.0 Q1.75 2.25 13.5 -2.75 L14.0 -3.0 14.75 -3.25 Q18.5 -4.25 21.25 -7.25 L24.0 -12.5 M10.75 -40.0 L12.25 -42.5 11.5 -44.5 10.5 -44.75 10.0 -45.0 9.5 -44.75 8.75 -44.5 8.25 -43.75 7.75 -43.75 7.5 -43.25 Q5.75 -42.75 8.0 -39.5 L10.75 -40.0 M-5.0 -39.5 L-4.75 -37.75 -2.0 -36.75 Q3.0 -39.5 -0.25 -41.5 L-2.25 -42.0 -3.75 -41.25 -4.0 -40.75 -5.0 -39.5" fill="#ffffff" fill-rule="evenodd" stroke="none"/>
    <path d="M10.75 -40.0 L8.0 -39.5 Q5.75 -42.75 7.5 -43.25 L7.75 -43.75 8.25 -43.75 8.75 -44.5 9.5 -44.75 10.0 -45.0 10.5 -44.75 11.5 -44.5 12.25 -42.5 10.75 -40.0 M-5.0 -39.5 L-4.0 -40.75 -3.75 -41.25 -2.25 -42.0 -0.25 -41.5 Q3.0 -39.5 -2.0 -36.75 L-4.75 -37.75 -5.0 -39.5" fill="#000000" fill-rule="evenodd" stroke="none"/>
    <path d="M-9.5 -34.75 Q-1.25 -32.75 3.75 -38.0 L10.5 -37.75 Q13.5 -38.25 14.25 -41.0 26.75 -33.5 24.0 -12.5 L21.25 -7.25 Q18.5 -4.25 14.75 -3.25 L14.0 -3.0 13.5 -2.75 Q1.75 2.25 -10.0 -11.0 L-12.25 -14.25 Q-20.75 -22.0 -9.5 -34.75 M44.0 53.25 Q63.25 75.75 49.6 92.0 L47.25 94.5 Q36.75 103.5 12.25 100.25 7.8 98.8 5.7 92.0 4.05 86.9 3.75 78.75 L17.0 76.5 31.25 68.25 42.0 58.0 44.0 53.25 M-4.5 78.5 L-4.5 85.75 -6.0 91.25 -6.1 92.0 Q-9.15 106.75 -45.75 96.0 -49.4 94.5 -51.7 92.0 -59.45 83.6 -51.75 63.75 L-41.0 69.25 -34.75 71.0 -23.25 72.75 -13.5 77.25 -4.5 78.5" fill="#e58508" fill-rule="evenodd" stroke="none"/>
    <path d="M7.15 -2.05 Q16.0 -2.05 21.2 -8.25 22.25 -9.5 23.1 -10.9 20.05 22.6 4.75 23.7 -14.25 25.45 -16.05 -20.9 -15.0 -17.65 -12.85 -15.1 L-11.6 -13.65 Q-10.15 -11.4 -8.25 -9.7 L-6.35 -7.65 Q-0.05 -2.05 7.15 -2.05 M47.55 -76.8 L48.3 -79.05 49.05 -79.8 48.55 -78.3 48.3 -77.8 47.55 -76.8 M66.3 -154.8 L66.05 -162.85 65.7 -166.4 65.7 -166.45 66.8 -164.3 67.55 -125.8 67.05 -112.05 65.55 -102.8 65.05 -101.05 65.05 -100.8 63.05 -98.8 61.05 -98.05 46.55 -61.55 39.05 -46.3 Q36.55 -42.3 35.3 -43.05 L33.55 -44.55 41.05 -56.3 45.85 -65.9 46.4 -67.2 51.8 -79.55 52.15 -80.35 53.45 -83.35 56.8 -91.2 58.65 -97.05 59.45 -98.95 57.55 -101.05 53.8 -103.55 48.55 -105.05 46.8 -106.8 44.55 -110.8 43.05 -117.55 Q42.15 -125.2 43.6 -133.15 L44.65 -138.0 44.9 -137.95 45.05 -137.45 44.35 -133.15 44.3 -133.05 Q43.55 -129.5 43.55 -127.55 43.55 -123.35 44.15 -118.8 44.5 -116.15 45.0 -113.8 46.3 -110.65 49.25 -107.85 51.95 -105.3 55.0 -104.35 L54.4 -104.6 57.3 -104.35 Q59.55 -104.35 61.25 -104.95 L62.4 -107.05 Q64.45 -110.8 64.45 -114.1 L64.9 -118.55 65.3 -133.15 65.3 -133.8 65.5 -134.95 65.3 -138.8 66.3 -154.8 M49.9 41.8 L47.05 45.45 42.05 57.95 31.3 68.2 17.05 76.45 3.8 78.7 -4.45 78.45 -13.45 77.2 -23.2 72.7 -34.7 70.95 -40.95 69.2 -51.7 63.7 Q-65.9 52.65 -67.2 35.8 L-65.0 40.55 Q-63.1 44.0 -59.75 47.7 L-59.7 48.45 Q-51.45 57.45 -34.45 59.95 L-33.2 58.2 Q-30.55 59.35 -27.95 60.45 L-27.95 60.55 -27.95 60.6 -19.3 63.05 Q-6.0 66.6 6.55 66.6 16.05 66.6 25.85 63.25 33.4 60.6 37.2 57.2 L44.05 47.2 49.3 35.7 48.55 29.45 Q57.8 22.95 58.8 6.2 60.8 26.5 49.9 41.8 M7.05 95.45 L5.65 90.5 6.3 91.95 Q10.75 100.85 27.55 98.7 40.0 97.35 47.4 91.95 52.35 88.35 55.05 82.95 53.95 88.15 50.25 91.95 43.7 98.65 29.05 101.2 L16.3 101.2 Q11.55 100.2 9.8 98.7 L7.05 95.45 M-91.65 -110.05 L-91.2 -110.05 -88.25 -99.95 Q-85.1 -91.75 -79.65 -80.15 -73.9 -67.85 -69.15 -58.7 -66.0 -53.9 -63.25 -52.0 L-62.75 -51.65 -62.7 -51.55 -62.65 -51.55 Q-59.8 -49.55 -56.25 -48.75 L-55.95 -48.05 -57.7 -44.3 -55.7 -40.05 -53.0 -36.9 Q-51.7 -34.35 -50.0 -31.75 L-49.45 -30.95 -48.45 -29.05 -48.35 -29.35 Q-42.75 -21.95 -37.45 -21.95 L-36.45 -21.95 -34.7 -20.3 -32.95 -23.05 Q-35.2 -11.55 -41.45 -16.05 L-44.7 -18.8 -49.45 -23.8 -53.95 -31.8 -54.45 -32.55 -54.95 -33.55 -55.45 -34.3 -56.2 -35.8 -56.45 -36.05 -56.45 -36.3 -58.45 -39.8 -58.45 -40.05 -59.2 -41.05 -60.7 -43.8 -63.45 -44.3 -64.95 -45.05 -71.95 -56.55 -72.2 -57.05 -72.2 -57.3 -76.95 -67.05 -84.7 -86.3 -84.7 -86.55 -84.95 -86.8 -85.2 -87.55 -85.7 -88.55 -86.7 -91.3 -86.7 -91.55 -86.95 -91.8 -87.2 -92.55 -87.7 -93.55 -93.95 -110.8 -93.95 -118.55 -92.0 -118.35 -92.35 -117.45 -92.7 -116.3 Q-92.7 -113.95 -91.65 -110.05 M-48.7 91.95 Q-41.8 96.0 -27.7 98.2 -10.4 98.8 -6.5 91.95 L-5.65 89.7 -5.95 91.2 -5.95 91.95 Q-6.75 101.2 -27.2 100.95 -43.25 99.75 -50.5 91.95 -52.25 90.1 -53.5 87.85 -51.85 90.1 -48.7 91.95 M-4.95 85.2 L-4.7 85.7 -4.95 86.2 -5.55 89.2 -5.45 88.45 -4.95 86.2 -4.95 85.2" fill="#000000" fill-opacity="0.49803922" fill-rule="evenodd" stroke="none"/>
  </g>
</svg>
