<?xml version="1.0" encoding="UTF-8" standalone="no"?>
<svg xmlns:ffdec="https://www.free-decompiler.com/flash" xmlns:xlink="http://www.w3.org/1999/xlink" ffdec:objectType="shape" height="237.35px" width="166.05px" xmlns="http://www.w3.org/2000/svg">
  <g transform="matrix(1.0, 0.0, 0.0, 1.0, 105.25, 135.55)">
    <path d="M6.75 -46.25 L7.5 -46.5 8.0 -46.75 8.5 -46.5 8.5 -46.25 Q11.0 -46.0 8.75 -41.75 L6.0 -41.25 Q3.75 -42.5 5.25 -45.0 L5.75 -45.75 6.75 -46.25 M-3.25 -44.0 L-2.5 -43.75 -1.5 -43.25 -1.25 -42.0 -2.75 -39.25 -6.0 -39.25 Q-8.0 -40.0 -6.25 -43.0 L-5.75 -43.5 -4.75 -44.0 -3.25 -44.0" fill="#000000" fill-rule="evenodd" stroke="none"/>
    <path d="M-11.25 -37.0 L-14.5 -41.0 -15.25 -45.75 -10.25 -49.5 Q-5.25 -52.25 -1.25 -51.25 L0.0 -51.0 0.5 -51.5 5.75 -53.5 Q12.25 -54.25 13.5 -51.5 L14.0 -47.75 Q13.75 -42.75 12.5 -42.25 11.75 -39.75 9.0 -39.5 L1.75 -39.75 -5.25 -36.5 Q-10.75 -36.0 -11.25 -37.0 M21.75 -14.5 L25.75 -7.0 28.0 -0.25 33.75 10.25 37.0 15.0 43.25 20.75 45.0 25.0 46.0 25.75 Q51.25 34.25 45.5 48.5 L43.75 52.5 Q30.5 74.25 4.0 78.0 L-1.5 78.5 -4.5 78.0 -15.0 76.5 -25.5 71.25 -33.25 66.5 -36.75 58.0 -35.5 55.5 -35.5 52.25 -32.0 48.0 -27.0 37.75 -23.25 26.25 -22.25 25.0 -19.0 13.75 -18.0 6.25 -12.5 -13.0 Q-1.5 0.0 9.5 -4.25 L12.0 -5.0 17.75 -8.0 21.75 -14.5 M6.75 -46.25 L5.75 -45.75 5.25 -45.0 Q3.75 -42.5 6.0 -41.25 L8.75 -41.75 Q11.0 -46.0 8.5 -46.25 L8.5 -46.5 8.0 -46.75 7.5 -46.5 6.75 -46.25 M-3.25 -44.0 L-4.75 -44.0 -5.75 -43.5 -6.25 -43.0 Q-8.0 -40.0 -6.0 -39.25 L-2.75 -39.25 -1.25 -42.0 -1.5 -43.25 -2.5 -43.75 -3.25 -44.0" fill="#ffffff" fill-rule="evenodd" stroke="none"/>
    <path d="M-11.25 -37.0 Q-10.75 -36.0 -5.25 -36.5 L1.75 -39.75 9.0 -39.5 Q11.75 -39.75 12.5 -42.25 14.0 -42.75 18.5 -37.5 L20.25 -33.0 22.25 -25.5 22.25 -19.75 21.75 -14.5 17.75 -8.0 12.0 -5.0 9.5 -4.25 Q-1.5 0.0 -12.5 -13.0 L-14.75 -16.5 Q-22.5 -25.25 -11.25 -37.0 M43.75 52.5 Q62.2 79.85 50.5 92.0 42.5 100.3 20.5 101.5 9.8 103.55 6.05 92.0 4.25 86.55 4.0 78.0 30.5 74.25 43.75 52.5 M-4.5 78.0 L-4.5 85.5 -6.0 91.25 -6.1 92.0 Q-9.15 106.75 -45.75 96.0 L-52.25 90.5 -55.25 84.75 Q-56.5 80.75 -55.75 75.5 L-51.0 62.25 -46.75 64.75 -34.25 69.75 -25.5 71.25 -15.0 76.5 -4.5 78.0" fill="#e58508" fill-rule="evenodd" stroke="none"/>
    <path d="M58.3 15.95 L59.3 7.2 Q63.05 29.45 45.55 48.45 L43.8 52.45 Q30.55 74.2 4.05 77.95 L-1.45 78.45 -14.95 76.45 -25.45 71.2 -34.2 69.7 -46.7 64.7 -50.95 62.2 -54.95 59.2 -61.7 51.2 -66.2 39.95 -66.4 36.85 -64.75 39.7 Q-61.95 44.25 -59.0 47.25 L-58.7 47.7 -58.1 48.1 Q-55.65 50.4 -53.1 51.65 L-51.2 52.95 -41.45 56.7 -36.7 57.7 -35.7 55.7 -31.6 57.75 -29.65 58.6 -22.4 61.95 Q-10.3 66.8 4.6 66.8 12.85 66.8 20.3 64.75 L27.55 62.2 Q30.6 61.25 32.9 59.45 34.4 58.15 35.65 57.2 L35.7 57.15 41.8 49.2 48.55 36.7 50.05 35.95 55.05 21.95 58.3 15.95 M5.55 -3.3 Q15.2 -3.3 20.5 -12.65 L22.4 -16.5 Q20.0 21.4 3.7 22.55 -15.35 24.3 -17.1 -22.35 -8.4 -3.3 5.55 -3.3 M13.15 -52.7 L13.2 -52.7 13.15 -52.6 13.15 -52.7 M37.7 -133.15 L40.2 -123.45 Q41.05 -119.3 43.3 -115.85 47.75 -109.05 56.0 -109.05 L57.4 -109.15 57.4 -109.25 57.8 -109.35 58.0 -108.85 58.05 -108.8 58.1 -108.65 58.3 -108.05 59.3 -108.3 59.55 -109.25 59.8 -110.15 59.8 -110.2 59.85 -110.5 60.05 -110.7 60.05 -110.5 60.8 -111.65 60.8 -111.55 60.3 -105.55 60.55 -105.55 60.3 -105.05 57.3 -102.3 46.05 -66.8 38.3 -47.8 36.3 -44.8 34.05 -45.05 42.05 -60.3 54.8 -97.8 54.8 -98.05 56.05 -102.05 Q52.8 -106.3 49.3 -107.8 L43.55 -109.3 41.3 -113.3 41.05 -113.55 40.55 -114.8 37.3 -126.05 37.55 -135.55 37.65 -133.25 37.7 -133.15 M5.2 88.2 Q5.55 90.25 6.4 91.95 10.8 100.5 28.55 98.7 41.15 96.25 47.95 91.95 54.35 87.9 55.55 82.2 54.7 87.9 50.6 91.95 42.3 100.1 20.55 101.45 9.15 102.7 6.0 91.95 L5.2 88.2 M-104.2 -125.8 L-102.5 -125.5 -102.6 -125.3 -103.0 -123.8 -102.6 -120.6 -101.95 -117.25 -101.7 -117.3 -99.55 -109.95 -96.75 -102.65 Q-91.3 -88.85 -89.95 -86.8 -87.7 -83.35 -85.45 -78.3 L-81.75 -69.8 -81.6 -69.5 -81.05 -69.05 -78.45 -64.25 -77.15 -62.1 Q-74.5 -58.55 -71.2 -55.55 -70.25 -55.05 -69.3 -54.95 -67.45 -53.95 -65.45 -53.45 L-64.95 -52.55 -66.4 -49.2 -61.85 -42.2 Q-60.55 -40.25 -55.7 -34.75 L-52.65 -31.2 Q-47.85 -26.6 -44.2 -25.5 L-42.95 -24.05 -39.7 -22.8 -38.2 -23.3 -36.45 -22.8 Q-41.2 -12.3 -53.2 -27.05 L-64.95 -41.8 -68.7 -48.05 -73.7 -49.55 -74.2 -49.8 -76.95 -54.55 -77.2 -54.8 -77.95 -55.8 -77.95 -56.05 -78.2 -56.3 -80.7 -60.3 -81.2 -61.3 -81.2 -61.8 -82.45 -64.05 -82.7 -64.8 -83.2 -65.8 -83.2 -66.05 -86.95 -74.6 -87.0 -74.7 -93.45 -89.8 -93.45 -90.05 -94.45 -92.05 -94.7 -92.8 -94.95 -93.3 -95.95 -96.05 -95.95 -96.3 -96.95 -98.3 -97.2 -99.05 -97.45 -99.55 -103.95 -117.8 -104.0 -119.15 Q-104.85 -119.55 -105.1 -121.05 L-105.2 -123.0 Q-105.2 -125.2 -104.2 -124.85 L-104.2 -125.8 M-54.25 86.15 Q-52.45 89.45 -48.55 91.95 -41.5 96.45 -27.45 98.2 -11.8 99.25 -7.0 91.95 -6.0 90.4 -5.45 88.45 L-5.95 91.2 -5.9 91.95 Q-5.85 101.4 -28.95 100.7 -43.3 99.85 -50.4 91.95 -52.7 89.4 -54.25 86.15" fill="#000000" fill-opacity="0.49803922" fill-rule="evenodd" stroke="none"/>
  </g>
</svg>
