<?xml version="1.0" encoding="UTF-8" standalone="no"?>
<svg xmlns:ffdec="https://www.free-decompiler.com/flash" xmlns:xlink="http://www.w3.org/1999/xlink" ffdec:objectType="shape" height="240.75px" width="176.1px" xmlns="http://www.w3.org/2000/svg">
  <g transform="matrix(1.0, 0.0, 0.0, 1.0, 115.35, 138.75)">
    <path d="M-13.0 -39.75 L-16.0 -43.5 -16.5 -48.5 -11.5 -52.25 Q-7.5 -54.5 -2.75 -53.75 L-1.5 -53.25 -1.0 -53.75 -0.25 -54.0 Q8.75 -57.75 12.5 -53.0 L12.5 -48.5 11.25 -44.0 Q10.0 -41.5 6.5 -41.25 L0.0 -42.0 Q-10.5 -36.75 -13.0 -39.75 M19.25 -17.0 L23.25 -9.5 26.25 -1.0 32.25 10.25 Q34.0 14.75 41.5 21.0 L45.25 27.75 Q50.5 42.25 43.5 51.5 L43.25 52.0 Q29.75 73.75 4.25 77.25 L-4.5 77.75 -17.75 75.0 -27.75 69.25 Q-31.35 66.9 -35.0 64.5 L-39.0 55.25 -37.75 52.75 -37.75 49.5 -33.75 44.75 -24.5 22.0 -20.75 8.75 -19.25 -0.25 -14.5 -15.0 Q-6.0 -3.0 6.25 -6.25 L8.5 -6.75 9.25 -7.0 15.25 -10.0 19.25 -17.0 M8.5 -46.0 L8.0 -48.0 6.75 -48.25 6.75 -48.5 6.25 -48.75 5.75 -48.5 5.0 -48.25 4.0 -47.75 3.75 -47.25 Q1.5 -46.75 4.0 -43.5 L7.25 -43.75 8.5 -46.0 M-6.25 -46.75 L-8.25 -45.75 Q-10.75 -41.5 -5.25 -41.5 -1.75 -44.25 -4.5 -46.25 L-6.25 -46.75" fill="#ffffff" fill-rule="evenodd" stroke="none"/>
    <path d="M8.5 -46.0 L7.25 -43.75 4.0 -43.5 Q1.5 -46.75 3.75 -47.25 L4.0 -47.75 5.0 -48.25 5.75 -48.5 6.25 -48.75 6.75 -48.5 6.75 -48.25 8.0 -48.0 8.5 -46.0 M-6.25 -46.75 L-4.5 -46.25 Q-1.75 -44.25 -5.25 -41.5 -10.75 -41.5 -8.25 -45.75 L-6.25 -46.75" fill="#000000" fill-rule="evenodd" stroke="none"/>
    <path d="M11.25 -44.0 L13.5 -42.75 Q18.5 -38.0 18.0 -36.5 21.75 -27.5 19.25 -17.0 L15.25 -10.0 9.25 -7.0 8.5 -6.75 6.25 -6.25 Q-6.0 -3.0 -14.5 -15.0 -25.25 -30.25 -13.0 -39.75 -10.5 -36.75 0.0 -42.0 L6.5 -41.25 Q10.0 -41.5 11.25 -44.0 M43.25 52.0 Q64.35 79.45 50.0 92.0 41.75 99.2 21.75 101.5 10.7 104.2 6.6 92.0 4.65 86.25 4.25 77.25 29.75 73.75 43.25 52.0 M-4.5 77.75 L-4.5 85.5 -6.75 94.5 -8.25 96.75 -11.5 98.75 -18.5 100.5 Q-33.25 102.75 -49.0 93.75 L-51.0 92.0 Q-61.5 81.65 -50.25 60.75 L-50.0 60.75 -42.0 65.25 -35.5 67.75 -27.75 69.25 -17.75 75.0 -4.5 77.75" fill="#e58508" fill-rule="evenodd" stroke="none"/>
    <path d="M35.35 -134.15 L35.6 -133.15 36.05 -131.0 Q37.75 -123.6 39.6 -119.9 L40.35 -118.25 Q41.8 -115.4 44.05 -113.8 L44.25 -113.25 44.85 -112.95 44.95 -113.2 Q46.45 -112.35 48.3 -111.95 L48.4 -111.8 49.45 -111.65 49.45 -111.8 51.3 -111.7 51.45 -111.7 51.5 -111.6 54.2 -111.85 54.65 -111.95 56.8 -112.5 57.6 -112.75 58.1 -113.0 58.3 -112.3 58.05 -107.8 55.55 -105.05 55.3 -104.55 45.05 -67.05 38.3 -48.55 36.8 -46.55 35.8 -45.55 34.3 -45.3 33.3 -46.05 40.3 -59.8 47.05 -82.55 51.3 -95.3 52.3 -96.05 51.8 -96.8 Q53.05 -97.3 54.55 -104.3 L48.05 -109.3 41.8 -110.8 39.05 -115.3 38.8 -115.55 37.3 -120.05 37.05 -120.3 34.55 -127.55 33.8 -138.55 34.45 -138.75 35.1 -135.4 35.3 -134.05 35.35 -134.15 M43.3 -85.55 L42.8 -84.3 42.8 -85.55 43.3 -85.55 M16.55 98.45 L25.05 98.95 Q39.1 98.35 47.45 91.95 53.05 87.65 56.05 80.7 L55.8 81.95 Q54.5 87.85 50.3 91.95 41.85 100.3 21.8 101.45 10.95 104.0 6.8 91.95 5.7 88.7 5.05 84.45 L7.05 90.95 10.3 95.95 16.55 98.45 M55.3 30.45 L60.05 10.2 Q64.3 31.45 43.55 51.45 L43.3 51.95 Q29.8 73.7 4.3 77.2 L-4.45 77.7 -17.7 74.95 -27.7 69.2 -35.45 67.7 -41.95 65.2 -49.95 60.7 -50.2 60.7 Q-62.3 55.95 -65.75 35.85 L-65.2 37.05 Q-63.7 40.0 -61.0 43.05 L-60.7 43.45 -60.45 43.65 -58.3 45.85 Q-53.05 50.9 -48.7 51.55 L-49.1 51.35 -43.45 53.95 -38.95 54.95 -37.95 52.95 -34.25 55.1 -28.4 57.8 -20.95 61.35 Q-15.95 63.4 -12.9 64.25 -7.75 65.75 1.3 66.45 L10.7 66.45 Q24.2 64.95 30.3 61.7 L40.3 49.45 47.3 38.45 49.05 37.45 55.3 30.45 M18.3 -15.4 Q19.7 -17.85 20.45 -20.65 L20.05 -11.8 19.8 -4.05 Q15.65 20.45 2.6 21.35 -16.3 23.1 -18.2 -22.85 L-15.7 -18.05 Q-8.65 -5.8 -0.2 -5.8 13.0 -5.8 18.3 -15.4 M-113.35 -130.1 Q-113.35 -126.95 -107.5 -110.1 -102.1 -94.75 -100.75 -92.05 -95.2 -79.5 -91.85 -73.15 -89.05 -67.8 -85.65 -63.3 L-85.1 -62.3 Q-83.85 -60.05 -81.65 -57.7 L-79.65 -55.7 Q-77.65 -53.85 -75.85 -52.75 L-70.85 -46.2 -63.15 -39.7 -59.85 -36.75 -52.45 -32.05 -47.45 -27.05 -39.2 -25.55 Q-41.7 -19.55 -45.45 -21.8 L-54.2 -27.3 -54.45 -27.3 -75.95 -48.8 -77.45 -51.8 -77.7 -52.05 -81.95 -53.05 -83.7 -54.3 -86.7 -58.8 -91.95 -68.05 -92.45 -69.55 -92.7 -69.8 -93.2 -70.8 -93.45 -71.55 -93.7 -72.05 -93.7 -72.3 -93.95 -72.55 -93.95 -72.8 -94.7 -74.3 -94.7 -74.55 -96.2 -77.3 -96.45 -78.05 -100.2 -86.55 -100.2 -86.8 -101.2 -88.8 -101.45 -89.55 -101.95 -90.55 -104.7 -97.55 -104.7 -97.8 -106.2 -101.05 -106.45 -101.8 -106.95 -102.8 -114.2 -123.3 -114.25 -123.4 -114.95 -124.55 -114.95 -126.95 -115.05 -126.95 -115.35 -129.45 -115.3 -130.1 -115.05 -130.1 -114.95 -130.1 -114.95 -132.05 -113.5 -131.5 Q-113.35 -131.05 -113.35 -130.1 M-48.35 91.95 Q-41.35 96.05 -27.2 98.2 -10.0 98.6 -6.4 91.95 L-5.85 90.65 -5.95 91.2 -5.9 91.95 Q-5.9 101.4 -30.2 100.45 -42.8 99.95 -49.95 91.95 L-52.35 88.9 Q-50.75 90.55 -48.35 91.95 M-4.95 84.95 L-4.7 84.95 -4.95 85.95 -5.45 88.7 -5.45 88.2 -5.45 87.45 -4.95 85.95 -4.95 84.95" fill="#000000" fill-opacity="0.49803922" fill-rule="evenodd" stroke="none"/>
  </g>
</svg>
