<?xml version="1.0" encoding="UTF-8" standalone="no"?>
<svg xmlns:ffdec="https://www.free-decompiler.com/flash" xmlns:xlink="http://www.w3.org/1999/xlink" ffdec:objectType="shape" height="263.5px" width="186.8px" xmlns="http://www.w3.org/2000/svg">
  <g transform="matrix(1.0, 0.0, 0.0, 1.0, 125.75, 161.75)">
    <path d="M6.0 -50.0 L5.5 -50.25 3.75 -50.5 2.5 -49.75 2.25 -49.25 Q0.0 -48.75 2.5 -45.5 L5.25 -45.5 7.0 -47.5 6.75 -49.75 6.0 -50.0 M-14.25 -42.25 L-17.0 -46.0 -17.5 -51.25 -12.5 -55.0 Q-7.5 -57.0 -3.75 -56.0 L-2.5 -55.5 -2.0 -56.0 -1.5 -56.25 Q6.0 -59.75 11.5 -54.5 L11.75 -49.0 10.0 -45.5 Q9.75 -43.75 5.5 -43.25 L-1.5 -44.25 -8.5 -41.5 Q-14.0 -41.25 -14.25 -42.25 M17.5 -19.25 L22.75 -8.5 24.75 -2.0 32.0 12.25 34.5 16.0 40.5 21.75 45.5 32.25 46.5 42.75 Q43.75 52.5 41.75 54.0 L36.5 61.5 22.25 71.0 9.25 76.25 4.5 76.5 -4.5 77.0 -19.75 73.5 -29.75 67.5 -37.5 61.5 -40.75 52.75 -39.5 49.75 -39.75 46.75 -36.25 42.5 -31.25 32.25 -26.5 19.25 -22.5 5.75 -22.0 1.25 -16.25 -17.25 Q-9.0 -6.0 3.25 -8.25 L6.75 -9.0 12.5 -11.5 Q16.0 -14.75 17.5 -19.25 M-9.25 -48.75 L-9.5 -48.5 -9.75 -48.0 Q-11.5 -45.5 -9.25 -44.25 L-5.75 -44.25 Q-4.25 -46.0 -4.75 -48.0 L-6.75 -49.0 -7.75 -49.25 -8.25 -49.0 -9.25 -48.75" fill="#ffffff" fill-rule="evenodd" stroke="none"/>
    <path d="M6.0 -50.0 L6.75 -49.75 7.0 -47.5 5.25 -45.5 2.5 -45.5 Q0.0 -48.75 2.25 -49.25 L2.5 -49.75 3.75 -50.5 5.5 -50.25 6.0 -50.0 M-9.25 -48.75 L-8.25 -49.0 -7.75 -49.25 -6.75 -49.0 -4.75 -48.0 Q-4.25 -46.0 -5.75 -44.25 L-9.25 -44.25 Q-11.5 -45.5 -9.75 -48.0 L-9.5 -48.5 -9.25 -48.75" fill="#000000" fill-rule="evenodd" stroke="none"/>
    <path d="M-14.25 -42.25 Q-14.0 -41.25 -8.5 -41.5 L-1.5 -44.25 5.5 -43.25 Q9.75 -43.75 10.0 -45.5 21.25 -41.25 17.5 -19.25 16.0 -14.75 12.5 -11.5 L6.75 -9.0 3.25 -8.25 Q-9.0 -6.0 -16.25 -17.25 -26.75 -32.75 -14.25 -42.25 M41.75 54.0 L44.0 52.5 Q66.0 75.4 49.45 92.0 L47.0 94.25 Q15.1 110.3 7.15 92.0 4.55 86.05 4.5 76.5 L9.25 76.25 22.25 71.0 36.5 61.5 41.75 54.0 M-4.5 77.0 L-4.5 85.5 -6.75 93.0 Q-6.25 98.75 -21.0 100.75 -39.0 101.25 -49.25 93.5 L-51.15 92.0 Q-61.75 82.35 -49.5 59.5 L-49.25 59.5 -44.5 62.5 -37.25 65.5 -29.75 67.5 -19.75 73.5 -4.5 77.0" fill="#e58508" fill-rule="evenodd" stroke="none"/>
    <path d="M12.05 96.2 Q14.3 97.95 19.3 98.45 L28.3 98.2 Q40.05 95.75 46.9 91.95 52.4 88.85 54.75 84.85 52.65 88.9 49.4 91.95 41.1 99.65 25.3 101.2 11.2 103.6 7.2 91.95 6.15 88.9 5.8 84.95 L9.3 93.45 12.05 96.2 M46.3 39.95 Q64.3 27.45 60.3 9.95 L60.8 9.95 60.8 12.45 61.05 13.2 Q61.55 39.45 44.05 52.45 L41.8 53.95 36.55 61.45 22.3 70.95 9.3 76.2 -4.45 76.95 -19.7 73.45 -29.7 67.45 -37.2 65.45 -44.45 62.45 -49.2 59.45 -49.45 59.45 Q-63.55 50.25 -66.35 33.0 L-64.7 35.95 -62.35 38.65 -60.7 40.95 -53.45 46.95 -45.7 50.95 -40.7 52.45 -39.7 50.45 -36.8 52.25 Q-35.45 52.75 -33.1 54.0 -26.9 57.2 -23.7 58.65 -8.4 65.45 6.75 65.45 L18.25 64.4 Q19.8 63.65 22.1 62.65 30.25 59.1 31.3 58.2 L31.75 57.8 31.85 57.7 31.9 57.65 39.05 49.45 46.3 39.95 M6.6 -9.6 Q15.6 -12.5 19.0 -23.95 L19.05 -13.0 19.05 -7.2 Q15.1 19.25 1.55 20.2 -17.35 21.95 -19.25 -23.9 -11.4 -8.3 -0.45 -8.3 3.2 -8.3 6.6 -9.6 M31.8 -158.55 L33.05 -149.55 Q34.25 -140.15 36.35 -133.15 37.55 -129.0 39.1 -125.7 44.35 -114.35 52.75 -114.35 L56.55 -114.7 57.55 -114.95 57.3 -114.7 57.55 -112.55 57.8 -112.55 57.55 -109.05 55.3 -105.8 44.55 -65.3 38.55 -49.05 Q35.05 -44.05 33.3 -46.3 L37.05 -54.05 39.3 -55.55 40.05 -59.05 Q41.05 -59.05 42.3 -63.55 44.05 -67.55 43.05 -68.05 L50.8 -93.55 51.05 -94.8 51.8 -94.55 54.8 -105.3 53.55 -104.8 Q47.55 -111.55 41.55 -111.55 L41.3 -112.05 38.8 -115.55 34.3 -127.05 32.55 -139.8 32.55 -140.8 32.3 -142.3 32.3 -143.05 31.8 -146.8 31.4 -161.75 31.45 -161.65 31.8 -158.55 M-124.7 -128.05 Q-125.6 -128.8 -125.7 -133.15 L-125.7 -136.8 -125.3 -136.65 -125.2 -133.95 -125.15 -133.15 Q-125.0 -131.3 -124.05 -128.2 L-123.7 -128.3 -120.95 -119.8 -121.1 -119.85 -118.45 -113.3 Q-113.4 -101.35 -110.2 -95.35 -104.4 -82.55 -101.15 -76.2 -97.0 -68.0 -91.2 -61.8 L-91.2 -61.85 Q-88.05 -57.75 -84.75 -56.1 L-78.7 -49.3 -71.15 -43.25 -69.9 -42.25 -60.2 -36.8 -51.95 -30.8 -47.45 -29.3 Q-44.95 -30.3 -41.45 -28.55 -42.45 -23.55 -46.7 -24.8 L-58.45 -30.8 -82.2 -50.05 Q-85.95 -53.8 -85.95 -55.8 L-90.95 -57.05 -92.2 -58.3 -92.95 -58.8 -95.45 -62.3 -95.7 -62.8 -97.95 -65.8 -110.45 -92.05 -110.7 -92.8 -111.2 -93.8 -111.45 -94.55 -111.95 -95.55 -112.2 -96.3 -121.95 -120.05 -124.7 -128.05 M-48.3 91.95 Q-41.7 96.25 -29.45 97.95 -10.5 98.55 -6.5 92.4 L-6.7 92.95 Q-6.45 100.95 -29.95 100.45 -42.9 99.9 -50.05 91.95 -52.3 89.5 -53.95 86.3 -52.0 89.55 -48.3 91.95" fill="#000000" fill-opacity="0.49803922" fill-rule="evenodd" stroke="none"/>
  </g>
</svg>
