<?xml version="1.0" encoding="UTF-8" standalone="no"?>
<svg xmlns:ffdec="https://www.free-decompiler.com/flash" xmlns:xlink="http://www.w3.org/1999/xlink" ffdec:objectType="shape" height="269.35px" width="197.6px" xmlns="http://www.w3.org/2000/svg">
  <g transform="matrix(1.0, 0.0, 0.0, 1.0, 135.1, 168.35)">
    <path d="M4.5 -52.0 L4.5 -52.25 4.0 -52.5 3.5 -52.5 2.0 -52.0 1.5 -51.5 1.5 -51.25 Q-1.0 -48.0 3.5 -47.0 7.75 -48.75 5.0 -51.75 L4.5 -52.0 M-15.0 -44.5 L-17.5 -48.25 -18.25 -53.5 Q-16.25 -58.25 -4.5 -58.0 L-3.25 -57.5 -2.75 -57.75 -2.25 -58.25 4.25 -59.25 Q8.25 -59.5 11.0 -56.0 L11.25 -51.0 9.5 -47.0 Q8.25 -45.0 6.0 -45.0 L-2.5 -46.25 -8.5 -43.75 Q-12.75 -43.0 -15.0 -44.5 M16.25 -21.25 L21.0 -10.75 23.75 -1.75 30.25 11.0 33.25 15.5 39.75 22.5 42.5 27.75 45.0 34.25 45.5 44.0 Q43.5 53.25 39.5 56.25 L35.25 62.0 20.0 71.5 7.0 76.0 4.75 76.0 -4.5 76.0 Q-6.75 77.25 -21.75 72.25 L-31.25 65.75 -38.5 60.0 -42.25 50.25 -41.0 47.75 -41.0 44.5 -37.25 40.0 -28.0 17.5 -25.0 8.0 -22.25 -5.0 -17.5 -19.0 Q-10.0 -7.5 2.25 -10.25 L4.5 -10.75 10.5 -13.0 Q16.0 -19.0 16.25 -21.25 M-10.25 -51.0 L-10.25 -50.75 -10.75 -50.0 -11.25 -49.5 Q-12.5 -47.25 -9.75 -46.25 L-6.5 -46.5 -5.75 -50.25 -6.75 -50.75 -7.5 -50.75 -9.0 -51.25 -9.75 -51.25 -10.25 -51.0" fill="#ffffff" fill-rule="evenodd" stroke="none"/>
    <path d="M4.5 -52.0 L5.0 -51.75 Q7.75 -48.75 3.5 -47.0 -1.0 -48.0 1.5 -51.25 L1.5 -51.5 2.0 -52.0 3.5 -52.5 4.0 -52.5 4.5 -52.25 4.5 -52.0 M-10.25 -51.0 L-9.75 -51.25 -9.0 -51.25 -7.5 -50.75 -6.75 -50.75 -5.75 -50.25 -6.5 -46.5 -9.75 -46.25 Q-12.5 -47.25 -11.25 -49.5 L-10.75 -50.0 -10.25 -50.75 -10.25 -51.0" fill="#000000" fill-rule="evenodd" stroke="none"/>
    <path d="M-15.0 -44.5 Q-12.75 -43.0 -8.5 -43.75 L-2.5 -46.25 6.0 -45.0 Q8.25 -45.0 9.5 -47.0 20.0 -44.0 16.25 -21.25 16.0 -19.0 10.5 -13.0 L4.5 -10.75 2.25 -10.25 Q-10.0 -7.5 -17.5 -19.0 -27.25 -36.25 -15.0 -44.5 M39.5 56.25 L45.0 52.5 Q66.75 78.9 49.1 92.0 L46.0 94.0 Q17.2 108.95 8.45 92.0 5.35 86.0 4.75 76.0 L7.0 76.0 20.0 71.5 35.25 62.0 39.5 56.25 M-4.5 76.0 L-4.5 85.5 -6.75 93.0 Q-17.0 108.5 -49.5 93.25 L-52.5 90.0 Q-56.25 83.0 -56.0 80.5 L-55.0 72.0 -52.5 65.0 -49.0 58.25 -37.5 64.0 -31.25 65.75 -21.75 72.25 Q-6.75 77.25 -4.5 76.0" fill="#e58508" fill-rule="evenodd" stroke="none"/>
    <path d="M32.0 -152.3 L33.05 -146.3 Q34.8 -138.6 36.4 -133.15 38.45 -126.15 40.2 -122.85 44.9 -114.1 53.85 -114.1 55.25 -114.1 56.55 -114.7 L57.05 -115.2 57.8 -111.3 55.8 -106.55 45.55 -67.8 39.05 -49.55 37.05 -46.55 34.55 -45.8 42.05 -62.55 48.8 -85.3 50.8 -94.3 51.05 -95.05 51.8 -94.55 54.8 -105.8 Q52.8 -104.8 46.05 -111.05 L41.8 -112.05 41.55 -112.55 Q36.05 -117.75 33.1 -133.15 31.2 -143.0 30.3 -157.05 L29.55 -166.8 29.6 -168.35 30.45 -162.35 31.7 -154.15 32.0 -152.3 M37.3 -85.05 L37.55 -85.55 36.8 -83.3 36.8 -83.8 37.05 -84.3 37.3 -85.05 M17.1 -22.8 L17.3 -17.0 Q17.3 -7.0 14.95 3.7 L14.5 5.85 Q9.7 18.35 0.45 19.0 -18.65 20.75 -20.35 -26.15 L-19.45 -23.9 Q-15.95 -15.85 -12.1 -14.05 -7.25 -10.05 0.45 -9.85 12.5 -10.65 17.1 -22.8 M61.05 7.2 Q67.55 28.95 45.05 52.45 L39.55 56.2 35.3 61.95 22.55 69.95 Q20.45 71.1 18.3 72.2 L7.55 75.95 -4.45 75.95 Q-6.7 77.2 -21.7 72.2 L-31.2 65.7 -37.45 63.95 -48.95 58.2 Q-63.7 48.6 -66.25 29.9 L-65.35 31.7 -63.05 34.95 -61.45 37.7 -55.2 43.7 -47.45 48.2 -42.2 49.95 -41.2 47.95 -38.3 50.2 Q-36.5 50.8 -33.55 52.4 L-24.0 58.1 Q-18.4 60.7 -14.7 62.1 -8.0 64.65 0.3 65.1 L8.45 65.1 Q18.6 64.15 24.05 62.15 L27.65 60.5 39.55 47.7 45.3 40.45 45.3 41.2 Q64.3 31.2 61.05 7.2 M6.05 82.45 Q7.3 82.7 8.8 89.95 L12.05 94.95 Q16.55 97.45 19.05 97.45 L27.8 97.45 Q37.85 95.1 44.5 91.95 52.8 88.0 55.65 82.85 53.45 88.15 48.75 91.95 41.15 98.0 27.05 100.2 13.0 102.95 8.25 91.95 6.55 88.05 6.05 82.45 L5.05 77.2 6.3 80.45 6.05 82.45 M-134.7 -131.3 L-135.1 -134.85 -134.4 -133.15 -133.65 -131.3 -133.45 -131.3 -132.25 -127.7 -127.95 -117.8 -123.9 -107.75 Q-121.35 -101.5 -119.45 -97.85 -113.1 -84.65 -109.4 -78.05 -105.25 -70.7 -100.1 -64.6 L-99.7 -64.55 -99.5 -65.3 Q-95.95 -60.55 -93.0 -59.15 L-89.3 -55.45 -84.1 -50.85 -77.55 -46.25 -70.5 -41.55 -62.65 -38.0 -61.9 -37.65 -61.45 -37.8 -54.7 -33.05 -43.95 -28.55 Q-44.2 -26.55 -48.45 -27.55 L-54.7 -30.3 -54.95 -30.3 -62.7 -34.55 -75.2 -42.8 -89.45 -53.3 -92.95 -58.55 -98.2 -60.05 -99.45 -61.3 -100.2 -61.8 -101.7 -63.8 -101.95 -64.05 -102.45 -64.8 -105.95 -69.05 -117.2 -91.3 -131.45 -123.05 -134.7 -131.3 M-48.05 91.95 Q-41.15 95.65 -27.7 97.95 -11.1 98.55 -6.8 91.95 L-5.85 89.95 -6.7 92.95 Q-7.7 101.95 -31.2 100.2 -43.4 99.15 -50.1 91.95 L-52.7 88.6 Q-50.95 90.4 -48.05 91.95 M-4.95 85.95 L-4.95 84.95 -4.7 85.45 -4.95 85.95" fill="#000000" fill-opacity="0.49803922" fill-rule="evenodd" stroke="none"/>
  </g>
</svg>
