<?xml version="1.0" encoding="UTF-8" standalone="no"?>
<svg xmlns:ffdec="https://www.free-decompiler.com/flash" xmlns:xlink="http://www.w3.org/1999/xlink" ffdec:objectType="shape" height="273.5px" width="204.1px" xmlns="http://www.w3.org/2000/svg">
  <g transform="matrix(1.0, 0.0, 0.0, 1.0, 142.3, 172.8)">
    <path d="M-15.25 -46.0 L-18.0 -50.25 -18.25 -55.25 -13.75 -58.75 Q-6.75 -61.0 -4.75 -59.5 L-3.5 -59.0 -3.0 -59.25 -2.25 -59.5 Q7.0 -62.5 11.0 -57.0 L11.0 -52.0 9.0 -48.0 Q7.25 -46.0 5.5 -46.25 L-3.0 -47.5 -9.5 -45.25 Q-15.0 -45.0 -15.25 -46.0 M15.5 -22.75 L21.0 -9.75 23.0 -2.25 29.75 11.5 33.25 16.75 39.25 23.0 44.25 34.25 44.75 44.75 Q43.5 52.75 38.25 57.5 38.25 61.25 20.0 71.0 L5.5 75.75 -4.5 75.5 Q-7.0 77.25 -23.0 71.25 L-32.5 64.5 -39.5 58.5 -43.0 49.0 -41.75 45.5 -42.0 42.75 -39.0 39.0 -34.25 29.75 -30.0 17.25 -28.75 15.5 -24.75 2.25 -24.25 -2.5 -18.25 -20.25 Q-12.0 -9.75 0.0 -11.5 L3.0 -12.0 9.5 -14.25 Q15.0 -20.0 15.5 -22.75 M4.0 -53.25 L3.0 -53.75 2.25 -53.5 1.25 -53.0 1.0 -52.5 Q-1.5 -52.25 1.0 -48.5 L4.5 -48.75 Q6.5 -52.25 4.0 -53.25 M-10.5 -52.5 L-11.25 -51.75 Q-12.75 -48.25 -10.75 -48.0 L-7.75 -47.75 Q-5.0 -50.5 -7.25 -52.25 L-8.0 -52.25 -9.0 -53.0 -9.5 -52.75 -10.5 -52.5" fill="#ffffff" fill-rule="evenodd" stroke="none"/>
    <path d="M4.0 -53.25 Q6.5 -52.25 4.5 -48.75 L1.0 -48.5 Q-1.5 -52.25 1.0 -52.5 L1.25 -53.0 2.25 -53.5 3.0 -53.75 4.0 -53.25 M-10.5 -52.5 L-9.5 -52.75 -9.0 -53.0 -8.0 -52.25 -7.25 -52.25 Q-5.0 -50.5 -7.75 -47.75 L-10.75 -48.0 Q-12.75 -48.25 -11.25 -51.75 L-10.5 -52.5" fill="#000000" fill-rule="evenodd" stroke="none"/>
    <path d="M-15.25 -46.0 Q-15.0 -45.0 -9.5 -45.25 L-3.0 -47.5 5.5 -46.25 Q7.25 -46.0 9.0 -48.0 21.25 -40.75 15.5 -22.75 15.0 -20.0 9.5 -14.25 L3.0 -12.0 0.0 -11.5 Q-12.0 -9.75 -18.25 -20.25 -27.25 -39.0 -15.25 -46.0 M38.25 57.5 L41.0 56.25 46.0 52.25 Q68.35 77.55 47.0 92.0 L46.25 92.5 Q31.75 101.0 16.25 98.25 12.75 98.0 10.0 92.0 7.45 86.4 5.5 75.75 L20.0 71.0 Q38.25 61.25 38.25 57.5 M-4.5 75.5 L-4.5 85.5 -6.0 91.0 -5.8 92.0 Q-5.4 97.95 -19.75 100.5 -36.25 101.75 -48.75 93.75 L-51.2 92.0 Q-62.15 82.45 -48.5 57.25 L-39.0 62.5 -32.5 64.5 -23.0 71.25 Q-7.0 77.25 -4.5 75.5" fill="#e58508" fill-rule="evenodd" stroke="none"/>
    <path d="M29.9 -163.3 L33.8 -146.55 Q35.85 -142.35 37.75 -135.65 L38.45 -133.15 40.55 -126.0 41.3 -124.3 42.15 -121.75 42.15 -121.7 Q45.6 -114.3 51.25 -114.3 53.05 -114.3 55.7 -115.3 L56.55 -115.6 57.05 -116.2 57.3 -116.5 57.8 -115.05 Q58.55 -111.3 57.3 -109.3 L56.05 -106.8 46.3 -69.05 39.3 -49.8 37.8 -47.3 34.8 -46.05 42.55 -63.8 49.05 -87.3 53.05 -98.05 53.3 -99.05 53.3 -99.55 55.05 -106.05 Q53.3 -105.3 47.55 -110.8 L42.3 -112.3 40.05 -115.55 34.3 -129.05 30.55 -148.3 28.55 -172.8 29.1 -168.45 29.35 -165.75 29.9 -163.3 M37.3 -85.05 L37.55 -85.8 37.05 -83.55 36.8 -84.05 37.3 -85.05 M61.8 21.7 Q60.55 40.95 46.05 52.2 L41.05 56.2 38.3 57.45 Q38.05 61.2 18.8 71.7 L5.55 75.7 7.8 83.45 12.05 92.7 16.55 95.45 21.55 96.45 Q33.95 96.1 42.7 91.95 51.5 87.75 56.55 79.7 53.65 87.3 46.9 91.95 37.85 98.2 21.8 99.2 14.5 101.0 10.1 91.95 7.2 86.1 5.55 75.7 L-4.45 75.45 Q-6.95 77.2 -22.95 71.2 L-32.45 64.45 -38.95 62.45 -48.45 57.2 Q-64.75 44.35 -66.65 27.15 L-63.95 32.2 -63.05 33.5 -61.7 35.95 -55.2 42.2 -48.2 46.45 -42.95 48.45 -41.95 46.2 -38.9 48.65 Q-27.9 55.15 -23.2 57.3 -16.4 60.4 -13.15 61.4 -7.1 63.3 2.8 64.35 L15.2 64.35 Q30.05 62.1 36.55 55.7 L38.3 53.7 44.55 40.95 44.8 41.7 Q53.3 39.2 61.8 21.7 M57.05 77.2 L57.55 75.45 57.3 76.7 57.05 77.2 M-142.25 -128.05 Q-130.9 -105.25 -124.25 -93.75 -116.55 -80.5 -107.7 -69.7 -104.2 -64.5 -101.2 -62.3 L-100.8 -61.85 -101.35 -62.1 -98.2 -60.55 -98.2 -59.55 -103.45 -60.8 -111.95 -70.05 -135.7 -113.8 -142.3 -128.05 -142.25 -128.05 M-94.2 -55.55 L-93.7 -54.55 -84.7 -48.8 -84.7 -48.3 -83.45 -48.05 -83.45 -47.8 -82.7 -47.55 -82.2 -47.05 -77.7 -44.3 -77.45 -44.3 -76.95 -43.8 -76.2 -43.3 -70.95 -40.55 -70.45 -40.05 -50.7 -31.3 -44.45 -30.3 -45.45 -29.05 -47.95 -29.05 -60.95 -34.05 -75.95 -42.55 -84.7 -48.3 -93.2 -53.55 -97.7 -59.05 -94.2 -55.55 M-17.25 -19.85 Q-12.0 -11.3 -0.65 -11.0 16.2 -12.15 18.45 -35.4 18.45 16.5 -0.65 17.85 -20.35 19.65 -21.55 -30.4 L-20.7 -27.55 Q-19.05 -22.3 -17.25 -19.85 M-48.25 91.95 Q-41.35 95.8 -27.7 97.95 -10.1 98.15 -6.4 91.95 L-5.95 91.0 -5.95 91.95 Q-6.6 100.45 -26.95 100.7 -42.1 100.2 -49.9 91.95 L-52.4 88.9 Q-50.8 90.55 -48.25 91.95 M-4.95 85.95 L-5.45 88.5 -5.45 88.2 -4.95 85.95 -4.95 84.95 -4.7 85.45 -4.95 85.95" fill="#000000" fill-opacity="0.49803922" fill-rule="evenodd" stroke="none"/>
  </g>
</svg>
