<?xml version="1.0" encoding="UTF-8" standalone="no"?>
<svg xmlns:ffdec="https://www.free-decompiler.com/flash" xmlns:xlink="http://www.w3.org/1999/xlink" ffdec:objectType="shape" height="275.35px" width="216.2px" xmlns="http://www.w3.org/2000/svg">
  <g transform="matrix(1.0, 0.0, 0.0, 1.0, 154.4, 174.8)">
    <path d="M2.75 -54.25 L1.0 -53.5 0.75 -53.0 -0.25 -52.5 -0.25 -51.25 0.75 -49.0 3.5 -49.0 5.5 -50.75 5.25 -53.25 2.75 -54.25 M-15.5 -46.75 L-18.0 -50.75 -18.5 -56.0 -13.75 -59.5 Q-10.25 -61.25 -4.75 -60.0 L-3.5 -59.5 -3.25 -59.75 -2.5 -60.0 Q6.75 -63.0 11.0 -57.25 11.5 -51.25 10.0 -50.5 L9.0 -48.5 6.25 -46.75 Q2.75 -46.25 -3.0 -48.0 L-9.75 -45.75 -14.25 -45.75 -15.5 -46.75 M15.0 -23.25 L20.25 -11.25 22.75 -2.5 29.5 11.25 32.25 15.5 38.75 22.75 43.75 33.75 44.5 45.0 Q43.0 54.0 37.5 58.0 20.75 73.25 5.75 75.5 L-4.5 75.25 Q-7.0 77.0 -22.25 71.25 L-32.75 64.0 -40.0 57.75 -43.5 48.0 -42.25 45.5 -42.0 41.75 -38.5 37.5 -29.5 16.0 -25.0 1.5 -23.5 -7.0 -18.5 -20.5 Q-11.25 -10.5 -1.0 -12.0 L2.5 -12.5 9.0 -14.75 Q15.0 -20.5 15.0 -23.25 M-11.75 -52.25 L-11.75 -52.0 -12.0 -49.5 -10.75 -48.5 -7.25 -48.5 -6.25 -51.25 -7.5 -53.0 -8.0 -53.0 -9.75 -53.5 -11.25 -52.75 -11.75 -52.25" fill="#ffffff" fill-rule="evenodd" stroke="none"/>
    <path d="M2.75 -54.25 L5.25 -53.25 5.5 -50.75 3.5 -49.0 0.75 -49.0 -0.25 -51.25 -0.25 -52.5 0.75 -53.0 1.0 -53.5 2.75 -54.25 M-11.75 -52.25 L-11.25 -52.75 -9.75 -53.5 -8.0 -53.0 -7.5 -53.0 -6.25 -51.25 -7.25 -48.5 -10.75 -48.5 -12.0 -49.5 -11.75 -52.0 -11.75 -52.25" fill="#000000" fill-rule="evenodd" stroke="none"/>
    <path d="M9.0 -48.5 Q20.0 -44.75 15.0 -23.25 15.0 -20.5 9.0 -14.75 L2.5 -12.5 -1.0 -12.0 Q-11.25 -10.5 -18.5 -20.5 -27.5 -39.0 -15.5 -46.75 L-14.25 -45.75 -9.75 -45.75 -3.0 -48.0 Q2.75 -46.25 6.25 -46.75 L9.0 -48.5 M37.5 58.0 L41.75 56.0 47.0 51.5 Q70.0 75.5 45.0 91.5 L43.95 92.0 Q26.2 100.4 16.75 96.5 14.9 96.5 12.0 92.0 L11.5 91.25 5.75 75.5 Q20.75 73.25 37.5 58.0 M-4.5 75.25 L-4.5 85.25 -6.0 91.0 -6.4 92.0 Q-14.05 108.05 -48.25 94.0 -49.8 93.1 -51.05 92.0 -62.2 82.15 -48.25 56.75 L-39.25 61.75 -32.75 64.0 -22.25 71.25 Q-7.0 77.0 -4.5 75.25" fill="#e58508" fill-rule="evenodd" stroke="none"/>
    <path d="M30.85 -159.5 Q32.3 -154.05 32.8 -150.55 33.9 -142.5 37.85 -133.15 L39.55 -129.3 40.15 -128.05 Q41.85 -124.65 43.45 -122.15 L43.55 -121.75 43.55 -121.7 43.65 -121.4 43.6 -121.7 Q47.75 -115.05 51.3 -115.05 54.5 -115.05 55.8 -117.2 55.55 -118.8 56.55 -118.8 L56.4 -118.8 56.45 -119.1 56.3 -119.55 56.55 -119.55 56.55 -118.8 56.8 -118.8 58.05 -113.8 57.3 -109.55 56.3 -107.05 46.8 -70.55 39.55 -49.8 37.3 -46.8 34.8 -46.3 43.05 -65.05 49.05 -85.55 49.05 -87.55 53.55 -99.3 53.8 -100.3 53.8 -100.8 55.3 -106.55 54.3 -106.05 52.55 -106.8 Q50.05 -110.05 46.3 -111.55 L42.55 -112.3 42.3 -113.05 41.8 -113.55 Q37.2 -116.0 33.35 -133.15 30.05 -147.85 27.3 -173.3 L27.25 -174.8 28.55 -168.55 30.85 -159.5 M56.25 -120.3 L56.3 -120.3 56.3 -120.05 56.25 -120.3 M37.05 -84.55 L37.55 -85.55 38.05 -85.8 37.05 -84.05 37.05 -84.55 M61.8 22.45 L61.8 24.2 Q59.55 41.95 47.05 51.45 L41.8 55.95 37.55 57.95 Q37.05 61.45 18.3 71.7 L5.8 75.45 -4.45 75.2 Q-6.95 76.95 -22.2 71.2 L-32.7 63.95 -39.2 61.7 -48.2 56.7 Q-64.95 43.6 -66.6 26.3 L-64.55 30.3 -62.45 33.8 -62.8 33.1 -61.7 35.2 -60.8 36.1 Q-58.75 38.75 -56.65 40.25 L-55.95 40.95 -47.45 46.2 -43.45 47.7 -42.45 45.7 -38.9 48.3 Q-37.3 49.1 -34.85 50.6 -30.95 53.0 -24.5 57.35 -12.8 62.55 -6.5 64.05 -1.45 65.2 6.9 65.2 26.35 65.2 36.15 56.7 L38.8 52.2 44.3 41.2 44.55 41.95 54.05 35.2 58.55 29.2 61.8 22.45 M6.55 76.95 L6.55 76.2 Q9.2 87.35 14.2 91.95 19.0 96.45 26.05 94.7 32.5 93.6 37.65 91.95 54.6 86.5 57.3 75.2 L57.05 77.45 Q52.8 86.95 44.2 91.95 35.15 97.2 21.3 97.45 15.9 98.3 12.0 91.95 8.8 86.8 6.55 76.95 M-151.2 -125.8 L-151.1 -125.6 -148.7 -121.1 -146.0 -116.45 -134.7 -98.3 Q-129.6 -89.9 -120.2 -77.0 L-113.85 -68.5 -108.55 -62.9 -108.65 -63.35 Q-106.35 -60.7 -104.35 -59.3 L-103.7 -58.55 -101.2 -57.8 -100.95 -56.8 -106.2 -57.8 -107.95 -59.05 -115.45 -66.3 -128.2 -85.05 -152.45 -125.55 -154.4 -133.65 -154.05 -133.3 -153.9 -133.15 Q-153.0 -131.85 -152.75 -130.1 -152.0 -127.4 -151.2 -125.85 L-151.2 -125.8 M-96.45 -52.55 L-84.95 -46.3 -84.2 -45.8 -83.2 -45.3 -82.95 -45.05 -80.95 -44.05 -80.7 -43.8 -67.7 -37.55 -66.45 -37.3 -51.7 -32.05 -44.2 -31.05 -45.45 -29.55 -50.2 -30.3 -54.45 -31.55 -54.7 -31.55 -60.7 -33.55 -79.45 -42.55 -95.95 -51.55 -100.45 -56.55 -96.45 -52.55 M-22.75 -36.4 Q-20.75 -12.65 -1.75 -12.15 15.1 -13.3 17.35 -36.55 17.35 15.35 -1.75 16.7 -22.4 18.6 -22.75 -36.4 M-47.85 91.95 Q-40.75 96.5 -27.7 97.95 -10.1 98.15 -6.45 91.95 L-5.95 90.95 -5.9 91.95 Q-6.2 101.4 -30.45 100.2 -43.65 99.05 -50.25 91.95 -53.55 88.45 -55.2 83.45 -53.2 88.55 -47.85 91.95" fill="#000000" fill-opacity="0.49803922" fill-rule="evenodd" stroke="none"/>
  </g>
</svg>
