<?xml version="1.0" encoding="UTF-8" standalone="no"?>
<svg xmlns:ffdec="https://www.free-decompiler.com/flash" xmlns:xlink="http://www.w3.org/1999/xlink" ffdec:objectType="shape" height="282.45px" width="226.5px" xmlns="http://www.w3.org/2000/svg">
  <g transform="matrix(1.0, 0.0, 0.0, 1.0, 164.45, 181.85)">
    <path d="M2.5 -53.25 L1.75 -52.75 1.25 -52.75 1.0 -52.25 Q-1.25 -51.0 1.5 -48.25 L4.5 -48.5 5.75 -51.0 5.5 -52.5 4.75 -52.75 4.0 -53.25 3.25 -53.5 2.5 -53.25 M-15.25 -46.0 L-17.75 -50.0 -18.25 -55.25 -13.5 -58.75 Q-10.5 -60.5 -4.5 -59.25 L-3.5 -58.75 -3.0 -59.0 -2.5 -59.5 4.75 -60.25 Q11.0 -58.75 11.0 -56.75 L11.25 -52.0 9.0 -47.75 Q7.75 -44.5 -2.75 -47.5 L-9.0 -45.25 Q-13.0 -44.5 -15.25 -46.0 M15.25 -22.75 L20.5 -10.75 23.0 -2.0 29.75 11.75 32.75 16.5 38.5 22.5 41.5 27.75 44.25 34.75 44.75 45.0 Q43.5 52.5 38.0 57.75 L33.5 62.75 20.75 70.5 17.25 72.25 7.0 75.25 -4.5 75.5 Q-7.0 77.25 -22.5 71.25 L-33.0 64.25 -39.5 58.25 -40.5 56.5 -43.25 49.5 Q-41.5 45.5 -42.0 42.5 L-38.25 37.75 -29.25 16.5 -24.75 2.0 -23.0 -6.75 -18.25 -20.25 Q-9.75 -8.25 1.5 -11.5 L2.5 -11.75 9.25 -14.0 Q14.25 -18.25 15.25 -22.75 M-10.25 -52.5 L-11.0 -52.0 -11.5 -51.5 -11.5 -51.25 -11.75 -48.75 Q-11.0 -47.5 -7.25 -47.75 L-6.0 -50.5 -7.25 -52.25 -8.0 -52.5 -9.5 -52.75 -10.25 -52.5" fill="#ffffff" fill-rule="evenodd" stroke="none"/>
    <path d="M2.5 -53.25 L3.25 -53.5 4.0 -53.25 4.75 -52.75 5.5 -52.5 5.75 -51.0 4.5 -48.5 1.5 -48.25 Q-1.25 -51.0 1.0 -52.25 L1.25 -52.75 1.75 -52.75 2.5 -53.25 M-10.25 -52.5 L-9.5 -52.75 -8.0 -52.5 -7.25 -52.25 -6.0 -50.5 -7.25 -47.75 Q-11.0 -47.5 -11.75 -48.75 L-11.5 -51.25 -11.5 -51.5 -11.0 -52.0 -10.25 -52.5" fill="#000000" fill-rule="evenodd" stroke="none"/>
    <path d="M-15.25 -46.0 Q-13.0 -44.5 -9.0 -45.25 L-2.75 -47.5 Q7.75 -44.5 9.0 -47.75 20.25 -44.0 15.25 -22.75 14.25 -18.25 9.25 -14.0 L2.5 -11.75 1.5 -11.5 Q-9.75 -8.25 -18.25 -20.25 -27.75 -37.5 -15.25 -46.0 M38.0 57.75 L41.75 56.0 Q41.5 54.5 48.0 50.75 69.75 70.75 45.5 89.5 L40.5 92.0 Q27.7 97.75 18.25 95.0 16.2 95.0 14.05 92.0 10.65 87.3 7.0 75.25 L17.25 72.25 20.75 70.5 33.5 62.75 38.0 57.75 M-4.5 75.5 L-4.5 85.25 -6.25 91.25 -6.55 92.0 Q-14.3 108.4 -49.0 93.5 L-52.25 90.25 Q-55.5 85.0 -56.0 80.25 L-55.0 72.0 -52.25 64.25 -48.5 57.0 -48.25 57.0 -39.5 62.0 -33.0 64.25 -22.5 71.25 Q-7.0 77.25 -4.5 75.5" fill="#e58508" fill-rule="evenodd" stroke="none"/>
    <path d="M30.55 -178.1 Q30.55 -172.05 32.1 -162.1 33.9 -150.95 36.75 -141.2 38.05 -136.8 39.4 -133.15 42.3 -125.35 45.55 -120.9 L45.75 -120.75 45.75 -120.65 Q47.35 -118.55 49.05 -117.3 50.15 -117.2 50.65 -116.25 52.5 -115.3 54.5 -115.3 56.7 -115.3 58.15 -116.75 L58.55 -117.8 60.05 -112.55 Q59.55 -108.05 57.8 -106.55 L46.8 -67.8 39.8 -49.3 37.8 -46.3 34.8 -45.55 36.55 -47.3 43.8 -63.8 53.05 -94.8 53.3 -96.05 53.55 -94.55 54.05 -95.55 56.8 -105.8 Q55.05 -104.8 49.3 -110.3 L44.05 -112.05 41.55 -115.3 35.8 -128.55 32.05 -147.3 30.05 -171.8 29.8 -180.3 30.55 -181.85 30.55 -181.8 30.55 -178.1 M38.55 -83.55 L38.55 -84.05 39.3 -85.55 38.55 -83.55 M57.8 38.2 L52.3 45.95 48.05 50.7 Q41.55 54.45 41.8 55.95 L38.05 57.7 33.55 62.7 22.55 69.45 16.3 72.45 7.55 74.95 Q10.15 88.55 18.3 91.95 21.95 93.5 26.8 92.95 L32.7 91.95 Q50.45 88.0 57.8 74.2 53.95 86.25 40.25 91.95 34.3 94.4 26.55 95.7 19.05 97.25 14.2 91.95 9.7 87.05 7.55 76.2 L7.3 75.7 7.3 75.45 -4.45 75.45 Q-6.95 77.2 -22.45 71.2 L-32.95 64.2 -39.45 61.95 -48.2 56.95 -48.45 56.95 Q-64.6 44.6 -66.45 26.95 L-63.85 31.7 -63.2 32.7 -61.7 35.45 -55.45 41.7 -47.7 46.45 -43.2 48.2 -42.2 45.95 -39.75 47.8 Q-38.0 48.4 -34.55 50.65 -30.85 53.05 -25.05 56.9 L-25.0 56.95 -15.75 61.6 Q-9.4 64.0 2.3 65.3 L14.2 65.2 Q25.5 63.25 29.75 61.6 L31.95 60.45 35.05 58.55 39.3 51.95 44.55 41.2 44.55 41.95 Q57.8 35.2 62.05 21.45 L62.05 23.45 61.8 24.45 60.8 30.45 57.8 38.2 M-163.8 -119.7 L-161.95 -115.05 Q-161.2 -113.2 -159.3 -110.45 L-155.95 -105.7 -148.85 -96.4 -141.5 -87.1 -134.4 -77.85 Q-129.9 -72.1 -125.95 -68.35 L-121.65 -63.95 -116.6 -59.05 -110.65 -54.45 -110.45 -54.3 -110.15 -54.45 Q-108.15 -53.05 -105.95 -52.3 L-105.7 -52.05 -102.2 -51.05 -101.95 -49.8 -97.7 -46.55 -83.7 -40.55 -83.45 -40.55 -82.45 -40.05 -82.2 -40.05 -81.7 -39.8 -81.45 -39.8 -79.95 -39.05 -66.95 -34.55 -65.95 -34.3 -65.45 -34.05 -50.45 -30.55 -43.45 -30.3 -44.2 -28.8 -45.7 -28.3 -55.2 -30.05 -62.2 -31.8 -97.45 -45.8 -101.95 -49.8 -107.45 -50.3 -108.95 -51.3 -109.45 -51.3 -112.2 -53.55 -112.95 -54.3 -117.45 -57.55 -137.2 -80.3 -161.7 -112.05 -164.45 -119.8 -163.8 -119.7 M-5.45 87.9 L-5.45 87.2 -4.95 85.7 -5.45 87.9 M-4.95 84.7 L-4.7 84.7 -4.95 85.7 -4.95 84.7 M-55.2 83.45 Q-52.15 88.6 -47.3 91.95 -39.55 97.35 -27.2 97.95 -11.3 98.75 -6.9 91.95 -6.2 90.85 -5.8 89.6 L-6.2 91.2 -6.1 91.95 Q-5.65 100.7 -28.45 100.45 -42.65 99.6 -49.95 91.95 -53.3 88.4 -55.2 83.45 M-22.1 -34.65 Q-20.1 -10.9 -1.1 -10.4 15.75 -11.55 18.0 -34.8 18.0 17.1 -1.1 18.45 -21.75 20.35 -22.1 -34.65" fill="#000000" fill-opacity="0.49803922" fill-rule="evenodd" stroke="none"/>
  </g>
</svg>
