<?xml version="1.0" encoding="UTF-8" standalone="no"?>
<svg xmlns:ffdec="https://www.free-decompiler.com/flash" xmlns:xlink="http://www.w3.org/1999/xlink" ffdec:objectType="shape" height="334.8px" width="358.15px" xmlns="http://www.w3.org/2000/svg">
  <g transform="matrix(1.0, 0.0, 0.0, 1.0, 185.25, 159.8)">
    <path d="M17.95 -158.9 Q29.9 -156.35 37.65 -147.2 77.9 -99.3 125.55 -59.15 174.2 -18.15 172.85 43.5 L172.75 47.4 Q158.05 45.9 150.5 23.5 L134.75 -9.75 120.25 -18.75 Q130.8 13.35 129.4 47.05 128.25 74.1 114.6 96.95 65.2 179.65 -31.5 174.75 L-47.4 172.65 -59.0 170.0 Q-80.0 160.3 -99.0 146.75 L-103.25 143.75 Q-124.15 110.95 -121.15 72.3 L-120.75 66.75 -128.0 72.75 -127.5 74.5 Q-130.9 83.85 -135.45 92.65 L-137.5 96.75 -151.5 115.0 Q-169.25 130.0 -179.0 132.0 -186.5 136.0 -185.0 125.5 L-181.25 109.0 -166.5 60.25 -163.75 52.25 Q-155.75 38.5 -150.75 33.75 L-135.25 10.75 -134.75 10.25 -134.25 9.5 -134.0 9.0 -132.5 6.75 -111.5 -20.25 -90.25 -41.5 -87.25 -43.5 -79.25 -59.25 -64.25 -84.5 -51.0 -105.0 -36.0 -126.0 Q-36.3 -128.05 -36.0 -130.0 -32.85 -150.75 -11.5 -150.75 L-7.5 -153.75 Q4.0 -162.1 17.95 -158.9" fill="#2e47aa" fill-rule="evenodd" stroke="none"/>
  </g>
</svg>
