<?xml version="1.0" encoding="UTF-8" standalone="no"?>
<svg xmlns:ffdec="https://www.free-decompiler.com/flash" xmlns:xlink="http://www.w3.org/1999/xlink" ffdec:objectType="shape" height="268.05px" width="239.25px" xmlns="http://www.w3.org/2000/svg">
  <g transform="matrix(1.0, 0.0, 0.0, 1.0, 174.45, 167.45)">
    <path d="M6.0 -50.75 L5.25 -51.0 4.75 -51.25 4.0 -51.5 3.25 -51.25 2.5 -50.75 2.0 -50.75 1.75 -50.25 Q-0.5 -49.75 2.25 -46.25 L5.25 -46.5 6.5 -49.0 6.0 -50.75 M-14.5 -44.0 L-17.25 -48.0 -17.5 -53.25 Q-11.25 -59.25 -4.0 -57.25 L-2.75 -56.75 -2.25 -57.0 -1.75 -57.5 5.25 -58.25 Q11.75 -56.75 11.75 -55.0 L11.75 -49.5 9.75 -46.0 7.5 -44.25 Q5.75 -43.25 -2.0 -45.5 L-9.75 -43.0 -14.5 -44.0 M16.25 -20.5 Q32.25 22.75 40.0 24.5 L44.75 35.25 45.25 45.0 Q42.75 54.25 39.0 57.25 L34.5 63.0 Q16.25 75.0 8.0 75.75 L-4.5 76.0 Q-24.0 74.0 -32.5 64.75 L-36.75 61.5 -40.0 57.5 -42.75 50.5 Q-41.0 46.75 -41.5 43.75 -37.5 40.25 -34.5 32.5 L-28.5 17.75 -24.25 4.25 -22.75 -3.5 -17.5 -18.5 -16.5 -16.75 Q-9.5 -9.25 -7.0 -9.5 L1.0 -9.25 2.75 -9.5 3.75 -9.75 10.25 -12.0 Q14.75 -16.25 16.25 -20.5 M-8.75 -50.75 L-9.75 -50.25 -10.75 -49.0 -11.25 -47.0 -9.75 -45.75 -6.25 -45.75 -5.25 -48.5 -6.5 -50.0 -7.25 -50.0 -8.75 -50.75" fill="#ffffff" fill-rule="evenodd" stroke="none"/>
    <path d="M6.0 -50.75 L6.5 -49.0 5.25 -46.5 2.25 -46.25 Q-0.5 -49.75 1.75 -50.25 L2.0 -50.75 2.5 -50.75 3.25 -51.25 4.0 -51.5 4.75 -51.25 5.25 -51.0 6.0 -50.75 M-8.75 -50.75 L-7.25 -50.0 -6.5 -50.0 -5.25 -48.5 -6.25 -45.75 -9.75 -45.75 -11.25 -47.0 -10.75 -49.0 -9.75 -50.25 -8.75 -50.75" fill="#000000" fill-rule="evenodd" stroke="none"/>
    <path d="M9.75 -46.0 Q17.75 -41.0 17.5 -34.25 L17.75 -25.75 16.25 -20.5 Q14.75 -16.25 10.25 -12.0 L3.75 -9.75 2.75 -9.5 1.0 -9.25 -7.0 -9.5 Q-9.5 -9.25 -16.5 -16.75 L-17.5 -18.5 Q-27.0 -35.75 -14.5 -44.0 L-9.75 -43.0 -2.0 -45.5 Q5.75 -43.25 7.5 -44.25 L9.75 -46.0 M39.0 57.25 L42.25 55.5 49.25 49.5 Q69.75 69.5 46.0 87.5 41.1 90.4 36.55 92.0 26.5 95.6 18.25 93.0 L13.5 87.75 8.0 75.75 Q16.25 75.0 34.5 63.0 L39.0 57.25 M-4.5 76.0 L-4.5 85.25 -6.75 92.75 Q-7.0 99.0 -20.75 100.5 -36.5 101.5 -49.25 93.25 L-54.0 87.0 -56.0 80.25 -55.0 72.0 -52.75 65.5 -48.75 57.5 -48.5 57.5 -40.75 62.0 -32.5 64.75 Q-24.0 74.0 -4.5 76.0" fill="#e58508" fill-rule="evenodd" stroke="none"/>
    <path d="M45.05 42.2 Q63.55 33.7 61.8 9.2 66.55 29.45 49.3 49.45 L42.3 55.45 Q40.7 56.35 39.05 57.2 L34.55 62.95 Q15.55 75.2 9.3 75.2 13.05 91.95 27.55 91.2 51.05 87.45 58.3 71.7 53.55 86.3 35.8 91.95 31.95 93.15 27.55 93.95 21.6 95.8 16.95 91.95 11.65 87.55 8.05 75.7 L-4.45 75.95 Q-23.95 73.95 -32.45 64.7 L-40.7 61.95 -48.45 57.45 -48.7 57.45 Q-64.0 46.05 -66.25 29.2 L-63.85 32.75 -63.0 33.95 Q-62.6 35.55 -61.95 35.95 L-55.45 42.7 -47.2 47.7 -42.7 49.2 -41.7 47.2 -38.55 49.6 Q-36.65 50.4 -33.6 52.3 -29.55 54.85 -24.95 58.2 L-20.55 60.95 Q-18.9 61.45 -17.05 62.25 L-14.15 63.65 Q-5.1 66.45 8.3 66.45 L15.05 66.05 15.15 66.0 Q25.0 62.05 27.15 60.7 L30.2 58.3 45.05 42.2 M38.8 -149.55 L39.05 -161.05 39.7 -167.45 Q39.8 -150.55 42.7 -137.2 L43.7 -133.15 45.0 -128.75 45.8 -127.55 Q47.0 -124.05 48.35 -121.0 52.1 -114.2 57.45 -111.85 L61.2 -111.85 Q61.75 -112.45 63.55 -113.65 L63.9 -113.85 64.2 -114.3 64.8 -111.05 64.3 -107.3 61.55 -104.3 47.8 -64.05 40.55 -47.8 39.3 -46.3 38.8 -45.55 37.55 -44.05 35.05 -44.3 40.05 -52.05 44.55 -61.05 50.8 -77.05 52.05 -82.3 60.8 -103.8 54.8 -108.55 47.8 -110.8 45.3 -114.8 45.05 -115.8 44.8 -116.05 44.55 -116.8 44.3 -117.3 44.05 -118.05 43.8 -118.55 43.55 -119.3 43.3 -119.8 40.55 -126.8 38.8 -149.55 M-174.45 -97.3 L-173.95 -97.3 -171.35 -94.0 Q-167.2 -88.4 -164.5 -85.7 L-155.15 -77.9 Q-149.45 -73.2 -146.2 -69.95 -140.85 -64.5 -127.3 -54.3 -117.75 -47.15 -112.4 -42.8 L-106.45 -39.8 -102.2 -39.8 -97.7 -37.3 -82.2 -33.05 -81.95 -33.05 -81.45 -32.8 -79.7 -32.3 -79.2 -32.3 -78.45 -32.05 -57.95 -27.3 -49.45 -27.05 Q-48.95 -28.3 -42.2 -28.05 -41.95 -26.3 -44.95 -25.55 L-56.2 -26.8 -72.2 -29.8 -94.7 -35.8 -100.2 -38.05 -102.2 -39.8 -107.45 -39.3 -108.95 -39.8 -109.7 -39.8 -112.7 -41.8 -113.2 -42.05 -113.95 -42.55 -118.45 -44.8 -136.45 -59.3 -169.95 -89.8 -174.45 -97.3 M-55.2 83.45 Q-53.4 88.55 -47.85 91.95 -41.25 96.05 -29.2 97.7 -10.35 98.3 -6.4 91.95 L-6.7 92.7 Q-11.2 103.2 -33.2 99.7 -44.45 97.85 -50.2 91.95 -53.7 88.4 -55.2 83.45 M-21.4 -32.9 Q-19.4 -9.15 -0.4 -8.65 16.45 -9.8 18.7 -33.05 18.7 18.85 -0.4 20.2 -21.05 22.1 -21.4 -32.9" fill="#000000" fill-opacity="0.49803922" fill-rule="evenodd" stroke="none"/>
  </g>
</svg>
