<?xml version="1.0" encoding="UTF-8" standalone="no"?>
<svg xmlns:ffdec="https://www.free-decompiler.com/flash" xmlns:xlink="http://www.w3.org/1999/xlink" ffdec:objectType="shape" height="259.35px" width="252.5px" xmlns="http://www.w3.org/2000/svg">
  <g transform="matrix(1.0, 0.0, 0.0, 1.0, 180.95, 158.9)">
    <path d="M-13.5 -41.0 L-16.0 -44.5 -16.5 -50.0 Q-16.75 -51.75 -10.0 -54.0 L-2.75 -54.25 -1.5 -53.75 -1.0 -54.0 -0.25 -54.25 Q6.75 -57.5 12.75 -52.25 L13.0 -47.25 11.25 -43.5 Q9.75 -41.25 8.0 -41.25 L-0.75 -42.25 -7.0 -40.0 Q-13.25 -39.5 -13.5 -41.0 M17.75 -17.5 L22.75 -6.25 24.75 1.0 31.25 14.0 Q34.75 20.0 40.25 24.5 L42.75 29.25 45.25 35.5 45.75 45.5 Q43.45 54.3 41.15 56.05 L40.75 56.25 Q35.25 61.75 35.75 63.25 L20.25 72.5 9.75 76.25 7.75 77.0 -4.5 77.0 -9.25 76.75 -21.5 73.0 -32.5 65.75 -38.0 61.0 -39.25 59.0 -42.0 50.75 -41.0 49.5 -40.5 45.75 -37.0 41.5 -27.5 20.25 -23.0 6.25 -22.5 2.0 -16.25 -15.75 Q-7.5 -2.75 4.0 -6.25 L5.0 -6.5 12.0 -9.25 Q17.0 -14.25 17.75 -17.5 M5.75 -48.5 L5.25 -48.5 4.5 -48.25 3.5 -47.5 3.0 -47.25 Q0.75 -46.75 3.25 -43.25 L5.75 -43.25 7.75 -45.5 7.5 -47.5 6.75 -47.75 6.25 -48.0 6.25 -48.25 5.75 -48.5 M-5.25 -47.0 L-5.75 -47.0 -7.5 -47.5 -8.5 -47.0 -9.5 -45.75 -10.0 -43.75 -8.5 -42.5 -5.25 -42.5 -4.0 -45.0 -5.25 -47.0" fill="#ffffff" fill-rule="evenodd" stroke="none"/>
    <path d="M5.75 -48.5 L6.25 -48.25 6.25 -48.0 6.75 -47.75 7.5 -47.5 7.75 -45.5 5.75 -43.25 3.25 -43.25 Q0.75 -46.75 3.0 -47.25 L3.5 -47.5 4.5 -48.25 5.25 -48.5 5.75 -48.5 M-5.25 -47.0 L-4.0 -45.0 -5.25 -42.5 -8.5 -42.5 -10.0 -43.75 -9.5 -45.75 -8.5 -47.0 -7.5 -47.5 -5.75 -47.0 -5.25 -47.0" fill="#000000" fill-rule="evenodd" stroke="none"/>
    <path d="M-13.5 -41.0 Q-13.25 -39.5 -7.0 -40.0 L-0.75 -42.25 8.0 -41.25 Q9.75 -41.25 11.25 -43.5 23.0 -36.25 17.75 -17.5 17.0 -14.25 12.0 -9.25 L5.0 -6.5 4.0 -6.25 Q-7.5 -2.75 -16.25 -15.75 -26.25 -32.75 -13.5 -41.0 M41.15 56.05 L44.75 53.75 50.25 48.75 Q69.5 71.25 46.5 85.5 39.0 90.3 32.95 92.0 26.4 93.8 21.55 92.0 13.45 89.05 9.75 76.25 L20.25 72.5 35.75 63.25 Q35.25 61.75 40.75 56.25 L41.15 56.05 M-4.5 77.0 L-4.5 85.25 -6.0 90.75 -5.8 92.0 Q-5.7 97.75 -19.5 100.25 -36.5 101.75 -49.5 93.0 L-52.5 89.75 Q-56.25 82.75 -56.0 80.25 L-55.0 71.75 -52.5 64.75 -49.0 58.0 -38.0 64.0 -32.5 65.75 -21.5 73.0 -9.25 76.75 -4.5 77.0" fill="#e58508" fill-rule="evenodd" stroke="none"/>
    <path d="M70.8 -136.55 L70.8 -134.8 70.55 -136.55 70.8 -136.55 M68.05 -158.9 L68.8 -153.3 69.05 -152.8 69.8 -143.65 68.05 -158.9 M53.9 -113.6 L54.9 -112.85 54.95 -112.95 Q56.0 -112.25 57.2 -111.75 L57.5 -111.05 57.4 -111.35 Q60.05 -109.95 62.55 -109.95 64.4 -109.95 66.25 -111.0 L66.25 -111.25 Q67.3 -111.75 68.25 -112.6 L68.25 -112.55 69.6 -113.95 69.6 -114.1 Q70.7 -115.55 71.55 -117.6 L71.55 -105.55 71.3 -104.8 71.3 -104.55 66.8 -101.3 62.3 -105.8 Q59.8 -105.8 53.3 -109.3 L51.05 -113.3 50.05 -116.55 50.05 -117.1 49.95 -118.35 50.3 -117.8 50.5 -117.55 50.8 -116.3 50.8 -116.4 51.4 -115.85 51.65 -116.0 Q52.7 -114.7 53.9 -113.7 L53.9 -113.6 M70.05 -123.55 L70.25 -123.65 70.2 -123.4 70.05 -123.55 M61.8 -90.8 L61.55 -89.55 62.05 -90.05 62.55 -91.05 62.8 -91.8 65.25 -97.45 52.55 -66.05 41.8 -45.05 39.3 -41.8 37.05 -41.55 40.3 -45.8 47.55 -59.55 57.05 -79.55 61.3 -90.3 61.8 -90.8 M-178.2 -64.55 L-169.95 -58.3 Q-162.35 -53.0 -148.95 -46.05 L-137.45 -39.7 Q-130.9 -36.15 -125.85 -34.45 -121.35 -32.95 -113.1 -29.2 L-108.25 -26.95 -103.35 -26.3 -106.2 -25.55 -107.45 -25.55 -110.95 -26.8 -111.45 -27.05 -112.2 -27.3 -115.7 -28.05 -154.45 -47.8 -176.2 -61.05 -176.7 -61.8 -180.95 -66.55 -180.25 -66.75 -178.2 -64.55 M53.3 36.7 Q57.05 33.45 61.55 11.95 L61.8 8.95 Q66.05 29.45 50.3 48.7 L44.8 53.7 40.8 56.2 Q40.8 62.95 10.3 75.95 19.55 93.95 28.55 89.7 53.25 84.15 58.25 70.15 52.95 86.75 31.1 91.95 L28.8 92.45 Q24.75 93.25 21.4 91.95 13.95 89.1 9.8 76.2 L7.8 76.95 -9.2 76.7 -21.45 72.95 -32.45 65.7 -37.95 63.95 -48.95 57.95 Q-64.4 46.8 -66.35 29.85 L-64.5 33.2 -62.95 35.45 -61.7 37.45 -60.5 38.55 -58.75 40.55 Q-56.6 42.85 -54.7 44.05 L-53.2 45.45 Q-44.45 50.95 -41.95 50.95 L-40.7 48.95 -36.7 52.2 -36.7 52.25 -26.7 57.65 Q-11.8 65.1 1.85 65.1 L2.8 64.95 8.95 64.85 Q16.9 63.85 23.55 61.85 28.45 60.4 31.35 58.8 L38.3 51.45 45.8 41.95 45.8 42.7 53.3 36.7 M17.05 -16.8 Q18.45 -19.85 19.25 -23.1 17.8 20.7 0.25 21.95 -20.4 23.85 -20.75 -31.15 -19.3 -14.15 -9.15 -9.05 -4.9 -5.55 -0.8 -5.55 11.8 -5.55 17.05 -16.8 M-95.95 -25.55 L-80.7 -23.8 -80.45 -23.8 -78.95 -23.55 -78.45 -23.55 -54.2 -21.8 -47.45 -22.8 -43.65 -24.0 -42.0 -24.05 -40.95 -23.95 Q-42.0 -22.05 -43.2 -22.05 L-57.45 -21.3 -92.95 -24.55 Q-99.2 -25.55 -100.7 -27.05 L-100.7 -27.55 -95.95 -25.55 M-47.35 91.95 Q-41.45 95.05 -31.2 97.45 -11.8 99.25 -6.95 91.95 -5.8 90.2 -5.45 87.95 L-4.95 85.7 -4.95 84.7 -4.7 85.2 -4.95 85.7 -5.95 90.7 -5.9 91.95 Q-6.55 101.35 -31.45 99.95 -43.25 98.95 -49.9 91.95 -51.75 90.0 -53.2 87.55 -51.2 89.9 -47.35 91.95" fill="#000000" fill-opacity="0.49803922" fill-rule="evenodd" stroke="none"/>
  </g>
</svg>
