<?xml version="1.0" encoding="UTF-8" standalone="no"?>
<svg xmlns:ffdec="https://www.free-decompiler.com/flash" xmlns:xlink="http://www.w3.org/1999/xlink" ffdec:objectType="shape" height="247.5px" width="270.1px" xmlns="http://www.w3.org/2000/svg">
  <g transform="matrix(1.0, 0.0, 0.0, 1.0, 181.2, 147.05)">
    <path d="M12.75 -39.75 Q24.25 -34.5 19.75 -13.75 19.75 -11.25 13.75 -5.0 L7.0 -2.5 6.0 -2.25 Q-7.25 0.5 -14.75 -12.25 -24.25 -28.75 -12.0 -37.25 -11.75 -35.5 -5.25 -36.0 L1.0 -38.5 8.0 -37.25 Q12.0 -37.5 12.75 -39.75 M43.0 54.85 L51.0 48.0 Q69.0 66.75 49.0 82.5 20.25 102.5 11.5 77.0 23.75 73.75 35.75 64.5 L42.5 55.25 43.0 54.85 M-4.5 78.25 L-4.5 85.25 -6.0 90.75 -5.8 92.0 Q-5.75 97.75 -19.75 100.25 -36.0 101.75 -49.5 93.0 L-50.75 92.0 Q-61.85 82.45 -49.5 59.0 L-49.25 59.0 -37.0 65.5 -32.0 66.75 Q-22.25 76.25 -4.5 78.25" fill="#e58508" fill-rule="evenodd" stroke="none"/>
    <path d="M-12.0 -37.25 L-14.5 -40.75 -15.0 -46.0 -10.25 -49.25 Q-5.0 -51.25 -1.0 -50.25 L0.25 -49.75 1.25 -50.25 Q7.5 -53.75 14.5 -48.75 L14.75 -44.5 12.75 -39.75 Q12.0 -37.5 8.0 -37.25 L1.0 -38.5 -5.25 -36.0 Q-11.75 -35.5 -12.0 -37.25 M19.75 -13.75 L24.5 -3.0 26.25 3.75 32.75 16.25 35.25 20.0 41.5 26.0 46.25 36.25 46.75 46.0 Q44.25 53.3 43.0 54.85 L42.5 55.25 35.75 64.5 Q23.75 73.75 11.5 77.0 L8.75 78.0 -4.5 78.25 Q-22.25 76.25 -32.0 66.75 L-37.75 62.0 -41.0 53.5 -40.0 52.0 -39.5 48.25 -35.75 44.0 -26.25 23.75 -21.5 9.5 -19.75 1.25 -14.75 -12.25 Q-7.25 0.5 6.0 -2.25 L7.0 -2.5 13.75 -5.0 Q19.75 -11.25 19.75 -13.75 M7.0 -44.5 L5.25 -43.75 5.0 -43.25 Q2.5 -43.0 5.0 -39.5 L7.25 -39.25 9.75 -41.5 8.75 -43.75 8.25 -44.25 8.0 -44.25 7.0 -44.5 M-6.75 -42.75 L-7.0 -42.25 Q-9.25 -39.75 -6.75 -38.5 L-3.25 -38.5 Q-1.75 -40.25 -2.25 -42.25 L-3.25 -42.75 -4.0 -42.5 -5.5 -43.25 -6.75 -42.75" fill="#ffffff" fill-rule="evenodd" stroke="none"/>
    <path d="M7.0 -44.5 L8.0 -44.25 8.25 -44.25 8.75 -43.75 9.75 -41.5 7.25 -39.25 5.0 -39.5 Q2.5 -43.0 5.0 -43.25 L5.25 -43.75 7.0 -44.5 M-6.75 -42.75 L-5.5 -43.25 -4.0 -42.5 -3.25 -42.75 -2.25 -42.25 Q-1.75 -40.25 -3.25 -38.5 L-6.75 -38.5 Q-9.25 -39.75 -7.0 -42.25 L-6.75 -42.75" fill="#000000" fill-rule="evenodd" stroke="none"/>
    <path d="M18.15 -11.75 Q19.85 -14.6 20.8 -17.3 18.9 23.75 1.95 24.95 -18.7 26.85 -19.05 -28.15 -17.95 -15.05 -11.65 -9.0 L-10.8 -8.05 Q-5.4 -2.3 2.05 -2.3 12.55 -2.3 18.15 -11.75 M77.05 -115.7 L77.05 -115.8 77.45 -116.15 77.05 -115.7 M88.3 -142.3 L88.3 -141.3 87.8 -138.8 87.8 -138.55 85.8 -124.55 82.8 -110.8 81.05 -106.05 81.05 -105.8 80.8 -105.3 79.05 -100.55 79.05 -100.3 77.05 -98.3 74.3 -97.8 55.55 -60.55 43.55 -41.8 40.05 -38.55 38.8 -39.3 40.55 -42.55 48.3 -51.8 62.8 -76.8 71.55 -94.05 71.55 -94.3 73.8 -98.55 72.55 -100.8 70.8 -102.05 Q64.55 -105.3 62.3 -104.8 L59.05 -107.3 56.8 -113.55 56.55 -115.3 56.55 -119.75 57.05 -118.45 57.05 -117.5 57.15 -117.35 57.45 -116.9 57.7 -116.95 58.15 -116.05 58.55 -115.3 Q61.75 -111.2 66.5 -110.05 L68.55 -110.25 74.3 -110.7 74.5 -110.75 Q79.45 -113.95 80.4 -115.05 L81.5 -116.4 81.7 -117.25 Q83.6 -120.8 85.0 -125.85 L86.85 -134.25 87.3 -137.05 88.9 -147.05 88.3 -142.3 M61.55 8.95 L61.8 7.95 62.05 9.2 61.55 8.95 M61.8 11.7 L62.05 13.7 61.8 12.45 61.8 11.7 M11.55 76.95 L13.05 79.45 13.55 79.7 13.8 78.45 17.3 83.95 20.3 86.7 25.3 88.45 30.55 88.2 35.55 86.95 Q53.1 79.5 57.8 71.35 52.35 84.15 34.55 89.95 L26.8 91.2 21.3 90.45 16.3 85.7 11.55 76.95 8.8 77.95 -4.45 78.2 Q-22.2 76.2 -31.95 66.7 L-36.95 65.45 -49.2 58.95 -49.45 58.95 Q-64.05 48.5 -66.15 31.7 L-65.0 33.95 -62.45 37.5 -62.45 37.7 -60.45 40.7 -53.7 46.95 -45.45 51.7 -40.95 53.2 -39.7 51.45 -35.7 54.2 -35.7 54.6 Q-27.7 59.05 -22.65 61.3 -12.8 65.65 0.3 67.3 L7.45 67.3 Q22.4 65.2 26.1 63.95 L32.25 60.7 39.8 51.95 46.8 42.7 46.55 38.2 Q62.8 22.45 62.05 14.7 63.3 24.7 59.05 35.7 L51.05 47.95 42.55 55.2 36.3 63.95 23.55 72.2 11.55 76.95 M-179.4 -29.3 L-172.85 -25.7 -165.35 -23.15 Q-160.6 -21.55 -155.95 -20.45 -147.4 -18.05 -135.85 -15.7 -118.1 -12.05 -104.8 -11.2 L-104.35 -11.3 -99.25 -13.1 Q-97.3 -13.7 -96.7 -13.1 L-93.95 -12.3 -74.45 -13.3 -51.95 -15.55 -45.2 -17.55 -44.9 -18.2 -43.55 -18.55 -38.65 -20.05 -38.5 -20.0 Q-40.8 -15.6 -58.95 -14.05 L-91.45 -11.8 -97.95 -12.55 -99.95 -10.8 -102.7 -10.3 -102.7 -10.05 -112.2 -10.3 -122.95 -12.3 -123.7 -12.3 -123.9 -12.5 -158.45 -20.05 -175.45 -25.3 -176.45 -25.8 -176.95 -26.3 -177.2 -26.3 -177.7 -26.8 -181.2 -29.05 -180.25 -29.75 -179.4 -29.3 M-55.2 83.45 Q-52.25 88.65 -47.35 91.95 -39.75 97.1 -27.45 97.7 -10.4 97.9 -6.55 91.95 L-5.95 90.75 -5.95 91.95 Q-6.8 101.6 -32.7 99.7 -44.0 98.1 -50.05 91.95 -53.5 88.45 -55.2 83.45 M-4.7 85.2 L-5.45 88.6 -5.45 87.95 -4.95 84.7 -4.7 85.2" fill="#000000" fill-opacity="0.49803922" fill-rule="evenodd" stroke="none"/>
  </g>
</svg>
