<?xml version="1.0" encoding="UTF-8" standalone="no"?>
<svg xmlns:ffdec="https://www.free-decompiler.com/flash" xmlns:xlink="http://www.w3.org/1999/xlink" ffdec:objectType="shape" height="249.3px" width="289.75px" xmlns="http://www.w3.org/2000/svg">
  <g transform="matrix(1.0, 0.0, 0.0, 1.0, 173.95, 149.05)">
    <path d="M-9.75 -32.5 Q-9.5 -31.25 -3.25 -31.25 L3.5 -34.0 Q14.25 -31.75 14.75 -35.75 26.5 -30.25 22.0 -9.25 20.5 -4.0 17.0 -1.0 L10.0 2.0 7.5 2.5 Q-4.5 5.25 -12.5 -8.25 -22.5 -24.75 -9.75 -32.5 M44.5 54.0 L51.75 47.0 Q68.75 63.5 49.75 81.0 22.0 100.75 13.0 78.0 25.25 75.0 37.25 65.0 L44.5 54.0 M-4.5 79.5 Q-4.25 87.3 -6.05 92.0 -7.55 95.95 -10.5 97.75 -14.75 102.75 -41.25 97.5 -47.4 95.5 -50.95 92.0 -61.1 82.0 -50.0 59.75 L-39.25 65.75 -31.5 68.25 -25.75 72.5 -20.25 75.25 -4.5 79.5" fill="#e58508" fill-rule="evenodd" stroke="none"/>
    <path d="M11.25 -39.25 L10.25 -40.0 9.5 -40.0 8.0 -39.5 7.5 -39.0 7.5 -38.75 6.25 -37.75 6.75 -36.0 8.25 -34.75 9.5 -34.75 12.0 -37.0 11.25 -39.25 M-9.75 -32.5 L-12.25 -36.0 -13.0 -41.5 -7.25 -44.75 Q-4.5 -46.5 1.25 -45.5 L2.5 -45.25 3.5 -45.75 Q12.5 -49.0 16.5 -44.75 L16.5 -39.5 Q15.75 -35.75 14.75 -35.75 14.25 -31.75 3.5 -34.0 L-3.25 -31.25 Q-9.5 -31.25 -9.75 -32.5 M22.0 -9.25 L26.5 0.0 28.25 6.5 34.5 18.5 37.5 22.5 43.25 28.0 47.0 36.25 47.75 46.75 44.5 54.0 37.25 65.0 Q25.25 75.0 13.0 78.0 L10.5 79.0 -4.5 79.5 -20.25 75.25 -25.75 72.5 -31.5 68.25 -36.25 64.5 -39.5 56.25 -38.25 53.75 -38.0 50.75 -34.5 47.0 -30.75 40.75 -24.25 26.75 -23.75 24.0 -21.5 19.5 -19.25 12.25 -19.0 9.0 -12.5 -8.25 Q-4.5 5.25 7.5 2.5 L10.0 2.0 17.0 -1.0 Q20.5 -4.0 22.0 -9.25 M-3.25 -38.5 L-4.25 -38.0 -4.75 -37.5 Q-6.5 -34.5 -4.25 -33.75 L-1.0 -33.75 Q0.75 -35.5 0.25 -37.25 L-1.0 -38.0 -1.75 -38.25 -3.25 -38.5" fill="#ffffff" fill-rule="evenodd" stroke="none"/>
    <path d="M11.25 -39.25 L12.0 -37.0 9.5 -34.75 8.25 -34.75 6.75 -36.0 6.25 -37.75 7.5 -38.75 7.5 -39.0 8.0 -39.5 9.5 -40.0 10.25 -40.0 11.25 -39.25 M-3.25 -38.5 L-1.75 -38.25 -1.0 -38.0 0.25 -37.25 Q0.75 -35.5 -1.0 -33.75 L-4.25 -33.75 Q-6.5 -34.5 -4.75 -37.5 L-4.25 -38.0 -3.25 -38.5" fill="#000000" fill-rule="evenodd" stroke="none"/>
    <path d="M110.1 -133.15 L100.3 -114.8 91.05 -99.55 86.55 -95.55 86.05 -95.3 83.55 -93.55 81.3 -93.3 76.55 -85.3 76.3 -85.05 75.8 -84.05 75.55 -83.8 75.55 -83.55 75.3 -83.3 75.3 -82.8 74.8 -82.3 57.8 -53.8 45.55 -38.3 42.05 -35.55 41.05 -36.8 50.3 -45.3 56.55 -53.3 67.8 -72.0 72.35 -80.2 Q78.25 -90.65 81.2 -94.2 L80.55 -96.3 76.0 -98.95 75.25 -99.25 Q73.3 -100.0 72.8 -100.75 71.85 -101.0 71.15 -101.35 L71.15 -101.8 73.9 -101.45 Q76.75 -101.45 82.75 -103.7 L83.2 -104.0 Q85.05 -104.85 86.25 -105.1 L90.05 -106.55 92.55 -108.55 Q94.2 -110.1 96.05 -112.75 L98.95 -117.1 101.8 -123.25 113.8 -144.3 115.8 -149.05 115.05 -144.3 110.1 -133.15 M64.8 -104.8 L64.8 -106.8 67.55 -102.8 64.8 -104.8 M51.8 46.95 L44.55 53.95 37.3 64.95 Q25.05 74.95 13.8 77.7 L14.55 79.2 15.05 77.7 17.8 82.2 23.05 86.7 29.55 87.2 36.55 85.7 Q53.3 80.7 59.8 64.45 55.8 81.2 35.55 88.7 20.3 94.95 13.05 77.95 L10.55 78.95 -4.45 79.45 -20.2 75.2 -25.7 72.45 -31.45 68.2 -39.2 65.7 -49.95 59.7 Q-62.8 51.55 -65.35 34.7 L-61.65 40.1 Q-58.95 43.65 -56.2 46.25 L-56.2 46.45 -49.45 51.45 -39.45 55.7 -38.45 53.95 -32.25 58.65 -32.2 58.7 -29.5 59.9 Q-24.05 62.4 -22.7 62.7 L-15.8 64.1 -5.45 65.05 5.55 65.05 Q18.2 63.75 23.5 62.35 27.1 61.4 33.5 58.4 L39.8 54.7 47.8 43.45 47.55 37.45 Q57.05 33.2 62.3 15.7 61.3 38.95 51.8 46.95 M22.25 -9.95 Q19.7 26.8 3.65 27.95 -17.0 29.85 -17.35 -25.15 -16.6 -16.05 -13.3 -10.35 -12.2 -7.9 -9.75 -4.85 -3.9 2.45 4.3 2.45 17.7 2.45 22.25 -9.95 M-47.95 -8.8 L-42.2 -11.8 Q-42.2 -13.3 -35.45 -16.8 -35.95 -10.8 -60.95 -4.55 L-88.7 2.2 -92.7 2.2 -94.2 4.2 -96.2 5.2 -96.7 5.95 -99.45 6.45 -99.95 6.7 -107.2 8.7 -108.45 8.7 -109.2 8.95 -110.45 8.95 -111.2 9.2 -112.7 9.2 -113.2 9.45 -146.95 12.7 -167.2 13.2 -169.2 12.7 -169.7 12.45 -173.95 11.2 -173.6 10.75 Q-168.9 12.1 -166.45 12.2 L-165.45 12.2 -135.95 10.0 -108.45 7.2 Q-103.4 6.4 -99.6 5.2 L-98.45 4.7 -98.0 4.65 -96.85 4.2 Q-95.0 2.8 -93.6 2.0 L-92.45 1.45 -89.2 1.7 -75.2 -1.55 -74.95 -1.55 -74.2 -1.8 -70.7 -2.55 -70.45 -2.55 -47.95 -8.8 M-4.95 85.45 L-4.95 84.45 -4.7 84.45 -4.95 85.45 M-55.2 83.2 Q-53.45 88.5 -47.75 91.95 -41.35 95.85 -29.95 97.45 -11.2 98.45 -6.8 91.95 -5.6 90.2 -5.45 87.95 -5.3 90.15 -5.75 91.95 -8.3 101.05 -27.7 100.2 -42.8 99.05 -49.95 91.95 -53.6 88.35 -55.2 83.2" fill="#000000" fill-opacity="0.49803922" fill-rule="evenodd" stroke="none"/>
  </g>
</svg>
