<?xml version="1.0" encoding="UTF-8" standalone="no"?>
<svg xmlns:ffdec="https://www.free-decompiler.com/flash" xmlns:xlink="http://www.w3.org/1999/xlink" ffdec:objectType="shape" height="233.3px" width="299.0px" xmlns="http://www.w3.org/2000/svg">
  <g transform="matrix(1.0, 0.0, 0.0, 1.0, 159.45, 132.8)">
    <path d="M17.75 -31.5 Q27.75 -28.75 24.75 -4.25 24.0 -0.25 20.0 3.75 L14.0 6.5 12.5 7.0 11.75 7.0 11.0 7.25 Q-0.5 10.75 -10.0 -4.0 -20.0 -19.75 -7.0 -27.75 -3.25 -24.25 6.25 -29.0 L14.25 -28.5 Q17.0 -29.0 17.75 -31.5 M46.0 53.25 L52.75 46.25 Q68.75 64.5 50.5 79.5 37.5 89.5 27.5 89.25 22.75 88.5 21.75 87.25 L14.75 79.0 Q27.0 76.25 39.0 65.25 L46.0 53.25 M-4.5 80.75 Q-5.0 87.85 -6.2 92.0 -7.9 98.0 -11.0 98.0 -22.0 101.25 -28.25 100.25 L-41.0 97.5 Q-47.05 95.4 -50.6 92.0 -61.15 82.0 -50.5 60.75 L-45.75 63.75 -37.5 67.75 -31.25 69.5 -21.25 76.0 -17.75 77.5 -5.5 80.25 -4.5 80.75" fill="#e58508" fill-rule="evenodd" stroke="none"/>
    <path d="M-7.0 -27.75 L-9.75 -31.25 -10.25 -36.5 -4.75 -39.5 Q0.75 -41.5 4.0 -40.5 L5.25 -40.25 6.25 -40.75 11.25 -42.25 Q16.75 -43.0 19.25 -40.25 L19.25 -35.75 17.75 -31.5 Q17.0 -29.0 14.25 -28.5 L6.25 -29.0 Q-3.25 -24.25 -7.0 -27.75 M24.75 -4.25 Q28.25 0.25 30.5 9.5 L36.5 21.0 44.75 29.5 47.5 35.0 Q51.25 44.75 46.0 53.25 L39.0 65.25 Q27.0 76.25 14.75 79.0 L10.25 80.25 -4.5 80.75 -5.5 80.25 -17.75 77.5 -21.25 76.0 -31.25 69.5 -35.0 66.5 Q-38.75 59.25 -38.0 58.25 L-36.5 56.0 -36.5 53.5 -32.25 49.75 -21.75 29.5 -17.5 18.25 -15.5 9.5 -10.0 -4.0 Q-0.5 10.75 11.0 7.25 L11.75 7.0 12.5 7.0 14.0 6.5 20.0 3.75 Q24.0 -0.25 24.75 -4.25 M12.5 -30.0 Q16.75 -32.75 13.5 -34.75 L13.5 -35.0 13.0 -35.25 12.5 -35.0 10.5 -34.25 10.25 -33.75 Q7.5 -30.75 12.5 -30.0 M2.0 -33.0 L1.5 -33.0 -0.25 -33.5 -1.25 -33.0 -1.75 -32.5 Q-4.0 -30.0 -1.5 -28.75 L2.0 -28.75 3.25 -31.25 3.0 -32.5 2.0 -33.0" fill="#ffffff" fill-rule="evenodd" stroke="none"/>
    <path d="M2.0 -33.0 L3.0 -32.5 3.25 -31.25 2.0 -28.75 -1.5 -28.75 Q-4.0 -30.0 -1.75 -32.5 L-1.25 -33.0 -0.25 -33.5 1.5 -33.0 2.0 -33.0 M12.5 -30.0 Q7.5 -30.75 10.25 -33.75 L10.5 -34.25 12.5 -35.0 13.0 -35.25 13.5 -35.0 13.5 -34.75 Q16.75 -32.75 12.5 -30.0" fill="#000000" fill-rule="evenodd" stroke="none"/>
    <path d="M107.4 -104.9 L108.75 -105.7 120.3 -115.3 126.8 -119.8 136.8 -129.55 137.3 -129.8 139.55 -132.8 138.3 -129.8 113.05 -105.3 97.8 -92.55 Q88.8 -87.8 87.3 -88.55 L63.8 -52.8 51.3 -38.3 44.8 -32.55 43.8 -33.55 49.35 -37.6 57.55 -48.05 70.7 -64.6 81.2 -80.9 85.4 -86.8 87.3 -89.8 87.3 -90.55 86.55 -92.3 85.7 -92.8 Q89.85 -93.7 95.85 -97.9 L97.95 -98.95 98.55 -99.3 98.7 -99.35 101.05 -100.7 107.4 -104.9 M70.3 -102.55 L70.55 -107.05 70.8 -104.05 73.05 -99.3 70.55 -101.05 70.3 -102.55 M61.15 13.15 L61.35 11.65 62.25 5.5 Q62.8 10.4 62.8 15.45 63.3 32.95 52.8 46.2 L46.05 53.2 41.9 60.4 41.85 60.4 39.05 65.2 Q26.05 76.7 16.8 78.2 20.55 89.45 38.3 84.45 53.55 79.2 59.8 63.7 L59.55 65.7 59.3 66.7 Q54.3 80.95 35.3 87.95 21.55 92.7 14.8 78.95 L10.3 80.2 -4.45 80.7 -4.7 82.2 -4.7 80.45 -5.45 80.2 -17.7 77.45 -21.2 75.95 -31.2 69.45 -37.45 67.7 -45.7 63.7 -50.45 60.7 Q-66.45 50.45 -65.45 25.7 L-63.45 32.2 -58.7 39.45 -51.7 45.45 -43.45 49.95 -35.45 52.45 -36.45 53.45 -36.95 56.7 -28.9 62.4 -27.9 62.85 Q-17.3 67.2 -1.55 67.2 L3.55 66.95 9.95 66.95 22.25 65.2 23.45 64.75 31.15 62.2 31.5 62.05 36.2 59.1 41.15 54.35 48.35 43.75 49.0 42.85 48.8 38.45 56.8 30.7 61.05 12.45 61.15 13.15 M24.95 -4.3 Q22.1 30.8 6.45 31.9 -13.7 33.75 -14.5 -18.5 L-13.9 -15.95 -13.65 -15.1 Q-12.45 -9.4 -9.95 -5.5 -3.25 7.45 7.9 7.45 20.8 7.45 24.95 -4.3 M-34.2 -7.8 L-46.7 -0.05 -51.45 2.1 Q-54.1 3.75 -57.15 5.2 L-62.95 7.6 -62.95 7.45 -69.05 10.0 -69.25 10.1 -83.2 15.95 -85.95 16.2 -86.45 17.95 -88.45 19.7 -88.7 20.7 -89.7 20.95 -94.7 25.2 -109.45 32.45 -130.2 41.7 -151.2 49.95 -152.45 50.2 -156.45 50.2 -157.7 50.45 -159.45 50.45 -159.05 49.15 -157.2 49.35 Q-157.2 49.9 -151.3 48.15 -144.05 45.95 -134.75 41.95 L-115.2 33.7 Q-104.1 28.8 -96.25 24.35 L-90.8 20.25 -90.15 19.5 Q-86.95 15.85 -84.75 15.45 L-84.7 15.6 Q-83.1 14.8 -79.35 13.3 -71.4 10.05 -68.45 8.35 -59.9 3.5 -50.5 0.9 L-43.45 -2.3 -32.95 -9.55 -34.2 -7.8 M-47.55 91.95 Q-41.7 95.55 -31.95 96.95 -10.6 98.5 -6.45 91.95 -5.3 90.15 -5.45 87.7 L-5.45 86.95 -4.95 85.45 -4.95 84.45 -4.7 84.45 -4.95 85.45 -5.45 90.2 -8.2 96.2 -15.45 99.45 -26.45 100.2 Q-41.5 100.0 -49.5 91.95 -52.45 88.95 -54.45 84.9 -52.25 89.1 -47.55 91.95" fill="#000000" fill-opacity="0.49803922" fill-rule="evenodd" stroke="none"/>
  </g>
</svg>
