<?xml version="1.0" encoding="UTF-8" standalone="no"?>
<svg xmlns:ffdec="https://www.free-decompiler.com/flash" xmlns:xlink="http://www.w3.org/1999/xlink" ffdec:objectType="shape" height="219.9px" width="299.55px" xmlns="http://www.w3.org/2000/svg">
  <g transform="matrix(1.0, 0.0, 0.0, 1.0, 140.45, 119.7)">
    <path d="M20.75 -27.0 L24.25 -24.75 26.75 -20.5 28.5 -14.5 28.75 -3.75 28.0 0.25 Q26.75 5.25 23.5 8.25 L16.0 11.75 14.75 12.0 Q2.75 15.75 -7.25 0.25 -17.25 -11.75 -4.25 -23.0 3.25 -19.5 9.5 -24.25 L16.0 -23.5 Q20.0 -24.25 20.75 -27.0 M47.8 51.7 L53.25 45.75 Q69.25 57.75 51.0 78.5 26.0 97.75 16.75 79.75 27.75 77.75 40.5 65.5 L47.5 52.0 47.8 51.7 M-4.5 81.5 Q-4.85 88.05 -6.15 92.0 -7.6 96.45 -10.25 97.5 -16.25 103.0 -42.25 97.0 -47.35 95.0 -50.5 92.0 -60.95 82.15 -51.0 61.5 L-47.0 64.25 -38.0 68.75 -30.5 70.75 -22.0 76.75 -16.75 78.75 -4.5 81.5" fill="#e58508" fill-rule="evenodd" stroke="none"/>
    <path d="M-4.25 -23.0 L-6.75 -26.25 -7.5 -31.5 -1.25 -34.5 Q4.5 -36.5 7.25 -35.5 L8.5 -35.25 9.5 -35.75 13.75 -37.25 Q20.5 -38.0 22.0 -36.0 L22.25 -31.0 20.75 -27.0 Q20.0 -24.25 16.0 -23.5 L9.5 -24.25 Q3.25 -19.5 -4.25 -23.0 M28.0 0.25 Q32.0 6.5 32.75 12.25 L38.75 23.5 Q39.5 25.75 46.0 30.5 L48.25 34.5 50.25 41.5 Q51.0 48.0 47.8 51.7 L47.5 52.0 40.5 65.5 Q27.75 77.75 16.75 79.75 L11.75 81.25 -0.25 82.0 -4.5 81.5 -16.75 78.75 -22.0 76.75 -30.5 70.75 -33.25 68.75 -36.5 60.75 Q-34.0 59.0 -34.5 56.0 L-30.25 52.75 -19.75 34.0 -15.0 22.25 -13.0 14.25 -7.25 0.25 Q2.75 15.75 14.75 12.0 L16.0 11.75 23.5 8.25 Q26.75 5.25 28.0 0.25 M18.25 -28.25 L17.25 -29.75 16.75 -30.0 16.5 -30.0 15.75 -30.25 13.5 -29.0 Q11.25 -28.5 13.75 -25.25 L16.75 -25.5 18.25 -28.25 M6.5 -27.25 L4.5 -28.25 3.0 -28.25 1.5 -27.5 1.5 -27.25 Q-2.0 -23.0 5.25 -23.75 7.0 -25.0 6.5 -27.25" fill="#ffffff" fill-rule="evenodd" stroke="none"/>
    <path d="M6.5 -27.25 Q7.0 -25.0 5.25 -23.75 -2.0 -23.0 1.5 -27.25 L1.5 -27.5 3.0 -28.25 4.5 -28.25 6.5 -27.25 M18.25 -28.25 L16.75 -25.5 13.75 -25.25 Q11.25 -28.5 13.5 -29.0 L15.75 -30.25 16.5 -30.0 16.75 -30.0 17.25 -29.75 18.25 -28.25" fill="#000000" fill-rule="evenodd" stroke="none"/>
    <path d="M62.3 5.2 L62.55 5.2 62.55 6.45 62.3 5.2 M47.3 33.2 Q58.55 27.7 62.8 9.95 L63.05 9.95 Q64.3 33.45 53.3 45.7 50.05 48.45 47.55 51.95 L40.55 65.45 Q27.55 77.95 17.55 79.45 L19.3 81.7 19.55 80.2 Q23.8 84.95 25.8 85.2 L30.05 85.7 39.05 83.45 Q54.05 77.2 59.8 64.95 52.8 81.45 37.55 86.7 21.3 91.45 16.8 79.7 L11.8 81.2 -0.2 81.95 -4.7 81.45 -16.7 78.7 -21.95 76.7 -30.45 70.7 -37.95 68.7 -46.95 64.2 -50.95 61.45 Q-64.55 54.9 -64.95 28.5 -63.4 44.2 -33.7 55.45 L-34.45 55.95 -35.2 59.2 -23.2 67.2 Q-9.45 72.95 12.3 71.45 L29.8 65.95 43.3 56.7 49.3 39.95 49.3 37.95 47.3 33.2 M28.2 -0.05 L28.4 -0.65 Q25.95 36.95 9.7 38.1 -9.5 39.85 -11.15 -7.6 L-8.6 -3.0 Q-6.3 2.55 -2.15 5.6 3.5 11.4 9.55 11.9 L9.55 11.95 Q9.55 12.8 16.15 10.7 22.75 8.6 23.9 7.3 27.25 3.5 28.2 -0.05 M126.1 -102.0 Q128.5 -103.25 130.2 -103.85 L152.3 -115.55 Q152.45 -115.45 152.55 -115.4 L157.2 -118.05 159.0 -119.6 159.1 -119.7 158.9 -119.45 157.8 -117.8 154.3 -114.55 131.3 -101.05 131.05 -100.8 122.55 -96.3 122.3 -96.05 122.05 -96.05 103.05 -86.3 91.05 -83.8 78.8 -65.3 65.8 -47.55 54.55 -35.3 49.55 -31.3 47.55 -30.05 46.55 -30.55 51.45 -33.7 55.6 -38.45 62.95 -46.8 70.35 -56.15 70.4 -56.2 76.8 -66.3 80.7 -70.7 81.55 -71.95 Q84.75 -77.55 87.6 -81.45 L91.05 -86.55 91.05 -87.3 105.5 -91.45 105.6 -91.5 116.55 -96.45 Q117.65 -96.9 126.1 -102.0 M-29.7 -4.3 L-41.7 6.7 -45.7 9.15 -45.7 9.25 Q-45.7 9.75 -51.7 13.6 -57.5 17.3 -58.6 17.45 L-64.75 21.65 -64.7 21.2 -77.2 28.7 -78.7 28.95 -80.7 33.45 -85.2 39.95 -93.95 48.45 -111.7 64.45 -132.45 81.7 -140.45 84.7 -140.35 81.85 -139.1 82.6 Q-130.85 80.75 -126.55 76.65 -122.6 71.85 -119.25 69.45 -115.5 66.8 -110.65 62.55 L-102.75 55.35 -87.75 41.8 -86.95 40.95 -86.85 40.9 Q-85.6 39.25 -80.85 31.65 -79.5 29.45 -78.6 28.55 L-78.6 28.45 Q-78.6 27.3 -69.75 23.65 L-64.9 19.95 Q-61.4 17.4 -58.4 16.05 -56.9 14.6 -53.5 12.65 L-46.85 9.05 -41.45 5.45 -41.2 5.45 -33.45 -1.8 -29.7 -4.3 M-53.6 86.65 Q-51.5 89.6 -47.15 91.95 -42.05 94.75 -33.7 96.7 -13.2 99.6 -7.15 91.95 L-5.95 89.95 -4.95 85.45 -5.7 90.95 -5.9 91.95 Q-6.6 94.55 -8.7 96.45 L-14.7 99.2 -27.2 100.2 Q-42.0 99.35 -49.55 91.95 -51.95 89.6 -53.6 86.65 M-131.3 51.4 L-130.45 49.2 -130.65 50.25 -130.95 50.75 -131.3 51.4" fill="#000000" fill-opacity="0.49803922" fill-rule="evenodd" stroke="none"/>
  </g>
</svg>
