<?xml version="1.0" encoding="UTF-8" standalone="no"?>
<svg xmlns:ffdec="https://www.free-decompiler.com/flash" xmlns:xlink="http://www.w3.org/1999/xlink" ffdec:objectType="shape" height="207.1px" width="279.4px" xmlns="http://www.w3.org/2000/svg">
  <g transform="matrix(1.0, 0.0, 0.0, 1.0, 109.6, 104.95)">
    <path d="M20.5 -25.25 L20.25 -25.5 18.75 -25.5 17.75 -24.5 17.0 -24.25 Q13.75 -21.25 19.5 -20.75 L21.5 -22.75 21.25 -25.0 20.5 -25.25 M-1.0 -18.25 L-3.75 -21.75 -4.25 -26.75 2.5 -29.75 Q5.25 -31.25 10.75 -30.75 L11.75 -30.5 12.75 -31.0 17.75 -32.75 Q23.5 -33.5 25.25 -31.75 L25.25 -25.75 24.0 -22.75 Q21.5 -19.0 20.0 -19.25 L12.75 -19.5 6.75 -16.75 Q-0.75 -16.5 -1.0 -18.25 M31.25 4.75 Q33.75 7.25 35.25 15.25 L40.5 25.0 Q41.25 27.75 47.75 32.0 L50.0 36.25 51.5 42.25 Q51.3 48.0 50.5 49.25 L50.25 49.5 43.25 63.5 40.75 67.0 29.25 76.25 18.5 80.5 14.25 82.0 1.75 83.0 -4.75 82.75 -19.5 79.0 -29.75 72.0 -32.0 70.5 Q-35.5 64.0 -34.75 63.0 -32.25 61.5 -32.75 58.75 L-28.25 55.5 -28.25 54.5 -24.25 49.5 -17.5 37.5 -13.0 27.5 -10.0 17.25 -4.25 4.25 Q7.0 21.0 19.25 16.25 L19.75 16.0 20.5 15.75 Q28.5 14.25 31.25 4.75 M5.25 -23.0 L5.25 -22.5 Q1.25 -19.0 8.0 -18.75 L10.0 -20.75 10.0 -22.5 7.25 -23.5 6.5 -23.25 5.75 -23.25 5.25 -23.0" fill="#ffffff" fill-rule="evenodd" stroke="none"/>
    <path d="M-1.0 -18.25 Q-0.75 -16.5 6.75 -16.75 L12.75 -19.5 20.0 -19.25 Q21.5 -19.0 24.0 -22.75 L27.75 -20.25 31.25 -12.5 32.25 -5.75 31.25 4.75 Q28.5 14.25 20.5 15.75 L19.75 16.0 19.25 16.25 Q7.0 21.0 -4.25 4.25 -14.0 -10.0 -1.0 -18.25 M50.5 49.25 L54.0 45.25 Q67.75 56.25 54.0 75.0 33.25 96.75 18.5 80.5 L29.25 76.25 40.75 67.0 43.25 63.5 50.25 49.5 50.5 49.25 M-4.75 82.75 Q-4.5 88.2 -6.1 92.0 -7.6 95.6 -10.75 97.75 -22.0 102.75 -41.5 97.25 -47.0 95.2 -50.35 92.0 -60.5 82.4 -51.5 62.5 L-51.0 62.5 -47.0 65.5 -36.75 70.5 -29.75 72.0 -19.5 79.0 -4.75 82.75" fill="#e58508" fill-rule="evenodd" stroke="none"/>
    <path d="M20.5 -25.25 L21.25 -25.0 21.5 -22.75 19.5 -20.75 Q13.75 -21.25 17.0 -24.25 L17.75 -24.5 18.75 -25.5 20.25 -25.5 20.5 -25.25 M5.25 -23.0 L5.75 -23.25 6.5 -23.25 7.25 -23.5 10.0 -22.5 10.0 -20.75 8.0 -18.75 Q1.25 -19.0 5.25 -22.5 L5.25 -23.0" fill="#000000" fill-rule="evenodd" stroke="none"/>
    <path d="M77.45 -60.75 L76.3 -59.3 77.9 -61.45 85.5 -73.0 Q90.3 -79.7 92.6 -81.45 L92.25 -80.95 93.05 -82.05 110.65 -84.5 Q124.0 -88.35 135.8 -92.55 L135.8 -92.8 142.35 -94.95 142.0 -94.85 Q153.15 -99.0 160.9 -101.3 163.35 -102.05 166.75 -103.6 L169.35 -104.95 169.8 -104.8 163.55 -100.3 141.05 -92.05 140.8 -91.8 123.55 -86.3 123.05 -86.05 102.55 -80.05 92.55 -79.3 92.05 -78.8 87.05 -71.3 86.55 -70.8 86.55 -70.55 86.05 -69.8 86.05 -69.55 85.55 -69.05 85.55 -68.8 82.55 -64.3 82.05 -63.8 82.05 -63.55 81.55 -63.05 68.8 -45.8 56.05 -31.8 51.55 -28.8 49.3 -28.05 54.3 -33.3 57.5 -35.7 61.65 -40.6 Q71.65 -52.25 74.9 -56.95 L77.45 -60.75 M14.55 16.7 Q21.6 16.7 26.15 13.0 L30.85 7.6 Q27.8 41.05 12.5 42.15 -6.7 43.9 -8.35 -3.45 L-5.9 0.85 Q-3.5 6.75 0.95 9.9 L2.75 12.3 Q7.1 16.7 14.55 16.7 M48.8 34.45 Q60.8 27.2 63.55 9.7 64.8 32.45 54.05 45.2 L50.3 49.45 43.3 63.45 40.8 66.95 29.55 76.2 20.6 79.75 22.3 81.45 Q27.3 87.95 41.3 82.2 55.3 75.45 60.3 63.45 57.05 76.45 39.55 85.45 24.05 91.7 18.55 80.45 L14.3 81.95 1.8 82.95 -4.95 82.7 -19.45 78.95 -29.7 71.95 -36.7 70.45 -46.95 65.45 -50.95 62.45 -51.45 62.45 Q-63.7 53.7 -64.95 34.95 L-71.45 39.95 -72.2 41.7 -72.7 43.95 -75.95 52.2 -79.7 58.2 -79.7 58.45 -80.45 59.7 -80.7 59.95 -81.2 60.7 -81.45 61.2 -94.45 80.95 -94.7 81.45 -95.2 82.2 -95.7 82.7 -95.95 83.2 -96.45 83.7 -96.45 83.95 -106.2 97.45 -102.7 91.7 -100.2 88.65 -91.0 74.95 -78.75 55.85 Q-77.55 54.0 -76.3 51.1 L-74.2 46.3 Q-73.65 45.15 -72.6 41.6 L-71.6 39.45 -71.7 39.2 -71.1 38.85 -70.7 38.35 Q-70.1 37.75 -69.7 37.9 L-67.1 36.15 -56.05 27.0 -37.75 12.25 -37.2 11.7 -37.1 11.7 -36.4 11.15 -25.95 -0.3 -26.95 1.7 -33.9 9.25 -33.75 9.45 Q-40.55 16.3 -51.45 25.2 L-62.75 34.2 Q-57.4 48.55 -39.45 55.7 L-39.2 55.65 Q-35.75 57.5 -32.5 58.6 L-32.7 58.7 -33.45 61.7 -22.2 69.2 -7.95 72.7 15.05 72.95 31.05 67.45 44.3 57.95 48.05 49.2 50.8 39.95 50.05 36.2 48.8 34.45 M-53.7 86.8 Q-51.75 89.7 -47.35 91.95 -40.5 95.45 -27.7 97.45 -11.75 98.05 -7.15 91.95 -5.8 90.15 -5.45 87.7 L-4.95 85.45 -4.95 84.45 -4.7 84.95 -4.95 85.45 -5.2 88.95 -5.95 91.95 Q-6.85 94.6 -8.2 95.95 L-14.2 98.95 -26.95 100.2 Q-42.55 99.05 -49.85 91.95 -52.2 89.7 -53.7 86.8 M-106.2 97.55 L-106.2 97.7 -107.45 99.45 -107.95 99.95 -109.55 102.15 -109.6 102.05 -106.2 97.55" fill="#000000" fill-opacity="0.49803922" fill-rule="evenodd" stroke="none"/>
  </g>
</svg>
