<?xml version="1.0" encoding="UTF-8" standalone="no"?>
<svg xmlns:ffdec="https://www.free-decompiler.com/flash" xmlns:xlink="http://www.w3.org/1999/xlink" ffdec:objectType="shape" height="193.5px" width="242.5px" xmlns="http://www.w3.org/2000/svg">
  <g transform="matrix(1.0, 0.0, 0.0, 1.0, 70.2, 93.3)">
    <path d="M2.0 -14.25 L-0.75 -17.75 -1.25 -22.5 6.75 -25.75 Q12.25 -27.5 13.75 -26.5 L15.0 -26.25 15.75 -26.75 21.0 -28.75 Q27.25 -29.5 28.0 -28.0 L28.25 -22.0 27.0 -19.25 Q25.0 -13.75 16.0 -15.5 7.5 -10.25 2.0 -14.25 M34.25 8.75 Q36.25 10.5 37.25 17.0 L41.75 25.75 Q43.5 29.75 49.25 33.25 L51.0 36.75 52.5 42.5 52.0 48.0 42.75 66.5 Q31.0 79.5 20.0 81.25 L14.75 83.0 -0.5 84.25 -4.75 83.75 -18.5 80.25 -29.0 73.25 -30.5 72.25 -32.75 67.5 -33.25 65.25 Q-31.0 63.75 -31.0 61.0 -26.5 59.0 -22.25 52.0 L-13.5 37.0 -9.5 28.0 -8.0 22.25 -1.5 7.75 Q10.25 24.75 21.75 20.25 L22.75 20.0 23.25 19.75 29.25 17.25 Q33.25 13.0 34.25 8.75 M12.0 -18.75 L10.5 -19.25 Q10.25 -18.7 9.75 -19.0 L8.75 -18.5 8.25 -18.0 Q5.25 -15.0 11.0 -14.5 15.0 -17.5 12.0 -18.75 M19.25 -19.5 L19.25 -17.75 20.25 -16.75 23.25 -17.0 24.75 -20.0 23.75 -21.25 23.5 -21.5 22.0 -21.5 20.75 -20.5 20.25 -20.0 19.25 -19.5" fill="#ffffff" fill-rule="evenodd" stroke="none"/>
    <path d="M27.0 -19.25 L31.5 -15.75 33.5 -10.0 35.25 -2.5 Q35.75 4.75 34.25 8.75 33.25 13.0 29.25 17.25 L23.25 19.75 22.75 20.0 21.75 20.25 Q10.25 24.75 -1.5 7.75 L-5.75 -2.0 Q-6.75 -7.5 2.0 -14.25 7.5 -10.25 16.0 -15.5 25.0 -13.75 27.0 -19.25 M52.0 48.0 L54.5 45.0 Q67.5 55.75 55.25 73.25 34.75 95.75 20.0 81.25 31.0 79.5 42.75 66.5 L52.0 48.0 M-4.75 83.75 Q-3.95 88.6 -5.2 92.0 -9.85 104.25 -42.0 97.0 -46.95 94.9 -50.1 92.0 -61.05 82.15 -51.75 63.0 L-48.25 65.5 -47.75 66.0 -37.25 71.25 -29.0 73.25 -18.5 80.25 -4.75 83.75" fill="#e58508" fill-rule="evenodd" stroke="none"/>
    <path d="M19.25 -19.5 L20.25 -20.0 20.75 -20.5 22.0 -21.5 23.5 -21.5 23.75 -21.25 24.75 -20.0 23.25 -17.0 20.25 -16.75 19.25 -17.75 19.25 -19.5 M12.0 -18.75 Q15.0 -17.5 11.0 -14.5 5.25 -15.0 8.25 -18.0 L8.75 -18.5 9.75 -19.0 Q10.25 -18.7 10.5 -19.25 L12.0 -18.75" fill="#000000" fill-rule="evenodd" stroke="none"/>
    <path d="M58.35 -31.95 L62.95 -37.05 Q72.4 -47.45 75.9 -53.05 L85.95 -68.9 Q88.55 -72.65 90.4 -74.7 L91.05 -76.05 93.05 -78.05 96.05 -78.3 95.65 -78.05 98.25 -78.0 Q111.1 -77.6 123.95 -80.2 L135.65 -83.2 137.4 -83.55 137.55 -83.8 156.8 -87.3 165.05 -89.55 168.55 -91.05 169.05 -93.3 172.3 -91.55 165.8 -88.3 147.3 -83.55 117.55 -77.55 102.55 -75.05 92.3 -75.3 88.05 -68.8 87.8 -68.3 87.3 -67.8 87.3 -67.55 86.3 -66.05 86.3 -65.8 85.8 -65.05 85.55 -64.55 82.55 -60.05 82.3 -59.8 70.05 -42.55 57.55 -29.55 53.3 -26.55 51.8 -25.8 51.55 -26.3 58.35 -31.95 M63.8 5.15 L64.05 10.45 Q66.3 27.2 54.55 44.95 L52.05 47.95 42.8 66.45 Q30.05 79.95 22.3 80.2 27.8 87.7 41.3 81.95 55.55 74.45 60.55 62.7 59.3 73.2 40.8 84.7 L32.8 87.2 27.05 86.95 23.8 84.95 20.05 81.2 14.8 82.95 -0.45 84.2 -4.7 83.7 -18.45 80.2 -28.95 73.2 -37.2 71.2 -47.7 65.95 -48.2 65.45 -51.7 62.95 -58.7 55.7 -62.95 46.7 -63.2 46.7 -65.7 48.7 -65.7 47.7 -64.65 46.9 -64.6 46.9 Q-63.75 45.8 -61.3 43.85 -59.1 42.05 -57.75 41.2 L-56.65 40.1 -47.6 30.65 -33.2 17.1 -33.1 17.1 -32.45 16.45 -28.35 10.35 -23.95 6.25 -31.95 16.45 -32.7 17.2 -32.6 17.6 Q-32.6 18.5 -43.75 29.75 -51.05 37.15 -55.65 41.05 L-51.25 46.05 Q-49.95 47.7 -44.55 50.75 -41.7 52.4 -39.95 53.6 -33.7 56.7 -26.95 58.15 -28.6 59.65 -30.95 60.95 L-31.7 63.7 -20.45 71.2 -3.7 74.95 16.55 74.45 Q24.95 71.35 33.3 68.2 L46.05 51.45 51.8 40.45 Q51.8 37.2 49.55 33.7 L45.55 30.2 Q53.0 24.4 55.95 20.9 L60.3 14.45 63.05 8.7 63.1 9.45 63.1 8.9 63.65 6.05 63.8 5.15 M-55.2 83.2 Q-53.25 88.55 -47.3 91.95 -40.05 96.1 -26.95 97.45 -10.95 97.85 -6.85 91.95 -5.5 90.05 -5.45 87.45 L-4.95 85.2 -5.7 90.95 -7.95 95.7 Q-10.95 98.45 -15.2 99.2 L-26.45 100.2 Q-42.5 99.05 -49.9 91.95 -53.7 88.35 -55.2 83.2 M32.85 11.45 Q29.5 42.65 14.75 43.7 -4.6 45.5 -6.1 -2.75 L-5.15 -1.05 -4.5 0.05 Q-2.8 5.45 0.35 8.9 L0.65 9.8 Q1.9 12.6 3.7 14.6 9.05 20.7 19.65 20.7 26.35 20.7 31.15 14.1 L32.85 11.45 M-70.2 67.7 L-68.95 63.2 -67.7 61.45 -70.2 67.7" fill="#000000" fill-opacity="0.49803922" fill-rule="evenodd" stroke="none"/>
  </g>
</svg>
