<?xml version="1.0" encoding="UTF-8" standalone="no"?>
<svg xmlns:ffdec="https://www.free-decompiler.com/flash" xmlns:xlink="http://www.w3.org/1999/xlink" ffdec:objectType="shape" height="212.0px" width="247.25px" xmlns="http://www.w3.org/2000/svg">
  <g transform="matrix(1.0, 0.0, 0.0, 1.0, 76.95, 88.55)">
    <path d="M4.5 -11.0 L1.75 -14.5 1.5 -19.0 10.75 -22.75 16.5 -23.25 17.75 -23.0 22.75 -25.25 Q27.0 -26.25 30.25 -25.25 L31.0 -21.25 Q30.7 -18.65 29.5 -16.25 27.5 -12.25 25.25 -12.25 L18.5 -12.5 Q14.0 -7.25 4.5 -11.0 M36.75 12.0 Q37.75 12.25 39.25 19.0 L44.25 28.75 Q44.75 30.5 50.25 34.0 L52.25 37.5 53.5 43.25 53.0 47.25 47.0 61.5 43.5 66.75 32.25 77.25 21.5 81.75 Q19.75 84.0 0.75 85.25 L-4.5 84.25 -17.25 81.5 -28.25 74.25 -29.5 73.5 -32.0 66.75 -30.0 65.0 -29.5 62.5 -25.5 60.0 -21.0 54.5 -12.75 41.75 -7.75 31.25 -5.5 24.0 1.0 10.5 2.25 12.5 Q13.5 27.25 24.5 23.25 L25.5 23.0 26.0 22.75 26.75 22.5 32.0 20.0 Q36.0 15.5 36.75 12.0 M22.0 -14.5 L23.0 -13.5 25.75 -13.75 Q28.75 -17.5 26.25 -18.25 L25.75 -18.5 24.75 -18.25 Q23.8 -18.15 23.5 -17.25 L23.0 -16.75 22.0 -16.25 22.0 -14.5 M14.25 -15.0 L12.75 -15.75 11.5 -15.25 11.0 -14.5 Q7.5 -11.5 13.75 -11.0 L16.0 -13.0 16.0 -15.0 15.0 -15.25 14.25 -15.0" fill="#ffffff" fill-rule="evenodd" stroke="none"/>
    <path d="M29.5 -16.25 Q39.75 -10.5 36.75 12.0 36.0 15.5 32.0 20.0 L26.75 22.5 26.0 22.75 25.5 23.0 24.5 23.25 Q13.5 27.25 2.25 12.5 L1.0 10.5 Q-8.75 -2.75 4.5 -11.0 14.0 -7.25 18.5 -12.5 L25.25 -12.25 Q27.5 -12.25 29.5 -16.25 M53.0 47.25 L53.5 46.5 55.25 44.75 Q68.0 59.5 53.5 75.0 32.5 94.5 21.5 81.75 L32.25 77.25 43.5 66.75 47.0 61.5 53.0 47.25 M-4.5 84.25 L-6.25 92.5 Q-7.25 96.25 -11.5 98.0 -20.75 101.0 -28.25 100.0 L-41.75 97.0 Q-46.7 94.85 -49.95 92.0 -61.1 82.15 -52.0 63.75 L-48.5 66.0 -47.75 66.75 -43.25 69.5 -34.75 73.0 -28.25 74.25 -17.25 81.5 -4.5 84.25" fill="#e58508" fill-rule="evenodd" stroke="none"/>
    <path d="M14.25 -15.0 L15.0 -15.25 16.0 -15.0 16.0 -13.0 13.75 -11.0 Q7.5 -11.5 11.0 -14.5 L11.5 -15.25 12.75 -15.75 14.25 -15.0 M22.0 -14.5 L22.0 -16.25 23.0 -16.75 23.5 -17.25 Q23.8 -18.15 24.75 -18.25 L25.75 -18.5 26.25 -18.25 Q28.75 -17.5 25.75 -13.75 L23.0 -13.5 22.0 -14.5" fill="#000000" fill-rule="evenodd" stroke="none"/>
    <path d="M62.8 -80.05 L64.3 -81.8 64.55 -81.8 62.8 -80.05 M70.8 -87.8 L71.55 -88.55 71.8 -88.55 70.8 -87.8 M58.8 -76.55 L60.8 -78.3 58.55 -76.05 58.8 -76.55 M80.05 -56.55 L84.15 -62.85 87.9 -69.05 Q89.15 -71.25 90.3 -72.5 L91.3 -74.55 91.3 -73.8 91.45 -73.65 91.85 -73.8 Q92.4 -74.1 92.7 -73.8 L102.9 -72.7 Q109.6 -72.7 124.25 -74.95 L140.55 -77.45 144.5 -77.7 161.35 -79.75 166.55 -81.55 166.9 -81.75 167.3 -83.55 170.3 -81.55 163.55 -78.8 123.55 -73.05 99.55 -70.8 91.05 -71.8 86.8 -65.05 86.3 -64.55 86.3 -64.3 85.8 -63.8 85.8 -63.55 85.05 -62.3 85.05 -62.05 84.3 -61.05 84.3 -60.8 83.3 -59.55 83.3 -59.3 83.05 -59.05 83.05 -58.8 82.55 -58.05 82.3 -57.8 70.05 -39.8 59.05 -28.05 54.55 -25.05 53.55 -24.8 54.9 -25.95 Q55.65 -27.15 63.5 -35.55 L71.7 -44.65 71.8 -44.8 72.0 -44.95 72.5 -45.6 74.55 -48.55 74.8 -48.8 75.8 -50.3 76.3 -50.8 76.55 -51.3 77.05 -51.8 77.05 -52.05 77.55 -52.55 77.55 -52.8 79.2 -55.15 80.05 -56.55 M35.95 13.45 Q32.85 46.75 17.6 47.85 -1.5 49.6 -3.2 2.75 L-0.9 6.3 Q0.9 10.85 3.9 13.8 L6.25 16.5 Q12.7 23.2 21.3 23.2 32.05 23.2 35.95 13.45 M47.05 31.45 Q63.55 19.2 64.05 4.7 L64.3 6.2 Q65.55 31.2 55.3 44.7 L53.55 46.45 53.05 47.2 46.8 61.7 43.8 66.45 32.05 77.2 23.8 80.7 Q30.55 87.2 42.3 81.2 58.55 71.45 60.55 61.45 59.3 73.2 41.8 83.95 L35.3 86.45 28.05 86.7 24.05 84.45 21.55 81.7 Q19.8 83.95 0.8 85.2 L-17.2 81.45 -28.2 74.2 -34.7 72.95 -43.2 69.45 -47.7 66.7 -48.45 65.95 -51.95 63.7 -56.95 58.45 -59.45 54.2 -60.95 55.2 -60.95 54.45 -57.65 51.05 -58.35 51.8 -57.95 51.45 -57.0 50.65 Q-53.5 46.25 -42.2 34.35 -38.95 31.0 -33.5 24.3 L-27.05 16.65 -24.2 11.7 -22.15 9.25 Q-21.55 8.95 -20.9 8.8 L-20.95 8.95 -25.7 15.8 Q-25.75 19.1 -40.9 35.35 L-48.65 43.5 Q-46.6 45.15 -43.85 47.95 L-37.05 52.45 -34.95 53.8 -34.85 53.9 Q-29.25 57.2 -24.65 59.0 -27.95 62.95 -29.7 62.95 L-30.45 65.45 -18.45 72.95 Q-3.2 78.45 17.8 75.7 L34.55 69.2 44.3 56.45 53.05 41.45 Q52.55 36.7 50.8 34.7 L47.05 31.45 M-47.0 91.95 Q-40.0 95.3 -26.95 97.45 -12.2 98.2 -7.45 91.95 -6.0 90.05 -5.45 87.45 L-4.95 85.2 -5.7 90.95 -7.95 95.7 -14.45 98.95 -20.2 99.95 -26.2 99.95 Q-42.1 99.1 -49.65 91.95 -51.65 90.05 -53.05 87.75 -51.0 90.05 -47.0 91.95 M-72.45 108.95 L-76.95 123.45 -75.7 117.7 -72.45 108.95" fill="#000000" fill-opacity="0.49803922" fill-rule="evenodd" stroke="none"/>
  </g>
</svg>
