<?xml version="1.0" encoding="UTF-8" standalone="no"?>
<svg xmlns:ffdec="https://www.free-decompiler.com/flash" xmlns:xlink="http://www.w3.org/1999/xlink" ffdec:objectType="shape" height="186.75px" width="225.25px" xmlns="http://www.w3.org/2000/svg">
  <g transform="matrix(1.0, 0.0, 0.0, 1.0, 57.95, 86.8)">
    <path d="M14.5 -13.5 L13.25 -12.75 Q10.0 -9.25 15.75 -9.0 19.75 -12.0 16.5 -13.25 L16.0 -13.5 14.5 -13.5 M6.25 -9.0 L3.75 -12.0 3.25 -16.75 12.0 -20.25 18.5 -21.0 19.5 -20.75 20.25 -21.25 20.75 -21.5 25.0 -23.25 Q30.0 -24.25 32.0 -23.25 L32.75 -19.0 31.5 -14.25 Q28.0 -9.5 26.5 -10.0 L20.25 -10.25 Q15.25 -5.0 6.25 -9.0 M38.5 14.25 Q45.5 34.25 51.5 35.0 L54.25 44.0 53.5 46.75 Q50.0 69.5 22.25 82.25 L18.0 84.0 2.5 85.75 -5.0 84.75 -16.75 82.0 -27.5 75.0 -28.75 74.25 -31.0 68.0 -29.25 66.25 -28.75 63.75 -23.75 60.5 -19.5 55.25 -11.5 43.25 -8.0 36.75 -4.25 26.25 2.5 12.25 Q15.75 30.75 27.0 25.0 L28.0 24.75 33.5 22.0 Q38.5 16.75 38.5 14.25 M27.0 -16.25 L26.5 -16.0 25.5 -15.0 25.0 -14.75 Q21.75 -12.0 27.25 -11.5 L29.5 -14.25 29.0 -15.25 29.0 -15.5 28.25 -16.0 28.0 -16.0 27.0 -16.25" fill="#ffffff" fill-rule="evenodd" stroke="none"/>
    <path d="M6.25 -9.0 Q15.25 -5.0 20.25 -10.25 L26.5 -10.0 Q28.0 -9.5 31.5 -14.25 40.5 -10.25 38.5 14.25 38.5 16.75 33.5 22.0 L28.0 24.75 27.0 25.0 Q15.75 30.75 2.5 12.25 L0.75 9.0 Q-6.0 0.5 6.25 -9.0 M53.5 46.75 L55.25 44.75 Q68.5 52.5 53.5 75.0 L47.25 80.5 37.5 85.75 29.5 86.75 Q26.0 86.25 22.25 82.25 50.0 69.5 53.5 46.75 M-5.0 84.75 Q-4.45 89.0 -5.6 92.0 -10.2 104.0 -41.75 97.0 -46.8 94.95 -50.0 92.0 -60.45 82.55 -52.25 64.25 L-42.25 70.5 -34.5 73.5 -27.5 75.0 -16.75 82.0 -5.0 84.75" fill="#e58508" fill-rule="evenodd" stroke="none"/>
    <path d="M14.5 -13.5 L16.0 -13.5 16.5 -13.25 Q19.75 -12.0 15.75 -9.0 10.0 -9.25 13.25 -12.75 L14.5 -13.5 M27.0 -16.25 L28.0 -16.0 28.25 -16.0 29.0 -15.5 29.0 -15.25 29.5 -14.25 27.25 -11.5 Q21.75 -12.0 25.0 -14.75 L25.5 -15.0 26.5 -16.0 27.0 -16.25" fill="#000000" fill-rule="evenodd" stroke="none"/>
    <path d="M70.8 -86.8 L70.3 -86.05 68.05 -84.05 67.8 -84.05 70.8 -86.8 M75.65 -48.95 Q77.6 -51.4 79.65 -54.95 L83.05 -60.95 86.95 -66.95 Q88.1 -68.7 89.55 -69.9 L90.05 -70.55 90.3 -70.5 Q91.55 -71.35 91.9 -70.3 L93.05 -70.2 98.2 -69.85 101.1 -69.6 106.05 -69.7 134.75 -71.8 135.3 -72.05 160.55 -74.05 163.8 -75.05 164.05 -77.3 167.3 -75.05 160.55 -72.8 142.8 -70.55 102.05 -68.05 89.3 -69.05 84.3 -60.8 84.05 -60.3 84.05 -60.05 82.55 -57.55 82.3 -57.3 81.8 -56.55 81.55 -56.05 69.8 -38.05 59.55 -26.8 55.3 -23.8 54.8 -23.55 54.05 -24.8 57.65 -26.9 63.9 -34.7 75.65 -48.95 M63.5 10.55 L64.55 4.45 Q67.05 29.7 55.3 44.7 L53.55 46.7 Q50.05 68.95 24.55 81.2 31.3 87.7 46.05 78.95 59.05 70.2 61.05 60.45 59.55 72.7 41.8 83.95 27.05 90.2 22.3 82.2 L18.05 83.95 2.55 85.7 -4.95 85.2 -5.45 89.7 -8.2 95.95 -15.45 99.2 -26.7 99.95 Q-41.65 99.45 -49.35 91.95 -52.65 88.8 -54.6 84.35 -52.45 88.9 -47.1 91.95 -40.65 95.65 -29.45 97.2 -11.5 98.15 -6.95 91.95 -5.55 90.05 -5.45 87.45 L-5.45 86.7 -4.95 85.2 -16.7 81.95 -27.45 74.95 -34.45 73.45 -42.2 70.45 -52.2 64.2 -56.95 58.7 -57.7 59.2 -57.7 61.2 -57.95 58.95 -54.4 55.4 -54.35 55.35 -53.3 53.8 -52.7 53.25 -51.95 52.1 -51.95 51.95 -50.65 51.1 -50.55 50.95 Q-49.25 48.1 -45.9 44.15 L-38.45 35.2 Q-35.2 30.6 -30.2 24.85 L-27.45 21.8 Q-25.3 20.6 -21.7 15.35 L-21.25 14.75 -21.2 14.8 Q-21.1 14.85 -21.1 15.25 -21.1 16.0 -22.4 17.95 L-23.7 19.55 Q-25.6 22.55 -34.5 33.25 L-41.3 41.3 -36.45 44.4 Q-26.85 49.9 -17.05 51.3 -25.35 64.15 -28.7 63.7 L-29.45 66.45 -18.45 73.45 -1.95 76.95 18.55 76.2 35.3 69.7 47.05 53.95 50.8 47.95 53.55 41.7 51.55 34.95 Q49.5 34.05 47.8 32.5 L48.35 32.95 Q51.05 30.75 55.0 26.45 63.55 17.1 63.55 11.6 L63.5 10.55 M8.5 18.05 Q15.9 26.2 22.8 26.2 32.05 26.2 36.55 17.7 L37.65 15.4 Q34.55 48.7 19.3 49.8 0.0 51.6 -1.55 3.6 L0.15 6.5 Q2.75 14.45 8.5 18.05" fill="#000000" fill-opacity="0.49803922" fill-rule="evenodd" stroke="none"/>
  </g>
</svg>
