<?xml version="1.0" encoding="UTF-8" standalone="no"?>
<svg xmlns:ffdec="https://www.free-decompiler.com/flash" xmlns:xlink="http://www.w3.org/1999/xlink" ffdec:objectType="shape" height="174.5px" width="222.0px" xmlns="http://www.w3.org/2000/svg">
  <g transform="matrix(1.0, 0.0, 0.0, 1.0, 56.95, 74.55)">
    <path d="M7.0 -8.25 Q7.5 -6.25 14.75 -6.5 L21.25 -9.5 27.75 -9.5 Q29.0 -9.5 32.0 -13.75 L36.25 -10.5 39.5 1.0 40.25 9.5 39.0 15.0 Q38.75 17.5 34.25 22.75 L27.5 25.75 Q15.25 30.5 3.0 13.0 -6.5 0.5 7.0 -8.25 M53.75 46.75 L55.5 44.75 Q67.5 52.75 55.25 72.75 35.5 94.0 22.5 82.25 L33.75 77.25 44.5 66.75 48.0 61.75 53.75 46.75 M-5.0 84.75 Q-4.4 89.0 -5.55 92.0 -10.0 103.6 -40.75 97.25 -46.05 95.0 -49.45 92.0 -60.9 82.1 -52.25 64.25 L-48.75 66.5 -48.25 67.0 -38.75 72.0 -33.5 74.0 -28.0 75.0 -16.0 82.5 -5.0 84.75" fill="#e58508" fill-rule="evenodd" stroke="none"/>
    <path d="M16.0 -12.75 L15.25 -12.75 14.25 -12.25 13.75 -11.75 13.0 -10.75 12.75 -9.25 14.0 -8.25 16.5 -8.25 Q18.5 -9.25 18.5 -11.25 L17.25 -12.5 16.75 -12.25 16.0 -12.75 M7.0 -8.25 L4.0 -12.0 3.75 -16.0 14.25 -20.0 19.25 -20.25 20.25 -20.0 21.0 -20.5 24.75 -22.25 32.75 -22.75 Q34.0 -20.5 33.25 -16.5 L32.0 -13.75 Q29.0 -9.5 27.75 -9.5 L21.25 -9.5 14.75 -6.5 Q7.5 -6.25 7.0 -8.25 M39.0 15.0 Q46.0 34.75 51.75 35.0 L53.75 40.75 Q54.5 42.75 53.75 46.75 L48.0 61.75 44.5 66.75 33.75 77.25 22.5 82.25 Q20.75 84.75 1.5 86.0 L-5.0 84.75 -16.0 82.5 -28.0 75.0 -30.75 68.25 Q-29.5 68.25 -28.5 64.0 L-23.5 61.25 -22.75 59.25 -18.5 55.0 -11.75 44.75 -7.25 36.75 -3.5 26.25 3.0 13.0 Q15.25 30.5 27.5 25.75 L34.25 22.75 Q38.75 17.5 39.0 15.0 M28.25 -15.5 L27.75 -15.5 26.0 -14.5 25.75 -14.25 Q23.75 -11.25 25.75 -10.75 L28.75 -11.25 30.0 -14.25 29.75 -15.25 28.75 -15.25 28.25 -15.5" fill="#ffffff" fill-rule="evenodd" stroke="none"/>
    <path d="M16.0 -12.75 L16.75 -12.25 17.25 -12.5 18.5 -11.25 Q18.5 -9.25 16.5 -8.25 L14.0 -8.25 12.75 -9.25 13.0 -10.75 13.75 -11.75 14.25 -12.25 15.25 -12.75 16.0 -12.75 M28.25 -15.5 L28.75 -15.25 29.75 -15.25 30.0 -14.25 28.75 -11.25 25.75 -10.75 Q23.75 -11.25 25.75 -14.25 L26.0 -14.5 27.75 -15.5 28.25 -15.5" fill="#000000" fill-rule="evenodd" stroke="none"/>
    <path d="M-49.5 91.95 Q-53.5 88.3 -55.2 82.95 -52.7 88.5 -46.8 91.95 -41.6 95.05 -33.7 96.45 -13.1 99.3 -7.25 91.95 -6.45 90.9 -5.95 89.7 L-4.95 85.2 -5.7 90.7 -6.05 91.95 Q-6.85 94.35 -8.45 95.95 L-15.7 99.2 -25.2 99.95 Q-41.75 99.1 -49.5 91.95 M7.45 17.55 Q14.85 25.95 23.4 25.95 33.1 25.95 37.65 17.55 34.35 49.15 19.5 50.2 0.1 52.0 -1.35 3.55 L0.55 7.4 Q2.8 14.05 7.45 17.55 M60.95 18.3 L63.8 11.95 64.8 4.45 Q67.3 28.7 55.55 44.7 L53.8 46.7 Q49.55 69.45 25.05 81.2 27.05 83.7 34.05 83.7 L43.05 80.7 Q58.05 72.2 61.05 60.45 59.3 73.2 41.55 83.95 33.05 87.7 28.55 86.45 L22.55 82.2 Q20.8 84.7 1.55 85.95 L-4.95 85.2 -15.95 82.45 -27.95 74.95 -33.45 73.95 -38.7 71.95 -48.2 66.95 -48.7 66.45 -52.2 64.2 -55.7 60.2 -56.65 60.45 -56.95 60.35 Q-51.7 57.45 -42.1 44.95 L-40.35 42.7 Q-37.55 38.1 -34.2 33.45 L-27.45 24.6 -23.85 18.5 -18.45 11.15 -18.7 12.2 -26.45 24.7 -28.1 26.5 Q-30.6 30.5 -34.6 35.95 L-38.45 41.2 -32.45 44.45 -28.65 45.85 -23.7 47.2 -14.45 48.45 Q-24.45 64.7 -28.45 63.95 L-29.2 66.7 -17.2 74.2 Q-2.45 79.45 19.3 76.45 L35.8 69.7 47.55 53.95 53.8 41.95 51.8 34.95 Q49.9 34.55 47.7 31.95 L48.1 31.65 Q52.5 28.4 54.4 26.35 L57.7 22.45 58.05 22.7 60.3 19.7 60.85 18.5 61.7 17.45 60.95 18.3 M80.55 -54.55 L80.3 -54.05 69.8 -37.55 60.05 -26.55 55.8 -23.55 54.8 -23.3 54.55 -24.3 Q60.3 -26.3 71.8 -42.3 L72.05 -42.55 73.05 -44.05 73.05 -44.3 73.55 -45.05 73.8 -45.55 75.8 -48.3 76.3 -48.8 78.3 -51.8 78.3 -52.05 86.8 -66.55 89.3 -69.55 92.4 -69.05 94.4 -69.1 98.55 -68.6 122.45 -69.3 135.15 -69.95 155.5 -71.1 Q158.05 -71.55 160.05 -72.3 161.4 -72.8 162.2 -73.35 L162.3 -74.55 165.05 -72.3 158.55 -70.05 141.8 -68.4 111.05 -66.8 95.3 -66.55 88.55 -67.8 83.05 -58.8 82.55 -57.8 82.55 -57.55 82.05 -56.8 81.05 -55.8 81.05 -55.3 80.55 -54.55" fill="#000000" fill-opacity="0.49803922" fill-rule="evenodd" stroke="none"/>
  </g>
</svg>
