<?xml version="1.0" encoding="UTF-8" standalone="no"?>
<svg xmlns:ffdec="https://www.free-decompiler.com/flash" xmlns:xlink="http://www.w3.org/1999/xlink" ffdec:objectType="shape" height="157.05px" width="194.0px" xmlns="http://www.w3.org/2000/svg">
  <g transform="matrix(1.0, 0.0, 0.0, 1.0, 95.75, 74.55)">
    <path d="M47.0 -32.5 L56.5 -24.75 70.25 -10.0 71.0 -9.0 71.5 -8.5 72.0 -7.75 73.0 -6.75 73.25 -6.25 75.75 -3.5 75.75 -3.25 77.25 -1.5 80.0 -0.25 Q85.5 5.25 86.0 8.5 L86.25 9.0 93.25 26.25 96.75 37.0 98.25 45.5 98.0 46.75 98.0 48.0 96.5 48.0 Q94.5 48.75 90.0 42.5 L75.75 23.0 72.25 17.5 63.0 11.25 Q65.0 16.5 64.75 24.5 L62.5 38.5 Q54.5 56.25 40.25 62.75 L30.5 73.0 Q18.5 81.25 1.5 82.5 L-13.0 80.5 -18.5 78.75 -32.75 71.25 -40.5 62.5 Q-54.0 55.5 -60.5 44.0 L-64.5 33.0 -65.25 17.25 -64.25 9.25 -72.25 14.5 -76.25 21.75 -78.5 24.25 -78.5 25.25 -88.25 39.0 -92.0 43.25 -94.0 43.75 -95.0 43.75 -95.25 43.0 -95.75 39.25 -87.25 11.25 -83.75 3.0 Q-78.75 -4.5 -77.0 -4.25 L-68.25 -14.5 -56.75 -26.25 -48.25 -33.25 -43.5 -35.5 Q-19.5 -70.25 -2.75 -74.0 9.75 -79.25 43.25 -34.25 L47.0 -32.5" fill="#2e47aa" fill-rule="evenodd" stroke="none"/>
  </g>
</svg>
