<?xml version="1.0" encoding="UTF-8" standalone="no"?>
<svg xmlns:ffdec="https://www.free-decompiler.com/flash" xmlns:xlink="http://www.w3.org/1999/xlink" ffdec:objectType="shape" height="156.5px" width="201.75px" xmlns="http://www.w3.org/2000/svg">
  <g transform="matrix(1.0, 0.0, 0.0, 1.0, 94.5, 74.0)">
    <path d="M43.25 -32.75 Q47.5 -32.25 55.75 -24.25 L71.25 -8.5 80.5 2.25 82.0 2.5 84.0 4.25 89.75 10.5 96.75 24.0 104.0 41.5 107.25 53.0 107.25 56.25 103.25 55.25 84.25 35.0 74.25 21.25 63.75 14.25 Q71.0 48.75 38.25 65.0 L28.25 74.5 Q16.0 82.0 -1.25 82.5 L-14.5 80.0 -21.0 78.0 -34.5 70.0 -42.5 60.0 -53.0 52.0 -60.5 41.75 -64.25 30.25 -64.75 18.5 -63.25 5.5 -67.0 7.75 -67.5 8.0 -68.25 8.5 -68.5 8.75 -72.0 10.75 Q-88.25 38.75 -93.5 39.25 L-94.5 38.5 Q-90.75 8.5 -76.0 -7.5 L-56.25 -28.25 -47.0 -35.25 -43.25 -37.25 Q-17.5 -73.0 -0.75 -74.0 17.75 -71.25 43.25 -32.75" fill="#2e47aa" fill-rule="evenodd" stroke="none"/>
  </g>
</svg>
