<?xml version="1.0" encoding="UTF-8" standalone="no"?>
<svg xmlns:ffdec="https://www.free-decompiler.com/flash" xmlns:xlink="http://www.w3.org/1999/xlink" ffdec:objectType="shape" height="156.4px" width="211.0px" xmlns="http://www.w3.org/2000/svg">
  <g transform="matrix(1.0, 0.0, 0.0, 1.0, 93.25, 74.05)">
    <path d="M48.75 -27.75 L56.25 -21.75 72.75 -5.0 77.25 0.25 78.25 1.25 78.75 2.0 79.25 2.5 84.5 8.75 88.5 10.25 95.5 18.25 96.0 19.0 106.0 37.0 113.0 53.0 117.5 66.5 117.75 71.0 113.0 69.25 105.75 62.0 104.75 60.75 83.25 37.5 77.75 30.0 76.5 27.0 64.75 19.0 64.5 19.0 65.0 35.5 Q62.25 48.75 58.25 51.0 L57.75 51.75 Q47.75 65.25 35.25 68.0 L25.75 76.0 Q10.25 83.25 -5.5 82.25 L-24.5 76.5 -37.25 67.75 -45.0 56.0 -47.5 54.5 -53.5 48.5 -60.75 37.0 -64.0 21.5 -63.75 13.5 -62.0 0.75 -62.65 1.0 -62.75 1.0 -71.5 6.0 -76.5 14.25 -87.75 30.25 Q-90.5 34.0 -92.75 32.5 L-93.25 28.25 -89.75 16.75 -83.25 -0.25 -79.75 -6.75 Q-76.0 -12.25 -74.5 -12.0 L-74.5 -11.75 -75.5 -10.5 -61.25 -25.5 -55.25 -31.0 -45.75 -38.0 -43.75 -39.0 -43.0 -39.25 -42.75 -39.25 Q-17.0 -74.25 0.5 -74.0 12.0 -75.75 44.25 -30.0 L48.75 -27.75" fill="#2e47aa" fill-rule="evenodd" stroke="none"/>
  </g>
</svg>
