<?xml version="1.0" encoding="UTF-8" standalone="no"?>
<svg xmlns:ffdec="https://www.free-decompiler.com/flash" xmlns:xlink="http://www.w3.org/1999/xlink" ffdec:objectType="shape" height="166.05px" width="214.0px" xmlns="http://www.w3.org/2000/svg">
  <g transform="matrix(1.0, 0.0, 0.0, 1.0, 90.75, 74.3)">
    <path d="M63.75 -11.5 L78.25 4.0 85.5 13.75 86.0 14.25 87.25 16.0 87.5 16.5 87.75 17.25 Q102.0 18.25 123.0 85.0 L123.25 91.75 118.75 89.0 117.5 88.5 108.75 78.0 108.25 77.5 108.0 77.0 107.25 76.25 107.25 76.0 105.0 73.5 104.75 73.0 104.0 72.25 104.0 72.0 87.5 51.0 87.5 50.75 86.75 50.0 86.5 49.5 86.0 49.0 81.5 42.25 81.5 42.0 81.0 41.5 80.75 41.0 78.25 37.0 77.5 35.25 77.25 34.25 64.75 25.25 Q70.75 59.0 30.75 71.5 L21.25 78.0 Q5.75 83.5 -9.0 81.75 L-29.0 74.25 -40.5 64.5 -46.75 51.75 -47.25 51.5 Q-68.5 36.0 -60.0 -4.75 L-69.5 0.25 -70.5 1.75 -71.0 2.75 -83.75 21.25 Q-88.25 28.0 -90.75 24.25 -81.0 -14.75 -72.25 -17.0 L-71.75 -17.25 -55.25 -33.0 -47.25 -39.0 -42.25 -41.75 -41.5 -42.0 Q-21.25 -70.25 -1.25 -74.25 12.5 -75.75 45.0 -26.75 L51.5 -22.75 63.75 -11.5" fill="#2e47aa" fill-rule="evenodd" stroke="none"/>
  </g>
</svg>
