<?xml version="1.0" encoding="UTF-8" standalone="no"?>
<svg xmlns:ffdec="https://www.free-decompiler.com/flash" xmlns:xlink="http://www.w3.org/1999/xlink" ffdec:objectType="shape" height="188.0px" width="204.75px" xmlns="http://www.w3.org/2000/svg">
  <g transform="matrix(1.0, 0.0, 0.0, 1.0, 87.25, 74.0)">
    <path d="M62.25 -8.75 L74.75 5.5 85.25 19.5 85.75 20.0 86.0 20.5 89.0 24.5 89.0 25.0 89.25 25.0 89.5 25.5 90.0 27.75 Q106.5 30.75 117.5 106.75 L116.5 114.0 111.25 109.5 102.5 95.5 101.5 93.5 101.25 93.25 99.75 90.5 99.75 90.25 96.5 84.75 96.5 84.5 84.5 62.5 84.0 61.75 82.0 57.5 81.75 57.25 81.5 56.5 78.5 50.25 75.75 43.25 75.25 41.5 65.0 33.0 65.0 39.25 63.0 49.5 57.5 59.0 Q43.75 73.25 26.95 74.45 L25.75 74.5 16.25 79.75 Q1.75 83.75 -15.0 80.5 L-33.25 71.5 -43.75 60.5 -48.75 46.75 Q-66.75 30.5 -58.0 -10.0 L-66.5 -5.75 -79.25 13.0 Q-84.25 20.0 -87.25 16.75 -79.0 -17.25 -70.0 -21.25 L-65.0 -26.5 -53.5 -36.25 -48.0 -40.25 -39.75 -44.75 Q-20.5 -72.75 0.5 -74.0 17.0 -70.25 45.25 -23.0 L50.0 -20.0 62.25 -8.75" fill="#2e47aa" fill-rule="evenodd" stroke="none"/>
  </g>
</svg>
