<?xml version="1.0" encoding="UTF-8" standalone="no"?>
<svg xmlns:ffdec="https://www.free-decompiler.com/flash" xmlns:xlink="http://www.w3.org/1999/xlink" ffdec:objectType="shape" height="205.3px" width="185.0px" xmlns="http://www.w3.org/2000/svg">
  <g transform="matrix(1.0, 0.0, 0.0, 1.0, 83.25, 74.55)">
    <path d="M63.5 -2.0 L79.75 19.25 88.75 33.5 89.0 34.0 89.25 34.25 90.25 38.25 Q91.75 37.75 96.0 44.0 L100.5 57.25 101.75 82.25 100.0 106.75 97.25 123.5 94.25 130.75 90.0 124.0 84.5 107.25 84.25 106.25 84.25 105.5 84.0 105.25 81.75 96.5 81.75 96.25 80.25 91.5 80.25 90.75 80.0 90.5 79.25 87.5 79.25 87.25 79.0 86.5 79.0 86.25 78.75 85.5 78.75 85.25 76.5 76.5 76.25 75.75 73.5 64.0 73.5 63.25 73.0 62.0 73.0 61.25 72.75 60.5 72.75 60.25 72.5 59.25 72.5 58.25 72.25 57.75 72.25 56.0 72.0 55.0 72.0 53.75 71.75 53.0 71.75 52.25 71.5 51.25 71.0 47.75 71.0 47.5 64.25 41.25 64.25 44.25 61.25 55.25 56.5 61.75 Q39.5 78.25 21.0 76.75 L11.25 81.0 Q-7.25 83.75 -19.0 79.25 L-36.75 68.75 Q-49.0 57.0 -50.5 40.75 L-51.0 40.0 Q-64.75 20.25 -55.75 -14.75 L-62.75 -11.5 -73.0 3.5 -79.5 10.75 -81.75 11.5 -83.25 10.0 Q-76.25 -19.75 -69.5 -22.75 L-69.0 -23.5 -57.5 -34.5 -49.75 -40.5 -38.75 -47.0 Q-21.0 -71.25 -1.25 -74.5 12.0 -76.25 46.5 -18.25 L52.5 -13.25 63.5 -2.0" fill="#2e47aa" fill-rule="evenodd" stroke="none"/>
  </g>
</svg>
