<?xml version="1.0" encoding="UTF-8" standalone="no"?>
<svg xmlns:ffdec="https://www.free-decompiler.com/flash" xmlns:xlink="http://www.w3.org/1999/xlink" ffdec:objectType="shape" height="209.25px" width="172.5px" xmlns="http://www.w3.org/2000/svg">
  <g transform="matrix(1.0, 0.0, 0.0, 1.0, 79.25, 74.5)">
    <path d="M50.75 -11.0 L62.75 3.0 75.5 21.25 80.75 30.5 81.25 31.25 81.5 31.5 81.5 31.75 86.0 38.5 87.0 41.25 87.0 41.5 88.5 47.5 91.25 51.75 93.25 57.25 93.0 58.0 92.5 71.0 85.75 92.75 84.75 94.75 84.75 95.0 84.5 95.75 83.5 97.75 83.25 98.0 76.25 113.25 67.25 129.0 61.5 134.75 59.5 126.75 60.0 102.75 60.25 102.0 60.25 98.75 60.5 97.75 60.5 94.75 60.75 93.5 60.75 91.0 61.0 89.25 62.5 67.75 65.0 53.0 65.25 52.25 65.25 51.5 62.75 49.5 Q61.75 63.5 44.75 73.5 L34.0 77.0 26.25 78.25 17.5 78.0 Q-8.75 85.75 -26.0 76.0 L-40.0 65.5 -47.5 53.75 -50.25 45.0 -51.5 35.5 -51.75 35.25 -55.75 24.75 -57.25 17.0 -57.5 3.0 -56.75 -4.25 -53.75 -18.25 -59.0 -16.25 -65.0 -6.75 -70.25 -0.75 -74.75 5.25 Q-78.5 7.25 -79.25 4.75 L-76.25 -8.0 Q-72.75 -20.5 -70.5 -21.0 L-68.25 -24.25 -67.75 -24.75 -67.5 -25.25 -61.0 -31.75 -51.5 -40.0 -37.25 -48.75 Q-22.5 -71.0 -0.75 -74.5 12.5 -75.25 47.25 -14.0 L50.75 -11.0" fill="#2e47aa" fill-rule="evenodd" stroke="none"/>
  </g>
</svg>
