<?xml version="1.0" encoding="UTF-8" standalone="no"?>
<svg xmlns:ffdec="https://www.free-decompiler.com/flash" xmlns:xlink="http://www.w3.org/1999/xlink" ffdec:objectType="shape" height="201.15px" width="163.3px" xmlns="http://www.w3.org/2000/svg">
  <g transform="matrix(1.0, 0.0, 0.0, 1.0, 75.8, 74.9)">
    <path d="M-47.0 -43.75 L-36.75 -49.5 Q-13.5 -78.0 -0.5 -74.5 13.0 -75.0 48.0 -10.5 L61.25 5.75 72.0 22.5 78.75 35.0 79.0 35.25 79.0 35.5 82.0 40.25 84.5 46.25 85.75 54.5 87.0 56.75 87.5 65.25 82.5 77.5 81.0 79.25 80.75 79.75 80.25 80.5 68.0 96.5 50.5 112.5 37.25 123.0 29.5 126.25 30.25 118.0 49.0 71.75 Q37.8 80.95 14.55 79.05 L14.25 79.0 4.0 82.0 -11.25 81.0 -19.25 78.75 -29.25 74.25 Q-53.0 55.75 -51.75 32.0 L-52.0 31.25 -53.25 28.75 -56.25 15.5 -56.0 -1.5 -55.25 -8.0 -52.25 -20.5 -56.25 -19.25 Q-70.25 3.5 -75.75 2.5 -76.5 -9.0 -67.5 -24.5 L-66.5 -26.0 -65.75 -26.75 -65.75 -27.0 -61.75 -31.5 -54.5 -38.25 -47.0 -43.75" fill="#2e47aa" fill-rule="evenodd" stroke="none"/>
  </g>
</svg>
