<?xml version="1.0" encoding="UTF-8" standalone="no"?>
<svg xmlns:ffdec="https://www.free-decompiler.com/flash" xmlns:xlink="http://www.w3.org/1999/xlink" ffdec:objectType="shape" height="185.6px" width="159.55px" xmlns="http://www.w3.org/2000/svg">
  <g transform="matrix(1.0, 0.0, 0.0, 1.0, 75.3, 74.35)">
    <path d="M48.25 -9.0 L62.25 9.25 71.5 24.0 77.5 35.75 81.5 42.5 83.0 46.75 84.25 53.75 84.25 55.5 83.25 56.25 Q91.5 80.0 16.75 110.25 L8.25 111.25 10.75 103.75 29.5 79.25 22.0 80.0 13.55 79.3 13.25 79.25 Q-12.5 85.0 -29.25 74.25 -49.5 62.75 -51.75 30.75 L-52.0 30.25 -52.0 30.0 -53.5 26.5 -56.0 13.5 -55.5 -2.25 -54.75 -8.75 -51.75 -21.5 -55.25 -20.25 -59.25 -14.0 Q-84.75 19.5 -69.75 -20.25 L-69.25 -22.0 -66.0 -26.25 -65.5 -26.75 -65.0 -27.5 -60.75 -32.5 -47.5 -43.5 -36.5 -50.0 Q-17.0 -76.0 0.25 -74.25 13.5 -74.25 48.25 -9.0" fill="#2e47aa" fill-rule="evenodd" stroke="none"/>
  </g>
</svg>
