<?xml version="1.0" encoding="UTF-8" standalone="no"?>
<svg xmlns:ffdec="https://www.free-decompiler.com/flash" xmlns:xlink="http://www.w3.org/1999/xlink" ffdec:objectType="shape" height="172.25px" width="160.0px" xmlns="http://www.w3.org/2000/svg">
  <g transform="matrix(1.0, 0.0, 0.0, 1.0, 75.25, 74.5)">
    <path d="M-0.5 -74.5 Q13.25 -74.75 48.0 -9.75 L60.5 5.25 70.25 20.0 78.0 34.0 82.75 41.75 83.5 44.25 84.75 53.0 83.25 54.5 Q87.5 80.0 7.0 97.75 L-2.0 97.5 1.75 90.75 14.0 79.25 13.75 79.0 3.25 82.0 -13.0 80.75 -20.0 78.5 -29.25 74.25 -40.75 64.5 -43.25 61.0 Q-53.0 45.25 -51.75 31.0 L-53.25 27.75 -56.0 14.75 -55.0 -8.0 -51.75 -21.25 -52.0 -21.25 -55.5 -20.0 -63.25 -8.75 -70.75 0.75 Q-72.5 3.0 -75.25 1.0 -73.75 -16.0 -66.25 -26.0 L-65.75 -26.5 -65.25 -27.25 -65.0 -27.75 -61.0 -32.25 -54.0 -38.75 -45.75 -44.75 -36.5 -49.75 Q-18.5 -74.5 -0.5 -74.5" fill="#2e47aa" fill-rule="evenodd" stroke="none"/>
  </g>
</svg>
