<?xml version="1.0" encoding="UTF-8" standalone="no"?>
<svg xmlns:ffdec="https://www.free-decompiler.com/flash" xmlns:xlink="http://www.w3.org/1999/xlink" ffdec:objectType="shape" height="163.9px" width="162.75px" xmlns="http://www.w3.org/2000/svg">
  <g transform="matrix(1.0, 0.0, 0.0, 1.0, 76.0, 74.9)">
    <path d="M-45.25 -45.0 L-37.0 -49.5 Q-13.25 -78.0 -0.5 -74.5 13.0 -75.0 47.5 -11.25 L60.5 2.5 71.75 17.75 85.0 39.75 85.25 40.0 86.75 47.5 85.25 50.25 Q88.75 63.0 70.25 70.75 L49.75 79.5 24.75 85.75 5.75 89.0 -3.5 88.25 0.5 81.75 Q-26.75 81.25 -41.25 64.25 L-48.25 51.75 Q-52.0 43.75 -51.75 32.25 L-52.0 31.5 -53.5 28.0 -56.25 15.75 -56.0 -1.25 -55.25 -8.5 -52.5 -20.5 -56.5 -19.0 Q-69.0 2.0 -75.75 2.75 -77.5 -5.75 -67.5 -24.5 L-61.75 -31.5 -51.75 -40.25 -45.25 -45.0" fill="#2e47aa" fill-rule="evenodd" stroke="none"/>
  </g>
</svg>
