<?xml version="1.0" encoding="UTF-8" standalone="no"?>
<svg xmlns:ffdec="https://www.free-decompiler.com/flash" xmlns:xlink="http://www.w3.org/1999/xlink" ffdec:objectType="shape" height="156.5px" width="169.4px" xmlns="http://www.w3.org/2000/svg">
  <g transform="matrix(1.0, 0.0, 0.0, 1.0, 78.0, 74.75)">
    <path d="M59.25 -4.5 L73.5 9.75 89.5 28.0 Q92.75 35.5 90.5 36.75 92.5 38.0 88.75 46.75 L77.5 53.5 76.5 54.0 69.0 56.75 68.5 56.75 64.75 58.0 64.25 58.25 64.0 58.25 59.25 60.0 Q49.25 80.2 16.1 78.5 L16.0 78.5 6.0 81.75 -9.75 81.25 -19.5 78.75 -27.5 75.25 Q-50.0 61.0 -51.5 34.25 L-52.0 33.5 -52.0 33.0 -54.25 27.5 -56.75 16.5 -56.75 0.25 -56.0 -6.5 -53.0 -19.5 -57.75 -17.5 -63.25 -8.75 -68.75 -2.25 Q-74.25 7.5 -78.0 2.75 L-74.5 -11.0 Q-71.75 -21.25 -69.0 -22.75 L-67.0 -25.75 -66.25 -26.5 -65.25 -27.75 -52.5 -39.5 -46.75 -43.75 -37.0 -49.25 Q-14.25 -77.25 -0.75 -74.5 12.5 -75.25 46.5 -14.25 L59.25 -4.5" fill="#2e47aa" fill-rule="evenodd" stroke="none"/>
  </g>
</svg>
