<?xml version="1.0" encoding="UTF-8" standalone="no"?>
<svg xmlns:ffdec="https://www.free-decompiler.com/flash" xmlns:xlink="http://www.w3.org/1999/xlink" ffdec:objectType="shape" height="156.05px" width="176.35px" xmlns="http://www.w3.org/2000/svg">
  <g transform="matrix(1.0, 0.0, 0.0, 1.0, 79.75, 74.55)">
    <path d="M60.0 -7.0 L77.0 8.0 92.5 23.5 Q96.5 30.75 95.25 32.25 101.25 44.0 80.75 53.0 L75.75 55.25 75.5 55.25 74.75 55.5 73.25 56.25 72.5 56.5 72.0 56.75 71.75 57.0 71.5 57.0 Q68.15 58.65 64.75 60.25 L57.5 62.25 53.5 67.25 45.0 73.25 37.0 76.25 27.25 78.0 17.5 78.0 7.75 81.5 -8.75 81.5 -19.0 79.0 -26.0 76.0 -38.75 66.75 -46.75 55.0 -50.0 46.0 -51.25 36.25 -51.75 35.75 Q-62.75 13.0 -54.0 -18.0 L-59.5 -15.75 -61.5 -12.75 -62.0 -12.25 -65.0 -6.75 -68.0 -3.75 -69.5 -1.5 -75.5 6.0 Q-78.5 7.75 -79.75 5.25 L-77.0 -6.25 -73.75 -15.75 -68.5 -24.0 -67.75 -24.75 -67.0 -25.75 -57.25 -35.5 -48.75 -42.0 -37.5 -48.5 Q-22.75 -70.5 -1.0 -74.5 12.25 -75.75 46.25 -16.25 L60.0 -7.0" fill="#2e47aa" fill-rule="evenodd" stroke="none"/>
  </g>
</svg>
