<?xml version="1.0" encoding="UTF-8" standalone="no"?>
<svg xmlns:ffdec="https://www.free-decompiler.com/flash" xmlns:xlink="http://www.w3.org/1999/xlink" ffdec:objectType="shape" height="156.3px" width="184.4px" xmlns="http://www.w3.org/2000/svg">
  <g transform="matrix(1.0, 0.0, 0.0, 1.0, 81.75, 74.55)">
    <path d="M62.25 -8.5 L79.25 5.0 86.25 11.25 87.0 11.75 96.75 20.75 Q100.75 27.25 100.25 28.5 110.25 40.0 79.0 58.25 L63.25 65.75 63.0 66.0 60.25 67.25 41.5 74.0 41.0 74.25 40.25 74.5 38.75 74.5 38.25 74.75 37.75 74.75 28.25 77.0 19.75 77.25 10.5 81.0 -7.25 81.75 -19.0 79.25 -24.0 77.0 Q-49.5 62.0 -51.0 38.5 -64.5 11.75 -55.0 -16.25 L-61.5 -13.25 -70.0 -1.0 Q-77.0 11.5 -81.75 8.0 L-78.5 -5.0 -75.0 -14.75 -73.5 -17.0 -72.75 -19.0 -69.75 -22.5 -69.25 -22.75 -68.75 -23.75 -68.5 -23.75 -59.5 -33.25 -49.25 -41.25 -38.0 -47.75 Q-19.5 -73.0 -1.0 -74.5 12.0 -76.0 45.75 -18.5 L50.5 -16.25 62.25 -8.5 M61.5 22.0 L62.75 25.5 63.25 30.5 66.0 28.0 67.75 26.0 67.75 25.75 61.5 22.0" fill="#2e47aa" fill-rule="evenodd" stroke="none"/>
  </g>
</svg>
