<?xml version="1.0" encoding="UTF-8" standalone="no"?>
<svg xmlns:ffdec="https://www.free-decompiler.com/flash" xmlns:xlink="http://www.w3.org/1999/xlink" ffdec:objectType="shape" height="156.15px" width="191.6px" xmlns="http://www.w3.org/2000/svg">
  <g transform="matrix(1.0, 0.0, 0.0, 1.0, 84.0, 74.25)">
    <path d="M62.0 -11.75 L83.25 3.5 83.75 4.0 90.0 9.0 90.5 9.5 91.25 10.0 99.0 16.0 Q101.0 17.0 104.0 23.75 120.25 44.5 63.25 78.25 60.75 80.0 55.25 80.5 L54.75 74.0 66.0 43.75 74.75 25.75 61.5 18.25 Q69.5 47.0 57.0 60.75 40.25 78.0 22.25 76.25 L12.25 80.75 Q-7.75 83.5 -17.75 79.75 L-22.5 77.5 -37.0 68.25 -45.25 58.0 -50.25 41.75 -50.75 41.25 -50.75 41.0 Q-65.0 21.75 -56.25 -14.0 L-63.5 -10.5 -69.75 -1.25 -80.0 11.75 Q-82.5 13.5 -84.0 11.0 -77.75 -16.25 -69.5 -22.75 L-62.0 -30.5 -51.5 -39.0 -38.5 -46.75 Q-19.0 -73.5 -0.5 -74.25 16.5 -70.75 45.5 -20.5 L49.5 -19.0 62.0 -11.75" fill="#2e47aa" fill-rule="evenodd" stroke="none"/>
  </g>
</svg>
