<?xml version="1.0" encoding="UTF-8" standalone="no"?>
<svg xmlns:ffdec="https://www.free-decompiler.com/flash" xmlns:xlink="http://www.w3.org/1999/xlink" ffdec:objectType="shape" height="159.75px" width="200.7px" xmlns="http://www.w3.org/2000/svg">
  <g transform="matrix(1.0, 0.0, 0.0, 1.0, 86.0, 74.25)">
    <path d="M61.75 -14.75 L84.75 0.25 85.25 0.75 92.5 6.0 93.0 6.5 93.5 6.75 94.0 7.25 94.5 7.5 102.5 13.25 107.0 19.5 Q129.0 33.0 88.0 82.0 L81.75 85.5 Q79.0 81.75 79.0 78.75 L79.0 55.0 79.25 54.5 79.5 43.5 80.75 29.75 82.0 25.25 81.75 25.25 80.25 24.25 61.75 14.75 Q70.0 45.0 57.25 60.25 41.75 75.25 24.25 75.25 L14.5 80.25 Q-0.25 83.5 -15.25 80.5 -24.75 75.65 -34.25 70.75 L-44.5 59.25 -49.25 45.0 Q-66.75 25.5 -57.25 -11.5 L-65.0 -7.75 -75.0 6.0 -77.75 10.5 -83.0 16.0 -85.25 16.0 -86.0 13.25 Q-76.75 -21.0 -68.5 -23.25 L-55.0 -35.5 -50.5 -39.0 -39.5 -45.5 Q-21.5 -71.25 -0.75 -74.25 15.75 -71.75 45.25 -22.5 L50.75 -20.75 61.75 -14.75" fill="#2e47aa" fill-rule="evenodd" stroke="none"/>
  </g>
</svg>
