<?xml version="1.0" encoding="UTF-8" standalone="no"?>
<svg xmlns:ffdec="https://www.free-decompiler.com/flash" xmlns:xlink="http://www.w3.org/1999/xlink" ffdec:objectType="shape" height="162.5px" width="209.75px" xmlns="http://www.w3.org/2000/svg">
  <g transform="matrix(1.0, 0.0, 0.0, 1.0, 88.25, 74.25)">
    <path d="M64.5 -16.0 L86.75 -2.25 94.25 3.0 94.75 3.25 95.25 3.75 96.0 4.25 96.5 4.5 105.75 11.0 109.0 15.5 110.5 16.0 117.25 22.0 120.75 30.5 121.5 34.75 121.25 53.0 117.75 69.25 113.25 83.0 109.25 88.25 Q103.25 83.5 104.25 82.0 L97.75 64.0 97.75 63.25 97.5 63.0 94.75 53.5 94.75 53.25 93.0 48.0 93.0 47.5 88.75 31.0 88.0 24.25 82.25 21.5 81.5 21.25 61.75 11.75 Q77.8 61.15 28.5 73.45 L27.25 73.75 17.0 79.5 Q2.25 83.5 -12.5 81.25 L-32.25 72.25 Q-44.75 63.75 -48.25 48.0 L-48.5 47.75 Q-67.5 29.75 -58.5 -8.75 L-67.25 -4.5 -80.0 14.5 -85.0 19.75 -87.25 19.75 -88.25 18.25 Q-80.0 -15.75 -70.0 -20.75 L-61.5 -29.25 -53.0 -36.25 -41.5 -43.75 -40.75 -44.0 -40.25 -44.25 Q-22.0 -70.25 -0.75 -74.25 14.0 -73.75 44.75 -24.75 L51.0 -22.75 64.5 -16.0" fill="#2e47aa" fill-rule="evenodd" stroke="none"/>
  </g>
</svg>
