<?xml version="1.0" encoding="UTF-8" standalone="no"?>
<svg xmlns:ffdec="https://www.free-decompiler.com/flash" xmlns:xlink="http://www.w3.org/1999/xlink" ffdec:objectType="shape" height="162.1px" width="225.35px" xmlns="http://www.w3.org/2000/svg">
  <g transform="matrix(1.0, 0.0, 0.0, 1.0, 89.85, 74.35)">
    <path d="M61.75 -19.75 L86.25 -5.75 87.0 -5.25 87.5 -5.0 95.75 0.5 96.25 0.75 105.5 6.75 109.5 11.5 117.0 15.25 125.75 27.0 132.0 46.5 134.75 64.75 135.5 80.75 133.5 87.75 127.5 83.0 117.25 67.75 116.75 66.75 116.5 66.5 115.0 64.0 115.0 63.75 114.0 62.5 112.75 60.25 112.5 60.0 111.75 58.75 111.75 58.5 100.25 39.0 100.25 38.75 100.0 38.5 99.5 37.75 99.0 36.75 98.5 36.0 96.75 32.75 96.75 32.5 95.25 29.75 95.25 29.5 95.0 29.0 95.0 28.75 94.75 28.5 94.5 27.5 94.5 27.25 93.5 25.0 92.0 22.75 91.0 22.25 90.75 22.25 61.5 9.0 Q75.45 64.0 29.9 72.2 L29.5 72.25 20.0 78.5 Q3.0 83.75 -10.0 81.75 L-29.75 73.75 Q-44.5 64.0 -47.25 50.75 L-47.5 50.5 Q-68.5 33.0 -59.5 -6.0 L-68.75 -1.25 -80.25 15.5 -86.75 23.75 Q-90.5 25.5 -89.75 19.5 L-81.0 -5.75 Q-78.75 -12.0 -71.5 -18.25 L-57.25 -31.75 -52.75 -35.5 -41.75 -42.5 -41.0 -42.75 Q-22.5 -69.5 -1.25 -74.25 11.75 -76.25 44.5 -26.75 L51.25 -24.75 61.75 -19.75" fill="#2e47aa" fill-rule="evenodd" stroke="none"/>
  </g>
</svg>
