<?xml version="1.0" encoding="UTF-8" standalone="no"?>
<svg xmlns:ffdec="https://www.free-decompiler.com/flash" xmlns:xlink="http://www.w3.org/1999/xlink" ffdec:objectType="shape" height="158.0px" width="243.5px" xmlns="http://www.w3.org/2000/svg">
  <g transform="matrix(1.0, 0.0, 0.0, 1.0, 91.5, 74.25)">
    <path d="M44.25 -28.5 L51.25 -26.75 64.25 -20.75 86.75 -8.0 96.0 -2.0 97.0 -1.5 105.75 4.25 107.75 6.25 108.0 6.75 108.75 7.5 108.75 7.75 Q127.25 5.5 151.75 76.25 L152.0 83.75 145.0 80.0 130.75 64.75 130.5 64.25 128.5 62.25 127.75 61.25 126.5 60.0 126.5 59.75 116.25 48.75 102.0 31.5 94.75 21.0 61.0 6.5 Q75.65 60.2 32.75 70.4 L32.25 70.5 22.5 77.5 Q6.25 83.75 -8.25 82.0 L-27.25 75.25 Q-42.25 66.5 -46.25 53.25 L-46.5 53.0 Q-69.5 35.5 -60.5 -3.25 L-70.25 2.0 -77.5 13.5 -78.5 14.5 -88.25 27.5 Q-91.75 29.75 -91.5 23.75 L-82.75 -2.0 Q-82.25 -7.25 -72.75 -15.75 L-72.0 -16.25 -59.75 -28.5 -52.5 -34.75 -43.75 -40.5 -42.75 -41.0 -42.5 -41.0 -41.75 -41.25 Q-22.5 -69.25 -1.5 -74.25 13.0 -75.25 44.25 -28.5" fill="#2e47aa" fill-rule="evenodd" stroke="none"/>
  </g>
</svg>
