<?xml version="1.0" encoding="UTF-8" standalone="no"?>
<svg xmlns:ffdec="https://www.free-decompiler.com/flash" xmlns:xlink="http://www.w3.org/1999/xlink" ffdec:objectType="shape" height="156.55px" width="255.05px" xmlns="http://www.w3.org/2000/svg">
  <g transform="matrix(1.0, 0.0, 0.0, 1.0, 93.05, 74.1)">
    <path d="M63.75 -22.75 L85.5 -10.5 93.25 -5.5 94.25 -5.0 94.75 -4.5 95.25 -4.25 104.25 1.75 106.75 4.0 Q122.75 1.5 160.5 69.75 L162.0 77.25 154.75 74.25 141.25 62.75 140.75 62.25 123.75 47.5 106.5 31.25 96.5 20.0 96.0 19.25 61.0 4.75 Q75.5 57.2 34.85 68.5 L34.75 68.5 34.25 68.75 24.75 76.5 Q7.25 83.5 -5.5 82.25 L-25.25 76.25 -37.75 67.25 -45.5 55.25 -54.25 47.0 -60.75 36.0 -63.75 21.5 -63.5 11.5 -61.5 -0.25 -63.75 0.75 -71.25 5.0 -74.0 9.75 -86.75 28.25 Q-90.25 33.0 -92.0 31.5 L-92.5 31.0 Q-94.0 28.75 -91.5 22.25 L-81.5 -4.75 -77.0 -10.5 -72.5 -14.25 -66.75 -20.75 -56.5 -30.25 -45.0 -38.75 -43.5 -39.5 -42.75 -39.75 -42.5 -39.75 Q-19.5 -72.0 0.25 -74.0 11.0 -76.25 43.75 -30.25 L50.5 -28.75 63.75 -22.75" fill="#2e47aa" fill-rule="evenodd" stroke="none"/>
  </g>
</svg>
