<?xml version="1.0" encoding="UTF-8" standalone="no"?>
<svg xmlns:ffdec="https://www.free-decompiler.com/flash" xmlns:xlink="http://www.w3.org/1999/xlink" ffdec:objectType="shape" height="156.55px" width="257.65px" xmlns="http://www.w3.org/2000/svg">
  <g transform="matrix(1.0, 0.0, 0.0, 1.0, 93.9, 74.0)">
    <path d="M61.75 -25.0 L83.75 -12.5 100.25 -2.0 103.25 1.0 109.75 2.75 110.25 3.0 120.5 10.0 138.0 29.25 152.25 48.5 161.5 62.5 163.75 69.5 156.5 67.0 141.75 56.25 141.0 55.5 140.75 55.5 139.75 54.75 139.25 54.25 138.75 54.0 105.0 27.5 97.0 19.5 96.0 18.75 95.5 17.75 61.25 3.5 Q75.75 53.25 36.25 67.0 L27.25 75.25 Q11.0 83.0 -3.25 82.5 L-23.0 77.25 -36.5 68.5 -43.75 57.75 -45.75 56.75 -53.0 50.0 -60.5 39.25 -64.0 27.0 -64.25 18.25 -62.5 2.5 -71.25 7.5 -71.5 7.75 Q-87.75 35.0 -93.0 35.25 L-93.5 34.75 Q-96.25 29.25 -80.5 -4.75 L-76.5 -9.75 -74.75 -10.5 -61.5 -24.5 -55.0 -30.5 -46.25 -37.0 -45.25 -37.5 -43.25 -38.25 Q-20.75 -70.75 0.25 -74.0 13.75 -74.25 43.0 -31.75 L49.25 -30.5 61.75 -25.0" fill="#2e47aa" fill-rule="evenodd" stroke="none"/>
  </g>
</svg>
