<?xml version="1.0" encoding="UTF-8" standalone="no"?>
<svg xmlns:ffdec="https://www.free-decompiler.com/flash" xmlns:xlink="http://www.w3.org/1999/xlink" ffdec:objectType="shape" height="156.7px" width="252.75px" xmlns="http://www.w3.org/2000/svg">
  <g transform="matrix(1.0, 0.0, 0.0, 1.0, 94.5, 74.2)">
    <path d="M43.0 -33.0 L50.5 -31.25 61.25 -26.0 81.75 -13.75 88.75 -9.0 90.0 -8.0 90.5 -7.75 99.25 -1.5 Q113.0 -4.0 156.0 55.5 L158.25 62.0 152.25 60.25 138.25 51.0 137.75 50.5 137.5 50.5 136.75 50.0 136.5 49.75 136.0 49.5 135.5 49.0 135.0 48.75 103.5 26.0 93.5 16.75 93.25 16.0 61.25 2.75 Q75.45 49.1 38.05 65.4 L37.75 65.5 29.25 74.0 Q13.75 82.75 -1.75 82.5 L-20.5 78.25 -35.0 69.75 -42.75 59.5 -46.25 57.5 -53.75 51.0 -60.75 40.75 -64.5 27.0 -64.5 14.75 -63.5 5.25 -67.0 7.25 -67.25 7.25 -68.0 7.75 -68.5 8.25 -70.5 9.5 -71.0 9.75 -71.75 10.25 -86.75 33.0 Q-91.5 39.75 -93.5 38.5 L-94.5 37.75 Q-85.0 -6.5 -75.75 -8.0 L-66.25 -18.75 -56.5 -28.25 -47.0 -35.5 -43.75 -37.25 Q-18.0 -72.5 -0.5 -74.0 10.5 -77.25 43.0 -33.0" fill="#2e47aa" fill-rule="evenodd" stroke="none"/>
  </g>
</svg>
