<?xml version="1.0" encoding="UTF-8" standalone="no"?>
<svg xmlns:ffdec="https://www.free-decompiler.com/flash" xmlns:xlink="http://www.w3.org/1999/xlink" ffdec:objectType="shape" height="157.1px" width="243.75px" xmlns="http://www.w3.org/2000/svg">
  <g transform="matrix(1.0, 0.0, 0.0, 1.0, 95.5, 74.6)">
    <path d="M79.5 -14.25 L83.75 -11.25 84.25 -10.75 84.75 -10.5 94.25 -3.25 Q107.0 -5.5 146.25 50.0 L148.25 55.5 143.0 54.25 131.25 46.75 130.75 46.5 99.75 24.5 91.25 17.25 89.75 15.0 89.75 14.75 75.75 9.25 61.5 2.5 Q73.5 48.75 39.25 64.0 L30.0 73.5 Q16.5 82.0 0.0 82.5 L-14.0 80.25 -21.5 77.5 -33.5 70.75 -41.5 61.25 -53.25 52.75 -60.5 43.0 -64.5 31.0 -65.0 19.0 -63.75 7.25 -72.0 12.5 Q-88.75 40.75 -94.0 41.25 L-94.75 41.5 -95.5 38.0 -95.0 35.25 -90.25 19.0 -84.75 4.0 -82.5 0.0 Q-78.0 -6.25 -76.5 -6.0 L-56.75 -27.0 Q-46.0 -37.0 -43.5 -36.25 -17.75 -72.0 -3.0 -74.0 9.75 -79.5 42.5 -34.5 L48.0 -33.0 56.0 -29.0 79.0 -14.75 79.5 -14.25" fill="#2e47aa" fill-rule="evenodd" stroke="none"/>
  </g>
</svg>
