<?xml version="1.0" encoding="UTF-8" standalone="no"?>
<svg xmlns:ffdec="https://www.free-decompiler.com/flash" xmlns:xlink="http://www.w3.org/1999/xlink" ffdec:objectType="shape" height="157.05px" width="231.5px" xmlns="http://www.w3.org/2000/svg">
  <g transform="matrix(1.0, 0.0, 0.0, 1.0, 95.75, 74.55)">
    <path d="M79.75 -12.25 L89.25 -4.5 Q101.0 -6.0 134.5 46.25 L135.75 50.75 131.0 49.75 122.25 44.0 121.75 43.5 121.25 43.25 120.5 42.75 119.75 42.0 97.25 25.5 87.5 17.0 85.5 14.25 61.75 3.0 Q74.0 44.0 40.25 62.75 L30.5 73.0 Q18.5 81.25 1.5 82.5 L-13.0 80.5 -18.25 79.0 -32.5 71.5 -40.75 62.25 Q-68.5 51.75 -64.25 9.0 L-72.0 14.0 -76.0 21.25 -86.0 35.75 -92.25 43.25 -94.0 43.5 -95.0 43.5 -95.25 42.75 -95.75 40.0 -94.25 33.0 -90.25 19.5 -83.25 2.0 Q-79.0 -3.75 -76.75 -4.5 L-68.75 -14.0 -57.5 -25.5 -50.25 -31.75 -44.0 -35.5 Q-19.75 -69.75 -2.75 -74.0 9.5 -79.25 42.5 -35.0 47.0 -35.0 55.5 -29.25 L76.75 -14.75 77.5 -14.0 78.5 -13.25 79.25 -12.5 79.75 -12.25" fill="#2e47aa" fill-rule="evenodd" stroke="none"/>
  </g>
</svg>
