<?xml version="1.0" encoding="UTF-8" standalone="no"?>
<svg xmlns:ffdec="https://www.free-decompiler.com/flash" xmlns:xlink="http://www.w3.org/1999/xlink" ffdec:objectType="shape" height="157.1px" width="219.0px" xmlns="http://www.w3.org/2000/svg">
  <g transform="matrix(1.0, 0.0, 0.0, 1.0, 96.0, 74.6)">
    <path d="M73.75 -14.75 L84.75 -4.75 Q93.75 -6.5 115.5 30.75 L121.75 42.5 122.25 44.0 123.0 47.75 118.0 46.75 94.5 27.75 83.0 16.75 81.25 14.25 61.75 4.25 Q73.0 43.25 41.0 62.0 L33.5 70.75 30.0 73.25 18.5 79.0 3.0 82.5 -11.75 80.75 -16.5 79.5 -31.0 72.5 -40.0 63.0 -42.5 62.0 -52.0 55.25 -60.0 45.5 -64.5 34.0 -65.5 22.75 -64.25 10.25 -72.0 15.25 -86.5 37.5 Q-92.0 45.5 -94.0 45.0 L-95.25 45.0 -96.0 41.0 -94.5 34.5 -90.25 20.0 -84.5 5.5 Q-85.0 4.0 -79.5 -2.0 L-77.0 -3.5 -69.75 -12.25 -57.0 -25.5 -47.5 -33.5 -44.0 -35.0 -23.0 -60.5 Q-13.25 -70.75 -2.75 -74.0 9.5 -79.5 42.75 -35.25 45.25 -36.0 54.75 -29.25 L73.75 -14.75" fill="#2e47aa" fill-rule="evenodd" stroke="none"/>
  </g>
</svg>
