<?xml version="1.0" encoding="UTF-8" standalone="no"?>
<svg xmlns:ffdec="https://www.free-decompiler.com/flash" xmlns:xlink="http://www.w3.org/1999/xlink" ffdec:objectType="shape" height="156.75px" width="207.5px" xmlns="http://www.w3.org/2000/svg">
  <g transform="matrix(1.0, 0.0, 0.0, 1.0, 96.0, 74.25)">
    <path d="M72.0 -13.5 L81.0 -4.5 Q91.0 -4.5 111.25 42.25 L111.5 46.5 107.25 45.5 84.5 23.5 77.25 14.75 62.0 6.25 Q73.25 40.5 41.25 61.75 L32.5 71.75 Q19.0 80.75 3.25 82.5 L-12.0 80.75 -17.25 79.25 -31.0 72.5 -39.75 63.25 Q-73.5 42.5 -64.5 10.5 L-72.5 16.0 -74.0 18.5 Q-89.0 44.0 -94.25 45.5 L-95.25 45.5 -95.5 44.75 -96.0 40.75 -89.75 18.5 -84.5 5.25 Q-79.5 -3.5 -77.25 -3.0 L-58.75 -23.75 -49.75 -31.5 Q-47.75 -34.0 -44.0 -34.75 -18.25 -72.0 -0.5 -74.25 21.25 -68.5 42.75 -35.25 44.75 -36.0 55.25 -28.0 L72.0 -13.5" fill="#2e47aa" fill-rule="evenodd" stroke="none"/>
  </g>
</svg>
