<?xml version="1.0" encoding="UTF-8" standalone="no"?>
<svg xmlns:ffdec="https://www.free-decompiler.com/flash" xmlns:xlink="http://www.w3.org/1999/xlink" ffdec:objectType="shape" height="156.75px" width="198.5px" xmlns="http://www.w3.org/2000/svg">
  <g transform="matrix(1.0, 0.0, 0.0, 1.0, 96.0, 74.25)">
    <path d="M78.0 -4.0 Q87.75 -3.25 102.5 43.0 L102.5 44.0 102.25 46.0 99.25 45.5 94.25 40.75 86.0 31.5 74.25 15.5 62.75 8.25 Q72.0 42.0 41.25 61.75 L32.5 71.75 Q19.0 80.75 3.25 82.5 L-12.0 80.75 -17.25 79.25 -31.0 72.5 -39.75 63.25 Q-73.5 42.5 -64.5 10.5 L-72.5 16.0 -74.0 18.5 Q-89.0 44.0 -94.25 45.5 L-95.25 45.5 -95.5 44.75 -96.0 40.75 -89.75 18.5 -84.5 5.25 Q-79.5 -3.5 -77.25 -3.0 L-58.75 -23.75 -49.75 -31.5 Q-47.75 -34.0 -44.0 -34.75 -18.25 -72.0 -0.5 -74.25 21.25 -68.5 43.0 -35.0 46.0 -34.75 52.75 -29.0 L68.5 -14.5 74.75 -7.75 75.25 -7.0 78.0 -4.0" fill="#2e47aa" fill-rule="evenodd" stroke="none"/>
  </g>
</svg>
