<?xml version="1.0" encoding="UTF-8" standalone="no"?>
<svg xmlns:ffdec="https://www.free-decompiler.com/flash" xmlns:xlink="http://www.w3.org/1999/xlink" ffdec:objectType="shape" height="156.75px" width="193.0px" xmlns="http://www.w3.org/2000/svg">
  <g transform="matrix(1.0, 0.0, 0.0, 1.0, 96.0, 74.25)">
    <path d="M55.75 -26.0 L68.25 -13.0 69.5 -11.5 70.0 -11.0 71.0 -9.75 71.75 -9.0 72.25 -8.25 73.25 -7.25 73.75 -6.5 74.75 -5.5 75.0 -5.0 76.25 -3.5 79.5 -1.5 Q85.25 4.25 85.0 6.5 L90.5 19.5 94.25 31.0 97.0 41.25 96.75 44.25 96.5 45.5 95.25 45.5 93.25 45.0 88.25 39.5 81.75 31.0 71.75 15.5 62.75 9.75 Q72.0 41.25 41.25 61.75 L32.5 71.75 Q19.0 80.75 3.25 82.5 L-12.0 80.75 -17.25 79.25 -31.0 72.5 -39.75 63.25 Q-73.5 42.5 -64.5 10.5 L-72.5 16.0 -74.0 18.5 Q-89.0 44.0 -94.25 45.5 L-95.25 45.5 -95.5 44.75 -96.0 40.75 -89.75 18.5 -84.5 5.25 Q-79.5 -3.5 -77.25 -3.0 L-58.75 -23.75 -49.75 -31.5 Q-47.75 -34.0 -44.0 -34.75 -18.25 -72.0 -0.5 -74.25 21.0 -68.75 43.25 -34.75 45.25 -35.25 55.75 -26.0" fill="#2e47aa" fill-rule="evenodd" stroke="none"/>
  </g>
</svg>
