<?xml version="1.0" encoding="UTF-8" standalone="no"?>
<svg xmlns:ffdec="https://www.free-decompiler.com/flash" xmlns:xlink="http://www.w3.org/1999/xlink" ffdec:objectType="shape" height="332.1px" width="356.75px" xmlns="http://www.w3.org/2000/svg">
  <g transform="matrix(1.0, 0.0, 0.0, 1.0, 172.25, 159.0)">
    <path d="M15.5 172.25 L33.0 172.25 21.0 173.1 Q18.25 173.1 15.5 172.25" fill="#e58508" fill-rule="evenodd" stroke="none"/>
    <path d="M15.5 172.25 Q-32.7 176.1 -72.6 148.95 -85.4 140.25 -95.45 128.5 -150.8 63.6 -121.25 -18.5 L-135.5 -9.75 -149.25 19.5 Q-156.1 36.65 -168.4 50.65 -169.9 52.35 -170.0 51.95 -180.95 -2.75 -139.0 -45.0 L-112.75 -70.25 Q-77.7 -99.4 -50.55 -137.1 -27.0 -169.75 6.75 -153.75 L11.0 -150.75 Q25.5 -152.75 32.0 -140.85 35.6 -134.2 35.5 -126.5 L50.5 -106.5 65.5 -83.25 87.25 -43.5 109.25 -22.5 130.5 4.5 150.0 33.25 152.0 38.25 Q180.5 79.8 184.5 131.75 176.3 133.95 167.5 128.35 136.35 108.7 127.25 72.75 L118.5 65.75 119.5 76.75 Q119.85 80.5 119.5 84.15 117.75 102.0 115.25 119.75 L115.0 120.25 Q101.0 165.25 33.0 172.25 L15.5 172.25" fill="#2e47aa" fill-rule="evenodd" stroke="none"/>
  </g>
</svg>
