<?xml version="1.0" encoding="UTF-8" standalone="no"?>
<svg xmlns:ffdec="https://www.free-decompiler.com/flash" xmlns:xlink="http://www.w3.org/1999/xlink" ffdec:objectType="shape" height="152.25px" width="188.5px" xmlns="http://www.w3.org/2000/svg">
  <g transform="matrix(1.0, 0.0, 0.0, 1.0, 94.75, 65.0)">
    <path d="M71.75 -0.25 L72.0 0.25 73.25 1.5 73.25 1.75 74.75 3.5 77.5 5.0 Q82.0 9.5 82.5 12.5 L87.5 24.75 90.75 35.25 93.75 47.0 93.0 50.5 92.0 50.5 Q86.75 49.75 70.0 22.0 L62.25 17.0 63.75 27.5 62.5 35.5 Q61.25 54.5 40.75 66.75 L31.0 77.5 Q19.25 85.5 3.5 87.25 L-16.5 84.5 -31.25 77.0 -39.5 68.25 -51.0 60.75 -59.0 51.25 -63.5 40.0 -64.5 29.75 -63.5 17.0 -71.0 22.0 Q-87.75 50.0 -93.0 50.5 L-94.0 50.0 -94.75 47.25 -92.25 36.75 -89.0 26.25 -83.5 12.5 -81.0 8.0 Q-77.25 2.75 -75.75 3.25 L-68.0 -6.0 -57.5 -16.75 -48.5 -24.5 -43.0 -27.5 Q-19.0 -61.75 -1.0 -65.0 14.75 -65.0 42.25 -27.25 44.0 -28.0 51.5 -21.25 L66.75 -6.0 69.5 -2.75 70.25 -2.0 70.75 -1.25 71.75 -0.25" fill="#2e47aa" fill-rule="evenodd" stroke="none"/>
  </g>
</svg>
