<?xml version="1.0" encoding="UTF-8" standalone="no"?>
<svg xmlns:ffdec="https://www.free-decompiler.com/flash" xmlns:xlink="http://www.w3.org/1999/xlink" ffdec:objectType="shape" height="152.25px" width="191.5px" xmlns="http://www.w3.org/2000/svg">
  <g transform="matrix(1.0, 0.0, 0.0, 1.0, 96.0, 65.0)">
    <path d="M71.75 -0.25 L72.0 0.25 73.25 1.5 73.25 1.75 74.75 3.5 77.75 5.25 Q82.5 9.75 83.25 13.0 L88.75 25.75 93.25 39.0 95.5 47.5 94.75 51.0 93.5 51.0 92.0 50.75 87.5 46.25 79.5 36.25 70.0 22.0 62.25 17.0 63.75 27.5 62.5 35.5 Q61.25 54.5 40.75 66.75 L31.0 77.5 Q19.25 85.5 3.5 87.25 L-16.5 84.5 -31.25 77.0 -39.5 68.25 -51.0 60.75 -59.0 51.25 -63.5 40.0 -64.5 29.75 -63.5 17.0 -71.25 22.0 -73.25 25.0 -73.5 25.5 -74.0 26.25 -75.5 29.25 -84.5 40.75 -92.75 50.5 -94.5 51.0 -95.75 51.0 -96.0 50.0 Q-86.75 8.0 -75.75 3.0 L-66.5 -7.75 -56.5 -17.75 -48.5 -24.5 -43.0 -27.5 Q-19.0 -61.75 -1.0 -65.0 14.75 -65.0 42.25 -27.25 44.0 -28.0 51.5 -21.25 L66.75 -6.0 69.5 -2.75 70.25 -2.0 70.75 -1.25 71.75 -0.25" fill="#2e47aa" fill-rule="evenodd" stroke="none"/>
  </g>
</svg>
