<?xml version="1.0" encoding="UTF-8" standalone="no"?>
<svg xmlns:ffdec="https://www.free-decompiler.com/flash" xmlns:xlink="http://www.w3.org/1999/xlink" ffdec:objectType="shape" height="152.25px" width="202.5px" xmlns="http://www.w3.org/2000/svg">
  <g transform="matrix(1.0, 0.0, 0.0, 1.0, 101.25, 65.0)">
    <path d="M71.25 -0.5 L72.0 0.25 72.25 0.75 75.25 4.25 Q84.5 5.0 101.25 51.0 L101.0 51.75 101.0 54.75 97.25 54.0 86.0 42.5 76.5 31.0 76.0 30.5 75.75 30.0 75.25 29.5 71.0 23.25 62.5 17.75 62.25 17.75 63.75 27.5 62.5 35.5 Q62.75 51.5 40.75 66.75 L31.0 77.5 Q19.25 85.5 3.5 87.25 L-16.5 84.5 -31.25 77.0 -39.5 68.25 -51.0 60.75 -59.0 51.25 -63.5 40.0 -64.5 29.75 -63.5 18.0 -71.5 23.5 -75.75 29.5 -76.25 30.0 -76.5 30.5 -77.25 31.25 -77.5 31.75 -78.0 32.25 -93.0 50.0 Q-97.75 55.25 -99.25 54.5 L-101.0 54.75 -101.25 50.75 -98.25 41.75 -93.0 29.0 -84.5 12.0 Q-78.0 4.25 -76.25 4.5 L-59.0 -15.0 -48.0 -24.75 -43.25 -27.25 Q-19.0 -62.0 -1.0 -65.0 14.75 -65.0 42.25 -27.25 44.25 -27.75 55.0 -18.25 L69.25 -3.0 70.0 -2.0 70.75 -1.25 71.25 -0.5" fill="#2e47aa" fill-rule="evenodd" stroke="none"/>
  </g>
</svg>
