<?xml version="1.0" encoding="UTF-8" standalone="no"?>
<svg xmlns:ffdec="https://www.free-decompiler.com/flash" xmlns:xlink="http://www.w3.org/1999/xlink" ffdec:objectType="shape" height="152.25px" width="217.75px" xmlns="http://www.w3.org/2000/svg">
  <g transform="matrix(1.0, 0.0, 0.0, 1.0, 107.5, 65.0)">
    <path d="M70.75 -0.5 L71.25 0.25 72.0 1.0 72.25 1.5 77.5 7.75 77.5 8.0 Q86.5 7.75 105.75 49.5 L109.5 58.25 109.75 59.0 110.0 59.5 110.25 63.75 107.25 62.75 106.25 62.75 86.25 43.25 77.75 33.75 72.0 26.0 62.75 19.5 63.5 28.0 62.5 35.5 Q64.25 49.5 40.75 66.75 L31.0 77.5 Q19.25 85.5 3.5 87.25 L-16.5 84.5 -31.25 77.0 -39.5 68.25 Q-66.75 56.75 -64.25 21.0 L-70.0 25.25 Q-70.95 25.35 -71.25 26.25 L-72.75 29.25 -88.0 47.5 -103.25 63.25 -104.75 63.5 -107.5 64.5 -107.5 61.0 -104.75 53.0 Q-86.5 9.0 -77.25 8.5 L-60.0 -12.75 -49.75 -22.75 -44.0 -26.5 Q-18.75 -62.25 -1.0 -65.0 14.75 -65.25 42.5 -27.0 45.0 -27.0 53.25 -19.25 L68.25 -3.5 70.25 -1.0 70.75 -0.5" fill="#2e47aa" fill-rule="evenodd" stroke="none"/>
  </g>
</svg>
