<?xml version="1.0" encoding="UTF-8" standalone="no"?>
<svg xmlns:ffdec="https://www.free-decompiler.com/flash" xmlns:xlink="http://www.w3.org/1999/xlink" ffdec:objectType="shape" height="152.25px" width="230.5px" xmlns="http://www.w3.org/2000/svg">
  <g transform="matrix(1.0, 0.0, 0.0, 1.0, 112.0, 65.0)">
    <path d="M57.5 -14.25 L71.25 2.0 71.75 2.5 72.0 3.0 72.5 3.5 72.75 4.0 79.5 12.75 80.0 13.75 83.5 15.0 92.0 24.0 101.5 39.25 112.25 59.75 117.5 72.5 118.5 78.25 114.25 76.25 113.25 76.0 104.25 66.75 104.0 66.25 83.0 43.75 74.5 33.25 72.5 29.75 70.5 28.25 69.75 27.5 69.25 27.25 68.5 26.5 68.0 26.25 67.25 25.5 66.75 25.25 63.25 22.5 63.75 28.0 62.5 35.5 Q63.25 51.0 40.75 66.75 L31.0 77.5 Q19.25 85.5 3.5 87.25 L-16.5 84.5 -31.25 77.0 -39.5 68.25 Q-65.0 56.75 -64.5 25.75 L-67.5 28.0 -70.0 30.5 -73.0 35.75 -88.25 55.5 -107.75 77.25 -112.0 79.25 -111.5 74.5 -111.5 72.75 -107.25 61.75 -98.25 41.75 -88.5 24.25 Q-81.0 14.0 -78.25 14.75 L-67.5 -1.25 -57.5 -14.0 -48.25 -23.25 -47.75 -23.5 -47.0 -24.0 -46.75 -24.25 -46.5 -24.25 -46.0 -24.75 -45.25 -25.25 -44.5 -25.5 Q-18.25 -62.75 -1.0 -65.0 21.0 -60.0 43.0 -26.25 L45.25 -24.75 45.5 -24.75 48.0 -23.0 57.5 -14.25" fill="#2e47aa" fill-rule="evenodd" stroke="none"/>
  </g>
</svg>
