<?xml version="1.0" encoding="UTF-8" standalone="no"?>
<svg xmlns:ffdec="https://www.free-decompiler.com/flash" xmlns:xlink="http://www.w3.org/1999/xlink" ffdec:objectType="shape" height="162.0px" width="230.0px" xmlns="http://www.w3.org/2000/svg">
  <g transform="matrix(1.0, 0.0, 0.0, 1.0, 110.0, 65.0)">
    <path d="M57.75 -12.25 L73.0 8.0 73.5 8.5 73.75 9.0 80.5 19.0 80.75 19.25 80.75 19.5 81.5 21.0 81.5 21.25 Q93.75 23.0 119.25 88.75 L120.0 95.5 114.25 92.0 105.25 81.0 104.75 80.5 86.0 56.25 71.75 35.0 71.75 34.75 63.75 27.5 62.5 35.5 Q63.25 51.0 40.75 66.75 L31.5 77.25 Q17.5 86.25 3.5 87.25 L-16.5 84.5 -31.25 77.0 -39.5 68.25 Q-62.25 58.25 -64.25 32.0 L-64.5 32.0 -66.75 34.25 -67.5 35.25 -68.0 37.25 -79.0 55.5 -96.5 82.0 -105.0 93.5 -110.0 97.0 -109.75 90.75 Q-93.75 33.5 -78.0 22.0 L-68.5 4.75 -58.0 -11.0 -49.25 -21.25 -47.0 -23.25 -46.5 -23.5 -45.75 -24.25 -45.25 -24.5 Q-17.5 -63.75 -1.0 -65.0 17.0 -63.75 43.75 -25.0 L44.5 -24.5 45.0 -24.25 47.25 -22.75 47.75 -22.25 48.5 -21.75 57.75 -12.25" fill="#2e47aa" fill-rule="evenodd" stroke="none"/>
  </g>
</svg>
