<?xml version="1.0" encoding="UTF-8" standalone="no"?>
<svg xmlns:ffdec="https://www.free-decompiler.com/flash" xmlns:xlink="http://www.w3.org/1999/xlink" ffdec:objectType="shape" height="177.0px" width="208.75px" xmlns="http://www.w3.org/2000/svg">
  <g transform="matrix(1.0, 0.0, 0.0, 1.0, 98.75, 65.0)">
    <path d="M58.0 -9.25 L71.75 12.0 72.0 12.5 72.5 13.25 73.0 14.25 73.5 15.0 73.75 15.5 74.25 16.25 74.75 17.25 75.25 18.0 75.5 18.5 76.25 19.5 76.25 19.75 79.75 26.0 80.0 26.25 80.0 26.5 80.25 26.75 80.25 27.0 80.75 28.25 80.75 28.5 81.0 29.5 81.25 29.75 Q93.5 33.25 110.0 103.25 L109.5 110.25 104.0 105.5 88.75 79.5 77.75 59.0 68.5 39.5 66.5 37.5 66.0 36.75 64.5 35.25 64.0 34.5 62.75 33.75 62.5 35.5 Q63.25 51.0 40.75 66.75 L31.5 77.25 Q17.5 86.25 3.5 87.25 L-16.5 84.5 -31.25 77.0 -39.5 68.25 Q-55.75 61.75 -63.25 40.75 L-63.5 40.75 -76.75 73.0 -92.75 107.0 -97.75 112.0 -98.75 105.0 Q-88.25 34.75 -76.5 30.25 L-76.25 30.0 -74.0 23.25 -63.0 1.25 -59.0 -6.0 -50.0 -19.25 -45.25 -24.0 Q-21.5 -60.0 -1.0 -65.0 16.5 -64.25 44.75 -23.75 L49.25 -19.75 58.0 -9.25" fill="#2e47aa" fill-rule="evenodd" stroke="none"/>
  </g>
</svg>
