<?xml version="1.0" encoding="UTF-8" standalone="no"?>
<svg xmlns:ffdec="https://www.free-decompiler.com/flash" xmlns:xlink="http://www.w3.org/1999/xlink" ffdec:objectType="shape" height="183.25px" width="169.9px" xmlns="http://www.w3.org/2000/svg">
  <g transform="matrix(1.0, 0.0, 0.0, 1.0, 80.7, 65.0)">
    <path d="M57.0 -6.75 L71.25 20.5 71.5 21.25 77.0 32.75 77.0 33.25 77.25 33.25 77.25 34.0 77.5 34.0 77.5 34.25 77.75 35.25 77.75 35.5 78.0 37.0 78.25 37.75 78.25 39.0 78.5 39.0 Q90.75 44.25 89.0 109.5 L86.75 115.5 82.25 109.75 72.5 79.75 63.0 43.75 61.75 42.0 61.5 42.0 Q52.75 62.0 40.75 66.75 L31.5 77.25 Q17.5 86.25 3.5 87.25 L-16.5 84.5 -31.25 77.0 -39.5 68.25 -51.25 60.5 -59.25 51.0 -66.5 90.75 -71.75 112.25 -75.75 118.25 -78.25 112.25 Q-85.0 51.0 -73.0 38.5 L-72.75 38.5 -72.75 36.5 -71.5 30.5 -65.5 14.0 -53.5 -11.75 -50.25 -17.25 -48.5 -19.5 -48.0 -20.0 -47.5 -21.0 Q-20.25 -61.5 -1.0 -65.0 15.5 -65.75 46.75 -21.0 L47.0 -20.5 51.0 -16.0 57.0 -6.75" fill="#2e47aa" fill-rule="evenodd" stroke="none"/>
  </g>
</svg>
