<?xml version="1.0" encoding="UTF-8" standalone="no"?>
<svg xmlns:ffdec="https://www.free-decompiler.com/flash" xmlns:xlink="http://www.w3.org/1999/xlink" ffdec:objectType="shape" height="177.85px" width="146.5px" xmlns="http://www.w3.org/2000/svg">
  <g transform="matrix(1.0, 0.0, 0.0, 1.0, 70.25, 65.1)">
    <path d="M50.75 -15.0 L58.0 0.0 59.0 3.5 59.0 3.75 59.25 4.25 68.0 27.25 68.25 27.75 70.5 34.25 70.75 34.75 70.75 35.0 72.25 40.0 72.25 40.75 73.0 44.5 73.0 45.75 73.25 47.5 75.75 54.0 76.25 65.5 72.25 82.5 65.5 97.5 61.25 104.25 57.0 107.75 54.25 101.75 54.25 86.0 55.5 54.0 55.25 54.0 51.25 59.0 40.75 66.75 31.5 77.25 Q17.5 86.25 3.5 87.25 L-16.5 84.5 -31.25 77.0 -39.5 68.25 -50.0 61.5 -47.5 86.75 -46.5 106.25 -48.5 112.75 -53.5 108.5 -58.25 99.5 -65.25 83.25 -70.0 65.5 -70.25 53.5 -68.25 45.75 -68.25 41.75 -67.5 36.0 -67.25 35.25 -64.25 22.75 Q-60.75 -3.5 -47.25 -21.75 -19.25 -61.25 -3.25 -64.75 7.25 -67.5 25.75 -47.75 L45.5 -23.25 50.75 -15.0" fill="#2e47aa" fill-rule="evenodd" stroke="none"/>
  </g>
</svg>
