<?xml version="1.0" encoding="UTF-8" standalone="no"?>
<svg xmlns:ffdec="https://www.free-decompiler.com/flash" xmlns:xlink="http://www.w3.org/1999/xlink" ffdec:objectType="shape" height="161.95px" width="131.55px" xmlns="http://www.w3.org/2000/svg">
  <g transform="matrix(1.0, 0.0, 0.0, 1.0, 65.05, 65.4)">
    <path d="M-3.25 -64.75 Q9.75 -70.5 45.25 -23.5 61.25 -4.75 62.75 30.5 L63.25 31.0 63.25 31.5 63.5 32.0 63.5 32.75 65.25 40.0 65.5 40.75 65.5 41.0 66.25 45.25 66.5 46.0 66.25 53.5 66.0 54.25 Q67.5 72.75 52.75 81.0 L51.75 81.75 44.0 86.25 34.25 90.0 29.5 89.5 29.25 84.0 32.25 76.5 Q5.75 97.25 -29.75 78.0 L-30.0 78.0 -24.25 90.75 -24.25 96.5 Q-29.25 96.75 -30.25 95.5 L-37.5 91.5 -49.25 82.25 -59.0 69.75 -59.0 69.5 -59.5 68.5 -62.25 61.25 -62.5 52.75 -63.0 49.25 -63.0 48.25 -63.25 46.25 -63.25 40.0 Q-69.5 25.75 -53.75 -11.5 -29.5 -52.0 -3.25 -64.75" fill="#2e47aa" fill-rule="evenodd" stroke="none"/>
  </g>
</svg>
