<?xml version="1.0" encoding="UTF-8" standalone="no"?>
<svg xmlns:ffdec="https://www.free-decompiler.com/flash" xmlns:xlink="http://www.w3.org/1999/xlink" ffdec:objectType="shape" height="327.8px" width="361.3px" xmlns="http://www.w3.org/2000/svg">
  <g transform="matrix(1.0, 0.0, 0.0, 1.0, 179.9, 157.1)">
    <path d="M37.5 -113.0 L58.75 -85.75 Q68.25 -71.4 79.1 -58.1 83.5 -52.7 89.15 -48.15 L100.25 -39.0 130.75 -6.0 148.5 18.25 Q160.6 28.5 166.8 44.3 179.7 76.9 181.4 110.5 181.55 113.65 177.95 111.45 143.95 90.9 130.0 53.5 L119.5 45.75 Q135.25 89.35 108.0 126.05 92.1 147.45 67.05 157.2 -27.95 194.25 -103.5 129.5 -117.2 117.75 -124.05 100.75 -143.15 53.5 -132.25 3.05 L-147.0 14.0 -159.5 46.25 -161.35 49.75 -163.2 53.3 -165.15 56.75 Q-168.3 61.9 -170.65 67.45 L-171.3 68.7 -172.15 69.8 Q-173.45 71.1 -175.45 71.55 L-178.1 72.05 Q-181.75 52.9 -177.9 33.75 -171.7 3.05 -153.8 -22.5 -149.6 -28.5 -145.0 -34.0 L-123.25 -58.25 Q-106.4 -70.6 -96.9 -89.1 -73.9 -134.2 -31.0 -154.45 -23.45 -158.05 -15.0 -156.75 2.4 -154.15 14.35 -142.25 17.7 -138.9 17.5 -134.25 L37.5 -113.0" fill="#2e47aa" fill-rule="evenodd" stroke="none"/>
  </g>
</svg>
