<?xml version="1.0" encoding="UTF-8" standalone="no"?>
<svg xmlns:ffdec="https://www.free-decompiler.com/flash" xmlns:xlink="http://www.w3.org/1999/xlink" ffdec:objectType="shape" height="152.3px" width="128.1px" xmlns="http://www.w3.org/2000/svg">
  <g transform="matrix(1.0, 0.0, 0.0, 1.0, 64.55, 65.0)">
    <path d="M-56.25 -6.25 Q-26.5 -58.0 -1.0 -65.0 17.0 -65.75 50.75 -15.0 70.5 25.25 59.75 45.25 L60.25 49.0 60.0 53.5 59.75 55.0 59.75 56.25 59.5 56.75 59.5 57.75 58.5 58.25 Q58.25 68.75 48.5 73.25 L48.0 73.5 37.75 75.75 33.0 75.5 Q4.5 97.5 -28.25 78.5 L-33.25 78.0 -35.25 77.5 -35.5 77.5 -35.75 77.25 -48.25 72.5 Q-57.0 65.0 -56.75 57.0 L-57.5 56.5 -57.75 54.5 -58.0 53.75 -58.0 53.25 -58.5 51.5 -58.75 51.25 Q-71.5 31.0 -56.25 -6.25" fill="#2e47aa" fill-rule="evenodd" stroke="none"/>
  </g>
</svg>
