<?xml version="1.0" encoding="UTF-8" standalone="no"?>
<svg xmlns:ffdec="https://www.free-decompiler.com/flash" xmlns:xlink="http://www.w3.org/1999/xlink" ffdec:objectType="shape" height="152.3px" width="128.15px" xmlns="http://www.w3.org/2000/svg">
  <g transform="matrix(1.0, 0.0, 0.0, 1.0, 64.35, 65.05)">
    <path d="M36.25 71.75 Q36.5 76.0 18.5 84.0 L3.75 87.25 -16.25 84.5 Q-34.75 76.75 -35.25 72.5 -49.75 72.75 -52.5 59.75 L-54.0 59.0 -54.25 57.25 -54.75 56.5 Q-72.0 39.0 -58.25 -1.75 -28.5 -56.75 -1.0 -65.0 16.75 -66.25 51.5 -13.75 73.75 34.0 55.75 53.25 L55.0 55.75 55.0 56.0 54.75 57.0 54.75 57.75 54.5 58.25 54.25 59.5 52.75 60.0 Q49.5 74.0 36.25 71.75" fill="#2e47aa" fill-rule="evenodd" stroke="none"/>
  </g>
</svg>
