<?xml version="1.0" encoding="UTF-8" standalone="no"?>
<svg xmlns:ffdec="https://www.free-decompiler.com/flash" xmlns:xlink="http://www.w3.org/1999/xlink" ffdec:objectType="shape" height="152.3px" width="128.1px" xmlns="http://www.w3.org/2000/svg">
  <g transform="matrix(1.0, 0.0, 0.0, 1.0, 64.4, 65.05)">
    <path d="M55.5 -5.5 Q73.0 28.5 53.25 56.5 L53.0 56.75 53.0 57.25 52.75 58.5 52.5 59.0 52.5 60.0 50.75 60.5 Q47.0 69.25 44.0 70.0 L36.5 71.5 Q36.5 76.25 18.5 84.0 L3.75 87.25 -16.25 84.5 Q-33.25 78.0 -36.25 71.25 L-44.75 70.5 Q-50.75 65.75 -51.75 60.5 L-53.25 60.25 -53.75 58.5 -54.0 58.0 -54.0 57.25 -54.25 57.0 Q-72.25 38.75 -58.25 -1.75 -28.5 -56.75 -1.0 -65.0 6.5 -65.75 21.0 -52.75 L29.5 -43.75 45.5 -23.25 50.75 -15.0 55.5 -5.5" fill="#2e47aa" fill-rule="evenodd" stroke="none"/>
  </g>
</svg>
