<?xml version="1.0" encoding="UTF-8" standalone="no"?>
<svg xmlns:ffdec="https://www.free-decompiler.com/flash" xmlns:xlink="http://www.w3.org/1999/xlink" ffdec:objectType="shape" height="152.3px" width="127.7px" xmlns="http://www.w3.org/2000/svg">
  <g transform="matrix(1.0, 0.0, 0.0, 1.0, 64.45, 65.05)">
    <path d="M36.75 71.0 Q36.25 76.5 18.5 84.0 L1.75 87.25 -16.5 84.5 Q-34.75 77.5 -38.25 69.25 -52.0 73.5 -55.0 60.25 L-55.25 60.0 -56.5 59.75 -57.0 57.5 -57.0 56.5 -57.25 55.5 -57.25 55.25 -57.75 53.5 -57.75 53.0 -58.0 52.25 Q-71.75 29.0 -56.25 -6.25 -26.5 -58.0 -1.0 -65.0 16.75 -66.25 51.5 -13.75 72.5 23.25 56.0 52.5 L55.5 56.0 55.25 56.75 55.0 58.0 55.0 59.25 53.25 60.0 Q49.0 74.0 36.75 71.0" fill="#2e47aa" fill-rule="evenodd" stroke="none"/>
  </g>
</svg>
