<?xml version="1.0" encoding="UTF-8" standalone="no"?>
<svg xmlns:ffdec="https://www.free-decompiler.com/flash" xmlns:xlink="http://www.w3.org/1999/xlink" ffdec:objectType="shape" height="152.3px" width="128.75px" xmlns="http://www.w3.org/2000/svg">
  <g transform="matrix(1.0, 0.0, 0.0, 1.0, 65.0, 65.05)">
    <path d="M-1.0 -65.0 Q16.75 -66.25 51.5 -13.75 70.75 26.5 59.75 46.25 L59.75 47.0 60.0 48.0 60.0 49.5 59.75 50.25 59.75 53.0 59.5 54.25 59.5 55.5 58.75 58.0 57.5 58.75 Q54.25 74.0 37.75 70.0 34.25 77.5 18.5 84.0 L1.75 87.25 -10.75 85.75 -17.25 84.0 -31.25 77.0 -39.5 68.25 -42.5 66.5 Q-55.75 74.0 -59.25 59.0 L-60.5 58.75 -61.25 55.0 -61.25 54.25 -61.75 50.75 -61.25 46.0 -61.5 45.5 Q-71.0 31.5 -54.75 -9.5 -27.25 -56.25 -1.0 -65.0" fill="#2e47aa" fill-rule="evenodd" stroke="none"/>
  </g>
</svg>
