<?xml version="1.0" encoding="UTF-8" standalone="no"?>
<svg xmlns:ffdec="https://www.free-decompiler.com/flash" xmlns:xlink="http://www.w3.org/1999/xlink" ffdec:objectType="shape" height="152.25px" width="129.75px" xmlns="http://www.w3.org/2000/svg">
  <g transform="matrix(1.0, 0.0, 0.0, 1.0, 65.75, 65.0)">
    <path d="M-1.0 -65.0 Q15.25 -66.0 47.25 -20.5 64.5 1.5 62.0 39.0 L62.5 39.25 62.5 40.25 64.0 47.75 63.75 55.75 62.25 57.0 Q58.25 75.25 38.25 69.25 35.5 77.25 18.5 84.0 L1.75 87.25 -10.75 85.75 -17.25 84.0 -31.25 77.0 -39.5 68.25 -47.75 63.0 Q-61.25 72.75 -64.0 57.25 L-65.5 56.5 -65.75 48.75 -63.75 36.75 Q-69.25 26.5 -54.0 -11.0 -27.5 -55.5 -1.0 -65.0" fill="#2e47aa" fill-rule="evenodd" stroke="none"/>
  </g>
</svg>
