<?xml version="1.0" encoding="UTF-8" standalone="no"?>
<svg xmlns:ffdec="https://www.free-decompiler.com/flash" xmlns:xlink="http://www.w3.org/1999/xlink" ffdec:objectType="shape" height="152.25px" width="138.25px" xmlns="http://www.w3.org/2000/svg">
  <g transform="matrix(1.0, 0.0, 0.0, 1.0, 70.25, 65.0)">
    <path d="M-1.0 -65.0 Q16.25 -64.5 45.25 -23.5 61.0 -3.75 63.5 28.75 L67.5 45.0 67.75 50.0 68.0 51.0 68.0 53.5 66.75 54.75 Q66.75 74.75 39.75 67.5 L31.25 77.25 Q19.0 85.75 3.5 87.25 L-16.5 84.5 -31.25 77.0 -39.5 68.25 -43.0 66.5 -52.75 59.0 -53.0 59.0 Q-66.5 70.25 -69.0 55.0 L-70.25 54.0 -70.25 47.75 -70.0 46.5 -70.0 45.5 -69.75 45.25 -68.5 40.5 -68.5 40.0 -64.25 24.0 Q-60.75 -4.75 -47.25 -21.75 -20.5 -61.25 -1.0 -65.0" fill="#2e47aa" fill-rule="evenodd" stroke="none"/>
  </g>
</svg>
