<?xml version="1.0" encoding="UTF-8" standalone="no"?>
<svg xmlns:ffdec="https://www.free-decompiler.com/flash" xmlns:xlink="http://www.w3.org/1999/xlink" ffdec:objectType="shape" height="152.35px" width="146.6px" xmlns="http://www.w3.org/2000/svg">
  <g transform="matrix(1.0, 0.0, 0.0, 1.0, 74.85, 65.1)">
    <path d="M-1.0 -65.0 Q9.75 -66.75 32.5 -40.0 54.25 -17.75 61.75 15.0 L61.75 15.25 70.75 42.25 71.0 42.75 71.75 51.0 70.75 52.0 Q71.5 63.25 62.75 67.5 L53.25 69.25 41.5 66.5 40.75 66.75 31.0 77.5 Q19.25 85.5 3.5 87.25 L-16.5 84.5 -31.25 77.0 -39.5 68.25 -51.0 60.75 -57.0 54.25 Q-71.5 68.25 -74.0 52.0 -78.25 46.0 -61.5 9.25 -59.0 -7.75 -39.75 -31.75 -21.75 -58.75 -1.0 -65.0" fill="#2e47aa" fill-rule="evenodd" stroke="none"/>
  </g>
</svg>
