<?xml version="1.0" encoding="UTF-8" standalone="no"?>
<svg xmlns:ffdec="https://www.free-decompiler.com/flash" xmlns:xlink="http://www.w3.org/1999/xlink" ffdec:objectType="shape" height="152.6px" width="154.5px" xmlns="http://www.w3.org/2000/svg">
  <g transform="matrix(1.0, 0.0, 0.0, 1.0, 79.5, 65.35)">
    <path d="M57.75 -0.5 L59.25 4.25 66.25 19.75 71.0 32.75 71.25 33.25 71.75 34.75 72.0 35.25 72.25 36.0 72.5 36.5 72.75 37.25 73.0 37.75 73.5 39.25 73.75 39.5 75.0 46.75 74.5 49.25 Q76.0 74.0 45.5 65.75 L43.5 65.0 40.75 66.75 31.0 77.5 Q19.25 85.5 3.5 87.25 L-16.5 84.5 -31.25 77.0 -39.5 68.25 -51.5 60.25 -57.75 53.0 -60.5 48.25 -64.25 52.0 -72.25 57.25 Q-78.0 57.5 -78.75 48.5 L-79.5 47.5 -78.0 39.5 -71.25 23.5 -57.25 -3.75 Q-29.0 -55.75 -1.0 -65.0 5.5 -68.0 27.0 -46.5 L45.25 -23.5 51.5 -13.75 57.75 -0.5" fill="#2e47aa" fill-rule="evenodd" stroke="none"/>
  </g>
</svg>
