<?xml version="1.0" encoding="UTF-8" standalone="no"?>
<svg xmlns:ffdec="https://www.free-decompiler.com/flash" xmlns:xlink="http://www.w3.org/1999/xlink" ffdec:objectType="shape" height="152.5px" width="161.55px" xmlns="http://www.w3.org/2000/svg">
  <g transform="matrix(1.0, 0.0, 0.0, 1.0, 83.55, 65.25)">
    <path d="M54.25 -7.5 L67.0 16.0 75.75 36.25 78.0 45.5 77.5 46.25 Q79.25 58.25 71.5 64.25 L71.25 64.25 70.5 64.75 66.0 67.0 57.25 67.5 50.75 65.75 Q48.0 63.0 49.0 60.75 L40.75 66.75 31.0 77.5 Q19.25 85.5 3.5 87.25 L-16.5 84.5 -31.25 77.0 -39.5 68.25 Q-54.75 62.25 -63.0 42.0 L-63.25 42.0 -69.25 48.5 Q-76.0 54.0 -77.25 53.75 L-81.25 52.5 Q-83.75 48.25 -83.25 44.5 -85.25 40.75 -73.0 19.25 L-50.75 -16.0 Q-18.75 -64.0 -1.0 -65.0 15.25 -69.25 54.25 -7.75 L54.25 -7.5" fill="#2e47aa" fill-rule="evenodd" stroke="none"/>
  </g>
</svg>
