<?xml version="1.0" encoding="UTF-8" standalone="no"?>
<svg xmlns:ffdec="https://www.free-decompiler.com/flash" xmlns:xlink="http://www.w3.org/1999/xlink" ffdec:objectType="shape" height="329.0px" width="366.25px" xmlns="http://www.w3.org/2000/svg">
  <g transform="matrix(1.0, 0.0, 0.0, 1.0, 187.8, 154.5)">
    <path d="M-127.0 108.75 L-127.1 107.3 Q-129.6 93.1 -130.5 78.5 L-130.5 56.5 -142.5 66.75 Q-144.25 74.55 -147.35 82.25 -153.4 97.0 -163.4 109.65 -168.95 116.7 -177.25 119.55 -182.65 121.5 -187.8 120.0 -185.95 96.65 -180.95 73.85 -173.25 38.65 -151.25 9.75 L-126.75 -23.0 -124.35 -25.75 -115.2 -35.85 Q-110.05 -41.5 -103.5 -45.5 L-88.5 -75.75 -67.0 -112.25 -56.5 -127.75 Q-56.6 -132.0 -54.85 -135.8 -48.95 -148.4 -35.0 -148.75 L-27.6 -154.05 -26.25 -154.5 Q10.6 -154.6 35.2 -126.95 62.35 -96.45 93.25 -71.75 L125.5 -45.0 Q145.8 -26.05 160.75 -2.5 L172.0 27.5 Q175.1 35.4 176.95 43.55 179.0 52.5 178.25 61.65 176.65 62.8 175.2 61.45 163.95 51.5 155.25 39.0 L133.25 2.0 133.0 1.5 114.75 -9.0 Q126.15 25.2 125.65 61.25 125.4 78.8 116.55 93.65 69.35 172.9 -24.0 174.5 L-61.6 169.6 Q-65.75 168.85 -69.75 167.25 -104.0 161.25 -126.25 110.0 L-126.75 109.0 -126.75 108.75 -127.0 108.75" fill="#2e47aa" fill-rule="evenodd" stroke="none"/>
    <path d="M-127.0 108.75 L-126.75 108.75 -126.75 109.0 -127.0 108.75" fill="#e58508" fill-rule="evenodd" stroke="none"/>
  </g>
</svg>
