<?xml version="1.0" encoding="UTF-8" standalone="no"?>
<svg xmlns:ffdec="https://www.free-decompiler.com/flash" xmlns:xlink="http://www.w3.org/1999/xlink" ffdec:objectType="shape" height="152.3px" width="168.45px" xmlns="http://www.w3.org/2000/svg">
  <g transform="matrix(1.0, 0.0, 0.0, 1.0, 87.25, 65.05)">
    <path d="M52.0 -12.25 L66.25 10.75 77.5 33.25 80.0 41.75 80.0 42.0 80.25 43.0 Q84.0 57.0 72.75 64.75 L71.75 65.5 64.5 67.25 60.75 67.0 57.5 65.75 Q55.5 64.5 56.25 60.75 L63.0 38.5 62.5 38.25 Q60.75 53.0 40.75 66.75 L31.0 77.5 Q19.25 85.5 3.5 87.25 L-16.5 84.5 -31.25 77.0 -39.5 68.25 Q-63.25 55.25 -64.25 34.75 L-75.75 46.25 -81.0 50.0 Q-84.75 50.0 -85.5 48.75 L-87.0 45.75 -87.25 39.75 -85.5 34.5 -73.5 14.25 -61.25 -3.5 -48.5 -19.25 Q-19.75 -62.5 -1.0 -65.0 16.5 -66.75 51.75 -13.0 L51.75 -12.75 52.0 -12.25" fill="#2e47aa" fill-rule="evenodd" stroke="none"/>
  </g>
</svg>
