<?xml version="1.0" encoding="UTF-8" standalone="no"?>
<svg xmlns:ffdec="https://www.free-decompiler.com/flash" xmlns:xlink="http://www.w3.org/1999/xlink" ffdec:objectType="shape" height="152.35px" width="175.1px" xmlns="http://www.w3.org/2000/svg">
  <g transform="matrix(1.0, 0.0, 0.0, 1.0, 91.3, 65.1)">
    <path d="M58.5 -4.5 L69.5 13.0 80.25 32.75 81.75 38.0 82.0 39.5 Q87.25 54.25 77.0 63.5 L76.25 64.0 72.5 66.0 68.0 67.0 67.5 67.25 Q62.75 67.0 62.75 61.25 L63.25 53.75 66.0 37.75 65.0 36.75 63.0 34.25 62.75 34.25 62.5 35.5 Q63.25 51.0 40.75 66.75 L31.0 77.5 Q19.25 85.5 3.5 87.25 L-16.5 84.5 -31.25 77.0 -39.5 68.25 Q-66.0 54.5 -64.75 27.5 L-77.0 40.25 -81.5 44.25 Q-81.75 45.5 -86.0 46.5 L-90.0 45.0 -91.25 41.0 Q-91.75 36.75 -88.25 30.25 L-87.75 29.25 -86.75 27.75 -86.5 27.25 -86.0 26.75 -85.0 25.25 -84.5 24.75 -84.0 24.0 -84.0 23.75 -83.25 23.0 -82.75 22.25 -82.75 22.0 -81.0 19.75 -77.5 14.25 -61.5 -6.0 -47.5 -21.0 Q-20.25 -61.5 -1.0 -65.0 14.5 -67.5 49.0 -17.5 L58.5 -4.5" fill="#2e47aa" fill-rule="evenodd" stroke="none"/>
  </g>
</svg>
