<?xml version="1.0" encoding="UTF-8" standalone="no"?>
<svg xmlns:ffdec="https://www.free-decompiler.com/flash" xmlns:xlink="http://www.w3.org/1999/xlink" ffdec:objectType="shape" height="152.25px" width="180.55px" xmlns="http://www.w3.org/2000/svg">
  <g transform="matrix(1.0, 0.0, 0.0, 1.0, 94.55, 65.0)">
    <path d="M60.0 -4.0 L71.75 13.5 80.75 29.0 85.75 44.25 86.0 51.25 82.5 61.0 Q78.5 66.0 74.25 67.0 L71.0 66.75 Q68.5 65.25 69.0 61.5 L68.25 56.25 68.5 36.75 63.0 30.75 62.5 35.5 Q63.25 51.0 40.75 66.75 L31.0 77.5 Q19.25 85.5 3.5 87.25 L-16.5 84.5 -31.25 77.0 -39.5 68.25 Q-67.25 55.75 -64.25 20.75 L-67.75 23.75 -82.75 39.75 -88.75 42.75 Q-98.0 42.5 -92.5 29.75 L-88.0 21.75 Q-85.75 20.5 -84.5 17.25 L-81.0 14.25 -76.75 8.5 -63.5 -6.25 -51.75 -18.0 -46.5 -22.25 Q-20.75 -61.0 -1.0 -65.0 18.5 -63.75 48.0 -19.0 L60.0 -4.0" fill="#2e47aa" fill-rule="evenodd" stroke="none"/>
  </g>
</svg>
