<?xml version="1.0" encoding="UTF-8" standalone="no"?>
<svg xmlns:ffdec="https://www.free-decompiler.com/flash" xmlns:xlink="http://www.w3.org/1999/xlink" ffdec:objectType="shape" height="152.3px" width="185.45px" xmlns="http://www.w3.org/2000/svg">
  <g transform="matrix(1.0, 0.0, 0.0, 1.0, 97.75, 65.05)">
    <path d="M59.75 -5.5 L71.75 11.0 82.0 27.5 86.0 37.0 Q91.25 58.75 80.5 66.25 76.0 69.25 74.25 61.75 L73.0 57.0 70.5 35.5 63.5 28.25 62.5 35.5 Q63.25 51.0 40.75 66.75 L31.0 77.5 Q19.25 85.5 3.5 87.25 L-16.5 84.5 -31.25 77.0 -39.5 68.25 Q-68.0 57.0 -63.5 16.5 L-78.75 29.0 -86.0 36.75 -92.0 39.5 Q-94.5 39.75 -96.25 38.5 L-97.75 34.25 Q-92.0 15.25 -81.5 10.0 L-63.25 -8.75 -50.5 -20.0 -45.75 -23.25 Q-21.25 -60.5 -1.0 -65.0 15.25 -66.25 47.5 -19.75 L59.75 -5.5" fill="#2e47aa" fill-rule="evenodd" stroke="none"/>
  </g>
</svg>
