<?xml version="1.0" encoding="UTF-8" standalone="no"?>
<svg xmlns:ffdec="https://www.free-decompiler.com/flash" xmlns:xlink="http://www.w3.org/1999/xlink" ffdec:objectType="shape" height="152.25px" width="190.35px" xmlns="http://www.w3.org/2000/svg">
  <g transform="matrix(1.0, 0.0, 0.0, 1.0, 100.25, 65.0)">
    <path d="M46.75 -20.75 L59.25 -7.25 72.75 10.25 81.75 24.0 83.75 28.0 Q95.0 42.25 86.25 65.25 81.0 69.25 79.5 63.0 L77.25 57.0 72.25 34.5 63.5 25.75 62.5 35.5 Q63.25 51.0 40.75 66.75 L31.0 77.5 Q19.25 85.5 3.5 87.25 L-16.5 84.5 -31.25 77.0 -39.5 68.25 Q-72.5 50.0 -62.75 13.25 L-83.0 28.25 -85.0 30.25 -86.25 31.0 -87.5 32.25 -91.25 35.25 -95.75 36.5 -99.5 34.75 -100.25 29.25 Q-97.0 16.0 -78.75 3.5 L-64.25 -9.75 -47.25 -22.75 -46.5 -23.0 -46.0 -23.25 -45.25 -24.0 Q-21.5 -60.0 -1.0 -65.0 15.5 -65.75 46.75 -20.75" fill="#2e47aa" fill-rule="evenodd" stroke="none"/>
  </g>
</svg>
