<?xml version="1.0" encoding="UTF-8" standalone="no"?>
<svg xmlns:ffdec="https://www.free-decompiler.com/flash" xmlns:xlink="http://www.w3.org/1999/xlink" ffdec:objectType="shape" height="152.25px" width="195.35px" xmlns="http://www.w3.org/2000/svg">
  <g transform="matrix(1.0, 0.0, 0.0, 1.0, 102.85, 65.0)">
    <path d="M46.75 -21.0 L59.5 -7.75 71.5 7.0 83.0 23.5 83.5 24.5 83.5 25.0 84.0 25.5 89.0 33.75 91.0 39.5 92.5 54.75 Q92.25 61.25 90.75 64.5 88.5 69.5 84.0 63.25 L78.5 49.75 73.75 33.5 63.0 23.25 63.75 28.0 62.5 35.5 Q63.25 51.0 40.75 66.75 L31.0 77.5 Q19.25 85.5 3.5 87.25 L-16.5 84.5 -31.25 77.0 -39.5 68.25 Q-72.75 51.5 -62.0 10.25 L-85.5 26.25 -91.5 31.25 Q-95.5 33.5 -98.5 33.5 L-102.25 31.5 Q-103.75 27.5 -101.5 23.5 L-94.75 12.75 -90.25 8.5 -70.75 -5.75 -63.5 -12.0 -47.5 -23.0 -45.0 -24.25 Q-21.5 -60.0 -1.0 -65.0 15.5 -65.75 46.75 -21.0" fill="#2e47aa" fill-rule="evenodd" stroke="none"/>
  </g>
</svg>
