<?xml version="1.0" encoding="UTF-8" standalone="no"?>
<svg xmlns:ffdec="https://www.free-decompiler.com/flash" xmlns:xlink="http://www.w3.org/1999/xlink" ffdec:objectType="shape" height="152.25px" width="199.5px" xmlns="http://www.w3.org/2000/svg">
  <g transform="matrix(1.0, 0.0, 0.0, 1.0, 104.75, 65.0)">
    <path d="M59.25 -8.75 L71.5 6.0 72.0 6.5 72.25 7.0 76.75 12.75 77.0 13.25 77.5 13.75 77.75 14.25 78.25 14.75 78.5 15.25 84.25 23.5 84.25 23.75 86.5 27.0 86.75 27.5 Q93.75 31.0 94.75 64.25 93.5 69.25 88.25 64.0 L83.0 53.75 74.75 32.75 74.75 32.5 74.25 31.75 63.25 21.75 63.75 28.0 62.5 35.5 Q63.25 51.0 40.75 66.75 L31.0 77.5 Q19.25 85.5 3.5 87.25 L-16.5 84.5 -31.25 77.0 -39.5 68.25 Q-74.75 49.0 -61.25 8.25 L-88.0 24.5 Q-97.75 34.5 -104.5 28.5 L-104.75 24.75 -103.75 22.0 -103.25 21.0 Q-104.25 12.0 -67.25 -10.25 L-66.75 -10.75 -60.0 -15.75 -51.25 -21.5 -44.75 -24.75 Q-17.25 -64.0 -1.0 -65.0 15.75 -65.25 46.25 -21.75 L59.25 -8.75" fill="#2e47aa" fill-rule="evenodd" stroke="none"/>
  </g>
</svg>
