<?xml version="1.0" encoding="UTF-8" standalone="no"?>
<svg xmlns:ffdec="https://www.free-decompiler.com/flash" xmlns:xlink="http://www.w3.org/1999/xlink" ffdec:objectType="shape" height="152.25px" width="204.55px" xmlns="http://www.w3.org/2000/svg">
  <g transform="matrix(1.0, 0.0, 0.0, 1.0, 106.3, 65.0)">
    <path d="M60.0 -8.5 L72.0 5.5 72.5 6.0 72.75 6.5 75.5 9.75 75.5 10.0 76.25 10.75 76.5 11.25 77.0 11.75 77.25 12.25 77.75 12.75 84.25 21.75 Q94.75 29.75 98.25 64.5 97.25 69.25 92.0 64.5 L83.75 50.25 75.0 30.75 62.75 19.75 63.5 28.0 62.5 35.5 Q63.25 51.0 40.75 66.75 L31.0 77.5 Q19.25 85.5 3.5 87.25 L-16.5 84.5 -31.25 77.0 -39.5 68.25 Q-74.75 50.0 -61.0 6.5 L-79.5 17.0 -80.25 17.5 -81.25 18.0 -82.0 18.5 -90.0 23.0 Q-103.5 32.75 -106.25 26.0 L-106.25 25.75 Q-107.5 8.75 -70.0 -10.5 L-66.25 -12.25 -49.25 -23.25 -44.25 -25.25 Q-17.5 -64.0 -1.0 -65.0 15.75 -65.25 46.25 -21.75 L60.0 -8.5" fill="#2e47aa" fill-rule="evenodd" stroke="none"/>
  </g>
</svg>
