<?xml version="1.0" encoding="UTF-8" standalone="no"?>
<svg xmlns:ffdec="https://www.free-decompiler.com/flash" xmlns:xlink="http://www.w3.org/1999/xlink" ffdec:objectType="shape" height="152.25px" width="208.85px" xmlns="http://www.w3.org/2000/svg">
  <g transform="matrix(1.0, 0.0, 0.0, 1.0, 108.0, 65.0)">
    <path d="M62.25 -6.25 L73.25 6.0 73.5 6.5 74.5 7.75 75.25 8.5 75.5 9.0 76.0 9.5 76.5 10.25 77.0 10.75 84.5 20.75 84.75 21.25 85.75 22.5 Q93.0 25.5 100.75 62.75 L100.75 63.0 Q101.5 70.75 95.0 65.25 L87.25 53.0 75.25 29.5 62.5 18.5 63.75 27.5 62.5 35.5 Q63.25 51.0 40.75 66.75 L31.0 77.5 Q19.25 85.5 3.5 87.25 L-16.5 84.5 -31.25 77.0 -39.5 68.25 Q-75.25 50.75 -60.25 5.0 L-91.75 21.75 -97.25 25.5 Q-103.0 28.0 -106.0 26.5 -108.0 26.25 -108.0 21.75 L-103.5 11.75 -99.0 6.5 -80.75 -6.25 -73.5 -10.0 -69.0 -11.75 -58.75 -18.25 -49.0 -23.75 -44.25 -25.5 Q-18.0 -63.25 -1.0 -65.0 16.0 -65.0 46.0 -22.25 L62.25 -6.25" fill="#2e47aa" fill-rule="evenodd" stroke="none"/>
  </g>
</svg>
