<?xml version="1.0" encoding="UTF-8" standalone="no"?>
<svg xmlns:ffdec="https://www.free-decompiler.com/flash" xmlns:xlink="http://www.w3.org/1999/xlink" ffdec:objectType="shape" height="152.25px" width="211.8px" xmlns="http://www.w3.org/2000/svg">
  <g transform="matrix(1.0, 0.0, 0.0, 1.0, 108.35, 65.0)">
    <path d="M61.0 -8.0 L72.75 4.75 74.25 6.75 75.0 7.5 75.5 8.25 76.0 8.75 86.0 21.75 86.5 22.25 Q93.0 25.0 103.25 63.5 104.5 71.75 97.75 66.0 L87.75 51.25 75.5 28.75 61.75 17.25 Q63.5 20.25 63.75 27.5 L62.5 35.5 Q63.25 51.0 40.75 66.75 L31.0 77.5 Q19.25 85.5 3.5 87.25 L-16.5 84.5 -31.25 77.0 -39.5 68.25 Q-75.25 51.25 -60.0 4.0 L-92.75 20.5 Q-112.0 33.0 -107.5 15.0 -105.0 12.75 -104.75 10.5 L-100.25 5.5 -88.25 -3.0 -74.75 -10.25 -72.0 -10.5 -60.75 -17.75 -49.5 -23.75 -44.0 -25.75 Q-18.25 -63.0 -1.0 -65.0 16.0 -65.0 46.0 -22.25 L61.0 -8.0" fill="#2e47aa" fill-rule="evenodd" stroke="none"/>
  </g>
</svg>
