<?xml version="1.0" encoding="UTF-8" standalone="no"?>
<svg xmlns:ffdec="https://www.free-decompiler.com/flash" xmlns:xlink="http://www.w3.org/1999/xlink" ffdec:objectType="shape" height="152.25px" width="215.6px" xmlns="http://www.w3.org/2000/svg">
  <g transform="matrix(1.0, 0.0, 0.0, 1.0, 110.0, 65.0)">
    <path d="M61.5 -7.75 L72.25 3.75 73.0 4.75 74.0 5.75 74.25 6.25 75.0 7.0 86.0 21.0 86.5 21.5 Q92.5 23.75 105.25 64.5 107.0 73.25 99.75 67.0 L89.75 52.75 75.75 28.25 62.25 17.0 63.75 27.5 62.5 35.5 Q63.25 51.0 40.75 66.75 L31.0 77.5 Q19.25 85.5 3.5 87.25 L-16.5 84.5 -31.25 77.0 -39.5 68.25 Q-75.5 51.5 -59.75 3.25 L-93.5 19.5 Q-104.5 28.25 -109.75 21.75 L-110.0 21.5 -109.0 15.25 Q-105.25 10.5 -105.75 9.5 L-97.75 2.25 -90.25 -2.75 -80.0 -7.75 -75.75 -9.0 -63.25 -16.75 -51.25 -23.0 -43.75 -26.0 Q-18.25 -63.0 -1.0 -65.0 16.0 -65.0 46.0 -22.25 L61.5 -7.75" fill="#2e47aa" fill-rule="evenodd" stroke="none"/>
  </g>
</svg>
