<?xml version="1.0" encoding="UTF-8" standalone="no"?>
<svg xmlns:ffdec="https://www.free-decompiler.com/flash" xmlns:xlink="http://www.w3.org/1999/xlink" ffdec:objectType="shape" height="152.25px" width="217.7px" xmlns="http://www.w3.org/2000/svg">
  <g transform="matrix(1.0, 0.0, 0.0, 1.0, 110.5, 65.0)">
    <path d="M60.0 -9.5 L72.5 3.75 73.25 4.75 74.0 5.5 84.5 18.5 84.75 19.0 92.75 29.25 99.5 44.25 107.0 65.75 Q108.25 75.0 101.25 68.25 L91.0 53.75 75.75 27.75 62.25 16.75 63.75 27.5 62.5 35.5 Q63.25 51.0 40.75 66.75 L31.0 77.5 Q19.25 85.5 3.5 87.25 L-16.5 84.5 -31.25 77.0 -39.5 68.25 Q-75.5 51.75 -59.75 2.75 L-93.75 19.0 Q-108.0 28.25 -110.5 21.25 L-110.5 20.75 Q-108.0 2.0 -82.5 -6.0 L-82.25 -6.0 -80.5 -6.75 -62.0 -17.75 -50.5 -23.5 -43.75 -26.0 Q-18.25 -63.0 -1.0 -65.0 16.0 -65.0 46.0 -22.25 L60.0 -9.5" fill="#2e47aa" fill-rule="evenodd" stroke="none"/>
  </g>
</svg>
