<?xml version="1.0" encoding="UTF-8" standalone="no"?>
<svg xmlns:ffdec="https://www.free-decompiler.com/flash" xmlns:xlink="http://www.w3.org/1999/xlink" ffdec:objectType="shape" height="152.25px" width="219.95px" xmlns="http://www.w3.org/2000/svg">
  <g transform="matrix(1.0, 0.0, 0.0, 1.0, 111.5, 65.0)">
    <path d="M61.0 -8.5 L73.25 4.5 74.0 5.5 74.5 6.0 77.25 9.5 78.0 10.25 78.25 10.75 84.25 18.0 84.0 18.5 84.75 18.75 85.0 19.25 86.0 20.5 86.75 21.25 87.0 21.75 93.0 29.5 100.75 46.75 108.0 67.5 Q110.0 76.5 102.75 70.25 L88.0 49.0 76.0 27.75 61.75 16.25 63.75 27.5 62.5 35.5 Q63.25 51.0 40.75 66.75 L31.0 77.5 Q19.25 85.5 3.5 87.25 L-16.5 84.5 -31.25 77.0 -39.5 68.25 Q-75.5 51.75 -59.5 2.75 L-94.0 18.75 -100.25 23.0 -107.0 24.25 -110.5 22.5 Q-112.5 19.25 -110.5 14.75 -107.5 4.75 -86.5 -3.25 L-86.0 -3.25 -85.75 -3.75 -84.0 -4.75 -83.75 -5.0 -83.25 -5.25 -61.75 -18.0 -49.25 -24.25 -43.75 -26.0 Q-18.25 -63.0 -1.0 -65.0 16.0 -65.0 46.0 -22.25 L49.5 -19.75 61.0 -8.5" fill="#2e47aa" fill-rule="evenodd" stroke="none"/>
  </g>
</svg>
