<?xml version="1.0" encoding="UTF-8" standalone="no"?>
<svg xmlns:ffdec="https://www.free-decompiler.com/flash" xmlns:xlink="http://www.w3.org/1999/xlink" ffdec:objectType="shape" height="152.25px" width="219.95px" xmlns="http://www.w3.org/2000/svg">
  <g transform="matrix(1.0, 0.0, 0.0, 1.0, 111.5, 65.0)">
    <path d="M60.75 -8.75 L73.0 4.25 73.75 5.25 74.5 6.0 77.25 9.5 78.0 10.25 78.25 10.75 84.25 18.0 84.0 18.5 84.75 18.75 85.0 19.25 86.25 20.75 86.75 21.25 92.25 28.0 100.0 44.5 105.75 59.0 108.0 66.75 Q110.0 75.25 102.75 69.5 L89.0 50.25 76.0 27.75 62.0 16.5 63.75 27.5 62.5 35.5 Q63.25 51.0 40.75 66.75 L31.0 77.5 Q19.25 85.5 3.5 87.25 L-16.5 84.5 -31.25 77.0 -39.5 68.25 Q-75.5 51.75 -59.75 2.75 L-93.75 18.75 Q-107.75 28.5 -110.75 21.25 L-111.5 19.5 Q-109.5 16.0 -110.5 14.5 L-108.25 12.0 -107.5 9.75 -100.0 3.0 Q-93.5 -2.0 -85.25 -4.0 L-84.25 -4.5 -84.0 -4.75 -62.5 -17.5 -47.5 -25.0 -43.75 -26.0 Q-18.25 -63.0 -1.0 -65.0 16.0 -65.0 46.0 -22.25 L49.75 -19.5 60.75 -8.75" fill="#2e47aa" fill-rule="evenodd" stroke="none"/>
  </g>
</svg>
