<?xml version="1.0" encoding="UTF-8" standalone="no"?>
<svg xmlns:ffdec="https://www.free-decompiler.com/flash" xmlns:xlink="http://www.w3.org/1999/xlink" ffdec:objectType="shape" height="152.25px" width="219.35px" xmlns="http://www.w3.org/2000/svg">
  <g transform="matrix(1.0, 0.0, 0.0, 1.0, 111.25, 65.0)">
    <path d="M60.5 -9.0 L72.75 4.0 73.75 5.25 74.25 5.75 77.25 9.5 77.75 10.0 78.25 10.75 79.0 11.5 79.25 12.0 84.5 18.75 84.75 19.0 86.0 20.5 86.5 21.0 92.25 28.0 95.0 33.5 105.25 58.0 107.75 66.0 Q109.5 75.5 102.25 68.75 L88.75 49.75 76.0 27.75 62.0 16.5 63.75 27.5 62.5 35.5 Q63.25 51.0 40.75 66.75 L31.0 77.5 Q19.25 85.5 3.5 87.25 L-16.5 84.5 -31.25 77.0 -39.5 68.25 Q-75.5 51.75 -59.75 3.0 L-94.0 19.25 Q-108.0 28.5 -110.5 21.75 L-110.75 21.25 Q-112.0 20.5 -110.25 14.75 L-107.25 10.0 -100.0 3.25 -94.25 -0.5 -84.5 -4.5 -83.5 -4.75 -83.25 -5.0 -62.25 -17.5 -51.5 -23.0 -43.75 -26.0 Q-18.25 -63.0 -1.0 -65.0 16.0 -65.0 46.0 -22.25 L60.5 -9.0" fill="#2e47aa" fill-rule="evenodd" stroke="none"/>
  </g>
</svg>
