<?xml version="1.0" encoding="UTF-8" standalone="no"?>
<svg xmlns:ffdec="https://www.free-decompiler.com/flash" xmlns:xlink="http://www.w3.org/1999/xlink" ffdec:objectType="shape" height="152.25px" width="218.1px" xmlns="http://www.w3.org/2000/svg">
  <g transform="matrix(1.0, 0.0, 0.0, 1.0, 110.5, 65.0)">
    <path d="M60.0 -9.5 L72.5 3.75 73.5 5.0 74.0 5.5 77.0 9.25 77.5 9.75 78.0 10.5 78.75 11.25 79.0 11.75 84.5 18.5 84.75 19.0 85.75 20.25 86.25 20.75 93.25 30.0 101.25 48.0 107.25 65.75 Q109.0 75.0 101.75 68.25 L91.75 54.5 76.0 28.0 62.25 16.75 63.75 27.5 62.5 35.5 Q63.25 51.0 40.75 66.75 L31.0 77.5 Q19.25 85.5 3.5 87.25 L-16.5 84.5 -31.25 77.0 -39.5 68.25 Q-75.5 51.5 -59.75 3.25 L-93.75 19.75 Q-107.5 29.5 -110.5 22.25 -110.0 5.25 -84.5 -4.25 L-82.75 -4.75 -82.5 -5.0 -62.75 -17.0 -48.75 -24.25 -44.0 -25.75 Q-18.25 -63.0 -1.0 -65.0 16.0 -65.0 46.0 -22.25 L60.0 -9.5" fill="#2e47aa" fill-rule="evenodd" stroke="none"/>
  </g>
</svg>
