<?xml version="1.0" encoding="UTF-8" standalone="no"?>
<svg xmlns:ffdec="https://www.free-decompiler.com/flash" xmlns:xlink="http://www.w3.org/1999/xlink" ffdec:objectType="shape" height="152.25px" width="217.25px" xmlns="http://www.w3.org/2000/svg">
  <g transform="matrix(1.0, 0.0, 0.0, 1.0, 110.75, 65.0)">
    <path d="M59.25 -10.25 L73.75 5.25 77.75 10.25 78.5 11.0 78.75 11.5 84.5 18.5 84.5 18.75 85.0 19.5 85.5 20.0 86.25 21.0 86.75 21.5 Q93.0 23.75 106.25 65.25 107.75 74.25 101.0 68.0 L89.75 52.0 76.0 28.0 62.25 16.75 63.75 27.5 62.5 35.5 Q63.25 51.0 40.75 66.75 L31.0 77.5 Q19.25 85.5 3.5 87.25 L-16.5 84.5 -31.25 77.0 -39.5 68.25 Q-75.25 51.25 -60.0 3.75 L-93.25 20.25 Q-106.25 30.25 -110.25 23.0 L-110.75 21.75 -110.0 16.5 -107.5 13.25 -107.0 11.25 -99.5 4.25 -94.0 0.5 -88.0 -2.75 -82.75 -4.25 Q-72.85 -10.35 -63.0 -16.5 L-51.0 -23.0 -44.0 -25.75 Q-18.0 -63.25 -1.0 -65.0 16.0 -65.0 46.0 -22.25 L59.25 -10.25" fill="#2e47aa" fill-rule="evenodd" stroke="none"/>
  </g>
</svg>
