<?xml version="1.0" encoding="UTF-8" standalone="no"?>
<svg xmlns:ffdec="https://www.free-decompiler.com/flash" xmlns:xlink="http://www.w3.org/1999/xlink" ffdec:objectType="shape" height="152.25px" width="215.6px" xmlns="http://www.w3.org/2000/svg">
  <g transform="matrix(1.0, 0.0, 0.0, 1.0, 110.0, 65.0)">
    <path d="M54.5 -15.0 L73.25 4.75 74.0 5.75 74.5 6.25 77.5 10.0 78.0 10.5 78.25 11.0 79.25 12.0 79.25 12.25 84.75 19.0 85.0 19.5 85.5 20.25 86.0 20.75 86.25 21.25 87.0 22.0 87.25 22.5 92.0 28.25 99.75 46.25 103.75 58.0 105.25 65.0 Q107.0 73.25 99.75 67.5 L88.25 50.5 75.75 28.0 62.25 17.0 63.75 27.5 62.5 35.5 Q63.25 51.0 40.75 66.75 L31.0 77.5 Q19.25 85.5 3.5 87.25 L-16.5 84.5 -31.25 77.0 -39.5 68.25 Q-75.25 51.0 -60.25 4.25 L-93.0 21.0 Q-107.0 31.0 -110.0 24.25 L-110.0 23.5 Q-109.25 6.25 -83.75 -3.25 L-82.25 -3.75 -62.75 -16.25 -52.0 -22.25 -44.25 -25.5 Q-18.0 -63.25 -1.0 -65.0 16.0 -65.0 46.0 -22.25 L54.5 -15.0" fill="#2e47aa" fill-rule="evenodd" stroke="none"/>
  </g>
</svg>
