<?xml version="1.0" encoding="UTF-8" standalone="no"?>
<svg xmlns:ffdec="https://www.free-decompiler.com/flash" xmlns:xlink="http://www.w3.org/1999/xlink" ffdec:objectType="shape" height="152.25px" width="213.85px" xmlns="http://www.w3.org/2000/svg">
  <g transform="matrix(1.0, 0.0, 0.0, 1.0, 109.75, 65.0)">
    <path d="M61.75 -7.5 L74.0 5.75 78.0 10.75 78.75 11.5 79.0 12.0 84.5 18.75 84.25 19.25 85.0 19.5 85.0 19.75 92.0 28.75 96.25 38.5 101.25 53.0 104.0 65.0 Q105.0 73.5 98.0 67.0 L86.5 48.75 75.75 28.0 62.25 17.0 63.75 27.5 62.5 35.5 Q63.25 51.0 40.75 66.75 L31.0 77.5 Q19.25 85.5 3.5 87.25 L-16.5 84.5 -31.25 77.0 -39.5 68.25 Q-75.25 50.75 -60.25 5.0 L-92.75 22.0 Q-105.5 32.25 -109.5 25.5 L-109.75 25.0 Q-108.0 6.0 -83.5 -2.25 L-62.5 -16.0 -49.75 -23.25 -44.25 -25.25 Q-17.5 -64.0 -1.0 -65.0 16.0 -65.0 46.0 -22.25 L61.75 -7.5" fill="#2e47aa" fill-rule="evenodd" stroke="none"/>
  </g>
</svg>
