<?xml version="1.0" encoding="UTF-8" standalone="no"?>
<svg xmlns:ffdec="https://www.free-decompiler.com/flash" xmlns:xlink="http://www.w3.org/1999/xlink" ffdec:objectType="shape" height="152.25px" width="212.25px" xmlns="http://www.w3.org/2000/svg">
  <g transform="matrix(1.0, 0.0, 0.0, 1.0, 110.0, 65.0)">
    <path d="M46.0 -22.25 L60.5 -8.75 73.5 5.25 77.5 10.25 78.0 10.75 78.5 11.5 84.75 19.25 85.25 20.25 Q94.25 26.25 101.75 61.75 L102.0 63.5 102.25 64.0 102.25 65.25 Q102.5 73.25 96.25 66.75 L86.75 50.75 76.75 30.5 76.75 30.25 75.5 28.0 62.25 17.0 63.75 27.5 62.5 35.5 Q63.25 51.0 40.75 66.75 L31.0 77.5 Q19.25 85.5 3.5 87.25 L-16.5 84.5 -31.25 77.0 -39.5 68.25 Q-75.0 50.25 -60.5 5.75 L-92.25 23.0 Q-106.0 33.75 -109.25 26.75 L-109.25 26.25 Q-114.5 15.0 -83.0 -1.5 L-64.75 -14.0 -47.0 -24.0 -46.25 -24.25 -45.75 -24.5 -45.0 -24.75 -44.5 -25.0 Q-17.5 -64.0 -1.0 -65.0 16.0 -65.0 46.0 -22.25" fill="#2e47aa" fill-rule="evenodd" stroke="none"/>
  </g>
</svg>
