<?xml version="1.0" encoding="UTF-8" standalone="no"?>
<svg xmlns:ffdec="https://www.free-decompiler.com/flash" xmlns:xlink="http://www.w3.org/1999/xlink" ffdec:objectType="shape" height="336.6px" width="352.6px" xmlns="http://www.w3.org/2000/svg">
  <g transform="matrix(1.0, 0.0, 0.0, 1.0, 184.6, 150.65)">
    <path d="M-51.0 -118.25 L-50.25 -115.25 -64.5 -90.5 -73.55 -106.0 Q-77.0 -111.9 -75.55 -118.4 -66.7 -158.9 -29.0 -148.5 L-29.5 -146.75 Q-50.05 -144.6 -50.85 -121.1 L-51.0 -118.25 M-121.0 93.75 L-121.25 91.75 -116.75 87.0 Q-117.15 127.4 -92.25 157.75 -120.25 135.75 -129.5 115.5 L-123.25 103.0 -122.75 102.75 -122.45 101.4 Q-120.85 98.0 -121.5 94.25 L-121.0 93.75 M-20.5 179.75 Q-26.45 185.1 -34.4 185.8 -60.5 187.75 -79.75 167.0 -56.5 179.45 -30.0 180.0 L-20.5 179.75" fill="#e58508" fill-rule="evenodd" stroke="none"/>
    <path d="M121.9 42.35 Q114.15 125.25 41.5 164.25 11.85 177.15 -19.95 181.8 -30.75 183.35 -39.65 180.9 -96.85 166.0 -129.25 115.5 -134.55 123.85 -141.0 130.5 -156.5 147.1 -178.4 152.75 L-181.25 153.5 Q-186.3 150.8 -183.75 146.25 L-182.3 148.0 Q-164.8 143.45 -133.5 116.25 L-131.6 115.9 Q-130.4 114.85 -129.75 113.65 -126.2 107.05 -123.75 100.25 L-123.5 101.75 -122.75 101.5 Q-121.8 98.85 -121.85 96.25 -121.9 90.9 -129.0 91.25 -114.7 81.75 -101.75 70.25 L-75.25 42.5 -74.75 42.75 -76.15 44.6 Q-97.5 73.2 -107.25 102.0 L-108.0 102.25 Q-101.15 144.3 -61.6 158.85 7.75 184.5 65.6 136.35 136.35 77.45 114.25 -14.0 124.65 13.25 121.9 42.35 M120.75 -30.75 L107.5 -37.75 Q106.5 -36.75 109.75 -29.0 L103.25 -40.75 94.0 -53.0 132.25 -35.0 Q135.75 -33.25 137.0 -34.0 L144.5 -31.0 Q145.75 -28.0 135.5 -20.75 L138.0 -15.25 Q143.0 -8.5 145.5 -10.0 L158.25 4.0 Q167.5 7.0 163.25 -6.75 L165.25 -1.5 Q171.25 26.75 164.25 32.75 160.25 33.25 149.0 16.25 L142.5 5.25 138.0 -0.75 120.75 -30.75" fill="#000000" fill-opacity="0.49803922" fill-rule="evenodd" stroke="none"/>
  </g>
</svg>
