<?xml version="1.0" encoding="UTF-8" standalone="no"?>
<svg xmlns:ffdec="https://www.free-decompiler.com/flash" xmlns:xlink="http://www.w3.org/1999/xlink" ffdec:objectType="shape" height="152.25px" width="210.0px" xmlns="http://www.w3.org/2000/svg">
  <g transform="matrix(1.0, 0.0, 0.0, 1.0, 109.25, 65.0)">
    <path d="M46.0 -22.25 L57.75 -11.75 78.5 11.5 78.75 12.0 84.75 19.5 85.25 20.25 85.25 20.5 Q95.0 26.25 100.5 65.25 L100.5 66.25 100.75 66.75 99.0 69.5 Q96.75 69.75 94.25 66.5 L88.25 56.0 75.75 29.0 75.5 28.25 75.25 28.0 62.25 17.25 63.75 27.5 62.5 35.5 Q63.25 51.0 40.75 66.75 L31.0 77.5 Q19.25 85.5 3.5 87.25 L-16.5 84.5 -31.25 77.0 -39.5 68.25 Q-75.0 50.0 -60.75 6.5 L-91.5 24.0 Q-105.0 35.25 -108.75 28.25 L-108.75 27.75 -109.25 26.0 -108.5 21.5 -106.25 18.5 -105.75 16.25 -98.25 8.75 -93.75 5.5 -84.25 0.5 -65.0 -13.25 -51.0 -22.0 -45.25 -24.5 -44.5 -25.0 Q-17.25 -64.0 -1.0 -65.0 16.0 -65.0 46.0 -22.25" fill="#2e47aa" fill-rule="evenodd" stroke="none"/>
  </g>
</svg>
