<?xml version="1.0" encoding="UTF-8" standalone="no"?>
<svg xmlns:ffdec="https://www.free-decompiler.com/flash" xmlns:xlink="http://www.w3.org/1999/xlink" ffdec:objectType="shape" height="152.25px" width="206.75px" xmlns="http://www.w3.org/2000/svg">
  <g transform="matrix(1.0, 0.0, 0.0, 1.0, 108.25, 65.0)">
    <path d="M61.75 -7.25 L77.5 10.5 78.25 11.5 79.0 12.25 79.25 12.75 84.5 19.5 85.0 20.0 85.75 21.25 Q96.75 31.75 98.5 66.75 L96.5 69.5 Q92.5 68.25 92.25 66.5 L87.75 58.5 75.0 28.0 62.25 17.5 63.75 27.5 62.5 35.5 Q63.25 51.0 40.75 66.75 L31.0 77.5 Q19.25 85.5 3.5 87.25 L-16.5 84.5 -31.25 77.0 -39.5 68.25 Q-74.75 49.5 -61.25 7.5 L-89.25 24.75 -91.5 25.5 Q-104.25 36.75 -108.25 29.75 L-108.0 23.5 Q-104.5 18.75 -105.25 17.75 L-99.5 11.5 -95.75 8.5 -85.0 2.25 -66.25 -11.75 -49.75 -22.5 -44.75 -24.75 Q-17.25 -64.25 -1.0 -65.0 16.0 -65.0 46.0 -22.25 L61.75 -7.25" fill="#2e47aa" fill-rule="evenodd" stroke="none"/>
  </g>
</svg>
