<?xml version="1.0" encoding="UTF-8" standalone="no"?>
<svg xmlns:ffdec="https://www.free-decompiler.com/flash" xmlns:xlink="http://www.w3.org/1999/xlink" ffdec:objectType="shape" height="152.25px" width="203.5px" xmlns="http://www.w3.org/2000/svg">
  <g transform="matrix(1.0, 0.0, 0.0, 1.0, 107.5, 65.0)">
    <path d="M60.5 -8.5 L77.75 11.0 78.5 12.0 79.25 12.75 79.5 13.25 84.75 19.75 84.75 20.0 85.25 20.5 85.75 21.5 85.75 21.75 Q96.5 29.0 96.0 66.75 L93.75 69.25 Q90.0 68.25 89.25 65.75 L85.75 58.5 74.75 28.0 62.25 17.75 63.75 27.5 62.5 35.5 Q63.25 51.0 40.75 66.75 L31.0 77.5 Q19.25 85.5 3.5 87.25 L-16.5 84.5 -31.25 77.0 -39.5 68.25 Q-74.5 49.0 -61.5 8.5 L-89.0 26.25 -90.75 26.75 Q-103.0 38.25 -107.5 31.5 L-107.25 25.0 Q-104.5 21.75 -104.75 19.5 -100.5 15.5 -100.75 14.5 L-96.0 10.5 -86.0 4.5 -67.25 -10.25 -51.25 -21.25 -45.0 -24.5 Q-17.0 -64.25 -1.0 -65.0 16.0 -65.25 46.0 -22.0 L49.25 -19.75 60.5 -8.5" fill="#2e47aa" fill-rule="evenodd" stroke="none"/>
  </g>
</svg>
