<?xml version="1.0" encoding="UTF-8" standalone="no"?>
<svg xmlns:ffdec="https://www.free-decompiler.com/flash" xmlns:xlink="http://www.w3.org/1999/xlink" ffdec:objectType="shape" height="152.25px" width="202.1px" xmlns="http://www.w3.org/2000/svg">
  <g transform="matrix(1.0, 0.0, 0.0, 1.0, 107.0, 65.0)">
    <path d="M62.25 -6.5 L74.25 6.75 78.0 11.5 78.5 12.0 78.75 12.5 79.5 13.25 79.75 13.75 84.75 20.25 85.25 20.75 90.5 30.0 Q98.0 52.0 93.25 66.75 90.5 72.75 86.25 64.5 L83.75 59.0 74.5 28.0 62.5 18.0 63.75 27.5 62.5 35.5 Q63.25 51.0 40.75 66.75 L31.0 77.5 Q19.25 85.5 3.5 87.25 L-16.5 84.5 -31.25 77.0 -39.5 68.25 Q-74.5 48.25 -61.75 9.75 L-90.25 28.25 -96.25 33.75 Q-100.25 35.75 -102.5 35.5 -104.5 36.0 -106.5 34.25 L-107.0 30.25 Q-103.5 13.75 -87.0 7.0 L-64.25 -11.75 -50.5 -21.5 -45.0 -24.25 Q-21.5 -60.0 -1.0 -65.0 16.0 -65.25 46.0 -22.0 L50.5 -18.5 62.25 -6.5" fill="#2e47aa" fill-rule="evenodd" stroke="none"/>
  </g>
</svg>
