<?xml version="1.0" encoding="UTF-8" standalone="no"?>
<svg xmlns:ffdec="https://www.free-decompiler.com/flash" xmlns:xlink="http://www.w3.org/1999/xlink" ffdec:objectType="shape" height="152.25px" width="199.7px" xmlns="http://www.w3.org/2000/svg">
  <g transform="matrix(1.0, 0.0, 0.0, 1.0, 106.25, 65.0)">
    <path d="M52.25 -16.75 L74.25 7.0 78.0 11.75 78.5 12.25 Q78.3 12.9 79.0 13.0 L84.75 20.5 85.25 21.0 86.25 23.0 Q98.25 33.5 90.25 66.75 86.5 72.25 83.5 64.5 L81.25 58.75 74.0 28.0 62.5 18.25 63.75 27.5 62.5 35.5 Q63.25 51.0 40.75 66.75 L31.0 77.5 Q19.25 85.5 3.5 87.25 L-16.5 84.5 -31.25 77.0 -39.5 68.25 Q-72.75 51.25 -62.25 11.0 L-88.75 29.25 Q-101.75 41.75 -105.75 34.75 L-106.25 32.25 Q-102.75 15.75 -87.25 9.0 L-83.5 5.0 -66.75 -9.0 -50.75 -21.0 -45.0 -24.25 Q-21.5 -60.0 -1.0 -65.0 15.75 -65.25 46.25 -21.75 L52.25 -16.75" fill="#2e47aa" fill-rule="evenodd" stroke="none"/>
  </g>
</svg>
