<?xml version="1.0" encoding="UTF-8" standalone="no"?>
<svg xmlns:ffdec="https://www.free-decompiler.com/flash" xmlns:xlink="http://www.w3.org/1999/xlink" ffdec:objectType="shape" height="152.25px" width="198.15px" xmlns="http://www.w3.org/2000/svg">
  <g transform="matrix(1.0, 0.0, 0.0, 1.0, 105.4, 65.0)">
    <path d="M59.75 -9.0 L78.25 12.25 78.75 12.75 79.0 13.25 85.25 21.25 89.75 29.25 92.75 39.25 92.0 53.5 89.5 62.0 87.0 67.0 Q82.75 71.75 80.25 64.25 L77.0 50.5 73.75 28.0 62.5 18.5 63.75 27.5 62.5 35.5 Q63.25 51.0 40.75 66.75 L31.0 77.5 Q19.25 85.5 3.5 87.25 L-16.5 84.5 -31.25 77.0 -39.5 68.25 Q-74.0 47.0 -62.75 12.5 L-88.0 30.5 -91.25 33.75 -91.75 34.0 Q-102.25 42.5 -104.75 36.5 -108.75 25.5 -88.0 11.25 L-64.25 -10.25 -51.25 -20.25 -45.5 -23.75 Q-21.25 -60.25 -1.0 -65.0 15.75 -65.25 46.25 -21.75 L59.75 -9.0" fill="#2e47aa" fill-rule="evenodd" stroke="none"/>
  </g>
</svg>
