<?xml version="1.0" encoding="UTF-8" standalone="no"?>
<svg xmlns:ffdec="https://www.free-decompiler.com/flash" xmlns:xlink="http://www.w3.org/1999/xlink" ffdec:objectType="shape" height="152.25px" width="196.6px" xmlns="http://www.w3.org/2000/svg">
  <g transform="matrix(1.0, 0.0, 0.0, 1.0, 104.35, 65.0)">
    <path d="M61.0 -7.5 L77.5 11.5 78.25 12.5 78.75 13.0 79.0 13.5 85.25 21.5 86.5 24.25 Q99.25 41.0 83.75 66.75 79.0 71.5 77.0 63.75 L75.25 54.75 73.0 27.75 62.5 18.75 63.5 28.0 62.5 35.5 Q63.25 51.0 40.75 66.75 L31.0 77.5 Q19.25 85.5 3.5 87.25 L-16.5 84.5 -31.25 77.0 -39.5 68.25 Q-56.0 60.25 -62.5 43.75 L-64.5 29.5 -63.0 13.75 -86.5 31.5 -91.0 35.75 Q-100.75 44.0 -103.75 38.25 -107.5 28.25 -88.25 13.25 L-67.5 -6.5 -54.0 -17.75 -45.75 -23.25 Q-21.25 -60.5 -1.0 -65.0 15.75 -65.25 46.25 -21.75 L61.0 -7.5" fill="#2e47aa" fill-rule="evenodd" stroke="none"/>
  </g>
</svg>
