<?xml version="1.0" encoding="UTF-8" standalone="no"?>
<svg xmlns:ffdec="https://www.free-decompiler.com/flash" xmlns:xlink="http://www.w3.org/1999/xlink" ffdec:objectType="shape" height="152.25px" width="194.85px" xmlns="http://www.w3.org/2000/svg">
  <g transform="matrix(1.0, 0.0, 0.0, 1.0, 103.0, 65.0)">
    <path d="M50.25 -18.5 L74.0 7.25 78.25 12.75 78.75 13.25 79.0 13.75 85.25 22.0 85.5 22.25 86.75 24.75 Q99.5 44.25 80.25 66.75 L79.25 68.0 76.0 68.25 Q73.75 67.0 73.5 63.5 L72.25 43.5 72.5 27.5 62.75 19.25 63.5 28.0 62.5 35.5 Q63.25 51.0 40.75 66.75 L31.0 77.5 Q19.25 85.5 3.5 87.25 L-16.5 84.5 -31.25 77.0 -39.5 68.25 Q-72.25 49.25 -63.25 15.0 L-83.25 31.0 -84.0 31.5 Q-97.25 46.5 -102.5 40.0 -105.75 28.25 -88.25 15.25 L-78.5 4.75 -66.75 -6.25 -55.25 -16.25 -45.75 -23.25 Q-21.25 -60.5 -1.0 -65.0 15.75 -65.25 46.25 -21.75 L50.25 -18.5" fill="#2e47aa" fill-rule="evenodd" stroke="none"/>
  </g>
</svg>
