<?xml version="1.0" encoding="UTF-8" standalone="no"?>
<svg xmlns:ffdec="https://www.free-decompiler.com/flash" xmlns:xlink="http://www.w3.org/1999/xlink" ffdec:objectType="shape" height="152.25px" width="193.8px" xmlns="http://www.w3.org/2000/svg">
  <g transform="matrix(1.0, 0.0, 0.0, 1.0, 102.05, 65.0)">
    <path d="M46.25 -21.75 L65.0 -2.75 78.0 12.75 78.5 13.25 78.75 13.75 79.5 14.5 79.75 15.0 85.5 22.5 87.0 25.5 Q100.5 43.25 75.75 67.75 L72.25 67.75 Q70.25 66.5 70.0 63.0 L70.25 52.0 72.0 27.5 62.75 19.5 63.5 28.0 62.5 35.5 Q63.25 51.0 40.75 66.75 L31.0 77.5 Q19.25 85.5 3.5 87.25 L-16.5 84.5 -31.25 77.0 -39.5 68.25 Q-68.0 57.0 -63.5 16.5 L-79.5 29.75 -80.25 30.25 -80.75 30.75 Q-95.25 48.0 -101.25 41.75 L-101.5 41.5 Q-104.75 31.75 -88.0 16.75 L-68.25 -3.75 -54.75 -16.25 -46.5 -22.5 -46.25 -22.75 Q-21.0 -60.75 -1.0 -65.0 15.75 -65.25 46.25 -21.75" fill="#2e47aa" fill-rule="evenodd" stroke="none"/>
  </g>
</svg>
