<?xml version="1.0" encoding="UTF-8" standalone="no"?>
<svg xmlns:ffdec="https://www.free-decompiler.com/flash" xmlns:xlink="http://www.w3.org/1999/xlink" ffdec:objectType="shape" height="152.25px" width="192.05px" xmlns="http://www.w3.org/2000/svg">
  <g transform="matrix(1.0, 0.0, 0.0, 1.0, 100.75, 65.0)">
    <path d="M59.75 -8.5 L73.75 7.5 74.5 8.5 75.0 9.0 78.75 14.0 79.25 14.5 79.5 15.0 85.75 23.25 87.25 26.25 Q100.0 46.25 72.5 67.25 L68.5 67.25 66.5 62.5 67.75 51.5 67.75 50.25 68.0 49.5 68.0 49.0 71.25 27.25 62.75 19.75 63.5 28.0 62.5 35.5 Q63.25 51.0 40.75 66.75 L31.0 77.5 Q19.25 85.5 3.5 87.25 L-16.5 84.5 -31.25 77.0 -39.5 68.25 -51.0 60.75 -59.0 51.25 -63.5 40.0 -64.5 29.75 -63.5 18.0 -77.75 30.0 -88.5 41.0 -90.75 42.5 -91.0 42.75 Q-99.75 48.75 -100.75 39.25 -96.5 23.25 -87.5 18.25 L-82.75 12.5 -60.25 -10.75 -50.25 -19.5 -46.75 -22.0 Q-20.75 -61.0 -1.0 -65.0 15.75 -65.5 46.25 -21.5 L59.75 -8.5" fill="#2e47aa" fill-rule="evenodd" stroke="none"/>
  </g>
</svg>
