<?xml version="1.0" encoding="UTF-8" standalone="no"?>
<svg xmlns:ffdec="https://www.free-decompiler.com/flash" xmlns:xlink="http://www.w3.org/1999/xlink" ffdec:objectType="shape" height="332.55px" width="359.6px" xmlns="http://www.w3.org/2000/svg">
  <g transform="matrix(1.0, 0.0, 0.0, 1.0, 184.9, 156.05)">
    <path d="M-11.5 -150.75 Q-32.85 -150.75 -36.0 -130.0 -36.3 -128.05 -36.0 -126.0 L-51.0 -105.0 Q-56.15 -115.6 -53.1 -126.95 -43.05 -164.25 -7.5 -153.75 L-11.5 -150.75 M-135.45 92.65 Q-130.9 83.85 -127.5 74.5 L-128.0 72.75 -120.75 66.75 -121.15 72.3 Q-124.15 110.95 -103.25 143.75 L-113.5 135.8 Q-132.65 120.35 -137.5 96.75 L-135.45 92.65 M-47.4 172.65 L-31.5 174.75 Q-39.7 178.0 -47.6 174.85 -53.4 172.6 -59.0 170.0 L-47.4 172.65" fill="#e58508" fill-rule="evenodd" stroke="none"/>
    <path d="M154.4 -7.2 Q151.25 -3.55 146.5 -1.5 L145.75 3.75 147.9 6.5 Q156.2 18.1 168.0 25.0 173.05 20.7 171.0 13.75 177.35 32.85 172.75 52.0 169.8 51.6 168.0 49.35 146.35 23.0 135.0 -9.75 L120.5 -18.75 Q132.3 22.05 127.2 64.1 124.85 83.7 114.25 99.85 60.95 181.05 -36.75 176.25 -54.0 175.55 -70.2 168.2 -86.95 160.6 -100.0 150.0 -119.55 134.1 -130.8 111.6 -134.5 104.2 -137.25 96.5 -147.0 115.9 -166.1 126.4 -174.45 131.05 -183.75 132.75 L-184.9 126.8 Q-162.95 117.65 -145.7 100.9 -138.95 94.35 -133.9 86.55 L-134.75 88.75 -128.75 76.25 -135.65 72.3 Q-109.0 53.9 -84.6 32.3 L-78.5 27.0 Q-97.05 50.55 -108.9 78.1 -115.25 92.95 -109.0 107.75 -97.8 134.35 -73.5 150.0 -46.65 166.75 -8.05 163.85 58.15 159.15 97.65 105.8 149.0 36.45 106.0 -34.75 129.3 -19.4 154.75 -8.5 L154.8 -7.85 154.4 -7.2" fill="#000000" fill-opacity="0.49803922" fill-rule="evenodd" stroke="none"/>
  </g>
</svg>
