<?xml version="1.0" encoding="UTF-8" standalone="no"?>
<svg xmlns:ffdec="https://www.free-decompiler.com/flash" xmlns:xlink="http://www.w3.org/1999/xlink" ffdec:objectType="shape" height="152.25px" width="190.1px" xmlns="http://www.w3.org/2000/svg">
  <g transform="matrix(1.0, 0.0, 0.0, 1.0, 99.6, 65.0)">
    <path d="M54.75 -13.75 L74.0 8.0 74.5 8.75 75.0 9.25 77.75 13.0 78.25 13.5 78.5 14.0 79.0 14.5 79.25 15.0 85.5 23.25 90.5 34.75 90.0 45.25 88.75 48.25 84.25 55.5 82.75 56.75 82.25 57.25 81.5 57.75 80.0 59.25 78.25 60.5 76.75 62.0 69.0 66.75 64.75 66.75 63.25 61.75 65.25 50.75 65.5 50.25 65.75 49.0 65.75 48.0 66.0 47.25 70.75 27.0 63.0 20.25 63.75 28.0 62.5 35.5 Q63.25 51.0 40.75 66.75 L31.0 77.5 Q19.25 85.5 3.5 87.25 L-16.5 84.5 -31.25 77.0 -39.5 68.25 Q-66.25 58.25 -64.0 19.75 L-74.25 28.5 -79.0 34.75 -88.25 43.0 Q-97.25 50.25 -99.5 42.25 -100.25 37.0 -94.25 27.5 L-87.75 20.5 -81.75 13.0 -65.25 -5.0 -50.5 -19.0 -47.75 -21.0 -47.25 -21.5 Q-20.5 -61.25 -1.0 -65.0 15.75 -65.5 46.5 -21.25 L54.75 -13.75" fill="#2e47aa" fill-rule="evenodd" stroke="none"/>
  </g>
</svg>
