<?xml version="1.0" encoding="UTF-8" standalone="no"?>
<svg xmlns:ffdec="https://www.free-decompiler.com/flash" xmlns:xlink="http://www.w3.org/1999/xlink" ffdec:objectType="shape" height="152.25px" width="188.65px" xmlns="http://www.w3.org/2000/svg">
  <g transform="matrix(1.0, 0.0, 0.0, 1.0, 97.95, 65.0)">
    <path d="M64.5 -2.75 L73.5 7.75 74.0 8.25 74.25 8.75 75.0 9.5 75.25 10.0 75.75 10.5 76.0 11.0 76.5 11.5 77.5 13.0 78.0 13.5 78.25 14.0 78.75 14.5 79.0 15.0 85.75 24.0 90.25 34.5 Q91.25 36.75 90.0 42.0 L89.5 43.5 89.0 47.25 81.5 56.5 80.5 57.5 73.0 62.75 65.75 66.25 61.25 66.0 Q59.25 61.5 60.25 60.75 L62.75 50.25 63.0 50.0 63.75 47.5 63.75 47.0 66.25 37.75 70.0 28.0 70.0 27.75 70.25 27.0 70.0 26.75 63.0 20.75 63.75 28.0 62.5 35.5 Q63.25 51.0 40.75 66.75 L31.0 77.5 Q19.25 85.5 3.5 87.25 L-16.5 84.5 -31.25 77.0 -39.5 68.25 Q-66.25 57.75 -64.0 21.0 L-70.5 26.75 Q-89.25 50.0 -95.5 47.5 -103.0 39.5 -87.5 22.25 L-83.0 16.5 -82.5 16.0 -82.0 15.25 -81.5 14.75 -81.25 14.0 -64.25 -5.25 -50.25 -19.0 -49.25 -19.75 -48.75 -20.0 -48.25 -20.5 -47.75 -20.75 -47.25 -21.25 Q-20.5 -61.5 -1.0 -65.0 15.75 -65.5 46.5 -21.25 L49.25 -19.25 64.5 -2.75" fill="#2e47aa" fill-rule="evenodd" stroke="none"/>
  </g>
</svg>
