<?xml version="1.0" encoding="UTF-8" standalone="no"?>
<svg xmlns:ffdec="https://www.free-decompiler.com/flash" xmlns:xlink="http://www.w3.org/1999/xlink" ffdec:objectType="shape" height="152.25px" width="187.55px" xmlns="http://www.w3.org/2000/svg">
  <g transform="matrix(1.0, 0.0, 0.0, 1.0, 96.85, 65.0)">
    <path d="M61.75 -5.75 L73.25 7.75 73.75 8.25 75.0 10.0 75.75 10.75 76.0 11.25 76.5 11.75 76.75 12.25 85.0 23.0 87.75 28.5 Q95.25 39.25 83.75 53.0 L79.25 57.5 70.5 62.5 62.5 65.75 57.75 65.25 57.0 60.25 60.25 50.0 60.75 48.75 61.0 48.5 61.25 47.75 61.5 47.25 62.0 45.5 62.25 45.0 68.0 31.25 68.0 31.0 68.5 30.0 68.5 29.75 69.75 27.0 63.0 21.0 63.75 28.0 62.5 35.5 Q63.25 51.0 40.75 66.75 L31.0 77.5 Q19.25 85.5 3.5 87.25 L-16.5 84.5 -31.25 77.0 -39.5 68.25 Q-66.25 56.75 -64.25 22.75 L-64.5 22.75 -66.25 24.25 -78.5 39.25 Q-87.0 48.0 -91.5 48.75 -97.5 49.5 -96.75 41.75 L-94.75 35.25 -90.25 27.75 -89.75 27.25 -89.5 26.75 -80.0 14.25 -61.75 -7.25 -47.25 -21.25 Q-20.5 -61.5 -1.0 -65.0 15.5 -65.75 46.75 -21.0 L61.75 -5.75" fill="#2e47aa" fill-rule="evenodd" stroke="none"/>
  </g>
</svg>
