<?xml version="1.0" encoding="UTF-8" standalone="no"?>
<svg xmlns:ffdec="https://www.free-decompiler.com/flash" xmlns:xlink="http://www.w3.org/1999/xlink" ffdec:objectType="shape" height="152.25px" width="186.0px" xmlns="http://www.w3.org/2000/svg">
  <g transform="matrix(1.0, 0.0, 0.0, 1.0, 95.5, 65.0)">
    <path d="M58.75 -9.25 L74.75 10.0 75.5 10.75 75.75 11.25 76.25 11.75 76.5 12.25 77.0 12.75 77.25 13.25 77.75 13.75 78.0 14.25 84.75 22.75 87.0 27.25 Q95.0 40.75 84.75 51.5 L77.5 57.75 66.25 63.0 59.5 65.0 54.75 64.5 Q53.0 59.5 54.25 59.0 L56.75 52.0 50.75 59.5 40.75 66.75 31.0 77.5 Q19.25 85.5 3.5 87.25 L-16.5 84.5 -31.25 77.0 -39.5 68.25 Q-65.0 57.0 -64.5 25.25 -85.5 53.75 -94.25 48.5 L-94.5 48.25 -95.5 43.25 Q-95.75 40.25 -92.0 33.0 L-91.75 32.75 -91.0 31.25 -89.75 29.5 -89.75 29.25 -88.5 27.75 -88.5 27.5 -88.0 27.0 -81.5 17.5 -67.5 0.25 -59.25 -9.25 -47.5 -21.0 Q-20.25 -61.5 -1.0 -65.0 15.5 -65.75 46.75 -21.0 L58.75 -9.25 M62.5 39.25 L67.25 31.0 67.25 30.75 69.25 27.0 63.25 21.5 63.75 28.0 62.5 35.5 62.5 39.25" fill="#2e47aa" fill-rule="evenodd" stroke="none"/>
  </g>
</svg>
