<?xml version="1.0" encoding="UTF-8" standalone="no"?>
<svg xmlns:ffdec="https://www.free-decompiler.com/flash" xmlns:xlink="http://www.w3.org/1999/xlink" ffdec:objectType="shape" height="152.25px" width="185.0px" xmlns="http://www.w3.org/2000/svg">
  <g transform="matrix(1.0, 0.0, 0.0, 1.0, 94.45, 65.0)">
    <path d="M63.75 -3.0 L75.5 11.25 76.0 11.75 76.25 12.25 76.75 12.75 77.0 13.25 77.5 13.75 77.75 14.25 85.25 24.0 87.25 28.25 Q95.0 39.25 84.5 51.5 L82.75 52.75 82.25 53.25 81.75 53.5 76.0 58.0 75.5 58.0 63.5 62.75 56.75 64.25 51.5 63.5 51.0 59.25 40.75 66.75 31.0 77.5 Q19.25 85.5 3.5 87.25 L-16.5 84.5 -31.25 77.0 -39.5 68.25 Q-66.0 54.0 -64.75 28.25 L-76.0 41.75 Q-82.75 48.75 -88.75 50.75 -98.5 48.5 -91.5 35.0 L-91.0 34.0 -90.75 33.25 -90.5 32.75 -88.0 29.25 -87.75 28.5 -87.0 27.5 -86.75 27.0 -81.25 18.75 -68.0 1.75 -47.5 -21.0 Q-20.25 -61.5 -1.0 -65.0 15.5 -65.75 46.75 -21.0 L63.75 -3.0 M65.25 33.0 L68.75 27.25 68.75 27.0 63.25 22.0 63.75 28.0 62.5 35.5 62.75 36.25 65.25 33.0" fill="#2e47aa" fill-rule="evenodd" stroke="none"/>
  </g>
</svg>
