<?xml version="1.0" encoding="UTF-8" standalone="no"?>
<svg xmlns:ffdec="https://www.free-decompiler.com/flash" xmlns:xlink="http://www.w3.org/1999/xlink" ffdec:objectType="shape" height="152.25px" width="183.25px" xmlns="http://www.w3.org/2000/svg">
  <g transform="matrix(1.0, 0.0, 0.0, 1.0, 93.05, 65.0)">
    <path d="M61.5 -5.5 L77.25 14.0 77.75 14.5 78.0 15.0 78.5 15.5 78.75 16.0 79.25 16.5 79.5 17.0 86.5 27.25 87.0 28.25 Q94.25 42.0 85.0 50.75 L75.25 58.0 61.5 62.25 54.0 63.5 48.75 62.5 48.5 61.25 40.75 66.75 31.0 77.5 Q19.25 85.5 3.5 87.25 L-16.5 84.5 -31.25 77.0 -39.5 68.25 Q-62.25 58.75 -64.25 31.0 L-76.25 44.25 Q-84.25 51.0 -88.5 51.75 -96.5 48.5 -90.5 35.75 L-90.0 35.0 -89.5 33.75 -79.5 17.75 -65.0 -1.25 -47.75 -20.5 Q-20.25 -61.75 -1.0 -65.0 15.5 -65.75 46.75 -21.0 L61.5 -5.5 M68.25 27.25 L68.25 27.0 63.25 22.5 63.75 28.0 62.75 34.5 68.25 27.25" fill="#2e47aa" fill-rule="evenodd" stroke="none"/>
  </g>
</svg>
