<?xml version="1.0" encoding="UTF-8" standalone="no"?>
<svg xmlns:ffdec="https://www.free-decompiler.com/flash" xmlns:xlink="http://www.w3.org/1999/xlink" ffdec:objectType="shape" height="152.25px" width="181.95px" xmlns="http://www.w3.org/2000/svg">
  <g transform="matrix(1.0, 0.0, 0.0, 1.0, 91.9, 65.0)">
    <path d="M60.75 -6.25 L73.25 9.0 73.75 9.5 74.0 10.0 74.75 10.75 74.75 11.0 76.25 12.75 76.25 13.0 77.0 14.0 77.5 14.5 77.75 15.0 78.25 15.5 78.5 16.0 79.0 16.75 79.5 17.25 79.75 17.75 85.5 25.75 86.75 28.25 Q94.25 44.25 84.75 51.0 L84.25 51.5 74.0 58.0 59.75 61.75 51.75 62.75 47.5 61.75 40.75 66.75 31.0 77.5 Q19.25 85.5 3.5 87.25 L-16.5 84.5 -31.25 77.0 -39.5 68.25 Q-62.25 57.5 -64.25 33.5 -82.25 53.0 -86.75 52.25 -95.25 50.25 -89.75 36.75 L-89.25 35.75 -89.25 35.5 -89.0 35.0 -78.0 17.0 -64.25 -1.5 -48.0 -20.25 Q-20.0 -62.0 -1.0 -65.0 15.5 -65.75 46.75 -21.0 L60.75 -6.25 M63.0 33.25 L68.0 27.25 63.25 22.75 63.75 28.0 63.0 33.25" fill="#2e47aa" fill-rule="evenodd" stroke="none"/>
  </g>
</svg>
