<?xml version="1.0" encoding="UTF-8" standalone="no"?>
<svg xmlns:ffdec="https://www.free-decompiler.com/flash" xmlns:xlink="http://www.w3.org/1999/xlink" ffdec:objectType="shape" height="152.25px" width="180.5px" xmlns="http://www.w3.org/2000/svg">
  <g transform="matrix(1.0, 0.0, 0.0, 1.0, 90.5, 65.0)">
    <path d="M56.75 -10.75 L73.0 9.0 73.5 9.5 73.75 10.0 74.5 10.75 74.5 11.0 77.25 14.5 77.25 14.75 78.5 16.5 79.0 17.0 79.25 17.5 79.75 18.0 80.0 18.5 85.5 26.25 86.75 28.75 Q94.25 43.5 84.5 51.0 L83.25 52.25 71.75 58.25 59.0 61.0 49.75 61.75 47.75 61.5 40.75 66.75 31.0 77.5 Q19.25 85.5 3.5 87.25 L-16.5 84.5 -31.25 77.0 -39.5 68.25 Q-62.25 56.25 -64.0 35.75 -82.25 56.5 -88.75 51.75 L-89.0 51.5 -90.5 48.5 -90.0 40.5 -89.75 40.0 -89.75 39.75 -88.25 35.75 -77.5 17.5 -62.5 -3.25 -48.0 -20.25 Q-20.0 -62.0 -1.0 -65.0 15.5 -65.75 46.75 -20.75 L56.75 -10.75 M63.25 32.0 L67.5 27.25 63.0 23.25 63.75 27.25 63.25 32.0" fill="#2e47aa" fill-rule="evenodd" stroke="none"/>
  </g>
</svg>
