<?xml version="1.0" encoding="UTF-8" standalone="no"?>
<svg xmlns:ffdec="https://www.free-decompiler.com/flash" xmlns:xlink="http://www.w3.org/1999/xlink" ffdec:objectType="shape" height="152.25px" width="178.8px" xmlns="http://www.w3.org/2000/svg">
  <g transform="matrix(1.0, 0.0, 0.0, 1.0, 89.5, 65.0)">
    <path d="M57.0 -10.25 L73.5 10.0 74.0 10.5 74.25 11.0 78.75 17.0 78.75 17.25 79.25 17.75 79.5 18.25 80.0 19.0 80.5 19.5 80.75 20.0 85.5 26.75 86.0 27.75 86.25 28.5 86.5 28.75 86.5 29.0 Q100.0 59.5 48.5 61.0 L40.75 66.75 31.0 77.5 Q19.25 85.5 3.5 87.25 L-16.5 84.5 -31.25 77.0 -39.5 68.25 Q-62.5 55.25 -63.75 38.0 -79.75 54.25 -83.5 53.25 -91.25 54.5 -89.0 41.5 L-88.75 40.0 -88.75 39.75 -88.0 38.0 -88.0 37.5 -87.75 37.0 -87.0 34.5 -77.0 17.75 -63.25 -1.75 -48.5 -19.5 -48.0 -20.25 Q-20.0 -62.0 -1.0 -65.0 15.5 -66.0 47.0 -20.5 L57.0 -10.25 M63.25 31.5 L67.25 27.5 63.25 24.0 63.75 27.5 63.25 31.5" fill="#2e47aa" fill-rule="evenodd" stroke="none"/>
  </g>
</svg>
