<?xml version="1.0" encoding="UTF-8" standalone="no"?>
<svg xmlns:ffdec="https://www.free-decompiler.com/flash" xmlns:xlink="http://www.w3.org/1999/xlink" ffdec:objectType="shape" height="152.25px" width="177.35px" xmlns="http://www.w3.org/2000/svg">
  <g transform="matrix(1.0, 0.0, 0.0, 1.0, 88.25, 65.0)">
    <path d="M58.25 -8.75 L76.25 13.5 85.25 27.0 86.5 29.5 Q99.25 59.75 49.75 60.0 L40.75 66.75 31.0 77.5 Q19.25 85.5 3.5 87.25 L-16.5 84.5 -31.25 77.0 -39.5 68.25 Q-62.5 54.25 -63.5 40.0 -79.25 55.25 -83.25 53.75 -87.5 54.0 -88.0 51.0 L-88.25 41.5 -88.0 40.25 -88.0 40.0 -87.75 39.5 -87.75 39.0 -87.5 38.5 -87.5 38.25 -87.25 37.75 -86.25 34.5 -76.25 17.5 -63.25 -1.25 -48.5 -19.5 Q-19.75 -62.25 -1.0 -65.0 15.25 -66.0 47.25 -20.25 L58.25 -8.75 M63.5 24.5 L63.75 28.0 63.0 31.0 66.75 27.75 63.5 24.5" fill="#2e47aa" fill-rule="evenodd" stroke="none"/>
  </g>
</svg>
