<?xml version="1.0" encoding="UTF-8" standalone="no"?>
<svg xmlns:ffdec="https://www.free-decompiler.com/flash" xmlns:xlink="http://www.w3.org/1999/xlink" ffdec:objectType="shape" height="152.25px" width="177.7px" xmlns="http://www.w3.org/2000/svg">
  <g transform="matrix(1.0, 0.0, 0.0, 1.0, 88.05, 65.0)">
    <path d="M60.75 -5.75 L74.5 11.75 85.25 27.5 85.25 27.75 88.75 35.75 Q95.5 59.0 51.0 59.0 L43.25 65.5 40.75 66.75 31.0 77.5 Q19.25 85.5 3.5 87.25 L-16.5 84.5 -31.25 77.0 -39.5 68.25 Q-53.75 63.5 -63.0 41.25 -72.75 52.0 -83.5 53.75 -89.25 54.25 -87.75 41.75 L-87.75 41.5 -87.0 38.75 -87.0 38.25 -86.75 37.75 -85.5 33.75 -77.0 19.25 -62.25 -2.5 -48.5 -19.5 Q-19.75 -62.25 -1.0 -65.0 15.25 -66.0 47.25 -20.25 L60.75 -5.75 M63.5 25.25 L63.25 30.25 66.25 28.0 63.5 25.25" fill="#2e47aa" fill-rule="evenodd" stroke="none"/>
  </g>
</svg>
