<?xml version="1.0" encoding="UTF-8" standalone="no"?>
<svg xmlns:ffdec="https://www.free-decompiler.com/flash" xmlns:xlink="http://www.w3.org/1999/xlink" ffdec:objectType="shape" height="152.25px" width="176.65px" xmlns="http://www.w3.org/2000/svg">
  <g transform="matrix(1.0, 0.0, 0.0, 1.0, 87.6, 65.0)">
    <path d="M61.5 -4.25 L75.5 14.25 85.0 29.0 86.75 32.75 87.0 33.0 87.25 34.0 88.25 36.5 88.5 38.0 Q93.5 60.75 52.25 57.5 L50.75 59.5 40.75 66.75 31.0 77.5 Q19.25 85.5 3.5 87.25 L-16.5 84.5 -31.25 77.0 -39.5 68.25 Q-55.5 61.0 -62.5 43.25 L-70.0 49.0 -78.0 53.25 -83.75 53.5 Q-88.75 52.0 -87.25 41.75 L-87.25 41.5 Q-88.25 40.0 -85.25 33.5 L-77.25 19.75 -64.0 0.0 -48.5 -19.5 -48.0 -20.25 Q-20.0 -62.0 -1.0 -65.0 15.25 -66.0 47.25 -20.25 L61.5 -4.25 M63.75 27.25 L63.5 29.5 65.0 28.75 65.0 28.5 63.75 27.25" fill="#2e47aa" fill-rule="evenodd" stroke="none"/>
  </g>
</svg>
