<?xml version="1.0" encoding="UTF-8" standalone="no"?>
<svg xmlns:ffdec="https://www.free-decompiler.com/flash" xmlns:xlink="http://www.w3.org/1999/xlink" ffdec:objectType="shape" height="152.3px" width="176.3px" xmlns="http://www.w3.org/2000/svg">
  <g transform="matrix(1.0, 0.0, 0.0, 1.0, 87.55, 65.05)">
    <path d="M59.5 -6.25 L76.0 15.75 85.75 31.25 86.75 34.0 86.75 34.25 87.0 35.0 87.25 35.5 87.75 37.0 88.0 37.25 88.0 37.5 88.25 39.25 Q90.75 51.5 80.25 55.5 L66.75 57.75 52.75 56.75 49.5 60.5 40.75 66.75 31.0 77.5 Q19.25 85.5 3.5 87.25 L-16.5 84.5 -31.25 77.0 -39.5 68.25 Q-56.25 60.25 -62.25 43.75 -73.0 52.5 -82.0 53.25 -89.0 53.0 -87.0 41.5 L-87.25 41.0 Q-88.25 40.0 -85.75 34.25 L-76.75 18.5 -62.25 -2.75 -48.5 -19.5 -48.0 -20.25 Q-20.0 -62.0 -1.0 -65.0 15.25 -66.25 47.5 -19.75 L59.5 -6.25 M63.5 28.25 L63.5 29.25 64.25 29.0 64.25 28.75 63.5 28.25" fill="#2e47aa" fill-rule="evenodd" stroke="none"/>
  </g>
</svg>
