<?xml version="1.0" encoding="UTF-8" standalone="no"?>
<svg xmlns:ffdec="https://www.free-decompiler.com/flash" xmlns:xlink="http://www.w3.org/1999/xlink" ffdec:objectType="shape" height="152.3px" width="175.75px" xmlns="http://www.w3.org/2000/svg">
  <g transform="matrix(1.0, 0.0, 0.0, 1.0, 87.75, 65.05)">
    <path d="M57.75 -8.0 L67.75 5.25 76.75 18.0 85.0 31.25 86.75 36.25 88.0 38.75 87.75 40.5 Q90.75 62.75 53.75 55.75 L50.75 59.5 40.75 66.75 31.0 77.5 Q19.25 85.5 3.5 87.25 L-16.5 84.5 -31.25 77.0 -39.5 68.25 -51.0 60.75 Q-57.5 56.0 -62.25 44.0 L-69.0 48.75 Q-80.5 54.0 -82.25 52.75 -86.75 52.5 -87.5 47.75 L-87.25 40.75 Q-88.75 39.5 -85.75 33.25 L-77.0 18.25 -63.0 -2.0 -48.5 -19.5 -48.0 -20.25 Q-20.0 -62.0 -1.0 -65.0 15.25 -66.25 47.5 -19.75 L57.75 -8.0" fill="#2e47aa" fill-rule="evenodd" stroke="none"/>
  </g>
</svg>
