<?xml version="1.0" encoding="UTF-8" standalone="no"?>
<svg xmlns:ffdec="https://www.free-decompiler.com/flash" xmlns:xlink="http://www.w3.org/1999/xlink" ffdec:objectType="shape" height="152.25px" width="175.2px" xmlns="http://www.w3.org/2000/svg">
  <g transform="matrix(1.0, 0.0, 0.0, 1.0, 87.5, 65.0)">
    <path d="M61.5 -2.75 L76.0 18.0 84.25 32.0 87.5 40.0 87.25 41.5 Q88.25 45.25 87.0 48.75 L84.25 54.0 78.25 56.75 64.75 57.25 59.25 56.25 58.75 56.0 58.0 56.0 57.5 55.75 56.75 55.75 56.25 55.5 55.5 55.5 55.0 55.25 53.75 55.0 51.0 59.25 40.75 66.75 31.0 77.5 Q19.25 85.5 3.5 87.25 L-16.5 84.5 -31.25 77.0 -39.5 68.25 -51.0 60.75 Q-57.5 56.0 -62.25 44.0 -88.25 62.25 -87.5 40.25 -88.25 28.0 -48.0 -20.25 L-47.5 -20.75 Q-20.25 -61.75 -1.0 -65.0 18.5 -63.75 48.0 -19.0 L61.5 -2.75" fill="#2e47aa" fill-rule="evenodd" stroke="none"/>
  </g>
</svg>
