<?xml version="1.0" encoding="UTF-8" standalone="no"?>
<svg xmlns:ffdec="https://www.free-decompiler.com/flash" xmlns:xlink="http://www.w3.org/1999/xlink" ffdec:objectType="shape" height="152.25px" width="175.1px" xmlns="http://www.w3.org/2000/svg">
  <g transform="matrix(1.0, 0.0, 0.0, 1.0, 88.1, 65.0)">
    <path d="M61.5 -2.25 L75.0 17.75 82.75 31.25 83.25 32.0 83.5 32.5 87.0 41.25 86.5 42.75 Q87.25 51.0 82.75 55.25 L77.25 57.25 61.75 56.5 56.0 55.0 55.5 54.75 54.5 54.75 51.0 59.25 40.75 66.75 31.0 77.5 Q19.25 85.5 3.5 87.25 L-16.5 84.5 -31.25 77.0 -39.5 68.25 -51.0 60.75 Q-57.5 56.0 -62.25 44.0 L-62.5 44.0 Q-89.5 60.75 -88.0 39.25 -87.5 25.5 -48.0 -20.25 L-47.5 -21.0 Q-20.25 -61.5 -1.0 -65.0 18.5 -63.75 48.0 -19.0 L61.5 -2.25" fill="#2e47aa" fill-rule="evenodd" stroke="none"/>
  </g>
</svg>
