<?xml version="1.0" encoding="UTF-8" standalone="no"?>
<svg xmlns:ffdec="https://www.free-decompiler.com/flash" xmlns:xlink="http://www.w3.org/1999/xlink" ffdec:objectType="shape" height="152.25px" width="174.6px" xmlns="http://www.w3.org/2000/svg">
  <g transform="matrix(1.0, 0.0, 0.0, 1.0, 88.35, 65.0)">
    <path d="M62.0 -0.75 L71.75 14.0 82.5 32.75 83.0 33.5 83.5 34.5 86.25 42.25 85.75 43.75 85.5 49.25 Q83.25 56.0 81.75 56.25 L76.5 57.75 71.0 57.75 61.5 56.25 61.0 56.0 60.75 56.0 54.75 54.25 50.75 59.5 40.75 66.75 31.0 77.5 Q19.25 85.5 3.5 87.25 L-16.5 84.5 -31.25 77.0 -39.5 68.25 Q-56.0 60.25 -62.5 43.75 -90.0 59.75 -88.25 38.5 -88.25 24.75 -47.5 -21.0 -20.5 -61.5 -1.0 -65.0 18.25 -64.0 48.5 -18.25 L62.0 -0.75" fill="#2e47aa" fill-rule="evenodd" stroke="none"/>
  </g>
</svg>
