<?xml version="1.0" encoding="UTF-8" standalone="no"?>
<svg xmlns:ffdec="https://www.free-decompiler.com/flash" xmlns:xlink="http://www.w3.org/1999/xlink" ffdec:objectType="shape" height="152.4px" width="174.0px" xmlns="http://www.w3.org/2000/svg">
  <g transform="matrix(1.0, 0.0, 0.0, 1.0, 89.5, 65.15)">
    <path d="M60.0 -2.25 L71.0 15.5 82.0 36.5 82.25 36.75 84.5 44.5 83.5 46.0 Q84.75 53.5 78.0 58.0 L72.75 58.75 66.5 57.25 65.0 56.75 64.5 56.75 63.0 56.25 62.5 56.0 62.25 56.0 55.25 53.75 50.75 59.5 40.75 66.75 31.0 77.5 Q19.25 85.5 3.5 87.25 L-16.5 84.5 -31.25 77.0 -39.5 68.25 Q-55.0 61.75 -62.5 43.0 L-69.25 46.5 -74.25 47.5 -74.5 47.5 -75.75 47.75 -76.25 48.0 Q-91.25 52.25 -89.25 36.25 -88.75 22.5 -47.25 -21.5 -20.5 -61.25 -1.0 -65.0 14.25 -67.75 49.25 -17.0 L60.0 -2.25" fill="#2e47aa" fill-rule="evenodd" stroke="none"/>
  </g>
</svg>
