<?xml version="1.0" encoding="UTF-8" standalone="no"?>
<svg xmlns:ffdec="https://www.free-decompiler.com/flash" xmlns:xlink="http://www.w3.org/1999/xlink" ffdec:objectType="shape" height="152.25px" width="173.25px" xmlns="http://www.w3.org/2000/svg">
  <g transform="matrix(1.0, 0.0, 0.0, 1.0, 89.75, 65.0)">
    <path d="M59.25 -2.75 L80.25 35.25 80.25 35.5 81.5 38.0 83.5 45.25 82.5 47.0 Q80.5 61.75 74.0 58.75 L71.75 59.0 65.5 57.25 65.0 57.0 64.25 56.75 64.0 56.75 63.0 56.25 62.75 56.25 55.25 53.5 50.75 59.5 40.75 66.75 31.0 77.5 Q19.25 85.5 3.5 87.25 L-16.5 84.5 -31.25 77.0 -39.5 68.25 Q-54.5 62.25 -62.5 42.75 L-70.75 46.25 -73.25 46.5 -73.5 46.5 -75.0 46.75 -75.75 47.0 -76.5 47.0 -77.0 47.25 -80.0 47.75 Q-91.25 49.0 -89.5 34.75 -87.75 19.25 -47.25 -21.5 L-46.5 -22.25 Q-20.75 -61.0 -1.0 -65.0 17.5 -65.0 49.75 -16.25 L59.25 -2.75" fill="#2e47aa" fill-rule="evenodd" stroke="none"/>
  </g>
</svg>
