<?xml version="1.0" encoding="UTF-8" standalone="no"?>
<svg xmlns:ffdec="https://www.free-decompiler.com/flash" xmlns:xlink="http://www.w3.org/1999/xlink" ffdec:objectType="shape" height="152.25px" width="172.8px" xmlns="http://www.w3.org/2000/svg">
  <g transform="matrix(1.0, 0.0, 0.0, 1.0, 90.3, 65.0)">
    <path d="M59.25 -2.0 L72.25 21.75 80.25 38.0 80.75 39.25 81.25 41.25 81.5 41.75 81.5 42.5 82.5 47.0 81.25 48.0 Q80.75 64.25 67.0 58.25 L55.5 53.25 50.75 59.5 40.75 66.75 31.0 77.5 Q19.25 85.5 3.5 87.25 L-16.5 84.5 -31.25 77.0 -39.5 68.25 Q-54.5 62.5 -62.75 42.5 L-63.5 42.5 -71.5 45.75 -74.25 46.0 -75.5 46.0 -76.25 46.25 Q-93.0 49.0 -89.75 33.25 -89.0 19.5 -46.5 -22.5 -20.75 -60.75 -1.0 -65.0 17.25 -65.5 50.25 -15.5 L59.25 -2.0" fill="#2e47aa" fill-rule="evenodd" stroke="none"/>
  </g>
</svg>
