<?xml version="1.0" encoding="UTF-8" standalone="no"?>
<svg xmlns:ffdec="https://www.free-decompiler.com/flash" xmlns:xlink="http://www.w3.org/1999/xlink" ffdec:objectType="shape" height="152.25px" width="171.8px" xmlns="http://www.w3.org/2000/svg">
  <g transform="matrix(1.0, 0.0, 0.0, 1.0, 90.3, 65.0)">
    <path d="M59.75 -0.25 L71.75 22.75 79.5 39.25 79.75 40.0 80.0 40.5 80.25 41.75 80.5 42.5 80.5 43.25 80.75 43.75 80.75 44.5 81.5 47.75 79.75 49.0 Q78.0 65.0 67.0 58.75 L66.5 58.5 64.0 57.5 63.5 57.25 63.0 56.75 55.75 53.25 50.75 59.5 40.75 66.75 31.0 77.5 Q19.25 85.5 3.5 87.25 L-16.5 84.5 -31.25 77.0 -39.5 68.25 Q-54.0 63.25 -62.75 42.0 L-63.0 42.0 -64.5 42.5 -65.0 42.75 -65.25 42.75 -71.0 45.0 -74.0 45.25 Q-92.5 48.75 -90.0 32.0 -86.75 15.25 -46.5 -22.5 L-46.0 -23.0 Q-21.0 -60.5 -1.0 -65.0 17.0 -65.75 50.75 -14.75 L50.75 -14.5 51.0 -14.0 51.5 -13.25 51.75 -13.0 59.75 -0.25" fill="#2e47aa" fill-rule="evenodd" stroke="none"/>
  </g>
</svg>
