<?xml version="1.0" encoding="UTF-8" standalone="no"?>
<svg xmlns:ffdec="https://www.free-decompiler.com/flash" xmlns:xlink="http://www.w3.org/1999/xlink" ffdec:objectType="shape" height="152.35px" width="171.0px" xmlns="http://www.w3.org/2000/svg">
  <g transform="matrix(1.0, 0.0, 0.0, 1.0, 90.5, 65.1)">
    <path d="M58.5 -1.75 L67.0 14.5 78.5 39.75 78.75 40.5 79.5 43.75 79.75 44.5 79.75 45.25 80.0 45.75 80.0 46.75 80.5 48.5 78.5 50.0 Q75.75 62.75 70.25 60.0 L63.5 57.75 62.75 57.25 62.25 57.0 55.75 53.0 50.75 59.5 40.75 66.75 31.0 77.5 Q19.25 85.5 3.5 87.25 L-16.5 84.5 -31.25 77.0 -39.5 68.25 Q-54.75 62.25 -63.0 42.0 L-73.5 44.5 -84.75 44.25 -87.75 42.0 -89.75 39.75 -90.5 35.25 -90.25 34.25 -90.0 30.5 Q-90.0 18.0 -46.25 -22.75 L-45.75 -23.25 Q-21.25 -60.5 -1.0 -65.0 16.25 -67.25 52.25 -12.0 L52.25 -11.75 52.5 -11.25 58.5 -1.75 M-65.0 20.75 L-64.0 21.25 -64.25 20.25 -65.0 20.75" fill="#2e47aa" fill-rule="evenodd" stroke="none"/>
  </g>
</svg>
