<?xml version="1.0" encoding="UTF-8" standalone="no"?>
<svg xmlns:ffdec="https://www.free-decompiler.com/flash" xmlns:xlink="http://www.w3.org/1999/xlink" ffdec:objectType="shape" height="152.45px" width="169.5px" xmlns="http://www.w3.org/2000/svg">
  <g transform="matrix(1.0, 0.0, 0.0, 1.0, 90.5, 65.2)">
    <path d="M57.75 -2.25 L70.25 23.5 77.0 38.75 77.25 40.25 77.75 40.25 77.75 40.75 78.0 41.5 78.75 45.25 78.75 46.0 79.0 46.5 79.0 47.75 78.5 50.0 77.25 50.75 Q74.0 67.25 62.5 57.5 L62.0 57.25 61.5 56.75 55.75 53.0 50.75 59.5 40.75 66.75 31.0 77.5 Q19.25 85.5 3.5 87.25 L-16.5 84.5 -31.25 77.0 -39.5 68.25 Q-53.75 63.25 -63.0 41.75 L-64.5 42.0 -65.0 42.25 -74.5 44.0 -82.0 43.5 Q-85.25 43.5 -87.0 41.0 -88.75 40.5 -90.5 35.75 L-89.75 27.5 -87.0 20.25 -78.5 9.25 -63.25 -7.75 -48.75 -21.25 -46.5 -22.75 -45.75 -23.5 Q-17.75 -64.25 0.0 -65.0 15.25 -68.5 53.5 -9.5 L53.5 -9.25 53.75 -8.75 57.75 -2.25 M-64.0 21.75 L-63.75 18.75 -66.0 20.25 -64.0 21.75" fill="#2e47aa" fill-rule="evenodd" stroke="none"/>
  </g>
</svg>
