<?xml version="1.0" encoding="UTF-8" standalone="no"?>
<svg xmlns:ffdec="https://www.free-decompiler.com/flash" xmlns:xlink="http://www.w3.org/1999/xlink" ffdec:objectType="shape" height="152.0px" width="167.2px" xmlns="http://www.w3.org/2000/svg">
  <g transform="matrix(1.0, 0.0, 0.0, 1.0, 89.95, 64.75)">
    <path d="M55.5 -5.0 L71.5 29.75 71.75 30.5 Q71.4 30.95 72.0 31.0 L73.0 33.5 73.25 34.0 73.5 34.75 73.75 35.25 74.0 36.0 74.25 36.5 74.5 37.25 74.75 37.75 75.0 38.5 75.5 39.5 75.75 40.25 76.0 40.5 76.0 41.25 76.25 41.25 76.0 41.75 76.0 42.0 77.0 46.0 77.0 46.5 77.25 47.75 77.25 49.0 77.0 51.0 75.0 52.0 Q73.5 70.0 56.0 53.0 L50.75 59.5 40.75 66.75 31.0 77.5 Q19.25 85.5 3.5 87.25 L-16.5 84.5 -31.25 77.0 -39.5 68.25 Q-53.75 63.5 -63.0 41.5 L-67.75 42.25 -77.75 41.75 -85.75 38.0 Q-92.25 33.5 -88.75 21.75 L-88.25 20.25 -88.25 20.0 -88.0 19.5 -88.0 19.25 -87.75 18.75 -87.0 17.75 -87.0 17.5 -85.75 14.75 -75.5 2.5 -62.0 -10.75 -48.75 -22.0 -48.25 -22.5 -47.25 -23.0 -47.0 -23.25 -46.0 -23.75 -45.75 -24.0 -45.5 -24.0 Q-20.25 -62.5 1.75 -64.75 24.75 -58.75 55.5 -5.0 M-63.0 15.0 L-68.0 18.25 -64.5 22.75 -63.0 15.0" fill="#2e47aa" fill-rule="evenodd" stroke="none"/>
  </g>
</svg>
