<?xml version="1.0" encoding="UTF-8" standalone="no"?>
<svg xmlns:ffdec="https://www.free-decompiler.com/flash" xmlns:xlink="http://www.w3.org/1999/xlink" ffdec:objectType="shape" height="152.0px" width="166.0px" xmlns="http://www.w3.org/2000/svg">
  <g transform="matrix(1.0, 0.0, 0.0, 1.0, 89.25, 64.75)">
    <path d="M56.5 -2.75 L67.75 21.75 70.5 28.75 Q70.15 29.2 70.75 29.25 L71.0 30.0 71.25 30.5 71.5 31.25 71.75 31.75 72.0 32.5 72.25 33.0 72.5 33.75 72.75 34.25 73.0 35.0 73.25 35.5 73.5 36.25 73.75 36.75 74.0 37.5 74.25 38.0 74.5 38.75 74.75 39.25 75.0 40.0 75.5 41.0 75.5 41.75 75.75 41.75 75.5 42.25 75.5 42.5 76.5 47.25 76.5 48.25 76.75 49.0 76.5 51.25 74.25 52.5 Q72.5 69.5 56.25 53.0 L56.0 53.0 50.75 59.5 40.75 66.75 31.0 77.5 Q19.25 85.5 3.5 87.25 L-16.5 84.5 -31.25 77.0 -39.5 68.25 Q-53.75 63.25 -63.0 41.75 L-65.25 42.0 Q-78.75 41.5 -81.5 38.5 L-86.0 35.25 Q-88.0 34.0 -88.25 30.5 L-88.25 30.0 -88.5 29.75 -89.25 26.25 -87.75 19.0 -87.75 18.5 -87.5 17.75 -87.5 17.5 -87.0 16.75 -86.5 15.75 -86.5 15.5 -84.0 10.75 -71.75 -2.5 -61.75 -12.0 -48.0 -23.25 -45.25 -24.5 Q-20.25 -62.5 1.75 -64.75 25.75 -58.25 56.5 -3.0 L56.5 -2.75 M-62.75 13.25 L-68.0 16.75 -64.5 24.5 -62.75 13.25" fill="#2e47aa" fill-rule="evenodd" stroke="none"/>
  </g>
</svg>
