<?xml version="1.0" encoding="UTF-8" standalone="no"?>
<svg xmlns:ffdec="https://www.free-decompiler.com/flash" xmlns:xlink="http://www.w3.org/1999/xlink" ffdec:objectType="shape" height="151.75px" width="164.0px" xmlns="http://www.w3.org/2000/svg">
  <g transform="matrix(1.0, 0.0, 0.0, 1.0, 87.75, 64.5)">
    <path d="M56.75 -2.0 L69.5 27.0 69.75 27.75 70.0 28.25 71.0 31.0 71.25 31.5 71.5 32.25 71.75 32.75 72.0 33.5 72.25 34.0 72.5 34.75 72.75 35.25 73.25 36.75 73.5 37.25 73.75 38.0 74.0 38.5 74.25 39.25 74.75 40.25 74.75 40.5 75.0 41.5 75.0 42.25 75.5 42.75 76.0 47.25 76.0 47.75 76.25 49.0 76.0 51.5 73.75 52.75 Q71.5 63.0 66.0 61.25 L60.75 57.5 56.25 52.75 50.75 59.5 40.75 66.75 31.0 77.5 Q19.25 85.5 3.5 87.25 L-16.5 84.5 -31.25 77.0 -39.5 68.25 Q-55.75 62.0 -63.25 40.5 L-65.0 42.25 -67.75 42.5 -71.0 42.0 -79.5 38.5 -79.75 38.5 -85.0 33.25 -87.0 29.25 -87.75 21.25 -86.0 15.0 -85.75 14.5 -85.75 14.25 -81.75 7.0 -70.5 -4.75 -60.0 -14.25 -50.0 -22.0 -44.5 -25.25 Q-20.0 -63.75 3.25 -64.5 25.0 -58.75 56.75 -2.25 L56.75 -2.0 M-62.5 11.5 L-68.25 15.25 -64.75 28.0 -62.5 11.5" fill="#2e47aa" fill-rule="evenodd" stroke="none"/>
  </g>
</svg>
