<?xml version="1.0" encoding="UTF-8" standalone="no"?>
<svg xmlns:ffdec="https://www.free-decompiler.com/flash" xmlns:xlink="http://www.w3.org/1999/xlink" ffdec:objectType="shape" height="152.1px" width="162.25px" xmlns="http://www.w3.org/2000/svg">
  <g transform="matrix(1.0, 0.0, 0.0, 1.0, 86.25, 64.85)">
    <path d="M19.25 -54.25 L27.5 -46.0 45.5 -23.25 50.75 -15.0 57.5 -0.75 57.5 -0.5 67.5 22.25 70.75 30.75 71.0 31.25 71.5 32.75 71.75 33.25 72.0 34.0 72.25 34.5 72.5 35.25 72.75 35.75 73.25 37.25 73.5 37.75 73.75 38.5 74.0 39.0 74.25 39.75 74.75 40.75 74.75 41.5 75.0 41.5 75.0 42.25 75.25 42.25 75.25 42.75 75.75 47.0 75.75 47.25 76.0 48.75 75.75 51.5 73.75 52.75 Q69.25 70.5 56.5 52.25 L50.75 59.5 40.75 66.75 31.0 77.5 Q19.25 85.5 3.5 87.25 L-16.5 84.5 -31.25 77.0 -39.5 68.25 Q-74.5 48.25 -61.75 10.0 L-68.0 13.5 -65.5 28.25 -64.75 37.75 Q-65.5 41.75 -67.25 42.5 L-70.5 42.5 -79.5 37.5 Q-82.0 36.0 -85.5 28.25 L-85.75 27.5 -86.25 21.0 Q-86.25 16.0 -84.25 12.0 L-83.0 9.5 Q-78.5 -2.0 -44.25 -25.75 L-33.75 -39.25 -20.25 -54.25 Q-6.5 -66.75 3.25 -64.5 L12.75 -59.5 19.25 -54.25" fill="#2e47aa" fill-rule="evenodd" stroke="none"/>
  </g>
</svg>
