<?xml version="1.0" encoding="UTF-8" standalone="no"?>
<svg xmlns:ffdec="https://www.free-decompiler.com/flash" xmlns:xlink="http://www.w3.org/1999/xlink" ffdec:objectType="shape" height="152.1px" width="159.5px" xmlns="http://www.w3.org/2000/svg">
  <g transform="matrix(1.0, 0.0, 0.0, 1.0, 83.5, 64.85)">
    <path d="M21.0 -52.75 L27.25 -46.25 45.25 -23.5 51.5 -13.75 57.5 -0.75 57.5 -0.5 67.5 22.25 70.25 29.5 70.5 30.0 70.75 30.75 71.0 31.25 71.5 32.75 71.75 33.25 72.0 34.0 72.25 34.5 72.5 35.25 72.75 35.75 73.25 37.25 73.5 37.75 73.75 38.5 74.0 39.0 74.25 39.75 74.75 40.75 74.75 41.5 75.0 41.5 75.0 42.25 75.25 42.25 75.25 42.75 75.75 47.0 75.75 47.25 76.0 48.75 75.75 51.5 74.0 52.5 Q69.0 71.5 57.0 52.0 L56.75 52.0 50.75 59.5 40.75 66.75 31.0 77.5 Q19.25 85.5 3.5 87.25 L-16.5 84.5 -31.25 77.0 -39.5 68.25 Q-74.0 50.0 -61.5 8.5 L-66.5 11.0 -67.0 26.5 -68.5 38.5 Q-70.25 46.0 -75.0 41.5 -83.25 35.25 -83.5 19.75 L-83.25 18.75 -82.25 12.0 -79.25 5.5 -79.25 5.25 Q-78.25 -2.25 -43.75 -26.5 L-31.25 -42.25 -20.25 -54.25 Q-6.75 -66.75 3.5 -64.5 L12.0 -60.0 21.0 -52.75" fill="#2e47aa" fill-rule="evenodd" stroke="none"/>
  </g>
</svg>
