<?xml version="1.0" encoding="UTF-8" standalone="no"?>
<svg xmlns:ffdec="https://www.free-decompiler.com/flash" xmlns:xlink="http://www.w3.org/1999/xlink" ffdec:objectType="shape" height="152.1px" width="159.75px" xmlns="http://www.w3.org/2000/svg">
  <g transform="matrix(1.0, 0.0, 0.0, 1.0, 83.75, 64.85)">
    <path d="M21.0 -52.75 L27.25 -46.25 45.25 -23.5 51.5 -13.75 57.5 -0.75 57.5 -0.5 67.5 22.25 70.25 29.5 70.5 30.0 70.75 30.75 71.0 31.25 71.5 32.75 71.75 33.25 72.0 34.0 72.25 34.5 72.5 35.25 72.75 35.75 73.25 37.25 73.5 37.75 73.75 38.5 74.0 39.0 74.25 39.75 74.75 40.75 74.75 41.5 75.0 41.5 75.0 42.25 75.25 42.25 75.25 42.75 75.75 47.0 75.75 47.25 76.0 48.75 75.75 51.5 74.0 52.5 Q72.5 63.75 66.75 62.0 L62.75 59.5 56.5 52.25 50.75 59.5 40.75 66.75 31.0 77.5 Q19.25 85.5 3.5 87.25 L-16.5 84.5 -31.25 77.0 -39.5 68.25 Q-74.75 49.0 -61.25 8.25 L-67.0 11.25 -67.75 31.25 -69.25 39.0 Q-71.25 46.25 -75.25 42.25 -84.0 34.75 -83.75 20.0 L-83.5 19.0 -82.25 11.5 -79.5 5.75 -79.5 5.5 -79.0 4.75 -76.75 0.75 -68.0 -8.25 -57.75 -17.0 -43.75 -26.5 -31.25 -42.25 -20.25 -54.25 Q-6.75 -66.75 3.5 -64.5 L12.0 -60.0 21.0 -52.75" fill="#2e47aa" fill-rule="evenodd" stroke="none"/>
  </g>
</svg>
