<?xml version="1.0" encoding="UTF-8" standalone="no"?>
<svg xmlns:ffdec="https://www.free-decompiler.com/flash" xmlns:xlink="http://www.w3.org/1999/xlink" ffdec:objectType="shape" height="152.1px" width="163.0px" xmlns="http://www.w3.org/2000/svg">
  <g transform="matrix(1.0, 0.0, 0.0, 1.0, 87.0, 64.85)">
    <path d="M21.0 -52.75 L27.25 -46.25 45.25 -23.5 51.5 -13.75 57.5 -0.75 57.5 -0.5 67.5 22.25 70.25 29.5 70.5 30.0 70.75 30.75 71.0 31.25 71.5 32.75 71.75 33.25 72.0 34.0 72.25 34.5 72.5 35.25 72.75 35.75 73.25 37.25 73.5 37.75 73.75 38.5 74.0 39.0 74.25 39.75 74.75 40.75 74.75 41.5 75.0 41.5 75.0 42.25 75.25 42.25 75.25 42.75 75.75 47.0 75.75 47.25 76.0 48.75 75.75 51.5 74.0 52.5 Q73.5 62.25 66.75 62.0 L63.0 59.5 56.75 52.25 56.5 52.25 50.75 59.5 40.75 66.75 31.0 77.5 Q19.25 85.5 3.5 87.25 L-16.5 84.5 -31.25 77.0 -39.5 68.25 Q-74.75 49.0 -61.25 8.25 L-70.0 12.75 -69.5 24.5 -70.5 41.75 Q-72.25 49.0 -77.0 45.0 -87.0 37.75 -87.0 20.25 L-87.0 19.25 -86.25 14.0 -83.25 7.25 -83.25 7.0 -82.75 6.0 -82.25 5.5 -82.25 5.25 -81.0 2.75 -66.75 -10.75 -55.5 -19.5 -47.25 -25.0 -43.75 -26.5 -31.25 -42.25 -20.25 -54.25 Q-6.75 -66.75 3.5 -64.5 L12.0 -60.0 21.0 -52.75" fill="#2e47aa" fill-rule="evenodd" stroke="none"/>
  </g>
</svg>
