<?xml version="1.0" encoding="UTF-8" standalone="no"?>
<svg xmlns:ffdec="https://www.free-decompiler.com/flash" xmlns:xlink="http://www.w3.org/1999/xlink" ffdec:objectType="shape" height="152.1px" width="166.75px" xmlns="http://www.w3.org/2000/svg">
  <g transform="matrix(1.0, 0.0, 0.0, 1.0, 90.75, 64.85)">
    <path d="M21.0 -52.75 L27.25 -46.25 45.25 -23.5 51.5 -13.75 57.5 -0.75 57.5 -0.5 67.5 22.25 70.25 29.5 70.5 30.0 70.75 30.75 71.0 31.25 71.5 32.75 71.75 33.25 72.0 34.0 72.25 34.5 72.5 35.25 72.75 35.75 73.25 37.25 73.5 37.75 73.75 38.5 74.0 39.0 74.25 39.75 74.75 40.75 74.75 41.5 75.0 41.5 75.0 42.25 75.25 42.25 75.25 42.75 75.75 47.0 75.75 47.25 76.0 48.75 75.75 51.5 73.75 52.5 Q71.25 63.5 66.5 61.5 L63.75 59.5 57.0 51.5 50.75 59.5 40.75 66.75 31.0 77.5 Q19.25 85.5 3.5 87.25 L-16.5 84.5 -31.25 77.0 -39.5 68.25 Q-74.5 49.0 -61.5 8.5 L-72.25 14.5 -70.5 30.75 -70.5 43.75 Q-71.0 51.25 -76.75 47.5 -81.25 44.75 -85.75 38.5 L-90.0 28.5 -90.75 25.0 -90.0 17.0 -88.0 11.0 -87.75 10.0 -85.0 5.25 -80.75 0.75 -61.5 -15.5 -52.25 -22.0 Q-45.5 -26.75 -43.75 -26.5 L-31.25 -42.25 -20.25 -54.25 Q-6.75 -66.75 3.5 -64.5 L12.0 -60.0 21.0 -52.75" fill="#2e47aa" fill-rule="evenodd" stroke="none"/>
  </g>
</svg>
