<?xml version="1.0" encoding="UTF-8" standalone="no"?>
<svg xmlns:ffdec="https://www.free-decompiler.com/flash" xmlns:xlink="http://www.w3.org/1999/xlink" ffdec:objectType="shape" height="332.65px" width="366.5px" xmlns="http://www.w3.org/2000/svg">
  <g transform="matrix(1.0, 0.0, 0.0, 1.0, 181.55, 159.8)">
    <path d="M17.5 -134.25 Q17.7 -138.9 14.35 -142.25 2.4 -154.15 -15.0 -156.75 -0.95 -163.7 12.15 -154.85 30.35 -142.65 31.0 -120.25 L17.5 -134.25" fill="#e58508" fill-rule="evenodd" stroke="none"/>
    <path d="M184.8 107.7 Q185.3 110.6 184.1 110.3 142.9 97.45 130.5 53.75 L119.5 45.75 Q122.85 59.95 123.55 74.7 125.4 115.35 93.7 140.2 57.25 168.75 10.25 172.3 -43.0 176.8 -87.2 145.1 -96.9 138.15 -104.6 129.3 -150.65 76.4 -132.25 4.0 L-131.75 3.5 -132.25 3.0 -146.5 13.5 Q-155.75 46.0 -175.25 72.75 -187.05 50.8 -176.75 24.0 -177.25 29.85 -176.85 35.75 -176.6 39.35 -174.3 39.9 -164.15 41.6 -158.25 32.75 L-158.1 32.5 Q-155.5 28.45 -153.75 22.25 -160.65 19.6 -164.25 13.0 -163.4 13.8 -162.25 13.5 -151.15 11.2 -142.25 3.75 L-116.55 -14.9 Q-136.5 6.15 -133.9 36.3 -129.7 85.1 -98.8 121.35 -83.15 139.75 -60.55 147.7 -3.75 167.5 54.15 147.65 110.9 128.35 119.25 70.75 L105.5 44.75 78.0 10.0 112.0 37.25 137.0 52.75 Q136.05 54.35 136.35 55.6 138.1 62.4 141.0 68.35 L141.85 70.0 Q153.05 91.35 179.75 101.5 179.7 92.55 177.75 83.85 L183.5 102.0 Q184.35 104.8 184.8 107.7" fill="#000000" fill-opacity="0.49803922" fill-rule="evenodd" stroke="none"/>
  </g>
</svg>
