<?xml version="1.0" encoding="UTF-8" standalone="no"?>
<svg xmlns:ffdec="https://www.free-decompiler.com/flash" xmlns:xlink="http://www.w3.org/1999/xlink" ffdec:objectType="shape" height="152.1px" width="175.55px" xmlns="http://www.w3.org/2000/svg">
  <g transform="matrix(1.0, 0.0, 0.0, 1.0, 99.55, 64.85)">
    <path d="M19.25 -54.25 L27.5 -46.0 45.5 -23.25 50.75 -15.0 57.5 -0.75 57.5 -0.5 67.5 22.25 70.25 29.5 70.5 30.0 70.75 30.75 71.0 31.25 71.5 32.75 71.75 33.25 72.0 34.0 72.25 34.5 72.5 35.25 72.75 35.75 73.25 37.25 73.5 37.75 73.75 38.5 74.0 39.0 74.25 39.75 74.75 40.75 74.75 41.5 75.0 41.5 75.0 42.25 75.25 42.25 75.25 42.75 75.75 47.0 75.75 47.25 76.0 48.75 75.75 51.5 73.75 52.5 Q71.25 63.5 66.5 61.5 L63.75 59.5 57.0 51.5 50.75 59.5 40.75 66.75 31.0 77.5 Q19.25 85.5 3.5 87.25 L-16.5 84.5 -31.25 77.0 -39.5 68.25 Q-56.0 60.25 -62.5 43.75 L-64.5 29.5 -63.0 14.0 -76.0 22.5 -69.25 34.0 -62.25 48.25 Q-61.0 48.5 -62.0 53.5 L-67.0 54.75 -73.75 53.5 -85.25 49.5 -88.25 47.5 -88.5 47.5 -89.0 47.0 -89.5 46.75 -90.0 46.25 -90.75 45.75 Q-103.25 35.0 -98.0 24.75 -99.25 12.75 -44.5 -25.75 L-30.25 -43.5 -20.25 -54.25 Q-6.5 -66.75 3.25 -64.5 L12.75 -59.5 19.25 -54.25" fill="#2e47aa" fill-rule="evenodd" stroke="none"/>
  </g>
</svg>
