<?xml version="1.0" encoding="UTF-8" standalone="no"?>
<svg xmlns:ffdec="https://www.free-decompiler.com/flash" xmlns:xlink="http://www.w3.org/1999/xlink" ffdec:objectType="shape" height="152.1px" width="175.35px" xmlns="http://www.w3.org/2000/svg">
  <g transform="matrix(1.0, 0.0, 0.0, 1.0, 99.35, 64.85)">
    <path d="M19.25 -54.25 L27.5 -46.0 45.5 -23.25 50.75 -15.0 57.5 -0.75 57.5 -0.5 67.5 22.25 70.25 29.5 70.5 30.0 70.75 30.75 71.0 31.25 71.5 32.75 71.75 33.25 72.0 34.0 72.25 34.5 72.5 35.25 72.75 35.75 73.25 37.25 73.5 37.75 73.75 38.5 74.0 39.0 74.25 39.75 74.75 40.75 74.75 41.5 75.0 41.5 75.0 42.25 75.25 42.25 75.25 42.75 75.75 47.0 75.75 47.25 76.0 48.75 75.75 51.5 73.75 52.5 Q71.25 63.5 66.5 61.5 L63.75 59.5 57.0 51.5 50.75 59.5 40.75 66.75 31.0 77.5 Q19.25 85.5 3.5 87.25 L-16.5 84.5 -31.25 77.0 -39.5 68.25 Q-69.25 55.75 -63.0 14.75 L-75.75 23.5 -75.75 23.75 -75.25 24.25 -75.0 24.75 -72.5 27.5 -64.5 40.75 -61.0 48.25 Q-59.25 49.0 -60.5 53.5 L-65.5 55.0 -74.75 53.25 -85.0 50.25 Q-100.5 43.75 -99.25 31.0 L-99.0 30.5 -98.25 26.25 Q-100.0 13.75 -44.25 -25.75 L-33.75 -39.25 -20.25 -54.25 Q-6.5 -66.75 3.25 -64.5 L12.75 -59.5 19.25 -54.25" fill="#2e47aa" fill-rule="evenodd" stroke="none"/>
  </g>
</svg>
