<?xml version="1.0" encoding="UTF-8" standalone="no"?>
<svg xmlns:ffdec="https://www.free-decompiler.com/flash" xmlns:xlink="http://www.w3.org/1999/xlink" ffdec:objectType="shape" height="335.55px" width="366.3px" xmlns="http://www.w3.org/2000/svg">
  <g transform="matrix(1.0, 0.0, 0.0, 1.0, 188.15, 155.65)">
    <path d="M-35.0 -148.75 Q-48.95 -148.4 -54.85 -135.8 -56.6 -132.0 -56.5 -127.75 L-67.0 -112.25 Q-69.55 -130.6 -57.45 -144.45 -44.55 -159.2 -26.25 -154.5 L-27.6 -154.05 -35.0 -148.75 M-129.95 101.5 Q-134.6 90.25 -130.5 78.5 -129.6 93.1 -127.1 107.3 L-127.0 108.75 -129.95 101.5 M-69.75 167.25 Q-65.75 168.85 -61.6 169.6 L-24.0 174.5 Q-42.05 185.4 -59.15 174.35 L-69.75 167.25" fill="#e58508" fill-rule="evenodd" stroke="none"/>
    <path d="M-155.45 90.7 Q-147.25 84.2 -145.3 78.85 -155.5 110.2 -186.75 121.75 L-187.75 120.75 -187.9 119.9 Q-188.5 115.75 -187.75 111.5 L-181.75 79.25 -177.75 61.9 Q-179.85 72.3 -177.6 82.6 -172.75 104.45 -155.45 90.7 M170.75 24.0 Q183.65 44.5 174.0 62.25 150.8 33.9 133.5 1.75 L114.75 -9.0 Q133.45 31.3 122.3 73.8 111.0 116.7 73.55 141.15 20.55 175.6 -43.25 179.75 -117.35 159.5 -132.5 86.75 -127.7 72.45 -130.25 56.5 L-142.25 66.5 Q-143.35 72.5 -145.0 77.95 -143.1 70.9 -152.5 66.0 -125.15 53.6 -104.2 30.5 -139.2 72.7 -107.75 121.25 -92.25 145.15 -65.25 153.95 12.7 179.75 77.0 127.9 99.55 109.65 111.6 83.6 141.85 18.1 90.5 -28.75 117.9 -11.2 147.75 1.5 L147.15 2.35 Q144.4 5.45 140.5 7.5 L140.95 9.3 Q141.15 10.5 141.8 11.6 L142.45 12.3 144.0 11.5 Q150.05 22.45 159.45 30.65 174.7 44.1 170.75 24.0" fill="#000000" fill-opacity="0.49803922" fill-rule="evenodd" stroke="none"/>
  </g>
</svg>
