<?xml version="1.0" encoding="UTF-8" standalone="no"?>
<svg xmlns:ffdec="https://www.free-decompiler.com/flash" xmlns:xlink="http://www.w3.org/1999/xlink" ffdec:objectType="shape" height="151.75px" width="175.05px" xmlns="http://www.w3.org/2000/svg">
  <g transform="matrix(1.0, 0.0, 0.0, 1.0, 99.05, 64.5)">
    <path d="M19.25 -54.25 L27.5 -46.0 45.5 -23.25 50.75 -15.0 57.5 -0.75 57.5 -0.5 71.0 31.25 71.25 32.0 71.5 32.5 72.0 34.0 72.25 34.5 72.5 35.25 72.75 35.75 73.0 36.5 73.25 37.0 73.75 38.5 74.0 39.0 74.25 39.75 74.75 40.75 74.75 41.5 75.0 41.5 75.0 42.25 75.25 42.25 75.25 42.75 75.75 47.0 75.75 47.25 76.0 48.75 75.75 51.5 73.75 52.5 Q71.75 63.0 66.5 61.5 L61.5 57.5 57.0 51.75 56.75 51.75 50.75 59.5 40.75 66.75 31.0 77.5 Q19.25 85.5 3.5 87.25 L-16.5 84.5 -31.25 77.0 -39.5 68.25 -51.0 60.75 -56.5 54.5 -58.5 54.75 -69.0 55.0 -82.0 53.5 -92.0 48.75 -93.75 47.5 -98.25 41.75 Q-100.0 39.25 -98.0 31.5 L-98.75 28.0 -97.25 25.5 -97.0 25.25 -95.75 23.0 -95.75 22.75 -93.75 19.5 -67.25 -7.5 -53.5 -19.5 -45.0 -24.75 Q-19.75 -64.0 3.25 -64.5 L12.75 -59.5 19.25 -54.25 M-64.0 18.75 L-73.5 26.0 -64.0 35.75 -64.5 28.25 -64.0 18.75" fill="#2e47aa" fill-rule="evenodd" stroke="none"/>
  </g>
</svg>
