<?xml version="1.0" encoding="UTF-8" standalone="no"?>
<svg xmlns:ffdec="https://www.free-decompiler.com/flash" xmlns:xlink="http://www.w3.org/1999/xlink" ffdec:objectType="shape" height="151.75px" width="174.5px" xmlns="http://www.w3.org/2000/svg">
  <g transform="matrix(1.0, 0.0, 0.0, 1.0, 98.5, 64.5)">
    <path d="M19.25 -54.25 L27.5 -46.0 45.5 -23.25 50.75 -15.0 57.0 -1.75 57.0 -1.5 70.25 29.25 70.5 30.0 70.75 30.5 71.0 31.25 71.25 31.75 71.5 32.5 71.75 33.0 72.25 34.5 72.5 35.0 72.75 35.75 73.0 36.25 73.25 37.0 73.5 37.5 74.0 39.0 74.5 40.0 74.5 40.25 74.75 41.25 75.0 41.5 75.0 42.0 75.25 42.5 75.75 46.5 75.75 46.75 76.0 48.5 76.0 50.0 75.5 51.75 73.75 52.75 Q71.5 63.25 66.25 61.5 L62.25 58.75 56.5 52.25 50.75 59.5 40.75 66.75 31.0 77.5 Q19.25 85.5 3.5 87.25 L-16.5 84.5 -31.25 77.0 -39.5 68.25 -51.0 60.75 -56.5 54.5 -66.25 55.0 -80.25 54.25 -91.25 50.0 -92.5 49.0 -93.25 48.25 Q-100.5 44.25 -97.75 32.75 L-98.5 30.5 -97.25 27.25 -97.0 27.0 -95.25 23.5 -87.0 13.5 -63.75 -10.25 -53.5 -19.25 -44.75 -25.0 Q-19.75 -63.75 3.25 -64.5 L12.75 -59.5 19.25 -54.25 M-64.0 19.75 L-72.5 26.5 -64.0 34.5 -64.5 27.25 -64.0 19.75" fill="#2e47aa" fill-rule="evenodd" stroke="none"/>
  </g>
</svg>
