<?xml version="1.0" encoding="UTF-8" standalone="no"?>
<svg xmlns:ffdec="https://www.free-decompiler.com/flash" xmlns:xlink="http://www.w3.org/1999/xlink" ffdec:objectType="shape" height="151.75px" width="174.25px" xmlns="http://www.w3.org/2000/svg">
  <g transform="matrix(1.0, 0.0, 0.0, 1.0, 98.0, 64.5)">
    <path d="M56.75 -2.0 L69.0 25.75 Q68.75 26.55 69.5 27.0 L70.5 29.75 70.75 30.25 71.0 31.0 71.25 31.5 71.5 32.25 71.75 32.75 72.25 34.25 72.5 34.75 72.75 35.5 73.0 36.0 73.25 36.75 73.5 37.25 74.5 40.0 75.0 41.0 75.0 41.75 75.25 41.75 75.25 42.0 75.5 43.0 75.75 43.25 76.0 48.75 76.25 49.5 76.0 51.5 73.75 52.75 Q71.5 70.25 56.0 53.25 L55.75 53.25 50.75 59.5 40.75 66.75 31.0 77.5 Q19.25 85.5 3.5 87.25 L-16.5 84.5 -31.25 77.0 -39.5 68.25 -51.0 60.75 -56.75 54.25 Q-84.0 57.5 -92.25 49.5 L-92.75 49.0 Q-96.5 46.75 -97.5 43.25 L-97.25 33.75 -98.0 32.0 -97.0 28.75 -95.5 25.75 -95.25 25.0 -95.0 24.5 -90.5 18.75 -69.0 -4.5 -53.75 -18.75 -45.25 -24.5 -44.75 -24.75 Q-19.75 -64.0 3.25 -64.5 25.0 -58.75 56.75 -2.25 L56.75 -2.0 M-64.25 21.0 L-71.5 27.0 -64.25 33.25 -64.25 21.0" fill="#2e47aa" fill-rule="evenodd" stroke="none"/>
  </g>
</svg>
