<?xml version="1.0" encoding="UTF-8" standalone="no"?>
<svg xmlns:ffdec="https://www.free-decompiler.com/flash" xmlns:xlink="http://www.w3.org/1999/xlink" ffdec:objectType="shape" height="152.0px" width="174.0px" xmlns="http://www.w3.org/2000/svg">
  <g transform="matrix(1.0, 0.0, 0.0, 1.0, 97.75, 64.75)">
    <path d="M56.5 -2.75 L70.0 28.0 70.25 28.75 70.5 29.25 70.75 30.0 71.0 30.5 71.25 31.25 71.5 31.75 72.0 33.25 72.25 33.75 72.5 34.5 72.75 35.0 73.0 35.75 73.25 36.25 74.5 39.5 74.75 40.0 74.75 40.25 75.0 41.25 75.0 42.0 75.5 42.5 76.0 47.0 76.0 47.25 76.25 48.75 76.0 51.5 73.75 52.75 Q71.0 67.75 60.0 58.5 L59.5 58.0 54.75 54.5 50.75 59.5 40.75 66.75 31.0 77.5 Q19.25 85.5 3.5 87.25 L-16.5 84.5 -31.25 77.0 -39.5 68.25 -51.0 60.75 -56.75 54.25 Q-79.75 58.25 -92.25 49.75 L-93.5 48.75 -96.5 45.25 Q-98.0 36.0 -96.5 35.0 L-97.75 32.5 -94.75 26.25 -94.75 26.0 -94.25 25.25 -81.25 9.5 -64.5 -8.5 -52.0 -20.0 -45.0 -24.5 Q-20.5 -62.5 1.75 -64.75 25.75 -58.25 56.5 -3.0 L56.5 -2.75 M-64.25 22.25 L-70.75 27.25 -64.25 32.0 -64.25 22.25" fill="#2e47aa" fill-rule="evenodd" stroke="none"/>
  </g>
</svg>
