<?xml version="1.0" encoding="UTF-8" standalone="no"?>
<svg xmlns:ffdec="https://www.free-decompiler.com/flash" xmlns:xlink="http://www.w3.org/1999/xlink" ffdec:objectType="shape" height="152.0px" width="173.5px" xmlns="http://www.w3.org/2000/svg">
  <g transform="matrix(1.0, 0.0, 0.0, 1.0, 97.0, 64.75)">
    <path d="M55.5 -4.75 L67.75 21.75 69.75 27.0 70.0 27.5 70.25 28.25 70.5 28.75 70.75 29.5 71.0 30.0 71.5 31.5 71.75 32.0 72.0 32.75 72.25 33.25 72.5 34.0 72.75 34.5 73.5 36.5 74.0 37.5 74.0 37.75 75.0 40.75 75.25 41.0 75.25 41.5 75.5 41.75 75.75 42.75 76.0 43.0 76.25 48.5 76.5 49.25 75.75 51.5 74.0 52.5 72.75 57.25 Q69.75 62.0 68.75 62.0 L66.25 62.0 59.0 59.25 53.75 55.75 50.75 59.5 40.75 66.75 31.0 77.5 Q19.25 85.5 3.5 87.25 L-16.5 84.5 -31.25 77.0 -39.5 68.25 -51.0 60.75 -56.75 54.25 Q-100.25 60.75 -95.75 36.0 L-97.0 34.0 -96.5 32.25 -94.0 26.75 -93.5 26.0 -81.0 10.5 -68.25 -3.75 -52.75 -19.0 -45.0 -24.5 Q-20.5 -62.5 1.75 -64.75 24.75 -58.75 55.5 -5.0 L55.5 -4.75 M-64.25 23.5 L-64.5 23.5 -69.5 27.75 -66.0 30.25 -64.25 31.0 -64.25 23.5" fill="#2e47aa" fill-rule="evenodd" stroke="none"/>
  </g>
</svg>
