<?xml version="1.0" encoding="UTF-8" standalone="no"?>
<svg xmlns:ffdec="https://www.free-decompiler.com/flash" xmlns:xlink="http://www.w3.org/1999/xlink" ffdec:objectType="shape" height="152.0px" width="173.0px" xmlns="http://www.w3.org/2000/svg">
  <g transform="matrix(1.0, 0.0, 0.0, 1.0, 96.25, 64.75)">
    <path d="M55.25 -5.5 L68.25 22.5 69.0 24.5 69.25 25.0 70.25 27.75 70.5 28.25 70.75 29.0 71.0 29.5 71.25 30.25 71.5 30.75 71.75 31.5 72.0 32.0 72.25 32.75 72.5 33.25 73.25 35.25 73.75 36.25 73.75 36.5 75.5 41.5 75.75 41.75 76.0 42.25 76.5 48.0 76.5 49.25 76.75 49.75 76.25 51.25 74.5 52.25 Q72.0 68.0 57.0 59.5 L56.5 59.25 55.75 58.75 52.25 57.25 51.0 59.25 40.75 66.75 31.0 77.5 Q19.25 85.5 3.5 87.25 L-16.5 84.5 -31.25 77.0 -39.5 68.25 -51.0 60.75 -56.75 54.25 Q-99.75 61.5 -95.0 37.25 L-96.25 35.25 -95.5 33.0 -95.25 32.5 -95.25 32.25 -94.75 31.25 -94.25 29.75 -93.25 27.75 -83.75 15.25 -63.75 -8.0 -53.0 -18.5 -45.0 -24.5 Q-20.5 -62.5 2.0 -64.75 25.25 -58.0 55.25 -5.75 L55.25 -5.5 M-64.5 24.75 L-68.25 28.0 -64.5 30.25 -64.5 24.75" fill="#2e47aa" fill-rule="evenodd" stroke="none"/>
  </g>
</svg>
