<?xml version="1.0" encoding="UTF-8" standalone="no"?>
<svg xmlns:ffdec="https://www.free-decompiler.com/flash" xmlns:xlink="http://www.w3.org/1999/xlink" ffdec:objectType="shape" height="152.45px" width="172.25px" xmlns="http://www.w3.org/2000/svg">
  <g transform="matrix(1.0, 0.0, 0.0, 1.0, 95.5, 65.2)">
    <path d="M54.25 -7.5 L59.25 1.5 69.5 25.0 69.75 25.75 70.0 26.25 70.25 27.0 70.5 27.5 70.75 28.25 71.0 28.75 71.25 29.5 71.5 30.0 76.0 41.75 76.25 42.25 76.75 51.0 74.75 52.0 Q73.25 67.5 56.5 60.75 L54.0 59.75 53.5 59.5 52.75 59.25 52.25 59.0 52.0 59.0 51.0 58.5 43.25 65.5 40.75 66.75 31.0 77.5 Q19.25 85.5 3.5 87.25 L-16.5 84.5 -31.25 77.0 -39.5 68.25 -51.0 60.75 -56.75 54.25 Q-97.5 62.75 -94.25 38.0 L-95.5 36.5 -94.75 34.25 -94.5 33.75 -94.5 33.5 -94.25 33.0 -92.75 29.25 -92.25 28.25 -81.75 14.25 -64.0 -7.0 -52.75 -18.5 -45.0 -24.25 Q-18.0 -64.0 0.0 -65.0 15.25 -68.75 54.25 -7.75 L54.25 -7.5 M-64.75 26.25 L-67.0 28.25 -64.5 29.5 -64.5 26.25 -64.75 26.25" fill="#2e47aa" fill-rule="evenodd" stroke="none"/>
  </g>
</svg>
