<?xml version="1.0" encoding="UTF-8" standalone="no"?>
<svg xmlns:ffdec="https://www.free-decompiler.com/flash" xmlns:xlink="http://www.w3.org/1999/xlink" ffdec:objectType="shape" height="152.45px" width="171.5px" xmlns="http://www.w3.org/2000/svg">
  <g transform="matrix(1.0, 0.0, 0.0, 1.0, 94.5, 65.2)">
    <path d="M53.5 -9.25 L59.5 1.5 67.75 19.5 76.25 40.5 76.75 45.25 77.0 46.0 77.0 50.75 75.25 51.75 Q75.25 55.0 73.25 58.0 L69.25 62.25 61.0 63.0 49.75 60.0 40.75 66.75 31.0 77.5 Q19.25 85.5 3.5 87.25 L-16.5 84.5 -31.25 77.0 -39.5 68.25 -51.0 60.75 -56.75 54.25 -60.75 54.75 -61.25 55.0 -64.0 55.25 -64.5 55.5 -65.5 55.5 -66.0 55.75 -67.0 55.75 -67.5 56.0 Q-87.25 56.75 -90.25 52.25 -93.75 50.25 -93.25 39.0 L-94.5 37.75 -94.0 35.5 -93.75 35.25 -91.75 30.0 -91.75 29.75 -79.25 12.5 -65.25 -4.75 -51.75 -19.0 -45.25 -24.0 Q-18.0 -64.0 0.0 -65.0 15.25 -68.5 53.5 -9.5 L53.5 -9.25 M-64.75 27.5 L-65.75 28.25 -64.5 29.0 -64.75 27.5" fill="#2e47aa" fill-rule="evenodd" stroke="none"/>
  </g>
</svg>
