<?xml version="1.0" encoding="UTF-8" standalone="no"?>
<svg xmlns:ffdec="https://www.free-decompiler.com/flash" xmlns:xlink="http://www.w3.org/1999/xlink" ffdec:objectType="shape" height="152.3px" width="171.0px" xmlns="http://www.w3.org/2000/svg">
  <g transform="matrix(1.0, 0.0, 0.0, 1.0, 93.5, 65.05)">
    <path d="M52.0 -12.25 L59.5 1.0 68.0 19.75 76.75 42.0 77.25 45.25 77.25 48.5 77.5 50.5 75.5 51.5 Q75.25 68.5 48.0 61.5 L40.75 66.75 31.0 77.5 Q19.25 85.5 3.5 87.25 L-16.5 84.5 -31.25 77.0 -39.5 68.25 -51.0 60.75 -56.75 54.25 -60.25 54.75 -60.75 55.0 -61.5 55.0 -67.25 56.25 Q-97.0 58.5 -92.0 40.25 L-93.5 39.0 -93.25 37.0 -93.0 36.75 -91.0 31.25 -91.0 31.0 -90.75 30.5 -90.5 30.25 -90.25 29.75 -80.0 15.0 -63.0 -6.75 -54.0 -16.5 -45.5 -23.75 Q-21.25 -60.25 -1.0 -65.0 16.5 -67.0 52.0 -12.5 L52.0 -12.25" fill="#2e47aa" fill-rule="evenodd" stroke="none"/>
  </g>
</svg>
