<?xml version="1.0" encoding="UTF-8" standalone="no"?>
<svg xmlns:ffdec="https://www.free-decompiler.com/flash" xmlns:xlink="http://www.w3.org/1999/xlink" ffdec:objectType="shape" height="152.25px" width="170.5px" xmlns="http://www.w3.org/2000/svg">
  <g transform="matrix(1.0, 0.0, 0.0, 1.0, 92.5, 65.0)">
    <path d="M58.75 -1.0 L70.25 24.25 77.5 43.0 Q79.0 50.75 76.0 51.25 76.75 53.5 74.5 57.5 L70.0 62.25 61.0 64.0 46.25 62.75 40.75 66.75 31.0 77.5 Q19.25 85.5 3.5 87.25 L-16.5 84.5 -31.25 77.0 -39.5 68.25 -51.0 60.75 -56.75 54.25 -57.25 54.25 -65.5 56.25 -77.5 56.75 -78.0 56.5 Q-92.5 57.5 -91.0 41.25 L-91.25 41.0 -92.5 40.0 -92.25 38.0 -92.0 37.75 -90.0 32.0 -90.0 31.75 -89.75 31.25 -78.0 13.75 -66.5 -1.5 -55.0 -15.0 -45.75 -23.25 Q-21.25 -60.5 -1.0 -65.0 17.0 -65.75 50.75 -14.75 L50.75 -14.5 58.75 -1.0" fill="#2e47aa" fill-rule="evenodd" stroke="none"/>
  </g>
</svg>
