<?xml version="1.0" encoding="UTF-8" standalone="no"?>
<svg xmlns:ffdec="https://www.free-decompiler.com/flash" xmlns:xlink="http://www.w3.org/1999/xlink" ffdec:objectType="shape" height="152.35px" width="169.25px" xmlns="http://www.w3.org/2000/svg">
  <g transform="matrix(1.0, 0.0, 0.0, 1.0, 90.25, 65.1)">
    <path d="M59.25 -1.25 L70.0 21.5 70.25 22.25 72.25 26.75 72.5 27.5 72.75 28.0 73.0 28.75 73.25 29.0 78.25 41.75 Q80.25 50.0 77.0 50.5 80.0 66.75 43.5 65.0 L40.75 66.75 31.0 77.5 Q19.25 85.5 3.5 87.25 L-16.5 84.5 -31.25 77.0 -39.5 68.25 -51.0 60.75 -56.5 54.5 -62.0 56.0 -62.25 56.0 -63.0 56.25 Q-91.25 61.5 -88.75 43.25 L-90.25 42.0 -90.0 39.5 -89.75 39.25 -89.25 37.0 -88.0 33.5 -88.0 33.25 -87.75 32.75 -79.0 18.5 -64.25 -2.75 -53.25 -16.25 -46.25 -22.75 Q-21.0 -60.75 -1.0 -65.0 14.5 -67.5 49.0 -17.5 L49.0 -17.25 51.75 -14.0 59.25 -1.25" fill="#2e47aa" fill-rule="evenodd" stroke="none"/>
  </g>
</svg>
