<?xml version="1.0" encoding="UTF-8" standalone="no"?>
<svg xmlns:ffdec="https://www.free-decompiler.com/flash" xmlns:xlink="http://www.w3.org/1999/xlink" ffdec:objectType="shape" height="152.25px" width="168.75px" xmlns="http://www.w3.org/2000/svg">
  <g transform="matrix(1.0, 0.0, 0.0, 1.0, 89.25, 65.0)">
    <path d="M59.25 -1.75 L73.5 28.5 73.75 29.25 74.0 29.75 74.25 30.5 74.5 31.0 74.75 31.25 78.75 41.25 Q80.75 49.75 77.5 50.25 80.5 66.75 42.5 65.75 L40.75 66.75 31.0 77.5 Q19.25 85.5 3.5 87.25 L-16.5 84.5 -31.25 77.0 -39.5 68.25 -51.0 60.75 -56.25 54.75 -61.0 56.0 -75.25 57.75 -82.75 56.0 Q-86.25 55.75 -87.5 44.0 L-87.75 44.0 -89.25 42.75 -88.75 40.0 -88.5 39.5 -88.25 38.0 -87.25 34.25 -86.75 33.5 -86.75 33.25 -86.5 33.0 -85.25 31.0 -85.0 30.5 -84.5 29.75 -84.25 29.25 -77.75 18.25 -62.75 -4.0 -53.0 -16.25 -46.5 -22.25 Q-20.75 -61.0 -1.0 -65.0 18.25 -64.0 48.5 -18.25 L52.25 -13.5 59.25 -1.75" fill="#2e47aa" fill-rule="evenodd" stroke="none"/>
  </g>
</svg>
