<?xml version="1.0" encoding="UTF-8" standalone="no"?>
<svg xmlns:ffdec="https://www.free-decompiler.com/flash" xmlns:xlink="http://www.w3.org/1999/xlink" ffdec:objectType="shape" height="152.3px" width="168.05px" xmlns="http://www.w3.org/2000/svg">
  <g transform="matrix(1.0, 0.0, 0.0, 1.0, 88.05, 65.05)">
    <path d="M58.0 -4.5 L73.75 27.5 73.75 27.75 74.75 30.25 75.0 30.75 75.25 31.0 75.5 32.0 79.5 42.5 Q81.0 49.75 78.0 50.0 81.0 66.75 40.75 66.5 L40.75 66.75 31.0 77.5 Q19.25 85.5 3.5 87.25 L-16.5 84.5 -31.25 77.0 -39.5 68.25 -48.0 63.0 -51.0 60.75 -56.0 55.0 -60.0 56.0 -73.75 58.0 -81.5 56.5 Q-85.25 55.0 -86.25 45.0 L-86.5 44.75 Q-89.5 43.75 -86.75 36.0 L-76.75 18.25 -63.25 -2.5 -54.25 -14.25 -46.5 -22.25 Q-20.75 -61.0 -1.0 -65.0 15.25 -66.25 47.5 -19.75 L47.75 -19.25 51.75 -14.75 58.0 -4.5" fill="#2e47aa" fill-rule="evenodd" stroke="none"/>
  </g>
</svg>
