<?xml version="1.0" encoding="UTF-8" standalone="no"?>
<svg xmlns:ffdec="https://www.free-decompiler.com/flash" xmlns:xlink="http://www.w3.org/1999/xlink" ffdec:objectType="shape" height="152.25px" width="167.6px" xmlns="http://www.w3.org/2000/svg">
  <g transform="matrix(1.0, 0.0, 0.0, 1.0, 87.0, 65.0)">
    <path d="M60.25 -1.5 L71.0 20.25 76.0 31.5 76.25 32.25 76.5 32.75 76.75 33.0 80.0 41.25 Q81.75 49.5 78.25 49.75 81.25 66.5 40.25 67.0 L32.0 77.0 Q18.75 85.75 3.5 87.25 L-16.5 84.5 -31.25 77.0 -39.5 68.25 -48.0 63.0 -51.0 60.75 -55.75 55.25 -73.25 58.25 -80.75 56.75 Q-85.75 51.0 -85.0 45.75 L-85.25 45.5 -87.0 44.25 -84.75 34.0 -75.5 17.75 -62.5 -2.75 -54.75 -13.25 -47.25 -21.25 Q-20.5 -61.5 -1.0 -65.0 15.25 -66.0 47.25 -20.25 L52.25 -14.5 60.25 -1.5" fill="#2e47aa" fill-rule="evenodd" stroke="none"/>
  </g>
</svg>
