<?xml version="1.0" encoding="UTF-8" standalone="no"?>
<svg xmlns:ffdec="https://www.free-decompiler.com/flash" xmlns:xlink="http://www.w3.org/1999/xlink" ffdec:objectType="shape" height="152.25px" width="167.25px" xmlns="http://www.w3.org/2000/svg">
  <g transform="matrix(1.0, 0.0, 0.0, 1.0, 86.0, 65.0)">
    <path d="M59.75 -2.75 L75.5 28.75 75.5 29.0 76.5 31.25 76.75 31.5 77.0 32.5 80.5 40.5 Q82.5 48.75 79.0 49.25 82.0 66.25 40.0 67.25 L31.0 77.5 Q19.25 85.5 3.5 87.25 L-16.5 84.5 -31.25 77.0 -39.5 68.25 -51.5 60.25 -55.75 55.5 -57.75 55.75 -58.25 55.75 -58.75 56.0 -60.5 56.25 -61.0 56.5 -70.0 58.25 Q-73.25 58.75 -79.5 57.0 L-82.25 53.25 Q-85.0 47.25 -84.0 46.5 L-84.0 46.25 -86.0 44.75 -84.0 34.75 -64.25 0.75 -53.5 -14.5 -47.5 -21.0 Q-20.25 -61.5 -1.0 -65.0 15.25 -66.0 47.25 -20.25 L52.0 -15.0 59.75 -2.75" fill="#2e47aa" fill-rule="evenodd" stroke="none"/>
  </g>
</svg>
