<?xml version="1.0" encoding="UTF-8" standalone="no"?>
<svg xmlns:ffdec="https://www.free-decompiler.com/flash" xmlns:xlink="http://www.w3.org/1999/xlink" ffdec:objectType="shape" height="152.25px" width="166.9px" xmlns="http://www.w3.org/2000/svg">
  <g transform="matrix(1.0, 0.0, 0.0, 1.0, 85.0, 65.0)">
    <path d="M57.5 -6.5 L71.5 19.25 76.75 30.5 77.0 30.75 77.5 32.25 81.0 40.0 Q83.25 48.5 79.75 49.0 83.0 66.5 39.75 67.5 L31.25 77.25 Q19.0 85.75 3.5 87.25 L-16.5 84.5 -31.25 77.0 -39.5 68.25 -48.0 63.0 -51.0 60.75 -55.5 55.5 -57.0 55.75 -57.5 55.75 -60.75 56.5 -61.25 56.75 Q-83.5 63.0 -82.75 47.0 L-83.0 46.75 -85.0 45.25 -83.0 35.25 -73.25 16.75 -63.0 -0.5 -53.5 -14.25 -47.5 -21.0 Q-20.25 -61.5 -1.0 -65.0 15.25 -66.0 47.25 -20.25 L52.25 -14.75 57.5 -6.5" fill="#2e47aa" fill-rule="evenodd" stroke="none"/>
  </g>
</svg>
