<?xml version="1.0" encoding="UTF-8" standalone="no"?>
<svg xmlns:ffdec="https://www.free-decompiler.com/flash" xmlns:xlink="http://www.w3.org/1999/xlink" ffdec:objectType="shape" height="152.25px" width="166.4px" xmlns="http://www.w3.org/2000/svg">
  <g transform="matrix(1.0, 0.0, 0.0, 1.0, 84.0, 65.0)">
    <path d="M46.75 -21.0 L46.75 -20.75 51.75 -15.5 57.5 -6.75 72.0 19.5 76.5 28.75 76.75 29.0 77.25 30.5 81.5 39.75 Q83.75 47.75 80.5 48.5 84.0 66.5 39.75 67.75 L31.0 77.5 Q19.25 85.5 3.5 87.25 L-16.5 84.5 -31.25 77.0 -39.5 68.25 -48.0 63.0 -51.0 60.75 -55.5 55.5 -56.5 55.75 -57.0 55.75 -59.0 56.25 -59.5 56.5 -68.25 58.5 -77.25 57.5 Q-78.5 57.25 -81.0 51.75 L-81.75 47.5 -82.0 47.25 -84.0 45.75 -82.5 36.25 -72.75 17.25 -62.25 -1.0 -53.25 -14.25 -48.0 -20.25 Q-20.0 -62.0 -1.0 -65.0 15.5 -65.75 46.75 -21.0" fill="#2e47aa" fill-rule="evenodd" stroke="none"/>
  </g>
</svg>
