<?xml version="1.0" encoding="UTF-8" standalone="no"?>
<svg xmlns:ffdec="https://www.free-decompiler.com/flash" xmlns:xlink="http://www.w3.org/1999/xlink" ffdec:objectType="shape" height="152.25px" width="165.55px" xmlns="http://www.w3.org/2000/svg">
  <g transform="matrix(1.0, 0.0, 0.0, 1.0, 83.0, 65.0)">
    <path d="M60.0 -3.25 L72.25 19.0 76.75 28.25 77.0 28.5 Q85.25 43.5 81.25 48.0 84.75 66.25 39.5 67.75 L32.0 77.0 Q18.75 85.75 3.5 87.25 L-16.5 84.5 -31.25 77.0 -39.5 68.25 -51.0 60.75 -55.5 55.75 -56.25 55.75 -58.25 56.25 -58.75 56.5 -60.0 56.75 -60.5 57.0 Q-81.5 63.0 -80.75 47.75 L-83.0 46.25 -81.75 36.75 -72.75 18.5 -63.0 1.0 -53.75 -13.25 -48.0 -20.25 Q-20.0 -62.0 -1.0 -65.0 15.5 -65.75 46.75 -21.0 L52.25 -14.75 60.0 -3.25" fill="#2e47aa" fill-rule="evenodd" stroke="none"/>
  </g>
</svg>
