<?xml version="1.0" encoding="UTF-8" standalone="no"?>
<svg xmlns:ffdec="https://www.free-decompiler.com/flash" xmlns:xlink="http://www.w3.org/1999/xlink" ffdec:objectType="shape" height="152.25px" width="165.5px" xmlns="http://www.w3.org/2000/svg">
  <g transform="matrix(1.0, 0.0, 0.0, 1.0, 82.25, 65.0)">
    <path d="M59.0 -5.0 L76.75 27.25 77.0 27.5 82.5 39.0 Q84.25 46.75 82.0 47.5 85.75 66.5 39.5 67.75 L32.0 77.0 Q18.75 85.75 3.5 87.25 L-16.5 84.5 -31.25 77.0 -39.5 68.25 -48.0 63.0 Q-54.5 58.0 -55.5 55.75 L-55.75 55.75 -57.5 56.25 -58.0 56.5 -67.25 58.75 -75.0 58.0 -77.0 56.25 Q-80.5 50.0 -80.0 48.25 L-80.25 48.0 -82.25 46.5 Q-82.25 39.5 -80.25 35.5 L-71.75 17.75 -62.5 0.75 -52.75 -14.5 -48.5 -19.5 Q-19.75 -62.25 -1.0 -65.0 15.5 -65.75 46.75 -21.0 L52.0 -15.25 59.0 -5.0" fill="#2e47aa" fill-rule="evenodd" stroke="none"/>
  </g>
</svg>
