<?xml version="1.0" encoding="UTF-8" standalone="no"?>
<svg xmlns:ffdec="https://www.free-decompiler.com/flash" xmlns:xlink="http://www.w3.org/1999/xlink" ffdec:objectType="shape" height="152.25px" width="165.25px" xmlns="http://www.w3.org/2000/svg">
  <g transform="matrix(1.0, 0.0, 0.0, 1.0, 81.5, 65.0)">
    <path d="M61.0 -2.25 L72.75 18.5 82.5 37.75 Q85.0 46.25 82.5 47.25 86.25 66.5 39.5 67.75 L32.0 77.0 Q18.75 85.75 3.5 87.25 L-16.5 84.5 -31.25 77.0 -39.5 68.25 -48.0 63.0 -55.25 56.0 -56.0 56.0 -58.5 56.75 -59.0 57.0 -66.0 58.75 -74.5 58.0 Q-75.75 58.25 -77.5 54.25 L-79.25 48.5 -79.5 48.25 Q-84.0 46.25 -78.25 32.75 L-70.75 16.5 -61.0 -1.5 -52.75 -14.25 -49.0 -18.75 -48.5 -19.5 Q-19.75 -62.25 -1.0 -65.0 15.5 -65.75 46.75 -21.0 L51.75 -15.75 61.0 -2.25" fill="#2e47aa" fill-rule="evenodd" stroke="none"/>
  </g>
</svg>
