<?xml version="1.0" encoding="UTF-8" standalone="no"?>
<svg xmlns:ffdec="https://www.free-decompiler.com/flash" xmlns:xlink="http://www.w3.org/1999/xlink" ffdec:objectType="shape" height="152.25px" width="165.25px" xmlns="http://www.w3.org/2000/svg">
  <g transform="matrix(1.0, 0.0, 0.0, 1.0, 81.0, 65.0)">
    <path d="M58.25 -6.5 L75.25 22.5 75.5 22.75 82.75 37.5 83.0 38.25 83.25 39.5 83.5 40.25 83.5 41.25 83.75 41.75 83.75 43.0 84.25 46.25 83.25 46.75 Q87.25 66.25 39.5 68.0 L31.0 77.5 Q19.25 85.5 3.5 87.25 L-16.5 84.5 -31.25 77.0 -39.5 68.25 -50.0 61.5 -55.0 56.5 -55.5 56.5 -56.0 56.75 -57.25 57.0 -57.75 57.25 -64.75 59.0 Q-66.75 59.75 -73.75 58.25 L-76.5 55.25 -78.75 48.5 -79.0 48.25 -81.0 47.0 -80.75 41.25 -80.25 38.25 -72.25 20.5 -61.0 -1.0 -53.0 -13.75 -49.0 -18.75 Q-19.5 -62.75 -1.0 -65.0 15.5 -65.75 46.75 -21.0 L51.5 -16.0 58.25 -6.5" fill="#2e47aa" fill-rule="evenodd" stroke="none"/>
  </g>
</svg>
