<?xml version="1.0" encoding="UTF-8" standalone="no"?>
<svg xmlns:ffdec="https://www.free-decompiler.com/flash" xmlns:xlink="http://www.w3.org/1999/xlink" ffdec:objectType="shape" height="152.25px" width="165.25px" xmlns="http://www.w3.org/2000/svg">
  <g transform="matrix(1.0, 0.0, 0.0, 1.0, 80.5, 65.0)">
    <path d="M59.25 -5.25 L73.0 17.75 83.0 36.25 83.5 38.5 83.75 39.0 83.75 40.0 84.0 40.5 84.0 41.5 84.75 45.75 83.75 46.25 Q88.0 66.0 39.5 68.0 L31.0 77.5 Q19.25 85.5 3.5 87.25 L-16.5 84.5 -31.25 77.0 -39.5 68.25 -45.25 65.0 Q-53.5 59.25 -53.5 57.75 L-62.5 59.75 Q-68.75 60.5 -73.0 58.75 L-75.25 57.5 Q-77.25 55.25 -78.5 48.5 L-78.75 48.25 Q-82.5 46.0 -78.25 34.75 L-72.5 21.75 -61.25 -0.25 -52.75 -14.0 -49.5 -18.0 -49.0 -18.75 Q-19.5 -62.75 -1.0 -65.0 15.5 -65.75 46.75 -21.0 L52.0 -15.5 59.25 -5.25" fill="#2e47aa" fill-rule="evenodd" stroke="none"/>
  </g>
</svg>
