<?xml version="1.0" encoding="UTF-8" standalone="no"?>
<svg xmlns:ffdec="https://www.free-decompiler.com/flash" xmlns:xlink="http://www.w3.org/1999/xlink" ffdec:objectType="shape" height="152.25px" width="165.5px" xmlns="http://www.w3.org/2000/svg">
  <g transform="matrix(1.0, 0.0, 0.0, 1.0, 80.35, 65.0)">
    <path d="M60.25 -4.0 L74.0 19.0 83.75 37.25 Q86.25 45.0 84.25 46.0 L84.75 52.0 81.75 57.5 79.75 59.25 71.25 63.5 50.25 67.75 39.5 68.0 31.0 77.5 Q19.25 85.5 3.5 87.25 L-16.5 84.5 -31.25 77.0 -39.5 68.25 -42.25 67.0 -52.5 59.0 -66.5 60.75 -73.75 58.75 Q-75.25 58.5 -76.75 54.75 L-78.25 48.75 -78.5 48.5 Q-82.5 46.75 -77.75 34.25 L-71.5 20.0 -61.5 0.5 -49.5 -18.0 -49.0 -18.5 -49.0 -18.75 Q-19.5 -62.75 -1.0 -65.0 15.5 -65.75 46.75 -21.0 L53.0 -14.0 60.25 -4.0" fill="#2e47aa" fill-rule="evenodd" stroke="none"/>
  </g>
</svg>
