<?xml version="1.0" encoding="UTF-8" standalone="no"?>
<svg xmlns:ffdec="https://www.free-decompiler.com/flash" xmlns:xlink="http://www.w3.org/1999/xlink" ffdec:objectType="shape" height="152.25px" width="165.9px" xmlns="http://www.w3.org/2000/svg">
  <g transform="matrix(1.0, 0.0, 0.0, 1.0, 80.25, 65.0)">
    <path d="M60.25 -4.25 L74.0 18.25 84.25 37.25 Q86.75 44.5 84.75 45.5 89.25 66.0 39.5 68.0 L31.0 77.5 Q19.25 85.5 3.5 87.25 L-16.5 84.5 -31.25 77.0 -39.5 68.25 -48.0 63.0 -53.5 58.0 -64.0 60.0 Q-67.25 60.5 -72.75 58.75 L-74.75 57.75 Q-78.75 50.0 -78.0 48.75 L-78.25 48.5 -80.25 47.25 Q-80.5 39.0 -77.75 34.5 L-70.5 18.0 -60.0 -2.25 -49.5 -18.0 -49.0 -18.5 -49.0 -18.75 Q-19.5 -62.75 -1.0 -65.0 15.5 -65.75 46.75 -21.0 L52.25 -15.0 60.25 -4.25" fill="#2e47aa" fill-rule="evenodd" stroke="none"/>
  </g>
</svg>
