<?xml version="1.0" encoding="UTF-8" standalone="no"?>
<svg xmlns:ffdec="https://www.free-decompiler.com/flash" xmlns:xlink="http://www.w3.org/1999/xlink" ffdec:objectType="shape" height="152.25px" width="166.05px" xmlns="http://www.w3.org/2000/svg">
  <g transform="matrix(1.0, 0.0, 0.0, 1.0, 80.25, 65.0)">
    <path d="M60.0 -4.75 L72.25 14.5 84.0 35.5 Q86.75 43.75 85.25 45.0 89.75 65.75 39.25 68.25 L31.0 77.5 Q18.5 86.0 3.0 87.25 L-16.5 84.5 -31.25 77.0 -39.5 68.25 -49.0 62.25 -55.25 56.25 -56.0 56.25 -56.75 56.5 -57.25 56.75 -64.75 58.75 -72.75 58.25 Q-74.0 58.25 -76.25 54.0 L-77.75 49.0 -78.0 48.75 -80.25 47.25 Q-80.5 38.5 -77.75 34.5 L-70.5 18.0 -60.0 -2.25 -49.5 -18.0 -49.0 -18.5 -49.0 -18.75 Q-19.5 -62.75 -1.0 -65.0 15.5 -65.75 46.75 -21.0 L51.5 -16.25 60.0 -4.75" fill="#2e47aa" fill-rule="evenodd" stroke="none"/>
  </g>
</svg>
