<?xml version="1.0" encoding="UTF-8" standalone="no"?>
<svg xmlns:ffdec="https://www.free-decompiler.com/flash" xmlns:xlink="http://www.w3.org/1999/xlink" ffdec:objectType="shape" height="152.25px" width="166.75px" xmlns="http://www.w3.org/2000/svg">
  <g transform="matrix(1.0, 0.0, 0.0, 1.0, 80.25, 65.0)">
    <path d="M58.25 -7.25 L80.5 28.75 80.5 29.0 83.75 35.5 84.25 35.75 85.75 41.25 85.75 41.5 86.0 42.0 86.0 42.75 86.5 44.0 85.5 44.75 Q86.75 47.25 86.0 51.5 L83.5 56.5 81.25 58.5 73.5 62.75 52.0 67.75 39.25 68.25 31.0 77.5 Q18.5 86.0 3.0 87.25 L-16.5 84.5 -31.25 77.0 -39.5 68.25 -48.0 63.0 -55.5 56.0 -55.75 56.0 -56.25 56.25 -63.75 58.5 -72.5 58.25 Q-74.0 58.25 -75.75 54.75 L-77.75 49.0 -78.0 48.75 -80.25 47.25 Q-80.5 38.5 -77.75 34.5 L-70.5 18.0 -60.0 -2.25 -49.5 -18.0 -49.0 -18.5 -49.0 -18.75 Q-19.5 -62.75 -1.0 -65.0 15.5 -65.75 46.75 -21.0 L51.5 -16.25 58.25 -7.25" fill="#2e47aa" fill-rule="evenodd" stroke="none"/>
  </g>
</svg>
