<?xml version="1.0" encoding="UTF-8" standalone="no"?>
<svg xmlns:ffdec="https://www.free-decompiler.com/flash" xmlns:xlink="http://www.w3.org/1999/xlink" ffdec:objectType="shape" height="152.25px" width="167.0px" xmlns="http://www.w3.org/2000/svg">
  <g transform="matrix(1.0, 0.0, 0.0, 1.0, 80.25, 65.0)">
    <path d="M58.75 -6.75 L77.75 23.5 78.25 24.5 78.75 25.25 81.0 29.25 81.75 30.25 81.75 30.5 84.0 34.75 84.25 35.0 84.25 35.25 84.5 35.5 84.75 36.0 85.75 39.75 85.75 40.0 86.25 42.0 86.5 42.25 86.75 43.75 86.0 44.25 Q88.0 51.5 83.75 56.5 L74.5 62.25 53.25 67.5 39.25 68.25 31.0 77.5 Q18.5 86.0 3.0 87.25 L-16.5 84.5 -31.25 77.0 -39.5 68.25 -51.0 60.75 -55.0 56.5 -55.75 56.5 -56.5 56.75 -57.0 57.0 -65.0 59.0 -73.0 58.25 -76.0 54.5 -77.75 49.0 -78.0 48.75 -80.25 47.25 Q-80.5 38.5 -77.75 34.5 L-70.5 18.0 -60.0 -2.25 -49.5 -18.0 -49.0 -18.5 -49.0 -18.75 Q-19.5 -62.75 -1.0 -65.0 15.5 -65.75 46.75 -21.0 L51.75 -16.0 58.75 -6.75" fill="#2e47aa" fill-rule="evenodd" stroke="none"/>
  </g>
</svg>
