<?xml version="1.0" encoding="UTF-8" standalone="no"?>
<svg xmlns:ffdec="https://www.free-decompiler.com/flash" xmlns:xlink="http://www.w3.org/1999/xlink" ffdec:objectType="shape" height="152.25px" width="167.4px" xmlns="http://www.w3.org/2000/svg">
  <g transform="matrix(1.0, 0.0, 0.0, 1.0, 80.25, 65.0)">
    <path d="M61.25 -3.5 L78.5 24.25 79.0 25.25 79.5 26.0 79.75 26.5 81.25 29.0 81.5 29.5 84.0 33.5 84.0 33.75 84.25 34.5 84.25 35.0 84.75 35.25 86.0 39.25 86.0 39.5 86.5 41.5 86.75 41.75 87.0 43.5 86.25 44.0 Q88.75 50.25 84.25 56.25 L75.0 62.0 54.0 67.5 39.25 68.25 31.0 77.5 Q18.5 86.0 3.0 87.25 L-16.5 84.5 -31.25 77.0 -39.5 68.25 -45.25 65.0 Q-53.5 59.25 -53.5 57.75 L-63.0 59.75 Q-66.75 60.5 -72.75 58.75 L-74.75 57.5 Q-77.25 54.25 -78.0 48.75 L-78.25 48.5 -80.25 47.25 Q-80.5 38.5 -77.75 34.5 L-70.5 18.0 -60.0 -2.25 -49.5 -18.0 -49.0 -18.5 -49.0 -18.75 Q-19.5 -62.75 -1.0 -65.0 15.5 -65.75 46.75 -21.0 L51.75 -16.0 61.25 -3.5" fill="#2e47aa" fill-rule="evenodd" stroke="none"/>
  </g>
</svg>
