<?xml version="1.0" encoding="UTF-8" standalone="no"?>
<svg xmlns:ffdec="https://www.free-decompiler.com/flash" xmlns:xlink="http://www.w3.org/1999/xlink" ffdec:objectType="shape" height="152.25px" width="167.65px" xmlns="http://www.w3.org/2000/svg">
  <g transform="matrix(1.0, 0.0, 0.0, 1.0, 80.25, 65.0)">
    <path d="M61.75 -2.75 L77.75 22.5 78.0 23.0 78.5 23.75 78.75 24.25 79.25 25.0 79.5 25.5 80.0 26.25 80.5 27.25 81.0 28.0 81.25 28.5 81.75 29.25 82.0 29.75 82.5 30.5 82.75 31.0 84.25 33.5 84.5 33.75 84.5 34.25 84.75 34.25 84.5 34.5 84.5 34.75 85.0 35.0 86.25 39.0 86.25 39.25 86.75 41.0 87.0 41.25 87.0 42.0 86.75 43.5 Q88.75 50.75 84.75 55.75 L75.5 61.75 55.5 67.25 39.25 68.25 31.0 77.5 Q18.5 86.0 3.0 87.25 L-16.5 84.5 -31.25 77.0 -39.5 68.25 -42.25 67.0 -52.5 59.0 Q-79.25 64.5 -78.25 48.75 L-78.25 48.5 -80.25 47.25 Q-80.5 38.5 -77.75 34.5 L-70.5 18.0 -60.0 -2.25 -49.5 -18.0 -49.0 -18.5 -49.0 -18.75 Q-19.5 -62.75 -1.0 -65.0 15.5 -65.75 46.75 -21.0 L51.75 -16.0 61.75 -2.75" fill="#2e47aa" fill-rule="evenodd" stroke="none"/>
  </g>
</svg>
