<?xml version="1.0" encoding="UTF-8" standalone="no"?>
<svg xmlns:ffdec="https://www.free-decompiler.com/flash" xmlns:xlink="http://www.w3.org/1999/xlink" ffdec:objectType="shape" height="152.25px" width="167.9px" xmlns="http://www.w3.org/2000/svg">
  <g transform="matrix(1.0, 0.0, 0.0, 1.0, 80.25, 65.0)">
    <path d="M60.5 -4.75 L78.5 23.25 78.75 23.75 79.25 24.5 79.5 25.0 80.0 25.75 80.25 26.25 80.75 27.0 81.0 27.5 81.5 28.25 81.75 28.75 82.25 29.5 82.5 30.0 83.0 30.75 83.5 31.75 84.0 32.25 84.0 32.5 84.5 33.5 84.5 34.0 84.75 34.25 84.75 34.5 86.0 37.0 86.0 37.25 87.0 40.75 87.25 41.0 87.0 43.0 Q89.0 50.75 85.0 55.5 L76.0 61.5 56.25 67.0 39.25 68.25 31.0 77.5 Q18.5 86.0 3.0 87.25 L-16.5 84.5 -31.25 77.0 -39.5 68.25 -43.75 66.0 -53.0 58.5 -66.75 60.5 -73.5 58.75 -75.5 56.75 -78.0 48.75 -78.25 48.5 -80.25 47.25 Q-80.5 38.5 -77.75 34.5 L-70.5 18.0 -60.0 -2.25 -49.5 -18.0 -49.0 -18.5 -49.0 -18.75 Q-19.5 -62.75 -1.0 -65.0 15.5 -65.75 46.75 -21.0 L51.75 -16.0 60.5 -4.75" fill="#2e47aa" fill-rule="evenodd" stroke="none"/>
  </g>
</svg>
