<?xml version="1.0" encoding="UTF-8" standalone="no"?>
<svg xmlns:ffdec="https://www.free-decompiler.com/flash" xmlns:xlink="http://www.w3.org/1999/xlink" ffdec:objectType="shape" height="152.25px" width="167.75px" xmlns="http://www.w3.org/2000/svg">
  <g transform="matrix(1.0, 0.0, 0.0, 1.0, 80.25, 65.0)">
    <path d="M61.0 -4.0 L78.75 23.25 79.0 23.75 81.5 27.75 81.75 28.25 82.25 29.0 82.5 29.5 83.0 30.25 83.25 30.75 83.75 31.5 84.0 31.75 85.75 35.5 87.25 40.5 87.5 40.75 87.25 42.75 Q89.25 67.5 39.25 68.25 L31.0 77.5 Q18.5 86.0 3.0 87.25 L-16.5 84.5 -31.25 77.0 -39.5 68.25 -45.25 65.0 -50.0 61.5 -54.25 57.0 -54.75 57.0 -55.75 57.25 -56.25 57.5 -65.5 59.5 -73.0 58.5 -75.5 55.75 -78.0 48.75 -78.25 48.5 -80.25 47.25 Q-80.5 38.5 -77.75 34.5 L-70.5 18.0 -60.0 -2.25 -49.5 -18.0 -49.0 -18.5 -49.0 -18.75 Q-19.5 -62.75 -1.0 -65.0 15.5 -65.75 46.75 -21.0 L51.25 -16.5 61.0 -4.0" fill="#2e47aa" fill-rule="evenodd" stroke="none"/>
  </g>
</svg>
