<?xml version="1.0" encoding="UTF-8" standalone="no"?>
<svg xmlns:ffdec="https://www.free-decompiler.com/flash" xmlns:xlink="http://www.w3.org/1999/xlink" ffdec:objectType="shape" height="152.25px" width="169.4px" xmlns="http://www.w3.org/2000/svg">
  <g transform="matrix(1.0, 0.0, 0.0, 1.0, 80.25, 65.0)">
    <path d="M57.0 -9.75 L79.0 21.25 79.25 21.75 80.75 24.0 81.0 24.5 85.5 31.5 85.75 32.0 86.25 32.5 88.75 40.25 Q93.75 64.75 39.5 68.0 L31.0 77.5 Q19.25 85.5 3.5 87.25 L-16.5 84.5 -31.25 77.0 -39.5 68.25 -48.0 63.0 -55.5 56.0 -55.75 56.0 -56.25 56.25 -63.75 58.5 -72.5 58.25 Q-74.0 58.25 -75.75 54.75 L-77.75 49.0 -78.0 48.75 -80.25 47.25 Q-80.5 38.5 -77.75 34.5 L-70.5 18.0 -60.0 -2.25 -49.5 -18.0 -49.0 -18.5 -49.0 -18.75 Q-19.5 -62.75 -1.0 -65.0 15.5 -65.75 46.75 -20.75 L50.0 -18.0 57.0 -9.75 M63.0 30.5 L63.0 32.5 64.5 31.75 64.5 31.5 63.75 30.75 63.25 30.5 63.0 30.5" fill="#2e47aa" fill-rule="evenodd" stroke="none"/>
  </g>
</svg>
