<?xml version="1.0" encoding="UTF-8" standalone="no"?>
<svg xmlns:ffdec="https://www.free-decompiler.com/flash" xmlns:xlink="http://www.w3.org/1999/xlink" ffdec:objectType="shape" height="152.25px" width="170.15px" xmlns="http://www.w3.org/2000/svg">
  <g transform="matrix(1.0, 0.0, 0.0, 1.0, 80.25, 65.0)">
    <path d="M62.0 -3.75 L73.75 12.0 83.0 26.25 83.25 26.75 85.25 29.75 85.5 30.0 86.0 31.0 88.25 36.5 88.25 36.75 88.5 37.5 88.75 38.0 89.0 38.25 Q96.5 63.5 39.75 67.5 L31.25 77.25 Q19.0 85.75 3.5 87.25 L-16.5 84.5 -31.25 77.0 -39.5 68.25 -48.0 63.0 -55.5 56.0 -55.75 56.0 -56.25 56.25 -63.75 58.5 -72.5 58.25 Q-74.0 58.25 -75.75 54.75 L-77.75 49.0 -78.0 48.75 -80.25 47.25 Q-80.5 38.5 -77.75 34.5 L-70.5 18.0 -60.0 -2.25 -49.5 -18.0 -49.0 -18.5 -49.0 -18.75 Q-19.5 -62.75 -1.0 -65.0 15.25 -66.0 47.25 -20.25 L51.0 -16.75 62.0 -3.75 M63.5 29.25 L63.0 32.5 65.5 31.0 63.5 29.25" fill="#2e47aa" fill-rule="evenodd" stroke="none"/>
  </g>
</svg>
