<?xml version="1.0" encoding="UTF-8" standalone="no"?>
<svg xmlns:ffdec="https://www.free-decompiler.com/flash" xmlns:xlink="http://www.w3.org/1999/xlink" ffdec:objectType="shape" height="152.25px" width="170.0px" xmlns="http://www.w3.org/2000/svg">
  <g transform="matrix(1.0, 0.0, 0.0, 1.0, 80.0, 65.0)">
    <path d="M60.5 -6.25 L76.75 14.5 87.25 31.0 Q93.75 45.25 85.0 52.5 72.25 64.25 43.5 65.0 L40.75 66.75 31.0 77.5 Q19.25 85.5 3.5 87.25 L-16.5 84.5 -31.25 77.0 -39.5 68.25 -48.0 63.0 -55.25 56.0 -63.25 58.5 -72.75 58.25 -75.5 55.0 -77.75 49.0 -78.0 48.75 Q-82.25 45.5 -77.5 34.25 L-71.75 21.0 -60.75 -0.75 -49.5 -18.0 Q-19.25 -63.0 -1.0 -65.0 15.5 -66.0 47.0 -20.5 L60.5 -6.25 M63.5 26.0 L63.0 32.25 66.75 29.0 63.5 26.0" fill="#2e47aa" fill-rule="evenodd" stroke="none"/>
  </g>
</svg>
