<?xml version="1.0" encoding="UTF-8" standalone="no"?>
<svg xmlns:ffdec="https://www.free-decompiler.com/flash" xmlns:xlink="http://www.w3.org/1999/xlink" ffdec:objectType="shape" height="152.25px" width="169.1px" xmlns="http://www.w3.org/2000/svg">
  <g transform="matrix(1.0, 0.0, 0.0, 1.0, 79.65, 65.0)">
    <path d="M61.75 -4.75 L74.5 11.5 85.5 27.75 87.0 30.75 87.25 31.0 Q99.5 62.0 43.75 64.75 L40.75 66.75 31.0 77.5 Q19.25 85.5 3.5 87.25 L-16.5 84.5 -31.25 77.0 -39.5 68.25 -50.0 61.5 -54.75 56.5 -55.5 56.5 -56.0 56.75 -62.5 58.75 -72.25 58.5 -75.25 54.75 -77.0 49.25 -79.5 47.5 Q-80.25 39.75 -77.25 35.0 L-70.75 19.75 -62.0 2.25 -53.75 -12.0 -49.75 -17.5 -49.5 -18.0 Q-19.25 -63.0 -1.0 -65.0 15.5 -66.0 47.0 -20.5 L50.5 -17.5 61.75 -4.75 M63.5 25.75 L63.0 32.25 66.75 29.0 63.5 25.75" fill="#2e47aa" fill-rule="evenodd" stroke="none"/>
  </g>
</svg>
