<?xml version="1.0" encoding="UTF-8" standalone="no"?>
<svg xmlns:ffdec="https://www.free-decompiler.com/flash" xmlns:xlink="http://www.w3.org/1999/xlink" ffdec:objectType="shape" height="152.25px" width="168.25px" xmlns="http://www.w3.org/2000/svg">
  <g transform="matrix(1.0, 0.0, 0.0, 1.0, 78.65, 65.0)">
    <path d="M60.75 -6.0 L75.75 13.0 85.25 27.25 87.0 30.5 Q100.5 61.5 44.0 64.5 L40.75 66.75 31.0 77.5 Q19.25 85.5 3.5 87.25 L-16.5 84.5 -31.25 77.0 -39.5 68.25 -45.25 65.0 -50.0 61.5 -54.25 57.0 -54.5 57.0 -55.0 57.25 -61.5 59.25 -71.0 59.0 -74.5 54.75 -76.0 49.75 -76.25 49.75 -78.5 48.25 Q-79.25 38.25 -76.25 35.0 L-70.75 21.5 -60.75 0.5 -50.25 -16.75 -49.75 -17.25 -49.75 -17.5 Q-19.25 -63.25 -1.0 -65.0 15.5 -66.0 47.0 -20.5 L60.75 -6.0 M63.5 25.75 L63.0 32.25 66.75 29.0 63.5 25.75" fill="#2e47aa" fill-rule="evenodd" stroke="none"/>
  </g>
</svg>
