<?xml version="1.0" encoding="UTF-8" standalone="no"?>
<svg xmlns:ffdec="https://www.free-decompiler.com/flash" xmlns:xlink="http://www.w3.org/1999/xlink" ffdec:objectType="shape" height="152.0px" width="165.3px" xmlns="http://www.w3.org/2000/svg">
  <g transform="matrix(1.0, 0.0, 0.0, 1.0, 75.75, 64.75)">
    <path d="M60.75 -6.0 L74.25 11.0 84.0 25.25 87.0 30.25 Q100.25 61.25 44.5 64.25 L40.75 66.75 31.0 77.5 Q19.25 85.5 3.5 87.25 L-16.5 84.5 -31.25 77.0 -39.5 68.25 -43.0 66.5 -52.75 59.0 Q-71.75 65.5 -73.0 51.5 L-73.25 51.25 -75.75 49.75 -75.25 40.0 -68.75 22.25 -56.25 -5.75 Q-28.25 -54.75 -3.25 -64.75 20.0 -63.0 47.0 -20.5 L60.75 -6.0 M63.5 25.25 L63.0 32.25 67.0 28.75 63.5 25.25" fill="#2e47aa" fill-rule="evenodd" stroke="none"/>
  </g>
</svg>
