<?xml version="1.0" encoding="UTF-8" standalone="no"?>
<svg xmlns:ffdec="https://www.free-decompiler.com/flash" xmlns:xlink="http://www.w3.org/1999/xlink" ffdec:objectType="shape" height="152.1px" width="163.6px" xmlns="http://www.w3.org/2000/svg">
  <g transform="matrix(1.0, 0.0, 0.0, 1.0, 74.0, 64.85)">
    <path d="M50.5 -17.25 L68.75 4.0 76.25 13.5 85.25 27.0 87.0 30.25 Q100.5 60.75 44.25 64.0 L40.75 66.75 31.0 77.5 Q19.25 85.5 3.5 87.25 L-16.5 84.5 -31.25 77.0 -39.5 68.25 -42.25 67.0 -51.5 60.0 -57.5 61.75 Q-65.75 62.0 -66.5 60.5 L-69.0 57.5 -71.0 52.5 -71.25 52.25 -73.75 50.75 -74.0 43.25 -69.5 28.75 -58.75 0.5 -58.0 -2.5 -52.25 -14.0 -47.5 -21.25 -30.25 -43.5 -20.25 -54.25 -14.5 -58.75 -4.0 -64.5 Q14.0 -68.75 47.0 -20.5 L50.5 -17.25 M63.5 25.25 L63.0 32.25 67.0 28.5 63.5 25.25" fill="#2e47aa" fill-rule="evenodd" stroke="none"/>
  </g>
</svg>
