<?xml version="1.0" encoding="UTF-8" standalone="no"?>
<svg xmlns:ffdec="https://www.free-decompiler.com/flash" xmlns:xlink="http://www.w3.org/1999/xlink" ffdec:objectType="shape" height="152.45px" width="161.75px" xmlns="http://www.w3.org/2000/svg">
  <g transform="matrix(1.0, 0.0, 0.0, 1.0, 72.25, 65.2)">
    <path d="M63.25 -3.0 L75.0 12.0 85.5 27.25 87.0 30.0 Q100.0 61.0 44.75 63.75 L40.75 66.75 31.0 77.5 Q19.25 85.5 3.5 87.25 L-16.5 84.5 -31.25 77.0 -39.5 68.25 -50.0 61.25 Q-66.75 67.0 -68.75 53.5 L-69.0 53.25 Q-73.5 53.0 -71.75 42.5 L-58.0 -2.5 -53.5 -12.0 -47.25 -21.75 Q-18.75 -61.5 -4.5 -64.25 10.5 -71.75 47.0 -20.5 L50.5 -17.25 63.25 -3.0 M63.5 25.0 L63.25 32.0 67.0 28.5 63.5 25.0" fill="#2e47aa" fill-rule="evenodd" stroke="none"/>
  </g>
</svg>
