<?xml version="1.0" encoding="UTF-8" standalone="no"?>
<svg xmlns:ffdec="https://www.free-decompiler.com/flash" xmlns:xlink="http://www.w3.org/1999/xlink" ffdec:objectType="shape" height="152.4px" width="159.4px" xmlns="http://www.w3.org/2000/svg">
  <g transform="matrix(1.0, 0.0, 0.0, 1.0, 69.85, 65.15)">
    <path d="M61.25 -5.5 L75.75 12.75 87.0 30.0 Q100.25 60.75 45.0 63.5 L40.75 66.75 31.0 77.5 Q19.25 85.5 3.5 87.25 L-16.5 84.5 -31.25 77.0 -39.5 68.25 -48.25 62.5 Q-63.25 67.75 -66.25 54.5 L-66.5 54.5 Q-70.5 54.75 -69.75 45.25 L-64.25 22.25 -64.0 21.75 Q-59.25 -6.75 -49.5 -18.25 -27.75 -52.5 -5.25 -64.0 10.25 -72.25 47.0 -20.5 L61.25 -5.5 M63.5 25.0 L63.25 32.0 67.0 28.5 67.0 28.25 63.5 25.0" fill="#2e47aa" fill-rule="evenodd" stroke="none"/>
  </g>
</svg>
