<?xml version="1.0" encoding="UTF-8" standalone="no"?>
<svg xmlns:ffdec="https://www.free-decompiler.com/flash" xmlns:xlink="http://www.w3.org/1999/xlink" ffdec:objectType="shape" height="152.2px" width="157.5px" xmlns="http://www.w3.org/2000/svg">
  <g transform="matrix(1.0, 0.0, 0.0, 1.0, 67.5, 64.95)">
    <path d="M61.0 -5.75 L75.75 12.75 85.75 27.5 86.75 29.75 Q92.5 36.5 88.0 48.0 L84.25 52.25 82.0 54.0 81.75 54.25 70.75 59.75 54.5 62.75 45.5 63.25 40.75 66.75 31.0 77.5 Q19.25 85.5 3.5 87.25 L-16.5 84.5 -31.25 77.0 -39.5 68.25 -46.5 63.75 -49.5 64.5 -57.0 64.25 -60.25 61.5 -63.75 55.5 Q-67.75 56.25 -67.5 47.5 L-64.25 30.0 Q-67.0 19.5 -54.0 -11.0 -27.25 -53.0 -7.5 -63.0 9.75 -74.25 47.0 -20.5 L61.0 -5.75 M63.5 25.0 L63.25 32.0 67.0 28.25 63.5 25.0" fill="#2e47aa" fill-rule="evenodd" stroke="none"/>
  </g>
</svg>
