<?xml version="1.0" encoding="UTF-8" standalone="no"?>
<svg xmlns:ffdec="https://www.free-decompiler.com/flash" xmlns:xlink="http://www.w3.org/1999/xlink" ffdec:objectType="shape" height="152.0px" width="155.05px" xmlns="http://www.w3.org/2000/svg">
  <g transform="matrix(1.0, 0.0, 0.0, 1.0, 65.05, 64.75)">
    <path d="M62.0 -4.5 L76.0 13.0 84.75 26.0 86.75 29.75 Q92.25 37.0 88.5 47.25 L88.0 48.0 87.5 48.5 84.5 52.0 82.25 53.75 82.0 54.0 70.0 59.75 55.5 62.5 45.75 63.0 40.75 66.75 31.0 77.5 Q19.25 85.5 3.5 87.25 L-16.5 84.5 -31.25 77.0 -39.5 68.25 -45.25 65.0 Q-57.5 68.0 -61.0 56.5 -66.75 55.25 -63.75 38.0 -68.75 25.25 -54.75 -9.5 -25.75 -54.5 -9.75 -61.75 9.25 -76.25 47.0 -20.5 L52.5 -15.0 62.0 -4.5 M63.5 24.75 L63.25 32.0 67.0 28.25 63.5 24.75" fill="#2e47aa" fill-rule="evenodd" stroke="none"/>
  </g>
</svg>
