<?xml version="1.0" encoding="UTF-8" standalone="no"?>
<svg xmlns:ffdec="https://www.free-decompiler.com/flash" xmlns:xlink="http://www.w3.org/1999/xlink" ffdec:objectType="shape" height="151.8px" width="155.0px" xmlns="http://www.w3.org/2000/svg">
  <g transform="matrix(1.0, 0.0, 0.0, 1.0, 64.95, 64.55)">
    <path d="M62.25 -4.25 L74.75 11.5 85.5 27.25 86.75 29.75 Q94.5 44.5 84.0 52.25 L82.25 53.75 70.5 59.5 56.0 62.25 46.0 63.0 40.75 66.75 31.0 77.5 Q19.25 85.5 3.5 87.25 L-16.5 84.5 -31.25 77.0 -39.5 68.25 -43.25 66.0 -52.25 65.25 Q-57.5 60.5 -58.0 57.5 L-58.25 57.5 -61.0 56.0 Q-63.5 48.5 -62.25 43.75 -69.75 30.75 -56.25 -6.25 L-52.25 -14.0 -39.75 -31.75 -22.25 -52.25 -12.75 -60.0 Q8.0 -78.75 47.0 -20.5 L50.25 -17.5 62.25 -4.25 M67.0 28.25 L67.0 28.0 63.5 24.75 63.25 32.0 67.0 28.25" fill="#2e47aa" fill-rule="evenodd" stroke="none"/>
  </g>
</svg>
