<?xml version="1.0" encoding="UTF-8" standalone="no"?>
<svg xmlns:ffdec="https://www.free-decompiler.com/flash" xmlns:xlink="http://www.w3.org/1999/xlink" ffdec:objectType="shape" height="151.8px" width="154.5px" xmlns="http://www.w3.org/2000/svg">
  <g transform="matrix(1.0, 0.0, 0.0, 1.0, 64.6, 64.55)">
    <path d="M62.25 -4.25 L75.0 11.75 85.0 26.25 85.5 27.25 86.25 29.25 86.75 29.75 Q92.5 36.5 87.75 48.0 L84.25 52.0 82.5 53.5 71.25 59.25 54.25 62.25 46.25 62.75 40.75 66.75 31.0 77.5 Q19.25 85.5 3.5 87.25 L-16.5 84.5 -31.25 77.0 -39.5 68.25 -42.5 66.5 Q-50.25 68.5 -55.25 58.25 L-58.0 57.25 -59.75 49.25 -60.0 48.75 Q-70.0 28.5 -58.25 -1.75 L-54.0 -11.0 -40.5 -30.75 -29.0 -45.0 -22.25 -52.25 -14.5 -58.75 Q7.25 -80.5 47.0 -20.5 L62.25 -4.25 M63.5 24.75 L63.25 32.0 67.0 28.25 67.0 28.0 63.5 24.75" fill="#2e47aa" fill-rule="evenodd" stroke="none"/>
  </g>
</svg>
