<?xml version="1.0" encoding="UTF-8" standalone="no"?>
<svg xmlns:ffdec="https://www.free-decompiler.com/flash" xmlns:xlink="http://www.w3.org/1999/xlink" ffdec:objectType="shape" height="151.75px" width="154.45px" xmlns="http://www.w3.org/2000/svg">
  <g transform="matrix(1.0, 0.0, 0.0, 1.0, 64.5, 64.5)">
    <path d="M61.0 -5.75 L73.25 9.5 84.5 25.5 86.5 29.25 86.5 29.5 86.75 29.75 Q92.25 37.0 88.25 47.25 L84.5 51.75 82.0 53.75 70.75 59.25 57.0 61.75 46.5 62.5 40.75 66.75 31.0 77.5 Q19.25 85.5 3.5 87.25 L-16.5 84.5 -31.25 77.0 -39.5 68.25 -41.75 67.0 -45.5 66.75 Q-50.25 63.25 -52.0 59.5 L-52.5 59.0 -54.75 58.25 -56.0 55.0 Q-71.75 32.75 -58.25 -1.75 L-54.0 -11.0 -47.25 -21.75 -39.75 -31.75 -29.0 -45.0 -22.25 -52.25 -14.75 -58.5 Q7.25 -80.75 47.0 -20.5 L61.0 -5.75 M63.5 24.5 L63.25 31.75 67.25 28.0 63.5 24.5" fill="#2e47aa" fill-rule="evenodd" stroke="none"/>
  </g>
</svg>
