<?xml version="1.0" encoding="UTF-8" standalone="no"?>
<svg xmlns:ffdec="https://www.free-decompiler.com/flash" xmlns:xlink="http://www.w3.org/1999/xlink" ffdec:objectType="shape" height="152.1px" width="154.65px" xmlns="http://www.w3.org/2000/svg">
  <g transform="matrix(1.0, 0.0, 0.0, 1.0, 64.7, 64.85)">
    <path d="M61.0 -5.75 L73.25 9.5 85.5 27.0 86.5 29.25 Q92.5 38.0 88.0 47.5 L84.0 52.0 82.25 53.5 70.25 59.25 55.75 61.75 46.75 62.25 40.75 66.75 31.0 77.5 Q19.25 85.5 3.5 87.25 L-16.5 84.5 -31.25 77.0 -39.5 68.25 -40.75 67.5 -42.5 67.25 -46.75 63.5 Q-70.25 48.25 -63.0 14.5 L-58.25 -1.75 -54.0 -11.0 -42.75 -27.75 -30.25 -43.5 -20.5 -54.0 Q-6.5 -66.75 3.5 -64.5 16.75 -63.25 47.0 -20.5 L61.0 -5.75 M67.0 28.0 L63.5 24.5 63.25 31.75 67.0 28.0" fill="#2e47aa" fill-rule="evenodd" stroke="none"/>
  </g>
</svg>
