<?xml version="1.0" encoding="UTF-8" standalone="no"?>
<svg xmlns:ffdec="https://www.free-decompiler.com/flash" xmlns:xlink="http://www.w3.org/1999/xlink" ffdec:objectType="shape" height="151.75px" width="154.1px" xmlns="http://www.w3.org/2000/svg">
  <g transform="matrix(1.0, 0.0, 0.0, 1.0, 64.5, 64.5)">
    <path d="M47.0 -20.5 L61.0 -5.75 73.5 9.75 85.5 27.0 86.5 29.25 Q92.0 35.5 87.75 47.75 L84.25 51.75 82.5 53.25 70.75 59.0 57.25 61.5 47.0 62.0 40.75 66.75 31.0 77.5 Q19.25 85.5 3.5 87.25 L-16.5 84.5 -31.25 77.0 -39.5 68.25 Q-65.0 57.25 -64.5 24.75 -63.5 -8.0 -27.5 -46.75 -13.5 -64.5 3.5 -64.5 16.75 -63.25 47.0 -20.5 M63.5 24.5 L63.25 31.75 67.0 28.0 67.0 27.75 63.5 24.5" fill="#2e47aa" fill-rule="evenodd" stroke="none"/>
  </g>
</svg>
