<?xml version="1.0" encoding="UTF-8" standalone="no"?>
<svg xmlns:ffdec="https://www.free-decompiler.com/flash" xmlns:xlink="http://www.w3.org/1999/xlink" ffdec:objectType="shape" height="151.75px" width="154.25px" xmlns="http://www.w3.org/2000/svg">
  <g transform="matrix(1.0, 0.0, 0.0, 1.0, 64.5, 64.5)">
    <path d="M49.25 -18.75 L66.5 1.25 76.25 13.25 85.5 27.0 89.75 36.75 89.75 43.75 88.25 47.25 84.0 52.0 Q75.5 60.75 47.25 61.75 L40.75 66.75 31.0 77.5 Q19.25 85.5 3.5 87.25 L-16.5 84.5 -31.25 77.0 -39.5 68.25 Q-65.0 57.25 -64.5 24.75 -63.5 -8.0 -27.5 -46.75 -13.5 -64.5 3.5 -64.5 16.75 -63.25 47.0 -20.5 L49.25 -18.75 M67.25 27.75 L63.25 24.25 63.75 27.5 63.25 31.75 67.25 27.75" fill="#2e47aa" fill-rule="evenodd" stroke="none"/>
  </g>
</svg>
