<?xml version="1.0" encoding="UTF-8" standalone="no"?>
<svg xmlns:ffdec="https://www.free-decompiler.com/flash" xmlns:xlink="http://www.w3.org/1999/xlink" ffdec:objectType="shape" height="151.75px" width="153.7px" xmlns="http://www.w3.org/2000/svg">
  <g transform="matrix(1.0, 0.0, 0.0, 1.0, 64.5, 64.5)">
    <path d="M63.25 24.25 L63.75 27.5 63.25 31.5 67.0 27.75 67.0 27.5 63.25 24.25 M47.0 -20.5 L59.75 -7.25 78.5 16.75 78.5 17.0 80.25 19.5 80.75 20.0 81.0 20.5 81.5 21.25 82.0 21.75 82.25 22.25 85.25 26.5 86.5 29.0 Q99.75 59.75 47.5 61.5 L40.75 66.75 31.0 77.5 Q19.25 85.5 3.5 87.25 L-16.5 84.5 -31.25 77.0 -39.5 68.25 Q-65.0 57.25 -64.5 24.75 -63.5 -8.0 -27.5 -46.75 -13.5 -64.5 3.5 -64.5 16.75 -63.25 47.0 -20.5" fill="#2e47aa" fill-rule="evenodd" stroke="none"/>
  </g>
</svg>
