<?xml version="1.0" encoding="UTF-8" standalone="no"?>
<svg xmlns:ffdec="https://www.free-decompiler.com/flash" xmlns:xlink="http://www.w3.org/1999/xlink" ffdec:objectType="shape" height="355.25px" width="268.45px" xmlns="http://www.w3.org/2000/svg">
  <g transform="matrix(1.0, 0.0, 0.0, 1.0, 125.25, 130.0)">
    <path d="M28.65 -108.7 Q38.85 -94.85 47.5 -79.85 55.75 -65.55 63.25 -50.85 70.35 -36.95 77.15 -22.65 L92.2 9.9 104.7 38.7 115.7 65.75 Q119.85 76.25 123.5 87.0 L129.0 103.0 Q139.85 118.6 141.6 134.7 146.25 177.75 137.3 220.5 136.55 224.0 133.4 225.1 132.3 225.55 131.2 224.6 128.7 222.7 127.2 220.05 110.5 190.9 99.5 159.25 91.35 164.6 82.85 169.3 78.85 171.5 74.5 173.0 90.0 140.25 16.25 128.75 L12.75 128.0 Q-20.75 123.0 -24.5 127.0 -38.75 135.0 -38.0 161.75 L-38.0 167.5 Q-43.75 168.75 -72.5 147.25 L-88.25 127.5 Q-93.15 112.25 -94.65 96.65 -95.8 84.4 -95.25 71.6 -95.15 68.75 -95.9 66.0 -98.75 55.75 -98.75 45.0 -102.5 34.6 -102.15 23.5 L-102.25 23.0 -102.0 21.25 -100.75 0.25 -96.5 -25.25 -106.25 -11.5 -112.25 -4.5 Q-114.1 -8.8 -118.8 -9.65 L-125.0 -10.0 Q-126.6 -29.85 -117.5 -47.1 -116.0 -50.0 -114.15 -52.55 -110.2 -58.05 -105.45 -63.15 -100.5 -68.5 -94.25 -72.55 -79.95 -81.85 -66.0 -91.4 -61.25 -94.75 -57.55 -99.5 -46.35 -113.6 -31.15 -123.4 -14.2 -134.3 4.45 -127.2 19.25 -121.55 28.65 -108.7 M-9.75 -41.75 L-9.5 -41.25 -8.75 -40.75 -9.0 -41.5 -9.75 -41.75" fill="#2e47aa" fill-rule="evenodd" stroke="none"/>
    <path d="M-9.75 -41.75 L-9.0 -41.5 -8.75 -40.75 -9.5 -41.25 -9.75 -41.75" fill="#243773" fill-rule="evenodd" stroke="none"/>
  </g>
</svg>
