<?xml version="1.0" encoding="UTF-8" standalone="no"?>
<svg xmlns:ffdec="https://www.free-decompiler.com/flash" xmlns:xlink="http://www.w3.org/1999/xlink" ffdec:objectType="shape" height="151.75px" width="154.55px" xmlns="http://www.w3.org/2000/svg">
  <g transform="matrix(1.0, 0.0, 0.0, 1.0, 64.5, 64.5)">
    <path d="M59.75 -7.25 L73.25 9.75 73.75 10.25 74.0 10.75 78.5 16.75 78.5 17.0 79.75 18.75 80.25 19.25 80.5 19.75 81.0 20.5 81.5 21.0 81.75 21.5 85.25 26.5 86.5 29.0 Q94.5 43.75 84.5 51.5 L83.0 52.75 82.5 53.25 72.25 58.75 57.25 61.75 47.0 62.25 40.75 66.75 31.0 77.5 Q19.25 85.5 3.5 87.25 L-16.5 84.5 -31.25 77.0 -39.5 68.25 Q-65.0 57.25 -64.5 24.75 -63.5 -8.0 -27.5 -46.75 -13.5 -64.5 3.5 -64.5 16.75 -63.25 47.0 -20.5 L59.75 -7.25 M67.25 27.75 L63.25 24.25 63.75 27.75 63.25 32.0 67.25 27.75" fill="#2e47aa" fill-rule="evenodd" stroke="none"/>
  </g>
</svg>
