<?xml version="1.0" encoding="UTF-8" standalone="no"?>
<svg xmlns:ffdec="https://www.free-decompiler.com/flash" xmlns:xlink="http://www.w3.org/1999/xlink" ffdec:objectType="shape" height="152.3px" width="155.0px" xmlns="http://www.w3.org/2000/svg">
  <g transform="matrix(1.0, 0.0, 0.0, 1.0, 64.4, 65.05)">
    <path d="M59.75 -7.25 L73.25 9.75 73.75 10.25 74.0 10.75 78.5 16.75 78.5 17.0 79.75 18.75 80.25 19.25 80.5 19.75 81.0 20.5 81.5 21.0 81.75 21.5 85.25 26.5 86.5 29.0 Q96.5 41.75 82.0 55.75 L81.5 56.0 73.5 61.75 60.75 67.0 52.0 69.25 46.25 68.75 Q46.05 63.95 47.0 62.85 L40.75 66.75 32.0 77.0 Q19.0 85.75 3.75 87.25 L-16.25 84.5 Q-34.75 77.5 -37.25 70.25 L-40.0 69.25 -43.5 66.0 Q-67.25 53.25 -64.0 20.0 -64.5 -7.0 -22.25 -52.25 -5.75 -67.75 3.5 -64.5 16.75 -63.25 47.0 -20.5 L59.75 -7.25 M63.0 36.75 L68.5 29.0 63.25 24.25 63.75 28.0 62.5 35.5 62.5 37.25 63.0 36.75" fill="#2e47aa" fill-rule="evenodd" stroke="none"/>
  </g>
</svg>
