<?xml version="1.0" encoding="UTF-8" standalone="no"?>
<svg xmlns:ffdec="https://www.free-decompiler.com/flash" xmlns:xlink="http://www.w3.org/1999/xlink" ffdec:objectType="shape" height="152.1px" width="154.75px" xmlns="http://www.w3.org/2000/svg">
  <g transform="matrix(1.0, 0.0, 0.0, 1.0, 64.7, 64.85)">
    <path d="M59.75 -7.25 L73.25 9.75 73.75 10.25 74.0 10.75 78.5 16.75 78.5 17.0 79.75 18.75 80.25 19.25 80.5 19.75 81.0 20.5 81.5 21.0 81.75 21.5 85.25 26.5 86.5 29.0 Q94.5 44.25 84.5 52.25 L83.75 53.0 82.75 53.75 71.0 60.25 58.0 63.5 49.25 64.75 44.75 63.75 40.75 66.75 32.0 77.0 Q19.0 85.75 3.75 87.25 L-16.25 84.5 Q-35.0 77.25 -37.0 70.5 L-40.5 70.0 -46.75 63.5 Q-70.25 48.25 -63.0 14.5 L-58.25 -1.75 -54.0 -11.0 -42.75 -27.75 -30.25 -43.5 -20.5 -54.0 Q-6.5 -66.75 3.5 -64.5 16.75 -63.25 47.0 -20.5 L59.75 -7.25 M67.75 28.25 L63.25 24.25 63.75 28.0 63.0 33.75 67.75 28.25" fill="#2e47aa" fill-rule="evenodd" stroke="none"/>
  </g>
</svg>
