<?xml version="1.0" encoding="UTF-8" standalone="no"?>
<svg xmlns:ffdec="https://www.free-decompiler.com/flash" xmlns:xlink="http://www.w3.org/1999/xlink" ffdec:objectType="shape" height="152.1px" width="153.4px" xmlns="http://www.w3.org/2000/svg">
  <g transform="matrix(1.0, 0.0, 0.0, 1.0, 63.95, 64.85)">
    <path d="M59.75 -7.25 L73.25 9.75 73.75 10.25 74.0 10.75 78.5 16.75 78.5 17.0 79.75 18.75 80.25 19.25 80.5 19.75 81.0 20.5 81.5 21.0 81.75 21.5 85.25 26.5 86.5 29.0 Q100.5 59.0 48.5 61.0 L40.75 66.75 32.25 76.75 17.75 84.25 3.25 87.25 -10.5 85.75 -17.75 83.75 -30.75 77.5 -36.75 70.75 -42.75 69.75 Q-47.75 65.5 -49.0 62.0 L-50.25 61.0 -51.25 61.0 -51.75 59.75 Q-67.75 50.75 -62.75 13.25 L-58.25 -1.75 -54.0 -11.0 -42.75 -27.75 -30.25 -43.5 -20.25 -54.25 Q-6.75 -66.75 3.5 -64.5 16.75 -63.25 47.0 -20.5 L59.75 -7.25 M67.0 27.5 L63.25 24.25 63.75 28.0 63.25 31.25 67.0 27.5" fill="#2e47aa" fill-rule="evenodd" stroke="none"/>
  </g>
</svg>
