<?xml version="1.0" encoding="UTF-8" standalone="no"?>
<svg xmlns:ffdec="https://www.free-decompiler.com/flash" xmlns:xlink="http://www.w3.org/1999/xlink" ffdec:objectType="shape" height="151.85px" width="154.85px" xmlns="http://www.w3.org/2000/svg">
  <g transform="matrix(1.0, 0.0, 0.0, 1.0, 64.6, 64.6)">
    <path d="M59.75 -7.25 L73.25 9.75 73.75 10.25 74.0 10.75 78.5 16.75 78.5 17.0 79.75 18.75 80.25 19.25 80.5 19.75 81.0 20.5 81.5 21.0 81.75 21.5 85.25 26.5 86.5 29.0 Q94.75 44.0 84.75 52.75 L84.0 53.5 73.75 60.75 58.75 65.5 50.5 67.25 45.25 66.25 45.0 63.75 40.75 66.75 32.25 76.75 17.75 84.25 3.25 87.25 -10.5 85.75 -17.75 83.75 -30.75 77.5 -36.75 70.75 Q-49.25 72.0 -52.75 60.75 L-53.0 60.5 -54.75 60.25 -56.5 54.5 Q-71.75 33.0 -58.25 -1.75 L-54.75 -9.5 -47.25 -21.75 -29.0 -45.0 -22.25 -52.25 -15.75 -57.75 Q7.0 -82.0 47.0 -20.5 L59.75 -7.25 M63.75 28.0 L62.5 35.5 68.0 28.75 68.0 28.5 63.25 24.25 63.75 28.0" fill="#2e47aa" fill-rule="evenodd" stroke="none"/>
  </g>
</svg>
