<?xml version="1.0" encoding="UTF-8" standalone="no"?>
<svg xmlns:ffdec="https://www.free-decompiler.com/flash" xmlns:xlink="http://www.w3.org/1999/xlink" ffdec:objectType="shape" height="151.9px" width="155.15px" xmlns="http://www.w3.org/2000/svg">
  <g transform="matrix(1.0, 0.0, 0.0, 1.0, 64.55, 64.65)">
    <path d="M59.75 -7.25 L73.25 9.75 73.75 10.25 74.0 10.75 78.5 16.75 78.5 17.0 79.75 18.75 80.25 19.25 80.5 19.75 81.0 20.5 81.5 21.0 81.75 21.5 85.25 26.5 86.5 29.0 Q96.5 42.0 82.25 56.0 L81.75 56.5 81.25 56.75 74.0 62.25 64.25 66.75 52.75 70.75 47.25 70.25 Q46.25 64.25 48.0 64.0 L49.75 60.25 40.75 66.75 32.0 77.0 Q19.0 85.75 3.75 87.25 L-16.25 84.5 Q-34.75 77.5 -37.25 70.25 -49.25 74.0 -54.5 60.25 L-56.25 60.0 -58.5 51.75 Q-70.75 34.5 -58.25 -1.75 -46.75 -29.0 -13.5 -59.5 7.75 -79.75 47.0 -20.5 L59.75 -7.25 M63.75 28.0 L62.5 35.5 62.5 38.25 68.5 29.5 68.5 29.0 63.25 24.25 63.75 28.0" fill="#2e47aa" fill-rule="evenodd" stroke="none"/>
  </g>
</svg>
