<?xml version="1.0" encoding="UTF-8" standalone="no"?>
<svg xmlns:ffdec="https://www.free-decompiler.com/flash" xmlns:xlink="http://www.w3.org/1999/xlink" ffdec:objectType="shape" height="151.8px" width="155.2px" xmlns="http://www.w3.org/2000/svg">
  <g transform="matrix(1.0, 0.0, 0.0, 1.0, 64.6, 64.55)">
    <path d="M59.75 -7.25 L73.25 9.75 73.75 10.25 74.0 10.75 78.5 16.75 78.5 17.0 79.75 18.75 80.25 19.25 80.5 19.75 81.0 20.5 81.5 21.0 81.75 21.5 85.25 26.5 86.5 29.0 Q96.5 41.75 82.0 55.75 L81.5 56.0 73.5 61.75 60.75 67.0 52.0 69.25 46.25 68.75 Q46.05 63.95 47.0 62.85 L40.75 66.75 32.0 77.0 Q19.0 85.75 3.75 87.25 L-16.25 84.5 Q-34.5 77.75 -38.0 69.5 L-42.5 70.75 Q-50.5 69.75 -51.0 68.5 L-55.5 62.5 -56.25 60.0 -56.5 59.75 -58.25 59.25 -60.0 48.75 Q-70.0 28.5 -58.25 -1.75 L-54.0 -11.0 -40.5 -30.75 -29.0 -45.0 -22.25 -52.25 -14.5 -58.75 Q7.25 -80.5 47.0 -20.5 L59.75 -7.25 M63.0 36.75 L68.5 29.0 63.25 24.25 63.75 28.0 62.5 35.5 62.5 37.25 63.0 36.75" fill="#2e47aa" fill-rule="evenodd" stroke="none"/>
  </g>
</svg>
