<?xml version="1.0" encoding="UTF-8" standalone="no"?>
<svg xmlns:ffdec="https://www.free-decompiler.com/flash" xmlns:xlink="http://www.w3.org/1999/xlink" ffdec:objectType="shape" height="151.9px" width="154.7px" xmlns="http://www.w3.org/2000/svg">
  <g transform="matrix(1.0, 0.0, 0.0, 1.0, 64.65, 64.65)">
    <path d="M59.75 -7.25 L73.25 9.75 73.75 10.25 74.0 10.75 78.5 16.75 78.5 17.0 79.75 18.75 80.25 19.25 80.5 19.75 81.0 20.5 81.5 21.0 81.75 21.5 85.25 26.5 86.5 29.0 Q94.5 44.25 84.5 52.25 L83.75 53.0 82.75 53.75 71.0 60.25 58.0 63.5 49.25 64.75 44.75 63.75 40.75 66.75 32.0 77.0 Q19.0 85.75 3.75 87.25 L-16.5 84.5 Q-32.5 78.75 -38.5 68.75 -55.75 73.75 -58.0 59.5 L-59.75 59.0 -60.5 55.0 -60.75 54.25 -60.75 53.5 -61.25 50.75 -61.25 49.0 -61.0 48.25 -61.0 46.75 Q-69.5 28.0 -58.25 -1.75 -46.75 -29.0 -13.5 -59.5 7.75 -79.75 47.0 -20.5 L59.75 -7.25 M67.75 28.25 L63.25 24.25 63.75 28.0 63.0 33.75 67.75 28.25" fill="#2e47aa" fill-rule="evenodd" stroke="none"/>
  </g>
</svg>
