<?xml version="1.0" encoding="UTF-8" standalone="no"?>
<svg xmlns:ffdec="https://www.free-decompiler.com/flash" xmlns:xlink="http://www.w3.org/1999/xlink" ffdec:objectType="shape" height="159.55px" width="111.5px" xmlns="http://www.w3.org/2000/svg">
  <g transform="matrix(1.0, 0.0, 0.0, 1.0, 98.75, -8.0)">
    <path d="M10.0 120.75 L12.75 128.0 Q-20.75 123.0 -24.5 127.0 -38.75 135.0 -38.0 161.75 L-38.0 167.5 Q-43.75 168.75 -72.5 147.25 L-88.25 127.5 Q-93.15 112.25 -94.65 96.65 -95.8 84.4 -95.25 71.6 -95.15 68.75 -95.9 66.0 -98.75 55.75 -98.75 45.0 L-97.75 44.5 -94.5 36.9 -82.75 11.25 Q-77.45 16.75 -70.55 19.8 -63.65 22.85 -56.35 21.85 -36.7 19.35 -20.25 8.0 -13.6 64.75 -2.5 100.75 L10.0 120.75" fill="#ffffff" fill-rule="evenodd" stroke="none"/>
  </g>
</svg>
