<?xml version="1.0" encoding="UTF-8" standalone="no"?>
<svg xmlns:ffdec="https://www.free-decompiler.com/flash" xmlns:xlink="http://www.w3.org/1999/xlink" ffdec:objectType="shape" height="152.1px" width="163.8px" xmlns="http://www.w3.org/2000/svg">
  <g transform="matrix(1.0, 0.0, 0.0, 1.0, 74.75, 64.85)">
    <path d="M59.75 -7.25 L73.25 9.75 73.75 10.25 74.0 10.75 78.5 16.75 78.5 17.0 79.75 18.75 80.25 19.25 80.5 19.75 81.0 20.5 81.5 21.0 81.75 21.5 85.25 26.5 86.5 29.0 Q99.25 60.0 48.75 60.75 L40.75 66.75 31.0 77.5 Q19.25 85.5 3.5 87.25 L-16.5 84.5 -31.25 77.0 -39.5 68.25 -42.25 67.0 -51.0 60.5 -56.5 62.75 Q-73.0 70.5 -73.5 53.0 L-74.75 52.5 -74.25 46.5 -74.0 45.75 -73.5 42.75 -62.0 11.0 Q-58.25 -9.25 -40.5 -30.75 L-22.25 -52.25 Q-14.0 -60.75 -4.0 -64.5 14.0 -68.75 47.0 -20.5 L59.75 -7.25 M63.25 31.25 L67.0 27.5 63.25 24.25 63.75 28.0 63.25 31.25" fill="#2e47aa" fill-rule="evenodd" stroke="none"/>
  </g>
</svg>
