<?xml version="1.0" encoding="UTF-8" standalone="no"?>
<svg xmlns:ffdec="https://www.free-decompiler.com/flash" xmlns:xlink="http://www.w3.org/1999/xlink" ffdec:objectType="shape" height="152.1px" width="166.55px" xmlns="http://www.w3.org/2000/svg">
  <g transform="matrix(1.0, 0.0, 0.0, 1.0, 77.5, 64.85)">
    <path d="M59.75 -7.25 L73.25 9.75 73.75 10.25 74.0 10.75 78.5 16.75 78.5 17.0 79.75 18.75 80.25 19.25 80.5 19.75 81.0 20.5 81.5 21.0 81.75 21.5 85.25 26.5 86.5 29.0 Q99.25 60.0 48.75 60.75 L40.75 66.75 31.0 77.5 Q19.25 85.5 3.5 87.25 L-16.5 84.5 -31.25 77.0 -39.5 68.25 -49.25 62.0 -53.75 57.75 Q-77.25 71.5 -76.0 51.75 L-77.5 50.75 -76.75 45.0 -76.25 42.75 -76.0 42.5 -74.5 38.25 -74.25 37.75 -74.0 37.0 -74.0 36.75 -73.75 36.0 -73.5 35.5 -68.25 21.75 -58.75 0.5 -58.0 -2.5 -52.25 -14.0 -47.5 -21.25 -30.25 -43.5 -20.25 -54.25 -14.5 -58.75 -4.0 -64.5 Q14.0 -68.75 47.0 -20.5 L59.75 -7.25 M67.0 27.5 L63.25 24.25 63.75 28.0 63.25 31.25 67.0 27.5" fill="#2e47aa" fill-rule="evenodd" stroke="none"/>
  </g>
</svg>
