<?xml version="1.0" encoding="UTF-8" standalone="no"?>
<svg xmlns:ffdec="https://www.free-decompiler.com/flash" xmlns:xlink="http://www.w3.org/1999/xlink" ffdec:objectType="shape" height="152.25px" width="176.0px" xmlns="http://www.w3.org/2000/svg">
  <g transform="matrix(1.0, 0.0, 0.0, 1.0, 86.95, 65.0)">
    <path d="M59.75 -7.25 L73.25 9.75 73.75 10.25 74.0 10.75 78.5 16.75 78.5 17.0 79.75 18.75 80.25 19.25 80.5 19.75 81.0 20.5 81.5 21.0 81.75 21.5 85.25 26.5 86.5 29.0 Q99.25 60.0 48.75 60.75 L40.75 66.75 31.0 77.5 Q19.25 85.5 3.5 87.25 L-16.5 84.5 -31.25 77.0 -39.5 68.25 Q-56.0 60.25 -62.5 43.75 -72.25 53.75 -81.0 55.75 -89.0 55.0 -86.25 44.0 L-86.5 43.75 -86.0 41.0 -86.0 40.75 -85.75 40.25 -84.75 36.25 -76.0 20.25 -62.25 -1.25 -49.0 -18.75 Q-19.5 -62.75 -1.0 -65.0 15.5 -66.0 47.0 -20.5 L59.75 -7.25 M67.0 27.5 L63.25 24.25 63.75 28.0 63.25 31.25 67.0 27.5" fill="#2e47aa" fill-rule="evenodd" stroke="none"/>
  </g>
</svg>
