<?xml version="1.0" encoding="UTF-8" standalone="no"?>
<svg xmlns:ffdec="https://www.free-decompiler.com/flash" xmlns:xlink="http://www.w3.org/1999/xlink" ffdec:objectType="shape" height="152.25px" width="176.8px" xmlns="http://www.w3.org/2000/svg">
  <g transform="matrix(1.0, 0.0, 0.0, 1.0, 87.75, 65.0)">
    <path d="M59.75 -7.25 L73.25 9.75 73.75 10.25 74.0 10.75 78.5 16.75 78.5 17.0 79.75 18.75 80.25 19.25 80.5 19.75 81.0 20.5 81.5 21.0 81.75 21.5 85.25 26.5 86.5 29.0 Q99.25 60.0 48.75 60.75 L40.75 66.75 31.0 77.5 Q19.25 85.5 3.5 87.25 L-16.5 84.5 -31.25 77.0 -39.5 68.25 Q-53.75 63.5 -63.0 41.25 -80.25 59.0 -86.25 53.5 L-87.75 50.5 -87.5 42.75 -87.0 40.0 -87.0 39.75 -86.75 39.25 -85.5 35.0 -76.75 19.75 -64.0 0.5 -49.0 -18.75 -48.5 -19.5 Q-19.75 -62.25 -1.0 -65.0 15.5 -66.0 47.0 -20.5 L59.75 -7.25 M67.0 27.5 L63.25 24.25 63.75 28.0 63.25 31.25 67.0 27.5" fill="#2e47aa" fill-rule="evenodd" stroke="none"/>
  </g>
</svg>
