<?xml version="1.0" encoding="UTF-8" standalone="no"?>
<svg xmlns:ffdec="https://www.free-decompiler.com/flash" xmlns:xlink="http://www.w3.org/1999/xlink" ffdec:objectType="shape" height="174.2px" width="194.15px" xmlns="http://www.w3.org/2000/svg">
  <g transform="matrix(1.0, 0.0, 0.0, 1.0, 95.9, 73.7)">
    <path d="M6.25 -28.25 L4.75 -28.5 3.25 -28.0 3.0 -27.5 Q1.5 -27.25 3.0 -23.75 L6.25 -23.75 7.75 -25.0 7.75 -27.5 6.75 -28.0 6.5 -28.25 6.25 -28.25 M-13.75 -24.5 L-15.75 -28.0 -16.0 -33.5 -11.0 -35.5 -2.25 -35.25 -1.0 -34.75 -0.5 -34.75 0.25 -35.0 6.0 -35.75 Q13.25 -34.75 14.25 -33.0 L14.0 -28.25 11.75 -24.5 Q10.5 -22.0 6.25 -21.75 L-1.0 -23.5 -9.0 -22.0 Q-12.75 -22.5 -13.75 -24.5 M17.0 -0.75 L21.25 9.25 23.5 16.75 29.75 29.25 Q29.75 31.0 38.5 38.25 L42.75 46.0 Q44.0 46.75 43.5 56.75 L40.5 62.5 30.5 73.0 Q16.75 81.25 3.75 82.25 L-4.5 81.5 Q-17.75 81.25 -32.25 71.75 L-40.5 62.5 -42.25 59.5 -44.5 54.5 Q-42.5 49.75 -43.5 48.75 L-39.75 46.0 -39.25 44.0 -36.0 40.25 -31.0 29.75 -30.0 29.0 -26.0 19.75 -23.0 9.75 -18.75 1.0 -17.75 3.0 Q-9.5 15.75 -0.5 13.0 L2.0 13.0 2.5 12.75 Q13.75 10.5 17.0 -0.75 M-8.75 -28.5 L-9.0 -28.0 Q-12.5 -24.75 -6.0 -23.75 L-4.25 -25.5 -4.25 -27.25 -7.5 -28.75 -8.25 -28.75 -8.75 -28.5" fill="#ffffff" fill-rule="evenodd" stroke="none"/>
    <path d="M6.25 -28.25 L6.5 -28.25 6.75 -28.0 7.75 -27.5 7.75 -25.0 6.25 -23.75 3.0 -23.75 Q1.5 -27.25 3.0 -27.5 L3.25 -28.0 4.75 -28.5 6.25 -28.25 M-8.75 -28.5 L-8.25 -28.75 -7.5 -28.75 -4.25 -27.25 -4.25 -25.5 -6.0 -23.75 Q-12.5 -24.75 -9.0 -28.0 L-8.75 -28.5" fill="#000000" fill-rule="evenodd" stroke="none"/>
    <path d="M11.75 -24.5 L13.75 -23.5 18.25 -18.0 19.0 -9.0 17.0 -0.75 Q13.75 10.5 2.5 12.75 L2.0 13.0 -0.5 13.0 Q-9.5 15.75 -17.75 3.0 L-18.75 1.0 Q-25.75 -17.25 -13.75 -24.5 -12.75 -22.5 -9.0 -22.0 L-1.0 -23.5 6.25 -21.75 Q10.5 -22.0 11.75 -24.5 M40.5 62.5 L42.75 61.75 47.75 58.0 Q63.5 77.25 46.0 94.25 3.0 110.5 3.75 82.25 16.75 81.25 30.5 73.0 L40.5 62.5 M-4.5 81.5 L-4.5 84.75 -6.75 92.25 Q-16.25 107.5 -49.25 92.75 L-54.0 86.5 -56.0 79.75 -55.0 71.5 -52.75 65.0 -48.75 57.0 -40.5 62.5 -32.25 71.75 Q-17.75 81.25 -4.5 81.5" fill="#e58508" fill-rule="evenodd" stroke="none"/>
    <path d="M-95.0 43.6 L-95.9 41.75 -95.9 39.85 -89.75 18.25 Q-87.5 7.5 -77.9 -3.5 L-77.25 -4.25 Q-54.15 -32.25 -43.0 -35.9 -19.75 -69.75 -0.5 -73.65 5.1 -74.5 19.6 -62.0 L29.0 -52.25 42.75 -34.25 48.25 -31.4 57.25 -23.9 67.85 -12.9 77.35 -1.75 Q79.1 -1.9 84.85 6.6 L91.35 21.5 Q100.35 44.5 97.6 48.0 L96.75 47.6 88.25 36.6 77.5 20.25 76.6 17.6 77.25 17.6 77.85 17.0 76.25 17.25 75.5 17.0 53.75 0.85 47.0 -5.5 50.5 0.75 52.25 3.1 62.85 10.85 64.1 16.6 64.1 18.1 Q65.0 32.85 42.25 45.5 L43.6 49.5 43.5 52.25 39.5 60.85 33.1 67.25 17.5 74.1 -1.4 76.25 -20.4 73.1 -35.15 65.85 -41.0 59.5 -44.5 51.35 -44.65 48.75 Q-42.9 44.85 -43.25 44.25 -48.25 42.75 -56.4 35.0 L-61.65 28.1 -64.4 21.25 -64.75 15.25 -63.9 8.5 -53.5 1.0 -51.9 -1.15 -48.4 -7.5 -54.75 -2.0 -55.15 -1.25 -65.5 6.25 -66.4 7.25 -76.75 14.5 -78.4 14.25 -78.0 14.75 -77.25 14.85 -78.5 17.85 -87.15 32.6 -91.5 38.6 Q-91.4 39.35 -94.5 43.5 L-95.0 43.6 M18.6 -8.0 L18.0 -3.9 17.35 -2.75 17.1 -1.15 Q12.1 11.6 2.5 12.75 L2.0 12.85 -5.15 13.0 -9.75 11.5 Q-16.25 7.1 -17.25 3.6 L-17.5 3.25 -18.4 1.35 -18.5 1.35 -20.4 -5.15 -21.0 -11.0 -20.9 -14.15 -21.75 -14.0 -20.9 3.0 -20.4 5.75 -20.5 6.6 -20.0 15.1 -13.15 34.0 -13.25 34.5 -12.65 34.75 -8.25 40.0 -0.75 41.6 6.1 40.35 11.35 35.0 18.6 15.75 19.6 2.85 18.6 -8.0 M54.85 80.35 Q49.85 93.0 34.75 95.6 11.5 99.75 6.75 91.1 L8.1 90.35 15.1 90.1 17.75 89.6 18.1 89.6 22.85 88.75 27.35 87.25 34.5 83.35 39.5 79.1 41.35 76.85 42.75 74.6 44.85 70.25 46.6 68.85 49.35 65.6 50.25 63.85 50.0 61.6 53.6 69.75 54.6 73.35 55.1 77.85 54.85 80.1 54.85 80.35 M-51.25 62.25 L-51.25 63.85 -50.5 65.5 -47.9 68.85 -46.0 70.25 -43.9 74.6 -40.65 79.1 -35.5 83.35 Q-32.05 85.25 -28.65 87.1 L-23.75 88.75 -19.4 89.6 -19.0 89.6 -14.15 90.25 -9.15 90.35 -7.9 91.1 Q-13.15 99.75 -34.5 95.85 -51.75 92.1 -55.65 81.75 L-55.75 81.5 -55.9 81.25 Q-57.5 74.0 -51.25 62.25" fill="#cecece" fill-opacity="0.0" fill-rule="evenodd" stroke="none"/>
    <path d="M-95.0 43.6 L-94.5 43.5 Q-91.4 39.35 -91.5 38.6 L-87.15 32.6 -78.5 17.85 -77.25 14.85 -78.0 14.75 -78.4 14.25 -76.75 14.5 -66.4 7.25 -65.5 6.25 -55.15 -1.25 -54.75 -2.0 -48.4 -7.5 -51.9 -1.15 -53.5 1.0 -63.9 8.5 -72.75 14.35 -77.75 23.5 -84.15 33.0 -92.4 43.25 -93.15 43.6 -95.0 43.6 M-64.75 15.25 L-64.4 21.25 -61.65 28.1 -56.4 35.0 Q-48.25 42.75 -43.25 44.25 -42.9 44.85 -44.65 48.75 L-44.5 51.35 -41.0 59.5 -35.15 65.85 -20.4 73.1 -1.4 76.25 17.5 74.1 33.1 67.25 39.5 60.85 43.5 52.25 43.6 49.5 42.25 45.5 Q65.0 32.85 64.1 18.1 L64.75 23.5 63.35 35.0 62.25 38.85 57.85 47.6 52.1 54.6 47.85 58.0 50.0 61.6 50.25 63.85 49.35 65.6 46.6 68.85 44.85 70.25 42.75 74.6 41.35 76.85 39.5 79.1 34.5 83.35 27.35 87.25 22.85 88.75 18.1 89.6 17.75 89.6 15.1 90.1 8.1 90.35 6.75 91.1 Q11.5 99.75 34.75 95.6 49.85 93.0 54.85 80.35 53.35 94.35 32.25 99.25 L27.5 100.0 Q15.6 101.5 8.6 96.85 5.85 96.0 4.0 81.85 L4.0 81.75 3.85 81.6 -1.15 82.35 -5.0 81.5 -5.0 81.85 -5.9 87.5 -6.4 89.25 Q-8.65 102.85 -28.5 100.0 L-33.25 99.25 Q-50.65 96.85 -55.65 81.75 -51.75 92.1 -34.5 95.85 -13.15 99.75 -7.9 91.1 L-9.15 90.35 -14.15 90.25 -19.0 89.6 -19.4 89.6 -23.75 88.75 -28.65 87.1 Q-32.05 85.25 -35.5 83.35 L-40.65 79.1 -43.9 74.6 -46.0 70.25 -47.9 68.85 -50.5 65.5 -51.25 63.85 -51.25 62.25 -48.5 57.5 Q-60.4 48.0 -62.9 38.35 L-64.4 33.25 -65.25 20.75 -64.75 15.25 M62.85 10.85 L52.25 3.1 50.5 0.75 47.0 -5.5 53.75 0.85 75.5 17.0 76.25 17.25 77.85 17.0 77.25 17.6 76.6 17.6 77.5 20.25 88.25 36.6 96.75 47.6 97.6 48.0 95.0 47.5 86.0 37.25 77.5 25.75 72.5 17.5 72.6 17.25 62.85 10.85 M18.6 -8.0 L19.6 2.85 18.6 15.75 11.35 35.0 6.1 40.35 -0.75 41.6 -8.25 40.0 -12.65 34.75 -13.25 34.5 -13.15 34.0 -20.0 15.1 -20.5 6.6 -20.4 5.75 -20.9 3.0 -21.75 -14.0 -20.9 -14.15 -21.0 -11.0 -20.4 -5.15 -18.5 1.35 -18.4 1.35 -17.5 3.25 -17.25 3.6 Q-16.25 7.1 -9.75 11.5 L-5.15 13.0 2.0 12.85 2.5 12.75 Q12.1 11.6 17.1 -1.15 L17.35 -2.75 18.0 -3.9 18.6 -8.0" fill="#000000" fill-opacity="0.49803922" fill-rule="evenodd" stroke="none"/>
  </g>
</svg>
