<?xml version="1.0" encoding="UTF-8" standalone="no"?>
<svg xmlns:ffdec="https://www.free-decompiler.com/flash" xmlns:xlink="http://www.w3.org/1999/xlink" ffdec:objectType="shape" height="174.15px" width="202.0px" xmlns="http://www.w3.org/2000/svg">
  <g transform="matrix(1.0, 0.0, 0.0, 1.0, 94.95, 73.65)">
    <path d="M3.0 -28.25 L2.25 -28.0 1.25 -27.5 Q-1.75 -24.75 3.25 -23.25 8.5 -26.0 4.75 -27.75 L4.75 -28.0 4.5 -28.0 3.0 -28.25 M-15.0 -25.0 L-17.0 -28.5 -17.25 -34.25 -12.5 -36.0 Q-6.5 -37.0 -3.5 -35.25 L-2.25 -34.75 -1.25 -35.0 6.0 -35.25 Q12.5 -34.0 13.0 -32.25 L12.5 -27.5 10.5 -24.0 Q8.5 -21.25 4.5 -21.5 L-2.75 -23.5 -9.75 -22.25 Q-14.75 -23.0 -15.0 -25.0 M15.0 -0.75 L19.75 11.0 21.5 18.25 28.0 31.0 30.0 34.0 36.5 40.0 42.0 50.25 41.75 58.75 38.25 65.0 28.25 74.5 Q13.0 82.25 3.75 82.0 L-1.25 82.5 -4.5 81.75 -16.5 79.5 -22.75 77.0 -34.5 70.0 -42.5 60.0 -46.0 52.25 Q-44.25 47.25 -45.0 46.75 L-41.25 43.75 -31.5 26.75 -27.5 17.5 -25.0 9.0 -21.0 1.0 -20.75 1.0 Q-14.5 15.75 -0.25 13.0 11.0 10.25 15.0 -0.75 M-10.5 -28.75 L-11.0 -28.25 -11.75 -28.0 -12.0 -26.0 -10.75 -24.5 -9.0 -24.0 -7.0 -24.5 -6.0 -27.5 -7.0 -28.0 -7.5 -28.5 -8.0 -28.25 -9.25 -29.0 -10.5 -28.75" fill="#ffffff" fill-rule="evenodd" stroke="none"/>
    <path d="M3.0 -28.25 L4.5 -28.0 4.75 -28.0 4.75 -27.75 Q8.5 -26.0 3.25 -23.25 -1.75 -24.75 1.25 -27.5 L2.25 -28.0 3.0 -28.25 M-10.5 -28.75 L-9.25 -29.0 -8.0 -28.25 -7.5 -28.5 -7.0 -28.0 -6.0 -27.5 -7.0 -24.5 -9.0 -24.0 -10.75 -24.5 -12.0 -26.0 -11.75 -28.0 -11.0 -28.25 -10.5 -28.75" fill="#000000" fill-rule="evenodd" stroke="none"/>
    <path d="M10.5 -24.0 L14.75 -20.5 16.75 -17.25 17.25 -8.75 15.0 -0.75 Q11.0 10.25 -0.25 13.0 -14.5 15.75 -20.75 1.0 L-21.0 1.0 Q-26.5 -22.0 -15.0 -25.0 -14.75 -23.0 -9.75 -22.25 L-2.75 -23.5 4.5 -21.5 Q8.5 -21.25 10.5 -24.0 M38.25 65.0 L41.75 63.75 48.5 59.25 Q63.25 80.75 46.0 94.25 3.0 110.75 3.75 82.0 13.0 82.25 28.25 74.5 L38.25 65.0 M-4.5 81.75 L-4.5 84.75 -6.75 92.25 Q-16.25 107.5 -49.25 92.75 L-54.0 86.5 -56.0 79.75 -55.0 71.5 -52.75 65.0 -48.25 56.0 -42.5 60.0 -34.5 70.0 -22.75 77.0 -16.5 79.5 -4.5 81.75" fill="#e58508" fill-rule="evenodd" stroke="none"/>
    <path d="M-94.15 39.1 Q-97.0 36.1 -89.4 16.25 L-84.5 3.35 -78.15 -6.15 -76.9 -7.0 -76.75 -7.0 -76.5 -7.25 Q-53.9 -33.9 -42.4 -37.5 -18.15 -71.75 -0.4 -73.65 7.5 -73.0 18.85 -62.15 L29.25 -51.15 35.5 -43.25 42.85 -32.75 47.35 -30.65 57.85 -22.15 69.35 -10.5 80.5 2.25 Q82.6 1.85 89.6 11.25 L95.6 22.5 Q109.5 51.35 106.5 56.1 L105.35 55.6 92.85 42.1 85.5 33.1 79.1 24.25 78.0 21.5 79.0 21.35 79.35 20.85 77.6 21.1 77.0 20.75 65.75 12.75 64.85 11.75 53.1 3.0 45.85 -4.15 45.5 -4.15 50.0 3.85 63.6 14.0 64.35 21.25 62.5 28.5 58.35 35.1 52.0 41.25 43.5 46.5 40.35 47.5 41.85 51.35 41.75 54.35 37.5 62.5 30.6 68.85 14.85 74.85 -4.5 76.1 -22.75 72.35 -37.65 64.0 -43.15 57.0 -45.5 50.1 -46.25 48.85 -46.15 46.5 -44.65 42.25 -50.4 38.85 -57.25 32.25 -61.9 25.35 Q-63.75 20.6 -64.3 17.95 L-64.25 13.5 -64.15 13.25 -63.15 4.85 Q-52.0 -0.4 -48.9 -9.75 L-56.25 -3.5 -66.0 3.35 -66.75 4.25 -76.5 10.75 -77.0 11.0 -78.4 10.6 -77.9 11.25 -77.25 11.25 -77.9 13.25 -82.25 20.1 -82.4 21.0 -83.15 21.75 -86.0 27.0 -94.15 39.1 M54.85 80.35 Q49.85 93.0 34.75 95.6 11.5 99.75 6.75 91.1 L8.1 90.35 15.1 90.1 17.75 89.6 18.1 89.6 22.85 88.75 27.35 87.25 34.5 83.35 39.5 79.1 41.35 76.85 44.85 70.25 46.6 68.85 49.35 65.6 50.25 63.85 50.0 61.6 53.6 69.75 54.6 73.35 55.1 77.85 54.85 80.1 54.85 80.35 M17.0 -7.65 Q16.0 -6.4 15.85 -3.25 L15.0 -1.4 Q11.0 11.25 -1.5 12.85 L-4.4 12.85 Q-12.9 14.35 -19.5 3.75 L-20.4 1.6 -20.5 1.6 -21.25 -0.5 -22.65 -7.65 -22.4 1.25 -22.65 2.1 -22.15 4.75 -22.25 5.5 -22.15 13.85 -15.65 34.0 -15.25 34.0 -10.75 39.6 -3.65 41.6 3.35 40.6 8.85 35.5 16.5 16.6 17.6 5.75 17.6 5.0 17.75 3.75 17.0 -7.65 M-23.15 -14.65 L-22.75 -12.4 -22.4 -12.5 -22.5 -15.15 -23.15 -15.15 -23.15 -14.65 M-51.25 62.25 L-51.25 63.85 -50.5 65.5 -47.9 68.85 -46.0 70.25 -43.9 74.6 -40.65 79.1 -35.5 83.35 Q-32.05 85.25 -28.65 87.1 L-23.75 88.75 -19.4 89.6 -19.0 89.6 -14.15 90.25 -9.15 90.35 -7.9 91.1 Q-13.15 99.75 -34.5 95.85 -51.75 92.1 -55.65 81.75 L-55.75 81.5 -55.9 81.25 Q-57.5 74.0 -51.25 62.25" fill="#cecece" fill-opacity="0.0" fill-rule="evenodd" stroke="none"/>
    <path d="M-94.15 39.1 L-86.0 27.0 -83.15 21.75 -82.4 21.0 -82.25 20.1 -77.9 13.25 -77.25 11.25 -77.9 11.25 -78.4 10.6 -77.0 11.0 -76.5 10.75 -66.75 4.25 -66.0 3.35 -56.25 -3.5 -48.9 -9.75 Q-52.0 -0.4 -63.15 4.85 L-72.25 10.75 -77.15 19.25 -84.65 30.25 -91.65 38.75 -94.15 39.1 M-64.3 17.95 Q-63.75 20.6 -61.9 25.35 L-57.25 32.25 -50.4 38.85 -44.65 42.25 -46.15 46.5 -46.25 48.85 -45.5 50.1 -43.15 57.0 -37.65 64.0 -22.75 72.35 -4.5 76.1 14.85 74.85 30.6 68.85 37.5 62.5 41.75 54.35 41.85 51.35 40.35 47.5 43.5 46.5 52.0 41.25 58.35 35.1 62.5 28.5 64.35 21.25 Q68.0 43.25 48.6 59.25 L50.0 61.6 50.25 63.85 49.35 65.6 46.6 68.85 44.85 70.25 41.35 76.85 39.5 79.1 34.5 83.35 27.35 87.25 22.85 88.75 18.1 89.6 17.75 89.6 15.1 90.1 8.1 90.35 6.75 91.1 Q11.5 99.75 34.75 95.6 49.85 93.0 54.85 80.35 53.35 94.35 32.25 99.25 L27.5 100.0 Q15.6 101.5 8.6 96.85 5.85 96.0 4.0 81.85 L4.0 81.75 3.85 81.35 -3.5 82.25 -4.9 82.0 -5.0 82.0 -5.9 87.5 -6.4 89.25 Q-8.65 102.85 -28.5 100.0 L-33.25 99.25 Q-50.65 96.85 -55.65 81.75 -51.75 92.1 -34.5 95.85 -13.15 99.75 -7.9 91.1 L-9.15 90.35 -14.15 90.25 -19.0 89.6 -19.4 89.6 -23.75 88.75 -28.65 87.1 Q-32.05 85.25 -35.5 83.35 L-40.65 79.1 -43.9 74.6 -46.0 70.25 -47.9 68.85 -50.5 65.5 -51.25 63.85 -51.25 62.25 -47.9 56.5 -53.4 51.75 -60.25 42.1 -64.15 30.35 -64.5 26.0 -64.3 17.95 M63.6 14.0 L50.0 3.85 45.5 -4.15 45.85 -4.15 53.1 3.0 64.85 11.75 65.75 12.75 77.0 20.75 77.6 21.1 79.35 20.85 79.0 21.35 78.0 21.5 79.1 24.25 85.5 33.1 92.85 42.1 105.35 55.6 106.5 56.1 104.0 55.6 88.25 39.35 81.25 30.85 74.85 21.6 63.6 14.0 M17.0 -7.65 L17.75 3.75 17.6 5.0 17.6 5.75 16.5 16.6 8.85 35.5 3.35 40.6 -3.65 41.6 -10.75 39.6 -15.25 34.0 -15.65 34.0 -22.15 13.85 -22.25 5.5 -22.15 4.75 -22.65 2.1 -22.4 1.25 -22.65 -7.65 -21.25 -0.5 -20.5 1.6 -20.4 1.6 -19.5 3.75 Q-12.9 14.35 -4.4 12.85 L-1.5 12.85 Q11.0 11.25 15.0 -1.4 L15.85 -3.25 Q16.0 -6.4 17.0 -7.65 M-23.15 -14.65 L-23.15 -15.15 -22.5 -15.15 -22.4 -12.5 -22.75 -12.4 -23.15 -14.65" fill="#000000" fill-opacity="0.49803922" fill-rule="evenodd" stroke="none"/>
  </g>
</svg>
