<?xml version="1.0" encoding="UTF-8" standalone="no"?>
<svg xmlns:ffdec="https://www.free-decompiler.com/flash" xmlns:xlink="http://www.w3.org/1999/xlink" ffdec:objectType="shape" height="174.05px" width="210.7px" xmlns="http://www.w3.org/2000/svg">
  <g transform="matrix(1.0, 0.0, 0.0, 1.0, 93.35, 73.55)">
    <path d="M-17.25 -26.0 L-19.0 -30.25 -18.75 -35.25 -14.75 -36.75 Q-7.75 -37.5 -5.75 -35.5 L-4.5 -35.0 -3.25 -35.25 2.5 -35.25 Q10.5 -33.25 11.0 -31.5 L11.0 -28.0 8.0 -23.5 Q5.25 -20.75 2.25 -21.25 L-5.25 -23.75 -12.25 -23.0 Q-15.75 -23.75 -17.25 -26.0 M12.0 -0.75 L17.5 14.25 18.5 19.75 24.5 32.25 Q25.25 35.25 33.75 42.75 L39.25 53.0 39.0 61.5 Q36.65 67.45 35.4 67.95 L35.25 68.0 25.0 76.25 10.75 81.0 3.75 81.75 -4.75 82.25 -24.25 76.75 -37.25 67.75 -45.0 56.0 -47.75 49.0 Q-46.25 45.75 -47.0 43.5 -33.0 27.75 -24.0 0.75 -17.75 14.25 -8.75 12.5 L-7.5 12.75 Q5.25 13.5 12.0 -0.75 M3.0 -27.25 L2.0 -27.5 2.25 -27.75 2.0 -27.75 1.0 -28.25 0.25 -28.0 -0.75 -27.25 -1.25 -27.5 Q-3.75 -26.25 -1.25 -23.5 L1.75 -23.25 3.5 -25.0 3.0 -27.25 M-12.75 -29.5 L-13.5 -29.0 -14.75 -27.5 -14.5 -26.75 -12.25 -24.75 Q-6.75 -25.5 -9.5 -28.5 L-10.25 -28.75 -11.75 -29.75 -12.75 -29.5" fill="#ffffff" fill-rule="evenodd" stroke="none"/>
    <path d="M3.0 -27.25 L3.5 -25.0 1.75 -23.25 -1.25 -23.5 Q-3.75 -26.25 -1.25 -27.5 L-0.75 -27.25 0.25 -28.0 1.0 -28.25 2.0 -27.75 2.25 -27.75 2.0 -27.5 3.0 -27.25 M-12.75 -29.5 L-11.75 -29.75 -10.25 -28.75 -9.5 -28.5 Q-6.75 -25.5 -12.25 -24.75 L-14.5 -26.75 -14.75 -27.5 -13.5 -29.0 -12.75 -29.5" fill="#000000" fill-rule="evenodd" stroke="none"/>
    <path d="M-17.25 -26.0 Q-15.75 -23.75 -12.25 -23.0 L-5.25 -23.75 2.25 -21.25 Q5.25 -20.75 8.0 -23.5 20.5 -16.0 12.0 -0.75 5.25 13.5 -7.5 12.75 L-8.75 12.5 Q-17.75 14.25 -24.0 0.75 -28.0 -23.0 -17.25 -26.0 M35.4 67.95 L40.0 66.5 49.5 60.75 Q64.5 84.25 41.25 96.75 2.0 108.5 3.75 81.75 L10.75 81.0 25.0 76.25 35.25 68.0 35.4 67.95 M-4.75 82.25 L-4.5 84.75 -6.75 92.25 Q-16.25 107.5 -49.25 92.75 L-54.0 86.5 -56.0 79.75 -55.0 71.5 -52.75 65.0 -47.5 54.5 -45.0 56.0 -37.25 67.75 -24.25 76.75 -4.75 82.25" fill="#e58508" fill-rule="evenodd" stroke="none"/>
    <path d="M-92.65 32.5 Q-95.15 29.85 -88.5 12.85 L-82.65 -1.75 -76.25 -10.75 -75.15 -11.65 Q-51.25 -37.75 -41.5 -39.9 -18.15 -72.4 0.25 -73.5 2.5 -73.9 9.6 -69.4 L18.0 -62.4 27.6 -51.9 35.35 -42.0 43.75 -30.15 48.6 -27.65 58.75 -19.4 71.1 -6.75 82.6 6.5 83.0 6.85 83.35 7.35 83.85 7.85 84.1 8.25 84.6 8.75 Q87.35 7.75 95.25 18.35 L104.5 34.6 Q119.85 65.6 116.85 70.6 L116.75 70.6 114.75 69.5 107.85 61.85 107.35 61.75 97.5 51.35 87.6 39.85 86.5 37.85 80.5 30.1 79.5 28.5 79.25 27.25 80.1 27.25 80.5 26.85 79.1 26.85 66.1 17.5 65.0 16.25 52.35 6.6 43.25 -2.5 42.85 -2.5 46.35 4.5 47.35 5.5 64.35 18.75 64.35 20.75 64.5 25.0 62.25 31.5 56.85 39.1 49.5 45.0 41.25 49.25 37.6 50.25 39.1 54.25 39.1 56.1 38.5 57.85 34.25 65.0 27.25 70.75 10.25 75.85 -9.25 75.6 -27.0 70.5 -40.75 61.1 -45.5 54.35 -48.15 45.85 -48.0 43.1 Q-47.4 42.85 -46.75 39.0 -61.15 29.85 -63.5 14.1 L-61.65 0.1 Q-53.0 -3.9 -49.4 -13.0 L-56.5 -7.15 -66.25 -0.9 -66.9 -0.15 -76.4 5.85 -77.75 5.5 -77.5 6.0 -76.75 6.25 -77.65 8.35 -81.75 14.5 -81.9 15.35 -92.65 32.5 M14.5 -7.5 L12.0 -1.0 Q5.5 12.1 -5.15 12.75 L-8.75 12.5 Q-17.65 12.1 -21.65 5.5 L-23.5 1.75 -23.65 1.75 -24.25 -0.65 -24.4 -0.9 -24.75 -1.9 -25.0 0.5 -24.5 3.1 -24.75 4.1 -24.9 12.35 -19.15 32.35 -14.5 38.6 -7.65 41.25 -0.5 40.75 5.1 35.85 13.35 17.6 14.85 6.85 14.85 6.1 15.1 4.85 14.5 -7.5 M54.85 80.35 Q49.85 93.0 34.75 95.6 11.5 99.75 6.75 91.1 L8.1 90.35 15.1 90.1 17.75 89.6 18.1 89.6 22.85 88.75 27.35 87.25 34.5 83.35 39.5 79.1 41.35 76.85 44.85 70.25 46.6 68.85 49.35 65.6 50.25 63.85 50.1 62.25 Q55.35 72.1 55.1 77.85 L54.85 80.1 54.85 80.35 M-24.4 -16.5 L-24.5 -16.65 -25.15 -16.5 -24.9 -14.65 -24.4 -16.5 M-51.25 62.25 L-51.25 63.85 -50.5 65.5 -47.9 68.85 -46.0 70.25 -43.9 74.6 -40.65 79.1 -35.5 83.35 Q-32.05 85.25 -28.65 87.1 L-23.75 88.75 -19.4 89.6 -19.0 89.6 -14.15 90.25 -9.15 90.35 -7.9 91.1 Q-13.15 99.75 -34.5 95.85 -51.75 92.1 -55.65 81.75 L-55.75 81.5 -55.9 81.25 Q-57.5 74.0 -51.25 62.25" fill="#cecece" fill-opacity="0.0" fill-rule="evenodd" stroke="none"/>
    <path d="M-92.65 32.5 L-81.9 15.35 -81.75 14.5 -77.65 8.35 -76.75 6.25 -77.5 6.0 -77.75 5.5 -76.4 5.85 -66.9 -0.15 -66.25 -0.9 -56.5 -7.15 -49.4 -13.0 Q-53.0 -3.9 -61.65 0.1 L-71.0 5.5 -76.15 14.0 -82.0 22.25 -90.25 32.5 -91.15 32.75 -92.65 32.5 M-63.5 14.1 Q-61.15 29.85 -46.75 39.0 -47.4 42.85 -48.0 43.1 L-48.15 45.85 -45.5 54.35 -40.75 61.1 -27.0 70.5 -9.25 75.6 10.25 75.85 27.25 70.75 34.25 65.0 38.5 57.85 39.1 56.1 39.1 54.25 37.6 50.25 41.25 49.25 49.5 45.0 56.85 39.1 62.25 31.5 64.5 25.0 64.35 20.75 65.1 30.1 64.85 35.5 62.0 45.6 55.75 55.35 49.5 60.85 50.1 62.25 50.25 63.85 49.35 65.6 46.6 68.85 44.85 70.25 41.35 76.85 39.5 79.1 34.5 83.35 27.35 87.25 22.85 88.75 18.1 89.6 17.75 89.6 15.1 90.1 8.1 90.35 6.75 91.1 Q11.5 99.75 34.75 95.6 49.85 93.0 54.85 80.35 53.35 94.35 32.25 99.25 L27.5 100.0 Q15.6 101.5 8.6 96.85 5.85 96.0 4.0 81.85 L4.0 81.75 3.85 81.35 -5.0 81.85 -5.9 87.5 -6.4 89.25 Q-8.65 102.85 -28.5 100.0 L-33.25 99.25 Q-50.65 96.85 -55.65 81.75 -51.75 92.1 -34.5 95.85 -13.15 99.75 -7.9 91.1 L-9.15 90.35 -14.15 90.25 -19.0 89.6 -19.4 89.6 -23.75 88.75 -28.65 87.1 Q-32.05 85.25 -35.5 83.35 L-40.65 79.1 -43.9 74.6 -46.0 70.25 -47.9 68.85 -50.5 65.5 -51.25 63.85 -51.25 62.25 -47.0 55.0 Q-65.25 41.35 -63.5 14.1 M64.35 18.75 L47.35 5.5 46.35 4.5 42.85 -2.5 43.25 -2.5 52.35 6.6 65.0 16.25 66.1 17.5 79.1 26.85 80.5 26.85 80.1 27.25 79.25 27.25 79.5 28.5 80.5 30.1 86.5 37.85 87.6 39.85 97.5 51.35 107.35 61.75 107.85 61.85 114.75 69.5 116.75 70.6 113.5 69.5 94.75 50.5 85.25 39.5 78.35 30.0 76.75 27.25 64.35 18.75 M14.5 -7.5 L15.1 4.85 14.85 6.1 14.85 6.85 13.35 17.6 5.1 35.85 -0.5 40.75 -7.65 41.25 -14.5 38.6 -19.15 32.35 -24.9 12.35 -24.75 4.1 -24.5 3.1 -25.0 0.5 -24.75 -1.9 -24.4 -0.9 -24.25 -0.65 -23.65 1.75 -23.5 1.75 -21.65 5.5 Q-17.65 12.1 -8.75 12.5 L-5.15 12.75 Q5.5 12.1 12.0 -1.0 L14.5 -7.5 M-24.4 -16.5 L-24.9 -14.65 -25.15 -16.5 -24.5 -16.65 -24.4 -16.5" fill="#000000" fill-opacity="0.49803922" fill-rule="evenodd" stroke="none"/>
  </g>
</svg>
