<?xml version="1.0" encoding="UTF-8" standalone="no"?>
<svg xmlns:ffdec="https://www.free-decompiler.com/flash" xmlns:xlink="http://www.w3.org/1999/xlink" ffdec:objectType="shape" height="174.0px" width="214.0px" xmlns="http://www.w3.org/2000/svg">
  <g transform="matrix(1.0, 0.0, 0.0, 1.0, 90.9, 73.5)">
    <path d="M8.25 -0.75 L13.5 14.0 14.75 21.0 20.0 32.5 Q21.25 37.75 30.25 45.75 L35.5 56.0 36.0 63.5 Q33.5 70.5 30.75 71.5 L20.5 78.25 3.75 81.75 -4.5 81.75 -9.5 81.75 -29.25 74.0 -40.75 64.25 -46.5 53.25 -46.75 51.75 -47.25 51.5 -49.5 45.0 -48.75 39.25 -45.75 37.5 -39.0 26.0 -33.5 15.0 -30.25 5.0 -27.5 0.75 Q-22.0 12.5 -13.75 11.75 L-12.75 12.0 -11.5 12.0 -11.0 12.25 Q0.25 12.75 8.25 -0.75 M-19.5 -27.25 L-20.75 -30.25 -20.5 -36.75 Q-13.75 -39.25 -8.0 -36.0 L-6.75 -35.25 -6.5 -35.25 -5.5 -35.5 -0.5 -35.25 Q8.25 -32.25 8.75 -30.75 L8.0 -26.0 5.5 -23.0 Q3.5 -20.5 -1.75 -21.25 L-8.25 -24.25 Q-16.5 -23.5 -17.25 -25.0 L-19.5 -27.25 M-5.5 -27.25 L-5.5 -25.25 -3.25 -23.25 Q3.0 -24.75 -1.0 -27.5 L-2.0 -28.0 -2.75 -28.25 -4.0 -28.0 -4.25 -27.75 -5.5 -27.25 M-15.5 -30.5 L-16.25 -30.0 -17.0 -29.75 -17.25 -28.0 -16.5 -27.5 -16.75 -26.75 -13.75 -25.5 -12.0 -26.25 -11.5 -27.75 -12.5 -29.5 -13.25 -29.5 -14.0 -30.5 -14.5 -30.75 -15.5 -30.5" fill="#ffffff" fill-rule="evenodd" stroke="none"/>
    <path d="M-15.5 -30.5 L-14.5 -30.75 -14.0 -30.5 -13.25 -29.5 -12.5 -29.5 -11.5 -27.75 -12.0 -26.25 -13.75 -25.5 -16.75 -26.75 -16.5 -27.5 -17.25 -28.0 -17.0 -29.75 -16.25 -30.0 -15.5 -30.5 M-5.5 -27.25 L-4.25 -27.75 -4.0 -28.0 -2.75 -28.25 -2.0 -28.0 -1.0 -27.5 Q3.0 -24.75 -3.25 -23.25 L-5.5 -25.25 -5.5 -27.25" fill="#000000" fill-rule="evenodd" stroke="none"/>
    <path d="M5.5 -23.0 Q17.5 -14.75 8.25 -0.75 0.25 12.75 -11.0 12.25 L-11.5 12.0 -12.75 12.0 -13.75 11.75 Q-22.0 12.5 -27.5 0.75 -31.0 -21.25 -19.5 -27.25 L-17.25 -25.0 Q-16.5 -23.5 -8.25 -24.25 L-1.75 -21.25 Q3.5 -20.5 5.5 -23.0 M30.75 71.5 L40.25 68.5 Q45.5 67.0 50.5 62.5 63.5 85.75 41.25 96.75 28.0 103.0 10.75 98.25 8.25 98.25 5.75 92.0 L3.75 81.75 20.5 78.25 30.75 71.5 M-4.5 81.75 L-4.5 84.75 -6.75 92.25 Q-16.25 107.5 -49.25 92.75 -64.25 82.5 -46.5 53.25 L-40.75 64.25 -29.25 74.0 -9.5 81.75 -4.5 81.75" fill="#e58508" fill-rule="evenodd" stroke="none"/>
    <path d="M-90.15 25.0 L-90.75 24.25 -90.9 22.5 -85.75 6.0 Q-82.9 -4.5 -75.5 -13.65 L-72.75 -16.75 -72.4 -17.0 Q-49.25 -40.75 -40.15 -42.65 L-32.0 -52.5 -21.25 -63.65 -11.65 -70.5 Q-6.4 -73.75 0.25 -73.5 2.5 -73.75 10.1 -68.65 L18.0 -61.65 27.6 -50.65 44.6 -26.65 50.0 -23.65 61.25 -14.0 73.35 -1.0 87.1 15.25 88.35 17.35 92.85 19.6 101.1 30.35 110.5 49.35 114.0 58.25 123.0 84.75 123.1 91.6 122.25 91.1 122.0 91.0 121.6 90.35 119.1 88.75 117.6 86.5 98.6 63.6 87.75 49.0 80.75 37.35 80.1 36.85 79.0 34.25 79.75 34.25 66.0 23.6 50.85 11.0 39.75 -0.4 Q38.6 5.6 64.5 24.75 L63.6 31.1 60.35 37.5 54.6 43.75 47.1 48.75 38.0 52.5 34.0 53.35 35.5 57.75 35.5 58.85 34.85 60.75 29.5 68.1 22.25 73.0 5.5 76.5 -14.15 74.75 -31.4 68.1 -43.65 58.0 -48.15 50.25 -50.0 42.25 -50.15 41.0 -48.65 35.1 Q-61.65 25.1 -62.25 10.0 L-61.25 1.75 -59.5 -5.4 -59.65 -5.4 -57.65 -6.5 -54.15 -9.4 -49.5 -16.9 -56.5 -11.5 -65.4 -6.25 -66.5 -5.25 -75.5 -0.15 -76.5 -0.5 -76.25 0.0 -75.5 0.25 -79.65 7.1 -80.5 8.0 -83.65 14.25 -90.15 25.0 M50.35 62.6 L53.5 69.6 55.0 76.1 54.75 81.25 54.35 81.5 54.6 81.75 Q50.25 92.5 31.75 96.25 12.75 99.5 6.75 91.1 L8.1 90.35 15.1 90.1 17.75 89.6 18.1 89.6 22.85 88.75 27.35 87.25 34.5 83.35 39.5 79.1 41.35 76.85 44.85 70.25 46.6 68.85 49.35 65.6 50.25 63.85 50.0 63.0 50.35 62.6 M-55.65 81.75 L-55.75 81.5 -55.9 81.25 Q-57.5 74.0 -51.25 62.25 L-51.25 63.85 -50.5 65.5 -47.9 68.85 -46.0 70.25 -43.9 74.6 -40.65 79.1 -35.5 83.35 Q-32.05 85.25 -28.65 87.1 L-23.75 88.75 -19.4 89.6 -19.0 89.6 -14.15 90.25 -9.15 90.35 -7.9 91.1 Q-13.15 99.75 -34.5 95.85 -51.75 92.1 -55.65 81.75 M11.5 -7.75 L8.35 -1.15 Q0.0 12.75 -10.9 12.1 L-11.4 12.0 -11.9 12.0 -14.75 11.5 Q-23.4 9.85 -25.25 5.0 L-26.0 4.0 -27.0 1.75 -27.25 1.6 -27.5 2.25 -27.9 10.6 -23.0 31.0 -18.65 37.5 -12.0 40.5 -4.65 40.5 0.75 36.1 9.5 18.35 11.35 7.85 11.5 7.6 11.5 -7.75 M-27.0 -17.65 L-26.9 -18.5 -27.15 -18.65 -27.0 -17.65" fill="#cecece" fill-opacity="0.0" fill-rule="evenodd" stroke="none"/>
    <path d="M122.0 91.0 L118.0 88.75 98.5 65.5 85.85 48.75 77.85 35.85 77.5 34.6 64.5 24.75 65.25 28.75 64.6 36.0 64.6 40.85 63.35 45.1 Q61.1 54.35 50.35 62.6 L50.0 63.0 50.25 63.85 49.35 65.6 46.6 68.85 44.85 70.25 41.35 76.85 39.5 79.1 34.5 83.35 27.35 87.25 22.85 88.75 18.1 89.6 17.75 89.6 15.1 90.1 8.1 90.35 6.75 91.1 Q12.75 99.5 31.75 96.25 50.25 92.5 54.6 81.75 L54.35 81.5 54.75 81.25 54.6 81.75 54.75 82.35 52.1 88.1 49.35 91.5 Q42.1 97.6 32.25 99.25 L27.5 100.0 Q15.6 101.5 8.6 96.85 5.85 96.0 4.0 81.85 L-5.15 81.35 -5.0 81.75 -5.0 81.85 -5.9 87.5 -6.4 89.25 Q-8.65 102.85 -28.5 100.0 L-33.25 99.25 Q-50.65 96.85 -55.65 81.75 -51.75 92.1 -34.5 95.85 -13.15 99.75 -7.9 91.1 L-9.15 90.35 -14.15 90.25 -19.0 89.6 -19.4 89.6 -23.75 88.75 -28.65 87.1 Q-32.05 85.25 -35.5 83.35 L-40.65 79.1 -43.9 74.6 -46.0 70.25 -47.9 68.85 -50.5 65.5 -51.25 63.85 -51.25 62.25 -46.75 54.75 -48.65 50.5 Q-64.65 35.1 -62.25 10.0 -61.65 25.1 -48.65 35.1 L-50.15 41.0 -50.0 42.25 -48.15 50.25 -43.65 58.0 -31.4 68.1 -14.15 74.75 5.5 76.5 22.25 73.0 29.5 68.1 34.85 60.75 35.5 58.85 35.5 57.75 34.0 53.35 38.0 52.5 47.1 48.75 54.6 43.75 60.35 37.5 63.6 31.1 64.5 24.75 Q38.6 5.6 39.75 -0.4 L50.85 11.0 66.0 23.6 79.75 34.25 79.0 34.25 80.1 36.85 80.75 37.35 87.75 49.0 98.6 63.6 117.6 86.5 119.1 88.75 121.6 90.35 122.0 91.0 M-59.65 -5.4 L-69.15 -0.4 -73.5 6.85 -80.0 16.25 -87.75 25.25 -89.15 25.5 -90.0 25.35 -90.15 25.0 -83.65 14.25 -80.5 8.0 -79.65 7.1 -75.5 0.25 -76.25 0.0 -76.5 -0.5 -75.5 -0.15 -66.5 -5.25 -65.4 -6.25 -56.5 -11.5 -49.5 -16.9 -54.15 -9.4 -57.65 -6.5 -59.65 -5.4 M-27.0 -17.65 L-27.15 -18.65 -26.9 -18.5 -27.0 -17.65 M11.5 -7.75 L11.5 7.6 11.35 7.85 9.5 18.35 0.75 36.1 -4.65 40.5 -12.0 40.5 -18.65 37.5 -23.0 31.0 -27.9 10.6 -27.5 2.25 -27.25 1.6 -27.0 1.75 -26.0 4.0 -25.25 5.0 Q-23.4 9.85 -14.75 11.5 L-11.9 12.0 -11.4 12.0 -10.9 12.1 Q0.0 12.75 8.35 -1.15 L11.5 -7.75" fill="#000000" fill-opacity="0.49803922" fill-rule="evenodd" stroke="none"/>
  </g>
</svg>
