<?xml version="1.0" encoding="UTF-8" standalone="no"?>
<svg xmlns:ffdec="https://www.free-decompiler.com/flash" xmlns:xlink="http://www.w3.org/1999/xlink" ffdec:objectType="shape" height="187.75px" width="204.65px" xmlns="http://www.w3.org/2000/svg">
  <g transform="matrix(1.0, 0.0, 0.0, 1.0, 87.4, 73.75)">
    <path d="M-21.75 -28.75 L-22.75 -31.5 Q-23.25 -38.0 -22.0 -38.5 -21.75 -40.0 -16.25 -39.0 L-10.5 -36.75 -9.25 -36.0 -8.75 -36.0 -3.5 -35.5 Q5.5 -32.0 6.0 -30.0 6.5 -27.0 5.0 -25.25 L2.5 -22.5 Q1.25 -20.5 -5.0 -21.5 L-11.25 -25.0 -17.75 -25.25 Q-20.25 -25.75 -21.75 -28.75 M4.5 -0.75 L9.25 14.25 10.75 22.25 16.25 35.75 19.0 40.25 26.0 48.25 31.0 58.25 32.0 66.0 Q29.75 73.0 27.35 74.3 L25.75 74.5 16.25 79.75 3.75 81.5 -4.5 81.75 -15.0 80.5 -33.5 71.25 -44.0 60.25 -46.5 53.5 -50.75 41.0 -50.25 35.0 -47.5 33.5 Q-48.25 32.5 -45.0 29.0 L-39.25 19.0 -31.25 0.75 -27.25 7.0 Q-24.0 9.75 -19.75 10.25 L-19.0 10.5 -18.5 10.75 -17.75 10.75 -17.25 11.0 Q-4.25 11.75 4.5 -0.75 M-8.75 -27.25 L-8.75 -25.25 -8.25 -24.25 -6.25 -23.5 Q-0.25 -25.0 -4.25 -27.75 L-6.0 -28.5 -7.0 -28.0 -8.5 -28.0 -8.75 -27.25 M-18.75 -31.5 L-19.5 -31.5 -19.75 -28.75 -17.5 -26.75 Q-13.25 -26.5 -15.25 -30.5 L-15.5 -30.75 -16.25 -30.75 -17.0 -31.75 -18.25 -31.75 -18.75 -31.5" fill="#ffffff" fill-rule="evenodd" stroke="none"/>
    <path d="M-18.75 -31.5 L-18.25 -31.75 -17.0 -31.75 -16.25 -30.75 -15.5 -30.75 -15.25 -30.5 Q-13.25 -26.5 -17.5 -26.75 L-19.75 -28.75 -19.5 -31.5 -18.75 -31.5 M-8.75 -27.25 L-8.5 -28.0 -7.0 -28.0 -6.0 -28.5 -4.25 -27.75 Q-0.25 -25.0 -6.25 -23.5 L-8.25 -24.25 -8.75 -25.25 -8.75 -27.25" fill="#000000" fill-rule="evenodd" stroke="none"/>
    <path d="M2.5 -22.5 Q15.0 -12.5 4.5 -0.75 -4.25 11.75 -17.25 11.0 L-17.75 10.75 -18.5 10.75 -19.0 10.5 -19.75 10.25 Q-24.0 9.75 -27.25 7.0 L-31.25 0.75 -32.0 -2.5 -32.0 -10.75 -31.75 -11.25 -29.25 -20.5 -27.0 -24.75 Q-26.25 -26.75 -21.75 -28.75 -20.25 -25.75 -17.75 -25.25 L-11.25 -25.0 -5.0 -21.5 Q1.25 -20.5 2.5 -22.5 M27.35 74.3 L32.5 73.5 42.5 70.25 51.25 64.75 Q62.75 87.25 39.25 97.5 18.75 103.0 11.0 98.5 7.25 97.0 6.25 93.25 L3.75 81.5 16.25 79.75 25.75 74.5 27.35 74.3 M-4.5 81.75 L-4.5 84.75 -6.75 92.25 Q-16.25 107.5 -49.25 92.75 -64.25 82.25 -46.5 53.5 L-44.0 60.25 -33.5 71.25 -15.0 80.5 -4.5 81.75" fill="#e58508" fill-rule="evenodd" stroke="none"/>
    <path d="M-86.75 17.5 L-87.25 16.85 -87.4 15.75 -84.5 5.35 -78.15 -11.0 -74.75 -15.4 -74.75 -15.5 -73.15 -17.9 -72.75 -18.4 -71.75 -19.9 -58.5 -32.25 -49.25 -39.5 -41.5 -44.5 -39.0 -45.25 -31.4 -54.25 -20.75 -64.75 -11.4 -71.0 Q-5.4 -74.25 -0.4 -73.65 3.5 -73.25 10.25 -68.0 L19.1 -59.5 26.6 -50.25 35.1 -38.65 45.1 -22.9 51.35 -18.75 63.1 -7.65 75.85 7.25 89.6 24.85 90.85 27.5 96.1 31.6 103.35 44.75 110.35 66.75 112.75 77.5 117.1 105.1 117.25 107.35 116.35 114.0 115.25 113.1 114.0 111.25 111.85 109.25 110.35 106.0 110.0 105.85 93.6 77.35 82.85 56.75 76.6 41.25 77.25 41.1 63.75 29.6 48.5 15.6 35.85 1.5 Q39.5 12.35 63.5 31.5 63.85 35.35 58.1 42.75 L51.6 48.35 43.25 52.85 33.6 55.75 29.75 56.25 31.35 60.5 31.25 61.75 29.85 64.35 24.5 70.6 17.25 74.75 -1.25 76.75 -19.4 73.35 -35.75 65.1 -47.15 53.25 -49.75 47.0 -50.4 46.25 -50.5 45.25 -50.65 44.85 -50.65 44.6 -50.75 43.25 -50.75 43.1 -50.9 42.6 -51.0 42.0 -51.0 41.6 -51.15 41.0 -51.15 40.85 -51.4 39.25 -51.5 36.35 -50.0 30.85 -54.25 26.35 -58.5 18.85 -60.15 12.0 -60.65 11.1 -60.4 4.0 -59.25 -4.0 -57.65 -10.4 -57.75 -10.5 Q-56.65 -10.5 -53.65 -13.65 L-49.25 -20.75 -56.4 -15.9 -64.5 -11.4 -65.25 -10.65 -72.75 -6.5 -73.75 -6.25 -74.25 -6.5 -73.5 -5.9 -78.5 1.6 -82.9 10.6 -84.75 13.6 -85.0 14.75 -86.75 17.5 M51.35 64.85 L53.6 70.1 55.0 76.1 54.75 81.25 54.35 81.5 54.6 81.75 Q50.25 92.5 31.75 96.25 12.75 99.5 6.75 91.1 L8.1 90.35 15.1 90.1 17.75 89.6 18.1 89.6 22.85 88.75 27.35 87.25 34.5 83.35 39.5 79.1 41.35 76.85 44.85 70.25 46.6 68.85 48.1 67.25 49.0 66.6 49.85 66.25 51.35 64.85 M-55.65 81.75 L-55.75 81.5 -55.9 81.25 Q-57.5 74.0 -51.25 62.25 L-51.25 63.85 -50.5 65.5 -47.9 68.85 -46.0 70.25 -43.9 74.6 -40.65 79.1 -35.5 83.35 Q-32.05 85.25 -28.65 87.1 L-23.75 88.75 -19.4 89.6 -19.0 89.6 -14.15 90.25 -9.15 90.35 -7.9 91.1 Q-13.15 99.75 -34.5 95.85 -51.75 92.1 -55.65 81.75 M4.6 -1.4 Q-5.25 12.35 -16.75 10.85 L-17.25 10.85 -19.4 10.35 -19.65 10.25 -22.0 9.6 Q-24.4 9.0 -27.25 6.6 L-30.0 2.6 -30.15 2.6 -30.9 8.0 -26.75 28.35 -26.9 29.1 -26.4 29.35 -22.65 35.85 -16.15 39.35 -9.4 40.0 -3.9 36.0 5.35 18.85 5.25 18.25 7.6 8.75 7.6 7.75 7.85 6.75 8.0 -6.75 4.6 -1.4" fill="#cecece" fill-opacity="0.0" fill-rule="evenodd" stroke="none"/>
    <path d="M115.25 113.1 L111.0 109.35 109.6 106.5 109.25 106.35 92.25 77.35 81.85 57.5 75.5 41.75 74.5 40.5 64.75 32.6 64.85 39.0 62.6 50.25 57.6 59.0 51.35 64.85 49.85 66.25 49.0 66.6 48.1 67.25 46.6 68.85 44.85 70.25 41.35 76.85 39.5 79.1 34.5 83.35 27.35 87.25 22.85 88.75 18.1 89.6 17.75 89.6 15.1 90.1 8.1 90.35 6.75 91.1 Q12.75 99.5 31.75 96.25 50.25 92.5 54.6 81.75 L54.35 81.5 54.75 81.25 54.6 81.75 54.75 82.35 52.1 88.1 49.35 91.5 Q42.1 97.6 32.25 99.25 L27.5 100.0 Q15.6 101.5 8.6 96.85 5.85 96.0 4.0 81.85 L3.6 81.5 -0.4 82.0 -5.15 81.5 -5.0 81.75 -5.0 81.85 -5.9 87.5 -6.4 89.25 Q-8.65 102.85 -28.5 100.0 L-33.25 99.25 Q-50.65 96.85 -55.65 81.75 -51.75 92.1 -34.5 95.85 -13.15 99.75 -7.9 91.1 L-9.15 90.35 -14.15 90.25 -19.0 89.6 -19.4 89.6 -23.75 88.75 -28.65 87.1 Q-32.05 85.25 -35.5 83.35 L-40.65 79.1 -43.9 74.6 -46.0 70.25 -47.9 68.85 -50.5 65.5 -51.25 63.85 -51.25 62.25 -46.9 54.75 -46.75 54.35 -50.0 48.25 -50.4 46.25 -49.75 47.0 -47.15 53.25 -35.75 65.1 -19.4 73.35 -1.25 76.75 17.25 74.75 24.5 70.6 29.85 64.35 31.25 61.75 31.35 60.5 29.75 56.25 33.6 55.75 43.25 52.85 51.6 48.35 58.1 42.75 Q63.85 35.35 63.5 31.5 39.5 12.35 35.85 1.5 L48.5 15.6 63.75 29.6 77.25 41.1 76.6 41.25 82.85 56.75 93.6 77.35 110.0 105.85 110.35 106.0 111.85 109.25 114.0 111.25 115.25 113.1 M-50.65 44.6 L-56.25 35.85 -60.15 23.6 -60.75 17.85 -60.65 11.1 -60.15 12.0 -58.5 18.85 -54.25 26.35 -50.0 30.85 -51.5 36.35 -51.4 39.25 -51.15 40.85 -51.15 41.0 -51.0 41.6 -51.0 42.0 -50.9 42.6 -50.75 43.1 -50.75 43.25 -50.65 44.6 M-57.75 -10.5 L-66.25 -6.4 -73.5 4.85 -79.4 12.6 Q-84.5 19.35 -86.75 17.5 L-85.0 14.75 -84.75 13.6 -82.9 10.6 -78.5 1.6 -73.5 -5.9 -74.25 -6.5 -73.75 -6.25 -72.75 -6.5 -65.25 -10.65 -64.5 -11.4 -56.4 -15.9 -49.25 -20.75 -53.65 -13.65 Q-56.65 -10.5 -57.75 -10.5 M4.6 -1.4 L8.0 -6.75 7.85 6.75 7.6 7.75 7.6 8.75 5.25 18.25 5.35 18.85 -3.9 36.0 -9.4 40.0 -16.15 39.35 -22.65 35.85 -26.4 29.35 -26.9 29.1 -26.75 28.35 -30.9 8.0 -30.15 2.6 -30.0 2.6 -27.25 6.6 Q-24.4 9.0 -22.0 9.6 L-19.65 10.25 -19.4 10.35 -17.25 10.85 -16.75 10.85 Q-5.25 12.35 4.6 -1.4" fill="#000000" fill-opacity="0.49803922" fill-rule="evenodd" stroke="none"/>
  </g>
</svg>
