<?xml version="1.0" encoding="UTF-8" standalone="no"?>
<svg xmlns:ffdec="https://www.free-decompiler.com/flash" xmlns:xlink="http://www.w3.org/1999/xlink" ffdec:objectType="shape" height="204.0px" width="184.75px" xmlns="http://www.w3.org/2000/svg">
  <g transform="matrix(1.0, 0.0, 0.0, 1.0, 83.25, 73.4)">
    <path d="M1.0 -1.5 L7.75 25.75 12.75 38.75 17.75 46.0 21.5 50.0 27.0 61.75 Q28.5 76.25 21.0 76.75 L11.25 81.0 3.75 81.25 -4.5 81.75 -16.25 80.0 -21.75 78.0 -36.0 69.25 -45.75 57.0 -46.5 55.5 -46.75 54.25 -47.0 54.25 -50.5 40.75 -51.0 40.0 -51.25 37.5 -51.5 37.0 -51.25 30.75 Q-49.5 31.25 -45.75 24.25 L-37.5 8.0 -34.5 -0.25 -31.75 5.0 Q-30.0 7.0 -24.5 8.75 L-24.0 9.0 -23.25 9.25 Q-11.0 12.5 1.0 -1.5 M-23.75 -30.25 L-24.75 -34.0 -23.5 -40.25 Q-23.0 -41.25 -18.25 -40.25 L-11.5 -36.75 -10.5 -36.75 -5.75 -35.75 3.75 -29.75 3.25 -26.25 0.25 -22.5 Q-6.25 -19.0 -14.0 -26.0 L-20.5 -26.5 Q-22.5 -27.25 -23.75 -30.25 M-11.5 -28.25 L-11.75 -26.0 -9.0 -24.0 -6.25 -24.75 -6.0 -27.25 -7.0 -28.0 -7.25 -28.25 -7.5 -28.25 -8.75 -29.0 -9.5 -29.0 -10.5 -28.75 -11.5 -28.25 M-18.25 -28.0 Q-16.0 -31.25 -18.0 -32.0 L-19.25 -33.0 -19.75 -33.25 -20.0 -33.5 -21.0 -33.25 -21.25 -33.0 -22.5 -31.25 -21.5 -29.0 -18.25 -28.0" fill="#ffffff" fill-rule="evenodd" stroke="none"/>
    <path d="M-18.25 -28.0 L-21.5 -29.0 -22.5 -31.25 -21.25 -33.0 -21.0 -33.25 -20.0 -33.5 -19.75 -33.25 -19.25 -33.0 -18.0 -32.0 Q-16.0 -31.25 -18.25 -28.0 M-11.5 -28.25 L-10.5 -28.75 -9.5 -29.0 -8.75 -29.0 -7.5 -28.25 -7.25 -28.25 -7.0 -28.0 -6.0 -27.25 -6.25 -24.75 -9.0 -24.0 -11.75 -26.0 -11.5 -28.25" fill="#000000" fill-rule="evenodd" stroke="none"/>
    <path d="M0.25 -22.5 Q11.25 -11.75 1.0 -1.5 -11.0 12.5 -23.25 9.25 L-24.0 9.0 -24.5 8.75 Q-30.0 7.0 -31.75 5.0 L-34.5 -0.25 Q-38.5 -5.5 -30.75 -23.0 L-30.0 -24.5 -27.25 -28.25 -23.75 -30.25 Q-22.5 -27.25 -20.5 -26.5 L-14.0 -26.0 Q-6.25 -19.0 0.25 -22.5 M21.0 76.75 Q42.75 76.0 52.25 66.25 63.25 85.75 38.0 98.0 2.0 107.75 3.75 81.25 L11.25 81.0 21.0 76.75 M-4.5 81.75 L-4.5 84.75 -6.75 92.25 Q-16.25 107.5 -49.25 92.75 L-54.0 86.5 -56.0 79.75 -55.0 71.5 -52.0 63.0 -47.0 54.25 -46.75 54.25 -46.5 55.5 -45.75 57.0 -36.0 69.25 -21.75 78.0 -16.25 80.0 -4.5 81.75" fill="#e58508" fill-rule="evenodd" stroke="none"/>
    <path d="M-82.75 10.75 L-83.15 10.5 -83.25 8.85 -79.65 -3.9 -76.5 -12.5 -74.65 -16.0 -71.5 -20.25 -71.5 -20.4 Q-63.15 -33.25 -37.5 -47.65 -16.0 -75.4 0.85 -73.25 6.6 -72.4 19.35 -58.25 L24.85 -51.25 42.1 -25.65 46.0 -18.4 50.6 -15.15 62.6 -2.65 74.6 12.75 89.1 33.25 Q91.5 37.6 91.1 38.5 L91.75 38.75 96.5 44.85 100.35 60.0 101.5 81.6 101.0 93.85 97.5 122.85 94.35 130.35 94.0 130.6 93.0 128.6 90.5 123.85 86.1 107.35 79.1 83.5 74.5 63.85 72.25 47.6 72.25 47.25 72.75 47.25 59.35 34.35 57.5 32.0 45.25 19.75 33.5 5.1 31.85 2.6 31.6 3.0 Q33.25 6.85 32.85 7.5 L33.5 7.85 41.25 18.0 61.5 38.5 Q52.5 56.6 25.35 58.6 L27.0 63.0 27.0 63.85 Q27.1 65.5 19.6 72.5 L12.75 75.75 10.5 76.1 -6.5 76.5 -24.5 71.35 -38.9 62.5 -48.9 50.25 -50.65 45.85 -51.75 42.6 -52.25 38.35 Q-51.75 37.75 -52.5 33.1 L-51.15 26.6 Q-54.5 24.0 -57.9 14.1 L-59.0 7.25 -58.15 -1.15 -57.15 -6.0 -57.25 -6.9 -55.4 -15.0 -55.5 -15.15 -52.65 -17.65 -48.5 -24.5 -54.75 -20.4 -71.0 -11.75 -71.65 -12.0 -71.0 -11.5 -76.0 -4.15 -82.75 10.75 M52.1 66.6 L53.5 69.6 55.0 75.75 54.75 81.25 54.35 81.5 54.6 81.75 Q50.25 92.5 31.75 96.25 12.75 99.5 6.75 91.1 L8.1 90.35 15.1 90.1 17.75 89.6 18.1 89.6 22.85 88.75 27.35 87.25 34.5 83.35 39.5 79.1 41.35 76.85 42.75 74.6 44.0 71.85 48.5 69.35 52.1 66.6 M-55.65 81.75 L-55.75 81.5 -55.9 81.25 Q-57.5 74.0 -51.25 62.25 L-51.25 63.85 -50.5 65.5 -47.9 68.85 -46.0 70.25 -43.9 74.6 -40.65 79.1 -35.5 83.35 Q-32.05 85.25 -28.65 87.1 L-23.75 88.75 -19.4 89.6 -19.0 89.6 -14.15 90.25 -9.15 90.35 -7.9 91.1 Q-13.15 99.75 -34.5 95.85 -51.75 92.1 -55.65 81.75 M4.75 -6.4 L0.1 -0.65 Q-13.65 13.25 -22.65 9.25 L-28.25 7.25 Q-32.0 4.75 -32.5 3.35 L-32.75 3.0 -32.9 3.0 -33.25 5.75 -30.15 26.1 -30.4 26.5 -26.75 33.5 -20.65 37.85 -14.4 39.0 Q-13.5 39.25 -8.65 35.75 L1.35 18.75 4.0 9.25 3.85 9.0 4.25 7.25 4.75 -6.4" fill="#cecece" fill-opacity="0.0" fill-rule="evenodd" stroke="none"/>
    <path d="M-82.75 10.75 L-76.0 -4.15 -71.0 -11.5 -71.65 -12.0 -71.0 -11.75 -54.75 -20.4 -48.5 -24.5 -52.65 -17.65 -55.5 -15.15 -62.5 -12.0 -69.0 -1.9 -79.75 11.0 -81.75 11.5 -82.75 10.75 M-59.0 7.25 L-57.9 14.1 Q-54.5 24.0 -51.15 26.6 L-52.5 33.1 Q-51.75 37.75 -52.25 38.35 L-55.5 31.6 -57.25 26.75 -59.15 13.75 -59.0 7.25 M-51.75 42.6 L-50.65 45.85 -51.65 44.0 -51.75 42.6 M-48.9 50.25 L-38.9 62.5 -24.5 71.35 -6.5 76.5 10.5 76.1 12.75 75.75 19.6 72.5 Q27.1 65.5 27.0 63.85 L27.0 63.0 25.35 58.6 Q52.5 56.6 61.5 38.5 L41.25 18.0 33.5 7.85 32.85 7.5 Q33.25 6.85 31.6 3.0 L31.85 2.6 33.5 5.1 45.25 19.75 57.5 32.0 59.35 34.35 72.75 47.25 72.25 47.25 72.25 47.6 74.5 63.85 79.1 83.5 86.1 107.35 90.5 123.85 93.0 128.6 89.85 124.25 79.25 87.75 73.35 63.1 71.5 48.1 71.25 47.5 64.1 41.1 64.1 44.35 61.1 55.5 55.35 64.0 52.1 66.6 48.5 69.35 44.0 71.85 42.75 74.6 41.35 76.85 39.5 79.1 34.5 83.35 27.35 87.25 22.85 88.75 18.1 89.6 17.75 89.6 15.1 90.1 8.1 90.35 6.75 91.1 Q12.75 99.5 31.75 96.25 50.25 92.5 54.6 81.75 L54.35 81.5 54.75 81.25 54.6 81.75 54.75 82.35 52.1 88.1 49.35 91.5 Q42.1 97.6 32.25 99.25 L27.5 100.0 Q15.6 101.5 8.6 96.85 5.85 96.0 4.0 81.85 L4.0 81.75 3.85 81.25 -5.0 81.85 -5.9 87.5 -6.4 89.25 Q-8.65 102.85 -28.5 100.0 L-33.25 99.25 Q-50.65 96.85 -55.65 81.75 -51.75 92.1 -34.5 95.85 -13.15 99.75 -7.9 91.1 L-9.15 90.35 -14.15 90.25 -19.0 89.6 -19.4 89.6 -23.75 88.75 -28.65 87.1 Q-32.05 85.25 -35.5 83.35 L-40.65 79.1 -43.9 74.6 -46.0 70.25 -47.9 68.85 -50.5 65.5 -51.25 63.85 -51.25 62.25 -47.0 55.0 -48.9 50.25 M4.75 -6.4 L4.25 7.25 3.85 9.0 4.0 9.25 1.35 18.75 -8.65 35.75 Q-13.5 39.25 -14.4 39.0 L-20.65 37.85 -26.75 33.5 -30.4 26.5 -30.15 26.1 -33.25 5.75 -32.9 3.0 -32.75 3.0 -32.5 3.35 Q-32.0 4.75 -28.25 7.25 L-22.65 9.25 Q-13.65 13.25 0.1 -0.65 L4.75 -6.4" fill="#000000" fill-opacity="0.49803922" fill-rule="evenodd" stroke="none"/>
  </g>
</svg>
