<?xml version="1.0" encoding="UTF-8" standalone="no"?>
<svg xmlns:ffdec="https://www.free-decompiler.com/flash" xmlns:xlink="http://www.w3.org/1999/xlink" ffdec:objectType="shape" height="208.8px" width="172.4px" xmlns="http://www.w3.org/2000/svg">
  <g transform="matrix(1.0, 0.0, 0.0, 1.0, 79.4, 74.3)">
    <path d="M-25.5 -31.75 L-26.0 -36.25 -24.5 -41.75 -19.5 -41.5 Q-14.5 -39.5 -14.5 -38.25 L-13.5 -37.5 -13.25 -37.5 -8.5 -36.5 1.75 -29.5 1.0 -26.0 -2.25 -22.5 -8.25 -21.75 Q-12.25 -22.25 -16.25 -27.0 L-22.5 -28.0 Q-24.0 -28.25 -25.5 -31.75 M-2.0 -1.75 L2.5 16.5 3.5 23.75 8.25 37.75 10.5 42.25 17.75 51.75 23.25 64.25 Q24.5 78.25 17.5 78.0 L8.25 81.25 3.75 81.5 -4.5 81.5 Q-29.0 80.75 -43.75 59.5 L-47.0 54.5 -47.25 54.5 -50.0 46.0 -51.5 35.5 -51.75 35.25 -51.5 27.75 -49.5 26.25 Q-50.75 25.0 -47.25 22.25 L-40.5 9.0 -36.75 -0.25 -35.25 2.75 -31.75 5.5 -27.5 7.5 Q-18.75 13.0 -2.0 -1.75 M-24.25 -33.0 L-23.75 -31.0 Q-18.75 -26.75 -20.25 -33.25 L-21.5 -34.5 -22.75 -34.75 -23.25 -34.25 -23.75 -34.0 -23.75 -33.75 -24.0 -33.5 -24.25 -33.0 M-11.25 -29.5 L-12.5 -29.5 -13.0 -29.25 -14.0 -29.0 -13.75 -28.0 -14.25 -26.75 -13.75 -26.0 Q-6.75 -23.0 -9.5 -28.25 L-9.75 -28.75 -11.25 -29.5" fill="#ffffff" fill-rule="evenodd" stroke="none"/>
    <path d="M-11.25 -29.5 L-9.75 -28.75 -9.5 -28.25 Q-6.75 -23.0 -13.75 -26.0 L-14.25 -26.75 -13.75 -28.0 -14.0 -29.0 -13.0 -29.25 -12.5 -29.5 -11.25 -29.5 M-24.25 -33.0 L-24.0 -33.5 -23.75 -33.75 -23.75 -34.0 -23.25 -34.25 -22.75 -34.75 -21.5 -34.5 -20.25 -33.25 Q-18.75 -26.75 -23.75 -31.0 L-24.25 -33.0" fill="#000000" fill-rule="evenodd" stroke="none"/>
    <path d="M-2.25 -22.5 Q8.5 -12.5 -2.0 -1.75 -18.75 13.0 -27.5 7.5 L-31.75 5.5 -35.25 2.75 -36.75 -0.25 -38.0 -3.25 -38.25 -9.75 -37.0 -15.5 -31.0 -27.0 -27.75 -30.5 -25.5 -31.75 Q-24.0 -28.25 -22.5 -28.0 L-16.25 -27.0 Q-12.25 -22.25 -8.25 -21.75 L-2.25 -22.5 M17.5 78.0 Q37.75 80.0 52.75 68.0 63.0 85.0 38.0 98.0 3.5 108.0 3.75 81.5 L8.25 81.25 17.5 78.0 M-4.5 81.5 L-4.5 84.75 -6.75 92.25 Q-16.25 107.5 -49.25 92.75 L-54.0 86.5 -56.0 79.75 -55.0 71.5 -52.0 63.0 -47.25 54.5 -47.0 54.5 -43.75 59.5 Q-29.0 80.75 -4.5 81.5" fill="#e58508" fill-rule="evenodd" stroke="none"/>
    <path d="M-53.25 -18.75 L-49.65 -23.75 -47.65 -27.5 -53.65 -23.75 -68.65 -16.25 -68.5 -16.0 -73.4 -8.75 -77.65 1.85 -77.75 3.0 -79.0 5.35 -79.4 4.1 -79.15 3.0 Q-74.25 -18.75 -69.15 -23.0 -58.9 -37.65 -36.25 -49.4 -9.4 -80.75 2.35 -72.65 15.0 -64.5 22.6 -53.0 L26.1 -48.4 42.35 -22.75 46.85 -14.0 51.0 -10.5 61.5 1.75 73.6 19.1 87.5 41.35 89.0 45.6 88.6 47.5 89.0 47.85 Q90.25 48.25 93.0 56.5 L92.0 71.35 85.6 92.85 80.25 104.85 67.5 129.0 61.85 134.5 61.5 134.5 60.75 131.5 60.85 130.6 60.0 127.1 61.0 108.0 60.75 107.6 61.6 84.85 62.25 81.0 63.75 62.35 64.6 59.75 64.5 58.85 66.1 52.1 66.75 51.1 54.75 38.1 41.0 21.6 40.1 21.0 29.6 6.0 28.25 3.5 Q29.0 13.35 58.6 44.6 50.25 59.25 21.35 60.25 L23.25 65.0 23.1 65.5 Q23.35 67.25 15.35 73.75 L7.6 76.75 -10.75 76.0 -28.5 69.35 -41.4 60.0 -42.4 59.0 -50.4 47.0 -50.5 46.75 -52.9 38.85 -52.9 32.5 -52.75 29.0 -51.65 22.85 Q-54.5 20.5 -56.9 10.85 L-57.25 4.35 -56.5 -4.65 -53.25 -18.75 M2.1 -6.4 L-1.9 -2.0 Q-4.5 2.75 -17.15 8.0 -22.15 9.35 -27.15 7.5 L-28.5 7.0 Q-30.2 6.2 -31.9 5.35 L-32.25 5.25 -32.65 4.85 -32.9 4.75 -35.0 2.85 -32.9 24.75 -29.4 32.1 -24.0 36.35 -17.65 38.0 -12.0 34.6 -2.9 19.85 -2.25 19.35 0.75 9.35 0.85 8.5 1.1 7.5 2.1 -6.4 M-55.65 81.75 L-55.75 81.5 -55.9 81.25 Q-57.5 74.0 -51.25 62.25 L-51.25 63.85 -50.5 65.5 -47.9 68.85 -46.0 70.25 -43.9 74.6 -40.65 79.1 -35.5 83.35 Q-32.05 85.25 -28.65 87.1 L-23.75 88.75 -19.4 89.6 -19.0 89.6 -14.15 90.25 -9.15 90.35 -7.9 91.1 Q-13.15 99.75 -34.5 95.85 -51.75 92.1 -55.65 81.75 M54.75 81.25 L54.35 81.5 54.6 81.75 Q50.25 92.5 31.75 96.25 12.75 99.5 6.75 91.1 L8.1 90.35 15.1 90.1 17.75 89.6 18.1 89.6 22.85 88.75 27.35 87.25 34.5 83.35 37.25 81.25 41.35 76.85 42.75 74.6 52.75 68.1 54.5 73.35 55.0 77.85 55.0 78.25 54.75 80.5 54.75 81.25" fill="#cecece" fill-opacity="0.0" fill-rule="evenodd" stroke="none"/>
    <path d="M-79.0 5.35 L-77.75 3.0 -77.65 1.85 -73.4 -8.75 -68.5 -16.0 -68.65 -16.25 -53.65 -23.75 -47.65 -27.5 -49.65 -23.75 -53.25 -18.75 -58.9 -16.5 -65.9 -5.65 -70.75 0.35 -75.9 5.75 -78.0 6.1 -79.0 5.35 M-57.25 4.35 L-56.9 10.85 Q-54.5 20.5 -51.65 22.85 L-52.75 29.0 -52.9 32.5 -56.4 22.75 -57.4 11.25 -57.25 4.35 M-50.4 47.0 L-42.4 59.0 -41.4 60.0 -28.5 69.35 -10.75 76.0 7.6 76.75 15.35 73.75 Q23.35 67.25 23.1 65.5 L23.25 65.0 21.35 60.25 Q50.25 59.25 58.6 44.6 29.0 13.35 28.25 3.5 L29.6 6.0 40.1 21.0 41.0 21.6 54.75 38.1 66.75 51.1 66.1 52.1 64.5 58.85 64.6 59.75 63.75 62.35 62.25 81.0 61.6 84.85 60.75 107.6 61.0 108.0 60.0 127.1 60.85 130.6 60.75 131.5 59.35 127.25 61.0 85.6 63.1 63.75 65.85 52.25 62.85 49.1 Q61.1 60.6 52.75 68.1 L42.75 74.6 41.35 76.85 37.25 81.25 34.5 83.35 27.35 87.25 22.85 88.75 18.1 89.6 17.75 89.6 15.1 90.1 8.1 90.35 6.75 91.1 Q12.75 99.5 31.75 96.25 50.25 92.5 54.6 81.75 L54.35 81.5 54.75 81.25 54.6 81.75 54.75 82.35 52.1 88.1 49.35 91.5 Q42.1 97.6 32.25 99.25 L27.5 100.0 Q15.6 101.5 8.6 96.85 5.85 96.0 4.0 81.85 L4.0 81.75 3.85 81.5 -5.15 81.35 -5.0 81.75 -5.0 81.85 -5.9 87.5 -6.0 87.75 -6.4 89.25 Q-8.65 102.85 -28.5 100.0 L-33.25 99.25 Q-50.65 96.85 -55.65 81.75 -51.75 92.1 -34.5 95.85 -13.15 99.75 -7.9 91.1 L-9.15 90.35 -14.15 90.25 -19.0 89.6 -19.4 89.6 -23.75 88.75 -28.65 87.1 Q-32.05 85.25 -35.5 83.35 L-40.65 79.1 -43.9 74.6 -46.0 70.25 -47.9 68.85 -50.5 65.5 -51.25 63.85 -51.25 62.25 -46.9 54.75 -50.4 47.0 M89.0 47.85 L88.6 47.5 89.0 45.6 89.0 47.85 M2.1 -6.4 L1.1 7.5 0.85 8.5 0.75 9.35 -2.25 19.35 -2.9 19.85 -12.0 34.6 -17.65 38.0 -24.0 36.35 -29.4 32.1 -32.9 24.75 -35.0 2.85 -32.9 4.75 -32.65 4.85 -32.25 5.25 -31.9 5.35 Q-30.2 6.2 -28.5 7.0 L-27.15 7.5 Q-22.15 9.35 -17.15 8.0 -4.5 2.75 -1.9 -2.0 L2.1 -6.4" fill="#000000" fill-opacity="0.49803922" fill-rule="evenodd" stroke="none"/>
  </g>
</svg>
