<?xml version="1.0" encoding="UTF-8" standalone="no"?>
<svg xmlns:ffdec="https://www.free-decompiler.com/flash" xmlns:xlink="http://www.w3.org/1999/xlink" ffdec:objectType="shape" height="199.65px" width="163.5px" xmlns="http://www.w3.org/2000/svg">
  <g transform="matrix(1.0, 0.0, 0.0, 1.0, 76.0, 73.55)">
    <path d="M-26.25 -32.75 L-26.75 -37.0 -25.0 -42.75 -21.0 -42.5 -15.75 -39.0 -14.75 -38.0 -14.5 -38.0 -9.25 -36.5 0.25 -29.5 -0.75 -25.75 -3.75 -22.75 Q-9.25 -19.5 -17.75 -27.75 L-23.25 -28.75 Q-26.75 -31.5 -26.25 -32.75 M-4.0 -2.0 L1.5 25.0 5.75 38.5 8.0 43.25 15.0 52.75 20.5 65.0 Q22.5 79.5 14.25 79.0 L3.75 82.0 -4.5 81.25 Q-30.5 80.5 -44.75 58.0 L-46.0 55.5 -46.5 54.75 -46.75 54.25 -47.0 54.25 -51.0 43.25 -51.75 32.0 -52.0 31.25 -51.5 25.5 -47.75 20.0 -38.25 -0.25 -35.0 3.75 -31.75 5.5 Q-21.25 12.5 -4.0 -2.0 M-22.5 -35.25 L-23.0 -35.5 -23.75 -36.0 -24.0 -35.5 -24.75 -35.0 -25.25 -34.5 -25.5 -33.75 -25.0 -32.0 Q-20.0 -27.75 -21.25 -33.75 L-21.75 -34.25 -22.5 -35.25 M-13.0 -30.0 L-15.5 -30.0 -16.0 -27.75 -15.5 -26.75 Q-8.75 -23.25 -11.5 -29.0 L-13.0 -30.0" fill="#ffffff" fill-rule="evenodd" stroke="none"/>
    <path d="M-13.0 -30.0 L-11.5 -29.0 Q-8.75 -23.25 -15.5 -26.75 L-16.0 -27.75 -15.5 -30.0 -13.0 -30.0 M-22.5 -35.25 L-21.75 -34.25 -21.25 -33.75 Q-20.0 -27.75 -25.0 -32.0 L-25.5 -33.75 -25.25 -34.5 -24.75 -35.0 -24.0 -35.5 -23.75 -36.0 -23.0 -35.5 -22.5 -35.25" fill="#000000" fill-rule="evenodd" stroke="none"/>
    <path d="M-3.75 -22.75 Q5.25 -9.75 -0.75 -5.25 L-4.0 -2.0 Q-21.25 12.5 -31.75 5.5 L-35.0 3.75 -38.25 -0.25 -40.0 -5.25 -39.5 -13.75 -33.75 -25.75 Q-28.25 -33.25 -26.25 -32.75 -26.75 -31.5 -23.25 -28.75 L-17.75 -27.75 Q-9.25 -19.5 -3.75 -22.75 M14.25 79.0 Q37.75 81.0 49.0 71.75 L38.0 98.0 Q3.5 107.75 3.75 82.0 L14.25 79.0 M-4.5 81.25 L-4.5 84.75 -6.75 92.25 Q-16.25 107.5 -49.25 92.75 L-54.0 86.5 -56.0 79.75 -55.0 71.5 -52.0 63.0 -47.0 54.25 -46.75 54.25 -46.5 54.75 -46.0 55.5 -44.75 58.0 Q-30.5 80.5 -4.5 81.25" fill="#e58508" fill-rule="evenodd" stroke="none"/>
    <path d="M-76.0 1.85 Q-74.5 -15.65 -67.0 -25.15 L-67.0 -25.25 Q-55.25 -40.75 -35.75 -50.15 L-35.5 -50.4 Q-14.75 -77.15 1.5 -73.0 L3.1 -72.25 8.35 -68.5 17.1 -59.75 25.85 -47.75 31.85 -38.5 42.6 -20.4 47.6 -10.5 49.75 -8.5 60.6 5.25 72.85 24.75 84.0 44.25 85.5 47.85 86.1 50.5 85.25 53.75 85.6 54.35 87.0 56.75 Q88.0 65.0 87.0 66.0 L81.35 78.5 68.35 95.5 59.35 104.6 37.35 123.0 29.6 126.1 30.0 122.0 30.35 120.6 30.1 120.5 30.5 119.85 Q30.2 118.4 30.75 116.95 L31.25 115.85 32.1 114.5 31.85 114.35 31.85 114.25 32.0 114.1 32.6 112.6 32.75 112.35 33.1 111.5 33.1 111.35 35.0 106.85 35.0 106.75 35.6 105.35 35.6 105.25 35.75 105.0 35.85 104.6 36.0 104.35 36.6 102.85 39.6 95.1 39.6 95.0 39.85 94.6 39.85 94.35 33.25 96.0 27.85 96.85 21.75 97.1 Q9.25 96.75 6.75 91.1 L8.1 90.35 15.1 90.1 17.75 89.6 18.1 89.6 22.85 88.75 27.35 87.25 34.5 83.35 39.5 79.1 41.35 76.85 41.75 76.25 49.5 71.75 55.25 59.6 60.75 51.85 50.85 40.1 36.75 21.85 26.75 6.0 25.35 3.25 25.25 5.75 25.85 7.6 31.35 16.85 32.85 18.6 34.0 21.1 34.6 21.5 45.75 36.1 46.35 36.5 46.5 37.25 46.85 37.25 47.85 38.85 56.1 48.75 Q47.1 61.1 18.6 61.35 L20.35 66.0 20.25 66.5 Q20.6 68.5 12.1 74.5 L4.25 77.1 -13.25 75.5 -28.65 69.1 -31.65 67.5 -44.0 57.25 -51.0 45.1 -51.15 44.85 -51.25 44.6 -53.15 37.1 -53.25 36.85 -53.15 28.6 -51.75 22.0 -51.75 20.25 -54.25 15.85 -54.15 15.1 -55.65 9.1 -56.15 8.1 -55.9 -0.25 -55.25 -6.5 -53.65 -15.0 -51.75 -21.15 -51.65 -21.25 -51.5 -21.75 -46.75 -29.5 -52.5 -26.15 -66.65 -19.25 -66.4 -19.0 -71.15 -12.4 -76.0 1.85 M-55.65 81.75 L-55.75 81.5 -55.9 81.25 Q-57.5 74.0 -51.25 62.25 L-51.25 63.85 -50.5 65.5 -47.9 68.85 -46.0 70.25 -43.9 74.6 -40.65 79.1 -35.5 83.35 Q-32.05 85.25 -28.65 87.1 L-23.75 88.75 -19.4 89.6 -19.0 89.6 -14.15 90.25 -9.15 90.35 -7.9 91.1 Q-13.15 99.75 -34.5 95.85 -51.75 92.1 -55.65 81.75 M-1.0 7.5 L0.1 -6.25 -3.75 -2.25 -9.5 2.5 -19.15 7.0 -22.25 7.6 -25.4 7.5 -29.25 6.5 -31.75 5.35 -36.0 2.75 -34.65 23.1 -34.15 23.6 -31.5 30.5 -26.0 35.25 -20.0 37.1 -14.75 34.35 -4.65 18.85 -1.4 9.35 -1.25 8.35 -1.0 7.5" fill="#cecece" fill-opacity="0.0" fill-rule="evenodd" stroke="none"/>
    <path d="M86.1 50.5 L86.0 53.6 85.6 54.35 85.25 53.75 86.1 50.5 M30.0 122.0 L30.1 120.5 30.0 118.5 30.75 116.95 Q30.2 118.4 30.5 119.85 L30.1 120.5 30.35 120.6 30.0 122.0 M31.25 115.85 L31.85 114.35 32.1 114.5 31.25 115.85 M36.6 102.85 L38.5 97.6 32.25 99.25 27.5 100.0 Q14.0 101.35 8.35 96.6 6.6 94.85 5.85 92.0 L3.75 81.85 -5.15 81.25 -5.0 81.75 -5.0 81.85 -5.9 87.5 -6.0 87.75 -6.4 89.25 Q-8.65 102.85 -28.5 100.0 L-33.25 99.25 Q-50.65 96.85 -55.65 81.75 -51.75 92.1 -34.5 95.85 -13.15 99.75 -7.9 91.1 L-9.15 90.35 -14.15 90.25 -19.0 89.6 -19.4 89.6 -23.75 88.75 -28.65 87.1 Q-32.05 85.25 -35.5 83.35 L-40.65 79.1 -43.9 74.6 -46.0 70.25 -47.9 68.85 -50.5 65.5 -51.25 63.85 -51.25 62.25 -46.75 54.5 -46.65 54.1 -47.0 54.0 -51.0 45.1 -44.0 57.25 -31.65 67.5 -28.65 69.1 -13.25 75.5 4.25 77.1 12.1 74.5 Q20.6 68.5 20.25 66.5 L20.35 66.0 18.6 61.35 Q47.1 61.1 56.1 48.75 L47.85 38.85 46.85 37.25 46.5 37.25 46.35 36.5 45.75 36.1 34.6 21.5 34.0 21.1 32.85 18.6 31.35 16.85 25.85 7.6 25.25 5.75 25.35 3.25 26.75 6.0 36.75 21.85 50.85 40.1 60.75 51.85 55.25 59.6 49.5 71.75 41.75 76.25 41.35 76.85 39.5 79.1 34.5 83.35 27.35 87.25 22.85 88.75 18.1 89.6 17.75 89.6 15.1 90.1 8.1 90.35 6.75 91.1 Q9.25 96.75 21.75 97.1 L27.85 96.85 33.25 96.0 39.85 94.35 39.85 94.6 39.6 95.0 39.6 95.1 36.6 102.85 M-53.15 28.6 L-55.5 20.25 -56.15 15.25 -56.15 8.1 -55.65 9.1 -54.15 15.1 -54.25 15.85 -51.75 20.25 -51.75 22.0 -53.15 28.6 M-51.75 -21.15 L-55.9 -19.5 -63.15 -8.65 -68.0 -2.75 -73.4 2.5 -75.15 2.6 -76.0 1.85 -71.15 -12.4 -66.4 -19.0 -66.65 -19.25 -52.5 -26.15 -46.75 -29.5 -51.5 -21.75 -51.65 -21.25 -51.75 -21.15 M-1.0 7.5 L-1.25 8.35 -1.4 9.35 -4.65 18.85 -14.75 34.35 -20.0 37.1 -26.0 35.25 -31.5 30.5 -34.15 23.6 -34.65 23.1 -36.0 2.75 -31.75 5.35 -29.25 6.5 -25.4 7.5 -22.25 7.6 -19.15 7.0 -9.5 2.5 -3.75 -2.25 0.1 -6.25 -1.0 7.5" fill="#000000" fill-opacity="0.49803922" fill-rule="evenodd" stroke="none"/>
  </g>
</svg>
