<?xml version="1.0" encoding="UTF-8" standalone="no"?>
<svg xmlns:ffdec="https://www.free-decompiler.com/flash" xmlns:xlink="http://www.w3.org/1999/xlink" ffdec:objectType="shape" height="184.8px" width="159.65px" xmlns="http://www.w3.org/2000/svg">
  <g transform="matrix(1.0, 0.0, 0.0, 1.0, 74.9, 73.55)">
    <path d="M-4.25 -22.75 Q-11.25 -19.75 -18.25 -28.0 L-24.25 -29.25 Q-27.0 -32.0 -26.75 -33.25 L-27.0 -38.0 -25.25 -43.25 -20.5 -42.5 -15.0 -38.25 -10.75 -37.25 -0.25 -29.25 -1.5 -25.5 -4.25 -22.75 M-38.75 -0.25 Q-24.25 15.5 -4.75 -2.0 L-0.75 15.75 0.25 24.25 4.75 38.75 7.0 43.5 13.75 52.5 19.25 65.0 Q20.3 78.1 15.3 79.25 14.35 79.45 13.25 79.25 L3.75 81.75 -4.5 81.5 -15.25 80.25 -29.75 74.0 -41.75 63.5 -46.0 55.5 -46.5 54.75 -46.75 54.25 -47.0 54.25 -49.0 50.0 -51.0 43.25 -51.75 30.75 -52.0 30.25 -52.0 30.0 -51.5 24.25 -50.0 23.0 -50.0 21.25 -48.0 19.5 -38.75 -0.25 M-22.75 -34.5 L-22.75 -35.5 -23.25 -35.75 -24.75 -35.75 -25.25 -35.5 -25.5 -35.25 -25.5 -35.0 -25.75 -34.5 -25.25 -32.0 -22.25 -30.5 Q-20.0 -32.25 -21.75 -34.25 L-22.75 -34.5 M-12.0 -29.25 L-13.5 -30.25 -14.5 -30.0 -15.0 -30.25 -16.25 -29.75 -16.0 -26.75 Q-8.75 -23.75 -12.0 -29.25" fill="#ffffff" fill-rule="evenodd" stroke="none"/>
    <path d="M-12.0 -29.25 Q-8.75 -23.75 -16.0 -26.75 L-16.25 -29.75 -15.0 -30.25 -14.5 -30.0 -13.5 -30.25 -12.0 -29.25 M-22.75 -34.5 L-21.75 -34.25 Q-20.0 -32.25 -22.25 -30.5 L-25.25 -32.0 -25.75 -34.5 -25.5 -35.0 -25.5 -35.25 -25.25 -35.5 -24.75 -35.75 -23.25 -35.75 -22.75 -35.5 -22.75 -34.5" fill="#000000" fill-rule="evenodd" stroke="none"/>
    <path d="M-4.25 -22.75 L0.5 -13.75 0.75 -9.0 0.0 -6.75 -4.75 -2.0 Q-24.25 15.5 -38.75 -0.25 -47.25 -12.25 -26.75 -33.25 -27.0 -32.0 -24.25 -29.25 L-18.25 -28.0 Q-11.25 -19.75 -4.25 -22.75 M15.3 79.25 L22.0 80.0 29.5 79.25 14.0 99.25 Q5.5 100.25 3.75 81.75 L13.25 79.25 Q14.35 79.45 15.3 79.25 M-4.5 81.5 L-4.5 84.75 -6.75 92.25 Q-16.25 107.5 -49.25 92.75 L-54.0 86.5 -56.0 79.75 -55.0 71.5 -52.0 63.0 -47.0 54.25 -46.75 54.25 -46.5 54.75 -46.0 55.5 -41.75 63.5 -29.75 74.0 -15.25 80.25 -4.5 81.5" fill="#e58508" fill-rule="evenodd" stroke="none"/>
    <path d="M-74.9 0.6 Q-72.4 -21.0 -66.0 -26.25 -60.0 -36.9 -35.5 -50.5 L-35.25 -50.75 Q-15.5 -76.65 1.25 -73.15 L2.85 -72.4 8.75 -68.15 16.85 -59.9 26.1 -47.0 31.75 -38.25 42.85 -19.15 47.85 -9.15 49.5 -7.5 59.35 5.25 71.25 24.35 83.25 46.1 84.75 51.0 83.6 54.1 82.5 55.0 83.25 56.1 Q85.85 58.35 82.85 68.1 L73.35 79.1 54.25 93.0 44.25 98.35 16.35 110.25 15.0 110.5 14.6 110.5 14.0 110.6 13.5 110.6 13.0 110.75 12.35 110.75 12.0 110.85 11.25 110.85 11.0 111.0 8.1 111.25 10.75 104.1 14.5 99.35 16.35 96.75 16.35 96.6 11.6 95.5 Q7.5 93.85 6.75 91.1 L8.1 90.35 15.1 90.1 17.75 89.6 18.1 89.6 22.75 88.75 22.85 88.5 22.85 88.35 27.1 82.85 27.25 82.6 29.6 79.6 29.5 79.5 30.35 78.6 34.35 73.35 34.75 73.0 35.1 72.5 48.6 56.85 48.75 56.75 51.25 53.85 57.0 49.5 49.0 39.6 33.85 19.5 25.85 5.6 25.5 5.5 24.0 2.25 Q23.5 3.75 24.0 6.1 L33.1 21.5 44.6 36.35 45.75 38.35 55.25 49.85 50.1 54.5 41.85 58.75 31.35 61.35 22.35 62.0 17.5 61.6 19.35 66.5 19.25 67.0 Q19.5 68.75 11.35 74.5 L3.85 77.0 2.5 77.1 -14.9 75.1 -31.65 67.75 -44.4 56.75 -50.9 44.85 -51.15 44.6 -51.25 44.35 -51.4 44.1 -52.0 42.6 -53.4 36.1 -53.5 31.5 Q-52.75 28.5 -53.15 27.0 L-52.75 25.1 -52.65 24.85 -52.65 24.5 -51.75 21.0 -51.75 19.35 -54.0 14.75 -55.75 7.25 -55.4 -1.4 -54.65 -8.25 -52.75 -17.65 -51.25 -21.9 -51.4 -21.9 -51.15 -22.4 -46.4 -30.4 -51.9 -27.4 -52.0 -27.0 -65.9 -20.4 -65.65 -20.0 -70.4 -13.15 -72.5 -7.5 -73.9 -1.9 -74.9 0.6 M-55.65 81.75 L-55.75 81.5 -55.9 81.25 Q-57.5 74.0 -51.25 62.25 L-51.25 63.85 -50.5 65.5 -47.9 68.85 -46.0 70.25 -43.9 74.6 -40.65 79.1 -35.5 83.35 Q-32.05 85.25 -28.65 87.1 L-23.75 88.75 -19.4 89.6 -19.0 89.6 -14.15 90.25 -9.15 90.35 -7.9 91.1 Q-13.15 99.75 -34.5 95.85 -51.75 92.1 -55.65 81.75 M-4.5 -2.4 Q-22.4 11.5 -30.75 5.75 L-31.75 5.35 -36.25 2.6 -36.4 2.6 -35.15 22.75 -34.75 23.0 -32.25 29.75 -27.0 34.75 -20.9 36.75 -15.4 33.75 -5.25 18.5 -2.15 9.35 -1.75 7.5 -0.65 -6.15 -4.5 -2.4" fill="#cecece" fill-opacity="0.0" fill-rule="evenodd" stroke="none"/>
    <path d="M84.75 51.0 L84.35 55.0 83.25 56.1 82.5 55.0 83.6 54.1 84.75 51.0 M14.5 99.35 L11.75 98.75 Q7.6 96.6 7.35 95.35 L5.85 92.1 4.75 87.75 4.0 81.85 1.6 81.85 -5.15 81.25 -5.0 81.75 -5.0 81.85 -5.9 87.5 -6.0 87.75 -6.4 89.25 Q-8.65 102.85 -28.5 100.0 L-33.25 99.25 Q-50.65 96.85 -55.65 81.75 -51.75 92.1 -34.5 95.85 -13.15 99.75 -7.9 91.1 L-9.15 90.35 -14.15 90.25 -19.0 89.6 -19.4 89.6 -23.75 88.75 -28.65 87.1 Q-32.05 85.25 -35.5 83.35 L-40.65 79.1 -43.9 74.6 -46.0 70.25 -47.9 68.85 -50.5 65.5 -51.25 63.85 -51.25 62.25 -46.75 54.5 -50.9 44.85 -44.4 56.75 -31.65 67.75 -14.9 75.1 2.5 77.1 3.85 77.0 11.35 74.5 Q19.5 68.75 19.25 67.0 L19.35 66.5 17.5 61.6 22.35 62.0 31.35 61.35 41.85 58.75 50.1 54.5 55.25 49.85 45.75 38.35 44.6 36.35 33.1 21.5 24.0 6.1 Q23.5 3.75 24.0 2.25 L25.5 5.5 25.85 5.6 33.85 19.5 49.0 39.6 57.0 49.5 51.25 53.85 48.75 56.75 48.6 56.85 35.1 72.5 34.75 73.0 34.35 73.35 30.35 78.6 29.5 79.5 29.6 79.6 27.25 82.6 27.1 82.85 22.85 88.35 22.85 88.5 22.75 88.75 18.1 89.6 17.75 89.6 15.1 90.1 8.1 90.35 6.75 91.1 Q7.5 93.85 11.6 95.5 L16.35 96.6 16.35 96.75 14.5 99.35 M-53.15 27.0 L-55.25 18.5 -55.75 14.35 -55.75 7.25 -54.0 14.75 -51.75 19.35 -51.75 21.0 -52.65 24.5 -52.65 24.85 -52.75 25.1 -53.15 27.0 M-51.4 -21.9 L-54.65 -20.75 -59.75 -12.75 -68.25 -2.4 -71.75 1.1 -74.0 1.35 -74.9 0.6 -73.9 -1.9 -72.5 -7.5 -70.4 -13.15 -65.65 -20.0 -65.9 -20.4 -52.0 -27.0 -51.9 -27.4 -46.4 -30.4 -51.15 -22.4 -51.4 -21.9 M-4.5 -2.4 L-0.65 -6.15 -1.75 7.5 -2.15 9.35 -5.25 18.5 -15.4 33.75 -20.9 36.75 -27.0 34.75 -32.25 29.75 -34.75 23.0 -35.15 22.75 -36.4 2.6 -36.25 2.6 -31.75 5.35 -30.75 5.75 Q-22.4 11.5 -4.5 -2.4" fill="#000000" fill-opacity="0.49803922" fill-rule="evenodd" stroke="none"/>
  </g>
</svg>
