<?xml version="1.0" encoding="UTF-8" standalone="no"?>
<svg xmlns:ffdec="https://www.free-decompiler.com/flash" xmlns:xlink="http://www.w3.org/1999/xlink" ffdec:objectType="shape" height="174.5px" width="160.5px" xmlns="http://www.w3.org/2000/svg">
  <g transform="matrix(1.0, 0.0, 0.0, 1.0, 75.25, 74.0)">
    <path d="M-26.5 -33.0 L-27.0 -37.5 -25.25 -43.0 -20.5 -42.5 Q-17.25 -41.5 -16.0 -39.0 L-15.0 -38.25 -14.75 -38.25 -14.0 -38.0 -10.75 -37.25 -0.25 -29.5 -1.25 -25.75 -4.25 -22.75 Q-11.25 -19.75 -18.25 -28.0 L-23.5 -29.0 Q-27.0 -31.75 -26.5 -33.0 M-4.5 -2.25 L-0.25 17.25 0.25 23.75 4.25 36.0 7.25 43.25 14.0 52.25 17.25 59.0 19.75 65.75 Q21.25 72.5 19.75 74.0 L13.75 79.0 3.75 81.75 -4.5 81.5 Q-23.25 82.25 -42.5 62.25 L-46.0 55.5 -46.5 54.75 -46.75 54.25 -47.0 54.25 -49.0 50.0 -51.0 43.25 -51.75 31.0 -52.0 30.5 -51.5 24.5 -48.0 19.75 -38.75 -0.25 -35.75 3.25 -31.25 5.75 Q-22.75 12.0 -4.5 -2.25 M-23.0 -35.75 L-23.5 -36.0 -24.5 -35.75 -24.75 -35.75 -25.5 -35.0 -25.75 -34.25 -25.25 -32.0 Q-20.75 -28.25 -21.5 -34.0 L-22.0 -34.5 -22.5 -35.25 -23.0 -35.75 M-11.75 -29.25 L-12.0 -29.25 -13.25 -30.25 -14.5 -30.25 -15.0 -30.0 -16.0 -29.75 -16.0 -27.0 Q-9.0 -23.25 -11.75 -29.0 L-11.75 -29.25" fill="#ffffff" fill-rule="evenodd" stroke="none"/>
    <path d="M-11.75 -29.25 L-11.75 -29.0 Q-9.0 -23.25 -16.0 -27.0 L-16.0 -29.75 -15.0 -30.0 -14.5 -30.25 -13.25 -30.25 -12.0 -29.25 -11.75 -29.25 M-23.0 -35.75 L-22.5 -35.25 -22.0 -34.5 -21.5 -34.0 Q-20.75 -28.25 -25.25 -32.0 L-25.75 -34.25 -25.5 -35.0 -24.75 -35.75 -24.5 -35.75 -23.5 -36.0 -23.0 -35.75" fill="#000000" fill-rule="evenodd" stroke="none"/>
    <path d="M-4.25 -22.75 Q6.25 -6.5 -4.5 -2.25 -22.75 12.0 -31.25 5.75 L-35.75 3.25 -38.75 -0.25 Q-45.0 -18.5 -26.5 -33.0 -27.0 -31.75 -23.5 -29.0 L-18.25 -28.0 Q-11.25 -19.75 -4.25 -22.75 M13.75 79.0 L14.0 79.25 4.75 87.5 3.75 81.75 13.75 79.0 M-4.5 81.5 L-4.5 84.75 -6.75 92.25 Q-16.25 107.5 -49.25 92.75 L-54.0 86.5 -56.0 79.75 -55.0 71.5 -52.0 63.0 -47.0 54.25 -46.75 54.25 -46.5 54.75 -46.0 55.5 -42.5 62.25 Q-23.25 82.25 -4.5 81.5 M25.25 93.75 L50.25 86.0 54.0 84.0 Q52.0 93.25 37.0 98.25 19.25 103.0 9.5 97.25 L25.25 93.75" fill="#e58508" fill-rule="evenodd" stroke="none"/>
    <path d="M-75.25 0.85 Q-72.75 -20.0 -66.25 -26.0 -60.4 -36.5 -35.65 -50.4 L-35.4 -50.65 Q-21.15 -68.15 -11.5 -72.15 -5.5 -75.75 2.85 -72.4 L9.1 -67.9 17.1 -59.65 25.1 -48.5 32.85 -36.65 42.35 -20.25 47.75 -9.65 49.75 -7.75 59.6 4.35 71.0 21.85 83.1 42.75 85.25 48.75 85.1 48.75 85.0 49.25 83.85 51.35 82.1 52.5 83.25 54.35 84.25 58.35 81.6 66.1 81.1 66.6 70.25 75.5 54.25 83.35 53.35 83.85 Q43.0 99.25 14.0 96.0 L9.35 97.1 9.25 97.25 8.75 97.25 7.35 97.6 7.25 97.6 0.25 97.5 -1.9 97.25 2.1 90.25 4.85 87.85 14.0 79.6 14.25 79.5 19.5 74.5 19.5 74.35 34.6 60.6 32.35 61.1 22.5 61.85 17.85 61.6 19.6 66.25 19.5 66.75 Q19.75 68.6 11.6 74.5 L4.0 77.0 2.6 77.1 -14.75 75.25 -31.4 67.85 -44.5 56.6 -51.15 44.6 -51.75 43.35 -53.25 36.5 -53.4 36.25 -53.15 27.5 -52.75 25.35 -52.65 25.1 -52.65 24.85 -51.75 21.25 -51.75 19.6 -54.0 15.6 -55.9 7.5 -54.75 -8.25 -53.0 -16.75 -51.4 -21.65 -51.5 -21.65 -51.15 -22.4 -46.5 -30.15 -52.0 -26.9 -66.0 -20.0 -65.75 -19.75 -70.5 -13.25 -73.5 -4.9 -74.25 -1.25 -75.25 0.85 M-55.65 81.75 L-55.75 81.5 -55.9 81.25 Q-57.5 74.0 -51.25 62.25 L-51.25 63.85 -50.5 65.5 -47.9 68.85 -46.0 70.25 -43.9 74.6 -40.65 79.1 -35.5 83.35 Q-32.05 85.25 -28.65 87.1 L-23.75 88.75 -19.4 89.6 -19.0 89.6 -14.15 90.25 -9.15 90.35 -7.9 91.1 Q-13.15 99.75 -34.5 95.85 -51.75 92.1 -55.65 81.75 M-4.25 -2.4 L-10.0 2.25 -15.4 5.0 -20.5 6.85 Q-25.9 8.1 -30.9 5.75 L-31.75 5.35 -36.15 2.75 -36.25 2.75 -34.9 21.85 -35.15 22.35 -32.0 30.0 -26.75 34.85 -20.65 36.85 -15.4 34.1 -5.25 18.85 -2.0 9.5 -1.9 8.6 -1.5 7.5 -0.4 -6.25 -4.25 -2.4 M54.25 45.75 L55.85 44.85 48.6 36.35 34.6 18.0 33.6 17.1 25.75 4.0 25.35 3.85 23.75 0.6 Q23.0 4.5 24.0 5.0 L33.5 20.25 34.1 20.6 39.35 27.75 44.5 33.85 45.25 35.35 54.25 45.75" fill="#cecece" fill-opacity="0.0" fill-rule="evenodd" stroke="none"/>
    <path d="M85.25 48.75 L85.0 49.25 85.1 50.1 85.0 50.35 84.75 52.75 83.25 54.35 82.1 52.5 83.85 51.35 85.0 49.25 85.1 48.75 85.25 48.75 M54.25 83.35 Q50.0 95.85 32.25 99.25 L27.5 100.0 Q13.6 101.0 9.25 97.25 L9.35 97.1 14.0 96.0 Q43.0 99.25 53.35 83.85 L54.25 83.35 M7.25 97.6 L6.6 97.85 0.25 97.5 7.25 97.6 M4.85 87.85 L4.0 81.85 -5.15 81.25 -5.0 81.75 -5.0 81.85 -5.9 87.5 -6.0 87.75 -6.4 89.25 Q-8.65 102.85 -28.5 100.0 L-33.25 99.25 Q-50.65 96.85 -55.65 81.75 -51.75 92.1 -34.5 95.85 -13.15 99.75 -7.9 91.1 L-9.15 90.35 -14.15 90.25 -19.0 89.6 -19.4 89.6 -23.75 88.75 -28.65 87.1 Q-32.05 85.25 -35.5 83.35 L-40.65 79.1 -43.9 74.6 -46.0 70.25 -47.9 68.85 -50.5 65.5 -51.25 63.85 -51.25 62.25 -46.75 54.5 -46.65 54.1 -49.25 49.35 -51.15 44.6 -44.5 56.6 -31.4 67.85 -14.75 75.25 2.6 77.1 4.0 77.0 11.6 74.5 Q19.75 68.6 19.5 66.75 L19.6 66.25 17.85 61.6 22.5 61.85 32.35 61.1 34.6 60.6 19.5 74.35 19.5 74.5 14.25 79.5 14.0 79.6 4.85 87.85 M-53.15 27.5 L-55.25 19.5 -55.9 14.5 -55.9 7.5 -54.0 15.6 -51.75 19.6 -51.75 21.25 -52.65 24.85 -52.65 25.1 -52.75 25.35 -53.15 27.5 M-51.5 -21.65 L-55.0 -20.4 -59.65 -13.0 -68.4 -2.25 -72.15 1.5 -74.4 1.75 -75.25 0.85 -74.25 -1.25 -73.5 -4.9 -70.5 -13.25 -65.75 -19.75 -66.0 -20.0 -52.0 -26.9 -46.5 -30.15 -51.15 -22.4 -51.5 -21.65 M-4.25 -2.4 L-0.4 -6.25 -1.5 7.5 -1.9 8.6 -2.0 9.5 -5.25 18.85 -15.4 34.1 -20.65 36.85 -26.75 34.85 -32.0 30.0 -35.15 22.35 -34.9 21.85 -36.25 2.75 -36.15 2.75 -31.75 5.35 -30.9 5.75 Q-25.9 8.1 -20.5 6.85 L-15.4 5.0 -10.0 2.25 -4.25 -2.4 M54.25 45.75 L45.25 35.35 44.5 33.85 39.35 27.75 34.1 20.6 33.5 20.25 24.0 5.0 Q23.0 4.5 23.75 0.6 L25.35 3.85 25.75 4.0 33.6 17.1 34.6 18.0 48.6 36.35 55.85 44.85 54.25 45.75" fill="#000000" fill-opacity="0.49803922" fill-rule="evenodd" stroke="none"/>
  </g>
</svg>
