<?xml version="1.0" encoding="UTF-8" standalone="no"?>
<svg xmlns:ffdec="https://www.free-decompiler.com/flash" xmlns:xlink="http://www.w3.org/1999/xlink" ffdec:objectType="shape" height="174.5px" width="163.25px" xmlns="http://www.w3.org/2000/svg">
  <g transform="matrix(1.0, 0.0, 0.0, 1.0, 76.15, 74.0)">
    <path d="M-26.25 -32.75 L-26.75 -37.5 -25.0 -42.75 -21.25 -42.5 Q-18.25 -42.0 -15.5 -38.75 L-14.5 -38.0 -9.25 -36.5 0.25 -29.5 -0.5 -26.0 -3.75 -22.5 Q-11.25 -20.0 -17.75 -27.75 L-23.75 -28.75 Q-26.5 -31.5 -26.25 -32.75 M-4.0 -2.0 L-2.75 1.5 1.25 24.25 6.5 40.0 Q16.5 51.75 20.25 65.25 L0.5 81.75 -4.5 81.25 Q-34.75 77.5 -44.25 59.0 L-46.0 55.5 -46.5 55.0 -46.75 54.25 -47.0 54.25 -51.0 43.0 -51.75 32.25 -52.0 31.5 -51.5 25.25 -50.0 24.0 Q-50.75 22.75 -46.75 18.5 L-46.75 17.25 -40.5 5.5 -38.25 -0.5 -35.0 3.75 -29.5 6.5 Q-22.75 12.25 -4.0 -2.0 M-25.25 -34.0 L-24.75 -31.25 -21.75 -30.0 -20.5 -32.0 -21.5 -34.25 -22.0 -34.5 -22.5 -35.25 -23.0 -35.5 -24.25 -35.5 -25.0 -34.75 -25.25 -34.0 M-13.0 -30.0 L-14.5 -30.0 Q-16.25 -30.25 -15.5 -26.75 L-13.0 -25.0 Q-8.5 -26.0 -11.25 -29.0 L-13.0 -30.0" fill="#ffffff" fill-rule="evenodd" stroke="none"/>
    <path d="M-13.0 -30.0 L-11.25 -29.0 Q-8.5 -26.0 -13.0 -25.0 L-15.5 -26.75 Q-16.25 -30.25 -14.5 -30.0 L-13.0 -30.0 M-25.25 -34.0 L-25.0 -34.75 -24.25 -35.5 -23.0 -35.5 -22.5 -35.25 -22.0 -34.5 -21.5 -34.25 -20.5 -32.0 -21.75 -30.0 -24.75 -31.25 -25.25 -34.0" fill="#000000" fill-rule="evenodd" stroke="none"/>
    <path d="M-3.75 -22.5 Q7.25 -9.75 -4.0 -2.0 -22.75 12.25 -29.5 6.5 L-35.0 3.75 -38.25 -0.5 -40.0 -5.5 -39.25 -14.25 Q-33.75 -29.0 -26.25 -32.75 -26.5 -31.5 -23.75 -28.75 L-17.75 -27.75 Q-11.25 -20.0 -3.75 -22.5 M-4.5 81.25 L-4.5 84.75 -6.75 92.25 Q-16.25 107.5 -49.25 92.75 L-54.0 86.5 -56.0 79.75 -55.0 71.5 -52.0 63.0 -47.0 54.25 -46.75 54.25 -46.5 55.0 -46.0 55.5 -44.25 59.0 Q-34.75 77.5 -4.5 81.25 M5.75 89.0 L24.0 86.0 47.0 80.25 55.25 77.25 Q56.25 93.25 33.25 99.25 3.75 103.25 5.0 89.0 L5.75 89.0" fill="#e58508" fill-rule="evenodd" stroke="none"/>
    <path d="M-76.15 2.0 Q-73.9 -17.75 -67.15 -25.0 L-67.15 -25.15 Q-55.4 -40.5 -35.75 -50.15 L-35.5 -50.4 -29.5 -57.65 -22.15 -64.75 -16.25 -69.15 Q-6.65 -76.25 1.5 -73.0 L3.1 -72.25 8.35 -68.5 17.0 -59.9 26.0 -47.65 32.85 -37.0 42.75 -20.25 47.35 -11.15 49.85 -9.0 61.25 3.75 72.1 18.85 85.5 39.5 87.0 44.0 86.85 44.5 85.85 46.35 83.75 47.35 85.25 50.1 86.1 53.6 83.0 61.6 71.1 70.0 55.1 76.75 55.1 77.85 54.85 80.1 54.85 80.35 Q49.85 93.0 34.75 95.6 11.5 99.75 6.75 91.1 L8.1 90.35 15.1 90.1 17.75 89.6 18.1 89.6 22.85 88.75 27.35 87.25 31.1 85.35 34.1 83.35 34.5 83.35 35.75 83.0 5.6 88.75 -1.75 88.25 -2.4 88.25 -2.9 88.1 -3.4 88.1 -3.25 87.75 -2.4 86.85 -2.4 86.35 0.75 81.6 7.35 76.25 Q4.6 78.15 -13.5 75.5 L-30.5 68.35 -44.0 57.25 -44.65 55.6 -45.0 55.5 -51.0 45.1 -51.15 44.85 -53.15 37.25 -53.25 37.0 -53.15 28.75 -51.75 22.1 -51.75 20.35 -54.25 16.0 -56.0 8.75 -56.0 0.1 -55.15 -8.0 -53.4 -16.4 -51.75 -21.0 -51.9 -21.0 -51.65 -21.5 -46.75 -29.5 -52.5 -26.15 -66.75 -19.15 -66.5 -18.9 -71.25 -12.0 -73.5 -6.4 -75.15 -0.25 -76.15 2.0 M-55.65 81.75 L-55.75 81.5 -55.9 81.25 Q-57.5 74.0 -51.25 62.25 L-51.25 63.85 -50.5 65.5 -47.9 68.85 -46.0 70.25 -43.9 74.6 -40.65 79.1 -35.5 83.35 Q-32.05 85.25 -28.65 87.1 L-23.75 88.75 -19.4 89.6 -19.0 89.6 -14.15 90.25 -9.15 90.35 -7.9 91.1 Q-13.15 99.75 -34.5 95.85 -51.75 92.1 -55.65 81.75 M-0.9 7.5 L0.25 -6.25 -3.65 -2.25 -9.15 2.35 -14.65 5.25 -19.0 7.0 Q-21.65 7.85 -24.9 7.6 L-29.25 6.5 -29.5 6.35 -29.9 6.25 -30.15 6.1 Q-30.95 5.75 -31.75 5.35 L-36.0 2.75 -34.5 23.25 -34.0 23.75 -31.4 30.6 -26.0 35.25 -19.9 37.1 -14.75 34.5 -4.5 18.85 -1.25 9.35 -1.15 8.5 -0.9 7.5 M48.5 30.75 L46.6 28.1 33.75 13.35 24.1 -1.15 23.85 2.25 34.25 17.5 45.6 30.35 45.85 31.1 54.6 40.6 56.75 39.75 48.5 30.75 M22.25 61.6 L18.75 61.25 20.35 65.6 25.5 61.35 22.25 61.6" fill="#cecece" fill-opacity="0.0" fill-rule="evenodd" stroke="none"/>
    <path d="M87.0 44.0 L87.1 44.0 87.0 45.75 86.85 46.35 86.75 48.1 85.25 50.1 83.75 47.35 85.85 46.35 86.85 44.5 87.0 44.0 M54.85 80.35 Q53.35 94.35 32.25 99.25 L27.5 100.0 Q7.35 102.85 5.1 89.1 L-1.75 88.25 5.6 88.75 35.75 83.0 34.5 83.35 34.1 83.35 31.1 85.35 27.35 87.25 22.85 88.75 18.1 89.6 17.75 89.6 15.1 90.1 8.1 90.35 6.75 91.1 Q11.5 99.75 34.75 95.6 49.85 93.0 54.85 80.35 M0.75 81.6 L-5.15 81.25 -5.0 81.75 -5.0 81.85 -5.9 87.5 -6.4 89.25 Q-8.65 102.85 -28.5 100.0 L-33.25 99.25 Q-50.65 96.85 -55.65 81.75 -51.75 92.1 -34.5 95.85 -13.15 99.75 -7.9 91.1 L-9.15 90.35 -14.15 90.25 -19.0 89.6 -19.4 89.6 -23.75 88.75 -28.65 87.1 Q-32.05 85.25 -35.5 83.35 L-40.65 79.1 -43.9 74.6 -46.0 70.25 -47.9 68.85 -50.5 65.5 -51.25 63.85 -51.25 62.25 -46.75 54.5 -51.0 45.1 -45.0 55.5 -44.65 55.6 -44.0 57.25 -30.5 68.35 -13.5 75.5 Q4.6 78.15 7.35 76.25 L0.75 81.6 M-53.15 28.75 L-55.5 20.5 -56.25 14.75 -56.0 8.75 -54.25 16.0 -51.75 20.35 -51.75 22.1 -53.15 28.75 M-51.9 -21.0 L-56.0 -19.4 -63.65 -8.0 -69.4 -1.25 Q-74.0 4.6 -76.15 2.0 L-75.15 -0.25 -73.5 -6.4 -71.25 -12.0 -66.5 -18.9 -66.75 -19.15 -52.5 -26.15 -46.75 -29.5 -51.65 -21.5 -51.9 -21.0 M-0.9 7.5 L-1.15 8.5 -1.25 9.35 -4.5 18.85 -14.75 34.5 -19.9 37.1 -26.0 35.25 -31.4 30.6 -34.0 23.75 -34.5 23.25 -36.0 2.75 -31.75 5.35 Q-30.95 5.75 -30.15 6.1 L-29.9 6.25 -29.5 6.35 -29.25 6.5 -24.9 7.6 Q-21.65 7.85 -19.0 7.0 L-14.65 5.25 -9.15 2.35 -3.65 -2.25 0.25 -6.25 -0.9 7.5 M48.5 30.75 L56.75 39.75 54.6 40.6 45.85 31.1 45.6 30.35 34.25 17.5 23.85 2.25 24.1 -1.15 33.75 13.35 46.6 28.1 48.5 30.75 M22.25 61.6 L25.5 61.35 20.35 65.6 18.75 61.25 22.25 61.6" fill="#000000" fill-opacity="0.49803922" fill-rule="evenodd" stroke="none"/>
  </g>
</svg>
