<?xml version="1.0" encoding="UTF-8" standalone="no"?>
<svg xmlns:ffdec="https://www.free-decompiler.com/flash" xmlns:xlink="http://www.w3.org/1999/xlink" ffdec:objectType="shape" height="174.85px" width="169.15px" xmlns="http://www.w3.org/2000/svg">
  <g transform="matrix(1.0, 0.0, 0.0, 1.0, 77.65, 74.1)">
    <path d="M-25.75 -32.25 L-26.5 -36.0 -24.75 -42.25 -20.5 -42.0 Q-17.25 -41.5 -15.0 -38.5 L-14.0 -37.75 -13.5 -37.75 -13.0 -37.5 -8.75 -36.5 1.0 -29.5 0.0 -25.75 -3.0 -22.5 Q-10.0 -19.75 -17.0 -27.25 L-23.0 -28.5 Q-25.25 -29.25 -25.75 -32.25 M-3.0 -1.5 L1.25 15.75 2.0 23.25 7.75 39.75 16.5 53.0 6.5 60.75 Q2.0 65.5 2.75 66.75 L10.5 68.0 22.0 66.75 Q23.0 78.75 16.0 78.5 L5.75 81.75 3.75 81.75 -4.5 81.5 Q-31.0 79.75 -43.75 59.5 L-47.0 54.25 -50.25 45.5 -51.5 34.25 -52.0 33.5 -52.0 33.0 -51.5 26.5 -47.5 21.25 -37.5 0.0 -33.75 4.5 -28.5 7.0 Q-20.75 12.75 -3.0 -1.5 M-21.5 -34.5 L-22.0 -35.0 -22.5 -35.25 -23.0 -35.0 -23.75 -35.0 -24.5 -34.25 -24.5 -34.0 -24.75 -33.5 -24.25 -31.0 Q-19.25 -27.5 -20.5 -33.25 L-21.0 -33.75 -21.5 -34.5 M-12.0 -29.75 L-13.5 -29.75 -14.75 -29.25 -15.0 -27.0 -13.25 -25.0 -9.75 -25.25 Q-8.5 -28.5 -10.25 -28.5 L-10.75 -29.0 -12.0 -29.75" fill="#ffffff" fill-rule="evenodd" stroke="none"/>
    <path d="M-12.0 -29.75 L-10.75 -29.0 -10.25 -28.5 Q-8.5 -28.5 -9.75 -25.25 L-13.25 -25.0 -15.0 -27.0 -14.75 -29.25 -13.5 -29.75 -12.0 -29.75 M-21.5 -34.5 L-21.0 -33.75 -20.5 -33.25 Q-19.25 -27.5 -24.25 -31.0 L-24.75 -33.5 -24.5 -34.0 -24.5 -34.25 -23.75 -35.0 -23.0 -35.0 -22.5 -35.25 -22.0 -35.0 -21.5 -34.5" fill="#000000" fill-rule="evenodd" stroke="none"/>
    <path d="M-3.0 -22.5 Q7.75 -11.5 -3.0 -1.5 -20.75 12.75 -28.5 7.0 L-33.75 4.5 -37.5 0.0 Q-44.5 -14.5 -25.75 -32.25 -25.25 -29.25 -23.0 -28.5 L-17.0 -27.25 Q-10.0 -19.75 -3.0 -22.5 M16.0 78.5 Q36.0 81.5 53.0 68.5 60.0 91.25 38.0 98.0 3.5 108.0 3.75 81.75 L5.75 81.75 16.0 78.5 M-4.5 81.5 L-4.5 84.75 -6.75 92.25 Q-16.25 107.5 -49.25 92.75 L-54.0 86.5 -56.0 79.75 -55.0 71.5 -52.0 63.0 -47.0 54.25 -43.75 59.5 Q-31.0 79.75 -4.5 81.5" fill="#e58508" fill-rule="evenodd" stroke="none"/>
    <path d="M-77.65 3.6 Q-74.15 -19.0 -68.25 -23.75 L-68.25 -23.9 Q-55.9 -40.15 -36.15 -49.65 L-35.9 -49.9 Q-14.25 -76.15 -0.65 -73.9 L2.35 -72.65 8.85 -68.25 17.1 -60.0 24.85 -49.65 31.1 -40.25 42.5 -21.65 46.25 -14.25 48.6 -13.0 59.6 -4.0 73.75 10.0 89.35 27.25 91.35 31.0 90.35 32.5 88.5 32.75 90.6 36.35 Q92.6 39.35 88.6 46.35 L77.35 52.85 55.35 60.5 44.0 62.85 12.35 67.1 2.75 66.5 10.75 68.0 12.35 68.0 21.25 66.85 Q21.25 68.35 13.85 74.1 L6.25 76.85 -12.5 75.6 -29.4 69.0 -43.15 58.35 -48.65 49.0 -50.65 46.25 -50.75 46.0 -50.9 45.75 -52.75 39.0 -52.9 38.6 -52.9 38.5 -53.15 37.75 -52.9 31.1 -53.15 30.5 -52.75 30.25 -52.75 27.35 -51.65 22.75 -51.75 21.75 -51.75 21.6 -54.5 17.0 -54.4 16.25 -56.65 9.25 -56.65 1.1 -55.9 -5.9 -54.4 -13.5 -52.5 -19.9 -47.15 -28.5 -53.15 -24.9 -67.75 -17.75 -67.5 -17.4 -72.25 -10.65 -76.4 0.25 -76.5 1.35 -77.65 3.6 M53.0 68.5 L54.6 73.35 55.1 77.85 54.85 80.1 54.85 80.35 Q49.85 93.0 34.75 95.6 11.5 99.75 6.75 91.1 L8.1 90.35 15.1 90.1 17.75 89.6 18.1 89.6 22.85 88.75 27.35 87.25 34.5 83.35 39.5 79.1 41.35 76.85 42.25 75.35 53.0 68.5 M-55.65 81.75 L-55.75 81.5 -55.9 81.25 Q-57.5 74.0 -51.25 62.25 L-51.25 63.85 -50.5 65.5 -47.9 68.85 -46.0 70.25 -43.9 74.6 -40.65 79.1 -35.5 83.35 Q-32.05 85.25 -28.65 87.1 L-23.75 88.75 -19.4 89.6 -19.0 89.6 -14.15 90.25 -9.15 90.35 -7.9 91.1 Q-13.15 99.75 -34.5 95.85 -51.75 92.1 -55.65 81.75 M25.25 -1.5 L29.1 2.85 39.0 12.75 41.25 14.25 53.85 25.25 56.75 27.25 60.35 26.0 51.25 18.6 49.5 16.75 35.25 4.6 25.25 -6.0 Q24.75 -2.0 25.25 -1.5 M-8.25 2.75 L-14.0 5.85 -18.0 7.5 Q-20.25 8.35 -23.5 8.1 L-28.4 7.0 -31.25 5.75 -31.5 5.6 -31.75 5.5 -32.0 5.25 -33.5 4.5 -35.65 2.6 -33.75 24.0 -33.25 24.5 -30.5 31.25 -24.9 35.85 -18.75 37.6 -13.9 35.0 -12.4 33.1 -3.65 19.5 -0.25 9.35 -0.15 8.35 0.1 7.5 1.1 -6.25 -2.75 -2.0 -8.25 2.75" fill="#cecece" fill-opacity="0.0" fill-rule="evenodd" stroke="none"/>
    <path d="M91.35 31.0 L91.5 34.5 90.6 36.35 88.5 32.75 90.35 32.5 91.35 31.0 M88.6 46.35 L85.85 48.35 75.5 54.35 59.25 60.0 57.5 63.35 53.0 68.5 42.25 75.35 41.35 76.85 39.5 79.1 34.5 83.35 27.35 87.25 22.85 88.75 18.1 89.6 17.75 89.6 15.1 90.1 8.1 90.35 6.75 91.1 Q11.5 99.75 34.75 95.6 49.85 93.0 54.85 80.35 53.35 94.35 32.25 99.25 L27.5 100.0 Q15.6 101.5 8.6 96.85 5.85 96.0 4.0 81.85 L4.0 81.75 3.85 81.6 -5.15 81.25 -5.0 81.75 -5.0 81.85 -5.9 87.5 -6.0 87.75 -6.4 89.25 Q-8.65 102.85 -28.5 100.0 L-33.25 99.25 Q-50.65 96.85 -55.65 81.75 -51.75 92.1 -34.5 95.85 -13.15 99.75 -7.9 91.1 L-9.15 90.35 -14.15 90.25 -19.0 89.6 -19.4 89.6 -23.75 88.75 -28.65 87.1 Q-32.05 85.25 -35.5 83.35 L-40.65 79.1 -43.9 74.6 -46.0 70.25 -47.9 68.85 -50.5 65.5 -51.25 63.85 -51.25 62.25 -46.75 54.6 -48.5 51.5 -50.65 46.25 -48.65 49.0 -43.15 58.35 -29.4 69.0 -12.5 75.6 6.25 76.85 13.85 74.1 Q21.25 68.35 21.25 66.85 L12.35 68.0 10.75 68.0 2.75 66.5 12.35 67.1 44.0 62.85 55.35 60.5 77.35 52.85 88.6 46.35 M-53.15 30.5 L-55.9 21.85 -56.65 16.35 -56.65 9.25 -54.4 16.25 -54.5 17.0 -51.75 21.6 -51.75 21.75 -51.65 22.75 -52.75 27.35 -52.75 30.25 -53.15 30.5 M-52.5 -19.9 L-57.5 -17.9 -65.9 -5.4 -72.9 2.5 Q-76.0 5.85 -77.65 3.6 L-76.5 1.35 -76.4 0.25 -72.25 -10.65 -67.5 -17.4 -67.75 -17.75 -53.15 -24.9 -47.15 -28.5 -52.5 -19.9 M25.25 -1.5 Q24.75 -2.0 25.25 -6.0 L35.25 4.6 49.5 16.75 51.25 18.6 60.35 26.0 56.75 27.25 53.85 25.25 41.25 14.25 39.0 12.75 29.1 2.85 25.25 -1.5 M-8.25 2.75 L-2.75 -2.0 1.1 -6.25 0.1 7.5 -0.15 8.35 -0.25 9.35 -3.65 19.5 -12.4 33.1 -13.9 35.0 -18.75 37.6 -24.9 35.85 -30.5 31.25 -33.25 24.5 -33.75 24.0 -35.65 2.6 -33.5 4.5 -32.0 5.25 -31.75 5.5 -31.5 5.6 -31.25 5.75 -28.4 7.0 -23.5 8.1 Q-20.25 8.35 -18.0 7.5 L-14.0 5.85 -8.25 2.75" fill="#000000" fill-opacity="0.49803922" fill-rule="evenodd" stroke="none"/>
  </g>
</svg>
