<?xml version="1.0" encoding="UTF-8" standalone="no"?>
<svg xmlns:ffdec="https://www.free-decompiler.com/flash" xmlns:xlink="http://www.w3.org/1999/xlink" ffdec:objectType="shape" height="174.25px" width="176.1px" xmlns="http://www.w3.org/2000/svg">
  <g transform="matrix(1.0, 0.0, 0.0, 1.0, 79.75, 73.75)">
    <path d="M-25.25 -31.75 L-25.75 -36.25 -24.25 -41.5 -20.0 -41.5 Q-16.5 -40.75 -14.25 -38.25 L-13.25 -37.25 -12.25 -37.25 -9.0 -36.75 2.0 -29.5 1.25 -26.0 -2.0 -22.5 Q-9.0 -19.5 -16.25 -26.75 L-22.0 -27.75 Q-24.0 -28.0 -25.25 -31.75 M-1.75 -1.75 L2.75 16.25 3.5 23.25 8.75 38.0 13.0 45.25 18.0 51.25 21.75 59.75 18.0 63.5 15.0 69.75 24.25 70.25 Q23.0 75.5 21.5 76.5 L17.5 78.0 7.5 81.5 3.75 81.5 -4.5 81.5 Q-29.0 80.75 -43.75 59.5 L-47.0 54.5 -47.25 54.5 -50.0 46.0 -51.25 36.25 -51.75 35.75 -51.5 27.75 -49.75 26.75 Q-50.75 25.5 -46.5 21.25 L-46.25 19.5 -45.75 19.75 -40.25 8.75 -36.5 0.0 -36.0 1.0 -31.5 5.75 -27.0 7.75 Q-18.0 12.75 -3.0 -0.5 L-1.75 -1.75 M-19.75 -32.75 L-20.0 -33.25 -21.25 -34.5 -22.25 -34.5 -22.75 -34.25 -23.5 -33.75 -24.0 -32.25 -23.5 -30.75 -23.25 -30.25 Q-18.5 -27.0 -19.75 -32.75 M-12.75 -29.25 Q-14.5 -29.5 -13.75 -26.25 L-11.0 -24.5 Q-6.25 -25.0 -9.5 -28.5 L-11.0 -29.5 -12.25 -29.5 -12.75 -29.25" fill="#ffffff" fill-rule="evenodd" stroke="none"/>
    <path d="M-12.75 -29.25 L-12.25 -29.5 -11.0 -29.5 -9.5 -28.5 Q-6.25 -25.0 -11.0 -24.5 L-13.75 -26.25 Q-14.5 -29.5 -12.75 -29.25 M-19.75 -32.75 Q-18.5 -27.0 -23.25 -30.25 L-23.5 -30.75 -24.0 -32.25 -23.5 -33.75 -22.75 -34.25 -22.25 -34.5 -21.25 -34.5 -20.0 -33.25 -19.75 -32.75" fill="#000000" fill-rule="evenodd" stroke="none"/>
    <path d="M-2.0 -22.5 Q8.0 -8.5 0.75 -4.5 L-1.75 -1.75 -3.0 -0.5 Q-18.0 12.75 -27.0 7.75 L-31.5 5.75 -36.0 1.0 -36.5 0.0 Q-41.75 -8.5 -31.25 -26.0 L-31.0 -26.5 -28.5 -29.5 -25.25 -31.75 Q-24.0 -28.0 -22.0 -27.75 L-16.25 -26.75 Q-9.0 -19.5 -2.0 -22.5 M17.5 78.0 Q38.75 79.5 52.75 67.75 59.5 93.5 37.25 98.25 18.5 102.75 10.75 98.25 5.5 98.25 3.75 81.5 L7.5 81.5 17.5 78.0 M-4.5 81.5 L-4.5 84.75 -6.75 92.25 Q-16.25 107.5 -49.25 92.75 L-54.0 86.5 -56.0 79.75 -55.0 71.5 -52.0 63.0 -47.25 54.5 -47.0 54.5 -43.75 59.5 Q-29.0 80.75 -4.5 81.5" fill="#e58508" fill-rule="evenodd" stroke="none"/>
    <path d="M-79.4 5.85 L-79.75 4.35 -77.25 -5.75 -73.4 -16.9 -69.5 -22.5 -69.5 -22.65 Q-59.15 -37.25 -36.4 -49.25 -17.9 -73.5 -0.5 -73.75 L2.35 -72.65 8.0 -69.0 16.75 -60.75 25.85 -48.9 41.35 -24.65 45.85 -16.25 49.0 -14.75 61.1 -6.0 74.35 5.6 91.35 22.25 Q93.0 23.25 95.5 27.6 L94.75 29.1 93.1 29.35 95.25 32.25 96.35 35.25 Q95.75 42.75 94.0 43.25 L93.0 44.0 92.75 44.25 92.5 44.35 92.25 44.6 92.0 44.75 91.75 45.0 91.35 45.25 91.1 45.5 90.85 45.6 90.6 45.85 90.35 46.0 90.1 46.25 89.25 46.85 89.0 47.1 88.75 47.25 88.5 47.5 87.6 48.1 87.35 48.35 86.75 48.75 86.5 49.0 86.25 49.1 86.0 49.35 85.6 49.6 85.5 49.75 65.35 59.25 56.5 62.0 24.85 69.35 16.0 69.6 19.6 70.1 Q17.75 73.75 7.85 76.75 L-10.5 76.0 -27.9 69.75 -41.5 60.0 -50.25 47.25 -52.75 39.35 -52.9 32.85 -52.75 29.35 -52.65 28.6 -51.4 23.6 -51.65 23.35 -51.65 23.25 -54.65 18.75 -54.5 18.0 -57.0 11.0 -57.5 5.35 -56.65 -4.75 -53.5 -18.4 -51.5 -20.65 -47.65 -27.25 -53.65 -23.5 -68.9 -15.75 -68.65 -15.5 -73.65 -8.4 -78.0 2.35 -78.15 3.5 -79.4 5.85 M26.75 -2.25 L31.5 2.6 31.85 2.6 39.5 10.0 61.75 26.25 65.25 24.6 37.85 4.0 26.6 -6.75 Q26.0 -2.75 26.75 -2.25 M-27.9 7.25 L-31.75 5.5 -32.5 5.0 -32.75 4.75 -33.15 4.5 -34.75 3.0 -32.5 24.1 -32.75 24.6 -32.25 25.0 -29.25 32.1 -23.65 36.5 -17.25 38.1 -11.9 35.0 -1.9 19.0 1.1 9.35 1.5 7.5 2.35 -6.4 -1.5 -2.0 Q-17.9 12.85 -26.9 7.6 L-27.9 7.25 M-51.25 62.25 L-51.25 63.85 -50.5 65.5 -47.9 68.85 -46.0 70.25 -43.9 74.6 -40.65 79.1 -35.5 83.35 Q-32.05 85.25 -28.65 87.1 L-23.75 88.75 -19.4 89.6 -19.0 89.6 -14.15 90.25 -9.15 90.35 -7.9 91.1 Q-13.15 99.75 -34.5 95.85 -51.75 92.1 -55.65 81.75 L-55.75 81.5 -55.9 81.25 Q-57.5 74.0 -51.25 62.25 M54.85 80.35 Q49.85 93.0 34.75 95.6 11.5 99.75 6.75 91.1 L8.1 90.35 15.1 90.1 17.75 89.6 18.1 89.6 22.85 88.75 27.35 87.25 34.5 83.35 37.25 81.25 41.35 76.85 42.75 74.6 43.0 74.1 45.25 73.1 52.85 67.85 54.6 73.35 55.1 77.85 54.85 80.1 54.85 80.35" fill="#cecece" fill-opacity="0.0" fill-rule="evenodd" stroke="none"/>
    <path d="M-79.4 5.85 L-78.15 3.5 -78.0 2.35 -73.65 -8.4 -68.65 -15.5 -68.9 -15.75 -53.65 -23.5 -47.65 -27.25 -51.5 -20.65 -53.5 -18.4 -59.25 -16.15 -65.65 -6.15 -71.15 0.75 -76.4 6.35 -78.25 6.75 -79.4 5.85 M-57.5 5.35 L-57.0 11.0 -54.5 18.0 -54.65 18.75 -51.65 23.25 -51.65 23.35 -51.4 23.6 -52.65 28.6 -52.75 29.35 -52.9 32.85 -56.5 23.1 -57.25 16.6 -57.5 5.35 M-50.25 47.25 L-41.5 60.0 -27.9 69.75 -10.5 76.0 7.85 76.75 Q17.75 73.75 19.6 70.1 L16.0 69.6 24.85 69.35 56.5 62.0 65.35 59.25 85.5 49.75 82.75 51.75 65.25 60.0 57.35 62.6 52.85 67.85 45.25 73.1 43.0 74.1 42.75 74.6 41.35 76.85 37.25 81.25 34.5 83.35 27.35 87.25 22.85 88.75 18.1 89.6 17.75 89.6 15.1 90.1 8.1 90.35 6.75 91.1 Q11.5 99.75 34.75 95.6 49.85 93.0 54.85 80.35 53.35 94.35 32.25 99.25 L27.5 100.0 Q15.6 101.5 8.6 96.85 5.85 96.0 4.0 81.85 L4.0 81.75 3.85 81.5 -5.15 81.35 -5.0 81.75 -5.0 81.85 -5.9 87.5 -6.0 87.75 -6.4 89.25 Q-8.65 102.85 -28.5 100.0 L-33.25 99.25 Q-50.65 96.85 -55.65 81.75 -51.75 92.1 -34.5 95.85 -13.15 99.75 -7.9 91.1 L-9.15 90.35 -14.15 90.25 -19.0 89.6 -19.4 89.6 -23.75 88.75 -28.65 87.1 Q-32.05 85.25 -35.5 83.35 L-40.65 79.1 -43.9 74.6 -46.0 70.25 -47.9 68.85 -50.5 65.5 -51.25 63.85 -51.25 62.25 -46.9 54.75 -50.25 47.25 M95.25 32.25 L93.1 29.35 94.75 29.1 95.5 27.6 95.75 31.5 95.25 32.25 M26.75 -2.25 Q26.0 -2.75 26.6 -6.75 L37.85 4.0 65.25 24.6 61.75 26.25 39.5 10.0 31.85 2.6 31.5 2.6 26.75 -2.25 M-27.9 7.25 L-26.9 7.6 Q-17.9 12.85 -1.5 -2.0 L2.35 -6.4 1.5 7.5 1.1 9.35 -1.9 19.0 -11.9 35.0 -17.25 38.1 -23.65 36.5 -29.25 32.1 -32.25 25.0 -32.75 24.6 -32.5 24.1 -34.75 3.0 -33.15 4.5 -32.75 4.75 -32.5 5.0 -31.75 5.5 -27.9 7.25" fill="#000000" fill-opacity="0.49803922" fill-rule="evenodd" stroke="none"/>
  </g>
</svg>
