<?xml version="1.0" encoding="UTF-8" standalone="no"?>
<svg xmlns:ffdec="https://www.free-decompiler.com/flash" xmlns:xlink="http://www.w3.org/1999/xlink" ffdec:objectType="shape" height="412.45px" width="222.8px" xmlns="http://www.w3.org/2000/svg">
  <g transform="matrix(1.0, 0.0, 0.0, 1.0, 115.5, 135.55)">
    <path d="M-52.0 -103.5 L-51.5 -105.5 Q-54.0 -114.75 -36.5 -112.75 -15.5 -145.75 8.25 -131.0 L8.75 -130.5 10.0 -129.5 10.75 -128.75 11.5 -128.25 13.0 -126.75 Q191.25 110.75 32.5 199.75 L28.75 217.0 26.75 223.0 15.25 249.5 3.5 269.75 Q-6.75 284.75 -9.25 268.25 L-14.0 250.25 -20.0 221.0 -24.25 193.75 -24.25 192.5 -25.0 189.5 -33.5 183.75 Q-26.75 176.0 -29.25 171.0 L-31.0 165.25 -39.0 150.0 -54.5 126.75 -63.25 115.25 Q-78.0 79.75 -59.0 -19.75 L-54.75 -19.5 -51.5 -25.75 -50.0 -32.25 -48.75 -52.5 -46.5 -53.25 -43.0 -57.0 -43.5 -58.25 -47.0 -64.75 -49.0 -70.0 -52.0 -82.5 -52.25 -86.25 -52.0 -92.5 -51.25 -93.25 -51.75 -103.5 -52.0 -103.5" fill="#2e47aa" fill-rule="evenodd" stroke="none"/>
    <path d="M-102.0 88.5 L-103.75 70.5 -101.5 58.0 -95.0 37.0 -92.5 29.5 -92.5 29.25 -92.25 28.75 -92.25 28.25 -91.5 26.5 -91.5 26.25 -91.25 25.75 -91.25 25.25 -90.75 24.0 -79.75 -22.75 -59.0 -19.75 Q-78.0 79.75 -63.25 115.25 L-66.0 111.75 -66.75 111.0 -66.75 110.75 Q-86.0 83.5 -92.75 85.5 L-96.75 86.25 -97.0 86.25 -102.0 88.5 M-58.75 -97.5 L-55.25 -101.5 -52.0 -103.5 -51.75 -103.5 -51.25 -93.25 -52.0 -92.5 -52.25 -86.25 -52.0 -82.5 -49.0 -70.0 -47.0 -64.75 -43.5 -58.25 -43.0 -57.0 -46.5 -53.25 -48.75 -52.5 Q-60.5 -57.25 -62.25 -69.25 -57.0 -70.0 -61.0 -80.0 L-61.25 -80.5 -62.0 -87.0 -60.75 -88.75 Q-57.25 -96.25 -58.75 -97.5" fill="#ffffff" fill-rule="evenodd" stroke="none"/>
    <path d="M-33.5 183.75 L-40.25 189.75 -52.5 196.5 -55.25 197.0 -58.75 196.0 -66.25 192.0 -70.5 189.0 -75.25 184.25 -88.5 166.5 -95.0 154.75 -110.25 118.25 -114.75 104.75 -115.5 101.75 -115.5 100.25 -112.5 96.75 -102.0 88.5 -97.0 86.25 -96.75 86.25 -92.75 85.5 Q-86.0 83.5 -66.75 110.75 L-66.75 111.0 -66.0 111.75 -63.25 115.25 -54.5 126.75 -39.0 150.0 -31.0 165.25 -29.25 171.0 Q-26.75 176.0 -33.5 183.75 M-95.0 37.0 Q-109.25 2.75 -105.75 -20.75 L-104.25 -24.75 -104.25 -25.0 -101.25 -31.0 -106.0 -37.25 -108.0 -42.75 -108.25 -55.5 -107.5 -59.5 -104.0 -68.75 -101.5 -72.25 -95.5 -78.0 -84.0 -84.75 -77.25 -87.0 -63.25 -89.5 -62.0 -87.0 -61.25 -80.5 -61.0 -80.0 -63.5 -77.75 -64.5 -73.75 -62.25 -69.25 Q-60.5 -57.25 -48.75 -52.5 L-50.0 -32.25 -51.5 -25.75 -54.75 -19.5 -59.0 -19.75 -79.75 -22.75 -90.75 24.0 -91.25 25.25 -91.25 25.75 -91.5 26.25 -91.5 26.5 -92.25 28.25 -92.25 28.75 -92.5 29.25 -92.5 29.5 -95.0 37.0" fill="#e58508" fill-rule="evenodd" stroke="none"/>
    <path d="M-63.25 -89.5 Q-64.75 -90.5 -62.25 -95.75 L-58.75 -97.5 Q-57.25 -96.25 -60.75 -88.75 L-62.0 -87.0 -63.25 -89.5 M-61.0 -80.0 Q-57.0 -70.0 -62.25 -69.25 L-64.5 -73.75 -63.5 -77.75 -61.0 -80.0" fill="#31333d" fill-rule="evenodd" stroke="none"/>
    <path d="M-71.25 -5.25 Q-82.35 3.8 -87.5 24.8 L-94.75 40.0 Q-122.0 -17.5 -86.25 -24.0 L-78.45 -24.5 -53.25 -21.75 -58.55 -13.5 -71.25 -5.25 M-31.4 79.0 L-28.5 118.75 -26.5 131.5 Q-23.7 163.3 -16.6 167.1 -21.75 165.1 -21.5 163.75 L-23.5 165.5 -24.75 180.25 -24.0 188.75 -23.55 190.0 -24.45 190.0 -24.5 189.75 -33.5 183.75 Q-44.7 193.45 -51.5 196.15 -53.3 197.0 -55.25 197.15 -57.3 197.5 -59.05 196.45 -65.4 192.3 -70.6 187.1 -79.75 178.0 -87.65 167.65 -89.25 165.5 -90.4 163.05 -97.2 149.1 -103.65 135.0 L-110.25 118.75 -113.75 108.75 Q-116.0 101.75 -115.25 100.25 -113.5 99.5 -107.75 106.75 L-86.0 135.0 -68.65 160.35 Q-65.15 165.5 -62.05 170.9 -56.9 180.0 -52.0 189.25 L-37.0 180.25 Q-30.0 175.25 -29.0 171.0 L-31.0 164.75 -34.5 158.0 -44.0 142.25 -29.5 158.75 -29.0 156.25 -29.75 150.75 -30.75 106.5 -32.0 89.75 -32.25 79.75 -31.9 79.0 -31.4 79.0 M-97.5 86.5 L-103.25 89.75 Q-106.5 71.0 -98.75 51.0 -102.5 76.5 -97.5 86.5 M90.45 126.15 Q99.8 109.35 103.85 104.05 102.15 114.1 99.5 125.25 89.05 171.3 33.0 199.5 L31.65 199.5 Q33.9 189.4 34.25 180.25 62.25 177.0 90.45 126.15 M35.5 79.0 L36.25 89.25 33.5 166.5 29.0 161.0 Q27.75 159.5 26.25 161.75 L29.0 149.5 32.25 123.25 33.25 120.5 35.5 79.0 M-46.25 138.75 Q-60.4 131.35 -62.85 115.7 L-65.75 95.5 Q-58.8 118.4 -46.25 138.75" fill="#000000" fill-opacity="0.49803922" fill-rule="evenodd" stroke="none"/>
  </g>
</svg>
