<?xml version="1.0" encoding="UTF-8" standalone="no"?>
<svg xmlns:ffdec="https://www.free-decompiler.com/flash" xmlns:xlink="http://www.w3.org/1999/xlink" ffdec:objectType="shape" height="174.4px" width="183.8px" xmlns="http://www.w3.org/2000/svg">
  <g transform="matrix(1.0, 0.0, 0.0, 1.0, 81.9, 73.9)">
    <path d="M-24.25 -30.75 L-25.25 -34.25 Q-25.0 -40.0 -23.75 -40.75 L-20.0 -41.0 Q-15.25 -40.25 -13.5 -37.75 L-12.25 -37.0 -11.75 -37.0 -6.75 -36.0 1.75 -31.0 3.0 -29.5 1.25 -24.25 -1.0 -22.5 Q-2.25 -20.75 -9.5 -22.25 L-15.0 -26.25 -21.25 -27.0 Q-24.75 -29.25 -24.25 -30.75 M-0.25 -1.5 L4.75 17.5 5.25 22.75 10.75 37.75 15.75 45.75 20.0 50.5 25.5 62.25 Q27.75 75.25 19.75 77.25 L10.25 81.0 3.75 81.5 -4.5 81.75 -9.25 81.5 -17.75 79.5 -23.5 77.25 -37.5 68.0 -46.5 55.75 -46.75 55.25 -47.0 54.5 -47.25 54.5 -49.0 48.5 -51.0 38.5 -51.25 37.75 -51.5 36.0 -51.25 29.75 -49.25 28.5 -46.0 23.0 -45.75 21.25 -39.0 9.25 -35.25 0.0 -34.75 1.25 -31.25 5.75 -29.5 6.75 -26.25 8.0 -25.25 8.5 -24.75 8.5 -24.0 8.75 Q-10.0 10.75 -0.25 -1.5 M-12.5 -28.75 L-12.5 -26.0 -12.0 -25.25 Q-6.0 -21.75 -8.25 -28.25 L-9.25 -29.0 -10.25 -29.25 -12.5 -28.75 M-19.0 -28.5 Q-17.25 -30.25 -18.75 -32.25 L-19.75 -32.5 -19.75 -33.25 -20.25 -33.75 -20.75 -34.0 -21.25 -33.75 -22.0 -33.5 -22.5 -33.75 -23.25 -32.0 -22.5 -30.0 -22.25 -29.5 -19.0 -28.5" fill="#ffffff" fill-rule="evenodd" stroke="none"/>
    <path d="M-19.0 -28.5 L-22.25 -29.5 -22.5 -30.0 -23.25 -32.0 -22.5 -33.75 -22.0 -33.5 -21.25 -33.75 -20.75 -34.0 -20.25 -33.75 -19.75 -33.25 -19.75 -32.5 -18.75 -32.25 Q-17.25 -30.25 -19.0 -28.5 M-12.5 -28.75 L-10.25 -29.25 -9.25 -29.0 -8.25 -28.25 Q-6.0 -21.75 -12.0 -25.25 L-12.5 -26.0 -12.5 -28.75" fill="#000000" fill-rule="evenodd" stroke="none"/>
    <path d="M-1.0 -22.5 Q10.5 -12.25 -0.25 -1.5 -10.0 10.75 -24.0 8.75 L-24.75 8.5 -25.25 8.5 -26.25 8.0 -29.5 6.75 -31.25 5.75 -34.75 1.25 -35.25 0.0 -36.5 -4.5 -36.25 -11.25 -33.25 -19.75 -30.75 -24.75 -29.0 -27.5 Q-27.5 -30.0 -24.25 -30.75 -24.75 -29.25 -21.25 -27.0 L-15.0 -26.25 -9.5 -22.25 Q-2.25 -20.75 -1.0 -22.5 M19.75 77.25 L28.25 77.0 37.75 74.75 38.25 74.75 38.75 74.5 41.5 74.0 53.75 69.75 Q59.0 94.5 33.25 99.25 16.5 102.25 8.5 97.0 L5.75 92.25 3.75 81.5 10.25 81.0 19.75 77.25 M-4.5 81.75 L-4.5 84.75 -6.75 92.25 Q-16.25 107.5 -49.25 92.75 L-54.0 86.5 -56.0 79.75 -55.0 71.5 -52.0 63.0 -47.25 54.5 -47.0 54.5 -46.75 55.25 -46.5 55.75 -37.5 68.0 -23.5 77.25 -17.75 79.5 -9.25 81.5 -4.5 81.75" fill="#e58508" fill-rule="evenodd" stroke="none"/>
    <path d="M-81.4 8.6 L-81.9 7.75 -80.65 2.35 -80.5 2.25 -80.25 1.25 -80.25 1.0 -80.15 0.5 Q-75.25 -18.0 -70.65 -21.4 -60.5 -35.9 -36.9 -48.4 L-29.4 -57.25 -19.65 -66.25 -12.15 -71.25 Q-7.75 -74.0 -1.0 -73.9 1.25 -74.0 8.35 -68.9 L16.85 -60.9 25.85 -49.5 41.0 -26.5 45.5 -18.4 49.85 -16.5 63.0 -7.9 80.25 5.85 97.1 20.75 99.6 24.25 99.35 26.0 98.5 26.35 100.25 28.35 Q102.25 29.0 101.85 38.6 L94.35 47.1 94.0 47.35 93.85 47.5 77.75 58.6 68.85 63.0 41.5 73.5 33.5 74.6 32.6 74.6 34.35 67.75 42.75 57.25 44.1 55.0 38.1 57.35 27.85 59.25 23.85 59.25 25.6 63.85 25.5 64.6 Q25.6 66.25 18.0 73.0 L10.35 76.35 -8.0 76.35 -25.65 70.85 -40.65 60.85 -49.5 49.0 -49.65 48.75 -51.25 44.25 -52.25 41.25 -52.5 36.1 -52.65 35.85 -52.5 30.6 -51.4 25.25 -51.4 25.1 -54.65 20.6 -57.5 13.1 -57.5 11.1 -58.4 6.25 -57.65 -1.9 -54.65 -16.5 -54.75 -16.5 Q-52.65 -17.15 -48.25 -25.65 L-54.25 -21.75 -69.5 -13.75 -70.25 -13.5 -70.65 -13.75 -70.15 -13.25 -74.9 -6.4 -79.9 5.1 -80.0 6.1 -81.4 8.6 M53.6 69.85 L54.75 74.0 55.1 77.85 54.85 80.1 54.85 80.35 Q49.85 93.0 34.75 95.6 11.5 99.75 6.75 91.1 L8.1 90.35 15.1 90.1 17.75 89.6 18.1 89.6 22.85 88.75 27.35 87.25 34.5 83.35 37.25 81.25 41.35 76.85 42.75 74.6 43.1 73.75 53.6 69.85 M-55.65 81.75 L-55.75 81.5 -55.9 81.25 Q-57.5 74.0 -51.25 62.25 L-51.25 63.85 -50.5 65.5 -47.9 68.85 -46.0 70.25 -43.9 74.6 -40.65 79.1 -35.5 83.35 -28.5 87.25 -23.75 88.75 -19.4 89.6 -19.0 89.6 -14.15 90.25 -9.15 90.35 -7.9 91.1 Q-13.15 99.75 -34.5 95.85 -51.75 92.1 -55.65 81.75 M68.25 26.0 L71.25 23.85 41.5 3.85 29.35 -6.0 28.25 -7.4 28.1 -3.5 31.6 0.35 34.1 2.0 40.35 7.5 Q41.0 7.25 44.0 10.1 L61.35 21.75 63.0 27.25 63.0 28.75 63.0 31.0 63.5 30.5 65.85 27.75 68.25 26.0 M3.75 -6.4 L3.1 -5.65 2.75 -5.15 -2.0 0.35 Q-15.5 12.35 -23.4 8.85 L-23.75 8.75 -24.0 8.75 -25.9 8.1 -26.0 8.1 -26.4 7.85 -26.75 7.75 -30.4 6.1 -33.4 3.35 -33.5 3.0 -33.65 3.0 -34.0 5.0 -31.25 26.1 -27.65 33.25 -22.0 37.25 -15.75 38.6 Q-14.9 38.85 -10.0 35.35 L-0.15 19.25 2.75 9.25 3.1 7.35 3.75 -6.4" fill="#cecece" fill-opacity="0.0" fill-rule="evenodd" stroke="none"/>
    <path d="M99.6 24.25 L100.35 27.5 100.25 28.35 98.5 26.35 99.35 26.0 99.6 24.25 M93.85 47.5 Q79.5 61.0 53.6 69.85 L43.1 73.75 42.75 74.6 41.35 76.85 37.25 81.25 34.5 83.35 27.35 87.25 22.85 88.75 18.1 89.6 17.75 89.6 15.1 90.1 8.1 90.35 6.75 91.1 Q11.5 99.75 34.75 95.6 49.85 93.0 54.85 80.35 53.35 94.35 32.25 99.25 L27.5 100.0 Q15.6 101.5 8.6 96.85 5.85 96.0 4.0 81.85 L4.0 81.75 3.85 81.35 -5.15 81.6 -5.0 81.75 -5.0 81.85 -5.9 87.5 -6.4 89.25 Q-8.65 102.85 -28.5 100.0 L-33.25 99.25 Q-50.65 96.85 -55.65 81.75 -51.75 92.1 -34.5 95.85 -13.15 99.75 -7.9 91.1 L-9.15 90.35 -14.15 90.25 -19.0 89.6 -19.4 89.6 -23.75 88.75 -28.5 87.25 -35.5 83.35 -40.65 79.1 -43.9 74.6 -46.0 70.25 -47.9 68.85 -50.5 65.5 -51.25 63.85 -51.25 62.25 -47.0 55.0 -49.5 49.0 -40.65 60.85 -25.65 70.85 -8.0 76.35 10.35 76.35 18.0 73.0 Q25.6 66.25 25.5 64.6 L25.6 63.85 23.85 59.25 27.85 59.25 38.1 57.35 44.1 55.0 42.75 57.25 34.35 67.75 32.6 74.6 33.5 74.6 41.5 73.5 68.85 63.0 77.75 58.6 93.85 47.5 M-51.25 44.25 L-52.15 42.5 -52.25 41.25 -51.25 44.25 M-52.65 35.85 L-55.5 29.5 Q-57.75 24.0 -57.25 23.1 L-58.4 13.75 -58.4 6.25 -57.5 11.1 -57.5 13.1 -54.65 20.6 -51.4 25.1 -51.4 25.25 -52.5 30.6 -52.65 35.85 M-54.75 -16.5 L-61.15 -13.75 -69.5 -1.15 -77.4 8.0 Q-79.4 10.35 -81.4 8.6 L-80.0 6.1 -79.9 5.1 -74.9 -6.4 -70.15 -13.25 -70.65 -13.75 -70.25 -13.5 -69.5 -13.75 -54.25 -21.75 -48.25 -25.65 Q-52.65 -17.15 -54.75 -16.5 M3.75 -6.4 L3.1 7.35 2.75 9.25 -0.15 19.25 -10.0 35.35 Q-14.9 38.85 -15.75 38.6 L-22.0 37.25 -27.65 33.25 -31.25 26.1 -34.0 5.0 -33.65 3.0 -33.5 3.0 -33.4 3.35 -30.4 6.1 -26.75 7.75 -26.4 7.85 -26.0 8.1 -25.9 8.1 -24.0 8.75 -23.75 8.75 -23.4 8.85 Q-15.5 12.35 -2.0 0.35 L2.75 -5.15 3.1 -5.65 3.75 -6.4 M61.35 21.75 L44.0 10.1 Q41.0 7.25 40.35 7.5 L34.1 2.0 31.6 0.35 28.1 -3.5 28.25 -7.4 29.35 -6.0 41.5 3.85 71.25 23.85 68.25 26.0 61.35 21.75 M63.5 30.5 L63.0 31.0 63.0 28.75 63.5 30.5" fill="#000000" fill-opacity="0.49803922" fill-rule="evenodd" stroke="none"/>
  </g>
</svg>
