<?xml version="1.0" encoding="UTF-8" standalone="no"?>
<svg xmlns:ffdec="https://www.free-decompiler.com/flash" xmlns:xlink="http://www.w3.org/1999/xlink" ffdec:objectType="shape" height="174.25px" width="192.35px" xmlns="http://www.w3.org/2000/svg">
  <g transform="matrix(1.0, 0.0, 0.0, 1.0, 84.0, 73.65)">
    <path d="M1.5 -1.25 L6.5 16.25 7.25 22.5 13.25 38.0 18.5 45.75 22.25 49.75 27.75 61.25 Q31.0 70.75 22.25 76.25 L12.25 80.75 3.75 81.25 -4.75 82.0 -16.75 80.0 -23.0 77.25 -35.75 69.5 -43.5 60.0 -44.0 59.5 -46.5 55.0 -46.75 54.25 -50.25 41.75 -50.75 41.25 -50.75 40.25 -51.5 37.25 -51.0 31.75 -49.0 30.5 Q-49.5 29.25 -45.0 24.25 L-45.0 23.0 -39.0 12.5 -33.75 0.0 -31.0 5.25 Q-27.75 8.25 -23.75 9.0 L-23.25 9.25 -21.5 9.75 Q-10.5 12.75 1.5 -1.25 M-23.75 -30.0 L-24.5 -33.75 -23.25 -39.75 Q-20.25 -42.0 -12.25 -37.5 L-11.25 -36.5 -10.75 -36.5 -5.5 -35.75 0.75 -32.5 4.25 -29.75 2.75 -24.5 0.5 -22.5 Q-7.5 -19.5 -13.75 -26.0 L-20.25 -26.5 Q-22.0 -27.0 -23.75 -30.0 M-11.25 -27.75 L-11.0 -25.5 -10.75 -25.0 -7.75 -23.75 -6.5 -24.0 -5.5 -27.0 -8.25 -29.0 -9.5 -28.5 -10.0 -28.5 -11.25 -27.75 M-17.5 -31.5 L-17.75 -32.0 -18.5 -31.75 -18.75 -32.75 -19.75 -33.25 -20.75 -32.75 -21.5 -32.75 -22.0 -30.75 -21.5 -29.5 -20.0 -28.0 -17.75 -27.75 -16.5 -30.5 -17.5 -31.5" fill="#ffffff" fill-rule="evenodd" stroke="none"/>
    <path d="M-17.5 -31.5 L-16.5 -30.5 -17.75 -27.75 -20.0 -28.0 -21.5 -29.5 -22.0 -30.75 -21.5 -32.75 -20.75 -32.75 -19.75 -33.25 -18.75 -32.75 -18.5 -31.75 -17.75 -32.0 -17.5 -31.5 M-11.25 -27.75 L-10.0 -28.5 -9.5 -28.5 -8.25 -29.0 -5.5 -27.0 -6.5 -24.0 -7.75 -23.75 -10.75 -25.0 -11.0 -25.5 -11.25 -27.75" fill="#000000" fill-rule="evenodd" stroke="none"/>
    <path d="M0.5 -22.5 Q12.0 -12.25 1.5 -1.25 -10.5 12.75 -21.5 9.75 L-23.25 9.25 -23.75 9.0 Q-27.75 8.25 -31.0 5.25 L-33.75 0.0 -35.25 -6.0 -35.0 -6.5 -34.5 -12.0 -30.5 -22.75 -29.75 -23.75 -27.25 -27.75 -23.75 -30.0 Q-22.0 -27.0 -20.25 -26.5 L-13.75 -26.0 Q-7.5 -19.5 0.5 -22.5 M22.25 76.25 Q42.75 75.25 52.0 66.25 L54.5 74.0 55.0 80.25 Q53.5 98.0 22.0 100.5 3.0 102.0 3.75 81.25 L12.25 80.75 22.25 76.25 M-4.75 82.0 L-4.5 84.75 -6.75 92.25 Q-16.25 107.5 -49.25 92.75 L-54.0 86.5 -56.0 79.75 -55.0 71.5 -52.0 63.0 -47.0 54.25 -46.75 54.25 -46.5 55.0 -44.0 59.5 -43.5 60.0 -35.75 69.5 -23.0 77.25 -16.75 80.0 -4.75 82.0" fill="#e58508" fill-rule="evenodd" stroke="none"/>
    <path d="M-83.5 11.85 L-83.9 11.5 -84.0 10.0 -79.9 -4.15 -77.15 -11.5 -75.0 -15.65 -72.0 -19.65 Q-63.4 -32.9 -37.75 -47.25 L-29.9 -56.5 -19.9 -65.9 Q-11.5 -73.5 -0.25 -73.65 7.0 -71.9 17.6 -60.4 L26.25 -49.65 41.75 -26.65 45.1 -20.5 50.35 -18.5 64.25 -10.25 81.0 1.75 99.85 16.85 103.0 20.25 103.75 21.5 103.5 23.25 104.6 24.25 Q106.75 26.1 108.35 32.25 L108.25 34.85 104.25 44.0 92.25 57.75 91.6 58.35 91.5 58.35 89.7 59.9 84.25 64.35 63.1 78.1 55.85 80.35 55.75 80.35 55.5 80.5 55.1 79.6 55.1 77.6 54.85 78.1 55.0 79.1 54.75 80.5 Q50.25 92.85 34.25 95.75 11.5 99.75 6.75 91.1 L8.1 90.35 15.1 90.1 17.75 89.6 18.1 89.6 22.85 88.75 27.35 87.25 34.5 83.35 37.25 81.25 41.35 76.85 42.75 74.6 44.25 71.35 48.25 69.25 52.1 66.25 53.5 69.6 54.6 74.75 54.75 76.5 55.1 76.85 54.85 74.1 61.25 57.85 61.85 55.25 65.85 44.25 73.1 28.6 75.25 25.6 77.5 23.35 45.0 3.5 32.0 -6.0 30.1 -7.9 30.25 -3.9 33.1 -0.9 46.25 8.6 61.35 17.85 63.25 24.85 63.25 26.5 Q63.6 40.1 56.0 46.6 38.85 59.0 26.1 58.25 L27.75 62.5 27.75 63.5 Q28.0 65.1 20.85 72.0 L13.5 75.6 -5.5 76.6 -23.75 71.6 -38.75 62.75 -48.65 50.75 -50.15 47.1 -51.5 43.35 -51.65 43.1 -51.75 42.75 -52.0 39.5 -51.75 38.75 -52.15 37.35 Q-51.65 36.85 -52.25 32.85 L-51.0 27.35 -54.5 23.0 -58.0 15.1 -58.0 13.6 -59.25 8.1 -57.4 -7.75 -55.9 -14.25 -55.9 -14.4 -54.65 -14.9 Q-55.0 -15.65 -52.5 -17.5 L-48.65 -23.9 -55.0 -19.65 -71.75 -10.75 -71.75 -11.15 -72.15 -11.15 -71.75 -10.75 -71.5 -10.5 -76.5 -3.15 -83.5 11.85 M-55.65 81.75 L-55.75 81.5 -55.9 81.25 Q-57.5 74.0 -51.25 62.25 L-51.25 63.85 -50.5 65.5 -47.9 68.85 -46.0 70.25 -43.9 74.6 -40.65 79.1 -35.5 83.35 -28.5 87.25 -23.75 88.75 -19.4 89.6 -19.0 89.6 -14.15 90.25 -9.15 90.35 -7.9 91.1 Q-13.15 99.75 -34.5 95.85 -51.75 92.1 -55.65 81.75 M5.35 -6.4 L1.5 -1.5 Q-10.0 12.1 -21.25 9.6 L-21.5 9.6 -22.0 9.5 -24.15 8.85 -24.25 8.75 -24.65 8.75 -24.75 8.6 -28.15 7.25 Q-31.9 4.75 -31.75 3.75 L-32.0 3.35 -32.25 3.1 -32.9 6.25 -29.65 27.35 -29.15 27.75 -25.9 34.25 -19.9 38.1 -13.0 39.25 -7.5 35.25 1.35 20.0 2.75 16.1 4.5 9.1 4.6 8.25 4.85 7.25 5.35 -6.4" fill="#cecece" fill-opacity="0.0" fill-rule="evenodd" stroke="none"/>
    <path d="M103.75 21.5 L104.6 24.25 103.5 23.25 103.75 21.5 M89.7 59.9 L82.75 65.85 62.6 79.1 55.85 80.35 63.1 78.1 84.25 64.35 89.7 59.9 M55.1 79.6 L55.0 79.1 54.85 78.1 55.1 77.6 55.1 79.6 M54.75 80.5 Q55.0 93.35 32.25 99.25 L27.5 100.0 Q15.6 101.5 8.6 96.85 5.85 96.0 4.0 81.85 L4.0 81.75 3.85 81.25 -5.0 81.85 -5.9 87.5 -6.4 89.25 Q-8.65 102.85 -28.5 100.0 L-33.25 99.25 Q-50.65 96.85 -55.65 81.75 -51.75 92.1 -34.5 95.85 -13.15 99.75 -7.9 91.1 L-9.15 90.35 -14.15 90.25 -19.0 89.6 -19.4 89.6 -23.75 88.75 -28.5 87.25 -35.5 83.35 -40.65 79.1 -43.9 74.6 -46.0 70.25 -47.9 68.85 -50.5 65.5 -51.25 63.85 -51.25 62.25 -47.0 55.0 -46.9 54.6 -48.65 50.75 -38.75 62.75 -23.75 71.6 -5.5 76.6 13.5 75.6 20.85 72.0 Q28.0 65.1 27.75 63.5 L27.75 62.5 26.1 58.25 Q38.85 59.0 56.0 46.6 63.6 40.1 63.25 26.5 L64.0 30.1 64.25 43.6 61.5 54.5 57.1 60.85 55.75 63.25 52.1 66.25 48.25 69.25 44.25 71.35 42.75 74.6 41.35 76.85 37.25 81.25 34.5 83.35 27.35 87.25 22.85 88.75 18.1 89.6 17.75 89.6 15.1 90.1 8.1 90.35 6.75 91.1 Q11.5 99.75 34.25 95.75 50.25 92.85 54.75 80.5 M-50.15 47.1 L-51.4 44.75 -51.5 43.35 -50.15 47.1 M-52.0 39.5 L-55.5 32.6 -57.4 27.6 -58.9 19.75 -59.5 13.75 -59.25 8.1 -58.0 13.6 -58.0 15.1 -54.5 23.0 -51.0 27.35 -52.25 32.85 Q-51.65 36.85 -52.15 37.35 L-51.75 38.75 -52.0 39.5 M-55.9 -14.4 L-63.15 -11.15 -69.4 -1.25 -76.25 7.35 -77.15 8.0 -77.0 8.25 Q-81.4 14.35 -83.5 11.85 L-76.5 -3.15 -71.5 -10.5 -71.75 -10.75 -72.15 -11.15 -71.75 -11.15 -71.75 -10.75 -55.0 -19.65 -48.65 -23.9 -52.5 -17.5 Q-55.0 -15.65 -54.65 -14.9 L-55.9 -14.4 M5.35 -6.4 L4.85 7.25 4.6 8.25 4.5 9.1 2.75 16.1 1.35 20.0 -7.5 35.25 -13.0 39.25 -19.9 38.1 -25.9 34.25 -29.15 27.75 -29.65 27.35 -32.9 6.25 -32.25 3.1 -32.0 3.35 -31.75 3.75 Q-31.9 4.75 -28.15 7.25 L-24.75 8.6 -24.65 8.75 -24.25 8.75 -24.15 8.85 -22.0 9.5 -21.5 9.6 -21.25 9.6 Q-10.0 12.1 1.5 -1.5 L5.35 -6.4 M61.35 17.85 L46.25 8.6 33.1 -0.9 30.25 -3.9 30.1 -7.9 32.0 -6.0 45.0 3.5 77.5 23.35 75.25 25.6 61.35 17.85 M54.85 74.1 L55.1 76.85 54.75 76.5 54.6 74.75 54.85 74.1" fill="#000000" fill-opacity="0.49803922" fill-rule="evenodd" stroke="none"/>
  </g>
</svg>
