<?xml version="1.0" encoding="UTF-8" standalone="no"?>
<svg xmlns:ffdec="https://www.free-decompiler.com/flash" xmlns:xlink="http://www.w3.org/1999/xlink" ffdec:objectType="shape" height="174.25px" width="199.9px" xmlns="http://www.w3.org/2000/svg">
  <g transform="matrix(1.0, 0.0, 0.0, 1.0, 86.15, 73.75)">
    <path d="M-22.75 -29.25 L-23.5 -32.75 -22.5 -39.0 -17.5 -39.5 Q-14.25 -39.5 -11.25 -37.0 L-11.5 -36.5 -10.0 -36.25 -8.75 -36.25 -4.0 -35.5 1.75 -32.75 5.5 -30.0 4.75 -26.0 Q3.75 -23.25 1.75 -22.5 -5.75 -19.25 -12.25 -25.5 L-18.75 -25.5 -22.75 -29.25 M3.25 -1.0 L4.5 1.25 5.5 6.75 8.25 14.75 9.5 22.25 15.0 36.25 17.5 40.75 24.75 49.0 29.75 59.25 30.75 66.75 27.75 73.5 24.25 75.25 14.5 80.25 3.75 81.5 -4.5 81.75 Q-11.75 84.25 -33.0 71.5 L-44.0 59.75 -45.5 56.5 -46.0 54.75 -46.25 54.25 -46.5 53.5 -51.25 39.0 -50.5 34.0 Q-47.75 33.5 -39.75 17.75 L-32.25 0.5 -28.75 6.25 Q-25.25 9.25 -20.75 10.0 L-20.25 10.25 -19.25 10.5 -10.5 10.25 Q-2.25 6.25 0.5 2.25 L3.25 -1.0 M-3.75 -25.25 L-4.0 -27.0 -6.75 -28.5 -7.5 -28.5 -8.5 -28.25 Q-10.5 -28.25 -9.25 -24.5 L-5.75 -23.5 -3.75 -25.25 M-19.0 -32.25 L-19.75 -32.0 -20.5 -31.25 Q-21.5 -30.25 -19.5 -27.75 L-16.5 -27.0 -15.5 -28.0 -15.25 -30.0 -16.5 -31.25 -17.5 -32.0 -18.5 -32.5 -19.0 -32.25" fill="#ffffff" fill-rule="evenodd" stroke="none"/>
    <path d="M-19.0 -32.25 L-18.5 -32.5 -17.5 -32.0 -16.5 -31.25 -15.25 -30.0 -15.5 -28.0 -16.5 -27.0 -19.5 -27.75 Q-21.5 -30.25 -20.5 -31.25 L-19.75 -32.0 -19.0 -32.25 M-3.75 -25.25 L-5.75 -23.5 -9.25 -24.5 Q-10.5 -28.25 -8.5 -28.25 L-7.5 -28.5 -6.75 -28.5 -4.0 -27.0 -3.75 -25.25" fill="#000000" fill-rule="evenodd" stroke="none"/>
    <path d="M1.75 -22.5 Q14.0 -12.5 3.25 -1.0 L0.5 2.25 Q-2.25 6.25 -10.5 10.25 L-19.25 10.5 -20.25 10.25 -20.75 10.0 Q-25.25 9.25 -28.75 6.25 L-32.25 0.5 -33.0 -2.5 -33.0 -10.0 -32.25 -14.0 -29.75 -21.25 -26.25 -26.75 -22.75 -29.25 -18.75 -25.5 -12.25 -25.5 Q-5.75 -19.25 1.75 -22.5 M24.25 75.25 Q44.5 72.75 51.5 65.25 63.75 86.25 38.0 98.0 19.0 102.75 10.75 98.25 5.5 98.25 3.75 81.5 L14.5 80.25 24.25 75.25 M-4.5 81.75 L-4.5 84.75 -6.75 92.25 Q-16.25 107.5 -49.25 92.75 -64.25 82.25 -46.5 53.5 L-46.25 54.25 -46.0 54.75 -45.5 56.5 -44.0 59.75 -33.0 71.5 Q-11.75 84.25 -4.5 81.75" fill="#e58508" fill-rule="evenodd" stroke="none"/>
    <path d="M82.5 25.25 L83.75 22.6 48.6 3.25 34.6 -6.15 32.0 -8.5 32.25 -4.65 34.6 -2.15 49.5 7.75 61.35 14.25 63.35 22.5 63.5 25.35 63.6 25.6 63.7 27.2 64.0 30.0 62.0 37.5 61.5 38.1 57.35 44.25 Q42.85 56.6 28.35 57.0 L30.1 61.35 30.0 62.35 Q30.1 63.85 23.0 71.25 L16.35 74.85 15.35 75.25 -2.75 76.75 -20.9 72.85 -36.65 64.5 -47.65 52.6 -47.75 52.25 -47.9 52.1 -48.0 51.85 -48.15 51.6 -48.75 50.1 -48.75 50.0 -51.0 44.75 -51.0 44.0 -51.15 43.75 -51.15 43.0 -51.4 41.5 -51.4 40.5 -51.65 39.1 -51.9 35.75 -50.5 29.6 -50.5 29.5 -54.4 25.25 -57.15 19.35 -58.4 17.5 -59.65 11.1 -60.15 10.1 -59.5 0.75 -58.65 -5.4 -57.0 -11.9 Q-56.0 -12.0 -53.25 -15.0 L-49.0 -22.0 -55.65 -17.4 -72.75 -7.9 -73.65 -8.4 -72.9 -7.65 -74.0 -5.4 -77.75 -0.4 -83.75 11.6 -84.0 12.75 -85.65 15.35 -86.15 14.75 -86.15 13.25 -82.25 0.1 -77.25 -12.25 -73.65 -17.25 Q-66.25 -29.65 -38.5 -46.0 -20.25 -71.15 -1.0 -73.75 7.35 -72.15 19.1 -59.25 L29.35 -46.15 34.85 -38.4 44.75 -22.75 51.0 -20.4 65.5 -12.5 83.85 -0.4 103.35 14.0 107.0 17.75 107.1 18.1 107.25 18.35 107.25 18.5 107.35 19.5 107.85 20.0 109.75 21.85 113.75 27.75 113.5 40.25 107.25 56.25 102.25 64.1 92.35 76.35 92.1 76.6 91.85 77.0 91.6 77.25 91.0 78.0 90.85 78.25 90.5 78.6 90.35 78.85 89.85 79.35 89.85 79.5 87.75 81.85 81.85 85.35 81.5 85.5 80.75 83.5 Q81.0 81.85 79.25 78.6 L79.25 75.75 79.5 49.25 81.25 29.0 82.5 25.25 M6.0 -4.75 L3.5 -1.5 Q-8.5 12.85 -18.25 10.5 L-18.65 10.5 -21.0 9.85 -21.25 9.75 -23.0 9.25 Q-25.65 8.5 -28.25 6.5 L-30.9 2.85 -31.65 7.35 -27.9 28.5 -23.75 35.35 -17.25 39.0 -10.5 39.6 -5.15 35.6 4.1 19.0 6.5 8.85 7.0 -6.75 6.0 -4.75 M54.6 81.75 Q50.25 92.5 31.75 96.25 12.75 99.5 6.75 91.1 L8.1 90.35 15.1 90.1 17.75 89.6 18.1 89.6 22.85 88.75 27.35 87.25 34.5 83.35 39.5 79.1 41.35 76.85 42.75 74.6 44.85 70.25 46.5 69.0 46.5 68.85 49.75 66.85 51.6 65.35 53.85 71.0 55.0 75.75 54.75 81.25 54.35 81.5 54.6 81.75 M-51.25 62.25 L-51.25 63.85 -50.5 65.5 -47.9 68.85 -46.0 70.25 -43.9 74.6 -40.65 79.1 -35.5 83.35 Q-32.05 85.25 -28.65 87.1 L-23.75 88.75 -19.4 89.6 -19.0 89.6 -14.15 90.25 -9.15 90.35 -7.9 91.1 Q-13.15 99.75 -34.5 95.85 -51.75 92.1 -55.65 81.75 L-55.75 81.5 -55.9 81.25 Q-57.5 74.0 -51.25 62.25" fill="#cecece" fill-opacity="0.0" fill-rule="evenodd" stroke="none"/>
    <path d="M61.35 14.25 L49.5 7.75 34.6 -2.15 32.25 -4.65 32.0 -8.5 34.6 -6.15 48.6 3.25 83.75 22.6 82.5 25.25 61.35 14.25 M79.25 75.75 L79.25 78.6 Q81.0 81.85 80.75 83.5 L79.0 80.0 79.25 75.75 M81.85 85.35 L87.75 81.85 89.85 79.5 87.35 82.75 81.85 85.35 M107.85 20.0 L107.35 19.5 107.25 18.5 107.85 20.0 M-85.65 15.35 L-84.0 12.75 -83.75 11.6 -77.75 -0.4 -74.0 -5.4 -72.9 -7.65 -73.65 -8.4 -72.75 -7.9 -55.65 -17.4 -49.0 -22.0 -53.25 -15.0 Q-56.0 -12.0 -57.0 -11.9 L-57.15 -11.9 -65.15 -8.15 -71.15 1.35 -78.25 10.6 -82.75 15.6 -84.75 16.0 -85.65 15.35 M-60.15 10.1 L-59.65 11.1 -58.4 17.5 -57.15 19.35 -54.4 25.25 -50.5 29.5 -50.5 29.6 -51.9 35.75 -51.65 39.1 -51.4 40.5 -51.4 41.5 -51.15 43.0 -51.4 42.35 -56.25 34.25 -57.65 30.35 -59.75 22.0 -60.25 17.25 -60.15 10.1 M-51.0 44.75 L-48.75 50.0 -50.75 46.5 -51.0 44.75 M-47.65 52.6 L-36.65 64.5 -20.9 72.85 -2.75 76.75 15.35 75.25 16.35 74.85 23.0 71.25 Q30.1 63.85 30.0 62.35 L30.1 61.35 28.35 57.0 Q42.85 56.6 57.35 44.25 L61.5 38.1 62.0 37.5 64.0 30.0 63.7 27.2 64.6 34.35 64.75 40.35 62.5 51.1 57.1 60.35 51.6 65.35 49.75 66.85 46.5 68.85 46.5 69.0 44.85 70.25 42.75 74.6 41.35 76.85 39.5 79.1 34.5 83.35 27.35 87.25 22.85 88.75 18.1 89.6 17.75 89.6 15.1 90.1 8.1 90.35 6.75 91.1 Q12.75 99.5 31.75 96.25 50.25 92.5 54.6 81.75 L54.75 82.35 52.35 87.6 49.35 91.5 Q42.1 97.6 32.25 99.25 L27.5 100.0 Q15.6 101.5 8.6 96.85 5.85 96.0 4.0 81.85 L4.0 81.75 3.85 81.35 -1.5 82.0 -5.0 81.75 -5.0 81.85 -5.9 87.5 -6.0 87.75 -6.4 89.25 Q-8.65 102.85 -28.5 100.0 L-33.25 99.25 Q-50.65 96.85 -55.65 81.75 -51.75 92.1 -34.5 95.85 -13.15 99.75 -7.9 91.1 L-9.15 90.35 -14.15 90.25 -19.0 89.6 -19.4 89.6 -23.75 88.75 -28.65 87.1 Q-32.05 85.25 -35.5 83.35 L-40.65 79.1 -43.9 74.6 -46.0 70.25 -47.9 68.85 -50.5 65.5 -51.25 63.85 -51.25 62.25 -46.9 54.75 -47.15 53.25 -47.65 52.6 M6.0 -4.75 L7.0 -6.75 6.5 8.85 4.1 19.0 -5.15 35.6 -10.5 39.6 -17.25 39.0 -23.75 35.35 -27.9 28.5 -31.65 7.35 -30.9 2.85 -28.25 6.5 Q-25.65 8.5 -23.0 9.25 L-21.25 9.75 -21.0 9.85 -18.65 10.5 -18.25 10.5 Q-8.5 12.85 3.5 -1.5 L6.0 -4.75 M54.75 81.25 L54.6 81.75 54.35 81.5 54.75 81.25" fill="#000000" fill-opacity="0.49803922" fill-rule="evenodd" stroke="none"/>
  </g>
</svg>
