<?xml version="1.0" encoding="UTF-8" standalone="no"?>
<svg xmlns:ffdec="https://www.free-decompiler.com/flash" xmlns:xlink="http://www.w3.org/1999/xlink" ffdec:objectType="shape" height="174.25px" width="209.35px" xmlns="http://www.w3.org/2000/svg">
  <g transform="matrix(1.0, 0.0, 0.0, 1.0, 88.25, 73.75)">
    <path d="M-21.25 -28.25 L-22.5 -32.0 -21.75 -38.0 Q-21.5 -39.5 -15.75 -38.75 L-10.0 -36.5 -8.75 -35.75 -7.5 -35.75 -2.5 -35.25 4.75 -32.0 7.0 -30.25 6.25 -26.5 Q4.75 -23.0 3.25 -22.75 -5.75 -19.25 -10.75 -25.0 -19.0 -23.5 -21.25 -28.25 M5.25 -0.75 L6.5 1.25 11.75 21.5 17.75 36.25 20.75 41.0 27.0 47.5 32.0 57.75 33.0 65.25 Q30.35 72.55 28.25 73.6 L27.25 73.75 17.0 79.5 3.75 81.75 -4.5 81.75 Q-40.0 75.75 -46.5 53.25 L-48.25 48.0 -48.5 47.75 -50.5 41.75 -50.0 36.0 Q-44.5 34.25 -30.5 0.75 L-30.25 0.75 Q-28.0 6.25 -25.0 8.25 L-19.0 10.5 -18.0 10.75 -17.5 11.0 -16.25 11.25 Q-5.0 13.25 5.25 -0.75 M-8.0 -27.25 L-7.75 -25.25 -7.0 -24.0 -5.5 -23.5 Q0.25 -24.5 -3.5 -27.75 L-5.25 -28.25 -6.5 -28.25 -6.75 -28.0 -8.0 -27.25 M-17.75 -31.5 L-18.0 -31.25 -18.75 -30.75 -19.0 -30.5 -19.5 -29.25 -19.0 -28.5 -17.0 -26.5 Q-12.25 -26.75 -15.0 -30.5 L-15.75 -31.25 -16.75 -31.5 -17.25 -31.75 -17.75 -31.5" fill="#ffffff" fill-rule="evenodd" stroke="none"/>
    <path d="M-17.75 -31.5 L-17.25 -31.75 -16.75 -31.5 -15.75 -31.25 -15.0 -30.5 Q-12.25 -26.75 -17.0 -26.5 L-19.0 -28.5 -19.5 -29.25 -19.0 -30.5 -18.75 -30.75 -18.0 -31.25 -17.75 -31.5 M-8.0 -27.25 L-6.75 -28.0 -6.5 -28.25 -5.25 -28.25 -3.5 -27.75 Q0.25 -24.5 -5.5 -23.5 L-7.0 -24.0 -7.75 -25.25 -8.0 -27.25" fill="#000000" fill-rule="evenodd" stroke="none"/>
    <path d="M3.25 -22.75 Q15.75 -13.0 5.25 -0.75 -5.0 13.25 -16.25 11.25 L-17.5 11.0 -18.0 10.75 -19.0 10.5 -25.0 8.25 Q-28.0 6.25 -30.25 0.75 L-30.5 0.75 -31.25 -3.25 -30.75 -13.25 -30.5 -13.5 -29.5 -17.0 -29.5 -17.75 -26.75 -23.75 Q-25.0 -27.0 -21.25 -28.25 -19.0 -23.5 -10.75 -25.0 -5.75 -19.25 3.25 -22.75 M28.25 73.6 L33.75 72.75 42.25 69.75 51.25 64.25 Q63.5 84.75 40.5 97.0 L27.0 100.25 Q13.0 100.5 11.0 98.5 7.25 96.5 6.5 94.0 L3.75 81.75 17.0 79.5 27.25 73.75 28.25 73.6 M-4.5 81.75 L-4.5 84.75 -6.75 92.25 Q-16.25 107.5 -49.25 92.75 -64.25 82.5 -46.5 53.25 -40.0 75.75 -4.5 81.75" fill="#e58508" fill-rule="evenodd" stroke="none"/>
    <path d="M-87.65 19.25 L-88.25 18.25 -88.25 17.1 -84.25 3.85 -79.25 -8.9 -75.25 -14.75 -75.25 -14.9 -74.9 -15.4 -74.15 -16.25 -72.5 -18.65 -62.75 -28.25 -50.65 -38.15 -42.4 -43.65 -39.25 -44.65 -31.65 -53.75 -20.9 -64.5 -11.5 -70.9 Q-4.75 -74.25 -0.65 -73.65 3.0 -73.5 9.5 -68.65 L19.35 -59.5 28.25 -48.65 34.75 -39.65 44.35 -24.75 51.1 -22.65 65.85 -15.15 83.35 -4.4 105.85 11.0 109.0 13.85 109.6 15.1 109.75 15.35 109.75 15.6 109.85 15.75 110.0 15.85 110.85 16.25 117.35 22.5 121.0 34.25 121.1 52.85 119.6 61.75 113.0 83.35 112.75 83.75 111.1 85.6 111.0 85.85 110.5 86.35 110.25 86.75 110.0 87.0 109.6 87.5 109.35 87.75 109.0 88.25 108.1 87.5 107.85 87.0 107.0 85.0 104.5 81.5 103.75 78.0 101.5 71.85 99.35 64.35 93.6 47.5 93.25 44.85 89.1 29.5 89.1 27.1 89.0 26.35 88.85 22.75 89.35 21.75 51.5 2.5 36.85 -6.65 33.85 -9.25 34.35 -5.15 36.85 -2.75 51.75 6.35 61.25 11.25 63.35 20.35 64.25 27.75 62.6 35.1 Q59.85 41.75 52.5 47.25 L44.35 51.85 34.35 55.1 30.75 55.6 32.35 59.75 32.25 60.75 Q32.6 62.35 25.6 70.1 L18.25 74.35 0.0 76.75 -18.15 73.75 -34.9 65.75 -46.25 54.6 -50.0 47.0 -50.0 46.5 -50.15 46.25 -50.15 46.0 -51.15 39.6 -51.25 37.75 -49.75 32.0 Q-61.75 20.25 -60.9 7.75 L-60.9 5.1 -60.0 -1.25 -58.15 -9.25 -58.25 -9.25 -56.4 -10.25 -53.5 -13.0 -49.4 -19.9 -55.65 -15.4 -64.9 -10.15 -65.65 -9.4 -73.25 -5.15 -74.15 -4.75 -74.9 -5.25 -74.75 -4.75 -74.15 -4.5 -75.25 -2.25 -79.25 3.5 -87.65 19.25 M51.1 64.5 L53.5 69.6 55.0 75.75 54.75 81.25 54.35 81.5 54.6 81.75 Q50.25 92.5 31.75 96.25 12.75 99.5 6.75 91.1 L8.1 90.35 15.1 90.1 17.75 89.6 18.1 89.6 22.85 88.75 27.35 87.25 34.5 83.35 39.5 79.1 41.35 76.85 42.75 74.6 44.85 70.25 46.6 68.85 48.6 66.6 49.0 65.85 49.35 65.75 51.1 64.5 M-55.65 81.75 L-55.75 81.5 -55.9 81.25 Q-57.5 74.0 -51.25 62.25 L-51.25 63.85 -50.5 65.5 -47.9 68.85 -46.0 70.25 -43.9 74.6 -40.65 79.1 -35.5 83.35 Q-32.05 85.25 -28.65 87.1 L-23.75 88.75 -19.4 89.6 -19.0 89.6 -14.15 90.25 -9.15 90.35 -7.9 91.1 Q-13.15 99.75 -34.5 95.85 -51.75 92.1 -55.65 81.75 M8.75 -6.9 L5.5 -1.4 3.35 1.35 Q-8.0 13.85 -15.65 11.25 L-18.15 10.75 -18.5 10.6 -20.4 10.1 Q-21.25 10.5 -25.65 7.6 L-28.65 3.75 -29.4 2.6 -30.15 8.85 -25.9 28.85 -26.0 29.6 -25.5 29.85 -21.9 36.25 -15.25 39.6 -8.0 40.0 -2.65 35.75 6.35 18.75 8.5 8.5 8.5 7.6 8.75 6.6 8.75 -6.9" fill="#cecece" fill-opacity="0.0" fill-rule="evenodd" stroke="none"/>
    <path d="M107.85 87.0 L104.25 82.85 94.0 51.5 89.25 32.5 89.1 29.5 93.25 44.85 93.6 47.5 99.35 64.35 101.5 71.85 103.75 78.0 104.5 81.5 107.0 85.0 107.85 87.0 M89.0 26.35 L88.75 24.5 61.25 11.25 51.75 6.35 36.85 -2.75 34.35 -5.15 33.85 -9.25 36.85 -6.65 51.5 2.5 89.35 21.75 88.85 22.75 89.0 26.35 M64.25 27.75 Q67.75 52.35 51.1 64.5 L49.35 65.75 49.0 65.85 48.6 66.6 46.6 68.85 44.85 70.25 42.75 74.6 41.35 76.85 39.5 79.1 34.5 83.35 27.35 87.25 22.85 88.75 18.1 89.6 17.75 89.6 15.1 90.1 8.1 90.35 6.75 91.1 Q12.75 99.5 31.75 96.25 50.25 92.5 54.6 81.75 L54.35 81.5 54.75 81.25 54.6 81.75 54.75 82.35 52.1 88.1 49.35 91.5 Q42.1 97.6 32.25 99.25 L27.5 100.0 Q15.6 101.5 8.6 96.85 5.85 96.0 4.0 81.85 L4.0 81.75 3.6 81.6 0.0 82.0 -5.15 81.35 -5.0 81.75 -5.0 81.85 -5.9 87.5 -6.4 89.25 Q-8.65 102.85 -28.5 100.0 L-33.25 99.25 Q-50.65 96.85 -55.65 81.75 -51.75 92.1 -34.5 95.85 -13.15 99.75 -7.9 91.1 L-9.15 90.35 -14.15 90.25 -19.0 89.6 -19.4 89.6 -23.75 88.75 -28.65 87.1 Q-32.05 85.25 -35.5 83.35 L-40.65 79.1 -43.9 74.6 -46.0 70.25 -47.9 68.85 -50.5 65.5 -51.25 63.85 -51.25 62.25 -46.9 54.75 -49.75 48.75 -50.0 47.0 -46.25 54.6 -34.9 65.75 -18.15 73.75 0.0 76.75 18.25 74.35 25.6 70.1 Q32.6 62.35 32.25 60.75 L32.35 59.75 30.75 55.6 34.35 55.1 44.35 51.85 52.5 47.25 Q59.85 41.75 62.6 35.1 L64.25 27.75 M-50.15 46.0 L-50.5 45.6 Q-63.4 29.25 -60.9 7.75 -61.75 20.25 -49.75 32.0 L-51.25 37.75 -51.15 39.6 -50.15 46.0 M-58.25 -9.25 L-67.0 -5.15 -75.0 7.5 -79.75 13.6 Q-85.0 21.25 -87.65 19.25 L-79.25 3.5 -75.25 -2.25 -74.15 -4.5 -74.75 -4.75 -74.9 -5.25 -74.15 -4.75 -73.25 -5.15 -65.65 -9.4 -64.9 -10.15 -55.65 -15.4 -49.4 -19.9 -53.5 -13.0 -56.4 -10.25 -58.25 -9.25 M8.75 -6.9 L8.75 6.6 8.5 7.6 8.5 8.5 6.35 18.75 -2.65 35.75 -8.0 40.0 -15.25 39.6 -21.9 36.25 -25.5 29.85 -26.0 29.6 -25.9 28.85 -30.15 8.85 -29.4 2.6 -28.65 3.75 -25.65 7.6 Q-21.25 10.5 -20.4 10.1 L-18.5 10.6 -18.15 10.75 -15.65 11.25 Q-8.0 13.85 3.35 1.35 L5.5 -1.4 8.75 -6.9" fill="#000000" fill-opacity="0.49803922" fill-rule="evenodd" stroke="none"/>
  </g>
</svg>
