<?xml version="1.0" encoding="UTF-8" standalone="no"?>
<svg xmlns:ffdec="https://www.free-decompiler.com/flash" xmlns:xlink="http://www.w3.org/1999/xlink" ffdec:objectType="shape" height="174.2px" width="225.75px" xmlns="http://www.w3.org/2000/svg">
  <g transform="matrix(1.0, 0.0, 0.0, 1.0, 90.15, 73.7)">
    <path d="M-20.0 -27.5 L-21.25 -30.75 -21.0 -37.25 -17.25 -38.25 Q-10.25 -38.0 -8.5 -36.0 L-7.5 -35.5 -1.25 -35.25 Q7.5 -32.25 8.0 -30.5 L8.0 -27.5 Q6.0 -23.0 4.75 -22.75 1.5 -18.5 -9.0 -24.5 L-16.5 -24.5 Q-18.75 -25.25 -20.0 -27.5 M7.5 -0.75 L13.0 16.0 13.75 21.25 20.25 35.75 29.5 47.0 34.75 57.25 35.0 64.25 Q32.65 70.85 30.65 72.05 L29.5 72.25 19.75 78.5 3.75 82.0 -4.5 81.75 Q-35.5 78.75 -46.5 53.25 L-47.25 50.75 -47.5 50.5 -50.0 43.75 -49.0 38.75 -46.25 36.5 -38.0 22.25 -32.75 11.0 -30.75 4.5 -28.5 0.75 -28.25 0.75 Q-22.5 12.25 -16.0 11.25 L-14.25 11.75 -13.0 11.75 -12.5 12.0 Q-0.5 12.25 7.5 -0.75 M-5.0 -27.75 L-5.25 -27.5 Q-8.5 -23.25 -2.0 -23.25 L-0.25 -25.75 -1.75 -27.5 -3.5 -28.25 -5.0 -27.75 M-17.0 -30.5 L-18.0 -28.5 Q-17.0 -26.0 -15.0 -25.75 -10.5 -27.25 -13.25 -29.75 L-13.75 -30.0 -14.25 -30.5 -15.0 -31.0 -16.25 -30.75 -17.0 -30.5" fill="#ffffff" fill-rule="evenodd" stroke="none"/>
    <path d="M-17.0 -30.5 L-16.25 -30.75 -15.0 -31.0 -14.25 -30.5 -13.75 -30.0 -13.25 -29.75 Q-10.5 -27.25 -15.0 -25.75 -17.0 -26.0 -18.0 -28.5 L-17.0 -30.5 M-5.0 -27.75 L-3.5 -28.25 -1.75 -27.5 -0.25 -25.75 -2.0 -23.25 Q-8.5 -23.25 -5.25 -27.5 L-5.0 -27.75" fill="#000000" fill-rule="evenodd" stroke="none"/>
    <path d="M4.75 -22.75 Q16.75 -15.0 7.5 -0.75 -0.5 12.25 -12.5 12.0 L-13.0 11.75 -14.25 11.75 -16.0 11.25 Q-22.5 12.25 -28.25 0.75 L-28.5 0.75 Q-31.75 -20.0 -20.0 -27.5 -18.75 -25.25 -16.5 -24.5 L-9.0 -24.5 Q1.5 -18.5 4.75 -22.75 M30.65 72.05 L34.5 71.25 44.5 67.25 50.5 63.0 Q63.5 85.5 41.25 96.75 27.0 102.75 11.5 98.75 7.25 96.5 6.75 94.75 L3.75 82.0 19.75 78.5 29.5 72.25 30.65 72.05 M-4.5 81.75 L-4.5 84.75 -6.75 92.25 Q-16.25 107.5 -49.25 92.75 -64.25 82.5 -46.5 53.25 -35.5 78.75 -4.5 81.75" fill="#e58508" fill-rule="evenodd" stroke="none"/>
    <path d="M-89.4 23.25 L-90.0 22.5 -90.15 20.75 -85.5 5.85 -81.0 -5.65 -78.75 -9.65 -75.25 -14.25 -75.25 -14.4 -75.0 -14.5 -75.0 -14.75 -74.75 -15.0 -74.65 -15.25 -65.25 -24.75 -52.15 -36.15 -43.65 -42.0 -39.9 -43.25 -31.4 -53.5 -21.4 -63.75 -11.75 -70.5 Q-5.4 -74.0 -0.5 -73.65 3.35 -73.5 10.1 -68.5 L17.5 -61.9 28.25 -49.5 44.1 -26.75 51.25 -24.65 66.1 -17.5 85.85 -6.0 106.85 7.75 107.1 8.0 110.1 10.5 110.75 11.75 118.35 16.85 125.0 26.85 125.85 28.35 131.6 46.0 133.5 55.75 135.6 80.85 133.75 87.1 133.5 87.75 132.6 87.1 132.35 86.85 127.0 80.5 118.35 66.6 118.35 66.0 112.6 57.75 112.5 57.0 111.85 56.5 107.0 48.1 106.6 48.1 105.85 46.1 96.75 30.1 96.25 28.1 93.5 21.75 93.25 21.0 93.75 20.6 54.85 2.1 39.5 -6.9 35.75 -9.9 36.5 -5.75 39.5 -3.25 54.0 5.1 61.0 8.5 64.5 24.75 63.35 32.35 Q61.35 38.25 54.25 44.6 L45.85 49.85 36.35 53.5 33.0 54.0 34.6 58.25 34.5 59.75 33.35 62.1 28.25 68.75 21.0 73.5 4.1 76.6 -15.25 74.5 -32.25 67.6 -33.0 66.6 -44.65 56.85 -48.65 49.6 -50.4 41.6 -50.5 40.0 -49.0 34.25 Q-61.9 23.25 -61.9 9.5 L-61.9 7.25 -60.75 -0.25 -59.15 -6.5 -59.25 -6.65 -54.15 -10.25 -49.5 -17.75 -56.4 -12.65 -75.15 -1.65 -76.0 -2.0 -75.9 -1.5 -75.15 -1.25 -76.25 1.0 -80.15 6.5 -85.15 16.1 -89.4 23.25 M50.6 63.25 Q54.85 71.6 55.0 77.85 L55.0 78.25 54.75 80.5 54.75 81.25 54.35 81.5 54.6 81.75 Q50.25 92.5 31.75 96.25 12.75 99.5 6.75 91.1 L8.1 90.35 15.1 90.1 17.75 89.6 18.1 89.6 22.85 88.75 27.35 87.25 34.5 83.35 39.5 79.1 41.35 76.85 42.75 74.6 44.85 70.25 46.6 68.85 49.35 65.6 50.1 63.6 50.6 63.25 M-55.65 81.75 L-55.75 81.5 -55.9 81.25 Q-57.5 74.0 -51.25 62.25 L-51.25 63.85 -50.5 65.5 -47.9 68.85 -46.0 70.25 -43.9 74.6 -40.65 79.1 -35.5 83.35 -28.5 87.25 -23.75 88.75 -19.4 89.6 -19.0 89.6 -14.15 90.25 -9.15 90.35 -7.9 91.1 Q-13.15 99.75 -34.5 95.85 -51.75 92.1 -55.65 81.75 M10.6 -6.9 L7.5 -1.15 Q-1.75 13.1 -12.5 11.85 L-15.5 11.35 -15.75 11.25 -18.4 10.75 Q-23.0 10.0 -26.75 4.0 L-27.9 2.25 -28.65 10.0 -24.0 30.5 -19.65 37.1 -13.0 40.25 -5.65 40.35 -0.25 36.0 8.5 18.5 10.5 8.0 10.6 7.75 10.85 6.1 10.6 -6.9 M-27.65 -19.15 L-27.65 -18.0 -27.4 -19.0 -27.65 -19.15" fill="#cecece" fill-opacity="0.0" fill-rule="evenodd" stroke="none"/>
    <path d="M132.35 86.85 L127.6 83.25 109.1 54.5 97.1 33.35 93.1 23.1 61.0 8.5 54.0 5.1 39.5 -3.25 36.5 -5.75 35.75 -9.9 39.5 -6.9 54.85 2.1 93.75 20.6 93.25 21.0 93.5 21.75 96.25 28.1 96.75 30.1 105.85 46.1 106.6 48.1 107.0 48.1 111.85 56.5 112.5 57.0 112.6 57.75 118.35 66.0 118.35 66.6 127.0 80.5 132.35 86.85 M64.5 24.75 L65.25 30.25 64.35 42.35 63.5 45.75 58.85 55.1 Q52.5 63.0 50.6 63.25 L50.1 63.6 49.35 65.6 46.6 68.85 44.85 70.25 42.75 74.6 41.35 76.85 39.5 79.1 34.5 83.35 27.35 87.25 22.85 88.75 18.1 89.6 17.75 89.6 15.1 90.1 8.1 90.35 6.75 91.1 Q12.75 99.5 31.75 96.25 50.25 92.5 54.6 81.75 L54.35 81.5 54.75 81.25 54.6 81.75 54.75 82.35 52.1 88.1 49.35 91.5 Q42.1 97.6 32.25 99.25 L27.5 100.0 Q15.6 101.5 8.6 96.85 5.85 96.0 4.0 81.85 L-5.15 81.35 -5.0 81.75 -5.0 81.85 -5.9 87.5 -6.4 89.25 Q-8.65 102.85 -28.5 100.0 L-33.25 99.25 Q-50.65 96.85 -55.65 81.75 -51.75 92.1 -34.5 95.85 -13.15 99.75 -7.9 91.1 L-9.15 90.35 -14.15 90.25 -19.0 89.6 -19.4 89.6 -23.75 88.75 -28.5 87.25 -35.5 83.35 -40.65 79.1 -43.9 74.6 -46.0 70.25 -47.9 68.85 -50.5 65.5 -51.25 63.85 -51.25 62.25 -46.9 54.75 -49.25 49.1 Q-63.75 34.6 -61.9 9.5 -61.9 23.25 -49.0 34.25 L-50.5 40.0 -50.4 41.6 -48.65 49.6 -44.65 56.85 -33.0 66.6 -32.25 67.6 -15.25 74.5 4.1 76.6 21.0 73.5 28.25 68.75 33.35 62.1 34.5 59.75 34.6 58.25 33.0 54.0 36.35 53.5 45.85 49.85 54.25 44.6 Q61.35 38.25 63.35 32.35 L64.5 24.75 M-59.25 -6.65 L-68.65 -1.9 -76.5 10.85 -83.9 20.1 -87.15 23.5 -88.4 23.75 -89.4 23.25 -85.15 16.1 -80.15 6.5 -76.25 1.0 -75.15 -1.25 -75.9 -1.5 -76.0 -2.0 -75.15 -1.65 -56.4 -12.65 -49.5 -17.75 -54.15 -10.25 -59.25 -6.65 M-27.65 -19.15 L-27.4 -19.0 -27.65 -18.0 -27.65 -19.15 M10.6 -6.9 L10.85 6.1 10.6 7.75 10.5 8.0 8.5 18.5 -0.25 36.0 -5.65 40.35 -13.0 40.25 -19.65 37.1 -24.0 30.5 -28.65 10.0 -27.9 2.25 -26.75 4.0 Q-23.0 10.0 -18.4 10.75 L-15.75 11.25 -15.5 11.35 -12.5 11.85 Q-1.75 13.1 7.5 -1.15 L10.6 -6.9" fill="#000000" fill-opacity="0.49803922" fill-rule="evenodd" stroke="none"/>
  </g>
</svg>
