<?xml version="1.0" encoding="UTF-8" standalone="no"?>
<svg xmlns:ffdec="https://www.free-decompiler.com/flash" xmlns:xlink="http://www.w3.org/1999/xlink" ffdec:objectType="shape" height="174.05px" width="243.6px" xmlns="http://www.w3.org/2000/svg">
  <g transform="matrix(1.0, 0.0, 0.0, 1.0, 91.75, 73.55)">
    <path d="M-18.75 -26.75 L-20.5 -32.25 -20.0 -36.25 Q-19.75 -37.75 -13.0 -37.5 L-7.25 -35.75 -6.0 -35.25 1.25 -35.0 Q5.5 -34.25 9.5 -31.0 L9.25 -27.25 6.25 -23.0 Q3.25 -20.5 -1.0 -21.25 L-7.5 -24.25 -14.25 -23.5 Q-19.0 -25.5 -18.75 -26.75 M9.5 -0.75 L14.75 14.25 16.0 20.75 22.0 34.0 25.0 38.5 31.5 45.0 36.75 55.5 37.0 62.75 Q34.65 69.45 32.85 70.35 L32.25 70.5 22.5 77.5 8.5 81.25 3.75 81.75 -4.75 82.0 Q-31.5 80.5 -46.5 53.5 L-46.5 53.0 -49.0 46.25 -48.25 40.5 Q-42.25 38.5 -26.5 0.75 L-25.75 2.75 Q-22.25 11.25 -12.25 12.0 L-11.5 12.25 -9.5 12.25 Q0.25 13.5 9.5 -0.75 M-16.5 -27.75 L-16.0 -26.75 -13.25 -25.25 Q-9.25 -26.0 -11.5 -29.0 L-12.5 -29.25 -13.75 -30.25 -14.25 -30.5 -14.75 -30.25 -14.75 -30.0 -15.25 -29.75 -16.0 -29.75 -16.5 -27.75 M1.5 -25.5 L1.0 -27.0 -1.0 -28.0 -1.75 -28.0 -3.0 -27.75 -3.5 -27.5 Q-5.5 -27.5 -3.75 -23.75 L-0.25 -23.25 1.5 -25.5" fill="#ffffff" fill-rule="evenodd" stroke="none"/>
    <path d="M1.5 -25.5 L-0.25 -23.25 -3.75 -23.75 Q-5.5 -27.5 -3.5 -27.5 L-3.0 -27.75 -1.75 -28.0 -1.0 -28.0 1.0 -27.0 1.5 -25.5 M-16.5 -27.75 L-16.0 -29.75 -15.25 -29.75 -14.75 -30.0 -14.75 -30.25 -14.25 -30.5 -13.75 -30.25 -12.5 -29.25 -11.5 -29.0 Q-9.25 -26.0 -13.25 -25.25 L-16.0 -26.75 -16.5 -27.75" fill="#000000" fill-rule="evenodd" stroke="none"/>
    <path d="M6.25 -23.0 Q18.5 -14.75 9.5 -0.75 0.25 13.5 -9.5 12.25 L-11.5 12.25 -12.25 12.0 Q-22.25 11.25 -25.75 2.75 L-26.5 0.75 Q-30.5 -20.5 -18.75 -26.75 -19.0 -25.5 -14.25 -23.5 L-7.5 -24.25 -1.0 -21.25 Q3.25 -20.5 6.25 -23.0 M32.85 70.35 L38.0 69.0 45.25 65.5 50.25 61.75 Q63.75 86.25 41.25 96.75 28.0 103.0 10.75 98.25 8.25 98.25 5.75 92.0 L3.75 81.75 8.5 81.25 22.5 77.5 32.25 70.5 32.85 70.35 M-4.75 82.0 L-4.5 84.75 -6.75 92.25 Q-16.25 107.5 -49.25 92.75 -64.25 82.25 -46.5 53.5 -31.5 80.5 -4.75 82.0" fill="#e58508" fill-rule="evenodd" stroke="none"/>
    <path d="M-91.0 27.25 L-91.75 26.1 -91.65 24.0 -86.4 7.25 -82.4 -2.75 -80.5 -6.4 -76.75 -11.25 -76.75 -11.4 -73.65 -15.15 -73.25 -15.4 -73.0 -15.5 Q-50.9 -39.15 -40.4 -41.9 L-29.75 -54.9 -21.9 -62.9 -12.0 -70.15 Q-5.65 -74.0 0.1 -73.5 3.35 -73.4 9.1 -69.4 L18.0 -61.9 27.1 -51.65 43.75 -28.65 50.6 -26.75 65.35 -20.0 84.1 -9.5 106.0 4.25 110.25 8.0 117.5 11.75 127.35 22.35 137.6 39.85 142.75 50.85 151.85 76.35 151.85 83.75 150.85 83.25 150.75 83.1 149.35 81.6 145.25 78.5 117.75 47.85 102.75 29.5 96.25 20.0 96.0 19.35 96.75 19.25 56.75 1.1 41.85 -7.25 37.5 -10.65 38.25 -6.5 40.1 -4.9 55.75 3.85 60.6 6.0 64.25 19.75 64.5 22.75 Q63.75 35.1 55.35 42.35 L47.6 47.75 38.5 51.75 35.1 52.5 36.6 57.0 36.6 58.1 35.85 60.1 31.0 67.25 23.75 72.35 6.6 76.35 -12.5 75.1 -29.9 69.0 -42.65 59.1 -47.4 51.6 -49.5 43.25 -49.65 42.25 -48.0 36.35 Q-61.65 26.5 -62.75 11.0 L-61.5 2.1 -60.25 -3.75 Q-54.15 -6.15 -49.5 -15.65 L-56.0 -10.65 -67.5 -3.25 -75.9 1.6 -77.15 1.1 -76.75 1.75 -76.0 2.0 -76.65 3.6 -80.75 9.6 -85.5 18.6 -88.65 23.35 -88.75 24.1 -91.0 27.25 M50.0 62.1 L53.5 69.75 55.0 76.1 54.75 81.25 54.35 81.5 54.6 81.75 Q50.25 92.5 31.75 96.25 12.75 99.5 6.75 91.1 L8.1 90.35 15.1 90.1 17.75 89.6 18.1 89.6 22.85 88.75 27.35 87.25 34.5 83.35 39.5 79.1 41.35 76.85 44.85 70.25 46.6 68.85 49.35 65.6 50.25 63.85 50.0 62.1 M-55.65 81.75 L-55.75 81.5 -55.9 81.25 Q-57.5 74.0 -51.25 62.25 L-51.25 63.85 -50.5 65.5 -47.9 68.85 -46.0 70.25 -43.9 74.6 -40.65 79.1 -35.5 83.35 -28.5 87.25 -23.75 88.75 -19.4 89.6 -19.0 89.6 -14.15 90.25 -9.15 90.35 -7.9 91.1 Q-13.15 99.75 -34.5 95.85 -51.75 92.1 -55.65 81.75 M-26.0 -17.9 L-26.15 -18.0 -26.5 -17.9 -26.4 -17.15 -26.0 -17.9 M9.5 -0.9 Q1.0 12.75 -9.15 12.35 L-9.5 12.25 -10.25 12.25 -12.5 12.0 -12.9 11.85 -17.4 10.85 -20.75 9.1 -22.5 7.5 -25.0 4.1 -26.0 1.6 -26.15 1.6 -26.5 0.6 -26.4 1.75 -26.65 2.75 -27.0 11.0 -21.9 31.5 -17.4 37.85 -10.75 40.75 -3.4 40.6 2.25 35.85 10.6 18.35 12.5 7.6 12.5 6.85 12.75 5.6 12.35 -7.25 9.5 -0.9" fill="#cecece" fill-opacity="0.0" fill-rule="evenodd" stroke="none"/>
    <path d="M150.75 83.1 L145.1 80.0 116.75 49.1 102.75 32.1 95.6 21.35 60.6 6.0 55.75 3.85 40.1 -4.9 38.25 -6.5 37.5 -10.65 41.85 -7.25 56.75 1.1 96.75 19.25 96.0 19.35 96.25 20.0 102.75 29.5 117.75 47.85 145.25 78.5 149.35 81.6 150.75 83.1 M64.5 22.75 L65.1 26.35 64.75 39.1 63.5 43.25 Q61.85 52.5 50.0 62.1 L50.25 63.85 49.35 65.6 46.6 68.85 44.85 70.25 41.35 76.85 39.5 79.1 34.5 83.35 27.35 87.25 22.85 88.75 18.1 89.6 17.75 89.6 15.1 90.1 8.1 90.35 6.75 91.1 Q12.75 99.5 31.75 96.25 50.25 92.5 54.6 81.75 L54.35 81.5 54.75 81.25 54.6 81.75 54.75 82.35 52.35 87.6 49.35 91.5 Q42.1 97.6 32.25 99.25 L27.5 100.0 Q15.6 101.5 8.6 96.85 5.85 96.0 4.0 81.85 L4.0 81.75 3.85 81.6 -5.15 81.5 -5.0 81.75 -5.0 81.85 -5.9 87.5 -6.4 89.25 Q-8.65 102.85 -28.5 100.0 L-33.25 99.25 Q-50.65 96.85 -55.65 81.75 -51.75 92.1 -34.5 95.85 -13.15 99.75 -7.9 91.1 L-9.15 90.35 -14.15 90.25 -19.0 89.6 -19.4 89.6 -23.75 88.75 -28.5 87.25 -35.5 83.35 -40.65 79.1 -43.9 74.6 -46.0 70.25 -47.9 68.85 -50.5 65.5 -51.25 63.85 -51.25 62.25 -46.75 54.5 -47.75 52.1 Q-64.75 37.6 -62.75 11.0 -61.65 26.5 -48.0 36.35 L-49.65 42.25 -49.5 43.25 -47.4 51.6 -42.65 59.1 -29.9 69.0 -12.5 75.1 6.6 76.35 23.75 72.35 31.0 67.25 35.85 60.1 36.6 58.1 36.6 57.0 35.1 52.5 38.5 51.75 47.6 47.75 55.35 42.35 Q63.75 35.1 64.5 22.75 M-60.25 -3.75 L-69.9 1.35 -71.5 4.5 -78.0 14.5 -88.75 27.5 -90.75 27.6 -91.0 27.25 -88.75 24.1 -88.65 23.35 -85.5 18.6 -80.75 9.6 -76.65 3.6 -76.0 2.0 -76.75 1.75 -77.15 1.1 -75.9 1.6 -67.5 -3.25 -56.0 -10.65 -49.5 -15.65 Q-54.15 -6.15 -60.25 -3.75 M-26.0 -17.9 L-26.4 -17.15 -26.5 -17.9 -26.15 -18.0 -26.0 -17.9 M9.5 -0.9 L12.35 -7.25 12.75 5.6 12.5 6.85 12.5 7.6 10.6 18.35 2.25 35.85 -3.4 40.6 -10.75 40.75 -17.4 37.85 -21.9 31.5 -27.0 11.0 -26.65 2.75 -26.4 1.75 -26.5 0.6 -26.15 1.6 -26.0 1.6 -25.0 4.1 -22.5 7.5 -20.75 9.1 -17.4 10.85 -12.9 11.85 -12.5 12.0 -10.25 12.25 -9.5 12.25 -9.15 12.35 Q1.0 12.75 9.5 -0.9" fill="#000000" fill-opacity="0.49803922" fill-rule="evenodd" stroke="none"/>
  </g>
</svg>
