<?xml version="1.0" encoding="UTF-8" standalone="no"?>
<svg xmlns:ffdec="https://www.free-decompiler.com/flash" xmlns:xlink="http://www.w3.org/1999/xlink" ffdec:objectType="shape" height="174.05px" width="254.9px" xmlns="http://www.w3.org/2000/svg">
  <g transform="matrix(1.0, 0.0, 0.0, 1.0, 92.9, 73.55)">
    <path d="M-17.5 -26.25 L-19.0 -29.25 -19.25 -35.5 -14.25 -37.0 Q-11.0 -38.0 -6.0 -35.5 L-4.75 -35.0 -4.5 -35.0 -3.5 -35.25 1.75 -35.25 Q8.75 -33.75 10.75 -31.5 L10.25 -26.75 7.75 -23.25 Q1.0 -19.0 -5.75 -24.0 L-12.5 -23.0 Q-18.0 -24.5 -17.5 -26.25 M11.25 -0.75 L16.5 13.0 18.0 20.0 23.75 32.25 Q25.0 36.0 33.25 43.25 L38.5 53.25 39.0 60.75 Q36.0 68.25 34.75 68.5 L34.25 68.75 24.75 76.5 10.75 81.0 3.75 81.75 -4.75 82.25 -24.25 76.5 -37.75 67.25 -45.5 55.25 -46.0 53.5 -48.25 48.0 Q-46.75 45.75 -47.25 42.5 L-44.0 40.75 -43.75 39.25 -40.75 35.5 -35.25 25.5 -31.5 17.75 -28.0 7.25 -24.5 1.0 Q-18.25 14.0 -9.0 12.5 L-7.0 12.75 Q4.25 13.0 11.25 -0.75 M-13.25 -29.75 L-13.25 -29.5 -13.75 -29.25 Q-17.25 -27.25 -11.75 -24.75 -7.75 -25.25 -10.0 -28.75 L-10.75 -29.0 -11.0 -29.5 -12.25 -29.75 -12.75 -30.0 -13.25 -29.75 M2.0 -27.25 L0.5 -28.0 -0.25 -28.0 -1.25 -27.25 -1.75 -27.5 -3.0 -26.75 -2.75 -25.0 -0.75 -23.25 Q4.75 -23.25 2.0 -27.25" fill="#ffffff" fill-rule="evenodd" stroke="none"/>
    <path d="M2.0 -27.25 Q4.75 -23.25 -0.75 -23.25 L-2.75 -25.0 -3.0 -26.75 -1.75 -27.5 -1.25 -27.25 -0.25 -28.0 0.5 -28.0 2.0 -27.25 M-13.25 -29.75 L-12.75 -30.0 -12.25 -29.75 -11.0 -29.5 -10.75 -29.0 -10.0 -28.75 Q-7.75 -25.25 -11.75 -24.75 -17.25 -27.25 -13.75 -29.25 L-13.25 -29.5 -13.25 -29.75" fill="#000000" fill-rule="evenodd" stroke="none"/>
    <path d="M7.75 -23.25 Q20.0 -15.75 11.25 -0.75 4.25 13.0 -7.0 12.75 L-9.0 12.5 Q-18.25 14.0 -24.5 1.0 -28.5 -23.0 -17.5 -26.25 -18.0 -24.5 -12.5 -23.0 L-5.75 -24.0 Q1.0 -19.0 7.75 -23.25 M34.75 68.5 Q39.0 67.75 44.0 64.75 L49.5 61.0 Q64.0 86.5 41.25 96.75 28.0 103.0 10.75 98.25 8.25 98.25 5.75 92.0 L3.75 81.75 10.75 81.0 24.75 76.5 34.25 68.75 34.75 68.5 M-4.75 82.25 L-4.5 84.75 -6.75 92.25 Q-16.25 107.5 -49.25 92.75 L-54.0 86.5 -56.0 79.75 -55.0 71.5 -52.0 63.0 -47.0 54.25 -46.5 54.75 -45.5 55.25 -37.75 67.25 -24.25 76.5 -4.75 82.25" fill="#e58508" fill-rule="evenodd" stroke="none"/>
    <path d="M-92.25 31.1 Q-94.75 28.35 -87.75 10.75 L-81.9 -3.4 -78.15 -8.25 -78.0 -8.9 -74.75 -12.5 Q-52.5 -36.9 -41.25 -40.4 -20.25 -70.65 0.25 -73.5 2.6 -73.9 9.5 -69.4 L17.75 -62.5 27.35 -52.0 36.0 -40.9 43.35 -30.4 50.35 -28.5 65.6 -21.65 85.25 -10.65 104.1 1.25 107.85 4.35 114.75 7.1 125.5 16.5 139.6 34.35 146.1 44.25 160.35 69.6 162.0 76.85 162.0 77.25 161.25 77.0 161.35 76.75 155.1 72.85 141.6 60.85 141.25 60.1 132.25 52.75 106.5 28.5 97.1 18.1 98.0 17.6 79.0 9.6 58.6 0.35 42.85 -8.25 39.1 -11.25 40.25 -6.65 56.6 2.6 60.5 4.25 64.35 18.25 64.35 20.5 Q64.25 32.85 56.6 39.75 L49.6 45.35 41.35 49.5 37.1 50.85 38.6 55.0 38.5 56.85 38.1 57.1 38.0 58.25 33.6 65.35 26.25 71.25 9.5 76.0 -9.65 75.6 -27.65 70.1 -41.0 60.85 -46.0 53.6 -48.5 45.25 -48.4 42.6 Q-47.75 42.25 -47.0 38.35 -61.15 29.5 -63.4 13.5 L-61.4 -0.75 -54.25 -5.75 -49.9 -12.5 -49.5 -13.65 -56.4 -8.0 -76.25 4.85 -77.75 4.35 -76.65 5.1 -77.5 7.35 -81.65 13.5 -81.75 14.35 -82.15 14.5 -86.4 22.25 -92.25 31.1 M14.0 -7.5 L11.35 -1.0 Q2.5 13.85 -6.9 12.6 L-9.75 12.35 Q-19.4 11.35 -22.15 5.6 L-23.15 4.0 -24.15 1.6 -24.25 1.6 -25.15 -1.5 -25.25 -1.5 -25.5 0.0 -25.0 2.85 -25.25 3.85 -25.25 12.0 -19.9 31.85 -19.9 32.35 -19.25 32.75 -15.15 38.6 -8.4 41.1 -1.25 40.75 4.6 35.6 12.35 18.35 14.5 5.0 14.0 -7.5 M54.85 80.35 Q49.85 93.0 34.75 95.6 11.5 99.75 6.75 91.1 L8.1 90.35 15.1 90.1 17.75 89.6 18.1 89.6 22.85 88.75 27.35 87.25 34.5 83.35 39.5 79.1 41.35 76.85 44.85 70.25 46.6 68.85 49.35 65.6 50.25 63.85 50.1 62.25 52.85 67.85 54.25 72.35 55.1 77.85 54.85 80.1 54.85 80.35 M-25.4 -16.9 L-25.15 -16.0 -24.75 -16.9 -25.4 -16.9 M-51.25 62.25 L-51.25 63.85 -50.5 65.5 -47.9 68.85 -46.0 70.25 -43.9 74.6 -40.65 79.1 -35.5 83.35 Q-32.05 85.25 -28.65 87.1 L-23.75 88.75 -19.4 89.6 -19.0 89.6 -14.15 90.25 -9.15 90.35 -7.9 91.1 Q-13.15 99.75 -34.5 95.85 -51.75 92.1 -55.65 81.75 L-55.75 81.5 -55.9 81.25 Q-57.5 74.0 -51.25 62.25" fill="#cecece" fill-opacity="0.0" fill-rule="evenodd" stroke="none"/>
    <path d="M-92.25 31.1 L-86.4 22.25 -82.15 14.5 -81.75 14.35 -81.65 13.5 -77.5 7.35 -76.65 5.1 -77.75 4.35 -76.25 4.85 -56.4 -8.0 -49.5 -13.65 -49.9 -12.5 -54.25 -5.75 -61.4 -0.75 -70.75 4.5 -73.65 9.5 -75.15 11.35 -75.15 11.85 -79.9 18.6 -80.0 18.85 -89.9 31.25 -92.25 31.35 -92.25 31.1 M-63.4 13.5 Q-61.15 29.5 -47.0 38.35 -47.75 42.25 -48.4 42.6 L-48.5 45.25 -46.0 53.6 -41.0 60.85 -27.65 70.1 -9.65 75.6 9.5 76.0 26.25 71.25 33.6 65.35 38.0 58.25 38.1 57.1 38.5 56.85 38.6 55.0 37.1 50.85 41.35 49.5 49.6 45.35 56.6 39.75 Q64.25 32.85 64.35 20.5 L65.1 31.25 64.85 36.35 61.75 46.85 55.5 56.1 49.6 61.1 50.1 62.25 50.25 63.85 49.35 65.6 46.6 68.85 44.85 70.25 41.35 76.85 39.5 79.1 34.5 83.35 27.35 87.25 22.85 88.75 18.1 89.6 17.75 89.6 15.1 90.1 8.1 90.35 6.75 91.1 Q11.5 99.75 34.75 95.6 49.85 93.0 54.85 80.35 53.35 94.35 32.25 99.25 L27.5 100.0 Q15.6 101.5 8.6 96.85 5.85 96.0 4.0 81.85 L4.0 81.75 3.85 81.35 -5.15 81.6 -5.0 81.75 -5.0 81.85 -5.9 87.5 -6.4 89.25 Q-8.65 102.85 -28.5 100.0 L-33.25 99.25 Q-50.65 96.85 -55.65 81.75 -51.75 92.1 -34.5 95.85 -13.15 99.75 -7.9 91.1 L-9.15 90.35 -14.15 90.25 -19.0 89.6 -19.4 89.6 -23.75 88.75 -28.65 87.1 Q-32.05 85.25 -35.5 83.35 L-40.65 79.1 -43.9 74.6 -46.0 70.25 -47.9 68.85 -50.5 65.5 -51.25 63.85 -51.25 62.25 -46.75 54.6 Q-65.25 40.6 -63.4 13.5 M60.5 4.25 L56.6 2.6 40.25 -6.65 39.1 -11.25 42.85 -8.25 58.6 0.35 79.0 9.6 98.0 17.6 97.1 18.1 106.5 28.5 132.25 52.75 141.25 60.1 141.6 60.85 155.1 72.85 161.35 76.75 161.25 77.0 154.75 74.1 141.85 62.6 124.25 47.75 107.85 32.25 96.5 19.5 76.6 11.35 60.5 4.25 M14.0 -7.5 L14.5 5.0 12.35 18.35 4.6 35.6 -1.25 40.75 -8.4 41.1 -15.15 38.6 -19.25 32.75 -19.9 32.35 -19.9 31.85 -25.25 12.0 -25.25 3.85 -25.0 2.85 -25.5 0.0 -25.25 -1.5 -25.15 -1.5 -24.25 1.6 -24.15 1.6 -23.15 4.0 -22.15 5.6 Q-19.4 11.35 -9.75 12.35 L-6.9 12.6 Q2.5 13.85 11.35 -1.0 L14.0 -7.5 M-25.4 -16.9 L-24.75 -16.9 -25.15 -16.0 -25.4 -16.9" fill="#000000" fill-opacity="0.49803922" fill-rule="evenodd" stroke="none"/>
  </g>
</svg>
