<?xml version="1.0" encoding="UTF-8" standalone="no"?>
<svg xmlns:ffdec="https://www.free-decompiler.com/flash" xmlns:xlink="http://www.w3.org/1999/xlink" ffdec:objectType="shape" height="174.0px" width="257.75px" xmlns="http://www.w3.org/2000/svg">
  <g transform="matrix(1.0, 0.0, 0.0, 1.0, 94.15, 73.5)">
    <path d="M-16.25 -25.5 L-18.0 -28.75 -18.25 -35.0 -13.25 -36.5 Q-7.5 -37.25 -5.0 -35.5 L-3.75 -34.75 -3.25 -35.0 3.75 -35.25 Q11.25 -33.25 11.75 -31.75 L11.75 -28.25 9.0 -23.75 Q6.5 -19.25 -4.25 -23.75 L-12.0 -22.75 Q-16.5 -24.0 -16.25 -25.5 M13.0 -1.0 L18.25 12.5 19.75 19.25 27.0 33.75 35.25 42.5 40.25 51.75 40.25 60.5 Q37.9 66.1 36.65 66.9 L36.25 67.0 26.5 75.5 Q7.25 83.25 3.75 81.75 L-4.75 82.25 -23.0 77.25 -36.5 68.5 -43.75 57.75 -44.5 56.5 -47.25 50.0 Q-45.25 45.5 -46.25 44.75 -33.0 30.5 -22.75 1.0 -18.5 13.0 -6.5 12.75 L-3.75 12.75 Q8.75 11.0 13.0 -1.0 M1.25 -28.0 L0.25 -27.25 -0.25 -27.5 Q-2.75 -26.25 -0.25 -23.5 L2.5 -23.25 4.5 -25.25 4.25 -27.0 2.0 -28.25 1.25 -28.0 M-13.5 -26.5 Q-6.25 -22.25 -8.75 -28.5 L-9.0 -28.75 -9.5 -28.5 -10.25 -29.25 -10.75 -29.5 -11.5 -29.5 -12.5 -29.0 -13.0 -28.25 -13.0 -28.0 -13.5 -26.5" fill="#ffffff" fill-rule="evenodd" stroke="none"/>
    <path d="M1.25 -28.0 L2.0 -28.25 4.25 -27.0 4.5 -25.25 2.5 -23.25 -0.25 -23.5 Q-2.75 -26.25 -0.25 -27.5 L0.25 -27.25 1.25 -28.0 M-13.5 -26.5 L-13.0 -28.0 -13.0 -28.25 -12.5 -29.0 -11.5 -29.5 -10.75 -29.5 -10.25 -29.25 -9.5 -28.5 -9.0 -28.75 -8.75 -28.5 Q-6.25 -22.25 -13.5 -26.5" fill="#000000" fill-rule="evenodd" stroke="none"/>
    <path d="M9.0 -23.75 Q21.0 -17.25 13.0 -1.0 8.75 11.0 -3.75 12.75 L-6.5 12.75 Q-18.5 13.0 -22.75 1.0 -27.5 -22.25 -16.25 -25.5 -16.5 -24.0 -12.0 -22.75 L-4.25 -23.75 Q6.5 -19.25 9.0 -23.75 M36.65 66.9 L40.75 65.5 49.25 60.0 Q64.75 84.5 41.25 96.75 28.0 103.0 10.75 98.25 8.25 98.25 5.75 92.0 L3.75 81.75 Q7.25 83.25 26.5 75.5 L36.25 67.0 36.65 66.9 M-4.75 82.25 L-4.5 84.75 -6.75 92.25 Q-16.25 107.5 -49.25 92.75 L-54.0 86.5 -56.0 79.75 -55.0 71.5 -52.25 63.75 -47.75 55.25 -43.75 57.75 -36.5 68.5 -23.0 77.25 -4.75 82.25" fill="#e58508" fill-rule="evenodd" stroke="none"/>
    <path d="M-93.25 34.85 L-94.15 33.6 -94.15 31.6 -89.15 14.85 -85.0 5.0 -83.4 0.1 -78.0 -7.65 -76.0 -9.75 Q-51.65 -36.9 -41.9 -39.0 -18.65 -71.75 0.1 -73.5 8.35 -71.9 17.1 -63.4 L21.5 -59.15 30.0 -49.5 36.5 -41.15 43.0 -31.9 50.1 -30.0 65.1 -23.15 81.75 -13.65 101.0 -1.4 104.25 1.1 110.1 3.0 122.25 12.25 136.5 28.0 144.25 37.75 161.1 61.85 163.5 68.75 163.6 69.5 163.0 69.25 157.1 66.0 144.1 56.0 143.75 55.35 125.6 42.0 108.35 27.75 96.6 16.6 97.6 16.1 78.75 8.25 59.5 -0.4 44.6 -8.65 40.35 -11.9 41.85 -7.0 60.75 3.1 62.6 9.0 64.0 15.35 64.5 22.85 64.6 23.5 62.35 29.6 62.35 30.5 57.5 37.6 50.75 43.5 41.85 48.35 38.75 49.25 40.25 53.35 40.1 55.85 35.1 64.5 28.5 70.1 12.25 75.5 -7.0 75.85 -25.25 71.35 -39.5 62.35 -44.9 54.75 -47.5 46.85 -47.4 44.75 Q-46.75 44.35 -46.0 40.25 -60.65 32.0 -63.9 15.6 L-63.25 7.85 -62.25 3.5 -62.25 2.0 Q-52.65 -2.65 -49.15 -11.9 L-56.4 -5.75 -66.0 0.6 -67.0 1.6 -76.75 7.75 -78.15 7.35 -77.0 8.1 -78.0 10.5 -82.0 16.6 -82.15 17.5 -82.5 17.6 -85.65 23.35 -90.5 30.6 -90.75 31.6 -93.25 34.85 M15.5 -7.75 L13.1 -1.25 Q8.25 11.25 -3.75 12.75 L-7.5 12.6 Q-15.65 14.25 -22.4 1.6 L-22.5 1.6 -23.9 -3.9 -24.0 -3.9 -24.15 1.1 -23.65 3.75 -23.9 4.75 -23.75 12.75 -17.75 32.6 -17.9 33.1 -13.0 39.1 -6.25 41.35 1.35 40.6 6.5 35.75 14.6 17.0 15.85 6.35 16.0 6.1 16.1 4.35 15.5 -7.75 M54.85 80.35 Q49.85 93.0 34.75 95.6 11.5 99.75 6.75 91.1 L8.1 90.35 15.1 90.1 17.75 89.6 18.1 89.6 22.85 88.75 27.35 87.25 34.5 83.35 39.5 79.1 41.35 76.85 42.75 74.6 44.85 70.25 46.6 68.85 49.35 65.6 50.25 63.85 50.1 62.25 53.5 69.5 54.5 72.85 55.1 77.85 54.85 80.1 54.85 80.35 M-24.4 -15.75 L-24.15 -12.75 -23.65 -16.0 -24.25 -16.15 -24.4 -15.75 M-51.25 62.25 L-51.25 63.85 -50.5 65.5 -47.9 68.85 -46.0 70.25 -43.9 74.6 -40.65 79.1 -35.5 83.35 Q-32.05 85.25 -28.65 87.1 L-23.75 88.75 -19.4 89.6 -19.0 89.6 -14.15 90.25 -9.15 90.35 -7.9 91.1 Q-13.15 99.75 -34.5 95.85 -51.75 92.1 -55.65 81.75 L-55.75 81.5 -55.9 81.25 Q-57.5 74.0 -51.25 62.25" fill="#cecece" fill-opacity="0.0" fill-rule="evenodd" stroke="none"/>
    <path d="M-93.25 34.85 L-90.75 31.6 -90.5 30.6 -85.65 23.35 -82.5 17.6 -82.15 17.5 -82.0 16.6 -78.0 10.5 -77.0 8.1 -78.15 7.35 -76.75 7.75 -67.0 1.6 -66.0 0.6 -56.4 -5.75 -49.15 -11.9 Q-52.65 -2.65 -62.25 2.0 L-71.5 7.35 -74.25 12.25 -84.0 26.6 -90.9 34.85 -91.75 35.1 -93.4 35.1 -93.25 34.85 M-63.9 15.6 Q-60.65 32.0 -46.0 40.25 -46.75 44.35 -47.4 44.75 L-47.5 46.85 -44.9 54.75 -39.5 62.35 -25.25 71.35 -7.0 75.85 12.25 75.5 28.5 70.1 35.1 64.5 40.1 55.85 40.25 53.35 38.75 49.25 41.85 48.35 50.75 43.5 57.5 37.6 62.35 30.5 62.35 29.6 64.6 23.5 65.1 28.35 64.85 33.85 62.0 44.6 56.25 53.75 49.1 60.25 50.1 62.25 50.25 63.85 49.35 65.6 46.6 68.85 44.85 70.25 42.75 74.6 41.35 76.85 39.5 79.1 34.5 83.35 27.35 87.25 22.85 88.75 18.1 89.6 17.75 89.6 15.1 90.1 8.1 90.35 6.75 91.1 Q11.5 99.75 34.75 95.6 49.85 93.0 54.85 80.35 53.35 94.35 32.25 99.25 L27.5 100.0 Q15.6 101.5 8.6 96.85 5.85 96.0 4.0 81.85 L4.0 81.75 3.85 81.35 -5.0 82.0 -5.9 87.5 -6.4 89.25 Q-8.65 102.85 -28.5 100.0 L-33.25 99.25 Q-50.65 96.85 -55.65 81.75 -51.75 92.1 -34.5 95.85 -13.15 99.75 -7.9 91.1 L-9.15 90.35 -14.15 90.25 -19.0 89.6 -19.4 89.6 -23.75 88.75 -28.65 87.1 Q-32.05 85.25 -35.5 83.35 L-40.65 79.1 -43.9 74.6 -46.0 70.25 -47.9 68.85 -50.5 65.5 -51.25 63.85 -51.25 62.25 -47.4 55.6 -54.0 49.25 -60.25 39.6 -63.75 27.6 -64.15 23.35 -63.9 15.6 M60.75 3.1 L41.85 -7.0 40.35 -11.9 44.6 -8.65 59.5 -0.4 78.75 8.25 97.6 16.1 96.6 16.6 108.35 27.75 125.6 42.0 143.75 55.35 144.1 56.0 157.1 66.0 163.0 69.25 156.75 67.1 126.75 44.85 106.85 28.75 95.6 17.75 60.75 3.1 M15.5 -7.75 L16.1 4.35 16.0 6.1 15.85 6.35 14.6 17.0 6.5 35.75 1.35 40.6 -6.25 41.35 -13.0 39.1 -17.9 33.1 -17.75 32.6 -23.75 12.75 -23.9 4.75 -23.65 3.75 -24.15 1.1 -24.0 -3.9 -23.9 -3.9 -22.5 1.6 -22.4 1.6 Q-15.65 14.25 -7.5 12.6 L-3.75 12.75 Q8.25 11.25 13.1 -1.25 L15.5 -7.75 M-24.4 -15.75 L-24.25 -16.15 -23.65 -16.0 -24.15 -12.75 -24.4 -15.75" fill="#000000" fill-opacity="0.49803922" fill-rule="evenodd" stroke="none"/>
  </g>
</svg>
