<?xml version="1.0" encoding="UTF-8" standalone="no"?>
<svg xmlns:ffdec="https://www.free-decompiler.com/flash" xmlns:xlink="http://www.w3.org/1999/xlink" ffdec:objectType="shape" height="174.15px" width="253.0px" xmlns="http://www.w3.org/2000/svg">
  <g transform="matrix(1.0, 0.0, 0.0, 1.0, 94.75, 73.65)">
    <path d="M3.25 -28.25 L2.5 -28.25 1.0 -27.5 Q-1.0 -27.25 0.75 -23.75 L3.25 -23.25 Q8.0 -25.5 4.5 -27.75 L4.25 -27.75 3.25 -28.25 M-15.25 -25.0 L-17.25 -28.75 -17.5 -34.25 -13.0 -36.0 Q-6.25 -37.0 -3.75 -35.25 L-2.5 -34.75 -1.5 -35.0 3.75 -35.5 Q10.25 -34.75 12.75 -32.25 L12.5 -27.5 10.0 -24.0 Q8.5 -19.25 -3.0 -23.75 L-10.0 -22.25 Q-15.5 -23.5 -15.25 -25.0 M14.5 -0.75 L19.5 11.25 21.25 18.25 27.0 29.75 Q29.25 34.75 36.25 40.25 L41.75 50.5 41.5 58.5 Q39.35 64.65 38.15 65.2 L38.0 65.25 28.25 74.5 Q10.5 82.75 3.75 81.75 L-0.5 82.5 -4.25 82.0 -4.5 82.0 -20.5 78.25 -35.0 69.75 -42.75 59.5 -46.25 51.75 -46.25 50.25 -45.0 48.75 -45.0 46.25 Q-31.0 30.25 -21.25 1.0 L-21.0 1.0 Q-14.75 15.75 -0.75 13.0 12.5 8.75 14.5 -0.75 M-8.25 -28.25 L-9.0 -29.0 -9.5 -29.25 -11.0 -28.5 Q-15.0 -26.25 -9.0 -24.0 -4.75 -25.5 -7.75 -28.5 L-8.25 -28.25" fill="#ffffff" fill-rule="evenodd" stroke="none"/>
    <path d="M3.25 -28.25 L4.25 -27.75 4.5 -27.75 Q8.0 -25.5 3.25 -23.25 L0.75 -23.75 Q-1.0 -27.25 1.0 -27.5 L2.5 -28.25 3.25 -28.25 M-8.25 -28.25 L-7.75 -28.5 Q-4.75 -25.5 -9.0 -24.0 -15.0 -26.25 -11.0 -28.5 L-9.5 -29.25 -9.0 -29.0 -8.25 -28.25" fill="#000000" fill-rule="evenodd" stroke="none"/>
    <path d="M10.0 -24.0 L12.25 -22.75 16.5 -17.25 17.0 -8.75 14.5 -0.75 Q12.5 8.75 -0.75 13.0 -14.75 15.75 -21.0 1.0 L-21.25 1.0 Q-26.75 -21.0 -15.25 -25.0 -15.5 -23.5 -10.0 -22.25 L-3.0 -23.75 Q8.5 -19.25 10.0 -24.0 M38.15 65.2 L41.0 64.25 48.5 59.5 Q63.25 80.0 46.0 94.25 3.0 110.75 3.75 81.75 10.5 82.75 28.25 74.5 L38.0 65.25 38.15 65.2 M-4.5 82.0 L-6.25 90.75 -6.75 92.25 Q-16.25 107.5 -49.25 92.75 L-54.0 86.5 -56.0 79.75 -55.0 71.5 -52.75 65.0 -48.25 56.0 -42.75 59.5 -35.0 69.75 -20.5 78.25 -4.5 82.0" fill="#e58508" fill-rule="evenodd" stroke="none"/>
    <path d="M157.75 61.75 L153.35 59.75 123.25 38.6 108.5 27.35 96.0 16.6 95.0 15.35 95.85 15.0 78.0 7.35 59.35 -1.25 45.35 -9.25 41.75 -12.15 43.1 -7.5 43.6 -7.0 56.75 0.5 60.85 2.35 62.35 7.0 63.5 12.5 64.35 21.6 62.5 28.6 58.25 35.5 51.75 41.6 43.1 46.75 40.1 47.75 41.6 51.75 41.5 54.75 41.0 55.1 37.0 63.0 30.75 68.85 14.35 75.0 -4.9 76.1 -23.4 72.0 -37.9 63.75 -43.25 57.1 -46.4 48.75 -46.4 46.25 Q-45.75 45.85 -44.9 41.85 -60.25 34.0 -64.25 17.5 L-64.0 11.25 -62.75 4.85 -63.0 4.35 Q-52.4 -0.4 -48.9 -10.15 L-55.75 -4.15 -76.4 10.1 -77.0 10.35 -78.25 10.1 -78.0 10.6 -77.25 10.75 -78.0 13.0 -82.25 19.6 -85.4 25.35 -94.0 38.5 Q-96.9 35.35 -88.9 14.75 L-84.4 3.0 -79.0 -5.15 -76.9 -7.4 -76.65 -7.5 Q-53.65 -34.4 -42.4 -37.75 -18.4 -71.65 -0.4 -73.65 21.1 -66.65 42.5 -33.25 L49.35 -31.4 64.0 -24.4 81.0 -14.25 99.6 -1.5 104.6 -0.25 115.5 7.6 131.1 23.6 138.25 31.85 155.85 55.1 158.1 61.1 158.25 61.85 157.75 61.75 M16.75 -7.65 L14.6 -1.25 Q10.6 11.1 -2.0 12.85 L-4.5 12.85 Q-13.65 14.0 -19.9 3.75 L-20.75 1.5 -20.9 1.5 -22.9 -6.5 -22.9 1.85 -22.4 4.5 -22.5 5.35 -22.25 13.5 -16.0 33.85 -15.5 34.0 -11.25 39.35 -4.4 41.5 3.25 40.6 8.35 35.6 16.25 16.35 17.35 5.85 17.35 5.25 17.5 3.85 16.75 -7.65 M-55.65 81.75 L-55.75 81.5 -55.9 81.25 Q-57.5 74.0 -51.25 62.25 L-51.25 63.85 -50.5 65.5 -47.9 68.85 -46.0 70.25 -43.9 74.6 -40.65 79.1 -35.5 83.35 Q-32.05 85.25 -28.65 87.1 L-23.75 88.75 -19.4 89.6 -19.0 89.6 -14.15 90.25 -9.15 90.35 -7.9 91.1 Q-13.15 99.75 -34.5 95.85 -51.75 92.1 -55.65 81.75 M54.85 80.35 Q49.85 93.0 34.75 95.6 11.5 99.75 6.75 91.1 L8.1 90.35 15.1 90.1 17.75 89.6 18.1 89.6 22.85 88.75 27.35 87.25 34.5 83.35 39.5 79.1 41.35 76.85 44.85 70.25 46.6 68.85 49.35 65.6 50.25 63.85 50.1 62.0 53.6 69.75 54.6 73.35 55.1 77.85 54.85 80.1 54.85 80.35 M-23.4 -15.15 L-23.0 -12.15 -22.65 -12.5 -22.65 -15.25 -23.4 -15.15" fill="#cecece" fill-opacity="0.0" fill-rule="evenodd" stroke="none"/>
    <path d="M16.75 -7.65 L17.5 3.85 17.35 5.25 17.35 5.85 16.25 16.35 8.35 35.6 3.25 40.6 -4.4 41.5 -11.25 39.35 -15.5 34.0 -16.0 33.85 -22.25 13.5 -22.5 5.35 -22.4 4.5 -22.9 1.85 -22.9 -6.5 -20.9 1.5 -20.75 1.5 -19.9 3.75 Q-13.65 14.0 -4.5 12.85 L-2.0 12.85 Q10.6 11.1 14.6 -1.25 L16.75 -7.65 M60.85 2.35 L56.75 0.5 43.6 -7.0 43.1 -7.5 41.75 -12.15 45.35 -9.25 59.35 -1.25 78.0 7.35 95.85 15.0 95.0 15.35 96.0 16.6 108.5 27.35 123.25 38.6 153.35 59.75 157.75 61.75 152.0 60.1 122.35 40.0 104.75 26.6 104.0 25.6 94.85 17.85 93.75 16.35 75.1 8.75 60.85 2.35 M-94.0 38.5 L-85.4 25.35 -82.25 19.6 -78.0 13.0 -77.25 10.75 -78.0 10.6 -78.25 10.1 -77.0 10.35 -76.4 10.1 -55.75 -4.15 -48.9 -10.15 Q-52.4 -0.4 -63.0 4.35 L-72.15 10.1 -77.4 19.1 -84.25 29.25 -91.5 38.1 -94.0 38.5 M-64.25 17.5 Q-60.25 34.0 -44.9 41.85 -45.75 45.85 -46.4 46.25 L-46.4 48.75 -43.25 57.1 -37.9 63.75 -23.4 72.0 -4.9 76.1 14.35 75.0 30.75 68.85 37.0 63.0 41.0 55.1 41.5 54.75 41.6 51.75 40.1 47.75 43.1 46.75 51.75 41.6 58.25 35.5 62.5 28.6 64.35 21.6 Q68.0 43.85 48.6 59.5 L50.1 62.0 50.25 63.85 49.35 65.6 46.6 68.85 44.85 70.25 41.35 76.85 39.5 79.1 34.5 83.35 27.35 87.25 22.85 88.75 18.1 89.6 17.75 89.6 15.1 90.1 8.1 90.35 6.75 91.1 Q11.5 99.75 34.75 95.6 49.85 93.0 54.85 80.35 53.35 94.35 32.25 99.25 L27.5 100.0 Q15.6 101.5 8.6 96.85 5.85 96.0 4.0 81.85 L4.0 81.75 3.85 81.35 -4.0 82.25 -5.0 82.0 -5.9 87.5 -6.4 89.25 Q-8.65 102.85 -28.5 100.0 L-33.25 99.25 Q-50.65 96.85 -55.65 81.75 -51.75 92.1 -34.5 95.85 -13.15 99.75 -7.9 91.1 L-9.15 90.35 -14.15 90.25 -19.0 89.6 -19.4 89.6 -23.75 88.75 -28.65 87.1 Q-32.05 85.25 -35.5 83.35 L-40.65 79.1 -43.9 74.6 -46.0 70.25 -47.9 68.85 -50.5 65.5 -51.25 63.85 -51.25 62.25 -47.75 56.25 -53.5 51.25 -60.4 41.5 -64.0 30.0 -64.5 24.85 -64.25 17.5 M-23.4 -15.15 L-22.65 -15.25 -22.65 -12.5 -23.0 -12.15 -23.4 -15.15" fill="#000000" fill-opacity="0.49803922" fill-rule="evenodd" stroke="none"/>
  </g>
</svg>
