<?xml version="1.0" encoding="UTF-8" standalone="no"?>
<svg xmlns:ffdec="https://www.free-decompiler.com/flash" xmlns:xlink="http://www.w3.org/1999/xlink" ffdec:objectType="shape" height="174.15px" width="243.55px" xmlns="http://www.w3.org/2000/svg">
  <g transform="matrix(1.0, 0.0, 0.0, 1.0, 95.3, 73.65)">
    <path d="M6.75 -27.5 L5.5 -28.0 5.25 -28.0 4.25 -28.5 3.75 -28.25 2.25 -27.75 2.25 -27.5 Q-0.25 -26.5 2.0 -23.75 L5.0 -23.5 7.0 -25.5 6.75 -27.5 M-14.5 -24.75 L-16.5 -28.5 -16.75 -33.75 -11.75 -35.75 Q-4.75 -36.75 -3.0 -35.25 L-1.75 -34.75 -1.25 -34.75 -0.5 -35.0 6.0 -35.5 Q10.75 -35.0 13.5 -32.75 L13.25 -27.75 11.25 -24.25 Q9.25 -19.75 -2.0 -23.5 -12.75 -20.5 -14.5 -24.75 M16.0 -0.75 L20.5 10.25 22.5 17.5 28.5 29.5 Q30.0 33.5 37.5 39.25 L42.5 48.5 42.75 57.5 39.5 63.75 30.0 73.5 Q14.0 82.25 3.75 82.0 L0.0 82.5 -4.5 81.75 -14.0 80.25 -20.5 78.0 -33.75 70.5 -41.5 61.25 -44.75 54.5 -45.5 52.25 Q-43.75 50.5 -44.25 47.75 L-40.5 45.0 -40.0 43.0 -36.75 39.0 -31.25 28.75 -27.25 19.75 -24.25 9.75 -20.0 1.0 -19.75 1.0 -18.75 3.25 Q-11.75 15.25 -2.0 13.0 L-1.0 13.0 Q9.0 14.25 16.0 -0.75 M-11.0 -27.5 L-11.25 -26.0 Q-4.0 -21.75 -6.25 -28.0 L-7.0 -28.0 -8.0 -28.75 -8.5 -29.0 -9.5 -28.5 -11.0 -27.5" fill="#ffffff" fill-rule="evenodd" stroke="none"/>
    <path d="M6.75 -27.5 L7.0 -25.5 5.0 -23.5 2.0 -23.75 Q-0.25 -26.5 2.25 -27.5 L2.25 -27.75 3.75 -28.25 4.25 -28.5 5.25 -28.0 5.5 -28.0 6.75 -27.5 M-11.0 -27.5 L-9.5 -28.5 -8.5 -29.0 -8.0 -28.75 -7.0 -28.0 -6.25 -28.0 Q-4.0 -21.75 -11.25 -26.0 L-11.0 -27.5" fill="#000000" fill-rule="evenodd" stroke="none"/>
    <path d="M11.25 -24.25 Q22.75 -18.75 16.0 -0.75 9.0 14.25 -1.0 13.0 L-2.0 13.0 Q-11.75 15.25 -18.75 3.25 L-19.75 1.0 -20.0 1.0 Q-26.25 -17.5 -14.5 -24.75 -12.75 -20.5 -2.0 -23.5 9.25 -19.75 11.25 -24.25 M39.5 63.75 L42.25 62.75 48.25 58.5 Q63.5 86.25 44.75 95.0 1.75 109.75 3.75 82.0 14.0 82.25 30.0 73.5 L39.5 63.75 M-4.5 81.75 L-4.5 84.75 -6.75 92.25 Q-16.25 107.5 -49.25 92.75 L-54.0 86.5 -56.0 79.75 -55.0 71.5 -52.75 65.0 -48.5 56.5 -44.5 59.5 -41.5 61.25 -33.75 70.5 -20.5 78.0 -14.0 80.25 -4.5 81.75" fill="#e58508" fill-rule="evenodd" stroke="none"/>
    <path d="M-94.5 41.25 Q-97.5 37.85 -89.15 15.85 L-85.9 8.1 -85.0 5.1 -78.9 -4.25 -77.5 -5.4 -77.4 -5.4 -77.0 -5.75 Q-54.4 -32.9 -42.75 -36.65 -18.65 -71.15 -0.5 -73.65 8.75 -72.4 19.0 -62.25 L21.5 -60.0 29.6 -51.15 36.5 -42.4 42.25 -34.25 48.5 -32.5 62.25 -25.5 77.1 -16.0 94.6 -3.4 Q106.35 -0.5 124.6 21.25 L131.0 28.85 146.1 49.35 148.25 55.35 147.75 55.35 144.0 53.85 135.0 47.6 133.35 46.1 118.85 36.5 105.1 26.1 93.25 16.0 92.1 14.5 93.25 13.85 92.35 14.0 59.35 -1.5 45.6 -9.75 42.85 -12.0 44.6 -7.4 45.35 -6.65 53.6 -1.5 61.1 2.25 62.0 5.0 64.35 19.5 Q64.6 34.5 41.25 46.5 L42.75 50.6 42.6 53.5 42.25 53.6 38.1 62.1 32.0 68.0 15.75 74.6 -2.9 76.25 -21.65 72.75 -36.75 64.6 -41.15 59.1 -42.0 58.5 -45.5 50.0 -45.5 47.75 -43.9 43.25 Q-46.8 41.65 -49.75 40.0 L-56.9 33.6 -60.4 28.25 -61.75 26.75 -64.25 19.75 Q-63.9 17.1 -64.5 14.85 L-63.5 6.6 -53.9 -0.15 -52.25 -2.25 -48.65 -8.75 -55.4 -2.65 -66.0 4.85 -66.4 5.5 -76.15 12.25 -77.0 12.6 -78.4 12.35 -78.0 12.85 -77.25 13.0 -78.0 15.35 -82.25 21.85 -88.9 33.35 -89.25 33.35 Q-89.15 33.85 -91.25 36.25 L-91.75 37.6 -94.5 41.25 M16.0 -1.15 Q11.6 11.35 0.1 12.85 L-2.25 13.0 -6.65 12.85 -10.9 11.6 Q-17.9 7.1 -19.4 1.5 L-19.5 1.5 -20.15 -0.25 -21.4 -5.25 -21.9 -11.5 -21.65 -14.65 -22.5 -14.65 -21.65 1.75 -21.9 2.35 -21.25 5.1 -21.5 6.25 -21.0 14.25 -14.5 34.1 -9.5 39.85 -2.15 41.6 4.75 40.5 10.25 34.75 17.25 16.6 18.5 5.25 17.75 -7.75 16.0 -1.15 M54.85 80.35 Q49.85 93.0 34.75 95.6 11.5 99.75 6.75 91.1 L8.1 90.35 15.1 90.1 17.75 89.6 18.1 89.6 22.85 88.75 27.35 87.25 34.5 83.35 39.5 79.1 41.35 76.85 44.85 70.25 46.6 68.85 49.35 65.6 50.25 63.85 50.0 61.6 53.6 69.75 54.6 73.35 55.1 77.85 54.85 80.1 54.85 80.35 M-51.25 62.25 L-51.25 63.85 -50.5 65.5 -47.9 68.85 -46.0 70.25 -43.9 74.6 -40.65 79.1 -35.5 83.35 Q-32.05 85.25 -28.65 87.1 L-23.75 88.75 -19.4 89.6 -19.0 89.6 -14.15 90.25 -9.15 90.35 -7.9 91.1 Q-13.15 99.75 -34.5 95.85 -51.75 92.1 -55.65 81.75 L-55.75 81.5 -55.9 81.25 Q-57.5 74.0 -51.25 62.25" fill="#cecece" fill-opacity="0.0" fill-rule="evenodd" stroke="none"/>
    <path d="M-94.5 41.25 L-91.75 37.6 -91.25 36.25 Q-89.15 33.85 -89.25 33.35 L-88.9 33.35 -82.25 21.85 -78.0 15.35 -77.25 13.0 -78.0 12.85 -78.4 12.35 -77.0 12.6 -76.15 12.25 -66.4 5.5 -66.0 4.85 -55.4 -2.65 -48.65 -8.75 -52.25 -2.25 -53.9 -0.15 -63.5 6.6 -72.65 12.5 -77.25 21.0 -83.65 30.5 -92.0 40.85 -94.5 41.25 M-64.5 14.85 Q-63.9 17.1 -64.25 19.75 L-61.75 26.75 -60.4 28.25 -56.9 33.6 -49.75 40.0 Q-46.8 41.65 -43.9 43.25 L-45.5 47.75 -45.5 50.0 -42.0 58.5 -41.15 59.1 -36.75 64.6 -21.65 72.75 -2.9 76.25 15.75 74.6 32.0 68.0 38.1 62.1 42.25 53.6 42.6 53.5 42.75 50.6 41.25 46.5 Q64.6 34.5 64.35 19.5 67.85 42.35 48.25 58.6 L50.0 61.6 50.25 63.85 49.35 65.6 46.6 68.85 44.85 70.25 41.35 76.85 39.5 79.1 34.5 83.35 27.35 87.25 22.85 88.75 18.1 89.6 17.75 89.6 15.1 90.1 8.1 90.35 6.75 91.1 Q11.5 99.75 34.75 95.6 49.85 93.0 54.85 80.35 53.35 94.35 32.25 99.25 L27.5 100.0 Q15.6 101.5 8.6 96.85 5.85 96.0 4.0 81.85 L4.0 81.75 3.85 81.5 -1.9 82.25 -5.0 81.85 -5.9 87.5 -6.4 89.25 Q-8.65 102.85 -28.5 100.0 L-33.25 99.25 Q-50.65 96.85 -55.65 81.75 -51.75 92.1 -34.5 95.85 -13.15 99.75 -7.9 91.1 L-9.15 90.35 -14.15 90.25 -19.0 89.6 -19.4 89.6 -23.75 88.75 -28.65 87.1 Q-32.05 85.25 -35.5 83.35 L-40.65 79.1 -43.9 74.6 -46.0 70.25 -47.9 68.85 -50.5 65.5 -51.25 63.85 -51.25 62.25 -48.25 56.85 -52.9 53.1 -56.9 47.75 -57.5 47.35 -60.5 42.75 -62.9 36.6 -64.25 31.75 -64.9 20.1 -64.5 14.85 M61.1 2.25 L53.6 -1.5 45.35 -6.65 44.6 -7.4 42.85 -12.0 45.6 -9.75 59.35 -1.5 92.35 14.0 93.25 13.85 92.1 14.5 93.25 16.0 105.1 26.1 118.85 36.5 133.35 46.1 135.0 47.6 144.0 53.85 147.75 55.35 142.75 54.25 118.85 38.35 101.6 25.6 91.6 16.85 90.35 15.25 90.1 15.1 73.6 8.1 61.1 2.25 M16.0 -1.15 L17.75 -7.75 18.5 5.25 17.25 16.6 10.25 34.75 4.75 40.5 -2.15 41.6 -9.5 39.85 -14.5 34.1 -21.0 14.25 -21.5 6.25 -21.25 5.1 -21.9 2.35 -21.65 1.75 -22.5 -14.65 -21.65 -14.65 -21.9 -11.5 -21.4 -5.25 -20.15 -0.25 -19.5 1.5 -19.4 1.5 Q-17.9 7.1 -10.9 11.6 L-6.65 12.85 -2.25 13.0 0.1 12.85 Q11.6 11.35 16.0 -1.15" fill="#000000" fill-opacity="0.49803922" fill-rule="evenodd" stroke="none"/>
  </g>
</svg>
