<?xml version="1.0" encoding="UTF-8" standalone="no"?>
<svg xmlns:ffdec="https://www.free-decompiler.com/flash" xmlns:xlink="http://www.w3.org/1999/xlink" ffdec:objectType="shape" height="174.2px" width="231.4px" xmlns="http://www.w3.org/2000/svg">
  <g transform="matrix(1.0, 0.0, 0.0, 1.0, 95.65, 73.7)">
    <path d="M5.25 -28.5 L4.5 -28.25 3.75 -27.75 3.0 -27.5 Q1.0 -27.25 3.0 -23.75 L6.25 -23.75 Q8.5 -26.0 7.75 -27.5 L6.25 -28.0 6.5 -28.25 6.25 -28.25 5.25 -28.5 M-13.75 -24.5 L-16.0 -28.5 -16.0 -33.5 -11.25 -35.5 -2.25 -35.25 -1.0 -34.75 5.0 -35.75 Q12.0 -35.25 14.0 -33.0 L14.0 -28.25 12.0 -24.5 Q8.75 -21.5 6.5 -21.75 L-1.0 -23.5 Q-11.75 -20.25 -13.75 -24.5 M17.0 -0.75 L22.0 11.25 23.5 17.5 29.75 29.5 34.25 35.0 38.75 38.75 43.5 48.0 43.5 56.75 40.25 62.75 30.75 72.75 Q16.75 81.5 3.75 82.25 L-4.5 81.5 Q-28.5 78.5 -40.75 62.25 L-44.75 54.0 -44.75 52.75 -43.5 51.25 -43.5 48.5 Q-29.25 33.75 -19.0 1.0 -12.25 14.75 -0.75 13.0 L2.0 13.0 2.5 12.75 Q9.75 14.0 17.0 -0.75 M-5.5 -28.0 L-7.75 -28.75 -8.75 -28.25 -9.5 -27.75 -10.25 -25.5 Q-2.75 -22.0 -5.5 -28.0" fill="#ffffff" fill-rule="evenodd" stroke="none"/>
    <path d="M5.25 -28.5 L6.25 -28.25 6.5 -28.25 6.25 -28.0 7.75 -27.5 Q8.5 -26.0 6.25 -23.75 L3.0 -23.75 Q1.0 -27.25 3.0 -27.5 L3.75 -27.75 4.5 -28.25 5.25 -28.5 M-5.5 -28.0 Q-2.75 -22.0 -10.25 -25.5 L-9.5 -27.75 -8.75 -28.25 -7.75 -28.75 -5.5 -28.0" fill="#000000" fill-rule="evenodd" stroke="none"/>
    <path d="M12.0 -24.5 Q23.0 -19.0 17.0 -0.75 9.75 14.0 2.5 12.75 L2.0 13.0 -0.75 13.0 Q-12.25 14.75 -19.0 1.0 -25.75 -20.25 -13.75 -24.5 -11.75 -20.25 -1.0 -23.5 L6.5 -21.75 Q8.75 -21.5 12.0 -24.5 M40.25 62.75 L43.25 61.5 47.75 58.0 Q63.5 77.25 46.0 94.25 3.0 110.5 3.75 82.25 16.75 81.5 30.75 72.75 L40.25 62.75 M-4.5 81.5 L-4.5 84.75 -6.75 92.25 Q-16.25 107.5 -49.25 92.75 L-54.0 86.5 -56.0 79.75 -55.0 71.5 -52.75 65.0 -48.75 57.0 -40.75 62.25 Q-28.5 78.5 -4.5 81.5" fill="#e58508" fill-rule="evenodd" stroke="none"/>
    <path d="M-94.9 43.5 Q-97.75 40.25 -89.9 18.6 -87.25 6.6 -77.75 -3.9 L-77.25 -4.4 Q-55.75 -30.9 -42.9 -36.0 -18.9 -70.75 -0.5 -73.65 5.5 -74.4 19.85 -61.75 L29.35 -51.75 42.1 -35.0 48.25 -33.0 61.0 -25.9 74.0 -16.75 89.75 -4.4 Q92.1 -5.65 102.35 3.6 L115.5 18.35 120.75 25.25 134.1 45.0 135.75 50.6 135.25 50.6 132.5 49.6 111.35 34.25 100.0 25.1 90.25 16.25 88.6 14.0 89.75 13.35 88.35 13.5 58.25 -1.75 45.85 -9.9 43.85 -11.65 45.5 -7.75 46.75 -5.9 54.6 -0.65 61.5 2.85 64.25 18.1 62.75 25.75 59.1 32.35 53.25 38.75 45.1 44.35 42.1 45.5 43.5 49.35 43.35 52.5 39.35 61.0 33.1 67.25 17.35 74.1 -1.5 76.25 -20.0 73.35 -35.4 65.75 -41.15 59.35 -44.65 51.1 -44.75 48.5 -43.15 44.25 -49.15 41.1 -56.5 34.85 -61.65 28.0 -64.0 21.35 -64.4 21.1 -64.25 19.1 -64.75 15.5 -63.9 8.35 -53.5 0.85 -51.9 -1.25 -48.4 -7.65 -55.0 -1.65 -65.9 6.35 -66.25 7.0 -77.0 14.35 -78.5 14.0 -78.0 14.6 -77.25 14.75 -78.0 17.0 -82.15 23.5 -82.5 24.75 -86.75 31.35 -87.15 32.5 -94.9 43.5 M17.0 -1.15 Q14.5 9.35 2.35 12.75 L2.0 12.85 -5.15 13.0 -9.9 11.5 Q-16.4 6.85 -17.5 3.35 L-18.4 1.5 -18.5 1.5 -19.15 -0.25 -20.5 -5.4 -21.0 -10.25 -20.9 -14.15 -21.75 -14.25 -20.75 2.1 -21.0 3.0 -20.4 5.5 -20.65 6.6 -20.15 14.75 -13.25 34.6 -12.9 34.6 -8.25 40.0 -0.75 41.6 6.0 40.35 11.25 35.0 18.35 16.1 19.35 4.85 19.35 4.25 19.5 2.85 18.6 -7.4 18.25 -7.25 Q18.1 -3.4 17.0 -1.15 M54.85 80.35 Q49.85 93.0 34.75 95.6 11.5 99.75 6.75 91.1 L8.1 90.35 15.1 90.1 17.75 89.6 18.1 89.6 22.85 88.75 27.35 87.25 34.5 83.35 39.5 79.1 41.35 76.85 42.75 74.6 44.85 70.25 46.6 68.85 49.35 65.6 50.25 63.85 50.0 61.6 53.6 69.75 54.6 73.35 55.1 77.85 54.85 80.1 54.85 80.35 M-51.25 62.25 L-51.25 63.85 -50.5 65.5 -47.9 68.85 -46.0 70.25 -43.9 74.6 -40.65 79.1 -35.5 83.35 Q-32.05 85.25 -28.65 87.1 L-23.75 88.75 -19.4 89.6 -19.0 89.6 -14.15 90.25 -9.15 90.35 -7.9 91.1 Q-13.15 99.75 -34.5 95.85 -51.75 92.1 -55.65 81.75 L-55.75 81.5 -55.9 81.25 Q-57.5 74.0 -51.25 62.25" fill="#cecece" fill-opacity="0.0" fill-rule="evenodd" stroke="none"/>
    <path d="M-94.9 43.5 L-87.15 32.5 -86.75 31.35 -82.5 24.75 -82.15 23.5 -78.0 17.0 -77.25 14.75 -78.0 14.6 -78.5 14.0 -77.0 14.35 -66.25 7.0 -65.9 6.35 -55.0 -1.65 -48.4 -7.65 -51.9 -1.25 -53.5 0.85 -63.9 8.35 -72.75 14.25 -77.9 23.6 -84.9 33.85 -92.25 43.0 -94.9 43.5 M-64.75 15.5 L-64.25 19.1 -64.4 21.1 -64.0 21.35 -61.65 28.0 -56.5 34.85 -49.15 41.1 -43.15 44.25 -44.75 48.5 -44.65 51.1 -41.15 59.35 -35.4 65.75 -20.0 73.35 -1.5 76.25 17.35 74.1 33.1 67.25 39.35 61.0 43.35 52.5 43.5 49.35 42.1 45.5 45.1 44.35 53.25 38.75 59.1 32.35 62.75 25.75 64.25 18.1 64.75 23.75 63.35 35.35 62.1 39.25 Q58.25 50.1 47.85 58.0 L50.0 61.6 50.25 63.85 49.35 65.6 46.6 68.85 44.85 70.25 42.75 74.6 41.35 76.85 39.5 79.1 34.5 83.35 27.35 87.25 22.85 88.75 18.1 89.6 17.75 89.6 15.1 90.1 8.1 90.35 6.75 91.1 Q11.5 99.75 34.75 95.6 49.85 93.0 54.85 80.35 53.35 94.35 32.25 99.25 L27.5 100.0 Q15.6 101.5 8.6 96.85 5.85 96.0 4.0 81.85 L4.0 81.75 3.6 81.6 -0.9 82.25 -5.0 81.5 -5.0 81.85 -5.9 87.5 -6.4 89.25 Q-8.65 102.85 -28.5 100.0 L-33.25 99.25 Q-50.65 96.85 -55.65 81.75 -51.75 92.1 -34.5 95.85 -13.15 99.75 -7.9 91.1 L-9.15 90.35 -14.15 90.25 -19.0 89.6 -19.4 89.6 -23.75 88.75 -28.65 87.1 Q-32.05 85.25 -35.5 83.35 L-40.65 79.1 -43.9 74.6 -46.0 70.25 -47.9 68.85 -50.5 65.5 -51.25 63.85 -51.25 62.25 -48.5 57.5 Q-59.4 49.0 -62.9 38.25 L-64.4 33.1 -65.15 22.35 -64.75 15.5 M61.5 2.85 L54.6 -0.65 46.75 -5.9 45.5 -7.75 43.85 -11.65 45.85 -9.9 58.25 -1.75 88.35 13.5 89.75 13.35 88.6 14.0 90.25 16.25 100.0 25.1 111.35 34.25 132.5 49.6 135.25 50.6 131.1 49.85 110.75 35.75 96.85 24.85 86.0 14.6 61.5 2.85 M17.0 -1.15 Q18.1 -3.4 18.25 -7.25 L18.6 -7.4 19.5 2.85 19.35 4.25 19.35 4.85 18.35 16.1 11.25 35.0 6.0 40.35 -0.75 41.6 -8.25 40.0 -12.9 34.6 -13.25 34.6 -20.15 14.75 -20.65 6.6 -20.4 5.5 -21.0 3.0 -20.75 2.1 -21.75 -14.25 -20.9 -14.15 -21.0 -10.25 -20.5 -5.4 -19.15 -0.25 -18.5 1.5 -18.4 1.5 -17.5 3.35 Q-16.4 6.85 -9.9 11.5 L-5.15 13.0 2.0 12.85 2.35 12.75 Q14.5 9.35 17.0 -1.15" fill="#000000" fill-opacity="0.49803922" fill-rule="evenodd" stroke="none"/>
  </g>
</svg>
