<?xml version="1.0" encoding="UTF-8" standalone="no"?>
<svg xmlns:ffdec="https://www.free-decompiler.com/flash" xmlns:xlink="http://www.w3.org/1999/xlink" ffdec:objectType="shape" height="174.3px" width="218.5px" xmlns="http://www.w3.org/2000/svg">
  <g transform="matrix(1.0, 0.0, 0.0, 1.0, 95.85, 73.8)">
    <path d="M6.75 -28.25 L5.75 -28.5 5.0 -28.5 4.0 -28.0 3.5 -27.5 Q1.5 -27.5 3.25 -24.0 L6.75 -23.75 7.75 -24.5 8.25 -26.5 7.25 -28.0 6.75 -28.25 M-13.25 -24.25 L-15.5 -28.0 -15.75 -33.25 Q-14.0 -35.0 -8.5 -35.75 L-1.75 -35.25 -0.5 -34.75 0.25 -35.0 7.0 -35.75 Q12.25 -35.25 14.5 -33.0 L14.25 -28.25 12.25 -24.75 Q10.0 -20.0 -0.5 -23.5 L-7.5 -21.75 Q-13.25 -22.75 -13.25 -24.25 M17.5 -0.5 L21.25 7.75 24.0 16.25 29.5 27.5 Q31.5 32.5 39.25 38.0 L44.0 47.25 44.0 56.0 41.25 61.75 31.75 72.25 Q17.75 81.25 3.75 82.25 L-4.5 81.5 Q-30.75 77.0 -40.0 63.0 L-43.5 56.25 -44.25 53.5 Q-42.5 52.75 -42.75 49.0 L-39.25 46.5 -38.75 44.5 -35.0 39.75 -29.25 28.75 -24.5 17.25 -24.0 14.0 -18.25 1.0 Q-12.75 14.25 0.5 13.0 L2.5 13.0 10.25 10.25 Q15.0 6.5 17.5 -0.5 M-5.5 -28.0 L-7.0 -28.75 -8.25 -28.25 -8.75 -27.75 -9.5 -27.75 -10.0 -25.75 -9.5 -25.25 Q-2.25 -21.5 -5.0 -28.0 L-5.5 -28.0" fill="#ffffff" fill-rule="evenodd" stroke="none"/>
    <path d="M6.75 -28.25 L7.25 -28.0 8.25 -26.5 7.75 -24.5 6.75 -23.75 3.25 -24.0 Q1.5 -27.5 3.5 -27.5 L4.0 -28.0 5.0 -28.5 5.75 -28.5 6.75 -28.25 M-5.5 -28.0 L-5.0 -28.0 Q-2.25 -21.5 -9.5 -25.25 L-10.0 -25.75 -9.5 -27.75 -8.75 -27.75 -8.25 -28.25 -7.0 -28.75 -5.5 -28.0" fill="#000000" fill-rule="evenodd" stroke="none"/>
    <path d="M12.25 -24.75 L16.5 -21.25 18.75 -17.75 19.5 -11.0 18.75 -4.25 17.5 -0.5 Q15.0 6.5 10.25 10.25 L2.5 13.0 0.5 13.0 Q-12.75 14.25 -18.25 1.0 -25.25 -19.5 -13.25 -24.25 -13.25 -22.75 -7.5 -21.75 L-0.5 -23.5 Q10.0 -20.0 12.25 -24.75 M41.25 61.75 L47.75 57.5 Q64.0 86.5 44.25 95.25 2.0 109.5 3.75 82.25 17.75 81.25 31.75 72.25 L41.25 61.75 M-4.5 81.5 L-4.5 84.75 -6.75 92.25 Q-16.5 107.25 -48.5 93.25 -63.25 84.0 -49.0 57.5 L-40.0 63.0 Q-30.75 77.0 -4.5 81.5" fill="#e58508" fill-rule="evenodd" stroke="none"/>
    <path d="M-95.0 44.85 Q-98.0 41.75 -90.25 20.25 -87.75 8.1 -77.9 -3.0 L-77.4 -3.5 Q-56.65 -29.5 -43.0 -35.5 -19.75 -69.75 -0.5 -73.65 4.0 -75.25 20.35 -61.5 L28.25 -53.25 42.1 -35.4 48.5 -32.9 59.5 -26.0 71.25 -16.9 85.25 -4.75 Q87.35 -5.4 96.75 3.75 L105.5 15.35 Q124.1 42.5 122.5 47.6 L120.75 47.0 104.6 34.0 94.85 24.85 94.5 24.85 85.35 15.35 84.85 14.0 85.75 13.85 86.1 13.35 84.6 13.6 83.85 13.35 70.85 6.35 57.1 -1.65 44.85 -10.5 48.25 -4.4 53.0 -0.9 61.75 4.0 64.1 17.35 62.6 25.0 59.25 31.6 52.75 38.5 45.35 43.75 42.6 44.85 44.0 48.85 43.85 51.85 40.0 60.35 34.0 66.6 18.5 73.85 -0.5 76.25 -19.25 73.6 -34.4 66.35 -40.75 59.5 -44.15 51.75 -44.25 49.5 -42.75 44.85 Q-47.9 43.35 -56.15 35.75 L-61.5 28.85 -63.9 22.6 -64.4 22.1 -64.9 15.75 -64.0 9.5 -53.4 1.75 -51.65 -0.65 -48.25 -6.9 -48.65 -6.9 -54.9 -0.75 -76.75 15.5 -78.5 15.1 -78.0 15.75 -77.25 15.85 -78.0 18.25 -82.15 24.75 -82.4 25.75 -90.15 38.1 -91.75 40.0 -91.75 40.6 -95.0 44.85 M19.1 -8.0 L18.5 -3.9 17.6 -1.25 Q15.35 9.25 3.1 12.75 L-3.9 13.1 -9.25 11.35 Q-14.5 8.25 -16.9 3.25 L-17.75 1.35 -17.9 1.35 -19.9 -5.25 -20.5 -10.25 -20.5 -13.9 -21.25 -13.9 -20.25 2.5 -20.5 3.1 -19.9 5.85 -20.0 6.75 -19.5 15.25 -12.65 34.6 -12.0 34.85 -7.75 39.85 0.25 41.6 7.0 40.25 12.0 34.85 19.0 15.85 20.1 2.6 19.1 -8.0 M54.85 80.35 Q49.85 93.0 34.75 95.6 11.5 99.75 6.75 91.1 L8.1 90.35 15.1 90.1 17.75 89.6 18.1 89.6 22.85 88.75 27.35 87.25 34.5 83.35 39.5 79.1 41.35 76.85 42.75 74.6 44.85 70.25 46.6 68.85 49.35 65.6 50.25 63.85 50.0 61.6 53.6 69.75 54.6 73.35 55.1 77.85 54.85 80.1 54.85 80.35 M-51.25 62.25 L-51.25 63.85 -50.5 65.5 -47.9 68.85 -46.0 70.25 -43.9 74.6 -40.65 79.1 -35.5 83.35 Q-32.05 85.25 -28.65 87.1 L-23.75 88.75 -19.4 89.6 -19.0 89.6 -14.15 90.25 -9.15 90.35 -7.9 91.1 Q-13.15 99.75 -34.5 95.85 -51.75 92.1 -55.65 81.75 L-55.75 81.5 -55.9 81.25 Q-57.5 74.0 -51.25 62.25" fill="#cecece" fill-opacity="0.0" fill-rule="evenodd" stroke="none"/>
    <path d="M-95.0 44.85 L-91.75 40.6 -91.75 40.0 -90.15 38.1 -82.4 25.75 -82.15 24.75 -78.0 18.25 -77.25 15.85 -78.0 15.75 -78.5 15.1 -76.75 15.5 -54.9 -0.75 -48.65 -6.9 -48.25 -6.9 -51.65 -0.65 -53.4 1.75 -64.0 9.5 -72.75 15.35 -77.0 23.25 -85.15 35.35 -92.65 44.5 -95.0 44.85 M-64.9 15.75 L-64.4 22.1 -63.9 22.6 -61.5 28.85 -56.15 35.75 Q-47.9 43.35 -42.75 44.85 L-44.25 49.5 -44.15 51.75 -40.75 59.5 -34.4 66.35 -19.25 73.6 -0.5 76.25 18.5 73.85 34.0 66.6 40.0 60.35 43.85 51.85 44.0 48.85 42.6 44.85 45.35 43.75 52.75 38.5 59.25 31.6 62.6 25.0 64.1 17.35 64.6 22.75 63.6 30.0 Q62.5 46.1 47.6 57.75 L50.0 61.6 50.25 63.85 49.35 65.6 46.6 68.85 44.85 70.25 42.75 74.6 41.35 76.85 39.5 79.1 34.5 83.35 27.35 87.25 22.85 88.75 18.1 89.6 17.75 89.6 15.1 90.1 8.1 90.35 6.75 91.1 Q11.5 99.75 34.75 95.6 49.85 93.0 54.85 80.35 53.35 94.35 32.25 99.25 L27.5 100.0 Q15.6 101.5 8.6 96.85 5.85 96.0 4.0 81.85 L4.0 81.75 3.85 81.6 -0.4 82.35 -4.9 81.5 -5.0 81.85 -5.9 87.5 -6.4 89.25 Q-8.65 102.85 -28.5 100.0 L-33.25 99.25 Q-50.65 96.85 -55.65 81.75 -51.75 92.1 -34.5 95.85 -13.15 99.75 -7.9 91.1 L-9.15 90.35 -14.15 90.25 -19.0 89.6 -19.4 89.6 -23.75 88.75 -28.65 87.1 Q-32.05 85.25 -35.5 83.35 L-40.65 79.1 -43.9 74.6 -46.0 70.25 -47.9 68.85 -50.5 65.5 -51.25 63.85 -51.25 62.25 -48.75 57.75 Q-59.5 51.75 -64.5 32.85 L-64.5 31.6 -64.65 31.25 -64.65 30.35 -64.75 29.75 -64.75 29.0 -64.9 28.75 -65.4 22.1 -64.9 15.75 M61.75 4.0 L53.0 -0.9 48.25 -4.4 44.85 -10.5 57.1 -1.65 70.85 6.35 83.85 13.35 84.6 13.6 86.1 13.35 85.75 13.85 84.85 14.0 85.35 15.35 94.5 24.85 94.85 24.85 104.6 34.0 120.75 47.0 122.5 47.6 119.1 47.1 112.25 41.75 112.0 41.6 110.35 40.35 110.0 40.0 109.75 39.85 109.5 39.6 109.1 39.35 102.35 34.25 89.1 22.5 89.0 22.0 81.1 14.0 61.75 4.0 M19.1 -8.0 L20.1 2.6 19.0 15.85 12.0 34.85 7.0 40.25 0.25 41.6 -7.75 39.85 -12.0 34.85 -12.65 34.6 -19.5 15.25 -20.0 6.75 -19.9 5.85 -20.5 3.1 -20.25 2.5 -21.25 -13.9 -20.5 -13.9 -20.5 -10.25 -19.9 -5.25 -17.9 1.35 -17.75 1.35 -16.9 3.25 Q-14.5 8.25 -9.25 11.35 L-3.9 13.1 3.1 12.75 Q15.35 9.25 17.6 -1.25 L18.5 -3.9 19.1 -8.0" fill="#000000" fill-opacity="0.49803922" fill-rule="evenodd" stroke="none"/>
  </g>
</svg>
