<?xml version="1.0" encoding="UTF-8" standalone="no"?>
<svg xmlns:ffdec="https://www.free-decompiler.com/flash" xmlns:xlink="http://www.w3.org/1999/xlink" ffdec:objectType="shape" height="176.3px" width="208.5px" xmlns="http://www.w3.org/2000/svg">
  <g transform="matrix(1.0, 0.0, 0.0, 1.0, 98.65, 64.45)">
    <path d="M-12.75 -16.25 L-15.25 -20.25 -15.25 -25.0 -10.25 -27.0 -1.5 -26.75 -0.25 -26.25 0.0 -26.5 0.75 -26.75 6.75 -27.5 Q13.75 -26.5 14.25 -25.0 L14.25 -20.5 12.0 -16.75 Q9.5 -12.0 -0.25 -15.5 L-7.25 -13.75 Q-13.0 -14.5 -12.75 -16.25 M17.5 6.5 L22.0 16.75 23.75 23.5 29.75 34.75 Q32.75 39.5 38.75 43.75 L41.5 48.75 33.25 53.75 28.5 57.75 24.5 62.5 22.25 68.0 Q21.75 82.0 19.75 83.25 4.5 91.75 -21.75 81.75 L-22.25 70.0 -25.5 61.75 -30.5 56.75 -38.0 51.5 -28.75 35.75 -25.0 26.75 -22.25 17.5 -17.75 8.25 -17.5 8.25 Q-8.25 24.0 1.0 20.25 L2.5 20.25 3.25 20.0 Q14.0 18.25 17.5 6.5 M5.75 -20.5 L5.25 -20.25 4.5 -20.0 4.0 -19.75 3.75 -19.5 Q1.75 -19.25 3.75 -15.75 L7.0 -15.75 Q8.75 -17.5 8.25 -19.5 L7.0 -20.0 6.75 -20.0 5.75 -20.5 M-4.75 -19.75 L-6.75 -20.5 -8.0 -20.0 -9.0 -18.75 -9.5 -17.5 -7.75 -15.75 -4.5 -15.75 -3.5 -17.25 -3.5 -19.0 -4.75 -19.75" fill="#ffffff" fill-rule="evenodd" stroke="none"/>
    <path d="M5.75 -20.5 L6.75 -20.0 7.0 -20.0 8.25 -19.5 Q8.75 -17.5 7.0 -15.75 L3.75 -15.75 Q1.75 -19.25 3.75 -19.5 L4.0 -19.75 4.5 -20.0 5.25 -20.25 5.75 -20.5 M-4.75 -19.75 L-3.5 -19.0 -3.5 -17.25 -4.5 -15.75 -7.75 -15.75 -9.5 -17.5 -9.0 -18.75 -8.0 -20.0 -6.75 -20.5 -4.75 -19.75" fill="#000000" fill-rule="evenodd" stroke="none"/>
    <path d="M12.0 -16.75 Q14.0 -16.05 15.5 -14.5 L18.5 -10.25 19.25 -2.5 17.5 6.5 Q14.0 18.25 3.25 20.0 L2.5 20.25 1.0 20.25 Q-8.25 24.0 -17.5 8.25 L-17.75 8.25 Q-24.75 -12.0 -12.75 -16.25 -13.0 -14.5 -7.25 -13.75 L-0.25 -15.5 Q9.5 -12.0 12.0 -16.75 M41.5 48.75 L51.75 43.25 Q60.25 39.75 61.75 41.0 L65.5 41.75 Q68.0 42.75 71.5 49.5 73.75 58.75 35.5 94.75 L29.75 98.25 26.75 98.75 21.0 92.0 Q19.0 88.25 19.75 83.25 21.75 82.0 22.25 68.0 L24.5 62.5 28.5 57.75 33.25 53.75 41.5 48.75 M-21.75 81.75 L-21.75 84.75 -25.25 93.25 -31.0 98.25 -44.5 89.0 -50.25 82.25 -51.0 81.5 -51.0 81.25 -52.5 79.75 -53.25 78.75 -62.0 68.75 -70.25 57.75 -70.25 57.25 -63.5 40.75 -63.25 40.75 Q-60.5 39.75 -54.0 42.5 L-38.0 51.5 -30.5 56.75 -25.5 61.75 -22.25 70.0 -21.75 81.75" fill="#e58508" fill-rule="evenodd" stroke="none"/>
    <path d="M-97.5 111.75 L-97.75 111.85 -98.65 104.85 -96.4 89.5 -92.4 68.6 -86.65 48.0 Q-80.25 31.5 -77.15 31.0 L-76.4 28.1 -68.9 12.0 -58.9 -6.5 -51.0 -18.25 -44.4 -24.9 Q-18.75 -61.65 -1.25 -64.4 5.85 -65.25 18.85 -53.9 L28.1 -44.65 44.0 -24.4 49.85 -19.15 59.25 -7.4 69.75 8.35 80.35 26.25 82.0 30.5 Q84.85 30.6 92.25 45.1 L100.0 65.25 103.75 77.35 109.85 102.85 109.5 110.0 109.35 110.25 108.85 109.75 107.75 107.6 105.35 104.6 104.0 101.6 97.0 89.5 97.1 89.1 91.25 79.35 91.0 78.35 86.75 71.0 77.25 52.6 75.75 48.75 70.75 38.75 47.85 11.0 40.35 0.0 39.85 -0.25 40.85 6.5 44.5 12.1 49.25 17.6 49.35 17.85 61.25 31.35 58.35 37.1 53.6 42.5 57.6 41.1 59.6 40.75 61.85 40.85 64.1 41.0 66.0 42.25 Q64.1 41.5 58.25 43.6 L46.0 49.6 36.0 56.0 32.1 59.0 27.1 63.85 26.6 61.5 27.75 58.75 26.6 59.75 Q20.5 66.25 21.35 77.6 -1.15 85.25 -22.15 77.25 -21.75 65.5 -29.0 58.6 -26.9 61.35 -28.25 63.85 -47.75 46.1 -64.75 42.25 L-64.25 41.0 -63.15 40.85 -60.65 40.75 -53.75 42.85 -55.25 41.6 -60.25 35.25 -48.5 19.75 -43.0 11.85 -41.9 4.0 -46.9 12.35 -66.25 39.1 -65.75 39.1 -71.15 54.0 -71.9 55.1 -79.15 73.0 -82.65 80.35 -82.5 80.75 -83.25 81.6 -88.15 92.1 -89.15 95.1 -93.9 104.85 -94.25 106.35 -97.5 111.75 M-19.9 -2.15 L-19.9 -6.15 -20.75 -6.25 -19.9 10.5 -19.25 12.85 -19.5 14.0 -19.0 22.1 -18.65 22.35 -12.0 41.1 -11.5 41.25 -7.15 46.25 0.1 47.75 7.25 46.25 12.0 41.1 19.0 22.25 19.85 9.6 18.85 -0.65 18.5 3.0 17.6 6.25 Q15.5 16.35 3.25 20.0 L0.85 20.25 Q-8.15 23.0 -16.4 10.5 L-17.4 8.75 -17.9 7.1 -18.0 6.85 -19.25 2.6 -19.9 -2.15" fill="#cecece" fill-opacity="0.0" fill-rule="evenodd" stroke="none"/>
    <path d="M108.85 109.75 L104.1 105.35 84.85 72.25 74.5 52.1 69.1 40.1 69.1 40.0 63.1 33.5 62.85 33.35 62.35 39.6 61.85 40.85 59.6 40.75 57.6 41.1 53.6 42.5 58.35 37.1 61.25 31.35 49.35 17.85 49.25 17.6 44.5 12.1 40.85 6.5 39.85 -0.25 40.35 0.0 47.85 11.0 70.75 38.75 75.75 48.75 77.25 52.6 86.75 71.0 91.0 78.35 91.25 79.35 97.1 89.1 97.0 89.5 104.0 101.6 105.35 104.6 107.75 107.6 108.85 109.75 M66.0 42.25 L68.5 44.85 69.1 45.75 69.25 45.85 69.35 46.1 71.0 48.6 71.1 48.85 71.6 49.75 71.75 49.75 72.35 50.5 72.25 50.85 72.0 52.6 71.0 54.6 66.1 62.0 56.85 73.25 40.25 90.75 38.35 92.35 30.5 97.5 28.85 98.35 27.35 98.85 26.75 98.35 23.1 94.6 21.1 91.85 19.85 87.85 19.75 83.1 17.5 84.1 -0.15 87.25 -17.75 84.1 -20.9 82.6 -21.0 88.6 -21.9 90.5 -22.0 91.0 -22.15 91.35 -22.25 91.5 -22.75 92.85 -24.65 95.0 -25.0 95.5 -28.4 98.85 -29.9 98.35 -35.25 95.25 -41.4 90.75 -57.9 73.25 -70.25 57.6 -70.5 57.5 -80.9 81.85 -93.0 106.85 -97.5 111.75 -94.25 106.35 -93.9 104.85 -89.15 95.1 -88.15 92.1 -83.25 81.6 -82.5 80.75 -82.65 80.35 -79.15 73.0 -71.9 55.1 -71.15 54.0 -65.75 39.1 -66.25 39.1 -46.9 12.35 -41.9 4.0 -43.0 11.85 -48.5 19.75 -60.25 35.25 -55.25 41.6 -53.75 42.85 -60.65 40.75 -63.15 40.85 -63.5 39.6 -63.9 39.75 -64.25 41.0 -64.75 42.25 Q-47.75 46.1 -28.25 63.85 -26.9 61.35 -29.0 58.6 -21.75 65.5 -22.15 77.25 -1.15 85.25 21.35 77.6 20.5 66.25 26.6 59.75 L27.75 58.75 26.6 61.5 27.1 63.85 32.1 59.0 36.0 56.0 46.0 49.6 58.25 43.6 Q64.1 41.5 66.0 42.25 M-19.9 -2.15 L-19.25 2.6 -18.0 6.85 -17.9 7.1 -17.4 8.75 -16.4 10.5 Q-8.15 23.0 0.85 20.25 L3.25 20.0 Q15.5 16.35 17.6 6.25 L18.5 3.0 18.85 -0.65 19.85 9.6 19.0 22.25 12.0 41.1 7.25 46.25 0.1 47.75 -7.15 46.25 -11.5 41.25 -12.0 41.1 -18.65 22.35 -19.0 22.1 -19.5 14.0 -19.25 12.85 -19.9 10.5 -20.75 -6.25 -19.9 -6.15 -19.9 -2.15" fill="#000000" fill-opacity="0.49803922" fill-rule="evenodd" stroke="none"/>
  </g>
</svg>
