<?xml version="1.0" encoding="UTF-8" standalone="no"?>
<svg xmlns:ffdec="https://www.free-decompiler.com/flash" xmlns:xlink="http://www.w3.org/1999/xlink" ffdec:objectType="shape" height="182.75px" width="170.0px" xmlns="http://www.w3.org/2000/svg">
  <g transform="matrix(1.0, 0.0, 0.0, 1.0, 80.5, 64.5)">
    <path d="M-12.75 -16.25 L-15.25 -20.25 -15.25 -25.0 -10.25 -27.0 -1.5 -26.75 -0.25 -26.25 0.0 -26.5 0.75 -26.75 6.75 -27.5 Q13.75 -26.5 14.25 -25.0 L14.25 -20.5 12.0 -16.75 Q9.5 -12.0 -0.25 -15.5 L-7.25 -13.75 Q-13.0 -14.5 -12.75 -16.25 M17.5 6.5 L22.0 16.75 23.75 23.5 29.75 34.75 Q32.75 39.5 38.75 43.75 L41.5 48.75 33.25 53.75 28.5 57.75 24.5 62.5 22.25 68.0 Q21.75 82.0 19.75 83.25 4.5 91.75 -21.75 81.75 L-22.25 70.0 -25.5 61.75 -30.5 56.75 -38.0 51.5 -28.75 35.75 -25.0 26.75 -22.25 17.5 -17.75 8.25 -17.5 8.25 Q-8.25 24.0 1.0 20.25 L2.5 20.25 3.25 20.0 Q14.0 18.25 17.5 6.5 M5.75 -20.5 L5.25 -20.25 4.5 -20.0 4.0 -19.75 3.75 -19.5 Q1.75 -19.25 3.75 -15.75 L7.0 -15.75 Q8.75 -17.5 8.25 -19.5 L7.0 -20.0 6.75 -20.0 5.75 -20.5 M-4.75 -19.75 L-6.75 -20.5 -8.0 -20.0 -9.0 -18.75 -9.5 -17.5 -7.75 -15.75 -4.5 -15.75 -3.5 -17.25 -3.5 -19.0 -4.75 -19.75" fill="#ffffff" fill-rule="evenodd" stroke="none"/>
    <path d="M5.75 -20.5 L6.75 -20.0 7.0 -20.0 8.25 -19.5 Q8.75 -17.5 7.0 -15.75 L3.75 -15.75 Q1.75 -19.25 3.75 -19.5 L4.0 -19.75 4.5 -20.0 5.25 -20.25 5.75 -20.5 M-4.75 -19.75 L-3.5 -19.0 -3.5 -17.25 -4.5 -15.75 -7.75 -15.75 -9.5 -17.5 -9.0 -18.75 -8.0 -20.0 -6.75 -20.5 -4.75 -19.75" fill="#000000" fill-rule="evenodd" stroke="none"/>
    <path d="M12.0 -16.75 Q14.0 -16.05 15.5 -14.5 L18.5 -10.25 19.25 -2.5 17.5 6.5 Q14.0 18.25 3.25 20.0 L2.5 20.25 1.0 20.25 Q-8.25 24.0 -17.5 8.25 L-17.75 8.25 Q-24.75 -12.0 -12.75 -16.25 -13.0 -14.5 -7.25 -13.75 L-0.25 -15.5 Q9.5 -12.0 12.0 -16.75 M41.5 48.75 L51.75 43.25 60.75 40.75 61.25 41.5 61.75 42.0 63.0 43.75 63.25 44.0 65.75 55.75 67.25 60.75 46.75 84.75 37.5 93.25 29.75 98.25 27.0 99.0 21.5 92.75 19.75 88.0 19.75 83.25 Q21.75 82.0 22.25 68.0 L24.5 62.5 28.5 57.75 33.25 53.75 41.5 48.75 M-21.75 81.75 L-21.75 84.75 -25.25 93.25 -31.0 98.25 -44.5 89.0 -50.25 82.25 -51.0 81.5 -51.0 81.25 -52.5 79.75 -53.25 78.75 -62.25 68.5 -62.25 67.5 -62.0 67.0 -58.0 43.5 -57.25 42.25 -56.75 41.75 -51.25 43.75 Q-44.6 47.65 -38.0 51.5 L-30.5 56.75 -25.5 61.75 -22.25 70.0 -21.75 81.75" fill="#e58508" fill-rule="evenodd" stroke="none"/>
    <path d="M-75.4 118.0 L-75.5 118.25 -78.4 112.1 -80.0 93.85 -80.5 75.85 -79.5 57.0 -76.5 44.1 -73.65 39.35 -73.65 37.0 -72.75 32.85 -66.15 15.25 -59.5 -0.15 -51.4 -15.75 -45.15 -23.75 Q-18.4 -62.25 -1.25 -64.4 5.5 -65.5 19.6 -53.25 L28.25 -44.5 35.1 -36.15 46.1 -21.4 50.35 -16.65 58.6 -3.9 67.1 11.85 77.25 32.75 78.85 37.5 78.85 39.75 Q82.1 41.0 86.25 56.0 L88.85 74.85 89.5 85.35 89.0 109.35 86.6 115.5 86.1 115.0 86.0 114.75 85.85 114.6 85.35 112.5 83.35 107.75 79.5 94.75 78.85 91.5 75.5 81.5 75.35 80.1 72.85 72.1 67.75 52.5 67.35 49.35 65.35 42.25 44.85 12.0 44.1 10.1 38.25 0.1 38.0 6.35 Q40.35 9.6 40.25 11.25 L44.0 16.75 44.25 17.0 48.85 23.85 49.1 24.1 55.75 33.5 55.85 33.75 58.25 37.1 53.6 42.5 56.75 41.35 61.0 40.75 62.25 42.5 Q37.0 52.25 27.1 63.85 L26.6 61.5 27.75 58.75 26.6 59.75 Q20.5 66.25 21.35 77.6 -1.15 85.25 -22.15 77.25 -21.75 65.5 -29.0 58.6 -26.9 61.35 -28.25 63.85 -40.0 51.75 -58.75 44.0 L-58.65 43.6 -58.5 43.35 -57.25 41.6 -53.75 42.85 -56.4 40.25 -46.75 24.6 -40.15 13.0 -40.0 7.1 -39.65 5.75 -39.9 5.25 -44.25 14.25 -52.15 28.25 -52.5 28.35 -53.15 30.0 -53.5 30.1 -60.65 42.5 -62.4 55.6 -65.9 75.35 -70.15 94.5 -70.75 99.1 -73.4 111.5 -75.4 118.0 M-19.9 -2.15 L-19.9 -6.15 -20.75 -6.25 -19.9 10.5 -19.25 12.85 -19.5 14.0 -19.0 22.1 -18.65 22.35 -12.0 41.1 -11.5 41.25 -7.15 46.25 0.1 47.75 7.25 46.25 12.0 41.1 19.0 22.25 19.85 9.6 18.85 -0.65 18.5 3.0 17.6 6.25 Q15.5 16.35 3.25 20.0 L0.85 20.25 Q-8.15 23.0 -16.4 10.5 L-17.4 8.75 -17.9 7.1 -18.0 6.85 -19.25 2.6 -19.9 -2.15" fill="#cecece" fill-opacity="0.0" fill-rule="evenodd" stroke="none"/>
    <path d="M85.85 114.6 L82.35 110.0 71.5 76.0 67.5 60.35 56.85 73.25 40.25 90.75 34.25 95.25 28.85 98.35 27.35 98.85 26.75 98.35 23.1 94.6 21.1 91.85 19.85 87.85 19.75 83.1 17.5 84.1 -0.15 87.25 -17.75 84.1 -20.9 82.6 -21.0 88.6 -21.9 90.5 -22.0 91.0 -22.15 91.35 -22.25 91.5 -22.75 92.85 -24.65 95.0 -25.0 95.5 -28.4 98.85 -29.9 98.35 -35.25 95.25 -41.4 90.75 -62.15 68.35 -62.4 68.25 -63.5 75.6 -71.9 112.1 -75.4 118.0 -73.4 111.5 -70.75 99.1 -70.15 94.5 -65.9 75.35 -62.4 55.6 -60.65 42.5 -53.5 30.1 -53.15 30.0 -52.5 28.35 -52.15 28.25 -44.25 14.25 -39.9 5.25 -39.65 5.75 -40.0 7.1 -40.15 13.0 -46.75 24.6 -56.4 40.25 -53.75 42.85 -57.25 41.6 -58.5 43.35 -58.65 43.6 -58.75 44.0 Q-40.0 51.75 -28.25 63.85 -26.9 61.35 -29.0 58.6 -21.75 65.5 -22.15 77.25 -1.15 85.25 21.35 77.6 20.5 66.25 26.6 59.75 L27.75 58.75 26.6 61.5 27.1 63.85 Q37.0 52.25 62.25 42.5 L61.0 40.75 56.75 41.35 53.6 42.5 58.25 37.1 55.85 33.75 55.75 33.5 49.1 24.1 48.85 23.85 44.25 17.0 44.0 16.75 40.25 11.25 Q40.35 9.6 38.0 6.35 L38.25 0.1 44.1 10.1 44.85 12.0 65.35 42.25 67.35 49.35 67.75 52.5 72.85 72.1 75.35 80.1 75.5 81.5 78.85 91.5 79.5 94.75 83.35 107.75 85.35 112.5 85.85 114.6 M-19.9 -2.15 L-19.25 2.6 -18.0 6.85 -17.9 7.1 -17.4 8.75 -16.4 10.5 Q-8.15 23.0 0.85 20.25 L3.25 20.0 Q15.5 16.35 17.6 6.25 L18.5 3.0 18.85 -0.65 19.85 9.6 19.0 22.25 12.0 41.1 7.25 46.25 0.1 47.75 -7.15 46.25 -11.5 41.25 -12.0 41.1 -18.65 22.35 -19.0 22.1 -19.5 14.0 -19.25 12.85 -19.9 10.5 -20.75 -6.25 -19.9 -6.15 -19.9 -2.15" fill="#000000" fill-opacity="0.49803922" fill-rule="evenodd" stroke="none"/>
  </g>
</svg>
