<?xml version="1.0" encoding="UTF-8" standalone="no"?>
<svg xmlns:ffdec="https://www.free-decompiler.com/flash" xmlns:xlink="http://www.w3.org/1999/xlink" ffdec:objectType="shape" height="177.2px" width="149.4px" xmlns="http://www.w3.org/2000/svg">
  <g transform="matrix(1.0, 0.0, 0.0, 1.0, 73.65, 64.7)">
    <path d="M-12.75 -16.25 L-15.25 -20.25 -15.25 -25.0 -10.25 -27.0 -1.5 -26.75 -0.25 -26.25 0.0 -26.5 0.75 -26.75 6.75 -27.5 Q13.75 -26.5 14.25 -25.0 L14.25 -20.5 12.0 -16.75 Q9.5 -12.0 -0.25 -15.5 L-7.25 -13.75 Q-13.0 -14.5 -12.75 -16.25 M17.5 6.5 L22.0 16.75 23.75 23.5 29.75 34.75 Q32.75 39.5 38.75 43.75 L41.5 48.75 33.25 53.75 28.5 57.75 24.5 62.5 22.25 68.0 Q21.75 82.0 19.75 83.25 4.5 91.75 -21.75 81.75 L-22.25 70.0 -25.5 61.75 -30.5 56.75 -38.0 51.5 -28.75 35.75 -25.0 26.75 -22.25 17.5 -17.75 8.25 -17.5 8.25 Q-8.25 24.0 1.0 20.25 L2.5 20.25 3.25 20.0 Q14.0 18.25 17.5 6.5 M-3.5 -19.0 L-4.75 -19.75 -6.75 -20.5 -8.0 -20.0 -9.0 -18.75 -9.5 -17.5 -7.75 -15.75 -4.5 -15.75 -3.5 -17.25 -3.5 -19.0 M5.75 -20.5 L5.25 -20.25 4.5 -20.0 4.0 -19.75 3.75 -19.5 Q1.75 -19.25 3.75 -15.75 L7.0 -15.75 Q8.75 -17.5 8.25 -19.5 L7.0 -20.0 6.75 -20.0 5.75 -20.5" fill="#ffffff" fill-rule="evenodd" stroke="none"/>
    <path d="M5.75 -20.5 L6.75 -20.0 7.0 -20.0 8.25 -19.5 Q8.75 -17.5 7.0 -15.75 L3.75 -15.75 Q1.75 -19.25 3.75 -19.5 L4.0 -19.75 4.5 -20.0 5.25 -20.25 5.75 -20.5 M-3.5 -19.0 L-3.5 -17.25 -4.5 -15.75 -7.75 -15.75 -9.5 -17.5 -9.0 -18.75 -8.0 -20.0 -6.75 -20.5 -4.75 -19.75 -3.5 -19.0" fill="#000000" fill-rule="evenodd" stroke="none"/>
    <path d="M12.0 -16.75 Q14.0 -16.05 15.5 -14.5 L18.5 -10.25 19.25 -2.5 17.5 6.5 Q14.0 18.25 3.25 20.0 L2.5 20.25 1.0 20.25 Q-8.25 24.0 -17.5 8.25 L-17.75 8.25 Q-24.75 -12.0 -12.75 -16.25 -13.0 -14.5 -7.25 -13.75 L-0.25 -15.5 Q9.5 -12.0 12.0 -16.75 M41.5 48.75 L53.25 42.5 53.5 42.5 56.0 46.75 54.5 76.25 40.0 91.5 28.5 98.75 26.5 98.5 21.0 92.0 19.75 88.0 19.75 83.25 Q21.75 82.0 22.25 68.0 L24.5 62.5 28.5 57.75 33.25 53.75 41.5 48.75 M-21.75 81.75 L-21.75 84.75 -25.25 93.25 -30.25 98.25 -37.0 94.5 -44.5 89.0 -47.5 85.75 -48.0 85.5 -51.0 51.75 -52.25 46.5 -52.0 46.0 -52.0 45.5 -51.0 44.25 -38.0 51.5 -30.5 56.75 -25.5 61.75 -22.25 70.0 -21.75 81.75 M-68.25 44.0 L-68.25 45.75 -70.0 51.5 -70.5 56.75 -71.0 56.25 -71.0 56.0 -71.75 55.25 Q-74.5 52.5 -73.25 50.25 L-68.5 43.75 -68.25 44.0" fill="#e58508" fill-rule="evenodd" stroke="none"/>
    <path d="M-69.15 44.25 L-68.65 39.25 -64.0 22.1 -64.0 21.6 -63.75 21.25 -63.75 20.85 Q-60.4 -3.5 -47.0 -21.4 L-29.9 -43.25 -20.75 -53.15 -12.75 -59.4 -8.15 -62.0 -3.25 -64.15 Q5.5 -67.75 25.75 -47.15 L34.6 -36.75 45.25 -22.9 51.0 -13.9 54.25 -7.4 58.35 2.25 58.35 2.35 65.5 19.75 72.85 40.35 73.75 44.6 73.25 47.75 75.6 54.1 75.75 65.85 75.5 68.1 72.1 81.75 Q62.35 107.1 56.6 107.1 L56.6 106.75 56.6 103.85 56.0 100.0 56.35 97.5 56.35 87.25 56.75 84.35 56.6 75.1 57.0 66.85 56.75 66.5 57.25 64.5 57.85 51.25 58.85 43.85 58.25 44.35 51.0 31.1 50.25 28.85 41.35 12.25 36.1 0.0 35.25 6.1 37.75 13.1 52.35 40.0 52.75 40.5 53.75 42.5 53.85 42.5 55.25 45.1 46.0 49.6 36.0 56.0 28.75 62.0 27.1 63.85 26.6 61.5 27.75 58.75 26.6 59.75 Q20.5 66.25 21.35 77.6 -1.15 85.25 -22.15 77.25 -21.75 65.5 -29.0 58.6 -26.9 61.35 -28.25 63.85 L-32.4 59.6 -39.15 54.6 -47.15 49.6 -52.25 47.1 -52.4 46.0 -51.25 44.1 -40.15 20.75 -36.9 13.1 -37.5 5.75 -40.0 12.0 -40.65 14.5 -48.0 30.6 -48.75 33.0 -54.25 44.35 -54.75 44.1 -53.15 53.1 -51.15 71.1 -49.75 88.85 -50.0 89.75 -49.4 93.35 -48.5 105.1 -48.75 112.5 -52.9 109.25 -61.75 91.5 -65.0 82.85 -69.5 66.0 -70.15 57.6 -70.25 54.75 -69.9 52.25 -70.0 52.1 -69.5 50.85 -69.65 50.75 -69.25 49.85 -68.4 46.75 -68.5 46.5 -69.15 44.25 M-19.9 -2.15 L-19.9 -6.15 -20.75 -6.25 -19.9 10.5 -19.25 12.85 -19.5 14.0 -19.0 22.1 -18.65 22.35 -12.0 41.1 -11.5 41.25 -7.15 46.25 0.1 47.75 7.25 46.25 12.0 41.1 19.0 22.25 19.85 9.6 18.85 -0.65 18.5 3.0 17.6 6.25 Q15.5 16.35 3.25 20.0 L0.85 20.25 Q-8.15 23.0 -16.4 10.5 L-17.4 8.75 -17.9 7.1 -18.0 6.85 -19.25 2.6 -19.9 -2.15" fill="#cecece" fill-opacity="0.0" fill-rule="evenodd" stroke="none"/>
    <path d="M56.6 106.75 L56.1 106.25 54.5 102.0 54.5 76.1 54.35 76.1 40.25 90.75 34.25 95.25 28.85 98.35 27.35 98.85 26.75 98.35 23.1 94.6 21.1 91.85 19.85 87.85 19.75 83.1 17.5 84.1 -0.15 87.25 -17.75 84.1 -20.9 82.6 -21.0 88.6 -21.9 90.5 -22.0 91.0 -22.15 91.35 -22.25 91.5 -22.75 92.85 -24.65 95.0 -25.0 95.5 -28.4 98.85 -29.9 98.35 -35.25 95.25 -41.4 90.75 -48.15 84.25 -46.9 106.25 -48.75 112.5 -48.5 105.1 -49.4 93.35 -50.0 89.75 -49.75 88.85 -51.15 71.1 -53.15 53.1 -54.75 44.1 -54.25 44.35 -48.75 33.0 -48.0 30.6 -40.65 14.5 -40.0 12.0 -37.5 5.75 -36.9 13.1 -40.15 20.75 -51.25 44.1 -52.4 46.0 -52.25 47.1 -47.15 49.6 -39.15 54.6 -32.4 59.6 -28.25 63.85 Q-26.9 61.35 -29.0 58.6 -21.75 65.5 -22.15 77.25 -1.15 85.25 21.35 77.6 20.5 66.25 26.6 59.75 L27.75 58.75 26.6 61.5 27.1 63.85 28.75 62.0 36.0 56.0 46.0 49.6 55.25 45.1 53.85 42.5 53.75 42.5 52.75 40.5 52.35 40.0 37.75 13.1 35.25 6.1 36.1 0.0 41.35 12.25 50.25 28.85 51.0 31.1 58.25 44.35 58.85 43.85 57.85 51.25 57.25 64.5 56.75 66.5 57.0 66.85 56.6 75.1 56.75 84.35 56.35 87.25 56.35 97.5 56.0 100.0 56.6 103.85 56.6 106.75 M-70.15 57.6 L-70.75 56.85 -73.15 52.5 -73.4 50.85 -69.9 45.1 -69.15 44.25 -68.5 46.5 -68.4 46.75 -69.25 49.85 -69.65 50.75 -69.5 50.85 -70.0 52.1 -69.9 52.25 -70.25 54.75 -70.15 57.6 M-19.9 -2.15 L-19.25 2.6 -18.0 6.85 -17.9 7.1 -17.4 8.75 -16.4 10.5 Q-8.15 23.0 0.85 20.25 L3.25 20.0 Q15.5 16.35 17.6 6.25 L18.5 3.0 18.85 -0.65 19.85 9.6 19.0 22.25 12.0 41.1 7.25 46.25 0.1 47.75 -7.15 46.25 -11.5 41.25 -12.0 41.1 -18.65 22.35 -19.0 22.1 -19.5 14.0 -19.25 12.85 -19.9 10.5 -20.75 -6.25 -19.9 -6.15 -19.9 -2.15" fill="#000000" fill-opacity="0.49803922" fill-rule="evenodd" stroke="none"/>
  </g>
</svg>
