<?xml version="1.0" encoding="UTF-8" standalone="no"?>
<svg xmlns:ffdec="https://www.free-decompiler.com/flash" xmlns:xlink="http://www.w3.org/1999/xlink" ffdec:objectType="shape" height="163.45px" width="145.9px" xmlns="http://www.w3.org/2000/svg">
  <g transform="matrix(1.0, 0.0, 0.0, 1.0, 73.4, 64.45)">
    <path d="M-12.75 -16.25 L-15.25 -20.25 -15.25 -25.0 -10.25 -27.0 -1.5 -26.75 -0.25 -26.25 0.0 -26.5 0.75 -26.75 6.75 -27.5 Q13.75 -26.5 14.25 -25.0 L14.25 -20.5 12.0 -16.75 Q9.5 -12.0 -0.25 -15.5 L-7.25 -13.75 Q-13.0 -14.5 -12.75 -16.25 M17.5 6.5 L22.0 16.75 23.75 23.5 29.75 34.75 Q32.75 39.5 38.75 43.75 L41.5 48.75 33.25 53.75 28.5 57.75 24.5 62.5 22.25 68.0 Q21.75 82.0 19.75 83.25 4.5 91.75 -21.75 81.75 L-22.25 70.0 -25.5 61.75 -30.5 56.75 -38.0 51.5 -28.75 35.75 -25.0 26.75 -22.25 17.5 -17.75 8.25 -17.5 8.25 Q-8.25 24.0 1.0 20.25 L2.5 20.25 3.25 20.0 Q14.0 18.25 17.5 6.5 M-3.5 -19.0 L-4.75 -19.75 -6.75 -20.5 -8.0 -20.0 -9.0 -18.75 -9.5 -17.5 -7.75 -15.75 -4.5 -15.75 -3.5 -17.25 -3.5 -19.0 M5.75 -20.5 L5.25 -20.25 4.5 -20.0 4.0 -19.75 3.75 -19.5 Q1.75 -19.25 3.75 -15.75 L7.0 -15.75 Q8.75 -17.5 8.25 -19.5 L7.0 -20.0 6.75 -20.0 5.75 -20.5" fill="#ffffff" fill-rule="evenodd" stroke="none"/>
    <path d="M5.75 -20.5 L6.75 -20.0 7.0 -20.0 8.25 -19.5 Q8.75 -17.5 7.0 -15.75 L3.75 -15.75 Q1.75 -19.25 3.75 -19.5 L4.0 -19.75 4.5 -20.0 5.25 -20.25 5.75 -20.5 M-3.5 -19.0 L-3.5 -17.25 -4.5 -15.75 -7.75 -15.75 -9.5 -17.5 -9.0 -18.75 -8.0 -20.0 -6.75 -20.5 -4.75 -19.75 -3.5 -19.0" fill="#000000" fill-rule="evenodd" stroke="none"/>
    <path d="M12.0 -16.75 Q14.0 -16.05 15.5 -14.5 L18.5 -10.25 19.25 -2.5 17.5 6.5 Q14.0 18.25 3.25 20.0 L2.5 20.25 1.0 20.25 Q-8.25 24.0 -17.5 8.25 L-17.75 8.25 Q-24.75 -12.0 -12.75 -16.25 -13.0 -14.5 -7.25 -13.75 L-0.25 -15.5 Q9.5 -12.0 12.0 -16.75 M41.5 48.75 L47.25 45.5 47.75 46.5 48.0 46.5 47.0 48.0 47.0 48.25 46.5 49.25 46.5 49.5 43.0 55.0 37.25 66.25 36.5 68.25 36.0 68.75 36.0 69.25 35.75 69.5 35.75 69.75 29.25 84.0 29.5 89.5 34.25 90.0 46.5 84.75 39.0 92.25 Q32.0 97.75 27.0 99.0 L21.0 92.0 Q19.0 88.25 19.75 83.25 21.75 82.0 22.25 68.0 L24.5 62.5 28.5 57.75 33.25 53.75 41.5 48.75 M-21.75 81.75 L-21.75 84.75 -24.25 90.75 -36.5 63.25 -44.75 47.5 -38.0 51.5 -30.5 56.75 -25.5 61.75 -22.25 70.0 -21.75 81.75 M-63.0 48.25 L-63.0 49.25 -62.5 52.75 -62.25 61.25 -59.25 69.25 -59.25 69.5 -58.75 70.5 -47.75 83.5 -36.5 92.25 Q-33.35 93.9 -30.25 95.5 L-28.75 96.5 -31.0 98.25 -37.0 94.5 -45.25 88.5 -50.25 82.25 -51.0 81.5 -51.0 81.25 -52.5 79.75 -53.25 78.75 -58.5 73.0 -71.0 56.25 -71.0 56.0 -71.75 55.25 -73.25 53.25 -73.25 50.25 -69.75 44.75 Q-65.5 40.25 -63.25 40.75 L-63.0 41.25 -63.25 42.0 -63.75 44.5 -63.25 46.0 -63.25 46.25 -63.0 48.25 M65.75 42.25 L68.25 44.25 72.5 50.5 72.25 52.75 66.5 61.5 65.75 54.25 66.25 48.0 66.75 47.75 66.25 45.5 66.25 44.5 65.75 43.0 65.75 42.25" fill="#e58508" fill-rule="evenodd" stroke="none"/>
    <path d="M-63.9 21.5 Q-60.4 -3.9 -47.0 -21.4 -17.4 -63.4 -1.25 -64.4 5.85 -65.25 18.85 -53.9 L28.1 -44.65 44.85 -23.4 Q61.5 0.75 63.1 22.6 L62.25 27.25 63.25 30.85 65.85 42.1 66.75 44.85 67.25 50.1 66.25 53.35 66.25 53.5 66.1 53.85 65.75 54.35 66.0 56.35 66.0 57.5 66.25 59.35 66.0 61.85 66.0 62.1 65.25 64.6 61.85 72.1 53.35 80.6 46.1 85.0 41.35 87.1 40.1 87.5 35.75 89.35 34.85 89.6 34.1 90.0 33.35 90.1 30.35 89.5 30.0 89.5 29.35 89.1 31.1 82.85 42.5 59.25 48.5 49.0 48.6 48.25 51.85 43.85 50.5 44.5 45.5 32.35 44.85 29.85 37.85 12.1 34.25 0.35 Q30.6 7.35 37.0 20.1 L41.5 31.5 41.75 31.85 47.1 44.6 47.35 45.5 47.5 45.5 48.1 46.6 46.1 49.6 36.0 56.0 28.75 62.0 27.1 63.85 26.6 61.5 27.75 58.75 26.6 59.75 Q20.5 66.25 21.35 77.6 -1.15 85.25 -22.15 77.25 -21.75 65.5 -29.0 58.6 -26.9 61.35 -28.25 63.85 L-34.25 58.1 -42.15 52.85 -45.15 47.35 -45.75 46.6 -38.15 26.0 -33.9 13.0 -35.25 6.0 -37.5 14.6 -43.4 31.6 -44.0 34.35 -47.9 44.85 -49.4 44.25 -46.5 48.35 -36.0 68.75 -36.0 69.5 -35.65 69.6 -32.25 77.85 -26.5 89.6 -24.65 96.35 -26.0 96.5 -26.65 96.5 -27.5 96.35 -29.5 96.25 -32.75 94.25 -33.75 93.25 -34.25 93.25 -34.75 92.6 -37.4 91.25 -42.15 88.0 -48.4 82.75 -57.25 72.1 -58.5 69.35 -59.25 67.0 -59.75 66.5 -62.15 60.75 -62.4 59.6 -62.5 59.5 -62.4 58.35 -62.5 58.25 -62.4 56.85 -62.5 56.6 -62.4 53.1 -63.0 52.1 -63.75 49.5 -64.0 47.5 -63.9 44.0 -63.75 43.6 -63.5 42.35 -67.0 42.25 -65.4 41.1 -63.25 40.85 -63.25 40.1 -61.65 31.85 -61.75 31.75 -63.4 28.25 -63.9 21.5 M0.85 20.25 Q-8.15 23.0 -16.4 10.5 L-17.4 8.75 -17.9 7.1 -18.0 6.85 -19.25 2.6 -19.9 -2.15 -19.9 -6.15 -20.75 -6.25 -19.9 10.5 -19.25 12.85 -19.5 14.0 -19.0 22.1 -18.65 22.35 -12.0 41.1 -11.5 41.25 -7.15 46.25 0.1 47.75 7.25 46.25 12.0 41.1 19.0 22.25 19.85 9.6 18.85 -0.65 18.5 3.0 17.6 6.25 Q15.5 16.35 3.25 20.0 L0.85 20.25" fill="#cecece" fill-opacity="0.0" fill-rule="evenodd" stroke="none"/>
    <path d="M-63.9 21.5 L-63.4 28.25 -61.75 31.75 -61.65 31.85 -63.25 40.1 -64.4 29.1 -63.9 21.5 M-67.0 42.25 L-63.5 42.35 -63.75 43.6 -63.9 44.0 -64.0 47.5 -63.75 49.5 -63.0 52.1 -62.4 53.1 -62.5 56.6 -62.4 56.85 -62.5 58.25 -62.4 58.35 -62.5 59.5 -62.4 59.6 -62.15 60.75 -59.75 66.5 -59.25 67.0 -58.5 69.35 -57.25 72.1 -48.4 82.75 -42.15 88.0 -37.4 91.25 -34.75 92.6 -34.25 93.25 -33.75 93.25 -32.75 94.25 -29.5 96.25 -27.5 96.35 -26.65 96.5 -26.0 96.5 -28.4 98.85 -29.9 98.35 -35.25 95.25 -41.4 90.75 -62.75 67.5 -70.75 56.85 -73.15 52.5 -73.4 50.85 -69.9 45.1 -67.0 42.25 M-24.65 96.35 L-26.5 89.6 -32.25 77.85 -35.65 69.6 -36.0 69.5 -36.0 68.75 -46.5 48.35 -49.4 44.25 -47.9 44.85 -44.0 34.35 -43.4 31.6 -37.5 14.6 -35.25 6.0 -33.9 13.0 -38.15 26.0 -45.75 46.6 -45.15 47.35 -42.15 52.85 -34.25 58.1 -28.25 63.85 Q-26.9 61.35 -29.0 58.6 -21.75 65.5 -22.15 77.25 -1.15 85.25 21.35 77.6 20.5 66.25 26.6 59.75 L27.75 58.75 26.6 61.5 27.1 63.85 28.75 62.0 36.0 56.0 46.1 49.6 48.1 46.6 47.5 45.5 47.35 45.5 47.1 44.6 41.75 31.85 41.5 31.5 37.0 20.1 Q30.6 7.35 34.25 0.35 L37.85 12.1 44.85 29.85 45.5 32.35 50.5 44.5 51.85 43.85 48.6 48.25 48.5 49.0 42.5 59.25 31.1 82.85 29.35 89.1 30.0 89.5 30.35 89.5 33.35 90.1 34.1 90.0 34.85 89.6 35.75 89.35 40.1 87.5 41.35 87.1 46.1 85.0 40.1 91.0 38.25 92.5 30.25 97.75 28.6 98.6 27.35 98.85 26.75 98.35 23.1 94.6 21.1 91.85 19.85 87.85 19.75 83.1 17.5 84.1 -0.15 87.25 -17.75 84.1 -20.9 82.6 -21.0 88.6 -21.9 90.5 -22.0 91.0 -22.15 91.35 -22.25 91.5 -22.75 92.85 -24.65 95.0 -24.65 96.35 M66.0 61.85 L66.25 59.35 66.0 57.5 66.0 56.35 65.75 54.35 66.1 53.85 66.25 53.5 66.25 53.35 67.25 50.1 66.75 44.85 65.85 42.1 68.35 44.6 72.25 50.35 72.35 50.75 72.1 52.5 71.25 54.35 66.0 61.85 M63.25 30.85 L62.25 27.25 63.1 22.6 63.5 26.6 63.25 30.85 M0.85 20.25 L3.25 20.0 Q15.5 16.35 17.6 6.25 L18.5 3.0 18.85 -0.65 19.85 9.6 19.0 22.25 12.0 41.1 7.25 46.25 0.1 47.75 -7.15 46.25 -11.5 41.25 -12.0 41.1 -18.65 22.35 -19.0 22.1 -19.5 14.0 -19.25 12.85 -19.9 10.5 -20.75 -6.25 -19.9 -6.15 -19.9 -2.15 -19.25 2.6 -18.0 6.85 -17.9 7.1 -17.4 8.75 -16.4 10.5 Q-8.15 23.0 0.85 20.25" fill="#000000" fill-opacity="0.49803922" fill-rule="evenodd" stroke="none"/>
  </g>
</svg>
