<?xml version="1.0" encoding="UTF-8" standalone="no"?>
<svg xmlns:ffdec="https://www.free-decompiler.com/flash" xmlns:xlink="http://www.w3.org/1999/xlink" ffdec:objectType="shape" height="163.45px" width="145.75px" xmlns="http://www.w3.org/2000/svg">
  <g transform="matrix(1.0, 0.0, 0.0, 1.0, 73.4, 64.45)">
    <path d="M-12.75 -16.25 L-15.25 -20.25 -15.25 -25.0 -10.25 -27.0 -1.5 -26.75 -0.25 -26.25 0.0 -26.5 0.75 -26.75 6.75 -27.5 Q13.75 -26.5 14.25 -25.0 L14.25 -20.5 12.0 -16.75 Q9.5 -12.0 -0.25 -15.5 L-7.25 -13.75 Q-13.0 -14.5 -12.75 -16.25 M17.5 6.5 L22.0 16.75 23.75 23.5 29.75 34.75 32.25 38.25 Q39.25 43.5 39.25 45.0 L32.75 49.25 32.25 49.75 31.75 50.0 28.75 52.0 28.25 52.5 28.0 52.5 25.0 54.5 24.5 55.0 23.75 55.25 23.0 56.0 21.5 57.0 13.5 63.5 Q6.75 69.5 15.0 72.0 L21.5 73.75 20.75 82.75 19.75 83.25 Q4.5 91.75 -21.75 81.75 L-22.25 81.25 -21.75 79.0 -12.5 78.75 -7.75 76.5 -9.5 71.5 -21.75 60.0 -22.5 59.5 -23.0 59.0 -35.75 48.25 -26.25 30.25 -22.25 17.5 -17.75 8.25 -17.5 8.25 Q-8.25 24.0 1.0 20.25 L2.5 20.25 3.25 20.0 Q14.0 18.25 17.5 6.5 M-3.5 -19.0 L-4.75 -19.75 -6.75 -20.5 -8.0 -20.0 -9.0 -18.75 -9.5 -17.5 -7.75 -15.75 -4.5 -15.75 -3.5 -17.25 -3.5 -19.0 M5.75 -20.5 L5.25 -20.25 4.5 -20.0 4.0 -19.75 3.75 -19.5 Q1.75 -19.25 3.75 -15.75 L7.0 -15.75 Q8.75 -17.5 8.25 -19.5 L7.0 -20.0 6.75 -20.0 5.75 -20.5" fill="#ffffff" fill-rule="evenodd" stroke="none"/>
    <path d="M5.75 -20.5 L6.75 -20.0 7.0 -20.0 8.25 -19.5 Q8.75 -17.5 7.0 -15.75 L3.75 -15.75 Q1.75 -19.25 3.75 -19.5 L4.0 -19.75 4.5 -20.0 5.25 -20.25 5.75 -20.5 M-3.5 -19.0 L-3.5 -17.25 -4.5 -15.75 -7.75 -15.75 -9.5 -17.5 -9.0 -18.75 -8.0 -20.0 -6.75 -20.5 -4.75 -19.75 -3.5 -19.0" fill="#000000" fill-rule="evenodd" stroke="none"/>
    <path d="M12.0 -16.75 Q14.0 -16.05 15.5 -14.5 L18.5 -10.25 19.25 -2.5 17.5 6.5 Q14.0 18.25 3.25 20.0 L2.5 20.25 1.0 20.25 Q-8.25 24.0 -17.5 8.25 L-17.75 8.25 Q-24.75 -12.0 -12.75 -16.25 -13.0 -14.5 -7.25 -13.75 L-0.25 -15.5 Q9.5 -12.0 12.0 -16.75 M21.5 73.75 Q55.0 81.5 58.25 58.25 L59.5 57.75 59.5 55.0 59.75 54.0 60.25 49.0 59.25 41.75 59.25 40.75 62.0 41.0 Q70.75 43.0 72.25 52.75 L64.5 64.5 47.5 84.0 40.25 91.25 36.0 94.5 27.75 99.0 Q18.25 92.75 19.75 83.25 L20.75 82.75 21.5 73.75 M-21.75 81.75 L-21.75 84.75 -25.25 93.25 -31.0 98.25 -44.5 89.0 -50.25 82.25 -51.0 81.5 -51.0 81.25 -52.5 79.75 -53.25 78.75 -58.5 73.0 -71.0 56.25 -71.0 56.0 -71.75 55.25 -73.25 53.25 -73.25 50.25 -69.75 44.75 Q-65.5 40.25 -63.25 40.75 L-58.5 41.0 -58.75 50.0 -58.5 50.5 -58.0 53.75 -57.75 54.75 -56.75 57.0 Q-55.0 68.5 -48.25 72.5 L-35.75 77.25 -35.5 77.5 -35.25 77.5 -33.25 78.0 -21.75 79.0 -22.25 81.25 -21.75 81.75" fill="#e58508" fill-rule="evenodd" stroke="none"/>
    <path d="M-63.9 21.5 Q-60.4 -3.9 -47.0 -21.4 -17.4 -63.4 -1.25 -64.4 5.85 -65.25 18.85 -53.9 L28.1 -44.65 44.85 -23.4 Q61.5 0.75 63.1 22.6 L61.75 30.6 58.85 35.85 59.5 40.75 62.0 40.85 64.0 41.0 66.0 42.25 63.75 42.1 59.85 43.1 60.75 49.25 60.6 52.75 60.75 53.75 59.85 56.35 59.5 56.85 59.5 57.0 59.1 57.5 58.35 58.1 58.35 58.35 56.75 64.75 56.0 66.5 54.75 68.5 48.25 73.0 47.85 73.1 47.6 73.25 47.1 73.35 46.75 73.5 46.35 73.5 46.1 73.6 45.85 73.75 45.5 73.75 36.0 75.6 31.0 75.25 21.6 73.5 21.5 73.5 21.35 77.6 18.1 79.0 0.6 81.35 -18.75 78.75 -30.65 78.5 -32.25 78.1 -32.4 78.1 -34.0 77.75 -34.25 77.75 -47.4 72.5 -53.0 67.1 -53.9 65.6 -54.0 65.5 -54.65 64.6 -54.75 64.35 -56.5 57.5 -57.5 56.6 -58.5 54.35 -58.65 54.25 -59.25 52.5 -59.4 48.35 -58.9 43.85 -59.0 43.75 -64.75 42.1 -67.0 42.25 -65.4 41.1 -63.15 40.85 -60.75 40.75 -58.65 41.1 -58.25 37.6 -58.4 37.35 Q-59.9 37.0 -63.25 28.5 L-63.9 21.5 M-31.5 10.5 L-33.4 5.35 -35.0 14.1 -39.5 31.75 -40.0 35.0 -42.65 44.0 -44.4 43.6 -41.75 45.0 -26.25 57.6 -26.25 58.0 -11.5 71.0 -8.0 76.1 -9.4 72.0 -10.4 70.75 -28.5 53.85 -39.4 45.5 -40.0 45.1 -35.9 31.25 -32.15 16.6 -31.4 12.35 -31.5 10.5 M-19.9 -2.15 L-19.9 -6.15 -20.75 -6.25 -19.9 10.5 -19.25 12.85 -19.5 14.0 -19.0 22.1 -18.65 22.35 -12.0 41.1 -11.5 41.25 -7.15 46.25 0.1 47.75 7.25 46.25 12.0 41.1 19.0 22.25 19.85 9.6 18.85 -0.65 18.5 3.0 17.6 6.25 Q15.5 16.35 3.25 20.0 L0.85 20.25 Q-8.15 23.0 -16.4 10.5 L-17.4 8.75 -17.9 7.1 -18.0 6.85 -19.25 2.6 -19.9 -2.15 M-9.0 77.0 L-11.9 78.5 -10.65 78.25 -9.0 77.0 M14.85 71.85 Q12.0 69.1 11.35 69.35 L13.5 71.6 15.95 72.1 14.85 71.85 M34.75 11.5 L32.5 0.75 Q31.35 2.5 31.1 5.25 L30.35 6.5 30.85 9.1 30.75 11.35 35.0 26.0 35.1 26.25 40.75 44.35 30.0 50.85 22.6 56.5 22.5 56.5 22.0 57.0 12.1 64.35 10.75 67.85 11.5 67.35 14.0 63.75 23.75 56.85 33.35 49.35 43.6 43.25 34.75 11.5" fill="#cecece" fill-opacity="0.0" fill-rule="evenodd" stroke="none"/>
    <path d="M63.1 22.6 L63.5 29.0 62.0 40.85 59.5 40.75 58.85 35.85 61.75 30.6 63.1 22.6 M66.0 42.25 L68.35 44.6 72.25 50.35 72.35 50.75 72.1 52.5 71.25 54.35 66.25 61.85 52.0 78.6 40.1 91.0 38.25 92.5 30.25 97.75 28.6 98.6 27.35 98.85 26.75 98.35 23.1 94.6 21.1 91.85 19.85 87.85 19.75 83.1 17.5 84.1 -0.15 87.25 -17.75 84.1 -20.9 82.6 -21.0 88.6 -21.9 90.5 -22.0 91.0 -22.15 91.35 -22.25 91.5 -22.75 92.85 -24.65 95.0 -25.0 95.5 -28.4 98.85 -29.9 98.35 -35.25 95.25 -41.4 90.75 -53.0 78.6 -62.75 67.5 -70.75 56.85 -73.15 52.5 -73.4 50.85 -69.9 45.1 -67.0 42.25 -64.75 42.1 -59.0 43.75 -58.9 43.85 -59.4 48.35 -59.25 52.5 -58.65 54.25 -58.5 54.35 -57.5 56.6 -56.5 57.5 -54.75 64.35 -54.65 64.6 -54.0 65.5 -53.9 65.6 -53.0 67.1 -47.4 72.5 -34.25 77.75 -34.0 77.75 -32.4 78.1 -32.25 78.1 -30.65 78.5 -18.75 78.75 0.6 81.35 18.1 79.0 21.35 77.6 21.5 73.5 21.6 73.5 31.0 75.25 36.0 75.6 45.5 73.75 45.85 73.75 46.1 73.6 46.35 73.5 46.75 73.5 47.1 73.35 47.6 73.25 47.85 73.1 48.25 73.0 54.75 68.5 56.0 66.5 56.75 64.75 58.35 58.35 58.35 58.1 59.1 57.5 59.5 57.0 59.5 56.85 59.85 56.35 60.75 53.75 60.6 52.75 60.75 49.25 59.85 43.1 63.75 42.1 66.0 42.25 M-63.15 40.85 L-64.4 29.1 -63.9 21.5 -63.25 28.5 Q-59.9 37.0 -58.4 37.35 L-58.25 37.6 -58.65 41.1 -60.75 40.75 -63.15 40.85 M-19.9 -2.15 L-19.25 2.6 -18.0 6.85 -17.9 7.1 -17.4 8.75 -16.4 10.5 Q-8.15 23.0 0.85 20.25 L3.25 20.0 Q15.5 16.35 17.6 6.25 L18.5 3.0 18.85 -0.65 19.85 9.6 19.0 22.25 12.0 41.1 7.25 46.25 0.1 47.75 -7.15 46.25 -11.5 41.25 -12.0 41.1 -18.65 22.35 -19.0 22.1 -19.5 14.0 -19.25 12.85 -19.9 10.5 -20.75 -6.25 -19.9 -6.15 -19.9 -2.15 M-31.5 10.5 L-31.4 12.35 -32.15 16.6 -35.9 31.25 -40.0 45.1 -39.4 45.5 -28.5 53.85 -10.4 70.75 -9.4 72.0 -8.0 76.1 -11.5 71.0 -26.25 58.0 -26.25 57.6 -41.75 45.0 -44.4 43.6 -42.65 44.0 -40.0 35.0 -39.5 31.75 -35.0 14.1 -33.4 5.35 -31.5 10.5 M-9.0 77.0 L-10.65 78.25 -11.9 78.5 -9.0 77.0 M34.75 11.5 L43.6 43.25 33.35 49.35 23.75 56.85 14.0 63.75 11.5 67.35 10.75 67.85 12.1 64.35 22.0 57.0 22.5 56.5 22.6 56.5 30.0 50.85 40.75 44.35 35.1 26.25 35.0 26.0 30.75 11.35 30.85 9.1 30.35 6.5 31.1 5.25 Q31.35 2.5 32.5 0.75 L34.75 11.5 M14.85 71.85 L15.95 72.1 13.5 71.6 11.35 69.35 Q12.0 69.1 14.85 71.85" fill="#000000" fill-opacity="0.49803922" fill-rule="evenodd" stroke="none"/>
  </g>
</svg>
