<?xml version="1.0" encoding="UTF-8" standalone="no"?>
<svg xmlns:ffdec="https://www.free-decompiler.com/flash" xmlns:xlink="http://www.w3.org/1999/xlink" ffdec:objectType="shape" height="163.45px" width="145.75px" xmlns="http://www.w3.org/2000/svg">
  <g transform="matrix(1.0, 0.0, 0.0, 1.0, 73.4, 64.45)">
    <path d="M-12.75 -16.25 L-15.25 -20.25 -15.25 -25.0 -10.25 -27.0 -1.5 -26.75 -0.25 -26.25 0.0 -26.5 0.75 -26.75 6.75 -27.5 Q13.75 -26.5 14.25 -25.0 L14.25 -20.5 12.0 -16.75 Q9.5 -12.0 -0.25 -15.5 L-7.25 -13.75 Q-13.0 -14.5 -12.75 -16.25 M17.5 6.5 L22.0 16.75 23.75 23.5 29.75 34.5 Q33.0 39.75 35.25 40.75 L35.5 41.5 35.5 41.75 28.5 42.75 12.5 46.75 5.0 49.25 Q-3.25 53.5 4.5 57.75 L13.0 63.75 22.25 68.25 21.0 81.5 20.75 82.75 19.75 83.25 Q4.5 91.75 -21.75 81.75 L-22.5 70.75 -12.0 67.0 -3.75 62.5 Q4.25 57.5 -4.0 54.0 L-17.25 48.5 -33.0 43.5 -26.25 30.25 -22.25 17.5 -17.75 8.25 -17.5 8.25 Q-8.25 24.0 1.0 20.25 L2.5 20.25 3.25 20.0 Q14.0 18.25 17.5 6.5 M-3.5 -19.0 L-4.75 -19.75 -6.75 -20.5 -8.0 -20.0 -9.0 -18.75 -9.5 -17.5 -7.75 -15.75 -4.5 -15.75 -3.5 -17.25 -3.5 -19.0 M5.75 -20.5 L5.25 -20.25 4.5 -20.0 4.0 -19.75 3.75 -19.5 Q1.75 -19.25 3.75 -15.75 L7.0 -15.75 Q8.75 -17.5 8.25 -19.5 L7.0 -20.0 6.75 -20.0 5.75 -20.5" fill="#ffffff" fill-rule="evenodd" stroke="none"/>
    <path d="M5.75 -20.5 L6.75 -20.0 7.0 -20.0 8.25 -19.5 Q8.75 -17.5 7.0 -15.75 L3.75 -15.75 Q1.75 -19.25 3.75 -19.5 L4.0 -19.75 4.5 -20.0 5.25 -20.25 5.75 -20.5 M-3.5 -19.0 L-3.5 -17.25 -4.5 -15.75 -7.75 -15.75 -9.5 -17.5 -9.0 -18.75 -8.0 -20.0 -6.75 -20.5 -4.75 -19.75 -3.5 -19.0" fill="#000000" fill-rule="evenodd" stroke="none"/>
    <path d="M12.0 -16.75 Q14.0 -16.05 15.5 -14.5 L18.5 -10.25 19.25 -2.5 17.5 6.5 Q14.0 18.25 3.25 20.0 L2.5 20.25 1.0 20.25 Q-8.25 24.0 -17.5 8.25 L-17.75 8.25 Q-24.75 -12.0 -12.75 -16.25 -13.0 -14.5 -7.25 -13.75 L-0.25 -15.5 Q9.5 -12.0 12.0 -16.75 M22.25 68.25 L27.75 70.5 38.25 72.25 40.75 72.0 Q49.75 72.0 52.5 60.0 L54.25 59.5 54.5 57.0 54.75 56.25 55.5 52.75 55.5 52.5 55.75 51.5 55.75 48.25 55.5 47.75 55.5 45.0 55.25 44.5 55.25 42.0 58.25 41.0 62.0 41.0 Q70.75 43.0 72.25 52.75 L64.5 64.5 47.5 84.0 40.25 91.25 36.0 94.5 27.75 99.0 Q18.25 92.75 19.75 83.25 L20.75 82.75 21.0 81.5 22.25 68.25 M-21.75 81.75 L-21.75 84.75 -25.25 93.25 -31.0 98.25 -44.5 89.0 -50.25 82.25 -51.0 81.5 -51.0 81.25 -52.5 79.75 -53.25 78.75 -58.5 73.0 -71.0 56.25 -71.0 56.0 -71.75 55.25 -73.25 53.25 -73.25 50.25 -69.75 44.75 Q-65.5 40.25 -63.25 40.75 L-60.0 40.75 -55.5 42.0 -55.75 49.5 -55.5 52.5 -55.25 53.0 -55.25 53.75 -55.0 54.0 -54.5 56.75 -54.25 57.25 -54.0 59.0 -52.5 59.75 -52.25 60.75 Q-46.75 77.5 -22.5 70.75 L-21.75 81.75" fill="#e58508" fill-rule="evenodd" stroke="none"/>
    <path d="M-63.9 21.5 Q-60.4 -3.9 -47.0 -21.4 -17.4 -63.4 -1.25 -64.4 5.85 -65.25 18.85 -53.9 L28.1 -44.65 44.85 -23.4 Q61.5 0.75 63.1 22.6 L61.75 30.6 Q58.0 38.75 55.25 40.35 L55.35 41.85 59.6 40.75 62.0 40.85 64.0 41.0 66.0 42.25 63.75 42.1 61.75 42.5 55.6 44.75 56.1 50.5 55.85 55.1 56.0 55.35 54.35 58.85 53.85 59.5 53.75 59.6 52.75 59.85 52.85 60.35 51.85 62.35 52.1 62.5 51.1 64.5 50.1 65.35 47.35 69.5 45.85 70.0 38.85 71.75 26.0 69.75 22.35 68.25 21.5 72.75 21.35 77.6 Q-1.15 85.25 -22.15 77.25 L-22.25 73.35 -22.9 70.85 -25.9 71.6 -36.9 72.25 -39.9 71.75 -47.0 69.25 -50.0 65.5 -52.65 59.75 -54.25 58.75 -55.5 56.0 -55.75 55.75 -56.0 54.5 -56.0 53.35 -56.25 50.75 -55.9 45.1 -62.9 42.5 -64.9 42.1 -67.0 42.25 -65.4 41.1 -63.15 40.85 -60.75 40.75 -55.75 42.1 -55.65 41.0 -55.75 40.75 Q-61.25 35.5 -63.25 28.5 L-63.9 21.5 M-19.9 -6.15 L-20.75 -6.25 -19.9 10.5 -19.25 12.85 -19.5 14.0 -19.0 22.1 -18.65 22.35 -12.0 41.1 -11.5 41.25 -7.15 46.25 0.1 47.75 7.25 46.25 12.0 41.1 19.0 22.25 19.85 9.6 18.85 -0.65 18.5 3.0 17.6 6.25 Q15.5 16.35 3.25 20.0 L0.85 20.25 Q-8.15 23.0 -16.4 10.5 L-17.4 8.75 -17.9 7.1 -18.0 6.85 -19.25 2.6 -19.9 -2.15 -19.9 -6.15 M-33.25 12.85 L-39.25 42.25 -28.0 45.35 -14.5 50.75 -4.5 54.25 0.1 58.1 Q-1.65 52.0 -36.15 42.85 L-33.4 31.25 -29.9 13.25 -29.65 9.25 -32.15 3.6 -33.25 12.85 M-7.75 64.35 L-2.4 62.0 0.0 58.35 -3.65 62.35 -7.75 64.35 M4.5 57.75 Q2.25 54.0 1.35 54.0 1.1 57.85 18.85 66.5 L4.5 57.75 M5.35 49.35 L15.25 47.0 27.5 43.25 4.0 49.35 1.25 52.35 5.35 49.35 M32.5 10.5 L32.5 8.25 31.25 1.0 28.75 6.5 28.85 11.85 31.6 23.35 33.0 31.5 34.85 39.1 35.1 39.35 35.6 41.85 35.85 41.85 39.0 41.25 32.5 10.5" fill="#cecece" fill-opacity="0.0" fill-rule="evenodd" stroke="none"/>
    <path d="M63.1 22.6 L63.5 29.0 62.0 40.85 59.6 40.75 55.35 41.85 55.25 40.35 Q58.0 38.75 61.75 30.6 L63.1 22.6 M66.0 42.25 L68.35 44.6 72.25 50.35 72.35 50.75 72.1 52.5 71.25 54.35 66.25 61.85 47.6 83.35 40.1 91.0 34.1 95.5 28.6 98.6 27.35 98.85 26.75 98.35 23.1 94.6 21.1 91.85 19.85 87.85 19.75 83.1 17.5 84.1 -0.15 87.25 -17.75 84.1 -20.9 82.6 -21.0 88.6 -21.9 90.5 -22.0 91.0 -22.15 91.35 -22.25 91.5 -22.75 92.85 -24.65 95.0 -25.0 95.5 -28.4 98.85 -29.9 98.35 -35.25 95.25 -41.4 90.75 -57.9 73.25 -67.25 61.85 -70.75 56.85 -73.15 52.5 -73.4 50.85 -69.9 45.1 -67.0 42.25 -64.9 42.1 -62.9 42.5 -55.9 45.1 -56.25 50.75 -56.0 53.35 -56.0 54.5 -55.75 55.75 -55.5 56.0 -54.25 58.75 -52.65 59.75 -50.0 65.5 -47.0 69.25 -39.9 71.75 -36.9 72.25 -25.9 71.6 -22.9 70.85 -22.25 73.35 -22.15 77.25 Q-1.15 85.25 21.35 77.6 L21.5 72.75 22.35 68.25 26.0 69.75 38.85 71.75 45.85 70.0 47.35 69.5 50.1 65.35 51.1 64.5 52.1 62.5 51.85 62.35 52.85 60.35 52.75 59.85 53.75 59.6 53.85 59.5 54.35 58.85 56.0 55.35 55.85 55.1 56.1 50.5 55.6 44.75 61.75 42.5 63.75 42.1 66.0 42.25 M-63.15 40.85 L-64.4 29.1 -63.9 21.5 -63.25 28.5 Q-61.25 35.5 -55.75 40.75 L-55.65 41.0 -55.75 42.1 -60.75 40.75 -63.15 40.85 M-33.25 12.85 L-32.15 3.6 -29.65 9.25 -29.9 13.25 -33.4 31.25 -36.15 42.85 Q-1.65 52.0 0.1 58.1 L-4.5 54.25 -14.5 50.75 -28.0 45.35 -39.25 42.25 -33.25 12.85 M-19.9 -6.15 L-19.9 -2.15 -19.25 2.6 -18.0 6.85 -17.9 7.1 -17.4 8.75 -16.4 10.5 Q-8.15 23.0 0.85 20.25 L3.25 20.0 Q15.5 16.35 17.6 6.25 L18.5 3.0 18.85 -0.65 19.85 9.6 19.0 22.25 12.0 41.1 7.25 46.25 0.1 47.75 -7.15 46.25 -11.5 41.25 -12.0 41.1 -18.65 22.35 -19.0 22.1 -19.5 14.0 -19.25 12.85 -19.9 10.5 -20.75 -6.25 -19.9 -6.15 M-7.75 64.35 L-3.65 62.35 0.0 58.35 -2.4 62.0 -7.75 64.35 M32.5 10.5 L39.0 41.25 35.85 41.85 35.6 41.85 35.1 39.35 34.85 39.1 33.0 31.5 31.6 23.35 28.85 11.85 28.75 6.5 31.25 1.0 32.5 8.25 32.5 10.5 M5.35 49.35 L1.25 52.35 4.0 49.35 27.5 43.25 15.25 47.0 5.35 49.35 M4.5 57.75 L18.85 66.5 Q1.1 57.85 1.35 54.0 2.25 54.0 4.5 57.75" fill="#000000" fill-opacity="0.49803922" fill-rule="evenodd" stroke="none"/>
  </g>
</svg>
