<?xml version="1.0" encoding="UTF-8" standalone="no"?>
<svg xmlns:ffdec="https://www.free-decompiler.com/flash" xmlns:xlink="http://www.w3.org/1999/xlink" ffdec:objectType="shape" height="163.45px" width="145.75px" xmlns="http://www.w3.org/2000/svg">
  <g transform="matrix(1.0, 0.0, 0.0, 1.0, 73.4, 64.45)">
    <path d="M-12.75 -16.25 L-15.25 -20.25 -15.25 -25.0 -10.25 -27.0 -1.5 -26.75 -0.25 -26.25 0.0 -26.5 0.75 -26.75 6.75 -27.5 Q13.75 -26.5 14.25 -25.0 L14.25 -20.5 12.0 -16.75 Q9.5 -12.0 -0.25 -15.5 L-7.25 -13.75 Q-13.0 -14.5 -12.75 -16.25 M17.5 6.5 L22.25 17.25 23.75 23.25 30.0 35.25 33.5 39.25 33.75 40.25 10.75 42.5 2.5 44.0 0.25 45.0 -3.25 43.25 -26.5 40.25 -31.25 40.25 -25.5 28.5 -22.25 17.5 -17.75 8.25 -17.5 8.25 Q-8.25 24.0 1.0 20.25 L2.5 20.25 3.25 20.0 Q14.0 18.25 17.5 6.5 M-3.5 -19.0 L-4.75 -19.75 -6.75 -20.5 -8.0 -20.0 -9.0 -18.75 -9.5 -17.5 -7.75 -15.75 -4.5 -15.75 -3.5 -17.25 -3.5 -19.0 M5.75 -20.5 L5.25 -20.25 4.5 -20.0 4.0 -19.75 3.75 -19.5 Q1.75 -19.25 3.75 -15.75 L7.0 -15.75 Q8.75 -17.5 8.25 -19.5 L7.0 -20.0 6.75 -20.0 5.75 -20.5 M-21.75 81.75 L-22.25 70.0 -23.25 67.0 -10.5 59.0 -2.25 51.75 -0.75 50.75 10.25 60.0 22.5 67.5 20.75 82.75 19.75 83.25 Q4.5 91.75 -21.75 81.75" fill="#ffffff" fill-rule="evenodd" stroke="none"/>
    <path d="M5.75 -20.5 L6.75 -20.0 7.0 -20.0 8.25 -19.5 Q8.75 -17.5 7.0 -15.75 L3.75 -15.75 Q1.75 -19.25 3.75 -19.5 L4.0 -19.75 4.5 -20.0 5.25 -20.25 5.75 -20.5 M-3.5 -19.0 L-3.5 -17.25 -4.5 -15.75 -7.75 -15.75 -9.5 -17.5 -9.0 -18.75 -8.0 -20.0 -6.75 -20.5 -4.75 -19.75 -3.5 -19.0" fill="#000000" fill-rule="evenodd" stroke="none"/>
    <path d="M12.0 -16.75 Q14.0 -16.05 15.5 -14.5 L18.5 -10.25 19.25 -2.5 17.5 6.5 Q14.0 18.25 3.25 20.0 L2.5 20.25 1.0 20.25 Q-8.25 24.0 -17.5 8.25 L-17.75 8.25 Q-24.75 -12.0 -12.75 -16.25 -13.0 -14.5 -7.25 -13.75 L-0.25 -15.5 Q9.5 -12.0 12.0 -16.75 M-21.75 81.75 L-21.75 84.75 -25.25 93.25 -31.0 98.25 -44.5 89.0 -50.25 82.25 -51.0 81.5 -51.0 81.25 -52.5 79.75 -53.25 78.75 -58.5 73.0 -71.0 56.25 -71.0 56.0 -71.75 55.25 -73.25 53.25 -73.25 50.25 -69.75 44.75 Q-65.5 40.25 -63.25 40.75 L-59.75 40.75 -55.25 42.25 -55.25 49.25 -55.5 50.5 -54.75 54.75 -54.0 57.25 -54.0 58.0 -53.75 58.5 -53.25 60.25 -51.75 60.5 -50.75 64.0 -47.0 68.75 Q-46.25 71.0 -36.75 71.5 L-23.25 67.0 -22.25 70.0 -21.75 81.75 M22.5 67.5 L35.25 71.5 42.25 70.75 Q47.5 69.25 50.75 60.5 L52.5 60.0 52.5 58.0 52.75 57.5 53.25 55.0 53.5 54.25 53.75 53.0 53.75 52.5 54.0 51.5 54.0 47.75 53.75 47.0 53.75 42.5 57.25 41.25 62.0 41.0 Q70.75 43.0 72.25 52.75 L64.5 64.5 47.5 84.0 40.25 91.25 36.0 94.5 27.75 99.0 Q18.25 92.75 19.75 83.25 L20.75 82.75 22.5 67.5" fill="#e58508" fill-rule="evenodd" stroke="none"/>
    <path d="M-63.9 21.5 Q-60.4 -3.9 -47.0 -21.4 -17.4 -63.4 -1.25 -64.4 5.85 -65.25 18.85 -53.9 L28.1 -44.65 44.85 -23.4 Q61.5 0.75 63.1 22.6 L61.75 30.6 Q58.85 37.85 53.85 42.0 L53.85 42.35 57.6 41.1 59.6 40.75 62.0 40.85 64.0 41.0 66.0 42.25 Q63.75 41.75 61.35 42.6 L54.0 45.5 54.25 54.1 54.0 56.1 52.5 59.5 52.0 60.0 50.75 60.35 50.5 60.5 50.75 60.5 50.5 61.25 49.85 62.1 50.0 62.5 49.85 62.85 48.75 64.75 44.35 69.75 43.85 69.85 34.75 71.0 22.5 67.25 21.5 72.85 21.35 77.6 Q-1.15 85.25 -22.15 77.25 L-22.25 73.35 -23.0 68.75 -23.75 66.85 -35.15 70.6 -38.15 70.75 -42.25 70.5 -44.9 70.0 -45.75 69.75 -47.0 68.35 -47.15 68.35 -48.65 66.1 -50.4 64.5 -50.65 64.0 -50.75 63.6 -51.9 60.6 -52.15 60.5 -52.4 60.35 -53.5 60.1 -54.15 59.25 -55.5 56.0 -55.65 55.85 -55.5 45.25 -62.9 42.5 -64.9 42.1 -67.0 42.25 -65.4 41.1 -63.15 40.85 -60.9 40.75 -55.25 42.25 -55.25 41.35 -60.4 35.1 -63.25 28.5 -63.9 21.5 M-19.9 -6.15 L-20.75 -6.25 -19.9 10.5 -19.25 12.85 -19.5 14.0 -19.0 22.1 -18.65 22.35 -12.0 41.1 -11.5 41.25 -10.75 42.5 -10.0 42.6 -9.5 42.6 -8.65 42.75 -8.25 42.75 -7.15 42.85 -7.0 42.85 -3.25 43.5 1.0 45.85 0.6 45.35 2.75 44.1 12.85 43.0 18.1 42.0 10.1 43.1 11.85 41.1 18.75 22.85 19.85 9.6 18.85 -0.65 18.5 3.0 17.6 6.25 Q15.5 16.35 3.25 20.0 L0.85 20.25 Q-8.15 23.0 -16.4 10.5 L-17.4 8.75 -17.9 7.1 -18.0 6.85 -19.25 2.6 -19.9 -2.15 -19.9 -6.15 M-29.25 11.35 Q-28.5 5.75 -31.9 0.85 L-33.15 11.5 -38.4 40.1 -35.0 40.25 -34.75 39.6 -29.25 11.35 M-16.9 62.85 L-19.2 64.3 -13.65 61.0 -0.75 50.75 0.0 52.0 14.0 62.5 15.85 63.5 1.35 52.35 -0.75 49.35 -0.9 49.6 -2.4 51.6 -16.9 62.85 M0.25 48.0 L0.75 47.75 1.25 46.35 0.25 48.0 M31.75 10.35 L31.75 7.6 30.75 1.25 28.1 6.35 28.1 11.85 33.0 37.0 33.1 37.1 33.85 40.5 37.25 40.35 31.75 10.35 M20.25 41.75 L20.35 41.75 20.35 41.6 20.25 41.75 M21.25 41.6 L21.25 41.5 21.1 41.6 21.25 41.6" fill="#cecece" fill-opacity="0.0" fill-rule="evenodd" stroke="none"/>
    <path d="M63.1 22.6 L63.5 29.0 62.0 40.85 59.6 40.75 57.6 41.1 53.85 42.35 53.85 42.0 Q58.85 37.85 61.75 30.6 L63.1 22.6 M66.0 42.25 L68.35 44.6 72.25 50.35 72.35 50.75 72.1 52.5 71.25 54.35 66.25 61.85 57.0 73.1 42.25 89.0 38.25 92.5 30.25 97.75 28.6 98.6 27.35 98.85 26.75 98.35 23.1 94.6 21.1 91.85 19.85 87.85 19.75 83.1 17.5 84.1 -0.15 87.25 -17.75 84.1 -20.9 82.6 -21.0 88.6 -21.9 90.5 -22.0 91.0 -22.15 91.35 -22.25 91.5 -22.75 92.85 -24.65 95.0 -25.0 95.5 -28.4 98.85 -29.9 98.35 -35.25 95.25 -41.4 90.75 -62.75 67.5 -70.75 56.85 -73.15 52.5 -73.4 50.85 -69.9 45.1 -67.0 42.25 -64.9 42.1 -62.9 42.5 -55.5 45.25 -55.65 55.85 -55.5 56.0 -54.15 59.25 -53.5 60.1 -52.4 60.35 -52.15 60.5 -51.9 60.6 -50.75 63.6 -50.65 64.0 -50.4 64.5 -48.65 66.1 -47.15 68.35 -47.0 68.35 -45.75 69.75 -44.9 70.0 -42.25 70.5 -38.15 70.75 -35.15 70.6 -23.75 66.85 -23.0 68.75 -22.25 73.35 -22.15 77.25 Q-1.15 85.25 21.35 77.6 L21.5 72.85 22.5 67.25 34.75 71.0 43.85 69.85 44.35 69.75 48.75 64.75 49.85 62.85 50.0 62.5 49.85 62.1 50.5 61.25 50.75 60.5 50.5 60.5 50.75 60.35 52.0 60.0 52.5 59.5 54.0 56.1 54.25 54.1 54.0 45.5 61.35 42.6 Q63.75 41.75 66.0 42.25 M-63.15 40.85 L-64.4 29.1 -63.9 21.5 -63.25 28.5 -60.4 35.1 -55.25 41.35 -55.25 42.25 -60.9 40.75 -63.15 40.85 M-19.9 -6.15 L-19.9 -2.15 -19.25 2.6 -18.0 6.85 -17.9 7.1 -17.4 8.75 -16.4 10.5 Q-8.15 23.0 0.85 20.25 L3.25 20.0 Q15.5 16.35 17.6 6.25 L18.5 3.0 18.85 -0.65 19.85 9.6 18.75 22.85 11.85 41.1 10.1 43.1 18.1 42.0 12.85 43.0 2.75 44.1 0.6 45.35 1.0 45.85 -3.25 43.5 -7.0 42.85 -7.15 42.85 -8.25 42.75 -8.65 42.75 -9.5 42.6 -10.0 42.6 -10.75 42.5 -11.5 41.25 -12.0 41.1 -18.65 22.35 -19.0 22.1 -19.5 14.0 -19.25 12.85 -19.9 10.5 -20.75 -6.25 -19.9 -6.15 M-29.25 11.35 L-34.75 39.6 -35.0 40.25 -38.4 40.1 -33.15 11.5 -31.9 0.85 Q-28.5 5.75 -29.25 11.35 M-16.9 62.85 L-2.4 51.6 -0.9 49.6 -0.75 49.35 1.35 52.35 15.85 63.5 14.0 62.5 0.0 52.0 -0.75 50.75 -13.65 61.0 -19.2 64.3 -16.9 62.85 M31.75 10.35 L37.25 40.35 33.85 40.5 33.1 37.1 33.0 37.0 28.1 11.85 28.1 6.35 30.75 1.25 31.75 7.6 31.75 10.35 M0.25 48.0 L1.25 46.35 0.75 47.75 0.25 48.0 M20.25 41.75 L20.35 41.6 20.35 41.75 20.25 41.75 M21.25 41.6 L21.1 41.6 21.25 41.5 21.25 41.6" fill="#000000" fill-opacity="0.49803922" fill-rule="evenodd" stroke="none"/>
  </g>
</svg>
