<?xml version="1.0" encoding="UTF-8" standalone="no"?>
<svg xmlns:ffdec="https://www.free-decompiler.com/flash" xmlns:xlink="http://www.w3.org/1999/xlink" ffdec:objectType="shape" height="163.45px" width="145.75px" xmlns="http://www.w3.org/2000/svg">
  <g transform="matrix(1.0, 0.0, 0.0, 1.0, 73.4, 64.45)">
    <path d="M-12.75 -16.25 L-15.25 -20.25 -15.25 -25.0 -10.25 -27.0 -1.5 -26.75 -0.25 -26.25 0.0 -26.5 0.75 -26.75 6.75 -27.5 Q13.75 -26.5 14.25 -25.0 L14.25 -20.5 12.0 -16.75 Q9.5 -12.0 -0.25 -15.5 L-7.25 -13.75 Q-13.0 -14.5 -12.75 -16.25 M17.5 6.5 L22.0 16.75 23.75 23.5 29.5 34.25 35.0 40.75 14.5 43.75 6.0 45.75 Q-2.5 49.0 5.0 54.25 L13.75 61.25 16.75 62.75 17.25 63.25 22.75 66.25 21.5 72.25 20.75 82.75 19.75 83.25 Q4.5 91.75 -21.75 81.75 L-22.25 70.0 -25.25 62.5 -22.75 60.25 -22.0 59.75 -21.5 59.25 -21.0 59.0 -13.75 53.25 -5.5 45.0 Q-2.75 40.75 -3.25 39.25 L-7.5 37.0 -29.5 37.0 -24.0 24.5 -22.25 17.5 -17.75 8.25 -17.5 8.25 Q-8.25 24.0 1.0 20.25 L2.5 20.25 3.25 20.0 Q14.0 18.25 17.5 6.5 M-3.5 -19.0 L-4.75 -19.75 -6.75 -20.5 -8.0 -20.0 -9.0 -18.75 -9.5 -17.5 -7.75 -15.75 -4.5 -15.75 -3.5 -17.25 -3.5 -19.0 M5.75 -20.5 L5.25 -20.25 4.5 -20.0 4.0 -19.75 3.75 -19.5 Q1.75 -19.25 3.75 -15.75 L7.0 -15.75 Q8.75 -17.5 8.25 -19.5 L7.0 -20.0 6.75 -20.0 5.75 -20.5" fill="#ffffff" fill-rule="evenodd" stroke="none"/>
    <path d="M5.75 -20.5 L6.75 -20.0 7.0 -20.0 8.25 -19.5 Q8.75 -17.5 7.0 -15.75 L3.75 -15.75 Q1.75 -19.25 3.75 -19.5 L4.0 -19.75 4.5 -20.0 5.25 -20.25 5.75 -20.5 M-3.5 -19.0 L-3.5 -17.25 -4.5 -15.75 -7.75 -15.75 -9.5 -17.5 -9.0 -18.75 -8.0 -20.0 -6.75 -20.5 -4.75 -19.75 -3.5 -19.0" fill="#000000" fill-rule="evenodd" stroke="none"/>
    <path d="M12.0 -16.75 Q14.0 -16.05 15.5 -14.5 L18.5 -10.25 19.25 -2.5 17.5 6.5 Q14.0 18.25 3.25 20.0 L2.5 20.25 1.0 20.25 Q-8.25 24.0 -17.5 8.25 L-17.75 8.25 Q-24.75 -12.0 -12.75 -16.25 -13.0 -14.5 -7.25 -13.75 L-0.25 -15.5 Q9.5 -12.0 12.0 -16.75 M22.75 66.25 L23.5 66.75 26.0 68.0 Q50.5 77.0 53.0 60.0 L55.0 59.25 55.0 56.75 55.25 56.25 55.75 53.25 56.0 52.5 55.5 42.0 59.5 40.75 62.0 41.0 Q70.75 43.0 72.25 52.75 L64.5 64.5 47.5 84.0 40.25 91.25 36.0 94.5 27.75 99.0 Q18.25 92.75 19.75 83.25 L20.75 82.75 21.5 72.25 22.75 66.25 M-21.75 81.75 L-21.75 84.75 -25.25 93.25 -31.0 98.25 -44.5 89.0 -50.25 82.25 -51.0 81.5 -51.0 81.25 -52.5 79.75 -53.25 78.75 -58.5 73.0 -71.0 56.25 -71.0 56.0 -71.75 55.25 -73.25 53.25 -73.25 50.25 -69.75 44.75 Q-65.5 40.25 -63.25 40.75 L-57.25 41.5 -58.0 51.75 -57.75 53.0 -57.75 53.5 -57.5 54.25 -57.0 56.5 -57.0 57.5 -56.5 59.75 -55.25 60.0 -55.0 60.25 -54.5 62.0 -53.0 65.25 -48.0 70.0 -41.25 70.25 -25.25 62.5 -22.25 70.0 -21.75 81.75" fill="#e58508" fill-rule="evenodd" stroke="none"/>
    <path d="M-63.9 21.5 Q-60.4 -3.9 -47.0 -21.4 -17.4 -63.4 -1.25 -64.4 5.85 -65.25 18.85 -53.9 L28.1 -44.65 44.85 -23.4 Q61.5 0.75 63.1 22.6 L61.75 30.6 Q58.0 39.0 55.75 39.85 L55.75 41.75 59.6 40.75 62.0 40.85 64.0 41.0 66.0 42.25 63.75 42.1 61.75 42.5 56.0 44.6 56.5 50.0 56.1 56.35 54.85 58.75 54.5 59.25 53.6 59.75 53.25 59.85 53.25 60.25 53.1 60.5 52.5 61.75 51.85 63.6 47.6 69.1 46.0 69.75 41.25 70.6 37.35 70.85 25.1 67.5 23.6 66.6 23.0 66.35 22.85 66.35 22.25 67.5 Q22.85 68.1 21.5 72.75 L21.35 77.6 Q-1.15 85.25 -22.15 77.25 -22.4 66.6 -25.65 62.85 L-19.65 58.5 -6.75 46.35 -0.25 47.75 3.75 47.0 2.25 48.5 6.75 45.85 16.35 44.25 23.6 42.5 8.1 45.35 12.1 40.85 18.85 22.6 19.85 9.6 18.85 -0.65 18.5 3.0 17.6 6.25 Q15.5 16.35 3.25 20.0 L0.85 20.25 Q-8.15 23.0 -16.4 10.5 L-17.4 8.75 -17.9 7.1 -18.0 6.85 -19.25 2.6 -19.9 -2.15 -19.9 -6.15 -20.75 -6.25 -19.9 10.5 -19.25 12.85 -19.5 14.0 -19.0 22.1 -18.65 22.35 -13.4 37.1 -7.9 37.0 -3.5 39.25 -3.25 39.6 Q-13.65 54.5 -31.15 65.25 L-31.4 65.35 -31.65 65.5 -31.9 65.6 -32.0 65.6 -33.15 66.1 -33.4 66.25 -33.65 66.35 -33.9 66.5 -34.0 66.6 -34.65 66.85 -34.9 67.0 -35.15 67.1 -35.4 67.25 -37.25 68.1 -37.5 68.25 -39.25 68.85 -39.5 69.0 -39.75 69.1 -39.9 69.25 -41.5 69.5 -47.0 69.85 -48.4 69.5 -48.5 69.5 -49.9 68.6 -53.5 64.1 -55.0 60.25 -55.25 60.1 -54.25 59.75 -56.25 59.6 -57.25 58.85 -58.25 56.35 -58.4 54.35 -58.25 48.25 -57.75 44.35 -63.5 42.35 -67.0 42.25 -65.4 41.1 -63.15 40.85 -60.65 40.75 -57.5 41.5 -57.15 39.85 -57.4 38.75 Q-60.5 36.5 -63.25 28.5 L-63.9 21.5 M-30.4 9.75 L-30.15 7.35 -30.4 2.6 -32.9 -2.5 -34.65 9.35 -40.9 37.85 -36.9 37.5 -30.4 9.75 M19.5 64.5 L5.25 54.25 Q3.1 50.35 2.35 50.5 2.0 54.25 19.5 64.5 M33.0 10.5 L33.0 8.35 31.6 0.35 29.0 6.6 Q29.6 8.1 29.1 11.35 L35.6 40.0 35.85 40.25 36.0 40.75 39.5 40.5 33.0 10.5" fill="#cecece" fill-opacity="0.0" fill-rule="evenodd" stroke="none"/>
    <path d="M63.1 22.6 L63.5 29.0 62.0 40.85 59.6 40.75 55.75 41.75 55.75 39.85 Q58.0 39.0 61.75 30.6 L63.1 22.6 M66.0 42.25 L68.35 44.6 72.25 50.35 72.35 50.75 72.1 52.5 71.25 54.35 66.25 61.85 57.0 73.1 42.25 89.0 38.25 92.5 30.25 97.75 28.6 98.6 27.35 98.85 26.75 98.35 23.1 94.6 21.1 91.85 19.85 87.85 19.75 83.1 17.5 84.1 -0.15 87.25 -17.75 84.1 -20.9 82.6 -21.0 88.6 -21.9 90.5 -22.0 91.0 -22.15 91.35 -22.25 91.5 -22.75 92.85 -24.65 95.0 -25.0 95.5 -28.4 98.85 -29.9 98.35 -35.25 95.25 -41.4 90.75 -62.75 67.5 -70.75 56.85 -73.15 52.5 -73.4 50.85 -69.9 45.1 -67.0 42.25 -63.5 42.35 -57.75 44.35 -58.25 48.25 -58.4 54.35 -58.25 56.35 -57.25 58.85 -56.25 59.6 -54.25 59.75 -55.25 60.1 -55.0 60.25 -53.5 64.1 -49.9 68.6 -48.5 69.5 -48.4 69.5 -47.0 69.85 -41.5 69.5 -39.9 69.25 -39.75 69.1 -39.5 69.0 -39.25 68.85 -37.5 68.25 -37.25 68.1 -35.4 67.25 -35.15 67.1 -34.9 67.0 -34.65 66.85 -34.0 66.6 -33.9 66.5 -33.65 66.35 -33.4 66.25 -33.15 66.1 -32.0 65.6 -31.9 65.6 -31.65 65.5 -31.4 65.35 -31.15 65.25 Q-13.65 54.5 -3.25 39.6 L-3.5 39.25 -7.9 37.0 -13.4 37.1 -18.65 22.35 -19.0 22.1 -19.5 14.0 -19.25 12.85 -19.9 10.5 -20.75 -6.25 -19.9 -6.15 -19.9 -2.15 -19.25 2.6 -18.0 6.85 -17.9 7.1 -17.4 8.75 -16.4 10.5 Q-8.15 23.0 0.85 20.25 L3.25 20.0 Q15.5 16.35 17.6 6.25 L18.5 3.0 18.85 -0.65 19.85 9.6 18.85 22.6 12.1 40.85 8.1 45.35 23.6 42.5 16.35 44.25 6.75 45.85 2.25 48.5 3.75 47.0 -0.25 47.75 -6.75 46.35 -19.65 58.5 -25.65 62.85 Q-22.4 66.6 -22.15 77.25 -1.15 85.25 21.35 77.6 L21.5 72.75 Q22.85 68.1 22.25 67.5 L22.85 66.35 23.0 66.35 23.6 66.6 25.1 67.5 37.35 70.85 41.25 70.6 46.0 69.75 47.6 69.1 51.85 63.6 52.5 61.75 53.1 60.5 53.25 60.25 53.25 59.85 53.6 59.75 54.5 59.25 54.85 58.75 56.1 56.35 56.5 50.0 56.0 44.6 61.75 42.5 63.75 42.1 66.0 42.25 M-63.15 40.85 L-64.4 29.1 -63.9 21.5 -63.25 28.5 Q-60.5 36.5 -57.4 38.75 L-57.15 39.85 -57.5 41.5 -60.65 40.75 -63.15 40.85 M-30.4 9.75 L-36.9 37.5 -40.9 37.85 -34.65 9.35 -32.9 -2.5 -30.4 2.6 -30.15 7.35 -30.4 9.75 M33.0 10.5 L39.5 40.5 36.0 40.75 35.85 40.25 35.6 40.0 29.1 11.35 Q29.6 8.1 29.0 6.6 L31.6 0.35 33.0 8.35 33.0 10.5 M19.5 64.5 Q2.0 54.25 2.35 50.5 3.1 50.35 5.25 54.25 L19.5 64.5" fill="#000000" fill-opacity="0.49803922" fill-rule="evenodd" stroke="none"/>
  </g>
</svg>
