<?xml version="1.0" encoding="UTF-8" standalone="no"?>
<svg xmlns:ffdec="https://www.free-decompiler.com/flash" xmlns:xlink="http://www.w3.org/1999/xlink" ffdec:objectType="shape" height="163.45px" width="145.75px" xmlns="http://www.w3.org/2000/svg">
  <g transform="matrix(1.0, 0.0, 0.0, 1.0, 73.4, 64.45)">
    <path d="M-12.75 -16.25 L-15.25 -20.25 -15.25 -25.0 -10.25 -27.0 -1.5 -26.75 -0.25 -26.25 0.0 -26.5 0.75 -26.75 6.75 -27.5 Q13.75 -26.5 14.25 -25.0 L14.25 -20.5 12.0 -16.75 Q9.5 -12.0 -0.25 -15.5 L-7.25 -13.75 Q-13.0 -14.5 -12.75 -16.25 M17.5 6.5 L22.0 16.75 23.75 23.5 30.0 35.25 36.0 41.75 19.0 46.25 12.5 48.75 Q4.5 52.25 12.25 57.5 L19.0 62.5 23.5 64.75 22.25 68.25 Q21.75 82.0 19.75 83.25 4.5 91.75 -21.75 81.75 L-22.75 67.75 Q-25.0 60.5 -29.5 57.75 L-11.75 39.5 Q-10.5 38.75 -9.5 33.75 L-13.5 31.5 -27.5 32.75 -23.75 23.5 -22.25 17.5 -17.75 8.25 -17.5 8.25 Q-8.25 24.0 1.0 20.25 L2.5 20.25 3.25 20.0 Q14.0 18.25 17.5 6.5 M-3.5 -19.0 L-4.75 -19.75 -6.75 -20.5 -8.0 -20.0 -9.0 -18.75 -9.5 -17.5 -7.75 -15.75 -4.5 -15.75 -3.5 -17.25 -3.5 -19.0 M5.75 -20.5 L5.25 -20.25 4.5 -20.0 4.0 -19.75 3.75 -19.5 Q1.75 -19.25 3.75 -15.75 L7.0 -15.75 Q8.75 -17.5 8.25 -19.5 L7.0 -20.0 6.75 -20.0 5.75 -20.5" fill="#ffffff" fill-rule="evenodd" stroke="none"/>
    <path d="M5.75 -20.5 L6.75 -20.0 7.0 -20.0 8.25 -19.5 Q8.75 -17.5 7.0 -15.75 L3.75 -15.75 Q1.75 -19.25 3.75 -19.5 L4.0 -19.75 4.5 -20.0 5.25 -20.25 5.75 -20.5 M-3.5 -19.0 L-3.5 -17.25 -4.5 -15.75 -7.75 -15.75 -9.5 -17.5 -9.0 -18.75 -8.0 -20.0 -6.75 -20.5 -4.75 -19.75 -3.5 -19.0" fill="#000000" fill-rule="evenodd" stroke="none"/>
    <path d="M12.0 -16.75 Q14.0 -16.05 15.5 -14.5 L18.5 -10.25 19.25 -2.5 17.5 6.5 Q14.0 18.25 3.25 20.0 L2.5 20.25 1.0 20.25 Q-8.25 24.0 -17.5 8.25 L-17.75 8.25 Q-24.75 -12.0 -12.75 -16.25 -13.0 -14.5 -7.25 -13.75 L-0.25 -15.5 Q9.5 -12.0 12.0 -16.75 M23.5 64.75 L32.5 69.0 Q56.5 75.0 57.5 58.75 L59.25 57.75 59.75 47.75 59.0 42.5 58.75 41.75 58.75 41.0 62.0 41.0 Q70.75 43.0 72.25 52.75 L64.5 64.5 47.5 84.0 40.25 91.25 36.0 94.5 27.75 99.0 Q18.25 92.75 19.75 83.25 21.75 82.0 22.25 68.25 L23.5 64.75 M-21.75 81.75 L-21.75 84.75 -25.25 93.25 -31.0 98.25 -44.5 89.0 -50.25 82.25 -51.0 81.5 -51.0 81.25 -52.5 79.75 -53.25 78.75 -58.5 73.0 -71.0 56.25 -71.0 56.0 -71.75 55.25 -73.25 53.25 -73.25 50.25 -69.75 44.75 Q-65.5 40.25 -63.25 40.75 L-60.5 40.75 -61.75 50.75 -61.25 54.25 -61.25 55.0 -61.0 56.25 -61.0 58.25 -59.25 59.0 -59.25 59.75 -59.0 60.75 -57.0 64.75 -54.0 68.0 -47.25 68.25 Q-43.0 67.25 -38.75 64.0 L-32.0 60.25 -29.5 57.75 Q-25.0 60.5 -22.75 67.75 L-21.75 81.75" fill="#e58508" fill-rule="evenodd" stroke="none"/>
    <path d="M-63.9 21.5 Q-60.4 -3.9 -47.0 -21.4 -17.4 -63.4 -1.25 -64.4 5.85 -65.25 18.85 -53.9 L28.1 -44.65 44.85 -23.4 Q61.5 0.75 63.1 22.6 L61.75 30.6 58.5 36.6 59.0 40.85 62.0 40.85 64.0 41.0 66.0 42.25 63.75 42.1 59.35 43.25 60.25 49.35 60.25 52.85 60.35 54.0 59.1 57.1 59.1 57.35 58.85 57.6 58.85 57.75 58.6 58.1 57.5 58.6 57.6 59.1 57.1 60.0 56.6 61.85 54.6 65.35 54.35 65.6 53.25 67.35 52.25 68.5 51.5 68.6 50.75 69.0 50.0 69.1 44.0 70.85 31.6 68.5 26.25 66.1 12.75 57.6 10.1 54.25 9.1 53.5 10.6 56.6 11.5 57.35 23.25 64.5 23.5 65.0 22.25 67.75 Q22.75 68.25 21.5 72.6 L21.35 77.6 Q-1.15 85.25 -22.15 77.25 -21.75 65.5 -29.0 58.6 -26.9 61.35 -28.25 63.85 L-32.0 60.0 -29.5 58.1 -21.5 50.35 -12.4 40.25 -12.0 41.1 -11.5 41.25 -7.0 46.35 0.25 47.75 7.25 46.25 11.6 41.6 12.35 40.35 18.85 22.6 19.85 9.6 18.85 -0.65 18.5 3.0 17.6 6.25 Q15.5 16.35 3.25 20.0 L0.85 20.25 Q-8.15 23.0 -16.4 10.5 L-17.4 8.75 -17.9 7.1 -18.0 6.85 -19.25 2.6 -19.9 -2.15 -19.9 -6.15 -20.75 -6.25 -19.9 10.5 -19.25 12.85 -19.5 14.0 -18.9 21.75 -15.4 31.6 -14.0 31.5 -9.9 33.5 -9.65 33.75 Q-28.4 60.0 -45.65 67.1 L-51.75 68.35 -52.4 68.35 -52.9 68.25 -53.0 68.25 -53.25 68.0 -53.75 67.85 -53.9 67.85 -55.65 66.1 -58.0 63.0 -58.25 62.6 -58.75 61.0 -59.0 60.75 -59.65 59.0 -58.9 58.0 -61.25 58.0 -62.4 54.6 -62.15 53.1 -62.4 52.35 -62.25 49.75 -61.0 43.1 -65.0 42.1 -67.0 42.25 -65.4 41.1 -63.15 40.85 -60.75 40.75 -59.9 35.5 -60.4 35.1 -63.25 28.5 -63.9 21.5 M-31.5 -0.4 L-34.0 -5.4 -36.9 8.0 -44.4 35.25 -39.65 34.35 -39.65 34.25 -33.5 13.6 -31.5 4.75 -31.5 -0.4 M35.75 11.75 L35.25 10.85 35.1 8.75 32.85 -0.75 30.75 5.35 31.0 9.25 30.75 10.75 39.75 41.1 40.25 41.1 43.35 40.5 35.75 11.75 M33.25 42.5 L11.6 48.85 9.1 51.85 9.75 51.75 13.0 48.85 23.85 45.75 33.25 42.5" fill="#cecece" fill-opacity="0.0" fill-rule="evenodd" stroke="none"/>
    <path d="M63.1 22.6 L63.5 29.0 62.0 40.85 59.0 40.85 58.5 36.6 61.75 30.6 63.1 22.6 M66.0 42.25 L68.35 44.6 72.25 50.35 72.35 50.75 72.1 52.5 71.25 54.35 66.25 61.85 57.0 73.1 42.25 89.0 38.25 92.5 30.25 97.75 28.6 98.6 27.35 98.85 26.75 98.35 23.1 94.6 21.1 91.85 19.85 87.85 19.75 83.1 17.5 84.1 -0.15 87.25 -17.75 84.1 -20.9 82.6 -21.0 88.6 -21.9 90.5 -22.0 91.0 -22.15 91.35 -22.25 91.5 -22.75 92.85 -24.65 95.0 -25.0 95.5 -28.4 98.85 -29.9 98.35 -35.25 95.25 -41.4 90.75 -62.75 67.5 -70.75 56.85 -73.15 52.5 -73.4 50.85 -69.9 45.1 -67.0 42.25 -65.0 42.1 -61.0 43.1 -62.25 49.75 -62.4 52.35 -62.15 53.1 -62.4 54.6 -61.25 58.0 -58.9 58.0 -59.65 59.0 -59.0 60.75 -58.75 61.0 -58.25 62.6 -58.0 63.0 -55.65 66.1 -53.9 67.85 -53.75 67.85 -53.25 68.0 -53.0 68.25 -52.9 68.25 -52.4 68.35 -51.75 68.35 -45.65 67.1 Q-28.4 60.0 -9.65 33.75 L-9.9 33.5 -14.0 31.5 -15.4 31.6 -18.9 21.75 -19.5 14.0 -19.25 12.85 -19.9 10.5 -20.75 -6.25 -19.9 -6.15 -19.9 -2.15 -19.25 2.6 -18.0 6.85 -17.9 7.1 -17.4 8.75 -16.4 10.5 Q-8.15 23.0 0.85 20.25 L3.25 20.0 Q15.5 16.35 17.6 6.25 L18.5 3.0 18.85 -0.65 19.85 9.6 18.85 22.6 12.35 40.35 11.6 41.6 7.25 46.25 0.25 47.75 -7.0 46.35 -11.5 41.25 -12.0 41.1 -12.4 40.25 -21.5 50.35 -29.5 58.1 -32.0 60.0 -28.25 63.85 Q-26.9 61.35 -29.0 58.6 -21.75 65.5 -22.15 77.25 -1.15 85.25 21.35 77.6 L21.5 72.6 Q22.75 68.25 22.25 67.75 L23.5 65.0 23.25 64.5 11.5 57.35 10.6 56.6 9.1 53.5 10.1 54.25 12.75 57.6 26.25 66.1 31.6 68.5 44.0 70.85 50.0 69.1 50.75 69.0 51.5 68.6 52.25 68.5 53.25 67.35 54.35 65.6 54.6 65.35 56.6 61.85 57.1 60.0 57.6 59.1 57.5 58.6 58.6 58.1 58.85 57.75 58.85 57.6 59.1 57.35 59.1 57.1 60.35 54.0 60.25 52.85 60.25 49.35 59.35 43.25 63.75 42.1 66.0 42.25 M-63.15 40.85 L-64.4 29.1 -63.9 21.5 -63.25 28.5 -60.4 35.1 -59.9 35.5 -60.75 40.75 -63.15 40.85 M-31.5 -0.4 L-31.5 4.75 -33.5 13.6 -39.65 34.25 -39.65 34.35 -44.4 35.25 -36.9 8.0 -34.0 -5.4 -31.5 -0.4 M35.75 11.75 L43.35 40.5 40.25 41.1 39.75 41.1 30.75 10.75 31.0 9.25 30.75 5.35 32.85 -0.75 35.1 8.75 35.25 10.85 35.75 11.75 M33.25 42.5 L23.85 45.75 13.0 48.85 9.75 51.75 9.1 51.85 11.6 48.85 33.25 42.5" fill="#000000" fill-opacity="0.49803922" fill-rule="evenodd" stroke="none"/>
  </g>
</svg>
