<?xml version="1.0" encoding="UTF-8" standalone="no"?>
<svg xmlns:ffdec="https://www.free-decompiler.com/flash" xmlns:xlink="http://www.w3.org/1999/xlink" ffdec:objectType="shape" height="163.45px" width="145.85px" xmlns="http://www.w3.org/2000/svg">
  <g transform="matrix(1.0, 0.0, 0.0, 1.0, 73.5, 64.45)">
    <path d="M-12.75 -16.25 L-15.25 -20.25 -15.25 -25.0 -10.25 -27.0 -1.5 -26.75 -0.25 -26.25 0.0 -26.5 0.75 -26.75 6.75 -27.5 Q13.75 -26.5 14.25 -25.0 L14.25 -20.5 12.0 -16.75 Q9.5 -12.0 -0.25 -15.5 L-7.25 -13.75 Q-13.0 -14.5 -12.75 -16.25 M17.5 6.5 Q30.5 42.25 37.75 43.25 L26.0 48.25 20.0 51.75 Q12.75 55.75 20.25 60.25 L24.25 63.0 22.25 67.5 Q21.75 81.75 19.75 83.25 4.5 91.75 -21.75 81.75 -21.0 58.25 -35.5 53.5 L-25.25 43.0 -18.25 34.0 -16.0 28.0 Q-19.5 25.25 -20.25 26.25 L-25.0 27.0 -22.25 17.5 -17.75 8.25 -17.5 8.25 Q-8.25 24.0 1.0 20.25 L2.5 20.25 3.25 20.0 Q14.0 18.25 17.5 6.5 M-3.5 -19.0 L-4.75 -19.75 -6.75 -20.5 -8.0 -20.0 -9.0 -18.75 -9.5 -17.5 -7.75 -15.75 -4.5 -15.75 -3.5 -17.25 -3.5 -19.0 M5.75 -20.5 L5.25 -20.25 4.5 -20.0 4.0 -19.75 3.75 -19.5 Q1.75 -19.25 3.75 -15.75 L7.0 -15.75 Q8.75 -17.5 8.25 -19.5 L7.0 -20.0 6.75 -20.0 5.75 -20.5" fill="#ffffff" fill-rule="evenodd" stroke="none"/>
    <path d="M5.75 -20.5 L6.75 -20.0 7.0 -20.0 8.25 -19.5 Q8.75 -17.5 7.0 -15.75 L3.75 -15.75 Q1.75 -19.25 3.75 -19.5 L4.0 -19.75 4.5 -20.0 5.25 -20.25 5.75 -20.5 M-3.5 -19.0 L-3.5 -17.25 -4.5 -15.75 -7.75 -15.75 -9.5 -17.5 -9.0 -18.75 -8.0 -20.0 -6.75 -20.5 -4.75 -19.75 -3.5 -19.0" fill="#000000" fill-rule="evenodd" stroke="none"/>
    <path d="M12.0 -16.75 Q14.0 -16.05 15.5 -14.5 L18.5 -10.25 19.25 -2.5 17.5 6.5 Q14.0 18.25 3.25 20.0 L2.5 20.25 1.0 20.25 Q-8.25 24.0 -17.5 8.25 L-17.75 8.25 Q-24.75 -12.0 -12.75 -16.25 -13.0 -14.5 -7.25 -13.75 L-0.25 -15.5 Q9.5 -12.0 12.0 -16.75 M24.25 63.0 Q58.75 81.0 62.25 57.0 L63.75 55.75 63.75 47.25 63.5 46.75 62.5 41.5 62.75 41.0 Q70.5 43.0 72.25 52.75 L64.5 64.5 47.5 84.0 40.25 91.25 36.0 94.5 27.75 99.0 Q18.25 92.75 19.75 83.25 21.75 81.75 22.25 67.5 L24.25 63.0 M-21.75 81.75 L-21.75 84.75 -25.25 93.25 -31.0 98.25 -44.5 89.0 -50.25 82.25 -51.0 81.5 -51.0 81.25 -52.5 79.75 -53.25 78.75 -58.5 73.0 -71.0 56.25 -71.0 56.0 -71.75 55.25 Q-77.5 50.5 -64.5 40.75 L-65.75 48.75 -65.5 56.5 -64.0 57.25 -63.25 61.0 -60.25 65.25 -59.5 66.0 -58.75 66.25 -49.75 64.5 -39.75 57.5 -35.5 53.5 Q-21.0 58.25 -21.75 81.75" fill="#e58508" fill-rule="evenodd" stroke="none"/>
    <path d="M-63.9 21.5 Q-60.4 -3.9 -47.0 -21.4 -17.4 -63.4 -1.25 -64.4 5.85 -65.25 18.85 -53.9 L28.1 -44.65 44.85 -23.4 Q61.5 0.75 63.1 22.6 L61.75 30.6 60.75 31.85 62.35 38.75 62.75 40.85 64.0 41.0 66.0 42.25 63.1 42.25 64.1 47.25 64.35 51.1 64.0 53.6 63.35 55.6 63.25 56.1 62.1 56.85 62.25 57.35 61.35 59.35 60.5 62.25 59.6 64.25 57.6 67.0 53.85 68.75 53.1 68.85 52.1 69.5 50.6 70.1 48.85 70.1 48.1 70.0 47.35 70.0 40.5 69.5 33.5 67.25 20.5 60.25 Q17.85 56.5 17.1 56.6 18.25 59.75 19.25 60.1 L24.6 63.0 22.25 67.5 Q22.75 68.0 21.5 72.5 L21.35 77.6 Q-1.15 85.25 -22.15 77.25 -21.75 65.5 -29.0 58.6 -26.9 61.35 -28.25 63.85 L-29.75 62.0 -33.75 58.5 -37.65 55.85 -29.25 47.25 -17.9 33.6 -16.5 28.85 -12.0 41.0 -7.0 46.35 0.0 47.75 7.0 46.35 11.85 41.1 18.85 22.6 19.85 9.6 18.85 -0.65 18.5 3.0 17.6 6.25 Q15.5 16.35 3.25 20.0 L0.85 20.25 Q-8.15 23.0 -16.4 10.5 L-17.4 8.75 -17.9 7.1 -18.0 6.85 -19.25 2.6 -19.9 -2.15 -19.9 -6.15 -20.75 -6.25 -19.9 10.5 -19.25 12.85 -19.5 14.0 -19.0 22.0 -17.15 27.35 -17.0 27.5 -16.9 27.5 -16.4 28.0 -21.15 35.25 -35.0 51.25 -41.4 57.25 -51.9 64.35 -57.75 66.25 -58.15 66.25 -58.4 66.1 -59.65 65.5 -61.15 63.85 -63.15 60.85 -63.25 60.75 -63.75 59.25 -64.0 58.0 -64.15 57.75 -64.25 57.25 -64.4 57.25 -64.4 56.35 -63.75 55.6 -65.75 55.85 -66.5 54.0 -66.75 51.75 -66.5 50.75 -66.0 46.6 -65.65 46.35 Q-66.15 45.75 -64.75 42.1 L-67.0 42.25 -64.65 41.0 -63.75 36.35 -62.15 30.5 -62.4 30.25 -63.4 28.25 -63.9 21.5 M-35.15 -7.9 L-38.65 3.5 -39.0 5.85 -45.65 24.5 -46.15 27.1 -48.0 32.25 -42.15 30.35 -40.25 24.1 -39.75 23.5 -34.25 7.85 -32.65 2.25 -32.9 -3.4 -35.15 -7.9 M45.6 40.85 L46.0 40.75 46.35 40.6 46.75 40.5 47.1 40.35 47.5 40.25 37.5 10.25 37.5 9.0 34.25 -1.9 Q31.1 4.5 32.85 10.35 L43.85 41.25 43.6 41.5 44.25 41.25 44.35 41.25 44.6 41.1 44.85 41.1 45.25 41.0 45.6 40.85 M33.75 45.1 L33.5 45.25 18.6 52.35 16.85 55.35 20.6 51.75 41.6 42.1 38.25 43.1 33.75 45.1" fill="#cecece" fill-opacity="0.0" fill-rule="evenodd" stroke="none"/>
    <path d="M63.1 22.6 L63.5 29.0 62.35 38.75 60.75 31.85 61.75 30.6 63.1 22.6 M66.0 42.25 L68.35 44.6 72.25 50.35 72.35 50.75 72.1 52.5 71.25 54.35 66.25 61.85 57.0 73.1 42.25 89.0 38.25 92.5 30.25 97.75 28.6 98.6 27.35 98.85 26.75 98.35 23.1 94.6 21.1 91.85 19.85 87.85 19.75 83.1 17.5 84.1 -0.15 87.25 -17.75 84.1 -20.9 82.6 -21.0 88.6 -21.9 90.5 -22.0 91.0 -22.15 91.35 -22.25 91.5 -22.75 92.85 -24.65 95.0 -25.0 95.5 -28.4 98.85 -29.9 98.35 -35.25 95.25 -41.4 90.75 -62.75 67.5 -70.75 56.85 -73.15 52.5 -73.4 50.85 -69.9 45.1 -67.0 42.25 -64.75 42.1 Q-66.15 45.75 -65.65 46.35 L-66.0 46.6 -66.5 50.75 -66.75 51.75 -66.5 54.0 -65.75 55.85 -63.75 55.6 -64.4 56.35 -64.4 57.25 -64.25 57.25 -64.15 57.75 -64.0 58.0 -63.75 59.25 -63.25 60.75 -63.15 60.85 -61.15 63.85 -59.65 65.5 -58.4 66.1 -58.15 66.25 -57.75 66.25 -51.9 64.35 -41.4 57.25 -35.0 51.25 -21.15 35.25 -16.4 28.0 -16.9 27.5 -17.0 27.5 -17.15 27.35 -19.0 22.0 -19.5 14.0 -19.25 12.85 -19.9 10.5 -20.75 -6.25 -19.9 -6.15 -19.9 -2.15 -19.25 2.6 -18.0 6.85 -17.9 7.1 -17.4 8.75 -16.4 10.5 Q-8.15 23.0 0.85 20.25 L3.25 20.0 Q15.5 16.35 17.6 6.25 L18.5 3.0 18.85 -0.65 19.85 9.6 18.85 22.6 11.85 41.1 7.0 46.35 0.0 47.75 -7.0 46.35 -12.0 41.0 -16.5 28.85 -17.9 33.6 -29.25 47.25 -37.65 55.85 -33.75 58.5 -29.75 62.0 -28.25 63.85 Q-26.9 61.35 -29.0 58.6 -21.75 65.5 -22.15 77.25 -1.15 85.25 21.35 77.6 L21.5 72.5 Q22.75 68.0 22.25 67.5 L24.6 63.0 19.25 60.1 Q18.25 59.75 17.1 56.6 17.85 56.5 20.5 60.25 L33.5 67.25 40.5 69.5 47.35 70.0 48.1 70.0 48.85 70.1 50.6 70.1 52.1 69.5 53.1 68.85 53.85 68.75 57.6 67.0 59.6 64.25 60.5 62.25 61.35 59.35 62.25 57.35 62.1 56.85 63.25 56.1 63.35 55.6 64.0 53.6 64.35 51.1 64.1 47.25 63.1 42.25 66.0 42.25 M-63.75 36.35 L-64.4 29.1 -63.9 21.5 -63.4 28.25 -62.4 30.25 -62.15 30.5 -63.75 36.35 M-35.15 -7.9 L-32.9 -3.4 -32.65 2.25 -34.25 7.85 -39.75 23.5 -40.25 24.1 -42.15 30.35 -48.0 32.25 -46.15 27.1 -45.65 24.5 -39.0 5.85 -38.65 3.5 -35.15 -7.9 M45.6 40.85 L45.25 41.0 44.85 41.1 44.6 41.1 44.35 41.25 44.25 41.25 43.6 41.5 43.85 41.25 32.85 10.35 Q31.1 4.5 34.25 -1.9 L37.5 9.0 37.5 10.25 47.5 40.25 47.1 40.35 46.75 40.5 46.35 40.6 46.0 40.75 45.6 40.85 M33.75 45.1 L38.25 43.1 41.6 42.1 20.6 51.75 16.85 55.35 18.6 52.35 33.5 45.25 33.75 45.1" fill="#000000" fill-opacity="0.49803922" fill-rule="evenodd" stroke="none"/>
  </g>
</svg>
