<?xml version="1.0" encoding="UTF-8" standalone="no"?>
<svg xmlns:ffdec="https://www.free-decompiler.com/flash" xmlns:xlink="http://www.w3.org/1999/xlink" ffdec:objectType="shape" height="163.45px" width="146.15px" xmlns="http://www.w3.org/2000/svg">
  <g transform="matrix(1.0, 0.0, 0.0, 1.0, 73.65, 64.45)">
    <path d="M-12.75 -16.25 L-15.25 -20.25 -15.25 -25.0 -10.25 -27.0 -1.5 -26.75 -0.25 -26.25 0.0 -26.5 0.75 -26.75 6.75 -27.5 Q13.75 -26.5 14.25 -25.0 L14.25 -20.5 12.0 -16.75 Q9.5 -12.0 -0.25 -15.5 L-7.25 -13.75 Q-13.0 -14.5 -12.75 -16.25 M17.5 6.5 L22.0 16.75 23.75 23.5 29.75 34.75 Q32.75 39.5 38.75 43.75 L39.75 46.0 39.25 46.25 38.5 46.75 38.0 47.0 37.25 47.5 36.75 47.75 33.5 49.75 25.5 56.25 Q24.25 58.75 26.0 60.75 L22.25 67.75 Q21.75 81.75 19.75 83.25 4.5 91.75 -21.75 81.75 L-22.25 70.0 -25.5 61.75 -30.5 56.75 -38.0 51.5 -33.75 45.0 -27.75 33.0 -24.5 28.25 -22.75 24.75 -22.5 22.0 -23.25 21.75 -22.25 17.5 -17.75 8.25 -17.5 8.25 Q-8.25 24.0 1.0 20.25 L2.5 20.25 3.25 20.0 Q14.0 18.25 17.5 6.5 M-3.5 -19.0 L-4.75 -19.75 -6.75 -20.5 -8.0 -20.0 -9.0 -18.75 -9.5 -17.5 -7.75 -15.75 -4.5 -15.75 -3.5 -17.25 -3.5 -19.0 M5.75 -20.5 L5.25 -20.25 4.5 -20.0 4.0 -19.75 3.75 -19.5 Q1.75 -19.25 3.75 -15.75 L7.0 -15.75 Q8.75 -17.5 8.25 -19.5 L7.0 -20.0 6.75 -20.0 5.75 -20.5" fill="#ffffff" fill-rule="evenodd" stroke="none"/>
    <path d="M5.75 -20.5 L6.75 -20.0 7.0 -20.0 8.25 -19.5 Q8.75 -17.5 7.0 -15.75 L3.75 -15.75 Q1.75 -19.25 3.75 -19.5 L4.0 -19.75 4.5 -20.0 5.25 -20.25 5.75 -20.5 M-3.5 -19.0 L-3.5 -17.25 -4.5 -15.75 -7.75 -15.75 -9.5 -17.5 -9.0 -18.75 -8.0 -20.0 -6.75 -20.5 -4.75 -19.75 -3.5 -19.0" fill="#000000" fill-rule="evenodd" stroke="none"/>
    <path d="M12.0 -16.75 Q14.0 -16.05 15.5 -14.5 L18.5 -10.25 19.25 -2.5 17.5 6.5 Q14.0 18.25 3.25 20.0 L2.5 20.25 1.0 20.25 Q-8.25 24.0 -17.5 8.25 L-17.75 8.25 Q-24.75 -12.0 -12.75 -16.25 -13.0 -14.5 -7.25 -13.75 L-0.25 -15.5 Q9.5 -12.0 12.0 -16.75 M26.0 60.75 L33.5 65.25 Q63.75 78.25 66.5 54.75 L68.0 53.5 67.75 51.0 67.5 50.0 67.25 43.5 72.5 50.5 71.0 55.25 60.0 70.0 40.5 91.0 36.0 94.5 27.25 99.0 21.25 92.25 Q19.0 88.0 19.75 83.25 21.75 81.75 22.25 67.75 L26.0 60.75 M-21.75 81.75 L-21.75 84.75 -25.25 93.25 -31.0 98.25 -44.5 89.0 -50.25 82.25 -51.0 81.5 -51.0 81.25 -52.5 79.75 -53.25 78.75 -58.5 73.0 -71.0 56.25 -71.0 56.0 -71.75 55.25 Q-74.5 52.5 -73.25 50.25 L-70.25 45.75 -70.25 46.5 -70.5 46.75 -70.25 47.0 -70.5 53.75 -69.0 55.25 -68.0 59.5 -67.0 61.25 -66.5 61.5 -66.0 62.5 -65.5 63.0 -64.5 63.5 Q-59.5 66.25 -41.5 49.25 L-38.0 51.5 -30.5 56.75 -25.5 61.75 -22.25 70.0 -21.75 81.75" fill="#e58508" fill-rule="evenodd" stroke="none"/>
    <path d="M-63.9 21.5 Q-60.4 -3.9 -47.0 -21.4 -17.4 -63.4 -1.25 -64.4 5.85 -65.25 18.85 -53.9 L28.1 -44.65 44.85 -23.4 Q61.5 0.75 63.1 22.6 L62.5 26.0 63.35 29.0 67.35 43.5 68.35 49.85 68.25 51.0 67.75 53.25 66.75 54.6 65.6 59.75 64.6 62.75 63.25 64.85 57.85 68.35 56.5 69.0 52.85 69.1 52.35 69.25 50.6 69.25 49.85 69.35 48.5 69.35 47.5 69.5 46.0 69.35 41.35 68.1 29.25 62.75 25.6 59.35 26.0 60.6 Q20.75 65.85 21.35 77.6 -1.15 85.25 -22.15 77.25 -21.75 65.5 -29.0 58.6 -26.9 61.35 -28.25 63.85 L-29.75 62.0 -35.75 57.0 -43.9 51.75 -41.5 49.35 Q-21.0 27.1 -22.75 22.0 L-27.65 29.5 -41.65 46.25 -41.5 46.5 -47.25 52.5 -58.65 61.25 -63.4 63.5 -63.9 63.5 -65.65 62.5 -68.15 58.6 -68.75 57.0 -68.9 56.0 -69.0 55.75 -69.15 55.0 -69.25 54.85 -69.25 53.85 -68.65 52.75 -70.5 53.1 -70.75 53.0 -71.15 51.1 -71.15 49.6 -70.65 46.5 -70.5 46.25 -70.5 46.0 -68.5 40.25 -68.65 39.75 -64.15 24.0 -63.9 23.1 -63.9 21.5 M-36.0 -10.25 L-40.65 1.6 -41.15 3.75 -51.25 28.25 -44.4 25.75 -44.4 25.6 -36.75 7.85 -33.65 -1.15 Q-33.0 -5.15 -36.0 -10.25 M-19.9 -2.15 L-19.9 -6.15 -20.75 -6.25 -19.9 10.5 -19.25 12.85 -19.5 14.0 -19.0 22.1 -18.65 22.35 -12.0 41.1 -11.5 41.25 -7.15 46.25 0.1 47.75 7.25 46.25 12.0 41.1 19.0 22.25 19.85 9.6 18.85 -0.65 18.5 3.0 17.6 6.25 Q15.5 16.35 3.25 20.0 L0.85 20.25 Q-8.15 23.0 -16.4 10.5 L-17.4 8.75 -17.9 7.1 -18.0 6.85 -19.25 2.6 -19.9 -2.15 M45.0 43.1 L53.35 38.85 51.85 39.35 40.25 11.0 39.85 9.0 35.6 -2.75 33.85 3.35 34.75 9.6 37.5 16.75 45.6 35.25 45.75 35.5 48.25 41.0 41.25 44.75 41.0 45.0 26.75 54.6 Q25.85 54.6 25.25 58.25 L26.5 57.1 28.6 54.1 35.75 49.75 45.0 43.1 M27.1 63.85 L26.75 61.85 28.1 62.75 27.1 63.85" fill="#cecece" fill-opacity="0.0" fill-rule="evenodd" stroke="none"/>
    <path d="M63.1 22.6 L63.35 29.0 62.5 26.0 63.1 22.6 M67.35 43.5 L68.35 44.6 72.25 50.35 72.35 50.75 72.1 52.5 71.25 54.35 66.25 61.85 57.0 73.1 40.1 91.0 34.1 95.5 28.6 98.6 27.35 98.85 26.75 98.35 23.1 94.6 21.1 91.85 19.85 87.85 19.75 83.1 17.5 84.1 -0.15 87.25 -17.75 84.1 -20.9 82.6 -21.0 88.6 -21.9 90.5 -22.0 91.0 -22.15 91.35 -22.25 91.5 -22.75 92.85 -24.65 95.0 -25.0 95.5 -28.4 98.85 -29.9 98.35 -35.25 95.25 -41.4 90.75 -53.0 78.6 -62.75 67.5 -70.75 56.85 -73.15 52.5 -73.4 50.85 -70.5 46.25 -70.65 46.5 -71.15 49.6 -71.15 51.1 -70.75 53.0 -70.5 53.1 -68.65 52.75 -69.25 53.85 -69.25 54.85 -69.15 55.0 -69.0 55.75 -68.9 56.0 -68.75 57.0 -68.15 58.6 -65.65 62.5 -63.9 63.5 -63.4 63.5 -58.65 61.25 -47.25 52.5 -41.5 46.5 -41.65 46.25 -27.65 29.5 -22.75 22.0 Q-21.0 27.1 -41.5 49.35 L-43.9 51.75 -35.75 57.0 -29.75 62.0 -28.25 63.85 Q-26.9 61.35 -29.0 58.6 -21.75 65.5 -22.15 77.25 -1.15 85.25 21.35 77.6 20.75 65.85 26.0 60.6 L25.6 59.35 29.25 62.75 41.35 68.1 46.0 69.35 47.5 69.5 48.5 69.35 49.85 69.35 50.6 69.25 52.35 69.25 52.85 69.1 56.5 69.0 57.85 68.35 63.25 64.85 64.6 62.75 65.6 59.75 66.75 54.6 67.75 53.25 68.25 51.0 68.35 49.85 67.35 43.5 M-64.15 24.0 L-63.9 21.5 -63.9 23.1 -64.15 24.0 M-36.0 -10.25 Q-33.0 -5.15 -33.65 -1.15 L-36.75 7.85 -44.4 25.6 -44.4 25.75 -51.25 28.25 -41.15 3.75 -40.65 1.6 -36.0 -10.25 M-19.9 -2.15 L-19.25 2.6 -18.0 6.85 -17.9 7.1 -17.4 8.75 -16.4 10.5 Q-8.15 23.0 0.85 20.25 L3.25 20.0 Q15.5 16.35 17.6 6.25 L18.5 3.0 18.85 -0.65 19.85 9.6 19.0 22.25 12.0 41.1 7.25 46.25 0.1 47.75 -7.15 46.25 -11.5 41.25 -12.0 41.1 -18.65 22.35 -19.0 22.1 -19.5 14.0 -19.25 12.85 -19.9 10.5 -20.75 -6.25 -19.9 -6.15 -19.9 -2.15 M45.0 43.1 L35.75 49.75 28.6 54.1 26.5 57.1 25.25 58.25 Q25.85 54.6 26.75 54.6 L41.0 45.0 41.25 44.75 48.25 41.0 45.75 35.5 45.6 35.25 37.5 16.75 34.75 9.6 33.85 3.35 35.6 -2.75 39.85 9.0 40.25 11.0 51.85 39.35 53.35 38.85 45.0 43.1 M27.1 63.85 L28.1 62.75 26.75 61.85 27.1 63.85" fill="#000000" fill-opacity="0.49803922" fill-rule="evenodd" stroke="none"/>
  </g>
</svg>
