<?xml version="1.0" encoding="UTF-8" standalone="no"?>
<svg xmlns:ffdec="https://www.free-decompiler.com/flash" xmlns:xlink="http://www.w3.org/1999/xlink" ffdec:objectType="shape" height="163.25px" width="155.0px" xmlns="http://www.w3.org/2000/svg">
  <g transform="matrix(1.0, 0.0, 0.0, 1.0, 79.75, 64.4)">
    <path d="M-12.75 -16.25 L-15.25 -20.25 -15.25 -25.0 -10.25 -27.0 -1.5 -26.75 -0.25 -26.25 0.0 -26.5 0.75 -26.75 6.75 -27.5 Q13.75 -26.5 14.25 -25.0 L14.25 -20.5 12.0 -16.75 Q9.5 -12.0 -0.25 -15.5 L-7.25 -13.75 Q-13.0 -14.5 -12.75 -16.25 M17.5 6.5 L22.0 16.75 23.75 23.5 29.75 34.75 Q32.75 39.5 38.75 43.75 L41.5 48.75 33.25 53.75 28.5 57.75 24.5 62.5 22.25 68.0 Q21.75 82.0 19.75 83.25 4.5 91.75 -21.75 81.75 L-22.25 70.0 -25.5 61.75 -30.5 56.75 -38.0 51.5 -28.75 35.75 -25.0 26.75 -22.25 17.5 -17.75 8.25 -17.5 8.25 Q-8.25 24.0 1.0 20.25 L2.5 20.25 3.25 20.0 Q14.0 18.25 17.5 6.5 M-3.5 -19.0 L-4.75 -19.75 -6.75 -20.5 -8.0 -20.0 -9.0 -18.75 -9.5 -17.5 -7.75 -15.75 -4.5 -15.75 -3.5 -17.25 -3.5 -19.0 M5.75 -20.5 L5.25 -20.25 4.5 -20.0 4.0 -19.75 3.75 -19.5 Q1.75 -19.25 3.75 -15.75 L7.0 -15.75 Q8.75 -17.5 8.25 -19.5 L7.0 -20.0 6.75 -20.0 5.75 -20.5" fill="#ffffff" fill-rule="evenodd" stroke="none"/>
    <path d="M5.75 -20.5 L6.75 -20.0 7.0 -20.0 8.25 -19.5 Q8.75 -17.5 7.0 -15.75 L3.75 -15.75 Q1.75 -19.25 3.75 -19.5 L4.0 -19.75 4.5 -20.0 5.25 -20.25 5.75 -20.5 M-3.5 -19.0 L-3.5 -17.25 -4.5 -15.75 -7.75 -15.75 -9.5 -17.5 -9.0 -18.75 -8.0 -20.0 -6.75 -20.5 -4.75 -19.75 -3.5 -19.0" fill="#000000" fill-rule="evenodd" stroke="none"/>
    <path d="M12.0 -16.75 Q14.0 -16.05 15.5 -14.5 L18.5 -10.25 19.25 -2.5 17.5 6.5 Q14.0 18.25 3.25 20.0 L2.5 20.25 1.0 20.25 Q-8.25 24.0 -17.5 8.25 L-17.75 8.25 Q-24.75 -12.0 -12.75 -16.25 -13.0 -14.5 -7.25 -13.75 L-0.25 -15.5 Q9.5 -12.0 12.0 -16.75 M41.5 48.75 L54.0 42.5 49.0 49.0 48.0 50.0 47.75 50.5 47.25 51.0 42.25 58.25 Q39.0 62.25 45.5 65.75 L50.25 67.5 61.25 68.25 40.0 91.5 Q34.4 95.15 28.75 98.75 L26.75 98.75 21.0 92.0 19.75 88.0 19.75 83.25 Q21.75 82.0 22.25 68.0 L24.5 62.5 28.5 57.75 33.25 53.75 41.5 48.75 M-21.75 81.75 L-21.75 84.75 -25.25 93.25 -31.0 98.25 -44.5 89.0 -50.25 82.25 -51.0 81.5 -51.0 81.25 -52.5 79.75 -53.25 78.75 -58.5 73.0 -70.5 57.0 -70.75 56.75 -64.0 51.75 -54.25 42.5 -45.5 46.75 -38.0 51.5 -30.5 56.75 -25.5 61.75 -22.25 70.0 -21.75 81.75" fill="#e58508" fill-rule="evenodd" stroke="none"/>
    <path d="M-79.65 46.75 L-79.75 43.1 -78.9 41.5 -78.5 39.75 -68.9 18.35 -54.9 -7.9 -53.5 -11.25 -46.75 -21.75 -38.15 -33.15 -29.25 -44.0 -23.4 -50.0 -23.4 -50.4 Q-13.9 -61.4 0.0 -64.4 10.6 -63.9 28.1 -44.65 L35.1 -36.15 45.5 -22.5 51.0 -13.9 57.0 -1.4 59.1 4.6 65.5 18.75 73.85 39.85 75.25 44.35 Q75.1 49.0 74.35 49.5 75.75 57.0 70.1 63.35 69.75 64.5 66.85 65.6 L61.6 67.6 60.25 68.1 56.35 68.1 55.5 68.0 45.85 65.6 Q41.85 63.0 42.0 62.25 L43.0 60.75 44.1 57.35 50.0 50.1 55.35 42.5 56.0 42.25 61.6 36.0 59.35 37.0 45.0 10.35 37.35 -5.4 Q35.5 1.85 37.5 7.0 L55.85 39.85 53.6 42.5 54.0 42.5 52.35 44.25 49.75 47.75 40.85 52.75 36.0 56.0 28.75 62.0 27.1 63.85 26.6 61.5 27.75 58.75 26.6 59.75 Q20.5 66.25 21.35 77.6 -1.15 85.25 -22.15 77.25 -21.75 65.5 -29.0 58.6 -26.9 61.35 -28.25 63.85 L-34.25 58.1 -41.75 52.85 -51.4 47.35 -56.75 44.85 -54.9 42.75 -54.4 42.6 -53.75 42.85 -54.25 42.35 -49.0 36.35 -47.15 33.5 -46.25 32.85 -34.65 16.1 Q-34.0 15.6 -34.0 10.6 L-38.75 18.0 -53.5 36.5 -53.4 36.75 -59.4 43.6 -69.75 53.35 -74.75 56.85 -76.9 55.0 Q-79.15 50.85 -78.5 49.1 L-78.65 49.0 -78.25 46.1 -78.9 46.1 -79.65 46.75 M-19.9 -2.15 L-19.9 -6.15 -20.75 -6.25 -19.9 10.5 -19.25 12.85 -19.5 14.0 -19.0 22.1 -18.65 22.35 -12.0 41.1 -11.5 41.25 -7.15 46.25 0.1 47.75 7.25 46.25 12.0 41.1 19.0 22.25 19.85 9.6 18.85 -0.65 18.5 3.0 17.6 6.25 Q15.5 16.35 3.25 20.0 L0.85 20.25 Q-8.15 23.0 -16.4 10.5 L-17.4 8.75 -17.9 7.1 -18.0 6.85 -19.25 2.6 -19.9 -2.15 M-37.5 -13.75 L-55.75 18.5 -45.65 13.75 -45.15 13.75 -44.75 13.35 -44.5 13.25 -44.4 13.1 -44.25 13.0 -37.9 1.5 -37.5 1.5 -35.5 -4.15 -35.5 -9.15 -37.5 -13.75" fill="#cecece" fill-opacity="0.0" fill-rule="evenodd" stroke="none"/>
    <path d="M61.6 67.6 L47.6 83.35 40.1 91.0 34.1 95.5 28.6 98.6 27.35 98.85 26.75 98.35 23.1 94.6 21.1 91.85 19.85 87.85 19.75 83.1 17.5 84.1 -0.15 87.25 -17.75 84.1 -20.9 82.6 -21.0 88.6 -21.9 90.5 -22.0 91.0 -22.15 91.35 -22.25 91.5 -22.75 92.85 -24.65 95.0 -25.0 95.5 -28.4 98.85 -29.9 98.35 -35.25 95.25 -41.4 90.75 -48.65 83.35 -62.75 67.5 -70.9 56.75 -74.75 56.85 -69.75 53.35 -59.4 43.6 -53.4 36.75 -53.5 36.5 -38.75 18.0 -34.0 10.6 Q-34.0 15.6 -34.65 16.1 L-46.25 32.85 -47.15 33.5 -49.0 36.35 -54.25 42.35 -53.75 42.85 -54.4 42.6 -54.9 42.75 -56.75 44.85 -51.4 47.35 -41.75 52.85 -34.25 58.1 -28.25 63.85 Q-26.9 61.35 -29.0 58.6 -21.75 65.5 -22.15 77.25 -1.15 85.25 21.35 77.6 20.5 66.25 26.6 59.75 L27.75 58.75 26.6 61.5 27.1 63.85 28.75 62.0 36.0 56.0 40.85 52.75 49.75 47.75 52.35 44.25 54.0 42.5 53.6 42.5 55.85 39.85 37.5 7.0 Q35.5 1.85 37.35 -5.4 L45.0 10.35 59.35 37.0 61.6 36.0 56.0 42.25 55.35 42.5 50.0 50.1 44.1 57.35 43.0 60.75 42.0 62.25 Q41.85 63.0 45.85 65.6 L55.5 68.0 56.35 68.1 60.25 68.1 61.6 67.6 M-78.65 49.0 L-79.65 47.85 -79.65 46.75 -78.9 46.1 -78.25 46.1 -78.65 49.0 M-19.9 -2.15 L-19.25 2.6 -18.0 6.85 -17.9 7.1 -17.4 8.75 -16.4 10.5 Q-8.15 23.0 0.85 20.25 L3.25 20.0 Q15.5 16.35 17.6 6.25 L18.5 3.0 18.85 -0.65 19.85 9.6 19.0 22.25 12.0 41.1 7.25 46.25 0.1 47.75 -7.15 46.25 -11.5 41.25 -12.0 41.1 -18.65 22.35 -19.0 22.1 -19.5 14.0 -19.25 12.85 -19.9 10.5 -20.75 -6.25 -19.9 -6.15 -19.9 -2.15 M-37.5 -13.75 L-35.5 -9.15 -35.5 -4.15 -37.5 1.5 -37.9 1.5 -44.25 13.0 -44.4 13.1 -44.5 13.25 -44.75 13.35 -45.15 13.75 -45.65 13.75 -55.75 18.5 -37.5 -13.75" fill="#000000" fill-opacity="0.49803922" fill-rule="evenodd" stroke="none"/>
  </g>
</svg>
