<?xml version="1.0" encoding="UTF-8" standalone="no"?>
<svg xmlns:ffdec="https://www.free-decompiler.com/flash" xmlns:xlink="http://www.w3.org/1999/xlink" ffdec:objectType="shape" height="163.5px" width="211.3px" xmlns="http://www.w3.org/2000/svg">
  <g transform="matrix(1.0, 0.0, 0.0, 1.0, 109.1, 64.5)">
    <path d="M-12.75 -16.25 L-15.25 -20.25 -15.25 -25.0 -10.25 -27.0 -1.5 -26.75 -0.25 -26.25 0.0 -26.5 0.75 -26.75 6.75 -27.5 Q13.75 -26.5 14.25 -25.0 L14.25 -20.5 12.0 -16.75 Q9.5 -12.0 -0.25 -15.5 L-7.25 -13.75 Q-13.0 -14.5 -12.75 -16.25 M17.5 6.5 L22.0 16.75 23.75 23.5 29.75 34.75 Q32.75 39.5 38.75 43.75 L41.5 48.75 33.25 53.75 28.5 57.75 24.5 62.5 22.25 68.0 Q21.75 82.0 19.75 83.25 4.5 91.75 -21.75 81.75 L-22.25 70.0 -25.5 61.75 -30.5 56.75 -38.0 51.5 -28.75 35.75 -25.0 26.75 -22.25 17.5 -17.75 8.25 -17.5 8.25 Q-8.25 24.0 1.0 20.25 L2.5 20.25 3.25 20.0 Q14.0 18.25 17.5 6.5 M-3.5 -19.0 L-4.75 -19.75 -6.75 -20.5 -8.0 -20.0 -9.0 -18.75 -9.5 -17.5 -7.75 -15.75 -4.5 -15.75 -3.5 -17.25 -3.5 -19.0 M5.75 -20.5 L5.25 -20.25 4.5 -20.0 4.0 -19.75 3.75 -19.5 Q1.75 -19.25 3.75 -15.75 L7.0 -15.75 Q8.75 -17.5 8.25 -19.5 L7.0 -20.0 6.75 -20.0 5.75 -20.5" fill="#ffffff" fill-rule="evenodd" stroke="none"/>
    <path d="M5.75 -20.5 L6.75 -20.0 7.0 -20.0 8.25 -19.5 Q8.75 -17.5 7.0 -15.75 L3.75 -15.75 Q1.75 -19.25 3.75 -19.5 L4.0 -19.75 4.5 -20.0 5.25 -20.25 5.75 -20.5 M-3.5 -19.0 L-3.5 -17.25 -4.5 -15.75 -7.75 -15.75 -9.5 -17.5 -9.0 -18.75 -8.0 -20.0 -6.75 -20.5 -4.75 -19.75 -3.5 -19.0" fill="#000000" fill-rule="evenodd" stroke="none"/>
    <path d="M12.0 -16.75 Q14.0 -16.05 15.5 -14.5 L18.5 -10.25 19.25 -2.5 17.5 6.5 Q14.0 18.25 3.25 20.0 L2.5 20.25 1.0 20.25 Q-8.25 24.0 -17.5 8.25 L-17.75 8.25 Q-24.75 -12.0 -12.75 -16.25 -13.0 -14.5 -7.25 -13.75 L-0.25 -15.5 Q9.5 -12.0 12.0 -16.75 M41.5 48.75 L51.75 43.25 Q60.25 39.75 61.75 41.0 L65.5 41.75 Q68.0 42.75 71.5 49.5 74.0 50.5 70.25 56.5 L61.25 68.5 47.0 84.5 40.0 91.5 33.75 96.0 27.0 99.0 Q18.5 92.75 19.75 83.25 21.75 82.0 22.25 68.0 L24.5 62.5 28.5 57.75 33.25 53.75 41.5 48.75 M-21.75 81.75 L-21.75 84.75 -25.25 93.25 -31.0 98.25 -44.5 89.0 -50.25 82.25 -51.0 81.5 -51.0 81.25 -52.5 79.75 -53.25 78.75 -58.5 73.0 -71.0 56.25 -71.0 56.0 -71.75 55.25 -73.25 53.25 -73.25 50.25 -69.75 44.75 Q-65.5 40.25 -63.25 40.75 -60.5 39.75 -54.0 42.5 L-38.0 51.5 -30.5 56.75 -25.5 61.75 -22.25 70.0 -21.75 81.75" fill="#e58508" fill-rule="evenodd" stroke="none"/>
    <path d="M-108.5 27.85 Q-110.65 22.5 -105.25 14.1 -99.4 5.5 -83.15 -1.65 L-82.9 -1.75 -64.65 -14.25 -50.75 -22.65 -43.65 -25.75 Q-19.15 -61.25 -1.25 -64.4 5.5 -65.5 19.6 -53.25 L28.5 -44.25 35.1 -36.15 45.25 -22.65 47.5 -21.15 62.1 -6.9 72.75 4.5 83.6 17.5 86.6 21.75 86.6 21.85 92.35 30.75 94.1 34.6 98.1 46.0 Q104.75 66.6 100.6 69.5 L100.0 67.1 89.1 44.0 89.25 43.6 79.75 22.35 78.75 20.85 77.85 22.1 57.1 2.85 42.1 -12.0 42.25 -5.75 45.1 0.35 49.75 6.35 57.35 12.85 57.6 13.1 58.0 13.35 61.5 16.35 61.85 16.85 63.1 22.1 63.1 23.5 61.75 30.6 Q59.0 37.6 53.6 42.5 L57.6 41.1 59.6 40.75 61.85 40.85 64.1 41.0 66.0 42.25 Q64.1 41.5 58.25 43.6 L46.0 49.6 36.0 56.0 32.1 59.0 27.1 63.85 26.6 61.5 27.75 58.75 26.6 59.75 Q20.5 66.25 21.35 77.6 -1.15 85.25 -22.15 77.25 -21.75 65.5 -29.0 58.6 -26.9 61.35 -28.25 63.85 L-32.4 59.6 -37.25 55.85 -47.15 49.6 -59.25 43.6 Q-65.45 41.5 -66.75 42.1 L-65.4 41.1 -63.15 40.85 -60.65 40.75 -53.75 42.85 -55.15 41.75 -60.4 35.1 -63.25 28.5 -63.9 21.5 -62.5 13.25 -59.9 5.0 -60.15 4.85 -43.65 -5.15 -40.75 -8.25 Q-38.65 -11.5 -38.5 -16.25 L-39.5 -20.65 -71.65 -1.15 -79.0 3.75 Q-77.75 1.0 -78.15 -0.4 L-79.4 -1.65 -80.25 0.0 -81.25 0.5 -86.75 5.35 -103.75 22.35 -108.0 26.1 -108.5 27.85 M-19.9 -2.15 L-19.9 -6.15 -20.75 -6.25 -19.9 10.5 -19.25 12.85 -19.5 14.0 -19.0 22.1 -18.65 22.35 -12.0 41.1 -11.5 41.25 -7.15 46.25 0.1 47.75 7.25 46.25 12.0 41.1 19.0 22.25 19.85 9.6 18.85 -0.65 18.5 3.0 17.6 6.25 Q15.5 16.35 3.25 20.0 L0.85 20.25 Q-8.15 23.0 -16.4 10.5 L-17.4 8.75 -17.9 7.1 -18.0 6.85 -19.25 2.6 -19.9 -2.15" fill="#cecece" fill-opacity="0.0" fill-rule="evenodd" stroke="none"/>
    <path d="M100.6 69.5 L97.75 68.35 92.35 60.5 86.35 50.1 75.75 27.85 61.85 16.85 61.5 16.35 58.0 13.35 57.6 13.1 57.35 12.85 49.75 6.35 45.1 0.35 42.25 -5.75 42.1 -12.0 57.1 2.85 77.85 22.1 78.75 20.85 79.75 22.35 89.25 43.6 89.1 44.0 100.0 67.1 100.6 69.5 M63.1 23.5 L63.5 28.75 62.35 39.6 61.85 40.85 59.6 40.75 57.6 41.1 53.6 42.5 Q59.0 37.6 61.75 30.6 L63.1 23.5 M66.0 42.25 L68.5 44.85 69.1 45.75 69.25 45.85 69.35 46.1 71.0 48.6 71.1 48.85 71.6 49.75 71.75 49.75 72.35 50.5 72.25 50.85 72.0 52.6 71.0 54.6 66.1 62.0 57.0 73.1 40.1 91.0 34.1 95.5 28.6 98.6 27.35 98.85 26.75 98.35 23.1 94.6 21.1 91.85 19.85 87.85 19.75 83.1 17.5 84.1 -0.15 87.25 -17.75 84.1 -20.9 82.6 -21.0 88.6 -21.9 90.5 -22.0 91.0 -22.15 91.35 -22.25 91.5 -22.75 92.85 -24.65 95.0 -25.0 95.5 -28.4 98.85 -29.9 98.35 -35.25 95.25 -41.4 90.75 -53.0 78.6 -62.75 67.5 -70.75 56.85 -73.15 52.5 -73.4 50.85 -69.9 45.1 -67.0 42.25 -66.75 42.1 Q-65.45 41.5 -59.25 43.6 L-47.15 49.6 -37.25 55.85 -32.4 59.6 -28.25 63.85 Q-26.9 61.35 -29.0 58.6 -21.75 65.5 -22.15 77.25 -1.15 85.25 21.35 77.6 20.5 66.25 26.6 59.75 L27.75 58.75 26.6 61.5 27.1 63.85 32.1 59.0 36.0 56.0 46.0 49.6 58.25 43.6 Q64.1 41.5 66.0 42.25 M-63.15 40.85 L-64.4 29.1 -63.9 21.5 -63.25 28.5 -60.4 35.1 -55.15 41.75 -53.75 42.85 -60.65 40.75 -63.15 40.85 M-60.15 4.85 L-92.0 22.5 Q-103.5 32.75 -108.5 27.85 L-108.0 26.1 -103.75 22.35 -86.75 5.35 -81.25 0.5 -80.25 0.0 -79.4 -1.65 -78.15 -0.4 Q-77.75 1.0 -79.0 3.75 L-71.65 -1.15 -39.5 -20.65 -38.5 -16.25 Q-38.65 -11.5 -40.75 -8.25 L-43.65 -5.15 -60.15 4.85 M-19.9 -2.15 L-19.25 2.6 -18.0 6.85 -17.9 7.1 -17.4 8.75 -16.4 10.5 Q-8.15 23.0 0.85 20.25 L3.25 20.0 Q15.5 16.35 17.6 6.25 L18.5 3.0 18.85 -0.65 19.85 9.6 19.0 22.25 12.0 41.1 7.25 46.25 0.1 47.75 -7.15 46.25 -11.5 41.25 -12.0 41.1 -18.65 22.35 -19.0 22.1 -19.5 14.0 -19.25 12.85 -19.9 10.5 -20.75 -6.25 -19.9 -6.15 -19.9 -2.15" fill="#000000" fill-opacity="0.49803922" fill-rule="evenodd" stroke="none"/>
  </g>
</svg>
