<?xml version="1.0" encoding="UTF-8" standalone="no"?>
<svg xmlns:ffdec="https://www.free-decompiler.com/flash" xmlns:xlink="http://www.w3.org/1999/xlink" ffdec:objectType="shape" height="359.0px" width="269.9px" xmlns="http://www.w3.org/2000/svg">
  <g transform="matrix(1.0, 0.0, 0.0, 1.0, 141.5, 137.9)">
    <path d="M-65.0 -59.25 L-54.15 -80.95 Q-59.25 -118.4 -46.05 -121.25 -32.9 -124.05 -30.55 -127.3 -28.2 -130.6 -20.15 -132.3 L-16.05 -132.0 -15.65 -131.75 -10.2 -135.3 Q-7.55 -136.95 -4.5 -137.6 18.5 -141.55 61.0 -90.75 L74.25 -84.75 95.0 -71.25 95.5 -70.75 105.75 -62.25 113.75 -53.75 Q140.0 -34.0 119.25 -0.5 L118.25 0.0 118.0 0.0 115.25 0.5 110.75 -3.75 105.0 -12.25 Q136.25 97.75 74.5 153.75 37.5 186.75 -8.5 194.75 -78.0 197.75 -92.5 162.25 -100.25 190.25 -132.25 218.0 -141.75 226.0 -141.5 213.5 L-141.25 196.75 -141.0 196.0 -139.0 161.75 -135.75 131.0 -134.0 126.0 -134.25 125.75 -129.7 115.5 Q-124.1 102.95 -120.4 89.0 -118.9 83.35 -116.9 77.85 -110.5 60.15 -103.2 42.55 -99.0 32.5 -97.0 21.75 L-91.75 3.25 -81.25 -24.0 -68.5 -52.5 -65.0 -59.25" fill="#2e47aa" fill-rule="evenodd" stroke="none"/>
    <path d="M-65.0 -59.25 L-68.5 -52.5 -65.5 -59.5 -65.0 -59.25" fill="#ffffff" fill-rule="evenodd" stroke="none"/>
  </g>
</svg>
