<?xml version="1.0" encoding="UTF-8" standalone="no"?>
<svg xmlns:ffdec="https://www.free-decompiler.com/flash" xmlns:xlink="http://www.w3.org/1999/xlink" ffdec:objectType="shape" height="163.5px" width="182.85px" xmlns="http://www.w3.org/2000/svg">
  <g transform="matrix(1.0, 0.0, 0.0, 1.0, 92.75, 64.5)">
    <path d="M-12.75 -16.25 L-15.25 -20.25 -15.25 -25.0 -10.25 -27.0 -1.5 -26.75 -0.25 -26.25 0.0 -26.5 0.75 -26.75 6.75 -27.5 Q13.75 -26.5 14.25 -25.0 L14.25 -20.5 12.0 -16.75 Q9.5 -12.0 -0.25 -15.5 L-7.25 -13.75 Q-13.0 -14.5 -12.75 -16.25 M17.5 6.5 L22.0 16.75 23.75 23.5 29.75 34.75 Q32.75 39.5 38.75 43.75 L41.5 48.75 33.25 53.75 28.5 57.75 24.5 62.5 22.25 68.0 Q21.75 82.0 19.75 83.25 4.5 91.75 -21.75 81.75 L-22.25 70.0 -25.5 61.75 -30.5 56.75 -38.0 51.5 -28.75 35.75 -25.0 26.75 -22.25 17.5 -17.75 8.25 -17.5 8.25 Q-8.25 24.0 1.0 20.25 L2.5 20.25 3.25 20.0 Q14.0 18.25 17.5 6.5 M-3.5 -19.0 L-4.75 -19.75 -6.75 -20.5 -8.0 -20.0 -9.0 -18.75 -9.5 -17.5 -7.75 -15.75 -4.5 -15.75 -3.5 -17.25 -3.5 -19.0 M5.75 -20.5 L5.25 -20.25 4.5 -20.0 4.0 -19.75 3.75 -19.5 Q1.75 -19.25 3.75 -15.75 L7.0 -15.75 Q8.75 -17.5 8.25 -19.5 L7.0 -20.0 6.75 -20.0 5.75 -20.5" fill="#ffffff" fill-rule="evenodd" stroke="none"/>
    <path d="M5.75 -20.5 L6.75 -20.0 7.0 -20.0 8.25 -19.5 Q8.75 -17.5 7.0 -15.75 L3.75 -15.75 Q1.75 -19.25 3.75 -19.5 L4.0 -19.75 4.5 -20.0 5.25 -20.25 5.75 -20.5 M-3.5 -19.0 L-3.5 -17.25 -4.5 -15.75 -7.75 -15.75 -9.5 -17.5 -9.0 -18.75 -8.0 -20.0 -6.75 -20.5 -4.75 -19.75 -3.5 -19.0" fill="#000000" fill-rule="evenodd" stroke="none"/>
    <path d="M12.0 -16.75 Q14.0 -16.05 15.5 -14.5 L18.5 -10.25 19.25 -2.5 17.5 6.5 Q14.0 18.25 3.25 20.0 L2.5 20.25 1.0 20.25 Q-8.25 24.0 -17.5 8.25 L-17.75 8.25 Q-24.75 -12.0 -12.75 -16.25 -13.0 -14.5 -7.25 -13.75 L-0.25 -15.5 Q9.5 -12.0 12.0 -16.75 M41.5 48.75 L51.75 43.25 58.75 41.25 56.75 44.25 56.5 44.5 54.5 47.5 49.5 56.75 Q47.75 57.25 48.75 62.5 L54.0 63.5 61.5 62.25 67.5 60.25 62.25 67.25 47.0 84.5 38.25 92.75 30.75 97.75 27.0 99.0 22.5 94.25 20.0 89.25 19.75 83.25 Q21.75 82.0 22.25 68.0 L24.5 62.5 28.5 57.75 33.25 53.75 41.5 48.75 M-21.75 81.75 L-21.75 84.75 -25.25 93.25 -31.0 98.25 -44.5 89.0 -50.25 82.25 -51.0 81.5 -51.0 81.25 -52.5 79.75 -53.25 78.75 -58.5 73.0 -71.0 56.25 -71.0 56.0 -71.75 55.25 -73.25 53.25 -73.25 50.25 -69.75 44.75 Q-65.5 40.25 -63.25 40.75 -60.5 39.75 -54.0 42.5 L-38.0 51.5 -30.5 56.75 -25.5 61.75 -22.25 70.0 -21.75 81.75" fill="#e58508" fill-rule="evenodd" stroke="none"/>
    <path d="M-90.4 51.0 Q-94.15 48.25 -91.9 39.25 L-91.4 35.35 -89.4 32.0 -75.4 12.0 -68.65 3.75 -62.25 -4.9 -55.9 -11.9 -52.15 -16.65 -46.75 -21.65 Q-17.5 -63.25 -1.25 -64.4 5.5 -65.5 19.6 -53.25 L28.25 -44.5 35.1 -36.15 46.1 -21.4 49.25 -18.75 57.75 -9.65 72.35 7.6 85.75 25.35 Q89.1 29.75 88.35 30.85 92.75 39.75 86.0 49.1 73.85 60.1 67.1 60.5 L62.0 61.75 60.85 61.85 59.6 62.25 53.75 63.35 49.1 62.35 48.75 62.35 48.85 61.1 49.6 59.75 50.25 56.35 51.6 54.75 56.1 47.0 56.6 46.75 63.0 35.5 64.25 34.25 70.25 25.75 70.6 25.35 73.6 25.25 76.0 26.1 69.75 19.6 69.25 18.6 56.1 5.1 55.6 4.1 41.0 -11.9 Q40.0 1.35 49.5 8.85 L59.5 18.75 60.25 19.35 63.1 22.35 63.1 23.5 61.75 30.6 Q59.0 37.6 53.6 42.5 L58.75 41.0 58.35 41.6 58.25 41.85 56.6 44.5 54.5 45.25 45.85 49.75 36.0 56.0 28.75 62.0 27.1 63.85 26.6 61.5 27.75 58.75 26.6 59.75 Q20.5 66.25 21.35 77.6 -1.15 85.25 -22.15 77.25 -21.75 65.5 -29.0 58.6 -26.9 61.35 -28.25 63.85 L-32.4 59.6 -37.25 55.85 -47.15 49.6 -59.25 43.6 Q-65.45 41.5 -66.75 42.1 L-65.4 41.1 -63.15 40.85 -60.65 40.75 -53.75 42.85 -55.65 41.1 -60.5 34.6 -63.15 28.85 -59.15 23.25 -58.65 21.75 -58.65 19.75 -48.5 9.0 -41.9 0.85 Q-39.65 -1.75 -38.9 -7.4 L-40.15 -12.65 -52.9 2.6 -53.25 3.5 -66.4 18.6 -66.0 18.6 -61.65 17.6 -60.65 17.75 -60.4 18.1 -59.65 19.85 -64.5 26.1 -71.65 33.85 -76.15 39.5 -80.75 44.1 -86.75 48.85 -90.4 51.0 M-19.9 -2.15 L-19.9 -6.15 -20.75 -6.25 -19.9 10.5 -19.25 12.85 -19.5 14.0 -19.0 22.1 -18.65 22.35 -12.0 41.1 -11.5 41.25 -7.15 46.25 0.1 47.75 7.25 46.25 12.0 41.1 19.0 22.25 19.85 9.6 18.85 -0.65 18.5 3.0 17.6 6.25 Q15.5 16.35 3.25 20.0 L0.85 20.25 Q-8.15 23.0 -16.4 10.5 L-17.4 8.75 -17.9 7.1 -18.0 6.85 -19.25 2.6 -19.9 -2.15" fill="#cecece" fill-opacity="0.0" fill-rule="evenodd" stroke="none"/>
    <path d="M67.1 60.5 L66.25 61.85 47.6 83.35 40.1 91.0 34.1 95.5 28.6 98.6 27.35 98.85 26.75 98.35 23.1 94.6 21.1 91.85 19.85 87.85 19.75 83.1 17.5 84.1 -0.15 87.25 -17.75 84.1 -20.9 82.6 -21.0 88.6 -21.9 90.5 -22.0 91.0 -22.15 91.35 -22.25 91.5 -22.75 92.85 -24.65 95.0 -25.0 95.5 -28.4 98.85 -29.9 98.35 -35.25 95.25 -41.4 90.75 -53.0 78.6 -62.75 67.5 -70.75 56.85 -73.15 52.5 -73.4 50.85 -69.9 45.1 -67.0 42.25 -66.75 42.1 Q-65.45 41.5 -59.25 43.6 L-47.15 49.6 -37.25 55.85 -32.4 59.6 -28.25 63.85 Q-26.9 61.35 -29.0 58.6 -21.75 65.5 -22.15 77.25 -1.15 85.25 21.35 77.6 20.5 66.25 26.6 59.75 L27.75 58.75 26.6 61.5 27.1 63.85 28.75 62.0 36.0 56.0 45.85 49.75 54.5 45.25 56.6 44.5 58.25 41.85 58.35 41.6 58.75 41.0 53.6 42.5 Q59.0 37.6 61.75 30.6 L63.1 23.5 63.5 28.75 62.75 34.6 64.0 33.5 68.35 27.1 63.25 22.35 63.1 22.35 60.25 19.35 59.5 18.75 49.5 8.85 Q40.0 1.35 41.0 -11.9 L55.6 4.1 56.1 5.1 69.25 18.6 69.75 19.6 76.0 26.1 73.6 25.25 70.6 25.35 70.25 25.75 64.25 34.25 63.0 35.5 56.6 46.75 56.1 47.0 51.6 54.75 50.25 56.35 49.6 59.75 48.85 61.1 48.75 62.35 49.1 62.35 53.75 63.35 59.6 62.25 60.85 61.85 62.0 61.75 67.1 60.5 M-63.15 40.85 L-64.25 31.0 -64.4 31.0 Q-83.5 54.5 -90.4 51.0 L-86.75 48.85 -80.75 44.1 -76.15 39.5 -71.65 33.85 -64.5 26.1 -59.65 19.85 -60.4 18.1 -60.65 17.75 -61.65 17.6 -66.0 18.6 -66.4 18.6 -53.25 3.5 -52.9 2.6 -40.15 -12.65 -38.9 -7.4 Q-39.65 -1.75 -41.9 0.85 L-48.5 9.0 -58.65 19.75 -58.65 21.75 -59.15 23.25 -63.15 28.85 -60.5 34.6 -55.65 41.1 -53.75 42.85 -60.65 40.75 -63.15 40.85 M-19.9 -2.15 L-19.25 2.6 -18.0 6.85 -17.9 7.1 -17.4 8.75 -16.4 10.5 Q-8.15 23.0 0.85 20.25 L3.25 20.0 Q15.5 16.35 17.6 6.25 L18.5 3.0 18.85 -0.65 19.85 9.6 19.0 22.25 12.0 41.1 7.25 46.25 0.1 47.75 -7.15 46.25 -11.5 41.25 -12.0 41.1 -18.65 22.35 -19.0 22.1 -19.5 14.0 -19.25 12.85 -19.9 10.5 -20.75 -6.25 -19.9 -6.15 -19.9 -2.15" fill="#000000" fill-opacity="0.49803922" fill-rule="evenodd" stroke="none"/>
  </g>
</svg>
