<?xml version="1.0" encoding="UTF-8" standalone="no"?>
<svg xmlns:ffdec="https://www.free-decompiler.com/flash" xmlns:xlink="http://www.w3.org/1999/xlink" ffdec:objectType="shape" height="163.5px" width="181.2px" xmlns="http://www.w3.org/2000/svg">
  <g transform="matrix(1.0, 0.0, 0.0, 1.0, 91.5, 64.5)">
    <path d="M-12.75 -16.25 L-15.25 -20.25 -15.25 -25.0 -10.25 -27.0 -1.5 -26.75 -0.25 -26.25 0.0 -26.5 0.75 -26.75 6.75 -27.5 Q13.75 -26.5 14.25 -25.0 L14.25 -20.5 12.0 -16.75 Q9.5 -12.0 -0.25 -15.5 L-7.25 -13.75 Q-13.0 -14.5 -12.75 -16.25 M17.5 6.5 L22.0 16.75 23.75 23.5 29.75 34.75 Q32.75 39.5 38.75 43.75 L41.5 48.75 33.25 53.75 28.5 57.75 24.5 62.5 22.25 68.0 Q21.75 82.0 19.75 83.25 4.5 91.75 -21.75 81.75 L-22.25 70.0 -25.5 61.75 -30.5 56.75 -38.0 51.5 -28.75 35.75 -25.0 26.75 -22.25 17.5 -17.75 8.25 -17.5 8.25 Q-8.25 24.0 1.0 20.25 L2.5 20.25 3.25 20.0 Q14.0 18.25 17.5 6.5 M-3.5 -19.0 L-4.75 -19.75 -6.75 -20.5 -8.0 -20.0 -9.0 -18.75 -9.5 -17.5 -7.75 -15.75 -4.5 -15.75 -3.5 -17.25 -3.5 -19.0 M5.75 -20.5 L5.25 -20.25 4.5 -20.0 4.0 -19.75 3.75 -19.5 Q1.75 -19.25 3.75 -15.75 L7.0 -15.75 Q8.75 -17.5 8.25 -19.5 L7.0 -20.0 6.75 -20.0 5.75 -20.5" fill="#ffffff" fill-rule="evenodd" stroke="none"/>
    <path d="M5.75 -20.5 L6.75 -20.0 7.0 -20.0 8.25 -19.5 Q8.75 -17.5 7.0 -15.75 L3.75 -15.75 Q1.75 -19.25 3.75 -19.5 L4.0 -19.75 4.5 -20.0 5.25 -20.25 5.75 -20.5 M-3.5 -19.0 L-3.5 -17.25 -4.5 -15.75 -7.75 -15.75 -9.5 -17.5 -9.0 -18.75 -8.0 -20.0 -6.75 -20.5 -4.75 -19.75 -3.5 -19.0" fill="#000000" fill-rule="evenodd" stroke="none"/>
    <path d="M12.0 -16.75 Q14.0 -16.05 15.5 -14.5 L18.5 -10.25 19.25 -2.5 17.5 6.5 Q14.0 18.25 3.25 20.0 L2.5 20.25 1.0 20.25 Q-8.25 24.0 -17.5 8.25 L-17.75 8.25 Q-24.75 -12.0 -12.75 -16.25 -13.0 -14.5 -7.25 -13.75 L-0.25 -15.5 Q9.5 -12.0 12.0 -16.75 M41.5 48.75 L46.5 45.75 56.5 41.75 56.25 42.25 56.0 42.5 55.75 43.0 53.75 45.75 53.25 46.25 47.5 55.75 Q45.5 56.25 46.25 61.5 L51.75 62.75 59.5 61.75 68.0 59.5 63.25 66.0 47.25 84.25 38.25 92.75 30.75 97.75 27.0 99.0 22.5 94.25 20.0 89.25 19.75 83.25 Q21.75 82.0 22.25 68.0 L24.5 62.5 28.5 57.75 33.25 53.75 41.5 48.75 M-21.75 81.75 L-21.75 84.75 -25.25 93.25 -31.0 98.25 -44.5 89.0 -50.25 82.25 -51.0 81.5 -51.0 81.25 -52.5 79.75 -53.25 78.75 -58.5 73.0 -71.0 56.25 -71.0 56.0 -71.75 55.25 -73.25 53.25 -73.25 50.25 -69.75 44.75 Q-65.5 40.25 -63.25 40.75 -60.5 39.75 -54.0 42.5 L-38.0 51.5 -30.5 56.75 -25.5 61.75 -22.25 70.0 -21.75 81.75" fill="#e58508" fill-rule="evenodd" stroke="none"/>
    <path d="M-89.15 51.75 Q-91.25 51.0 -91.5 47.0 L-90.9 40.25 Q-91.4 39.6 -90.25 35.6 L-75.75 13.75 -62.4 -4.15 -51.5 -17.15 -47.15 -20.9 -46.75 -21.65 Q-17.5 -63.25 -1.25 -64.4 5.5 -65.5 19.6 -53.25 L28.25 -44.5 35.1 -36.15 46.25 -21.15 48.5 -19.4 56.25 -11.15 70.5 5.6 84.85 24.6 Q89.1 29.85 88.35 31.25 L88.5 31.5 88.5 31.6 Q94.85 50.5 67.75 59.75 L52.25 62.5 51.75 62.5 46.6 61.35 46.1 61.1 46.5 60.1 46.5 60.0 47.25 58.75 48.1 55.35 55.1 45.75 61.85 35.35 63.35 34.0 70.1 25.6 73.0 25.5 75.75 26.5 69.5 19.85 68.85 18.75 56.0 5.35 40.85 -11.75 Q39.1 0.5 49.85 9.5 L60.5 20.1 60.85 20.5 63.1 22.6 63.1 23.5 61.75 30.6 Q59.0 37.6 53.6 42.5 L56.85 41.35 56.85 41.5 54.25 45.5 54.0 45.75 45.85 49.75 36.0 56.0 28.75 62.0 27.1 63.85 26.6 61.5 27.75 58.75 26.6 59.75 Q20.5 66.25 21.35 77.6 -1.15 85.25 -22.15 77.25 -21.75 65.5 -29.0 58.6 -26.9 61.35 -28.25 63.85 L-32.4 59.6 -37.25 55.85 -47.15 49.6 -59.25 43.6 Q-65.45 41.5 -66.75 42.1 L-65.4 41.1 -63.15 40.85 -60.65 40.75 -53.75 42.85 -55.25 41.6 -60.4 35.1 -62.25 30.85 -57.75 24.5 Q-56.75 23.5 -57.75 19.85 L-46.9 7.85 -44.5 4.5 -42.9 2.85 -40.0 -2.0 -39.0 -7.4 Q-40.0 -9.25 -40.15 -12.25 L-52.65 3.25 -53.15 4.35 -66.25 19.75 -60.9 18.85 -59.25 19.1 -58.25 21.0 -58.5 21.5 -62.9 27.1 -68.75 33.5 -69.5 34.75 -69.9 34.75 -74.4 40.35 -79.25 45.1 -85.65 50.1 -89.15 51.75 M-19.9 -2.15 L-19.9 -6.15 -20.75 -6.25 -19.9 10.5 -19.25 12.85 -19.5 14.0 -19.0 22.1 -18.65 22.35 -12.0 41.1 -11.5 41.25 -7.15 46.25 0.1 47.75 7.25 46.25 12.0 41.1 19.0 22.25 19.85 9.6 18.85 -0.65 18.5 3.0 17.6 6.25 Q15.5 16.35 3.25 20.0 L0.85 20.25 Q-8.15 23.0 -16.4 10.5 L-17.4 8.75 -17.9 7.1 -18.0 6.85 -19.25 2.6 -19.9 -2.15" fill="#cecece" fill-opacity="0.0" fill-rule="evenodd" stroke="none"/>
    <path d="M67.75 59.75 L57.0 73.1 40.1 91.0 34.1 95.5 28.6 98.6 27.35 98.85 26.75 98.35 23.1 94.6 21.1 91.85 19.85 87.85 19.75 83.1 17.5 84.1 -0.15 87.25 -17.75 84.1 -20.9 82.6 -21.0 88.6 -21.9 90.5 -22.0 91.0 -22.15 91.35 -22.25 91.5 -22.75 92.85 -24.65 95.0 -25.0 95.5 -28.4 98.85 -29.9 98.35 -35.25 95.25 -41.4 90.75 -53.0 78.6 -62.75 67.5 -70.75 56.85 -73.15 52.5 -73.4 50.85 -69.9 45.1 -67.0 42.25 -66.75 42.1 Q-65.45 41.5 -59.25 43.6 L-47.15 49.6 -37.25 55.85 -32.4 59.6 -28.25 63.85 Q-26.9 61.35 -29.0 58.6 -21.75 65.5 -22.15 77.25 -1.15 85.25 21.35 77.6 20.5 66.25 26.6 59.75 L27.75 58.75 26.6 61.5 27.1 63.85 28.75 62.0 36.0 56.0 45.85 49.75 54.0 45.75 54.25 45.5 56.85 41.5 56.85 41.35 53.6 42.5 Q59.0 37.6 61.75 30.6 L63.1 23.5 63.5 28.75 62.85 33.35 65.1 31.1 68.0 27.25 63.1 22.6 60.85 20.5 60.5 20.1 49.85 9.5 Q39.1 0.5 40.85 -11.75 L56.0 5.35 68.85 18.75 69.5 19.85 75.75 26.5 73.0 25.5 70.1 25.6 63.35 34.0 61.85 35.35 55.1 45.75 48.1 55.35 47.25 58.75 46.5 60.0 46.5 60.1 46.1 61.1 46.6 61.35 51.75 62.5 52.25 62.5 67.75 59.75 M-63.15 40.85 L-64.15 33.25 Q-82.15 55.0 -89.15 51.75 L-85.65 50.1 -79.25 45.1 -74.4 40.35 -69.9 34.75 -69.5 34.75 -68.75 33.5 -62.9 27.1 -58.5 21.5 -58.25 21.0 -59.25 19.1 -60.9 18.85 -66.25 19.75 -53.15 4.35 -52.65 3.25 -40.15 -12.25 Q-40.0 -9.25 -39.0 -7.4 L-40.0 -2.0 -42.9 2.85 -44.5 4.5 -46.9 7.85 -57.75 19.85 Q-56.75 23.5 -57.75 24.5 L-62.25 30.85 -60.4 35.1 -55.25 41.6 -53.75 42.85 -60.65 40.75 -63.15 40.85 M-19.9 -2.15 L-19.25 2.6 -18.0 6.85 -17.9 7.1 -17.4 8.75 -16.4 10.5 Q-8.15 23.0 0.85 20.25 L3.25 20.0 Q15.5 16.35 17.6 6.25 L18.5 3.0 18.85 -0.65 19.85 9.6 19.0 22.25 12.0 41.1 7.25 46.25 0.1 47.75 -7.15 46.25 -11.5 41.25 -12.0 41.1 -18.65 22.35 -19.0 22.1 -19.5 14.0 -19.25 12.85 -19.9 10.5 -20.75 -6.25 -19.9 -6.15 -19.9 -2.15" fill="#000000" fill-opacity="0.49803922" fill-rule="evenodd" stroke="none"/>
  </g>
</svg>
