<?xml version="1.0" encoding="UTF-8" standalone="no"?>
<svg xmlns:ffdec="https://www.free-decompiler.com/flash" xmlns:xlink="http://www.w3.org/1999/xlink" ffdec:objectType="shape" height="163.5px" width="178.15px" xmlns="http://www.w3.org/2000/svg">
  <g transform="matrix(1.0, 0.0, 0.0, 1.0, 88.55, 64.5)">
    <path d="M-12.75 -16.25 L-15.25 -20.25 -15.25 -25.0 -10.25 -27.0 -1.5 -26.75 -0.25 -26.25 0.0 -26.5 0.75 -26.75 6.75 -27.5 Q13.75 -26.5 14.25 -25.0 L14.25 -20.5 12.0 -16.75 Q9.5 -12.0 -0.25 -15.5 L-7.25 -13.75 Q-13.0 -14.5 -12.75 -16.25 M17.5 6.5 L22.0 16.75 23.75 23.5 29.75 34.75 Q32.75 39.5 38.75 43.75 L41.5 48.75 33.25 53.75 28.5 57.75 24.5 62.5 22.25 68.0 Q21.75 82.0 19.75 83.25 4.5 91.75 -21.75 81.75 L-22.25 70.0 -25.5 61.75 -30.5 56.75 -38.0 51.5 -28.75 35.75 -25.0 26.75 -22.25 17.5 -17.75 8.25 -17.5 8.25 Q-8.25 24.0 1.0 20.25 L2.5 20.25 3.25 20.0 Q14.0 18.25 17.5 6.5 M-3.5 -19.0 L-4.75 -19.75 -6.75 -20.5 -8.0 -20.0 -9.0 -18.75 -9.5 -17.5 -7.75 -15.75 -4.5 -15.75 -3.5 -17.25 -3.5 -19.0 M5.75 -20.5 L5.25 -20.25 4.5 -20.0 4.0 -19.75 3.75 -19.5 Q1.75 -19.25 3.75 -15.75 L7.0 -15.75 Q8.75 -17.5 8.25 -19.5 L7.0 -20.0 6.75 -20.0 5.75 -20.5" fill="#ffffff" fill-rule="evenodd" stroke="none"/>
    <path d="M5.75 -20.5 L6.75 -20.0 7.0 -20.0 8.25 -19.5 Q8.75 -17.5 7.0 -15.75 L3.75 -15.75 Q1.75 -19.25 3.75 -19.5 L4.0 -19.75 4.5 -20.0 5.25 -20.25 5.75 -20.5 M-3.5 -19.0 L-3.5 -17.25 -4.5 -15.75 -7.75 -15.75 -9.5 -17.5 -9.0 -18.75 -8.0 -20.0 -6.75 -20.5 -4.75 -19.75 -3.5 -19.0" fill="#000000" fill-rule="evenodd" stroke="none"/>
    <path d="M12.0 -16.75 Q14.0 -16.05 15.5 -14.5 L18.5 -10.25 19.25 -2.5 17.5 6.5 Q14.0 18.25 3.25 20.0 L2.5 20.25 1.0 20.25 Q-8.25 24.0 -17.5 8.25 L-17.75 8.25 Q-24.75 -12.0 -12.75 -16.25 -13.0 -14.5 -7.25 -13.75 L-0.25 -15.5 Q9.5 -12.0 12.0 -16.75 M41.5 48.75 L48.75 45.0 42.25 52.75 Q40.5 54.0 40.75 58.25 L46.25 60.0 56.25 60.0 68.75 58.25 59.75 70.25 46.75 84.75 37.5 93.25 30.0 98.0 27.0 99.0 22.0 93.5 19.75 88.0 19.75 83.25 Q21.75 82.0 22.25 68.0 L24.5 62.5 28.5 57.75 33.25 53.75 41.5 48.75 M-21.75 81.75 L-21.75 84.75 -25.25 93.25 -31.0 98.25 -44.5 89.0 -50.25 82.25 -51.0 81.5 -51.0 81.25 -52.5 79.75 -53.25 78.75 -58.5 73.0 -71.0 56.25 -71.0 56.0 -71.75 55.25 -73.5 52.75 Q-74.0 50.75 -71.5 47.5 L-64.25 40.75 -63.25 40.75 Q-60.5 39.75 -54.0 42.5 L-38.0 51.5 -30.5 56.75 -25.5 61.75 -22.25 70.0 -21.75 81.75" fill="#e58508" fill-rule="evenodd" stroke="none"/>
    <path d="M-85.15 53.35 L-85.75 53.25 Q-87.65 52.85 -88.5 48.35 L-88.15 41.85 Q-90.65 37.6 -76.5 18.0 L-62.4 -2.65 -51.75 -16.4 -46.75 -21.5 Q-17.5 -63.4 -1.25 -64.4 5.5 -65.5 19.6 -53.25 L28.25 -44.5 35.1 -36.15 46.35 -21.0 50.1 -17.65 58.35 -8.4 72.85 9.5 85.25 26.6 Q89.0 32.25 88.5 33.5 89.35 34.85 89.6 38.0 L88.75 46.1 82.1 52.85 71.35 57.5 68.85 58.1 64.35 59.0 57.25 59.35 56.5 59.5 46.0 59.75 41.35 58.25 40.5 57.85 40.85 56.6 41.85 55.25 42.85 52.35 50.25 45.0 59.6 34.5 50.1 44.25 49.5 45.0 43.0 51.6 36.0 56.0 32.1 59.0 27.1 63.85 26.6 61.5 27.75 58.75 26.6 59.75 Q20.5 66.25 21.35 77.6 -1.15 85.25 -22.15 77.25 -21.75 65.5 -29.0 58.6 -26.9 61.35 -28.25 63.85 -47.5 46.1 -65.25 42.1 L-64.25 41.0 -64.15 41.0 -64.15 40.85 -63.15 40.85 -60.65 40.75 -53.75 42.85 -55.15 41.75 -59.9 35.75 Q-49.65 26.25 -55.5 22.75 L-54.15 24.85 -54.4 25.35 -58.25 30.5 -63.5 35.75 -68.5 41.5 -75.0 47.75 Q-82.85 53.3 -85.15 53.35 M-39.15 -6.15 L-40.25 -10.75 -51.65 4.35 -52.5 6.1 -65.25 21.75 -65.65 22.6 -62.9 22.75 -57.75 22.5 -46.5 9.25 -40.25 -0.25 -39.15 -6.15 M67.0 27.85 L69.0 26.25 Q71.75 25.5 74.35 27.1 L56.5 7.1 55.25 6.1 54.35 4.6 44.1 -6.75 40.5 -11.4 Q38.1 0.35 49.75 10.35 L50.5 11.1 50.6 11.35 62.85 24.0 61.75 30.6 60.0 34.0 60.75 33.5 61.35 32.85 61.6 32.75 62.25 32.1 62.6 31.85 63.1 31.35 63.1 31.25 63.6 31.0 67.0 28.0 67.0 27.85 M-19.9 -2.15 L-19.9 -6.15 -20.75 -6.25 -19.9 10.5 -19.25 12.85 -19.5 14.0 -19.0 22.1 -18.65 22.35 -12.0 41.1 -11.5 41.25 -7.15 46.25 0.1 47.75 7.25 46.25 12.0 41.1 19.0 22.25 19.85 9.6 18.85 -0.65 18.5 3.0 17.6 6.25 Q15.5 16.35 3.25 20.0 L0.85 20.25 Q-8.15 23.0 -16.4 10.5 L-17.4 8.75 -17.9 7.1 -18.0 6.85 -19.25 2.6 -19.9 -2.15" fill="#cecece" fill-opacity="0.0" fill-rule="evenodd" stroke="none"/>
    <path d="M68.85 58.1 L57.0 73.1 40.1 91.0 34.1 95.5 28.6 98.6 27.35 98.85 26.75 98.35 23.1 94.6 21.1 91.85 19.85 87.85 19.75 83.1 17.5 84.1 -0.15 87.25 -17.75 84.1 -20.9 82.6 -21.0 88.6 -21.9 90.5 -22.0 91.0 -22.15 91.35 -22.25 91.5 -22.75 92.85 -24.65 95.0 -25.0 95.5 -28.4 98.85 -29.9 98.35 -35.25 95.25 -41.4 90.75 -53.0 78.6 -62.75 67.5 -70.75 56.85 -73.15 52.5 -73.4 50.85 -71.75 47.85 -79.4 52.85 Q-82.45 53.75 -85.15 53.35 -82.85 53.3 -75.0 47.75 L-68.5 41.5 -63.5 35.75 -58.25 30.5 -54.4 25.35 -54.15 24.85 -55.5 22.75 Q-49.65 26.25 -59.9 35.75 L-55.15 41.75 -53.75 42.85 -60.65 40.75 -63.15 40.85 -63.4 40.1 -64.15 40.85 -64.25 41.0 -65.25 42.1 Q-47.5 46.1 -28.25 63.85 -26.9 61.35 -29.0 58.6 -21.75 65.5 -22.15 77.25 -1.15 85.25 21.35 77.6 20.5 66.25 26.6 59.75 L27.75 58.75 26.6 61.5 27.1 63.85 32.1 59.0 36.0 56.0 43.0 51.6 49.5 45.0 50.1 44.25 59.6 34.5 50.25 45.0 42.85 52.35 41.85 55.25 40.85 56.6 40.5 57.85 41.35 58.25 46.0 59.75 56.5 59.5 57.25 59.35 64.35 59.0 68.85 58.1 M-39.15 -6.15 L-40.25 -0.25 -46.5 9.25 -57.75 22.5 -62.9 22.75 -65.65 22.6 -65.25 21.75 -52.5 6.1 -51.65 4.35 -40.25 -10.75 -39.15 -6.15 M-19.9 -2.15 L-19.25 2.6 -18.0 6.85 -17.9 7.1 -17.4 8.75 -16.4 10.5 Q-8.15 23.0 0.85 20.25 L3.25 20.0 Q15.5 16.35 17.6 6.25 L18.5 3.0 18.85 -0.65 19.85 9.6 19.0 22.25 12.0 41.1 7.25 46.25 0.1 47.75 -7.15 46.25 -11.5 41.25 -12.0 41.1 -18.65 22.35 -19.0 22.1 -19.5 14.0 -19.25 12.85 -19.9 10.5 -20.75 -6.25 -19.9 -6.15 -19.9 -2.15 M63.1 31.25 L63.1 31.35 62.6 31.85 62.25 32.1 61.6 32.75 61.35 32.85 60.75 33.5 60.0 34.0 61.75 30.6 62.85 24.0 50.6 11.35 50.5 11.1 49.75 10.35 Q38.1 0.35 40.5 -11.4 L44.1 -6.75 54.35 4.6 55.25 6.1 56.5 7.1 74.35 27.1 Q71.75 25.5 69.0 26.25 L67.0 27.85 63.35 24.35 63.1 24.25 63.5 27.6 63.1 31.25" fill="#000000" fill-opacity="0.49803922" fill-rule="evenodd" stroke="none"/>
  </g>
</svg>
