<?xml version="1.0" encoding="UTF-8" standalone="no"?>
<svg xmlns:ffdec="https://www.free-decompiler.com/flash" xmlns:xlink="http://www.w3.org/1999/xlink" ffdec:objectType="shape" height="163.5px" width="177.5px" xmlns="http://www.w3.org/2000/svg">
  <g transform="matrix(1.0, 0.0, 0.0, 1.0, 88.05, 64.5)">
    <path d="M-12.75 -16.25 L-15.25 -20.25 -15.25 -25.0 -10.25 -27.0 -1.5 -26.75 -0.25 -26.25 0.0 -26.5 0.75 -26.75 6.75 -27.5 Q13.75 -26.5 14.25 -25.0 L14.25 -20.5 12.0 -16.75 Q9.5 -12.0 -0.25 -15.5 L-7.25 -13.75 Q-13.0 -14.5 -12.75 -16.25 M17.5 6.5 L22.0 16.75 23.75 23.5 29.75 34.75 Q32.75 39.5 38.75 43.75 L41.5 48.75 33.25 53.75 28.5 57.75 24.5 62.5 22.25 68.0 Q21.75 82.0 19.75 83.25 4.5 91.75 -21.75 81.75 L-22.25 70.0 -25.5 61.75 -30.5 56.75 -38.0 51.5 -28.75 35.75 -25.0 26.75 -22.25 17.5 -17.75 8.25 -17.5 8.25 Q-8.25 24.0 1.0 20.25 L2.5 20.25 3.25 20.0 Q14.0 18.25 17.5 6.5 M-3.5 -19.0 L-4.75 -19.75 -6.75 -20.5 -8.0 -20.0 -9.0 -18.75 -9.5 -17.5 -7.75 -15.75 -4.5 -15.75 -3.5 -17.25 -3.5 -19.0 M5.75 -20.5 L5.25 -20.25 4.5 -20.0 4.0 -19.75 3.75 -19.5 Q1.75 -19.25 3.75 -15.75 L7.0 -15.75 Q8.75 -17.5 8.25 -19.5 L7.0 -20.0 6.75 -20.0 5.75 -20.5" fill="#ffffff" fill-rule="evenodd" stroke="none"/>
    <path d="M5.75 -20.5 L6.75 -20.0 7.0 -20.0 8.25 -19.5 Q8.75 -17.5 7.0 -15.75 L3.75 -15.75 Q1.75 -19.25 3.75 -19.5 L4.0 -19.75 4.5 -20.0 5.25 -20.25 5.75 -20.5 M-3.5 -19.0 L-3.5 -17.25 -4.5 -15.75 -7.75 -15.75 -9.5 -17.5 -9.0 -18.75 -8.0 -20.0 -6.75 -20.5 -4.75 -19.75 -3.5 -19.0" fill="#000000" fill-rule="evenodd" stroke="none"/>
    <path d="M12.0 -16.75 Q14.0 -16.05 15.5 -14.5 L18.5 -10.25 19.25 -2.5 17.5 6.5 Q14.0 18.25 3.25 20.0 L2.5 20.25 1.0 20.25 Q-8.25 24.0 -17.5 8.25 L-17.75 8.25 Q-24.75 -12.0 -12.75 -16.25 -13.0 -14.5 -7.25 -13.75 L-0.25 -15.5 Q9.5 -12.0 12.0 -16.75 M41.5 48.75 L45.25 46.75 41.0 51.25 Q35.0 58.25 44.75 58.75 L55.75 59.25 69.0 58.0 64.25 64.75 47.25 84.25 38.25 92.75 30.75 97.75 27.0 99.0 22.5 94.25 20.0 89.25 19.75 83.25 Q21.75 82.0 22.25 68.0 L24.5 62.5 28.5 57.75 33.25 53.75 41.5 48.75 M-21.75 81.75 L-21.75 84.75 -25.25 93.25 -31.0 98.25 -44.5 89.0 -50.25 82.25 -51.0 81.5 -51.0 81.25 -52.5 79.75 -53.25 78.75 -58.5 73.0 -71.0 56.25 -71.0 56.0 -71.75 55.25 -73.5 52.75 -72.75 49.5 -69.5 47.5 -62.5 40.75 Q-58.25 40.25 -54.0 42.5 L-38.0 51.5 -30.5 56.75 -25.5 61.75 -22.25 70.0 -21.75 81.75" fill="#e58508" fill-rule="evenodd" stroke="none"/>
    <path d="M-84.9 53.5 Q-86.65 53.35 -87.9 48.5 L-87.65 42.0 Q-90.25 37.6 -75.65 17.1 L-62.15 -2.75 -52.75 -15.0 -46.75 -21.5 Q-17.5 -63.4 -1.25 -64.4 5.5 -65.5 19.6 -53.25 L28.25 -44.5 44.35 -24.0 46.35 -20.9 49.25 -18.5 60.0 -6.4 72.35 9.25 85.0 26.85 Q89.35 33.1 88.5 34.5 90.5 36.35 88.35 47.1 L81.35 53.5 69.0 57.85 62.25 58.75 44.75 58.6 38.85 56.5 39.35 55.25 40.25 54.1 41.35 51.25 49.6 43.75 49.75 43.25 57.85 35.35 40.35 51.6 39.5 53.85 32.1 59.0 27.1 63.85 26.6 61.5 27.75 58.75 26.6 59.75 Q20.5 66.25 21.35 77.6 -1.15 85.25 -22.15 77.25 -21.75 65.5 -29.0 58.6 -26.9 61.35 -28.25 63.85 -48.25 46.0 -63.75 42.35 L-62.25 40.75 -59.4 41.0 -53.75 42.85 -55.25 41.6 -59.0 37.0 Q-48.25 27.35 -54.25 23.75 L-52.65 26.0 -57.15 31.75 -62.0 36.35 -64.0 38.85 -64.75 39.25 -69.0 44.0 -73.9 48.25 -81.75 53.0 -82.4 53.0 -84.9 53.5 M66.5 28.1 L68.75 26.5 Q71.75 25.75 73.6 27.25 L68.35 21.5 67.6 20.1 54.35 5.6 40.25 -11.25 Q37.75 0.35 49.75 10.85 L50.85 12.0 51.25 12.35 54.0 15.25 54.1 15.5 62.75 24.35 62.85 24.6 61.75 30.6 60.5 32.85 62.25 31.6 63.1 30.85 66.5 28.1 M-19.9 -2.15 L-19.9 -6.15 -20.75 -6.25 -19.9 10.5 -19.25 12.85 -19.5 14.0 -19.0 22.1 -18.65 22.35 -12.0 41.1 -11.5 41.25 -7.15 46.25 0.1 47.75 7.25 46.25 12.0 41.1 19.0 22.25 19.85 9.6 18.85 -0.65 18.5 3.0 17.6 6.25 Q15.5 16.35 3.25 20.0 L0.85 20.25 Q-8.15 23.0 -16.4 10.5 L-17.4 8.75 -17.9 7.1 -18.0 6.85 -19.25 2.6 -19.9 -2.15 M-39.15 -5.15 L-40.25 -10.5 -52.0 5.35 -52.4 6.35 -65.25 22.35 -65.5 23.1 -58.25 23.5 -46.0 8.85 -40.4 0.25 -39.15 -5.15" fill="#cecece" fill-opacity="0.0" fill-rule="evenodd" stroke="none"/>
    <path d="M69.0 57.85 L61.85 67.35 47.6 83.35 40.1 91.0 34.1 95.5 28.6 98.6 27.35 98.85 26.75 98.35 23.1 94.6 21.1 91.85 19.85 87.85 19.75 83.1 17.5 84.1 -0.15 87.25 -17.75 84.1 -20.9 82.6 -21.0 88.6 -21.9 90.5 -22.0 91.0 -22.15 91.35 -22.25 91.5 -22.75 92.85 -24.65 95.0 -25.0 95.5 -28.4 98.85 -29.9 98.35 -35.25 95.25 -41.4 90.75 -53.0 78.6 -62.75 67.5 -70.75 56.85 -73.15 52.5 -73.4 50.85 -72.75 49.75 -73.0 49.75 -78.65 53.1 -84.9 53.5 -82.4 53.0 -81.75 53.0 -73.9 48.25 -69.0 44.0 -64.75 39.25 -64.0 38.85 -62.0 36.35 -57.15 31.75 -52.65 26.0 -54.25 23.75 Q-48.25 27.35 -59.0 37.0 L-55.25 41.6 -53.75 42.85 -59.4 41.0 -62.25 40.75 -63.75 42.35 Q-48.25 46.0 -28.25 63.85 -26.9 61.35 -29.0 58.6 -21.75 65.5 -22.15 77.25 -1.15 85.25 21.35 77.6 20.5 66.25 26.6 59.75 L27.75 58.75 26.6 61.5 27.1 63.85 32.1 59.0 39.5 53.85 40.35 51.6 57.85 35.35 49.75 43.25 49.6 43.75 41.35 51.25 40.25 54.1 39.35 55.25 38.85 56.5 44.75 58.6 62.25 58.75 69.0 57.85 M-39.15 -5.15 L-40.4 0.25 -46.0 8.85 -58.25 23.5 -65.5 23.1 -65.25 22.35 -52.4 6.35 -52.0 5.35 -40.25 -10.5 -39.15 -5.15 M-19.9 -2.15 L-19.25 2.6 -18.0 6.85 -17.9 7.1 -17.4 8.75 -16.4 10.5 Q-8.15 23.0 0.85 20.25 L3.25 20.0 Q15.5 16.35 17.6 6.25 L18.5 3.0 18.85 -0.65 19.85 9.6 19.0 22.25 12.0 41.1 7.25 46.25 0.1 47.75 -7.15 46.25 -11.5 41.25 -12.0 41.1 -18.65 22.35 -19.0 22.1 -19.5 14.0 -19.25 12.85 -19.9 10.5 -20.75 -6.25 -19.9 -6.15 -19.9 -2.15 M63.1 30.85 L62.25 31.6 60.5 32.85 61.75 30.6 62.85 24.6 62.75 24.35 54.1 15.5 54.0 15.25 51.25 12.35 50.85 12.0 49.75 10.85 Q37.75 0.35 40.25 -11.25 L54.35 5.6 67.6 20.1 68.35 21.5 73.6 27.25 Q71.75 25.75 68.75 26.5 L66.5 28.1 63.35 25.1 63.5 28.75 63.1 30.85" fill="#000000" fill-opacity="0.49803922" fill-rule="evenodd" stroke="none"/>
  </g>
</svg>
