<?xml version="1.0" encoding="UTF-8" standalone="no"?>
<svg xmlns:ffdec="https://www.free-decompiler.com/flash" xmlns:xlink="http://www.w3.org/1999/xlink" ffdec:objectType="shape" height="163.5px" width="176.75px" xmlns="http://www.w3.org/2000/svg">
  <g transform="matrix(1.0, 0.0, 0.0, 1.0, 87.65, 64.5)">
    <path d="M-12.75 -16.25 L-15.25 -20.25 -15.25 -25.0 -10.25 -27.0 -1.5 -26.75 -0.25 -26.25 0.0 -26.5 0.75 -26.75 6.75 -27.5 Q13.75 -26.5 14.25 -25.0 L14.25 -20.5 12.0 -16.75 Q9.5 -12.0 -0.25 -15.5 L-7.25 -13.75 Q-13.0 -14.5 -12.75 -16.25 M17.5 6.5 L22.0 16.75 23.75 23.5 29.75 34.75 Q32.75 39.5 38.75 43.75 L40.25 46.5 38.25 48.25 36.0 52.25 26.25 59.75 23.0 65.5 21.5 73.0 20.75 82.75 19.75 83.25 Q4.5 91.75 -21.75 81.75 L-22.25 70.0 -25.5 61.75 -30.5 56.75 -38.0 51.5 -28.75 35.75 -25.0 26.75 -22.25 17.5 -17.75 8.25 -17.5 8.25 Q-8.25 24.0 1.0 20.25 L2.5 20.25 3.25 20.0 Q14.0 18.25 17.5 6.5 M-3.5 -19.0 L-4.75 -19.75 -6.75 -20.5 -8.0 -20.0 -9.0 -18.75 -9.5 -17.5 -7.75 -15.75 -4.5 -15.75 -3.5 -17.25 -3.5 -19.0 M5.75 -20.5 L5.25 -20.25 4.5 -20.0 4.0 -19.75 3.75 -19.5 Q1.75 -19.25 3.75 -15.75 L7.0 -15.75 Q8.75 -17.5 8.25 -19.5 L7.0 -20.0 6.75 -20.0 5.75 -20.5" fill="#ffffff" fill-rule="evenodd" stroke="none"/>
    <path d="M5.75 -20.5 L6.75 -20.0 7.0 -20.0 8.25 -19.5 Q8.75 -17.5 7.0 -15.75 L3.75 -15.75 Q1.75 -19.25 3.75 -19.5 L4.0 -19.75 4.5 -20.0 5.25 -20.25 5.75 -20.5 M-3.5 -19.0 L-3.5 -17.25 -4.5 -15.75 -7.75 -15.75 -9.5 -17.5 -9.0 -18.75 -8.0 -20.0 -6.75 -20.5 -4.75 -19.75 -3.5 -19.0" fill="#000000" fill-rule="evenodd" stroke="none"/>
    <path d="M12.0 -16.75 Q14.0 -16.05 15.5 -14.5 L18.5 -10.25 19.25 -2.5 17.5 6.5 Q14.0 18.25 3.25 20.0 L2.5 20.25 1.0 20.25 Q-8.25 24.0 -17.5 8.25 L-17.75 8.25 Q-24.75 -12.0 -12.75 -16.25 -13.0 -14.5 -7.25 -13.75 L-0.25 -15.5 Q9.5 -12.0 12.0 -16.75 M36.0 52.25 Q35.25 53.5 39.5 55.5 L51.25 57.5 69.25 57.5 64.25 64.75 50.25 81.0 40.25 91.25 30.75 97.75 27.0 99.0 22.5 94.25 20.0 89.25 19.75 83.25 20.75 82.75 21.5 73.0 23.0 65.5 26.25 59.75 36.0 52.25 M-21.75 81.75 L-21.75 84.75 -25.25 93.25 -31.0 98.25 -44.5 89.0 -50.25 82.25 -51.0 81.5 -51.0 81.25 -52.5 79.75 -53.25 78.75 -58.5 73.0 -71.0 56.25 -71.0 56.0 -71.75 55.25 -73.25 53.25 -73.25 50.75 -67.75 47.75 -59.5 40.75 -50.25 44.25 -38.0 51.5 -30.5 56.75 -25.5 61.75 -22.25 70.0 -21.75 81.75" fill="#e58508" fill-rule="evenodd" stroke="none"/>
    <path d="M-83.9 53.1 Q-88.0 51.75 -87.15 42.1 L-87.65 41.1 -87.15 36.35 -73.5 13.75 -61.65 -3.5 -51.65 -16.5 -46.75 -21.5 Q-17.5 -63.4 -1.25 -64.4 5.5 -65.5 19.6 -53.25 L28.25 -44.5 35.1 -36.15 46.6 -20.65 50.35 -17.15 58.25 -7.9 73.1 11.35 85.25 29.0 87.5 32.85 89.1 41.25 87.6 49.0 86.25 50.35 80.0 54.75 69.5 57.1 69.0 57.25 67.1 57.6 59.6 57.75 42.1 55.75 36.5 53.35 38.25 54.6 31.25 59.75 27.1 63.85 26.6 61.5 27.75 58.75 26.6 59.75 Q20.5 66.25 21.35 77.6 -1.15 85.25 -22.15 77.25 -21.75 65.5 -29.0 58.6 -26.9 61.35 -28.25 63.85 -39.0 52.0 -61.9 42.85 L-59.9 41.0 -53.75 42.85 -55.15 41.75 -57.5 38.6 -50.65 31.35 -50.0 29.6 -50.15 27.6 -50.75 25.5 -52.0 25.1 -50.15 27.6 -54.65 33.0 -67.25 44.85 -72.65 48.75 -80.4 52.75 -83.9 53.1 M65.25 28.75 L68.1 27.0 71.35 27.1 67.0 22.1 66.35 20.85 53.1 5.85 42.6 -6.9 39.85 -10.75 39.0 -5.9 39.1 -4.65 40.75 0.5 Q42.25 1.6 43.75 5.1 L43.85 5.35 62.1 25.35 62.6 26.0 62.0 29.75 61.35 31.1 61.75 31.0 63.25 30.0 65.25 28.75 M-19.9 -2.15 L-19.9 -6.15 -20.75 -6.25 -19.9 10.5 -19.25 12.85 -19.5 14.0 -19.0 22.1 -18.65 22.35 -12.0 41.1 -11.5 41.25 -7.15 46.25 0.1 47.75 7.25 46.25 12.0 41.1 19.0 22.25 19.85 9.6 18.85 -0.65 18.5 3.0 17.6 6.25 Q15.5 16.35 3.25 20.0 L0.85 20.25 Q-8.15 23.0 -16.4 10.5 L-17.4 8.75 -17.9 7.1 -18.0 6.85 -19.25 2.6 -19.9 -2.15 M-39.4 -4.5 L-40.5 -9.9 -52.4 6.1 -52.5 6.75 -65.25 22.5 -65.75 23.6 -58.9 24.25 -45.65 8.25 -40.75 0.85 -39.4 -4.5 M40.75 46.5 L40.35 46.6 40.0 47.0 40.5 47.0 40.75 46.5 M39.5 47.5 L37.5 48.6 36.35 51.75 Q37.1 51.6 38.75 48.0 L39.5 47.5 M49.6 39.6 L49.35 39.85 49.25 40.1 49.75 39.6 49.6 39.6" fill="#cecece" fill-opacity="0.0" fill-rule="evenodd" stroke="none"/>
    <path d="M69.5 57.1 L61.85 67.35 47.6 83.35 40.1 91.0 34.1 95.5 28.6 98.6 27.35 98.85 26.75 98.35 23.1 94.6 21.1 91.85 19.85 87.85 19.75 83.1 17.5 84.1 -0.15 87.25 -17.75 84.1 -20.9 82.6 -21.0 88.6 -21.9 90.5 -22.0 91.0 -22.15 91.35 -22.25 91.5 -22.75 92.85 -24.65 95.0 -25.0 95.5 -28.4 98.85 -29.9 98.35 -35.25 95.25 -41.4 90.75 -48.65 83.35 -62.75 67.5 -70.75 56.85 -73.15 52.5 -73.5 51.0 -77.65 53.0 -83.9 53.1 -80.4 52.75 -72.65 48.75 -67.25 44.85 -54.65 33.0 -50.15 27.6 -52.0 25.1 -50.75 25.5 -50.15 27.6 -50.0 29.6 -50.65 31.35 -57.5 38.6 -55.15 41.75 -53.75 42.85 -59.9 41.0 -61.9 42.85 Q-39.0 52.0 -28.25 63.85 -26.9 61.35 -29.0 58.6 -21.75 65.5 -22.15 77.25 -1.15 85.25 21.35 77.6 20.5 66.25 26.6 59.75 L27.75 58.75 26.6 61.5 27.1 63.85 31.25 59.75 38.25 54.6 36.5 53.35 42.1 55.75 59.6 57.75 67.1 57.6 69.0 57.25 69.5 57.1 M-39.4 -4.5 L-40.75 0.85 -45.65 8.25 -58.9 24.25 -65.75 23.6 -65.25 22.5 -52.5 6.75 -52.4 6.1 -40.5 -9.9 -39.4 -4.5 M-19.9 -2.15 L-19.25 2.6 -18.0 6.85 -17.9 7.1 -17.4 8.75 -16.4 10.5 Q-8.15 23.0 0.85 20.25 L3.25 20.0 Q15.5 16.35 17.6 6.25 L18.5 3.0 18.85 -0.65 19.85 9.6 19.0 22.25 12.0 41.1 7.25 46.25 0.1 47.75 -7.15 46.25 -11.5 41.25 -12.0 41.1 -18.65 22.35 -19.0 22.1 -19.5 14.0 -19.25 12.85 -19.9 10.5 -20.75 -6.25 -19.9 -6.15 -19.9 -2.15 M63.25 30.0 L61.75 31.0 61.35 31.1 62.0 29.75 62.6 26.0 62.1 25.35 43.85 5.35 43.75 5.1 Q42.25 1.6 40.75 0.5 L39.1 -4.65 39.0 -5.9 39.85 -10.75 42.6 -6.9 53.1 5.85 66.35 20.85 67.0 22.1 71.35 27.1 68.1 27.0 65.25 28.75 63.6 27.0 63.5 27.0 63.25 30.0 M40.75 46.5 L40.5 47.0 40.0 47.0 40.35 46.6 40.75 46.5 M49.6 39.6 L49.75 39.6 49.25 40.1 49.35 39.85 49.6 39.6 M39.5 47.5 L38.75 48.0 Q37.1 51.6 36.35 51.75 L37.5 48.6 39.5 47.5" fill="#000000" fill-opacity="0.49803922" fill-rule="evenodd" stroke="none"/>
  </g>
</svg>
