<?xml version="1.0" encoding="UTF-8" standalone="no"?>
<svg xmlns:ffdec="https://www.free-decompiler.com/flash" xmlns:xlink="http://www.w3.org/1999/xlink" ffdec:objectType="shape" height="163.5px" width="176.15px" xmlns="http://www.w3.org/2000/svg">
  <g transform="matrix(1.0, 0.0, 0.0, 1.0, 87.9, 64.5)">
    <path d="M-12.75 -16.25 L-15.25 -20.25 -15.25 -25.0 -10.25 -27.0 -1.5 -26.75 -0.25 -26.25 0.0 -26.5 0.75 -26.75 6.75 -27.5 Q13.75 -26.5 14.25 -25.0 L14.25 -20.5 12.0 -16.75 Q9.5 -12.0 -0.25 -15.5 L-7.25 -13.75 Q-13.0 -14.5 -12.75 -16.25 M17.5 6.5 Q30.25 42.25 37.75 43.0 L36.0 44.25 33.0 48.75 36.5 51.75 26.25 59.75 23.0 65.5 21.5 73.0 20.75 82.75 19.75 83.25 Q4.5 91.75 -21.75 81.75 L-22.25 70.0 -25.5 61.75 -30.5 56.75 -38.0 51.5 -28.75 35.75 -25.0 26.75 -22.25 17.5 -17.75 8.25 -17.5 8.25 Q-8.25 24.0 1.0 20.25 L2.5 20.25 3.25 20.0 Q14.0 18.25 17.5 6.5 M-3.5 -19.0 L-4.75 -19.75 -6.75 -20.5 -8.0 -20.0 -9.0 -18.75 -9.5 -17.5 -7.75 -15.75 -4.5 -15.75 -3.5 -17.25 -3.5 -19.0 M5.75 -20.5 L5.25 -20.25 4.5 -20.0 4.0 -19.75 3.75 -19.5 Q1.75 -19.25 3.75 -15.75 L7.0 -15.75 Q8.75 -17.5 8.25 -19.5 L7.0 -20.0 6.75 -20.0 5.75 -20.5" fill="#ffffff" fill-rule="evenodd" stroke="none"/>
    <path d="M5.75 -20.5 L6.75 -20.0 7.0 -20.0 8.25 -19.5 Q8.75 -17.5 7.0 -15.75 L3.75 -15.75 Q1.75 -19.25 3.75 -19.5 L4.0 -19.75 4.5 -20.0 5.25 -20.25 5.75 -20.5 M-3.5 -19.0 L-3.5 -17.25 -4.5 -15.75 -7.75 -15.75 -9.5 -17.5 -9.0 -18.75 -8.0 -20.0 -6.75 -20.5 -4.75 -19.75 -3.5 -19.0" fill="#000000" fill-rule="evenodd" stroke="none"/>
    <path d="M12.0 -16.75 Q14.0 -16.05 15.5 -14.5 L18.5 -10.25 19.25 -2.5 17.5 6.5 Q14.0 18.25 3.25 20.0 L2.5 20.25 1.0 20.25 Q-8.25 24.0 -17.5 8.25 L-17.75 8.25 Q-24.75 -12.0 -12.75 -16.25 -13.0 -14.5 -7.25 -13.75 L-0.25 -15.5 Q9.5 -12.0 12.0 -16.75 M36.5 51.75 L48.75 55.25 64.75 57.5 69.75 57.0 61.0 68.75 50.0 81.25 40.25 91.25 30.75 97.75 27.0 99.0 22.5 94.25 20.0 89.25 19.75 83.25 20.75 82.75 21.5 73.0 23.0 65.5 26.25 59.75 36.5 51.75 M-21.75 81.75 L-21.75 84.75 -25.25 93.25 -31.0 98.25 -44.5 89.0 -50.25 82.25 -51.0 81.5 -51.0 81.25 -52.5 79.75 -53.25 78.75 -58.5 73.0 -71.0 56.25 -71.0 56.0 -71.75 55.25 -73.25 53.25 -73.25 50.5 -68.75 48.75 -58.5 41.25 -51.25 43.75 Q-44.6 47.65 -38.0 51.5 L-30.5 56.75 -25.5 61.75 -22.25 70.0 -21.75 81.75" fill="#e58508" fill-rule="evenodd" stroke="none"/>
    <path d="M-80.25 52.1 L-84.5 52.0 -86.15 50.75 -87.4 47.1 -87.4 41.1 -87.9 39.85 -87.25 35.1 -85.4 31.5 -73.9 13.35 -61.75 -3.9 -52.15 -16.15 -46.75 -21.65 Q-17.5 -63.25 -1.25 -64.4 5.5 -65.5 19.6 -53.25 L28.25 -44.5 34.5 -36.9 47.0 -20.0 49.85 -17.4 57.35 -8.25 72.25 11.75 85.1 31.35 Q88.0 34.5 87.75 39.85 91.25 56.6 69.6 56.75 L63.85 57.1 56.85 56.25 39.85 52.25 33.85 49.25 36.75 51.75 40.6 53.0 32.1 59.0 27.1 63.85 26.6 61.5 27.75 58.75 26.6 59.75 Q20.5 66.25 21.35 77.6 -1.15 85.25 -22.15 77.25 -21.75 65.5 -29.0 58.6 -26.9 61.35 -28.25 63.85 -39.9 51.6 -61.0 43.1 L-58.75 41.25 -53.75 42.85 -55.25 41.6 -56.75 39.6 -49.15 32.6 Q-48.15 31.1 -48.25 28.6 -68.0 49.6 -80.25 52.1 M-48.25 28.5 L-49.0 26.35 -50.15 26.0 -48.25 28.5 M36.25 44.25 L35.0 45.0 33.35 48.0 34.85 46.5 36.25 44.25 M38.35 -6.4 L38.35 -4.25 Q39.0 -4.0 40.1 1.0 L43.85 6.6 61.5 26.85 61.75 27.25 62.0 27.5 62.1 27.75 61.85 29.85 63.5 29.25 63.75 29.1 67.25 27.5 69.25 27.5 52.6 7.1 51.85 6.6 51.35 5.5 42.0 -6.65 41.35 -7.0 39.1 -10.5 38.35 -6.4 M-19.9 -2.15 L-19.9 -6.15 -20.75 -6.25 -19.9 10.5 -19.25 12.85 -19.5 14.0 -19.0 22.1 -18.65 22.35 -12.0 41.1 -11.5 41.25 -7.15 46.25 0.1 47.75 7.25 46.25 12.0 41.1 19.0 22.25 19.85 9.6 18.85 -0.65 18.5 3.0 17.6 6.25 Q15.5 16.35 3.25 20.0 L0.85 20.25 Q-8.15 23.0 -16.4 10.5 L-17.4 8.75 -17.9 7.1 -18.0 6.85 -19.25 2.6 -19.9 -2.15 M-39.9 -4.0 L-39.9 -5.25 -40.75 -9.75 -52.75 6.0 -53.15 7.0 -65.5 21.85 -66.4 23.35 -64.4 23.35 -59.65 24.25 -47.5 10.1 -41.25 1.0 -39.9 -4.0" fill="#cecece" fill-opacity="0.0" fill-rule="evenodd" stroke="none"/>
    <path d="M69.6 56.75 L66.25 61.85 57.0 73.1 40.1 91.0 34.1 95.5 28.6 98.6 27.35 98.85 26.75 98.35 23.1 94.6 21.1 91.85 19.85 87.85 19.75 83.1 17.5 84.1 -0.15 87.25 -17.75 84.1 -20.9 82.6 -21.0 88.6 -21.9 90.5 -22.0 91.0 -22.15 91.35 -22.25 91.5 -22.75 92.85 -24.65 95.0 -25.0 95.5 -28.4 98.85 -29.9 98.35 -35.25 95.25 -41.4 90.75 -48.65 83.35 -62.75 67.5 -70.75 56.85 -73.15 52.5 -73.4 50.85 -77.0 52.1 -80.25 52.1 Q-68.0 49.6 -48.25 28.6 -48.15 31.1 -49.15 32.6 L-56.75 39.6 -55.25 41.6 -53.75 42.85 -58.75 41.25 -61.0 43.1 Q-39.9 51.6 -28.25 63.85 -26.9 61.35 -29.0 58.6 -21.75 65.5 -22.15 77.25 -1.15 85.25 21.35 77.6 20.5 66.25 26.6 59.75 L27.75 58.75 26.6 61.5 27.1 63.85 32.1 59.0 40.6 53.0 36.75 51.75 33.85 49.25 39.85 52.25 56.85 56.25 63.85 57.1 69.6 56.75 M-39.9 -4.0 L-41.25 1.0 -47.5 10.1 -59.65 24.25 -64.4 23.35 -66.4 23.35 -65.5 21.85 -53.15 7.0 -52.75 6.0 -40.75 -9.75 -39.9 -5.25 -39.9 -4.0 M-19.9 -2.15 L-19.25 2.6 -18.0 6.85 -17.9 7.1 -17.4 8.75 -16.4 10.5 Q-8.15 23.0 0.85 20.25 L3.25 20.0 Q15.5 16.35 17.6 6.25 L18.5 3.0 18.85 -0.65 19.85 9.6 19.0 22.25 12.0 41.1 7.25 46.25 0.1 47.75 -7.15 46.25 -11.5 41.25 -12.0 41.1 -18.65 22.35 -19.0 22.1 -19.5 14.0 -19.25 12.85 -19.9 10.5 -20.75 -6.25 -19.9 -6.15 -19.9 -2.15 M38.35 -6.4 L39.1 -10.5 41.35 -7.0 42.0 -6.65 51.35 5.5 51.85 6.6 52.6 7.1 69.25 27.5 67.25 27.5 63.75 29.1 63.5 29.25 61.85 29.85 62.1 27.75 62.0 27.5 61.75 27.25 61.5 26.85 43.85 6.6 40.1 1.0 Q39.0 -4.0 38.35 -4.25 L38.35 -6.4 M36.25 44.25 L34.85 46.5 33.35 48.0 35.0 45.0 36.25 44.25 M-48.25 28.5 L-50.15 26.0 -49.0 26.35 -48.25 28.5" fill="#000000" fill-opacity="0.49803922" fill-rule="evenodd" stroke="none"/>
  </g>
</svg>
