<?xml version="1.0" encoding="UTF-8" standalone="no"?>
<svg xmlns:ffdec="https://www.free-decompiler.com/flash" xmlns:xlink="http://www.w3.org/1999/xlink" ffdec:objectType="shape" height="163.5px" width="175.55px" xmlns="http://www.w3.org/2000/svg">
  <g transform="matrix(1.0, 0.0, 0.0, 1.0, 88.15, 64.5)">
    <path d="M-12.75 -16.25 L-15.25 -20.25 -15.25 -25.0 -10.25 -27.0 -1.5 -26.75 -0.25 -26.25 0.0 -26.5 0.75 -26.75 6.75 -27.5 Q13.75 -26.5 14.25 -25.0 L14.25 -20.5 12.0 -16.75 Q9.5 -12.0 -0.25 -15.5 L-7.25 -13.75 Q-13.0 -14.5 -12.75 -16.25 M17.5 6.5 L22.0 16.75 23.75 23.5 30.0 35.25 35.75 41.25 34.75 42.0 31.75 46.25 Q35.5 50.75 37.25 50.0 L38.5 50.75 33.25 53.75 26.25 59.75 24.0 63.5 22.25 68.0 Q21.75 82.0 19.75 83.25 4.5 91.75 -21.75 81.75 L-22.25 70.0 -25.5 61.75 -30.5 56.75 -38.0 51.5 -28.75 35.75 -25.0 26.75 -22.25 17.5 -17.75 8.25 -17.5 8.25 Q-8.25 24.0 1.0 20.25 L2.5 20.25 3.25 20.0 Q14.0 18.25 17.5 6.5 M-3.5 -19.0 L-4.75 -19.75 -6.75 -20.5 -8.0 -20.0 -9.0 -18.75 -9.5 -17.5 -7.75 -15.75 -4.5 -15.75 -3.5 -17.25 -3.5 -19.0 M5.75 -20.5 L5.25 -20.25 4.5 -20.0 4.0 -19.75 3.75 -19.5 Q1.75 -19.25 3.75 -15.75 L7.0 -15.75 Q8.75 -17.5 8.25 -19.5 L7.0 -20.0 6.75 -20.0 5.75 -20.5" fill="#ffffff" fill-rule="evenodd" stroke="none"/>
    <path d="M5.75 -20.5 L6.75 -20.0 7.0 -20.0 8.25 -19.5 Q8.75 -17.5 7.0 -15.75 L3.75 -15.75 Q1.75 -19.25 3.75 -19.5 L4.0 -19.75 4.5 -20.0 5.25 -20.25 5.75 -20.5 M-3.5 -19.0 L-3.5 -17.25 -4.5 -15.75 -7.75 -15.75 -9.5 -17.5 -9.0 -18.75 -8.0 -20.0 -6.75 -20.5 -4.75 -19.75 -3.5 -19.0" fill="#000000" fill-rule="evenodd" stroke="none"/>
    <path d="M12.0 -16.75 Q14.0 -16.05 15.5 -14.5 L18.5 -10.25 19.25 -2.5 17.5 6.5 Q14.0 18.25 3.25 20.0 L2.5 20.25 1.0 20.25 Q-8.25 24.0 -17.5 8.25 L-17.75 8.25 Q-24.75 -12.0 -12.75 -16.25 -13.0 -14.5 -7.25 -13.75 L-0.25 -15.5 Q9.5 -12.0 12.0 -16.75 M38.5 50.75 L39.75 51.0 47.25 53.75 55.0 55.25 55.5 55.5 56.25 55.5 56.75 55.75 57.5 55.75 58.0 56.0 58.75 56.0 59.25 56.25 61.75 56.75 69.75 57.0 61.0 68.75 50.0 81.25 40.25 91.25 30.75 97.75 27.0 99.0 22.5 94.25 20.0 89.25 19.75 83.25 Q21.75 82.0 22.25 68.0 L24.0 63.5 26.25 59.75 33.25 53.75 38.5 50.75 M-21.75 81.75 L-21.75 84.75 -25.25 93.25 -31.0 98.25 -44.5 89.0 -50.25 82.25 -51.0 81.5 -51.0 81.25 -52.5 79.75 -53.25 78.75 -58.5 73.0 -71.0 56.25 -71.0 56.0 -71.75 55.25 -73.5 52.75 -73.0 50.0 -68.75 48.5 -58.25 41.25 -51.25 43.75 Q-44.6 47.65 -38.0 51.5 L-30.5 56.75 -25.5 61.75 -22.25 70.0 -21.75 81.75" fill="#e58508" fill-rule="evenodd" stroke="none"/>
    <path d="M-80.65 51.6 L-84.75 51.25 -86.5 49.85 -87.65 46.35 -87.65 40.35 -88.15 39.25 -87.5 34.25 -85.4 30.35 -76.0 15.85 -61.25 -5.0 -51.9 -16.65 -46.15 -22.4 Q-17.9 -62.9 -1.25 -64.4 5.5 -65.5 19.6 -53.25 L28.25 -44.5 34.5 -36.9 47.0 -20.0 50.35 -16.65 60.5 -3.9 73.0 13.85 86.6 35.75 Q87.75 40.35 87.25 41.25 L87.35 46.5 Q85.75 52.6 84.75 53.0 L83.6 53.85 77.25 56.5 69.75 56.6 63.0 56.75 55.75 55.35 38.75 50.25 32.5 46.75 35.75 49.85 42.25 52.0 36.0 56.0 32.1 59.0 27.1 63.85 26.6 61.5 27.75 58.75 26.6 59.75 Q20.5 66.25 21.35 77.6 -1.15 85.25 -22.15 77.25 -21.75 65.5 -29.0 58.6 -26.9 61.35 -28.25 63.85 -39.4 51.85 -61.0 43.25 L-58.4 41.25 -53.75 42.85 -56.65 39.85 -49.15 33.75 Q-48.4 33.5 -47.4 29.1 L-48.4 26.75 -49.5 26.35 -47.4 29.1 Q-68.25 49.6 -80.65 51.6 M-42.4 -7.5 L-43.5 -6.5 -53.15 6.0 -53.65 7.1 -66.25 22.0 -66.75 23.0 -60.15 24.0 -46.5 8.35 -41.65 1.25 -40.0 -4.15 -40.9 -9.9 -42.4 -7.5 M32.6 45.0 L34.1 43.6 35.1 42.0 33.6 43.0 32.6 45.0 M3.25 20.0 L0.85 20.25 Q-8.15 23.0 -16.4 10.5 L-17.4 8.75 -17.9 7.1 -18.0 6.85 -19.25 2.6 -19.9 -2.15 -19.9 -6.15 -20.75 -6.25 -19.9 10.5 -19.25 12.85 -19.5 14.0 -19.0 22.1 -18.65 22.35 -12.0 41.1 -11.5 41.25 -7.15 46.25 0.1 47.75 7.25 46.25 12.0 41.1 19.0 22.25 19.85 9.6 18.85 -0.65 18.5 3.0 17.6 6.25 Q15.5 16.35 3.25 20.0 M38.75 -10.25 L37.85 -4.4 Q38.5 -4.15 39.5 1.0 L45.0 8.85 49.5 14.1 49.75 14.35 54.5 20.1 55.35 20.75 55.25 21.0 61.85 28.6 62.0 28.85 62.0 29.35 62.5 29.25 66.5 27.75 67.85 27.6 50.85 6.35 40.1 -7.9 40.1 -8.4 38.75 -10.25" fill="#cecece" fill-opacity="0.0" fill-rule="evenodd" stroke="none"/>
    <path d="M69.75 56.6 L66.25 61.85 47.6 83.35 40.1 91.0 34.1 95.5 28.6 98.6 27.35 98.85 26.75 98.35 23.1 94.6 21.1 91.85 19.85 87.85 19.75 83.1 17.5 84.1 -0.15 87.25 -17.75 84.1 -20.9 82.6 -21.0 88.6 -21.9 90.5 -22.0 91.0 -22.15 91.35 -22.25 91.5 -22.75 92.85 -24.65 95.0 -25.0 95.5 -28.4 98.85 -29.9 98.35 -35.25 95.25 -41.4 90.75 -53.0 78.6 -62.75 67.5 -70.75 56.85 -73.15 52.5 -73.4 50.85 -73.15 50.1 -77.25 51.6 -80.65 51.6 Q-68.25 49.6 -47.4 29.1 L-49.5 26.35 -48.4 26.75 -47.4 29.1 Q-48.4 33.5 -49.15 33.75 L-56.65 39.85 -53.75 42.85 -58.4 41.25 -61.0 43.25 Q-39.4 51.85 -28.25 63.85 -26.9 61.35 -29.0 58.6 -21.75 65.5 -22.15 77.25 -1.15 85.25 21.35 77.6 20.5 66.25 26.6 59.75 L27.75 58.75 26.6 61.5 27.1 63.85 32.1 59.0 36.0 56.0 42.25 52.0 35.75 49.85 32.5 46.75 38.75 50.25 55.75 55.35 63.0 56.75 69.75 56.6 M38.75 -10.25 L40.1 -8.4 40.1 -7.9 50.85 6.35 67.85 27.6 66.5 27.75 62.5 29.25 62.0 29.35 62.0 28.85 61.85 28.6 55.25 21.0 55.35 20.75 54.5 20.1 49.75 14.35 49.5 14.1 45.0 8.85 39.5 1.0 Q38.5 -4.15 37.85 -4.4 L38.75 -10.25 M3.25 20.0 Q15.5 16.35 17.6 6.25 L18.5 3.0 18.85 -0.65 19.85 9.6 19.0 22.25 12.0 41.1 7.25 46.25 0.1 47.75 -7.15 46.25 -11.5 41.25 -12.0 41.1 -18.65 22.35 -19.0 22.1 -19.5 14.0 -19.25 12.85 -19.9 10.5 -20.75 -6.25 -19.9 -6.15 -19.9 -2.15 -19.25 2.6 -18.0 6.85 -17.9 7.1 -17.4 8.75 -16.4 10.5 Q-8.15 23.0 0.85 20.25 L3.25 20.0 M32.6 45.0 L33.6 43.0 35.1 42.0 34.1 43.6 32.6 45.0 M-42.4 -7.5 L-40.9 -9.9 -40.0 -4.15 -41.65 1.25 -46.5 8.35 -60.15 24.0 -66.75 23.0 -66.25 22.0 -53.65 7.1 -53.15 6.0 -43.5 -6.5 -42.4 -7.5" fill="#000000" fill-opacity="0.49803922" fill-rule="evenodd" stroke="none"/>
  </g>
</svg>
