<?xml version="1.0" encoding="UTF-8" standalone="no"?>
<svg xmlns:ffdec="https://www.free-decompiler.com/flash" xmlns:xlink="http://www.w3.org/1999/xlink" ffdec:objectType="shape" height="163.4px" width="174.85px" xmlns="http://www.w3.org/2000/svg">
  <g transform="matrix(1.0, 0.0, 0.0, 1.0, 88.9, 64.4)">
    <path d="M-12.75 -16.25 L-15.25 -20.25 -15.25 -25.0 -10.25 -27.0 -1.5 -26.75 -0.25 -26.25 0.0 -26.5 0.75 -26.75 6.75 -27.5 Q13.75 -26.5 14.25 -25.0 L14.25 -20.5 12.0 -16.75 Q9.5 -12.0 -0.25 -15.5 L-7.25 -13.75 Q-13.0 -14.5 -12.75 -16.25 M17.5 6.5 L22.0 16.75 23.75 23.5 32.0 37.75 29.75 41.0 Q32.75 45.25 34.0 45.0 L41.0 48.75 28.75 57.5 24.5 62.5 22.25 68.0 Q21.75 82.0 19.75 83.25 4.5 91.75 -21.75 81.75 L-22.25 70.0 -25.5 61.75 -30.5 56.75 -38.0 51.5 -28.75 35.75 -25.0 26.75 -22.25 17.5 -17.75 8.25 -17.5 8.25 Q-8.25 24.0 1.0 20.25 L2.5 20.25 3.25 20.0 Q14.0 18.25 17.5 6.5 M-3.5 -19.0 L-4.75 -19.75 -6.75 -20.5 -8.0 -20.0 -9.0 -18.75 -9.5 -17.5 -7.75 -15.75 -4.5 -15.75 -3.5 -17.25 -3.5 -19.0 M5.75 -20.5 L5.25 -20.25 4.5 -20.0 4.0 -19.75 3.75 -19.5 Q1.75 -19.25 3.75 -15.75 L7.0 -15.75 Q8.75 -17.5 8.25 -19.5 L7.0 -20.0 6.75 -20.0 5.75 -20.5" fill="#ffffff" fill-rule="evenodd" stroke="none"/>
    <path d="M5.75 -20.5 L6.75 -20.0 7.0 -20.0 8.25 -19.5 Q8.75 -17.5 7.0 -15.75 L3.75 -15.75 Q1.75 -19.25 3.75 -19.5 L4.0 -19.75 4.5 -20.0 5.25 -20.25 5.75 -20.5 M-3.5 -19.0 L-3.5 -17.25 -4.5 -15.75 -7.75 -15.75 -9.5 -17.5 -9.0 -18.75 -8.0 -20.0 -6.75 -20.5 -4.75 -19.75 -3.5 -19.0" fill="#000000" fill-rule="evenodd" stroke="none"/>
    <path d="M12.0 -16.75 Q14.0 -16.05 15.5 -14.5 L18.5 -10.25 19.25 -2.5 17.5 6.5 Q14.0 18.25 3.25 20.0 L2.5 20.25 1.0 20.25 Q-8.25 24.0 -17.5 8.25 L-17.75 8.25 Q-24.75 -12.0 -12.75 -16.25 -13.0 -14.5 -7.25 -13.75 L-0.25 -15.5 Q9.5 -12.0 12.0 -16.75 M41.0 48.75 L41.25 48.75 49.0 52.0 61.5 56.25 67.5 57.0 69.25 57.5 64.25 64.75 50.25 81.0 40.25 91.25 30.75 97.75 27.0 99.0 22.5 94.25 20.0 89.25 19.75 83.25 Q21.75 82.0 22.25 68.0 L24.5 62.5 28.75 57.5 41.0 48.75 M-21.75 81.75 L-21.75 84.75 -25.25 93.25 -31.0 98.25 -44.5 89.0 -50.25 82.25 -51.0 81.5 -51.0 81.25 -52.5 79.75 -53.25 78.75 -58.5 73.0 -71.0 56.25 -71.0 56.0 -71.75 55.25 -73.5 52.75 Q-73.75 50.25 -72.0 48.5 L-67.75 47.0 -58.0 41.25 -51.25 43.75 Q-44.6 47.65 -38.0 51.5 L-30.5 56.75 -25.5 61.75 -22.25 70.0 -21.75 81.75" fill="#e58508" fill-rule="evenodd" stroke="none"/>
    <path d="M-40.65 -4.5 L-41.25 -9.9 -52.75 4.6 -54.0 5.75 -54.5 6.85 -67.15 21.0 -67.75 22.1 -64.5 22.5 -61.4 23.35 -46.9 7.6 -42.25 1.25 -40.65 -4.5 M-81.0 50.1 L-85.65 49.35 -87.25 48.0 -88.4 44.5 -88.4 38.85 -88.9 36.6 -88.0 32.0 -86.0 28.5 -74.25 11.25 -61.65 -5.5 -52.25 -16.65 -45.65 -23.0 Q-18.9 -62.65 0.25 -64.4 6.35 -64.9 20.35 -52.65 L29.6 -42.9 45.25 -22.9 47.75 -18.9 50.35 -16.25 58.6 -5.15 71.85 14.6 84.6 36.25 Q86.5 37.5 85.75 43.6 L85.75 48.35 83.1 54.6 81.75 55.85 74.75 57.5 73.35 57.35 61.35 55.85 54.35 53.6 36.1 45.5 30.35 41.35 Q33.1 45.35 34.0 45.35 L44.85 50.5 36.0 56.0 28.75 62.0 27.1 63.85 26.6 61.5 27.75 58.75 26.6 59.75 Q20.5 66.25 21.35 77.6 -1.15 85.25 -22.15 77.25 -21.75 65.5 -29.0 58.6 -26.9 61.35 -28.25 63.85 -38.25 52.6 -60.9 43.1 L-58.25 41.25 -53.75 42.85 -56.5 40.0 -48.5 34.35 Q-47.5 34.25 -46.5 30.0 L-47.5 27.5 -48.65 27.1 -46.5 30.0 Q-67.75 48.85 -81.0 50.1 M31.75 38.0 L30.6 39.6 31.75 38.85 33.1 37.1 32.85 37.1 32.85 37.25 31.75 38.0 M49.1 6.85 L48.35 5.25 37.85 -9.65 Q36.0 -3.4 38.5 1.25 L44.1 9.5 55.5 24.0 56.0 24.1 57.25 26.1 59.6 29.1 59.6 29.25 59.75 29.1 65.25 28.0 50.1 7.75 49.1 6.85 M-19.9 -2.15 L-19.9 -6.15 -20.75 -6.25 -19.9 10.5 -19.25 12.85 -19.5 14.0 -19.0 22.1 -18.65 22.35 -12.0 41.1 -11.5 41.25 -7.15 46.25 0.1 47.75 7.25 46.25 12.0 41.1 19.0 22.25 19.85 9.6 18.85 -0.65 18.5 3.0 17.6 6.25 Q15.5 16.35 3.25 20.0 L0.85 20.25 Q-8.15 23.0 -16.4 10.5 L-17.4 8.75 -17.9 7.1 -18.0 6.85 -19.25 2.6 -19.9 -2.15" fill="#cecece" fill-opacity="0.0" fill-rule="evenodd" stroke="none"/>
    <path d="M-40.65 -4.5 L-42.25 1.25 -46.9 7.6 -61.4 23.35 -64.5 22.5 -67.75 22.1 -67.15 21.0 -54.5 6.85 -54.0 5.75 -52.75 4.6 -41.25 -9.9 -40.65 -4.5 M73.35 57.35 L69.6 57.0 61.85 67.35 57.0 73.1 40.1 91.0 34.1 95.5 28.6 98.6 27.35 98.85 26.75 98.35 23.1 94.6 21.1 91.85 19.85 87.85 19.75 83.1 17.5 84.1 -0.15 87.25 -17.75 84.1 -20.9 82.6 -21.0 88.6 -21.9 90.5 -22.0 91.0 -22.15 91.35 -22.25 91.5 -22.75 92.85 -24.65 95.0 -25.0 95.5 -28.4 98.85 -29.9 98.35 -35.25 95.25 -41.4 90.75 -53.0 78.6 -62.75 67.5 -70.75 56.85 -73.15 52.5 -73.4 50.85 -72.15 48.5 -77.9 50.1 -81.0 50.1 Q-67.75 48.85 -46.5 30.0 L-48.65 27.1 -47.5 27.5 -46.5 30.0 Q-47.5 34.25 -48.5 34.35 L-56.5 40.0 -53.75 42.85 -58.25 41.25 -60.9 43.1 Q-38.25 52.6 -28.25 63.85 -26.9 61.35 -29.0 58.6 -21.75 65.5 -22.15 77.25 -1.15 85.25 21.35 77.6 20.5 66.25 26.6 59.75 L27.75 58.75 26.6 61.5 27.1 63.85 28.75 62.0 36.0 56.0 44.85 50.5 34.0 45.35 Q33.1 45.35 30.35 41.35 L36.1 45.5 54.35 53.6 61.35 55.85 73.35 57.35 M-19.9 -2.15 L-19.25 2.6 -18.0 6.85 -17.9 7.1 -17.4 8.75 -16.4 10.5 Q-8.15 23.0 0.85 20.25 L3.25 20.0 Q15.5 16.35 17.6 6.25 L18.5 3.0 18.85 -0.65 19.85 9.6 19.0 22.25 12.0 41.1 7.25 46.25 0.1 47.75 -7.15 46.25 -11.5 41.25 -12.0 41.1 -18.65 22.35 -19.0 22.1 -19.5 14.0 -19.25 12.85 -19.9 10.5 -20.75 -6.25 -19.9 -6.15 -19.9 -2.15 M49.1 6.85 L50.1 7.75 65.25 28.0 59.75 29.1 59.6 29.25 59.6 29.1 57.25 26.1 56.0 24.1 55.5 24.0 44.1 9.5 38.5 1.25 Q36.0 -3.4 37.85 -9.65 L48.35 5.25 49.1 6.85 M31.75 38.0 L32.85 37.25 32.85 37.1 33.1 37.1 31.75 38.85 30.6 39.6 31.75 38.0" fill="#000000" fill-opacity="0.49803922" fill-rule="evenodd" stroke="none"/>
  </g>
</svg>
