<?xml version="1.0" encoding="UTF-8" standalone="no"?>
<svg xmlns:ffdec="https://www.free-decompiler.com/flash" xmlns:xlink="http://www.w3.org/1999/xlink" ffdec:objectType="shape" height="163.4px" width="174.8px" xmlns="http://www.w3.org/2000/svg">
  <g transform="matrix(1.0, 0.0, 0.0, 1.0, 89.45, 64.4)">
    <path d="M-12.75 -16.25 L-15.25 -20.25 -15.25 -25.0 -10.25 -27.0 -1.5 -26.75 -0.25 -26.25 0.0 -26.5 0.75 -26.75 6.75 -27.5 Q13.75 -26.5 14.25 -25.0 L14.25 -20.5 12.0 -16.75 Q9.5 -12.0 -0.25 -15.5 L-7.25 -13.75 Q-13.0 -14.5 -12.75 -16.25 M17.5 6.5 L21.75 16.25 23.75 23.0 30.75 35.75 29.0 38.25 32.5 42.25 40.75 47.0 41.5 48.75 33.25 53.75 28.5 57.75 24.5 62.5 22.25 68.0 Q21.75 82.0 19.75 83.25 4.5 91.75 -21.75 81.75 L-22.25 70.0 -25.5 61.75 -30.5 56.75 -38.0 51.5 -28.75 35.75 -25.0 26.75 -22.25 17.5 -17.75 8.25 -17.5 8.25 Q-8.25 24.0 1.0 20.25 L2.5 20.25 3.25 20.0 Q14.0 18.25 17.5 6.5 M-3.5 -19.0 L-4.75 -19.75 -6.75 -20.5 -8.0 -20.0 -9.0 -18.75 -9.5 -17.5 -7.75 -15.75 -4.5 -15.75 -3.5 -17.25 -3.5 -19.0 M5.75 -20.5 L5.25 -20.25 4.5 -20.0 4.0 -19.75 3.75 -19.5 Q1.75 -19.25 3.75 -15.75 L7.0 -15.75 Q8.75 -17.5 8.25 -19.5 L7.0 -20.0 6.75 -20.0 5.75 -20.5" fill="#ffffff" fill-rule="evenodd" stroke="none"/>
    <path d="M5.75 -20.5 L6.75 -20.0 7.0 -20.0 8.25 -19.5 Q8.75 -17.5 7.0 -15.75 L3.75 -15.75 Q1.75 -19.25 3.75 -19.5 L4.0 -19.75 4.5 -20.0 5.25 -20.25 5.75 -20.5 M-3.5 -19.0 L-3.5 -17.25 -4.5 -15.75 -7.75 -15.75 -9.5 -17.5 -9.0 -18.75 -8.0 -20.0 -6.75 -20.5 -4.75 -19.75 -3.5 -19.0" fill="#000000" fill-rule="evenodd" stroke="none"/>
    <path d="M12.0 -16.75 Q14.0 -16.05 15.5 -14.5 L18.5 -10.25 19.25 -2.5 17.5 6.5 Q14.0 18.25 3.25 20.0 L2.5 20.25 1.0 20.25 Q-8.25 24.0 -17.5 8.25 L-17.75 8.25 Q-24.75 -12.0 -12.75 -16.25 -13.0 -14.5 -7.25 -13.75 L-0.25 -15.5 Q9.5 -12.0 12.0 -16.75 M41.5 48.75 L42.5 48.0 49.0 51.0 49.25 51.0 58.0 55.25 60.5 55.75 61.0 55.75 61.5 56.0 62.25 56.0 62.75 56.25 63.75 56.5 64.5 56.5 67.5 57.25 67.75 57.5 68.75 57.5 69.25 57.75 63.25 66.0 47.25 84.25 38.25 92.75 30.75 97.75 27.0 99.0 22.5 94.25 20.0 89.25 19.75 83.25 Q21.75 82.0 22.25 68.0 L24.5 62.5 28.5 57.75 33.25 53.75 41.5 48.75 M-21.75 81.75 L-21.75 84.75 -25.25 93.25 -31.0 98.25 -44.5 89.0 -50.25 82.25 -51.0 81.5 -51.0 81.25 -52.5 79.75 -53.25 78.75 -58.5 73.0 -71.0 56.25 -71.0 56.0 -71.75 55.25 -73.5 52.75 Q-74.0 50.25 -71.5 47.75 L-68.75 47.0 -59.75 41.75 -58.5 41.25 -51.25 43.75 Q-44.6 47.65 -38.0 51.5 L-30.5 56.75 -25.5 61.75 -22.25 70.0 -21.75 81.75" fill="#e58508" fill-rule="evenodd" stroke="none"/>
    <path d="M-41.5 -10.15 L-44.15 -6.4 -54.5 5.6 -55.0 6.75 -56.15 7.6 -68.25 21.5 -62.0 22.85 -47.0 7.1 -42.65 1.1 -40.9 -4.0 -41.5 -10.15 M-81.4 49.25 L-86.15 48.25 -87.65 47.0 -88.9 42.75 -88.9 37.35 Q-92.15 32.75 -76.75 13.75 L-60.9 -7.0 -51.65 -17.65 -45.65 -23.15 Q-18.75 -62.5 0.1 -64.4 6.5 -64.9 20.35 -52.65 L29.6 -42.9 45.25 -22.9 48.0 -18.4 50.25 -16.15 59.85 -2.75 71.75 15.85 83.0 35.5 85.1 39.85 85.35 43.85 84.75 44.75 84.6 49.6 82.0 55.5 80.25 56.85 72.6 57.75 71.1 57.65 Q53.7 55.85 29.25 38.25 L31.6 41.6 32.85 42.75 45.85 49.85 Q40.95 52.95 36.0 56.0 L28.75 62.0 27.1 63.85 26.6 61.5 27.75 58.75 26.6 59.75 Q20.5 66.25 21.35 77.6 -1.15 85.25 -22.15 77.25 -21.75 65.5 -29.0 58.6 -26.9 61.35 -28.25 63.85 -39.25 51.85 -61.25 43.1 L-58.4 41.25 -53.75 42.85 -56.65 40.0 -48.5 34.75 Q-47.65 34.6 -46.5 30.5 -67.9 48.6 -81.4 49.25 M-19.9 -2.15 L-19.9 -6.15 -20.75 -6.25 -19.9 10.5 -19.25 12.85 -19.5 14.0 -19.0 22.1 -18.65 22.35 -12.0 41.1 -11.5 41.25 -7.15 46.25 0.1 47.75 7.25 46.25 12.0 41.1 19.0 22.25 19.85 9.6 18.85 -0.65 18.5 3.0 17.6 6.25 Q15.5 16.35 3.25 20.0 L0.85 20.25 Q-8.15 23.0 -16.4 10.5 L-17.4 8.75 -17.9 7.1 -18.0 6.85 -19.25 2.6 -19.9 -2.15 M36.6 -3.65 Q37.75 -1.65 37.85 1.25 L38.5 2.35 49.25 17.35 58.25 28.85 63.75 28.1 48.25 7.0 37.5 -9.4 36.6 -3.65 M30.75 36.25 L32.35 34.5 31.85 34.75 31.35 34.85 30.1 36.35 30.75 36.25 M-48.65 27.35 L-46.5 30.35 -47.4 27.85 -48.65 27.35" fill="#cecece" fill-opacity="0.0" fill-rule="evenodd" stroke="none"/>
    <path d="M-41.5 -10.15 L-40.9 -4.0 -42.65 1.1 -47.0 7.1 -62.0 22.85 -68.25 21.5 -56.15 7.6 -55.0 6.75 -54.5 5.6 -44.15 -6.4 -41.5 -10.15 M71.1 57.65 L69.35 57.5 57.0 73.1 40.1 91.0 34.1 95.5 28.6 98.6 27.35 98.85 26.75 98.35 23.1 94.6 21.1 91.85 19.85 87.85 19.75 83.1 17.5 84.1 -0.15 87.25 -17.75 84.1 -20.9 82.6 -21.0 88.6 -21.9 90.5 -22.0 91.0 -22.15 91.35 -22.25 91.5 -22.75 92.85 -24.65 95.0 -25.0 95.5 -28.4 98.85 -29.9 98.35 -35.25 95.25 -41.4 90.75 -57.9 73.25 -67.25 61.85 -70.75 56.85 -73.15 52.5 -73.4 50.85 -71.65 47.75 -78.15 49.25 -81.4 49.25 Q-67.9 48.6 -46.5 30.5 -47.65 34.6 -48.5 34.75 L-56.65 40.0 -53.75 42.85 -58.4 41.25 -61.25 43.1 Q-39.25 51.85 -28.25 63.85 -26.9 61.35 -29.0 58.6 -21.75 65.5 -22.15 77.25 -1.15 85.25 21.35 77.6 20.5 66.25 26.6 59.75 L27.75 58.75 26.6 61.5 27.1 63.85 28.75 62.0 36.0 56.0 Q40.95 52.95 45.85 49.85 L32.85 42.75 31.6 41.6 29.25 38.25 Q53.7 55.85 71.1 57.65 M-19.9 -2.15 L-19.25 2.6 -18.0 6.85 -17.9 7.1 -17.4 8.75 -16.4 10.5 Q-8.15 23.0 0.85 20.25 L3.25 20.0 Q15.5 16.35 17.6 6.25 L18.5 3.0 18.85 -0.65 19.85 9.6 19.0 22.25 12.0 41.1 7.25 46.25 0.1 47.75 -7.15 46.25 -11.5 41.25 -12.0 41.1 -18.65 22.35 -19.0 22.1 -19.5 14.0 -19.25 12.85 -19.9 10.5 -20.75 -6.25 -19.9 -6.15 -19.9 -2.15 M-48.65 27.35 L-47.4 27.85 -46.5 30.35 -48.65 27.35 M30.75 36.25 L30.1 36.35 31.35 34.85 31.85 34.75 32.35 34.5 30.75 36.25 M36.6 -3.65 L37.5 -9.4 48.25 7.0 63.75 28.1 58.25 28.85 49.25 17.35 38.5 2.35 37.85 1.25 Q37.75 -1.65 36.6 -3.65" fill="#000000" fill-opacity="0.49803922" fill-rule="evenodd" stroke="none"/>
  </g>
</svg>
