<?xml version="1.0" encoding="UTF-8" standalone="no"?>
<svg xmlns:ffdec="https://www.free-decompiler.com/flash" xmlns:xlink="http://www.w3.org/1999/xlink" ffdec:objectType="shape" height="163.4px" width="174.2px" xmlns="http://www.w3.org/2000/svg">
  <g transform="matrix(1.0, 0.0, 0.0, 1.0, 89.65, 64.4)">
    <path d="M-12.75 -16.25 L-15.25 -20.25 -15.25 -25.0 -10.25 -27.0 -1.5 -26.75 -0.25 -26.25 0.0 -26.5 0.75 -26.75 6.75 -27.5 Q13.75 -26.5 14.25 -25.0 L14.25 -20.5 12.0 -16.75 Q9.5 -12.0 -0.25 -15.5 L-7.25 -13.75 Q-13.0 -14.5 -12.75 -16.25 M17.5 6.5 L22.0 16.75 23.75 23.5 29.25 33.5 28.25 34.5 28.5 35.5 31.75 39.5 39.0 44.5 41.5 48.75 33.25 53.75 28.5 57.75 24.5 62.5 22.25 68.0 Q21.75 82.0 19.75 83.25 4.5 91.75 -21.75 81.75 L-22.25 70.0 -25.5 61.75 -30.5 56.75 -38.0 51.5 -28.75 35.75 -25.0 26.75 -22.25 17.5 -17.75 8.25 -17.5 8.25 Q-8.25 24.0 1.0 20.25 L2.5 20.25 3.25 20.0 Q14.0 18.25 17.5 6.5 M-3.5 -19.0 L-4.75 -19.75 -6.75 -20.5 -8.0 -20.0 -9.0 -18.75 -9.5 -17.5 -7.75 -15.75 -4.5 -15.75 -3.5 -17.25 -3.5 -19.0 M5.75 -20.5 L5.25 -20.25 4.5 -20.0 4.0 -19.75 3.75 -19.5 Q1.75 -19.25 3.75 -15.75 L7.0 -15.75 Q8.75 -17.5 8.25 -19.5 L7.0 -20.0 6.75 -20.0 5.75 -20.5" fill="#ffffff" fill-rule="evenodd" stroke="none"/>
    <path d="M5.75 -20.5 L6.75 -20.0 7.0 -20.0 8.25 -19.5 Q8.75 -17.5 7.0 -15.75 L3.75 -15.75 Q1.75 -19.25 3.75 -19.5 L4.0 -19.75 4.5 -20.0 5.25 -20.25 5.75 -20.5 M-3.5 -19.0 L-3.5 -17.25 -4.5 -15.75 -7.75 -15.75 -9.5 -17.5 -9.0 -18.75 -8.0 -20.0 -6.75 -20.5 -4.75 -19.75 -3.5 -19.0" fill="#000000" fill-rule="evenodd" stroke="none"/>
    <path d="M12.0 -16.75 Q14.0 -16.05 15.5 -14.5 L18.5 -10.25 19.25 -2.5 17.5 6.5 Q14.0 18.25 3.25 20.0 L2.5 20.25 1.0 20.25 Q-8.25 24.0 -17.5 8.25 L-17.75 8.25 Q-24.75 -12.0 -12.75 -16.25 -13.0 -14.5 -7.25 -13.75 L-0.25 -15.5 Q9.5 -12.0 12.0 -16.75 M41.5 48.75 L44.0 47.5 57.25 54.75 62.25 56.0 62.5 56.0 63.0 56.25 64.5 56.75 65.0 56.75 68.75 58.0 62.5 67.0 50.0 81.25 40.25 91.25 30.75 97.75 27.0 99.0 22.5 94.25 20.0 89.25 19.75 83.25 Q21.75 82.0 22.25 68.0 L24.5 62.5 28.5 57.75 33.25 53.75 41.5 48.75 M-21.75 81.75 L-21.75 84.75 -25.25 93.25 -31.0 98.25 -44.5 89.0 -50.25 82.25 -51.0 81.5 -51.0 81.25 -52.5 79.75 -53.25 78.75 -58.5 73.0 -71.0 56.25 -71.0 56.0 -71.75 55.25 -73.5 52.75 Q-74.25 50.5 -71.0 47.0 L-59.25 41.25 -58.25 41.0 -50.25 44.25 -38.0 51.5 -30.5 56.75 -25.5 61.75 -22.25 70.0 -21.75 81.75" fill="#e58508" fill-rule="evenodd" stroke="none"/>
    <path d="M36.1 -3.4 L37.85 2.25 44.35 12.1 56.5 28.35 62.25 28.1 48.5 8.35 47.1 6.85 46.35 5.1 37.1 -8.9 36.1 -3.4 M-89.4 36.1 L-89.65 34.1 -88.5 29.35 -86.0 25.35 -74.0 8.75 -61.9 -6.4 -51.65 -17.9 -45.15 -23.65 Q-18.9 -62.25 -0.15 -64.4 6.6 -64.9 20.35 -52.65 L29.6 -42.9 42.85 -26.0 48.35 -17.9 50.5 -15.5 59.75 -2.15 71.1 16.35 79.5 31.75 79.6 32.0 81.5 35.35 81.6 35.6 82.25 36.75 84.35 41.6 Q85.0 45.5 83.5 45.85 L83.6 45.85 83.5 50.35 80.6 56.5 78.75 57.75 71.85 58.1 Q53.35 55.35 28.85 35.5 L31.1 39.35 31.6 39.35 46.75 49.35 36.0 56.0 28.75 62.0 27.1 63.85 26.6 61.5 27.75 58.75 26.6 59.75 Q20.5 66.25 21.35 77.6 -1.15 85.25 -22.15 77.25 -21.75 65.5 -29.0 58.6 -26.9 61.35 -28.25 63.85 -39.15 52.0 -61.65 43.0 L-58.65 41.25 -53.75 42.85 -55.15 41.75 -56.5 39.85 -48.65 35.1 Q-47.65 34.6 -46.65 31.1 -68.8 48.0 -81.05 48.25 L-81.75 48.25 -86.4 47.1 -88.15 45.75 -89.25 42.1 -89.25 36.6 -89.15 36.35 -89.25 36.25 -89.25 36.1 -89.4 36.1 M3.25 20.0 L0.85 20.25 Q-8.15 23.0 -16.4 10.5 L-17.4 8.75 -17.9 7.1 -18.0 6.85 -19.25 2.6 -19.9 -2.15 -19.9 -6.15 -20.75 -6.25 -19.9 10.5 -19.25 12.85 -19.5 14.0 -19.0 22.1 -18.65 22.35 -12.0 41.1 -11.5 41.25 -7.15 46.25 0.1 47.75 7.25 46.25 12.0 41.1 19.0 22.25 19.85 9.6 18.85 -0.65 18.5 3.0 17.6 6.25 Q15.5 16.35 3.25 20.0 M31.6 31.85 L30.25 32.6 29.6 33.35 30.1 33.35 31.6 31.85 M-41.75 -10.15 L-44.5 -6.4 -55.65 6.5 -68.75 20.75 -62.65 22.35 -47.15 6.75 -43.0 1.0 -41.25 -4.0 -41.75 -10.15 M-47.75 28.25 L-48.65 28.0 -46.65 30.85 -47.75 28.25" fill="#cecece" fill-opacity="0.0" fill-rule="evenodd" stroke="none"/>
    <path d="M36.1 -3.4 L37.1 -8.9 46.35 5.1 47.1 6.85 48.5 8.35 62.25 28.1 56.5 28.35 44.35 12.1 37.85 2.25 36.1 -3.4 M71.85 58.1 L69.0 57.85 61.85 67.35 57.0 73.1 40.1 91.0 34.1 95.5 28.6 98.6 27.35 98.85 26.75 98.35 23.1 94.6 21.1 91.85 19.85 87.85 19.75 83.1 17.5 84.1 -0.15 87.25 -17.75 84.1 -20.9 82.6 -21.0 88.6 -21.9 90.5 -22.0 91.0 -22.15 91.35 -22.25 91.5 -22.75 92.85 -24.65 95.0 -25.0 95.5 -28.4 98.85 -29.9 98.35 -35.25 95.25 -41.4 90.75 -53.0 78.6 -62.75 67.5 -70.75 56.85 -73.15 52.5 -73.4 50.85 -71.0 46.85 -78.25 48.25 -81.05 48.25 Q-68.8 48.0 -46.65 31.1 -47.65 34.6 -48.65 35.1 L-56.5 39.85 -55.15 41.75 -53.75 42.85 -58.65 41.25 -61.65 43.0 Q-39.15 52.0 -28.25 63.85 -26.9 61.35 -29.0 58.6 -21.75 65.5 -22.15 77.25 -1.15 85.25 21.35 77.6 20.5 66.25 26.6 59.75 L27.75 58.75 26.6 61.5 27.1 63.85 28.75 62.0 36.0 56.0 46.75 49.35 31.6 39.35 31.1 39.35 28.85 35.5 Q53.35 55.35 71.85 58.1 M-89.25 36.6 L-89.4 36.1 -89.25 36.1 -89.25 36.25 -89.15 36.35 -89.25 36.6 M3.25 20.0 Q15.5 16.35 17.6 6.25 L18.5 3.0 18.85 -0.65 19.85 9.6 19.0 22.25 12.0 41.1 7.25 46.25 0.1 47.75 -7.15 46.25 -11.5 41.25 -12.0 41.1 -18.65 22.35 -19.0 22.1 -19.5 14.0 -19.25 12.85 -19.9 10.5 -20.75 -6.25 -19.9 -6.15 -19.9 -2.15 -19.25 2.6 -18.0 6.85 -17.9 7.1 -17.4 8.75 -16.4 10.5 Q-8.15 23.0 0.85 20.25 L3.25 20.0 M31.6 31.85 L30.1 33.35 29.6 33.35 30.25 32.6 31.6 31.85 M-41.75 -10.15 L-41.25 -4.0 -43.0 1.0 -47.15 6.75 -62.65 22.35 -68.75 20.75 -55.65 6.5 -44.5 -6.4 -41.75 -10.15 M-47.75 28.25 L-46.65 30.85 -48.65 28.0 -47.75 28.25" fill="#000000" fill-opacity="0.49803922" fill-rule="evenodd" stroke="none"/>
  </g>
</svg>
