<?xml version="1.0" encoding="UTF-8" standalone="no"?>
<svg xmlns:ffdec="https://www.free-decompiler.com/flash" xmlns:xlink="http://www.w3.org/1999/xlink" ffdec:objectType="shape" height="163.4px" width="173.6px" xmlns="http://www.w3.org/2000/svg">
  <g transform="matrix(1.0, 0.0, 0.0, 1.0, 90.1, 64.4)">
    <path d="M-12.75 -16.25 L-15.25 -20.25 -15.25 -25.0 -10.25 -27.0 -1.5 -26.75 -0.25 -26.25 0.0 -26.5 0.75 -26.75 6.75 -27.5 Q13.75 -26.5 14.25 -25.0 L14.25 -20.5 12.0 -16.75 Q9.5 -12.0 -0.25 -15.5 L-7.25 -13.75 Q-13.0 -14.5 -12.75 -16.25 M17.5 6.5 L22.0 16.75 23.75 23.5 28.0 31.25 28.5 33.25 31.0 36.75 38.75 43.75 41.5 48.75 33.25 53.75 28.5 57.75 24.5 62.5 22.25 68.0 Q21.75 82.0 19.75 83.25 4.5 91.75 -21.75 81.75 L-22.25 70.0 -25.5 61.75 -30.5 56.75 -38.0 51.5 -28.75 35.75 -25.0 26.75 -22.25 17.5 -17.75 8.25 -17.5 8.25 Q-8.25 24.0 1.0 20.25 L2.5 20.25 3.25 20.0 Q14.0 18.25 17.5 6.5 M-3.5 -19.0 L-4.75 -19.75 -6.75 -20.5 -8.0 -20.0 -9.0 -18.75 -9.5 -17.5 -7.75 -15.75 -4.5 -15.75 -3.5 -17.25 -3.5 -19.0 M5.75 -20.5 L5.25 -20.25 4.5 -20.0 4.0 -19.75 3.75 -19.5 Q1.75 -19.25 3.75 -15.75 L7.0 -15.75 Q8.75 -17.5 8.25 -19.5 L7.0 -20.0 6.75 -20.0 5.75 -20.5" fill="#ffffff" fill-rule="evenodd" stroke="none"/>
    <path d="M5.75 -20.5 L6.75 -20.0 7.0 -20.0 8.25 -19.5 Q8.75 -17.5 7.0 -15.75 L3.75 -15.75 Q1.75 -19.25 3.75 -19.5 L4.0 -19.75 4.5 -20.0 5.25 -20.25 5.75 -20.5 M-3.5 -19.0 L-3.5 -17.25 -4.5 -15.75 -7.75 -15.75 -9.5 -17.5 -9.0 -18.75 -8.0 -20.0 -6.75 -20.5 -4.75 -19.75 -3.5 -19.0" fill="#000000" fill-rule="evenodd" stroke="none"/>
    <path d="M12.0 -16.75 Q14.0 -16.05 15.5 -14.5 L18.5 -10.25 19.25 -2.5 17.5 6.5 Q14.0 18.25 3.25 20.0 L2.5 20.25 1.0 20.25 Q-8.25 24.0 -17.5 8.25 L-17.75 8.25 Q-24.75 -12.0 -12.75 -16.25 -13.0 -14.5 -7.25 -13.75 L-0.25 -15.5 Q9.5 -12.0 12.0 -16.75 M41.5 48.75 L44.75 46.75 45.5 47.0 46.0 47.25 46.25 47.5 56.25 54.0 62.75 56.25 63.0 56.25 64.0 56.75 64.25 56.75 65.0 57.0 68.5 58.5 62.5 67.0 47.0 84.5 38.75 92.5 30.5 97.75 27.0 99.0 22.5 94.25 20.0 89.25 19.75 83.25 Q21.75 82.0 22.25 68.0 L24.5 62.5 28.5 57.75 33.25 53.75 41.5 48.75 M-21.75 81.75 L-21.75 84.75 -25.25 93.25 -31.0 98.25 -44.5 89.0 -50.25 82.25 -51.0 81.5 -51.0 81.25 -52.5 79.75 -53.25 78.75 -58.5 73.0 -71.0 56.25 -71.0 56.0 -71.75 55.25 -73.5 52.75 Q-74.5 51.5 -70.5 46.25 L-62.0 42.25 -61.25 42.0 -59.0 41.0 -51.25 43.75 Q-44.6 47.65 -38.0 51.5 L-30.5 56.75 -25.5 61.75 -22.25 70.0 -21.75 81.75" fill="#e58508" fill-rule="evenodd" stroke="none"/>
    <path d="M36.6 -8.9 L35.6 -3.15 Q36.75 -1.0 36.75 1.35 L44.5 13.6 54.5 27.5 60.35 27.75 57.6 23.25 46.0 6.6 36.6 -8.9 M-89.75 34.75 Q-92.4 29.5 -74.25 8.0 L-61.25 -7.75 -51.9 -17.9 -45.15 -23.75 Q-18.75 -62.25 -0.4 -64.4 7.25 -64.65 20.35 -52.65 L28.25 -44.5 44.35 -24.0 49.0 -16.9 50.85 -14.65 59.6 -1.5 70.85 17.5 81.6 37.75 Q84.1 42.1 83.35 46.0 L82.1 47.0 Q82.75 48.0 82.0 52.0 L79.1 57.35 77.6 58.5 70.35 58.25 Q51.75 53.75 28.1 32.1 L30.5 36.5 36.85 41.35 39.35 42.85 47.5 49.0 36.0 56.0 28.75 62.0 27.1 63.85 26.6 61.5 27.75 58.75 26.6 59.75 Q20.5 66.25 21.35 77.6 -1.15 85.25 -22.15 77.25 -21.75 65.5 -29.0 58.6 -26.9 61.35 -28.25 63.85 -37.4 53.1 -62.0 42.75 L-58.9 41.1 -53.75 42.85 -55.15 41.75 -56.65 39.75 -49.15 35.6 Q-48.5 35.5 -47.0 31.75 -67.05 46.55 -79.75 47.25 L-82.15 47.25 -86.65 45.85 -88.5 44.5 -89.65 40.85 -89.75 35.1 -89.65 35.5 -89.5 35.1 -89.65 34.85 -89.65 34.75 -89.75 34.75 M17.6 6.25 Q15.5 16.35 3.25 20.0 L0.85 20.25 Q-8.15 23.0 -16.4 10.5 L-17.4 8.75 -17.9 7.1 -18.0 6.85 -19.25 2.6 -19.9 -2.15 -19.9 -6.15 -20.75 -6.25 -19.9 10.5 -19.25 12.85 -19.5 14.0 -19.0 22.1 -18.65 22.35 -12.0 41.1 -11.5 41.25 -7.15 46.25 0.1 47.75 7.25 46.25 12.0 41.1 19.0 22.25 19.85 9.6 18.85 -0.65 18.5 3.0 17.6 6.25 M31.25 29.1 L29.5 30.25 30.0 30.25 31.25 29.1 M-49.15 28.35 L-47.15 31.5 -47.9 29.0 -49.15 28.35 M-41.9 -10.25 L-45.0 -6.15 -55.25 5.0 -55.9 6.1 -69.4 20.0 -63.25 22.0 -48.25 7.25 -43.5 1.1 -41.5 -4.4 -41.9 -10.25" fill="#cecece" fill-opacity="0.0" fill-rule="evenodd" stroke="none"/>
    <path d="M36.6 -8.9 L46.0 6.6 57.6 23.25 60.35 27.75 54.5 27.5 44.5 13.6 36.75 1.35 Q36.75 -1.0 35.6 -3.15 L36.6 -8.9 M70.35 58.25 L68.85 58.1 57.0 73.1 40.1 91.0 34.1 95.5 28.6 98.6 27.35 98.85 26.75 98.35 23.1 94.6 21.1 91.85 19.85 87.85 19.75 83.1 17.5 84.1 -0.15 87.25 -17.75 84.1 -20.9 82.6 -21.0 88.6 -21.9 90.5 -22.0 91.0 -22.15 91.35 -22.25 91.5 -22.75 92.85 -24.65 95.0 -25.0 95.5 -28.4 98.85 -29.9 98.35 -35.25 95.25 -41.4 90.75 -53.0 78.6 -62.75 67.5 -70.75 56.85 -73.15 52.5 -73.4 50.85 -70.5 46.1 -78.9 47.25 -79.75 47.25 Q-67.05 46.55 -47.0 31.75 -48.5 35.5 -49.15 35.6 L-56.65 39.75 -55.15 41.75 -53.75 42.85 -58.9 41.1 -62.0 42.75 Q-37.4 53.1 -28.25 63.85 -26.9 61.35 -29.0 58.6 -21.75 65.5 -22.15 77.25 -1.15 85.25 21.35 77.6 20.5 66.25 26.6 59.75 L27.75 58.75 26.6 61.5 27.1 63.85 28.75 62.0 36.0 56.0 47.5 49.0 39.35 42.85 36.85 41.35 30.5 36.5 28.1 32.1 Q51.75 53.75 70.35 58.25 M-89.75 35.1 L-89.75 34.75 -89.65 34.75 -89.65 34.85 -89.5 35.1 -89.65 35.5 -89.75 35.1 M17.6 6.25 L18.5 3.0 18.85 -0.65 19.85 9.6 19.0 22.25 12.0 41.1 7.25 46.25 0.1 47.75 -7.15 46.25 -11.5 41.25 -12.0 41.1 -18.65 22.35 -19.0 22.1 -19.5 14.0 -19.25 12.85 -19.9 10.5 -20.75 -6.25 -19.9 -6.15 -19.9 -2.15 -19.25 2.6 -18.0 6.85 -17.9 7.1 -17.4 8.75 -16.4 10.5 Q-8.15 23.0 0.85 20.25 L3.25 20.0 Q15.5 16.35 17.6 6.25 M31.25 29.1 L30.0 30.25 29.5 30.25 31.25 29.1 M-41.9 -10.25 L-41.5 -4.4 -43.5 1.1 -48.25 7.25 -63.25 22.0 -69.4 20.0 -55.9 6.1 -55.25 5.0 -45.0 -6.15 -41.9 -10.25 M-49.15 28.35 L-47.9 29.0 -47.15 31.5 -49.15 28.35" fill="#000000" fill-opacity="0.49803922" fill-rule="evenodd" stroke="none"/>
  </g>
</svg>
