<?xml version="1.0" encoding="UTF-8" standalone="no"?>
<svg xmlns:ffdec="https://www.free-decompiler.com/flash" xmlns:xlink="http://www.w3.org/1999/xlink" ffdec:objectType="shape" height="163.4px" width="173.0px" xmlns="http://www.w3.org/2000/svg">
  <g transform="matrix(1.0, 0.0, 0.0, 1.0, 90.4, 64.4)">
    <path d="M-12.75 -16.25 L-15.25 -20.25 -15.25 -25.0 -10.25 -27.0 -1.5 -26.75 -0.25 -26.25 0.0 -26.5 0.75 -26.75 6.75 -27.5 Q13.75 -26.5 14.25 -25.0 L14.25 -20.5 12.0 -16.75 Q9.5 -12.0 -0.25 -15.5 L-7.25 -13.75 Q-13.0 -14.5 -12.75 -16.25 M17.5 6.5 L22.0 16.75 23.75 23.5 29.75 34.75 Q32.75 39.5 38.75 43.75 L41.5 48.75 33.25 53.75 28.5 57.75 24.5 62.5 22.25 68.0 Q21.75 82.0 19.75 83.25 4.5 91.75 -21.75 81.75 L-22.25 70.0 -25.5 61.75 -30.5 56.75 -38.0 51.5 -28.75 35.75 -25.0 26.75 -22.25 17.5 -17.75 8.25 -17.5 8.25 Q-8.25 24.0 1.0 20.25 L2.5 20.25 3.25 20.0 Q14.0 18.25 17.5 6.5 M-3.5 -19.0 L-4.75 -19.75 -6.75 -20.5 -8.0 -20.0 -9.0 -18.75 -9.5 -17.5 -7.75 -15.75 -4.5 -15.75 -3.5 -17.25 -3.5 -19.0 M5.75 -20.5 L5.25 -20.25 4.5 -20.0 4.0 -19.75 3.75 -19.5 Q1.75 -19.25 3.75 -15.75 L7.0 -15.75 Q8.75 -17.5 8.25 -19.5 L7.0 -20.0 6.75 -20.0 5.75 -20.5" fill="#ffffff" fill-rule="evenodd" stroke="none"/>
    <path d="M5.75 -20.5 L6.75 -20.0 7.0 -20.0 8.25 -19.5 Q8.75 -17.5 7.0 -15.75 L3.75 -15.75 Q1.75 -19.25 3.75 -19.5 L4.0 -19.75 4.5 -20.0 5.25 -20.25 5.75 -20.5 M-3.5 -19.0 L-3.5 -17.25 -4.5 -15.75 -7.75 -15.75 -9.5 -17.5 -9.0 -18.75 -8.0 -20.0 -6.75 -20.5 -4.75 -19.75 -3.5 -19.0" fill="#000000" fill-rule="evenodd" stroke="none"/>
    <path d="M12.0 -16.75 Q14.0 -16.05 15.5 -14.5 L18.5 -10.25 19.25 -2.5 17.5 6.5 Q14.0 18.25 3.25 20.0 L2.5 20.25 1.0 20.25 Q-8.25 24.0 -17.5 8.25 L-17.75 8.25 Q-24.75 -12.0 -12.75 -16.25 -13.0 -14.5 -7.25 -13.75 L-0.25 -15.5 Q9.5 -12.0 12.0 -16.75 M41.5 48.75 L45.75 46.25 55.0 53.25 66.0 58.0 66.75 58.25 67.0 58.5 67.25 58.5 68.25 58.75 65.25 63.5 50.0 81.25 40.25 91.25 31.5 97.25 27.0 99.0 22.75 94.5 20.0 89.25 19.75 83.25 Q21.75 82.0 22.25 68.0 L24.5 62.5 28.5 57.75 33.25 53.75 41.5 48.75 M-21.75 81.75 L-21.75 84.75 -25.25 93.25 -31.0 98.25 -44.5 89.0 -50.25 82.25 -51.0 81.5 -51.0 81.25 -52.5 79.75 -53.25 78.75 -58.5 73.0 -71.0 56.25 -71.0 56.0 -71.75 55.25 Q-74.5 52.5 -73.25 50.25 L-70.25 45.5 -63.5 42.5 -63.25 42.5 -62.75 42.25 -59.5 41.0 -51.25 43.75 Q-44.6 47.65 -38.0 51.5 L-30.5 56.75 -25.5 61.75 -22.25 70.0 -21.75 81.75" fill="#e58508" fill-rule="evenodd" stroke="none"/>
    <path d="M36.1 -8.65 L35.25 -2.9 36.5 2.0 40.75 9.25 49.0 21.6 51.25 24.35 52.35 26.5 58.6 27.25 45.25 6.85 36.85 -7.9 36.1 -8.65 M-90.0 33.35 Q-92.75 28.35 -75.65 8.75 L-60.4 -9.25 -50.65 -19.4 -44.9 -24.0 Q-18.9 -62.15 -0.4 -64.4 7.25 -64.65 20.35 -52.65 L28.1 -44.65 44.0 -24.5 49.35 -16.25 49.35 -16.15 49.6 -15.9 59.75 -0.65 70.35 18.1 80.6 38.35 Q83.1 43.25 82.5 46.35 L82.25 47.0 82.1 47.0 80.6 48.0 81.1 48.0 80.75 52.6 79.6 55.1 Q77.1 59.6 74.5 59.0 L73.6 59.0 73.25 58.85 72.6 58.85 72.1 58.75 71.6 58.75 71.1 58.6 70.75 58.6 70.1 58.5 69.75 58.5 69.1 58.35 69.0 58.35 Q50.35 52.1 28.1 29.25 L30.0 33.5 31.5 35.0 48.1 48.6 36.0 56.0 28.75 62.0 27.1 63.85 26.6 61.5 27.75 58.75 26.6 59.75 Q20.5 66.25 21.35 77.6 -1.15 85.25 -22.15 77.25 -21.75 65.5 -29.0 58.6 -26.9 61.35 -28.25 63.85 -38.15 52.35 -62.5 42.6 L-59.4 41.1 -53.75 42.85 -55.15 41.75 -56.65 39.6 -50.0 36.25 -47.75 32.5 Q-66.85 45.85 -79.7 46.25 L-83.0 46.1 -87.15 44.5 -88.9 43.1 -90.0 39.35 -90.0 33.85 -89.75 33.85 -89.9 33.6 -90.0 33.35 M3.25 20.0 L0.85 20.25 Q-8.15 23.0 -16.4 10.5 L-17.4 8.75 -17.9 7.1 -18.0 6.85 -19.25 2.6 -19.9 -2.15 -19.9 -6.15 -20.75 -6.25 -19.9 10.5 -19.25 12.85 -19.5 14.0 -19.0 22.1 -18.65 22.35 -12.0 41.1 -11.5 41.25 -7.15 46.25 0.1 47.75 7.25 46.25 12.0 41.1 19.0 22.25 19.85 9.6 18.85 -0.65 18.5 3.0 17.6 6.25 Q15.5 16.35 3.25 20.0 M-48.75 29.35 L-49.9 29.0 -47.9 32.25 -48.75 29.35 M-42.15 -10.25 L-45.4 -6.15 -56.75 6.25 -69.75 19.35 -64.0 21.5 -47.75 6.0 -44.0 1.25 -41.9 -4.25 -42.15 -10.25" fill="#cecece" fill-opacity="0.0" fill-rule="evenodd" stroke="none"/>
    <path d="M36.1 -8.65 L36.85 -7.9 45.25 6.85 58.6 27.25 52.35 26.5 51.25 24.35 49.0 21.6 40.75 9.25 36.5 2.0 35.25 -2.9 36.1 -8.65 M82.1 47.0 L81.1 48.0 80.6 48.0 82.1 47.0 M69.0 58.35 L68.6 58.35 66.25 61.85 Q64.25 64.75 61.85 67.35 L57.0 73.1 40.1 91.0 34.1 95.5 28.6 98.6 27.35 98.85 26.75 98.35 23.1 94.6 21.1 91.85 19.85 87.85 19.75 83.1 17.5 84.1 -0.15 87.25 -17.75 84.1 -20.9 82.6 -21.0 88.6 -21.9 90.5 -22.0 91.0 -22.15 91.35 -22.25 91.5 -22.75 92.85 -24.65 95.0 -25.0 95.5 -28.4 98.85 -29.9 98.35 -35.25 95.25 -41.4 90.75 -57.9 73.25 -67.25 61.85 -70.75 56.85 -73.15 52.5 -73.4 50.85 -70.15 45.5 -79.0 46.25 -79.7 46.25 Q-66.85 45.85 -47.75 32.5 L-50.0 36.25 -56.65 39.6 -55.15 41.75 -53.75 42.85 -59.4 41.1 -62.5 42.6 Q-38.15 52.35 -28.25 63.85 -26.9 61.35 -29.0 58.6 -21.75 65.5 -22.15 77.25 -1.15 85.25 21.35 77.6 20.5 66.25 26.6 59.75 L27.75 58.75 26.6 61.5 27.1 63.85 28.75 62.0 36.0 56.0 48.1 48.6 31.5 35.0 30.0 33.5 28.1 29.25 Q50.35 52.1 69.0 58.35 M-90.0 33.85 L-90.0 33.35 -89.9 33.6 -89.75 33.85 -90.0 33.85 M3.25 20.0 Q15.5 16.35 17.6 6.25 L18.5 3.0 18.85 -0.65 19.85 9.6 19.0 22.25 12.0 41.1 7.25 46.25 0.1 47.75 -7.15 46.25 -11.5 41.25 -12.0 41.1 -18.65 22.35 -19.0 22.1 -19.5 14.0 -19.25 12.85 -19.9 10.5 -20.75 -6.25 -19.9 -6.15 -19.9 -2.15 -19.25 2.6 -18.0 6.85 -17.9 7.1 -17.4 8.75 -16.4 10.5 Q-8.15 23.0 0.85 20.25 L3.25 20.0 M-42.15 -10.25 L-41.9 -4.25 -44.0 1.25 -47.75 6.0 -64.0 21.5 -69.75 19.35 -56.75 6.25 -45.4 -6.15 -42.15 -10.25 M-48.75 29.35 L-47.9 32.25 -49.9 29.0 -48.75 29.35" fill="#000000" fill-opacity="0.49803922" fill-rule="evenodd" stroke="none"/>
  </g>
</svg>
