<?xml version="1.0" encoding="UTF-8" standalone="no"?>
<svg xmlns:ffdec="https://www.free-decompiler.com/flash" xmlns:xlink="http://www.w3.org/1999/xlink" ffdec:objectType="shape" height="163.4px" width="171.1px" xmlns="http://www.w3.org/2000/svg">
  <g transform="matrix(1.0, 0.0, 0.0, 1.0, 90.55, 64.4)">
    <path d="M-12.75 -16.25 L-15.25 -20.25 -15.25 -25.0 -10.25 -27.0 -1.5 -26.75 -0.25 -26.25 0.0 -26.5 0.75 -26.75 6.75 -27.5 Q13.75 -26.5 14.25 -25.0 L14.25 -20.5 12.0 -16.75 Q9.5 -12.0 -0.25 -15.5 L-7.25 -13.75 Q-13.0 -14.5 -12.75 -16.25 M17.5 6.5 L22.0 16.75 23.75 23.5 29.75 34.75 Q32.75 39.5 38.75 43.75 L41.5 48.75 33.25 53.75 28.5 57.75 24.5 62.5 22.25 68.0 Q21.75 82.0 19.75 83.25 4.5 91.75 -21.75 81.75 L-22.25 70.0 -25.5 61.75 -30.5 56.75 -38.0 51.5 -28.75 35.75 -25.0 26.75 -22.25 17.5 -17.75 8.25 -17.5 8.25 Q-8.25 24.0 1.0 20.25 L2.5 20.25 3.25 20.0 Q14.0 18.25 17.5 6.5 M-3.5 -19.0 L-4.75 -19.75 -6.75 -20.5 -8.0 -20.0 -9.0 -18.75 -9.5 -17.5 -7.75 -15.75 -4.5 -15.75 -3.5 -17.25 -3.5 -19.0 M5.75 -20.5 L5.25 -20.25 4.5 -20.0 4.0 -19.75 3.75 -19.5 Q1.75 -19.25 3.75 -15.75 L7.0 -15.75 Q8.75 -17.5 8.25 -19.5 L7.0 -20.0 6.75 -20.0 5.75 -20.5" fill="#ffffff" fill-rule="evenodd" stroke="none"/>
    <path d="M5.75 -20.5 L6.75 -20.0 7.0 -20.0 8.25 -19.5 Q8.75 -17.5 7.0 -15.75 L3.75 -15.75 Q1.75 -19.25 3.75 -19.5 L4.0 -19.75 4.5 -20.0 5.25 -20.25 5.75 -20.5 M-3.5 -19.0 L-3.5 -17.25 -4.5 -15.75 -7.75 -15.75 -9.5 -17.5 -9.0 -18.75 -8.0 -20.0 -6.75 -20.5 -4.75 -19.75 -3.5 -19.0" fill="#000000" fill-rule="evenodd" stroke="none"/>
    <path d="M12.0 -16.75 Q14.0 -16.05 15.5 -14.5 L18.5 -10.25 19.25 -2.5 17.5 6.5 Q14.0 18.25 3.25 20.0 L2.5 20.25 1.0 20.25 Q-8.25 24.0 -17.5 8.25 L-17.75 8.25 Q-24.75 -12.0 -12.75 -16.25 -13.0 -14.5 -7.25 -13.75 L-0.25 -15.5 Q9.5 -12.0 12.0 -16.75 M41.5 48.75 L46.75 45.75 47.0 45.75 52.75 51.0 62.25 57.0 62.75 57.25 63.5 57.75 67.75 59.5 64.25 64.75 47.25 84.25 38.25 92.75 30.75 97.75 27.0 99.0 22.5 94.25 20.0 89.25 19.75 83.25 Q21.75 82.0 22.25 68.0 L24.5 62.5 28.5 57.75 33.25 53.75 41.5 48.75 M-21.75 81.75 L-21.75 84.75 -25.25 93.25 -31.0 98.25 -44.5 89.0 -50.25 82.25 -51.0 81.5 -51.0 81.25 -52.5 79.75 -53.25 78.75 -58.5 73.0 -71.0 56.25 -71.0 56.0 -71.75 55.25 Q-74.5 52.5 -73.25 50.25 L-68.5 43.5 -66.5 42.75 -66.25 42.75 -59.5 40.75 -50.25 44.25 -38.0 51.5 -30.5 56.75 -25.5 61.75 -22.25 70.0 -21.75 81.75" fill="#e58508" fill-rule="evenodd" stroke="none"/>
    <path d="M-63.75 19.25 L-48.65 5.75 -44.9 1.25 -42.5 -4.25 -42.65 -10.15 -46.25 -5.75 -56.9 4.75 -57.25 5.5 -70.5 17.85 Q-68.0 19.25 -65.5 20.6 L-64.0 21.75 -63.9 21.75 -64.0 21.6 -63.75 19.25 M-90.15 30.6 Q-92.9 25.5 -75.5 6.6 L-62.65 -7.9 -61.25 -9.0 -61.4 -9.25 -50.4 -20.15 -44.65 -24.4 Q-19.25 -61.9 0.0 -64.4 6.5 -64.9 20.35 -52.65 L28.5 -44.25 44.85 -23.4 51.6 -12.5 51.6 -12.4 59.5 0.5 69.85 20.5 79.25 40.85 Q81.1 45.25 80.35 47.85 L79.75 48.6 77.85 49.25 78.5 49.5 78.5 49.85 Q77.6 58.35 72.5 60.1 L72.1 60.1 70.75 59.85 Q55.75 56.5 28.25 23.1 L30.0 28.35 32.25 30.35 38.6 37.6 46.6 45.85 49.1 48.0 36.0 56.0 28.75 62.0 27.1 63.85 26.6 61.5 27.75 58.75 26.6 59.75 Q20.5 66.25 21.35 77.6 -1.15 85.25 -22.15 77.25 -21.75 65.5 -29.0 58.6 -26.9 61.35 -28.25 63.85 -48.25 46.0 -63.9 42.35 L-60.0 40.85 -53.75 42.85 -55.15 41.75 -56.75 39.5 -52.65 37.75 Q-51.25 36.6 -50.4 34.35 L-55.5 38.0 -68.0 42.75 -74.5 44.35 Q-92.75 45.6 -90.15 31.25 L-90.0 30.85 -90.0 30.6 -90.15 30.6 M35.5 -8.15 L34.25 -2.75 Q34.75 -2.5 35.35 2.0 L37.75 6.0 38.0 7.1 38.35 7.25 39.35 9.35 48.5 23.85 54.6 25.1 43.85 7.0 43.1 6.25 42.5 4.35 42.0 4.0 35.5 -8.15 M-19.9 -2.15 L-19.9 -6.15 -20.75 -6.25 -19.9 10.5 -19.25 12.85 -19.5 14.0 -19.0 22.1 -18.65 22.35 -12.0 41.1 -11.5 41.25 -7.15 46.25 0.1 47.75 7.25 46.25 12.0 41.1 19.0 22.25 19.85 9.6 18.85 -0.65 18.5 3.0 17.6 6.25 Q15.5 16.35 3.25 20.0 L0.85 20.25 Q-8.15 23.0 -16.4 10.5 L-17.4 8.75 -17.9 7.1 -18.0 6.85 -19.25 2.6 -19.9 -2.15 M-50.9 31.0 Q-51.55 30.65 -52.25 30.25 L-50.4 34.1 -50.9 31.0" fill="#cecece" fill-opacity="0.0" fill-rule="evenodd" stroke="none"/>
    <path d="M-65.5 20.6 Q-68.0 19.25 -70.5 17.85 L-57.25 5.5 -56.9 4.75 -46.25 -5.75 -42.65 -10.15 -42.5 -4.25 -44.9 1.25 -48.65 5.75 -63.75 19.25 -65.5 20.6 M-64.0 21.6 L-63.9 21.75 -64.0 21.75 -64.0 21.6 M80.35 47.85 L80.1 48.75 78.5 49.85 78.5 49.5 77.85 49.25 79.75 48.6 80.35 47.85 M70.75 59.85 L68.0 59.35 57.0 73.1 40.1 91.0 38.25 92.5 30.25 97.75 28.6 98.6 27.35 98.85 26.75 98.35 23.1 94.6 21.1 91.85 19.85 87.85 19.75 83.1 17.5 84.1 -0.15 87.25 -17.75 84.1 -20.9 82.6 -21.0 88.6 -21.9 90.5 -22.0 91.0 -22.15 91.35 -22.25 91.5 -22.75 92.85 -24.65 95.0 -25.0 95.5 -28.4 98.85 -29.9 98.35 -35.25 95.25 -41.4 90.75 -57.9 73.25 -67.25 61.85 -70.75 56.85 -73.15 52.5 -73.4 50.85 -69.9 45.1 -68.75 43.85 -71.75 44.5 -74.5 44.35 -68.0 42.75 -55.5 38.0 -50.4 34.35 Q-51.25 36.6 -52.65 37.75 L-56.75 39.5 -55.15 41.75 -53.75 42.85 -60.0 40.85 -63.9 42.35 Q-48.25 46.0 -28.25 63.85 -26.9 61.35 -29.0 58.6 -21.75 65.5 -22.15 77.25 -1.15 85.25 21.35 77.6 20.5 66.25 26.6 59.75 L27.75 58.75 26.6 61.5 27.1 63.85 28.75 62.0 36.0 56.0 49.1 48.0 46.6 45.85 38.6 37.6 32.25 30.35 30.0 28.35 28.25 23.1 Q55.75 56.5 70.75 59.85 M-90.15 31.25 L-90.15 30.6 -90.0 30.6 -90.0 30.85 -90.15 31.25 M-19.9 -2.15 L-19.25 2.6 -18.0 6.85 -17.9 7.1 -17.4 8.75 -16.4 10.5 Q-8.15 23.0 0.85 20.25 L3.25 20.0 Q15.5 16.35 17.6 6.25 L18.5 3.0 18.85 -0.65 19.85 9.6 19.0 22.25 12.0 41.1 7.25 46.25 0.1 47.75 -7.15 46.25 -11.5 41.25 -12.0 41.1 -18.65 22.35 -19.0 22.1 -19.5 14.0 -19.25 12.85 -19.9 10.5 -20.75 -6.25 -19.9 -6.15 -19.9 -2.15 M35.5 -8.15 L42.0 4.0 42.5 4.35 43.1 6.25 43.85 7.0 54.6 25.1 48.5 23.85 39.35 9.35 38.35 7.25 38.0 7.1 37.75 6.0 35.35 2.0 Q34.75 -2.5 34.25 -2.75 L35.5 -8.15 M-50.9 31.0 L-50.4 34.1 -52.25 30.25 Q-51.55 30.65 -50.9 31.0" fill="#000000" fill-opacity="0.49803922" fill-rule="evenodd" stroke="none"/>
  </g>
</svg>
