<?xml version="1.0" encoding="UTF-8" standalone="no"?>
<svg xmlns:ffdec="https://www.free-decompiler.com/flash" xmlns:xlink="http://www.w3.org/1999/xlink" ffdec:objectType="shape" height="322.95px" width="363.65px" xmlns="http://www.w3.org/2000/svg">
  <g transform="matrix(1.0, 0.0, 0.0, 1.0, 182.2, 141.3)">
    <path d="M-127.5 39.75 L-126.0 38.75 -126.5 41.0 -127.5 39.75" fill="#e58508" fill-rule="evenodd" stroke="none"/>
    <path d="M-127.5 39.75 L-140.5 48.75 Q-147.5 65.85 -156.65 81.85 -164.05 94.7 -176.6 102.1 -177.8 102.85 -179.05 102.85 -181.6 102.9 -181.5 100.05 -181.15 86.5 -177.25 73.25 L-167.25 37.5 Q-156.8 17.1 -141.65 -0.4 L-136.15 -6.4 -97.2 -45.2 Q-75.75 -69.65 -60.0 -88.95 L-31.3 -124.05 Q-22.75 -134.5 -10.25 -139.25 5.05 -145.1 17.8 -134.15 60.0 -97.9 89.5 -49.75 L111.0 -32.75 135.5 -7.25 139.75 -2.2 Q147.85 6.85 155.9 18.6 158.1 21.55 162.15 29.75 166.2 37.9 170.3 50.9 174.4 63.85 177.8 79.8 178.75 84.1 180.15 88.25 182.5 95.1 180.6 101.55 180.35 102.45 179.5 102.85 175.5 102.65 172.5 100.05 165.7 94.2 160.55 86.85 147.9 68.75 139.75 48.25 L128.0 40.25 125.0 43.25 Q126.55 50.55 127.45 57.9 129.7 76.15 126.95 94.3 124.05 113.3 113.4 129.3 102.6 145.5 85.95 156.0 69.85 166.25 51.7 172.0 34.3 177.7 16.15 180.6 L7.25 181.15 Q-10.45 182.65 -28.1 179.75 -46.95 176.55 -65.0 169.7 -83.45 162.75 -98.2 149.75 -113.1 136.55 -120.55 118.2 -128.05 99.8 -128.85 79.85 -129.6 60.3 -126.5 41.0 L-126.0 38.75 -127.5 39.75" fill="#2e47aa" fill-rule="evenodd" stroke="none"/>
    <path d="M169.75 76.4 Q174.8 71.55 173.8 64.35 L173.6 62.65 Q178.75 79.15 180.95 96.25 181.4 99.55 180.25 102.5 L178.5 102.8 Q177.65 102.6 177.15 102.1 161.65 87.45 151.0 68.35 153.9 72.05 157.65 74.8 162.35 78.2 167.95 77.5 169.0 77.15 169.75 76.4 M150.5 47.0 Q151.25 47.0 151.75 47.35 L151.5 47.75 150.5 47.0 M-154.25 71.6 L-151.1 68.3 Q-159.9 85.2 -172.35 99.7 -175.85 103.7 -181.1 102.55 -182.75 99.4 -181.9 95.85 L-173.95 62.6 Q-175.4 69.3 -172.05 74.9 -168.35 81.2 -162.0 77.45 -157.75 74.95 -154.25 71.6 M140.0 48.25 L127.35 40.85 Q123.6 52.65 126.15 64.8 126.8 67.9 126.95 71.15 127.8 87.25 124.55 103.0 122.65 112.05 119.2 120.55 116.45 127.4 112.05 133.1 106.05 140.8 98.05 146.9 82.9 158.55 65.3 165.45 44.8 173.4 23.2 177.3 -0.75 181.35 -25.1 179.2 -51.25 176.65 -74.85 165.2 -94.15 155.9 -107.95 139.45 -115.3 130.65 -119.9 120.0 -123.5 111.55 -125.65 102.35 -132.95 71.2 -127.25 39.75 -135.05 46.55 -142.15 54.3 L-145.8 58.85 Q-144.55 54.3 -147.95 50.85 L-149.1 49.7 -150.5 48.5 Q-121.55 33.8 -96.75 13.0 -114.4 32.85 -123.65 57.65 -124.45 59.85 -124.65 62.1 -126.05 78.6 -122.0 94.7 -119.15 106.2 -113.15 116.4 -105.8 128.9 -95.35 139.0 -83.9 150.05 -69.2 156.5 -47.35 166.2 -23.6 168.8 L-9.35 169.65 Q5.95 169.3 20.9 165.7 46.7 159.65 70.35 147.85 85.55 140.35 97.25 128.1 111.35 113.35 118.8 94.45 123.25 83.1 123.75 70.85 124.05 63.1 122.35 55.6 121.8 53.2 120.7 51.1 110.15 31.15 96.75 13.0 121.55 33.55 150.25 48.25 146.55 50.2 145.5 54.25 L145.3 55.4 145.2 58.2 140.0 48.25" fill="#000000" fill-opacity="0.49803922" fill-rule="evenodd" stroke="none"/>
  </g>
</svg>
