<?xml version="1.0" encoding="UTF-8" standalone="no"?>
<svg xmlns:ffdec="https://www.free-decompiler.com/flash" xmlns:xlink="http://www.w3.org/1999/xlink" ffdec:objectType="shape" height="163.35px" width="175.65px" xmlns="http://www.w3.org/2000/svg">
  <g transform="matrix(1.0, 0.0, 0.0, 1.0, 98.9, 64.35)">
    <path d="M-12.75 -16.25 L-15.25 -20.25 -15.25 -25.0 -10.25 -27.0 -1.5 -26.75 -0.25 -26.25 0.0 -26.5 0.75 -26.75 6.75 -27.5 Q13.75 -26.5 14.25 -25.0 L14.25 -20.5 12.0 -16.75 Q9.5 -12.0 -0.25 -15.5 L-7.25 -13.75 Q-13.0 -14.5 -12.75 -16.25 M17.5 6.5 L22.0 16.75 23.75 23.5 29.75 34.75 Q32.75 39.5 38.75 43.75 L41.5 48.75 33.25 53.75 28.5 57.75 24.5 62.5 22.25 68.0 Q21.75 82.0 19.75 83.25 4.5 91.75 -21.75 81.75 L-22.25 70.0 -25.5 61.75 -30.5 56.75 -38.0 51.5 -28.75 35.75 -25.0 26.75 -22.25 17.5 -17.75 8.25 -17.5 8.25 Q-8.25 24.0 1.0 20.25 L2.5 20.25 3.25 20.0 Q14.0 18.25 17.5 6.5 M-3.5 -19.0 L-4.75 -19.75 -6.75 -20.5 -8.0 -20.0 -9.0 -18.75 -9.5 -17.5 -7.75 -15.75 -4.5 -15.75 -3.5 -17.25 -3.5 -19.0 M5.75 -20.5 L5.25 -20.25 4.5 -20.0 4.0 -19.75 3.75 -19.5 Q1.75 -19.25 3.75 -15.75 L7.0 -15.75 Q8.75 -17.5 8.25 -19.5 L7.0 -20.0 6.75 -20.0 5.75 -20.5" fill="#ffffff" fill-rule="evenodd" stroke="none"/>
    <path d="M5.75 -20.5 L6.75 -20.0 7.0 -20.0 8.25 -19.5 Q8.75 -17.5 7.0 -15.75 L3.75 -15.75 Q1.75 -19.25 3.75 -19.5 L4.0 -19.75 4.5 -20.0 5.25 -20.25 5.75 -20.5 M-3.5 -19.0 L-3.5 -17.25 -4.5 -15.75 -7.75 -15.75 -9.5 -17.5 -9.0 -18.75 -8.0 -20.0 -6.75 -20.5 -4.75 -19.75 -3.5 -19.0" fill="#000000" fill-rule="evenodd" stroke="none"/>
    <path d="M12.0 -16.75 Q14.0 -16.05 15.5 -14.5 L18.5 -10.25 19.25 -2.5 17.5 6.5 Q14.0 18.25 3.25 20.0 L2.5 20.25 1.0 20.25 Q-8.25 24.0 -17.5 8.25 L-17.75 8.25 Q-24.75 -12.0 -12.75 -16.25 -13.0 -14.5 -7.25 -13.75 L-0.25 -15.5 Q9.5 -12.0 12.0 -16.75 M41.5 48.75 L51.5 43.5 59.75 55.5 64.75 60.5 66.5 61.5 58.5 71.75 47.0 84.5 38.25 92.75 30.75 97.75 27.0 99.0 22.5 94.25 20.0 89.25 19.75 83.25 Q21.75 82.0 22.25 68.0 L24.5 62.5 28.5 57.75 33.25 53.75 41.5 48.75 M-21.75 81.75 L-21.75 84.75 -25.25 93.25 -31.0 98.25 -44.5 89.0 -50.25 82.25 -51.0 81.5 -51.0 81.25 -52.5 79.75 -53.25 78.75 -58.5 73.0 -71.0 56.25 -71.0 56.0 -71.75 55.25 -72.25 54.5 -71.5 54.5 -69.25 54.75 -58.5 54.75 Q-49.5 54.0 -54.5 47.25 L-59.25 41.0 -54.0 42.5 -38.0 51.5 -30.5 56.75 -25.5 61.75 -22.25 70.0 -21.75 81.75" fill="#e58508" fill-rule="evenodd" stroke="none"/>
    <path d="M-73.4 54.35 L-81.25 53.35 -91.9 48.75 -98.15 42.0 Q-99.4 32.6 -98.15 31.1 L-98.9 28.75 -97.65 24.1 -95.4 21.0 -81.15 5.75 -64.15 -10.75 -52.5 -20.5 -43.65 -25.9 -28.15 -45.4 -20.25 -53.65 Q-6.0 -66.25 3.25 -64.0 10.35 -63.15 28.35 -44.4 L44.85 -23.4 51.35 -13.25 56.5 -2.25 56.5 -2.15 56.6 -1.9 56.75 -1.65 66.85 20.25 75.0 41.0 76.75 47.25 76.25 50.1 73.75 50.75 73.6 52.6 72.0 57.85 Q70.35 61.35 68.1 61.35 L64.6 57.85 57.35 48.0 53.75 41.25 53.35 41.1 49.35 33.0 48.5 30.6 43.85 22.0 41.25 15.1 40.35 14.0 42.1 13.25 44.1 13.1 40.6 6.1 40.0 5.5 39.5 3.6 34.25 -7.4 Q29.75 0.0 40.1 14.75 L39.85 18.0 40.5 20.0 50.1 41.35 51.5 43.5 51.25 43.6 53.0 46.1 45.25 50.1 36.0 56.0 28.75 62.0 27.1 63.85 26.6 61.5 27.75 58.75 26.6 59.75 Q20.5 66.25 21.35 77.6 -1.15 85.25 -22.15 77.25 -21.75 65.5 -29.0 58.6 -26.9 61.35 -28.25 63.85 L-34.25 58.1 -41.75 52.85 -51.4 47.35 -56.5 45.0 -59.9 41.0 -53.75 42.85 -55.15 41.75 -60.4 35.1 -63.25 28.5 -63.9 21.5 -63.5 17.85 -50.65 7.75 -42.65 0.35 -40.4 -3.0 -40.4 -8.0 -42.4 -5.65 -42.75 -5.65 -54.9 5.85 -76.5 23.5 -77.15 23.0 -72.9 27.0 -72.4 27.35 -70.5 29.6 -69.9 29.85 -62.65 38.5 -62.25 39.35 -55.25 47.0 -53.75 51.25 -53.4 51.5 -53.4 51.6 -53.25 52.25 -53.4 52.5 -58.65 54.5 -73.4 54.35 M3.25 20.0 L0.85 20.25 Q-8.15 23.0 -16.4 10.5 L-17.4 8.75 -17.9 7.1 -18.0 6.85 -19.25 2.6 -19.9 -2.15 -19.9 -6.15 -20.75 -6.25 -19.9 10.5 -19.25 12.85 -19.5 14.0 -19.0 22.1 -18.65 22.35 -12.0 41.1 -11.5 41.25 -7.15 46.25 0.1 47.75 7.25 46.25 12.0 41.1 19.0 22.25 19.85 9.6 18.85 -0.65 18.5 3.0 17.6 6.25 Q15.5 16.35 3.25 20.0" fill="#cecece" fill-opacity="0.0" fill-rule="evenodd" stroke="none"/>
    <path d="M-73.4 54.35 L-58.65 54.5 -53.4 52.5 -53.25 52.25 -53.4 51.6 -53.4 51.5 -53.75 51.25 -55.25 47.0 -62.25 39.35 -62.65 38.5 -69.9 29.85 -70.5 29.6 -72.4 27.35 -68.9 30.5 -63.9 36.25 -64.4 29.1 -63.9 21.5 -63.25 28.5 -60.4 35.1 -55.15 41.75 -53.75 42.85 -59.9 41.0 -56.5 45.0 -51.4 47.35 -41.75 52.85 -34.25 58.1 -28.25 63.85 Q-26.9 61.35 -29.0 58.6 -21.75 65.5 -22.15 77.25 -1.15 85.25 21.35 77.6 20.5 66.25 26.6 59.75 L27.75 58.75 26.6 61.5 27.1 63.85 28.75 62.0 36.0 56.0 45.25 50.1 53.0 46.1 51.25 43.6 51.5 43.5 50.1 41.35 40.5 20.0 39.85 18.0 40.1 14.75 Q29.75 0.0 34.25 -7.4 L39.5 3.6 40.0 5.5 40.6 6.1 44.1 13.1 42.1 13.25 40.35 14.0 41.25 15.1 43.85 22.0 48.5 30.6 49.35 33.0 53.35 41.1 53.75 41.25 57.35 48.0 64.6 57.85 68.1 61.35 66.75 61.1 66.25 61.85 57.0 73.1 40.1 91.0 38.25 92.5 30.25 97.75 28.6 98.6 27.35 98.85 26.75 98.35 23.1 94.6 21.1 91.85 19.85 87.85 19.75 83.1 17.5 84.1 -0.15 87.25 -17.75 84.1 -20.9 82.6 -21.0 88.6 -21.9 90.5 -22.0 91.0 -22.15 91.35 -22.25 91.5 -22.75 92.85 -24.65 95.0 -25.0 95.5 -28.4 98.85 -29.9 98.35 -35.25 95.25 -41.4 90.75 -57.9 73.25 -67.25 61.85 -70.75 56.85 -72.0 54.6 -73.4 54.35 M-72.9 27.0 L-77.15 23.0 -76.5 23.5 -54.9 5.85 -42.75 -5.65 -42.4 -5.65 -40.4 -8.0 -40.4 -3.0 -42.65 0.35 -50.65 7.75 -63.5 17.85 -73.9 25.85 -72.9 27.0 M73.6 52.6 L73.75 50.75 76.25 50.1 75.85 51.35 73.6 52.6 M3.25 20.0 Q15.5 16.35 17.6 6.25 L18.5 3.0 18.85 -0.65 19.85 9.6 19.0 22.25 12.0 41.1 7.25 46.25 0.1 47.75 -7.15 46.25 -11.5 41.25 -12.0 41.1 -18.65 22.35 -19.0 22.1 -19.5 14.0 -19.25 12.85 -19.9 10.5 -20.75 -6.25 -19.9 -6.15 -19.9 -2.15 -19.25 2.6 -18.0 6.85 -17.9 7.1 -17.4 8.75 -16.4 10.5 Q-8.15 23.0 0.85 20.25 L3.25 20.0" fill="#000000" fill-opacity="0.49803922" fill-rule="evenodd" stroke="none"/>
  </g>
</svg>
