<?xml version="1.0" encoding="UTF-8" standalone="no"?>
<svg xmlns:ffdec="https://www.free-decompiler.com/flash" xmlns:xlink="http://www.w3.org/1999/xlink" ffdec:objectType="shape" height="163.35px" width="175.4px" xmlns="http://www.w3.org/2000/svg">
  <g transform="matrix(1.0, 0.0, 0.0, 1.0, 98.65, 64.35)">
    <path d="M-12.75 -16.25 L-15.25 -20.25 -15.25 -25.0 -10.25 -27.0 -1.5 -26.75 -0.25 -26.25 0.0 -26.5 0.75 -26.75 6.75 -27.5 Q13.75 -26.5 14.25 -25.0 L14.25 -20.5 12.0 -16.75 Q9.5 -12.0 -0.25 -15.5 L-7.25 -13.75 Q-13.0 -14.5 -12.75 -16.25 M17.5 6.5 L22.0 16.75 23.75 23.5 29.75 34.75 Q32.75 39.5 38.75 43.75 L41.5 48.75 33.25 53.75 28.5 57.75 24.5 62.5 22.25 68.0 Q21.75 82.0 19.75 83.25 4.5 91.75 -21.75 81.75 L-22.25 70.0 -25.5 61.75 -30.5 56.75 -38.0 51.5 -28.75 35.75 -25.0 26.75 -22.25 17.5 -17.75 8.25 -17.5 8.25 Q-8.25 24.0 1.0 20.25 L2.5 20.25 3.25 20.0 Q14.0 18.25 17.5 6.5 M-3.5 -19.0 L-4.75 -19.75 -6.75 -20.5 -8.0 -20.0 -9.0 -18.75 -9.5 -17.5 -7.75 -15.75 -4.5 -15.75 -3.5 -17.25 -3.5 -19.0 M5.75 -20.5 L5.25 -20.25 4.5 -20.0 4.0 -19.75 3.75 -19.5 Q1.75 -19.25 3.75 -15.75 L7.0 -15.75 Q8.75 -17.5 8.25 -19.5 L7.0 -20.0 6.75 -20.0 5.75 -20.5" fill="#ffffff" fill-rule="evenodd" stroke="none"/>
    <path d="M5.75 -20.5 L6.75 -20.0 7.0 -20.0 8.25 -19.5 Q8.75 -17.5 7.0 -15.75 L3.75 -15.75 Q1.75 -19.25 3.75 -19.5 L4.0 -19.75 4.5 -20.0 5.25 -20.25 5.75 -20.5 M-3.5 -19.0 L-3.5 -17.25 -4.5 -15.75 -7.75 -15.75 -9.5 -17.5 -9.0 -18.75 -8.0 -20.0 -6.75 -20.5 -4.75 -19.75 -3.5 -19.0" fill="#000000" fill-rule="evenodd" stroke="none"/>
    <path d="M12.0 -16.75 Q14.0 -16.05 15.5 -14.5 L18.5 -10.25 19.25 -2.5 17.5 6.5 Q14.0 18.25 3.25 20.0 L2.5 20.25 1.0 20.25 Q-8.25 24.0 -17.5 8.25 L-17.75 8.25 Q-24.75 -12.0 -12.75 -16.25 -13.0 -14.5 -7.25 -13.75 L-0.25 -15.5 Q9.5 -12.0 12.0 -16.75 M41.5 48.75 L50.75 44.0 59.5 56.0 64.0 60.0 66.5 61.5 58.5 71.75 47.0 84.5 38.25 92.75 30.75 97.75 27.0 99.0 22.5 94.25 20.0 89.25 19.75 83.25 Q21.75 82.0 22.25 68.0 L24.5 62.5 28.5 57.75 33.25 53.75 41.5 48.75 M-21.75 81.75 L-21.75 84.75 -25.25 93.25 -31.0 98.25 -44.5 89.0 -50.25 82.25 -51.0 81.5 -51.0 81.25 -52.5 79.75 -53.25 78.75 -58.5 73.0 -71.0 56.25 -71.0 56.0 -71.75 55.25 -72.0 54.75 -66.25 55.0 -56.5 54.5 Q-47.5 52.75 -52.75 46.75 L-57.0 41.5 -51.25 43.75 Q-44.6 47.65 -38.0 51.5 L-30.5 56.75 -25.5 61.75 -22.25 70.0 -21.75 81.75" fill="#e58508" fill-rule="evenodd" stroke="none"/>
    <path d="M-73.25 54.75 L-79.9 54.0 -91.0 49.85 -97.5 43.35 Q-99.15 33.75 -97.75 32.35 L-98.65 30.1 -97.5 25.5 -94.65 21.5 -85.0 11.35 -80.9 6.5 -64.4 -10.0 -52.65 -20.15 -43.75 -25.65 -28.15 -45.4 -20.25 -53.65 Q-6.0 -66.25 3.25 -64.0 10.35 -63.15 28.35 -44.4 L44.85 -23.4 51.35 -13.25 56.35 -2.5 56.35 -2.4 56.5 -2.15 66.25 18.75 75.5 42.1 76.75 46.85 76.35 50.0 75.75 50.5 73.6 50.75 73.5 52.6 Q71.1 62.25 67.85 61.35 L64.6 58.5 56.35 48.35 56.35 47.85 52.6 42.0 52.0 41.5 48.6 34.75 48.0 34.1 47.0 31.5 46.6 31.35 42.0 22.85 39.25 16.35 38.5 15.35 Q35.85 19.75 50.5 44.0 L52.1 46.6 45.25 50.1 36.0 56.0 28.75 62.0 27.1 63.85 26.6 61.5 27.75 58.75 26.6 59.75 Q20.5 66.25 21.35 77.6 -1.15 85.25 -22.15 77.25 -21.75 65.5 -29.0 58.6 -26.9 61.35 -28.25 63.85 L-32.4 59.6 -39.15 54.6 -47.15 49.6 -52.4 47.0 -57.65 41.6 -53.75 42.85 -55.15 41.75 -60.4 35.1 -63.25 28.5 -63.9 21.5 -63.65 19.0 -49.5 7.35 -42.0 0.1 -39.9 -3.4 -40.0 -8.0 -41.9 -5.75 -54.5 6.35 -75.9 24.1 -73.15 26.5 -69.0 30.1 -68.75 30.25 -60.0 40.0 -53.4 46.5 -51.25 51.35 -51.25 51.6 -51.15 51.85 -51.25 52.0 -56.9 54.25 -73.25 54.75 M41.85 14.1 L45.75 16.25 39.85 5.25 39.35 3.5 34.25 -7.25 Q30.1 0.5 39.85 14.5 L41.85 14.1 M-19.9 -2.15 L-19.9 -6.15 -20.75 -6.25 -19.9 10.5 -19.25 12.85 -19.5 14.0 -19.0 22.1 -18.65 22.35 -12.0 41.1 -11.5 41.25 -7.15 46.25 0.1 47.75 7.25 46.25 12.0 41.1 19.0 22.25 19.85 9.6 18.85 -0.65 18.5 3.0 17.6 6.25 Q15.5 16.35 3.25 20.0 L0.85 20.25 Q-8.15 23.0 -16.4 10.5 L-17.4 8.75 -17.9 7.1 -18.0 6.85 -19.25 2.6 -19.9 -2.15" fill="#cecece" fill-opacity="0.0" fill-rule="evenodd" stroke="none"/>
    <path d="M76.35 50.0 L75.85 51.35 73.5 52.6 73.6 50.75 75.75 50.5 76.35 50.0 M67.85 61.35 L66.6 61.25 66.25 61.85 57.0 73.1 40.1 91.0 38.25 92.5 30.25 97.75 28.6 98.6 27.35 98.85 26.75 98.35 23.1 94.6 21.1 91.85 19.85 87.85 19.75 83.1 17.5 84.1 -0.15 87.25 -17.75 84.1 -20.9 82.6 -21.0 88.6 -21.9 90.5 -22.0 91.0 -22.15 91.35 -22.25 91.5 -22.75 92.85 -24.65 95.0 -25.0 95.5 -28.4 98.85 -29.9 98.35 -35.25 95.25 -41.4 90.75 -57.9 73.25 -67.25 61.85 -72.0 54.75 -73.25 54.75 -56.9 54.25 -51.25 52.0 -51.15 51.85 -51.25 51.6 -51.25 51.35 -53.4 46.5 -60.0 40.0 -68.75 30.25 -64.0 34.75 -64.4 29.1 -63.9 21.5 -63.25 28.5 -60.4 35.1 -55.15 41.75 -53.75 42.85 -57.65 41.6 -52.4 47.0 -47.15 49.6 -39.15 54.6 -32.4 59.6 -28.25 63.85 Q-26.9 61.35 -29.0 58.6 -21.75 65.5 -22.15 77.25 -1.15 85.25 21.35 77.6 20.5 66.25 26.6 59.75 L27.75 58.75 26.6 61.5 27.1 63.85 28.75 62.0 36.0 56.0 45.25 50.1 52.1 46.6 50.5 44.0 Q35.85 19.75 38.5 15.35 L39.25 16.35 42.0 22.85 46.6 31.35 47.0 31.5 48.0 34.1 48.6 34.75 52.0 41.5 52.6 42.0 56.35 47.85 56.35 48.35 64.6 58.5 67.85 61.35 M-73.15 26.5 L-75.9 24.1 -54.5 6.35 -41.9 -5.75 -40.0 -8.0 -39.9 -3.4 -42.0 0.1 -49.5 7.35 -63.65 19.0 -73.15 26.5 M-19.9 -2.15 L-19.25 2.6 -18.0 6.85 -17.9 7.1 -17.4 8.75 -16.4 10.5 Q-8.15 23.0 0.85 20.25 L3.25 20.0 Q15.5 16.35 17.6 6.25 L18.5 3.0 18.85 -0.65 19.85 9.6 19.0 22.25 12.0 41.1 7.25 46.25 0.1 47.75 -7.15 46.25 -11.5 41.25 -12.0 41.1 -18.65 22.35 -19.0 22.1 -19.5 14.0 -19.25 12.85 -19.9 10.5 -20.75 -6.25 -19.9 -6.15 -19.9 -2.15 M41.85 14.1 L39.85 14.5 Q30.1 0.5 34.25 -7.25 L39.35 3.5 39.85 5.25 45.75 16.25 41.85 14.1" fill="#000000" fill-opacity="0.49803922" fill-rule="evenodd" stroke="none"/>
  </g>
</svg>
