<?xml version="1.0" encoding="UTF-8" standalone="no"?>
<svg xmlns:ffdec="https://www.free-decompiler.com/flash" xmlns:xlink="http://www.w3.org/1999/xlink" ffdec:objectType="shape" height="163.35px" width="174.75px" xmlns="http://www.w3.org/2000/svg">
  <g transform="matrix(1.0, 0.0, 0.0, 1.0, 97.75, 64.35)">
    <path d="M-12.75 -16.25 L-15.25 -20.25 -15.25 -25.0 -10.25 -27.0 -1.5 -26.75 -0.25 -26.25 0.0 -26.5 0.75 -26.75 6.75 -27.5 Q13.75 -26.5 14.25 -25.0 L14.25 -20.5 12.0 -16.75 Q9.5 -12.0 -0.25 -15.5 L-7.25 -13.75 Q-13.0 -14.5 -12.75 -16.25 M17.5 6.5 L22.0 16.75 23.75 23.5 29.75 34.75 Q32.75 39.5 38.75 43.75 L41.5 48.75 33.25 53.75 28.5 57.75 24.5 62.5 22.25 68.0 Q21.75 82.0 19.75 83.25 4.5 91.75 -21.75 81.75 L-22.25 70.0 -25.5 61.75 -30.5 56.75 -38.0 51.5 -28.75 35.75 -25.0 26.75 -22.25 17.5 -17.75 8.25 -17.5 8.25 Q-8.25 24.0 1.0 20.25 L2.5 20.25 3.25 20.0 Q14.0 18.25 17.5 6.5 M-3.5 -19.0 L-4.75 -19.75 -6.75 -20.5 -8.0 -20.0 -9.0 -18.75 -9.5 -17.5 -7.75 -15.75 -4.5 -15.75 -3.5 -17.25 -3.5 -19.0 M5.75 -20.5 L5.25 -20.25 4.5 -20.0 4.0 -19.75 3.75 -19.5 Q1.75 -19.25 3.75 -15.75 L7.0 -15.75 Q8.75 -17.5 8.25 -19.5 L7.0 -20.0 6.75 -20.0 5.75 -20.5" fill="#ffffff" fill-rule="evenodd" stroke="none"/>
    <path d="M5.75 -20.5 L6.75 -20.0 7.0 -20.0 8.25 -19.5 Q8.75 -17.5 7.0 -15.75 L3.75 -15.75 Q1.75 -19.25 3.75 -19.5 L4.0 -19.75 4.5 -20.0 5.25 -20.25 5.75 -20.5 M-3.5 -19.0 L-3.5 -17.25 -4.5 -15.75 -7.75 -15.75 -9.5 -17.5 -9.0 -18.75 -8.0 -20.0 -6.75 -20.5 -4.75 -19.75 -3.5 -19.0" fill="#000000" fill-rule="evenodd" stroke="none"/>
    <path d="M12.0 -16.75 Q14.0 -16.05 15.5 -14.5 L18.5 -10.25 19.25 -2.5 17.5 6.5 Q14.0 18.25 3.25 20.0 L2.5 20.25 1.0 20.25 Q-8.25 24.0 -17.5 8.25 L-17.75 8.25 Q-24.75 -12.0 -12.75 -16.25 -13.0 -14.5 -7.25 -13.75 L-0.25 -15.5 Q9.5 -12.0 12.0 -16.75 M41.5 48.75 L46.5 46.0 51.5 51.5 59.5 58.0 60.0 58.5 60.75 59.5 66.25 61.75 61.25 68.5 47.0 84.5 38.25 92.75 30.75 97.75 27.0 99.0 22.5 94.25 20.0 89.25 19.75 83.25 Q21.75 82.0 22.25 68.0 L24.5 62.5 28.5 57.75 33.25 53.75 41.5 48.75 M-21.75 81.75 L-21.75 84.75 -25.25 93.25 -31.0 98.25 -44.5 89.0 -50.25 82.25 -51.0 81.5 -51.0 81.25 -52.5 79.75 -53.25 78.75 -58.5 73.0 -71.0 56.25 -71.0 56.0 -71.75 55.25 -61.25 55.0 -52.5 53.5 Q-43.0 51.75 -48.75 45.75 L-49.25 45.0 -38.0 51.5 -30.5 56.75 -25.5 61.75 -22.25 70.0 -21.75 81.75" fill="#e58508" fill-rule="evenodd" stroke="none"/>
    <path d="M34.1 -7.15 L32.6 -2.25 Q33.85 1.35 33.5 2.0 L37.85 11.1 43.6 21.6 49.5 23.25 40.0 5.75 39.35 3.75 34.1 -7.15 M-71.75 55.1 L-77.15 55.0 -89.0 51.85 -96.15 45.85 Q-98.15 37.6 -96.75 34.6 L-97.75 32.6 -96.9 28.25 -94.5 24.6 -80.0 7.75 -63.15 -10.0 -53.0 -19.25 -44.0 -25.4 -28.15 -45.4 -20.25 -53.65 Q-6.0 -66.25 3.25 -64.0 10.5 -63.0 28.1 -44.65 L45.25 -22.9 51.0 -13.9 58.6 1.35 63.85 13.0 76.0 42.85 Q77.6 47.6 76.6 49.75 L75.85 50.35 73.5 50.6 74.0 51.75 73.85 52.35 Q70.85 62.35 67.75 61.6 L62.75 59.25 62.6 58.75 53.0 50.75 47.75 44.75 42.5 37.75 41.0 35.1 35.0 27.5 31.75 21.35 31.0 20.6 Q29.25 25.1 46.5 46.0 L48.5 48.35 36.0 56.0 28.75 62.0 27.1 63.85 26.6 61.5 27.75 58.75 26.6 59.75 Q20.5 66.25 21.35 77.6 -1.15 85.25 -22.15 77.25 -21.75 65.5 -29.0 58.6 -26.9 61.35 -28.25 63.85 L-32.4 59.6 -37.25 55.85 -47.0 50.0 -46.9 50.6 -47.15 50.75 -53.25 53.35 -70.4 55.1 -71.75 55.1 M3.25 20.0 L0.85 20.25 Q-8.15 23.0 -16.4 10.5 L-17.4 8.75 -17.9 7.1 -18.0 6.85 -19.25 2.6 -19.9 -2.15 -19.9 -6.15 -20.75 -6.25 -19.9 10.5 -19.25 12.85 -19.5 14.0 -19.0 22.1 -18.65 22.35 -12.0 41.1 -11.5 41.25 -7.15 46.25 0.1 47.75 7.25 46.25 12.0 41.1 19.0 22.25 19.85 9.6 18.85 -0.65 18.5 3.0 17.6 6.25 Q15.5 16.35 3.25 20.0 M-64.15 21.6 L-49.25 8.5 -41.25 0.35 -39.15 -3.15 Q-38.75 -7.0 -39.4 -8.0 L-50.75 4.1 -74.0 25.35 -71.0 27.35 -64.65 32.25 -64.15 32.75 -63.9 32.85 -62.4 34.25 -62.0 34.5 -56.9 39.35 -49.4 45.35 -47.15 49.75 -47.9 46.75 -49.15 45.25 -49.5 45.0 -58.5 37.5 -60.5 34.75 -63.4 28.25 -64.05 22.5 -64.0 21.6 -64.15 21.6" fill="#cecece" fill-opacity="0.0" fill-rule="evenodd" stroke="none"/>
    <path d="M34.1 -7.15 L39.35 3.75 40.0 5.75 49.5 23.25 43.6 21.6 37.85 11.1 33.5 2.0 Q33.85 1.35 32.6 -2.25 L34.1 -7.15 M76.6 49.75 L76.25 51.1 73.85 52.35 74.0 51.75 73.5 50.6 75.85 50.35 76.6 49.75 M67.75 61.6 L66.6 61.5 66.25 61.85 57.0 73.1 40.1 91.0 34.1 95.5 28.6 98.6 27.35 98.85 26.75 98.35 23.1 94.6 21.1 91.85 19.85 87.85 19.75 83.1 17.5 84.1 -0.15 87.25 -17.75 84.1 -20.9 82.6 -21.0 88.6 -21.9 90.5 -22.0 91.0 -22.15 91.35 -22.25 91.5 -22.75 92.85 -24.65 95.0 -25.0 95.5 -28.4 98.85 -29.9 98.35 -35.25 95.25 -41.4 90.75 -57.9 73.25 -67.25 61.85 -70.75 56.85 -71.75 55.1 -70.4 55.1 -53.25 53.35 -47.15 50.75 -46.9 50.6 -47.0 50.0 -37.25 55.85 -32.4 59.6 -28.25 63.85 Q-26.9 61.35 -29.0 58.6 -21.75 65.5 -22.15 77.25 -1.15 85.25 21.35 77.6 20.5 66.25 26.6 59.75 L27.75 58.75 26.6 61.5 27.1 63.85 28.75 62.0 36.0 56.0 48.5 48.35 46.5 46.0 Q29.25 25.1 31.0 20.6 L31.75 21.35 35.0 27.5 41.0 35.1 42.5 37.75 47.75 44.75 53.0 50.75 62.6 58.75 62.75 59.25 67.75 61.6 M3.25 20.0 Q15.5 16.35 17.6 6.25 L18.5 3.0 18.85 -0.65 19.85 9.6 19.0 22.25 12.0 41.1 7.25 46.25 0.1 47.75 -7.15 46.25 -11.5 41.25 -12.0 41.1 -18.65 22.35 -19.0 22.1 -19.5 14.0 -19.25 12.85 -19.9 10.5 -20.75 -6.25 -19.9 -6.15 -19.9 -2.15 -19.25 2.6 -18.0 6.85 -17.9 7.1 -17.4 8.75 -16.4 10.5 Q-8.15 23.0 0.85 20.25 L3.25 20.0 M-71.0 27.35 L-74.0 25.35 -50.75 4.1 -39.4 -8.0 Q-38.75 -7.0 -39.15 -3.15 L-41.25 0.35 -49.25 8.5 -64.15 21.6 -71.0 27.35 M-64.05 22.5 L-63.4 28.25 -60.5 34.75 -58.5 37.5 -49.5 45.0 -49.15 45.25 -47.9 46.75 -47.15 49.75 -49.4 45.35 -56.9 39.35 -62.0 34.5 -62.4 34.25 -63.9 32.85 -64.15 32.75 -64.65 32.25 -64.25 32.5 -64.4 29.1 -64.05 22.5" fill="#000000" fill-opacity="0.49803922" fill-rule="evenodd" stroke="none"/>
  </g>
</svg>
