<?xml version="1.0" encoding="UTF-8" standalone="no"?>
<svg xmlns:ffdec="https://www.free-decompiler.com/flash" xmlns:xlink="http://www.w3.org/1999/xlink" ffdec:objectType="shape" height="163.35px" width="173.85px" xmlns="http://www.w3.org/2000/svg">
  <g transform="matrix(1.0, 0.0, 0.0, 1.0, 96.5, 64.35)">
    <path d="M-12.75 -16.25 L-15.25 -20.25 -15.25 -25.0 -10.25 -27.0 -1.5 -26.75 -0.25 -26.25 0.0 -26.5 0.75 -26.75 6.75 -27.5 Q13.75 -26.5 14.25 -25.0 L14.25 -20.5 12.0 -16.75 Q9.5 -12.0 -0.25 -15.5 L-7.25 -13.75 Q-13.0 -14.5 -12.75 -16.25 M17.5 6.5 L25.0 25.5 24.25 25.5 20.0 28.0 22.5 33.25 36.5 45.75 37.25 46.25 40.5 49.25 28.75 57.5 24.5 62.5 22.25 68.0 Q21.75 82.0 19.75 83.25 4.5 91.75 -21.75 81.75 L-22.25 70.0 -25.5 61.75 -30.5 56.75 -38.0 51.5 -28.75 35.75 -25.0 26.75 -22.25 17.5 -17.75 8.25 -17.5 8.25 Q-8.25 24.0 1.0 20.25 L2.5 20.25 3.25 20.0 Q14.0 18.25 17.5 6.5 M-3.5 -19.0 L-4.75 -19.75 -6.75 -20.5 -8.0 -20.0 -9.0 -18.75 -9.5 -17.5 -7.75 -15.75 -4.5 -15.75 -3.5 -17.25 -3.5 -19.0 M5.75 -20.5 L5.25 -20.25 4.5 -20.0 4.0 -19.75 3.75 -19.5 Q1.75 -19.25 3.75 -15.75 L7.0 -15.75 Q8.75 -17.5 8.25 -19.5 L7.0 -20.0 6.75 -20.0 5.75 -20.5" fill="#ffffff" fill-rule="evenodd" stroke="none"/>
    <path d="M5.75 -20.5 L6.75 -20.0 7.0 -20.0 8.25 -19.5 Q8.75 -17.5 7.0 -15.75 L3.75 -15.75 Q1.75 -19.25 3.75 -19.5 L4.0 -19.75 4.5 -20.0 5.25 -20.25 5.75 -20.5 M-3.5 -19.0 L-3.5 -17.25 -4.5 -15.75 -7.75 -15.75 -9.5 -17.5 -9.0 -18.75 -8.0 -20.0 -6.75 -20.5 -4.75 -19.75 -3.5 -19.0" fill="#000000" fill-rule="evenodd" stroke="none"/>
    <path d="M12.0 -16.75 Q14.0 -16.05 15.5 -14.5 L18.5 -10.25 19.25 -2.5 17.5 6.5 Q14.0 18.25 3.25 20.0 L2.5 20.25 1.0 20.25 Q-8.25 24.0 -17.5 8.25 L-17.75 8.25 Q-24.75 -12.0 -12.75 -16.25 -13.0 -14.5 -7.25 -13.75 L-0.25 -15.5 Q9.5 -12.0 12.0 -16.75 M40.5 49.25 L46.5 54.25 55.75 58.75 56.5 59.25 61.75 61.5 66.25 62.0 47.0 84.5 38.25 92.75 30.75 97.75 27.0 99.0 22.5 94.25 20.0 89.25 19.75 83.25 Q21.75 82.0 22.25 68.0 L24.5 62.5 28.75 57.5 40.5 49.25 M-21.75 81.75 L-21.75 84.75 -25.25 93.25 -31.0 98.25 -44.5 89.0 -50.25 82.25 -51.0 81.5 -51.0 81.25 -52.5 79.75 -53.25 78.75 -58.5 73.0 -71.0 56.25 -71.0 56.0 -71.25 55.75 -59.0 54.75 -48.0 52.0 -45.5 51.75 -42.25 49.0 -38.0 51.5 -30.5 56.75 -25.5 61.75 -22.25 70.0 -21.75 81.75" fill="#e58508" fill-rule="evenodd" stroke="none"/>
    <path d="M34.0 -6.9 L32.5 -2.15 Q33.1 -1.9 33.75 2.6 L37.75 11.0 43.1 20.25 43.25 21.0 44.0 21.6 46.75 27.25 52.0 28.1 39.75 5.75 34.0 -6.9 M-72.0 55.6 L-74.4 55.6 -86.5 53.6 -92.65 49.75 Q-96.0 46.85 -95.0 36.85 L-95.25 36.6 -96.5 34.85 -95.9 31.0 -93.75 27.5 -79.4 9.5 -64.9 -7.0 -53.0 -18.65 -44.4 -24.9 -44.15 -25.0 -29.9 -43.25 -20.25 -53.65 Q-6.0 -66.25 3.1 -64.0 10.75 -62.9 27.85 -44.9 L44.85 -23.4 51.0 -13.9 58.85 1.35 69.25 24.6 76.35 42.6 Q78.1 47.25 76.85 49.6 L76.25 50.1 73.6 50.5 74.5 51.5 74.5 52.1 73.6 56.0 72.5 58.0 70.1 60.85 68.25 62.0 66.35 61.6 61.25 60.75 61.0 60.6 Q43.75 54.75 20.35 28.25 22.1 33.6 23.1 34.0 L40.1 49.5 42.85 51.6 36.0 56.0 32.1 59.0 27.1 63.85 26.6 61.5 27.75 58.75 26.6 59.75 Q20.5 66.25 21.35 77.6 -1.15 85.25 -22.15 77.25 -21.75 65.5 -29.0 58.6 -26.9 61.35 -28.25 63.85 L-32.4 59.6 -37.25 55.85 -45.15 51.1 -42.65 49.0 -48.65 52.0 -64.9 55.0 -72.0 55.6 M18.5 3.0 L17.6 6.25 Q15.5 16.35 3.25 20.0 L0.85 20.25 Q-8.15 23.0 -16.4 10.5 L-17.4 8.75 -17.9 7.1 -18.0 6.85 -19.25 2.6 -19.9 -2.15 -19.9 -6.15 -20.75 -6.25 -19.9 10.5 -19.25 12.85 -19.5 14.0 -19.0 22.1 -18.65 22.35 -12.0 41.1 -11.5 41.25 -7.15 46.25 0.1 47.75 7.25 46.25 12.0 41.1 19.0 22.25 19.85 9.6 18.85 -0.65 18.5 3.0 M-64.4 30.5 L-61.65 32.35 -63.4 28.25 -63.75 23.75 -48.0 8.85 -40.0 -0.15 -38.25 -3.5 -38.65 -8.0 -50.5 5.35 -71.9 26.25 -68.65 28.0 -64.4 30.5 M-42.65 48.1 L-44.0 44.5 -45.15 44.0 -42.65 48.1" fill="#cecece" fill-opacity="0.0" fill-rule="evenodd" stroke="none"/>
    <path d="M34.0 -6.9 L39.75 5.75 52.0 28.1 46.75 27.25 44.0 21.6 43.25 21.0 43.1 20.25 37.75 11.0 33.75 2.6 Q33.1 -1.9 32.5 -2.15 L34.0 -6.9 M76.85 49.6 L76.6 50.85 74.5 52.1 74.5 51.5 73.6 50.5 76.25 50.1 76.85 49.6 M66.35 61.6 L66.1 62.0 57.0 73.1 40.1 91.0 34.1 95.5 28.6 98.6 27.35 98.85 26.75 98.35 23.1 94.6 21.1 91.85 19.85 87.85 19.75 83.1 17.5 84.1 -0.15 87.25 -17.75 84.1 -20.9 82.6 -21.0 88.6 -21.9 90.5 -22.0 91.0 -22.15 91.35 -22.25 91.5 -22.75 92.85 -24.65 95.0 -25.0 95.5 -28.4 98.85 -29.9 98.35 -35.25 95.25 -41.4 90.75 -57.9 73.25 -67.25 61.85 -70.75 56.85 -71.4 55.75 -72.0 55.6 -64.9 55.0 -48.65 52.0 -42.65 49.0 -45.15 51.1 -37.25 55.85 -32.4 59.6 -28.25 63.85 Q-26.9 61.35 -29.0 58.6 -21.75 65.5 -22.15 77.25 -1.15 85.25 21.35 77.6 20.5 66.25 26.6 59.75 L27.75 58.75 26.6 61.5 27.1 63.85 32.1 59.0 36.0 56.0 42.85 51.6 40.1 49.5 23.1 34.0 Q22.1 33.6 20.35 28.25 43.75 54.75 61.0 60.6 L61.25 60.75 66.35 61.6 M18.5 3.0 L18.85 -0.65 19.85 9.6 19.0 22.25 12.0 41.1 7.25 46.25 0.1 47.75 -7.15 46.25 -11.5 41.25 -12.0 41.1 -18.65 22.35 -19.0 22.1 -19.5 14.0 -19.25 12.85 -19.9 10.5 -20.75 -6.25 -19.9 -6.15 -19.9 -2.15 -19.25 2.6 -18.0 6.85 -17.9 7.1 -17.4 8.75 -16.4 10.5 Q-8.15 23.0 0.85 20.25 L3.25 20.0 Q15.5 16.35 17.6 6.25 L18.5 3.0 M-68.65 28.0 L-71.9 26.25 -50.5 5.35 -38.65 -8.0 -38.25 -3.5 -40.0 -0.15 -48.0 8.85 -63.75 23.75 -63.4 28.25 -61.65 32.35 -64.4 30.5 -64.15 24.1 -64.25 24.1 -68.65 28.0 M-42.65 48.1 L-45.15 44.0 -44.0 44.5 -42.65 48.1" fill="#000000" fill-opacity="0.49803922" fill-rule="evenodd" stroke="none"/>
  </g>
</svg>
