<?xml version="1.0" encoding="UTF-8" standalone="no"?>
<svg xmlns:ffdec="https://www.free-decompiler.com/flash" xmlns:xlink="http://www.w3.org/1999/xlink" ffdec:objectType="shape" height="163.4px" width="172.65px" xmlns="http://www.w3.org/2000/svg">
  <g transform="matrix(1.0, 0.0, 0.0, 1.0, 94.8, 64.4)">
    <path d="M-12.75 -16.25 L-15.25 -20.25 -15.25 -25.0 -10.25 -27.0 -1.5 -26.75 -0.25 -26.25 0.0 -26.5 0.75 -26.75 6.75 -27.5 Q13.75 -26.5 14.25 -25.0 L14.25 -20.5 12.0 -16.75 Q9.5 -12.0 -0.25 -15.5 L-7.25 -13.75 Q-13.0 -14.5 -12.75 -16.25 M17.5 6.5 L21.75 16.25 23.75 23.0 28.5 32.0 13.0 33.5 8.5 36.75 Q12.0 42.25 13.5 42.0 L25.75 49.75 33.25 53.25 33.5 53.75 26.25 59.75 22.5 66.75 21.0 81.5 20.75 82.75 19.75 83.25 Q4.5 91.75 -21.75 81.75 L-22.25 70.0 -25.5 61.75 -30.5 56.75 -38.0 51.5 -28.75 35.75 -25.0 26.75 -22.25 17.5 -17.75 8.25 -17.5 8.25 Q-8.25 24.0 1.0 20.25 L2.5 20.25 3.25 20.0 Q14.0 18.25 17.5 6.5 M-3.5 -19.0 L-4.75 -19.75 -6.75 -20.5 -8.0 -20.0 -9.0 -18.75 -9.5 -17.5 -7.75 -15.75 -4.5 -15.75 -3.5 -17.25 -3.5 -19.0 M5.75 -20.5 L5.25 -20.25 4.5 -20.0 4.0 -19.75 3.75 -19.5 Q1.75 -19.25 3.75 -15.75 L7.0 -15.75 Q8.75 -17.5 8.25 -19.5 L7.0 -20.0 6.75 -20.0 5.75 -20.5" fill="#ffffff" fill-rule="evenodd" stroke="none"/>
    <path d="M5.75 -20.5 L6.75 -20.0 7.0 -20.0 8.25 -19.5 Q8.75 -17.5 7.0 -15.75 L3.75 -15.75 Q1.75 -19.25 3.75 -19.5 L4.0 -19.75 4.5 -20.0 5.25 -20.25 5.75 -20.5 M-3.5 -19.0 L-3.5 -17.25 -4.5 -15.75 -7.75 -15.75 -9.5 -17.5 -9.0 -18.75 -8.0 -20.0 -6.75 -20.5 -4.75 -19.75 -3.5 -19.0" fill="#000000" fill-rule="evenodd" stroke="none"/>
    <path d="M12.0 -16.75 Q14.0 -16.05 15.5 -14.5 L18.5 -10.25 19.25 -2.5 17.5 6.5 Q14.0 18.25 3.25 20.0 L2.5 20.25 1.0 20.25 Q-8.25 24.0 -17.5 8.25 L-17.75 8.25 Q-24.75 -12.0 -12.75 -16.25 -13.0 -14.5 -7.25 -13.75 L-0.25 -15.5 Q9.5 -12.0 12.0 -16.75 M33.5 53.75 L43.75 58.25 61.0 63.0 65.75 62.5 55.0 75.75 40.0 91.5 29.75 98.25 27.0 99.0 21.5 92.75 19.75 88.0 19.75 83.25 20.75 82.75 21.0 81.5 22.5 66.75 26.25 59.75 33.5 53.75 M-21.75 81.75 L-21.75 84.75 -25.25 93.25 -31.0 98.25 -44.5 89.0 -50.25 82.25 -51.0 81.5 -51.0 81.25 -52.5 79.75 -53.25 78.75 -58.5 73.0 -70.5 57.0 -70.75 56.5 -71.0 56.5 -67.5 56.0 -67.0 55.75 -66.0 55.75 -65.5 55.5 -64.5 55.5 -64.0 55.25 -61.25 55.0 -60.75 54.75 -54.75 54.0 -41.0 49.75 -38.0 51.5 -30.5 56.75 -25.5 61.75 -22.25 70.0 -21.75 81.75" fill="#e58508" fill-rule="evenodd" stroke="none"/>
    <path d="M-94.4 37.75 L-94.75 37.25 Q-95.25 33.25 -92.4 29.75 L-78.5 11.1 -64.25 -6.25 -53.15 -17.9 -44.5 -24.5 Q-19.25 -61.9 0.0 -64.4 6.5 -64.9 20.35 -52.65 L28.25 -44.5 44.85 -23.4 51.5 -12.75 51.5 -12.65 51.6 -12.4 58.5 -0.15 68.1 20.5 76.85 42.25 Q78.6 46.85 77.35 49.25 L76.1 49.85 73.75 50.25 75.25 50.6 75.25 51.6 74.6 55.35 Q73.75 57.75 72.25 59.1 70.75 61.1 68.75 62.1 L66.0 62.1 59.6 62.25 58.85 62.1 58.6 62.0 Q38.1 59.1 9.5 37.6 L9.0 37.1 8.5 36.35 13.0 33.75 14.85 33.35 19.0 22.25 19.85 9.6 18.85 -0.65 18.5 3.0 17.6 6.25 Q15.5 16.35 3.25 20.0 L0.85 20.25 Q-8.15 23.0 -16.4 10.5 L-17.4 8.75 -17.9 7.1 -18.0 6.85 -19.25 2.6 -19.9 -2.15 -19.9 -6.15 -20.75 -6.25 -19.9 10.5 -19.25 12.85 -19.5 14.0 -19.0 22.1 -18.65 22.35 -12.0 41.1 -11.5 41.25 -7.25 46.1 -0.25 47.75 7.25 46.25 11.6 41.25 12.1 41.1 13.1 42.1 33.5 54.0 36.85 55.5 31.1 59.85 27.1 63.85 26.6 61.5 27.75 58.75 26.6 59.75 Q20.5 66.25 21.35 77.6 -1.15 85.25 -22.15 77.25 -21.75 65.5 -29.0 58.6 -26.9 61.35 -28.25 63.85 L-29.75 62.0 -38.75 54.85 -44.75 51.1 -42.5 50.5 -41.0 49.6 -38.15 46.75 -44.5 50.35 -63.0 55.1 -69.75 56.0 -71.25 56.0 -83.65 55.0 Q-86.8 53.45 -90.0 51.85 L-91.5 50.6 -92.15 49.25 -92.9 45.35 -93.65 43.5 -93.25 39.1 -92.5 39.25 -94.4 37.75 M-64.5 29.0 L-64.4 29.1 -62.65 29.85 -63.4 28.1 -63.65 26.1 -46.9 9.1 -39.65 0.6 -37.5 -3.25 -37.9 -8.15 -49.5 5.85 -69.65 26.75 -65.9 28.35 -64.5 29.0 M33.85 -6.4 L32.35 -1.75 Q33.25 -0.4 33.5 2.35 L37.85 11.25 49.1 30.85 53.35 30.85 39.5 5.85 38.85 3.85 33.85 -6.4 M-38.5 45.35 L-39.9 42.6 -41.0 42.25 -39.0 45.25 -38.5 45.35" fill="#cecece" fill-opacity="0.0" fill-rule="evenodd" stroke="none"/>
    <path d="M77.35 49.25 L77.0 50.6 75.25 51.6 75.25 50.6 73.75 50.25 76.1 49.85 77.35 49.25 M66.0 62.1 L57.0 73.1 40.1 91.0 34.1 95.5 28.6 98.6 27.35 98.85 26.75 98.35 23.1 94.6 21.1 91.85 19.85 87.85 19.75 83.1 17.5 84.1 -0.15 87.25 -17.75 84.1 -20.9 82.6 -21.0 88.6 -21.9 90.5 -22.0 91.0 -22.15 91.35 -22.25 91.5 -22.75 92.85 -24.65 95.0 -25.0 95.5 -28.4 98.85 -29.9 98.35 -35.25 95.25 -41.4 90.75 -57.9 73.25 -67.25 61.85 -70.75 56.85 -71.25 56.0 -69.75 56.0 -63.0 55.1 -44.5 50.35 -38.15 46.75 -41.0 49.6 -42.5 50.5 -44.75 51.1 -38.75 54.85 -29.75 62.0 -28.25 63.85 Q-26.9 61.35 -29.0 58.6 -21.75 65.5 -22.15 77.25 -1.15 85.25 21.35 77.6 20.5 66.25 26.6 59.75 L27.75 58.75 26.6 61.5 27.1 63.85 31.1 59.85 36.85 55.5 33.5 54.0 13.1 42.1 12.1 41.1 11.6 41.25 7.25 46.25 -0.25 47.75 -7.25 46.1 -11.5 41.25 -12.0 41.1 -18.65 22.35 -19.0 22.1 -19.5 14.0 -19.25 12.85 -19.9 10.5 -20.75 -6.25 -19.9 -6.15 -19.9 -2.15 -19.25 2.6 -18.0 6.85 -17.9 7.1 -17.4 8.75 -16.4 10.5 Q-8.15 23.0 0.85 20.25 L3.25 20.0 Q15.5 16.35 17.6 6.25 L18.5 3.0 18.85 -0.65 19.85 9.6 19.0 22.25 14.85 33.35 13.0 33.75 8.5 36.35 9.0 37.1 9.5 37.6 Q38.1 59.1 58.6 62.0 L58.85 62.1 59.6 62.25 66.0 62.1 M-93.25 39.1 L-94.4 37.75 -92.5 39.25 -93.25 39.1 M-65.9 28.35 L-69.65 26.75 -49.5 5.85 -37.9 -8.15 -37.5 -3.25 -39.65 0.6 -46.9 9.1 -63.65 26.1 -63.4 28.1 -62.65 29.85 -64.4 29.1 -64.5 29.0 -64.4 27.0 -64.5 27.0 -65.9 28.35 M33.85 -6.4 L38.85 3.85 39.5 5.85 53.35 30.85 49.1 30.85 37.85 11.25 33.5 2.35 Q33.25 -0.4 32.35 -1.75 L33.85 -6.4 M-38.5 45.35 L-39.0 45.25 -41.0 42.25 -39.9 42.6 -38.5 45.35" fill="#000000" fill-opacity="0.49803922" fill-rule="evenodd" stroke="none"/>
  </g>
</svg>
