<?xml version="1.0" encoding="UTF-8" standalone="no"?>
<svg xmlns:ffdec="https://www.free-decompiler.com/flash" xmlns:xlink="http://www.w3.org/1999/xlink" ffdec:objectType="shape" height="163.4px" width="172.15px" xmlns="http://www.w3.org/2000/svg">
  <g transform="matrix(1.0, 0.0, 0.0, 1.0, 94.0, 64.4)">
    <path d="M-12.75 -16.25 L-15.25 -20.25 -15.25 -25.0 -10.25 -27.0 -1.5 -26.75 -0.25 -26.25 0.0 -26.5 0.75 -26.75 6.75 -27.5 Q13.75 -26.5 14.25 -25.0 L14.25 -20.5 12.0 -16.75 Q9.5 -12.0 -0.25 -15.5 L-7.25 -13.75 Q-13.0 -14.5 -12.75 -16.25 M17.5 6.5 L22.0 16.75 23.75 23.5 29.5 34.25 8.5 37.75 3.25 41.25 Q7.5 46.25 9.0 46.0 L22.5 53.0 30.75 56.25 26.25 59.75 22.25 67.5 21.25 79.75 Q21.0 83.25 19.75 83.25 4.5 91.75 -21.75 81.75 L-22.25 70.0 -25.5 61.75 -30.5 56.75 -38.0 51.5 -28.75 35.75 -25.0 26.75 -22.25 17.5 -17.75 8.25 -17.5 8.25 Q-8.25 24.0 1.0 20.25 L2.5 20.25 3.25 20.0 Q14.0 18.25 17.5 6.5 M-3.5 -19.0 L-4.75 -19.75 -6.75 -20.5 -8.0 -20.0 -9.0 -18.75 -9.5 -17.5 -7.75 -15.75 -4.5 -15.75 -3.5 -17.25 -3.5 -19.0 M5.75 -20.5 L5.25 -20.25 4.5 -20.0 4.0 -19.75 3.75 -19.5 Q1.75 -19.25 3.75 -15.75 L7.0 -15.75 Q8.75 -17.5 8.25 -19.5 L7.0 -20.0 6.75 -20.0 5.75 -20.5" fill="#ffffff" fill-rule="evenodd" stroke="none"/>
    <path d="M5.75 -20.5 L6.75 -20.0 7.0 -20.0 8.25 -19.5 Q8.75 -17.5 7.0 -15.75 L3.75 -15.75 Q1.75 -19.25 3.75 -19.5 L4.0 -19.75 4.5 -20.0 5.25 -20.25 5.75 -20.5 M-3.5 -19.0 L-3.5 -17.25 -4.5 -15.75 -7.75 -15.75 -9.5 -17.5 -9.0 -18.75 -8.0 -20.0 -6.75 -20.5 -4.75 -19.75 -3.5 -19.0" fill="#000000" fill-rule="evenodd" stroke="none"/>
    <path d="M12.0 -16.75 Q14.0 -16.05 15.5 -14.5 L18.5 -10.25 19.25 -2.5 17.5 6.5 Q14.0 18.25 3.25 20.0 L2.5 20.25 1.0 20.25 Q-8.25 24.0 -17.5 8.25 L-17.75 8.25 Q-24.75 -12.0 -12.75 -16.25 -13.0 -14.5 -7.25 -13.75 L-0.25 -15.5 Q9.5 -12.0 12.0 -16.75 M30.75 56.25 L31.0 56.25 34.25 57.25 34.75 57.5 36.25 58.0 36.75 58.25 38.25 58.75 38.75 59.0 40.25 59.5 60.25 63.5 65.5 62.75 55.0 75.75 40.0 91.5 29.75 98.25 27.0 99.0 21.5 92.75 19.75 88.0 19.75 83.25 Q21.0 83.25 21.25 79.75 L22.25 67.5 26.25 59.75 30.75 56.25 M-21.75 81.75 L-21.75 84.75 -25.25 93.25 -31.0 98.25 -44.5 89.0 -50.25 82.25 -51.0 81.5 -51.0 81.25 -52.5 79.75 -53.25 78.75 -58.5 73.0 -70.5 57.0 -70.75 56.5 -67.25 56.25 -61.5 55.0 -60.75 55.0 -60.25 54.75 -52.0 53.25 -41.25 49.5 -41.0 49.5 -38.0 51.5 -30.5 56.75 -25.5 61.75 -22.25 70.0 -21.75 81.75" fill="#e58508" fill-rule="evenodd" stroke="none"/>
    <path d="M-93.5 38.5 L-93.75 38.35 -93.9 37.85 Q-95.25 33.25 -77.25 10.85 L-62.9 -7.0 -55.75 -14.4 -52.9 -17.9 -44.75 -24.25 Q-19.25 -61.9 0.0 -64.4 6.5 -64.9 20.35 -52.65 L28.25 -44.5 44.85 -23.4 50.5 -14.5 50.5 -14.4 50.75 -14.15 50.85 -13.9 59.25 0.75 68.0 19.5 77.1 41.85 Q78.75 46.5 77.75 49.0 L76.75 49.6 73.75 50.1 75.75 50.25 75.75 51.25 75.25 54.85 Q74.1 57.85 73.35 58.25 L69.35 62.1 65.75 62.35 65.0 62.5 58.85 62.85 56.5 62.5 55.5 62.25 42.1 59.85 41.75 59.75 41.35 59.75 31.75 56.25 10.75 46.6 8.85 45.5 5.1 42.25 4.5 42.1 3.25 40.85 7.0 38.5 7.35 38.35 7.6 38.1 9.0 37.5 13.6 36.85 19.0 22.25 19.85 9.6 18.85 -0.65 18.5 3.0 17.6 6.25 Q15.5 16.35 3.25 20.0 L0.85 20.25 Q-8.15 23.0 -16.4 10.5 L-17.4 8.75 -17.9 7.1 -18.0 6.85 -19.25 2.6 -19.9 -2.15 -19.9 -6.15 -20.75 -6.25 -19.9 10.5 -19.25 12.85 -19.5 14.0 -19.0 22.1 -18.65 22.35 -12.0 41.1 -11.5 41.25 -7.0 46.35 0.25 47.75 Q7.25 46.75 7.85 45.6 L30.35 56.35 34.1 57.6 28.75 62.0 27.1 63.85 26.6 61.5 27.75 58.75 26.6 59.75 Q20.5 66.25 21.35 77.6 -1.15 85.25 -22.15 77.25 -21.75 65.5 -29.0 58.6 -26.9 61.35 -28.25 63.85 L-29.75 62.0 -34.25 58.1 -45.0 51.0 -41.0 49.75 -39.15 48.85 -36.15 45.75 -41.9 49.25 -61.0 54.85 -68.75 56.1 -71.25 56.0 -82.0 55.6 -88.75 52.75 Q-91.75 52.1 -92.4 40.0 L-91.15 40.25 -93.5 38.5 M-37.15 -3.25 L-37.65 -8.15 -49.15 6.1 -68.25 27.0 -62.9 29.1 -63.5 27.35 -45.25 8.25 -44.15 6.35 -38.75 0.0 -37.15 -3.25 M33.6 -6.25 L32.35 -1.4 34.25 4.1 42.85 20.0 43.25 20.1 43.25 20.85 43.75 21.1 49.85 32.0 53.75 31.6 39.35 6.0 38.75 4.0 33.6 -6.25 M-35.9 45.25 L-37.9 41.6 -38.9 41.25 -35.9 45.25" fill="#cecece" fill-opacity="0.0" fill-rule="evenodd" stroke="none"/>
    <path d="M77.75 49.0 L77.5 50.25 75.75 51.25 75.75 50.25 73.75 50.1 76.75 49.6 77.75 49.0 M65.75 62.35 L57.0 73.1 40.1 91.0 34.1 95.5 28.6 98.6 27.35 98.85 26.75 98.35 23.1 94.6 21.1 91.85 19.85 87.85 19.75 83.1 17.5 84.1 -0.15 87.25 -17.75 84.1 -20.9 82.6 -21.0 88.6 -21.9 90.5 -22.0 91.0 -22.15 91.35 -22.25 91.5 -22.75 92.85 -24.65 95.0 -25.0 95.5 -28.4 98.85 -29.9 98.35 -35.25 95.25 -41.4 90.75 -57.9 73.25 -67.25 61.85 -70.75 56.85 -71.25 56.0 -68.75 56.1 -61.0 54.85 -41.9 49.25 -36.15 45.75 -39.15 48.85 -41.0 49.75 -45.0 51.0 -34.25 58.1 -29.75 62.0 -28.25 63.85 Q-26.9 61.35 -29.0 58.6 -21.75 65.5 -22.15 77.25 -1.15 85.25 21.35 77.6 20.5 66.25 26.6 59.75 L27.75 58.75 26.6 61.5 27.1 63.85 28.75 62.0 34.1 57.6 30.35 56.35 7.85 45.6 Q7.25 46.75 0.25 47.75 L-7.0 46.35 -11.5 41.25 -12.0 41.1 -18.65 22.35 -19.0 22.1 -19.5 14.0 -19.25 12.85 -19.9 10.5 -20.75 -6.25 -19.9 -6.15 -19.9 -2.15 -19.25 2.6 -18.0 6.85 -17.9 7.1 -17.4 8.75 -16.4 10.5 Q-8.15 23.0 0.85 20.25 L3.25 20.0 Q15.5 16.35 17.6 6.25 L18.5 3.0 18.85 -0.65 19.85 9.6 19.0 22.25 13.6 36.85 9.0 37.5 7.6 38.1 7.35 38.35 7.0 38.5 3.25 40.85 4.5 42.1 5.1 42.25 8.85 45.5 10.75 46.6 31.75 56.25 41.35 59.75 41.75 59.75 42.1 59.85 55.5 62.25 56.5 62.5 58.85 62.85 65.0 62.5 65.75 62.35 M-92.4 40.0 L-93.65 38.75 -93.5 38.5 -91.15 40.25 -92.4 40.0 M-37.15 -3.25 L-38.75 0.0 -44.15 6.35 -45.25 8.25 -63.5 27.35 -62.9 29.1 -68.25 27.0 -49.15 6.1 -37.65 -8.15 -37.15 -3.25 M33.6 -6.25 L38.75 4.0 39.35 6.0 53.75 31.6 49.85 32.0 43.75 21.1 43.25 20.85 43.25 20.1 42.85 20.0 34.25 4.1 32.35 -1.4 33.6 -6.25 M-35.9 45.25 L-38.9 41.25 -37.9 41.6 -35.9 45.25" fill="#000000" fill-opacity="0.49803922" fill-rule="evenodd" stroke="none"/>
  </g>
</svg>
