<?xml version="1.0" encoding="UTF-8" standalone="no"?>
<svg xmlns:ffdec="https://www.free-decompiler.com/flash" xmlns:xlink="http://www.w3.org/1999/xlink" ffdec:objectType="shape" height="163.4px" width="170.8px" xmlns="http://www.w3.org/2000/svg">
  <g transform="matrix(1.0, 0.0, 0.0, 1.0, 92.0, 64.4)">
    <path d="M-12.75 -16.25 L-15.25 -20.25 -15.25 -25.0 -10.25 -27.0 -1.5 -26.75 -0.25 -26.25 0.0 -26.5 0.75 -26.75 6.75 -27.5 Q13.75 -26.5 14.25 -25.0 L14.25 -20.5 12.0 -16.75 Q9.5 -12.0 -0.25 -15.5 L-7.25 -13.75 Q-13.0 -14.5 -12.75 -16.25 M17.5 6.5 L21.75 16.25 23.75 23.0 31.5 37.25 0.5 45.5 -5.0 49.5 1.75 53.5 17.5 58.75 26.0 60.5 22.25 67.75 Q21.75 81.75 19.75 83.25 4.5 91.75 -21.75 81.75 L-22.25 70.0 -25.5 61.75 -30.5 56.75 -38.0 51.5 -35.25 46.75 -31.5 43.0 -32.25 41.75 -26.25 30.25 -22.25 17.5 -17.75 8.25 -17.5 8.25 Q-8.25 24.0 1.0 20.25 L2.5 20.25 3.25 20.0 Q14.0 18.25 17.5 6.5 M-3.5 -19.0 L-4.75 -19.75 -6.75 -20.5 -8.0 -20.0 -9.0 -18.75 -9.5 -17.5 -7.75 -15.75 -4.5 -15.75 -3.5 -17.25 -3.5 -19.0 M5.75 -20.5 L5.25 -20.25 4.5 -20.0 4.0 -19.75 3.75 -19.5 Q1.75 -19.25 3.75 -15.75 L7.0 -15.75 Q8.75 -17.5 8.25 -19.5 L7.0 -20.0 6.75 -20.0 5.75 -20.5" fill="#ffffff" fill-rule="evenodd" stroke="none"/>
    <path d="M5.75 -20.5 L6.75 -20.0 7.0 -20.0 8.25 -19.5 Q8.75 -17.5 7.0 -15.75 L3.75 -15.75 Q1.75 -19.25 3.75 -19.5 L4.0 -19.75 4.5 -20.0 5.25 -20.25 5.75 -20.5 M-3.5 -19.0 L-3.5 -17.25 -4.5 -15.75 -7.75 -15.75 -9.5 -17.5 -9.0 -18.75 -8.0 -20.0 -6.75 -20.5 -4.75 -19.75 -3.5 -19.0" fill="#000000" fill-rule="evenodd" stroke="none"/>
    <path d="M12.0 -16.75 Q14.0 -16.05 15.5 -14.5 L18.5 -10.25 19.25 -2.5 17.5 6.5 Q14.0 18.25 3.25 20.0 L2.5 20.25 1.0 20.25 Q-8.25 24.0 -17.5 8.25 L-17.75 8.25 Q-24.75 -12.0 -12.75 -16.25 -13.0 -14.5 -7.25 -13.75 L-0.25 -15.5 Q9.5 -12.0 12.0 -16.75 M26.0 60.5 L41.75 63.75 60.75 64.5 65.0 63.5 55.0 75.75 40.0 91.5 29.75 98.25 27.0 99.0 21.5 92.75 19.75 88.0 19.75 83.25 Q21.75 81.75 22.25 67.75 L26.0 60.5 M-21.75 81.75 L-21.75 84.75 -25.25 93.25 -31.0 98.25 -44.5 89.0 -50.25 82.25 -51.0 81.5 -51.0 81.25 -52.5 79.75 -53.25 78.75 -58.5 73.0 -70.5 57.0 -70.5 56.75 -64.25 56.25 -53.0 53.25 -41.5 49.5 -38.0 51.5 -30.5 56.75 -25.5 61.75 -22.25 70.0 -21.75 81.75" fill="#e58508" fill-rule="evenodd" stroke="none"/>
    <path d="M32.25 -1.0 L34.6 5.0 37.85 11.35 50.85 33.25 54.5 33.0 39.0 6.1 33.35 -5.75 32.25 -1.0 M-91.9 39.6 Q-93.25 35.25 -76.75 13.1 L-63.9 -4.4 -55.5 -13.75 -53.4 -16.65 -45.15 -23.75 -44.9 -24.0 Q-18.9 -62.15 -0.4 -64.4 7.25 -64.65 20.35 -52.65 L28.25 -44.5 44.35 -24.0 49.0 -16.9 49.1 -16.65 51.25 -14.0 59.75 0.75 67.5 16.85 77.6 40.75 Q79.35 46.1 78.6 47.1 L78.6 47.75 78.5 48.0 78.5 48.35 77.35 49.1 75.9 49.45 76.35 49.35 76.6 50.75 76.35 54.35 75.25 57.0 70.6 61.85 65.35 62.85 59.1 64.1 57.75 64.1 56.85 64.0 55.25 64.0 54.25 63.85 37.25 62.85 35.6 62.5 35.1 62.5 34.85 62.35 34.5 62.35 34.25 62.25 33.85 62.25 33.6 62.1 33.25 62.1 30.1 61.5 29.6 61.35 29.5 61.35 27.1 63.85 26.75 61.0 26.85 61.0 29.5 61.35 2.0 53.5 -2.9 50.35 -3.4 50.35 1.1 53.6 25.85 60.75 Q20.85 65.75 21.35 77.6 -1.15 85.25 -22.15 77.25 -21.75 65.5 -29.0 58.6 -26.9 61.35 -28.25 63.85 L-32.4 59.6 -37.25 55.85 -45.25 50.85 -35.9 47.25 -31.75 43.0 -38.25 47.35 -57.75 54.35 -66.0 56.1 -68.0 56.1 -69.0 56.25 -71.15 56.25 -71.75 56.25 -72.25 56.35 -79.15 56.6 -86.15 54.25 Q-89.9 51.0 -90.15 42.0 L-88.65 41.75 -91.5 40.25 -91.5 39.75 -91.9 39.6 M0.0 45.75 L10.25 43.0 11.85 41.1 18.75 22.75 19.85 9.6 18.85 -0.65 18.5 3.0 17.6 6.25 Q15.5 16.35 3.25 20.0 L0.85 20.25 Q-8.15 23.0 -16.4 10.5 L-17.4 8.75 -17.9 7.1 -18.0 6.85 -19.25 2.6 -19.9 -2.15 -19.9 -6.15 -20.75 -6.25 -19.9 10.5 -19.25 12.85 -19.5 14.0 -19.0 22.1 -18.65 22.35 -12.0 41.0 -7.15 46.25 -2.0 47.25 0.0 45.75 M-32.65 41.5 L-34.25 39.25 -35.15 39.0 -32.65 41.5 M-36.4 -3.4 L-37.0 -8.15 -47.15 5.5 -65.9 27.25 -61.9 28.35 -43.4 7.35 -37.9 0.0 -36.4 -3.4" fill="#cecece" fill-opacity="0.0" fill-rule="evenodd" stroke="none"/>
    <path d="M32.25 -1.0 L33.35 -5.75 39.0 6.1 54.5 33.0 50.85 33.25 37.85 11.35 34.6 5.0 32.25 -1.0 M78.5 48.35 L78.25 49.75 76.6 50.75 76.35 49.35 75.9 49.45 77.35 49.1 78.5 48.35 M65.35 62.85 L57.0 73.1 40.1 91.0 38.25 92.5 30.25 97.75 28.6 98.6 27.35 98.85 26.75 98.35 23.1 94.6 21.1 91.85 19.85 87.85 19.75 83.1 17.5 84.1 -0.15 87.25 -17.75 84.1 -20.9 82.6 -21.0 88.6 -21.9 90.5 -22.0 91.0 -22.15 91.35 -22.25 91.5 -22.75 92.85 -24.65 95.0 -25.0 95.5 -28.4 98.85 -29.9 98.35 -35.25 95.25 -41.4 90.75 -53.0 78.6 -62.75 67.5 -71.15 56.25 -69.0 56.25 -68.0 56.1 -66.0 56.1 -57.75 54.35 -38.25 47.35 -31.75 43.0 -35.9 47.25 -45.25 50.85 -37.25 55.85 -32.4 59.6 -28.25 63.85 Q-26.9 61.35 -29.0 58.6 -21.75 65.5 -22.15 77.25 -1.15 85.25 21.35 77.6 20.85 65.75 25.85 60.75 L1.1 53.6 -3.4 50.35 -2.9 50.35 2.0 53.5 29.5 61.35 26.85 61.0 26.75 61.0 27.1 63.85 29.5 61.35 29.6 61.35 30.1 61.5 33.25 62.1 33.6 62.1 33.85 62.25 34.25 62.25 34.5 62.35 34.85 62.35 35.1 62.5 35.6 62.5 37.25 62.85 54.25 63.85 55.25 64.0 56.85 64.0 57.75 64.1 59.1 64.1 65.35 62.85 M-90.15 42.0 L-91.5 40.85 -91.9 39.6 -91.5 39.75 -91.5 40.25 -88.65 41.75 -90.15 42.0 M0.0 45.75 L-2.0 47.25 -7.15 46.25 -12.0 41.0 -18.65 22.35 -19.0 22.1 -19.5 14.0 -19.25 12.85 -19.9 10.5 -20.75 -6.25 -19.9 -6.15 -19.9 -2.15 -19.25 2.6 -18.0 6.85 -17.9 7.1 -17.4 8.75 -16.4 10.5 Q-8.15 23.0 0.85 20.25 L3.25 20.0 Q15.5 16.35 17.6 6.25 L18.5 3.0 18.85 -0.65 19.85 9.6 18.75 22.75 11.85 41.1 10.25 43.0 0.0 45.75 M-36.4 -3.4 L-37.9 0.0 -43.4 7.35 -61.9 28.35 -65.9 27.25 -47.15 5.5 -37.0 -8.15 -36.4 -3.4 M-32.65 41.5 L-35.15 39.0 -34.25 39.25 -32.65 41.5" fill="#000000" fill-opacity="0.49803922" fill-rule="evenodd" stroke="none"/>
  </g>
</svg>
