<?xml version="1.0" encoding="UTF-8" standalone="no"?>
<svg xmlns:ffdec="https://www.free-decompiler.com/flash" xmlns:xlink="http://www.w3.org/1999/xlink" ffdec:objectType="shape" height="163.4px" width="170.15px" xmlns="http://www.w3.org/2000/svg">
  <g transform="matrix(1.0, 0.0, 0.0, 1.0, 90.9, 64.4)">
    <path d="M-12.75 -16.25 L-15.25 -20.25 -15.25 -25.0 -10.25 -27.0 -1.5 -26.75 -0.25 -26.25 0.0 -26.5 0.75 -26.75 6.75 -27.5 Q13.75 -26.5 14.25 -25.0 L14.25 -20.5 12.0 -16.75 Q9.5 -12.0 -0.25 -15.5 L-7.25 -13.75 Q-13.0 -14.5 -12.75 -16.25 M17.5 6.5 L22.0 16.75 23.75 23.5 32.25 38.25 -2.25 48.75 -7.75 52.75 -5.5 54.25 -0.75 56.75 14.75 61.0 24.5 62.5 22.25 68.0 Q21.75 82.0 19.75 83.25 4.5 91.75 -21.75 81.75 L-22.25 70.0 -25.5 61.75 -30.5 56.75 -38.0 51.5 -34.75 46.5 -34.25 46.0 Q-33.0 46.5 -29.5 41.75 L-31.0 39.75 -26.0 29.75 -22.25 17.5 -17.75 8.25 -17.5 8.25 Q-8.25 24.0 1.0 20.25 L2.5 20.25 3.25 20.0 Q14.0 18.25 17.5 6.5 M-3.5 -19.0 L-4.75 -19.75 -6.75 -20.5 -8.0 -20.0 -9.0 -18.75 -9.5 -17.5 -7.75 -15.75 -4.5 -15.75 -3.5 -17.25 -3.5 -19.0 M5.75 -20.5 L5.25 -20.25 4.5 -20.0 4.0 -19.75 3.75 -19.5 Q1.75 -19.25 3.75 -15.75 L7.0 -15.75 Q8.75 -17.5 8.25 -19.5 L7.0 -20.0 6.75 -20.0 5.75 -20.5" fill="#ffffff" fill-rule="evenodd" stroke="none"/>
    <path d="M5.75 -20.5 L6.75 -20.0 7.0 -20.0 8.25 -19.5 Q8.75 -17.5 7.0 -15.75 L3.75 -15.75 Q1.75 -19.25 3.75 -19.5 L4.0 -19.75 4.5 -20.0 5.25 -20.25 5.75 -20.5 M-3.5 -19.0 L-3.5 -17.25 -4.5 -15.75 -7.75 -15.75 -9.5 -17.5 -9.0 -18.75 -8.0 -20.0 -6.75 -20.5 -4.75 -19.75 -3.5 -19.0" fill="#000000" fill-rule="evenodd" stroke="none"/>
    <path d="M12.0 -16.75 Q14.0 -16.05 15.5 -14.5 L18.5 -10.25 19.25 -2.5 17.5 6.5 Q14.0 18.25 3.25 20.0 L2.5 20.25 1.0 20.25 Q-8.25 24.0 -17.5 8.25 L-17.75 8.25 Q-24.75 -12.0 -12.75 -16.25 -13.0 -14.5 -7.25 -13.75 L-0.25 -15.5 Q9.5 -12.0 12.0 -16.75 M24.5 62.5 L38.75 65.0 61.0 64.75 64.75 63.75 57.0 73.5 40.0 91.5 29.75 98.25 27.0 99.0 21.5 92.75 19.75 88.0 19.75 83.25 Q21.75 82.0 22.25 68.0 L24.5 62.5 M-21.75 81.75 L-21.75 84.75 -25.25 93.25 -31.0 98.25 -44.5 89.0 -50.25 82.25 -51.0 81.5 -51.0 81.25 -52.5 79.75 -53.25 78.75 -58.5 73.0 -70.5 57.0 -70.0 57.25 -63.0 56.25 -52.75 53.25 -41.5 49.25 -38.0 51.5 -30.5 56.75 -25.5 61.75 -22.25 70.0 -21.75 81.75" fill="#e58508" fill-rule="evenodd" stroke="none"/>
    <path d="M33.25 -5.4 L32.1 -0.9 34.35 4.6 37.85 11.35 39.1 12.85 39.25 13.6 40.35 15.0 44.85 23.1 45.25 23.25 47.85 28.35 51.5 33.6 54.85 33.6 38.75 6.0 38.1 4.1 33.25 -5.4 M-90.75 40.5 Q-91.4 38.5 -89.0 33.85 L-76.25 13.85 -66.75 0.5 -66.25 0.25 -63.65 -3.9 -54.15 -15.4 -45.15 -23.65 -45.15 -23.75 Q-18.9 -62.25 -0.15 -64.4 6.6 -64.9 20.35 -52.65 L29.6 -42.9 44.85 -23.4 48.1 -18.25 48.1 -18.15 48.35 -17.9 51.5 -14.0 59.85 0.25 68.6 18.35 78.25 41.35 79.25 44.85 79.25 46.35 79.1 46.6 79.1 47.0 79.0 47.5 79.0 47.75 78.1 48.6 76.75 49.0 77.0 50.5 Q77.25 54.5 76.5 56.0 L71.85 61.1 70.6 61.85 65.25 63.1 58.6 64.5 35.85 64.25 27.85 63.1 27.1 63.85 27.0 63.0 26.5 62.85 26.1 62.85 -0.4 56.75 -5.65 54.1 -0.75 57.0 24.75 62.75 22.25 67.5 Q22.75 68.0 21.5 72.5 L21.35 77.6 Q-1.15 85.25 -22.15 77.25 -21.75 65.5 -29.0 58.6 -26.9 61.35 -28.25 63.85 L-29.75 62.0 -38.75 54.85 -45.15 50.85 -33.25 45.75 -29.9 41.85 -36.15 46.25 -55.65 53.85 -63.15 55.85 -72.25 56.6 -77.5 56.85 -84.0 55.1 -86.15 53.75 -88.75 47.1 -88.9 43.0 -88.9 42.6 -87.4 42.35 -90.75 40.5 M3.25 20.0 L0.85 20.25 Q-8.15 23.0 -16.4 10.5 L-17.4 8.75 -17.9 7.1 -18.0 6.85 -19.25 2.6 -19.9 -2.15 -19.9 -6.15 -20.75 -6.25 -19.9 10.5 -19.25 12.85 -19.5 14.0 -19.0 22.1 -18.65 22.35 -12.0 41.1 -11.5 41.25 -7.0 46.35 -0.25 47.75 2.6 47.25 3.0 47.25 3.35 47.1 7.75 45.85 7.75 45.75 12.35 40.35 19.0 22.25 19.85 9.6 18.85 -0.65 18.5 3.0 17.6 6.25 Q15.5 16.35 3.25 20.0 M-30.9 40.1 L-32.25 38.25 -33.15 38.0 -30.9 40.1 M-36.0 -3.9 L-36.75 -8.25 -46.25 5.1 -64.5 27.25 -60.65 28.25 -43.15 7.85 -37.5 0.1 -36.0 -3.9" fill="#cecece" fill-opacity="0.0" fill-rule="evenodd" stroke="none"/>
    <path d="M33.25 -5.4 L38.1 4.1 38.75 6.0 54.85 33.6 51.5 33.6 47.85 28.35 45.25 23.25 44.85 23.1 40.35 15.0 39.25 13.6 39.1 12.85 37.85 11.35 34.35 4.6 32.1 -0.9 33.25 -5.4 M79.0 47.75 L78.75 49.35 77.0 50.5 76.75 49.0 78.1 48.6 79.0 47.75 M65.25 63.1 L47.6 83.35 40.1 91.0 38.25 92.5 30.25 97.75 28.6 98.6 27.35 98.85 26.75 98.35 23.1 94.6 21.1 91.85 19.85 87.85 19.75 83.1 17.5 84.1 -0.15 87.25 -17.75 84.1 -20.9 82.6 -21.0 88.6 -21.9 90.5 -22.0 91.0 -22.15 91.35 -22.25 91.5 -22.75 92.85 -24.65 95.0 -25.0 95.5 -28.4 98.85 -29.9 98.35 -35.25 95.25 -41.4 90.75 -53.0 78.6 -62.75 67.5 -70.75 56.85 -70.9 56.6 -72.25 56.6 -63.15 55.85 -55.65 53.85 -36.15 46.25 -29.9 41.85 -33.25 45.75 -45.15 50.85 -38.75 54.85 -29.75 62.0 -28.25 63.85 Q-26.9 61.35 -29.0 58.6 -21.75 65.5 -22.15 77.25 -1.15 85.25 21.35 77.6 L21.5 72.5 Q22.75 68.0 22.25 67.5 L24.75 62.75 -0.75 57.0 -5.65 54.1 -0.4 56.75 26.1 62.85 26.5 62.85 27.0 63.0 27.1 63.85 27.85 63.1 35.85 64.25 58.6 64.5 65.25 63.1 M-88.9 43.0 L-90.65 41.5 -90.75 40.5 -87.4 42.35 -88.9 42.6 -88.9 43.0 M3.25 20.0 Q15.5 16.35 17.6 6.25 L18.5 3.0 18.85 -0.65 19.85 9.6 19.0 22.25 12.35 40.35 7.75 45.75 7.75 45.85 3.35 47.1 3.0 47.25 2.6 47.25 -0.25 47.75 -7.0 46.35 -11.5 41.25 -12.0 41.1 -18.65 22.35 -19.0 22.1 -19.5 14.0 -19.25 12.85 -19.9 10.5 -20.75 -6.25 -19.9 -6.15 -19.9 -2.15 -19.25 2.6 -18.0 6.85 -17.9 7.1 -17.4 8.75 -16.4 10.5 Q-8.15 23.0 0.85 20.25 L3.25 20.0 M-36.0 -3.9 L-37.5 0.1 -43.15 7.85 -60.65 28.25 -64.5 27.25 -46.25 5.1 -36.75 -8.25 -36.0 -3.9 M-30.9 40.1 L-33.15 38.0 -32.25 38.25 -30.9 40.1" fill="#000000" fill-opacity="0.49803922" fill-rule="evenodd" stroke="none"/>
  </g>
</svg>
