<?xml version="1.0" encoding="UTF-8" standalone="no"?>
<svg xmlns:ffdec="https://www.free-decompiler.com/flash" xmlns:xlink="http://www.w3.org/1999/xlink" ffdec:objectType="shape" height="163.4px" width="169.5px" xmlns="http://www.w3.org/2000/svg">
  <g transform="matrix(1.0, 0.0, 0.0, 1.0, 89.75, 64.4)">
    <path d="M-12.75 -16.25 L-15.25 -20.25 -15.25 -25.0 -10.25 -27.0 -1.5 -26.75 -0.25 -26.25 0.0 -26.5 0.75 -26.75 6.75 -27.5 Q13.75 -26.5 14.25 -25.0 L14.25 -20.5 12.0 -16.75 Q9.5 -12.0 -0.25 -15.5 L-7.25 -13.75 Q-13.0 -14.5 -12.75 -16.25 M17.5 6.5 L22.25 17.25 23.75 23.25 30.0 35.25 33.0 39.0 -4.25 51.5 -9.75 56.0 -2.25 59.5 15.25 63.25 23.75 64.25 22.25 68.0 Q21.75 82.0 19.75 83.25 4.5 91.75 -21.75 81.75 L-22.25 70.0 -25.5 61.75 -30.5 56.75 -38.0 51.5 -34.75 46.25 -32.5 45.0 Q-24.75 41.0 -30.0 37.75 L-25.5 28.5 -22.25 17.5 -17.75 8.25 -17.5 8.25 Q-8.25 24.0 1.0 20.25 L2.5 20.25 3.25 20.0 Q14.0 18.25 17.5 6.5 M-3.5 -19.0 L-4.75 -19.75 -6.75 -20.5 -8.0 -20.0 -9.0 -18.75 -9.5 -17.5 -7.75 -15.75 -4.5 -15.75 -3.5 -17.25 -3.5 -19.0 M5.75 -20.5 L5.25 -20.25 4.5 -20.0 4.0 -19.75 3.75 -19.5 Q1.75 -19.25 3.75 -15.75 L7.0 -15.75 Q8.75 -17.5 8.25 -19.5 L7.0 -20.0 6.75 -20.0 5.75 -20.5" fill="#ffffff" fill-rule="evenodd" stroke="none"/>
    <path d="M5.75 -20.5 L6.75 -20.0 7.0 -20.0 8.25 -19.5 Q8.75 -17.5 7.0 -15.75 L3.75 -15.75 Q1.75 -19.25 3.75 -19.5 L4.0 -19.75 4.5 -20.0 5.25 -20.25 5.75 -20.5 M-3.5 -19.0 L-3.5 -17.25 -4.5 -15.75 -7.75 -15.75 -9.5 -17.5 -9.0 -18.75 -8.0 -20.0 -6.75 -20.5 -4.75 -19.75 -3.5 -19.0" fill="#000000" fill-rule="evenodd" stroke="none"/>
    <path d="M12.0 -16.75 Q14.0 -16.05 15.5 -14.5 L18.5 -10.25 19.25 -2.5 17.5 6.5 Q14.0 18.25 3.25 20.0 L2.5 20.25 1.0 20.25 Q-8.25 24.0 -17.5 8.25 L-17.75 8.25 Q-24.75 -12.0 -12.75 -16.25 -13.0 -14.5 -7.25 -13.75 L-0.25 -15.5 Q9.5 -12.0 12.0 -16.75 M23.75 64.25 L37.75 65.75 61.25 65.0 64.5 64.0 57.0 73.5 40.0 91.5 29.75 98.25 27.0 99.0 21.5 92.75 19.75 88.0 19.75 83.25 Q21.75 82.0 22.25 68.0 L23.75 64.25 M-21.75 81.75 L-21.75 84.75 -25.25 93.25 -31.0 98.25 -44.5 89.0 -50.25 82.25 -51.0 81.5 -51.0 81.25 -52.5 79.75 -53.25 78.75 -61.0 70.0 -70.25 57.25 -61.0 56.0 -41.5 49.25 -38.0 51.5 -30.5 56.75 -25.5 61.75 -22.25 70.0 -21.75 81.75" fill="#e58508" fill-rule="evenodd" stroke="none"/>
    <path d="M-89.65 41.25 Q-90.15 38.1 -88.15 34.85 L-75.5 14.25 -63.75 -2.9 -53.0 -16.4 -45.5 -23.25 -45.4 -23.4 -45.15 -23.65 Q-19.0 -62.25 0.1 -64.4 6.5 -64.9 20.35 -52.65 L30.75 -41.5 44.85 -23.4 47.5 -19.25 47.5 -19.15 47.75 -18.9 51.75 -14.0 60.1 0.1 69.35 19.0 78.5 40.35 78.6 40.75 78.75 41.0 79.0 42.1 79.1 42.25 79.1 42.6 79.75 46.0 79.6 46.25 79.6 46.5 79.1 47.85 77.35 48.6 77.5 50.1 Q79.1 55.5 72.1 61.35 L65.1 63.25 59.1 64.75 58.1 64.85 56.0 64.85 55.1 65.0 37.0 65.6 24.6 64.35 24.1 64.25 23.75 64.25 22.25 67.5 Q22.75 68.0 21.5 72.5 L21.35 77.6 Q-1.15 85.25 -22.15 77.25 -21.75 65.5 -29.0 58.6 -26.9 61.35 -28.25 63.85 L-29.75 62.0 -38.75 54.85 -45.15 50.85 -41.75 49.35 -41.5 49.35 -31.4 44.6 -28.0 40.6 -34.4 45.1 -53.4 53.25 -61.75 55.75 -74.15 57.1 -74.5 57.1 -75.5 57.25 -82.9 55.6 -84.25 54.75 Q-87.5 50.6 -87.75 43.85 L-86.0 42.85 -88.9 41.85 -89.65 41.25 M33.1 -5.0 L32.1 -0.4 37.85 11.35 38.5 11.85 47.35 27.1 50.6 31.85 50.6 32.35 51.25 32.85 51.6 34.0 55.25 34.25 38.6 6.35 38.0 4.5 33.1 -5.0 M-19.9 -2.15 L-19.9 -6.15 -20.75 -6.25 -19.9 10.5 -19.25 12.85 -19.5 14.0 -19.0 22.1 -18.65 22.35 -12.0 41.1 -11.5 41.25 -7.15 46.25 0.1 47.75 7.25 46.25 12.0 41.1 19.0 22.25 19.85 9.6 18.85 -0.65 18.5 3.0 17.6 6.25 Q15.5 16.35 3.25 20.0 L0.85 20.25 Q-8.15 23.0 -16.4 10.5 L-17.4 8.75 -17.9 7.1 -18.0 6.85 -19.25 2.6 -19.9 -2.15 M-37.0 -0.15 L-35.65 -3.75 -36.4 -8.25 -45.5 5.0 -46.65 6.0 -63.4 27.25 -59.25 28.1 -42.4 7.6 -37.0 -0.15 M-2.4 59.35 L-6.5 57.25 -7.15 57.25 -3.15 59.5 10.0 61.8 -2.4 59.35 M-31.4 36.85 L-29.25 38.75 -30.5 37.1 -31.4 36.85" fill="#cecece" fill-opacity="0.0" fill-rule="evenodd" stroke="none"/>
    <path d="M79.6 46.5 L79.25 49.0 77.5 50.1 77.35 48.6 79.1 47.85 79.6 46.5 M65.1 63.25 L57.0 73.1 40.1 91.0 38.25 92.5 30.25 97.75 28.6 98.6 27.35 98.85 26.75 98.35 23.1 94.6 21.1 91.85 19.85 87.85 19.75 83.1 17.5 84.1 -0.15 87.25 -17.75 84.1 -20.9 82.6 -21.0 88.6 -21.9 90.5 -22.0 91.0 -22.15 91.35 -22.25 91.5 -22.75 92.85 -24.65 95.0 -25.0 95.5 -28.4 98.85 -29.9 98.35 -35.25 95.25 -41.4 90.75 -48.65 83.35 -62.75 67.5 -70.75 56.85 -74.15 57.1 -61.75 55.75 -53.4 53.25 -34.4 45.1 -28.0 40.6 -31.4 44.6 -41.5 49.35 -41.75 49.35 -45.15 50.85 -38.75 54.85 -29.75 62.0 -28.25 63.85 Q-26.9 61.35 -29.0 58.6 -21.75 65.5 -22.15 77.25 -1.15 85.25 21.35 77.6 L21.5 72.5 Q22.75 68.0 22.25 67.5 L23.75 64.25 24.1 64.25 24.6 64.35 37.0 65.6 55.1 65.0 56.0 64.85 58.1 64.85 59.1 64.75 65.1 63.25 M-87.75 43.85 L-89.4 42.5 -89.65 41.25 -88.9 41.85 -86.0 42.85 -87.75 43.85 M-37.0 -0.15 L-42.4 7.6 -59.25 28.1 -63.4 27.25 -46.65 6.0 -45.5 5.0 -36.4 -8.25 -35.65 -3.75 -37.0 -0.15 M-19.9 -2.15 L-19.25 2.6 -18.0 6.85 -17.9 7.1 -17.4 8.75 -16.4 10.5 Q-8.15 23.0 0.85 20.25 L3.25 20.0 Q15.5 16.35 17.6 6.25 L18.5 3.0 18.85 -0.65 19.85 9.6 19.0 22.25 12.0 41.1 7.25 46.25 0.1 47.75 -7.15 46.25 -11.5 41.25 -12.0 41.1 -18.65 22.35 -19.0 22.1 -19.5 14.0 -19.25 12.85 -19.9 10.5 -20.75 -6.25 -19.9 -6.15 -19.9 -2.15 M33.1 -5.0 L38.0 4.5 38.6 6.35 55.25 34.25 51.6 34.0 51.25 32.85 50.6 32.35 50.6 31.85 47.35 27.1 38.5 11.85 37.85 11.35 32.1 -0.4 33.1 -5.0 M-31.4 36.85 L-30.5 37.1 -29.25 38.75 -31.4 36.85 M-2.4 59.35 L10.0 61.8 -3.15 59.5 -7.15 57.25 -6.5 57.25 -2.4 59.35" fill="#000000" fill-opacity="0.49803922" fill-rule="evenodd" stroke="none"/>
  </g>
</svg>
