<?xml version="1.0" encoding="UTF-8" standalone="no"?>
<svg xmlns:ffdec="https://www.free-decompiler.com/flash" xmlns:xlink="http://www.w3.org/1999/xlink" ffdec:objectType="shape" height="422.0px" width="207.6px" xmlns="http://www.w3.org/2000/svg">
  <g transform="matrix(1.0, 0.0, 0.0, 1.0, 100.9, 153.6)">
    <path d="M-54.8 -119.35 L-53.0 -120.5 -52.5 -122.75 Q-54.75 -132.0 -37.25 -130.0 -11.75 -169.75 15.75 -142.5 81.05 -41.95 104.75 31.5 118.75 152.5 32.75 190.5 L29.5 206.0 27.25 213.0 15.75 240.0 3.5 261.25 Q-5.5 276.5 -9.5 259.25 L-14.5 239.75 -22.0 201.25 -25.25 180.0 Q-32.85 174.55 -39.25 167.4 -48.8 156.9 -56.5 145.0 L-90.5 116.5 Q-109.35 73.8 -94.0 17.25 L-93.75 16.5 -81.0 -37.75 -64.25 -105.75 -54.8 -119.35" fill="#2e47aa" fill-rule="evenodd" stroke="none"/>
  </g>
</svg>
