<?xml version="1.0" encoding="UTF-8" standalone="no"?>
<svg xmlns:ffdec="https://www.free-decompiler.com/flash" xmlns:xlink="http://www.w3.org/1999/xlink" ffdec:objectType="shape" height="163.35px" width="168.9px" xmlns="http://www.w3.org/2000/svg">
  <g transform="matrix(1.0, 0.0, 0.0, 1.0, 88.65, 64.5)">
    <path d="M-12.75 -16.25 L-15.25 -20.25 -15.25 -25.0 -10.25 -27.0 -1.5 -26.75 -0.25 -26.25 0.0 -26.5 0.75 -26.75 6.75 -27.5 Q13.75 -26.5 14.25 -25.0 L14.25 -20.5 12.0 -16.75 Q9.5 -12.0 -0.25 -15.5 L-7.25 -13.75 Q-13.0 -14.5 -12.75 -16.25 M17.5 6.5 L22.25 17.25 23.75 23.25 30.0 35.25 33.75 39.75 -5.5 53.75 -11.0 58.5 -3.5 61.5 14.5 64.75 23.0 65.5 21.5 73.0 20.75 82.75 19.75 83.25 Q4.5 91.75 -21.75 81.75 L-22.25 70.0 -25.5 61.75 -30.5 56.75 -38.0 51.5 -34.5 46.0 -30.25 43.75 -26.0 39.25 -29.0 36.0 -24.0 24.5 -22.25 17.5 -17.75 8.25 -17.5 8.25 Q-8.25 24.0 1.0 20.25 L2.5 20.25 3.25 20.0 Q14.0 18.25 17.5 6.5 M-3.5 -19.0 L-4.75 -19.75 -6.75 -20.5 -8.0 -20.0 -9.0 -18.75 -9.5 -17.5 -7.75 -15.75 -4.5 -15.75 -3.5 -17.25 -3.5 -19.0 M5.75 -20.5 L5.25 -20.25 4.5 -20.0 4.0 -19.75 3.75 -19.5 Q1.75 -19.25 3.75 -15.75 L7.0 -15.75 Q8.75 -17.5 8.25 -19.5 L7.0 -20.0 6.75 -20.0 5.75 -20.5" fill="#ffffff" fill-rule="evenodd" stroke="none"/>
    <path d="M5.75 -20.5 L6.75 -20.0 7.0 -20.0 8.25 -19.5 Q8.75 -17.5 7.0 -15.75 L3.75 -15.75 Q1.75 -19.25 3.75 -19.5 L4.0 -19.75 4.5 -20.0 5.25 -20.25 5.75 -20.5 M-3.5 -19.0 L-3.5 -17.25 -4.5 -15.75 -7.75 -15.75 -9.5 -17.5 -9.0 -18.75 -8.0 -20.0 -6.75 -20.5 -4.75 -19.75 -3.5 -19.0" fill="#000000" fill-rule="evenodd" stroke="none"/>
    <path d="M12.0 -16.75 Q14.0 -16.05 15.5 -14.5 L18.5 -10.25 19.25 -2.5 17.5 6.5 Q14.0 18.25 3.25 20.0 L2.5 20.25 1.0 20.25 Q-8.25 24.0 -17.5 8.25 L-17.75 8.25 Q-24.75 -12.0 -12.75 -16.25 -13.0 -14.5 -7.25 -13.75 L-0.25 -15.5 Q9.5 -12.0 12.0 -16.75 M23.0 65.5 L39.75 66.75 59.75 65.25 64.5 64.25 53.0 78.0 40.0 91.5 Q34.4 95.15 28.75 98.75 L26.75 98.75 21.0 92.0 19.75 88.0 19.75 83.25 20.75 82.75 21.5 73.0 23.0 65.5 M-21.75 81.75 L-21.75 84.75 -25.25 93.25 -31.0 98.25 -44.5 89.0 -50.25 82.25 -51.0 81.5 -51.0 81.25 -52.5 79.75 -53.25 78.75 -61.0 70.0 -70.0 57.5 -60.0 56.0 -41.5 49.5 -38.0 51.5 -30.5 56.75 -25.5 61.75 -22.25 70.0 -21.75 81.75" fill="#e58508" fill-rule="evenodd" stroke="none"/>
    <path d="M33.0 -4.65 L32.0 -0.25 36.25 8.5 46.5 25.0 48.0 28.0 52.25 34.35 55.35 34.5 39.35 7.6 39.0 7.5 33.0 -4.65 M-88.5 41.85 Q-89.15 38.6 -87.25 35.85 L-75.0 15.0 -62.75 -3.5 -53.65 -15.25 -45.65 -23.0 -45.5 -23.25 Q-18.15 -62.5 -1.25 -64.4 5.5 -65.5 19.6 -53.25 L28.25 -44.5 44.85 -23.4 46.85 -20.25 46.85 -20.15 51.6 -14.5 60.0 -0.75 70.1 19.6 79.0 39.6 80.25 44.25 80.25 45.6 79.75 47.35 77.75 48.25 77.85 49.85 Q78.35 53.6 77.75 55.25 L73.0 60.85 65.0 63.35 58.75 65.0 58.0 65.0 57.25 65.1 56.5 65.1 55.6 65.25 54.0 65.25 51.85 65.5 50.6 65.5 38.5 66.35 24.35 65.6 24.0 65.5 23.25 65.5 Q22.1 66.5 21.5 72.5 L21.35 77.6 Q-1.15 85.25 -22.15 77.25 -21.75 65.5 -29.0 58.6 -26.9 61.35 -28.25 63.85 L-32.4 59.6 -37.25 55.85 -45.15 51.0 -30.25 43.85 -29.25 43.1 -26.5 39.5 -31.9 43.75 -52.5 53.1 -60.4 55.6 -73.15 57.35 -73.25 57.35 -74.15 57.5 -82.0 56.0 -83.65 54.5 -86.15 48.6 -86.5 44.75 -86.4 44.1 -84.9 43.35 -88.5 41.85 M0.1 47.75 L7.25 46.25 12.0 41.1 19.0 22.25 19.85 9.6 18.85 -0.65 18.5 3.0 17.6 6.25 Q15.5 16.35 3.25 20.0 L0.85 20.25 Q-8.15 23.0 -16.4 10.5 L-17.4 8.75 -17.9 7.1 -18.0 6.85 -19.25 2.6 -19.9 -2.15 -19.9 -6.15 -20.75 -6.25 -19.9 10.5 -19.25 12.85 -19.5 14.0 -19.0 22.1 -18.65 22.35 -12.0 41.1 -11.5 41.25 -7.15 46.25 0.1 47.75 M-27.25 38.0 L-28.9 36.0 -29.65 35.85 -27.65 38.0 -27.25 38.0 M-36.65 -0.15 L-35.25 -3.75 -36.15 -8.25 -44.65 4.5 -62.15 27.25 -58.0 28.0 -41.4 7.0 -36.65 -0.15 M-3.5 61.75 L7.05 63.2 -3.5 61.5 -8.25 59.5 -3.5 61.75" fill="#cecece" fill-opacity="0.0" fill-rule="evenodd" stroke="none"/>
    <path d="M33.0 -4.65 L39.0 7.5 39.35 7.6 55.35 34.5 52.25 34.35 48.0 28.0 46.5 25.0 36.25 8.5 32.0 -0.25 33.0 -4.65 M80.25 45.6 L79.6 48.75 77.85 49.85 77.75 48.25 79.75 47.35 80.25 45.6 M65.0 63.35 L57.0 73.1 40.1 91.0 38.25 92.5 30.25 97.75 28.6 98.6 27.35 98.85 26.75 98.35 23.1 94.6 21.1 91.85 19.85 87.85 19.75 83.1 17.5 84.1 -0.15 87.25 -17.75 84.1 -20.9 82.6 -21.0 88.6 -21.9 90.5 -22.0 91.0 -22.15 91.35 -22.25 91.5 -22.75 92.85 -24.65 95.0 -25.0 95.5 -28.4 98.85 -29.9 98.35 -35.25 95.25 -41.4 90.75 -48.65 83.35 -62.75 67.5 -70.5 57.25 -73.15 57.35 -60.4 55.6 -52.5 53.1 -31.9 43.75 -26.5 39.5 -29.25 43.1 -30.25 43.85 -45.15 51.0 -37.25 55.85 -32.4 59.6 -28.25 63.85 Q-26.9 61.35 -29.0 58.6 -21.75 65.5 -22.15 77.25 -1.15 85.25 21.35 77.6 L21.5 72.5 Q22.1 66.5 23.25 65.5 L24.0 65.5 24.35 65.6 38.5 66.35 50.6 65.5 51.85 65.5 54.0 65.25 55.6 65.25 56.5 65.1 57.25 65.1 58.0 65.0 58.75 65.0 65.0 63.35 M-86.5 44.75 L-88.5 43.0 -88.5 41.85 -84.9 43.35 -86.4 44.1 -86.5 44.75 M0.1 47.75 L-7.15 46.25 -11.5 41.25 -12.0 41.1 -18.65 22.35 -19.0 22.1 -19.5 14.0 -19.25 12.85 -19.9 10.5 -20.75 -6.25 -19.9 -6.15 -19.9 -2.15 -19.25 2.6 -18.0 6.85 -17.9 7.1 -17.4 8.75 -16.4 10.5 Q-8.15 23.0 0.85 20.25 L3.25 20.0 Q15.5 16.35 17.6 6.25 L18.5 3.0 18.85 -0.65 19.85 9.6 19.0 22.25 12.0 41.1 7.25 46.25 0.1 47.75 M-36.65 -0.15 L-41.4 7.0 -58.0 28.0 -62.15 27.25 -44.65 4.5 -36.15 -8.25 -35.25 -3.75 -36.65 -0.15 M-27.25 38.0 L-27.65 38.0 -29.65 35.85 -28.9 36.0 -27.25 38.0 M-3.5 61.75 L-8.25 59.5 -3.5 61.5 7.05 63.2 -3.5 61.75" fill="#000000" fill-opacity="0.49803922" fill-rule="evenodd" stroke="none"/>
  </g>
</svg>
