<?xml version="1.0" encoding="UTF-8" standalone="no"?>
<svg xmlns:ffdec="https://www.free-decompiler.com/flash" xmlns:xlink="http://www.w3.org/1999/xlink" ffdec:objectType="shape" height="163.35px" width="167.6px" xmlns="http://www.w3.org/2000/svg">
  <g transform="matrix(1.0, 0.0, 0.0, 1.0, 85.5, 64.5)">
    <path d="M-12.75 -16.25 L-15.25 -20.25 -15.25 -25.0 -10.25 -27.0 -1.5 -26.75 -0.25 -26.25 0.0 -26.5 0.75 -26.75 6.75 -27.5 Q13.75 -26.5 14.25 -25.0 L14.25 -20.5 12.0 -16.75 Q9.5 -12.0 -0.25 -15.5 L-7.25 -13.75 Q-13.0 -14.5 -12.75 -16.25 M17.5 6.5 L22.0 16.75 23.75 23.5 29.5 34.25 35.0 40.75 -3.5 56.75 -8.75 61.5 -1.5 64.25 15.25 66.5 22.5 66.75 21.0 81.5 20.75 82.75 19.75 83.25 Q4.5 91.75 -21.75 81.75 L-22.25 70.0 -25.5 61.75 -30.5 56.75 -38.0 51.5 -34.5 46.0 -25.75 40.75 -21.75 35.75 -25.75 32.75 -27.25 32.25 -24.0 24.5 -22.25 17.5 -17.75 8.25 -17.5 8.25 Q-8.25 24.0 1.0 20.25 L2.5 20.25 3.25 20.0 Q14.0 18.25 17.5 6.5 M-3.5 -19.0 L-4.75 -19.75 -6.75 -20.5 -8.0 -20.0 -9.0 -18.75 -9.5 -17.5 -7.75 -15.75 -4.5 -15.75 -3.5 -17.25 -3.5 -19.0 M5.75 -20.5 L5.25 -20.25 4.5 -20.0 4.0 -19.75 3.75 -19.5 Q1.75 -19.25 3.75 -15.75 L7.0 -15.75 Q8.75 -17.5 8.25 -19.5 L7.0 -20.0 6.75 -20.0 5.75 -20.5" fill="#ffffff" fill-rule="evenodd" stroke="none"/>
    <path d="M5.75 -20.5 L6.75 -20.0 7.0 -20.0 8.25 -19.5 Q8.75 -17.5 7.0 -15.75 L3.75 -15.75 Q1.75 -19.25 3.75 -19.5 L4.0 -19.75 4.5 -20.0 5.25 -20.25 5.75 -20.5 M-3.5 -19.0 L-3.5 -17.25 -4.5 -15.75 -7.75 -15.75 -9.5 -17.5 -9.0 -18.75 -8.0 -20.0 -6.75 -20.5 -4.75 -19.75 -3.5 -19.0" fill="#000000" fill-rule="evenodd" stroke="none"/>
    <path d="M12.0 -16.75 Q14.0 -16.05 15.5 -14.5 L18.5 -10.25 19.25 -2.5 17.5 6.5 Q14.0 18.25 3.25 20.0 L2.5 20.25 1.0 20.25 Q-8.25 24.0 -17.5 8.25 L-17.75 8.25 Q-24.75 -12.0 -12.75 -16.25 -13.0 -14.5 -7.25 -13.75 L-0.25 -15.5 Q9.5 -12.0 12.0 -16.75 M22.5 66.75 L42.0 67.5 64.0 64.75 53.0 78.0 40.0 91.5 Q34.4 95.15 28.75 98.75 L26.75 98.75 21.0 92.0 19.75 88.0 19.75 83.25 20.75 82.75 21.0 81.5 22.5 66.75 M-21.75 81.75 L-21.75 84.75 -25.25 93.25 -31.0 98.25 -44.5 89.0 -50.25 82.25 -51.0 81.5 -51.0 81.25 -52.5 79.75 -53.25 78.75 -61.0 70.0 -69.5 58.25 -69.0 58.25 -61.25 56.75 -60.75 56.5 -57.5 55.75 -57.0 55.75 -53.5 55.0 -43.75 50.25 -43.5 50.25 -42.5 49.75 -41.75 49.5 -38.0 51.5 -30.5 56.75 -25.5 61.75 -22.25 70.0 -21.75 81.75" fill="#e58508" fill-rule="evenodd" stroke="none"/>
    <path d="M-85.25 43.5 Q-87.15 39.35 -73.15 16.1 L-62.25 -2.0 -55.4 -11.75 -54.9 -12.0 -53.25 -14.75 -46.15 -22.25 Q-17.9 -62.9 -1.25 -64.4 5.5 -65.5 19.6 -53.25 L28.25 -44.5 35.1 -36.15 46.1 -21.4 51.75 -15.0 60.5 -1.5 68.75 14.0 80.85 39.0 82.1 44.25 82.0 44.5 82.0 44.85 81.6 46.35 79.6 47.35 79.85 48.75 Q80.5 50.5 80.1 54.1 L75.25 60.35 64.6 63.85 61.35 64.85 55.25 65.6 54.5 65.6 38.5 67.25 25.35 67.0 24.25 66.85 24.0 66.75 22.6 66.75 22.25 67.35 Q22.85 68.1 21.5 72.85 L21.35 77.6 Q-1.15 85.25 -22.15 77.25 -21.75 65.5 -29.0 58.6 -26.9 61.35 -28.25 63.85 L-32.4 59.6 -37.25 55.85 -44.65 51.25 -25.5 40.75 -22.15 36.1 -28.15 41.25 -48.0 51.75 -56.15 55.0 -70.0 57.85 -70.15 58.0 -78.0 57.1 -79.0 56.35 Q-82.65 52.6 -82.9 46.75 L-83.0 46.6 -83.0 45.75 -81.25 44.35 -85.25 43.5 M-19.9 -2.15 L-19.9 -6.15 -20.75 -6.25 -19.9 10.5 -19.25 12.85 -19.5 14.0 -19.0 22.1 -18.65 22.35 -12.0 41.1 -11.5 41.25 -7.15 46.25 0.1 47.75 7.25 46.25 12.0 41.1 19.0 22.25 19.85 9.6 18.85 -0.65 18.5 3.0 17.6 6.25 Q15.5 16.35 3.25 20.0 L0.85 20.25 Q-8.15 23.0 -16.4 10.5 L-17.4 8.75 -17.9 7.1 -18.0 6.85 -19.25 2.6 -19.9 -2.15 M-35.4 -0.65 L-34.4 -4.4 -35.4 -8.5 -42.75 3.85 -59.0 27.0 -54.65 27.35 -40.0 7.1 -35.4 -0.65 M50.0 23.25 L49.35 22.75 40.25 8.0 39.6 7.5 33.35 -4.4 32.5 0.0 35.85 6.5 36.25 6.6 37.0 8.6 48.0 25.35 49.35 28.0 49.85 28.25 54.0 34.5 56.35 34.6 57.75 35.5 51.85 26.75 50.0 23.25 M-25.65 32.85 L-23.4 34.5 -25.0 33.0 -25.65 32.85 M-6.4 62.35 L-1.25 64.5 8.75 65.4 -0.65 64.35 -6.4 62.35" fill="#cecece" fill-opacity="0.0" fill-rule="evenodd" stroke="none"/>
    <path d="M82.0 44.85 L81.5 47.6 79.85 48.75 79.6 47.35 81.6 46.35 82.0 44.85 M64.6 63.85 L57.0 73.1 40.1 91.0 34.1 95.5 28.6 98.6 27.35 98.85 26.75 98.35 23.1 94.6 21.1 91.85 19.85 87.85 19.75 83.1 17.5 84.1 -0.15 87.25 -17.75 84.1 -20.9 82.6 -21.0 88.6 -21.9 90.5 -22.0 91.0 -22.15 91.35 -22.25 91.5 -22.75 92.85 -24.65 95.0 -25.0 95.5 -28.4 98.85 -29.9 98.35 -35.25 95.25 -41.4 90.75 -57.9 73.25 -70.15 58.0 -70.0 57.85 -56.15 55.0 -48.0 51.75 -28.15 41.25 -22.15 36.1 -25.5 40.75 -44.65 51.25 -37.25 55.85 -32.4 59.6 -28.25 63.85 Q-26.9 61.35 -29.0 58.6 -21.75 65.5 -22.15 77.25 -1.15 85.25 21.35 77.6 L21.5 72.85 Q22.85 68.1 22.25 67.35 L22.6 66.75 24.0 66.75 24.25 66.85 25.35 67.0 38.5 67.25 54.5 65.6 55.25 65.6 61.35 64.85 64.6 63.85 M-83.0 46.6 L-85.25 44.85 -85.25 43.5 -81.25 44.35 -83.0 45.75 -83.0 46.6 M-35.4 -0.65 L-40.0 7.1 -54.65 27.35 -59.0 27.0 -42.75 3.85 -35.4 -8.5 -34.4 -4.4 -35.4 -0.65 M-19.9 -2.15 L-19.25 2.6 -18.0 6.85 -17.9 7.1 -17.4 8.75 -16.4 10.5 Q-8.15 23.0 0.85 20.25 L3.25 20.0 Q15.5 16.35 17.6 6.25 L18.5 3.0 18.85 -0.65 19.85 9.6 19.0 22.25 12.0 41.1 7.25 46.25 0.1 47.75 -7.15 46.25 -11.5 41.25 -12.0 41.1 -18.65 22.35 -19.0 22.1 -19.5 14.0 -19.25 12.85 -19.9 10.5 -20.75 -6.25 -19.9 -6.15 -19.9 -2.15 M50.0 23.25 L51.85 26.75 57.75 35.5 56.35 34.6 54.0 34.5 49.85 28.25 49.35 28.0 48.0 25.35 37.0 8.6 36.25 6.6 35.85 6.5 32.5 0.0 33.35 -4.4 39.6 7.5 40.25 8.0 49.35 22.75 50.0 23.25 M-25.65 32.85 L-25.0 33.0 -23.4 34.5 -25.65 32.85 M-6.4 62.35 L-0.65 64.35 8.75 65.4 -1.25 64.5 -6.4 62.35" fill="#000000" fill-opacity="0.49803922" fill-rule="evenodd" stroke="none"/>
  </g>
</svg>
