<?xml version="1.0" encoding="UTF-8" standalone="no"?>
<svg xmlns:ffdec="https://www.free-decompiler.com/flash" xmlns:xlink="http://www.w3.org/1999/xlink" ffdec:objectType="shape" height="163.35px" width="167.45px" xmlns="http://www.w3.org/2000/svg">
  <g transform="matrix(1.0, 0.0, 0.0, 1.0, 84.7, 64.5)">
    <path d="M-12.75 -16.25 L-15.25 -20.25 -15.25 -25.0 -10.25 -27.0 -1.5 -26.75 -0.25 -26.25 0.0 -26.5 0.75 -26.75 6.75 -27.5 Q13.75 -26.5 14.25 -25.0 L14.25 -20.5 12.0 -16.75 Q9.5 -12.0 -0.25 -15.5 L-7.25 -13.75 Q-13.0 -14.5 -12.75 -16.25 M17.5 6.5 L22.0 16.75 23.75 23.5 29.5 34.25 Q32.0 38.5 35.5 41.25 L-2.0 57.25 -7.25 62.25 0.0 64.75 14.75 66.75 22.5 67.0 20.75 82.75 19.75 83.25 Q4.5 91.75 -21.75 81.75 L-22.25 70.0 -25.5 61.75 -30.5 56.75 -38.0 51.5 -34.5 46.0 -24.75 40.0 -20.5 35.0 -24.5 32.0 -27.0 31.5 -24.0 24.5 -22.25 17.5 -17.75 8.25 -17.5 8.25 Q-8.25 24.0 1.0 20.25 L2.5 20.25 3.25 20.0 Q14.0 18.25 17.5 6.5 M5.75 -20.5 L5.25 -20.25 4.5 -20.0 4.0 -19.75 3.75 -19.5 Q1.75 -19.25 3.75 -15.75 L7.0 -15.75 Q8.75 -17.5 8.25 -19.5 L7.0 -20.0 6.75 -20.0 5.75 -20.5 M-4.75 -19.75 L-6.75 -20.5 -8.0 -20.0 -9.0 -18.75 -9.5 -17.5 -7.75 -15.75 -4.5 -15.75 -3.5 -17.25 -3.5 -19.0 -4.75 -19.75" fill="#ffffff" fill-rule="evenodd" stroke="none"/>
    <path d="M5.75 -20.5 L6.75 -20.0 7.0 -20.0 8.25 -19.5 Q8.75 -17.5 7.0 -15.75 L3.75 -15.75 Q1.75 -19.25 3.75 -19.5 L4.0 -19.75 4.5 -20.0 5.25 -20.25 5.75 -20.5 M-4.75 -19.75 L-3.5 -19.0 -3.5 -17.25 -4.5 -15.75 -7.75 -15.75 -9.5 -17.5 -9.0 -18.75 -8.0 -20.0 -6.75 -20.5 -4.75 -19.75" fill="#000000" fill-rule="evenodd" stroke="none"/>
    <path d="M12.0 -16.75 Q14.0 -16.05 15.5 -14.5 L18.5 -10.25 19.25 -2.5 17.5 6.5 Q14.0 18.25 3.25 20.0 L2.5 20.25 1.0 20.25 Q-8.25 24.0 -17.5 8.25 L-17.75 8.25 Q-24.75 -12.0 -12.75 -16.25 -13.0 -14.5 -7.25 -13.75 L-0.25 -15.5 Q9.5 -12.0 12.0 -16.75 M22.5 67.0 L42.5 67.75 64.0 64.75 53.0 78.0 40.0 91.5 Q34.4 95.15 28.75 98.75 L26.75 98.75 21.0 92.0 19.75 88.0 19.75 83.25 20.75 82.75 22.5 67.0 M-21.75 81.75 L-21.75 84.75 -25.25 93.25 -31.0 98.25 -44.5 89.0 -50.25 82.25 -51.0 81.5 -51.0 81.25 -52.5 79.75 -53.25 78.75 -59.75 71.5 -69.5 58.5 -68.75 58.75 -59.5 56.5 -59.0 56.25 -57.0 55.75 -56.5 55.75 -52.25 54.75 -41.25 49.5 -38.0 51.5 -30.5 56.75 -25.5 61.75 -22.25 70.0 -21.75 81.75" fill="#e58508" fill-rule="evenodd" stroke="none"/>
    <path d="M-84.4 43.85 Q-85.15 41.0 -83.4 37.5 L-72.4 16.1 -64.65 2.75 -64.25 2.6 -62.0 -1.75 -55.4 -11.4 -54.9 -11.65 -53.15 -14.65 -46.75 -21.65 Q-17.5 -63.25 -1.25 -64.4 5.5 -65.5 19.6 -53.25 L28.25 -44.5 35.1 -36.15 46.1 -21.4 51.5 -15.5 60.6 -1.65 70.25 16.0 78.5 33.1 78.6 33.35 78.75 33.6 78.85 33.85 79.0 34.1 79.1 34.35 79.25 34.6 80.6 37.5 80.75 37.75 80.85 38.0 81.0 38.25 81.1 38.5 81.25 38.75 82.1 41.6 82.25 41.75 82.75 43.35 82.5 44.85 82.5 45.1 82.1 46.25 Q81.25 46.7 80.35 47.1 L80.6 48.35 81.0 50.6 80.85 53.85 76.1 60.1 64.35 64.25 61.1 65.0 54.25 65.85 53.5 65.85 38.75 67.5 37.25 67.35 25.25 67.1 25.0 67.0 23.6 67.0 23.25 66.85 22.6 66.85 22.25 67.5 Q22.75 68.1 21.5 73.0 L21.35 77.6 Q-1.15 85.25 -22.15 77.25 -21.75 65.5 -29.0 58.6 -26.9 61.35 -28.25 63.85 L-29.75 62.0 -38.75 54.85 -44.4 51.35 -25.15 40.5 -23.75 39.25 -20.9 35.1 -27.25 40.6 -47.0 51.5 -55.25 54.85 -69.0 58.0 -69.9 58.0 -76.75 57.35 -78.5 56.1 -80.75 52.25 Q-82.0 50.1 -81.9 47.25 L-82.0 47.1 -81.9 45.85 -80.25 44.6 -84.4 43.85 M-19.9 -2.15 L-19.9 -6.15 -20.75 -6.25 -19.9 10.5 -19.25 12.85 -19.5 14.0 -19.0 22.1 -18.65 22.35 -12.0 41.1 -11.5 41.25 -7.15 46.25 0.1 47.75 7.25 46.25 12.0 41.1 19.0 22.25 19.85 9.6 18.85 -0.65 18.5 3.0 17.6 6.25 Q15.5 16.35 3.25 20.0 L0.85 20.25 Q-8.15 23.0 -16.4 10.5 L-17.4 8.75 -17.9 7.1 -18.0 6.85 -19.25 2.6 -19.9 -2.15 M-35.15 -0.65 L-34.0 -4.0 -35.25 -8.5 -42.25 3.75 -43.5 5.1 -53.75 20.25 -54.65 22.1 -55.15 22.35 -58.15 26.85 -53.65 27.25 -40.4 8.35 -35.15 -0.65 M54.75 34.5 L57.25 34.6 58.6 35.5 39.85 6.85 33.6 -4.65 32.85 0.0 38.0 9.6 48.6 25.25 48.85 26.25 54.75 34.5 M0.6 64.85 L-4.75 63.0 -0.25 65.0 11.3 65.95 0.6 64.85 M-24.5 32.1 L-22.5 33.5 -23.9 32.25 -24.5 32.1" fill="#cecece" fill-opacity="0.0" fill-rule="evenodd" stroke="none"/>
    <path d="M82.5 45.1 L82.25 47.25 80.6 48.35 80.35 47.1 Q81.25 46.7 82.1 46.25 L82.5 45.1 M64.35 64.25 L57.0 73.1 40.1 91.0 34.1 95.5 28.6 98.6 27.35 98.85 26.75 98.35 23.1 94.6 21.1 91.85 19.85 87.85 19.75 83.1 17.5 84.1 -0.15 87.25 -17.75 84.1 -20.9 82.6 -21.0 88.6 -21.9 90.5 -22.0 91.0 -22.15 91.35 -22.25 91.5 -22.75 92.85 -24.65 95.0 -25.0 95.5 -28.4 98.85 -29.9 98.35 -35.25 95.25 -41.4 90.75 -53.0 78.6 -62.75 67.5 -69.9 58.0 -69.0 58.0 -55.25 54.85 -47.0 51.5 -27.25 40.6 -20.9 35.1 -23.75 39.25 -25.15 40.5 -44.4 51.35 -38.75 54.85 -29.75 62.0 -28.25 63.85 Q-26.9 61.35 -29.0 58.6 -21.75 65.5 -22.15 77.25 -1.15 85.25 21.35 77.6 L21.5 73.0 Q22.75 68.1 22.25 67.5 L22.6 66.85 23.25 66.85 23.6 67.0 25.0 67.0 25.25 67.1 37.25 67.35 38.75 67.5 53.5 65.85 54.25 65.85 61.1 65.0 64.35 64.25 M-82.0 47.1 L-84.0 45.6 -84.4 43.85 -80.25 44.6 -81.9 45.85 -82.0 47.1 M-35.15 -0.65 L-40.4 8.35 -53.65 27.25 -58.15 26.85 -55.15 22.35 -54.65 22.1 -53.75 20.25 -43.5 5.1 -42.25 3.75 -35.25 -8.5 -34.0 -4.0 -35.15 -0.65 M-19.9 -2.15 L-19.25 2.6 -18.0 6.85 -17.9 7.1 -17.4 8.75 -16.4 10.5 Q-8.15 23.0 0.85 20.25 L3.25 20.0 Q15.5 16.35 17.6 6.25 L18.5 3.0 18.85 -0.65 19.85 9.6 19.0 22.25 12.0 41.1 7.25 46.25 0.1 47.75 -7.15 46.25 -11.5 41.25 -12.0 41.1 -18.65 22.35 -19.0 22.1 -19.5 14.0 -19.25 12.85 -19.9 10.5 -20.75 -6.25 -19.9 -6.15 -19.9 -2.15 M54.75 34.5 L48.85 26.25 48.6 25.25 38.0 9.6 32.85 0.0 33.6 -4.65 39.85 6.85 58.6 35.5 57.25 34.6 54.75 34.5 M0.6 64.85 L11.3 65.95 -0.25 65.0 -4.75 63.0 0.6 64.85 M-24.5 32.1 L-23.9 32.25 -22.5 33.5 -24.5 32.1" fill="#000000" fill-opacity="0.49803922" fill-rule="evenodd" stroke="none"/>
  </g>
</svg>
