<?xml version="1.0" encoding="UTF-8" standalone="no"?>
<svg xmlns:ffdec="https://www.free-decompiler.com/flash" xmlns:xlink="http://www.w3.org/1999/xlink" ffdec:objectType="shape" height="163.35px" width="166.7px" xmlns="http://www.w3.org/2000/svg">
  <g transform="matrix(1.0, 0.0, 0.0, 1.0, 83.1, 64.5)">
    <path d="M-12.75 -16.25 L-15.25 -20.25 -15.25 -25.0 -10.25 -27.0 -1.5 -26.75 -0.25 -26.25 0.0 -26.5 0.75 -26.75 6.75 -27.5 Q13.75 -26.5 14.25 -25.0 L14.25 -20.5 12.0 -16.75 Q9.5 -12.0 -0.25 -15.5 L-7.25 -13.75 Q-13.0 -14.5 -12.75 -16.25 M17.5 6.5 Q29.75 40.5 36.5 41.75 L1.0 58.25 -4.25 63.25 3.25 65.75 22.25 67.5 21.25 79.75 Q21.0 83.25 19.75 83.25 4.5 91.75 -21.75 81.75 L-22.25 70.0 -25.5 61.75 -30.5 56.75 -38.0 51.5 -34.75 46.25 -22.75 38.75 Q-18.75 34.5 -19.25 33.5 L-23.25 30.75 -26.25 30.25 -22.25 17.5 -17.75 8.25 -17.5 8.25 Q-8.25 24.0 1.0 20.25 L2.5 20.25 3.25 20.0 Q14.0 18.25 17.5 6.5 M-3.5 -19.0 L-4.75 -19.75 -6.75 -20.5 -8.0 -20.0 -9.0 -18.75 -9.5 -17.5 -7.75 -15.75 -4.5 -15.75 -3.5 -17.25 -3.5 -19.0 M5.75 -20.5 L5.25 -20.25 4.5 -20.0 4.0 -19.75 3.75 -19.5 Q1.75 -19.25 3.75 -15.75 L7.0 -15.75 Q8.75 -17.5 8.25 -19.5 L7.0 -20.0 6.75 -20.0 5.75 -20.5" fill="#ffffff" fill-rule="evenodd" stroke="none"/>
    <path d="M5.75 -20.5 L6.75 -20.0 7.0 -20.0 8.25 -19.5 Q8.75 -17.5 7.0 -15.75 L3.75 -15.75 Q1.75 -19.25 3.75 -19.5 L4.0 -19.75 4.5 -20.0 5.25 -20.25 5.75 -20.5 M-3.5 -19.0 L-3.5 -17.25 -4.5 -15.75 -7.75 -15.75 -9.5 -17.5 -9.0 -18.75 -8.0 -20.0 -6.75 -20.5 -4.75 -19.75 -3.5 -19.0" fill="#000000" fill-rule="evenodd" stroke="none"/>
    <path d="M12.0 -16.75 Q14.0 -16.05 15.5 -14.5 L18.5 -10.25 19.25 -2.5 17.5 6.5 Q14.0 18.25 3.25 20.0 L2.5 20.25 1.0 20.25 Q-8.25 24.0 -17.5 8.25 L-17.75 8.25 Q-24.75 -12.0 -12.75 -16.25 -13.0 -14.5 -7.25 -13.75 L-0.25 -15.5 Q9.5 -12.0 12.0 -16.75 M22.25 67.5 L45.5 67.75 63.75 65.0 53.0 78.0 40.0 91.5 Q34.4 95.15 28.75 98.75 L26.75 98.75 21.0 92.0 19.75 88.0 19.75 83.25 Q21.0 83.25 21.25 79.75 L22.25 67.5 M-21.75 81.75 L-21.75 84.75 -25.25 93.25 -31.0 98.25 -44.5 89.0 -50.25 82.25 -51.0 81.5 -51.0 81.25 -52.5 79.75 -53.25 78.75 -58.5 73.0 -69.25 58.75 -63.75 58.25 -58.0 56.5 -57.5 56.25 -54.0 55.25 -53.75 55.25 -49.5 54.0 -41.0 49.5 -38.0 51.5 -30.5 56.75 -25.5 61.75 -22.25 70.0 -21.75 81.75" fill="#e58508" fill-rule="evenodd" stroke="none"/>
    <path d="M-82.75 44.5 Q-83.75 42.1 -81.9 38.1 L-71.75 17.25 -64.0 3.1 -63.65 3.0 -62.0 -0.5 -53.15 -14.15 -48.75 -18.75 -47.15 -21.0 -46.9 -21.25 -46.75 -21.5 Q-17.5 -63.4 -1.25 -64.4 5.5 -65.5 19.6 -53.25 L28.25 -44.5 35.1 -36.15 46.1 -21.4 52.0 -15.0 62.1 0.25 71.35 16.6 82.25 38.0 83.6 42.0 83.6 44.35 83.5 44.6 83.5 45.35 82.6 46.35 81.85 46.6 82.0 47.5 Q83.0 52.0 81.85 53.85 L77.75 59.6 65.85 64.25 64.0 64.6 48.35 67.0 36.85 67.75 24.1 67.35 23.85 67.25 22.35 67.25 22.35 69.1 Q21.75 69.35 21.5 73.0 L21.35 77.6 Q-1.15 85.25 -22.15 77.25 -21.75 65.5 -29.0 58.6 -26.9 61.35 -28.25 63.85 L-29.75 62.0 -38.0 55.35 -44.15 51.5 -23.65 39.35 Q-22.5 39.35 -19.4 33.85 L-24.75 39.0 -44.9 50.75 -52.9 54.35 -67.0 58.1 -69.9 58.0 Q-78.65 59.6 -80.0 48.0 L-80.15 47.85 -80.15 46.35 -78.65 45.0 -82.75 44.5 M-20.75 -6.25 L-19.9 10.5 -19.25 12.85 -19.5 14.0 -19.0 22.1 -18.65 22.35 -12.0 41.1 -11.5 41.25 -7.15 46.25 0.1 47.75 7.25 46.25 12.0 41.1 19.0 22.25 19.85 9.6 18.85 -0.65 18.5 3.0 17.6 6.25 Q15.5 16.35 3.25 20.0 L0.85 20.25 Q-8.15 23.0 -16.4 10.5 L-17.4 8.75 -17.9 7.1 -18.0 6.85 -19.25 2.6 -19.9 -2.15 -19.9 -6.15 -20.75 -6.25 M34.25 -4.9 L33.35 -0.4 37.0 6.5 38.0 7.75 37.85 8.25 38.35 8.5 46.0 20.1 46.5 20.35 47.5 22.35 48.6 23.5 48.85 24.5 49.75 25.1 Q49.5 25.75 52.6 29.25 L52.5 29.6 53.25 30.1 56.25 34.35 58.6 34.5 60.25 35.35 41.35 7.6 34.25 -4.9 M-34.5 -1.0 L-33.65 -4.4 -34.9 -8.5 -40.5 1.25 -41.4 3.35 -42.0 3.85 -56.65 26.75 -52.15 26.85 -38.75 6.85 -34.5 -1.0 M17.35 66.85 L17.5 67.0 18.75 67.0 17.35 66.85 M3.35 65.75 L-1.75 64.0 3.6 66.0 13.85 66.6 3.35 65.75 M-23.0 30.85 L-21.25 32.0 -22.15 31.1 -23.0 30.85" fill="#cecece" fill-opacity="0.0" fill-rule="evenodd" stroke="none"/>
    <path d="M83.5 45.35 L83.35 46.6 82.0 47.5 81.85 46.6 82.6 46.35 83.5 45.35 M64.0 64.6 L57.0 73.1 40.1 91.0 38.25 92.5 30.25 97.75 28.6 98.6 27.35 98.85 26.75 98.35 23.1 94.6 21.1 91.85 19.85 87.85 19.75 83.1 17.5 84.1 -0.15 87.25 -17.75 84.1 -20.9 82.6 -21.0 88.6 -21.9 90.5 -22.0 91.0 -22.15 91.35 -22.25 91.5 -22.75 92.85 -24.65 95.0 -25.0 95.5 -28.4 98.85 -29.9 98.35 -35.25 95.25 -41.4 90.75 -62.75 67.5 -69.9 58.0 -67.0 58.1 -52.9 54.35 -44.9 50.75 -24.75 39.0 -19.4 33.85 Q-22.5 39.35 -23.65 39.35 L-44.15 51.5 -38.0 55.35 -29.75 62.0 -28.25 63.85 Q-26.9 61.35 -29.0 58.6 -21.75 65.5 -22.15 77.25 -1.15 85.25 21.35 77.6 L21.5 73.0 Q21.75 69.35 22.35 69.1 L22.35 67.25 23.85 67.25 24.1 67.35 36.85 67.75 48.35 67.0 64.0 64.6 M-80.15 47.85 L-82.65 46.0 -82.75 44.5 -78.65 45.0 -80.15 46.35 -80.15 47.85 M-20.75 -6.25 L-19.9 -6.15 -19.9 -2.15 -19.25 2.6 -18.0 6.85 -17.9 7.1 -17.4 8.75 -16.4 10.5 Q-8.15 23.0 0.85 20.25 L3.25 20.0 Q15.5 16.35 17.6 6.25 L18.5 3.0 18.85 -0.65 19.85 9.6 19.0 22.25 12.0 41.1 7.25 46.25 0.1 47.75 -7.15 46.25 -11.5 41.25 -12.0 41.1 -18.65 22.35 -19.0 22.1 -19.5 14.0 -19.25 12.85 -19.9 10.5 -20.75 -6.25 M-34.5 -1.0 L-38.75 6.85 -52.15 26.85 -56.65 26.75 -42.0 3.85 -41.4 3.35 -40.5 1.25 -34.9 -8.5 -33.65 -4.4 -34.5 -1.0 M34.25 -4.9 L41.35 7.6 60.25 35.35 58.6 34.5 56.25 34.35 53.25 30.1 52.5 29.6 52.6 29.25 Q49.5 25.75 49.75 25.1 L48.85 24.5 48.6 23.5 47.5 22.35 46.5 20.35 46.0 20.1 38.35 8.5 37.85 8.25 38.0 7.75 37.0 6.5 33.35 -0.4 34.25 -4.9 M3.35 65.75 L13.85 66.6 3.6 66.0 -1.75 64.0 3.35 65.75 M17.35 66.85 L18.75 67.0 17.5 67.0 17.35 66.85 M-23.0 30.85 L-22.15 31.1 -21.25 32.0 -23.0 30.85" fill="#000000" fill-opacity="0.49803922" fill-rule="evenodd" stroke="none"/>
  </g>
</svg>
