<?xml version="1.0" encoding="UTF-8" standalone="no"?>
<svg xmlns:ffdec="https://www.free-decompiler.com/flash" xmlns:xlink="http://www.w3.org/1999/xlink" ffdec:objectType="shape" height="163.35px" width="166.75px" xmlns="http://www.w3.org/2000/svg">
  <g transform="matrix(1.0, 0.0, 0.0, 1.0, 82.5, 64.5)">
    <path d="M-12.75 -16.25 L-15.25 -20.25 -15.25 -25.0 -10.25 -27.0 -1.5 -26.75 -0.25 -26.25 0.0 -26.5 0.75 -26.75 6.75 -27.5 Q13.75 -26.5 14.25 -25.0 L14.25 -20.5 12.0 -16.75 Q9.5 -12.0 -0.25 -15.5 L-7.25 -13.75 Q-13.0 -14.5 -12.75 -16.25 M17.5 6.5 Q30.0 41.0 36.75 42.25 L2.25 58.75 -2.5 63.75 5.0 66.25 22.25 67.75 21.25 79.75 Q21.0 83.25 19.75 83.25 4.5 91.75 -21.75 81.75 L-22.25 70.0 -25.5 61.75 -30.5 56.75 -38.0 51.5 -35.0 46.5 -22.5 38.5 Q-21.25 38.5 -18.5 33.25 L-22.5 30.25 -26.0 29.75 -22.25 17.5 -17.75 8.25 -17.5 8.25 Q-8.25 24.0 1.0 20.25 L2.5 20.25 3.25 20.0 Q14.0 18.25 17.5 6.5 M-3.5 -19.0 L-4.75 -19.75 -6.75 -20.5 -8.0 -20.0 -9.0 -18.75 -9.5 -17.5 -7.75 -15.75 -4.5 -15.75 -3.5 -17.25 -3.5 -19.0 M5.75 -20.5 L5.25 -20.25 4.5 -20.0 4.0 -19.75 3.75 -19.5 Q1.75 -19.25 3.75 -15.75 L7.0 -15.75 Q8.75 -17.5 8.25 -19.5 L7.0 -20.0 6.75 -20.0 5.75 -20.5" fill="#ffffff" fill-rule="evenodd" stroke="none"/>
    <path d="M5.75 -20.5 L6.75 -20.0 7.0 -20.0 8.25 -19.5 Q8.75 -17.5 7.0 -15.75 L3.75 -15.75 Q1.75 -19.25 3.75 -19.5 L4.0 -19.75 4.5 -20.0 5.25 -20.25 5.75 -20.5 M-3.5 -19.0 L-3.5 -17.25 -4.5 -15.75 -7.75 -15.75 -9.5 -17.5 -9.0 -18.75 -8.0 -20.0 -6.75 -20.5 -4.75 -19.75 -3.5 -19.0" fill="#000000" fill-rule="evenodd" stroke="none"/>
    <path d="M12.0 -16.75 Q14.0 -16.05 15.5 -14.5 L18.5 -10.25 19.25 -2.5 17.5 6.5 Q14.0 18.25 3.25 20.0 L2.5 20.25 1.0 20.25 Q-8.25 24.0 -17.5 8.25 L-17.75 8.25 Q-24.75 -12.0 -12.75 -16.25 -13.0 -14.5 -7.25 -13.75 L-0.25 -15.5 Q9.5 -12.0 12.0 -16.75 M22.25 67.75 L45.5 68.0 63.75 65.0 53.0 78.0 40.0 91.5 Q34.4 95.15 28.75 98.75 L26.75 98.75 21.0 92.0 19.75 88.0 19.75 83.25 Q21.0 83.25 21.25 79.75 L22.25 67.75 M-21.75 81.75 L-21.75 84.75 -25.25 93.25 -31.0 98.25 -44.5 89.0 -50.25 82.25 -51.0 81.5 -51.0 81.25 -52.5 79.75 -53.25 78.75 -58.5 73.0 -69.25 58.75 -64.5 58.5 -59.0 57.0 -58.5 56.75 -53.5 55.25 -53.25 55.25 -49.0 54.0 -41.0 49.75 -38.0 51.5 -30.5 56.75 -25.5 61.75 -22.25 70.0 -21.75 81.75" fill="#e58508" fill-rule="evenodd" stroke="none"/>
    <path d="M-82.15 44.6 Q-83.25 42.85 -81.0 37.6 L-71.0 16.75 -64.0 3.75 -63.5 3.35 -61.4 -1.15 -52.65 -14.65 -48.9 -18.5 -47.25 -20.75 -47.15 -21.0 Q-17.4 -63.65 -1.25 -64.4 5.5 -65.5 19.6 -53.25 L28.25 -44.5 35.1 -36.15 46.1 -21.4 51.35 -15.9 60.85 -2.15 71.0 15.25 82.75 37.85 Q84.85 41.85 84.0 45.1 L83.1 46.1 82.5 46.25 82.6 47.1 Q83.35 50.1 83.0 53.0 L78.5 59.35 66.35 64.25 64.0 64.6 51.0 66.75 49.85 66.85 46.25 67.5 36.75 67.85 23.85 67.5 23.35 67.35 22.25 67.35 22.35 69.1 Q21.1 71.85 21.35 77.6 -1.15 85.25 -22.15 77.25 -21.75 65.5 -29.0 58.6 -26.9 61.35 -28.25 63.85 L-29.75 62.0 -37.25 55.85 -43.9 51.6 -22.75 38.85 Q-21.9 38.6 -18.75 33.35 L-25.0 39.1 -44.25 50.6 -52.75 54.5 -66.4 58.25 -67.5 58.1 -69.9 58.0 Q-77.4 59.75 -79.4 48.25 L-79.5 48.1 -79.4 47.35 -79.5 46.6 -77.9 45.1 -82.15 44.6 M34.5 -5.15 L33.85 -0.15 Q35.75 2.75 35.5 3.35 L38.0 7.1 38.0 7.75 38.5 8.0 39.0 9.25 43.0 14.6 46.85 20.75 48.75 22.85 48.85 23.6 49.35 23.75 52.75 29.0 56.85 34.35 59.5 34.5 61.1 35.5 41.6 7.25 34.5 -5.15 M-34.5 -0.5 L-33.4 -4.25 -34.75 -8.5 -40.4 2.0 -56.0 26.6 -51.65 26.85 -38.25 6.5 -34.5 -0.5 M-19.9 -2.15 L-19.9 -6.15 -20.75 -6.25 -19.9 10.5 -19.25 12.85 -19.5 14.0 -19.0 22.1 -18.65 22.35 -12.0 41.1 -11.5 41.25 -7.15 46.25 0.1 47.75 7.25 46.25 12.0 41.1 19.0 22.25 19.85 9.6 18.85 -0.65 18.5 3.0 17.6 6.25 Q15.5 16.35 3.25 20.0 L0.85 20.25 Q-8.15 23.0 -16.4 10.5 L-17.4 8.75 -17.9 7.1 -18.0 6.85 -19.25 2.6 -19.9 -2.15 M4.6 66.0 L-1.15 64.1 4.5 66.35 14.25 66.85 4.6 66.0 M-22.4 30.6 L-20.75 31.6 -21.9 30.6 -22.4 30.6" fill="#cecece" fill-opacity="0.0" fill-rule="evenodd" stroke="none"/>
    <path d="M84.0 45.1 L84.0 46.1 82.6 47.1 82.5 46.25 83.1 46.1 84.0 45.1 M64.0 64.6 L57.0 73.1 40.1 91.0 38.25 92.5 30.25 97.75 28.6 98.6 27.35 98.85 26.75 98.35 23.1 94.6 21.1 91.85 19.85 87.85 19.75 83.1 17.5 84.1 -0.15 87.25 -17.75 84.1 -20.9 82.6 -21.0 88.6 -21.9 90.5 -22.0 91.0 -22.15 91.35 -22.25 91.5 -22.75 92.85 -24.65 95.0 -25.0 95.5 -28.4 98.85 -29.9 98.35 -35.25 95.25 -41.4 90.75 -62.75 67.5 -69.9 58.0 -67.5 58.1 -66.4 58.25 -52.75 54.5 -44.25 50.6 -25.0 39.1 -18.75 33.35 Q-21.9 38.6 -22.75 38.85 L-43.9 51.6 -37.25 55.85 -29.75 62.0 -28.25 63.85 Q-26.9 61.35 -29.0 58.6 -21.75 65.5 -22.15 77.25 -1.15 85.25 21.35 77.6 21.1 71.85 22.35 69.1 L22.25 67.35 23.35 67.35 23.85 67.5 36.75 67.85 46.25 67.5 49.85 66.85 51.0 66.75 64.0 64.6 M-79.5 48.1 L-81.9 46.35 -82.15 44.6 -77.9 45.1 -79.5 46.6 -79.4 47.35 -79.5 48.1 M-19.9 -2.15 L-19.25 2.6 -18.0 6.85 -17.9 7.1 -17.4 8.75 -16.4 10.5 Q-8.15 23.0 0.85 20.25 L3.25 20.0 Q15.5 16.35 17.6 6.25 L18.5 3.0 18.85 -0.65 19.85 9.6 19.0 22.25 12.0 41.1 7.25 46.25 0.1 47.75 -7.15 46.25 -11.5 41.25 -12.0 41.1 -18.65 22.35 -19.0 22.1 -19.5 14.0 -19.25 12.85 -19.9 10.5 -20.75 -6.25 -19.9 -6.15 -19.9 -2.15 M-34.5 -0.5 L-38.25 6.5 -51.65 26.85 -56.0 26.6 -40.4 2.0 -34.75 -8.5 -33.4 -4.25 -34.5 -0.5 M34.5 -5.15 L41.6 7.25 61.1 35.5 59.5 34.5 56.85 34.35 52.75 29.0 49.35 23.75 48.85 23.6 48.75 22.85 46.85 20.75 43.0 14.6 39.0 9.25 38.5 8.0 38.0 7.75 38.0 7.1 35.5 3.35 Q35.75 2.75 33.85 -0.15 L34.5 -5.15 M4.6 66.0 L14.25 66.85 4.5 66.35 -1.15 64.1 4.6 66.0 M-22.4 30.6 L-21.9 30.6 -20.75 31.6 -22.4 30.6" fill="#000000" fill-opacity="0.49803922" fill-rule="evenodd" stroke="none"/>
  </g>
</svg>
