<?xml version="1.0" encoding="UTF-8" standalone="no"?>
<svg xmlns:ffdec="https://www.free-decompiler.com/flash" xmlns:xlink="http://www.w3.org/1999/xlink" ffdec:objectType="shape" height="163.35px" width="166.6px" xmlns="http://www.w3.org/2000/svg">
  <g transform="matrix(1.0, 0.0, 0.0, 1.0, 81.8, 64.5)">
    <path d="M-12.75 -16.25 L-15.25 -20.25 -15.25 -25.0 -10.25 -27.0 -1.5 -26.75 -0.25 -26.25 0.0 -26.5 0.75 -26.75 6.75 -27.5 Q13.75 -26.5 14.25 -25.0 L14.25 -20.5 12.0 -16.75 Q9.5 -12.0 -0.25 -15.5 L-7.25 -13.75 Q-13.0 -14.5 -12.75 -16.25 M17.5 6.5 Q30.25 41.25 37.0 42.5 L4.0 59.0 -1.0 64.25 6.25 66.5 22.25 68.0 21.25 79.75 Q21.0 83.25 19.75 83.25 4.5 91.75 -21.75 81.75 L-22.25 70.0 -25.5 61.75 -30.5 56.75 -38.0 51.5 -36.0 48.0 -22.25 39.75 -18.5 34.5 -22.25 31.5 -26.5 30.75 -22.25 17.5 -17.75 8.25 -17.5 8.25 Q-8.25 24.0 1.0 20.25 L2.5 20.25 3.25 20.0 Q14.0 18.25 17.5 6.5 M-3.5 -19.0 L-4.75 -19.75 -6.75 -20.5 -8.0 -20.0 -9.0 -18.75 -9.5 -17.5 -7.75 -15.75 -4.5 -15.75 -3.5 -17.25 -3.5 -19.0 M5.75 -20.5 L5.25 -20.25 4.5 -20.0 4.0 -19.75 3.75 -19.5 Q1.75 -19.25 3.75 -15.75 L7.0 -15.75 Q8.75 -17.5 8.25 -19.5 L7.0 -20.0 6.75 -20.0 5.75 -20.5" fill="#ffffff" fill-rule="evenodd" stroke="none"/>
    <path d="M5.75 -20.5 L6.75 -20.0 7.0 -20.0 8.25 -19.5 Q8.75 -17.5 7.0 -15.75 L3.75 -15.75 Q1.75 -19.25 3.75 -19.5 L4.0 -19.75 4.5 -20.0 5.25 -20.25 5.75 -20.5 M-3.5 -19.0 L-3.5 -17.25 -4.5 -15.75 -7.75 -15.75 -9.5 -17.5 -9.0 -18.75 -8.0 -20.0 -6.75 -20.5 -4.75 -19.75 -3.5 -19.0" fill="#000000" fill-rule="evenodd" stroke="none"/>
    <path d="M12.0 -16.75 Q14.0 -16.05 15.5 -14.5 L18.5 -10.25 19.25 -2.5 17.5 6.5 Q14.0 18.25 3.25 20.0 L2.5 20.25 1.0 20.25 Q-8.25 24.0 -17.5 8.25 L-17.75 8.25 Q-24.75 -12.0 -12.75 -16.25 -13.0 -14.5 -7.25 -13.75 L-0.25 -15.5 Q9.5 -12.0 12.0 -16.75 M22.25 68.0 L47.0 68.0 63.75 65.0 53.0 78.0 40.0 91.5 Q34.4 95.15 28.75 98.75 L26.75 98.75 21.0 92.0 19.75 88.0 19.75 83.25 Q21.0 83.25 21.25 79.75 L22.25 68.0 M-21.75 81.75 L-21.75 84.75 -25.25 93.25 -31.0 98.25 -44.5 89.0 -50.25 82.25 -51.0 81.5 -51.0 81.25 -52.5 79.75 -53.25 78.75 -58.5 73.0 -69.0 59.0 -63.0 58.75 -57.75 57.25 -57.25 57.0 -56.0 56.75 -55.5 56.5 -53.75 56.0 -53.5 56.0 -50.0 55.25 -40.0 50.25 -38.0 51.5 -30.5 56.75 -25.5 61.75 -22.25 70.0 -21.75 81.75" fill="#e58508" fill-rule="evenodd" stroke="none"/>
    <path d="M-81.5 44.85 Q-83.5 41.0 -71.25 18.0 L-61.15 -1.15 -53.25 -13.5 -47.25 -20.75 Q-17.25 -63.75 -1.25 -64.4 5.5 -65.5 19.6 -53.25 L28.25 -44.5 35.1 -36.15 46.1 -21.4 51.75 -15.5 59.6 -4.25 70.75 14.25 83.0 37.25 Q85.5 42.6 84.5 44.75 L83.25 46.0 83.25 46.6 Q84.0 49.5 83.6 52.6 L79.1 59.1 67.25 64.1 64.0 64.6 48.25 67.35 36.6 68.0 23.35 67.6 22.6 67.5 22.35 67.5 22.35 69.1 Q21.75 69.35 21.5 73.0 L21.35 77.6 Q-1.15 85.25 -22.15 77.25 -21.75 65.5 -29.0 58.6 -26.9 61.35 -28.25 63.85 L-29.75 62.0 -34.25 58.1 -43.15 52.1 -39.9 50.5 -22.65 40.1 Q-21.9 40.0 -19.25 35.6 -46.15 56.1 -65.9 58.5 L-66.15 58.6 -69.65 58.35 -73.9 58.0 -75.0 57.1 -77.65 53.0 Q-79.15 50.25 -78.75 48.35 L-78.9 48.35 -78.9 46.75 -77.25 45.1 -81.5 44.85 M34.75 -5.4 L34.0 -0.5 38.0 7.1 52.75 28.25 57.5 34.25 60.1 34.35 62.0 35.5 42.35 7.6 34.75 -5.4 M-34.4 -0.4 L-33.25 -4.4 Q-34.75 -7.75 -34.25 -8.25 L-34.65 -8.5 -40.75 3.1 -41.15 3.25 -55.9 27.1 -51.5 27.35 -37.9 6.1 -34.4 -0.4 M-19.9 -2.15 L-19.9 -6.15 -20.75 -6.25 -19.9 10.5 -19.25 12.85 -19.5 14.0 -19.0 22.1 -18.65 22.35 -12.0 41.1 -11.5 41.25 -7.15 46.25 0.1 47.75 7.25 46.25 12.0 41.1 19.0 22.25 19.85 9.6 18.85 -0.65 18.5 3.0 17.6 6.25 Q15.5 16.35 3.25 20.0 L0.85 20.25 Q-8.15 23.0 -16.4 10.5 L-17.4 8.75 -17.9 7.1 -18.0 6.85 -19.25 2.6 -19.9 -2.15 M6.6 66.6 L1.0 64.75 6.25 66.75 14.85 67.1 6.6 66.6 M-22.4 31.75 L-20.4 33.1 -21.75 31.85 -22.4 31.75" fill="#cecece" fill-opacity="0.0" fill-rule="evenodd" stroke="none"/>
    <path d="M84.5 44.75 L84.35 45.85 83.25 46.6 83.25 46.0 84.5 44.75 M64.0 64.6 L57.0 73.1 40.1 91.0 38.25 92.5 30.25 97.75 28.6 98.6 27.35 98.85 26.75 98.35 23.1 94.6 21.1 91.85 19.85 87.85 19.75 83.1 17.5 84.1 -0.15 87.25 -17.75 84.1 -20.9 82.6 -21.0 88.6 -21.9 90.5 -22.0 91.0 -22.15 91.35 -22.25 91.5 -22.75 92.85 -24.65 95.0 -25.0 95.5 -28.4 98.85 -29.9 98.35 -35.25 95.25 -41.4 90.75 -57.9 73.25 -69.65 58.35 -66.15 58.6 -65.9 58.5 Q-46.15 56.1 -19.25 35.6 -21.9 40.0 -22.65 40.1 L-39.9 50.5 -43.15 52.1 -34.25 58.1 -29.75 62.0 -28.25 63.85 Q-26.9 61.35 -29.0 58.6 -21.75 65.5 -22.15 77.25 -1.15 85.25 21.35 77.6 L21.5 73.0 Q21.75 69.35 22.35 69.1 L22.35 67.5 22.6 67.5 23.35 67.6 36.6 68.0 48.25 67.35 64.0 64.6 M-78.9 48.35 L-81.25 46.6 -81.5 44.85 -77.25 45.1 -78.9 46.75 -78.9 48.35 M-19.9 -2.15 L-19.25 2.6 -18.0 6.85 -17.9 7.1 -17.4 8.75 -16.4 10.5 Q-8.15 23.0 0.85 20.25 L3.25 20.0 Q15.5 16.35 17.6 6.25 L18.5 3.0 18.85 -0.65 19.85 9.6 19.0 22.25 12.0 41.1 7.25 46.25 0.1 47.75 -7.15 46.25 -11.5 41.25 -12.0 41.1 -18.65 22.35 -19.0 22.1 -19.5 14.0 -19.25 12.85 -19.9 10.5 -20.75 -6.25 -19.9 -6.15 -19.9 -2.15 M-34.4 -0.4 L-37.9 6.1 -51.5 27.35 -55.9 27.1 -41.15 3.25 -40.75 3.1 -34.65 -8.5 -34.25 -8.25 Q-34.75 -7.75 -33.25 -4.4 L-34.4 -0.4 M34.75 -5.4 L42.35 7.6 62.0 35.5 60.1 34.35 57.5 34.25 52.75 28.25 38.0 7.1 34.0 -0.5 34.75 -5.4 M6.6 66.6 L14.85 67.1 6.25 66.75 1.0 64.75 6.6 66.6 M-22.4 31.75 L-21.75 31.85 -20.4 33.1 -22.4 31.75" fill="#000000" fill-opacity="0.49803922" fill-rule="evenodd" stroke="none"/>
  </g>
</svg>
