<?xml version="1.0" encoding="UTF-8" standalone="no"?>
<svg xmlns:ffdec="https://www.free-decompiler.com/flash" xmlns:xlink="http://www.w3.org/1999/xlink" ffdec:objectType="shape" height="163.35px" width="166.65px" xmlns="http://www.w3.org/2000/svg">
  <g transform="matrix(1.0, 0.0, 0.0, 1.0, 81.45, 64.5)">
    <path d="M-12.75 -16.25 L-15.25 -20.25 -15.25 -25.0 -10.25 -27.0 -1.5 -26.75 -0.25 -26.25 0.0 -26.5 0.75 -26.75 6.75 -27.5 Q13.75 -26.5 14.25 -25.0 L14.25 -20.5 12.0 -16.75 Q9.5 -12.0 -0.25 -15.5 L-7.25 -13.75 Q-13.0 -14.5 -12.75 -16.25 M17.5 6.5 Q30.5 41.75 37.25 43.0 L5.25 59.5 0.5 64.5 8.0 67.0 22.25 68.0 21.25 79.75 Q21.0 83.25 19.75 83.25 4.5 91.75 -21.75 81.75 -19.5 60.0 -37.5 51.75 L-36.25 51.25 -23.25 44.25 Q-18.5 40.25 -19.25 39.0 L-22.75 35.75 -28.25 34.25 -24.0 24.5 -22.25 17.5 -17.75 8.25 -17.5 8.25 Q-8.25 24.0 1.0 20.25 L2.5 20.25 3.25 20.0 Q14.0 18.25 17.5 6.5 M-3.5 -19.0 L-4.75 -19.75 -6.75 -20.5 -8.0 -20.0 -9.0 -18.75 -9.5 -17.5 -7.75 -15.75 -4.5 -15.75 -3.5 -17.25 -3.5 -19.0 M5.75 -20.5 L5.25 -20.25 4.5 -20.0 4.0 -19.75 3.75 -19.5 Q1.75 -19.25 3.75 -15.75 L7.0 -15.75 Q8.75 -17.5 8.25 -19.5 L7.0 -20.0 6.75 -20.0 5.75 -20.5" fill="#ffffff" fill-rule="evenodd" stroke="none"/>
    <path d="M5.75 -20.5 L6.75 -20.0 7.0 -20.0 8.25 -19.5 Q8.75 -17.5 7.0 -15.75 L3.75 -15.75 Q1.75 -19.25 3.75 -19.5 L4.0 -19.75 4.5 -20.0 5.25 -20.25 5.75 -20.5 M-3.5 -19.0 L-3.5 -17.25 -4.5 -15.75 -7.75 -15.75 -9.5 -17.5 -9.0 -18.75 -8.0 -20.0 -6.75 -20.5 -4.75 -19.75 -3.5 -19.0" fill="#000000" fill-rule="evenodd" stroke="none"/>
    <path d="M12.0 -16.75 Q14.0 -16.05 15.5 -14.5 L18.5 -10.25 19.25 -2.5 17.5 6.5 Q14.0 18.25 3.25 20.0 L2.5 20.25 1.0 20.25 Q-8.25 24.0 -17.5 8.25 L-17.75 8.25 Q-24.75 -12.0 -12.75 -16.25 -13.0 -14.5 -7.25 -13.75 L-0.25 -15.5 Q9.5 -12.0 12.0 -16.75 M22.25 68.0 L47.75 68.0 63.75 65.0 53.0 78.0 40.0 91.5 Q34.4 95.15 28.75 98.75 L26.75 98.75 21.0 92.0 19.75 88.0 19.75 83.25 Q21.0 83.25 21.25 79.75 L22.25 68.0 M-21.75 81.75 L-21.75 84.75 -25.25 93.25 -31.0 98.25 -44.5 89.0 -50.25 82.25 -51.0 81.5 -51.0 81.25 -52.5 79.75 -53.25 78.75 -58.5 73.0 -68.25 60.0 -62.75 59.75 -52.25 57.5 -50.0 57.25 -41.25 53.25 -41.0 53.25 -37.5 51.75 Q-19.5 60.0 -21.75 81.75" fill="#e58508" fill-rule="evenodd" stroke="none"/>
    <path d="M-81.15 45.0 Q-82.0 42.25 -80.5 39.0 L-71.15 18.35 -61.4 -0.4 -54.75 -10.5 -53.5 -13.0 -47.4 -20.5 -47.25 -20.75 Q-17.25 -63.75 -1.25 -64.4 5.5 -65.5 19.6 -53.25 L28.25 -44.5 35.1 -36.15 46.1 -21.4 51.6 -15.75 60.1 -3.75 70.85 13.85 83.5 37.1 Q85.75 41.6 85.0 44.35 L84.5 45.35 83.6 45.6 83.85 46.25 Q84.75 49.75 84.1 52.5 L79.75 58.85 67.75 64.0 64.0 64.6 52.75 66.75 51.85 66.85 50.75 67.1 46.1 67.75 36.5 68.1 22.25 67.75 Q22.75 68.25 21.5 72.6 L21.35 77.6 Q-1.15 85.25 -22.15 77.25 -21.75 65.5 -29.0 58.6 -26.9 61.35 -28.25 63.85 L-34.25 58.1 -40.9 53.6 -23.25 44.5 Q-22.5 44.35 -19.75 40.25 -47.25 58.85 -64.9 59.35 L-65.0 59.35 -65.65 59.5 -67.0 59.5 -69.25 59.0 -73.65 58.25 -75.4 57.0 -77.65 52.35 Q-78.75 50.25 -78.5 48.5 L-78.65 48.35 -78.65 47.0 -77.0 45.25 -81.15 45.0 M-20.75 -6.25 L-19.9 10.5 -19.25 12.85 -19.5 14.0 -19.0 22.1 -18.65 22.35 -12.0 41.1 -11.5 41.25 -7.15 46.25 0.1 47.75 7.25 46.25 12.0 41.1 19.0 22.25 19.85 9.6 18.85 -0.65 18.5 3.0 17.6 6.25 Q15.5 16.35 3.25 20.0 L0.85 20.25 Q-8.15 23.0 -16.4 10.5 L-17.4 8.75 -17.9 7.1 -18.0 6.85 -19.25 2.6 -19.9 -2.15 -19.9 -6.15 -20.75 -6.25 M35.0 -5.5 L34.25 -0.75 38.0 6.6 52.85 27.6 58.0 34.25 60.6 34.25 62.75 35.35 55.6 25.75 54.35 23.35 52.35 21.0 43.35 7.85 42.85 7.6 35.0 -5.5 M-34.25 -0.4 L-33.15 -4.4 -34.5 -8.65 -40.4 2.6 -56.25 28.25 -52.25 28.75 -48.9 24.0 -46.15 19.1 -45.25 18.25 -45.25 17.75 -44.9 17.75 -37.75 6.25 -36.15 2.6 -34.25 -0.4 M13.5 67.25 L8.1 66.85 2.5 65.1 7.1 67.0 13.5 67.25 M-21.75 36.25 L-22.75 36.0 -19.15 39.35 -21.75 36.25" fill="#cecece" fill-opacity="0.0" fill-rule="evenodd" stroke="none"/>
    <path d="M85.0 44.35 L85.0 45.25 83.85 46.25 83.6 45.6 84.5 45.35 85.0 44.35 M64.0 64.6 L57.0 73.1 40.1 91.0 38.25 92.5 30.25 97.75 28.6 98.6 27.35 98.85 26.75 98.35 23.1 94.6 21.1 91.85 19.85 87.85 19.75 83.1 17.5 84.1 -0.15 87.25 -17.75 84.1 -20.9 82.6 -21.0 88.6 -21.9 90.5 -22.0 91.0 -22.15 91.35 -22.25 91.5 -22.75 92.85 -24.65 95.0 -25.0 95.5 -28.4 98.85 -29.9 98.35 -35.25 95.25 -41.4 90.75 -57.9 73.25 -69.25 59.0 -67.0 59.5 -65.65 59.5 -65.0 59.35 -64.9 59.35 Q-47.25 58.85 -19.75 40.25 -22.5 44.35 -23.25 44.5 L-40.9 53.6 -34.25 58.1 -28.25 63.85 Q-26.9 61.35 -29.0 58.6 -21.75 65.5 -22.15 77.25 -1.15 85.25 21.35 77.6 L21.5 72.6 Q22.75 68.25 22.25 67.75 L36.5 68.1 46.1 67.75 50.75 67.1 51.85 66.85 52.75 66.75 64.0 64.6 M-78.65 48.35 L-80.5 47.1 -81.0 46.5 -81.15 45.0 -77.0 45.25 -78.65 47.0 -78.65 48.35 M-20.75 -6.25 L-19.9 -6.15 -19.9 -2.15 -19.25 2.6 -18.0 6.85 -17.9 7.1 -17.4 8.75 -16.4 10.5 Q-8.15 23.0 0.85 20.25 L3.25 20.0 Q15.5 16.35 17.6 6.25 L18.5 3.0 18.85 -0.65 19.85 9.6 19.0 22.25 12.0 41.1 7.25 46.25 0.1 47.75 -7.15 46.25 -11.5 41.25 -12.0 41.1 -18.65 22.35 -19.0 22.1 -19.5 14.0 -19.25 12.85 -19.9 10.5 -20.75 -6.25 M-34.25 -0.4 L-36.15 2.6 -37.75 6.25 -44.9 17.75 -45.25 17.75 -45.25 18.25 -46.15 19.1 -48.9 24.0 -52.25 28.75 -56.25 28.25 -40.4 2.6 -34.5 -8.65 -33.15 -4.4 -34.25 -0.4 M35.0 -5.5 L42.85 7.6 43.35 7.85 52.35 21.0 54.35 23.35 55.6 25.75 62.75 35.35 60.6 34.25 58.0 34.25 52.85 27.6 38.0 6.6 34.25 -0.75 35.0 -5.5 M13.5 67.25 L7.1 67.0 2.5 65.1 8.1 66.85 13.5 67.25 M-21.75 36.25 L-19.15 39.35 -22.75 36.0 -21.75 36.25" fill="#000000" fill-opacity="0.49803922" fill-rule="evenodd" stroke="none"/>
  </g>
</svg>
