<?xml version="1.0" encoding="UTF-8" standalone="no"?>
<svg xmlns:ffdec="https://www.free-decompiler.com/flash" xmlns:xlink="http://www.w3.org/1999/xlink" ffdec:objectType="shape" height="163.35px" width="166.75px" xmlns="http://www.w3.org/2000/svg">
  <g transform="matrix(1.0, 0.0, 0.0, 1.0, 81.2, 64.5)">
    <path d="M-12.75 -16.25 L-15.25 -20.25 -15.25 -25.0 -10.25 -27.0 -1.5 -26.75 -0.25 -26.25 0.0 -26.5 0.75 -26.75 6.75 -27.5 Q13.75 -26.5 14.25 -25.0 L14.25 -20.5 12.0 -16.75 Q9.5 -12.0 -0.25 -15.5 L-7.25 -13.75 Q-13.0 -14.5 -12.75 -16.25 M17.5 6.5 Q30.5 42.25 37.75 43.25 L6.75 59.75 2.0 65.0 9.5 67.25 22.25 68.25 21.0 81.5 20.75 82.75 19.75 83.25 Q4.5 91.75 -21.75 81.75 -19.0 62.25 -35.25 53.25 L-23.75 47.5 Q-22.0 47.25 -19.25 43.0 L-23.0 39.0 -29.75 36.75 -26.0 29.75 -22.25 17.5 -17.75 8.25 -17.5 8.25 Q-8.25 24.0 1.0 20.25 L2.5 20.25 3.25 20.0 Q14.0 18.25 17.5 6.5 M-3.5 -19.0 L-4.75 -19.75 -6.75 -20.5 -8.0 -20.0 -9.0 -18.75 -9.5 -17.5 -7.75 -15.75 -4.5 -15.75 -3.5 -17.25 -3.5 -19.0 M5.75 -20.5 L5.25 -20.25 4.5 -20.0 4.0 -19.75 3.75 -19.5 Q1.75 -19.25 3.75 -15.75 L7.0 -15.75 Q8.75 -17.5 8.25 -19.5 L7.0 -20.0 6.75 -20.0 5.75 -20.5" fill="#ffffff" fill-rule="evenodd" stroke="none"/>
    <path d="M5.75 -20.5 L6.75 -20.0 7.0 -20.0 8.25 -19.5 Q8.75 -17.5 7.0 -15.75 L3.75 -15.75 Q1.75 -19.25 3.75 -19.5 L4.0 -19.75 4.5 -20.0 5.25 -20.25 5.75 -20.5 M-3.5 -19.0 L-3.5 -17.25 -4.5 -15.75 -7.75 -15.75 -9.5 -17.5 -9.0 -18.75 -8.0 -20.0 -6.75 -20.5 -4.75 -19.75 -3.5 -19.0" fill="#000000" fill-rule="evenodd" stroke="none"/>
    <path d="M12.0 -16.75 Q14.0 -16.05 15.5 -14.5 L18.5 -10.25 19.25 -2.5 17.5 6.5 Q14.0 18.25 3.25 20.0 L2.5 20.25 1.0 20.25 Q-8.25 24.0 -17.5 8.25 L-17.75 8.25 Q-24.75 -12.0 -12.75 -16.25 -13.0 -14.5 -7.25 -13.75 L-0.25 -15.5 Q9.5 -12.0 12.0 -16.75 M22.25 68.25 L47.5 68.0 63.75 65.0 53.0 78.0 40.0 91.5 Q34.4 95.15 28.75 98.75 L26.75 98.75 21.0 92.0 19.75 88.0 19.75 83.25 20.75 82.75 21.0 81.5 22.25 68.25 M-21.75 81.75 L-21.75 84.75 -25.25 93.25 -31.0 98.25 -44.5 89.0 -50.25 82.25 -51.0 81.5 -51.0 81.25 -52.5 79.75 -53.25 78.75 -59.75 71.5 -67.75 60.75 -67.0 60.75 -52.0 59.0 -51.5 58.75 -35.25 53.25 Q-19.0 62.25 -21.75 81.75" fill="#e58508" fill-rule="evenodd" stroke="none"/>
    <path d="M-80.9 45.1 Q-82.9 41.25 -70.9 18.25 L-61.25 -0.4 -55.0 -10.5 -54.4 -11.0 -53.15 -13.5 -49.0 -18.15 -47.4 -20.5 Q-17.25 -63.9 -1.25 -64.4 5.5 -65.5 19.6 -53.25 L28.25 -44.5 35.1 -36.15 46.1 -21.4 51.75 -15.65 61.0 -2.75 70.85 13.35 83.75 36.6 Q86.1 41.5 85.35 44.1 L85.0 45.0 84.25 45.35 84.35 45.85 Q85.1 49.0 84.75 52.0 L80.5 58.5 68.85 63.75 64.0 64.6 54.35 66.5 53.5 66.75 52.6 66.85 49.5 67.5 36.35 68.25 22.35 67.85 21.5 72.6 21.35 77.6 Q-1.15 85.25 -22.15 77.25 -21.75 65.5 -29.0 58.6 -26.9 61.35 -28.25 63.85 L-29.75 62.0 -33.15 59.0 -39.0 54.75 -23.9 47.85 Q-23.0 47.75 -19.65 43.0 L-26.15 48.0 -45.25 56.5 -53.4 58.85 -53.5 58.85 -54.5 59.0 -54.75 59.0 -55.65 59.1 -56.0 59.1 -57.15 59.35 -58.4 59.35 -59.15 59.5 -59.5 59.5 -60.25 59.6 -60.9 59.6 -61.4 59.75 -62.15 59.85 -62.5 59.85 -63.15 60.0 -64.4 60.0 -64.75 60.1 -65.0 60.1 -66.0 60.25 -68.75 59.75 -73.4 58.5 -75.25 57.25 -77.9 51.25 -78.25 48.5 -78.4 48.5 -78.4 47.0 -76.75 45.25 -80.9 45.1 M-20.75 -6.25 L-19.9 10.5 -19.25 12.85 -19.5 14.0 -19.0 22.1 -18.65 22.35 -12.0 41.1 -11.5 41.25 -7.15 46.25 0.1 47.75 7.25 46.25 12.0 41.1 19.0 22.25 19.85 9.6 18.85 -0.65 18.5 3.0 17.6 6.25 Q15.5 16.35 3.25 20.0 L0.85 20.25 Q-8.15 23.0 -16.4 10.5 L-17.4 8.75 -17.9 7.1 -18.0 6.85 -19.25 2.6 -19.9 -2.15 -19.9 -6.15 -20.75 -6.25 M35.25 -5.65 L34.5 -0.9 36.0 1.75 36.1 2.85 37.1 4.0 38.0 6.0 45.25 16.5 49.1 21.25 49.0 21.6 49.6 22.0 53.0 27.0 58.6 34.1 61.75 34.25 63.5 35.35 43.1 7.1 35.25 -5.65 M-34.0 -0.9 L-33.15 -4.65 -34.5 -8.65 -40.25 2.6 -56.5 29.0 -52.65 29.85 -37.65 6.25 -34.0 -0.9 M14.75 67.5 L9.5 67.25 4.0 65.5 8.85 67.35 14.75 67.5 M-20.65 41.5 L-22.0 39.5 -23.25 39.1 -20.65 41.5" fill="#cecece" fill-opacity="0.0" fill-rule="evenodd" stroke="none"/>
    <path d="M85.35 44.1 L85.25 45.1 84.35 45.85 84.25 45.35 85.0 45.0 85.35 44.1 M64.0 64.6 L57.0 73.1 40.1 91.0 38.25 92.5 30.25 97.75 28.6 98.6 27.35 98.85 26.75 98.35 23.1 94.6 21.1 91.85 19.85 87.85 19.75 83.1 17.5 84.1 -0.15 87.25 -17.75 84.1 -20.9 82.6 -21.0 88.6 -21.9 90.5 -22.0 91.0 -22.15 91.35 -22.25 91.5 -22.75 92.85 -24.65 95.0 -25.0 95.5 -28.4 98.85 -29.9 98.35 -35.25 95.25 -41.4 90.75 -57.9 73.25 -68.75 59.75 -66.0 60.25 -65.0 60.1 -64.75 60.1 -64.4 60.0 -63.15 60.0 -62.5 59.85 -62.15 59.85 -61.4 59.75 -60.9 59.6 -60.25 59.6 -59.5 59.5 -59.15 59.5 -58.4 59.35 -57.15 59.35 -56.0 59.1 -55.65 59.1 -54.75 59.0 -54.5 59.0 -53.5 58.85 -53.4 58.85 -45.25 56.5 -26.15 48.0 -19.65 43.0 Q-23.0 47.75 -23.9 47.85 L-39.0 54.75 -33.15 59.0 -29.75 62.0 -28.25 63.85 Q-26.9 61.35 -29.0 58.6 -21.75 65.5 -22.15 77.25 -1.15 85.25 21.35 77.6 L21.5 72.6 22.35 67.85 36.35 68.25 49.5 67.5 52.6 66.85 53.5 66.75 54.35 66.5 64.0 64.6 M-78.4 48.5 L-80.4 47.0 -80.9 45.1 -76.75 45.25 -78.4 47.0 -78.4 48.5 M-20.75 -6.25 L-19.9 -6.15 -19.9 -2.15 -19.25 2.6 -18.0 6.85 -17.9 7.1 -17.4 8.75 -16.4 10.5 Q-8.15 23.0 0.85 20.25 L3.25 20.0 Q15.5 16.35 17.6 6.25 L18.5 3.0 18.85 -0.65 19.85 9.6 19.0 22.25 12.0 41.1 7.25 46.25 0.1 47.75 -7.15 46.25 -11.5 41.25 -12.0 41.1 -18.65 22.35 -19.0 22.1 -19.5 14.0 -19.25 12.85 -19.9 10.5 -20.75 -6.25 M-34.0 -0.9 L-37.65 6.25 -52.65 29.85 -56.5 29.0 -40.25 2.6 -34.5 -8.65 -33.15 -4.65 -34.0 -0.9 M35.25 -5.65 L43.1 7.1 63.5 35.35 61.75 34.25 58.6 34.1 53.0 27.0 49.6 22.0 49.0 21.6 49.1 21.25 45.25 16.5 38.0 6.0 37.1 4.0 36.1 2.85 36.0 1.75 34.5 -0.9 35.25 -5.65 M14.75 67.5 L8.85 67.35 4.0 65.5 9.5 67.25 14.75 67.5 M-20.65 41.5 L-23.25 39.1 -22.0 39.5 -20.65 41.5" fill="#000000" fill-opacity="0.49803922" fill-rule="evenodd" stroke="none"/>
  </g>
</svg>
