<?xml version="1.0" encoding="UTF-8" standalone="no"?>
<svg xmlns:ffdec="https://www.free-decompiler.com/flash" xmlns:xlink="http://www.w3.org/1999/xlink" ffdec:objectType="shape" height="163.35px" width="167.0px" xmlns="http://www.w3.org/2000/svg">
  <g transform="matrix(1.0, 0.0, 0.0, 1.0, 81.05, 64.5)">
    <path d="M-12.75 -16.25 L-15.25 -20.25 -15.25 -25.0 -10.25 -27.0 -1.5 -26.75 -0.25 -26.25 0.0 -26.5 0.75 -26.75 6.75 -27.5 Q13.75 -26.5 14.25 -25.0 L14.25 -20.5 12.0 -16.75 Q9.5 -12.0 -0.25 -15.5 L-7.25 -13.75 Q-13.0 -14.5 -12.75 -16.25 M17.5 6.5 Q30.5 42.75 38.25 43.5 L8.25 60.0 3.5 65.25 10.75 67.5 22.25 68.25 21.0 81.5 20.75 82.75 19.75 83.25 Q4.5 91.75 -21.75 81.75 L-22.25 70.0 -25.5 61.75 -32.75 55.0 -37.25 52.0 -22.25 44.0 Q-19.25 42.0 -18.25 39.0 L-22.25 35.75 -28.25 34.0 -24.25 25.0 -22.25 17.5 -17.75 8.25 -17.5 8.25 Q-8.25 24.0 1.0 20.25 L2.5 20.25 3.25 20.0 Q14.0 18.25 17.5 6.5 M-3.5 -19.0 L-4.75 -19.75 -6.75 -20.5 -8.0 -20.0 -9.0 -18.75 -9.5 -17.5 -7.75 -15.75 -4.5 -15.75 -3.5 -17.25 -3.5 -19.0 M5.75 -20.5 L5.25 -20.25 4.5 -20.0 4.0 -19.75 3.75 -19.5 Q1.75 -19.25 3.75 -15.75 L7.0 -15.75 Q8.75 -17.5 8.25 -19.5 L7.0 -20.0 6.75 -20.0 5.75 -20.5" fill="#ffffff" fill-rule="evenodd" stroke="none"/>
    <path d="M5.75 -20.5 L6.75 -20.0 7.0 -20.0 8.25 -19.5 Q8.75 -17.5 7.0 -15.75 L3.75 -15.75 Q1.75 -19.25 3.75 -19.5 L4.0 -19.75 4.5 -20.0 5.25 -20.25 5.75 -20.5 M-3.5 -19.0 L-3.5 -17.25 -4.5 -15.75 -7.75 -15.75 -9.5 -17.5 -9.0 -18.75 -8.0 -20.0 -6.75 -20.5 -4.75 -19.75 -3.5 -19.0" fill="#000000" fill-rule="evenodd" stroke="none"/>
    <path d="M12.0 -16.75 Q14.0 -16.05 15.5 -14.5 L18.5 -10.25 19.25 -2.5 17.5 6.5 Q14.0 18.25 3.25 20.0 L2.5 20.25 1.0 20.25 Q-8.25 24.0 -17.5 8.25 L-17.75 8.25 Q-24.75 -12.0 -12.75 -16.25 -13.0 -14.5 -7.25 -13.75 L-0.25 -15.5 Q9.5 -12.0 12.0 -16.75 M22.25 68.25 L51.0 67.75 63.75 65.0 53.0 78.0 40.0 91.5 Q34.4 95.15 28.75 98.75 L26.75 98.75 21.0 92.0 19.75 88.0 19.75 83.25 20.75 82.75 21.0 81.5 22.25 68.25 M-21.75 81.75 L-21.75 84.75 -25.25 93.25 -31.0 98.25 -44.5 89.0 -50.25 82.25 -51.0 81.5 -51.0 81.25 -52.5 79.75 -53.25 78.75 -59.75 71.5 -68.5 59.75 -68.0 60.0 -61.75 59.75 -51.25 57.5 -39.25 52.75 -38.75 52.5 -37.25 52.0 -32.75 55.0 -25.5 61.75 -22.25 70.0 -21.75 81.75" fill="#e58508" fill-rule="evenodd" stroke="none"/>
    <path d="M-80.75 45.1 Q-82.75 41.25 -70.5 17.6 L-61.0 -0.75 -55.15 -10.25 -54.5 -10.75 -52.65 -14.25 -49.0 -18.15 -47.4 -20.5 Q-17.25 -63.9 -1.25 -64.4 5.5 -65.5 19.6 -53.25 L28.25 -44.5 35.1 -36.15 46.1 -21.4 51.35 -16.15 60.5 -3.65 72.6 15.75 84.25 36.75 Q86.5 40.85 85.75 43.85 L85.25 44.85 84.6 45.0 84.75 45.35 Q85.75 48.85 85.25 51.6 L81.0 58.25 69.75 63.5 64.0 64.6 54.25 66.6 53.35 66.85 49.5 67.6 36.35 68.25 24.0 68.0 22.6 67.85 22.35 67.85 21.5 72.6 21.35 77.6 Q-1.15 85.25 -22.15 77.25 -21.75 65.5 -29.0 58.6 -26.9 61.35 -28.25 63.85 L-29.75 62.0 -33.0 59.1 -40.5 53.75 -23.15 44.75 Q-21.75 44.5 -19.0 40.1 -46.4 58.85 -64.9 59.5 L-65.25 59.5 -65.75 59.6 -69.25 59.0 -73.0 58.35 -74.9 57.1 -77.0 53.0 Q-78.25 50.35 -78.0 48.6 L-78.15 48.6 -78.15 47.5 -76.5 45.25 -80.75 45.1 M35.35 -5.9 L34.75 -1.0 Q36.6 1.75 36.35 2.85 L44.85 15.35 59.1 34.0 61.75 34.0 64.1 35.25 43.6 7.1 35.35 -5.9 M-33.65 -3.0 L-33.0 -4.25 Q-34.65 -8.0 -34.15 -8.5 L-34.5 -8.65 -40.4 3.0 -40.75 3.1 -50.4 19.0 -51.65 21.6 -55.9 28.1 -51.75 28.75 -37.5 6.1 -34.0 -0.75 -33.65 -3.0 M-19.9 -2.15 L-19.9 -6.15 -20.75 -6.25 -19.9 10.5 -19.25 12.85 -19.5 14.0 -19.0 22.1 -18.65 22.35 -12.0 41.1 -11.5 41.25 -7.15 46.25 0.1 47.75 7.25 46.25 12.0 41.1 19.0 22.25 19.85 9.6 18.85 -0.65 18.5 3.0 17.6 6.25 Q15.5 16.35 3.25 20.0 L0.85 20.25 Q-8.15 23.0 -16.4 10.5 L-17.4 8.75 -17.9 7.1 -18.0 6.85 -19.25 2.6 -19.9 -2.15 M10.6 67.6 L16.85 67.75 10.85 67.5 5.75 65.85 10.6 67.6 M-21.15 36.1 L-22.15 35.85 -19.9 37.6 -21.15 36.1" fill="#cecece" fill-opacity="0.0" fill-rule="evenodd" stroke="none"/>
    <path d="M85.75 43.85 L85.75 44.6 84.75 45.35 84.6 45.0 85.25 44.85 85.75 43.85 M64.0 64.6 L57.0 73.1 40.1 91.0 38.25 92.5 30.25 97.75 28.6 98.6 27.35 98.85 26.75 98.35 23.1 94.6 21.1 91.85 19.85 87.85 19.75 83.1 17.5 84.1 -0.15 87.25 -17.75 84.1 -20.9 82.6 -21.0 88.6 -21.9 90.5 -22.0 91.0 -22.15 91.35 -22.25 91.5 -22.75 92.85 -24.65 95.0 -25.0 95.5 -28.4 98.85 -29.9 98.35 -35.25 95.25 -41.4 90.75 -57.9 73.25 -69.25 59.0 -65.75 59.6 -65.25 59.5 -64.9 59.5 Q-46.4 58.85 -19.0 40.1 -21.75 44.5 -23.15 44.75 L-40.5 53.75 -33.0 59.1 -29.75 62.0 -28.25 63.85 Q-26.9 61.35 -29.0 58.6 -21.75 65.5 -22.15 77.25 -1.15 85.25 21.35 77.6 L21.5 72.6 22.35 67.85 22.6 67.85 24.0 68.0 36.35 68.25 49.5 67.6 53.35 66.85 54.25 66.6 64.0 64.6 M-78.15 48.6 L-80.25 47.1 -80.75 45.1 -76.5 45.25 -78.15 47.5 -78.15 48.6 M-19.9 -2.15 L-19.25 2.6 -18.0 6.85 -17.9 7.1 -17.4 8.75 -16.4 10.5 Q-8.15 23.0 0.85 20.25 L3.25 20.0 Q15.5 16.35 17.6 6.25 L18.5 3.0 18.85 -0.65 19.85 9.6 19.0 22.25 12.0 41.1 7.25 46.25 0.1 47.75 -7.15 46.25 -11.5 41.25 -12.0 41.1 -18.65 22.35 -19.0 22.1 -19.5 14.0 -19.25 12.85 -19.9 10.5 -20.75 -6.25 -19.9 -6.15 -19.9 -2.15 M-33.65 -3.0 L-34.0 -0.75 -37.5 6.1 -51.75 28.75 -55.9 28.1 -51.65 21.6 -50.4 19.0 -40.75 3.1 -40.4 3.0 -34.5 -8.65 -34.15 -8.5 Q-34.65 -8.0 -33.0 -4.25 L-33.65 -3.0 M35.35 -5.9 L43.6 7.1 64.1 35.25 61.75 34.0 59.1 34.0 44.85 15.35 36.35 2.85 Q36.6 1.75 34.75 -1.0 L35.35 -5.9 M10.6 67.6 L5.75 65.85 10.85 67.5 16.85 67.75 10.6 67.6 M-21.15 36.1 L-19.9 37.6 -22.15 35.85 -21.15 36.1" fill="#000000" fill-opacity="0.49803922" fill-rule="evenodd" stroke="none"/>
  </g>
</svg>
