<?xml version="1.0" encoding="UTF-8" standalone="no"?>
<svg xmlns:ffdec="https://www.free-decompiler.com/flash" xmlns:xlink="http://www.w3.org/1999/xlink" ffdec:objectType="shape" height="163.35px" width="167.9px" xmlns="http://www.w3.org/2000/svg">
  <g transform="matrix(1.0, 0.0, 0.0, 1.0, 81.05, 64.5)">
    <path d="M-12.75 -16.25 L-15.25 -20.25 -15.25 -25.0 -10.25 -27.0 -1.5 -26.75 -0.25 -26.25 0.0 -26.5 0.75 -26.75 6.75 -27.5 Q13.75 -26.5 14.25 -25.0 L14.25 -20.5 12.0 -16.75 Q9.5 -12.0 -0.25 -15.5 L-7.25 -13.75 Q-13.0 -14.5 -12.75 -16.25 M17.5 6.5 L22.0 16.75 23.75 23.5 29.75 34.75 32.25 38.25 39.0 44.5 12.0 60.75 7.75 66.0 15.0 68.25 22.25 68.5 20.75 82.75 19.75 83.25 Q4.5 91.75 -21.75 81.75 L-22.25 70.0 -25.5 61.75 -30.5 56.75 -38.0 51.5 -35.75 47.75 -20.5 38.25 -16.5 33.0 -21.0 30.0 -26.0 29.25 -22.25 17.5 -17.75 8.25 -17.5 8.25 Q-8.25 24.0 1.0 20.25 L2.5 20.25 3.25 20.0 Q14.0 18.25 17.5 6.5 M-3.5 -19.0 L-4.75 -19.75 -6.75 -20.5 -8.0 -20.0 -9.0 -18.75 -9.5 -17.5 -7.75 -15.75 -4.5 -15.75 -3.5 -17.25 -3.5 -19.0 M5.75 -20.5 L5.25 -20.25 4.5 -20.0 4.0 -19.75 3.75 -19.5 Q1.75 -19.25 3.75 -15.75 L7.0 -15.75 Q8.75 -17.5 8.25 -19.5 L7.0 -20.0 6.75 -20.0 5.75 -20.5" fill="#ffffff" fill-rule="evenodd" stroke="none"/>
    <path d="M5.75 -20.5 L6.75 -20.0 7.0 -20.0 8.25 -19.5 Q8.75 -17.5 7.0 -15.75 L3.75 -15.75 Q1.75 -19.25 3.75 -19.5 L4.0 -19.75 4.5 -20.0 5.25 -20.25 5.75 -20.5 M-3.5 -19.0 L-3.5 -17.25 -4.5 -15.75 -7.75 -15.75 -9.5 -17.5 -9.0 -18.75 -8.0 -20.0 -6.75 -20.5 -4.75 -19.75 -3.5 -19.0" fill="#000000" fill-rule="evenodd" stroke="none"/>
    <path d="M12.0 -16.75 Q14.0 -16.05 15.5 -14.5 L18.5 -10.25 19.25 -2.5 17.5 6.5 Q14.0 18.25 3.25 20.0 L2.5 20.25 1.0 20.25 Q-8.25 24.0 -17.5 8.25 L-17.75 8.25 Q-24.75 -12.0 -12.75 -16.25 -13.0 -14.5 -7.25 -13.75 L-0.25 -15.5 Q9.5 -12.0 12.0 -16.75 M22.25 68.5 L53.5 67.5 63.75 65.0 53.0 78.0 40.0 91.5 Q34.4 95.15 28.75 98.75 L26.75 98.75 21.0 92.0 19.75 88.0 19.75 83.25 20.75 82.75 22.25 68.5 M-21.75 81.75 L-21.75 84.75 -25.25 93.25 -31.0 98.25 -44.5 89.0 -50.25 82.25 -51.0 81.5 -51.0 81.25 -52.5 79.75 -53.25 78.75 -58.5 73.0 -69.25 58.75 -65.0 59.0 -57.0 57.0 -56.5 56.75 -52.5 55.5 -52.25 55.5 -48.25 54.5 -40.25 50.25 -38.0 51.5 -30.5 56.75 -25.5 61.75 -22.25 70.0 -21.75 81.75" fill="#e58508" fill-rule="evenodd" stroke="none"/>
    <path d="M-80.75 45.1 Q-82.75 41.1 -70.25 17.1 L-61.0 -0.75 -54.5 -10.75 -52.65 -14.25 -48.9 -18.25 -47.4 -20.5 Q-17.25 -63.9 -1.25 -64.4 5.5 -65.5 19.6 -53.25 L28.25 -44.5 35.1 -36.15 46.1 -21.4 51.5 -16.0 62.5 -1.25 72.75 14.6 85.25 36.35 Q87.25 39.5 86.75 42.85 L86.0 44.1 Q87.25 48.25 86.5 50.75 L82.6 57.25 72.0 62.75 64.0 64.6 53.0 67.25 52.25 67.35 51.5 67.35 48.1 67.75 15.1 68.1 9.25 66.35 14.5 68.25 22.35 68.25 21.5 72.75 21.35 77.6 Q-1.15 85.25 -22.15 77.25 -21.75 65.5 -29.0 58.6 -26.9 61.35 -28.25 63.85 L-29.75 62.0 -35.75 57.0 -43.25 52.1 -39.9 50.5 -20.25 38.1 -17.15 33.35 -22.4 38.35 -42.9 50.75 -50.9 54.5 -64.9 58.35 -69.75 58.25 Q-75.25 59.85 -77.9 48.75 L-78.0 48.6 -78.0 47.0 -76.4 45.25 -80.75 45.1 M36.0 -6.65 L35.5 -1.25 38.1 4.35 39.6 6.0 44.35 13.1 60.25 33.25 60.0 33.85 60.75 33.6 64.0 33.6 66.1 34.85 45.1 7.35 44.35 5.75 36.0 -6.65 M-33.75 -2.65 L-33.0 -4.25 Q-34.65 -8.0 -34.15 -8.5 L-34.5 -8.65 -40.4 3.0 -40.75 3.1 -54.9 26.6 -50.5 26.75 -37.5 6.1 -34.0 -0.9 -33.75 -2.65 M-19.9 -2.15 L-19.9 -6.15 -20.75 -6.25 -19.9 10.5 -19.25 12.85 -19.5 14.0 -19.0 22.1 -18.65 22.35 -12.0 41.1 -11.5 41.25 -7.15 46.25 0.1 47.75 7.25 46.25 12.0 41.1 19.0 22.25 19.85 9.6 18.85 -0.65 18.5 3.0 17.6 6.25 Q15.5 16.35 3.25 20.0 L0.85 20.25 Q-8.15 23.0 -16.4 10.5 L-17.4 8.75 -17.9 7.1 -18.0 6.85 -19.25 2.6 -19.9 -2.15 M11.85 60.85 L11.5 61.35 11.85 61.35 11.85 60.85 M-18.9 31.35 L-19.75 30.5 -20.65 30.25 -18.9 31.35" fill="#cecece" fill-opacity="0.0" fill-rule="evenodd" stroke="none"/>
    <path d="M86.75 42.85 L86.6 43.6 86.0 44.1 86.75 42.85 M64.0 64.6 L57.0 73.1 40.1 91.0 38.25 92.5 30.25 97.75 28.6 98.6 27.35 98.85 26.75 98.35 23.1 94.6 21.1 91.85 19.85 87.85 19.75 83.1 17.5 84.1 -0.15 87.25 -17.75 84.1 -20.9 82.6 -21.0 88.6 -21.9 90.5 -22.0 91.0 -22.15 91.35 -22.25 91.5 -22.75 92.85 -24.65 95.0 -25.0 95.5 -28.4 98.85 -29.9 98.35 -35.25 95.25 -41.4 90.75 -57.9 73.25 -69.75 58.25 -64.9 58.35 -50.9 54.5 -42.9 50.75 -22.4 38.35 -17.15 33.35 -20.25 38.1 -39.9 50.5 -43.25 52.1 -35.75 57.0 -29.75 62.0 -28.25 63.85 Q-26.9 61.35 -29.0 58.6 -21.75 65.5 -22.15 77.25 -1.15 85.25 21.35 77.6 L21.5 72.75 22.35 68.25 14.5 68.25 9.25 66.35 15.1 68.1 48.1 67.75 51.5 67.35 52.25 67.35 53.0 67.25 64.0 64.6 M-78.0 48.6 L-80.25 47.1 -80.75 45.1 -76.4 45.25 -78.0 47.0 -78.0 48.6 M-19.9 -2.15 L-19.25 2.6 -18.0 6.85 -17.9 7.1 -17.4 8.75 -16.4 10.5 Q-8.15 23.0 0.85 20.25 L3.25 20.0 Q15.5 16.35 17.6 6.25 L18.5 3.0 18.85 -0.65 19.85 9.6 19.0 22.25 12.0 41.1 7.25 46.25 0.1 47.75 -7.15 46.25 -11.5 41.25 -12.0 41.1 -18.65 22.35 -19.0 22.1 -19.5 14.0 -19.25 12.85 -19.9 10.5 -20.75 -6.25 -19.9 -6.15 -19.9 -2.15 M-33.75 -2.65 L-34.0 -0.9 -37.5 6.1 -50.5 26.75 -54.9 26.6 -40.75 3.1 -40.4 3.0 -34.5 -8.65 -34.15 -8.5 Q-34.65 -8.0 -33.0 -4.25 L-33.75 -2.65 M36.0 -6.65 L44.35 5.75 45.1 7.35 66.1 34.85 64.0 33.6 60.75 33.6 60.0 33.85 60.25 33.25 44.35 13.1 39.6 6.0 38.1 4.35 35.5 -1.25 36.0 -6.65 M11.85 60.85 L11.85 61.35 11.5 61.35 11.85 60.85 M-18.9 31.35 L-20.65 30.25 -19.75 30.5 -18.9 31.35" fill="#000000" fill-opacity="0.49803922" fill-rule="evenodd" stroke="none"/>
  </g>
</svg>
