<?xml version="1.0" encoding="UTF-8" standalone="no"?>
<svg xmlns:ffdec="https://www.free-decompiler.com/flash" xmlns:xlink="http://www.w3.org/1999/xlink" ffdec:objectType="shape" height="163.35px" width="168.6px" xmlns="http://www.w3.org/2000/svg">
  <g transform="matrix(1.0, 0.0, 0.0, 1.0, 81.05, 64.5)">
    <path d="M-12.75 -16.25 L-15.25 -20.25 -15.25 -25.0 -10.25 -27.0 -1.5 -26.75 -0.25 -26.25 0.0 -26.5 0.75 -26.75 6.75 -27.5 Q13.75 -26.5 14.25 -25.0 L14.25 -20.5 12.0 -16.75 Q9.5 -12.0 -0.25 -15.5 L-7.25 -13.75 Q-13.0 -14.5 -12.75 -16.25 M17.5 6.5 L22.0 16.75 23.75 23.5 29.75 34.75 32.25 38.25 Q39.5 43.5 39.5 45.25 L14.5 61.0 10.5 66.5 18.0 68.5 22.25 68.5 20.75 82.75 19.75 83.25 Q4.5 91.75 -21.75 81.75 -19.0 62.25 -35.25 53.25 L-23.5 47.25 Q-21.75 47.25 -19.25 42.25 L-22.5 39.0 -29.5 36.5 -26.0 29.75 -22.25 17.5 -17.75 8.25 -17.5 8.25 Q-8.25 24.0 1.0 20.25 L2.5 20.25 3.25 20.0 Q14.0 18.25 17.5 6.5 M-3.5 -19.0 L-4.75 -19.75 -6.75 -20.5 -8.0 -20.0 -9.0 -18.75 -9.5 -17.5 -7.75 -15.75 -4.5 -15.75 -3.5 -17.25 -3.5 -19.0 M5.75 -20.5 L5.25 -20.25 4.5 -20.0 4.0 -19.75 3.75 -19.5 Q1.75 -19.25 3.75 -15.75 L7.0 -15.75 Q8.75 -17.5 8.25 -19.5 L7.0 -20.0 6.75 -20.0 5.75 -20.5" fill="#ffffff" fill-rule="evenodd" stroke="none"/>
    <path d="M5.75 -20.5 L6.75 -20.0 7.0 -20.0 8.25 -19.5 Q8.75 -17.5 7.0 -15.75 L3.75 -15.75 Q1.75 -19.25 3.75 -19.5 L4.0 -19.75 4.5 -20.0 5.25 -20.25 5.75 -20.5 M-3.5 -19.0 L-3.5 -17.25 -4.5 -15.75 -7.75 -15.75 -9.5 -17.5 -9.0 -18.75 -8.0 -20.0 -6.75 -20.5 -4.75 -19.75 -3.5 -19.0" fill="#000000" fill-rule="evenodd" stroke="none"/>
    <path d="M12.0 -16.75 Q14.0 -16.05 15.5 -14.5 L18.5 -10.25 19.25 -2.5 17.5 6.5 Q14.0 18.25 3.25 20.0 L2.5 20.25 1.0 20.25 Q-8.25 24.0 -17.5 8.25 L-17.75 8.25 Q-24.75 -12.0 -12.75 -16.25 -13.0 -14.5 -7.25 -13.75 L-0.25 -15.5 Q9.5 -12.0 12.0 -16.75 M22.25 68.5 L33.5 68.75 55.25 67.25 63.75 65.0 53.0 78.0 40.0 91.5 Q34.4 95.15 28.75 98.75 L26.75 98.75 21.0 92.0 19.75 88.0 19.75 83.25 20.75 82.75 22.25 68.5 M-21.75 81.75 L-21.75 84.75 -25.25 93.25 -31.0 98.25 -44.5 89.0 -50.25 82.25 -51.0 81.5 -51.0 81.25 -52.5 79.75 -53.25 78.75 -59.75 71.5 -67.75 60.75 -67.0 60.75 -51.25 58.75 -35.25 53.25 Q-19.0 62.25 -21.75 81.75" fill="#e58508" fill-rule="evenodd" stroke="none"/>
    <path d="M-80.75 45.1 Q-82.75 41.1 -70.25 17.1 L-61.0 -0.75 -54.5 -10.75 -52.65 -14.25 -48.9 -18.25 -47.4 -20.5 Q-17.25 -63.9 -1.25 -64.4 5.5 -65.5 19.6 -53.25 L28.25 -44.5 35.1 -36.15 46.1 -21.4 51.85 -15.5 61.35 -3.25 72.5 13.5 85.1 34.5 Q88.0 39.75 87.25 42.25 L87.1 42.85 86.75 43.35 Q89.35 50.0 83.5 56.6 L72.85 62.35 64.1 64.5 54.25 67.1 53.75 67.1 53.0 67.25 52.35 67.25 50.5 67.5 49.5 67.5 48.1 67.75 22.35 68.35 21.5 72.85 21.35 77.6 Q-1.15 85.25 -22.15 77.25 -21.75 65.5 -29.0 58.6 -26.9 61.35 -28.25 63.85 L-29.75 62.0 -33.15 59.0 -39.0 54.75 -23.5 47.6 -22.4 46.75 -19.9 43.5 -20.4 43.5 -25.25 47.5 -45.0 56.35 -52.75 58.75 -52.9 58.75 -54.9 59.0 -55.15 59.1 -56.25 59.1 -57.0 59.25 -57.4 59.25 -58.25 59.35 -58.65 59.5 -59.4 59.5 -60.0 59.6 -60.5 59.6 -61.15 59.75 -61.5 59.75 -62.15 59.85 -62.65 59.85 -63.15 60.0 -64.5 60.0 -64.9 60.1 -65.0 60.1 -66.0 60.25 -68.75 59.6 -73.25 58.5 -75.25 57.1 -77.9 50.85 -78.15 48.6 -78.25 48.5 -78.25 47.35 -76.65 45.25 -80.75 45.1 M36.5 -6.75 L35.85 -1.65 38.1 3.5 Q40.5 5.6 41.85 9.0 L52.25 21.6 56.6 27.6 60.75 32.35 60.0 34.0 61.6 33.35 62.25 33.25 64.6 33.25 67.25 34.6 45.75 6.85 36.5 -6.75 M-33.75 -2.65 L-33.0 -4.25 Q-34.65 -8.0 -34.15 -8.5 L-34.5 -8.65 -40.4 3.0 -40.75 3.1 -50.4 19.0 -51.65 21.6 -56.4 28.85 -52.4 29.75 -37.5 6.1 -34.0 -0.75 -33.75 -2.65 M-19.9 -2.15 L-19.9 -6.15 -20.75 -6.25 -19.9 10.5 -19.25 12.85 -19.5 14.0 -19.0 22.1 -18.65 22.35 -12.0 41.1 -11.5 41.25 -7.15 46.25 0.1 47.75 7.25 46.25 12.0 41.1 19.0 22.25 19.85 9.6 18.85 -0.65 18.5 3.0 17.6 6.25 Q15.5 16.35 3.25 20.0 L0.85 20.25 Q-8.15 23.0 -16.4 10.5 L-17.4 8.75 -17.9 7.1 -18.0 6.85 -19.25 2.6 -19.9 -2.15 M13.75 62.5 L13.75 62.1 13.35 62.5 13.75 62.5 M16.75 68.35 L17.75 68.35 12.1 66.75 16.75 68.35 M-22.9 39.0 L-20.5 41.6 -20.15 41.6 -21.9 39.25 -22.9 39.0" fill="#cecece" fill-opacity="0.0" fill-rule="evenodd" stroke="none"/>
    <path d="M64.1 64.5 L57.0 73.1 40.1 91.0 34.1 95.5 28.6 98.6 27.35 98.85 26.75 98.35 23.1 94.6 21.1 91.85 19.85 87.85 19.75 83.1 17.5 84.1 -0.15 87.25 -17.75 84.1 -20.9 82.6 -21.0 88.6 -21.9 90.5 -22.0 91.0 -22.15 91.35 -22.25 91.5 -22.75 92.85 -24.65 95.0 -25.0 95.5 -28.4 98.85 -29.9 98.35 -35.25 95.25 -41.4 90.75 -57.9 73.25 -68.75 59.6 -66.0 60.25 -65.0 60.1 -64.9 60.1 -64.5 60.0 -63.15 60.0 -62.65 59.85 -62.15 59.85 -61.5 59.75 -61.15 59.75 -60.5 59.6 -60.0 59.6 -59.4 59.5 -58.65 59.5 -58.25 59.35 -57.4 59.25 -57.0 59.25 -56.25 59.1 -55.15 59.1 -54.9 59.0 -52.9 58.75 -52.75 58.75 -45.0 56.35 -25.25 47.5 -20.4 43.5 -19.9 43.5 -22.4 46.75 -23.5 47.6 -39.0 54.75 -33.15 59.0 -29.75 62.0 -28.25 63.85 Q-26.9 61.35 -29.0 58.6 -21.75 65.5 -22.15 77.25 -1.15 85.25 21.35 77.6 L21.5 72.85 22.35 68.35 48.1 67.75 49.5 67.5 50.5 67.5 52.35 67.25 53.0 67.25 53.75 67.1 54.25 67.1 64.1 64.5 M-78.25 48.5 L-80.25 47.1 -80.75 45.1 -76.65 45.25 -78.25 47.35 -78.25 48.5 M-19.9 -2.15 L-19.25 2.6 -18.0 6.85 -17.9 7.1 -17.4 8.75 -16.4 10.5 Q-8.15 23.0 0.85 20.25 L3.25 20.0 Q15.5 16.35 17.6 6.25 L18.5 3.0 18.85 -0.65 19.85 9.6 19.0 22.25 12.0 41.1 7.25 46.25 0.1 47.75 -7.15 46.25 -11.5 41.25 -12.0 41.1 -18.65 22.35 -19.0 22.1 -19.5 14.0 -19.25 12.85 -19.9 10.5 -20.75 -6.25 -19.9 -6.15 -19.9 -2.15 M-33.75 -2.65 L-34.0 -0.75 -37.5 6.1 -52.4 29.75 -56.4 28.85 -51.65 21.6 -50.4 19.0 -40.75 3.1 -40.4 3.0 -34.5 -8.65 -34.15 -8.5 Q-34.65 -8.0 -33.0 -4.25 L-33.75 -2.65 M36.5 -6.75 L45.75 6.85 67.25 34.6 64.6 33.25 62.25 33.25 61.6 33.35 60.0 34.0 60.75 32.35 56.6 27.6 52.25 21.6 41.85 9.0 Q40.5 5.6 38.1 3.5 L35.85 -1.65 36.5 -6.75 M16.75 68.35 L12.1 66.75 17.75 68.35 16.75 68.35 M13.75 62.5 L13.35 62.5 13.75 62.1 13.75 62.5 M-22.9 39.0 L-21.9 39.25 -20.15 41.6 -20.5 41.6 -22.9 39.0" fill="#000000" fill-opacity="0.49803922" fill-rule="evenodd" stroke="none"/>
  </g>
</svg>
