<?xml version="1.0" encoding="UTF-8" standalone="no"?>
<svg xmlns:ffdec="https://www.free-decompiler.com/flash" xmlns:xlink="http://www.w3.org/1999/xlink" ffdec:objectType="shape" height="382.05px" width="484.9px" xmlns="http://www.w3.org/2000/svg">
  <g transform="matrix(1.0, 0.0, 0.0, 1.0, 186.6, 218.75)">
    <path d="M297.85 -215.1 Q299.65 -207.15 293.9 -200.35 L233.35 -128.5 Q213.8 -105.35 187.25 -95.75 141.6 -55.7 79.25 -40.0 86.5 -30.9 93.2 -21.1 109.7 3.2 114.55 31.7 122.5 78.45 91.05 108.05 82.95 115.65 72.25 122.1 L69.75 123.75 Q63.15 131.85 55.25 138.6 35.35 155.75 9.8 160.85 L6.85 161.4 -6.6 163.05 Q-53.9 166.1 -88.25 129.75 -93.85 126.75 -98.9 123.45 -147.85 91.05 -145.0 25.75 L-146.0 26.0 -159.5 39.5 Q-165.8 72.2 -177.65 103.25 -181.2 112.45 -182.75 105.45 -189.7 74.2 -184.15 42.4 -173.65 -17.55 -126.5 -59.0 -110.6 -115.05 -62.5 -145.5 -6.05 -132.05 34.25 -87.25 L66.0 -103.5 112.0 -119.5 148.25 -130.25 Q208.25 -192.5 293.0 -218.75 297.05 -218.5 297.85 -215.1" fill="#2e47aa" fill-rule="evenodd" stroke="none"/>
  </g>
</svg>
