<?xml version="1.0" encoding="UTF-8" standalone="no"?>
<svg xmlns:ffdec="https://www.free-decompiler.com/flash" xmlns:xlink="http://www.w3.org/1999/xlink" ffdec:objectType="shape" height="163.35px" width="170.7px" xmlns="http://www.w3.org/2000/svg">
  <g transform="matrix(1.0, 0.0, 0.0, 1.0, 81.05, 64.5)">
    <path d="M-12.75 -16.25 L-15.25 -20.25 -15.25 -25.0 -10.25 -27.0 -1.5 -26.75 -0.25 -26.25 0.0 -26.5 0.75 -26.75 6.75 -27.5 Q13.75 -26.5 14.25 -25.0 L14.25 -20.5 12.0 -16.75 Q9.5 -12.0 -0.25 -15.5 L-7.25 -13.75 Q-13.0 -14.5 -12.75 -16.25 M17.5 6.5 L22.0 16.75 23.75 23.5 29.75 34.75 Q32.75 39.5 38.75 43.75 L41.25 48.25 37.5 51.25 36.75 51.75 36.25 52.25 35.75 52.5 35.5 52.75 30.25 56.25 27.0 59.5 26.25 60.0 22.25 66.25 22.75 66.5 21.5 72.5 20.75 82.75 19.75 83.25 Q4.5 91.75 -21.75 81.75 L-22.25 70.0 -25.5 61.75 -30.5 56.75 -38.0 51.5 -34.75 46.0 -20.0 36.5 -16.5 32.0 -16.5 31.0 -19.75 28.5 -20.75 28.5 -25.5 27.75 -22.25 17.5 -17.75 8.25 -17.5 8.25 Q-8.25 24.0 1.0 20.25 L2.5 20.25 3.25 20.0 Q14.0 18.25 17.5 6.5 M-3.5 -19.0 L-4.75 -19.75 -6.75 -20.5 -8.0 -20.0 -9.0 -18.75 -9.5 -17.5 -7.75 -15.75 -4.5 -15.75 -3.5 -17.25 -3.5 -19.0 M5.75 -20.5 L5.25 -20.25 4.5 -20.0 4.0 -19.75 3.75 -19.5 Q1.75 -19.25 3.75 -15.75 L7.0 -15.75 Q8.75 -17.5 8.25 -19.5 L7.0 -20.0 6.75 -20.0 5.75 -20.5" fill="#ffffff" fill-rule="evenodd" stroke="none"/>
    <path d="M5.75 -20.5 L6.75 -20.0 7.0 -20.0 8.25 -19.5 Q8.75 -17.5 7.0 -15.75 L3.75 -15.75 Q1.75 -19.25 3.75 -19.5 L4.0 -19.75 4.5 -20.0 5.25 -20.25 5.75 -20.5 M-3.5 -19.0 L-3.5 -17.25 -4.5 -15.75 -7.75 -15.75 -9.5 -17.5 -9.0 -18.75 -8.0 -20.0 -6.75 -20.5 -4.75 -19.75 -3.5 -19.0" fill="#000000" fill-rule="evenodd" stroke="none"/>
    <path d="M12.0 -16.75 Q14.0 -16.05 15.5 -14.5 L18.5 -10.25 19.25 -2.5 17.5 6.5 Q14.0 18.25 3.25 20.0 L2.5 20.25 1.0 20.25 Q-8.25 24.0 -17.5 8.25 L-17.75 8.25 Q-24.75 -12.0 -12.75 -16.25 -13.0 -14.5 -7.25 -13.75 L-0.25 -15.5 Q9.5 -12.0 12.0 -16.75 M35.5 52.75 L27.0 59.5 30.25 56.25 35.5 52.75 M22.75 66.5 L29.5 68.25 43.25 67.75 64.25 64.5 53.0 78.0 40.0 91.5 Q34.4 95.15 28.75 98.75 L26.75 98.75 21.0 92.0 19.75 88.0 19.75 83.25 20.75 82.75 21.5 72.5 22.75 66.5 M-21.75 81.75 L-21.75 84.75 -25.25 93.25 -31.0 98.25 -44.5 89.0 -50.25 82.25 -51.0 81.5 -51.0 81.25 -52.5 79.75 -53.25 78.75 -59.75 71.5 -69.5 58.5 -68.75 58.75 -61.5 58.0 -56.25 56.25 -55.75 56.0 -53.5 55.25 -53.25 55.25 -48.0 53.75 -41.0 49.75 -38.0 51.5 -30.5 56.75 -25.5 61.75 -22.25 70.0 -21.75 81.75" fill="#e58508" fill-rule="evenodd" stroke="none"/>
    <path d="M-80.75 45.1 Q-82.75 41.1 -70.25 17.1 L-61.0 -0.75 -54.5 -10.75 -52.65 -14.25 -48.9 -18.25 -47.4 -20.5 Q-17.25 -63.9 -1.25 -64.4 5.5 -65.5 19.6 -53.25 L28.25 -44.5 35.1 -36.15 46.35 -21.0 50.75 -16.9 60.85 -4.65 73.5 12.75 86.1 31.75 Q89.25 36.0 88.75 39.6 91.1 44.25 87.35 52.25 L85.6 53.85 77.85 59.35 64.5 64.0 60.75 65.25 53.6 66.5 52.85 66.5 51.0 66.75 32.75 67.85 32.25 68.0 29.25 68.1 22.75 66.5 22.25 67.35 Q22.85 68.0 21.5 73.0 L21.35 77.6 Q-1.15 85.25 -22.15 77.25 -21.75 65.5 -29.0 58.6 -26.9 61.35 -28.25 63.85 L-29.75 62.0 -37.25 55.85 -43.9 51.6 -34.4 46.25 -19.9 36.5 -16.5 31.25 -22.0 36.75 -42.25 49.6 Q-46.45 51.7 -50.65 53.75 L-64.4 58.0 -69.9 58.0 Q-75.4 58.75 -77.9 48.75 L-78.0 48.6 -78.0 47.0 -76.4 45.25 -80.75 45.1 M-19.9 -2.15 L-19.9 -6.15 -20.75 -6.25 -19.9 10.5 -19.25 12.85 -19.5 14.0 -19.0 22.1 -18.65 22.35 -12.0 41.1 -11.5 41.25 -7.15 46.25 0.1 47.75 7.25 46.25 12.0 41.1 19.0 22.25 19.85 9.6 18.85 -0.65 18.5 3.0 17.6 6.25 Q15.5 16.35 3.25 20.0 L0.85 20.25 Q-8.15 23.0 -16.4 10.5 L-17.4 8.75 -17.9 7.1 -18.0 6.85 -19.25 2.6 -19.9 -2.15 M-33.0 -4.25 Q-34.65 -8.0 -34.15 -8.5 L-34.5 -8.65 -40.4 3.0 -40.75 3.1 -54.65 26.25 -50.0 26.1 -37.5 6.1 -34.0 -0.9 -33.75 -2.65 -33.0 -4.25 M64.85 31.6 L65.75 31.25 67.75 31.25 71.35 32.6 51.0 8.1 50.25 7.6 49.0 5.5 41.1 -4.75 39.35 -6.65 38.1 -8.75 37.5 -3.0 39.85 2.5 49.5 14.5 62.0 28.6 61.75 30.6 59.1 35.6 62.85 33.1 62.85 33.0 64.85 31.75 64.85 31.6 M36.75 52.5 L36.5 52.6 36.6 52.6 36.75 52.5 M27.75 58.75 L26.6 59.75 26.35 60.25 25.0 61.5 23.6 64.25 Q24.35 64.25 26.0 60.75 L26.75 60.25 27.0 59.85 27.35 59.6 27.6 59.25 27.75 58.75" fill="#cecece" fill-opacity="0.0" fill-rule="evenodd" stroke="none"/>
    <path d="M64.5 64.0 L57.0 73.1 40.1 91.0 34.1 95.5 28.6 98.6 27.35 98.85 26.75 98.35 23.1 94.6 21.1 91.85 19.85 87.85 19.75 83.1 17.5 84.1 -0.15 87.25 -17.75 84.1 -20.9 82.6 -21.0 88.6 -21.9 90.5 -22.0 91.0 -22.15 91.35 -22.25 91.5 -22.75 92.85 -24.65 95.0 -25.0 95.5 -28.4 98.85 -29.9 98.35 -35.25 95.25 -41.4 90.75 -57.9 73.25 -67.25 61.85 -69.9 58.0 -64.4 58.0 -50.65 53.75 Q-46.45 51.7 -42.25 49.6 L-22.0 36.75 -16.5 31.25 -19.9 36.5 -34.4 46.25 -43.9 51.6 -37.25 55.85 -29.75 62.0 -28.25 63.85 Q-26.9 61.35 -29.0 58.6 -21.75 65.5 -22.15 77.25 -1.15 85.25 21.35 77.6 L21.5 73.0 Q22.85 68.0 22.25 67.35 L22.75 66.5 29.25 68.1 32.25 68.0 32.75 67.85 51.0 66.75 52.85 66.5 53.6 66.5 60.75 65.25 64.5 64.0 M-78.0 48.6 L-80.25 47.1 -80.75 45.1 -76.4 45.25 -78.0 47.0 -78.0 48.6 M-19.9 -2.15 L-19.25 2.6 -18.0 6.85 -17.9 7.1 -17.4 8.75 -16.4 10.5 Q-8.15 23.0 0.85 20.25 L3.25 20.0 Q15.5 16.35 17.6 6.25 L18.5 3.0 18.85 -0.65 19.85 9.6 19.0 22.25 12.0 41.1 7.25 46.25 0.1 47.75 -7.15 46.25 -11.5 41.25 -12.0 41.1 -18.65 22.35 -19.0 22.1 -19.5 14.0 -19.25 12.85 -19.9 10.5 -20.75 -6.25 -19.9 -6.15 -19.9 -2.15 M-33.0 -4.25 L-33.75 -2.65 -34.0 -0.9 -37.5 6.1 -50.0 26.1 -54.65 26.25 -40.75 3.1 -40.4 3.0 -34.5 -8.65 -34.15 -8.5 Q-34.65 -8.0 -33.0 -4.25 M62.85 33.0 L62.85 33.1 59.1 35.6 61.75 30.6 62.0 28.6 49.5 14.5 39.85 2.5 37.5 -3.0 38.1 -8.75 39.35 -6.65 41.1 -4.75 49.0 5.5 50.25 7.6 51.0 8.1 71.35 32.6 67.75 31.25 65.75 31.25 64.85 31.6 63.25 30.0 62.85 33.0 M36.75 52.5 L36.6 52.6 36.5 52.6 36.75 52.5 M27.75 58.75 L27.6 59.25 27.35 59.6 27.0 59.85 26.75 60.25 26.0 60.75 Q24.35 64.25 23.6 64.25 L25.0 61.5 26.35 60.25 26.6 59.75 27.75 58.75" fill="#000000" fill-opacity="0.49803922" fill-rule="evenodd" stroke="none"/>
  </g>
</svg>
