<?xml version="1.0" encoding="UTF-8" standalone="no"?>
<svg xmlns:ffdec="https://www.free-decompiler.com/flash" xmlns:xlink="http://www.w3.org/1999/xlink" ffdec:objectType="shape" height="163.5px" width="171.2px" xmlns="http://www.w3.org/2000/svg">
  <g transform="matrix(1.0, 0.0, 0.0, 1.0, 80.95, 64.5)">
    <path d="M-12.75 -16.25 L-15.25 -20.25 -15.25 -25.0 -10.25 -27.0 -1.5 -26.75 -0.25 -26.25 0.0 -26.5 0.75 -26.75 6.75 -27.5 Q13.75 -26.5 14.25 -25.0 L14.25 -20.5 12.0 -16.75 Q9.5 -12.0 -0.25 -15.5 L-7.25 -13.75 Q-13.0 -14.5 -12.75 -16.25 M17.5 6.5 L22.0 16.75 23.75 23.5 29.75 34.75 Q32.75 39.5 38.75 43.75 L41.5 48.75 33.25 53.75 28.5 57.75 24.5 62.5 22.25 68.0 Q21.75 82.0 19.75 83.25 4.5 91.75 -21.75 81.75 L-22.25 70.0 -25.5 61.75 -30.5 56.75 -38.0 51.5 -34.75 46.25 -19.75 36.5 -16.0 31.25 Q-20.0 27.75 -20.75 28.5 L-25.5 28.0 -22.25 17.5 -17.75 8.25 -17.5 8.25 Q-8.25 24.0 1.0 20.25 L2.5 20.25 3.25 20.0 Q14.0 18.25 17.5 6.5 M-3.5 -19.0 L-4.75 -19.75 -6.75 -20.5 -8.0 -20.0 -9.0 -18.75 -9.5 -17.5 -7.75 -15.75 -4.5 -15.75 -3.5 -17.25 -3.5 -19.0 M5.75 -20.5 L5.25 -20.25 4.5 -20.0 4.0 -19.75 3.75 -19.5 Q1.75 -19.25 3.75 -15.75 L7.0 -15.75 Q8.75 -17.5 8.25 -19.5 L7.0 -20.0 6.75 -20.0 5.75 -20.5" fill="#ffffff" fill-rule="evenodd" stroke="none"/>
    <path d="M5.75 -20.5 L6.75 -20.0 7.0 -20.0 8.25 -19.5 Q8.75 -17.5 7.0 -15.75 L3.75 -15.75 Q1.75 -19.25 3.75 -19.5 L4.0 -19.75 4.5 -20.0 5.25 -20.25 5.75 -20.5 M-3.5 -19.0 L-3.5 -17.25 -4.5 -15.75 -7.75 -15.75 -9.5 -17.5 -9.0 -18.75 -8.0 -20.0 -6.75 -20.5 -4.75 -19.75 -3.5 -19.0" fill="#000000" fill-rule="evenodd" stroke="none"/>
    <path d="M12.0 -16.75 Q14.0 -16.05 15.5 -14.5 L18.5 -10.25 19.25 -2.5 17.5 6.5 Q14.0 18.25 3.25 20.0 L2.5 20.25 1.0 20.25 Q-8.25 24.0 -17.5 8.25 L-17.75 8.25 Q-24.75 -12.0 -12.75 -16.25 -13.0 -14.5 -7.25 -13.75 L-0.25 -15.5 Q9.5 -12.0 12.0 -16.75 M41.5 48.75 L50.75 44.0 37.75 58.0 37.0 59.0 35.5 63.5 42.0 65.0 54.5 64.0 66.25 61.75 61.25 68.5 47.0 84.5 38.25 92.75 30.75 97.75 27.0 99.0 22.5 94.25 20.0 89.25 19.75 83.25 Q21.75 82.0 22.25 68.0 L24.5 62.5 28.5 57.75 33.25 53.75 41.5 48.75 M-21.75 81.75 L-21.75 84.75 -25.25 93.25 -31.0 98.25 -44.5 89.0 -50.25 82.25 -51.0 81.5 -51.0 81.25 -52.5 79.75 -53.25 78.75 -59.75 71.5 -69.5 58.5 -68.75 58.75 -62.0 58.25 -55.25 56.0 -54.75 55.75 -54.5 55.75 -47.75 53.75 -40.75 49.75 -38.0 51.5 -30.5 56.75 -25.5 61.75 -22.25 70.0 -21.75 81.75" fill="#e58508" fill-rule="evenodd" stroke="none"/>
    <path d="M-80.65 45.1 Q-81.5 42.5 -79.9 38.75 L-70.65 18.1 -60.9 -0.9 -55.0 -10.4 -54.4 -10.9 -52.75 -14.0 -49.4 -17.65 -47.4 -20.5 Q-17.25 -63.9 -1.25 -64.4 5.5 -65.5 19.6 -53.25 L28.25 -44.5 35.1 -36.15 46.35 -21.0 49.25 -18.65 60.5 -6.0 72.6 9.35 85.6 27.6 Q88.5 31.35 88.75 34.35 L88.85 34.75 Q89.85 36.5 90.25 40.0 L89.0 47.85 81.6 55.1 69.75 60.6 66.35 61.6 60.5 63.0 43.75 64.75 42.6 65.0 41.75 65.0 36.75 63.75 35.6 63.35 36.25 61.75 37.0 61.0 38.35 57.6 41.0 55.35 43.1 52.75 47.0 49.1 56.75 38.6 53.75 41.25 53.5 41.6 45.1 50.35 45.0 50.5 36.0 56.0 28.75 62.0 27.1 63.85 26.6 61.5 27.75 58.75 26.6 59.75 Q20.5 66.25 21.35 77.6 -1.15 85.25 -22.15 77.25 -21.75 65.5 -29.0 58.6 -26.9 61.35 -28.25 63.85 L-29.75 62.0 -37.25 55.85 -43.75 51.75 -40.5 50.1 -21.0 37.35 Q-19.75 37.35 -16.5 31.5 L-22.9 37.35 -42.25 49.75 -50.4 53.75 -64.15 58.0 -69.9 58.1 -72.4 58.1 -73.9 57.0 -76.25 53.6 Q-78.15 50.35 -77.65 48.85 L-77.9 48.75 -77.9 47.0 -76.75 46.25 -76.25 45.35 -80.65 45.1 M67.1 29.25 L68.6 28.1 Q71.5 27.6 74.35 29.5 L54.85 7.35 53.75 6.5 53.0 5.1 42.6 -6.75 39.75 -10.65 Q36.75 0.25 51.25 12.85 L51.6 13.35 62.75 25.0 61.75 30.6 58.6 36.6 59.85 35.75 62.85 33.0 67.1 29.35 67.1 29.25 M-19.9 -2.15 L-19.9 -6.15 -20.75 -6.25 -19.9 10.5 -19.25 12.85 -19.5 14.0 -19.0 22.1 -18.65 22.35 -12.0 41.1 -11.5 41.25 -7.15 46.25 0.1 47.75 7.25 46.25 12.0 41.1 19.0 22.25 19.85 9.6 18.85 -0.65 18.5 3.0 17.6 6.25 Q15.5 16.35 3.25 20.0 L0.85 20.25 Q-8.15 23.0 -16.4 10.5 L-17.4 8.75 -17.9 7.1 -18.0 6.85 -19.25 2.6 -19.9 -2.15 M-34.0 -0.75 L-33.0 -4.4 -34.4 -8.65 -40.25 2.85 -40.65 3.0 -54.5 26.25 -50.0 26.25 -37.5 6.1 -34.0 -0.75" fill="#cecece" fill-opacity="0.0" fill-rule="evenodd" stroke="none"/>
    <path d="M66.35 61.6 L66.25 61.85 57.0 73.1 42.25 89.0 38.25 92.5 30.25 97.75 28.6 98.6 27.35 98.85 26.75 98.35 23.1 94.6 21.1 91.85 19.85 87.85 19.75 83.1 17.5 84.1 -0.15 87.25 -17.75 84.1 -20.9 82.6 -21.0 88.6 -21.9 90.5 -22.0 91.0 -22.15 91.35 -22.25 91.5 -22.75 92.85 -24.65 95.0 -25.0 95.5 -28.4 98.85 -29.9 98.35 -35.25 95.25 -41.4 90.75 -57.9 73.25 -69.9 58.1 -64.15 58.0 -50.4 53.75 -42.25 49.75 -22.9 37.35 -16.5 31.5 Q-19.75 37.35 -21.0 37.35 L-40.5 50.1 -43.75 51.75 -37.25 55.85 -29.75 62.0 -28.25 63.85 Q-26.9 61.35 -29.0 58.6 -21.75 65.5 -22.15 77.25 -1.15 85.25 21.35 77.6 20.5 66.25 26.6 59.75 L27.75 58.75 26.6 61.5 27.1 63.85 28.75 62.0 36.0 56.0 45.0 50.5 45.1 50.35 53.5 41.6 53.75 41.25 56.75 38.6 47.0 49.1 43.1 52.75 41.0 55.35 38.35 57.6 37.0 61.0 36.25 61.75 35.6 63.35 36.75 63.75 41.75 65.0 42.6 65.0 43.75 64.75 60.5 63.0 66.35 61.6 M-77.9 48.75 L-80.15 47.1 -80.65 45.1 -76.25 45.35 -76.75 46.25 -77.9 47.0 -77.9 48.75 M-34.0 -0.75 L-37.5 6.1 -50.0 26.25 -54.5 26.25 -40.65 3.0 -40.25 2.85 -34.4 -8.65 -33.0 -4.4 -34.0 -0.75 M-19.9 -2.15 L-19.25 2.6 -18.0 6.85 -17.9 7.1 -17.4 8.75 -16.4 10.5 Q-8.15 23.0 0.85 20.25 L3.25 20.0 Q15.5 16.35 17.6 6.25 L18.5 3.0 18.85 -0.65 19.85 9.6 19.0 22.25 12.0 41.1 7.25 46.25 0.1 47.75 -7.15 46.25 -11.5 41.25 -12.0 41.1 -18.65 22.35 -19.0 22.1 -19.5 14.0 -19.25 12.85 -19.9 10.5 -20.75 -6.25 -19.9 -6.15 -19.9 -2.15 M62.85 33.0 L59.85 35.75 58.6 36.6 61.75 30.6 62.75 25.0 51.6 13.35 51.25 12.85 Q36.75 0.25 39.75 -10.65 L42.6 -6.75 53.0 5.1 53.75 6.5 54.85 7.35 74.35 29.5 Q71.5 27.6 68.6 28.1 L67.1 29.25 63.5 25.75 63.35 25.75 63.5 28.25 62.85 33.0" fill="#000000" fill-opacity="0.49803922" fill-rule="evenodd" stroke="none"/>
  </g>
</svg>
