<?xml version="1.0" encoding="UTF-8" standalone="no"?>
<svg xmlns:ffdec="https://www.free-decompiler.com/flash" xmlns:xlink="http://www.w3.org/1999/xlink" ffdec:objectType="shape" height="163.5px" width="168.4px" xmlns="http://www.w3.org/2000/svg">
  <g transform="matrix(1.0, 0.0, 0.0, 1.0, 78.3, 64.5)">
    <path d="M-12.75 -16.25 L-15.25 -20.25 -15.25 -25.0 -10.25 -27.0 -1.5 -26.75 -0.25 -26.25 0.0 -26.5 0.75 -26.75 6.75 -27.5 Q13.75 -26.5 14.25 -25.0 L14.25 -20.5 12.0 -16.75 Q9.5 -12.0 -0.25 -15.5 L-7.25 -13.75 Q-13.0 -14.5 -12.75 -16.25 M17.5 6.5 L22.0 16.75 23.75 23.5 29.75 34.75 Q32.75 39.5 38.75 43.75 L41.5 48.75 33.25 53.75 28.5 57.75 24.5 62.5 22.25 68.0 Q21.75 82.0 19.75 83.25 4.5 91.75 -21.75 81.75 L-22.25 70.0 -25.5 61.75 -30.5 56.75 -38.0 51.5 -37.75 51.0 -29.0 46.0 -17.0 37.5 Q-12.75 33.0 -13.5 31.75 L-17.75 29.25 -25.5 28.5 -22.25 17.5 -17.75 8.25 -17.5 8.25 Q-8.25 24.0 1.0 20.25 L2.5 20.25 3.25 20.0 Q14.0 18.25 17.5 6.5 M-3.5 -19.0 L-4.75 -19.75 -6.75 -20.5 -8.0 -20.0 -9.0 -18.75 -9.5 -17.5 -7.75 -15.75 -4.5 -15.75 -3.5 -17.25 -3.5 -19.0 M5.75 -20.5 L5.25 -20.25 4.5 -20.0 4.0 -19.75 3.75 -19.5 Q1.75 -19.25 3.75 -15.75 L7.0 -15.75 Q8.75 -17.5 8.25 -19.5 L7.0 -20.0 6.75 -20.0 5.75 -20.5" fill="#ffffff" fill-rule="evenodd" stroke="none"/>
    <path d="M5.75 -20.5 L6.75 -20.0 7.0 -20.0 8.25 -19.5 Q8.75 -17.5 7.0 -15.75 L3.75 -15.75 Q1.75 -19.25 3.75 -19.5 L4.0 -19.75 4.5 -20.0 5.25 -20.25 5.75 -20.5 M-3.5 -19.0 L-3.5 -17.25 -4.5 -15.75 -7.75 -15.75 -9.5 -17.5 -9.0 -18.75 -8.0 -20.0 -6.75 -20.5 -4.75 -19.75 -3.5 -19.0" fill="#000000" fill-rule="evenodd" stroke="none"/>
    <path d="M12.0 -16.75 Q14.0 -16.05 15.5 -14.5 L18.5 -10.25 19.25 -2.5 17.5 6.5 Q14.0 18.25 3.25 20.0 L2.5 20.25 1.0 20.25 Q-8.25 24.0 -17.5 8.25 L-17.75 8.25 Q-24.75 -12.0 -12.75 -16.25 -13.0 -14.5 -7.25 -13.75 L-0.25 -15.5 Q9.5 -12.0 12.0 -16.75 M41.5 48.75 L51.5 43.75 38.75 57.75 37.5 63.0 43.25 64.5 53.5 63.75 66.75 61.25 58.5 71.75 47.0 84.5 38.25 92.75 30.75 97.75 27.0 99.0 22.5 94.25 20.0 89.25 19.75 83.25 Q21.75 82.0 22.25 68.0 L24.5 62.5 28.5 57.75 33.25 53.75 41.5 48.75 M-21.75 81.75 L-21.75 84.75 -25.25 93.25 -31.0 98.25 -44.5 89.0 -50.25 82.25 -51.0 81.5 -51.0 81.25 -52.5 79.75 -53.25 78.75 -59.75 71.5 -68.5 59.75 -67.75 59.75 -62.25 60.25 -53.25 57.75 -52.75 57.5 -50.5 56.75 -50.0 56.5 -48.5 56.0 -48.25 56.0 -44.75 55.0 -38.0 51.5 -30.5 56.75 -25.5 61.75 -22.25 70.0 -21.75 81.75" fill="#e58508" fill-rule="evenodd" stroke="none"/>
    <path d="M-77.9 46.85 Q-78.9 44.1 -77.4 40.35 L-69.25 20.0 -62.75 5.75 -61.9 4.5 -60.5 0.85 -54.4 -10.15 -54.0 -10.25 -53.25 -12.15 -47.15 -21.15 -39.0 -32.0 -29.25 -44.0 -20.75 -53.15 -12.75 -59.4 Q-4.75 -64.4 -1.25 -64.4 5.5 -65.5 19.6 -53.25 L28.25 -44.5 35.1 -36.15 46.35 -21.0 49.1 -18.75 57.1 -9.9 71.75 8.1 84.85 26.25 Q89.35 32.75 88.75 34.1 L88.85 34.35 Q89.75 35.35 90.1 39.1 L89.0 47.35 81.6 54.75 69.35 60.5 66.75 61.1 62.6 62.1 46.75 63.85 46.35 64.0 45.6 64.0 45.1 64.1 44.5 64.1 43.85 64.25 43.35 64.25 37.25 62.75 37.75 61.25 38.85 59.75 39.85 57.0 48.25 48.5 48.25 48.1 58.6 36.6 46.25 49.75 36.0 56.0 28.75 62.0 27.1 63.85 26.6 61.5 27.75 58.75 26.6 59.75 Q20.5 66.25 21.35 77.6 -1.15 85.25 -22.15 77.25 -21.75 65.5 -29.0 58.6 -26.9 61.35 -28.25 63.85 L-29.75 62.0 -33.65 58.6 -41.25 53.25 -29.0 45.85 -17.25 37.75 -15.9 36.25 -14.65 34.0 -12.0 41.1 -11.5 41.25 -7.15 46.25 -0.25 47.75 7.25 46.25 12.0 41.1 19.0 22.25 19.85 9.6 18.85 -0.65 18.5 3.0 17.6 6.25 Q15.5 16.35 3.25 20.0 L0.85 20.25 Q-8.15 23.0 -16.4 10.5 L-17.4 8.75 -17.9 7.1 -18.0 6.85 -19.25 2.6 -19.9 -2.15 -19.9 -6.15 -20.75 -6.25 -19.9 10.5 -19.25 12.85 -19.5 14.0 -18.9 21.85 -16.0 30.0 -17.5 29.35 -13.4 32.0 -13.65 32.35 -18.75 37.6 -38.75 50.75 -47.15 55.0 -60.75 59.35 -61.4 59.5 -68.9 59.5 Q-74.75 55.25 -74.75 50.35 L-74.9 50.35 -75.0 48.75 -73.4 46.85 -77.9 46.85 M-32.5 -4.15 L-34.0 -8.15 -39.4 3.25 -52.65 27.35 -48.4 27.35 -36.4 6.25 -33.5 0.0 -32.5 -4.15 M67.25 29.0 L67.5 28.85 68.75 27.75 Q71.6 27.1 74.5 28.85 L68.1 21.85 67.25 20.35 54.0 6.1 53.6 5.25 40.0 -10.75 39.35 -5.0 41.1 0.35 42.75 2.25 44.85 5.75 62.75 24.5 62.85 24.75 61.75 30.6 58.6 36.6 59.0 36.5 63.1 32.75 67.25 29.0" fill="#cecece" fill-opacity="0.0" fill-rule="evenodd" stroke="none"/>
    <path d="M66.75 61.1 L66.25 61.85 57.0 73.1 42.25 89.0 38.25 92.5 30.25 97.75 28.6 98.6 27.35 98.85 26.75 98.35 23.1 94.6 21.1 91.85 19.85 87.85 19.75 83.1 17.5 84.1 -0.15 87.25 -17.75 84.1 -20.9 82.6 -21.0 88.6 -21.9 90.5 -22.0 91.0 -22.15 91.35 -22.25 91.5 -22.75 92.85 -24.65 95.0 -25.0 95.5 -28.4 98.85 -29.9 98.35 -35.25 95.25 -41.4 90.75 -57.9 73.25 -68.9 59.5 -61.4 59.5 -60.75 59.35 -47.15 55.0 -38.75 50.75 -18.75 37.6 -13.65 32.35 -13.4 32.0 -17.5 29.35 -16.0 30.0 -18.9 21.85 -19.5 14.0 -19.25 12.85 -19.9 10.5 -20.75 -6.25 -19.9 -6.15 -19.9 -2.15 -19.25 2.6 -18.0 6.85 -17.9 7.1 -17.4 8.75 -16.4 10.5 Q-8.15 23.0 0.85 20.25 L3.25 20.0 Q15.5 16.35 17.6 6.25 L18.5 3.0 18.85 -0.65 19.85 9.6 19.0 22.25 12.0 41.1 7.25 46.25 -0.25 47.75 -7.15 46.25 -11.5 41.25 -12.0 41.1 -14.65 34.0 -15.9 36.25 -17.25 37.75 -29.0 45.85 -41.25 53.25 -33.65 58.6 -29.75 62.0 -28.25 63.85 Q-26.9 61.35 -29.0 58.6 -21.75 65.5 -22.15 77.25 -1.15 85.25 21.35 77.6 20.5 66.25 26.6 59.75 L27.75 58.75 26.6 61.5 27.1 63.85 28.75 62.0 36.0 56.0 46.25 49.75 58.6 36.6 48.25 48.1 48.25 48.5 39.85 57.0 38.85 59.75 37.75 61.25 37.25 62.75 43.35 64.25 43.85 64.25 44.5 64.1 45.1 64.1 45.6 64.0 46.35 64.0 46.75 63.85 62.6 62.1 66.75 61.1 M-74.9 50.35 L-77.15 49.0 -77.65 48.5 -77.9 46.85 -73.4 46.85 -75.0 48.75 -74.9 50.35 M-32.5 -4.15 L-33.5 0.0 -36.4 6.25 -48.4 27.35 -52.65 27.35 -39.4 3.25 -34.0 -8.15 -32.5 -4.15 M63.1 32.75 L59.0 36.5 58.6 36.6 61.75 30.6 62.85 24.75 62.75 24.5 44.85 5.75 42.75 2.25 41.1 0.35 39.35 -5.0 40.0 -10.75 53.6 5.25 54.0 6.1 67.25 20.35 68.1 21.85 74.5 28.85 Q71.6 27.1 68.75 27.75 L67.5 28.85 67.25 29.0 63.5 25.25 63.35 25.25 63.5 28.0 62.85 32.85 63.1 32.75" fill="#000000" fill-opacity="0.49803922" fill-rule="evenodd" stroke="none"/>
  </g>
</svg>
