<?xml version="1.0" encoding="UTF-8" standalone="no"?>
<svg xmlns:ffdec="https://www.free-decompiler.com/flash" xmlns:xlink="http://www.w3.org/1999/xlink" ffdec:objectType="shape" height="163.65px" width="166.75px" xmlns="http://www.w3.org/2000/svg">
  <g transform="matrix(1.0, 0.0, 0.0, 1.0, 76.65, 64.65)">
    <path d="M-12.75 -16.25 L-15.25 -20.25 -15.25 -25.0 -10.25 -27.0 -1.5 -26.75 -0.25 -26.25 0.0 -26.5 0.75 -26.75 6.75 -27.5 Q13.75 -26.5 14.25 -25.0 L14.25 -20.5 12.0 -16.75 Q9.5 -12.0 -0.25 -15.5 L-7.25 -13.75 Q-13.0 -14.5 -12.75 -16.25 M17.5 6.5 L22.0 16.75 23.75 23.5 29.75 34.75 Q32.75 39.5 38.75 43.75 L41.5 48.75 33.25 53.75 28.5 57.75 24.5 62.5 22.25 68.0 Q21.75 82.0 19.75 83.25 4.5 91.75 -21.75 81.75 L-22.25 70.0 -25.5 61.75 -32.75 55.0 -37.0 52.25 -33.5 50.0 -33.25 49.75 -26.75 46.25 -15.0 37.75 -11.75 32.25 -16.25 29.75 -25.75 28.75 -22.25 17.5 -17.75 8.25 -17.5 8.25 Q-8.25 24.0 1.0 20.25 L2.5 20.25 3.25 20.0 Q14.0 18.25 17.5 6.5 M-3.5 -19.0 L-4.75 -19.75 -6.75 -20.5 -8.0 -20.0 -9.0 -18.75 -9.5 -17.5 -7.75 -15.75 -4.5 -15.75 -3.5 -17.25 -3.5 -19.0 M5.75 -20.5 L5.25 -20.25 4.5 -20.0 4.0 -19.75 3.75 -19.5 Q1.75 -19.25 3.75 -15.75 L7.0 -15.75 Q8.75 -17.5 8.25 -19.5 L7.0 -20.0 6.75 -20.0 5.75 -20.5" fill="#ffffff" fill-rule="evenodd" stroke="none"/>
    <path d="M5.75 -20.5 L6.75 -20.0 7.0 -20.0 8.25 -19.5 Q8.75 -17.5 7.0 -15.75 L3.75 -15.75 Q1.75 -19.25 3.75 -19.5 L4.0 -19.75 4.5 -20.0 5.25 -20.25 5.75 -20.5 M-3.5 -19.0 L-3.5 -17.25 -4.5 -15.75 -7.75 -15.75 -9.5 -17.5 -9.0 -18.75 -8.0 -20.0 -6.75 -20.5 -4.75 -19.75 -3.5 -19.0" fill="#000000" fill-rule="evenodd" stroke="none"/>
    <path d="M12.0 -16.75 Q14.0 -16.05 15.5 -14.5 L18.5 -10.25 19.25 -2.5 17.5 6.5 Q14.0 18.25 3.25 20.0 L2.5 20.25 1.0 20.25 Q-8.25 24.0 -17.5 8.25 L-17.75 8.25 Q-24.75 -12.0 -12.75 -16.25 -13.0 -14.5 -7.25 -13.75 L-0.25 -15.5 Q9.5 -12.0 12.0 -16.75 M41.5 48.75 L51.5 43.75 39.75 57.0 Q38.0 58.0 38.0 62.75 L43.75 64.25 53.75 63.5 67.0 61.0 60.0 70.0 47.0 84.5 38.25 92.75 30.75 97.75 27.0 99.0 22.5 94.25 20.0 89.25 19.75 83.25 Q21.75 82.0 22.25 68.0 L24.5 62.5 28.5 57.75 33.25 53.75 41.5 48.75 M-21.75 81.75 L-21.75 84.75 -25.25 93.25 -31.0 98.25 -44.5 89.0 -50.25 82.25 -51.0 81.5 -51.0 81.25 -52.5 79.75 -53.25 78.75 -61.0 70.0 -68.25 60.25 -67.75 60.25 -67.25 60.5 -58.75 60.75 -48.75 57.5 -48.25 57.25 -46.75 56.75 -46.5 56.75 -42.5 55.5 -37.0 52.25 -32.75 55.0 -25.5 61.75 -22.25 70.0 -21.75 81.75 M-72.75 53.75 L-72.5 53.75 -72.5 54.0 -72.75 53.75" fill="#e58508" fill-rule="evenodd" stroke="none"/>
    <path d="M-76.25 47.75 Q-78.5 44.0 -67.75 19.25 L-61.15 4.6 -60.0 1.35 -53.4 -11.4 -47.15 -21.15 -29.9 -43.25 -20.75 -53.15 -12.75 -59.4 -7.25 -62.5 -2.65 -64.25 Q3.35 -66.75 18.85 -53.9 L28.35 -44.4 34.0 -37.5 46.35 -21.0 49.1 -18.75 60.0 -6.65 70.5 6.5 84.75 26.0 Q89.35 32.6 88.75 34.0 L88.85 34.25 88.85 34.35 Q89.75 35.1 90.1 39.1 L89.0 47.1 81.85 54.5 70.5 59.85 66.85 61.0 56.25 62.75 46.6 63.75 46.25 63.75 45.75 63.85 45.1 63.85 44.5 64.0 44.1 64.0 37.6 62.5 38.25 61.0 39.25 59.75 40.25 56.75 48.25 48.6 58.6 36.6 46.5 49.6 40.85 52.75 35.75 56.25 28.75 62.0 27.1 63.85 26.6 61.5 27.75 58.75 26.6 59.75 Q20.5 66.25 21.35 77.6 -1.15 85.25 -22.15 77.25 -21.75 65.5 -29.0 58.6 -26.9 61.35 -28.25 63.85 L-29.75 62.0 -33.75 58.5 -39.9 54.1 -27.9 46.85 -14.75 37.6 -13.9 36.1 -12.0 41.1 -11.5 41.25 -7.25 46.1 -0.25 47.75 7.25 46.25 12.0 41.1 19.0 22.25 19.85 9.6 18.85 -0.65 18.5 3.0 17.6 6.25 Q15.5 16.35 3.25 20.0 L0.85 20.25 Q-8.15 23.0 -16.4 10.5 L-17.4 8.75 -17.9 7.1 -18.0 6.85 -19.25 2.6 -19.9 -2.15 -19.9 -6.15 -20.75 -6.25 -19.9 10.5 -19.25 12.85 -19.5 14.0 -18.9 21.85 -16.0 29.75 -13.9 30.85 -13.9 31.0 -13.5 31.1 -12.75 31.75 -12.5 31.85 -12.15 32.1 -11.75 32.6 -17.0 38.1 -37.0 51.5 -45.4 55.75 -59.4 60.25 -67.4 60.25 -68.75 59.35 -69.0 59.1 -69.25 59.0 -72.4 54.1 -72.9 53.0 -72.9 52.85 -73.0 52.6 -73.0 52.35 -73.25 51.5 -73.25 51.35 -73.25 51.25 -73.4 50.0 -73.4 49.5 -71.75 47.75 -76.25 47.75 M-33.75 -8.0 L-38.0 2.0 -51.5 28.0 -47.25 27.85 -35.65 6.1 -33.25 0.35 -32.15 -3.65 -33.75 -8.0 M67.35 28.85 L67.6 28.6 68.85 27.6 Q72.0 27.0 74.6 28.75 L55.5 7.25 54.25 6.25 53.6 5.0 43.1 -6.9 40.1 -10.9 Q37.5 0.6 49.75 10.85 L49.85 11.1 62.75 24.35 62.85 24.6 61.75 30.6 58.6 36.6 59.1 36.35 61.0 34.6 61.25 34.5 63.0 32.6 64.0 32.0 64.6 31.35 65.35 30.75 67.35 28.85" fill="#cecece" fill-opacity="0.0" fill-rule="evenodd" stroke="none"/>
    <path d="M66.85 61.0 L57.0 73.1 42.25 89.0 38.25 92.5 30.25 97.75 28.6 98.6 27.35 98.85 26.75 98.35 23.1 94.6 21.1 91.85 19.85 87.85 19.75 83.1 17.5 84.1 -0.15 87.25 -17.75 84.1 -20.9 82.6 -21.0 88.6 -21.9 90.5 -22.0 91.0 -22.15 91.35 -22.25 91.5 -22.75 92.85 -24.65 95.0 -25.0 95.5 -28.4 98.85 -29.9 98.35 -35.25 95.25 -41.4 90.75 -57.9 73.25 -69.25 59.0 -69.0 59.1 -68.75 59.35 -67.4 60.25 -59.4 60.25 -45.4 55.75 -37.0 51.5 -17.0 38.1 -11.75 32.6 -12.15 32.1 -12.5 31.85 -12.75 31.75 -13.5 31.1 -13.9 31.0 -13.9 30.85 -16.0 29.75 -18.9 21.85 -19.5 14.0 -19.25 12.85 -19.9 10.5 -20.75 -6.25 -19.9 -6.15 -19.9 -2.15 -19.25 2.6 -18.0 6.85 -17.9 7.1 -17.4 8.75 -16.4 10.5 Q-8.15 23.0 0.85 20.25 L3.25 20.0 Q15.5 16.35 17.6 6.25 L18.5 3.0 18.85 -0.65 19.85 9.6 19.0 22.25 12.0 41.1 7.25 46.25 -0.25 47.75 -7.25 46.1 -11.5 41.25 -12.0 41.1 -13.9 36.1 -14.75 37.6 -27.9 46.85 -39.9 54.1 -33.75 58.5 -29.75 62.0 -28.25 63.85 Q-26.9 61.35 -29.0 58.6 -21.75 65.5 -22.15 77.25 -1.15 85.25 21.35 77.6 20.5 66.25 26.6 59.75 L27.75 58.75 26.6 61.5 27.1 63.85 28.75 62.0 35.75 56.25 40.85 52.75 46.5 49.6 58.6 36.6 48.25 48.6 40.25 56.75 39.25 59.75 38.25 61.0 37.6 62.5 44.1 64.0 44.5 64.0 45.1 63.85 45.75 63.85 46.25 63.75 46.6 63.75 56.25 62.75 66.85 61.0 M-73.25 51.35 L-75.9 49.5 -76.25 47.75 -71.75 47.75 -73.4 49.5 -73.4 50.0 -73.25 51.25 -73.25 51.35 M63.0 32.6 L61.25 34.5 61.0 34.6 59.1 36.35 58.6 36.6 61.75 30.6 62.85 24.6 62.75 24.35 49.85 11.1 49.75 10.85 Q37.5 0.6 40.1 -10.9 L43.1 -6.9 53.6 5.0 54.25 6.25 55.5 7.25 74.6 28.75 Q72.0 27.0 68.85 27.6 L67.6 28.6 67.35 28.85 63.35 25.1 63.5 28.75 63.0 32.6 M-33.75 -8.0 L-32.15 -3.65 -33.25 0.35 -35.65 6.1 -47.25 27.85 -51.5 28.0 -38.0 2.0 -33.75 -8.0" fill="#000000" fill-opacity="0.49803922" fill-rule="evenodd" stroke="none"/>
  </g>
</svg>
