<?xml version="1.0" encoding="UTF-8" standalone="no"?>
<svg xmlns:ffdec="https://www.free-decompiler.com/flash" xmlns:xlink="http://www.w3.org/1999/xlink" ffdec:objectType="shape" height="163.65px" width="165.0px" xmlns="http://www.w3.org/2000/svg">
  <g transform="matrix(1.0, 0.0, 0.0, 1.0, 74.9, 64.65)">
    <path d="M-12.75 -16.25 L-15.25 -20.25 -15.25 -25.0 -10.25 -27.0 -1.5 -26.75 -0.25 -26.25 0.0 -26.5 0.75 -26.75 6.75 -27.5 Q13.75 -26.5 14.25 -25.0 L14.25 -20.5 12.0 -16.75 Q9.5 -12.0 -0.25 -15.5 L-7.25 -13.75 Q-13.0 -14.5 -12.75 -16.25 M17.5 6.5 L22.0 16.75 23.75 23.5 29.75 34.75 Q32.75 39.5 38.75 43.75 L41.5 48.75 33.25 53.75 28.5 57.75 24.5 62.5 22.25 68.0 Q21.75 82.0 19.75 83.25 4.5 91.75 -21.75 81.75 -19.0 62.25 -35.25 53.25 L-31.0 50.5 -30.75 50.25 -24.75 47.0 -13.25 38.5 Q-10.75 36.25 -9.5 32.75 L-14.25 30.25 -26.0 29.25 -22.25 17.5 -17.75 8.25 -17.5 8.25 Q-8.25 24.0 1.0 20.25 L2.5 20.25 3.25 20.0 Q14.0 18.25 17.5 6.5 M-3.5 -19.0 L-4.75 -19.75 -6.75 -20.5 -8.0 -20.0 -9.0 -18.75 -9.5 -17.5 -7.75 -15.75 -4.5 -15.75 -3.5 -17.25 -3.5 -19.0 M5.75 -20.5 L5.25 -20.25 4.5 -20.0 4.0 -19.75 3.75 -19.5 Q1.75 -19.25 3.75 -15.75 L7.0 -15.75 Q8.75 -17.5 8.25 -19.5 L7.0 -20.0 6.75 -20.0 5.75 -20.5" fill="#ffffff" fill-rule="evenodd" stroke="none"/>
    <path d="M5.75 -20.5 L6.75 -20.0 7.0 -20.0 8.25 -19.5 Q8.75 -17.5 7.0 -15.75 L3.75 -15.75 Q1.75 -19.25 3.75 -19.5 L4.0 -19.75 4.5 -20.0 5.25 -20.25 5.75 -20.5 M-3.5 -19.0 L-3.5 -17.25 -4.5 -15.75 -7.75 -15.75 -9.5 -17.5 -9.0 -18.75 -8.0 -20.0 -6.75 -20.5 -4.75 -19.75 -3.5 -19.0" fill="#000000" fill-rule="evenodd" stroke="none"/>
    <path d="M12.0 -16.75 Q14.0 -16.05 15.5 -14.5 L18.5 -10.25 19.25 -2.5 17.5 6.5 Q14.0 18.25 3.25 20.0 L2.5 20.25 1.0 20.25 Q-8.25 24.0 -17.5 8.25 L-17.75 8.25 Q-24.75 -12.0 -12.75 -16.25 -13.0 -14.5 -7.25 -13.75 L-0.25 -15.5 Q9.5 -12.0 12.0 -16.75 M41.5 48.75 L52.25 43.25 40.25 56.75 Q38.5 57.75 38.5 62.5 L44.25 64.0 54.0 63.25 67.0 60.75 63.25 66.0 47.0 84.5 38.25 92.75 30.75 97.75 27.0 99.0 22.5 94.25 20.0 89.25 19.75 83.25 Q21.75 82.0 22.25 68.0 L24.5 62.5 28.5 57.75 33.25 53.75 41.5 48.75 M-21.75 81.75 L-21.75 84.75 -25.25 93.25 -31.0 98.25 -44.5 89.0 -50.25 82.25 -51.0 81.5 -51.0 81.25 -52.5 79.75 -53.25 78.75 -58.5 73.0 -71.0 56.25 -71.0 56.0 -71.75 55.25 -73.25 53.25 -73.25 51.25 -71.25 52.25 -71.0 52.5 -71.0 54.0 -70.0 55.75 -69.75 56.5 -66.5 60.5 -65.75 61.25 -65.25 61.5 -57.25 61.75 -45.75 58.0 -45.25 57.75 -43.25 57.0 -35.25 53.25 Q-19.0 62.25 -21.75 81.75" fill="#e58508" fill-rule="evenodd" stroke="none"/>
    <path d="M-74.25 48.85 L-74.9 47.5 -74.15 42.0 -66.75 20.35 -57.4 -2.4 -57.4 -2.5 -53.9 -10.5 -47.9 -20.0 -41.4 -28.9 -28.15 -45.4 Q-16.15 -59.5 -2.65 -64.25 3.35 -66.75 18.85 -53.9 L28.35 -44.4 34.0 -37.5 46.35 -21.0 49.35 -18.5 58.1 -8.75 71.1 7.25 86.25 28.1 Q89.25 32.85 88.75 33.85 89.75 35.6 90.1 39.25 L89.0 47.0 81.85 54.35 70.5 59.75 67.0 60.75 61.75 62.0 46.35 63.6 45.85 63.6 45.1 63.75 44.75 63.75 38.25 62.25 38.6 61.1 39.6 59.6 40.75 56.5 48.5 48.5 58.6 36.6 59.25 36.25 59.75 35.85 61.1 34.5 61.75 34.0 63.85 32.0 67.35 28.75 Q68.85 26.1 74.75 28.6 L68.5 21.85 67.5 20.25 54.1 5.85 53.75 5.0 40.1 -10.9 Q37.5 0.35 49.75 10.85 L50.85 12.0 51.25 12.35 62.85 24.5 61.75 30.6 58.6 36.6 52.85 42.6 52.6 43.0 46.85 49.35 40.35 53.1 35.25 56.6 28.75 62.0 27.1 63.85 26.6 61.5 27.75 58.75 26.6 59.75 Q20.5 66.25 21.35 77.6 -1.15 85.25 -22.15 77.25 -21.75 65.5 -29.0 58.6 -26.9 61.35 -28.25 63.85 L-32.15 59.85 -38.4 55.1 -35.25 53.5 -24.65 46.75 -13.0 38.25 -12.0 41.1 -11.5 41.25 -7.0 46.35 0.25 47.75 7.35 46.1 12.1 40.85 18.75 22.85 19.85 9.6 18.85 -0.65 18.5 3.0 17.6 6.25 Q15.5 16.35 3.25 20.0 L0.85 20.25 Q-8.15 23.0 -16.4 10.5 L-17.4 8.75 -17.9 7.1 -18.0 6.85 -19.25 2.6 -19.9 -2.15 -19.9 -6.15 -20.75 -6.25 -19.9 10.5 -19.25 12.85 -19.5 14.0 -18.9 21.85 -16.0 30.0 -13.75 30.35 -11.5 31.6 -10.75 32.25 -10.4 32.5 -10.15 32.6 -9.9 32.75 -9.65 33.0 -9.9 33.25 -9.9 33.35 -14.75 38.6 -34.9 52.25 -42.4 56.25 -56.65 61.0 -57.4 61.1 -64.9 61.1 -66.4 60.35 -68.0 58.6 -69.5 56.5 -69.75 56.25 -70.75 54.35 -70.75 54.25 -71.0 52.75 -71.15 52.5 -71.15 52.25 -71.25 52.25 -71.4 51.1 -71.4 50.5 -69.9 48.75 -74.25 48.85 M-33.4 -7.75 L-37.75 3.25 -50.25 28.75 -46.15 28.6 -34.9 6.25 -32.75 0.5 -31.75 -3.5 -33.4 -7.75" fill="#cecece" fill-opacity="0.0" fill-rule="evenodd" stroke="none"/>
    <path d="M67.0 60.75 L66.25 61.85 47.6 83.35 40.1 91.0 34.1 95.5 28.6 98.6 27.35 98.85 26.75 98.35 23.1 94.6 21.1 91.85 19.85 87.85 19.75 83.1 17.5 84.1 -0.15 87.25 -17.75 84.1 -20.9 82.6 -21.0 88.6 -21.9 90.5 -22.0 91.0 -22.15 91.35 -22.25 91.5 -22.75 92.85 -24.65 95.0 -25.0 95.5 -28.4 98.85 -29.9 98.35 -35.25 95.25 -41.4 90.75 -53.0 78.6 -62.75 67.5 -70.75 56.85 -73.15 52.5 -73.4 51.1 -74.0 50.5 -74.25 48.85 -69.9 48.75 -71.4 50.5 -71.4 51.1 -71.25 52.25 -71.15 52.25 -71.15 52.5 -71.0 52.75 -70.75 54.25 -70.75 54.35 -69.75 56.25 -69.5 56.5 -68.0 58.6 -66.4 60.35 -64.9 61.1 -57.4 61.1 -56.65 61.0 -42.4 56.25 -34.9 52.25 -14.75 38.6 -9.9 33.35 -9.9 33.25 -9.65 33.0 -9.9 32.75 -10.15 32.6 -10.4 32.5 -10.75 32.25 -11.5 31.6 -13.75 30.35 -16.0 30.0 -18.9 21.85 -19.5 14.0 -19.25 12.85 -19.9 10.5 -20.75 -6.25 -19.9 -6.15 -19.9 -2.15 -19.25 2.6 -18.0 6.85 -17.9 7.1 -17.4 8.75 -16.4 10.5 Q-8.15 23.0 0.85 20.25 L3.25 20.0 Q15.5 16.35 17.6 6.25 L18.5 3.0 18.85 -0.65 19.85 9.6 18.75 22.85 12.1 40.85 7.35 46.1 0.25 47.75 -7.0 46.35 -11.5 41.25 -12.0 41.1 -13.0 38.25 -24.65 46.75 -35.25 53.5 -38.4 55.1 -32.15 59.85 -28.25 63.85 Q-26.9 61.35 -29.0 58.6 -21.75 65.5 -22.15 77.25 -1.15 85.25 21.35 77.6 20.5 66.25 26.6 59.75 L27.75 58.75 26.6 61.5 27.1 63.85 28.75 62.0 35.25 56.6 40.35 53.1 46.85 49.35 52.6 43.0 52.85 42.6 58.6 36.6 61.75 30.6 62.85 24.5 51.25 12.35 50.85 12.0 49.75 10.85 Q37.5 0.35 40.1 -10.9 L53.75 5.0 54.1 5.85 67.5 20.25 68.5 21.85 74.75 28.6 Q68.85 26.1 67.35 28.75 L63.35 25.0 63.5 28.75 63.0 32.6 63.85 32.0 61.75 34.0 61.1 34.5 59.75 35.85 59.25 36.25 58.6 36.6 48.5 48.5 40.75 56.5 39.6 59.6 38.6 61.1 38.25 62.25 44.75 63.75 45.1 63.75 45.85 63.6 46.35 63.6 61.75 62.0 67.0 60.75 M-33.4 -7.75 L-31.75 -3.5 -32.75 0.5 -34.9 6.25 -46.15 28.6 -50.25 28.75 -37.75 3.25 -33.4 -7.75" fill="#000000" fill-opacity="0.49803922" fill-rule="evenodd" stroke="none"/>
  </g>
</svg>
