<?xml version="1.0" encoding="UTF-8" standalone="no"?>
<svg xmlns:ffdec="https://www.free-decompiler.com/flash" xmlns:xlink="http://www.w3.org/1999/xlink" ffdec:objectType="shape" height="163.4px" width="163.55px" xmlns="http://www.w3.org/2000/svg">
  <g transform="matrix(1.0, 0.0, 0.0, 1.0, 73.55, 64.4)">
    <path d="M-12.75 -16.25 L-15.25 -20.25 -15.25 -25.0 -10.25 -27.0 -1.5 -26.75 -0.25 -26.25 0.0 -26.5 0.75 -26.75 6.75 -27.5 Q13.75 -26.5 14.25 -25.0 L14.25 -20.5 12.0 -16.75 Q9.5 -12.0 -0.25 -15.5 L-7.25 -13.75 Q-13.0 -14.5 -12.75 -16.25 M17.5 6.5 L22.0 16.75 23.75 23.5 29.75 34.75 Q32.75 39.5 38.75 43.75 L41.5 48.75 33.25 53.75 28.5 57.75 24.5 62.5 22.25 68.0 Q21.75 82.0 19.75 83.25 4.5 91.75 -21.75 81.75 -19.75 61.75 -33.75 54.5 L-30.75 52.5 -30.5 52.25 -29.5 51.75 -28.75 51.25 -22.5 47.75 -10.75 39.0 Q-7.0 34.75 -7.25 33.25 L-12.0 30.75 -26.0 29.75 -22.25 17.5 -17.75 8.25 -17.5 8.25 Q-8.25 24.0 1.0 20.25 L2.5 20.25 3.25 20.0 Q14.0 18.25 17.5 6.5 M-3.5 -19.0 L-4.75 -19.75 -6.75 -20.5 -8.0 -20.0 -9.0 -18.75 -9.5 -17.5 -7.75 -15.75 -4.5 -15.75 -3.5 -17.25 -3.5 -19.0 M5.75 -20.5 L5.25 -20.25 4.5 -20.0 4.0 -19.75 3.75 -19.5 Q1.75 -19.25 3.75 -15.75 L7.0 -15.75 Q8.75 -17.5 8.25 -19.5 L7.0 -20.0 6.75 -20.0 5.75 -20.5" fill="#ffffff" fill-rule="evenodd" stroke="none"/>
    <path d="M5.75 -20.5 L6.75 -20.0 7.0 -20.0 8.25 -19.5 Q8.75 -17.5 7.0 -15.75 L3.75 -15.75 Q1.75 -19.25 3.75 -19.5 L4.0 -19.75 4.5 -20.0 5.25 -20.25 5.75 -20.5 M-3.5 -19.0 L-3.5 -17.25 -4.5 -15.75 -7.75 -15.75 -9.5 -17.5 -9.0 -18.75 -8.0 -20.0 -6.75 -20.5 -4.75 -19.75 -3.5 -19.0" fill="#000000" fill-rule="evenodd" stroke="none"/>
    <path d="M12.0 -16.75 Q14.0 -16.05 15.5 -14.5 L18.5 -10.25 19.25 -2.5 17.5 6.5 Q14.0 18.25 3.25 20.0 L2.5 20.25 1.0 20.25 Q-8.25 24.0 -17.5 8.25 L-17.75 8.25 Q-24.75 -12.0 -12.75 -16.25 -13.0 -14.5 -7.25 -13.75 L-0.25 -15.5 Q9.5 -12.0 12.0 -16.75 M41.5 48.75 L52.25 43.25 40.5 56.5 Q38.75 58.0 38.75 62.25 L44.75 63.75 55.25 63.0 67.0 60.75 63.25 66.0 47.0 84.5 38.25 92.75 30.75 97.75 27.0 99.0 22.5 94.25 20.0 89.25 19.75 83.25 Q21.75 82.0 22.25 68.0 L24.5 62.5 28.5 57.75 33.25 53.75 41.5 48.75 M-21.75 81.75 L-21.75 84.75 -25.25 93.25 -31.0 98.25 -44.5 89.0 -50.25 82.25 -51.0 81.5 -51.0 81.25 -52.5 79.75 -53.25 78.75 -58.5 73.0 -71.0 56.25 -71.0 56.0 -71.75 55.25 -73.5 52.75 Q-73.75 50.25 -72.0 48.75 L-71.75 48.75 -71.75 49.75 -71.5 52.0 -69.25 53.25 -69.0 53.5 -68.75 54.0 -69.0 54.25 -68.25 55.75 -64.25 61.5 -63.25 62.0 -54.25 62.5 -40.5 57.75 -33.75 54.5 Q-19.75 61.75 -21.75 81.75" fill="#e58508" fill-rule="evenodd" stroke="none"/>
    <path d="M-72.5 49.25 L-72.75 47.1 -72.25 43.35 -65.65 21.6 -60.75 8.0 Q-57.5 -9.5 -39.75 -31.0 -19.9 -58.75 -3.65 -64.0 L-1.25 -64.4 3.25 -64.0 10.0 -60.65 12.75 -58.9 18.85 -53.9 28.35 -44.4 34.0 -37.5 46.35 -21.0 50.1 -17.75 60.25 -6.4 73.1 9.75 85.75 27.35 Q89.35 32.75 88.75 33.85 89.85 35.5 90.0 38.35 L89.0 46.85 82.0 54.1 71.1 59.35 67.1 60.6 59.85 62.0 48.75 63.1 48.35 63.25 47.6 63.25 46.5 63.5 44.1 63.5 38.6 62.0 39.1 60.6 40.1 59.25 41.1 56.35 48.75 48.35 58.6 36.6 60.0 35.6 63.0 32.6 63.5 32.35 64.5 31.35 65.0 31.0 67.35 28.75 67.35 28.6 67.6 28.5 Q68.75 26.0 74.75 28.5 L68.1 21.25 67.6 20.25 54.25 5.85 53.85 5.0 43.25 -7.0 40.25 -11.0 Q37.75 0.5 49.75 10.75 L50.85 11.85 51.25 12.35 62.85 24.5 61.75 30.6 58.6 36.6 53.5 42.0 53.25 42.35 47.1 49.25 46.0 49.6 36.0 56.0 28.75 62.0 27.1 63.85 26.6 61.5 27.75 58.75 26.6 59.75 Q20.5 66.25 21.35 77.6 -1.15 85.25 -22.15 77.25 -21.75 65.5 -29.0 58.6 -26.9 61.35 -28.25 63.85 L-32.4 59.6 -36.75 56.35 -29.4 52.25 -12.25 40.25 -12.0 41.1 -11.5 41.25 -7.0 46.35 0.25 47.75 7.25 46.25 11.6 41.6 12.35 40.35 18.85 22.6 19.85 9.6 18.85 -0.65 18.5 3.0 17.6 6.25 Q15.5 16.35 3.25 20.0 L0.85 20.25 Q-8.15 23.0 -16.4 10.5 L-17.4 8.75 -17.9 7.1 -18.0 6.85 -19.25 2.6 -19.9 -2.15 -19.9 -6.15 -20.75 -6.25 -19.9 10.5 -19.25 12.85 -19.5 14.0 -18.9 21.75 -15.75 30.5 -11.65 30.85 -8.9 32.35 -8.5 32.75 -8.15 33.0 -7.9 33.1 -7.65 33.25 -7.4 33.5 -7.5 33.75 -7.5 33.85 -12.9 39.6 -32.5 53.1 -39.75 57.0 -54.0 61.85 -55.25 62.0 -61.9 62.0 -62.5 62.1 -62.65 62.1 -62.9 61.85 -64.25 61.1 -67.5 57.0 -68.5 55.0 -68.65 54.85 -68.9 53.25 -69.0 53.25 -69.25 51.5 -67.65 49.75 -72.15 50.0 -72.5 49.25 M-31.4 -3.4 L-33.0 -7.4 -37.15 3.6 -48.75 29.5 -44.75 29.35 -34.0 6.1 -31.75 -0.75 -31.4 -3.4" fill="#cecece" fill-opacity="0.0" fill-rule="evenodd" stroke="none"/>
    <path d="M67.1 60.6 L66.25 61.85 47.6 83.35 40.1 91.0 34.1 95.5 28.6 98.6 27.35 98.85 26.75 98.35 23.1 94.6 21.1 91.85 19.85 87.85 19.75 83.1 17.5 84.1 -0.15 87.25 -17.75 84.1 -20.9 82.6 -21.0 88.6 -21.9 90.5 -22.0 91.0 -22.15 91.35 -22.25 91.5 -22.75 92.85 -24.65 95.0 -25.0 95.5 -28.4 98.85 -29.9 98.35 -35.25 95.25 -41.4 90.75 -53.0 78.6 -62.75 67.5 -70.75 56.85 -73.15 52.5 -73.4 50.85 -72.75 49.75 -72.65 49.5 -72.5 49.25 -72.15 50.0 -67.65 49.75 -69.25 51.5 -69.0 53.25 -68.9 53.25 -68.65 54.85 -68.5 55.0 -67.5 57.0 -64.25 61.1 -62.9 61.85 -62.65 62.1 -62.5 62.1 -61.9 62.0 -55.25 62.0 -54.0 61.85 -39.75 57.0 -32.5 53.1 -12.9 39.6 -7.5 33.85 -7.5 33.75 -7.4 33.5 -7.65 33.25 -7.9 33.1 -8.15 33.0 -8.5 32.75 -8.9 32.35 -11.65 30.85 -15.75 30.5 -18.9 21.75 -19.5 14.0 -19.25 12.85 -19.9 10.5 -20.75 -6.25 -19.9 -6.15 -19.9 -2.15 -19.25 2.6 -18.0 6.85 -17.9 7.1 -17.4 8.75 -16.4 10.5 Q-8.15 23.0 0.85 20.25 L3.25 20.0 Q15.5 16.35 17.6 6.25 L18.5 3.0 18.85 -0.65 19.85 9.6 18.85 22.6 12.35 40.35 11.6 41.6 7.25 46.25 0.25 47.75 -7.0 46.35 -11.5 41.25 -12.0 41.1 -12.25 40.25 -29.4 52.25 -36.75 56.35 -32.4 59.6 -28.25 63.85 Q-26.9 61.35 -29.0 58.6 -21.75 65.5 -22.15 77.25 -1.15 85.25 21.35 77.6 20.5 66.25 26.6 59.75 L27.75 58.75 26.6 61.5 27.1 63.85 28.75 62.0 36.0 56.0 46.0 49.6 47.1 49.25 53.25 42.35 53.5 42.0 58.6 36.6 61.75 30.6 62.85 24.5 51.25 12.35 50.85 11.85 49.75 10.75 Q37.75 0.5 40.25 -11.0 L43.25 -7.0 53.85 5.0 54.25 5.85 67.6 20.25 68.1 21.25 74.75 28.5 Q68.75 26.0 67.6 28.5 L67.35 28.6 63.35 25.0 63.5 28.75 63.0 32.6 60.0 35.6 58.6 36.6 48.75 48.35 41.1 56.35 40.1 59.25 39.1 60.6 38.6 62.0 44.1 63.5 46.5 63.5 47.6 63.25 48.35 63.25 48.75 63.1 59.85 62.0 67.1 60.6 M-31.4 -3.4 L-31.75 -0.75 -34.0 6.1 -44.75 29.35 -48.75 29.5 -37.15 3.6 -33.0 -7.4 -31.4 -3.4" fill="#000000" fill-opacity="0.49803922" fill-rule="evenodd" stroke="none"/>
  </g>
</svg>
