<?xml version="1.0" encoding="UTF-8" standalone="no"?>
<svg xmlns:ffdec="https://www.free-decompiler.com/flash" xmlns:xlink="http://www.w3.org/1999/xlink" ffdec:objectType="shape" height="163.45px" width="163.55px" xmlns="http://www.w3.org/2000/svg">
  <g transform="matrix(1.0, 0.0, 0.0, 1.0, 73.55, 64.45)">
    <path d="M-12.75 -16.25 L-15.25 -20.25 -15.25 -25.0 -10.25 -27.0 -1.5 -26.75 -0.25 -26.25 0.0 -26.5 0.75 -26.75 6.75 -27.5 Q13.75 -26.5 14.25 -25.0 L14.25 -20.5 12.0 -16.75 Q9.5 -12.0 -0.25 -15.5 L-7.25 -13.75 Q-13.0 -14.5 -12.75 -16.25 M17.5 6.5 L22.0 16.75 23.75 23.5 29.75 34.75 Q32.75 39.5 38.75 43.75 L41.5 48.75 33.25 53.75 28.5 57.75 24.5 62.5 22.25 68.0 Q21.75 82.0 19.75 83.25 4.5 91.75 -21.75 81.75 -19.25 65.0 -32.0 55.75 L-28.0 53.25 -27.75 53.0 -26.75 52.5 -18.5 47.5 -8.5 39.75 Q-5.0 36.25 -4.75 33.75 L-9.25 31.25 -26.5 30.25 -24.0 24.5 -22.25 17.5 -17.75 8.25 -17.5 8.25 Q-8.25 24.0 1.0 20.25 L2.5 20.25 3.25 20.0 Q14.0 18.25 17.5 6.5 M-3.5 -19.0 L-4.75 -19.75 -6.75 -20.5 -8.0 -20.0 -9.0 -18.75 -9.5 -17.5 -7.75 -15.75 -4.5 -15.75 -3.5 -17.25 -3.5 -19.0 M5.75 -20.5 L5.25 -20.25 4.5 -20.0 4.0 -19.75 3.75 -19.5 Q1.75 -19.25 3.75 -15.75 L7.0 -15.75 Q8.75 -17.5 8.25 -19.5 L7.0 -20.0 6.75 -20.0 5.75 -20.5" fill="#ffffff" fill-rule="evenodd" stroke="none"/>
    <path d="M5.75 -20.5 L6.75 -20.0 7.0 -20.0 8.25 -19.5 Q8.75 -17.5 7.0 -15.75 L3.75 -15.75 Q1.75 -19.25 3.75 -19.5 L4.0 -19.75 4.5 -20.0 5.25 -20.25 5.75 -20.5 M-3.5 -19.0 L-3.5 -17.25 -4.5 -15.75 -7.75 -15.75 -9.5 -17.5 -9.0 -18.75 -8.0 -20.0 -6.75 -20.5 -4.75 -19.75 -3.5 -19.0" fill="#000000" fill-rule="evenodd" stroke="none"/>
    <path d="M12.0 -16.75 Q14.0 -16.05 15.5 -14.5 L18.5 -10.25 19.25 -2.5 17.5 6.5 Q14.0 18.25 3.25 20.0 L2.5 20.25 1.0 20.25 Q-8.25 24.0 -17.5 8.25 L-17.75 8.25 Q-24.75 -12.0 -12.75 -16.25 -13.0 -14.5 -7.25 -13.75 L-0.25 -15.5 Q9.5 -12.0 12.0 -16.75 M41.5 48.75 L52.25 43.25 41.0 56.25 Q39.5 57.25 39.0 62.0 L45.0 63.5 55.5 62.75 67.25 60.5 62.25 67.25 47.0 84.5 38.25 92.75 30.75 97.75 27.0 99.0 22.5 94.25 20.0 89.25 19.75 83.25 Q21.75 82.0 22.25 68.0 L24.5 62.5 28.5 57.75 33.25 53.75 41.5 48.75 M-21.75 81.75 L-21.75 84.75 -25.25 93.25 -31.0 98.25 -44.5 89.0 -50.25 82.25 -51.0 81.5 -51.0 81.25 -52.5 79.75 -53.25 78.75 -58.5 73.0 -71.0 56.25 -71.0 56.0 -71.75 55.25 -73.5 52.0 Q-74.0 50.25 -69.75 45.25 L-69.0 53.0 -66.5 54.5 -66.25 54.75 Q-65.25 58.5 -62.25 61.75 L-59.5 63.25 -49.75 63.0 -36.25 58.0 -32.0 55.75 Q-19.25 65.0 -21.75 81.75" fill="#e58508" fill-rule="evenodd" stroke="none"/>
    <path d="M-70.4 46.0 L-63.75 20.6 Q-60.4 -3.4 -47.0 -21.4 -20.0 -58.65 -6.5 -62.9 3.1 -67.4 13.1 -58.65 L19.6 -53.25 28.35 -44.4 34.0 -37.5 46.35 -21.0 50.1 -17.75 60.25 -6.4 72.85 9.35 86.0 27.6 Q89.1 32.1 88.75 33.85 89.6 34.75 90.0 38.5 L89.0 46.75 82.1 53.85 70.85 59.35 67.25 60.35 60.0 61.85 59.1 61.85 50.0 62.85 49.35 62.85 49.0 63.0 48.25 63.0 47.75 63.1 47.1 63.1 46.35 63.25 46.0 63.25 45.1 63.35 44.85 63.35 39.1 61.85 39.5 60.5 40.25 59.5 41.5 56.1 48.6 48.6 58.6 36.6 62.0 33.75 63.6 32.1 64.0 31.85 65.25 30.6 65.75 30.25 67.35 28.6 67.6 28.5 67.85 28.25 Q68.85 25.85 74.75 28.35 L68.5 21.5 67.5 19.85 54.75 6.25 40.25 -11.0 Q37.75 0.6 49.75 10.6 L49.85 10.85 62.85 24.35 61.75 30.6 58.6 36.6 52.85 42.75 52.85 42.85 52.6 43.1 47.5 49.0 47.35 49.1 40.85 52.75 36.0 56.0 28.75 62.0 27.1 63.85 26.6 61.5 27.75 58.75 26.6 59.75 Q20.5 66.25 21.35 77.6 -1.15 85.25 -22.15 77.25 -21.75 65.5 -29.0 58.6 -26.9 61.35 -28.25 63.85 L-29.75 62.0 -35.15 57.5 -26.9 53.1 -11.15 42.0 -7.0 46.35 Q0.25 49.1 7.25 46.25 L11.6 41.6 12.35 40.35 18.85 22.6 19.85 9.6 18.85 -0.65 18.5 3.0 17.6 6.25 Q15.5 16.35 3.25 20.0 L0.85 20.25 Q-8.15 23.0 -16.4 10.5 L-17.4 8.75 -17.9 7.1 -18.0 6.85 -19.25 2.6 -19.9 -2.15 -19.9 -6.15 -20.75 -6.25 -19.9 10.5 -19.25 12.85 -19.5 14.0 -18.9 21.75 -15.65 31.0 -9.4 31.35 -6.25 33.0 -5.9 33.35 -5.25 33.75 -5.0 33.85 -4.75 34.1 -4.9 34.35 -10.5 40.5 -29.65 53.75 -37.4 58.0 -51.15 62.75 -56.0 62.85 -57.0 63.0 -59.75 63.0 -61.5 62.1 -64.65 58.5 -66.0 56.1 -66.15 56.0 -66.4 54.35 -66.5 54.25 -66.75 52.75 -65.15 50.75 -68.0 51.1 -69.9 50.85 -70.25 50.1 -70.75 49.6 -70.65 49.5 -70.65 49.35 -70.4 46.0 M-32.65 -7.15 L-36.15 3.75 -47.0 30.25 -43.15 30.1 -33.75 8.0 -30.75 -2.65 -32.65 -7.15" fill="#cecece" fill-opacity="0.0" fill-rule="evenodd" stroke="none"/>
    <path d="M-70.4 46.0 L-70.65 49.35 -70.65 49.5 -70.75 49.6 -70.25 50.1 -69.9 50.85 -68.0 51.1 -65.15 50.75 -66.75 52.75 -66.5 54.25 -66.4 54.35 -66.15 56.0 -66.0 56.1 -64.65 58.5 -61.5 62.1 -59.75 63.0 -57.0 63.0 -56.0 62.85 -51.15 62.75 -37.4 58.0 -29.65 53.75 -10.5 40.5 -4.9 34.35 -4.75 34.1 -5.0 33.85 -5.25 33.75 -5.9 33.35 -6.25 33.0 -9.4 31.35 -15.65 31.0 -18.9 21.75 -19.5 14.0 -19.25 12.85 -19.9 10.5 -20.75 -6.25 -19.9 -6.15 -19.9 -2.15 -19.25 2.6 -18.0 6.85 -17.9 7.1 -17.4 8.75 -16.4 10.5 Q-8.15 23.0 0.85 20.25 L3.25 20.0 Q15.5 16.35 17.6 6.25 L18.5 3.0 18.85 -0.65 19.85 9.6 18.85 22.6 12.35 40.35 11.6 41.6 7.25 46.25 Q0.25 49.1 -7.0 46.35 L-11.15 42.0 -26.9 53.1 -35.15 57.5 -29.75 62.0 -28.25 63.85 Q-26.9 61.35 -29.0 58.6 -21.75 65.5 -22.15 77.25 -1.15 85.25 21.35 77.6 20.5 66.25 26.6 59.75 L27.75 58.75 26.6 61.5 27.1 63.85 28.75 62.0 36.0 56.0 40.85 52.75 47.35 49.1 47.5 49.0 52.6 43.1 52.85 42.85 52.85 42.75 58.6 36.6 61.75 30.6 62.85 24.35 49.85 10.85 49.75 10.6 Q37.75 0.6 40.25 -11.0 L54.75 6.25 67.5 19.85 68.5 21.5 74.75 28.35 Q68.85 25.85 67.85 28.25 L67.6 28.5 67.35 28.6 63.35 24.75 63.1 24.6 63.5 28.75 63.0 32.5 63.6 32.1 62.0 33.75 58.6 36.6 48.6 48.6 41.5 56.1 40.25 59.5 39.5 60.5 39.1 61.85 44.85 63.35 45.1 63.35 46.0 63.25 46.35 63.25 47.1 63.1 47.75 63.1 48.25 63.0 49.0 63.0 49.35 62.85 50.0 62.85 59.1 61.85 60.0 61.85 67.25 60.35 66.25 61.85 47.6 83.35 40.1 91.0 34.1 95.5 28.6 98.6 27.35 98.85 26.75 98.35 23.1 94.6 21.1 91.85 19.85 87.85 19.75 83.1 17.5 84.1 -0.15 87.25 -17.75 84.1 -20.9 82.6 -21.0 88.6 -21.9 90.5 -22.0 91.0 -22.15 91.35 -22.25 91.5 -22.75 92.85 -24.65 95.0 -25.0 95.5 -28.4 98.85 -29.9 98.35 -35.25 95.25 -41.4 90.75 -53.0 78.6 -62.75 67.5 -70.75 56.85 -73.15 52.5 -73.4 50.85 -70.4 46.0 M-32.65 -7.15 L-30.75 -2.65 -33.75 8.0 -43.15 30.1 -47.0 30.25 -36.15 3.75 -32.65 -7.15" fill="#000000" fill-opacity="0.49803922" fill-rule="evenodd" stroke="none"/>
  </g>
</svg>
