<?xml version="1.0" encoding="UTF-8" standalone="no"?>
<svg xmlns:ffdec="https://www.free-decompiler.com/flash" xmlns:xlink="http://www.w3.org/1999/xlink" ffdec:objectType="shape" height="162.3px" width="75.25px" xmlns="http://www.w3.org/2000/svg">
  <g transform="matrix(1.0, 0.0, 0.0, 1.0, -78.8, 203.75)">
    <path d="M144.5 -123.55 L150.25 -104.5 152.25 -97.0 153.6 -91.3 Q155.25 -84.35 151.05 -79.65 L146.55 -75.25 Q146.15 -73.95 144.95 -72.75 122.65 -50.05 90.5 -41.45 L90.5 -93.5 83.4 -93.5 86.05 -94.2 85.05 -97.0 Q83.75 -100.75 82.75 -104.5 78.85 -118.9 78.8 -133.55 78.75 -141.5 79.9 -149.55 82.6 -169.4 92.25 -189.75 99.7 -216.75 114.0 -191.6 125.75 -171.0 134.75 -149.55 140.1 -136.7 144.5 -123.55" fill="#2e47aa" fill-rule="evenodd" stroke="none"/>
  </g>
</svg>
