<?xml version="1.0" encoding="UTF-8" standalone="no"?>
<svg xmlns:ffdec="https://www.free-decompiler.com/flash" xmlns:xlink="http://www.w3.org/1999/xlink" ffdec:objectType="shape" height="163.45px" width="163.45px" xmlns="http://www.w3.org/2000/svg">
  <g transform="matrix(1.0, 0.0, 0.0, 1.0, 73.45, 64.45)">
    <path d="M-12.75 -16.25 L-15.25 -20.25 -15.25 -25.0 -10.25 -27.0 -1.5 -26.75 -0.25 -26.25 0.0 -26.5 0.75 -26.75 6.75 -27.5 Q13.75 -26.5 14.25 -25.0 L14.25 -20.5 12.0 -16.75 Q9.5 -12.0 -0.25 -15.5 L-7.25 -13.75 Q-13.0 -14.5 -12.75 -16.25 M17.5 6.5 L22.0 16.75 23.75 23.5 29.75 34.75 Q32.75 39.5 38.75 43.75 L41.5 48.75 33.25 53.75 28.5 57.75 24.5 62.5 22.25 68.0 Q21.75 82.0 19.75 83.25 4.5 91.75 -21.75 81.75 L-22.75 67.75 Q-24.5 61.5 -28.25 58.75 L-28.0 58.25 -27.0 57.75 -24.25 56.0 -23.75 55.75 -13.75 49.75 -3.5 41.25 -3.25 41.25 -2.75 41.0 Q-0.75 40.0 1.0 35.0 L-4.0 32.5 -27.0 31.5 -24.0 24.5 -22.25 17.5 -17.75 8.25 -17.5 8.25 Q-8.25 24.0 1.0 20.25 L2.5 20.25 3.25 20.0 Q14.0 18.25 17.5 6.5 M-3.5 -19.0 L-4.75 -19.75 -6.75 -20.5 -8.0 -20.0 -9.0 -18.75 -9.5 -17.5 -7.75 -15.75 -4.5 -15.75 -3.5 -17.25 -3.5 -19.0 M5.75 -20.5 L5.25 -20.25 4.5 -20.0 4.0 -19.75 3.75 -19.5 Q1.75 -19.25 3.75 -15.75 L7.0 -15.75 Q8.75 -17.5 8.25 -19.5 L7.0 -20.0 6.75 -20.0 5.75 -20.5" fill="#ffffff" fill-rule="evenodd" stroke="none"/>
    <path d="M5.75 -20.5 L6.75 -20.0 7.0 -20.0 8.25 -19.5 Q8.75 -17.5 7.0 -15.75 L3.75 -15.75 Q1.75 -19.25 3.75 -19.5 L4.0 -19.75 4.5 -20.0 5.25 -20.25 5.75 -20.5 M-3.5 -19.0 L-3.5 -17.25 -4.5 -15.75 -7.75 -15.75 -9.5 -17.5 -9.0 -18.75 -8.0 -20.0 -6.75 -20.5 -4.75 -19.75 -3.5 -19.0" fill="#000000" fill-rule="evenodd" stroke="none"/>
    <path d="M12.0 -16.75 Q14.0 -16.05 15.5 -14.5 L18.5 -10.25 19.25 -2.5 17.5 6.5 Q14.0 18.25 3.25 20.0 L2.5 20.25 1.0 20.25 Q-8.25 24.0 -17.5 8.25 L-17.75 8.25 Q-24.75 -12.0 -12.75 -16.25 -13.0 -14.5 -7.25 -13.75 L-0.25 -15.5 Q9.5 -12.0 12.0 -16.75 M41.5 48.75 L52.25 43.25 41.75 55.75 Q40.25 56.25 39.75 61.5 L45.75 63.0 55.5 62.5 67.5 60.25 62.25 67.25 47.0 84.5 38.25 92.75 30.75 97.75 27.0 99.0 22.5 94.25 20.0 89.25 19.75 83.25 Q21.75 82.0 22.25 68.0 L24.5 62.5 28.5 57.75 33.25 53.75 41.5 48.75 M-21.75 81.75 L-21.75 84.75 -25.25 93.25 -31.0 98.25 -44.5 89.0 -50.25 82.25 -51.0 81.5 -51.0 81.25 -52.5 79.75 -53.25 78.75 -58.5 73.0 -71.0 56.25 -71.0 56.0 -71.75 55.25 Q-77.5 50.25 -64.0 40.75 -66.25 48.75 -63.75 55.25 L-61.0 56.5 -59.75 59.25 -59.25 59.75 -57.75 61.75 Q-56.5 66.25 -46.25 65.25 L-28.25 58.75 Q-24.5 61.5 -22.75 67.75 L-21.75 81.75" fill="#e58508" fill-rule="evenodd" stroke="none"/>
    <path d="M-63.9 21.5 Q-61.0 -1.75 -47.15 -21.15 -20.0 -58.75 -6.5 -62.9 3.1 -67.4 13.1 -58.65 L19.6 -53.25 28.35 -44.4 34.0 -37.5 46.35 -21.0 49.85 -18.0 59.25 -7.5 73.0 9.6 85.0 26.1 Q88.6 30.85 88.6 33.35 L88.75 33.6 88.75 33.75 Q89.35 34.0 90.0 38.6 L89.0 46.5 82.25 53.6 71.0 59.1 67.35 60.1 58.25 61.75 50.85 62.35 50.5 62.5 49.75 62.5 49.25 62.6 48.5 62.6 47.85 62.75 47.35 62.75 46.25 62.85 39.75 61.35 39.85 60.75 40.1 60.35 40.25 59.85 41.1 58.75 42.25 55.6 49.6 47.75 59.35 36.1 63.5 32.25 63.6 32.1 67.35 28.5 67.35 28.35 67.6 28.35 68.1 27.85 Q69.75 25.6 74.85 28.1 L55.85 6.85 54.6 5.85 54.25 5.0 44.75 -6.0 43.1 -7.5 40.35 -11.25 Q37.85 0.5 49.75 10.5 L54.0 14.85 54.1 15.1 62.85 24.1 61.75 30.6 58.6 36.5 58.75 36.75 52.85 42.85 52.75 43.0 47.6 49.0 40.85 52.75 36.0 56.0 28.75 62.0 27.1 63.85 26.6 61.5 27.75 58.75 26.6 59.75 Q20.5 66.25 21.35 77.6 -1.15 85.25 -22.15 77.25 -22.4 64.1 -28.65 58.75 L-20.25 54.1 -8.0 45.25 -7.0 46.35 -0.25 47.75 1.0 47.6 7.0 46.35 11.35 41.85 12.6 39.75 18.75 22.75 19.85 9.6 18.85 -0.65 18.5 3.0 17.6 6.25 Q15.5 16.35 3.25 20.0 L0.85 20.25 Q-8.15 23.0 -16.4 10.5 L-17.4 8.75 -17.9 7.1 -18.0 6.85 -19.25 2.6 -19.9 -2.15 -19.9 -6.15 -20.75 -6.25 -19.9 10.5 -19.25 12.85 -19.5 14.0 -19.0 22.0 -15.15 32.25 -4.15 32.5 -0.25 34.35 0.0 34.6 0.25 34.75 0.5 34.85 0.85 35.35 0.75 35.6 -4.0 41.25 -6.15 43.0 -24.15 55.6 -31.4 59.6 -29.0 58.85 -28.4 59.35 -28.0 61.0 -27.65 61.25 -28.25 63.85 -29.75 62.0 -32.25 60.0 -32.5 60.0 -32.75 60.1 -32.9 60.1 -33.25 60.25 -33.65 60.35 -34.0 60.5 -34.4 60.6 -37.5 61.75 -37.9 61.85 -38.25 62.0 -38.4 62.1 -45.0 64.35 -45.15 64.5 -53.4 64.75 -54.75 64.35 -54.9 64.35 Q-59.65 60.75 -60.9 56.6 L-61.0 56.35 -61.4 54.75 -59.75 52.75 -62.9 53.35 -64.4 53.35 -64.9 52.85 -65.4 51.1 -65.0 44.35 -64.4 42.25 -67.0 42.25 -65.4 41.1 -64.25 41.0 -63.5 36.85 -62.25 30.25 -63.4 28.25 -63.9 21.5 M-29.5 -1.65 L-31.65 -6.25 -34.25 4.0 -43.25 31.85 -39.75 31.75 -31.15 6.1 -29.5 -1.65" fill="#cecece" fill-opacity="0.0" fill-rule="evenodd" stroke="none"/>
    <path d="M67.35 60.1 L66.25 61.85 47.6 83.35 40.1 91.0 34.1 95.5 28.6 98.6 27.35 98.85 26.75 98.35 23.1 94.6 21.1 91.85 19.85 87.85 19.75 83.1 17.5 84.1 -0.15 87.25 -17.75 84.1 -20.9 82.6 -21.0 88.6 -21.9 90.5 -22.0 91.0 -22.15 91.35 -22.25 91.5 -22.75 92.85 -24.65 95.0 -25.0 95.5 -28.4 98.85 -29.9 98.35 -35.25 95.25 -41.4 90.75 -53.0 78.6 -62.75 67.5 -70.75 56.85 -73.15 52.5 -73.4 50.85 -69.9 45.1 -67.0 42.25 -64.4 42.25 -65.0 44.35 -65.4 51.1 -64.9 52.85 -64.4 53.35 -62.9 53.35 -59.75 52.75 -61.4 54.75 -61.0 56.35 -60.9 56.6 Q-59.65 60.75 -54.9 64.35 L-54.75 64.35 -53.4 64.75 -45.15 64.5 -45.0 64.35 -38.4 62.1 -38.25 62.0 -37.9 61.85 -37.5 61.75 -34.4 60.6 -34.0 60.5 -33.65 60.35 -33.25 60.25 -32.9 60.1 -32.75 60.1 -32.5 60.0 -32.25 60.0 -29.75 62.0 -28.25 63.85 -27.65 61.25 -28.0 61.0 -28.4 59.35 -29.0 58.85 -31.4 59.6 -24.15 55.6 -6.15 43.0 -4.0 41.25 0.75 35.6 0.85 35.35 0.5 34.85 0.25 34.75 0.0 34.6 -0.25 34.35 -4.15 32.5 -15.15 32.25 -19.0 22.0 -19.5 14.0 -19.25 12.85 -19.9 10.5 -20.75 -6.25 -19.9 -6.15 -19.9 -2.15 -19.25 2.6 -18.0 6.85 -17.9 7.1 -17.4 8.75 -16.4 10.5 Q-8.15 23.0 0.85 20.25 L3.25 20.0 Q15.5 16.35 17.6 6.25 L18.5 3.0 18.85 -0.65 19.85 9.6 18.75 22.75 12.6 39.75 11.35 41.85 7.0 46.35 1.0 47.6 -0.25 47.75 -7.0 46.35 -8.0 45.25 -20.25 54.1 -28.65 58.75 Q-22.4 64.1 -22.15 77.25 -1.15 85.25 21.35 77.6 20.5 66.25 26.6 59.75 L27.75 58.75 26.6 61.5 27.1 63.85 28.75 62.0 36.0 56.0 40.85 52.75 47.6 49.0 52.75 43.0 52.85 42.85 58.75 36.75 58.6 36.5 61.75 30.6 62.85 24.1 54.1 15.1 54.0 14.85 49.75 10.5 Q37.85 0.5 40.35 -11.25 L43.1 -7.5 44.75 -6.0 54.25 5.0 54.6 5.85 55.85 6.85 74.85 28.1 Q69.75 25.6 68.1 27.85 L67.6 28.35 67.35 28.35 63.35 24.5 63.1 24.35 63.5 28.75 63.0 32.35 63.5 32.25 59.35 36.1 49.6 47.75 42.25 55.6 41.1 58.75 40.25 59.85 40.1 60.35 39.85 60.75 39.75 61.35 46.25 62.85 47.35 62.75 47.85 62.75 48.5 62.6 49.25 62.6 49.75 62.5 50.5 62.5 50.85 62.35 58.25 61.75 67.35 60.1 M-63.5 36.85 L-64.4 29.1 -63.9 21.5 -63.4 28.25 -62.25 30.25 -63.5 36.85 M-29.5 -1.65 L-31.15 6.1 -39.75 31.75 -43.25 31.85 -34.25 4.0 -31.65 -6.25 -29.5 -1.65" fill="#000000" fill-opacity="0.49803922" fill-rule="evenodd" stroke="none"/>
  </g>
</svg>
