<?xml version="1.0" encoding="UTF-8" standalone="no"?>
<svg xmlns:ffdec="https://www.free-decompiler.com/flash" xmlns:xlink="http://www.w3.org/1999/xlink" ffdec:objectType="shape" height="163.45px" width="163.25px" xmlns="http://www.w3.org/2000/svg">
  <g transform="matrix(1.0, 0.0, 0.0, 1.0, 73.4, 64.45)">
    <path d="M-12.75 -16.25 L-15.25 -20.25 -15.25 -25.0 -10.25 -27.0 -1.5 -26.75 -0.25 -26.25 0.0 -26.5 0.75 -26.75 6.75 -27.5 Q13.75 -26.5 14.25 -25.0 L14.25 -20.5 12.0 -16.75 Q9.5 -12.0 -0.25 -15.5 L-7.25 -13.75 Q-13.0 -14.5 -12.75 -16.25 M17.5 6.5 L22.0 16.75 23.75 23.5 29.75 34.75 Q32.75 39.5 38.75 43.75 L41.5 48.75 33.25 53.75 28.5 57.75 24.5 62.5 22.25 68.0 Q21.75 82.0 19.75 83.25 4.5 91.75 -21.75 81.75 L-22.25 70.25 Q-23.0 64.5 -26.75 60.25 L-25.25 59.25 -24.75 59.0 -24.0 58.5 Q-23.95 57.8 -23.25 58.0 L-22.75 57.75 -11.0 50.5 -0.5 42.0 Q1.75 42.25 4.0 35.5 L-1.0 33.0 -27.25 32.0 -23.75 23.5 -22.25 17.5 -17.75 8.25 -17.5 8.25 Q-8.25 24.0 1.0 20.25 L2.5 20.25 3.25 20.0 Q14.0 18.25 17.5 6.5 M-3.5 -19.0 L-4.75 -19.75 -6.75 -20.5 -8.0 -20.0 -9.0 -18.75 -9.5 -17.5 -7.75 -15.75 -4.5 -15.75 -3.5 -17.25 -3.5 -19.0 M5.75 -20.5 L5.25 -20.25 4.5 -20.0 4.0 -19.75 3.75 -19.5 Q1.75 -19.25 3.75 -15.75 L7.0 -15.75 Q8.75 -17.5 8.25 -19.5 L7.0 -20.0 6.75 -20.0 5.75 -20.5" fill="#ffffff" fill-rule="evenodd" stroke="none"/>
    <path d="M5.75 -20.5 L6.75 -20.0 7.0 -20.0 8.25 -19.5 Q8.75 -17.5 7.0 -15.75 L3.75 -15.75 Q1.75 -19.25 3.75 -19.5 L4.0 -19.75 4.5 -20.0 5.25 -20.25 5.75 -20.5 M-3.5 -19.0 L-3.5 -17.25 -4.5 -15.75 -7.75 -15.75 -9.5 -17.5 -9.0 -18.75 -8.0 -20.0 -6.75 -20.5 -4.75 -19.75 -3.5 -19.0" fill="#000000" fill-rule="evenodd" stroke="none"/>
    <path d="M12.0 -16.75 Q14.0 -16.05 15.5 -14.5 L18.5 -10.25 19.25 -2.5 17.5 6.5 Q14.0 18.25 3.25 20.0 L2.5 20.25 1.0 20.25 Q-8.25 24.0 -17.5 8.25 L-17.75 8.25 Q-24.75 -12.0 -12.75 -16.25 -13.0 -14.5 -7.25 -13.75 L-0.25 -15.5 Q9.5 -12.0 12.0 -16.75 M41.5 48.75 L52.5 43.25 50.5 45.25 41.75 55.75 40.5 58.25 40.25 61.25 46.0 62.75 57.0 62.0 67.5 60.0 60.0 70.0 47.25 84.25 38.25 92.75 30.75 97.75 27.0 99.0 22.5 94.25 20.0 89.25 19.75 83.25 Q21.75 82.0 22.25 68.0 L24.5 62.5 28.5 57.75 33.25 53.75 41.5 48.75 M-21.75 81.75 L-21.75 84.75 -25.25 93.25 -31.0 98.25 -44.5 89.0 -50.25 82.25 -51.0 81.5 -51.0 81.25 -52.5 79.75 -53.25 78.75 -58.5 73.0 -71.0 56.25 -71.0 56.0 -71.75 55.25 -73.25 53.25 -73.25 50.25 -69.75 44.75 Q-65.5 40.25 -63.25 40.75 L-61.5 40.75 -62.25 50.25 Q-61.75 58.0 -58.25 57.5 L-58.0 57.5 Q-52.25 73.0 -26.75 60.25 -23.0 64.5 -22.25 70.25 L-21.75 81.75" fill="#e58508" fill-rule="evenodd" stroke="none"/>
    <path d="M-63.9 21.5 Q-61.0 -1.75 -47.15 -21.15 -20.0 -58.75 -6.5 -62.9 3.1 -67.4 13.1 -58.65 L19.6 -53.25 28.35 -44.4 34.0 -37.5 46.35 -21.0 49.85 -18.0 59.5 -7.25 72.6 9.0 85.1 26.25 Q89.25 32.1 88.6 33.35 89.5 34.5 89.85 37.85 L89.0 46.35 82.25 53.5 71.85 58.6 67.6 59.85 64.35 60.75 50.5 62.25 50.0 62.35 49.25 62.35 48.6 62.5 48.1 62.5 47.25 62.6 45.0 62.5 40.1 61.1 40.5 59.85 41.5 58.35 42.35 55.5 44.25 53.85 45.6 51.85 50.0 47.35 59.85 35.6 60.85 34.6 61.25 34.6 62.1 33.5 65.75 30.0 66.25 29.6 67.85 28.0 Q70.6 25.5 74.85 28.0 L68.5 21.0 67.85 19.85 54.75 5.85 54.25 4.85 43.75 -6.9 40.5 -11.15 Q37.85 0.5 49.75 10.5 L60.35 21.5 60.75 21.85 62.85 24.1 61.75 30.6 58.6 36.5 51.6 44.35 51.6 44.5 51.35 44.75 47.85 48.85 46.0 49.6 36.0 56.0 28.75 62.0 27.1 63.85 26.6 61.5 27.75 58.75 26.6 59.75 Q20.5 66.25 21.35 77.6 -1.15 85.25 -22.15 77.25 -22.25 65.5 -27.5 60.1 L-28.15 60.35 -27.65 61.35 -28.25 63.85 -30.65 61.25 -41.4 65.1 -50.0 65.5 -51.65 65.1 -51.75 65.1 -52.0 64.85 -52.9 64.5 -54.4 62.6 -54.75 62.6 -57.4 59.25 -58.15 57.25 -58.25 57.25 -58.5 55.6 -57.0 53.75 -60.65 54.5 -61.5 54.5 -62.15 53.85 -62.75 52.25 -62.9 47.85 -62.0 42.75 -64.9 42.1 -67.0 42.25 -65.4 41.1 -63.15 40.85 -61.75 40.75 -60.75 33.75 -63.25 28.5 -63.9 21.5 M-29.0 -1.5 L-31.15 -5.9 -33.25 4.35 -41.25 32.6 -38.0 32.5 -36.15 27.35 -35.9 25.5 -30.25 6.75 -29.0 -1.5 M-19.9 -2.15 L-19.9 -6.15 -20.75 -6.25 -19.9 10.5 -19.25 12.85 -19.5 14.0 -19.0 22.0 -15.0 32.75 -1.15 33.1 2.6 34.85 2.85 35.1 3.5 35.5 3.75 35.6 4.0 35.75 4.0 35.85 3.75 36.1 3.75 36.25 -0.15 41.1 -3.0 43.6 -19.15 55.25 -27.15 59.85 -25.15 59.25 -17.9 55.25 -5.75 46.5 Q-0.4 49.0 7.0 46.35 L12.1 41.0 19.0 22.25 19.85 9.6 18.85 -0.65 18.5 3.0 17.6 6.25 Q15.5 16.35 3.25 20.0 L0.85 20.25 Q-8.15 23.0 -16.4 10.5 L-17.4 8.75 -17.9 7.1 -18.0 6.85 -19.25 2.6 -19.9 -2.15" fill="#cecece" fill-opacity="0.0" fill-rule="evenodd" stroke="none"/>
    <path d="M67.6 59.85 L57.0 73.1 40.1 91.0 34.1 95.5 28.6 98.6 27.35 98.85 26.75 98.35 23.1 94.6 21.1 91.85 19.85 87.85 19.75 83.1 17.5 84.1 -0.15 87.25 -17.75 84.1 -20.9 82.6 -21.0 88.6 -21.9 90.5 -22.0 91.0 -22.15 91.35 -22.25 91.5 -22.75 92.85 -24.65 95.0 -25.0 95.5 -28.4 98.85 -29.9 98.35 -35.25 95.25 -41.4 90.75 -53.0 78.6 -62.75 67.5 -70.75 56.85 -73.15 52.5 -73.4 50.85 -69.9 45.1 -67.0 42.25 -64.9 42.1 -62.0 42.75 -62.9 47.85 -62.75 52.25 -62.15 53.85 -61.5 54.5 -60.65 54.5 -57.0 53.75 -58.5 55.6 -58.25 57.25 -58.15 57.25 -57.4 59.25 -54.75 62.6 -54.4 62.6 -52.9 64.5 -52.0 64.85 -51.75 65.1 -51.65 65.1 -50.0 65.5 -41.4 65.1 -30.65 61.25 -28.25 63.85 -27.65 61.35 -28.15 60.35 -27.5 60.1 Q-22.25 65.5 -22.15 77.25 -1.15 85.25 21.35 77.6 20.5 66.25 26.6 59.75 L27.75 58.75 26.6 61.5 27.1 63.85 28.75 62.0 36.0 56.0 46.0 49.6 47.85 48.85 51.35 44.75 51.6 44.5 51.6 44.35 58.6 36.5 61.75 30.6 62.85 24.1 60.75 21.85 60.35 21.5 49.75 10.5 Q37.85 0.5 40.5 -11.15 L43.75 -6.9 54.25 4.85 54.75 5.85 67.85 19.85 68.5 21.0 74.85 28.0 Q70.6 25.5 67.85 28.0 L66.25 29.6 67.35 28.35 67.35 28.25 63.35 24.5 63.1 24.35 63.5 28.75 63.0 32.35 65.75 30.0 62.1 33.5 61.25 34.6 60.85 34.6 59.85 35.6 50.0 47.35 45.6 51.85 44.25 53.85 42.35 55.5 41.5 58.35 40.5 59.85 40.1 61.1 45.0 62.5 47.25 62.6 48.1 62.5 48.6 62.5 49.25 62.35 50.0 62.35 50.5 62.25 64.35 60.75 67.6 59.85 M-63.15 40.85 L-64.4 29.1 -63.9 21.5 -63.25 28.5 -60.75 33.75 -61.75 40.75 -63.15 40.85 M-19.9 -2.15 L-19.25 2.6 -18.0 6.85 -17.9 7.1 -17.4 8.75 -16.4 10.5 Q-8.15 23.0 0.85 20.25 L3.25 20.0 Q15.5 16.35 17.6 6.25 L18.5 3.0 18.85 -0.65 19.85 9.6 19.0 22.25 12.1 41.0 7.0 46.35 Q-0.4 49.0 -5.75 46.5 L-17.9 55.25 -25.15 59.25 -27.15 59.85 -19.15 55.25 -3.0 43.6 -0.15 41.1 3.75 36.25 3.75 36.1 4.0 35.85 4.0 35.75 3.75 35.6 3.5 35.5 2.85 35.1 2.6 34.85 -1.15 33.1 -15.0 32.75 -19.0 22.0 -19.5 14.0 -19.25 12.85 -19.9 10.5 -20.75 -6.25 -19.9 -6.15 -19.9 -2.15 M-29.0 -1.5 L-30.25 6.75 -35.9 25.5 -36.15 27.35 -38.0 32.5 -41.25 32.6 -33.25 4.35 -31.15 -5.9 -29.0 -1.5" fill="#000000" fill-opacity="0.49803922" fill-rule="evenodd" stroke="none"/>
  </g>
</svg>
