<?xml version="1.0" encoding="UTF-8" standalone="no"?>
<svg xmlns:ffdec="https://www.free-decompiler.com/flash" xmlns:xlink="http://www.w3.org/1999/xlink" ffdec:objectType="shape" height="163.45px" width="163.15px" xmlns="http://www.w3.org/2000/svg">
  <g transform="matrix(1.0, 0.0, 0.0, 1.0, 73.4, 64.45)">
    <path d="M-12.75 -16.25 L-15.25 -20.25 -15.25 -25.0 -10.25 -27.0 -1.5 -26.75 -0.25 -26.25 0.0 -26.5 0.75 -26.75 6.75 -27.5 Q13.75 -26.5 14.25 -25.0 L14.25 -20.5 12.0 -16.75 Q9.5 -12.0 -0.25 -15.5 L-7.25 -13.75 Q-13.0 -14.5 -12.75 -16.25 M17.5 6.5 L22.0 16.75 23.75 23.5 29.75 34.75 Q32.75 39.5 38.75 43.75 L41.5 48.75 33.25 53.75 28.5 57.75 24.5 62.5 22.25 68.0 Q21.75 82.0 19.75 83.25 4.5 91.75 -21.75 81.75 L-22.25 70.0 -23.0 68.75 -6.25 63.0 9.25 53.25 19.75 44.75 24.0 38.75 18.0 36.25 -13.0 35.5 -25.5 36.0 -24.5 24.5 -22.25 17.5 -17.75 8.25 -17.5 8.25 Q-8.25 24.0 1.0 20.25 L2.5 20.25 3.25 20.0 Q14.0 18.25 17.5 6.5 M-3.5 -19.0 L-4.75 -19.75 -6.75 -20.5 -8.0 -20.0 -9.0 -18.75 -9.5 -17.5 -7.75 -15.75 -4.5 -15.75 -3.5 -17.25 -3.5 -19.0 M5.75 -20.5 L5.25 -20.25 4.5 -20.0 4.0 -19.75 3.75 -19.5 Q1.75 -19.25 3.75 -15.75 L7.0 -15.75 Q8.75 -17.5 8.25 -19.5 L7.0 -20.0 6.75 -20.0 5.75 -20.5" fill="#ffffff" fill-rule="evenodd" stroke="none"/>
    <path d="M5.75 -20.5 L6.75 -20.0 7.0 -20.0 8.25 -19.5 Q8.75 -17.5 7.0 -15.75 L3.75 -15.75 Q1.75 -19.25 3.75 -19.5 L4.0 -19.75 4.5 -20.0 5.25 -20.25 5.75 -20.5 M-3.5 -19.0 L-3.5 -17.25 -4.5 -15.75 -7.75 -15.75 -9.5 -17.5 -9.0 -18.75 -8.0 -20.0 -6.75 -20.5 -4.75 -19.75 -3.5 -19.0" fill="#000000" fill-rule="evenodd" stroke="none"/>
    <path d="M12.0 -16.75 Q14.0 -16.05 15.5 -14.5 L18.5 -10.25 19.25 -2.5 17.5 6.5 Q14.0 18.25 3.25 20.0 L2.5 20.25 1.0 20.25 Q-8.25 24.0 -17.5 8.25 L-17.75 8.25 Q-24.75 -12.0 -12.75 -16.25 -13.0 -14.5 -7.25 -13.75 L-0.25 -15.5 Q9.5 -12.0 12.0 -16.75 M41.5 48.75 L52.25 43.25 43.25 54.5 Q41.5 55.25 41.5 60.0 L47.25 61.75 56.5 61.25 68.25 59.0 62.25 67.25 47.25 84.25 38.25 92.75 30.75 97.75 27.0 99.0 22.5 94.25 20.0 89.25 19.75 83.25 Q21.75 82.0 22.25 68.0 L24.5 62.5 28.5 57.75 33.25 53.75 41.5 48.75 M-21.75 81.75 L-21.75 84.75 -25.25 93.25 -31.0 98.25 -44.5 89.0 -50.25 82.25 -51.0 81.5 -51.0 81.25 -52.5 79.75 -53.25 78.75 -58.5 73.0 -71.0 56.25 -71.0 56.0 -71.75 55.25 -73.25 53.25 -73.25 50.25 -69.75 44.75 Q-65.5 40.25 -63.25 40.75 L-58.25 41.0 -47.0 46.0 -46.0 54.5 Q-43.5 62.5 -40.25 61.0 -37.0 69.0 -23.0 68.75 L-22.25 70.0 -21.75 81.75" fill="#e58508" fill-rule="evenodd" stroke="none"/>
    <path d="M-63.9 21.5 Q-61.0 -1.75 -47.15 -21.15 -20.0 -58.75 -6.5 -62.9 3.1 -67.4 13.1 -58.65 L19.6 -53.25 28.35 -44.4 34.0 -37.5 46.35 -21.0 49.35 -18.5 60.35 -6.15 71.85 8.0 85.75 27.0 Q89.25 31.85 88.5 33.0 89.35 34.0 89.75 37.75 L89.0 45.6 82.25 53.0 71.6 58.1 68.25 59.0 64.1 60.0 56.6 60.75 55.5 60.75 55.1 60.85 54.0 60.85 53.75 61.0 52.85 61.1 51.5 61.1 50.5 61.25 50.1 61.25 48.85 61.35 48.75 61.35 46.0 61.1 41.6 59.85 41.85 58.85 42.0 58.5 42.85 57.25 43.75 54.25 50.35 47.0 61.0 34.25 61.25 34.0 61.85 33.85 62.1 33.25 68.25 27.25 Q69.35 25.1 75.0 27.35 L56.85 7.25 55.5 6.1 54.6 4.6 44.0 -7.15 40.6 -11.5 Q38.25 0.5 49.75 10.25 L62.85 23.75 61.75 30.6 59.1 35.75 53.5 42.25 53.25 42.5 53.1 42.75 52.85 43.0 51.85 44.25 51.5 44.6 48.0 48.75 40.85 52.75 36.0 56.0 28.75 62.0 27.1 63.85 26.6 61.5 27.75 58.75 26.6 59.75 Q20.5 66.25 21.35 77.6 -1.15 85.25 -22.15 77.25 L-22.15 74.35 -23.4 68.0 -31.65 68.1 -33.25 67.75 -37.65 64.25 Q-40.15 61.75 -40.15 61.0 L-40.65 59.85 -39.25 57.85 -43.75 59.1 -44.4 58.35 -44.9 58.35 -45.5 57.75 Q-46.25 53.35 -46.9 53.1 L-47.15 49.6 -59.25 43.6 Q-65.45 41.5 -66.75 42.1 L-65.4 41.1 -63.15 40.85 -60.65 40.75 -53.75 42.85 -55.15 41.75 -60.4 35.1 -63.25 28.5 -63.9 21.5 M-26.75 4.25 L-27.65 22.85 -27.5 26.6 -28.25 36.35 -25.65 36.25 -24.75 25.0 -23.9 3.25 Q-23.4 2.0 -26.9 -2.4 L-26.75 4.25 M20.5 44.35 L23.0 39.85 19.5 44.75 10.6 51.45 20.5 44.35 M3.25 20.0 L0.85 20.25 Q-8.15 23.0 -16.4 10.5 L-17.4 8.75 -17.9 7.1 -18.0 6.85 -19.25 2.6 -19.9 -2.15 -19.9 -6.15 -20.75 -6.25 -19.9 10.5 -19.25 12.85 -19.5 14.0 -19.0 22.1 -18.65 22.35 -13.9 35.5 2.5 36.0 2.85 36.1 17.25 36.25 23.25 38.6 18.6 36.1 13.85 36.1 19.0 22.25 19.85 9.6 18.85 -0.65 18.5 3.0 17.6 6.25 Q15.5 16.35 3.25 20.0" fill="#cecece" fill-opacity="0.0" fill-rule="evenodd" stroke="none"/>
    <path d="M-63.9 21.5 L-63.25 28.5 -60.4 35.1 -55.15 41.75 -53.75 42.85 -60.65 40.75 -63.15 40.85 -64.4 29.1 -63.9 21.5 M-66.75 42.1 Q-65.45 41.5 -59.25 43.6 L-47.15 49.6 -46.9 53.1 Q-46.25 53.35 -45.5 57.75 L-44.9 58.35 -44.4 58.35 -43.75 59.1 -39.25 57.85 -40.65 59.85 -40.15 61.0 Q-40.15 61.75 -37.65 64.25 L-33.25 67.75 -31.65 68.1 -23.4 68.0 -22.15 74.35 -22.15 77.25 Q-1.15 85.25 21.35 77.6 20.5 66.25 26.6 59.75 L27.75 58.75 26.6 61.5 27.1 63.85 28.75 62.0 36.0 56.0 40.85 52.75 48.0 48.75 51.5 44.6 51.85 44.25 52.85 43.0 53.1 42.75 53.25 42.5 53.5 42.25 59.1 35.75 61.75 30.6 62.85 23.75 49.75 10.25 Q38.25 0.5 40.6 -11.5 L44.0 -7.15 54.6 4.6 55.5 6.1 56.85 7.25 75.0 27.35 Q69.35 25.1 68.25 27.25 L62.1 33.25 61.85 33.85 61.25 34.0 61.0 34.25 50.35 47.0 43.75 54.25 42.85 57.25 42.0 58.5 41.85 58.85 41.6 59.85 46.0 61.1 48.75 61.35 48.85 61.35 50.1 61.25 50.5 61.25 51.5 61.1 52.85 61.1 53.75 61.0 54.0 60.85 55.1 60.85 55.5 60.75 56.6 60.75 64.1 60.0 68.25 59.0 57.0 73.1 40.1 91.0 34.1 95.5 28.6 98.6 27.35 98.85 26.75 98.35 23.1 94.6 21.1 91.85 19.85 87.85 19.75 83.1 17.5 84.1 -0.15 87.25 -17.75 84.1 -20.9 82.6 -21.0 88.6 -21.9 90.5 -22.0 91.0 -22.15 91.35 -22.25 91.5 -22.75 92.85 -24.65 95.0 -25.0 95.5 -28.4 98.85 -29.9 98.35 -35.25 95.25 -41.4 90.75 -57.9 73.25 -67.25 61.85 -70.75 56.85 -73.15 52.5 -73.4 50.85 -69.9 45.1 -67.0 42.25 -66.75 42.1 M67.35 27.85 L63.1 24.0 63.5 28.75 63.0 32.0 67.35 27.85 M3.25 20.0 Q15.5 16.35 17.6 6.25 L18.5 3.0 18.85 -0.65 19.85 9.6 19.0 22.25 13.85 36.1 18.6 36.1 23.25 38.6 17.25 36.25 2.85 36.1 2.5 36.0 -13.9 35.5 -18.65 22.35 -19.0 22.1 -19.5 14.0 -19.25 12.85 -19.9 10.5 -20.75 -6.25 -19.9 -6.15 -19.9 -2.15 -19.25 2.6 -18.0 6.85 -17.9 7.1 -17.4 8.75 -16.4 10.5 Q-8.15 23.0 0.85 20.25 L3.25 20.0 M20.5 44.35 L10.6 51.45 19.5 44.75 23.0 39.85 20.5 44.35 M-26.75 4.25 L-26.9 -2.4 Q-23.4 2.0 -23.9 3.25 L-24.75 25.0 -25.65 36.25 -28.25 36.35 -27.5 26.6 -27.65 22.85 -26.75 4.25" fill="#000000" fill-opacity="0.49803922" fill-rule="evenodd" stroke="none"/>
  </g>
</svg>
