<?xml version="1.0" encoding="UTF-8" standalone="no"?>
<svg xmlns:ffdec="https://www.free-decompiler.com/flash" xmlns:xlink="http://www.w3.org/1999/xlink" ffdec:objectType="shape" height="159.65px" width="75.15px" xmlns="http://www.w3.org/2000/svg">
  <g transform="matrix(1.0, 0.0, 0.0, 1.0, -83.45, 200.5)">
    <path d="M138.9 -199.0 Q142.1 -202.4 143.7 -198.15 155.7 -166.5 158.05 -133.55 L158.6 -119.5 Q158.65 -107.1 157.45 -94.5 L157.35 -93.5 Q156.55 -85.9 155.25 -78.25 150.4 -75.1 145.25 -73.0 L144.95 -72.75 138.5 -66.65 Q128.2 -57.65 116.0 -51.3 103.05 -44.55 88.0 -40.85 L88.0 -93.5 83.45 -93.5 87.1 -94.5 88.0 -94.75 88.2 -94.8 88.0 -96.05 Q87.45 -100.55 87.75 -105.75 L88.0 -106.75 88.55 -109.0 Q89.9 -114.3 91.55 -119.5 105.45 -163.65 138.9 -199.0" fill="#2e47aa" fill-rule="evenodd" stroke="none"/>
  </g>
</svg>
