<?xml version="1.0" encoding="UTF-8" standalone="no"?>
<svg xmlns:ffdec="https://www.free-decompiler.com/flash" xmlns:xlink="http://www.w3.org/1999/xlink" ffdec:objectType="shape" height="163.45px" width="163.25px" xmlns="http://www.w3.org/2000/svg">
  <g transform="matrix(1.0, 0.0, 0.0, 1.0, 73.4, 64.45)">
    <path d="M-12.75 -16.25 L-15.25 -20.25 -15.25 -25.0 -10.25 -27.0 -1.5 -26.75 -0.25 -26.25 0.0 -26.5 0.75 -26.75 6.75 -27.5 Q13.75 -26.5 14.25 -25.0 L14.25 -20.5 12.0 -16.75 Q9.5 -12.0 -0.25 -15.5 L-7.25 -13.75 Q-13.0 -14.5 -12.75 -16.25 M17.5 6.5 L22.0 16.75 23.75 23.5 29.75 34.75 Q32.75 39.5 38.75 43.75 L41.5 48.75 33.25 53.75 28.5 57.75 24.5 62.5 22.25 68.0 Q21.75 82.0 19.75 83.25 4.5 91.75 -21.75 81.75 L-22.5 69.75 -10.75 66.5 4.5 57.75 13.75 50.75 17.5 45.25 Q14.25 42.0 12.0 42.25 L-15.25 39.25 -28.0 39.0 -28.0 37.5 -27.75 36.5 -27.75 35.0 -27.5 34.25 -27.5 32.75 -27.25 32.25 -27.25 31.75 Q-23.25 24.5 -22.25 17.5 L-17.75 8.25 -17.5 8.25 Q-8.25 24.0 1.0 20.25 L2.5 20.25 3.25 20.0 Q14.0 18.25 17.5 6.5 M-3.5 -19.0 L-4.75 -19.75 -6.75 -20.5 -8.0 -20.0 -9.0 -18.75 -9.5 -17.5 -7.75 -15.75 -4.5 -15.75 -3.5 -17.25 -3.5 -19.0 M5.75 -20.5 L5.25 -20.25 4.5 -20.0 4.0 -19.75 3.75 -19.5 Q1.75 -19.25 3.75 -15.75 L7.0 -15.75 Q8.75 -17.5 8.25 -19.5 L7.0 -20.0 6.75 -20.0 5.75 -20.5" fill="#ffffff" fill-rule="evenodd" stroke="none"/>
    <path d="M5.75 -20.5 L6.75 -20.0 7.0 -20.0 8.25 -19.5 Q8.75 -17.5 7.0 -15.75 L3.75 -15.75 Q1.75 -19.25 3.75 -19.5 L4.0 -19.75 4.5 -20.0 5.25 -20.25 5.75 -20.5 M-3.5 -19.0 L-3.5 -17.25 -4.5 -15.75 -7.75 -15.75 -9.5 -17.5 -9.0 -18.75 -8.0 -20.0 -6.75 -20.5 -4.75 -19.75 -3.5 -19.0" fill="#000000" fill-rule="evenodd" stroke="none"/>
    <path d="M12.0 -16.75 Q14.0 -16.05 15.5 -14.5 L18.5 -10.25 19.25 -2.5 17.5 6.5 Q14.0 18.25 3.25 20.0 L2.5 20.25 1.0 20.25 Q-8.25 24.0 -17.5 8.25 L-17.75 8.25 Q-24.75 -12.0 -12.75 -16.25 -13.0 -14.5 -7.25 -13.75 L-0.25 -15.5 Q9.5 -12.0 12.0 -16.75 M41.5 48.75 L51.75 43.25 58.75 41.25 57.0 43.75 56.25 44.5 56.25 44.75 55.75 45.0 55.75 45.5 55.25 46.0 55.0 46.5 54.5 47.0 52.5 49.75 52.25 50.25 46.25 60.25 Q44.75 61.25 45.25 66.25 L50.75 67.0 65.0 63.5 55.0 75.75 40.0 91.5 29.75 98.25 27.0 99.0 21.5 92.75 19.75 88.0 19.75 83.25 Q21.75 82.0 22.25 68.0 L24.5 62.5 28.5 57.75 33.25 53.75 41.5 48.75 M-21.75 81.75 L-21.75 84.75 -25.25 93.25 -31.0 98.25 -44.5 89.0 -50.25 82.25 -51.0 81.5 -51.0 81.25 -52.5 79.75 -53.25 78.75 -58.5 73.0 -71.0 56.25 -71.0 56.0 -71.75 55.25 -73.25 53.25 -73.25 50.25 -69.75 44.75 Q-65.5 40.25 -63.25 40.75 L-58.25 41.0 -49.25 44.75 -48.25 55.5 Q-46.75 63.25 -43.25 61.75 L-42.75 63.25 -38.5 67.75 -37.0 69.0 -36.5 69.5 -34.25 70.25 -26.5 71.0 -22.5 69.75 -21.75 81.75" fill="#e58508" fill-rule="evenodd" stroke="none"/>
    <path d="M-63.9 21.5 Q-61.0 -1.75 -47.15 -21.15 -20.0 -58.75 -6.5 -62.9 3.1 -67.4 13.1 -58.65 L19.6 -53.25 28.35 -44.4 34.0 -37.5 46.35 -21.0 49.35 -18.5 59.6 -7.15 71.5 7.5 85.1 26.0 Q88.85 31.25 88.35 32.35 89.35 33.5 89.85 37.35 L89.5 45.35 85.35 51.5 Q72.6 62.6 64.75 63.6 L57.35 65.35 56.6 65.6 52.0 66.75 50.85 66.85 50.5 67.0 45.1 66.0 45.1 65.25 45.35 64.6 46.25 63.0 46.85 60.0 53.35 50.75 61.25 38.25 62.35 37.25 69.6 27.75 70.1 27.25 72.75 27.1 76.0 28.35 68.85 20.6 68.25 19.5 55.1 5.5 54.6 4.5 44.1 -7.15 40.75 -11.4 Q38.25 0.25 49.75 10.1 L62.85 23.6 61.75 30.6 Q59.0 37.6 53.6 42.5 L58.5 41.1 56.1 44.75 54.5 45.25 45.85 49.75 36.0 56.0 28.75 62.0 27.1 63.85 26.6 61.5 27.75 58.75 26.6 59.75 Q20.5 66.25 21.35 77.6 -1.15 85.25 -22.15 77.25 L-22.25 73.35 -23.0 69.75 -24.9 70.25 -36.15 69.5 -42.15 64.0 -43.25 61.75 -43.65 61.25 -42.25 59.75 -45.15 60.35 -46.65 60.25 -48.25 57.6 -49.25 52.1 -49.25 48.5 -59.25 43.6 Q-65.45 41.5 -66.75 42.1 L-65.4 41.1 -63.15 40.85 -60.65 40.75 -53.75 42.85 -55.15 41.75 -60.4 35.1 -63.25 28.5 -63.9 21.5 M-25.4 7.85 L-25.4 3.1 -28.4 -1.4 -28.25 4.6 -31.0 39.1 -28.4 39.1 -27.15 28.25 -27.15 27.35 -25.4 7.85 M13.5 50.75 L6.6 55.55 14.6 50.25 16.6 46.75 Q15.75 46.75 13.5 50.75 M3.25 20.0 L0.85 20.25 Q-8.15 23.0 -16.4 10.5 L-17.4 8.75 -17.9 7.1 -18.0 6.85 -19.25 2.6 -19.9 -2.15 -19.9 -6.15 -20.75 -6.25 -19.9 10.5 -19.25 12.85 -19.5 14.0 -19.0 22.1 -18.65 22.35 -12.65 39.75 -11.9 39.85 -11.5 39.85 -10.5 40.0 -10.15 40.0 -0.25 41.35 11.1 42.25 17.25 45.1 12.85 42.1 11.25 42.0 12.35 40.35 18.85 22.6 19.85 9.6 18.85 -0.65 18.5 3.0 17.6 6.25 Q15.5 16.35 3.25 20.0" fill="#cecece" fill-opacity="0.0" fill-rule="evenodd" stroke="none"/>
    <path d="M-63.9 21.5 L-63.25 28.5 -60.4 35.1 -55.15 41.75 -53.75 42.85 -60.65 40.75 -63.15 40.85 -64.4 29.1 -63.9 21.5 M-66.75 42.1 Q-65.45 41.5 -59.25 43.6 L-49.25 48.5 -49.25 52.1 -48.25 57.6 -46.65 60.25 -45.15 60.35 -42.25 59.75 -43.65 61.25 -43.25 61.75 -42.15 64.0 -36.15 69.5 -24.9 70.25 -23.0 69.75 -22.25 73.35 -22.15 77.25 Q-1.15 85.25 21.35 77.6 20.5 66.25 26.6 59.75 L27.75 58.75 26.6 61.5 27.1 63.85 28.75 62.0 36.0 56.0 45.85 49.75 54.5 45.25 56.1 44.75 58.5 41.1 53.6 42.5 Q59.0 37.6 61.75 30.6 L62.85 23.6 49.75 10.1 Q38.25 0.25 40.75 -11.4 L44.1 -7.15 54.6 4.5 55.1 5.5 68.25 19.5 68.85 20.6 76.0 28.35 72.75 27.1 70.1 27.25 69.6 27.75 62.35 37.25 61.25 38.25 53.35 50.75 46.85 60.0 46.25 63.0 45.35 64.6 45.1 65.25 45.1 66.0 50.5 67.0 50.85 66.85 52.0 66.75 56.6 65.6 57.35 65.35 64.75 63.6 47.6 83.35 40.1 91.0 34.1 95.5 28.6 98.6 27.35 98.85 26.75 98.35 23.1 94.6 21.1 91.85 19.85 87.85 19.75 83.1 17.5 84.1 -0.15 87.25 -17.75 84.1 -20.9 82.6 -21.0 88.6 -21.9 90.5 -22.0 91.0 -22.15 91.35 -22.25 91.5 -22.75 92.85 -24.65 95.0 -25.0 95.5 -28.4 98.85 -29.9 98.35 -35.25 95.25 -41.4 90.75 -57.9 73.25 -67.25 61.85 -70.75 56.85 -73.15 52.5 -73.4 50.85 -69.9 45.1 -67.0 42.25 -66.75 42.1 M63.35 24.0 L63.1 23.85 63.5 28.75 62.6 35.1 62.6 35.5 63.1 35.35 68.35 28.75 63.35 24.0 M3.25 20.0 Q15.5 16.35 17.6 6.25 L18.5 3.0 18.85 -0.65 19.85 9.6 18.85 22.6 12.35 40.35 11.25 42.0 12.85 42.1 17.25 45.1 11.1 42.25 -0.25 41.35 -10.15 40.0 -10.5 40.0 -11.5 39.85 -11.9 39.85 -12.65 39.75 -18.65 22.35 -19.0 22.1 -19.5 14.0 -19.25 12.85 -19.9 10.5 -20.75 -6.25 -19.9 -6.15 -19.9 -2.15 -19.25 2.6 -18.0 6.85 -17.9 7.1 -17.4 8.75 -16.4 10.5 Q-8.15 23.0 0.85 20.25 L3.25 20.0 M13.5 50.75 Q15.75 46.75 16.6 46.75 L14.6 50.25 6.6 55.55 13.5 50.75 M-25.4 7.85 L-27.15 27.35 -27.15 28.25 -28.4 39.1 -31.0 39.1 -28.25 4.6 -28.4 -1.4 -25.4 3.1 -25.4 7.85" fill="#000000" fill-opacity="0.49803922" fill-rule="evenodd" stroke="none"/>
  </g>
</svg>
