<?xml version="1.0" encoding="UTF-8" standalone="no"?>
<svg xmlns:ffdec="https://www.free-decompiler.com/flash" xmlns:xlink="http://www.w3.org/1999/xlink" ffdec:objectType="shape" height="163.3px" width="163.35px" xmlns="http://www.w3.org/2000/svg">
  <g transform="matrix(1.0, 0.0, 0.0, 1.0, 73.4, 64.45)">
    <path d="M-12.75 -16.25 L-15.25 -20.25 -15.25 -25.0 -10.25 -27.0 -1.5 -26.75 -0.25 -26.25 0.0 -26.5 0.75 -26.75 6.75 -27.5 Q13.75 -26.5 14.25 -25.0 L14.25 -20.5 12.0 -16.75 Q9.5 -12.0 -0.25 -15.5 L-7.25 -13.75 Q-13.0 -14.5 -12.75 -16.25 M17.5 6.5 L22.0 16.75 23.75 23.5 29.75 34.75 Q32.75 39.5 38.75 43.75 L41.5 48.75 33.25 53.75 28.5 57.75 24.5 62.5 22.25 68.0 Q21.75 82.0 19.75 83.25 4.5 91.75 -21.75 81.75 -22.75 81.0 -21.75 74.75 L-22.75 69.5 -12.5 66.5 1.75 58.5 11.5 51.0 Q13.5 50.25 15.25 45.25 L10.0 42.5 -17.5 39.25 -29.0 39.0 -29.0 38.0 -28.25 33.75 -24.5 25.75 -22.25 17.5 -17.75 8.25 -17.5 8.25 Q-8.25 24.0 1.0 20.25 L2.5 20.25 3.25 20.0 Q14.0 18.25 17.5 6.5 M-3.5 -19.0 L-4.75 -19.75 -6.75 -20.5 -8.0 -20.0 -9.0 -18.75 -9.5 -17.5 -7.75 -15.75 -4.5 -15.75 -3.5 -17.25 -3.5 -19.0 M5.75 -20.5 L5.25 -20.25 4.5 -20.0 4.0 -19.75 3.75 -19.5 Q1.75 -19.25 3.75 -15.75 L7.0 -15.75 Q8.75 -17.5 8.25 -19.5 L7.0 -20.0 6.75 -20.0 5.75 -20.5" fill="#ffffff" fill-rule="evenodd" stroke="none"/>
    <path d="M5.75 -20.5 L6.75 -20.0 7.0 -20.0 8.25 -19.5 Q8.75 -17.5 7.0 -15.75 L3.75 -15.75 Q1.75 -19.25 3.75 -19.5 L4.0 -19.75 4.5 -20.0 5.25 -20.25 5.75 -20.5 M-3.5 -19.0 L-3.5 -17.25 -4.5 -15.75 -7.75 -15.75 -9.5 -17.5 -9.0 -18.75 -8.0 -20.0 -6.75 -20.5 -4.75 -19.75 -3.5 -19.0" fill="#000000" fill-rule="evenodd" stroke="none"/>
    <path d="M12.0 -16.75 Q14.0 -16.05 15.5 -14.5 L18.5 -10.25 19.25 -2.5 17.5 6.5 Q14.0 18.25 3.25 20.0 L2.5 20.25 1.0 20.25 Q-8.25 24.0 -17.5 8.25 L-17.75 8.25 Q-24.75 -12.0 -12.75 -16.25 -13.0 -14.5 -7.25 -13.75 L-0.25 -15.5 Q9.5 -12.0 12.0 -16.75 M41.5 48.75 L51.75 43.25 61.0 40.75 60.75 41.25 60.25 41.75 59.75 42.75 59.75 43.0 59.25 43.5 59.25 43.75 59.0 44.0 57.25 47.0 56.75 47.5 56.5 48.25 56.5 48.5 55.25 50.5 55.0 51.0 54.75 51.25 54.25 52.0 48.0 64.0 Q46.25 64.25 47.25 70.25 L53.0 70.5 61.5 67.75 54.75 76.0 40.0 91.5 Q34.4 95.15 28.75 98.75 L26.75 98.75 21.0 92.0 19.75 88.0 19.75 83.25 Q21.75 82.0 22.25 68.0 L24.5 62.5 28.5 57.75 33.25 53.75 41.5 48.75 M-21.75 81.75 L-21.75 84.75 -25.25 93.25 -31.0 98.25 -44.5 89.0 -50.25 82.25 -51.0 81.5 -51.0 81.25 -52.5 79.75 -53.25 78.75 -58.5 73.0 -71.0 56.25 -71.0 56.0 -71.75 55.25 -73.25 53.25 -73.25 50.25 -69.75 44.75 Q-65.5 40.25 -63.25 40.75 L-58.25 41.0 -50.25 44.25 -49.75 54.75 -47.0 61.25 -44.5 61.75 Q-39.0 74.75 -22.75 69.5 L-21.75 74.75 Q-22.75 81.0 -21.75 81.75" fill="#e58508" fill-rule="evenodd" stroke="none"/>
    <path d="M-63.9 21.5 Q-61.0 -1.75 -47.15 -21.15 -20.0 -58.75 -6.5 -62.9 3.1 -67.4 13.1 -58.65 L19.6 -53.25 28.35 -44.4 34.0 -37.5 46.35 -21.0 49.35 -18.5 59.5 -7.25 71.85 8.0 85.1 26.0 Q88.85 31.1 88.35 32.25 96.75 54.25 61.6 67.6 L60.5 68.0 60.35 68.0 52.5 70.6 48.0 70.25 47.25 70.1 47.35 68.75 48.1 67.25 48.75 63.75 62.1 40.6 62.0 40.25 63.0 39.25 69.75 28.75 70.6 28.0 73.0 27.85 76.5 29.0 68.85 20.6 68.25 19.5 55.1 5.35 40.75 -11.4 Q38.25 0.25 49.75 10.1 L62.85 23.6 61.75 30.6 Q59.0 37.6 53.6 42.5 L56.75 41.35 60.85 40.75 59.1 43.5 Q36.85 53.0 27.1 63.85 L26.6 61.5 27.75 58.75 26.6 59.75 Q20.5 66.25 21.35 77.6 -1.15 85.25 -22.15 77.25 L-22.15 74.1 -23.0 69.35 -25.15 70.0 -28.0 70.5 -37.9 69.5 -43.4 64.25 -43.9 63.25 -44.15 63.0 -44.65 61.75 -44.75 61.75 -44.9 61.35 -43.75 59.75 -46.4 60.25 -48.0 60.35 -49.5 57.6 -50.4 53.6 -50.25 52.25 -50.4 47.85 Q-64.55 40.65 -66.95 42.25 L-65.4 41.1 -63.15 40.85 -60.65 40.75 -53.75 42.85 -55.15 41.75 -60.4 35.1 -63.25 28.5 -63.9 21.5 M-25.75 7.35 L-25.9 3.0 -28.75 -1.5 -28.9 5.1 -32.15 39.1 -29.4 39.25 -25.75 7.35 M2.25 57.5 L12.0 50.85 Q12.85 50.6 15.1 45.85 L11.25 51.1 2.85 56.75 2.25 57.5 M9.1 42.5 L15.1 45.25 10.85 42.35 11.85 41.1 18.75 22.75 19.85 9.6 18.85 -0.65 18.5 3.0 17.6 6.25 Q15.5 16.35 3.25 20.0 L0.85 20.25 Q-8.15 23.0 -16.4 10.5 L-17.4 8.75 -17.9 7.1 -18.0 6.85 -19.25 2.6 -19.9 -2.15 -19.9 -6.15 -20.75 -6.25 -19.9 10.5 -19.25 12.85 -19.5 14.0 -19.0 22.1 -18.65 22.35 -12.25 40.1 -12.15 40.1 -11.4 40.25 -11.0 40.25 -10.15 40.35 -10.0 40.35 9.1 42.5" fill="#cecece" fill-opacity="0.0" fill-rule="evenodd" stroke="none"/>
    <path d="M-63.9 21.5 L-63.25 28.5 -60.4 35.1 -55.15 41.75 -53.75 42.85 -60.65 40.75 -63.15 40.85 -64.4 29.1 -63.9 21.5 M-66.95 42.25 Q-64.55 40.65 -50.4 47.85 L-50.25 52.25 -50.4 53.6 -49.5 57.6 -48.0 60.35 -46.4 60.25 -43.75 59.75 -44.9 61.35 -44.75 61.75 -44.65 61.75 -44.15 63.0 -43.9 63.25 -43.4 64.25 -37.9 69.5 -28.0 70.5 -25.15 70.0 -23.0 69.35 -22.15 74.1 -22.15 77.25 Q-1.15 85.25 21.35 77.6 20.5 66.25 26.6 59.75 L27.75 58.75 26.6 61.5 27.1 63.85 Q36.85 53.0 59.1 43.5 L60.85 40.75 56.75 41.35 53.6 42.5 Q59.0 37.6 61.75 30.6 L62.85 23.6 49.75 10.1 Q38.25 0.25 40.75 -11.4 L55.1 5.35 68.25 19.5 68.85 20.6 76.5 29.0 73.0 27.85 70.6 28.0 69.75 28.75 63.0 39.25 62.0 40.25 62.1 40.6 48.75 63.75 48.1 67.25 47.35 68.75 47.25 70.1 48.0 70.25 52.5 70.6 60.35 68.0 60.5 68.0 61.6 67.6 47.6 83.35 40.1 91.0 34.1 95.5 28.6 98.6 27.35 98.85 26.75 98.35 23.1 94.6 21.1 91.85 19.85 87.85 19.75 83.1 17.5 84.1 -0.15 87.25 -17.75 84.1 -20.9 82.6 -21.0 88.6 -21.9 90.5 -22.0 91.0 -22.15 91.35 -22.25 91.5 -22.75 92.85 -24.65 95.0 -25.0 95.5 -28.4 98.85 -29.9 98.35 -35.25 95.25 -41.4 90.75 -57.9 73.25 -67.25 61.85 -70.75 56.85 -73.15 52.5 -73.4 50.85 -69.9 45.1 -66.95 42.25 M63.35 24.0 L63.1 23.85 63.5 28.75 62.6 35.1 62.6 38.0 63.1 37.75 68.85 29.25 63.35 24.0 M9.1 42.5 L-10.0 40.35 -10.15 40.35 -11.0 40.25 -11.4 40.25 -12.15 40.1 -12.25 40.1 -18.65 22.35 -19.0 22.1 -19.5 14.0 -19.25 12.85 -19.9 10.5 -20.75 -6.25 -19.9 -6.15 -19.9 -2.15 -19.25 2.6 -18.0 6.85 -17.9 7.1 -17.4 8.75 -16.4 10.5 Q-8.15 23.0 0.85 20.25 L3.25 20.0 Q15.5 16.35 17.6 6.25 L18.5 3.0 18.85 -0.65 19.85 9.6 18.75 22.75 11.85 41.1 10.85 42.35 15.1 45.25 9.1 42.5 M2.25 57.5 L2.85 56.75 11.25 51.1 15.1 45.85 Q12.85 50.6 12.0 50.85 L2.25 57.5 M-25.75 7.35 L-29.4 39.25 -32.15 39.1 -28.9 5.1 -28.75 -1.5 -25.9 3.0 -25.75 7.35" fill="#000000" fill-opacity="0.49803922" fill-rule="evenodd" stroke="none"/>
  </g>
</svg>
