<?xml version="1.0" encoding="UTF-8" standalone="no"?>
<svg xmlns:ffdec="https://www.free-decompiler.com/flash" xmlns:xlink="http://www.w3.org/1999/xlink" ffdec:objectType="shape" height="163.45px" width="163.15px" xmlns="http://www.w3.org/2000/svg">
  <g transform="matrix(1.0, 0.0, 0.0, 1.0, 73.4, 64.45)">
    <path d="M-12.75 -16.25 L-15.25 -20.25 -15.25 -25.0 -10.25 -27.0 -1.5 -26.75 -0.25 -26.25 0.0 -26.5 0.75 -26.75 6.75 -27.5 Q13.75 -26.5 14.25 -25.0 L14.25 -20.5 12.0 -16.75 Q9.5 -12.0 -0.25 -15.5 L-7.25 -13.75 Q-13.0 -14.5 -12.75 -16.25 M17.5 6.5 L22.0 16.75 23.75 23.5 29.75 34.75 Q32.75 39.5 38.75 43.75 L41.5 48.75 33.25 53.75 28.5 57.75 24.5 62.5 22.25 68.0 Q21.75 82.0 19.75 83.25 4.5 91.75 -21.75 81.75 L-22.25 70.25 -23.0 67.5 -21.5 67.25 -6.25 58.25 1.75 51.5 Q10.25 44.75 0.75 42.75 L-26.25 39.25 -31.0 39.25 -25.5 28.5 -22.25 17.5 -17.75 8.25 -17.5 8.25 Q-8.25 24.0 1.0 20.25 L2.5 20.25 3.25 20.0 Q14.0 18.25 17.5 6.5 M-3.5 -19.0 L-4.75 -19.75 -6.75 -20.5 -8.0 -20.0 -9.0 -18.75 -9.5 -17.5 -7.75 -15.75 -4.5 -15.75 -3.5 -17.25 -3.5 -19.0 M5.75 -20.5 L5.25 -20.25 4.5 -20.0 4.0 -19.75 3.75 -19.5 Q1.75 -19.25 3.75 -15.75 L7.0 -15.75 Q8.75 -17.5 8.25 -19.5 L7.0 -20.0 6.75 -20.0 5.75 -20.5" fill="#ffffff" fill-rule="evenodd" stroke="none"/>
    <path d="M5.75 -20.5 L6.75 -20.0 7.0 -20.0 8.25 -19.5 Q8.75 -17.5 7.0 -15.75 L3.75 -15.75 Q1.75 -19.25 3.75 -19.5 L4.0 -19.75 4.5 -20.0 5.25 -20.25 5.75 -20.5 M-3.5 -19.0 L-3.5 -17.25 -4.5 -15.75 -7.75 -15.75 -9.5 -17.5 -9.0 -18.75 -8.0 -20.0 -6.75 -20.5 -4.75 -19.75 -3.5 -19.0" fill="#000000" fill-rule="evenodd" stroke="none"/>
    <path d="M12.0 -16.75 Q14.0 -16.05 15.5 -14.5 L18.5 -10.25 19.25 -2.5 17.5 6.5 Q14.0 18.25 3.25 20.0 L2.5 20.25 1.0 20.25 Q-8.25 24.0 -17.5 8.25 L-17.75 8.25 Q-24.75 -12.0 -12.75 -16.25 -13.0 -14.5 -7.25 -13.75 L-0.25 -15.5 Q9.5 -12.0 12.0 -16.75 M41.5 48.75 L54.0 42.5 44.0 55.25 Q42.25 57.0 42.5 60.75 L48.25 62.25 57.25 61.75 68.0 59.5 63.25 66.0 47.25 84.25 38.25 92.75 30.75 97.75 27.0 99.0 22.5 94.25 20.0 89.25 19.75 83.25 Q21.75 82.0 22.25 68.0 L24.5 62.5 28.5 57.75 33.25 53.75 41.5 48.75 M-21.75 81.75 L-21.75 84.75 -25.25 93.25 -31.0 98.25 -44.5 89.0 -50.25 82.25 -51.0 81.5 -51.0 81.25 -52.5 79.75 -53.25 78.75 -58.5 73.0 -71.0 56.25 -71.0 56.0 -71.75 55.25 -73.25 53.25 -73.25 50.25 -69.75 44.75 Q-65.5 40.25 -63.25 40.75 L-59.75 40.75 -55.25 42.25 -55.0 54.25 -53.0 60.5 -51.0 61.0 -50.5 62.5 -46.75 67.75 Q-46.25 70.5 -36.25 71.0 L-23.0 67.5 -22.25 70.25 -21.75 81.75" fill="#e58508" fill-rule="evenodd" stroke="none"/>
    <path d="M-63.9 21.5 Q-61.0 -1.75 -47.15 -21.15 -20.0 -58.75 -6.5 -62.9 3.1 -67.4 13.1 -58.65 L19.6 -53.25 28.35 -44.4 34.0 -37.5 46.35 -21.0 49.35 -18.5 58.25 -8.65 72.5 8.75 85.1 26.0 Q89.1 31.6 88.5 32.85 89.35 33.85 89.75 37.6 L89.0 45.6 82.75 52.75 71.5 58.6 67.85 59.5 63.5 60.5 57.5 61.1 56.1 61.35 53.0 61.6 52.6 61.75 51.85 61.75 51.35 61.85 50.85 61.85 50.1 62.0 49.75 62.0 48.85 62.1 48.6 62.1 43.25 60.85 42.5 60.6 42.85 59.35 43.6 58.25 44.6 55.0 51.0 47.6 60.1 35.85 68.6 27.1 Q70.6 25.1 75.1 27.35 L55.1 5.35 40.75 -11.4 Q38.25 0.25 49.75 10.1 L62.85 23.6 61.75 30.6 Q59.0 37.6 53.6 42.5 L54.1 42.5 53.1 43.75 53.0 44.0 50.35 47.35 50.1 47.6 44.0 50.85 36.0 56.0 28.75 62.0 27.1 63.85 26.6 61.5 27.75 58.75 26.6 59.75 Q20.5 66.25 21.35 77.6 -1.15 85.25 -22.15 77.25 L-22.15 74.35 -23.5 67.35 -33.25 70.25 -35.25 70.5 -44.65 69.35 -44.75 69.35 -47.25 66.75 -47.4 66.5 -49.75 63.75 -51.15 60.85 -51.25 60.35 -50.15 59.35 -53.15 59.6 -53.9 59.35 -55.15 57.25 -55.65 54.35 -55.5 45.25 -62.9 42.5 -64.9 42.1 -67.0 42.25 -65.4 41.1 -63.15 40.85 -60.9 40.75 -55.25 42.25 -55.25 41.35 -60.4 35.1 -63.25 28.5 -63.9 21.5 M-28.15 7.0 L-28.15 2.35 -30.75 -2.4 -31.9 7.85 -37.4 39.0 -34.15 39.1 -28.15 7.0 M3.25 20.0 L0.85 20.25 Q-8.15 23.0 -16.4 10.5 L-17.4 8.75 -17.9 7.1 -18.0 6.85 -19.25 2.6 -19.9 -2.15 -19.9 -6.15 -20.75 -6.25 -19.9 10.5 -19.25 12.85 -19.5 14.0 -19.0 22.1 -18.65 22.35 -12.0 41.0 -11.5 41.35 -12.15 41.35 -8.75 41.85 -8.65 41.85 -7.75 42.0 -7.5 42.0 0.35 43.0 5.5 45.85 5.5 46.25 1.85 51.35 -13.75 62.5 -12.4 62.0 3.1 51.0 5.35 46.6 7.25 46.25 11.85 41.1 19.0 22.25 19.85 9.6 18.85 -0.65 18.5 3.0 17.6 6.25 Q15.5 16.35 3.25 20.0" fill="#cecece" fill-opacity="0.0" fill-rule="evenodd" stroke="none"/>
    <path d="M-63.9 21.5 L-63.25 28.5 -60.4 35.1 -55.25 41.35 -55.25 42.25 -60.9 40.75 -63.15 40.85 -64.4 29.1 -63.9 21.5 M-67.0 42.25 L-64.9 42.1 -62.9 42.5 -55.5 45.25 -55.65 54.35 -55.15 57.25 -53.9 59.35 -53.15 59.6 -50.15 59.35 -51.25 60.35 -51.15 60.85 -49.75 63.75 -47.4 66.5 -47.25 66.75 -44.75 69.35 -44.65 69.35 -35.25 70.5 -33.25 70.25 -23.5 67.35 -22.15 74.35 -22.15 77.25 Q-1.15 85.25 21.35 77.6 20.5 66.25 26.6 59.75 L27.75 58.75 26.6 61.5 27.1 63.85 28.75 62.0 36.0 56.0 44.0 50.85 50.1 47.6 50.35 47.35 53.0 44.0 53.1 43.75 54.1 42.5 53.6 42.5 Q59.0 37.6 61.75 30.6 L62.85 23.6 49.75 10.1 Q38.25 0.25 40.75 -11.4 L55.1 5.35 75.1 27.35 Q70.6 25.1 68.6 27.1 L60.1 35.85 51.0 47.6 44.6 55.0 43.6 58.25 42.85 59.35 42.5 60.6 43.25 60.85 48.6 62.1 48.85 62.1 49.75 62.0 50.1 62.0 50.85 61.85 51.35 61.85 51.85 61.75 52.6 61.75 53.0 61.6 56.1 61.35 57.5 61.1 63.5 60.5 67.85 59.5 57.0 73.1 40.1 91.0 34.1 95.5 28.6 98.6 27.35 98.85 26.75 98.35 23.1 94.6 21.1 91.85 19.85 87.85 19.75 83.1 17.5 84.1 -0.15 87.25 -17.75 84.1 -20.9 82.6 -21.0 88.6 -21.9 90.5 -22.0 91.0 -22.15 91.35 -22.25 91.5 -22.75 92.85 -24.65 95.0 -25.0 95.5 -28.4 98.85 -29.9 98.35 -35.25 95.25 -41.4 90.75 -57.9 73.25 -67.25 61.85 -70.75 56.85 -73.15 52.5 -73.4 50.85 -69.9 45.1 -67.0 42.25 M63.35 24.0 L63.1 23.85 63.5 28.75 63.0 32.5 67.5 27.85 63.35 24.0 M3.25 20.0 Q15.5 16.35 17.6 6.25 L18.5 3.0 18.85 -0.65 19.85 9.6 19.0 22.25 11.85 41.1 7.25 46.25 5.35 46.6 3.1 51.0 -12.4 62.0 -13.75 62.5 1.85 51.35 5.5 46.25 5.5 45.85 0.35 43.0 -7.5 42.0 -7.75 42.0 -8.65 41.85 -8.75 41.85 -12.15 41.35 -11.5 41.35 -12.0 41.0 -18.65 22.35 -19.0 22.1 -19.5 14.0 -19.25 12.85 -19.9 10.5 -20.75 -6.25 -19.9 -6.15 -19.9 -2.15 -19.25 2.6 -18.0 6.85 -17.9 7.1 -17.4 8.75 -16.4 10.5 Q-8.15 23.0 0.85 20.25 L3.25 20.0 M-28.15 7.0 L-34.15 39.1 -37.4 39.0 -31.9 7.85 -30.75 -2.4 -28.15 2.35 -28.15 7.0" fill="#000000" fill-opacity="0.49803922" fill-rule="evenodd" stroke="none"/>
  </g>
</svg>
