<?xml version="1.0" encoding="UTF-8" standalone="no"?>
<svg xmlns:ffdec="https://www.free-decompiler.com/flash" xmlns:xlink="http://www.w3.org/1999/xlink" ffdec:objectType="shape" height="139.65px" width="142.45px" xmlns="http://www.w3.org/2000/svg">
  <g transform="matrix(1.0, 0.0, 0.0, 1.0, -82.5, 180.75)">
    <path d="M120.35 -123.55 L121.45 -124.55 125.9 -128.55 Q145.95 -146.05 169.9 -158.85 194.7 -172.15 221.15 -180.4 226.65 -182.0 224.2 -176.05 204.5 -127.35 170.0 -87.15 L167.9 -84.75 Q164.05 -80.35 160.0 -77.0 150.65 -69.35 140.5 -67.6 L139.4 -67.4 Q130.4 -59.45 120.05 -53.5 110.15 -47.85 99.0 -44.05 L97.0 -43.4 89.0 -41.1 89.0 -53.5 82.5 -53.5 82.5 -93.25 89.0 -95.0 94.45 -96.5 95.45 -96.7 Q96.05 -98.05 97.0 -99.4 L99.0 -101.95 99.85 -102.85 104.0 -106.75 Q111.8 -115.6 120.35 -123.55" fill="#2e47aa" fill-rule="evenodd" stroke="none"/>
  </g>
</svg>
