<?xml version="1.0" encoding="UTF-8" standalone="no"?>
<svg xmlns:ffdec="https://www.free-decompiler.com/flash" xmlns:xlink="http://www.w3.org/1999/xlink" ffdec:objectType="shape" height="163.45px" width="163.2px" xmlns="http://www.w3.org/2000/svg">
  <g transform="matrix(1.0, 0.0, 0.0, 1.0, 73.4, 64.45)">
    <path d="M-12.75 -16.25 L-15.25 -20.25 -15.25 -25.0 -10.25 -27.0 -1.5 -26.75 -0.25 -26.25 0.0 -26.5 0.75 -26.75 6.75 -27.5 Q13.75 -26.5 14.25 -25.0 L14.25 -20.5 12.0 -16.75 Q9.5 -12.0 -0.25 -15.5 L-7.25 -13.75 Q-13.0 -14.5 -12.75 -16.25 M17.5 6.5 L22.0 16.75 23.75 23.5 29.75 34.75 Q32.75 39.5 38.75 43.75 L41.5 48.75 33.25 53.75 28.5 57.75 24.5 62.5 22.25 68.0 Q21.75 82.0 19.75 83.25 4.5 91.75 -21.75 81.75 L-22.25 70.5 -25.0 62.75 -16.5 57.5 -9.0 50.75 Q-1.25 43.75 -9.5 42.25 L-30.75 38.75 -25.5 28.5 -22.25 17.5 -17.75 8.25 -17.5 8.25 Q-8.25 24.0 1.0 20.25 L2.5 20.25 3.25 20.0 Q14.0 18.25 17.5 6.5 M-3.5 -19.0 L-4.75 -19.75 -6.75 -20.5 -8.0 -20.0 -9.0 -18.75 -9.5 -17.5 -7.75 -15.75 -4.5 -15.75 -3.5 -17.25 -3.5 -19.0 M5.75 -20.5 L5.25 -20.25 4.5 -20.0 4.0 -19.75 3.75 -19.5 Q1.75 -19.25 3.75 -15.75 L7.0 -15.75 Q8.75 -17.5 8.25 -19.5 L7.0 -20.0 6.75 -20.0 5.75 -20.5" fill="#ffffff" fill-rule="evenodd" stroke="none"/>
    <path d="M5.75 -20.5 L6.75 -20.0 7.0 -20.0 8.25 -19.5 Q8.75 -17.5 7.0 -15.75 L3.75 -15.75 Q1.75 -19.25 3.75 -19.5 L4.0 -19.75 4.5 -20.0 5.25 -20.25 5.75 -20.5 M-3.5 -19.0 L-3.5 -17.25 -4.5 -15.75 -7.75 -15.75 -9.5 -17.5 -9.0 -18.75 -8.0 -20.0 -6.75 -20.5 -4.75 -19.75 -3.5 -19.0" fill="#000000" fill-rule="evenodd" stroke="none"/>
    <path d="M12.0 -16.75 Q14.0 -16.05 15.5 -14.5 L18.5 -10.25 19.25 -2.5 17.5 6.5 Q14.0 18.25 3.25 20.0 L2.5 20.25 1.0 20.25 Q-8.25 24.0 -17.5 8.25 L-17.75 8.25 Q-24.75 -12.0 -12.75 -16.25 -13.0 -14.5 -7.25 -13.75 L-0.25 -15.5 Q9.5 -12.0 12.0 -16.75 M41.5 48.75 L46.5 45.75 56.5 41.75 55.25 43.5 54.75 44.0 53.25 46.0 52.75 46.5 45.0 57.75 Q43.5 58.25 44.0 63.5 L49.25 64.75 58.25 63.5 66.75 61.25 58.5 71.75 47.0 84.5 38.25 92.75 30.75 97.75 27.0 99.0 22.5 94.25 20.0 89.25 19.75 83.25 Q21.75 82.0 22.25 68.0 L24.5 62.5 28.5 57.75 33.25 53.75 41.5 48.75 M-21.75 81.75 L-21.75 84.75 -25.25 93.25 -31.0 98.25 -44.5 89.0 -50.25 82.25 -51.0 81.5 -51.0 81.25 -52.5 79.75 -53.25 78.75 -58.5 73.0 -71.0 56.25 -71.0 56.0 -71.75 55.25 -73.25 53.25 -73.25 50.25 -69.75 44.75 Q-65.5 40.25 -63.25 40.75 L-60.0 40.75 -61.0 47.5 -61.0 48.25 -61.25 49.0 -61.25 50.75 -60.75 53.5 -60.75 54.25 -60.5 55.0 -59.75 59.0 -58.0 59.5 -57.75 60.5 Q-50.75 78.75 -25.0 62.75 L-22.25 70.5 -21.75 81.75" fill="#e58508" fill-rule="evenodd" stroke="none"/>
    <path d="M-63.9 21.5 Q-61.0 -1.75 -47.15 -21.15 -20.0 -58.75 -6.5 -62.9 3.1 -67.4 13.1 -58.65 L19.6 -53.25 28.35 -44.4 34.0 -37.5 46.35 -21.0 49.35 -18.5 58.25 -8.65 72.5 8.75 85.1 26.0 Q89.0 31.25 88.35 32.5 L88.5 32.75 Q90.6 35.0 89.25 45.5 L83.1 53.1 72.75 59.35 66.6 61.35 49.25 64.5 43.75 63.25 43.75 62.6 44.75 60.85 45.75 57.35 53.6 47.1 60.6 37.1 62.35 35.5 69.6 26.85 72.25 26.75 75.5 27.85 68.85 20.6 68.25 19.5 55.1 5.5 54.6 4.5 44.1 -7.15 40.75 -11.4 Q38.25 0.25 49.75 10.1 L62.85 23.6 61.75 30.6 Q59.0 37.6 53.6 42.5 L56.5 41.6 56.6 41.6 55.85 42.5 55.75 42.75 53.35 46.0 45.85 49.75 36.0 56.0 28.75 62.0 27.1 63.85 26.6 61.5 27.75 58.75 26.6 59.75 Q20.5 66.25 21.35 77.6 -1.15 85.25 -22.15 77.25 -22.5 66.35 -25.5 63.25 -6.1 51.05 -5.9 46.7 -8.7 52.0 -31.0 65.85 L-41.25 69.25 -43.25 69.75 -49.65 69.1 -50.5 69.1 -51.25 68.85 -51.4 68.85 -52.0 68.6 -52.15 68.6 -52.65 68.35 -53.9 66.6 -54.25 66.25 -56.75 62.85 -58.25 59.35 -58.25 59.0 -57.25 58.35 -60.5 58.0 -61.65 55.6 -61.65 49.5 -60.65 43.25 -65.15 42.1 -67.0 42.25 -65.4 41.1 -63.15 40.85 -60.4 40.85 -59.5 36.1 -59.75 35.6 -60.25 35.25 -63.25 28.5 -63.9 21.5 M0.85 20.25 Q-8.15 23.0 -16.4 10.5 L-17.4 8.75 -17.9 7.1 -18.0 6.85 -19.25 2.6 -19.9 -2.15 -19.9 -6.15 -20.75 -6.25 -19.9 10.5 -19.25 12.85 -19.5 14.0 -19.0 22.1 -18.65 22.35 -12.0 41.1 -11.15 41.85 -11.75 41.85 -10.9 42.0 -5.5 45.1 -5.5 45.5 -5.8 46.55 Q-0.35 49.0 7.0 46.35 L12.1 41.0 19.0 22.25 19.85 9.6 18.85 -0.65 18.5 3.0 17.6 6.25 Q15.5 16.35 3.25 20.0 L0.85 20.25 M-31.25 9.25 L-30.75 6.1 -30.65 1.0 -32.9 -3.75 -35.25 8.25 -43.25 38.25 -39.5 38.35 -31.25 9.25" fill="#cecece" fill-opacity="0.0" fill-rule="evenodd" stroke="none"/>
    <path d="M-63.9 21.5 L-63.25 28.5 -60.25 35.25 -59.75 35.6 -59.5 36.1 -60.4 40.85 -63.15 40.85 -64.4 29.1 -63.9 21.5 M-67.0 42.25 L-65.15 42.1 -60.65 43.25 -61.65 49.5 -61.65 55.6 -60.5 58.0 -57.25 58.35 -58.25 59.0 -58.25 59.35 -56.75 62.85 -54.25 66.25 -53.9 66.6 -52.65 68.35 -52.15 68.6 -52.0 68.6 -51.4 68.85 -51.25 68.85 -50.5 69.1 -49.65 69.1 -43.25 69.75 -41.25 69.25 -31.0 65.85 Q-8.7 52.0 -5.9 46.7 -6.1 51.05 -25.5 63.25 -22.5 66.35 -22.15 77.25 -1.15 85.25 21.35 77.6 20.5 66.25 26.6 59.75 L27.75 58.75 26.6 61.5 27.1 63.85 28.75 62.0 36.0 56.0 45.85 49.75 53.35 46.0 55.75 42.75 55.85 42.5 56.6 41.6 56.5 41.6 53.6 42.5 Q59.0 37.6 61.75 30.6 L62.85 23.6 49.75 10.1 Q38.25 0.25 40.75 -11.4 L44.1 -7.15 54.6 4.5 55.1 5.5 68.25 19.5 68.85 20.6 75.5 27.85 72.25 26.75 69.6 26.85 62.35 35.5 60.6 37.1 53.6 47.1 45.75 57.35 44.75 60.85 43.75 62.6 43.75 63.25 49.25 64.5 66.6 61.35 57.0 73.1 40.1 91.0 34.1 95.5 28.6 98.6 27.35 98.85 26.75 98.35 23.1 94.6 21.1 91.85 19.85 87.85 19.75 83.1 17.5 84.1 -0.15 87.25 -17.75 84.1 -20.9 82.6 -21.0 88.6 -21.9 90.5 -22.0 91.0 -22.15 91.35 -22.25 91.5 -22.75 92.85 -24.65 95.0 -25.0 95.5 -28.4 98.85 -29.9 98.35 -35.25 95.25 -41.4 90.75 -53.0 78.6 -62.75 67.5 -70.75 56.85 -73.15 52.5 -73.4 50.85 -69.9 45.1 -67.0 42.25 M63.35 24.0 L63.1 23.85 63.5 28.75 62.85 33.85 64.1 32.85 67.85 28.35 67.85 28.25 63.35 24.0 M0.85 20.25 L3.25 20.0 Q15.5 16.35 17.6 6.25 L18.5 3.0 18.85 -0.65 19.85 9.6 19.0 22.25 12.1 41.0 7.0 46.35 Q-0.35 49.0 -5.8 46.55 L-5.5 45.5 -5.5 45.1 -10.9 42.0 -11.75 41.85 -11.15 41.85 -12.0 41.1 -18.65 22.35 -19.0 22.1 -19.5 14.0 -19.25 12.85 -19.9 10.5 -20.75 -6.25 -19.9 -6.15 -19.9 -2.15 -19.25 2.6 -18.0 6.85 -17.9 7.1 -17.4 8.75 -16.4 10.5 Q-8.15 23.0 0.85 20.25 M-31.25 9.25 L-39.5 38.35 -43.25 38.25 -35.25 8.25 -32.9 -3.75 -30.65 1.0 -30.75 6.1 -31.25 9.25" fill="#000000" fill-opacity="0.49803922" fill-rule="evenodd" stroke="none"/>
  </g>
</svg>
