<?xml version="1.0" encoding="UTF-8" standalone="no"?>
<svg xmlns:ffdec="https://www.free-decompiler.com/flash" xmlns:xlink="http://www.w3.org/1999/xlink" ffdec:objectType="shape" height="163.45px" width="163.4px" xmlns="http://www.w3.org/2000/svg">
  <g transform="matrix(1.0, 0.0, 0.0, 1.0, 73.65, 64.45)">
    <path d="M-12.75 -16.25 L-15.25 -20.25 -15.25 -25.0 -10.25 -27.0 -1.5 -26.75 -0.25 -26.25 0.0 -26.5 0.75 -26.75 6.75 -27.5 Q13.75 -26.5 14.25 -25.0 L14.25 -20.5 12.0 -16.75 Q9.5 -12.0 -0.25 -15.5 L-7.25 -13.75 Q-13.0 -14.5 -12.75 -16.25 M17.5 6.5 L22.0 16.75 23.75 23.5 29.75 34.75 Q32.75 39.5 38.75 43.75 L41.5 48.75 33.25 53.75 28.5 57.75 24.5 62.5 22.25 68.0 Q21.75 82.0 19.75 83.25 4.5 91.75 -21.75 81.75 -20.25 64.25 -30.0 57.5 L-19.0 48.25 Q-13.5 42.25 -20.25 40.0 L-30.25 38.5 -25.5 28.5 -22.25 17.5 -17.75 8.25 -17.5 8.25 Q-8.25 24.0 1.0 20.25 L2.5 20.25 3.25 20.0 Q14.0 18.25 17.5 6.5 M-3.5 -19.0 L-4.75 -19.75 -6.75 -20.5 -8.0 -20.0 -9.0 -18.75 -9.5 -17.5 -7.75 -15.75 -4.5 -15.75 -3.5 -17.25 -3.5 -19.0 M5.75 -20.5 L5.25 -20.25 4.5 -20.0 4.0 -19.75 3.75 -19.5 Q1.75 -19.25 3.75 -15.75 L7.0 -15.75 Q8.75 -17.5 8.25 -19.5 L7.0 -20.0 6.75 -20.0 5.75 -20.5" fill="#ffffff" fill-rule="evenodd" stroke="none"/>
    <path d="M5.75 -20.5 L6.75 -20.0 7.0 -20.0 8.25 -19.5 Q8.75 -17.5 7.0 -15.75 L3.75 -15.75 Q1.75 -19.25 3.75 -19.5 L4.0 -19.75 4.5 -20.0 5.25 -20.25 5.75 -20.5 M-3.5 -19.0 L-3.5 -17.25 -4.5 -15.75 -7.75 -15.75 -9.5 -17.5 -9.0 -18.75 -8.0 -20.0 -6.75 -20.5 -4.75 -19.75 -3.5 -19.0" fill="#000000" fill-rule="evenodd" stroke="none"/>
    <path d="M12.0 -16.75 Q14.0 -16.05 15.5 -14.5 L18.5 -10.25 19.25 -2.5 17.5 6.5 Q14.0 18.25 3.25 20.0 L2.5 20.25 1.0 20.25 Q-8.25 24.0 -17.5 8.25 L-17.75 8.25 Q-24.75 -12.0 -12.75 -16.25 -13.0 -14.5 -7.25 -13.75 L-0.25 -15.5 Q9.5 -12.0 12.0 -16.75 M41.5 48.75 Q46.6 46.65 51.25 43.75 L43.5 53.5 Q40.5 58.25 42.5 59.25 L47.25 60.75 56.5 60.5 68.75 58.5 60.0 70.0 47.25 84.25 40.25 91.25 31.5 97.25 27.0 99.0 22.75 94.5 20.0 89.25 19.75 83.25 Q21.75 82.0 22.25 68.0 L24.5 62.5 28.5 57.75 33.25 53.75 41.5 48.75 M-21.75 81.75 L-21.75 84.75 -25.25 93.25 -31.0 98.25 -44.5 89.0 -50.25 82.25 -51.0 81.5 -51.0 81.25 -52.5 79.75 -53.25 78.75 -58.5 73.0 -71.0 56.25 -71.0 56.0 -71.75 55.25 Q-77.5 51.25 -66.0 41.75 L-67.25 48.75 -67.25 50.5 -67.0 51.5 -67.0 55.5 -66.5 56.5 -65.25 57.0 -65.25 57.25 -64.25 61.25 -62.75 64.0 -61.75 65.25 -61.5 65.75 -60.0 67.25 -59.5 67.5 -53.75 68.5 -49.25 67.75 -40.0 64.0 -30.0 57.5 Q-20.25 64.25 -21.75 81.75" fill="#e58508" fill-rule="evenodd" stroke="none"/>
    <path d="M-63.9 21.5 Q-61.0 -1.75 -47.15 -21.15 -20.0 -58.75 -6.5 -62.9 3.1 -67.4 13.1 -58.65 L19.6 -53.25 28.35 -44.4 34.0 -37.5 46.35 -21.0 49.35 -18.5 58.25 -8.65 72.5 8.75 86.0 27.35 Q89.0 31.25 88.5 33.0 89.35 33.85 89.75 38.1 L88.85 45.6 82.35 52.6 72.5 57.25 68.6 58.35 66.85 58.85 55.5 60.1 47.1 60.5 41.75 58.85 42.0 57.75 42.1 57.5 42.85 56.35 43.85 53.25 45.5 51.85 47.0 49.75 52.6 43.75 60.25 34.6 60.35 34.35 60.75 34.35 61.75 33.1 63.75 31.25 63.85 31.1 67.35 27.75 67.25 27.6 67.6 27.5 67.75 27.5 68.35 26.85 Q69.85 25.0 74.75 27.0 L68.85 20.6 68.25 19.5 55.1 5.5 54.6 4.5 44.1 -7.15 40.75 -11.4 Q38.25 0.25 49.75 10.1 L62.85 23.6 61.75 30.6 59.5 35.0 52.0 43.35 52.0 43.5 46.75 49.5 46.0 49.6 35.25 56.6 28.75 62.0 27.1 63.85 26.6 61.5 27.75 58.75 26.6 59.75 Q20.5 66.25 21.35 77.6 -1.15 85.25 -22.15 77.25 -21.75 65.5 -29.0 58.6 -26.9 61.35 -28.25 63.85 L-29.75 62.0 -32.5 59.6 -18.5 47.85 -16.75 43.25 -20.65 48.6 -35.5 60.6 -41.0 64.1 -41.15 64.1 -41.5 64.25 -41.9 64.35 -42.15 64.5 -42.25 64.6 -42.5 64.6 -42.75 64.75 -43.15 64.85 -43.5 65.0 -43.9 65.1 -44.0 65.1 -46.25 65.85 -46.4 66.0 -51.9 67.85 -52.15 68.0 -53.25 68.0 -53.9 67.85 -54.5 67.85 -55.15 67.75 -55.65 67.75 -56.4 67.6 -58.4 67.5 -60.25 66.75 -61.4 65.5 -64.25 60.75 -64.5 59.75 -64.65 59.6 -65.0 58.25 -65.0 58.1 -65.25 57.0 -65.4 57.0 -64.65 56.5 -67.25 55.75 -67.75 54.35 -68.15 52.35 -68.0 50.25 -66.4 42.25 -67.0 42.25 -66.25 41.85 -64.15 33.85 -64.15 32.5 -63.75 32.1 -63.15 28.5 -63.9 21.5 M-17.25 42.5 L-19.25 40.25 -20.65 40.1 -17.25 42.5 M-19.9 -2.15 L-19.9 -6.15 -20.75 -6.25 -19.9 10.5 -19.25 12.85 -19.5 14.0 -19.0 22.1 -18.65 22.35 -12.0 41.1 -11.5 41.25 -7.15 46.25 0.1 47.75 7.25 46.25 12.0 41.1 19.0 22.25 19.85 9.6 18.85 -0.65 18.5 3.0 17.6 6.25 Q15.5 16.35 3.25 20.0 L0.85 20.25 Q-8.15 23.0 -16.4 10.5 L-17.4 8.75 -17.9 7.1 -18.0 6.85 -19.25 2.6 -19.9 -2.15 M-32.75 -0.25 L-34.9 -5.25 -38.9 8.5 -49.0 36.5 -44.75 36.75 -34.25 9.0 -33.0 4.85 -32.75 -0.25" fill="#cecece" fill-opacity="0.0" fill-rule="evenodd" stroke="none"/>
    <path d="M68.6 58.35 L61.85 67.35 47.6 83.35 40.1 91.0 34.1 95.5 28.6 98.6 27.35 98.85 26.75 98.35 23.1 94.6 21.1 91.85 19.85 87.85 19.75 83.1 17.5 84.1 -0.15 87.25 -17.75 84.1 -20.9 82.6 -21.0 88.6 -21.9 90.5 -22.0 91.0 -22.15 91.35 -22.25 91.5 -22.75 92.85 -24.65 95.0 -25.0 95.5 -28.4 98.85 -29.9 98.35 -35.25 95.25 -41.4 90.75 -53.0 78.6 -62.75 67.5 -70.75 56.85 -73.15 52.5 -73.4 50.85 -69.9 45.1 -67.0 42.25 -66.4 42.25 -68.0 50.25 -68.15 52.35 -67.75 54.35 -67.25 55.75 -64.65 56.5 -65.4 57.0 -65.25 57.0 -65.0 58.1 -65.0 58.25 -64.65 59.6 -64.5 59.75 -64.25 60.75 -61.4 65.5 -60.25 66.75 -58.4 67.5 -56.4 67.6 -55.65 67.75 -55.15 67.75 -54.5 67.85 -53.9 67.85 -53.25 68.0 -52.15 68.0 -51.9 67.85 -46.4 66.0 -46.25 65.85 -44.0 65.1 -43.9 65.1 -43.5 65.0 -43.15 64.85 -42.75 64.75 -42.5 64.6 -42.25 64.6 -42.15 64.5 -41.9 64.35 -41.5 64.25 -41.15 64.1 -41.0 64.1 -35.5 60.6 -20.65 48.6 -16.75 43.25 -18.5 47.85 -32.5 59.6 -29.75 62.0 -28.25 63.85 Q-26.9 61.35 -29.0 58.6 -21.75 65.5 -22.15 77.25 -1.15 85.25 21.35 77.6 20.5 66.25 26.6 59.75 L27.75 58.75 26.6 61.5 27.1 63.85 28.75 62.0 35.25 56.6 46.0 49.6 46.75 49.5 52.0 43.5 52.0 43.35 59.5 35.0 61.75 30.6 62.85 23.6 49.75 10.1 Q38.25 0.25 40.75 -11.4 L44.1 -7.15 54.6 4.5 55.1 5.5 68.25 19.5 68.85 20.6 74.75 27.0 Q69.85 25.0 68.35 26.85 L67.75 27.5 67.6 27.5 67.25 27.6 63.35 24.0 63.1 23.85 63.5 27.1 63.1 31.5 63.75 31.25 61.75 33.1 60.75 34.35 60.35 34.35 60.25 34.6 52.6 43.75 47.0 49.75 45.5 51.85 43.85 53.25 42.85 56.35 42.1 57.5 42.0 57.75 41.75 58.85 47.1 60.5 55.5 60.1 66.85 58.85 68.6 58.35 M-64.15 32.5 L-64.4 26.25 -63.9 21.5 -63.15 28.5 -63.75 32.1 -64.15 32.5 M-32.75 -0.25 L-33.0 4.85 -34.25 9.0 -44.75 36.75 -49.0 36.5 -38.9 8.5 -34.9 -5.25 -32.75 -0.25 M-19.9 -2.15 L-19.25 2.6 -18.0 6.85 -17.9 7.1 -17.4 8.75 -16.4 10.5 Q-8.15 23.0 0.85 20.25 L3.25 20.0 Q15.5 16.35 17.6 6.25 L18.5 3.0 18.85 -0.65 19.85 9.6 19.0 22.25 12.0 41.1 7.25 46.25 0.1 47.75 -7.15 46.25 -11.5 41.25 -12.0 41.1 -18.65 22.35 -19.0 22.1 -19.5 14.0 -19.25 12.85 -19.9 10.5 -20.75 -6.25 -19.9 -6.15 -19.9 -2.15 M-17.25 42.5 L-20.65 40.1 -19.25 40.25 -17.25 42.5" fill="#000000" fill-opacity="0.49803922" fill-rule="evenodd" stroke="none"/>
  </g>
</svg>
