<?xml version="1.0" encoding="UTF-8" standalone="no"?>
<svg xmlns:ffdec="https://www.free-decompiler.com/flash" xmlns:xlink="http://www.w3.org/1999/xlink" ffdec:objectType="shape" height="168.4px" width="176.25px" xmlns="http://www.w3.org/2000/svg">
  <g transform="matrix(1.0, 0.0, 0.0, 1.0, 95.25, 6.0)">
    <path d="M74.8 87.5 Q79.15 95.85 81.0 106.0 78.05 121.25 74.9 123.25 51.6 154.9 12.6 160.9 L9.85 161.3 -6.55 162.4 Q-51.8 162.5 -85.25 128.75 L-85.45 128.55 -85.8 128.1 -86.05 127.8 -86.4 127.4 -93.9 115.65 -94.25 114.8 -94.55 114.1 -94.85 113.35 -95.0 113.0 -95.1 112.7 Q-95.4 111.85 -95.1 110.95 L-94.8 110.1 -94.45 109.25 -94.25 108.25 Q-94.25 105.6 -94.5 103.0 L-89.0 97.0 Q-88.65 95.1 -87.95 93.35 -71.4 52.35 -63.0 8.75 L-59.0 13.9 Q-53.3 21.1 -44.85 23.45 -4.7 35.1 7.25 -6.0 30.45 38.6 49.75 62.5 L50.3 62.8 50.5 62.9 50.8 63.1 Q66.9 72.4 74.8 87.5" fill="#ffffff" fill-rule="evenodd" stroke="none"/>
  </g>
</svg>
