<?xml version="1.0" encoding="UTF-8" standalone="no"?>
<svg xmlns:ffdec="https://www.free-decompiler.com/flash" xmlns:xlink="http://www.w3.org/1999/xlink" ffdec:objectType="shape" height="170.55px" width="174.95px" xmlns="http://www.w3.org/2000/svg">
  <g transform="matrix(1.0, 0.0, 0.0, 1.0, 99.0, 7.25)">
    <path d="M57.3 72.15 Q84.3 92.95 72.25 122.1 L69.75 123.75 Q63.15 131.85 55.25 138.6 35.35 155.75 9.8 160.85 L6.85 161.4 -6.6 163.05 Q-53.9 166.1 -88.25 129.75 L-98.5 115.25 -98.25 111.25 -98.2 109.65 -98.25 108.2 -98.3 107.1 -98.45 106.15 -98.7 105.55 -99.0 105.0 Q-96.9 102.1 -95.8 98.9 -81.15 57.0 -76.0 13.0 -68.1 24.85 -54.2 26.85 -17.15 32.05 -7.25 -7.25 14.1 36.0 50.05 66.3 L57.3 72.15" fill="#ffffff" fill-rule="evenodd" stroke="none"/>
  </g>
</svg>
