<?xml version="1.0" encoding="UTF-8" standalone="no"?>
<svg xmlns:ffdec="https://www.free-decompiler.com/flash" xmlns:xlink="http://www.w3.org/1999/xlink" ffdec:objectType="shape" height="156.5px" width="190.95px" xmlns="http://www.w3.org/2000/svg">
  <g transform="matrix(1.0, 0.0, 0.0, 1.0, 96.0, 74.25)">
    <path d="M43.25 -34.75 Q45.0 -35.25 54.5 -26.75 L69.0 -11.5 69.75 -10.5 70.25 -10.0 71.0 -9.0 71.5 -8.5 72.25 -7.5 73.0 -6.75 73.25 -6.25 74.25 -5.25 74.5 -4.75 75.5 -3.75 75.75 -3.0 78.0 -2.25 82.25 3.0 84.5 7.25 91.5 27.5 Q96.25 42.25 94.5 44.5 L94.25 45.5 93.25 45.5 91.25 45.0 86.75 39.75 81.25 32.25 71.25 16.0 63.0 10.5 Q69.75 40.0 47.5 57.5 L41.25 61.75 31.25 72.5 Q18.5 81.0 3.75 82.25 L-4.5 81.5 Q-30.0 77.5 -39.75 63.25 L-43.25 61.75 -49.0 57.5 Q-70.75 40.25 -64.5 10.5 L-72.5 16.0 -76.0 22.75 -86.5 38.0 -92.25 45.0 -94.25 45.5 -95.25 45.5 -95.5 44.75 -96.0 40.75 -89.75 18.5 -84.5 5.25 Q-79.5 -3.5 -77.25 -3.0 L-58.75 -23.75 -49.75 -31.5 Q-47.75 -34.0 -44.0 -34.75 -18.25 -72.0 -0.5 -74.25 21.0 -68.75 43.25 -34.75" fill="#2e47aa" fill-rule="evenodd" stroke="none"/>
  </g>
</svg>
