<?xml version="1.0" encoding="UTF-8" standalone="no"?>
<svg xmlns:ffdec="https://www.free-decompiler.com/flash" xmlns:xlink="http://www.w3.org/1999/xlink" ffdec:objectType="shape" height="156.5px" width="191.25px" xmlns="http://www.w3.org/2000/svg">
  <g transform="matrix(1.0, 0.0, 0.0, 1.0, 96.0, 74.25)">
    <path d="M43.25 -34.75 Q46.25 -34.5 53.25 -27.75 L66.75 -14.0 70.25 -9.75 70.75 -9.25 71.5 -8.25 72.25 -7.5 72.75 -6.75 73.5 -6.0 73.75 -5.5 74.75 -4.5 75.0 -4.0 76.0 -3.0 Q85.25 -1.25 95.25 44.75 L94.75 46.0 91.75 45.5 87.25 40.25 75.25 23.25 71.25 16.0 63.25 10.75 63.0 10.75 Q69.75 40.25 47.5 57.5 L41.25 61.75 31.25 72.5 Q18.5 81.0 3.75 82.25 L-4.5 81.5 Q-30.0 77.5 -39.75 63.25 L-43.25 61.75 -49.0 57.5 Q-70.75 40.25 -64.5 10.5 L-72.5 16.0 -76.0 22.75 -86.5 38.0 -92.25 45.0 -94.25 45.5 -95.25 45.5 -95.5 44.75 -96.0 40.75 -89.75 18.5 -84.5 5.25 Q-79.5 -3.5 -77.25 -3.0 L-58.75 -23.75 -49.75 -31.5 Q-47.75 -34.0 -44.0 -34.75 -18.25 -72.0 -0.5 -74.25 21.0 -68.75 43.25 -34.75" fill="#2e47aa" fill-rule="evenodd" stroke="none"/>
  </g>
</svg>
