<?xml version="1.0" encoding="UTF-8" standalone="no"?>
<svg xmlns:ffdec="https://www.free-decompiler.com/flash" xmlns:xlink="http://www.w3.org/1999/xlink" ffdec:objectType="shape" height="156.5px" width="195.25px" xmlns="http://www.w3.org/2000/svg">
  <g transform="matrix(1.0, 0.0, 0.0, 1.0, 96.0, 74.25)">
    <path d="M43.25 -34.5 Q45.25 -35.0 54.25 -26.5 L69.75 -9.5 70.25 -8.75 70.75 -8.25 71.25 -7.5 71.75 -7.0 72.25 -6.25 72.75 -5.75 73.25 -5.0 74.0 -4.25 74.25 -3.75 75.0 -3.0 75.25 -2.5 76.0 -1.75 76.0 -1.5 Q85.5 -0.25 99.25 47.25 L99.0 48.0 99.0 48.5 98.75 50.0 95.5 49.25 89.5 42.75 76.0 25.25 71.0 17.25 63.5 12.0 Q68.0 43.25 47.5 57.5 L41.25 61.75 31.25 72.5 Q18.5 81.0 3.75 82.25 L-4.5 81.5 Q-30.0 77.5 -39.75 63.25 L-43.25 61.75 -49.0 57.5 Q-70.75 40.25 -64.5 10.5 L-72.5 16.0 -76.0 22.75 -86.5 38.0 -92.25 45.0 -94.25 45.5 -95.25 45.5 -95.5 44.75 -96.0 40.75 -89.75 18.5 -84.5 5.25 Q-79.5 -3.5 -77.25 -3.0 L-58.75 -23.75 -49.75 -31.5 Q-47.75 -34.0 -44.0 -34.75 -18.25 -72.0 -0.5 -74.25 17.5 -71.75 43.25 -34.5" fill="#2e47aa" fill-rule="evenodd" stroke="none"/>
  </g>
</svg>
