<?xml version="1.0" encoding="UTF-8" standalone="no"?>
<svg xmlns:ffdec="https://www.free-decompiler.com/flash" xmlns:xlink="http://www.w3.org/1999/xlink" ffdec:objectType="shape" height="156.5px" width="198.0px" xmlns="http://www.w3.org/2000/svg">
  <g transform="matrix(1.0, 0.0, 0.0, 1.0, 96.0, 74.25)">
    <path d="M43.5 -34.25 Q45.25 -34.75 52.75 -27.5 L68.25 -10.5 71.75 -6.0 72.25 -5.5 72.5 -5.0 73.0 -4.5 73.5 -3.75 74.0 -3.25 74.25 -2.75 75.0 -2.0 75.25 -1.5 76.0 -0.5 76.5 0.0 Q85.75 1.5 102.0 50.25 L101.75 53.5 98.0 52.5 92.75 47.0 78.5 29.5 71.0 18.25 64.0 13.0 63.5 12.75 Q67.75 42.75 47.5 57.5 L41.25 61.75 31.25 72.5 Q18.5 81.0 3.75 82.25 L-4.5 81.5 Q-30.0 77.5 -39.75 63.25 L-43.25 61.75 -49.0 57.5 Q-70.75 40.25 -64.5 10.5 L-72.5 16.0 -76.0 22.75 -86.5 38.0 -92.25 45.0 -94.25 45.5 -95.25 45.5 -95.5 44.75 -96.0 40.75 -89.75 18.5 -84.5 5.25 Q-79.5 -3.5 -77.25 -3.0 L-58.75 -23.75 -49.75 -31.5 Q-47.75 -34.0 -44.0 -34.75 -18.25 -72.0 -0.5 -74.25 17.5 -72.0 43.5 -34.25" fill="#2e47aa" fill-rule="evenodd" stroke="none"/>
  </g>
</svg>
