<?xml version="1.0" encoding="UTF-8" standalone="no"?>
<svg xmlns:ffdec="https://www.free-decompiler.com/flash" xmlns:xlink="http://www.w3.org/1999/xlink" ffdec:objectType="shape" height="156.5px" width="200.75px" xmlns="http://www.w3.org/2000/svg">
  <g transform="matrix(1.0, 0.0, 0.0, 1.0, 96.0, 74.25)">
    <path d="M43.75 -34.0 L44.75 -33.25 45.0 -33.25 47.25 -31.75 47.75 -31.5 56.75 -23.25 73.75 -2.25 74.25 -1.75 74.5 -1.25 75.0 -0.75 75.25 -0.25 75.75 0.25 76.0 0.75 76.5 1.25 76.75 1.75 Q86.25 3.25 104.75 53.75 L104.75 58.25 102.25 57.25 100.75 57.0 86.75 41.25 77.25 29.25 70.75 19.5 70.0 18.75 69.25 18.25 68.5 17.5 68.25 17.5 67.25 16.75 67.0 16.5 66.0 15.75 65.75 15.5 65.0 15.0 64.75 14.75 63.75 14.0 Q69.25 38.5 47.25 57.5 L41.25 61.75 31.25 72.5 Q18.5 81.0 3.75 82.25 L-4.5 81.5 Q-30.0 77.5 -39.75 63.25 L-43.25 61.75 -49.0 57.5 Q-70.75 40.25 -64.5 10.5 L-72.5 16.0 -76.0 22.75 -86.5 38.0 -92.25 45.0 -94.25 45.5 -95.25 45.5 -95.5 44.75 -96.0 40.75 -89.75 18.5 -84.5 5.25 Q-79.5 -3.5 -77.25 -3.0 L-58.75 -23.75 -49.75 -31.5 Q-47.75 -34.0 -44.0 -34.75 -18.25 -72.0 -0.5 -74.25 17.25 -72.0 43.75 -34.0" fill="#2e47aa" fill-rule="evenodd" stroke="none"/>
  </g>
</svg>
