<?xml version="1.0" encoding="UTF-8" standalone="no"?>
<svg xmlns:ffdec="https://www.free-decompiler.com/flash" xmlns:xlink="http://www.w3.org/1999/xlink" ffdec:objectType="shape" height="156.5px" width="203.5px" xmlns="http://www.w3.org/2000/svg">
  <g transform="matrix(1.0, 0.0, 0.0, 1.0, 96.0, 74.25)">
    <path d="M44.0 -33.5 L45.25 -32.75 45.5 -32.75 48.0 -31.0 56.0 -23.5 72.5 -2.5 73.0 -2.0 73.25 -1.5 74.5 0.25 75.0 0.75 75.25 1.25 75.75 2.0 76.25 2.5 76.5 3.0 77.0 3.75 Q86.75 5.5 107.5 59.25 L107.5 63.75 104.25 62.5 Q102.75 62.5 97.75 56.25 L77.5 31.25 77.25 30.75 76.75 30.25 76.5 29.75 76.0 29.25 70.5 20.75 67.25 18.25 66.75 17.75 66.0 17.25 65.25 16.5 64.25 16.0 Q68.75 38.75 47.25 57.5 L41.25 61.75 31.25 72.5 Q18.5 81.0 3.75 82.25 L-4.5 81.5 Q-30.0 77.5 -39.75 63.25 L-43.25 61.75 -49.0 57.5 Q-70.75 40.25 -64.5 10.5 L-72.5 16.0 -76.0 22.75 -86.5 38.0 -92.25 45.0 -94.25 45.5 -95.25 45.5 -95.5 44.75 -96.0 40.75 -89.75 18.5 -84.5 5.25 Q-79.5 -3.5 -77.25 -3.0 L-58.75 -23.75 -49.75 -31.5 Q-47.75 -34.0 -44.0 -34.75 -18.25 -72.0 -0.5 -74.25 17.25 -72.25 44.0 -33.5" fill="#2e47aa" fill-rule="evenodd" stroke="none"/>
  </g>
</svg>
