<?xml version="1.0" encoding="UTF-8" standalone="no"?>
<svg xmlns:ffdec="https://www.free-decompiler.com/flash" xmlns:xlink="http://www.w3.org/1999/xlink" ffdec:objectType="shape" height="156.5px" width="205.5px" xmlns="http://www.w3.org/2000/svg">
  <g transform="matrix(1.0, 0.0, 0.0, 1.0, 96.0, 74.25)">
    <path d="M44.25 -33.25 L44.75 -32.5 45.5 -32.5 46.0 -32.0 46.5 -31.75 47.25 -31.25 47.75 -31.0 56.0 -22.75 74.0 1.25 74.5 1.75 74.75 2.25 76.25 4.5 76.5 4.75 77.25 6.25 Q86.75 7.75 106.75 58.75 L109.25 65.25 109.5 70.25 105.25 68.25 89.25 49.5 77.5 34.0 69.75 22.0 69.25 21.5 68.5 21.0 68.0 20.5 67.0 19.75 66.0 18.75 65.0 18.0 64.0 17.5 Q68.75 38.0 47.25 57.5 L41.25 61.75 31.25 72.5 Q18.5 81.0 3.75 82.25 L-4.5 81.5 Q-30.0 77.5 -39.75 63.25 L-43.25 61.75 -49.0 57.5 Q-70.75 40.25 -64.5 10.5 L-72.5 16.0 -76.0 22.75 -86.5 38.0 -92.25 45.0 -94.25 45.5 -95.25 45.5 -95.5 44.75 -96.0 40.75 -89.75 18.5 -84.5 5.25 Q-79.5 -3.5 -77.25 -3.0 L-58.75 -23.75 -49.75 -31.5 Q-47.75 -34.0 -44.0 -34.75 -18.25 -72.0 -0.5 -74.25 17.0 -72.5 44.25 -33.25" fill="#2e47aa" fill-rule="evenodd" stroke="none"/>
  </g>
</svg>
