<?xml version="1.0" encoding="UTF-8" standalone="no"?>
<svg xmlns:ffdec="https://www.free-decompiler.com/flash" xmlns:xlink="http://www.w3.org/1999/xlink" ffdec:objectType="shape" height="156.5px" width="206.0px" xmlns="http://www.w3.org/2000/svg">
  <g transform="matrix(1.0, 0.0, 0.0, 1.0, 96.0, 74.25)">
    <path d="M44.75 -32.5 L45.0 -32.5 45.25 -32.25 46.25 -31.75 46.75 -31.25 48.25 -30.25 55.5 -22.75 65.75 -9.5 73.5 2.25 73.75 2.75 75.75 5.75 76.0 6.0 77.25 8.5 Q86.25 10.0 105.75 60.5 L109.0 69.75 109.25 70.25 109.75 71.75 110.0 77.25 105.75 74.75 89.0 53.5 78.25 38.25 69.0 23.25 68.25 22.5 66.0 20.75 65.0 19.75 64.5 19.5 Q67.5 39.5 47.25 57.5 L41.25 61.75 31.25 72.5 Q18.5 81.0 3.75 82.25 L-4.5 81.5 Q-30.0 77.5 -39.75 63.25 L-43.25 61.75 -49.0 57.5 Q-70.75 40.25 -64.5 10.5 L-72.5 16.0 -76.0 22.75 -86.5 38.0 -92.25 45.0 -94.25 45.5 -95.25 45.5 -95.5 44.75 -96.0 40.75 -89.75 18.5 -84.5 5.25 Q-79.5 -3.5 -77.25 -3.0 L-58.75 -23.75 -49.75 -31.5 Q-47.75 -34.0 -44.0 -34.75 -18.25 -72.0 -0.5 -74.25 16.75 -72.75 44.75 -32.5" fill="#2e47aa" fill-rule="evenodd" stroke="none"/>
  </g>
</svg>
