<?xml version="1.0" encoding="UTF-8" standalone="no"?>
<svg xmlns:ffdec="https://www.free-decompiler.com/flash" xmlns:xlink="http://www.w3.org/1999/xlink" ffdec:objectType="shape" height="158.5px" width="205.0px" xmlns="http://www.w3.org/2000/svg">
  <g transform="matrix(1.0, 0.0, 0.0, 1.0, 96.0, 74.25)">
    <path d="M44.75 -32.5 L46.25 -31.25 47.25 -30.75 57.0 -20.25 74.25 5.5 74.5 6.0 75.75 8.0 77.25 11.25 Q87.5 14.5 108.75 78.25 L109.0 84.25 104.25 81.0 87.5 57.0 76.75 40.0 68.0 24.5 67.75 24.25 67.0 23.75 64.75 21.75 Q62.0 49.25 47.25 57.5 L41.25 61.75 31.25 72.5 Q18.5 81.0 3.75 82.25 L-4.5 81.5 Q-30.0 77.5 -39.75 63.25 L-43.25 61.75 -49.0 57.5 Q-70.75 40.25 -64.5 10.5 L-72.5 16.0 -76.0 22.75 -86.5 38.0 -92.25 45.0 -94.25 45.5 -95.25 45.5 -95.5 44.75 -96.0 40.75 -89.75 18.5 -84.5 5.25 Q-79.5 -3.5 -77.25 -3.0 L-58.75 -23.75 -49.75 -31.5 Q-47.75 -34.0 -44.0 -34.75 -18.25 -72.0 -0.5 -74.25 20.25 -69.75 44.75 -32.5" fill="#2e47aa" fill-rule="evenodd" stroke="none"/>
  </g>
</svg>
