<?xml version="1.0" encoding="UTF-8" standalone="no"?>
<svg xmlns:ffdec="https://www.free-decompiler.com/flash" xmlns:xlink="http://www.w3.org/1999/xlink" ffdec:objectType="shape" height="165.0px" width="202.25px" xmlns="http://www.w3.org/2000/svg">
  <g transform="matrix(1.0, 0.0, 0.0, 1.0, 96.0, 74.25)">
    <path d="M45.25 -31.75 L46.5 -30.75 47.0 -30.5 47.75 -30.0 48.25 -29.5 56.25 -20.25 75.75 10.5 77.0 13.75 Q87.25 17.75 106.0 84.25 L106.25 90.75 101.25 86.75 84.25 58.75 67.0 25.75 64.5 23.5 Q61.0 50.5 47.25 57.5 L41.25 61.75 31.25 72.5 Q18.5 81.0 3.75 82.25 L-4.5 81.5 Q-30.0 77.5 -39.75 63.25 L-43.25 61.75 -49.0 57.5 Q-70.75 40.25 -64.5 10.5 L-72.5 16.0 -76.0 22.75 -86.5 38.0 -92.25 45.0 -94.25 45.5 -95.25 45.5 -95.5 44.75 -96.0 40.75 -89.75 18.5 -84.5 5.25 Q-79.5 -3.5 -77.25 -3.0 L-58.75 -23.75 -49.75 -31.5 Q-47.75 -34.0 -44.0 -34.75 -18.25 -72.0 -0.5 -74.25 20.0 -70.25 45.25 -31.75" fill="#2e47aa" fill-rule="evenodd" stroke="none"/>
  </g>
</svg>
