<?xml version="1.0" encoding="UTF-8" standalone="no"?>
<svg xmlns:ffdec="https://www.free-decompiler.com/flash" xmlns:xlink="http://www.w3.org/1999/xlink" ffdec:objectType="shape" height="170.5px" width="197.75px" xmlns="http://www.w3.org/2000/svg">
  <g transform="matrix(1.0, 0.0, 0.0, 1.0, 96.0, 74.25)">
    <path d="M45.5 -31.25 Q49.0 -29.5 53.5 -23.0 L68.0 -0.75 75.25 12.25 76.5 16.25 79.25 19.25 86.25 32.5 86.25 32.75 86.75 34.25 87.0 34.5 92.75 51.75 100.5 84.0 100.75 84.5 100.75 85.25 101.0 85.75 101.0 86.5 101.25 87.0 101.25 87.75 101.5 89.25 101.75 89.25 101.5 96.25 96.75 91.75 82.5 64.25 66.0 27.0 64.0 25.25 Q61.25 49.5 47.25 57.5 L41.25 61.75 31.25 72.5 Q18.5 81.0 3.75 82.25 L-4.5 81.5 Q-30.0 77.5 -39.75 63.25 L-43.25 61.75 -49.0 57.5 Q-70.75 40.25 -64.5 10.5 L-72.5 16.0 -76.0 22.75 -86.5 38.0 -92.25 45.0 -94.25 45.5 -95.25 45.5 -95.5 44.75 -96.0 40.75 -89.75 18.5 -84.5 5.25 Q-79.5 -3.5 -77.25 -3.0 L-58.75 -23.75 -49.75 -31.5 Q-47.75 -34.0 -44.0 -34.75 -18.25 -72.0 -0.5 -74.25 20.0 -70.5 45.5 -31.25" fill="#2e47aa" fill-rule="evenodd" stroke="none"/>
  </g>
</svg>
