<?xml version="1.0" encoding="UTF-8" standalone="no"?>
<svg xmlns:ffdec="https://www.free-decompiler.com/flash" xmlns:xlink="http://www.w3.org/1999/xlink" ffdec:objectType="shape" height="174.5px" width="192.0px" xmlns="http://www.w3.org/2000/svg">
  <g transform="matrix(1.0, 0.0, 0.0, 1.0, 96.0, 74.25)">
    <path d="M45.5 -31.25 L48.0 -29.25 53.75 -22.0 69.5 4.0 75.5 15.5 76.0 18.75 79.0 22.75 79.25 23.25 79.5 24.0 80.25 25.5 80.5 26.25 81.5 28.25 81.75 29.0 82.75 31.0 83.0 31.75 83.75 33.25 84.75 36.75 85.0 37.0 90.25 58.5 95.0 87.5 95.25 88.0 95.25 89.5 95.5 90.0 95.5 91.25 95.75 91.75 95.75 93.25 96.0 93.5 95.0 100.25 90.5 95.0 76.5 61.25 65.0 28.25 63.75 27.5 Q61.5 48.5 47.25 57.5 L41.25 61.75 31.25 72.5 Q18.5 81.0 3.75 82.25 L-4.5 81.5 Q-30.0 77.5 -39.75 63.25 L-43.25 61.75 -49.0 57.5 Q-70.75 40.25 -64.5 10.5 L-72.5 16.0 -76.0 22.75 -86.5 38.0 -92.25 45.0 -94.25 45.5 -95.25 45.5 -95.5 44.75 -96.0 40.75 -89.75 18.5 -84.5 5.25 Q-79.5 -3.5 -77.25 -3.0 L-58.75 -23.75 -49.75 -31.5 Q-47.75 -34.0 -44.0 -34.75 -18.25 -72.0 -0.5 -74.25 20.0 -70.5 45.5 -31.25" fill="#2e47aa" fill-rule="evenodd" stroke="none"/>
  </g>
</svg>
