<?xml version="1.0" encoding="UTF-8" standalone="no"?>
<svg xmlns:ffdec="https://www.free-decompiler.com/flash" xmlns:xlink="http://www.w3.org/1999/xlink" ffdec:objectType="shape" height="176.75px" width="185.0px" xmlns="http://www.w3.org/2000/svg">
  <g transform="matrix(1.0, 0.0, 0.0, 1.0, 96.0, 74.25)">
    <path d="M46.25 -30.5 L49.75 -27.0 55.75 -18.5 67.5 2.25 73.25 13.5 75.5 21.25 78.0 25.25 82.0 36.5 82.25 37.5 82.5 38.0 82.5 39.0 86.25 60.25 88.5 86.75 88.75 87.25 88.75 91.5 89.0 92.75 89.0 95.5 87.75 102.5 83.5 96.75 74.25 68.5 63.75 30.5 Q60.0 50.0 47.25 57.5 L41.25 61.75 31.25 72.5 Q18.5 81.0 3.75 82.25 L-4.5 81.5 Q-30.0 77.5 -39.75 63.25 L-43.25 61.75 -49.0 57.5 Q-70.75 40.25 -64.5 10.5 L-72.5 16.0 -76.0 22.75 -86.5 38.0 -92.25 45.0 -94.25 45.5 -95.25 45.5 -95.5 44.75 -96.0 40.75 -89.75 18.5 -84.5 5.25 Q-79.5 -3.5 -77.25 -3.0 L-58.75 -23.75 -49.75 -31.5 Q-47.75 -34.0 -44.0 -34.75 -18.25 -72.0 -0.5 -74.25 19.5 -70.75 46.25 -30.5" fill="#2e47aa" fill-rule="evenodd" stroke="none"/>
  </g>
</svg>
