<?xml version="1.0" encoding="UTF-8" standalone="no"?>
<svg xmlns:ffdec="https://www.free-decompiler.com/flash" xmlns:xlink="http://www.w3.org/1999/xlink" ffdec:objectType="shape" height="177.0px" width="174.0px" xmlns="http://www.w3.org/2000/svg">
  <g transform="matrix(1.0, 0.0, 0.0, 1.0, 96.0, 74.25)">
    <path d="M47.0 -29.25 L49.25 -27.0 56.0 -16.75 69.25 9.75 73.0 18.25 74.25 25.0 76.0 29.0 78.0 39.5 78.0 64.25 75.75 89.5 75.75 91.0 75.5 91.5 75.5 93.0 75.25 93.5 75.25 94.75 75.0 95.5 75.0 96.0 Q75.75 97.0 72.25 102.75 L69.25 96.25 66.5 80.75 61.75 38.75 57.5 47.25 Q52.0 55.0 47.25 57.5 L41.25 61.75 31.25 72.5 Q18.5 81.0 3.75 82.25 L-4.5 81.5 Q-30.0 77.5 -39.75 63.25 L-43.25 61.75 -49.0 57.5 Q-70.75 40.25 -64.5 10.5 L-72.5 16.0 -76.0 22.75 -86.5 38.0 -92.25 45.0 -94.25 45.5 -95.25 45.5 -95.5 44.75 -96.0 40.75 -89.75 18.5 -84.5 5.25 Q-79.5 -3.5 -77.25 -3.0 L-58.75 -23.75 -49.75 -31.5 Q-47.75 -34.0 -44.0 -34.75 -18.25 -72.0 -0.5 -74.25 19.25 -71.5 47.0 -29.25" fill="#2e47aa" fill-rule="evenodd" stroke="none"/>
  </g>
</svg>
