<?xml version="1.0" encoding="UTF-8" standalone="no"?>
<svg xmlns:ffdec="https://www.free-decompiler.com/flash" xmlns:xlink="http://www.w3.org/1999/xlink" ffdec:objectType="shape" height="172.0px" width="169.5px" xmlns="http://www.w3.org/2000/svg">
  <g transform="matrix(1.0, 0.0, 0.0, 1.0, 96.0, 74.25)">
    <path d="M47.75 -28.0 L55.75 -15.5 63.5 0.25 72.25 21.75 73.5 37.75 72.75 46.5 69.0 64.75 64.5 80.75 60.0 92.5 60.0 92.75 59.75 93.25 Q54.5 103.25 54.25 91.0 L54.0 84.25 54.5 73.5 56.75 47.75 52.0 53.75 41.25 61.75 31.25 72.5 Q18.5 81.0 3.75 82.25 L-4.5 81.5 Q-30.0 77.5 -39.75 63.25 L-43.25 61.75 -49.0 57.5 Q-70.75 40.25 -64.5 10.5 L-72.5 16.0 -76.0 22.75 -86.5 38.0 -92.25 45.0 -94.25 45.5 -95.25 45.5 -95.5 44.75 -96.0 40.75 -89.75 18.5 -84.5 5.25 Q-79.5 -3.5 -77.25 -3.0 L-58.75 -23.75 -49.75 -31.5 Q-47.75 -34.0 -44.0 -34.75 -18.25 -72.0 -0.5 -74.25 18.75 -72.0 47.75 -28.0" fill="#2e47aa" fill-rule="evenodd" stroke="none"/>
  </g>
</svg>
