<?xml version="1.0" encoding="UTF-8" standalone="no"?>
<svg xmlns:ffdec="https://www.free-decompiler.com/flash" xmlns:xlink="http://www.w3.org/1999/xlink" ffdec:objectType="shape" height="172.5px" width="170.2px" xmlns="http://www.w3.org/2000/svg">
  <g transform="matrix(1.0, 0.0, 0.0, 1.0, 96.0, 74.25)">
    <path d="M47.75 -28.0 L56.75 -13.75 68.5 12.25 72.5 22.25 73.0 29.25 Q78.25 40.25 60.25 93.0 L60.25 93.25 60.0 93.75 56.5 98.25 Q54.0 93.0 54.5 91.25 L54.25 83.5 54.5 83.0 54.5 77.5 54.75 76.75 54.75 75.0 57.0 47.5 52.0 53.75 41.25 61.75 31.25 72.5 Q18.5 81.0 3.75 82.25 L-4.5 81.5 Q-30.0 77.5 -39.75 63.25 L-43.25 61.75 -49.0 57.5 Q-70.75 40.25 -64.5 10.5 L-72.5 16.0 -76.0 22.75 -86.5 38.0 -92.25 45.0 -94.25 45.5 -95.25 45.5 -95.5 44.75 -96.0 40.75 -89.75 18.5 -84.5 5.25 Q-79.5 -3.5 -77.25 -3.0 L-58.75 -23.75 -49.75 -31.5 Q-47.75 -34.0 -44.0 -34.75 -18.25 -72.0 -0.5 -74.25 18.75 -72.0 47.75 -28.0" fill="#2e47aa" fill-rule="evenodd" stroke="none"/>
  </g>
</svg>
