<?xml version="1.0" encoding="UTF-8" standalone="no"?>
<svg xmlns:ffdec="https://www.free-decompiler.com/flash" xmlns:xlink="http://www.w3.org/1999/xlink" ffdec:objectType="shape" height="181.75px" width="176.9px" xmlns="http://www.w3.org/2000/svg">
  <g transform="matrix(1.0, 0.0, 0.0, 1.0, 96.0, 74.25)">
    <path d="M49.0 -26.0 L49.0 -25.75 49.5 -25.25 58.25 -11.75 72.75 17.25 73.0 18.0 76.75 26.25 77.0 26.5 78.5 34.0 Q86.0 41.75 70.25 103.0 L66.5 107.5 64.25 100.75 63.25 72.0 63.75 35.5 63.0 34.75 Q60.25 47.75 47.25 57.5 L41.25 61.75 31.25 72.5 Q18.5 81.0 3.75 82.25 L-4.5 81.5 Q-30.0 77.5 -39.75 63.25 L-43.25 61.75 -49.0 57.5 Q-70.75 40.25 -64.5 10.5 L-72.5 16.0 -76.0 22.75 -86.5 38.0 -92.25 45.0 -94.25 45.5 -95.25 45.5 -95.5 44.75 -96.0 40.75 -89.75 18.5 -84.5 5.25 Q-79.5 -3.5 -77.25 -3.0 L-58.75 -23.75 -49.75 -31.5 Q-47.75 -34.0 -44.0 -34.75 -18.25 -72.0 -0.5 -74.25 18.25 -73.0 49.0 -26.0" fill="#2e47aa" fill-rule="evenodd" stroke="none"/>
  </g>
</svg>
