<?xml version="1.0" encoding="UTF-8" standalone="no"?>
<svg xmlns:ffdec="https://www.free-decompiler.com/flash" xmlns:xlink="http://www.w3.org/1999/xlink" ffdec:objectType="shape" height="186.5px" width="183.75px" xmlns="http://www.w3.org/2000/svg">
  <g transform="matrix(1.0, 0.0, 0.0, 1.0, 96.0, 74.25)">
    <path d="M50.25 -24.0 L50.25 -23.75 60.25 -9.25 71.0 9.25 81.0 29.0 82.5 34.0 82.5 34.25 85.0 39.25 87.75 54.5 87.75 75.75 86.5 94.25 84.75 106.5 81.75 112.25 78.25 105.5 72.5 71.25 68.75 37.5 68.25 37.0 68.0 36.5 67.5 36.0 67.25 35.5 66.75 35.0 63.75 31.0 Q60.0 49.75 47.25 57.5 L41.25 61.75 31.25 72.5 Q18.5 81.0 3.75 82.25 L-4.5 81.5 Q-30.0 77.5 -39.75 63.25 L-43.25 61.75 -49.0 57.5 Q-70.75 40.25 -64.5 10.5 L-72.5 16.0 -76.0 22.75 -86.5 38.0 -92.25 45.0 -94.25 45.5 -95.25 45.5 -95.5 44.75 -96.0 40.75 -89.75 18.5 -84.5 5.25 Q-79.5 -3.5 -77.25 -3.0 L-58.75 -23.75 -49.75 -31.5 Q-47.75 -34.0 -44.0 -34.75 -18.25 -72.0 -0.5 -74.25 17.5 -74.0 50.25 -24.0" fill="#2e47aa" fill-rule="evenodd" stroke="none"/>
  </g>
</svg>
