<?xml version="1.0" encoding="UTF-8" standalone="no"?>
<svg xmlns:ffdec="https://www.free-decompiler.com/flash" xmlns:xlink="http://www.w3.org/1999/xlink" ffdec:objectType="shape" height="186.35px" width="188.0px" xmlns="http://www.w3.org/2000/svg">
  <g transform="matrix(1.0, 0.0, 0.0, 1.0, 96.0, 74.25)">
    <path d="M50.25 -24.0 L62.0 -7.5 74.5 12.75 81.25 25.5 84.5 33.5 84.5 33.75 87.75 40.5 90.25 49.25 90.5 52.75 90.75 53.25 92.0 70.5 92.0 96.5 91.25 105.5 Q89.25 118.75 84.75 105.5 L81.25 92.25 70.75 37.0 64.0 28.5 63.75 28.5 Q63.0 46.0 47.25 57.5 L41.25 61.75 31.25 72.5 Q18.5 81.0 3.75 82.25 L-4.5 81.5 Q-30.0 77.5 -39.75 63.25 L-43.25 61.75 -49.0 57.5 Q-70.75 40.25 -64.5 10.5 L-72.5 16.0 -76.0 22.75 -86.5 38.0 -92.25 45.0 -94.25 45.5 -95.25 45.5 -95.5 44.75 -96.0 40.75 -89.75 18.5 -84.5 5.25 Q-79.5 -3.5 -77.25 -3.0 L-58.75 -23.75 -49.75 -31.5 Q-47.75 -34.0 -44.0 -34.75 -18.25 -72.0 -0.5 -74.25 17.5 -74.0 50.25 -24.0" fill="#2e47aa" fill-rule="evenodd" stroke="none"/>
  </g>
</svg>
