<?xml version="1.0" encoding="UTF-8" standalone="no"?>
<svg xmlns:ffdec="https://www.free-decompiler.com/flash" xmlns:xlink="http://www.w3.org/1999/xlink" ffdec:objectType="shape" height="185.5px" width="194.0px" xmlns="http://www.w3.org/2000/svg">
  <g transform="matrix(1.0, 0.0, 0.0, 1.0, 96.0, 74.25)">
    <path d="M49.75 -24.75 L59.25 -12.5 73.5 9.0 73.75 9.5 79.75 19.5 80.0 20.0 80.5 20.75 81.0 21.75 81.25 22.0 86.5 32.25 86.5 32.5 Q95.25 38.0 97.75 98.25 L98.0 104.75 96.0 111.25 Q90.75 106.0 91.5 104.75 L86.75 90.5 73.25 36.5 64.0 25.25 Q61.25 49.5 47.25 57.5 L41.25 61.75 31.25 72.5 Q18.5 81.0 3.75 82.25 L-4.5 81.5 Q-30.0 77.5 -39.75 63.25 L-43.25 61.75 -49.0 57.5 Q-70.75 40.25 -64.5 10.5 L-72.5 16.0 -76.0 22.75 -86.5 38.0 -92.25 45.0 -94.25 45.5 -95.25 45.5 -95.5 44.75 -96.0 40.75 -89.75 18.5 -84.5 5.25 Q-79.5 -3.5 -77.25 -3.0 L-58.75 -23.75 -49.75 -31.5 Q-47.75 -34.0 -44.0 -34.75 -18.25 -72.0 -0.5 -74.25 17.75 -73.75 49.75 -24.75" fill="#2e47aa" fill-rule="evenodd" stroke="none"/>
  </g>
</svg>
