<?xml version="1.0" encoding="UTF-8" standalone="no"?>
<svg xmlns:ffdec="https://www.free-decompiler.com/flash" xmlns:xlink="http://www.w3.org/1999/xlink" ffdec:objectType="shape" height="184.25px" width="199.75px" xmlns="http://www.w3.org/2000/svg">
  <g transform="matrix(1.0, 0.0, 0.0, 1.0, 96.0, 74.25)">
    <path d="M49.5 -25.25 L61.0 -11.25 77.25 12.25 77.5 12.75 77.75 13.0 78.0 13.5 78.25 13.75 78.75 14.75 79.25 15.25 79.25 15.5 79.5 16.0 80.0 16.75 80.25 17.25 80.75 17.75 80.75 18.0 86.5 27.0 86.75 27.5 87.0 28.25 87.5 29.0 87.5 29.25 88.0 30.75 88.0 31.25 Q97.5 36.75 103.75 102.75 L102.25 110.0 Q98.25 106.5 97.25 103.75 L89.25 81.75 75.75 35.75 75.0 35.25 74.75 34.75 69.0 28.25 68.25 27.25 67.5 26.5 67.0 25.75 64.5 23.25 Q61.0 50.5 47.25 57.5 L41.25 61.75 31.25 72.5 Q18.5 81.0 3.75 82.25 L-4.5 81.5 Q-30.0 77.5 -39.75 63.25 L-43.25 61.75 -49.0 57.5 Q-70.75 40.25 -64.5 10.5 L-72.5 16.0 -76.0 22.75 -86.5 38.0 -92.25 45.0 -94.25 45.5 -95.25 45.5 -95.5 44.75 -96.0 40.75 -89.75 18.5 -84.5 5.25 Q-79.5 -3.5 -77.25 -3.0 L-58.75 -23.75 -49.75 -31.5 Q-47.75 -34.0 -44.0 -34.75 -18.25 -72.0 -0.5 -74.25 18.0 -73.5 49.5 -25.25" fill="#2e47aa" fill-rule="evenodd" stroke="none"/>
  </g>
</svg>
