<?xml version="1.0" encoding="UTF-8" standalone="no"?>
<svg xmlns:ffdec="https://www.free-decompiler.com/flash" xmlns:xlink="http://www.w3.org/1999/xlink" ffdec:objectType="shape" height="182.5px" width="204.5px" xmlns="http://www.w3.org/2000/svg">
  <g transform="matrix(1.0, 0.0, 0.0, 1.0, 96.0, 74.25)">
    <path d="M48.5 -26.75 L63.0 -10.0 77.25 9.0 84.0 19.5 84.25 20.0 88.5 26.5 88.75 26.75 90.0 29.75 Q99.25 34.75 108.5 100.75 L107.25 108.25 Q101.5 103.25 102.0 102.0 L94.0 82.75 77.75 35.0 64.75 21.0 Q62.0 50.25 47.25 57.5 L41.25 61.75 31.25 72.5 Q18.5 81.0 3.75 82.25 L-4.5 81.5 Q-30.0 77.5 -39.75 63.25 L-43.25 61.75 -49.0 57.5 Q-70.75 40.25 -64.5 10.5 L-72.5 16.0 -76.0 22.75 -86.5 38.0 -92.25 45.0 -94.25 45.5 -95.25 45.5 -95.5 44.75 -96.0 40.75 -89.75 18.5 -84.5 5.25 Q-79.5 -3.5 -77.25 -3.0 L-58.75 -23.75 -49.75 -31.5 Q-47.75 -34.0 -44.0 -34.75 -18.25 -72.0 -0.5 -74.25 18.5 -72.75 48.5 -26.75" fill="#2e47aa" fill-rule="evenodd" stroke="none"/>
  </g>
</svg>
