<?xml version="1.0" encoding="UTF-8" standalone="no"?>
<svg xmlns:ffdec="https://www.free-decompiler.com/flash" xmlns:xlink="http://www.w3.org/1999/xlink" ffdec:objectType="shape" height="180.75px" width="208.25px" xmlns="http://www.w3.org/2000/svg">
  <g transform="matrix(1.0, 0.0, 0.0, 1.0, 96.0, 74.25)">
    <path d="M48.25 -27.25 L62.5 -12.0 79.5 9.75 88.25 22.5 88.75 23.0 89.0 23.5 89.5 24.25 91.25 27.75 91.25 28.0 92.75 29.5 99.5 43.0 105.25 63.5 109.5 82.25 112.25 99.0 111.25 106.5 106.0 101.0 99.0 85.75 82.25 42.0 82.0 41.5 81.5 40.0 81.25 39.5 80.75 38.0 80.5 37.5 79.25 33.75 64.25 18.75 Q68.25 38.25 47.25 57.5 L41.25 61.75 31.25 72.5 Q18.5 81.0 3.75 82.25 L-4.5 81.5 Q-30.0 77.5 -39.75 63.25 L-43.25 61.75 -49.0 57.5 Q-70.75 40.25 -64.5 10.5 L-72.5 16.0 -76.0 22.75 -86.5 38.0 -92.25 45.0 -94.25 45.5 -95.25 45.5 -95.5 44.75 -96.0 40.75 -89.75 18.5 -84.5 5.25 Q-79.5 -3.5 -77.25 -3.0 L-58.75 -23.75 -49.75 -31.5 Q-47.75 -34.0 -44.0 -34.75 -18.25 -72.0 -0.5 -74.25 18.5 -72.5 48.25 -27.25" fill="#2e47aa" fill-rule="evenodd" stroke="none"/>
  </g>
</svg>
