<?xml version="1.0" encoding="UTF-8" standalone="no"?>
<svg xmlns:ffdec="https://www.free-decompiler.com/flash" xmlns:xlink="http://www.w3.org/1999/xlink" ffdec:objectType="shape" height="178.75px" width="211.25px" xmlns="http://www.w3.org/2000/svg">
  <g transform="matrix(1.0, 0.0, 0.0, 1.0, 96.0, 74.25)">
    <path d="M47.5 -28.25 L58.5 -17.5 77.25 4.75 77.75 5.25 78.0 5.75 84.0 13.75 84.75 14.5 85.0 15.0 91.25 23.25 92.75 26.5 97.25 33.75 100.75 41.75 107.5 63.5 115.25 97.25 114.25 104.5 108.75 99.25 99.25 79.0 84.5 42.25 84.25 42.0 83.5 40.0 83.5 39.75 82.75 38.25 82.5 37.5 82.25 37.0 81.5 35.0 81.25 34.5 80.5 32.5 80.0 32.25 64.25 16.75 Q68.75 38.25 47.25 57.5 L41.25 61.75 31.25 72.5 Q18.5 81.0 3.75 82.25 L-4.5 81.5 Q-30.0 77.5 -39.75 63.25 L-43.25 61.75 -49.0 57.5 Q-70.75 40.25 -64.5 10.5 L-72.5 16.0 -76.0 22.75 -86.5 38.0 -92.25 45.0 -94.25 45.5 -95.25 45.5 -95.5 44.75 -96.0 40.75 -89.75 18.5 -84.5 5.25 Q-79.5 -3.5 -77.25 -3.0 L-58.75 -23.75 -49.75 -31.5 Q-47.75 -34.0 -44.0 -34.75 -18.25 -72.0 -0.5 -74.25 19.0 -72.0 47.5 -28.25" fill="#2e47aa" fill-rule="evenodd" stroke="none"/>
  </g>
</svg>
