<?xml version="1.0" encoding="UTF-8" standalone="no"?>
<svg xmlns:ffdec="https://www.free-decompiler.com/flash" xmlns:xlink="http://www.w3.org/1999/xlink" ffdec:objectType="shape" height="175.5px" width="214.25px" xmlns="http://www.w3.org/2000/svg">
  <g transform="matrix(1.0, 0.0, 0.0, 1.0, 96.0, 74.25)">
    <path d="M46.5 -30.0 L50.25 -27.25 62.75 -15.0 80.25 4.25 84.5 10.0 85.0 10.5 85.5 11.25 86.25 12.0 86.5 12.5 87.25 13.25 87.25 13.5 91.5 18.5 93.75 22.25 93.5 22.5 94.0 22.75 102.0 36.5 110.0 61.25 118.25 93.75 117.5 101.25 111.75 95.75 98.25 68.25 82.75 31.0 63.75 14.0 Q69.5 38.75 47.25 57.5 L41.25 61.75 31.25 72.5 Q18.5 81.0 3.75 82.25 L-4.5 81.5 Q-30.0 77.5 -39.75 63.25 L-42.75 62.0 -49.0 57.5 Q-70.75 40.25 -64.5 10.5 L-72.5 16.0 -76.0 22.75 -86.5 38.0 -92.25 45.0 -94.25 45.5 -95.25 45.5 -95.5 44.75 -96.0 40.75 -89.75 18.5 -84.5 5.25 Q-79.5 -3.5 -77.25 -3.0 L-58.75 -23.75 -49.75 -31.5 Q-47.75 -34.0 -44.0 -34.75 -18.25 -72.0 -0.5 -74.25 19.5 -71.0 46.5 -30.0" fill="#2e47aa" fill-rule="evenodd" stroke="none"/>
  </g>
</svg>
