<?xml version="1.0" encoding="UTF-8" standalone="no"?>
<svg xmlns:ffdec="https://www.free-decompiler.com/flash" xmlns:xlink="http://www.w3.org/1999/xlink" ffdec:objectType="shape" height="173.0px" width="215.25px" xmlns="http://www.w3.org/2000/svg">
  <g transform="matrix(1.0, 0.0, 0.0, 1.0, 96.0, 74.25)">
    <path d="M45.75 -31.0 L49.0 -29.0 61.5 -17.75 76.75 -2.0 87.75 11.0 88.25 11.5 89.0 12.5 89.75 13.25 90.25 14.0 92.5 16.75 93.0 17.25 97.5 25.25 97.75 25.5 98.25 26.5 102.75 34.0 109.75 55.5 115.75 76.25 119.25 91.5 118.5 98.75 112.75 93.5 96.5 60.5 83.75 29.5 83.5 29.25 63.5 12.25 Q68.5 42.0 47.25 57.5 L41.25 61.75 31.25 72.5 Q18.5 81.0 3.75 82.25 L-4.5 81.5 Q-30.0 77.5 -39.75 63.25 L-43.25 61.75 -49.0 57.5 Q-70.75 40.25 -64.5 10.5 L-72.5 16.0 -76.0 22.75 -86.5 38.0 -92.25 45.0 -94.25 45.5 -95.25 45.5 -95.5 44.75 -96.0 40.75 -89.75 18.5 -84.5 5.25 Q-79.5 -3.5 -77.25 -3.0 L-58.75 -23.75 -49.75 -31.5 Q-47.75 -34.0 -44.0 -34.75 -18.25 -72.0 -0.5 -74.25 19.75 -70.5 45.75 -31.0" fill="#2e47aa" fill-rule="evenodd" stroke="none"/>
  </g>
</svg>
