<?xml version="1.0" encoding="UTF-8" standalone="no"?>
<svg xmlns:ffdec="https://www.free-decompiler.com/flash" xmlns:xlink="http://www.w3.org/1999/xlink" ffdec:objectType="shape" height="118.25px" width="97.1px" xmlns="http://www.w3.org/2000/svg">
  <g transform="matrix(1.0, 0.0, 0.0, 1.0, -91.9, 186.75)">
    <path d="M153.5 -132.5 L154.0 -134.25 170.5 -159.0 177.0 -170.5 178.25 -171.25 178.25 -172.5 Q180.25 -175.0 180.25 -171.0 L184.25 -176.0 186.0 -184.0 189.0 -186.75 Q185.6 -149.25 162.25 -84.0 161.5 -76.7 149.6 -68.5 L104.4 -68.5 Q88.25 -76.55 93.0 -98.5 L94.0 -97.25 93.0 -94.25 Q95.75 -95.75 95.5 -92.5 97.25 -97.5 103.0 -91.0 110.0 -98.1 113.5 -92.75 132.75 -107.25 150.0 -128.75 152.25 -133.0 153.5 -132.5" fill="#000000" fill-opacity="0.49803922" fill-rule="evenodd" stroke="none"/>
  </g>
</svg>
