<?xml version="1.0" encoding="UTF-8" standalone="no"?>
<svg xmlns:ffdec="https://www.free-decompiler.com/flash" xmlns:xlink="http://www.w3.org/1999/xlink" ffdec:objectType="shape" height="272.25px" width="335.85px" xmlns="http://www.w3.org/2000/svg">
  <g transform="matrix(1.0, 0.0, 0.0, 1.0, 167.95, 135.6)">
    <path d="M95.8 -127.1 L109.45 -130.6 Q116.65 -132.55 124.3 -134.85 L122.7 -135.6 167.9 -135.6 Q164.35 -133.15 159.75 -130.6 L153.05 -127.1 Q133.35 -117.4 99.55 -106.6 114.8 -89.65 124.5 -68.1 128.6 -59.0 131.7 -49.1 135.25 -37.75 137.55 -25.35 142.8 9.9 110.05 42.15 L119.3 58.15 Q116.8 57.15 106.3 67.15 L99.55 70.65 99.55 74.4 Q81.35 98.35 56.55 109.5 L37.8 115.9 40.5 117.8 Q47.05 121.8 54.8 122.15 L55.05 129.15 Q61.25 129.5 67.7 128.95 97.7 127.6 121.1 109.5 L122.05 108.5 123.85 108.5 123.55 109.15 123.3 109.5 Q103.2 133.7 71.7 136.35 37.5 139.45 28.2 109.5 27.0 103.55 26.55 96.15 L19.8 97.9 9.55 97.15 Q8.55 137.9 -24.7 135.4 -60.5 135.9 -76.5 117.35 -63.1 125.5 -38.7 130.4 L-19.2 130.15 -18.95 122.65 Q-6.2 120.65 -4.7 118.4 L-7.95 116.65 -29.95 111.9 Q-63.25 99.3 -80.95 74.9 -87.95 70.65 -89.2 71.9 L-85.45 61.9 -81.7 55.15 Q-113.45 30.65 -117.2 9.65 L-120.7 -1.85 -122.95 -15.85 -124.2 -41.6 -124.95 -41.85 -139.2 -28.85 -146.7 -0.35 -151.7 15.65 Q-159.0 40.9 -165.95 40.15 -167.2 39.65 -167.95 33.65 L-167.95 7.65 -165.95 -29.6 -164.45 -36.1 Q-167.7 -8.1 -157.2 4.4 -144.45 -10.6 -144.7 -17.6 L-145.95 -21.1 Q-148.95 -21.1 -153.2 -24.6 -153.7 -27.6 -156.45 -28.1 L-157.2 -30.6 Q-145.2 -27.85 -109.45 -62.1 L-115.45 -48.1 Q-104.4 -9.7 -72.45 25.15 -78.45 30.4 -62.45 53.9 7.8 105.4 51.8 75.4 L76.8 59.4 94.05 35.9 Q96.05 35.65 95.05 30.4 122.55 14.65 131.05 -10.1 122.6 -27.6 107.85 -49.1 101.6 -58.25 94.2 -68.1 76.4 -91.8 52.05 -119.6 71.25 -121.2 95.8 -127.1 M19.0 -68.1 Q12.45 14.0 -30.7 24.65 -67.45 20.9 -59.95 -93.85 -54.95 -39.35 -18.95 -39.35 6.15 -43.35 15.35 -68.1 18.8 -77.4 20.05 -89.6 19.8 -78.3 19.0 -68.1" fill="#000000" fill-opacity="0.49803922" fill-rule="evenodd" stroke="none"/>
  </g>
</svg>
