<?xml version="1.0" encoding="UTF-8" standalone="no"?>
<svg xmlns:ffdec="https://www.free-decompiler.com/flash" xmlns:xlink="http://www.w3.org/1999/xlink" ffdec:objectType="shape" height="174.35px" width="212.85px" xmlns="http://www.w3.org/2000/svg">
  <g transform="matrix(1.0, 0.0, 0.0, 1.0, 95.95, 73.85)">
    <path d="M-13.0 -24.25 L-15.5 -28.25 -15.5 -33.25 -11.0 -35.25 Q-6.75 -36.25 -1.75 -35.25 L-0.25 -34.75 0.0 -34.75 0.75 -35.0 6.75 -35.75 Q11.75 -35.75 14.5 -33.25 L14.5 -28.5 12.25 -24.75 Q10.0 -20.0 -0.25 -23.5 L-7.25 -21.75 Q-13.25 -22.5 -13.0 -24.25 M17.75 -0.5 L22.0 9.0 24.25 16.25 30.5 28.75 Q30.75 30.75 39.0 37.5 L44.0 46.75 44.25 55.5 41.25 61.75 31.25 72.5 Q18.5 81.0 3.75 82.25 L-4.5 81.5 Q-30.0 77.5 -39.75 63.25 L-41.75 60.25 -44.0 55.0 -42.75 50.0 -39.0 46.75 -38.75 45.25 -35.75 41.5 -30.25 30.25 -29.25 29.5 -24.5 18.0 -22.5 10.5 -18.0 0.75 Q-12.75 14.5 1.25 13.0 L2.5 13.0 3.25 12.75 Q13.5 11.25 17.75 -0.5 M-8.0 -28.25 L-8.5 -27.75 Q-12.25 -25.5 -6.25 -23.5 -2.0 -25.0 -4.75 -27.75 L-5.5 -27.75 -7.0 -28.5 -8.0 -28.25 M4.25 -27.75 L3.75 -27.5 Q1.75 -27.5 3.5 -24.0 L6.75 -23.75 8.5 -25.5 8.25 -27.75 7.5 -28.0 7.0 -28.25 6.0 -28.5 5.25 -28.5 4.25 -27.75" fill="#ffffff" fill-rule="evenodd" stroke="none"/>
    <path d="M4.25 -27.75 L5.25 -28.5 6.0 -28.5 7.0 -28.25 7.5 -28.0 8.25 -27.75 8.5 -25.5 6.75 -23.75 3.5 -24.0 Q1.75 -27.5 3.75 -27.5 L4.25 -27.75 M-8.0 -28.25 L-7.0 -28.5 -5.5 -27.75 -4.75 -27.75 Q-2.0 -25.0 -6.25 -23.5 -12.25 -25.5 -8.5 -27.75 L-8.0 -28.25" fill="#000000" fill-rule="evenodd" stroke="none"/>
    <path d="M12.25 -24.75 L17.0 -21.0 19.0 -17.5 19.75 -10.5 17.75 -0.5 Q13.5 11.25 3.25 12.75 L2.5 13.0 1.25 13.0 Q-12.75 14.5 -18.0 0.75 -25.5 -18.75 -13.0 -24.25 -13.25 -22.5 -7.25 -21.75 L-0.25 -23.5 Q10.0 -20.0 12.25 -24.75 M41.25 61.75 L47.25 57.5 Q63.75 78.0 46.0 94.25 3.0 110.5 3.75 82.25 18.5 81.0 31.25 72.5 L41.25 61.75 M-4.5 81.5 Q-5.75 97.25 -11.25 97.75 -23.5 102.75 -42.75 96.5 -64.75 90.25 -49.0 57.5 L-43.25 61.75 -39.75 63.25 Q-30.0 77.5 -4.5 81.5" fill="#e58508" fill-rule="evenodd" stroke="none"/>
    <path d="M-95.15 45.35 Q-98.0 42.25 -90.5 21.1 -85.15 3.0 -77.9 -2.75 L-77.5 -3.15 Q-56.0 -30.15 -43.15 -35.25 L-31.0 -50.75 -21.0 -61.9 -13.25 -68.15 Q-7.15 -72.65 -0.5 -73.65 4.1 -75.4 20.75 -61.25 L29.0 -52.5 36.6 -42.9 45.1 -31.25 49.75 -28.25 59.85 -19.0 76.5 -2.0 81.8 4.1 81.45 3.95 81.35 3.95 65.4 -9.3 Q47.95 -26.7 41.05 -32.6 36.1 -36.85 33.25 -37.65 L32.25 -38.45 31.0 -40.0 Q28.15 -44.75 24.8 -44.05 21.65 -43.35 21.65 -39.85 21.65 -36.3 38.05 -19.5 L38.8 -18.75 Q39.2 -14.2 41.6 -9.4 L44.25 -6.25 44.25 -5.65 46.25 -4.0 48.75 -1.15 61.0 9.85 62.0 10.35 63.25 11.85 64.1 16.25 64.0 17.25 62.85 24.1 59.35 31.25 53.6 37.75 45.75 43.5 42.85 44.75 44.1 48.35 44.0 51.0 44.1 51.25 44.1 51.5 40.25 60.1 34.25 66.5 18.85 73.75 0.0 76.25 -18.9 73.75 -19.5 73.35 -34.5 66.35 -40.5 59.75 -43.9 52.1 -44.15 49.5 Q-42.25 45.6 -42.65 45.0 -47.65 43.75 -56.15 35.85 L-61.4 29.25 -64.4 22.1 -65.0 15.75 -64.15 9.85 -53.25 1.85 -51.65 -0.25 -48.0 -6.9 -55.0 -0.25 -76.75 15.85 -78.5 15.5 -78.0 16.1 -77.25 16.25 -77.9 18.5 -82.0 25.0 -82.4 26.25 -93.75 43.85 -95.15 45.35 M50.1 62.25 L53.5 69.6 55.0 75.75 54.75 81.25 54.35 81.5 54.6 81.75 Q50.25 92.5 31.75 96.25 12.75 99.5 6.75 91.1 L8.1 90.35 15.1 90.1 17.75 89.6 18.1 89.6 22.85 88.75 27.35 87.25 34.5 83.35 39.5 79.1 41.35 76.85 42.75 74.6 44.85 70.25 46.6 68.85 49.35 65.6 50.25 63.85 50.1 62.25 M-55.65 81.75 L-55.75 81.5 -55.9 81.25 Q-57.5 74.0 -51.25 62.25 L-51.25 63.85 -50.5 65.5 -47.9 68.85 -46.0 70.25 -43.9 74.6 -40.65 79.1 -35.5 83.35 Q-32.05 85.25 -28.65 87.1 L-23.75 88.75 -19.4 89.6 -19.0 89.6 -14.15 90.25 -9.15 90.35 -7.9 91.1 Q-13.15 99.75 -34.5 95.85 -51.75 92.1 -55.65 81.75 M19.25 -8.25 L18.85 -4.5 17.85 -1.15 Q14.35 10.35 3.25 12.75 L-3.65 13.1 -9.0 11.35 Q-14.75 8.25 -17.65 1.35 L-19.5 -4.4 -20.4 -10.65 -20.25 -13.75 -21.15 -13.9 -20.25 3.35 -19.65 5.85 -19.9 6.75 -19.25 15.35 -12.25 34.5 -7.5 39.85 -7.0 40.25 0.35 41.6 7.1 40.1 12.35 34.75 19.25 15.75 20.1 4.5 20.1 3.85 20.25 2.5 19.25 -8.25 M103.35 36.35 L109.45 55.35 107.65 51.1 100.55 34.7 102.2 34.1 103.35 36.35" fill="#ffffff" fill-opacity="0.0" fill-rule="evenodd" stroke="none"/>
    <path d="M38.8 -18.75 Q46.75 -10.65 55.5 -2.45 72.55 13.55 82.0 21.75 L86.35 25.45 90.65 32.95 Q93.5 38.4 96.55 45.75 L101.55 58.35 113.3 88.95 116.9 97.3 113.25 94.1 106.25 80.85 97.25 62.25 83.85 29.5 63.25 11.85 62.0 10.35 61.0 9.85 48.75 -1.15 46.25 -4.0 44.25 -5.65 44.25 -6.25 41.6 -9.4 Q39.2 -14.2 38.8 -18.75 M64.0 17.25 L64.5 22.85 63.35 33.6 62.1 38.0 59.25 44.35 57.35 47.5 52.5 53.5 47.5 57.5 49.75 61.0 50.1 62.25 50.25 63.85 49.35 65.6 46.6 68.85 44.85 70.25 42.75 74.6 41.35 76.85 39.5 79.1 34.5 83.35 27.35 87.25 22.85 88.75 18.1 89.6 17.75 89.6 15.1 90.1 8.1 90.35 6.75 91.1 Q12.75 99.5 31.75 96.25 50.25 92.5 54.6 81.75 L54.75 82.35 52.1 88.1 49.35 91.5 Q42.1 97.6 32.25 99.25 L27.5 100.0 Q15.6 101.5 8.6 96.85 5.85 96.0 4.0 81.85 L4.0 81.75 3.85 81.6 -0.15 82.35 -5.0 81.35 -5.0 81.85 -5.9 87.5 -6.4 89.25 Q-8.65 102.85 -28.5 100.0 L-33.25 99.25 Q-50.65 96.85 -55.65 81.75 -51.75 92.1 -34.5 95.85 -13.15 99.75 -7.9 91.1 L-9.15 90.35 -14.15 90.25 -19.0 89.6 -19.4 89.6 -23.75 88.75 -28.65 87.1 Q-32.05 85.25 -35.5 83.35 L-40.65 79.1 -43.9 74.6 -46.0 70.25 -47.9 68.85 -50.5 65.5 -51.25 63.85 -51.25 62.25 -48.9 57.85 Q-69.15 41.6 -65.0 15.75 L-64.4 22.1 -61.4 29.25 -56.15 35.85 Q-47.65 43.75 -42.65 45.0 -42.25 45.6 -44.15 49.5 L-43.9 52.1 -40.5 59.75 -34.5 66.35 -19.5 73.35 -18.9 73.75 0.0 76.25 18.85 73.75 34.25 66.5 40.25 60.1 44.1 51.5 44.1 51.25 44.0 51.0 44.1 48.35 42.85 44.75 45.75 43.5 53.6 37.75 59.35 31.25 62.85 24.1 64.0 17.25 M54.75 81.25 L54.6 81.75 54.35 81.5 54.75 81.25 M-64.15 9.85 L-72.75 15.75 -77.5 24.5 -84.5 34.85 -92.5 44.85 -95.15 45.35 -93.75 43.85 -82.4 26.25 -82.0 25.0 -77.9 18.5 -77.25 16.25 -78.0 16.1 -78.5 15.5 -76.75 15.85 -55.0 -0.25 -48.0 -6.9 -51.65 -0.25 -53.25 1.85 -64.15 9.85 M19.25 -8.25 L20.25 2.5 20.1 3.85 20.1 4.5 19.25 15.75 12.35 34.75 7.1 40.1 0.35 41.6 -7.0 40.25 -7.5 39.85 -12.25 34.5 -19.25 15.35 -19.9 6.75 -19.65 5.85 -20.25 3.35 -21.15 -13.9 -20.25 -13.75 -20.4 -10.65 -19.5 -4.4 -17.65 1.35 Q-14.75 8.25 -9.0 11.35 L-3.65 13.1 3.25 12.75 Q14.35 10.35 17.85 -1.15 L18.85 -4.5 19.25 -8.25" fill="#000000" fill-opacity="0.49803922" fill-rule="evenodd" stroke="none"/>
  </g>
</svg>
