<?xml version="1.0" encoding="UTF-8" standalone="no"?>
<svg xmlns:ffdec="https://www.free-decompiler.com/flash" xmlns:xlink="http://www.w3.org/1999/xlink" ffdec:objectType="shape" height="116.25px" width="114.45px" xmlns="http://www.w3.org/2000/svg">
  <g transform="matrix(1.0, 0.0, 0.0, 1.0, -93.55, 180.75)">
    <path d="M143.2 -64.5 L95.0 -64.5 106.25 -67.75 Q98.95 -71.45 95.85 -77.5 L93.55 -89.6 99.75 -91.5 99.6 -90.4 101.2 -89.6 102.7 -88.8 103.5 -88.45 104.3 -88.35 105.9 -88.4 Q125.1 -85.7 151.25 -116.0 L172.25 -139.6 196.5 -168.75 197.5 -169.0 199.0 -168.0 208.0 -180.75 Q200.4 -153.2 188.75 -127.3 177.1 -101.35 161.65 -77.5 156.2 -71.45 143.2 -64.5" fill="#000000" fill-opacity="0.49803922" fill-rule="evenodd" stroke="none"/>
  </g>
</svg>
