<?xml version="1.0" encoding="UTF-8" standalone="no"?>
<svg xmlns:ffdec="https://www.free-decompiler.com/flash" xmlns:xlink="http://www.w3.org/1999/xlink" ffdec:objectType="shape" height="307.85px" width="294.4px" xmlns="http://www.w3.org/2000/svg">
  <g transform="matrix(1.0, 0.0, 0.0, 1.0, 153.45, 141.35)">
    <path d="M30.9 -87.1 L62.5 -64.75 103.75 -30.75 Q124.55 -12.85 140.1 9.7 141.4 11.6 140.75 13.9 137.3 26.45 131.0 38.05 125.85 47.45 121.0 57.25 L97.25 93.5 71.0 129.25 41.25 163.75 39.75 163.5 38.5 166.25 25.0 166.5 -19.0 163.5 -33.75 163.15 Q-37.25 163.1 -40.45 161.9 -51.7 157.6 -64.0 157.5 L-104.25 148.75 -110.05 147.35 -112.05 146.85 Q-127.05 142.55 -139.6 133.2 -146.0 128.4 -151.5 122.75 -150.3 109.25 -151.05 95.7 L-153.0 59.5 Q-154.0 39.25 -152.75 19.25 -151.6 0.8 -146.95 -17.15 -142.15 -35.6 -136.95 -53.95 -131.45 -73.4 -124.35 -92.2 -117.5 -110.2 -106.65 -126.35 -97.15 -140.35 -80.45 -141.15 -59.05 -142.6 -39.95 -133.15 -21.25 -123.85 -4.25 -111.7 L30.9 -87.1" fill="#2e47aa" fill-rule="evenodd" stroke="none"/>
  </g>
</svg>
