<?xml version="1.0" encoding="UTF-8" standalone="no"?>
<svg xmlns:ffdec="https://www.free-decompiler.com/flash" xmlns:xlink="http://www.w3.org/1999/xlink" ffdec:objectType="shape" height="360.45px" width="259.25px" xmlns="http://www.w3.org/2000/svg">
  <g transform="matrix(1.0, 0.0, 0.0, 1.0, 137.05, 202.55)">
    <path d="M63.25 -109.5 L89.0 -70.25 99.5 -48.5 107.75 -26.25 Q131.75 24.75 115.9 63.5 L114.35 67.0 Q109.5 77.45 101.7 87.0 96.7 93.05 90.95 98.35 84.1 104.7 76.65 109.95 L70.0 114.8 54.55 125.65 Q47.5 130.55 40.0 134.7 L39.0 135.25 Q28.1 141.1 16.75 145.25 L5.5 156.0 -0.9 157.9 -14.75 148.25 Q-48.35 142.05 -66.75 128.25 -83.8 124.25 -96.7 116.2 -143.65 86.85 -136.0 3.75 -137.0 -36.25 -99.0 -115.5 -54.75 -204.0 -34.75 -202.5 -10.25 -201.75 32.25 -150.5 L63.25 -109.5" fill="#2e47aa" fill-rule="evenodd" stroke="none"/>
  </g>
</svg>
