<?xml version="1.0" encoding="UTF-8" standalone="no"?>
<svg xmlns:ffdec="https://www.free-decompiler.com/flash" xmlns:xlink="http://www.w3.org/1999/xlink" ffdec:objectType="shape" height="350.25px" width="266.45px" xmlns="http://www.w3.org/2000/svg">
  <g transform="matrix(1.0, 0.0, 0.0, 1.0, 121.6, 203.9)">
    <path d="M-9.3 113.7 L-9.3 113.75 -10.1 113.2 -9.3 113.7" fill="#e58508" fill-rule="evenodd" stroke="none"/>
    <path d="M126.75 -47.5 L126.75 -47.25 127.25 -45.0 127.5 -44.5 137.0 -8.5 140.0 9.0 140.25 10.0 140.5 10.5 140.5 11.25 141.5 16.0 141.5 16.25 144.75 28.75 Q145.25 34.75 143.75 37.5 146.0 51.5 132.75 57.25 131.95 89.85 94.55 113.7 84.55 120.0 72.0 125.75 -12.85 170.0 -61.75 119.25 L-70.75 115.0 -71.25 114.5 -76.25 111.75 Q-82.85 107.95 -88.5 103.65 -116.25 82.55 -120.7 49.5 -121.85 41.1 -121.5 32.5 -121.15 23.15 -119.25 14.0 L-115.4 -5.25 Q-113.5 -15.05 -110.35 -24.5 -90.2 -84.45 -13.25 -171.25 27.25 -211.25 41.5 -202.25 71.25 -190.0 116.75 -77.0 L123.0 -60.25 126.75 -47.5 M-9.3 113.7 L-10.1 113.2 -9.3 113.75 -9.3 113.7" fill="#2e47aa" fill-rule="evenodd" stroke="none"/>
  </g>
</svg>
