<?xml version="1.0" encoding="UTF-8" standalone="no"?>
<svg xmlns:ffdec="https://www.free-decompiler.com/flash" xmlns:xlink="http://www.w3.org/1999/xlink" ffdec:objectType="shape" height="347.55px" width="288.7px" xmlns="http://www.w3.org/2000/svg">
  <g transform="matrix(1.0, 0.0, 0.0, 1.0, 114.0, 197.0)">
    <path d="M8.8 103.95 L9.65 104.4 8.8 103.95" fill="#e58508" fill-rule="evenodd" stroke="none"/>
    <path d="M136.75 -71.75 L147.75 -47.25 159.35 -14.5 Q162.3 -6.15 164.75 2.4 169.25 18.0 172.5 33.9 174.0 41.1 174.6 48.5 174.85 51.4 174.3 54.2 172.2 64.6 162.05 67.2 L160.4 68.0 Q146.35 76.25 132.5 84.75 L132.0 85.5 Q115.65 109.85 99.05 121.5 85.6 130.9 72.0 132.0 1.1 176.4 -61.25 114.5 -74.8 107.35 -84.85 98.6 -118.65 69.15 -113.25 21.75 -107.25 -45.0 -15.5 -141.0 43.25 -203.5 73.0 -196.25 103.5 -173.75 130.0 -81.75 L136.75 -71.75 M8.8 103.95 L9.65 104.4 8.8 103.95" fill="#2e47aa" fill-rule="evenodd" stroke="none"/>
  </g>
</svg>
