<?xml version="1.0" encoding="UTF-8" standalone="no"?>
<svg xmlns:ffdec="https://www.free-decompiler.com/flash" xmlns:xlink="http://www.w3.org/1999/xlink" ffdec:objectType="shape" height="322.6px" width="337.3px" xmlns="http://www.w3.org/2000/svg">
  <g transform="matrix(1.0, 0.0, 0.0, 1.0, 123.4, 162.25)">
    <path d="M158.25 55.0 L154.0 74.5 168.0 74.25 158.25 55.0 M116.5 -162.25 L118.85 -160.05 Q126.9 -152.55 132.15 -142.75 139.2 -129.65 144.3 -115.55 149.45 -101.35 152.45 -86.85 L159.95 -51.65 Q160.7 -48.15 162.2 -44.9 190.4 16.25 211.2 80.05 214.0 88.6 213.9 97.5 213.85 103.25 209.45 106.9 203.4 112.05 195.65 113.7 165.7 120.55 135.5 113.75 126.25 130.5 108.15 138.35 L106.9 138.9 Q87.65 146.85 66.75 149.75 -18.15 186.2 -70.0 97.25 L-77.3 89.05 Q-88.75 74.9 -95.3 57.65 -102.8 37.95 -98.75 17.25 L-105.55 10.35 Q-112.15 3.55 -118.4 -3.95 -128.9 -16.7 -117.3 -29.85 -97.8 -52.0 -72.4 -67.7 -53.4 -79.4 -33.35 -89.35 -26.85 -92.6 -20.8 -96.9 20.4 -126.0 65.2 -148.7 89.5 -160.95 116.5 -162.25" fill="#2e47aa" fill-rule="evenodd" stroke="none"/>
  </g>
</svg>
