<?xml version="1.0" encoding="UTF-8" standalone="no"?>
<svg xmlns:ffdec="https://www.free-decompiler.com/flash" xmlns:xlink="http://www.w3.org/1999/xlink" ffdec:objectType="shape" height="389.0px" width="218.95px" xmlns="http://www.w3.org/2000/svg">
  <g transform="matrix(1.0, 0.0, 0.0, 1.0, 110.25, 120.5)">
    <path d="M-63.25 -103.5 L-61.0 -106.5 Q-58.5 -113.5 -60.0 -114.25 L-56.25 -118.5 -53.0 -120.5 -52.25 -110.25 -53.0 -109.5 Q-54.05 -90.1 -43.75 -73.5 -45.45 -69.8 -49.0 -68.5 L-49.75 -68.75 Q-62.0 -74.0 -63.5 -85.5 -57.25 -93.5 -62.25 -96.75 L-63.0 -98.0 -63.25 -103.5" fill="#ffffff" fill-rule="evenodd" stroke="none"/>
    <path d="M-64.25 -105.75 Q-66.0 -112.5 -60.0 -114.25 -58.5 -113.5 -61.0 -106.5 L-63.25 -103.5 -64.25 -105.75 M-62.25 -96.75 Q-57.25 -93.5 -63.5 -85.5 L-65.5 -89.5 -64.75 -94.25 -62.25 -96.75" fill="#000000" fill-rule="evenodd" stroke="none"/>
    <path d="M-64.25 -105.75 L-63.25 -103.5 -63.0 -98.0 -62.25 -96.75 -64.75 -94.25 -65.5 -89.5 -63.5 -85.5 Q-62.0 -74.0 -49.75 -68.75 -48.85 -54.7 -52.35 -41.8 -53.35 -38.0 -55.75 -34.75 L-60.0 -35.0 -81.0 -37.75 Q-102.5 -42.0 -108.0 -52.5 L-110.0 -58.25 -110.25 -70.25 Q-109.25 -96.75 -64.25 -105.75 M-102.6 148.75 Q-104.1 129.6 -90.5 116.5 L-60.5 145.0 -56.5 145.0 Q-48.8 156.9 -39.25 167.4 -32.85 174.55 -25.25 180.0 L-22.0 201.25 -42.85 207.9 Q-56.65 212.3 -69.95 207.15 -87.4 200.4 -94.45 183.1 -101.2 166.55 -102.6 148.75" fill="#e58508" fill-rule="evenodd" stroke="none"/>
    <path d="M-109.0 -55.25 L-110.25 -61.25 -110.25 -69.75 Q-109.95 -53.5 -101.5 -46.75 -90.75 -39.25 -54.25 -37.0 -83.25 -11.6 -92.4 13.2 L-89.0 -0.5 -81.0 -37.75 Q-104.5 -42.25 -109.0 -55.25 M-31.0 49.25 Q-34.5 110.75 -16.0 155.75 -22.25 150.0 -23.75 154.0 -23.05 197.75 -8.25 260.25 -6.25 263.0 -3.25 263.25 34.25 208.5 34.75 169.75 59.75 167.0 94.5 115.0 113.75 84.75 102.75 25.5 115.5 55.75 101.0 115.0 90.5 161.25 33.0 190.25 20.5 240.0 -2.25 268.5 -13.0 264.25 -21.5 201.25 -66.5 218.5 -79.5 202.75 -86.3 198.1 -93.75 183.0 L-93.55 183.0 Q-77.85 212.7 -35.5 200.0 -61.25 161.5 -89.0 149.5 L-96.5 136.25 Q-99.0 131.75 -100.75 133.75 L-97.75 124.5 Q-92.5 116.5 -90.25 116.25 -114.0 69.8 -103.4 37.25 -106.6 50.7 -100.5 78.5 -88.05 116.4 -60.5 128.0 -62.9 109.15 -66.75 85.25 -46.25 137.75 -30.0 148.0 -30.85 131.3 -32.25 54.0 -33.25 49.0 -31.0 49.25 M36.25 65.5 L37.0 71.75 34.25 155.0 29.25 149.5 Q28.25 148.25 26.5 150.75 34.35 119.85 36.25 65.5" fill="#000000" fill-opacity="0.49803922" fill-rule="evenodd" stroke="none"/>
  </g>
</svg>
