<?xml version="1.0" encoding="UTF-8" standalone="no"?>
<svg xmlns:ffdec="https://www.free-decompiler.com/flash" xmlns:xlink="http://www.w3.org/1999/xlink" ffdec:objectType="shape" height="309.55px" width="344.1px" xmlns="http://www.w3.org/2000/svg">
  <g transform="matrix(1.0, 0.0, 0.0, 1.0, 150.45, 144.2)">
    <path d="M-23.05 60.05 L-23.0 60.05 -22.3 60.85 -23.05 60.05" fill="#e58508" fill-rule="evenodd" stroke="none"/>
    <path d="M-145.45 -7.05 L-134.4 -18.9 -133.0 -20.15 -106.75 -40.75 -62.75 -70.0 -40.0 -83.25 -30.0 -87.75 Q59.25 -154.0 88.25 -142.5 121.25 -123.75 145.25 -22.5 L150.25 -15.0 162.25 13.0 180.75 66.0 191.5 106.0 Q200.25 129.75 173.0 133.25 L145.75 135.5 117.25 132.5 Q112.8 136.75 107.35 140.15 91.25 150.15 66.25 152.75 28.8 171.1 -3.6 162.7 L-3.75 162.65 Q-63.95 148.8 -80.85 93.8 L-80.75 93.75 -80.95 93.55 -85.0 89.5 -97.75 69.0 -103.5 51.0 -116.5 42.25 -117.0 41.75 -127.0 33.55 -133.0 28.3 Q-139.7 22.3 -145.2 15.35 -147.9 12.05 -149.1 8.95 -150.3 5.85 -150.45 2.25 -150.65 -1.4 -145.45 -7.05 M146.0 85.25 L143.75 94.75 150.5 94.75 146.0 85.25 M-23.05 60.05 L-22.3 60.85 -23.0 60.05 -23.05 60.05" fill="#2e47aa" fill-rule="evenodd" stroke="none"/>
    <path d="M-80.95 93.55 L-80.85 93.8" fill="none" stroke="#000000" stroke-linecap="round" stroke-linejoin="round" stroke-width="1.0"/>
  </g>
</svg>
