<?xml version="1.0" encoding="UTF-8" standalone="no"?>
<svg xmlns:ffdec="https://www.free-decompiler.com/flash" xmlns:xlink="http://www.w3.org/1999/xlink" ffdec:objectType="shape" height="303.6px" width="354.95px" xmlns="http://www.w3.org/2000/svg">
  <g transform="matrix(1.0, 0.0, 0.0, 1.0, 159.85, 137.9)">
    <path d="M-9.9 126.35 L-8.15 126.85 -8.15 126.9 -9.9 126.35" fill="#e58508" fill-rule="evenodd" stroke="none"/>
    <path d="M136.0 -22.75 L155.25 11.5 177.0 56.0 192.25 94.25 Q202.35 117.7 176.75 122.5 L176.5 122.5 175.75 122.75 175.25 122.75 153.75 129.75 143.25 131.0 142.75 131.0 142.25 131.25 99.5 135.75 80.5 144.25 75.25 145.25 Q-12.05 195.75 -71.0 121.55 L-73.75 117.95 -76.5 114.15 -79.4 110.4 -86.25 102.75 -86.95 102.0 Q-93.5 94.0 -101.35 87.65 -112.4 78.75 -124.05 70.5 -138.0 60.5 -151.25 49.5 L-156.5 45.65 Q-160.35 42.95 -159.75 35.25 -159.25 33.1 -158.35 31.2 -154.25 22.85 -148.6 15.65 -138.6 2.85 -127.45 -9.0 L-127.0 -9.5 -87.75 -45.75 -57.75 -69.75 Q24.75 -144.5 60.0 -137.25 95.5 -122.5 130.75 -29.0 L136.0 -22.75 M142.25 74.25 L136.0 94.25 152.5 90.75 142.25 74.25 M-9.9 126.35 L-8.15 126.9 -8.15 126.85 -9.9 126.35" fill="#2e47aa" fill-rule="evenodd" stroke="none"/>
  </g>
</svg>
