<?xml version="1.0" encoding="UTF-8" standalone="no"?>
<svg xmlns:ffdec="https://www.free-decompiler.com/flash" xmlns:xlink="http://www.w3.org/1999/xlink" ffdec:objectType="shape" height="297.0px" width="361.65px" xmlns="http://www.w3.org/2000/svg">
  <g transform="matrix(1.0, 0.0, 0.0, 1.0, 169.0, 126.5)">
    <path d="M11.95 -124.0 L15.05 -125.15 21.2 -126.4 Q25.65 -126.9 30.0 -125.1 66.65 -110.05 86.7 -75.35 103.95 -45.5 124.6 -18.1 L135.6 -3.5 141.0 3.75 170.25 49.5 174.7 57.65 Q179.2 65.7 184.45 73.25 192.6 85.1 192.65 99.05 192.65 104.55 187.95 107.45 171.8 117.25 154.4 125.1 L146.5 128.25 146.25 128.5 107.75 141.65 61.5 155.0 Q-10.1 195.05 -74.05 131.65 L-74.05 131.6 -74.25 131.5 -74.05 131.65 -92.25 124.25 -131.0 104.25 Q-136.8 100.05 -142.75 96.35 -153.6 89.65 -161.3 79.8 -165.2 74.85 -168.6 69.55 L-169.0 69.0 Q-163.75 50.85 -152.05 35.85 L-143.45 24.2 -139.25 18.25 -111.5 -16.0 -74.7 -57.6 Q-59.1 -75.45 -41.0 -90.85 -27.75 -102.25 -12.85 -111.3 -0.9 -118.55 11.95 -124.0 M17.9 -48.1 L17.85 -48.6 15.25 -48.25 17.9 -48.1 M151.5 87.5 L136.25 67.75 125.0 99.75 151.5 87.5" fill="#2e47aa" fill-rule="evenodd" stroke="none"/>
    <path d="M17.9 -48.1 L15.25 -48.25 17.85 -48.6 17.9 -48.1" fill="#243773" fill-rule="evenodd" stroke="none"/>
  </g>
</svg>
