<?xml version="1.0" encoding="UTF-8" standalone="no"?>
<svg xmlns:ffdec="https://www.free-decompiler.com/flash" xmlns:xlink="http://www.w3.org/1999/xlink" ffdec:objectType="shape" height="302.15px" width="351.95px" xmlns="http://www.w3.org/2000/svg">
  <g transform="matrix(1.0, 0.0, 0.0, 1.0, 167.5, 136.55)">
    <path d="M56.4 -100.6 Q85.95 -65.95 114.4 -30.55 L117.9 -26.5 121.45 -22.45 125.0 -18.5 156.75 23.0 Q167.4 41.0 180.0 57.45 186.9 66.35 183.15 76.95 182.05 80.15 179.25 82.0 165.2 91.45 152.15 102.25 L149.4 104.35 146.4 106.1 Q144.85 106.95 143.25 107.75 L103.2 129.5 64.75 148.0 55.0 152.0 36.75 161.75 19.25 165.25 Q-29.4 168.65 -70.75 138.0 L-93.75 129.75 -135.75 111.5 Q-150.95 102.95 -162.0 89.4 L-165.0 85.5 -167.2 82.5 -167.5 82.0 Q-161.4 60.9 -151.7 41.25 L-148.8 35.6 -145.7 30.0 -142.5 24.5 -120.5 -12.5 -89.9 -58.2 Q-80.05 -72.85 -68.9 -86.6 -59.35 -98.45 -48.4 -108.8 -36.55 -120.1 -22.15 -128.0 L-18.55 -129.85 Q-14.85 -131.6 -11.3 -133.55 -2.3 -138.6 7.0 -135.2 36.05 -124.5 56.4 -100.6 M143.5 64.75 L129.5 50.0 125.0 77.5 143.5 64.75" fill="#2e47aa" fill-rule="evenodd" stroke="none"/>
  </g>
</svg>
