<?xml version="1.0" encoding="UTF-8" standalone="no"?>
<svg xmlns:ffdec="https://www.free-decompiler.com/flash" xmlns:xlink="http://www.w3.org/1999/xlink" ffdec:objectType="shape" height="308.15px" width="315.3px" xmlns="http://www.w3.org/2000/svg">
  <g transform="matrix(1.0, 0.0, 0.0, 1.0, 158.75, 142.9)">
    <path d="M-7.65 135.5 L-9.05 134.7 -7.65 135.5 M30.0 156.25 L29.75 157.25 29.0 156.75 30.0 156.25" fill="#e58508" fill-rule="evenodd" stroke="none"/>
    <path d="M111.25 22.25 L113.25 36.0 119.0 28.25 111.25 22.25 M83.75 -53.75 L121.75 -17.75 Q144.0 -0.05 155.45 25.4 156.7 28.15 156.5 31.0 156.05 38.15 151.3 44.5 140.5 59.05 128.9 72.85 118.45 85.4 107.45 97.25 L93.45 111.9 Q81.1 124.4 68.05 136.15 51.2 151.4 33.25 165.25 L28.0 164.75 21.25 164.55 8.1 163.5 3.25 163.0 -22.25 159.75 -74.5 149.75 -113.75 138.25 Q-120.55 136.05 -127.3 133.2 -145.85 125.5 -158.75 110.0 L-156.75 90.2 Q-153.8 64.8 -148.65 39.75 -144.3 18.7 -138.4 -1.85 -130.65 -28.7 -120.8 -54.95 -114.15 -72.75 -105.85 -89.8 L-103.1 -95.25 -100.3 -100.65 Q-89.85 -121.2 -73.05 -137.0 -68.0 -141.75 -61.1 -142.45 -47.95 -143.95 -35.25 -140.35 -22.45 -136.8 -11.65 -129.4 -0.45 -121.7 10.6 -113.45 25.85 -102.2 40.6 -89.95 L83.75 -53.75 M30.0 156.25 L29.0 156.75 29.75 157.25 30.0 156.25 M-7.65 135.5 L-9.05 134.7 -7.65 135.5" fill="#2e47aa" fill-rule="evenodd" stroke="none"/>
  </g>
</svg>
