<?xml version="1.0" encoding="UTF-8" standalone="no"?>
<svg xmlns:ffdec="https://www.free-decompiler.com/flash" xmlns:xlink="http://www.w3.org/1999/xlink" ffdec:objectType="shape" height="183.4px" width="142.65px" xmlns="http://www.w3.org/2000/svg">
  <g transform="matrix(1.0, 0.0, 0.0, 1.0, 48.3, 17.15)">
    <path d="M90.65 -9.65 Q99.5 2.1 87.15 8.0 L86.65 10.8 88.3 12.2 Q89.9 13.5 90.6 15.25 91.2 16.7 90.4 18.1 L89.0 20.15 Q82.8 37.0 70.6 51.2 L66.4 55.9 Q40.2 105.4 5.0 94.8 -2.05 103.55 -6.75 113.55 -12.0 124.55 -14.45 137.05 -17.75 154.2 -28.2 166.25 -32.9 143.7 -30.5 120.1 -29.4 109.75 -25.5 100.3 L-22.85 94.65 Q-26.2 93.5 -29.1 92.1 -51.45 81.05 -47.75 52.8 -43.8 22.6 -21.85 2.75 -14.0 -4.35 -3.6 -7.5 36.8 -19.95 78.7 -16.3 86.1 -15.7 90.65 -9.65 M61.35 44.75 L61.35 44.7 60.6 45.65 61.35 44.75 M33.45 77.65 L33.5 77.65 34.4 76.95 33.45 77.65" fill="#2e47aa" fill-rule="evenodd" stroke="none"/>
    <path d="M61.35 44.75 L60.6 45.65 61.35 44.7 61.35 44.75 M33.45 77.65 L34.4 76.95 33.5 77.65 33.45 77.65" fill="#e58508" fill-rule="evenodd" stroke="none"/>
  </g>
</svg>
