<?xml version="1.0" encoding="UTF-8" standalone="no"?>
<svg xmlns:ffdec="https://www.free-decompiler.com/flash" xmlns:xlink="http://www.w3.org/1999/xlink" ffdec:objectType="shape" height="184.0px" width="161.65px" xmlns="http://www.w3.org/2000/svg">
  <g transform="matrix(1.0, 0.0, 0.0, 1.0, 40.0, 8.25)">
    <path d="M88.6 -2.1 Q90.0 -3.25 91.4 -2.75 108.65 -2.5 110.0 15.3 126.3 26.2 119.15 42.3 L121.65 46.25 119.8 51.0 118.3 52.65 118.0 52.85 Q117.85 54.95 113.35 58.7 L113.3 58.65 112.75 59.4 Q110.1 62.0 107.15 63.2 90.85 74.0 50.3 93.65 39.6 112.45 27.0 129.8 25.35 142.05 21.05 153.55 19.2 158.6 18.0 163.75 15.75 173.3 8.65 175.75 0.25 145.15 7.8 114.65 L8.8 114.15 9.0 113.5 10.15 113.3 13.8 102.0 -12.5 100.3 Q-17.4 100.2 -21.6 97.7 -25.9 95.2 -29.15 91.85 -35.55 85.35 -37.95 75.75 -45.35 46.05 -26.3 20.95 -19.2 11.6 -9.1 5.95 36.35 -19.7 85.0 1.0 L88.6 -2.1" fill="#2e47aa" fill-rule="evenodd" stroke="none"/>
  </g>
</svg>
