<?xml version="1.0" encoding="UTF-8" standalone="no"?>
<svg xmlns:ffdec="https://www.free-decompiler.com/flash" xmlns:xlink="http://www.w3.org/1999/xlink" ffdec:objectType="shape" height="169.5px" width="153.25px" xmlns="http://www.w3.org/2000/svg">
  <g transform="matrix(1.0, 0.0, 0.0, 1.0, 73.0, 16.0)">
    <path d="M-68.5 36.0 Q-68.25 23.25 -67.5 10.5 -57.1 22.1 -41.75 23.7 -31.25 24.5 -22.1 19.6 -0.95 8.15 -2.0 -16.0 18.95 8.8 42.55 31.05 48.0 36.15 55.15 38.8 57.15 39.65 59.15 40.6 73.2 46.7 80.25 60.5 L51.0 120.5 38.75 148.25 31.25 153.5 -7.7 135.0 -73.0 107.25 -72.9 106.6 -72.7 105.2 -70.3 81.35 -70.2 80.05 -70.05 77.15 Q-68.9 56.6 -68.5 36.0" fill="#ffffff" fill-rule="evenodd" stroke="none"/>
  </g>
</svg>
