<?xml version="1.0" encoding="UTF-8" standalone="no"?>
<svg xmlns:ffdec="https://www.free-decompiler.com/flash" xmlns:xlink="http://www.w3.org/1999/xlink" ffdec:objectType="shape" height="182.25px" width="148.0px" xmlns="http://www.w3.org/2000/svg">
  <g transform="matrix(1.0, 0.0, 0.0, 1.0, 77.75, 26.5)">
    <path d="M-10.25 -26.5 Q2.65 -10.15 17.15 4.9 30.5 18.75 46.1 30.0 58.65 39.1 70.25 49.25 L51.75 98.25 35.5 145.5 24.75 153.25 14.75 155.75 -7.45 139.85 -41.75 116.5 -77.75 93.25 -77.5 90.15 -77.35 88.3 -75.55 62.95 -75.45 61.9 -75.2 57.25 Q-74.75 49.35 -74.8 41.5 L-75.0 0.0 Q-58.05 17.6 -35.1 10.25 -12.65 2.95 -10.6 -20.8 -10.35 -23.65 -10.25 -26.5" fill="#ffffff" fill-rule="evenodd" stroke="none"/>
  </g>
</svg>
