<?xml version="1.0" encoding="UTF-8" standalone="no"?>
<svg xmlns:ffdec="https://www.free-decompiler.com/flash" xmlns:xlink="http://www.w3.org/1999/xlink" ffdec:objectType="shape" height="193.25px" width="167.05px" xmlns="http://www.w3.org/2000/svg">
  <g transform="matrix(1.0, 0.0, 0.0, 1.0, 88.3, 37.25)">
    <path d="M-18.0 -37.25 Q36.0 32.0 50.0 32.0 L30.25 102.5 18.25 151.5 4.25 154.75 -1.5 148.35 -41.75 107.5 -82.5 69.0 Q-79.75 49.4 -81.75 29.8 -83.8 9.85 -81.75 -10.25 L-79.6 -8.4 Q-60.7 6.25 -38.85 -4.0 -18.2 -13.6 -18.0 -37.25 M75.75 62.25 L77.05 67.2 77.15 67.7 77.25 68.15 77.3 68.4 77.4 68.85 77.75 70.55 77.85 71.0 78.35 74.0 78.7 76.55 78.75 76.8 78.75 77.1 78.45 88.9 77.75 91.4 75.75 95.5 75.45 95.85 Q69.45 102.15 65.2 109.05 58.35 120.35 48.75 130.0 L60.25 103.75 75.75 62.25 M-88.25 123.5 L-88.25 123.0 -39.25 156.0 -52.75 152.75 -64.5 146.75 Q-82.55 140.4 -88.25 123.5" fill="#ffffff" fill-rule="evenodd" stroke="none"/>
  </g>
</svg>
