<?xml version="1.0" encoding="UTF-8" standalone="no"?>
<svg xmlns:ffdec="https://www.free-decompiler.com/flash" xmlns:xlink="http://www.w3.org/1999/xlink" ffdec:objectType="shape" height="207.75px" width="173.85px" xmlns="http://www.w3.org/2000/svg">
  <g transform="matrix(1.0, 0.0, 0.0, 1.0, 94.85, 58.25)">
    <path d="M-7.25 -58.25 L13.6 -22.85 Q24.1 -5.05 36.65 11.3 41.05 17.0 46.0 22.0 L22.0 71.0 9.2 99.2 -8.0 140.25 -8.5 140.5 -58.9 70.35 -82.0 41.25 -71.75 -40.25 Q-54.9 -24.1 -32.45 -31.4 -12.7 -37.75 -7.25 -58.25 M58.35 70.95 L58.9 70.1 Q64.95 59.7 70.5 49.0 79.55 59.85 78.95 73.85 L76.9 87.6 76.4 89.5 66.95 108.5 66.5 109.1 66.05 109.75 65.8 110.05 65.5 110.45 65.1 110.95 64.8 111.35 64.25 112.0 Q37.95 141.15 6.95 146.95 L3.5 147.5 3.75 147.25 6.9 143.55 Q31.55 114.45 51.55 82.3 L52.35 80.95 53.75 78.7 55.15 76.35 55.85 75.2 58.0 71.55 58.35 70.95 M-94.0 89.75 L-92.5 91.25 -84.9 98.65 Q-56.9 125.2 -25.0 146.95 L-23.6 147.95 -21.25 149.5 Q-34.5 146.75 -47.2 142.4 -57.5 138.75 -67.25 133.5 L-85.1 119.05 Q-87.1 117.35 -88.65 115.15 -90.8 112.15 -92.2 109.05 -96.35 99.95 -94.0 89.75" fill="#ffffff" fill-rule="evenodd" stroke="none"/>
  </g>
</svg>
