<?xml version="1.0" encoding="UTF-8" standalone="no"?>
<svg xmlns:ffdec="https://www.free-decompiler.com/flash" xmlns:xlink="http://www.w3.org/1999/xlink" ffdec:objectType="shape" height="204.75px" width="174.55px" xmlns="http://www.w3.org/2000/svg">
  <g transform="matrix(1.0, 0.0, 0.0, 1.0, 90.75, 56.5)">
    <path d="M81.0 61.0 L82.45 67.75 Q85.35 83.65 82.1 95.45 78.55 108.2 67.75 116.0 62.0 121.55 55.35 126.1 37.45 138.45 16.75 145.25 L34.5 125.0 57.5 95.25 81.0 61.0 M-90.25 98.0 L-90.75 96.0 Q-88.5 90.0 -89.5 82.75 L-86.5 78.5 -66.75 100.75 -33.0 133.0 -14.75 148.25 Q-31.65 144.25 -47.65 138.05 -57.65 134.25 -66.75 128.25 L-82.25 115.0 -90.25 98.0 M14.25 -56.5 Q22.0 -39.15 30.55 -22.15 L47.7 12.25 Q52.55 22.05 60.5 29.75 L30.0 85.25 1.25 145.25 -19.75 108.75 -42.75 72.5 -70.25 31.5 -52.25 -46.25 Q-38.05 -27.95 -14.75 -32.0 6.7 -35.55 14.25 -56.5" fill="#ffffff" fill-rule="evenodd" stroke="none"/>
  </g>
</svg>
