<?xml version="1.0" encoding="UTF-8" standalone="no"?>
<svg xmlns:ffdec="https://www.free-decompiler.com/flash" xmlns:xlink="http://www.w3.org/1999/xlink" ffdec:objectType="shape" height="194.2px" width="170.7px" xmlns="http://www.w3.org/2000/svg">
  <g transform="matrix(1.0, 0.0, 0.0, 1.0, 75.2, 34.0)">
    <path d="M27.25 -31.05 Q29.8 -8.35 51.25 -0.1 73.9 8.55 91.25 -9.25 89.95 11.45 88.9 32.3 87.8 53.6 90.35 74.65 L90.75 77.25 68.25 78.55 53.25 79.8 52.0 79.9 37.0 81.25 Q28.9 70.45 20.3 60.15 13.1 51.6 5.6 43.4 L-19.5 16.25 Q-1.9 -3.75 16.45 -22.95 L27.0 -34.0 27.25 -31.05 M24.05 90.55 Q56.55 101.75 90.45 107.25 L95.15 107.95 95.5 108.0 95.0 114.4 Q91.75 137.3 70.05 148.2 L66.75 149.75 Q34.85 163.3 7.65 159.25 -0.2 158.05 -7.6 155.45 -43.15 142.9 -70.0 97.25 -73.15 91.35 -74.4 85.55 -76.2 77.1 -73.85 69.0 L-73.75 68.8 -73.0 66.45 -72.9 66.2 Q-71.7 63.05 -69.9 59.95 L-67.75 56.55 Q-62.7 49.2 -54.0 46.75 L-13.5 67.75 23.5 83.5 23.3 90.3 24.05 90.55" fill="#ffffff" fill-rule="evenodd" stroke="none"/>
  </g>
</svg>
