<?xml version="1.0" encoding="UTF-8" standalone="no"?>
<svg xmlns:ffdec="https://www.free-decompiler.com/flash" xmlns:xlink="http://www.w3.org/1999/xlink" ffdec:objectType="shape" height="166.45px" width="170.0px" xmlns="http://www.w3.org/2000/svg">
  <g transform="matrix(1.0, 0.0, 0.0, 1.0, 85.0, 0.75)">
    <path d="M2.8 129.9 L3.25 130.0 5.25 137.0 7.0 137.2 9.0 137.45 Q28.7 138.1 48.55 137.5 L82.75 136.5 75.25 145.25 Q58.0 157.2 37.85 162.2 25.95 165.15 13.6 165.45 L8.35 165.7 Q-0.3 165.75 -8.6 164.05 -14.65 162.8 -20.45 160.6 -41.2 152.95 -57.4 138.15 -72.5 124.3 -82.0 106.25 L-85.0 94.5 -41.25 114.25 -18.0 123.5 -17.35 123.75 -9.9 126.35 -8.15 126.9 -6.8 127.3 2.8 129.9 M4.6 27.15 Q14.2 33.2 25.35 33.2 47.65 33.25 59.0 13.25 61.2 34.9 64.55 56.45 66.85 71.1 73.3 84.4 L73.6 85.0 Q76.15 90.1 79.5 94.8 83.35 100.15 85.0 106.5 L17.0 125.25 6.75 129.0 9.25 125.0 -25.0 90.75 -58.75 60.75 Q-49.0 50.05 -40.55 38.3 -26.4 18.65 -11.5 -0.75 -10.7 17.5 4.6 27.15" fill="#ffffff" fill-rule="evenodd" stroke="none"/>
  </g>
</svg>
