<?xml version="1.0" encoding="UTF-8" standalone="no"?>
<svg xmlns:ffdec="https://www.free-decompiler.com/flash" xmlns:xlink="http://www.w3.org/1999/xlink" ffdec:objectType="shape" height="157.7px" width="162.25px" xmlns="http://www.w3.org/2000/svg">
  <g transform="matrix(1.0, 0.0, 0.0, 1.0, 73.5, -8.0)">
    <path d="M6.65 35.65 Q29.7 31.2 36.25 8.0 47.2 36.55 61.55 63.45 65.75 71.35 73.25 76.75 L74.9 78.05 76.6 79.45 Q87.55 89.1 88.75 103.0 L52.5 129.5 Q32.55 142.95 16.0 160.25 L19.25 165.25 8.35 165.7 -8.75 164.9 -23.65 162.75 Q-28.9 161.85 -33.4 159.6 -52.8 150.1 -70.75 138.0 L-29.05 150.45 -26.75 151.15 Q-17.2 153.95 -7.65 155.85 -0.05 157.35 7.55 158.25 L9.95 158.5 10.95 157.55 13.0 153.75 7.0 148.75 Q-0.2 142.8 -7.6 137.15 L-16.75 130.2 -23.75 125.0 -73.5 91.0 -65.45 76.2 -60.95 67.25 Q-47.15 39.55 -35.75 10.75 -34.15 16.2 -30.75 20.95 -17.0 39.95 6.65 35.65" fill="#ffffff" fill-rule="evenodd" stroke="none"/>
  </g>
</svg>
