<?xml version="1.0" encoding="UTF-8" standalone="no"?>
<svg xmlns:ffdec="https://www.free-decompiler.com/flash" xmlns:xlink="http://www.w3.org/1999/xlink" ffdec:objectType="shape" height="175.15px" width="158.75px" xmlns="http://www.w3.org/2000/svg">
  <g transform="matrix(1.0, 0.0, 0.0, 1.0, 73.75, 10.0)">
    <path d="M-57.5 153.0 L-22.25 159.75 3.25 163.0 Q-0.2 165.55 -8.8 165.1 -24.55 164.15 -57.5 153.0 M62.45 49.65 L69.9 54.7 Q80.65 62.3 85.0 74.5 L52.0 121.25 30.0 156.25 29.0 156.75 6.9 143.95 -5.85 136.55 -7.65 135.5 -9.05 134.7 -13.25 132.25 -73.75 101.75 Q-70.65 90.25 -68.0 78.65 L-66.55 72.05 Q-63.9 59.85 -62.2 47.5 L-57.0 9.0 Q-48.35 22.1 -33.25 25.6 -22.4 27.95 -12.05 23.65 9.85 14.4 11.5 -10.0 L32.7 20.6 Q44.85 38.1 62.45 49.65" fill="#ffffff" fill-rule="evenodd" stroke="none"/>
  </g>
</svg>
