<?xml version="1.0" encoding="UTF-8" standalone="no"?>
<svg xmlns:ffdec="https://www.free-decompiler.com/flash" xmlns:xlink="http://www.w3.org/1999/xlink" ffdec:objectType="shape" height="316.65px" width="262.55px" xmlns="http://www.w3.org/2000/svg">
  <g transform="matrix(1.0, 0.0, 0.0, 1.0, 152.25, 114.3)">
    <path d="M-83.0 -80.0 Q-84.75 -80.5 -89.5 -86.5 L-92.5 -95.5 Q-83.75 -111.0 -66.0 -108.5 -50.75 -119.75 -35.25 -109.25 L-33.75 -100.75 -35.75 -92.75 Q-36.75 -85.75 -60.25 -87.0 -79.0 -74.5 -83.0 -80.0 M-68.5 -93.25 L-72.5 -95.0 -75.5 -95.0 Q-83.25 -85.25 -73.0 -84.75 L-68.75 -86.25 Q-67.0 -90.25 -68.5 -93.25 M-50.5 -90.5 Q-38.5 -100.25 -52.75 -100.5 -61.5 -96.75 -50.5 -90.5" fill="#ffffff" fill-rule="evenodd" stroke="none"/>
    <path d="M-35.75 -92.75 Q-29.5 -91.15 -24.95 -86.55 -9.4 -70.85 -13.0 -48.0 -15.45 -37.1 -21.9 -27.9 -27.9 -19.3 -37.75 -16.4 -61.0 -9.85 -77.5 -25.75 -83.3 -33.3 -87.25 -41.85 -96.55 -62.1 -83.0 -80.0 -79.0 -74.5 -60.25 -87.0 -36.75 -85.75 -35.75 -92.75 M-95.75 131.75 L-73.25 139.0 -66.25 140.0 -66.0 140.0 Q-49.7 150.25 -30.5 152.0 -19.55 158.2 -8.75 164.9 -11.0 178.1 -16.5 190.65 -17.6 193.2 -19.6 195.25 -21.0 196.75 -22.95 197.8 -30.45 201.6 -39.1 201.85 L-65.45 201.05 Q-81.95 198.15 -95.2 188.5 -106.5 180.35 -110.05 167.15 -112.0 159.95 -110.95 152.5 -109.25 140.1 -103.9 129.0 -99.95 130.65 -95.75 131.75 M83.95 97.95 Q94.6 112.3 102.55 128.2 108.25 139.7 110.0 152.35 111.55 163.75 105.55 173.55 95.8 189.5 78.3 196.05 61.6 202.35 43.75 201.65 34.95 201.5 26.75 198.65 14.05 194.25 11.1 181.1 10.0 176.3 9.2 171.45 11.0 170.35 12.7 168.2 L11.5 166.0 27.0 142.75 Q70.0 113.5 70.0 104.75 75.95 99.45 81.0 94.05 L83.95 97.95" fill="#e58508" fill-rule="evenodd" stroke="none"/>
    <path d="M-50.5 -90.5 Q-61.5 -96.75 -52.75 -100.5 -38.5 -100.25 -50.5 -90.5 M-68.5 -93.25 Q-67.0 -90.25 -68.75 -86.25 L-73.0 -84.75 Q-83.25 -85.25 -75.5 -95.0 L-72.5 -95.0 -68.5 -93.25" fill="#000000" fill-rule="evenodd" stroke="none"/>
    <path d="M14.25 -57.5 L53.5 15.0 41.75 44.0 Q37.5 30.6 33.65 17.15 23.1 -20.05 13.35 -57.5 L14.25 -57.5 M81.25 95.0 L89.5 106.0 83.5 110.75 Q91.5 128.4 91.25 147.75 L88.0 150.0 77.25 191.0 Q89.9 187.9 99.3 179.15 106.35 172.45 110.0 163.5 107.2 177.4 96.45 185.6 80.7 197.65 60.7 200.55 43.75 202.75 27.3 197.4 9.5 191.7 9.5 172.75 L2.95 171.95 Q1.15 170.3 -0.85 169.0 L-3.7 167.25 -6.8 165.85 -8.5 165.25 Q-8.85 177.7 -14.3 188.8 -20.25 201.0 -33.75 202.0 L-60.65 201.15 Q-81.1 198.65 -97.5 186.85 -105.25 181.25 -108.8 172.45 -110.45 168.4 -111.25 164.0 -108.7 174.05 -100.15 180.25 -76.25 197.65 -46.7 197.5 L-37.5 197.25 -37.25 189.75 Q-31.25 189.8 -25.9 187.45 -22.1 185.7 -19.5 182.65 -16.8 179.5 -15.7 175.45 -32.65 173.65 -48.0 165.95 -61.45 159.3 -74.95 152.9 -91.3 145.3 -108.75 141.25 L-103.45 127.8 Q-111.65 125.55 -117.65 119.05 -131.1 104.4 -139.05 86.5 -148.95 64.25 -151.1 39.95 -155.8 -13.5 -141.35 -65.1 L-139.5 -71.5 Q-144.4 -40.55 -146.85 -9.35 -147.75 2.45 -146.25 14.5 L-141.5 -48.0 -140.75 -48.5 Q-139.85 -18.35 -135.8 11.3 -132.05 39.05 -121.5 64.5 L-120.25 64.0 Q-105.25 82.3 -88.45 99.0 -64.3 122.95 -37.05 143.05 -15.85 158.7 6.95 171.65 L9.25 168.75 12.5 167.5 11.5 166.25 11.5 164.5 14.25 161.5 Q29.35 132.45 45.5 103.75 L46.25 103.5 Q59.6 77.2 71.5 50.05 L75.8 39.6 Q74.0 60.2 80.25 79.75 90.15 71.15 96.95 59.85 106.05 44.85 106.4 27.25 106.7 12.75 102.0 -1.0 107.45 13.6 108.35 28.9 109.5 49.5 100.6 68.05 93.35 83.15 81.25 95.0 M51.4 18.35 L51.35 18.25 51.3 18.15 51.4 18.35 M17.0 170.0 L13.25 172.75 Q16.0 177.85 20.25 180.9 27.6 186.1 36.5 189.25 L36.75 196.25 39.5 196.5 53.0 152.5 17.0 170.0 M55.25 93.5 L54.5 93.75 48.75 106.0 48.0 106.25 44.75 113.0 44.0 113.25 36.75 126.0 37.0 127.0 Q59.2 117.55 55.25 93.5 M1.0 151.5 L-7.5 140.75 7.5 139.5 Q5.5 151.5 2.0 151.5 L1.0 151.5 M-90.25 -57.5 Q-74.9 -9.85 -52.0 -15.0 -15.65 -21.8 -13.05 -44.85 -14.55 15.05 -51.25 20.0 -87.65 24.7 -90.7 -57.5 L-90.25 -57.5 M-108.5 103.5 Q-104.25 108.5 -91.25 113.0 -87.0 106.0 -108.0 91.5 L-108.5 103.5" fill="#000000" fill-opacity="0.49803922" fill-rule="evenodd" stroke="none"/>
  </g>
</svg>
