<?xml version="1.0" encoding="UTF-8" standalone="no"?>
<svg xmlns:ffdec="https://www.free-decompiler.com/flash" xmlns:xlink="http://www.w3.org/1999/xlink" ffdec:objectType="shape" height="330.1px" width="259.15px" xmlns="http://www.w3.org/2000/svg">
  <g transform="matrix(1.0, 0.0, 0.0, 1.0, 146.8, 127.5)">
    <path d="M-45.0 -113.25 L-41.75 -115.0 Q-40.25 -116.0 -36.75 -113.5 -32.75 -107.25 -40.0 -104.25 -49.0 -105.0 -45.0 -113.25 M-62.25 -100.25 Q-74.0 -101.5 -68.0 -110.0 -53.5 -112.0 -62.25 -100.25" fill="#000000" fill-rule="evenodd" stroke="none"/>
    <path d="M-73.75 -95.25 Q-75.15 -96.5 -75.95 -98.0 -79.25 -104.25 -82.0 -110.75 -75.15 -125.4 -58.75 -123.75 L-58.0 -123.25 Q-42.1 -131.8 -26.8 -123.15 L-25.25 -122.25 -25.1 -121.5 -24.5 -121.0 -23.5 -113.25 Q-24.25 -107.25 -26.25 -104.5 -28.0 -98.25 -51.25 -101.25 -70.25 -90.5 -73.75 -95.25 M-62.25 -100.25 Q-53.5 -112.0 -68.0 -110.0 -74.0 -101.5 -62.25 -100.25 M-45.0 -113.25 Q-49.0 -105.0 -40.0 -104.25 -32.75 -107.25 -36.75 -113.5 -40.25 -116.0 -41.75 -115.0 L-45.0 -113.25" fill="#ffffff" fill-rule="evenodd" stroke="none"/>
    <path d="M-26.25 -104.5 Q-18.7 -101.15 -13.7 -94.65 -1.5 -78.6 -7.25 -58.25 -12.7 -37.75 -32.45 -31.4 -54.9 -24.1 -71.75 -40.25 -76.5 -47.15 -79.75 -55.0 -88.7 -76.7 -73.75 -95.25 -70.25 -90.5 -51.25 -101.25 -28.0 -98.25 -26.25 -104.5 M-102.05 125.4 L-99.8 121.4 Q-85.65 129.55 -67.25 133.5 -57.5 138.75 -47.2 142.4 -34.5 146.75 -21.25 149.5 -13.95 154.4 -7.5 153.7 -8.65 172.8 -16.5 190.65 -17.6 193.2 -19.6 195.25 -21.0 196.75 -22.95 197.8 -30.45 201.6 -39.1 201.85 L-65.45 201.05 Q-81.95 198.15 -95.2 188.5 -106.5 180.35 -110.05 167.15 -112.0 159.95 -110.95 152.5 -108.95 138.05 -102.05 125.4 M83.95 97.95 Q94.6 112.3 102.55 128.2 108.25 139.7 110.0 152.35 111.55 163.75 105.55 173.55 95.8 189.5 78.3 196.05 61.6 202.35 43.75 201.65 34.95 201.5 26.75 198.65 14.05 194.25 11.1 181.1 7.3 164.15 6.95 146.95 37.95 141.15 64.25 112.0 74.95 104.9 83.35 97.15 L83.95 97.95" fill="#e58508" fill-rule="evenodd" stroke="none"/>
    <path d="M21.5 -63.0 L50.9 11.8 53.25 8.0 54.5 7.5 42.5 29.5 41.75 28.75 20.75 -63.5 21.5 -63.0 M55.5 83.75 L54.0 78.5 Q36.7 106.75 15.75 132.25 L16.5 132.75 48.5 116.0 49.2 110.65 Q50.95 96.85 55.5 83.75 M107.25 0.5 Q113.75 13.25 112.0 48.5 110.75 70.25 83.25 97.75 L91.5 108.75 86.75 112.0 Q92.0 128.5 90.0 143.75 L86.75 145.75 80.0 168.5 72.25 182.75 69.25 192.75 Q99.0 188.25 109.5 163.5 L109.75 166.0 105.25 176.25 Q83.75 205.5 29.0 199.75 23.75 198.5 19.5 195.75 L14.75 190.75 Q8.0 180.25 7.25 147.25 L3.5 147.5 Q-4.5 159.25 -8.75 156.75 L-9.0 164.0 -10.75 176.0 -12.5 183.5 -15.25 190.5 -18.5 195.25 -25.0 199.25 -33.25 201.5 -43.0 202.5 Q-92.75 204.5 -110.75 167.25 L-112.0 157.0 -110.25 156.5 Q-99.75 165.75 -90.5 186.75 -81.0 193.75 -57.75 196.5 L-57.0 197.5 -37.5 197.25 -37.25 189.75 Q-15.0 186.75 -13.75 172.5 -15.5 169.25 -33.25 170.25 L-63.25 160.25 Q-97.75 131.0 -105.0 133.5 L-104.75 131.25 -99.75 121.5 Q-120.5 114.75 -138.25 73.5 L-140.55 63.5 Q-153.45 5.7 -139.8 -51.95 L-137.05 -62.95 Q-144.0 -34.4 -142.95 -5.0 -142.6 4.05 -141.5 12.75 L-132.8 -60.85 Q-137.05 -14.65 -127.75 30.85 L-125.0 43.75 -110.5 62.1 -78.0 96.75 -53.75 119.75 -20.25 147.75 -8.5 155.5 Q80.85 43.3 79.5 15.55 81.3 28.35 77.25 35.5 L79.25 46.25 83.75 82.25 84.0 82.75 85.75 81.5 99.5 66.0 Q116.5 40.25 107.25 0.5 M33.75 189.0 L48.25 154.75 48.0 154.0 Q31.25 163.7 12.5 169.25 L12.95 171.4 Q17.0 187.75 33.75 189.0 M-5.75 -67.0 Q-1.25 -10.5 -48.0 2.0 -83.5 2.25 -83.0 -74.0 -77.0 -31.0 -49.0 -29.5 -7.25 -31.75 -5.75 -67.0 M-106.0 77.5 L-108.5 96.25 -105.0 99.6 Q-99.6 104.45 -93.0 107.0 L-93.1 104.65 Q-92.95 98.15 -93.75 91.75 -75.0 117.8 -46.25 131.5 L-106.0 77.5" fill="#000000" fill-opacity="0.49803922" fill-rule="evenodd" stroke="none"/>
  </g>
</svg>
