<?xml version="1.0" encoding="UTF-8" standalone="no"?>
<svg xmlns:ffdec="https://www.free-decompiler.com/flash" xmlns:xlink="http://www.w3.org/1999/xlink" ffdec:objectType="shape" height="332.4px" width="259.2px" xmlns="http://www.w3.org/2000/svg">
  <g transform="matrix(1.0, 0.0, 0.0, 1.0, 137.6, 129.5)">
    <path d="M-0.5 -105.25 Q5.35 -102.35 8.95 -97.05 21.55 -78.65 14.25 -56.5 6.7 -35.55 -14.75 -32.0 -38.05 -27.95 -52.25 -46.25 L-57.75 -58.0 Q-68.25 -78.0 -48.75 -100.25 -39.5 -96.0 -25.25 -104.0 -3.0 -99.0 -0.5 -105.25 M55.35 126.1 Q62.0 121.55 67.75 116.0 78.35 109.3 86.9 102.0 95.7 114.55 102.55 128.2 108.25 139.7 110.0 152.35 111.55 163.75 105.55 173.55 95.8 189.5 78.3 196.05 61.6 202.35 43.75 201.65 34.95 201.5 26.75 198.65 14.05 194.25 11.1 181.1 8.1 167.8 7.25 154.35 L16.75 145.25 Q37.45 138.45 55.35 126.1 M-102.05 125.4 L-96.7 116.2 Q-83.8 124.25 -66.75 128.25 -57.65 134.25 -47.65 138.05 -31.65 144.25 -14.75 148.25 L-7.45 153.35 Q-8.6 172.6 -16.5 190.65 -17.6 193.2 -19.6 195.25 -21.0 196.75 -22.95 197.8 -30.45 201.6 -39.1 201.85 L-65.45 201.05 Q-81.95 198.15 -95.2 188.5 -106.5 180.35 -110.05 167.15 -112.0 159.95 -110.95 152.5 -108.95 138.05 -102.05 125.4" fill="#e58508" fill-rule="evenodd" stroke="none"/>
    <path d="M-0.5 -105.25 Q-3.0 -99.0 -25.25 -104.0 -39.5 -96.0 -48.75 -100.25 -51.0 -101.75 -54.5 -108.75 L-55.25 -116.5 Q-49.75 -129.0 -34.5 -127.5 L-30.75 -127.25 -30.25 -127.0 -27.25 -126.25 -26.7 -126.6 Q-9.75 -134.35 2.75 -121.25 3.75 -111.25 -0.5 -105.25 M-15.25 -116.75 Q-26.0 -113.75 -13.75 -106.0 -3.0 -114.75 -15.25 -116.75 M-40.75 -114.25 Q-46.75 -104.5 -36.75 -104.0 -26.25 -115.0 -40.75 -114.25" fill="#ffffff" fill-rule="evenodd" stroke="none"/>
    <path d="M-40.75 -114.25 Q-26.25 -115.0 -36.75 -104.0 -46.75 -104.5 -40.75 -114.25 M-15.25 -116.75 Q-3.0 -114.75 -13.75 -106.0 -26.0 -113.75 -15.25 -116.75" fill="#000000" fill-rule="evenodd" stroke="none"/>
    <path d="M-128.1 -40.4 Q-130.0 -31.2 -130.95 -22.0 -135.1 17.25 -126.5 55.75 L-114.95 -52.9 -115.6 -36.3 Q-116.8 -0.3 -111.25 35.25 -84.9 67.35 -58.8 97.95 -32.15 129.2 -1.5 156.5 1.5 156.15 4.5 154.9 7.4 153.65 9.35 151.35 48.9 104.75 81.55 53.0 90.0 39.6 95.15 25.0 96.3 50.1 99.25 75.25 L100.85 73.7 Q115.75 58.0 117.5 36.15 119.15 15.15 114.0 -5.25 118.3 5.75 120.25 17.2 124.85 43.85 113.55 68.05 104.1 88.25 87.5 103.0 L90.05 107.4 Q102.5 127.35 106.25 149.75 103.55 152.55 101.8 156.15 95.6 168.95 92.75 183.0 96.6 181.55 99.85 179.0 103.1 176.35 105.4 172.9 108.35 168.65 109.5 163.5 108.95 167.1 107.65 170.5 104.35 179.05 97.35 185.1 88.65 192.7 77.55 196.1 53.85 203.3 28.95 200.8 21.65 199.8 17.9 193.55 7.2 175.7 7.75 154.75 L-0.1 157.85 -8.0 153.25 Q-7.25 161.15 -7.95 168.9 -9.2 183.55 -19.1 194.25 -23.1 198.6 -28.75 200.75 -33.5 202.6 -38.55 202.75 -54.25 203.55 -69.55 200.05 -81.1 197.65 -90.75 191.15 -100.8 184.4 -107.4 174.2 -113.55 164.7 -111.1 153.55 -106.6 133.3 -95.75 115.5 L-98.2 114.1 Q-108.95 107.55 -116.9 97.7 -123.45 89.7 -127.3 79.8 -139.05 49.8 -137.4 17.1 -135.85 -13.75 -127.75 -43.5 -127.8 -41.95 -128.1 -40.4 M17.25 -73.5 Q18.95 -52.0 12.3 -31.5 8.2 -18.75 -2.55 -10.85 -17.65 0.3 -35.2 -4.75 -40.05 -6.0 -42.95 -9.95 -60.95 -34.4 -60.1 -65.45 -56.3 -49.1 -42.4 -39.6 -23.25 -26.6 -3.5 -38.95 15.45 -50.85 17.25 -73.5 M-88.5 89.5 Q-79.7 111.7 -58.75 123.5 -45.65 130.85 -31.25 134.5 L-89.25 75.5 -90.55 92.6 -90.2 91.65 -88.5 89.5 M-96.5 144.75 Q-86.3 158.85 -77.4 173.85 -71.25 184.3 -66.5 195.5 L-37.5 197.25 -37.25 189.75 -32.55 189.3 Q-27.45 188.5 -23.0 185.85 -18.75 183.4 -16.65 178.6 -14.95 174.85 -13.9 170.75 -21.75 167.9 -29.9 166.5 -51.4 163.4 -69.1 150.65 -82.25 141.3 -94.75 131.0 L-96.5 144.75 M66.0 17.75 L67.0 18.5 70.45 14.0 69.55 16.35 68.6 18.6 Q66.3 24.0 61.75 27.75 L59.25 33.0 41.75 -57.0 66.0 17.75 M64.0 85.5 L63.25 87.5 31.0 129.75 Q45.95 124.15 58.9 115.1 79.85 100.35 68.5 80.0 L64.0 85.5 M74.75 136.5 Q57.15 149.8 37.6 160.4 25.75 166.9 12.5 170.25 13.7 177.15 18.85 181.9 23.65 186.35 30.0 188.15 33.15 189.0 36.5 189.25 L36.75 196.25 49.0 196.75 Q57.45 170.25 70.8 145.7 L75.25 137.75 74.75 136.5" fill="#000000" fill-opacity="0.49803922" fill-rule="evenodd" stroke="none"/>
  </g>
</svg>
