<?xml version="1.0" encoding="UTF-8" standalone="no"?>
<svg xmlns:ffdec="https://www.free-decompiler.com/flash" xmlns:xlink="http://www.w3.org/1999/xlink" ffdec:objectType="shape" height="333.25px" width="256.55px" xmlns="http://www.w3.org/2000/svg">
  <g transform="matrix(1.0, 0.0, 0.0, 1.0, 128.25, 130.1)">
    <path d="M13.75 -106.5 Q2.0 -108.25 13.25 -117.25 24.0 -113.75 13.75 -106.5 M-9.0 -106.5 Q-20.5 -108.0 -13.25 -116.75 1.0 -117.0 -9.0 -106.5" fill="#000000" fill-rule="evenodd" stroke="none"/>
    <path d="M-23.0 -103.75 L-27.75 -112.5 -27.75 -120.5 Q-16.15 -134.85 1.5 -127.75 L3.4 -128.4 Q20.05 -133.7 30.25 -120.0 L30.0 -112.25 25.5 -104.25 Q22.75 -98.5 1.5 -105.25 L-11.75 -101.5 Q-22.5 -100.75 -23.0 -103.75 M13.75 -106.5 Q24.0 -113.75 13.25 -117.25 2.0 -108.25 13.75 -106.5 M-9.0 -106.5 Q1.0 -117.0 -13.25 -116.75 -20.5 -108.0 -9.0 -106.5" fill="#ffffff" fill-rule="evenodd" stroke="none"/>
    <path d="M-23.0 -103.75 Q-22.5 -100.75 -11.75 -101.5 L1.5 -105.25 Q22.75 -98.5 25.5 -104.25 31.75 -100.85 34.8 -94.55 44.4 -74.55 35.5 -53.75 25.65 -32.7 3.0 -32.15 -19.05 -31.6 -31.5 -51.25 -34.45 -58.65 -36.3 -66.2 -41.7 -88.35 -23.0 -103.75 M26.0 147.5 L30.0 143.25 Q67.5 127.5 70.75 120.5 82.2 116.25 91.75 109.2 97.65 118.4 102.55 128.2 108.25 139.7 110.0 152.35 111.55 163.75 105.55 173.55 95.8 189.5 78.3 196.05 61.6 202.35 43.75 201.65 34.95 201.5 26.75 198.65 14.05 194.25 11.1 181.1 8.35 168.95 7.4 156.7 L7.5 156.75 Q10.0 157.75 13.5 154.5 L17.25 154.75 26.0 147.5 M-102.05 125.4 Q-97.55 117.15 -92.4 109.35 -80.5 117.65 -64.75 123.5 L-47.25 136.75 Q-23.25 148.65 -7.3 148.05 -7.5 170.15 -16.5 190.65 -17.6 193.2 -19.6 195.25 -21.0 196.75 -22.95 197.8 -30.45 201.6 -39.1 201.85 L-65.45 201.05 Q-81.95 198.15 -95.2 188.5 -106.5 180.35 -110.05 167.15 -112.0 159.95 -110.95 152.5 -108.95 138.05 -102.05 125.4" fill="#e58508" fill-rule="evenodd" stroke="none"/>
    <path d="M6.3 -34.9 Q22.75 -35.75 31.9 -49.45 38.4 -59.2 40.15 -70.95 L40.5 -73.5 Q43.15 -48.45 32.6 -25.6 22.2 -3.7 -1.5 -4.85 -19.5 -6.05 -27.05 -22.8 -35.8 -42.15 -37.0 -63.5 L-37.25 -69.25 Q-28.3 -32.5 6.3 -34.9 M63.5 -45.75 Q68.3 -23.55 73.25 -1.45 76.6 13.25 82.5 27.25 L71.05 43.15 76.0 35.25 62.5 -46.0 63.5 -45.75 M-63.0 11.0 L-67.0 4.75 -55.25 -59.0 -63.0 11.0 M-70.75 74.5 Q-75.5 89.0 -70.2 103.0 -63.05 121.7 -43.55 128.35 -30.6 132.8 -17.0 135.0 L-54.65 93.95 -70.75 74.5 M-97.95 9.2 Q-98.1 14.35 -97.55 19.45 -97.1 23.6 -94.75 26.85 -89.2 34.65 -84.0 43.0 -72.0 62.25 -58.15 80.25 -44.35 98.25 -29.85 115.65 -12.35 136.7 7.5 155.5 L12.45 153.2 10.75 151.0 18.0 153.25 Q29.15 142.4 39.05 130.55 47.65 120.2 55.75 109.35 L76.2 82.35 Q90.85 63.2 103.0 42.35 L96.4 49.7 Q101.75 40.95 106.15 31.75 109.1 25.5 109.6 18.55 L115.25 61.25 116.25 61.0 Q119.5 52.4 121.65 43.55 124.25 32.95 124.8 21.95 125.75 3.55 122.15 -14.45 124.3 -6.3 125.7 2.2 128.55 19.75 128.25 37.65 127.95 54.6 122.4 70.6 120.05 77.45 116.35 83.65 112.4 90.3 107.25 95.9 100.35 103.35 91.5 108.5 L99.0 120.2 Q111.4 139.1 110.05 161.1 109.65 168.1 106.0 174.25 101.05 182.45 93.3 188.05 87.0 192.65 79.55 195.35 67.65 199.85 55.05 201.7 40.5 203.6 26.8 199.0 20.65 196.95 16.15 192.25 11.85 187.8 10.8 181.65 8.6 169.0 7.5 156.25 L-3.25 147.75 -7.75 147.5 -7.5 152.7 Q-6.75 165.3 -9.8 177.55 -11.4 184.05 -15.0 189.6 -17.7 193.85 -21.3 197.25 -25.05 200.75 -30.05 201.7 -51.2 205.45 -72.3 199.65 -81.45 197.1 -89.35 192.1 -95.85 187.95 -100.95 182.15 -107.6 174.7 -111.25 165.75 L-110.75 164.0 -109.1 168.75 -107.75 171.65 -105.95 174.35 -104.15 176.6 Q-101.55 179.65 -97.75 181.25 L-105.5 159.75 -108.75 158.5 Q-110.4 154.25 -110.45 149.75 -110.5 142.85 -107.7 136.65 -101.2 122.4 -92.25 109.5 -96.2 107.85 -99.65 105.15 -108.7 98.05 -114.35 88.15 -121.25 75.95 -124.6 62.35 -128.25 47.7 -128.25 32.5 -128.3 8.75 -122.05 -14.25 -124.5 -1.8 -125.0 10.6 -125.65 26.0 -122.85 41.15 -119.25 60.55 -109.75 78.0 L-109.0 77.0 -96.5 -50.75 Q-97.15 -20.7 -97.95 9.2 M-77.25 139.25 Q-65.3 157.2 -55.6 176.1 -50.25 186.55 -46.25 197.75 L-37.5 197.25 -37.25 189.75 Q-27.55 189.75 -20.25 183.7 -16.85 180.85 -15.35 176.75 -14.1 173.4 -13.65 169.95 -26.25 166.3 -37.7 160.4 -58.05 150.0 -77.25 137.5 L-77.25 139.25 M12.5 170.75 Q13.35 173.25 14.5 175.6 21.05 189.0 36.5 189.25 L36.75 196.25 55.75 196.55 56.5 195.5 66.25 194.5 Q77.6 167.9 91.75 142.75 L88.5 129.5 83.35 133.95 Q52.1 159.6 12.5 170.75 M79.95 95.85 Q83.4 88.8 83.5 81.0 L48.5 124.25 Q70.05 116.4 79.95 95.85" fill="#000000" fill-opacity="0.49803922" fill-rule="evenodd" stroke="none"/>
  </g>
</svg>
