<?xml version="1.0" encoding="UTF-8" standalone="no"?>
<svg xmlns:ffdec="https://www.free-decompiler.com/flash" xmlns:xlink="http://www.w3.org/1999/xlink" ffdec:objectType="shape" height="334.2px" width="264.8px" xmlns="http://www.w3.org/2000/svg">
  <g transform="matrix(1.0, 0.0, 0.0, 1.0, 121.55, 131.15)">
    <path d="M39.5 -105.5 L35.25 -106.25 Q33.0 -109.75 33.75 -112.75 33.25 -114.0 36.5 -115.5 L41.25 -116.0 Q49.0 -111.25 39.5 -105.5 M16.75 -107.5 Q5.0 -109.75 14.0 -118.25 27.5 -116.75 16.75 -107.5" fill="#000000" fill-rule="evenodd" stroke="none"/>
    <path d="M2.25 -105.75 Q-0.5 -109.0 -1.5 -113.5 L-1.25 -123.0 Q11.8 -136.4 29.0 -127.75 L30.95 -128.2 Q47.85 -132.0 56.5 -117.5 L55.25 -109.25 50.5 -102.25 Q39.25 -97.75 26.75 -105.25 4.5 -100.5 2.25 -105.75 M16.75 -107.5 Q27.5 -116.75 14.0 -118.25 5.0 -109.75 16.75 -107.5 M39.5 -105.5 Q49.0 -111.25 41.25 -116.0 L36.5 -115.5 Q33.25 -114.0 33.75 -112.75 33.0 -109.75 35.25 -106.25 L39.5 -105.5" fill="#ffffff" fill-rule="evenodd" stroke="none"/>
    <path d="M2.25 -105.75 Q4.5 -100.5 26.75 -105.25 39.25 -97.75 50.5 -102.25 56.7 -99.05 58.7 -92.35 65.1 -70.6 55.25 -50.0 42.65 -29.95 19.2 -32.9 -2.0 -35.6 -11.25 -55.25 -13.85 -62.3 -14.9 -69.65 -18.2 -92.25 2.25 -105.75 M-102.05 125.4 Q-95.9 114.1 -88.5 103.65 -82.85 107.95 -76.25 111.75 L-71.25 114.5 -70.75 115.0 -61.75 119.25 Q-46.9 136.05 -25.4 142.45 -16.4 145.15 -7.3 146.15 -7.15 169.3 -16.5 190.65 -17.6 193.2 -19.6 195.25 -21.0 196.75 -22.95 197.8 -30.45 201.6 -39.1 201.85 L-65.45 201.05 Q-81.95 198.15 -95.2 188.5 -106.5 180.35 -110.05 167.15 -112.0 159.95 -110.95 152.5 -108.95 138.05 -102.05 125.4 M57.55 135.25 Q65.75 132.05 72.0 125.75 84.55 120.0 94.55 113.7 98.85 120.75 102.55 128.2 108.25 139.7 110.0 152.35 111.55 163.75 105.55 173.55 95.8 189.5 78.3 196.05 61.6 202.35 43.75 201.65 34.95 201.5 26.75 198.65 14.05 194.25 11.1 181.1 7.25 164.05 6.95 146.7 L15.1 146.05 Q37.05 143.35 57.55 135.25" fill="#e58508" fill-rule="evenodd" stroke="none"/>
    <path d="M62.25 -76.5 Q68.5 -19.75 30.75 -3.25 -8.5 5.0 -15.0 -70.0 -6.25 -30.0 30.25 -33.5 60.75 -41.0 62.25 -76.5 M95.0 -19.5 L112.5 27.5 113.25 28.0 113.2 29.25 105.5 37.25 88.25 -39.5 95.0 -19.5 M143.25 46.5 L140.75 52.0 Q138.0 55.5 134.0 57.0 L133.0 57.75 132.25 63.75 128.75 75.25 118.25 93.75 117.55 94.5 95.0 114.5 100.0 126.95 97.35 128.6 Q84.65 137.05 75.9 149.5 L75.25 150.25 70.0 153.75 39.5 167.25 18.75 169.25 13.0 171.0 Q12.75 185.75 36.5 189.25 L36.75 196.25 55.75 196.5 Q104.5 187.0 109.25 164.25 L110.0 163.5 109.75 165.75 105.25 176.25 99.75 183.0 Q72.5 207.0 25.25 198.75 8.45 193.85 7.35 154.5 L7.25 149.5 -7.75 146.5 -7.7 149.5 Q-7.15 208.35 -43.0 202.5 -78.75 203.95 -98.1 185.1 L-96.5 183.25 -87.5 188.5 Q-81.5 192.0 -80.25 190.75 L-83.25 184.75 -95.25 170.75 -105.25 154.75 Q-109.0 148.5 -110.75 148.75 -104.25 123.25 -88.0 103.75 -137.8 69.85 -113.7 -9.65 -126.1 34.15 -106.5 70.75 -98.4 37.5 -95.9 21.15 L-81.75 42.75 -48.0 77.75 -28.3 94.5 13.5 127.25 12.25 128.5 -33.8 94.5 -46.75 84.25 -67.75 63.75 -68.75 63.5 -74.0 88.5 Q-69.9 92.25 -67.0 95.95 L-64.65 99.2 Q-62.3 102.4 -61.15 106.1 L-60.6 108.0 -60.15 109.9 -59.75 111.75 Q-41.35 124.05 -20.35 130.65 -11.3 133.4 -2.0 135.15 L3.3 135.5 Q25.75 137.0 46.0 128.25 59.6 119.6 72.2 109.5 L77.25 105.3 82.3 101.1 Q82.75 100.75 83.25 100.5 L83.5 99.0 32.5 129.75 30.75 127.5 77.0 94.5 123.75 57.25 129.5 52.0 129.25 51.5 137.75 42.0 Q139.0 42.0 138.25 45.25 L141.75 43.0 143.0 42.0 142.9 36.55 Q143.25 40.0 143.25 46.5 M95.35 94.9 L109.75 82.0 113.0 78.0 94.75 90.75 95.35 94.9 M-65.5 -8.75 L-39.0 -72.5 -55.5 3.5 -61.5 -3.0 -65.5 -8.75 M-28.3 187.8 Q-15.2 183.95 -13.0 169.25 L-15.0 167.75 Q-37.8 165.05 -56.75 151.0 L-29.25 188.0 -28.3 187.8" fill="#000000" fill-opacity="0.49803922" fill-rule="evenodd" stroke="none"/>
  </g>
</svg>
