<?xml version="1.0" encoding="UTF-8" standalone="no"?>
<svg xmlns:ffdec="https://www.free-decompiler.com/flash" xmlns:xlink="http://www.w3.org/1999/xlink" ffdec:objectType="shape" height="319.6px" width="313.1px" xmlns="http://www.w3.org/2000/svg">
  <g transform="matrix(1.0, 0.0, 0.0, 1.0, 116.75, 114.85)">
    <path d="M41.5 -92.75 Q39.5 -96.0 39.25 -101.75 L41.75 -111.0 Q55.2 -118.9 69.75 -110.5 L69.5 -110.0 72.0 -108.5 74.0 -108.75 74.5 -108.5 75.0 -108.75 Q91.7 -108.9 97.5 -94.9 L97.75 -93.5 94.5 -85.75 88.5 -79.75 Q81.75 -75.25 65.5 -87.0 L51.5 -87.25 Q41.0 -89.75 41.5 -92.75 M80.0 -84.5 Q89.25 -98.25 74.25 -93.5 70.25 -84.25 80.0 -84.5 M58.25 -91.0 Q67.25 -101.5 52.0 -100.5 48.75 -89.5 58.25 -91.0" fill="#ffffff" fill-rule="evenodd" stroke="none"/>
    <path d="M58.25 -91.0 Q48.75 -89.5 52.0 -100.5 67.25 -101.5 58.25 -91.0 M80.0 -84.5 Q70.25 -84.25 74.25 -93.5 89.25 -98.25 80.0 -84.5" fill="#000000" fill-rule="evenodd" stroke="none"/>
    <path d="M88.5 -79.75 Q103.35 -61.35 91.1 -39.9 87.35 -33.4 83.0 -27.5 67.1 -9.1 44.0 -16.7 22.35 -23.7 18.0 -46.0 L17.5 -57.75 Q14.0 -80.25 41.5 -92.75 41.0 -89.75 51.5 -87.25 L65.5 -87.0 Q81.75 -75.25 88.5 -79.75 M-110.05 167.15 Q-112.0 159.95 -110.95 152.5 -108.95 138.05 -102.05 125.4 -92.85 108.5 -80.95 93.55 -74.0 100.55 -66.0 106.0 -38.75 141.0 -7.35 150.9 -8.1 171.5 -16.5 190.65 -17.6 193.2 -19.6 195.25 -21.0 196.75 -22.95 197.8 -30.45 201.6 -39.1 201.85 L-65.45 201.05 Q-81.95 198.15 -95.2 188.5 -106.5 180.35 -110.05 167.15 M11.1 181.1 Q8.1 167.7 7.25 154.1 36.55 157.9 69.25 141.0 87.65 139.6 103.25 129.65 108.35 140.5 110.0 152.35 111.55 163.75 105.55 173.55 95.8 189.5 78.3 196.05 61.6 202.35 43.75 201.65 34.95 201.5 26.75 198.65 14.05 194.25 11.1 181.1" fill="#e58508" fill-rule="evenodd" stroke="none"/>
    <path d="M61.5 -16.0 Q81.75 -14.75 96.0 -60.5 93.75 13.75 64.5 19.0 19.25 18.0 17.75 -46.25 24.25 -16.0 61.5 -16.0 M130.25 -0.75 L157.0 54.75 155.5 55.25 151.5 47.75 150.75 56.5 137.0 59.75 Q139.5 56.5 140.3 52.25 140.5 51.2 140.3 50.25 133.6 20.05 126.5 -10.0 L127.5 -9.25 130.25 -0.75 M192.75 79.7 Q166.6 99.45 133.5 101.25 122.7 120.0 103.0 129.25 L108.0 142.25 Q102.0 143.65 96.55 146.65 85.05 153.05 74.25 160.45 47.75 178.55 14.5 176.0 15.05 178.55 16.9 180.45 24.95 188.65 36.5 189.25 L36.75 196.25 65.55 194.7 Q96.45 191.15 109.5 163.5 109.5 166.65 108.3 169.55 102.4 184.05 88.25 191.25 58.55 206.25 26.0 199.05 24.0 198.65 22.65 197.2 5.6 178.9 7.5 152.75 L-8.0 150.25 Q-7.15 162.65 -9.25 174.8 -10.75 183.55 -16.55 190.0 -32.3 207.55 -57.95 204.25 -94.85 199.2 -111.25 165.75 L-110.75 164.0 Q-104.8 175.6 -94.35 183.35 -82.1 192.55 -67.9 197.7 -46.6 205.5 -35.5 189.75 L-109.75 144.75 Q-100.3 116.15 -80.25 93.75 -111.55 63.55 -105.75 20.25 L-104.75 20.75 Q-106.55 33.45 -102.5 45.0 L-102.0 44.0 -102.25 43.0 -96.25 26.25 Q-97.1 23.65 -98.7 21.2 -101.0 17.65 -105.0 19.0 L-104.75 15.5 Q-115.45 6.3 -116.75 -7.75 L-115.35 -7.5 -114.75 -10.5 Q-106.4 -2.25 -96.25 -5.15 -105.2 -0.25 -114.75 -4.0 -109.95 8.55 -99.95 17.7 -45.9 67.3 21.75 97.0 -26.35 80.2 -69.25 46.5 L-70.75 46.75 -79.25 68.75 -77.0 70.5 Q-76.65 70.5 -76.45 70.3 L-76.5 70.0 Q-29.5 93.55 -2.0 140.5 L19.25 141.85 Q65.2 142.4 91.75 105.5 52.7 108.45 29.75 103.75 L22.25 97.5 Q53.25 98.1 83.9 95.15 131.1 90.6 178.0 82.5 L177.75 84.75 Q183.3 74.35 195.0 73.75 L195.75 64.0 Q195.75 67.3 196.2 70.55 197.05 76.5 192.75 79.7 M103.75 105.0 L97.5 105.0 Q96.25 109.25 98.25 109.5 L101.5 107.5 103.75 105.0 M-69.25 -25.0 L-11.5 -77.0 -47.25 -4.5 -69.25 -25.0" fill="#000000" fill-opacity="0.49803922" fill-rule="evenodd" stroke="none"/>
  </g>
</svg>
