<?xml version="1.0" encoding="UTF-8" standalone="no"?>
<svg xmlns:ffdec="https://www.free-decompiler.com/flash" xmlns:xlink="http://www.w3.org/1999/xlink" ffdec:objectType="shape" height="300.5px" width="335.3px" xmlns="http://www.w3.org/2000/svg">
  <g transform="matrix(1.0, 0.0, 0.0, 1.0, 121.8, 98.0)">
    <path d="M55.25 -78.0 Q53.75 -81.0 54.25 -88.25 L57.25 -96.0 Q73.85 -102.1 87.0 -89.75 L89.0 -89.75 89.75 -89.5 Q106.35 -88.25 111.7 -73.85 L111.75 -72.75 Q108.5 -63.75 101.0 -60.0 96.0 -54.5 78.75 -68.75 L78.5 -69.25 Q64.5 -67.5 55.25 -78.0 M71.75 -73.75 Q81.0 -83.25 66.0 -84.0 60.5 -74.75 71.75 -73.75 M93.25 -65.0 Q99.75 -66.0 96.25 -74.0 93.0 -76.0 90.5 -75.25 L87.5 -74.25 Q83.0 -64.5 93.25 -65.0" fill="#ffffff" fill-rule="evenodd" stroke="none"/>
    <path d="M71.75 -73.75 Q60.5 -74.75 66.0 -84.0 81.0 -83.25 71.75 -73.75 M93.25 -65.0 Q83.0 -64.5 87.5 -74.25 L90.5 -75.25 Q93.0 -76.0 96.25 -74.0 99.75 -66.0 93.25 -65.0" fill="#000000" fill-rule="evenodd" stroke="none"/>
    <path d="M55.25 -78.0 Q64.5 -67.5 78.5 -69.25 L78.75 -68.75 Q96.0 -54.5 101.0 -60.0 110.35 -46.5 104.35 -30.0 100.05 -18.25 91.25 -9.25 73.9 8.55 51.25 -0.1 29.8 -8.35 27.25 -31.05 L27.0 -34.0 Q27.2 -41.2 28.2 -48.25 31.5 -71.6 55.25 -78.0 M7.65 159.25 Q34.85 163.3 66.75 149.75 87.65 146.85 106.9 138.9 109.05 145.45 110.0 152.35 111.55 163.75 105.55 173.55 95.8 189.5 78.3 196.05 61.6 202.35 43.75 201.65 34.95 201.5 26.75 198.65 14.05 194.25 11.1 181.1 8.65 170.2 7.65 159.25 M-77.3 89.05 L-70.0 97.25 Q-43.15 142.9 -7.6 155.45 -9.0 173.6 -16.5 190.65 -17.6 193.2 -19.6 195.25 -21.0 196.75 -22.95 197.8 -30.45 201.6 -39.1 201.85 L-65.45 201.05 Q-81.95 198.15 -95.2 188.5 -106.5 180.35 -110.05 167.15 -112.0 159.95 -110.95 152.5 -108.95 138.05 -102.05 125.4 -91.45 105.95 -77.3 89.05" fill="#e58508" fill-rule="evenodd" stroke="none"/>
    <path d="M-118.5 -20.25 Q-107.5 -12.75 -99.0 -19.5 L-109.0 -11.25 -111.25 -11.75 Q-117.25 -16.75 -118.5 -20.25 M-121.8 -12.1 Q-116.5 -3.75 -99.75 12.0 L-57.75 41.0 Q23.0 88.25 37.0 82.5 38.25 83.75 34.0 88.0 L23.5 86.5 23.0 86.25 23.5 83.25 19.75 82.25 -11.25 68.75 -57.75 44.75 -69.0 37.0 -70.25 37.0 -79.75 55.25 Q-74.75 59.25 -48.25 60.0 L-23.0 75.25 5.25 102.0 24.0 128.75 29.25 137.5 Q32.0 141.75 32.5 145.75 67.25 147.5 95.0 108.25 L94.25 107.5 68.0 102.75 35.75 94.75 23.25 90.0 60.75 97.5 119.0 104.5 165.75 107.75 191.75 106.5 192.75 106.75 192.25 108.25 195.75 110.5 201.5 104.75 210.5 100.25 213.0 100.0 212.5 91.75 213.0 87.0 213.5 102.5 Q209.5 108.5 204.25 111.5 165.5 121.25 135.5 113.75 124.0 129.5 107.5 138.0 L107.0 139.0 109.75 147.5 110.5 154.0 Q102.5 149.25 64.25 175.5 L33.75 179.5 37.5 183.75 62.25 182.0 82.75 182.25 85.0 182.5 90.75 185.25 Q105.5 176.75 109.75 164.3 102.4 187.35 83.5 193.75 61.75 205.5 24.0 198.25 8.5 192.5 7.75 157.25 L-8.25 154.75 Q-5.5 203.25 -43.0 202.5 -93.25 203.25 -109.75 169.75 L-111.25 165.75 -110.75 164.0 Q-106.25 179.75 -87.0 189.0 L-77.5 192.75 -67.75 195.25 -57.5 196.5 -57.0 197.5 -37.5 197.25 -37.25 189.75 Q-25.25 191.25 -15.5 176.75 -16.75 174.5 -21.0 173.0 L-62.0 156.75 -101.5 137.75 -104.75 136.5 -106.75 136.75 -101.75 124.5 -95.75 114.5 -85.25 99.5 -77.0 90.0 -90.25 71.25 -98.75 49.75 -100.25 36.25 -100.25 24.25 -99.25 19.0 -98.25 17.55 -98.75 17.25 -98.5 16.75 -105.25 10.75 -120.0 -5.5 -121.8 -12.1 M-43.0 -8.0 L-70.0 -33.25 0.0 -73.0 -43.0 -8.0 M-94.5 19.75 L-98.25 17.55 -98.5 29.0 -97.75 29.75 -94.0 20.75 -94.5 19.75 M169.75 73.75 L168.25 74.25 158.5 54.75 154.0 74.5 135.75 75.25 148.5 49.5 139.5 11.0 169.75 73.75 M95.5 108.0 Q94.0 116.25 95.75 117.25 L100.75 114.75 106.75 110.0 95.5 108.0 M107.0 -41.5 Q103.25 33.0 70.25 41.5 19.65 26.6 26.9 -38.95 24.1 -6.35 62.0 1.5 89.0 3.0 107.0 -41.5" fill="#000000" fill-opacity="0.49803922" fill-rule="evenodd" stroke="none"/>
  </g>
</svg>
