<?xml version="1.0" encoding="UTF-8" standalone="no"?>
<svg xmlns:ffdec="https://www.free-decompiler.com/flash" xmlns:xlink="http://www.w3.org/1999/xlink" ffdec:objectType="shape" height="253.95px" width="355.6px" xmlns="http://www.w3.org/2000/svg">
  <g transform="matrix(1.0, 0.0, 0.0, 1.0, 168.75, 50.9)">
    <path d="M31.0 -33.75 Q38.5 -28.5 28.0 -24.5 15.0 -34.0 31.0 -33.75 M4.25 -27.5 Q-5.5 -31.25 -1.5 -36.25 16.5 -37.0 4.25 -27.5" fill="#000000" fill-rule="evenodd" stroke="none"/>
    <path d="M-9.75 -32.0 Q-11.25 -32.5 -13.25 -40.5 L-12.5 -48.25 Q0.0 -53.25 13.7 -48.85 L15.25 -48.25 17.9 -48.1 Q34.65 -49.85 48.0 -40.5 L46.5 -33.0 41.5 -26.25 Q26.0 -16.75 15.25 -26.25 -1.0 -20.5 -9.75 -32.0 M31.0 -33.75 Q15.0 -34.0 28.0 -24.5 38.5 -28.5 31.0 -33.75 M4.25 -27.5 Q16.5 -37.0 -1.5 -36.25 -5.5 -31.25 4.25 -27.5" fill="#ffffff" fill-rule="evenodd" stroke="none"/>
    <path d="M41.5 -26.25 Q62.75 -16.5 46.75 21.0 38.6 43.35 15.55 46.65 -7.4 50.15 -20.0 30.4 -24.5 23.35 -26.0 15.0 -33.75 -26.0 -9.75 -32.0 -1.0 -20.5 15.25 -26.25 26.0 -16.75 41.5 -26.25 M-99.35 120.6 L-92.25 124.25 -74.05 131.65 Q-41.2 161.65 -9.5 168.75 -11.8 179.95 -16.5 190.65 -17.6 193.2 -19.6 195.25 -21.0 196.75 -22.95 197.8 -30.45 201.6 -39.1 201.85 L-65.45 201.05 Q-81.95 198.15 -95.2 188.5 -106.5 180.35 -110.05 167.15 -112.0 159.95 -110.95 152.5 -108.95 138.05 -102.05 125.4 L-99.35 120.6 M11.1 181.1 Q9.95 176.05 9.15 170.95 35.7 171.2 61.5 155.0 L107.75 141.65 Q109.25 146.9 110.0 152.35 111.55 163.75 105.55 173.55 95.8 189.5 78.3 196.05 61.6 202.35 43.75 201.65 34.95 201.5 26.75 198.65 14.05 194.25 11.1 181.1" fill="#e58508" fill-rule="evenodd" stroke="none"/>
    <path d="M-60.75 -20.0 L-83.0 46.0 -82.75 47.0 -90.5 74.0 -126.5 49.25 -122.25 44.75 Q-117.4 42.6 -113.6 38.4 -97.25 20.25 -80.5 2.45 L-73.25 -5.0 -60.75 -20.0 M-159.5 69.5 L-157.0 65.5 -152.25 71.5 -146.75 68.0 -151.25 76.25 Q-137.25 83.55 -126.85 95.35 -141.15 88.75 -151.75 77.25 L-152.9 80.9 -168.75 69.25 -168.7 67.9 Q-168.15 62.6 -163.0 62.0 -163.3 66.4 -160.5 69.5 L-159.5 69.5 M-99.25 120.5 L-141.2 89.55 Q-111.2 109.0 -79.15 124.95 L-72.2 128.35 -65.3 131.95 Q-25.95 154.8 16.1 154.95 L15.75 155.65 Q14.35 158.3 11.25 159.0 L13.75 164.0 Q98.3 142.6 176.75 104.5 L177.0 105.25 177.4 105.9 177.8 106.2 Q182.3 107.2 185.7 105.7 188.0 106.6 185.75 108.15 150.7 132.0 108.25 141.25 L109.25 146.75 106.0 146.5 92.0 153.5 91.25 157.5 Q68.0 180.75 36.5 189.75 L36.75 196.25 56.0 196.5 56.0 195.5 Q64.5 195.65 72.8 193.5 L75.9 192.6 78.95 191.6 Q100.65 183.95 109.5 163.5 L109.45 165.0 Q109.35 168.55 108.25 171.8 106.4 177.2 102.15 181.1 92.65 189.7 81.05 194.8 60.2 203.8 37.65 201.2 L33.25 200.6 29.0 199.55 Q9.15 192.6 9.25 169.75 L-9.5 168.5 Q-8.85 177.3 -12.7 185.4 -17.85 196.3 -29.35 199.8 -51.25 206.4 -74.1 199.55 L-76.05 198.95 -79.75 197.65 Q-103.5 188.3 -111.25 164.0 L-109.6 167.15 -107.9 170.05 -105.9 172.7 Q-79.25 202.0 -37.25 197.0 L-37.25 189.75 -25.0 186.5 -29.55 184.35 -33.95 182.0 -38.35 179.65 Q-71.45 159.5 -97.85 131.05 -104.85 136.0 -109.0 143.5 -105.9 131.2 -99.25 120.5 M99.25 16.75 L97.25 12.25 96.75 8.5 108.25 25.25 123.75 44.75 153.5 85.25 154.75 86.0 151.5 86.75 136.25 67.75 131.25 88.75 Q125.25 98.0 126.0 99.75 L96.75 113.25 78.25 122.75 Q94.25 109.75 80.25 95.75 L93.75 88.0 108.5 74.5 113.25 69.0 105.75 38.25 99.25 16.75 M17.75 123.0 Q-31.5 128.75 -27.5 7.75 -27.0 44.75 19.25 43.25 45.0 38.75 53.5 -5.0 50.25 115.0 17.75 123.0" fill="#000000" fill-opacity="0.49803922" fill-rule="evenodd" stroke="none"/>
  </g>
</svg>
