<?xml version="1.0" encoding="UTF-8" standalone="no"?>
<svg xmlns:ffdec="https://www.free-decompiler.com/flash" xmlns:xlink="http://www.w3.org/1999/xlink" ffdec:objectType="shape" height="272.3px" width="336.4px" xmlns="http://www.w3.org/2000/svg">
  <g transform="matrix(1.0, 0.0, 0.0, 1.0, 163.15, 68.35)">
    <path d="M-42.5 -42.25 Q-44.25 -42.75 -48.25 -49.75 L-49.5 -57.5 Q-39.2 -67.85 -23.5 -65.75 L-22.5 -65.5 Q-9.1 -68.7 4.75 -68.3 8.85 -68.2 10.75 -65.0 L11.0 -57.0 8.0 -49.25 Q2.0 -38.5 -17.0 -43.75 -32.5 -34.0 -42.5 -42.25 M-28.5 -42.25 Q-17.75 -52.75 -33.0 -51.75 -40.25 -44.25 -28.5 -42.25 M-5.0 -45.25 Q5.0 -52.25 -4.0 -55.5 -19.0 -51.75 -5.0 -45.25" fill="#ffffff" fill-rule="evenodd" stroke="none"/>
    <path d="M8.0 -49.25 Q28.9 -39.5 26.1 -16.2 L24.5 -2.75 Q21.5 20.35 -0.25 27.55 -5.75 29.3 -11.3 30.15 -35.05 30.2 -46.25 8.25 -65.25 -29.0 -42.5 -42.25 -32.5 -34.0 -17.0 -43.75 2.0 -38.5 8.0 -49.25 M8.2 164.3 Q23.85 171.4 67.25 141.5 L98.05 119.65 102.55 128.2 Q108.25 139.7 110.0 152.35 111.55 163.75 105.55 173.55 95.8 189.5 78.3 196.05 61.6 202.35 43.75 201.65 34.95 201.5 26.75 198.65 14.05 194.25 11.1 181.1 9.2 172.75 8.2 164.3 M-110.05 167.15 Q-112.0 159.95 -110.95 152.5 -109.45 141.5 -105.05 131.6 L-81.0 140.25 -67.0 143.75 Q-40.85 164.45 -8.8 165.25 -11.05 178.25 -16.5 190.65 -17.6 193.2 -19.6 195.25 -21.0 196.75 -22.95 197.8 -30.45 201.6 -39.1 201.85 L-65.45 201.05 Q-81.95 198.15 -95.2 188.5 -106.5 180.35 -110.05 167.15" fill="#e58508" fill-rule="evenodd" stroke="none"/>
    <path d="M-5.0 -45.25 Q-19.0 -51.75 -4.0 -55.5 5.0 -52.25 -5.0 -45.25 M-28.5 -42.25 Q-40.25 -44.25 -33.0 -51.75 -17.75 -52.75 -28.5 -42.25" fill="#000000" fill-rule="evenodd" stroke="none"/>
    <path d="M81.75 -9.0 L117.0 24.75 Q121.25 28.75 125.25 30.25 L136.5 40.75 136.6 40.75 130.75 46.75 Q135.0 41.5 121.0 33.5 L121.5 47.25 121.0 56.5 87.85 89.45 Q88.7 87.2 87.0 84.0 L92.0 80.0 Q102.0 70.0 101.25 67.5 L97.0 52.75 90.0 33.0 79.5 6.25 65.0 -26.5 81.75 -9.0 M173.25 47.0 Q144.3 91.65 98.25 119.25 L100.5 124.0 99.0 124.0 92.0 129.0 92.5 133.25 Q67.8 172.65 21.25 184.0 27.85 189.45 36.5 189.25 L36.75 196.25 56.0 196.5 Q92.05 193.35 109.85 163.7 L109.9 164.15 109.85 164.5 Q107.55 170.4 104.4 175.75 96.3 189.35 81.1 195.05 67.4 200.2 52.85 201.95 9.8 206.25 8.25 164.25 L-9.0 164.5 Q-8.75 172.5 -10.6 180.3 -12.9 190.1 -21.3 195.55 -35.0 204.25 -51.9 203.95 -95.8 203.25 -111.25 164.0 -87.0 203.35 -37.25 197.0 L-37.25 189.75 Q-29.5 190.45 -23.5 185.5 -69.3 170.85 -108.5 142.0 L-108.75 140.75 -104.5 131.75 Q-122.2 125.35 -137.85 114.55 -146.2 108.8 -154.7 103.6 -166.55 96.25 -161.75 85.5 -156.2 98.45 -144.75 92.5 L-142.55 94.65 -148.0 98.0 Q-132.05 103.4 -119.35 114.4 -134.35 109.2 -147.0 98.75 L-150.0 98.75 -153.5 101.0 Q-73.05 145.7 19.25 159.5 20.8 158.3 21.1 156.25 21.7 151.95 17.0 150.5 L34.75 144.5 Q19.9 152.2 26.5 164.25 L78.5 127.75 144.0 73.0 159.5 56.0 160.0 57.25 162.0 57.5 Q164.35 48.7 173.25 47.0 M-126.75 -15.0 L-126.0 -15.0 -126.25 -14.25 -126.75 -15.0 M-87.0 -9.25 L-105.5 76.75 -125.25 67.75 -87.5 -10.0 -87.0 -9.25 M-54.25 -19.0 Q-46.5 22.5 -17.75 28.75 24.25 28.0 26.0 -11.0 26.25 96.0 -16.75 91.0 -51.0 84.25 -54.25 -19.0" fill="#000000" fill-opacity="0.49803922" fill-rule="evenodd" stroke="none"/>
  </g>
</svg>
