<?xml version="1.0" encoding="UTF-8" standalone="no"?>
<svg xmlns:ffdec="https://www.free-decompiler.com/flash" xmlns:xlink="http://www.w3.org/1999/xlink" ffdec:objectType="shape" height="143.5px" width="163.15px" xmlns="http://www.w3.org/2000/svg">
  <g transform="matrix(1.0, 0.0, 0.0, 1.0, 41.35, -32.8)">
    <path d="M118.15 53.5 L118.3 55.5 117.15 57.0 116.0 57.8 115.0 57.8 115.15 57.15 117.0 56.0 118.15 53.5 M107.5 65.5 L111.8 62.15 Q112.0 65.8 107.5 65.5" fill="#000000" fill-rule="evenodd" stroke="none"/>
    <path d="M118.15 53.5 L117.0 56.0 115.15 57.15 115.0 57.8 113.3 58.65 114.65 55.0 118.3 52.65 118.15 53.5 M96.5 64.65 L97.8 63.5 Q106.45 65.75 112.75 59.4 L111.8 62.15 107.5 65.5 104.6 66.0 Q100.1 66.9 96.5 64.65" fill="#ffffff" fill-rule="evenodd" stroke="none"/>
    <path d="M115.0 57.8 L116.0 57.8 117.15 57.0 Q119.15 61.5 119.65 66.5 120.3 72.6 116.2 76.9 101.2 92.6 86.3 75.5 L83.8 73.3 96.5 64.65 Q100.1 66.9 104.6 66.0 L107.5 65.5 Q112.0 65.8 111.8 62.15 L112.75 59.4 113.3 58.65 115.0 57.8 M11.95 107.7 Q-5.5 118.7 -19.3 109.0 -25.3 102.8 -29.15 91.85 -25.9 95.2 -21.6 97.7 -17.4 100.2 -12.5 100.3 L13.8 102.0 11.95 107.7" fill="#e58508" fill-rule="evenodd" stroke="none"/>
    <path d="M121.5 32.8 L121.8 34.8 120.95 38.95 Q120.5 40.8 119.15 42.15 L121.5 47.5 Q120.15 49.25 119.1 51.25 118.0 53.45 118.15 55.8 L117.15 57.0 Q122.0 66.1 117.1 73.95 L116.0 73.5 Q111.8 80.7 103.65 76.6 L102.3 76.0 Q99.05 77.55 97.15 80.65 107.75 82.55 115.45 76.2 L115.2 76.5 Q101.1 93.1 86.3 75.65 68.25 84.75 50.15 93.8 40.8 112.85 27.3 129.3 L26.9 132.25 20.65 130.15 Q45.7 109.75 55.5 77.0 96.7 64.45 121.5 32.8 M104.35 61.8 Q102.9 62.8 101.65 64.15 106.75 64.1 110.9 61.15 L112.8 59.5 108.0 59.8 Q106.05 60.65 104.35 61.8 M15.65 98.15 Q13.9 102.75 12.5 107.5 -27.2 121.7 -39.95 75.15 -41.5 69.45 -41.35 63.5 -36.3 92.4 -6.9 92.25 7.15 92.2 20.5 88.0 19.75 88.9 19.25 89.9 18.4 91.55 17.8 93.3 16.55 95.65 15.65 98.15 M25.0 137.65 L25.8 137.5 Q22.65 159.65 10.0 176.3 L8.3 175.65 7.65 173.15 8.35 172.75 Q20.75 157.55 25.0 137.65 M4.65 141.5 L5.15 141.8 7.8 172.5 Q3.45 155.05 4.15 137.0 L4.8 137.15 4.65 141.5" fill="#000000" fill-opacity="0.49803922" fill-rule="evenodd" stroke="none"/>
  </g>
</svg>
