<?xml version="1.0" encoding="UTF-8" standalone="no"?>
<svg xmlns:ffdec="https://www.free-decompiler.com/flash" xmlns:xlink="http://www.w3.org/1999/xlink" ffdec:objectType="shape" height="182.65px" width="163.9px" xmlns="http://www.w3.org/2000/svg">
  <g transform="matrix(1.0, 0.0, 0.0, 1.0, 40.75, 8.8)">
    <path d="M-27.3 92.45 L-29.65 90.45 Q-43.0 78.35 -40.3 59.15 -36.1 29.45 -16.2 7.85 -9.85 0.95 -0.9 -1.9 42.05 -15.4 86.0 -2.5 107.7 -11.15 113.65 12.0 127.3 21.3 120.65 36.0 L123.15 39.95 123.1 40.3 Q122.5 43.8 120.0 46.3 L119.35 46.8 Q119.7 49.25 115.2 53.3 L115.0 53.15 113.5 54.7 113.45 54.75 113.15 55.0 113.05 55.05 112.5 55.5 112.35 55.6 Q98.8 66.25 59.5 86.8 55.6 103.05 50.3 118.9 48.95 123.05 49.35 126.95 51.7 150.6 47.75 173.6 L46.85 173.85 45.7 172.75 Q36.95 159.7 33.0 144.5 L32.5 144.15 Q31.25 139.25 29.45 134.6 25.4 124.05 28.8 114.5 L29.3 101.0 29.35 100.55 19.0 100.5 19.0 100.3 17.3 100.5 16.5 100.6 Q3.8 101.9 -8.8 100.1 -19.3 98.75 -27.3 92.45" fill="#2e47aa" fill-rule="evenodd" stroke="none"/>
  </g>
</svg>
