<?xml version="1.0" encoding="UTF-8" standalone="no"?>
<svg xmlns:ffdec="https://www.free-decompiler.com/flash" xmlns:xlink="http://www.w3.org/1999/xlink" ffdec:objectType="shape" height="141.8px" width="148.9px" xmlns="http://www.w3.org/2000/svg">
  <g transform="matrix(1.0, 0.0, 0.0, 1.0, 44.9, 15.2)">
    <path d="M24.25 -13.85 Q51.1 -17.2 77.2 -12.35 103.1 -7.4 99.85 17.4 L101.4 18.65 Q106.25 22.75 102.1 27.7 100.05 30.85 97.6 33.25 L88.0 66.4 Q83.6 84.6 72.1 99.25 L71.45 99.05 71.15 98.3 Q67.5 83.65 66.85 68.4 L53.55 82.1 54.85 103.4 Q69.5 111.9 76.8 125.95 76.15 126.6 75.2 126.6 66.65 125.05 58.45 123.0 39.2 118.1 31.25 102.55 L32.55 101.25 31.0 95.55 30.55 95.25 10.75 96.0 Q10.45 95.35 10.15 95.45 L9.7 95.6 9.2 95.7 8.25 95.95 7.55 96.1 Q-5.45 99.65 -18.7 97.1 -24.1 96.15 -28.3 93.85 -36.2 89.55 -39.9 80.5 -48.6 59.45 -42.15 37.8 -34.6 12.55 -12.5 -0.95 4.3 -11.3 24.25 -13.85" fill="#2e47aa" fill-rule="evenodd" stroke="none"/>
  </g>
</svg>
