<?xml version="1.0" encoding="UTF-8" standalone="no"?>
<svg xmlns:ffdec="https://www.free-decompiler.com/flash" xmlns:xlink="http://www.w3.org/1999/xlink" ffdec:objectType="shape" height="199.9px" width="131.5px" xmlns="http://www.w3.org/2000/svg">
  <g transform="matrix(1.0, 0.0, 0.0, 1.0, 61.15, 49.5)">
    <path d="M11.3 -5.3 L14.2 -6.65 12.1 -5.45 11.3 -5.3" fill="#243773" fill-rule="evenodd" stroke="none"/>
    <path d="M11.3 -5.3 L12.1 -5.45 14.2 -6.65 11.3 -5.3 M42.2 -38.9 Q62.25 -17.45 68.05 11.75 75.25 47.8 59.9 82.35 57.75 87.25 54.05 90.75 53.75 91.0 53.25 91.05 51.1 81.75 50.8 71.85 L50.8 71.5 50.7 60.0 Q25.95 93.25 -20.6 80.85 -10.25 96.75 -0.4 113.0 8.8 128.15 17.55 143.6 L20.1 148.7 17.7 150.4 Q-13.5 122.8 -35.4 87.75 -38.3 83.05 -38.9 77.55 -67.3 65.75 -59.45 34.05 -51.15 0.45 -23.9 -22.35 -11.6 -32.65 1.55 -42.1 24.1 -58.4 42.2 -38.9" fill="#2e47aa" fill-rule="evenodd" stroke="none"/>
  </g>
</svg>
