<?xml version="1.0" encoding="UTF-8" standalone="no"?>
<svg xmlns:ffdec="https://www.free-decompiler.com/flash" xmlns:xlink="http://www.w3.org/1999/xlink" ffdec:objectType="shape" height="174.35px" width="139.25px" xmlns="http://www.w3.org/2000/svg">
  <g transform="matrix(1.0, 0.0, 0.0, 1.0, 79.45, 85.4)">
    <path d="M10.35 -72.15 Q14.9 -68.5 19.1 -64.45 43.35 -41.2 54.45 -7.7 62.0 15.1 58.85 38.95 L58.7 40.1 Q56.5 55.7 52.2 70.35 50.2 77.15 47.75 83.75 47.2 83.25 47.05 82.65 L45.7 76.25 Q43.45 64.1 44.0 51.25 L42.35 52.5 Q13.55 92.45 -31.65 68.75 L-34.7 68.1 Q-48.35 64.75 -58.4 54.5 -51.4 70.95 -52.45 88.5 L-53.15 88.95 Q-54.65 88.1 -55.65 86.85 -69.95 69.1 -78.1 46.95 -79.55 42.95 -79.45 38.7 L-79.35 36.55 Q-77.85 3.7 -59.65 -25.0 L-59.25 -25.15 Q-53.85 -33.45 -49.9 -42.6 -39.2 -67.25 -18.15 -82.95 -12.15 -87.4 -6.2 -83.8 L-3.35 -82.0 Q3.85 -77.4 10.35 -72.15" fill="#2e47aa" fill-rule="evenodd" stroke="none"/>
  </g>
</svg>
