<?xml version="1.0" encoding="UTF-8" standalone="no"?>
<svg xmlns:ffdec="https://www.free-decompiler.com/flash" xmlns:xlink="http://www.w3.org/1999/xlink" ffdec:objectType="shape" height="220.4px" width="212.0px" xmlns="http://www.w3.org/2000/svg">
  <g transform="matrix(1.0, 0.0, 0.0, 1.0, 141.75, 143.75)">
    <path d="M15.3 -75.05 L22.4 -66.65 Q38.9 -46.7 52.85 -24.7 78.85 16.4 65.95 64.3 L65.1 63.7 Q63.15 60.7 62.4 57.1 L61.5 53.25 61.0 51.55 61.25 51.0 60.85 50.85 58.85 38.85 58.0 34.85 57.2 36.6 56.55 37.8 Q50.4 49.8 38.7 56.4 8.15 91.95 -33.75 65.1 L-35.0 64.9 Q-43.35 63.5 -50.25 58.45 -59.0 52.1 -61.9 41.85 -64.9 31.25 -65.65 20.65 -67.5 -3.95 -57.45 -28.45 -82.7 -38.7 -103.45 -56.0 -105.8 -55.25 -108.2 -54.85 -110.8 -54.65 -112.2 -56.65 -138.25 -95.2 -141.75 -142.3 -140.45 -144.75 -138.7 -143.0 -108.7 -112.55 -91.9 -73.9 -67.4 -65.75 -46.45 -51.0 -34.8 -78.1 -10.3 -93.75 L-8.15 -93.1 Q1.75 -90.05 8.75 -82.4 L15.3 -75.05" fill="#2e47aa" fill-rule="evenodd" stroke="none"/>
  </g>
</svg>
