<?xml version="1.0" encoding="UTF-8" standalone="no"?>
<svg xmlns:ffdec="https://www.free-decompiler.com/flash" xmlns:xlink="http://www.w3.org/1999/xlink" ffdec:objectType="shape" height="199.45px" width="228.15px" xmlns="http://www.w3.org/2000/svg">
  <g transform="matrix(1.0, 0.0, 0.0, 1.0, 151.6, 123.0)">
    <path d="M34.5 -54.45 Q38.9 -47.6 44.65 -41.8 61.25 -25.1 69.25 -3.9 77.55 17.95 76.4 41.15 L75.6 41.2 Q62.8 20.5 57.8 -3.7 L56.65 -4.7 Q63.35 17.1 54.6 34.35 51.05 41.3 45.0 47.5 L45.2 46.95 Q21.2 89.7 -25.35 70.5 L-34.55 69.2 Q-57.45 64.0 -65.2 39.95 -67.9 31.6 -67.6 22.95 L-67.4 19.25 Q-65.35 -1.7 -57.5 -21.35 -79.6 -29.2 -98.85 -42.2 -109.95 -36.8 -118.45 -47.3 -134.15 -66.7 -143.0 -90.75 -147.25 -102.2 -150.8 -113.6 -152.2 -118.15 -151.2 -123.0 -125.85 -108.1 -105.8 -85.0 L-91.25 -67.8 Q-88.9 -64.85 -89.0 -61.0 -66.45 -55.9 -46.7 -44.0 -35.0 -72.45 -10.35 -90.7 L-6.45 -89.25 Q6.05 -84.2 16.2 -75.65 20.45 -72.1 24.3 -67.85 29.8 -61.8 34.5 -54.45 M-35.75 53.25 L-35.7 52.95 -35.7 53.0 -35.75 53.25 M-35.4 61.55 L-35.2 62.0 -35.4 61.55" fill="#2e47aa" fill-rule="evenodd" stroke="none"/>
    <path d="M-35.75 53.25 L-35.7 53.0 -35.7 52.95 -35.75 53.25 M-35.4 61.55 L-35.2 62.0 -35.4 61.55" fill="#e58508" fill-rule="evenodd" stroke="none"/>
  </g>
</svg>
