<?xml version="1.0" encoding="UTF-8" standalone="no"?>
<svg xmlns:ffdec="https://www.free-decompiler.com/flash" xmlns:xlink="http://www.w3.org/1999/xlink" ffdec:objectType="shape" height="176.05px" width="243.45px" xmlns="http://www.w3.org/2000/svg">
  <g transform="matrix(1.0, 0.0, 0.0, 1.0, 165.75, 100.25)">
    <path d="M30.85 -61.0 Q33.65 -56.95 37.7 -54.15 74.0 -28.7 77.7 15.75 L76.45 16.1 Q74.45 14.45 72.95 12.6 68.6 7.1 66.25 0.5 L65.85 0.35 Q61.8 -12.8 51.85 -20.5 L53.15 -16.35 Q61.05 8.9 51.1 32.3 L49.95 34.8 Q34.65 84.7 -16.65 73.85 -25.65 74.8 -33.9 73.0 -44.3 70.7 -53.55 64.15 -57.05 61.7 -58.7 57.6 -66.25 39.05 -65.35 20.25 -64.5 2.7 -56.4 -15.0 -72.95 -19.95 -88.25 -28.4 L-90.4 -26.25 Q-101.55 -25.7 -110.95 -33.4 -143.6 -60.1 -165.75 -96.75 L-165.65 -97.75 -165.5 -98.15 -165.25 -98.5 -163.65 -100.25 Q-120.1 -81.5 -85.5 -49.9 -64.7 -46.75 -45.4 -37.9 -32.75 -67.75 -8.4 -88.5 L-5.85 -87.8 Q6.75 -84.05 16.8 -76.05 21.15 -72.6 25.0 -68.35 28.1 -64.95 30.85 -61.0" fill="#2e47aa" fill-rule="evenodd" stroke="none"/>
  </g>
</svg>
