<?xml version="1.0" encoding="UTF-8" standalone="no"?>
<svg xmlns:ffdec="https://www.free-decompiler.com/flash" xmlns:xlink="http://www.w3.org/1999/xlink" ffdec:objectType="shape" height="161.3px" width="131.3px" xmlns="http://www.w3.org/2000/svg">
  <g transform="matrix(1.0, 0.0, 0.0, 1.0, 62.25, 81.8)">
    <path d="M-0.75 -36.0 L-1.15 -35.45 -1.6 -35.45 -1.0 -36.2 -0.75 -36.0" fill="#243773" fill-rule="evenodd" stroke="none"/>
    <path d="M35.2 -55.55 Q38.25 -51.75 42.5 -49.05 71.5 -30.4 68.8 3.3 57.9 -6.4 51.05 -19.8 L49.1 -23.6 Q56.3 -2.65 51.7 18.55 55.05 45.6 34.45 66.05 19.2 82.9 -8.3 77.25 -22.0 81.05 -32.9 78.4 -48.15 74.7 -57.95 58.4 -61.9 51.85 -62.15 43.85 -62.7 28.05 -59.25 13.0 -55.8 -2.3 -48.3 -16.8 L-30.8 -49.35 Q-20.25 -68.4 -2.7 -80.5 L-1.95 -81.05 Q0.0 -82.35 2.35 -81.35 8.8 -78.4 14.6 -74.55 19.4 -71.4 23.8 -67.55 29.95 -62.2 35.2 -55.55 M-0.75 -36.0 L-1.0 -36.2 -1.6 -35.45 -1.15 -35.45 -0.75 -36.0" fill="#2e47aa" fill-rule="evenodd" stroke="none"/>
  </g>
</svg>
