<?xml version="1.0" encoding="UTF-8" standalone="no"?>
<svg xmlns:ffdec="https://www.free-decompiler.com/flash" xmlns:xlink="http://www.w3.org/1999/xlink" ffdec:objectType="shape" height="172.95px" width="170.6px" xmlns="http://www.w3.org/2000/svg">
  <g transform="matrix(1.0, 0.0, 0.0, 1.0, 57.4, 64.45)">
    <path d="M28.9 -60.35 Q36.45 -54.8 42.65 -47.95 46.15 -44.0 50.6 -40.8 55.4 -37.3 58.35 -31.9 62.65 -28.8 61.8 -23.2 60.65 -15.9 58.1 -9.15 L53.5 8.75 Q62.0 41.1 46.85 60.6 L55.65 65.95 Q84.4 83.7 111.7 103.55 L112.3 104.05 Q114.75 107.0 110.5 108.5 L105.35 107.25 105.25 107.25 Q69.2 97.7 38.1 78.9 L33.6 76.1 32.6 76.0 Q28.65 79.05 -1.15 83.0 -17.35 90.0 -31.0 85.95 -39.95 83.3 -47.8 75.95 -52.05 72.0 -53.7 66.45 -66.3 24.15 -36.05 -7.35 -28.8 -14.95 -22.3 -23.25 L-2.6 -48.35 2.7 -55.2 Q10.4 -65.05 18.95 -64.4 23.8 -64.05 28.9 -60.35 M20.6 -18.25 L23.2 -20.7 19.85 -17.65 20.6 -18.25 M29.75 -26.9 L32.85 -29.4 33.35 -30.0 29.75 -26.9" fill="#2e47aa" fill-rule="evenodd" stroke="none"/>
    <path d="M29.75 -26.9 L33.35 -30.0 32.85 -29.4 29.75 -26.9 M20.6 -18.25 L19.85 -17.65 23.2 -20.7 20.6 -18.25" fill="#243773" fill-rule="evenodd" stroke="none"/>
  </g>
</svg>
