<?xml version="1.0" encoding="UTF-8" standalone="no"?>
<svg xmlns:ffdec="https://www.free-decompiler.com/flash" xmlns:xlink="http://www.w3.org/1999/xlink" ffdec:objectType="shape" height="200.6px" width="119.2px" xmlns="http://www.w3.org/2000/svg">
  <g transform="matrix(1.0, 0.0, 0.0, 1.0, 55.35, 55.75)">
    <path d="M31.5 -55.0 Q46.75 -46.95 58.45 -33.8 68.65 -22.3 59.6 -9.9 L57.0 18.75 Q56.2 66.5 25.15 82.6 L23.6 84.85 27.05 89.25 Q46.1 114.0 60.35 142.0 L60.95 143.45 60.65 143.75 60.2 144.25 59.65 144.55 59.1 144.85 58.35 144.85 Q35.0 127.0 16.0 104.95 7.85 95.5 0.5 85.25 -16.9 92.15 -30.65 87.35 -39.45 84.3 -47.0 76.35 -51.4 71.7 -52.95 65.35 -62.7 25.7 -32.85 -3.4 -21.65 -14.3 -11.2 -26.05 5.15 -44.5 26.0 -55.05 28.75 -56.45 31.5 -55.0" fill="#2e47aa" fill-rule="evenodd" stroke="none"/>
  </g>
</svg>
