<?xml version="1.0" encoding="UTF-8" standalone="no"?>
<svg xmlns:ffdec="https://www.free-decompiler.com/flash" xmlns:xlink="http://www.w3.org/1999/xlink" ffdec:objectType="shape" height="201.2px" width="122.4px" xmlns="http://www.w3.org/2000/svg">
  <g transform="matrix(1.0, 0.0, 0.0, 1.0, 58.65, 62.7)">
    <path d="M14.4 -61.3 L18.4 -62.45 Q21.65 -63.3 24.35 -61.4 38.65 -51.1 52.85 -39.9 69.85 -26.5 60.35 -6.15 L59.25 -5.25 58.6 -5.25 56.65 -6.65 54.25 13.0 Q60.15 26.6 52.0 47.65 48.05 57.8 40.85 69.7 25.95 87.5 -3.4 83.0 L-11.75 85.6 Q-7.7 99.65 -6.5 113.55 -5.5 126.05 -6.85 138.5 -22.55 121.25 -29.0 97.1 L-29.4 96.85 -33.4 85.25 Q-48.15 81.85 -54.3 66.95 -63.1 45.65 -54.1 24.15 -42.75 -3.1 -22.3 -25.0 -16.5 -31.2 -12.35 -38.5 L-10.4 -41.75 Q-1.05 -56.1 14.4 -61.3 M38.75 -35.4 L38.85 -35.4 38.85 -35.5 38.75 -35.4 M31.5 -27.9 L31.35 -27.9 31.6 -28.15 31.5 -27.9 32.9 -29.3 30.85 -27.75 31.5 -27.9 M18.25 -17.0 L18.6 -17.15 22.95 -20.95 18.25 -17.0 M19.55 22.95 L19.05 24.8 19.55 22.95" fill="#2e47aa" fill-rule="evenodd" stroke="none"/>
    <path d="M38.75 -35.4 L38.85 -35.5 38.85 -35.4 38.75 -35.4 M31.5 -27.9 L31.6 -28.15 31.35 -27.9 30.85 -27.75 32.9 -29.3 31.5 -27.9 M18.25 -17.0 L22.95 -20.95 18.6 -17.15 18.25 -17.0" fill="#243773" fill-rule="evenodd" stroke="none"/>
    <path d="M19.55 22.95 L19.05 24.8 19.55 22.95" fill="#e58508" fill-rule="evenodd" stroke="none"/>
  </g>
</svg>
