<?xml version="1.0" encoding="UTF-8" standalone="no"?>
<svg xmlns:ffdec="https://www.free-decompiler.com/flash" xmlns:xlink="http://www.w3.org/1999/xlink" ffdec:objectType="shape" height="175.8px" width="134.25px" xmlns="http://www.w3.org/2000/svg">
  <g transform="matrix(1.0, 0.0, 0.0, 1.0, 70.3, 69.7)">
    <path d="M34.3 -54.65 Q37.1 -50.35 41.35 -47.6 51.7 -41.0 58.4 -30.95 66.2 -19.25 63.0 -5.15 L61.7 -3.45 60.7 -3.45 Q57.05 -6.8 54.15 -10.85 L51.4 -14.6 Q53.15 -0.8 52.4 13.1 60.75 46.6 30.9 72.65 L27.4 75.6 26.8 76.05 Q14.0 84.95 -4.75 81.0 -18.55 86.35 -31.5 83.7 -39.6 82.0 -47.35 77.25 L-49.6 75.7 Q-54.4 91.75 -63.95 105.35 -64.3 105.8 -64.8 106.1 L-65.7 105.85 Q-76.6 69.9 -61.7 36.0 L-59.45 30.15 Q-53.55 11.9 -44.7 -4.9 -37.6 -18.5 -28.55 -31.15 -14.4 -50.9 2.35 -67.55 4.1 -69.25 6.6 -69.7 15.15 -70.0 21.95 -66.4 29.05 -62.65 34.3 -54.65 M9.4 -24.45 L10.65 -25.8 9.0 -24.3 9.4 -24.45 M11.7 24.05 L12.15 22.05 12.1 22.05 11.7 24.05" fill="#2e47aa" fill-rule="evenodd" stroke="none"/>
    <path d="M9.4 -24.45 L9.0 -24.3 10.65 -25.8 9.4 -24.45" fill="#243773" fill-rule="evenodd" stroke="none"/>
    <path d="M11.7 24.05 L12.1 22.05 12.15 22.05 11.7 24.05" fill="#e58508" fill-rule="evenodd" stroke="none"/>
  </g>
</svg>
