<?xml version="1.0" encoding="UTF-8" standalone="no"?>
<svg xmlns:ffdec="https://www.free-decompiler.com/flash" xmlns:xlink="http://www.w3.org/1999/xlink" ffdec:objectType="shape" height="64.3px" width="77.85px" xmlns="http://www.w3.org/2000/svg">
  <g transform="matrix(1.0, 0.0, 0.0, 1.0, 22.15, -20.25)">
    <path d="M42.95 28.6 Q45.6 26.45 48.0 23.1 L51.25 28.85 Q55.7 31.1 55.7 32.25 L55.6 34.95 Q54.35 57.85 50.7 60.0 48.25 64.6 44.15 68.1 38.1 73.3 31.7 76.85 27.85 78.95 23.85 80.55 3.4 88.4 -20.6 80.85 L-22.15 76.1 -18.3 72.55 -15.75 70.0 -15.25 69.4 -14.7 68.85 -3.7 54.9 -3.35 54.45 -3.0 53.9 -0.55 50.0 -0.4 49.75 Q7.05 37.25 12.1 22.05 L12.7 20.25 14.15 22.25 Q16.4 25.2 19.5 27.25 33.1 36.4 42.95 28.6" fill="#ffffff" fill-rule="evenodd" stroke="none"/>
  </g>
</svg>
