<?xml version="1.0" encoding="UTF-8" standalone="no"?>
<svg xmlns:ffdec="https://www.free-decompiler.com/flash" xmlns:xlink="http://www.w3.org/1999/xlink" ffdec:objectType="shape" height="91.6px" width="86.4px" xmlns="http://www.w3.org/2000/svg">
  <g transform="matrix(1.0, 0.0, 0.0, 1.0, 41.0, 13.75)">
    <path d="M14.85 -13.75 L15.25 -13.05 15.6 -12.35 16.25 -11.2 16.85 -10.15 17.2 -9.5 18.3 -7.6 19.7 -5.2 20.15 -4.45 20.45 -3.9 20.9 -3.2 41.15 27.7 41.4 28.05 42.5 29.55 Q44.4 32.15 44.95 35.4 46.55 44.5 42.35 52.5 38.7 60.2 31.9 65.4 27.5 68.7 23.1 71.15 L18.4 73.5 Q-5.85 84.15 -31.65 68.75 L-31.75 68.65 -33.05 67.65 -34.8 66.05 -34.95 65.9 -35.25 65.55 -39.35 59.95 -40.1 58.5 -41.0 56.5 -39.9 50.85 Q-24.9 22.5 -19.65 -9.5 -9.7 4.35 5.85 -2.3 13.45 -5.55 14.85 -13.75" fill="#ffffff" fill-rule="evenodd" stroke="none"/>
  </g>
</svg>
