<?xml version="1.0" encoding="UTF-8" standalone="no"?>
<svg xmlns:ffdec="https://www.free-decompiler.com/flash" xmlns:xlink="http://www.w3.org/1999/xlink" ffdec:objectType="shape" height="93.95px" width="87.4px" xmlns="http://www.w3.org/2000/svg">
  <g transform="matrix(1.0, 0.0, 0.0, 1.0, 42.25, 16.65)">
    <path d="M-5.65 -3.95 Q9.4 -2.5 13.75 -16.65 25.65 5.55 38.5 27.05 L43.55 35.4 Q45.3 38.25 45.15 41.65 44.9 48.8 40.6 54.6 37.6 59.15 33.5 62.65 27.95 67.35 22.35 70.55 L17.85 72.85 Q-6.7 84.1 -32.65 67.0 L-35.0 64.95 -37.8 61.85 Q-40.4 58.4 -42.25 54.5 L-41.65 52.6 -41.4 51.8 Q-40.95 50.0 -41.25 48.1 -25.95 19.75 -20.4 -12.75 -15.25 -4.3 -5.65 -3.95" fill="#ffffff" fill-rule="evenodd" stroke="none"/>
  </g>
</svg>
