<?xml version="1.0" encoding="UTF-8" standalone="no"?>
<svg xmlns:ffdec="https://www.free-decompiler.com/flash" xmlns:xlink="http://www.w3.org/1999/xlink" ffdec:objectType="shape" height="96.6px" width="87.4px" xmlns="http://www.w3.org/2000/svg">
  <g transform="matrix(1.0, 0.0, 0.0, 1.0, 43.45, 19.9)">
    <path d="M12.7 -19.9 Q24.9 3.3 36.55 26.45 L42.55 38.5 Q44.75 42.9 43.5 47.75 42.25 52.65 38.7 56.4 31.05 65.6 22.5 70.65 L17.95 73.0 Q-4.9 83.2 -33.75 65.1 L-35.3 63.55 -39.8 58.1 Q-41.95 55.2 -43.45 51.85 L-43.1 50.75 -42.8 49.7 -42.55 48.75 Q-42.05 46.8 -42.45 44.85 -35.05 33.35 -31.0 20.1 -26.65 1.9 -21.15 -16.0 -10.7 -2.6 4.35 -9.8 10.85 -12.9 12.7 -19.9" fill="#ffffff" fill-rule="evenodd" stroke="none"/>
  </g>
</svg>
