<?xml version="1.0" encoding="UTF-8" standalone="no"?>
<svg xmlns:ffdec="https://www.free-decompiler.com/flash" xmlns:xlink="http://www.w3.org/1999/xlink" ffdec:objectType="shape" height="86.45px" width="68.95px" xmlns="http://www.w3.org/2000/svg">
  <g transform="matrix(1.0, 0.0, 0.0, 1.0, 17.1, 7.75)">
    <path d="M37.4 -7.75 Q43.55 3.35 49.85 13.95 51.1 16.05 51.7 18.55 L51.85 38.0 Q43.55 62.25 38.7 62.85 32.7 69.35 25.85 73.2 23.15 74.7 20.35 75.8 7.4 80.8 -8.3 77.25 L-14.6 76.0 -16.5 72.9 Q-17.65 70.8 -16.65 68.9 -11.9 60.15 -8.25 51.1 L-5.55 43.95 Q-1.8 33.0 0.45 21.6 2.25 12.15 3.0 2.4 L11.1 -4.3 Q14.05 -3.1 17.05 -2.05 29.6 2.15 37.4 -7.75" fill="#ffffff" fill-rule="evenodd" stroke="none"/>
  </g>
</svg>
