<?xml version="1.0" encoding="UTF-8" standalone="no"?>
<svg xmlns:ffdec="https://www.free-decompiler.com/flash" xmlns:xlink="http://www.w3.org/1999/xlink" ffdec:objectType="shape" height="81.35px" width="62.0px" xmlns="http://www.w3.org/2000/svg">
  <g transform="matrix(1.0, 0.0, 0.0, 1.0, 9.6, 0.15)">
    <path d="M51.8 32.65 Q51.0 39.0 49.3 45.2 45.85 57.7 36.95 67.05 32.7 71.45 27.9 74.5 24.95 76.35 21.8 77.7 10.05 82.7 -4.75 80.55 L-7.3 80.25 -9.6 75.25 -9.25 74.6 -8.9 73.85 Q-4.65 65.1 -1.05 56.1 L-0.95 55.8 0.85 51.1 Q6.1 36.75 9.6 21.85 12.15 11.0 13.7 -0.15 27.7 10.75 42.15 2.55 43.45 1.9 44.55 0.85 47.4 6.7 50.1 8.4 L51.85 12.4 Q53.0 22.65 51.8 32.65" fill="#ffffff" fill-rule="evenodd" stroke="none"/>
  </g>
</svg>
