<?xml version="1.0" encoding="UTF-8" standalone="no"?>
<svg xmlns:ffdec="https://www.free-decompiler.com/flash" xmlns:xlink="http://www.w3.org/1999/xlink" ffdec:objectType="shape" height="120.35px" width="163.4px" xmlns="http://www.w3.org/2000/svg">
  <g transform="matrix(1.0, 0.0, 0.0, 1.0, 39.1, -19.8)">
    <path d="M47.0 77.0 Q40.55 85.15 41.15 94.85 41.75 104.3 49.7 106.15 62.6 108.95 66.6 98.6 65.6 106.15 63.65 113.65 L65.65 118.3 65.2 118.05 Q62.7 117.6 61.3 120.0 L63.65 122.65 62.65 119.5 63.65 119.65 64.3 120.65 67.3 122.65 Q72.1 132.8 67.8 140.15 47.9 129.95 39.5 109.5 43.25 115.1 48.35 116.6 44.15 112.0 41.65 106.5 L41.0 106.15 40.7 106.35 Q42.75 101.5 39.65 96.3 L22.3 99.0 Q13.65 109.3 0.45 109.1 -35.7 107.4 -39.1 65.95 -38.6 70.35 -35.7 73.35 -2.45 107.4 47.0 77.0 M113.65 46.3 Q111.3 47.45 109.2 48.95 107.5 50.2 106.0 51.8 L106.15 52.3 Q110.8 52.1 114.5 49.1 L117.25 46.4 113.65 46.3 M123.5 21.3 Q119.8 28.75 124.3 34.15 123.55 40.0 120.15 44.5 121.4 47.3 121.4 50.15 121.4 54.8 120.9 58.5 118.85 64.75 111.9 63.85 109.6 63.75 107.65 62.5 103.55 64.65 100.8 68.25 L100.5 68.75 Q112.15 71.95 119.8 63.75 114.45 81.05 91.3 65.5 L68.05 79.75 67.2 72.95 62.0 69.5 Q100.65 52.95 124.15 19.8 L123.5 21.3" fill="#000000" fill-opacity="0.49803922" fill-rule="evenodd" stroke="none"/>
  </g>
</svg>
