<?xml version="1.0" encoding="UTF-8" standalone="no"?>
<svg xmlns:ffdec="https://www.free-decompiler.com/flash" xmlns:xlink="http://www.w3.org/1999/xlink" ffdec:objectType="shape" height="92.8px" width="162.9px" xmlns="http://www.w3.org/2000/svg">
  <g transform="matrix(1.0, 0.0, 0.0, 1.0, 38.6, -19.8)">
    <path d="M123.4 32.75 L124.3 34.15 Q123.9 38.5 121.65 42.15 L120.15 44.5 Q122.95 53.2 122.65 59.15 L121.8 58.5 120.5 58.5 120.2 59.45 Q116.5 66.55 108.35 62.8 L107.65 62.5 Q103.25 64.65 100.5 68.75 115.45 72.45 122.6 59.7 121.3 74.7 98.8 71.15 L89.3 106.8 Q70.55 115.1 54.5 102.65 L53.8 100.0 55.15 97.65 50.8 91.0 22.3 99.0 Q-17.4 133.6 -36.25 80.15 -37.9 75.5 -38.6 70.5 -13.65 107.45 36.3 84.45 47.65 79.2 58.55 73.15 L56.8 74.3 55.5 78.65 56.8 80.0 Q74.45 99.9 75.65 83.0 L78.15 98.3 86.8 101.65 77.5 74.65 73.8 76.5 75.0 80.85 72.8 77.7 Q67.05 68.6 59.05 72.9 74.9 64.0 89.85 53.4 109.7 39.25 124.15 19.8 L123.5 21.3 Q120.25 27.15 123.4 32.75 M79.0 105.65 L79.65 105.65 83.0 104.8 Q81.15 101.65 78.65 101.5 79.5 102.3 79.0 105.65 M113.65 46.3 Q111.3 47.45 109.2 48.95 107.5 50.2 106.0 51.8 L106.15 52.3 Q110.8 52.1 114.5 49.1 L117.25 46.4 113.65 46.3" fill="#000000" fill-opacity="0.49803922" fill-rule="evenodd" stroke="none"/>
  </g>
</svg>
