<?xml version="1.0" encoding="UTF-8" standalone="no"?>
<svg xmlns:ffdec="https://www.free-decompiler.com/flash" xmlns:xlink="http://www.w3.org/1999/xlink" ffdec:objectType="shape" height="92.8px" width="162.9px" xmlns="http://www.w3.org/2000/svg">
  <g transform="matrix(1.0, 0.0, 0.0, 1.0, 38.6, -19.8)">
    <path d="M123.4 32.75 L124.3 34.15 Q123.9 38.5 121.65 42.15 L120.15 44.5 Q122.8 53.2 122.6 59.1 L121.8 58.5 120.5 58.5 119.9 59.95 Q117.5 65.0 111.9 63.85 L107.65 62.5 Q103.35 64.8 100.5 68.75 115.1 72.55 122.55 59.75 121.45 75.7 98.4 70.45 97.55 70.35 96.8 69.8 93.7 87.0 86.3 103.0 L87.3 105.15 86.5 106.65 Q68.45 115.4 53.0 102.65 L52.3 100.0 53.8 97.5 50.0 91.5 22.3 99.0 Q-17.4 133.6 -36.25 80.15 -37.9 75.5 -38.6 70.5 -13.65 107.45 36.3 84.45 64.45 71.45 89.85 53.4 109.7 39.25 124.15 19.8 L123.5 21.3 Q120.25 27.15 123.4 32.75 M78.0 104.65 L78.65 105.5 Q83.3 104.3 78.15 102.15 L78.0 104.65 M73.9 79.2 Q73.4 78.3 72.65 77.9 52.6 66.15 60.45 84.25 L72.15 89.65 74.25 85.3 77.15 98.65 83.3 101.15 Q78.2 88.8 75.8 75.65 L75.3 75.5 73.9 79.2 M113.65 46.3 Q111.3 47.45 109.2 48.95 107.5 50.2 106.0 51.8 L106.15 52.3 Q110.8 52.1 114.5 49.1 L117.25 46.4 113.65 46.3" fill="#000000" fill-opacity="0.49803922" fill-rule="evenodd" stroke="none"/>
  </g>
</svg>
