<?xml version="1.0" encoding="UTF-8" standalone="no"?>
<svg xmlns:ffdec="https://www.free-decompiler.com/flash" xmlns:xlink="http://www.w3.org/1999/xlink" ffdec:objectType="shape" height="90.2px" width="163.3px" xmlns="http://www.w3.org/2000/svg">
  <g transform="matrix(1.0, 0.0, 0.0, 1.0, 39.0, -19.8)">
    <path d="M123.95 33.85 L124.3 34.15 Q123.55 40.0 120.15 44.5 121.85 52.7 121.65 58.5 L120.5 58.5 120.2 59.45 Q116.5 66.55 108.35 62.8 L107.65 62.5 Q103.25 64.65 100.5 68.75 114.2 72.15 121.3 61.75 118.6 78.2 95.15 68.8 L83.5 100.8 82.15 101.65 84.5 104.15 84.0 106.15 Q57.5 117.7 49.15 91.8 L22.3 99.0 Q-29.7 132.5 -39.0 64.15 -28.5 104.1 18.3 89.75 39.35 83.3 58.0 73.55 57.45 73.95 57.0 74.5 51.5 83.15 71.5 88.15 77.3 79.65 68.5 73.5 63.25 71.4 60.0 72.5 96.75 52.7 124.15 19.8 120.05 27.4 123.95 33.85 M113.65 46.3 Q111.3 47.45 109.2 48.95 107.5 50.2 106.0 51.8 L106.15 52.3 Q110.8 52.1 114.5 49.1 L117.25 46.4 113.65 46.3" fill="#000000" fill-opacity="0.49803922" fill-rule="evenodd" stroke="none"/>
  </g>
</svg>
