<?xml version="1.0" encoding="UTF-8" standalone="no"?>
<svg xmlns:ffdec="https://www.free-decompiler.com/flash" xmlns:xlink="http://www.w3.org/1999/xlink" ffdec:objectType="shape" height="92.8px" width="162.9px" xmlns="http://www.w3.org/2000/svg">
  <g transform="matrix(1.0, 0.0, 0.0, 1.0, 38.6, -19.8)">
    <path d="M123.4 32.75 L124.3 34.15 Q123.9 38.5 121.65 42.15 L120.15 44.5 Q122.1 52.8 121.9 58.55 L121.8 58.5 120.5 58.5 120.2 59.45 Q116.5 66.55 108.35 62.8 L107.65 62.5 Q103.25 64.65 100.5 68.75 114.5 72.2 121.65 61.3 119.2 77.95 94.15 67.8 88.95 84.7 80.0 100.0 L78.0 99.7 80.0 101.3 Q81.15 102.5 81.6 104.05 L81.8 104.8 80.5 106.5 Q55.35 116.2 48.5 92.15 L22.3 99.0 Q-17.4 133.6 -36.25 80.15 -37.9 75.5 -38.6 70.5 -13.65 107.45 36.3 84.45 64.45 71.45 89.85 53.4 109.7 39.25 124.15 19.8 L123.5 21.3 Q120.25 27.15 123.4 32.75 M68.8 86.8 Q74.0 86.0 73.15 80.3 L69.15 74.8 Q66.0 70.3 57.3 74.5 50.5 83.0 68.8 86.8 M113.65 46.3 Q111.3 47.45 109.2 48.95 107.5 50.2 106.0 51.8 L106.15 52.3 Q110.8 52.1 114.5 49.1 L117.25 46.4 113.65 46.3" fill="#000000" fill-opacity="0.49803922" fill-rule="evenodd" stroke="none"/>
  </g>
</svg>
