<?xml version="1.0" encoding="UTF-8" standalone="no"?>
<svg xmlns:ffdec="https://www.free-decompiler.com/flash" xmlns:xlink="http://www.w3.org/1999/xlink" ffdec:objectType="shape" height="46.0px" width="46.0px" xmlns="http://www.w3.org/2000/svg">
  <g transform="matrix(1.0, 0.0, 0.0, 1.0, 23.0, 23.0)">
    <path d="M14.0 -15.65 L14.85 -14.85 Q21.0 -8.7 21.0 0.0 21.0 8.65 14.85 14.85 8.65 21.0 0.0 21.0 -8.7 21.0 -14.85 14.85 L-15.75 13.9 Q17.65 16.45 14.0 -15.65" fill="#cccccc" fill-rule="evenodd" stroke="none"/>
    <path d="M-15.75 13.9 Q-21.0 8.0 -21.0 0.0 -21.0 -8.7 -14.85 -14.85 -8.7 -21.05 0.0 -21.0 8.1 -21.05 14.0 -15.65 17.65 16.45 -15.75 13.9" fill="#ffffff" fill-rule="evenodd" stroke="none"/>
    <path d="M14.0 -15.65 L14.85 -14.85 Q21.0 -8.7 21.0 0.0 21.0 8.65 14.85 14.85 8.65 21.0 0.0 21.0 -8.7 21.0 -14.85 14.85 L-15.75 13.9 Q-21.0 8.0 -21.0 0.0 -21.0 -8.7 -14.85 -14.85 -8.7 -21.05 0.0 -21.0 8.1 -21.05 14.0 -15.65 Z" fill="none" stroke="#333333" stroke-linecap="round" stroke-linejoin="round" stroke-width="4.0"/>
  </g>
</svg>
