<?xml version="1.0" encoding="UTF-8" standalone="no"?>
<svg xmlns:ffdec="https://www.free-decompiler.com/flash" xmlns:xlink="http://www.w3.org/1999/xlink" ffdec:objectType="shape" height="152.15px" width="139.85px" xmlns="http://www.w3.org/2000/svg">
  <g transform="matrix(1.0, 0.0, 0.0, 1.0, 51.05, 9.4)">
    <path d="M80.75 18.75 L86.5 27.85 Q91.35 40.5 86.0 47.25 L85.25 48.5 Q79.3 56.65 69.95 54.85 67.1 54.3 64.35 53.25 L57.75 49.1 50.35 42.5 Q51.1 37.75 54.15 34.05 56.05 31.7 58.85 29.75 L61.85 30.6 Q66.0 31.65 69.25 29.25 70.85 29.25 72.0 28.1 73.1 26.9 73.1 25.25 L73.6 24.35 77.5 22.25 Q78.85 22.25 79.8 21.25 80.75 20.2 80.75 18.75 M9.1 94.0 L7.75 87.5 10.35 98.5 10.05 99.45 9.9 100.4 9.8 101.95 9.85 103.5 12.85 107.15 Q-5.15 118.95 -19.3 109.0 L-23.6 103.85 -27.45 96.4 -28.6 93.0 -28.75 92.4 -29.15 91.7 -29.3 91.1 -29.3 91.0 -29.4 90.75 Q-17.2 95.65 -0.5 91.75 L0.25 92.6 9.1 94.0" fill="#e58508" fill-rule="evenodd" stroke="none"/>
    <path d="M58.85 29.75 L57.25 28.1 57.35 26.5 Q60.15 26.3 62.65 25.2 72.85 20.4 80.25 11.6 L80.35 17.25 Q76.1 20.75 77.5 22.25 L73.6 24.35 73.1 25.25 Q68.25 25.75 69.25 29.25 66.0 31.65 61.85 30.6 L58.85 29.75" fill="#ffffff" fill-rule="evenodd" stroke="none"/>
    <path d="M80.35 17.25 L80.75 18.75 Q80.75 20.2 79.8 21.25 78.85 22.25 77.5 22.25 76.1 20.75 80.35 17.25 M73.1 25.25 Q73.1 26.9 72.0 28.1 70.85 29.25 69.25 29.25 68.25 25.75 73.1 25.25" fill="#000000" fill-rule="evenodd" stroke="none"/>
    <path d="M82.25 10.1 L85.1 22.85 86.45 26.7 86.15 26.05 85.05 24.5 83.85 23.6 82.9 23.1 82.35 23.05 81.5 23.1 81.3 24.65 Q81.2 24.75 81.05 24.8 L79.9 25.5 78.7 25.9 76.4 25.8 74.85 25.5 Q74.5 28.95 72.1 31.2 67.35 35.6 61.25 34.35 L57.35 32.5 54.55 35.2 Q51.95 37.95 50.75 41.5 63.8 56.3 79.15 47.7 86.4 43.6 88.75 35.5 83.15 67.65 67.1 96.0 59.9 80.45 61.25 62.25 L30.35 91.25 Q32.3 70.05 26.85 50.1 57.85 24.45 78.75 -9.4 L81.2 6.4 78.85 4.0 77.25 4.0 71.5 12.5 Q64.1 13.75 59.85 19.85 57.85 22.65 56.85 26.1 66.05 24.7 73.4 18.85 78.15 15.05 81.5 10.0 L82.25 10.1 M49.25 135.1 L36.75 127.1 18.0 113.6 12.75 107.35 Q-2.65 116.6 -14.15 112.35 L-18.75 109.6 Q-23.25 107.0 -29.25 90.75 L-36.0 87.75 -40.75 83.75 -42.4 82.6 -47.15 75.6 Q-53.4 56.85 -49.65 45.0 -57.4 94.35 4.25 64.0 9.9 95.5 14.8 103.35 12.95 101.5 9.75 99.5 8.25 101.1 13.6 106.1 L14.6 106.0 16.85 105.6 Q31.5 114.1 30.5 94.5 33.1 106.1 26.25 110.1 L33.35 116.6 42.5 123.0 43.6 123.0 62.5 140.1 63.75 140.35 Q67.1 139.5 64.5 142.75 L59.75 141.1 49.25 135.1" fill="#000000" fill-opacity="0.49803922" fill-rule="evenodd" stroke="none"/>
  </g>
</svg>
