<?xml version="1.0" encoding="UTF-8" standalone="no"?>
<svg xmlns:ffdec="https://www.free-decompiler.com/flash" xmlns:xlink="http://www.w3.org/1999/xlink" ffdec:objectType="shape" height="162.2px" width="132.45px" xmlns="http://www.w3.org/2000/svg">
  <g transform="matrix(1.0, 0.0, 0.0, 1.0, 61.5, 16.75)">
    <path d="M15.7 0.55 L13.0 -1.9 12.1 -5.45 14.2 -6.65 22.75 -10.45 Q29.85 -12.65 36.8 -15.9 L39.25 -16.75 40.25 -13.0 Q40.25 -9.0 39.55 -8.6 36.85 -1.15 30.0 -2.3 22.85 4.55 15.7 0.55 M37.7 -9.0 Q30.7 -7.0 35.25 -4.15 39.4 -5.15 37.7 -9.0 M25.25 -4.45 L22.4 -2.6 22.55 -0.45 25.1 0.1 27.55 -1.45 27.7 -4.15 25.25 -4.45" fill="#ffffff" fill-rule="evenodd" stroke="none"/>
    <path d="M25.25 -4.45 L27.7 -4.15 27.55 -1.45 25.1 0.1 22.55 -0.45 22.4 -2.6 25.25 -4.45 M37.7 -9.0 Q39.4 -5.15 35.25 -4.15 30.7 -7.0 37.7 -9.0" fill="#000000" fill-rule="evenodd" stroke="none"/>
    <path d="M39.55 -8.6 Q52.1 3.1 48.0 23.1 45.6 26.45 42.95 28.6 33.1 36.4 19.5 27.25 16.4 25.2 14.15 22.25 L12.7 20.25 Q11.2 18.25 10.25 16.0 6.25 6.8 15.7 0.55 22.85 4.55 30.0 -2.3 36.85 -1.15 39.55 -8.6 M27.25 86.4 L27.25 86.55 Q27.0 97.25 16.1 104.85 7.4 111.35 -0.4 113.0 -10.25 96.75 -20.6 80.85 3.4 88.4 23.85 80.55 25.8 83.45 27.25 86.4 M40.1 78.55 L39.7 78.55 39.4 78.7 39.0 78.7 38.55 78.85 38.1 78.85 38.0 79.0 34.85 78.25 33.7 77.7 33.25 77.55 32.7 77.25 32.0 77.0 31.7 76.85 Q38.1 73.3 44.15 68.1 48.25 64.6 50.7 60.0 L50.8 71.5 50.8 71.85 49.1 73.7 46.0 76.1 41.1 78.4 40.55 78.4 40.1 78.55" fill="#e58508" fill-rule="evenodd" stroke="none"/>
    <path d="M57.25 20.2 Q57.75 25.45 62.55 27.25 L64.4 31.55 67.25 31.25 Q70.45 30.75 70.95 27.9 L70.7 33.55 Q63.55 34.3 57.1 30.4 54.75 37.2 54.35 44.7 54.05 49.55 54.6 54.35 56.55 71.9 52.85 88.85 53.55 88.6 54.15 88.15 57.05 86.35 58.45 83.1 L55.25 91.0 53.7 91.25 52.55 90.55 51.0 72.0 Q44.1 80.25 34.25 78.1 L26.25 83.25 Q26.75 86.65 25.75 89.6 24.5 93.4 22.7 96.6 7.95 99.25 -6.8 96.9 -9.8 96.45 -11.55 94.0 L-22.75 78.25 -24.6 78.1 -23.75 73.8 Q-23.5 72.8 -22.6 72.25 L-15.6 30.55 -15.0 30.55 -16.3 54.4 -0.3 49.4 Q-6.5 61.95 -17.3 70.85 L-17.6 73.4 Q3.0 81.75 22.85 74.25 15.95 44.2 8.7 14.4 12.4 20.6 17.7 25.35 24.1 31.05 32.45 29.75 48.35 27.7 49.4 13.0 L55.7 5.0 56.4 4.7 Q56.55 12.45 57.25 20.2 M5.25 136.85 L12.75 145.45 Q-40.05 92.4 -37.45 79.7 -34.45 84.7 -31.0 86.0 -33.6 88.1 -26.6 97.0 L-22.0 102.25 -13.3 113.7 -11.0 116.0 5.25 136.85 M0.0 112.85 L-1.15 111.55 -1.3 110.55 Q12.75 108.05 22.15 97.55 15.0 109.3 0.0 112.85 M-59.7 30.1 Q-63.35 49.5 -44.3 55.5 L-38.3 56.85 -37.45 78.0 Q-63.35 69.45 -61.35 41.75 -60.95 35.85 -59.7 30.1" fill="#000000" fill-opacity="0.49803922" fill-rule="evenodd" stroke="none"/>
  </g>
</svg>
