<?xml version="1.0" encoding="UTF-8" standalone="no"?>
<svg xmlns:ffdec="https://www.free-decompiler.com/flash" xmlns:xlink="http://www.w3.org/1999/xlink" ffdec:objectType="shape" height="190.2px" width="193.8px" xmlns="http://www.w3.org/2000/svg">
  <g transform="matrix(1.0, 0.0, 0.0, 1.0, 124.75, 76.65)">
    <path d="M-18.75 -42.3 L-21.45 -46.15 -21.9 -50.45 Q-21.25 -51.9 -20.35 -52.6 -14.4 -56.7 -7.3 -54.9 L-5.3 -55.75 Q2.7 -58.5 7.4 -52.9 L7.4 -48.3 5.7 -44.9 Q4.7 -41.3 -6.45 -43.75 L-12.75 -41.3 Q-18.45 -40.75 -18.75 -42.3 M-0.9 -49.9 Q-6.3 -45.15 -0.3 -44.75 4.55 -48.6 -0.9 -49.9 M-15.15 -47.75 Q-17.3 -44.15 -11.6 -43.75 -6.75 -49.9 -15.15 -47.75" fill="#ffffff" fill-rule="evenodd" stroke="none"/>
    <path d="M5.7 -44.9 Q7.35 -44.35 8.4 -43.1 17.05 -33.3 12.7 -19.9 10.85 -12.9 4.35 -9.8 -10.7 -2.6 -21.15 -16.0 L-21.9 -17.7 Q-30.05 -31.15 -18.75 -42.3 -18.45 -40.75 -12.75 -41.3 L-6.45 -43.75 Q4.7 -41.3 5.7 -44.9 M57.2 36.6 L58.85 38.85 60.85 50.85 61.25 51.0 61.0 51.55 61.5 53.25 Q60.05 60.4 53.7 68.55 L53.55 68.85 49.1 73.7 46.0 76.1 41.1 78.4 40.55 78.4 40.1 78.55 39.7 78.55 39.4 78.7 39.0 78.7 38.55 78.85 38.1 78.85 38.0 79.0 34.85 78.25 33.7 77.7 33.25 77.55 32.7 77.25 32.0 77.0 30.4 76.1 30.1 76.0 29.85 75.7 29.25 75.4 27.25 74.1 27.0 74.0 25.4 72.85 25.1 72.7 22.7 70.85 22.5 70.65 Q31.05 65.6 38.7 56.4 50.4 49.8 56.55 37.8 L57.2 36.6 M27.25 86.55 Q27.0 97.25 16.1 104.85 -3.9 119.85 -19.3 109.0 L-23.6 103.85 -27.45 96.4 -28.6 93.0 -28.75 92.4 -29.15 91.7 -29.3 91.1 -29.3 91.0 -29.6 90.4 -29.6 90.25 -29.9 89.55 -30.3 88.25 -30.6 87.55 -30.75 86.85 -30.75 86.7 -30.9 86.4 -31.15 85.55 -31.15 85.1 -32.9 78.55 -33.0 78.0 -33.0 77.7 -33.3 76.85 -34.0 72.4 -34.0 72.1 -34.15 71.7 -34.15 71.25 -34.3 71.0 -34.3 70.55 -34.45 70.25 -35.0 65.55 -35.0 65.0 -35.0 64.9 -33.75 65.1 Q-4.9 83.2 17.95 73.0 23.9 79.7 27.25 86.4 L27.25 86.55" fill="#e58508" fill-rule="evenodd" stroke="none"/>
    <path d="M-15.15 -47.75 Q-6.75 -49.9 -11.6 -43.75 -17.3 -44.15 -15.15 -47.75 M-0.9 -49.9 Q4.55 -48.6 -0.3 -44.75 -6.3 -45.15 -0.9 -49.9" fill="#000000" fill-rule="evenodd" stroke="none"/>
    <path d="M68.55 19.45 Q70.0 40.85 67.25 62.2 L67.3 60.65 67.1 63.4 66.0 64.25 65.0 64.1 63.7 61.25 65.55 62.0 66.1 61.9 68.0 21.1 68.55 20.85 68.55 19.45 M55.55 13.4 L53.85 8.85 47.7 -2.75 Q58.65 12.05 62.35 12.7 56.7 12.3 56.25 13.7 L55.55 13.4 M58.25 30.85 L58.7 31.4 60.4 44.25 60.85 44.7 63.4 59.0 62.85 59.25 62.6 55.75 62.5 55.3 62.25 54.9 61.65 54.3 60.85 53.7 59.55 46.1 59.0 46.25 Q56.95 50.55 53.6 54.05 50.35 57.5 46.1 59.85 L45.85 61.7 Q43.65 64.4 41.6 67.2 L39.8 69.95 38.35 72.7 40.8 72.6 42.0 72.45 43.1 72.1 44.25 71.75 47.4 69.85 48.7 72.0 55.1 64.6 57.8 61.05 59.25 59.25 Q58.1 62.4 56.25 65.4 50.95 74.1 41.75 78.35 L40.55 79.0 Q35.4 78.5 30.75 76.25 25.85 74.0 22.0 70.1 L17.85 72.1 Q21.35 77.65 23.0 82.4 -1.9 89.1 -27.55 82.5 L-31.6 82.25 -34.9 65.0 Q-88.65 35.15 -57.3 -28.6 -82.75 -38.05 -103.15 -56.0 -104.85 -55.2 -106.6 -54.45 -108.85 -54.9 -110.55 -56.05 -121.2 -63.6 -124.75 -76.65 L-115.0 -62.15 -110.45 -56.3 -107.15 -56.15 -107.1 -57.05 -103.75 -57.45 -87.45 -47.0 Q-73.4 -34.7 -47.45 -27.0 -86.7 14.6 -43.6 51.85 L-43.5 50.7 -43.3 49.65 -43.05 49.0 -42.6 48.55 -42.3 48.45 Q1.1 93.9 43.55 40.25 L44.45 42.35 Q49.25 39.05 52.6 34.2 55.95 29.4 57.25 23.55 L58.1 27.7 58.25 30.85 M-7.9 -7.3 Q7.85 -4.0 14.4 -24.75 16.4 8.25 -6.3 10.85 -23.9 7.0 -25.0 -27.9 -22.45 -11.45 -7.9 -7.3 M-9.4 110.3 Q-18.45 111.0 -24.15 102.65 -29.7 94.6 -31.3 84.85 -24.1 109.35 -7.25 110.15 L-9.4 110.3" fill="#000000" fill-opacity="0.49803922" fill-rule="evenodd" stroke="none"/>
  </g>
</svg>
