<?xml version="1.0" encoding="UTF-8" standalone="no"?>
<svg xmlns:ffdec="https://www.free-decompiler.com/flash" xmlns:xlink="http://www.w3.org/1999/xlink" ffdec:objectType="shape" height="170.6px" width="200.15px" xmlns="http://www.w3.org/2000/svg">
  <g transform="matrix(1.0, 0.0, 0.0, 1.0, 123.5, 57.05)">
    <path d="M-13.35 -38.5 L-16.5 -42.35 -17.0 -46.2 -17.0 -46.7 Q-11.15 -53.6 -2.2 -52.35 2.35 -55.4 8.0 -54.85 L10.15 -54.2 11.3 -52.2 11.8 -49.7 Q11.65 -44.35 10.5 -43.85 L10.05 -43.2 Q-1.3 -38.25 -13.35 -38.5 M6.0 -48.35 Q-1.2 -46.0 5.5 -43.0 10.15 -46.35 6.0 -48.35 M-6.7 -40.5 L-4.0 -41.2 Q-3.2 -45.0 -4.35 -45.2 -13.0 -44.35 -6.7 -40.5" fill="#ffffff" fill-rule="evenodd" stroke="none"/>
    <path d="M-13.35 -38.5 Q-1.3 -38.25 10.05 -43.2 L10.5 -43.85 Q23.5 -34.0 20.0 -18.0 L19.65 -16.35 Q16.2 -5.45 3.9 -5.2 -7.5 -4.75 -14.2 -14.0 -15.2 -15.85 -16.35 -17.6 -23.5 -28.7 -13.35 -38.5 M27.25 86.4 L27.25 86.55 Q27.0 97.25 16.1 104.85 -3.9 119.85 -19.3 109.0 L-23.6 103.85 -27.45 96.4 -28.6 93.0 -28.75 92.4 -29.15 91.7 -29.3 91.1 -29.3 91.0 -29.6 90.4 -29.6 90.25 -29.9 89.55 -30.3 88.25 -30.6 87.55 -30.75 86.85 -30.75 86.7 -30.9 86.4 -31.15 85.55 -31.15 85.1 -32.9 78.55 -33.0 78.0 -33.0 77.7 -33.3 76.85 -34.0 72.4 -34.0 72.1 -34.15 71.7 -34.15 71.25 -34.3 71.0 -34.3 70.55 -34.45 70.25 -34.55 69.2 -25.35 70.5 Q-19.75 74.1 -13.35 75.3 4.55 78.5 18.2 73.25 23.95 79.85 27.25 86.4 M54.6 34.35 L56.0 35.25 Q68.85 49.1 53.7 68.55 L53.55 68.85 49.1 73.7 46.0 76.1 41.1 78.4 40.55 78.4 40.1 78.55 39.7 78.55 39.4 78.7 39.0 78.7 38.55 78.85 38.1 78.85 38.0 79.0 34.85 78.25 33.7 77.7 33.25 77.55 32.7 77.25 32.0 77.0 30.4 76.1 30.1 76.0 29.85 75.7 29.25 75.4 27.25 74.1 27.0 74.0 25.4 72.85 25.1 72.7 22.95 71.05 Q36.35 63.9 45.0 47.5 51.05 41.3 54.6 34.35" fill="#e58508" fill-rule="evenodd" stroke="none"/>
    <path d="M6.0 -48.35 Q10.15 -46.35 5.5 -43.0 -1.2 -46.0 6.0 -48.35 M-6.7 -40.5 Q-13.0 -44.35 -4.35 -45.2 -3.2 -45.0 -4.0 -41.2 L-6.7 -40.5" fill="#000000" fill-rule="evenodd" stroke="none"/>
    <path d="M66.3 -2.75 L68.3 -2.0 Q65.8 -1.5 63.85 -0.15 L62.0 1.3 73.45 38.05 Q63.2 20.0 58.05 0.0 61.7 17.6 54.5 34.0 L59.15 38.5 Q49.6 55.8 38.8 72.5 42.1 72.6 45.6 70.9 L47.5 70.0 48.65 72.0 Q52.75 69.6 54.75 65.2 56.25 61.9 59.15 59.65 51.65 80.65 31.95 76.25 26.65 75.1 23.0 70.8 L18.5 73.0 Q23.4 78.1 25.15 82.8 -3.1 91.55 -31.85 80.0 L-31.5 81.15 -32.0 81.65 -34.5 68.8 Q-84.1 44.7 -61.0 -12.8 L-57.5 -21.35 Q-79.55 -28.45 -98.5 -42.2 L-102.7 -39.85 -110.2 -40.35 Q-117.95 -47.85 -123.5 -57.05 -116.15 -48.0 -107.0 -40.85 L-104.85 -41.2 -106.5 -42.5 -100.0 -42.7 -100.7 -44.35 -100.2 -44.85 Q-74.95 -26.7 -43.5 -20.0 -78.1 11.7 -51.7 49.15 -46.3 56.8 -37.15 58.55 L-37.0 58.4 Q-36.95 58.05 -37.05 57.75 L-36.0 55.65 Q-33.2 60.6 -27.95 62.8 -25.15 64.0 -23.7 66.5 40.75 83.1 56.75 14.35 60.3 -0.8 50.75 -13.2 L53.2 -11.0 Q58.9 -5.65 66.3 -2.75 M74.65 13.5 L76.5 38.3 74.15 13.65 74.65 13.5 M76.5 38.35 L76.65 40.5 74.5 39.15 75.3 39.5 76.5 38.35 M11.75 105.5 Q10.85 106.0 9.9 106.45 -21.05 121.95 -30.2 88.85 -22.0 116.15 4.95 108.2 8.5 107.15 11.75 105.5 M7.65 13.8 Q-7.85 19.5 -18.7 -22.0 5.5 10.5 20.65 -19.2 24.8 8.65 7.65 13.8" fill="#000000" fill-opacity="0.49803922" fill-rule="evenodd" stroke="none"/>
  </g>
</svg>
