<?xml version="1.0" encoding="UTF-8" standalone="no"?>
<svg xmlns:ffdec="https://www.free-decompiler.com/flash" xmlns:xlink="http://www.w3.org/1999/xlink" ffdec:objectType="shape" height="164.45px" width="133.65px" xmlns="http://www.w3.org/2000/svg">
  <g transform="matrix(1.0, 0.0, 0.0, 1.0, 64.15, 50.9)">
    <path d="M10.0 -33.9 L0.55 -32.3 -0.75 -36.0 Q9.55 -45.55 22.25 -50.9 L23.1 -50.15 24.55 -45.9 Q25.0 -43.3 24.25 -40.9 24.0 -36.0 16.55 -35.75 L16.0 -34.75 14.0 -34.45 14.55 -35.3 14.55 -36.45 14.1 -38.0 11.7 -38.15 Q8.25 -35.75 10.0 -33.9 M20.85 -38.3 Q26.0 -42.75 22.0 -44.0 17.1 -40.9 20.85 -38.3" fill="#ffffff" fill-rule="evenodd" stroke="none"/>
    <path d="M24.25 -40.9 Q26.65 -39.8 28.3 -37.8 L30.55 -35.15 Q23.2 -36.05 16.0 -34.75 L16.55 -35.75 Q24.0 -36.0 24.25 -40.9 M31.85 -33.45 L31.25 -34.3 32.5 -32.9 Q42.8 -21.65 37.4 -7.75 29.6 2.15 17.05 -2.05 14.05 -3.1 11.1 -4.3 23.85 -17.25 31.85 -33.45 M51.8 32.7 L56.0 35.25 Q68.85 49.1 53.7 68.55 L53.55 68.85 49.1 73.7 46.0 76.1 41.1 78.4 40.55 78.4 40.1 78.55 39.7 78.55 39.4 78.7 39.0 78.7 38.55 78.85 38.1 78.85 38.0 79.0 34.85 78.25 33.7 77.7 33.25 77.55 32.7 77.25 32.0 77.0 30.4 76.1 30.1 76.0 29.85 75.7 29.25 75.4 27.25 74.1 27.0 74.0 25.85 73.2 Q32.7 69.35 38.7 62.85 43.55 62.25 51.85 38.0 L51.8 32.7 M27.25 86.4 L27.25 86.55 Q27.0 97.25 16.1 104.85 -3.9 119.85 -19.3 109.0 L-23.6 103.85 -27.45 96.4 -28.6 93.0 -28.75 92.4 -29.15 91.7 -29.3 91.1 -29.3 91.0 -29.6 90.4 -29.6 90.25 -29.9 89.55 -30.3 88.25 -30.6 87.55 -30.75 86.85 -30.75 86.7 -30.9 86.4 -31.15 85.55 -31.15 85.1 -32.9 78.55 -32.9 78.4 Q-22.0 81.05 -8.3 77.25 7.4 80.8 20.35 75.8 24.6 81.1 27.25 86.4" fill="#e58508" fill-rule="evenodd" stroke="none"/>
    <path d="M14.0 -34.45 L10.0 -33.9 Q8.25 -35.75 11.7 -38.15 L14.1 -38.0 14.55 -36.45 14.55 -35.3 14.0 -34.45 M20.85 -38.3 Q17.1 -40.9 22.0 -44.0 26.0 -42.75 20.85 -38.3" fill="#000000" fill-rule="evenodd" stroke="none"/>
    <path d="M28.7 -30.9 L30.85 -31.3 Q24.15 -17.05 11.85 -5.15 19.55 -0.7 28.05 -2.5 36.45 -4.45 39.1 -12.9 53.1 36.5 17.5 13.05 10.35 8.35 6.85 0.4 2.85 4.65 -2.55 6.7 -8.6 9.0 -14.9 8.05 L-16.6 7.7 Q-12.75 41.75 1.4 73.0 36.5 66.85 51.55 32.4 58.65 40.25 54.75 51.95 51.1 62.9 43.65 71.25 L47.25 69.85 48.7 72.0 54.4 66.7 54.25 66.0 Q55.8 64.75 56.9 63.1 L57.4 62.25 57.8 61.45 58.55 59.55 59.25 59.1 Q54.2 73.75 39.5 77.1 31.35 79.1 25.4 72.85 L20.55 75.1 Q22.65 80.9 23.3 85.7 20.15 88.5 2.1 90.4 L11.25 97.55 Q13.55 99.0 15.7 103.0 17.4 102.55 20.7 99.25 L21.8 98.05 Q15.45 110.7 -13.25 108.35 -20.2 107.9 -24.45 101.15 -30.9 90.8 -32.6 78.85 -73.9 66.3 -61.1 19.05 -66.8 56.8 -32.15 68.85 -39.7 24.05 -41.0 -21.15 -38.6 -16.6 -34.35 -13.65 -31.9 -11.85 -29.0 -10.9 L-28.0 -9.15 -30.6 -9.45 -28.1 -8.2 -27.55 -7.7 -27.1 -7.25 -26.65 -6.6 -26.35 -6.0 -26.15 -5.3 -26.0 -4.6 Q-24.6 -5.75 -22.95 -6.3 L-20.65 -6.9 -18.0 -6.75 -16.6 -6.45 -18.6 -3.05 -18.15 -2.7 -2.6 -4.0 Q11.75 -16.4 27.1 -27.6 L28.7 -30.9 M62.0 -28.6 Q63.85 -27.0 59.4 -18.0 64.1 -13.0 66.4 -12.9 L67.1 -15.75 Q71.0 -0.45 68.55 3.25 56.4 -7.3 46.0 -31.3 59.7 -25.45 62.0 -28.6 M48.7 9.55 Q52.25 -9.05 50.6 -17.5 55.4 0.35 51.85 28.55 L51.4 28.4 50.85 14.4 48.7 9.55" fill="#000000" fill-opacity="0.49803922" fill-rule="evenodd" stroke="none"/>
  </g>
</svg>
