<?xml version="1.0" encoding="UTF-8" standalone="no"?>
<svg xmlns:ffdec="https://www.free-decompiler.com/flash" xmlns:xlink="http://www.w3.org/1999/xlink" ffdec:objectType="shape" height="174.95px" width="121.65px" xmlns="http://www.w3.org/2000/svg">
  <g transform="matrix(1.0, 0.0, 0.0, 1.0, 56.55, 30.0)">
    <path d="M31.1 -5.0 L28.75 -6.5 27.5 -9.5 Q38.65 -17.8 47.75 -28.25 L49.4 -24.65 Q50.15 -22.75 50.0 -20.9 44.6 -17.5 48.6 -15.9 L44.0 -12.4 43.5 -11.0 Q42.35 -15.9 39.25 -10.9 38.1 -6.5 42.35 -9.4 38.75 -3.9 31.1 -5.0 M0.5 85.25 L-0.25 85.0 -0.75 84.5 -0.4 83.35 0.5 85.25" fill="#ffffff" fill-rule="evenodd" stroke="none"/>
    <path d="M31.1 -5.0 Q38.75 -3.9 42.35 -9.4 L43.5 -11.0 44.0 -12.4 48.6 -15.9 Q49.3 -15.9 49.8 -16.8 50.25 -17.7 50.25 -19.0 L54.0 -16.15 59.6 -9.9 Q61.7 -7.15 63.1 -3.95 69.05 9.9 57.1 18.85 53.85 20.2 50.2 20.25 39.35 20.3 30.5 13.5 L26.6 11.0 26.1 9.5 Q24.6 5.75 31.1 -5.0 M0.5 85.25 Q7.85 95.5 16.0 104.95 -3.95 119.8 -19.3 109.0 L-23.6 103.85 -27.45 96.4 -28.6 93.0 -28.75 92.4 -29.15 91.7 -29.3 91.1 -29.3 91.0 -29.6 90.4 -29.6 90.25 -29.9 89.55 -30.3 88.25 -30.6 87.55 -30.65 87.35 Q-16.9 92.15 -0.25 85.0 L0.5 85.25 M25.15 82.6 L27.25 86.4 27.25 86.55 27.05 89.25 23.6 84.85 24.0 82.85 25.15 82.6 M55.9 35.2 L56.0 35.25 Q68.85 49.1 53.7 68.55 L53.55 68.85 49.1 73.7 46.0 76.1 41.1 78.4 40.55 78.4 40.1 78.55 39.7 78.55 39.4 78.7 39.0 78.7 38.55 78.85 38.1 78.85 38.0 79.0 34.85 78.25 34.05 77.85 35.7 76.2 Q52.0 58.45 55.9 35.2" fill="#e58508" fill-rule="evenodd" stroke="none"/>
    <path d="M42.35 -9.4 Q38.1 -6.5 39.25 -10.9 42.35 -15.9 43.5 -11.0 L42.35 -9.4 M48.6 -15.9 Q44.6 -17.5 50.0 -20.9 L50.25 -19.0 Q50.25 -17.7 49.8 -16.8 49.3 -15.9 48.6 -15.9" fill="#000000" fill-rule="evenodd" stroke="none"/>
    <path d="M51.35 -18.15 Q53.85 -23.25 53.35 -28.0 54.85 -25.0 61.0 -30.0 62.0 -22.65 64.1 -22.5 L63.25 -18.15 62.25 -15.15 59.75 -10.0 54.0 -16.15 51.35 -18.15 M58.9 17.5 L57.1 18.85 Q60.4 27.85 58.0 37.25 60.5 39.45 60.65 42.4 60.7 43.35 60.25 44.0 L61.85 45.75 Q61.6 76.55 34.0 77.85 L25.75 82.25 Q27.4 84.85 27.45 87.95 L27.35 89.0 23.5 85.1 Q23.5 77.95 22.25 71.1 32.25 67.4 38.6 58.85 L36.0 58.25 Q32.5 52.9 31.25 46.75 39.55 28.0 26.25 10.1 52.45 29.7 64.85 3.5 L64.9 4.7 Q65.15 12.7 58.9 17.5 M23.85 37.25 Q23.05 44.8 18.5 51.75 L16.25 44.6 23.85 37.25 M-23.25 101.0 Q-21.25 108.0 -10.25 110.85 -12.0 93.0 -23.25 101.0 M5.4 88.75 Q8.75 92.5 13.5 93.75 L12.85 94.0 13.0 95.0 12.1 95.1 12.0 95.6 17.5 101.5 15.2 95.85 Q35.2 120.6 58.25 142.5 L59.85 141.35 60.8 143.85 59.1 144.95 Q34.9 128.1 15.75 105.6 10.75 109.65 4.7 111.8 -0.95 113.65 -6.85 112.6 -26.95 109.4 -30.4 87.75 -36.95 86.05 -41.75 81.55 -61.15 63.5 -55.15 36.0 -55.85 50.35 -47.65 61.8 -35.05 79.45 -14.0 66.75 L-17.75 33.5 Q-9.8 61.85 3.35 88.1 L4.85 88.0 5.4 88.75" fill="#000000" fill-opacity="0.49803922" fill-rule="evenodd" stroke="none"/>
  </g>
</svg>
