<?xml version="1.0" encoding="UTF-8" standalone="no"?>
<svg xmlns:ffdec="https://www.free-decompiler.com/flash" xmlns:xlink="http://www.w3.org/1999/xlink" ffdec:objectType="shape" height="158.7px" width="135.3px" xmlns="http://www.w3.org/2000/svg">
  <g transform="matrix(1.0, 0.0, 0.0, 1.0, 72.25, 45.15)">
    <path d="M10.4 -22.0 L7.7 -24.0 6.0 -27.45 12.4 -33.75 Q15.3 -36.55 18.55 -38.3 L18.85 -38.3 Q22.35 -42.5 27.1 -45.15 L27.55 -44.75 Q29.7 -42.15 30.1 -38.75 L29.85 -35.3 29.7 -35.0 Q28.0 -41.15 25.7 -34.75 27.1 -30.0 29.55 -34.6 29.25 -30.15 23.1 -29.15 18.85 -21.0 10.4 -22.0 M21.7 -28.3 L21.1 -31.0 Q13.7 -28.45 19.0 -25.75 20.4 -25.6 21.7 -28.3" fill="#ffffff" fill-rule="evenodd" stroke="none"/>
    <path d="M10.4 -22.0 Q18.85 -21.0 23.1 -29.15 29.25 -30.15 29.55 -34.6 L29.7 -35.0 29.85 -35.3 Q47.3 -24.9 45.1 -5.35 44.8 -2.95 43.25 -0.9 29.6 10.3 14.35 -0.35 L12.25 -1.75 6.85 -5.6 Q5.15 -12.95 9.05 -19.5 L10.4 -22.0 M50.35 31.9 L56.0 35.25 Q68.85 49.1 53.7 68.55 L53.55 68.85 49.1 73.7 46.0 76.1 41.1 78.4 40.55 78.4 40.1 78.55 39.7 78.55 39.4 78.7 39.0 78.7 38.55 78.85 38.1 78.85 38.0 79.0 34.85 78.25 33.7 77.7 33.25 77.55 32.7 77.25 32.0 77.0 30.4 76.1 30.1 76.0 29.85 75.7 29.25 75.4 27.25 74.1 27.0 74.0 25.5 72.95 27.75 71.2 Q46.2 54.55 50.35 31.9 M20.1 75.5 Q24.55 80.95 27.25 86.4 L27.25 86.55 Q27.0 97.25 16.1 104.85 -3.9 119.85 -19.3 109.0 L-23.6 103.85 -27.45 96.4 -28.6 93.0 -28.75 92.4 -29.15 91.7 -29.3 91.1 -29.3 91.0 -29.6 90.4 -29.6 90.25 -29.9 89.55 -30.3 88.25 -30.6 87.55 -30.75 86.85 -30.75 86.7 -30.9 86.4 -31.15 85.55 -31.15 85.1 -31.65 83.25 Q-18.55 85.85 -4.45 80.1 7.8 78.9 19.65 75.65 L20.1 75.5" fill="#e58508" fill-rule="evenodd" stroke="none"/>
    <path d="M29.55 -34.6 Q27.1 -30.0 25.7 -34.75 28.0 -41.15 29.7 -35.0 L29.55 -34.6 M21.7 -28.3 Q20.4 -25.6 19.0 -25.75 13.7 -28.45 21.1 -31.0 L21.7 -28.3" fill="#000000" fill-rule="evenodd" stroke="none"/>
    <path d="M56.85 -32.05 L57.4 -32.6 Q59.55 -28.45 57.9 -23.6 L57.25 -21.45 60.05 -20.6 Q61.45 -20.8 61.95 -22.15 L62.1 -22.75 Q64.2 -13.3 61.7 -4.0 L60.4 -3.75 Q54.1 -9.25 49.85 -16.15 L52.05 15.55 Q50.85 10.45 47.8 6.3 59.0 32.2 38.8 36.85 34.45 37.9 31.15 33.5 17.25 14.75 6.85 -6.3 29.25 13.05 45.55 -6.8 L46.45 -8.3 45.85 -5.85 44.0 -1.45 47.15 4.85 Q52.8 -14.4 44.7 -32.6 51.0 -29.4 56.85 -32.05 M53.1 24.45 Q61.5 48.9 47.1 69.55 L48.55 72.0 50.7 70.05 Q57.6 61.75 58.25 60.5 L58.85 59.1 59.25 59.4 Q55.45 70.15 47.75 74.45 46.15 75.9 46.8 74.95 41.3 77.65 33.95 77.2 30.5 76.95 27.7 74.5 L26.5 75.05 25.7 75.65 24.1 76.6 22.25 77.25 Q23.8 83.1 23.9 87.85 L6.7 92.4 Q-10.1 89.9 -26.15 94.0 -24.65 100.75 -19.1 104.15 -13.35 107.65 -7.85 109.0 L-10.5 108.85 Q-21.1 108.45 -26.6 98.3 -30.4 91.35 -31.6 83.55 -40.95 82.45 -48.2 76.5 L-50.3 74.7 -53.6 83.4 Q-51.6 73.6 -48.9 64.3 -47.95 60.95 -52.15 61.4 -34.25 46.55 -24.9 24.85 L-24.3 25.0 Q-33.65 46.25 -40.0 69.1 -23.8 75.8 -7.75 68.1 L-8.75 72.4 Q42.05 72.2 53.05 26.15 L53.1 24.45 M-63.15 97.25 Q-67.95 106.9 -69.15 107.85 -71.25 100.25 -72.25 92.5 -69.1 108.55 -63.15 97.25" fill="#000000" fill-opacity="0.49803922" fill-rule="evenodd" stroke="none"/>
  </g>
</svg>
