<?xml version="1.0" encoding="UTF-8" standalone="no"?>
<svg xmlns:ffdec="https://www.free-decompiler.com/flash" xmlns:xlink="http://www.w3.org/1999/xlink" ffdec:objectType="shape" height="184.9px" width="157.2px" xmlns="http://www.w3.org/2000/svg">
  <g transform="matrix(1.0, 0.0, 0.0, 1.0, 56.65, 98.55)">
    <path d="M47.25 -85.0 L48.85 -84.45 Q51.2 -83.6 52.25 -81.45 L52.6 -80.3 Q54.05 -67.3 57.25 -54.6 61.4 -37.35 68.35 -21.3 79.25 3.8 88.0 30.0 L88.85 30.1 Q89.9 32.15 90.55 34.4 96.95 56.8 100.45 80.0 100.95 83.25 98.3 84.75 97.8 84.65 97.4 84.35 84.0 76.8 75.95 63.6 L70.7 55.2 Q66.8 49.05 68.85 42.4 L63.25 35.0 61.85 45.4 61.0 50.15 Q59.65 56.5 57.0 62.5 55.05 67.0 52.4 70.95 50.35 73.95 47.7 76.5 L45.1 78.8 Q35.25 86.6 22.2 86.35 L16.15 86.0 Q8.0 85.05 0.3 82.1 -5.3 80.0 -10.6 77.5 -19.05 73.55 -26.9 68.5 -31.7 65.4 -35.8 61.45 -41.15 56.25 -45.1 50.05 -50.3 41.8 -52.5 32.45 -53.95 26.3 -53.45 20.0 -50.8 -12.15 -33.0 -39.6 L-36.5 -34.7 Q-40.0 -29.85 -42.95 -24.65 -46.9 -17.65 -54.0 -14.6 -57.9 -19.8 -56.1 -26.85 -53.55 -37.05 -45.9 -44.2 -40.95 -48.9 -34.95 -52.8 -23.2 -60.35 -12.15 -68.6 -8.0 -71.65 -4.35 -75.25 10.1 -89.6 28.45 -97.9 30.8 -98.95 32.85 -98.35 43.25 -95.45 47.25 -85.0" fill="#2e47aa" fill-rule="evenodd" stroke="none"/>
  </g>
</svg>
