<?xml version="1.0" encoding="UTF-8" standalone="no"?>
<svg xmlns:ffdec="https://www.free-decompiler.com/flash" xmlns:xlink="http://www.w3.org/1999/xlink" ffdec:objectType="shape" height="196.65px" width="131.8px" xmlns="http://www.w3.org/2000/svg">
  <g transform="matrix(1.0, 0.0, 0.0, 1.0, 47.8, 122.55)">
    <path d="M83.5 -62.75 L84.0 -39.4 Q83.75 13.85 63.0 56.6 L59.75 61.6 56.75 64.75 Q47.6 73.85 32.5 74.0 L26.6 74.1 21.75 73.5 21.35 73.35 19.85 73.25 12.6 71.75 6.5 69.85 -4.4 65.5 -4.5 65.5 -14.15 60.25 Q-16.25 58.35 -17.4 58.35 L-22.0 54.75 -23.0 54.1 -31.9 46.25 -32.0 46.25 -32.75 45.35 -33.4 44.75 -34.0 44.0 -34.15 43.75 -34.65 43.25 -34.9 43.1 Q-61.15 13.5 -34.0 -25.15 L-28.25 -34.4 -27.4 -35.25 -27.4 -35.75 -17.5 -50.0 -7.0 -63.15 5.5 -76.4 Q49.1 -119.9 66.75 -122.5 75.35 -123.5 80.5 -95.25 L82.35 -80.15 83.5 -62.75" fill="#2e47aa" fill-rule="evenodd" stroke="none"/>
  </g>
</svg>
