<?xml version="1.0" encoding="UTF-8" standalone="no"?>
<svg xmlns:ffdec="https://www.free-decompiler.com/flash" xmlns:xlink="http://www.w3.org/1999/xlink" ffdec:objectType="shape" height="168.9px" width="114.85px" xmlns="http://www.w3.org/2000/svg">
  <g transform="matrix(1.0, 0.0, 0.0, 1.0, 59.0, 71.8)">
    <path d="M4.25 -62.75 Q18.3 -46.3 36.3 -2.35 44.8 -2.5 46.65 3.15 65.8 14.3 45.0 18.65 51.15 44.95 40.65 55.65 36.85 73.45 29.85 83.6 9.75 112.9 -36.5 78.5 -53.2 64.5 -58.0 44.8 L-59.0 33.15 -58.35 18.3 -57.2 7.8 -52.7 -16.5 -51.0 -23.0 -50.35 -28.5 Q-53.5 -34.7 -50.0 -38.85 L-49.85 -39.2 -49.0 -40.35 -48.85 -40.7 Q-48.0 -43.85 -46.0 -45.85 L-41.5 -50.0 Q-27.2 -83.0 -7.0 -66.0 L-1.35 -67.85 Q0.8 -67.7 2.15 -65.5 L2.3 -65.5 2.65 -65.0 2.65 -64.85 3.15 -64.0 4.25 -62.75" fill="#2e47aa" fill-rule="evenodd" stroke="none"/>
  </g>
</svg>
