<?xml version="1.0" encoding="UTF-8" standalone="no"?>
<svg xmlns:ffdec="https://www.free-decompiler.com/flash" xmlns:xlink="http://www.w3.org/1999/xlink" ffdec:objectType="shape" height="174.8px" width="170.7px" xmlns="http://www.w3.org/2000/svg">
  <g transform="matrix(1.0, 0.0, 0.0, 1.0, 67.6, 87.35)">
    <path d="M7.3 -86.5 Q20.4 -90.15 27.55 -78.15 L30.1 -78.15 Q38.6 -74.75 37.15 -65.45 L37.1 -65.0 36.55 -62.6 42.4 -48.6 46.7 -36.75 Q65.7 -47.1 86.4 -51.6 91.8 -62.4 99.95 -71.5 101.05 -72.65 102.4 -72.65 103.15 -71.95 103.1 -70.9 102.95 -66.7 102.0 -62.55 99.2 -50.75 96.75 -38.8 95.65 -33.65 91.4 -30.0 74.9 -16.05 55.25 -7.0 L57.6 5.35 Q59.45 14.9 60.2 24.75 61.1 36.05 59.7 47.3 L59.35 49.85 Q57.75 60.7 51.65 69.85 47.4 76.25 41.55 80.3 35.7 84.25 28.2 85.85 22.65 87.05 16.95 87.35 L10.65 87.4 6.35 86.85 Q0.15 85.85 -5.75 84.1 -16.05 81.1 -25.65 75.75 -44.6 65.25 -53.45 45.75 -56.75 38.4 -57.25 30.4 -59.3 -0.5 -45.15 -28.6 L-46.3 -28.15 Q-53.2 -13.65 -63.75 -1.9 L-64.75 -1.9 Q-69.8 -11.2 -65.85 -21.4 L-64.25 -24.6 Q-50.1 -46.65 -26.0 -57.75 L-21.7 -62.95 Q-13.1 -73.3 -2.45 -81.55 1.95 -84.9 7.3 -86.5" fill="#2e47aa" fill-rule="evenodd" stroke="none"/>
  </g>
</svg>
