<?xml version="1.0" encoding="UTF-8" standalone="no"?>
<svg xmlns:ffdec="https://www.free-decompiler.com/flash" xmlns:xlink="http://www.w3.org/1999/xlink" ffdec:objectType="shape" height="179.2px" width="176.3px" xmlns="http://www.w3.org/2000/svg">
  <g transform="matrix(1.0, 0.0, 0.0, 1.0, 65.45, 91.85)">
    <path d="M49.7 -52.15 L55.25 -32.15 Q76.5 -30.8 95.25 -20.6 96.2 -21.15 97.2 -21.5 L98.9 -21.65 Q107.9 -19.45 110.85 -10.15 105.6 -3.8 99.35 1.25 92.75 6.65 86.25 2.25 L61.4 1.55 Q62.6 13.15 62.5 24.65 62.45 32.15 61.75 39.55 61.3 44.15 60.45 48.75 L59.7 52.55 Q58.9 56.3 57.5 59.95 L55.45 64.95 Q52.3 72.4 46.25 77.9 L45.2 78.85 Q36.2 86.45 24.25 87.35 L19.0 87.35 9.8 86.55 7.55 86.15 Q-0.15 84.55 -7.5 82.0 -18.75 78.0 -29.1 71.6 -45.05 61.65 -51.95 44.1 -54.9 36.55 -55.1 28.6 -55.9 -3.05 -40.75 -31.3 L-42.75 -30.6 Q-50.85 -14.8 -63.6 -2.6 L-64.75 -3.0 -65.05 -4.15 Q-67.4 -21.0 -56.75 -33.7 L-53.8 -37.05 Q-42.35 -48.8 -28.1 -57.3 -22.5 -60.6 -18.1 -65.1 -8.1 -75.35 3.1 -84.35 8.3 -88.6 14.6 -90.6 29.4 -95.45 37.1 -81.6 L40.55 -80.3 41.0 -80.3 42.85 -78.6 Q46.4 -74.45 44.7 -67.75 L44.4 -66.6 49.7 -52.15" fill="#2e47aa" fill-rule="evenodd" stroke="none"/>
  </g>
</svg>
