<?xml version="1.0" encoding="UTF-8" standalone="no"?>
<svg xmlns:ffdec="https://www.free-decompiler.com/flash" xmlns:xlink="http://www.w3.org/1999/xlink" ffdec:objectType="shape" height="175.45px" width="164.25px" xmlns="http://www.w3.org/2000/svg">
  <g transform="matrix(1.0, 0.0, 0.0, 1.0, 65.0, 85.8)">
    <path d="M37.7 -60.75 L43.4 -46.6 52.0 -20.0 Q72.55 -5.9 87.9 16.15 99.8 30.55 99.25 49.55 L98.4 50.25 Q94.2 50.75 89.95 50.2 74.15 48.1 70.7 32.85 L58.55 25.1 Q58.6 32.9 57.9 40.85 L57.6 43.9 Q56.95 48.9 55.9 53.9 53.15 66.5 45.5 76.95 L43.4 79.6 Q36.3 87.5 25.5 89.0 15.25 90.7 5.3 88.0 L2.05 87.1 -5.05 84.8 Q-14.9 81.25 -24.05 76.3 -31.8 72.15 -38.5 66.15 -48.65 56.9 -54.25 44.2 -56.4 39.35 -56.75 34.1 -58.9 2.65 -45.45 -26.15 L-61.0 -4.15 -61.75 -4.15 Q-67.35 -11.6 -63.35 -20.6 -58.85 -30.6 -51.5 -38.75 -43.2 -48.0 -32.45 -54.1 -29.65 -55.6 -27.1 -57.45 -18.7 -63.6 -11.55 -72.0 -4.35 -80.4 5.6 -84.1 20.3 -89.6 29.25 -77.15 L31.65 -77.0 Q34.55 -76.95 36.6 -73.45 38.7 -69.95 38.7 -65.0 L37.4 -61.3 37.7 -60.75" fill="#2e47aa" fill-rule="evenodd" stroke="none"/>
  </g>
</svg>
