<?xml version="1.0" encoding="UTF-8" standalone="no"?>
<svg xmlns:ffdec="https://www.free-decompiler.com/flash" xmlns:xlink="http://www.w3.org/1999/xlink" ffdec:objectType="shape" height="185.1px" width="136.75px" xmlns="http://www.w3.org/2000/svg">
  <g transform="matrix(1.0, 0.0, 0.0, 1.0, 64.75, 79.5)">
    <path d="M28.7 -54.6 L35.55 -40.15 Q38.8 -31.3 42.35 -22.5 56.1 11.9 66.55 47.25 67.5 50.55 69.45 59.4 71.4 68.25 71.9 84.6 72.35 100.9 70.15 105.6 54.65 94.8 48.7 77.25 L47.7 74.1 Q46.55 76.7 45.05 78.9 L42.6 81.95 Q35.5 89.5 25.1 90.6 10.8 92.2 -2.75 87.65 -19.55 81.8 -35.05 72.9 -45.9 66.7 -51.5 55.55 -53.5 51.6 -54.45 46.95 -60.9 15.95 -52.3 -14.6 L-59.15 -5.6 Q-62.2 -7.7 -63.4 -11.0 -66.95 -20.8 -61.1 -29.95 -54.35 -40.45 -43.15 -46.15 -33.25 -51.3 -26.05 -59.95 -18.55 -69.05 -8.85 -75.6 -6.85 -76.95 -4.65 -77.75 8.9 -82.75 19.55 -73.45 L21.7 -71.75 21.85 -71.15 Q25.05 -70.5 27.25 -68.0 L27.55 -67.6 28.7 -65.6 Q31.5 -59.85 28.7 -54.6" fill="#2e47aa" fill-rule="evenodd" stroke="none"/>
  </g>
</svg>
