<?xml version="1.0" encoding="UTF-8" standalone="no"?>
<svg xmlns:ffdec="https://www.free-decompiler.com/flash" xmlns:xlink="http://www.w3.org/1999/xlink" ffdec:objectType="shape" height="184.1px" width="137.35px" xmlns="http://www.w3.org/2000/svg">
  <g transform="matrix(1.0, 0.0, 0.0, 1.0, 65.55, 78.3)">
    <path d="M27.1 -53.45 L34.1 -39.3 Q37.8 -30.55 40.95 -21.55 45.8 -7.45 51.35 6.35 59.5 26.8 66.8 52.4 L68.15 59.4 Q71.45 80.55 71.8 101.75 71.85 104.75 69.6 105.8 54.25 95.15 48.0 77.6 L47.1 74.85 44.05 79.35 Q41.2 82.8 37.45 85.45 30.85 90.1 22.65 90.85 2.9 92.7 -15.15 84.1 -24.35 79.75 -33.3 74.9 -42.4 69.9 -48.35 61.4 -55.65 50.95 -57.05 38.4 -60.0 12.2 -53.15 -13.45 -55.4 -8.45 -59.45 -5.45 -63.3 -7.1 -64.55 -11.45 -68.2 -24.5 -58.3 -33.75 -54.85 -38.5 -49.9 -42.25 -47.3 -44.1 -44.55 -45.55 -33.2 -51.3 -25.3 -61.1 -18.25 -69.9 -8.75 -75.65 -3.3 -79.0 3.15 -78.15 L7.6 -77.65 Q13.7 -76.8 17.7 -72.45 L20.1 -70.9 20.25 -70.0 Q23.3 -69.45 25.4 -67.0 L25.7 -66.6 26.85 -64.75 Q29.85 -59.2 27.1 -53.45" fill="#2e47aa" fill-rule="evenodd" stroke="none"/>
  </g>
</svg>
