<?xml version="1.0" encoding="UTF-8" standalone="no"?>
<svg xmlns:ffdec="https://www.free-decompiler.com/flash" xmlns:xlink="http://www.w3.org/1999/xlink" ffdec:objectType="shape" height="168.6px" width="156.25px" xmlns="http://www.w3.org/2000/svg">
  <g transform="matrix(1.0, 0.0, 0.0, 1.0, 56.4, 81.45)">
    <path d="M52.25 -81.45 Q57.85 -79.6 60.25 -73.9 64.8 -62.95 57.25 -54.6 54.05 -67.3 52.6 -80.3 L52.25 -81.45 M1.3 87.0 L-0.7 86.65 -1.7 86.3 -3.35 85.5 -6.85 83.0 -10.0 79.0 -10.6 77.5 Q-5.3 80.0 0.3 82.1 8.0 85.05 16.15 86.0 L1.8 87.15 1.3 87.0 M57.0 62.5 Q59.65 56.5 61.0 50.15 66.85 62.85 58.3 70.8 52.85 75.4 45.1 78.8 L47.7 76.5 Q50.35 73.95 52.4 70.95 55.05 67.0 57.0 62.5" fill="#e58508" fill-rule="evenodd" stroke="none"/>
    <path d="M99.85 83.55 L98.7 84.7 Q76.1 70.55 71.1 55.7 L71.85 56.0 73.55 59.25 75.4 61.1 80.55 68.1 96.7 82.7 Q97.7 83.55 99.7 80.85 L99.85 83.55 M-52.65 28.95 Q-51.05 33.95 -48.75 38.6 -42.95 50.25 -33.3 58.65 -26.55 64.55 -18.2 68.0 -5.9 73.05 6.8 77.35 16.15 80.45 26.0 79.35 39.3 78.05 47.8 67.6 55.25 58.5 57.9 46.95 61.15 33.0 54.0 20.55 L54.55 20.7 Q60.3 31.75 69.1 40.4 L69.0 40.6 70.1 41.85 70.1 42.55 68.55 42.55 68.85 42.1 63.25 34.85 60.85 49.0 62.1 52.8 Q64.25 60.2 60.8 67.25 59.5 69.9 57.5 71.45 44.7 81.4 28.65 84.6 2.3 89.9 -19.45 75.0 -32.4 66.1 -41.75 53.5 -50.0 42.45 -52.65 28.95 M-41.8 -35.7 Q-43.1 -38.6 -45.45 -40.75 L-29.0 -44.6 Q-39.5 -28.35 -53.0 -14.6 -56.1 -15.65 -56.35 -19.4 -56.7 -24.45 -54.75 -28.3 L-54.15 -26.75 Q-51.0 -26.65 -49.75 -29.45 L-47.6 -30.15 Q-45.5 -33.1 -42.0 -34.0 -41.35 -34.75 -41.8 -35.7" fill="#000000" fill-opacity="0.49803922" fill-rule="evenodd" stroke="none"/>
  </g>
</svg>
