<?xml version="1.0" encoding="UTF-8" standalone="no"?>
<svg xmlns:ffdec="https://www.free-decompiler.com/flash" xmlns:xlink="http://www.w3.org/1999/xlink" ffdec:objectType="shape" height="145.4px" width="161.0px" xmlns="http://www.w3.org/2000/svg">
  <g transform="matrix(1.0, 0.0, 0.0, 1.0, 44.4, 58.75)">
    <path d="M-15.75 -51.65 L-19.9 -54.25 -20.1 -54.65 -3.0 -58.75 Q-11.8 -50.25 -20.4 -41.25 L-24.6 -36.85 Q-32.8 -28.45 -41.9 -21.0 L-43.25 -21.4 -42.9 -24.0 -42.9 -23.4 -40.65 -22.65 -16.5 -49.0 -15.9 -49.0 -15.15 -49.65 -15.75 -51.65 M95.35 31.0 L94.85 30.5 95.25 30.5 95.35 31.0 M85.0 3.0 L84.35 2.0 84.0 2.25 Q80.15 21.4 73.0 39.6 68.95 50.0 63.35 59.75 62.55 61.1 62.1 62.75 60.0 69.95 53.65 74.15 41.55 82.0 27.35 84.55 16.6 86.55 5.7 86.65 0.3 86.7 -4.4 84.25 -13.05 79.7 -9.95 70.25 L-9.4 72.0 Q-8.35 75.1 -6.15 77.5 L-7.0 80.75 Q-3.55 84.1 1.1 84.0 L18.25 82.85 Q4.5 75.85 -9.85 70.0 L-6.4 64.25 -13.4 60.0 Q-17.1 63.5 -21.9 64.65 L-26.55 64.45 Q-29.05 63.5 -31.1 61.65 -34.55 58.6 -35.65 54.1 L-35.5 53.6 -35.0 53.85 -32.65 57.85 -30.25 56.05 -29.75 56.2 Q-27.35 56.95 -25.4 58.6 L-35.0 48.1 -35.65 48.1 -34.15 39.75 Q-41.3 30.8 -43.55 19.65 L-44.4 13.5 Q-42.4 21.75 -37.95 29.1 -34.15 35.3 -29.15 40.7 -23.15 47.05 -16.05 52.45 2.25 66.4 24.85 71.35 39.05 74.3 51.25 66.45 60.2 60.75 65.1 51.3 80.75 21.2 86.35 -12.5 L85.35 2.75 85.0 3.0 M114.85 21.0 L115.25 20.0 Q116.85 33.15 116.55 46.35 116.5 49.7 114.75 52.35 102.0 45.1 95.35 31.6 L95.85 31.5 Q102.6 42.5 113.35 50.5 L114.5 50.75 114.6 50.0 115.6 50.0 115.55 49.5 Q115.55 49.25 115.7 49.1 L116.0 49.0 114.85 21.0" fill="#000000" fill-opacity="0.49803922" fill-rule="evenodd" stroke="none"/>
  </g>
</svg>
