<?xml version="1.0" encoding="UTF-8" standalone="no"?>
<svg xmlns:ffdec="https://www.free-decompiler.com/flash" xmlns:xlink="http://www.w3.org/1999/xlink" ffdec:objectType="shape" height="120.6px" width="139.75px" xmlns="http://www.w3.org/2000/svg">
  <g transform="matrix(1.0, 0.0, 0.0, 1.0, 46.9, 33.5)">
    <path d="M36.95 78.2 Q40.95 77.3 44.45 75.55 52.3 71.5 58.0 64.55 60.9 61.0 63.15 57.15 64.0 64.8 58.35 70.75 L58.35 70.85 58.1 71.1 Q41.75 85.1 1.75 87.1 -8.5 87.25 -11.25 71.1 L-8.9 67.35 -8.75 67.2 Q-4.4 69.75 0.2 72.0 12.9 78.05 27.05 78.8 L36.95 78.2 M-33.4 47.65 Q-25.9 55.45 -17.2 61.7 L-23.4 65.25 Q-37.25 60.25 -35.75 49.5 L-35.15 45.75 -33.4 47.65" fill="#e58508" fill-rule="evenodd" stroke="none"/>
    <path d="M81.1 -32.4 L81.1 -33.0 81.75 -32.9 82.6 -15.4 83.25 -15.15 Q91.75 -21.25 88.6 -33.5 94.25 -16.65 92.35 -13.0 91.1 -2.5 78.35 5.0 L76.0 17.1 72.1 32.25 68.1 45.25 64.75 53.75 63.1 56.6 63.0 61.5 60.85 67.6 Q56.85 81.1 4.25 87.1 -17.4 80.85 -9.15 67.5 L-17.25 62.5 Q-23.15 66.25 -25.0 65.0 L-26.75 64.35 -30.4 62.1 -33.9 58.1 -35.65 54.1 Q-36.4 50.35 -35.15 45.6 L-39.15 40.6 -41.25 37.1 -46.15 27.1 -46.9 22.6 Q-42.3 35.6 -21.65 53.5 12.75 79.75 43.1 71.35 72.85 62.25 81.1 -32.4 M89.25 -7.0 Q81.85 -3.4 85.1 -0.4 L86.1 -1.25 Q85.5 -2.4 89.25 -7.0 M6.75 84.0 L4.6 81.75 Q-4.75 76.5 -6.4 78.1 -8.65 82.5 1.75 84.6 L6.75 84.0" fill="#000000" fill-opacity="0.49803922" fill-rule="evenodd" stroke="none"/>
  </g>
</svg>
