<?xml version="1.0" encoding="UTF-8" standalone="no"?>
<svg xmlns:ffdec="https://www.free-decompiler.com/flash" xmlns:xlink="http://www.w3.org/1999/xlink" ffdec:objectType="shape" height="162.7px" width="175.8px" xmlns="http://www.w3.org/2000/svg">
  <g transform="matrix(1.0, 0.0, 0.0, 1.0, 50.1, 69.9)">
    <path d="M51.7 -66.75 L53.7 -65.6 53.55 -62.45 53.0 -63.3 53.0 -64.75 51.85 -66.15 51.7 -66.75" fill="#000000" fill-rule="evenodd" stroke="none"/>
    <path d="M53.55 -62.45 L53.7 -65.6 51.7 -66.75 50.4 -69.9 Q63.0 -69.1 67.4 -58.0 68.7 -54.65 67.85 -51.05 65.15 -39.7 53.1 -36.75 L52.55 -36.45 49.7 -52.9 Q51.1 -53.0 52.55 -56.15 L53.55 -62.45 M54.6 39.9 Q69.8 58.7 58.35 70.75 L58.35 70.85 58.1 71.1 Q50.65 77.5 38.3 81.4 L39.15 80.1 Q50.5 62.75 54.0 42.4 L54.6 39.9" fill="#e58508" fill-rule="evenodd" stroke="none"/>
    <path d="M51.85 -66.15 L53.0 -64.75 53.0 -63.3 53.55 -62.45 52.55 -56.15 Q51.1 -53.0 49.7 -52.9 L49.25 -54.75 49.55 -55.3 Q53.0 -59.9 51.85 -66.15" fill="#ffffff" fill-rule="evenodd" stroke="none"/>
    <path d="M53.1 -36.75 L54.25 -28.15 53.85 -27.9 54.25 -27.6 55.85 -12.45 54.85 -13.15 51.85 -38.9 Q60.25 -38.45 64.55 -45.55 66.6 -48.95 68.0 -52.75 L68.25 -49.15 Q64.75 -40.4 55.7 -37.45 L53.1 -36.75 M94.1 25.65 Q94.3 29.65 100.85 26.1 125.1 14.85 125.7 10.25 124.9 18.25 92.9 36.25 L89.0 38.4 83.55 39.4 82.0 39.55 80.55 39.1 Q80.25 37.95 78.0 36.25 72.65 32.35 56.7 25.55 L56.85 31.4 56.35 36.25 Q55.8 39.45 55.1 40.0 L60.7 48.55 62.4 53.0 63.1 56.7 Q62.7 69.0 55.85 73.25 L52.1 75.85 46.0 78.7 38.1 81.25 35.1 84.85 26.7 90.25 18.55 92.4 Q-6.9 96.1 -36.9 63.55 -48.2 54.35 -50.1 31.95 -47.6 44.05 -37.75 57.1 -4.15 86.85 13.25 85.4 39.25 79.0 42.4 62.85 48.8 46.65 51.1 36.25 54.3 21.8 49.55 18.4 L63.25 26.1 73.25 29.55 82.25 33.85 88.85 33.4 89.1 32.85 87.7 31.85 Q93.7 29.05 94.1 25.65" fill="#000000" fill-opacity="0.49803922" fill-rule="evenodd" stroke="none"/>
  </g>
</svg>
