<?xml version="1.0" encoding="UTF-8" standalone="no"?>
<svg xmlns:ffdec="https://www.free-decompiler.com/flash" xmlns:xlink="http://www.w3.org/1999/xlink" ffdec:objectType="shape" height="156.3px" width="212.75px" xmlns="http://www.w3.org/2000/svg">
  <g transform="matrix(1.0, 0.0, 0.0, 1.0, 58.75, 56.75)">
    <path d="M15.7 -51.75 L15.0 -49.6 12.4 -54.6 14.4 -54.0 15.7 -51.75 M15.4 -45.6 L16.4 -45.15 17.85 -43.0 17.0 -40.3 Q14.25 -41.75 15.4 -45.6" fill="#000000" fill-rule="evenodd" stroke="none"/>
    <path d="M15.0 -49.6 L15.55 -46.6 15.25 -46.15 15.4 -45.6 Q14.25 -41.75 17.0 -40.3 18.1 -36.15 12.25 -31.0 L11.7 -30.75 10.25 -31.15 9.0 -32.75 Q12.65 -44.9 8.55 -56.75 L10.7 -56.15 12.4 -54.6 15.0 -49.6" fill="#ffffff" fill-rule="evenodd" stroke="none"/>
    <path d="M15.0 -49.6 L15.7 -51.75 Q19.15 -51.95 22.45 -51.6 37.2 -50.7 41.05 -36.85 42.05 -33.3 41.2 -30.1 38.95 -21.8 29.7 -19.15 L20.1 -16.0 17.85 -15.45 17.15 -16.45 Q12.95 -23.05 12.25 -31.0 18.1 -36.15 17.0 -40.3 L17.85 -43.0 16.4 -45.15 15.4 -45.6 15.25 -46.15 15.55 -46.6 15.0 -49.6 M54.3 39.55 Q69.9 58.55 58.35 70.75 L58.35 70.85 58.1 71.1 Q46.15 81.35 21.6 85.15 27.45 77.85 32.85 67.0 45.7 60.0 47.55 38.1 L54.3 39.55" fill="#e58508" fill-rule="evenodd" stroke="none"/>
    <path d="M147.0 -2.3 L153.4 -7.75 154.0 -7.75 149.25 -3.0 134.85 8.55 114.7 23.0 90.25 37.7 Q78.85 47.25 49.0 38.55 L49.4 52.55 Q44.85 72.4 39.55 74.4 L42.1 77.0 46.4 75.7 53.25 72.4 59.7 67.55 Q62.1 65.0 62.25 62.4 63.0 67.25 55.1 73.85 49.85 79.25 24.0 84.55 L19.0 90.4 10.1 96.4 3.7 99.0 -2.9 99.55 Q-31.0 100.55 -54.75 54.55 -66.75 42.7 -42.75 -30.45 L-42.15 -30.45 -47.9 -1.9 -48.9 1.55 Q-50.45 3.25 -51.0 7.1 L-51.6 7.7 -51.6 9.1 -54.45 15.4 -54.75 17.85 -55.6 20.0 -56.3 32.0 -55.3 40.0 -54.45 43.4 Q-43.0 76.1 -6.6 85.85 12.55 88.85 26.0 67.7 14.55 35.0 -5.6 19.25 L1.7 22.0 37.25 31.0 66.7 36.55 76.55 37.7 Q82.05 37.0 89.25 32.85 L115.4 18.25 134.1 6.7 147.0 -2.3 M29.4 -18.9 L35.4 -5.45 39.0 0.7 43.4 11.4 36.25 3.1 31.25 -5.3 Q25.7 -10.75 22.25 -10.75 L17.25 -16.15 Q36.65 -21.3 40.55 -27.1 38.15 -22.55 29.4 -18.9 M37.0 54.55 L37.4 54.85 Q43.0 52.25 45.7 37.7 L29.25 34.25 Q32.25 45.1 36.55 52.55 L37.0 54.55" fill="#000000" fill-opacity="0.49803922" fill-rule="evenodd" stroke="none"/>
  </g>
</svg>
