<?xml version="1.0" encoding="UTF-8" standalone="no"?>
<svg xmlns:ffdec="https://www.free-decompiler.com/flash" xmlns:xlink="http://www.w3.org/1999/xlink" ffdec:objectType="shape" height="157.9px" width="176.55px" xmlns="http://www.w3.org/2000/svg">
  <g transform="matrix(1.0, 0.0, 0.0, 1.0, 56.0, 59.15)">
    <path d="M7.85 -30.9 L6.85 -30.65 4.0 -32.65 Q7.6 -44.75 4.3 -56.9 L4.25 -57.25 6.85 -56.15 8.6 -54.4 Q9.85 -49.25 11.35 -49.4 L11.25 -45.4 Q9.85 -40.0 12.6 -40.15 12.5 -33.5 7.85 -30.9" fill="#ffffff" fill-rule="evenodd" stroke="none"/>
    <path d="M8.6 -54.4 L10.5 -53.9 11.75 -51.5 11.35 -49.4 Q9.85 -49.25 8.6 -54.4 M12.6 -40.15 Q9.85 -40.0 11.25 -45.4 L12.25 -44.9 13.35 -42.65 12.6 -40.15" fill="#000000" fill-rule="evenodd" stroke="none"/>
    <path d="M11.75 -51.5 Q26.3 -53.6 34.7 -42.05 42.2 -31.75 33.3 -22.8 30.8 -20.3 27.1 -19.25 L16.1 -15.75 13.75 -15.25 Q8.4 -21.85 7.85 -30.9 12.5 -33.5 12.6 -40.15 L13.35 -42.65 12.25 -44.9 11.25 -45.4 11.35 -49.4 11.75 -51.5 M50.45 35.35 L52.35 37.25 Q70.6 57.85 58.35 70.75 L58.35 70.85 58.1 71.1 Q46.1 81.35 21.45 85.2 27.05 78.2 30.5 67.85 44.1 63.5 46.6 34.0 L50.45 35.35" fill="#e58508" fill-rule="evenodd" stroke="none"/>
    <path d="M-42.15 -39.5 L-41.5 -39.4 Q-43.15 -28.9 -45.65 -18.65 -47.1 -3.15 -52.5 11.3 L-52.9 11.5 -53.5 13.85 -53.9 14.0 -55.4 17.65 Q-54.45 10.3 -52.75 2.95 -47.75 -18.35 -42.15 -39.5 M-41.75 -41.0 L-41.25 -41.0 -41.25 -40.0 -41.75 -40.0 -41.75 -41.0 M45.95 39.4 Q47.65 35.15 43.35 33.65 31.25 30.15 18.6 29.5 25.15 43.2 28.6 58.0 L29.25 57.85 30.35 53.5 31.0 53.6 Q29.9 57.25 31.1 60.85 40.95 51.8 45.95 39.4 M99.3 -4.35 Q107.2 -13.05 114.25 -22.5 L109.1 -14.1 Q98.0 3.95 83.8 19.35 77.0 26.75 68.55 32.0 63.6 35.15 57.75 36.1 52.15 37.0 46.85 34.5 48.45 38.65 48.9 43.05 49.9 53.55 45.15 63.15 41.0 71.55 35.6 79.0 L40.55 77.5 Q48.8 75.1 56.05 70.55 59.3 68.55 61.0 65.35 L61.85 65.0 Q58.85 72.3 51.8 76.2 45.05 79.85 37.7 81.8 29.7 83.8 21.5 85.0 L19.35 87.5 Q17.8 89.35 15.9 90.9 13.5 92.8 10.7 94.3 L6.45 96.15 Q1.15 98.2 -4.5 98.7 -15.65 99.2 -25.05 93.35 -35.15 87.0 -42.3 77.15 -48.75 68.25 -52.2 58.0 -55.1 49.4 -56.0 40.4 -54.95 45.15 -53.1 49.45 -47.1 63.15 -35.0 71.9 -23.15 80.45 -9.2 85.0 -0.3 87.95 8.15 84.5 10.6 83.45 12.0 81.1 8.45 66.55 1.9 53.1 -5.65 37.4 -15.85 23.1 -18.45 19.45 -19.75 15.25 L-20.3 14.35 Q-9.85 17.25 1.8 19.65 L28.35 24.55 20.4 23.4 45.0 28.0 Q51.95 30.3 60.4 25.95 71.2 20.45 80.75 12.9 90.75 5.05 99.3 -4.35 M27.25 -6.25 L25.55 -6.8 Q17.7 -9.55 12.85 -16.25 26.85 -17.3 36.85 -26.5 36.1 -24.85 34.65 -23.55 31.25 -20.7 27.1 -19.15 L41.75 9.35 Q33.3 2.8 27.25 -6.25 M37.25 -27.0 L37.1 -26.75 36.85 -27.0 37.25 -27.0" fill="#000000" fill-opacity="0.49803922" fill-rule="evenodd" stroke="none"/>
    <path d="M111.55 -51.9 Q123.7 -39.3 114.75 -24.4 L113.75 -22.9 Q114.75 -27.9 108.5 -26.5 L89.7 -16.7 Q85.85 -18.25 82.7 -21.4 L81.8 -22.35 Q115.2 -19.8 111.55 -51.9" fill="#cccccc" fill-rule="evenodd" stroke="none"/>
    <path d="M81.8 -22.35 Q69.2 -41.3 88.2 -54.05 95.15 -58.65 103.35 -56.45 107.95 -55.25 111.55 -51.9 115.2 -19.8 81.8 -22.35" fill="#ffffff" fill-rule="evenodd" stroke="none"/>
    <path d="M81.8 -22.35 Q69.2 -41.3 88.2 -54.05 95.15 -58.65 103.35 -56.45 107.95 -55.25 111.55 -51.9 123.7 -39.3 114.75 -24.4 L113.75 -22.9 M89.7 -16.7 Q85.85 -18.25 82.7 -21.4 L81.8 -22.35" fill="none" stroke="#333333" stroke-linecap="round" stroke-linejoin="round" stroke-width="4.0"/>
  </g>
</svg>
