<?xml version="1.0" encoding="UTF-8" standalone="no"?>
<svg xmlns:ffdec="https://www.free-decompiler.com/flash" xmlns:xlink="http://www.w3.org/1999/xlink" ffdec:objectType="shape" height="176.6px" width="134.45px" xmlns="http://www.w3.org/2000/svg">
  <g transform="matrix(1.0, 0.0, 0.0, 1.0, 64.3, 73.3)">
    <path d="M43.15 -65.8 Q45.5 -62.55 45.65 -58.35 45.95 -47.6 37.15 -41.0 L30.8 -54.7 30.3 -55.5 Q32.7 -60.25 31.0 -65.2 L29.5 -68.35 29.0 -69.0 Q26.8 -71.55 23.5 -72.2 L23.65 -72.5 Q36.05 -75.7 43.15 -65.8" fill="#e58508" fill-rule="evenodd" stroke="none"/>
    <path d="M-2.2 88.3 L-13.0 84.3 -26.7 77.8 -36.7 71.15 Q-64.0 51.65 -56.2 2.0 -64.0 67.0 -6.0 78.5 38.5 86.15 43.0 69.8 44.15 69.3 43.15 66.8 L38.0 50.3 27.3 23.65 27.0 22.65 27.5 22.5 29.15 26.65 30.15 27.8 38.5 44.15 40.0 45.8 46.65 56.65 49.5 60.15 46.3 59.5 45.3 61.5 46.0 68.15 46.8 69.8 47.0 72.65 48.65 75.8 48.8 77.15 Q51.8 80.65 52.15 82.65 L55.3 86.65 Q59.65 91.3 60.8 91.3 L63.0 94.15 65.0 95.3 66.3 94.8 Q65.65 94.0 66.8 91.15 L66.8 85.5 68.15 74.5 68.8 73.8 68.8 70.8 Q67.8 57.95 70.0 57.5 L70.15 71.3 68.65 99.3 Q68.15 103.15 67.15 103.3 59.8 102.65 48.5 77.65 45.8 76.65 34.5 87.15 L26.8 90.0 17.65 91.15 8.3 90.65 -2.2 88.3 M-52.7 -31.2 L-42.0 -34.5 Q-47.0 -30.5 -51.85 -14.85 L-55.0 -9.7 Q-56.7 -7.0 -58.5 -5.85 -65.0 -6.2 -64.2 -21.35 -50.0 -17.7 -57.85 -32.0 -54.5 -30.2 -52.7 -31.2" fill="#000000" fill-opacity="0.49803922" fill-rule="evenodd" stroke="none"/>
  </g>
</svg>
