<?xml version="1.0" encoding="UTF-8" standalone="no"?>
<svg xmlns:ffdec="https://www.free-decompiler.com/flash" xmlns:xlink="http://www.w3.org/1999/xlink" ffdec:objectType="shape" height="178.3px" width="136.45px" xmlns="http://www.w3.org/2000/svg">
  <g transform="matrix(1.0, 0.0, 0.0, 1.0, 64.75, 72.75)">
    <path d="M21.7 -71.75 Q32.8 -75.15 40.2 -67.05 44.05 -62.95 44.25 -57.45 44.65 -46.4 35.55 -40.15 L28.7 -54.6 Q31.5 -59.85 28.7 -65.6 L30.0 -63.45 28.55 -65.85 Q27.7 -67.0 27.55 -67.6 L27.25 -68.0 Q25.05 -70.5 21.85 -71.15 L21.7 -71.75" fill="#e58508" fill-rule="evenodd" stroke="none"/>
    <path d="M-2.45 88.7 L-13.6 84.55 -27.3 78.1 -36.75 71.7 Q-65.9 50.25 -55.6 -2.15 -61.45 69.85 -13.0 77.0 21.7 88.85 41.55 71.4 L42.7 69.4 40.1 60.55 34.0 43.1 28.7 31.0 27.55 27.25 26.0 24.1 25.85 22.85 26.1 22.7 28.1 27.55 37.85 45.1 45.55 56.7 48.4 60.25 Q42.1 63.0 50.85 79.7 51.7 82.1 53.7 83.85 L55.85 88.0 66.55 99.25 69.25 103.0 Q71.35 101.0 71.45 91.0 L71.7 97.1 Q71.85 104.85 70.25 105.55 61.1 103.25 49.0 77.25 45.7 76.7 34.85 87.0 L26.85 90.1 16.1 91.4 8.25 91.0 -2.45 88.7 M-58.6 -31.3 Q-56.75 -28.75 -43.3 -33.45 -47.9 -29.75 -52.45 -14.15 L-56.15 -8.3 -59.0 -5.6 Q-65.0 -5.45 -64.75 -21.0 -51.0 -17.0 -58.6 -31.3" fill="#000000" fill-opacity="0.49803922" fill-rule="evenodd" stroke="none"/>
  </g>
</svg>
