<?xml version="1.0" encoding="UTF-8" standalone="no"?>
<svg xmlns:ffdec="https://www.free-decompiler.com/flash" xmlns:xlink="http://www.w3.org/1999/xlink" ffdec:objectType="shape" height="177.7px" width="137.2px" xmlns="http://www.w3.org/2000/svg">
  <g transform="matrix(1.0, 0.0, 0.0, 1.0, 65.45, 72.0)">
    <path d="M26.85 -64.75 L25.7 -66.6 25.4 -67.0 Q23.3 -69.45 20.25 -70.0 L20.1 -70.9 Q29.95 -74.15 37.4 -68.0 42.7 -63.6 43.4 -56.8 44.0 -51.3 40.55 -46.9 37.5 -42.95 34.1 -39.3 L27.1 -53.45 Q29.85 -59.2 26.85 -64.75" fill="#e58508" fill-rule="evenodd" stroke="none"/>
    <path d="M-57.8 8.55 Q-59.25 20.9 -56.65 33.1 -53.25 49.15 -41.55 60.6 -33.8 68.15 -24.25 73.15 -19.05 75.9 -13.4 77.15 L-0.8 80.1 1.5 80.45 Q20.0 84.9 36.05 76.15 39.85 74.0 41.7 70.25 35.0 46.5 24.7 24.4 L25.4 24.55 36.1 44.0 41.75 52.6 43.75 55.5 44.75 56.95 47.85 61.1 Q44.25 63.8 45.5 68.45 48.35 79.2 55.7 87.75 L69.4 103.25 70.25 103.1 71.75 102.05 70.55 105.5 70.0 105.7 Q62.85 102.45 58.45 95.75 52.75 87.0 48.25 77.55 43.75 78.65 40.35 82.0 29.25 92.8 13.35 91.5 7.0 91.65 0.95 90.1 -19.75 84.4 -36.95 71.8 -43.6 66.9 -48.3 60.0 L-50.35 56.6 Q-62.1 33.95 -57.8 8.55 M-59.3 -30.9 Q-57.45 -27.6 -44.3 -32.9 -47.7 -29.6 -51.0 -20.3 L-53.3 -13.15 -56.9 -7.45 -59.3 -5.45 Q-65.45 -5.6 -65.45 -20.9 -54.45 -15.6 -59.3 -30.9" fill="#000000" fill-opacity="0.49803922" fill-rule="evenodd" stroke="none"/>
  </g>
</svg>
