<?xml version="1.0" encoding="UTF-8" standalone="no"?>
<svg xmlns:ffdec="https://www.free-decompiler.com/flash" xmlns:xlink="http://www.w3.org/1999/xlink" ffdec:objectType="shape" height="184.9px" width="157.2px" xmlns="http://www.w3.org/2000/svg">
  <g transform="matrix(1.0, 0.0, 0.0, 1.0, 56.65, 98.55)">
    <path d="M57.25 -54.6 Q54.05 -67.3 52.6 -80.3 L52.25 -81.45 Q57.85 -79.6 60.25 -73.9 64.8 -62.95 57.25 -54.6" fill="#e58508" fill-rule="evenodd" stroke="none"/>
    <path d="M52.25 -81.45 L52.6 -80.3 Q54.05 -67.3 57.25 -54.6 61.4 -37.35 68.35 -21.3 79.25 3.8 88.0 30.0 L88.85 30.1 Q89.9 32.15 90.55 34.4 96.95 56.8 100.45 80.0 100.95 83.25 98.3 84.75 97.8 84.65 97.4 84.35 84.0 76.8 75.95 63.6 L70.7 55.2 Q66.8 49.05 68.85 42.4 L63.25 35.0 61.85 45.4 Q60.6 54.3 57.0 62.5 55.05 67.0 52.4 70.95 50.35 73.95 47.7 76.5 37.0 86.65 22.2 86.35 10.85 86.15 0.3 82.1 -14.05 76.75 -26.9 68.5 -31.7 65.4 -35.8 61.45 -41.15 56.25 -45.1 50.05 -50.3 41.8 -52.5 32.45 -53.95 26.3 -53.45 20.0 -50.8 -12.15 -33.0 -39.6 L-36.5 -34.7 Q-40.0 -29.85 -42.95 -24.65 -46.9 -17.65 -54.0 -14.6 -57.9 -19.8 -56.1 -26.85 -53.55 -37.05 -45.9 -44.2 -40.95 -48.9 -34.95 -52.8 -23.2 -60.35 -12.15 -68.6 -8.0 -71.65 -4.35 -75.25 10.1 -89.6 28.45 -97.9 30.8 -98.95 32.85 -98.35 43.25 -95.45 47.25 -85.0 L48.85 -84.45 Q51.2 -83.6 52.25 -81.45" fill="#2e47aa" fill-rule="evenodd" stroke="none"/>
    <path d="M99.85 83.55 L98.7 84.7 Q76.1 70.55 71.1 55.7 L71.85 56.0 73.55 59.25 75.4 61.1 80.55 68.1 96.7 82.7 Q97.7 83.55 99.7 80.85 L99.85 83.55 M-52.65 28.95 Q-51.05 33.95 -48.75 38.6 -42.95 50.25 -33.3 58.65 -26.55 64.55 -18.2 68.0 -5.9 73.05 6.8 77.35 16.15 80.45 26.0 79.35 39.3 78.05 47.8 67.6 55.25 58.5 57.9 46.95 61.15 33.0 54.0 20.55 L54.55 20.7 Q60.3 31.75 69.1 40.4 L69.05 40.6 69.0 40.6 68.85 40.7 70.1 41.85 70.1 42.55 68.55 42.55 68.85 42.1 63.25 34.85 60.85 49.0 62.1 52.8 Q64.25 60.2 60.8 67.25 59.5 69.9 57.5 71.45 44.7 81.4 28.65 84.6 2.3 89.9 -19.45 75.0 -32.4 66.1 -41.75 53.5 -50.0 42.45 -52.65 28.95 M-48.75 -6.0 L-49.0 -5.3 -49.15 -6.0 -48.75 -6.0 M-47.6 -30.15 Q-45.5 -33.1 -42.0 -34.0 -41.35 -34.75 -41.8 -35.7 -43.1 -38.6 -45.45 -40.75 L-29.0 -44.6 Q-39.5 -28.35 -53.0 -14.6 -56.1 -15.65 -56.35 -19.4 -56.7 -24.45 -54.75 -28.3 L-54.15 -26.75 Q-51.0 -26.65 -49.75 -29.45 L-47.6 -30.15" fill="#000000" fill-opacity="0.49803922" fill-rule="evenodd" stroke="none"/>
  </g>
</svg>
