<?xml version="1.0" encoding="UTF-8" standalone="no"?>
<svg xmlns:ffdec="https://www.free-decompiler.com/flash" xmlns:xlink="http://www.w3.org/1999/xlink" ffdec:objectType="shape" height="197.45px" width="170.5px" xmlns="http://www.w3.org/2000/svg">
  <g transform="matrix(1.0, 0.0, 0.0, 1.0, 48.15, 110.1)">
    <path d="M42.7 -103.15 Q52.15 -109.75 63.6 -109.95 65.1 -110.35 66.35 -109.5 69.0 -107.95 70.35 -105.1 75.2 -95.1 76.85 -83.95 80.2 -60.95 80.0 -37.5 L86.1 -30.25 Q90.65 -24.15 94.1 -17.45 101.7 -2.85 106.4 12.75 107.35 15.85 109.05 18.6 112.6 24.2 115.1 30.75 122.5 50.05 121.85 70.25 114.55 68.9 108.85 64.0 102.05 58.25 96.55 51.35 88.45 41.4 87.1 29.0 L75.85 13.5 Q73.8 24.2 71.05 34.6 67.1 49.5 59.95 63.2 56.8 69.25 51.75 73.6 47.8 77.0 43.1 79.15 38.95 81.15 34.5 81.85 26.95 82.9 19.5 81.25 -3.3 75.95 -22.4 62.2 -33.8 53.95 -41.3 42.0 -43.7 38.2 -45.1 34.0 -49.0 22.4 -47.75 10.25 -46.9 1.9 -43.65 -5.95 -33.6 -30.3 -15.9 -50.0 L-18.9 -49.15 Q-30.35 -33.4 -46.35 -22.4 L-46.9 -22.85 Q-47.3 -35.5 -39.4 -45.5 -31.4 -55.6 -20.25 -61.9 L1.3 -73.7 Q5.8 -76.1 9.95 -79.0 20.55 -86.4 30.7 -94.3 36.55 -98.9 42.7 -103.15" fill="#2e47aa" fill-rule="evenodd" stroke="none"/>
    <path d="M89.35 40.5 L90.1 40.85 Q95.25 51.1 113.35 65.1 L118.6 69.0 Q122.0 69.0 122.35 66.5 L122.35 69.6 122.0 70.25 121.1 70.6 Q93.25 53.6 89.35 40.5 M-35.5 48.1 Q-37.8 45.15 -39.45 41.8 -44.7 31.0 -46.95 19.4 L-48.15 12.0 Q-47.0 19.2 -44.7 25.95 -42.45 32.55 -38.7 38.5 -29.95 52.5 -15.75 60.75 -5.9 66.6 4.6 70.3 14.3 73.6 24.45 75.4 31.0 76.8 37.3 74.9 55.75 69.2 63.15 51.25 71.3 31.6 74.85 10.5 L78.0 15.35 77.5 15.6 76.0 13.6 Q74.15 24.3 70.8 34.5 66.65 47.05 62.65 59.5 58.6 72.3 46.9 78.45 42.3 80.8 37.35 82.0 25.6 84.95 13.4 86.95 7.4 87.85 1.6 86.7 -10.95 84.45 -10.9 72.3 -10.9 71.0 -10.5 69.75 L-19.5 63.75 -23.0 65.25 -28.25 62.55 Q-30.9 61.0 -32.9 58.65 -36.75 54.05 -35.5 48.1 M-12.65 -54.0 L-15.5 -50.15 -18.65 -49.25 -28.25 -38.65 -42.4 -24.75 -45.65 -22.5 Q-49.4 -22.9 -46.65 -30.5 -42.9 -29.65 -27.65 -45.25 L-26.75 -46.15 -26.25 -46.0 -26.5 -45.25 -25.75 -45.75 Q-25.5 -46.75 -28.75 -48.75 L-29.5 -50.0 -18.9 -52.15 -12.65 -54.0" fill="#000000" fill-opacity="0.49803922" fill-rule="evenodd" stroke="none"/>
  </g>
</svg>
