<?xml version="1.0" encoding="UTF-8" standalone="no"?>
<svg xmlns:ffdec="https://www.free-decompiler.com/flash" xmlns:xlink="http://www.w3.org/1999/xlink" ffdec:objectType="shape" height="206.85px" width="155.9px" xmlns="http://www.w3.org/2000/svg">
  <g transform="matrix(1.0, 0.0, 0.0, 1.0, 45.9, 119.9)">
    <path d="M51.05 -109.9 Q62.4 -116.8 75.25 -119.9 79.25 -112.85 81.85 -105.15 84.95 -95.85 86.15 -85.95 88.25 -68.3 87.0 -50.5 94.85 -43.45 98.35 -33.5 L104.6 -16.35 Q108.5 -5.95 109.5 5.05 110.45 15.6 108.75 26.0 L107.85 26.6 Q102.7 25.85 98.25 23.0 93.5 20.05 90.65 15.15 87.55 9.8 88.25 3.5 L83.25 -3.5 Q80.8 14.15 75.2 31.25 71.65 42.15 66.35 52.3 63.25 58.3 58.8 63.3 54.8 67.75 49.45 70.85 45.95 72.9 42.2 73.95 L38.05 74.55 Q20.65 76.4 4.55 69.7 -12.7 62.55 -26.5 50.05 -37.1 40.35 -42.75 27.05 -45.6 20.35 -45.6 12.95 -45.6 -1.05 -38.95 -13.2 -33.4 -23.5 -26.55 -32.8 L-8.25 -57.4 -9.9 -56.9 -13.8 -51.4 Q-24.85 -36.0 -38.2 -22.45 L-39.25 -23.0 Q-40.0 -29.95 -38.5 -36.85 -36.2 -47.75 -28.95 -56.15 -20.25 -66.15 -7.95 -71.35 3.2 -76.1 13.25 -82.5 23.5 -89.1 32.8 -96.9 41.45 -104.15 51.05 -109.9" fill="#2e47aa" fill-rule="evenodd" stroke="none"/>
    <path d="M81.8 2.5 L81.35 4.8 Q79.05 16.7 75.5 28.3 72.15 39.1 67.3 49.65 63.3 58.3 60.75 67.6 59.8 71.05 56.6 73.15 45.55 80.55 32.5 82.95 20.2 85.45 7.55 86.75 2.2 87.55 -2.65 85.3 -13.2 80.7 -10.0 70.0 -9.45 73.1 -7.6 75.55 L-6.15 77.5 -7.0 80.75 Q-1.4 84.85 6.0 83.9 L20.35 82.5 Q5.85 74.95 -10.0 70.0 L-6.5 64.1 -13.65 60.1 -19.0 61.85 Q-30.2 65.4 -34.95 55.3 L-33.35 57.3 -31.65 56.0 -30.15 56.0 -28.25 57.35 -27.75 57.35 -34.65 50.35 -35.9 50.1 -34.5 41.35 Q-44.5 30.05 -45.9 15.0 -44.15 20.95 -41.0 26.3 -37.8 31.8 -33.7 36.55 -25.25 46.4 -14.45 53.75 0.1 63.75 17.1 68.6 27.75 71.65 38.75 70.35 45.85 69.2 51.55 64.5 60.6 57.2 65.9 46.7 76.7 25.45 81.8 2.5 M83.1 -3.75 L82.8 -2.2 Q85.25 -14.85 86.0 -28.0 L86.1 -1.9 92.35 4.35 92.0 4.6 Q86.15 2.75 83.1 -3.75 M109.35 23.5 L108.75 25.85 107.85 26.6 Q88.75 19.75 89.1 12.1 101.1 22.35 109.6 -1.5 L110.0 5.85 109.35 23.5 M-16.0 -50.75 L-17.0 -53.15 -21.9 -57.0 -5.4 -60.5 Q-20.25 -41.8 -36.05 -23.85 -36.95 -22.85 -38.25 -22.7 L-39.5 -23.25 -40.0 -25.0 -37.9 -24.0 Q-34.7 -26.7 -32.35 -30.4 -25.3 -41.45 -16.0 -50.75" fill="#000000" fill-opacity="0.49803922" fill-rule="evenodd" stroke="none"/>
  </g>
</svg>
