<?xml version="1.0" encoding="UTF-8" standalone="no"?>
<svg xmlns:ffdec="https://www.free-decompiler.com/flash" xmlns:xlink="http://www.w3.org/1999/xlink" ffdec:objectType="shape" height="139.6px" width="136.35px" xmlns="http://www.w3.org/2000/svg">
  <g transform="matrix(1.0, 0.0, 0.0, 1.0, 47.7, 52.5)">
    <path d="M85.1 -13.0 Q83.75 -10.0 81.85 -7.65 83.75 -23.25 83.6 -52.5 86.75 -44.5 88.1 -36.1 90.1 -23.95 85.1 -13.0" fill="#2e47aa" fill-rule="evenodd" stroke="none"/>
    <path d="M86.1 -45.4 L86.6 -45.5 87.35 -42.65 88.6 -31.25 88.35 -22.15 87.6 -18.5 85.5 -14.4 85.35 -13.4 81.6 -7.15 81.35 -4.0 78.35 12.6 75.6 24.25 71.35 38.75 68.0 47.5 63.0 56.5 63.0 61.6 60.85 67.6 Q56.85 81.1 4.25 87.1 -19.5 81.5 -6.4 64.25 L-11.9 61.6 -13.9 60.25 -18.4 63.1 Q-22.15 65.25 -23.4 65.25 L-26.75 64.35 Q-31.0 62.1 -32.75 59.6 L-32.65 59.35 -34.25 57.6 -34.9 55.95 Q-33.25 59.3 -31.4 55.75 -34.9 51.85 -35.75 52.25 L-35.9 50.5 -34.75 42.75 Q-49.75 22.75 -47.4 16.0 -42.5 39.35 -1.25 61.6 28.85 74.75 48.5 66.25 78.35 49.5 83.75 -41.75 84.85 -41.65 85.1 -37.0 86.1 -37.75 86.1 -45.4 M19.75 82.6 L22.6 81.85 Q6.85 75.45 -10.0 70.5 -7.9 73.3 -6.4 76.5 -5.45 78.6 -6.7 80.45 L-7.0 80.75 Q-3.25 84.1 1.1 84.6 L19.75 82.6" fill="#000000" fill-opacity="0.49803922" fill-rule="evenodd" stroke="none"/>
  </g>
</svg>
