<?xml version="1.0" encoding="UTF-8" standalone="no"?>
<svg xmlns:ffdec="https://www.free-decompiler.com/flash" xmlns:xlink="http://www.w3.org/1999/xlink" ffdec:objectType="shape" height="87.3px" width="99.15px" xmlns="http://www.w3.org/2000/svg">
  <g transform="matrix(1.0, 0.0, 0.0, 1.0, 35.9, 0.2)">
    <path d="M-13.25 1.1 L-12.75 1.0 -12.4 0.85 -10.75 0.35 -7.0 0.0 Q-0.4 -1.4 14.0 6.6 22.75 11.6 25.0 19.5 20.6 40.6 -23.4 65.25 -37.25 60.25 -35.75 49.5 L-33.75 37.0 -32.25 31.1 -29.15 21.6 -25.4 13.5 -25.25 13.35 -21.9 8.0 -19.65 5.35 -19.25 5.1 -18.0 3.85 -17.4 3.35 -17.0 3.1 -16.9 3.0 -16.25 2.6 -16.0 2.5 -14.65 1.6 -14.5 1.6 -13.25 1.1 M-1.75 58.85 L1.85 55.1 10.1 46.85 16.6 41.0 17.25 40.5 17.5 40.25 23.35 35.6 23.6 35.5 24.0 35.1 25.0 34.35 25.1 34.25 28.1 32.25 28.6 32.0 28.75 31.85 29.0 31.75 29.6 31.35 29.85 31.25 30.5 30.85 30.6 30.85 30.85 30.75 31.5 30.35 34.6 29.1 36.85 28.75 Q44.5 29.0 52.35 37.25 70.6 57.85 58.35 70.75 L58.35 70.85 58.1 71.1 Q41.75 85.1 1.75 87.1 -8.5 87.25 -11.25 71.1 L-8.9 67.35 -7.5 65.75 -7.15 65.1 -1.9 59.1 -1.75 58.85" fill="#e58508" fill-rule="evenodd" stroke="none"/>
  </g>
</svg>
