<?xml version="1.0" encoding="UTF-8" standalone="no"?>
<svg xmlns:ffdec="https://www.free-decompiler.com/flash" xmlns:xlink="http://www.w3.org/1999/xlink" ffdec:objectType="shape" height="203.85px" width="140.4px" xmlns="http://www.w3.org/2000/svg">
  <g transform="matrix(1.0, 0.0, 0.0, 1.0, 47.55, 116.75)">
    <path d="M41.45 -104.95 Q51.45 -113.3 63.8 -116.6 66.5 -117.25 68.45 -115.25 74.25 -109.1 76.35 -100.55 78.9 -89.9 80.2 -78.95 81.5 -68.3 81.5 -57.6 L81.6 -45.75 Q87.6 -37.15 90.75 -27.15 95.5 -12.25 85.65 0.1 83.7 2.55 81.0 4.4 79.8 5.1 78.35 5.0 74.95 25.65 68.45 45.45 65.0 55.95 58.0 64.55 52.3 71.5 44.45 75.55 40.95 77.3 36.95 78.2 L27.05 78.8 Q12.9 78.05 0.2 72.0 -18.9 62.8 -33.4 47.65 -42.25 38.3 -45.95 26.1 -47.75 20.25 -47.55 14.2 -47.2 3.7 -42.85 -5.9 -29.45 -35.35 -8.6 -59.95 8.1 -79.65 28.7 -95.4 L41.45 -104.95" fill="#2e47aa" fill-rule="evenodd" stroke="none"/>
    <path d="M81.1 -33.0 L81.75 -32.9 82.6 -15.4 83.25 -15.15 Q91.75 -21.25 88.6 -33.5 94.25 -16.65 92.35 -13.0 91.1 -2.5 78.35 5.0 L76.0 17.1 72.1 32.25 68.1 45.25 64.75 53.75 63.1 56.6 63.0 61.5 60.85 67.6 Q56.85 81.1 4.25 87.1 -17.4 80.85 -9.15 67.5 L-17.25 62.5 Q-23.15 66.25 -25.0 65.0 L-26.75 64.35 -30.4 62.1 -33.9 58.1 -35.65 54.1 Q-36.4 50.35 -35.15 45.6 L-39.15 40.6 -41.25 37.1 -46.15 27.1 -46.9 22.6 Q-42.3 35.6 -21.65 53.5 12.75 79.75 43.1 71.35 72.85 62.25 81.1 -32.4 L81.1 -33.0 M85.1 -0.4 L86.1 -1.25 Q85.5 -2.4 89.25 -7.0 81.85 -3.4 85.1 -0.4 M6.75 84.0 L4.6 81.75 Q-4.75 76.5 -6.4 78.1 -8.65 82.5 1.75 84.6 L6.75 84.0" fill="#000000" fill-opacity="0.49803922" fill-rule="evenodd" stroke="none"/>
  </g>
</svg>
