<?xml version="1.0" encoding="UTF-8" standalone="no"?>
<svg xmlns:ffdec="https://www.free-decompiler.com/flash" xmlns:xlink="http://www.w3.org/1999/xlink" ffdec:objectType="shape" height="194.5px" width="153.3px" xmlns="http://www.w3.org/2000/svg">
  <g transform="matrix(1.0, 0.0, 0.0, 1.0, 49.15, 107.4)">
    <path d="M74.25 -60.0 L75.85 -37.3 Q82.1 -33.1 87.1 -27.75 94.6 -19.7 99.25 -9.0 L99.85 -8.9 Q100.9 2.35 93.45 10.35 92.15 11.75 90.35 12.45 84.55 14.55 84.0 8.1 L74.85 2.25 73.85 10.05 Q72.65 19.6 70.75 29.05 68.5 40.0 64.55 50.65 60.35 62.05 52.9 71.15 44.45 81.4 31.5 82.4 18.65 83.35 6.35 79.7 -5.95 76.25 -16.05 68.75 -25.65 61.55 -33.15 52.0 -41.35 41.6 -46.05 29.2 -50.45 17.75 -48.45 5.75 -46.4 -6.5 -39.7 -17.05 L-26.45 -36.95 Q-19.45 -47.05 -11.6 -56.5 L-8.75 -59.9 Q-3.75 -65.75 1.7 -71.2 8.85 -78.2 16.6 -84.4 25.55 -91.6 34.7 -98.5 42.2 -104.05 50.95 -106.85 L56.4 -107.1 Q65.1 -105.15 67.95 -95.85 68.5 -94.1 69.45 -92.6 72.9 -87.15 72.4 -80.9 L74.25 -60.0" fill="#2e47aa" fill-rule="evenodd" stroke="none"/>
    <path d="M74.25 -60.0 L72.4 -80.9 73.15 -79.85 Q80.1 -70.0 74.25 -60.0" fill="#e58508" fill-rule="evenodd" stroke="none"/>
    <path d="M75.25 -12.3 L76.25 -1.15 Q85.4 4.25 95.0 3.25 L92.1 6.25 Q89.4 8.25 87.1 8.55 L85.55 11.25 86.25 12.0 Q92.1 11.7 96.7 3.25 L96.85 2.85 96.25 2.25 95.25 2.15 Q97.45 2.3 99.4 -4.25 99.6 7.7 89.0 13.7 L86.25 13.55 85.55 12.25 84.55 11.7 84.1 8.0 77.25 4.0 75.1 2.25 74.55 2.25 74.0 8.85 71.4 23.85 68.4 36.4 65.25 46.85 62.55 53.55 63.1 56.7 63.0 61.85 60.85 67.7 57.7 71.85 Q42.7 84.1 4.25 87.1 L-0.45 86.85 Q-1.45 87.0 -5.45 84.1 -12.15 79.25 -11.45 71.4 -23.6 61.55 -26.6 64.4 L-30.9 61.85 Q-30.75 61.1 -33.45 58.85 -31.9 54.1 -45.75 34.4 L-48.75 24.55 -49.15 22.4 -49.15 14.55 Q-46.75 39.25 -27.9 54.7 L-18.75 61.0 4.55 73.25 15.85 77.25 27.55 77.85 37.0 76.25 Q64.1 72.0 74.7 -11.9 L74.7 -12.45 75.25 -12.3" fill="#000000" fill-opacity="0.49803922" fill-rule="evenodd" stroke="none"/>
    <path d="M95.2 -30.1 Q96.2 -21.25 94.4 -15.0 L77.65 -35.2 81.2 -35.45 Q89.3 -35.5 95.2 -30.1" fill="#ffffff" fill-rule="evenodd" stroke="none"/>
    <path d="M95.2 -30.1 Q104.4 -21.3 101.45 -8.8 L100.95 -7.1 94.4 -15.0 Q96.2 -21.25 95.2 -30.1" fill="#cccccc" fill-rule="evenodd" stroke="none"/>
    <path d="M100.95 -7.1 L101.45 -8.8 Q104.4 -21.3 95.2 -30.1 89.3 -35.5 81.2 -35.45 L77.65 -35.2" fill="none" stroke="#333333" stroke-linecap="round" stroke-linejoin="round" stroke-width="4.0"/>
  </g>
</svg>
