<?xml version="1.0" encoding="UTF-8" standalone="no"?>
<svg xmlns:ffdec="https://www.free-decompiler.com/flash" xmlns:xlink="http://www.w3.org/1999/xlink" ffdec:objectType="shape" height="181.7px" width="177.8px" xmlns="http://www.w3.org/2000/svg">
  <g transform="matrix(1.0, 0.0, 0.0, 1.0, 51.35, 88.5)">
    <path d="M51.7 -66.75 L51.85 -66.15 Q53.0 -59.9 49.55 -55.3 L49.25 -54.75 49.7 -52.9 52.55 -36.45 54.7 -22.75 55.85 -12.45 Q75.25 -0.7 90.55 16.4 106.8 10.45 124.0 9.85 125.45 9.8 126.45 10.9 L126.05 11.95 Q119.7 19.45 111.9 25.55 103.7 31.95 94.35 36.25 L90.85 37.75 Q85.0 40.05 79.7 37.0 L78.35 36.25 Q68.3 30.75 56.7 25.7 L56.0 25.1 54.0 42.4 Q50.5 62.75 39.15 80.1 33.45 88.85 23.4 91.65 15.65 93.9 7.65 92.9 2.3 91.95 -2.7 89.45 -15.65 83.0 -27.05 73.7 -35.6 66.75 -41.5 57.4 -46.35 49.8 -48.8 41.15 -51.5 31.7 -51.35 21.85 -51.2 10.45 -47.05 -0.1 -42.55 -11.45 -36.85 -22.3 -31.1 -33.3 -24.05 -43.7 -13.85 -58.8 -0.7 -71.2 3.35 -75.05 7.75 -78.35 13.05 -82.35 18.8 -85.6 22.65 -87.75 26.95 -88.3 36.85 -89.7 39.85 -80.0 L40.6 -79.85 Q45.15 -78.5 46.25 -73.9 L50.4 -69.9 51.7 -66.75" fill="#2e47aa" fill-rule="evenodd" stroke="none"/>
    <path d="M53.55 -62.45 L53.7 -65.6 51.7 -66.75 50.4 -69.9 Q63.0 -69.1 67.4 -58.0 68.7 -54.65 67.85 -51.05 65.15 -39.7 53.1 -36.75 L52.55 -36.45 49.7 -52.9 Q51.1 -53.0 52.55 -56.15 L53.55 -62.45" fill="#e58508" fill-rule="evenodd" stroke="none"/>
    <path d="M51.85 -66.15 L53.0 -64.75 53.0 -63.3 53.55 -62.45 52.55 -56.15 Q51.1 -53.0 49.7 -52.9 L49.25 -54.75 49.55 -55.3 Q53.0 -59.9 51.85 -66.15 M52.55 -36.45 L53.1 -36.75 54.7 -22.75 52.55 -36.45 M54.0 42.4 L56.0 25.1 56.7 25.7 Q56.75 28.05 56.4 30.3 L55.35 36.25 54.0 42.4" fill="#ffffff" fill-rule="evenodd" stroke="none"/>
    <path d="M51.7 -66.75 L53.7 -65.6 53.55 -62.45 53.0 -63.3 53.0 -64.75 51.85 -66.15 51.7 -66.75" fill="#31333d" fill-rule="evenodd" stroke="none"/>
    <path d="M52.0 -40.3 L51.55 -40.75 52.0 -40.75 52.0 -40.3 M52.1 -39.9 L52.1 -39.45 51.7 -39.9 52.1 -39.9 M54.25 -27.6 L55.85 -12.45 54.85 -13.15 51.85 -38.9 Q60.25 -38.45 64.55 -45.55 66.6 -48.95 68.0 -52.75 L68.25 -49.15 Q64.75 -40.4 55.7 -37.45 L53.1 -36.75 54.25 -28.15 53.85 -27.9 54.25 -27.6 M94.1 25.65 Q94.3 29.65 100.85 26.1 125.1 14.85 125.7 10.25 124.9 18.25 92.9 36.25 L89.0 38.4 83.55 39.4 82.0 39.55 80.55 39.1 Q80.25 37.95 78.0 36.25 72.65 32.35 56.7 25.55 L56.85 31.4 56.35 36.25 Q55.8 39.45 55.1 40.0 L60.7 48.55 62.4 53.0 63.1 56.7 Q62.7 69.0 55.85 73.25 L52.1 75.85 46.0 78.7 38.1 81.25 35.1 84.85 26.7 90.25 18.55 92.4 Q-6.9 96.1 -36.9 63.55 -48.2 54.35 -50.1 31.95 -47.6 44.05 -37.75 57.1 -4.15 86.85 13.25 85.4 39.25 79.0 42.4 62.85 48.8 46.65 51.1 36.25 54.3 21.8 49.55 18.4 L63.25 26.1 73.25 29.55 82.25 33.85 84.1 34.0 Q84.0 34.7 80.95 36.25 L79.7 36.85 80.1 37.7 Q80.9 36.9 83.35 36.25 85.2 35.75 88.0 35.4 L88.4 34.7 88.1 34.25 85.25 33.85 88.85 33.4 89.1 32.85 87.7 31.85 Q93.7 29.05 94.1 25.65" fill="#000000" fill-opacity="0.49803922" fill-rule="evenodd" stroke="none"/>
  </g>
</svg>
