<?xml version="1.0" encoding="UTF-8" standalone="no"?>
<svg xmlns:ffdec="https://www.free-decompiler.com/flash" xmlns:xlink="http://www.w3.org/1999/xlink" ffdec:objectType="shape" height="169.7px" width="121.45px" xmlns="http://www.w3.org/2000/svg">
  <g transform="matrix(1.0, 0.0, 0.0, 1.0, 59.65, 70.15)">
    <path d="M34.65 63.0 Q18.65 106.65 -8.2 98.15 -41.35 88.5 -57.35 49.3 -66.35 37.3 -40.35 -52.0 -30.0 -81.7 -7.2 -62.85 1.0 -66.35 1.65 -61.5 L2.0 -60.85 2.15 -60.35 2.25 -60.05 Q7.6 -48.9 4.5 -36.7 L6.3 -35.0 7.65 -35.0 14.5 -20.0 16.65 -20.5 26.85 4.2 Q29.8 11.25 30.95 18.9 32.75 31.15 34.0 43.4 35.0 53.3 34.65 63.0" fill="#2e47aa" fill-rule="evenodd" stroke="none"/>
    <path d="M6.0 -58.35 L8.15 -54.35 9.0 -53.85 9.8 -49.85 Q9.15 -45.85 11.8 -44.85 L11.5 -40.2 Q11.0 -37.85 7.65 -35.0 L6.3 -35.0 4.5 -36.7 Q7.6 -48.9 2.25 -60.05 L2.15 -60.35 6.0 -58.35 M24.5 -23.85 Q63.3 39.65 34.65 63.0 35.0 53.3 34.0 43.4 32.75 31.15 30.95 18.9 29.8 11.25 26.85 4.2 L16.65 -20.5 24.5 -23.85" fill="#ffffff" fill-rule="evenodd" stroke="none"/>
    <path d="M9.0 -53.85 L9.3 -55.5 Q15.95 -57.2 22.4 -55.1 36.25 -50.5 36.2 -35.85 36.2 -34.45 35.5 -33.15 31.95 -26.55 24.5 -23.85 L16.65 -20.5 14.5 -20.0 7.65 -35.0 Q11.0 -37.85 11.5 -40.2 L11.8 -44.85 12.3 -46.0 Q12.8 -47.0 11.15 -49.5 L9.8 -49.85 9.0 -53.85" fill="#e58508" fill-rule="evenodd" stroke="none"/>
    <path d="M6.0 -58.35 L8.0 -58.0 9.3 -55.5 9.0 -53.85 8.15 -54.35 6.0 -58.35 M11.8 -44.85 Q9.15 -45.85 9.8 -49.85 L11.15 -49.5 Q12.8 -47.0 12.3 -46.0 L11.8 -44.85" fill="#31333d" fill-rule="evenodd" stroke="none"/>
    <path d="M33.75 -30.55 L32.15 -28.5 24.5 -23.85 37.15 1.3 Q31.8 -6.1 25.5 -12.8 22.65 -15.85 18.3 -16.0 L13.8 -20.5 Q24.8 -23.9 33.75 -30.55 M12.8 -7.0 L14.65 -3.7 22.35 6.25 23.75 8.0 Q28.5 14.3 31.3 21.4 33.15 26.05 29.25 28.55 23.7 32.05 17.8 29.0 23.4 49.8 26.5 71.0 33.35 60.3 34.3 47.5 35.95 51.45 35.3 55.8 44.55 36.85 43.8 15.5 50.35 31.8 48.2 49.0 46.15 65.3 36.15 78.5 L41.5 77.3 Q53.95 74.9 61.8 65.0 61.45 66.75 60.3 68.1 54.8 74.65 47.05 78.4 36.7 83.35 25.3 84.3 15.0 94.45 1.05 98.45 -4.95 100.25 -10.9 98.45 -15.35 97.2 -19.2 95.1 -23.45 92.8 -27.1 89.75 -31.85 85.85 -36.0 80.95 -48.55 66.25 -56.85 48.7 -59.6 42.8 -59.05 36.55 -55.45 -2.6 -44.7 -40.5 L-44.0 -40.35 -45.15 -32.75 Q-47.25 -17.95 -50.0 -3.15 -52.9 12.3 -54.9 27.65 -55.45 31.75 -55.15 35.8 -53.9 52.4 -41.85 64.5 -29.0 77.5 -11.7 83.3 -12.75 77.4 -13.95 71.55 -19.95 42.5 -20.7 13.0 -12.05 20.45 -0.5 20.5 L0.15 18.7 Q1.85 13.25 0.1 8.0 L-0.7 6.0 Q1.3 -1.1 6.0 -7.0 L7.9 -6.45 Q10.55 -5.75 12.8 -7.0" fill="#000000" fill-opacity="0.49803922" fill-rule="evenodd" stroke="none"/>
    <path d="M24.25 -41.1 Q39.6 -22.8 21.15 -7.6 L19.85 -6.7 13.75 -14.2 Q26.55 -20.55 24.25 -41.1 M4.6 -11.65 L1.65 -6.2 1.5 -6.3 Q-2.5 -8.15 -5.5 -11.55 0.05 -11.15 4.6 -11.65" fill="#cccccc" fill-rule="evenodd" stroke="none"/>
    <path d="M-5.5 -11.55 Q-18.15 -30.5 0.9 -43.25 7.0 -47.35 14.2 -46.1 20.0 -45.0 24.25 -41.1 26.55 -20.55 13.75 -14.2 13.35 -14.95 10.75 -16.05 8.1 -17.25 4.6 -11.65 0.05 -11.15 -5.5 -11.55" fill="#ffffff" fill-rule="evenodd" stroke="none"/>
    <path d="M-5.5 -11.55 Q-18.15 -30.5 0.9 -43.25 7.0 -47.35 14.2 -46.1 20.0 -45.0 24.25 -41.1 39.6 -22.8 21.15 -7.6 L19.85 -6.7 M1.65 -6.2 L1.5 -6.3 Q-2.5 -8.15 -5.5 -11.55" fill="none" stroke="#333333" stroke-linecap="round" stroke-linejoin="round" stroke-width="4.0"/>
  </g>
</svg>
