<?xml version="1.0" encoding="UTF-8" standalone="no"?>
<svg xmlns:ffdec="https://www.free-decompiler.com/flash" xmlns:xlink="http://www.w3.org/1999/xlink" ffdec:objectType="shape" height="169.1px" width="127.2px" xmlns="http://www.w3.org/2000/svg">
  <g transform="matrix(1.0, 0.0, 0.0, 1.0, 59.15, 71.8)">
    <path d="M40.65 55.65 Q25.8 124.8 -36.5 78.5 -53.2 64.5 -58.0 44.8 L-59.0 33.15 -58.35 18.3 -57.2 7.8 -52.7 -16.5 -51.0 -23.0 -50.35 -28.5 Q-53.5 -34.7 -50.0 -38.85 L-49.85 -39.2 -49.0 -40.35 -48.85 -40.7 Q-48.0 -43.85 -46.0 -45.85 L-41.5 -50.0 Q-27.2 -83.0 -7.0 -66.0 L-1.35 -67.85 Q0.8 -67.7 2.15 -65.5 L2.3 -65.5 2.65 -65.0 2.65 -64.85 3.15 -64.0 Q12.1 -53.95 8.65 -41.5 L9.8 -40.2 11.0 -40.2 18.15 -25.85 19.5 -26.2 29.65 -3.2 36.3 -2.35 Q44.8 -2.5 46.65 3.15 65.8 14.3 45.0 18.65 L36.15 18.15 39.1 35.45 Q40.65 45.5 40.65 55.65" fill="#2e47aa" fill-rule="evenodd" stroke="none"/>
    <path d="M3.15 -64.0 L6.0 -62.85 9.15 -58.85 Q9.15 -57.3 9.8 -56.2 10.4 -55.15 11.25 -55.15 L13.8 -50.0 14.15 -46.7 Q13.65 -43.35 11.0 -40.2 L9.8 -40.2 8.65 -41.5 Q12.1 -53.95 3.15 -64.0 M24.5 -29.0 L30.8 -13.7 36.3 -2.35 29.65 -3.2 19.5 -26.2 Q21.8 -27.9 24.5 -29.0 M45.0 18.65 Q48.0 20.8 46.5 43.15 L40.65 55.65 Q40.65 45.5 39.1 35.45 L36.15 18.15 45.0 18.65" fill="#ffffff" fill-rule="evenodd" stroke="none"/>
    <path d="M9.3 -60.2 Q15.95 -62.5 22.6 -60.5 36.65 -56.25 36.1 -41.7 L35.75 -40.3 Q32.15 -33.05 24.5 -29.0 21.8 -27.9 19.5 -26.2 L18.15 -25.85 11.0 -40.2 Q13.65 -43.35 14.15 -46.7 L13.8 -50.0 14.5 -52.0 13.3 -54.5 11.25 -55.15 Q10.4 -55.15 9.8 -56.2 9.15 -57.3 9.15 -58.85 L9.65 -59.35 9.3 -60.2" fill="#e58508" fill-rule="evenodd" stroke="none"/>
    <path d="M6.0 -62.85 Q7.35 -62.85 8.35 -62.05 9.3 -61.3 9.3 -60.2 L9.65 -59.35 9.15 -58.85 6.0 -62.85 M11.25 -55.15 L13.3 -54.5 14.5 -52.0 13.8 -50.0 11.25 -55.15" fill="#31333d" fill-rule="evenodd" stroke="none"/>
    <path d="M24.65 0.15 L20.8 2.0 Q22.15 -2.0 38.65 0.3 L24.65 0.15 M40.65 46.15 L40.8 47.15 41.5 47.3 41.3 46.8 46.0 36.0 45.8 22.0 46.65 23.3 Q46.0 37.8 48.5 39.3 L48.65 54.8 42.5 68.0 41.65 77.15 Q55.8 73.3 61.15 65.3 L61.8 65.0 60.8 67.8 Q58.5 75.8 32.0 83.0 30.8 83.0 27.15 88.5 L19.65 94.0 11.3 96.8 3.65 97.3 Q-26.35 96.65 -54.35 55.65 -66.2 42.15 -48.7 -41.5 L-47.0 -41.5 -45.5 -40.85 -47.0 -38.0 -46.85 -37.2 -48.2 -30.7 -48.85 -29.5 -50.2 -13.0 -54.0 8.65 -54.85 10.5 -55.7 18.65 -56.7 21.0 -57.0 28.5 Q-56.5 32.5 -57.0 33.0 L-56.35 37.15 Q-56.5 54.15 -27.35 74.8 6.3 90.8 13.15 85.3 L9.5 71.8 5.65 60.3 -1.0 43.3 -3.35 38.65 -9.0 20.65 -10.0 10.5 -4.5 12.65 Q-4.0 13.5 2.3 13.65 L12.15 13.5 18.3 12.15 Q19.3 6.15 18.15 5.65 38.65 14.15 55.65 11.0 55.0 23.0 27.0 16.65 L26.3 16.8 28.3 20.3 31.8 29.8 38.0 51.5 Q38.65 50.8 39.3 45.0 L38.5 30.15 39.15 30.15 40.0 34.3 40.65 46.15 M31.15 -34.7 L34.8 -38.5 Q33.0 -33.85 24.5 -29.2 L28.65 -18.85 Q22.65 -23.5 21.3 -22.2 L17.8 -26.7 26.3 -31.2 31.15 -34.7" fill="#000000" fill-opacity="0.49803922" fill-rule="evenodd" stroke="none"/>
    <path d="M29.4 -0.4 Q16.8 -19.65 35.85 -31.85 44.15 -37.2 53.25 -33.55 56.55 -32.25 59.15 -29.95 62.8 2.15 29.4 -0.4" fill="#ffffff" fill-rule="evenodd" stroke="none"/>
    <path d="M59.15 -29.95 Q74.55 -11.1 55.7 3.75 53.5 5.45 51.05 5.9 44.15 0.95 29.7 -0.1 L29.4 -0.4 Q62.8 2.15 59.15 -29.95" fill="#cccccc" fill-rule="evenodd" stroke="none"/>
    <path d="M29.4 -0.4 Q16.8 -19.65 35.85 -31.85 44.15 -37.2 53.25 -33.55 56.55 -32.25 59.15 -29.95 74.55 -11.1 55.7 3.75 53.5 5.45 51.05 5.9 M29.7 -0.1 L29.4 -0.4" fill="none" stroke="#333333" stroke-linecap="round" stroke-linejoin="round" stroke-width="4.0"/>
  </g>
</svg>
