<?xml version="1.0" encoding="UTF-8" standalone="no"?>
<svg xmlns:ffdec="https://www.free-decompiler.com/flash" xmlns:xlink="http://www.w3.org/1999/xlink" ffdec:objectType="shape" height="179.2px" width="176.8px" xmlns="http://www.w3.org/2000/svg">
  <g transform="matrix(1.0, 0.0, 0.0, 1.0, 65.95, 91.85)">
    <path d="M49.7 -52.15 L44.4 -66.6 44.7 -67.75 Q46.4 -74.45 42.85 -78.6 L41.0 -80.3 Q47.15 -80.2 50.6 -75.1 58.85 -63.1 49.7 -52.15" fill="#e58508" fill-rule="evenodd" stroke="none"/>
    <path d="M41.0 -80.3 L42.85 -78.6 Q46.4 -74.45 44.7 -67.75 L44.4 -66.6 49.7 -52.15 55.25 -32.15 Q76.5 -30.8 95.25 -20.6 96.2 -21.15 97.2 -21.5 L98.9 -21.65 Q107.9 -19.45 110.85 -10.15 105.6 -3.8 99.35 1.25 92.75 6.65 86.25 2.25 L61.4 1.55 Q62.6 13.15 62.5 24.65 62.45 32.15 61.75 39.55 61.1 46.1 59.7 52.55 58.9 56.3 57.5 59.95 L55.45 64.95 Q52.3 72.4 46.25 77.9 36.9 86.4 24.25 87.35 L19.0 87.35 Q13.25 87.3 7.55 86.15 -12.05 82.15 -29.1 71.6 -45.05 61.65 -51.95 44.1 -54.9 36.55 -55.1 28.6 -55.9 -3.05 -40.75 -31.3 L-42.75 -30.6 Q-50.85 -14.8 -63.6 -2.6 L-64.75 -3.0 -65.05 -4.15 Q-67.4 -21.0 -56.75 -33.7 L-53.8 -37.05 Q-42.35 -48.8 -28.1 -57.3 -22.5 -60.6 -18.1 -65.1 -8.1 -75.35 3.1 -84.35 8.3 -88.6 14.6 -90.6 29.4 -95.45 37.1 -81.6 L40.55 -80.3 41.0 -80.3" fill="#2e47aa" fill-rule="evenodd" stroke="none"/>
    <path d="M-54.6 -31.15 L-46.0 -33.45 -36.3 -37.15 Q-40.6 -30.3 -42.3 -30.75 L-56.15 -10.3 -60.6 -4.75 -63.45 -2.6 Q-67.75 -4.75 -64.6 -18.45 -64.75 -14.75 -61.45 -15.75 -53.45 -24.15 -51.45 -23.75 -48.3 -26.0 -54.6 -31.15 M57.7 -1.3 L64.4 -0.45 77.4 0.25 94.1 -1.15 Q97.25 -3.6 98.7 -9.0 L99.4 -8.9 Q99.0 -10.45 103.7 -11.3 L103.7 -13.6 100.85 -14.45 Q106.4 -14.15 106.7 -15.9 116.85 -6.75 94.4 3.7 88.7 5.1 86.25 2.25 L80.1 2.7 61.55 1.55 62.1 7.7 62.1 29.4 61.55 39.0 60.25 48.0 62.1 52.1 63.1 58.4 Q63.4 64.1 58.4 70.85 39.55 86.25 22.85 87.25 L15.85 87.1 11.25 86.55 1.55 87.1 -0.9 86.7 Q-2.9 86.1 -5.45 84.1 L-8.75 80.85 -17.15 77.25 -28.6 71.25 -37.3 64.0 Q-57.9 51.55 -55.75 9.85 -51.15 81.7 27.55 79.0 49.85 73.55 55.0 54.25 65.25 13.4 57.7 -1.3" fill="#000000" fill-opacity="0.49803922" fill-rule="evenodd" stroke="none"/>
  </g>
</svg>
