<?xml version="1.0" encoding="UTF-8" standalone="no"?>
<svg xmlns:ffdec="https://www.free-decompiler.com/flash" xmlns:xlink="http://www.w3.org/1999/xlink" ffdec:objectType="shape" height="175.45px" width="164.85px" xmlns="http://www.w3.org/2000/svg">
  <g transform="matrix(1.0, 0.0, 0.0, 1.0, 65.15, 85.8)">
    <path d="M43.4 -46.6 L37.7 -60.75 38.7 -62.9 38.7 -65.0 Q38.7 -69.95 36.6 -73.45 34.55 -76.95 31.65 -77.0 47.3 -77.9 49.75 -62.7 51.3 -52.85 43.4 -46.6" fill="#e58508" fill-rule="evenodd" stroke="none"/>
    <path d="M43.4 -46.6 L52.0 -20.0 Q72.55 -5.9 87.9 16.15 99.8 30.55 99.25 49.55 L98.4 50.25 Q94.2 50.75 89.95 50.2 74.15 48.1 70.7 32.85 L58.55 25.1 Q58.6 32.9 57.9 40.85 57.3 47.4 55.9 53.9 53.15 66.5 45.5 76.95 38.0 87.25 25.5 89.0 15.25 90.7 5.3 88.0 -10.15 83.85 -24.05 76.3 -31.8 72.15 -38.5 66.15 -48.65 56.9 -54.25 44.2 -56.4 39.35 -56.75 34.1 -58.9 2.65 -45.45 -26.15 L-61.0 -4.15 -61.75 -4.15 Q-67.35 -11.6 -63.35 -20.6 -58.85 -30.6 -51.5 -38.75 -43.2 -48.0 -32.45 -54.1 -29.65 -55.6 -27.1 -57.45 -18.7 -63.6 -11.55 -72.0 -4.35 -80.4 5.6 -84.1 20.3 -89.6 29.25 -77.15 L31.65 -77.0 Q34.55 -76.95 36.6 -73.45 38.7 -69.95 38.7 -65.0 L37.4 -61.3 37.7 -60.75 43.4 -46.6" fill="#2e47aa" fill-rule="evenodd" stroke="none"/>
    <path d="M37.7 -60.75 L37.4 -61.3 38.7 -65.0 38.7 -62.9 37.7 -60.75" fill="#ffffff" fill-rule="evenodd" stroke="none"/>
    <path d="M-55.6 -28.75 L-56.45 -31.3 Q-47.35 -31.5 -38.9 -36.0 -48.6 -18.7 -61.35 -4.3 -67.1 -11.0 -64.15 -19.75 L-62.45 -18.25 Q-59.2 -18.15 -56.35 -19.9 -54.75 -20.95 -53.75 -22.35 -51.0 -26.2 -55.6 -28.75 M94.85 26.55 Q101.25 37.35 99.2 49.8 L95.55 50.35 93.75 50.45 Q84.55 50.75 77.55 44.7 74.0 41.65 71.95 37.05 L75.8 39.65 78.05 39.5 78.0 38.0 81.55 39.85 Q89.35 38.9 94.85 26.55 M86.65 29.95 Q85.75 33.8 81.6 34.7 L71.65 36.15 70.85 32.7 58.55 25.1 57.85 44.0 Q61.7 48.7 63.1 56.7 L63.0 61.85 60.85 67.7 Q34.0 91.55 20.1 89.1 -51.9 79.55 -56.65 27.75 -51.2 68.8 10.85 79.85 37.85 83.25 46.55 67.25 53.55 58.85 56.4 29.85 L55.1 25.55 49.4 16.7 61.4 25.1 64.75 26.9 79.25 33.25 79.0 32.65 Q80.05 32.05 81.4 32.0 L84.45 28.75 Q85.9 26.95 86.5 29.15 L86.65 29.95" fill="#000000" fill-opacity="0.49803922" fill-rule="evenodd" stroke="none"/>
  </g>
</svg>
