<?xml version="1.0" encoding="UTF-8" standalone="no"?>
<svg xmlns:ffdec="https://www.free-decompiler.com/flash" xmlns:xlink="http://www.w3.org/1999/xlink" ffdec:objectType="shape" height="185.1px" width="136.75px" xmlns="http://www.w3.org/2000/svg">
  <g transform="matrix(1.0, 0.0, 0.0, 1.0, 64.75, 79.5)">
    <path d="M27.55 -67.6 L27.25 -68.0 Q25.05 -70.5 21.85 -71.15 L21.7 -71.75 Q32.8 -75.15 40.2 -67.05 44.05 -62.95 44.25 -57.45 44.65 -46.4 35.55 -40.15 L29.1 -53.75 Q32.1 -59.15 30.0 -63.45 30.0 -65.15 29.3 -66.35 28.55 -67.6 27.55 -67.6" fill="#e58508" fill-rule="evenodd" stroke="none"/>
    <path d="M27.55 -67.6 L28.7 -65.6 Q31.5 -59.85 28.7 -54.6 L29.1 -53.75 35.55 -40.15 Q38.8 -31.3 42.35 -22.5 56.1 11.9 66.55 47.25 67.5 50.55 69.45 59.4 71.4 68.25 71.9 84.6 72.35 100.9 70.15 105.6 53.3 93.85 47.7 74.1 45.75 78.55 42.6 81.95 35.5 89.5 25.1 90.6 10.8 92.2 -2.75 87.65 -19.55 81.8 -35.05 72.9 -45.9 66.7 -51.5 55.55 -53.5 51.6 -54.45 46.95 -60.9 15.95 -52.3 -14.6 L-59.15 -5.6 Q-62.2 -7.7 -63.4 -11.0 -66.95 -20.8 -61.1 -29.95 -54.35 -40.45 -43.15 -46.15 -33.25 -51.3 -26.05 -59.95 -18.55 -69.05 -8.85 -75.6 -6.85 -76.95 -4.65 -77.75 8.9 -82.75 19.55 -73.45 L21.7 -71.75 21.85 -71.15 Q25.05 -70.5 27.25 -68.0 L27.55 -67.6" fill="#2e47aa" fill-rule="evenodd" stroke="none"/>
    <path d="M29.1 -53.75 L28.7 -54.6 Q31.5 -59.85 28.7 -65.6 L30.0 -63.45 Q32.1 -59.15 29.1 -53.75" fill="#ffffff" fill-rule="evenodd" stroke="none"/>
    <path d="M28.7 -65.6 L27.55 -67.6 Q28.55 -67.6 29.3 -66.35 30.0 -65.15 30.0 -63.45 L28.7 -65.6" fill="#31333d" fill-rule="evenodd" stroke="none"/>
    <path d="M-2.45 88.7 L-13.6 84.55 -27.3 78.1 -36.75 71.7 Q-65.9 50.25 -55.6 -2.15 -61.45 69.85 -13.0 77.0 21.7 88.85 41.55 71.4 L42.7 69.4 40.1 60.55 34.0 43.1 28.7 31.0 27.55 27.25 26.0 24.1 25.85 22.85 26.1 22.7 28.1 27.55 37.85 45.1 45.55 56.7 48.4 60.25 Q42.1 63.0 50.85 79.7 51.7 82.1 53.7 83.85 L55.85 88.0 66.55 99.25 69.25 103.0 Q71.35 101.0 71.45 91.0 L71.7 97.1 Q71.85 104.85 70.25 105.55 61.1 103.25 49.0 77.25 45.7 76.7 34.85 87.0 L26.85 90.1 16.1 91.4 8.25 91.0 -2.45 88.7 M-58.6 -31.3 Q-56.75 -28.75 -43.3 -33.45 -47.9 -29.75 -52.45 -14.15 L-56.15 -8.3 -59.0 -5.6 Q-65.0 -5.45 -64.75 -21.0 -51.0 -17.0 -58.6 -31.3" fill="#000000" fill-opacity="0.49803922" fill-rule="evenodd" stroke="none"/>
  </g>
</svg>
