<?xml version="1.0" encoding="UTF-8" standalone="no"?>
<svg xmlns:ffdec="https://www.free-decompiler.com/flash" xmlns:xlink="http://www.w3.org/1999/xlink" ffdec:objectType="shape" height="152.15px" width="161.85px" xmlns="http://www.w3.org/2000/svg">
  <g transform="matrix(1.0, 0.0, 0.0, 1.0, 37.85, 12.0)">
    <path d="M122.0 29.65 L122.6 30.45 Q125.95 35.55 121.3 40.15 120.4 43.55 117.0 47.15 L116.8 47.0 117.0 47.2 Q105.45 59.2 67.65 80.0 67.9 97.3 63.65 114.3 L66.9 121.05 Q71.3 130.85 67.8 140.15 L61.6 136.25 Q56.5 132.7 51.55 129.05 38.75 119.5 41.0 105.8 L39.8 96.8 Q30.7 100.4 22.45 98.7 L21.5 99.0 Q-3.8 107.4 -25.55 93.65 -28.05 92.05 -29.85 89.9 -31.9 87.45 -33.0 84.3 -48.05 41.4 -16.6 7.35 -11.3 1.6 -4.1 -1.35 48.6 -22.7 102.6 -1.25 124.05 7.4 122.0 29.65" fill="#2e47aa" fill-rule="evenodd" stroke="none"/>
  </g>
</svg>
