<?xml version="1.0" encoding="UTF-8" standalone="no"?>
<svg xmlns:ffdec="https://www.free-decompiler.com/flash" xmlns:xlink="http://www.w3.org/1999/xlink" ffdec:objectType="shape" height="121.65px" width="162.65px" xmlns="http://www.w3.org/2000/svg">
  <g transform="matrix(1.0, 0.0, 0.0, 1.0, 38.45, 12.05)">
    <path d="M123.15 37.65 L121.3 40.0 121.3 40.15 120.75 40.55 Q121.3 42.55 117.1 46.7 L117.0 46.65 116.85 47.0 116.8 47.0 116.35 47.5 116.15 47.7 114.7 49.0 Q107.45 55.4 91.55 65.75 L92.0 66.1 92.0 66.15 92.3 66.35 93.1 66.95 85.8 83.5 79.8 95.0 79.65 95.15 77.0 98.65 Q74.65 99.15 74.15 94.8 L73.8 94.15 73.8 97.65 74.0 99.3 Q80.65 102.15 78.5 106.15 75.5 110.15 62.3 109.5 44.65 105.0 49.8 97.3 L47.7 92.65 Q33.3 99.1 23.0 98.65 L21.5 99.0 16.15 100.15 1.3 102.0 -0.85 101.8 -1.2 101.8 -2.2 101.65 -10.35 101.15 -15.5 99.5 -16.0 99.3 -16.2 99.3 -16.5 99.15 -16.7 99.0 -17.0 99.0 -17.2 98.8 -17.5 98.8 -17.7 98.65 -18.0 98.65 -18.2 98.5 -18.5 98.5 -18.7 98.3 -19.0 98.15 -19.2 98.3 -20.0 97.8 -22.2 96.8 -23.35 96.0 -24.0 95.65 -24.5 95.15 -29.0 92.0 Q-41.5 85.8 -37.5 48.0 -26.35 6.5 -4.0 -2.35 18.8 -16.5 73.3 -10.0 130.0 1.65 122.0 29.65 L124.15 33.3 Q124.5 35.65 123.0 37.3 L123.15 37.5 123.15 37.65" fill="#2e47aa" fill-rule="evenodd" stroke="none"/>
  </g>
</svg>
