<?xml version="1.0" encoding="UTF-8" standalone="no"?>
<svg xmlns:ffdec="https://www.free-decompiler.com/flash" xmlns:xlink="http://www.w3.org/1999/xlink" ffdec:objectType="shape" height="178.9px" width="135.3px" xmlns="http://www.w3.org/2000/svg">
  <g transform="matrix(1.0, 0.0, 0.0, 1.0, 72.1, 70.65)">
    <path d="M7.7 -26.0 L7.3 -25.6 Q7.25 -25.55 7.15 -25.65 L7.2 -25.7 7.6 -26.1 7.7 -26.0" fill="#243773" fill-rule="evenodd" stroke="none"/>
    <path d="M22.15 -66.5 Q25.45 -63.9 28.45 -59.65 34.55 -51.05 43.55 -46.0 69.2 -31.55 61.4 -3.55 L61.05 -3.65 Q57.95 -5.0 56.1 -7.85 53.6 -11.9 50.55 -15.45 L51.25 -11.95 Q53.5 0.1 51.85 12.4 54.05 39.45 44.2 55.8 42.25 58.95 39.95 61.7 22.95 82.1 -4.75 80.55 -18.6 85.0 -31.85 82.4 -41.25 80.5 -50.3 75.1 -56.35 93.1 -67.7 108.25 L-68.4 107.6 Q-76.65 77.65 -66.6 47.1 L-65.0 46.7 Q-58.35 21.25 -47.15 -1.85 -31.4 -34.35 -6.65 -62.2 -4.3 -64.8 -1.45 -66.55 11.75 -74.75 22.15 -66.5 M7.7 -26.0 L7.6 -26.1 7.2 -25.7 7.15 -25.65 Q7.25 -25.55 7.3 -25.6 L7.7 -26.0" fill="#2e47aa" fill-rule="evenodd" stroke="none"/>
  </g>
</svg>
