<?xml version="1.0" encoding="UTF-8" standalone="no"?>
<svg xmlns:ffdec="https://www.free-decompiler.com/flash" xmlns:xlink="http://www.w3.org/1999/xlink" ffdec:objectType="shape" height="290.5px" width="381.95px" xmlns="http://www.w3.org/2000/svg">
  <g transform="matrix(1.0, 0.0, 0.0, 1.0, 211.9, 148.0)">
    <path d="M121.25 -41.75 L138.0 -13.5 154.0 18.0 164.5 43.25 164.5 43.5 Q170.25 54.0 169.5 64.75 L169.75 66.25 Q171.5 85.25 162.25 98.25 157.25 111.75 143.0 108.25 L142.5 108.0 139.0 105.0 Q137.0 102.25 137.75 97.0 L137.75 90.25 140.0 74.75 142.25 65.0 137.0 58.0 Q125.25 111.0 99.25 121.75 L91.75 126.5 91.25 126.75 90.75 127.25 90.0 127.75 89.75 128.0 88.75 128.5 87.5 129.5 84.0 131.0 83.25 131.0 Q-5.3 158.45 -76.5 120.5 L-82.5 117.25 -83.25 116.75 -83.75 116.5 -84.5 116.5 -85.0 115.5 -89.5 111.75 -89.75 111.75 -92.25 109.5 Q-136.0 67.25 -119.0 19.5 L-131.0 27.75 Q-127.25 40.0 -169.0 60.25 L-189.0 63.5 -205.0 62.5 -205.25 62.5 -205.5 62.25 -206.0 62.25 -206.75 62.0 -207.0 62.0 -207.25 61.75 -208.75 61.25 Q-214.0 58.75 -210.5 55.0 L-206.0 49.0 Q-151.5 -10.75 -137.25 -7.25 L-127.5 -19.25 -99.5 -47.0 -76.0 -67.25 -68.25 -72.0 Q-1.75 -148.0 35.5 -148.0 70.75 -140.0 116.0 -48.5 L121.25 -41.75 M-16.7 -3.15 L-16.0 -2.75 -16.5 -3.5 -16.7 -3.15" fill="#2e47aa" fill-rule="evenodd" stroke="none"/>
    <path d="M-16.7 -3.15 L-16.5 -3.5 -16.0 -2.75 -16.7 -3.15" fill="#ffffff" fill-rule="evenodd" stroke="none"/>
  </g>
</svg>
