<?xml version="1.0" encoding="UTF-8" standalone="no"?>
<svg xmlns:ffdec="https://www.free-decompiler.com/flash" xmlns:xlink="http://www.w3.org/1999/xlink" ffdec:objectType="shape" height="290.1px" width="395.95px" xmlns="http://www.w3.org/2000/svg">
  <g transform="matrix(1.0, 0.0, 0.0, 1.0, 226.6, 144.75)">
    <path d="M110.8 -99.45 Q115.25 -90.3 119.25 -80.95 124.25 -69.15 128.8 -57.15 133.65 -44.3 137.65 -31.05 L139.75 -24.25 149.75 5.5 161.25 49.25 Q164.15 62.0 166.65 75.0 169.8 91.35 169.25 108.0 169.2 110.0 167.5 110.75 167.05 118.6 161.45 124.1 158.6 126.95 154.7 128.65 152.1 129.65 149.6 130.75 148.0 131.45 146.5 132.25 141.9 130.75 137.55 128.15 L130.8 124.5 117.25 117.25 Q106.7 125.05 95.8 132.2 89.35 136.5 82.1 138.75 L71.6 141.5 Q56.1 144.6 40.2 145.1 17.55 146.3 -4.7 142.0 L-8.35 141.3 -12.05 140.5 Q-28.45 136.65 -43.9 130.1 -63.0 122.0 -79.6 109.75 -92.15 100.35 -101.0 87.25 -107.15 78.05 -110.65 67.65 -114.15 57.4 -114.55 46.5 -114.95 36.75 -113.2 27.25 -122.95 34.55 -134.0 39.6 -136.65 40.8 -139.5 41.5 L-148.85 43.2 -158.3 44.3 Q-172.0 44.95 -185.3 41.1 -201.95 36.15 -216.8 26.95 L-225.35 21.5 -225.8 21.1 -226.15 20.65 Q-227.15 19.0 -225.9 17.5 -225.05 16.55 -223.9 16.0 -220.6 14.15 -217.1 12.6 L-196.25 3.5 -171.0 -4.75 -146.25 -11.5 Q-137.4 -13.0 -128.8 -15.75 -125.15 -16.95 -121.6 -18.45 -115.7 -21.0 -109.95 -23.7 L-77.5 -52.25 -50.75 -72.25 -29.8 -90.3 -21.05 -97.7 Q-8.6 -107.75 4.35 -117.1 16.55 -126.0 29.8 -133.3 L36.9 -137.1 40.3 -138.8 43.75 -140.25 47.25 -141.45 Q57.75 -145.25 68.8 -144.65 72.2 -144.3 75.2 -142.85 L78.2 -141.25 Q83.4 -138.25 87.55 -134.0 91.75 -129.75 95.3 -124.85 104.2 -112.85 110.8 -99.45" fill="#2e47aa" fill-rule="evenodd" stroke="none"/>
  </g>
</svg>
