<?xml version="1.0" encoding="UTF-8" standalone="no"?>
<svg xmlns:ffdec="https://www.free-decompiler.com/flash" xmlns:xlink="http://www.w3.org/1999/xlink" ffdec:objectType="shape" height="291.4px" width="403.55px" xmlns="http://www.w3.org/2000/svg">
  <g transform="matrix(1.0, 0.0, 0.0, 1.0, 231.55, 138.65)">
    <path d="M158.5 -2.5 L164.0 27.75 170.0 78.75 171.25 104.0 171.5 105.25 172.0 114.75 171.75 122.75 170.25 132.75 170.25 133.0 Q167.75 146.25 154.0 152.25 L153.25 152.75 148.75 151.75 148.25 151.75 147.5 151.5 147.25 151.5 147.0 151.25 146.5 151.0 139.5 148.75 131.5 144.25 114.25 130.5 106.0 136.5 99.25 139.5 98.5 140.0 97.75 140.0 97.25 140.25 96.5 140.5 95.5 141.0 94.0 141.5 87.75 144.25 82.25 145.75 Q-1.2 161.15 -69.75 110.25 L-71.0 108.5 -75.25 105.25 -76.0 104.5 -76.75 104.0 -81.25 99.75 -92.25 86.25 -103.25 65.25 Q-110.2 48.8 -105.05 24.9 -111.5 29.1 -118.55 32.0 -126.4 39.15 -133.25 35.5 L-145.25 35.0 -147.5 34.0 -174.25 24.25 -201.5 6.5 -222.0 -10.25 -230.0 -18.5 Q-233.5 -22.75 -229.0 -25.25 L-217.25 -26.75 Q-153.85 -28.05 -127.15 -22.65 L-126.0 -22.65 Q-113.65 -22.45 -102.25 -26.55 -95.1 -29.1 -88.05 -32.05 L-62.75 -51.5 -45.25 -63.5 -44.75 -64.0 -44.0 -64.5 -43.5 -65.0 Q66.0 -146.75 104.25 -137.75 136.75 -128.5 158.0 -6.5 L158.0 -6.0 158.25 -5.25 158.25 -4.25 158.5 -3.75 158.5 -2.5" fill="#2e47aa" fill-rule="evenodd" stroke="none"/>
  </g>
</svg>
