<?xml version="1.0" encoding="UTF-8" standalone="no"?>
<svg xmlns:ffdec="https://www.free-decompiler.com/flash" xmlns:xlink="http://www.w3.org/1999/xlink" ffdec:objectType="shape" height="289.55px" width="429.15px" xmlns="http://www.w3.org/2000/svg">
  <g transform="matrix(1.0, 0.0, 0.0, 1.0, 254.55, 140.05)">
    <path d="M153.5 -12.75 L161.75 23.5 170.25 75.25 172.75 102.25 173.0 103.0 173.0 104.5 173.25 105.75 173.25 106.5 173.75 110.75 173.75 112.0 174.0 113.25 174.0 115.25 Q176.5 130.5 168.5 142.75 L158.5 149.25 155.25 149.5 149.5 148.5 148.0 148.0 138.0 146.0 137.75 146.0 128.25 142.75 107.75 133.0 105.25 134.5 99.75 137.0 99.0 137.25 98.25 137.75 97.75 138.25 97.25 138.25 96.5 138.5 95.0 139.25 94.25 139.5 93.75 139.75 84.0 143.75 82.5 144.0 Q-4.05 149.5 -71.75 110.0 L-77.25 105.75 -84.25 98.75 -84.5 98.75 Q-110.7 76.3 -107.7 33.95 L-111.35 36.8 Q-116.9 41.2 -122.05 41.5 -124.5 43.05 -127.5 44.0 L-128.25 44.5 Q-182.5 44.5 -242.0 -2.0 L-242.5 -2.5 -243.0 -2.75 -253.25 -11.25 Q-256.5 -14.5 -251.75 -18.0 L-247.75 -18.5 -247.25 -18.75 -245.75 -18.75 -245.25 -19.0 -243.75 -19.0 -243.0 -19.25 -209.0 -19.75 -175.0 -18.75 -140.4 -16.1 -140.9 -16.15 Q-132.4 -18.35 -122.6 -17.55 -117.55 -17.15 -112.8 -19.1 -101.45 -23.7 -90.5 -28.8 L-90.65 -28.65 -75.75 -41.5 -54.5 -58.5 Q44.25 -141.75 95.75 -140.0 128.75 -130.75 153.5 -12.75" fill="#2e47aa" fill-rule="evenodd" stroke="none"/>
  </g>
</svg>
