<?xml version="1.0" encoding="UTF-8" standalone="no"?>
<svg xmlns:ffdec="https://www.free-decompiler.com/flash" xmlns:xlink="http://www.w3.org/1999/xlink" ffdec:objectType="shape" height="289.3px" width="451.9px" xmlns="http://www.w3.org/2000/svg">
  <g transform="matrix(1.0, 0.0, 0.0, 1.0, 275.0, 141.45)">
    <path d="M120.7 -103.65 Q127.1 -89.85 132.05 -75.6 137.05 -61.1 141.25 -46.55 145.15 -33.0 148.5 -19.25 L159.5 19.75 170.0 69.0 174.0 97.75 174.2 99.25 176.3 112.35 Q177.05 116.7 176.85 121.15 176.5 128.4 173.45 134.8 173.05 135.65 172.25 136.1 165.0 140.25 157.15 141.2 147.5 142.45 137.5 141.5 134.25 141.35 131.0 140.5 L103.25 133.25 Q100.75 134.2 98.25 135.5 L94.8 137.35 Q84.25 142.3 72.6 144.3 57.7 147.2 42.45 147.75 25.15 148.3 8.0 145.45 -19.5 140.6 -44.6 127.95 -62.1 119.1 -77.95 107.2 L-80.65 104.9 -85.65 100.4 Q-90.3 96.4 -94.25 91.45 -104.85 78.35 -108.3 61.75 -110.65 50.35 -110.35 38.6 -114.25 43.45 -119.75 46.2 L-121.8 47.35 Q-123.5 48.65 -125.6 49.8 -127.3 50.65 -129.0 50.9 L-154.25 52.25 -194.0 41.0 -234.0 22.25 -261.5 6.0 -274.0 -2.75 -274.8 -4.9 Q-275.3 -6.3 -274.65 -7.5 L-273.5 -8.5 -258.5 -11.0 -222.5 -11.5 -179.25 -10.5 -148.65 -8.55 Q-143.85 -6.9 -138.6 -6.3 -133.75 -5.85 -128.8 -6.4 -113.75 -8.85 -101.95 -18.5 -98.05 -21.65 -94.55 -25.15 -84.2 -35.5 -73.15 -45.15 L-61.85 -55.1 -45.8 -69.45 Q-34.5 -79.45 -22.7 -88.75 -11.8 -97.25 -0.5 -105.05 10.95 -113.05 23.1 -119.85 36.05 -127.05 49.95 -132.65 62.3 -137.5 75.25 -140.15 L83.3 -141.45 89.2 -140.85 Q91.3 -140.5 93.2 -139.45 98.85 -136.3 103.2 -131.5 108.75 -125.3 113.05 -118.1 117.2 -111.1 120.7 -103.65" fill="#2e47aa" fill-rule="evenodd" stroke="none"/>
  </g>
</svg>
