<?xml version="1.0" encoding="UTF-8" standalone="no"?>
<svg xmlns:ffdec="https://www.free-decompiler.com/flash" xmlns:xlink="http://www.w3.org/1999/xlink" ffdec:objectType="shape" height="289.45px" width="447.3px" xmlns="http://www.w3.org/2000/svg">
  <g transform="matrix(1.0, 0.0, 0.0, 1.0, 269.25, 144.0)">
    <path d="M143.25 -25.75 L155.5 10.0 169.0 60.75 175.0 93.0 175.25 93.5 175.25 94.25 175.5 94.75 175.5 95.5 175.75 96.25 175.75 97.0 176.0 97.5 178.0 112.25 Q178.5 119.25 174.75 127.0 L172.75 129.0 164.5 134.0 162.75 134.0 158.0 134.75 145.5 132.75 145.0 132.5 144.0 132.5 142.75 132.25 137.75 132.0 130.25 130.25 130.0 130.25 111.0 125.25 106.5 129.25 95.25 134.75 95.25 135.25 94.0 135.5 91.25 136.75 90.5 137.25 84.25 140.0 82.75 140.25 Q8.2 158.55 -73.25 112.75 L-78.25 109.25 -79.0 108.5 -79.5 108.25 -80.5 107.5 -86.5 101.5 Q-111.3 81.4 -112.15 44.15 -117.55 48.15 -123.1 51.95 -127.0 54.6 -130.85 54.45 -134.7 56.85 -140.25 57.75 L-162.75 52.5 -169.75 49.25 -203.0 30.0 -234.5 5.25 -259.0 -17.75 -269.0 -28.5 -269.25 -31.5 Q-268.5 -34.5 -266.75 -34.75 L-260.0 -34.5 -214.5 -25.25 -186.5 -18.25 -147.15 -6.75 Q-137.65 -2.4 -126.6 -3.75 -115.6 -5.15 -102.25 -19.3 L-78.75 -43.0 -65.25 -55.0 Q14.0 -134.0 77.0 -144.0 112.75 -135.25 143.25 -26.0 L143.25 -25.75" fill="#2e47aa" fill-rule="evenodd" stroke="none"/>
  </g>
</svg>
