<?xml version="1.0" encoding="UTF-8" standalone="no"?>
<svg xmlns:ffdec="https://www.free-decompiler.com/flash" xmlns:xlink="http://www.w3.org/1999/xlink" ffdec:objectType="shape" height="290.05px" width="439.25px" xmlns="http://www.w3.org/2000/svg">
  <g transform="matrix(1.0, 0.0, 0.0, 1.0, 261.0, 145.95)">
    <path d="M140.25 -28.0 L150.5 -1.5 167.75 52.25 176.25 88.75 Q180.5 110.5 175.75 115.25 L174.0 117.25 Q164.5 122.5 163.0 122.0 L162.0 122.5 160.5 122.5 159.5 122.75 151.25 121.25 150.0 121.25 149.5 121.0 148.75 121.0 135.75 119.5 129.25 117.5 129.0 117.5 128.25 117.25 119.5 115.0 107.25 126.25 99.0 130.75 98.25 131.25 96.25 132.25 95.5 132.5 94.0 133.5 91.25 134.75 90.5 135.25 86.25 137.5 83.25 138.25 Q-2.2 157.3 -73.75 114.5 L-74.0 114.0 -79.75 110.25 -80.0 110.25 -81.25 109.0 -82.5 108.25 -87.5 103.25 -87.75 103.25 Q-113.3 81.8 -114.25 45.75 -125.05 52.95 -136.8 58.3 L-138.6 59.1 Q-144.4 61.35 -153.25 59.5 L-155.25 58.5 Q-203.0 35.75 -253.0 -39.75 L-261.0 -53.25 -260.75 -56.25 Q-259.25 -59.5 -257.0 -59.0 L-243.75 -54.5 -219.5 -43.75 -181.0 -24.25 -150.0 -7.0 -149.25 -6.5 -147.15 -5.45 Q-126.95 8.6 -102.6 -21.05 L-88.75 -36.0 -65.5 -58.75 -64.75 -59.25 Q34.0 -152.25 69.75 -145.5 105.25 -134.75 137.75 -32.5 L140.25 -28.0" fill="#2e47aa" fill-rule="evenodd" stroke="none"/>
  </g>
</svg>
