<?xml version="1.0" encoding="UTF-8" standalone="no"?>
<svg xmlns:ffdec="https://www.free-decompiler.com/flash" xmlns:xlink="http://www.w3.org/1999/xlink" ffdec:objectType="shape" height="292.65px" width="445.4px" xmlns="http://www.w3.org/2000/svg">
  <g transform="matrix(1.0, 0.0, 0.0, 1.0, 269.3, 144.0)">
    <path d="M110.95 -111.2 Q117.4 -100.05 122.45 -88.15 128.4 -74.05 133.3 -59.6 139.0 -42.8 143.5 -25.5 L156.25 13.0 168.0 57.5 174.75 93.25 Q175.95 97.2 176.05 101.25 176.25 108.45 175.05 115.4 174.15 120.7 171.85 125.7 L170.95 127.05 169.6 127.95 Q165.7 129.95 161.3 130.35 151.15 130.9 141.25 128.0 129.45 124.6 118.5 118.75 107.95 127.8 96.0 134.5 L95.75 135.0 84.05 139.55 Q76.55 142.6 68.45 144.4 L63.55 145.5 53.65 147.2 Q38.9 149.1 23.9 148.5 7.15 147.6 -8.95 143.4 -24.6 139.15 -39.4 132.3 -54.3 125.5 -67.9 116.4 L-76.5 110.25 -82.7 105.3 Q-93.2 96.65 -100.65 85.5 -106.45 76.9 -109.0 66.75 -112.2 54.15 -112.05 41.15 -115.95 43.85 -120.3 46.0 -124.65 48.1 -128.7 50.6 L-131.55 52.0 Q-137.7 54.45 -144.25 53.4 -159.3 50.8 -173.5 45.25 L-203.25 25.75 -233.75 -1.25 -260.25 -28.75 -264.8 -35.1 -269.05 -41.75 Q-269.4 -42.4 -269.25 -43.1 -268.8 -45.6 -266.25 -46.5 L-256.5 -45.0 -230.5 -37.75 -185.25 -23.25 -145.3 -8.5 Q-137.1 -8.85 -129.0 -10.45 L-123.75 -11.6 Q-113.05 -14.0 -103.15 -18.6 L-78.5 -43.25 -75.25 -46.1 Q-62.45 -57.4 -50.2 -69.05 -41.05 -77.75 -31.4 -85.95 -16.65 -98.4 -0.9 -109.25 8.7 -115.9 18.7 -121.65 33.15 -129.9 48.75 -136.05 62.55 -141.3 77.25 -144.0 79.05 -143.4 80.8 -142.6 93.25 -137.0 101.3 -125.85 106.55 -118.9 110.95 -111.2" fill="#2e47aa" fill-rule="evenodd" stroke="none"/>
  </g>
</svg>
