<?xml version="1.0" encoding="UTF-8" standalone="no"?>
<svg xmlns:ffdec="https://www.free-decompiler.com/flash" xmlns:xlink="http://www.w3.org/1999/xlink" ffdec:objectType="shape" height="287.7px" width="406.05px" xmlns="http://www.w3.org/2000/svg">
  <g transform="matrix(1.0, 0.0, 0.0, 1.0, 232.15, 139.9)">
    <path d="M83.0 143.9 Q68.9 146.85 54.35 147.5 39.9 148.35 25.5 146.9 11.1 145.6 -3.0 142.05 -16.25 138.75 -28.95 133.35 -41.75 127.95 -53.95 121.0 -60.85 117.15 -67.3 112.75 -78.35 105.3 -87.4 95.4 L-93.15 88.7 Q-95.9 85.3 -98.15 81.55 L-101.6 75.1 Q-104.6 68.5 -106.05 61.4 -108.85 47.4 -107.85 33.3 L-107.6 30.05 Q-115.0 33.4 -122.75 34.95 -123.85 35.25 -124.95 35.9 -125.65 36.35 -126.45 36.5 L-130.1 37.25 -139.5 38.75 Q-152.7 32.95 -164.35 24.25 -178.6 13.55 -190.2 0.0 L-196.85 -7.9 Q-208.35 -22.15 -217.7 -38.05 -221.85 -45.0 -225.65 -52.25 -228.45 -57.65 -230.65 -63.15 L-232.1 -67.3 -232.05 -68.05 Q-231.0 -70.75 -228.0 -71.0 L-195.75 -58.25 -156.5 -39.0 -126.75 -22.5 Q-120.5 -18.1 -112.8 -17.8 -107.25 -17.45 -102.0 -19.05 L-73.25 -43.75 Q-57.6 -56.05 -42.0 -68.7 L-16.9 -88.15 Q-4.1 -97.7 9.15 -106.3 20.65 -113.75 32.75 -120.35 42.5 -125.6 52.65 -130.0 64.5 -135.15 77.1 -138.0 86.2 -139.9 95.5 -139.9 99.8 -139.9 102.85 -136.9 109.3 -130.6 114.55 -123.55 120.9 -114.9 126.0 -105.25 L136.5 -79.5 Q141.3 -65.0 145.3 -50.25 149.3 -35.6 152.1 -20.5 L154.0 -11.0 161.25 22.75 169.5 75.5 172.0 106.75 172.5 106.75 Q173.8 108.7 173.9 111.1 174.05 116.35 172.95 121.65 172.15 125.7 170.55 129.45 168.35 134.65 165.4 139.55 163.9 142.05 161.3 143.45 L158.5 144.5 149.0 147.25 Q138.5 143.05 128.95 137.35 L119.7 132.0 113.5 128.5 Q106.6 133.0 99.05 136.65 91.5 140.4 83.75 143.75 L83.0 143.9" fill="#2e47aa" fill-rule="evenodd" stroke="none"/>
    <path d="M83.0 143.9 L83.75 143.75" fill="none" stroke="#003300" stroke-linecap="round" stroke-linejoin="round" stroke-width="1.0"/>
  </g>
</svg>
