<?xml version="1.0" encoding="UTF-8" standalone="no"?>
<svg xmlns:ffdec="https://www.free-decompiler.com/flash" xmlns:xlink="http://www.w3.org/1999/xlink" ffdec:objectType="shape" height="290.3px" width="366.05px" xmlns="http://www.w3.org/2000/svg">
  <g transform="matrix(1.0, 0.0, 0.0, 1.0, 194.45, 144.7)">
    <path d="M107.5 -106.3 Q114.6 -93.15 120.35 -79.35 125.5 -67.0 130.0 -54.6 135.15 -40.45 139.5 -26.0 L150.75 5.5 163.0 49.5 170.9 84.45 Q171.75 88.25 171.55 91.95 171.1 101.35 168.55 110.5 167.35 114.7 164.8 118.45 161.2 123.65 156.1 127.4 152.1 130.35 148.0 127.75 L135.5 127.5 134.75 127.25 Q124.25 123.95 114.0 120.25 110.25 123.6 106.1 126.45 100.85 130.0 95.15 132.8 L92.0 134.5 Q89.3 136.2 86.45 137.4 L82.25 139.25 Q68.25 142.5 53.85 144.1 37.8 145.95 21.65 145.55 1.55 145.05 -17.95 140.3 -46.3 133.15 -70.25 116.85 L-79.9 110.1 -84.1 106.6 -87.6 103.35 Q-92.8 98.5 -97.25 92.75 -103.05 85.25 -107.15 76.9 -112.3 66.35 -113.8 54.7 -115.7 39.5 -112.6 24.6 L-120.55 30.4 Q-126.5 34.7 -133.6 35.8 L-137.15 36.9 Q-145.7 39.7 -153.85 35.75 -160.75 32.3 -166.15 26.8 -171.1 21.85 -175.2 16.2 -182.35 6.15 -188.15 -4.7 -190.1 -8.35 -191.45 -12.2 -193.25 -17.4 -194.4 -22.75 L-194.4 -23.4 -193.75 -23.95 -191.65 -24.4 -183.25 -25.25 -170.3 -24.4 -127.35 -18.1 -119.4 -18.55 Q-116.95 -19.3 -114.65 -20.4 -111.75 -21.95 -109.0 -23.75 L-83.5 -46.5 -51.25 -71.75 -35.7 -85.5 -30.75 -89.8 Q-19.2 -99.55 -7.25 -108.75 3.15 -116.65 13.95 -123.75 26.25 -131.9 39.7 -138.1 52.3 -144.0 66.2 -144.7 L70.9 -144.1 Q78.2 -142.3 83.9 -137.4 92.65 -129.85 99.0 -120.3 103.6 -113.45 107.5 -106.3" fill="#2e47aa" fill-rule="evenodd" stroke="none"/>
  </g>
</svg>
