<?xml version="1.0" encoding="UTF-8" standalone="no"?>
<svg xmlns:ffdec="https://www.free-decompiler.com/flash" xmlns:xlink="http://www.w3.org/1999/xlink" ffdec:objectType="shape" height="296.2px" width="369.45px" xmlns="http://www.w3.org/2000/svg">
  <g transform="matrix(1.0, 0.0, 0.0, 1.0, 199.5, 148.0)">
    <path d="M115.75 -49.25 L119.75 -44.75 137.25 -16.0 157.0 22.25 159.75 29.0 Q179.7 60.85 160.65 91.75 150.4 108.35 133.0 105.1 L124.5 102.75 121.25 100.75 106.25 117.25 91.75 126.5 91.25 126.75 90.75 127.25 90.25 127.5 89.75 128.0 88.75 128.5 87.5 129.5 86.0 130.25 82.75 131.5 Q3.15 169.7 -76.5 120.5 L-82.5 117.25 -84.0 116.25 -84.5 116.0 -85.0 115.5 -89.5 111.75 -89.75 111.75 -92.0 109.5 -92.25 109.5 Q-134.25 71.25 -119.25 20.0 -151.5 63.0 -193.0 45.25 L-194.5 44.75 -197.75 41.5 -199.5 39.0 -199.5 37.5 -198.25 35.5 -193.5 30.25 Q-169.9 9.55 -155.9 0.45 L-126.0 -20.5 -99.75 -46.5 -78.0 -65.5 -68.25 -72.0 Q-0.25 -149.0 35.5 -148.0 70.25 -140.5 115.75 -49.25" fill="#2e47aa" fill-rule="evenodd" stroke="none"/>
  </g>
</svg>
