<?xml version="1.0" encoding="UTF-8" standalone="no"?>
<svg xmlns:ffdec="https://www.free-decompiler.com/flash" xmlns:xlink="http://www.w3.org/1999/xlink" ffdec:objectType="shape" height="166.25px" width="176.0px" xmlns="http://www.w3.org/2000/svg">
  <g transform="matrix(1.0, 0.0, 0.0, 1.0, 87.5, 1.0)">
    <path d="M34.9 1.7 L36.0 -1.0 48.75 33.0 61.5 58.0 Q77.9 74.5 87.45 95.35 88.65 97.9 88.5 101.1 88.0 110.65 83.9 119.15 82.1 122.9 79.6 126.3 72.75 135.45 65.25 144.0 L36.5 158.75 8.25 164.75 6.5 165.25 -24.25 161.5 -33.25 159.0 -62.5 144.75 Q-71.8 135.2 -79.55 124.55 -81.2 122.3 -82.35 119.75 L-87.5 107.75 Q-86.5 106.75 -85.8 105.3 -85.05 103.8 -84.9 102.0 L-84.75 99.25 Q-77.75 92.8 -72.75 84.65 L-65.35 72.3 Q-61.75 66.05 -58.5 59.75 L-48.5 35.5 -35.5 1.75 Q-30.55 15.85 -17.9 23.2 -16.25 24.1 -14.4 24.7 -5.55 28.1 3.85 27.25 19.05 26.5 27.9 14.3 32.15 8.5 34.9 1.7" fill="#ffffff" fill-rule="evenodd" stroke="none"/>
  </g>
</svg>
