<?xml version="1.0" encoding="UTF-8" standalone="no"?>
<svg xmlns:ffdec="https://www.free-decompiler.com/flash" xmlns:xlink="http://www.w3.org/1999/xlink" ffdec:objectType="shape" height="168.75px" width="172.6px" xmlns="http://www.w3.org/2000/svg">
  <g transform="matrix(1.0, 0.0, 0.0, 1.0, 83.6, 3.5)">
    <path d="M87.55 90.85 Q88.4 92.95 88.65 95.25 89.6 104.15 88.0 113.0 86.35 122.2 83.25 131.0 L65.25 148.75 34.5 161.5 3.0 165.25 -26.75 158.75 -35.5 155.0 -63.0 138.25 -80.25 115.25 Q-83.0 107.45 -83.6 99.45 -83.65 98.45 -82.85 97.55 -82.0 96.6 -81.0 95.75 L-80.0 91.0 Q-67.25 81.35 -57.95 68.2 L-47.75 53.5 -35.25 31.75 -16.5 -3.5 Q-12.7 9.4 -3.0 18.45 2.2 23.3 9.05 25.15 21.15 28.4 33.0 24.65 37.6 23.3 41.4 20.35 50.15 13.5 54.5 3.25 L62.5 37.5 71.75 63.25 Q81.65 76.0 87.55 90.85" fill="#ffffff" fill-rule="evenodd" stroke="none"/>
  </g>
</svg>
