<?xml version="1.0" encoding="UTF-8" standalone="no"?>
<svg xmlns:ffdec="https://www.free-decompiler.com/flash" xmlns:xlink="http://www.w3.org/1999/xlink" ffdec:objectType="shape" height="171.75px" width="173.6px" xmlns="http://www.w3.org/2000/svg">
  <g transform="matrix(1.0, 0.0, 0.0, 1.0, 79.75, 6.75)">
    <path d="M81.75 71.0 Q85.7 81.85 93.0 91.0 94.5 98.3 93.4 105.85 90.75 123.5 82.25 139.25 L62.75 155.25 32.5 164.25 0.25 165.0 -4.35 163.65 Q-38.55 154.3 -62.25 128.25 -76.8 112.15 -79.75 90.75 L-74.5 82.5 Q-71.25 82.15 -68.7 80.25 -50.2 66.05 -35.75 47.75 L-20.5 27.0 -12.75 13.25 3.25 -6.75 Q5.65 2.55 10.15 10.95 12.2 14.8 15.35 18.1 23.75 26.95 36.3 27.4 45.9 28.35 55.2 25.65 59.55 24.35 62.7 21.3 67.9 16.15 72.0 10.25 L76.0 44.75 81.25 69.25 81.75 71.0" fill="#ffffff" fill-rule="evenodd" stroke="none"/>
  </g>
</svg>
