<?xml version="1.0" encoding="UTF-8" standalone="no"?>
<svg xmlns:ffdec="https://www.free-decompiler.com/flash" xmlns:xlink="http://www.w3.org/1999/xlink" ffdec:objectType="shape" height="174.5px" width="174.35px" xmlns="http://www.w3.org/2000/svg">
  <g transform="matrix(1.0, 0.0, 0.0, 1.0, 74.65, 8.0)">
    <path d="M89.5 67.75 Q79.5 64.7 69.2 65.25 67.2 65.65 66.5 67.5 68.95 74.75 73.25 81.0 L89.5 103.25 97.0 112.4 Q98.4 114.05 99.25 116.0 100.25 118.35 99.1 121.2 93.55 135.3 82.25 145.75 L60.0 160.75 30.25 166.5 -3.0 164.5 -30.0 153.25 Q-41.7 143.55 -52.65 133.1 -58.8 127.25 -63.85 120.25 -75.9 103.35 -74.5 82.5 L-70.25 79.75 -68.0 75.0 Q-60.6 71.5 -53.9 67.0 -38.2 56.25 -24.0 43.75 L-4.75 23.0 3.75 11.5 23.25 -8.0 Q24.8 9.35 36.35 21.75 39.15 24.75 42.8 26.4 47.45 28.5 52.3 29.6 56.45 30.7 60.8 31.1 67.8 31.65 74.3 29.0 83.15 25.4 88.75 17.75 87.95 42.8 89.5 67.75" fill="#ffffff" fill-rule="evenodd" stroke="none"/>
  </g>
</svg>
