<?xml version="1.0" encoding="UTF-8" standalone="no"?>
<svg xmlns:ffdec="https://www.free-decompiler.com/flash" xmlns:xlink="http://www.w3.org/1999/xlink" ffdec:objectType="shape" height="174.0px" width="171.5px" xmlns="http://www.w3.org/2000/svg">
  <g transform="matrix(1.0, 0.0, 0.0, 1.0, 75.75, 8.0)">
    <path d="M85.0 47.5 L88.25 74.75 Q59.95 69.55 31.0 69.0 28.35 70.45 28.4 73.4 28.45 74.55 29.25 75.65 33.35 81.2 39.0 85.25 L65.0 106.0 95.75 126.5 82.5 144.0 62.0 158.5 30.0 166.0 -1.75 164.75 -29.5 154.0 Q-47.4 140.8 -63.25 125.0 L-75.75 102.5 -75.75 84.25 -71.75 81.75 -69.75 76.75 Q-53.55 67.75 -39.95 54.65 L-29.8 44.85 Q-14.75 29.9 -1.5 13.25 L18.25 -8.0 Q20.55 6.45 29.05 18.15 32.35 22.7 37.25 25.05 50.8 31.65 65.55 29.0 69.15 28.5 72.4 26.65 79.9 22.45 84.75 15.5 L85.0 47.5" fill="#ffffff" fill-rule="evenodd" stroke="none"/>
  </g>
</svg>
