<?xml version="1.0" encoding="UTF-8" standalone="no"?>
<svg xmlns:ffdec="https://www.free-decompiler.com/flash" xmlns:xlink="http://www.w3.org/1999/xlink" ffdec:objectType="shape" height="173.2px" width="170.25px" xmlns="http://www.w3.org/2000/svg">
  <g transform="matrix(1.0, 0.0, 0.0, 1.0, 77.0, 8.0)">
    <path d="M81.0 18.05 Q82.5 31.8 82.0 45.75 L86.0 73.0 87.75 78.5 39.75 77.5 2.0 79.0 Q0.1 80.55 -0.1 82.95 -0.25 84.65 1.1 85.5 8.0 90.35 15.25 94.75 L47.5 111.25 89.5 129.25 93.25 130.25 92.0 131.65 85.4 137.6 Q77.05 144.7 68.1 151.3 56.75 159.7 42.9 162.4 L32.95 164.15 Q15.9 165.85 -1.25 164.75 L-28.75 154.75 -49.5 140.0 Q-62.2 129.25 -69.15 114.25 -72.75 106.5 -75.35 98.45 -77.25 92.65 -76.95 86.55 L-76.3 86.15 -74.05 84.2 -73.5 83.4 -71.25 78.5 Q-66.25 76.45 -61.9 73.3 -44.45 60.5 -29.5 44.75 L-13.0 25.0 -4.5 11.75 13.25 -8.0 Q15.35 5.1 23.3 15.95 24.95 18.25 27.15 20.0 38.15 28.7 52.35 28.75 56.85 28.75 61.25 27.6 73.4 24.25 80.5 13.5 L81.0 18.05" fill="#ffffff" fill-rule="evenodd" stroke="none"/>
  </g>
</svg>
