<?xml version="1.0" encoding="UTF-8" standalone="no"?>
<svg xmlns:ffdec="https://www.free-decompiler.com/flash" xmlns:xlink="http://www.w3.org/1999/xlink" ffdec:objectType="shape" height="172.5px" width="174.0px" xmlns="http://www.w3.org/2000/svg">
  <g transform="matrix(1.0, 0.0, 0.0, 1.0, 78.5, 7.75)">
    <path d="M74.85 13.3 Q75.6 12.1 76.5 11.0 L83.5 69.25 35.5 67.0 9.5 66.75 -2.25 67.5 Q-5.35 69.9 -2.85 72.5 2.2 77.7 8.5 81.75 L46.5 100.75 89.5 119.0 95.5 120.5 Q81.2 141.9 60.25 157.0 L32.5 164.5 -0.75 164.75 -29.5 154.75 -50.75 140.25 Q-63.3 125.35 -74.15 109.25 -75.25 107.55 -75.75 105.65 -77.85 97.2 -78.5 88.5 -74.55 80.8 -67.15 76.7 -58.05 71.7 -50.3 65.0 L-47.6 62.35 Q-40.45 54.1 -32.75 46.25 L-16.75 25.75 -8.75 12.75 8.25 -7.75 Q10.55 7.35 21.15 18.15 22.95 19.95 25.15 21.25 37.8 29.35 52.75 27.5 67.05 25.4 74.85 13.3" fill="#ffffff" fill-rule="evenodd" stroke="none"/>
  </g>
</svg>
