<?xml version="1.0" encoding="UTF-8" standalone="no"?>
<svg xmlns:ffdec="https://www.free-decompiler.com/flash" xmlns:xlink="http://www.w3.org/1999/xlink" ffdec:objectType="shape" height="172.25px" width="175.6px" xmlns="http://www.w3.org/2000/svg">
  <g transform="matrix(1.0, 0.0, 0.0, 1.0, 79.1, 7.5)">
    <path d="M68.8 14.2 Q70.5 11.5 72.5 9.0 L79.25 58.25 33.25 55.25 5.25 54.25 -6.75 55.0 Q-9.85 57.95 -7.6 60.6 -5.05 63.55 -1.5 65.65 L5.5 69.75 41.75 87.25 86.0 105.5 96.5 108.5 Q95.9 113.55 93.25 118.35 90.6 123.25 88.2 128.3 L83.25 138.25 61.75 155.25 32.0 164.0 0.0 164.75 -28.25 156.0 -52.25 140.25 Q-64.0 129.15 -72.1 115.2 -73.95 112.05 -75.05 108.5 -77.6 100.15 -79.05 91.5 -79.4 89.4 -77.65 88.25 L-76.0 87.25 -74.25 82.25 Q-62.7 75.95 -53.25 66.5 L-35.75 47.0 -20.0 25.75 Q-9.55 8.35 3.25 -7.5 5.65 8.9 18.3 19.1 21.0 21.25 24.25 22.6 36.15 27.95 49.25 26.15 61.9 24.9 68.8 14.2" fill="#ffffff" fill-rule="evenodd" stroke="none"/>
  </g>
</svg>
