<?xml version="1.0" encoding="UTF-8" standalone="no"?>
<svg xmlns:ffdec="https://www.free-decompiler.com/flash" xmlns:xlink="http://www.w3.org/1999/xlink" ffdec:objectType="shape" height="172.75px" width="175.6px" xmlns="http://www.w3.org/2000/svg">
  <g transform="matrix(1.0, 0.0, 0.0, 1.0, 78.5, 8.0)">
    <path d="M76.5 11.25 Q79.25 30.55 80.0 50.0 L48.75 41.75 22.25 35.75 8.25 33.5 7.4 34.05 Q6.3 34.8 5.65 36.15 5.05 37.55 5.3 38.95 L5.5 40.0 Q25.7 57.5 46.75 74.0 L86.5 101.75 91.9 104.9 Q94.75 106.6 95.9 109.15 98.3 114.45 95.85 120.1 94.35 123.45 91.9 126.55 77.95 143.75 60.25 157.0 L32.5 164.5 -0.5 164.75 -29.5 154.75 -50.75 140.25 -68.25 119.15 Q-70.1 116.95 -71.5 114.55 -78.45 102.65 -78.5 88.5 -75.65 84.5 -71.9 81.65 -62.45 74.5 -53.0 67.0 L-32.25 45.5 -15.75 24.5 -9.0 13.25 8.5 -8.0 Q9.5 -2.85 11.2 2.15 14.5 11.85 21.5 18.9 24.6 22.05 28.8 23.9 39.2 28.45 50.8 27.4 58.7 27.25 65.25 22.9 72.1 18.45 76.5 11.25" fill="#ffffff" fill-rule="evenodd" stroke="none"/>
  </g>
</svg>
