<?xml version="1.0" encoding="UTF-8" standalone="no"?>
<svg xmlns:ffdec="https://www.free-decompiler.com/flash" xmlns:xlink="http://www.w3.org/1999/xlink" ffdec:objectType="shape" height="173.0px" width="175.55px" xmlns="http://www.w3.org/2000/svg">
  <g transform="matrix(1.0, 0.0, 0.0, 1.0, 77.25, 8.0)">
    <path d="M82.25 37.75 L61.25 27.75 Q70.9 25.25 77.25 17.5 L80.75 13.25 Q81.75 23.0 82.35 32.75 82.5 35.25 82.25 37.75 M26.75 21.0 L34.25 32.25 62.5 66.75 90.5 97.25 97.5 103.0 Q98.7 108.2 98.05 113.55 96.05 130.7 82.75 142.0 L61.0 158.0 33.0 165.0 -1.0 164.75 -29.5 154.25 Q-39.5 147.1 -48.05 138.55 -60.65 126.1 -71.35 111.95 -74.15 108.25 -75.1 103.95 -76.9 95.5 -77.25 86.75 L-71.25 78.5 Q-66.25 76.35 -61.75 73.45 -55.5 69.5 -50.05 64.45 -39.75 55.0 -29.75 45.25 L-13.5 25.75 -4.5 12.25 13.25 -8.0 Q14.5 0.5 18.0 8.35 19.15 10.85 20.85 12.9 24.15 16.9 26.75 21.0" fill="#ffffff" fill-rule="evenodd" stroke="none"/>
  </g>
</svg>
