<?xml version="1.0" encoding="UTF-8" standalone="no"?>
<svg xmlns:ffdec="https://www.free-decompiler.com/flash" xmlns:xlink="http://www.w3.org/1999/xlink" ffdec:objectType="shape" height="174.25px" width="174.45px" xmlns="http://www.w3.org/2000/svg">
  <g transform="matrix(1.0, 0.0, 0.0, 1.0, 75.7, 8.25)">
    <path d="M86.0 54.25 L59.75 44.0 Q45.0 38.4 29.4 35.25 27.4 34.75 26.3 36.4 24.35 39.1 26.35 41.85 L34.75 52.75 61.5 82.75 89.75 110.5 98.75 117.25 Q97.55 121.35 95.05 124.9 80.95 144.6 61.25 159.25 L30.75 166.0 -1.5 164.75 -29.25 154.0 Q-45.35 141.35 -59.65 126.65 -73.35 112.6 -75.4 93.15 -75.95 88.15 -75.45 84.4 -74.6 84.2 -73.9 83.6 L-72.6 81.95 -69.5 76.75 Q-46.85 62.25 -26.75 44.5 L-9.75 25.25 -0.25 11.5 18.5 -8.25 Q20.25 1.8 24.45 11.2 28.05 19.25 35.55 23.85 43.55 28.75 53.15 29.55 L64.8 29.05 Q77.2 26.2 84.75 15.75 L86.0 54.25" fill="#ffffff" fill-rule="evenodd" stroke="none"/>
  </g>
</svg>
