<?xml version="1.0" encoding="UTF-8" standalone="no"?>
<svg xmlns:ffdec="https://www.free-decompiler.com/flash" xmlns:xlink="http://www.w3.org/1999/xlink" ffdec:objectType="shape" height="174.5px" width="171.55px" xmlns="http://www.w3.org/2000/svg">
  <g transform="matrix(1.0, 0.0, 0.0, 1.0, 74.55, 8.0)">
    <path d="M89.75 68.5 L60.25 60.25 28.25 54.0 Q25.9 54.9 24.85 57.1 24.5 57.8 24.8 58.35 27.9 63.6 31.75 68.5 L61.25 97.75 88.25 121.0 97.0 126.75 82.0 146.0 60.25 160.75 30.75 166.5 -3.0 164.5 -30.0 153.25 -52.5 135.5 Q-61.1 122.85 -69.2 109.9 -70.65 107.6 -71.45 105.15 -75.05 94.3 -74.5 82.75 -71.25 78.85 -67.5 75.6 -64.8 73.3 -61.7 71.45 -41.35 59.5 -23.75 43.75 L-4.5 23.0 4.0 11.5 23.5 -8.0 Q24.6 -1.0 26.65 5.65 29.55 14.85 36.15 21.65 40.55 26.25 46.55 28.0 L57.45 30.75 64.1 31.5 Q79.5 29.95 89.0 17.75 88.2 43.1 89.75 68.5" fill="#ffffff" fill-rule="evenodd" stroke="none"/>
  </g>
</svg>
