<?xml version="1.0" encoding="UTF-8" standalone="no"?>
<svg xmlns:ffdec="https://www.free-decompiler.com/flash" xmlns:xlink="http://www.w3.org/1999/xlink" ffdec:objectType="shape" height="171.75px" width="176.2px" xmlns="http://www.w3.org/2000/svg">
  <g transform="matrix(1.0, 0.0, 0.0, 1.0, 79.75, 6.75)">
    <path d="M72.25 10.0 L75.75 43.0 81.75 70.5 77.45 71.35 68.65 72.65 Q65.45 73.0 63.25 74.8 60.85 76.65 62.85 79.05 77.3 96.45 96.35 109.25 97.0 116.85 93.55 123.9 89.3 132.45 82.25 139.25 L62.25 155.25 33.25 164.0 0.0 165.0 Q-34.55 156.15 -59.75 131.0 -76.2 114.5 -79.75 91.25 L-76.9 88.6 Q-75.45 87.15 -75.05 85.1 L-74.5 82.5 Q-64.25 76.05 -54.75 68.5 L-36.0 47.75 -19.75 26.0 -12.5 13.25 3.25 -6.75 Q6.4 8.5 17.15 19.4 20.35 22.65 24.55 24.2 30.95 26.7 37.8 27.75 L48.5 27.3 Q64.05 24.0 72.25 10.0" fill="#ffffff" fill-rule="evenodd" stroke="none"/>
  </g>
</svg>
