<?xml version="1.0" encoding="UTF-8" standalone="no"?>
<svg xmlns:ffdec="https://www.free-decompiler.com/flash" xmlns:xlink="http://www.w3.org/1999/xlink" ffdec:objectType="shape" height="168.75px" width="174.8px" xmlns="http://www.w3.org/2000/svg">
  <g transform="matrix(1.0, 0.0, 0.0, 1.0, 84.25, 3.5)">
    <path d="M-16.0 -3.0 Q-14.05 5.55 -8.85 12.4 -2.75 20.45 6.8 23.65 23.3 29.4 39.05 21.85 45.8 18.55 49.65 12.0 L54.5 3.5 62.5 37.0 71.75 63.25 90.5 92.75 Q91.15 105.25 86.1 116.7 80.35 129.6 69.95 139.2 54.25 153.5 34.75 161.5 L3.0 165.25 -26.5 158.75 -34.5 155.5 -63.0 138.25 Q-69.65 129.9 -75.15 120.8 -77.9 116.2 -80.05 111.25 L-84.25 101.25 -81.75 96.7 Q-81.1 95.45 -80.75 94.1 L-80.3 91.7 -80.25 90.5 -71.75 85.25 Q-71.7 84.2 -71.1 83.35 L-69.75 81.65 -67.0 78.65 -65.2 76.9 -63.0 75.0 -47.75 53.5 -35.0 31.25 -16.5 -3.5 -16.0 -3.0" fill="#ffffff" fill-rule="evenodd" stroke="none"/>
  </g>
</svg>
