<?xml version="1.0" encoding="UTF-8" standalone="no"?>
<svg xmlns:ffdec="https://www.free-decompiler.com/flash" xmlns:xlink="http://www.w3.org/1999/xlink" ffdec:objectType="shape" height="272.4px" width="373.25px" xmlns="http://www.w3.org/2000/svg">
  <g transform="matrix(1.0, 0.0, 0.0, 1.0, 188.75, 69.85)">
    <path d="M-25.5 -48.25 Q-30.3 -53.85 -30.4 -61.5 L-30.5 -65.0 Q-23.55 -70.65 -14.35 -69.5 -3.45 -68.6 7.5 -69.6 16.8 -70.65 25.4 -67.05 27.85 -66.1 30.0 -64.25 30.75 -53.9 25.25 -49.0 16.25 -39.25 -0.5 -46.75 -13.75 -39.0 -25.5 -48.25 M5.75 -53.25 Q5.5 -49.75 8.0 -47.5 L11.5 -46.75 Q22.5 -51.25 14.25 -56.75 10.5 -57.25 8.5 -55.75 L5.75 -53.25 M-12.0 -46.75 Q0.25 -56.0 -15.5 -56.75 -23.25 -50.5 -12.0 -46.75" fill="#ffffff" fill-rule="evenodd" stroke="none"/>
    <path d="M25.25 -49.0 Q36.0 -43.7 38.95 -32.4 41.45 -22.8 38.95 -13.2 37.4 -7.15 36.0 -1.0 33.95 4.35 31.15 9.55 27.85 15.6 22.4 20.0 11.9 28.45 -1.75 27.25 -8.4 27.55 -14.45 24.85 -29.85 17.9 -35.5 1.75 -49.0 -38.25 -25.5 -48.25 -13.75 -39.0 -0.5 -46.75 16.25 -39.25 25.25 -49.0 M8.25 164.75 L36.5 158.75 65.25 144.0 82.75 123.75 84.25 123.25 85.75 122.5 86.5 122.0 87.0 121.75 95.5 115.25 Q111.0 141.75 110.5 154.0 111.0 193.0 55.25 201.0 30.5 204.25 16.75 193.0 11.5 190.0 8.25 164.75 M-96.5 116.25 L-94.35 118.0 Q-86.95 123.6 -78.25 127.25 L-62.5 144.75 -33.25 159.0 Q-28.75 160.25 -24.15 160.95 L-9.25 163.25 Q-9.55 177.6 -15.25 190.85 -15.95 192.5 -17.3 193.55 L-23.0 197.75 Q-26.85 200.55 -31.45 201.4 -59.1 205.6 -84.65 194.15 -91.05 191.3 -96.65 187.15 -110.35 177.0 -111.65 159.9 -112.1 153.6 -110.5 147.7 -105.95 131.2 -96.5 116.25" fill="#e58508" fill-rule="evenodd" stroke="none"/>
    <path d="M5.75 -53.25 L8.5 -55.75 Q10.5 -57.25 14.25 -56.75 22.5 -51.25 11.5 -46.75 L8.0 -47.5 Q5.5 -49.75 5.75 -53.25 M-12.0 -46.75 Q-23.25 -50.5 -15.5 -56.75 0.25 -56.0 -12.0 -46.75" fill="#000000" fill-rule="evenodd" stroke="none"/>
    <path d="M-100.25 -2.0 L-114.75 18.5 -114.75 19.5 -115.75 20.0 -115.75 21.5 -122.75 36.5 -121.0 46.75 -111.75 70.75 -105.75 78.75 -96.75 88.75 -83.25 97.75 Q-85.5 98.75 -85.0 100.5 L-68.0 124.75 -36.5 146.25 -4.25 152.5 1.5 153.0 Q39.5 151.0 68.5 126.0 92.75 99.0 87.25 91.5 94.75 88.5 109.25 69.5 L118.25 52.0 122.5 35.0 115.75 20.25 100.75 -2.0 105.0 1.0 106.75 1.25 110.5 5.0 112.5 5.75 127.25 16.5 139.75 24.0 Q140.5 21.75 144.25 24.75 143.75 50.5 184.0 90.0 L184.5 90.05 184.5 90.15 184.0 90.0 Q158.75 78.5 140.5 29.75 L126.5 20.75 Q143.0 70.5 95.5 115.0 L99.75 122.25 104.0 132.0 102.0 132.25 Q99.0 135.25 92.75 138.0 L92.0 142.5 72.25 164.5 40.75 180.25 Q25.0 181.75 17.0 187.25 22.25 201.25 69.0 193.75 99.25 187.75 109.5 163.5 111.0 165.25 105.25 176.25 L99.75 183.0 Q83.5 202.0 33.25 200.75 8.5 198.5 8.5 164.75 L7.0 165.25 -8.75 163.25 -12.5 183.5 Q-15.5 192.5 -18.5 195.25 L-25.0 199.25 -33.25 201.5 -43.0 202.5 Q-93.5 201.5 -108.25 173.25 L-110.75 167.25 -111.0 164.0 Q-106.5 187.5 -57.0 197.5 -29.25 200.5 -16.5 188.5 L-17.5 186.25 -19.75 184.25 -24.25 182.5 -33.5 180.75 -69.0 163.75 -89.75 140.75 Q-102.75 131.75 -105.0 132.75 L-101.75 124.5 -96.25 116.25 Q-119.5 98.5 -126.0 77.25 L-128.0 69.5 -130.5 44.25 -129.5 29.5 -127.75 21.75 -131.25 23.25 -141.5 30.25 -143.25 37.0 -150.0 51.0 -160.25 69.5 -168.25 79.25 Q-181.0 95.5 -188.75 90.75 -180.0 95.5 -162.5 68.0 -139.25 33.5 -145.0 25.0 -141.5 22.25 -140.5 24.25 L-131.75 19.25 -119.1 10.5 -119.0 10.5 -119.0 10.45 -100.25 -2.0 -106.25 1.5 -100.5 -2.75 -100.25 -2.0 M40.0 -22.0 Q41.5 77.5 1.75 84.75 -39.25 88.75 -40.25 -20.75 -35.5 24.25 -1.75 26.75 36.75 25.5 40.0 -22.0 M-170.0 20.25 L-169.25 19.0 -169.75 21.0 -170.0 20.25" fill="#000000" fill-opacity="0.49803922" fill-rule="evenodd" stroke="none"/>
  </g>
</svg>
