<?xml version="1.0" encoding="UTF-8" standalone="no"?>
<svg xmlns:ffdec="https://www.free-decompiler.com/flash" xmlns:xlink="http://www.w3.org/1999/xlink" ffdec:objectType="shape" height="274.35px" width="381.15px" xmlns="http://www.w3.org/2000/svg">
  <g transform="matrix(1.0, 0.0, 0.0, 1.0, 211.75, 71.8)">
    <path d="M-1.0 -51.25 Q-6.5 -58.8 -2.8 -67.8 -2.15 -69.4 -0.55 -69.9 12.45 -73.9 25.35 -69.5 L27.9 -69.05 45.85 -68.3 Q51.8 -67.35 55.75 -62.75 L49.75 -47.0 Q35.75 -38.5 24.25 -47.25 7.75 -41.5 -1.0 -51.25 M34.0 -55.25 L31.5 -53.25 Q30.5 -50.0 33.25 -47.0 L37.0 -46.25 Q48.0 -49.75 38.75 -56.25 L34.0 -55.25 M7.25 -52.25 Q17.75 -44.25 19.0 -54.5 7.75 -64.0 7.25 -52.25" fill="#ffffff" fill-rule="evenodd" stroke="none"/>
    <path d="M34.0 -55.25 L38.75 -56.25 Q48.0 -49.75 37.0 -46.25 L33.25 -47.0 Q30.5 -50.0 31.5 -53.25 L34.0 -55.25 M7.25 -52.25 Q7.75 -64.0 19.0 -54.5 17.75 -44.25 7.25 -52.25" fill="#000000" fill-rule="evenodd" stroke="none"/>
    <path d="M-1.0 -51.25 Q7.75 -41.5 24.25 -47.25 35.75 -38.5 49.75 -47.0 70.25 -35.25 54.5 3.25 48.35 18.3 33.25 24.4 28.05 26.55 22.2 26.65 6.65 27.9 -4.25 17.05 -12.9 8.35 -16.5 -3.5 L-16.75 -5.25 -17.0 -6.0 Q-26.0 -42.5 -1.0 -51.25 M14.35 190.15 Q9.4 178.0 8.25 164.75 L34.5 161.5 54.75 153.5 65.25 148.75 83.25 131.0 Q87.9 129.65 91.9 126.7 95.5 124.1 99.25 121.75 104.5 134.6 108.8 147.8 110.15 151.95 110.4 156.45 110.55 159.9 109.9 163.35 108.05 173.05 101.45 180.45 91.45 191.7 77.05 196.3 59.45 202.0 40.95 201.5 27.4 201.15 16.65 193.15 15.1 191.95 14.35 190.15 M-84.5 116.5 L-83.85 116.65 Q-80.45 118.7 -76.5 120.5 L-63.0 138.25 -35.5 155.0 -26.75 158.75 -9.25 162.5 Q-10.0 174.75 -13.3 186.4 -14.3 190.0 -16.85 192.8 -22.55 199.15 -30.85 200.85 -37.55 202.45 -44.35 202.55 -67.85 202.8 -88.85 192.4 -97.5 188.2 -103.45 180.9 -113.15 168.9 -111.5 153.5 -112.45 149.95 -111.05 146.35 -103.45 127.0 -92.25 109.5 -88.15 112.85 -84.5 116.5" fill="#e58508" fill-rule="evenodd" stroke="none"/>
    <path d="M-18.75 -16.75 Q-14.25 26.5 27.0 25.5 59.0 14.0 61.0 -25.5 60.75 78.75 28.5 83.75 -16.5 92.5 -18.75 -16.75 M138.75 102.75 L138.0 102.75 138.0 102.0 138.75 102.75 M168.5 58.15 Q168.0 57.3 167.0 56.75 L167.5 50.0 168.5 58.15 M168.85 61.25 Q170.25 73.1 168.1 85.05 166.25 95.5 159.25 103.3 156.1 106.85 151.7 108.5 143.45 111.4 138.75 104.25 L139.5 104.0 141.25 105.5 144.95 105.35 146.25 103.0 148.75 103.0 150.75 101.0 150.0 99.5 Q154.55 95.0 157.75 89.55 165.6 76.25 168.85 61.25 M-85.0 -5.5 L-87.25 -1.0 -98.75 13.75 -98.5 14.5 -109.75 32.25 -115.5 45.5 Q-116.75 46.25 -114.75 54.25 L-109.0 67.75 Q-102.5 82.75 -82.0 95.25 L-66.25 122.25 -56.5 130.0 -36.0 143.5 -3.5 152.25 0.25 152.5 Q38.75 156.5 78.25 121.25 L90.75 102.5 Q93.25 99.75 90.75 93.75 117.75 71.75 122.75 54.5 L119.0 41.25 107.25 10.5 142.75 60.5 Q147.0 50.25 149.0 49.75 L149.25 50.75 146.5 60.0 145.5 61.25 145.75 62.5 144.75 64.25 142.25 77.0 141.5 77.75 140.75 86.0 Q140.25 91.75 139.25 92.25 L139.5 95.0 138.5 95.25 138.25 97.0 137.75 96.75 137.75 90.5 139.5 81.0 139.25 79.0 142.5 65.5 137.0 58.0 Q136.25 86.0 108.5 114.75 108.25 116.5 99.25 121.5 L107.25 139.5 105.5 139.5 97.0 143.5 96.5 147.0 72.75 169.25 39.75 183.0 Q18.5 184.25 17.5 189.0 39.25 202.75 74.5 192.25 106.5 180.25 109.25 164.25 L110.0 163.5 110.0 164.75 105.25 176.25 98.75 184.0 Q84.0 201.5 33.25 200.75 8.5 198.5 8.5 164.75 L3.75 165.25 -8.75 162.5 -12.5 183.5 Q-15.5 192.5 -18.5 195.25 L-25.0 199.25 -33.25 201.5 -43.0 202.5 Q-94.25 201.0 -107.75 174.25 L-110.75 167.25 -111.0 164.0 Q-106.5 187.5 -57.0 197.5 -18.5 198.0 -15.5 187.25 -15.25 181.25 -35.75 177.75 L-63.0 162.0 -68.0 158.5 -86.25 135.0 -94.75 129.75 -99.5 125.5 -101.5 125.25 -101.75 124.5 -92.25 109.5 Q-116.25 88.0 -120.25 67.25 L-122.0 56.5 -122.25 39.5 -121.5 29.75 -119.0 19.5 -130.5 27.25 Q-135.25 40.5 -138.0 41.5 L-150.0 50.75 -166.5 59.25 -172.5 61.25 -191.75 63.5 -206.25 62.25 Q-211.5 61.5 -211.75 57.5 L-207.5 61.0 -206.0 60.25 -200.25 60.25 -193.25 58.5 -184.0 57.5 -162.75 51.25 -152.5 46.0 Q-129.5 32.25 -136.0 24.0 L-128.85 18.75 Q-130.65 20.5 -130.5 21.25 L-122.25 15.5 -112.5 10.5 -78.25 -15.0 -78.5 -13.5 -85.0 -5.5" fill="#000000" fill-opacity="0.49803922" fill-rule="evenodd" stroke="none"/>
  </g>
</svg>
