<?xml version="1.0" encoding="UTF-8" standalone="no"?>
<svg xmlns:ffdec="https://www.free-decompiler.com/flash" xmlns:xlink="http://www.w3.org/1999/xlink" ffdec:objectType="shape" height="273.05px" width="392.95px" xmlns="http://www.w3.org/2000/svg">
  <g transform="matrix(1.0, 0.0, 0.0, 1.0, 222.55, 70.55)">
    <path d="M23.75 -51.75 L20.75 -60.75 22.5 -68.5 Q36.75 -72.7 51.25 -68.25 L51.0 -67.75 59.8 -66.9 68.45 -65.5 Q75.75 -64.2 80.75 -59.25 L80.7 -58.7 Q78.3 -50.15 73.5 -42.5 61.25 -35.25 49.0 -45.25 34.5 -40.5 23.75 -51.75 M42.5 -56.25 L39.0 -58.0 Q37.0 -58.75 33.75 -56.75 30.0 -48.0 41.0 -47.75 44.75 -50.25 44.5 -53.0 L42.5 -56.25 M64.0 -43.25 Q70.75 -46.75 66.25 -52.25 58.25 -54.25 57.0 -49.25 54.5 -43.0 64.0 -43.25" fill="#ffffff" fill-rule="evenodd" stroke="none"/>
    <path d="M64.0 -43.25 Q54.5 -43.0 57.0 -49.25 58.25 -54.25 66.25 -52.25 70.75 -46.75 64.0 -43.25 M42.5 -56.25 L44.5 -53.0 Q44.75 -50.25 41.0 -47.75 30.0 -48.0 33.75 -56.75 37.0 -58.75 39.0 -58.0 L42.5 -56.25" fill="#000000" fill-rule="evenodd" stroke="none"/>
    <path d="M23.75 -51.75 Q34.5 -40.5 49.0 -45.25 61.25 -35.25 73.5 -42.5 91.75 -25.0 72.0 10.25 64.25 23.9 49.2 26.8 38.55 28.7 28.15 26.0 23.0 24.75 19.15 21.25 6.75 9.95 3.25 -6.75 0.85 -17.9 2.35 -29.05 2.95 -33.3 5.4 -37.0 12.2 -47.35 23.75 -51.75 M14.6 190.05 Q9.3 178.0 8.25 164.75 L32.5 164.25 62.75 155.25 82.25 139.25 83.0 138.5 Q93.3 134.6 102.75 129.0 105.5 136.05 107.9 143.2 110.45 150.8 110.1 158.75 109.6 169.4 103.5 178.0 99.9 183.15 94.9 186.55 71.85 202.3 43.6 201.75 L37.85 201.6 Q26.3 200.1 17.1 193.2 15.45 192.0 14.6 190.05 M-111.2 156.7 Q-111.1 153.6 -110.45 150.6 -104.75 124.15 -87.75 103.25 -82.85 107.8 -77.65 111.7 L-74.25 114.0 Q-59.9 136.4 -37.05 149.9 -23.95 157.65 -9.25 162.25 -9.6 176.3 -14.55 189.35 -15.4 191.7 -17.25 193.5 -26.45 202.25 -39.25 202.25 -55.6 203.35 -71.55 199.25 -85.45 195.85 -96.7 187.2 -111.95 175.7 -111.2 156.7" fill="#e58508" fill-rule="evenodd" stroke="none"/>
    <path d="M165.25 70.0 L165.75 69.5 Q177.75 112.25 158.75 127.0 L152.5 130.5 Q149.75 130.0 145.75 132.25 L130.0 127.25 127.25 125.75 117.25 117.25 108.0 125.75 102.75 128.75 106.25 136.5 109.75 148.0 109.25 147.25 106.75 147.0 100.25 149.5 99.5 153.0 72.25 174.0 40.25 185.0 Q20.5 185.5 19.0 189.0 38.5 203.0 75.5 192.0 108.0 179.25 109.5 163.5 109.25 176.5 93.0 188.5 71.75 203.25 33.25 200.75 8.5 198.5 8.5 164.75 L0.5 165.0 -8.75 162.25 -12.5 183.25 Q-14.5 190.75 -18.5 195.25 L-25.0 199.25 -33.25 201.5 -43.0 202.5 Q-93.25 203.25 -109.75 169.75 L-111.25 165.75 -110.75 164.0 Q-106.25 179.75 -87.0 189.0 L-77.5 192.75 -67.75 195.25 -57.5 196.5 -57.0 197.5 Q-16.0 198.25 -15.0 185.5 -15.25 179.75 -36.75 175.25 L-63.5 157.0 -81.75 129.25 -88.25 125.0 -95.75 118.0 -97.25 117.75 -93.75 111.25 -89.25 105.75 -87.75 102.75 Q-99.75 95.5 -111.75 64.75 -118.0 47.5 -110.5 17.25 L-119.0 22.5 Q-119.0 26.25 -131.0 39.0 L-135.5 41.0 -152.75 44.25 Q-198.55 42.2 -222.55 22.1 L-222.0 22.0 -218.0 24.5 -206.75 28.0 -195.0 32.75 -169.75 38.75 -163.25 39.25 -143.0 37.75 -138.0 35.75 Q-138.4 34.8 -140.9 35.3 L-129.75 32.5 Q-128.0 29.0 -123.25 28.25 L-123.0 26.75 Q-127.75 23.25 -127.5 20.5 L-124.0 18.5 -121.75 19.25 -80.25 -9.5 Q-80.25 -8.5 -78.5 -9.5 L-55.5 -25.5 -81.75 7.5 -90.5 21.0 -92.5 23.0 -104.0 42.25 -109.25 53.25 -101.0 70.75 Q-84.25 90.25 -78.75 91.25 L-73.5 103.25 -63.75 119.0 -36.0 140.5 -0.75 152.75 0.0 152.75 0.0 152.0 15.5 152.5 38.0 149.5 71.75 134.25 77.5 129.0 95.0 105.5 Q97.25 103.5 94.5 97.0 L97.75 94.25 Q102.25 95.25 108.75 101.0 L110.0 101.0 109.75 99.75 111.0 99.5 123.75 107.75 132.5 111.5 142.25 114.0 158.75 111.75 156.25 107.5 Q167.75 103.75 166.25 99.0 L165.0 96.0 160.75 95.75 164.0 92.0 Q165.75 94.5 169.25 90.0 167.5 87.25 168.5 86.25 L167.75 85.75 Q168.75 85.25 167.75 82.25 L165.25 70.0 M82.5 -24.5 L82.75 -8.75 81.0 21.25 76.75 51.0 Q62.75 91.5 46.75 85.75 5.25 83.0 2.75 -7.25 12.75 28.5 44.75 27.0 73.25 22.75 82.5 -24.5 M165.0 66.5 L162.25 54.5 163.0 55.25 165.0 66.5 M147.5 72.0 L145.0 72.75 144.0 72.5 147.5 72.0 M116.0 22.5 L116.25 22.0 136.5 73.75 136.25 74.75 Q123.3 78.55 110.5 83.75 L109.75 83.5 Q117.95 73.9 125.0 63.5 L116.0 22.5" fill="#000000" fill-opacity="0.49803922" fill-rule="evenodd" stroke="none"/>
  </g>
</svg>
