<?xml version="1.0" encoding="UTF-8" standalone="no"?>
<svg xmlns:ffdec="https://www.free-decompiler.com/flash" xmlns:xlink="http://www.w3.org/1999/xlink" ffdec:objectType="shape" height="270.6px" width="402.05px" xmlns="http://www.w3.org/2000/svg">
  <g transform="matrix(1.0, 0.0, 0.0, 1.0, 229.75, 68.0)">
    <path d="M59.25 -53.25 Q56.5 -43.75 65.5 -44.5 72.0 -48.5 68.25 -52.75 61.0 -57.5 59.25 -53.25 M48.25 -50.0 Q45.35 -56.65 47.5 -63.2 L49.0 -67.25 Q63.2 -69.7 76.65 -64.25 84.4 -61.15 92.5 -59.4 100.65 -57.85 105.35 -51.45 106.05 -50.55 105.5 -49.6 101.45 -42.55 96.75 -36.0 83.75 -30.25 73.25 -41.25 57.25 -38.0 48.25 -50.0 M87.75 -37.75 Q95.5 -40.75 91.0 -46.75 83.0 -48.5 82.0 -45.25 78.5 -37.75 87.75 -37.75" fill="#ffffff" fill-rule="evenodd" stroke="none"/>
    <path d="M59.25 -53.25 Q61.0 -57.5 68.25 -52.75 72.0 -48.5 65.5 -44.5 56.5 -43.75 59.25 -53.25 M87.75 -37.75 Q78.5 -37.75 82.0 -45.25 83.0 -48.5 91.0 -46.75 95.5 -40.75 87.75 -37.75" fill="#000000" fill-rule="evenodd" stroke="none"/>
    <path d="M48.25 -50.0 Q57.25 -38.0 73.25 -41.25 83.75 -30.25 96.75 -36.0 112.75 -17.5 88.75 17.75 84.1 23.7 77.65 27.6 74.1 29.85 69.95 30.55 57.05 31.9 44.95 27.5 37.4 24.8 33.0 18.05 25.15 6.1 23.25 -8.0 22.8 -16.2 23.85 -24.25 24.75 -30.9 28.1 -36.55 34.95 -47.95 48.25 -50.0 M8.25 165.25 L30.25 166.5 60.0 160.75 82.25 145.75 Q94.55 142.15 106.0 136.5 107.05 140.9 108.35 145.2 110.7 153.0 109.95 160.95 109.2 169.05 104.6 175.9 96.25 188.3 82.4 194.1 65.75 201.0 47.75 201.9 31.1 202.9 17.45 193.3 14.95 191.55 13.85 188.75 9.3 177.5 8.25 165.25 M-92.1 108.8 L-83.25 97.0 -81.05 99.55 Q-76.4 104.6 -71.0 108.5 -66.45 116.3 -61.05 123.6 -54.75 132.1 -46.15 138.15 -28.15 150.85 -9.0 162.0 -11.2 174.15 -13.7 186.25 -14.05 187.9 -14.9 189.35 -20.1 198.85 -30.85 200.85 -43.55 203.25 -56.5 202.0 -77.45 199.75 -95.2 188.35 -106.7 180.95 -110.3 167.8 -113.1 157.45 -110.45 147.35 -104.9 126.5 -92.1 108.8" fill="#e58508" fill-rule="evenodd" stroke="none"/>
    <path d="M103.0 -20.5 L103.25 -3.0 101.0 28.75 99.5 40.5 94.25 68.25 94.0 69.0 79.75 65.5 69.0 65.0 66.5 69.5 Q75.25 83.75 78.5 83.75 L93.25 103.25 118.0 128.25 121.0 129.0 125.75 133.25 143.25 143.5 144.5 143.5 146.5 142.0 144.5 140.0 Q152.5 140.25 153.25 142.0 L161.75 142.75 Q164.0 141.5 160.5 136.0 L167.5 135.5 166.5 131.75 Q172.25 123.0 170.75 114.0 L168.25 67.5 162.5 23.25 163.0 22.0 Q183.5 138.25 158.75 150.5 144.5 157.75 114.0 130.5 L106.0 136.25 109.0 144.75 110.75 156.75 109.25 155.25 104.25 155.5 101.5 159.25 77.25 176.25 74.25 177.5 44.0 185.75 38.0 188.25 26.25 188.0 Q20.75 188.75 20.0 190.5 36.25 202.25 75.5 192.0 100.15 181.85 107.3 171.15 L105.5 175.5 98.5 184.25 92.0 189.25 84.5 193.25 75.0 197.0 56.0 201.0 41.5 201.5 32.75 200.75 23.75 198.25 Q13.0 199.0 8.5 165.25 L-1.75 164.75 -9.0 162.0 Q-11.75 190.25 -18.5 195.25 L-25.0 199.25 -33.25 201.5 -43.0 202.5 Q-92.75 204.5 -110.75 167.25 L-111.25 165.75 -110.75 164.0 -107.75 171.75 -102.5 178.25 -95.25 184.25 -87.0 189.0 -77.5 192.75 -67.5 195.25 Q-27.0 203.25 -14.5 186.0 -13.5 179.0 -36.5 172.75 L-62.5 152.5 -75.25 130.25 Q-77.75 126.0 -77.25 124.25 L-85.75 117.75 -92.0 110.75 -93.25 110.75 -83.0 97.0 Q-93.75 89.75 -104.75 58.0 L-107.25 42.25 -105.0 25.25 Q-103.75 16.5 -102.5 15.75 -107.5 13.75 -115.0 29.5 L-122.0 34.75 -126.0 36.0 -145.0 35.0 -174.25 24.25 -204.75 4.25 -222.25 -10.25 -229.75 -18.5 Q-167.25 38.5 -118.0 30.25 L-114.75 26.5 Q-114.75 24.5 -117.75 26.0 -115.5 23.5 -113.25 23.75 L-112.0 22.25 Q-111.75 20.5 -117.25 17.0 L-117.0 15.75 -95.5 1.5 -95.0 1.75 -110.5 12.75 -101.0 7.0 -91.25 3.25 -33.5 -32.5 -33.25 -32.0 -43.5 -21.25 -44.75 -19.0 -46.75 -17.5 -49.0 -14.0 -51.25 -12.25 -52.0 -10.5 -66.0 5.0 -70.0 11.0 -78.0 20.5 -95.5 46.75 -100.0 57.25 Q-82.75 88.5 -74.75 87.0 L-61.5 114.75 -35.5 138.25 -1.25 152.75 Q0.5 149.5 16.75 153.75 L38.25 152.0 71.5 139.5 76.5 135.5 76.25 135.0 91.75 117.5 Q91.0 116.5 93.75 115.0 L95.5 110.5 79.0 88.75 Q61.5 94.5 57.0 86.75 L45.75 78.5 38.75 69.25 Q23.5 44.25 23.0 -11.25 30.25 31.75 61.25 30.25 93.25 25.0 103.0 -20.5 M126.0 30.0 L127.0 31.75 126.75 33.75 127.75 35.75 132.5 61.75 137.75 82.5 123.5 77.75 132.0 66.5 128.0 41.5 126.5 36.25 126.0 30.0" fill="#000000" fill-opacity="0.49803922" fill-rule="evenodd" stroke="none"/>
  </g>
</svg>
