<?xml version="1.0" encoding="UTF-8" standalone="no"?>
<svg xmlns:ffdec="https://www.free-decompiler.com/flash" xmlns:xlink="http://www.w3.org/1999/xlink" ffdec:objectType="shape" height="272.15px" width="428.9px" xmlns="http://www.w3.org/2000/svg">
  <g transform="matrix(1.0, 0.0, 0.0, 1.0, 254.8, 69.65)">
    <path d="M42.25 -51.0 Q38.4 -59.55 42.5 -68.25 59.1 -72.3 74.1 -64.5 75.25 -63.95 76.55 -63.75 87.65 -61.9 97.3 -56.1 98.45 -55.4 98.55 -54.15 99.35 -43.8 91.0 -38.0 86.25 -30.5 67.25 -42.75 42.0 -42.25 42.25 -51.0 M53.25 -55.25 Q48.5 -46.75 59.5 -45.75 63.25 -47.5 63.75 -51.25 L62.0 -54.0 Q58.25 -57.0 57.25 -56.25 L53.25 -55.25 M85.0 -48.5 Q76.75 -51.25 75.5 -45.25 73.5 -39.75 82.25 -39.75 89.25 -43.0 85.0 -48.5" fill="#ffffff" fill-rule="evenodd" stroke="none"/>
    <path d="M85.0 -48.5 Q89.25 -43.0 82.25 -39.75 73.5 -39.75 75.5 -45.25 76.75 -51.25 85.0 -48.5 M53.25 -55.25 L57.25 -56.25 Q58.25 -57.0 62.0 -54.0 L63.75 -51.25 Q63.25 -47.5 59.5 -45.75 48.5 -46.75 53.25 -55.25" fill="#000000" fill-rule="evenodd" stroke="none"/>
    <path d="M42.25 -51.0 Q42.0 -42.25 67.25 -42.75 86.25 -30.5 91.0 -38.0 107.5 -19.25 84.75 15.5 L78.15 22.45 Q73.6 27.15 67.2 28.6 53.8 31.55 40.7 26.9 33.1 24.1 28.5 17.55 20.35 5.95 18.25 -8.0 17.45 -18.55 19.3 -28.65 20.15 -33.25 22.5 -37.2 29.1 -48.5 42.25 -51.0 M13.0 184.5 Q9.15 175.1 8.25 165.0 33.7 166.0 58.25 159.55 L62.0 158.5 82.5 144.0 Q90.25 141.45 97.7 138.1 L105.25 134.5 Q109.55 146.3 109.9 158.75 110.0 162.1 109.1 165.4 105.35 179.3 93.5 187.45 82.25 195.05 69.1 198.65 49.85 204.1 30.4 199.85 21.35 197.7 16.15 190.3 14.25 187.6 13.0 184.5 M-107.05 175.65 Q-110.35 170.0 -111.1 163.5 -112.7 150.0 -107.5 137.25 -98.95 116.1 -84.25 98.75 L-77.05 105.55 -71.75 110.0 Q-67.5 117.5 -62.25 124.25 -55.9 132.35 -47.4 138.1 -28.75 150.85 -9.0 162.0 -11.2 174.15 -13.95 186.2 -14.9 190.35 -17.65 193.6 -18.65 194.8 -19.9 195.8 -27.4 201.45 -36.85 202.0 -64.25 204.45 -88.9 192.5 -100.6 186.85 -107.05 175.65" fill="#e58508" fill-rule="evenodd" stroke="none"/>
    <path d="M168.0 62.75 L162.5 32.25 Q160.0 22.5 161.25 21.5 181.75 129.0 169.5 142.0 160.5 160.25 107.5 133.0 L105.5 134.5 109.0 144.75 110.5 154.0 108.25 153.0 102.75 154.0 101.25 157.5 79.75 173.0 73.75 176.5 43.5 185.25 38.0 187.5 24.5 187.5 Q19.5 188.75 19.75 190.25 36.25 202.25 75.5 192.0 98.25 186.0 109.0 165.75 L110.0 163.5 109.25 167.0 Q102.5 185.75 84.5 193.25 L75.0 197.0 56.0 201.0 41.5 201.5 32.75 200.75 23.75 198.25 Q13.0 199.0 8.5 165.25 L-1.25 164.75 -8.5 162.0 -12.5 183.25 Q-14.5 190.75 -18.5 195.25 L-25.0 199.25 -33.25 201.5 -43.0 202.5 Q-93.25 203.25 -109.75 169.75 L-111.25 165.75 -110.75 164.0 Q-106.25 179.75 -87.0 189.0 L-77.5 192.75 -67.75 195.25 -57.5 196.5 -57.0 197.5 Q-16.0 198.0 -14.5 186.0 -14.0 178.75 -37.5 173.0 L-61.25 154.75 -64.25 151.75 -76.75 130.0 -78.25 125.75 -85.5 120.25 -92.5 113.0 -94.25 112.5 -84.25 98.0 Q-107.25 71.25 -108.25 52.25 L-109.0 45.25 -107.75 31.0 -106.25 23.25 -111.75 25.75 Q-115.25 40.0 -124.75 43.0 L-128.25 44.75 -149.75 44.0 -183.5 33.0 -216.25 15.25 -244.75 -3.75 Q-258.0 -12.25 -253.75 -17.0 -252.0 -4.5 -182.75 31.0 L-149.25 40.75 -134.25 42.25 -125.5 42.25 -125.15 42.0 -143.5 39.75 -129.5 40.5 Q-125.85 40.0 -125.05 41.9 L-123.5 40.75 -126.0 40.5 Q-121.5 38.75 -118.25 35.75 L-114.25 30.5 -114.0 29.5 Q-114.25 27.5 -122.25 24.5 L-115.75 20.0 Q-112.5 18.25 -110.25 19.25 L-83.0 -0.5 -38.0 -30.5 -42.0 -24.5 -51.5 -13.5 -65.25 5.0 -67.0 6.25 -68.25 9.0 -79.5 24.5 -95.75 52.0 -100.0 62.0 Q-93.5 76.75 -76.0 88.0 L-61.25 116.5 -35.0 139.25 -1.0 152.75 Q0.75 150.0 18.0 153.25 L39.75 150.75 72.75 137.75 76.75 134.0 76.5 133.5 79.75 130.5 Q79.5 129.0 85.75 122.75 L86.5 121.5 87.0 121.0 86.0 119.75 62.25 104.0 37.0 84.0 28.5 76.0 Q26.5 70.75 29.25 69.5 25.75 73.5 34.0 80.0 L65.5 104.25 101.5 127.75 Q140.75 147.75 163.75 145.25 L163.75 144.5 161.5 144.0 163.75 142.75 163.0 141.5 165.25 141.5 169.5 137.5 Q167.75 135.5 172.0 130.5 171.75 128.3 168.65 129.95 169.85 129.15 171.75 122.5 L173.0 113.75 168.0 62.75 M98.0 -21.5 L98.25 -5.5 96.0 27.5 94.25 41.0 91.25 55.75 91.5 57.5 88.0 72.0 86.5 74.25 43.0 69.0 34.5 69.0 Q22.5 59.25 18.5 -3.0 25.75 27.25 57.75 29.0 87.0 25.25 98.0 -21.5 M18.75 -3.5 L18.75 -5.0 19.5 -5.0 19.5 -3.5 18.75 -3.5 M19.0 -6.5 L18.25 -9.5 19.25 -7.75 19.0 -6.5 M123.5 23.75 L132.75 63.75 Q136.65 83.3 141.05 84.45 L119.25 79.75 125.5 72.5 130.0 65.75 122.75 23.0 123.5 23.75" fill="#000000" fill-opacity="0.49803922" fill-rule="evenodd" stroke="none"/>
  </g>
</svg>
