<?xml version="1.0" encoding="UTF-8" standalone="no"?>
<svg xmlns:ffdec="https://www.free-decompiler.com/flash" xmlns:xlink="http://www.w3.org/1999/xlink" ffdec:objectType="shape" height="272.35px" width="450.9px" xmlns="http://www.w3.org/2000/svg">
  <g transform="matrix(1.0, 0.0, 0.0, 1.0, 274.9, 69.6)">
    <path d="M36.0 -51.75 Q33.05 -60.45 36.0 -69.0 L45.3 -69.55 Q62.75 -68.75 79.35 -62.85 83.0 -61.55 86.8 -60.85 92.15 -59.6 94.0 -54.75 L93.6 -53.1 Q91.9 -44.8 85.25 -40.0 80.0 -32.25 61.5 -43.75 L61.25 -44.25 Q45.25 -40.25 36.0 -51.75 M72.75 -50.75 L69.5 -49.25 Q66.75 -40.5 76.0 -41.25 83.75 -44.75 78.5 -50.5 L72.75 -50.75 M46.75 -56.25 Q43.25 -46.5 53.5 -47.0 L56.5 -49.5 Q58.25 -53.25 56.75 -53.75 51.25 -59.75 46.75 -56.25" fill="#ffffff" fill-rule="evenodd" stroke="none"/>
    <path d="M46.75 -56.25 Q51.25 -59.75 56.75 -53.75 58.25 -53.25 56.5 -49.5 L53.5 -47.0 Q43.25 -46.5 46.75 -56.25 M72.75 -50.75 L78.5 -50.5 Q83.75 -44.75 76.0 -41.25 66.75 -40.5 69.5 -49.25 L72.75 -50.75" fill="#000000" fill-rule="evenodd" stroke="none"/>
    <path d="M36.0 -51.75 Q45.25 -40.25 61.25 -44.25 L61.5 -43.75 Q80.0 -32.25 85.25 -40.0 102.5 -21.75 80.5 13.5 L77.5 16.75 77.5 17.0 Q67.25 31.5 44.0 27.75 L42.25 27.5 41.25 27.25 Q19.75 24.25 13.25 -8.0 L12.75 -16.75 13.0 -22.25 13.25 -22.75 Q8.25 -39.25 36.0 -51.75 M12.5 186.15 Q9.45 175.65 8.25 165.0 L20.5 165.0 Q28.5 168.5 65.25 155.0 L82.75 142.0 Q92.3 138.85 100.8 134.35 102.0 133.75 103.25 133.25 L105.0 133.75 Q107.75 143.85 109.95 154.1 110.45 156.4 110.25 158.75 108.95 176.05 95.0 186.5 83.05 195.45 68.4 198.8 60.4 200.5 52.25 201.4 35.3 203.8 20.35 195.75 14.4 192.5 12.5 186.15 M-102.55 126.2 Q-95.4 112.3 -85.25 100.25 -79.35 106.35 -72.5 111.25 -64.6 125.65 -52.55 137.1 L-49.5 140.0 -28.75 154.75 -9.0 161.75 Q-9.6 177.0 -15.7 190.65 -16.4 192.3 -17.7 193.6 -26.05 201.75 -37.9 202.1 -55.1 203.45 -71.8 199.35 -84.75 196.05 -95.65 188.35 -106.5 180.6 -110.15 167.8 -112.3 160.3 -111.1 152.5 -108.95 138.65 -102.55 126.2" fill="#e58508" fill-rule="evenodd" stroke="none"/>
    <path d="M164.85 135.65 L171.1 133.6 169.75 134.35 Q167.4 135.55 164.85 135.65 M174.25 100.0 Q176.45 110.2 173.45 119.95 L173.5 118.5 174.25 100.0 M167.5 59.5 L170.0 68.75 173.5 94.5 167.5 59.5 M-94.5 9.25 L-95.0 9.0 -94.0 8.5 -94.5 9.25 M-42.5 -28.5 L-43.25 -26.5 -44.25 -26.0 -45.0 -24.0 -67.0 6.5 -70.0 10.75 -69.75 11.5 Q-82.6 30.55 -93.5 50.65 -94.45 52.45 -94.5 54.5 L-99.5 66.0 Q-91.7 78.2 -80.75 87.5 -79.0 89.05 -77.0 89.5 L-64.5 112.25 -62.75 116.75 -35.5 139.5 -1.5 152.5 -0.5 152.5 -0.25 151.5 38.5 150.5 74.0 135.75 81.75 126.25 80.75 125.25 47.0 111.0 17.25 96.0 0.75 86.25 0.5 84.5 Q2.7 87.35 6.0 88.75 L41.0 106.75 72.0 120.25 92.25 128.5 130.75 139.25 140.75 140.0 133.25 137.75 155.5 138.6 Q162.1 138.6 168.35 136.55 170.5 135.85 172.25 134.0 L171.3 133.5 Q174.15 131.95 176.0 129.0 174.05 139.55 163.65 142.55 156.4 144.75 148.75 144.15 126.5 141.8 105.5 133.75 L105.0 134.25 Q109.6 142.5 110.25 151.75 L109.5 151.0 102.25 152.25 100.25 156.25 77.75 173.0 Q66.25 177.0 54.5 180.05 L24.95 187.8 Q21.85 188.5 19.0 190.0 26.0 193.0 33.3 194.3 44.35 196.25 55.75 196.5 L56.0 195.5 Q78.35 194.05 96.65 181.5 102.7 177.45 106.75 171.55 108.05 169.6 108.7 167.45 105.35 180.05 94.3 187.4 72.35 202.15 45.95 201.3 33.4 200.5 21.3 197.55 20.0 197.2 18.95 196.3 15.9 193.9 14.55 190.4 9.95 178.25 8.5 165.25 L-8.75 161.75 Q-11.05 173.95 -13.8 186.0 -14.3 188.3 -15.3 190.45 -16.55 193.1 -18.95 194.45 -25.9 198.35 -33.55 200.3 -40.35 202.1 -47.45 202.75 -74.1 203.25 -95.4 187.3 -100.9 183.15 -104.9 177.65 -108.0 173.4 -110.5 168.7 -111.65 166.6 -111.0 164.3 -110.2 164.7 -109.7 166.85 -109.2 169.0 -108.15 171.0 -105.15 176.7 -99.8 180.75 -91.3 187.25 -81.35 191.05 -67.15 196.5 -52.05 197.55 -35.1 198.6 -19.7 192.1 -17.0 190.9 -15.55 188.2 -14.4 186.1 -15.3 184.25 -16.45 182.0 -18.7 181.1 -28.0 177.05 -37.5 173.5 L-63.5 154.25 Q-71.65 140.35 -81.3 127.7 -86.75 120.5 -93.75 114.5 L-95.25 114.25 -85.25 100.0 Q-95.5 85.35 -101.05 69.15 -107.5 50.25 -109.25 29.75 -113.35 30.65 -116.25 34.0 L-126.25 31.75 -121.0 30.5 -121.25 30.0 -96.25 10.0 -95.75 10.25 -98.0 11.75 -97.0 11.75 -79.25 0.0 -42.5 -28.5 M-273.55 -2.5 Q-275.8 -4.15 -274.25 -7.25 L-273.25 -2.75 -259.25 6.5 -230.5 22.5 -193.5 39.25 -158.75 48.75 -128.25 50.25 -121.75 44.5 -123.0 44.15 -118.25 41.0 -120.25 45.5 -130.75 52.5 -154.0 52.25 -193.25 41.25 -231.75 23.25 -258.25 8.25 -273.55 -2.5 M121.0 20.25 L121.5 23.75 131.25 55.25 133.5 65.25 135.75 69.25 140.0 82.5 134.0 81.25 116.25 80.25 Q117.5 80.25 121.25 75.0 L128.0 65.25 121.75 28.25 119.25 17.5 120.25 17.75 120.0 18.75 121.0 20.25 M18.25 40.25 L14.5 18.25 13.25 -5.5 Q23.25 28.5 53.25 28.0 81.25 24.75 93.0 -22.5 91.5 70.75 74.5 78.25 L32.5 77.75 36.75 77.5 Q29.75 73.0 20.75 49.25 L18.25 40.25" fill="#000000" fill-opacity="0.49803922" fill-rule="evenodd" stroke="none"/>
  </g>
</svg>
