<?xml version="1.0" encoding="UTF-8" standalone="no"?>
<svg xmlns:ffdec="https://www.free-decompiler.com/flash" xmlns:xlink="http://www.w3.org/1999/xlink" ffdec:objectType="shape" height="274.5px" width="443.75px" xmlns="http://www.w3.org/2000/svg">
  <g transform="matrix(1.0, 0.0, 0.0, 1.0, 266.75, 71.8)">
    <path d="M63.5 -51.0 Q60.5 -41.75 70.25 -43.0 76.5 -44.5 72.5 -52.0 L66.5 -52.25 63.5 -51.0 M30.0 -52.25 Q27.55 -60.6 29.25 -69.0 39.15 -73.7 49.65 -70.45 52.4 -69.7 55.2 -69.3 64.6 -67.8 73.95 -65.35 L79.25 -63.95 Q85.25 -62.25 87.75 -56.75 L87.05 -54.65 Q84.55 -47.35 79.5 -41.75 69.0 -34.75 55.25 -45.25 38.75 -41.5 30.0 -52.25 M47.5 -48.0 Q54.5 -60.5 40.25 -56.25 38.0 -46.5 47.5 -48.0" fill="#ffffff" fill-rule="evenodd" stroke="none"/>
    <path d="M63.5 -51.0 L66.5 -52.25 72.5 -52.0 Q76.5 -44.5 70.25 -43.0 60.5 -41.75 63.5 -51.0 M47.5 -48.0 Q38.0 -46.5 40.25 -56.25 54.5 -60.5 47.5 -48.0" fill="#000000" fill-rule="evenodd" stroke="none"/>
    <path d="M30.0 -52.25 Q38.75 -41.5 55.25 -45.25 69.0 -34.75 79.5 -41.75 98.0 -29.25 76.5 11.0 69.35 22.95 55.75 26.25 40.2 30.2 26.3 22.35 22.75 20.35 20.1 17.35 10.65 6.55 8.25 -7.75 6.65 -17.45 7.45 -27.25 7.85 -31.8 10.2 -35.95 16.95 -47.95 30.0 -52.25 M8.25 164.75 L32.5 164.5 60.25 157.0 63.75 155.25 82.75 140.25 84.15 139.8 Q89.65 137.35 95.25 135.25 L95.25 134.75 103.5 130.75 Q106.6 139.1 109.15 147.7 111.15 154.3 110.2 161.1 109.25 167.7 106.2 173.45 100.3 184.6 89.1 190.55 65.25 203.0 38.3 201.45 26.15 200.35 16.6 193.2 15.55 192.4 14.95 191.15 9.35 178.6 8.25 164.75 M-86.5 101.5 Q-80.7 108.1 -73.25 112.75 -68.0 121.25 -61.75 128.9 -56.75 135.0 -50.75 140.25 L-29.5 154.75 -9.0 161.75 Q-9.8 176.25 -14.65 189.7 -15.7 192.6 -18.2 194.3 L-23.0 197.75 Q-28.15 201.4 -34.7 201.7 L-50.1 202.3 Q-74.7 201.55 -95.2 188.4 -106.7 180.95 -110.35 167.85 -113.25 157.35 -110.3 146.85 -103.25 121.7 -86.5 101.5" fill="#e58508" fill-rule="evenodd" stroke="none"/>
    <path d="M10.25 -0.95 Q18.55 26.3 49.0 27.0 82.5 17.0 87.75 -25.0 88.25 46.0 74.75 68.75 L24.5 67.0 Q8.25 42.25 8.75 -6.75 L9.85 -2.3 9.25 -2.5 10.25 -0.75 10.25 -0.95 M166.0 130.25 L172.25 126.75 177.0 121.0 Q172.0 146.25 111.0 125.25 L106.5 129.25 103.5 130.5 107.0 138.25 109.75 149.25 106.5 149.0 101.5 150.75 Q100.0 150.5 100.0 154.5 L73.0 174.5 39.75 185.5 Q21.5 185.75 19.25 188.75 19.5 195.5 43.25 196.75 L56.0 196.5 Q57.25 194.0 73.75 192.5 109.25 178.5 109.5 163.5 110.5 178.25 83.5 193.75 57.5 205.75 25.25 198.75 12.5 199.5 8.5 164.75 L-0.5 164.75 -8.75 161.75 -12.75 184.5 Q-15.0 191.0 -18.5 195.25 L-25.0 199.25 -33.25 201.5 -43.0 202.5 Q-79.25 205.0 -105.75 178.25 L-109.75 169.75 Q-112.25 164.75 -110.75 164.0 -106.75 187.5 -57.0 197.5 -15.75 198.25 -14.75 185.5 -14.75 179.5 -36.75 174.5 L-62.5 156.25 -64.5 154.25 -75.0 137.75 -80.25 128.25 -88.75 122.25 -94.0 116.75 -96.0 116.0 -93.75 111.25 -86.25 101.5 Q-94.0 96.75 -106.75 73.75 L-112.25 53.5 -112.75 48.5 -111.5 35.0 -121.5 40.75 Q-128.25 39.25 -128.5 38.0 L-126.25 37.25 -110.5 24.0 -102.0 19.75 -47.75 -25.75 -47.5 -24.5 -71.0 11.75 -76.0 21.5 -80.75 28.75 -80.5 29.5 Q-81.75 29.5 -83.5 35.0 L-84.5 35.75 -96.5 60.25 -99.5 69.25 Q-84.25 89.75 -78.25 90.0 L-76.75 94.25 -73.25 99.25 -63.25 117.75 -35.25 140.25 -0.5 152.75 0.0 151.5 16.5 152.5 37.75 150.0 73.25 134.75 77.0 131.0 76.75 130.5 86.75 118.25 Q86.75 117.0 82.5 115.75 L41.25 98.5 10.5 83.0 Q-3.5 75.75 -3.75 73.5 L4.25 78.5 5.5 78.5 42.75 97.75 91.0 117.75 129.0 127.5 134.75 129.75 153.0 132.0 140.5 129.75 141.75 129.5 161.75 132.25 157.25 129.75 145.75 128.75 134.75 126.75 142.25 126.5 166.0 130.25 M117.5 16.25 L119.25 19.75 Q122.25 27.0 121.5 28.25 L133.75 63.25 138.5 74.0 121.5 71.75 Q130.75 64.25 115.25 8.5 L116.25 9.75 117.5 16.25 M-266.75 -26.0 L-266.0 -26.0 -255.0 -15.0 -234.5 3.5 -203.25 27.75 -167.25 47.75 -154.75 51.5 -137.0 55.5 -130.5 51.25 -138.25 52.0 -129.5 50.25 -124.75 47.0 -128.25 52.5 -139.75 57.5 Q-189.25 52.5 -266.75 -26.0 M-3.0 70.0 L-3.5 68.5 -2.75 68.0 -3.0 70.0 M-3.75 72.5 L-3.0 72.5 -3.25 73.0 -3.75 72.5 M-110.25 33.5 L-109.75 34.0 -109.5 33.5 -110.25 33.5 M-126.25 35.5 L-128.75 37.5 -130.25 36.75 -126.25 35.5" fill="#000000" fill-opacity="0.49803922" fill-rule="evenodd" stroke="none"/>
  </g>
</svg>
