<?xml version="1.0" encoding="UTF-8" standalone="no"?>
<svg xmlns:ffdec="https://www.free-decompiler.com/flash" xmlns:xlink="http://www.w3.org/1999/xlink" ffdec:objectType="shape" height="275.0px" width="434.5px" xmlns="http://www.w3.org/2000/svg">
  <g transform="matrix(1.0, 0.0, 0.0, 1.0, 257.25, 72.3)">
    <path d="M62.25 -54.0 L57.25 -52.25 Q54.75 -43.0 64.0 -44.25 71.25 -47.75 66.25 -53.5 L62.25 -54.0 M24.0 -52.75 Q20.2 -58.65 21.85 -65.75 L22.75 -70.0 Q37.2 -74.95 51.5 -69.25 L51.25 -68.75 Q64.0 -67.45 75.85 -63.0 79.35 -61.75 81.5 -58.5 79.4 -51.05 74.8 -44.9 L73.75 -43.5 Q60.75 -36.25 49.25 -46.25 33.25 -41.5 24.0 -52.75 M42.75 -57.25 L39.25 -59.0 Q37.25 -59.75 34.0 -57.75 30.25 -49.0 41.25 -48.75 45.0 -50.75 44.75 -54.75 L42.75 -57.25" fill="#ffffff" fill-rule="evenodd" stroke="none"/>
    <path d="M62.25 -54.0 L66.25 -53.5 Q71.25 -47.75 64.0 -44.25 54.75 -43.0 57.25 -52.25 L62.25 -54.0 M42.75 -57.25 L44.75 -54.75 Q45.0 -50.75 41.25 -48.75 30.25 -49.0 34.0 -57.75 37.25 -59.75 39.25 -59.0 L42.75 -57.25" fill="#000000" fill-rule="evenodd" stroke="none"/>
    <path d="M24.0 -52.75 Q33.25 -41.5 49.25 -46.25 60.75 -36.25 73.75 -43.5 92.25 -30.75 72.5 9.0 L69.0 13.25 68.5 14.0 68.25 14.5 Q60.0 28.5 35.5 26.25 L33.0 25.75 Q9.25 21.75 3.25 -7.5 2.0 -17.8 2.3 -28.1 2.4 -32.3 4.4 -36.0 10.9 -48.15 24.0 -52.75 M14.05 188.85 Q9.15 177.15 8.0 164.5 31.15 161.15 54.2 157.2 L61.75 155.25 83.25 138.25 Q93.4 134.45 102.75 128.75 106.35 138.25 108.95 147.95 112.45 160.85 106.65 172.95 104.0 178.4 99.55 182.45 82.65 197.55 59.95 200.55 L49.1 201.75 Q29.55 204.1 15.35 190.7 14.5 189.9 14.05 188.85 M-87.5 103.25 L-82.2 107.95 Q-78.25 111.3 -74.0 114.0 -68.05 123.75 -60.6 132.15 -56.75 136.5 -52.25 140.25 L-28.25 156.0 -9.0 162.0 Q-11.15 175.45 -14.9 188.55 -15.35 190.15 -16.35 191.55 -22.75 200.6 -34.15 201.85 -61.0 205.1 -85.65 194.25 -100.05 188.0 -107.55 174.25 -111.0 167.95 -111.45 160.9 -112.0 152.1 -109.4 143.6 -102.55 121.25 -87.5 103.25" fill="#e58508" fill-rule="evenodd" stroke="none"/>
    <path d="M3.0 -8.75 L3.5 -9.0 3.0 -9.5 3.75 -9.5 3.75 -8.75 3.0 -8.75 M83.0 -15.75 L81.0 22.0 77.25 48.0 74.0 58.0 13.0 54.5 10.5 48.75 5.0 22.75 3.0 2.75 3.0 -8.0 Q14.25 28.25 44.5 26.25 75.8 18.8 82.45 -25.5 L82.55 -25.5 83.0 -15.75 M174.25 99.5 L174.0 100.0 168.75 99.25 174.25 99.5 M165.0 45.0 L165.75 45.5 169.25 59.5 165.0 45.0 M163.5 120.0 Q162.75 121.75 165.25 120.75 L166.0 121.0 165.75 120.5 166.75 120.0 163.5 120.0 M111.75 3.0 L116.5 16.75 125.5 37.75 135.0 62.75 135.5 63.75 138.5 64.75 123.0 62.25 111.0 2.5 111.75 3.0 M162.5 119.75 Q176.5 113.75 177.25 111.5 172.75 132.25 119.75 115.0 L107.0 126.5 102.75 128.75 106.25 136.5 109.5 147.5 106.5 147.0 100.25 149.25 99.5 152.5 72.25 173.75 39.5 185.0 Q20.75 185.25 18.75 188.25 18.25 194.75 39.25 196.5 47.75 190.5 74.25 190.5 L77.0 191.5 Q107.25 179.5 109.5 163.5 111.0 165.25 105.25 176.0 L97.5 185.0 93.0 188.5 84.5 193.25 Q57.0 206.0 25.25 198.75 12.5 199.5 8.5 164.75 L0.25 164.75 -8.5 162.0 -12.5 183.25 Q-14.5 190.75 -18.5 195.25 L-25.0 199.25 -33.25 201.5 -43.0 202.5 Q-79.25 205.0 -105.75 178.25 L-109.75 169.75 Q-112.25 164.75 -110.75 164.0 -106.75 187.5 -57.0 197.5 -16.25 198.0 -15.0 186.0 -15.5 182.25 -20.25 180.0 L-34.75 175.5 -36.25 175.25 -63.5 156.75 -81.5 129.25 -89.75 123.75 -95.75 117.75 -97.25 117.75 -93.75 111.25 -87.75 103.0 Q-112.5 77.25 -114.25 55.0 L-114.0 40.0 Q-115.5 39.25 -120.75 44.75 L-128.25 48.25 Q-129.75 47.5 -127.75 45.75 L-133.0 44.25 -125.0 41.75 -96.0 15.0 -75.25 -2.75 -70.5 -6.0 -53.0 -22.0 -52.75 -20.5 -74.0 15.25 -85.75 38.25 -97.0 63.5 -99.5 71.25 Q-84.75 90.5 -79.25 90.5 L-73.75 102.25 -67.25 112.25 -64.0 118.75 -36.0 140.25 Q48.0 174.0 92.75 108.5 L93.0 107.75 87.25 106.0 37.5 85.5 2.5 68.5 Q-9.5 63.25 -8.5 60.0 -9.0 62.25 0.0 66.25 L39.0 84.75 88.25 104.5 99.25 107.75 139.0 118.25 161.0 120.75 162.25 120.75 161.5 120.25 141.25 116.5 162.5 119.75 M141.25 112.75 L163.75 117.5 132.75 112.75 141.25 112.75 M-251.0 -38.25 L-233.0 -13.75 -204.5 19.75 -176.25 44.25 -146.5 59.25 -138.75 56.75 Q-139.0 55.8 -140.7 55.45 L-138.0 55.5 -132.0 52.5 -136.75 58.25 -149.25 61.0 Q-198.25 43.25 -257.25 -47.0 L-256.5 -47.0 -251.0 -38.25 M-8.0 55.5 L-7.25 56.25 -7.75 57.0 -8.0 55.5" fill="#000000" fill-opacity="0.49803922" fill-rule="evenodd" stroke="none"/>
  </g>
</svg>
