<?xml version="1.0" encoding="UTF-8" standalone="no"?>
<svg xmlns:ffdec="https://www.free-decompiler.com/flash" xmlns:xlink="http://www.w3.org/1999/xlink" ffdec:objectType="shape" height="273.85px" width="444.55px" xmlns="http://www.w3.org/2000/svg">
  <g transform="matrix(1.0, 0.0, 0.0, 1.0, 268.25, 71.15)">
    <path d="M30.0 -52.25 L29.55 -54.05 Q27.9 -61.7 29.5 -69.5 38.3 -72.25 47.35 -70.4 64.1 -67.2 80.35 -62.45 83.95 -61.45 85.8 -58.4 86.3 -57.6 86.1 -56.5 84.7 -48.6 79.75 -41.75 73.0 -34.25 55.25 -45.25 39.75 -41.0 30.0 -52.25 M63.5 -50.75 Q60.5 -41.75 70.25 -43.0 77.5 -47.5 72.5 -52.0 L66.75 -52.25 63.5 -50.75 M45.0 -58.25 L40.5 -57.0 Q37.0 -47.75 47.5 -48.0 53.5 -53.0 49.25 -56.25 L45.0 -58.25" fill="#ffffff" fill-rule="evenodd" stroke="none"/>
    <path d="M45.0 -58.25 L49.25 -56.25 Q53.5 -53.0 47.5 -48.0 37.0 -47.75 40.5 -57.0 L45.0 -58.25 M63.5 -50.75 L66.75 -52.25 72.5 -52.0 Q77.5 -47.5 70.25 -43.0 60.5 -41.75 63.5 -50.75" fill="#000000" fill-rule="evenodd" stroke="none"/>
    <path d="M30.0 -52.25 Q39.75 -41.0 55.25 -45.25 73.0 -34.25 79.75 -41.75 97.25 -24.25 76.5 11.25 75.0 13.0 73.75 14.95 68.05 23.75 57.7 26.15 42.0 29.85 27.4 23.0 23.8 21.3 21.15 18.35 10.95 7.15 8.5 -8.0 7.45 -16.7 7.35 -25.25 7.3 -29.45 8.95 -33.35 14.95 -47.5 30.0 -52.25 M15.25 189.65 Q9.45 177.95 8.25 164.75 L32.5 164.5 60.25 157.0 63.75 155.25 83.0 140.25 95.75 135.0 96.0 134.5 103.5 130.75 Q106.0 136.95 107.95 143.4 109.5 148.65 110.0 154.25 110.8 162.95 107.3 171.05 101.9 183.5 90.05 190.05 66.6 203.15 39.55 201.85 27.6 200.9 18.35 193.4 16.3 191.8 15.25 189.65 M-86.5 101.5 Q-80.65 108.05 -73.25 112.75 -67.7 120.95 -61.55 128.8 -56.75 135.0 -50.75 140.25 L-29.5 154.75 -9.0 161.75 Q-9.8 176.25 -14.65 189.7 -15.7 192.6 -18.2 194.3 L-23.0 197.75 Q-28.15 201.4 -34.7 201.7 L-50.1 202.3 Q-74.7 201.55 -95.2 188.4 -106.7 180.95 -110.35 167.85 -113.25 157.35 -110.3 146.85 -103.25 121.7 -86.5 101.5" fill="#e58508" fill-rule="evenodd" stroke="none"/>
    <path d="M6.75 34.5 L8.0 34.0 6.75 37.0 Q5.75 36.75 6.75 34.5 M116.25 9.75 L117.5 16.0 120.5 25.75 134.5 65.75 125.25 62.75 115.25 9.0 116.25 9.75 M175.0 94.5 Q177.85 97.35 174.55 110.0 L175.0 94.5 M173.5 113.75 L166.25 112.75 Q166.75 111.55 174.05 112.0 L173.5 113.75 M174.0 120.25 Q173.5 124.0 169.75 128.5 L158.5 132.75 152.0 132.25 143.75 128.75 130.75 124.75 119.25 118.75 107.75 128.25 104.0 130.25 103.5 131.0 107.0 138.25 108.75 144.0 109.75 149.25 106.5 149.0 101.25 150.75 100.0 154.5 75.25 173.0 92.25 174.0 Q98.25 174.5 101.0 177.75 L106.5 171.0 109.25 164.0 110.0 163.5 110.0 165.0 Q102.75 186.5 83.5 193.75 57.5 205.75 25.25 198.75 12.5 199.5 8.5 164.75 L-0.5 164.75 -8.75 161.75 -12.75 184.5 Q-15.0 191.0 -18.5 195.25 L-25.0 199.25 -33.25 201.5 -43.0 202.5 Q-79.25 205.0 -105.75 178.25 L-109.75 169.75 Q-112.25 164.75 -110.75 164.0 -106.75 187.5 -57.0 197.5 -15.75 198.25 -14.75 185.25 -15.75 179.0 -36.75 174.5 L-63.75 155.25 -77.5 133.75 -80.25 128.25 -88.75 122.25 -94.25 116.5 -96.0 116.0 -93.75 111.25 -86.25 101.5 Q-111.25 75.25 -112.5 52.5 L-112.75 48.0 -111.5 35.0 Q-124.75 46.0 -131.25 37.75 L-130.25 36.5 -127.75 35.5 Q-126.0 36.75 -129.0 37.5 L-127.25 37.75 -111.0 24.25 -103.0 20.5 -48.25 -25.5 -47.5 -25.75 -47.25 -25.0 -72.25 13.75 -81.5 30.25 -88.0 43.5 -91.5 49.0 -91.75 50.75 -97.5 62.0 -97.25 63.0 Q-99.25 65.0 -99.5 69.0 -84.25 89.75 -78.25 90.0 L-76.75 94.25 -73.25 99.25 -63.25 117.75 -35.25 140.25 -0.5 152.75 Q0.5 150.0 11.25 152.25 -2.25 124.25 18.25 123.0 41.75 114.75 72.25 135.25 L77.0 131.0 76.75 130.5 79.0 128.5 78.75 128.0 81.0 126.0 80.75 125.5 95.5 107.0 Q95.0 105.5 87.25 102.25 L62.75 85.0 Q51.0 87.25 40.25 82.0 L32.0 77.0 25.25 68.75 22.0 61.75 19.75 58.75 16.25 50.0 5.75 40.5 5.75 39.0 6.75 40.75 18.25 50.75 20.25 51.5 46.25 72.5 90.0 102.25 131.5 123.25 147.25 128.5 149.0 128.5 138.75 124.5 155.25 130.5 Q156.0 129.0 152.25 127.25 L130.5 119.25 138.75 120.75 153.25 127.0 161.0 129.5 Q171.0 126.5 174.0 120.25 M166.75 55.0 L168.5 59.5 171.5 76.0 166.75 55.0 M87.75 -24.5 L88.0 -3.5 86.25 14.0 86.25 21.75 82.25 50.5 26.75 36.5 12.25 34.25 9.75 19.75 8.5 6.75 8.25 -6.75 Q16.25 26.75 50.25 26.75 80.0 19.75 87.75 -24.5 M-268.25 -39.0 L-267.75 -38.5 Q-162.15 72.45 -127.5 48.0 L-131.0 52.5 -142.75 56.25 Q-200.8 42.8 -267.8 -38.5 L-268.25 -39.0" fill="#000000" fill-opacity="0.49803922" fill-rule="evenodd" stroke="none"/>
  </g>
</svg>
