<?xml version="1.0" encoding="UTF-8" standalone="no"?>
<svg xmlns:ffdec="https://www.free-decompiler.com/flash" xmlns:xlink="http://www.w3.org/1999/xlink" ffdec:objectType="shape" height="273.35px" width="430.15px" xmlns="http://www.w3.org/2000/svg">
  <g transform="matrix(1.0, 0.0, 0.0, 1.0, 255.1, 70.65)">
    <path d="M73.0 -50.75 L70.0 -49.5 Q66.75 -40.25 76.25 -41.25 L80.25 -44.25 Q81.75 -49.0 79.0 -50.25 77.75 -51.75 73.0 -50.75 M36.25 -51.75 L35.4 -53.95 Q32.4 -61.45 36.0 -68.5 41.35 -71.15 47.2 -70.5 55.7 -69.5 63.9 -67.0 67.5 -66.0 71.2 -66.1 85.25 -65.1 94.25 -54.75 L93.5 -52.7 Q90.7 -45.75 85.5 -40.0 79.75 -32.25 61.75 -43.75 L61.5 -44.25 Q40.0 -41.75 36.25 -51.75 M80.75 13.25 L82.75 32.75 82.25 37.75 61.25 27.75 63.55 26.95 Q74.35 22.9 80.75 13.25 M55.75 -55.25 Q48.5 -59.5 47.0 -56.25 44.0 -45.5 53.75 -47.0 57.75 -50.5 57.5 -52.0 L55.75 -55.25" fill="#ffffff" fill-rule="evenodd" stroke="none"/>
    <path d="M73.0 -50.75 Q77.75 -51.75 79.0 -50.25 81.75 -49.0 80.25 -44.25 L76.25 -41.25 Q66.75 -40.25 70.0 -49.5 L73.0 -50.75 M55.75 -55.25 L57.5 -52.0 Q57.75 -50.5 53.75 -47.0 44.0 -45.5 47.0 -56.25 48.5 -59.5 55.75 -55.25" fill="#000000" fill-rule="evenodd" stroke="none"/>
    <path d="M85.5 -40.0 Q102.75 -22.75 80.75 13.25 74.35 22.9 63.55 26.95 L61.25 27.75 Q46.5 20.1 30.65 15.6 L28.75 15.5 26.0 19.0 Q16.25 11.25 13.25 -8.0 11.9 -19.2 14.3 -30.2 16.1 -38.45 22.1 -44.45 28.0 -50.25 36.25 -51.75 40.0 -41.75 61.5 -44.25 L61.75 -43.75 Q79.75 -32.25 85.5 -40.0 M8.25 165.0 L33.0 165.0 61.0 158.0 82.75 142.0 Q93.8 138.1 104.25 132.75 111.9 146.05 110.05 161.05 109.25 167.7 106.2 173.45 100.3 184.6 89.1 190.55 65.25 203.0 38.3 201.45 26.15 200.35 16.7 193.1 15.7 192.35 15.1 191.0 9.35 178.75 8.25 165.0 M-85.5 100.25 Q-79.75 106.55 -72.5 111.25 -55.85 132.3 -33.4 147.1 -21.5 154.95 -9.0 161.75 -9.8 176.25 -14.65 189.7 -15.7 192.6 -18.2 194.3 L-23.0 197.75 Q-28.15 201.4 -34.7 201.7 L-50.1 202.3 Q-74.7 201.55 -95.2 188.4 -106.7 180.95 -110.15 167.75 -113.75 153.95 -108.65 140.35 -100.45 118.35 -85.5 100.25" fill="#e58508" fill-rule="evenodd" stroke="none"/>
    <path d="M14.5 -5.5 L13.5 -5.75 13.75 -7.0 14.5 -5.5 M174.1 104.0 L174.45 104.0 Q177.6 129.05 163.5 137.0 L161.25 138.0 150.25 139.75 144.5 137.75 134.25 130.75 127.25 127.25 119.5 121.5 106.75 131.5 104.25 132.5 107.0 138.25 110.25 151.5 106.75 151.0 101.75 152.5 100.25 156.25 94.25 160.5 Q105.25 161.75 108.0 166.75 L108.75 166.5 109.5 164.0 110.0 163.5 110.0 165.0 Q108.75 178.25 86.5 192.25 56.0 206.5 25.25 198.75 12.5 199.25 8.5 165.25 L-0.75 164.75 -8.5 162.0 Q-11.5 187.75 -18.5 195.25 L-25.0 199.25 -33.25 201.5 -43.0 202.5 Q-79.25 205.0 -105.75 178.25 L-109.75 169.75 Q-112.25 164.75 -110.75 164.0 -106.75 187.5 -57.0 197.5 -16.25 198.0 -15.0 186.0 -13.75 183.75 -20.0 179.5 L-37.5 173.5 -62.5 155.0 -77.25 131.75 -79.25 126.75 Q-90.0 120.0 -93.0 115.0 L-95.25 114.25 -93.25 110.5 -85.25 100.0 Q-109.5 74.25 -111.0 48.0 L-109.0 29.25 Q-120.0 38.5 -129.0 31.75 L-121.0 29.75 -97.75 10.75 Q-95.5 11.25 -84.0 1.75 L-79.25 -0.25 -42.75 -28.75 -43.0 -27.0 -66.5 5.5 -67.25 7.5 -68.25 8.0 -69.0 10.0 -70.0 10.5 -70.0 11.5 -80.75 27.75 -94.25 52.25 -99.75 65.75 Q-82.75 89.75 -77.0 89.5 L-65.0 111.25 -62.75 116.75 -34.5 140.0 -1.25 152.5 Q46.75 152.75 51.25 145.5 L49.0 137.75 43.75 124.75 37.25 112.25 29.25 92.75 28.5 84.75 Q29.0 78.5 31.25 77.25 L36.5 76.75 Q29.75 72.75 20.75 48.5 L16.75 32.25 14.0 11.75 13.5 -4.0 Q17.75 9.25 26.75 18.0 L26.25 19.75 Q27.25 19.75 28.0 16.25 L29.75 15.5 28.0 17.75 26.75 21.25 32.75 29.75 37.5 34.75 58.0 60.75 93.0 98.0 114.0 114.25 126.25 124.75 141.75 132.5 140.5 130.5 135.5 128.0 Q127.75 123.25 127.75 122.0 L135.0 125.5 143.5 131.25 154.75 137.25 160.5 135.5 160.25 134.0 158.15 133.75 Q163.9 133.5 169.0 127.5 L169.0 126.5 163.5 123.75 Q175.9 125.5 174.1 104.0 M173.0 96.5 L167.0 60.0 169.25 68.25 173.0 96.5 M92.75 -23.0 L93.5 -20.25 Q93.45 10.65 88.75 41.0 L58.5 26.5 Q69.7 21.8 77.7 12.85 91.4 -2.45 92.75 -23.0 M174.05 103.3 L173.25 97.0 174.4 103.65 174.05 103.3 M120.25 18.75 L120.0 19.75 122.5 26.75 132.5 63.5 126.75 60.25 119.25 17.5 120.25 18.75 M62.7 87.45 L62.25 87.5 Q73.5 99.1 84.1 111.3 86.35 114.0 88.0 117.25 L88.75 117.5 97.25 102.75 74.5 79.5 73.5 79.5 70.75 83.25 Q67.25 86.35 62.7 87.45 M19.0 190.25 Q22.65 193.65 27.45 194.7 41.3 197.4 55.35 196.75 57.15 196.85 57.75 195.25 L64.0 194.75 54.0 181.5 Q36.9 184.5 20.0 188.75 L19.0 190.25 M-239.5 -0.75 L-202.0 24.5 -199.25 25.25 -180.0 35.25 -160.75 43.5 -135.25 48.75 -126.5 44.5 Q-127.15 43.85 -130.1 44.2 L-126.75 43.5 -122.5 41.5 -125.0 45.5 -137.5 50.5 Q-189.05 45.1 -255.1 -13.1 L-239.5 -0.75" fill="#000000" fill-opacity="0.49803922" fill-rule="evenodd" stroke="none"/>
  </g>
</svg>
