<?xml version="1.0" encoding="UTF-8" standalone="no"?>
<svg xmlns:ffdec="https://www.free-decompiler.com/flash" xmlns:xlink="http://www.w3.org/1999/xlink" ffdec:objectType="shape" height="272.15px" width="404.25px" xmlns="http://www.w3.org/2000/svg">
  <g transform="matrix(1.0, 0.0, 0.0, 1.0, 230.25, 69.6)">
    <path d="M42.5 -51.0 Q38.3 -59.65 42.75 -68.25 51.95 -70.7 61.4 -68.75 65.9 -67.7 70.0 -65.4 72.5 -63.95 75.45 -63.55 88.2 -63.3 98.35 -55.3 99.25 -54.55 99.3 -53.4 99.95 -43.45 91.25 -38.0 78.5 -32.0 67.5 -42.75 51.5 -39.25 42.5 -51.0 M53.5 -55.25 Q49.75 -45.25 59.75 -45.75 63.5 -47.5 64.0 -51.25 L62.25 -54.0 Q58.5 -57.0 57.5 -56.25 L53.5 -55.25 M75.5 -45.0 Q74.5 -39.25 82.5 -39.75 89.5 -42.5 85.25 -48.5 79.75 -50.25 76.25 -48.0 L75.5 -45.0" fill="#ffffff" fill-rule="evenodd" stroke="none"/>
    <path d="M75.5 -45.0 L76.25 -48.0 Q79.75 -50.25 85.25 -48.5 89.5 -42.5 82.5 -39.75 74.5 -39.25 75.5 -45.0 M53.5 -55.25 L57.5 -56.25 Q58.5 -57.0 62.25 -54.0 L64.0 -51.25 Q63.5 -47.5 59.75 -45.75 49.75 -45.25 53.5 -55.25" fill="#000000" fill-rule="evenodd" stroke="none"/>
    <path d="M42.5 -51.0 Q51.5 -39.25 67.5 -42.75 78.5 -32.0 91.25 -38.0 108.0 -20.0 84.75 15.75 81.1 20.05 76.75 23.7 71.6 27.85 65.05 29.05 51.3 31.4 38.45 25.5 31.5 22.35 27.4 16.0 20.25 4.85 18.5 -8.25 17.5 -20.1 20.25 -31.45 21.0 -34.55 22.75 -37.3 29.7 -48.2 42.5 -51.0 M-101.85 182.6 Q-111.9 171.5 -111.55 156.3 -111.4 150.0 -109.35 143.85 -101.05 118.8 -84.25 98.5 L-82.15 100.9 Q-77.45 106.0 -71.75 109.75 -67.1 117.2 -62.0 124.1 -55.9 132.35 -47.4 138.15 -28.75 150.75 -9.0 161.75 -9.7 175.35 -14.4 188.05 -16.6 194.15 -22.3 197.5 -29.45 201.6 -37.65 202.15 -66.45 204.8 -91.45 190.85 -97.35 187.6 -101.85 182.6 M16.85 192.4 Q9.3 179.7 8.25 165.0 L54.0 160.75 61.25 159.25 82.5 144.0 105.25 134.5 Q107.85 144.25 109.6 154.15 111.4 164.4 106.4 173.55 102.65 180.4 96.6 185.2 86.45 193.2 74.0 197.2 59.9 201.55 45.05 201.65 30.95 202.45 19.25 194.75 17.7 193.8 16.85 192.4" fill="#e58508" fill-rule="evenodd" stroke="none"/>
    <path d="M98.0 -20.5 L98.5 -8.5 96.5 23.75 95.0 37.0 91.5 56.25 66.75 46.5 40.75 37.25 28.75 34.5 Q27.5 39.25 25.5 37.5 L25.0 39.75 25.25 38.75 26.0 38.75 26.0 40.0 Q25.5 41.75 33.75 50.75 L36.0 52.5 58.0 77.75 92.25 110.75 120.5 131.5 126.25 134.25 126.75 134.0 125.25 133.0 125.5 132.5 139.75 139.25 153.75 144.75 157.75 143.0 Q157.75 141.25 153.5 141.25 L159.75 140.0 165.0 136.5 165.0 135.25 166.25 134.25 161.5 131.5 167.75 130.25 Q168.0 124.75 170.0 125.0 L172.0 115.0 170.75 105.75 170.0 88.25 167.25 62.25 160.5 22.75 161.0 21.5 169.25 73.75 172.25 106.0 174.0 111.0 Q174.25 132.75 163.25 142.5 L161.0 144.0 148.75 147.25 144.0 145.75 136.0 141.25 129.5 138.75 113.25 128.5 105.25 134.5 108.0 141.25 109.75 147.5 110.5 154.0 108.0 153.0 103.0 154.0 101.0 158.0 86.25 168.0 99.0 169.5 Q102.5 170.0 104.75 173.25 L107.25 170.0 109.25 164.0 110.0 163.5 109.75 165.75 105.25 176.25 Q99.25 184.75 92.0 189.25 L85.5 192.75 75.0 197.0 56.0 201.0 41.5 201.5 32.75 200.75 23.75 198.25 Q13.0 199.0 8.5 165.25 L-1.25 164.75 -9.0 161.75 Q-11.25 188.5 -18.5 195.25 L-25.0 199.25 -33.25 201.5 -43.0 202.5 Q-93.25 203.25 -109.75 169.75 L-111.25 165.75 -110.75 164.0 Q-106.25 179.75 -87.0 189.0 L-77.5 192.75 -67.75 195.25 -57.5 196.5 -57.0 197.5 Q-16.0 198.0 -14.5 186.0 -14.0 179.5 -36.75 173.25 L-62.5 153.75 -75.5 132.25 Q-77.75 129.25 -78.0 125.75 L-86.75 119.25 -91.25 114.0 -93.0 112.5 -94.25 112.5 -84.25 98.5 Q-109.5 66.0 -107.75 54.0 L-108.75 48.25 -108.75 41.0 -106.25 22.75 Q-115.25 24.0 -125.25 36.25 L-135.5 38.5 -140.0 38.75 -159.25 29.25 -186.75 3.75 -211.75 -29.25 -211.75 -30.25 -223.75 -48.75 -230.25 -61.0 Q-186.25 18.0 -136.25 35.75 L-135.5 37.5 -134.75 37.5 -135.75 35.75 -127.5 34.25 Q-123.75 29.5 -121.25 29.5 L-121.0 28.25 -124.75 24.75 Q-115.5 18.25 -110.25 18.75 L-83.5 -0.5 -38.0 -30.5 -40.5 -26.5 -66.5 5.5 -76.75 21.0 -80.0 24.75 -80.75 27.0 -88.75 39.0 -95.75 51.5 -100.0 61.5 Q-82.5 89.5 -75.75 88.5 L-61.75 116.0 -35.25 139.0 -1.0 152.75 -0.25 152.5 -0.25 151.5 17.5 153.25 36.75 151.5 40.5 150.5 Q21.25 117.5 30.0 109.0 L40.0 106.25 48.0 106.0 73.5 117.0 Q76.0 116.5 81.75 127.5 L93.5 113.25 89.75 110.5 69.0 89.75 60.5 89.25 43.0 79.0 41.25 77.75 35.0 69.75 Q22.5 58.75 18.75 -2.5 25.75 27.25 58.75 28.75 88.5 22.75 98.0 -20.5 M18.25 -11.0 L19.25 -9.25 19.5 -5.0 18.25 -11.0 M124.0 27.25 L132.25 64.0 135.5 72.75 135.75 75.25 126.5 71.25 Q133.25 66.0 123.0 25.5 L124.0 27.25 M19.5 190.5 Q24.4 194.6 30.8 194.95 L51.75 196.75 Q51.5 194.6 49.9 192.95 L42.75 186.0 Q33.5 186.75 24.35 188.2 22.25 188.35 20.25 189.25 L19.5 190.5" fill="#000000" fill-opacity="0.49803922" fill-rule="evenodd" stroke="none"/>
  </g>
</svg>
