<?xml version="1.0" encoding="UTF-8" standalone="no"?>
<svg xmlns:ffdec="https://www.free-decompiler.com/flash" xmlns:xlink="http://www.w3.org/1999/xlink" ffdec:objectType="shape" height="270.75px" width="344.45px" xmlns="http://www.w3.org/2000/svg">
  <g transform="matrix(1.0, 0.0, 0.0, 1.0, 171.5, 68.05)">
    <path d="M48.5 -50.0 Q45.9 -58.75 49.25 -67.25 63.55 -69.75 77.1 -64.3 80.15 -63.15 83.3 -62.4 93.15 -59.7 102.25 -55.3 105.65 -53.6 105.45 -50.0 105.3 -47.6 104.5 -45.35 102.2 -39.3 97.0 -35.75 88.0 -29.25 73.75 -41.0 58.0 -38.0 48.5 -50.0 M66.25 -44.5 Q75.0 -55.0 59.75 -54.0 56.0 -44.0 66.25 -44.5 M85.0 -47.25 L82.25 -46.0 Q79.0 -36.75 88.5 -37.75 95.5 -40.0 91.5 -46.5 89.25 -48.25 85.0 -47.25" fill="#ffffff" fill-rule="evenodd" stroke="none"/>
    <path d="M48.5 -50.0 Q58.0 -38.0 73.75 -41.0 88.0 -29.25 97.0 -35.75 113.0 -17.0 89.0 17.75 80.15 29.2 66.15 31.3 L58.95 31.05 Q50.6 29.85 42.95 26.25 35.1 22.55 30.9 14.95 24.95 4.25 23.5 -8.0 23.3 -15.95 23.85 -23.75 24.35 -30.7 28.15 -36.4 35.5 -47.25 48.5 -50.0 M13.85 188.75 Q9.3 177.5 8.25 165.25 L33.75 164.55 Q47.1 164.15 60.25 160.75 L82.0 146.0 106.25 136.5 108.45 145.25 Q110.55 153.05 109.9 160.9 109.2 169.05 104.6 175.9 96.25 188.3 82.4 194.1 65.75 201.0 47.75 201.9 31.1 202.9 17.45 193.3 14.95 191.55 13.85 188.75 M-83.25 97.0 L-82.8 97.55 Q-77.4 103.85 -70.75 108.75 -66.5 116.6 -61.45 124.0 -57.4 130.0 -52.5 135.5 L-30.0 153.25 -9.0 162.0 Q-11.2 174.1 -13.9 186.2 -14.25 187.85 -15.0 189.35 -17.85 195.25 -24.0 198.45 -30.2 201.65 -37.05 202.0 -51.0 203.4 -64.75 201.0 -85.2 197.6 -100.4 183.95 -107.65 177.4 -110.05 167.8 -113.45 154.2 -108.45 140.95 -99.45 117.0 -83.25 97.0" fill="#e58508" fill-rule="evenodd" stroke="none"/>
    <path d="M85.0 -47.25 Q89.25 -48.25 91.5 -46.5 95.5 -40.0 88.5 -37.75 79.0 -36.75 82.25 -46.0 L85.0 -47.25 M66.25 -44.5 Q56.0 -44.0 59.75 -54.0 75.0 -55.0 66.25 -44.5" fill="#000000" fill-rule="evenodd" stroke="none"/>
    <path d="M23.75 -4.25 Q24.45 -4.75 24.1 -6.95 L24.75 -4.0 23.75 -4.25 M103.5 -3.75 L101.25 29.5 Q98.5 49.8 94.0 69.75 L62.0 60.75 32.75 54.5 Q29.85 44.35 27.5 34.15 23.25 15.4 24.25 -3.5 25.95 6.25 31.5 14.45 36.05 21.25 43.25 24.95 48.55 27.8 54.55 29.4 61.55 31.3 68.15 29.0 80.4 24.7 88.3 14.3 100.3 -1.4 103.5 -21.0 L103.5 -3.75 M24.5 59.75 L24.75 59.0 25.5 59.0 Q24.55 59.7 26.7 61.75 L24.5 59.75 M25.25 55.5 L27.25 54.0 25.5 57.75 25.25 55.5 M127.0 30.75 L127.0 34.0 128.0 36.25 132.5 61.25 133.5 63.85 136.7 76.25 138.25 83.5 122.75 78.75 132.25 66.5 126.0 30.0 127.0 30.75 M162.75 23.75 L163.25 22.5 Q182.75 133.75 163.0 146.25 L160.75 147.75 149.25 152.0 128.75 145.75 120.0 141.25 109.0 134.25 106.25 136.75 109.5 146.75 110.75 157.0 109.5 155.5 103.75 155.75 101.25 159.5 79.0 175.0 91.0 175.0 Q98.0 175.0 100.0 178.5 L107.0 170.5 109.25 164.25 110.0 163.5 109.75 165.75 Q102.25 186.5 84.5 193.25 L75.0 197.0 56.0 201.0 41.5 201.5 32.75 200.75 23.75 198.25 Q13.0 199.0 8.5 165.25 L-1.25 164.75 -8.5 162.0 -12.5 183.25 Q-14.5 190.75 -18.5 195.25 L-25.0 199.25 -33.25 201.5 -43.0 202.5 Q-79.25 205.0 -105.75 178.25 L-109.75 169.75 Q-112.25 164.75 -110.75 164.0 -106.75 187.5 -57.0 197.5 -15.5 198.25 -14.5 185.25 -14.25 179.0 -37.75 172.25 L-62.75 152.25 -76.0 128.75 -77.25 124.25 Q-88.0 117.0 -91.0 111.5 L-93.25 110.75 -83.0 97.0 Q-110.75 59.75 -106.75 46.25 L-107.25 42.75 -104.0 19.75 -102.25 15.75 Q-114.5 19.0 -123.0 26.25 L-132.0 27.75 -138.0 27.0 -150.25 15.75 -153.25 10.75 -163.25 -13.25 -169.75 -42.25 -171.5 -58.95 Q-163.2 7.05 -128.75 22.0 L-127.25 21.5 -124.75 22.75 Q-122.25 22.5 -122.75 20.0 L-120.5 20.5 -119.75 21.0 -118.25 20.0 -120.0 16.0 -116.75 16.0 -95.5 1.5 -93.5 0.75 -110.5 12.75 -99.5 6.25 -91.0 3.25 -64.5 -13.75 -33.25 -32.5 -33.0 -32.0 -41.5 -23.25 -44.5 -19.0 -46.75 -17.25 -48.0 -15.0 -64.0 2.75 -78.25 21.25 -94.5 45.5 -100.0 57.0 -95.75 66.75 -84.0 81.25 -75.5 88.75 -75.0 89.0 -74.5 87.0 -63.75 108.75 -61.5 114.75 -35.25 138.5 -2.0 152.5 -0.75 152.75 -0.5 151.5 16.25 153.75 27.0 153.0 Q22.5 136.25 38.75 132.25 42.75 127.75 75.25 136.5 L88.5 121.25 57.5 94.5 40.5 77.5 39.4 76.15 Q99.05 138.9 156.0 148.5 L155.5 147.5 152.75 147.25 160.25 144.0 163.75 141.25 164.0 139.0 161.0 136.75 Q167.0 137.75 171.0 121.5 L168.5 68.25 162.75 23.75 M35.0 196.0 Q29.5 182.5 20.0 190.75 24.0 194.25 26.0 194.25 L35.0 196.0 M-117.75 17.5 L-117.25 16.5 -118.0 16.5 -119.0 17.5 -117.75 17.5" fill="#000000" fill-opacity="0.49803922" fill-rule="evenodd" stroke="none"/>
  </g>
</svg>
