<?xml version="1.0" encoding="UTF-8" standalone="no"?>
<svg xmlns:ffdec="https://www.free-decompiler.com/flash" xmlns:xlink="http://www.w3.org/1999/xlink" ffdec:objectType="shape" height="274.3px" width="367.65px" xmlns="http://www.w3.org/2000/svg">
  <g transform="matrix(1.0, 0.0, 0.0, 1.0, 194.25, 71.7)">
    <path d="M60.25 -52.75 L57.25 -51.25 Q54.75 -41.75 64.25 -43.5 71.0 -46.5 66.5 -52.5 63.0 -54.0 60.25 -52.75 M23.75 -52.0 L22.5 -68.5 Q29.9 -73.45 38.65 -70.75 51.95 -66.7 65.8 -65.0 73.0 -64.15 79.05 -60.2 79.9 -59.7 79.85 -59.05 78.8 -50.15 73.75 -42.5 68.0 -34.75 49.25 -45.5 31.5 -41.5 23.75 -52.0 M41.25 -48.0 Q49.75 -58.25 34.0 -57.0 32.25 -45.75 41.25 -48.0" fill="#ffffff" fill-rule="evenodd" stroke="none"/>
    <path d="M60.25 -52.75 Q63.0 -54.0 66.5 -52.5 71.0 -46.5 64.25 -43.5 54.75 -41.75 57.25 -51.25 L60.25 -52.75 M41.25 -48.0 Q32.25 -45.75 34.0 -57.0 49.75 -58.25 41.25 -48.0" fill="#000000" fill-rule="evenodd" stroke="none"/>
    <path d="M23.75 -52.0 Q31.5 -41.5 49.25 -45.5 68.0 -34.75 73.75 -42.5 92.0 -31.75 72.25 10.0 67.95 16.85 61.65 21.65 51.85 29.1 39.55 27.9 29.7 27.2 21.55 22.5 17.1 19.85 13.7 15.75 5.6 5.75 3.25 -6.75 0.9 -19.8 3.9 -32.3 4.6 -35.2 6.15 -37.8 12.45 -48.1 23.75 -52.0 M14.6 190.05 Q9.3 178.0 8.25 164.75 L33.25 164.0 62.25 155.25 82.25 139.25 83.0 138.5 Q93.3 134.6 102.75 129.0 105.5 136.05 107.9 143.2 110.45 150.8 110.1 158.75 109.6 169.4 103.5 178.0 99.9 183.15 94.9 186.55 71.85 202.3 43.6 201.75 L37.85 201.6 Q26.3 200.1 17.1 193.2 15.45 192.0 14.6 190.05 M-107.25 137.35 Q-100.3 118.55 -87.5 103.25 -84.1 107.05 -80.0 110.05 L-74.25 114.0 Q-65.25 125.35 -54.55 135.4 -34.85 153.8 -9.25 162.0 -9.8 175.55 -14.35 188.2 -15.35 191.05 -17.4 193.35 -23.55 200.1 -32.8 201.4 -60.3 205.6 -85.65 194.25 -96.5 189.4 -103.9 180.15 -112.5 169.3 -111.3 155.65 -110.5 146.25 -107.25 137.35" fill="#e58508" fill-rule="evenodd" stroke="none"/>
    <path d="M125.0 43.25 L127.25 46.75 135.75 68.0 122.25 67.75 Q130.0 61.75 116.25 20.5 L117.5 22.25 125.0 43.25 M166.25 64.25 L162.75 50.0 Q163.75 50.0 164.5 54.25 L170.5 83.5 169.5 82.75 166.25 64.25 M82.25 -24.5 L82.5 -25.0 83.0 -23.75 82.75 -4.0 81.25 11.75 81.25 20.0 77.5 48.25 Q69.25 74.75 62.75 74.5 L62.25 76.75 Q61.5 77.75 63.5 80.25 L65.25 80.5 68.25 84.25 Q69.25 83.0 74.0 87.0 L92.5 101.5 117.25 115.5 147.0 120.5 Q162.75 119.25 147.5 114.75 L152.75 113.25 Q158.25 114.75 164.5 112.25 L165.25 112.0 164.0 110.25 166.75 108.5 Q168.0 102.0 170.25 102.5 L170.75 96.25 170.75 95.5 172.0 96.0 170.0 85.25 170.0 84.5 170.75 84.5 Q180.0 108.5 157.25 126.5 L152.5 128.0 148.0 127.75 139.25 128.75 114.0 120.25 107.75 126.0 102.75 128.75 106.25 136.5 109.75 148.0 109.25 147.25 106.75 147.0 100.25 149.5 99.5 153.0 72.75 173.75 38.75 185.5 Q22.0 185.5 19.0 188.5 23.0 201.25 71.0 193.25 97.75 188.0 109.5 163.5 109.5 176.25 92.25 189.0 72.25 203.0 33.0 200.75 8.75 198.5 8.5 164.75 L0.5 165.0 -8.75 162.25 -12.5 183.25 Q-14.5 190.75 -18.5 195.25 L-25.0 199.25 -33.25 201.5 -43.0 202.5 Q-92.75 204.5 -110.75 167.25 L-111.25 165.75 -110.75 164.0 -107.75 171.75 -102.5 178.25 -95.25 184.25 -87.0 189.0 -77.5 192.75 -67.5 195.25 Q-26.75 203.5 -15.0 185.5 -16.0 179.25 -36.0 175.5 L-63.75 156.75 -81.25 129.75 -89.25 124.25 -96.0 117.75 -97.25 117.75 -93.75 111.25 -87.75 103.0 -99.75 89.75 Q-109.75 77.0 -112.0 63.0 -117.0 46.5 -111.0 18.75 -122.25 22.75 -132.5 34.5 L-138.25 37.5 -143.5 37.75 -147.5 36.25 -155.5 35.0 Q-173.75 31.25 -194.25 -19.0 -154.25 29.75 -141.75 26.25 L-133.5 25.5 -132.5 25.0 -132.25 23.25 -126.75 22.5 Q-127.75 20.75 -124.0 19.75 L-122.0 19.75 -121.5 20.25 -78.5 -10.0 -78.0 -9.75 -80.5 -8.25 -80.25 -7.75 -55.5 -25.0 -56.0 -23.5 -57.25 -22.75 -81.25 7.75 -89.75 21.0 -92.25 23.75 -94.25 28.0 -101.5 38.75 -101.25 39.5 -102.75 41.25 -106.75 50.0 -107.5 50.25 -108.75 54.25 -100.75 70.75 -87.0 85.75 -79.5 91.0 -78.75 91.25 -73.75 102.75 -69.5 108.75 -64.0 118.75 -36.75 140.0 -29.75 143.0 -2.5 152.25 15.25 152.5 38.75 149.25 72.5 134.0 Q72.0 132.75 76.75 130.0 L93.75 107.0 82.0 98.25 72.5 90.0 63.0 80.0 61.5 80.0 54.25 85.0 47.5 85.5 44.5 84.25 Q36.5 83.75 35.25 82.75 L27.25 78.0 Q7.0 58.0 3.75 12.5 L2.75 0.75 3.0 -7.0 Q13.25 28.25 44.25 27.0 76.75 18.75 82.25 -24.5" fill="#000000" fill-opacity="0.49803922" fill-rule="evenodd" stroke="none"/>
  </g>
</svg>
