<?xml version="1.0" encoding="UTF-8" standalone="no"?>
<svg xmlns:ffdec="https://www.free-decompiler.com/flash" xmlns:xlink="http://www.w3.org/1999/xlink" ffdec:objectType="shape" height="274.5px" width="370.0px" xmlns="http://www.w3.org/2000/svg">
  <g transform="matrix(1.0, 0.0, 0.0, 1.0, 199.25, 72.0)">
    <path d="M-1.0 -51.5 L-3.75 -68.5 Q-1.75 -70.0 0.7 -70.6 10.75 -73.3 21.0 -70.7 24.0 -69.95 27.0 -69.9 38.45 -69.6 49.9 -66.8 52.8 -66.2 54.6 -64.15 55.05 -63.65 54.9 -63.05 53.1 -54.85 49.75 -47.0 36.75 -38.5 24.5 -47.25 0.0 -42.75 -1.0 -51.5 M34.0 -55.25 L31.5 -53.25 Q30.75 -50.0 33.0 -47.25 L36.5 -46.25 Q47.5 -48.25 39.25 -56.25 L34.0 -55.25 M15.0 -48.75 Q25.0 -59.25 8.0 -57.25 6.0 -48.25 15.0 -48.75" fill="#ffffff" fill-rule="evenodd" stroke="none"/>
    <path d="M49.75 -47.0 Q69.25 -34.5 56.25 -1.25 L54.5 3.5 Q51.5 10.15 47.0 15.85 44.8 18.6 41.75 20.45 30.4 27.25 17.0 26.25 1.0 25.1 -8.8 12.35 -14.05 5.45 -16.0 -3.0 L-16.5 -3.5 -16.75 -5.75 -17.0 -6.5 Q-26.0 -41.0 -1.0 -51.5 0.0 -42.75 24.5 -47.25 36.75 -38.5 49.75 -47.0 M-106.5 135.35 Q-99.6 122.35 -92.25 109.5 -84.95 115.85 -76.5 120.5 L-63.0 138.25 -34.5 155.5 Q-30.5 157.1 -26.35 158.2 L-9.25 162.5 Q-9.35 178.25 -16.3 192.35 L-17.3 193.65 Q-24.25 199.95 -33.1 201.35 -46.9 203.45 -60.8 201.3 -80.3 198.35 -96.4 186.95 -110.45 176.9 -111.95 159.55 -112.7 151.2 -109.95 143.3 -108.55 139.3 -106.5 135.35 M8.25 164.75 L34.75 161.5 Q44.75 157.5 53.75 151.9 68.75 142.5 82.75 131.5 L87.25 129.1 Q93.2 125.25 99.25 121.75 104.5 134.6 108.95 147.75 111.15 154.3 110.2 161.1 109.25 167.7 106.2 173.45 100.3 184.6 89.1 190.55 65.25 203.0 38.3 201.45 26.15 200.35 16.6 193.2 15.55 192.4 14.95 191.15 9.35 178.6 8.25 164.75" fill="#e58508" fill-rule="evenodd" stroke="none"/>
    <path d="M15.0 -48.75 Q6.0 -48.25 8.0 -57.25 25.0 -59.25 15.0 -48.75 M34.0 -55.25 L39.25 -56.25 Q47.5 -48.25 36.5 -46.25 L33.0 -47.25 Q30.75 -50.0 31.5 -53.25 L34.0 -55.25" fill="#000000" fill-rule="evenodd" stroke="none"/>
    <path d="M-18.5 -14.25 Q-12.75 26.75 27.0 25.5 55.75 19.0 61.5 -25.5 60.75 77.0 28.75 83.5 -15.75 92.75 -18.5 -14.25 M-124.25 15.5 L-123.25 15.0 -123.75 15.75 -124.25 15.5 M138.75 58.25 L137.75 56.75 137.25 57.25 136.5 61.5 138.75 58.25 M166.5 64.0 L168.5 58.25 168.25 52.5 Q166.25 51.0 164.0 56.25 L165.25 51.25 Q168.25 49.75 168.0 47.0 L169.5 53.75 170.75 67.75 166.0 82.0 Q164.0 83.75 162.0 91.25 L156.5 98.0 Q144.0 112.5 121.25 100.75 103.75 121.75 99.25 121.5 L107.25 139.5 105.5 139.5 97.0 143.5 96.5 147.0 72.5 169.5 40.75 182.5 22.25 185.5 Q17.25 187.75 17.25 189.0 33.25 201.75 71.0 193.25 97.75 188.0 109.5 163.5 111.0 165.25 105.25 176.0 L97.25 185.25 Q69.75 205.0 33.25 200.75 8.5 198.5 8.5 164.75 L3.5 165.25 -8.75 162.75 -12.5 183.5 Q-15.5 192.5 -18.5 195.25 L-25.0 199.25 -33.25 201.5 -43.0 202.5 Q-94.25 201.0 -107.75 174.25 L-110.75 167.25 -111.0 164.0 Q-106.5 187.5 -57.0 197.5 -18.5 198.0 -15.5 187.25 -16.25 180.75 -35.25 178.0 L-63.75 161.5 -68.25 158.25 -86.25 135.0 -94.75 129.75 -99.5 125.5 -101.5 125.0 -100.75 122.75 -92.25 109.5 Q-116.0 90.0 -121.0 63.0 -124.5 37.75 -119.0 20.25 L-132.0 28.75 -134.5 34.0 -138.25 35.75 -138.25 36.75 -136.75 36.5 -136.75 37.25 -141.75 42.25 -148.0 45.25 -151.75 48.0 -157.5 50.25 Q-187.75 55.75 -199.25 39.0 -176.25 46.75 -143.75 33.5 -138.0 31.25 -135.25 24.0 L-125.75 16.5 -124.5 16.25 Q-127.5 17.5 -130.5 21.75 L-116.0 12.5 -115.75 13.25 -77.75 -15.0 Q-127.0 46.0 -111.5 62.0 -103.25 83.75 -82.0 95.25 L-66.25 122.25 -56.5 130.0 -36.0 143.5 -2.25 152.5 Q38.0 158.0 80.0 119.5 L90.5 102.75 Q93.25 99.5 90.75 94.0 L97.25 89.25 113.5 71.5 123.0 54.0 117.5 36.25 107.25 10.0 108.25 10.5 116.5 23.25 119.0 25.75 140.0 55.25 140.75 55.5 Q144.25 49.0 147.5 47.5 115.5 89.75 119.5 98.75 143.25 95.75 161.0 75.5 L162.5 73.25 160.5 72.25 166.5 64.0" fill="#000000" fill-opacity="0.49803922" fill-rule="evenodd" stroke="none"/>
  </g>
</svg>
