<?xml version="1.0" encoding="UTF-8" standalone="no"?>
<svg xmlns:ffdec="https://www.free-decompiler.com/flash" xmlns:xlink="http://www.w3.org/1999/xlink" ffdec:objectType="shape" height="368.1px" width="292.15px" xmlns="http://www.w3.org/2000/svg">
  <g transform="matrix(1.0, 0.0, 0.0, 1.0, 147.45, 146.95)">
    <path d="M33.75 5.0 L33.75 4.75 34.0 4.25 33.75 5.0" fill="#ffffff" fill-rule="evenodd" stroke="none"/>
    <path d="M45.3 -119.95 Q63.45 -101.05 79.05 -79.95 93.9 -59.9 105.85 -38.1 111.05 -28.65 115.55 -18.65 119.5 -9.8 122.6 -0.55 126.25 10.25 127.55 21.65 128.25 27.6 129.45 33.15 L130.25 35.9 Q138.4 58.5 144.3 88.15 L144.3 87.9 144.65 92.25 Q144.95 94.6 143.45 96.4 L126.9 116.7 107.5 140.25 53.25 201.0 33.9 221.0 33.45 221.15 32.55 220.95 Q29.55 220.45 27.5 218.0 L35.5 200.75 84.5 123.5 82.5 124.25 81.0 125.75 80.5 126.5 79.5 127.5 78.75 128.5 64.75 144.5 35.25 159.25 8.25 165.0 5.25 165.25 -18.0 162.5 -32.5 159.5 Q-41.85 154.9 -51.25 150.25 L-16.75 192.0 -10.75 201.5 -14.0 205.25 -15.75 205.75 -25.5 199.25 -105.5 133.25 -125.3 115.25 -145.55 96.3 -146.35 95.35 Q-148.1 92.6 -147.1 89.4 -146.65 87.85 -146.5 86.25 L-145.75 80.3 Q-138.45 53.3 -129.8 26.75 -128.0 21.25 -126.9 15.55 -124.15 1.5 -119.1 -11.95 L-114.85 -22.4 Q-104.05 -46.95 -87.75 -68.4 -76.8 -82.85 -65.35 -97.1 -56.0 -108.7 -45.75 -119.45 -38.85 -126.7 -31.25 -133.1 -24.1 -139.1 -16.0 -143.45 -9.1 -147.15 -1.25 -146.95 2.25 -146.85 5.65 -145.65 28.4 -137.55 45.3 -119.95 M33.75 5.0 L34.0 4.25 33.75 4.75 33.75 5.0" fill="#2e47aa" fill-rule="evenodd" stroke="none"/>
  </g>
</svg>
