<?xml version="1.0" encoding="UTF-8" standalone="no"?>
<svg xmlns:ffdec="https://www.free-decompiler.com/flash" xmlns:xlink="http://www.w3.org/1999/xlink" ffdec:objectType="shape" height="357.95px" width="296.75px" xmlns="http://www.w3.org/2000/svg">
  <g transform="matrix(1.0, 0.0, 0.0, 1.0, 144.5, 173.4)">
    <path d="M75.3 -99.85 L87.6 -81.6 Q101.35 -60.65 112.7 -38.45 131.1 -2.5 147.0 34.75 L147.75 36.5 148.05 37.25 148.45 38.25 Q150.45 42.65 150.95 47.3 L152.25 63.0 144.75 70.5 102.25 127.5 78.55 154.35 Q67.0 167.5 54.75 180.0 L50.0 184.5 49.2 184.55 Q46.3 184.05 44.7 181.55 L44.0 180.5 Q46.85 173.85 50.15 167.45 59.35 149.85 69.0 132.5 L67.25 134.25 39.5 149.0 10.0 158.0 7.5 158.0 -1.0 157.25 6.5 166.25 2.3 171.5 -9.75 166.25 -38.25 149.25 -47.5 146.0 -60.5 138.5 -69.5 129.25 -95.5 114.5 Q-103.05 108.55 -110.4 102.25 L-116.6 96.8 -128.75 85.5 Q-136.3 83.35 -141.85 78.2 -143.55 76.55 -143.75 74.25 L-144.45 64.25 Q-144.65 60.25 -143.4 56.6 -134.0 29.5 -126.0 1.9 L-122.3 -11.65 Q-118.3 -26.85 -112.15 -41.3 -105.8 -56.2 -97.2 -70.25 -87.75 -85.8 -77.9 -100.95 -66.95 -117.8 -54.4 -133.45 -48.05 -141.4 -40.75 -148.75 -34.5 -155.05 -27.6 -160.95 -18.05 -169.15 -6.2 -172.8 L-2.15 -173.4 Q7.2 -172.4 14.9 -167.05 34.25 -153.5 49.15 -134.95 62.85 -117.95 75.3 -99.85" fill="#2e47aa" fill-rule="evenodd" stroke="none"/>
  </g>
</svg>
