<?xml version="1.0" encoding="UTF-8" standalone="no"?>
<svg xmlns:ffdec="https://www.free-decompiler.com/flash" xmlns:xlink="http://www.w3.org/1999/xlink" ffdec:objectType="shape" height="348.0px" width="315.9px" xmlns="http://www.w3.org/2000/svg">
  <g transform="matrix(1.0, 0.0, 0.0, 1.0, 145.2, 197.5)">
    <path d="M77.75 -107.75 Q84.4 -107.05 90.55 -103.9 101.3 -98.5 110.15 -90.35 137.4 -65.15 158.55 -34.5 L170.25 -17.75 Q171.2 -9.05 170.1 -0.6 169.85 1.35 168.85 3.15 162.65 14.5 151.75 22.0 149.45 26.95 144.7 29.9 L139.9 32.8 125.25 40.5 Q124.3 52.95 120.85 64.95 116.2 81.1 105.4 93.95 98.8 101.8 90.0 107.0 L75.75 116.25 75.25 116.75 74.0 118.25 73.75 118.75 68.75 124.5 37.25 143.0 11.0 150.5 -19.25 149.5 -44.5 141.0 -58.5 131.75 -63.5 127.5 Q-76.7 124.55 -87.65 117.25 -91.0 115.0 -94.5 113.0 -107.15 103.25 -116.85 90.6 -127.65 76.7 -129.8 59.35 L-130.5 51.25 Q-135.15 48.6 -138.55 44.5 -142.65 39.6 -143.6 33.15 L-145.15 19.7 Q-145.3 18.15 -144.55 16.7 L-142.75 14.25 Q-138.2 -2.9 -131.25 -19.05 -117.0 -52.15 -99.9 -83.7 -93.4 -95.75 -85.7 -107.2 -80.2 -115.45 -75.4 -124.15 -55.4 -160.45 -23.35 -186.4 -15.55 -192.75 -6.75 -197.5 3.85 -194.25 12.9 -187.8 29.05 -176.25 41.65 -160.7 61.75 -135.8 77.75 -107.75" fill="#2e47aa" fill-rule="evenodd" stroke="none"/>
  </g>
</svg>
