<?xml version="1.0" encoding="UTF-8" standalone="no"?>
<svg xmlns:ffdec="https://www.free-decompiler.com/flash" xmlns:xlink="http://www.w3.org/1999/xlink" ffdec:objectType="shape" height="353.0px" width="348.9px" xmlns="http://www.w3.org/2000/svg">
  <g transform="matrix(1.0, 0.0, 0.0, 1.0, 152.95, 205.5)">
    <path d="M89.6 -114.7 Q102.4 -113.8 114.6 -109.65 L156.25 -94.5 Q162.7 -117.4 170.3 -139.95 171.85 -144.5 176.25 -145.6 179.05 -146.2 181.05 -144.05 183.15 -141.8 184.15 -138.7 186.95 -129.95 189.2 -121.1 L192.8 -106.0 Q194.35 -98.75 195.35 -91.3 196.3 -84.25 195.8 -77.2 195.5 -72.6 192.5 -69.5 193.4 -63.7 191.75 -58.1 190.8 -55.0 189.0 -52.05 185.85 -46.8 181.2 -42.8 177.05 -39.3 172.2 -37.95 171.35 -37.65 170.8 -37.15 166.1 -33.1 160.2 -32.5 155.0 -32.4 151.75 -36.5 L111.25 -45.5 Q116.9 -28.9 120.8 -11.85 124.15 2.95 125.5 18.0 126.9 33.55 124.85 49.1 122.55 66.9 113.15 82.2 104.15 96.9 89.5 106.0 L73.75 115.75 72.5 117.0 72.25 117.5 68.5 121.5 63.5 125.0 41.25 138.0 35.0 141.0 14.5 146.75 7.0 147.5 -19.25 146.75 -46.25 137.5 -60.0 127.5 -85.0 117.5 -94.0 111.75 Q-100.9 107.9 -106.75 102.45 -112.5 97.15 -116.9 90.7 -122.25 82.75 -125.35 73.4 -129.9 59.8 -130.6 45.25 -131.4 28.0 -129.0 11.0 L-130.5 11.25 Q-132.85 11.45 -135.0 10.35 -145.5 4.8 -148.6 -7.1 -149.45 -10.35 -150.75 -13.4 -152.3 -17.15 -152.85 -21.1 -153.25 -23.9 -152.0 -26.45 L-147.3 -35.1 Q-143.5 -41.8 -140.35 -48.8 -131.25 -68.95 -116.65 -85.45 -103.85 -100.05 -86.25 -108.5 -71.35 -140.3 -49.6 -167.9 -31.7 -190.5 -7.25 -205.5 -4.5 -204.4 -1.8 -203.15 9.9 -197.7 19.7 -189.5 37.8 -174.4 51.5 -155.35 65.7 -135.6 77.0 -114.0 L89.6 -114.7" fill="#2e47aa" fill-rule="evenodd" stroke="none"/>
  </g>
</svg>
