<?xml version="1.0" encoding="UTF-8" standalone="no"?>
<svg xmlns:ffdec="https://www.free-decompiler.com/flash" xmlns:xlink="http://www.w3.org/1999/xlink" ffdec:objectType="shape" height="165.75px" width="175.8px" xmlns="http://www.w3.org/2000/svg">
  <g transform="matrix(1.0, 0.0, 0.0, 1.0, 87.7, 0.5)">
    <path d="M86.25 88.75 Q87.3 90.75 87.6 93.0 88.7 100.8 87.3 108.4 85.85 116.5 82.5 124.25 L81.0 125.75 80.5 126.5 79.5 127.5 78.75 128.5 64.75 144.5 35.25 159.25 8.25 165.0 5.25 165.25 -18.0 162.5 -32.5 159.5 Q-41.85 154.9 -51.25 150.25 L-87.7 109.7 -85.25 104.5 -84.75 99.25 Q-77.75 91.0 -71.8 82.05 -64.4 71.0 -58.65 58.95 -53.25 47.6 -48.95 35.85 L-43.95 22.45 Q-40.0 12.35 -35.5 2.5 L-34.5 4.75 Q-24.0 28.0 -1.5 27.75 L1.25 27.75 Q26.5 26.0 33.75 5.0 L33.75 4.75 34.0 4.25 34.5 2.75 34.75 2.5 35.0 1.75 36.0 -0.5 Q40.85 10.85 45.3 22.45 47.75 28.85 50.75 35.0 57.35 48.65 67.1 60.0 78.45 73.15 86.25 88.75" fill="#ffffff" fill-rule="evenodd" stroke="none"/>
  </g>
</svg>
