<?xml version="1.0" encoding="UTF-8" standalone="no"?>
<svg xmlns:ffdec="https://www.free-decompiler.com/flash" xmlns:xlink="http://www.w3.org/1999/xlink" ffdec:objectType="shape" height="182.75px" width="170.5px" xmlns="http://www.w3.org/2000/svg">
  <g transform="matrix(1.0, 0.0, 0.0, 1.0, 80.75, 24.75)">
    <path d="M35.25 -24.75 Q40.35 -12.25 45.05 0.4 47.5 7.1 50.45 13.55 57.8 29.55 67.05 44.6 69.6 48.75 73.05 52.25 81.25 60.65 85.4 71.55 87.55 77.2 88.45 83.15 89.6 90.85 89.75 98.75 L69.0 132.5 67.25 134.25 39.5 149.0 10.0 158.0 7.5 158.0 -1.0 157.25 -3.4 155.15 -25.3 135.1 Q-43.9 118.35 -62.95 102.25 -71.75 94.85 -80.75 87.75 -78.65 85.75 -77.15 83.35 -72.0 75.25 -67.8 66.6 -62.15 55.0 -57.3 43.05 -52.15 30.25 -48.05 17.1 L-43.3 2.75 Q-39.15 -9.4 -34.25 -21.25 -21.5 2.5 0.0 0.75 L0.5 0.5 2.5 0.5 Q25.0 0.5 34.25 -22.5 L34.25 -22.75 34.5 -23.5 35.25 -24.75" fill="#ffffff" fill-rule="evenodd" stroke="none"/>
  </g>
</svg>
