<?xml version="1.0" encoding="UTF-8" standalone="no"?>
<svg xmlns:ffdec="https://www.free-decompiler.com/flash" xmlns:xlink="http://www.w3.org/1999/xlink" ffdec:objectType="shape" height="198.0px" width="173.25px" xmlns="http://www.w3.org/2000/svg">
  <g transform="matrix(1.0, 0.0, 0.0, 1.0, 85.35, 47.5)">
    <path d="M33.75 -47.5 Q39.25 -33.9 44.2 -20.1 L49.0 -7.3 Q54.25 6.0 61.55 18.2 69.85 32.0 78.8 45.45 82.35 50.85 83.9 57.05 87.85 73.1 87.9 89.5 87.9 105.55 75.75 116.25 L75.25 116.75 74.0 118.25 73.75 118.75 68.75 124.5 37.25 143.0 11.0 150.5 -19.25 149.5 -44.5 141.0 -58.5 131.75 -63.5 127.5 Q-70.9 121.0 -76.4 113.2 -81.85 105.45 -85.15 96.3 -85.55 95.15 -85.15 94.15 L-84.75 93.1 -83.7 90.4 Q-83.35 89.55 -83.25 88.7 L-82.75 82.5 Q-79.5 78.5 -76.7 74.2 -74.65 71.0 -73.0 67.5 L-29.4 74.0 -5.0 76.5 8.75 76.0 10.35 74.6 11.05 73.4 11.4 72.0 11.4 70.65 11.25 69.25 -0.7 62.45 -1.05 62.3 -1.8 61.85 Q-15.25 55.5 -28.9 49.6 -44.25 42.85 -59.75 36.5 -55.15 24.35 -51.3 12.0 L-42.3 -17.3 Q-38.25 -30.65 -33.5 -43.75 -21.5 -23.75 0.25 -25.25 L2.75 -25.25 Q24.25 -25.25 33.75 -47.5" fill="#ffffff" fill-rule="evenodd" stroke="none"/>
  </g>
</svg>
