<?xml version="1.0" encoding="UTF-8" standalone="no"?>
<svg xmlns:ffdec="https://www.free-decompiler.com/flash" xmlns:xlink="http://www.w3.org/1999/xlink" ffdec:objectType="shape" height="203.0px" width="174.3px" xmlns="http://www.w3.org/2000/svg">
  <g transform="matrix(1.0, 0.0, 0.0, 1.0, 85.25, 55.5)">
    <path d="M44.0 -27.3 L48.95 -14.0 Q55.0 1.5 63.3 15.85 L77.65 40.9 Q84.35 52.6 87.35 65.75 89.75 76.35 88.8 87.4 87.3 104.45 73.75 115.75 L72.5 117.0 72.25 117.5 68.5 121.5 63.5 125.0 41.25 138.0 35.0 141.0 14.5 146.75 7.0 147.5 -19.25 146.75 -46.25 137.5 -60.0 127.5 -77.25 112.5 -78.1 111.75 -78.75 110.85 -79.75 108.5 -85.25 93.0 -82.75 78.5 Q-79.15 73.75 -76.0 68.7 L-73.5 64.15 Q-71.0 58.85 -68.85 53.5 -59.25 29.5 -50.8 5.05 -48.4 -1.9 -46.5 -9.0 -38.75 -13.75 -31.45 -19.1 -20.65 -27.0 -10.25 -35.5 L-7.0 -34.75 2.75 -34.75 Q25.25 -35.5 33.5 -55.5 39.0 -41.5 44.0 -27.3" fill="#ffffff" fill-rule="evenodd" stroke="none"/>
  </g>
</svg>
