<?xml version="1.0" encoding="UTF-8" standalone="no"?>
<svg xmlns:ffdec="https://www.free-decompiler.com/flash" xmlns:xlink="http://www.w3.org/1999/xlink" ffdec:objectType="shape" height="290.8px" width="280.25px" xmlns="http://www.w3.org/2000/svg">
  <g transform="matrix(1.0, 0.0, 0.0, 1.0, 141.25, 69.55)">
    <path d="M-25.75 -47.75 Q-29.0 -51.8 -30.55 -56.6 -31.75 -60.2 -30.15 -63.6 -28.75 -66.75 -25.2 -67.35 L-4.55 -68.15 0.2 -68.25 Q9.25 -70.2 18.75 -69.25 25.9 -69.05 30.0 -63.75 29.5 -59.5 28.25 -55.5 27.1 -51.9 25.25 -48.5 18.5 -38.75 -0.25 -46.0 -18.0 -38.75 -25.75 -47.75 M8.5 -55.25 Q5.5 -53.5 6.0 -52.5 5.5 -49.0 8.0 -46.75 L12.25 -46.25 Q22.75 -51.75 13.25 -56.25 L8.5 -55.25 M-11.25 -46.25 Q-0.75 -55.5 -15.5 -56.0 -22.75 -47.5 -11.25 -46.25" fill="#ffffff" fill-rule="evenodd" stroke="none"/>
    <path d="M8.5 -55.25 L13.25 -56.25 Q22.75 -51.75 12.25 -46.25 L8.0 -46.75 Q5.5 -49.0 6.0 -52.5 5.5 -53.5 8.5 -55.25 M-11.25 -46.25 Q-22.75 -47.5 -15.5 -56.0 -0.75 -55.5 -11.25 -46.25" fill="#000000" fill-rule="evenodd" stroke="none"/>
    <path d="M-25.75 -47.75 Q-18.0 -38.75 -0.25 -46.0 18.5 -38.75 25.25 -48.5 30.45 -46.0 34.1 -41.5 38.7 -36.05 39.4 -29.05 40.8 -14.45 36.0 -0.5 L35.0 1.75 34.75 2.5 34.5 2.75 34.0 4.25 33.75 4.75 33.75 5.0 Q26.5 26.0 1.25 27.75 L-1.5 27.75 Q-24.0 28.0 -34.5 4.75 L-35.5 2.5 Q-41.0 -11.65 -40.05 -26.7 -39.1 -41.5 -25.75 -47.75 M64.75 144.5 L78.75 128.5 79.5 127.5 80.5 126.5 81.0 125.75 82.5 124.25 84.5 123.5 35.5 200.75 Q24.25 200.5 16.75 193.0 11.5 189.75 8.25 165.0 L35.25 159.25 64.75 144.5 M109.75 147.5 L110.5 154.0 Q111.0 193.0 55.25 201.0 L53.25 201.0 107.5 140.25 109.75 147.5 M-105.5 133.25 L-25.5 199.25 -34.75 201.75 -43.75 202.5 -56.5 202.0 Q-114.0 193.25 -111.75 154.25 L-111.5 153.75 -111.5 153.5 -110.25 145.75 -105.5 133.25 M-9.25 163.5 L-12.75 184.5 Q-15.5 191.5 -16.75 192.0 L-51.25 150.25 Q-41.85 154.9 -32.5 159.5 L-18.0 162.5 -9.25 163.5" fill="#e58508" fill-rule="evenodd" stroke="none"/>
    <path d="M119.75 -8.0 L123.5 4.5 128.5 30.5 123.25 17.75 Q125.25 12.75 119.0 -8.5 L119.75 -8.0 M105.0 95.25 L100.5 102.5 85.25 123.25 85.25 124.5 83.75 125.75 74.5 140.0 73.25 140.75 73.5 141.5 55.5 168.5 53.75 172.5 Q53.3 172.55 52.95 172.95 L53.35 172.25 52.9 173.0 Q52.4 173.45 52.05 174.3 50.35 176.8 50.5 175.5 L40.0 180.75 Q24.0 182.0 18.0 187.0 18.5 195.5 39.0 195.75 L36.0 201.0 Q11.75 204.25 8.25 165.0 L5.25 165.25 -9.0 163.5 -12.75 184.5 Q-15.25 192.0 -17.0 192.0 -16.0 188.5 -18.0 185.75 L-22.0 183.5 -23.5 183.75 -38.25 165.25 -67.5 131.75 -107.25 90.0 -115.5 82.0 Q-118.75 82.0 -121.0 84.0 L-121.25 83.5 -119.25 82.0 -114.0 71.5 -114.0 70.25 -81.5 6.0 -80.75 3.25 -80.5 6.5 -86.75 26.75 -93.5 52.75 -100.25 84.5 -96.75 88.75 -83.0 97.75 Q-87.25 103.5 -68.25 124.75 L-39.0 144.75 Q-37.5 146.25 -32.0 147.25 L0.75 153.5 37.75 145.25 51.75 137.25 68.5 126.25 86.0 103.0 Q90.5 94.75 87.0 91.5 L92.75 88.0 98.75 82.25 98.25 77.25 92.0 49.75 83.5 18.25 80.5 9.75 79.75 5.0 80.75 6.0 97.5 39.25 115.0 76.75 121.5 84.75 118.75 85.25 Q117.5 82.5 114.25 83.5 L109.0 91.0 105.0 95.25 M138.9 95.25 L139.0 98.25 127.5 116.75 101.75 146.5 102.0 147.0 69.75 182.75 58.75 195.0 64.15 194.15 Q74.75 192.25 84.8 188.6 103.15 181.75 109.5 163.5 108.75 173.95 100.9 181.4 81.25 199.9 53.25 201.0 L40.25 214.0 40.0 213.5 70.75 179.5 70.5 179.0 77.25 172.0 77.0 171.5 80.25 168.5 80.0 168.0 83.25 165.0 83.0 164.5 86.25 161.5 86.0 161.0 89.25 158.0 89.0 157.5 117.5 124.5 134.25 98.75 135.0 98.5 134.4 99.3 Q133.1 100.75 133.1 102.5 L133.15 102.6 Q136.15 99.95 137.0 96.25 L138.9 95.25 M51.85 174.75 L51.5 176.0 51.05 176.15 51.85 174.75 M133.0 104.0 L133.5 104.25 134.25 102.5 133.0 104.0 M132.25 105.0 L132.75 105.25 133.25 104.5 132.25 105.0 M40.2 214.05 L33.0 221.25 31.25 220.5 40.2 214.05 M2.5 85.75 Q-39.75 90.25 -40.25 -20.25 -36.5 25.75 1.25 27.5 38.25 22.0 40.0 -21.5 39.25 84.75 2.5 85.75 M-138.25 100.25 L-138.0 99.75 -140.25 99.25 Q-138.25 96.5 -141.25 91.5 L-117.5 118.5 -62.0 167.0 -28.0 195.0 -23.75 199.25 -13.75 204.75 -15.0 205.75 -25.0 199.25 Q-33.25 203.25 -56.75 202.0 L-66.0 200.5 Q-86.0 196.75 -100.25 184.75 L-105.75 178.25 -109.75 169.75 -111.25 164.0 -109.25 167.25 -108.25 170.75 Q-103.85 179.25 -89.0 187.75 L-87.0 189.0 Q-55.25 202.25 -31.0 196.0 L-29.75 195.75 -49.25 180.5 -123.25 117.75 -138.25 100.25" fill="#000000" fill-opacity="0.49803922" fill-rule="evenodd" stroke="none"/>
  </g>
</svg>
