<?xml version="1.0" encoding="UTF-8" standalone="no"?>
<svg xmlns:ffdec="https://www.free-decompiler.com/flash" xmlns:xlink="http://www.w3.org/1999/xlink" ffdec:objectType="shape" height="300.15px" width="266.0px" xmlns="http://www.w3.org/2000/svg">
  <g transform="matrix(1.0, 0.0, 0.0, 1.0, 144.75, 97.55)">
    <path d="M-25.75 -72.75 L-27.3 -74.55 Q-31.05 -78.9 -30.95 -84.45 -30.9 -87.1 -31.25 -89.75 -29.75 -91.4 -27.95 -92.45 -24.0 -94.65 -19.6 -95.7 -10.2 -98.2 -1.25 -95.25 11.0 -99.95 22.85 -95.1 25.0 -94.25 26.7 -92.7 27.75 -91.65 28.75 -87.0 29.75 -82.4 23.75 -74.5 15.75 -66.25 -0.75 -73.0 L-13.0 -69.25 Q-25.25 -69.25 -25.75 -72.75 M7.75 -83.25 L5.25 -80.5 Q4.5 -77.25 7.5 -74.5 L11.5 -74.0 Q20.25 -76.5 13.75 -84.25 9.75 -84.75 7.75 -83.25 M-16.0 -83.5 Q-22.75 -74.25 -11.5 -73.5 -0.75 -83.25 -16.0 -83.5" fill="#ffffff" fill-rule="evenodd" stroke="none"/>
    <path d="M7.75 -83.25 Q9.75 -84.75 13.75 -84.25 20.25 -76.5 11.5 -74.0 L7.5 -74.5 Q4.5 -77.25 5.25 -80.5 L7.75 -83.25 M-16.0 -83.5 Q-0.75 -83.25 -11.5 -73.5 -22.75 -74.25 -16.0 -83.5" fill="#000000" fill-rule="evenodd" stroke="none"/>
    <path d="M23.75 -74.5 Q30.4 -70.55 34.55 -64.2 38.55 -58.15 38.95 -50.9 39.65 -37.5 35.25 -24.75 L34.5 -23.5 34.25 -22.75 34.25 -22.5 Q25.0 0.5 2.5 0.5 L0.5 0.5 0.0 0.75 Q-21.5 2.5 -34.25 -21.25 L-39.0 -34.65 Q-40.45 -38.8 -40.55 -43.1 -41.0 -61.65 -25.75 -72.75 -25.25 -69.25 -13.0 -69.25 L-0.75 -73.0 Q15.75 -66.25 23.75 -74.5 M-111.5 153.5 Q-113.5 146.0 -95.5 114.5 L-69.5 129.25 -60.5 138.5 -47.5 146.0 -38.25 149.25 -9.75 166.25 Q-12.5 190.25 -18.25 194.25 L-19.75 196.0 -23.0 197.75 Q-29.75 203.5 -56.5 202.0 -114.0 193.25 -111.75 154.25 L-111.5 153.75 -111.5 153.5 M67.25 134.25 L69.0 132.5 Q59.35 149.85 50.15 167.45 46.85 173.85 44.0 180.5 L44.7 181.55 Q46.3 184.05 49.2 184.55 L50.0 184.5 54.75 180.0 Q67.0 167.5 78.55 154.35 L102.25 127.5 107.75 140.5 109.75 147.75 110.5 154.0 Q111.0 193.0 55.25 201.0 30.5 204.25 16.75 193.0 10.75 190.75 7.5 158.0 L10.0 158.0 39.5 149.0 67.25 134.25" fill="#e58508" fill-rule="evenodd" stroke="none"/>
    <path d="M79.0 -4.25 L76.5 -9.75 76.25 -12.5 87.75 8.75 89.25 10.25 111.0 47.25 112.25 48.0 Q111.5 49.25 116.25 54.75 L116.0 55.25 117.0 55.75 116.5 56.25 117.5 56.75 Q120.25 54.0 121.25 55.25 L103.5 80.0 89.25 102.0 85.5 106.5 85.5 107.5 61.75 145.5 49.5 168.5 40.75 173.0 18.25 177.5 15.25 179.25 Q12.75 181.0 13.25 182.75 13.0 197.5 56.25 196.5 99.75 189.0 110.0 164.5 105.75 195.0 47.5 201.5 L33.25 200.75 Q21.75 198.5 18.0 194.75 10.5 190.5 8.0 158.75 7.25 157.0 -1.25 157.5 L-16.0 143.75 3.75 146.0 41.0 137.75 Q76.5 121.25 88.75 89.75 90.0 91.5 94.25 87.75 L101.25 80.0 99.5 69.25 93.0 43.75 79.5 -0.75 Q77.75 -3.75 79.0 -4.25 M0.0 0.5 Q37.9 -3.95 38.75 -45.4 39.25 42.0 3.25 42.5 -35.25 48.25 -40.0 -42.25 -31.5 -0.25 0.0 0.5 M-76.5 -12.25 Q-79.25 -5.75 -78.25 -4.5 L-79.0 -3.75 -87.75 30.0 -96.25 66.25 Q-95.5 67.0 -97.75 73.25 L-96.75 75.0 -116.0 60.75 Q-112.0 63.25 -111.25 60.75 L-111.75 60.25 -110.75 59.75 -111.25 58.75 Q-108.5 57.25 -109.75 55.5 L-108.5 55.5 -108.5 54.75 -109.25 54.75 -108.0 54.5 -104.25 45.5 -102.0 42.0 -102.25 41.25 -92.5 23.0 -77.0 -13.0 -76.5 -12.25 M-137.95 72.3 Q-127.9 82.55 -115.5 91.75 L-38.5 145.25 -16.75 159.25 -14.25 160.6 Q-10.85 162.35 -11.1 166.2 -11.65 175.35 -13.2 184.4 -13.85 188.35 -16.3 191.35 -26.1 203.6 -43.0 202.5 -62.0 201.6 -80.15 196.35 -105.0 189.35 -110.85 165.55 -110.05 168.5 -108.45 171.0 -100.95 182.8 -88.05 188.7 -62.5 200.3 -34.7 197.6 -17.55 196.3 -13.5 181.25 -14.25 180.35 -15.15 179.75 -22.1 175.05 -30.75 175.75 L-61.0 162.25 -78.85 143.3 Q-89.25 132.35 -103.15 128.85 -101.65 120.65 -95.25 114.25 -118.4 94.15 -143.25 76.25 -141.5 69.2 -144.75 63.0 L-143.75 63.0 -142.25 65.25 -142.5 73.75 -136.0 75.75 -137.15 74.5 Q-137.85 73.85 -137.95 73.05 L-137.95 72.3 M-65.25 100.0 L-50.75 112.75 -91.25 79.5 -65.25 100.0" fill="#000000" fill-opacity="0.49803922" fill-rule="evenodd" stroke="none"/>
  </g>
</svg>
