<?xml version="1.0" encoding="UTF-8" standalone="no"?>
<svg xmlns:ffdec="https://www.free-decompiler.com/flash" xmlns:xlink="http://www.w3.org/1999/xlink" ffdec:objectType="shape" height="326.25px" width="314.65px" xmlns="http://www.w3.org/2000/svg">
  <g transform="matrix(1.0, 0.0, 0.0, 1.0, 143.75, 123.0)">
    <path d="M14.8 -107.55 L15.0 -108.0 14.75 -113.0 11.75 -115.0 8.0 -114.5 Q2.1 -108.9 5.2 -106.3 6.7 -105.05 10.25 -104.5 13.45 -105.2 14.8 -107.55 M-26.75 -95.75 Q-33.5 -102.8 -32.25 -113.0 -29.65 -115.75 -26.45 -117.55 -17.1 -123.05 -6.25 -121.5 L-2.75 -120.25 Q-1.65 -121.0 -0.2 -121.25 L8.25 -122.75 Q19.6 -124.35 26.0 -115.75 L26.1 -114.5 Q27.45 -105.95 22.0 -98.5 19.5 -91.75 -2.0 -98.0 -19.75 -90.25 -26.75 -95.75 M-18.8 -105.6 Q-17.25 -103.9 -12.75 -103.5 -10.75 -105.75 -9.7 -107.45 -5.4 -114.55 -17.5 -112.75 -21.0 -107.95 -18.8 -105.6" fill="#ffffff" fill-rule="evenodd" stroke="none"/>
    <path d="M14.8 -107.55 Q13.45 -105.2 10.25 -104.5 6.7 -105.05 5.2 -106.3 2.1 -108.9 8.0 -114.5 L11.75 -115.0 14.75 -113.0 15.0 -108.0 14.8 -107.55 M-18.8 -105.6 Q-21.0 -107.95 -17.5 -112.75 -5.4 -114.55 -9.7 -107.45 -10.75 -105.75 -12.75 -103.5 -17.25 -103.9 -18.8 -105.6" fill="#000000" fill-rule="evenodd" stroke="none"/>
    <path d="M-26.75 -95.75 Q-19.75 -90.25 -2.0 -98.0 19.5 -91.75 22.0 -98.5 33.1 -93.25 35.7 -81.0 39.35 -63.95 33.75 -47.5 24.25 -25.25 2.75 -25.25 L0.25 -25.25 Q-21.5 -23.75 -33.5 -43.75 -36.9 -51.95 -39.85 -60.35 -40.65 -62.7 -40.65 -65.1 -40.8 -83.25 -26.75 -95.75 M68.75 124.5 L73.75 118.75 74.0 118.25 75.25 116.75 75.75 116.25 90.0 107.0 100.5 123.5 106.75 137.75 109.5 146.75 110.5 154.0 Q111.0 193.0 55.25 201.0 30.5 204.25 16.75 193.0 9.5 188.75 7.0 150.25 L11.0 150.5 37.25 143.0 68.75 124.5 M-94.5 113.0 Q-91.0 115.0 -87.65 117.25 -76.7 124.55 -63.5 127.5 L-58.5 131.75 -44.5 141.0 -19.25 149.5 -8.5 150.0 Q-11.0 191.0 -18.25 194.25 L-19.75 196.0 -23.0 197.75 Q-29.75 203.5 -56.5 202.0 -114.0 193.25 -111.75 154.25 -112.1 153.75 -111.5 153.75 L-111.5 153.5 Q-114.0 146.75 -94.5 113.0" fill="#e58508" fill-rule="evenodd" stroke="none"/>
    <path d="M37.25 -68.0 Q40.5 2.5 3.5 7.0 -34.25 11.0 -40.25 -62.25 -34.0 -29.0 3.0 -25.25 34.25 -28.5 37.25 -68.0 M102.25 -10.25 L121.5 6.25 148.5 -18.75 Q157.5 -24.75 162.25 -23.75 147.25 -24.25 102.0 31.0 L71.25 -41.5 102.25 -10.25 M169.45 -17.45 L170.0 -18.0 Q167.8 -10.75 170.9 -3.9 159.15 28.1 126.0 40.25 123.05 81.7 90.0 106.75 L97.75 119.5 93.75 120.5 94.0 121.5 90.25 126.5 90.5 127.0 77.5 142.5 77.75 143.0 70.5 149.75 43.25 165.5 Q25.65 166.1 11.0 175.5 15.9 196.8 38.25 196.85 52.2 198.0 65.85 194.85 92.05 189.1 107.6 167.85 109.0 165.9 109.5 163.5 105.7 185.15 84.6 193.45 78.25 195.85 71.85 197.65 44.7 205.7 20.0 193.3 17.1 191.8 15.35 188.8 5.1 171.45 7.5 150.75 L-8.0 150.0 Q-3.6 178.5 -24.2 197.8 -26.1 199.65 -28.85 200.45 -64.8 210.25 -92.45 185.8 -107.1 172.85 -111.75 154.0 -97.8 184.75 -53.0 197.5 -28.3 203.2 -14.0 182.6 -10.25 177.25 -15.05 172.8 -17.2 170.8 -19.9 170.3 L-30.25 169.5 -59.25 157.5 -83.75 134.0 Q-92.6 131.15 -100.25 125.75 L-102.25 126.0 -94.25 113.0 Q-127.3 91.05 -130.25 51.25 -142.05 44.95 -143.75 31.75 -139.0 37.25 -132.9 41.05 -133.0 33.75 -138.75 27.0 -120.65 36.95 -101.25 43.75 -106.65 42.2 -112.25 43.25 L-52.5 61.0 Q-23.85 73.6 7.4 72.95 9.6 72.9 11.15 71.4 1.1 82.1 -14.1 77.35 -17.75 76.15 -21.5 75.5 L-64.0 69.75 -98.25 61.25 -99.0 61.0 -105.0 87.5 -83.5 103.0 Q-86.45 98.1 -84.15 92.95 L-83.5 91.5 Q-75.75 107.3 -62.75 118.75 L-30.25 135.25 6.5 139.25 42.25 130.0 72.75 109.75 77.75 100.75 78.5 100.5 82.75 91.75 83.5 91.5 89.75 78.75 90.75 79.75 91.25 87.5 95.5 84.5 95.25 84.0 98.5 81.0 98.25 80.5 99.75 79.5 99.5 79.0 112.0 62.0 105.0 39.75 Q104.0 39.5 103.2 38.85 102.5 38.25 102.15 37.3 L101.75 36.0 Q122.4 32.95 138.0 17.85 142.6 13.4 147.55 9.4 156.0 2.45 164.0 -5.0 163.5 -12.5 169.45 -17.45 M-74.75 -33.25 L-74.0 -33.5 -75.5 -26.0 -89.75 24.75 -102.25 19.75 -91.25 1.5 -76.0 -29.0 -74.75 -33.25" fill="#000000" fill-opacity="0.49803922" fill-rule="evenodd" stroke="none"/>
  </g>
</svg>
