<?xml version="1.0" encoding="UTF-8" standalone="no"?>
<svg xmlns:ffdec="https://www.free-decompiler.com/flash" xmlns:xlink="http://www.w3.org/1999/xlink" ffdec:objectType="shape" height="340.75px" width="346.8px" xmlns="http://www.w3.org/2000/svg">
  <g transform="matrix(1.0, 0.0, 0.0, 1.0, 152.15, 137.5)">
    <path d="M9.25 -129.25 L6.0 -127.75 3.75 -125.25 6.0 -119.0 10.0 -118.5 10.45 -118.75 Q20.5 -124.85 9.25 -129.25 M-26.5 -104.0 Q-28.9 -107.75 -30.2 -111.8 -31.65 -116.5 -32.0 -121.5 -29.4 -124.4 -26.25 -126.5 -17.2 -132.3 -6.25 -130.5 L-2.75 -129.25 Q4.05 -132.45 11.75 -131.75 21.0 -131.7 25.75 -124.25 L26.05 -122.05 Q26.45 -119.5 25.7 -117.15 24.05 -112.05 22.0 -107.0 19.5 -101.25 -2.0 -106.75 L-15.25 -102.5 Q-24.25 -101.5 -26.5 -104.0 M-14.9 -117.7 L-12.75 -117.5 -12.7 -117.55 Q-2.3 -128.0 -16.75 -127.75 -22.5 -119.1 -14.9 -117.7" fill="#ffffff" fill-rule="evenodd" stroke="none"/>
    <path d="M9.25 -129.25 Q20.5 -124.85 10.45 -118.75 L10.0 -118.5 6.0 -119.0 3.75 -125.25 6.0 -127.75 9.25 -129.25 M-14.9 -117.7 Q-22.5 -119.1 -16.75 -127.75 -2.3 -128.0 -12.7 -117.55 L-12.75 -117.5 -14.9 -117.7" fill="#000000" fill-rule="evenodd" stroke="none"/>
    <path d="M-26.5 -104.0 Q-24.25 -101.5 -15.25 -102.5 L-2.0 -106.75 Q19.5 -101.25 22.0 -107.0 32.0 -99.05 36.35 -87.0 37.75 -83.05 37.7 -78.9 37.55 -66.9 33.5 -55.5 25.25 -35.5 2.75 -34.75 L-7.0 -34.75 -10.25 -35.5 Q-5.0 -39.2 -3.95 -45.0 -3.6 -46.8 -4.85 -47.95 L-31.25 -49.5 -33.0 -52.25 Q-40.65 -64.1 -40.75 -77.8 -40.8 -81.75 -39.3 -85.3 -34.7 -95.9 -26.5 -104.0 M41.25 138.0 L63.5 125.0 68.5 121.5 72.25 117.5 72.5 117.0 73.75 115.75 89.5 106.0 Q113.75 146.75 110.5 154.0 111.0 193.0 55.25 201.0 30.5 204.25 16.75 193.0 9.5 189.75 7.0 147.5 L14.5 146.75 35.0 141.0 41.25 138.0 M-94.0 111.75 L-85.0 117.5 -60.0 127.5 -46.25 137.5 -19.25 146.75 -8.0 147.0 Q-11.0 190.75 -18.25 194.25 L-19.75 196.0 -23.0 197.75 Q-29.75 203.5 -56.5 202.0 -114.0 193.25 -111.75 154.25 L-111.5 153.75 -111.5 153.5 Q-114.25 147.25 -94.0 111.75" fill="#e58508" fill-rule="evenodd" stroke="none"/>
    <path d="M-40.0 -71.0 Q-33.0 -51.0 -29.75 -49.75 L-34.75 -49.25 -37.75 -49.25 -40.0 -71.0 M107.6 170.0 Q109.0 167.2 109.75 164.0 L110.0 165.0 107.6 170.0 M37.5 -76.0 Q39.35 -64.75 38.15 -53.4 37.0 -42.5 33.5 -32.0 27.5 -14.1 9.9 -8.25 -14.1 -0.4 -27.25 -21.25 L-92.0 11.0 -92.25 13.5 -93.0 14.0 Q-100.15 40.6 -106.95 67.5 -107.9 71.3 -107.05 74.6 -102.05 94.35 -82.8 102.35 L-85.25 92.75 -83.75 89.0 -79.5 96.5 Q-57.95 92.4 -38.1 101.5 -30.75 104.9 -23.8 108.95 -7.6 118.6 -4.25 136.25 32.0 130.7 62.8 110.9 67.2 108.1 70.75 104.45 82.55 92.1 89.75 76.0 L90.75 87.25 91.75 87.25 Q118.55 66.3 121.55 32.6 122.0 27.4 120.1 22.8 101.2 -23.25 70.0 -62.25 109.5 -46.7 151.0 -37.75 149.2 -50.0 151.25 -62.5 L153.85 -58.95 155.55 -57.15 Q157.2 -58.1 157.7 -59.65 168.65 -93.45 177.75 -128.25 L180.7 -128.85 Q182.45 -130.65 183.6 -132.95 184.65 -135.1 184.75 -137.5 191.65 -117.35 193.4 -96.0 194.2 -86.6 194.6 -77.3 195.35 -58.55 183.75 -44.8 180.45 -40.85 175.6 -39.35 142.8 -28.95 111.25 -45.5 125.85 -8.4 126.4 31.3 127.05 78.15 89.5 106.0 L97.0 117.75 93.5 118.5 93.25 120.5 Q86.75 128.9 78.7 135.95 49.1 162.15 10.5 173.0 13.8 191.35 32.4 195.7 48.45 199.3 64.7 195.95 89.3 190.7 106.05 172.75 96.55 188.2 79.55 194.9 53.65 205.0 26.5 199.2 20.85 198.15 18.05 193.25 5.9 172.3 7.25 147.75 L-7.5 147.25 Q-4.45 172.7 -18.4 193.95 -20.85 197.7 -25.15 199.2 -49.45 207.4 -74.2 199.05 -101.5 189.95 -111.0 164.3 -93.55 192.95 -60.15 197.4 -49.0 198.9 -37.85 197.95 -18.2 196.5 -12.0 178.25 L-12.0 172.25 Q-71.65 158.75 -91.8 119.45 -106.5 137.05 -111.5 160.5 -111.15 140.85 -100.8 123.95 L-101.25 124.25 -93.75 111.5 -99.7 107.25 Q-108.25 100.85 -113.85 91.85 -136.8 54.85 -128.75 11.25 -133.45 10.85 -137.25 8.15 -154.55 -4.45 -151.75 -27.0 -148.45 -3.45 -128.75 9.75 -128.55 9.15 -128.6 8.55 -129.8 -4.75 -142.5 -12.5 L-138.1 -12.35 Q-128.35 -13.8 -118.75 -12.0 L-125.2 -9.85 Q-126.4 -9.4 -126.95 -8.35 -126.4 -7.6 -125.7 -7.35 L-114.25 -7.0 Q-97.85 -10.25 -81.55 -14.05 -40.3 -23.95 -3.15 -43.9 L-10.0 -35.75 Q1.05 -33.45 11.5 -37.6 37.5 -48.05 37.5 -76.0" fill="#000000" fill-opacity="0.49803922" fill-rule="evenodd" stroke="none"/>
  </g>
</svg>
