<?xml version="1.0" encoding="UTF-8" standalone="no"?>
<svg xmlns:ffdec="https://www.free-decompiler.com/flash" xmlns:xlink="http://www.w3.org/1999/xlink" ffdec:objectType="shape" height="344.35px" width="356.75px" xmlns="http://www.w3.org/2000/svg">
  <g transform="matrix(1.0, 0.0, 0.0, 1.0, 176.25, 137.05)">
    <path d="M108.25 -44.75 L129.25 -16.0 151.5 18.75 166.0 46.75 167.75 53.25 171.5 63.5 175.75 80.0 180.0 138.25 180.5 165.0 Q179.75 183.0 171.0 166.0 L164.0 145.0 157.25 120.25 145.0 66.5 144.75 66.0 143.25 64.0 142.5 63.25 141.75 62.25 141.0 61.5 140.5 60.75 139.5 59.75 139.0 59.0 137.75 57.75 137.5 57.25 133.25 52.5 133.25 52.25 132.75 52.0 Q127.0 100.75 97.25 118.25 L88.75 124.5 88.5 124.75 86.0 125.75 Q-8.55 146.7 -92.25 118.5 L-96.25 115.75 Q-123.25 103.0 -127.5 45.75 L-127.75 45.75 -146.0 64.0 -145.5 64.25 -142.25 77.0 -129.25 122.5 -119.5 164.75 -113.75 194.75 -113.75 195.0 -113.5 195.5 Q-109.75 217.0 -123.0 199.25 L-135.0 172.75 -151.25 133.0 -163.75 100.0 -164.0 99.75 -165.5 95.5 -165.75 95.0 -168.25 88.5 -171.0 73.75 Q-178.25 68.75 -175.5 62.5 L-175.25 62.25 -174.75 61.25 -174.5 60.5 -174.0 59.5 -173.75 58.75 -173.5 58.25 -173.25 57.5 -173.25 57.25 -173.0 56.75 -172.75 56.0 -172.5 50.5 Q-171.75 47.5 -167.25 46.25 L-153.0 26.0 -140.75 10.25 -117.0 -18.75 -92.5 -45.0 -91.75 -46.0 Q-18.25 -139.0 14.0 -137.0 55.0 -131.25 105.0 -47.75 L108.25 -44.75 M42.75 19.75 L42.5 20.0 42.5 20.25 42.75 19.75 M-24.75 9.75 L-25.25 9.0 -25.4 9.5 -24.75 9.75" fill="#2e47aa" fill-rule="evenodd" stroke="none"/>
    <path d="M42.75 19.75 L42.5 20.25 42.5 20.0 42.75 19.75 M-24.75 9.75 L-25.4 9.5 -25.25 9.0 -24.75 9.75" fill="#ffffff" fill-rule="evenodd" stroke="none"/>
  </g>
</svg>
