<?xml version="1.0" encoding="UTF-8" standalone="no"?>
<svg xmlns:ffdec="https://www.free-decompiler.com/flash" xmlns:xlink="http://www.w3.org/1999/xlink" ffdec:objectType="shape" height="366.25px" width="373.75px" xmlns="http://www.w3.org/2000/svg">
  <g transform="matrix(1.0, 0.0, 0.0, 1.0, 193.5, 125.85)">
    <path d="M135.0 -0.75 L156.25 43.0 156.5 43.75 156.75 44.25 157.0 44.5 157.0 44.75 161.25 55.0 161.25 55.25 161.75 56.25 161.75 56.5 162.0 56.75 162.0 57.0 162.25 57.5 162.25 57.75 162.5 58.0 162.5 58.25 163.0 58.75 163.0 59.25 163.25 59.25 163.0 59.5 163.0 59.75 163.25 60.0 163.25 60.25 163.5 60.75 163.5 61.0 163.75 61.25 163.75 61.5 164.25 62.5 164.25 62.75 165.25 64.25 165.25 64.5 171.5 78.25 173.0 83.25 173.0 83.5 173.25 84.0 174.25 89.0 174.25 89.5 176.5 94.5 177.25 99.75 177.25 100.75 177.5 102.5 177.5 104.0 177.75 104.5 177.75 105.0 178.0 106.25 178.0 107.0 180.25 125.25 178.25 160.5 172.5 228.5 172.5 229.5 172.25 229.75 Q167.5 251.5 161.5 228.75 L161.5 228.5 161.25 227.75 157.0 204.25 150.5 157.25 146.25 93.25 146.25 92.5 146.5 91.75 133.5 71.0 Q129.25 97.75 99.0 121.25 L94.0 125.25 92.75 126.0 92.0 126.25 91.25 126.75 90.25 127.25 89.5 127.5 89.25 127.75 Q-4.85 152.45 -86.25 122.5 L-86.75 122.0 -87.75 121.5 -89.0 120.25 -101.25 110.75 -106.5 104.5 -92.0 125.25 -91.5 125.75 -91.25 126.25 -91.0 126.5 -87.5 131.5 -87.0 132.0 -65.0 164.0 -55.25 181.25 -57.5 183.25 -61.0 185.25 -72.25 178.25 Q-72.8 177.1 -74.0 176.75 L-74.75 176.25 -103.75 154.0 -110.75 148.0 Q-196.25 78.25 -193.0 49.25 L-193.5 45.75 -188.5 37.75 -188.25 37.25 -182.75 29.5 -157.25 5.25 -117.25 -27.25 -84.75 -49.75 -71.75 -55.75 Q-9.75 -123.75 35.0 -125.75 63.25 -128.75 122.25 -23.25 L135.0 -0.75 M-146.75 52.0 L-115.0 93.6 Q-127.9 75.5 -122.75 36.25 L-146.75 52.0" fill="#2e47aa" fill-rule="evenodd" stroke="none"/>
    <path d="M33.5 166.75 L33.0 167.0 32.75 167.0 33.5 166.75" fill="#ffffff" fill-rule="evenodd" stroke="none"/>
  </g>
</svg>
