<?xml version="1.0" encoding="UTF-8" standalone="no"?>
<svg xmlns:ffdec="https://www.free-decompiler.com/flash" xmlns:xlink="http://www.w3.org/1999/xlink" ffdec:objectType="shape" height="387.35px" width="389.75px" xmlns="http://www.w3.org/2000/svg">
  <g transform="matrix(1.0, 0.0, 0.0, 1.0, 208.25, 112.85)">
    <path d="M133.25 -4.75 L144.25 17.25 166.0 67.75 176.25 97.25 176.5 97.75 177.0 99.25 177.25 99.75 178.5 103.5 178.75 103.75 179.5 107.0 180.75 108.0 180.5 115.0 180.75 115.0 180.75 116.5 181.25 119.75 181.5 120.25 180.25 121.5 171.75 149.0 149.5 192.75 126.0 237.0 111.0 263.25 111.0 263.5 110.25 264.75 Q94.25 286.5 99.25 259.75 L106.75 230.5 121.0 183.25 134.25 147.0 148.5 111.75 149.0 111.25 149.0 111.0 149.5 110.0 135.0 82.0 133.75 80.75 Q127.25 104.0 100.75 124.25 L94.25 129.25 93.25 129.5 92.5 130.25 Q3.0 158.4 -75.0 129.25 L-79.5 127.25 -87.75 121.75 -89.25 120.25 -92.25 118.0 -93.0 117.25 -100.0 111.75 -110.75 98.5 -114.25 91.75 -149.5 68.75 -188.75 34.25 -201.0 17.25 -201.25 16.75 -201.75 16.25 -201.75 16.0 -202.25 15.5 -204.75 12.0 -205.0 11.5 -206.75 9.5 -207.75 0.25 -208.0 -1.0 -208.25 -7.75 -199.25 -17.75 Q-185.45 -35.85 -154.4 -45.75 -81.6 -69.15 -52.25 -59.5 22.0 -120.5 50.0 -111.75 90.25 -99.0 133.25 -4.75 M-6.0 26.75 L-6.0 26.0 -6.25 26.0 -6.5 26.4 -6.0 26.75 M-3.75 33.5 L-3.75 33.25 -4.0 32.75 -3.75 33.5 M-121.0 9.5 L-114.5 19.0 -109.75 8.5 -121.0 9.5" fill="#2e47aa" fill-rule="evenodd" stroke="none"/>
    <path d="M-3.75 33.5 L-4.0 32.75 -3.75 33.25 -3.75 33.5 M-6.0 26.75 L-6.5 26.4 -6.25 26.0 -6.0 26.0 -6.0 26.75" fill="#ffffff" fill-rule="evenodd" stroke="none"/>
  </g>
</svg>
