<?xml version="1.0" encoding="UTF-8" standalone="no"?>
<svg xmlns:ffdec="https://www.free-decompiler.com/flash" xmlns:xlink="http://www.w3.org/1999/xlink" ffdec:objectType="shape" height="344.25px" width="400.45px" xmlns="http://www.w3.org/2000/svg">
  <g transform="matrix(1.0, 0.0, 0.0, 1.0, 215.25, 113.0)">
    <path d="M124.0 -20.5 L140.0 4.75 164.5 49.5 181.25 86.25 184.75 97.8 Q188.35 110.8 163.0 130.25 L121.5 168.25 89.5 196.5 59.0 222.0 58.5 222.25 56.5 224.25 45.5 231.25 Q40.25 227.0 40.5 226.0 L48.5 214.0 48.75 213.5 58.75 200.5 96.5 154.75 97.0 154.25 102.0 148.5 102.5 147.75 150.0 96.0 134.75 73.5 Q129.0 101.0 100.0 123.25 L96.75 125.75 96.25 126.25 93.75 128.25 93.25 128.5 92.5 129.0 92.0 129.25 91.25 129.5 90.0 130.75 Q16.25 160.75 -76.25 129.75 L-80.25 127.75 -81.5 127.25 -85.75 124.75 -87.0 123.75 -87.5 123.25 -89.25 122.0 -89.75 121.5 -100.5 113.0 -113.0 97.25 -154.25 71.25 -196.0 35.25 -207.0 20.0 -207.25 19.5 -207.75 19.0 -211.25 14.25 -211.5 14.0 -211.75 13.25 -213.5 11.25 -214.25 3.75 -214.5 2.5 -215.25 -5.0 -213.25 -8.25 Q-205.6 -26.55 -162.5 -41.85 -86.65 -68.8 -58.0 -58.75 -10.5 -105.75 37.0 -113.0 68.5 -112.75 119.75 -26.0 L124.0 -20.5 M181.55 87.05 L181.75 87.25 182.75 90.25 181.55 87.05 M-118.25 24.25 L-112.5 9.25 -128.0 10.75 -118.25 24.25" fill="#2e47aa" fill-rule="evenodd" stroke="none"/>
  </g>
</svg>
