<?xml version="1.0" encoding="UTF-8" standalone="no"?>
<svg xmlns:ffdec="https://www.free-decompiler.com/flash" xmlns:xlink="http://www.w3.org/1999/xlink" ffdec:objectType="shape" height="331.95px" width="370.1px" xmlns="http://www.w3.org/2000/svg">
  <g transform="matrix(1.0, 0.0, 0.0, 1.0, 191.25, 131.2)">
    <path d="M111.5 -40.5 L129.25 -15.75 152.75 22.75 163.75 43.0 163.75 43.25 172.75 60.5 175.75 67.5 Q178.75 70.8 178.85 73.65 L162.75 98.5 153.0 110.25 109.25 146.25 102.0 151.75 101.5 152.0 93.5 158.25 92.75 159.0 68.5 177.75 47.5 193.0 35.5 200.75 33.5 200.75 32.75 200.25 29.25 196.0 37.0 185.25 63.5 155.5 88.75 129.0 89.75 127.75 97.75 119.5 94.5 121.75 93.25 123.0 91.75 124.0 90.75 124.5 89.25 125.5 89.0 125.75 86.75 126.75 Q1.1 158.25 -77.5 128.25 L-79.5 127.25 -81.0 126.75 -81.75 126.25 -83.75 125.25 -88.25 122.25 -89.0 121.5 -89.5 121.25 -96.5 116.0 Q-134.0 81.5 -126.5 41.5 L-147.5 59.25 -144.75 63.25 -135.0 84.25 -126.25 100.75 -126.25 102.0 -108.75 140.5 -102.5 155.5 -102.5 155.75 -97.0 169.25 -92.5 184.0 Q-96.0 187.5 -97.0 187.0 L-99.75 186.5 -109.5 180.25 -110.0 180.0 Q-168.25 139.5 -188.75 89.5 L-189.0 88.75 -189.25 88.25 -190.0 85.75 -190.25 85.5 -190.5 84.25 -191.25 75.75 -190.0 64.5 -189.5 62.5 -183.25 50.5 -182.25 49.5 -182.0 49.0 -181.5 48.5 -172.0 37.0 -170.75 35.75 -158.25 20.25 -153.5 15.75 -153.25 15.25 -120.5 -18.75 -92.75 -44.25 -85.75 -49.0 Q-13.0 -133.0 12.25 -131.0 48.5 -135.5 105.5 -46.5 L111.5 -40.5 M131.75 65.25 Q133.75 69.25 121.25 94.75 L114.0 103.75 141.25 77.25 131.75 65.25 M-23.0 14.25 L-23.25 13.5 -23.45 14.1 -23.0 14.25" fill="#2e47aa" fill-rule="evenodd" stroke="none"/>
    <path d="M-23.0 14.25 L-23.45 14.1 -23.25 13.5 -23.0 14.25" fill="#ffffff" fill-rule="evenodd" stroke="none"/>
  </g>
</svg>
