<?xml version="1.0" encoding="UTF-8" standalone="no"?>
<svg xmlns:ffdec="https://www.free-decompiler.com/flash" xmlns:xlink="http://www.w3.org/1999/xlink" ffdec:objectType="shape" height="313.75px" width="332.5px" xmlns="http://www.w3.org/2000/svg">
  <g transform="matrix(1.0, 0.0, 0.0, 1.0, 166.75, 147.25)">
    <path d="M24.0 161.5 L12.0 166.5 10.5 166.0 9.0 164.75 8.25 165.0 5.25 165.25 -18.0 162.5 -32.5 159.5 -62.75 144.5 -78.5 127.25 -79.25 127.0 -85.25 124.25 -86.75 123.0 -87.25 122.75 -89.0 121.5 -89.5 121.25 -91.0 120.0 -96.5 116.25 Q-138.75 88.25 -128.0 21.75 L-136.0 26.75 -136.25 27.0 -137.75 28.0 -138.25 28.25 -139.0 28.75 -142.0 84.25 -145.75 124.0 -149.25 149.25 -151.75 162.0 -152.75 162.5 Q-156.75 163.25 -158.0 162.0 L-159.75 155.5 -163.25 124.25 -165.25 90.25 -166.75 40.75 -164.0 23.5 -163.0 13.5 -158.25 1.75 -157.5 0.75 Q-126.25 -44.0 -87.0 -68.75 -39.0 -139.5 -1.25 -147.25 37.5 -141.5 90.0 -64.0 L98.25 -57.0 116.75 -33.75 137.75 -1.75 151.75 23.5 152.25 24.25 152.5 24.75 152.75 25.0 152.75 25.25 160.75 39.75 161.0 40.5 165.75 51.5 165.5 55.75 134.75 91.75 87.75 123.25 86.75 123.75 77.5 129.5 52.25 145.5 25.5 160.5 24.0 161.5 M33.75 5.0 L34.0 4.25 33.75 4.75 33.75 5.0" fill="#2e47aa" fill-rule="evenodd" stroke="none"/>
    <path d="M77.5 129.5 L76.0 131.75 64.75 144.5 36.0 159.0 24.0 161.5 25.5 160.5 52.25 145.5 77.5 129.5 M33.75 5.0 L33.75 4.75 34.0 4.25 33.75 5.0" fill="#ffffff" fill-rule="evenodd" stroke="none"/>
  </g>
</svg>
