<?xml version="1.0" encoding="UTF-8" standalone="no"?>
<svg xmlns:ffdec="https://www.free-decompiler.com/flash" xmlns:xlink="http://www.w3.org/1999/xlink" ffdec:objectType="shape" height="165.75px" width="176.75px" xmlns="http://www.w3.org/2000/svg">
  <g transform="matrix(1.0, 0.0, 0.0, 1.0, 87.5, 0.5)">
    <path d="M45.75 22.25 L49.75 35.5 62.25 59.5 Q84.0 78.0 88.75 95.0 L89.25 108.75 88.75 112.0 82.5 124.25 81.0 125.75 80.5 126.5 79.5 127.5 64.75 144.5 35.25 159.25 8.25 165.0 5.25 165.25 -18.0 162.5 -32.5 159.5 -62.75 144.5 -81.25 124.25 -87.25 110.75 -87.5 108.0 Q-84.5 105.25 -84.75 99.5 -57.5 70.0 -35.5 2.5 L-34.5 4.75 Q-24.0 28.0 -1.5 27.75 L1.25 27.75 Q26.5 26.0 33.75 5.0 L33.75 4.75 34.0 4.25 34.5 2.75 34.75 2.5 35.0 1.75 36.0 -0.5 45.75 22.25" fill="#ffffff" fill-rule="evenodd" stroke="none"/>
  </g>
</svg>
