<?xml version="1.0" encoding="UTF-8" standalone="no"?>
<svg xmlns:ffdec="https://www.free-decompiler.com/flash" xmlns:xlink="http://www.w3.org/1999/xlink" ffdec:objectType="shape" height="158.75px" width="177.0px" xmlns="http://www.w3.org/2000/svg">
  <g transform="matrix(1.0, 0.0, 0.0, 1.0, 84.5, -9.0)">
    <path d="M88.0 89.25 L92.5 100.0 91.75 116.5 84.0 128.5 83.5 129.0 82.75 130.0 82.0 130.75 67.25 148.0 44.25 159.75 36.75 162.75 8.5 167.75 -18.25 164.25 -31.0 161.75 -53.25 150.25 -53.5 150.25 -60.75 146.25 -77.5 127.75 -79.5 124.5 -83.25 115.25 -84.5 110.0 Q-81.75 108.5 -81.25 102.0 -49.75 74.0 -25.25 9.0 L-24.75 9.75 -24.75 10.0 -23.75 12.75 -23.5 13.25 Q-14.5 36.25 9.5 37.75 L12.25 37.75 Q26.0 41.5 42.5 20.25 L42.5 20.0 42.75 19.75 43.25 18.75 43.75 18.0 43.75 17.75 47.0 10.75 54.5 29.75 57.25 41.75 68.0 64.75 Q69.5 70.25 84.0 82.25 L88.0 89.25" fill="#ffffff" fill-rule="evenodd" stroke="none"/>
  </g>
</svg>
