<?xml version="1.0" encoding="UTF-8" standalone="no"?>
<svg xmlns:ffdec="https://www.free-decompiler.com/flash" xmlns:xlink="http://www.w3.org/1999/xlink" ffdec:objectType="shape" height="154.0px" width="177.5px" xmlns="http://www.w3.org/2000/svg">
  <g transform="matrix(1.0, 0.0, 0.0, 1.0, 81.5, -16.25)">
    <path d="M93.5 97.0 Q100.0 113.25 89.5 127.5 L89.25 127.75 87.0 130.75 86.5 131.25 86.25 131.75 85.75 132.25 85.0 133.25 69.25 151.5 40.0 166.0 33.5 166.75 33.0 167.0 32.75 167.0 9.0 170.25 -28.25 164.5 -58.25 148.5 -77.25 126.25 -80.5 117.0 -81.5 112.5 Q-78.5 110.5 -77.5 104.5 -44.0 80.0 -14.75 16.25 L-14.5 16.25 -14.5 16.75 -14.25 17.25 -13.25 20.25 -13.0 20.75 -13.0 21.5 -12.75 21.75 Q-1.5 48.0 20.5 48.0 L23.0 48.0 Q42.25 48.75 53.25 31.25 L57.5 23.0 63.25 38.25 65.25 49.5 74.25 71.0 Q76.75 79.0 89.25 88.75 L93.5 97.0" fill="#ffffff" fill-rule="evenodd" stroke="none"/>
  </g>
</svg>
