<?xml version="1.0" encoding="UTF-8" standalone="no"?>
<svg xmlns:ffdec="https://www.free-decompiler.com/flash" xmlns:xlink="http://www.w3.org/1999/xlink" ffdec:objectType="shape" height="147.75px" width="178.05px" xmlns="http://www.w3.org/2000/svg">
  <g transform="matrix(1.0, 0.0, 0.0, 1.0, 79.1, -26.0)">
    <path d="M70.25 48.25 L72.25 60.5 79.75 80.0 Q80.75 86.25 93.5 96.25 L97.0 103.75 Q102.25 114.25 93.25 129.5 L92.5 130.25 92.0 131.0 91.0 132.0 90.25 133.0 88.5 134.75 88.0 135.5 72.5 153.25 69.0 156.5 42.25 169.75 9.5 173.75 -10.25 170.75 -27.25 167.5 -49.0 155.5 -57.5 150.25 -75.0 129.25 -75.75 127.5 -78.25 119.75 Q-80.5 113.0 -76.75 113.0 L-65.5 118.5 -56.25 122.25 -51.0 117.75 -56.25 106.5 -58.25 104.0 -60.75 99.5 -53.0 92.5 -52.0 90.5 -39.0 76.5 -32.25 67.25 -26.0 57.5 -19.75 44.75 -6.25 26.0 -6.0 26.0 -6.0 26.75 -4.0 32.75 -3.75 33.25 -3.75 33.5 Q6.5 59.75 29.5 60.5 L30.75 60.5 31.75 60.75 Q47.75 62.0 58.75 49.0 L59.0 48.5 60.0 47.0 60.5 46.5 61.25 45.5 66.25 36.75 70.25 48.25" fill="#ffffff" fill-rule="evenodd" stroke="none"/>
  </g>
</svg>
