<?xml version="1.0" encoding="UTF-8" standalone="no"?>
<svg xmlns:ffdec="https://www.free-decompiler.com/flash" xmlns:xlink="http://www.w3.org/1999/xlink" ffdec:objectType="shape" height="147.25px" width="177.7px" xmlns="http://www.w3.org/2000/svg">
  <g transform="matrix(1.0, 0.0, 0.0, 1.0, 81.0, -26.5)">
    <path d="M65.25 47.25 L68.25 60.75 77.75 82.5 Q95.25 98.0 94.75 103.25 100.0 118.5 91.25 129.5 L90.0 130.75 89.25 131.75 88.25 132.75 88.0 133.25 86.75 134.5 85.25 136.75 68.75 155.5 41.0 169.5 9.5 173.5 5.25 173.75 -28.5 167.75 -57.5 152.0 -75.0 131.5 -76.25 129.75 -80.75 118.0 -81.0 116.75 -80.0 115.0 -78.25 115.75 Q-71.7 118.15 -65.5 121.5 -50.0 120.75 -63.75 105.5 L-65.5 102.0 -59.0 96.25 -48.5 83.0 -43.0 77.25 -32.0 60.0 -24.75 45.0 -12.25 26.5 -12.0 28.0 -11.75 28.5 -10.75 31.25 -10.75 32.0 -10.5 32.25 -10.25 33.0 -10.0 33.5 -10.0 33.75 Q-0.25 59.25 23.25 60.25 L25.0 60.25 25.75 60.5 Q40.75 62.0 52.75 48.25 L53.0 47.75 54.5 45.75 54.75 45.5 55.75 44.25 60.5 34.5 65.25 47.25" fill="#ffffff" fill-rule="evenodd" stroke="none"/>
  </g>
</svg>
