<?xml version="1.0" encoding="UTF-8" standalone="no"?>
<svg xmlns:ffdec="https://www.free-decompiler.com/flash" xmlns:xlink="http://www.w3.org/1999/xlink" ffdec:objectType="shape" height="155.5px" width="177.6px" xmlns="http://www.w3.org/2000/svg">
  <g transform="matrix(1.0, 0.0, 0.0, 1.0, 84.35, -13.5)">
    <path d="M58.75 45.75 L69.5 69.0 Q90.25 88.75 89.75 93.5 L93.25 102.75 92.25 118.25 84.5 130.0 83.75 130.75 83.0 131.75 67.5 149.75 38.25 164.25 8.75 169.0 -9.5 166.75 -30.75 163.25 -44.5 156.0 -44.75 156.0 -60.0 148.0 -78.5 127.25 -84.0 113.5 Q-85.25 111.25 -81.75 109.0 L-80.5 103.75 Q-49.75 78.25 -23.25 13.5 L-23.0 14.25 -23.0 14.5 -21.75 18.0 -21.5 18.5 Q-11.25 43.0 11.75 43.25 L14.25 43.25 Q28.5 47.0 44.75 25.5 L45.0 24.75 45.25 24.5 49.0 16.5 56.0 33.75 58.75 45.75" fill="#ffffff" fill-rule="evenodd" stroke="none"/>
  </g>
</svg>
