<?xml version="1.0" encoding="UTF-8" standalone="no"?>
<svg xmlns:ffdec="https://www.free-decompiler.com/flash" xmlns:xlink="http://www.w3.org/1999/xlink" ffdec:objectType="shape" height="165.75px" width="173.5px" xmlns="http://www.w3.org/2000/svg">
  <g transform="matrix(1.0, 0.0, 0.0, 1.0, 87.5, 0.5)">
    <path d="M52.25 145.5 L77.5 129.5 76.0 131.75 64.75 144.5 36.0 159.0 24.0 161.5 25.5 160.5 52.25 145.5 M45.75 22.25 L49.75 35.5 62.25 59.5 Q84.25 78.5 86.0 89.25 L54.0 116.5 52.5 118.0 31.25 136.5 18.5 148.75 7.0 161.0 9.0 164.75 8.25 165.0 5.25 165.25 -18.0 162.5 -32.5 159.5 -62.75 144.5 -81.25 124.25 -87.25 110.75 -87.5 108.0 Q-84.5 105.25 -84.75 99.5 -57.5 70.0 -35.5 2.5 L-34.5 4.75 Q-24.0 28.0 -1.5 27.75 L1.25 27.75 Q26.5 26.0 33.75 5.0 L33.75 4.75 34.0 4.25 34.5 2.75 34.75 2.5 35.0 1.75 36.0 -0.5 45.75 22.25" fill="#ffffff" fill-rule="evenodd" stroke="none"/>
  </g>
</svg>
