<?xml version="1.0" encoding="UTF-8" standalone="no"?>
<svg xmlns:ffdec="https://www.free-decompiler.com/flash" xmlns:xlink="http://www.w3.org/1999/xlink" ffdec:objectType="shape" height="272.5px" width="369.5px" xmlns="http://www.w3.org/2000/svg">
  <g transform="matrix(1.0, 0.0, 0.0, 1.0, 185.25, 69.5)">
    <path d="M45.75 22.25 L49.75 35.5 62.25 59.5 Q84.0 78.0 88.75 95.0 L89.25 108.75 88.75 112.0 82.5 124.25 81.0 125.75 80.5 126.5 79.5 127.5 64.75 144.5 35.25 159.25 8.25 165.0 5.25 165.25 -18.0 162.5 -32.5 159.5 -62.75 144.5 -81.25 124.25 -87.25 110.75 -87.5 108.0 Q-84.5 105.25 -84.75 99.5 -57.5 70.0 -35.5 2.5 L-34.5 4.75 Q-24.0 28.0 -1.5 27.75 L1.25 27.75 Q26.5 26.0 33.75 5.0 L33.75 4.75 34.0 4.25 34.5 2.75 34.75 2.5 35.0 1.75 36.0 -0.5 45.75 22.25" fill="#ffffff" fill-rule="evenodd" stroke="none"/>
    <path d="M8.5 -55.25 Q5.5 -53.5 6.0 -52.5 5.5 -49.0 8.0 -46.75 L12.25 -46.25 Q22.75 -51.75 13.25 -56.25 L8.5 -55.25 M-25.75 -47.75 Q-33.0 -57.5 -30.5 -63.75 L-29.0 -65.75 -27.5 -66.75 -25.25 -67.75 -16.0 -69.5 -4.5 -69.0 -3.25 -68.5 -3.25 -68.25 -0.25 -67.75 0.25 -68.0 3.5 -68.75 11.5 -69.5 18.75 -69.25 24.25 -68.0 28.25 -66.0 29.5 -64.5 30.0 -63.75 29.0 -55.25 25.25 -48.5 Q18.5 -38.75 -0.25 -46.0 -18.0 -38.75 -25.75 -47.75 M-15.5 -56.0 Q-22.75 -47.5 -11.25 -46.25 -0.75 -55.5 -15.5 -56.0" fill="#ffffff" fill-rule="evenodd" stroke="none"/>
    <path d="M-25.75 -47.75 Q-18.0 -38.75 -0.25 -46.0 18.5 -38.75 25.25 -48.5 47.25 -37.75 36.75 -4.0 L36.75 -3.25 36.0 -0.5 35.0 1.75 34.75 2.5 34.5 2.75 34.0 4.25 33.75 4.75 33.75 5.0 Q26.5 26.0 1.25 27.75 L-1.5 27.75 Q-24.0 28.0 -34.5 4.75 L-35.5 2.5 Q-49.5 -37.5 -25.75 -47.75 M79.5 127.5 L80.5 126.5 81.0 125.75 82.5 124.25 87.0 122.0 87.25 121.75 95.5 115.25 Q111.0 141.75 110.5 154.0 111.0 193.0 55.25 201.0 30.5 204.25 16.75 193.0 11.5 189.75 8.25 165.0 L35.25 159.25 64.75 144.5 79.5 127.5 M-91.0 120.0 L-89.5 121.25 -89.0 121.5 -87.25 122.75 -86.75 123.0 -85.25 124.25 -79.25 127.0 -78.5 127.25 -62.75 144.5 -32.5 159.5 -18.0 162.5 -9.25 163.5 -12.75 184.5 Q-15.5 192.0 -18.25 194.25 L-19.75 196.0 -23.0 197.75 Q-29.75 203.5 -56.5 202.0 -114.0 193.25 -111.75 154.25 L-111.5 153.75 -111.5 153.5 Q-113.0 145.0 -96.5 116.25 L-91.0 120.0" fill="#e58508" fill-rule="evenodd" stroke="none"/>
    <path d="M8.5 -55.25 L13.25 -56.25 Q22.75 -51.75 12.25 -46.25 L8.0 -46.75 Q5.5 -49.0 6.0 -52.5 5.5 -53.5 8.5 -55.25 M-15.5 -56.0 Q-0.75 -55.5 -11.25 -46.25 -22.75 -47.5 -15.5 -56.0" fill="#000000" fill-rule="evenodd" stroke="none"/>
    <path d="M-154.25 -5.25 L-152.75 -6.0 -153.75 -4.75 -154.25 -5.25 M68.9 125.85 L69.0 125.75 86.0 103.0 Q90.5 94.75 87.0 91.5 100.75 82.75 108.25 71.0 L118.25 52.0 122.5 34.75 115.75 20.75 100.5 -2.0 104.5 1.0 106.75 1.75 110.0 5.0 112.25 5.75 127.5 17.0 139.25 24.0 141.25 23.5 153.75 31.0 Q155.25 29.5 153.5 28.75 L157.75 27.5 Q155.75 34.0 147.5 36.5 L148.25 38.75 147.75 40.0 149.75 42.0 155.75 51.75 159.5 54.5 164.25 62.75 Q165.5 62.25 168.5 67.25 L175.25 70.0 175.5 53.0 174.5 49.75 Q175.25 43.75 173.0 37.25 L173.5 37.0 181.0 68.75 184.25 87.25 184.0 96.5 Q170.75 95.5 142.0 31.0 L126.75 21.25 Q139.25 81.75 95.5 115.0 L99.75 122.25 104.25 132.5 102.0 132.5 Q96.75 137.0 92.5 138.25 L92.75 141.5 73.5 163.0 73.75 163.5 70.0 166.25 39.5 181.0 Q24.5 181.75 17.25 187.5 23.75 200.75 66.0 194.5 99.25 188.5 109.5 163.5 111.0 165.25 105.25 176.0 L97.25 185.25 Q69.75 205.0 33.25 200.75 8.5 198.25 8.5 165.25 L-9.0 163.5 Q-11.0 207.5 -43.0 202.5 -93.5 201.5 -108.25 173.25 L-110.75 167.25 -111.0 164.0 Q-106.5 187.5 -57.0 197.5 -29.25 200.5 -16.5 188.5 L-19.0 184.75 -24.75 182.5 -33.25 181.0 -68.75 164.0 -90.0 140.75 Q-103.0 131.75 -105.25 132.75 L-101.75 124.5 -96.75 116.5 Q-120.25 97.0 -124.75 80.25 L-128.25 68.75 -130.5 44.75 -129.75 31.75 -127.75 21.75 -143.0 31.25 -159.0 63.5 -169.75 82.75 -176.25 92.75 -181.0 97.75 -183.75 97.75 Q-189.25 90.5 -174.75 37.0 L-174.25 40.25 -175.5 44.0 Q-174.0 45.5 -176.75 59.25 L-175.75 62.75 Q-177.25 63.75 -176.0 69.5 L-175.0 70.0 Q-173.0 68.0 -170.0 68.0 -165.0 65.0 -161.25 55.75 L-156.25 51.5 -152.5 46.0 -150.75 41.5 -150.25 40.75 -150.0 41.75 -148.5 40.5 -149.25 39.25 -148.5 37.25 -151.0 36.75 Q-154.75 34.5 -158.75 28.0 -148.0 34.25 -100.25 -2.5 L-102.25 1.5 -104.0 3.0 -104.0 4.0 -107.0 7.5 -112.5 16.5 -115.0 19.0 -122.5 36.0 -121.0 46.75 -111.75 70.75 -96.75 88.75 -83.0 97.75 Q-87.25 103.5 -68.25 124.75 -4.8 179.25 68.65 126.0 L68.9 125.85 M-164.75 8.5 L-164.0 8.5 -164.25 9.0 -164.75 8.5 M153.75 46.5 L151.25 42.0 152.0 42.25 153.75 46.5 M-40.25 -20.25 Q-36.5 25.75 1.25 27.5 38.25 22.0 40.0 -21.5 39.25 84.75 2.5 85.75 -39.75 90.25 -40.25 -20.25" fill="#000000" fill-opacity="0.49803922" fill-rule="evenodd" stroke="none"/>
    <path d="M68.65 126.0 L68.9 125.85" fill="none" stroke="#000000" stroke-linecap="round" stroke-linejoin="round" stroke-width="1.0"/>
  </g>
</svg>
