<?xml version="1.0" encoding="UTF-8" standalone="no"?>
<svg xmlns:ffdec="https://www.free-decompiler.com/flash" xmlns:xlink="http://www.w3.org/1999/xlink" ffdec:objectType="shape" height="267.25px" width="357.0px" xmlns="http://www.w3.org/2000/svg">
  <g transform="matrix(1.0, 0.0, 0.0, 1.0, 176.25, 59.5)">
    <path d="M88.0 89.25 L92.5 100.0 91.75 116.5 84.0 128.5 83.5 129.0 82.75 130.0 82.0 130.75 67.25 148.0 44.25 159.75 36.75 162.75 8.5 167.75 -18.25 164.25 -31.0 161.75 -53.25 150.25 -53.5 150.25 -60.75 146.25 -77.5 127.75 -79.5 124.5 -83.25 115.25 -84.5 110.0 Q-81.75 108.5 -81.25 102.0 -49.75 74.0 -25.25 9.0 L-24.75 9.75 -24.75 10.0 -23.75 12.75 -23.5 13.25 Q-14.5 36.25 9.5 37.75 L12.25 37.75 Q26.0 41.5 42.5 20.25 L42.5 20.0 42.75 19.75 43.25 18.75 43.75 18.0 43.75 17.75 47.0 10.75 54.5 29.75 57.25 41.75 68.0 64.75 Q69.5 70.25 84.0 82.25 L88.0 89.25" fill="#ffffff" fill-rule="evenodd" stroke="none"/>
    <path d="M-13.25 -38.75 Q-15.0 -39.25 -17.75 -47.0 L-17.5 -54.75 -17.25 -55.25 -16.0 -56.25 -14.25 -57.25 -11.75 -58.25 -2.0 -59.5 9.75 -58.5 10.5 -58.0 11.0 -57.75 12.5 -57.75 13.5 -57.5 15.25 -58.0 15.75 -58.0 16.5 -58.25 17.25 -58.25 20.5 -58.5 21.25 -58.75 32.25 -58.5 37.75 -57.5 41.75 -55.5 42.75 -54.25 42.25 -45.75 38.0 -38.5 Q31.5 -28.25 12.5 -36.0 -3.25 -28.75 -13.25 -38.75 M21.25 -36.5 L25.25 -35.75 Q35.5 -41.0 27.5 -45.5 24.25 -46.0 22.0 -44.5 L19.25 -42.25 Q18.75 -38.75 21.25 -36.5 M2.0 -36.25 Q13.0 -45.0 -2.0 -46.0 -10.0 -38.5 2.0 -36.25" fill="#ffffff" fill-rule="evenodd" stroke="none"/>
    <path d="M21.25 -36.5 Q18.75 -38.75 19.25 -42.25 L22.0 -44.5 Q24.25 -46.0 27.5 -45.5 35.5 -41.0 25.25 -35.75 L21.25 -36.5 M2.0 -36.25 Q-10.0 -38.5 -2.0 -46.0 13.0 -45.0 2.0 -36.25" fill="#000000" fill-rule="evenodd" stroke="none"/>
    <path d="M38.0 -38.5 Q59.5 -30.25 47.0 10.75 L43.75 17.75 43.75 18.0 43.25 18.75 42.75 19.75 42.5 20.0 42.5 20.25 Q26.0 41.5 12.25 37.75 L9.5 37.75 Q-14.5 36.25 -23.5 13.25 L-23.75 12.75 -24.75 10.0 -24.75 9.75 -25.25 9.0 -25.25 8.25 Q-38.25 -28.25 -13.25 -38.75 -3.25 -28.75 12.5 -36.0 31.5 -28.25 38.0 -38.5 M-88.75 121.25 L-87.0 122.5 -86.5 122.75 -83.25 125.0 -77.5 127.75 -60.75 146.25 -53.5 150.25 -53.25 150.25 -31.0 161.75 -18.25 164.25 -9.25 165.5 -12.75 184.5 Q-15.5 192.0 -18.25 194.25 L-19.75 196.0 -23.0 197.75 Q-29.75 203.5 -56.5 202.0 -114.0 193.25 -111.75 154.25 L-111.5 153.75 -111.5 153.5 Q-113.25 145.25 -96.25 115.75 L-92.25 118.5 -90.75 119.75 -89.5 120.5 -88.75 121.25 M16.75 193.0 Q11.75 190.0 8.5 167.75 L36.75 162.75 44.25 159.75 67.25 148.0 82.0 130.75 82.75 130.0 83.5 129.0 84.0 128.5 86.0 125.75 88.5 124.75 88.75 124.5 97.25 118.25 Q108.25 136.0 110.25 153.5 114.25 191.25 55.25 201.0 30.5 204.25 16.75 193.0" fill="#e58508" fill-rule="evenodd" stroke="none"/>
    <path d="M-79.5 -8.5 L-79.75 -7.25 -88.75 10.75 -88.75 12.0 -89.5 12.25 -94.25 25.0 -98.75 33.75 -106.5 55.0 -110.75 69.5 -107.75 74.75 -94.0 89.25 -77.75 99.25 Q-83.0 101.5 -81.25 104.75 L-64.5 127.5 -34.0 147.5 -27.5 149.5 3.5 155.0 Q40.5 157.0 80.5 118.0 98.0 97.75 87.5 88.25 114.75 65.5 116.75 55.5 L112.0 39.75 100.0 10.5 98.0 6.75 98.25 5.5 111.0 21.5 144.25 60.0 Q147.0 59.25 156.5 71.0 159.25 71.0 156.75 69.0 L160.75 69.5 Q159.5 73.0 150.25 75.5 L150.75 77.25 Q148.75 77.25 149.5 82.25 152.75 86.5 154.0 95.25 L154.75 95.75 159.5 118.25 172.5 167.75 Q178.0 171.75 179.5 166.5 L177.0 127.75 177.0 108.5 176.15 94.0 176.85 94.0 178.25 109.25 180.25 142.75 180.75 163.75 Q180.75 173.25 178.5 174.0 171.75 174.5 166.0 151.25 L155.75 114.75 145.25 66.25 133.0 52.25 Q127.25 99.75 97.25 118.0 L100.5 123.5 106.25 136.75 104.5 136.5 Q100.5 140.0 96.5 141.25 L96.5 144.5 74.75 168.0 43.5 183.5 Q21.75 186.5 21.0 191.25 85.5 206.0 110.0 164.5 L106.0 174.5 Q98.0 191.25 67.0 199.0 L55.5 201.0 41.5 201.5 33.0 200.75 24.0 198.25 Q13.0 198.25 8.75 167.75 L-9.0 165.5 Q-9.5 204.5 -43.0 202.5 -79.25 205.0 -105.75 178.25 L-109.75 169.75 -110.6 166.4 Q-105.5 182.3 -74.5 193.5 -41.25 203.5 -17.5 190.5 L-18.0 188.75 -21.0 186.25 -26.25 184.0 -32.5 182.5 -66.5 166.0 -86.75 143.5 Q-102.5 131.75 -105.25 132.75 L-102.0 125.0 -96.0 115.5 Q-117.5 99.0 -124.0 77.25 L-126.0 69.25 -127.25 57.25 -127.25 45.75 -145.5 63.25 -144.5 67.5 -149.0 65.0 Q-154.5 66.5 -156.0 65.75 L-154.0 65.5 -151.25 63.5 -151.5 63.0 -141.5 53.5 Q-141.75 52.0 -134.75 45.75 L-107.0 18.25 -105.5 17.5 -85.25 -2.5 Q-85.75 -4.0 -80.25 -8.5 L-79.5 -8.5 M-159.5 110.25 L-160.25 109.75 -162.0 103.75 -162.75 103.25 -164.5 97.25 -165.25 96.75 -175.75 68.25 -176.25 64.75 -174.75 60.5 Q-177.25 71.75 -167.0 70.5 L-167.75 71.25 -167.75 73.0 -162.5 96.0 -151.5 124.25 -147.25 133.25 -138.75 155.25 -138.25 158.25 -135.5 163.75 -122.0 198.75 -120.0 201.75 -118.25 202.75 Q-113.75 209.5 -112.5 203.0 L-112.5 206.25 -116.0 207.75 -118.25 207.25 -122.25 200.75 -132.75 177.75 -143.25 151.25 -144.25 150.25 -144.5 148.25 -148.75 139.25 -159.5 110.25 M-29.0 -8.25 Q-21.5 37.25 11.75 36.25 49.25 31.75 51.5 -14.0 57.0 90.5 16.25 105.0 -27.25 108.0 -29.0 -8.25" fill="#000000" fill-opacity="0.49803922" fill-rule="evenodd" stroke="none"/>
  </g>
</svg>
