<?xml version="1.0" encoding="UTF-8" standalone="no"?>
<svg xmlns:ffdec="https://www.free-decompiler.com/flash" xmlns:xlink="http://www.w3.org/1999/xlink" ffdec:objectType="shape" height="289.0px" width="373.3px" xmlns="http://www.w3.org/2000/svg">
  <g transform="matrix(1.0, 0.0, 0.0, 1.0, 194.05, 48.75)">
    <path d="M93.5 97.0 Q100.0 113.25 89.5 127.5 L89.25 127.75 87.0 130.75 86.5 131.25 86.25 131.75 85.75 132.25 85.0 133.25 69.25 151.5 40.0 166.0 33.5 166.75 33.0 167.0 32.75 167.0 9.0 170.25 -28.25 164.5 -58.25 148.5 -77.25 126.25 -80.5 117.0 -81.5 112.5 Q-78.5 110.5 -77.5 104.5 -44.0 80.0 -14.75 16.25 L-14.5 16.25 -14.5 16.75 -14.25 17.25 -13.25 20.25 -13.0 20.75 -13.0 21.5 -12.75 21.75 Q-1.5 48.0 20.5 48.0 L23.0 48.0 Q42.25 48.75 53.25 31.25 L57.5 23.0 63.25 38.25 65.25 49.5 74.25 71.0 Q76.75 79.0 89.25 88.75 L93.5 97.0" fill="#ffffff" fill-rule="evenodd" stroke="none"/>
    <path d="M-1.0 -29.25 L-4.75 -36.5 -4.5 -45.0 -4.25 -45.5 -2.75 -46.5 -1.0 -47.25 1.75 -48.0 7.75 -48.75 19.5 -48.25 23.25 -47.75 24.25 -47.25 24.5 -47.0 26.0 -46.75 27.75 -46.75 29.0 -47.0 29.75 -47.0 29.75 -47.25 42.5 -47.75 51.5 -46.25 53.5 -45.5 55.0 -44.5 56.0 -43.25 56.0 -42.5 55.0 -35.0 50.75 -27.75 Q38.75 -17.5 25.5 -25.5 10.0 -18.25 -1.0 -29.25 M15.25 -25.75 Q26.25 -36.25 8.75 -33.75 4.5 -28.5 15.25 -25.75 M32.75 -31.5 Q32.0 -27.75 34.25 -25.5 L38.0 -24.75 Q48.5 -29.0 41.75 -34.25 38.25 -35.25 35.5 -33.5 L32.75 -31.5" fill="#ffffff" fill-rule="evenodd" stroke="none"/>
    <path d="M32.75 -31.5 L35.5 -33.5 Q38.25 -35.25 41.75 -34.25 48.5 -29.0 38.0 -24.75 L34.25 -25.5 Q32.0 -27.75 32.75 -31.5 M15.25 -25.75 Q4.5 -28.5 8.75 -33.75 26.25 -36.25 15.25 -25.75" fill="#000000" fill-rule="evenodd" stroke="none"/>
    <path d="M50.75 -27.75 Q70.25 -22.75 57.5 23.0 L53.25 31.25 Q42.25 48.75 23.0 48.0 L20.5 48.0 Q-1.5 48.0 -12.75 21.75 L-13.0 21.5 -13.0 20.75 -13.25 20.25 -14.25 17.25 -14.5 16.75 -14.5 16.25 -14.75 16.25 -16.0 11.25 -16.0 10.75 -16.25 10.0 Q-25.5 -17.5 -1.0 -29.25 10.0 -18.25 25.5 -25.5 38.75 -17.5 50.75 -27.75 M-89.0 120.25 L-87.75 121.5 -86.75 122.0 -86.25 122.5 -79.0 127.0 -75.5 128.5 -58.25 148.5 -28.25 164.5 -9.5 167.5 -12.75 184.5 Q-15.5 192.0 -18.25 194.25 L-19.75 196.0 -23.0 197.75 Q-29.25 203.5 -56.5 202.0 -114.0 193.25 -111.75 154.25 L-111.5 153.75 -111.5 153.5 -110.75 148.0 -103.75 154.0 -74.75 176.25 -74.0 176.75 Q-72.8 177.1 -72.25 178.25 L-61.0 185.25 -57.5 183.25 -55.25 181.25 -65.0 164.0 -87.0 132.0 -87.5 131.5 -91.0 126.5 -91.25 126.25 -91.5 125.75 -92.0 125.25 -97.25 117.5 -95.75 115.0 -89.0 120.25 M33.5 166.75 L40.0 166.0 69.25 151.5 85.0 133.25 85.75 132.25 86.25 131.75 86.5 131.25 87.0 130.75 89.25 127.75 89.5 127.5 90.25 127.25 91.25 126.75 92.0 126.25 92.75 126.0 94.0 125.25 99.0 121.25 106.5 137.25 109.75 148.0 110.25 153.5 Q112.75 191.75 55.25 201.0 30.5 204.25 16.75 193.0 14.5 191.75 12.25 185.25 L9.0 170.25 32.75 167.0 33.0 167.0 33.5 166.75" fill="#e58508" fill-rule="evenodd" stroke="none"/>
    <path d="M-71.0 -3.0 L-72.0 -2.25 -72.75 0.5 -83.25 21.25 -83.0 22.0 -84.0 23.0 -84.25 25.0 -85.25 26.0 -85.5 28.0 -91.75 41.75 -92.75 46.0 -93.5 46.5 -93.5 48.0 -94.25 48.5 -94.25 50.0 -95.0 50.5 -95.0 52.0 -95.75 52.5 -95.75 54.0 -96.5 54.5 -100.0 64.25 -104.0 77.75 -92.75 89.0 -88.25 92.5 -71.75 101.0 Q-80.0 104.5 -78.25 107.75 L-61.0 130.25 -29.75 149.75 -4.5 154.75 6.25 156.25 10.0 156.0 24.75 153.5 44.75 148.5 69.5 134.5 78.0 127.0 90.0 109.0 Q101.0 102.5 85.75 85.75 L101.5 73.0 113.25 59.75 106.0 30.75 101.0 15.25 101.25 13.0 109.5 27.5 125.0 51.25 146.0 85.25 147.5 88.75 Q149.5 88.5 152.25 92.0 L158.25 101.0 160.75 101.75 Q157.75 99.5 159.0 98.5 L162.0 101.75 157.75 103.0 Q149.25 99.75 147.5 101.0 L148.75 127.75 151.75 160.75 151.0 160.75 148.25 129.25 146.25 97.75 146.5 91.5 133.75 71.25 Q129.5 96.75 99.0 121.25 L100.75 124.0 108.0 142.0 105.75 142.0 100.25 144.25 99.75 148.5 78.75 170.25 58.5 179.75 45.5 187.0 33.25 189.5 Q27.25 191.5 27.25 193.0 86.75 203.75 110.0 164.25 102.5 187.0 84.0 193.5 L75.0 197.0 66.25 199.25 Q39.0 204.0 23.75 198.25 13.0 197.0 9.25 170.25 L-9.0 167.75 Q-11.0 205.25 -43.0 202.5 -79.5 204.75 -105.25 178.75 L-108.25 173.25 Q-111.75 165.75 -111.25 164.0 -106.25 182.0 -77.5 192.75 -39.5 203.5 -19.75 191.25 L-23.0 187.5 -30.75 184.75 -58.75 170.5 -61.25 170.0 -79.5 142.25 -97.5 117.75 -95.5 114.75 -101.25 110.75 -113.5 95.75 -122.25 76.75 Q-127.75 52.75 -122.5 36.25 L-146.75 51.75 -146.0 53.0 -158.25 39.0 -156.5 39.75 -150.0 47.5 -145.25 44.25 -131.25 37.0 -85.75 5.25 -69.5 -7.5 -71.0 -3.0 M-96.25 155.75 L-73.75 175.0 -59.5 184.5 -60.25 185.25 Q-202.75 81.0 -193.5 45.75 -190.0 45.5 -182.5 61.75 L-179.75 61.5 Q-183.5 66.75 -166.0 86.25 L-132.75 121.75 -96.25 155.75 M-172.5 81.5 L-172.0 82.0 -171.75 81.5 -172.5 81.5 M179.25 135.0 L178.75 151.75 175.25 201.25 172.5 229.0 Q171.0 239.75 168.75 240.25 L164.75 239.75 162.75 233.25 Q169.0 241.75 172.0 229.0 L176.25 175.25 178.5 135.0 179.25 135.0 M157.75 208.75 L157.75 207.5 158.5 209.0 157.75 208.75 M28.0 127.25 Q-14.75 125.75 -17.75 2.0 -13.25 44.0 22.0 44.75 60.75 42.75 62.5 -6.5 70.25 121.5 28.0 127.25" fill="#000000" fill-opacity="0.49803922" fill-rule="evenodd" stroke="none"/>
  </g>
</svg>
