<?xml version="1.0" encoding="UTF-8" standalone="no"?>
<svg xmlns:ffdec="https://www.free-decompiler.com/flash" xmlns:xlink="http://www.w3.org/1999/xlink" ffdec:objectType="shape" height="310.5px" width="387.2px" xmlns="http://www.w3.org/2000/svg">
  <g transform="matrix(1.0, 0.0, 0.0, 1.0, 207.2, 35.25)">
    <path d="M70.25 48.25 L72.25 60.5 79.75 80.0 Q80.75 86.25 93.5 96.25 L97.0 103.75 Q102.25 114.25 93.25 129.5 L92.5 130.25 92.0 131.0 91.0 132.0 90.25 133.0 88.5 134.75 88.0 135.5 72.5 153.25 69.0 156.5 42.25 169.75 9.5 173.75 -10.25 170.75 -27.25 167.5 -49.0 155.5 -57.5 150.25 -75.0 129.25 -75.75 127.5 -78.25 119.75 Q-80.5 113.0 -76.75 113.0 L-65.5 118.5 -56.25 122.25 -51.0 117.75 -56.25 106.5 -58.25 104.0 -60.75 99.5 -53.0 92.5 -52.0 90.5 -39.0 76.5 -32.25 67.25 -26.0 57.5 -19.75 44.75 -6.25 26.0 -6.0 26.0 -6.0 26.75 -4.0 32.75 -3.75 33.25 -3.75 33.5 Q6.5 59.75 29.5 60.5 L30.75 60.5 31.75 60.75 Q47.75 62.0 58.75 49.0 L59.0 48.5 60.0 47.0 60.5 46.5 61.25 45.5 66.25 36.75 70.25 48.25" fill="#ffffff" fill-rule="evenodd" stroke="none"/>
    <path d="M9.25 -17.0 L5.5 -24.5 6.0 -32.5 8.0 -33.75 16.0 -35.25 30.75 -34.75 34.25 -34.25 35.75 -33.5 38.25 -33.0 38.75 -33.0 39.25 -33.25 41.0 -33.25 41.0 -33.5 54.5 -33.75 60.5 -33.0 62.75 -32.5 66.25 -30.75 66.75 -30.0 66.75 -29.25 Q66.0 -20.5 61.0 -14.75 50.75 -3.5 36.0 -12.25 15.25 -6.0 9.25 -17.0 M45.0 -12.0 L49.5 -11.25 Q58.75 -14.25 51.75 -20.5 L46.75 -19.75 43.5 -17.5 Q42.75 -14.5 45.0 -12.0 M21.25 -13.25 L26.25 -12.5 Q36.5 -23.25 19.5 -20.5 16.5 -17.75 21.25 -13.25" fill="#ffffff" fill-rule="evenodd" stroke="none"/>
    <path d="M21.25 -13.25 Q16.5 -17.75 19.5 -20.5 36.5 -23.25 26.25 -12.5 L21.25 -13.25 M45.0 -12.0 Q42.75 -14.5 43.5 -17.5 L46.75 -19.75 51.75 -20.5 Q58.75 -14.25 49.5 -11.25 L45.0 -12.0" fill="#000000" fill-rule="evenodd" stroke="none"/>
    <path d="M61.0 -14.75 Q79.75 -10.75 66.25 36.75 L61.25 45.5 60.5 46.5 60.0 47.0 59.0 48.5 58.75 49.0 Q47.75 62.0 31.75 60.75 L30.75 60.5 29.5 60.5 Q6.5 59.75 -3.75 33.5 L-3.75 33.25 -4.0 32.75 -6.0 26.75 -6.0 26.0 -6.25 26.0 -6.25 25.0 -6.5 24.5 -6.75 23.5 -6.75 23.25 -7.25 21.25 -8.75 9.5 -9.0 8.75 Q-12.75 -6.0 9.25 -17.0 15.25 -6.0 36.0 -12.25 50.75 -3.5 61.0 -14.75 M11.75 184.0 L9.5 173.75 42.25 169.75 69.0 156.5 72.5 153.25 88.0 135.5 88.5 134.75 90.25 133.0 91.0 132.0 92.0 131.0 92.5 130.25 93.25 129.5 94.25 129.25 100.75 124.25 107.5 140.25 109.75 148.0 110.25 153.5 Q112.75 191.75 55.25 201.0 30.5 204.25 16.75 193.0 14.75 192.25 11.75 184.0 M-87.75 121.75 L-79.5 127.25 -75.0 129.25 -57.5 150.25 -49.0 155.5 -27.25 167.5 -10.25 170.75 -13.0 185.0 Q-15.5 191.75 -18.25 194.25 L-19.75 196.0 -23.0 197.75 Q-29.25 203.5 -56.5 202.0 -114.0 193.25 -111.75 154.25 L-111.5 153.75 -111.5 153.5 Q-113.25 145.75 -96.0 115.0 L-93.0 117.25 -92.25 118.0 -89.25 120.25 -87.75 121.75" fill="#e58508" fill-rule="evenodd" stroke="none"/>
    <path d="M-60.5 -2.5 L-71.5 13.5 -77.0 23.0 -78.5 24.25 -78.25 25.0 -89.25 44.75 -91.5 51.0 -92.25 51.0 -103.25 34.25 -114.0 19.75 -114.25 18.5 Q-112.25 17.5 -109.25 8.5 L-120.5 9.5 Q-121.5 9.75 -123.25 7.0 L-88.5 3.0 -60.5 -3.5 -60.5 -2.5 M-8.75 11.25 Q-4.5 64.0 41.75 54.5 68.75 52.5 71.5 0.5 L72.75 12.25 74.0 68.25 71.5 104.5 69.25 123.75 65.5 139.25 78.5 129.0 78.25 128.5 80.5 126.5 91.25 112.0 95.75 102.5 Q96.75 97.0 84.5 88.0 L81.0 82.25 90.5 76.5 101.0 68.75 112.25 58.0 106.0 27.25 104.5 23.25 105.0 23.0 Q103.75 22.5 104.25 18.5 L112.5 35.75 118.75 46.25 147.5 101.25 152.75 107.25 157.75 115.75 Q150.25 112.0 149.25 113.0 L143.0 126.75 142.5 130.0 141.75 130.5 132.75 154.0 132.75 155.5 124.5 177.5 Q123.25 181.75 122.25 181.75 L122.25 183.5 115.75 203.5 115.25 202.25 120.25 187.5 121.0 183.25 124.75 174.5 129.5 160.0 130.25 159.5 131.5 154.5 132.25 154.0 135.25 144.25 136.5 142.5 137.0 139.75 141.25 130.5 147.25 114.0 149.75 109.75 134.5 80.75 Q131.75 97.5 100.75 124.0 L106.25 136.5 109.75 148.5 106.5 148.0 102.75 149.25 102.25 152.5 81.5 174.25 65.25 181.5 63.0 184.0 54.75 190.0 47.0 193.75 Q42.75 194.0 39.5 196.25 96.0 196.25 109.25 164.25 L110.0 163.5 109.5 166.5 105.25 176.25 Q100.25 183.5 93.0 188.5 71.75 203.25 33.25 200.75 14.5 202.0 9.75 173.75 L6.25 173.75 -10.0 170.75 -12.75 184.5 Q-15.0 191.0 -18.5 195.25 -31.0 204.75 -56.75 202.0 L-75.25 198.25 -84.75 194.75 -91.5 191.0 Q-109.25 179.75 -111.25 164.0 -106.25 182.0 -77.5 192.75 -37.0 203.25 -23.75 191.75 L-29.0 188.75 -32.75 185.5 -41.0 181.0 -60.75 171.75 -81.5 148.25 -90.5 143.75 Q-102.5 132.25 -105.25 133.25 L-101.75 124.5 -96.0 115.25 -95.75 114.75 -100.25 111.25 -108.25 100.75 -109.75 99.75 -114.25 91.25 -148.25 69.5 -177.75 44.25 -188.25 34.25 -189.25 33.75 -206.75 9.25 -207.2 3.0 -206.95 3.0 Q-162.85 74.65 -55.25 121.25 -58.25 123.5 -73.0 115.0 L-58.5 133.0 -27.5 151.5 -12.75 155.0 9.75 158.25 24.75 155.75 Q-2.75 117.0 -3.5 76.75 L-3.75 70.0 -7.0 45.75 -8.75 11.25 M178.5 122.55 L180.0 122.0 172.0 148.5 130.0 229.5 110.5 264.75 103.0 275.25 101.25 274.75 110.25 263.5 110.5 262.0 113.0 258.5 124.0 237.25 124.75 237.0 124.5 236.25 125.25 236.0 127.0 231.5 168.75 151.5 178.5 122.55 M166.75 142.75 L167.75 141.0 167.25 143.0 166.75 142.75" fill="#000000" fill-opacity="0.49803922" fill-rule="evenodd" stroke="none"/>
  </g>
</svg>
