<?xml version="1.0" encoding="UTF-8" standalone="no"?>
<svg xmlns:ffdec="https://www.free-decompiler.com/flash" xmlns:xlink="http://www.w3.org/1999/xlink" ffdec:objectType="shape" height="266.5px" width="399.9px" xmlns="http://www.w3.org/2000/svg">
  <g transform="matrix(1.0, 0.0, 0.0, 1.0, 213.9, 35.5)">
    <path d="M65.25 47.25 L68.25 60.75 77.75 82.5 Q95.25 98.0 94.75 103.25 100.0 118.5 91.25 129.5 L90.0 130.75 89.25 131.75 88.25 132.75 88.0 133.25 86.75 134.5 85.25 136.75 68.75 155.5 41.0 169.5 9.5 173.5 5.25 173.75 -28.5 167.75 -57.5 152.0 -75.0 131.5 -76.25 129.75 -80.75 118.0 -81.0 116.75 -80.0 115.0 -78.25 115.75 Q-71.7 118.15 -65.5 121.5 -50.0 120.75 -63.75 105.5 L-65.5 102.0 -59.0 96.25 -48.5 83.0 -43.0 77.25 -32.0 60.0 -24.75 45.0 -12.25 26.5 -12.0 28.0 -11.75 28.5 -10.75 31.25 -10.75 32.0 -10.5 32.25 -10.25 33.0 -10.0 33.5 -10.0 33.75 Q-0.25 59.25 23.25 60.25 L25.0 60.25 25.75 60.5 Q40.75 62.0 52.75 48.25 L53.0 47.75 54.5 45.75 54.75 45.5 55.75 44.25 60.5 34.5 65.25 47.25" fill="#ffffff" fill-rule="evenodd" stroke="none"/>
    <path d="M2.25 -17.0 Q-3.5 -23.5 -1.5 -32.5 L-1.0 -33.0 0.5 -33.75 2.75 -34.5 11.25 -35.5 22.75 -35.0 26.5 -34.5 28.0 -33.75 29.75 -33.5 31.5 -33.5 32.5 -33.75 33.25 -33.75 38.75 -34.25 50.25 -34.0 55.5 -33.0 57.5 -32.25 58.75 -31.5 59.5 -30.0 58.5 -22.5 54.25 -15.25 Q44.25 -4.25 28.75 -12.5 13.0 -5.5 2.25 -17.0 M39.25 -20.25 L36.25 -18.25 Q35.5 -14.25 37.5 -12.5 L42.25 -11.75 Q52.0 -15.75 44.75 -21.0 L39.25 -20.25 M14.75 -22.0 Q6.75 -15.0 17.5 -12.5 30.25 -21.0 14.75 -22.0" fill="#ffffff" fill-rule="evenodd" stroke="none"/>
    <path d="M14.75 -22.0 Q30.25 -21.0 17.5 -12.5 6.75 -15.0 14.75 -22.0 M39.25 -20.25 L44.75 -21.0 Q52.0 -15.75 42.25 -11.75 L37.5 -12.5 Q35.5 -14.25 36.25 -18.25 L39.25 -20.25" fill="#000000" fill-rule="evenodd" stroke="none"/>
    <path d="M2.25 -17.0 Q13.0 -5.5 28.75 -12.5 44.25 -4.25 54.25 -15.25 73.5 -10.25 60.5 34.5 L55.75 44.25 54.75 45.5 54.5 45.75 53.0 47.75 52.75 48.25 Q40.75 62.0 25.75 60.5 L25.0 60.25 23.25 60.25 Q-0.25 59.25 -10.0 33.75 L-10.0 33.5 -10.25 33.0 -10.5 32.25 -10.75 32.0 -10.75 31.25 -11.75 28.5 -12.0 28.0 -12.25 26.5 -13.5 22.25 -13.75 21.0 Q-22.75 -6.5 2.25 -17.0 M12.25 185.25 L9.5 173.5 41.0 169.5 68.75 155.5 85.25 136.75 86.75 134.5 88.0 133.25 88.25 132.75 89.25 131.75 90.0 130.75 91.25 129.5 92.0 129.25 92.5 129.0 93.25 128.5 93.75 128.25 96.25 126.25 96.75 125.75 100.0 123.25 106.25 136.5 108.0 142.0 102.5 147.75 102.0 148.5 97.0 154.25 96.5 154.75 58.75 200.5 55.25 201.0 Q30.5 204.25 16.75 193.0 14.5 191.75 12.25 185.25 M-96.5 116.25 L-89.75 121.5 -89.25 122.0 -87.5 123.25 -87.0 123.75 -85.75 124.75 -81.5 127.25 -80.25 127.75 -76.25 129.75 -75.0 131.5 -57.5 152.0 -28.5 167.75 -10.25 171.0 -13.0 185.0 Q-15.5 191.75 -18.25 194.25 L-19.75 196.0 -23.0 197.75 Q-29.25 203.5 -56.5 202.0 -114.0 193.25 -111.75 154.25 L-111.5 153.75 -111.5 153.5 Q-113.0 145.0 -96.5 116.25" fill="#e58508" fill-rule="evenodd" stroke="none"/>
    <path d="M186.0 106.25 L185.5 108.25 182.25 113.25 178.0 116.75 Q176.0 118.25 172.0 118.5 L163.0 130.25 124.5 165.5 82.25 202.75 60.5 221.0 46.5 231.0 44.25 230.25 41.75 227.5 45.5 230.0 52.5 225.25 79.5 201.75 110.0 173.75 154.5 131.5 160.5 123.75 172.45 111.95 172.5 112.25 174.55 109.85 179.9 104.6 Q180.95 104.5 181.2 103.3 L181.25 102.5 185.0 102.75 184.5 100.0 185.5 102.0 186.0 106.25 M170.25 105.25 L169.75 105.0 170.75 104.5 170.25 105.25 M114.0 35.25 L144.75 84.25 147.75 87.25 151.75 93.25 153.5 94.5 102.0 149.75 100.75 152.0 69.75 187.5 70.0 188.0 57.25 203.25 56.75 203.0 Q59.25 201.25 58.75 200.5 L47.5 201.5 33.25 200.75 24.0 198.25 Q12.75 195.25 9.5 174.0 L-9.0 171.0 Q-11.75 185.25 -18.5 195.25 -31.0 204.75 -56.75 202.0 L-75.25 198.25 -84.5 194.75 -92.25 190.75 Q-108.75 180.0 -111.25 164.0 -105.75 182.25 -78.25 192.25 -51.0 203.25 -24.0 192.25 L-36.5 184.5 -63.0 171.5 -83.0 148.75 Q-92.0 145.75 -102.25 135.5 L-105.5 134.5 -105.75 133.75 -101.75 124.75 -96.25 116.25 -100.75 112.75 -112.25 98.75 -112.75 97.0 -154.25 71.25 -183.25 46.75 -196.0 35.0 -212.75 12.25 Q-214.25 9.25 -213.75 6.0 L-212.5 9.75 -194.75 33.75 -153.0 70.0 -107.0 99.25 -76.5 115.75 -61.0 121.75 Q-62.75 124.0 -70.5 119.5 L-60.5 132.25 -29.5 151.0 -13.0 155.0 9.0 158.0 21.0 156.0 Q-3.75 127.0 -2.5 118.75 L-7.25 98.25 -12.25 59.75 -13.75 44.25 Q-13.95 33.5 -14.5 22.8 -9.05 58.6 36.0 54.25 61.25 52.0 65.5 3.5 L66.75 21.25 67.0 64.5 66.25 78.25 65.0 86.25 64.5 100.25 62.0 119.5 58.5 134.5 54.25 143.25 53.5 146.5 60.25 143.0 77.25 129.0 94.75 105.5 Q95.0 96.5 79.0 84.25 L99.75 70.0 109.75 60.5 106.5 43.75 98.75 13.75 99.0 12.25 98.25 11.25 99.0 11.0 106.75 25.25 109.0 27.75 113.0 34.75 114.0 35.25 M101.5 149.0 L100.75 149.0 101.0 150.0 101.5 149.0 M79.25 174.25 L53.25 186.5 45.75 191.5 Q41.5 191.75 36.0 196.0 L51.75 196.75 Q54.5 197.5 64.0 194.25 L83.75 170.0 79.25 174.25 M150.25 95.75 L135.0 73.5 Q128.75 101.25 100.25 123.0 L108.25 142.0 150.25 95.75 M-68.75 1.25 L-69.25 3.0 -71.0 4.75 -71.5 6.5 -83.0 24.0 -91.5 41.5 -93.75 44.75 -93.5 45.5 -97.25 53.75 -118.0 24.75 -116.75 19.5 -112.25 9.25 -126.5 10.75 Q-128.25 11.75 -130.0 8.25 L-96.75 4.5 -66.0 -3.0 -67.25 0.0 -68.75 1.25" fill="#000000" fill-opacity="0.49803922" fill-rule="evenodd" stroke="none"/>
  </g>
</svg>
