<?xml version="1.0" encoding="UTF-8" standalone="no"?>
<svg xmlns:ffdec="https://www.free-decompiler.com/flash" xmlns:xlink="http://www.w3.org/1999/xlink" ffdec:objectType="shape" height="256.25px" width="370.25px" xmlns="http://www.w3.org/2000/svg">
  <g transform="matrix(1.0, 0.0, 0.0, 1.0, 191.25, 53.5)">
    <path d="M58.75 45.75 L69.5 69.0 Q90.25 88.75 89.75 93.5 L93.25 102.75 92.25 118.25 84.5 130.0 83.75 130.75 83.0 131.75 67.5 149.75 38.25 164.25 8.75 169.0 -9.5 166.75 -30.75 163.25 -44.5 156.0 -44.75 156.0 -60.0 148.0 -78.5 127.25 -84.0 113.5 Q-85.25 111.25 -81.75 109.0 L-80.5 103.75 Q-49.75 78.25 -23.25 13.5 L-23.0 14.25 -23.0 14.5 -21.75 18.0 -21.5 18.5 Q-11.25 43.0 11.75 43.25 L14.25 43.25 Q28.5 47.0 44.75 25.5 L45.0 24.75 45.25 24.5 49.0 16.5 56.0 33.75 58.75 45.75" fill="#ffffff" fill-rule="evenodd" stroke="none"/>
    <path d="M-11.0 -33.25 Q-12.5 -33.75 -15.5 -42.0 L-15.25 -49.25 -13.75 -50.75 -11.75 -51.75 -9.25 -52.5 -3.0 -53.5 4.25 -53.5 12.0 -52.75 14.75 -51.75 16.0 -51.75 17.75 -52.0 18.5 -52.0 20.25 -52.5 31.25 -53.0 37.75 -52.25 40.75 -51.5 44.25 -49.75 45.5 -48.5 45.25 -47.75 44.5 -39.75 Q41.5 -33.0 40.25 -32.75 37.75 -23.0 15.0 -30.25 0.25 -22.75 -11.0 -33.25 M28.25 -30.0 Q37.5 -35.25 30.5 -39.5 28.25 -40.5 24.75 -38.75 L21.75 -36.25 Q21.25 -32.75 23.75 -30.5 L28.25 -30.0 M-2.25 -38.5 Q-4.5 -35.0 -0.75 -31.75 L4.5 -30.5 Q15.5 -41.5 -2.25 -38.5" fill="#ffffff" fill-rule="evenodd" stroke="none"/>
    <path d="M28.25 -30.0 L23.75 -30.5 Q21.25 -32.75 21.75 -36.25 L24.75 -38.75 Q28.25 -40.5 30.5 -39.5 37.5 -35.25 28.25 -30.0 M-2.25 -38.5 Q15.5 -41.5 4.5 -30.5 L-0.75 -31.75 Q-4.5 -35.0 -2.25 -38.5" fill="#000000" fill-rule="evenodd" stroke="none"/>
    <path d="M40.25 -32.75 Q61.25 -26.5 49.0 16.5 L45.25 24.5 45.0 24.75 44.75 25.5 Q28.5 47.0 14.25 43.25 L11.75 43.25 Q-11.25 43.0 -21.5 18.5 L-21.75 18.0 -23.0 14.5 -23.0 14.25 -23.25 13.5 -23.5 13.0 Q-36.25 -20.5 -11.0 -33.25 0.25 -22.75 15.0 -30.25 37.75 -23.0 40.25 -32.75 M-89.5 121.25 L-89.0 121.5 -88.25 122.25 -83.75 125.25 -81.75 126.25 -81.0 126.75 -79.5 127.25 -77.5 128.25 -60.0 148.0 -44.75 156.0 -44.5 156.0 -30.75 163.25 -9.5 166.75 -12.75 184.5 Q-15.5 192.0 -18.25 194.25 L-19.75 196.0 -23.0 197.75 Q-29.75 203.5 -56.5 202.0 -75.25 201.25 -97.0 187.0 -96.0 187.5 -92.5 184.0 L-97.0 169.25 -102.5 155.75 -102.5 155.5 -108.75 140.5 -103.0 127.25 -96.5 116.0 -89.5 121.25 M29.25 196.0 L32.75 200.25 33.5 200.75 23.75 198.25 Q17.25 194.75 16.75 193.0 14.5 191.75 12.25 185.25 L8.75 169.0 38.25 164.25 67.5 149.75 83.0 131.75 83.75 130.75 84.5 130.0 86.0 128.0 86.75 126.75 89.0 125.75 89.25 125.5 90.75 124.5 91.75 124.0 93.25 123.0 94.5 121.75 97.75 119.5 89.75 127.75 88.75 129.0 63.5 155.5 37.0 185.25 29.25 196.0 M68.5 177.75 L92.75 159.0 93.5 158.25 101.5 152.0 102.0 151.75 109.25 146.25 110.5 154.0 Q111.0 193.0 55.25 201.0 L47.5 201.5 35.5 200.75 47.5 193.0 68.5 177.75" fill="#e58508" fill-rule="evenodd" stroke="none"/>
    <path d="M-77.5 -8.5 L-77.75 -7.25 -88.5 14.75 -88.25 15.5 -89.75 17.5 -97.25 37.5 -98.5 39.0 -98.75 41.5 -99.5 42.0 -100.0 45.0 -103.25 52.75 -108.75 71.25 -105.0 77.25 -92.0 90.0 -74.75 100.0 Q-82.25 103.5 -80.75 106.25 L-64.25 128.25 Q-48.6 138.4 -33.0 148.5 L-19.25 151.75 2.75 155.5 15.0 154.25 41.0 148.0 51.5 142.5 73.0 129.75 77.0 125.0 85.0 112.5 85.0 111.5 86.25 110.5 87.0 108.25 87.75 108.0 Q96.5 100.75 86.25 87.25 L95.75 80.75 107.0 69.0 97.5 28.75 89.75 1.0 90.75 1.5 117.0 40.75 123.25 47.25 143.25 74.75 Q144.25 75.75 146.75 72.5 L149.25 72.0 139.0 81.75 131.75 87.5 76.75 142.0 53.5 166.75 51.0 170.5 39.5 182.5 36.0 187.5 Q35.0 186.25 29.0 188.75 L23.75 191.25 23.25 193.25 Q30.75 193.25 34.0 199.75 L46.75 191.75 150.5 106.0 166.75 90.0 Q174.5 82.0 174.0 80.25 L178.25 80.25 178.75 79.5 179.0 85.75 Q175.75 93.25 172.5 95.75 L167.5 99.0 Q164.25 99.5 162.75 98.5 L153.5 109.75 109.25 146.5 74.75 173.25 50.0 191.75 42.25 196.5 Q97.5 195.0 109.5 163.5 109.5 176.25 92.25 189.0 71.75 203.0 34.25 201.0 12.25 202.25 9.0 169.25 L-9.5 166.75 Q-10.75 205.75 -43.0 202.5 -84.5 204.75 -127.25 166.75 -189.25 110.5 -191.25 80.75 -173.25 132.25 -100.25 185.25 L-96.0 186.75 -93.0 185.5 Q-79.25 194.5 -58.5 196.25 L-57.25 196.5 -57.0 197.5 Q-30.0 199.75 -19.0 191.0 L-19.75 189.25 -22.5 187.0 -33.0 183.5 -66.0 167.5 -86.25 144.5 Q-90.35 142.4 -94.5 140.25 L-102.0 134.25 -105.25 133.5 -103.0 127.25 -96.5 116.0 Q-118.0 99.5 -124.75 73.5 L-126.75 58.75 -126.5 41.5 -147.25 59.0 Q-147.5 59.35 -147.15 60.25 L-151.25 54.25 -138.5 42.75 -137.25 42.0 -138.5 43.5 -122.75 30.25 -114.0 24.25 -86.75 0.0 -78.5 -8.25 -77.5 -8.5 M-136.5 41.0 L-135.0 40.0 -136.0 41.25 -136.5 41.0 M141.5 77.25 L132.25 65.25 Q123.65 91.9 118.15 100.2 L141.5 77.25 M98.25 119.5 L99.0 118.5 97.75 119.25 98.25 119.5 M-27.0 -3.25 Q-22.0 39.5 11.75 41.0 48.75 41.75 53.5 -9.5 57.5 114.75 16.25 116.25 -24.75 117.5 -27.0 -3.25" fill="#000000" fill-opacity="0.49803922" fill-rule="evenodd" stroke="none"/>
  </g>
</svg>
