<?xml version="1.0" encoding="UTF-8" standalone="no"?>
<svg xmlns:ffdec="https://www.free-decompiler.com/flash" xmlns:xlink="http://www.w3.org/1999/xlink" ffdec:objectType="shape" height="272.5px" width="328.0px" xmlns="http://www.w3.org/2000/svg">
  <g transform="matrix(1.0, 0.0, 0.0, 1.0, 161.25, 69.5)">
    <path d="M52.25 145.5 L77.5 129.5 76.0 131.75 64.75 144.5 36.0 159.0 24.0 161.5 25.5 160.5 52.25 145.5 M45.75 22.25 L49.75 35.5 62.25 59.5 Q84.25 78.5 86.0 89.25 L54.0 116.5 52.5 118.0 31.25 136.5 18.5 148.75 7.0 161.0 9.0 164.75 8.25 165.0 5.25 165.25 -18.0 162.5 -32.5 159.5 -62.75 144.5 -81.25 124.25 -87.25 110.75 -87.5 108.0 Q-84.5 105.25 -84.75 99.5 -57.5 70.0 -35.5 2.5 L-34.5 4.75 Q-24.0 28.0 -1.5 27.75 L1.25 27.75 Q26.5 26.0 33.75 5.0 L33.75 4.75 34.0 4.25 34.5 2.75 34.75 2.5 35.0 1.75 36.0 -0.5 45.75 22.25" fill="#ffffff" fill-rule="evenodd" stroke="none"/>
    <path d="M6.0 -52.5 Q5.5 -49.0 8.0 -46.75 L12.25 -46.25 Q22.75 -51.75 13.25 -56.25 L8.5 -55.25 Q5.5 -53.5 6.0 -52.5 M-25.75 -47.75 Q-33.0 -57.5 -30.5 -63.75 L-29.0 -65.75 -27.5 -66.75 -25.25 -67.75 -16.0 -69.5 -4.5 -69.0 -3.25 -68.5 -3.25 -68.25 -0.25 -67.75 0.25 -68.0 3.5 -68.75 11.5 -69.5 18.75 -69.25 24.25 -68.0 28.25 -66.0 29.5 -64.5 30.0 -63.75 29.0 -55.25 25.25 -48.5 Q18.5 -38.75 -0.25 -46.0 -18.0 -38.75 -25.75 -47.75 M-15.5 -56.0 Q-22.75 -47.5 -11.25 -46.25 -0.75 -55.5 -15.5 -56.0" fill="#ffffff" fill-rule="evenodd" stroke="none"/>
    <path d="M6.0 -52.5 Q5.5 -53.5 8.5 -55.25 L13.25 -56.25 Q22.75 -51.75 12.25 -46.25 L8.0 -46.75 Q5.5 -49.0 6.0 -52.5 M-15.5 -56.0 Q-0.75 -55.5 -11.25 -46.25 -22.75 -47.5 -15.5 -56.0" fill="#000000" fill-rule="evenodd" stroke="none"/>
    <path d="M25.25 -48.5 Q47.25 -37.75 36.75 -4.0 L36.75 -3.25 36.0 -0.5 35.0 1.75 34.75 2.5 34.5 2.75 34.0 4.25 33.75 4.75 33.75 5.0 Q26.5 26.0 1.25 27.75 L-1.5 27.75 Q-24.0 28.0 -34.5 4.75 L-35.5 2.5 Q-49.5 -37.5 -25.75 -47.75 -18.0 -38.75 -0.25 -46.0 18.5 -38.75 25.25 -48.5 M76.0 131.75 L77.5 129.5 86.75 123.75 87.75 123.25 96.75 117.5 Q109.75 139.5 110.5 154.0 111.0 193.0 55.25 201.0 30.5 204.25 16.75 193.0 11.5 189.75 8.25 165.0 L9.0 164.75 10.5 166.0 12.0 166.5 24.0 161.5 36.0 159.0 64.75 144.5 76.0 131.75 M-89.5 121.25 L-89.0 121.5 -87.25 122.75 -86.75 123.0 -85.25 124.25 -79.25 127.0 -78.5 127.25 -62.75 144.5 -32.5 159.5 -18.0 162.5 -9.25 163.5 -12.75 184.5 Q-15.5 192.0 -18.25 194.25 L-19.75 196.0 -23.0 197.75 Q-29.75 203.5 -56.5 202.0 -114.0 193.25 -111.75 154.25 L-111.5 153.75 -111.5 153.5 Q-113.0 145.0 -96.5 116.25 L-91.0 120.0 -89.5 121.25" fill="#e58508" fill-rule="evenodd" stroke="none"/>
    <path d="M77.5 -9.25 L77.25 -12.5 86.25 1.25 127.0 54.75 127.75 55.25 Q133.0 50.0 134.5 50.5 L128.25 55.5 128.0 56.5 105.0 75.0 Q103.4 75.9 101.75 76.75 L92.0 37.75 78.5 -7.75 77.5 -9.25 M159.0 68.5 L166.25 58.5 Q168.75 65.25 159.25 76.75 L154.25 80.0 Q153.0 80.75 148.5 78.25 L135.0 91.5 96.75 117.25 100.5 123.5 104.25 132.5 102.0 132.5 Q96.75 137.0 92.5 138.25 L92.75 141.5 73.5 163.0 73.75 163.5 71.5 165.5 40.5 180.5 25.0 183.5 Q19.5 184.75 17.0 188.0 23.75 200.5 66.25 194.5 99.0 187.25 108.75 165.75 110.25 161.0 109.75 166.0 L105.0 176.5 99.75 183.0 92.0 189.25 Q72.25 203.0 33.25 200.75 8.5 198.25 8.5 165.25 L-8.75 163.5 Q-11.25 207.5 -43.0 202.5 -79.25 205.0 -105.75 178.25 L-109.75 169.75 Q-112.25 164.75 -110.75 164.0 -106.75 187.5 -57.0 197.5 -23.25 199.0 -16.5 188.25 L-19.0 185.0 -23.5 183.0 -33.0 181.0 -68.75 164.0 -90.0 140.75 Q-103.0 131.75 -105.25 132.75 L-102.0 125.0 -96.5 116.0 Q-118.75 102.25 -128.0 70.0 L-130.5 44.75 -129.75 32.0 -128.0 22.0 -138.75 28.5 -139.15 36.65 Q-139.9 27.95 -145.25 25.5 -141.75 22.75 -140.75 24.25 L-130.5 18.75 -115.5 7.5 -113.25 6.75 -112.75 5.5 -112.0 6.0 -109.75 4.0 -110.0 3.5 -106.5 2.0 -100.25 -2.5 -102.25 1.5 -104.0 3.0 -104.0 4.0 -107.0 7.5 -112.5 16.5 -115.0 19.0 -122.5 36.0 -121.0 46.75 -111.75 70.75 -96.75 88.75 -83.0 97.75 Q-87.25 103.5 -68.25 124.75 L-37.75 145.5 -32.25 147.25 0.75 153.5 16.5 150.5 9.25 158.5 9.5 159.0 7.0 161.0 8.75 161.5 Q8.0 162.5 11.75 165.25 L23.25 160.0 24.5 158.5 72.5 126.5 137.5 79.5 158.5 59.75 Q160.75 60.25 159.0 68.5 M49.5 120.5 L51.0 119.5 50.0 120.75 49.5 120.5 M52.75 118.0 L51.75 119.25 51.25 119.0 52.75 118.0 M53.0 117.5 L54.5 116.5 53.5 117.75 53.0 117.5 M19.5 147.5 L21.0 146.5 20.0 147.75 19.5 147.5 M33.0 135.5 L32.5 136.25 32.0 136.0 33.0 135.5 M35.0 133.4 L35.0 133.65 34.75 133.5 35.0 133.4 M28.75 139.0 L29.75 138.5 29.25 139.25 28.75 139.0 M26.0 142.25 L25.5 142.0 27.0 141.0 26.0 142.25 M23.75 144.0 L23.25 144.75 22.75 144.5 23.75 144.0 M2.5 85.75 Q-39.75 90.25 -40.25 -20.25 -35.25 25.75 -1.5 27.5 35.75 26.5 40.0 -21.5 39.25 84.75 2.5 85.75 M-153.75 -5.5 L-152.75 -6.0 -153.25 -5.25 -153.75 -5.5 M-160.75 9.25 L-161.25 8.5 -160.5 8.5 -160.75 9.25" fill="#000000" fill-opacity="0.49803922" fill-rule="evenodd" stroke="none"/>
  </g>
</svg>
