<?xml version="1.0" encoding="UTF-8" standalone="no"?>
<svg xmlns:ffdec="https://www.free-decompiler.com/flash" xmlns:xlink="http://www.w3.org/1999/xlink" ffdec:objectType="shape" height="308.15px" width="314.25px" xmlns="http://www.w3.org/2000/svg">
  <g transform="matrix(1.0, 0.0, 0.0, 1.0, 184.6, 143.15)">
    <path d="M86.5 -69.25 Q120.15 -4.95 127.1 21.35 L126.5 21.0 Q135.8 61.55 117.5 91.05 109.3 104.25 95.5 115.25 L86.1 122.0 82.5 124.0 65.25 144.0 36.25 158.75 8.25 164.75 4.75 165.0 -9.25 163.25 -29.6 159.3 Q-33.25 158.6 -36.75 157.25 L-62.25 144.75 -78.25 127.25 -80.6 126.25 Q-89.1 122.35 -96.5 116.25 -139.8 81.45 -128.95 25.5 L-128.25 21.5 -143.5 31.5 -162.0 68.75 -177.75 94.25 Q-185.0 102.25 -184.55 91.5 -183.7 71.95 -178.75 53.0 L-169.25 17.0 Q-163.85 3.85 -153.75 -5.5 L-135.25 -28.0 -116.0 -47.75 -94.75 -65.75 -87.0 -69.25 -70.25 -90.75 Q-1.55 -195.25 69.75 -91.25 L86.5 -69.25" fill="#2e47aa" fill-rule="evenodd" stroke="none"/>
  </g>
</svg>
