<?xml version="1.0" encoding="UTF-8" standalone="no"?>
<svg xmlns:ffdec="https://www.free-decompiler.com/flash" xmlns:xlink="http://www.w3.org/1999/xlink" ffdec:objectType="shape" height="308.15px" width="260.3px" xmlns="http://www.w3.org/2000/svg">
  <g transform="matrix(1.0, 0.0, 0.0, 1.0, 130.65, 143.15)">
    <path d="M83.0 -76.3 L83.0 -75.7 Q115.8 -33.55 126.5 21.0 140.0 79.75 95.5 115.25 L86.1 122.0 82.5 124.0 65.25 144.0 36.25 158.75 8.25 164.75 4.75 165.0 -9.25 163.25 -29.6 159.3 Q-33.25 158.6 -36.75 157.25 L-62.25 144.75 -78.25 127.25 -80.6 126.25 Q-89.1 122.35 -96.5 116.25 -139.75 86.0 -128.25 21.5 -113.9 -30.55 -91.45 -64.5 -80.1 -80.9 -70.25 -90.75 -1.55 -195.25 69.75 -91.25 76.6 -83.9 82.7 -76.1 L83.0 -76.3" fill="#2e47aa" fill-rule="evenodd" stroke="none"/>
  </g>
</svg>
