<?xml version="1.0" encoding="UTF-8" standalone="no"?>
<svg xmlns:ffdec="https://www.free-decompiler.com/flash" xmlns:xlink="http://www.w3.org/1999/xlink" ffdec:objectType="shape" height="159.35px" width="424.55px" xmlns="http://www.w3.org/2000/svg">
  <g transform="matrix(1.0, 0.0, 0.0, 1.0, 187.75, 78.65)">
    <path d="M79.8 -78.65 Q157.55 -77.5 226.35 -45.2 245.8 -36.1 229.05 -23.85 216.6 -14.7 200.9 -16.65 158.4 -22.15 126.85 11.8 115.55 20.2 108.7 1.85 95.4 -33.5 78.5 -67.15 L79.8 -78.65 M-83.1 -59.8 L-84.25 -59.15 Q-95.7 -8.65 -139.1 22.1 L-142.8 25.1 -179.75 80.7 -181.85 80.5 Q-183.8 80.25 -185.35 78.85 L-187.75 76.55 Q-181.85 -20.1 -98.0 -62.6 -89.1 -67.05 -79.25 -65.05 L-79.85 -63.75 Q-80.45 -62.55 -81.25 -61.5 L-83.1 -59.8" fill="#2e47aa" fill-rule="evenodd" stroke="none"/>
  </g>
</svg>
