<?xml version="1.0" encoding="UTF-8" standalone="no"?>
<svg xmlns:ffdec="https://www.free-decompiler.com/flash" xmlns:xlink="http://www.w3.org/1999/xlink" ffdec:objectType="shape" height="151.05px" width="368.3px" xmlns="http://www.w3.org/2000/svg">
  <g transform="matrix(1.0, 0.0, 0.0, 1.0, 167.85, 74.5)">
    <path d="M78.75 -69.55 Q156.85 -79.05 192.2 -3.7 213.95 42.65 178.25 63.8 L175.45 63.75 143.35 4.1 Q118.8 5.65 95.85 -3.3 L92.1 -8.3 85.45 -10.8 78.75 -44.45 78.75 -69.55 M-124.8 -3.25 Q-126.3 10.35 -126.55 23.9 -127.1 52.65 -137.8 76.55 -145.25 74.95 -149.05 68.75 -173.6 28.95 -166.1 -18.85 -164.3 -30.55 -155.75 -38.4 -124.35 -67.55 -80.45 -74.5 L-79.7 -70.4 Q-75.95 -48.2 -89.0 -30.5 -103.8 -12.7 -124.8 -3.25" fill="#2e47aa" fill-rule="evenodd" stroke="none"/>
  </g>
</svg>
