<?xml version="1.0" encoding="UTF-8" standalone="no"?>
<svg xmlns:ffdec="https://www.free-decompiler.com/flash" xmlns:xlink="http://www.w3.org/1999/xlink" ffdec:objectType="shape" height="159.5px" width="306.5px" xmlns="http://www.w3.org/2000/svg">
  <g transform="matrix(1.0, 0.0, 0.0, 1.0, 158.5, 81.6)">
    <path d="M89.05 -23.9 Q66.25 -48.1 76.25 -81.6 113.65 -66.45 144.3 -42.95 147.7 -40.35 147.9 -36.45 150.45 19.15 100.75 51.0 101.25 51.4 100.2 52.2 94.3 56.2 87.1 54.85 L85.9 53.6 Q77.15 43.9 81.1 29.15 L81.25 22.55 Q81.6 12.45 82.3 3.65 L82.85 -2.05 Q84.35 -13.4 89.05 -23.9 M-97.25 -52.25 Q-80.15 -23.15 -95.05 7.05 L-80.15 34.95 Q-76.9 41.5 -75.8 44.55 L-74.65 47.65 -72.6 52.9 Q-57.35 82.7 -84.0 77.0 -139.7 65.3 -157.8 12.95 -159.55 7.9 -156.8 2.55 -135.3 -39.05 -93.1 -59.3 -93.35 -56.75 -95.15 -54.65 L-97.25 -52.25" fill="#2e47aa" fill-rule="evenodd" stroke="none"/>
  </g>
</svg>
