<?xml version="1.0" encoding="UTF-8" standalone="no"?>
<svg xmlns:ffdec="https://www.free-decompiler.com/flash" xmlns:xlink="http://www.w3.org/1999/xlink" ffdec:objectType="shape" height="309.0px" width="313.8px" xmlns="http://www.w3.org/2000/svg">
  <g transform="matrix(1.0, 0.0, 0.0, 1.0, 156.85, 178.2)">
    <path d="M-79.55 65.65 L-79.85 65.8 -79.95 65.05 -79.55 65.65" fill="#ffffff" fill-rule="evenodd" stroke="none"/>
    <path d="M88.3 -108.45 Q110.75 -82.4 139.45 -62.55 152.0 -53.85 153.85 -48.3 155.7 -42.8 156.9 -31.8 158.05 -20.8 139.0 7.3 L134.7 12.25 Q134.95 53.6 100.55 81.05 L91.15 87.8 87.55 89.8 70.3 109.8 41.3 124.55 13.3 130.55 9.8 130.8 -4.2 129.05 -24.55 125.1 Q-28.2 124.4 -31.7 123.05 L-57.2 110.55 -73.2 93.05 Q-78.15 91.3 -82.8 88.2 -82.95 88.05 -83.2 88.05 L-91.45 82.05 Q-122.15 59.95 -125.2 22.25 L-136.8 8.95 -137.05 8.35 Q-140.9 2.9 -145.15 -1.95 -167.7 -28.0 -146.85 -51.6 -129.4 -71.25 -106.5 -84.8 -95.8 -91.2 -86.65 -99.55 L-81.6 -104.4 -64.95 -125.8 Q3.75 -230.3 75.05 -126.3 L88.3 -108.45 M93.6 61.05 L93.85 61.2 93.8 60.7 93.6 61.05 M-79.85 65.8 L-79.85 65.9 -79.45 65.55 -79.55 65.65 -79.95 65.05 -79.85 65.8" fill="#2e47aa" fill-rule="evenodd" stroke="none"/>
    <path d="M93.6 61.05 L93.8 60.7 93.85 61.2 93.6 61.05 M-79.55 65.65 L-79.45 65.55 -79.85 65.9 -79.85 65.8 -79.55 65.65" fill="#808080" fill-rule="evenodd" stroke="none"/>
  </g>
</svg>
