<?xml version="1.0" encoding="UTF-8" standalone="no"?>
<svg xmlns:ffdec="https://www.free-decompiler.com/flash" xmlns:xlink="http://www.w3.org/1999/xlink" ffdec:objectType="shape" height="274.9px" width="312.3px" xmlns="http://www.w3.org/2000/svg">
  <g transform="matrix(1.0, 0.0, 0.0, 1.0, 182.6, 70.75)">
    <path d="M-25.75 -48.5 Q-29.2 -52.2 -29.95 -57.3 -30.5 -60.9 -30.5 -64.5 L-29.25 -66.5 -26.5 -68.0 Q-4.0 -73.55 25.5 -67.95 L25.75 -68.0 26.5 -67.75 28.25 -66.75 Q28.45 -65.7 29.5 -65.25 L30.0 -64.5 Q29.5 -56.0 28.5 -55.0 L25.25 -49.25 Q18.5 -39.5 -0.5 -47.0 -17.5 -39.25 -25.75 -48.5 M-11.75 -47.0 Q-0.5 -56.25 -15.5 -56.75 -22.5 -48.75 -11.75 -47.0 M12.0 -47.0 Q22.5 -52.5 14.0 -57.0 -1.5 -55.0 12.0 -47.0" fill="#ffffff" fill-rule="evenodd" stroke="none"/>
    <path d="M25.25 -49.25 L27.6 -47.6 Q47.9 -28.9 36.0 -1.25 12.5 42.1 -25.1 13.75 -31.55 8.9 -35.5 1.75 L-38.5 -8.25 Q-48.0 -33.0 -25.75 -48.5 -17.5 -39.25 -0.5 -47.0 18.5 -39.5 25.25 -49.25 M-96.5 116.25 Q-89.1 122.35 -80.6 126.25 L-78.25 127.25 -62.25 144.75 -36.75 157.25 Q-33.25 158.6 -29.6 159.3 L-9.25 163.25 Q-16.2 211.45 -66.75 199.15 -120.7 185.95 -104.95 132.5 -102.35 123.7 -96.5 116.25 M16.75 193.0 Q11.5 190.0 8.25 164.75 L36.25 158.75 65.25 144.0 82.5 124.0 86.1 122.0 95.5 115.25 Q111.0 141.75 110.5 154.0 111.0 193.0 55.25 201.0 30.5 204.25 16.75 193.0" fill="#e58508" fill-rule="evenodd" stroke="none"/>
    <path d="M12.0 -47.0 Q-1.5 -55.0 14.0 -57.0 22.5 -52.5 12.0 -47.0 M-11.75 -47.0 Q-22.5 -48.75 -15.5 -56.75 -0.5 -56.25 -11.75 -47.0" fill="#000000" fill-rule="evenodd" stroke="none"/>
    <path d="M39.5 -20.5 Q40.2 22.25 29.0 59.0 19.25 84.0 1.25 84.0 -21.0 86.25 -28.25 63.25 -39.55 38.1 -40.5 -20.5 -35.05 28.35 1.5 26.25 39.0 17.3 39.25 -20.5 L39.5 -20.5 M106.75 1.25 L110.5 4.3 105.15 0.65 Q105.85 1.05 106.75 1.25 M115.05 59.9 Q120.8 48.05 122.5 35.0 114.65 15.15 100.5 -2.5 L126.6 21.0 Q130.6 36.95 129.45 53.4 128.85 62.45 126.15 71.15 123.9 78.35 120.2 85.1 L117.2 90.4 115.5 93.05 113.7 95.6 Q106.85 105.05 98.1 112.75 L95.5 115.0 104.0 131.75 92.5 138.0 Q80.35 158.0 60.85 170.75 51.05 177.15 40.45 181.15 32.05 184.3 23.2 186.1 L17.0 187.25 Q33.45 199.6 53.9 198.3 66.75 197.1 78.35 191.45 84.4 188.5 89.8 184.6 L93.95 181.4 95.9 179.7 99.7 176.1 Q105.4 170.3 109.5 163.5 104.6 175.9 95.2 185.4 90.0 190.65 83.55 194.25 78.05 197.35 72.05 199.15 L66.95 200.3 64.3 200.95 61.65 201.4 Q51.25 202.8 40.9 201.85 29.0 201.4 19.7 194.35 12.45 188.75 10.2 180.05 8.25 172.55 8.5 164.75 L-9.0 163.25 Q-8.2 174.65 -12.55 185.15 -14.75 190.4 -18.8 194.3 -22.1 197.55 -26.4 199.55 L-30.05 201.05 -32.0 201.8 -34.0 202.4 Q-42.35 204.25 -50.75 204.15 -65.75 203.95 -79.25 197.4 -92.65 190.85 -101.95 179.3 -84.85 193.25 -63.15 196.95 -53.75 198.35 -44.3 197.15 -32.7 195.55 -22.15 191.0 L-16.5 188.5 Q-17.9 185.1 -21.35 183.85 -27.3 181.65 -32.25 178.7 -61.65 160.85 -89.55 140.75 L-97.5 135.1 Q-99.95 133.35 -102.7 132.8 L-105.0 132.75 -96.25 115.75 Q-109.0 104.75 -117.75 90.4 -122.65 82.35 -125.75 73.35 -128.25 66.05 -129.35 58.25 L-130.15 51.9 -130.4 48.65 -130.5 45.4 Q-130.7 33.3 -128.5 21.5 L-143.25 31.25 -175.15 91.05 Q-177.35 95.25 -181.1 97.8 -183.65 82.85 -181.8 67.2 -179.95 51.65 -174.75 37.0 -179.4 52.55 -174.35 67.85 L-173.35 70.0 Q-157.55 57.65 -148.25 39.75 L-149.25 38.75 -148.5 36.75 Q-152.35 35.55 -155.15 32.85 L-141.0 24.25 Q-119.55 12.2 -100.25 -3.0 -113.3 15.6 -122.75 36.25 -117.0 54.0 -107.25 69.2 -97.25 84.75 -83.25 97.75 L-85.05 99.0 Q-80.35 118.05 -64.95 130.6 -54.55 139.0 -41.85 144.0 -30.45 148.45 -18.35 150.55 L-8.85 151.8 -4.15 152.1 0.55 152.1 Q17.4 151.95 32.7 144.85 51.5 136.1 67.05 122.65 78.5 112.85 87.35 100.05 L88.35 98.2 87.25 91.5 Q105.5 79.55 115.05 59.9" fill="#000000" fill-opacity="0.49803922" fill-rule="evenodd" stroke="none"/>
  </g>
</svg>
