<?xml version="1.0" encoding="UTF-8" standalone="no"?>
<svg xmlns:ffdec="https://www.free-decompiler.com/flash" xmlns:xlink="http://www.w3.org/1999/xlink" ffdec:objectType="shape" height="274.7px" width="260.25px" xmlns="http://www.w3.org/2000/svg">
  <g transform="matrix(1.0, 0.0, 0.0, 1.0, 130.5, 70.75)">
    <path d="M-25.75 -48.5 Q-29.2 -52.2 -29.95 -57.3 -30.5 -60.9 -30.5 -64.5 L-29.25 -66.5 -26.5 -68.0 Q-6.35 -63.65 14.2 -66.4 L25.75 -68.0 26.5 -67.75 28.25 -66.75 Q28.45 -65.7 29.5 -65.25 L30.0 -64.5 Q29.5 -56.0 28.5 -55.0 L25.25 -49.25 Q15.75 -39.85 2.35 -45.75 L-0.5 -47.0 Q-14.3 -39.1 -25.75 -48.5 M14.0 -57.0 Q-1.5 -55.0 12.0 -47.0 22.5 -52.5 14.0 -57.0 M-15.5 -56.75 Q-22.5 -48.75 -11.75 -47.0 -0.5 -56.25 -15.5 -56.75" fill="#ffffff" fill-rule="evenodd" stroke="none"/>
    <path d="M-25.75 -48.5 Q-14.3 -39.1 -0.5 -47.0 L2.35 -45.75 Q15.75 -39.85 25.25 -49.25 L27.3 -47.9 Q48.2 -29.35 36.0 -1.25 32.5 10.9 22.05 17.4 -15.4 40.7 -35.5 1.75 L-38.7 -8.15 Q-47.45 -33.15 -25.75 -48.5 M8.25 164.75 L36.25 158.75 65.25 144.0 82.5 124.0 86.1 122.0 95.5 115.25 Q111.0 141.75 110.5 154.0 111.0 193.0 55.25 201.0 30.5 204.25 16.75 193.0 11.5 190.0 8.25 164.75 M-96.5 116.25 Q-89.1 122.35 -80.6 126.25 L-78.25 127.25 -62.25 144.75 -36.75 157.25 Q-33.25 158.6 -29.6 159.3 L-9.25 163.25 Q-16.2 211.45 -66.75 199.15 -120.7 185.95 -104.95 132.5 -102.35 123.7 -96.5 116.25" fill="#e58508" fill-rule="evenodd" stroke="none"/>
    <path d="M14.0 -57.0 Q22.5 -52.5 12.0 -47.0 -1.5 -55.0 14.0 -57.0 M-15.5 -56.75 Q-0.5 -56.25 -11.75 -47.0 -22.5 -48.75 -15.5 -56.75" fill="#000000" fill-rule="evenodd" stroke="none"/>
    <path d="M28.5 -55.0 L25.25 -49.25 Q18.5 -39.5 -0.5 -47.0 -17.5 -39.25 -25.75 -48.5 -29.2 -52.2 -29.95 -57.3 -30.5 -60.9 -30.5 -64.5 L-29.25 -66.5 -26.5 -68.0 Q-4.0 -73.55 25.5 -67.95 L25.75 -68.0 26.5 -67.75 28.25 -66.75 Q28.45 -65.7 29.5 -65.25 L30.0 -64.5 Q29.5 -56.0 28.5 -55.0 M-11.75 -47.0 Q-0.5 -56.25 -15.5 -56.75 -22.5 -48.75 -11.75 -47.0 M12.0 -47.0 Q22.5 -52.5 14.0 -57.0 -1.5 -55.0 12.0 -47.0" fill="#ffffff" fill-rule="evenodd" stroke="none"/>
    <path d="M12.0 -47.0 Q-1.5 -55.0 14.0 -57.0 22.5 -52.5 12.0 -47.0 M-11.75 -47.0 Q-22.5 -48.75 -15.5 -56.75 -0.5 -56.25 -11.75 -47.0" fill="#000000" fill-rule="evenodd" stroke="none"/>
    <path d="M88.35 98.2 L88.5 95.75 Q88.2 93.8 87.25 91.5 117.4 71.1 122.5 35.0 L115.5 19.75 100.5 -2.5 126.6 21.0 Q139.7 75.4 98.1 112.75 L95.5 115.0 104.0 131.75 Q101.15 132.8 98.7 134.75 96.0 136.95 92.5 138.0 66.8 178.7 17.0 187.25 44.45 207.3 78.3 191.35 98.0 182.0 109.5 163.5 91.8 205.7 40.9 201.85 7.45 199.25 8.5 164.75 L-9.0 163.25 Q-7.9 204.8 -50.75 203.95 -82.3 203.3 -101.95 179.3 -61.9 210.55 -16.5 188.5 -17.7 185.25 -21.35 183.85 -27.2 181.6 -33.5 180.75 L-69.75 163.25 -89.75 141.0 Q-94.9 136.9 -100.55 133.6 -102.65 132.35 -105.0 132.75 L-96.25 115.75 Q-145.25 71.35 -124.1 8.8 -114.9 9.75 -107.75 2.75 -104.4 -0.5 -100.25 -3.0 -113.55 15.5 -122.75 36.25 L-121.0 47.25 -111.25 71.75 -83.25 97.75 -85.05 99.0 -85.0 100.75 -68.0 124.75 -37.25 145.5 Q0.55 159.0 38.25 145.0 L69.5 125.5 86.75 101.5 87.55 100.2 88.35 98.2 M106.75 1.25 L110.5 4.3 105.15 0.65 Q105.85 1.05 106.75 1.25" fill="#000000" fill-opacity="0.49803922" fill-rule="evenodd" stroke="none"/>
    <path d="M39.5 -20.5 Q40.2 22.25 29.0 59.0 19.25 84.0 1.25 84.0 -21.0 86.25 -28.25 63.25 -39.55 38.1 -40.5 -20.5 -35.05 28.35 1.5 26.25 39.0 17.3 39.25 -20.5 L39.5 -20.5" fill="#000000" fill-opacity="0.49803922" fill-rule="evenodd" stroke="none"/>
  </g>
</svg>
