<?xml version="1.0" encoding="UTF-8" standalone="no"?>
<svg xmlns:ffdec="https://www.free-decompiler.com/flash" xmlns:xlink="http://www.w3.org/1999/xlink" ffdec:objectType="shape" height="111.0px" width="419.65px" xmlns="http://www.w3.org/2000/svg">
  <g transform="matrix(1.0, 0.0, 0.0, 1.0, 185.85, 28.35)">
    <path d="M109.8 -4.2 Q128.35 -7.5 146.15 -14.7 156.75 -18.9 167.8 -18.8 201.5 -18.45 232.55 -28.35 L233.8 -27.4 233.4 -25.5 Q209.15 -12.65 183.65 -16.35 148.3 -13.85 125.65 12.5 127.25 14.6 126.65 17.35 126.0 20.5 123.15 18.75 L121.65 15.4 Q111.95 9.15 104.15 0.75 101.65 -0.85 100.25 -3.35 L101.2 -3.95 Q105.45 -6.0 109.8 -4.2 M-103.1 -7.65 L-101.15 -8.1 -99.85 -6.5 Q-112.45 13.2 -135.55 15.9 -159.7 47.5 -178.35 82.65 L-184.35 82.4 Q-189.5 56.0 -177.25 31.9 L-181.7 55.55 -180.85 56.4 -181.45 59.8 Q-152.85 48.4 -140.3 16.65 L-143.95 17.4 Q-149.6 18.35 -153.6 14.15 -145.2 15.6 -137.15 13.6 L-136.0 12.5 -134.8 13.1 Q-114.95 8.85 -103.1 -7.65" fill="#000000" fill-opacity="0.49803922" fill-rule="evenodd" stroke="none"/>
  </g>
</svg>
