<?xml version="1.0" encoding="UTF-8" standalone="no"?>
<svg xmlns:ffdec="https://www.free-decompiler.com/flash" xmlns:xlink="http://www.w3.org/1999/xlink" ffdec:objectType="shape" height="95.2px" width="365.25px" xmlns="http://www.w3.org/2000/svg">
  <g transform="matrix(1.0, 0.0, 0.0, 1.0, 164.2, 18.1)">
    <path d="M101.05 -9.0 Q122.2 6.05 149.15 -0.75 160.6 22.45 173.55 44.65 190.75 45.8 198.9 29.0 L201.05 29.9 200.6 35.25 Q197.15 58.2 174.8 63.55 157.35 34.65 143.55 3.9 L122.8 3.5 Q125.95 11.05 126.15 19.35 L121.75 16.8 Q106.45 7.8 99.4 -8.2 L101.05 -9.0 M-138.0 -8.9 L-140.75 -9.6 -137.95 -9.45 Q-117.35 -8.7 -99.0 -18.1 L-96.35 -17.85 Q-94.1 -13.8 -96.2 -9.3 -98.3 -4.75 -101.75 -0.8 L-102.5 -0.6 -102.85 0.4 -107.25 2.95 Q-114.3 7.25 -121.75 9.75 L-122.5 10.9 Q-122.8 4.95 -120.65 -0.75 -119.8 -3.0 -120.35 -5.35 L-124.75 -4.75 Q-123.0 39.7 -138.7 77.1 -166.5 61.8 -164.0 29.65 L-163.2 28.9 -161.6 29.4 Q-160.5 34.55 -158.6 39.5 -154.6 49.75 -145.65 55.7 L-143.65 54.9 Q-124.2 24.5 -138.0 -8.9" fill="#000000" fill-opacity="0.49803922" fill-rule="evenodd" stroke="none"/>
  </g>
</svg>
