<?xml version="1.0" encoding="UTF-8" standalone="no"?>
<svg xmlns:ffdec="https://www.free-decompiler.com/flash" xmlns:xlink="http://www.w3.org/1999/xlink" ffdec:objectType="shape" height="274.95px" width="288.75px" xmlns="http://www.w3.org/2000/svg">
  <g transform="matrix(1.0, 0.0, 0.0, 1.0, 144.9, 70.75)">
    <path d="M-25.75 -48.5 Q-29.2 -52.2 -29.95 -57.3 -30.5 -60.9 -30.5 -64.5 L-29.25 -66.5 -26.5 -68.0 Q-4.0 -73.55 25.5 -67.95 L25.75 -68.0 26.5 -67.75 28.25 -66.75 Q28.45 -65.7 29.5 -65.25 L30.0 -64.5 Q29.5 -56.0 28.5 -55.0 L25.25 -49.25 Q21.95 -44.45 15.65 -43.8 9.55 -42.55 2.35 -45.75 L0.3 -46.65 0.0 -46.8 -0.5 -47.0 Q-7.7 -42.85 -14.25 -43.45 -21.3 -43.5 -25.75 -48.5 M14.0 -57.0 Q-1.5 -55.0 12.0 -47.0 22.5 -52.5 14.0 -57.0 M-15.5 -56.75 Q-22.5 -48.75 -11.75 -47.0 -0.5 -56.25 -15.5 -56.75" fill="#ffffff" fill-rule="evenodd" stroke="none"/>
    <path d="M-25.75 -48.5 Q-21.3 -43.5 -14.25 -43.45 -7.7 -42.85 -0.5 -47.0 L0.0 -46.8 0.3 -46.65 2.35 -45.75 Q9.55 -42.55 15.65 -43.8 21.95 -44.45 25.25 -49.25 L27.3 -47.9 Q48.2 -29.35 36.0 -1.25 32.5 10.9 22.05 17.4 -15.4 40.7 -35.5 1.75 L-38.7 -8.15 Q-47.45 -33.15 -25.75 -48.5 M8.25 164.75 L36.25 158.75 65.25 144.0 82.5 124.0 86.1 122.0 95.5 115.25 Q111.0 141.75 110.5 154.0 111.0 193.0 55.25 201.0 30.5 204.25 16.75 193.0 11.5 190.0 8.25 164.75 M-96.5 116.25 Q-89.1 122.35 -80.6 126.25 L-78.25 127.25 -62.25 144.75 -36.75 157.25 Q-33.25 158.6 -29.6 159.3 L-9.25 163.25 Q-16.2 211.45 -66.75 199.15 -120.7 185.95 -104.95 132.5 -102.35 123.7 -96.5 116.25" fill="#e58508" fill-rule="evenodd" stroke="none"/>
    <path d="M14.0 -57.0 Q22.5 -52.5 12.0 -47.0 -1.5 -55.0 14.0 -57.0 M-15.5 -56.75 Q-0.5 -56.25 -11.75 -47.0 -22.5 -48.75 -15.5 -56.75" fill="#000000" fill-rule="evenodd" stroke="none"/>
    <path d="M39.5 -20.5 Q40.2 22.25 29.0 59.0 19.25 84.0 1.25 84.0 -21.0 86.25 -28.25 63.25 -39.55 38.1 -40.5 -20.5 -35.05 28.35 1.5 26.25 39.0 17.3 39.25 -20.5 L39.5 -20.5 M43.25 196.75 Q45.7 195.65 46.5 195.7 80.75 197.0 108.95 168.95 82.85 206.7 46.5 201.55 L43.0 200.95 34.95 200.95 Q9.8 194.45 8.25 163.15 L4.75 163.3 Q-2.15 165.95 -9.7 165.35 -9.1 173.65 -12.8 181.0 L-14.45 185.1 Q-43.65 216.85 -87.05 195.85 -94.95 191.95 -99.35 184.5 -55.25 210.95 -19.6 184.3 -68.15 169.95 -103.95 131.45 L-96.85 118.4 Q-122.85 90.95 -130.05 53.85 -138.0 51.15 -142.45 44.0 -143.9 41.7 -144.9 39.0 -120.7 50.35 -95.1 57.65 L-91.85 55.4 Q-88.35 36.8 -96.35 19.55 -75.6 36.7 -72.05 63.0 -93.8 80.7 -115.2 60.8 -110.35 76.2 -96.85 84.9 -70.0 128.8 -24.5 148.4 L46.5 142.4 Q74.3 128.55 86.95 97.45 88.25 94.2 88.9 90.75 112.0 79.55 115.85 53.5 117.05 45.55 117.25 37.35 102.5 65.3 75.7 60.75 74.15 60.55 73.85 58.5 69.6 27.45 85.55 0.65 80.25 25.4 89.4 48.75 110.8 44.8 124.9 24.0 133.25 11.7 143.85 0.75 136.75 18.55 131.2 23.1 L129.25 24.7 Q140.7 82.8 96.0 114.75 100.25 123.3 105.15 131.4 103.85 135.15 99.15 136.1 L94.15 137.2 Q88.4 152.5 74.05 160.65 L73.5 160.5 Q61.85 172.75 43.0 181.05 L18.65 183.1 Q19.55 194.95 43.25 196.75 M-141.6 34.25 L-141.75 33.25 -140.55 34.25 -141.6 34.25" fill="#000000" fill-opacity="0.49803922" fill-rule="evenodd" stroke="none"/>
    <path d="M18.65 183.1 L43.0 181.05" fill="none" stroke="#333333" stroke-linecap="round" stroke-linejoin="round" stroke-width="1.0"/>
    <path d="M43.25 196.75 Q19.55 194.95 18.65 183.1" fill="none" stroke="#333333" stroke-linecap="round" stroke-linejoin="round" stroke-width="1.0"/>
  </g>
</svg>
