<?xml version="1.0" encoding="UTF-8" standalone="no"?>
<svg xmlns:ffdec="https://www.free-decompiler.com/flash" xmlns:xlink="http://www.w3.org/1999/xlink" ffdec:objectType="shape" height="274.5px" width="293.75px" xmlns="http://www.w3.org/2000/svg">
  <g transform="matrix(1.0, 0.0, 0.0, 1.0, 141.05, 105.8)">
    <path d="M-20.7 -82.7 Q-24.15 -86.4 -24.9 -91.5 -25.45 -95.1 -25.45 -98.7 L-24.9 -99.55 -25.2 -99.55 -23.95 -101.55 -21.2 -103.05 Q1.3 -108.6 30.8 -103.0 L31.05 -103.05 31.8 -102.8 33.55 -101.8 Q33.75 -100.75 34.8 -100.3 L35.3 -99.55 34.35 -99.55 34.55 -99.45 35.05 -98.7 Q34.55 -90.2 33.55 -89.2 L30.3 -83.45 Q20.8 -74.05 7.4 -79.95 L4.55 -81.2 Q-9.25 -73.3 -20.7 -82.7 M17.05 -81.2 Q27.55 -86.7 19.05 -91.2 3.55 -89.2 17.05 -81.2 M-10.45 -90.95 Q-17.45 -82.95 -6.7 -81.2 4.55 -90.45 -10.45 -90.95" fill="#ffffff" fill-rule="evenodd" stroke="none"/>
    <path d="M123.35 13.55 L123.7 13.2 125.35 12.05 123.35 13.55" fill="#2e47aa" fill-rule="evenodd" stroke="none"/>
    <path d="M30.3 -83.45 L32.35 -82.1 Q53.25 -63.55 41.05 -35.45 37.55 -23.3 27.1 -16.8 -10.35 6.5 -30.45 -32.45 L-33.65 -42.35 Q-42.4 -67.35 -20.7 -82.7 -9.25 -73.3 4.55 -81.2 L7.4 -79.95 Q20.8 -74.05 30.3 -83.45 M-74.85 162.15 L-78.75 160.3 Q-120.8 137.65 -99.15 96.35 L-91.45 82.05 -83.2 88.05 Q-82.95 88.05 -82.8 88.2 -78.15 91.3 -73.2 93.05 L-57.2 110.55 -31.7 123.05 Q-28.2 124.4 -24.55 125.1 L-4.2 129.05 Q-1.8 160.7 -29.95 165.95 -36.9 167.3 -43.8 167.45 L-43.75 166.8 -49.75 166.5 Q-62.5 165.0 -74.85 162.15 M91.15 87.8 L100.55 81.05 Q106.2 90.75 109.75 98.5 L112.05 103.9 Q115.8 113.65 115.55 119.8 115.7 132.75 109.7 142.25 89.55 166.0 57.4 168.45 14.75 171.85 13.3 130.55 L41.3 124.55 70.3 109.8 87.55 89.8 91.15 87.8" fill="#e58508" fill-rule="evenodd" stroke="none"/>
    <path d="M-10.45 -90.95 Q4.55 -90.45 -6.7 -81.2 -17.45 -82.95 -10.45 -90.95 M17.05 -81.2 Q3.55 -89.2 19.05 -91.2 27.55 -86.7 17.05 -81.2" fill="#000000" fill-rule="evenodd" stroke="none"/>
    <path d="M-79.85 65.9 L-79.85 65.8 -79.45 65.55 -79.85 65.9 M93.6 61.05 L93.8 60.7 93.85 61.2 93.6 61.05" fill="#808080" fill-rule="evenodd" stroke="none"/>
    <path d="M-43.8 167.45 Q-59.45 167.85 -74.85 162.15 -62.5 165.0 -49.75 166.5 L-43.75 166.8 -43.8 167.45" fill="#734304" fill-rule="evenodd" stroke="none"/>
    <path d="M44.8 -55.15 Q45.5 -12.4 34.3 24.35 24.55 49.35 6.55 49.35 -15.7 51.6 -22.95 28.6 -34.25 3.45 -35.2 -55.15 -29.75 -6.3 6.8 -8.4 44.3 -17.35 44.55 -55.15 L44.8 -55.15 M-43.75 166.8 Q-23.7 166.6 -14.55 151.05 -28.65 148.05 -41.3 141.15 -73.65 123.55 -99.15 96.35 L-91.45 82.05 Q-122.15 59.95 -125.2 22.25 L-136.8 8.95 -137.05 8.35 -137.2 7.85 Q-138.3 5.2 -139.7 2.75 -141.15 0.2 -141.05 -2.7 -118.85 18.3 -87.45 17.45 -92.35 -5.05 -92.3 -26.85 L-92.1 -26.85 Q-86.25 -17.8 -82.4 -7.45 -80.55 -4.0 -79.1 -0.45 -76.5 6.0 -75.5 12.85 L-74.9 18.45 Q-71.3 31.6 -82.95 33.55 -98.7 36.4 -111.6 25.6 -110.5 27.25 -109.9 29.05 -101.5 53.9 -79.85 65.9 L-79.45 65.55 -77.7 67.0 Q-76.9 67.6 -76.3 68.45 -75.7 69.3 -75.25 70.3 L-74.3 72.7 -74.3 75.3 Q-51.6 98.35 -20.2 106.35 L-19.45 105.95 -16.25 106.55 Q54.35 121.05 93.6 61.05 L93.85 61.2 95.7 61.3 98.1 58.7 Q111.15 43.05 118.65 24.35 111.55 28.2 104.0 30.45 91.25 34.3 81.55 26.45 L82.1 20.3 Q82.8 11.0 82.3 1.9 L82.2 -4.3 83.8 -5.85 84.3 -6.05 Q90.15 -2.5 89.2 4.55 88.5 9.95 93.25 10.7 129.2 15.3 151.35 -18.05 L152.05 -16.5 152.4 -16.15 152.7 -15.8 Q152.1 -8.75 146.2 -3.8 144.2 2.3 139.45 6.7 L134.7 12.25 Q134.95 53.6 100.55 81.05 106.2 90.75 109.75 98.5 L112.05 103.9 112.3 104.65 Q106.55 106.6 102.3 110.4 71.4 137.8 33.0 147.25 L33.35 147.7 33.45 148.2 33.4 150.3 33.6 152.3 33.8 153.05 Q36.05 154.05 38.4 154.75 77.25 167.4 109.7 142.25 89.55 166.0 57.4 168.45 14.75 171.85 13.3 130.55 L9.8 130.8 -4.2 129.05 Q-1.8 160.7 -29.95 165.95 -36.9 167.3 -43.8 167.45 L-43.75 166.8 M125.35 12.05 L123.7 13.2 123.35 13.55 125.35 12.05" fill="#000000" fill-opacity="0.49803922" fill-rule="evenodd" stroke="none"/>
    <path d="M-43.8 167.45 Q-59.45 167.85 -74.85 162.15 -62.5 165.0 -49.75 166.5 L-43.75 166.8 -43.8 167.45" fill="#734304" fill-rule="evenodd" stroke="none"/>
  </g>
</svg>
