<?xml version="1.0" encoding="UTF-8" standalone="no"?>
<svg xmlns:ffdec="https://www.free-decompiler.com/flash" xmlns:xlink="http://www.w3.org/1999/xlink" ffdec:objectType="shape" height="313.0px" width="258.75px" xmlns="http://www.w3.org/2000/svg">
  <g transform="matrix(1.0, 0.0, 0.0, 1.0, 130.2, 148.0)">
    <path d="M48.95 -117.3 Q70.3 -95.35 86.5 -69.25 131.55 41.2 128.35 61.8 125.7 79.0 115.9 93.5 107.45 106.0 95.5 115.25 90.3 120.05 84.2 123.15 L82.75 123.75 Q71.75 137.15 57.1 146.35 43.9 154.55 28.95 159.35 18.8 162.6 8.25 164.75 L4.75 165.0 -9.25 163.25 Q-28.2 160.1 -45.55 151.55 -64.15 142.4 -78.25 127.25 L-88.25 122.25 -96.5 116.25 Q-112.05 105.5 -120.9 88.6 -129.15 72.85 -130.2 55.15 -131.25 38.2 -87.0 -69.25 -67.55 -99.15 -42.2 -123.8 -26.55 -138.9 -6.25 -146.45 L-1.5 -148.0 Q27.55 -139.15 48.95 -117.3 M-1.35 -70.35 L-1.0 -70.25 -1.35 -70.4 -1.35 -70.35" fill="#2e47aa" fill-rule="evenodd" stroke="none"/>
    <path d="M-1.35 -70.35 L-1.35 -70.4 -1.0 -70.25 -1.35 -70.35" fill="#243773" fill-rule="evenodd" stroke="none"/>
  </g>
</svg>
