<?xml version="1.0" encoding="UTF-8" standalone="no"?>
<svg xmlns:ffdec="https://www.free-decompiler.com/flash" xmlns:xlink="http://www.w3.org/1999/xlink" ffdec:objectType="shape" height="166.1px" width="305.95px" xmlns="http://www.w3.org/2000/svg">
  <g transform="matrix(1.0, 0.0, 0.0, 1.0, 156.75, 69.25)">
    <path d="M88.15 -62.95 L88.55 -64.3 Q93.85 -59.45 118.55 -33.25 143.2 -7.05 147.8 9.75 152.35 26.55 142.1 38.1 137.5 43.25 131.9 48.5 124.85 55.0 116.25 61.7 70.9 96.85 10.9 96.85 L1.8 96.1 -0.3 95.45 -6.8 94.05 -7.3 93.25 Q-7.6 95.25 -9.5 95.9 -12.3 96.85 -22.15 96.85 -27.45 96.85 -39.8 94.65 L-42.05 94.25 Q-55.55 93.0 -71.8 88.2 -92.7 82.05 -112.0 71.9 -131.8 61.45 -143.6 50.1 -156.4 37.75 -156.4 27.3 L-156.75 13.8 Q-156.8 7.9 -155.65 4.0 -153.1 -4.5 -136.4 -23.4 -110.6 -52.5 -87.0 -69.25 -85.55 -60.35 -82.0 -47.5 L-82.0 22.6 -84.85 25.1 -89.65 29.05 Q-85.05 32.7 -76.55 39.8 -57.75 55.5 -56.4 56.4 -54.25 57.75 -49.9 61.45 -44.45 61.95 -25.95 76.25 -9.75 88.75 -7.6 91.9 L-7.65 91.25 Q-7.65 88.0 34.85 60.2 63.35 41.55 74.0 35.55 L75.2 34.85 Q88.3 26.9 77.95 22.55 L75.5 21.45 75.5 -38.2 Q81.0 -53.95 87.2 -62.5 L87.4 -62.7 87.5 -62.8 87.95 -63.25 88.1 -63.05 88.15 -62.95 M87.95 -62.4 L87.85 -62.4 87.75 -62.2 Q87.55 -61.7 87.95 -62.4" fill="#2e47aa" fill-rule="evenodd" stroke="none"/>
  </g>
</svg>
