<?xml version="1.0" encoding="UTF-8" standalone="no"?>
<svg xmlns:ffdec="https://www.free-decompiler.com/flash" xmlns:xlink="http://www.w3.org/1999/xlink" ffdec:objectType="shape" height="185.05px" width="299.85px" xmlns="http://www.w3.org/2000/svg">
  <g transform="matrix(1.0, 0.0, 0.0, 1.0, 152.6, 64.8)">
    <path d="M93.1 -56.05 L93.75 -56.05 Q97.95 -56.05 117.15 -31.85 129.85 -15.85 133.9 -9.6 147.55 11.2 147.25 24.75 L147.25 26.3 Q147.25 47.85 101.7 78.75 79.3 93.7 64.25 101.65 29.0 120.25 6.35 120.25 3.0 120.25 3.0 117.0 3.0 116.7 3.95 116.2 3.55 115.55 3.55 114.55 3.55 112.2 43.5 72.25 78.95 36.8 84.95 32.8 80.7 32.05 75.5 25.25 L75.5 -34.0 Q83.95 -54.15 91.3 -58.95 L92.8 -58.55 Q93.15 -58.3 93.15 -57.05 L93.1 -56.1 93.1 -56.05 M-82.0 -50.45 L-82.0 27.75 Q-85.15 33.0 -87.75 34.6 L-78.0 47.2 -75.1 50.95 Q-64.75 64.45 -55.75 72.8 -16.3 109.75 -16.3 115.4 -16.3 117.8 -17.35 118.55 -18.9 119.7 -24.35 119.7 L-32.0 118.9 -31.95 118.95 -32.0 118.95 Q-53.6 113.9 -81.05 99.0 -104.9 86.05 -118.75 74.25 L-121.35 72.0 Q-137.8 57.75 -144.2 48.95 -152.6 37.4 -152.6 24.45 -152.6 10.9 -134.55 -15.0 L-128.45 -23.45 Q-118.5 -36.7 -107.75 -48.1 -97.1 -59.45 -89.8 -64.5 -88.85 -65.4 -88.85 -63.55 L-89.2 -63.0 -89.1 -62.9 -87.9 -64.1 -82.0 -50.45" fill="#2e47aa" fill-rule="evenodd" stroke="none"/>
  </g>
</svg>
