<?xml version="1.0" encoding="UTF-8" standalone="no"?>
<svg xmlns:ffdec="https://www.free-decompiler.com/flash" xmlns:xlink="http://www.w3.org/1999/xlink" ffdec:objectType="shape" height="209.25px" width="297.65px" xmlns="http://www.w3.org/2000/svg">
  <g transform="matrix(1.0, 0.0, 0.0, 1.0, 153.0, 63.0)">
    <path d="M92.15 -58.3 Q132.45 -18.1 144.05 37.9 147.05 52.4 135.25 77.15 123.4 101.85 104.55 124.85 85.7 147.85 78.15 146.15 70.5 144.45 75.5 127.0 L88.65 81.4 Q92.55 67.85 95.55 54.1 84.3 38.05 75.5 20.6 L75.5 -30.75 Q80.2 -46.9 91.95 -58.35 L92.15 -58.3 M-88.3 -62.3 Q-85.15 -57.85 -82.0 -47.9 L-82.0 30.65 Q-85.2 34.8 -87.9 37.65 -95.2 46.1 -91.35 89.5 -88.3 124.55 -85.85 142.3 -87.25 145.65 -95.45 141.0 -105.35 139.85 -125.65 101.55 -146.0 63.25 -153.0 37.1 -153.0 18.75 -128.5 -15.95 -111.15 -40.6 -89.8 -63.0 L-88.8 -62.7 -88.55 -62.2 -88.3 -62.3" fill="#2e47aa" fill-rule="evenodd" stroke="none"/>
  </g>
</svg>
