<?xml version="1.0" encoding="UTF-8" standalone="no"?>
<svg xmlns:ffdec="https://www.free-decompiler.com/flash" xmlns:xlink="http://www.w3.org/1999/xlink" ffdec:objectType="shape" height="215.85px" width="288.2px" xmlns="http://www.w3.org/2000/svg">
  <g transform="matrix(1.0, 0.0, 0.0, 1.0, 150.4, 64.1)">
    <path d="M90.3 -59.25 L91.0 -59.3 Q95.9 -59.3 107.75 -32.35 L117.35 -9.65 Q122.9 3.65 125.8 9.4 133.25 24.15 135.95 43.7 137.8 57.05 137.8 78.3 137.8 86.05 137.4 92.15 137.0 98.2 137.0 110.7 135.4 142.85 130.0 144.5 129.9 147.6 127.0 147.6 120.3 147.6 113.6 116.55 109.45 97.55 106.25 72.05 L105.55 72.1 Q104.9 72.1 92.4 59.8 L81.9 42.1 Q78.25 36.35 75.5 31.3 L75.5 -28.0 Q82.2 -51.35 89.7 -60.3 90.3 -61.05 90.3 -59.25 M-88.95 -60.25 L-88.5 -60.0 Q-88.5 -60.75 -87.95 -61.45 L-86.3 -62.9 Q-84.5 -59.35 -82.0 -48.25 L-82.0 32.0 -86.15 38.3 Q-99.8 58.0 -105.55 69.6 -105.85 69.35 -111.45 85.15 -117.05 100.95 -120.3 112.3 -123.6 123.6 -129.65 138.55 -135.7 153.45 -139.85 151.55 -144.0 149.6 -146.4 139.4 -147.15 136.15 -147.45 132.2 L-147.55 130.55 -147.55 131.3 Q-150.1 110.55 -150.4 91.3 -150.4 39.85 -138.4 12.8 -126.7 -13.5 -112.45 -36.05 -94.95 -63.9 -86.1 -64.1 L-88.0 -61.5 -88.95 -60.25" fill="#2e47aa" fill-rule="evenodd" stroke="none"/>
  </g>
</svg>
