<?xml version="1.0" encoding="UTF-8" standalone="no"?>
<svg xmlns:ffdec="https://www.free-decompiler.com/flash" xmlns:xlink="http://www.w3.org/1999/xlink" ffdec:objectType="shape" height="183.8px" width="486.95px" xmlns="http://www.w3.org/2000/svg">
  <g transform="matrix(1.0, 0.0, 0.0, 1.0, 238.5, 64.1)">
    <path d="M92.4 -62.3 Q163.35 -28.25 214.5 31.75 230.75 50.75 243.65 72.25 247.5 78.65 248.45 86.1 247.75 96.3 226.85 86.55 205.95 76.8 195.25 70.8 175.55 59.75 158.95 44.7 L154.35 40.4 Q110.1 32.25 75.5 14.95 L75.5 -37.7 Q81.4 -49.8 90.25 -60.35 L92.4 -62.3 M-90.9 -60.25 L-90.8 -60.95 -91.2 -60.6 -90.9 -60.25 M-88.45 -63.05 L-86.7 -63.25 Q-84.15 -63.25 -82.0 -58.25 L-82.0 20.4 Q-88.3 23.2 -102.35 28.1 -123.0 35.25 -131.05 38.35 -147.65 44.8 -159.5 51.35 L-166.5 60.3 Q-176.35 72.4 -188.25 85.0 -220.9 119.7 -231.8 119.7 -236.45 119.7 -237.1 117.25 L-236.95 115.15 Q-238.0 113.6 -238.5 108.65 -238.5 101.15 -229.75 85.0 -219.95 68.4 -217.85 64.1 -214.3 56.85 -203.6 42.95 -191.8 27.5 -187.5 20.15 -175.4 -0.35 -148.25 -23.65 -120.15 -47.75 -88.65 -63.45 L-87.35 -64.1 -88.45 -63.05" fill="#2e47aa" fill-rule="evenodd" stroke="none"/>
  </g>
</svg>
