<?xml version="1.0" encoding="UTF-8" standalone="no"?>
<svg xmlns:ffdec="https://www.free-decompiler.com/flash" xmlns:xlink="http://www.w3.org/1999/xlink" ffdec:objectType="shape" height="157.4px" width="539.9px" xmlns="http://www.w3.org/2000/svg">
  <g transform="matrix(1.0, 0.0, 0.0, 1.0, 269.0, 64.5)">
    <path d="M87.4 -62.25 Q87.7 -64.85 90.95 -64.4 102.4 -63.0 144.9 -40.9 181.1 -22.05 201.45 -9.2 219.8 2.4 243.9 25.25 272.0 51.95 270.85 62.1 270.25 66.8 257.75 65.25 255.05 64.95 244.8 60.45 232.3 57.1 211.4 48.95 189.4 40.3 175.05 33.4 L88.05 15.7 75.5 13.2 75.5 -39.95 Q83.1 -55.15 88.55 -61.1 87.35 -61.9 87.4 -62.25 M188.9 33.05 L187.95 32.55 187.65 32.65 188.9 33.05 M-82.0 -51.7 L-82.0 15.3 -99.6 19.65 Q-177.35 39.1 -178.5 38.85 -193.55 50.85 -223.25 70.15 -258.35 92.9 -263.5 92.9 -267.85 92.9 -268.85 89.2 L-269.0 85.3 Q-269.05 71.65 -241.9 41.95 -234.15 33.45 -220.5 19.75 L-205.0 3.8 Q-189.2 -14.25 -141.95 -40.2 -124.05 -50.05 -108.5 -57.15 -94.2 -63.65 -90.55 -63.9 L-90.5 -64.1 Q-90.7 -64.5 -88.85 -64.5 -85.4 -64.5 -82.0 -51.7" fill="#2e47aa" fill-rule="evenodd" stroke="none"/>
  </g>
</svg>
