<?xml version="1.0" encoding="UTF-8" standalone="no"?>
<svg xmlns:ffdec="https://www.free-decompiler.com/flash" xmlns:xlink="http://www.w3.org/1999/xlink" ffdec:objectType="shape" height="159.1px" width="455.55px" xmlns="http://www.w3.org/2000/svg">
  <g transform="matrix(1.0, 0.0, 0.0, 1.0, 224.6, 63.8)">
    <path d="M86.95 -63.8 L92.05 -63.05 135.5 -50.85 165.75 -40.95 Q194.45 -31.75 201.95 -23.75 209.45 -15.75 211.65 -11.15 213.8 -6.6 216.6 0.9 L217.95 4.7 219.2 8.55 224.8 27.45 Q227.5 36.55 228.85 45.75 230.75 58.55 230.95 71.3 230.8 75.3 229.5 78.1 228.2 80.85 223.1 75.25 218.0 69.65 213.15 66.0 186.75 46.1 165.9 20.25 L163.15 19.6 Q126.7 16.7 90.7 11.25 L87.0 10.55 87.0 -63.05 86.95 -63.8 M-173.25 -28.1 L-156.1 -36.8 Q-147.95 -40.8 -135.8 -46.1 -123.7 -51.45 -111.45 -55.95 -99.2 -60.5 -88.2 -62.65 L-86.95 -62.35 -87.15 -61.6 -86.0 -59.85 -86.0 12.9 -88.55 13.45 Q-111.4 19.65 -135.0 22.1 L-151.45 23.5 -164.3 23.9 -166.25 23.65 -179.0 42.35 -194.85 67.2 -202.55 78.7 -210.85 90.95 -212.15 92.75 Q-214.85 96.55 -219.15 94.65 -220.15 94.25 -220.75 93.35 -223.25 90.0 -223.8 85.55 -225.45 72.8 -223.7 59.9 -219.7 30.85 -208.75 3.6 -203.9 -8.35 -193.3 -15.8 -182.25 -23.35 -173.25 -28.1" fill="#2e47aa" fill-rule="evenodd" stroke="none"/>
  </g>
</svg>
