<?xml version="1.0" encoding="UTF-8" standalone="no"?>
<svg xmlns:ffdec="https://www.free-decompiler.com/flash" xmlns:xlink="http://www.w3.org/1999/xlink" ffdec:objectType="shape" height="143.05px" width="437.6px" xmlns="http://www.w3.org/2000/svg">
  <g transform="matrix(1.0, 0.0, 0.0, 1.0, 221.1, 64.35)">
    <path d="M89.9 -63.25 L90.6 -64.1 Q91.25 -64.75 91.4 -63.55 94.15 -64.1 120.2 -59.35 142.25 -55.4 192.3 -36.6 212.5 -24.35 215.95 -13.15 219.35 -1.95 202.55 23.25 185.75 48.45 170.05 60.05 154.3 71.6 144.2 73.85 134.05 76.05 133.9 74.1 133.7 72.15 134.7 69.6 L133.95 69.25 135.15 66.3 Q149.9 29.3 154.2 16.1 144.7 16.1 117.45 15.05 L84.5 13.1 84.5 -60.55 Q86.45 -62.4 89.9 -63.25 M-188.35 -33.55 Q-179.5 -37.95 -136.55 -51.3 -93.65 -64.65 -88.7 -61.45 L-87.5 -55.0 -87.5 16.3 Q-107.1 19.9 -161.05 24.6 L-157.25 31.1 Q-137.0 65.85 -137.0 72.8 -137.0 78.7 -143.8 78.7 -150.55 78.7 -156.05 75.55 L-161.7 71.15 -162.1 70.75 -186.05 46.35 Q-209.9 21.95 -212.8 15.95 L-220.2 0.2 Q-224.6 -9.5 -208.05 -21.2 -191.55 -32.85 -188.35 -33.55" fill="#2e47aa" fill-rule="evenodd" stroke="none"/>
  </g>
</svg>
