<?xml version="1.0" encoding="UTF-8" standalone="no"?>
<svg xmlns:ffdec="https://www.free-decompiler.com/flash" xmlns:xlink="http://www.w3.org/1999/xlink" ffdec:objectType="shape" height="166.65px" width="362.15px" xmlns="http://www.w3.org/2000/svg">
  <g transform="matrix(1.0, 0.0, 0.0, 1.0, 181.75, 69.25)">
    <path d="M89.05 -59.85 L92.9 -58.25 Q117.8 -48.1 132.3 -38.95 146.8 -29.85 160.75 -16.3 166.85 -10.35 172.1 -3.65 176.65 2.15 178.8 9.15 182.35 20.7 178.05 31.9 173.65 43.3 163.95 50.8 144.35 65.75 122.0 76.15 112.15 80.7 102.5 85.4 96.7 88.25 90.3 90.0 80.7 92.65 70.95 92.25 66.05 92.15 64.2 88.1 63.65 86.9 64.35 85.95 75.2 71.45 87.05 57.7 L107.25 33.7 112.1 27.85 Q102.7 22.4 92.95 17.6 L84.8 13.4 81.15 11.5 77.95 9.6 Q77.05 9.2 76.95 8.25 L77.75 8.0 78.45 0.7 Q78.8 -6.65 79.9 -13.95 83.15 -35.9 88.15 -57.4 L89.05 -59.85 M-175.85 -10.55 L-174.9 -11.7 Q-168.85 -18.6 -161.3 -23.75 -127.55 -46.75 -87.0 -69.25 -88.55 -58.2 -87.65 -51.75 -86.4 -42.6 -85.45 -33.45 -83.75 -17.6 -82.6 -1.55 -81.95 7.15 -85.15 14.85 L-85.8 15.4 Q-94.8 21.8 -105.1 25.75 -99.4 31.7 -95.05 38.55 -92.7 42.3 -90.7 46.3 -86.05 55.6 -78.65 63.15 -68.25 73.9 -60.0 86.3 -57.85 89.45 -59.0 93.0 -59.9 95.8 -62.65 96.55 -69.1 98.6 -75.5 95.6 -77.4 94.65 -79.45 94.15 -86.2 92.15 -92.75 89.15 -106.05 83.2 -118.15 74.75 -130.15 66.3 -141.8 57.3 -146.3 53.85 -151.0 50.9 -164.0 43.05 -172.2 30.4 -179.55 19.15 -181.5 5.9 -183.0 -4.05 -175.85 -10.55" fill="#2e47aa" fill-rule="evenodd" stroke="none"/>
  </g>
</svg>
