<?xml version="1.0" encoding="UTF-8" standalone="no"?>
<svg xmlns:ffdec="https://www.free-decompiler.com/flash" xmlns:xlink="http://www.w3.org/1999/xlink" ffdec:objectType="shape" height="166.25px" width="176.95px" xmlns="http://www.w3.org/2000/svg">
  <g transform="matrix(1.0, 0.0, 0.0, 1.0, 87.8, 1.25)">
    <path d="M88.15 97.05 Q91.65 111.65 82.75 123.75 71.75 137.15 57.1 146.35 43.9 154.55 28.95 159.35 18.8 162.6 8.25 164.75 L4.75 165.0 -9.25 163.25 Q-28.2 160.1 -45.55 151.55 -64.15 142.4 -78.25 127.25 -93.0 107.5 -85.0 99.25 -80.0 93.95 -75.1 87.2 L-71.8 88.2 Q-55.55 93.0 -42.05 94.25 L-39.8 94.65 Q-27.45 96.85 -22.15 96.85 -12.3 96.85 -9.5 95.9 -7.6 95.25 -7.3 93.25 L-6.8 94.05 -0.3 95.45 1.8 96.1 10.9 96.85 Q49.8 96.85 82.5 82.1 86.2 89.05 88.15 97.05 M56.35 46.35 Q47.3 52.05 34.85 60.2 -7.65 88.0 -7.65 91.25 L-7.6 91.9 Q-9.75 88.75 -25.95 76.25 -44.45 61.95 -49.9 61.45 -54.25 57.75 -56.4 56.4 L-56.9 56.05 Q-45.8 33.1 -35.5 1.75 -31.5 13.4 -21.25 20.1 -4.45 31.1 14.05 23.85 31.25 17.25 36.0 -1.25 L47.95 28.5 Q51.55 37.75 56.35 46.35" fill="#ffffff" fill-rule="evenodd" stroke="none"/>
  </g>
</svg>
