<?xml version="1.0" encoding="UTF-8" standalone="no"?>
<svg xmlns:ffdec="https://www.free-decompiler.com/flash" xmlns:xlink="http://www.w3.org/1999/xlink" ffdec:objectType="shape" height="166.25px" width="176.95px" xmlns="http://www.w3.org/2000/svg">
  <g transform="matrix(1.0, 0.0, 0.0, 1.0, 87.8, 1.25)">
    <path d="M88.15 97.05 Q91.65 111.65 82.75 123.75 71.75 137.15 57.1 146.35 43.9 154.55 28.95 159.35 18.8 162.6 8.25 164.75 L4.75 165.0 -9.25 163.25 Q-28.2 160.1 -45.55 151.55 -64.15 142.4 -78.25 127.25 -93.0 107.5 -85.0 99.25 L-83.5 97.65 -81.05 99.0 Q-53.6 113.9 -32.0 118.95 L-31.95 118.95 -32.0 118.9 -24.35 119.7 Q-18.9 119.7 -17.35 118.55 -16.3 117.8 -16.3 115.4 -16.3 109.75 -55.75 72.8 L-62.15 66.35 Q-48.2 40.45 -35.5 1.75 -31.5 13.4 -21.25 20.1 -4.45 31.1 14.05 23.85 31.25 17.25 36.0 -1.25 L47.95 28.5 Q53.35 42.3 61.3 54.65 L43.5 72.25 Q3.55 112.2 3.55 114.55 3.55 115.55 3.95 116.2 3.0 116.7 3.0 117.0 3.0 120.25 6.35 120.25 29.0 120.25 64.25 101.65 73.55 96.75 85.7 89.15 87.15 92.95 88.15 97.05" fill="#ffffff" fill-rule="evenodd" stroke="none"/>
  </g>
</svg>
