<?xml version="1.0" encoding="UTF-8" standalone="no"?>
<svg xmlns:ffdec="https://www.free-decompiler.com/flash" xmlns:xlink="http://www.w3.org/1999/xlink" ffdec:objectType="shape" height="166.25px" width="176.95px" xmlns="http://www.w3.org/2000/svg">
  <g transform="matrix(1.0, 0.0, 0.0, 1.0, 87.8, 1.25)">
    <path d="M88.15 97.05 Q91.65 111.65 82.75 123.75 71.75 137.15 57.1 146.35 43.9 154.55 28.95 159.35 18.8 162.6 8.25 164.75 L4.75 165.0 -9.25 163.25 Q-28.2 160.1 -45.55 151.55 -64.15 142.4 -78.25 127.25 -93.0 107.5 -85.0 99.25 L-80.25 93.9 -79.45 94.15 Q-77.4 94.65 -75.5 95.6 -69.1 98.6 -62.65 96.55 -59.9 95.8 -59.0 93.0 -57.85 89.45 -60.0 86.3 -63.6 80.9 -67.55 75.85 -50.65 47.9 -35.5 1.75 -31.5 13.4 -21.25 20.1 -4.45 31.1 14.05 23.85 31.25 17.25 36.0 -1.25 L47.95 28.5 Q54.55 45.35 64.95 60.05 67.2 63.2 70.0 65.75 72.95 68.55 75.5 71.6 L64.35 85.95 Q63.65 86.9 64.2 88.1 66.05 92.15 70.95 92.25 78.7 92.55 86.35 90.95 L88.15 97.05" fill="#ffffff" fill-rule="evenodd" stroke="none"/>
  </g>
</svg>
