<?xml version="1.0" encoding="UTF-8" standalone="no"?>
<svg xmlns:ffdec="https://www.free-decompiler.com/flash" xmlns:xlink="http://www.w3.org/1999/xlink" ffdec:objectType="shape" height="273.9px" width="221.3px" xmlns="http://www.w3.org/2000/svg">
  <g transform="matrix(1.0, 0.0, 0.0, 1.0, 110.8, 70.45)">
    <path d="M-25.75 -48.5 Q-27.5 -49.0 -30.5 -57.25 L-30.5 -64.5 -29.25 -66.5 Q-17.6 -72.4 -4.55 -69.5 L-3.25 -69.25 -3.0 -69.0 Q10.65 -71.05 24.45 -68.5 28.05 -67.7 30.0 -64.5 29.5 -56.0 28.5 -55.0 L25.25 -49.25 Q18.5 -39.5 -0.5 -47.0 -17.5 -39.25 -25.75 -48.5 M14.0 -57.0 Q-1.5 -55.0 12.0 -47.0 22.5 -52.5 14.0 -57.0 M-15.5 -56.75 Q-22.5 -48.75 -11.75 -47.0 -0.5 -56.25 -15.5 -56.75" fill="#ffffff" fill-rule="evenodd" stroke="none"/>
    <path d="M25.25 -49.25 Q42.9 -39.25 39.75 -18.65 38.4 -9.85 36.0 -1.25 31.25 17.25 14.05 23.85 -4.45 31.1 -21.25 20.1 -31.5 13.4 -35.5 1.75 L-38.5 -8.25 Q-48.0 -33.0 -25.75 -48.5 -17.5 -39.25 -0.5 -47.0 18.5 -39.5 25.25 -49.25 M-88.25 122.25 L-78.25 127.25 Q-64.15 142.4 -45.55 151.55 -28.2 160.1 -9.25 163.25 -8.5 175.6 -14.1 186.75 -16.05 190.55 -19.35 193.3 -34.3 205.9 -55.3 202.85 -75.65 200.25 -93.05 189.6 -111.45 178.45 -110.8 156.7 -110.1 134.55 -96.5 116.25 L-88.25 122.25 M8.25 164.75 Q18.8 162.6 28.95 159.35 43.9 154.55 57.1 146.35 71.75 137.15 82.75 123.75 L84.2 123.15 Q90.3 120.05 95.5 115.25 111.0 141.75 110.5 154.0 111.0 193.0 55.25 201.0 30.5 204.25 16.75 193.0 11.5 190.0 8.25 164.75" fill="#e58508" fill-rule="evenodd" stroke="none"/>
    <path d="M14.0 -57.0 Q22.5 -52.5 12.0 -47.0 -1.5 -55.0 14.0 -57.0 M-15.5 -56.75 Q-0.5 -56.25 -11.75 -47.0 -22.5 -48.75 -15.5 -56.75" fill="#000000" fill-rule="evenodd" stroke="none"/>
    <path d="M-1.35 -70.35 L-1.35 -70.4 -1.0 -70.25 -1.35 -70.35" fill="#243773" fill-rule="evenodd" stroke="none"/>
  </g>
</svg>
