<?xml version="1.0" encoding="UTF-8" standalone="no"?>
<svg xmlns:ffdec="https://www.free-decompiler.com/flash" xmlns:xlink="http://www.w3.org/1999/xlink" ffdec:objectType="shape" height="227.45px" width="299.05px" xmlns="http://www.w3.org/2000/svg">
  <g transform="matrix(1.0, 0.0, 0.0, 1.0, 154.9, 23.3)">
    <path d="M130.7 49.3 Q126.35 88.85 95.5 115.0 L104.0 131.75 Q101.3 132.25 99.3 134.15 97.35 136.0 94.7 137.1 L92.5 138.0 92.25 142.0 Q69.95 172.2 34.1 182.3 28.05 183.9 21.75 184.5 22.5 185.95 24.2 186.5 L30.35 188.15 36.5 189.25 36.75 196.25 Q69.25 198.45 95.25 180.9 104.9 174.35 109.5 163.5 95.3 202.15 51.05 202.75 36.15 202.95 23.65 195.65 6.7 185.7 8.5 164.75 L-9.0 163.25 Q-8.45 206.45 -49.25 204.0 -78.05 202.35 -99.6 183.95 -109.0 175.9 -111.0 164.0 -105.0 179.85 -88.15 185.7 -63.55 194.3 -37.5 197.25 L-37.25 189.75 Q-32.75 189.4 -28.2 188.15 -25.7 187.35 -23.5 186.25 -21.95 185.5 -20.75 184.25 -54.05 178.35 -76.8 153.5 -86.3 143.15 -97.85 135.45 -100.95 133.4 -104.65 132.7 -102.6 123.65 -96.25 115.75 -114.75 103.0 -124.0 82.6 -128.65 72.3 -128.95 61.0 L-125.75 61.0 Q-139.0 53.15 -150.15 42.6 -154.1 38.95 -154.9 33.65 L-153.55 33.35 Q-112.15 68.15 -60.2 81.4 -39.95 86.45 -20.05 93.0 -38.5 99.6 -60.9 91.6 -87.05 82.4 -111.45 69.2 -103.9 83.15 -91.3 92.85 -87.5 95.8 -83.25 97.75 L-85.05 99.0 Q-52.1 161.35 19.85 148.85 70.5 140.2 87.35 94.05 87.75 92.95 87.25 91.5 104.2 81.1 112.5 63.2 97.9 75.15 80.5 82.2 51.8 93.6 20.8 96.3 L19.95 95.3 Q72.35 78.1 119.0 49.1 L126.85 44.0 Q135.75 38.2 143.9 31.3 144.3 32.35 144.1 33.6 143.85 35.15 143.05 36.4 141.45 38.9 139.5 41.0 L136.2 44.35 133.55 46.8 132.05 48.1 130.7 49.3 M1.75 25.45 Q11.65 24.8 19.0 20.35 36.8 9.6 40.0 -23.3 40.0 21.55 32.85 47.5 23.45 81.65 1.75 83.2 -39.5 86.95 -40.25 -23.05 -36.25 24.45 1.75 25.45" fill="#000000" fill-opacity="0.49803922" fill-rule="evenodd" stroke="none"/>
  </g>
</svg>
