<?xml version="1.0" encoding="UTF-8" standalone="no"?>
<svg xmlns:ffdec="https://www.free-decompiler.com/flash" xmlns:xlink="http://www.w3.org/1999/xlink" ffdec:objectType="shape" height="228.15px" width="290.6px" xmlns="http://www.w3.org/2000/svg">
  <g transform="matrix(1.0, 0.0, 0.0, 1.0, 145.7, 23.3)">
    <path d="M87.25 91.5 Q100.15 83.45 108.55 70.8 66.3 105.35 15.2 119.7 12.25 120.6 9.4 119.65 L9.15 117.9 Q66.75 88.0 120.25 52.0 134.5 42.45 144.45 28.65 147.35 42.9 132.3 53.1 L130.25 54.7 Q123.75 90.75 95.5 115.0 L104.0 131.75 Q98.55 135.15 92.5 138.0 L92.25 142.0 Q65.7 178.3 21.75 184.5 28.15 188.85 36.5 189.25 L36.75 196.25 Q85.0 201.7 109.5 163.5 89.9 207.95 36.45 200.85 6.45 197.05 8.5 164.75 L-9.0 163.25 Q-10.25 211.55 -58.2 203.8 -83.1 199.95 -101.15 182.7 -109.35 174.85 -111.0 164.0 -84.95 197.65 -37.5 197.25 L-37.25 189.75 Q-28.0 189.5 -20.75 184.25 -67.3 174.2 -97.55 136.9 -100.3 133.55 -104.65 132.7 -102.6 123.65 -96.25 115.75 -122.2 98.0 -128.35 67.7 -150.4 51.75 -144.45 32.3 -90.75 90.25 -16.75 117.05 -42.4 125.4 -67.8 108.35 L-83.35 97.85 -85.05 99.0 Q-54.0 158.95 15.3 149.65 69.1 142.65 87.35 94.05 87.75 92.95 87.25 91.5 M1.75 25.45 Q11.65 24.8 19.0 20.35 36.8 9.6 40.0 -23.3 40.0 21.55 32.85 47.5 23.45 81.65 1.75 83.2 -39.5 86.95 -40.25 -23.05 -36.25 24.45 1.75 25.45 M-96.2 88.8 Q-90.7 93.95 -83.85 97.45 L-96.2 88.8" fill="#000000" fill-opacity="0.49803922" fill-rule="evenodd" stroke="none"/>
  </g>
</svg>
