<?xml version="1.0" encoding="UTF-8" standalone="no"?>
<svg xmlns:ffdec="https://www.free-decompiler.com/flash" xmlns:xlink="http://www.w3.org/1999/xlink" ffdec:objectType="shape" height="275.55px" width="279.5px" xmlns="http://www.w3.org/2000/svg">
  <g transform="matrix(1.0, 0.0, 0.0, 1.0, 141.7, 70.45)">
    <path d="M-25.75 -48.5 Q-27.5 -49.0 -30.5 -57.25 L-30.5 -64.5 -29.25 -66.5 Q-17.6 -72.4 -4.55 -69.5 L-3.25 -69.25 -3.0 -69.0 Q10.65 -71.05 24.45 -68.5 28.05 -67.7 30.0 -64.5 29.5 -56.0 28.5 -55.0 L25.25 -49.25 Q18.5 -39.5 -0.5 -47.0 -17.5 -39.25 -25.75 -48.5 M12.0 -47.0 Q22.5 -52.5 14.0 -57.0 -1.5 -55.0 12.0 -47.0 M-11.75 -47.0 Q-0.5 -56.25 -15.5 -56.75 -22.5 -48.75 -11.75 -47.0" fill="#ffffff" fill-rule="evenodd" stroke="none"/>
    <path d="M25.25 -49.25 Q42.9 -39.25 39.75 -18.65 38.4 -9.85 36.0 -1.25 31.25 17.25 14.05 23.85 -4.45 31.1 -21.25 20.1 -31.5 13.4 -35.5 1.75 L-38.5 -8.25 Q-48.0 -33.0 -25.75 -48.5 -17.5 -39.25 -0.5 -47.0 18.5 -39.5 25.25 -49.25 M74.05 133.15 Q72.0 144.8 78.15 146.15 85.25 147.75 102.25 127.65 110.9 144.8 110.5 154.0 111.0 193.0 55.25 201.0 30.5 204.25 16.75 193.0 11.5 190.0 8.25 164.75 18.8 162.6 28.95 159.35 43.9 154.55 57.1 146.35 66.3 140.6 74.05 133.15 M-85.85 142.3 L-88.25 122.25 -78.25 127.25 Q-64.15 142.4 -45.55 151.55 -28.2 160.1 -9.25 163.25 -8.5 175.6 -14.1 186.75 -16.05 190.55 -19.35 193.3 -34.3 205.9 -55.3 202.85 -75.65 200.25 -93.05 189.6 -111.45 178.45 -110.8 156.7 -110.4 144.25 -105.95 133.05 -99.75 140.5 -95.45 141.0 -87.25 145.65 -85.85 142.3" fill="#e58508" fill-rule="evenodd" stroke="none"/>
    <path d="M12.0 -47.0 Q-1.5 -55.0 14.0 -57.0 22.5 -52.5 12.0 -47.0 M-11.75 -47.0 Q-22.5 -48.75 -15.5 -56.75 -0.5 -56.25 -11.75 -47.0" fill="#000000" fill-rule="evenodd" stroke="none"/>
    <path d="M-1.35 -70.4 L-1.0 -70.25 -1.35 -70.35 -1.35 -70.4" fill="#243773" fill-rule="evenodd" stroke="none"/>
    <path d="M102.15 38.55 Q100.5 58.25 93.05 50.9 92.45 50.35 93.55 48.4 96.8 42.4 102.15 38.55 M137.8 64.0 Q115.55 144.45 40.25 179.7 31.45 183.75 21.75 184.5 28.15 188.85 36.5 189.25 L36.75 196.25 Q85.0 201.7 109.5 163.5 89.9 207.95 36.45 200.85 6.45 197.05 8.5 164.75 L-9.0 163.25 Q-10.95 213.1 -61.1 203.55 -84.35 199.1 -101.2 182.75 -109.35 174.85 -111.0 164.0 -84.95 197.65 -37.5 197.25 L-37.25 189.75 Q-28.0 189.5 -20.75 184.25 -64.6 176.75 -90.5 140.5 -115.3 137.05 -126.15 108.9 -132.9 91.45 -140.25 74.35 -143.05 67.8 -140.5 62.5 -119.45 97.3 -95.0 129.5 -96.2 113.55 -96.9 98.1 -97.1 93.9 -96.8 89.75 -90.65 92.4 -89.95 101.5 L-84.65 101.5 Q-49.7 161.15 19.95 149.4 54.85 143.55 77.15 116.0 L76.5 118.85 Q80.6 109.2 87.35 101.15 L87.95 101.15 Q88.4 110.45 84.75 119.1 81.25 127.2 81.85 136.2 108.95 113.1 126.3 80.75 131.15 71.7 137.8 64.0 M1.75 25.45 Q11.65 24.8 19.0 20.35 36.8 9.6 40.0 -23.3 40.0 21.55 32.85 47.5 23.45 81.65 1.75 83.2 -39.5 86.95 -40.25 -23.05 -36.25 24.45 1.75 25.45 M-96.9 48.95 L-97.2 50.15 -98.1 50.6 Q-100.9 43.2 -105.45 36.75 L-103.1 36.2 Q-95.7 40.6 -96.9 48.95" fill="#000000" fill-opacity="0.49803922" fill-rule="evenodd" stroke="none"/>
  </g>
</svg>
