<?xml version="1.0" encoding="UTF-8" standalone="no"?>
<svg xmlns:ffdec="https://www.free-decompiler.com/flash" xmlns:xlink="http://www.w3.org/1999/xlink" ffdec:objectType="shape" height="226.4px" width="283.45px" xmlns="http://www.w3.org/2000/svg">
  <g transform="matrix(1.0, 0.0, 0.0, 1.0, 147.85, 23.3)">
    <path d="M82.4 37.75 L109.15 71.8 Q109.4 68.35 109.25 63.95 109.2 62.55 110.1 61.25 L110.6 60.8 Q115.1 100.45 126.8 137.8 L129.05 131.9 Q130.25 128.95 132.95 127.35 L134.6 126.45 Q139.1 145.65 123.05 145.3 120.7 145.25 119.2 142.4 109.0 123.2 108.5 102.15 L106.5 103.15 96.15 115.35 Q110.55 127.15 100.6 136.0 80.25 154.15 57.35 170.95 41.45 182.5 21.75 184.5 23.25 186.5 25.8 187.15 31.05 188.55 36.5 189.25 L36.75 196.25 Q85.0 201.7 109.5 163.5 94.3 203.35 48.3 203.1 34.1 203.0 22.6 195.2 6.9 184.75 8.5 164.75 L-9.0 163.25 Q-7.0 197.2 -37.45 201.1 -90.3 208.0 -111.0 164.0 -84.95 197.65 -37.5 197.25 L-37.25 189.75 Q-31.05 189.3 -25.25 187.0 -22.65 186.0 -20.75 184.25 -64.6 176.85 -90.5 140.5 L-91.75 141.15 -92.35 138.4 -104.05 129.35 Q-101.8 125.15 -99.15 121.2 -97.8 119.15 -95.75 117.55 -104.2 109.85 -111.5 101.1 L-115.2 96.6 Q-117.55 131.25 -139.15 151.95 -140.0 152.8 -141.25 151.05 -153.8 133.95 -142.55 127.0 -141.95 126.65 -141.3 128.85 -139.35 135.1 -137.75 141.8 -121.5 102.65 -113.5 59.9 -112.05 62.05 -111.45 64.55 -110.65 67.95 -110.65 71.5 -100.4 56.0 -88.6 41.8 L-87.0 40.0 -86.15 40.8 -85.6 41.7 -85.25 42.75 -85.1 43.85 -105.9 80.15 Q-102.7 85.6 -97.2 89.15 -92.65 92.1 -90.2 97.15 -89.2 99.2 -88.95 101.5 L-84.65 101.5 Q-49.75 161.1 19.75 148.35 64.9 140.3 89.4 101.3 L98.8 86.0 104.45 76.15 Q86.55 61.65 81.05 38.15 L82.4 37.75 M1.75 25.45 Q11.65 24.8 19.0 20.35 36.8 9.6 40.0 -23.3 40.0 21.55 32.85 47.5 23.45 81.65 1.75 83.2 -39.5 86.95 -40.25 -23.05 -36.25 24.45 1.75 25.45" fill="#000000" fill-opacity="0.49803922" fill-rule="evenodd" stroke="none"/>
  </g>
</svg>
