<?xml version="1.0" encoding="UTF-8" standalone="no"?>
<svg xmlns:ffdec="https://www.free-decompiler.com/flash" xmlns:xlink="http://www.w3.org/1999/xlink" ffdec:objectType="shape" height="226.4px" width="254.1px" xmlns="http://www.w3.org/2000/svg">
  <g transform="matrix(1.0, 0.0, 0.0, 1.0, 128.0, 23.3)">
    <path d="M125.2 46.2 Q131.35 86.65 96.15 115.35 107.2 124.45 102.0 133.35 100.75 135.4 98.5 136.85 88.75 142.8 82.2 153.0 L82.25 153.5 Q57.5 180.1 21.75 184.5 24.15 187.0 27.9 187.75 L36.5 189.25 36.75 196.25 Q85.0 201.7 109.5 163.5 94.3 203.35 48.3 203.1 34.1 203.0 22.6 195.2 6.9 184.75 8.5 164.75 L-9.0 163.25 Q-7.0 197.2 -37.45 201.1 -90.3 208.0 -111.0 164.0 -84.95 197.65 -37.5 197.25 L-37.25 189.75 Q-28.95 189.45 -22.05 185.25 L-20.75 184.25 Q-64.6 176.85 -90.5 140.5 L-91.75 141.15 -92.35 138.4 -104.05 129.35 Q-101.45 124.4 -98.15 119.85 -97.2 118.55 -95.75 117.55 -127.15 95.1 -128.0 57.3 -128.05 56.15 -126.6 54.8 -114.05 80.4 -92.55 99.0 L-89.5 99.0 -88.95 101.5 -84.65 101.5 Q-47.7 163.35 24.25 147.35 66.25 137.9 88.5 100.7 92.05 94.8 97.0 90.0 L103.6 90.0 Q119.3 71.35 124.8 47.3 L125.2 46.2 M1.75 25.45 Q11.65 24.8 19.0 20.35 36.8 9.6 40.0 -23.3 40.0 21.55 32.85 47.5 23.45 81.65 1.75 83.2 -39.5 86.95 -40.25 -23.05 -36.25 24.45 1.75 25.45" fill="#000000" fill-opacity="0.49803922" fill-rule="evenodd" stroke="none"/>
  </g>
</svg>
