<?xml version="1.0" encoding="UTF-8" standalone="no"?>
<svg xmlns:ffdec="https://www.free-decompiler.com/flash" xmlns:xlink="http://www.w3.org/1999/xlink" ffdec:objectType="shape" height="104.55px" width="487.75px" xmlns="http://www.w3.org/2000/svg">
  <g transform="matrix(1.0, 0.0, 0.0, 1.0, 239.35, -11.7)">
    <path d="M245.35 87.1 Q243.7 90.1 240.05 89.2 188.85 78.3 156.05 38.95 119.45 38.15 94.5 11.7 120.35 21.15 147.4 29.1 162.1 33.55 177.3 37.3 171.9 38.8 164.85 38.8 198.8 71.85 243.05 80.7 243.65 80.9 243.7 79.4 252.2 74.7 245.35 87.1 M-156.15 49.1 L-158.55 49.7 Q-187.55 97.6 -236.8 116.0 -239.8 117.15 -239.25 112.95 -238.0 103.35 -231.3 109.8 -201.75 84.0 -173.75 56.05 L-167.6 50.0 -178.2 50.7 -178.5 50.05 Q-145.75 34.5 -111.4 21.3 -127.4 40.7 -156.15 49.1" fill="#000000" fill-opacity="0.49803922" fill-rule="evenodd" stroke="none"/>
  </g>
</svg>
