<?xml version="1.0" encoding="UTF-8" standalone="no"?>
<svg xmlns:ffdec="https://www.free-decompiler.com/flash" xmlns:xlink="http://www.w3.org/1999/xlink" ffdec:objectType="shape" height="83.85px" width="536.95px" xmlns="http://www.w3.org/2000/svg">
  <g transform="matrix(1.0, 0.0, 0.0, 1.0, 267.55, -6.1)">
    <path d="M199.35 24.05 Q205.9 23.5 201.7 29.95 199.7 33.05 195.9 33.3 233.7 46.6 269.4 64.6 250.9 69.0 229.4 57.45 195.75 39.35 159.0 33.7 120.35 27.7 90.35 7.0 89.15 6.1 91.05 6.1 110.3 6.25 129.1 13.5 163.45 26.5 199.25 24.95 L199.35 24.05 M-97.5 11.9 L-99.0 12.5 -95.55 13.9 -95.3 14.5 Q-135.1 29.9 -176.65 38.9 -213.5 77.25 -263.9 89.75 -267.8 90.75 -267.55 86.45 -267.35 83.1 -265.2 80.3 L-262.25 83.45 Q-222.55 66.05 -187.0 39.65 -195.2 36.85 -203.8 34.5 L-93.3 7.05 -92.9 8.6 Q-94.35 10.95 -97.5 11.9" fill="#000000" fill-opacity="0.49803922" fill-rule="evenodd" stroke="none"/>
  </g>
</svg>
