<?xml version="1.0" encoding="UTF-8" standalone="no"?>
<svg xmlns:ffdec="https://www.free-decompiler.com/flash" xmlns:xlink="http://www.w3.org/1999/xlink" ffdec:objectType="shape" height="93.95px" width="453.25px" xmlns="http://www.w3.org/2000/svg">
  <g transform="matrix(1.0, 0.0, 0.0, 1.0, 223.75, -0.6)">
    <path d="M172.25 16.3 L171.4 16.55 Q197.15 41.2 224.5 64.2 L226.1 46.0 Q234.35 65.15 222.65 73.65 221.9 74.15 220.35 73.0 188.15 49.7 164.55 17.9 123.1 27.3 96.55 1.25 96.35 1.1 96.5 0.6 133.25 11.15 172.2 10.1 176.9 9.95 181.4 11.3 177.45 14.6 172.25 16.3 M-109.35 17.3 Q-137.8 22.7 -166.75 23.15 -184.8 66.05 -218.15 94.25 -219.3 95.25 -220.7 92.9 -226.2 83.55 -221.7 75.5 -217.8 78.55 -215.5 82.9 -194.7 53.05 -175.65 22.0 -180.0 21.5 -183.8 19.3 L-93.3 1.4 Q-86.2 12.9 -109.35 17.3" fill="#000000" fill-opacity="0.49803922" fill-rule="evenodd" stroke="none"/>
  </g>
</svg>
