<?xml version="1.0" encoding="UTF-8" standalone="no"?>
<svg xmlns:ffdec="https://www.free-decompiler.com/flash" xmlns:xlink="http://www.w3.org/1999/xlink" ffdec:objectType="shape" height="76.4px" width="403.2px" xmlns="http://www.w3.org/2000/svg">
  <g transform="matrix(1.0, 0.0, 0.0, 1.0, 200.6, 0.4)">
    <path d="M202.6 20.5 Q179.85 62.95 136.0 70.65 133.6 71.0 135.8 68.95 165.7 41.05 201.0 19.1 L202.5 19.45 202.6 20.5 M159.9 10.2 Q160.1 12.2 158.75 13.5 L161.5 14.5 Q158.55 14.45 155.95 15.55 L155.7 15.8 155.35 16.55 Q126.7 17.0 99.15 8.1 96.35 7.15 94.3 5.5 L96.0 4.85 Q93.3 2.8 92.5 -0.4 124.05 2.8 155.15 9.5 L159.9 10.2 M-94.9 5.15 Q-94.55 7.0 -96.1 8.3 -128.35 30.1 -166.25 19.0 -167.35 18.6 -166.5 18.35 -132.0 10.3 -95.2 3.9 L-94.9 5.15 M-159.75 69.4 Q-183.55 51.8 -200.6 27.7 -169.2 40.8 -145.9 68.4 -144.65 63.25 -145.3 58.0 L-143.9 57.0 Q-141.25 60.15 -140.6 64.4 -139.15 84.7 -159.75 69.4" fill="#000000" fill-opacity="0.49803922" fill-rule="evenodd" stroke="none"/>
  </g>
</svg>
