<?xml version="1.0" encoding="UTF-8" standalone="no"?>
<svg xmlns:ffdec="https://www.free-decompiler.com/flash" xmlns:xlink="http://www.w3.org/1999/xlink" ffdec:objectType="shape" height="226.4px" width="342.6px" xmlns="http://www.w3.org/2000/svg">
  <g transform="matrix(1.0, 0.0, 0.0, 1.0, 168.5, 23.3)">
    <path d="M110.9 19.55 L113.6 21.5 Q97.25 28.5 80.75 8.85 80.7 7.85 81.3 7.05 81.95 6.2 82.85 6.15 L84.5 5.9 Q98.75 10.35 110.9 19.55 M103.6 90.0 Q110.7 81.9 120.4 77.0 L122.65 75.95 120.45 76.75 Q93.4 92.4 67.3 88.2 66.2 88.0 67.35 86.05 68.7 83.75 71.0 82.5 L72.0 82.9 72.4 83.2 72.65 83.5 72.9 83.95 73.05 84.3 73.2 85.3 Q128.55 67.9 174.1 32.5 156.85 62.55 123.8 75.5 116.65 93.9 102.9 107.7 99.3 111.3 96.15 115.35 101.6 120.5 103.65 127.75 106.2 136.6 93.25 141.9 89.4 143.5 86.7 147.25 L82.2 153.0 82.25 153.5 Q57.5 180.1 21.75 184.5 22.5 185.95 24.2 186.5 28.5 187.9 33.25 188.75 L36.5 189.25 36.75 196.25 Q85.0 201.7 109.5 163.5 94.3 203.35 48.3 203.1 34.1 203.0 22.6 195.2 6.9 184.75 8.5 164.75 L-9.0 163.25 Q-7.0 197.2 -37.45 201.1 -90.3 208.0 -111.0 164.0 -88.6 195.25 -45.85 196.5 L-37.5 197.25 -37.25 189.75 Q-32.75 189.4 -28.2 188.15 -24.35 187.0 -21.35 184.7 L-20.75 184.25 Q-62.35 177.4 -87.9 143.75 L-90.5 140.5 -91.75 141.15 -92.35 138.4 -104.05 129.35 -100.25 122.8 Q-98.6 120.15 -96.4 118.1 L-95.75 117.55 Q-108.3 108.55 -116.45 95.6 -124.85 82.2 -129.3 66.9 -150.6 56.2 -164.6 37.75 -166.75 34.95 -168.5 31.9 L-168.45 30.9 -167.9 30.25 Q-124.8 60.65 -77.8 87.05 L-75.7 86.3 -70.55 87.95 -67.6 88.75 -65.65 89.25 -63.55 89.15 -59.8 87.5 -58.5 87.7 -58.2 88.25 Q-57.85 89.1 -58.3 90.15 -58.85 91.3 -59.75 92.25 L-62.3 94.4 -63.65 95.25 -61.0 96.7 Q-69.0 99.15 -77.35 95.2 -96.2 86.4 -114.2 75.9 -111.05 81.25 -106.6 85.6 L-92.55 99.0 -89.5 99.0 -88.95 101.5 -84.65 101.5 Q-47.7 163.35 24.25 147.35 66.25 137.9 88.5 100.7 92.05 94.8 97.0 90.0 L103.6 90.0 M1.75 25.45 Q11.65 24.8 19.0 20.35 36.8 9.6 40.0 -23.3 40.0 21.55 32.85 47.5 23.45 81.65 1.75 83.2 -39.5 86.95 -40.25 -23.05 -36.25 24.45 1.75 25.45 M-107.1 20.3 Q-110.85 20.0 -106.85 17.25 -98.9 11.8 -89.3 10.3 -88.65 22.7 -107.1 20.3" fill="#000000" fill-opacity="0.49803922" fill-rule="evenodd" stroke="none"/>
  </g>
</svg>
