<?xml version="1.0" encoding="UTF-8" standalone="no"?>
<svg xmlns:ffdec="https://www.free-decompiler.com/flash" xmlns:xlink="http://www.w3.org/1999/xlink" ffdec:objectType="shape" height="356.0px" width="352.4px" xmlns="http://www.w3.org/2000/svg">
  <g transform="matrix(1.0, 0.0, 0.0, 1.0, 170.75, 143.5)">
    <path d="M16.75 -56.25 L18.25 -56.25 18.0 -58.5 Q13.65 -64.2 6.0 -65.25 L-2.75 -66.5 -3.25 -66.25 Q-10.5 -67.45 -17.75 -65.25 L-15.75 -66.0 Q-30.1 -73.05 -45.25 -68.75 L-45.3 -66.75 -44.75 -64.5 -43.25 -64.5 -43.0 -55.25 Q-41.25 -48.25 -39.5 -47.5 -51.25 -41.5 -53.25 -32.25 -58.25 -4.25 -53.25 6.75 -68.85 46.45 -90.7 82.75 -92.5 85.75 -95.5 88.0 -95.05 89.85 -95.3 91.85 L-95.7 93.65 -97.0 98.0 -91.0 112.0 Q-108.25 100.1 -117.25 81.75 L-117.75 81.75 -118.1 80.8 Q-119.15 78.3 -120.75 76.0 -134.75 49.0 -123.0 -6.25 L-139.5 -0.5 -157.5 28.5 Q-164.0 36.75 -165.5 37.0 L-168.75 37.75 Q-170.75 36.75 -170.75 34.25 -166.6 -0.6 -160.75 -18.0 L-159.35 -21.1 Q-148.65 -42.45 -128.0 -55.0 -101.5 -76.9 -84.0 -80.5 -43.5 -138.75 -6.0 -143.25 18.5 -148.25 90.5 -48.5 L90.75 -48.25 91.25 -48.0 91.75 -47.5 94.0 -45.75 112.25 -25.5 133.0 2.75 153.0 35.25 Q169.75 42.75 181.0 147.5 L181.25 150.75 181.0 156.0 Q178.75 164.0 172.75 154.75 L172.25 154.0 166.25 142.5 154.75 117.0 136.5 70.75 136.0 67.5 129.25 61.75 Q130.0 98.5 101.75 120.25 L94.5 125.9 Q82.45 134.15 68.5 138.25 79.1 126.55 76.65 111.7 76.4 110.15 75.8 108.75 65.3 85.2 45.5 68.25 L32.75 42.25 Q27.1 21.9 18.75 2.5 L22.0 -6.5 22.75 -7.0 Q28.8 -24.2 16.95 -37.35 14.3 -40.3 11.0 -42.25 L15.25 -48.25 16.75 -56.25" fill="#2e47aa" fill-rule="evenodd" stroke="none"/>
    <path d="M-43.25 -64.5 L-44.75 -64.5 -45.3 -66.75 -45.25 -68.75 Q-30.1 -73.05 -15.75 -66.0 L-17.75 -65.25 Q-10.5 -67.45 -3.25 -66.25 L-2.75 -66.5 6.0 -65.25 Q13.65 -64.2 18.0 -58.5 L18.25 -56.25 16.75 -56.25 Q8.75 -64.45 -3.75 -64.5 -11.0 -63.75 -17.75 -65.25 L-42.25 -66.0 -43.25 -64.5" fill="#243773" fill-rule="evenodd" stroke="none"/>
    <path d="M16.75 -56.25 L15.25 -48.25 11.0 -42.25 Q-5.0 -33.0 -16.5 -42.75 -31.5 -37.5 -39.5 -47.5 -41.25 -48.25 -43.0 -55.25 L-43.25 -64.5 -42.25 -66.0 -17.75 -65.25 Q-11.0 -63.75 -3.75 -64.5 8.75 -64.45 16.75 -56.25 M18.75 2.5 Q27.1 21.9 32.75 42.25 L45.5 68.25 Q65.3 85.2 75.8 108.75 76.4 110.15 76.65 111.7 79.1 126.55 68.5 138.25 L49.0 154.25 16.0 164.5 -3.5 165.75 Q-45.0 159.5 -58.75 148.5 L-76.75 135.5 -91.0 112.0 -97.0 98.0 -95.7 93.65 -95.3 91.85 Q-95.05 89.85 -95.5 88.0 -92.5 85.75 -90.7 82.75 -68.85 46.45 -53.25 6.75 -44.55 31.0 -18.5 30.6 4.05 29.4 15.25 10.3 17.4 6.7 18.75 2.5 M-34.5 -49.25 L-34.25 -48.5 Q-22.25 -40.0 -23.25 -50.75 -34.25 -59.0 -34.5 -49.25 M-2.75 -51.0 Q-17.75 -51.0 -5.0 -41.25 5.75 -45.0 -2.75 -51.0" fill="#ffffff" fill-rule="evenodd" stroke="none"/>
    <path d="M11.0 -42.25 Q14.3 -40.3 16.95 -37.35 28.8 -24.2 22.75 -7.0 L22.0 -6.5 18.75 2.5 Q17.4 6.7 15.25 10.3 4.05 29.4 -18.5 30.6 -44.55 31.0 -53.25 6.75 -58.25 -4.25 -53.25 -32.25 -51.25 -41.5 -39.5 -47.5 -31.5 -37.5 -16.5 -42.75 -5.0 -33.0 11.0 -42.25 M68.5 138.25 Q82.45 134.15 94.5 125.9 L101.75 120.25 Q111.1 157.65 97.6 193.4 L95.35 198.0 Q88.05 209.55 74.05 210.6 44.7 212.9 17.2 202.0 12.2 200.05 8.4 196.55 0.0 188.8 -2.6 177.6 -3.9 171.85 -3.5 165.75 L16.0 164.5 49.0 154.25 68.5 138.25 M-120.75 76.0 Q-119.15 78.3 -118.1 80.8 L-117.75 81.75 -117.25 81.75 Q-108.25 100.1 -91.0 112.0 L-76.75 135.5 -58.75 148.5 Q-74.4 162.5 -93.4 171.15 -107.2 177.35 -118.15 167.85 -128.7 158.75 -137.15 148.05 -152.65 128.4 -146.3 104.6 -140.75 83.75 -120.75 76.0" fill="#e58508" fill-rule="evenodd" stroke="none"/>
    <path d="M-34.5 -49.25 Q-34.25 -59.0 -23.25 -50.75 -22.25 -40.0 -34.25 -48.5 L-34.5 -49.25 M-2.75 -51.0 Q5.75 -45.0 -5.0 -41.25 -17.75 -51.0 -2.75 -51.0" fill="#31333d" fill-rule="evenodd" stroke="none"/>
    <path d="M-154.85 -18.0 L-154.25 -18.0 -154.5 -16.5 -154.85 -18.0 M-153.35 -4.95 Q-154.0 -6.15 -154.25 -7.5 -131.6 -6.15 -111.5 -16.75 L-121.25 0.25 Q-121.3 13.35 -119.05 26.35 -113.3 59.8 -89.25 82.75 -92.5 86.75 -91.6 91.8 -90.35 98.8 -85.9 104.5 -77.95 114.75 -67.45 122.65 -50.15 135.8 -30.85 145.65 -8.9 156.8 15.45 151.8 22.75 150.25 29.5 147.5 50.5 138.95 66.5 122.7 71.0 118.1 75.0 113.0 77.4 109.8 74.5 106.5 95.8 98.6 109.9 80.75 113.4 76.3 111.8 70.7 102.6 38.6 83.75 10.5 L128.25 55.25 129.25 55.0 141.35 67.0 144.85 66.9 146.25 67.75 147.5 68.5 Q144.1 69.95 140.95 71.75 139.6 72.55 138.5 73.75 L175.0 154.25 177.75 155.5 181.2 151.25 169.75 77.75 Q174.25 94.7 177.25 112.05 L179.75 125.1 Q183.3 142.25 180.25 158.9 L178.75 159.7 176.0 159.25 Q151.55 115.5 136.25 67.25 L129.75 61.75 Q130.0 97.55 102.0 120.0 L105.0 142.5 Q100.45 141.8 96.35 143.4 87.6 146.55 79.5 151.75 L78.5 156.0 Q43.9 175.3 6.5 188.5 31.9 205.4 62.5 207.35 69.25 207.3 75.45 204.7 96.8 196.05 103.5 173.5 103.0 185.3 96.7 195.2 88.6 207.85 74.1 210.9 59.15 213.9 44.25 211.2 19.75 206.55 2.1 189.9 -9.1 179.25 -3.25 165.75 -32.5 163.45 -58.0 148.75 -76.2 164.9 -98.95 172.8 -105.7 175.2 -111.75 171.6 -139.6 155.05 -147.25 123.0 -137.2 146.15 -118.05 162.85 -114.25 166.2 -109.65 167.85 -93.15 173.95 -81.65 160.4 -87.3 144.55 -98.55 131.5 -118.35 108.55 -131.5 81.75 L-120.25 76.0 Q-135.05 35.65 -122.5 -6.0 L-123.5 -6.25 -139.5 -0.5 Q-151.1 19.8 -166.25 37.5 -168.45 35.35 -169.6 32.6 -170.75 29.9 -170.5 26.9 -168.95 7.6 -162.75 -11.0 -164.65 -3.7 -162.8 3.4 -161.15 9.85 -154.95 10.9 L-150.25 5.0 -150.75 8.0 -149.75 7.75 -147.6 4.45 -153.35 -4.95 M-153.0 -10.25 L-153.75 -8.25 -155.0 -11.5 -153.0 -10.25 M-148.25 118.25 L-148.25 116.0 -147.25 118.5 -148.25 118.25 M-147.75 121.25 L-147.75 119.0 -146.75 121.5 -147.75 121.25 M165.25 57.0 L162.5 51.0 163.75 52.5 165.25 57.0 M-55.75 -5.25 Q-49.5 29.0 -15.25 30.0 13.75 25.5 24.75 -15.0 15.75 86.5 -26.5 94.0 -64.5 93.0 -55.75 -5.25" fill="#000000" fill-opacity="0.49803922" fill-rule="evenodd" stroke="none"/>
  </g>
</svg>
