<?xml version="1.0" encoding="UTF-8" standalone="no"?>
<svg xmlns:ffdec="https://www.free-decompiler.com/flash" xmlns:xlink="http://www.w3.org/1999/xlink" ffdec:objectType="shape" height="365.2px" width="318.8px" xmlns="http://www.w3.org/2000/svg">
  <g transform="matrix(1.0, 0.0, 0.0, 1.0, 160.9, 200.2)">
    <path d="M127.05 23.35 Q131.35 42.4 128.35 61.8 125.7 79.0 115.9 93.5 107.45 106.0 95.5 115.25 90.3 120.05 84.2 123.15 L82.75 123.75 Q71.75 137.15 57.1 146.35 43.9 154.55 28.95 159.35 18.8 162.6 8.25 164.75 L4.75 165.0 -9.25 163.25 Q-28.2 160.1 -45.55 151.55 -64.15 142.4 -78.25 127.25 L-88.25 122.25 -96.5 116.25 Q-112.05 105.5 -120.9 88.6 -129.15 72.85 -130.2 55.15 -131.25 38.2 -128.25 21.5 L-126.9 14.5 Q-124.9 5.5 -121.2 -4.55 -153.15 -37.7 -160.55 -96.0 -162.7 -163.3 -152.4 -188.55 -149.65 -195.3 -146.0 -199.05 L-143.65 -188.55 Q-125.1 -109.15 -91.55 -62.15 L-87.0 -69.25 -81.5 -77.4 Q-64.05 -102.55 -42.2 -123.8 -26.55 -138.9 -6.25 -146.45 L-1.5 -148.0 Q27.55 -139.15 48.95 -117.3 65.3 -100.5 78.6 -81.3 L84.1 -73.15 88.65 -66.05 Q122.05 -112.8 143.65 -200.2 159.75 -166.05 157.65 -99.9 150.25 -41.6 118.3 -8.45 120.75 -1.8 122.45 4.35 125.2 13.2 126.65 21.1 L126.5 21.0 126.9 22.55 127.05 23.35 M-1.35 -70.35 L-1.0 -70.25 -1.35 -70.4 -1.35 -70.35" fill="#2e47aa" fill-rule="evenodd" stroke="none"/>
    <path d="M-1.35 -70.35 L-1.35 -70.4 -1.0 -70.25 -1.35 -70.35" fill="#243773" fill-rule="evenodd" stroke="none"/>
    <path d="M126.65 21.1 L126.9 22.55 127.05 23.35" fill="none" stroke="#000000" stroke-linecap="round" stroke-linejoin="round" stroke-width="1.0"/>
  </g>
</svg>
