<?xml version="1.0" encoding="UTF-8" standalone="no"?>
<svg xmlns:ffdec="https://www.free-decompiler.com/flash" xmlns:xlink="http://www.w3.org/1999/xlink" ffdec:objectType="shape" height="329.1px" width="319.4px" xmlns="http://www.w3.org/2000/svg">
  <g transform="matrix(1.0, 0.0, 0.0, 1.0, 161.4, 124.7)">
    <path d="M-25.75 -48.5 Q-27.5 -49.0 -30.5 -57.25 L-30.5 -64.5 -29.25 -66.5 Q-17.6 -72.4 -4.55 -69.5 L-3.25 -69.25 -3.0 -69.0 Q10.65 -71.05 24.45 -68.5 28.05 -67.7 30.0 -64.5 29.5 -56.0 28.5 -55.0 L25.25 -49.25 Q18.5 -39.5 -0.5 -47.0 -17.5 -39.25 -25.75 -48.5 M12.0 -47.0 Q22.5 -52.5 14.0 -57.0 -1.5 -55.0 12.0 -47.0 M-15.5 -56.75 Q-22.5 -48.75 -11.75 -47.0 -0.5 -56.25 -15.5 -56.75" fill="#ffffff" fill-rule="evenodd" stroke="none"/>
    <path d="M25.25 -49.25 Q42.9 -39.25 39.75 -18.65 38.4 -9.85 36.0 -1.25 31.25 17.25 14.05 23.85 -4.45 31.1 -21.25 20.1 -31.5 13.4 -35.5 1.75 L-38.5 -8.25 Q-48.0 -33.0 -25.75 -48.5 -17.5 -39.25 -0.5 -47.0 18.5 -39.5 25.25 -49.25 M-88.25 122.25 L-78.25 127.25 Q-64.15 142.4 -45.55 151.55 -28.2 160.1 -9.25 163.25 -8.5 175.6 -14.1 186.75 -16.05 190.55 -19.35 193.3 -34.3 205.9 -55.3 202.85 -75.65 200.25 -93.05 189.6 -111.45 178.45 -110.8 156.7 -110.1 134.55 -96.5 116.25 L-88.25 122.25 M8.25 164.75 Q18.8 162.6 28.95 159.35 43.9 154.55 57.1 146.35 71.75 137.15 82.75 123.75 L84.2 123.15 Q90.3 120.05 95.5 115.25 111.0 141.75 110.5 154.0 111.0 193.0 55.25 201.0 30.5 204.25 16.75 193.0 11.5 190.0 8.25 164.75" fill="#e58508" fill-rule="evenodd" stroke="none"/>
    <path d="M12.0 -47.0 Q-1.5 -55.0 14.0 -57.0 22.5 -52.5 12.0 -47.0 M-15.5 -56.75 Q-0.5 -56.25 -11.75 -47.0 -22.5 -48.75 -15.5 -56.75" fill="#000000" fill-rule="evenodd" stroke="none"/>
    <path d="M-1.35 -70.35 L-1.35 -70.4 -1.0 -70.25 -1.35 -70.35" fill="#243773" fill-rule="evenodd" stroke="none"/>
    <path d="M126.65 21.1 L126.9 22.55 127.05 23.35" fill="none" stroke="#000000" stroke-linecap="round" stroke-linejoin="round" stroke-width="1.0"/>
    <path d="M147.65 -76.2 L157.65 -117.4 Q160.1 -81.95 145.95 -54.3 131.8 -26.65 123.9 -15.65 116.0 -4.7 124.35 12.65 132.7 29.95 127.75 58.4 121.85 92.2 95.5 115.0 L104.0 131.75 92.5 138.0 92.25 142.0 Q77.55 161.9 55.65 173.6 39.8 182.1 21.95 184.85 22.85 186.1 24.15 186.6 L33.4 188.85 36.5 189.25 36.75 196.25 Q65.0 198.6 89.15 185.6 102.8 178.25 109.8 164.15 107.2 178.25 94.95 186.3 64.3 206.2 27.95 197.8 12.95 194.3 9.6 178.25 8.2 171.45 8.5 164.75 L-9.0 163.25 Q-8.0 183.95 -23.25 196.65 -33.8 205.45 -48.05 204.25 -69.8 202.3 -89.15 192.2 -106.7 182.95 -111.0 164.0 -96.15 189.4 -64.45 193.65 L-37.5 197.25 -37.25 189.75 Q-32.6 189.45 -28.2 188.15 -24.1 187.1 -20.75 184.25 -43.8 179.45 -62.85 165.75 -80.55 152.9 -96.25 137.55 -99.75 134.1 -104.65 132.7 -103.5 128.1 -101.4 124.0 -99.3 119.75 -96.25 115.75 -114.75 103.05 -122.05 81.9 -129.25 61.0 -128.8 38.6 -128.35 16.35 -122.55 -5.1 -137.2 -18.8 -145.7 -36.95 -164.15 -76.2 -160.9 -124.7 L-157.45 -118.6 Q-149.5 -80.45 -133.1 -44.5 -124.7 -26.2 -108.25 -17.2 -117.9 14.4 -117.95 34.45 -118.05 54.5 -111.5 69.5 -105.0 84.45 -84.15 97.65 L-85.05 99.0 Q-76.3 120.35 -57.45 133.4 -17.95 160.6 28.1 147.8 59.65 139.05 80.85 114.3 90.05 103.5 87.25 91.5 100.85 83.25 111.2 70.05 121.55 56.8 115.35 32.05 L104.1 -12.9 Q125.25 -35.45 135.65 -51.9 146.05 -68.35 147.65 -76.2 M1.75 25.45 Q35.5 23.2 40.0 -23.3 40.0 80.45 1.75 83.2 -39.5 86.95 -40.25 -23.05 -36.25 24.45 1.75 25.45" fill="#000000" fill-opacity="0.49803922" fill-rule="evenodd" stroke="none"/>
  </g>
</svg>
