<?xml version="1.0" encoding="UTF-8" standalone="no"?>
<svg xmlns:ffdec="https://www.free-decompiler.com/flash" xmlns:xlink="http://www.w3.org/1999/xlink" ffdec:objectType="shape" height="339.5px" width="348.0px" xmlns="http://www.w3.org/2000/svg">
  <g transform="matrix(1.0, 0.0, 0.0, 1.0, 179.75, 184.5)">
    <path d="M113.25 -71.25 L123.2 -58.1 Q145.6 -28.4 163.45 3.8 165.75 8.0 166.8 12.8 169.85 26.55 166.4 40.6 164.85 47.0 161.5 52.95 155.7 63.3 144.55 58.95 138.3 56.4 136.0 49.95 132.6 40.45 132.25 30.5 L128.25 26.25 Q134.4 56.35 117.8 82.65 102.0 107.55 77.4 122.9 70.35 127.35 64.25 133.25 L32.5 148.75 7.5 155.0 -24.5 152.0 -48.75 142.25 -71.25 124.25 Q-100.9 112.3 -117.85 85.3 -131.55 63.4 -130.45 37.6 -130.05 28.75 -128.5 20.25 L-144.0 37.5 -143.45 38.9 -143.0 40.05 -142.5 41.1 -142.1 41.9 -141.65 42.6 -141.25 43.05 -140.85 43.4 -140.5 43.5 Q-130.6 61.7 -126.7 81.9 -125.95 85.85 -129.5 87.35 -135.55 89.8 -142.15 90.3 -158.6 91.35 -167.6 77.65 -176.95 63.45 -177.25 45.75 L-179.75 43.0 Q-175.8 31.9 -171.5 20.95 -170.25 17.75 -167.4 15.8 -166.9 15.45 -166.25 15.25 L-154.75 -3.5 -124.5 -45.75 -103.75 -71.25 Q-88.55 -84.95 -79.25 -103.2 L-73.9 -112.85 Q-50.75 -151.9 -13.9 -177.55 -7.75 -181.8 -0.75 -184.5 19.7 -178.9 34.2 -162.75 62.3 -131.5 83.5 -95.25 101.1 -87.15 113.25 -71.25" fill="#2e47aa" fill-rule="evenodd" stroke="none"/>
  </g>
</svg>
