<?xml version="1.0" encoding="UTF-8" standalone="no"?>
<svg xmlns:ffdec="https://www.free-decompiler.com/flash" xmlns:xlink="http://www.w3.org/1999/xlink" ffdec:objectType="shape" height="351.5px" width="363.25px" xmlns="http://www.w3.org/2000/svg">
  <g transform="matrix(1.0, 0.0, 0.0, 1.0, 175.0, 202.0)">
    <path d="M88.25 -109.0 Q93.95 -108.55 99.3 -106.5 133.9 -93.5 160.5 -67.5 163.8 -89.65 171.2 -110.7 172.95 -115.7 177.4 -114.15 179.95 -113.3 181.0 -110.8 185.25 -100.1 186.0 -88.5 L188.25 -61.25 Q188.1 -41.9 187.1 -22.55 186.75 -16.4 184.75 -10.45 182.85 -4.85 178.75 -0.75 170.85 7.1 162.5 -1.5 L160.75 -1.75 Q159.1 -1.9 157.8 -2.55 141.15 -11.15 123.75 -19.75 L126.5 -8.1 Q134.2 23.8 128.7 56.1 123.05 89.05 96.2 108.65 90.3 112.95 83.85 116.15 71.0 122.55 59.75 131.5 L32.0 144.5 7.0 149.5 -25.25 145.75 -50.0 135.0 Q-58.0 128.1 -66.85 122.6 L-81.55 113.85 Q-118.8 93.25 -125.25 51.75 -135.0 59.7 -147.4 61.35 L-151.85 61.0 Q-168.65 56.1 -170.95 37.75 -171.75 31.1 -173.25 24.65 -173.75 22.6 -175.0 20.75 -170.45 9.5 -165.5 -1.55 -163.65 -5.75 -159.75 -7.0 L-147.25 -25.75 -116.75 -64.0 -92.75 -90.75 Q-85.3 -98.25 -78.8 -106.5 -73.6 -113.1 -69.15 -120.25 -59.7 -135.45 -49.35 -149.95 -25.55 -183.35 10.75 -202.0 25.35 -196.6 36.15 -185.35 68.5 -151.6 88.25 -109.0 M-136.25 14.5 L-128.25 29.0 -126.25 34.0 -125.75 23.0 -122.25 0.25 -136.25 14.5" fill="#2e47aa" fill-rule="evenodd" stroke="none"/>
  </g>
</svg>
