<?xml version="1.0" encoding="UTF-8" standalone="no"?>
<svg xmlns:ffdec="https://www.free-decompiler.com/flash" xmlns:xlink="http://www.w3.org/1999/xlink" ffdec:objectType="shape" height="356.5px" width="358.75px" xmlns="http://www.w3.org/2000/svg">
  <g transform="matrix(1.0, 0.0, 0.0, 1.0, 172.25, 210.0)">
    <path d="M158.5 -102.0 L161.75 -124.25 163.4 -129.9 Q164.05 -132.0 165.0 -134.0 L166.6 -136.5 167.45 -137.2 168.2 -137.55 Q170.75 -137.15 172.1 -134.75 175.25 -129.3 176.45 -123.2 L176.75 -121.5 179.75 -104.5 183.5 -74.75 186.5 -39.25 Q185.9 -27.45 183.0 -16.1 181.0 -8.1 175.75 -1.75 171.45 3.45 165.6 0.15 L162.0 -2.0 Q158.2 -1.8 155.05 -3.6 L134.65 -15.5 Q130.25 -18.15 126.0 -21.0 128.1 -12.2 129.7 -3.15 135.0 26.85 129.25 56.8 121.65 96.7 85.8 115.85 L83.4 117.0 Q69.7 122.65 57.5 131.0 L32.0 142.25 7.0 146.25 3.25 146.5 -25.0 142.75 -50.0 131.5 Q-56.4 125.85 -63.3 121.05 -67.35 118.25 -71.85 115.95 -80.95 111.3 -89.75 105.9 -105.5 96.15 -113.55 79.25 -123.3 58.8 -124.75 36.0 L-128.05 39.05 Q-136.95 47.65 -149.05 47.85 -153.9 47.95 -157.6 44.85 -170.3 34.4 -170.7 17.35 -170.75 15.8 -170.0 14.25 L-172.25 9.75 Q-168.25 -0.4 -163.6 -10.15 -161.4 -14.7 -157.6 -17.55 L-156.9 -17.9 -156.25 -18.0 -144.25 -35.25 -112.25 -73.5 -86.75 -100.25 Q-79.65 -107.1 -74.5 -115.2 -52.0 -150.25 -23.7 -180.7 -6.7 -199.0 15.5 -210.0 44.8 -194.9 62.9 -167.1 79.75 -141.25 91.75 -113.0 113.85 -108.1 131.45 -93.6 143.8 -83.45 155.75 -72.75 L158.5 -102.0 M-123.75 17.0 L-119.0 -9.25 -132.0 3.0 -123.75 17.0" fill="#2e47aa" fill-rule="evenodd" stroke="none"/>
  </g>
</svg>
