<?xml version="1.0" encoding="UTF-8" standalone="no"?>
<svg xmlns:ffdec="https://www.free-decompiler.com/flash" xmlns:xlink="http://www.w3.org/1999/xlink" ffdec:objectType="shape" height="351.5px" width="353.8px" xmlns="http://www.w3.org/2000/svg">
  <g transform="matrix(1.0, 0.0, 0.0, 1.0, 174.75, 202.25)">
    <path d="M152.0 -95.4 L153.35 -95.3 Q157.6 -93.05 159.7 -88.75 L166.25 -74.25 178.25 -31.5 Q179.75 -20.05 178.45 -8.6 177.8 -3.1 176.55 2.45 174.75 10.55 169.35 16.5 166.65 19.55 162.75 18.6 156.8 17.0 152.1 13.05 141.25 4.1 129.7 -3.95 128.35 -4.85 126.75 -6.0 135.55 36.05 122.95 76.65 120.35 84.95 115.2 92.0 105.0 106.15 89.35 113.75 73.9 121.25 59.75 131.5 L32.0 144.5 7.0 149.25 -24.0 146.25 -49.75 135.0 Q-64.15 121.45 -81.8 112.85 -100.0 103.9 -111.35 87.15 -122.85 70.3 -125.25 50.0 -135.8 59.15 -149.35 60.5 -155.15 61.15 -159.6 57.45 -171.25 47.8 -171.65 32.25 -171.8 25.8 -174.75 20.25 L-165.95 -1.1 Q-164.05 -5.7 -159.75 -7.0 L-149.5 -22.5 -118.0 -62.5 -93.5 -90.0 Q-85.75 -97.95 -78.7 -106.45 -75.05 -110.8 -72.2 -115.8 -48.2 -157.9 -10.85 -188.6 -0.65 -197.0 11.5 -202.25 50.1 -179.45 72.45 -140.1 81.55 -124.1 89.0 -107.5 100.1 -106.5 108.95 -98.8 L118.4 -90.65 Q132.5 -78.45 145.75 -65.25 L147.0 -83.0 Q146.4 -90.9 152.0 -95.4 M-136.0 14.25 L-126.25 31.75 Q-126.15 28.25 -125.7 24.8 -124.15 12.5 -122.25 0.25 L-136.0 14.25" fill="#2e47aa" fill-rule="evenodd" stroke="none"/>
  </g>
</svg>
