<?xml version="1.0" encoding="UTF-8" standalone="no"?>
<svg xmlns:ffdec="https://www.free-decompiler.com/flash" xmlns:xlink="http://www.w3.org/1999/xlink" ffdec:objectType="shape" height="345.75px" width="351.3px" xmlns="http://www.w3.org/2000/svg">
  <g transform="matrix(1.0, 0.0, 0.0, 1.0, 177.0, 193.5)">
    <path d="M68.15 -134.95 Q78.1 -118.5 86.75 -101.5 L118.0 -79.25 141.5 -52.5 Q163.5 -38.15 170.85 -13.55 L171.95 -8.55 Q172.9 -2.4 174.0 3.85 175.0 9.5 172.7 14.95 169.0 23.65 164.4 31.85 159.9 39.8 152.95 34.8 149.6 32.45 147.5 29.05 146.25 26.95 144.5 25.25 136.5 17.35 128.0 10.0 135.9 47.55 119.1 81.55 111.6 96.65 98.55 107.3 88.3 115.8 76.2 121.15 74.75 121.85 73.55 122.85 69.25 126.6 65.25 130.75 L33.0 146.5 7.25 152.25 Q-8.85 151.95 -24.75 148.75 L-25.75 148.5 -50.25 138.0 Q-59.65 130.25 -69.45 123.1 -72.0 121.25 -74.95 119.85 -107.55 104.8 -122.2 72.3 -124.2 67.9 -125.0 63.25 -136.8 74.35 -152.9 72.9 -157.4 72.5 -160.65 69.55 -172.0 59.3 -173.85 43.5 -174.4 39.0 -175.5 34.65 -175.9 33.1 -177.0 31.75 -172.55 20.3 -167.65 9.05 -166.05 5.35 -162.5 3.75 L-150.75 -14.5 -120.75 -54.25 -96.25 -83.0 Q-83.45 -92.95 -75.95 -107.6 L-70.25 -117.75 Q-47.85 -154.6 -14.6 -181.8 -5.3 -189.35 6.0 -193.5 45.1 -173.2 68.15 -134.95 M-127.5 29.25 L-125.5 10.75 -139.0 25.0 -130.0 41.5 -127.25 48.5 -127.5 29.25" fill="#2e47aa" fill-rule="evenodd" stroke="none"/>
  </g>
</svg>
