<?xml version="1.0" encoding="UTF-8" standalone="no"?>
<svg xmlns:ffdec="https://www.free-decompiler.com/flash" xmlns:xlink="http://www.w3.org/1999/xlink" ffdec:objectType="shape" height="368.25px" width="328.15px" xmlns="http://www.w3.org/2000/svg">
  <g transform="matrix(1.0, 0.0, 0.0, 1.0, 158.15, 148.4)">
    <path d="M-115.0 67.75 Q-125.4 47.0 -123.65 23.55 L-122.5 7.45 Q-121.45 -8.8 -119.0 -24.75 L-128.0 -21.25 Q-136.55 4.25 -153.9 24.7 -154.45 25.4 -155.45 25.1 -156.3 25.2 -156.45 24.25 -159.75 2.05 -154.6 -19.75 -149.45 -41.7 -133.0 -57.15 -116.35 -72.75 -97.7 -86.55 -88.85 -93.0 -81.6 -101.25 -74.1 -109.65 -67.0 -118.2 -47.0 -142.4 -16.75 -148.15 -14.6 -148.65 -12.3 -148.15 4.25 -144.85 16.0 -132.2 L26.8 -120.5 Q53.05 -91.95 74.4 -59.55 L88.0 -38.75 105.75 -17.0 127.0 15.75 145.75 49.5 148.75 50.5 158.75 71.5 164.75 104.0 168.25 137.0 169.75 165.25 Q171.0 172.7 165.4 175.1 165.1 175.2 164.75 174.75 151.85 158.95 144.75 139.75 L131.75 109.5 125.2 92.2 Q122.15 111.5 106.9 124.25 102.55 127.95 98.5 132.0 92.75 135.35 86.8 138.35 67.9 147.9 46.5 149.75 L54.5 145.25 59.5 131.0 Q54.8 103.6 35.2 83.25 29.8 77.65 25.0 71.75 L12.0 42.5 Q5.55 19.1 -2.25 -4.0 0.5 -7.0 2.5 -10.5 6.75 -17.0 6.0 -18.25 L6.0 -18.5 Q9.25 -31.0 -7.0 -46.75 -4.75 -47.75 -1.75 -53.75 L-0.5 -60.0 0.75 -59.75 Q-0.25 -65.1 -5.6 -67.8 -14.05 -72.25 -23.25 -74.0 -29.25 -75.15 -35.25 -74.25 L-34.5 -74.75 -33.25 -74.75 Q-43.45 -81.35 -55.55 -82.0 L-59.0 -81.75 -59.5 -80.5 -58.05 -77.6 -57.0 -76.5 -57.0 -76.0 Q-59.4 -67.35 -55.5 -59.0 L-62.75 -53.5 -68.75 -43.0 Q-80.75 -9.75 -73.0 2.75 L-80.5 24.75 -94.25 56.25 Q-97.8 64.0 -103.75 69.5 -102.9 74.25 -104.0 78.9 L-104.25 79.75 -101.0 90.25 -103.75 86.6 -112.75 72.0 -113.75 71.5 -113.5 70.75 -115.0 67.75" fill="#2e47aa" fill-rule="evenodd" stroke="none"/>
    <path d="M-57.0 -76.5 L-58.05 -77.6 -59.5 -80.5 -59.0 -81.75 -55.55 -82.0 Q-43.45 -81.35 -33.25 -74.75 L-34.5 -74.75 -35.25 -74.25 Q-29.25 -75.15 -23.25 -74.0 -14.05 -72.25 -5.6 -67.8 -0.25 -65.1 0.75 -59.75 L-0.5 -60.0 Q-2.15 -62.75 -5.05 -64.4 -19.3 -72.05 -35.25 -74.25 -44.35 -80.1 -55.25 -79.0 L-57.0 -76.5" fill="#243773" fill-rule="evenodd" stroke="none"/>
    <path d="M98.5 132.0 Q107.0 170.75 98.5 195.25 89.75 228.0 29.0 216.5 6.25 213.0 -4.75 191.25 -7.75 185.5 -1.0 163.5 L28.25 159.5 46.5 149.75 Q67.9 147.9 86.8 138.35 92.75 135.35 98.5 132.0 M-60.5 147.25 Q-89.0 165.0 -95.5 161.75 L-98.75 160.75 Q-107.25 161.75 -125.0 136.0 L-125.25 135.5 -125.25 135.25 Q-148.75 98.75 -120.5 71.0 -120.05 71.3 -120.0 70.75 L-115.0 67.75 -113.5 70.75 -113.75 71.5 -112.75 72.0 -103.75 86.6 -101.0 90.25 -89.75 120.25 -69.25 142.5 -60.5 147.25 M-73.0 2.75 Q-80.75 -9.75 -68.75 -43.0 L-62.75 -53.5 -55.5 -59.0 Q-51.0 -48.75 -35.5 -51.75 -17.75 -39.0 -7.0 -46.75 9.25 -31.0 6.0 -18.5 L6.0 -18.25 Q6.75 -17.0 2.5 -10.5 0.5 -7.0 -2.25 -4.0 -13.4 13.4 -32.7 19.7 -40.6 22.25 -48.9 20.7 -65.15 17.55 -73.0 2.75" fill="#e58508" fill-rule="evenodd" stroke="none"/>
    <path d="M-1.0 163.5 Q-30.25 167.5 -60.5 147.25 L-69.25 142.5 -89.75 120.25 -101.0 90.25 -104.25 79.75 -104.0 78.9 Q-102.9 74.25 -103.75 69.5 -97.8 64.0 -94.25 56.25 L-80.5 24.75 -73.0 2.75 Q-65.15 17.55 -48.9 20.7 -40.6 22.25 -32.7 19.7 -13.4 13.4 -2.25 -4.0 5.55 19.1 12.0 42.5 L25.0 71.75 Q29.8 77.65 35.2 83.25 54.8 103.6 59.5 131.0 L54.5 145.25 46.5 149.75 28.25 159.5 -1.0 163.5 M-55.5 -59.0 Q-59.4 -67.35 -57.0 -76.0 L-57.0 -76.5 -55.25 -79.0 Q-44.35 -80.1 -35.25 -74.25 -19.3 -72.05 -5.05 -64.4 -2.15 -62.75 -0.5 -60.0 L-1.75 -53.75 Q-4.75 -47.75 -7.0 -46.75 -17.75 -39.0 -35.5 -51.75 -51.0 -48.75 -55.5 -59.0 M-30.5 -57.0 L-30.25 -54.0 -29.0 -50.25 Q-26.75 -48.25 -22.5 -48.75 -16.25 -54.75 -22.25 -58.0 -23.75 -60.0 -30.5 -57.0 M-44.5 -55.0 Q-37.5 -63.75 -51.75 -64.75 -52.5 -53.25 -44.5 -55.0" fill="#ffffff" fill-rule="evenodd" stroke="none"/>
    <path d="M-30.5 -57.0 Q-23.75 -60.0 -22.25 -58.0 -16.25 -54.75 -22.5 -48.75 -26.75 -48.25 -29.0 -50.25 L-30.25 -54.0 -30.5 -57.0 M-44.5 -55.0 Q-52.5 -53.25 -51.75 -64.75 -37.5 -63.75 -44.5 -55.0" fill="#31333d" fill-rule="evenodd" stroke="none"/>
    <path d="M-138.5 -28.0 L-137.65 -27.25 Q-124.0 -28.85 -111.25 -35.5 -114.35 -31.5 -116.1 -26.6 -118.3 -20.25 -117.6 -13.45 -113.65 24.8 -96.0 59.25 -103.75 68.9 -98.4 80.6 -91.75 95.05 -82.2 108.15 -72.8 120.95 -60.0 130.3 -45.2 141.2 -26.95 143.35 -22.1 144.1 -17.2 143.55 21.0 141.7 56.45 127.35 L56.7 127.0 57.55 125.35 Q58.3 123.65 57.85 121.9 85.4 117.05 106.0 98.0 90.05 58.15 69.75 20.0 95.15 50.55 122.75 79.25 L125.0 78.5 131.55 84.1 131.5 85.0 128.5 85.0 126.4 86.85 Q125.55 87.7 125.5 88.8 125.2 93.65 123.35 98.1 115.3 117.8 98.75 131.5 L101.75 151.75 101.0 151.0 Q81.7 158.85 61.5 164.25 L59.25 168.25 Q41.8 174.05 24.1 178.95 9.15 182.9 -4.05 190.0 -1.9 195.05 1.7 199.05 5.95 203.65 11.8 205.95 33.9 214.8 58.0 215.45 68.15 215.75 77.5 212.0 99.35 203.3 102.0 179.5 101.35 192.65 94.8 203.9 L93.0 206.3 Q78.0 220.85 56.5 219.8 32.8 218.3 11.25 208.85 1.8 204.85 -2.7 195.55 -10.5 179.4 -1.0 163.5 -33.3 166.55 -59.5 147.25 -68.6 151.95 -77.65 156.95 -85.8 161.45 -94.7 161.65 -97.3 161.1 -99.55 160.0 -126.55 146.05 -132.75 116.0 -126.45 135.35 -111.35 148.95 -99.75 159.3 -84.75 155.5 -85.5 150.15 -87.95 145.45 -93.9 134.2 -99.2 122.75 -103.3 113.9 -109.3 106.5 -120.45 92.65 -126.25 75.75 L-114.75 67.75 Q-118.85 57.4 -120.75 46.35 -126.9 10.7 -118.5 -24.75 L-128.0 -21.0 Q-136.55 4.55 -153.75 25.5 L-156.2 22.25 Q-157.3 20.55 -157.5 18.7 -159.55 0.95 -155.25 -16.75 -155.4 -14.35 -154.8 -12.15 -153.85 -8.75 -151.2 -6.3 -149.15 -6.85 -147.35 -8.2 -144.25 -10.35 -142.75 -14.0 L-143.9 -15.45 Q-148.0 -20.8 -148.0 -27.75 L-141.65 -28.05 -140.75 -26.5 -138.5 -28.0 M-154.75 -20.0 L-153.25 -25.0 -154.25 -17.75 -154.75 -20.0 M-145.25 -7.75 L-145.25 -6.5 -142.5 -9.75 -143.0 -11.5 -145.25 -7.75 M-74.5 -4.5 L-75.5 -7.25 -75.7 -14.8 Q-74.25 14.4 -43.25 20.25 -17.0 21.0 6.0 -18.25 -25.0 89.0 -55.25 85.0 -78.0 80.5 -78.0 64.75 L-79.0 60.25 -79.75 44.0 -78.5 19.0 -76.0 -0.5 Q-76.0 -4.75 -74.5 -4.5 M-135.75 102.75 L-135.75 101.0 -135.0 103.0 -135.75 102.75 M-134.5 111.5 L-134.75 110.0 -133.75 111.5 -134.5 111.5 M-134.0 113.5 L-134.25 112.0 -133.25 113.5 -134.0 113.5 M-133.5 115.5 L-133.75 114.0 -132.75 115.5 -133.5 115.5 M168.0 134.25 L169.75 166.5 Q168.05 154.3 166.95 141.9 164.35 113.05 160.75 84.5 L164.5 102.5 168.0 134.25 M164.0 171.75 L164.75 171.0 164.5 170.0 166.0 170.75 Q166.55 168.95 167.7 167.75 168.45 166.85 169.5 167.5 L169.0 174.0 Q164.4 177.9 161.35 172.35 150.85 153.2 141.75 133.25 L128.75 101.0 129.5 101.25 162.5 170.25 164.0 171.75" fill="#000000" fill-opacity="0.49803922" fill-rule="evenodd" stroke="none"/>
  </g>
</svg>
