<?xml version="1.0" encoding="UTF-8" standalone="no"?>
<svg xmlns:ffdec="https://www.free-decompiler.com/flash" xmlns:xlink="http://www.w3.org/1999/xlink" ffdec:objectType="shape" height="339.5px" width="348.65px" xmlns="http://www.w3.org/2000/svg">
  <g transform="matrix(1.0, 0.0, 0.0, 1.0, 179.75, 184.5)">
    <path d="M161.75 -3.5 Q167.3 8.45 168.8 21.65 169.5 27.6 166.1 32.45 164.5 34.65 163.65 37.4 160.0 49.45 149.25 54.0 L146.05 53.9 Q137.8 50.1 133.5 42.0 L128.5 32.0 Q133.65 61.05 115.75 85.35 105.5 99.3 92.45 110.65 88.35 114.3 83.95 117.45 L77.15 122.35 Q70.35 127.35 64.25 133.25 L32.5 148.75 7.5 155.0 -24.5 152.0 -48.75 142.25 -71.25 124.25 Q-110.7 108.25 -125.6 68.65 -130.05 56.85 -130.4 44.15 -130.7 32.05 -128.5 20.25 L-145.0 38.5 Q-136.3 54.05 -133.05 71.75 -131.9 78.1 -137.3 80.9 L-141.6 83.35 Q-151.1 89.15 -160.1 81.7 -174.4 69.8 -176.15 51.55 -176.4 48.75 -177.0 46.0 L-179.75 43.0 Q-176.85 34.65 -175.6 25.7 -175.25 23.3 -173.95 21.35 -171.1 17.15 -167.75 13.45 -160.65 5.5 -154.75 -3.5 L-124.5 -45.75 -103.75 -71.25 Q-87.1 -87.3 -76.25 -107.95 L-70.9 -117.3 Q-48.65 -153.75 -13.9 -177.5 -7.75 -181.8 -0.75 -184.5 21.4 -178.05 36.85 -160.15 63.15 -129.75 83.5 -95.25 107.8 -80.8 124.6 -57.45 140.95 -34.85 155.75 -11.25 L156.75 -11.0 159.75 -5.25 161.75 -3.5" fill="#2e47aa" fill-rule="evenodd" stroke="none"/>
  </g>
</svg>
