<?xml version="1.0" encoding="UTF-8" standalone="no"?>
<svg xmlns:ffdec="https://www.free-decompiler.com/flash" xmlns:xlink="http://www.w3.org/1999/xlink" ffdec:objectType="shape" height="351.75px" width="355.5px" xmlns="http://www.w3.org/2000/svg">
  <g transform="matrix(1.0, 0.0, 0.0, 1.0, 197.25, 202.25)">
    <path d="M109.5 -73.25 L138.0 -29.0 149.75 -5.75 150.25 -5.0 153.75 2.0 154.0 2.25 158.25 20.75 Q156.5 28.5 154.75 30.0 L154.5 30.5 Q145.25 68.0 125.0 57.5 120.0 90.0 91.75 109.5 L83.25 115.25 83.0 115.75 82.0 116.0 81.5 116.5 75.25 119.25 74.5 119.75 66.0 123.25 64.0 125.25 57.0 130.5 29.5 144.0 2.25 149.5 -26.75 146.5 -52.5 135.75 -65.5 126.0 -70.25 121.0 -71.5 120.75 -74.25 119.5 -75.0 119.25 -79.5 117.25 -83.0 115.0 -83.5 114.75 -84.5 114.0 -85.5 113.5 -92.25 109.25 Q-122.25 86.0 -126.25 63.25 -135.0 34.75 -122.0 -26.0 L-137.75 -15.5 -168.25 3.0 Q-175.75 16.25 -184.5 6.25 -197.25 4.5 -196.0 -21.5 L-196.75 -26.75 -196.5 -34.75 -197.25 -38.0 -194.0 -60.0 -187.75 -93.25 -187.5 -93.75 -185.75 -101.5 -185.75 -102.25 -183.25 -112.25 -183.25 -112.5 Q-177.75 -134.75 -170.5 -116.75 L-170.25 -116.0 -169.0 -110.5 -169.25 -109.75 -166.5 -89.5 -165.0 -58.0 -163.5 -58.75 -158.5 -63.25 -124.75 -90.0 Q-93.25 -111.5 -85.75 -110.0 -51.25 -180.0 -7.0 -202.25 34.5 -187.75 81.0 -103.5 L93.25 -93.75 109.5 -73.25" fill="#2e47aa" fill-rule="evenodd" stroke="none"/>
  </g>
</svg>
