<?xml version="1.0" encoding="UTF-8" standalone="no"?>
<svg xmlns:ffdec="https://www.free-decompiler.com/flash" xmlns:xlink="http://www.w3.org/1999/xlink" ffdec:objectType="shape" height="355.45px" width="351.5px" xmlns="http://www.w3.org/2000/svg">
  <g transform="matrix(1.0, 0.0, 0.0, 1.0, 199.25, 208.95)">
    <path d="M62.25 -136.45 L67.35 -127.1 Q76.15 -109.5 91.0 -96.75 L107.75 -73.5 132.75 -31.25 148.25 1.25 149.5 5.0 149.25 5.75 149.75 5.75 149.5 7.0 150.0 7.5 149.75 8.25 150.25 8.25 150.0 9.5 150.5 10.0 150.25 10.75 150.75 10.75 152.25 22.25 Q150.55 27.1 149.25 32.05 148.45 34.9 147.8 37.85 144.6 52.0 132.0 59.25 127.95 61.6 123.5 63.0 119.7 74.9 113.45 85.65 108.25 94.55 100.6 101.35 88.85 111.8 74.55 118.85 64.1 124.1 53.75 129.5 L28.0 141.5 0.0 146.5 -28.5 143.5 -53.5 133.0 Q-63.4 125.75 -74.05 120.0 -97.35 107.25 -113.85 86.35 -120.0 78.55 -123.35 69.05 -131.3 46.4 -129.6 22.15 -127.8 -3.8 -122.75 -29.25 -138.2 -17.4 -154.2 -6.65 L-165.25 1.0 Q-166.25 5.95 -169.15 10.1 -172.75 15.15 -178.35 12.5 -182.8 10.35 -186.75 7.2 -194.8 0.8 -196.25 -9.2 -196.8 -12.95 -196.5 -16.75 L-196.75 -17.1 -197.25 -18.75 -197.7 -21.5 -197.95 -25.35 -198.25 -27.65 -199.25 -30.75 -198.0 -57.5 -195.75 -78.0 Q-195.35 -81.45 -195.1 -85.0 -194.45 -94.45 -190.55 -102.85 -190.15 -103.7 -189.45 -103.75 -183.0 -102.65 -180.45 -95.45 -173.05 -74.4 -170.25 -51.5 L-156.75 -64.5 -126.0 -91.25 -102.5 -108.25 -88.5 -114.0 -70.25 -146.5 -52.25 -173.75 Q-43.9 -183.45 -35.95 -193.35 -25.3 -206.6 -8.7 -208.8 -6.15 -209.25 -3.85 -208.35 4.05 -205.15 10.25 -199.6 41.05 -172.15 62.25 -136.45" fill="#2e47aa" fill-rule="evenodd" stroke="none"/>
  </g>
</svg>
