<?xml version="1.0" encoding="UTF-8" standalone="no"?>
<svg xmlns:ffdec="https://www.free-decompiler.com/flash" xmlns:xlink="http://www.w3.org/1999/xlink" ffdec:objectType="shape" height="351.75px" width="349.75px" xmlns="http://www.w3.org/2000/svg">
  <g transform="matrix(1.0, 0.0, 0.0, 1.0, 192.05, 202.25)">
    <path d="M110.5 -71.25 L136.75 -30.25 151.0 -2.75 151.0 -2.5 153.5 2.5 153.75 2.75 157.5 19.5 Q158.5 23.25 154.5 29.75 147.0 69.5 124.5 61.0 119.25 89.25 91.75 109.5 L81.25 116.5 66.0 123.25 64.25 125.0 56.75 130.75 29.5 144.0 2.0 149.5 -8.25 148.5 -8.5 148.5 -27.0 146.5 -51.5 136.25 -65.5 126.0 -69.5 122.0 -70.75 121.0 -71.5 120.75 -79.75 117.25 -82.5 115.5 -83.25 115.25 -83.5 114.75 -84.5 114.25 -85.5 113.5 -92.25 109.25 Q-142.75 82.5 -125.25 -12.5 L-159.75 17.75 Q-166.5 55.5 -186.5 20.25 L-186.75 20.0 -187.5 18.5 -187.75 18.25 -191.0 11.5 Q-192.25 7.5 -190.75 6.25 -196.75 -17.5 -175.0 -39.25 -167.0 -46.0 -163.25 -35.0 L-127.0 -74.5 -102.5 -96.75 -88.25 -105.5 Q-51.5 -181.25 -7.0 -202.25 32.5 -188.75 80.75 -103.5 L92.25 -94.5 110.5 -71.25" fill="#2e47aa" fill-rule="evenodd" stroke="none"/>
  </g>
</svg>
