<?xml version="1.0" encoding="UTF-8" standalone="no"?>
<svg xmlns:ffdec="https://www.free-decompiler.com/flash" xmlns:xlink="http://www.w3.org/1999/xlink" ffdec:objectType="shape" height="346.0px" width="347.35px" xmlns="http://www.w3.org/2000/svg">
  <g transform="matrix(1.0, 0.0, 0.0, 1.0, 185.25, 193.5)">
    <path d="M64.35 -128.2 Q73.5 -114.3 81.75 -99.75 101.7 -87.5 115.15 -67.8 125.45 -52.7 135.2 -37.15 145.95 -19.95 156.0 -2.25 157.1 -0.25 157.8 1.9 160.75 11.35 161.95 21.15 162.35 24.35 161.5 27.75 161.3 28.6 160.75 29.25 161.35 42.2 153.3 53.15 L149.6 57.6 Q147.0 60.3 143.2 61.25 134.45 63.45 128.95 56.0 L126.5 52.5 Q122.9 84.7 98.6 105.4 L92.45 110.5 Q84.05 117.25 74.9 122.2 69.1 125.35 64.0 129.75 L31.75 146.25 4.75 152.5 -24.75 149.5 -49.0 139.75 Q-68.5 124.4 -89.95 111.75 -116.1 96.2 -125.25 67.5 -132.3 45.35 -129.75 21.95 -128.75 12.95 -127.25 4.0 L-145.25 22.5 -144.75 28.75 Q-146.85 43.3 -155.35 55.1 -159.15 60.3 -165.45 59.6 -169.35 59.05 -172.5 57.0 -173.3 54.8 -175.25 53.7 L-177.0 52.75 Q-177.25 46.95 -181.0 42.75 L-185.25 29.0 Q-182.85 19.6 -181.5 9.7 -181.15 7.2 -179.55 5.15 -176.05 0.5 -171.9 -3.45 -164.5 -10.5 -158.25 -18.75 L-122.75 -63.0 -100.25 -86.5 Q-86.15 -96.75 -79.0 -113.05 -77.0 -117.65 -74.5 -122.1 -52.1 -161.4 -15.5 -187.25 -10.4 -190.9 -4.75 -193.5 27.45 -180.6 48.0 -152.0 56.45 -140.25 64.35 -128.2" fill="#2e47aa" fill-rule="evenodd" stroke="none"/>
  </g>
</svg>
