<?xml version="1.0" encoding="UTF-8" standalone="no"?>
<svg xmlns:ffdec="https://www.free-decompiler.com/flash" xmlns:xlink="http://www.w3.org/1999/xlink" ffdec:objectType="shape" height="189.0px" width="176.15px" xmlns="http://www.w3.org/2000/svg">
  <g transform="matrix(1.0, 0.0, 0.0, 1.0, 87.25, 34.0)">
    <path d="M34.75 -34.0 L37.75 -25.25 49.25 8.25 61.25 35.0 Q72.65 46.3 80.85 60.25 91.95 79.1 87.7 101.05 86.45 107.45 82.7 112.95 75.05 124.25 64.25 133.25 L32.5 148.75 7.5 155.0 -24.5 152.0 -48.75 142.25 -62.5 133.25 -80.5 114.75 Q-85.2 105.7 -87.25 95.75 -85.6 93.15 -84.95 90.25 -84.4 87.95 -84.45 85.65 L-84.5 84.0 Q-80.25 78.25 -76.5 72.15 -65.85 54.95 -58.0 36.25 L-48.25 9.5 -44.0 -7.25 -34.0 -31.25 Q-30.7 -24.95 -25.85 -19.95 -21.55 -15.5 -15.8 -13.45 -5.05 -9.45 6.3 -10.95 27.05 -13.85 34.75 -34.0" fill="#ffffff" fill-rule="evenodd" stroke="none"/>
  </g>
</svg>
