<?xml version="1.0" encoding="UTF-8" standalone="no"?>
<svg xmlns:ffdec="https://www.free-decompiler.com/flash" xmlns:xlink="http://www.w3.org/1999/xlink" ffdec:objectType="shape" height="194.5px" width="175.85px" xmlns="http://www.w3.org/2000/svg">
  <g transform="matrix(1.0, 0.0, 0.0, 1.0, 85.15, 42.25)">
    <path d="M11.6 -21.15 Q30.05 -24.8 37.75 -42.25 45.55 -21.6 50.5 -0.5 L62.75 29.5 Q82.75 49.9 89.7 77.4 91.75 85.45 89.55 93.35 83.5 115.35 65.5 130.5 L32.25 146.75 7.25 152.25 -23.5 149.5 -49.75 138.5 Q-54.25 135.1 -58.4 131.35 L-78.75 112.8 Q-80.75 110.9 -81.65 108.25 -84.25 100.4 -85.0 92.35 -85.6 85.6 -84.0 78.75 -80.15 74.5 -76.95 69.75 -72.5 63.25 -68.4 56.5 -66.15 52.7 -65.75 48.5 -49.15 18.55 -41.25 -14.75 L-30.5 -40.75 Q-22.45 -23.95 -4.1 -21.5 L1.25 -20.7 11.6 -21.15" fill="#ffffff" fill-rule="evenodd" stroke="none"/>
  </g>
</svg>
