<?xml version="1.0" encoding="UTF-8" standalone="no"?>
<svg xmlns:ffdec="https://www.free-decompiler.com/flash" xmlns:xlink="http://www.w3.org/1999/xlink" ffdec:objectType="shape" height="200.0px" width="176.2px" xmlns="http://www.w3.org/2000/svg">
  <g transform="matrix(1.0, 0.0, 0.0, 1.0, 86.0, 50.5)">
    <path d="M40.5 -50.5 Q48.05 -28.7 52.75 -6.5 L64.75 25.0 Q69.65 30.6 73.8 36.7 81.7 48.4 86.5 61.65 93.1 79.8 88.0 98.6 86.3 104.95 82.6 110.35 73.75 123.4 59.75 131.5 L32.0 144.5 7.0 149.5 -25.25 145.75 -50.0 135.0 -62.75 124.5 -80.75 105.5 -86.0 85.0 -83.0 73.25 Q-73.6 63.35 -67.75 50.75 L-55.5 23.75 -53.5 20.75 -42.75 -7.5 -38.0 -24.0 -26.75 -50.0 -25.55 -47.85 Q-14.55 -30.0 6.75 -30.5 30.15 -29.2 40.5 -50.5" fill="#ffffff" fill-rule="evenodd" stroke="none"/>
  </g>
</svg>
