<?xml version="1.0" encoding="UTF-8" standalone="no"?>
<svg xmlns:ffdec="https://www.free-decompiler.com/flash" xmlns:xlink="http://www.w3.org/1999/xlink" ffdec:objectType="shape" height="389.5px" width="303.9px" xmlns="http://www.w3.org/2000/svg">
  <g transform="matrix(1.0, 0.0, 0.0, 1.0, 146.4, 157.5)">
    <path d="M-108.5 60.5 Q-121.0 45.25 -115.5 -31.5 L-119.0 -22.5 -130.75 0.0 -138.5 11.75 Q-143.25 17.25 -145.25 11.25 -149.0 -38.0 -140.75 -44.5 L-138.25 -49.5 Q-133.0 -66.75 -90.0 -99.25 -51.0 -167.5 -16.0 -155.75 24.5 -133.25 88.75 -21.0 L100.0 -5.25 122.0 33.0 135.0 61.5 Q156.75 69.0 157.5 177.25 L157.25 179.0 157.25 179.75 Q157.0 195.75 147.75 184.75 L136.75 166.5 125.25 144.5 115.75 123.25 115.5 123.0 113.75 119.75 Q101.75 143.0 71.75 151.25 59.95 154.75 47.75 155.1 36.35 155.4 25.0 154.8 36.35 155.1 37.9 144.05 38.9 136.65 37.3 129.45 L35.75 123.75 22.0 97.5 2.5 70.0 -8.75 40.75 Q-15.05 13.75 -22.0 -12.5 L-22.75 -13.25 -14.75 -20.5 -13.25 -24.75 Q-10.0 -36.5 -24.75 -54.75 -19.25 -58.5 -18.0 -67.25 L-16.75 -66.5 Q-28.6 -83.6 -49.0 -86.5 L-49.75 -86.75 Q-58.85 -94.95 -70.75 -97.25 L-71.25 -96.5 -69.0 -91.5 Q-71.25 -87.75 -70.75 -78.25 L-69.25 -72.25 Q-86.6 -57.9 -93.3 -36.5 -99.05 -18.05 -88.0 -3.0 -94.45 21.45 -104.7 43.95 -105.55 45.75 -105.25 47.75 L-107.5 50.75 -107.0 63.25 -108.5 60.5 M-50.75 -86.75 L-49.75 -86.75 -51.0 -86.25 -50.75 -86.75" fill="#2e47aa" fill-rule="evenodd" stroke="none"/>
    <path d="M-108.5 60.5 L-107.0 63.25 Q-106.35 99.9 -81.45 127.85 -73.75 136.5 -64.5 143.75 -72.6 148.05 -81.55 148.8 -91.8 148.9 -98.8 141.25 -121.45 116.6 -120.3 83.5 -120.1 77.25 -117.2 71.7 -113.95 65.3 -108.5 60.5 M-88.0 -3.0 Q-99.05 -18.05 -93.3 -36.5 -86.6 -57.9 -69.25 -72.25 -68.0 -63.5 -53.0 -63.75 -40.75 -50.0 -24.75 -54.75 -10.0 -36.5 -13.25 -24.75 L-14.75 -20.5 -22.75 -13.25 Q-38.7 4.05 -61.15 7.1 -67.05 7.65 -72.8 6.0 -81.7 3.5 -88.0 -3.0 M25.0 154.8 Q36.35 155.4 47.75 155.1 59.95 154.75 71.75 151.25 76.75 177.5 61.5 214.75 L61.25 215.25 Q53.25 242.5 -11.0 223.75 -33.25 218.0 -41.75 192.75 -44.5 184.5 -29.25 159.0 L-24.0 159.5 2.25 160.5 7.65 159.35 25.0 154.8" fill="#e58508" fill-rule="evenodd" stroke="none"/>
    <path d="M-107.0 63.25 L-107.5 50.75 -105.25 47.75 Q-105.55 45.75 -104.7 43.95 -94.45 21.45 -88.0 -3.0 -81.7 3.5 -72.8 6.0 -67.05 7.65 -61.15 7.1 -38.7 4.05 -22.75 -13.25 L-22.0 -12.5 Q-15.05 13.75 -8.75 40.75 L2.5 70.0 22.0 97.5 35.75 123.75 37.3 129.45 Q38.9 136.65 37.9 144.05 36.35 155.1 25.0 154.8 L7.65 159.35 2.25 160.5 -24.0 159.5 -29.25 159.0 Q-39.4 156.0 -49.0 151.85 -57.0 148.35 -64.5 143.75 -73.75 136.5 -81.45 127.85 -106.35 99.9 -107.0 63.25 M-69.25 -72.25 L-70.75 -78.25 Q-71.25 -87.75 -69.0 -91.5 L-68.0 -92.75 Q-64.7 -94.35 -61.15 -92.7 -55.7 -90.1 -50.75 -86.75 L-51.0 -86.25 Q-49.65 -85.4 -48.1 -85.15 -30.15 -81.1 -18.0 -67.25 -19.25 -58.5 -24.75 -54.75 -40.75 -50.0 -53.0 -63.75 -68.0 -63.5 -69.25 -72.25 M-68.0 -77.25 L-68.25 -76.25 -68.5 -75.75 -67.0 -71.25 Q-60.0 -64.5 -59.25 -74.25 -65.0 -83.5 -68.0 -77.25 M-41.5 -68.75 Q-52.75 -71.5 -49.0 -63.25 -34.0 -55.75 -41.5 -68.75" fill="#ffffff" fill-rule="evenodd" stroke="none"/>
    <path d="M-69.0 -91.5 L-71.25 -96.5 -70.75 -97.25 Q-58.85 -94.95 -49.75 -86.75 L-49.0 -86.5 Q-28.6 -83.6 -16.75 -66.5 L-18.0 -67.25 Q-30.15 -81.1 -48.1 -85.15 -49.65 -85.4 -51.0 -86.25 L-49.75 -86.75 -50.75 -86.75 Q-55.7 -90.1 -61.15 -92.7 -64.7 -94.35 -68.0 -92.75 L-69.0 -91.5" fill="#243773" fill-rule="evenodd" stroke="none"/>
    <path d="M-68.0 -77.25 Q-65.0 -83.5 -59.25 -74.25 -60.0 -64.5 -67.0 -71.25 L-68.5 -75.75 -68.25 -76.25 -68.0 -77.25 M-41.5 -68.75 Q-34.0 -55.75 -49.0 -63.25 -52.75 -71.5 -41.5 -68.75" fill="#31333d" fill-rule="evenodd" stroke="none"/>
    <path d="M-135.25 -52.25 L-137.5 -49.0 -138.0 -49.75 -136.0 -53.5 -135.25 -53.25 -135.75 -52.75 -135.25 -52.25 M-134.5 -47.0 L-133.75 -46.25 -108.75 -53.5 Q-116.05 -11.25 -100.5 29.0 -92.95 6.25 -92.7 -17.45 L-90.4 -12.75 Q-83.2 1.6 -68.2 5.15 -61.85 6.55 -55.6 4.25 -30.85 -4.45 -13.25 -24.5 L-13.0 -23.5 Q-18.8 -10.05 -25.55 3.1 -32.3 16.2 -39.55 28.95 -52.0 50.8 -69.95 68.15 -77.85 75.8 -87.75 74.5 L-94.5 77.0 -99.0 74.75 -101.5 70.0 Q-93.65 108.45 -61.8 131.15 -52.4 137.95 -41.05 140.9 -1.75 150.95 35.9 135.45 38.5 134.4 37.25 131.8 68.45 133.65 95.5 118.25 L95.75 116.75 Q76.8 71.6 54.0 28.5 L54.25 27.5 Q74.95 57.8 99.75 84.5 L102.5 85.0 113.45 95.55 113.25 96.5 106.75 98.0 Q124.85 142.75 149.5 184.75 150.85 184.6 151.8 183.55 155.05 180.05 156.4 175.3 157.2 172.65 157.45 169.95 L156.35 187.9 153.5 189.5 Q148.5 187.2 145.7 182.4 128.15 151.8 114.0 119.5 L111.1 124.2 Q96.9 145.15 72.0 151.0 L72.5 167.0 70.75 165.5 39.75 166.5 37.0 169.5 -36.25 173.0 -29.25 158.75 -33.0 158.05 Q-50.05 154.8 -63.65 144.5 -75.15 150.1 -87.2 147.5 -90.75 146.65 -93.6 144.45 -113.35 129.2 -119.25 104.75 -112.85 123.95 -97.75 137.25 -104.75 127.4 -107.5 115.9 -108.55 111.4 -108.65 106.95 -109.1 89.25 -118.75 74.75 -117.0 69.5 -113.6 65.0 -111.6 62.3 -108.8 60.4 L-110.8 53.65 Q-112.2 49.3 -113.1 45.0 -120.8 7.6 -115.0 -30.75 -126.3 -6.65 -141.55 14.8 L-143.1 14.25 Q-144.2 13.8 -144.25 12.85 -146.0 -10.0 -145.25 -33.25 -145.25 -29.05 -144.2 -25.0 -142.9 -20.05 -138.05 -20.95 -135.8 -21.1 -134.0 -22.5 -136.8 -30.35 -139.1 -38.25 -140.75 -43.95 -137.75 -48.5 L-133.75 -48.5 -134.5 -47.0 M-103.0 49.75 L-101.75 39.0 -104.2 54.1 Q-105.3 60.65 -102.25 66.0 L-103.0 49.75 M-120.75 95.5 L-120.0 97.5 -120.75 97.25 -120.75 95.5 M-119.75 101.0 L-118.75 102.5 -119.5 102.5 -119.75 101.0 M-120.0 100.0 L-120.25 98.5 -119.25 100.0 -120.0 100.0 M137.25 62.75 L138.0 62.5 138.5 63.25 137.25 62.75 M147.0 78.5 L148.25 79.75 150.0 87.5 147.0 78.5 M68.35 201.6 Q60.4 228.05 31.5 232.0 -35.5 226.75 -41.5 191.25 -21.75 227.0 32.0 226.5 60.4 220.05 68.35 201.6" fill="#000000" fill-opacity="0.49803922" fill-rule="evenodd" stroke="none"/>
  </g>
</svg>
