<?xml version="1.0" encoding="UTF-8" standalone="no"?>
<svg xmlns:ffdec="https://www.free-decompiler.com/flash" xmlns:xlink="http://www.w3.org/1999/xlink" ffdec:objectType="shape" height="205.75px" width="174.45px" xmlns="http://www.w3.org/2000/svg">
  <g transform="matrix(1.0, 0.0, 0.0, 1.0, 83.45, 59.25)">
    <path d="M43.25 -58.5 Q50.5 -35.75 55.0 -12.25 L66.0 19.0 Q72.05 27.2 77.25 36.0 85.45 49.95 89.2 65.7 93.25 82.6 88.3 99.35 87.15 103.2 84.7 106.4 73.3 121.3 57.5 131.0 L32.0 142.25 7.0 146.25 3.25 146.5 -25.0 142.75 -50.0 131.5 -62.75 120.25 -80.5 101.25 Q-82.9 90.5 -83.4 79.7 -83.65 73.75 -82.0 67.75 -77.25 61.1 -72.95 54.2 -60.8 34.6 -51.5 13.5 L-40.75 -13.75 -35.5 -31.5 -23.0 -59.25 -21.85 -57.2 Q-11.1 -40.15 9.75 -40.25 32.05 -38.65 43.25 -58.5" fill="#ffffff" fill-rule="evenodd" stroke="none"/>
  </g>
</svg>
