<?xml version="1.0" encoding="UTF-8" standalone="no"?>
<svg xmlns:ffdec="https://www.free-decompiler.com/flash" xmlns:xlink="http://www.w3.org/1999/xlink" ffdec:objectType="shape" height="199.75px" width="174.6px" xmlns="http://www.w3.org/2000/svg">
  <g transform="matrix(1.0, 0.0, 0.0, 1.0, 84.1, 50.5)">
    <path d="M40.5 -50.5 Q48.15 -28.9 52.75 -6.75 L64.75 24.75 Q69.6 30.6 73.95 37.05 82.85 50.2 87.6 65.35 93.85 85.3 86.6 104.6 85.6 107.25 83.65 109.15 71.85 120.5 59.75 131.5 L32.0 144.5 7.0 149.25 -24.0 146.25 -49.75 135.0 -62.75 124.5 -80.75 105.5 Q-83.4 95.25 -84.05 84.85 -84.4 79.1 -82.75 73.25 L-73.95 59.7 Q-62.5 40.85 -53.5 20.5 L-42.75 -7.5 -38.25 -23.5 -26.75 -50.25 -25.45 -48.0 Q-14.45 -29.95 7.0 -30.75 30.1 -29.35 40.5 -50.5" fill="#ffffff" fill-rule="evenodd" stroke="none"/>
  </g>
</svg>
