<?xml version="1.0" encoding="UTF-8" standalone="no"?>
<svg xmlns:ffdec="https://www.free-decompiler.com/flash" xmlns:xlink="http://www.w3.org/1999/xlink" ffdec:objectType="shape" height="194.75px" width="177.3px" xmlns="http://www.w3.org/2000/svg">
  <g transform="matrix(1.0, 0.0, 0.0, 1.0, 86.5, 42.5)">
    <path d="M12.35 -21.05 Q30.8 -24.8 38.25 -42.5 46.0 -21.85 51.0 -0.25 L63.75 30.5 Q81.7 49.6 89.15 74.7 92.9 87.25 88.0 99.3 80.5 117.7 65.25 130.75 L33.0 146.5 7.25 152.25 -18.1 150.1 Q-22.15 150.1 -25.75 148.5 L-50.25 138.0 Q-61.0 130.4 -71.0 121.65 -85.25 109.2 -86.5 89.75 L-83.75 78.75 Q-79.75 74.25 -76.5 69.25 -71.15 61.1 -66.65 52.45 -50.2 20.7 -41.0 -14.0 L-29.75 -40.75 Q-26.1 -32.7 -19.0 -27.6 -9.2 -20.45 3.0 -20.15 7.7 -20.0 12.35 -21.05" fill="#ffffff" fill-rule="evenodd" stroke="none"/>
  </g>
</svg>
