<?xml version="1.0" encoding="UTF-8" standalone="no"?>
<svg xmlns:ffdec="https://www.free-decompiler.com/flash" xmlns:xlink="http://www.w3.org/1999/xlink" ffdec:objectType="shape" height="196.0px" width="177.25px" xmlns="http://www.w3.org/2000/svg">
  <g transform="matrix(1.0, 0.0, 0.0, 1.0, 88.75, 43.75)">
    <path d="M31.5 -43.75 L34.75 -33.0 46.25 0.75 58.75 29.0 Q80.1 50.1 87.8 78.95 88.85 82.8 88.3 86.7 84.7 112.65 63.75 130.0 L30.75 146.5 2.5 152.25 -25.0 149.5 -48.75 139.75 Q-54.5 136.0 -59.65 131.55 -71.25 121.5 -79.8 109.05 -85.5 100.85 -88.75 91.0 -87.65 88.35 -87.05 85.65 -86.4 82.6 -86.25 79.5 -82.0 73.25 -78.3 66.7 -67.75 48.2 -59.75 28.25 L-50.5 1.5 -46.75 -13.75 -36.5 -39.5 Q-27.75 -22.3 -8.2 -20.85 L-3.05 -20.35 Q0.7 -20.0 4.35 -21.0 23.25 -25.5 31.5 -43.75" fill="#ffffff" fill-rule="evenodd" stroke="none"/>
  </g>
</svg>
