<?xml version="1.0" encoding="UTF-8" standalone="no"?>
<svg xmlns:ffdec="https://www.free-decompiler.com/flash" xmlns:xlink="http://www.w3.org/1999/xlink" ffdec:objectType="shape" height="202.0px" width="174.5px" xmlns="http://www.w3.org/2000/svg">
  <g transform="matrix(1.0, 0.0, 0.0, 1.0, 88.45, 52.5)">
    <path d="M31.9 -40.8 Q35.5 -31.0 39.25 -21.25 L42.5 -8.25 56.75 24.25 Q69.55 37.3 78.2 53.45 90.85 76.95 83.1 102.15 82.1 105.5 79.85 107.9 68.85 119.6 57.0 130.5 L29.5 144.0 2.25 149.5 -26.75 146.5 -52.5 135.75 -65.5 126.0 -83.75 107.0 Q-86.9 96.6 -88.2 86.0 -88.9 80.5 -87.75 74.75 L-79.7 61.35 -73.75 51.0 -61.75 21.0 -53.0 -6.0 -49.75 -20.0 -39.5 -48.0 Q-35.65 -41.9 -29.85 -37.4 -25.65 -34.1 -20.65 -32.6 -11.7 -29.7 -2.1 -30.85 18.2 -33.4 27.75 -52.5 L31.9 -40.8" fill="#ffffff" fill-rule="evenodd" stroke="none"/>
  </g>
</svg>
