<?xml version="1.0" encoding="UTF-8" standalone="no"?>
<svg xmlns:ffdec="https://www.free-decompiler.com/flash" xmlns:xlink="http://www.w3.org/1999/xlink" ffdec:objectType="shape" height="207.75px" width="176.1px" xmlns="http://www.w3.org/2000/svg">
  <g transform="matrix(1.0, 0.0, 0.0, 1.0, 91.5, 61.25)">
    <path d="M23.75 -61.25 L25.0 -59.25 Q33.6 -35.55 40.75 -11.5 L53.25 17.25 Q66.55 31.7 76.0 49.0 91.35 77.15 79.25 106.5 L60.75 123.75 53.75 129.5 28.0 141.5 0.0 146.5 -28.5 143.5 -53.5 133.0 -72.15 118.1 Q-89.15 104.35 -91.5 82.25 L-89.25 70.25 Q-81.35 58.75 -76.0 45.75 L-64.0 14.25 -56.5 -9.75 -52.25 -28.25 -42.5 -56.0 Q-40.8 -51.7 -37.0 -48.9 -24.35 -39.5 -8.5 -40.05 13.55 -41.1 23.75 -61.25" fill="#ffffff" fill-rule="evenodd" stroke="none"/>
  </g>
</svg>
