<?xml version="1.0" encoding="UTF-8" standalone="no"?>
<svg xmlns:ffdec="https://www.free-decompiler.com/flash" xmlns:xlink="http://www.w3.org/1999/xlink" ffdec:objectType="shape" height="202.0px" width="176.25px" xmlns="http://www.w3.org/2000/svg">
  <g transform="matrix(1.0, 0.0, 0.0, 1.0, 90.25, 52.5)">
    <path d="M27.25 -52.5 L28.25 -51.25 Q36.25 -29.9 42.25 -8.0 L56.5 24.25 Q70.55 38.55 79.55 56.65 89.85 77.25 83.75 99.35 82.45 104.0 79.5 107.4 68.75 119.6 56.75 130.75 L29.5 144.0 2.0 149.5 -27.0 146.5 -51.5 136.25 Q-60.5 129.1 -69.0 121.45 -76.65 114.5 -81.8 105.85 -87.0 97.1 -90.25 87.25 -88.85 85.15 -88.35 82.45 -87.7 78.75 -87.75 75.0 -78.65 62.95 -73.0 48.75 L-62.25 22.0 -53.0 -7.0 -49.75 -21.0 -39.75 -47.75 Q-31.2 -31.85 -12.5 -30.9 L0.3 -31.35 Q19.2 -34.6 27.25 -52.5" fill="#ffffff" fill-rule="evenodd" stroke="none"/>
  </g>
</svg>
