<?xml version="1.0" encoding="UTF-8" standalone="no"?>
<svg xmlns:ffdec="https://www.free-decompiler.com/flash" xmlns:xlink="http://www.w3.org/1999/xlink" ffdec:objectType="shape" height="196.0px" width="176.9px" xmlns="http://www.w3.org/2000/svg">
  <g transform="matrix(1.0, 0.0, 0.0, 1.0, 88.75, 43.5)">
    <path d="M31.0 -43.5 L34.5 -33.0 46.25 1.5 58.5 29.0 Q80.0 50.15 87.55 79.3 88.5 83.05 88.0 86.9 84.5 112.5 64.0 129.75 L31.75 146.25 4.75 152.5 -24.75 149.5 -49.0 139.75 Q-54.65 136.0 -59.7 131.6 -71.25 121.5 -79.8 109.05 -85.5 100.85 -88.75 91.0 -87.65 88.25 -87.0 85.4 -86.4 82.6 -86.25 79.75 L-80.2 72.3 Q-78.6 70.35 -78.05 67.8 L-78.0 66.75 -72.0 56.75 -61.75 31.25 -60.0 28.5 -50.5 0.5 -46.75 -14.75 -37.0 -39.5 Q-32.0 -28.45 -20.85 -23.8 -12.35 -20.35 -3.25 -20.15 0.5 -20.1 4.1 -21.1 22.7 -25.45 31.0 -43.5" fill="#ffffff" fill-rule="evenodd" stroke="none"/>
  </g>
</svg>
