<?xml version="1.0" encoding="UTF-8" standalone="no"?>
<svg xmlns:ffdec="https://www.free-decompiler.com/flash" xmlns:xlink="http://www.w3.org/1999/xlink" ffdec:objectType="shape" height="403.55px" width="234.85px" xmlns="http://www.w3.org/2000/svg">
  <g transform="matrix(1.0, 0.0, 0.0, 1.0, 113.1, 157.5)">
    <path d="M-104.25 -67.75 L-103.75 -70.75 -89.0 -93.75 Q-77.4 -103.1 -67.5 -113.25 L-68.5 -115.5 -65.25 -117.5 Q-59.25 -129.3 -51.4 -140.0 -42.95 -151.5 -29.8 -156.35 -23.95 -158.5 -17.8 -156.55 1.65 -150.25 12.75 -132.5 L32.5 -100.25 46.25 -74.75 69.75 -27.0 85.75 -0.75 100.0 28.5 Q114.2 69.05 108.5 111.0 116.75 123.25 119.25 137.75 L121.75 168.0 119.75 200.25 115.4 224.8 Q114.65 228.8 112.4 232.1 110.35 234.95 108.0 232.1 98.55 220.9 91.25 208.0 L71.0 170.75 Q68.8 172.8 66.1 173.75 45.35 180.5 23.75 176.5 12.3 174.45 1.75 169.0 -7.5 164.25 -16.5 159.0 -12.15 149.1 -15.2 138.0 -24.95 102.2 -41.0 68.5 L-46.5 35.25 Q-47.3 7.0 -49.0 -21.25 L-41.75 -23.5 -40.25 -26.75 Q-36.0 -36.25 -44.0 -59.25 L-42.35 -60.55 Q-38.95 -63.7 -36.5 -68.0 L-65.75 -109.75 Q-66.3 -109.65 -66.65 -109.35 -72.45 -104.45 -74.0 -97.0 L-76.0 -92.0 -74.75 -88.5 Q-87.55 -82.8 -98.05 -73.55 L-104.25 -67.75 M-94.0 -14.0 L-93.75 -15.75 -93.5 -15.75 -94.0 -14.0" fill="#2e47aa" fill-rule="evenodd" stroke="none"/>
    <path d="M-74.0 -97.0 Q-72.45 -104.45 -66.65 -109.35 -66.3 -109.65 -65.75 -109.75 L-36.5 -68.0 Q-38.95 -63.7 -42.35 -60.55 L-44.0 -59.25 Q-60.5 -60.5 -65.0 -73.0 L-64.5 -72.75 Q-62.25 -69.5 -59.25 -70.75 L-58.25 -75.5 Q-62.0 -85.75 -65.75 -78.75 L-66.0 -77.5 -66.0 -75.25 -66.5 -79.0 Q-72.2 -80.6 -73.75 -87.0 -72.0 -84.75 -70.5 -87.5 L-69.75 -92.0 -71.5 -97.75 -74.0 -97.0 M-49.0 -21.25 Q-47.3 7.0 -46.5 35.25 L-41.0 68.5 Q-24.95 102.2 -15.2 138.0 -12.15 149.1 -16.5 159.0 L-46.25 154.5 -62.5 145.25 Q-130.25 92.5 -94.25 -11.75 L-94.0 -12.25 -94.0 -14.0 -93.5 -15.75 Q-76.0 -12.25 -49.0 -21.25" fill="#ffffff" fill-rule="evenodd" stroke="none"/>
    <path d="M-104.25 -67.75 L-98.05 -73.55 Q-87.55 -82.8 -74.75 -88.5 L-73.75 -87.0 Q-72.2 -80.6 -66.5 -79.0 L-66.0 -75.25 -65.0 -73.0 Q-60.5 -60.5 -44.0 -59.25 -36.0 -36.25 -40.25 -26.75 L-41.75 -23.5 -49.0 -21.25 Q-76.0 -12.25 -93.5 -15.75 L-93.75 -15.75 Q-104.45 -18.0 -109.05 -27.95 -118.85 -49.3 -104.25 -67.75 M-16.5 159.0 Q-7.5 164.25 1.75 169.0 12.3 174.45 23.75 176.5 17.75 213.75 -9.5 241.0 -34.75 256.75 -82.0 223.25 -111.0 200.0 -102.0 181.5 L-101.75 181.0 -101.75 180.75 Q-96.0 164.0 -62.5 145.25 L-46.25 154.5 -16.5 159.0" fill="#e58508" fill-rule="evenodd" stroke="none"/>
    <path d="M-74.75 -88.5 L-76.0 -92.0 -74.0 -97.0 -71.5 -97.75 -69.75 -92.0 -70.5 -87.5 Q-72.0 -84.75 -73.75 -87.0 L-74.75 -88.5 M-66.0 -75.25 L-66.0 -77.5 -65.75 -78.75 Q-62.0 -85.75 -58.25 -75.5 L-59.25 -70.75 Q-62.25 -69.5 -64.5 -72.75 L-65.0 -73.0 -66.0 -75.25" fill="#31333d" fill-rule="evenodd" stroke="none"/>
    <path d="M97.0 84.0 L96.25 83.25 94.75 76.5 95.5 77.25 97.0 84.0 M-17.15 244.1 Q-19.4 245.05 -21.7 245.1 -52.2 242.25 -78.2 225.7 -100.3 211.75 -103.25 186.5 -101.95 193.5 -98.6 199.85 -84.4 226.75 -55.05 236.3 L-44.15 239.95 Q-31.55 244.35 -19.15 241.0 -13.25 239.05 -8.6 235.25 9.35 220.65 17.2 199.2 13.0 211.5 6.45 222.8 -1.95 237.45 -17.15 244.1 M-95.5 -16.25 Q-111.1 -22.3 -113.05 -38.9 L-113.1 -42.05 Q-111.75 -29.15 -100.65 -20.95 -98.85 -19.55 -96.7 -19.0 -67.9 -12.25 -40.75 -25.5 -57.6 -6.05 -72.2 15.0 -83.25 30.85 -91.05 48.25 L-98.85 65.55 Q-100.0 68.2 -100.2 71.0 -101.1 83.25 -95.2 94.25 -90.15 103.75 -82.4 111.3 -54.2 138.6 -14.75 143.5 L-18.25 129.0 Q-5.25 137.45 8.4 144.45 L19.25 150.25 Q34.15 158.6 50.65 156.5 41.15 119.25 26.95 83.6 20.95 68.55 16.6 53.4 25.25 72.9 35.5 91.55 39.35 98.5 42.75 105.5 51.1 122.6 66.0 134.2 63.8 134.15 61.95 134.8 60.5 135.4 60.3 137.05 59.4 143.75 62.85 150.0 84.15 189.2 106.0 228.25 108.1 227.75 109.75 226.55 114.0 223.25 115.7 218.0 L111.25 233.5 108.75 233.25 Q86.65 204.25 71.75 170.75 68.15 173.35 63.8 174.7 44.4 180.6 24.0 176.5 L21.5 186.0 Q3.15 173.1 -17.8 165.15 -22.0 163.65 -26.3 162.55 -47.2 157.65 -66.75 148.5 L-68.25 148.75 -62.25 145.0 Q-75.5 141.05 -82.65 129.0 -95.4 107.55 -100.4 83.0 -110.6 33.0 -93.5 -15.5 L-95.5 -16.25 M-96.5 -75.0 Q-99.1 -80.85 -94.55 -84.75 -93.55 -85.65 -92.2 -86.0 -86.05 -87.6 -79.75 -86.75 L-96.5 -75.0 M106.25 54.5 Q108.7 64.05 109.75 73.95 111.75 92.65 108.5 111.0 L104.0 108.75 Q105.4 100.2 106.4 91.4 108.55 72.9 106.25 54.5" fill="#000000" fill-opacity="0.49803922" fill-rule="evenodd" stroke="none"/>
  </g>
</svg>
