<?xml version="1.0" encoding="UTF-8" standalone="no"?>
<svg xmlns:ffdec="https://www.free-decompiler.com/flash" xmlns:xlink="http://www.w3.org/1999/xlink" ffdec:objectType="shape" height="311.0px" width="346.45px" xmlns="http://www.w3.org/2000/svg">
  <g transform="matrix(1.0, 0.0, 0.0, 1.0, 177.5, 108.3)">
    <path d="M-25.0 -83.5 Q-27.4 -87.75 -28.6 -92.3 -29.75 -96.5 -27.6 -99.45 -18.5 -112.0 -2.75 -106.75 L-0.5 -106.25 Q8.35 -109.1 17.75 -107.75 24.85 -106.8 29.0 -101.25 28.85 -96.65 27.65 -92.3 26.5 -88.15 24.25 -84.25 21.75 -77.0 -0.5 -84.0 -20.0 -76.75 -25.0 -83.5 M8.0 -85.25 L11.5 -84.75 Q22.0 -89.5 13.25 -95.25 L8.25 -94.25 5.75 -91.5 Q5.5 -87.75 8.0 -85.25 M-11.5 -84.75 Q-0.75 -95.25 -15.25 -95.0 -22.25 -86.25 -11.5 -84.75" fill="#ffffff" fill-rule="evenodd" stroke="none"/>
    <path d="M8.0 -85.25 Q5.5 -87.75 5.75 -91.5 L8.25 -94.25 13.25 -95.25 Q22.0 -89.5 11.5 -84.75 L8.0 -85.25 M-11.5 -84.75 Q-22.25 -86.25 -15.25 -95.0 -0.75 -95.25 -11.5 -84.75" fill="#000000" fill-rule="evenodd" stroke="none"/>
    <path d="M-25.0 -83.5 Q-20.0 -76.75 -0.5 -84.0 21.75 -77.0 24.25 -84.25 28.95 -81.6 32.3 -77.5 36.25 -72.7 37.35 -66.75 40.85 -48.1 33.15 -31.1 24.35 -11.75 3.6 -10.4 L-0.25 -10.75 Q-18.3 -9.35 -29.2 -24.05 -38.9 -37.05 -39.85 -53.5 -40.95 -73.0 -25.0 -83.5 M75.25 122.0 L76.5 121.5 83.0 118.25 83.5 117.75 84.0 117.5 84.5 117.0 92.75 111.0 Q112.25 143.75 110.5 154.0 111.0 193.0 55.25 201.0 30.5 204.25 16.75 193.0 10.25 190.5 7.5 155.0 L32.5 148.75 64.25 133.25 75.25 122.0 M-93.75 111.75 L-87.0 116.25 Q-81.55 120.15 -74.5 123.0 L-71.25 124.25 -48.75 142.25 -24.5 152.0 -8.75 153.75 Q-9.2 170.8 -14.05 187.2 -16.55 195.65 -25.1 198.65 -43.75 205.05 -63.5 201.35 -79.35 198.2 -93.05 189.6 -113.3 177.1 -111.5 153.5 -112.35 150.15 -111.1 146.75 -104.15 128.4 -93.75 111.75" fill="#e58508" fill-rule="evenodd" stroke="none"/>
    <path d="M78.25 -34.0 L80.75 -29.75 92.0 -16.0 108.5 2.75 129.25 23.25 132.75 26.25 135.4 26.25 133.5 34.75 Q137.75 37.75 147.0 33.5 L147.5 33.0 147.0 30.5 151.5 29.5 Q157.75 26.25 159.0 24.0 L165.75 12.25 165.5 11.0 166.75 11.0 167.5 14.0 Q172.0 18.25 162.5 51.0 L157.25 57.75 152.25 60.25 146.5 60.25 Q140.75 58.0 139.75 56.25 L134.75 46.25 Q131.5 37.75 132.25 30.75 L132.5 30.25 128.25 26.25 Q139.0 67.75 92.75 111.0 L100.75 124.5 99.25 124.5 92.25 128.5 92.0 131.5 72.25 153.75 39.25 171.0 Q13.0 173.25 12.0 179.5 13.0 198.75 56.0 196.5 104.25 187.5 109.5 163.5 111.0 165.25 105.25 176.25 L99.75 183.0 Q83.5 202.0 33.0 200.75 9.0 203.25 7.75 155.25 L-8.5 153.75 Q-5.25 203.75 -43.0 202.5 -79.25 205.0 -105.75 178.25 L-109.75 169.75 Q-112.25 164.75 -110.75 164.0 -93.25 197.0 -51.0 197.75 -19.0 200.75 -12.25 179.5 -13.25 176.25 -17.25 174.75 L-33.5 172.25 -63.0 158.0 Q-92.25 124.0 -101.5 125.5 L-101.75 124.75 -93.75 112.25 -93.75 111.25 -98.25 108.75 -115.25 91.25 -125.25 71.25 -127.25 62.75 -128.75 50.75 -129.5 37.25 -128.5 20.5 -143.75 37.5 -134.0 58.0 -128.5 72.25 -129.75 70.75 -133.5 60.25 -139.25 47.75 -152.75 22.5 -146.5 32.25 -146.25 32.75 -145.25 32.0 -145.5 31.5 -135.25 20.0 -144.5 31.25 -144.25 31.75 -130.0 15.25 -122.75 9.5 -123.0 9.0 -111.75 -3.5 -112.0 -4.0 -110.5 -5.0 -110.75 -5.5 -109.25 -6.5 -109.5 -7.0 -84.75 -36.5 -87.0 -30.0 -88.25 -28.5 -89.0 -25.5 -90.0 -24.5 -90.75 -21.5 -91.75 -20.5 -95.5 -10.5 -104.25 8.5 -104.75 11.0 -105.5 11.25 -105.5 13.0 -106.25 13.5 -106.25 15.0 -107.0 15.5 -107.0 17.0 -107.75 17.5 -107.75 19.0 -108.5 19.5 -108.5 21.0 -113.0 31.75 -120.5 54.75 -116.0 68.25 -111.5 76.25 -95.75 92.25 -87.5 97.5 Q-88.25 95.25 -85.0 91.0 L-72.25 112.75 Q-66.75 117.25 -67.0 118.75 L-35.0 137.0 -11.75 141.5 1.25 143.0 38.0 136.0 63.75 121.0 70.0 116.5 88.5 87.5 Q89.75 87.75 89.25 92.25 L94.25 89.25 106.75 76.5 112.5 67.0 106.25 43.75 98.0 19.75 77.25 -34.0 78.25 -34.0 M39.25 -54.5 Q39.25 23.75 1.25 26.75 -36.0 31.25 -39.5 -53.5 -36.0 -14.75 0.5 -10.5 36.5 -15.5 39.25 -54.5 M-140.25 90.75 Q-185.5 83.75 -175.75 30.5 -176.5 70.25 -127.5 85.5 L-131.25 88.5 -140.25 90.75" fill="#000000" fill-opacity="0.49803922" fill-rule="evenodd" stroke="none"/>
  </g>
</svg>
