<?xml version="1.0" encoding="UTF-8" standalone="no"?>
<svg xmlns:ffdec="https://www.free-decompiler.com/flash" xmlns:xlink="http://www.w3.org/1999/xlink" ffdec:objectType="shape" height="321.0px" width="353.8px" xmlns="http://www.w3.org/2000/svg">
  <g transform="matrix(1.0, 0.0, 0.0, 1.0, 174.65, 118.2)">
    <path d="M-20.5 -93.0 L-25.25 -109.75 Q-22.8 -115.2 -16.8 -116.95 -6.8 -119.7 2.0 -116.5 L6.75 -116.75 8.0 -117.0 19.15 -116.45 Q23.75 -116.25 27.7 -114.0 30.75 -112.4 31.85 -109.25 35.1 -100.05 28.5 -92.75 20.0 -86.5 4.0 -93.5 -18.0 -87.5 -20.5 -93.0 M12.75 -104.0 Q11.8 -102.55 10.25 -101.75 9.75 -97.25 12.0 -95.0 L15.5 -94.25 Q25.75 -96.0 17.75 -104.75 L12.75 -104.0 M-6.75 -94.75 Q4.25 -104.5 -10.75 -104.5 -17.75 -96.5 -6.75 -94.75" fill="#ffffff" fill-rule="evenodd" stroke="none"/>
    <path d="M12.75 -104.0 L17.75 -104.75 Q25.75 -96.0 15.5 -94.25 L12.0 -95.0 Q9.75 -97.25 10.25 -101.75 11.8 -102.55 12.75 -104.0 M-6.75 -94.75 Q-17.75 -96.5 -10.75 -104.5 4.25 -104.5 -6.75 -94.75" fill="#000000" fill-rule="evenodd" stroke="none"/>
    <path d="M-20.5 -93.0 Q-18.0 -87.5 4.0 -93.5 20.0 -86.5 28.5 -92.75 L35.55 -86.15 Q41.65 -79.9 42.3 -71.4 43.9 -49.3 31.0 -32.2 27.8 -27.9 23.05 -25.4 5.15 -16.15 -13.75 -23.95 -20.4 -26.75 -24.7 -32.55 -37.05 -49.3 -35.65 -70.25 L-35.35 -72.15 Q-31.65 -84.8 -20.5 -93.0 M73.45 122.75 Q74.25 122.1 75.25 121.75 80.1 120.05 84.0 117.25 L84.45 116.95 89.3 113.6 92.75 111.25 Q97.85 119.2 102.4 127.3 110.7 142.1 110.1 158.8 109.85 166.55 106.0 173.3 96.2 190.5 77.1 196.4 67.95 199.1 58.8 201.0 37.15 205.35 18.6 194.35 15.6 192.55 14.35 189.35 7.3 171.7 7.25 152.25 L32.25 146.75 65.5 130.5 Q69.35 126.5 73.45 122.75 M-92.25 109.5 L-89.75 111.75 Q-79.9 118.3 -68.75 122.5 -60.2 131.65 -49.75 138.5 L-23.5 149.5 -8.5 151.0 Q-8.95 158.95 -9.75 166.95 L-10.5 176.0 Q-11.2 187.1 -18.25 194.25 -21.1 197.2 -25.05 198.85 -35.45 203.05 -47.1 202.8 -71.9 202.3 -93.0 189.5 -113.3 177.1 -111.5 153.5 -112.0 152.25 -111.6 150.8 -105.45 128.7 -92.25 109.5" fill="#e58508" fill-rule="evenodd" stroke="none"/>
    <path d="M42.25 -63.75 Q39.25 18.25 5.0 13.25 -32.25 15.25 -35.5 -59.25 -28.25 -21.75 5.75 -20.5 39.0 -25.0 42.25 -63.75 M90.5 -31.75 L117.75 -8.0 142.0 10.75 147.5 16.0 Q141.55 -13.2 157.85 -29.3 154.5 -23.2 152.0 -8.25 L163.0 -12.0 163.0 -13.5 166.0 -12.75 Q165.25 -15.75 170.75 -14.75 175.0 -16.25 174.0 -23.0 L175.0 -23.5 Q186.0 -1.5 167.75 32.5 163.25 32.75 161.5 34.75 L155.75 32.25 151.25 26.25 148.75 18.75 146.5 17.75 126.5 2.25 129.25 19.5 130.0 32.75 127.5 60.25 Q121.25 91.75 92.75 111.0 L100.5 124.0 98.0 124.25 92.5 127.5 92.5 130.0 72.0 151.75 68.75 154.0 37.75 169.5 Q12.5 171.0 11.25 176.5 13.25 200.25 56.0 196.5 104.25 187.5 109.5 163.5 111.0 165.25 105.25 176.25 L99.75 183.0 Q74.0 205.5 29.0 199.75 8.75 200.25 7.5 152.25 L-8.0 151.0 Q-5.5 205.25 -43.0 202.5 -79.25 205.0 -105.75 178.25 L-109.75 169.75 Q-112.25 164.75 -110.75 164.0 -96.75 197.0 -43.75 197.75 -20.25 195.25 -17.75 190.5 L-14.5 186.0 Q-11.0 177.75 -11.75 176.75 -12.25 173.75 -16.0 172.25 L-34.0 169.25 -63.25 154.75 -85.5 130.0 -93.25 126.25 -98.0 123.0 -100.25 122.75 -95.75 114.5 -92.0 109.5 Q-117.5 91.0 -124.25 67.25 L-124.75 59.75 -127.75 53.75 Q-125.0 51.25 -127.75 29.0 L-125.5 10.5 -141.05 25.9 -143.0 22.25 -142.0 22.0 -133.5 12.25 -127.5 7.75 -121.75 2.0 -122.0 1.5 -119.5 -0.5 -119.75 -1.0 -88.25 -36.0 -83.0 -43.25 -81.75 -44.0 -82.25 -41.75 -102.75 1.75 -102.5 2.5 -103.5 3.5 -103.75 5.5 -111.25 22.75 -115.25 35.0 -117.75 40.25 -121.0 50.5 Q-121.75 52.75 -119.75 56.75 L-110.25 75.75 -94.5 92.25 -86.25 97.0 Q-88.0 88.25 -84.75 87.5 -77.25 105.75 -67.75 111.75 L-66.75 115.25 -35.0 134.25 -16.0 138.25 1.0 140.75 37.75 134.0 70.0 115.5 89.0 86.5 89.0 82.5 90.0 87.25 90.0 92.75 90.75 93.0 94.25 90.75 110.25 74.5 118.75 57.5 Q119.75 56.5 118.25 50.75 L108.25 22.25 81.25 -42.0 83.75 -40.0 90.5 -31.75 M-136.75 74.25 Q-145.55 77.1 -153.6 73.55 -181.2 61.45 -172.6 28.3 -163.9 64.05 -125.75 67.5 L-126.25 68.15 Q-130.65 72.45 -136.75 74.25" fill="#000000" fill-opacity="0.49803922" fill-rule="evenodd" stroke="none"/>
  </g>
</svg>
