<?xml version="1.0" encoding="UTF-8" standalone="no"?>
<svg xmlns:ffdec="https://www.free-decompiler.com/flash" xmlns:xlink="http://www.w3.org/1999/xlink" ffdec:objectType="shape" height="330.85px" width="363.8px" xmlns="http://www.w3.org/2000/svg">
  <g transform="matrix(1.0, 0.0, 0.0, 1.0, 174.75, 127.95)">
    <path d="M-16.25 -102.25 L-20.5 -120.0 Q-12.3 -130.3 1.45 -127.25 L9.25 -125.5 12.75 -126.5 Q23.15 -128.55 32.25 -123.35 34.5 -122.0 35.55 -119.8 40.25 -109.75 32.5 -101.25 27.5 -95.5 8.0 -103.0 -13.75 -97.0 -16.25 -102.25 M16.25 -104.25 L19.75 -103.5 Q30.25 -107.75 22.75 -114.0 19.25 -114.75 17.25 -113.5 L14.5 -111.0 Q14.0 -107.0 16.25 -104.25 M-1.75 -104.5 Q7.75 -114.5 -5.75 -115.0 -13.75 -105.5 -1.75 -104.5" fill="#ffffff" fill-rule="evenodd" stroke="none"/>
    <path d="M16.25 -104.25 Q14.0 -107.0 14.5 -111.0 L17.25 -113.5 Q19.25 -114.75 22.75 -114.0 30.25 -107.75 19.75 -103.5 L16.25 -104.25 M-1.75 -104.5 Q-13.75 -105.5 -5.75 -115.0 7.75 -114.5 -1.75 -104.5" fill="#000000" fill-rule="evenodd" stroke="none"/>
    <path d="M-16.25 -102.25 Q-13.75 -97.0 8.0 -103.0 27.5 -95.5 32.5 -101.25 39.2 -94.95 43.9 -87.05 45.45 -84.5 45.7 -81.4 47.2 -62.1 37.35 -45.45 34.55 -40.75 30.25 -37.8 12.5 -25.4 -8.45 -32.9 -12.8 -34.55 -16.35 -37.7 -31.0 -50.85 -31.95 -70.75 -32.95 -91.0 -16.25 -102.25 M70.5 123.25 L75.0 121.5 76.0 121.0 76.75 120.75 83.25 117.75 83.75 117.25 84.25 117.0 93.0 111.25 Q112.25 143.75 110.5 154.0 111.0 193.0 55.25 201.0 30.5 204.25 16.75 193.0 9.75 189.75 7.0 149.5 L32.0 144.5 59.75 131.5 67.0 126.75 70.5 123.25 M-91.0 107.5 L-82.5 113.0 Q-64.4 121.35 -50.0 135.0 L-25.25 145.75 -8.0 148.0 Q-8.85 166.15 -12.5 183.9 -14.6 194.1 -24.05 198.0 -41.15 204.95 -60.0 201.85 -77.75 198.9 -93.05 189.6 -113.3 177.1 -111.5 153.5 -112.3 148.6 -110.2 143.75 -102.05 124.95 -91.0 107.5" fill="#e58508" fill-rule="evenodd" stroke="none"/>
    <path d="M46.0 -75.5 Q49.75 -11.5 11.25 0.25 -31.5 -0.75 -31.5 -66.25 -16.0 -23.25 13.5 -30.75 43.75 -38.0 46.0 -75.5 M86.0 -49.0 L95.75 -40.5 123.25 -22.25 128.5 -20.5 156.75 -5.25 158.85 -4.75 159.0 -4.75 158.9 -4.85 Q148.1 -16.25 168.25 -101.75 L168.5 -103.0 169.75 -102.75 168.25 -98.0 Q169.25 -97.25 167.25 -90.25 L165.25 -84.25 163.5 -68.5 162.0 -63.0 161.5 -51.0 160.25 -44.75 160.0 -23.25 Q178.5 -26.0 180.0 -95.0 182.75 -94.75 183.0 -102.5 L184.0 -103.0 Q195.5 -17.75 180.75 -3.75 L176.25 2.25 170.0 4.25 Q168.25 2.0 165.5 2.25 L163.0 -1.25 157.75 -2.0 124.0 -19.75 Q142.0 39.75 116.0 89.0 L101.25 105.25 93.0 111.0 100.0 123.25 Q93.5 122.0 72.5 149.25 L67.25 153.25 38.75 166.75 15.5 170.25 Q10.75 171.75 10.75 174.0 13.5 201.5 56.0 196.5 104.0 187.25 109.75 164.0 L110.0 165.0 105.25 176.25 Q84.75 204.0 33.25 200.75 9.25 206.0 7.25 149.75 L-8.0 148.0 Q-6.0 207.75 -43.0 202.5 -107.5 198.0 -111.25 164.0 -106.5 187.5 -57.0 197.5 -14.75 203.75 -11.5 172.75 -12.75 168.0 -34.5 166.0 L-64.0 151.0 -84.75 126.75 Q-96.5 119.25 -98.5 120.0 L-95.75 114.5 -90.75 107.25 Q-112.0 92.25 -120.25 71.0 L-123.25 63.25 -124.75 51.75 Q-148.0 69.5 -163.25 55.25 -169.5 53.5 -174.75 21.25 -170.95 21.55 -170.2 17.25 -165.8 49.7 -123.5 49.5 -121.0 48.5 -122.75 41.25 L-130.0 26.75 -129.5 26.5 -125.75 34.0 -125.75 23.0 -124.25 10.75 -122.0 0.5 Q-136.15 9.35 -136.0 15.8 L-139.0 10.75 -132.75 6.25 -122.5 -3.5 -122.75 -4.0 -112.75 -14.0 -113.0 -14.5 -106.75 -20.5 -107.0 -21.0 -100.75 -27.0 -101.0 -27.5 -86.25 -42.5 -86.5 -43.0 -78.25 -52.0 -79.5 -48.25 -101.0 -5.5 -116.25 30.75 -120.75 44.25 -119.75 53.0 -109.25 75.25 -93.5 90.5 -85.75 95.25 -83.75 95.75 Q-87.25 86.25 -86.0 85.0 L-84.75 83.5 -80.0 93.75 -75.0 99.5 -66.0 112.25 -34.25 131.75 -21.25 134.75 0.25 138.25 37.0 132.0 69.5 114.0 72.0 111.5 84.25 93.0 86.0 89.25 87.75 87.5 90.0 83.5 89.75 80.5 90.5 84.25 90.5 94.0 91.25 94.25 95.0 91.75 111.5 74.5 Q111.0 73.25 115.75 67.5 L122.0 53.5 Q133.0 37.75 84.75 -49.0 L86.0 -49.0" fill="#000000" fill-opacity="0.49803922" fill-rule="evenodd" stroke="none"/>
  </g>
</svg>
