<?xml version="1.0" encoding="UTF-8" standalone="no"?>
<svg xmlns:ffdec="https://www.free-decompiler.com/flash" xmlns:xlink="http://www.w3.org/1999/xlink" ffdec:objectType="shape" height="339.75px" width="358.65px" xmlns="http://www.w3.org/2000/svg">
  <g transform="matrix(1.0, 0.0, 0.0, 1.0, 172.25, 137.25)">
    <path d="M-12.0 -111.0 Q-14.1 -115.2 -15.7 -119.55 -16.9 -122.85 -16.6 -126.3 -16.35 -129.15 -14.25 -130.95 -3.5 -140.35 10.75 -135.75 L10.75 -135.0 20.3 -135.35 Q30.9 -137.0 38.4 -130.1 40.1 -128.5 40.65 -126.3 42.85 -116.95 36.25 -109.25 33.0 -104.0 12.25 -112.0 -9.5 -106.25 -12.0 -111.0 M18.75 -116.5 L20.5 -113.25 25.25 -112.75 Q34.25 -123.25 24.25 -123.25 21.0 -123.25 18.5 -120.25 L18.75 -116.5 M-2.75 -123.25 Q-8.5 -115.75 1.5 -113.75 13.5 -123.75 -2.75 -123.25" fill="#ffffff" fill-rule="evenodd" stroke="none"/>
    <path d="M-12.0 -111.0 Q-9.5 -106.25 12.25 -112.0 33.0 -104.0 36.25 -109.25 47.65 -100.55 48.65 -86.05 50.1 -65.15 36.35 -49.65 32.15 -44.95 26.3 -42.9 10.65 -37.35 -5.45 -42.9 -9.65 -44.45 -13.2 -47.6 -27.35 -59.85 -28.25 -79.25 -29.2 -100.2 -12.0 -111.0 M-89.5 105.5 L-83.25 109.5 Q-77.05 114.1 -70.0 117.0 -66.4 118.6 -63.25 120.95 -56.4 125.85 -50.0 131.5 L-25.0 142.75 -8.25 145.0 Q-7.2 165.6 -13.75 185.2 -15.4 190.05 -18.65 193.9 -22.3 198.3 -27.7 199.65 -58.0 206.7 -86.7 194.0 -104.5 186.05 -110.25 167.75 -111.55 163.6 -111.15 159.1 -108.65 129.45 -89.5 105.5 M75.75 121.0 L76.5 120.5 82.5 118.0 83.0 117.5 83.5 117.25 84.25 116.75 84.75 116.5 85.75 115.75 93.0 111.5 Q108.75 135.5 110.5 154.0 111.0 193.0 55.25 201.0 30.5 204.25 16.75 193.0 8.5 186.75 7.0 146.25 L32.0 142.25 57.5 131.0 67.5 124.0 74.75 121.25 75.75 121.0" fill="#e58508" fill-rule="evenodd" stroke="none"/>
    <path d="M18.75 -116.5 L18.5 -120.25 Q21.0 -123.25 24.25 -123.25 34.25 -123.25 25.25 -112.75 L20.5 -113.25 18.75 -116.5 M-2.75 -123.25 Q13.5 -123.75 1.5 -113.75 -8.5 -115.75 -2.75 -123.25" fill="#000000" fill-rule="evenodd" stroke="none"/>
    <path d="M49.0 -83.5 Q53.25 -20.25 12.5 -12.0 -26.5 -12.25 -27.75 -75.75 -19.5 -37.0 17.5 -40.5 47.75 -48.0 49.0 -83.5 M88.0 -53.0 L97.0 -44.25 117.0 -29.25 154.0 -6.5 157.75 -5.25 154.0 -23.25 154.55 -44.4 156.6 -46.25 Q157.25 -24.45 162.75 -19.75 182.5 -27.75 175.75 -122.0 L176.75 -122.5 Q194.75 -18.0 179.25 -6.0 174.75 2.5 168.0 1.75 166.25 -1.5 163.5 -0.25 L162.25 -4.0 161.25 -3.75 162.0 -2.0 156.5 -2.75 136.25 -14.25 126.0 -21.0 129.25 -4.0 131.75 16.75 132.25 34.5 131.0 45.75 Q122.5 97.0 93.0 111.25 L99.75 122.75 Q93.0 121.5 67.25 151.5 L38.0 164.75 Q11.5 165.75 10.0 171.5 12.0 201.25 56.0 196.5 104.0 187.5 110.0 163.5 105.75 195.5 47.5 201.5 L33.25 200.75 Q22.75 199.0 17.0 193.75 9.25 190.25 7.25 146.25 L4.0 146.5 -8.0 145.0 -10.0 171.25 Q-10.75 164.75 -34.0 163.0 L-64.0 147.5 -83.75 124.0 Q-95.25 116.25 -97.25 117.25 L-89.25 105.25 -98.25 98.25 -110.0 84.75 Q-126.5 61.75 -124.25 36.25 -144.5 56.25 -162.75 42.25 -167.25 40.0 -172.25 10.75 L-170.7 10.65 -167.5 12.25 Q-158.25 22.0 -159.75 24.75 L-157.25 27.0 -144.75 30.75 -133.75 30.5 Q-134.75 32.25 -131.0 32.25 L-128.0 31.5 -121.25 31.75 Q-116.75 29.25 -123.75 17.75 L-121.75 7.0 -121.75 3.25 -119.0 -9.25 -131.75 3.5 -133.9 0.7 -133.75 0.5 -132.5 0.0 -75.25 -59.0 -78.0 -52.5 -95.5 -20.0 -102.0 -6.75 -102.0 -5.5 -103.25 -4.25 -103.0 -3.5 -109.5 9.5 -110.25 12.5 -115.25 22.75 -115.0 23.5 -116.0 24.25 -116.0 26.0 -120.5 38.0 -120.75 39.75 -120.0 40.75 -118.25 52.25 -111.5 68.25 -108.0 73.75 -92.5 89.25 -83.5 94.75 Q-81.75 93.0 -84.75 79.5 L-82.25 85.75 -70.25 101.25 -65.25 109.25 -34.5 129.0 -19.5 132.5 0.75 136.0 37.0 129.75 69.75 112.0 Q91.0 85.4 90.45 78.4 L91.25 82.25 90.75 95.25 97.0 91.5 111.5 76.5 119.25 62.25 120.0 62.0 123.25 53.25 Q136.25 36.75 87.25 -52.75 L88.0 -53.0 M-57.0 197.5 Q-15.25 203.75 -10.75 173.0 -10.25 202.75 -43.0 202.5 -107.5 198.0 -111.0 164.25 -106.5 187.5 -57.0 197.5" fill="#000000" fill-opacity="0.49803922" fill-rule="evenodd" stroke="none"/>
  </g>
</svg>
