<?xml version="1.0" encoding="UTF-8" standalone="no"?>
<svg xmlns:ffdec="https://www.free-decompiler.com/flash" xmlns:xlink="http://www.w3.org/1999/xlink" ffdec:objectType="shape" height="330.9px" width="353.75px" xmlns="http://www.w3.org/2000/svg">
  <g transform="matrix(1.0, 0.0, 0.0, 1.0, 174.75, 128.0)">
    <path d="M-16.25 -102.25 Q-22.15 -109.7 -20.45 -118.85 -20.1 -120.7 -18.7 -121.85 -6.2 -131.95 9.0 -125.5 12.3 -126.95 15.95 -127.45 29.9 -129.1 37.5 -118.5 L37.55 -117.05 Q38.35 -108.3 32.5 -101.5 29.5 -95.25 8.0 -103.0 L-5.0 -99.75 Q-15.75 -99.5 -16.25 -102.25 M25.25 -112.0 L22.25 -114.25 18.75 -114.0 Q9.25 -106.25 20.5 -103.75 27.5 -106.25 25.25 -112.0 M-2.5 -104.5 Q8.75 -114.0 -6.0 -115.0 -13.25 -106.0 -2.5 -104.5" fill="#ffffff" fill-rule="evenodd" stroke="none"/>
    <path d="M25.25 -112.0 Q27.5 -106.25 20.5 -103.75 9.25 -106.25 18.75 -114.0 L22.25 -114.25 25.25 -112.0 M-2.5 -104.5 Q-13.25 -106.0 -6.0 -115.0 8.75 -114.0 -2.5 -104.5" fill="#000000" fill-rule="evenodd" stroke="none"/>
    <path d="M-16.25 -102.25 Q-15.75 -99.5 -5.0 -99.75 L8.0 -103.0 Q29.5 -95.25 32.5 -101.5 37.6 -96.45 41.8 -90.5 43.35 -88.3 44.0 -85.65 49.5 -64.35 37.45 -45.35 31.05 -35.35 19.55 -32.1 12.3 -29.95 4.5 -30.75 -7.05 -30.9 -16.15 -37.7 -26.95 -45.75 -30.1 -58.9 -32.45 -68.95 -31.0 -79.15 -28.85 -94.55 -16.25 -102.25 M59.75 131.5 L67.0 126.75 70.75 123.0 82.75 118.0 89.25 113.5 89.75 113.25 93.0 111.25 Q112.25 143.75 110.5 154.0 111.0 193.0 55.25 201.0 30.5 204.25 16.75 193.0 9.75 189.75 7.0 149.25 L32.0 144.5 59.75 131.5 M-91.0 107.5 L-82.5 113.0 Q-64.35 121.4 -49.75 135.0 L-24.0 146.25 -8.0 148.0 Q-8.85 166.15 -12.5 183.9 -14.6 194.1 -24.05 198.0 -41.15 204.95 -60.0 201.85 -77.75 198.9 -93.05 189.6 -113.3 177.1 -111.5 153.5 -112.3 148.6 -110.2 143.75 -102.05 124.95 -91.0 107.5" fill="#e58508" fill-rule="evenodd" stroke="none"/>
    <path d="M46.25 -75.5 Q51.25 -17.25 13.25 0.0 -32.5 -0.5 -31.5 -66.25 -14.25 -21.5 14.75 -31.0 45.5 -40.75 46.25 -75.5 M161.75 -86.0 Q189.0 -25.75 173.25 11.0 L168.25 17.75 161.75 19.75 156.5 17.25 Q152.75 13.25 153.5 12.25 L147.75 9.75 137.25 1.25 126.75 -6.0 Q133.75 17.75 128.5 58.25 121.75 91.75 93.0 111.0 L100.0 123.25 Q93.25 122.5 67.25 153.25 L38.75 166.75 Q12.25 168.5 10.75 174.0 13.5 201.5 56.0 196.5 104.0 187.25 109.75 164.0 L110.0 165.0 105.25 176.25 Q84.75 204.0 33.25 200.75 9.0 206.25 7.25 149.25 L-7.75 148.0 Q-6.25 207.75 -43.0 202.5 -107.5 198.0 -111.25 164.0 -106.5 187.5 -57.0 197.5 -15.0 203.5 -11.25 173.25 -12.25 167.75 -34.5 166.0 L-64.0 151.0 -85.0 126.5 Q-96.5 119.25 -98.5 120.0 L-95.75 114.5 -90.75 107.25 Q-112.0 92.0 -120.25 71.25 L-123.25 63.25 -125.0 50.25 Q-153.0 69.75 -164.25 54.25 -169.25 52.0 -174.75 21.25 -168.85 21.7 -169.8 10.8 -169.2 13.8 -167.75 16.75 -167.0 17.75 -170.0 19.0 L-169.75 23.75 -166.5 27.5 -160.0 36.75 -159.0 39.25 Q-129.75 49.5 -123.5 47.25 -121.0 46.5 -122.75 38.75 L-129.5 25.75 Q-128.25 25.75 -126.25 31.75 L-125.75 31.5 -126.0 25.5 -124.25 10.25 -122.25 0.5 Q-136.85 10.15 -134.85 16.3 L-138.5 10.75 -125.75 0.0 -126.0 -0.5 -115.5 -11.0 -115.75 -11.5 -78.25 -52.0 -80.75 -45.75 -101.25 -5.0 -101.75 -2.5 -104.5 2.5 -114.75 27.0 -115.0 29.0 -116.5 31.25 -121.0 45.0 -119.75 53.25 -109.25 75.25 -94.75 89.5 -84.25 96.25 Q-87.5 85.5 -84.75 83.5 L-80.0 93.75 -75.75 98.5 -67.5 109.25 -66.0 112.25 -34.75 131.5 -18.25 135.25 0.75 138.25 36.75 132.0 69.5 114.0 Q90.15 87.0 89.9 80.3 L90.5 84.25 90.5 94.25 94.25 92.25 111.75 74.0 116.75 65.5 122.25 52.5 Q123.5 47.75 121.75 44.5 L112.75 19.25 83.75 -47.25 84.25 -47.5 93.25 -37.25 100.5 -30.75 125.0 -10.75 126.75 -10.25 127.0 -9.25 127.75 -9.5 127.5 -8.75 129.0 -8.5 130.25 -7.5 130.0 -6.75 131.25 -6.75 150.75 8.75 149.5 -0.75 147.75 -6.25 145.75 -34.75 145.75 -47.9 146.95 -49.6 Q148.75 -32.9 155.75 -31.0 164.25 -43.25 159.5 -78.5 162.0 -78.75 161.75 -86.0" fill="#000000" fill-opacity="0.49803922" fill-rule="evenodd" stroke="none"/>
  </g>
</svg>
