<?xml version="1.0" encoding="UTF-8" standalone="no"?>
<svg xmlns:ffdec="https://www.free-decompiler.com/flash" xmlns:xlink="http://www.w3.org/1999/xlink" ffdec:objectType="shape" height="321.0px" width="351.55px" xmlns="http://www.w3.org/2000/svg">
  <g transform="matrix(1.0, 0.0, 0.0, 1.0, 176.75, 118.2)">
    <path d="M13.5 -104.0 L10.75 -101.75 Q10.75 -97.25 12.75 -95.0 L16.25 -94.25 Q26.75 -98.75 19.25 -104.5 15.0 -105.25 13.5 -104.0 M-20.0 -93.0 Q-22.25 -101.4 -23.4 -109.9 -23.75 -112.35 -21.05 -113.9 -8.6 -121.15 5.0 -116.0 8.7 -117.2 12.2 -117.8 25.9 -120.0 34.0 -109.75 33.75 -105.15 32.45 -100.8 31.25 -96.75 29.0 -93.0 20.5 -86.25 4.5 -93.5 -17.5 -87.0 -20.0 -93.0 M-6.25 -94.75 Q5.0 -104.25 -10.0 -105.0 -17.0 -95.75 -6.25 -94.75" fill="#ffffff" fill-rule="evenodd" stroke="none"/>
    <path d="M13.5 -104.0 Q15.0 -105.25 19.25 -104.5 26.75 -98.75 16.25 -94.25 L12.75 -95.0 Q10.75 -97.25 10.75 -101.75 L13.5 -104.0 M-6.25 -94.75 Q-17.0 -95.75 -10.0 -105.0 5.0 -104.25 -6.25 -94.75" fill="#000000" fill-rule="evenodd" stroke="none"/>
    <path d="M-20.0 -93.0 Q-17.5 -87.0 4.5 -93.5 20.5 -86.25 29.0 -93.0 33.05 -90.1 36.2 -86.4 39.1 -83.05 40.3 -78.85 47.2 -55.05 33.45 -34.5 24.95 -21.7 9.85 -20.4 -3.25 -19.75 -15.05 -25.25 -20.45 -27.75 -24.0 -32.5 -36.55 -49.15 -34.2 -70.2 -32.55 -84.85 -20.0 -93.0 M73.25 122.5 L75.25 121.75 76.25 121.25 77.0 121.0 81.0 119.25 84.5 117.0 85.0 116.75 92.75 111.25 Q110.25 139.25 110.5 154.0 111.0 193.0 55.25 201.0 30.5 204.25 16.75 193.0 9.0 185.75 7.25 152.25 L33.0 146.5 65.25 130.75 73.25 122.5 M-92.25 109.5 L-89.75 111.75 -75.6 119.5 Q-72.9 121.0 -70.5 122.85 -60.5 130.7 -50.25 138.0 L-25.75 148.5 Q-23.85 149.45 -21.55 149.7 L-8.5 151.0 Q-8.95 158.95 -9.75 166.95 L-10.5 176.0 Q-11.2 187.1 -18.25 194.25 -21.1 197.2 -25.05 198.85 -35.45 203.05 -47.1 202.8 -71.9 202.3 -93.0 189.5 -113.3 177.1 -111.5 153.5 -112.0 152.25 -111.6 150.8 -105.45 128.7 -92.25 109.5" fill="#e58508" fill-rule="evenodd" stroke="none"/>
    <path d="M6.0 -20.5 Q38.75 -23.0 43.25 -65.5 44.75 7.5 6.0 13.25 -32.0 15.0 -35.0 -59.75 -31.5 -25.5 6.0 -20.5 M91.25 -29.25 L111.75 -9.0 113.25 -6.75 137.5 16.25 142.05 19.75 143.0 19.25 136.75 -2.25 133.75 -24.25 133.4 -31.6 Q134.9 -31.0 136.7 -31.0 139.8 -31.0 142.65 -33.4 L143.0 -33.5 143.0 -33.7 144.4 -35.2 144.75 -35.0 144.7 -35.55 146.35 -37.9 147.0 -37.5 146.85 -38.7 146.95 -38.9 148.35 -41.4 161.0 -25.0 Q166.25 -20.25 166.5 -25.5 L168.25 -23.25 Q168.0 -19.5 171.75 -12.0 L171.75 -6.25 Q175.75 4.75 174.5 6.5 L173.75 10.75 167.5 29.0 162.25 35.5 Q157.25 38.5 153.0 36.25 L148.0 31.25 145.25 24.75 143.25 23.75 127.75 9.75 Q133.25 35.25 125.5 68.5 122.25 87.75 92.75 111.0 L100.5 124.0 Q93.75 122.25 75.0 148.75 73.5 151.25 67.75 154.75 L38.5 169.25 16.25 172.75 Q11.75 174.25 11.25 176.5 13.25 200.25 56.0 196.5 104.5 186.25 108.75 165.75 110.25 161.0 109.75 166.0 L105.25 176.25 Q84.75 204.0 33.25 200.75 9.0 204.75 7.5 152.25 L-7.75 151.0 Q-5.75 205.25 -43.0 202.5 -107.5 198.0 -111.25 164.0 -106.5 187.5 -57.0 197.5 -14.5 202.5 -12.25 175.25 -13.5 170.75 -33.5 169.25 L-64.0 154.25 -85.5 130.0 -93.75 126.0 -97.25 123.25 -100.0 122.5 -92.25 109.5 Q-117.5 90.75 -124.0 67.75 L-124.75 63.25 Q-127.0 66.5 -137.25 71.5 L-149.5 73.75 -155.25 71.75 -165.75 65.75 Q-171.0 63.5 -176.75 32.25 -172.85 32.55 -172.1 28.05 -167.25 60.75 -124.75 62.75 -122.5 61.75 -124.25 55.5 L-131.75 39.75 -130.75 40.0 -126.75 48.5 -127.5 42.75 -127.5 29.75 -126.25 15.25 -125.25 11.25 Q-126.25 10.0 -127.5 12.5 L-139.0 25.25 -134.25 34.25 -142.0 21.25 Q-139.75 21.5 -132.0 11.25 L-124.0 5.0 -124.25 4.5 -121.75 2.5 -122.0 2.0 -95.25 -27.5 -95.5 -28.0 -93.5 -29.5 -93.75 -30.0 -89.5 -34.0 -89.75 -34.5 -81.0 -44.5 -82.0 -41.0 -103.0 3.25 -102.75 4.0 -107.75 15.0 -113.5 29.75 -113.75 32.0 -114.5 32.5 -114.5 34.0 -116.0 36.5 -116.0 38.0 -117.5 40.5 -119.75 49.0 -120.5 49.5 Q-121.5 53.75 -119.75 56.75 L-112.0 72.25 -106.25 80.25 -94.5 92.25 -87.75 96.25 -84.75 97.5 Q-87.0 93.5 -86.5 90.0 L-85.0 87.25 -76.5 102.75 -67.0 112.25 -66.5 115.25 -34.75 134.25 -14.25 138.5 1.25 140.75 19.25 137.75 37.75 134.0 70.0 115.25 89.5 86.0 89.25 82.0 90.25 87.25 90.25 92.75 93.75 91.0 111.0 73.5 117.0 61.5 Q119.75 57.25 109.0 29.25 L81.0 -41.0 91.25 -29.25 M-175.75 30.25 L-176.25 29.5 -175.5 29.5 -175.75 30.25" fill="#000000" fill-opacity="0.49803922" fill-rule="evenodd" stroke="none"/>
  </g>
</svg>
