<?xml version="1.0" encoding="UTF-8" standalone="no"?>
<svg xmlns:ffdec="https://www.free-decompiler.com/flash" xmlns:xlink="http://www.w3.org/1999/xlink" ffdec:objectType="shape" height="311.0px" width="346.7px" xmlns="http://www.w3.org/2000/svg">
  <g transform="matrix(1.0, 0.0, 0.0, 1.0, 176.4, 108.3)">
    <path d="M-25.0 -83.5 Q-27.4 -87.75 -28.6 -92.3 -29.75 -96.5 -27.6 -99.45 -18.5 -112.0 -2.75 -106.75 L-0.5 -106.25 Q8.35 -109.1 17.75 -107.75 24.85 -106.8 29.0 -101.25 28.85 -96.65 27.65 -92.3 26.5 -88.15 24.25 -84.25 21.75 -77.0 -0.5 -84.0 -20.0 -76.75 -25.0 -83.5 M8.0 -85.25 L11.5 -84.75 Q22.0 -89.5 13.25 -95.25 L8.25 -94.25 5.75 -91.5 Q5.5 -87.75 8.0 -85.25 M-11.5 -84.75 Q-0.75 -95.25 -15.25 -95.0 -22.25 -86.25 -11.5 -84.75" fill="#ffffff" fill-rule="evenodd" stroke="none"/>
    <path d="M8.0 -85.25 Q5.5 -87.75 5.75 -91.5 L8.25 -94.25 13.25 -95.25 Q22.0 -89.5 11.5 -84.75 L8.0 -85.25 M-11.5 -84.75 Q-22.25 -86.25 -15.25 -95.0 -0.75 -95.25 -11.5 -84.75" fill="#000000" fill-rule="evenodd" stroke="none"/>
    <path d="M-25.0 -83.5 Q-20.0 -76.75 -0.5 -84.0 21.75 -77.0 24.25 -84.25 28.95 -81.6 32.3 -77.5 36.25 -72.7 37.35 -66.75 40.85 -48.1 33.15 -31.1 24.35 -11.75 3.6 -10.4 L-0.25 -10.75 Q-18.45 -9.55 -29.3 -24.2 -38.85 -37.05 -39.8 -53.5 -40.95 -73.0 -25.0 -83.5 M75.25 122.0 L76.5 121.5 83.0 118.25 83.5 117.75 84.0 117.5 84.5 117.0 87.5 115.0 89.25 113.5 89.75 113.25 92.75 111.0 Q112.25 143.75 110.5 154.0 111.0 193.0 55.25 201.0 30.5 204.25 16.75 193.0 10.25 190.5 7.5 155.0 L32.5 148.75 64.25 133.25 75.25 122.0 M-93.75 111.75 L-88.25 115.25 Q-82.45 119.55 -75.95 122.35 L-71.25 124.25 -48.75 142.25 -24.5 152.0 -8.75 153.75 Q-9.2 170.8 -14.05 187.2 -16.55 195.65 -25.1 198.65 -43.75 205.05 -63.5 201.35 -79.35 198.2 -93.05 189.6 -113.3 177.1 -111.5 153.5 -112.2 151.15 -111.35 148.65 -104.8 129.1 -93.75 111.75" fill="#e58508" fill-rule="evenodd" stroke="none"/>
    <path d="M79.55 -34.0 L82.05 -29.75 93.3 -16.75 93.05 -16.25 109.8 2.75 123.8 17.0 Q118.55 1.0 120.55 -1.0 126.8 -4.5 133.05 3.75 134.3 3.25 133.05 0.75 L134.3 0.5 146.05 10.0 156.05 13.25 159.55 12.25 Q156.3 8.25 165.05 6.0 L162.55 0.25 162.8 -2.5 Q164.3 -2.0 166.55 8.25 L168.3 20.0 168.8 20.5 169.55 18.75 170.3 19.75 169.55 26.0 166.55 32.5 166.3 35.25 163.05 44.75 Q149.55 69.25 129.8 31.75 138.05 69.5 94.05 111.0 L102.05 124.5 100.55 124.5 93.55 128.5 93.3 131.5 73.55 153.75 40.55 171.0 Q14.3 173.25 13.3 179.5 14.3 198.75 57.3 196.5 105.55 187.5 110.8 163.5 112.3 165.25 106.55 176.25 L101.05 183.0 Q84.8 202.0 34.3 200.75 10.3 203.25 9.05 155.25 L-7.2 153.75 Q-3.95 203.75 -41.7 202.5 -77.95 205.0 -104.45 178.25 L-108.45 169.75 Q-110.95 164.75 -109.45 164.0 -91.95 197.0 -49.7 197.75 -17.7 200.75 -10.95 179.5 -11.95 176.25 -15.95 174.75 L-32.2 172.25 -61.7 158.0 Q-90.95 124.0 -100.2 125.5 L-100.45 124.75 -92.45 112.25 -92.45 111.25 -96.95 108.75 -113.95 91.25 -123.95 71.25 -125.95 62.75 -127.45 50.75 -128.2 37.25 -127.2 20.5 -143.45 38.5 -136.7 53.75 -132.45 66.25 -133.45 65.25 -137.45 53.75 -144.95 37.75 -146.35 35.3 Q-144.0 33.4 -141.6 30.25 L-128.7 15.25 -121.45 9.5 -121.7 9.0 -110.45 -3.5 -110.7 -4.0 -109.2 -5.0 -109.45 -5.5 -107.95 -6.5 -108.2 -7.0 -83.45 -36.5 Q-127.2 53.0 -114.7 68.25 L-110.2 76.25 -94.45 92.25 -86.2 97.5 Q-86.95 95.25 -83.7 91.0 L-70.95 112.75 Q-65.45 117.25 -65.7 118.75 L-33.7 137.0 -10.45 141.5 2.8 143.25 39.55 136.0 65.05 121.0 71.3 116.5 89.8 87.5 Q91.05 87.75 90.55 92.25 L95.55 89.25 108.05 76.5 113.8 67.0 107.55 43.75 99.3 19.75 78.55 -34.0 79.55 -34.0 M39.25 -54.5 Q39.25 23.75 1.25 26.75 -36.0 31.25 -39.5 -53.5 -36.0 -14.75 0.25 -10.5 36.75 -15.5 39.25 -54.5 M-133.95 20.0 L-138.55 25.6 -137.8 24.3 -133.95 20.0 M-135.0 19.0 L-134.0 18.5 -134.5 19.25 -135.0 19.0 M-133.75 17.5 L-132.75 17.0 -133.25 17.75 -133.75 17.5 M-141.5 83.75 L-150.5 85.5 Q-155.75 88.0 -170.75 70.75 -175.65 62.35 -176.4 48.35 -175.8 47.5 -175.5 46.5 -175.0 44.95 -174.8 40.95 L-174.5 38.1 -165.5 55.25 Q-144.5 77.0 -133.75 76.5 -133.5 78.25 -141.5 83.75" fill="#000000" fill-opacity="0.49803922" fill-rule="evenodd" stroke="none"/>
  </g>
</svg>
