<?xml version="1.0" encoding="UTF-8" standalone="no"?>
<svg xmlns:ffdec="https://www.free-decompiler.com/flash" xmlns:xlink="http://www.w3.org/1999/xlink" ffdec:objectType="shape" height="321.05px" width="352.4px" xmlns="http://www.w3.org/2000/svg">
  <g transform="matrix(1.0, 0.0, 0.0, 1.0, 188.65, 118.4)">
    <path d="M2.25 -101.5 Q2.0 -97.75 4.5 -95.25 L8.75 -94.75 Q19.25 -101.75 7.75 -105.25 L4.5 -104.0 2.25 -101.5 M-27.75 -92.75 L-32.75 -110.5 Q-24.5 -120.25 -11.25 -118.0 L-6.0 -117.35 11.0 -118.0 Q20.35 -117.7 25.75 -110.5 L26.1 -106.65 Q26.15 -99.2 21.25 -93.25 18.0 -86.5 -3.75 -93.75 -25.25 -87.0 -27.75 -92.75 M-14.5 -94.75 Q-3.5 -104.25 -18.5 -105.0 -25.5 -96.25 -14.5 -94.75" fill="#ffffff" fill-rule="evenodd" stroke="none"/>
    <path d="M2.25 -101.5 L4.5 -104.0 7.75 -105.25 Q19.25 -101.75 8.75 -94.75 L4.5 -95.25 Q2.0 -97.75 2.25 -101.5 M-14.5 -94.75 Q-25.5 -96.25 -18.5 -105.0 -3.5 -104.25 -14.5 -94.75" fill="#000000" fill-rule="evenodd" stroke="none"/>
    <path d="M-27.75 -92.75 Q-25.25 -87.0 -3.75 -93.75 18.0 -86.5 21.25 -93.25 34.3 -84.85 35.35 -69.7 36.75 -49.75 25.05 -33.7 18.85 -25.25 9.0 -22.1 0.65 -19.6 -8.25 -20.3 -26.25 -22.0 -34.9 -37.55 -43.15 -52.4 -41.55 -69.7 -40.15 -84.45 -27.75 -92.75 M75.0 121.1 L75.5 120.5 76.2 120.15 80.2 118.4 82.2 117.15 92.25 110.25 Q97.5 118.6 102.3 127.05 110.75 141.95 110.15 158.8 109.85 166.55 106.0 173.3 96.2 190.5 77.1 196.4 67.95 199.1 58.8 201.0 37.15 205.35 18.6 194.3 15.85 192.75 14.65 189.85 7.4 171.8 7.25 152.0 L30.75 146.5 63.75 130.0 Q68.25 125.85 73.05 122.15 73.95 121.35 75.0 121.1 M-93.0 110.25 L-86.25 114.75 Q-66.5 125.75 -48.75 139.75 L-25.0 149.5 -8.5 151.0 Q-9.05 168.05 -12.35 184.65 -13.6 190.8 -18.25 194.25 -20.7 196.9 -23.85 198.5 -29.95 201.6 -36.85 202.0 -53.65 203.6 -70.0 199.8 -84.8 196.2 -96.95 186.85 -113.4 174.3 -111.5 153.5 -112.3 149.5 -110.75 145.5 -103.5 127.2 -93.0 110.25" fill="#e58508" fill-rule="evenodd" stroke="none"/>
    <path d="M76.75 -37.75 L82.75 -28.75 102.0 -4.5 112.75 7.0 Q104.75 15.5 110.5 18.0 115.5 15.5 120.5 20.5 123.25 21.5 122.0 18.25 L123.75 18.0 133.0 22.25 137.75 23.5 147.75 23.0 154.25 19.75 Q150.25 16.5 159.0 10.5 L158.75 8.15 Q159.35 10.05 160.25 10.25 L161.0 21.0 161.75 21.5 162.75 19.5 163.75 20.0 163.25 24.75 160.0 31.75 159.5 35.25 156.75 42.75 Q143.0 66.75 127.0 49.5 120.25 94.75 92.25 110.0 L100.0 123.0 98.25 123.0 Q93.0 127.25 90.5 127.5 L90.0 130.5 73.25 148.25 66.25 154.5 37.0 169.0 Q12.5 171.0 11.25 176.0 13.25 200.5 56.0 196.5 104.25 187.5 109.5 163.5 111.0 165.25 105.25 176.25 L99.75 183.0 Q74.0 205.5 29.0 199.75 8.75 200.25 7.5 152.25 L-8.0 151.0 Q-5.5 205.25 -43.0 202.5 -93.25 203.25 -109.75 169.75 L-111.25 165.75 -110.75 164.0 Q-106.25 179.75 -87.0 189.0 L-77.5 192.75 -67.75 195.25 -57.5 196.5 -57.0 197.5 Q-14.75 201.75 -11.75 177.0 -12.25 170.5 -35.0 169.25 L-64.75 154.75 Q-92.25 121.0 -100.5 123.5 L-100.75 122.75 -92.75 110.25 -98.75 106.25 -115.25 88.75 -125.25 68.5 -128.25 53.25 -129.5 29.75 -128.5 15.75 -125.75 -2.0 -152.5 22.25 -157.0 36.0 -161.25 43.75 Q-164.0 44.25 -165.0 46.75 L-170.25 47.5 Q-179.25 46.5 -188.25 20.25 -189.75 18.0 -185.5 11.5 L-186.25 3.75 -184.0 -1.5 Q-185.0 -8.0 -183.25 -8.5 L-181.25 -9.0 Q-178.5 -7.75 -179.75 -5.75 L-177.75 -5.5 -171.0 -8.5 Q-164.0 -13.75 -163.75 -15.0 -158.5 -0.5 -149.5 -11.25 L-149.0 -4.0 -151.0 15.25 -140.75 6.0 -130.0 -2.0 -95.0 -36.0 -95.25 -36.5 -86.25 -45.5 Q-135.0 44.5 -118.75 61.25 L-112.25 74.25 -95.75 91.75 -87.5 97.0 Q-90.5 90.5 -86.5 87.0 L-76.25 105.5 Q-68.0 113.0 -68.5 115.25 L-37.0 134.0 -19.0 138.0 -2.0 140.5 17.0 137.75 35.25 134.0 66.75 116.25 69.25 114.0 87.0 86.5 87.75 93.75 Q112.75 73.75 112.75 68.5 L109.25 53.75 100.25 26.25 75.5 -38.5 76.75 -37.75 M-6.75 -20.75 Q32.3 -24.85 35.8 -60.55 30.0 18.15 -1.0 12.75 -40.0 19.75 -42.25 -64.75 -38.5 -25.0 -6.75 -20.75" fill="#000000" fill-opacity="0.49803922" fill-rule="evenodd" stroke="none"/>
  </g>
</svg>
