<?xml version="1.0" encoding="UTF-8" standalone="no"?>
<svg xmlns:ffdec="https://www.free-decompiler.com/flash" xmlns:xlink="http://www.w3.org/1999/xlink" ffdec:objectType="shape" height="330.5px" width="356.25px" xmlns="http://www.w3.org/2000/svg">
  <g transform="matrix(1.0, 0.0, 0.0, 1.0, 198.0, 127.75)">
    <path d="M4.25 -104.0 Q15.5 -108.75 5.75 -114.75 -8.0 -112.75 4.25 -104.0 M-30.75 -101.75 L-35.75 -119.5 Q-34.4 -121.4 -32.6 -122.7 -20.6 -131.1 -7.25 -125.5 4.9 -130.1 16.55 -124.1 18.85 -122.9 19.95 -120.7 25.2 -110.6 17.75 -102.0 13.5 -96.0 -7.25 -103.0 -28.25 -97.0 -30.75 -101.75 M-22.0 -114.75 Q-28.5 -105.25 -18.25 -104.25 -8.0 -115.25 -22.0 -114.75" fill="#ffffff" fill-rule="evenodd" stroke="none"/>
    <path d="M4.25 -104.0 Q-8.0 -112.75 5.75 -114.75 15.5 -108.75 4.25 -104.0 M-22.0 -114.75 Q-8.0 -115.25 -18.25 -104.25 -28.5 -105.25 -22.0 -114.75" fill="#000000" fill-rule="evenodd" stroke="none"/>
    <path d="M-30.75 -101.75 Q-28.25 -97.0 -7.25 -103.0 13.5 -96.0 17.75 -102.0 29.5 -94.3 31.5 -80.05 33.8 -63.95 25.7 -49.65 17.75 -35.55 2.55 -31.6 -3.15 -30.1 -9.25 -30.75 -21.95 -29.55 -31.7 -38.85 -34.55 -41.6 -36.8 -44.8 -44.35 -55.7 -45.5 -69.25 -47.3 -89.9 -30.75 -101.75 M64.0 125.25 L66.0 123.25 74.5 119.75 75.25 119.25 81.5 116.5 82.0 116.0 83.0 115.75 83.25 115.25 91.75 109.5 Q105.75 128.5 110.5 154.0 111.0 193.0 55.25 201.0 30.5 204.25 16.75 193.0 9.5 189.75 7.0 148.75 L29.5 144.0 57.0 130.5 64.0 125.25 M-92.25 109.25 L-85.5 113.5 Q-80.5 116.8 -75.05 119.35 -72.65 120.55 -70.25 121.0 L-52.5 135.75 -26.75 146.5 -8.5 148.25 Q-8.8 155.6 -9.4 162.95 -10.05 170.65 -10.85 178.25 -11.9 187.8 -18.2 194.3 -21.1 197.2 -25.1 198.65 -41.9 204.55 -60.0 201.8 -77.75 198.9 -93.05 189.6 -113.3 177.1 -111.5 153.5 -112.25 149.8 -110.9 146.35 -103.4 126.95 -92.25 109.25" fill="#e58508" fill-rule="evenodd" stroke="none"/>
    <path d="M94.5 -14.75 L114.75 11.75 115.7 12.7 Q100.4 29.2 105.5 35.0 131.75 35.75 144.0 27.25 L148.0 24.25 Q144.55 20.8 153.6 13.35 154.65 20.2 158.25 20.5 L158.0 23.0 154.75 30.0 154.25 33.25 148.5 48.75 144.75 51.75 142.5 56.0 137.25 58.0 125.25 57.5 Q119.5 90.5 91.75 109.25 L99.0 121.5 Q91.25 120.0 63.75 153.25 L34.0 167.25 Q11.5 168.25 10.5 173.5 14.0 201.75 55.5 196.5 104.5 187.5 109.5 163.5 111.0 165.25 105.25 176.25 L99.75 183.0 Q72.5 207.0 25.25 198.75 8.75 197.5 7.25 148.75 L3.75 149.5 -7.75 148.25 Q-5.75 206.5 -43.0 202.5 -92.75 204.5 -110.75 167.25 L-111.25 165.75 -110.75 164.0 -108.25 170.75 -102.25 178.5 -95.5 184.0 -87.0 189.0 -77.5 192.75 -67.75 195.25 -57.5 196.5 -57.0 197.5 Q-15.0 202.75 -11.0 175.0 -11.75 168.0 -37.5 166.25 L-67.0 151.25 -88.5 126.5 Q-98.0 120.5 -99.75 121.75 L-92.0 109.25 Q-117.75 89.75 -123.75 69.75 L-125.75 65.25 -128.25 53.0 -129.25 36.25 -128.5 10.25 -126.0 -7.5 -121.75 -25.75 -123.5 -25.25 -132.0 -19.25 -168.0 3.0 -168.35 2.9 -169.6 4.7 Q-175.45 6.3 -177.6 6.25 L-183.85 6.6 -184.0 6.25 -187.75 6.25 -189.25 5.25 -193.75 -1.75 Q-205.75 -20.25 -183.75 -111.0 -187.25 -22.25 -174.0 -12.0 -167.85 -15.45 -165.7 -31.3 L-164.9 -31.3 -164.45 -31.3 -165.25 -6.5 -166.0 -3.0 -165.75 -2.5 -159.75 -6.5 -144.25 -14.75 -128.75 -24.5 -103.5 -42.0 -90.0 -53.0 -88.5 -53.5 Q-136.75 29.5 -123.5 45.25 L-120.25 56.75 -113.0 72.25 -100.25 87.25 -97.0 90.25 -88.0 95.5 -90.0 89.25 Q-91.0 86.5 -88.0 82.5 -79.0 104.5 -72.25 107.0 L-70.25 111.75 -38.25 131.5 -24.25 134.75 -3.0 138.25 33.5 131.75 64.75 114.25 65.75 113.0 65.5 112.0 72.25 106.0 72.25 105.0 81.25 92.0 84.75 85.5 86.0 86.25 86.75 95.5 90.75 93.25 95.75 89.0 108.0 76.5 Q118.0 60.75 74.0 -42.0 L87.5 -22.75 94.5 -14.75 M-4.75 -30.75 Q26.0 -34.25 32.5 -70.75 31.0 -6.5 -3.75 -0.25 -45.75 4.5 -45.0 -70.0 -44.25 -35.25 -4.75 -30.75" fill="#000000" fill-opacity="0.49803922" fill-rule="evenodd" stroke="none"/>
  </g>
</svg>
