<?xml version="1.0" encoding="UTF-8" standalone="no"?>
<svg xmlns:ffdec="https://www.free-decompiler.com/flash" xmlns:xlink="http://www.w3.org/1999/xlink" ffdec:objectType="shape" height="339.15px" width="353.3px" xmlns="http://www.w3.org/2000/svg">
  <g transform="matrix(1.0, 0.0, 0.0, 1.0, 200.8, 136.65)">
    <path d="M2.25 -123.75 Q-12.0 -122.25 0.5 -113.0 11.0 -118.75 2.25 -123.75 M-34.0 -110.25 Q-36.3 -112.7 -37.55 -115.75 -38.15 -117.25 -38.2 -118.8 -38.4 -124.5 -35.5 -128.35 -25.85 -140.85 -10.75 -134.5 -9.55 -135.2 -8.0 -135.5 1.35 -137.95 10.0 -134.0 13.75 -132.15 15.8 -128.85 21.9 -119.15 14.0 -110.25 10.0 -105.0 -11.0 -112.0 L-23.5 -108.5 Q-33.5 -107.5 -34.0 -110.25 M-25.25 -124.0 Q-32.75 -114.5 -21.25 -113.5 -11.75 -123.5 -25.25 -124.0" fill="#ffffff" fill-rule="evenodd" stroke="none"/>
    <path d="M14.0 -110.25 Q19.3 -107.5 22.65 -102.6 29.7 -92.2 28.7 -80.3 27.1 -60.75 12.6 -47.7 9.7 -45.1 6.15 -43.7 -13.4 -36.05 -32.45 -45.4 -35.9 -47.05 -38.25 -50.2 -50.2 -66.1 -47.8 -86.5 -46.05 -101.25 -34.0 -110.25 -33.5 -107.5 -23.5 -108.5 L-11.0 -112.0 Q10.0 -105.0 14.0 -110.25 M53.75 129.5 L59.5 124.75 74.5 118.75 91.25 108.75 Q109.0 136.0 110.5 154.0 111.0 193.0 55.25 201.0 30.5 204.25 16.75 193.0 8.75 187.0 6.75 145.5 L28.0 141.5 53.75 129.5 M-91.25 108.0 L-83.5 113.0 Q-67.0 120.6 -53.5 133.0 L-28.5 143.5 -8.25 145.5 Q-7.8 163.45 -11.7 180.85 -14.45 193.2 -25.15 198.7 -31.65 202.0 -39.2 202.15 -54.75 203.4 -70.0 199.8 -84.8 196.2 -96.95 186.85 -113.4 174.3 -111.5 153.5 -112.25 149.25 -110.55 145.05 -102.65 125.65 -91.25 108.0" fill="#e58508" fill-rule="evenodd" stroke="none"/>
    <path d="M2.25 -123.75 Q11.0 -118.75 0.5 -113.0 -12.0 -122.25 2.25 -123.75 M-25.25 -124.0 Q-11.75 -123.5 -21.25 -113.5 -32.75 -114.5 -25.25 -124.0" fill="#000000" fill-rule="evenodd" stroke="none"/>
    <path d="M28.7 -78.0 L29.0 -78.0 Q29.05 -21.15 -10.25 -12.25 -47.75 -7.0 -48.25 -76.0 -37.75 -35.0 -5.5 -40.5 18.85 -42.2 28.7 -78.0 M91.75 -16.75 L114.75 14.5 115.25 14.75 116.0 13.65 116.55 14.5 110.0 24.0 109.75 25.5 109.0 25.75 107.75 29.0 102.5 37.25 102.35 37.8 Q102.4 33.4 97.75 22.25 L71.25 -46.5 91.75 -16.75 M-190.15 -85.9 Q-186.3 -44.1 -167.35 -7.05 L-166.75 -11.0 -165.0 -11.4 -164.5 -4.5 -143.0 -20.0 -142.7 -20.05 -142.2 -20.4 -142.65 -20.05 -141.3 -20.9 -141.5 -21.0 -140.5 -21.5 -140.55 -21.4 -124.6 -31.45 -116.25 -37.5 -91.5 -57.5 -92.75 -54.0 -93.5 -53.75 -95.75 -48.5 -102.5 -37.0 -113.0 -15.0 -114.0 -14.25 -121.0 1.5 -124.75 13.5 -125.5 14.0 -125.5 26.0 -124.0 38.25 -124.25 41.75 -121.75 51.75 -113.75 70.25 -106.5 79.75 -98.5 87.75 -88.75 94.0 Q-93.5 81.75 -90.5 80.0 L-89.5 78.5 Q-84.25 95.0 -72.0 108.0 L-40.5 128.75 Q9.25 146.75 62.0 112.75 L73.25 100.5 83.25 85.0 83.5 83.0 84.5 85.25 84.75 96.25 90.0 93.75 106.5 79.5 Q119.75 66.0 99.75 51.0 145.0 41.0 149.0 10.0 L149.75 11.75 149.75 19.0 Q150.25 20.5 152.25 18.5 L152.5 20.75 Q151.25 26.75 149.0 28.75 L146.75 39.75 144.5 42.75 142.75 49.5 Q141.25 56.25 123.5 63.0 L120.0 74.25 109.75 91.25 99.25 102.0 92.0 108.25 91.25 108.5 91.5 109.25 98.25 120.25 Q96.25 119.25 86.25 126.0 L62.25 151.25 31.75 165.0 Q10.5 165.5 9.75 171.0 14.25 203.0 55.75 196.5 104.25 187.25 109.75 164.0 L110.0 165.0 105.5 175.5 Q90.5 199.0 47.5 201.5 L33.25 200.75 Q22.75 199.0 17.0 193.75 9.0 188.75 6.75 145.5 L2.0 146.5 -8.0 145.5 -9.0 163.75 -10.25 172.75 Q-11.25 165.0 -40.0 163.0 L-67.75 148.5 Q-90.5 117.25 -98.5 120.0 L-91.25 108.0 Q-116.0 89.25 -121.75 72.0 L-125.75 63.25 -128.25 51.75 -129.25 38.75 -128.75 9.75 -126.25 -11.75 -122.5 -29.25 -165.25 1.0 -166.95 6.4 -168.5 6.5 -168.0 9.5 -172.5 13.25 Q-205.05 -2.8 -200.15 -48.2 -197.65 -71.05 -193.25 -94.0 L-190.15 -85.9 M-57.0 197.5 Q-15.25 203.75 -10.75 173.0 -10.25 202.75 -43.0 202.5 -107.5 198.0 -111.0 164.25 -106.5 187.5 -57.0 197.5" fill="#000000" fill-opacity="0.49803922" fill-rule="evenodd" stroke="none"/>
  </g>
</svg>
