<?xml version="1.0" encoding="UTF-8" standalone="no"?>
<svg xmlns:ffdec="https://www.free-decompiler.com/flash" xmlns:xlink="http://www.w3.org/1999/xlink" ffdec:objectType="shape" height="330.6px" width="348.75px" xmlns="http://www.w3.org/2000/svg">
  <g transform="matrix(1.0, 0.0, 0.0, 1.0, 191.25, 127.7)">
    <path d="M3.75 -114.75 Q-0.5 -114.0 -1.75 -111.5 L-1.5 -107.5 0.5 -104.5 4.25 -104.0 Q15.5 -109.25 3.75 -114.75 M-31.25 -101.75 Q-33.75 -110.15 -35.3 -118.65 -35.8 -121.4 -33.2 -123.15 -22.3 -130.5 -10.0 -126.0 L-7.5 -125.5 Q4.4 -130.15 16.05 -124.15 18.35 -122.9 19.5 -120.7 24.75 -110.95 17.25 -102.0 14.5 -96.25 -7.75 -103.0 L-20.25 -99.5 Q-31.0 -98.75 -31.25 -101.75 M-22.5 -114.5 Q-29.25 -105.25 -18.25 -104.25 -7.75 -113.75 -22.5 -114.5" fill="#ffffff" fill-rule="evenodd" stroke="none"/>
    <path d="M3.75 -114.75 Q15.5 -109.25 4.25 -104.0 L0.5 -104.5 -1.5 -107.5 -1.75 -111.5 Q-0.5 -114.0 3.75 -114.75 M-22.5 -114.5 Q-7.75 -113.75 -18.25 -104.25 -29.25 -105.25 -22.5 -114.5" fill="#000000" fill-rule="evenodd" stroke="none"/>
    <path d="M-31.25 -101.75 Q-31.0 -98.75 -20.25 -99.5 L-7.75 -103.0 Q14.5 -96.25 17.25 -102.0 22.7 -97.5 27.15 -91.9 30.85 -87.35 31.5 -81.55 34.25 -55.9 16.3 -38.35 13.1 -35.15 8.8 -33.55 -4.1 -28.6 -17.85 -31.15 -30.45 -33.7 -37.35 -44.2 -44.95 -55.95 -45.7 -70.7 -46.7 -90.25 -31.25 -101.75 M56.75 130.75 L64.25 125.0 66.0 123.25 81.25 116.5 91.75 109.5 Q105.75 128.5 110.5 154.0 111.0 193.0 55.25 201.0 30.5 204.25 16.75 193.0 9.5 189.75 7.0 148.75 L29.5 144.0 56.75 130.75 M-92.25 109.25 L-83.5 114.75 -83.25 115.25 -82.5 115.5 Q-77.0 118.1 -72.15 121.65 L-51.5 136.25 -27.0 146.5 -8.5 148.5 Q-9.3 167.05 -13.3 185.1 -15.4 194.4 -24.05 198.0 -41.15 204.95 -60.0 201.85 -77.75 198.9 -93.05 189.6 -113.3 177.1 -111.5 153.5 -112.25 149.8 -110.9 146.35 -103.4 126.95 -92.25 109.25" fill="#e58508" fill-rule="evenodd" stroke="none"/>
    <path d="M73.75 -41.5 L73.25 -42.25 73.75 -42.5 85.0 -25.75 116.5 14.5 Q119.0 14.75 118.25 16.75 L119.75 17.0 120.0 17.5 118.75 17.5 119.0 18.0 Q121.5 17.75 128.25 4.5 L134.75 -3.5 Q106.25 38.0 111.5 46.5 155.45 37.15 153.1 4.7 154.6 20.55 157.5 22.0 157.0 26.25 154.25 30.25 L153.0 40.0 150.0 44.75 149.0 50.5 Q142.75 63.75 124.5 61.0 119.25 89.25 91.75 109.25 L99.0 121.5 Q91.25 120.0 63.75 153.25 L34.0 167.25 Q11.5 168.25 10.5 173.5 14.0 201.75 55.5 196.5 104.5 187.5 109.5 163.5 111.0 165.25 105.25 176.25 L99.75 183.0 Q72.5 207.0 25.25 198.75 8.75 197.5 7.25 148.75 L3.75 149.5 -8.0 148.5 Q-6.0 207.5 -43.0 202.5 -79.25 205.0 -105.75 178.25 L-109.75 169.75 Q-112.25 164.75 -110.75 164.0 -97.0 197.0 -43.5 197.75 -8.0 195.5 -11.75 173.25 -13.25 168.25 -37.5 166.25 L-66.25 151.75 Q-91.5 119.0 -99.75 121.75 L-92.0 109.25 Q-114.75 92.5 -121.75 74.25 L-125.25 66.75 -127.75 56.75 -129.25 39.25 -129.5 25.75 -128.5 9.25 -125.0 -12.5 -159.25 17.5 Q-162.0 33.75 -166.75 36.0 -175.75 43.0 -186.5 20.25 L-191.25 10.75 Q-188.75 4.0 -191.25 -5.25 L-189.5 -14.25 -189.75 -17.0 -186.25 -24.75 -181.75 -29.75 -180.75 -30.0 -180.75 -31.0 Q-176.9 -33.85 -177.2 -34.9 -171.25 -19.25 -164.25 -26.0 L-161.0 -11.5 Q-160.0 -12.25 -161.0 -17.75 L-163.25 -29.75 -162.0 -31.0 -160.25 -23.25 -158.5 -6.25 -158.75 12.5 -148.25 4.5 -126.25 -15.5 -107.75 -33.25 -97.5 -42.0 -97.75 -42.5 -89.5 -50.75 -90.5 -47.0 -101.75 -25.25 -101.75 -24.0 -103.0 -22.75 -102.75 -22.0 -110.25 -6.75 -121.0 18.75 -124.0 29.5 -125.0 30.75 -123.5 45.0 -120.5 56.25 -117.0 64.25 Q-104.5 86.0 -92.25 93.25 L-88.25 95.5 Q-92.25 85.25 -88.25 82.5 L-79.75 99.75 -71.25 108.25 -70.5 111.75 -39.0 131.0 -23.25 135.0 -3.0 138.0 13.25 135.75 33.5 131.75 59.25 117.5 Q71.25 111.75 85.0 84.0 87.0 88.75 86.0 95.25 L88.5 94.5 95.25 89.5 106.0 78.75 112.25 69.0 106.0 45.75 98.75 24.25 82.75 -18.25 79.0 -26.25 73.75 -41.5 M-6.75 -30.5 Q25.75 -33.25 32.0 -71.0 33.25 -8.5 -6.5 0.0 -44.0 4.45 -45.45 -67.25 -43.8 -36.55 -6.75 -30.5" fill="#000000" fill-opacity="0.49803922" fill-rule="evenodd" stroke="none"/>
  </g>
</svg>
