<?xml version="1.0" encoding="UTF-8" standalone="no"?>
<svg xmlns:ffdec="https://www.free-decompiler.com/flash" xmlns:xlink="http://www.w3.org/1999/xlink" ffdec:objectType="shape" height="321.0px" width="346.85px" xmlns="http://www.w3.org/2000/svg">
  <g transform="matrix(1.0, 0.0, 0.0, 1.0, 183.6, 118.3)">
    <path d="M1.75 -101.5 Q1.5 -98.0 4.25 -95.0 L7.75 -94.5 Q18.25 -99.25 9.75 -105.0 L4.5 -104.25 1.75 -101.5 M-28.25 -92.75 Q-30.75 -101.15 -32.1 -109.7 -32.5 -112.15 -30.25 -113.6 -19.55 -120.5 -6.75 -117.25 L-6.75 -116.75 -4.0 -116.0 Q6.2 -119.75 17.2 -116.35 21.05 -115.15 23.65 -111.95 24.75 -110.65 24.5 -109.2 23.1 -101.15 20.75 -93.25 16.0 -86.5 -4.0 -93.75 -23.5 -86.75 -28.25 -92.75 M-14.75 -94.75 Q-4.25 -104.25 -19.0 -105.0 -26.25 -96.25 -14.75 -94.75" fill="#ffffff" fill-rule="evenodd" stroke="none"/>
    <path d="M1.75 -101.5 L4.5 -104.25 9.75 -105.0 Q18.25 -99.25 7.75 -94.5 L4.25 -95.0 Q1.5 -98.0 1.75 -101.5 M-14.75 -94.75 Q-26.25 -96.25 -19.0 -105.0 -4.25 -104.25 -14.75 -94.75" fill="#000000" fill-rule="evenodd" stroke="none"/>
    <path d="M-28.25 -92.75 Q-23.5 -86.75 -4.0 -93.75 16.0 -86.5 20.75 -93.25 25.5 -89.4 29.4 -84.85 32.3 -81.5 33.8 -77.25 36.4 -69.95 35.6 -62.0 33.65 -42.4 19.5 -28.45 15.8 -24.85 10.95 -23.15 -1.0 -18.75 -13.85 -21.3 -24.65 -23.55 -31.45 -31.9 -42.65 -45.75 -42.85 -64.25 -43.0 -82.4 -28.25 -92.75 M70.75 122.75 L74.25 121.0 75.25 120.75 82.25 117.25 92.25 110.25 Q110.5 139.75 110.5 154.0 111.0 193.0 55.25 201.0 30.5 204.25 16.75 193.0 9.5 187.75 7.25 152.0 L31.75 146.25 64.0 129.75 70.75 122.75 M-93.0 110.25 L-90.25 112.25 Q-68.5 124.4 -49.0 139.75 L-24.75 149.5 -8.5 151.25 Q-9.05 160.15 -10.1 168.95 L-11.25 179.3 Q-12.7 192.4 -23.85 198.5 -25.0 199.1 -26.25 199.35 -46.2 205.1 -66.75 200.65 -83.4 197.0 -96.9 186.8 -113.4 174.3 -111.5 153.5 -112.0 151.85 -111.5 150.15 -105.25 129.05 -93.0 110.25" fill="#e58508" fill-rule="evenodd" stroke="none"/>
    <path d="M75.0 -38.25 L75.75 -38.5 81.25 -30.25 101.5 -4.25 125.25 22.0 Q134.5 -2.75 146.75 -6.75 122.5 16.25 123.0 41.25 160.25 34.75 158.5 4.0 160.75 19.5 163.25 20.75 163.0 26.0 159.75 32.25 L159.5 40.5 156.0 47.0 155.5 50.75 Q136.75 71.75 126.75 52.5 120.0 93.75 92.25 110.0 L100.0 123.0 98.5 123.0 90.5 127.5 90.25 130.0 75.25 145.5 Q71.75 148.5 72.25 149.5 L65.75 154.75 37.0 169.0 Q12.5 171.0 11.25 176.0 13.25 200.5 56.0 196.5 104.25 187.5 109.5 163.5 111.0 165.25 105.25 176.25 L99.75 183.0 Q74.0 205.5 29.0 199.75 8.75 200.25 7.5 152.25 L-7.75 151.25 Q-5.75 205.0 -43.0 202.5 -79.25 205.0 -105.75 178.25 L-109.75 169.75 Q-112.25 164.75 -110.75 164.0 -96.75 197.0 -43.75 197.75 -20.25 195.25 -17.75 190.5 L-14.5 186.0 -11.75 177.0 Q-12.25 170.5 -34.5 169.5 L-64.5 155.0 Q-92.25 121.25 -100.5 123.5 L-100.75 122.75 -93.0 110.75 Q-93.0 109.25 -99.75 105.75 L-114.75 89.75 -125.75 67.75 Q-132.75 34.0 -126.75 4.75 L-127.25 4.0 -144.5 22.0 -145.25 22.5 -147.0 19.25 -106.25 -22.5 -106.5 -23.0 -95.75 -33.5 -96.0 -34.0 Q-92.0 -37.25 -89.25 -41.75 -133.75 46.75 -118.5 62.25 L-112.25 74.25 -96.75 91.25 -88.0 97.0 Q-90.25 89.5 -86.5 87.0 L-76.5 105.75 Q-68.25 112.75 -68.75 115.0 L-37.0 134.25 -19.25 138.0 -2.25 140.5 22.25 136.75 36.0 133.75 66.25 116.5 69.5 113.5 80.75 96.5 80.75 95.5 83.0 93.0 86.5 86.5 87.5 86.75 87.5 93.75 88.25 94.0 91.0 92.25 108.25 75.25 111.5 70.0 112.5 67.75 102.5 33.75 75.75 -37.5 75.0 -38.25 M0.0 12.75 Q-41.75 17.75 -42.5 -61.5 -37.5 -22.0 -1.5 -20.75 30.0 -24.5 35.5 -62.25 36.75 2.25 0.0 12.75 M-147.9 28.55 L-146.0 27.0 -145.5 28.75 -144.75 28.5 Q-145.0 50.75 -164.5 60.75 -186.25 46.15 -183.25 20.55 -182.5 14.25 -180.45 8.5 L-179.5 10.85 Q-180.85 12.75 -180.75 15.25 -175.35 24.65 -164.75 25.75 -161.25 26.4 -157.75 25.75 L-158.75 27.25 -158.25 28.25 -154.5 28.1 -153.5 27.5 -149.5 29.25 -147.9 28.55" fill="#000000" fill-opacity="0.49803922" fill-rule="evenodd" stroke="none"/>
  </g>
</svg>
