<?xml version="1.0" encoding="UTF-8" standalone="no"?>
<svg xmlns:ffdec="https://www.free-decompiler.com/flash" xmlns:xlink="http://www.w3.org/1999/xlink" ffdec:objectType="shape" height="318.55px" width="348.15px" xmlns="http://www.w3.org/2000/svg">
  <g transform="matrix(1.0, 0.0, 0.0, 1.0, 185.5, 146.8)">
    <path d="M20.75 -144.85 Q36.5 -138.25 48.35 -125.85 70.35 -102.85 87.85 -76.1 L94.3 -65.7 Q99.1 -57.6 105.5 -51.0 L124.75 -24.0 145.75 10.75 157.0 33.5 Q159.25 38.75 160.7 44.2 L162.05 50.0 Q162.75 53.25 162.6 56.5 162.05 69.0 160.25 81.25 L152.25 114.75 139.25 161.5 137.5 166.0 Q136.6 168.15 135.35 170.15 134.65 171.25 133.35 171.75 132.2 171.9 131.55 170.95 130.55 169.45 130.15 167.6 L129.0 161.75 130.0 125.75 Q132.55 90.65 136.25 55.5 L134.45 53.05 132.25 50.25 131.25 49.25 Q130.05 65.5 124.35 80.7 115.95 103.1 95.75 116.0 L91.1 119.8 Q88.75 123.45 84.55 127.4 75.9 135.4 61.3 142.7 47.1 149.8 31.55 154.05 15.35 158.5 2.55 158.5 -31.05 158.5 -56.2 143.3 -66.15 137.25 -72.1 130.25 L-73.75 128.15 -76.6 127.5 -77.35 127.55 Q-82.95 125.2 -87.85 121.6 L-93.75 117.5 Q-103.55 111.2 -111.05 102.25 -123.7 87.1 -126.7 67.45 -130.55 42.25 -124.25 17.5 L-154.0 37.25 -161.75 82.0 -169.25 115.0 Q-172.25 125.35 -174.9 135.85 -176.15 140.9 -179.2 144.7 L-179.5 144.75 -181.45 144.55 -183.25 143.75 -185.5 118.5 -184.5 50.5 -180.5 34.25 Q-182.2 30.6 -180.45 26.75 -176.05 17.1 -169.25 9.0 L-150.0 -11.25 -116.5 -41.5 -90.75 -61.25 Q-85.2 -65.55 -80.55 -70.6 -73.0 -78.9 -65.75 -87.65 L-55.7 -99.5 -52.5 -103.2 Q-38.7 -118.9 -21.9 -131.75 -10.8 -140.3 2.35 -145.15 11.65 -148.55 20.75 -144.85" fill="#2e47aa" fill-rule="evenodd" stroke="none"/>
  </g>
</svg>
