<?xml version="1.0" encoding="UTF-8" standalone="no"?>
<svg xmlns:ffdec="https://www.free-decompiler.com/flash" xmlns:xlink="http://www.w3.org/1999/xlink" ffdec:objectType="shape" height="358.05px" width="360.45px" xmlns="http://www.w3.org/2000/svg">
  <g transform="matrix(1.0, 0.0, 0.0, 1.0, 195.5, 145.75)">
    <path d="M27.75 -145.75 Q34.15 -145.9 39.5 -142.3 54.5 -132.3 65.3 -117.65 L71.25 -109.7 74.4 -105.35 Q106.1 -59.45 130.75 -9.5 L149.25 32.0 Q155.8 50.35 164.25 67.75 164.1 71.25 164.2 74.75 L164.5 76.75 Q165.15 79.7 164.9 82.65 164.85 83.5 164.4 84.1 161.8 87.25 159.85 90.7 153.6 102.1 148.25 114.0 L124.75 152.75 92.0 203.0 89.95 205.8 87.05 209.6 Q84.75 212.4 81.45 212.3 L81.05 211.75 Q80.15 209.7 80.35 207.15 80.9 200.1 83.75 193.5 L95.5 163.75 101.75 149.0 102.25 148.75 Q102.15 147.45 102.6 146.65 L106.75 138.5 106.5 137.75 136.5 74.75 131.5 66.0 131.0 65.75 Q130.0 88.0 96.0 117.0 L89.5 122.0 88.25 122.5 87.1 124.15 85.75 124.7 79.9 127.3 76.75 130.95 Q69.95 138.15 58.3 144.4 46.8 150.6 33.75 154.25 20.0 158.1 8.05 158.1 -18.4 158.1 -50.0 142.7 -62.35 136.7 -70.65 130.5 L-73.3 128.4 -73.45 128.4 Q-83.9 124.15 -92.8 117.3 L-93.25 117.0 Q-100.35 113.4 -106.15 108.05 L-110.45 103.7 -112.4 101.25 Q-124.35 84.25 -124.9 63.05 -125.65 34.7 -118.0 7.25 L-162.25 32.75 -162.25 56.25 -164.0 97.75 -167.25 136.5 -171.5 167.0 -173.75 177.5 Q-175.9 178.8 -178.3 178.05 -178.95 177.95 -179.15 177.55 -181.3 173.45 -182.25 168.0 L-186.0 143.0 -195.5 61.0 -193.75 34.0 -193.9 33.7 Q-194.15 29.35 -192.6 25.75 -189.65 19.1 -185.0 13.25 L-157.75 -10.25 -118.0 -39.25 Q-104.1 -48.1 -90.25 -57.0 -82.25 -62.4 -75.45 -69.05 -67.15 -77.0 -59.7 -85.85 -43.85 -104.65 -25.05 -120.4 L-21.8 -123.15 Q-7.3 -134.85 10.05 -141.55 18.6 -144.8 27.75 -145.75" fill="#2e47aa" fill-rule="evenodd" stroke="none"/>
  </g>
</svg>
