<?xml version="1.0" encoding="UTF-8" standalone="no"?>
<svg xmlns:ffdec="https://www.free-decompiler.com/flash" xmlns:xlink="http://www.w3.org/1999/xlink" ffdec:objectType="shape" height="353.5px" width="374.75px" xmlns="http://www.w3.org/2000/svg">
  <g transform="matrix(1.0, 0.0, 0.0, 1.0, 204.25, 146.1)">
    <path d="M40.25 -146.1 L43.95 -145.5 Q50.1 -143.5 54.85 -139.25 L61.85 -132.95 Q68.75 -126.55 74.3 -118.85 84.85 -104.2 94.15 -88.7 103.2 -73.55 111.4 -57.85 119.35 -42.75 126.75 -27.45 L135.75 -8.5 152.0 31.75 Q160.65 53.65 167.25 76.1 L169.0 83.0 170.5 84.75 169.5 86.75 170.25 93.5 Q162.95 98.25 157.8 105.1 L149.5 116.0 110.25 152.0 109.5 152.5 74.75 182.5 51.25 201.25 Q46.05 205.5 39.9 207.25 37.65 207.8 36.3 206.05 34.65 203.95 36.3 201.75 L42.0 193.75 58.5 173.25 90.0 136.75 139.5 82.5 132.25 68.25 Q130.4 80.7 122.45 90.55 L117.35 96.75 Q107.85 108.1 96.4 117.65 94.9 118.85 93.0 119.45 86.95 121.55 81.25 124.4 L76.25 126.75 76.75 126.55 Q68.9 133.1 56.4 142.65 46.25 148.05 31.55 152.3 12.2 157.85 -5.1 157.85 -28.6 157.85 -52.6 142.95 -62.0 137.1 -68.1 130.85 L-68.95 129.95 Q-86.35 122.35 -100.5 109.65 -110.95 100.3 -116.75 87.85 -121.5 77.65 -122.85 66.5 -125.95 41.55 -117.95 17.7 L-114.65 7.85 Q-112.1 0.4 -109.15 -6.75 L-168.75 18.0 -164.75 52.0 -161.0 93.5 -160.0 131.5 -160.25 169.0 -160.95 179.0 -160.95 180.05 Q-160.85 180.75 -161.25 181.25 L-161.45 181.65 -162.95 182.0 -164.75 182.3 -166.9 182.2 -168.0 182.0 -172.0 170.25 -179.5 141.25 -201.75 43.0 -202.75 15.75 -204.25 9.25 -201.35 5.35 -200.0 3.0 Q-192.25 -0.95 -185.05 -6.15 L-179.05 -10.1 Q-168.8 -16.1 -158.75 -22.5 L-119.75 -43.25 -81.5 -61.25 -70.5 -64.75 Q-55.45 -82.45 -39.1 -99.2 -28.3 -110.3 -16.15 -120.05 -5.55 -128.5 6.0 -135.4 L11.8 -138.8 Q25.1 -146.3 40.25 -146.1" fill="#2e47aa" fill-rule="evenodd" stroke="none"/>
  </g>
</svg>
