<?xml version="1.0" encoding="UTF-8" standalone="no"?>
<svg xmlns:ffdec="https://www.free-decompiler.com/flash" xmlns:xlink="http://www.w3.org/1999/xlink" ffdec:objectType="shape" height="307.3px" width="384.15px" xmlns="http://www.w3.org/2000/svg">
  <g transform="matrix(1.0, 0.0, 0.0, 1.0, 207.0, 146.65)">
    <path d="M39.35 -146.15 L46.0 -146.4 Q52.0 -146.05 57.2 -142.9 65.45 -137.85 72.2 -131.15 81.35 -122.0 88.55 -111.15 98.9 -95.6 107.8 -79.3 114.9 -66.2 121.2 -52.95 122.3 -50.6 123.75 -48.4 L125.75 -45.5 141.75 -14.5 158.0 22.5 169.5 53.75 Q171.75 59.4 173.65 65.2 L174.65 68.8 175.0 71.0 175.5 71.0 175.25 72.75 175.75 73.25 175.5 74.5 176.0 74.5 175.75 76.25 176.25 76.25 177.15 86.45 Q177.25 87.7 176.4 88.65 L168.5 97.25 146.0 112.75 103.75 131.0 Q92.5 135.7 80.8 139.2 L78.55 139.7 76.6 140.2 68.85 145.05 Q41.65 160.65 14.85 160.65 -16.9 160.65 -44.9 145.5 -56.25 139.35 -63.2 132.5 L-64.7 130.95 -68.45 129.65 Q-73.4 127.85 -78.05 125.35 -92.15 117.85 -102.5 105.8 -114.55 91.85 -119.9 74.1 L-120.8 70.7 -121.55 67.4 Q-126.35 42.2 -117.3 18.2 L-112.95 7.15 Q-107.2 -6.7 -99.25 -19.25 L-169.75 -2.5 -150.5 57.25 -139.25 102.0 -132.75 134.5 -131.25 149.0 Q-132.6 150.15 -134.4 150.4 -136.4 150.8 -137.85 149.75 L-139.3 148.25 -142.2 143.2 -145.25 137.5 -156.75 113.5 -173.75 75.0 -194.75 24.5 Q-198.05 16.8 -200.05 8.6 L-202.1 0.55 -203.0 0.25 Q-205.1 -5.0 -206.05 -10.6 L-207.0 -18.0 -204.25 -20.25 Q-204.35 -24.1 -200.75 -25.9 -198.05 -27.15 -195.2 -27.65 -192.4 -28.1 -189.65 -29.1 L-158.0 -41.75 -104.5 -59.5 -73.0 -67.75 -61.0 -69.5 Q-45.5 -86.7 -28.8 -102.5 -20.15 -110.7 -11.05 -118.05 -1.9 -125.4 7.9 -132.15 22.35 -141.95 39.35 -146.15 M140.5 69.0 L135.25 60.0 130.25 74.75 130.75 74.75 140.5 69.0" fill="#2e47aa" fill-rule="evenodd" stroke="none"/>
  </g>
</svg>
