<?xml version="1.0" encoding="UTF-8" standalone="no"?>
<svg xmlns:ffdec="https://www.free-decompiler.com/flash" xmlns:xlink="http://www.w3.org/1999/xlink" ffdec:objectType="shape" height="311.1px" width="383.25px" xmlns="http://www.w3.org/2000/svg">
  <g transform="matrix(1.0, 0.0, 0.0, 1.0, 206.5, 147.5)">
    <path d="M37.6 -146.85 Q42.15 -148.1 46.75 -146.85 56.55 -144.05 64.15 -137.2 77.7 -125.0 87.65 -109.65 L97.8 -93.6 Q106.75 -78.85 114.5 -63.3 119.8 -52.75 125.5 -42.5 L139.25 -16.0 155.75 21.25 166.25 49.25 Q170.45 59.35 173.55 69.75 L173.5 70.0 174.0 70.25 174.5 72.25 174.25 73.0 174.75 73.0 174.5 74.75 175.0 75.5 174.75 76.5 175.25 77.25 175.0 78.25 175.5 78.75 176.75 87.75 175.7 88.95 168.85 95.4 167.5 97.0 167.0 97.0 Q152.85 108.3 137.0 116.75 L104.0 132.0 78.3 142.1 Q73.45 146.1 66.9 149.9 43.45 163.6 19.55 163.6 -11.2 163.6 -42.35 146.5 -54.15 140.05 -61.9 133.15 L-61.15 133.3 -64.05 132.65 Q-66.9 130.75 -70.2 129.6 -74.1 128.05 -77.8 126.05 -96.3 116.35 -108.9 99.9 -113.95 93.25 -117.3 85.45 -125.0 67.6 -123.15 48.35 -121.7 32.85 -116.95 17.95 -112.35 3.5 -105.05 -9.9 L-102.25 -15.25 -168.5 4.25 -165.0 15.0 -146.25 67.0 -133.75 111.0 -126.5 141.75 Q-125.15 148.65 -124.7 155.6 -124.65 156.2 -125.0 156.75 -126.0 158.2 -127.75 158.05 L-130.75 158.25 -138.75 145.5 -151.25 121.75 -172.5 78.25 -192.5 35.0 Q-199.85 17.95 -205.75 0.45 -207.15 -3.65 -206.0 -7.65 -205.55 -9.1 -204.25 -10.25 -204.25 -13.0 -202.1 -14.75 -201.3 -15.4 -200.3 -15.7 -198.1 -16.3 -195.95 -17.25 -193.15 -18.4 -190.5 -20.0 -168.35 -29.85 -146.25 -39.75 L-110.5 -53.5 -75.5 -65.25 -64.5 -67.25 Q-52.2 -81.15 -39.15 -94.3 -27.85 -105.75 -15.6 -116.1 -6.1 -124.2 4.35 -131.3 20.0 -141.6 37.6 -146.85 M37.25 -69.5 L37.05 -69.5 37.0 -69.0 37.25 -69.5 M132.75 66.25 L128.0 79.25 141.0 71.75 134.25 60.0 132.75 66.25" fill="#2e47aa" fill-rule="evenodd" stroke="none"/>
    <path d="M37.25 -69.5 L37.0 -69.0 37.05 -69.5 37.25 -69.5" fill="#ffffff" fill-rule="evenodd" stroke="none"/>
  </g>
</svg>
