<?xml version="1.0" encoding="UTF-8" standalone="no"?>
<svg xmlns:ffdec="https://www.free-decompiler.com/flash" xmlns:xlink="http://www.w3.org/1999/xlink" ffdec:objectType="shape" height="315.2px" width="382.0px" xmlns="http://www.w3.org/2000/svg">
  <g transform="matrix(1.0, 0.0, 0.0, 1.0, 206.0, 147.95)">
    <path d="M8.45 -136.0 Q12.7 -138.7 17.25 -140.95 22.65 -143.75 28.1 -146.0 36.25 -149.3 44.6 -147.0 55.2 -143.85 63.1 -136.25 77.8 -122.15 88.8 -105.05 106.45 -77.55 120.5 -48.25 L138.5 -14.25 155.5 23.75 Q159.6 34.15 163.3 44.5 L166.05 52.55 175.25 80.65 Q176.45 84.25 175.75 88.5 L148.7 108.7 145.9 110.6 136.75 115.75 93.75 136.25 93.25 137.0 91.0 137.5 62.25 149.5 Q53.9 154.95 47.45 157.15 41.0 159.35 34.0 160.75 L33.75 160.75 Q23.1 164.85 12.0 167.25 L11.2 166.1 Q11.9 163.25 11.9 160.0 L11.9 159.8 8.5 159.8 Q-16.1 159.8 -45.0 145.9 -57.2 140.0 -64.8 133.8 L-67.65 131.35 -66.85 131.6 Q-76.4 128.1 -84.8 122.55 L-93.25 117.0 Q-99.85 112.65 -105.3 107.0 -120.1 91.65 -123.05 70.6 -124.2 62.5 -123.5 54.2 -120.65 20.05 -105.25 -11.0 L-167.0 10.75 -143.0 71.0 -127.25 119.75 -119.75 147.0 -119.5 149.3 Q-118.2 155.2 -118.35 161.15 -118.45 163.8 -121.65 164.2 L-123.25 164.5 -132.0 151.5 -146.5 126.25 -185.75 52.75 Q-190.25 43.85 -194.0 34.7 -198.25 24.5 -201.7 14.0 L-206.0 0.75 -203.75 -1.0 -203.25 -4.25 Q-200.15 -5.5 -197.15 -7.05 L-194.5 -8.75 -165.75 -24.5 -129.5 -41.5 -106.0 -52.0 -80.25 -62.0 -67.25 -65.75 -54.95 -79.6 Q-35.8 -100.9 -14.05 -119.4 -4.75 -127.35 5.4 -134.05 L8.45 -136.0 M125.75 82.5 L141.25 73.0 133.5 59.5 125.75 82.5" fill="#2e47aa" fill-rule="evenodd" stroke="none"/>
  </g>
</svg>
