<?xml version="1.0" encoding="UTF-8" standalone="no"?>
<svg xmlns:ffdec="https://www.free-decompiler.com/flash" xmlns:xlink="http://www.w3.org/1999/xlink" ffdec:objectType="shape" height="317.25px" width="379.8px" xmlns="http://www.w3.org/2000/svg">
  <g transform="matrix(1.0, 0.0, 0.0, 1.0, 204.35, 148.5)">
    <path d="M46.85 -146.4 Q54.4 -143.05 60.5 -137.25 68.7 -129.6 75.4 -120.65 100.05 -87.55 118.2 -50.65 L119.75 -47.5 136.25 -16.75 154.75 24.75 Q163.6 46.35 171.65 68.3 L172.4 70.8 174.7 80.7 175.25 82.0 175.0 83.5 Q175.55 84.3 175.45 85.2 175.05 88.9 171.45 90.7 L169.15 91.9 166.5 93.25 146.0 109.0 103.5 130.75 60.25 150.5 50.0 156.75 39.25 159.25 Q27.35 164.55 14.75 167.75 L13.85 166.55 Q15.2 164.6 15.3 162.1 -11.65 161.75 -38.0 150.4 -50.05 145.25 -57.2 139.4 -60.9 136.4 -62.75 133.6 L-61.85 133.8 -64.15 133.45 -64.25 133.45 -65.0 132.75 Q-80.3 127.15 -93.55 117.55 L-93.75 117.5 Q-109.6 106.4 -117.65 88.8 -125.85 70.95 -124.1 51.2 -121.75 24.15 -110.6 -0.7 L-108.25 -6.0 -165.0 17.25 -160.25 26.5 -136.75 79.5 -122.25 119.0 -111.75 152.75 -108.5 166.0 Q-110.4 167.0 -112.35 167.8 L-115.0 168.75 -123.25 157.5 -139.75 131.75 -191.25 45.0 -200.0 21.5 -203.25 15.85 Q-205.35 11.85 -203.35 8.2 L-202.95 7.85 -202.5 7.5 -202.25 5.25 -191.95 -1.7 -186.3 -5.3 -185.5 -5.75 -185.0 -6.0 -161.75 -20.25 -116.0 -44.25 -79.5 -61.0 -69.75 -64.0 -67.7 -66.45 Q-40.2 -100.1 -6.45 -127.45 9.6 -140.5 28.9 -147.05 36.9 -149.8 44.7 -147.25 L46.85 -146.4 M123.75 84.5 L141.5 73.0 133.1 58.3 Q130.5 68.0 126.75 77.3 L123.75 84.5" fill="#2e47aa" fill-rule="evenodd" stroke="none"/>
  </g>
</svg>
