<?xml version="1.0" encoding="UTF-8" standalone="no"?>
<svg xmlns:ffdec="https://www.free-decompiler.com/flash" xmlns:xlink="http://www.w3.org/1999/xlink" ffdec:objectType="shape" height="391.1px" width="221.45px" xmlns="http://www.w3.org/2000/svg">
  <g transform="matrix(1.0, 0.0, 0.0, 1.0, 110.55, 141.5)">
    <path d="M-88.6 -67.8 Q-88.6 -79.6 -79.5 -87.9 -78.8 -88.6 -78.2 -89.45 -72.15 -97.75 -62.75 -102.65 L-54.0 -107.3 Q-48.35 -110.4 -44.8 -116.1 -42.6 -119.65 -40.0 -123.0 -27.05 -139.75 -6.4 -141.4 -1.2 -141.95 3.25 -139.75 17.9 -132.45 26.45 -118.05 L36.4 -101.2 60.0 -53.4 71.8 -28.0 94.4 12.0 106.2 43.2 Q114.1 81.75 107.45 120.3 106.2 127.4 103.0 134.0 L110.6 158.6 110.8 189.0 106.0 218.8 Q103.4 234.0 96.85 247.55 95.1 251.1 92.3 248.35 84.0 240.1 79.2 229.0 L65.8 202.4 59.2 187.2 58.0 184.0 Q43.65 188.25 29.1 184.6 10.5 180.1 -6.8 171.9 -15.5 167.8 -23.4 162.0 -19.85 148.65 -24.05 134.9 L-27.45 123.3 Q-34.05 99.3 -42.6 75.8 L-45.4 43.6 Q-44.2 16.65 -43.6 -10.2 L-36.6 -11.6 -34.6 -14.6 Q-30.0 -24.8 -35.8 -46.4 -33.05 -46.55 -31.4 -48.75 -29.6 -51.0 -28.0 -53.4 L-43.4 -79.0 Q-49.2 -87.9 -52.55 -98.15 L-53.0 -99.2 Q-59.55 -95.35 -61.6 -87.6 -64.0 -85.8 -64.2 -83.2 L-64.2 -80.2 -64.55 -80.1 Q-77.25 -75.55 -88.6 -67.8" fill="#2e47aa" fill-rule="evenodd" stroke="none"/>
    <path d="M59.2 187.2 Q51.4 227.8 44.2 231.6 L43.8 232.2 Q16.0 258.6 -27.8 234.6 -49.6 226.0 -55.6 201.0 -54.6 185.4 -33.8 160.0 L-24.8 162.4 -23.4 162.0 Q-15.5 167.8 -6.8 171.9 10.5 180.1 29.1 184.6 43.65 188.25 58.0 184.0 L59.2 187.2 M-87.4 121.6 L-89.2 120.8 Q-101.4 116.8 -109.0 86.2 -114.6 60.8 -100.0 41.0 L-103.6 65.6 -99.4 95.0 Q-96.8 109.9 -87.4 121.6 M-87.2 -8.4 Q-101.1 -13.1 -104.85 -27.25 -105.9 -31.35 -105.65 -35.5 -104.55 -55.3 -88.6 -67.8 -77.25 -75.55 -64.55 -80.1 L-64.2 -80.2 -62.2 -77.4 Q-61.6 -71.2 -56.4 -68.6 L-56.6 -66.0 -55.2 -61.0 Q-52.6 -49.6 -35.8 -46.4 -30.0 -24.8 -34.6 -14.6 L-36.6 -11.6 -43.6 -10.2 Q-72.2 -3.6 -87.2 -8.4" fill="#e58508" fill-rule="evenodd" stroke="none"/>
    <path d="M-33.8 160.0 L-53.4 154.6 Q-86.8 133.4 -87.4 121.6 -96.8 109.9 -99.4 95.0 L-103.6 65.6 -100.0 41.0 -97.0 23.6 -87.2 -8.4 Q-72.2 -3.6 -43.6 -10.2 -44.2 16.65 -45.4 43.6 L-42.6 75.8 Q-34.05 99.3 -27.45 123.3 L-24.05 134.9 Q-19.85 148.65 -23.4 162.0 L-24.8 162.4 -33.8 160.0 M-61.6 -87.6 Q-59.55 -95.35 -53.0 -99.2 L-52.55 -98.15 Q-49.2 -87.9 -43.4 -79.0 L-28.0 -53.4 Q-29.6 -51.0 -31.4 -48.75 -33.05 -46.55 -35.8 -46.4 -52.6 -49.6 -55.2 -61.0 -46.8 -55.2 -49.8 -67.0 -53.2 -71.2 -54.4 -70.2 L-56.6 -66.0 -56.4 -68.6 Q-61.6 -71.2 -62.2 -77.4 -59.0 -75.2 -58.4 -81.4 -58.6 -87.2 -59.6 -87.8 L-61.6 -87.6" fill="#ffffff" fill-rule="evenodd" stroke="none"/>
    <path d="M-64.2 -80.2 L-64.2 -83.2 Q-64.0 -85.8 -61.6 -87.6 L-59.6 -87.8 Q-58.6 -87.2 -58.4 -81.4 -59.0 -75.2 -62.2 -77.4 L-64.2 -80.2 M-56.6 -66.0 L-54.4 -70.2 Q-53.2 -71.2 -49.8 -67.0 -46.8 -55.2 -55.2 -61.0 L-56.6 -66.0" fill="#31333d" fill-rule="evenodd" stroke="none"/>
    <path d="M-87.0 -7.8 L-89.25 -9.0 Q-107.4 -19.45 -105.4 -40.4 -103.85 -23.3 -90.95 -12.1 -89.6 -10.95 -88.0 -10.6 -61.1 -5.5 -34.6 -14.4 -61.6 15.6 -80.9 51.0 -82.45 53.85 -84.8 56.05 -92.85 63.4 -96.85 73.35 -97.75 75.5 -97.65 77.7 -97.1 92.45 -89.0 105.05 -84.15 112.5 -77.35 118.4 -55.35 137.5 -27.2 145.8 L-23.0 144.8 -27.6 124.0 Q-1.0 151.9 37.2 158.2 L14.75 68.65 Q29.75 111.15 52.8 149.8 L60.8 154.0 51.7 153.55 Q52.0 159.85 53.25 166.0 53.9 169.15 55.35 171.95 74.05 208.3 91.9 245.0 L94.0 243.6 95.0 244.8 96.2 242.6 97.4 243.6 Q107.85 203.1 110.6 161.2 112.15 192.8 105.0 223.45 103.8 228.55 103.05 233.7 101.7 243.3 95.2 249.6 90.7 246.55 87.8 242.0 71.0 215.9 59.4 187.2 59.2 199.1 55.5 210.25 51.3 223.0 42.4 233.05 31.65 245.3 15.15 245.75 0.7 246.1 -13.3 241.85 -44.4 232.6 -55.8 203.2 -53.6 204.9 -52.05 207.3 -37.95 229.2 -12.45 236.8 1.4 240.8 15.75 240.6 35.1 240.35 46.15 224.75 47.3 223.15 47.65 221.3 49.55 211.3 40.4 205.2 22.1 202.65 4.25 197.7 -9.7 193.65 -21.8 186.0 L-48.6 181.6 -33.6 159.8 Q-43.7 156.65 -53.35 152.45 -75.3 142.8 -87.0 121.8 L-92.1 118.65 Q-95.95 116.2 -98.35 112.55 -114.1 88.95 -109.1 60.75 L-101.8 53.2 Q-98.2 21.9 -87.0 -7.8 M-87.2 -70.4 L-86.4 -69.0 -88.2 -67.8 -88.4 -69.6 -87.2 -70.4 M-87.8 -74.4 L-87.2 -74.4 -87.5 -73.2 -87.8 -74.4 M-75.8 -87.4 L-65.5 -86.85 Q-65.9 -83.85 -67.65 -82.15 -72.55 -77.2 -78.8 -73.6 -79.95 -75.8 -80.1 -78.4 -80.45 -83.6 -78.6 -88.6 L-77.1 -88.9 -77.2 -88.6 -75.8 -87.4 M104.4 39.6 Q105.3 41.4 105.7 43.3 107.8 54.2 109.4 65.2 L104.4 39.6 M95.4 123.8 L96.55 121.7 Q108.65 95.15 109.2 65.8 114.6 100.55 103.0 134.0 L97.0 131.2 96.6 133.2 95.4 123.8 M109.8 151.8 L110.4 158.0 108.2 148.8 109.8 151.8" fill="#000000" fill-opacity="0.49803922" fill-rule="evenodd" stroke="none"/>
  </g>
</svg>
