<?xml version="1.0" encoding="UTF-8" standalone="no"?>
<svg xmlns:ffdec="https://www.free-decompiler.com/flash" xmlns:xlink="http://www.w3.org/1999/xlink" ffdec:objectType="shape" height="164.0px" width="176.9px" xmlns="http://www.w3.org/2000/svg">
  <g transform="matrix(1.0, 0.0, 0.0, 1.0, 84.65, -1.25)">
    <path d="M42.4 7.3 L44.75 1.5 52.75 21.25 55.75 33.25 68.0 59.25 Q87.75 75.75 92.25 94.75 L91.75 112.0 85.75 123.0 68.25 144.0 39.25 159.0 8.25 165.25 -4.75 163.75 Q-13.5 162.6 -21.8 160.05 -36.75 155.35 -49.95 147.15 -63.4 138.75 -75.5 128.25 L-78.5 124.75 -84.5 110.0 Q-85.25 108.75 -81.75 104.5 L-81.25 100.0 Q-49.0 65.75 -29.0 6.5 L-26.75 1.25 -26.0 2.0 Q-20.1 18.55 -4.1 25.8 -0.65 27.35 3.2 27.85 20.95 29.45 35.0 18.8 36.55 17.65 37.7 16.1 40.6 12.15 42.4 7.3" fill="#ffffff" fill-rule="evenodd" stroke="none"/>
  </g>
</svg>
