<?xml version="1.0" encoding="UTF-8" standalone="no"?>
<svg xmlns:ffdec="https://www.free-decompiler.com/flash" xmlns:xlink="http://www.w3.org/1999/xlink" ffdec:objectType="shape" height="165.0px" width="176.8px" xmlns="http://www.w3.org/2000/svg">
  <g transform="matrix(1.0, 0.0, 0.0, 1.0, 81.25, -0.5)">
    <path d="M51.0 10.25 L54.0 4.25 Q58.85 20.1 64.8 35.6 69.8 48.6 76.6 60.8 78.05 63.4 80.2 65.6 90.4 76.15 94.7 90.1 96.2 94.85 95.0 99.75 92.1 111.25 88.25 122.5 L83.85 128.35 Q78.0 135.25 71.2 141.0 57.75 152.4 41.25 159.25 L12.0 165.5 -4.75 163.5 -13.6 161.95 Q-24.5 159.1 -34.05 153.65 -53.9 142.25 -72.5 128.75 L-76.0 125.0 -81.0 111.5 -81.25 109.0 Q-78.25 106.5 -77.5 100.0 -44.0 68.0 -20.75 7.0 L-17.5 0.5 Q-4.0 30.25 18.5 28.5 L21.25 28.5 Q46.0 25.25 50.75 10.75 L50.75 10.5 51.0 10.25" fill="#ffffff" fill-rule="evenodd" stroke="none"/>
  </g>
</svg>
