<?xml version="1.0" encoding="UTF-8" standalone="no"?>
<svg xmlns:ffdec="https://www.free-decompiler.com/flash" xmlns:xlink="http://www.w3.org/1999/xlink" ffdec:objectType="shape" height="166.25px" width="177.75px" xmlns="http://www.w3.org/2000/svg">
  <g transform="matrix(1.0, 0.0, 0.0, 1.0, 78.1, 1.25)">
    <path d="M93.25 76.5 L97.25 85.75 Q104.25 99.75 90.75 121.75 L88.95 124.2 88.75 124.5 83.65 130.95 72.75 144.25 45.75 158.75 17.5 164.75 12.5 165.0 8.25 164.75 -4.75 163.25 Q-11.25 162.35 -17.35 160.3 -31.9 155.5 -44.75 147.5 -57.5 139.6 -69.0 129.75 L-73.25 125.0 -74.5 122.0 -78.0 110.75 Q-78.75 109.0 -73.5 100.0 -36.25 65.75 -12.25 6.5 L-8.0 -1.25 Q5.0 29.75 28.75 28.25 L31.25 28.25 Q44.75 31.75 60.0 11.25 L62.5 6.5 68.0 22.0 70.0 33.75 79.5 59.0 Q80.5 64.0 93.25 76.5" fill="#ffffff" fill-rule="evenodd" stroke="none"/>
  </g>
</svg>
