<?xml version="1.0" encoding="UTF-8" standalone="no"?>
<svg xmlns:ffdec="https://www.free-decompiler.com/flash" xmlns:xlink="http://www.w3.org/1999/xlink" ffdec:objectType="shape" height="168.0px" width="176.2px" xmlns="http://www.w3.org/2000/svg">
  <g transform="matrix(1.0, 0.0, 0.0, 1.0, 74.2, 3.0)">
    <path d="M93.1 67.75 Q101.2 78.2 102.0 91.25 L84.25 101.75 40.25 129.25 14.75 146.5 3.5 155.25 6.75 161.25 21.5 158.25 54.0 148.75 77.75 140.5 76.5 142.75 49.25 158.0 17.5 165.0 -4.65 162.1 Q-10.15 161.2 -15.55 159.7 -25.3 157.05 -34.65 152.65 L-38.65 150.5 Q-49.6 143.8 -59.7 135.6 -62.5 133.3 -64.35 130.45 -69.75 122.0 -73.45 112.7 -74.25 110.75 -74.2 108.55 L-73.9 108.45 Q-72.6 107.55 -71.95 106.0 L-69.75 100.0 Q-65.15 97.1 -61.15 93.5 -55.5 88.35 -50.5 82.5 L-34.0 59.75 Q-29.65 52.6 -25.8 45.2 L-13.2 21.05 Q-6.75 8.85 0.25 -3.0 3.75 6.95 10.85 14.85 16.0 20.65 22.8 24.2 28.65 27.3 35.3 27.35 L40.55 27.4 Q49.45 27.5 56.85 22.9 66.1 17.2 70.25 7.25 74.4 19.85 76.25 33.0 L84.75 57.75 93.1 67.75" fill="#ffffff" fill-rule="evenodd" stroke="none"/>
  </g>
</svg>
