<?xml version="1.0" encoding="UTF-8" standalone="no"?>
<svg xmlns:ffdec="https://www.free-decompiler.com/flash" xmlns:xlink="http://www.w3.org/1999/xlink" ffdec:objectType="shape" height="167.5px" width="177.25px" xmlns="http://www.w3.org/2000/svg">
  <g transform="matrix(1.0, 0.0, 0.0, 1.0, 75.0, 2.75)">
    <path d="M17.5 164.75 L13.25 164.5 21.0 162.5 54.75 151.5 71.5 144.75 65.0 148.75 48.0 158.0 17.5 164.75 M83.75 56.5 Q84.75 62.0 96.75 74.25 L100.25 83.0 102.25 94.75 42.5 132.75 16.25 151.0 6.0 159.5 8.0 164.0 -13.5 161.75 -39.0 152.25 -50.25 146.0 -71.0 125.5 -75.0 111.25 Q-70.0 105.0 -70.0 100.75 -33.5 69.0 -6.25 6.0 L-1.25 -2.75 Q3.5 8.05 11.3 16.8 19.4 25.85 31.25 27.15 L39.0 27.0 Q45.25 27.5 51.0 24.8 63.4 19.05 68.75 6.5 L73.0 19.0 75.25 32.75 83.75 56.5" fill="#ffffff" fill-rule="evenodd" stroke="none"/>
  </g>
</svg>
