<?xml version="1.0" encoding="UTF-8" standalone="no"?>
<svg xmlns:ffdec="https://www.free-decompiler.com/flash" xmlns:xlink="http://www.w3.org/1999/xlink" ffdec:objectType="shape" height="166.75px" width="177.05px" xmlns="http://www.w3.org/2000/svg">
  <g transform="matrix(1.0, 0.0, 0.0, 1.0, 74.75, 2.75)">
    <path d="M83.25 56.25 L99.95 84.85 101.1 87.4 Q102.9 92.35 102.0 97.5 L43.5 135.5 19.25 153.0 8.75 161.5 9.75 164.0 -9.05 161.75 Q-16.65 160.55 -23.95 158.0 L-30.3 155.3 Q-43.55 148.75 -55.25 139.65 L-61.6 134.6 Q-66.4 130.5 -69.1 125.25 -72.9 118.1 -74.75 110.0 L-70.25 101.25 Q-64.75 96.6 -59.9 91.4 -53.5 84.5 -47.75 77.0 L-35.25 60.0 -22.0 35.5 -16.75 21.75 -2.5 -2.75 Q1.2 4.9 6.15 11.85 10.15 17.35 15.4 21.5 23.05 27.6 32.75 26.95 35.5 26.7 38.2 27.0 L44.8 26.6 Q47.4 26.0 49.8 24.65 61.65 17.9 67.5 5.75 L74.25 32.0 83.25 56.25" fill="#ffffff" fill-rule="evenodd" stroke="none"/>
  </g>
</svg>
