<?xml version="1.0" encoding="UTF-8" standalone="no"?>
<svg xmlns:ffdec="https://www.free-decompiler.com/flash" xmlns:xlink="http://www.w3.org/1999/xlink" ffdec:objectType="shape" height="166.75px" width="176.5px" xmlns="http://www.w3.org/2000/svg">
  <g transform="matrix(1.0, 0.0, 0.0, 1.0, 75.0, 2.75)">
    <path d="M82.5 55.25 Q84.75 60.55 88.65 64.95 L90.8 67.4 92.95 70.2 Q96.35 75.6 98.1 81.7 100.5 90.0 101.5 98.75 L42.25 138.25 Q30.4 147.15 18.5 156.0 L11.25 162.5 12.0 164.0 -13.5 161.75 -38.75 152.75 -50.25 146.5 -70.75 127.0 -74.0 116.5 -75.0 111.75 Q-70.25 107.25 -70.5 101.75 -32.0 66.5 -8.5 6.25 L-3.75 -2.75 Q3.45 12.7 17.15 22.55 19.35 24.1 21.9 25.1 26.75 27.2 31.95 26.7 L44.2 25.7 Q46.85 25.3 49.2 24.15 61.5 17.8 66.25 5.0 L73.5 31.5 82.5 55.25" fill="#ffffff" fill-rule="evenodd" stroke="none"/>
  </g>
</svg>
