<?xml version="1.0" encoding="UTF-8" standalone="no"?>
<svg xmlns:ffdec="https://www.free-decompiler.com/flash" xmlns:xlink="http://www.w3.org/1999/xlink" ffdec:objectType="shape" height="271.3px" width="348.5px" xmlns="http://www.w3.org/2000/svg">
  <g transform="matrix(1.0, 0.0, 0.0, 1.0, 185.25, 69.4)">
    <path d="M-15.75 -47.75 L-17.85 -50.85 Q-21.5 -56.85 -20.25 -63.75 L-20.5 -64.25 Q-12.5 -69.0 -3.1 -69.1 L3.65 -68.65 10.55 -68.4 12.75 -68.5 Q23.85 -70.6 34.75 -67.75 37.9 -66.85 39.75 -64.25 L39.55 -62.1 Q38.85 -54.65 35.25 -48.25 28.75 -38.5 10.0 -45.75 -6.25 -38.25 -15.75 -47.75 M24.0 -55.5 Q8.25 -53.5 21.25 -45.75 31.75 -50.0 24.0 -55.5 M-6.0 -55.5 Q-12.75 -47.0 -1.75 -45.75 9.25 -54.0 -6.0 -55.5" fill="#ffffff" fill-rule="evenodd" stroke="none"/>
    <path d="M-15.75 -47.75 Q-6.25 -38.25 10.0 -45.75 28.75 -38.5 35.25 -48.25 51.0 -35.75 48.5 -27.5 L49.0 -20.25 47.25 -7.25 44.75 1.5 42.4 7.3 Q40.6 12.15 37.7 16.1 36.55 17.65 35.0 18.8 20.95 29.45 3.2 27.85 -0.65 27.35 -4.1 25.8 -20.1 18.55 -26.0 2.0 L-26.75 1.25 -27.1 -0.5 Q-28.65 -7.15 -29.65 -13.85 -30.65 -20.5 -29.9 -27.15 -29.35 -32.15 -26.8 -36.5 -22.8 -43.5 -15.75 -47.75 M8.25 165.25 L39.25 159.0 68.25 144.0 85.75 123.0 86.75 122.75 Q91.55 119.7 95.75 116.0 110.0 140.0 110.25 153.5 114.25 191.25 55.25 201.0 30.5 204.25 16.75 193.0 11.5 189.75 8.25 165.25 M-104.75 144.0 Q-100.0 130.45 -93.75 117.5 -86.7 122.95 -78.85 127.15 -75.6 128.9 -72.65 131.2 -60.1 141.2 -46.6 149.2 -27.05 160.6 -4.75 163.75 -7.0 174.85 -9.55 185.6 -10.35 188.9 -12.5 191.6 -14.35 193.95 -17.1 194.95 -33.9 201.35 -52.15 200.25 -69.8 199.15 -85.45 191.0 -93.15 187.0 -98.6 180.4 -104.15 173.55 -106.0 164.95 -108.35 154.25 -104.75 144.0" fill="#e58508" fill-rule="evenodd" stroke="none"/>
    <path d="M24.0 -55.5 Q31.75 -50.0 21.25 -45.75 8.25 -53.5 24.0 -55.5 M-6.0 -55.5 Q9.25 -54.0 -1.75 -45.75 -12.75 -47.0 -6.0 -55.5" fill="#000000" fill-rule="evenodd" stroke="none"/>
    <path d="M96.75 2.25 L97.5 2.0 Q141.5 63.25 155.0 62.25 L150.0 64.0 Q139.75 61.5 138.5 63.0 L138.75 64.0 Q136.0 65.95 135.25 67.4 136.1 61.8 136.25 56.25 L136.0 54.25 Q132.25 48.75 131.0 49.5 L129.0 68.0 120.75 88.75 107.0 107.0 95.75 115.75 100.5 123.5 104.5 133.25 103.25 133.25 96.25 137.0 96.25 140.5 75.5 164.25 43.5 180.5 Q21.25 182.75 17.75 187.75 23.5 200.75 66.25 194.5 99.0 187.25 108.75 165.75 110.25 161.0 109.75 166.0 L104.75 177.0 Q92.75 197.25 47.5 201.5 L33.0 200.75 Q24.75 199.0 19.5 195.75 9.0 185.75 8.5 165.25 L-3.25 163.75 Q-6.25 205.75 -41.25 201.5 L-53.25 200.75 -72.25 196.75 -81.25 193.25 -87.75 189.75 -95.25 184.25 -101.75 176.75 -106.25 166.75 -106.75 163.5 Q-100.25 183.25 -69.0 192.75 -33.25 202.25 -12.75 188.75 L-13.5 186.75 -16.0 185.0 -20.75 183.0 -30.0 181.25 Q-48.1 172.65 -66.25 164.0 L-86.75 141.75 Q-99.75 133.25 -102.0 134.25 L-97.5 123.5 -93.5 117.5 Q-117.25 100.5 -124.25 78.0 L-126.5 69.0 Q-131.75 44.25 -124.0 17.5 L-153.75 37.0 -161.5 81.5 -168.0 110.5 -174.0 133.0 -174.95 134.9 -170.75 117.5 -162.5 79.5 -160.25 64.75 -158.0 56.5 -160.25 47.25 Q-171.0 41.0 -171.0 39.0 L-166.5 39.0 -161.85 36.65 -164.0 38.25 -154.25 32.0 Q-147.1 27.55 -145.15 27.65 L-144.75 27.75 -105.25 0.75 -84.0 -15.5 -97.25 5.0 -97.75 7.0 -98.5 7.25 -100.75 12.5 -101.5 12.75 -104.0 18.5 -107.0 23.0 -108.75 27.5 -116.0 40.5 -115.75 41.5 -119.25 50.0 Q-119.5 55.75 -117.0 60.25 L-108.5 76.25 -100.5 85.75 -93.25 92.5 -81.25 99.75 -81.5 103.25 -64.25 126.75 -39.5 143.25 Q-32.75 145.25 -32.5 147.0 L4.5 153.5 11.0 152.5 42.25 144.25 57.75 135.0 72.75 124.75 Q96.0 96.25 90.0 89.0 L98.0 82.5 97.75 82.0 99.75 80.5 99.5 80.0 101.0 79.0 100.75 78.5 102.25 77.5 102.0 77.0 110.75 66.5 117.25 53.5 110.75 33.25 96.75 2.25 M156.75 60.5 L157.5 60.5 157.25 61.25 156.75 60.5 M158.5 81.5 Q162.5 62.25 158.5 60.25 161.75 56.25 161.75 49.0 162.75 49.0 163.25 53.25 L161.0 77.5 144.75 143.5 Q139.75 165.25 133.5 171.75 L131.0 171.25 129.25 163.25 Q132.75 171.25 137.0 164.0 L152.5 98.5 154.0 98.5 155.0 92.75 158.5 81.5 M-168.75 40.25 L-167.75 41.0 -167.25 39.5 -168.75 40.25 M-183.75 58.25 L-183.75 78.75 -182.75 79.75 -183.25 137.25 Q-181.25 142.25 -177.5 138.0 L-176.75 138.75 Q-177.9 141.65 -177.5 142.5 L-178.25 144.0 -181.75 144.75 Q-185.0 143.75 -185.25 130.25 L-184.75 58.0 -183.75 58.25 M-31.0 -16.75 Q-26.75 24.0 11.5 27.5 45.25 25.5 49.0 -22.5 50.5 86.5 13.75 86.75 -28.0 89.25 -31.0 -16.75" fill="#000000" fill-opacity="0.49803922" fill-rule="evenodd" stroke="none"/>
  </g>
</svg>
