<?xml version="1.0" encoding="UTF-8" standalone="no"?>
<svg xmlns:ffdec="https://www.free-decompiler.com/flash" xmlns:xlink="http://www.w3.org/1999/xlink" ffdec:objectType="shape" height="373.9px" width="266.25px" xmlns="http://www.w3.org/2000/svg">
  <g transform="matrix(1.0, 0.0, 0.0, 1.0, 135.5, 133.75)">
    <path d="M-87.25 -37.0 Q-92.15 -31.6 -98.5 -27.75 L-101.5 -26.0 Q-104.15 -26.0 -104.4 -28.75 -106.25 -51.5 -98.3 -72.6 -97.8 -73.85 -96.8 -74.7 -78.75 -91.05 -57.3 -102.7 -52.65 -105.2 -48.7 -108.45 -30.8 -123.1 -9.8 -131.9 -7.35 -133.0 -4.6 -133.25 15.45 -136.15 28.8 -121.65 45.65 -103.35 56.25 -80.75 L80.25 -29.5 98.75 19.75 Q119.95 64.05 119.15 113.7 L119.25 121.5 123.75 123.5 Q134.85 156.6 128.35 191.4 L124.65 210.25 Q121.65 224.75 114.7 237.7 112.9 241.05 110.3 239.0 107.65 236.95 105.75 233.55 96.3 216.6 90.0 198.5 L81.0 172.75 72.5 176.5 Q35.7 187.75 2.0 168.95 L-1.5 167.0 Q6.2 156.1 1.7 142.5 L-0.65 135.15 Q-8.0 111.25 -18.75 88.75 L-23.75 54.5 Q-23.7 28.4 -24.0 2.25 L-16.25 -0.75 Q-13.5 -3.25 -14.0 -4.0 -8.5 -12.5 -17.25 -35.25 -11.1 -36.6 -8.95 -42.6 L-8.5 -43.75 Q-15.2 -54.2 -23.5 -63.5 L-25.6 -66.15 Q-27.1 -68.05 -29.25 -69.5 L-33.25 -73.25 -32.75 -73.75 -42.25 -87.0 -42.45 -87.7 -43.0 -88.0 -43.2 -88.85 -43.75 -89.25 -44.0 -90.0 -44.4 -90.15 -43.75 -89.25 -43.5 -88.35 Q-43.3 -88.0 -43.0 -88.0 L-42.5 -87.0 -47.75 -81.25 Q-51.25 -74.75 -51.0 -70.5 L-51.5 -68.0 Q-69.45 -59.7 -81.95 -44.5 -84.8 -40.95 -87.25 -37.0 M-91.75 18.5 L-91.5 4.5 -89.75 -8.75 -89.25 -8.5 Q-86.95 -3.55 -83.5 0.75 L-91.75 18.5" fill="#2e47aa" fill-rule="evenodd" stroke="none"/>
    <path d="M72.5 176.5 Q68.5 211.25 59.5 222.0 33.25 250.0 -12.25 227.75 -39.5 214.5 -41.0 195.0 -43.75 189.75 -28.5 164.5 L-1.5 167.0 2.0 168.95 Q35.7 187.75 72.5 176.5 M-76.25 134.75 L-97.2 139.6 -100.65 139.95 Q-111.4 140.05 -117.95 131.5 -134.4 110.05 -135.45 83.3 -135.8 75.05 -132.25 67.7 -122.4 47.1 -100.0 43.5 -100.1 45.65 -100.55 47.45 L-100.75 48.0 Q-100.35 50.05 -101.25 52.5 L-100.25 77.75 -97.25 98.5 -84.25 126.5 -76.25 134.75 M-89.75 -8.75 Q-94.25 -26.0 -87.0 -37.0 L-87.25 -37.0 Q-84.8 -40.95 -81.95 -44.5 -69.45 -59.7 -51.5 -68.0 L-50.0 -63.5 Q-50.5 -61.0 -46.0 -57.0 L-41.0 -53.75 Q-34.0 -34.25 -17.25 -35.25 -8.5 -12.5 -14.0 -4.0 -13.5 -3.25 -16.25 -0.75 L-24.0 2.25 Q-74.25 19.5 -83.5 0.75 -86.95 -3.55 -89.25 -8.5 L-89.75 -8.75" fill="#e58508" fill-rule="evenodd" stroke="none"/>
    <path d="M-28.5 164.5 L-33.25 163.75 -61.75 149.75 -76.25 134.75 -84.25 126.5 -97.25 98.5 -100.25 77.75 -101.25 52.5 Q-100.35 50.05 -100.75 48.0 L-100.55 47.45 Q-100.1 45.65 -100.0 43.5 L-91.75 18.5 -83.5 0.75 Q-74.25 19.5 -24.0 2.25 -23.7 28.4 -23.75 54.5 L-18.75 88.75 Q-8.0 111.25 -0.65 135.15 L1.7 142.5 Q6.2 156.1 -1.5 167.0 L-28.5 164.5 M-51.0 -70.5 Q-51.25 -74.75 -47.75 -81.25 L-42.5 -87.0 -42.25 -87.0 -32.75 -73.75 -33.25 -73.25 -29.25 -69.5 -23.5 -63.5 Q-15.2 -54.2 -8.5 -43.75 L-8.95 -42.6 Q-11.1 -36.6 -17.25 -35.25 -34.0 -34.25 -41.0 -53.75 L-46.0 -57.0 Q-50.5 -61.0 -50.0 -63.5 -43.75 -58.5 -44.75 -68.5 -46.75 -77.25 -51.0 -70.5 M-37.5 -56.25 Q-42.0 -47.5 -32.75 -45.0 -27.5 -55.5 -37.5 -56.25" fill="#ffffff" fill-rule="evenodd" stroke="none"/>
    <path d="M-42.5 -87.0 L-43.0 -88.0 Q-43.3 -88.0 -43.5 -88.35 L-43.75 -89.25 -44.4 -90.15 -44.0 -90.0 -43.75 -89.25 -43.2 -88.85 -43.0 -88.0 -42.45 -87.7 -42.25 -87.0 -42.5 -87.0 M-29.25 -69.5 Q-27.1 -68.05 -25.6 -66.15 L-23.5 -63.5 -29.25 -69.5" fill="#243773" fill-rule="evenodd" stroke="none"/>
    <path d="M-51.5 -68.0 L-51.0 -70.5 Q-46.75 -77.25 -44.75 -68.5 -43.75 -58.5 -50.0 -63.5 L-51.5 -68.0 M-37.5 -56.25 Q-27.5 -55.5 -32.75 -45.0 -42.0 -47.5 -37.5 -56.25" fill="#31333d" fill-rule="evenodd" stroke="none"/>
    <path d="M-102.75 -60.5 L-100.35 -58.45 Q-96.5 -55.45 -92.5 -58.5 -94.9 -68.05 -92.55 -77.45 L-90.25 -78.25 -92.0 -76.0 -69.5 -73.5 Q-76.85 -57.5 -83.8 -41.3 -84.45 -39.8 -85.6 -38.55 -92.25 -31.45 -100.5 -26.25 L-103.8 -26.85 Q-105.55 -38.6 -104.25 -51.25 L-102.75 -60.5 M-76.9 4.55 Q-54.25 15.15 -31.0 4.55 -22.3 0.55 -13.75 -4.0 -33.3 31.5 -58.9 62.8 -69.3 75.45 -83.3 83.3 -88.25 86.1 -94.0 85.0 -81.35 112.9 -56.8 130.7 -49.15 136.2 -40.4 139.85 -21.2 147.65 -0.85 149.1 L0.7 148.95 1.85 148.2 Q2.6 145.8 2.3 143.15 2.05 140.7 1.15 138.5 0.25 136.2 -1.0 134.0 27.5 150.8 60.5 147.0 51.15 107.0 39.25 67.5 54.5 103.3 73.7 136.7 75.5 139.8 77.95 142.5 L83.0 147.8 Q75.75 147.75 76.8 154.95 78.3 165.4 82.8 174.85 88.55 186.8 94.65 198.55 103.8 216.15 110.75 234.75 118.95 225.4 120.75 212.35 121.5 206.85 122.65 201.15 128.0 174.6 130.4 147.5 132.2 194.3 115.35 237.8 114.85 239.05 113.85 240.15 105.15 235.8 101.8 225.85 100.6 222.3 99.0 218.9 88.25 196.5 81.25 172.75 L72.75 176.25 Q72.1 207.65 50.85 230.05 48.45 232.65 44.75 233.8 19.25 241.7 -5.55 231.4 -21.25 224.9 -32.4 212.4 -38.35 205.7 -40.75 197.0 -22.5 225.2 10.95 231.35 31.45 234.9 49.65 226.3 54.1 224.2 57.45 220.55 65.15 212.15 65.6 200.9 L65.25 198.5 Q41.55 199.75 18.95 193.55 -9.6 185.7 -39.25 187.5 -37.0 176.4 -30.0 167.1 L-28.25 164.5 Q-54.95 154.05 -75.75 134.75 -90.65 139.95 -106.15 139.4 -109.2 139.2 -111.6 137.25 -133.75 118.85 -134.75 89.5 -132.2 111.7 -116.9 127.0 -112.05 131.9 -105.2 133.9 -99.55 135.65 -93.5 135.5 -102.4 111.45 -103.4 85.85 -103.6 81.3 -102.25 76.9 -98.95 66.5 -99.35 55.4 -99.7 44.6 -96.6 34.3 L-97.25 47.5 -96.75 48.5 -82.75 2.0 -84.5 0.0 Q-83.2 3.65 -85.3 7.45 -88.4 13.0 -91.75 18.25 L-89.4 -14.8 Q-86.85 -4.45 -79.15 2.6 L-76.9 4.55 M103.45 32.1 L97.25 17.0 Q119.25 61.0 118.0 110.2 117.8 117.5 119.5 124.5 L118.5 124.25 Q112.15 84.55 107.15 45.05 106.45 39.55 104.2 34.65 L103.45 32.1" fill="#000000" fill-opacity="0.49803922" fill-rule="evenodd" stroke="none"/>
  </g>
</svg>
