<?xml version="1.0" encoding="UTF-8" standalone="no"?>
<svg xmlns:ffdec="https://www.free-decompiler.com/flash" xmlns:xlink="http://www.w3.org/1999/xlink" ffdec:objectType="shape" height="281.4px" width="345.25px" xmlns="http://www.w3.org/2000/svg">
  <g transform="matrix(1.0, 0.0, 0.0, 1.0, 180.25, 68.65)">
    <path d="M-5.5 -47.25 Q-6.8 -48.3 -7.65 -49.75 -11.4 -55.95 -9.75 -63.25 -7.35 -66.35 -3.25 -67.25 7.15 -69.8 17.7 -67.75 L20.15 -67.6 Q33.1 -69.85 45.7 -66.8 48.75 -66.2 50.25 -63.5 L50.2 -62.8 Q49.5 -57.9 48.45 -53.15 47.7 -49.6 45.25 -47.5 43.0 -38.25 20.75 -45.25 3.25 -37.75 -5.5 -47.25 M10.25 -54.0 L4.0 -55.25 Q0.25 -54.25 1.25 -52.5 -0.25 -45.0 8.0 -45.0 15.25 -47.5 10.25 -54.0 M34.25 -54.25 L28.0 -54.0 25.25 -51.25 Q23.75 -49.25 27.0 -45.75 L31.25 -45.0 Q40.75 -49.0 34.25 -54.25" fill="#ffffff" fill-rule="evenodd" stroke="none"/>
    <path d="M34.25 -54.25 Q40.75 -49.0 31.25 -45.0 L27.0 -45.75 Q23.75 -49.25 25.25 -51.25 L28.0 -54.0 34.25 -54.25 M10.25 -54.0 Q15.25 -47.5 8.0 -45.0 -0.25 -45.0 1.25 -52.5 0.25 -54.25 4.0 -55.25 L10.25 -54.0" fill="#000000" fill-rule="evenodd" stroke="none"/>
    <path d="M-5.5 -47.25 Q3.25 -37.75 20.75 -45.25 43.0 -38.25 45.25 -47.5 55.3 -41.8 57.5 -30.45 58.55 -25.1 57.75 -19.3 56.1 -7.5 54.0 4.25 L51.0 10.25 50.75 10.5 50.75 10.75 Q46.0 25.25 21.25 28.5 L18.5 28.5 Q-4.0 30.25 -17.5 0.5 L-21.55 -19.05 Q-21.95 -21.1 -21.85 -23.05 L-21.7 -27.65 Q-21.7 -30.45 -20.0 -32.85 -14.1 -41.35 -5.5 -47.25 M11.95 184.05 L10.45 177.8 Q8.8 171.5 8.25 165.0 L12.0 165.5 41.25 159.25 Q68.15 148.25 86.1 125.4 L88.25 122.5 96.0 117.0 106.45 137.75 106.75 138.5 Q103.55 143.55 102.25 148.75 L101.75 149.0 95.5 163.75 83.75 193.5 Q62.0 203.05 38.4 201.65 L32.7 200.45 Q27.9 199.4 23.5 197.35 19.95 195.6 16.7 193.1 13.1 189.2 11.95 184.05 M-104.65 144.05 Q-99.65 130.2 -93.25 117.0 -89.5 119.85 -85.5 122.2 -80.5 125.25 -75.3 127.9 -71.5 129.9 -67.95 132.35 -51.35 143.75 -34.1 153.75 -20.4 161.65 -4.75 163.5 -6.95 174.6 -9.55 185.6 -10.35 188.9 -12.5 191.6 -14.35 193.95 -17.1 194.95 -33.9 201.35 -52.15 200.25 -69.8 199.15 -85.45 191.0 -93.15 187.0 -98.6 180.4 -104.15 173.55 -106.0 164.95 -108.35 154.25 -104.65 144.05" fill="#e58508" fill-rule="evenodd" stroke="none"/>
    <path d="M-72.5 -25.0 Q-122.25 48.25 -116.25 62.25 L-105.5 81.75 Q-90.0 98.25 -78.5 102.25 -77.25 102.25 -77.75 105.75 L-59.75 129.0 -42.25 140.5 -28.5 147.5 9.25 153.5 46.0 143.75 Q83.75 121.75 84.0 114.0 L94.5 94.5 Q95.75 91.5 92.75 85.25 L102.0 77.0 101.75 76.5 105.25 73.0 105.0 72.5 114.25 61.0 104.25 25.25 97.25 5.25 96.75 2.75 97.25 2.5 106.75 19.5 125.75 50.25 140.0 75.75 142.0 76.0 145.25 79.75 143.0 80.75 Q142.75 78.7 136.6 78.1 L136.75 74.5 131.0 65.5 Q130.25 87.25 96.25 116.75 L100.5 123.5 105.25 134.25 100.0 136.0 Q101.25 141.0 80.25 162.5 L47.5 180.0 Q20.0 183.5 18.5 188.5 26.0 198.25 51.5 196.75 56.0 197.25 56.0 195.5 L67.25 194.25 76.25 191.75 85.75 188.0 86.5 188.25 84.75 192.75 84.25 193.75 65.5 199.5 47.5 201.5 33.0 200.75 Q24.75 199.0 19.5 195.75 9.0 185.75 8.5 165.25 L-4.5 163.5 -8.25 182.75 Q-10.75 191.0 -14.25 194.25 -23.75 202.75 -51.25 201.0 -75.0 198.0 -87.75 189.75 -106.25 177.0 -107.0 163.0 -96.0 186.5 -69.0 192.75 -21.25 201.5 -12.75 188.25 L-13.25 186.75 -16.5 184.25 Q-21.25 181.75 -27.0 181.75 L-62.0 165.25 -83.0 143.5 -92.0 139.0 -99.0 133.75 -101.25 133.5 Q-100.0 126.25 -93.0 117.0 L-100.5 111.25 -112.5 98.25 -122.5 78.75 -124.0 71.75 Q-131.75 46.0 -117.5 7.25 L-162.0 32.5 -162.4 49.5 -162.85 49.5 -163.25 47.25 -167.0 42.5 -172.75 39.0 Q-177.0 39.0 -180.25 36.5 L-175.5 36.0 -148.0 19.25 -146.0 18.5 -148.25 20.25 -145.25 18.75 -136.75 13.5 -122.5 6.25 -94.25 -10.75 -72.5 -25.0 M163.75 71.0 L165.0 83.5 Q159.25 85.0 152.5 106.5 L128.5 146.75 107.75 179.75 91.75 203.75 84.0 212.75 80.75 211.75 82.75 211.0 89.5 205.0 90.0 203.25 102.75 184.0 114.0 164.25 114.75 164.0 120.25 153.75 121.0 153.5 121.0 152.5 129.5 140.0 129.5 139.0 130.75 138.0 130.75 137.0 134.25 132.5 134.25 131.5 135.5 130.5 135.5 129.5 136.75 128.5 148.5 109.0 Q156.5 83.75 162.0 83.5 164.0 79.75 163.75 71.0 M-21.5 -15.75 Q-13.75 24.5 18.0 28.25 58.25 22.75 58.25 -22.0 63.0 88.75 24.0 88.75 -15.75 89.75 -21.5 -15.75" fill="#000000" fill-opacity="0.49803922" fill-rule="evenodd" stroke="none"/>
  </g>
</svg>
