<?xml version="1.0" encoding="UTF-8" standalone="no"?>
<svg xmlns:ffdec="https://www.free-decompiler.com/flash" xmlns:xlink="http://www.w3.org/1999/xlink" ffdec:objectType="shape" height="277.9px" width="348.25px" xmlns="http://www.w3.org/2000/svg">
  <g transform="matrix(1.0, 0.0, 0.0, 1.0, 183.25, 69.15)">
    <path d="M4.75 -47.5 L0.5 -55.25 0.75 -63.5 2.9 -65.25 Q9.65 -69.2 17.5 -69.15 25.25 -69.15 32.5 -67.25 44.45 -70.55 56.45 -67.1 59.15 -66.3 60.5 -63.75 L60.45 -62.75 58.75 -53.5 Q57.95 -49.7 55.25 -47.5 53.0 -38.5 31.25 -45.5 16.0 -38.25 4.75 -47.5 M36.5 -53.25 Q30.5 -48.5 40.5 -45.0 53.0 -55.5 36.5 -53.25 M20.0 -54.25 L13.5 -56.0 10.75 -54.5 Q9.25 -43.75 17.75 -45.25 25.0 -47.75 20.0 -54.25" fill="#ffffff" fill-rule="evenodd" stroke="none"/>
    <path d="M20.0 -54.25 Q25.0 -47.75 17.75 -45.25 9.25 -43.75 10.75 -54.5 L13.5 -56.0 20.0 -54.25 M36.5 -53.25 Q53.0 -55.5 40.5 -45.0 30.5 -48.5 36.5 -53.25" fill="#000000" fill-rule="evenodd" stroke="none"/>
    <path d="M4.75 -47.5 Q16.0 -38.25 31.25 -45.5 53.0 -38.5 55.25 -47.5 63.75 -44.75 67.25 -27.25 L66.5 -7.0 65.0 -0.25 62.5 6.5 60.0 11.25 Q44.75 31.75 31.25 28.25 L28.75 28.25 Q5.0 29.75 -8.0 -1.25 -10.1 -8.25 -11.5 -15.25 L-12.0 -19.25 Q-12.25 -23.25 -11.55 -27.1 -10.95 -30.25 -9.7 -33.25 -5.4 -43.55 4.75 -47.5 M11.85 184.5 L10.15 176.05 8.25 164.75 17.5 164.75 45.75 158.75 72.75 144.25 89.5 124.65 Q92.7 120.95 96.5 117.75 L100.75 124.75 58.5 173.25 42.0 193.75 37.0 201.0 Q25.25 200.95 16.75 193.0 13.0 189.5 11.85 184.5 M-104.7 144.05 Q-99.6 129.75 -93.0 116.0 -87.35 120.2 -81.3 123.6 -78.3 125.3 -75.1 126.6 -70.1 128.65 -66.0 132.15 -47.05 148.25 -24.5 157.85 -14.95 161.85 -4.75 163.25 -7.1 175.05 -10.05 186.65 -11.0 190.5 -14.1 193.15 -16.75 195.4 -20.3 196.55 -37.5 201.7 -55.65 199.85 -73.35 198.2 -88.55 189.15 -99.55 182.65 -104.25 170.65 -109.45 157.35 -104.7 144.05 M110.25 152.0 L110.5 154.0 Q111.0 193.0 55.25 201.0 L51.25 201.25 74.75 182.5 109.5 152.5 110.25 152.0" fill="#e58508" fill-rule="evenodd" stroke="none"/>
    <path d="M99.0 -0.75 L99.5 -1.0 104.5 10.25 118.0 34.75 140.9 80.3 138.75 80.3 132.5 68.25 Q130.25 88.0 96.75 117.75 L101.0 124.75 101.6 124.1 101.85 124.65 88.5 139.0 88.75 139.5 86.5 141.25 76.0 153.5 76.25 154.0 60.75 171.0 56.0 177.5 Q55.0 176.5 51.0 179.5 L28.25 183.75 22.0 186.25 19.0 188.5 Q18.75 195.0 40.25 196.5 L38.0 200.5 Q34.75 201.75 25.25 198.75 L18.0 194.75 Q9.75 186.5 8.5 164.75 L-4.5 163.25 Q-6.5 206.0 -39.5 201.5 -88.25 202.75 -106.25 166.75 L-107.0 163.25 -106.5 163.0 -102.5 171.75 -97.5 177.75 -90.75 183.25 -82.25 188.0 -65.0 193.75 Q-20.0 200.75 -12.5 187.75 L-13.0 186.25 -15.5 184.25 -23.75 182.0 -56.75 166.75 Q-80.5 138.0 -101.25 132.75 L-97.75 124.0 -92.75 115.75 -96.5 113.25 -108.0 101.0 Q-141.25 62.25 -108.75 -6.75 L-168.5 17.75 -167.5 27.8 -168.3 27.8 Q-173.3 20.2 -183.25 18.0 L-176.0 17.0 -125.5 -5.75 -98.75 -16.5 -64.0 -32.5 Q-127.0 49.75 -114.0 68.75 L-102.5 86.75 Q-84.25 103.0 -75.0 104.75 L-75.5 106.25 -57.0 130.25 -47.5 136.25 -24.75 147.75 12.75 153.5 50.25 142.75 80.5 122.5 Q79.5 120.75 84.75 117.0 104.25 88.75 95.5 82.25 L104.0 74.5 114.25 60.0 105.5 22.75 102.25 12.75 100.5 4.25 99.5 2.75 99.0 -0.75 M163.5 97.75 L139.5 125.75 112.75 149.5 110.25 152.5 59.75 194.5 Q66.15 193.65 72.3 192.25 78.65 190.8 84.9 188.2 L86.7 187.35 Q103.75 180.55 109.5 163.5 L109.65 164.15 Q109.35 169.3 106.65 173.7 L104.95 176.0 Q99.1 182.35 91.95 186.8 81.1 193.5 69.1 198.15 L40.25 208.75 38.25 208.0 Q50.55 201.0 60.75 191.0 L86.0 168.0 140.25 116.5 140.0 116.0 Q148.85 106.1 157.25 95.75 L158.3 97.6 159.05 98.4 160.0 99.0 165.0 97.0 163.5 97.75 M53.75 179.0 L54.75 178.5 54.25 179.25 53.75 179.0 M155.25 102.0 L155.75 102.25 157.25 100.5 155.25 102.0 M67.5 -25.5 Q75.75 89.0 34.0 89.25 -4.5 88.0 -12.25 -18.75 -3.75 25.75 28.5 28.0 67.0 24.75 67.5 -25.5" fill="#000000" fill-opacity="0.49803922" fill-rule="evenodd" stroke="none"/>
  </g>
</svg>
