<?xml version="1.0" encoding="UTF-8" standalone="no"?>
<svg xmlns:ffdec="https://www.free-decompiler.com/flash" xmlns:xlink="http://www.w3.org/1999/xlink" ffdec:objectType="shape" height="271.6px" width="383.6px" xmlns="http://www.w3.org/2000/svg">
  <g transform="matrix(1.0, 0.0, 0.0, 1.0, 206.75, 69.65)">
    <path d="M13.5 -48.25 L9.75 -64.25 Q17.45 -69.9 27.25 -69.65 L38.2 -69.15 Q43.1 -69.1 48.0 -69.4 57.35 -70.3 66.15 -67.15 67.2 -66.8 67.55 -65.65 70.4 -55.95 63.75 -48.25 58.25 -39.25 40.5 -46.5 26.25 -38.75 13.5 -48.25 M46.25 -55.25 Q37.5 -48.5 49.75 -46.0 60.5 -55.0 46.25 -55.25 M28.75 -55.0 L22.25 -57.0 19.5 -55.75 Q16.5 -45.25 26.5 -46.0 33.25 -48.0 28.75 -55.0" fill="#ffffff" fill-rule="evenodd" stroke="none"/>
    <path d="M28.75 -55.0 Q33.25 -48.0 26.5 -46.0 16.5 -45.25 19.5 -55.75 L22.25 -57.0 28.75 -55.0 M46.25 -55.25 Q60.5 -55.0 49.75 -46.0 37.5 -48.5 46.25 -55.25" fill="#000000" fill-rule="evenodd" stroke="none"/>
    <path d="M13.5 -48.25 Q26.25 -38.75 40.5 -46.5 58.25 -39.25 63.75 -48.25 69.75 -44.65 72.65 -38.5 74.2 -35.1 74.35 -31.4 75.0 -17.35 73.0 -3.35 72.4 0.75 71.15 4.65 67.35 16.4 56.85 22.95 49.45 27.5 40.55 27.45 28.5 28.55 18.65 21.75 12.65 17.55 8.3 11.6 -2.15 -2.8 -3.7 -20.8 -4.1 -25.45 -2.85 -29.75 0.95 -42.9 13.5 -48.25 M-98.5 125.75 L-92.5 115.75 -89.8 117.6 Q-78.5 126.2 -65.25 131.0 -54.4 140.25 -42.6 148.15 -35.0 153.25 -26.25 156.25 -15.65 159.85 -4.75 162.75 L-8.5 183.5 Q-12.25 192.5 -14.0 193.25 L-14.75 194.5 -20.0 197.5 -30.75 200.75 -41.75 201.5 -52.25 200.75 Q-108.75 192.75 -107.5 153.5 L-107.25 152.75 -104.75 140.5 -98.5 125.75 M76.5 142.75 L77.75 140.5 Q87.25 137.45 96.2 133.9 L103.75 131.0 109.0 145.0 110.5 154.0 Q111.0 193.0 55.25 201.0 30.5 204.25 16.75 193.0 11.5 190.25 8.0 164.0 L17.5 165.0 49.25 158.0 76.5 142.75" fill="#e58508" fill-rule="evenodd" stroke="none"/>
    <path d="M-176.85 -8.5 L-176.55 -8.85 -175.2 -9.0 Q-170.75 -7.75 -166.15 -9.95 L-165.8 -10.1 -160.25 -10.75 -88.5 -29.5 -57.75 -38.5 Q-130.5 44.25 -114.75 66.5 -105.25 92.75 -74.0 105.75 L-72.5 106.25 -72.5 108.25 -53.0 132.25 -20.75 148.0 Q-8.7 150.2 3.5 151.5 L7.5 152.0 Q0.0 154.75 6.25 160.25 168.0 103.75 176.5 78.0 182.0 100.75 103.75 131.0 L106.75 138.0 105.0 138.5 102.75 140.75 95.5 149.5 95.75 150.0 86.0 160.75 56.75 177.5 30.0 183.5 Q22.0 185.5 19.75 188.5 38.0 203.0 73.75 192.5 109.25 178.5 109.5 163.5 111.0 165.25 105.25 176.25 L98.75 184.0 Q80.75 199.75 47.5 201.5 L33.0 200.75 Q24.75 199.0 19.5 195.75 11.0 190.5 8.25 166.0 L8.0 164.0 -4.0 162.75 Q-6.0 206.25 -41.25 201.5 L-53.5 200.75 -72.25 196.75 -81.25 193.25 -87.75 189.75 -95.25 184.25 -101.75 176.75 -106.25 166.75 -106.75 163.5 Q-96.5 187.0 -64.25 194.0 -23.25 201.0 -12.5 187.75 -14.5 181.75 -51.25 168.75 -76.75 139.25 -101.25 132.25 -97.25 125.0 -97.75 124.0 L-92.5 115.75 -109.5 98.75 -111.5 94.25 -117.0 85.75 -118.75 81.0 -121.25 71.25 -123.25 55.75 Q-119.25 11.5 -99.25 -19.0 L-169.5 -2.75 -168.95 -1.0 -169.6 -0.7 Q-172.7 -6.9 -176.85 -8.5 M-158.25 110.25 L-197.75 17.75 -201.25 1.5 -200.25 2.25 -198.9 7.0 Q-199.35 4.05 -197.75 3.75 L-193.75 18.25 Q-195.5 15.25 -196.25 16.0 L-191.0 30.25 -189.5 32.25 -163.25 93.75 -163.25 95.25 -144.0 138.25 -137.25 149.5 -131.0 148.5 -135.75 150.5 Q-138.25 151.5 -141.75 144.25 L-158.25 110.25 M-195.75 15.0 L-196.75 14.5 -196.0 15.5 -195.75 15.0 M128.5 41.75 L142.5 68.25 140.5 69.25 Q138.0 62.75 135.25 60.0 130.0 72.75 131.25 74.75 L98.75 93.75 Q101.75 88.75 101.5 86.5 L98.75 78.25 108.25 69.0 117.0 55.0 102.5 -7.0 107.0 2.75 116.0 18.25 126.25 38.75 128.5 41.75 M91.0 98.0 L90.25 98.75 89.75 98.5 91.0 98.0 M95.25 95.5 L94.5 96.25 94.0 96.0 95.25 95.5 M86.0 101.25 L85.5 101.0 86.75 100.5 86.0 101.25 M-4.0 -19.75 Q5.5 24.75 37.75 27.0 75.5 23.5 75.25 -26.0 86.75 88.0 44.0 88.75 6.5 86.75 -4.0 -19.75 M-206.75 -18.0 Q-200.75 -11.25 -200.75 1.0 -206.75 -1.25 -206.75 -18.0" fill="#000000" fill-opacity="0.49803922" fill-rule="evenodd" stroke="none"/>
  </g>
</svg>
