<?xml version="1.0" encoding="UTF-8" standalone="no"?>
<svg xmlns:ffdec="https://www.free-decompiler.com/flash" xmlns:xlink="http://www.w3.org/1999/xlink" ffdec:objectType="shape" height="272.15px" width="382.65px" xmlns="http://www.w3.org/2000/svg">
  <g transform="matrix(1.0, 0.0, 0.0, 1.0, 206.75, 70.2)">
    <path d="M11.5 -48.5 L10.65 -50.3 Q7.45 -57.3 7.75 -65.0 21.8 -71.7 37.25 -69.5 L37.0 -69.0 42.7 -69.5 54.6 -70.1 60.6 -69.35 Q65.15 -69.25 67.25 -65.5 66.7 -59.7 65.35 -54.25 64.55 -50.95 62.0 -49.0 60.0 -40.25 38.5 -46.75 25.0 -39.0 11.5 -48.5 M44.0 -55.5 Q36.0 -49.25 47.0 -46.25 59.0 -55.75 44.0 -55.5 M26.75 -55.25 L20.25 -57.25 17.5 -55.75 Q15.0 -45.75 23.5 -46.0 31.75 -48.0 26.75 -55.25" fill="#ffffff" fill-rule="evenodd" stroke="none"/>
    <path d="M26.75 -55.25 Q31.75 -48.0 23.5 -46.0 15.0 -45.75 17.5 -55.75 L20.25 -57.25 26.75 -55.25 M44.0 -55.5 Q59.0 -55.75 47.0 -46.25 36.0 -49.25 44.0 -55.5" fill="#000000" fill-rule="evenodd" stroke="none"/>
    <path d="M11.5 -48.5 Q25.0 -39.0 38.5 -46.75 60.0 -40.25 62.0 -49.0 70.2 -44.55 72.15 -35.05 L72.85 -31.05 Q75.0 -17.55 71.85 -3.9 70.6 1.35 68.75 6.5 63.4 19.05 51.0 24.8 45.25 27.5 39.0 27.0 L31.25 27.15 Q19.4 25.85 11.3 16.8 3.5 8.05 -1.25 -2.75 L-2.95 -9.0 Q-4.4 -14.75 -5.45 -20.55 -6.2 -24.8 -5.95 -28.65 -5.8 -30.95 -4.6 -32.75 1.75 -42.25 11.5 -48.5 M8.0 164.0 L9.5 165.25 13.25 164.5 17.5 164.75 48.0 158.0 65.0 148.75 71.5 144.75 104.0 132.0 107.25 139.0 109.25 145.75 110.5 154.0 Q111.0 193.0 55.25 201.0 30.5 204.25 16.75 193.0 11.5 190.25 8.0 164.0 M-97.75 124.0 L-93.0 116.5 Q-89.0 119.0 -85.15 121.7 -75.85 128.25 -65.0 131.75 L-50.25 146.0 -39.0 152.25 -13.5 161.75 -4.75 162.75 -8.5 183.5 Q-12.25 192.5 -14.0 193.25 L-14.75 194.5 -20.0 197.5 -30.75 200.75 -41.75 201.5 -52.25 200.75 Q-108.75 192.75 -107.5 153.5 L-107.25 152.75 -104.75 140.5 -97.75 124.0" fill="#e58508" fill-rule="evenodd" stroke="none"/>
    <path d="M101.75 -6.5 L105.75 2.25 108.5 6.25 136.5 59.5 141.0 66.75 144.25 70.0 141.0 71.75 134.5 60.0 128.25 78.25 Q128.8 79.15 130.65 78.25 L97.25 98.6 96.3 97.7 101.0 88.5 Q102.25 87.0 98.25 78.25 L107.25 69.5 116.5 55.0 112.25 35.75 102.25 -2.25 101.75 -6.5 M175.75 80.0 Q176.1 82.05 175.6 84.25 L175.75 80.0 M174.95 86.25 Q167.65 104.6 104.0 131.75 L106.25 137.25 104.75 137.75 101.5 141.25 100.75 143.0 85.5 160.75 56.25 177.5 Q21.5 183.25 19.25 188.75 39.75 202.75 73.75 192.5 109.25 178.5 109.5 163.5 111.0 165.25 105.25 176.25 L98.75 184.0 Q80.75 199.75 47.5 201.5 L33.0 200.75 Q24.75 199.0 19.5 195.75 11.0 190.5 8.25 166.0 L8.0 164.0 -4.0 162.75 Q-6.0 206.25 -41.25 201.5 L-53.5 200.75 -72.25 196.75 -81.25 193.25 -87.75 189.75 -95.25 184.25 -101.75 176.75 -106.25 166.75 -106.75 163.5 Q-96.5 187.5 -63.25 194.25 -23.75 201.25 -12.25 187.25 L-14.75 184.25 -19.5 183.0 -28.75 178.0 -51.25 169.0 Q-76.75 140.5 -101.25 132.75 L-97.75 124.0 -92.75 116.5 -108.75 100.75 -117.0 87.25 -119.75 80.5 -122.0 70.75 -123.75 57.75 Q-121.25 16.25 -102.0 -15.25 L-168.5 4.25 -163.05 19.45 Q-169.85 5.35 -176.0 1.15 -174.5 0.55 -172.65 -0.4 -169.4 -2.1 -167.85 -4.15 L-161.65 -5.25 -168.5 -2.75 -158.3 -5.95 Q-150.55 -7.75 -143.65 -10.35 L-136.0 -11.0 -86.0 -27.25 -59.0 -37.0 Q-131.25 48.25 -113.5 71.5 -106.25 91.75 -72.25 106.75 L-73.0 107.5 -72.5 108.75 -53.25 132.25 -21.25 147.75 14.0 152.5 6.0 159.5 8.75 164.25 22.5 160.5 71.5 139.0 139.75 104.5 160.0 90.75 162.75 92.5 Q170.3 86.4 174.95 86.25 M73.75 -27.0 Q84.5 86.5 43.5 88.0 4.5 86.5 -5.75 -20.5 4.5 25.25 36.5 26.75 74.75 22.0 73.75 -27.0 M-203.0 -2.25 L-203.0 -4.0 -201.5 0.0 -203.0 -2.25 M-136.75 147.25 L-130.25 157.25 Q-129.5 158.0 -124.0 156.0 L-130.25 158.5 -131.75 157.25 -139.25 145.25 -172.25 78.75 -172.75 76.5 -177.75 67.25 -177.75 66.0 -194.25 31.75 Q-193.75 30.75 -196.25 27.25 L-200.75 10.0 -198.0 11.25 -198.5 11.75 -197.75 12.25 -192.0 31.25 -190.5 33.25 -170.0 79.25 -150.75 119.75 -136.75 147.25 M-198.75 12.25 L-198.5 11.5 -199.75 11.5 -198.75 12.25 M-205.75 1.25 L-206.75 -7.5 Q-200.75 1.25 -199.75 9.75 -202.25 10.0 -205.75 1.25" fill="#000000" fill-opacity="0.49803922" fill-rule="evenodd" stroke="none"/>
  </g>
</svg>
