<?xml version="1.0" encoding="UTF-8" standalone="no"?>
<svg xmlns:ffdec="https://www.free-decompiler.com/flash" xmlns:xlink="http://www.w3.org/1999/xlink" ffdec:objectType="shape" height="271.95px" width="382.0px" xmlns="http://www.w3.org/2000/svg">
  <g transform="matrix(1.0, 0.0, 0.0, 1.0, 205.25, 70.0)">
    <path d="M9.75 -48.5 Q7.75 -53.25 6.05 -58.1 5.4 -60.0 5.2 -61.95 5.1 -63.35 5.8 -64.45 6.35 -65.3 7.25 -65.75 16.4 -69.4 26.4 -69.35 L36.6 -68.65 39.4 -69.5 Q49.25 -70.05 59.25 -70.0 63.2 -69.35 65.25 -66.0 64.55 -60.55 63.45 -55.3 62.7 -51.8 60.0 -49.5 50.5 -40.25 36.75 -47.25 23.25 -39.25 9.75 -48.5 M18.0 -57.25 Q15.0 -57.0 14.0 -53.0 L15.25 -49.25 17.75 -47.0 21.5 -46.25 Q32.75 -55.0 18.0 -57.25 M45.5 -46.75 Q57.0 -55.75 42.25 -56.0 33.5 -49.75 45.5 -46.75" fill="#ffffff" fill-rule="evenodd" stroke="none"/>
    <path d="M18.0 -57.25 Q32.75 -55.0 21.5 -46.25 L17.75 -47.0 15.25 -49.25 14.0 -53.0 Q15.0 -57.0 18.0 -57.25 M45.5 -46.75 Q33.5 -49.75 42.25 -56.0 57.0 -55.75 45.5 -46.75" fill="#000000" fill-rule="evenodd" stroke="none"/>
    <path d="M9.75 -48.5 Q23.25 -39.25 36.75 -47.25 50.5 -40.25 60.0 -49.5 67.55 -45.85 69.85 -37.4 75.7 -15.55 67.5 5.75 L65.75 9.25 65.75 9.5 Q51.0 29.5 38.25 26.5 L35.25 26.5 Q14.5 31.0 -2.5 -2.75 L-4.5 -9.0 -4.7 -9.75 Q-6.0 -18.75 -5.1 -27.55 -3.6 -42.0 9.75 -48.5 M8.0 163.75 L9.75 164.0 12.0 167.25 Q23.1 164.85 33.75 160.75 L34.0 160.75 Q41.25 159.1 48.05 156.4 55.35 153.5 62.25 149.5 L91.0 137.5 93.25 137.0 93.75 136.25 104.0 131.5 107.5 139.75 109.75 147.75 110.5 154.0 Q111.0 193.0 55.25 201.0 30.5 204.25 16.75 193.0 11.5 190.5 8.0 163.75 M-97.75 124.0 L-93.25 117.0 -84.8 122.55 Q-75.55 128.65 -65.0 132.25 -52.25 142.25 -38.75 151.1 -33.5 154.5 -27.5 156.75 -20.5 159.25 -13.35 161.15 -9.15 162.25 -4.75 162.75 L-8.5 183.5 Q-12.25 192.5 -14.0 193.25 L-14.75 194.5 -20.0 197.5 -30.75 200.75 -41.75 201.5 -52.25 200.75 Q-108.75 192.75 -107.5 153.5 L-107.25 152.75 -104.75 140.5 -97.75 124.0" fill="#e58508" fill-rule="evenodd" stroke="none"/>
    <path d="M101.5 -4.5 L101.0 -5.25 101.5 -5.5 102.25 -4.25 104.0 0.75 Q107.25 4.5 108.25 8.75 L127.75 44.75 133.0 51.75 143.5 70.75 144.75 71.5 132.25 78.75 141.5 73.0 133.75 59.5 125.75 83.0 93.75 103.0 Q105.5 84.5 98.0 77.75 L107.0 69.0 116.0 55.0 107.25 17.75 101.25 -2.75 101.5 -4.5 M174.75 78.5 Q181.25 88.25 166.5 96.0 L145.25 111.5 104.25 131.25 106.0 136.75 105.0 136.75 101.75 140.0 102.0 140.5 89.5 155.25 88.75 157.0 86.75 158.5 87.0 159.0 55.75 177.5 Q21.75 183.0 19.5 188.25 31.25 202.5 73.75 192.5 109.25 178.5 109.5 163.5 111.0 165.25 105.25 176.25 L98.75 184.0 Q80.75 199.75 47.5 201.5 L33.0 200.75 Q24.75 199.0 19.5 195.75 9.0 186.5 8.25 163.75 L-4.0 162.75 Q-6.0 206.25 -41.0 201.5 L-53.25 200.75 -72.25 196.75 -81.25 193.25 -87.75 189.75 -95.25 184.25 -101.75 176.75 -105.75 167.75 -106.8 163.8 -106.7 163.8 Q-97.9 185.65 -65.25 193.75 -19.75 200.5 -12.5 188.0 -14.5 182.0 -50.75 169.5 -77.5 140.25 -101.25 133.5 -100.0 126.25 -93.0 117.0 L-109.25 101.25 -117.0 88.75 -120.0 81.75 -122.25 72.75 -124.0 60.5 Q-127.0 36.25 -105.25 -10.25 -106.25 -11.75 -111.25 -9.0 L-167.0 10.75 -159.65 29.2 Q-170.0 9.8 -178.75 8.5 L-143.25 -5.0 -142.25 -5.0 -143.25 -4.75 -143.5 -4.25 -142.75 -4.25 -118.75 -13.0 -114.75 -13.5 -60.5 -35.0 Q-131.75 52.0 -112.75 74.5 -105.0 92.5 -72.5 107.25 L-73.0 108.0 -72.5 109.25 -53.5 132.0 -51.0 133.75 -20.5 148.25 15.5 152.75 19.75 152.5 8.75 161.75 11.25 166.25 24.75 162.25 51.75 149.75 142.0 103.75 159.75 91.5 Q162.5 96.0 174.25 87.75 L174.75 78.5 M43.0 136.0 L44.0 135.5 43.5 136.25 43.0 136.0 M28.0 146.5 L29.0 146.0 28.5 146.75 28.0 146.5 M33.0 143.0 L34.0 142.5 33.5 143.25 33.0 143.0 M38.0 139.5 L39.0 139.0 38.5 139.75 38.0 139.5 M72.25 -25.5 Q82.75 86.75 41.0 87.5 3.0 85.5 -7.25 -20.0 3.5 25.25 35.0 26.25 65.75 29.5 72.25 -25.5 M-134.95 146.4 L-146.75 125.75 -162.75 95.25 -165.25 91.75 -173.25 75.5 -174.25 74.75 -176.25 69.75 -179.75 64.25 -194.75 34.75 Q-200.75 11.5 -204.25 10.25 L-205.25 4.5 Q-202.5 13.0 -202.0 4.0 L-202.0 6.25 -199.25 13.25 -197.75 19.75 -191.0 38.25 -139.5 136.25 -134.75 146.1 -134.95 146.4 M-201.75 10.25 L-201.75 9.5 -202.75 9.5 -201.75 10.25" fill="#000000" fill-opacity="0.49803922" fill-rule="evenodd" stroke="none"/>
  </g>
</svg>
