<?xml version="1.0" encoding="UTF-8" standalone="no"?>
<svg xmlns:ffdec="https://www.free-decompiler.com/flash" xmlns:xlink="http://www.w3.org/1999/xlink" ffdec:objectType="shape" height="273.0px" width="368.65px" xmlns="http://www.w3.org/2000/svg">
  <g transform="matrix(1.0, 0.0, 0.0, 1.0, 202.5, 71.25)">
    <path d="M8.0 -48.75 Q6.7 -50.0 5.95 -51.7 3.25 -57.7 4.65 -64.4 4.85 -65.45 6.0 -65.95 16.85 -70.45 28.65 -69.6 L34.05 -69.85 47.5 -71.05 Q53.4 -71.7 59.3 -70.0 61.1 -69.4 62.35 -67.9 L63.1 -66.45 Q64.55 -56.95 58.25 -50.0 50.0 -40.25 35.0 -47.5 21.0 -39.5 8.0 -48.75 M40.5 -56.5 Q32.0 -49.75 44.25 -47.25 55.0 -56.25 40.5 -56.5 M17.25 -57.5 L13.75 -56.25 Q11.5 -45.75 20.0 -46.5 28.0 -49.0 24.0 -54.5 23.75 -56.25 17.25 -57.5" fill="#ffffff" fill-rule="evenodd" stroke="none"/>
    <path d="M17.25 -57.5 Q23.75 -56.25 24.0 -54.5 28.0 -49.0 20.0 -46.5 11.5 -45.75 13.75 -56.25 L17.25 -57.5 M40.5 -56.5 Q55.0 -56.25 44.25 -47.25 32.0 -49.75 40.5 -56.5" fill="#000000" fill-rule="evenodd" stroke="none"/>
    <path d="M8.0 -48.75 Q21.0 -39.5 35.0 -47.5 50.0 -40.25 58.25 -50.0 61.7 -48.1 64.25 -45.15 69.85 -38.8 70.0 -30.25 L70.0 -23.85 69.5 -11.1 Q69.0 -2.85 66.25 5.0 61.95 17.0 50.7 23.3 48.8 24.4 46.75 24.95 39.45 26.6 31.95 26.6 L26.9 26.15 Q22.3 25.7 18.4 23.2 12.55 19.5 7.85 14.45 -4.35 1.35 -7.6 -16.2 -8.1 -18.85 -8.2 -21.5 -8.3 -24.55 -7.6 -27.5 -4.2 -41.35 8.0 -48.75 M8.0 163.75 L12.0 164.0 14.75 167.75 Q27.35 164.55 39.25 159.25 L50.0 156.75 60.25 150.5 103.5 130.75 108.0 141.25 109.75 147.5 110.5 154.0 Q111.0 193.0 55.25 201.0 30.5 204.25 16.75 193.0 11.5 190.5 8.0 163.75 M-97.75 124.0 L-93.75 117.5 -93.55 117.55 Q-80.3 127.15 -65.0 132.75 L-50.25 146.5 -38.75 152.75 -13.5 161.75 -4.75 162.75 -8.5 183.5 Q-12.25 192.5 -14.0 193.25 L-14.75 194.5 -20.0 197.5 -30.75 200.75 -41.75 201.5 -52.25 200.75 Q-108.75 192.75 -107.5 153.5 L-107.25 152.75 -104.75 140.5 -97.75 124.0" fill="#e58508" fill-rule="evenodd" stroke="none"/>
    <path d="M100.25 -5.75 L100.75 -6.0 104.75 2.75 106.25 4.25 118.5 27.5 122.5 32.75 129.0 45.25 Q129.35 46.35 130.5 46.75 L143.75 71.25 144.75 72.0 124.25 84.25 141.75 72.75 134.0 59.75 133.75 58.25 133.0 58.75 127.0 78.25 124.25 84.25 93.35 104.55 93.05 103.95 Q105.75 82.35 97.75 77.5 L107.5 67.5 116.0 54.0 112.25 37.25 100.75 -4.75 100.25 -5.75 M165.25 92.3 L166.15 93.55 146.75 108.5 103.5 130.5 105.75 136.0 Q104.5 135.25 101.25 139.75 L85.75 159.5 57.5 176.25 26.5 184.0 Q22.25 185.25 19.0 188.5 23.0 201.25 71.0 193.25 97.75 188.0 109.5 163.5 111.0 165.25 105.25 176.25 L98.75 184.0 Q80.75 199.75 47.5 201.5 L33.0 200.75 Q24.75 199.0 19.5 195.75 9.0 186.5 8.25 163.75 L-4.0 162.75 Q-7.5 187.0 -14.25 194.25 -23.5 202.75 -52.0 201.0 L-72.25 196.75 -81.25 193.25 -93.25 185.75 -101.75 176.75 -105.75 167.75 -107.0 163.0 Q-97.75 186.0 -65.75 193.5 -22.5 202.0 -12.75 186.25 L-14.5 184.75 -18.5 183.5 -26.25 179.25 -52.0 169.0 Q-75.5 142.25 -102.0 134.25 L-97.75 124.0 -93.75 117.5 -109.75 101.75 -117.25 89.75 -119.75 84.25 -122.5 74.25 -124.75 60.25 Q-127.0 39.25 -108.25 -6.0 L-164.75 17.0 -162.4 22.25 -163.05 22.55 Q-165.8 20.0 -177.0 17.0 L-138.75 0.25 -89.0 -20.25 -61.75 -33.0 Q-129.0 53.75 -113.0 74.75 -106.0 92.5 -72.25 107.75 L-73.0 108.5 -72.25 109.75 -53.0 132.75 -48.25 135.5 -20.0 148.5 Q19.5 155.0 24.25 150.75 L26.0 150.75 21.5 153.5 11.5 162.5 14.0 166.75 27.25 162.25 39.5 156.25 91.0 129.0 126.5 111.5 153.25 96.0 Q160.0 91.75 160.0 90.5 L164.75 92.5 165.25 92.3 M29.5 148.25 L29.0 148.0 30.0 147.5 29.5 148.25 M121.25 112.25 L120.75 112.0 122.0 111.5 121.25 112.25 M70.75 -27.5 Q81.25 84.75 41.25 86.75 0.25 83.25 -8.75 -20.5 0.25 22.5 34.25 26.0 74.0 18.75 70.75 -27.5 M-124.25 156.15 L-124.25 155.25 -138.75 133.25 -162.25 93.5 -165.75 88.75 -166.0 87.25 -167.75 85.25 -185.25 54.25 -186.75 52.75 Q-206.25 17.75 -201.25 11.5 -200.25 11.5 -200.25 16.25 L-188.75 45.5 -174.25 69.75 -170.75 76.75 -165.5 84.75 -164.5 87.75 -163.0 89.25 -145.5 119.5 -123.75 154.25 -123.3 155.25 -124.25 156.15 M-201.75 8.75 L-202.5 8.25 -202.25 7.5 -201.75 8.75" fill="#000000" fill-opacity="0.49803922" fill-rule="evenodd" stroke="none"/>
  </g>
</svg>
