<?xml version="1.0" encoding="UTF-8" standalone="no"?>
<svg xmlns:ffdec="https://www.free-decompiler.com/flash" xmlns:xlink="http://www.w3.org/1999/xlink" ffdec:objectType="shape" height="349.5px" width="410.65px" xmlns="http://www.w3.org/2000/svg">
  <g transform="matrix(1.0, 0.0, 0.0, 1.0, 198.3, 147.75)">
    <path d="M-103.5 137.75 L-141.5 112.0 -170.25 89.25 -171.25 88.25 -174.5 86.0 -190.75 67.5 -195.35 60.95 Q-198.3 55.3 -198.3 50.9 -198.3 43.5 -195.65 36.45 -193.4 33.55 -191.05 29.35 L-190.0 27.45 -170.0 6.0 -132.0 -30.25 -105.0 -53.0 -92.75 -61.0 -92.25 -61.5 Q-37.75 -142.5 -1.25 -147.75 43.0 -135.25 81.0 -76.25 113.5 -77.75 179.75 -40.75 L180.25 -40.5 181.75 -39.5 182.0 -39.5 193.25 -33.75 198.0 -30.25 200.0 -28.25 200.75 -27.75 201.0 -27.0 202.25 -26.0 202.75 -25.25 203.0 -24.5 204.0 -23.75 204.75 -23.0 204.75 -22.75 206.0 -21.5 206.25 -21.0 207.25 -20.0 208.0 -19.0 208.5 -18.5 Q215.0 -15.75 210.5 6.75 203.0 32.75 190.5 31.75 L189.5 32.25 189.25 32.25 178.5 37.75 171.0 39.25 170.5 39.5 136.75 44.25 129.75 44.0 Q125.25 98.75 95.5 115.25 L91.25 118.25 88.75 120.5 86.25 122.25 82.25 124.25 81.0 125.75 80.5 126.25 64.75 144.25 36.75 158.75 8.25 165.0 -4.75 163.75 -13.75 162.75 Q-30.25 161.5 -42.0 154.75 L-62.5 144.75 -78.5 127.25 -79.25 127.0 -82.75 125.25 -84.25 124.75 -84.75 124.5 -85.75 123.75 -86.25 123.25 -88.5 122.0 -88.75 121.5 -89.25 121.25 -88.5 122.0 -86.75 123.75 -86.25 124.5 -70.25 142.25 -66.25 148.0 -63.0 151.75 -62.75 153.25 -63.5 154.5 -65.5 156.5 -68.5 157.25 -78.5 152.5 -78.75 152.5 -79.25 152.0 -79.75 151.75 -80.0 151.5 -95.0 142.75 -95.5 142.5 -95.75 142.5 -95.75 142.25 -96.25 142.0 -97.0 141.75 -97.25 141.75 -97.75 141.0 -103.5 137.75 M-121.75 86.75 Q-135.5 53.75 -127.25 16.5 L-163.5 45.5 -121.75 86.75" fill="#2e47aa" fill-rule="evenodd" stroke="none"/>
    <path d="M-103.5 137.75 L-97.75 141.0 -97.25 141.75 -97.0 141.75 -96.25 142.0 -95.75 142.25 -95.75 142.5 -95.5 142.5 -95.0 142.75 -80.0 151.5 -79.75 151.75 -79.25 152.0 -78.75 152.5 -78.5 152.5 -68.5 157.25 -65.5 156.5 -63.5 154.5 -62.75 153.25 -63.0 151.75 -66.25 148.0 -70.25 142.25 -86.25 124.5 -86.75 123.75 -88.5 122.0 -89.25 121.25 -88.75 121.5 -88.5 122.0 -86.25 123.25 -85.75 123.75 -84.75 124.5 -84.25 124.75 -82.75 125.25 -79.25 127.0 -78.5 127.25 -62.5 144.75 -42.0 154.75 Q-30.25 161.5 -13.75 162.75 L-4.75 163.75 -8.5 183.5 Q-12.25 192.5 -14.0 193.25 L-14.75 194.5 -20.0 197.5 -30.75 200.75 -41.75 201.5 -52.25 200.75 Q-108.75 192.75 -107.5 153.5 L-107.25 152.75 -106.5 146.75 -103.5 137.75 M8.25 165.0 L36.75 158.75 64.75 144.25 80.5 126.25 81.0 125.75 82.25 124.25 86.25 122.25 88.75 120.5 91.25 118.25 95.5 115.25 Q111.0 141.75 110.5 154.0 111.0 193.0 55.25 201.0 30.5 204.25 16.75 193.0 11.5 189.75 8.25 165.0" fill="#e58508" fill-rule="evenodd" stroke="none"/>
  </g>
</svg>
