<?xml version="1.0" encoding="UTF-8" standalone="no"?>
<svg xmlns:ffdec="https://www.free-decompiler.com/flash" xmlns:xlink="http://www.w3.org/1999/xlink" ffdec:objectType="shape" height="349.5px" width="412.25px" xmlns="http://www.w3.org/2000/svg">
  <g transform="matrix(1.0, 0.0, 0.0, 1.0, 201.75, 147.75)">
    <path d="M-99.25 128.0 Q-186.6 82.7 -196.5 61.45 -197.25 58.1 -198.8 53.95 -201.75 46.2 -201.75 39.7 -201.75 33.55 -199.2 28.75 -197.55 25.7 -193.55 21.4 L-189.6 16.9 -171.5 -1.25 -129.75 -37.25 -102.75 -57.75 -90.25 -64.5 Q-38.75 -141.0 -1.25 -147.75 35.0 -142.5 83.25 -73.5 L95.25 -71.0 123.25 -57.75 156.75 -37.25 173.25 -25.5 173.5 -25.5 174.25 -24.75 175.0 -24.25 175.5 -24.0 176.0 -23.5 176.5 -23.25 194.25 -10.5 Q217.5 8.0 207.5 26.0 L206.5 30.0 206.5 30.25 205.0 33.25 204.75 33.5 203.5 35.5 203.5 35.75 198.25 45.0 192.75 48.5 Q174.25 64.0 125.75 72.5 119.75 96.0 95.5 115.25 L91.25 118.25 88.75 120.5 86.25 122.25 82.25 124.25 81.5 125.25 80.25 126.5 64.75 144.25 36.75 158.75 8.25 165.0 -4.75 163.75 -13.75 162.75 Q-30.25 161.5 -42.0 154.75 L-62.5 144.75 -67.5 139.0 -69.75 139.75 -75.25 138.0 -76.25 137.5 -81.25 136.0 -82.0 135.5 -82.25 135.5 -84.25 134.75 -85.25 134.25 -86.75 133.75 -99.25 128.0 M-126.5 13.25 L-162.0 38.5 -128.5 69.0 -130.5 44.75 -129.75 31.75 -126.5 13.25" fill="#2e47aa" fill-rule="evenodd" stroke="none"/>
    <path d="M-99.25 128.0 L-86.75 133.75 -85.25 134.25 -84.25 134.75 -82.25 135.5 -82.0 135.5 -81.25 136.0 -76.25 137.5 -75.25 138.0 -69.75 139.75 -67.5 139.0 -62.5 144.75 -42.0 154.75 Q-30.25 161.5 -13.75 162.75 L-4.75 163.75 -8.5 183.5 Q-12.25 192.5 -14.0 193.25 L-14.75 194.5 -20.0 197.5 -30.75 200.75 -41.75 201.5 -52.25 200.75 Q-108.75 192.75 -107.5 153.5 L-107.25 152.75 -105.25 142.25 -99.25 128.0 M8.25 165.0 L36.75 158.75 64.75 144.25 80.25 126.5 81.5 125.25 82.25 124.25 86.25 122.25 88.75 120.5 91.25 118.25 95.5 115.25 Q111.0 141.75 110.5 154.0 111.0 193.0 55.25 201.0 30.5 204.25 16.75 193.0 11.5 189.75 8.25 165.0" fill="#e58508" fill-rule="evenodd" stroke="none"/>
  </g>
</svg>
