<?xml version="1.0" encoding="UTF-8" standalone="no"?>
<svg xmlns:ffdec="https://www.free-decompiler.com/flash" xmlns:xlink="http://www.w3.org/1999/xlink" ffdec:objectType="shape" height="349.5px" width="411.65px" xmlns="http://www.w3.org/2000/svg">
  <g transform="matrix(1.0, 0.0, 0.0, 1.0, 204.9, 147.75)">
    <path d="M-94.0 118.0 L-104.5 110.25 -108.5 105.25 -144.25 92.5 -179.0 73.75 -200.0 53.5 -202.0 49.0 -202.95 48.0 Q-204.9 42.4 -204.9 36.7 -204.9 22.6 -196.7 10.85 L-193.9 7.2 -189.5 3.5 -189.0 3.0 -188.0 2.25 -187.0 1.25 -186.5 1.0 -170.25 -13.5 -128.5 -45.25 -99.75 -63.5 -87.25 -68.5 Q-40.25 -139.0 -1.25 -147.75 44.0 -135.5 86.0 -69.75 L99.25 -64.25 128.25 -45.25 165.25 -16.25 186.25 3.25 197.25 12.25 201.0 19.0 201.0 19.25 201.25 19.75 206.75 28.5 Q207.0 35.0 204.0 41.25 L201.5 47.25 194.0 58.75 193.75 58.75 Q189.75 72.75 113.5 96.75 L105.75 106.75 95.5 115.25 89.75 119.5 88.75 120.5 86.25 122.25 82.25 124.25 81.5 125.25 80.5 126.25 64.75 144.25 36.75 158.75 8.25 165.0 -4.75 163.75 -13.75 162.75 Q-30.25 161.5 -42.0 154.75 L-62.5 144.75 -78.5 127.25 -79.25 127.0 -82.75 125.25 -84.25 124.75 -84.75 124.5 -85.5 124.0 -86.25 123.25 -86.75 123.0 -94.0 118.0 M124.75 12.5 L128.75 31.25 129.25 38.0 146.5 26.75 146.5 26.5 124.75 12.5 M-125.25 9.0 L-156.75 28.5 -130.0 50.0 -130.5 44.75 -129.5 29.25 -125.25 9.0" fill="#2e47aa" fill-rule="evenodd" stroke="none"/>
    <path d="M-94.0 118.0 L-86.75 123.0 -86.25 123.25 -85.5 124.0 -84.75 124.5 -84.25 124.75 -82.75 125.25 -79.25 127.0 -78.5 127.25 -62.5 144.75 -42.0 154.75 Q-30.25 161.5 -13.75 162.75 L-4.75 163.75 -8.5 183.5 Q-12.25 192.5 -14.0 193.25 L-14.75 194.5 -20.0 197.5 -30.75 200.75 -41.75 201.5 -52.25 200.75 Q-108.75 192.75 -107.5 153.5 L-107.25 152.75 -104.75 140.5 -97.75 124.0 -94.0 118.0 M8.25 165.0 L36.75 158.75 64.75 144.25 80.5 126.25 81.5 125.25 82.25 124.25 86.25 122.25 88.75 120.5 89.75 119.5 95.5 115.25 Q111.0 141.75 110.5 154.0 111.0 193.0 55.25 201.0 30.5 204.25 16.75 193.0 11.5 189.75 8.25 165.0" fill="#e58508" fill-rule="evenodd" stroke="none"/>
  </g>
</svg>
