<?xml version="1.0" encoding="UTF-8" standalone="no"?>
<svg xmlns:ffdec="https://www.free-decompiler.com/flash" xmlns:xlink="http://www.w3.org/1999/xlink" ffdec:objectType="shape" height="349.5px" width="412.35px" xmlns="http://www.w3.org/2000/svg">
  <g transform="matrix(1.0, 0.0, 0.0, 1.0, 209.1, 147.75)">
    <path d="M-94.0 118.0 Q-120.0 99.0 -126.25 76.25 -179.65 66.6 -196.3 49.85 L-200.9 44.3 Q-203.25 41.25 -204.9 38.15 L-205.5 37.0 -205.6 36.85 Q-209.1 29.85 -209.1 22.85 -209.1 9.15 -199.55 -4.6 L-197.95 -6.75 -197.0 -7.25 -196.75 -7.25 -172.5 -25.5 -127.25 -53.75 -98.0 -68.5 -85.0 -71.5 Q-37.5 -141.5 -1.25 -147.75 38.75 -140.75 89.5 -65.0 L102.75 -57.25 125.5 -39.25 156.75 -11.0 191.0 23.75 194.5 26.5 198.5 34.25 198.5 34.5 203.25 43.25 Q202.75 47.75 200.0 51.5 L200.0 51.75 192.75 64.75 169.0 84.5 Q165.9 86.15 162.75 87.75 L162.25 88.25 130.25 104.5 96.75 117.5 87.75 121.25 86.25 122.25 82.25 124.25 81.5 125.25 64.75 144.25 36.75 158.75 8.25 165.0 -4.75 163.75 -13.75 162.75 Q-30.25 161.5 -42.0 154.75 L-62.5 144.75 -78.5 127.25 -79.25 127.0 -82.75 125.25 -84.25 124.75 -84.75 124.5 -85.5 124.0 -86.25 123.25 -86.75 123.0 -94.0 118.0 M126.0 17.75 L128.75 31.75 129.75 42.5 128.5 56.25 152.75 38.5 126.0 17.75 M-123.75 3.5 L-146.5 15.0 -129.0 26.75 -127.0 15.5 -123.75 3.5" fill="#2e47aa" fill-rule="evenodd" stroke="none"/>
    <path d="M96.75 117.5 Q109.75 139.5 110.5 154.0 111.0 193.0 55.25 201.0 30.5 204.25 16.75 193.0 11.5 189.75 8.25 165.0 L36.75 158.75 64.75 144.25 81.5 125.25 82.25 124.25 86.25 122.25 87.75 121.25 96.75 117.5 M-4.75 163.75 L-8.5 183.5 Q-12.25 192.5 -14.0 193.25 L-14.75 194.5 -20.0 197.5 -30.75 200.75 -41.75 201.5 -52.25 200.75 Q-108.75 192.75 -107.5 153.5 L-107.25 152.75 -104.75 140.5 -97.75 124.0 -94.0 118.0 -86.75 123.0 -86.25 123.25 -85.5 124.0 -84.75 124.5 -84.25 124.75 -82.75 125.25 -79.25 127.0 -78.5 127.25 -62.5 144.75 -42.0 154.75 Q-30.25 161.5 -13.75 162.75 L-4.75 163.75" fill="#e58508" fill-rule="evenodd" stroke="none"/>
  </g>
</svg>
