<?xml version="1.0" encoding="UTF-8" standalone="no"?>
<svg xmlns:ffdec="https://www.free-decompiler.com/flash" xmlns:xlink="http://www.w3.org/1999/xlink" ffdec:objectType="shape" height="349.5px" width="409.7px" xmlns="http://www.w3.org/2000/svg">
  <g transform="matrix(1.0, 0.0, 0.0, 1.0, 210.2, 147.75)">
    <path d="M-94.0 118.0 Q-125.5 102.75 -130.25 47.25 L-147.75 48.5 -176.75 44.0 -177.0 44.0 -187.25 40.75 -196.55 35.3 Q-210.2 21.45 -210.2 0.55 -210.2 -12.95 -199.35 -23.85 L-197.0 -26.0 -196.25 -26.5 -177.0 -37.25 -176.75 -37.5 -175.75 -38.0 -175.5 -38.25 -163.0 -45.5 -126.5 -63.0 -97.0 -73.25 -82.5 -75.0 Q-40.5 -138.75 0.5 -147.75 36.25 -143.0 92.75 -60.5 L100.75 -55.25 127.75 -31.25 166.25 8.0 184.75 29.75 185.25 30.5 186.75 32.0 186.75 32.25 191.5 36.75 199.5 52.25 Q194.25 61.75 192.75 62.0 187.25 82.25 100.5 123.5 L92.5 127.25 90.5 128.0 90.25 128.25 85.5 130.75 84.0 131.25 83.0 131.75 72.5 136.0 71.5 136.5 64.75 144.25 36.75 158.75 8.25 165.0 -4.75 163.75 -13.75 162.75 Q-30.25 161.5 -42.0 154.75 L-62.5 144.75 -78.5 127.25 -79.25 127.0 -82.75 125.25 -84.25 124.75 -84.75 124.5 -85.5 124.0 -86.25 123.25 -86.75 123.0 -94.0 118.0 M155.5 46.25 L126.75 22.25 128.75 31.25 129.75 42.75 127.25 67.5 145.0 54.25 145.5 53.75 146.0 53.5 146.5 53.0 147.0 52.75 147.5 52.25 150.25 50.25 150.75 50.0 151.25 49.5 153.75 47.75 154.25 47.5 155.5 46.5 155.5 46.25" fill="#2e47aa" fill-rule="evenodd" stroke="none"/>
    <path d="M-94.0 118.0 L-86.75 123.0 -86.25 123.25 -85.5 124.0 -84.75 124.5 -84.25 124.75 -82.75 125.25 -79.25 127.0 -78.5 127.25 -62.5 144.75 -42.0 154.75 Q-30.25 161.5 -13.75 162.75 L-4.75 163.75 -8.5 183.5 Q-12.25 192.5 -14.0 193.25 L-14.75 194.5 -20.0 197.5 -30.75 200.75 -41.75 201.5 -52.25 200.75 Q-108.75 192.75 -107.5 153.5 L-107.25 152.75 -104.75 140.5 -97.75 124.0 -94.0 118.0 M8.25 165.0 L36.75 158.75 64.75 144.25 71.5 136.5 72.5 136.0 83.0 131.75 84.0 131.25 85.5 130.75 90.25 128.25 90.5 128.0 92.5 127.25 100.5 123.5 108.0 141.25 109.75 147.5 110.5 154.0 Q111.0 193.0 55.25 201.0 30.5 204.25 16.75 193.0 11.5 189.75 8.25 165.0" fill="#e58508" fill-rule="evenodd" stroke="none"/>
  </g>
</svg>
