<?xml version="1.0" encoding="UTF-8" standalone="no"?>
<svg xmlns:ffdec="https://www.free-decompiler.com/flash" xmlns:xlink="http://www.w3.org/1999/xlink" ffdec:objectType="shape" height="349.5px" width="412.4px" xmlns="http://www.w3.org/2000/svg">
  <g transform="matrix(1.0, 0.0, 0.0, 1.0, 209.1, 147.75)">
    <path d="M-94.0 118.0 Q-120.0 99.25 -126.25 76.25 -181.25 66.75 -198.75 46.75 L-199.75 46.0 -200.25 45.25 -200.25 45.0 -200.75 44.5 -203.5 41.25 -205.25 37.0 -206.35 35.6 Q-209.1 28.55 -209.1 21.65 -209.1 7.25 -199.05 -3.45 -194.05 -8.4 -192.2 -10.65 L-192.1 -10.75 -171.75 -26.25 -126.5 -54.25 -97.5 -68.75 -85.0 -71.5 Q-37.5 -141.5 -1.25 -147.75 38.75 -140.75 89.5 -65.0 L101.25 -58.5 127.25 -37.75 153.25 -14.25 173.25 5.5 174.0 6.5 191.0 23.5 194.25 26.0 198.5 34.0 198.5 34.25 203.25 43.25 Q203.75 45.25 200.25 51.25 L193.0 64.5 169.0 84.5 Q165.9 86.15 162.75 87.75 L162.25 88.25 130.75 104.25 96.75 117.75 90.0 120.25 89.0 120.75 87.5 121.25 87.0 121.75 86.25 122.25 82.25 124.25 81.5 125.25 64.75 144.25 36.75 158.75 8.25 165.0 -4.75 163.75 -13.75 162.75 Q-30.25 161.5 -42.0 154.75 L-62.5 144.75 -78.5 127.25 -79.25 127.0 -82.75 125.25 -84.25 124.75 -84.75 124.5 -85.5 124.0 -85.75 124.0 -86.25 123.25 -86.75 123.0 -94.0 118.0 M126.0 17.75 L128.75 31.75 129.75 42.5 128.5 56.25 153.0 38.25 126.0 17.75 M-123.75 3.25 L-146.5 15.0 -129.0 26.75 -127.0 15.5 -123.75 3.25" fill="#2e47aa" fill-rule="evenodd" stroke="none"/>
    <path d="M96.75 117.75 Q110.25 140.5 110.5 154.0 111.0 193.0 55.25 201.0 30.5 204.25 16.75 193.0 11.5 189.75 8.25 165.0 L36.75 158.75 64.75 144.25 81.5 125.25 82.25 124.25 86.25 122.25 87.0 121.75 87.5 121.25 89.0 120.75 90.0 120.25 96.75 117.75 M-4.75 163.75 L-8.5 183.5 Q-12.25 192.5 -14.0 193.25 L-14.75 194.5 -20.0 197.5 -30.75 200.75 -41.75 201.5 -52.25 200.75 Q-108.75 192.75 -107.5 153.5 L-107.25 152.75 -104.75 140.5 -97.75 124.0 -94.0 118.0 -86.75 123.0 -86.25 123.25 -85.75 124.0 -85.5 124.0 -84.75 124.5 -84.25 124.75 -82.75 125.25 -79.25 127.0 -78.5 127.25 -62.5 144.75 -42.0 154.75 Q-30.25 161.5 -13.75 162.75 L-4.75 163.75" fill="#e58508" fill-rule="evenodd" stroke="none"/>
  </g>
</svg>
