<?xml version="1.0" encoding="UTF-8" standalone="no"?>
<svg xmlns:ffdec="https://www.free-decompiler.com/flash" xmlns:xlink="http://www.w3.org/1999/xlink" ffdec:objectType="shape" height="349.5px" width="415.15px" xmlns="http://www.w3.org/2000/svg">
  <g transform="matrix(1.0, 0.0, 0.0, 1.0, 208.1, 147.75)">
    <path d="M-94.0 118.0 L-104.5 110.25 -108.5 105.25 -143.25 92.75 -179.75 73.25 -182.75 70.0 -196.5 57.25 -199.3 54.35 -199.35 54.25 -201.2 51.45 -202.25 48.5 -203.6 47.2 Q-208.1 38.5 -208.1 31.05 -208.1 19.65 -196.7 9.05 L-195.55 8.0 -195.5 8.0 -195.0 7.75 -188.75 2.5 -188.0 1.75 -187.25 1.25 -186.0 0.0 -185.0 -0.75 -169.75 -14.25 -128.0 -45.75 -101.75 -62.25 -87.25 -68.5 Q-40.5 -138.75 -1.25 -147.75 44.0 -135.5 86.0 -69.75 L98.0 -65.0 126.75 -46.5 167.75 -14.5 186.25 3.0 197.25 12.0 201.25 19.25 Q211.25 28.75 204.0 41.0 L204.0 41.25 202.75 45.0 194.5 58.25 173.5 74.5 132.5 91.75 113.5 96.75 105.75 106.75 95.5 115.25 89.75 119.5 88.75 120.5 86.25 122.25 82.25 124.25 81.5 125.25 80.25 126.5 64.75 144.25 36.75 158.75 8.25 165.0 -4.75 163.75 -13.75 162.75 Q-30.25 161.5 -42.0 154.75 L-62.5 144.75 -78.5 127.25 -79.25 127.0 -82.75 125.25 -84.25 124.75 -85.0 124.25 -85.5 124.0 -86.25 123.25 -86.75 123.0 -94.0 118.0 M125.0 12.5 L128.75 31.5 129.25 38.0 146.75 26.5 125.0 12.5 M-125.25 8.75 L-156.75 28.25 -130.25 49.75 -130.5 42.75 -129.5 29.25 -125.25 8.75" fill="#2e47aa" fill-rule="evenodd" stroke="none"/>
    <path d="M-94.0 118.0 L-86.75 123.0 -86.25 123.25 -85.5 124.0 -85.0 124.25 -84.25 124.75 -82.75 125.25 -79.25 127.0 -78.5 127.25 -62.5 144.75 -42.0 154.75 Q-30.25 161.5 -13.75 162.75 L-4.75 163.75 -8.5 183.5 Q-12.25 192.5 -14.0 193.25 L-14.75 194.5 -20.0 197.5 -30.75 200.75 -41.75 201.5 -52.25 200.75 Q-108.75 192.75 -107.5 153.5 L-107.25 152.75 -104.75 140.5 -97.75 124.0 -94.0 118.0 M8.25 165.0 L36.75 158.75 64.75 144.25 80.25 126.5 81.5 125.25 82.25 124.25 86.25 122.25 88.75 120.5 89.75 119.5 95.5 115.25 Q111.0 141.75 110.5 154.0 111.0 193.0 55.25 201.0 30.5 204.25 16.75 193.0 11.5 189.75 8.25 165.0" fill="#e58508" fill-rule="evenodd" stroke="none"/>
  </g>
</svg>
