<?xml version="1.0" encoding="UTF-8" standalone="no"?>
<svg xmlns:ffdec="https://www.free-decompiler.com/flash" xmlns:xlink="http://www.w3.org/1999/xlink" ffdec:objectType="shape" height="349.5px" width="414.05px" xmlns="http://www.w3.org/2000/svg">
  <g transform="matrix(1.0, 0.0, 0.0, 1.0, 203.35, 147.75)">
    <path d="M-99.5 128.0 Q-165.75 93.15 -187.35 73.2 -189.65 70.15 -194.05 65.0 L-197.45 59.65 -197.75 58.25 -199.25 55.75 -199.7 55.25 Q-203.35 47.15 -203.35 39.15 -203.35 32.25 -194.35 21.55 L-193.25 20.25 -171.5 -1.5 -134.0 -33.75 -101.0 -59.0 -90.25 -64.5 Q-38.75 -141.0 -1.25 -147.75 35.0 -142.5 83.25 -73.5 90.75 -75.0 119.25 -59.75 139.65 -47.35 160.0 -35.0 L173.75 -25.25 174.0 -25.25 174.75 -24.5 175.5 -24.0 176.0 -23.75 176.5 -23.25 177.0 -23.0 195.0 -9.75 Q217.75 8.75 207.5 26.0 L206.5 30.0 206.5 30.25 205.0 33.25 204.75 33.5 204.25 34.25 204.0 34.75 203.5 35.5 203.5 35.75 198.75 44.25 193.0 48.25 Q176.5 63.0 125.75 72.5 119.75 96.0 95.5 115.25 L91.25 118.25 88.75 120.5 86.25 122.25 82.25 124.25 64.75 144.25 36.75 158.75 8.25 165.0 -4.75 163.75 -13.75 162.75 Q-30.25 161.5 -42.0 154.75 L-62.5 144.75 -67.5 139.0 -70.0 139.75 -74.0 138.25 -75.5 138.0 -86.75 133.75 -91.0 131.75 -91.75 131.5 -92.5 131.0 -99.5 128.0 M-129.5 29.75 L-126.5 13.0 -162.25 38.25 -128.5 69.0 -130.5 44.75 -129.5 29.75 M134.75 11.25 L123.75 5.75 125.5 16.5 134.75 11.25" fill="#2e47aa" fill-rule="evenodd" stroke="none"/>
    <path d="M-99.5 128.0 L-92.5 131.0 -91.75 131.5 -91.0 131.75 -86.75 133.75 -75.5 138.0 -74.0 138.25 -70.0 139.75 -67.5 139.0 -62.5 144.75 -42.0 154.75 Q-30.25 161.5 -13.75 162.75 L-4.75 163.75 -8.5 183.5 Q-12.25 192.5 -14.0 193.25 L-14.75 194.5 -20.0 197.5 -30.75 200.75 -41.75 201.5 -52.25 200.75 Q-108.75 192.75 -107.5 153.5 L-107.25 152.75 -105.25 142.25 -99.5 128.0 M8.25 165.0 L36.75 158.75 64.75 144.25 82.25 124.25 86.25 122.25 88.75 120.5 91.25 118.25 95.5 115.25 Q111.0 141.75 110.5 154.0 111.0 193.0 55.25 201.0 30.5 204.25 16.75 193.0 11.5 189.75 8.25 165.0" fill="#e58508" fill-rule="evenodd" stroke="none"/>
  </g>
</svg>
