<?xml version="1.0" encoding="UTF-8" standalone="no"?>
<svg xmlns:ffdec="https://www.free-decompiler.com/flash" xmlns:xlink="http://www.w3.org/1999/xlink" ffdec:objectType="shape" height="97.3px" width="80.0px" xmlns="http://www.w3.org/2000/svg">
  <g transform="matrix(1.0, 0.0, 0.0, 1.0, 40.25, 70.0)">
    <path d="M13.5 -56.75 Q22.5 -52.25 12.25 -46.75 L8.0 -47.25 Q5.5 -49.5 5.75 -53.0 L8.5 -55.75 13.5 -56.75 M-15.5 -56.5 Q-0.25 -55.5 -11.25 -46.75 -22.75 -48.0 -15.5 -56.5" fill="#030409" fill-rule="evenodd" stroke="none"/>
    <path d="M13.5 -56.75 L8.5 -55.75 5.75 -53.0 Q5.5 -49.5 8.0 -47.25 L12.25 -46.75 Q22.5 -52.25 13.5 -56.75 M-25.75 -48.25 Q-32.5 -56.0 -30.5 -64.25 L-29.0 -66.25 -27.5 -67.25 -25.25 -68.25 -22.5 -69.0 -16.0 -70.0 -12.25 -70.0 -4.0 -69.25 -0.5 -68.25 3.5 -69.25 6.75 -69.5 7.25 -69.75 15.25 -70.0 21.5 -69.25 26.75 -67.5 28.5 -66.25 29.5 -65.0 30.0 -64.0 29.0 -55.75 25.5 -49.0 Q19.75 -39.25 -0.5 -46.5 -18.5 -39.25 -25.75 -48.25 M-15.5 -56.5 Q-22.75 -48.0 -11.25 -46.75 -0.25 -55.5 -15.5 -56.5" fill="#ffffff" fill-rule="evenodd" stroke="none"/>
    <path d="M25.5 -49.0 Q40.0 -39.0 39.5 -28.25 L39.75 -19.5 36.0 -1.0 34.0 3.75 34.0 4.0 Q24.0 27.75 1.0 27.25 L-1.5 27.25 Q-23.0 28.25 -34.75 3.75 L-35.5 2.0 -38.5 -8.0 -40.25 -20.75 -40.0 -27.75 Q-42.25 -35.0 -25.75 -48.25 -18.5 -39.25 -0.5 -46.5 19.75 -39.25 25.5 -49.0" fill="#e58508" fill-rule="evenodd" stroke="none"/>
  </g>
</svg>
