<?xml version="1.0" encoding="UTF-8" standalone="no"?>
<svg xmlns:ffdec="https://www.free-decompiler.com/flash" xmlns:xlink="http://www.w3.org/1999/xlink" ffdec:objectType="shape" height="202.75px" width="218.05px" xmlns="http://www.w3.org/2000/svg">
  <g transform="matrix(1.0, 0.0, 0.0, 1.0, 107.55, 1.0)">
    <path d="M82.25 124.25 L86.25 122.25 88.75 120.5 91.25 118.25 95.5 115.25 Q111.0 141.75 110.5 154.0 111.0 193.0 55.25 201.0 30.5 204.25 16.75 193.0 11.5 189.75 8.25 165.0 L36.75 158.75 64.75 144.25 80.5 126.25 81.0 125.75 82.25 124.25 M-4.75 163.75 L-8.5 183.5 Q-12.25 192.5 -14.0 193.25 L-14.75 194.5 -20.0 197.5 -30.75 200.75 -41.75 201.5 -52.25 200.75 Q-108.75 192.75 -107.5 153.5 L-107.25 152.75 -106.5 146.75 -103.5 137.75 -97.75 141.0 -97.25 141.75 -97.0 141.75 -96.25 142.0 -95.75 142.25 -95.75 142.5 -95.5 142.5 -95.0 142.75 -80.0 151.5 -79.75 151.75 -79.25 152.0 -78.75 152.5 -78.5 152.5 -68.5 157.25 -65.5 156.5 -63.5 154.5 -62.75 153.25 -63.0 151.75 -66.25 148.0 -70.25 142.25 -86.25 124.5 -86.75 123.75 -88.5 122.0 -89.25 121.25 -88.75 121.5 -88.5 122.0 -86.25 123.25 -85.75 123.75 -84.75 124.5 -84.25 124.75 -82.75 125.25 -79.25 127.0 -78.5 127.25 -62.5 144.75 -42.0 154.75 Q-30.25 161.5 -13.75 162.75 L-4.75 163.75" fill="#e58508" fill-rule="evenodd" stroke="none"/>
    <path d="M-78.5 127.25 L-80.75 124.75 -87.25 110.5 -87.5 107.5 Q-84.25 105.0 -85.0 99.5 -57.0 68.25 -37.25 6.0 L-35.5 2.0 -34.75 3.75 Q-23.0 28.25 -1.5 27.25 L1.0 27.25 Q24.0 27.75 34.0 4.0 L34.0 3.75 36.0 -1.0 38.25 5.25 45.0 20.0 46.75 25.75 Q39.0 35.5 50.25 36.0 L61.75 58.5 Q83.25 76.0 88.5 94.25 L89.25 107.75 88.75 112.0 82.25 124.25 81.0 125.75 80.5 126.25 64.75 144.25 36.75 158.75 8.25 165.0 -4.75 163.75 -13.75 162.75 Q-30.25 161.5 -42.0 154.75 L-62.5 144.75 -78.5 127.25" fill="#ffffff" fill-rule="evenodd" stroke="none"/>
  </g>
</svg>
