<?xml version="1.0" encoding="UTF-8" standalone="no"?>
<svg xmlns:ffdec="https://www.free-decompiler.com/flash" xmlns:xlink="http://www.w3.org/1999/xlink" ffdec:objectType="shape" height="224.5px" width="415.6px" xmlns="http://www.w3.org/2000/svg">
  <g transform="matrix(1.0, 0.0, 0.0, 1.0, 203.75, 23.0)">
    <path d="M85.25 -22.5 L107.75 -11.25 115.75 -8.75 98.0 -0.5 96.5 -1.5 85.25 -22.5 M211.5 -14.5 Q213.75 13.25 202.0 25.75 190.0 41.0 129.75 44.0 125.25 99.0 95.5 115.0 L99.75 122.25 104.25 132.25 102.5 132.0 Q96.75 137.0 92.75 138.0 94.25 143.25 72.75 164.5 L40.25 180.5 Q22.75 182.0 17.0 187.5 22.75 201.0 68.25 194.0 99.75 187.25 109.25 164.25 L110.0 163.5 109.75 166.0 105.25 176.0 Q91.5 198.25 47.5 201.5 L33.0 200.75 Q24.75 199.0 19.5 195.75 9.0 185.75 8.5 165.25 L-4.25 163.75 Q-6.75 184.5 -14.25 194.25 -23.75 202.75 -51.25 201.0 -75.0 198.0 -87.75 189.75 -105.25 177.75 -106.75 163.5 -96.5 187.5 -63.25 194.25 -23.25 201.25 -13.5 187.25 -19.75 181.5 -33.25 180.5 L-69.5 163.25 -80.75 151.0 -103.0 138.0 -138.25 114.25 -174.75 85.75 -192.25 65.75 -195.75 60.5 -196.25 59.25 -199.75 56.75 -203.75 49.0 Q-196.0 62.0 -191.0 55.0 L-177.0 71.25 -133.75 109.25 -97.5 137.0 -82.0 147.5 -78.25 151.0 -67.75 156.25 Q-67.25 153.25 -63.0 152.0 L-69.25 143.25 -97.5 112.25 -121.5 87.75 Q-135.0 64.0 -126.75 16.75 L-127.25 16.5 -163.5 45.25 -143.75 65.0 -169.25 40.75 -166.5 42.5 -139.75 20.0 -106.75 -5.75 -86.25 -23.0 -88.25 -17.5 -91.5 -11.75 -91.25 -11.0 -101.75 10.5 -102.0 12.5 -109.0 28.5 -117.75 54.5 -111.5 71.25 -96.75 88.75 -83.25 97.75 Q-86.0 99.0 -84.75 101.25 L-68.0 124.75 -36.5 146.25 -0.25 153.25 9.25 152.0 38.25 145.0 48.5 139.25 69.0 125.75 86.5 102.0 Q90.0 97.25 87.25 91.5 92.75 88.75 97.25 83.75 L107.25 72.5 118.5 51.25 118.75 49.75 116.75 43.5 90.5 42.5 62.75 38.75 46.0 35.0 45.25 34.75 44.5 33.4 44.5 30.8 Q51.55 38.9 93.75 40.0 L137.75 40.5 169.5 36.0 174.25 33.75 174.75 32.75 192.5 25.0 204.0 19.0 206.5 15.0 207.0 12.75 205.5 12.5 202.5 15.25 207.25 8.5 206.5 6.5 209.25 0.5 209.75 -6.25 Q210.25 -14.0 211.5 -14.5" fill="#000000" fill-opacity="0.49803922" fill-rule="evenodd" stroke="none"/>
  </g>
</svg>
