<?xml version="1.0" encoding="UTF-8" standalone="no"?>
<svg xmlns:ffdec="https://www.free-decompiler.com/flash" xmlns:xlink="http://www.w3.org/1999/xlink" ffdec:objectType="shape" height="202.75px" width="218.05px" xmlns="http://www.w3.org/2000/svg">
  <g transform="matrix(1.0, 0.0, 0.0, 1.0, 107.55, 1.0)">
    <path d="M-67.5 139.0 L-62.5 144.75 -42.0 154.75 Q-30.25 161.5 -13.75 162.75 L-4.75 163.75 -8.5 183.5 Q-12.25 192.5 -14.0 193.25 L-14.75 194.5 -20.0 197.5 -30.75 200.75 -41.75 201.5 -52.25 200.75 Q-108.75 192.75 -107.5 153.5 L-107.25 152.75 -105.25 142.25 -99.25 128.0 -86.75 133.75 -85.25 134.25 -84.25 134.75 -82.25 135.5 -82.0 135.5 -81.25 136.0 -76.25 137.5 -75.25 138.0 -69.75 139.75 -67.5 139.0 M8.25 165.0 L36.75 158.75 64.75 144.25 80.25 126.5 81.5 125.25 82.25 124.25 86.25 122.25 88.75 120.5 91.25 118.25 95.5 115.25 Q111.0 141.75 110.5 154.0 111.0 193.0 55.25 201.0 30.5 204.25 16.75 193.0 11.5 189.75 8.25 165.0" fill="#e58508" fill-rule="evenodd" stroke="none"/>
    <path d="M-67.5 139.0 Q-60.25 133.75 -74.75 122.5 L-87.75 108.75 -85.25 104.25 -85.0 99.25 -77.75 93.5 -76.25 90.0 -70.25 81.75 -57.75 58.25 -48.75 36.5 -44.5 21.5 -35.5 2.0 -34.75 3.75 Q-23.0 28.25 -1.5 27.25 L1.0 27.25 Q24.0 27.75 34.0 4.0 L34.0 3.75 36.0 -1.0 38.25 5.25 45.0 20.0 50.5 36.75 60.75 56.0 53.5 61.0 53.0 61.25 Q29.25 80.5 61.25 77.5 L79.5 77.0 Q96.5 90.25 82.25 124.25 L81.5 125.25 80.25 126.5 64.75 144.25 36.75 158.75 8.25 165.0 -4.75 163.75 -13.75 162.75 Q-30.25 161.5 -42.0 154.75 L-62.5 144.75 -67.5 139.0" fill="#ffffff" fill-rule="evenodd" stroke="none"/>
  </g>
</svg>
