<?xml version="1.0" encoding="UTF-8" standalone="no"?>
<svg xmlns:ffdec="https://www.free-decompiler.com/flash" xmlns:xlink="http://www.w3.org/1999/xlink" ffdec:objectType="shape" height="225.5px" width="417.5px" xmlns="http://www.w3.org/2000/svg">
  <g transform="matrix(1.0, 0.0, 0.0, 1.0, 207.75, 24.0)">
    <path d="M105.25 -9.0 L122.75 0.75 139.5 8.5 Q139.5 9.5 135.25 11.5 L123.75 5.75 125.75 16.75 109.0 26.5 108.25 26.25 100.5 7.75 86.0 -21.0 105.25 -9.0 M203.35 23.2 Q205.2 17.75 209.5 9.0 210.5 18.25 207.25 28.5 L198.25 45.0 Q175.0 64.75 125.75 72.5 123.75 90.25 95.5 115.0 L100.5 123.5 104.25 132.0 102.5 132.0 Q96.75 137.0 92.75 138.0 94.25 143.25 72.75 164.5 L40.25 180.5 Q22.75 182.0 17.0 187.5 23.75 200.75 66.0 194.5 99.25 188.5 109.5 163.5 111.0 166.25 101.75 180.5 92.25 196.5 47.5 201.5 L33.0 200.75 Q24.75 199.0 19.5 195.75 9.0 185.75 8.5 165.25 L-4.25 163.75 Q-6.75 184.5 -14.25 194.25 -23.75 202.75 -51.25 201.0 -75.0 198.0 -87.75 189.75 -105.25 177.75 -106.75 163.5 -96.5 187.5 -63.25 194.25 -23.25 201.25 -13.5 187.25 -19.75 181.5 -33.25 180.5 L-69.5 163.25 Q-93.25 132.75 -102.25 134.75 L-99.0 127.75 -103.25 126.25 -139.25 107.25 -165.75 89.75 -180.25 79.25 -195.5 62.0 Q-208.0 46.25 -207.75 40.0 L-204.75 40.75 -199.75 47.25 -198.0 51.25 -195.25 51.0 Q-196.0 54.0 -182.75 65.75 L-148.75 91.75 -109.75 117.75 -83.25 132.75 Q-71.5 139.25 -69.25 138.0 -64.5 135.5 -64.75 134.25 L-72.5 124.25 -97.75 98.5 -128.5 69.25 Q-133.75 41.75 -126.25 13.25 L-161.75 38.75 -164.95 36.2 -164.95 33.7 -161.25 30.75 -150.0 25.0 -107.5 -7.0 -86.25 -24.0 Q-129.25 55.25 -111.75 70.25 L-107.75 76.25 -96.75 88.75 -83.25 97.75 Q-86.0 99.0 -84.75 101.25 L-68.0 124.75 -36.5 146.25 0.25 153.25 Q39.75 151.0 69.0 125.75 L86.5 102.0 Q90.0 97.25 87.25 91.5 L92.5 88.25 100.25 81.0 Q99.75 79.75 104.25 75.75 L104.5 75.0 85.0 77.0 56.0 77.5 45.25 76.5 42.4 71.2 Q48.15 80.25 93.75 73.25 L136.5 66.5 177.25 52.75 190.0 45.75 201.5 38.0 202.3 31.65 202.5 31.5 202.35 31.3 203.4 23.1 203.35 23.2 M-68.25 139.0 L-67.75 139.25 -65.5 137.5 -65.0 136.0 Q-66.25 135.5 -68.25 139.0" fill="#000000" fill-opacity="0.49803922" fill-rule="evenodd" stroke="none"/>
  </g>
</svg>
