<?xml version="1.0" encoding="UTF-8" standalone="no"?>
<svg xmlns:ffdec="https://www.free-decompiler.com/flash" xmlns:xlink="http://www.w3.org/1999/xlink" ffdec:objectType="shape" height="202.75px" width="218.05px" xmlns="http://www.w3.org/2000/svg">
  <g transform="matrix(1.0, 0.0, 0.0, 1.0, 107.55, 1.0)">
    <path d="M-78.5 127.25 L-62.5 144.75 -42.0 154.75 Q-30.25 161.5 -13.75 162.75 L-4.75 163.75 -8.5 183.5 Q-12.25 192.5 -14.0 193.25 L-14.75 194.5 -20.0 197.5 -30.75 200.75 -41.75 201.5 -52.25 200.75 Q-108.75 192.75 -107.5 153.5 L-107.25 152.75 -104.75 140.5 -97.75 124.0 -94.0 118.0 -86.75 123.0 -86.25 123.25 -85.5 124.0 -84.75 124.5 -84.25 124.75 -82.75 125.25 -79.25 127.0 -78.5 127.25 M8.25 165.0 L36.75 158.75 64.75 144.25 80.5 126.25 81.5 125.25 82.25 124.25 86.25 122.25 88.75 120.5 89.75 119.5 95.5 115.25 Q111.0 141.75 110.5 154.0 111.0 193.0 55.25 201.0 30.5 204.25 16.75 193.0 11.5 189.75 8.25 165.0" fill="#e58508" fill-rule="evenodd" stroke="none"/>
    <path d="M-78.5 127.25 L-80.75 124.75 -87.0 110.75 -85.5 111.0 Q-53.0 116.5 -76.75 97.0 L-79.0 94.25 -77.75 93.5 Q-78.25 91.75 -71.0 83.0 L-58.0 59.0 -48.75 36.5 -44.5 21.5 -35.5 2.0 -34.75 3.75 Q-23.0 28.25 -1.5 27.25 L1.0 27.25 Q24.0 27.75 34.0 4.0 L34.0 3.75 36.0 -1.0 38.25 5.25 Q63.5 72.75 77.0 74.5 L53.0 92.75 Q27.0 112.0 58.0 108.75 L59.75 108.25 60.25 108.25 88.75 103.25 Q89.75 109.25 88.75 112.0 L82.25 124.25 81.5 125.25 80.5 126.25 64.75 144.25 36.75 158.75 8.25 165.0 -4.75 163.75 -13.75 162.75 Q-30.25 161.5 -42.0 154.75 L-62.5 144.75 -78.5 127.25" fill="#ffffff" fill-rule="evenodd" stroke="none"/>
  </g>
</svg>
