<?xml version="1.0" encoding="UTF-8" standalone="no"?>
<svg xmlns:ffdec="https://www.free-decompiler.com/flash" xmlns:xlink="http://www.w3.org/1999/xlink" ffdec:objectType="shape" height="224.75px" width="417.4px" xmlns="http://www.w3.org/2000/svg">
  <g transform="matrix(1.0, 0.0, 0.0, 1.0, 210.75, 23.25)">
    <path d="M106.0 -5.75 L150.75 24.25 146.75 26.75 125.0 12.5 129.75 38.0 115.5 47.75 114.75 47.25 109.0 30.25 99.0 6.25 85.5 -21.5 106.0 -5.75 M203.75 42.75 L194.25 58.75 174.25 74.25 134.0 91.25 113.5 96.75 106.0 106.5 96.25 114.5 95.5 115.75 99.75 122.25 104.25 132.0 102.5 132.0 Q96.75 137.0 92.75 138.0 94.25 143.25 72.75 164.5 L40.25 180.5 Q22.75 182.0 17.0 187.5 23.75 200.75 66.0 194.5 99.25 188.5 109.5 163.5 111.0 165.25 105.25 176.25 L100.25 182.25 Q76.0 202.0 47.5 201.5 L33.0 200.75 Q24.75 199.0 19.5 195.75 9.0 185.75 8.5 165.25 L-4.25 163.75 Q-6.75 184.5 -14.25 194.25 -23.75 202.75 -51.25 201.0 -75.0 198.0 -87.75 189.75 -105.25 177.75 -106.75 163.5 -96.5 187.5 -63.25 194.25 -23.25 201.25 -13.5 187.25 -19.75 181.5 -33.25 180.5 L-69.5 163.25 -89.5 141.0 Q-100.25 133.75 -102.25 134.75 L-98.25 125.25 -94.25 118.25 Q-94.25 116.25 -103.75 110.75 L-107.75 106.0 -109.0 104.75 -144.0 92.5 -178.0 74.25 -197.25 56.25 Q-208.5 46.25 -210.75 28.0 -204.75 25.75 -199.75 43.0 -195.5 41.75 -177.25 61.0 -178.75 62.0 -186.25 58.25 L-180.5 63.25 -169.75 70.0 Q-81.75 117.0 -66.75 108.5 -67.25 115.25 -76.0 113.0 L-68.0 124.75 -36.5 146.25 0.25 153.25 Q40.0 151.0 68.75 125.75 L77.5 115.0 85.0 104.0 Q56.45 110.9 46.75 108.65 L55.25 106.5 60.75 106.25 90.75 99.0 121.5 89.75 135.5 84.5 175.25 64.75 197.5 48.0 Q199.5 44.0 194.75 46.25 L196.0 40.75 Q203.5 42.0 205.75 27.0 208.25 32.0 203.75 42.75 M158.25 19.0 L162.75 17.0 159.0 19.25 158.25 19.0 M-115.75 -3.25 L-87.0 -23.25 Q-125.25 49.5 -114.75 62.5 -115.6 62.15 -116.5 61.75 L-130.0 50.25 -130.5 44.75 -129.5 29.25 -127.0 15.75 -125.0 9.25 -128.5 10.75 -156.25 28.5 -161.75 24.25 -150.0 16.75 Q-149.5 17.75 -147.25 16.0 L-120.5 -1.0 -115.75 -3.25" fill="#000000" fill-opacity="0.49803922" fill-rule="evenodd" stroke="none"/>
  </g>
</svg>
