<?xml version="1.0" encoding="UTF-8" standalone="no"?>
<svg xmlns:ffdec="https://www.free-decompiler.com/flash" xmlns:xlink="http://www.w3.org/1999/xlink" ffdec:objectType="shape" height="225.0px" width="416.45px" xmlns="http://www.w3.org/2000/svg">
  <g transform="matrix(1.0, 0.0, 0.0, 1.0, 213.45, 23.5)">
    <path d="M86.75 -20.75 L103.5 -6.0 118.75 5.25 157.0 35.75 153.0 38.5 126.0 17.75 Q132.25 49.75 128.5 56.25 L109.05 71.0 Q128.9 54.6 85.5 -21.0 L86.75 -20.75 M200.75 43.25 L203.0 42.5 Q190.5 87.5 96.75 117.5 L100.5 123.5 104.25 132.0 102.5 132.0 Q96.75 137.0 92.75 138.0 94.25 143.25 72.75 164.5 L39.75 180.75 Q23.0 182.0 17.25 187.25 23.75 201.0 66.25 194.5 99.0 187.25 108.75 165.75 108.25 162.25 110.0 165.0 L107.5 171.25 Q102.0 194.5 47.5 201.5 L33.0 200.75 Q24.75 199.0 19.5 195.75 9.0 185.75 8.5 165.25 L-4.25 163.75 Q-6.75 184.5 -14.25 194.25 -23.75 202.75 -51.25 201.0 -75.0 198.0 -87.75 189.75 -105.25 177.75 -106.75 163.5 -96.5 187.5 -63.25 194.25 -23.25 201.25 -13.5 187.25 -19.75 181.5 -33.25 180.5 L-69.5 163.25 -89.5 141.0 Q-100.25 133.75 -102.25 134.75 L-97.75 124.0 -93.75 117.75 Q-121.75 96.75 -125.75 77.5 -201.0 61.5 -207.25 36.25 L-211.75 27.75 Q-214.0 23.5 -213.25 12.0 -210.25 34.0 -190.5 44.5 L-150.0 64.5 Q-78.0 83.5 -68.5 74.0 -67.75 75.0 -71.25 78.75 L-81.0 80.0 -105.25 79.0 -96.75 88.75 -83.25 97.75 Q-86.0 99.0 -84.75 101.25 L-68.0 124.75 -36.5 146.25 -0.25 153.25 9.5 152.0 36.5 145.5 49.25 138.75 64.5 128.5 Q44.0 135.5 41.25 131.5 L40.0 128.75 Q46.0 136.5 81.5 119.25 L129.25 97.75 165.0 79.5 173.75 73.0 168.25 74.75 166.0 76.5 Q158.75 80.5 157.75 80.0 L165.75 75.5 174.0 67.75 185.25 60.0 189.75 56.25 189.5 54.5 192.5 55.25 196.5 48.0 200.75 43.25 M178.25 69.5 L178.75 69.75 191.25 60.5 Q189.0 59.25 180.25 67.25 180.75 68.5 178.25 69.5 M177.0 70.5 L177.5 70.75 178.0 70.0 177.0 70.5 M56.75 112.25 L56.25 112.0 57.25 111.5 56.75 112.25 M52.5 115.75 L52.0 115.5 53.0 115.0 52.5 115.75 M51.25 116.75 L50.75 116.5 51.75 116.0 51.25 116.75 M-90.0 -22.25 L-87.0 -23.5 -104.75 12.5 -111.0 27.25 -114.0 37.0 -129.25 27.0 -128.5 26.0 -127.0 15.5 -124.0 4.5 Q-124.75 3.25 -128.0 5.5 L-146.25 15.5 -151.5 12.25 -107.25 -11.0 -90.0 -22.25" fill="#000000" fill-opacity="0.49803922" fill-rule="evenodd" stroke="none"/>
  </g>
</svg>
