<?xml version="1.0" encoding="UTF-8" standalone="no"?>
<svg xmlns:ffdec="https://www.free-decompiler.com/flash" xmlns:xlink="http://www.w3.org/1999/xlink" ffdec:objectType="shape" height="163.25px" width="173.35px" xmlns="http://www.w3.org/2000/svg">
  <g transform="matrix(1.0, 0.0, 0.0, 1.0, 97.0, -2.5)">
    <path d="M18.75 2.5 Q21.9 9.85 23.75 17.5 32.9 54.85 59.8 81.3 87.75 108.65 68.5 138.25 L49.0 154.25 16.0 164.5 -3.5 165.75 Q-45.0 159.5 -58.75 148.5 L-76.75 135.5 -91.0 112.0 -97.0 98.0 -95.7 93.65 -95.3 91.85 Q-95.05 89.85 -95.5 88.0 -92.5 85.75 -90.7 82.75 -68.85 46.45 -53.25 6.75 -50.45 15.1 -43.1 19.75 -2.75 45.4 18.75 2.5" fill="#ffffff" fill-rule="evenodd" stroke="none"/>
  </g>
</svg>
