<?xml version="1.0" encoding="UTF-8" standalone="no"?>
<svg xmlns:ffdec="https://www.free-decompiler.com/flash" xmlns:xlink="http://www.w3.org/1999/xlink" ffdec:objectType="shape" height="225.0px" width="414.55px" xmlns="http://www.w3.org/2000/svg">
  <g transform="matrix(1.0, 0.0, 0.0, 1.0, 215.3, 23.5)">
    <path d="M-125.25 -0.75 L-130.5 -3.25 -111.0 -11.5 -87.25 -23.5 -99.0 -0.5 -102.25 4.5 -104.5 10.0 -122.75 0.75 -122.0 -2.0 -125.25 -0.75 M-154.5 41.0 L-153.75 41.75 -113.0 42.0 Q-73.0 40.25 -70.0 33.0 -72.75 42.25 -119.25 46.5 L-120.0 49.75 -111.75 70.25 -107.75 76.25 -96.75 88.75 -83.25 97.75 Q-86.0 99.0 -84.75 101.25 L-68.0 124.75 -36.5 146.25 0.0 153.25 9.5 152.0 39.5 144.5 38.5 142.5 Q39.75 141.75 41.75 145.75 L43.25 146.0 61.75 138.25 113.0 110.5 164.5 80.0 184.25 64.75 Q186.5 64.0 184.5 61.0 L184.95 59.5 190.75 61.5 Q195.5 57.0 195.25 56.0 L199.25 52.5 Q187.5 85.0 100.5 123.25 L104.25 132.25 102.5 132.0 Q96.75 137.0 92.75 138.0 94.25 143.25 72.75 164.5 L39.75 180.75 Q23.0 182.0 17.25 187.25 21.75 201.5 70.0 193.5 98.75 188.0 109.5 163.5 111.0 165.25 105.25 176.25 L99.0 183.75 Q76.75 201.25 47.5 201.5 L33.0 200.75 Q24.75 199.0 19.5 195.75 9.0 185.75 8.5 165.25 L-4.25 163.75 Q-6.75 184.5 -14.25 194.25 -23.5 202.75 -52.0 201.0 L-72.25 196.75 -81.25 193.25 -93.25 185.75 -101.75 176.75 -106.25 166.75 -106.75 163.5 Q-96.5 187.5 -63.25 194.25 -23.25 201.25 -13.5 187.25 -19.75 181.5 -33.25 180.5 L-69.5 163.25 -89.5 141.0 Q-100.25 133.75 -102.25 134.75 L-97.75 124.0 -93.75 117.75 Q-122.0 96.5 -125.5 78.0 L-128.25 69.25 -130.0 47.25 Q-191.0 52.0 -209.25 21.5 -215.75 19.75 -215.25 -6.75 -212.75 -6.0 -212.5 6.75 L-208.75 15.25 Q-200.5 21.5 -193.5 23.25 L-186.25 28.25 Q-198.0 24.5 -199.5 26.5 L-186.75 33.75 -158.0 40.75 -154.5 41.0 M155.75 46.5 L127.0 22.25 Q132.0 40.0 127.75 67.5 L107.0 83.25 88.25 98.75 Q87.0 98.25 88.5 94.5 L87.25 91.5 Q108.5 76.75 116.5 55.0 L108.25 30.25 101.0 12.75 85.5 -21.0 117.25 7.75 120.0 9.0 160.25 43.25 155.75 46.5 M128.5 67.25 L128.0 67.0 129.0 66.5 128.5 67.25 M141.5 57.0 L141.0 57.75 140.5 57.5 141.5 57.0 M80.25 104.5 L81.25 104.0 80.75 104.75 80.25 104.5 M75.25 108.5 L76.25 108.0 75.75 108.75 75.25 108.5 M79.0 105.5 L80.0 105.0 79.5 105.75 79.0 105.5 M77.75 106.5 L78.75 106.0 78.25 106.75 77.75 106.5 M77.0 107.75 L76.5 107.5 77.5 107.0 77.0 107.75 M71.5 112.25 L71.0 112.0 72.0 111.5 71.5 112.25 M46.25 133.75 L45.75 133.5 46.75 133.0 46.25 133.75 M87.5 99.0 L87.0 99.75 86.5 99.5 87.5 99.0 M84.5 101.75 L84.0 101.5 85.0 101.0 84.5 101.75 M85.25 100.5 L86.25 100.0 85.75 100.75 85.25 100.5 M82.5 103.0 L82.0 103.75 81.5 103.5 82.5 103.0 M83.25 102.75 L82.75 102.5 83.75 102.0 83.25 102.75" fill="#000000" fill-opacity="0.49803922" fill-rule="evenodd" stroke="none"/>
  </g>
</svg>
