<?xml version="1.0" encoding="UTF-8" standalone="no"?>
<svg xmlns:ffdec="https://www.free-decompiler.com/flash" xmlns:xlink="http://www.w3.org/1999/xlink" ffdec:objectType="shape" height="225.0px" width="416.85px" xmlns="http://www.w3.org/2000/svg">
  <g transform="matrix(1.0, 0.0, 0.0, 1.0, 213.6, 23.5)">
    <path d="M86.5 -21.0 L102.5 -7.0 126.75 11.25 157.0 35.5 153.0 38.25 126.0 17.75 Q132.25 49.75 128.5 56.25 L109.05 71.0 Q128.9 54.6 85.5 -21.0 L86.5 -21.0 M201.5 42.5 L203.25 42.5 Q190.5 87.5 96.75 117.5 L100.5 123.5 104.25 132.0 102.5 132.0 Q96.75 137.0 92.75 138.0 94.25 143.25 72.75 164.5 L39.75 180.75 Q25.75 181.5 17.75 187.0 24.0 199.0 56.0 196.5 90.75 190.5 103.25 175.5 114.5 150.5 105.25 176.25 L99.0 183.75 92.0 189.25 83.5 193.75 75.0 197.0 65.5 199.5 47.5 201.5 33.0 200.75 Q24.75 199.0 19.5 195.75 9.0 185.75 8.5 165.25 L-4.25 163.75 Q-6.75 184.5 -14.25 194.25 -23.75 202.75 -51.25 201.0 -75.0 198.0 -87.75 189.75 -105.25 177.75 -106.75 163.5 -96.5 187.5 -63.25 194.25 -23.25 201.25 -13.5 187.25 -19.75 181.5 -33.25 180.5 L-69.5 163.25 -89.5 141.0 Q-100.25 133.75 -102.25 134.75 L-97.75 124.0 -93.75 117.75 Q-121.75 96.75 -125.75 77.5 -200.75 62.0 -208.0 35.0 -215.0 25.0 -213.25 11.5 -210.0 34.5 -190.75 44.25 L-150.5 64.25 Q-78.0 83.5 -68.5 74.0 -67.75 75.0 -71.0 78.75 L-81.0 80.0 -105.25 79.0 -96.75 88.75 -83.25 97.75 Q-86.0 99.0 -84.75 101.25 L-68.0 124.75 -36.5 146.25 -0.25 153.25 9.5 152.0 36.5 145.5 49.25 138.75 64.5 128.5 54.25 131.5 Q43.75 134.25 42.5 132.75 L40.0 128.75 Q46.25 136.75 82.75 118.75 L126.75 99.0 165.0 79.5 174.0 73.0 168.75 74.5 Q167.25 76.5 158.75 79.5 L166.5 75.0 174.0 67.75 186.75 58.75 189.5 56.25 190.0 56.0 189.5 54.5 192.5 55.0 194.5 51.0 199.75 44.0 201.5 42.5 M52.0 116.25 L51.5 116.0 52.5 115.5 52.0 116.25 M47.0 120.75 L46.5 120.5 48.5 119.0 47.0 120.75 M-87.75 -23.5 L-87.0 -23.25 -102.25 6.5 -102.75 9.0 -110.75 26.5 -114.25 36.75 -128.75 27.25 -127.0 15.5 -123.25 3.25 -146.25 15.25 -151.25 12.25 -124.5 -2.5 -107.75 -10.75 -87.75 -23.5" fill="#000000" fill-opacity="0.49803922" fill-rule="evenodd" stroke="none"/>
  </g>
</svg>
