<?xml version="1.0" encoding="UTF-8" standalone="no"?>
<svg xmlns:ffdec="https://www.free-decompiler.com/flash" xmlns:xlink="http://www.w3.org/1999/xlink" ffdec:objectType="shape" height="225.0px" width="417.7px" xmlns="http://www.w3.org/2000/svg">
  <g transform="matrix(1.0, 0.0, 0.0, 1.0, 210.75, 23.5)">
    <path d="M104.75 -6.75 L151.0 24.0 147.0 26.5 125.0 12.5 129.75 38.0 115.5 47.75 100.0 8.25 85.5 -21.5 104.75 -6.75 M203.75 43.0 L194.5 58.5 174.5 74.0 135.75 90.5 114.0 96.5 106.0 106.5 95.75 114.75 95.5 115.75 99.75 122.25 104.25 132.0 102.5 132.0 Q96.75 137.0 92.75 138.0 94.25 143.25 72.75 164.5 L40.25 180.5 Q22.75 182.0 17.0 187.5 23.75 200.75 66.0 194.5 99.25 188.5 109.5 163.5 111.0 165.25 105.25 176.25 L100.0 182.5 Q80.25 200.5 47.5 201.5 L33.0 200.75 Q24.75 199.0 19.5 195.75 9.0 185.75 8.5 165.25 L-4.25 163.75 Q-6.75 184.5 -14.25 194.25 -23.75 202.75 -51.25 201.0 -75.0 198.0 -87.75 189.75 -105.25 177.75 -106.75 163.5 -96.5 187.5 -63.25 194.25 -23.25 201.25 -13.5 187.25 -19.75 181.5 -33.25 180.5 L-69.5 163.25 -89.5 141.0 Q-100.25 133.75 -102.25 134.75 L-98.25 125.25 -94.25 118.25 Q-94.25 116.25 -103.75 110.75 L-107.75 106.0 -109.0 104.75 -145.0 92.0 -178.5 73.75 -179.75 73.25 -200.0 53.0 Q-211.25 40.0 -210.75 27.5 -204.5 25.25 -200.25 42.75 -195.75 41.5 -178.25 60.25 L-178.5 60.75 Q-184.0 57.0 -186.75 57.75 L-181.0 62.75 -169.0 70.25 Q-81.5 116.75 -66.75 108.5 -68.75 115.75 -76.0 113.0 L-68.0 124.75 -36.5 146.25 0.25 153.25 Q40.25 152.25 72.25 122.0 L85.0 104.0 60.5 108.5 45.75 109.75 44.5 109.75 41.0 104.0 45.5 108.75 56.75 106.25 62.5 106.0 100.25 96.25 131.5 86.25 174.5 65.25 198.75 47.0 Q198.75 44.75 195.0 46.25 L196.0 41.0 Q202.75 41.5 206.25 27.0 208.5 30.5 203.75 43.0 M-115.0 -4.0 L-86.75 -23.5 Q-125.5 49.5 -114.75 62.5 L-130.0 49.75 -130.5 44.75 -129.5 29.25 -126.5 13.0 -125.0 8.5 -156.0 28.0 Q-157.5 28.75 -161.75 24.25 L-149.25 16.0 -148.25 16.25 -147.75 16.0 -148.25 15.5 -147.0 15.5 -120.5 -1.25 -115.0 -4.0" fill="#000000" fill-opacity="0.49803922" fill-rule="evenodd" stroke="none"/>
  </g>
</svg>
