<?xml version="1.0" encoding="UTF-8" standalone="no"?>
<svg xmlns:ffdec="https://www.free-decompiler.com/flash" xmlns:xlink="http://www.w3.org/1999/xlink" ffdec:objectType="shape" height="226.0px" width="417.35px" xmlns="http://www.w3.org/2000/svg">
  <g transform="matrix(1.0, 0.0, 0.0, 1.0, 207.75, 24.5)">
    <path d="M-85.75 -24.5 Q-129.5 55.0 -111.75 70.25 L-107.75 76.25 -96.75 88.75 -83.25 97.75 Q-86.0 99.0 -84.75 101.25 L-68.0 124.75 -36.5 146.25 0.0 153.25 Q40.5 151.0 69.0 125.75 L86.5 102.0 Q90.0 97.25 87.25 91.5 L92.5 88.25 100.25 81.0 Q99.75 79.75 104.5 75.5 L104.25 75.0 91.25 76.75 55.75 77.5 45.5 76.5 Q44.25 76.25 42.25 70.5 L46.75 75.75 63.5 75.5 94.0 73.25 136.5 66.5 178.5 52.25 190.75 45.25 201.5 38.0 202.0 36.0 Q201.5 35.7 200.8 35.65 205.8 30.6 206.0 21.5 L207.5 14.0 Q208.25 8.5 209.5 8.5 210.75 30.25 198.0 45.0 L176.75 58.5 166.75 62.25 136.75 70.5 125.75 72.5 Q123.75 90.25 95.5 115.0 L100.5 123.5 104.25 132.0 102.5 132.0 Q96.75 137.0 92.75 138.0 94.25 143.25 72.75 164.5 L40.25 180.5 Q22.75 182.0 17.0 187.5 23.75 200.75 66.0 194.5 99.25 188.5 109.5 163.5 111.0 165.25 105.25 176.25 L100.75 181.75 Q92.75 195.75 47.5 201.5 L33.0 200.75 Q24.75 199.0 19.5 195.75 9.0 185.75 8.5 165.25 L-4.25 163.75 Q-6.75 184.5 -14.25 194.25 -23.75 202.75 -51.25 201.0 -75.0 198.0 -87.75 189.75 -105.25 177.75 -106.75 163.5 -96.5 187.5 -63.25 194.25 -23.25 201.25 -13.5 187.25 -19.75 181.5 -33.25 180.5 L-69.5 163.25 Q-93.25 132.75 -102.25 134.75 L-99.25 127.75 -104.25 125.75 -138.25 107.75 -180.25 79.25 -196.0 61.5 Q-207.75 46.75 -207.75 39.5 L-205.5 40.0 -201.0 45.25 -198.25 50.75 -195.5 50.75 Q-196.0 53.75 -182.5 66.0 L-147.0 93.0 -109.25 118.0 -83.75 132.0 -83.5 132.75 -70.0 138.5 -64.75 134.5 -70.5 126.75 -96.5 99.75 -128.5 69.25 Q-133.75 41.75 -126.25 13.25 L-160.25 37.0 -161.5 38.75 -164.95 36.05 -164.95 33.5 -160.5 30.0 -153.25 26.75 -144.25 20.5 -106.0 -8.25 -85.75 -24.5 M-153.5 22.5 L-152.5 22.0 -153.0 22.75 -153.5 22.5 M-65.0 135.75 L-66.0 135.75 Q-65.25 136.5 -67.75 139.25 L-65.25 137.0 -65.0 135.75 M140.25 8.5 L135.25 11.5 124.0 5.75 125.75 16.75 109.0 26.5 108.25 26.25 101.0 8.75 86.0 -21.0 122.25 0.5 140.25 8.5" fill="#000000" fill-opacity="0.49803922" fill-rule="evenodd" stroke="none"/>
  </g>
</svg>
