<?xml version="1.0" encoding="UTF-8" standalone="no"?>
<svg xmlns:ffdec="https://www.free-decompiler.com/flash" xmlns:xlink="http://www.w3.org/1999/xlink" ffdec:objectType="shape" height="311.75px" width="381.8px" xmlns="http://www.w3.org/2000/svg">
  <g transform="matrix(1.0, 0.0, 0.0, 1.0, 155.0, 146.75)">
    <path d="M96.0 -55.5 L103.75 -48.75 121.75 -27.75 151.0 11.5 151.25 12.0 154.25 15.25 160.75 26.25 160.75 26.5 161.25 27.25 162.0 28.0 183.5 7.25 201.25 -7.5 213.5 -16.25 214.0 -16.5 Q234.0 -29.5 222.75 -5.75 L222.5 -5.25 222.0 -4.5 212.25 13.0 195.25 39.25 180.0 59.5 174.7 65.6 169.8 66.1 Q159.8 66.1 151.9 61.9 L147.7 59.5 147.75 58.75 143.75 55.75 129.5 40.5 Q125.5 100.5 95.5 115.25 L92.25 117.5 91.5 118.25 89.75 119.5 88.75 120.5 86.25 122.25 82.25 124.25 81.5 125.25 64.75 144.25 36.75 158.75 8.25 165.0 -13.75 162.75 Q-30.25 161.5 -42.0 154.75 L-62.5 144.75 -78.5 127.25 -79.25 127.0 -84.75 124.5 -85.75 123.75 -86.25 123.25 -86.75 123.0 -103.5 111.0 -107.25 106.75 -112.25 106.5 -137.25 102.0 Q-152.25 96.25 -152.0 92.75 L-152.25 92.5 -155.0 89.0 -152.25 72.5 -152.0 72.25 -151.25 70.0 -151.25 69.75 -139.0 36.5 -122.5 -0.25 Q-116.25 -33.0 -81.25 -77.0 -40.5 -135.25 -7.0 -146.75 38.5 -146.0 96.0 -55.5" fill="#2e47aa" fill-rule="evenodd" stroke="none"/>
  </g>
</svg>
