<?xml version="1.0" encoding="UTF-8" standalone="no"?>
<svg xmlns:ffdec="https://www.free-decompiler.com/flash" xmlns:xlink="http://www.w3.org/1999/xlink" ffdec:objectType="shape" height="311.8px" width="379.75px" xmlns="http://www.w3.org/2000/svg">
  <g transform="matrix(1.0, 0.0, 0.0, 1.0, 153.0, 147.05)">
    <path d="M92.25 -59.25 L103.25 -49.5 122.5 -28.25 149.5 6.5 150.0 7.25 150.5 7.75 150.75 8.25 152.25 9.5 159.0 20.0 159.0 20.25 160.5 22.5 161.25 23.25 168.75 15.25 184.0 0.5 201.25 -14.25 212.5 -22.5 213.0 -22.75 Q235.25 -34.75 221.5 -11.25 L211.5 7.5 196.0 32.25 178.95 55.7 Q169.65 60.75 159.95 60.75 154.7 60.75 150.4 57.25 L147.45 55.2 147.5 54.25 144.5 52.25 128.0 35.5 Q125.75 97.25 94.25 113.75 L88.0 119.0 86.0 120.25 85.5 120.5 84.0 121.0 80.75 125.0 80.5 125.5 80.0 126.0 67.5 141.75 Q53.4 149.65 39.25 157.5 L17.0 163.0 8.25 164.75 -20.75 162.5 -31.25 159.75 -60.5 146.5 -70.5 136.25 -77.5 129.75 -85.75 125.75 -86.75 125.5 -87.25 124.75 -87.75 124.25 -88.75 123.75 -95.0 119.75 -97.75 117.5 Q-149.0 108.5 -152.25 95.0 L-153.0 93.5 -150.75 77.25 -150.25 76.25 -139.75 44.0 -126.5 11.0 Q-117.5 -33.5 -85.5 -73.0 -44.5 -134.0 -11.5 -146.25 24.0 -155.5 92.25 -59.25" fill="#2e47aa" fill-rule="evenodd" stroke="none"/>
  </g>
</svg>
