<?xml version="1.0" encoding="UTF-8" standalone="no"?>
<svg xmlns:ffdec="https://www.free-decompiler.com/flash" xmlns:xlink="http://www.w3.org/1999/xlink" ffdec:objectType="shape" height="311.05px" width="376.85px" xmlns="http://www.w3.org/2000/svg">
  <g transform="matrix(1.0, 0.0, 0.0, 1.0, 152.25, 146.55)">
    <path d="M89.0 -62.0 L98.0 -55.0 118.5 -33.75 149.5 3.5 150.0 4.25 150.0 4.5 152.0 6.25 155.0 11.0 155.0 11.25 157.75 15.25 158.25 15.75 158.5 16.25 159.0 16.75 159.25 17.25 160.0 18.0 181.25 -3.5 199.25 -19.5 211.25 -28.75 Q232.0 -44.0 220.5 -17.5 L210.5 2.0 195.0 27.75 175.25 55.6 Q173.3 56.7 171.5 56.7 161.3 56.7 155.05 53.2 152.2 51.45 150.8 50.8 149.2 50.05 147.45 49.85 L144.75 48.25 126.25 30.75 Q127.0 92.5 93.5 112.0 L88.5 116.5 87.0 117.25 86.0 118.0 85.25 118.25 84.75 118.75 84.5 119.25 84.0 119.75 80.0 125.25 79.5 125.75 69.25 139.75 43.5 155.25 12.75 164.5 -20.0 162.75 -28.5 160.75 -57.75 148.75 -70.75 136.5 -71.25 135.75 -85.0 132.0 -86.25 131.5 -87.75 131.25 -88.75 130.75 -89.75 130.75 -90.5 130.5 -91.0 130.25 -93.25 129.75 -95.25 129.0 -117.5 122.5 -138.0 112.0 -139.75 111.25 -140.75 110.5 -141.25 110.25 Q-143.5 110.25 -152.25 100.0 L-150.5 94.0 -149.0 81.75 -148.5 79.5 -148.25 78.75 -147.75 77.75 -147.75 77.5 -139.0 47.75 -130.25 23.5 -122.0 -10.5 -113.75 -30.25 -98.0 -56.75 Q-47.0 -136.5 -14.25 -146.5 29.0 -148.0 89.0 -62.0" fill="#2e47aa" fill-rule="evenodd" stroke="none"/>
  </g>
</svg>
