<?xml version="1.0" encoding="UTF-8" standalone="no"?>
<svg xmlns:ffdec="https://www.free-decompiler.com/flash" xmlns:xlink="http://www.w3.org/1999/xlink" ffdec:objectType="shape" height="325.25px" width="376.4px" xmlns="http://www.w3.org/2000/svg">
  <g transform="matrix(1.0, 0.0, 0.0, 1.0, 152.0, 146.0)">
    <path d="M94.75 -58.25 L115.25 -38.25 150.25 1.75 153.75 6.25 154.25 7.25 154.5 7.5 155.5 9.0 156.0 9.5 156.25 10.0 156.75 10.5 157.0 11.0 157.5 11.5 158.75 13.25 159.25 13.25 165.0 6.75 183.0 -11.75 197.0 -24.5 213.0 -37.5 217.75 -39.75 Q230.0 -40.0 219.75 -24.5 L210.0 -4.5 194.5 22.5 179.75 44.5 178.35 46.3 Q171.1 52.2 160.2 52.2 157.55 52.2 153.6 48.65 150.05 45.4 146.65 45.1 L142.5 42.25 124.5 26.0 124.25 26.0 Q128.0 87.75 92.5 110.5 L89.5 113.5 87.25 115.0 86.5 115.25 86.0 115.75 84.0 118.75 83.75 119.25 79.75 125.0 79.25 125.5 72.0 135.75 69.75 138.25 43.0 155.25 14.0 164.25 9.75 164.0 10.0 164.25 11.0 165.0 12.0 166.0 12.25 166.0 21.25 173.75 19.0 178.25 18.0 179.25 10.25 178.0 Q6.45 176.5 2.5 176.0 L1.75 176.0 -16.75 170.75 -31.25 166.0 -75.75 149.75 -92.5 142.25 -94.75 141.5 -95.0 141.25 -95.5 141.0 -96.25 140.75 -96.75 140.75 -97.0 140.25 -98.0 140.0 -122.5 128.5 -142.0 114.25 Q-144.5 114.0 -152.0 102.0 L-148.0 94.25 -147.0 86.25 -147.0 85.75 -146.75 85.25 -146.0 82.25 -146.0 82.0 -139.0 55.25 -132.75 35.0 Q-130.5 -5.75 -103.5 -49.5 -50.25 -136.25 -18.25 -146.0 28.75 -145.75 85.75 -64.75 L94.75 -58.25" fill="#2e47aa" fill-rule="evenodd" stroke="none"/>
  </g>
</svg>
