<?xml version="1.0" encoding="UTF-8" standalone="no"?>
<svg xmlns:ffdec="https://www.free-decompiler.com/flash" xmlns:xlink="http://www.w3.org/1999/xlink" ffdec:objectType="shape" height="310.55px" width="369.65px" xmlns="http://www.w3.org/2000/svg">
  <g transform="matrix(1.0, 0.0, 0.0, 1.0, 146.45, 146.55)">
    <path d="M94.0 -59.5 L114.25 -40.5 148.5 -3.25 156.75 7.5 157.25 8.0 157.5 8.5 158.0 8.75 158.5 8.0 159.75 6.75 160.0 6.25 161.0 5.0 181.0 -16.5 197.0 -31.5 208.75 -41.0 214.0 -44.75 215.0 -45.25 Q229.25 -47.5 218.75 -30.75 L210.5 -13.0 195.75 14.0 175.25 45.5 171.75 48.55 167.1 48.9 Q163.25 48.9 155.4 45.0 150.3 42.5 147.25 41.6 L147.25 41.25 143.25 39.0 123.0 21.5 122.5 21.5 Q128.5 83.5 91.5 109.25 L88.5 111.75 87.5 112.25 84.75 116.5 84.25 117.5 78.5 126.5 77.5 127.75 72.25 135.75 46.25 153.5 17.25 163.5 -5.0 164.0 -14.0 163.75 -23.0 162.5 -54.25 151.75 -71.5 137.25 -72.75 137.0 -79.25 135.0 -85.25 132.0 -86.5 132.0 -89.25 131.5 -90.25 131.5 -92.5 131.0 -93.5 131.0 -100.25 130.0 -112.0 127.25 -135.5 118.5 Q-149.25 111.0 -145.75 106.25 L-145.5 105.0 -144.75 90.25 -144.5 89.5 -144.5 89.25 -134.75 47.0 -134.5 46.25 Q-132.5 -4.5 -105.5 -47.25 -72.75 -108.75 -29.25 -141.5 3.0 -166.5 82.25 -67.75 L94.0 -59.5" fill="#2e47aa" fill-rule="evenodd" stroke="none"/>
  </g>
</svg>
