<?xml version="1.0" encoding="UTF-8" standalone="no"?>
<svg xmlns:ffdec="https://www.free-decompiler.com/flash" xmlns:xlink="http://www.w3.org/1999/xlink" ffdec:objectType="shape" height="310.1px" width="364.3px" xmlns="http://www.w3.org/2000/svg">
  <g transform="matrix(1.0, 0.0, 0.0, 1.0, 142.5, 146.1)">
    <path d="M147.25 -7.0 L148.5 -5.75 148.75 -5.25 149.5 -4.5 156.5 4.0 157.25 3.25 158.0 2.25 159.25 1.0 162.25 -3.25 174.75 -16.75 193.5 -35.25 207.25 -47.0 208.5 -48.25 215.0 -52.25 Q227.0 -53.0 217.75 -37.25 L209.25 -18.25 193.5 11.75 175.7 39.45 Q169.75 42.9 165.65 42.9 159.6 42.9 153.4 39.7 149.4 37.65 146.65 36.9 L146.5 36.75 142.75 34.75 122.5 18.25 122.0 17.75 121.25 17.25 120.75 17.0 120.5 17.0 Q128.25 80.5 90.75 107.75 L88.5 109.25 79.0 125.5 77.25 127.75 75.5 131.25 74.0 133.5 52.5 149.5 48.0 152.25 22.75 162.0 17.25 163.25 -14.25 164.0 -22.5 162.5 -52.0 153.25 -69.5 139.5 -75.75 138.0 -84.0 134.5 -84.75 134.0 -85.5 133.75 -86.5 133.25 -87.25 133.0 -89.5 131.75 -90.25 131.5 -90.5 131.5 -91.0 131.0 -91.25 131.0 Q-92.85 130.15 -94.5 129.25 L-95.25 129.0 -98.5 127.0 -98.75 127.0 -101.75 124.5 -102.0 124.5 -104.0 124.25 -105.0 124.25 -107.0 124.0 -108.25 124.0 -110.0 123.75 -111.25 123.75 -113.0 123.5 -114.25 123.5 -116.0 123.25 -125.75 122.75 -126.25 122.5 -127.25 122.5 -137.75 118.0 -140.0 116.75 -140.25 114.75 -142.5 112.5 -142.25 93.5 -142.0 92.0 -141.75 91.5 -141.75 90.75 -135.5 58.25 Q-137.75 21.25 -117.0 -26.75 -71.75 -114.75 -32.5 -140.75 -1.0 -166.25 78.75 -70.5 L90.25 -63.0 113.25 -42.75 142.0 -13.25 147.25 -7.0" fill="#2e47aa" fill-rule="evenodd" stroke="none"/>
  </g>
</svg>
