<?xml version="1.0" encoding="UTF-8" standalone="no"?>
<svg xmlns:ffdec="https://www.free-decompiler.com/flash" xmlns:xlink="http://www.w3.org/1999/xlink" ffdec:objectType="shape" height="310.2px" width="360.05px" xmlns="http://www.w3.org/2000/svg">
  <g transform="matrix(1.0, 0.0, 0.0, 1.0, 139.75, 145.7)">
    <path d="M88.25 -65.0 L106.5 -49.75 130.0 -27.5 146.75 -10.25 155.25 -0.75 155.75 -1.5 156.5 -2.25 156.5 -2.5 161.0 -8.5 176.0 -25.0 194.0 -43.0 206.5 -54.0 210.0 -56.5 210.5 -56.75 213.0 -58.25 Q225.75 -59.5 216.25 -43.5 L216.0 -42.75 Q193.05 13.25 171.85 36.65 L162.05 37.6 Q157.45 37.6 150.25 35.05 L146.4 33.7 146.0 32.5 141.75 30.25 126.0 18.0 125.25 17.5 124.75 17.0 122.0 15.0 121.5 14.5 121.0 14.25 120.5 13.75 120.0 13.5 119.5 13.0 118.75 12.75 118.5 12.75 Q128.5 76.5 89.25 106.25 L85.25 114.0 84.25 115.5 84.0 116.25 83.5 117.0 83.25 117.75 82.75 118.25 80.75 122.25 79.5 124.0 79.25 124.5 78.75 125.25 78.25 126.5 75.5 131.25 52.25 149.5 38.0 156.0 22.0 162.5 -5.0 164.5 -14.25 164.0 -37.25 158.75 Q-51.0 155.25 -51.75 153.25 L-67.5 141.75 -78.5 139.0 -85.5 135.75 -86.25 135.5 -87.0 135.0 -87.75 134.75 -89.75 133.75 -90.75 133.5 -91.0 133.5 -91.75 133.25 -91.75 133.0 -93.25 132.25 -94.0 132.0 -99.5 128.75 -107.0 122.75 -108.25 122.75 -109.0 123.0 -118.0 124.75 -120.0 124.75 -120.75 124.5 -121.5 124.5 -122.25 124.25 -123.25 124.25 -123.75 124.0 -125.0 124.0 -125.5 123.75 -126.0 123.75 -132.0 122.75 -133.0 121.5 -133.25 121.25 Q-137.75 120.0 -139.5 116.5 L-139.75 98.0 -139.5 96.75 -139.5 92.25 -138.5 91.25 -138.5 90.25 -135.5 71.25 -135.5 71.0 Q-140.75 23.25 -117.25 -27.5 -78.0 -107.75 -35.75 -140.0 -5.25 -166.0 75.25 -73.0 L88.25 -65.0" fill="#2e47aa" fill-rule="evenodd" stroke="none"/>
  </g>
</svg>
