<?xml version="1.0" encoding="UTF-8" standalone="no"?>
<svg xmlns:ffdec="https://www.free-decompiler.com/flash" xmlns:xlink="http://www.w3.org/1999/xlink" ffdec:objectType="shape" height="310.05px" width="364.55px" xmlns="http://www.w3.org/2000/svg">
  <g transform="matrix(1.0, 0.0, 0.0, 1.0, 142.5, 146.05)">
    <path d="M107.25 -47.5 L112.5 -43.5 148.75 -5.5 149.25 -4.75 150.0 -4.0 156.0 3.25 156.75 4.0 157.25 3.25 159.75 0.5 162.75 -3.75 176.5 -18.5 195.5 -37.0 207.5 -47.25 212.0 -50.5 214.75 -52.0 Q227.5 -53.0 217.75 -37.0 L209.5 -18.5 195.5 8.25 188.0 21.0 174.95 40.5 Q168.55 42.9 162.15 42.9 155.85 42.9 149.8 39.35 L147.05 37.85 147.0 37.0 145.0 36.0 122.25 18.0 121.75 17.5 120.75 17.0 120.5 17.0 Q128.75 79.0 90.75 107.75 L88.5 109.25 84.5 116.0 84.25 116.75 83.75 117.25 83.5 118.0 83.0 118.5 79.75 124.0 79.5 124.5 79.0 125.25 78.5 126.5 74.0 133.5 52.5 149.5 47.25 152.75 20.25 163.0 -5.0 164.0 -14.25 164.0 -22.5 162.5 -52.0 153.25 -69.5 139.5 -75.75 138.0 -84.0 134.5 -84.75 134.0 -85.5 133.75 -86.5 133.25 -87.25 132.75 -89.75 131.75 -94.5 129.25 -95.25 129.0 -98.5 127.0 -98.75 127.0 -104.0 122.75 -116.75 122.25 -123.5 122.5 -124.0 122.25 -125.5 122.25 -126.5 122.0 -138.5 117.5 -139.0 115.75 -142.5 112.0 -142.0 92.75 -141.75 92.25 -141.75 91.25 -135.5 58.75 Q-138.75 24.0 -115.25 -30.0 -74.0 -110.75 -32.75 -140.5 -1.0 -166.5 78.75 -70.5 L91.75 -62.0 107.25 -47.5" fill="#2e47aa" fill-rule="evenodd" stroke="none"/>
  </g>
</svg>
