<?xml version="1.0" encoding="UTF-8" standalone="no"?>
<svg xmlns:ffdec="https://www.free-decompiler.com/flash" xmlns:xlink="http://www.w3.org/1999/xlink" ffdec:objectType="shape" height="310.55px" width="368.9px" xmlns="http://www.w3.org/2000/svg">
  <g transform="matrix(1.0, 0.0, 0.0, 1.0, 145.25, 146.55)">
    <path d="M94.25 -59.5 L115.0 -40.0 145.0 -7.75 148.5 -3.0 149.25 -2.25 149.75 -2.0 150.75 -0.25 151.75 0.75 157.5 8.25 158.0 8.5 158.5 8.25 160.0 6.75 160.0 6.5 179.0 -14.25 196.5 -30.75 209.5 -41.5 213.5 -44.25 215.0 -45.0 Q230.0 -47.5 219.0 -30.5 L210.0 -11.25 194.25 17.25 174.75 46.25 171.35 49.15 166.6 49.55 Q159.35 49.55 152.75 45.35 L148.05 42.4 147.55 42.15 147.5 41.25 146.25 40.75 142.75 38.5 123.75 22.0 122.5 21.25 Q128.5 84.25 91.5 109.25 L88.75 111.75 87.5 112.25 84.5 117.25 84.0 117.75 83.75 118.25 80.0 124.25 79.5 124.75 79.25 125.5 72.25 135.75 46.25 153.5 17.25 163.75 -5.0 164.0 -14.0 163.75 -22.75 162.5 -49.0 153.75 -54.0 151.75 -71.75 137.0 -72.75 137.0 -79.0 135.0 -84.25 132.5 -85.0 132.0 -94.5 127.0 -96.75 125.5 -97.25 125.25 -99.5 125.25 -100.5 125.0 -102.75 125.0 -133.25 118.5 Q-146.0 112.5 -144.5 108.75 L-145.25 107.75 -144.5 90.75 -134.5 47.0 Q-131.0 -5.5 -109.75 -39.0 -74.0 -107.75 -28.5 -141.75 3.5 -166.0 82.5 -67.75 L94.25 -59.5" fill="#2e47aa" fill-rule="evenodd" stroke="none"/>
  </g>
</svg>
