<?xml version="1.0" encoding="UTF-8" standalone="no"?>
<svg xmlns:ffdec="https://www.free-decompiler.com/flash" xmlns:xlink="http://www.w3.org/1999/xlink" ffdec:objectType="shape" height="312.45px" width="374.3px" xmlns="http://www.w3.org/2000/svg">
  <g transform="matrix(1.0, 0.0, 0.0, 1.0, 149.5, 148.2)">
    <path d="M29.75 -127.0 L48.75 -109.0 68.25 -87.25 85.75 -65.0 94.75 -58.5 114.25 -39.5 149.75 0.75 155.75 9.0 156.25 9.5 156.5 10.0 157.0 10.5 157.0 10.75 157.75 11.5 157.75 11.75 158.25 12.25 158.25 12.5 159.0 13.25 159.0 13.5 160.25 12.5 161.0 11.75 161.75 10.75 182.0 -10.5 198.0 -25.0 210.75 -35.0 Q233.0 -48.25 220.0 -24.0 L210.5 -4.5 195.0 22.25 175.0 51.25 174.1 52.0 Q169.0 54.15 164.25 54.15 159.4 54.15 152.8 49.6 149.95 47.65 147.75 46.55 L147.75 45.75 143.75 43.25 124.75 26.0 Q128.25 86.5 92.5 110.75 L89.5 113.5 87.25 115.0 86.5 115.25 86.25 115.75 84.75 117.75 84.5 118.25 78.5 126.75 78.0 127.75 72.0 136.0 71.0 137.75 52.75 149.5 43.0 155.25 14.5 164.25 -14.0 163.5 -26.25 161.5 -55.5 150.5 -71.5 136.5 -72.0 135.75 -84.5 133.0 -85.75 132.5 -95.0 130.5 -95.75 130.25 -100.0 129.5 -114.75 125.5 -140.5 113.5 -149.5 104.75 -147.75 98.5 -146.5 85.75 -146.5 85.25 -146.25 84.75 -145.75 82.5 -145.75 82.25 -145.5 81.75 -138.0 52.75 -132.75 36.0 Q-130.25 -4.75 -103.75 -48.5 -48.5 -137.0 -20.25 -144.75 -10.5 -156.75 29.75 -127.0" fill="#2e47aa" fill-rule="evenodd" stroke="none"/>
  </g>
</svg>
