<?xml version="1.0" encoding="UTF-8" standalone="no"?>
<svg xmlns:ffdec="https://www.free-decompiler.com/flash" xmlns:xlink="http://www.w3.org/1999/xlink" ffdec:objectType="shape" height="311.05px" width="375.1px" xmlns="http://www.w3.org/2000/svg">
  <g transform="matrix(1.0, 0.0, 0.0, 1.0, 150.25, 146.55)">
    <path d="M89.25 -62.0 L97.75 -55.5 119.5 -33.0 149.5 3.5 150.25 4.25 158.5 16.0 159.0 16.5 159.25 17.0 160.0 18.0 160.5 18.0 164.0 14.5 164.5 13.75 181.0 -3.0 198.5 -18.5 211.75 -28.75 Q232.0 -44.0 221.0 -17.75 L210.75 2.25 194.75 28.75 174.75 56.5 172.05 58.65 165.1 59.45 Q159.05 59.45 153.15 53.95 150.05 51.0 148.65 50.15 147.3 49.25 145.85 48.85 L144.5 48.0 126.5 30.75 Q127.5 91.5 93.5 112.0 L90.0 115.25 88.25 116.5 85.5 118.0 85.0 118.75 84.25 119.5 84.0 120.0 69.0 140.0 43.5 155.25 12.75 164.5 -18.75 163.0 -28.0 161.0 -57.75 148.75 -75.25 132.25 -80.5 130.5 -92.75 123.5 -93.0 123.0 -96.75 122.5 Q-149.5 112.0 -150.25 99.5 L-148.75 81.75 -148.75 81.5 -148.25 79.75 -148.0 79.5 -147.75 78.5 -147.75 78.0 -147.5 77.75 -137.75 44.5 -130.0 23.5 Q-129.0 -4.75 -100.25 -53.0 -39.25 -144.75 -15.5 -145.75 22.0 -154.75 89.25 -62.0" fill="#2e47aa" fill-rule="evenodd" stroke="none"/>
  </g>
</svg>
