<?xml version="1.0" encoding="UTF-8" standalone="no"?>
<svg xmlns:ffdec="https://www.free-decompiler.com/flash" xmlns:xlink="http://www.w3.org/1999/xlink" ffdec:objectType="shape" height="311.5px" width="378.75px" xmlns="http://www.w3.org/2000/svg">
  <g transform="matrix(1.0, 0.0, 0.0, 1.0, 152.75, 146.75)">
    <path d="M92.75 -58.75 L101.75 -51.25 121.5 -29.5 150.5 7.75 151.0 8.5 152.5 9.75 159.25 20.25 159.25 20.5 160.25 22.0 160.75 22.5 161.0 23.0 167.25 17.0 168.25 15.75 183.75 0.75 202.0 -14.75 212.75 -22.5 Q233.75 -37.0 221.5 -11.0 L212.0 6.75 195.5 33.25 175.1 60.85 Q169.6 62.8 164.5 62.8 159.25 62.8 153.05 57.95 150.35 55.8 147.75 54.6 L147.75 54.25 145.0 52.5 128.0 35.5 Q126.25 96.75 94.25 113.75 L86.5 120.0 85.5 120.5 84.0 121.0 80.75 125.0 80.5 125.5 80.0 126.0 67.5 141.75 Q53.4 149.65 39.25 157.5 L17.0 163.0 8.25 164.75 -20.5 162.5 -30.75 160.0 -60.5 146.5 -76.75 129.75 -77.5 129.75 -78.75 129.0 -79.75 128.75 -81.0 128.25 -85.75 125.75 -87.25 124.75 -87.75 124.25 -88.75 123.75 -95.0 119.75 -102.0 114.5 -104.5 114.0 -106.25 114.0 -106.75 113.75 -108.25 113.75 -108.75 113.5 -110.5 113.5 -111.0 113.25 -112.75 113.25 -113.0 113.0 -140.25 105.75 -151.0 98.5 -151.25 96.0 -151.5 95.75 -152.75 94.0 -150.5 77.25 -149.25 73.5 -149.25 73.0 -139.25 43.0 -126.75 12.0 Q-116.5 -36.5 -84.5 -74.25 -42.25 -136.5 -10.25 -146.75 37.75 -144.0 92.75 -58.75" fill="#2e47aa" fill-rule="evenodd" stroke="none"/>
  </g>
</svg>
