<?xml version="1.0" encoding="UTF-8" standalone="no"?>
<svg xmlns:ffdec="https://www.free-decompiler.com/flash" xmlns:xlink="http://www.w3.org/1999/xlink" ffdec:objectType="shape" height="271.75px" width="381.5px" xmlns="http://www.w3.org/2000/svg">
  <g transform="matrix(1.0, 0.0, 0.0, 1.0, 154.75, 70.0)">
    <path d="M-25.75 -48.25 Q-28.1 -50.95 -29.4 -54.15 -30.15 -56.1 -30.5 -58.15 -30.8 -60.15 -30.4 -62.1 -29.95 -64.2 -28.5 -65.8 -26.2 -68.4 -22.5 -69.0 L-12.25 -70.0 -0.5 -68.25 6.8 -69.05 15.2 -69.5 Q21.0 -68.75 26.6 -67.0 28.9 -66.3 30.0 -64.0 29.5 -59.9 28.3 -55.95 27.25 -52.4 25.5 -49.0 19.75 -39.25 -0.5 -46.5 -18.5 -39.25 -25.75 -48.25 M36.0 -1.0 L38.25 5.25 45.0 20.0 50.5 36.75 62.0 58.75 Q83.25 75.75 88.5 94.25 L89.25 107.75 88.75 112.0 82.25 124.25 81.5 125.25 64.75 144.25 36.75 158.75 8.25 165.0 -4.75 163.75 -13.75 162.75 Q-30.25 161.5 -42.0 154.75 L-62.5 144.75 -78.5 127.25 Q-89.75 110.0 -86.5 106.5 L-51.5 105.25 -9.75 100.75 20.75 95.75 21.25 95.75 21.75 95.5 34.75 92.5 35.25 91.75 35.75 85.75 25.25 82.75 24.25 82.75 23.75 82.5 23.5 82.5 -11.25 75.5 -62.75 67.5 -58.0 59.0 -52.5 46.5 -44.5 22.0 -35.5 2.0 -34.75 3.75 Q-23.0 28.25 -1.5 27.25 L1.25 27.25 Q23.75 27.75 34.0 4.0 L34.0 3.75 36.0 -1.0 M5.75 -53.0 Q5.5 -49.5 8.0 -47.25 L12.25 -46.75 Q22.5 -52.25 13.5 -56.75 L8.5 -55.75 5.75 -53.0 M-11.25 -46.75 Q-0.25 -55.5 -15.5 -56.5 -22.75 -48.0 -11.25 -46.75" fill="#ffffff" fill-rule="evenodd" stroke="none"/>
    <path d="M5.75 -53.0 L8.5 -55.75 13.5 -56.75 Q22.5 -52.25 12.25 -46.75 L8.0 -47.25 Q5.5 -49.5 5.75 -53.0 M-11.25 -46.75 Q-22.75 -48.0 -15.5 -56.5 -0.25 -55.5 -11.25 -46.75" fill="#000000" fill-rule="evenodd" stroke="none"/>
    <path d="M-25.75 -48.25 Q-18.5 -39.25 -0.5 -46.5 19.75 -39.25 25.5 -49.0 40.0 -39.0 39.5 -28.25 L39.75 -19.5 36.0 -1.0 34.0 3.75 34.0 4.0 Q23.75 27.75 1.25 27.25 L-1.5 27.25 Q-23.0 28.25 -34.75 3.75 L-35.5 2.0 -38.5 -8.0 -40.25 -20.75 -40.0 -27.75 Q-42.25 -35.0 -25.75 -48.25 M82.25 124.25 L86.25 122.25 88.75 120.5 89.75 119.5 91.5 118.25 92.25 117.5 95.5 115.25 Q111.0 141.75 110.5 154.0 111.0 193.0 55.25 201.0 30.5 204.25 16.75 193.0 11.5 189.75 8.25 165.0 L36.75 158.75 64.75 144.25 81.5 125.25 82.25 124.25 M-4.75 163.75 L-8.5 183.5 Q-12.25 192.5 -14.0 193.25 L-14.75 194.5 -20.0 197.5 -30.75 200.75 -41.75 201.5 -52.25 200.75 Q-108.75 192.75 -107.5 153.5 L-107.25 152.75 -104.75 140.5 -97.75 124.0 -94.0 118.0 -86.75 123.0 -86.25 123.25 -85.75 123.75 -84.75 124.5 -79.25 127.0 -78.5 127.25 -62.5 144.75 -42.0 154.75 Q-30.25 161.5 -13.75 162.75 L-4.75 163.75" fill="#e58508" fill-rule="evenodd" stroke="none"/>
    <path d="M94.75 -4.25 L95.5 -4.5 109.75 11.25 111.25 11.75 150.25 52.75 Q151.4 54.85 153.35 56.45 159.8 61.6 164.0 61.6 L169.65 61.0 176.0 54.5 178.5 50.0 185.0 44.5 184.75 44.0 187.75 41.0 204.5 18.5 218.5 -2.5 218.5 -3.5 221.5 -6.5 224.75 -13.25 226.75 -15.0 Q198.55 37.95 178.95 60.25 178.45 62.3 175.6 64.75 171.55 68.25 166.0 68.25 156.85 68.25 149.65 62.25 144.65 58.1 143.9 55.3 L129.5 40.5 Q130.5 71.25 118.5 89.75 L115.25 95.0 107.0 105.25 95.5 115.0 99.75 122.25 104.25 132.25 102.5 132.0 Q96.75 137.0 92.75 138.0 94.25 143.25 72.75 164.5 L40.75 180.25 25.75 183.0 39.25 185.75 39.5 196.5 56.25 196.5 Q56.75 194.25 67.25 194.25 98.75 188.25 109.25 164.25 L110.0 163.5 109.75 165.5 105.25 176.25 Q91.5 198.0 47.5 201.5 L33.0 200.75 Q24.75 199.0 19.5 195.75 9.0 185.75 8.5 165.25 L-4.25 163.75 Q-6.75 184.5 -14.25 194.25 -23.75 202.75 -51.25 201.0 -75.0 198.0 -87.75 189.75 -105.25 177.75 -106.75 163.5 -105.5 163.5 -103.25 170.75 L-97.75 177.5 Q-96.75 174.75 -89.0 174.0 L-41.75 176.25 -69.5 163.25 Q-93.25 132.75 -102.25 134.75 L-97.25 123.0 -93.75 118.0 -103.75 110.75 -106.75 107.0 Q-145.5 103.25 -151.25 95.0 -150.5 93.0 -154.75 89.75 L-153.75 80.25 -153.0 79.75 -153.25 80.5 -152.5 80.75 -153.5 87.25 -149.25 87.75 Q-145.25 88.75 -140.5 93.25 L-135.25 88.25 -133.5 87.5 -133.0 87.75 -135.0 92.25 -134.25 93.25 -108.75 97.5 -64.0 98.75 -26.25 98.0 20.75 94.25 35.25 91.5 Q34.75 93.25 25.25 95.0 L-11.0 101.0 -51.5 105.25 -80.0 106.5 -80.75 106.75 -68.0 124.75 -40.5 143.75 -36.75 141.0 -15.0 137.25 -1.5 136.0 2.25 137.0 13.0 142.5 23.0 148.75 37.5 145.25 50.0 138.25 69.25 125.5 86.5 102.0 Q90.0 97.25 87.25 91.5 92.75 88.75 97.25 83.75 L107.25 72.5 118.25 52.0 117.0 46.75 109.5 26.75 94.75 -4.25 M15.5 80.5 L-22.25 74.0 -23.5 73.25 Q-40.25 45.5 -40.25 -21.5 -35.75 26.5 1.75 27.0 34.5 25.5 40.0 -22.0 41.25 56.75 15.5 80.5 M-76.25 -10.5 L-76.0 -9.75 -89.0 38.5 -89.7 42.45 -94.5 63.0 -115.75 60.75 -107.4 45.3 -101.25 34.25 -100.5 34.0 -91.7 17.55 -76.25 -10.5" fill="#000000" fill-opacity="0.49803922" fill-rule="evenodd" stroke="none"/>
  </g>
</svg>
