<?xml version="1.0" encoding="UTF-8" standalone="no"?>
<svg xmlns:ffdec="https://www.free-decompiler.com/flash" xmlns:xlink="http://www.w3.org/1999/xlink" ffdec:objectType="shape" height="271.3px" width="378.8px" xmlns="http://www.w3.org/2000/svg">
  <g transform="matrix(1.0, 0.0, 0.0, 1.0, 152.8, 69.55)">
    <path d="M-27.0 -47.25 L-27.3 -47.45 Q-29.1 -49.0 -30.0 -51.0 L-30.8 -53.45 Q-31.8 -58.35 -31.7 -63.25 -31.65 -65.45 -29.2 -66.35 -25.25 -67.75 -21.15 -68.2 L-6.25 -69.25 -2.25 -68.25 0.25 -68.75 9.5 -69.55 22.45 -68.65 Q25.55 -68.25 27.75 -65.75 27.6 -61.4 26.55 -57.25 25.6 -53.25 23.75 -49.5 19.25 -40.0 -1.75 -46.5 -21.75 -38.75 -27.0 -47.25 M35.5 -1.25 L45.25 19.75 49.75 33.5 61.75 56.0 Q84.25 74.25 89.5 92.25 L89.75 109.25 84.0 121.0 67.5 141.75 Q53.4 149.65 39.25 157.5 L8.25 164.75 -4.75 163.75 -31.25 159.75 -60.5 146.5 -70.6 136.35 -77.5 129.75 -79.75 126.75 -83.0 120.0 -83.25 119.25 -61.0 122.0 -16.5 124.0 18.0 123.75 33.25 122.25 Q38.25 114.0 28.25 113.5 L25.0 111.75 24.0 111.5 23.75 111.5 22.5 110.75 -8.5 99.75 -68.25 81.5 -57.5 60.75 -56.5 57.0 -51.75 47.0 -44.75 23.5 -36.0 2.5 Q-35.4 3.2 -34.7 4.75 -30.6 14.05 -22.7 20.6 -16.7 25.55 -8.95 27.0 -1.9 28.05 5.15 26.9 12.05 25.85 18.45 22.6 22.9 20.3 26.3 16.65 32.5 9.85 34.5 1.0 L34.75 0.25 35.5 -1.25 M4.5 -53.25 Q3.75 -49.75 6.75 -47.5 L10.75 -47.0 Q20.75 -52.0 12.75 -57.0 L7.25 -56.0 4.5 -53.25 M-13.25 -46.25 Q-1.5 -55.5 -17.0 -56.0 -24.0 -48.0 -13.25 -46.25" fill="#ffffff" fill-rule="evenodd" stroke="none"/>
    <path d="M-27.0 -47.25 Q-21.75 -38.75 -1.75 -46.5 19.25 -40.0 23.75 -49.5 39.5 -39.25 38.25 -29.25 L38.75 -19.75 37.75 -10.0 35.5 -1.25 34.75 0.25 34.5 1.0 Q32.5 9.85 26.3 16.65 22.9 20.3 18.45 22.6 12.05 25.85 5.15 26.9 -1.9 28.05 -8.95 27.0 -16.7 25.55 -22.7 20.6 -30.6 14.05 -34.7 4.75 -35.4 3.2 -36.0 2.5 L-36.25 1.25 -39.25 -8.0 -41.25 -20.25 -41.25 -26.5 Q-44.0 -33.75 -27.0 -47.25 M84.0 121.0 L85.5 120.5 86.0 120.25 88.0 119.0 94.25 113.75 Q111.5 142.5 110.5 154.0 111.0 193.0 55.25 201.0 30.5 204.25 16.75 193.0 11.5 190.0 8.25 164.75 L39.25 157.5 Q53.4 149.65 67.5 141.75 L84.0 121.0 M-4.75 163.75 L-8.5 183.5 Q-12.25 192.5 -14.0 193.25 L-14.75 194.5 -20.0 197.5 -30.75 200.75 -41.75 201.5 -52.25 200.75 Q-108.75 192.75 -107.5 153.5 L-107.25 152.75 -104.75 140.5 -99.5 128.0 -95.0 119.75 -88.75 123.75 -87.75 124.25 -87.25 124.75 -86.75 125.5 -85.75 125.75 -77.5 129.75 -70.6 136.35 -60.5 146.5 -31.25 159.75 -4.75 163.75" fill="#e58508" fill-rule="evenodd" stroke="none"/>
    <path d="M4.5 -53.25 L7.25 -56.0 12.75 -57.0 Q20.75 -52.0 10.75 -47.0 L6.75 -47.5 Q3.75 -49.75 4.5 -53.25 M-13.25 -46.25 Q-24.0 -48.0 -17.0 -56.0 -1.5 -55.5 -13.25 -46.25" fill="#000000" fill-rule="evenodd" stroke="none"/>
    <path d="M2.5 27.0 Q37.75 21.75 39.0 -22.5 43.75 85.25 -6.75 85.0 -40.5 72.25 -41.25 -20.75 -35.75 27.25 2.5 27.0 M94.5 -4.75 L93.5 -7.25 94.0 -7.5 108.0 7.0 109.75 7.75 126.25 23.75 148.5 47.0 153.7 49.7 Q159.95 52.6 163.5 52.6 171.15 52.6 174.4 50.95 L174.65 50.85 Q197.05 29.45 226.0 -21.5 205.5 25.0 178.95 53.15 L174.1 55.35 Q168.35 58.35 163.0 58.35 154.1 58.35 148.85 54.75 L148.1 54.2 148.2 54.7 147.8 54.5 147.75 54.25 144.5 52.25 128.0 35.5 Q128.25 92.0 94.25 113.5 L99.0 121.0 103.5 130.25 101.0 130.75 94.0 135.25 93.0 140.0 73.75 163.0 42.25 179.5 26.25 182.5 Q18.25 185.0 17.0 187.25 23.75 201.0 66.25 194.5 98.75 188.0 109.25 164.25 L110.0 163.5 109.75 166.0 105.25 176.25 Q91.5 198.0 47.5 201.5 L33.0 200.75 Q24.75 199.0 19.5 195.75 9.0 186.0 8.5 164.75 L-3.0 163.75 -5.0 164.0 -6.0 172.5 -8.5 183.5 -10.75 189.25 -14.25 194.25 Q-23.5 202.75 -51.75 201.0 -74.75 198.0 -87.75 189.75 -105.25 177.75 -106.75 163.5 -96.5 187.5 -63.25 194.25 -23.25 201.25 -13.5 187.25 -22.25 181.25 -30.25 181.75 L-67.0 165.5 -88.5 143.5 Q-100.5 135.75 -102.5 136.5 L-102.75 135.5 Q-99.0 129.5 -99.25 127.5 L-97.25 123.0 -94.75 119.75 -95.25 119.0 Q-147.0 107.5 -150.0 99.0 -153.25 97.75 -152.75 94.25 L-151.75 83.5 -150.5 83.75 -151.5 91.75 -146.5 92.5 Q-143.75 92.75 -138.25 97.5 -132.75 93.25 -132.75 92.0 L-111.5 97.25 -103.25 101.0 Q-104.5 102.25 -112.25 99.5 L-132.25 93.0 Q-132.25 96.0 -134.25 98.75 L-110.25 106.25 -64.0 114.0 -13.0 120.25 15.75 122.0 33.25 121.5 Q32.5 123.5 22.5 123.75 L-18.5 124.0 -70.0 121.0 -65.25 127.25 -33.75 147.25 2.5 153.25 15.75 150.75 40.25 144.0 48.75 139.0 71.25 123.5 Q93.75 96.0 88.0 89.0 110.25 72.5 117.5 50.0 118.25 49.0 116.25 43.25 L109.75 26.25 101.25 7.75 94.5 -4.75 M-77.25 -6.0 L-90.25 44.75 -96.5 73.25 -119.0 68.3 -116.0 68.0 -101.25 38.25 -100.5 38.0 -90.2 17.9 -88.6 14.85 Q-83.0 4.0 -78.0 -7.1 L-77.75 -8.25 -77.25 -6.0" fill="#000000" fill-opacity="0.49803922" fill-rule="evenodd" stroke="none"/>
  </g>
</svg>
