<?xml version="1.0" encoding="UTF-8" standalone="no"?>
<svg xmlns:ffdec="https://www.free-decompiler.com/flash" xmlns:xlink="http://www.w3.org/1999/xlink" ffdec:objectType="shape" height="271.9px" width="377.35px" xmlns="http://www.w3.org/2000/svg">
  <g transform="matrix(1.0, 0.0, 0.0, 1.0, 152.35, 70.15)">
    <path d="M-28.5 -46.5 L-28.8 -46.65 Q-30.45 -47.95 -31.5 -49.95 L-32.3 -52.1 Q-33.45 -57.15 -33.6 -62.25 -33.65 -63.25 -32.7 -63.8 -29.4 -66.0 -25.55 -66.7 -16.9 -68.4 -8.05 -67.5 L-4.0 -68.0 -3.2 -68.3 3.05 -69.3 14.5 -70.15 20.25 -69.75 Q23.6 -69.0 25.75 -66.5 25.75 -62.25 24.85 -58.2 24.0 -54.15 22.25 -50.25 13.75 -39.75 -3.0 -46.5 -26.0 -38.0 -28.5 -46.5 M35.0 -1.75 L45.0 18.75 48.75 30.5 63.0 55.5 Q84.0 70.5 90.0 89.25 L90.75 106.25 85.25 118.25 69.25 139.75 43.5 155.25 12.75 164.5 8.0 164.5 -4.75 163.75 -28.5 160.75 -57.75 148.75 -71.25 135.75 -20.25 146.25 11.5 150.75 27.5 151.5 28.15 150.6 28.7 149.8 Q29.65 148.4 29.7 146.9 29.75 144.45 27.55 143.5 L24.9 142.4 Q23.35 141.75 21.95 140.85 L18.75 138.75 -13.0 122.0 -73.75 93.25 Q-71.15 89.6 -69.05 85.7 -64.9 78.0 -61.45 69.95 -54.9 54.6 -49.05 39.05 -42.4 21.25 -36.25 3.25 -35.4 3.9 -34.7 5.35 -33.15 8.4 -31.2 11.25 -27.0 17.4 -21.1 21.95 -15.05 26.65 -7.4 27.7 -3.25 28.25 0.8 27.5 L5.9 26.75 Q10.15 25.95 14.25 24.35 21.55 21.7 26.75 16.0 31.0 11.35 32.7 5.25 33.7 1.65 35.0 -1.75 M5.5 -56.0 L3.0 -53.25 Q2.75 -49.75 5.25 -47.75 L9.5 -47.25 Q19.0 -52.75 11.25 -57.25 8.5 -58.0 5.5 -56.0 M-14.5 -45.75 Q-3.0 -55.5 -18.5 -55.5 -26.0 -48.5 -14.5 -45.75" fill="#ffffff" fill-rule="evenodd" stroke="none"/>
    <path d="M-28.5 -46.5 Q-26.0 -38.0 -3.0 -46.5 13.75 -39.75 22.25 -50.25 38.75 -38.75 37.0 -30.5 L37.75 -20.75 36.25 -8.25 35.0 -1.75 Q33.7 1.65 32.7 5.25 31.0 11.35 26.75 16.0 21.55 21.7 14.25 24.35 10.15 25.95 5.9 26.75 L0.8 27.5 Q-3.25 28.25 -7.4 27.7 -15.05 26.65 -21.1 21.95 -27.0 17.4 -31.2 11.25 -33.15 8.4 -34.7 5.35 -35.4 3.9 -36.25 3.25 -39.85 -4.75 -41.25 -13.75 -42.35 -20.9 -42.45 -28.1 -42.45 -29.2 -42.05 -30.25 -40.35 -34.75 -37.0 -38.35 -32.95 -42.65 -28.5 -46.5 M85.25 118.25 L86.0 118.0 87.0 117.25 88.5 116.5 93.5 112.0 Q112.0 143.25 110.5 154.0 111.0 193.0 55.25 201.0 30.5 204.25 16.75 193.0 11.5 190.0 8.0 164.5 L12.75 164.5 43.5 155.25 69.25 139.75 85.25 118.25 M-4.75 163.75 Q-7.05 174.7 -9.7 185.6 -10.15 187.4 -11.0 189.15 -11.75 190.75 -13.05 192.3 L-14.0 193.25 Q-17.0 195.35 -20.35 196.35 -30.9 199.5 -41.85 200.2 -48.75 200.85 -55.65 199.85 L-62.3 199.05 Q-68.3 197.8 -74.1 195.8 -79.35 194.1 -84.15 191.55 -89.7 188.75 -94.3 184.95 -103.6 177.1 -106.4 165.05 -107.85 158.95 -106.4 152.95 -103.4 140.35 -99.5 128.0 L-71.25 135.75 -57.75 148.75 -28.5 160.75 -4.75 163.75" fill="#e58508" fill-rule="evenodd" stroke="none"/>
    <path d="M5.5 -56.0 Q8.5 -58.0 11.25 -57.25 19.0 -52.75 9.5 -47.25 L5.25 -47.75 Q2.75 -49.75 3.0 -53.25 L5.5 -56.0 M-14.5 -45.75 Q-26.0 -48.5 -18.5 -55.5 -3.0 -55.5 -14.5 -45.75" fill="#000000" fill-rule="evenodd" stroke="none"/>
    <path d="M-7.25 85.5 Q-39.75 74.25 -42.5 -21.25 -32.0 29.0 -2.5 27.0 33.25 29.0 38.0 -21.0 44.5 83.25 -7.25 85.5 M-78.75 -5.75 L-78.25 -3.5 -93.0 58.75 -97.25 82.5 -119.0 74.25 -116.25 74.75 -114.35 70.95 -106.5 54.5 -106.75 53.75 -84.5 9.0 -78.75 -5.75 M92.0 -10.25 L92.5 -10.5 106.0 2.75 108.0 3.75 120.0 14.75 148.5 42.5 150.25 43.25 150.25 43.4 155.7 46.5 Q163.25 50.55 170.7 50.85 L176.5 44.5 180.25 37.75 Q182.5 37.25 184.75 34.5 L203.75 7.0 216.0 -14.25 219.25 -18.0 223.5 -27.25 225.0 -28.5 Q202.1 25.75 173.4 54.15 L170.4 55.1 170.15 55.25 Q167.15 57.0 164.0 57.0 L159.55 56.35 159.15 56.35 159.25 56.3 Q154.65 54.9 149.25 51.0 L148.2 50.25 148.25 50.5 148.15 50.7 147.8 50.4 146.35 48.85 146.2 48.75 145.9 48.5 145.75 48.4 142.5 46.25 132.75 36.25 126.25 30.75 Q128.5 88.75 93.5 111.75 L99.75 122.25 102.5 128.5 101.25 128.5 94.5 132.75 94.0 137.5 92.75 138.25 75.75 160.75 46.5 177.25 Q18.75 182.5 17.0 187.25 23.75 201.0 66.25 194.5 98.75 188.0 109.25 164.25 L110.0 163.5 109.75 166.0 105.25 176.25 Q91.5 198.0 47.5 201.5 L33.0 200.75 Q24.75 199.0 19.5 195.75 9.0 186.0 8.5 164.75 L-1.5 163.75 -5.0 164.0 -6.25 174.0 -10.25 188.0 -14.25 194.25 Q-23.75 202.75 -51.25 201.0 -71.5 198.75 -86.75 190.25 -105.75 177.5 -106.75 163.5 -96.5 187.5 -63.25 194.25 -23.25 201.25 -13.5 187.25 -20.25 182.5 -29.0 182.25 L-66.25 166.75 Q-90.5 137.75 -103.75 138.25 L-99.25 127.75 -118.25 122.25 -143.25 109.25 -151.75 100.25 Q-153.5 99.0 -150.0 94.5 L-149.75 86.5 -148.5 88.25 -149.0 96.0 Q-139.75 97.5 -135.75 101.75 L-131.75 97.75 -111.5 106.0 -103.75 111.0 -103.5 111.5 -104.25 111.5 -111.25 108.75 -131.25 99.0 -133.0 104.75 -113.75 114.25 -65.75 129.5 -21.0 141.5 13.5 149.25 28.0 150.5 29.5 146.75 Q37.0 149.75 72.75 121.5 L88.25 97.5 Q91.5 95.0 88.75 86.5 110.0 70.5 117.25 46.5 L115.75 40.75 107.75 20.75 92.0 -10.25" fill="#000000" fill-opacity="0.49803922" fill-rule="evenodd" stroke="none"/>
  </g>
</svg>
