<?xml version="1.0" encoding="UTF-8" standalone="no"?>
<svg xmlns:ffdec="https://www.free-decompiler.com/flash" xmlns:xlink="http://www.w3.org/1999/xlink" ffdec:objectType="shape" height="272.1px" width="375.25px" xmlns="http://www.w3.org/2000/svg">
  <g transform="matrix(1.0, 0.0, 0.0, 1.0, 151.75, 70.35)">
    <path d="M4.25 -56.25 L1.75 -54.0 Q1.5 -49.75 4.25 -47.75 L8.25 -47.5 Q17.75 -52.5 10.25 -57.5 7.25 -58.25 4.25 -56.25 M-30.0 -45.75 Q-31.85 -46.8 -32.95 -48.95 L-34.55 -51.9 -35.2 -53.8 Q-35.9 -57.75 -36.25 -61.75 -33.5 -63.75 -30.45 -64.8 -22.15 -67.25 -13.45 -68.3 L-8.25 -68.0 -3.05 -68.3 Q3.1 -70.0 9.55 -70.15 L18.4 -69.75 Q20.5 -69.4 22.4 -68.35 L23.75 -67.25 20.75 -50.75 Q14.5 -40.5 -4.25 -46.25 -15.5 -37.5 -30.0 -45.75 M34.75 -2.0 L44.75 17.25 49.25 30.0 63.25 53.5 Q84.0 67.5 90.75 87.0 L91.5 103.5 86.5 115.25 Q79.35 125.6 71.85 135.6 L69.75 138.25 43.0 155.25 14.0 164.25 9.75 164.0 -18.0 143.75 -50.75 121.25 -78.0 103.75 Q-75.5 103.25 -67.75 88.5 L-56.25 63.75 -47.75 39.25 -45.0 25.75 -36.5 4.0 -36.0 4.25 -36.0 4.5 -35.0 6.5 Q-20.0 30.75 0.75 27.5 L1.25 27.25 3.5 27.25 Q22.75 25.75 31.75 6.25 L31.75 6.0 33.25 2.5 34.0 -0.75 34.75 -2.0 M-15.75 -45.25 Q-4.5 -55.5 -19.5 -55.0 -26.5 -46.0 -15.75 -45.25" fill="#ffffff" fill-rule="evenodd" stroke="none"/>
    <path d="M20.75 -50.75 Q36.25 -41.5 35.75 -31.5 L36.75 -24.75 36.5 -11.0 34.75 -2.0 34.0 -0.75 33.25 2.5 31.75 6.0 31.75 6.25 Q22.75 25.75 3.5 27.25 L1.25 27.25 0.75 27.5 Q-20.0 30.75 -35.0 6.5 L-36.0 4.5 -36.0 4.25 -36.5 4.0 -40.0 -5.25 -42.5 -15.25 -43.5 -24.0 Q-46.25 -31.25 -30.0 -45.75 -15.5 -37.5 -4.25 -46.25 14.5 -40.5 20.75 -50.75 M86.5 115.25 L87.25 115.0 89.5 113.5 92.5 110.5 Q112.5 144.0 110.5 154.0 111.0 193.0 55.25 201.0 30.5 204.25 16.75 193.0 L14.5 190.5 11.75 184.0 10.25 178.0 18.0 179.25 19.0 178.25 21.25 173.75 12.25 166.0 12.0 166.0 11.0 165.0 10.0 164.25 9.75 164.0 14.0 164.25 43.0 155.25 69.75 138.25 71.85 135.6 Q79.35 125.6 86.5 115.25 M-103.5 137.5 L-97.0 140.25 -96.75 140.75 -75.75 149.75 -31.25 166.0 -6.5 173.5 Q-8.25 180.55 -10.5 187.45 -11.15 189.55 -12.4 191.35 -13.5 192.95 -15.15 193.7 -22.75 197.6 -31.05 199.0 -41.5 200.75 -52.25 200.55 L-55.7 200.25 -62.3 199.05 Q-71.0 197.15 -79.35 193.7 -82.95 192.25 -86.45 190.4 -92.65 187.05 -97.5 181.9 -105.0 173.85 -106.85 162.9 -108.2 154.75 -106.5 146.75 L-103.5 137.5" fill="#e58508" fill-rule="evenodd" stroke="none"/>
    <path d="M4.25 -56.25 Q7.25 -58.25 10.25 -57.5 17.75 -52.5 8.25 -47.5 L4.25 -47.75 Q1.5 -49.75 1.75 -54.0 L4.25 -56.25 M-15.75 -45.25 Q-26.5 -46.0 -19.5 -55.0 -4.5 -55.5 -15.75 -45.25" fill="#000000" fill-rule="evenodd" stroke="none"/>
    <path d="M-147.1 93.6 Q-147.2 93.0 -147.5 92.75 L-146.25 92.75 Q-146.8 92.9 -147.1 93.6 M-79.75 -2.75 L-79.0 -1.75 -93.0 61.75 -98.25 91.25 -118.0 80.25 -115.5 80.5 -114.45 78.4 -113.5 75.5 -112.5 74.5 -112.75 73.75 -105.0 57.0 -105.25 56.25 -102.75 52.0 -103.0 51.0 -102.0 50.5 -102.25 49.25 -98.0 41.5 -98.25 40.75 -96.0 37.0 -96.25 36.25 -94.5 32.9 -91.2 25.65 -90.0 24.0 -90.25 23.25 -79.75 -2.75 M0.25 27.25 Q38.65 19.85 37.1 -19.7 43.95 83.5 -5.5 85.75 -39.0 77.25 -43.5 -21.75 -34.0 28.5 0.25 27.25 M90.5 -12.75 L91.25 -13.0 104.25 -1.0 107.0 0.5 122.75 14.25 147.3 37.35 Q148.05 37.7 149.4 38.55 L150.25 38.75 150.0 38.95 Q152.7 40.7 157.5 44.25 161.45 45.8 169.25 46.1 L170.45 46.2 175.75 40.5 Q181.0 29.5 184.25 29.5 L199.75 6.5 208.75 -9.25 209.5 -9.5 210.75 -12.75 211.5 -13.0 214.0 -18.5 218.0 -24.25 Q223.25 -33.0 222.75 -34.5 L223.5 -34.75 Q202.75 18.15 174.15 48.15 L174.25 48.85 Q174.25 50.35 171.9 51.4 169.3 52.5 165.0 52.5 158.1 52.5 150.35 47.0 L147.75 45.05 148.5 46.5 145.75 44.5 124.5 26.0 Q129.5 83.25 92.5 110.25 L99.75 122.25 101.75 127.0 100.25 127.0 94.75 130.25 Q97.25 135.25 79.75 155.25 L77.25 158.75 49.25 175.75 Q19.0 182.5 17.0 187.25 23.25 201.0 67.25 194.25 98.75 188.25 109.25 164.25 L110.0 163.5 110.0 164.75 105.25 176.25 Q91.5 198.0 47.5 201.5 L33.5 200.75 24.0 198.25 Q14.5 196.0 10.75 178.25 L-6.0 173.5 -8.5 183.5 Q-10.75 190.5 -14.25 194.25 -23.75 202.75 -51.25 201.0 L-62.75 199.25 -72.25 196.75 -81.25 193.25 Q-96.5 190.0 -106.75 163.5 -96.5 187.0 -64.25 194.0 -22.5 201.25 -13.75 187.5 -15.65 185.8 -18.0 185.0 L-25.5 183.5 -34.5 179.5 -63.5 169.0 -86.5 147.75 Q-101.75 138.25 -104.75 141.25 L-103.25 137.25 -122.75 128.25 -138.0 116.75 -141.75 114.75 -144.75 112.25 -151.75 102.25 -151.75 100.75 -150.75 99.0 -148.25 101.5 -147.3 97.25 -146.75 100.75 Q-140.75 100.0 -133.0 106.0 L-129.75 103.0 -130.0 103.75 -129.0 104.75 -111.5 114.5 Q-105.75 118.75 -106.0 120.5 L-129.0 105.0 Q-131.0 104.75 -131.5 111.25 L-115.0 122.5 -70.5 144.0 -25.5 163.5 4.5 174.75 19.0 178.25 Q23.0 168.75 -7.0 151.5 L8.75 152.75 26.0 148.0 44.75 141.5 53.75 135.5 74.25 119.5 90.0 93.0 Q91.75 85.75 89.5 84.25 109.5 67.5 115.5 46.5 117.25 44.5 115.75 40.25 L107.0 18.25 98.5 1.25 90.5 -12.75" fill="#000000" fill-opacity="0.49803922" fill-rule="evenodd" stroke="none"/>
  </g>
</svg>
