<?xml version="1.0" encoding="UTF-8" standalone="no"?>
<svg xmlns:ffdec="https://www.free-decompiler.com/flash" xmlns:xlink="http://www.w3.org/1999/xlink" ffdec:objectType="shape" height="272.45px" width="368.75px" xmlns="http://www.w3.org/2000/svg">
  <g transform="matrix(1.0, 0.0, 0.0, 1.0, 146.25, 70.4)">
    <path d="M-31.0 -44.75 Q-34.45 -47.45 -36.1 -51.65 -37.3 -54.75 -37.55 -57.9 L-37.75 -60.75 Q-36.0 -62.25 -34.0 -63.2 -28.25 -65.75 -22.1 -66.9 L-10.25 -67.9 -10.0 -67.75 -6.8 -68.25 -4.7 -68.5 Q3.25 -70.0 11.3 -70.35 15.1 -70.65 18.85 -69.5 20.5 -69.0 22.0 -68.0 L19.25 -51.25 Q11.5 -40.5 -5.25 -46.0 -17.5 -37.25 -31.0 -44.75 M34.5 -2.75 Q39.5 6.5 44.0 15.95 L50.7 29.35 Q56.35 40.1 64.15 49.3 L79.65 67.65 Q86.1 75.25 89.2 84.7 91.75 92.35 90.65 100.5 89.85 106.5 87.5 112.25 L72.25 135.75 46.25 153.5 17.25 163.5 8.0 163.75 -5.0 164.0 -14.0 163.75 -23.0 162.5 -54.25 151.75 -71.5 137.25 -75.5 133.5 -53.5 136.5 -12.25 139.25 22.25 139.75 38.5 138.5 Q45.25 131.0 29.5 127.5 L29.0 127.5 28.5 127.0 -5.25 114.25 -33.0 104.75 -68.5 93.5 -64.75 86.5 -57.25 68.25 -55.5 65.75 -47.75 42.0 -44.75 27.5 -36.5 4.75 -35.0 7.0 Q-20.0 31.0 2.0 27.5 L2.0 27.25 4.5 27.0 Q19.25 28.5 31.75 6.0 L31.75 5.75 32.0 5.5 32.75 3.5 32.75 3.0 34.5 -2.75 M6.75 -47.5 Q16.75 -52.5 8.75 -57.75 -6.75 -54.5 6.75 -47.5 M-16.25 -45.0 Q-5.5 -55.0 -21.0 -54.25 -27.5 -45.5 -16.25 -45.0" fill="#ffffff" fill-rule="evenodd" stroke="none"/>
    <path d="M19.25 -51.25 Q36.5 -40.75 34.75 -32.5 L36.0 -25.5 36.25 -13.0 34.5 -2.75 32.75 3.0 32.75 3.5 32.0 5.5 31.75 5.75 31.75 6.0 Q19.25 28.5 4.5 27.0 L2.0 27.25 2.0 27.5 Q-20.0 31.0 -35.0 7.0 L-36.5 4.75 -39.5 -2.25 -43.25 -14.75 -44.25 -22.75 Q-42.0 -39.25 -31.0 -44.75 -17.5 -37.25 -5.25 -46.0 11.5 -40.5 19.25 -51.25 M87.5 112.25 L88.5 111.75 91.5 109.25 Q107.5 132.25 110.5 154.0 111.0 193.0 55.25 201.0 30.5 204.25 16.75 193.0 11.5 190.5 8.0 163.75 L17.25 163.5 46.25 153.5 72.25 135.75 87.5 112.25 M-5.0 164.0 Q-7.2 174.8 -9.7 185.6 -10.15 187.4 -11.0 189.15 -11.75 190.75 -13.05 192.3 L-14.0 193.25 Q-17.0 195.35 -20.35 196.35 -30.9 199.5 -41.85 200.2 -48.75 200.85 -55.65 199.85 L-62.3 199.05 Q-68.3 197.8 -74.1 195.8 -79.35 194.1 -84.15 191.55 -89.7 188.75 -94.3 184.95 -103.6 177.1 -106.4 165.05 -107.85 158.95 -106.45 152.95 -103.75 141.35 -100.25 130.0 -93.35 130.95 -86.65 132.6 -82.9 133.5 -79.2 134.85 L-71.5 137.25 -54.25 151.75 -23.0 162.5 -14.0 163.75 -5.0 164.0" fill="#e58508" fill-rule="evenodd" stroke="none"/>
    <path d="M-16.25 -45.0 Q-27.5 -45.5 -21.0 -54.25 -5.5 -55.0 -16.25 -45.0 M6.75 -47.5 Q-6.75 -54.5 8.75 -57.75 16.75 -52.5 6.75 -47.5" fill="#000000" fill-rule="evenodd" stroke="none"/>
    <path d="M-6.25 86.25 Q-37.25 78.75 -44.25 -21.0 -35.0 22.5 -6.75 26.75 32.0 28.25 36.5 -13.5 39.0 93.75 -6.25 86.25 M-106.75 152.75 L-107.25 151.5 -106.5 151.5 -106.75 152.75 M-80.0 0.5 L-79.75 1.25 -91.25 56.5 -96.0 85.0 -114.5 80.75 -111.5 80.5 -111.75 79.75 -102.0 54.75 -101.25 54.5 -101.5 53.5 -100.75 53.5 -100.75 51.75 -99.75 51.0 -97.25 43.5 -85.75 16.5 -81.25 3.1 -80.0 0.5 M97.75 -0.75 L89.25 -15.25 89.0 -16.0 89.75 -16.0 103.25 -4.0 104.75 -3.5 122.75 11.25 147.75 33.75 150.0 34.25 149.15 34.9 153.8 37.9 Q160.9 42.5 165.0 42.5 L170.3 41.75 175.75 35.5 180.25 27.5 184.0 25.0 184.0 24.0 188.25 18.5 194.75 7.25 195.5 7.0 195.5 6.0 201.75 -3.0 202.75 -5.75 203.5 -6.0 203.75 -7.5 208.5 -15.0 213.75 -25.75 214.5 -26.0 215.5 -29.0 217.25 -30.5 Q221.75 -38.5 221.0 -39.75 L222.5 -41.0 Q202.5 11.9 175.2 42.1 L175.5 43.05 Q175.5 45.2 170.9 47.0 166.75 48.6 163.25 48.6 158.3 48.6 150.75 44.0 L147.95 42.15 147.95 42.3 147.35 41.95 147.4 41.75 145.85 40.5 144.25 39.75 122.75 21.5 Q128.75 82.25 91.5 109.0 L101.0 124.75 95.5 127.5 Q98.25 132.25 81.75 152.75 L78.5 157.0 49.75 175.5 25.75 182.0 Q17.25 185.75 16.75 188.5 73.0 211.5 110.0 164.25 L105.25 176.25 Q91.5 198.0 47.5 201.5 8.0 206.75 8.25 163.75 L-5.0 164.0 Q-7.5 187.25 -14.25 194.25 -23.75 202.75 -51.25 201.0 L-62.75 199.25 -72.25 196.75 -81.25 193.25 Q-96.5 190.0 -106.75 163.5 -96.5 187.0 -64.25 194.0 -22.5 201.0 -14.0 187.75 L-17.0 186.0 -61.0 170.75 -85.0 150.25 -93.0 147.5 -102.0 142.25 -103.25 142.0 -106.5 150.5 Q-107.75 149.25 -104.75 140.5 L-100.0 129.75 Q-142.5 119.5 -145.0 111.0 L-146.25 110.25 -145.0 101.5 -145.25 96.0 Q-143.75 95.0 -143.5 98.25 L-143.5 105.5 -138.5 105.75 Q-130.75 108.0 -130.0 109.75 L-128.75 109.5 -125.75 105.0 -105.0 110.5 -96.75 114.5 -95.25 115.5 -100.75 114.25 -122.75 106.75 -125.5 106.5 -126.75 112.25 -106.25 119.0 -55.75 128.75 -7.0 135.5 22.25 138.0 38.5 138.0 Q37.75 139.75 28.75 139.75 L-6.75 139.5 -51.5 136.5 -26.75 150.0 10.75 152.5 24.75 148.5 47.0 140.25 56.0 133.75 76.0 117.0 91.0 90.0 Q92.5 83.0 90.0 81.75 110.0 64.75 116.0 40.5 L113.75 33.25 106.75 16.75 97.75 -0.75" fill="#000000" fill-opacity="0.49803922" fill-rule="evenodd" stroke="none"/>
  </g>
</svg>
