<?xml version="1.0" encoding="UTF-8" standalone="no"?>
<svg xmlns:ffdec="https://www.free-decompiler.com/flash" xmlns:xlink="http://www.w3.org/1999/xlink" ffdec:objectType="shape" height="273.55px" width="363.5px" xmlns="http://www.w3.org/2000/svg">
  <g transform="matrix(1.0, 0.0, 0.0, 1.0, 142.25, 71.5)">
    <path d="M-32.25 -44.0 Q-35.65 -51.5 -38.0 -59.3 -38.25 -60.15 -37.2 -60.85 -33.9 -63.25 -30.0 -64.45 -23.15 -66.5 -16.0 -67.75 L-9.75 -67.45 -7.0 -68.25 -1.2 -69.65 12.75 -71.5 Q17.35 -71.5 20.5 -68.5 L18.0 -51.75 Q16.0 -42.25 -6.25 -46.0 -19.25 -36.0 -32.25 -44.0 M34.5 -2.75 L44.5 14.75 49.5 27.25 63.75 49.5 Q85.25 63.0 91.75 81.25 L93.0 98.0 88.5 109.25 74.0 133.5 52.5 149.5 48.0 152.25 22.75 162.0 17.2 162.75 8.0 163.5 -5.0 164.0 -14.25 164.0 -22.5 162.5 -52.0 153.25 -69.5 139.5 Q-71.75 137.75 -73.35 135.55 -77.65 129.5 -81.25 123.0 L-41.5 117.5 2.0 108.25 31.75 100.0 46.0 95.25 46.25 94.0 46.25 88.5 36.75 86.75 2.0 83.25 -60.25 80.0 Q-55.0 66.6 -50.75 52.95 -47.15 41.25 -44.5 29.25 L-36.5 5.25 Q-32.7 11.55 -27.8 16.7 -22.6 22.2 -15.7 25.35 -8.05 28.9 0.4 27.75 7.85 26.9 14.5 23.95 19.1 21.85 23.35 18.85 28.4 15.4 30.9 9.95 32.1 7.25 32.4 4.75 L32.7 2.95 Q33.45 0.0 34.5 -2.75 M7.5 -58.0 Q-7.75 -54.25 6.0 -47.75 15.75 -53.25 7.5 -58.0 M-24.0 -50.5 Q-24.0 -43.25 -17.0 -44.5 -10.0 -48.5 -14.0 -52.75 -24.25 -56.0 -24.0 -50.5" fill="#ffffff" fill-rule="evenodd" stroke="none"/>
    <path d="M-24.0 -50.5 Q-24.25 -56.0 -14.0 -52.75 -10.0 -48.5 -17.0 -44.5 -24.0 -43.25 -24.0 -50.5 M7.5 -58.0 Q15.75 -53.25 6.0 -47.75 -7.75 -54.25 7.5 -58.0" fill="#000000" fill-rule="evenodd" stroke="none"/>
    <path d="M18.0 -51.75 Q30.5 -47.0 33.75 -33.5 L35.25 -26.0 36.0 -14.5 34.5 -2.75 Q33.45 0.0 32.7 2.95 L32.4 4.75 Q32.1 7.25 30.9 9.95 28.4 15.4 23.35 18.85 19.1 21.85 14.5 23.95 7.85 26.9 0.4 27.75 -8.05 28.9 -15.7 25.35 -22.6 22.2 -27.8 16.7 -32.7 11.55 -36.5 5.25 L-37.75 1.65 Q-40.75 -5.5 -42.95 -12.9 -44.3 -17.5 -45.15 -22.2 -45.55 -24.35 -44.8 -26.3 -42.75 -31.8 -38.9 -36.45 L-32.25 -44.0 Q-19.25 -36.0 -6.25 -46.0 16.0 -42.25 18.0 -51.75 M88.5 109.25 L90.75 107.75 Q111.25 141.0 110.5 154.0 111.0 193.0 55.25 201.0 30.5 204.25 16.75 193.0 11.5 190.5 8.0 163.5 L17.2 162.75 22.75 162.0 48.0 152.25 52.5 149.5 74.0 133.5 88.5 109.25 M-5.0 164.0 Q-7.2 174.8 -9.7 185.6 -10.15 187.4 -11.0 189.15 -11.75 190.75 -13.05 192.3 L-14.0 193.25 Q-17.0 195.35 -20.35 196.35 -30.9 199.5 -41.85 200.2 -48.75 200.85 -55.65 199.85 L-62.3 199.05 Q-68.3 197.8 -74.1 195.8 -79.35 194.1 -84.15 191.55 -89.7 188.75 -94.3 184.95 -103.6 177.1 -106.4 165.05 -107.85 158.95 -106.35 153.0 -103.0 139.85 -98.75 127.0 L-90.5 131.5 -89.55 131.8 Q-87.25 133.2 -84.8 134.15 L-75.65 137.7 -69.5 139.5 -52.0 153.25 -22.5 162.5 -14.25 164.0 -5.0 164.0" fill="#e58508" fill-rule="evenodd" stroke="none"/>
    <path d="M-141.25 92.25 L-141.75 90.5 -141.0 90.5 -141.25 92.25 M-80.75 2.25 L-80.25 4.25 -92.25 67.0 -93.75 78.25 -94.0 79.0 -111.0 79.5 -107.5 79.0 -103.0 64.75 Q-101.75 64.25 -100.25 57.0 L-99.5 57.0 -100.0 56.5 -98.75 55.0 -98.75 53.5 -98.0 53.0 -98.0 51.5 -84.5 16.0 -80.75 2.25 M36.0 -10.5 Q40.75 72.75 8.25 83.75 -37.5 94.0 -44.5 -19.5 -34.5 22.75 -6.5 26.75 24.75 32.75 36.0 -10.5 M95.0 -6.25 L89.25 -15.25 87.75 -18.25 88.5 -18.5 101.75 -7.5 121.5 7.25 147.25 29.25 149.5 29.25 Q148.35 29.5 147.7 30.15 L151.2 32.4 Q158.6 36.75 165.0 36.75 L171.25 35.75 176.5 29.5 180.5 21.75 184.0 19.5 197.0 -2.75 197.75 -3.0 199.5 -7.0 201.0 -8.5 213.75 -33.75 216.75 -38.0 220.0 -46.5 221.25 -47.5 Q198.0 7.3 180.6 32.05 177.2 35.0 173.85 37.0 173.85 38.75 169.5 40.6 165.0 42.5 160.5 42.5 155.3 42.5 147.65 37.6 L144.95 35.8 142.75 34.75 120.75 17.0 121.75 24.5 122.5 49.0 117.25 70.75 Q108.5 92.75 90.75 107.5 L100.0 123.0 100.25 123.5 Q98.75 122.75 96.0 125.0 97.0 129.25 95.75 130.5 L81.75 153.0 52.25 174.0 Q18.25 181.75 17.25 189.0 52.0 178.5 52.0 196.5 L56.25 196.5 Q57.5 194.0 74.5 192.25 106.25 180.25 109.75 164.0 L110.0 165.0 105.25 176.25 Q91.5 198.0 47.5 201.5 8.25 206.75 8.0 163.5 L-5.0 164.0 Q-7.5 187.25 -14.25 194.25 -23.75 202.75 -51.25 201.0 L-62.75 199.25 -72.25 196.75 -81.25 193.25 Q-96.5 190.0 -106.75 163.5 -97.25 184.5 -71.75 192.0 L-68.75 192.75 Q-64.25 188.5 -53.75 188.0 -20.0 185.0 -16.5 190.5 L-14.0 188.75 -14.75 187.75 -25.25 183.0 -58.75 172.5 -83.25 152.75 -91.25 150.25 -101.75 144.5 -102.75 145.25 -106.25 157.5 -107.25 158.75 Q-108.25 153.0 -105.25 142.25 L-98.5 126.75 Q-100.75 122.75 -126.0 122.75 L-139.0 117.25 Q-139.0 114.75 -142.25 112.75 L-142.25 99.25 -141.75 99.0 -141.75 100.0 -141.0 100.25 -140.5 109.75 -134.0 110.25 -126.25 114.0 -121.25 107.5 Q-120.0 108.25 -122.0 113.5 L-94.25 115.0 -43.25 111.0 -15.0 107.25 32.25 98.5 46.25 94.5 46.5 95.0 34.75 99.5 3.0 108.0 -41.5 117.5 -69.75 121.5 -70.25 121.75 -58.75 133.75 -24.0 150.75 13.5 152.25 29.25 147.0 49.0 138.75 59.0 131.25 77.75 114.5 91.5 88.0 Q93.0 80.75 90.5 79.25 109.0 62.5 115.25 37.5 L112.75 29.75 105.5 13.25 95.0 -6.25 M-100.05 107.1 Q-94.0 107.1 -88.0 108.25 L-120.5 106.75 Q-110.25 106.35 -100.05 107.1" fill="#000000" fill-opacity="0.49803922" fill-rule="evenodd" stroke="none"/>
  </g>
</svg>
