<?xml version="1.0" encoding="UTF-8" standalone="no"?>
<svg xmlns:ffdec="https://www.free-decompiler.com/flash" xmlns:xlink="http://www.w3.org/1999/xlink" ffdec:objectType="shape" height="273.55px" width="359.5px" xmlns="http://www.w3.org/2000/svg">
  <g transform="matrix(1.0, 0.0, 0.0, 1.0, 139.75, 71.5)">
    <path d="M1.0 -56.5 L-1.5 -53.5 Q-1.5 -50.0 1.25 -48.0 L5.25 -48.0 Q14.75 -55.0 6.25 -58.25 L1.0 -56.5 M-33.25 -43.0 L-38.75 -49.5 -40.5 -58.5 Q-36.25 -61.4 -31.6 -63.05 -22.75 -65.9 -13.5 -67.5 -12.05 -66.65 -10.25 -67.25 L-7.7 -68.05 Q-1.5 -69.9 4.85 -70.8 L13.75 -71.5 Q16.65 -71.2 18.75 -69.0 L18.7 -68.25 16.75 -52.25 Q8.5 -40.5 -7.0 -45.75 -19.5 -35.75 -33.25 -43.0 M34.5 -3.0 L44.0 13.0 50.25 27.0 63.75 47.25 Q85.5 60.25 92.25 79.0 L93.75 95.0 89.25 106.25 Q86.3 112.45 82.8 118.3 L79.45 123.95 78.75 125.25 75.5 131.25 52.25 149.5 Q37.1 156.0 21.5 160.95 15.0 163.0 8.0 163.5 L-5.0 164.5 -14.25 164.0 -37.25 158.75 Q-51.0 155.25 -51.75 153.25 L-67.5 141.75 -72.0 138.5 -79.5 125.75 Q-81.0 124.25 -77.75 119.75 L-77.5 114.5 -40.0 98.5 2.75 76.0 29.5 59.75 41.25 51.5 Q42.25 42.25 33.0 46.0 L27.5 46.25 27.0 46.5 -13.25 53.75 -51.5 62.0 -46.5 44.5 -44.0 29.75 -36.5 6.0 Q-29.15 17.75 -17.15 24.45 -14.7 25.8 -12.05 26.75 -5.45 28.95 1.5 27.85 15.25 25.3 25.95 16.35 L28.75 13.55 Q31.7 10.3 32.15 6.1 32.6 1.5 34.5 -3.0 M-18.25 -43.75 Q-7.5 -54.75 -23.0 -53.0 -29.0 -43.75 -18.25 -43.75" fill="#ffffff" fill-rule="evenodd" stroke="none"/>
    <path d="M-33.25 -43.0 Q-19.5 -35.75 -7.0 -45.75 8.5 -40.5 16.75 -52.25 28.25 -48.75 32.75 -34.5 L34.5 -26.75 35.5 -15.75 34.5 -3.0 Q32.6 1.5 32.15 6.1 31.7 10.3 28.75 13.55 L25.95 16.35 Q15.25 25.3 1.5 27.85 -5.45 28.95 -12.05 26.75 -14.7 25.8 -17.15 24.45 -29.15 17.75 -36.5 6.0 L-37.3 3.4 Q-40.75 -4.25 -43.1 -12.25 -44.55 -17.1 -44.6 -22.2 -44.65 -24.3 -44.2 -26.4 -42.85 -32.5 -39.35 -37.6 -36.95 -41.05 -33.25 -43.0 M89.25 106.25 Q105.0 125.75 110.5 154.0 111.0 193.0 55.25 201.0 30.5 204.25 16.75 193.0 11.5 190.5 8.0 163.5 15.0 163.0 21.5 160.95 37.1 156.0 52.25 149.5 L75.5 131.25 78.75 125.25 79.45 123.95 82.8 118.3 Q86.3 112.45 89.25 106.25 M-5.0 164.5 Q-7.2 175.05 -9.7 185.6 -10.15 187.4 -11.0 189.15 -11.75 190.75 -13.05 192.3 L-14.0 193.25 Q-17.0 195.35 -20.35 196.35 -30.9 199.5 -41.85 200.2 -48.75 200.85 -55.65 199.85 L-62.3 199.05 Q-68.3 197.8 -74.1 195.8 -79.35 194.1 -84.15 191.55 -89.7 188.75 -94.3 184.95 -103.6 177.1 -106.4 165.05 -107.85 158.95 -106.4 152.95 -103.4 140.75 -99.5 128.75 -95.1 131.6 -90.7 133.4 L-78.25 138.3 Q-73.0 140.35 -67.5 141.75 L-51.75 153.25 Q-51.0 155.25 -37.25 158.75 L-14.25 164.0 -5.0 164.5" fill="#e58508" fill-rule="evenodd" stroke="none"/>
    <path d="M1.0 -56.5 L6.25 -58.25 Q14.75 -55.0 5.25 -48.0 L1.25 -48.0 Q-1.5 -50.0 -1.5 -53.5 L1.0 -56.5 M-18.25 -43.75 Q-29.0 -43.75 -23.0 -53.0 -7.5 -54.75 -18.25 -43.75" fill="#000000" fill-rule="evenodd" stroke="none"/>
    <path d="M36.5 2.25 L36.5 18.25 36.0 28.25 33.75 45.5 -5.0 52.0 -29.5 57.5 -30.75 55.75 -32.0 50.25 -34.0 45.75 -37.25 31.75 -41.0 19.75 -45.25 -19.0 Q-33.0 24.25 -5.0 27.0 27.75 29.5 35.5 -8.0 L36.5 2.25 M93.25 -9.75 L87.25 -18.25 86.25 -21.5 100.0 -10.75 102.0 -10.0 116.25 0.5 144.15 22.9 Q145.65 23.0 147.1 24.05 L148.1 24.75 149.0 24.75 148.35 24.95 150.7 26.7 Q156.8 30.5 169.0 30.5 L169.9 30.7 Q193.35 7.7 219.75 -54.0 198.0 7.45 172.6 34.4 166.2 38.3 159.35 39.15 L162.05 37.35 161.5 37.35 Q155.45 37.35 147.5 32.25 L147.1 32.0 147.75 33.5 147.5 34.25 146.9 33.75 146.75 33.25 Q146.75 32.0 141.75 30.25 L118.75 12.75 Q129.25 73.0 89.5 106.0 L99.0 121.0 Q95.25 120.25 95.75 128.75 L83.0 150.75 82.5 152.0 54.5 172.5 26.25 182.0 Q19.5 184.5 17.5 189.0 39.25 202.75 74.5 192.25 106.5 180.25 109.25 164.25 L110.0 163.5 110.0 164.75 105.25 176.25 Q91.5 198.0 47.5 201.5 8.25 206.75 8.0 163.5 L-5.0 164.5 -6.5 175.25 -8.25 182.75 -11.0 189.75 -14.25 194.25 Q-23.75 202.75 -51.25 201.0 L-62.75 199.25 -72.25 196.75 -81.25 193.25 Q-122.25 172.5 -99.25 128.5 L-106.75 122.75 Q-115.0 126.5 -131.25 123.0 L-132.25 122.75 -133.0 121.25 -137.25 119.25 -139.25 116.75 -139.75 98.25 Q-135.75 103.5 -137.75 113.25 -131.0 112.75 -123.5 117.75 L-122.0 117.0 Q-119.0 111.0 -117.0 110.0 -115.25 111.75 -117.5 114.5 L-115.25 114.5 -95.75 109.5 -84.75 108.0 -59.0 99.0 -81.5 109.0 -88.5 111.0 Q-87.4 111.5 -87.5 111.8 L-81.5 110.0 -44.0 94.25 -0.75 74.25 26.5 60.25 40.75 51.25 41.25 51.75 29.0 60.25 Q27.75 68.75 19.25 78.0 37.25 76.0 40.75 79.75 L43.25 94.25 41.5 95.25 33.0 104.25 12.0 119.0 2.5 130.0 2.75 130.5 -2.75 136.0 -13.5 151.0 Q13.0 159.25 51.5 137.25 L61.75 128.75 79.0 112.5 92.5 84.0 Q93.25 79.25 91.0 76.25 L97.0 70.25 106.75 56.5 114.0 36.0 Q114.75 34.75 111.75 26.75 L103.5 8.75 93.25 -9.75 M-40.0 98.5 L-77.5 114.5 -56.5 135.5 -55.5 135.75 -50.25 128.0 -24.5 100.5 -4.0 86.5 -12.75 84.0 -40.0 98.5 M-85.75 23.0 L-86.0 22.0 -85.0 20.5 -80.75 5.0 -91.5 71.0 -92.0 71.75 -102.75 74.75 -102.75 72.5 -85.75 23.0 M-118.75 119.5 L-117.75 119.75 -102.25 115.5 -118.75 119.5 M-87.75 184.75 Q-86.0 180.25 -80.5 178.5 L-59.25 172.0 -82.25 154.75 -91.0 152.25 -101.5 147.0 -106.25 163.25 -105.5 165.75 Q-103.25 171.75 -97.0 178.25 L-87.75 184.75 M-30.25 194.25 L-31.0 195.75 -29.0 195.75 -18.75 192.5 Q-14.0 190.25 -15.25 188.5 L-18.25 188.0 -22.0 189.25 -30.25 194.25" fill="#000000" fill-opacity="0.49803922" fill-rule="evenodd" stroke="none"/>
  </g>
</svg>
