<?xml version="1.0" encoding="UTF-8" standalone="no"?>
<svg xmlns:ffdec="https://www.free-decompiler.com/flash" xmlns:xlink="http://www.w3.org/1999/xlink" ffdec:objectType="shape" height="273.25px" width="360.75px" xmlns="http://www.w3.org/2000/svg">
  <g transform="matrix(1.0, 0.0, 0.0, 1.0, 142.25, 71.2)">
    <path d="M-32.0 -44.0 Q-34.8 -46.3 -36.8 -49.4 -38.55 -52.15 -38.7 -55.15 -38.8 -57.05 -38.35 -58.9 -38.0 -60.15 -37.0 -60.8 -32.15 -63.75 -26.75 -65.45 -21.4 -67.0 -15.75 -67.75 L-9.75 -67.4 Q-7.9 -68.15 -5.95 -68.5 1.85 -70.15 9.8 -71.05 12.5 -71.4 15.2 -70.95 17.25 -70.5 19.0 -69.35 20.0 -68.75 19.95 -67.8 19.5 -59.75 18.25 -51.75 9.75 -40.75 -6.0 -46.0 -19.0 -36.0 -32.0 -44.0 M34.5 -2.75 L43.75 13.25 48.75 25.75 63.25 48.75 Q85.5 63.5 91.5 80.75 L93.0 98.0 88.5 109.25 79.75 124.0 79.45 124.5 79.05 125.3 78.4 126.45 74.0 133.5 52.5 149.5 47.25 152.75 20.25 163.0 8.0 163.5 -5.0 164.0 -14.25 164.0 -22.5 162.5 -52.0 153.25 -69.5 139.5 -73.75 136.25 -80.75 123.75 Q-81.75 123.25 -80.75 120.0 L-43.75 112.75 3.25 99.5 32.0 89.5 41.5 85.75 45.75 83.25 45.25 77.25 34.25 76.0 -7.75 74.75 -58.25 75.5 -54.25 66.5 -49.25 51.5 -44.5 29.75 -36.25 5.25 Q-29.8 16.85 -18.4 23.8 -14.85 25.9 -10.7 27.0 -3.65 28.7 3.25 27.25 L9.35 27.0 Q15.15 26.25 19.55 22.25 26.4 16.1 30.8 7.9 33.5 2.9 34.5 -2.75 M8.0 -58.0 Q-7.75 -54.25 6.25 -47.75 15.75 -54.75 8.0 -58.0 M-16.5 -44.5 Q-6.5 -55.0 -21.75 -53.75 -28.5 -45.0 -16.5 -44.5" fill="#ffffff" fill-rule="evenodd" stroke="none"/>
    <path d="M-32.0 -44.0 Q-19.0 -36.0 -6.0 -46.0 9.75 -40.75 18.25 -51.75 34.75 -42.5 34.0 -33.5 L35.5 -25.75 36.0 -15.0 34.5 -2.75 Q33.5 2.9 30.8 7.9 26.4 16.1 19.55 22.25 15.15 26.25 9.35 27.0 L3.25 27.25 Q-3.65 28.7 -10.7 27.0 -14.85 25.9 -18.4 23.8 -29.8 16.85 -36.25 5.25 -42.95 -7.4 -44.15 -21.55 -44.3 -23.6 -43.85 -25.7 -42.1 -34.3 -36.3 -40.65 L-34.25 -42.45 -32.0 -44.0 M88.5 109.25 L90.75 107.75 Q111.25 141.0 110.5 154.0 111.0 193.0 55.25 201.0 30.5 204.25 16.75 193.0 11.5 190.5 8.0 163.5 L20.25 163.0 47.25 152.75 52.5 149.5 74.0 133.5 78.4 126.45 79.05 125.3 79.45 124.5 79.75 124.0 88.5 109.25 M-5.0 164.0 Q-7.2 174.8 -9.7 185.6 -10.15 187.4 -11.0 189.15 -11.75 190.75 -13.05 192.3 L-14.0 193.25 Q-17.0 195.35 -20.35 196.35 -30.9 199.5 -41.85 200.2 -48.75 200.85 -55.65 199.85 L-62.3 199.05 Q-68.3 197.8 -74.1 195.8 -79.35 194.1 -84.15 191.55 -89.7 188.75 -94.3 184.95 -103.6 177.1 -106.4 165.05 -107.85 158.95 -106.35 153.0 -103.0 139.85 -98.75 127.0 -93.2 130.25 -87.3 132.9 L-85.45 133.65 -83.95 134.4 -69.5 139.5 -52.0 153.25 -22.5 162.5 -14.25 164.0 -5.0 164.0" fill="#e58508" fill-rule="evenodd" stroke="none"/>
    <path d="M8.0 -58.0 Q15.75 -54.75 6.25 -47.75 -7.75 -54.25 8.0 -58.0 M-16.5 -44.5 Q-28.5 -45.0 -21.75 -53.75 -6.5 -55.0 -16.5 -44.5" fill="#000000" fill-rule="evenodd" stroke="none"/>
    <path d="M93.0 -9.25 L89.5 -14.75 Q87.0 -18.25 88.0 -19.0 L101.75 -7.5 104.0 -6.5 123.75 9.0 145.6 27.65 147.45 29.05 147.65 29.3 149.5 29.5 Q148.85 29.7 148.4 30.05 L151.0 32.8 Q156.75 38.25 165.35 38.25 L169.4 37.7 176.75 29.0 Q180.75 20.0 183.75 20.0 L202.0 -10.0 212.0 -30.0 216.75 -37.5 218.45 -41.0 218.5 -41.0 Q194.6 14.45 177.15 37.05 L175.95 38.0 173.1 40.85 Q168.15 44.85 160.5 44.85 153.55 44.85 146.9 38.75 144.6 36.7 143.3 35.05 L142.75 34.75 126.25 20.75 120.75 17.0 Q129.25 76.75 90.75 107.5 L100.0 123.0 100.25 123.5 Q98.75 122.75 96.0 125.0 L96.5 128.75 82.75 151.25 Q52.75 176.1 45.15 176.35 L50.0 176.75 51.0 183.5 Q30.75 191.0 30.25 195.0 98.25 197.75 109.25 164.25 L110.0 163.5 110.0 164.75 105.25 176.25 Q91.5 198.0 47.5 201.5 8.25 206.75 8.0 163.5 L-5.0 164.0 Q-7.5 187.25 -14.25 194.25 -23.75 202.75 -51.25 201.0 L-62.75 199.25 -72.25 196.75 -81.25 193.25 Q-94.95 190.35 -104.6 168.7 -98.0 181.0 -78.5 189.5 -75.0 183.25 -32.25 180.5 L-59.5 172.25 Q-86.5 146.5 -101.75 144.5 L-103.25 147.0 -106.25 156.0 -106.25 158.0 -107.25 159.25 -106.75 148.25 -104.75 140.5 -98.5 126.75 -104.25 122.5 -126.25 122.25 -138.25 117.75 Q-137.5 115.75 -141.75 113.25 L-142.25 99.25 -141.75 99.0 -141.75 100.5 -140.75 100.75 -140.5 109.0 Q-135.5 108.25 -126.5 114.0 L-120.75 107.25 Q-119.75 109.5 -121.75 112.75 L-93.5 112.75 -45.5 106.25 -21.25 101.5 30.75 88.5 45.25 83.0 Q45.25 85.25 36.0 88.25 L4.75 99.0 -39.25 111.5 -72.75 118.5 -73.25 118.75 -58.75 133.75 -30.75 147.5 -24.25 141.75 -8.0 136.0 10.5 131.5 12.75 131.75 Q38.75 137.5 40.25 142.25 L48.25 139.25 56.5 133.25 77.75 114.5 92.0 86.5 Q92.75 82.0 90.5 79.25 110.0 61.0 114.25 40.5 117.25 33.0 93.0 -9.25 M22.75 75.5 L-21.0 75.0 Q-39.25 49.0 -44.5 -20.5 -34.25 23.25 -6.25 26.75 28.5 29.75 36.25 -9.5 39.5 51.5 22.75 75.5 M-120.0 105.75 L-102.75 104.7 -87.75 105.25 -120.0 105.75 M-141.75 91.0 L-140.75 91.25 -141.25 92.75 -141.75 91.0 M-141.25 88.5 L-140.5 88.5 -140.75 90.0 -141.25 88.5 M-93.0 38.85 L-90.0 32.0 -80.25 2.5 -83.75 25.0 -92.0 66.0 -93.25 76.0 -106.5 77.5 -107.0 76.75 -100.75 58.75 -99.75 58.0 -100.25 57.5 -99.5 56.4 -94.25 43.0 -93.0 38.85" fill="#000000" fill-opacity="0.49803922" fill-rule="evenodd" stroke="none"/>
  </g>
</svg>
