<?xml version="1.0" encoding="UTF-8" standalone="no"?>
<svg xmlns:ffdec="https://www.free-decompiler.com/flash" xmlns:xlink="http://www.w3.org/1999/xlink" ffdec:objectType="shape" height="272.2px" width="368.0px" xmlns="http://www.w3.org/2000/svg">
  <g transform="matrix(1.0, 0.0, 0.0, 1.0, 145.25, 70.15)">
    <path d="M-30.75 -45.0 Q-36.9 -50.0 -37.2 -57.95 L-37.25 -60.25 Q-34.4 -62.65 -31.1 -64.2 -26.75 -66.4 -21.9 -67.0 L-9.75 -67.9 -7.05 -68.05 -2.95 -69.0 Q2.6 -70.25 8.3 -69.8 L19.6 -69.35 Q21.1 -69.0 22.5 -68.0 L19.75 -51.25 Q16.0 -41.5 -5.0 -46.25 -16.75 -37.0 -30.75 -45.0 M34.75 -2.5 L45.25 17.25 49.5 28.5 63.75 51.5 Q85.0 65.75 91.25 83.75 L92.5 100.75 87.5 112.25 79.1 125.4 72.25 135.75 46.25 153.5 17.25 163.75 8.0 163.75 -5.0 164.0 -14.0 163.75 -22.75 162.5 -49.0 153.75 -71.75 137.0 -74.8 133.7 Q-77.4 129.85 -79.5 125.75 L-47.75 126.0 -15.0 124.0 28.5 119.25 42.25 116.75 43.0 116.0 43.75 110.0 32.25 106.5 -5.5 97.25 -64.25 85.75 Q-57.25 68.75 -51.35 51.35 -47.4 39.75 -43.9 27.9 -40.4 16.25 -36.25 4.75 L-34.75 6.75 Q-18.25 31.75 2.25 27.5 L5.0 27.0 Q28.75 21.0 32.25 5.75 L32.25 5.5 32.5 5.0 33.25 3.0 33.25 2.5 33.5 2.0 34.75 -2.5 M7.75 -47.75 Q17.5 -59.5 5.25 -57.0 -3.5 -48.25 7.75 -47.75 M-15.5 -45.0 Q-5.75 -56.25 -21.0 -53.75 -27.25 -46.25 -15.5 -45.0" fill="#ffffff" fill-rule="evenodd" stroke="none"/>
    <path d="M19.75 -51.25 Q33.0 -45.25 35.25 -32.5 L36.25 -26.0 36.5 -12.0 34.75 -2.5 33.5 2.0 33.25 2.5 33.25 3.0 32.5 5.0 32.25 5.5 32.25 5.75 Q28.75 21.0 5.0 27.0 L2.25 27.5 Q-18.25 31.75 -34.75 6.75 L-36.25 4.75 -36.75 3.0 -39.25 -2.5 -39.25 -2.75 -43.25 -16.75 -43.75 -22.75 Q-43.25 -36.25 -30.75 -45.0 -16.75 -37.0 -5.0 -46.25 16.0 -41.5 19.75 -51.25 M87.5 112.25 L88.75 111.75 91.5 109.25 Q107.5 132.25 110.5 154.0 111.0 193.0 55.25 201.0 30.5 204.25 16.75 193.0 11.5 190.5 8.0 163.75 L17.25 163.75 46.25 153.5 72.25 135.75 79.1 125.4 87.5 112.25 M-5.0 164.0 Q-7.2 174.8 -9.7 185.6 -10.15 187.4 -11.0 189.15 -11.75 190.75 -13.05 192.3 L-14.0 193.25 Q-17.0 195.35 -20.35 196.35 -30.9 199.5 -41.85 200.2 -48.75 200.85 -55.65 199.85 L-62.3 199.05 Q-68.3 197.8 -74.1 195.8 -79.35 194.1 -84.15 191.55 -89.7 188.75 -94.3 184.95 -103.6 177.1 -106.4 165.05 -107.85 158.95 -106.35 152.95 -102.75 139.0 -98.25 125.25 -97.5 125.35 -96.85 125.7 L-84.95 131.9 Q-82.0 133.5 -78.85 134.6 -75.4 136.0 -71.75 137.0 L-49.0 153.75 -22.75 162.5 -14.0 163.75 -5.0 164.0" fill="#e58508" fill-rule="evenodd" stroke="none"/>
    <path d="M-15.5 -45.0 Q-27.25 -46.25 -21.0 -53.75 -5.75 -56.25 -15.5 -45.0 M7.75 -47.75 Q-3.5 -48.25 5.25 -57.0 17.5 -59.5 7.75 -47.75" fill="#000000" fill-rule="evenodd" stroke="none"/>
    <path d="M95.5 -5.25 L92.0 -10.25 89.5 -16.0 122.0 10.5 148.25 34.0 150.25 34.25 149.3 35.15 156.5 39.6 170.25 40.4 Q194.3 18.55 222.75 -41.0 199.4 17.6 173.55 44.85 167.65 47.05 160.8 47.65 L161.7 47.1 161.25 47.1 Q156.15 47.1 148.45 42.5 L148.4 42.45 147.25 41.75 Q141.05 37.85 139.75 35.85 L122.75 21.25 123.75 30.5 123.75 51.75 118.75 71.25 Q107.25 98.25 91.5 109.0 L100.75 124.25 101.0 125.25 Q100.0 124.25 95.5 127.5 98.25 132.5 80.5 154.75 L79.5 156.5 49.5 175.75 24.5 182.5 Q19.75 184.0 16.75 188.5 23.5 200.5 67.25 194.25 98.75 188.25 109.25 164.25 L110.0 163.5 110.0 164.75 105.25 176.25 Q91.5 198.0 47.5 201.5 8.0 206.75 8.25 163.75 L-5.0 164.0 Q-7.5 187.25 -14.25 194.25 -23.75 202.75 -51.25 201.0 L-62.75 199.25 -72.25 196.75 -81.25 193.25 Q-96.5 190.0 -106.75 163.5 -97.25 184.5 -71.75 192.0 -39.25 203.0 -13.25 188.75 L-17.25 185.75 -21.75 184.75 -39.75 177.75 -61.25 170.75 -84.75 150.5 -92.25 147.75 -102.5 142.0 -103.25 142.5 -107.0 153.0 Q-107.75 149.25 -104.75 140.5 L-98.0 125.25 Q-137.75 120.75 -143.5 112.0 -144.25 107.75 -145.25 107.75 L-144.75 95.5 -144.25 95.0 -144.25 96.0 -143.5 96.25 -143.5 105.25 -137.75 105.75 Q-130.0 108.5 -129.5 110.0 -124.5 105.0 -124.75 104.0 L-102.75 106.5 -94.0 109.5 -92.75 110.25 -101.0 109.25 -124.25 104.75 -125.75 110.75 -100.5 115.75 -50.5 118.75 -2.5 119.25 28.75 117.75 31.5 116.75 42.75 115.5 Q41.75 117.0 30.75 119.25 L0.75 122.75 -43.25 125.75 -65.5 126.0 -60.75 132.0 -26.75 150.0 11.25 152.5 29.0 147.0 48.25 139.5 58.5 131.75 76.75 116.0 91.0 90.0 Q92.5 83.0 90.0 81.75 L95.25 77.5 95.0 77.0 99.75 72.0 107.5 61.5 115.25 42.25 115.75 38.75 106.5 15.75 95.5 -5.25 M-79.5 1.5 L-91.0 56.75 -95.0 80.5 -113.5 78.25 -110.25 78.0 -105.75 65.0 -85.5 16.5 -79.75 0.0 -79.5 1.5 M-4.5 86.0 Q-38.0 77.75 -43.75 -21.0 -35.5 21.5 -6.25 26.75 36.25 24.75 36.75 -12.5 39.25 92.75 -4.5 86.0" fill="#000000" fill-opacity="0.49803922" fill-rule="evenodd" stroke="none"/>
  </g>
</svg>
