<?xml version="1.0" encoding="UTF-8" standalone="no"?>
<svg xmlns:ffdec="https://www.free-decompiler.com/flash" xmlns:xlink="http://www.w3.org/1999/xlink" ffdec:objectType="shape" height="271.55px" width="375.75px" xmlns="http://www.w3.org/2000/svg">
  <g transform="matrix(1.0, 0.0, 0.0, 1.0, 150.25, 69.8)">
    <path d="M-28.25 -46.75 Q-29.9 -47.65 -30.8 -49.55 L-31.8 -52.25 Q-33.1 -57.2 -32.65 -62.1 -32.5 -63.9 -30.65 -64.8 -26.5 -67.0 -21.9 -67.85 -14.75 -68.75 -7.55 -68.2 L-3.75 -68.0 4.05 -69.5 Q11.1 -70.15 18.15 -69.3 21.6 -69.0 24.7 -67.2 25.6 -66.75 25.45 -65.85 24.35 -58.0 22.5 -50.25 19.75 -40.75 -2.75 -46.5 -24.25 -38.0 -28.25 -46.75 M35.5 -1.75 L37.5 3.0 45.0 18.0 50.5 33.25 63.0 55.25 Q84.25 71.0 90.25 89.5 L90.75 106.5 85.5 118.0 69.0 140.0 43.5 155.25 12.75 164.5 8.0 164.5 -4.75 163.75 -18.75 163.0 -28.0 161.0 -57.75 148.75 -75.25 132.25 -78.25 129.25 -80.5 124.75 -58.75 127.75 -13.0 130.75 18.0 131.0 34.5 129.75 Q39.25 121.75 31.0 121.5 L26.5 119.25 25.75 118.75 25.0 118.75 24.75 118.5 24.5 118.5 -15.5 103.5 -68.5 86.25 -56.75 62.5 -48.0 38.5 -44.5 24.25 -35.75 3.0 Q-31.7 12.6 -23.95 19.55 -18.2 24.75 -10.65 26.65 -5.45 27.95 0.0 27.5 7.15 27.1 13.9 24.65 18.4 22.9 22.3 20.35 25.9 18.0 28.35 14.5 30.15 12.0 31.25 9.2 L32.05 7.05 33.7 2.7 35.5 -1.75 M9.75 -47.25 Q19.75 -52.25 11.75 -57.25 -4.25 -54.25 9.75 -47.25 M-14.25 -45.75 Q-2.5 -55.5 -18.0 -55.5 -25.0 -47.5 -14.25 -45.75" fill="#ffffff" fill-rule="evenodd" stroke="none"/>
    <path d="M-28.25 -46.75 Q-24.25 -38.0 -2.75 -46.5 19.75 -40.75 22.5 -50.25 33.5 -46.25 37.25 -30.5 39.5 -21.0 35.5 -1.75 L33.7 2.7 32.05 7.05 31.25 9.2 Q30.15 12.0 28.35 14.5 25.9 18.0 22.3 20.35 18.4 22.9 13.9 24.65 7.15 27.1 0.0 27.5 -5.45 27.95 -10.65 26.65 -18.2 24.75 -23.95 19.55 -31.7 12.6 -35.75 3.0 L-39.25 -6.25 -41.75 -18.5 -42.0 -25.25 Q-41.0 -38.0 -28.25 -46.75 M85.5 118.0 L88.25 116.5 90.0 115.25 93.5 112.0 Q112.0 143.25 110.5 154.0 111.0 193.0 55.25 201.0 30.5 204.25 16.75 193.0 11.5 190.0 8.0 164.5 L12.75 164.5 43.5 155.25 69.0 140.0 85.5 118.0 M-4.75 163.75 L-8.5 183.5 Q-12.25 192.5 -14.0 193.25 L-14.75 194.5 -20.0 197.5 -30.75 200.75 -41.75 201.5 -52.25 200.75 Q-108.75 192.75 -107.5 153.5 L-107.25 152.75 -105.25 142.25 -96.75 122.5 -93.0 123.0 -92.75 123.5 -80.5 130.5 -75.25 132.25 -57.75 148.75 -28.0 161.0 -18.75 163.0 -4.75 163.75" fill="#e58508" fill-rule="evenodd" stroke="none"/>
    <path d="M9.75 -47.25 Q-4.25 -54.25 11.75 -57.25 19.75 -52.25 9.75 -47.25 M-14.25 -45.75 Q-25.0 -47.5 -18.0 -55.5 -2.5 -55.5 -14.25 -45.75" fill="#000000" fill-rule="evenodd" stroke="none"/>
    <path d="M-78.25 -5.5 L-78.0 -3.5 -88.25 38.75 -89.5 46.5 -90.5 48.5 -96.25 77.75 -118.25 72.5 -114.5 72.0 -111.25 64.0 -109.25 61.0 -109.5 60.25 -105.75 53.5 -105.75 52.25 -84.0 8.5 -78.25 -5.5 M3.25 27.0 Q37.75 21.5 38.25 -22.0 45.0 84.75 -7.5 85.5 -39.25 73.25 -42.0 -21.25 -33.75 29.5 3.25 27.0 M94.75 -4.75 L92.5 -10.5 107.0 3.5 108.75 4.25 127.25 21.25 146.35 40.35 146.5 40.35 Q147.8 40.35 152.25 43.75 L157.5 47.6 Q158.9 48.1 166.8 49.4 168.95 49.8 170.15 50.35 194.2 29.55 225.5 -28.5 L223.25 -22.0 215.25 -6.25 195.5 27.5 176.75 53.95 Q169.75 56.8 161.35 56.85 157.1 55.35 149.75 50.7 L148.3 49.75 148.4 50.4 Q147.8 49.4 144.75 48.25 L126.5 30.75 Q128.5 89.25 93.5 111.75 L99.75 122.25 102.5 128.5 101.25 128.5 94.5 132.75 94.25 137.0 75.25 161.25 46.75 177.25 Q18.75 182.5 17.0 187.25 22.25 201.25 69.0 193.75 99.5 187.0 109.0 165.0 L110.0 163.5 109.75 165.75 105.25 176.25 Q91.5 198.0 47.5 201.5 L33.25 200.75 Q21.75 198.5 18.0 194.75 9.75 186.5 8.5 164.75 L-1.25 163.75 -5.0 164.0 -6.5 175.5 -8.25 182.75 -11.0 189.75 -14.25 194.25 Q-23.5 202.75 -51.75 201.0 -74.75 198.0 -87.75 189.75 -105.25 177.75 -106.75 163.5 -96.5 187.5 -63.25 194.25 -23.25 201.25 -13.5 187.25 -14.25 184.5 -27.0 182.75 L-65.25 167.25 -87.0 146.0 Q-101.25 137.25 -103.5 138.25 L-96.75 122.5 Q-146.0 111.75 -148.5 103.0 L-150.25 101.75 -149.75 89.75 -149.25 88.5 -148.25 88.75 -148.5 96.0 -143.5 97.0 Q-136.5 99.5 -135.5 101.75 L-130.5 96.5 -108.0 102.5 Q-101.25 105.25 -101.0 106.75 L-129.5 97.5 Q-131.0 98.0 -130.75 101.5 L-131.75 102.5 -131.0 103.75 -108.0 111.25 -59.5 120.25 -10.25 127.0 18.25 129.25 34.75 129.0 Q34.0 130.75 24.25 131.0 L-13.25 130.75 -65.0 127.0 -65.5 127.25 -64.0 128.75 -31.5 148.25 6.0 153.0 14.75 151.25 42.75 142.75 55.25 134.5 73.25 121.0 Q94.75 93.25 88.75 86.5 93.5 85.75 108.25 66.0 L117.25 46.5 115.75 40.25 108.75 22.75 98.75 1.75 94.75 -4.75" fill="#000000" fill-opacity="0.49803922" fill-rule="evenodd" stroke="none"/>
  </g>
</svg>
