<?xml version="1.0" encoding="UTF-8" standalone="no"?>
<svg xmlns:ffdec="https://www.free-decompiler.com/flash" xmlns:xlink="http://www.w3.org/1999/xlink" ffdec:objectType="shape" height="272.15px" width="378.75px" xmlns="http://www.w3.org/2000/svg">
  <g transform="matrix(1.0, 0.0, 0.0, 1.0, 152.75, 70.4)">
    <path d="M-27.0 -47.5 Q-28.65 -48.65 -29.55 -50.6 L-30.55 -53.5 Q-31.6 -58.35 -31.65 -63.25 -31.65 -64.25 -30.75 -64.95 -28.9 -66.4 -26.65 -67.15 -22.15 -68.5 -17.45 -68.05 -10.4 -68.9 -3.3 -67.85 -1.2 -67.8 0.25 -69.25 L9.75 -70.25 Q17.5 -71.0 24.7 -68.15 26.95 -67.3 28.25 -65.0 28.0 -61.15 27.0 -57.45 25.85 -53.4 24.0 -49.5 19.5 -40.0 -1.5 -46.5 -21.5 -38.5 -27.0 -47.5 M35.75 -1.5 L38.0 4.25 45.25 19.5 49.75 33.5 62.0 56.25 Q84.25 74.0 89.5 92.25 L89.75 109.25 84.0 121.0 67.5 141.75 Q53.4 149.65 39.25 157.5 L8.25 164.75 -4.75 163.75 -20.5 162.5 -30.75 160.0 -60.5 146.5 -76.75 129.75 -80.0 126.5 -85.0 115.25 -62.0 116.75 -21.25 116.25 20.5 113.5 35.25 111.25 Q39.5 102.5 29.5 102.25 L28.75 102.0 28.25 101.75 25.5 100.75 25.0 100.75 -26.5 86.5 -66.25 77.25 -57.5 60.75 -52.5 49.0 -48.25 37.0 -44.75 24.0 -35.75 2.5 -35.5 2.5 -33.5 7.5 Q-24.25 26.75 -0.5 27.5 L0.25 27.25 2.25 27.25 Q27.5 24.5 33.75 3.75 L33.75 3.5 35.75 -1.5 M4.75 -53.75 Q4.25 -49.5 6.75 -47.5 L11.0 -47.0 Q21.0 -51.5 12.75 -57.0 L8.0 -56.25 Q6.65 -54.65 4.75 -53.75 M-13.0 -46.25 Q-1.25 -55.5 -16.75 -56.0 -23.75 -48.0 -13.0 -46.25" fill="#ffffff" fill-rule="evenodd" stroke="none"/>
    <path d="M-27.0 -47.5 Q-21.5 -38.5 -1.5 -46.5 19.5 -40.0 24.0 -49.5 35.75 -44.25 38.5 -29.5 L39.0 -21.0 38.0 -10.25 35.75 -1.5 33.75 3.5 33.75 3.75 Q27.5 24.5 2.25 27.25 L0.25 27.25 -0.5 27.5 Q-24.25 26.75 -33.5 7.5 L-35.5 2.5 -35.75 2.5 -39.0 -7.75 -40.75 -18.0 -41.0 -26.5 Q-39.5 -40.0 -27.0 -47.5 M84.0 121.0 L85.5 120.5 86.5 120.0 94.25 113.75 Q111.5 142.5 110.5 154.0 111.0 193.0 55.25 201.0 30.5 204.25 16.75 193.0 11.5 190.0 8.25 164.75 L39.25 157.5 Q53.4 149.65 67.5 141.75 L84.0 121.0 M-4.75 163.75 Q-7.05 174.7 -9.7 185.6 -10.15 187.4 -11.0 189.15 -11.75 190.75 -13.05 192.3 L-14.0 193.25 Q-17.0 195.35 -20.35 196.35 -30.9 199.5 -41.85 200.2 -48.75 200.85 -55.65 199.85 L-62.3 199.05 Q-68.3 197.8 -74.1 195.8 -79.35 194.1 -84.15 191.55 -89.7 188.75 -94.3 184.95 -103.6 177.1 -106.45 165.1 -107.2 161.85 -107.5 158.35 -107.75 155.7 -106.95 152.85 -103.4 140.35 -98.9 128.25 -97.25 123.85 -95.0 119.75 L-88.75 123.75 -87.2 124.7 Q-82.6 127.7 -77.5 129.75 L-76.75 129.75 -60.5 146.5 -30.75 160.0 -20.5 162.5 -4.75 163.75" fill="#e58508" fill-rule="evenodd" stroke="none"/>
    <path d="M4.75 -53.75 Q6.65 -54.65 8.0 -56.25 L12.75 -57.0 Q21.0 -51.5 11.0 -47.0 L6.75 -47.5 Q4.25 -49.5 4.75 -53.75 M-13.0 -46.25 Q-23.75 -48.0 -16.75 -56.0 -1.25 -55.5 -13.0 -46.25" fill="#000000" fill-rule="evenodd" stroke="none"/>
    <path d="M2.5 27.0 Q37.0 22.25 39.25 -21.5 40.75 81.25 2.25 85.0 -38.75 89.25 -41.0 -20.5 -36.25 26.0 2.5 27.0 M93.5 -7.25 L94.25 -7.5 108.25 7.25 110.25 8.25 121.0 18.5 149.25 47.75 150.5 48.0 150.2 48.85 153.05 51.05 Q159.6 55.5 168.95 55.85 193.75 35.75 226.0 -21.75 201.05 33.85 171.95 60.7 L170.5 60.95 170.35 61.0 Q168.05 62.5 165.25 62.5 158.05 62.5 150.0 56.9 144.9 53.35 143.4 50.9 L128.0 35.5 Q126.75 96.0 94.25 113.5 L99.0 121.0 103.5 130.25 100.75 131.0 Q99.75 132.75 93.5 135.5 94.25 138.0 92.75 140.25 L81.25 154.0 Q58.75 176.25 17.0 187.25 22.25 201.25 69.0 193.75 99.5 187.0 109.0 165.0 L110.0 163.5 109.75 165.75 105.25 176.25 Q91.5 198.0 47.5 201.5 L33.0 200.75 Q24.75 199.0 19.5 195.75 9.0 186.0 8.5 164.75 L-3.0 163.75 -5.0 164.0 -6.0 172.5 -8.5 183.5 -10.75 189.25 -14.25 194.25 Q-23.5 202.75 -51.75 201.0 -74.75 198.0 -87.75 189.75 -105.25 177.75 -106.75 163.5 -102.0 178.0 -83.5 187.25 -69.75 179.75 -26.0 194.75 L-19.5 193.0 Q-12.0 190.0 -13.5 187.25 -23.25 180.75 -30.25 181.75 L-67.5 165.25 -88.75 143.0 -96.25 139.5 -100.25 136.75 -102.5 136.5 -102.75 135.5 Q-99.0 129.5 -99.25 127.5 L-97.25 123.0 -94.75 119.75 -101.75 114.5 Q-145.25 107.5 -150.0 99.0 -151.75 99.0 -152.75 93.75 L-151.75 84.25 -151.0 84.0 -150.5 84.75 -151.25 91.75 -146.25 92.5 -138.0 97.5 -132.5 92.0 -111.5 95.0 -100.5 99.0 -109.75 97.75 -131.75 92.5 -133.5 98.25 -109.75 104.25 -57.0 109.75 -13.5 112.0 21.75 111.75 24.0 111.0 35.25 110.5 Q34.25 112.0 23.0 113.5 L-11.0 116.0 -47.25 116.75 -74.0 116.0 -65.75 127.0 -38.75 144.5 -33.0 147.5 2.75 153.25 12.75 151.5 40.25 144.0 50.0 138.25 71.25 123.5 87.75 99.0 Q91.0 93.0 88.0 89.0 L93.0 85.75 99.5 79.5 99.25 79.0 107.25 70.0 117.75 49.5 115.75 41.75 110.25 27.5 102.5 10.25 93.5 -7.25 M-77.25 -6.0 L-90.5 46.25 -95.75 70.75 -118.75 66.75 -116.0 67.0 -115.0 65.75 -104.25 44.0 -102.75 42.5 -90.0 17.0 -88.5 15.5 -77.5 -8.0 -77.25 -6.0" fill="#000000" fill-opacity="0.49803922" fill-rule="evenodd" stroke="none"/>
  </g>
</svg>
