<?xml version="1.0" encoding="UTF-8" standalone="no"?>
<svg xmlns:ffdec="https://www.free-decompiler.com/flash" xmlns:xlink="http://www.w3.org/1999/xlink" ffdec:objectType="shape" height="332.25px" width="322.75px" xmlns="http://www.w3.org/2000/svg">
  <g transform="matrix(1.0, 0.0, 0.0, 1.0, 143.0, 175.5)">
    <path d="M69.75 -84.5 L96.0 -68.75 144.0 -35.5 155.25 -26.25 155.75 -26.0 156.25 -25.5 157.0 -25.0 157.5 -24.5 158.25 -24.0 172.0 -13.25 172.5 -12.75 173.0 -12.7 173.25 -12.45 Q179.75 -5.7 179.75 -1.1 179.75 7.35 168.75 14.4 L161.2 19.35 160.6 19.85 149.5 27.25 120.75 40.0 Q123.5 77.75 90.25 107.25 L82.75 113.0 82.25 113.5 78.75 116.25 74.5 118.5 73.75 118.75 72.75 119.5 71.0 120.25 69.0 121.5 67.0 122.25 58.75 131.5 28.25 149.0 2.0 156.75 -27.75 155.25 -43.25 149.5 -43.75 149.5 -53.5 146.0 -69.25 138.0 -81.25 125.75 -84.25 124.5 -85.0 124.0 -85.5 123.75 -87.0 123.25 -94.25 118.75 -94.5 118.75 Q-120.5 102.0 -128.75 81.0 -140.75 80.75 -141.75 65.25 L-143.0 61.25 -142.5 51.0 -142.25 51.0 -142.25 50.25 -141.25 41.75 -141.25 41.5 -141.0 39.75 -141.0 39.5 -140.75 38.0 -140.75 37.25 -140.5 36.0 -140.5 35.0 -140.25 34.25 -140.25 33.0 -140.0 32.25 -140.0 30.5 -139.75 30.5 -139.75 28.25 -139.5 28.25 -139.5 26.0 -139.25 26.0 -139.25 24.0 -139.0 23.25 -138.75 18.0 Q-139.25 -34.25 -112.75 -84.5 -84.0 -153.5 -49.5 -175.5 -6.75 -176.5 61.75 -87.75 L69.75 -84.5 M137.0 0.0 L105.0 -18.25 113.0 2.5 115.0 12.0 127.5 5.75 128.0 5.0 129.0 4.5 130.25 4.25 130.75 3.5 136.75 0.25 137.0 0.0" fill="#2e47aa" fill-rule="evenodd" stroke="none"/>
  </g>
</svg>
