<?xml version="1.0" encoding="UTF-8" standalone="no"?>
<svg xmlns:ffdec="https://www.free-decompiler.com/flash" xmlns:xlink="http://www.w3.org/1999/xlink" ffdec:objectType="shape" height="323.05px" width="324.25px" xmlns="http://www.w3.org/2000/svg">
  <g transform="matrix(1.0, 0.0, 0.0, 1.0, 136.5, 162.3)">
    <path d="M72.0 -76.25 L79.75 -73.0 107.25 -55.5 154.5 -21.0 182.25 2.5 183.6 2.7 184.25 4.0 Q187.75 10.8 187.75 14.25 187.75 20.0 177.25 29.85 L176.6 30.5 163.0 39.75 122.25 58.25 Q117.5 91.75 92.5 110.25 L89.5 112.5 89.0 113.0 87.0 114.25 84.75 116.25 84.0 116.75 83.5 117.0 80.75 119.0 77.0 121.0 76.25 121.5 73.5 122.75 60.25 137.75 36.5 150.25 30.5 153.0 3.5 160.75 -26.0 158.5 -34.0 156.0 -34.5 155.75 -34.75 155.75 -50.75 149.25 -66.5 141.75 -77.75 130.25 -78.75 129.0 -81.75 126.0 -83.0 125.75 -84.5 125.0 -86.0 124.5 -87.5 123.75 -106.5 110.75 -117.0 99.5 -121.75 93.0 Q-134.0 91.0 -133.5 77.75 L-134.25 69.25 -134.25 66.25 -134.0 65.25 -134.0 60.0 Q-142.5 13.25 -122.25 -40.75 -87.5 -122.75 -43.75 -158.0 -10.0 -181.5 72.0 -76.25 M146.5 14.0 L112.5 -6.5 117.5 9.25 121.5 28.0 146.5 14.0" fill="#2e47aa" fill-rule="evenodd" stroke="none"/>
  </g>
</svg>
