<?xml version="1.0" encoding="UTF-8" standalone="no"?>
<svg xmlns:ffdec="https://www.free-decompiler.com/flash" xmlns:xlink="http://www.w3.org/1999/xlink" ffdec:objectType="shape" height="312.0px" width="330.35px" xmlns="http://www.w3.org/2000/svg">
  <g transform="matrix(1.0, 0.0, 0.0, 1.0, 132.6, 147.25)">
    <path d="M81.5 -64.25 L91.5 -59.0 117.0 -41.75 161.0 -8.25 190.5 17.75 190.65 17.8 192.25 20.75 Q197.75 30.75 197.75 31.5 197.75 39.15 186.8 45.5 L186.0 45.25 170.5 55.75 120.5 78.25 113.25 93.25 104.0 104.75 91.0 115.75 90.25 116.5 86.75 119.25 85.75 120.25 79.25 123.5 64.0 141.25 61.5 143.5 37.75 156.0 32.75 158.25 8.0 164.25 2.75 164.75 -24.25 162.0 -35.0 159.5 -46.5 154.0 -46.75 154.0 -64.75 145.5 -78.5 130.75 -79.25 129.75 -81.5 127.5 -83.75 126.75 -85.25 126.0 -86.0 125.75 -86.25 125.5 -86.5 125.5 -87.0 125.0 -105.75 112.0 -111.0 106.0 Q-125.75 107.0 -125.75 91.75 L-126.25 85.5 -126.5 85.25 -127.0 81.25 -127.0 81.0 Q-155.25 -26.25 -41.5 -137.5 -2.25 -175.75 81.5 -64.25 M126.25 41.0 L126.0 44.5 154.75 28.5 118.5 5.5 121.75 16.75 126.25 41.0" fill="#2e47aa" fill-rule="evenodd" stroke="none"/>
  </g>
</svg>
