<?xml version="1.0" encoding="UTF-8" standalone="no"?>
<svg xmlns:ffdec="https://www.free-decompiler.com/flash" xmlns:xlink="http://www.w3.org/1999/xlink" ffdec:objectType="shape" height="302.75px" width="337.5px" xmlns="http://www.w3.org/2000/svg">
  <g transform="matrix(1.0, 0.0, 0.0, 1.0, 130.75, 134.75)">
    <path d="M27.5 -123.5 L42.5 -111.5 58.0 -96.0 71.75 -80.25 93.0 -52.75 101.75 -48.25 125.25 -31.5 164.75 0.0 165.75 1.0 166.25 1.25 174.75 8.0 200.5 32.0 201.0 32.75 201.6 33.0 202.75 34.5 Q206.75 39.6 206.75 45.5 206.75 49.7 203.45 53.25 201.25 55.65 196.25 58.8 190.5 62.45 189.05 63.7 187.3 65.2 186.5 66.8 L181.5 70.25 111.75 101.25 105.25 109.75 92.0 120.0 90.75 121.25 89.5 122.0 88.75 122.75 88.0 123.25 87.5 123.75 83.5 125.75 83.0 126.75 82.0 127.75 81.25 128.75 80.25 129.75 65.5 147.5 36.75 162.5 8.5 168.0 -5.25 167.0 -33.0 163.0 -62.25 148.5 -78.5 130.5 -79.25 129.5 -80.0 128.75 -80.75 128.5 -82.5 127.5 -84.0 127.0 -88.75 124.25 -99.0 116.5 Q-116.0 118.0 -115.0 105.25 L-115.25 104.75 -115.25 103.5 -115.5 101.0 -115.75 100.5 -115.75 99.0 -116.25 98.5 Q-144.5 52.5 -117.75 -11.75 L-109.0 -30.0 -90.5 -57.0 -58.0 -96.5 -41.75 -112.75 -34.75 -118.25 Q-5.25 -144.25 18.25 -129.25 L27.5 -123.5 M130.0 48.5 L128.25 62.75 164.75 42.25 125.0 15.75 129.5 38.75 130.0 48.5" fill="#2e47aa" fill-rule="evenodd" stroke="none"/>
  </g>
</svg>
