<?xml version="1.0" encoding="UTF-8" standalone="no"?>
<svg xmlns:ffdec="https://www.free-decompiler.com/flash" xmlns:xlink="http://www.w3.org/1999/xlink" ffdec:objectType="shape" height="315.1px" width="342.1px" xmlns="http://www.w3.org/2000/svg">
  <g transform="matrix(1.0, 0.0, 0.0, 1.0, 127.35, 150.6)">
    <path d="M98.75 -63.25 L109.0 -58.0 133.5 -40.5 173.0 -8.5 174.0 -7.5 174.5 -7.25 192.0 8.75 193.0 9.5 207.5 22.75 209.65 23.5 Q214.75 30.25 214.75 36.35 214.75 42.5 204.9 50.7 L202.5 50.0 186.5 60.25 121.75 87.25 119.5 91.75 106.25 108.25 90.25 120.75 89.5 121.5 88.5 122.25 84.5 124.0 81.5 127.5 81.0 128.25 66.5 144.25 38.0 158.5 8.0 164.5 -4.75 163.0 -5.5 162.75 -22.25 160.75 -35.5 155.75 -49.0 149.25 -60.5 143.0 -75.75 126.5 -77.75 125.75 -84.25 122.5 -84.5 122.5 -85.25 121.75 -93.0 116.25 Q-140.25 87.5 -122.5 12.25 L-111.75 -20.25 -102.25 -39.0 -87.75 -60.25 -65.75 -88.0 -46.0 -111.0 -29.5 -127.5 Q4.75 -156.25 20.75 -149.25 48.25 -143.0 98.75 -63.25 M170.75 32.75 L171.0 32.5 126.75 2.5 Q135.5 38.5 131.25 54.0 L158.75 39.25 159.5 38.75 169.5 33.5 169.75 33.25 170.75 32.75" fill="#2e47aa" fill-rule="evenodd" stroke="none"/>
  </g>
</svg>
