<?xml version="1.0" encoding="UTF-8" standalone="no"?>
<svg xmlns:ffdec="https://www.free-decompiler.com/flash" xmlns:xlink="http://www.w3.org/1999/xlink" ffdec:objectType="shape" height="326.35px" width="342.8px" xmlns="http://www.w3.org/2000/svg">
  <g transform="matrix(1.0, 0.0, 0.0, 1.0, 125.3, 165.35)">
    <path d="M105.75 -72.5 L117.25 -66.5 144.0 -47.0 176.0 -21.0 198.5 -0.25 199.0 0.0 212.8 12.9 217.5 28.5 Q217.5 30.4 215.65 32.55 214.35 34.05 213.95 35.85 L209.55 39.75 206.05 43.1 194.75 50.25 127.5 76.5 Q124.75 92.5 96.0 116.25 L89.25 121.25 86.25 122.75 85.25 123.0 82.25 126.25 82.0 126.75 80.5 128.25 79.75 129.25 69.75 140.5 42.25 153.75 24.0 158.0 23.5 158.0 22.75 158.25 10.25 161.0 -21.0 156.75 -46.25 145.75 -57.75 138.25 -69.75 125.5 -74.25 123.5 -75.0 123.25 -75.75 122.75 -77.5 122.0 -81.0 119.75 -81.75 119.5 -82.5 119.0 -82.75 119.0 -83.25 118.5 -90.75 113.0 -91.0 113.0 Q-136.75 78.75 -121.5 19.5 -120.25 -35.75 -15.0 -142.0 29.25 -176.75 40.75 -159.75 61.25 -153.5 105.75 -72.5 M177.5 24.0 L130.25 -8.5 134.25 14.5 135.0 25.0 135.0 38.75 134.0 46.25 177.5 24.25 177.5 24.0" fill="#2e47aa" fill-rule="evenodd" stroke="none"/>
  </g>
</svg>
