<?xml version="1.0" encoding="UTF-8" standalone="no"?>
<svg xmlns:ffdec="https://www.free-decompiler.com/flash" xmlns:xlink="http://www.w3.org/1999/xlink" ffdec:objectType="shape" height="333.95px" width="346.5px" xmlns="http://www.w3.org/2000/svg">
  <g transform="matrix(1.0, 0.0, 0.0, 1.0, 121.55, 176.95)">
    <path d="M127.0 -73.0 L154.75 -52.5 197.25 -16.5 217.75 3.35 Q235.0 27.55 211.0 36.8 L203.0 41.75 156.0 59.25 133.0 67.0 Q122.5 99.25 96.0 116.25 L90.0 120.5 86.5 122.25 85.75 122.5 81.75 126.75 81.5 127.25 73.0 136.25 71.0 138.0 45.0 149.75 15.75 156.75 7.5 157.0 -17.75 153.5 -43.0 142.25 -47.25 139.25 -56.75 131.5 -62.0 125.75 -63.5 124.5 -75.0 119.25 -80.5 115.5 -81.0 115.25 -89.0 109.75 Q-138.0 78.0 -113.25 2.0 -111.25 -42.75 -3.5 -151.5 34.75 -183.0 49.0 -175.5 82.5 -156.25 113.75 -80.25 L127.0 -73.0 M137.0 -3.5 L138.5 12.5 138.5 30.0 137.0 40.0 184.25 17.0 134.25 -17.75 137.0 -3.5" fill="#2e47aa" fill-rule="evenodd" stroke="none"/>
  </g>
</svg>
