<?xml version="1.0" encoding="UTF-8" standalone="no"?>
<svg xmlns:ffdec="https://www.free-decompiler.com/flash" xmlns:xlink="http://www.w3.org/1999/xlink" ffdec:objectType="shape" height="94.6px" width="218.1px" xmlns="http://www.w3.org/2000/svg">
  <g transform="matrix(1.0, 0.0, 0.0, 1.0, 107.6, -107.25)">
    <path d="M67.0 122.25 Q75.45 118.65 82.75 113.0 L90.25 107.25 Q103.9 125.75 109.4 148.0 112.4 160.2 107.3 171.65 103.75 179.7 97.0 185.3 88.05 192.65 77.0 196.1 62.05 200.95 46.45 201.8 33.8 202.35 22.45 196.6 18.65 194.7 15.4 191.65 14.45 190.8 13.85 189.65 12.6 187.35 11.95 184.6 8.4 170.15 7.5 155.25 L28.25 149.0 58.75 131.5 67.0 122.25 M-107.25 152.75 Q-110.25 146.25 -89.0 109.75 L-81.0 115.25 -80.5 115.5 -75.0 119.25 -63.5 124.5 Q-56.2 132.75 -47.25 139.25 L-43.0 142.25 -17.75 153.5 -4.5 155.25 Q-7.75 190.75 -14.0 193.25 L-14.75 194.5 -20.0 197.5 -30.75 200.75 -41.75 201.5 -52.25 200.75 Q-108.75 192.75 -107.5 153.5 L-107.25 152.75" fill="#e58508" fill-rule="evenodd" stroke="none"/>
  </g>
</svg>
