<?xml version="1.0" encoding="UTF-8" standalone="no"?>
<svg xmlns:ffdec="https://www.free-decompiler.com/flash" xmlns:xlink="http://www.w3.org/1999/xlink" ffdec:objectType="shape" height="303.45px" width="321.35px" xmlns="http://www.w3.org/2000/svg">
  <g transform="matrix(1.0, 0.0, 0.0, 1.0, 142.75, 100.55)">
    <path d="M-10.5 -79.0 Q-13.5 -70.75 -36.75 -76.75 -54.25 -68.5 -59.75 -75.25 -62.4 -77.05 -63.65 -80.05 L-64.5 -83.1 Q-65.25 -88.5 -64.0 -93.6 -63.15 -97.05 -59.5 -98.25 -49.15 -101.7 -38.5 -98.75 L-36.25 -99.75 -35.0 -100.25 Q-27.65 -100.75 -20.3 -100.45 -15.9 -100.0 -11.75 -98.15 -9.5 -97.25 -8.75 -95.3 -7.25 -91.4 -7.3 -87.0 -7.35 -82.3 -10.5 -79.0 M-63.75 -18.5 Q-47.5 0.75 -33.75 -3.25 L-31.25 -3.25 Q-9.5 -1.0 4.25 -32.75 L5.5 -31.5 10.0 -21.25 20.25 -2.0 25.5 10.75 41.25 36.25 49.0 45.25 52.75 48.5 33.5 60.5 -1.5 55.5 -42.5 50.75 -78.5 47.5 -72.75 24.5 -69.25 0.75 -63.75 -18.5 M35.75 74.5 L42.0 72.0 48.0 71.0 48.0 69.75 66.75 62.75 Q93.0 94.5 67.0 122.25 L58.75 131.5 28.25 149.0 12.7 153.65 11.4 154.05 2.0 156.75 -4.5 156.5 Q-16.15 155.85 -27.5 153.85 -35.75 152.35 -43.6 149.15 -56.5 143.75 -68.2 136.35 -75.25 131.85 -81.25 125.75 -106.5 105.0 -89.0 78.75 L-34.0 78.0 -1.5 76.5 18.25 74.75 20.75 78.5 34.5 75.0 34.75 74.75 35.5 74.5 35.75 74.5 M-25.25 -78.0 Q-14.0 -83.5 -26.0 -88.5 L-29.5 -87.25 -31.75 -84.5 Q-31.75 -80.75 -28.75 -78.25 L-25.25 -78.0 M-48.0 -76.75 Q-38.25 -87.0 -52.5 -86.75 -59.25 -78.0 -48.0 -76.75" fill="#ffffff" fill-rule="evenodd" stroke="none"/>
    <path d="M-48.0 -76.75 Q-59.25 -78.0 -52.5 -86.75 -38.25 -87.0 -48.0 -76.75 M-25.25 -78.0 L-28.75 -78.25 Q-31.75 -80.75 -31.75 -84.5 L-29.5 -87.25 -26.0 -88.5 Q-14.0 -83.5 -25.25 -78.0" fill="#000000" fill-rule="evenodd" stroke="none"/>
    <path d="M-10.5 -79.0 Q-4.5 -75.9 0.1 -70.8 4.95 -65.55 6.7 -58.75 7.2 -56.85 7.1 -55.05 6.65 -43.8 4.25 -32.75 -9.5 -1.0 -31.25 -3.25 L-33.75 -3.25 Q-47.5 0.75 -63.75 -18.5 L-63.75 -19.25 -64.4 -20.25 Q-66.5 -25.0 -67.5 -29.95 -69.75 -41.0 -70.15 -52.3 -70.7 -66.4 -59.75 -75.25 -54.25 -68.5 -36.75 -76.75 -13.5 -70.75 -10.5 -79.0" fill="#e58508" fill-rule="evenodd" stroke="none"/>
    <path d="M55.75 -54.5 L57.5 -54.0 79.25 -39.5 137.0 -4.75 141.75 -2.75 Q141.75 -1.5 137.0 0.25 L105.25 -18.25 115.55 10.4 111.0 14.65 Q106.55 17.2 102.05 19.7 L95.0 5.25 77.5 -22.75 55.75 -54.5 M177.5 4.65 L176.15 5.0 177.25 5.0 Q175.45 7.75 169.4 12.05 163.45 16.25 161.6 19.25 L150.5 26.75 120.75 39.75 Q116.5 93.0 90.25 107.0 L98.75 121.0 Q86.0 121.75 60.25 157.5 L32.5 172.0 Q13.25 174.75 12.5 179.0 L12.5 181.5 14.0 185.0 16.5 183.0 24.25 183.25 33.75 185.0 39.25 179.75 58.75 164.25 95.0 138.0 103.0 133.0 Q117.0 154.75 105.75 175.0 96.25 196.25 47.5 201.5 8.25 211.0 7.75 155.25 L2.5 156.75 -2.5 156.5 Q-7.0 158.0 -8.0 181.75 L-11.0 189.75 -14.25 194.25 Q-23.5 202.75 -51.75 201.0 -74.75 198.0 -87.75 189.75 -101.5 181.25 -106.25 166.5 L-106.75 163.0 Q-105.25 161.0 -103.0 161.0 L-94.75 161.0 -55.75 166.5 -79.0 154.5 Q-96.0 132.0 -101.0 133.0 -102.0 131.5 -97.75 124.0 L-94.25 118.5 Q-121.25 101.5 -128.25 81.25 L-132.5 80.5 Q-135.25 79.75 -138.0 76.75 L-140.75 72.75 -141.25 66.25 Q-142.5 65.25 -142.75 60.0 L-139.5 61.25 Q-141.75 61.5 -140.25 66.5 L-133.0 71.75 -124.25 73.75 Q-121.25 70.5 -130.0 64.0 L-101.75 68.25 -30.75 71.0 18.75 71.5 31.5 71.0 35.25 71.5 48.0 70.0 48.25 65.5 48.75 67.0 49.75 66.75 147.25 22.75 149.75 21.25 146.75 20.75 177.75 2.0 Q177.4 1.1 178.6 -0.15 178.05 1.55 178.05 2.9 178.05 3.65 177.5 4.65 M166.75 10.0 L167.25 10.25 167.45 10.15 166.75 10.0 M122.0 8.75 L121.5 8.5 123.0 8.0 122.0 8.75 M110.0 44.5 L62.75 64.5 48.25 69.75 48.25 71.0 42.25 72.0 32.75 75.75 22.0 78.5 Q20.25 78.5 18.25 75.0 L14.5 75.0 2.5 76.25 -45.0 78.5 -99.0 78.75 Q-106.5 76.5 -108.25 77.75 L-108.75 82.75 -106.0 86.5 -95.5 96.0 Q-96.25 89.25 -93.25 89.75 L-92.75 92.75 -90.25 97.25 -78.0 115.75 -78.0 116.75 -61.5 129.25 Q-56.1 132.15 -50.75 135.0 L-50.5 134.0 Q-50.75 132.5 -45.75 131.5 L-9.25 137.25 -5.25 139.75 Q-3.75 144.5 -2.0 144.0 L28.75 137.75 60.25 119.0 60.5 117.75 65.75 112.5 Q69.0 105.5 70.5 105.5 L78.75 92.5 78.5 90.0 Q80.5 92.75 80.25 95.25 L85.25 92.5 101.0 78.5 Q101.0 76.5 103.75 74.5 120.0 48.75 113.75 43.5 L110.0 44.5 M90.5 26.25 L90.0 26.0 91.25 25.5 90.5 26.25 M30.75 74.25 Q28.5 72.75 23.75 73.0 L19.25 73.5 Q18.0 75.0 22.5 77.5 L30.75 74.25 M57.75 195.5 Q94.0 189.0 103.25 175.25 83.5 176.0 57.75 195.5 M-71.0 -50.75 Q-66.5 -1.75 -34.0 -3.25 3.5 -8.25 7.0 -48.5 5.25 34.75 -41.75 39.0 -75.25 34.25 -71.0 -50.75 M-94.25 -10.0 Q-92.2 -16.2 -92.1 -18.3 L-91.75 -16.25 -102.25 41.0 -102.5 45.5 -110.0 44.75 -94.25 -10.0 M-128.15 -45.3 L-127.75 -46.5 -127.25 -46.25 -128.15 -45.3 M-127.75 -48.0 L-127.0 -48.0 -127.25 -47.0 -127.75 -48.0 M-128.2 -45.2 L-127.75 -44.75 -129.05 -41.15 -132.0 -30.25 Q-132.1 -28.6 -132.35 -26.9 L-132.95 -23.05 -133.25 -20.55 -133.9 -15.25 -136.8 9.45 -138.25 19.5 Q-139.0 7.65 -137.75 -4.05 -135.5 -25.15 -128.2 -45.2" fill="#000000" fill-opacity="0.49803922" fill-rule="evenodd" stroke="none"/>
  </g>
</svg>
