<?xml version="1.0" encoding="UTF-8" standalone="no"?>
<svg xmlns:ffdec="https://www.free-decompiler.com/flash" xmlns:xlink="http://www.w3.org/1999/xlink" ffdec:objectType="shape" height="288.8px" width="329.3px" xmlns="http://www.w3.org/2000/svg">
  <g transform="matrix(1.0, 0.0, 0.0, 1.0, 136.25, 86.35)">
    <path d="M-49.0 -62.5 L-49.55 -62.9 Q-51.55 -64.75 -52.75 -67.25 -53.6 -69.15 -53.95 -71.1 -54.75 -75.25 -54.1 -79.35 -53.6 -82.45 -50.5 -83.75 -38.8 -88.4 -26.5 -84.75 L-24.25 -85.5 -15.45 -86.05 -5.4 -85.75 Q-1.25 -84.9 2.45 -82.7 3.75 -82.0 3.6 -80.9 2.6 -73.0 0.5 -65.25 -2.75 -56.5 -25.25 -62.75 -39.5 -55.0 -49.0 -62.5 M14.75 -19.25 L19.0 -9.25 Q50.75 60.25 64.0 62.0 L42.75 76.25 12.25 71.25 -30.25 65.5 -75.0 60.5 -71.5 51.75 -66.25 34.5 -61.5 11.0 -55.75 -6.0 -55.25 -8.0 -54.75 -7.75 Q-49.25 3.95 -37.05 8.95 -33.95 10.2 -30.6 10.8 L-16.5 11.55 Q-11.05 11.35 -6.35 8.25 -1.2 4.8 2.6 0.1 9.8 -8.95 14.75 -19.25 M27.75 90.0 Q27.75 91.75 30.75 94.25 L45.25 90.0 45.25 89.75 48.0 88.75 57.5 87.25 58.0 85.0 76.5 77.75 Q91.0 101.25 73.5 122.75 L60.25 137.75 36.5 150.25 30.5 153.0 3.5 160.75 -4.75 160.25 -34.0 156.0 -34.75 155.75 Q-50.65 148.75 -65.35 139.85 -72.65 135.35 -78.8 129.05 L-81.75 126.0 Q-101.0 106.25 -88.5 91.25 L-30.75 92.0 13.75 91.0 27.75 90.0 M-19.5 -66.75 L-16.75 -64.0 -13.0 -63.75 Q-2.5 -69.75 -14.25 -74.0 -18.0 -73.25 -20.0 -70.5 L-19.5 -66.75 M-41.25 -72.75 Q-48.0 -65.0 -37.0 -62.75 -26.0 -72.5 -41.25 -72.75" fill="#ffffff" fill-rule="evenodd" stroke="none"/>
    <path d="M-49.0 -62.5 Q-39.5 -55.0 -25.25 -62.75 -2.75 -56.5 0.5 -65.25 11.3 -60.6 15.65 -49.5 L16.7 -45.9 Q17.35 -42.5 17.15 -39.0 16.85 -32.9 15.85 -26.8 L14.75 -19.25 Q9.8 -8.95 2.6 0.1 -1.2 4.8 -6.35 8.25 -11.05 11.35 -16.5 11.55 L-30.6 10.8 Q-33.95 10.2 -37.05 8.95 -49.25 3.95 -54.75 -7.75 L-55.25 -8.0 -55.5 -9.0 -55.75 -9.5 -60.25 -23.0 -61.5 -40.75 Q-58.25 -59.5 -49.0 -62.5" fill="#e58508" fill-rule="evenodd" stroke="none"/>
    <path d="M-41.25 -72.75 Q-26.0 -72.5 -37.0 -62.75 -48.0 -65.0 -41.25 -72.75 M-19.5 -66.75 L-20.0 -70.5 Q-18.0 -73.25 -14.25 -74.0 -2.5 -69.75 -13.0 -63.75 L-16.75 -64.0 -19.5 -66.75" fill="#000000" fill-rule="evenodd" stroke="none"/>
    <path d="M86.0 -9.75 L65.0 -43.0 136.25 3.0 Q140.25 5.75 145.0 6.25 L154.0 11.75 149.25 13.0 147.15 14.15 145.35 13.1 112.5 -6.5 117.25 8.25 120.9 25.8 120.9 25.85 Q120.9 27.2 121.2 28.45 L109.5 35.0 97.75 11.5 86.0 -9.75 M186.45 19.4 L176.95 30.25 163.5 39.5 122.25 58.0 Q117.5 92.0 92.5 110.0 L101.0 124.75 Q99.0 124.0 91.0 131.5 L86.0 133.75 85.75 137.5 67.5 157.5 67.75 158.0 65.5 160.0 33.75 176.0 19.75 178.75 Q14.75 180.75 13.75 182.75 13.5 197.25 53.0 196.5 51.75 192.5 68.0 178.5 L107.0 149.5 Q115.25 152.75 104.75 177.0 92.75 197.25 47.5 201.5 8.25 208.75 7.75 159.5 L4.0 160.75 -4.5 160.25 -8.0 181.75 Q-11.0 191.5 -14.25 194.25 -23.75 202.75 -51.25 201.0 -75.0 198.0 -87.75 189.75 -105.25 177.75 -106.75 163.5 -105.5 163.5 -103.25 170.75 L-98.75 176.25 Q-97.75 173.75 -88.75 174.0 L-42.75 180.25 -24.75 184.25 Q-17.75 186.0 -16.0 190.25 L-12.75 189.0 -10.75 185.25 Q-12.0 178.75 -38.25 177.0 L-75.75 158.75 -95.5 136.5 Q-100.75 133.25 -102.25 134.75 L-97.75 124.0 -94.25 118.75 -105.75 111.25 -116.75 99.75 -121.25 93.25 -124.5 92.5 -128.0 90.5 Q-130.5 89.25 -132.25 85.75 L-134.25 73.0 -130.75 74.25 Q-133.25 75.25 -131.75 79.25 L-127.75 77.5 Q-125.75 85.25 -123.0 84.75 -121.5 85.75 -117.25 81.0 L-121.25 77.5 -95.25 81.75 5.25 86.5 45.0 87.5 58.0 86.5 57.75 87.25 48.75 88.5 43.75 90.75 31.5 94.25 30.75 94.25 27.5 90.25 -30.5 92.0 -90.0 91.25 -99.0 89.5 -92.5 95.0 -90.5 94.5 -89.5 98.25 -75.0 119.5 -53.25 136.0 -43.5 141.25 -25.0 145.5 -5.75 148.75 18.5 144.5 31.75 141.75 48.5 132.25 62.75 122.5 81.75 96.0 81.5 94.0 Q82.75 96.25 87.0 92.5 L102.75 77.75 111.0 65.0 111.5 63.0 59.25 84.5 58.25 85.5 57.75 85.25 58.25 82.25 115.5 56.75 158.0 36.25 186.75 18.25 193.0 11.75 193.05 12.15 186.45 19.4 M-30.25 60.0 Q-63.25 56.5 -61.5 -36.25 -52.5 15.0 -23.5 11.0 12.75 7.5 17.75 -36.0 17.75 53.5 -30.25 60.0 M-133.25 61.25 L-132.75 63.5 -133.75 67.75 Q-141.0 18.0 -127.25 -25.0 -133.75 -0.25 -128.5 20.25 L-133.25 61.25 M-85.0 1.0 L-90.25 29.75 -94.5 58.75 -103.0 58.0 -101.5 57.5 -100.6 52.55 -96.5 36.0 -83.75 -12.5 -85.0 1.0 M94.75 43.5 L94.0 44.25 93.5 44.0 94.75 43.5 M156.5 12.0 L155.5 12.0 147.0 6.0 156.5 12.0" fill="#000000" fill-opacity="0.49803922" fill-rule="evenodd" stroke="none"/>
  </g>
</svg>
