<?xml version="1.0" encoding="UTF-8" standalone="no"?>
<svg xmlns:ffdec="https://www.free-decompiler.com/flash" xmlns:xlink="http://www.w3.org/1999/xlink" ffdec:objectType="shape" height="271.7px" width="325.75px" xmlns="http://www.w3.org/2000/svg">
  <g transform="matrix(1.0, 0.0, 0.0, 1.0, 133.8, 70.2)">
    <path d="M-39.5 -48.5 Q-41.1 -49.65 -42.0 -51.6 -42.7 -53.05 -43.05 -54.55 -44.2 -59.5 -45.0 -64.5 L-44.0 -66.5 Q-42.0 -67.65 -39.85 -67.95 -31.65 -69.65 -23.25 -69.8 L-15.5 -69.25 0.0 -70.2 Q5.75 -70.15 11.3 -68.35 13.25 -67.75 14.35 -66.1 15.85 -63.75 15.65 -60.7 15.5 -58.85 14.8 -57.35 L11.5 -50.5 Q0.5 -40.0 -14.75 -47.5 -28.0 -39.5 -39.5 -48.5 M24.0 -4.25 Q29.85 8.1 35.3 20.7 37.6 26.0 39.5 31.5 L54.25 57.0 73.1 74.95 74.25 76.5 51.0 92.75 16.25 86.5 -31.5 79.5 -72.75 74.5 Q-66.65 60.1 -61.5 45.4 -57.5 34.0 -53.85 22.5 -50.9 13.0 -47.25 3.75 -44.1 10.35 -39.55 15.85 -37.45 18.35 -34.7 20.15 -24.85 26.7 -13.0 26.3 L-8.8 26.4 Q5.25 25.4 14.25 14.65 19.15 8.8 21.55 1.65 22.55 -1.35 24.0 -4.25 M61.5 143.5 L37.75 156.0 32.75 158.25 8.0 164.25 2.75 164.75 -4.75 163.75 Q-14.5 162.85 -23.95 160.7 -35.4 158.0 -46.3 153.5 -55.65 149.75 -63.4 143.75 -73.0 136.3 -81.5 127.5 L-84.0 124.25 -90.75 111.0 -89.0 103.5 -84.0 104.25 -83.75 104.5 -77.75 104.75 -76.0 105.0 -73.25 105.0 -72.75 105.25 -7.5 106.75 36.25 106.25 39.25 110.5 52.75 106.5 53.0 106.5 55.5 105.5 66.5 104.0 67.0 100.75 84.5 93.75 Q89.0 111.5 79.25 123.5 L64.0 141.25 61.5 143.5 M-3.25 -47.75 Q8.5 -53.75 -1.75 -58.0 -15.5 -55.75 -3.25 -47.75 M-25.5 -47.5 Q-15.5 -56.75 -30.5 -57.25 -37.0 -48.75 -25.5 -47.5" fill="#ffffff" fill-rule="evenodd" stroke="none"/>
    <path d="M-39.5 -48.5 Q-28.0 -39.5 -14.75 -47.5 0.5 -40.0 11.5 -50.5 20.55 -44.95 25.95 -35.75 26.85 -34.2 26.95 -32.25 27.65 -18.0 24.0 -4.25 22.55 -1.35 21.55 1.65 19.15 8.8 14.25 14.65 5.25 25.4 -8.8 26.4 L-13.0 26.3 Q-24.85 26.7 -34.7 20.15 -37.45 18.35 -39.55 15.85 -44.1 10.35 -47.25 3.75 L-51.25 -9.5 -52.5 -19.75 -52.5 -27.75 Q-55.0 -35.0 -39.5 -48.5" fill="#e58508" fill-rule="evenodd" stroke="none"/>
    <path d="M-25.5 -47.5 Q-37.0 -48.75 -30.5 -57.25 -15.5 -56.75 -25.5 -47.5 M-3.25 -47.75 Q-15.5 -55.75 -1.75 -58.0 8.5 -53.75 -3.25 -47.75" fill="#000000" fill-rule="evenodd" stroke="none"/>
    <path d="M-86.5 71.0 L-86.5 72.75 -83.25 73.25 -95.6 72.15 Q-93.5 71.45 -92.75 65.5 L-76.25 -2.5 -77.0 8.5 -86.5 71.0 M-126.25 87.0 L-122.25 88.75 Q-125.5 89.25 -123.75 93.75 -117.25 90.0 -111.0 94.25 L-113.25 92.0 -94.0 95.5 -80.25 97.0 53.75 104.0 66.75 103.0 66.75 104.0 56.5 105.25 40.25 110.5 39.25 110.5 36.25 106.5 -33.0 106.5 -85.25 104.5 Q-43.5 163.25 12.25 150.5 L34.5 145.25 65.0 126.0 84.75 99.5 84.25 94.0 67.5 100.75 67.25 98.25 113.75 77.75 170.0 51.0 191.95 36.75 189.9 39.5 Q187.35 42.9 185.85 45.4 L171.75 55.25 120.5 78.25 114.0 92.25 104.25 104.5 94.25 113.25 100.5 123.5 103.0 129.75 101.0 129.75 Q92.75 137.0 88.5 138.0 L88.5 142.0 69.25 163.75 36.0 180.5 Q22.0 181.5 17.0 186.25 23.25 201.5 67.25 194.25 100.0 187.5 109.5 163.5 111.0 165.25 105.25 176.25 L100.0 182.5 Q80.25 200.5 47.5 201.5 L33.0 200.75 Q24.75 199.0 19.5 195.75 9.0 186.0 8.5 164.75 L-4.25 163.75 Q-6.75 184.5 -14.25 194.25 -23.75 202.75 -51.25 201.0 -75.0 198.0 -87.75 189.75 -122.25 175.5 -94.75 119.75 L-104.75 112.75 -110.0 106.75 Q-110.75 105.25 -116.75 105.75 L-122.25 102.75 -124.75 99.25 -126.25 87.0 M-125.75 -10.0 L-124.75 -9.75 -127.75 10.25 -126.75 21.75 -124.75 36.5 -123.25 40.75 Q-122.0 40.35 -121.25 35.05 L-125.75 76.0 Q-124.5 81.75 -125.5 83.0 -142.0 56.75 -125.75 -10.0 M-97.0 178.25 Q-73.0 196.75 -40.25 196.75 -14.25 195.0 -14.5 186.75 L-18.0 184.5 -25.0 182.25 -38.25 179.5 Q-55.85 171.15 -73.5 162.75 L-94.0 140.0 -101.5 171.0 Q-102.75 172.5 -97.0 178.25 M162.25 26.0 L161.25 26.25 162.0 26.5 162.25 26.0 M-10.5 82.75 Q-56.75 88.75 -52.5 -23.0 -50.5 18.25 -15.75 26.0 23.5 23.75 27.5 -21.5 24.5 78.25 -10.5 82.75 M68.0 81.25 L67.5 81.0 68.75 80.5 68.0 81.25 M82.0 72.25 L81.25 72.0 82.75 71.5 82.0 72.25 M83.25 70.75 L84.55 70.6 83.5 71.25 83.25 70.75 M126.25 44.5 L127.75 44.0 114.65 51.55 111.5 42.75 103.5 24.25 91.75 0.75 73.25 -31.0 135.0 11.0 141.75 13.25 Q150.45 19.65 159.75 25.25 154.75 22.0 155.25 21.0 L165.0 27.25 157.5 28.0 156.1 28.65 Q154.85 27.75 153.35 27.2 L119.25 5.75 118.75 5.5 118.75 6.25 123.5 25.25 126.25 43.75 126.25 44.5" fill="#000000" fill-opacity="0.49803922" fill-rule="evenodd" stroke="none"/>
  </g>
</svg>
