<?xml version="1.0" encoding="UTF-8" standalone="no"?>
<svg xmlns:ffdec="https://www.free-decompiler.com/flash" xmlns:xlink="http://www.w3.org/1999/xlink" ffdec:objectType="shape" height="258.0px" width="343.0px" xmlns="http://www.w3.org/2000/svg">
  <g transform="matrix(1.0, 0.0, 0.0, 1.0, 130.75, 56.5)">
    <path d="M-25.75 -35.75 Q-28.35 -37.95 -29.6 -41.5 L-30.0 -43.3 Q-30.4 -47.75 -28.8 -51.55 -27.9 -53.75 -25.05 -54.2 -16.75 -55.9 -8.25 -56.5 L-4.25 -56.0 -1.75 -55.25 3.25 -55.65 Q10.85 -56.15 18.45 -55.6 22.75 -55.5 26.85 -54.1 28.35 -53.5 29.75 -52.5 29.6 -48.25 29.05 -44.05 28.75 -41.8 27.85 -39.6 27.05 -37.65 25.5 -36.75 20.25 -26.5 -0.5 -33.5 -14.0 -26.0 -25.75 -35.75 M36.25 10.5 Q43.35 28.0 51.65 44.95 58.6 59.0 67.4 72.05 68.7 73.95 70.7 75.4 77.75 80.35 82.85 87.25 84.05 88.9 84.5 90.75 L61.5 107.25 32.75 101.5 -14.0 93.5 -68.75 85.75 Q-63.5 76.35 -58.8 66.7 -53.4 55.75 -48.7 44.4 L-36.0 13.25 Q-30.85 27.1 -18.7 35.5 -10.95 40.9 -1.5 40.0 8.5 40.15 17.7 35.9 23.2 33.45 27.2 29.15 30.2 25.85 31.75 21.85 L36.25 10.5 M12.0 -33.5 Q22.25 -38.75 14.5 -43.25 -1.75 -41.25 12.0 -33.5 M67.5 120.25 L68.0 120.0 70.0 120.0 70.5 119.75 77.75 119.25 78.5 115.0 89.0 111.0 Q89.0 117.5 87.75 118.0 L83.5 125.75 81.2 128.7 80.3 129.8 65.5 147.5 36.75 162.5 8.5 168.0 -5.25 167.0 -33.0 163.0 -62.25 148.5 -78.2 130.25 Q-79.2 129.0 -80.75 128.5 L-87.5 113.5 -73.5 116.25 -8.5 119.75 47.25 120.5 Q47.75 123.0 50.25 125.0 L63.75 121.0 65.0 120.5 65.25 120.5 65.25 120.25 67.5 120.25 M-11.5 -33.5 Q-1.25 -43.25 -15.25 -43.25 -23.25 -35.75 -11.5 -33.5" fill="#ffffff" fill-rule="evenodd" stroke="none"/>
    <path d="M-25.75 -35.75 Q-14.0 -26.0 -0.5 -33.5 20.25 -26.5 25.5 -36.75 32.75 -32.05 37.75 -25.0 40.3 -21.35 40.05 -16.95 39.75 -11.9 39.1 -6.8 38.0 1.85 36.25 10.5 L31.75 21.85 Q30.2 25.85 27.2 29.15 23.2 33.45 17.7 35.9 8.5 40.15 -1.5 40.0 -10.95 40.9 -18.7 35.5 -30.85 27.1 -36.0 13.25 L-38.75 3.75 -40.5 -9.75 -40.25 -16.25 Q-38.5 -29.5 -25.75 -35.75" fill="#e58508" fill-rule="evenodd" stroke="none"/>
    <path d="M12.0 -33.5 Q-1.75 -41.25 14.5 -43.25 22.25 -38.75 12.0 -33.5 M-11.5 -33.5 Q-23.25 -35.75 -15.25 -43.25 -1.25 -43.25 -11.5 -33.5" fill="#000000" fill-rule="evenodd" stroke="none"/>
    <path d="M88.0 -13.25 L84.75 -18.25 85.0 -19.0 104.0 -4.75 139.75 20.25 146.5 23.0 162.75 34.25 163.75 34.75 164.25 34.0 175.5 42.0 165.25 42.5 114.5 71.5 90.3 87.6 90.15 87.3 Q105.25 74.8 117.0 53.5 L111.0 35.25 101.75 13.75 88.0 -13.25 M196.8 59.85 L196.5 59.75 182.25 69.75 133.0 92.25 112.0 101.0 105.25 109.75 96.25 116.75 100.25 123.25 105.25 135.0 103.25 135.25 Q97.0 140.75 92.5 142.0 L92.75 145.5 72.25 168.0 39.25 184.75 Q22.5 187.25 21.75 190.5 35.25 202.25 75.5 192.0 108.0 179.25 109.5 163.5 111.0 165.25 105.25 176.25 L99.0 183.75 Q76.75 201.25 47.5 201.5 L33.0 200.75 Q24.75 199.0 19.5 195.75 10.25 188.25 9.0 168.25 L-3.5 167.0 -5.5 167.5 -6.5 175.25 -8.25 182.75 -10.75 189.25 -14.25 194.25 -20.75 198.25 -28.25 200.25 -41.0 201.5 -53.25 200.75 -72.25 196.75 -81.25 193.25 -87.75 189.75 -95.25 184.25 Q-119.25 169.25 -95.25 120.0 -96.0 114.75 -107.75 116.25 L-112.75 113.25 -114.25 111.25 -115.5 99.25 -119.75 93.75 -124.75 82.75 -128.25 72.75 -130.75 44.25 -129.75 32.75 -126.75 17.25 -125.75 15.75 -123.25 5.5 Q-126.75 25.0 -120.5 46.0 L-113.75 60.0 -113.0 60.0 Q-114.0 55.75 -111.25 46.5 L-115.75 90.25 Q-117.0 101.75 -111.25 101.0 L-113.25 102.0 -113.0 105.75 Q-109.75 103.75 -106.5 104.5 L-100.5 106.25 -102.25 104.75 -101.5 104.65 Q-97.2 106.05 -90.65 106.75 L-89.5 107.0 -66.25 110.0 -18.5 112.75 43.5 117.5 63.0 118.5 78.25 118.0 Q81.0 115.5 78.75 112.75 L138.0 86.5 140.25 84.75 185.5 64.0 207.25 49.5 Q210.5 42.75 212.25 43.0 209.15 48.05 208.2 51.05 L201.7 55.9 196.8 59.85 M128.75 62.75 L164.75 41.75 125.25 15.75 Q133.0 50.5 128.75 62.75 M65.75 120.25 L50.25 125.0 46.75 120.5 29.0 120.75 -16.0 119.5 -76.0 116.25 -68.25 126.75 -36.5 147.5 -15.0 152.5 0.75 155.25 Q38.0 157.0 76.0 119.5 L65.75 120.25 M-76.25 49.25 L-66.25 8.75 -66.0 5.0 -65.5 8.25 -67.25 24.0 -70.0 40.25 -75.5 84.5 -64.5 86.5 -86.0 83.75 -85.0 83.0 -85.5 81.5 -84.5 81.0 -85.0 79.75 Q-83.5 79.5 -84.0 75.75 L-83.0 75.5 Q-84.5 73.25 -79.25 58.75 L-76.0 50.5 -76.25 49.25 M40.25 -13.0 Q42.75 63.25 20.25 99.5 L-25.75 92.0 -30.25 80.75 -33.5 69.75 -36.0 56.25 -38.25 39.25 -38.5 31.75 -39.5 27.75 -40.25 -7.5 Q-35.75 37.0 0.75 38.25 35.5 39.25 40.25 -13.0 M-108.6 100.35 L-112.0 99.75 -108.9 100.0 -108.6 100.35 M-89.0 184.25 Q-71.95 192.85 -53.25 196.2 -46.8 197.25 -40.3 196.4 -29.9 194.85 -19.7 192.25 -18.15 191.85 -16.75 190.75 -18.8 187.1 -22.65 185.8 -30.35 183.4 -38.0 181.75 L-68.75 167.0 -82.5 152.5 -89.25 181.0 -89.0 184.25 M-71.3 108.1 L-68.6 108.2 -69.75 108.5 -81.55 107.25 -78.2 107.3 -71.3 108.1" fill="#000000" fill-opacity="0.49803922" fill-rule="evenodd" stroke="none"/>
  </g>
</svg>
