<?xml version="1.0" encoding="UTF-8" standalone="no"?>
<svg xmlns:ffdec="https://www.free-decompiler.com/flash" xmlns:xlink="http://www.w3.org/1999/xlink" ffdec:objectType="shape" height="274.1px" width="347.1px" xmlns="http://www.w3.org/2000/svg">
  <g transform="matrix(1.0, 0.0, 0.0, 1.0, 128.0, 72.6)">
    <path d="M-14.75 -51.25 Q-17.1 -56.25 -19.05 -61.35 -19.7 -63.15 -19.8 -65.1 -19.9 -67.7 -17.65 -69.1 -15.65 -70.4 -13.35 -70.75 -6.75 -72.25 0.0 -72.35 4.35 -72.4 8.65 -71.35 11.65 -70.65 14.0 -72.0 25.0 -73.55 35.75 -71.0 39.05 -70.2 40.75 -67.25 40.5 -62.9 39.3 -58.8 38.1 -54.75 36.0 -51.0 28.25 -42.0 10.75 -49.5 -6.25 -42.25 -14.75 -51.25 M45.0 -1.25 Q49.25 9.85 53.05 21.15 55.1 27.35 56.75 33.75 L68.5 59.0 Q71.75 63.25 75.3 67.2 L82.7 75.7 Q84.85 78.35 86.5 81.5 L70.25 92.5 39.5 86.0 -11.25 77.0 -60.0 69.75 Q-52.5 55.85 -45.8 41.6 -35.65 20.0 -26.25 -2.0 L-25.8 -1.85 -25.75 -1.75 Q-23.65 3.75 -20.25 8.9 -14.9 17.1 -6.35 21.4 1.9 25.5 11.0 24.5 19.15 24.2 26.75 20.95 30.95 19.05 34.45 16.0 40.7 10.5 43.15 2.75 43.85 0.5 45.0 -1.25 M19.25 -50.0 L24.0 -49.5 Q34.75 -54.25 23.5 -59.25 20.0 -59.25 17.5 -56.5 L17.5 -52.75 19.25 -50.0 M74.8 105.85 L86.25 104.5 87.0 100.75 91.75 99.25 84.5 124.0 66.5 144.25 38.0 158.5 8.0 164.5 -4.75 163.0 Q-13.5 161.85 -21.8 159.3 -35.65 155.0 -47.75 147.3 -62.4 137.85 -75.75 126.5 L-84.6 108.2 Q-85.4 106.55 -84.3 105.0 L-82.25 102.5 -81.5 97.0 -66.0 100.5 -6.75 104.5 55.75 105.75 55.7 106.15 55.8 106.55 Q56.8 108.55 58.5 110.0 L72.2 106.3 74.8 105.85 M0.0 -49.75 Q10.75 -59.5 -3.5 -59.75 -12.25 -53.5 0.0 -49.75" fill="#ffffff" fill-rule="evenodd" stroke="none"/>
    <path d="M19.25 -50.0 L17.5 -52.75 17.5 -56.5 Q20.0 -59.25 23.5 -59.25 34.75 -54.25 24.0 -49.5 L19.25 -50.0 M0.0 -49.75 Q-12.25 -53.5 -3.5 -59.75 10.75 -59.5 0.0 -49.75" fill="#000000" fill-rule="evenodd" stroke="none"/>
    <path d="M-14.75 -51.25 Q-6.25 -42.25 10.75 -49.5 28.25 -42.0 36.0 -51.0 46.75 -46.0 49.25 -30.25 L49.0 -18.0 47.75 -9.75 45.0 -1.25 Q43.85 0.5 43.15 2.75 40.7 10.5 34.45 16.0 30.95 19.05 26.75 20.95 19.15 24.2 11.0 24.5 1.9 25.5 -6.35 21.4 -14.9 17.1 -20.25 8.9 -23.65 3.75 -25.75 -1.75 L-25.8 -1.85 -26.25 -2.0 Q-29.55 -13.35 -30.3 -25.25 -30.8 -33.3 -26.7 -40.0 -22.25 -47.25 -14.75 -51.25" fill="#e58508" fill-rule="evenodd" stroke="none"/>
    <path d="M-56.75 -3.5 L-67.0 68.25 -65.0 69.0 -77.75 67.5 -76.25 66.5 -73.75 55.0 -73.0 55.0 Q-72.0 43.75 -69.25 40.5 L-70.0 39.5 -69.0 39.5 -68.75 38.5 -69.5 37.75 -68.5 37.5 -66.75 29.0 Q-64.5 25.5 -63.5 20.0 L-56.5 -11.0 -56.75 -3.5 M-71.5 91.75 L-62.0 93.0 41.75 101.75 65.5 103.0 72.25 104.0 87.0 103.75 88.75 101.0 Q85.75 101.5 87.5 98.5 L148.0 72.75 192.0 52.75 214.25 38.5 Q217.25 32.25 218.75 32.5 219.65 34.15 218.35 36.85 215.05 39.2 209.15 43.65 201.8 49.25 198.65 52.55 L188.5 59.25 121.75 87.25 117.25 95.0 107.75 106.75 96.0 116.25 100.5 123.5 104.75 133.5 102.75 133.5 96.25 137.0 96.0 140.5 75.0 164.0 43.0 179.75 Q23.0 181.75 17.0 186.75 20.75 202.25 72.75 192.75 106.75 180.75 109.5 163.5 111.0 165.25 105.25 176.25 L99.0 183.75 Q76.75 201.25 47.5 201.5 L33.0 200.75 Q24.75 199.0 19.5 195.75 9.0 186.0 8.5 164.75 L-3.25 163.0 Q-7.75 186.75 -14.25 194.25 -23.5 202.75 -51.75 201.0 -85.5 196.5 -99.25 179.75 -118.5 156.0 -92.75 116.25 -118.0 98.5 -124.5 73.25 -133.25 42.0 -120.25 4.5 L-119.75 6.25 -121.5 16.75 -121.25 20.25 -122.5 30.0 -119.0 53.75 -111.0 71.25 Q-108.75 77.0 -107.0 76.75 L-106.25 82.25 -102.5 84.0 -105.25 86.0 -104.75 89.0 Q-97.5 84.5 -90.5 89.75 L-90.25 89.25 -93.0 87.0 -71.5 91.75 M-101.55 82.65 L-103.5 82.25 -101.95 82.3 -101.55 82.65 M-83.5 181.0 L-84.25 186.75 Q-52.5 182.25 -27.0 195.25 -9.75 192.25 -14.5 184.25 -73.0 163.75 -76.5 152.75 L-83.5 181.0 M-46.25 138.5 L-33.25 145.5 2.75 152.25 Q60.5 147.0 86.25 104.5 L74.0 105.75 69.75 107.5 59.0 110.0 58.0 108.5 56.75 108.25 55.75 105.75 -6.5 104.5 -57.75 101.5 -71.25 99.5 -72.75 114.25 Q-64.75 127.0 -62.25 127.25 L-46.25 138.5 M13.0 80.75 Q-28.5 79.75 -30.25 -19.75 -26.75 19.0 10.75 24.5 47.75 20.25 49.75 -27.0 55.5 67.0 13.0 80.75 M169.25 33.75 L171.25 32.25 126.75 2.25 Q135.5 37.75 131.25 54.0 L143.5 47.65 135.0 52.25 115.05 64.3 120.5 49.5 123.25 39.0 118.5 23.75 112.0 8.5 93.75 -27.5 165.5 23.5 171.25 26.75 175.75 28.25 180.25 31.25 173.0 32.25 169.25 33.75" fill="#000000" fill-opacity="0.49803922" fill-rule="evenodd" stroke="none"/>
  </g>
</svg>
