<?xml version="1.0" encoding="UTF-8" standalone="no"?>
<svg xmlns:ffdec="https://www.free-decompiler.com/flash" xmlns:xlink="http://www.w3.org/1999/xlink" ffdec:objectType="shape" height="289.45px" width="350.0px" xmlns="http://www.w3.org/2000/svg">
  <g transform="matrix(1.0, 0.0, 0.0, 1.0, 124.6, 87.15)">
    <path d="M54.5 -11.75 L61.5 10.0 64.75 25.5 74.0 49.75 79.5 59.0 Q90.25 70.0 89.5 72.75 L80.25 78.75 47.5 71.5 1.25 62.5 -50.0 54.0 -45.0 46.25 -43.75 42.75 -38.25 33.25 -32.75 20.75 -28.0 7.25 -15.25 -16.5 Q-11.6 -10.05 -7.45 -3.9 -5.35 -0.75 -2.55 1.8 5.15 9.0 15.5 10.1 26.6 10.65 37.15 7.05 42.25 5.3 46.2 1.5 47.65 0.05 48.7 -1.6 51.85 -6.5 54.5 -11.75 M-2.75 -65.25 Q-4.85 -69.15 -6.5 -73.2 -7.45 -75.55 -7.1 -78.15 -6.8 -80.3 -6.75 -82.5 -5.0 -83.9 -3.05 -84.75 1.1 -86.5 5.55 -87.1 13.1 -87.4 20.5 -85.8 23.5 -85.2 26.75 -86.25 L28.5 -86.5 45.95 -85.35 Q50.5 -84.6 52.75 -80.75 L52.55 -79.55 47.5 -64.25 Q45.0 -56.0 23.0 -63.75 6.75 -57.0 -2.75 -65.25 M30.0 -71.0 Q29.25 -67.0 31.5 -64.5 L35.5 -63.75 Q45.0 -66.25 38.5 -73.75 35.0 -74.5 33.25 -73.25 L30.0 -71.0 M9.0 -74.75 Q1.5 -66.0 11.75 -64.5 24.0 -74.0 9.0 -74.75 M-56.0 86.25 L-4.75 90.0 65.0 92.0 67.5 96.0 72.0 95.5 81.75 92.75 82.0 92.75 84.75 91.75 95.5 90.75 94.25 108.5 87.25 120.75 69.75 140.5 42.25 153.75 24.0 158.0 22.75 158.25 7.75 160.75 -21.0 156.75 -46.25 145.75 -57.75 138.25 -69.75 125.5 Q-93.75 100.75 -69.0 83.0 L-56.0 86.25" fill="#ffffff" fill-rule="evenodd" stroke="none"/>
    <path d="M47.5 -64.25 Q54.45 -59.3 56.5 -51.4 58.75 -42.9 58.05 -34.15 57.1 -22.9 54.5 -11.75 51.85 -6.5 48.7 -1.6 47.65 0.05 46.2 1.5 42.25 5.3 37.15 7.05 26.6 10.65 15.5 10.1 5.15 9.0 -2.55 1.8 -5.35 -0.75 -7.45 -3.9 -11.6 -10.05 -15.25 -16.5 -19.95 -30.4 -19.35 -45.15 -19.2 -48.9 -16.85 -51.9 -10.9 -59.65 -2.75 -65.25 6.75 -57.0 23.0 -63.75 45.0 -56.0 47.5 -64.25" fill="#e58508" fill-rule="evenodd" stroke="none"/>
    <path d="M30.0 -71.0 L33.25 -73.25 Q35.0 -74.5 38.5 -73.75 45.0 -66.25 35.5 -63.75 L31.5 -64.5 Q29.25 -67.0 30.0 -71.0 M9.0 -74.75 Q24.0 -74.0 11.75 -64.5 1.5 -66.0 9.0 -74.75" fill="#000000" fill-rule="evenodd" stroke="none"/>
    <path d="M118.0 -5.75 L103.5 -34.0 183.5 22.5 179.4 24.2 Q178.05 23.35 176.3 22.95 L130.5 -8.5 134.25 14.5 135.25 28.75 134.75 37.6 Q132.5 43.0 132.5 46.1 L133.0 47.45 118.65 55.9 Q124.85 46.8 128.75 22.5 L126.5 14.25 118.0 -5.75 M216.35 35.65 Q211.4 39.3 208.65 41.8 L195.75 49.75 152.25 67.25 127.75 76.25 Q125.0 92.25 96.0 116.0 L99.75 122.25 104.0 132.0 100.25 132.75 Q98.75 132.5 98.5 136.75 L77.75 160.25 47.0 175.25 Q16.5 178.75 14.5 184.0 L14.25 185.75 16.0 188.0 Q16.5 185.25 26.25 186.5 L46.0 191.0 53.25 194.25 55.5 196.5 56.25 196.5 56.0 195.5 67.25 194.25 Q98.75 188.25 109.25 164.25 L110.0 163.5 110.0 165.0 107.5 171.25 Q102.0 194.5 47.5 201.5 L33.25 200.75 Q21.75 198.5 18.0 194.75 9.5 186.5 8.0 160.75 L-4.25 159.0 Q-5.75 208.25 -41.25 201.5 L-53.25 200.75 -72.25 196.75 -81.25 193.25 -87.75 189.75 -95.25 184.25 Q-121.5 156.75 -90.75 113.0 -117.75 93.5 -122.75 66.75 -128.0 30.25 -118.25 8.5 -124.25 74.0 -99.5 86.25 L-98.75 85.0 -99.0 82.75 -97.0 71.15 -95.95 71.2 -95.75 73.75 Q-94.25 72.75 -87.0 78.0 -84.25 79.25 -79.5 74.5 L-78.0 75.75 -78.75 73.75 -81.25 71.0 -53.25 77.0 38.0 86.5 77.25 89.25 83.25 90.25 96.0 89.5 97.0 85.0 139.25 68.5 197.5 43.75 219.75 30.25 Q220.7 28.3 221.6 26.9 L223.95 25.0 225.4 23.8 224.75 28.75 Q222.85 29.55 222.05 31.5 L216.35 35.65 M85.75 91.5 L78.5 94.0 68.0 96.0 Q65.5 94.25 65.0 92.0 L-0.25 90.25 -56.0 86.25 -62.0 85.0 -66.5 117.75 -61.5 124.0 -29.75 142.0 -0.5 147.75 8.5 148.5 Q66.5 144.75 94.25 91.0 L85.75 91.5 M60.0 -40.5 Q63.25 57.25 24.25 57.75 -12.0 61.25 -19.25 -33.75 -9.25 13.0 26.5 9.5 53.75 10.5 60.0 -40.5 M-48.75 -14.0 L-46.5 -25.5 -46.75 -18.0 -51.0 11.5 -51.75 13.0 -57.0 53.0 -66.5 51.25 -59.25 22.5 -58.5 22.5 -58.5 20.5 -48.75 -14.0 M-73.25 169.25 L-32.25 175.0 -59.0 162.0 -68.5 152.5 -69.25 152.75 -73.25 169.25" fill="#000000" fill-opacity="0.49803922" fill-rule="evenodd" stroke="none"/>
  </g>
</svg>
