<?xml version="1.0" encoding="UTF-8" standalone="no"?>
<svg xmlns:ffdec="https://www.free-decompiler.com/flash" xmlns:xlink="http://www.w3.org/1999/xlink" ffdec:objectType="shape" height="303.7px" width="354.15px" xmlns="http://www.w3.org/2000/svg">
  <g transform="matrix(1.0, 0.0, 0.0, 1.0, 121.8, 101.5)">
    <path d="M10.0 -78.0 L6.3 -85.55 6.0 -86.5 Q5.65 -90.95 6.5 -95.5 L10.65 -98.25 Q16.3 -101.5 23.0 -101.5 L34.1 -99.6 37.75 -98.75 Q41.35 -99.95 45.25 -100.0 50.6 -99.65 55.65 -98.1 60.25 -96.75 63.9 -93.6 64.85 -92.75 64.7 -91.3 64.3 -86.5 62.95 -81.8 61.9 -78.1 59.25 -75.75 56.75 -71.5 48.25 -72.5 L36.0 -76.5 Q23.0 -70.25 10.0 -78.0 M64.25 -21.25 Q68.3 -2.4 72.95 16.75 76.9 33.1 82.8 48.85 85.3 55.6 89.6 61.4 91.2 63.6 93.75 64.5 L91.0 66.0 57.25 58.0 12.0 48.5 -39.0 39.0 Q-26.2 18.2 -17.75 -4.75 L-3.75 -30.0 Q7.5 -3.5 30.75 -3.25 L33.5 -3.25 Q56.0 -3.25 63.25 -19.25 L63.25 -19.5 64.25 -21.0 64.25 -21.25 M46.0 -86.25 L43.25 -84.25 Q42.5 -79.75 44.5 -77.5 L49.0 -76.75 Q58.5 -83.25 50.75 -87.0 L46.0 -86.25 M26.0 -78.0 Q37.25 -87.0 22.5 -88.25 14.25 -80.0 26.0 -78.0 M95.5 79.0 L98.0 78.75 Q102.5 109.25 85.75 122.5 L71.0 138.0 45.0 149.75 15.75 156.75 7.5 157.0 -17.75 153.5 -43.0 142.25 -47.25 139.25 Q-56.2 132.75 -63.5 124.5 L-74.0 113.0 -78.0 95.0 Q-78.75 93.75 -75.0 89.75 L-73.25 83.25 -64.75 76.5 -59.25 68.75 -45.75 72.25 7.0 76.75 55.25 79.0 75.0 79.0 Q76.25 87.0 92.5 80.0 L95.5 79.0" fill="#ffffff" fill-rule="evenodd" stroke="none"/>
    <path d="M26.0 -78.0 Q14.25 -80.0 22.5 -88.25 37.25 -87.0 26.0 -78.0 M46.0 -86.25 L50.75 -87.0 Q58.5 -83.25 49.0 -76.75 L44.5 -77.5 Q42.5 -79.75 43.25 -84.25 L46.0 -86.25" fill="#000000" fill-rule="evenodd" stroke="none"/>
    <path d="M10.0 -78.0 Q23.0 -70.25 36.0 -76.5 L48.25 -72.5 Q56.75 -71.5 59.25 -75.75 68.0 -72.0 70.75 -52.75 L69.0 -34.0 68.0 -29.5 64.25 -21.25 64.25 -21.0 63.25 -19.5 63.25 -19.25 Q56.0 -3.25 33.5 -3.25 L30.75 -3.25 Q7.5 -3.5 -3.75 -30.0 -6.05 -37.0 -6.7 -44.3 -7.25 -50.4 -6.8 -56.45 -6.6 -58.7 -5.75 -60.85 -2.35 -69.75 5.0 -75.5 7.3 -77.25 10.0 -78.0" fill="#e58508" fill-rule="evenodd" stroke="none"/>
    <path d="M-76.5 63.25 L-67.25 62.0 Q-65.25 60.5 -69.25 55.5 L-35.75 62.75 32.5 71.5 94.25 77.25 106.0 77.0 106.0 78.0 97.0 78.75 89.25 81.25 79.0 83.25 78.0 83.25 Q77.5 80.25 75.0 79.0 L58.25 79.0 16.5 77.25 -45.5 72.25 -51.5 71.0 -58.5 115.5 Q-59.5 119.25 -57.5 120.75 L-51.25 124.5 Q-50.0 120.25 -26.0 115.5 L9.25 119.75 Q12.25 119.5 15.0 121.75 L37.25 137.0 38.75 138.25 39.25 140.0 Q46.25 139.5 54.0 134.75 L80.0 116.5 91.75 99.25 Q99.0 86.75 98.25 83.0 99.75 83.5 99.25 86.75 L100.25 87.25 104.0 84.0 110.75 76.0 Q110.5 72.75 106.5 75.75 L107.0 73.0 164.0 51.75 204.75 35.25 228.25 21.75 Q231.25 18.05 231.7 16.8 L232.35 16.4 Q231.9 19.65 231.0 22.5 227.05 24.25 220.15 29.55 215.45 33.2 212.95 35.75 L203.0 41.75 156.0 59.25 133.0 67.0 Q129.0 90.75 96.0 116.25 L100.5 123.5 103.5 131.25 99.25 135.25 81.5 156.0 51.5 170.75 43.75 173.5 Q84.25 179.75 86.75 187.25 L94.5 183.0 103.25 175.5 Q114.5 150.5 105.25 176.25 L99.0 183.75 92.0 189.25 83.5 193.75 75.0 197.0 65.5 199.5 47.5 201.5 33.25 200.75 Q21.75 198.5 18.0 194.75 9.25 186.5 7.5 157.0 L-3.0 155.25 Q-5.0 208.0 -41.25 201.5 L-53.5 200.75 -72.25 196.75 -81.25 193.25 -87.75 189.75 -95.25 184.25 -101.75 176.75 -105.75 167.75 -106.75 163.75 Q-104.25 171.5 -98.0 176.0 L-98.25 166.5 -95.5 145.0 -94.75 132.25 -93.5 126.0 -93.75 125.0 -97.0 123.75 -97.25 123.0 -88.75 109.5 Q-134.75 76.75 -116.75 13.5 -124.0 70.0 -91.25 92.25 L-90.25 92.0 -90.0 85.5 -86.45 59.4 -86.4 59.4 -85.0 59.3 -85.0 59.5 -76.5 63.25 M-45.5 -1.5 L-42.25 -11.5 -38.0 -29.25 -37.25 -30.0 -35.75 -38.5 -36.25 -28.5 -46.5 37.75 -55.25 36.25 -49.5 13.75 -48.75 13.0 -46.0 0.25 -45.25 -0.5 -45.5 -1.5 M144.75 -16.25 L149.25 -14.0 190.75 15.0 186.1 16.95 Q184.5 15.85 182.4 15.45 L134.75 -17.75 134.25 -17.5 136.75 -6.25 138.5 12.0 138.5 29.25 137.5 38.0 136.35 40.9 124.4 47.5 Q131.95 38.2 134.25 6.25 L125.75 -14.75 113.25 -39.5 144.75 -16.25 M41.0 -3.75 Q70.0 -10.25 70.75 -56.0 77.5 37.0 38.25 38.0 -2.75 35.75 -7.75 -47.75 2.75 1.0 41.0 -3.75" fill="#000000" fill-opacity="0.49803922" fill-rule="evenodd" stroke="none"/>
  </g>
</svg>
