<?xml version="1.0" encoding="UTF-8" standalone="no"?>
<svg xmlns:ffdec="https://www.free-decompiler.com/flash" xmlns:xlink="http://www.w3.org/1999/xlink" ffdec:objectType="shape" height="272.3px" width="373.25px" xmlns="http://www.w3.org/2000/svg">
  <g transform="matrix(1.0, 0.0, 0.0, 1.0, 149.25, 70.55)">
    <path d="M-29.5 -45.75 Q-31.9 -47.3 -33.3 -50.25 L-34.1 -52.85 Q-35.0 -57.0 -34.9 -61.25 -34.9 -62.25 -34.0 -62.8 -29.25 -65.5 -24.0 -66.6 -16.75 -68.25 -9.25 -68.35 L-5.25 -68.0 -3.5 -68.5 Q4.65 -71.2 13.45 -70.35 17.35 -70.25 21.1 -69.05 22.75 -68.4 24.25 -67.25 L21.25 -50.75 Q11.75 -40.0 -3.75 -46.25 -16.0 -37.75 -29.5 -45.75 M35.25 -2.25 L37.0 2.0 44.75 16.75 49.0 28.75 63.5 53.5 Q84.25 67.75 90.75 86.5 L91.75 103.5 86.5 115.25 Q78.8 126.5 69.3 136.05 61.85 143.6 52.65 149.35 L43.0 155.25 14.5 164.25 8.0 164.0 -4.75 163.75 -13.95 163.05 -26.25 161.5 -55.5 150.5 -72.0 135.75 -58.0 138.75 -15.5 145.0 16.0 148.0 32.25 148.25 32.85 147.4 33.4 146.55 33.85 145.8 Q34.75 144.3 34.35 142.65 33.9 140.85 32.1 140.4 L30.55 139.9 28.0 138.5 24.75 136.5 -20.5 115.5 -71.25 94.25 -65.8 84.1 Q-60.9 74.35 -56.85 64.25 -52.15 52.75 -48.2 40.95 L-36.0 3.75 Q-29.75 16.05 -18.0 23.8 -13.6 26.65 -8.7 27.45 -3.75 28.45 1.25 27.5 4.25 27.1 7.5 27.45 10.2 27.25 12.75 26.2 20.05 23.05 25.0 16.6 L28.5 12.1 Q30.65 9.5 32.0 6.5 33.95 2.3 35.25 -2.25 M10.75 -58.25 L8.25 -56.0 Q7.5 -51.75 10.75 -49.75 L14.75 -49.5 Q24.25 -54.5 16.75 -59.5 13.75 -60.25 10.75 -58.25 M-15.1 -54.85 Q-18.1 -50.0 -12.0 -48.15 L-8.5 -47.5 Q2.0 -57.5 -13.5 -57.0 L-15.1 -54.85" fill="#ffffff" fill-rule="evenodd" stroke="none"/>
    <path d="M10.75 -58.25 Q13.75 -60.25 16.75 -59.5 24.25 -54.5 14.75 -49.5 L10.75 -49.75 Q7.5 -51.75 8.25 -56.0 L10.75 -58.25 M-15.1 -54.85 L-13.5 -57.0 Q2.0 -57.5 -8.5 -47.5 L-12.0 -48.15 Q-18.1 -50.0 -15.1 -54.85" fill="#000000" fill-rule="evenodd" stroke="none"/>
    <path d="M21.25 -50.75 Q36.75 -41.5 36.25 -31.5 L37.25 -24.5 36.25 -9.25 35.25 -2.25 Q33.95 2.3 32.0 6.5 30.65 9.5 28.5 12.1 L25.0 16.6 Q20.05 23.05 12.75 26.2 10.2 27.25 7.5 27.45 4.25 27.1 1.25 27.5 -3.75 28.45 -8.7 27.45 -13.6 26.65 -18.0 23.8 -29.75 16.05 -36.0 3.75 L-39.0 -3.5 -42.5 -17.25 -43.0 -24.0 Q-39.25 -42.25 -29.5 -45.75 -16.0 -37.75 -3.75 -46.25 11.75 -40.0 21.25 -50.75 M86.5 115.25 L87.25 115.0 89.5 113.5 92.5 110.75 Q110.5 139.5 110.5 154.0 111.0 193.0 55.25 201.0 30.5 204.25 16.75 193.0 11.5 190.25 8.0 164.0 L14.5 164.25 43.0 155.25 52.65 149.35 Q61.85 143.6 69.3 136.05 78.8 126.5 86.5 115.25 M-4.75 163.75 Q-7.05 174.7 -9.7 185.6 -10.15 187.4 -11.0 189.15 -11.75 190.75 -13.05 192.3 L-14.0 193.25 Q-17.0 195.35 -20.35 196.35 -30.9 199.5 -41.85 200.2 -48.75 200.85 -55.65 199.85 L-62.3 199.05 Q-68.3 197.8 -74.1 195.8 -79.35 194.1 -84.15 191.55 -89.7 188.75 -94.3 184.95 -103.6 177.1 -106.4 165.05 -107.85 158.95 -106.45 152.95 -103.65 141.1 -100.0 129.5 L-72.0 135.75 -55.5 150.5 -26.25 161.5 -13.95 163.05 -4.75 163.75" fill="#e58508" fill-rule="evenodd" stroke="none"/>
    <path d="M91.75 -13.0 L105.25 -0.25 107.0 0.5 121.75 13.25 147.3 37.1 148.25 37.85 150.25 38.75 150.25 39.5 150.0 39.55 150.05 39.6 154.25 44.1 Q157.3 45.85 164.45 47.3 L167.15 48.05 Q192.35 27.8 224.0 -34.75 201.9 21.1 171.0 51.75 168.35 52.55 165.5 52.95 L159.0 53.6 Q154.8 53.6 148.05 46.95 L147.45 46.35 145.25 44.05 124.5 25.75 Q129.0 85.25 92.5 110.5 L99.0 121.0 101.75 127.0 100.5 127.0 95.5 130.0 94.5 135.5 93.5 136.0 92.0 139.0 91.0 139.5 78.0 158.0 48.0 176.5 Q20.5 182.0 17.0 187.5 23.25 201.0 67.25 194.25 99.75 187.25 110.0 164.25 L105.25 176.25 Q91.5 198.0 47.5 201.5 L33.25 200.75 Q21.75 198.5 18.0 194.75 9.75 186.75 8.25 164.25 L1.25 163.75 -5.0 164.0 -6.5 175.5 -8.25 182.75 -11.0 189.75 -14.25 194.25 Q-23.75 202.75 -51.25 201.0 -75.0 198.0 -87.75 189.75 -105.25 177.75 -106.75 163.5 -96.0 187.25 -65.25 193.75 -22.25 201.25 -13.5 187.75 L-18.0 185.0 -25.0 183.5 -63.25 169.0 -86.25 147.75 -94.5 144.75 -102.0 140.0 -103.5 140.0 -104.5 142.0 -104.75 140.5 -99.75 129.25 Q-146.5 114.75 -148.0 106.0 L-149.25 104.75 Q-146.25 101.25 -147.25 90.5 L-146.75 92.5 -146.0 92.75 -146.0 100.5 Q-138.75 100.5 -129.75 108.75 L-109.5 117.5 -61.75 130.25 -9.0 142.0 15.75 146.0 33.0 147.25 33.75 145.25 Q46.0 141.75 50.25 138.0 L74.75 119.0 Q95.25 90.75 89.5 84.25 107.0 72.0 116.5 43.75 L114.75 36.25 107.0 17.75 97.5 -1.25 92.0 -10.5 91.0 -12.75 91.75 -13.0 M16.75 148.25 L-1.25 146.5 -43.25 141.25 -28.5 149.25 9.0 152.75 24.5 148.25 16.75 148.25 M-79.75 -0.5 L-79.25 -3.25 -78.75 -1.0 -91.5 56.0 -96.75 84.25 -117.0 77.75 -113.5 77.5 -103.5 53.0 Q-101.25 50.25 -102.0 49.5 L-101.25 49.5 -101.25 48.25 -95.0 35.5 -91.5 26.25 -88.0 20.0 -88.25 19.25 -86.5 16.5 -86.75 15.75 -79.75 -0.5 M1.0 27.25 Q38.25 21.25 37.5 -20.0 45.5 81.5 -5.75 85.75 -37.75 78.0 -43.0 -21.25 -33.5 28.25 1.0 27.25" fill="#000000" fill-opacity="0.49803922" fill-rule="evenodd" stroke="none"/>
  </g>
</svg>
