<?xml version="1.0" encoding="UTF-8" standalone="no"?>
<svg xmlns:ffdec="https://www.free-decompiler.com/flash" xmlns:xlink="http://www.w3.org/1999/xlink" ffdec:objectType="shape" height="311.95px" width="339.55px" xmlns="http://www.w3.org/2000/svg">
  <g transform="matrix(1.0, 0.0, 0.0, 1.0, 174.1, 148.0)">
    <path d="M103.7 -52.35 L132.75 -31.6 Q148.35 -19.65 155.95 -9.5 165.45 3.15 165.45 16.2 165.45 20.55 161.7 25.15 157.5 30.2 151.8 30.45 L151.7 30.45 Q138.35 29.55 127.5 25.35 131.2 43.4 128.35 61.8 125.7 79.0 115.9 93.5 107.45 106.0 95.5 115.25 90.3 120.05 84.2 123.15 L82.75 123.75 Q5.2 202.4 -78.25 127.25 L-88.25 122.25 -96.5 116.25 Q-112.05 105.5 -120.9 88.6 -129.15 72.85 -130.2 55.15 -130.9 44.15 -129.85 33.3 L-141.9 34.05 Q-165.6 34.05 -171.9 26.4 -174.0 23.9 -174.1 20.55 L-173.85 16.5 Q-173.85 8.55 -171.45 2.9 -169.3 -2.2 -164.35 -7.35 L-153.45 -18.75 Q-145.65 -27.05 -137.3 -34.2 -128.95 -41.4 -109.8 -52.55 L-83.6 -69.7 Q-68.7 -95.1 -56.15 -108.15 -26.55 -138.9 -6.25 -146.45 L-1.5 -148.0 Q27.55 -139.15 56.2 -109.35 69.65 -95.4 86.0 -65.8 93.4 -59.7 103.7 -52.35 M-1.35 -70.4 L-1.35 -70.35 -1.0 -70.25 -1.35 -70.4" fill="#2e47aa" fill-rule="evenodd" stroke="none"/>
    <path d="M-1.35 -70.4 L-1.0 -70.25 -1.35 -70.35 -1.35 -70.4" fill="#243773" fill-rule="evenodd" stroke="none"/>
  </g>
</svg>
