<?xml version="1.0" encoding="UTF-8" standalone="no"?>
<svg xmlns:ffdec="https://www.free-decompiler.com/flash" xmlns:xlink="http://www.w3.org/1999/xlink" ffdec:objectType="shape" height="273.9px" width="339.9px" xmlns="http://www.w3.org/2000/svg">
  <g transform="matrix(1.0, 0.0, 0.0, 1.0, 173.55, 70.45)">
    <path d="M-25.75 -48.5 Q-27.5 -49.0 -30.5 -57.25 L-30.5 -64.5 -29.25 -66.5 Q-17.6 -72.4 -4.55 -69.5 L-3.25 -69.25 -3.0 -69.0 Q10.65 -71.05 24.45 -68.5 28.05 -67.7 30.0 -64.5 29.5 -56.0 28.5 -55.0 L25.25 -49.25 Q18.5 -39.5 -0.5 -47.0 -17.5 -39.25 -25.75 -48.5 M12.0 -47.0 Q22.5 -52.5 14.0 -57.0 -1.5 -55.0 12.0 -47.0 M-11.75 -47.0 Q-0.5 -56.25 -15.5 -56.75 -22.5 -48.75 -11.75 -47.0" fill="#ffffff" fill-rule="evenodd" stroke="none"/>
    <path d="M25.25 -49.25 Q42.9 -39.25 39.75 -18.65 38.4 -9.85 36.0 -1.25 31.25 17.25 14.05 23.85 -4.45 31.1 -21.25 20.1 -31.5 13.4 -35.5 1.75 L-38.5 -8.25 Q-48.0 -33.0 -25.75 -48.5 -17.5 -39.25 -0.5 -47.0 18.5 -39.5 25.25 -49.25 M-88.25 122.25 L-78.25 127.25 Q-64.15 142.4 -45.55 151.55 -28.2 160.1 -9.25 163.25 -8.5 175.6 -14.1 186.75 -16.05 190.55 -19.35 193.3 -34.3 205.9 -55.3 202.85 -75.65 200.25 -93.05 189.6 -111.45 178.45 -110.8 156.7 -110.1 134.55 -96.5 116.25 L-88.25 122.25 M28.95 159.35 Q43.9 154.55 57.1 146.35 71.75 137.15 82.75 123.75 L84.2 123.15 Q90.3 120.05 95.5 115.25 111.0 141.75 110.5 154.0 111.0 193.0 55.25 201.0 30.5 204.25 16.75 193.0 11.5 190.0 8.25 164.75 18.8 162.6 28.95 159.35" fill="#e58508" fill-rule="evenodd" stroke="none"/>
    <path d="M-11.75 -47.0 Q-22.5 -48.75 -15.5 -56.75 -0.5 -56.25 -11.75 -47.0 M12.0 -47.0 Q-1.5 -55.0 14.0 -57.0 22.5 -52.5 12.0 -47.0" fill="#000000" fill-rule="evenodd" stroke="none"/>
    <path d="M-89.35 -23.1 Q-89.0 -22.95 -89.0 -21.95 -89.0 -19.55 -90.45 -14.7 -92.2 -8.7 -94.35 -8.7 L-107.75 -9.8 Q-105.75 -14.7 -90.6 -23.4 L-89.35 -23.1 M-130.85 31.6 L-111.75 29.4 Q-109.35 28.2 -103.3 26.05 L-81.05 18.25 Q-48.75 6.65 -48.75 1.65 -48.75 1.25 -50.7 -1.1 L-51.2 -1.2 -51.65 -1.65 Q-51.45 -2.3 -50.25 -2.3 -42.05 -2.3 -39.5 2.55 -40.15 -8.8 -40.25 -21.75 -36.25 25.75 1.75 26.75 35.5 24.5 40.0 -22.0 40.0 81.75 1.75 84.5 -33.05 87.65 -39.0 9.9 L-40.25 12.0 Q-42.5 15.45 -45.0 15.45 L-45.85 15.4 -49.95 17.3 Q-59.3 21.55 -72.0 25.4 -97.6 33.25 -122.3 35.5 L-122.75 36.25 -121.0 47.25 Q-108.15 85.35 -83.25 97.75 -86.0 98.75 -85.0 100.75 -71.55 130.55 -37.25 145.5 2.1 158.15 38.25 145.0 70.5 131.25 86.75 101.5 90.0 97.5 87.25 91.5 103.25 80.25 109.0 70.0 L118.25 52.0 122.5 35.0 119.85 30.5 120.1 30.5 100.55 25.95 68.25 17.45 Q62.7 16.0 52.15 9.7 40.4 2.6 40.4 -0.95 40.4 -3.55 43.2 -4.55 L43.8 -4.75 Q44.4 -6.7 49.95 -8.3 55.3 -9.8 60.15 -9.95 60.6 -10.2 60.6 -8.7 60.6 -8.0 59.05 -6.7 57.45 -5.45 57.45 -4.65 57.45 -0.75 67.95 3.1 75.65 5.9 92.15 9.65 L119.15 15.7 Q125.4 17.25 129.85 18.65 129.85 18.2 130.0 18.2 L130.95 18.3 Q132.9 20.25 144.35 20.25 154.9 20.25 158.1 14.7 159.75 11.9 159.3 8.55 159.3 7.5 156.8 -2.6 157.2 -2.6 158.7 -3.15 162.35 -3.15 166.35 15.9 166.35 22.6 163.45 26.25 157.8 33.3 141.5 33.3 L131.15 32.15 129.45 32.05 Q137.55 75.6 95.5 115.0 L99.75 122.25 104.0 131.75 102.0 132.25 Q96.75 136.75 92.5 138.0 L92.25 142.0 Q62.05 180.35 21.75 184.5 22.5 187.0 36.5 189.25 L36.75 196.25 Q56.5 194.25 66.25 194.5 98.5 188.5 109.5 163.5 111.0 165.25 105.25 176.25 L99.0 183.75 Q83.75 201.75 33.25 200.75 8.5 198.5 8.5 164.75 L5.5 165.0 -9.0 163.25 Q-11.0 207.5 -43.0 202.5 -93.5 201.5 -108.25 173.25 L-110.75 167.25 -111.0 164.0 Q-106.5 187.5 -37.5 197.25 L-37.25 189.75 Q-25.5 188.5 -20.75 184.25 -21.75 182.25 -33.5 180.75 -69.5 171.95 -89.75 141.0 -102.75 131.75 -105.0 132.75 L-101.75 124.5 -96.25 115.75 Q-119.5 98.75 -126.0 77.25 L-128.25 69.0 -130.5 44.25 -129.9 36.05 -141.9 36.35 Q-156.55 36.35 -166.05 31.05 L-167.5 30.2 -167.7 30.1 Q-173.55 26.5 -173.55 23.3 L-173.4 21.65 Q-173.0 21.65 -171.9 20.9 L-171.4 21.05 -171.5 22.2 Q-171.5 25.0 -161.55 28.45 L-158.7 29.4 Q-150.05 32.0 -142.2 32.0 L-130.85 31.6 M106.65 -14.4 Q106.65 -12.45 102.45 -12.45 97.0 -12.45 93.9 -16.05 91.65 -18.75 91.65 -21.2 91.65 -24.6 90.0 -29.7 91.25 -30.45 91.8 -30.45 L106.65 -14.4 M-86.6 23.85 L-90.0 25.2 -86.4 24.35 -86.6 23.85" fill="#000000" fill-opacity="0.49803922" fill-rule="evenodd" stroke="none"/>
    <path d="M-167.5 30.2 L-167.75 30.15 -167.7 30.1 -167.5 30.2 M-158.7 29.4 L-146.25 30.6 -139.85 30.1 -133.7 29.3 Q-132.4 29.15 -131.5 30.0 -130.8 30.65 -130.8 31.05 L-130.85 31.6 -142.2 32.0 Q-150.05 32.0 -158.7 29.4" fill="#2e47aa" fill-rule="evenodd" stroke="none"/>
  </g>
</svg>
