<?xml version="1.0" encoding="UTF-8" standalone="no"?>
<svg xmlns:ffdec="https://www.free-decompiler.com/flash" xmlns:xlink="http://www.w3.org/1999/xlink" ffdec:objectType="shape" height="311.95px" width="290.85px" xmlns="http://www.w3.org/2000/svg">
  <g transform="matrix(1.0, 0.0, 0.0, 1.0, 145.6, 148.0)">
    <path d="M99.45 -50.8 Q108.1 -38.4 114.5 -26.25 L118.25 -20.0 119.15 -17.8 119.45 -18.1 123.75 -9.2 Q129.85 3.35 134.25 21.15 L136.75 27.9 Q145.15 52.35 145.15 66.25 L145.25 73.45 Q145.0 76.05 143.55 77.95 142.6 82.95 138.1 84.05 134.85 86.65 128.9 86.65 L126.75 86.45 124.4 85.8 120.05 86.7 115.9 93.5 Q108.65 104.2 98.9 112.55 L95.5 115.25 Q90.3 120.05 84.2 123.15 L82.75 123.75 Q5.2 202.4 -78.25 127.25 L-88.25 122.25 -96.5 116.25 Q-107.05 108.95 -114.5 98.85 -124.05 100.6 -130.65 100.6 -139.85 100.6 -143.3 90.15 -145.6 83.1 -145.6 68.7 -145.6 52.2 -138.85 30.0 -132.8 10.2 -122.7 -10.15 L-121.9 -9.75 -121.4 -10.8 -120.15 -13.2 Q-115.5 -21.25 -102.2 -42.05 L-95.65 -52.25 -94.05 -54.65 Q-88.65 -63.2 -85.4 -68.5 L-83.6 -69.7 -80.0 -75.75 Q-67.15 -96.7 -56.15 -108.15 -26.55 -138.9 -6.25 -146.45 L-1.5 -148.0 Q27.55 -139.15 56.2 -109.35 66.0 -99.2 77.3 -80.75 L83.9 -69.5 Q91.35 -62.4 99.45 -50.8 M-1.35 -70.4 L-1.35 -70.35 -1.0 -70.25 -1.35 -70.4 M-130.55 33.35 L-129.85 33.4 -129.85 33.3 -130.55 33.35" fill="#2e47aa" fill-rule="evenodd" stroke="none"/>
    <path d="M-1.35 -70.4 L-1.0 -70.25 -1.35 -70.35 -1.35 -70.4" fill="#243773" fill-rule="evenodd" stroke="none"/>
  </g>
</svg>
