<?xml version="1.0" encoding="UTF-8" standalone="no"?>
<svg xmlns:ffdec="https://www.free-decompiler.com/flash" xmlns:xlink="http://www.w3.org/1999/xlink" ffdec:objectType="shape" height="166.25px" width="176.95px" xmlns="http://www.w3.org/2000/svg">
  <g transform="matrix(1.0, 0.0, 0.0, 1.0, 87.8, 1.25)">
    <path d="M83.3 83.6 L83.6 84.25 85.15 87.7 86.2 90.5 86.45 91.25 88.15 97.05 88.25 97.5 88.4 98.05 Q89.8 104.7 88.6 110.85 L87.8 114.0 87.35 115.4 86.85 116.6 Q85.3 120.25 82.75 123.75 73.05 135.55 60.55 144.1 L57.1 146.35 Q52.3 149.35 47.3 151.85 L41.5 154.6 Q35.4 157.3 28.95 159.35 L15.6 163.1 12.5 163.85 12.4 163.85 8.25 164.75 4.75 165.0 -9.25 163.25 -13.8 162.4 -16.3 161.9 -20.85 160.8 -25.95 159.35 -34.05 156.55 -37.6 155.15 -38.0 155.0 -45.55 151.55 -49.9 149.3 -52.4 147.9 -53.15 147.45 -57.5 144.75 Q-62.75 141.3 -67.55 137.35 L-69.5 135.7 -74.85 130.75 -78.25 127.25 -78.8 126.5 -80.4 124.25 -81.4 122.75 -82.85 120.5 -83.6 119.2 -85.25 116.05 -85.65 115.15 Q-89.65 106.1 -86.25 100.85 L-85.25 99.55 -85.0 99.25 -83.8 98.0 -83.5 97.65 Q-79.75 93.5 -76.05 88.55 L-65.9 85.1 -59.7 82.85 -57.35 81.95 -43.55 76.5 -38.75 74.5 -37.3 73.9 -34.15 72.55 -33.35 72.2 -27.8 69.7 Q-26.65 69.2 -25.5 68.2 L-25.2 67.85 -21.5 66.0 -15.05 62.6 -14.5 62.35 -14.4 62.25 -12.75 61.4 Q-5.5 57.45 1.05 53.6 L1.05 53.55 1.1 53.55 5.3 55.45 7.3 56.3 Q13.45 58.85 19.8 60.8 L27.85 62.9 27.95 62.95 30.55 63.8 31.3 64.05 37.55 66.0 40.5 66.9 44.6 68.1 48.95 69.3 49.65 69.5 51.9 70.1 56.05 71.2 57.4 71.5 71.85 75.05 72.95 75.3 79.0 76.65 79.3 76.75 82.75 82.5 83.3 83.6 M45.75 22.95 L47.95 28.5 49.35 31.95 52.2 38.35 42.2 36.6 36.2 35.45 31.3 34.4 29.9 34.1 27.2 33.45 25.6 33.05 25.1 32.85 27.35 33.25 Q30.45 29.05 30.45 25.55 L28.05 22.1 28.05 21.95 27.85 21.95 27.45 22.0 Q22.35 22.35 11.5 25.1 L11.4 25.15 3.5 27.2 2.5 27.5 -0.05 28.2 -4.25 27.45 -8.45 26.75 -22.55 24.45 -28.7 23.75 -29.95 23.8 -30.9 23.7 -30.95 23.7 -32.0 23.55 -36.45 23.2 -37.5 23.15 -37.75 23.15 -37.7 23.5 -38.85 24.2 -40.6 25.4 -41.1 25.8 Q-41.85 27.05 -41.85 27.65 L-41.85 27.8 -41.7 28.4 -38.2 31.05 -36.45 32.3 -36.4 32.45 -33.75 34.05 -33.0 34.5 -28.2 37.4 Q-27.8 37.6 -27.75 38.0 L-28.1 37.8 -28.6 37.5 -38.25 39.75 -40.25 40.2 -46.7 41.7 -50.8 42.65 -48.85 38.05 -46.4 32.0 -46.25 31.65 -45.5 29.7 -44.8 27.9 -43.85 25.5 -43.4 24.35 -38.85 11.75 -35.5 1.75 -34.05 5.4 Q-32.6 8.5 -30.65 11.2 L-29.45 12.8 -27.05 15.45 -25.9 16.55 -21.8 19.75 -21.6 19.85 Q-21.45 20.0 -21.25 20.1 L-19.3 21.35 Q-12.9 25.05 -6.3 26.25 L-4.25 26.55 0.7 26.75 3.4 26.55 4.35 26.45 Q7.65 26.0 11.0 24.95 L14.05 23.85 Q17.4 22.55 20.3 20.85 L21.35 20.2 21.45 20.15 Q24.75 17.95 27.4 15.1 32.55 9.6 35.2 1.65 L36.0 -1.25 36.7 0.5 39.2 6.5 44.9 20.75 45.75 22.95" fill="#ffffff" fill-rule="evenodd" stroke="none"/>
  </g>
</svg>
