<?xml version="1.0" encoding="UTF-8" standalone="no"?>
<svg xmlns:ffdec="https://www.free-decompiler.com/flash" xmlns:xlink="http://www.w3.org/1999/xlink" ffdec:objectType="shape" height="273.9px" width="287.7px" xmlns="http://www.w3.org/2000/svg">
  <g transform="matrix(1.0, 0.0, 0.0, 1.0, 145.4, 70.45)">
    <path d="M-25.75 -48.5 Q-27.5 -49.0 -30.5 -57.25 L-30.5 -64.5 -29.25 -66.5 Q-17.6 -72.4 -4.55 -69.5 L-3.25 -69.25 -3.0 -69.0 Q10.65 -71.05 24.45 -68.5 28.05 -67.7 30.0 -64.5 29.5 -56.0 28.5 -55.0 L25.25 -49.25 23.3 -47.0 Q16.7 -41.1 2.5 -45.9 L-0.5 -47.0 Q-17.5 -39.25 -25.75 -48.5 M12.0 -47.0 Q22.5 -52.5 14.0 -57.0 -1.5 -55.0 12.0 -47.0 M-11.75 -47.0 Q-0.5 -56.25 -15.5 -56.75 -22.5 -48.75 -11.75 -47.0" fill="#ffffff" fill-rule="evenodd" stroke="none"/>
    <path d="M25.25 -49.25 L28.8 -47.0 Q42.55 -37.05 39.75 -18.65 38.4 -9.85 36.0 -1.25 L34.0 4.85 32.85 7.35 Q26.9 18.9 14.05 23.85 8.2 26.15 2.5 26.6 -9.75 27.6 -21.25 20.1 -28.1 15.6 -32.15 8.9 L-32.6 8.15 Q-34.35 5.15 -35.5 1.75 L-38.5 -8.25 -40.35 -14.2 Q-45.25 -34.9 -25.75 -48.5 -17.5 -39.25 -0.5 -47.0 L2.5 -45.9 Q16.7 -41.1 23.3 -47.0 L25.25 -49.25 M-88.25 122.25 L-78.25 127.25 Q-64.15 142.4 -45.55 151.55 -28.2 160.1 -9.25 163.25 -8.5 175.6 -14.1 186.75 -16.05 190.55 -19.35 193.3 -34.3 205.9 -55.3 202.85 -75.65 200.25 -93.05 189.6 -111.45 178.45 -110.8 156.7 -110.1 134.55 -96.5 116.25 L-88.25 122.25 M28.95 159.35 Q43.9 154.55 57.1 146.35 71.75 137.15 82.75 123.75 L84.2 123.15 Q90.3 120.05 95.5 115.25 111.0 141.75 110.5 154.0 111.0 193.0 55.25 201.0 30.5 204.25 16.75 193.0 11.5 190.0 8.25 164.75 18.8 162.6 28.95 159.35" fill="#e58508" fill-rule="evenodd" stroke="none"/>
    <path d="M-11.75 -47.0 Q-22.5 -48.75 -15.5 -56.75 -0.5 -56.25 -11.75 -47.0 M12.0 -47.0 Q-1.5 -55.0 14.0 -57.0 22.5 -52.5 12.0 -47.0" fill="#000000" fill-rule="evenodd" stroke="none"/>
    <path d="M40.6 -2.15 L40.9 0.65 Q40.4 -0.25 40.4 -0.95 L40.6 -2.15 M92.95 45.65 L79.9 42.6 79.5 42.55 76.35 41.85 Q76.85 38.35 76.95 35.1 L76.95 34.25 76.95 34.1 Q76.95 29.8 76.35 25.0 75.55 18.75 73.8 11.6 L79.5 21.15 82.65 26.55 90.2 40.3 92.95 45.65 M99.95 81.25 L79.5 76.8 Q62.1 72.85 49.65 69.5 L48.95 69.3 40.5 66.9 27.85 62.9 24.9 68.55 Q22.3 72.85 19.3 76.0 12.15 83.5 2.5 84.45 L1.75 84.5 Q-12.25 85.75 -21.55 74.0 L-22.55 72.7 -25.0 68.9 -25.2 68.55 -27.8 69.7 -38.75 74.5 Q-65.5 85.8 -90.9 93.1 L-88.8 94.55 Q-87.4 95.45 -85.95 96.3 L-83.25 97.75 Q-86.0 98.75 -85.0 100.75 -71.55 130.55 -37.25 145.5 2.1 158.15 38.25 145.0 70.5 131.25 86.75 101.5 90.0 97.5 87.25 91.5 L90.85 88.9 93.8 86.6 99.95 81.25 M87.75 61.6 Q117.45 66.5 126.95 66.5 L129.95 66.35 Q134.45 65.9 138.0 64.0 139.95 63.0 141.2 61.7 L141.65 64.5 141.65 64.7 142.3 70.55 142.3 71.0 142.25 72.9 142.2 74.0 142.05 75.5 Q141.5 79.7 139.9 82.1 L139.65 82.45 Q137.9 84.7 134.9 85.8 132.35 86.65 128.9 86.65 L126.75 86.45 123.65 85.5 Q121.55 84.7 120.25 84.5 L116.2 91.05 Q108.1 103.2 95.5 115.0 L99.75 122.25 104.0 131.75 102.0 132.25 Q96.75 136.75 92.5 138.0 L92.25 142.0 Q62.05 180.35 21.75 184.5 22.5 187.0 36.5 189.25 L36.75 196.25 Q56.5 194.25 66.25 194.5 98.5 188.5 109.5 163.5 111.0 165.25 105.25 176.25 L99.0 183.75 Q83.75 201.75 33.25 200.75 8.5 198.5 8.5 164.75 L5.5 165.0 -9.0 163.25 Q-11.0 207.5 -43.0 202.5 -93.5 201.5 -108.25 173.25 L-110.75 167.25 -111.0 164.0 Q-106.5 187.5 -37.5 197.25 L-37.25 189.75 Q-25.5 188.5 -20.75 184.25 -21.75 182.25 -33.5 180.75 -69.5 171.95 -89.75 141.0 -102.75 131.75 -105.0 132.75 L-101.75 124.5 -96.25 115.75 Q-104.25 109.9 -110.25 103.55 L-113.45 99.95 -114.35 98.8 Q-124.0 100.6 -130.65 100.6 L-130.7 100.6 Q-138.15 100.55 -141.8 93.75 L-143.3 90.15 -143.75 88.5 -144.35 85.95 Q-145.1 82.05 -145.4 76.75 -143.7 78.85 -141.2 80.45 L-138.55 81.95 Q-133.4 84.4 -126.25 84.75 L-123.95 84.8 Q-101.75 84.8 -57.6 70.15 L-34.85 62.15 -29.3 60.05 -27.4 59.3 Q-15.35 54.5 -7.0 50.3 L-5.85 49.7 Q-6.25 49.5 -6.6 49.35 L-6.8 49.25 -10.7 47.35 -11.85 46.8 -20.55 42.2 -21.7 41.55 -29.25 37.05 -35.25 38.95 -36.05 34.6 -36.45 32.3 -41.7 28.4 -41.85 27.65 Q-41.85 27.05 -41.1 25.8 L-40.6 25.4 -38.85 24.2 -37.7 23.5 -38.6 14.8 -38.7 13.55 -38.8 12.55 -39.0 9.9 -39.2 10.25 -39.2 8.45 Q-39.2 4.05 -39.75 -1.75 L-40.15 -14.25 -40.25 -21.75 -39.4 -14.55 Q-38.2 -6.5 -35.8 0.0 -34.25 4.25 -32.15 7.85 L-31.75 8.55 Q-29.1 13.0 -25.6 16.4 -15.4 26.3 1.75 26.75 L2.5 26.7 Q22.35 25.05 31.9 7.85 L33.4 4.85 Q38.45 -5.95 40.0 -22.0 40.0 -7.2 39.25 5.55 L39.1 7.4 Q38.4 17.9 37.15 27.0 L36.95 28.65 36.8 29.75 35.95 34.9 19.25 31.75 23.25 28.35 Q28.05 24.1 28.05 23.15 L28.05 21.95 Q21.25 22.25 2.5 27.5 L-0.05 28.2 Q-25.0 23.75 -28.7 23.75 L-31.55 23.85 -36.55 24.45 -36.6 24.95 Q-36.6 26.7 -28.95 31.05 -28.2 31.05 -27.9 31.4 -27.6 31.7 -26.85 31.7 -25.85 32.3 -25.65 32.3 -24.8 32.3 -22.9 33.0 -21.65 33.4 -19.95 34.15 L-19.45 34.0 -15.2 35.85 -14.0 36.35 -13.9 36.4 Q-6.25 39.5 2.5 42.15 L3.8 42.5 6.5 43.3 6.7 43.35 9.15 44.05 15.5 45.8 24.95 48.4 25.1 48.45 32.4 50.4 42.75 53.1 Q49.65 55.15 79.5 60.25 L81.7 60.6 87.75 61.6 M-75.05 20.9 Q-77.8 31.2 -78.5 41.9 L-78.75 48.65 Q-88.65 51.65 -96.5 54.4 L-91.75 45.6 -81.45 27.15 -71.25 9.0 -75.05 20.9" fill="#000000" fill-opacity="0.49803922" fill-rule="evenodd" stroke="none"/>
  </g>
</svg>
