<?xml version="1.0" encoding="UTF-8" standalone="no"?>
<svg xmlns:ffdec="https://www.free-decompiler.com/flash" xmlns:xlink="http://www.w3.org/1999/xlink" ffdec:objectType="shape" height="355.85px" width="318.65px" xmlns="http://www.w3.org/2000/svg">
  <g transform="matrix(1.0, 0.0, 0.0, 1.0, 156.65, 191.85)">
    <path d="M53.25 -141.8 Q61.55 -138.1 73.5 -124.65 85.45 -111.2 95.75 -85.85 106.05 -60.45 108.65 -49.75 111.15 -39.1 111.6 -38.2 L111.55 -37.85 Q120.5 -30.5 132.5 -12.45 139.2 -2.35 145.4 8.9 L148.5 14.65 152.9 22.7 Q158.6 34.3 160.45 47.9 162.0 59.45 162.0 84.1 L162.0 92.95 Q161.9 102.7 161.25 110.6 159.2 134.6 152.8 135.65 L150.85 130.2 Q135.25 86.6 134.85 75.6 134.6 68.05 131.0 64.3 L129.25 62.65 Q126.9 71.2 123.25 79.5 113.75 101.0 95.8 115.75 L95.5 115.25 Q91.1 119.3 86.05 122.2 L85.95 122.25 85.3 122.95 Q71.35 137.4 57.1 146.35 43.9 154.55 28.95 159.35 18.8 162.6 9.3 163.7 0.05 164.45 -9.25 163.25 L-9.7 163.2 -14.35 162.35 Q-30.55 158.95 -45.55 151.55 -64.15 142.4 -74.75 131.05 L-88.25 122.25 -96.5 116.25 -96.9 116.8 Q-104.4 109.75 -110.25 99.7 -119.5 83.8 -120.15 77.2 -123.45 44.0 -110.05 13.0 -103.45 -2.2 -95.4 -16.65 L-99.9 -18.55 Q-119.15 -26.9 -131.25 -34.2 -145.85 -43.05 -150.2 -46.0 -154.65 -49.4 -156.0 -55.95 L-156.05 -56.15 Q-156.6 -58.8 -156.65 -61.95 L-156.6 -64.85 -156.55 -65.15 -156.2 -69.0 Q-155.15 -77.6 -151.4 -89.05 -140.4 -122.75 -126.1 -152.4 -111.85 -182.1 -108.05 -187.05 -104.25 -192.0 -103.85 -191.85 -99.55 -164.75 -101.45 -136.25 -103.05 -112.55 -105.95 -89.05 -106.7 -83.05 -108.0 -77.1 L-59.35 -73.75 Q-53.65 -81.35 -45.45 -90.8 -32.6 -105.7 -11.3 -121.1 10.0 -136.55 27.45 -141.0 44.9 -145.5 53.25 -141.8" fill="#2e47aa" fill-rule="evenodd" stroke="none"/>
  </g>
</svg>
