<?xml version="1.0" encoding="UTF-8" standalone="no"?>
<svg xmlns:ffdec="https://www.free-decompiler.com/flash" xmlns:xlink="http://www.w3.org/1999/xlink" ffdec:objectType="shape" height="308.25px" width="294.7px" xmlns="http://www.w3.org/2000/svg">
  <g transform="matrix(1.0, 0.0, 0.0, 1.0, 134.0, 145.2)">
    <path d="M49.3 -144.85 L50.7 -145.2 Q55.65 -145.2 67.55 -133.85 77.8 -124.05 82.5 -117.05 94.45 -99.6 100.4 -86.85 106.4 -74.2 112.35 -56.6 L122.05 -26.35 127.5 -17.95 130.15 -13.8 Q141.7 4.35 147.6 16.8 153.45 29.2 154.95 33.15 156.4 37.1 158.6 46.45 160.8 55.75 160.7 75.25 L160.3 109.05 Q160.0 123.4 157.15 126.35 L154.55 126.25 154.45 125.1 Q152.65 124.1 151.45 122.35 145.1 112.8 141.2 101.95 136.35 88.4 133.4 78.55 L128.1 61.5 127.5 61.2 126.55 60.65 Q125.9 66.0 125.0 69.9 120.55 88.75 106.05 104.55 L92.25 119.05 85.9 123.95 84.9 124.7 82.95 126.0 84.6 124.95 84.9 124.7 84.5 125.15 Q71.85 137.9 61.15 146.1 54.25 150.95 48.15 154.0 L46.15 155.0 Q36.15 159.7 27.5 161.4 L12.05 162.85 10.5 162.85 10.5 162.9 1.05 163.05 -8.35 162.55 Q-26.45 162.45 -42.05 154.85 L-49.1 151.4 Q-55.35 148.0 -63.15 142.15 -69.75 137.25 -71.8 136.5 L-71.9 136.05 -73.6 135.25 -76.4 133.8 -76.55 133.55 -77.1 133.25 -77.7 132.95 -77.7 132.9 -79.8 131.95 -84.95 128.95 Q-92.05 124.6 -97.8 119.45 L-98.0 119.75 Q-102.8 115.2 -106.65 109.1 L-116.5 93.05 Q-125.6 81.9 -125.6 66.75 -125.6 45.75 -121.05 28.35 -128.3 22.05 -131.6 9.2 -134.8 -3.5 -133.75 -17.05 -133.75 -42.3 -125.0 -80.7 -118.4 -109.65 -104.9 -136.4 -96.55 -133.75 -87.2 -74.9 L-81.55 -44.45 -81.25 -42.9 -77.3 -48.3 Q-48.5 -87.0 -10.05 -116.25 7.6 -129.65 22.7 -137.15 38.3 -144.9 48.3 -144.9 L49.3 -144.85" fill="#2e47aa" fill-rule="evenodd" stroke="none"/>
  </g>
</svg>
