<?xml version="1.0" encoding="UTF-8" standalone="no"?>
<svg xmlns:ffdec="https://www.free-decompiler.com/flash" xmlns:xlink="http://www.w3.org/1999/xlink" ffdec:objectType="shape" height="308.5px" width="292.5px" xmlns="http://www.w3.org/2000/svg">
  <g transform="matrix(1.0, 0.0, 0.0, 1.0, 131.5, 144.75)">
    <path d="M55.65 -144.7 Q100.05 -110.9 118.05 -56.35 123.6 -39.4 127.25 -22.05 129.2 -19.55 133.75 -12.25 138.25 -4.95 145.05 13.45 L152.8 34.95 Q153.8 38.1 157.3 68.75 160.95 100.45 160.95 104.3 L161.0 111.35 Q160.35 116.5 157.45 117.65 154.5 118.75 144.95 100.75 135.35 82.7 128.2 65.9 123.55 85.45 110.35 101.1 103.55 109.15 95.9 115.9 91.05 120.15 85.9 123.95 L84.9 124.7 82.45 126.3 84.9 124.7 Q60.45 149.45 43.2 157.2 30.0 163.1 9.75 163.7 L5.25 163.75 -9.25 163.05 Q-31.8 160.8 -49.1 151.4 -55.35 148.0 -63.15 142.15 -69.75 137.25 -71.8 136.5 L-71.9 136.05 -73.6 135.25 -79.25 132.3 -79.8 131.95 -84.95 128.95 Q-92.05 124.6 -98.7 119.4 L-103.25 115.75 Q-122.5 99.55 -125.9 74.4 -126.65 68.8 -126.85 63.35 L-128.15 60.0 Q-130.5 53.15 -131.5 46.1 -131.5 30.15 -117.05 6.3 -108.35 -8.15 -99.45 -17.1 -72.2 -58.5 -35.95 -92.35 -21.35 -105.9 -4.7 -117.15 L7.75 -125.35 Q29.6 -140.55 55.3 -144.75 L55.65 -144.7" fill="#2e47aa" fill-rule="evenodd" stroke="none"/>
  </g>
</svg>
