<?xml version="1.0" encoding="UTF-8" standalone="no"?>
<svg xmlns:ffdec="https://www.free-decompiler.com/flash" xmlns:xlink="http://www.w3.org/1999/xlink" ffdec:objectType="shape" height="308.8px" width="306.9px" xmlns="http://www.w3.org/2000/svg">
  <g transform="matrix(1.0, 0.0, 0.0, 1.0, 145.85, 144.85)">
    <path d="M6.15 -131.5 Q10.35 -134.35 14.8 -136.4 31.05 -143.6 48.85 -144.85 L50.45 -143.5 Q69.75 -134.15 82.15 -116.55 92.6 -101.7 99.85 -85.1 107.85 -66.8 112.85 -47.55 L116.65 -33.05 Q121.4 -27.2 133.0 -9.05 L138.25 -1.0 Q145.4 9.7 151.5 20.95 154.55 26.65 155.65 32.95 160.2 58.65 161.0 85.0 161.2 91.05 160.4 96.95 159.55 103.4 159.95 110.05 L159.85 113.1 Q159.0 120.05 156.9 126.8 155.25 128.75 151.6 125.45 147.4 114.1 142.05 97.15 L134.25 72.45 Q131.7 64.7 127.45 60.5 L125.7 66.45 Q120.05 83.5 109.4 98.25 L102.7 107.65 Q98.5 113.75 93.05 118.3 L89.5 120.95 85.85 123.25 85.35 123.5 85.25 123.55 84.65 124.35 83.55 125.6 83.05 125.95 83.45 125.65 83.2 125.9 82.8 126.35 79.5 129.75 Q72.55 136.55 64.7 142.4 57.0 148.05 48.5 152.9 L38.8 157.9 Q32.85 160.75 26.55 161.75 L11.45 163.65 9.75 163.7 9.75 163.75 0.0 163.95 -9.25 163.4 -9.25 163.05 -20.1 161.5 Q-43.35 156.1 -62.25 142.6 -69.25 137.55 -75.65 131.45 L-75.75 131.45 -77.2 131.05 Q-80.4 130.05 -83.1 128.15 L-85.15 126.5 -95.9 117.0 -97.2 115.8 Q-104.1 109.4 -109.45 101.7 -118.75 88.3 -121.55 72.5 -124.1 58.15 -121.65 44.05 -121.2 41.45 -120.9 38.85 L-119.8 31.8 Q-143.7 1.95 -145.85 -13.0 -145.85 -27.35 -107.25 -44.65 -97.75 -48.9 -77.3 -56.85 L-69.95 -59.75 Q-63.35 -67.5 -56.4 -74.85 L-41.4 -90.1 -19.55 -111.1 Q-7.6 -122.45 6.15 -131.5" fill="#2e47aa" fill-rule="evenodd" stroke="none"/>
  </g>
</svg>
