<?xml version="1.0" encoding="UTF-8" standalone="no"?>
<svg xmlns:ffdec="https://www.free-decompiler.com/flash" xmlns:xlink="http://www.w3.org/1999/xlink" ffdec:objectType="shape" height="275.65px" width="318.65px" xmlns="http://www.w3.org/2000/svg">
  <g transform="matrix(1.0, 0.0, 0.0, 1.0, 156.75, 72.2)">
    <path d="M0.1 -50.1 L-1.4 -52.2 Q-3.25 -55.45 -3.8 -59.3 -4.4 -63.15 -3.8 -66.5 L-3.2 -68.95 -1.5 -69.55 Q6.9 -72.2 14.0 -72.2 L30.3 -70.55 30.4 -69.3 32.5 -68.9 Q44.75 -68.9 57.15 -66.0 L62.2 -64.7 62.05 -63.1 Q62.05 -57.95 58.9 -52.2 57.35 -49.35 55.35 -47.45 52.8 -45.1 49.6 -44.15 L45.0 -43.55 Q37.45 -43.55 33.25 -46.25 L30.75 -48.1 Q29.6 -48.95 28.6 -48.95 28.05 -48.95 27.85 -48.45 27.55 -47.8 26.85 -47.4 24.0 -45.9 11.65 -45.9 6.9 -45.9 3.6 -47.5 L3.25 -47.7 Q2.2 -48.75 0.55 -49.65 L0.1 -50.1 M49.8 13.8 Q61.3 49.0 79.0 82.05 92.7 107.6 85.75 122.1 L85.3 122.95 Q71.35 137.4 57.1 146.35 43.9 154.55 28.95 159.35 18.8 162.6 9.3 163.7 0.05 164.45 -9.25 163.25 L-9.7 163.2 -14.35 162.35 Q-30.55 158.95 -45.55 151.55 -64.15 142.4 -74.75 131.05 L-74.8 131.0 -76.85 127.35 -77.0 126.95 Q-79.25 120.25 -79.1 113.25 L-78.95 111.7 -79.2 112.55 Q-77.1 88.85 -61.45 75.4 -45.85 61.9 -36.15 46.85 -27.35 33.15 -12.45 7.8 -9.55 13.75 -4.45 18.4 10.25 31.7 29.25 27.25 42.35 24.25 49.8 13.8 M47.9 -49.85 Q47.75 -54.3 43.65 -54.3 37.65 -54.3 37.65 -50.6 37.35 -49.25 37.8 -48.0 38.75 -45.6 42.75 -45.6 44.35 -45.6 46.2 -47.25 47.9 -48.8 47.9 -49.85 M18.65 -56.7 Q17.0 -58.2 14.7 -58.2 12.4 -58.2 10.8 -56.7 9.15 -55.2 9.15 -53.05 9.15 -50.9 10.8 -49.4 12.4 -47.9 14.7 -47.9 17.0 -47.9 18.65 -49.4 20.25 -50.9 20.25 -53.05 20.25 -55.2 18.65 -56.7" fill="#ffffff" fill-rule="evenodd" stroke="none"/>
    <path d="M47.9 -49.85 Q47.9 -48.8 46.2 -47.25 44.35 -45.6 42.75 -45.6 38.75 -45.6 37.8 -48.0 37.35 -49.25 37.65 -50.6 37.65 -54.3 43.65 -54.3 47.75 -54.3 47.9 -49.85 M18.65 -56.7 Q20.25 -55.2 20.25 -53.05 20.25 -50.9 18.65 -49.4 17.0 -47.9 14.7 -47.9 12.4 -47.9 10.8 -49.4 9.15 -50.9 9.15 -53.05 9.15 -55.2 10.8 -56.7 12.4 -58.2 14.7 -58.2 17.0 -58.2 18.65 -56.7" fill="#000000" fill-rule="evenodd" stroke="none"/>
    <path d="M55.35 -47.45 Q64.35 -36.75 61.7 -22.75 57.85 -2.55 54.3 5.6 52.4 10.15 49.8 13.8 42.35 24.25 29.25 27.25 10.25 31.7 -4.45 18.4 -9.55 13.75 -12.45 7.8 -14.65 3.35 -15.55 -1.8 L-16.95 -12.15 Q-21.55 -33.4 -6.2 -45.3 -3.15 -50.8 0.1 -50.1 L0.55 -49.65 Q2.2 -48.75 3.25 -47.7 L3.6 -47.5 Q6.9 -45.9 11.65 -45.9 24.0 -45.9 26.85 -47.4 27.55 -47.8 27.85 -48.45 28.05 -48.95 28.6 -48.95 29.6 -48.95 30.75 -48.1 L33.25 -46.25 Q37.45 -43.55 45.0 -43.55 L49.6 -44.15 Q52.8 -45.1 55.35 -47.45 M85.3 122.95 L85.95 122.25 86.05 122.2 Q91.1 119.3 95.5 115.25 L95.8 115.75 Q111.0 141.85 110.5 154.0 111.0 193.0 55.25 201.0 30.5 204.25 16.75 193.0 11.6 190.05 9.3 163.7 18.8 162.6 28.95 159.35 43.9 154.55 57.1 146.35 71.35 137.4 85.3 122.95 M-9.25 163.25 Q-8.5 175.6 -14.1 186.75 -16.05 190.55 -19.35 193.3 -34.3 205.9 -55.3 202.85 -75.65 200.25 -93.05 189.6 -111.45 178.45 -110.8 156.7 -110.1 134.9 -96.9 116.8 L-96.5 116.25 -88.25 122.25 -74.8 131.0 -74.75 131.05 Q-64.15 142.4 -45.55 151.55 -30.55 158.95 -14.35 162.35 L-9.7 163.2 -9.25 163.25" fill="#e58508" fill-rule="evenodd" stroke="none"/>
    <path d="M-17.3 -13.75 L-16.95 -12.15 -15.55 -1.8 Q-14.65 3.35 -12.45 7.8 -9.55 13.75 -4.45 18.4 10.25 31.7 29.25 27.25 40.3 24.7 47.35 16.9 L49.8 13.8 51.6 19.2 Q52.35 28.0 46.0 52.65 39.6 77.3 20.65 82.05 1.7 86.8 -8.5 55.9 -18.7 25.0 -17.35 16.15 L-17.35 16.1 Q-16.8 8.05 -17.6 0.35 L-17.5 -11.7 -17.3 -13.75 M-156.55 -64.95 L-152.0 -59.4 Q-145.55 -51.7 -136.85 -47.0 -122.7 -39.4 -107.45 -34.15 -97.05 -30.65 -86.25 -28.15 -77.75 -26.25 -70.55 -23.8 L-70.95 -22.3 -73.85 -19.25 Q-83.45 -9.05 -91.55 2.5 -95.95 8.7 -98.45 15.7 -101.05 22.9 -102.15 30.55 -104.15 44.6 -105.2 58.95 -105.55 63.85 -104.5 68.65 -102.0 80.2 -96.45 90.5 L-94.1 94.65 Q-88.45 103.85 -77.95 104.3 L-77.2 105.0 -76.2 106.7 Q-74.05 112.0 -70.05 116.2 -64.55 122.05 -58.25 127.15 -50.5 133.35 -42.1 138.35 -29.4 146.0 -15.0 149.55 -2.85 152.75 9.7 151.8 20.85 150.7 31.15 146.2 44.55 140.3 57.0 133.0 69.3 125.85 79.2 115.95 85.25 109.85 86.95 101.8 L93.7 99.1 Q94.75 98.6 95.65 97.9 99.8 94.45 103.3 90.5 110.15 82.75 114.5 73.0 L116.45 67.65 Q121.65 48.95 121.75 29.3 L127.55 39.45 Q129.45 44.3 131.65 48.95 133.6 53.1 136.35 56.7 140.9 62.7 148.3 61.45 145.6 65.05 143.55 69.0 143.1 69.9 143.1 70.9 142.95 78.7 144.9 86.1 L146.15 90.5 Q149.4 101.0 154.65 110.8 L161.9 99.2 Q161.75 113.5 158.8 127.3 157.8 131.95 154.15 134.85 L152.8 135.65 Q145.35 115.4 138.9 94.8 L137.65 90.5 Q135.25 81.45 134.3 72.15 133.75 66.35 129.25 62.65 125.35 77.55 117.55 90.5 114.85 95.05 111.65 99.35 104.85 108.55 95.8 115.75 102.3 126.9 105.95 135.55 L106.0 135.7 106.3 136.05 108.15 141.3 103.55 141.15 Q94.6 143.35 91.95 144.15 83.35 170.05 33.05 185.6 36.35 186.65 37.0 189.9 37.35 191.6 37.2 194.25 L51.75 194.8 Q61.0 194.8 69.15 193.3 80.3 190.2 94.35 185.2 L100.2 183.0 Q94.95 188.05 83.55 193.75 68.25 201.4 57.1 201.4 L54.95 201.05 55.2 201.0 54.9 201.05 54.05 201.15 47.75 201.7 47.65 201.7 Q28.3 202.45 16.75 193.0 11.6 190.05 9.3 163.7 L-9.25 163.25 Q-8.5 175.6 -14.1 186.75 -16.05 190.55 -19.35 193.3 -34.3 205.9 -55.3 202.85 -75.65 200.25 -93.05 189.6 -102.05 184.15 -106.5 176.15 L-107.9 173.3 Q-109.3 170.0 -110.05 166.35 L-110.1 166.15 Q-103.35 175.6 -98.6 178.0 -81.95 186.45 -78.15 187.9 -65.25 192.8 -42.0 196.5 L-36.65 196.5 Q-38.7 193.35 -38.7 190.0 -38.7 188.6 -36.3 187.1 -33.7 185.45 -30.05 184.85 L-27.55 184.5 Q-40.5 180.8 -51.4 172.65 -58.95 167.05 -69.1 156.1 -81.9 142.35 -86.0 138.6 -94.15 131.1 -102.75 126.2 L-102.8 126.2 -101.25 123.4 -101.2 123.4 Q-99.25 120.05 -96.9 116.8 L-100.45 113.1 Q-104.2 109.1 -107.15 104.6 -111.6 97.8 -115.15 90.5 L-117.2 86.1 Q-118.3 83.6 -118.9 81.0 -121.6 69.05 -120.65 56.75 -119.9 46.5 -117.45 36.7 -110.35 8.5 -95.4 -16.65 L-99.9 -18.55 Q-112.55 -23.85 -124.65 -30.55 -136.2 -36.95 -147.4 -44.05 -150.1 -45.7 -152.05 -48.2 -157.65 -55.4 -156.55 -64.95" fill="#000000" fill-opacity="0.49803922" fill-rule="evenodd" stroke="none"/>
  </g>
</svg>
