<?xml version="1.0" encoding="UTF-8" standalone="no"?>
<svg xmlns:ffdec="https://www.free-decompiler.com/flash" xmlns:xlink="http://www.w3.org/1999/xlink" ffdec:objectType="shape" height="161.25px" width="157.2px" xmlns="http://www.w3.org/2000/svg">
  <g transform="matrix(1.0, 0.0, 0.0, 1.0, 101.25, -5.5)">
    <path d="M26.5 82.5 Q35.65 99.0 47.2 113.85 66.1 138.15 44.25 156.75 L21.0 166.0 -10.0 166.75 Q-38.75 165.0 -67.75 141.75 -70.9 139.5 -73.45 136.75 -95.85 112.35 -99.75 79.25 L-100.5 74.25 -100.75 73.75 -101.25 69.25 Q-99.5 67.5 -100.0 61.75 -96.5 62.25 -89.25 50.75 L-73.0 23.5 -64.75 5.5 Q-45.35 41.1 -6.95 19.6 1.6 14.85 7.25 7.0 13.4 29.7 16.5 53.0 L26.5 82.5" fill="#ffffff" fill-rule="evenodd" stroke="none"/>
  </g>
</svg>
