<?xml version="1.0" encoding="UTF-8" standalone="no"?>
<svg xmlns:ffdec="https://www.free-decompiler.com/flash" xmlns:xlink="http://www.w3.org/1999/xlink" ffdec:objectType="shape" height="269.8px" width="294.4px" xmlns="http://www.w3.org/2000/svg">
  <g transform="matrix(1.0, 0.0, 0.0, 1.0, 134.0, 66.35)">
    <path d="M8.85 -48.05 Q7.05 -51.1 7.35 -54.2 7.4 -63.0 12.5 -66.35 L23.1 -65.85 Q33.25 -66.05 38.6 -64.4 L43.4 -62.7 Q45.15 -62.7 46.55 -63.95 L46.65 -64.05 Q73.3 -61.45 77.1 -56.6 76.7 -52.35 75.7 -49.35 73.2 -42.35 71.4 -40.7 69.95 -39.35 68.05 -38.45 66.7 -37.8 65.2 -37.4 62.4 -36.65 58.95 -36.65 44.95 -36.65 42.3 -44.0 L42.65 -44.3 Q41.7 -43.4 39.45 -42.6 34.7 -40.95 25.95 -40.95 15.7 -40.95 11.0 -45.35 L9.15 -47.55 9.1 -47.6 8.85 -48.05 M59.85 20.0 L62.2 28.1 Q66.85 42.6 72.75 53.45 78.45 63.95 83.5 77.75 89.7 94.8 89.7 104.3 89.7 114.85 84.65 124.85 L82.95 126.0 84.6 124.95 84.5 125.15 Q71.85 137.9 61.15 146.1 54.25 150.95 48.15 154.0 L46.15 155.0 Q36.15 159.7 27.5 161.4 L12.05 162.85 10.5 162.85 10.5 162.9 1.05 163.05 -8.35 162.55 Q-26.45 162.45 -42.05 154.85 L-49.1 151.4 Q-55.35 148.0 -63.15 142.15 -69.75 137.25 -71.8 136.5 L-71.9 136.05 -73.6 135.25 -76.4 133.8 -76.55 133.55 -77.1 133.25 -77.7 132.95 -77.7 132.9 Q-80.7 124.6 -80.7 115.65 -80.7 101.85 -68.55 87.25 -64.5 82.4 -55.7 73.45 -45.15 62.75 -40.5 57.6 -29.7 45.7 -17.85 27.6 L-3.7 5.45 Q-3.0 8.0 4.3 19.6 11.55 31.15 29.9 30.05 48.2 28.9 53.1 24.3 58.0 19.7 59.85 20.0 M26.4 -53.35 Q24.05 -53.35 22.4 -51.65 20.7 -50.0 20.7 -47.65 20.7 -45.3 22.4 -43.6 24.05 -41.95 26.4 -41.95 28.75 -41.95 30.45 -43.6 32.1 -45.3 32.1 -47.65 32.1 -50.0 30.45 -51.65 28.75 -53.35 26.4 -53.35 M63.2 -42.95 Q63.2 -45.25 61.6 -46.85 60.0 -48.45 57.7 -48.45 55.4 -48.45 53.8 -46.85 52.2 -45.25 52.2 -42.95 52.2 -40.65 53.8 -39.05 55.4 -37.45 57.7 -37.45 60.0 -37.45 61.6 -39.05 63.2 -40.65 63.2 -42.95" fill="#ffffff" fill-rule="evenodd" stroke="none"/>
    <path d="M63.2 -42.95 Q63.2 -40.65 61.6 -39.05 60.0 -37.45 57.7 -37.45 55.4 -37.45 53.8 -39.05 52.2 -40.65 52.2 -42.95 52.2 -45.25 53.8 -46.85 55.4 -48.45 57.7 -48.45 60.0 -48.45 61.6 -46.85 63.2 -45.25 63.2 -42.95 M26.4 -53.35 Q28.75 -53.35 30.45 -51.65 32.1 -50.0 32.1 -47.65 32.1 -45.3 30.45 -43.6 28.75 -41.95 26.4 -41.95 24.05 -41.95 22.4 -43.6 20.7 -45.3 20.7 -47.65 20.7 -50.0 22.4 -51.65 24.05 -53.35 26.4 -53.35" fill="#000000" fill-rule="evenodd" stroke="none"/>
    <path d="M8.85 -48.05 L9.1 -47.6 9.15 -47.55 11.0 -45.35 Q15.7 -40.95 25.95 -40.95 34.7 -40.95 39.45 -42.6 41.7 -43.4 42.65 -44.3 L42.3 -44.0 Q44.95 -36.65 58.95 -36.65 62.4 -36.65 65.2 -37.4 66.7 -37.8 68.05 -38.45 71.15 -36.4 73.35 -26.85 74.8 -20.75 75.35 -14.55 75.35 -4.0 70.4 4.95 69.75 7.3 67.45 10.85 64.4 15.6 59.85 20.0 58.0 19.7 53.1 24.3 48.2 28.9 29.9 30.05 11.55 31.15 4.3 19.6 -3.0 8.0 -3.7 5.45 -6.3 -3.6 -6.45 -13.4 L-6.95 -18.05 Q-6.95 -25.85 -2.15 -35.95 2.5 -45.75 8.85 -48.05 M84.65 124.85 L84.9 124.7 85.9 123.95 92.25 119.05 95.9 115.9 Q111.0 141.9 110.5 154.0 111.0 193.0 55.25 201.0 30.5 204.25 16.75 193.0 12.5 190.55 10.5 162.9 L10.5 162.85 12.05 162.85 Q30.5 162.85 43.2 157.2 51.35 153.55 61.15 146.1 71.85 137.9 84.5 125.15 L84.9 124.7 84.6 124.95 82.95 126.0 84.65 124.85 M-8.35 162.55 L-8.3 162.55 Q-9.95 178.5 -14.1 186.75 -16.05 190.55 -19.35 193.3 -34.3 205.9 -55.3 202.85 -75.65 200.25 -93.05 189.6 -111.45 178.45 -110.8 156.7 -110.15 136.6 -98.0 119.75 L-97.8 119.45 Q-92.05 124.6 -84.95 128.95 L-79.8 131.95 -79.25 132.3 -76.4 133.8 -73.6 135.25 -71.9 136.05 -71.8 136.5 Q-69.75 137.25 -63.15 142.15 -55.35 148.0 -49.1 151.4 L-42.05 154.85 Q-26.45 162.45 -8.35 162.55" fill="#e58508" fill-rule="evenodd" stroke="none"/>
    <path d="M84.5 125.15 L84.6 124.95 84.9 124.7 84.5 125.15" fill="#2e47aa" fill-rule="evenodd" stroke="none"/>
    <path d="M60.55 200.15 L57.75 200.65 58.65 200.05 60.55 200.15" fill="#e58508" fill-rule="evenodd" stroke="none"/>
    <path d="M57.75 200.65 L55.25 201.0 50.15 201.55 Q29.05 203.05 16.75 193.0 12.5 190.55 10.5 162.9 L1.05 163.05 -8.35 162.55 -8.3 162.55 Q-9.95 178.5 -14.1 186.75 -16.05 190.55 -19.35 193.3 -34.3 205.9 -55.3 202.85 -75.65 200.25 -93.05 189.6 -102.0 184.2 -106.4 176.3 L-106.6 175.9 -109.25 169.55 -109.55 168.55 -109.5 168.6 Q-106.4 174.0 -94.55 179.4 L-76.05 187.75 Q-62.8 192.75 -42.25 196.1 L-36.6 195.65 Q-38.8 193.0 -38.8 191.25 -38.8 188.7 -38.15 187.7 -36.8 185.7 -32.05 184.25 L-31.9 184.0 Q-54.15 174.1 -73.6 154.15 L-88.95 137.55 Q-95.75 130.2 -101.45 125.0 L-101.3 124.75 -101.2 124.55 -99.75 122.25 -98.0 119.75 Q-102.8 115.2 -106.65 109.1 L-116.5 93.05 Q-125.6 81.9 -125.6 66.75 -125.6 46.1 -121.2 28.9 L-121.05 28.35 -124.5 24.7 -125.55 23.3 -125.5 23.3 -126.85 21.2 Q-128.35 18.7 -129.5 15.7 L-131.6 9.2 -131.85 8.1 Q-133.7 0.3 -133.95 -7.75 L-133.95 -7.8 -134.0 -11.65 -133.9 -14.1 -133.9 -14.55 Q-123.35 21.0 -93.15 21.0 -61.45 21.0 -44.3 18.2 L-39.1 17.25 Q-50.0 24.15 -62.85 27.15 L-82.5 31.6 -105.85 30.65 -105.6 30.65 -107.85 41.05 Q-110.8 55.35 -110.8 59.7 -110.8 69.0 -108.7 77.4 -106.95 81.35 -105.5 83.0 -103.1 85.75 -100.5 90.25 -97.8 95.05 -96.3 96.85 -91.4 102.85 -79.45 106.8 L-79.3 106.35 Q-77.1 107.95 -70.05 118.4 -63.05 128.8 -50.95 137.15 -38.85 145.5 -25.1 149.1 -11.4 152.65 0.4 153.25 L7.6 153.4 Q43.4 153.4 71.3 125.55 78.65 118.25 87.75 106.2 L89.7 103.7 89.7 104.3 Q92.2 102.6 95.25 99.55 105.0 89.85 112.5 71.55 118.25 57.75 119.05 48.75 L120.8 32.55 121.1 32.55 121.1 31.9 121.55 31.9 121.75 32.65 Q122.95 32.95 122.7 34.0 L122.35 35.0 Q124.6 43.15 126.7 46.7 132.1 55.7 143.85 59.55 143.65 59.95 144.05 60.35 L144.35 60.85 136.95 61.15 136.3 64.8 Q136.3 66.5 138.25 72.55 140.55 79.65 143.65 86.05 151.8 102.75 160.4 104.4 L160.4 104.95 160.3 109.05 160.15 113.4 160.15 113.45 Q159.55 123.85 157.15 126.35 L154.55 126.25 154.45 125.1 Q152.65 124.1 151.45 122.35 145.1 112.8 141.2 101.95 136.35 88.4 133.4 78.55 L128.1 61.5 127.5 61.2 126.55 60.65 Q125.9 66.0 125.0 69.9 120.55 88.75 106.05 104.55 L92.25 119.05 95.9 115.9 Q103.75 129.4 107.4 139.2 L107.45 139.4 108.8 143.4 Q103.25 144.65 93.9 145.1 L93.9 145.35 Q93.9 150.1 87.5 157.1 81.55 163.5 71.85 170.1 62.25 176.6 52.4 180.9 41.95 185.5 34.65 186.1 37.7 192.7 37.5 194.8 L52.35 193.85 Q60.35 193.2 65.9 193.6 L68.25 193.85 67.65 192.7 67.95 192.7 68.2 193.2 77.2 192.15 Q93.4 186.45 96.7 182.2 L98.05 182.25 Q98.5 182.35 98.5 183.6 L98.5 183.9 Q86.0 195.6 60.55 200.15 L58.65 200.05 57.75 200.65 M64.0 33.4 L65.45 37.4 Q54.85 80.15 41.65 83.05 28.4 85.95 27.0 83.3 -3.5 61.6 -5.7 8.5 L-3.7 5.45 Q12.0 40.9 49.6 25.3 64.7 19.05 70.75 4.35 69.8 16.05 66.0 27.3 L64.0 33.4 M84.5 125.15 L84.9 124.7 84.6 124.95 84.5 125.15 M-29.9 14.65 L-30.25 14.75 -30.1 14.6 -29.9 14.65 M-79.8 131.95 L-79.25 132.3 -76.4 133.8 -76.55 133.55 -77.1 133.25 -77.7 132.95 -77.7 132.9 -79.8 131.95" fill="#000000" fill-opacity="0.49803922" fill-rule="evenodd" stroke="none"/>
  </g>
</svg>
