<?xml version="1.0" encoding="UTF-8" standalone="no"?>
<svg xmlns:ffdec="https://www.free-decompiler.com/flash" xmlns:xlink="http://www.w3.org/1999/xlink" ffdec:objectType="shape" height="264.2px" width="291.9px" xmlns="http://www.w3.org/2000/svg">
  <g transform="matrix(1.0, 0.0, 0.0, 1.0, 130.5, 60.75)">
    <path d="M21.85 -42.2 Q16.7 -50.4 20.05 -59.45 34.4 -62.2 48.7 -59.15 L51.4 -56.25 52.25 -57.55 Q67.75 -59.5 80.75 -50.95 L80.5 -48.8 Q79.15 -40.45 72.35 -35.6 70.2 -33.2 67.3 -32.25 59.6 -29.7 46.65 -37.05 42.95 -36.0 39.7 -35.55 L40.45 -36.4 40.65 -36.85 40.75 -37.0 Q41.25 -37.7 41.25 -41.3 42.05 -45.0 36.45 -45.0 31.0 -45.0 31.0 -39.45 L31.05 -37.25 Q31.55 -35.95 33.4 -35.6 L33.65 -35.4 32.1 -35.6 Q25.55 -36.8 21.85 -42.2 M66.7 29.05 Q70.2 37.95 79.2 62.8 L86.3 80.95 Q91.1 94.25 91.1 101.25 91.1 112.6 85.9 123.95 L84.9 124.7 82.45 126.3 84.9 124.7 Q60.45 149.45 43.2 157.2 30.0 163.1 9.75 163.7 L5.25 163.75 -9.25 163.05 Q-31.8 160.8 -49.1 151.4 -55.35 148.0 -63.15 142.15 -69.75 137.25 -71.8 136.5 L-71.9 136.05 -73.6 135.25 -75.75 132.0 Q-79.75 125.55 -80.95 119.85 -81.95 117.0 -79.15 105.85 -66.15 120.9 -54.5 129.8 -42.8 138.7 -43.55 133.2 -44.3 127.7 -56.85 94.85 L-61.8 82.05 Q-52.55 72.25 -38.9 60.75 -24.35 48.45 -9.75 28.2 -3.4 19.4 6.3 4.9 L6.35 5.25 6.55 6.35 Q7.35 10.1 8.8 13.45 12.05 21.0 18.6 26.65 33.95 39.95 53.1 35.45 57.55 34.4 61.3 32.5 L63.85 31.1 65.85 29.75 66.7 29.05 M63.25 -32.3 Q67.75 -32.3 67.75 -37.55 67.75 -39.7 67.35 -40.5 66.35 -42.45 62.9 -42.45 61.55 -42.45 60.05 -40.2 58.65 -38.0 58.65 -36.25 58.65 -32.3 63.25 -32.3" fill="#ffffff" fill-rule="evenodd" stroke="none"/>
    <path d="M33.65 -35.4 L33.4 -35.6 Q31.55 -35.95 31.05 -37.25 L31.0 -39.45 Q31.0 -45.0 36.45 -45.0 42.05 -45.0 41.25 -41.3 41.25 -37.7 40.75 -37.0 L40.65 -36.85 40.45 -36.4 39.7 -35.55 38.15 -35.4 Q35.75 -35.2 33.7 -35.4 L33.65 -35.4 M63.25 -32.3 Q58.65 -32.3 58.65 -36.25 58.65 -38.0 60.05 -40.2 61.55 -42.45 62.9 -42.45 66.35 -42.45 67.35 -40.5 67.75 -39.7 67.75 -37.55 67.75 -32.3 63.25 -32.3" fill="#000000" fill-rule="evenodd" stroke="none"/>
    <path d="M21.85 -42.2 Q25.55 -36.8 32.1 -35.6 L33.65 -35.4 33.7 -35.4 Q35.75 -35.2 38.15 -35.4 L39.7 -35.55 Q42.95 -36.0 46.65 -37.05 59.6 -29.7 67.3 -32.25 70.2 -33.2 72.35 -35.6 97.7 -4.6 67.7 28.0 L66.7 29.05 65.85 29.75 63.85 31.1 61.3 32.5 Q57.55 34.4 53.1 35.45 33.95 39.95 18.6 26.65 12.05 21.0 8.8 13.45 7.35 10.1 6.55 6.35 L6.35 5.25 4.7 -4.0 4.4 -5.25 Q0.75 -27.05 18.9 -40.1 L21.85 -42.2 M85.9 123.95 Q91.05 120.15 95.9 115.9 111.0 141.9 110.5 154.0 111.0 193.0 55.25 201.0 30.5 204.25 16.75 193.0 12.5 190.55 9.75 163.7 30.0 163.1 43.2 157.2 60.45 149.45 84.9 124.7 L82.45 126.3 84.9 124.7 85.9 123.95 M-9.25 163.05 Q-9.95 178.5 -14.1 186.75 -16.05 190.55 -19.35 193.3 -34.3 205.9 -55.3 202.85 -75.65 200.25 -93.05 189.6 -111.45 178.45 -110.8 156.7 -110.15 136.45 -98.7 119.4 -92.05 124.6 -84.95 128.95 L-79.8 131.95 -79.25 132.3 -73.6 135.25 -71.9 136.05 -71.8 136.5 Q-69.75 137.25 -63.15 142.15 -55.35 148.0 -49.1 151.4 -31.8 160.8 -9.25 163.05" fill="#e58508" fill-rule="evenodd" stroke="none"/>
    <path d="M135.05 57.55 L135.5 57.55 135.25 57.75 135.05 57.55" fill="#2e47aa" fill-rule="evenodd" stroke="none"/>
    <path d="M124.4 32.35 Q123.85 29.0 124.55 27.35 L128.05 46.75 129.15 48.0 Q131.6 51.4 135.55 52.55 139.7 53.65 142.75 54.75 L136.4 58.75 138.8 62.95 138.25 64.1 138.45 64.7 Q144.25 82.95 155.9 98.05 L159.7 90.2 160.0 93.25 160.8 102.85 161.3 108.8 Q161.95 115.0 157.1 117.75 155.4 117.3 154.4 115.85 138.6 92.5 128.2 65.9 L126.8 70.7 Q118.15 97.7 95.9 115.9 104.15 129.4 109.1 144.35 L92.85 147.05 Q90.6 151.55 87.3 155.25 80.1 163.5 71.55 170.7 55.85 184.0 35.4 185.5 L35.35 189.4 Q35.4 192.25 38.0 192.8 49.0 195.4 61.35 194.65 68.2 194.5 82.45 189.3 96.7 184.1 97.9 182.6 L99.3 183.0 99.5 183.4 Q97.7 184.25 91.1 189.05 L83.3 194.3 Q81.2 195.2 68.0 198.35 54.4 201.6 51.9 201.6 L50.05 201.4 50.0 201.4 Q42.95 202.25 35.65 201.15 26.15 199.7 18.2 194.15 17.2 193.4 16.7 192.4 10.1 179.1 9.75 163.7 L-9.25 163.05 Q-9.45 170.75 -11.1 178.25 -11.8 181.55 -13.25 184.5 -19.6 197.25 -33.5 201.5 -39.2 203.2 -45.15 203.2 -71.0 203.2 -93.15 189.75 -107.2 181.3 -110.25 165.3 -101.95 172.35 -93.0 178.05 -86.25 182.4 -78.8 185.5 -58.85 193.85 -37.5 195.05 L-38.45 190.1 Q-38.65 188.6 -38.25 187.15 -37.0 183.1 -32.4 182.25 -43.4 175.85 -53.95 168.5 -63.15 162.15 -71.5 154.2 -86.95 139.45 -101.4 123.75 L-98.7 119.4 -105.45 113.6 Q-117.95 102.3 -123.1 86.4 -124.5 82.1 -124.95 77.5 -126.3 64.25 -130.5 51.5 -127.9 53.45 -125.95 55.95 L-120.1 62.45 -115.0 67.25 Q-112.3 69.75 -111.75 73.15 L-56.25 114.15 -54.0 102.35 Q-50.75 110.55 -48.0 118.25 L-46.15 122.9 Q-43.5 129.0 -43.9 135.1 L-45.95 135.2 Q-58.45 128.4 -68.05 117.9 -73.6 111.85 -79.6 106.35 -96.5 90.6 -112.2 72.85 L-111.95 77.35 Q-111.75 79.95 -110.6 82.4 -101.05 102.95 -80.75 113.25 L-80.5 111.85 -71.8 119.0 -65.3 124.85 -61.95 128.0 Q-47.7 140.9 -36.95 145.3 -26.25 149.7 -2.3 152.3 21.65 154.85 40.3 146.25 58.95 137.65 68.25 128.7 77.55 119.7 81.2 114.35 84.8 108.95 91.05 102.95 L91.1 102.05 Q97.65 97.75 103.35 92.2 113.95 81.8 118.85 67.8 124.15 52.7 124.7 36.75 124.75 34.5 124.4 32.35 M135.05 57.55 L135.25 57.75 135.5 57.55 135.05 57.55 M78.55 13.2 L79.0 12.35 Q77.85 23.35 74.4 46.0 L73.3 46.65 74.05 48.65 Q72.35 54.9 70.2 60.45 61.05 84.8 49.0 84.8 29.15 84.8 15.85 47.4 11.5 35.1 8.5 20.6 6.25 9.5 6.25 6.15 L6.4 5.4 6.55 6.35 Q7.35 10.1 8.8 13.45 10.65 17.7 13.5 21.35 15.75 24.15 18.6 26.65 33.95 39.95 53.1 35.45 57.55 34.4 61.3 32.5 L63.85 31.1 65.85 29.75 66.7 29.05 67.7 28.0 Q71.25 24.15 74.0 20.35 L74.95 19.0 78.55 13.2" fill="#000000" fill-opacity="0.49803922" fill-rule="evenodd" stroke="none"/>
  </g>
</svg>
