<?xml version="1.0" encoding="UTF-8" standalone="no"?>
<svg xmlns:ffdec="https://www.free-decompiler.com/flash" xmlns:xlink="http://www.w3.org/1999/xlink" ffdec:objectType="shape" height="271.0px" width="295.65px" xmlns="http://www.w3.org/2000/svg">
  <g transform="matrix(1.0, 0.0, 0.0, 1.0, 135.5, 67.55)">
    <path d="M10.3 -47.0 L9.75 -47.7 Q7.5 -50.6 7.5 -55.65 7.5 -62.65 8.9 -65.15 L8.8 -65.3 9.05 -65.4 Q9.65 -66.4 10.5 -66.55 L11.85 -66.55 11.95 -66.5 Q15.9 -67.55 22.5 -67.55 34.4 -67.55 40.95 -65.3 44.2 -64.15 46.0 -62.65 56.1 -63.7 68.15 -60.2 71.35 -59.3 75.75 -56.25 74.9 -41.9 68.3 -39.0 54.4 -32.25 40.9 -39.85 L39.05 -40.95 Q27.55 -38.75 16.7 -43.1 13.1 -44.6 10.3 -47.0 M57.9 19.15 L58.15 18.85 Q60.8 23.7 64.25 33.65 73.4 59.6 75.45 63.55 86.65 85.1 88.85 104.05 89.1 117.55 87.75 119.05 86.4 120.55 85.45 123.45 L85.85 123.25 85.35 123.5 85.25 123.55 84.65 124.35 83.55 125.6 83.05 125.95 83.45 125.65 83.2 125.9 82.8 126.35 79.5 129.75 Q72.55 136.55 64.7 142.4 57.0 148.05 48.5 152.9 L38.8 157.9 Q32.85 160.75 26.55 161.75 L11.45 163.65 9.75 163.7 9.75 163.75 0.0 163.95 -9.25 163.4 -9.25 163.05 -20.1 161.5 Q-43.35 156.1 -62.25 142.6 -69.25 137.55 -75.65 131.45 L-75.75 131.45 -77.2 131.05 Q-80.15 124.0 -80.15 115.5 -80.15 101.9 -69.75 88.45 -64.2 81.3 -41.5 59.25 -29.85 47.85 -17.9 31.25 -11.85 22.85 -2.75 8.7 L-2.7 8.95 -1.65 11.7 -1.1 12.9 Q0.95 17.25 4.0 21.05 8.45 26.6 14.9 29.35 28.35 35.0 42.45 31.1 44.7 30.45 46.7 29.3 50.75 26.8 54.05 23.6 L57.9 19.15 M58.5 -37.55 Q60.75 -39.15 60.75 -41.3 60.8 -46.95 56.05 -46.95 51.35 -46.95 51.35 -40.95 51.05 -39.6 51.35 -38.5 52.0 -36.25 55.3 -36.25 56.7 -36.25 58.5 -37.55 M31.8 -49.55 Q27.5 -52.2 25.05 -50.05 22.85 -47.65 22.85 -45.25 22.95 -44.1 23.8 -43.0 25.4 -40.75 28.95 -40.75 30.15 -40.75 30.4 -41.2 L30.6 -41.6 Q36.05 -46.95 31.8 -49.55" fill="#ffffff" fill-rule="evenodd" stroke="none"/>
    <path d="M31.8 -49.55 Q36.05 -46.95 30.6 -41.6 L30.4 -41.2 Q30.15 -40.75 28.95 -40.75 25.4 -40.75 23.8 -43.0 22.95 -44.1 22.85 -45.25 22.85 -47.65 25.05 -50.05 27.5 -52.2 31.8 -49.55 M58.5 -37.55 Q56.7 -36.25 55.3 -36.25 52.0 -36.25 51.35 -38.5 51.05 -39.6 51.35 -40.95 51.35 -46.95 56.05 -46.95 60.8 -46.95 60.75 -41.3 60.75 -39.15 58.5 -37.55" fill="#000000" fill-rule="evenodd" stroke="none"/>
    <path d="M68.3 -39.0 Q75.15 -26.65 71.8 -12.8 68.2 1.8 60.75 14.8 L57.9 19.15 54.05 23.6 Q50.75 26.8 46.7 29.3 44.7 30.45 42.45 31.1 28.35 35.0 14.9 29.35 8.45 26.6 4.0 21.05 0.95 17.25 -1.1 12.9 L-1.65 11.7 -2.7 8.95 -2.75 8.7 -3.45 6.45 Q-7.1 -6.8 -6.6 -20.55 -6.25 -30.35 -0.5 -38.2 3.75 -44.1 10.3 -47.0 13.1 -44.6 16.7 -43.1 27.55 -38.75 39.05 -40.95 L40.9 -39.85 Q54.4 -32.25 68.3 -39.0 M43.9 27.25 L44.15 27.25 44.15 27.05 43.9 27.05 43.9 27.25" fill="#e58407" fill-rule="evenodd" stroke="none"/>
    <path d="M85.85 123.25 L89.5 120.95 93.05 118.3 95.9 115.9 Q111.0 141.9 110.5 154.0 111.0 193.0 55.25 201.0 30.5 204.25 16.75 193.0 12.5 190.55 9.75 163.75 L9.75 163.7 11.45 163.65 26.55 161.75 Q32.85 160.75 38.8 157.9 L48.5 152.9 Q57.0 148.05 64.7 142.4 72.55 136.55 79.5 129.75 L82.8 126.35 83.2 125.9 83.45 125.65 83.05 125.95 83.55 125.6 84.65 124.35 85.25 123.55 85.35 123.5 85.85 123.25 M-9.25 163.4 Q-10.0 178.55 -14.1 186.75 -16.05 190.55 -19.35 193.3 -34.3 205.9 -55.3 202.85 -75.65 200.25 -93.05 189.6 -111.45 178.45 -110.8 156.7 -110.15 136.45 -97.3 115.8 L-97.2 115.8 -95.9 117.0 -85.15 126.5 -83.1 128.15 Q-80.4 130.05 -77.2 131.05 L-75.75 131.45 -75.65 131.45 Q-69.25 137.55 -62.25 142.6 -43.35 156.1 -20.1 161.5 L-9.25 163.05 -9.25 163.4" fill="#e58508" fill-rule="evenodd" stroke="none"/>
    <path d="M43.9 27.25 L43.9 27.05 44.15 27.05 44.15 27.25 43.9 27.25 M-119.75 32.2 L-119.8 31.8 -118.6 33.25 -119.75 32.2" fill="#2e47aa" fill-rule="evenodd" stroke="none"/>
    <path d="M65.6 196.3 L65.4 195.55 67.35 195.3 65.55 195.9 65.6 196.3 M54.7 198.75 L54.9 198.7 54.7 198.9 54.7 198.75" fill="#e58508" fill-rule="evenodd" stroke="none"/>
    <path d="M71.8 -12.8 L72.05 -13.75 Q67.25 12.2 66.5 18.1 65.7 24.2 62.8 29.55 L63.75 32.2 Q61.25 39.95 52.0 62.2 42.75 84.35 27.25 81.8 11.7 79.2 2.55 53.25 -6.65 27.25 -5.1 12.3 L-2.75 8.7 -2.7 8.95 -1.65 11.7 -1.1 12.9 Q0.25 15.8 2.05 18.45 L4.0 21.05 Q8.45 26.6 14.9 29.35 28.35 35.0 42.45 31.1 44.7 30.45 46.7 29.3 50.75 26.8 54.05 23.6 L57.9 19.15 60.75 14.8 Q68.2 1.8 71.8 -12.8 M130.5 45.7 Q133.9 50.05 138.05 53.1 139.25 53.15 139.9 54.35 L141.4 55.3 146.1 49.7 146.5 51.2 Q146.5 51.9 144.85 54.1 L143.05 56.15 145.1 57.1 Q143.0 59.2 140.75 59.9 L140.4 64.8 Q140.4 69.45 147.55 87.15 154.25 103.75 156.4 106.6 158.25 104.3 159.7 100.6 L160.15 99.45 Q159.65 104.65 159.95 110.05 L159.95 110.15 160.0 110.9 159.85 113.1 Q159.0 120.05 156.9 126.8 155.25 128.75 151.6 125.45 147.4 114.1 142.05 97.15 L134.25 72.45 Q131.7 64.7 127.45 60.5 L125.7 66.45 Q120.05 83.5 109.4 98.25 L102.7 107.65 Q98.5 113.75 93.05 118.3 L95.9 115.9 Q102.7 127.6 106.35 136.5 L107.4 139.15 107.4 139.2 108.05 141.05 108.25 141.7 106.0 142.0 Q92.25 144.0 89.6 148.3 L85.0 156.05 Q82.0 160.7 79.1 163.2 70.35 170.9 62.7 175.15 52.45 180.8 36.1 185.4 35.55 189.85 43.25 193.0 50.9 196.1 73.85 193.25 88.0 188.65 95.4 184.6 97.25 183.6 103.05 178.8 96.45 187.6 84.1 193.2 73.85 197.85 59.7 200.3 L55.65 200.95 55.25 201.0 45.1 201.75 Q27.55 201.85 16.75 193.0 12.5 190.55 9.75 163.75 L0.0 163.95 -9.25 163.4 Q-10.0 178.55 -14.1 186.75 -16.05 190.55 -19.35 193.3 -34.3 205.9 -55.3 202.85 -75.65 200.25 -93.05 189.6 -104.25 182.8 -108.4 172.1 -109.75 168.55 -110.35 164.65 L-106.55 167.55 Q-102.4 170.85 -94.65 177.4 -79.4 188.95 -49.8 193.5 L-37.9 193.5 Q-38.5 192.3 -38.5 189.3 L-38.25 185.85 Q-37.55 183.9 -34.3 181.8 -44.8 176.2 -74.2 152.9 -97.35 134.6 -103.45 127.2 L-100.0 120.4 -97.3 115.8 -97.2 115.8 Q-104.1 109.4 -109.45 101.7 -118.75 88.3 -121.55 72.5 -123.15 63.4 -122.75 54.4 -122.55 49.2 -121.65 44.05 L-121.3 42.0 -121.05 40.05 -120.9 38.85 Q-120.8 38.0 -121.5 29.7 -130.0 18.9 -135.5 10.2 -131.85 11.95 -117.0 25.3 L-114.6 27.5 Q-113.85 27.5 -111.7 30.15 L-112.65 29.3 -91.2 48.7 -90.0 48.5 Q-89.65 40.2 -89.4 28.45 -87.85 32.9 -86.0 39.7 -83.35 49.55 -81.3 59.6 -81.3 61.15 -80.9 62.5 -79.35 78.45 -108.7 44.9 -110.4 56.15 -110.4 64.7 -110.4 79.0 -103.45 89.55 -96.25 100.55 -79.8 110.45 L-80.0 112.2 Q-78.15 112.35 -73.7 117.6 -67.4 125.1 -61.5 129.55 -38.35 146.9 7.0 146.9 34.9 146.9 62.7 129.25 79.55 118.5 88.8 107.6 L88.9 107.65 88.9 107.2 Q99.2 100.95 103.1 94.9 105.45 91.2 108.4 84.05 L113.0 72.3 Q120.75 53.35 120.9 27.5 L121.5 27.5 121.95 32.3 122.3 32.3 Q127.4 41.8 130.5 45.7 M65.6 196.3 L65.55 195.9 67.35 195.3 65.4 195.55 65.6 196.3 M54.7 198.75 L54.7 198.9 54.9 198.7 54.7 198.75 M-88.65 -8.05 Q-82.15 -11.95 -77.3 -12.9 -76.5 -13.7 -76.5 -11.7 -76.5 -10.75 -81.3 -4.2 -86.5 2.9 -88.8 2.9 -93.1 2.9 -94.8 -3.1 -94.8 -4.4 -88.65 -8.05 M-119.8 31.8 L-121.5 29.7 Q-120.95 31.0 -119.75 32.2 L-118.6 33.25 -119.8 31.8" fill="#000000" fill-opacity="0.49803922" fill-rule="evenodd" stroke="none"/>
  </g>
</svg>
