<?xml version="1.0" encoding="UTF-8" standalone="no"?>
<svg xmlns:ffdec="https://www.free-decompiler.com/flash" xmlns:xlink="http://www.w3.org/1999/xlink" ffdec:objectType="shape" height="281.0px" width="350.45px" xmlns="http://www.w3.org/2000/svg">
  <g transform="matrix(1.0, 0.0, 0.0, 1.0, 180.9, 80.0)">
    <path d="M0.25 -50.5 L-1.75 -50.0 1.9 -53.2 7.5 -57.9 7.7 -57.7 2.2 -52.8 0.25 -50.5" fill="#243773" fill-rule="evenodd" stroke="none"/>
    <path d="M7.7 -57.7 Q16.2 -64.6 26.5 -68.75 L27.75 -68.5 Q36.6 -76.75 48.25 -80.0 L49.75 -78.25 Q52.75 -72.0 52.75 -68.0 L51.75 -61.0 Q50.25 -49.5 35.25 -49.25 25.5 -34.75 8.5 -38.25 L2.5 -43.0 0.25 -50.5 2.2 -52.8 7.7 -57.7 M77.5 3.5 Q82.1 10.6 87.35 17.3 98.75 31.95 105.75 48.75 L105.0 68.75 104.5 79.75 104.0 80.25 Q103.25 88.65 99.6 96.4 L85.25 126.25 61.75 147.5 47.5 154.0 30.0 161.5 19.6 163.35 12.1 164.3 11.65 164.35 4.0 164.75 3.55 164.75 1.6 164.7 2.25 162.95 Q6.0 152.75 8.85 142.2 L9.2 140.9 Q11.8 131.15 12.6 124.7 L12.9 121.9 13.0 119.25 Q13.0 114.1 11.45 109.6 11.25 106.45 10.6 103.55 L9.7 100.55 Q8.8 98.15 7.55 96.0 3.3 88.75 -5.5 84.0 L-7.8 82.85 -6.3 78.5 Q5.35 43.75 10.0 3.75 L12.4 5.85 Q48.3 35.9 77.5 3.5 M44.25 -54.25 Q53.75 -60.5 48.25 -65.0 35.25 -59.0 44.25 -54.25 M25.0 -43.5 Q34.0 -47.5 29.75 -53.5 14.0 -50.0 25.0 -43.5" fill="#ffffff" fill-rule="evenodd" stroke="none"/>
    <path d="M44.25 -54.25 Q35.25 -59.0 48.25 -65.0 53.75 -60.5 44.25 -54.25 M25.0 -43.5 Q14.0 -50.0 29.75 -53.5 34.0 -47.5 25.0 -43.5" fill="#000000" fill-rule="evenodd" stroke="none"/>
    <path d="M51.75 -61.0 Q76.4 -44.15 79.05 -14.7 79.9 -5.3 77.5 3.5 48.3 35.9 12.4 5.85 L10.0 3.75 Q-11.75 -13.6 6.75 -35.85 L8.5 -38.25 Q25.5 -34.75 35.25 -49.25 50.25 -49.5 51.75 -61.0 M105.0 68.75 Q117.75 77.55 126.7 90.3 135.1 102.25 132.35 116.15 126.9 143.75 101.4 158.4 70.05 176.45 47.5 154.0 L61.75 147.5 85.25 126.25 99.6 96.4 Q103.25 88.65 104.0 80.25 L104.5 79.75 105.0 68.75 M1.6 164.7 Q0.0 168.85 -2.45 173.95 L-3.0 174.6 Q-5.4 177.6 -9.4 184.55 -13.4 191.45 -22.95 196.6 -32.55 201.7 -36.25 200.7 -38.5 202.25 -49.7 195.1 -60.9 187.9 -65.25 180.85 -69.65 173.8 -74.7 164.65 L-78.6 156.95 Q-83.5 146.75 -86.85 135.65 L-88.5 129.8 Q-91.5 118.1 -91.5 109.0 L-91.2 104.3 -91.05 103.3 Q-90.05 96.7 -86.55 91.75 -80.5 83.05 -66.85 79.35 -58.95 77.15 -48.55 76.65 L-42.95 76.5 -42.0 76.5 -41.35 76.5 Q-21.05 76.6 -7.8 82.85 L-5.5 84.0 Q3.3 88.75 7.55 96.0 8.8 98.15 9.7 100.55 L10.6 103.55 Q11.25 106.45 11.45 109.6 13.0 114.1 13.0 119.25 L12.9 121.9 12.6 124.7 Q11.8 131.15 9.2 140.9 L8.85 142.2 Q6.0 152.75 2.25 162.95 L1.6 164.7" fill="#e58508" fill-rule="evenodd" stroke="none"/>
    <path d="M-174.75 89.5 Q-177.3 119.05 -179.35 148.8 -183.95 119.8 -174.75 89.5 M-72.4 145.05 L-72.45 144.8 -72.6 144.85 -72.4 145.05 M-131.75 102.0 L-131.75 103.75 -136.0 111.25 -136.5 111.0 -131.75 102.0 M-136.05 105.7 L-137.0 109.0 -140.25 114.75 -140.0 115.25 -139.9 115.2 -139.15 114.6 -138.35 114.1 -137.55 113.8 -136.75 113.7 -133.45 109.7 Q-149.95 139.8 -176.75 161.25 L-178.65 152.9 Q-174.4 147.7 -169.3 144.0 -148.05 128.2 -136.05 105.7 M-113.25 78.75 L-113.75 78.5 -112.25 77.5 -113.25 78.75 M-149.5 49.5 L-149.75 50.5 -150.25 50.25 -149.5 49.5 M87.0 55.25 L86.25 67.25 Q83.25 87.25 63.0 89.0 39.0 90.75 -1.0 -8.0 57.55 45.4 77.95 -3.0 77.0 9.25 85.75 40.75 L87.0 55.25 M143.25 -33.75 L142.75 -33.0 142.5 -34.5 143.25 -33.75 M117.5 -29.75 L104.0 -35.75 Q116.5 15.65 105.0 68.75 L112.0 74.5 108.25 82.0 108.7 83.3 Q111.95 98.1 108.5 112.75 L92.5 143.25 80.5 158.5 Q92.95 155.7 104.55 150.1 125.5 140.25 133.5 118.5 L134.0 120.25 Q126.55 142.2 106.8 155.45 73.6 177.6 47.5 154.0 L43.95 155.8 Q23.65 166.0 1.95 164.65 L1.65 165.35 Q-9.3 194.75 -27.6 199.2 -31.95 200.95 -36.85 200.95 -53.65 200.95 -68.25 176.15 L-70.85 171.5 -75.05 163.85 -77.9 158.05 -78.6 156.95 Q-91.05 153.75 -103.5 144.0 -111.65 134.8 -118.3 124.3 -126.45 111.3 -125.75 96.0 L-126.5 95.25 -127.75 100.0 -129.25 98.0 -131.9 97.8 Q-135.3 96.3 -138.25 94.0 -102.35 78.55 -77.0 47.5 L-76.5 47.75 Q-95.45 76.25 -108.25 108.0 L-103.85 111.95 -94.9 119.95 -90.75 123.65 Q-91.05 120.85 -90.25 114.85 -89.45 108.85 -73.5 102.7 -57.6 96.55 -33.05 98.85 -8.5 101.1 1.0 108.8 10.5 116.5 10.35 123.9 10.15 131.25 8.35 140.8 L6.5 149.4 9.15 149.1 14.6 148.4 16.55 148.1 Q81.4 137.7 103.5 73.0 L104.0 41.0 Q103.25 37.4 101.3 34.35 99.45 31.4 96.75 29.25 L98.55 24.8 Q112.15 -7.25 100.75 -38.25 L94.25 -48.25 95.0 -48.5 Q117.1 -34.0 142.25 -31.75 L142.55 -29.85 Q142.55 -28.0 141.65 -26.6 139.45 -23.5 136.25 -21.5 L136.75 -20.75 136.0 -15.25 136.9 -14.85 Q154.75 -1.9 164.5 18.25 L160.5 -3.0 Q165.3 11.35 169.15 26.05 170.55 31.5 167.25 35.3 L166.75 35.15 Q157.2 28.3 150.5 18.25 L131.0 -7.75 117.5 -29.75" fill="#000000" fill-opacity="0.49803922" fill-rule="evenodd" stroke="none"/>
  </g>
</svg>
