<?xml version="1.0" encoding="UTF-8" standalone="no"?>
<svg xmlns:ffdec="https://www.free-decompiler.com/flash" xmlns:xlink="http://www.w3.org/1999/xlink" ffdec:objectType="shape" height="169.05px" width="193.6px" xmlns="http://www.w3.org/2000/svg">
  <g transform="matrix(1.0, 0.0, 0.0, 1.0, 93.6, 82.8)">
    <path d="M-3.6 -65.2 L4.4 -58.8 13.0 -50.8 23.8 -38.6 Q29.4 -39.8 44.2 -34.2 L69.4 -23.0 70.4 -38.8 74.4 -71.6 74.6 -72.2 76.6 -82.0 78.2 -82.8 80.0 -82.6 83.2 -76.6 83.4 -76.0 89.8 -61.6 93.2 -50.6 93.6 -49.8 93.6 -49.6 96.8 -39.6 100.0 -18.6 98.6 -7.2 98.6 -7.0 98.4 -6.4 98.2 -6.2 94.4 -0.8 Q91.4 1.0 89.0 1.0 88.0 5.6 86.2 7.0 L78.0 8.4 63.8 5.0 63.4 4.8 50.8 1.2 Q84.8 67.0 -2.2 86.2 -74.4 88.4 -73.0 15.0 L-77.8 19.4 -79.6 21.4 -80.8 26.2 -81.0 26.8 -83.6 38.2 -89.2 50.4 -90.2 51.0 -91.6 51.4 -92.4 50.6 Q-93.4 49.8 -93.6 45.6 L-93.6 27.6 -93.4 27.2 -93.2 21.6 -91.2 14.6 -87.0 5.0 -86.8 4.8 -82.6 -3.0 -73.2 -17.4 -65.8 -26.4 -63.8 -27.8 -57.6 -42.4 -49.6 -57.6 Q-44.4 -70.6 -29.8 -76.6 L-27.4 -76.6 -22.8 -75.8 -18.0 -74.2 -16.4 -73.4 -3.6 -65.2" fill="#2e47aa" fill-rule="evenodd" stroke="none"/>
    <path d="M-3.6 -65.2 L-16.4 -73.4 -18.0 -74.2 -22.8 -75.8 -27.4 -76.6 -24.6 -78.2 -22.0 -78.8 Q-14.0 -79.6 -6.8 -71.2 L-3.8 -66.8 -3.6 -65.2" fill="#e58508" fill-rule="evenodd" stroke="none"/>
  </g>
</svg>
