<?xml version="1.0" encoding="UTF-8" standalone="no"?>
<svg xmlns:ffdec="https://www.free-decompiler.com/flash" xmlns:xlink="http://www.w3.org/1999/xlink" ffdec:objectType="shape" height="169.05px" width="196.0px" xmlns="http://www.w3.org/2000/svg">
  <g transform="matrix(1.0, 0.0, 0.0, 1.0, 93.6, 82.8)">
    <path d="M-2.4 -65.2 L6.4 -58.0 18.0 -46.2 18.0 -46.0 25.0 -38.0 33.4 -36.8 47.4 -31.6 71.4 -19.2 72.6 -37.2 76.8 -72.6 77.4 -75.4 77.6 -77.6 78.8 -82.2 81.2 -82.8 82.6 -82.6 91.2 -62.6 98.0 -40.4 98.4 -39.6 98.4 -39.4 99.2 -36.6 102.4 -14.8 101.4 -3.0 101.4 -1.8 101.2 -1.0 100.8 -0.4 100.2 0.2 100.2 0.4 99.6 1.0 99.4 1.4 99.2 1.6 99.0 2.0 98.6 2.4 98.6 2.6 98.2 3.0 98.2 3.2 97.8 3.8 96.6 5.2 91.0 6.4 88.8 11.8 88.0 12.6 87.0 12.6 86.6 12.8 85.2 12.8 84.4 13.0 83.6 13.0 82.0 13.2 80.0 13.2 64.2 8.6 63.8 8.4 52.4 4.4 Q85.2 65.0 -2.0 86.2 -74.8 88.0 -72.6 14.4 L-79.2 20.6 -80.8 26.8 -81.0 27.2 -83.4 37.4 -89.6 50.0 -90.6 50.8 -91.8 50.6 -92.4 49.8 -93.6 44.0 -93.0 21.8 -90.8 13.8 -86.8 4.8 -86.6 4.6 -83.0 -2.6 -74.2 -15.6 -64.6 -27.4 -63.2 -28.2 -62.8 -28.6 -54.4 -47.6 -48.6 -58.0 -48.2 -58.4 Q-40.6 -73.6 -28.4 -77.0 L-25.8 -77.0 -16.8 -74.4 -12.2 -72.0 -2.4 -65.2" fill="#2e47aa" fill-rule="evenodd" stroke="none"/>
    <path d="M-25.8 -77.0 L-23.4 -78.4 -20.8 -79.0 -14.6 -78.0 Q-10.4 -76.6 -6.4 -72.2 L-3.8 -68.6 -3.2 -67.4 -2.4 -65.2 -12.2 -72.0 -16.8 -74.4 -25.8 -77.0" fill="#e58508" fill-rule="evenodd" stroke="none"/>
  </g>
</svg>
