<?xml version="1.0" encoding="UTF-8" standalone="no"?>
<svg xmlns:ffdec="https://www.free-decompiler.com/flash" xmlns:xlink="http://www.w3.org/1999/xlink" ffdec:objectType="shape" height="166.4px" width="197.6px" xmlns="http://www.w3.org/2000/svg">
  <g transform="matrix(1.0, 0.0, 0.0, 1.0, 93.4, 80.2)">
    <path d="M-1.2 -65.2 L8.0 -57.6 19.8 -45.2 20.2 -44.6 26.8 -37.4 37.0 -34.8 51.8 -28.2 71.0 -16.8 71.4 -16.6 71.6 -16.4 73.2 -15.4 74.4 -29.6 80.2 -72.2 80.6 -72.6 80.8 -73.2 82.0 -79.4 82.4 -80.0 85.6 -80.2 88.6 -74.0 94.8 -57.6 101.2 -34.6 104.2 -11.0 103.0 4.0 Q99.6 12.6 92.0 10.8 L90.0 15.6 88.4 17.4 80.6 17.6 80.0 17.4 79.6 17.4 66.6 12.6 65.8 12.4 65.0 12.0 63.2 11.4 61.6 10.6 61.0 10.4 60.6 10.2 54.2 7.6 Q83.6 65.4 -2.4 86.2 -75.2 87.0 -72.0 13.8 L-78.0 19.0 -78.8 20.0 -81.2 27.8 -83.4 37.2 -85.0 40.0 -88.0 46.8 -90.4 50.0 -91.4 50.0 -92.2 49.2 Q-93.2 48.8 -93.4 44.2 L-93.0 26.0 -92.8 25.4 -92.6 20.4 -90.4 13.2 -89.2 10.4 -89.2 10.2 -89.0 9.6 -86.4 4.2 -86.2 4.0 -85.8 3.4 -81.4 -4.4 -71.2 -19.4 -62.2 -29.0 -52.0 -50.6 -47.4 -58.4 Q-39.6 -73.4 -27.0 -77.2 L-24.6 -77.2 -20.2 -76.2 -15.2 -74.4 -11.0 -72.0 -1.2 -65.2" fill="#2e47aa" fill-rule="evenodd" stroke="none"/>
    <path d="M-24.6 -77.2 L-19.4 -79.2 Q-12.0 -80.8 -3.0 -69.2 L-2.6 -68.6 -1.8 -67.0 -1.2 -65.2 -11.0 -72.0 -15.2 -74.4 -20.2 -76.2 -24.6 -77.2" fill="#e58508" fill-rule="evenodd" stroke="none"/>
  </g>
</svg>
