<?xml version="1.0" encoding="UTF-8" standalone="no"?>
<svg xmlns:ffdec="https://www.free-decompiler.com/flash" xmlns:xlink="http://www.w3.org/1999/xlink" ffdec:objectType="shape" height="165.5px" width="198.4px" xmlns="http://www.w3.org/2000/svg">
  <g transform="matrix(1.0, 0.0, 0.0, 1.0, 93.4, 79.4)">
    <path d="M0.0 -65.2 L8.2 -58.4 19.6 -46.4 20.0 -45.8 21.2 -44.6 21.2 -44.4 28.0 -36.8 38.2 -33.8 53.4 -26.2 72.6 -13.6 73.0 -13.4 73.2 -13.2 74.6 -12.2 76.8 -28.6 84.6 -69.0 84.6 -70.0 86.6 -75.4 Q90.0 -77.5 91.25 -72.75 L91.4 -72.2 91.4 -72.0 92.4 -69.4 Q108.6 -27.6 104.0 5.0 L103.8 5.4 103.6 6.8 Q104.2 8.0 99.2 14.0 L92.6 14.4 88.2 21.4 79.8 21.0 78.6 20.6 67.8 16.0 66.6 15.6 55.4 10.4 Q82.6 65.4 -1.4 86.0 -75.2 87.4 -71.6 13.2 L-78.4 19.2 -79.6 22.8 -79.8 24.0 -83.2 36.4 -88.0 46.2 -89.4 48.4 -90.0 48.8 -90.2 48.8 -91.0 49.2 -92.2 48.4 Q-93.4 47.8 -93.4 42.2 L-92.2 19.4 -90.0 12.6 -86.2 4.0 -85.8 3.4 -85.6 3.2 -85.4 2.8 -85.0 2.2 -84.4 1.0 -84.0 0.4 -81.8 -4.0 -71.2 -19.0 -64.6 -26.6 -61.4 -29.4 -54.0 -45.0 -46.2 -58.6 Q-39.4 -72.8 -25.6 -77.4 L-23.4 -77.4 -19.0 -76.4 -14.0 -74.6 -11.6 -73.2 -11.4 -73.2 -9.6 -72.2 0.0 -65.2" fill="#2e47aa" fill-rule="evenodd" stroke="none"/>
    <path d="M0.0 -65.2 L-9.6 -72.2 -11.4 -73.2 -11.6 -73.2 -14.0 -74.6 -19.0 -76.4 -23.4 -77.4 -18.2 -79.4 Q-10.4 -79.8 -3.6 -71.6 L-1.6 -69.0 -0.8 -67.4 0.0 -65.2" fill="#e58508" fill-rule="evenodd" stroke="none"/>
  </g>
</svg>
