<?xml version="1.0" encoding="UTF-8" standalone="no"?>
<svg xmlns:ffdec="https://www.free-decompiler.com/flash" xmlns:xlink="http://www.w3.org/1999/xlink" ffdec:objectType="shape" height="165.4px" width="199.05px" xmlns="http://www.w3.org/2000/svg">
  <g transform="matrix(1.0, 0.0, 0.0, 1.0, 93.2, 79.4)">
    <path d="M-22.0 -77.6 L-19.4 -79.0 -17.0 -79.4 Q-8.8 -79.8 -2.4 -71.6 L-0.6 -69.2 -0.2 -68.4 0.8 -67.0 1.0 -65.4 -9.6 -73.0 -9.8 -73.0 -13.0 -74.8 -17.8 -76.6 -22.0 -77.6" fill="#e58508" fill-rule="evenodd" stroke="none"/>
    <path d="M1.0 -65.4 L9.4 -58.2 20.6 -46.2 20.8 -45.8 21.8 -44.8 22.2 -44.2 29.2 -36.2 39.2 -32.8 54.2 -24.6 75.6 -9.6 79.6 -26.4 91.2 -65.8 Q91.2 -69.2 95.8 -68.6 L98.2 -61.4 98.8 -60.2 98.8 -59.8 Q109.6 -23.8 103.8 6.4 L103.8 7.2 103.0 11.2 102.8 11.4 98.0 17.6 91.6 17.8 86.2 24.6 77.2 23.4 76.6 23.2 76.4 23.2 56.8 13.4 Q75.8 77.4 -9.2 86.0 -72.6 85.6 -71.4 12.8 L-78.2 18.8 -80.0 25.2 -80.2 25.6 -82.8 35.2 -88.0 45.6 -89.8 47.8 -90.4 48.4 -91.4 48.4 -92.2 47.6 -93.2 42.6 -92.4 24.4 -92.2 24.0 -92.0 19.6 -89.4 11.2 -85.4 2.8 -85.2 2.6 -84.8 2.0 -84.8 1.8 -84.4 1.0 -83.8 0.2 -81.4 -4.4 -69.6 -20.8 -63.2 -27.8 -60.6 -29.6 -60.2 -30.2 -52.2 -47.0 -45.2 -59.0 Q-36.8 -74.2 -24.4 -77.6 L-22.0 -77.6 -17.8 -76.6 -13.0 -74.8 -9.8 -73.0 -9.6 -73.0 1.0 -65.4" fill="#2e47aa" fill-rule="evenodd" stroke="none"/>
  </g>
</svg>
