<?xml version="1.0" encoding="UTF-8" standalone="no"?>
<svg xmlns:ffdec="https://www.free-decompiler.com/flash" xmlns:xlink="http://www.w3.org/1999/xlink" ffdec:objectType="shape" height="165.65px" width="201.2px" xmlns="http://www.w3.org/2000/svg">
  <g transform="matrix(1.0, 0.0, 0.0, 1.0, 93.0, 79.65)">
    <path d="M-20.8 -77.8 L-15.8 -79.6 Q-7.6 -80.4 0.4 -69.4 L2.0 -66.8 2.0 -65.6 -8.6 -73.2 -9.0 -73.4 -9.2 -73.4 -11.6 -74.8 -20.8 -77.8" fill="#e58508" fill-rule="evenodd" stroke="none"/>
    <path d="M2.0 -65.6 L11.0 -57.6 21.4 -46.2 21.6 -45.8 22.4 -45.0 29.8 -36.2 39.4 -33.4 55.0 -25.4 77.2 -10.6 81.4 -27.6 88.2 -51.6 93.4 -67.4 93.6 -67.8 94.2 -70.2 Q95.6 -76.6 99.4 -74.2 L101.4 -68.2 101.6 -68.0 101.6 -67.4 105.2 -51.8 108.2 -29.6 108.0 -1.8 104.8 11.6 99.6 16.6 93.2 16.4 89.8 21.8 88.4 22.8 80.4 22.2 79.8 22.0 79.4 22.0 79.2 21.8 67.4 16.6 66.8 16.2 66.0 16.0 56.2 11.2 Q82.0 67.4 -2.0 86.0 -76.8 84.8 -71.0 12.2 L-76.8 17.0 -77.8 18.0 -79.8 24.8 -80.0 25.2 -82.8 35.0 -87.6 44.2 -88.0 44.8 -88.4 45.6 -89.8 47.2 -90.0 47.2 -91.4 47.6 -92.2 46.8 -93.0 43.4 -93.0 35.2 -91.6 18.4 -89.2 11.0 -85.0 2.2 -84.8 2.0 -84.0 0.8 -84.0 0.6 -83.6 -0.2 -83.2 -0.6 -81.0 -4.8 -69.6 -20.4 -62.0 -28.8 -59.6 -30.6 -50.2 -49.4 -44.0 -59.4 Q-35.0 -75.0 -23.0 -77.8 L-20.8 -77.8 -11.6 -74.8 -9.2 -73.4 -9.0 -73.4 -8.6 -73.2 2.0 -65.6" fill="#2e47aa" fill-rule="evenodd" stroke="none"/>
  </g>
</svg>
