<?xml version="1.0" encoding="UTF-8" standalone="no"?>
<svg xmlns:ffdec="https://www.free-decompiler.com/flash" xmlns:xlink="http://www.w3.org/1999/xlink" ffdec:objectType="shape" height="165.7px" width="204.65px" xmlns="http://www.w3.org/2000/svg">
  <g transform="matrix(1.0, 0.0, 0.0, 1.0, 93.05, 79.7)">
    <path d="M-20.0 -77.8 L-17.2 -79.2 -14.8 -79.6 Q-6.6 -80.8 1.4 -69.6 L1.6 -69.2 2.0 -68.6 3.2 -65.4 -6.0 -72.4 -8.4 -73.8 -8.6 -73.8 -9.4 -74.8 -10.2 -74.8 -18.0 -77.8 -20.0 -77.8" fill="#e58508" fill-rule="evenodd" stroke="none"/>
    <path d="M3.2 -65.4 L12.4 -57.2 22.4 -45.8 22.8 -45.2 24.0 -44.0 24.0 -43.8 30.4 -36.4 39.0 -34.2 55.0 -26.6 78.8 -11.4 84.2 -29.2 99.2 -70.8 102.2 -76.8 Q106.8 -77.75 106.8 -73.05 L106.8 -72.75 106.8 -72.6 109.6 -55.0 111.6 -27.6 110.0 -7.8 109.8 -7.4 109.8 -7.0 109.2 -2.0 106.6 5.2 106.6 5.4 106.2 7.0 106.0 7.2 105.4 8.8 105.6 8.8 105.4 9.0 105.2 9.6 105.2 9.8 99.2 15.0 93.8 14.6 90.4 20.2 82.4 20.2 81.0 19.8 55.6 9.0 Q83.0 68.8 -2.6 86.0 -75.0 85.8 -70.6 11.6 L-75.6 15.6 -76.2 16.2 -77.2 17.0 -77.4 17.4 -79.6 24.0 -79.6 24.4 -82.8 34.2 -87.6 43.8 -89.6 46.2 -90.0 46.8 -91.4 46.8 -92.0 46.0 Q-93.2 45.2 -93.0 40.2 L-91.8 22.8 -91.6 22.2 -91.6 21.8 -91.2 17.4 -88.6 9.8 -84.6 1.6 -84.2 1.0 -84.0 0.8 -80.2 -6.0 -68.0 -22.2 -60.6 -30.0 -58.8 -30.8 -51.0 -46.6 -43.2 -59.6 -42.8 -60.0 Q-32.6 -76.6 -21.8 -78.0 L-20.0 -77.8 -18.0 -77.8 -10.2 -74.8 -8.6 -73.8 -8.4 -73.8 -6.0 -72.4 3.2 -65.4" fill="#2e47aa" fill-rule="evenodd" stroke="none"/>
  </g>
</svg>
