<?xml version="1.0" encoding="UTF-8" standalone="no"?>
<svg xmlns:ffdec="https://www.free-decompiler.com/flash" xmlns:xlink="http://www.w3.org/1999/xlink" ffdec:objectType="shape" height="165.8px" width="208.7px" xmlns="http://www.w3.org/2000/svg">
  <g transform="matrix(1.0, 0.0, 0.0, 1.0, 92.9, 79.8)">
    <path d="M-18.8 -78.0 L-13.4 -79.8 Q-3.8 -80.0 2.6 -69.4 L2.8 -69.0 4.2 -65.4 -6.8 -73.6 -7.0 -73.6 -9.2 -75.0 -16.8 -78.0 -18.8 -78.0" fill="#e58508" fill-rule="evenodd" stroke="none"/>
    <path d="M4.2 -65.4 L14.2 -56.2 23.0 -46.0 23.4 -45.4 24.0 -44.8 30.8 -36.6 38.8 -35.0 51.8 -29.4 66.4 -21.2 80.4 -12.4 87.6 -29.6 105.2 -66.4 111.2 -76.2 Q115.0 -76.4 114.6 -73.6 L115.4 -66.8 115.8 -49.8 114.2 -25.4 110.8 -8.4 110.6 -8.0 110.6 -7.8 109.2 -3.2 104.2 7.2 Q104.0 8.2 98.0 12.2 L93.6 12.2 91.4 16.4 90.8 17.0 89.0 17.0 87.8 17.2 86.2 17.2 83.2 17.6 82.6 17.2 80.8 17.0 67.0 11.8 66.6 11.6 66.0 11.4 65.6 11.2 55.2 7.0 Q83.8 70.2 -3.0 86.0 -77.0 83.4 -70.2 11.0 L-76.0 15.6 -77.2 16.8 -82.2 33.0 -87.6 43.2 -89.4 45.4 -90.4 46.2 -92.0 45.2 Q-93.2 44.4 -92.8 37.2 L-91.0 17.4 -86.8 6.0 -79.4 -7.0 -69.2 -20.4 -64.2 -26.0 -58.2 -31.2 -57.8 -31.8 -49.0 -49.0 -42.0 -60.0 Q-33.0 -75.4 -20.8 -78.2 L-18.8 -78.0 -16.8 -78.0 -9.2 -75.0 -7.0 -73.6 -6.8 -73.6 4.2 -65.4" fill="#2e47aa" fill-rule="evenodd" stroke="none"/>
  </g>
</svg>
