<?xml version="1.0" encoding="UTF-8" standalone="no"?>
<svg xmlns:ffdec="https://www.free-decompiler.com/flash" xmlns:xlink="http://www.w3.org/1999/xlink" ffdec:objectType="shape" height="166.0px" width="217.1px" xmlns="http://www.w3.org/2000/svg">
  <g transform="matrix(1.0, 0.0, 0.0, 1.0, 92.7, 80.0)">
    <path d="M5.2 -65.6 L15.6 -55.4 23.6 -46.2 24.6 -44.8 25.4 -44.0 25.8 -43.4 31.2 -36.8 Q49.6 -34.8 81.4 -13.8 L82.4 -15.2 82.8 -16.0 90.8 -29.2 108.0 -55.4 108.2 -55.6 108.4 -56.2 108.8 -56.6 116.6 -67.0 116.6 -67.2 121.2 -72.8 124.0 -71.8 124.4 -68.8 124.2 -68.4 124.0 -64.2 Q112.8 8.6 92.6 8.6 91.6 12.0 89.8 13.0 L82.8 13.8 81.0 13.8 67.4 9.4 67.0 9.2 54.8 4.8 Q83.8 72.4 -3.4 86.0 -75.4 84.4 -69.8 10.4 L-74.6 14.2 -75.2 14.6 -75.8 15.2 -76.6 15.8 -77.0 16.2 -77.2 17.2 -82.6 33.4 -87.6 42.6 -89.0 44.6 -89.4 44.8 -89.6 44.8 -90.8 45.4 -91.8 44.4 Q-93.0 43.8 -92.6 38.8 L-91.2 21.4 -91.0 20.8 -91.0 20.4 -90.6 16.2 -88.0 8.8 -83.6 0.2 -83.4 0.0 -83.0 -0.6 -83.0 -0.8 -82.4 -1.8 -82.0 -2.2 -79.4 -6.8 -67.2 -22.6 -57.2 -31.8 -50.4 -45.2 -41.2 -60.2 -40.8 -60.6 Q-30.2 -77.0 -19.6 -78.4 L-17.4 -78.2 -13.2 -77.2 -8.0 -75.0 -6.4 -74.0 -6.2 -73.8 -5.4 -73.4 5.2 -65.6" fill="#2e47aa" fill-rule="evenodd" stroke="none"/>
    <path d="M-17.4 -78.2 L-12.2 -80.0 -6.0 -78.6 Q-1.2 -76.8 2.0 -72.0 L3.8 -69.2 4.2 -68.4 5.2 -66.8 5.2 -65.6 -5.4 -73.4 -6.2 -73.8 -6.4 -74.0 -6.6 -74.6 -8.0 -75.0 -13.2 -77.2 -17.4 -78.2" fill="#e58508" fill-rule="evenodd" stroke="none"/>
  </g>
</svg>
