<?xml version="1.0" encoding="UTF-8" standalone="no"?>
<svg xmlns:ffdec="https://www.free-decompiler.com/flash" xmlns:xlink="http://www.w3.org/1999/xlink" ffdec:objectType="shape" height="108.2px" width="193.95px" xmlns="http://www.w3.org/2000/svg">
  <g transform="matrix(1.0, 0.0, 0.0, 1.0, 93.95, 21.6)">
    <path d="M100.0 -18.6 L99.0 -8.4 98.0 -5.4 97.6 -5.6 98.6 -10.4 99.4 -21.6 100.0 -18.6 M97.6 -5.2 L94.6 -1.0 90.0 1.0 89.0 1.0 88.2 -0.2 93.2 -1.8 Q96.2 -6.0 97.6 -5.2 M51.0 1.4 Q66.4 34.2 55.4 53.8 L49.0 63.0 42.2 69.2 Q27.2 80.2 -1.6 86.2 -70.6 92.0 -72.6 15.0 L-79.4 21.2 -83.4 37.4 -87.0 46.8 -89.4 50.8 -91.8 51.4 Q-95.55 48.25 -92.7 20.7 -93.95 37.15 -86.0 36.0 -86.8 34.6 -83.0 32.0 L-81.4 26.4 Q-81.4 25.0 -86.6 23.0 L-87.8 21.2 Q-83.0 23.0 -65.2 4.2 -75.8 27.6 -54.4 61.0 -40.2 84.4 7.4 78.0 50.2 64.0 58.4 36.4 62.6 20.8 27.4 -7.8 75.8 11.2 87.4 5.2 87.2 8.0 77.6 8.4 L51.0 1.4" fill="#000000" fill-opacity="0.49803922" fill-rule="evenodd" stroke="none"/>
  </g>
</svg>
