<?xml version="1.0" encoding="UTF-8" standalone="no"?>
<svg xmlns:ffdec="https://www.free-decompiler.com/flash" xmlns:xlink="http://www.w3.org/1999/xlink" ffdec:objectType="shape" height="102.15px" width="195.8px" xmlns="http://www.w3.org/2000/svg">
  <g transform="matrix(1.0, 0.0, 0.0, 1.0, 93.4, 15.6)">
    <path d="M100.4 -1.8 Q100.6 -9.4 101.6 -10.0 L101.2 -12.2 101.4 -13.4 102.0 -13.6 102.0 -15.6 102.4 -12.0 101.6 -3.0 100.8 -0.2 100.4 -1.8 M91.15 6.25 Q93.05 6.6 100.0 0.8 L97.0 5.0 91.8 6.4 91.15 6.25 M42.0 69.6 Q24.2 81.6 -1.8 86.2 -70.6 91.6 -72.4 14.4 L-79.0 20.4 -83.4 37.4 -88.2 48.4 -90.0 50.6 -91.8 50.6 -93.0 48.6 -93.4 45.8 -93.4 29.6 -93.0 21.6 -92.2 19.2 Q-94.2 36.6 -85.8 35.2 -86.4 34.0 -82.6 30.8 L-81.2 25.2 -82.6 24.0 -84.2 23.8 -87.8 20.8 Q-83.0 22.6 -64.4 3.6 L-69.8 14.2 -69.4 16.6 -69.8 17.6 -69.2 18.6 -67.6 30.6 -64.2 45.0 -59.6 53.4 -54.2 61.0 Q-35.8 85.0 6.4 78.2 50.4 64.2 58.2 37.4 60.0 25.4 25.6 -7.8 80.2 17.0 89.0 11.2 83.8 17.8 52.6 4.4 68.8 40.8 49.6 62.6 L42.0 69.6" fill="#000000" fill-opacity="0.49803922" fill-rule="evenodd" stroke="none"/>
  </g>
</svg>
