<?xml version="1.0" encoding="UTF-8" standalone="no"?>
<svg xmlns:ffdec="https://www.free-decompiler.com/flash" xmlns:xlink="http://www.w3.org/1999/xlink" ffdec:objectType="shape" height="94.25px" width="196.6px" xmlns="http://www.w3.org/2000/svg">
  <g transform="matrix(1.0, 0.0, 0.0, 1.0, 93.4, 8.0)">
    <path d="M97.2 10.4 Q96.4 8.8 102.2 4.4 L102.4 0.8 Q105.4 3.6 97.2 10.4 M41.6 70.2 Q24.2 81.8 -2.0 86.2 -74.8 87.8 -71.8 13.8 L-78.8 20.2 -82.2 33.2 -87.0 45.6 -89.8 49.6 -91.8 49.8 -93.0 47.8 -93.4 44.2 -93.4 33.6 -92.35 21.0 Q-93.15 35.75 -86.0 34.6 -86.0 33.2 -82.8 30.8 L-80.8 25.0 -81.0 24.2 Q-83.6 23.8 -87.0 20.0 -82.4 21.6 -64.0 3.0 -70.2 12.4 -69.4 18.4 -66.0 49.0 -55.4 59.4 -40.0 84.2 6.6 78.2 51.0 62.6 57.6 40.4 59.0 31.2 24.4 -8.0 65.4 15.6 89.4 16.4 84.0 22.2 54.0 7.4 69.0 38.6 48.8 64.0 L41.6 70.2" fill="#000000" fill-opacity="0.49803922" fill-rule="evenodd" stroke="none"/>
  </g>
</svg>
