<?xml version="1.0" encoding="UTF-8" standalone="no"?>
<svg xmlns:ffdec="https://www.free-decompiler.com/flash" xmlns:xlink="http://www.w3.org/1999/xlink" ffdec:objectType="shape" height="94.85px" width="196.4px" xmlns="http://www.w3.org/2000/svg">
  <g transform="matrix(1.0, 0.0, 0.0, 1.0, 93.4, 8.8)">
    <path d="M102.4 8.2 L103.0 9.0 99.2 14.0 98.2 13.6 Q101.6 7.8 102.8 8.0 L102.4 8.2 M55.4 10.4 Q68.0 46.0 48.4 64.8 L41.6 70.6 Q24.6 81.6 -1.4 86.0 -75.2 87.4 -71.6 13.2 L-78.2 19.0 -82.0 32.6 -86.2 43.4 -88.6 47.8 -90.2 49.2 -91.8 49.0 Q-94.85 45.95 -92.05 20.6 -93.2 35.3 -85.2 33.6 -81.2 28.6 -80.6 24.2 -80.6 22.8 -86.2 20.2 L-86.4 19.2 Q-81.8 20.8 -63.2 2.4 L-69.2 13.6 -69.0 18.8 Q-66.4 47.2 -55.2 59.4 L-42.0 71.0 -32.4 76.4 Q-20.8 80.8 -7.8 80.2 L8.2 77.8 Q50.2 62.0 56.8 43.6 L53.6 35.4 49.4 28.4 23.2 -8.8 Q61.8 16.6 88.4 20.8 87.6 22.0 80.2 21.4 L55.4 10.4" fill="#000000" fill-opacity="0.49803922" fill-rule="evenodd" stroke="none"/>
  </g>
</svg>
