<?xml version="1.0" encoding="UTF-8" standalone="no"?>
<svg xmlns:ffdec="https://www.free-decompiler.com/flash" xmlns:xlink="http://www.w3.org/1999/xlink" ffdec:objectType="shape" height="95.2px" width="193.6px" xmlns="http://www.w3.org/2000/svg">
  <g transform="matrix(1.0, 0.0, 0.0, 1.0, 93.0, 9.2)">
    <path d="M22.2 -9.2 L36.8 1.6 56.2 12.6 78.2 23.2 86.6 23.8 Q91.0 18.2 89.0 16.8 89.8 15.8 97.0 17.2 L100.6 14.4 Q99.8 19.0 91.6 17.8 L86.4 24.6 77.6 23.8 56.8 13.4 Q67.4 50.6 47.4 66.0 L41.2 71.2 33.4 75.6 23.2 79.8 10.2 83.8 -1.6 86.0 Q-75.2 86.8 -71.2 12.8 L-78.0 18.6 -82.6 34.6 -86.2 43.0 -88.4 46.8 Q-89.6 48.8 -91.8 48.2 L-93.0 45.4 -93.0 32.4 Q-92.25 27.65 -91.8 22.95 -91.9 31.5 -87.2 34.0 -73.8 22.4 -86.2 18.6 -83.1 18.05 -80.2 16.8 -78.8 14.6 -74.2 12.2 L-62.8 1.8 Q-76.2 25.8 -54.4 59.8 -39.4 83.6 6.6 78.2 33.4 72.4 55.2 47.2 L52.0 39.0 45.2 26.8 21.8 -9.0 22.2 -9.2" fill="#000000" fill-opacity="0.49803922" fill-rule="evenodd" stroke="none"/>
  </g>
</svg>
