<?xml version="1.0" encoding="UTF-8" standalone="no"?>
<svg xmlns:ffdec="https://www.free-decompiler.com/flash" xmlns:xlink="http://www.w3.org/1999/xlink" ffdec:objectType="shape" height="94.4px" width="198.2px" xmlns="http://www.w3.org/2000/svg">
  <g transform="matrix(1.0, 0.0, 0.0, 1.0, 93.0, 8.4)">
    <path d="M104.8 11.4 L100.0 16.6 98.4 16.6 Q105.6 10.8 104.4 8.6 105.8 9.0 104.8 11.4 M56.2 11.2 Q71.0 51.4 41.0 71.6 23.2 82.4 -1.8 86.0 -75.4 86.4 -70.6 12.2 L-77.4 17.6 -81.8 32.0 -86.0 41.8 -88.4 46.2 -90.0 47.6 -91.4 47.6 Q-94.7 39.25 -91.2 18.25 L-91.15 18.25 Q-92.85 30.55 -86.8 33.2 -85.6 33.4 -82.2 28.8 L-79.8 23.2 -80.0 22.2 Q-82.8 21.8 -85.8 18.0 -81.2 19.4 -62.0 1.2 -70.0 10.8 -68.4 20.2 L-64.4 41.8 -60.0 51.4 -54.8 59.0 Q-39.4 83.8 7.2 78.0 51.0 62.6 57.0 44.0 L54.6 37.0 50.0 28.6 24.4 -8.4 Q63.0 18.2 89.4 22.0 88.6 23.4 80.8 22.6 L56.2 11.2" fill="#000000" fill-opacity="0.49803922" fill-rule="evenodd" stroke="none"/>
  </g>
</svg>
