<?xml version="1.0" encoding="UTF-8" standalone="no"?>
<svg xmlns:ffdec="https://www.free-decompiler.com/flash" xmlns:xlink="http://www.w3.org/1999/xlink" ffdec:objectType="shape" height="93.6px" width="202.8px" xmlns="http://www.w3.org/2000/svg">
  <g transform="matrix(1.0, 0.0, 0.0, 1.0, 93.0, 7.6)">
    <path d="M96.6 14.8 Q101.4 13.4 104.4 10.4 L109.8 -7.6 Q106.6 14.2 99.4 15.0 L96.6 14.8 M48.4 20.6 L36.2 4.2 27.0 -7.0 Q68.0 18.2 91.2 19.2 85.6 24.8 55.8 9.0 69.8 39.4 48.4 65.8 L41.2 71.6 Q22.8 82.8 -2.2 86.0 -75.4 85.8 -70.4 11.6 L-77.2 17.2 -82.4 33.8 -87.8 44.6 -89.6 46.6 -91.8 46.6 Q-94.4 44.0 -91.4 21.6 -92.2 34.6 -85.0 31.4 -74.0 20.8 -85.35 17.25 -81.3 18.4 -64.75 3.7 -75.2 16.75 -55.0 58.6 -39.0 83.4 6.6 78.2 50.6 64.8 58.6 40.0 L55.0 31.6 48.4 20.6" fill="#000000" fill-opacity="0.49803922" fill-rule="evenodd" stroke="none"/>
  </g>
</svg>
