<?xml version="1.0" encoding="UTF-8" standalone="no"?>
<svg xmlns:ffdec="https://www.free-decompiler.com/flash" xmlns:xlink="http://www.w3.org/1999/xlink" ffdec:objectType="shape" height="104.4px" width="205.8px" xmlns="http://www.w3.org/2000/svg">
  <g transform="matrix(1.0, 0.0, 0.0, 1.0, 93.2, 18.4)">
    <path d="M109.4 -4.0 L112.6 -18.4 111.2 -9.8 110.0 -5.0 108.2 -1.0 107.8 -1.2 109.4 -4.0 M93.6 12.2 L94.0 11.0 Q100.6 10.5 102.25 6.8 101.9 8.4 103.55 8.05 97.9 13.15 96.4 12.4 L93.6 12.2 M107.6 0.0 L104.4 7.2 103.65 7.9 107.6 0.0 M9.0 84.2 L-2.6 86.0 Q-74.6 86.2 -69.8 11.0 -74.75 10.5 -79.4 21.1 L-79.4 21.0 -85.6 16.8 Q-81.05 18.4 -61.7 0.9 -76.45 14.9 -56.4 56.6 -39.4 83.6 5.4 78.4 49.0 67.2 59.6 37.6 58.4 24.4 29.8 -6.0 77.2 19.0 91.8 15.6 86.2 22.0 55.4 7.0 70.2 36.6 49.8 64.6 L40.6 72.4 33.0 76.4 22.6 80.4 9.0 84.2 M-81.75 27.15 Q-83.6 32.55 -85.4 39.8 L-89.4 45.8 Q-95.8 43.6 -91.4 20.8 -91.8 33.8 -84.8 30.8 -82.95 28.85 -81.75 27.15" fill="#000000" fill-opacity="0.49803922" fill-rule="evenodd" stroke="none"/>
  </g>
</svg>
