<?xml version="1.0" encoding="UTF-8" standalone="no"?>
<svg xmlns:ffdec="https://www.free-decompiler.com/flash" xmlns:xlink="http://www.w3.org/1999/xlink" ffdec:objectType="shape" height="300.8px" width="328.4px" xmlns="http://www.w3.org/2000/svg">
  <g transform="matrix(1.0, 0.0, 0.0, 1.0, 158.65, 79.15)">
    <path d="M-7.0 -46.75 Q9.25 -31.0 6.0 -18.5 L6.0 -18.25 Q6.75 -17.0 2.5 -10.5 0.5 -7.0 -2.25 -4.0 -28.4 34.3 -65.2 11.2 -70.2 8.05 -73.0 2.75 -80.7 -26.85 -61.7 -52.75 -59.15 -56.25 -55.5 -59.0 -51.0 -48.75 -35.5 -51.75 -17.75 -39.0 -7.0 -46.75 M-120.0 71.0 L-115.0 67.75 -113.5 70.75 -113.75 71.5 -112.75 72.0 Q-107.4 81.45 -101.0 90.25 L-89.75 120.25 -69.25 142.5 -60.5 147.25 Q-63.9 149.3 -67.1 151.65 -79.75 160.6 -94.5 160.75 -108.6 159.6 -118.05 148.45 -151.25 109.4 -120.5 71.0 L-120.0 71.0 M-1.0 163.5 L28.25 159.5 46.5 149.75 Q67.9 147.9 86.8 138.35 92.75 135.35 98.5 132.0 107.0 170.75 98.5 195.25 89.75 228.0 29.0 216.5 6.25 213.0 -4.75 191.25 -7.75 185.5 -1.0 163.5" fill="#e58508" fill-rule="evenodd" stroke="none"/>
    <path d="M-44.5 -55.0 Q-52.5 -53.25 -51.75 -64.75 -37.5 -63.75 -44.5 -55.0 M-30.5 -57.0 Q-23.75 -60.0 -22.25 -58.0 -16.25 -54.75 -22.5 -48.75 -26.75 -48.25 -29.0 -50.25 L-30.25 -54.0 -30.5 -57.0" fill="#000000" fill-rule="evenodd" stroke="none"/>
    <path d="M-55.5 -59.0 Q-59.4 -67.35 -57.0 -76.0 L-57.0 -76.5 -55.25 -79.0 Q-44.35 -80.1 -35.25 -74.25 -19.3 -72.05 -5.05 -64.4 -2.15 -62.75 -0.5 -60.0 L-1.75 -53.75 Q-4.75 -47.75 -7.0 -46.75 -17.75 -39.0 -35.5 -51.75 -51.0 -48.75 -55.5 -59.0 M-30.5 -57.0 L-30.25 -54.0 -29.0 -50.25 Q-26.75 -48.25 -22.5 -48.75 -16.25 -54.75 -22.25 -58.0 -23.75 -60.0 -30.5 -57.0 M-44.5 -55.0 Q-37.5 -63.75 -51.75 -64.75 -52.5 -53.25 -44.5 -55.0" fill="#ffffff" fill-rule="evenodd" stroke="none"/>
    <path d="M-137.65 -27.25 Q-123.65 -28.85 -111.25 -35.5 -124.15 -2.15 -108.35 33.4 -102.5 46.5 -96.0 59.25 -104.7 87.6 -81.05 112.5 -68.4 125.85 -51.65 133.75 -14.9 151.15 25.3 138.7 41.2 133.7 56.45 127.35 L57.1 126.15 57.55 125.35 57.85 124.5 58.0 123.65 58.0 122.85 57.85 121.9 Q85.5 117.25 106.0 98.0 90.05 57.95 69.75 20.0 95.2 50.5 122.75 79.25 L125.0 78.5 131.55 84.1 131.5 85.0 128.5 85.0 Q121.35 106.35 106.35 124.15 102.9 128.3 98.75 131.5 L101.75 151.75 101.0 151.0 Q81.75 158.95 61.5 164.25 L59.25 168.25 Q26.7 176.75 -3.8 189.9 -7.55 181.35 -4.55 171.5 -3.25 167.3 -1.0 163.5 -33.35 166.6 -59.5 147.25 -103.2 179.3 -127.9 129.85 -131.15 123.3 -132.75 116.0 -122.3 154.55 -86.55 155.95 L-84.75 155.5 Q-102.9 114.35 -126.25 75.75 L-114.75 67.75 Q-129.9 22.15 -118.5 -24.75 L-128.0 -21.0 Q-136.4 4.8 -153.75 25.5 -162.7 5.65 -155.25 -16.75 -155.55 -13.55 -154.2 -10.5 -153.2 -8.15 -151.2 -6.3 -149.1 -6.7 -147.25 -8.05 -144.95 -9.75 -143.6 -12.2 L-142.75 -14.0 Q-144.85 -16.55 -146.25 -19.65 -147.6 -22.7 -147.85 -26.0 L-148.0 -27.75 -138.5 -28.0 -137.65 -27.25 M-145.25 -6.5 L-142.5 -9.75 -143.0 -11.5 -145.25 -7.75 -145.25 -6.5 M162.5 170.25 L164.0 171.75 164.75 171.0 164.5 170.0 166.0 170.75 Q166.55 168.95 167.7 167.75 168.45 166.85 169.5 167.5 L169.0 174.0 Q164.4 177.9 161.35 172.35 150.85 153.2 141.75 133.25 L128.75 101.0 129.5 101.25 162.5 170.25 M164.5 102.5 L168.0 134.25 169.75 166.5 160.75 84.5 164.5 102.5 M-75.1 -4.3 L-74.95 -8.35 Q-73.65 -1.95 -70.2 3.75 -64.3 13.4 -53.45 15.6 -12.85 24.05 6.0 -18.25 -4.3 21.5 -21.2 58.65 -34.6 88.0 -62.75 82.25 -69.15 80.9 -71.5 75.5 -88.05 38.1 -75.1 -4.3 M86.95 206.25 Q95.6 200.05 99.35 190.9 88.0 226.45 44.5 220.9 16.6 217.2 0.2 196.55 -1.95 193.85 -3.35 190.95 16.0 217.1 52.05 217.35 71.3 217.5 86.95 206.25" fill="#000000" fill-opacity="0.49803922" fill-rule="evenodd" stroke="none"/>
  </g>
</svg>
