<?xml version="1.0" encoding="UTF-8" standalone="no"?>
<svg xmlns:ffdec="https://www.free-decompiler.com/flash" xmlns:xlink="http://www.w3.org/1999/xlink" ffdec:objectType="shape" height="132.8px" width="213.6px" xmlns="http://www.w3.org/2000/svg">
  <g transform="matrix(1.0, 0.0, 0.0, 1.0, 92.6, 46.8)">
    <path d="M121.0 -46.8 Q112.6 1.8 94.4 8.6 L92.6 8.6 93.2 6.8 97.8 4.4 98.2 4.6 97.6 5.8 98.8 5.6 108.2 -7.2 108.0 -7.8 111.0 -13.6 112.0 -17.0 113.8 -19.6 116.6 -27.2 121.0 -46.8 M91.6 10.8 Q91.4 14.2 81.4 13.8 L55.0 5.0 Q68.2 39.6 54.8 59.0 L47.8 67.0 Q41.2 77.8 -3.0 86.0 -76.2 84.0 -69.6 10.4 L-76.6 16.0 -81.4 30.6 -87.4 42.8 -88.8 44.6 -91.0 45.4 Q-94.45 42.35 -90.55 17.6 -92.0 29.0 -86.2 31.0 -79.0 25.4 -79.0 20.6 L-84.8 16.0 -79.4 14.8 Q-79.8 13.8 -76.2 11.8 L-73.0 10.4 -73.2 10.0 -60.8 -0.2 Q-76.4 15.6 -56.8 55.8 -38.0 84.0 5.6 78.4 50.4 66.0 59.0 40.0 64.8 23.0 32.8 -5.4 83.2 18.0 91.6 10.8" fill="#000000" fill-opacity="0.49803922" fill-rule="evenodd" stroke="none"/>
  </g>
</svg>
