<?xml version="1.0" encoding="UTF-8" standalone="no"?>
<svg xmlns:ffdec="https://www.free-decompiler.com/flash" xmlns:xlink="http://www.w3.org/1999/xlink" ffdec:objectType="shape" height="161.3px" width="150.9px" xmlns="http://www.w3.org/2000/svg">
  <g transform="matrix(1.0, 0.0, 0.0, 1.0, 85.65, 51.3)">
    <path d="M40.35 -27.55 Q45.5 -21.75 50.3 -15.45 53.45 -11.3 56.05 -6.75 58.25 -2.95 60.1 1.15 66.3 14.9 65.05 29.9 L64.0 36.3 Q62.95 41.0 60.5 45.25 61.0 51.55 60.45 57.75 58.5 78.8 55.45 99.7 L55.25 100.45 Q54.75 101.35 54.45 102.55 54.15 103.9 52.9 104.4 51.95 104.35 51.6 103.45 L51.0 101.2 49.55 91.25 Q48.65 83.8 48.6 76.5 L48.45 74.75 Q48.3 73.9 48.6 72.6 48.0 69.85 48.15 66.6 L48.15 60.75 48.1 59.85 45.75 62.0 45.25 62.1 Q39.8 68.95 32.85 73.45 19.65 82.1 4.1 85.7 -2.6 87.2 -9.75 86.6 L-13.6 85.75 Q-16.95 84.75 -20.15 83.25 L-20.45 83.05 -38.55 68.9 -39.0 68.35 Q-43.2 66.85 -46.7 64.3 -51.0 61.1 -54.85 57.4 -58.25 54.05 -60.8 49.85 -62.95 46.35 -63.75 42.35 L-69.25 49.0 -53.65 74.5 -37.75 103.75 Q-37.05 105.2 -36.7 106.4 L-36.2 108.2 -36.15 109.4 -36.3 109.75 -36.45 110.0 Q-38.05 110.05 -39.3 108.95 L-41.1 107.2 -49.15 98.4 -72.65 69.35 -78.65 61.2 -81.25 56.75 Q-84.65 55.35 -84.9 51.45 L-85.0 49.25 Q-85.15 47.05 -85.6 44.75 -85.8 43.55 -84.8 42.7 -83.55 41.7 -81.9 41.25 L-73.75 26.75 -59.75 5.5 Q-58.05 -0.65 -54.2 -5.85 -46.55 -16.0 -37.2 -24.8 L-26.45 -34.85 Q-17.0 -43.5 -5.6 -49.1 2.0 -52.75 10.0 -50.4 15.75 -49.0 20.55 -45.55 31.45 -37.55 40.35 -27.55" fill="#2e47aa" fill-rule="evenodd" stroke="none"/>
  </g>
</svg>
