<?xml version="1.0" encoding="UTF-8" standalone="no"?>
<svg xmlns:ffdec="https://www.free-decompiler.com/flash" xmlns:xlink="http://www.w3.org/1999/xlink" ffdec:objectType="shape" height="160.2px" width="147.05px" xmlns="http://www.w3.org/2000/svg">
  <g transform="matrix(1.0, 0.0, 0.0, 1.0, 80.7, 39.6)">
    <path d="M24.65 -32.85 Q37.75 -25.1 48.5 -14.2 59.35 -3.15 64.1 11.4 69.05 26.55 63.1 41.25 60.2 48.4 55.3 54.45 52.05 58.55 48.0 62.0 L47.75 63.0 46.9 65.9 45.7 68.55 43.05 74.65 41.75 76.85 20.75 108.1 13.75 117.0 11.45 119.7 Q10.35 120.9 8.6 120.5 L8.2 120.1 Q8.15 117.45 9.15 115.1 14.9 101.1 21.25 87.35 4.4 88.3 -12.1 86.45 -20.15 85.65 -27.05 80.85 -33.05 76.65 -38.6 71.8 -40.6 70.1 -43.0 69.0 L-44.65 68.0 -46.5 67.0 -47.05 66.4 -56.2 58.55 Q-58.7 56.4 -59.75 53.5 L-59.9 53.45 -64.5 59.5 Q-47.85 85.75 -33.55 113.2 -32.55 115.1 -32.1 117.25 -32.0 117.8 -32.05 118.4 L-32.25 119.0 -32.5 119.15 -32.95 119.2 -33.45 119.0 -34.8 118.3 -35.65 117.8 -36.55 117.05 -38.0 116.0 -38.25 115.75 -59.4 90.75 -75.9 67.6 -76.6 67.3 -77.35 66.9 -78.55 65.5 -79.5 63.5 -80.25 60.85 -80.2 60.75 -80.05 60.0 -80.0 58.85 -80.4 57.05 Q-81.15 55.1 -80.1 53.15 -79.25 51.6 -77.4 51.1 -71.4 38.3 -64.9 26.0 -63.55 23.4 -62.7 20.45 -60.2 11.75 -55.35 3.9 L-51.8 -1.15 Q-45.7 -9.15 -38.0 -15.5 -26.15 -25.35 -12.95 -33.05 -3.95 -38.25 6.3 -39.55 11.2 -39.9 15.75 -37.65 L24.65 -32.85" fill="#2e47aa" fill-rule="evenodd" stroke="none"/>
  </g>
</svg>
