<?xml version="1.0" encoding="UTF-8" standalone="no"?>
<svg xmlns:ffdec="https://www.free-decompiler.com/flash" xmlns:xlink="http://www.w3.org/1999/xlink" ffdec:objectType="shape" height="157.15px" width="141.65px" xmlns="http://www.w3.org/2000/svg">
  <g transform="matrix(1.0, 0.0, 0.0, 1.0, 74.5, 28.65)">
    <path d="M-36.75 -8.5 L-3.25 -25.9 Q1.1 -28.75 15.85 -28.65 51.35 -16.25 62.85 8.5 75.75 34.5 50.1 61.85 L49.5 62.25 48.85 64.5 48.6 65.0 47.6 66.5 47.25 67.25 46.85 67.6 46.35 68.35 46.25 68.6 46.0 68.85 42.5 74.25 41.85 75.1 41.5 75.85 41.0 76.5 39.6 77.85 37.25 79.6 36.25 81.5 34.0 82.5 28.5 88.5 -4.4 111.85 -20.15 122.0 -20.25 122.1 -20.9 122.5 -25.5 124.75 -27.0 124.0 Q-25.0 132.1 -31.5 125.6 L-32.0 125.25 -41.0 115.25 -63.25 87.85 -63.4 87.6 -63.75 87.25 -64.15 86.75 -64.25 86.5 -64.5 86.25 -67.25 82.75 -69.4 78.35 Q-74.5 76.35 -73.65 69.1 L-73.65 68.75 -74.0 67.35 Q-75.65 63.6 -71.75 61.25 L-66.4 48.6 -64.15 44.5 -64.15 43.85 Q-69.4 28.85 -48.65 1.85 L-36.75 -8.5 M-58.65 70.0 Q-50.55 82.75 -42.6 95.65 -38.1 103.0 -33.95 110.6 L-27.65 122.6 -24.45 118.8 -23.6 117.9 2.0 92.85 -17.65 89.1 -17.9 89.0 -19.0 88.5 Q-21.7 87.4 -23.85 85.65 -30.55 80.4 -36.65 74.5 L-39.25 73.5 -42.7 71.75 -45.25 70.25 -45.9 69.75 -46.15 69.6 -47.5 68.85 -47.65 68.75 -47.75 68.75 -48.0 68.35 -48.25 68.25 -49.15 67.75 -50.95 66.3 -54.0 63.35 -58.65 70.0" fill="#2e47aa" fill-rule="evenodd" stroke="none"/>
  </g>
</svg>
