<?xml version="1.0" encoding="UTF-8" standalone="no"?>
<svg xmlns:ffdec="https://www.free-decompiler.com/flash" xmlns:xlink="http://www.w3.org/1999/xlink" ffdec:objectType="shape" height="174.6px" width="140.8px" xmlns="http://www.w3.org/2000/svg">
  <g transform="matrix(1.0, 0.0, 0.0, 1.0, 74.75, 46.35)">
    <path d="M25.6 -40.8 L31.35 -36.55 Q38.3 -30.9 43.95 -24.2 53.2 -13.3 60.85 -1.25 63.45 4.4 64.85 10.2 66.6 17.6 65.75 25.1 64.45 37.0 57.75 46.95 55.9 49.65 53.7 52.0 48.65 57.6 45.75 64.5 L45.4 64.85 44.4 66.4 40.95 71.5 Q39.65 73.2 37.95 74.4 29.4 80.15 20.6 85.5 L-9.9 108.0 -21.4 115.4 Q-24.45 117.2 -27.65 118.85 L-29.0 117.75 -27.05 121.8 -26.45 123.3 -25.75 125.5 -25.45 127.05 -25.55 127.6 -25.85 128.25 -26.55 128.15 Q-28.25 127.75 -29.45 126.7 L-32.05 124.0 -50.6 100.15 -66.75 78.15 -73.4 68.55 Q-74.85 66.5 -74.4 64.1 L-74.4 63.15 Q-74.95 60.45 -74.65 57.85 L-74.0 56.85 -72.75 56.25 Q-68.65 44.7 -66.15 32.8 -63.1 18.45 -56.3 5.55 -52.7 -1.35 -47.5 -7.1 -41.75 -13.35 -35.55 -18.95 -25.3 -28.25 -14.05 -36.45 -6.35 -41.95 2.5 -45.2 5.6 -46.25 8.9 -46.35 18.05 -45.9 25.6 -40.8 M-48.55 65.85 L-56.65 58.75 -59.0 62.85 -42.9 90.85 -29.4 116.85 Q-17.05 102.0 -2.65 88.6 -5.85 88.4 -8.8 87.5 -16.15 85.65 -22.5 81.85 -29.25 77.85 -35.25 72.6 L-39.05 71.15 Q-42.35 69.65 -45.5 68.0 L-46.65 67.35 -48.55 65.85" fill="#2e47aa" fill-rule="evenodd" stroke="none"/>
  </g>
</svg>
