<?xml version="1.0" encoding="UTF-8" standalone="no"?>
<svg xmlns:ffdec="https://www.free-decompiler.com/flash" xmlns:xlink="http://www.w3.org/1999/xlink" ffdec:objectType="shape" height="188.35px" width="139.95px" xmlns="http://www.w3.org/2000/svg">
  <g transform="matrix(1.0, 0.0, 0.0, 1.0, 75.0, 63.0)">
    <path d="M20.6 -57.55 Q32.0 -49.4 40.2 -38.2 48.45 -27.0 55.35 -14.65 L58.8 -8.45 Q62.6 -2.0 64.15 5.35 65.6 12.4 64.5 19.75 62.3 34.2 53.95 46.35 51.15 50.35 48.5 54.4 L44.4 60.95 42.15 64.65 Q40.95 66.8 39.25 68.4 33.4 74.0 26.3 77.55 18.15 81.55 9.2 83.75 L5.65 84.15 -18.5 100.3 -30.2 107.15 -24.15 120.7 Q-23.25 122.7 -23.5 124.75 L-23.8 125.35 Q-25.45 125.35 -26.7 124.2 L-29.5 121.35 -39.4 109.3 -40.0 108.5 -54.5 89.15 -55.2 88.8 -67.6 69.75 Q-71.3 64.05 -74.35 58.0 L-74.3 57.3 -74.25 56.65 -74.25 56.0 -74.3 55.8 -74.65 53.5 -74.75 53.0 -74.8 52.8 -75.0 51.8 -73.5 50.65 -66.25 31.0 -65.15 27.65 -63.0 18.95 Q-59.7 4.6 -52.85 -8.55 -50.25 -13.55 -46.65 -17.8 L-43.45 -21.6 -36.4 -30.25 Q-26.25 -43.0 -13.25 -52.95 -3.5 -60.4 8.3 -63.0 15.0 -61.6 20.6 -57.55 M-58.1 54.8 L-58.85 54.15 -59.2 54.5 -47.85 74.5 -32.2 103.8 -26.7 97.65 -26.2 97.65 -11.0 83.0 Q-22.35 77.0 -33.9 71.4 L-39.25 68.95 Q-41.3 68.15 -43.2 67.15 -44.65 66.45 -46.0 66.15 -47.55 64.8 -49.55 63.6 L-49.75 63.4 -55.35 58.8 Q-56.25 56.45 -58.1 54.8" fill="#2e47aa" fill-rule="evenodd" stroke="none"/>
  </g>
</svg>
