<?xml version="1.0" encoding="UTF-8" standalone="no"?>
<svg xmlns:ffdec="https://www.free-decompiler.com/flash" xmlns:xlink="http://www.w3.org/1999/xlink" ffdec:objectType="shape" height="192.85px" width="134.55px" xmlns="http://www.w3.org/2000/svg">
  <g transform="matrix(1.0, 0.0, 0.0, 1.0, 71.7, 78.15)">
    <path d="M-21.9 75.7 L-28.75 71.0 -23.15 79.7 -19.75 76.4 -21.9 75.7 M14.05 -74.0 Q21.3 -69.3 27.0 -62.75 36.5 -51.8 44.05 -39.3 51.75 -26.55 58.25 -13.0 59.6 -9.7 60.5 -6.2 62.75 2.25 62.85 11.1 62.95 20.4 60.2 29.3 58.95 33.25 56.9 36.8 54.75 40.5 52.2 43.9 47.6 50.0 44.15 56.75 L43.1 58.6 Q41.75 60.7 40.9 63.0 40.55 63.95 39.85 64.4 26.6 72.05 12.45 76.9 3.7 79.85 -6.0 79.65 L-10.0 79.25 -20.3 84.1 -6.6 106.25 -6.6 106.7 Q-6.45 106.75 -6.35 106.9 L-6.0 107.4 -5.9 107.7 -5.0 109.4 -4.9 109.55 -3.8 112.1 -3.75 112.4 -3.8 112.65 -6.6 114.7 -13.2 109.85 -26.3 99.2 -42.35 84.7 -53.45 73.55 -53.85 72.8 -60.0 66.1 -60.7 65.2 Q-65.7 57.55 -70.3 49.65 -71.65 47.3 -71.7 44.5 -71.75 43.25 -71.35 42.1 -70.8 40.6 -69.6 39.85 L-69.5 39.7 -69.05 38.25 Q-67.3 32.45 -65.9 26.65 -65.35 24.25 -65.1 21.8 -63.75 9.95 -59.55 -1.2 -56.95 -8.05 -53.5 -14.7 -46.95 -27.1 -39.25 -38.85 -30.85 -51.6 -20.2 -62.65 -9.65 -73.55 4.7 -78.15 9.7 -76.9 14.05 -74.0" fill="#2e47aa" fill-rule="evenodd" stroke="none"/>
  </g>
</svg>
