<?xml version="1.0" encoding="UTF-8" standalone="no"?>
<svg xmlns:ffdec="https://www.free-decompiler.com/flash" xmlns:xlink="http://www.w3.org/1999/xlink" ffdec:objectType="shape" height="165.95px" width="134.5px" xmlns="http://www.w3.org/2000/svg">
  <g transform="matrix(1.0, 0.0, 0.0, 1.0, 66.55, 91.7)">
    <path d="M11.85 -85.3 Q22.55 -76.45 30.7 -65.0 L38.1 -53.9 Q42.85 -52.45 46.0 -48.4 L49.35 -43.8 53.1 -38.0 Q57.55 -30.55 61.1 -22.35 64.45 -14.65 67.3 -6.85 L67.4 -5.75 Q68.15 -2.15 67.85 1.7 67.65 4.2 66.05 6.5 63.75 9.8 60.85 12.55 61.5 17.55 60.35 22.5 59.25 27.1 57.25 31.25 53.5 39.1 48.0 45.65 44.85 49.5 42.55 53.85 40.75 57.3 38.35 60.4 L37.25 61.55 Q33.4 64.75 29.15 67.35 21.7 71.85 13.45 73.15 -0.55 75.35 -14.6 73.15 -24.95 71.35 -35.0 67.7 L-42.0 65.25 -42.75 64.85 Q-43.95 64.15 -45.15 64.0 -46.5 62.8 -48.3 61.7 -58.15 55.85 -62.9 45.2 -66.25 37.75 -66.5 29.55 -66.7 24.0 -65.95 18.55 L-64.9 10.75 Q-63.0 -2.2 -57.8 -14.3 -52.1 -27.45 -45.05 -39.7 -37.25 -53.1 -28.6 -65.9 L-23.6 -72.9 -19.55 -77.85 Q-14.1 -84.25 -7.3 -89.15 -4.35 -91.3 -0.9 -91.7 L1.1 -91.45 Q7.0 -89.3 11.85 -85.3" fill="#2e47aa" fill-rule="evenodd" stroke="none"/>
  </g>
</svg>
