<?xml version="1.0" encoding="UTF-8" standalone="no"?>
<svg xmlns:ffdec="https://www.free-decompiler.com/flash" xmlns:xlink="http://www.w3.org/1999/xlink" ffdec:objectType="shape" height="173.65px" width="146.1px" xmlns="http://www.w3.org/2000/svg">
  <g transform="matrix(1.0, 0.0, 0.0, 1.0, 66.6, 103.1)">
    <path d="M69.6 -56.25 Q73.7 -54.5 76.4 -50.95 80.9 -45.0 78.85 -37.8 L77.8 -34.8 Q75.8 -29.7 72.35 -25.5 70.45 -23.25 67.6 -22.4 L64.7 -22.45 61.55 -21.6 61.4 -21.6 54.1 -21.0 Q58.25 -6.25 58.75 8.95 58.95 15.45 57.9 22.1 55.95 34.3 47.4 43.15 46.15 44.4 45.2 45.8 43.25 48.75 41.7 52.0 L41.85 52.4 Q38.75 55.55 35.45 58.15 31.4 61.45 26.8 63.5 13.95 69.25 0.25 70.2 -9.55 71.25 -19.65 69.1 L-28.5 67.55 Q-35.4 66.05 -42.1 63.95 L-43.6 63.4 -46.7 61.8 Q-47.45 61.35 -48.5 60.95 L-51.75 59.35 Q-56.6 56.3 -59.6 51.25 -61.35 48.3 -62.55 45.25 -67.05 33.85 -66.55 21.7 -65.6 -1.0 -57.4 -22.2 -55.65 -26.7 -54.35 -31.25 -52.85 -36.45 -51.7 -41.75 L-51.4 -42.95 Q-49.25 -51.25 -42.0 -55.9 -36.95 -67.35 -30.45 -77.8 -22.9 -89.9 -11.95 -99.0 -9.45 -101.05 -6.6 -102.4 -3.35 -103.95 -0.15 -102.1 6.25 -98.4 11.3 -92.8 23.35 -79.6 33.0 -64.75 L34.1 -65.0 Q39.2 -66.75 44.4 -65.6 54.0 -63.6 62.95 -59.25 L69.6 -56.25" fill="#2e47aa" fill-rule="evenodd" stroke="none"/>
  </g>
</svg>
