<?xml version="1.0" encoding="UTF-8" standalone="no"?>
<svg xmlns:ffdec="https://www.free-decompiler.com/flash" xmlns:xlink="http://www.w3.org/1999/xlink" ffdec:objectType="shape" height="181.65px" width="152.65px" xmlns="http://www.w3.org/2000/svg">
  <g transform="matrix(1.0, 0.0, 0.0, 1.0, 67.2, 113.6)">
    <path d="M9.7 -99.6 L16.7 -99.7 46.85 -98.0 63.45 -95.75 69.45 -94.35 Q74.15 -93.55 77.4 -90.3 L80.95 -89.5 Q82.45 -89.0 83.4 -87.65 85.55 -84.55 85.45 -80.85 85.4 -77.45 84.45 -73.9 83.6 -70.7 81.95 -68.0 80.4 -65.35 78.0 -63.15 L72.4 -63.45 Q57.95 -55.5 42.1 -50.75 L45.6 -43.5 Q53.25 -27.4 56.05 -9.95 57.95 1.9 56.35 13.85 55.8 18.05 54.6 22.15 53.0 27.4 50.5 32.55 48.05 37.65 44.75 42.3 L40.7 47.85 37.4 51.4 32.6 55.35 Q24.4 61.2 15.25 64.75 6.9 67.95 -2.15 68.05 L-15.35 67.55 -30.1 65.7 Q-35.2 65.05 -40.25 63.25 -44.15 61.95 -47.8 60.2 -53.9 57.2 -58.4 51.8 -63.65 45.4 -65.6 37.25 -67.05 31.05 -67.15 24.75 -67.5 8.0 -64.05 -8.35 -60.65 -24.3 -54.45 -39.45 -52.55 -44.05 -51.6 -48.8 -49.1 -61.2 -47.05 -73.65 L-45.25 -83.65 -44.85 -85.85 Q-44.1 -90.75 -40.85 -94.5 L-38.45 -97.75 Q-36.95 -100.1 -34.15 -99.9 -32.0 -99.45 -30.3 -97.9 L-25.45 -98.15 Q-22.1 -103.35 -18.1 -107.9 -14.95 -111.5 -10.7 -113.25 L-6.8 -113.1 -3.0 -111.3 9.7 -99.6 M36.1 -78.15 L34.85 -79.0 25.55 -78.0 28.1 -74.15 30.9 -75.65 36.1 -78.15" fill="#2e47aa" fill-rule="evenodd" stroke="none"/>
  </g>
</svg>
