<?xml version="1.0" encoding="UTF-8" standalone="no"?>
<svg xmlns:ffdec="https://www.free-decompiler.com/flash" xmlns:xlink="http://www.w3.org/1999/xlink" ffdec:objectType="shape" height="176.4px" width="154.25px" xmlns="http://www.w3.org/2000/svg">
  <g transform="matrix(1.0, 0.0, 0.0, 1.0, 66.6, 105.15)">
    <path d="M2.25 -102.55 Q10.9 -96.1 17.65 -87.4 26.3 -76.2 34.1 -64.45 44.2 -63.75 52.9 -58.6 66.9 -50.3 79.25 -39.6 83.35 -36.95 86.0 -32.85 86.75 -31.7 87.15 -30.4 88.0 -27.65 87.45 -25.0 86.1 -18.5 81.9 -13.25 L76.35 -6.75 Q74.7 -4.9 72.7 -3.35 L71.1 -2.3 59.25 3.4 Q62.05 16.9 56.35 29.55 51.45 40.45 43.0 49.15 41.75 50.45 40.75 52.05 L39.3 54.2 38.7 54.85 Q31.45 60.35 23.9 63.75 11.25 69.35 -2.5 71.1 -8.95 71.7 -15.5 70.1 L-30.9 66.25 Q-37.6 64.3 -43.85 61.75 L-45.15 61.0 -52.9 56.55 -56.05 54.2 Q-58.4 52.2 -60.05 49.75 -61.8 47.1 -62.95 44.35 -65.2 38.9 -65.95 33.05 -67.4 21.45 -65.65 9.7 -63.35 -5.7 -58.95 -20.6 L-56.25 -29.25 Q-56.0 -30.1 -56.0 -31.1 -55.95 -32.5 -55.4 -33.8 -52.3 -41.2 -48.0 -47.95 -45.75 -51.45 -43.95 -55.15 -38.15 -67.2 -31.2 -78.6 -25.75 -87.7 -18.75 -95.4 -13.4 -101.3 -6.3 -104.7 -5.05 -105.35 -3.5 -105.1 -1.65 -104.65 0.15 -103.8 L2.25 -102.55 M56.7 -20.6 L54.4 -21.75 55.1 -19.3 56.7 -20.6" fill="#2e47aa" fill-rule="evenodd" stroke="none"/>
  </g>
</svg>
