<?xml version="1.0" encoding="UTF-8" standalone="no"?>
<svg xmlns:ffdec="https://www.free-decompiler.com/flash" xmlns:xlink="http://www.w3.org/1999/xlink" ffdec:objectType="shape" height="193.2px" width="159.0px" xmlns="http://www.w3.org/2000/svg">
  <g transform="matrix(1.0, 0.0, 0.0, 1.0, 77.3, 95.0)">
    <path d="M15.8 -84.4 Q23.55 -77.15 29.65 -68.5 L38.4 -56.1 Q42.55 -50.25 47.25 -44.75 L56.7 -31.55 Q62.25 -23.4 67.25 -14.8 L76.05 0.7 Q77.75 3.85 78.95 7.2 80.55 11.6 81.7 16.25 80.55 17.55 80.0 19.05 78.4 23.35 77.4 27.85 L66.25 54.25 55.0 78.7 47.7 92.1 45.4 91.85 44.25 91.0 45.3 83.85 45.3 83.9 45.75 82.7 46.05 81.7 47.5 75.45 47.7 75.0 47.55 74.7 47.6 74.25 48.5 70.4 48.75 69.25 54.0 50.85 65.0 17.0 61.7 13.1 62.05 15.45 62.15 17.75 Q62.15 23.9 59.9 29.6 58.45 33.4 56.25 36.9 L54.6 39.4 52.8 41.85 Q48.3 48.05 42.7 53.4 41.3 54.75 40.25 56.4 L38.45 59.3 Q37.85 60.4 36.6 61.05 23.55 68.1 10.25 74.65 8.8 75.4 7.15 75.0 -5.9 74.05 -18.5 70.95 -24.85 69.4 -30.75 66.25 L-30.85 66.25 -22.55 86.9 Q-20.7 91.5 -19.3 96.55 L-19.65 97.0 -20.0 97.35 Q-21.75 98.95 -23.8 97.5 L-26.0 95.7 -26.6 95.0 -40.4 81.2 Q-40.95 80.65 -41.6 80.25 L-41.45 79.85 -44.6 76.7 -44.6 76.25 -45.85 75.2 -46.0 75.0 -46.7 74.25 -46.9 74.0 -47.6 73.25 -48.0 72.7 -48.5 72.3 -48.9 72.0 -49.15 72.0 -49.3 71.4 -49.75 71.25 -50.05 70.75 Q-50.45 69.95 -51.0 69.35 L-57.2 61.7 Q-63.6 53.35 -69.6 44.7 L-72.25 40.1 -75.35 32.9 -75.45 32.55 -75.5 32.25 -76.6 29.65 Q-77.1 28.4 -77.2 27.1 -77.45 23.3 -77.15 19.55 L-76.7 18.35 Q-75.75 17.2 -75.1 15.9 L-59.85 -16.4 Q-55.55 -25.55 -50.7 -34.4 L-44.85 -45.1 -43.0 -48.45 Q-34.5 -63.55 -24.4 -77.5 -20.1 -83.55 -14.85 -89.05 -10.5 -93.55 -4.65 -94.9 L-1.1 -94.6 Q1.8 -93.7 4.55 -92.35 10.7 -89.1 15.8 -84.4" fill="#2e47aa" fill-rule="evenodd" stroke="none"/>
  </g>
</svg>
