<?xml version="1.0" encoding="UTF-8" standalone="no"?>
<svg xmlns:ffdec="https://www.free-decompiler.com/flash" xmlns:xlink="http://www.w3.org/1999/xlink" ffdec:objectType="shape" height="193.6px" width="163.3px" xmlns="http://www.w3.org/2000/svg">
  <g transform="matrix(1.0, 0.0, 0.0, 1.0, 86.05, 85.5)">
    <path d="M13.75 -78.55 Q22.6 -70.45 29.7 -60.85 37.7 -50.1 44.7 -38.9 L48.9 -32.35 Q53.1 -25.85 56.95 -18.95 L67.1 -0.45 68.85 2.75 72.15 9.95 73.45 12.5 Q75.35 16.05 76.3 19.7 77.1 22.75 77.2 25.85 77.4 32.2 77.0 38.55 L67.0 87.4 66.95 87.85 66.75 88.7 66.5 89.65 66.05 91.7 Q65.5 94.25 64.2 96.55 L63.95 96.95 63.6 97.1 63.25 97.25 63.0 97.1 62.7 96.9 Q61.5 95.3 61.1 93.25 L60.9 91.95 60.8 91.7 60.7 91.25 60.85 60.0 63.55 23.55 62.85 22.55 62.7 26.35 Q62.15 33.9 58.15 40.2 52.4 49.25 43.9 55.9 L42.0 57.1 41.45 57.95 38.05 62.35 Q37.15 63.55 36.0 64.35 29.3 69.2 21.75 71.6 7.05 76.1 -8.05 75.1 -18.65 74.25 -28.65 69.3 L-35.9 65.2 Q-37.6 64.2 -39.4 63.3 -43.6 61.5 -47.4 59.05 -54.75 54.4 -59.5 46.95 -64.95 38.25 -65.75 27.95 L-66.0 24.85 -71.75 32.4 -71.45 33.4 -70.75 70.0 -71.75 102.55 -72.45 107.55 -73.45 108.1 -75.6 107.85 Q-78.1 97.95 -80.25 88.0 -82.55 77.25 -83.7 66.3 -85.7 47.2 -86.05 28.0 -86.1 26.05 -85.35 24.05 L-85.15 23.4 -84.0 22.85 -75.0 6.0 -74.6 5.85 -74.6 5.25 -74.15 5.1 -74.15 4.55 -73.75 4.4 -73.75 3.85 -73.3 3.7 -72.9 2.4 -72.45 2.25 -72.45 1.7 -72.0 1.55 -72.0 1.0 -71.3 0.4 -71.3 -0.15 -70.9 -0.3 Q-66.35 -7.9 -61.35 -15.15 L-49.6 -32.55 -34.45 -54.8 Q-27.35 -65.1 -18.8 -74.25 -14.1 -79.25 -8.1 -83.0 -1.35 -87.4 5.7 -84.0 10.1 -81.85 13.75 -78.55" fill="#2e47aa" fill-rule="evenodd" stroke="none"/>
  </g>
</svg>
