<?xml version="1.0" encoding="UTF-8" standalone="no"?>
<svg xmlns:ffdec="https://www.free-decompiler.com/flash" xmlns:xlink="http://www.w3.org/1999/xlink" ffdec:objectType="shape" height="124.5px" width="161.65px" xmlns="http://www.w3.org/2000/svg">
  <g transform="matrix(1.0, 0.0, 0.0, 1.0, 85.55, 23.9)">
    <path d="M-11.0 -13.75 Q-12.15 -14.2 -12.45 -15.7 L-13.6 -21.45 -12.65 -22.05 Q-10.25 -23.05 -7.7 -23.5 -3.65 -24.3 0.4 -23.45 L1.25 -23.3 2.7 -23.45 9.85 -23.75 15.35 -23.1 16.85 -22.45 Q17.15 -20.55 16.65 -18.65 16.1 -16.6 14.85 -14.6 11.25 -9.0 2.0 -12.6 -6.15 -8.75 -11.0 -13.75 M20.25 9.25 L24.55 18.0 26.4 24.1 33.25 36.1 Q42.25 41.4 45.4 50.55 L45.25 58.1 43.1 61.7 42.6 62.5 41.25 64.05 Q30.2 73.1 17.85 79.95 11.6 83.4 4.25 84.85 L2.25 85.0 -3.15 84.25 -15.4 81.95 Q-19.7 80.75 -23.3 78.2 -31.9 72.1 -40.0 65.4 L-42.15 60.55 -42.9 58.25 Q-41.3 57.0 -41.6 54.4 -26.45 40.55 -17.0 11.85 L-16.15 10.25 Q-15.25 12.75 -13.85 15.15 -10.8 20.35 -5.1 22.85 -1.8 24.25 1.85 24.1 8.6 24.65 13.5 20.2 18.4 15.7 20.25 9.25 M8.25 -12.6 Q13.4 -14.75 9.25 -17.45 1.4 -16.15 8.25 -12.6 M-6.9 -13.9 Q-0.3 -10.45 -1.75 -16.15 -7.0 -19.15 -7.15 -14.15 L-6.9 -13.9" fill="#ffffff" fill-rule="evenodd" stroke="none"/>
    <path d="M8.25 -12.6 Q1.4 -16.15 9.25 -17.45 13.4 -14.75 8.25 -12.6 M-6.9 -13.9 L-7.15 -14.15 Q-7.0 -19.15 -1.75 -16.15 -0.3 -10.45 -6.9 -13.9" fill="#1f001f" fill-rule="evenodd" stroke="none"/>
    <path d="M-11.0 -13.75 Q-6.15 -8.75 2.0 -12.6 11.25 -9.0 14.85 -14.6 19.6 -12.1 21.25 -7.4 L21.7 -5.15 Q22.15 2.25 20.25 9.25 18.4 15.7 13.5 20.2 8.6 24.65 1.85 24.1 -1.8 24.25 -5.1 22.85 -10.8 20.35 -13.85 15.15 -15.25 12.75 -16.15 10.25 L-17.6 5.1 Q-17.45 1.85 -18.45 -0.6 L-18.3 -4.15 Q-19.75 -7.75 -11.0 -13.75 M43.1 61.7 L43.7 61.55 43.85 61.4 45.85 60.25 47.85 58.4 Q53.55 66.85 54.7 75.55 L54.7 75.85 54.85 76.55 Q56.55 95.55 27.4 100.25 15.0 101.85 8.1 96.25 7.1 96.1 5.4 91.1 L4.25 84.85 Q11.6 83.4 17.85 79.95 30.2 73.1 41.25 64.05 L42.6 62.5 43.1 61.7 M-3.15 84.25 L-5.3 93.3 Q-5.65 94.85 -6.8 95.9 L-8.05 97.0 -9.35 98.1 -10.8 99.0 Q-15.3 100.5 -20.0 100.45 L-26.45 100.1 Q-35.45 99.05 -43.55 94.75 -50.9 90.95 -53.1 83.05 -54.1 79.5 -53.2 76.15 -51.1 68.25 -48.3 60.55 L-44.6 63.55 -43.9 63.55 -40.0 65.4 Q-31.9 72.1 -23.3 78.2 -19.7 80.75 -15.4 81.95 L-3.15 84.25" fill="#e58508" fill-rule="evenodd" stroke="none"/>
    <path d="M-18.15 0.25 L-18.45 0.0 -18.0 0.0 -18.15 0.25 M2.4 22.25 Q19.25 22.7 22.25 0.1 23.1 61.7 4.1 63.1 -18.6 64.1 -18.45 0.4 -14.9 23.1 2.4 22.25 M51.85 23.1 L49.0 16.85 48.25 14.7 48.7 14.4 55.1 23.7 60.4 28.55 63.4 32.55 64.1 31.85 64.95 32.9 Q64.95 33.75 65.5 34.7 65.95 35.45 66.6 35.85 64.7 37.4 63.4 36.7 L63.55 37.1 63.0 37.25 62.4 38.85 62.55 40.4 Q63.4 40.7 64.55 46.25 L65.85 48.25 68.0 57.1 69.0 59.0 69.1 60.55 71.4 67.1 71.25 67.85 73.1 72.4 73.4 72.7 74.0 71.85 73.4 58.4 74.1 53.85 74.0 45.85 74.7 45.4 74.7 39.7 74.1 37.85 74.9 37.65 76.0 56.85 76.1 71.0 75.55 77.4 74.7 78.25 73.1 78.1 71.4 75.1 67.0 61.0 62.0 40.0 Q58.7 49.1 48.0 58.25 48.65 59.9 49.85 61.25 L52.7 68.0 51.7 68.0 Q50.0 70.0 47.55 70.7 L47.25 72.85 37.55 84.0 21.4 92.7 Q13.4 94.0 12.1 96.4 42.1 102.0 54.4 82.25 53.0 90.85 41.7 96.55 L33.4 99.25 28.55 100.1 22.4 100.55 16.4 100.1 Q10.55 98.85 9.1 97.4 4.55 92.4 4.4 85.0 L-2.3 84.25 Q-4.15 84.7 -5.75 94.55 L-7.45 97.0 Q-12.9 101.25 -25.9 100.25 L-35.3 98.4 -39.3 97.0 -45.75 93.55 -47.9 91.85 -50.9 88.4 -53.75 81.85 Q-42.9 101.4 -9.9 96.1 L-10.3 95.25 -11.9 94.25 -17.3 92.55 -23.0 89.55 -33.3 85.1 -43.75 74.1 -47.9 72.1 -50.6 70.25 -52.15 69.85 -52.3 69.0 -48.3 60.55 Q-58.9 53.0 -63.3 41.25 L-64.3 37.85 -65.15 31.85 -65.3 27.1 -71.15 32.4 -70.3 39.4 Q-71.0 39.4 -72.15 36.7 L-73.9 36.0 -75.6 36.4 -81.6 36.4 -82.45 38.1 -81.6 39.1 -81.0 45.1 Q-78.9 54.85 -77.0 55.4 L-69.3 85.0 Q-67.45 86.55 -66.15 84.7 L-66.45 87.4 -67.6 88.1 -69.3 87.55 Q-69.0 86.85 -71.0 84.1 L-74.9 72.55 -82.6 46.0 Q-86.9 28.7 -84.9 26.55 -84.45 36.7 -78.3 35.85 L-72.9 30.85 -66.75 26.4 -58.3 17.85 -52.6 12.7 -45.45 5.1 -44.15 4.25 Q-54.75 24.85 -54.45 34.4 L-46.9 42.7 -39.3 47.7 -36.0 49.1 Q-35.9 51.85 -41.45 54.4 L-35.3 61.55 -33.0 64.85 -17.0 74.4 -9.0 76.25 2.25 77.85 Q21.0 77.25 37.4 62.4 L44.7 50.4 Q44.55 46.85 41.4 43.1 L47.4 38.85 51.4 35.0 54.4 31.25 51.85 23.1" fill="#000000" fill-opacity="0.49803922" fill-rule="evenodd" stroke="none"/>
  </g>
</svg>
