<?xml version="1.0" encoding="UTF-8" standalone="no"?>
<svg xmlns:ffdec="https://www.free-decompiler.com/flash" xmlns:xlink="http://www.w3.org/1999/xlink" ffdec:objectType="shape" height="122.3px" width="150.45px" xmlns="http://www.w3.org/2000/svg">
  <g transform="matrix(1.0, 0.0, 0.0, 1.0, 85.15, 11.95)">
    <path d="M12.25 -5.5 Q4.0 -4.4 10.75 -0.9 16.0 -3.4 12.25 -5.5 M-9.0 -2.5 Q-10.1 -4.25 -10.6 -6.15 -11.15 -8.1 -11.15 -10.15 L-8.35 -10.7 2.05 -11.0 Q3.85 -10.85 5.5 -11.65 L12.35 -11.95 18.75 -11.65 19.25 -11.0 18.75 -7.35 Q18.3 -5.5 17.5 -3.75 13.0 2.6 4.5 -1.0 -4.0 3.1 -9.0 -2.5 M23.0 19.5 Q25.75 25.55 29.0 31.35 32.4 37.45 36.85 42.95 38.1 44.4 39.85 45.45 45.9 49.1 46.65 55.85 46.9 58.2 46.3 60.65 46.05 61.7 45.25 62.1 39.8 68.95 33.45 75.0 27.75 80.45 20.25 83.3 12.65 86.2 4.6 87.85 L-3.65 87.25 -10.4 86.15 -19.5 83.5 -20.4 83.1 Q-24.65 81.1 -28.2 78.25 -33.95 73.7 -39.05 68.4 L-39.25 68.25 -41.75 62.85 -40.6 61.35 -40.3 60.4 -40.25 59.35 -36.4 57.35 Q-35.55 55.85 -34.2 54.65 L-32.75 52.95 Q-26.85 43.9 -21.6 34.5 -17.65 27.3 -14.15 19.85 L-13.75 20.1 Q-12.25 25.75 -8.25 30.0 -6.15 32.35 -3.4 33.6 L-1.25 34.35 9.75 34.7 Q13.35 33.95 16.15 31.45 18.65 29.2 20.0 26.3 L23.0 19.5 M-4.4 -2.0 Q2.0 1.1 1.25 -3.75 -4.65 -7.0 -4.65 -2.4 L-4.4 -2.0" fill="#ffffff" fill-rule="evenodd" stroke="none"/>
    <path d="M12.25 -5.5 Q16.0 -3.4 10.75 -0.9 4.0 -4.4 12.25 -5.5 M-4.4 -2.0 L-4.65 -2.4 Q-4.65 -7.0 1.25 -3.75 2.0 1.1 -4.4 -2.0" fill="#1f001f" fill-rule="evenodd" stroke="none"/>
    <path d="M-9.0 -2.5 Q-4.0 3.1 4.5 -1.0 13.0 2.6 17.5 -3.75 23.75 -0.75 24.0 4.6 L24.25 8.6 23.85 14.6 23.0 19.5 20.0 26.3 Q18.65 29.2 16.15 31.45 13.35 33.95 9.75 34.7 L-1.25 34.35 -3.4 33.6 Q-6.15 32.35 -8.25 30.0 -12.25 25.75 -13.75 20.1 L-14.15 19.85 -15.75 12.85 -16.4 6.35 Q-13.65 -1.5 -9.0 -2.5 M45.25 62.1 L45.75 62.0 48.1 59.85 48.15 60.75 48.15 66.6 Q48.0 69.85 48.6 72.6 L48.5 73.35 Q48.4 73.9 48.45 74.5 L48.6 76.5 Q48.65 83.8 49.5 91.25 46.95 94.0 43.7 95.7 38.7 98.1 33.15 99.25 L29.4 99.95 Q20.4 101.9 12.0 98.5 10.95 98.05 10.05 97.4 8.45 96.25 7.55 94.65 5.8 91.4 4.6 87.85 12.65 86.2 20.25 83.3 27.75 80.45 33.45 75.0 39.8 68.95 45.25 62.1 M-3.65 87.25 L-6.15 94.5 -7.4 96.85 Q-12.75 100.35 -19.3 100.35 -31.3 100.95 -41.9 95.75 L-53.75 74.1 -49.15 62.35 -46.65 64.25 Q-43.35 66.85 -39.25 68.25 L-39.05 68.4 Q-33.95 73.7 -28.2 78.25 -24.65 81.1 -20.4 83.1 L-19.5 83.5 -10.4 86.15 -3.65 87.25" fill="#e58508" fill-rule="evenodd" stroke="none"/>
    <path d="M43.25 36.6 Q42.0 32.6 42.6 30.5 47.35 45.85 52.05 50.5 L52.3 51.5 Q52.45 53.15 52.8 53.9 51.1 54.05 49.0 53.0 L49.0 53.5 48.5 53.5 48.75 53.85 48.1 54.5 Q48.0 60.25 48.75 60.85 L48.6 64.0 49.0 65.1 48.85 68.5 49.25 69.75 49.1 77.25 49.5 78.1 50.1 91.85 50.6 95.1 50.5 95.35 50.0 95.1 49.6 91.25 Q45.35 96.25 31.6 99.6 L23.5 100.5 16.5 100.1 12.35 99.1 Q5.6 96.5 4.85 88.1 L-3.25 87.25 Q-2.9 101.75 -26.0 100.25 L-32.65 99.1 -40.25 96.6 -41.65 95.85 -43.15 93.0 Q-23.25 101.0 -16.4 96.85 -19.15 93.25 -31.9 88.5 L-41.9 78.5 -47.4 76.0 -51.5 73.1 -52.4 73.0 -53.5 74.25 -52.75 70.5 -49.15 62.35 Q-61.5 52.75 -63.5 42.35 L-64.0 42.5 -69.15 48.6 -68.0 51.0 Q-69.55 50.0 -71.6 50.75 L-72.0 50.05 -72.25 49.65 Q-68.9 45.8 -68.25 44.25 L-68.5 44.0 -68.2 44.0 -68.15 43.5 -67.4 43.5 -67.25 43.25 -67.75 43.0 -66.65 42.85 -65.25 41.0 -59.15 34.75 -53.9 28.25 -54.0 28.0 -48.65 21.75 -40.25 10.5 -39.75 10.5 -39.75 11.0 -44.65 25.1 -47.5 37.0 Q-45.4 40.35 -27.4 45.6 L-32.15 52.75 Q-36.5 58.75 -38.5 58.75 -32.0 71.35 -9.65 77.35 L-9.25 77.25 -9.5 75.75 -11.75 66.6 -13.65 53.6 -15.4 32.6 -15.4 27.85 -16.0 23.1 -16.25 11.5 -16.2 11.5 Q-13.75 28.55 0.5 32.25 14.25 32.1 16.35 29.35 23.5 24.25 24.1 9.5 L24.5 9.6 25.0 24.85 24.75 44.5 23.0 65.85 21.0 75.6 Q59.85 55.1 34.5 41.25 L34.25 41.0 43.25 36.6 M62.5 7.8 Q69.35 28.65 59.3 47.9 L58.75 46.4 Q60.3 35.85 57.5 22.05 58.5 24.3 60.25 19.0 62.35 11.15 62.35 8.0 L62.5 7.8 M21.0 96.6 L20.75 97.1 21.0 98.1 Q30.5 98.5 39.25 95.1 44.95 93.0 49.6 89.1 L48.75 76.1 47.6 76.0 24.55 94.6 23.1 95.85 21.0 96.6 M50.1 96.0 L50.75 96.1 51.0 100.0 50.5 99.6 50.1 96.0 M59.6 60.1 L60.6 60.0 61.0 57.0 60.5 49.5 Q61.6 49.75 61.6 54.75 L60.1 70.1 56.5 95.0 Q54.85 103.75 53.6 104.35 L52.35 104.35 51.1 101.6 52.0 101.5 52.75 101.85 53.0 101.5 54.0 101.85 54.35 100.85 57.35 75.5 58.1 74.35 59.85 63.85 59.6 60.1 M-76.05 59.55 Q-75.05 61.7 -73.65 63.55 L-68.35 70.55 -54.15 89.1 -39.65 107.85 -38.65 108.0 Q-37.7 109.4 -36.0 109.0 L-36.0 108.35 -35.65 109.25 -37.15 110.35 -38.0 110.35 -48.45 99.4 -50.25 97.6 -51.15 96.6 -52.4 95.1 -59.7 85.9 -64.15 80.5 -72.25 70.0 -74.45 66.6 Q-77.1 62.1 -80.25 57.85 -81.85 55.75 -83.9 54.6 L-85.15 51.6 Q-84.15 49.6 -85.15 47.5 L-84.5 47.5 -84.3 47.85 -84.4 48.1 -83.9 48.25 Q-84.5 50.75 -83.25 53.05 L-82.4 54.25 -80.0 54.6 -79.05 54.05 Q-77.4 56.7 -76.05 59.55" fill="#000000" fill-opacity="0.49803922" fill-rule="evenodd" stroke="none"/>
  </g>
</svg>
