<?xml version="1.0" encoding="UTF-8" standalone="no"?>
<svg xmlns:ffdec="https://www.free-decompiler.com/flash" xmlns:xlink="http://www.w3.org/1999/xlink" ffdec:objectType="shape" height="121.3px" width="146.85px" xmlns="http://www.w3.org/2000/svg">
  <g transform="matrix(1.0, 0.0, 0.0, 1.0, 80.15, 0.45)">
    <path d="M-6.25 9.0 L-8.65 2.0 -5.45 1.4 6.1 0.85 7.3 0.75 Q14.15 -0.6 21.35 -0.4 L22.25 0.0 21.7 3.45 20.5 7.1 Q14.6 14.5 7.5 10.75 -2.9 14.5 -6.25 9.0 M26.1 29.1 Q29.35 33.2 31.15 38.25 32.05 40.75 33.6 43.0 L34.85 61.0 21.25 87.35 5.6 90.85 -4.4 90.1 Q-15.35 86.65 -25.3 81.45 -32.9 77.45 -38.4 71.25 L-40.5 67.1 Q-26.0 57.05 -17.4 41.55 -14.1 35.65 -11.65 29.5 -10.15 34.45 -6.85 38.7 L-3.9 41.85 Q-0.55 44.9 3.6 46.15 5.75 46.7 7.75 46.1 L8.35 46.1 10.6 45.85 Q15.7 45.45 19.55 42.05 21.65 40.15 22.9 37.6 L25.05 32.65 26.1 29.1 M14.0 10.85 Q15.25 10.85 16.85 8.75 L16.6 7.0 15.0 6.35 13.75 6.5 11.0 8.0 11.35 9.25 11.1 9.6 12.0 10.6 14.0 10.85 M-1.4 10.0 Q5.25 13.1 4.1 8.1 -1.4 5.6 -1.4 10.0" fill="#ffffff" fill-rule="evenodd" stroke="none"/>
    <path d="M20.5 7.1 Q25.75 8.75 26.85 14.25 L26.85 24.85 26.1 29.1 25.05 32.65 22.9 37.6 Q21.65 40.15 19.55 42.05 15.7 45.45 10.6 45.85 L8.35 46.1 7.75 46.1 Q5.75 46.7 3.6 46.15 -0.55 44.9 -3.9 41.85 L-6.85 38.7 Q-10.15 34.45 -11.65 29.5 L-12.9 23.0 -13.25 22.5 -13.9 18.35 -13.5 17.1 Q-14.9 14.1 -6.25 9.0 -2.9 14.5 7.5 10.75 14.6 14.5 20.5 7.1 M21.25 87.35 L15.5 99.85 Q11.85 99.55 9.2 97.3 6.55 95.05 5.65 91.65 L5.6 90.85 21.25 87.35 M-4.4 90.1 L-7.25 96.35 -7.4 96.85 Q-12.75 100.35 -19.3 100.35 -31.95 100.95 -43.25 95.1 L-54.0 76.6 -52.6 70.95 Q-51.55 67.6 -50.15 64.35 L-46.5 67.0 -38.4 71.25 Q-32.9 77.45 -25.3 81.45 -15.35 86.65 -4.4 90.1 M48.0 62.0 L49.5 60.75 Q52.05 67.15 54.15 73.75 54.8 75.8 54.85 78.0 L54.6 81.4 Q53.55 88.15 48.3 92.45 43.25 96.6 36.9 98.25 L30.75 99.7 26.1 100.25 41.75 76.85 43.05 74.65 45.7 68.6 45.85 68.25 46.8 65.85 47.5 64.25 48.0 62.0" fill="#e58508" fill-rule="evenodd" stroke="none"/>
    <path d="M14.0 10.85 L12.0 10.6 11.1 9.6 11.35 9.25 11.0 8.0 13.75 6.5 15.0 6.35 16.6 7.0 16.85 8.75 Q15.25 10.85 14.0 10.85 M-1.4 10.0 Q-1.4 5.6 4.1 8.1 5.25 13.1 -1.4 10.0" fill="#1f001f" fill-rule="evenodd" stroke="none"/>
    <path d="M33.6 34.5 L35.1 34.5 Q33.35 39.25 34.0 43.0 31.85 41.8 29.6 35.5 L33.6 34.5 M27.85 27.25 L28.25 45.6 28.85 54.6 29.0 69.0 29.1 69.5 30.6 69.0 27.85 74.35 27.6 75.85 Q26.75 76.1 25.1 81.85 L24.75 82.0 24.85 82.35 24.5 82.5 Q24.1 84.75 22.1 87.5 L22.25 87.85 21.85 88.0 22.0 88.35 19.35 92.35 17.75 95.8 17.0 96.95 16.85 97.0 16.65 97.55 16.2 98.55 16.2 98.75 15.85 99.75 Q6.75 98.85 5.6 90.85 L-4.15 90.1 Q-2.75 98.35 -20.0 100.5 -29.25 101.35 -43.15 95.1 L-44.9 92.1 -44.25 92.0 Q-33.9 98.0 -20.5 97.85 -22.4 95.0 -30.25 92.0 L-38.9 84.0 Q-48.4 77.85 -49.4 84.0 L-54.0 76.6 -52.75 70.5 -50.0 64.35 -52.25 62.6 -56.15 58.1 -57.9 56.6 -59.65 53.35 -60.0 53.35 -64.4 59.25 -62.4 62.85 Q-67.6 61.3 -69.0 62.45 L-60.9 51.25 -60.0 50.85 -60.4 50.5 -59.75 50.35 -60.0 50.0 -58.9 49.5 -55.75 45.0 -53.5 42.85 -42.5 28.0 -39.15 22.5 -38.65 22.25 -37.75 20.5 -37.4 20.5 -37.15 20.6 -39.5 28.5 -41.75 38.1 -39.15 39.0 -29.65 40.25 -17.9 40.85 Q-20.0 44.25 -19.65 44.85 L-23.25 50.5 -28.0 55.85 -30.65 59.5 -33.75 62.0 -33.65 62.35 -34.65 63.6 -27.4 68.5 -19.75 71.5 -11.9 74.0 Q-10.4 71.6 -14.4 66.1 L-13.25 64.75 -17.4 58.6 Q-16.65 56.1 -12.5 53.0 L-12.9 37.35 -13.5 33.1 -13.65 21.5 Q-6.9 46.75 9.25 42.25 25.5 43.85 27.25 20.0 L27.85 27.25 M62.6 10.0 L63.25 10.0 Q67.5 18.6 66.5 28.1 65.45 38.35 59.8 47.3 55.3 54.45 49.5 60.6 53.65 66.45 54.65 73.5 55.6 80.2 53.05 86.55 51.1 91.5 46.2 94.05 36.7 99.05 26.1 100.25 L10.35 120.85 9.55 120.75 8.1 120.1 8.25 118.5 9.85 117.75 11.85 116.5 Q15.4 113.45 18.05 109.75 24.85 100.05 30.65 89.75 31.55 88.1 32.8 86.75 38.05 80.8 41.75 73.7 42.3 72.65 42.35 71.35 L43.6 68.5 44.1 68.0 41.85 67.85 41.25 67.1 Q43.1 66.55 44.2 64.7 46.6 60.7 47.5 55.95 50.65 39.05 50.5 22.0 L51.0 22.1 51.25 28.1 Q58.0 25.05 61.4 18.4 63.45 14.25 62.6 10.0 M62.6 9.5 L62.5 9.0 62.85 9.0 63.0 9.5 62.6 9.5 M-78.85 59.35 L-78.5 62.35 -76.65 64.95 -71.85 64.8 Q-73.9 66.9 -72.4 69.6 L-69.25 74.15 -57.9 87.5 -57.9 87.65 -58.25 87.85 -56.4 89.35 -37.0 115.35 Q-34.85 117.85 -31.7 118.2 L-31.6 118.35 -33.25 119.5 -39.1 114.3 -45.9 107.1 -46.75 106.1 -59.6 89.85 -75.85 67.9 -80.15 62.6 -79.75 60.05 -78.85 59.35" fill="#000000" fill-opacity="0.49803922" fill-rule="evenodd" stroke="none"/>
  </g>
</svg>
