<?xml version="1.0" encoding="UTF-8" standalone="no"?>
<svg xmlns:ffdec="https://www.free-decompiler.com/flash" xmlns:xlink="http://www.w3.org/1999/xlink" ffdec:objectType="shape" height="118.6px" width="141.35px" xmlns="http://www.w3.org/2000/svg">
  <g transform="matrix(1.0, 0.0, 0.0, 1.0, 73.9, -10.0)">
    <path d="M30.5 37.85 L31.5 39.25 29.95 46.1 29.2 49.05 Q29.05 49.65 28.6 49.85 L26.85 70.85 25.5 71.75 2.0 92.85 -5.15 92.6 -17.65 89.1 -18.25 88.85 -19.2 88.25 -35.2 76.0 -36.9 74.25 -38.5 71.6 -37.0 70.75 -36.5 69.35 Q-31.95 66.95 -28.25 63.65 -21.35 57.55 -15.75 50.1 -12.0 45.1 -8.8 39.75 L-7.9 38.25 -4.5 45.35 Q-1.35 51.7 5.3 54.7 8.2 55.95 11.15 55.95 15.25 55.9 19.2 54.35 22.2 53.3 24.35 51.1 L26.95 48.1 Q27.8 47.05 28.15 45.85 L30.5 37.85 M-2.4 19.5 L-4.5 13.0 10.5 11.85 11.0 12.1 15.35 11.35 Q20.6 10.25 26.35 10.0 L26.4 11.1 Q26.55 14.05 25.0 16.75 19.75 24.75 11.85 21.25 6.1 25.1 -0.15 21.5 L-2.4 19.5 M21.1 17.6 L19.8 17.45 15.5 18.85 15.6 20.35 16.5 21.25 Q19.05 21.95 20.9 20.0 L21.35 19.35 21.1 17.6 M8.25 21.85 L8.5 21.25 9.1 21.0 8.85 19.35 6.25 18.5 5.0 18.5 Q4.15 18.95 3.25 19.35 1.5 21.75 6.6 22.5 L8.25 21.85 M49.5 62.25 L48.35 64.85 41.85 75.1 40.85 76.35 37.25 79.6 41.0 73.75 41.1 72.25 40.75 71.75 Q42.15 64.75 44.3 57.85 L45.25 54.55 Q46.5 54.85 47.45 56.0 L49.6 58.85 49.5 62.25" fill="#ffffff" fill-rule="evenodd" stroke="none"/>
    <path d="M25.0 16.75 L29.0 19.65 Q29.75 20.2 30.0 21.25 30.5 23.2 30.6 25.25 L30.7 35.0 30.5 37.85 28.15 45.85 Q27.8 47.05 26.95 48.1 L24.35 51.1 Q22.2 53.3 19.2 54.35 15.25 55.9 11.15 55.95 8.2 55.95 5.3 54.7 -1.35 51.7 -4.5 45.35 L-7.9 38.25 -9.4 31.85 Q-10.4 27.6 -9.9 27.1 -10.9 24.1 -2.4 19.5 L-0.15 21.5 Q6.1 25.1 11.85 21.25 19.75 24.75 25.0 16.75 M-5.15 92.6 L-7.4 96.85 Q-12.75 100.35 -19.3 100.35 -31.2 100.9 -42.15 95.75 L-54.0 76.5 Q-53.4 71.05 -51.0 66.35 L-48.0 68.35 -47.75 68.75 -47.5 68.85 -46.75 69.35 Q-42.05 72.6 -36.9 74.25 L-35.2 76.0 -19.2 88.25 -18.25 88.85 -17.65 89.1 -5.15 92.6 M49.5 62.25 L50.1 61.85 Q52.35 67.65 54.15 73.65 55.6 78.55 54.1 83.55 52.1 90.0 46.4 93.75 40.6 97.6 33.95 99.05 27.3 100.7 20.6 100.5 L13.35 99.35 28.25 88.2 36.25 81.5 37.25 79.6 40.85 76.35 41.85 75.1 48.35 64.85 49.5 62.25" fill="#e58508" fill-rule="evenodd" stroke="none"/>
    <path d="M8.25 21.85 L6.6 22.5 Q1.5 21.75 3.25 19.35 4.15 18.95 5.0 18.5 L6.25 18.5 8.85 19.35 9.1 21.0 8.5 21.25 8.25 21.85 M21.1 17.6 L21.35 19.35 20.9 20.0 Q19.05 21.95 16.5 21.25 L15.6 20.35 15.5 18.85 19.8 17.45 21.1 17.6" fill="#1f001f" fill-rule="evenodd" stroke="none"/>
    <path d="M28.0 82.0 L28.35 82.0 28.25 82.25 28.0 82.0 M41.25 26.1 L41.1 26.85 34.0 35.0 34.0 35.2 Q34.05 35.8 33.7 36.2 L32.95 37.1 32.0 38.35 Q31.75 50.1 30.55 61.75 29.85 68.45 27.65 74.85 26.7 77.55 24.5 79.4 17.85 85.1 10.2 89.0 7.65 90.25 5.0 90.85 L-4.9 92.6 -6.1 94.85 -7.05 96.55 Q-7.7 97.7 -9.0 97.85 -10.95 99.5 -13.4 99.6 L-22.7 100.05 Q-33.15 100.1 -42.4 95.6 L-54.0 76.6 Q-53.5 71.1 -50.9 66.35 L-53.75 63.5 -58.4 69.75 -55.75 74.0 Q-56.25 73.65 -56.8 73.45 -58.75 72.45 -60.65 73.0 L-61.0 71.35 -40.9 41.5 -40.2 40.55 -38.85 38.8 -33.9 30.0 -33.4 30.0 -35.5 40.25 Q-30.15 39.5 -24.9 38.15 -17.25 36.25 -9.75 33.75 L-9.75 30.5 -7.2 37.5 -4.65 42.95 Q-3.5 45.1 -1.9 46.95 -0.7 48.35 0.95 48.85 7.35 50.55 14.05 50.7 17.55 51.2 20.7 49.9 28.7 46.6 30.55 38.2 31.95 31.8 30.85 25.1 31.05 24.95 31.3 24.85 36.35 24.6 41.25 26.1 M49.25 26.25 Q64.0 23.35 64.1 12.5 75.1 32.6 50.1 61.75 59.0 79.1 52.35 87.85 42.0 102.6 13.6 99.35 L-17.65 120.6 -25.15 124.75 -26.0 124.6 -26.9 123.85 -22.25 122.35 -11.5 114.75 3.0 103.5 15.85 94.75 18.75 92.1 21.85 90.35 23.6 89.05 Q26.85 86.8 27.95 85.25 L32.0 81.25 32.35 80.35 Q34.5 78.35 36.0 78.35 37.0 78.0 37.85 73.0 L38.6 72.75 40.75 64.5 42.85 58.35 42.85 57.5 43.35 56.85 43.35 55.5 43.85 54.35 49.25 26.25 M-12.5 45.0 L-12.9 45.25 Q-15.2 52.3 -20.4 57.5 L-18.9 57.55 -15.3 55.15 -9.15 51.0 -9.75 41.75 -10.4 42.0 Q-11.15 43.75 -12.5 45.0 M-73.9 68.0 L-73.4 68.0 -72.65 68.75 -72.6 69.75 -72.55 70.65 Q-72.45 72.05 -71.8 73.2 L-70.25 75.35 -69.65 75.35 -69.25 76.0 -67.75 75.85 -67.6 76.25 -67.05 77.55 -65.75 80.25 -64.2 82.8 -61.3 87.25 -60.45 88.5 -58.75 90.95 Q-56.9 93.75 -53.75 95.45 L-31.0 124.6 -28.75 126.5 -27.9 126.5 -27.5 126.85 -27.15 126.5 -26.0 126.5 -25.9 127.5 -27.4 128.6 -28.15 128.6 -42.75 113.1 -62.75 88.6 -62.75 88.4 -69.4 78.25 -71.1 76.85 Q-72.6 75.1 -73.2 72.95 -73.85 70.55 -73.9 68.0 M-63.9 43.85 Q-66.25 38.75 -62.15 24.5 -63.0 30.25 -58.5 33.35 L-63.9 43.85 M-40.25 89.0 Q-43.0 92.85 -41.4 93.75 L-32.9 96.6 -28.5 97.25 Q-30.9 90.25 -40.25 89.0" fill="#000000" fill-opacity="0.49803922" fill-rule="evenodd" stroke="none"/>
  </g>
</svg>
