<?xml version="1.0" encoding="UTF-8" standalone="no"?>
<svg xmlns:ffdec="https://www.free-decompiler.com/flash" xmlns:xlink="http://www.w3.org/1999/xlink" ffdec:objectType="shape" height="136.7px" width="140.8px" xmlns="http://www.w3.org/2000/svg">
  <g transform="matrix(1.0, 0.0, 0.0, 1.0, 74.4, 8.1)">
    <path d="M-2.75 3.1 L-5.15 -0.4 -5.25 -4.15 -3.35 -4.55 8.85 -6.4 9.75 -6.15 12.05 -6.85 Q18.3 -8.55 24.75 -7.9 L25.1 -7.5 24.85 -4.7 23.75 -0.15 Q20.6 6.35 11.35 3.85 L11.1 3.75 Q5.0 8.75 -2.75 3.1 M29.85 23.6 L31.0 25.35 28.15 53.85 27.5 61.0 -2.65 88.6 -4.0 88.6 -7.9 88.6 -9.05 88.1 Q-21.65 81.05 -34.0 73.6 L-35.4 72.6 -35.75 71.75 -37.65 68.5 -37.65 67.5 -36.25 66.25 -35.9 64.5 Q-32.25 65.0 -20.25 48.75 L-14.9 39.1 -12.9 33.6 -7.5 24.1 Q-6.9 24.8 -6.4 25.95 -3.85 31.8 0.9 35.9 4.8 39.2 9.65 39.65 L15.0 39.35 Q22.3 38.3 26.35 32.35 29.0 28.4 29.85 23.6 M17.5 -1.0 L16.1 -0.4 14.75 0.75 14.85 2.35 15.6 2.85 15.6 3.35 17.75 3.5 Q22.6 1.0 19.0 -1.15 L17.5 -1.0 M20.6 85.5 Q28.2 78.6 36.05 72.0 36.85 71.4 37.85 71.1 L41.5 63.85 41.1 63.35 45.1 45.5 46.65 47.1 48.95 50.1 Q50.2 52.0 50.0 54.5 L49.4 57.55 48.6 59.5 45.75 64.5 40.9 71.45 Q39.65 73.2 37.95 74.4 29.4 80.15 20.6 85.5 M8.25 1.5 Q3.1 -1.5 2.35 3.35 L2.5 3.6 Q9.25 6.1 8.25 1.5" fill="#ffffff" fill-rule="evenodd" stroke="none"/>
    <path d="M17.5 -1.0 L19.0 -1.15 Q22.6 1.0 17.75 3.5 L15.6 3.35 15.6 2.85 14.85 2.35 14.75 0.75 16.1 -0.4 17.5 -1.0 M8.25 1.5 Q9.25 6.1 2.5 3.6 L2.35 3.35 Q3.1 -1.5 8.25 1.5" fill="#1f001f" fill-rule="evenodd" stroke="none"/>
    <path d="M-2.75 3.1 Q5.0 8.75 11.1 3.75 L11.35 3.85 Q20.6 6.35 23.75 -0.15 28.7 1.8 29.3 7.15 30.05 14.05 30.05 21.0 L29.85 23.6 Q29.0 28.4 26.35 32.35 22.3 38.3 15.0 39.35 L9.65 39.65 Q4.8 39.2 0.9 35.9 -3.85 31.8 -6.4 25.95 -6.9 24.8 -7.5 24.1 -9.95 18.05 -10.05 11.45 -10.05 10.45 -9.55 9.6 L-7.7 7.3 Q-5.45 4.9 -2.75 3.1 M-4.0 88.6 L-4.4 90.25 -14.0 99.75 -31.05 98.6 Q-35.55 98.1 -39.9 96.75 L-53.25 72.35 -50.4 64.6 -48.65 65.95 Q-42.6 69.85 -35.4 72.6 L-34.0 73.6 Q-21.65 81.05 -9.05 88.1 L-7.9 88.6 -4.0 88.6 M48.6 59.5 Q54.35 69.0 55.0 76.75 55.25 96.25 27.35 100.25 15.0 101.85 8.1 96.25 L7.25 95.5 20.6 85.5 Q29.4 80.15 37.95 74.4 39.65 73.2 40.9 71.45 L45.75 64.5 48.6 59.5" fill="#e58508" fill-rule="evenodd" stroke="none"/>
    <path d="M48.25 18.85 L49.1 10.1 49.0 9.5 49.6 9.6 49.35 13.5 49.85 27.1 Q62.35 18.85 62.75 4.5 74.5 26.5 48.6 59.35 L50.0 61.5 54.0 71.25 Q53.1 71.6 52.1 77.5 L50.35 88.0 50.75 88.1 52.75 85.5 53.35 85.5 52.35 87.85 Q49.25 94.75 32.5 99.5 12.6 102.6 7.25 95.5 L-19.5 114.6 -26.75 118.85 -27.5 118.85 -28.0 118.6 -28.0 118.1 -24.25 116.75 -1.65 99.85 5.35 94.1 18.6 84.75 20.3 83.25 22.0 82.1 22.5 81.85 23.25 81.25 Q24.6 80.3 26.3 79.1 L31.3 74.15 33.25 71.95 34.1 71.0 35.5 70.35 36.35 69.0 37.6 68.35 Q39.1 63.85 40.25 64.0 L44.5 44.6 48.25 18.85 M-29.15 119.5 L-28.0 119.6 -26.0 124.5 Q-29.25 124.1 -29.15 119.5 M-73.1 64.25 L-72.75 65.6 -71.75 68.1 -70.9 68.5 -70.75 69.0 -69.45 69.0 -64.55 75.95 -48.55 98.85 -30.25 124.65 Q-29.1 126.3 -27.25 127.1 L-25.6 126.95 -25.25 126.5 -25.0 127.25 -25.45 127.75 Q-26.1 128.2 -26.8 128.45 L-27.75 128.6 -32.9 122.9 Q-48.6 103.65 -63.25 83.6 L-63.5 83.05 Q-67.2 76.55 -71.3 70.3 -72.7 68.1 -74.4 66.1 L-74.0 63.3 -73.35 62.7 -73.1 64.25 M-64.65 36.5 Q-65.5 28.25 -61.9 19.5 -62.65 25.0 -60.5 27.85 L-64.65 36.5 M54.75 81.85 L53.6 85.0 Q52.75 84.25 54.75 81.85 M31.25 34.25 L31.0 41.75 Q29.75 47.85 28.9 54.05 28.4 57.6 28.35 61.25 L27.1 61.35 -2.5 88.6 -3.9 88.6 -4.15 90.35 -13.9 99.75 Q-24.65 101.65 -35.1 98.3 L-39.75 96.75 -41.25 94.0 Q-34.1 96.75 -26.5 97.95 -22.8 98.75 -18.95 98.05 L-17.15 97.5 -17.95 96.45 Q-19.25 95.25 -21.0 94.6 L-24.15 92.9 Q-30.65 88.5 -37.35 84.55 -40.3 82.85 -43.65 82.0 L-45.5 84.75 -46.15 85.0 -53.15 73.1 -53.0 71.9 Q-52.6 69.6 -51.7 67.5 L-51.1 66.0 -50.4 64.35 -55.3 60.0 -56.5 58.75 -59.0 62.5 -57.9 64.75 Q-58.35 64.45 -58.85 64.4 L-60.0 64.1 -61.4 64.6 -62.2 65.05 -63.15 65.6 -61.7 63.0 -61.45 62.55 -59.8 60.4 -59.3 59.5 -59.15 58.5 -58.25 58.35 -53.4 50.85 -52.5 50.25 -48.0 42.75 -47.9 42.0 -47.5 41.85 -45.25 37.75 Q-39.4 28.65 -34.4 18.75 L-33.75 18.35 -39.0 42.35 Q-38.5 43.15 -37.45 43.35 L-33.65 44.25 -29.9 44.85 -18.5 45.85 -20.35 48.7 -25.5 55.35 -29.75 60.25 -30.5 60.85 -31.0 62.0 -33.25 63.35 -33.65 64.1 Q-29.65 67.3 -25.45 70.2 -23.4 71.65 -21.1 72.8 L-15.3 75.65 Q-10.85 77.65 -6.0 78.85 L-3.5 78.75 -5.95 59.75 Q-8.7 38.0 -10.15 16.1 L-8.4 20.75 Q-6.3 26.4 -2.4 31.05 L1.15 34.2 Q2.4 35.0 3.8 35.35 11.7 37.95 19.6 35.25 26.3 32.85 29.0 26.25 30.7 22.15 30.75 17.5 L31.25 34.25" fill="#000000" fill-opacity="0.49803922" fill-rule="evenodd" stroke="none"/>
  </g>
</svg>
