<?xml version="1.0" encoding="UTF-8" standalone="no"?>
<svg xmlns:ffdec="https://www.free-decompiler.com/flash" xmlns:xlink="http://www.w3.org/1999/xlink" ffdec:objectType="shape" height="150.95px" width="138.9px" xmlns="http://www.w3.org/2000/svg">
  <g transform="matrix(1.0, 0.0, 0.0, 1.0, 74.7, 25.15)">
    <path d="M4.3 -11.85 Q10.15 -17.35 2.65 -16.5 -1.5 -12.35 4.3 -11.85 M21.65 -16.2 Q17.3 -9.85 9.65 -12.7 L4.0 -10.35 Q-2.2 -10.0 -3.7 -12.5 L-4.2 -12.75 -4.9 -13.35 -5.65 -14.45 -6.25 -16.05 -6.7 -20.0 Q-2.45 -21.6 1.95 -22.6 L7.8 -23.35 10.8 -23.85 18.7 -25.0 22.65 -24.7 23.15 -23.85 22.45 -18.6 21.65 -16.2 M-7.7 10.3 Q-4.8 15.85 0.1 20.15 3.4 22.9 7.35 23.4 L8.65 23.65 18.25 22.35 20.05 21.85 Q21.25 21.4 22.3 20.3 L23.9 18.4 Q26.4 14.2 28.5 9.8 L29.65 11.8 28.75 20.5 28.3 22.15 28.15 49.15 27.65 49.5 Q21.8 54.05 16.3 59.0 L15.15 60.0 -11.0 83.0 -22.7 79.5 -33.7 71.0 -36.35 65.7 -37.2 63.5 -36.4 62.7 -35.65 61.3 -35.35 59.5 Q-32.7 57.0 -30.5 54.15 -25.25 47.4 -21.35 39.85 -16.75 30.9 -12.8 21.6 L-7.7 10.3 M17.3 -18.5 Q9.5 -16.35 16.3 -13.5 21.15 -16.7 17.3 -18.5 M5.65 84.15 L28.65 67.8 37.15 59.3 39.5 59.0 41.8 52.65 44.5 36.15 Q53.15 43.65 48.3 54.3 L47.0 56.65 42.65 64.0 41.6 65.3 Q34.4 72.25 25.95 77.15 18.15 81.55 9.2 83.75 L5.65 84.15" fill="#ffffff" fill-rule="evenodd" stroke="none"/>
    <path d="M-3.7 -12.5 Q-2.2 -10.0 4.0 -10.35 L9.65 -12.7 Q17.3 -9.85 21.65 -16.2 L26.0 -13.0 Q26.8 -12.85 28.3 -7.85 L29.3 0.8 28.5 9.8 Q26.4 14.2 23.9 18.4 L22.3 20.3 Q21.25 21.4 20.05 21.85 L18.25 22.35 8.65 23.65 7.35 23.4 Q3.4 22.9 0.1 20.15 -4.8 15.85 -7.7 10.3 L-8.15 9.15 -10.6 -2.1 Q-10.85 -3.55 -10.4 -5.0 -9.7 -7.35 -8.05 -9.15 -6.15 -11.15 -3.7 -12.5 M-11.0 83.0 L-26.2 97.65 -26.7 97.65 -28.7 99.8 -34.85 98.5 -51.7 67.5 -49.85 63.5 -46.0 66.15 -33.7 71.0 -22.7 79.5 -11.0 83.0 M47.0 56.65 Q55.65 71.15 55.0 76.65 54.8 96.8 27.3 100.3 L16.3 100.15 Q11.3 99.65 8.15 96.3 6.5 95.0 6.0 92.8 L4.15 85.15 5.65 84.15 9.2 83.75 Q18.15 81.55 25.95 77.15 34.4 72.25 41.6 65.3 L42.65 64.0 47.0 56.65 M-8.1 97.0 Q-8.85 97.65 -9.75 98.0 L-18.5 100.3 -4.5 91.0 Q-5.3 94.5 -8.1 97.0" fill="#e58508" fill-rule="evenodd" stroke="none"/>
    <path d="M4.3 -11.85 Q-1.5 -12.35 2.65 -16.5 10.15 -17.35 4.3 -11.85 M17.3 -18.5 Q21.15 -16.7 16.3 -13.5 9.5 -16.35 17.3 -18.5" fill="#1f001f" fill-rule="evenodd" stroke="none"/>
    <path d="M28.3 31.8 L28.5 48.8 11.8 63.0 Q-4.7 62.15 -10.85 2.5 -5.7 19.8 8.15 22.15 24.0 24.65 29.8 5.65 L30.5 13.8 29.8 24.8 Q29.0 25.15 29.0 30.3 L28.3 31.8 M48.0 -4.35 L47.8 -5.35 48.5 -5.35 49.0 24.65 49.5 30.5 Q64.65 12.15 61.0 -3.5 71.65 31.8 47.0 56.5 L49.8 61.15 52.3 66.8 51.8 67.5 48.8 89.0 Q50.15 89.8 53.3 85.65 L52.0 88.5 Q46.65 98.8 20.5 100.5 5.0 101.3 4.0 85.15 L-4.35 90.8 Q-5.35 95.0 -7.7 97.15 -16.0 98.2 -24.75 103.5 L3.65 83.0 21.0 71.3 21.8 70.3 23.8 69.3 23.0 69.15 27.75 66.05 28.35 65.6 28.5 65.5 29.6 64.6 36.0 58.7 37.5 58.8 38.8 57.3 Q42.65 55.65 44.0 34.5 L44.5 34.5 44.65 34.0 44.15 33.65 44.8 33.15 45.0 31.3 44.5 31.15 44.9 31.05 Q45.5 30.55 45.5 28.3 L48.0 -4.35 M15.7 97.35 L21.15 98.15 Q23.9 95.2 26.95 92.65 28.8 91.05 31.0 89.8 30.35 88.0 28.55 88.75 L25.55 90.1 13.5 95.8 13.15 96.65 15.7 97.35 M-39.7 17.8 L-35.0 8.0 -34.35 8.15 -41.35 35.3 -44.2 49.5 -39.0 52.5 -30.35 55.0 Q-36.0 59.0 -35.35 60.65 L-25.5 69.3 -8.2 76.5 -4.35 76.8 -19.35 91.0 -26.0 89.0 Q-40.2 76.3 -46.5 76.15 L-51.5 67.65 -49.7 63.15 -54.35 59.65 -58.35 54.3 -59.0 54.0 -58.85 55.0 -60.7 55.15 -56.7 48.5 -55.2 45.0 -54.7 44.8 -52.2 39.5 -51.7 39.3 -49.35 34.3 -45.7 28.5 -44.7 26.0 -44.2 25.8 -40.2 18.0 -39.7 17.8 M-62.0 21.65 L-64.35 27.0 Q-65.0 19.0 -61.2 11.5 -63.35 20.5 -62.0 21.65 M-69.35 61.6 L-65.8 69.0 -63.65 72.55 Q-58.0 80.45 -51.75 87.8 L-34.7 113.3 Q-31.6 118.5 -27.55 123.0 -26.15 124.65 -24.0 125.15 L-25.0 125.8 -25.7 125.65 Q-33.1 117.75 -39.85 109.15 L-59.85 82.15 Q-64.65 76.85 -67.8 70.6 -71.9 62.55 -74.7 54.0 L-73.35 54.5 Q-73.85 55.9 -73.25 57.3 L-72.45 59.4 -72.0 60.65 -70.0 61.8 -69.35 61.6 M-30.2 107.5 L-28.35 111.3 -31.5 110.3 Q-32.5 109.8 -32.85 106.5 L-31.35 106.8 -25.6 104.0 -30.0 107.0 -30.2 107.5 M-34.35 98.65 L-36.0 96.15 -34.7 96.0 Q-32.85 97.15 -27.2 97.3 L-26.5 97.65 -28.5 99.8 -34.35 98.65" fill="#000000" fill-opacity="0.49803922" fill-rule="evenodd" stroke="none"/>
  </g>
</svg>
