<?xml version="1.0" encoding="UTF-8" standalone="no"?>
<svg xmlns:ffdec="https://www.free-decompiler.com/flash" xmlns:xlink="http://www.w3.org/1999/xlink" ffdec:objectType="shape" height="155.15px" width="134.55px" xmlns="http://www.w3.org/2000/svg">
  <g transform="matrix(1.0, 0.0, 0.0, 1.0, 71.9, 40.45)">
    <path d="M-5.3 -26.75 L-8.0 -30.0 -8.6 -34.3 -5.25 -36.65 Q-0.35 -39.35 5.1 -39.3 L5.55 -39.0 7.0 -39.0 7.7 -39.45 9.1 -39.9 18.55 -40.45 Q19.3 -40.45 19.95 -39.85 20.4 -39.45 20.35 -38.95 L19.25 -30.9 Q18.25 -26.3 8.1 -28.0 L1.7 -25.3 Q-5.0 -25.3 -5.3 -26.75 M27.0 -3.15 L31.5 8.95 Q35.05 19.2 38.25 29.55 L11.85 50.4 10.55 51.0 -7.55 65.95 -18.3 75.1 -18.3 75.55 -19.75 76.4 -21.9 75.7 -28.75 71.0 -36.6 59.4 -35.15 57.4 -34.9 54.7 Q-32.4 51.75 -30.4 48.55 -25.05 39.9 -21.05 30.6 -16.95 21.05 -13.55 11.15 L-8.3 -3.15 Q-3.7 4.45 4.4 7.85 7.5 9.15 10.6 8.8 L13.1 8.25 Q16.3 8.05 19.2 6.65 23.2 4.65 25.0 0.65 L27.0 -3.15 M0.85 -32.15 Q-3.3 -27.45 2.85 -27.45 8.1 -32.9 0.85 -32.15 M14.0 -29.15 Q19.0 -31.75 14.85 -34.3 7.85 -32.3 14.0 -29.15 M-10.0 79.25 L19.25 63.0 39.4 50.1 47.85 42.4 49.55 41.85 49.55 45.85 45.4 54.25 41.15 62.25 40.85 63.0 Q40.55 63.95 39.9 64.45 34.1 68.95 27.65 71.85 15.95 76.95 3.55 80.4 L-2.75 80.7 -10.0 79.25" fill="#ffffff" fill-rule="evenodd" stroke="none"/>
    <path d="M-5.3 -26.75 Q-5.0 -25.3 1.7 -25.3 L8.1 -28.0 Q18.25 -26.3 19.25 -30.9 22.85 -31.0 26.25 -21.75 28.7 -14.75 27.1 -5.0 L27.0 -3.15 25.0 0.65 Q23.2 4.65 19.2 6.65 16.3 8.05 13.1 8.25 L10.6 8.8 Q7.5 9.15 4.4 7.85 -3.7 4.45 -8.3 -3.15 -10.4 -7.75 -11.9 -12.55 -12.45 -14.2 -12.45 -15.95 -12.45 -18.45 -10.95 -20.45 -8.45 -23.85 -5.3 -26.75 M-19.75 76.4 L-23.15 79.7 -28.75 71.0 -21.9 75.7 -19.75 76.4 M45.4 54.25 Q54.85 69.0 55.0 76.7 56.4 95.4 27.4 100.25 15.0 101.85 8.1 96.25 7.1 96.1 5.4 91.1 L3.55 80.4 Q15.95 76.95 27.65 71.85 34.1 68.95 39.9 64.45 40.55 63.95 40.85 63.0 L41.15 62.25 45.4 54.25 M-2.75 80.7 Q-3.25 87.2 -5.2 93.2 -5.6 94.5 -6.5 95.45 L-7.05 96.15 Q-7.7 97.1 -8.7 97.65 L-11.0 98.85 -20.3 84.1 -10.0 79.25 -2.75 80.7 M-42.4 84.8 L-26.35 99.3 -25.15 100.25 Q-34.9 99.45 -43.6 94.85 -48.7 92.1 -51.5 87.0 -53.15 84.05 -53.75 80.9 -54.4 77.15 -53.45 73.55 L-52.45 74.4 Q-47.75 79.85 -42.4 84.8" fill="#e58508" fill-rule="evenodd" stroke="none"/>
    <path d="M14.0 -29.15 Q7.85 -32.3 14.85 -34.3 19.0 -31.75 14.0 -29.15 M0.85 -32.15 Q8.1 -32.9 2.85 -27.45 -3.3 -27.45 0.85 -32.15" fill="#1f001f" fill-rule="evenodd" stroke="none"/>
    <path d="M60.0 -2.9 L58.7 -10.45 58.25 -11.0 58.4 -12.0 Q65.55 13.1 60.7 29.4 59.1 38.1 45.4 54.1 57.0 71.0 54.7 82.55 53.1 97.0 22.4 100.55 4.0 103.4 3.7 80.4 L-2.6 80.7 Q-4.0 93.85 -7.15 96.55 L-10.6 98.7 -11.0 98.85 -12.15 97.0 Q-4.45 95.1 -7.45 91.55 -21.45 84.1 -23.9 88.55 L-25.15 86.7 -25.6 85.4 -24.75 84.1 -25.6 82.85 Q-21.3 86.85 -3.3 73.55 L25.3 54.7 28.75 52.55 29.15 52.25 38.25 46.4 39.85 44.85 39.55 44.95 40.6 44.25 42.2 43.05 42.4 43.1 42.7 42.85 42.55 42.8 43.1 42.35 42.85 42.7 Q51.1 37.1 50.7 35.1 L51.85 35.1 Q55.5 32.9 54.75 23.15 L55.25 21.85 55.7 22.7 57.55 17.85 59.55 9.7 60.0 -2.9 M31.55 -2.15 L32.1 -2.0 37.4 23.0 37.25 24.4 37.7 24.7 38.7 29.4 36.7 31.0 36.1 30.55 31.55 -2.15 M21.0 62.0 L-0.45 74.1 6.55 74.25 Q8.4 75.55 21.1 70.55 L29.85 66.25 39.85 56.55 Q39.7 50.85 38.55 50.55 L21.0 62.0 M33.4 96.7 Q33.1 94.25 43.7 86.4 L41.4 76.25 Q36.1 84.0 7.25 92.85 7.7 98.0 25.7 98.1 L33.4 96.7 M-71.9 43.25 L-71.15 43.25 -70.0 45.85 -69.55 45.8 -68.5 48.25 -69.0 48.7 -68.55 49.7 -50.75 73.0 -26.15 97.25 -5.75 114.25 -6.15 114.7 Q-15.4 107.6 -25.5 102.2 -33.95 97.75 -42.9 94.05 -46.5 92.5 -49.1 89.55 -55.45 82.5 -53.6 73.0 L-58.5 67.95 Q-62.0 64.3 -65.05 60.05 -70.65 52.35 -71.9 43.25 M-62.75 17.85 L-64.85 23.5 -64.9 23.5 Q-66.15 19.2 -61.15 5.1 -64.0 16.25 -62.75 17.85 M-32.45 -7.75 L-32.0 -7.6 Q-38.65 20.15 -44.0 48.0 L-53.15 36.85 -52.9 36.25 -53.3 36.1 Q-51.55 33.65 -50.45 31.05 -50.3 30.75 -50.3 30.45 L-50.15 29.6 -50.0 29.6 Q-49.2 29.3 -48.75 28.55 -45.65 22.7 -43.15 17.1 L-42.9 16.7 Q-42.6 16.3 -42.9 15.7 L-36.1 0.65 -32.45 -7.75 M28.0 -8.15 Q33.1 31.1 14.1 35.4 -3.0 38.7 -12.15 -11.6 -6.0 5.55 8.55 8.25 24.0 9.85 28.0 -8.15 M-48.6 78.4 L-49.3 78.4 Q-57.15 91.0 -28.9 97.1 L-43.75 83.7 -48.6 78.4 M-38.0 57.0 Q-31.25 62.5 -23.9 67.1 -19.45 69.9 -14.45 71.85 L-22.9 79.7 -38.0 57.0" fill="#000000" fill-opacity="0.49803922" fill-rule="evenodd" stroke="none"/>
  </g>
</svg>
