<?xml version="1.0" encoding="UTF-8" standalone="no"?>
<svg xmlns:ffdec="https://www.free-decompiler.com/flash" xmlns:xlink="http://www.w3.org/1999/xlink" ffdec:objectType="shape" height="155.9px" width="134.2px" xmlns="http://www.w3.org/2000/svg">
  <g transform="matrix(1.0, 0.0, 0.0, 1.0, 66.1, 55.3)">
    <path d="M-7.45 -39.6 L-10.45 -43.6 -10.6 -46.75 -11.0 -47.15 Q-9.9 -49.2 -7.7 -50.5 -3.05 -53.4 2.7 -53.3 L3.1 -53.0 5.65 -53.9 Q9.35 -55.05 13.1 -55.3 17.2 -55.5 18.0 -51.7 18.4 -49.75 17.9 -47.9 L16.55 -44.15 Q14.7 -40.15 5.7 -41.9 L-0.45 -39.0 Q-4.75 -38.0 -7.45 -39.6 M24.85 -15.9 L30.7 -1.55 32.25 1.55 7.0 16.1 -9.9 27.0 -18.9 18.0 -14.05 0.2 -9.15 -15.45 -3.5 -10.05 0.25 -7.45 Q5.05 -4.95 10.45 -5.55 L12.1 -6.0 Q18.25 -6.45 22.1 -10.85 23.35 -12.25 24.0 -14.15 L24.85 -15.9 M12.4 -48.75 Q5.25 -46.9 11.7 -43.45 16.7 -46.9 12.4 -48.75 M-24.15 69.85 L-32.45 64.85 -35.75 57.4 Q-34.15 52.7 -34.45 50.1 L-30.6 45.85 -27.45 47.7 -5.0 57.55 12.55 63.55 13.25 63.85 Q29.1 67.4 18.0 56.55 L5.85 42.85 -4.15 32.7 -3.9 32.55 9.85 31.1 28.55 27.4 45.4 21.85 Q53.1 30.55 46.0 48.25 L44.1 52.25 Q42.55 55.4 40.6 58.25 39.6 59.7 38.25 60.85 L36.45 62.1 Q26.25 68.6 15.35 73.55 9.7 76.0 3.4 77.0 L-0.45 77.4 -2.75 77.0 -14.9 75.0 -24.15 69.85 M0.7 -41.45 Q5.7 -47.15 -1.3 -46.3 -5.15 -41.15 0.7 -41.45" fill="#ffffff" fill-rule="evenodd" stroke="none"/>
    <path d="M16.55 -44.15 Q18.9 -43.0 20.55 -40.95 23.6 -37.2 24.85 -32.1 26.9 -23.95 24.85 -15.9 L24.0 -14.15 Q23.35 -12.25 22.1 -10.85 18.25 -6.45 12.1 -6.0 L10.45 -5.55 Q5.05 -4.95 0.25 -7.45 L-3.5 -10.05 -9.15 -15.45 -13.25 -23.65 Q-14.5 -26.15 -13.95 -28.8 -12.55 -35.3 -7.45 -39.6 -4.75 -38.0 -0.45 -39.0 L5.7 -41.9 Q14.7 -40.15 16.55 -44.15 M-24.15 69.85 L-14.9 75.0 -2.75 77.0 Q-2.8 82.05 -3.7 87.05 L-4.1 89.65 Q-4.55 93.35 -7.15 96.1 -8.2 97.25 -9.35 98.1 -10.05 98.7 -10.85 98.85 -17.65 100.95 -24.65 100.2 -31.95 99.7 -38.75 97.0 L-43.5 94.65 Q-45.6 93.45 -47.4 91.9 L-50.35 88.75 Q-53.0 85.35 -53.5 80.8 -53.8 78.4 -53.25 76.15 -51.4 68.7 -48.9 61.4 L-45.15 64.0 Q-43.95 64.15 -42.8 64.9 L-41.75 65.4 -24.15 69.85 M3.4 77.0 Q9.7 76.0 15.35 73.55 26.25 68.6 36.45 62.1 L38.25 60.85 Q39.6 59.7 40.6 58.25 42.55 55.4 44.1 52.25 L50.4 62.4 Q54.7 70.55 55.0 76.7 56.4 95.4 27.4 100.25 15.0 101.85 8.1 96.25 4.85 95.0 3.4 77.0" fill="#e58508" fill-rule="evenodd" stroke="none"/>
    <path d="M12.4 -48.75 Q16.7 -46.9 11.7 -43.45 5.25 -46.9 12.4 -48.75 M0.7 -41.45 Q-5.15 -41.15 -1.3 -46.3 5.7 -47.15 0.7 -41.45" fill="#1f001f" fill-rule="evenodd" stroke="none"/>
    <path d="M-42.9 -2.6 L-40.9 -1.45 -36.6 -11.3 -36.75 -11.75 -36.0 -12.6 -36.15 -13.0 Q-35.8 -13.45 -35.6 -14.0 L-33.5 -18.85 -31.0 -24.6 -31.15 -25.0 -30.6 -24.75 -32.6 -14.6 -35.9 2.4 -43.3 -2.45 -42.9 -2.6 M68.0 0.0 Q68.55 1.25 66.25 6.4 L60.85 12.4 59.85 22.1 58.1 29.4 53.85 38.55 46.0 48.25 44.1 52.0 49.0 60.0 46.4 64.55 45.4 67.25 44.55 68.4 30.7 80.0 14.4 86.55 8.4 87.25 6.55 88.1 5.7 89.4 Q4.4 94.0 16.85 97.7 L18.25 94.7 20.7 92.1 29.4 85.1 51.7 69.0 Q55.85 69.55 54.4 83.25 53.25 96.55 22.4 100.55 L15.55 100.0 Q12.1 99.4 8.55 97.0 5.0 95.7 3.55 77.0 L0.0 77.4 -1.75 77.1 Q-3.45 92.25 -7.45 97.0 -12.9 101.25 -25.75 100.25 -37.15 100.0 -48.75 91.0 -59.3 81.7 -48.9 61.4 -61.75 54.4 -65.45 37.4 -67.75 17.7 -61.6 -2.15 -66.0 16.25 -61.45 19.0 L-56.45 24.4 -48.45 32.0 -47.6 33.0 -49.3 32.55 -47.3 34.55 -26.9 46.55 -2.75 57.25 Q19.0 67.25 22.7 63.0 19.0 68.25 -2.75 58.4 L-27.15 47.85 -42.9 38.55 Q-43.75 38.85 -44.3 44.1 L-45.75 54.55 -40.9 57.1 -35.75 58.7 Q-35.0 58.25 -35.9 55.85 L-35.0 55.7 -30.15 60.4 -22.6 66.0 -4.9 71.1 Q39.85 71.55 48.55 33.55 L45.4 22.4 44.0 22.25 29.85 27.1 10.0 31.1 -3.75 32.55 -3.9 33.0 -1.75 35.1 -4.0 35.1 Q-7.9 36.0 -10.15 37.85 L-11.0 37.7 -12.75 35.25 Q-9.9 33.25 -12.9 30.0 -7.45 35.1 30.85 22.1 67.55 7.7 68.0 0.0 M33.25 -20.45 L33.85 -20.15 44.1 -4.9 39.0 -1.9 38.4 -2.0 33.25 -20.45 M8.1 -5.6 Q20.25 -3.75 26.1 -20.15 28.7 -7.0 23.7 6.7 L11.7 13.55 Q-2.75 17.4 -13.3 -23.45 -7.15 -8.75 8.1 -5.6 M-49.75 77.4 L-37.45 86.55 Q-31.45 91.4 -28.45 97.25 L-26.75 97.4 -26.0 98.0 -20.45 98.1 Q-2.6 96.7 -5.75 88.55 -6.6 87.4 -10.9 86.55 L-21.15 84.25 -35.0 75.1 -40.9 73.85 -46.9 71.1 -47.75 71.1 -49.75 77.4" fill="#000000" fill-opacity="0.49803922" fill-rule="evenodd" stroke="none"/>
  </g>
</svg>
