<?xml version="1.0" encoding="UTF-8" standalone="no"?>
<svg xmlns:ffdec="https://www.free-decompiler.com/flash" xmlns:xlink="http://www.w3.org/1999/xlink" ffdec:objectType="shape" height="168.1px" width="144.65px" xmlns="http://www.w3.org/2000/svg">
  <g transform="matrix(1.0, 0.0, 0.0, 1.0, 66.45, 67.5)">
    <path d="M-9.75 -51.15 L-12.75 -55.0 -13.3 -59.45 -12.35 -60.6 Q-9.95 -62.7 -7.15 -63.9 -3.7 -65.3 0.1 -66.0 L0.8 -66.0 3.3 -66.6 Q5.8 -67.4 8.45 -67.35 L12.15 -67.15 Q13.05 -66.8 13.3 -65.95 14.25 -63.05 14.6 -59.9 14.8 -57.8 13.4 -56.15 12.7 -53.3 3.1 -54.6 L-2.6 -51.6 Q-4.45 -50.45 -9.75 -51.15 M8.85 -56.3 Q13.7 -60.15 9.4 -61.75 2.85 -59.6 8.85 -56.3 M-19.6 68.85 Q-26.1 64.6 -31.3 59.15 -34.05 56.25 -35.45 52.1 -34.75 50.4 -34.3 48.6 -33.95 47.05 -33.9 45.4 -29.85 37.55 -26.6 29.35 -21.85 17.25 -18.5 4.7 -16.05 -4.45 -14.15 -13.75 L14.45 -11.25 29.7 -10.3 Q33.6 -3.5 37.8 3.2 L41.7 9.3 Q43.65 12.35 45.1 15.65 46.6 19.1 47.3 22.75 48.35 28.35 47.35 33.8 45.75 42.25 42.7 50.4 L41.7 52.0 41.85 52.4 35.85 57.85 34.95 58.45 Q25.2 64.9 14.7 69.75 9.3 72.25 3.25 73.25 L0.55 73.7 -2.3 73.25 -13.6 71.85 -19.6 68.85 M-1.9 -54.15 Q2.85 -60.0 -3.3 -59.3 -7.75 -53.75 -1.9 -54.15" fill="#ffffff" fill-rule="evenodd" stroke="none"/>
    <path d="M8.85 -56.3 Q2.85 -59.6 9.4 -61.75 13.7 -60.15 8.85 -56.3 M-1.9 -54.15 Q-7.75 -53.75 -3.3 -59.3 2.85 -60.0 -1.9 -54.15" fill="#1f001f" fill-rule="evenodd" stroke="none"/>
    <path d="M-9.75 -51.15 Q-4.45 -50.45 -2.6 -51.6 L3.1 -54.6 Q12.7 -53.3 13.4 -56.15 18.35 -53.6 20.35 -48.35 L21.1 -46.45 7.15 -42.3 0.4 -39.9 0.0 -39.15 -13.9 -45.75 -9.75 -51.15 M42.7 50.4 Q51.1 59.4 55.0 76.7 56.4 95.4 27.4 100.25 15.0 101.85 8.1 96.25 4.0 92.85 3.25 73.25 9.3 72.25 14.7 69.75 25.2 64.9 34.95 58.45 L35.85 57.85 41.85 52.4 41.7 52.0 42.7 50.4 M-2.3 73.25 L-3.8 87.8 -4.4 90.8 Q-6.15 96.8 -11.55 99.15 -13.75 100.05 -16.1 100.15 -30.6 101.4 -43.55 94.75 -49.75 91.55 -52.45 85.05 -53.75 82.0 -53.55 78.5 -53.3 74.45 -52.15 70.6 -50.7 65.6 -48.6 60.85 -46.35 62.2 -43.95 63.15 L-42.1 63.95 Q-35.4 66.05 -28.5 67.55 L-19.6 68.85 -13.6 71.85 -2.3 73.25" fill="#e58508" fill-rule="evenodd" stroke="none"/>
    <path d="M3.1 -35.6 L16.4 -30.75 1.4 -30.75 Q-2.15 -32.9 2.7 -35.0 L2.85 -35.3 2.75 -35.35 2.95 -35.5 3.1 -35.6 M21.4 -10.3 Q17.0 -3.6 8.4 -4.3 2.1 -3.75 -5.3 -12.45 L-9.45 -12.75 -24.0 -15.9 -15.9 -8.0 -13.3 -6.75 -6.3 -0.6 -1.9 4.1 7.55 15.55 Q28.7 -5.0 54.25 1.7 L49.7 -8.3 41.7 -21.9 24.55 -26.45 17.0 -30.45 Q71.85 -13.9 78.2 -38.1 74.1 -18.15 54.25 -21.0 L56.85 -10.3 58.1 -2.9 59.0 6.1 58.7 13.55 Q57.25 33.55 42.7 50.1 L48.0 58.25 Q46.0 57.7 43.25 64.55 L35.4 71.85 48.1 80.4 Q51.7 83.1 52.25 85.1 53.55 85.85 54.7 82.55 53.1 97.0 22.4 100.55 4.7 100.7 4.55 87.4 9.85 100.25 21.4 98.1 L27.85 98.0 27.7 97.55 33.0 97.0 38.4 95.4 45.7 92.1 43.7 90.4 Q9.0 82.1 4.7 86.0 3.85 85.7 3.7 82.0 L3.1 73.25 1.1 73.7 -2.15 73.25 -2.6 81.0 -3.6 86.85 -4.3 85.55 -5.75 84.4 -19.45 81.85 -31.0 75.25 -33.6 73.25 -37.75 72.7 -50.45 68.0 -51.6 68.0 -51.0 66.0 Q-50.3 65.7 -48.45 61.0 -60.9 53.25 -64.3 42.0 L-65.6 37.0 -66.3 30.1 -66.45 21.4 -66.0 13.0 -64.75 3.85 -62.45 -6.8 -62.3 -6.8 -61.9 -6.8 Q-68.9 25.4 -59.45 41.4 L-62.45 29.55 -61.75 24.55 -59.6 15.25 -58.15 11.0 -57.45 -0.9 -53.6 -22.75 -52.0 -28.3 -53.75 -31.15 -53.45 -31.3 -54.0 -32.45 Q-52.9 -32.6 -50.75 -27.45 L-34.45 -20.15 -33.9 -19.75 -35.3 -19.6 -31.75 -18.3 -12.3 -14.0 18.25 -11.15 39.0 -10.9 Q43.55 -10.6 44.0 -11.9 L43.7 -10.9 42.7 -10.6 21.4 -10.3 M30.4 47.0 Q34.0 53.1 33.55 54.25 L34.0 54.4 Q48.25 42.0 43.25 37.1 L34.55 34.55 27.85 33.1 20.0 32.55 30.4 47.0 M-59.15 41.85 L-59.6 42.0 Q-54.45 50.8 -45.25 55.4 -39.65 58.2 -33.45 59.1 L-33.3 58.55 -40.45 53.1 Q-45.4 49.4 -50.7 46.35 -53.6 44.6 -56.9 43.55 L-57.6 42.85 -58.6 42.7 -59.15 41.85 M-31.3 55.85 L-3.45 68.1 4.1 67.4 Q-5.4 63.25 -15.15 59.8 -22.9 57.15 -30.9 55.25 L-31.3 55.85 M-26.45 98.0 Q-5.9 99.25 -4.15 89.55 -3.3 99.0 -19.0 100.4 -40.3 101.35 -50.25 87.95 -43.95 94.15 -26.45 98.0 M-3.45 87.0 L-3.6 87.25 -3.9 87.0 -3.45 87.0" fill="#000000" fill-opacity="0.49803922" fill-rule="evenodd" stroke="none"/>
  </g>
</svg>
