<?xml version="1.0" encoding="UTF-8" standalone="no"?>
<svg xmlns:ffdec="https://www.free-decompiler.com/flash" xmlns:xlink="http://www.w3.org/1999/xlink" ffdec:objectType="shape" height="195.35px" width="147.0px" xmlns="http://www.w3.org/2000/svg">
  <g transform="matrix(1.0, 0.0, 0.0, 1.0, 66.9, 94.75)">
    <path d="M-12.3 -62.3 Q-14.3 -66.15 -15.05 -70.2 -15.3 -71.65 -14.2 -73.2 -12.55 -75.55 -9.95 -75.9 L10.4 -77.0 10.8 -75.4 11.0 -68.6 10.0 -67.3 9.55 -66.45 0.1 -66.45 Q-3.85 -64.55 -7.95 -63.15 -10.05 -62.45 -12.3 -62.3 M19.25 -38.9 L26.05 -23.8 Q31.25 -11.35 38.45 0.0 L42.5 6.75 Q45.0 11.05 46.35 15.95 48.4 23.25 47.0 30.9 45.35 39.85 41.0 48.1 35.55 53.65 29.6 58.35 23.3 63.35 15.75 65.95 9.55 68.05 3.1 69.25 L-2.15 69.25 -15.3 67.1 Q-19.55 65.9 -23.25 63.75 -27.6 61.05 -31.75 58.0 -33.2 51.1 -33.6 44.15 -33.8 41.15 -32.65 38.25 -28.5 27.75 -25.25 17.05 -21.2 3.85 -18.55 -9.75 -15.7 -24.25 -12.15 -38.6 -4.25 -32.75 5.3 -32.05 L8.85 -32.75 Q13.25 -33.0 16.85 -35.8 18.5 -37.0 19.25 -38.9 M6.1 -73.9 Q-0.6 -71.9 5.7 -68.3 10.25 -72.15 6.1 -73.9 M-4.75 -66.15 Q-0.45 -72.3 -6.6 -71.3 -10.45 -65.45 -4.75 -66.15" fill="#ffffff" fill-rule="evenodd" stroke="none"/>
    <path d="M10.0 -67.3 Q14.3 -64.85 16.55 -60.4 17.5 -58.6 18.0 -56.65 19.55 -50.4 20.45 -43.95 L20.3 -42.35 19.25 -38.9 Q18.5 -37.0 16.85 -35.8 13.25 -33.0 8.85 -32.75 L5.3 -32.05 Q-4.25 -32.75 -12.15 -38.6 -14.9 -42.45 -17.25 -46.5 -17.8 -47.45 -17.75 -48.6 L-17.3 -53.35 Q-16.45 -58.85 -12.3 -62.3 -10.05 -62.45 -7.95 -63.15 -3.85 -64.55 0.1 -66.45 L9.55 -66.45 10.0 -67.3 M41.0 48.1 Q51.7 60.0 55.0 76.7 56.4 95.4 27.4 100.25 15.0 101.85 8.1 96.25 3.85 94.1 3.1 69.25 9.55 68.05 15.75 65.95 23.3 63.35 29.6 58.35 35.55 53.65 41.0 48.1 M-2.15 69.25 L-3.85 87.75 -4.4 90.8 Q-5.35 94.35 -8.1 97.0 -9.85 98.7 -12.25 99.35 L-18.55 100.3 Q-31.85 100.9 -43.6 94.85 -47.55 92.7 -50.4 88.8 -52.35 86.15 -53.05 83.05 -53.55 80.75 -53.4 78.5 -53.15 73.95 -51.8 69.6 -50.25 64.7 -48.0 60.0 -44.1 62.05 -39.7 63.4 -34.95 64.8 -30.05 65.4 L-15.3 67.1 -2.15 69.25" fill="#e58508" fill-rule="evenodd" stroke="none"/>
    <path d="M6.1 -73.9 Q10.25 -72.15 5.7 -68.3 -0.6 -71.9 6.1 -73.9 M-4.75 -66.15 Q-10.45 -65.45 -6.6 -71.3 -0.45 -72.3 -4.75 -66.15" fill="#1f001f" fill-rule="evenodd" stroke="none"/>
    <path d="M11.5 -94.55 L11.55 -94.75 21.25 -88.3 9.7 -91.0 9.25 -92.0 9.55 -92.75 12.7 -93.45 11.5 -94.55 M55.4 -82.15 L49.55 -80.9 51.7 -79.45 57.7 -74.0 57.55 -68.75 65.85 -65.75 Q67.25 -67.45 80.1 -65.15 L78.0 -63.15 72.25 -63.45 59.85 -57.15 47.25 -52.15 42.25 -50.9 42.1 -50.45 45.1 -45.0 49.25 -34.15 53.0 -20.75 Q47.1 -32.75 21.7 -39.9 24.1 -21.45 6.0 -20.15 -9.0 -20.3 -17.75 -45.75 -5.45 -28.15 11.4 -33.15 30.4 -46.45 12.1 -54.15 -11.0 -57.0 -17.75 -48.6 L-33.75 -50.15 Q-38.75 -38.75 -44.9 -37.6 L-47.15 -37.75 -48.6 -38.3 Q-54.6 -41.9 -47.9 -72.0 -45.9 -70.45 -47.0 -54.45 L-45.15 -48.6 Q-38.6 -44.15 -34.45 -59.3 -35.5 -64.95 -36.85 -68.75 -37.05 -71.6 -37.85 -76.55 L-38.35 -79.65 -27.45 -79.15 -21.3 -78.0 -33.75 -78.3 -18.45 -77.3 2.25 -77.3 27.7 -79.0 55.0 -82.45 55.4 -82.15 M18.0 -68.6 L23.1 -68.3 27.7 -67.3 30.4 -66.15 42.4 -74.45 35.0 -79.0 9.55 -76.9 Q12.25 -74.0 11.7 -73.0 L18.0 -68.6 M-26.45 98.0 Q-5.9 99.25 -4.15 89.55 -3.3 99.0 -19.0 100.4 -40.3 101.35 -50.25 87.95 -43.95 94.15 -26.45 98.0 M4.55 87.4 Q6.55 100.25 27.85 98.0 51.0 93.55 54.7 82.25 53.1 97.1 22.4 100.55 4.7 100.7 4.55 87.4 M54.1 -16.75 L55.65 -6.85 Q56.6 1.6 56.55 10.1 56.55 15.5 55.65 20.85 54.5 27.75 51.1 34.0 49.15 37.65 46.55 41.05 L41.0 48.0 45.7 54.55 43.4 59.4 43.0 59.55 42.85 60.4 Q29.4 69.3 15.25 76.85 10.5 79.4 5.15 81.05 4.35 81.25 3.7 82.0 L3.25 69.25 1.85 69.4 -2.0 69.25 -2.9 82.55 Q-4.2 81.45 -5.65 80.9 -18.95 75.8 -32.55 71.6 L-46.1 67.8 -50.9 66.25 -49.15 62.2 -48.0 60.1 Q-52.3 56.9 -55.7 52.9 -60.6 47.25 -63.5 40.35 -65.6 35.3 -66.25 29.7 -67.8 15.85 -65.65 2.25 L-64.75 -3.1 Q-66.15 6.7 -65.7 16.6 -65.15 28.25 -60.9 39.0 -59.75 41.85 -57.8 44.15 -53.9 48.95 -48.55 51.85 -40.75 56.05 -32.15 58.85 -32.25 57.85 -32.5 56.9 L-33.85 51.35 -33.65 51.35 Q-33.15 51.45 -32.7 51.7 -30.75 52.55 -29.2 53.7 -24.45 57.5 -19.05 58.7 -3.2 62.1 12.75 59.75 22.25 58.2 30.1 51.95 37.1 46.45 43.0 39.55 42.9 38.3 43.7 37.05 L44.0 36.25 47.4 21.85 47.9 22.6 Q48.4 23.75 48.4 24.95 L48.4 26.15 48.35 27.55 48.25 29.1 49.0 29.55 50.75 25.3 Q51.35 23.45 52.45 21.75 L52.7 21.2 Q54.45 11.25 54.7 1.25 54.9 -7.7 53.7 -16.6 L54.1 -16.75" fill="#000000" fill-opacity="0.49803922" fill-rule="evenodd" stroke="none"/>
  </g>
</svg>
