<?xml version="1.0" encoding="UTF-8" standalone="no"?>
<svg xmlns:ffdec="https://www.free-decompiler.com/flash" xmlns:xlink="http://www.w3.org/1999/xlink" ffdec:objectType="shape" height="188.05px" width="150.2px" xmlns="http://www.w3.org/2000/svg">
  <g transform="matrix(1.0, 0.0, 0.0, 1.0, 66.45, 87.45)">
    <path d="M-11.0 -53.75 Q-12.5 -55.85 -13.45 -58.15 -14.25 -60.05 -13.9 -62.05 -13.55 -64.15 -11.6 -65.45 -5.95 -69.4 0.25 -67.9 1.8 -69.1 3.85 -69.45 6.9 -69.6 9.95 -69.35 13.25 -68.85 13.8 -65.5 L13.95 -64.15 Q14.3 -60.6 12.25 -57.9 11.4 -55.0 1.7 -56.75 -6.6 -52.0 -11.0 -53.75 M20.55 -29.9 L25.4 -19.3 27.55 -12.15 34.1 0.55 Q27.0 8.7 37.4 7.55 L38.55 7.55 Q55.0 26.0 42.7 48.85 L42.25 49.7 41.1 51.55 39.5 53.9 38.65 54.8 34.85 57.85 Q29.85 61.85 24.2 64.4 13.95 69.1 3.1 72.4 L-2.3 72.85 -2.9 72.7 -20.9 67.7 -33.75 59.7 -37.35 49.6 -37.45 48.3 Q-37.15 46.05 -36.35 44.25 L-30.2 30.7 Q-27.15 24.25 -24.85 17.5 L-20.9 5.7 6.55 14.0 25.05 17.75 33.1 19.1 33.85 18.15 35.0 16.25 29.65 10.9 16.25 -1.3 -3.45 -17.45 -13.6 -25.15 -12.0 -29.15 Q-8.9 -25.25 -4.5 -23.05 2.05 -20.05 9.25 -21.75 L12.35 -22.55 Q17.95 -24.4 20.55 -29.9 M7.4 -58.3 Q12.0 -61.0 8.4 -63.75 1.1 -61.9 7.4 -58.3 M-3.3 -56.6 Q1.0 -62.3 -4.6 -61.9 -9.6 -56.3 -3.3 -56.6" fill="#ffffff" fill-rule="evenodd" stroke="none"/>
    <path d="M7.4 -58.3 Q1.1 -61.9 8.4 -63.75 12.0 -61.0 7.4 -58.3 M-3.3 -56.6 Q-9.6 -56.3 -4.6 -61.9 1.0 -62.3 -3.3 -56.6" fill="#1f001f" fill-rule="evenodd" stroke="none"/>
    <path d="M-11.0 -53.75 Q-6.6 -52.0 1.7 -56.75 11.4 -55.0 12.25 -57.9 16.45 -55.95 18.4 -51.4 19.3 -49.3 19.7 -47.05 20.9 -40.45 21.45 -33.75 L21.4 -33.15 Q21.15 -31.4 20.55 -29.9 17.95 -24.4 12.35 -22.55 L9.25 -21.75 Q2.05 -20.05 -4.5 -23.05 -8.9 -25.25 -12.0 -29.15 L-16.3 -36.35 -16.8 -37.9 Q-17.65 -43.65 -15.1 -49.05 -13.7 -51.95 -11.0 -53.75 M42.25 49.7 Q51.25 59.85 55.0 76.7 56.4 95.4 27.4 100.25 15.0 101.85 8.1 96.25 4.0 93.25 3.1 72.4 13.95 69.1 24.2 64.4 29.85 61.85 34.85 57.85 L38.65 54.8 39.5 53.9 41.1 51.55 42.25 49.7 M-2.3 72.85 L-3.8 87.75 -4.4 90.8 Q-6.15 96.8 -11.55 99.15 -13.75 100.05 -16.1 100.15 -30.6 101.4 -43.55 94.75 -49.75 91.55 -52.3 85.0 L-53.45 80.8 Q-53.8 78.4 -53.3 76.1 -51.95 69.85 -49.7 63.85 L-47.75 59.55 -43.45 62.0 Q-41.8 62.9 -39.5 63.55 L-30.8 65.85 -20.9 67.7 -2.9 72.7 -2.3 72.85" fill="#e58508" fill-rule="evenodd" stroke="none"/>
    <path d="M-56.0 -32.15 L-55.6 -32.15 -55.75 -31.9 -56.0 -32.15 M-25.0 -87.15 L-25.3 -87.45 -24.9 -87.45 -25.0 -87.15 M64.0 -4.45 L69.1 -8.6 79.1 -15.6 83.0 -20.15 83.65 -20.0 83.65 -19.8 83.4 -18.75 83.75 -18.8 83.75 -18.2 83.75 -16.6 Q76.3 -2.1 59.25 3.4 62.7 28.25 46.0 45.7 L42.25 49.7 47.0 56.85 43.85 63.0 Q29.4 79.55 17.7 80.55 L28.4 89.1 Q33.4 93.0 34.25 96.1 L35.1 96.4 43.0 93.55 44.85 88.25 48.85 81.4 53.85 74.55 54.7 74.55 55.1 77.0 54.55 82.85 52.85 86.85 Q46.85 98.85 22.4 100.55 L15.55 100.0 Q10.7 99.0 8.1 96.55 3.4 90.55 3.1 72.4 L-2.15 72.85 -3.0 84.4 -4.0 89.55 -5.75 94.55 -7.45 97.0 Q-12.45 100.7 -22.75 100.4 L-30.75 99.55 Q-46.75 95.55 -50.9 88.4 L-53.15 83.7 -53.6 82.4 -53.0 82.25 Q-53.45 87.7 -37.3 95.25 -18.15 100.85 -9.3 95.4 L-10.9 93.55 -14.0 92.0 -24.15 88.7 -46.6 79.1 -50.75 77.0 -53.75 76.7 Q-54.0 69.85 -47.6 59.55 -60.6 52.0 -64.45 39.1 L-65.0 37.85 -66.3 29.7 -66.45 19.4 -65.9 10.45 -65.6 9.8 Q-64.85 8.4 -64.2 6.5 L-64.45 12.25 -64.9 14.1 -64.3 25.0 -64.15 26.1 -63.6 26.4 -61.15 7.0 -57.6 -11.3 Q-57.45 -14.75 -56.3 -14.6 L-56.75 -14.9 -56.6 -15.6 -57.05 -16.95 Q-52.75 -11.95 -39.9 -4.0 L-18.0 6.0 6.25 13.25 23.85 17.25 26.0 17.25 33.0 18.55 33.55 18.25 34.25 16.85 Q30.55 15.0 32.7 13.7 L33.85 14.55 35.25 16.1 Q34.85 18.0 33.25 19.1 L26.0 18.25 10.85 15.0 -17.6 6.85 -35.45 -0.9 Q-6.0 21.1 16.55 64.0 L28.85 58.25 42.0 45.7 47.55 28.7 48.1 28.85 48.25 33.4 48.55 33.7 49.25 33.25 52.0 28.7 53.0 26.1 53.4 26.0 Q54.55 22.1 55.4 22.1 L55.85 20.4 58.0 8.85 56.25 4.25 46.85 6.7 38.7 7.55 32.25 7.1 31.1 5.55 Q35.7 9.0 64.0 -4.45 M3.85 -21.15 Q18.7 -20.6 22.1 -34.3 24.85 -10.15 9.85 -7.3 L8.85 -7.3 -5.45 -19.0 -13.3 -24.9 -14.15 -26.9 -16.6 -37.0 Q-7.15 -21.6 3.85 -21.15 M36.55 -33.0 L37.25 -33.15 57.15 -21.15 57.25 -20.9 56.55 -20.6 54.7 -21.6 55.4 -19.15 48.4 -13.0 48.0 -13.15 36.55 -33.0" fill="#000000" fill-opacity="0.49803922" fill-rule="evenodd" stroke="none"/>
  </g>
</svg>
