<?xml version="1.0" encoding="UTF-8" standalone="no"?>
<svg xmlns:ffdec="https://www.free-decompiler.com/flash" xmlns:xlink="http://www.w3.org/1999/xlink" ffdec:objectType="shape" height="160.05px" width="154.1px" xmlns="http://www.w3.org/2000/svg">
  <g transform="matrix(1.0, 0.0, 0.0, 1.0, 77.6, 58.9)">
    <path d="M-10.6 -44.3 Q-12.05 -46.55 -12.95 -48.9 -13.6 -50.75 -13.0 -52.45 -12.35 -54.2 -10.6 -54.75 -5.45 -56.7 0.0 -57.75 L0.7 -57.3 1.25 -57.3 2.0 -57.9 3.25 -58.15 6.85 -58.9 11.5 -58.15 Q13.45 -57.45 15.25 -56.15 L15.3 -51.6 Q15.35 -48.95 13.55 -47.3 12.0 -43.9 2.25 -46.15 -4.15 -42.0 -10.6 -44.3 M20.7 -20.45 L25.4 -10.0 27.55 -2.75 35.0 12.25 Q43.7 19.1 47.1 32.1 L47.55 41.7 45.0 49.0 42.85 52.55 38.35 59.25 37.6 59.95 Q30.95 64.65 23.8 68.4 16.15 72.3 7.9 74.75 5.65 75.45 3.25 75.55 L-2.45 75.85 -5.95 75.15 Q-16.9 71.35 -27.6 67.0 L-32.0 63.85 Q-35.15 56.2 -37.75 48.4 -38.15 47.2 -38.0 45.85 -35.75 42.25 -33.85 38.5 -29.95 30.75 -26.65 22.75 -23.8 15.85 -21.55 8.75 -18.05 -2.45 -14.8 -13.75 L-13.65 -17.3 -13.0 -19.3 Q-11.3 -17.25 -9.25 -15.55 -6.1 -12.95 -2.3 -11.65 1.8 -10.35 6.25 -9.9 9.15 -10.0 11.95 -11.1 18.7 -13.7 20.7 -20.45 M8.25 -47.3 Q13.1 -50.15 9.25 -52.6 1.7 -51.0 8.25 -47.3 M-3.0 -46.0 Q2.25 -51.45 -5.0 -50.9 -8.9 -46.3 -3.0 -46.0" fill="#ffffff" fill-rule="evenodd" stroke="none"/>
    <path d="M-10.6 -44.3 Q-4.15 -42.0 2.25 -46.15 12.0 -43.9 13.55 -47.3 15.85 -46.65 17.4 -44.5 18.3 -43.25 18.7 -41.85 20.65 -35.15 21.15 -28.25 21.4 -24.4 20.7 -20.45 18.7 -13.7 11.95 -11.1 9.15 -10.0 6.25 -9.9 1.8 -10.35 -2.3 -11.65 -6.1 -12.95 -9.25 -15.55 -11.3 -17.25 -13.0 -19.3 -15.35 -24.0 -16.5 -29.3 -17.05 -31.75 -16.6 -34.25 L-15.45 -38.3 Q-14.1 -42.05 -10.6 -44.3 M42.85 52.55 L43.7 52.0 49.55 61.1 50.55 63.1 47.4 74.7 47.35 75.35 45.6 82.6 45.3 83.85 44.25 91.0 45.4 91.85 47.7 92.1 55.0 78.7 Q55.05 86.1 49.8 91.25 47.35 93.6 44.25 95.1 36.1 99.1 27.4 100.25 20.65 101.35 14.1 99.45 10.75 98.45 8.1 96.25 6.35 94.85 5.85 92.75 3.75 84.3 3.25 75.55 5.65 75.45 7.9 74.75 16.15 72.3 23.8 68.4 30.95 64.65 37.6 59.95 L38.35 59.25 42.85 52.55 M-2.45 75.85 L-3.85 88.1 Q-4.4 92.65 -7.2 96.05 -9.85 99.25 -14.0 99.9 -29.65 102.0 -43.55 94.75 -49.75 91.55 -52.45 85.05 -53.75 82.0 -53.9 78.5 -54.1 73.35 -52.0 68.4 L-51.0 69.35 -49.75 71.25 -49.3 71.4 -49.15 72.0 -48.9 72.0 Q-48.1 72.5 -47.55 73.25 -46.35 75.0 -44.6 76.25 L-44.6 76.7 -41.45 79.85 -41.6 80.25 Q-40.95 80.65 -40.4 81.2 L-26.0 95.7 -23.8 97.45 Q-21.0 99.1 -19.3 96.55 L-21.65 89.4 -21.9 88.7 -30.9 66.25 -27.6 67.0 Q-16.9 71.35 -5.95 75.15 L-2.45 75.85" fill="#e58508" fill-rule="evenodd" stroke="none"/>
    <path d="M8.25 -47.3 Q1.7 -51.0 9.25 -52.6 13.1 -50.15 8.25 -47.3 M-3.0 -46.0 Q-8.9 -46.3 -5.0 -50.9 2.25 -51.45 -3.0 -46.0" fill="#1f001f" fill-rule="evenodd" stroke="none"/>
    <path d="M22.4 -25.15 Q24.85 4.1 7.85 7.55 -9.45 11.4 -17.0 -28.3 -10.75 -12.45 1.7 -9.9 17.25 -7.75 22.4 -25.15 M-77.15 26.55 L-76.15 28.1 -73.15 36.1 -71.0 40.4 -60.75 55.4 -55.9 61.85 -39.3 81.0 -28.45 92.4 Q-24.35 95.8 -20.6 97.05 L-19.9 96.85 -20.3 97.15 Q-11.15 100.0 -4.0 89.55 -3.45 99.0 -19.0 100.4 -36.9 102.0 -50.9 88.4 L-53.15 83.7 -53.6 82.4 -53.0 82.25 Q-51.45 92.7 -26.45 97.85 L-22.9 97.85 -26.75 94.85 -40.15 81.55 -57.3 62.25 -71.15 42.25 -72.3 40.85 -76.6 30.1 -77.6 26.55 -77.15 26.55 M-47.15 -1.9 L-46.6 -3.45 -46.15 -3.6 -44.2 -7.25 -39.8 -14.9 Q-37.05 -19.65 -34.9 -24.45 L-34.3 -24.6 -38.35 -9.65 -38.75 -8.25 Q-43.95 8.9 -48.75 26.1 L-56.45 13.55 -47.6 -1.9 -47.15 -1.9 M51.15 85.8 L51.4 85.7 50.7 86.7 51.15 85.8 M76.5 27.75 L75.0 34.0 63.0 61.55 55.0 79.1 54.55 79.25 51.55 85.55 51.4 84.85 61.0 63.7 76.5 27.75 M40.4 -16.15 L40.55 -17.15 62.85 12.55 Q65.25 15.4 66.0 15.4 L65.25 17.4 Q62.4 13.0 61.7 13.0 L61.55 20.4 59.4 29.7 57.4 35.1 54.0 41.0 51.55 44.4 43.85 51.85 48.55 59.4 46.85 61.25 41.85 69.85 27.0 80.85 9.25 86.55 7.7 86.7 5.4 88.1 Q6.4 100.0 27.4 98.0 L27.85 98.0 27.7 97.55 32.7 97.0 36.7 96.0 41.7 94.1 45.85 92.0 44.55 91.4 44.55 90.85 47.55 91.55 Q53.7 85.55 54.0 82.85 L54.25 82.25 54.7 82.4 52.7 87.1 Q47.0 98.7 22.4 100.55 3.25 105.0 3.4 75.55 L-2.3 75.85 -2.6 81.4 -3.9 89.0 Q-5.15 85.85 -24.0 82.0 L-24.6 81.55 -27.45 73.55 -35.3 55.85 Q-0.75 84.1 36.4 55.1 L40.55 50.55 43.7 43.1 44.4 42.25 44.25 41.85 45.0 41.0 44.85 40.55 45.55 39.7 46.85 36.0 47.55 36.0 47.85 37.7 49.25 36.7 53.0 31.55 56.0 25.7 52.85 15.1 42.55 -12.15 40.4 -16.15" fill="#000000" fill-opacity="0.49803922" fill-rule="evenodd" stroke="none"/>
  </g>
</svg>
