<?xml version="1.0" encoding="UTF-8" standalone="no"?>
<svg xmlns:ffdec="https://www.free-decompiler.com/flash" xmlns:xlink="http://www.w3.org/1999/xlink" ffdec:objectType="shape" height="147.95px" width="143.0px" xmlns="http://www.w3.org/2000/svg">
  <g transform="matrix(1.0, 0.0, 0.0, 1.0, 74.0, 47.35)">
    <path d="M-11.3 -34.6 L-13.9 -38.6 -14.0 -43.0 Q-12.65 -44.15 -11.1 -44.85 -8.9 -45.95 -6.4 -46.1 L-0.3 -46.45 1.0 -46.15 Q5.4 -47.95 10.2 -47.1 12.15 -46.9 13.95 -46.0 L15.55 -44.9 15.35 -39.9 13.7 -36.45 Q12.85 -32.3 1.4 -35.0 -8.6 -31.0 -11.3 -34.6 M19.7 -10.75 L24.55 0.25 26.25 6.7 32.7 19.55 Q43.1 28.55 46.0 39.55 L46.1 48.7 43.4 55.25 42.25 57.0 38.05 62.35 Q37.15 63.55 36.0 64.35 29.3 69.2 21.85 72.4 12.95 76.25 3.55 78.85 L-2.6 78.7 Q-12.4 76.35 -21.55 72.55 -28.25 69.7 -34.3 65.4 -36.75 62.75 -38.65 59.8 -40.45 56.95 -41.75 53.85 L-41.3 52.85 -40.9 51.95 -40.6 51.1 Q-40.05 49.4 -40.3 47.7 -38.25 45.1 -36.6 42.3 -31.45 33.3 -27.55 23.8 -23.45 13.9 -20.0 3.75 L-15.65 -8.1 -15.0 -9.15 Q-13.2 -5.9 -10.6 -3.1 -7.7 0.0 -3.45 1.05 3.25 2.5 9.5 0.4 11.45 -0.15 13.05 -1.45 L16.6 -5.15 Q18.75 -7.65 19.7 -10.75 M8.55 -40.9 Q1.0 -39.45 7.55 -35.75 12.7 -38.0 8.55 -40.9 M-4.15 -35.0 Q1.7 -40.45 -6.15 -39.75 -9.75 -35.9 -4.15 -35.0" fill="#ffffff" fill-rule="evenodd" stroke="none"/>
    <path d="M13.7 -36.45 Q15.95 -35.5 17.5 -33.35 18.4 -32.1 18.7 -30.75 20.2 -23.7 20.3 -16.45 20.35 -13.6 19.7 -10.75 18.75 -7.65 16.6 -5.15 L13.05 -1.45 Q11.45 -0.15 9.5 0.4 3.25 2.5 -3.45 1.05 -7.7 0.0 -10.6 -3.1 -13.2 -5.9 -15.0 -9.15 -15.7 -11.65 -16.75 -14.2 -19.65 -21.05 -17.25 -27.85 -16.65 -29.5 -15.45 -30.75 L-11.3 -34.6 Q-8.6 -31.0 1.4 -35.0 12.85 -32.3 13.7 -36.45 M42.25 57.0 L44.0 56.0 45.55 54.7 Q52.7 64.1 54.7 75.55 L54.7 75.85 54.85 76.55 Q56.55 95.25 27.4 100.25 15.0 101.85 8.1 96.25 5.0 94.55 3.55 78.85 12.95 76.25 21.85 72.4 29.3 69.2 36.0 64.35 37.15 63.55 38.05 62.35 L42.25 57.0 M-2.6 78.7 Q-3.15 86.2 -5.1 93.2 -5.5 94.55 -6.45 95.6 L-9.4 98.05 -10.3 98.6 Q-14.15 100.35 -18.55 100.3 L-24.65 100.2 Q-33.15 99.5 -41.3 96.05 -48.0 93.2 -51.5 87.0 -53.65 83.15 -53.45 78.5 -53.3 74.35 -52.0 70.5 -50.1 64.65 -47.45 59.1 L-43.35 61.5 Q-39.15 64.1 -34.3 65.4 -28.25 69.7 -21.55 72.55 -12.4 76.35 -2.6 78.7" fill="#e58508" fill-rule="evenodd" stroke="none"/>
    <path d="M8.55 -40.9 Q12.7 -38.0 7.55 -35.75 1.0 -39.45 8.55 -40.9 M-4.15 -35.0 Q-9.75 -35.9 -6.15 -39.75 1.7 -40.45 -4.15 -35.0" fill="#1f001f" fill-rule="evenodd" stroke="none"/>
    <path d="M-17.75 -18.45 L-17.9 -18.15 -18.15 -18.45 -17.75 -18.45 M21.4 -17.3 Q23.1 19.7 5.4 23.55 -12.9 28.25 -18.15 -18.0 -12.6 1.1 3.1 1.7 17.7 1.4 21.4 -17.3 M45.55 -5.15 L44.85 -6.3 45.0 -6.6 45.55 -6.15 55.1 8.25 Q58.0 10.25 60.1 14.25 L60.85 14.55 60.7 15.0 61.85 16.1 68.0 25.85 69.0 26.25 65.85 25.7 63.4 26.1 63.7 23.4 63.0 22.7 Q61.25 43.0 45.7 54.55 L50.0 61.85 48.4 62.1 Q48.85 64.4 39.25 76.1 L23.25 85.4 Q7.55 88.25 6.7 91.1 6.4 98.7 27.4 98.0 46.85 95.7 54.1 83.0 L54.25 82.25 54.7 82.55 52.4 87.7 Q47.1 98.4 22.4 100.55 L15.55 100.0 Q12.1 99.4 8.55 97.0 4.4 92.7 3.7 79.0 L-2.45 78.7 -3.6 87.85 -5.75 94.55 -7.45 97.0 Q-12.45 100.7 -22.75 100.4 L-30.75 99.55 Q-43.3 97.7 -51.45 87.55 L-53.75 82.0 -53.45 81.85 Q-51.3 92.85 -26.45 98.0 -5.45 98.4 -5.15 91.25 L-5.75 90.25 -7.0 89.4 -12.9 88.55 -28.15 82.55 Q-45.3 65.85 -51.15 66.55 -49.15 63.0 -49.45 62.4 L-47.3 59.1 -48.6 58.4 -57.45 50.25 -63.0 40.85 -65.45 30.1 -65.75 25.0 Q-71.9 31.25 -71.45 32.85 L-72.6 32.55 -73.45 32.85 -74.0 32.55 -73.45 32.55 -73.45 32.1 -72.15 31.1 Q-65.9 24.1 -66.15 22.7 L-65.6 22.7 -65.9 22.25 -65.0 22.25 -64.0 20.85 -64.6 20.55 -63.75 20.4 -61.3 17.1 -57.45 13.1 -44.75 -4.0 -40.6 -10.75 -40.15 -10.75 -40.3 -10.0 -45.3 2.1 -47.75 9.25 -50.15 14.55 -54.3 26.1 -57.45 36.85 -56.75 39.1 Q-45.15 53.7 -40.0 51.0 L-30.75 63.4 -14.15 71.1 2.55 73.0 Q27.4 68.85 30.4 62.85 L36.55 57.7 Q37.4 57.7 39.55 53.85 L45.85 42.4 48.1 40.55 54.85 31.7 57.1 26.4 52.25 11.55 45.55 -5.15" fill="#000000" fill-opacity="0.49803922" fill-rule="evenodd" stroke="none"/>
  </g>
</svg>
