<?xml version="1.0" encoding="UTF-8" standalone="no"?>
<svg xmlns:ffdec="https://www.free-decompiler.com/flash" xmlns:xlink="http://www.w3.org/1999/xlink" ffdec:objectType="shape" height="369.5px" width="223.0px" xmlns="http://www.w3.org/2000/svg">
  <g transform="matrix(1.0, 0.0, 0.0, 1.0, 115.0, 110.75)">
    <path d="M-67.5 -102.0 L-65.75 -105.5 -60.0 -110.75 Q-56.8 -85.55 -43.5 -63.5 L-46.35 -59.6 Q-47.75 -57.75 -50.0 -57.75 -64.75 -62.75 -66.5 -73.0 L-64.25 -72.25 -63.5 -72.75 -62.5 -76.75 -63.5 -82.75 Q-66.25 -85.0 -66.75 -83.25 L-68.0 -84.5 -69.75 -91.0 Q-65.5 -92.0 -67.5 -102.0" fill="#ffffff" fill-rule="evenodd" stroke="none"/>
    <path d="M-50.0 -57.75 Q-45.85 -39.25 -53.25 -23.25 L-58.75 -22.75 -77.25 -22.5 -87.0 -23.25 Q-122.9 -30.35 -109.9 -65.65 -105.95 -76.3 -96.05 -82.75 -84.55 -90.2 -71.0 -93.5 L-69.75 -91.0 -68.0 -84.5 -66.75 -83.25 -68.75 -77.25 -66.5 -73.0 Q-64.75 -62.75 -50.0 -57.75 M-39.0 158.5 Q-16.8 185.65 17.65 190.95 25.8 192.0 33.75 191.0 L44.75 212.75 Q35.1 258.0 -7.4 250.8 -42.25 245.0 -59.6 216.35 -72.15 195.6 -54.6 176.3 -46.65 167.55 -39.0 158.5" fill="#e58508" fill-rule="evenodd" stroke="none"/>
    <path d="M-71.0 -93.5 Q-72.75 -100.75 -67.5 -102.0 -65.5 -92.0 -69.75 -91.0 L-71.0 -93.5 M-66.75 -83.25 Q-66.25 -85.0 -63.5 -82.75 L-62.5 -76.75 -63.5 -72.75 -64.25 -72.25 -66.5 -73.0 -68.75 -77.25 -66.75 -83.25" fill="#000000" fill-rule="evenodd" stroke="none"/>
    <path d="M-107.65 -32.35 Q-116.3 -41.5 -114.75 -54.0 -113.7 -41.6 -105.2 -32.55 L-102.8 -30.05 Q-80.8 -23.8 -56.85 -25.85 L-51.25 -26.0 -75.1 0.6 Q-79.6 5.55 -82.75 11.75 L-82.5 12.75 Q-93.9 34.95 -102.75 58.2 -97.1 17.05 -86.75 -23.0 -99.15 -23.35 -107.65 -32.35 M-46.0 137.5 L-53.75 101.25 -53.5 100.85 Q-32.45 144.55 11.95 164.15 L-8.9 66.55 Q3.65 111.0 27.1 150.6 L30.3 155.6 23.75 156.0 Q37.95 196.25 60.3 233.6 66.1 243.3 70.5 253.75 82.95 241.35 86.75 223.35 85.15 232.55 82.3 241.65 79.5 250.55 75.0 258.75 59.15 244.3 50.15 223.85 L45.0 212.5 Q32.55 259.25 -14.3 249.9 -54.75 241.85 -66.5 205.5 -43.65 246.0 3.75 247.15 20.5 247.55 26.45 234.1 29.0 228.45 24.85 222.35 20.1 215.35 14.25 209.25 -13.95 205.2 -35.95 187.25 -41.15 183.05 -45.75 178.25 L-53.5 177.5 -38.75 158.25 -42.25 154.25 Q-86.2 144.85 -99.65 101.05 -105.85 80.75 -102.85 59.75 -98.05 104.55 -61.45 130.8 -54.45 135.8 -46.0 137.5 M104.6 52.25 Q103.8 44.2 102.5 36.5 106.35 50.6 107.5 65.3 111.3 114.05 84.75 155.0 L79.5 142.75 Q85.15 134.65 90.05 126.2 107.65 96.1 105.3 61.6 L104.6 52.25 M88.25 210.9 Q88.75 199.95 88.85 189.0 89.6 202.8 87.85 216.3 L88.25 210.9" fill="#000000" fill-opacity="0.49803922" fill-rule="evenodd" stroke="none"/>
  </g>
</svg>
