<?xml version="1.0" encoding="UTF-8" standalone="no"?>
<svg xmlns:ffdec="https://www.free-decompiler.com/flash" xmlns:xlink="http://www.w3.org/1999/xlink" ffdec:objectType="shape" height="311.75px" width="387.1px" xmlns="http://www.w3.org/2000/svg">
  <g transform="matrix(1.0, 0.0, 0.0, 1.0, 188.7, 146.75)">
    <path d="M13.9 -137.25 Q30.7 -127.7 44.4 -114.0 63.0 -95.55 78.0 -74.0 L108.25 -60.75 143.25 -37.25 Q154.7 -27.7 166.35 -19.65 167.6 -19.75 168.5 -18.9 L169.85 -17.4 Q177.0 -7.55 182.75 3.25 L189.75 30.25 195.75 58.75 198.35 79.2 Q198.65 81.8 197.55 84.3 197.15 85.15 196.2 85.45 193.9 85.35 192.3 83.75 191.3 82.7 190.6 81.5 183.25 69.75 176.25 57.75 L158.0 19.25 120.25 2.75 Q123.7 13.75 125.75 25.05 129.25 44.6 125.65 64.0 123.75 74.4 119.1 83.85 110.3 101.65 94.35 113.6 L87.9 118.6 Q85.45 120.45 82.75 121.5 L80.25 124.5 79.95 124.95 79.5 125.5 Q73.0 133.5 65.0 139.55 51.75 149.75 37.0 158.0 L8.25 165.0 -24.0 162.0 -32.25 160.0 -62.0 146.5 -78.0 129.75 Q-82.05 128.4 -85.45 126.4 L-86.0 126.0 -86.45 125.7 -98.0 118.25 -105.8 112.4 Q-117.9 102.15 -124.55 87.65 -128.7 78.6 -130.4 68.85 -134.4 45.55 -130.5 22.25 L-148.0 33.5 -163.5 64.25 -180.75 91.5 Q-182.8 93.45 -185.15 94.4 L-187.5 94.25 Q-188.55 93.7 -188.6 92.45 -189.15 83.55 -187.25 74.75 L-180.75 41.75 Q-177.75 30.5 -174.35 19.35 -172.9 14.5 -170.3 10.2 -165.5 2.35 -160.0 -5.0 L-159.0 -5.0 Q-148.1 -18.35 -136.45 -31.1 L-123.25 -44.9 Q-109.5 -58.7 -92.25 -67.25 -82.0 -83.35 -70.55 -98.5 -57.85 -115.25 -42.25 -129.1 -28.45 -141.4 -11.0 -146.75 2.3 -143.85 13.9 -137.25" fill="#2e47aa" fill-rule="evenodd" stroke="none"/>
  </g>
</svg>
