<?xml version="1.0" encoding="UTF-8" standalone="no"?>
<svg xmlns:ffdec="https://www.free-decompiler.com/flash" xmlns:xlink="http://www.w3.org/1999/xlink" ffdec:objectType="shape" height="311.25px" width="400.55px" xmlns="http://www.w3.org/2000/svg">
  <g transform="matrix(1.0, 0.0, 0.0, 1.0, 191.55, 146.5)">
    <path d="M108.5 -69.0 L149.75 -51.75 165.5 -43.0 175.0 -38.25 Q177.5 -39.5 182.0 -35.25 L187.25 -27.0 189.0 -25.0 190.25 -21.75 190.5 -21.25 193.5 -16.5 201.75 15.75 208.25 54.5 208.5 55.0 208.5 56.25 208.75 56.75 209.0 58.75 Q208.5 73.75 200.75 63.75 L193.0 51.0 183.0 31.0 175.25 13.75 175.0 13.0 170.5 2.5 139.25 -4.25 112.75 -11.25 Q145.0 71.75 93.0 111.5 L86.75 117.0 84.0 118.5 82.75 119.0 67.0 140.0 41.0 155.5 10.5 164.75 -20.5 163.25 -29.75 161.5 -61.0 148.5 -77.75 132.0 -79.5 131.5 -84.25 129.5 -89.0 126.75 -90.0 126.0 -96.5 122.0 Q-142.75 94.25 -133.0 23.0 L-152.25 35.0 -156.5 43.0 -158.25 47.75 -168.0 65.25 -177.25 80.0 -184.75 89.5 Q-192.0 95.0 -191.5 86.0 L-191.0 77.0 -185.5 44.5 -179.75 21.0 -176.0 9.75 -166.0 -4.0 -165.25 -4.75 -163.5 -4.75 Q-119.0 -59.5 -97.75 -65.5 -57.75 -135.0 -19.0 -146.5 11.0 -147.75 70.0 -78.25 L81.25 -77.25 108.5 -69.0" fill="#2e47aa" fill-rule="evenodd" stroke="none"/>
  </g>
</svg>
