<?xml version="1.0" encoding="UTF-8" standalone="no"?>
<svg xmlns:ffdec="https://www.free-decompiler.com/flash" xmlns:xlink="http://www.w3.org/1999/xlink" ffdec:objectType="shape" height="310.75px" width="465.75px" xmlns="http://www.w3.org/2000/svg">
  <g transform="matrix(1.0, 0.0, 0.0, 1.0, 197.15, 146.5)">
    <path d="M11.95 -129.4 Q27.1 -119.35 40.15 -106.5 52.05 -94.85 62.4 -81.75 L75.15 -82.5 104.9 -78.25 129.65 -72.25 Q133.35 -70.85 136.9 -70.25 141.0 -69.6 144.95 -68.4 L146.6 -67.85 Q160.4 -63.5 174.0 -58.6 L175.6 -58.1 186.2 -54.65 187.3 -54.45 Q191.0 -53.55 194.25 -51.4 205.45 -43.8 215.15 -34.0 L220.45 -28.7 223.2 -25.9 226.15 -22.9 Q237.75 -10.75 249.0 2.05 L256.55 10.35 Q263.0 17.3 267.8 25.35 268.65 26.7 268.6 28.5 268.55 29.75 267.55 30.05 264.35 31.0 261.15 29.5 L246.15 22.5 223.4 9.5 Q210.45 1.35 198.0 -7.15 L186.65 -15.0 181.4 -14.5 147.15 -17.0 105.4 -22.0 Q111.4 -8.65 115.85 5.5 121.75 24.3 122.6 44.05 123.25 58.5 118.95 72.4 113.1 91.25 98.3 104.4 90.65 111.15 82.4 116.75 L67.15 138.0 40.4 155.0 11.4 164.25 -7.6 163.8 -14.1 163.75 -29.35 162.0 -60.1 150.25 -77.85 134.25 -82.75 132.3 -89.1 129.25 -89.35 128.75 -91.15 127.8 Q-103.95 120.95 -114.0 110.35 -123.35 100.4 -129.1 88.1 -136.55 72.1 -137.4 54.35 -138.2 38.3 -135.6 22.5 L-158.6 36.0 Q-161.75 42.1 -165.35 47.95 -176.85 66.5 -189.45 84.35 -190.7 86.1 -192.75 87.3 -194.95 88.5 -196.15 86.5 -197.3 84.55 -197.15 82.3 L-195.85 66.75 -191.1 39.75 -182.6 9.25 -172.1 -5.0 -169.6 -5.5 -154.85 -22.5 -129.85 -47.25 -124.7 -51.55 Q-117.45 -57.5 -109.3 -62.4 -106.55 -64.1 -103.35 -64.0 L-100.95 -68.3 Q-92.25 -84.15 -82.05 -99.1 -71.65 -114.35 -58.65 -127.25 -45.55 -140.3 -28.35 -146.5 -22.4 -145.2 -16.7 -143.35 -1.45 -138.25 11.95 -129.4" fill="#2e47aa" fill-rule="evenodd" stroke="none"/>
  </g>
</svg>
