<?xml version="1.0" encoding="UTF-8" standalone="no"?>
<svg xmlns:ffdec="https://www.free-decompiler.com/flash" xmlns:xlink="http://www.w3.org/1999/xlink" ffdec:objectType="shape" height="310.75px" width="461.9px" xmlns="http://www.w3.org/2000/svg">
  <g transform="matrix(1.0, 0.0, 0.0, 1.0, 202.3, 146.5)">
    <path d="M5.35 -133.85 Q23.45 -122.7 38.6 -107.85 53.9 -92.95 67.5 -76.25 L79.5 -73.5 106.25 -60.5 136.75 -42.5 174.0 -17.25 Q180.1 -10.5 186.65 -4.15 193.5 2.5 200.75 8.75 L223.75 35.0 243.25 59.0 257.4 79.7 259.05 82.8 Q259.9 84.8 259.45 87.05 259.2 88.05 258.2 88.15 255.05 87.75 252.5 86.0 L234.0 73.25 210.25 54.25 173.0 22.0 168.5 21.5 113.5 -1.25 Q116.75 7.1 119.15 15.7 124.45 34.55 122.5 54.2 120.55 73.85 109.5 90.15 98.7 106.05 82.5 116.75 L67.25 138.0 40.5 155.0 11.5 164.25 -7.5 163.8 -14.0 163.75 -29.25 162.0 -60.0 150.25 -77.75 134.25 -82.65 132.3 -89.0 129.25 -89.25 128.75 -89.95 128.4 Q-97.25 124.6 -103.55 119.6 -117.65 108.55 -126.3 93.1 -135.85 76.05 -137.2 56.45 -138.5 38.15 -135.0 20.25 L-161.25 35.0 Q-170.0 49.6 -179.15 64.0 -186.35 75.45 -196.3 85.2 L-197.0 85.85 Q-197.9 86.5 -198.9 86.8 -199.8 86.95 -200.4 86.35 -202.05 84.7 -202.25 82.25 L-202.25 81.1 -201.6 74.75 Q-198.75 55.3 -194.45 36.2 -190.8 20.1 -183.75 5.55 -180.55 -1.1 -174.65 -5.15 L-172.65 -6.85 -156.75 -23.0 -131.75 -46.75 Q-121.9 -54.95 -111.0 -61.85 -107.35 -64.25 -103.0 -64.25 -96.45 -76.7 -89.05 -88.65 -77.65 -106.85 -63.25 -122.6 -48.5 -138.75 -28.25 -146.5 -10.25 -143.4 5.35 -133.85" fill="#2e47aa" fill-rule="evenodd" stroke="none"/>
  </g>
</svg>
