<?xml version="1.0" encoding="UTF-8" standalone="no"?>
<svg xmlns:ffdec="https://www.free-decompiler.com/flash" xmlns:xlink="http://www.w3.org/1999/xlink" ffdec:objectType="shape" height="331.85px" width="388.05px" xmlns="http://www.w3.org/2000/svg">
  <g transform="matrix(1.0, 0.0, 0.0, 1.0, 208.55, 145.95)">
    <path d="M30.75 -130.4 L33.55 -128.05 36.5 -125.55 Q59.05 -105.25 77.0 -80.7 82.05 -73.85 87.55 -67.35 92.6 -61.3 98.25 -55.75 L119.5 -32.5 141.5 -4.5 161.25 24.0 Q170.9 35.9 175.3 50.75 L175.6 52.0 177.7 69.0 178.5 75.75 179.5 102.75 179.5 140.75 178.5 175.25 Q177.7 178.95 177.15 183.75 177.0 185.25 175.5 185.75 173.2 186.25 171.25 185.0 L168.25 175.75 162.5 151.0 156.25 116.5 149.0 64.0 128.75 43.25 Q128.05 63.85 120.75 82.9 114.35 99.55 100.2 110.55 L94.85 114.65 86.3 120.7 82.5 123.0 82.0 123.75 65.0 143.5 36.5 158.5 8.25 165.0 -11.7 163.4 Q-17.0 162.7 -22.05 161.3 -32.65 158.25 -42.8 154.0 -52.4 150.1 -60.55 144.1 -70.4 136.85 -79.0 128.0 -84.35 126.25 -88.65 122.9 L-97.6 116.25 Q-112.7 105.2 -122.05 88.95 -124.85 84.1 -126.55 78.75 -132.1 61.25 -131.1 43.0 -130.15 25.2 -126.0 8.0 L-155.75 20.75 -176.5 59.0 -199.5 94.5 Q-202.05 97.1 -205.25 98.65 L-206.65 98.95 -207.5 98.8 Q-209.3 94.6 -208.05 89.9 -206.0 82.35 -204.25 74.75 L-196.0 45.5 -182.75 6.5 Q-181.4 3.75 -179.65 1.25 -174.15 -6.9 -167.65 -14.2 -159.5 -23.4 -150.65 -31.9 L-144.25 -37.75 -117.75 -57.5 Q-105.35 -65.8 -91.65 -71.6 -89.05 -72.75 -86.5 -72.25 -72.35 -94.15 -54.85 -113.6 -39.45 -130.85 -19.15 -141.85 -12.1 -145.7 -4.4 -145.8 0.7 -146.35 5.75 -144.55 9.9 -143.15 13.85 -141.15 21.3 -137.45 27.85 -132.6 L30.75 -130.4" fill="#2e47aa" fill-rule="evenodd" stroke="none"/>
  </g>
</svg>
