<?xml version="1.0" encoding="UTF-8" standalone="no"?>
<svg xmlns:ffdec="https://www.free-decompiler.com/flash" xmlns:xlink="http://www.w3.org/1999/xlink" ffdec:objectType="shape" height="372.75px" width="367.6px" xmlns="http://www.w3.org/2000/svg">
  <g transform="matrix(1.0, 0.0, 0.0, 1.0, 215.85, 146.9)">
    <path d="M78.5 -96.0 Q123.0 -34.5 130.5 10.5 L130.5 11.0 142.0 45.0 150.5 78.5 150.75 79.0 151.75 95.5 Q151.5 98.0 146.0 102.25 L137.75 122.5 108.75 167.75 108.75 168.0 75.5 217.0 74.25 218.25 74.25 218.5 67.75 225.75 Q65.5 226.0 63.0 223.75 L62.75 222.5 65.25 213.5 71.25 197.75 91.75 150.5 92.0 149.75 92.5 149.0 92.75 148.0 96.25 141.25 96.5 140.5 96.75 140.25 97.25 139.0 97.25 138.25 97.5 138.0 98.0 137.25 98.75 135.75 99.25 134.25 113.25 106.25 105.25 114.75 89.25 125.75 89.0 126.0 88.5 126.25 86.0 128.0 82.0 129.5 62.75 148.75 33.5 161.25 8.25 165.0 2.25 165.5 -25.75 160.25 -38.5 155.25 -62.75 141.25 -67.85 135.4 -78.75 122.0 -79.75 121.75 -83.25 120.0 -84.0 119.25 -84.75 119.0 -91.5 113.75 Q-120.75 88.25 -123.0 69.5 -131.25 35.25 -115.75 -3.25 L-149.0 7.0 -193.5 80.75 -206.5 99.0 Q-219.0 114.0 -214.75 94.5 L-207.0 70.5 -193.25 34.25 -177.0 -3.75 -164.0 -22.25 -162.5 -23.75 -156.25 -32.5 -142.0 -43.0 -141.5 -43.25 -131.5 -50.5 -131.0 -50.75 -102.0 -67.75 Q-74.0 -81.25 -69.25 -78.75 L-44.25 -106.25 -22.5 -127.0 Q9.75 -151.75 26.75 -145.75 41.25 -144.25 78.5 -96.0" fill="#2e47aa" fill-rule="evenodd" stroke="none"/>
  </g>
</svg>
