<?xml version="1.0" encoding="UTF-8" standalone="no"?>
<svg xmlns:ffdec="https://www.free-decompiler.com/flash" xmlns:xlink="http://www.w3.org/1999/xlink" ffdec:objectType="shape" height="341.65px" width="365.0px" xmlns="http://www.w3.org/2000/svg">
  <g transform="matrix(1.0, 0.0, 0.0, 1.0, 224.25, 143.9)">
    <path d="M34.95 -143.3 Q47.9 -145.65 58.8 -138.55 62.65 -136.0 65.85 -132.3 L67.95 -129.6 70.0 -126.75 73.6 -121.8 Q89.95 -99.4 104.1 -75.5 L106.65 -71.15 109.1 -66.8 111.4 -62.45 115.75 -54.1 Q122.8 -40.35 128.3 -25.8 130.45 -20.15 132.2 -14.35 L134.3 -7.0 Q141.7 21.5 140.6 50.95 139.9 68.85 133.6 85.5 129.9 95.3 123.5 103.5 L121.45 113.7 119.0 123.0 96.5 135.5 Q94.75 136.5 93.4 137.6 L92.2 138.45 73.25 148.25 10.5 179.0 -22.0 193.5 -34.75 197.75 -37.75 192.25 -28.5 184.5 -2.25 165.25 -29.5 158.0 -33.9 155.8 -45.0 149.5 -66.0 134.75 -74.25 122.5 Q-76.25 119.5 -78.4 116.6 L-79.0 116.0 -80.0 115.75 Q-97.6 102.95 -109.15 84.65 -119.85 67.65 -120.1 47.4 -120.3 28.9 -114.65 11.2 -110.5 -1.65 -104.5 -13.75 L-141.25 -6.5 -190.0 65.75 -212.25 96.25 Q-215.4 100.35 -219.45 103.65 -220.4 104.45 -221.7 103.9 -223.25 103.2 -224.25 101.75 L-221.5 91.75 -210.0 64.5 -183.0 8.75 -171.25 -13.75 Q-162.65 -25.15 -152.8 -35.35 -143.4 -45.15 -132.75 -53.75 L-131.1 -54.95 -121.1 -60.45 Q-119.25 -61.5 -117.25 -62.25 L-86.75 -76.0 Q-73.4 -81.0 -59.45 -83.75 -55.5 -84.65 -51.75 -83.75 -37.65 -98.1 -22.35 -111.25 -8.1 -123.4 7.8 -133.1 20.45 -140.7 34.95 -143.3" fill="#2e47aa" fill-rule="evenodd" stroke="none"/>
  </g>
</svg>
