<?xml version="1.0" encoding="UTF-8" standalone="no"?>
<svg xmlns:ffdec="https://www.free-decompiler.com/flash" xmlns:xlink="http://www.w3.org/1999/xlink" ffdec:objectType="shape" height="306.3px" width="374.35px" xmlns="http://www.w3.org/2000/svg">
  <g transform="matrix(1.0, 0.0, 0.0, 1.0, 227.15, 140.5)">
    <path d="M6.75 -118.0 Q18.45 -125.9 31.2 -132.2 35.8 -134.55 40.35 -136.15 50.65 -139.8 61.75 -140.5 L67.65 -139.45 Q70.75 -138.7 73.2 -136.8 81.1 -130.65 87.1 -122.7 100.35 -105.15 112.25 -86.5 L123.25 -61.75 134.25 -34.25 143.25 -2.0 Q144.85 8.35 146.05 18.8 147.65 32.8 147.0 46.65 146.1 66.4 140.0 85.05 138.6 89.3 136.45 93.15 129.9 104.6 121.3 114.5 113.35 123.6 103.2 130.25 92.05 137.6 79.5 142.25 L57.75 158.25 28.75 165.75 17.75 165.8 -5.0 165.5 -5.75 165.0 -29.5 156.5 -42.25 149.75 -66.75 130.0 -73.75 117.5 -79.5 116.5 -83.3 115.95 Q-87.4 114.75 -91.55 114.0 L-92.9 113.9 -94.3 113.25 Q-97.3 110.7 -96.0 106.5 L-85.5 104.25 -88.65 101.45 Q-96.3 94.8 -102.15 86.25 -110.95 73.45 -113.4 58.05 -114.7 50.05 -114.2 42.15 -113.95 37.9 -113.3 33.75 -108.45 3.4 -92.75 -23.0 L-132.25 -19.25 -162.0 20.75 -188.0 54.25 -194.75 63.5 -214.5 86.5 -222.75 94.5 Q-224.2 94.35 -225.3 93.65 L-226.25 92.7 Q-228.2 89.1 -225.95 85.5 L-223.05 80.2 -212.25 58.75 -186.75 12.5 -163.5 -25.5 -146.5 -44.5 Q-144.5 -47.5 -141.95 -49.95 L-132.5 -59.5 -108.75 -70.5 -70.5 -83.0 -62.8 -84.8 Q-52.0 -87.45 -41.05 -88.35 -37.35 -88.95 -34.0 -87.25 L-26.5 -93.3 -22.85 -96.15 -19.35 -99.0 -15.85 -101.75 -12.4 -104.3 -9.05 -106.8 6.75 -118.0" fill="#2e47aa" fill-rule="evenodd" stroke="none"/>
  </g>
</svg>
