<?xml version="1.0" encoding="UTF-8" standalone="no"?>
<svg xmlns:ffdec="https://www.free-decompiler.com/flash" xmlns:xlink="http://www.w3.org/1999/xlink" ffdec:objectType="shape" height="345.4px" width="361.15px" xmlns="http://www.w3.org/2000/svg">
  <g transform="matrix(1.0, 0.0, 0.0, 1.0, 219.9, 144.9)">
    <path d="M18.75 -138.0 Q46.5 -155.75 70.0 -127.75 L83.25 -112.0 93.5 -96.25 108.5 -69.25 121.5 -43.25 128.5 -25.5 135.25 -3.5 Q151.5 58.75 123.75 103.75 L123.25 106.25 123.25 108.75 122.25 110.0 119.25 119.25 Q115.75 122.25 110.0 123.0 L98.75 132.75 97.5 134.0 97.0 134.25 95.75 135.5 95.0 135.5 92.75 137.0 92.25 137.25 74.25 148.25 11.75 184.5 -9.25 195.75 -20.5 200.5 -23.25 198.75 -24.25 197.0 -23.75 195.0 -14.25 185.5 8.25 166.5 8.25 165.25 -1.0 165.75 -29.25 158.0 -39.0 153.5 -65.75 134.75 -73.5 123.25 -74.5 122.0 -78.25 116.25 -85.75 111.0 -88.25 108.75 Q-140.5 69.5 -105.75 -10.25 L-138.25 -1.75 -171.75 49.5 -208.0 99.5 -215.25 107.25 Q-221.25 105.25 -219.5 103.0 L-216.75 94.5 -207.0 71.0 -192.5 39.75 -167.5 -9.5 -148.25 -34.0 -141.75 -41.5 -124.25 -52.5 -123.75 -52.75 -117.25 -57.0 -117.0 -57.0 -116.25 -57.5 -85.75 -73.25 Q-56.25 -85.75 -51.75 -83.0 L-19.25 -112.75 -0.5 -127.25 18.75 -138.0" fill="#2e47aa" fill-rule="evenodd" stroke="none"/>
  </g>
</svg>
