<?xml version="1.0" encoding="UTF-8" standalone="no"?>
<svg xmlns:ffdec="https://www.free-decompiler.com/flash" xmlns:xlink="http://www.w3.org/1999/xlink" ffdec:objectType="shape" height="348.8px" width="221.65px" xmlns="http://www.w3.org/2000/svg">
  <g transform="matrix(1.0, 0.0, 0.0, 1.0, 110.35, 99.2)">
    <path d="M-35.8 -46.4 Q-30.0 -24.8 -34.6 -14.6 L-36.6 -11.6 -43.6 -10.2 Q-72.2 -3.6 -87.2 -8.4 -90.45 -9.35 -92.85 -11.9 -119.4 -39.9 -88.6 -67.8 -77.25 -75.55 -64.55 -80.1 L-64.2 -80.2 -62.2 -77.4 Q-61.6 -71.2 -56.4 -68.6 L-56.6 -66.0 -55.2 -61.0 Q-52.6 -49.6 -35.8 -46.4 M-24.8 162.4 L-23.4 162.0 Q11.95 187.85 54.4 184.3 L58.0 184.0 59.2 187.2 Q51.4 227.8 44.2 231.6 L43.8 232.2 Q16.0 258.6 -27.8 234.6 -49.6 226.0 -55.6 201.0 -54.6 185.4 -33.8 160.0 L-24.8 162.4 M-87.4 121.6 L-88.95 120.5 Q-125.2 85.55 -100.0 41.0 -110.65 82.9 -89.45 118.55 L-87.4 121.6" fill="#e58508" fill-rule="evenodd" stroke="none"/>
    <path d="M-55.2 -61.0 L-56.6 -66.0 -54.4 -70.2 Q-53.2 -71.2 -49.8 -67.0 -46.8 -55.2 -55.2 -61.0 M-62.2 -77.4 L-64.2 -80.2 -64.2 -83.2 Q-64.0 -85.8 -61.6 -87.6 L-59.6 -87.8 Q-58.6 -87.2 -58.4 -81.4 -59.0 -75.2 -62.2 -77.4" fill="#000000" fill-rule="evenodd" stroke="none"/>
    <path d="M-35.8 -46.4 Q-52.6 -49.6 -55.2 -61.0 -46.8 -55.2 -49.8 -67.0 -53.2 -71.2 -54.4 -70.2 L-56.6 -66.0 -56.4 -68.6 Q-61.6 -71.2 -62.2 -77.4 -59.0 -75.2 -58.4 -81.4 -58.6 -87.2 -59.6 -87.8 L-61.6 -87.6 Q-59.9 -94.15 -54.5 -98.15 L-53.0 -99.2 Q-43.3 -74.95 -28.0 -53.4 -30.2 -48.8 -34.55 -46.75 L-35.8 -46.4" fill="#ffffff" fill-rule="evenodd" stroke="none"/>
    <path d="M-105.5 -37.75 L-105.4 -40.4 Q-98.2 0.6 -54.35 -8.95 -44.3 -11.05 -34.6 -14.4 -69.7 28.4 -96.2 76.25 -97.45 78.45 -96.65 81.2 -82.05 132.65 -27.2 145.8 L-23.0 144.8 -27.6 124.0 Q-1.0 151.95 37.2 158.2 L14.75 68.65 Q29.75 111.05 52.8 149.8 L60.8 154.0 51.7 153.55 Q65.7 201.15 91.9 245.0 L95.4 244.15 97.4 243.6 Q108.0 203.15 110.6 161.2 114.6 208.5 95.2 249.6 72.0 221.95 59.4 187.2 59.05 234.2 16.8 243.7 5.3 246.25 -6.25 243.75 -41.9 236.5 -55.8 203.2 -21.25 252.2 34.35 233.7 43.8 230.5 45.75 220.95 49.05 204.5 31.65 201.75 -2.95 195.9 -35.55 184.8 -41.9 182.65 -48.6 181.6 L-33.6 159.8 Q-83.0 143.55 -104.6 96.7 -112.5 79.55 -109.1 60.75 L-101.8 53.2 Q-98.0 21.8 -87.0 -7.8 -105.75 -17.05 -105.5 -37.75 M-77.1 -88.9 L-75.8 -87.4 -65.5 -86.85 Q-69.0 -77.65 -78.8 -73.6 -81.6 -80.95 -78.6 -88.6 L-77.1 -88.9 M105.7 43.3 Q107.8 54.2 109.4 65.2 L104.4 39.6 Q105.3 41.4 105.7 43.3 M96.6 133.2 L95.4 123.8 96.55 121.7 Q108.65 95.15 109.2 65.8 114.6 100.55 103.0 134.0 L97.0 131.2 96.6 133.2" fill="#000000" fill-opacity="0.49803922" fill-rule="evenodd" stroke="none"/>
  </g>
</svg>
