<?xml version="1.0" encoding="UTF-8" standalone="no"?>
<svg xmlns:ffdec="https://www.free-decompiler.com/flash" xmlns:xlink="http://www.w3.org/1999/xlink" ffdec:objectType="shape" height="338.75px" width="352.95px" xmlns="http://www.w3.org/2000/svg">
  <g transform="matrix(1.0, 0.0, 0.0, 1.0, 203.2, 146.25)">
    <path d="M0.9 -140.75 Q9.6 -145.1 19.15 -146.15 24.5 -146.55 29.7 -145.05 37.35 -142.9 43.3 -137.6 55.2 -127.15 65.35 -115.0 L76.75 -100.75 106.25 -54.75 Q114.25 -38.0 120.9 -20.75 126.55 -6.15 132.5 8.3 L134.2 12.65 Q137.95 22.45 141.15 32.35 L145.25 46.0 Q147.5 54.35 149.05 62.75 150.8 72.05 148.15 80.9 147.5 83.1 145.75 84.75 L141.0 101.0 110.25 161.25 Q106.35 167.85 102.85 174.7 98.05 184.1 91.25 192.5 L87.0 191.75 Q87.25 186.75 88.25 181.9 91.6 166.35 95.7 151.0 96.7 147.35 97.85 143.7 98.1 142.75 98.6 142.0 99.4 140.7 98.75 139.75 L99.15 139.2 99.7 138.0 107.5 113.25 Q96.85 120.85 85.95 128.05 84.1 129.25 82.0 130.0 L63.5 148.75 51.45 153.9 Q42.1 157.75 32.4 160.0 17.35 163.5 2.0 165.5 L-26.25 160.0 -38.25 155.25 -64.25 140.0 -78.15 122.65 -79.5 121.25 -83.4 118.9 Q-90.55 113.95 -96.95 108.25 L-99.75 105.75 -102.45 103.05 Q-111.2 94.0 -116.95 82.95 -120.95 75.15 -122.9 66.65 -128.05 44.25 -122.9 21.7 -120.95 13.15 -118.25 4.75 L-141.75 15.25 -168.75 62.75 -184.0 87.25 -195.2 102.85 Q-196.8 105.0 -199.2 106.8 L-200.05 107.45 Q-200.85 107.95 -201.75 107.85 -203.55 105.85 -203.1 102.95 L-202.35 99.35 -195.75 74.75 -185.25 45.25 -173.25 15.5 -173.15 15.05 Q-171.0 9.5 -168.1 4.35 -163.15 -4.4 -157.25 -12.55 -154.15 -16.9 -150.45 -20.7 L-140.9 -29.85 -128.45 -40.55 Q-116.35 -50.7 -103.5 -59.7 -92.6 -67.4 -80.6 -72.9 -75.15 -75.4 -69.5 -77.0 L-45.25 -103.5 Q-32.75 -115.4 -19.85 -126.8 -13.3 -132.5 -5.8 -137.1 L-2.4 -139.05 0.9 -140.75" fill="#2e47aa" fill-rule="evenodd" stroke="none"/>
  </g>
</svg>
