<?xml version="1.0" encoding="UTF-8" standalone="no"?>
<svg xmlns:ffdec="https://www.free-decompiler.com/flash" xmlns:xlink="http://www.w3.org/1999/xlink" ffdec:objectType="shape" height="271.25px" width="370.0px" xmlns="http://www.w3.org/2000/svg">
  <g transform="matrix(1.0, 0.0, 0.0, 1.0, 185.75, 69.5)">
    <path d="M-25.75 -48.25 Q-28.1 -50.95 -29.6 -54.1 -30.9 -56.8 -30.8 -60.1 -30.75 -62.2 -30.05 -64.05 -28.75 -67.35 -25.25 -68.15 -20.65 -69.15 -15.95 -68.95 -10.0 -69.65 -4.0 -69.25 L3.5 -69.25 7.25 -69.5 21.35 -68.35 Q25.0 -67.75 28.2 -65.75 29.25 -65.15 30.0 -64.0 29.5 -59.9 28.3 -55.95 27.25 -52.4 25.5 -49.0 19.75 -39.25 -0.5 -46.5 -18.5 -39.25 -25.75 -48.25 M36.0 -1.0 L38.3 5.2 Q44.35 21.0 51.2 36.4 56.25 47.75 63.45 57.7 70.6 67.5 78.45 76.95 82.1 81.25 83.8 86.65 87.1 97.0 86.35 107.55 85.75 116.0 82.25 124.25 L81.5 125.25 64.75 144.25 36.75 158.75 8.25 165.0 -4.75 163.75 -13.75 162.75 Q-30.25 161.5 -42.0 154.75 L-62.5 144.75 -78.5 127.25 -80.75 124.75 -87.25 110.5 -87.5 107.5 Q-84.25 105.0 -85.0 99.5 L-77.75 93.5 -76.25 90.0 -70.25 81.75 -59.0 60.5 -51.5 44.0 -44.5 21.5 -35.5 2.0 -34.75 3.75 Q-23.0 28.25 -1.5 27.25 L1.0 27.25 Q24.0 27.75 34.0 4.0 L34.0 3.75 36.0 -1.0 M8.5 -55.75 L5.75 -53.0 Q5.5 -49.5 8.0 -47.25 L12.25 -46.75 Q22.5 -52.25 13.5 -56.75 L8.5 -55.75 M-11.25 -46.75 Q-0.25 -55.5 -15.5 -56.5 -22.75 -48.0 -11.25 -46.75" fill="#ffffff" fill-rule="evenodd" stroke="none"/>
    <path d="M8.5 -55.75 L13.5 -56.75 Q22.5 -52.25 12.25 -46.75 L8.0 -47.25 Q5.5 -49.5 5.75 -53.0 L8.5 -55.75 M-11.25 -46.75 Q-22.75 -48.0 -15.5 -56.5 -0.25 -55.5 -11.25 -46.75" fill="#000000" fill-rule="evenodd" stroke="none"/>
    <path d="M-25.75 -48.25 Q-18.5 -39.25 -0.5 -46.5 19.75 -39.25 25.5 -49.0 40.0 -39.0 39.5 -28.25 L39.75 -19.5 36.0 -1.0 34.0 3.75 34.0 4.0 Q24.0 27.75 1.0 27.25 L-1.5 27.25 Q-23.0 28.25 -34.75 3.75 L-35.5 2.0 -38.5 -8.0 -40.25 -20.75 -40.0 -27.75 Q-42.25 -35.0 -25.75 -48.25 M82.25 124.25 L85.75 122.5 86.5 122.0 87.0 121.75 95.5 115.25 Q111.0 141.75 110.5 154.0 111.0 193.0 55.25 201.0 30.5 204.25 16.75 193.0 11.5 189.75 8.25 165.0 L36.75 158.75 64.75 144.25 81.5 125.25 82.25 124.25 M-4.75 163.75 Q-7.05 174.7 -9.7 185.6 -10.15 187.4 -10.9 189.2 -12.05 191.7 -14.0 193.25 -14.4 193.85 -14.95 194.05 -22.75 197.6 -31.05 199.0 -41.5 200.75 -52.2 199.9 -60.5 199.65 -68.4 197.55 -79.1 194.85 -88.6 189.25 -101.45 181.5 -105.8 167.15 -107.1 162.85 -107.35 158.35 -107.45 155.9 -107.1 153.55 -106.15 147.0 -103.8 140.9 -99.4 129.25 -94.0 118.0 L-86.8 123.05 Q-82.95 125.85 -78.5 127.25 L-62.5 144.75 -42.0 154.75 Q-30.25 161.5 -13.75 162.75 L-4.75 163.75" fill="#e58508" fill-rule="evenodd" stroke="none"/>
    <path d="M40.0 -22.0 Q39.0 85.5 2.0 85.0 -20.0 89.0 -29.25 60.75 L-32.75 50.25 -37.75 24.25 -39.5 11.25 -40.25 -21.5 Q-36.0 26.5 2.0 27.0 34.5 25.5 40.0 -22.0 M173.5 37.0 L176.25 47.25 184.0 85.5 184.25 95.75 Q184.25 97.0 180.5 97.75 L176.0 93.75 168.5 82.25 154.25 56.25 142.25 32.25 142.25 30.75 140.5 30.25 126.75 21.0 128.75 31.25 129.75 42.5 127.25 68.5 Q121.0 95.25 95.5 115.0 L99.75 122.25 104.25 132.25 102.5 132.0 Q96.75 137.0 92.75 138.0 94.25 143.25 72.75 164.5 L41.25 180.0 Q22.5 181.75 16.75 188.5 23.5 200.5 67.25 194.25 98.75 188.25 109.25 164.25 L110.0 163.5 109.75 166.0 Q105.75 194.25 47.5 201.5 L33.0 200.75 Q24.75 199.0 19.5 195.75 9.0 185.75 8.5 165.25 L-4.25 163.75 Q-6.75 184.5 -14.25 194.25 -23.75 202.75 -51.25 201.0 -75.0 198.0 -87.75 189.75 -105.25 177.75 -106.75 163.5 -96.0 187.25 -65.25 193.75 -23.0 201.0 -13.0 188.25 -18.25 181.75 -34.5 180.0 L-69.0 163.5 -89.75 140.5 Q-100.5 134.0 -102.25 134.75 L-97.75 124.0 -93.75 117.75 Q-121.75 97.0 -126.0 77.0 L-127.5 71.5 Q-133.25 42.25 -128.25 22.5 L-127.75 22.0 -128.25 21.5 -142.75 31.0 -158.0 61.5 -168.25 80.0 -176.75 93.5 -181.5 98.0 -184.75 97.25 Q-184.0 96.25 -185.75 90.75 L-183.25 74.25 -174.75 37.0 -174.0 37.5 Q-176.5 44.25 -175.25 50.0 L-176.25 52.0 -176.5 65.25 -176.0 70.25 -173.25 69.75 -172.5 68.5 Q-170.0 68.75 -165.75 63.75 -161.75 53.5 -155.0 50.0 L-150.5 41.0 -149.75 40.5 -150.5 42.25 -148.5 40.5 -148.75 39.25 -149.5 39.25 -148.5 37.25 -149.25 36.5 -151.0 36.5 -152.25 34.5 -155.0 33.25 -155.75 30.75 -158.5 28.0 -154.75 29.0 -155.0 30.75 Q-143.25 23.0 -140.75 24.25 L-128.25 17.0 -112.75 6.25 -108.25 2.0 -106.5 1.75 -100.0 -3.0 -100.75 -1.0 -104.0 2.75 -113.75 18.0 -114.75 18.5 -122.75 36.5 -121.0 46.75 -111.75 70.75 -104.5 80.25 -96.75 88.75 -83.25 97.75 Q-86.0 99.0 -84.75 101.25 L-68.0 124.75 -36.5 146.25 0.0 153.25 Q40.5 151.0 69.0 125.75 L86.5 102.0 Q90.0 97.25 87.25 91.5 103.25 80.0 107.0 72.5 L112.75 63.0 118.0 52.0 122.5 35.25 114.75 18.75 100.25 -2.5 104.5 0.75 106.75 1.5 110.75 5.25 112.0 5.5 127.0 16.5 139.25 23.75 141.5 23.5 153.75 30.75 154.5 30.25 153.5 28.5 156.5 28.0 156.25 27.5 157.75 27.0 Q155.25 33.75 147.5 36.25 L148.0 36.75 147.5 39.5 Q156.75 54.25 159.75 54.5 L164.25 62.75 Q168.75 68.25 172.25 69.5 L175.25 70.75 175.75 65.0 175.5 53.0 174.5 49.25 Q175.25 44.0 173.0 37.25 L173.5 37.0" fill="#000000" fill-opacity="0.49803922" fill-rule="evenodd" stroke="none"/>
  </g>
</svg>
