<?xml version="1.0" encoding="UTF-8" standalone="no"?>
<svg xmlns:ffdec="https://www.free-decompiler.com/flash" xmlns:xlink="http://www.w3.org/1999/xlink" ffdec:objectType="shape" height="271.05px" width="386.55px" xmlns="http://www.w3.org/2000/svg">
  <g transform="matrix(1.0, 0.0, 0.0, 1.0, 188.3, 69.3)">
    <path d="M-31.5 -46.5 Q-34.8 -49.5 -35.75 -54.1 -36.65 -58.25 -37.0 -62.5 -34.4 -64.65 -31.4 -65.5 -23.25 -67.75 -14.75 -68.75 L-11.3 -68.2 Q-9.15 -68.0 -6.95 -68.2 L-4.5 -68.0 Q3.35 -69.85 11.7 -69.05 15.85 -68.5 19.8 -66.95 21.5 -66.4 23.0 -65.25 23.1 -60.9 22.2 -56.75 21.35 -52.75 19.5 -49.0 10.25 -38.75 -6.25 -45.75 -26.25 -38.0 -31.5 -46.5 M31.5 -1.5 Q36.75 9.5 41.45 20.75 43.85 26.5 45.75 32.5 L59.0 56.25 Q68.35 65.35 76.45 75.5 82.85 83.6 83.85 93.2 85.35 107.1 82.75 121.5 L80.25 124.5 79.4 125.4 Q66.5 137.35 52.55 148.0 45.25 153.6 37.0 158.0 L8.25 165.0 -5.0 164.0 -23.95 161.65 -32.25 160.0 -62.0 146.5 -78.0 129.75 Q-80.25 126.75 -82.1 123.55 -85.15 118.25 -87.75 112.75 L-86.6 109.95 -86.1 108.65 Q-85.15 105.6 -85.75 102.25 -81.65 97.75 -78.2 92.8 -73.4 85.85 -69.65 78.3 -61.75 62.35 -55.25 45.85 -47.0 25.1 -39.75 4.0 -35.95 13.0 -29.0 19.7 -21.4 27.0 -10.7 28.1 0.65 28.85 11.35 24.7 16.0 22.8 19.9 19.4 26.95 13.15 29.7 4.1 L31.5 -1.5 M3.25 -55.5 L-0.25 -52.5 Q-1.0 -49.0 2.0 -46.75 L6.0 -46.25 Q16.0 -51.75 7.75 -56.25 L3.25 -55.5 M-18.25 -55.5 L-21.75 -55.25 Q-28.75 -47.25 -17.75 -45.5 -14.75 -45.25 -13.0 -49.0 L-13.0 -52.5 -18.25 -55.5" fill="#ffffff" fill-rule="evenodd" stroke="none"/>
    <path d="M-18.25 -55.5 L-13.0 -52.5 -13.0 -49.0 Q-14.75 -45.25 -17.75 -45.5 -28.75 -47.25 -21.75 -55.25 L-18.25 -55.5 M3.25 -55.5 L7.75 -56.25 Q16.0 -51.75 6.0 -46.25 L2.0 -46.75 Q-1.0 -49.0 -0.25 -52.5 L3.25 -55.5" fill="#000000" fill-rule="evenodd" stroke="none"/>
    <path d="M19.5 -49.0 Q27.2 -43.95 32.6 -36.5 35.2 -32.9 34.75 -28.7 33.5 -17.4 32.6 -6.0 L32.2 -4.0 31.5 -1.5 29.7 4.1 Q26.95 13.15 19.9 19.4 16.0 22.8 11.35 24.7 0.65 28.85 -10.7 28.1 -21.4 27.0 -29.0 19.7 -35.95 13.0 -39.75 4.0 L-43.5 -8.0 -45.25 -19.0 -45.25 -25.75 Q-43.75 -39.5 -31.5 -46.5 -26.25 -38.0 -6.25 -45.75 10.25 -38.75 19.5 -49.0 M82.75 121.5 L84.75 120.75 85.75 120.0 88.0 118.75 90.25 116.5 94.25 113.5 Q111.5 142.5 110.5 154.0 111.0 193.0 55.25 201.0 30.5 204.25 16.75 193.0 11.5 189.75 8.25 165.0 L37.0 158.0 Q45.25 153.6 52.55 148.0 66.5 137.35 79.4 125.4 L80.25 124.5 82.75 121.5 M-5.0 164.0 Q-7.2 174.8 -9.7 185.6 -10.15 187.4 -10.9 189.2 -12.05 191.7 -14.0 193.25 -17.0 195.35 -20.35 196.4 -30.0 199.5 -40.1 200.2 -47.85 200.85 -55.65 199.8 L-62.3 199.05 Q-69.8 197.4 -76.9 194.95 -87.6 191.0 -95.85 183.35 -103.1 176.6 -105.8 167.2 -107.4 161.7 -107.35 156.0 -107.35 154.35 -106.9 152.85 -102.9 139.25 -98.05 125.95 -96.9 122.85 -95.25 120.0 L-89.0 124.25 Q-83.85 127.75 -78.0 129.75 L-62.0 146.5 -32.25 160.0 -23.95 161.65 -5.0 164.0" fill="#e58508" fill-rule="evenodd" stroke="none"/>
    <path d="M-45.25 -10.75 Q-45.85 -15.85 -44.95 -16.95 -39.3 26.05 -2.25 27.75 31.5 24.25 35.0 -20.5 37.5 86.75 -10.0 86.75 -20.75 90.75 -33.5 64.25 L-36.75 54.75 -40.25 40.25 -44.25 15.25 -45.25 -10.75 M115.25 -3.25 L114.75 -2.75 115.5 -3.0 143.25 9.75 156.25 14.75 Q158.0 12.5 170.25 17.5 L170.0 19.0 167.25 20.0 Q166.5 23.0 163.75 23.0 L164.0 25.25 163.25 27.25 Q172.25 42.0 175.5 42.0 L179.5 49.75 183.5 53.5 186.0 53.25 Q191.5 50.25 187.5 21.5 L190.75 34.25 198.0 73.25 198.25 83.75 Q197.5 85.75 194.75 85.5 193.5 86.0 190.5 82.25 L184.75 73.25 176.25 57.75 164.0 32.75 158.25 19.25 136.25 10.25 120.25 2.75 125.5 25.25 127.25 37.25 126.0 62.5 Q121.25 91.5 94.25 113.25 L99.75 122.25 103.25 129.75 101.0 130.25 Q95.5 135.25 91.75 136.25 L91.75 140.5 72.25 163.5 40.5 180.0 Q22.25 181.25 16.75 188.25 24.0 200.5 66.0 194.5 99.25 188.0 109.25 164.25 L110.0 163.5 110.0 165.0 Q105.75 194.75 47.5 201.5 L33.0 200.75 Q24.75 199.0 19.5 195.75 9.0 185.75 8.5 165.25 L-3.5 164.0 -5.0 164.0 -8.25 182.75 -10.75 189.25 -14.25 194.25 Q-23.75 202.75 -51.5 201.0 -73.25 199.25 -91.25 187.25 -104.5 178.0 -106.75 163.5 -97.25 184.5 -71.75 192.0 -39.0 203.0 -13.25 188.75 -14.25 184.0 -37.0 179.5 L-68.25 165.5 -90.0 143.0 Q-101.5 136.0 -103.25 137.0 L-97.75 124.0 -95.25 120.0 Q-115.5 107.25 -126.75 82.25 L-129.0 75.25 -132.75 47.75 -132.25 34.5 -130.25 22.25 -148.0 33.5 -161.75 61.0 -171.25 77.5 -180.0 90.75 -183.25 94.0 -184.75 95.0 -186.5 94.75 Q-192.75 87.0 -177.25 28.5 -184.0 61.0 -174.0 63.75 -169.25 61.75 -168.75 59.5 L-166.25 58.5 -164.25 54.25 -159.5 51.0 -159.75 49.75 -155.5 40.75 -154.5 39.75 -155.5 43.5 Q-160.0 48.5 -158.75 50.0 L-157.0 48.0 Q-154.8 44.2 -153.5 40.0 L-153.0 39.5 -153.5 38.25 Q-159.25 36.5 -163.25 28.5 -160.5 31.25 -158.75 30.75 L-158.5 32.0 -144.75 24.5 Q-142.75 22.75 -141.0 23.75 L-134.25 20.0 -105.5 0.5 -106.5 3.0 -108.5 5.0 -110.75 9.5 -118.5 20.75 -124.5 34.5 Q-123.25 51.25 -106.25 79.75 L-98.0 89.25 -82.75 99.25 Q-82.5 100.25 -85.75 102.0 L-85.5 102.75 -67.25 126.5 -35.75 147.0 2.0 153.5 38.5 144.5 46.75 139.75 69.0 124.5 86.25 100.5 Q90.0 91.75 86.75 90.0 L91.5 87.0 105.0 73.5 112.5 60.5 117.25 50.0 121.0 34.25 121.25 30.25 113.5 16.0 100.5 -3.25 90.25 -15.5 90.5 -16.0 113.25 -3.5 114.5 -3.5 115.25 -3.25" fill="#000000" fill-opacity="0.49803922" fill-rule="evenodd" stroke="none"/>
  </g>
</svg>
