<?xml version="1.0" encoding="UTF-8" standalone="no"?>
<svg xmlns:ffdec="https://www.free-decompiler.com/flash" xmlns:xlink="http://www.w3.org/1999/xlink" ffdec:objectType="shape" height="271.5px" width="400.0px" xmlns="http://www.w3.org/2000/svg">
  <g transform="matrix(1.0, 0.0, 0.0, 1.0, 191.25, 69.75)">
    <path d="M-37.25 -45.5 Q-39.6 -47.05 -40.9 -49.85 L-41.95 -53.35 Q-42.75 -57.65 -42.1 -61.85 -41.9 -63.25 -40.5 -63.9 -34.65 -66.25 -28.4 -67.05 L-14.9 -68.6 1.75 -69.75 Q7.75 -68.9 13.55 -67.25 15.25 -66.9 16.75 -65.75 16.85 -61.5 16.35 -57.35 15.85 -53.15 13.5 -49.5 2.75 -38.5 -12.25 -45.5 -24.75 -37.0 -37.25 -45.5 M27.25 -2.75 Q32.85 8.25 38.05 19.45 41.25 26.35 44.0 33.5 L57.5 55.5 Q60.85 59.25 64.65 62.5 70.1 67.35 76.0 71.75 L82.4 81.7 Q84.85 85.75 84.85 90.0 84.85 104.5 82.75 119.0 L67.0 140.0 41.0 155.5 10.5 164.75 8.25 164.75 -5.0 164.0 -20.5 163.25 -29.75 161.5 -61.0 148.5 -77.75 132.0 -87.65 115.95 Q-88.65 114.35 -87.65 112.65 -85.5 109.05 -86.25 105.0 -82.25 100.1 -79.15 94.75 -70.4 79.35 -64.05 62.9 -57.15 45.0 -51.3 26.65 -47.9 16.0 -44.0 5.5 -39.45 15.25 -30.7 22.05 -22.0 28.7 -11.15 28.5 -5.5 28.4 0.05 27.15 16.4 23.35 23.55 8.45 24.85 5.85 25.55 3.05 26.25 0.1 27.25 -2.75 M-24.5 -54.75 L-28.0 -54.5 Q-34.5 -46.0 -23.0 -45.0 -20.5 -44.75 -19.0 -48.75 L-19.5 -52.5 -24.5 -54.75 M-6.5 -52.5 Q-6.75 -49.0 -4.0 -46.75 L-0.25 -46.25 Q10.5 -52.75 1.0 -56.5 L-4.0 -55.0 -6.5 -52.5" fill="#ffffff" fill-rule="evenodd" stroke="none"/>
    <path d="M-37.25 -45.5 Q-24.75 -37.0 -12.25 -45.5 2.75 -38.5 13.5 -49.5 23.6 -45.35 27.35 -34.95 28.65 -31.35 28.65 -27.75 28.6 -16.5 27.5 -5.25 L27.25 -2.75 Q26.25 0.1 25.55 3.05 24.85 5.85 23.55 8.45 16.4 23.35 0.05 27.15 -5.5 28.4 -11.15 28.5 -22.0 28.7 -30.7 22.05 -39.45 15.25 -44.0 5.5 L-47.5 -4.0 -50.25 -18.25 -50.5 -24.5 Q-53.25 -31.5 -37.25 -45.5 M82.75 119.0 L84.0 118.5 86.75 117.0 93.0 111.5 Q108.75 135.5 110.5 154.0 111.0 193.0 55.25 201.0 30.5 204.25 16.75 193.0 11.5 190.0 8.25 164.75 L10.5 164.75 41.0 155.5 67.0 140.0 82.75 119.0 M-5.0 164.0 Q-6.75 173.75 -8.9 183.45 -9.35 185.5 -10.25 187.45 L-10.95 189.15 Q-12.05 191.7 -14.0 193.25 -17.0 195.35 -20.35 196.4 -30.0 199.5 -40.1 199.85 -61.9 201.4 -81.85 192.75 -91.8 188.35 -98.8 180.15 -106.0 171.75 -107.05 160.7 L-107.35 156.0 Q-107.35 154.35 -106.9 152.9 -101.9 137.35 -96.5 122.0 -93.25 124.0 -90.1 126.15 -84.35 130.2 -77.75 132.0 L-61.0 148.5 -29.75 161.5 -20.5 163.25 -5.0 164.0" fill="#e58508" fill-rule="evenodd" stroke="none"/>
    <path d="M-6.5 -52.5 L-4.0 -55.0 1.0 -56.5 Q10.5 -52.75 -0.25 -46.25 L-4.0 -46.75 Q-6.75 -49.0 -6.5 -52.5 M-24.5 -54.75 L-19.5 -52.5 -19.0 -48.75 Q-20.5 -44.75 -23.0 -45.0 -34.5 -46.0 -28.0 -54.5 L-24.5 -54.75" fill="#000000" fill-rule="evenodd" stroke="none"/>
    <path d="M10.0 78.5 L2.5 84.0 Q-6.25 84.5 -8.25 87.0 L-17.25 88.0 Q-34.75 81.5 -41.5 55.75 L-44.5 43.25 -48.5 20.25 -50.0 -5.25 -50.0 -19.75 Q-43.5 28.25 -5.25 27.75 25.0 25.25 30.0 -20.5 31.75 34.75 16.25 69.0 L10.0 78.5 M98.0 -7.75 L82.75 -23.5 82.25 -24.25 82.75 -24.5 108.75 -15.0 145.0 -5.5 171.0 0.0 Q172.0 -2.0 182.5 -0.5 L182.75 0.5 Q180.25 0.5 176.5 5.5 L176.25 10.25 Q184.5 24.0 187.75 23.75 L191.75 31.25 193.0 31.0 194.5 32.75 Q203.25 30.0 197.0 0.5 L197.75 -1.5 202.0 16.75 208.5 54.5 208.75 65.5 Q208.0 67.75 205.0 67.75 L201.0 64.25 194.0 52.75 182.0 28.75 170.5 2.25 148.25 -2.25 112.75 -11.25 Q128.5 26.5 124.25 59.0 119.75 89.75 93.0 111.25 L99.0 121.0 102.25 128.0 99.75 128.25 Q95.75 132.25 91.5 134.0 L91.25 138.5 72.5 161.5 72.75 162.0 42.75 178.25 Q18.25 182.25 16.5 188.25 23.0 200.75 68.25 194.0 97.75 188.0 109.0 165.0 L109.5 163.5 110.0 165.0 Q105.75 194.75 47.5 201.5 L33.0 200.75 Q24.75 199.0 19.5 195.75 9.0 186.0 8.5 164.75 L-5.0 164.0 -6.0 172.25 -8.75 184.25 -10.75 189.25 -14.25 194.25 Q-23.75 202.75 -51.25 201.0 -73.25 199.25 -91.25 187.25 -104.5 178.0 -106.75 163.5 -97.25 184.5 -71.75 192.0 -39.0 203.0 -13.5 188.75 -14.25 184.25 -33.25 181.5 L-67.5 167.25 Q-95.5 136.0 -103.75 139.25 L-103.75 137.75 -96.25 122.0 Q-120.25 108.25 -130.5 78.25 L-134.75 52.25 -134.75 37.5 -133.25 23.5 -151.5 34.5 -164.75 59.75 -172.5 72.75 -182.25 87.0 -185.5 90.5 Q-187.5 92.5 -189.5 91.5 L-191.25 89.75 -191.25 79.75 -189.25 64.75 -185.25 43.25 -181.25 27.0 Q-186.75 53.5 -175.5 59.75 L-173.25 56.75 Q-169.0 55.75 -162.0 49.5 L-161.75 47.75 -157.5 40.25 -160.5 36.75 -162.25 36.5 Q-163.0 32.75 -165.75 32.5 L-166.75 30.0 -165.5 31.25 -163.25 30.5 -162.75 30.75 -163.25 32.25 -161.75 32.75 -157.75 30.25 -153.75 29.0 -146.0 23.75 -142.0 22.0 -140.25 21.5 Q-143.25 22.75 -142.5 23.75 L-110.5 3.0 -122.25 22.5 -126.25 32.5 Q-128.0 39.75 -115.0 66.75 L-101.0 87.75 -98.75 90.5 -82.25 101.0 Q-86.75 104.0 -84.75 105.75 L-67.0 127.75 -35.5 147.25 -23.75 149.75 3.0 153.25 Q41.75 149.5 69.5 122.5 L86.75 97.0 Q88.5 94.0 86.25 88.5 107.5 73.0 114.5 53.5 L119.75 32.0 119.25 26.0 111.25 10.25 98.0 -7.75 M-158.25 43.75 L-157.75 42.0 -158.75 43.5 -158.25 43.75" fill="#000000" fill-opacity="0.49803922" fill-rule="evenodd" stroke="none"/>
  </g>
</svg>
