<?xml version="1.0" encoding="UTF-8" standalone="no"?>
<svg xmlns:ffdec="https://www.free-decompiler.com/flash" xmlns:xlink="http://www.w3.org/1999/xlink" ffdec:objectType="shape" height="271.5px" width="366.5px" xmlns="http://www.w3.org/2000/svg">
  <g transform="matrix(1.0, 0.0, 0.0, 1.0, 207.75, 69.75)">
    <path d="M-27.75 -47.75 L-28.6 -48.35 Q-29.85 -49.5 -30.45 -50.8 L-31.4 -53.75 Q-32.4 -58.75 -32.25 -63.75 -32.2 -66.0 -29.95 -66.9 L-24.95 -68.5 Q-15.3 -70.55 -5.75 -69.25 L-6.0 -68.75 Q-3.65 -67.9 -1.25 -68.75 L1.0 -69.25 Q8.25 -69.65 15.4 -69.0 20.6 -68.4 25.5 -66.2 26.6 -65.65 27.5 -64.5 27.25 -60.65 26.2 -57.0 25.0 -53.0 23.0 -49.25 17.75 -39.75 -2.75 -46.5 -18.25 -39.0 -27.75 -47.75 M34.25 -1.5 Q39.1 9.35 43.5 20.45 46.25 27.35 48.5 34.5 L60.75 57.5 Q69.75 66.5 78.05 76.1 81.6 80.25 83.05 85.4 86.6 97.85 85.95 110.6 85.6 116.85 82.5 123.0 L82.0 123.75 65.0 143.5 36.5 158.5 8.25 165.0 -4.75 163.75 -11.7 163.4 Q-17.0 162.7 -22.05 161.3 -32.65 158.25 -42.8 154.0 -52.4 150.1 -60.55 144.1 -70.4 136.85 -79.0 128.0 L-81.5 124.25 -87.5 111.25 Q-84.75 105.0 -85.25 100.5 L-78.25 94.5 -76.5 90.75 -70.75 82.75 -58.75 59.25 -50.5 38.75 -46.0 22.25 -37.25 2.5 Q-33.45 11.6 -26.4 18.65 -19.9 25.15 -10.95 26.75 3.25 29.05 16.15 23.0 24.4 19.1 28.95 11.25 31.0 7.7 32.25 3.75 33.2 0.75 34.25 -1.5 M3.5 -53.75 Q3.0 -49.5 5.5 -47.5 L9.25 -46.75 Q19.75 -51.75 12.25 -56.75 L6.75 -56.0 3.5 -53.75 M-14.5 -56.5 L-18.0 -56.25 Q-26.0 -50.75 -14.25 -46.5 L-10.5 -48.0 Q-8.75 -49.75 -9.25 -53.5 -10.75 -55.75 -14.5 -56.5" fill="#ffffff" fill-rule="evenodd" stroke="none"/>
    <path d="M3.5 -53.75 L6.75 -56.0 12.25 -56.75 Q19.75 -51.75 9.25 -46.75 L5.5 -47.5 Q3.0 -49.5 3.5 -53.75 M-14.5 -56.5 Q-10.75 -55.75 -9.25 -53.5 -8.75 -49.75 -10.5 -48.0 L-14.25 -46.5 Q-26.0 -50.75 -18.0 -56.25 L-14.5 -56.5" fill="#000000" fill-rule="evenodd" stroke="none"/>
    <path d="M-27.75 -47.75 Q-18.25 -39.0 -2.75 -46.5 17.75 -39.75 23.0 -49.25 32.9 -44.35 36.2 -33.75 37.2 -30.6 37.05 -27.25 36.6 -16.5 35.05 -5.75 L34.25 -1.5 Q33.2 0.75 32.25 3.75 31.0 7.7 28.95 11.25 24.4 19.1 16.15 23.0 3.25 29.05 -10.95 26.75 -19.9 25.15 -26.4 18.65 -33.45 11.6 -37.25 2.5 L-40.25 -7.5 -42.25 -21.25 -42.0 -27.25 Q-44.75 -34.5 -27.75 -47.75 M82.5 123.0 L86.0 121.5 86.5 121.0 87.5 120.5 94.75 114.5 Q110.0 138.75 110.25 153.5 114.75 190.75 55.25 201.0 30.5 204.25 16.75 193.0 11.5 189.75 8.25 165.0 L36.5 158.5 65.0 143.5 82.0 123.75 82.5 123.0 M-4.75 163.75 Q-7.05 174.7 -9.7 185.6 -10.15 187.4 -10.9 189.2 -12.05 191.7 -14.0 193.25 -17.0 195.35 -20.35 196.4 -30.0 199.5 -40.1 200.2 -47.85 200.85 -55.65 199.8 L-62.3 199.05 Q-69.8 197.4 -76.9 194.95 -87.6 191.0 -95.85 183.35 -103.1 176.6 -105.8 167.2 -107.4 161.7 -107.35 156.0 -107.35 154.35 -106.9 152.85 -102.5 138.35 -97.2 124.2 -96.15 121.35 -94.5 118.75 L-88.55 122.8 -85.65 124.6 -79.0 128.0 Q-70.4 136.85 -60.55 144.1 -52.4 150.1 -42.8 154.0 -32.65 158.25 -22.05 161.3 -17.0 162.7 -11.7 163.4 L-4.75 163.75" fill="#e58508" fill-rule="evenodd" stroke="none"/>
    <path d="M38.0 -21.0 L38.5 -18.75 37.75 11.25 36.5 21.5 34.75 28.5 34.5 34.0 32.0 46.0 27.75 59.25 Q22.0 68.0 22.25 70.5 L16.0 78.75 8.75 83.75 -10.0 85.0 Q-25.75 82.0 -34.5 50.75 L-37.5 37.75 -41.25 13.25 -42.0 -17.25 Q-38.75 23.5 0.25 27.0 34.75 23.0 38.0 -21.0 M88.25 -1.75 L102.0 13.0 141.5 53.25 143.75 53.5 Q155.75 66.0 158.75 65.75 L157.5 67.5 155.75 67.5 Q155.5 69.25 153.0 69.75 L153.25 71.75 Q151.75 71.75 150.75 77.75 L149.25 63.25 128.75 43.25 Q126.5 94.25 95.0 114.25 L100.5 123.5 103.75 131.5 101.5 131.5 Q97.5 135.5 92.25 137.25 L92.0 141.5 74.75 161.25 72.75 164.0 42.25 179.25 Q20.75 182.75 17.0 187.25 23.75 201.0 66.25 194.5 98.75 188.0 109.25 164.25 L110.0 163.5 109.75 166.0 105.0 176.5 100.75 181.75 Q92.75 195.75 47.5 201.5 L33.0 200.75 Q24.75 199.0 19.5 195.75 9.0 185.75 8.5 165.25 L-4.25 163.75 Q-6.75 184.5 -14.25 194.25 L-20.75 198.25 -28.25 200.25 -41.25 201.5 -53.5 200.75 -72.25 196.75 -81.25 193.25 -87.75 189.75 -95.25 184.25 -101.75 176.75 -106.25 166.75 -106.75 163.5 Q-96.5 187.0 -64.25 194.0 -22.75 201.0 -13.25 188.0 -20.25 181.25 -32.5 181.0 L-68.0 164.5 Q-94.5 133.25 -102.0 135.5 L-102.25 134.5 -97.75 124.0 -94.5 118.75 Q-117.25 103.0 -126.0 79.75 L-128.0 73.0 Q-135.5 45.5 -126.0 8.0 L-155.5 20.75 -174.5 55.5 -189.25 80.0 -200.25 95.75 -203.5 99.0 -206.75 99.25 -207.75 97.75 -207.75 90.3 Q-207.65 93.25 -206.0 92.75 L-206.25 94.25 Q-205.5 93.0 -202.75 96.0 L-201.5 95.0 -201.5 94.0 -200.25 93.0 -200.25 92.0 -199.0 91.0 -199.0 90.0 -197.75 89.0 -197.75 88.0 -196.5 87.0 -196.5 86.0 -188.0 73.0 -187.0 70.25 -168.5 41.5 -162.75 29.75 Q-161.25 29.5 -162.5 31.0 L-160.25 28.5 Q-156.5 23.0 -165.0 18.25 L-149.75 13.0 -146.75 11.25 -141.75 9.75 Q-138.0 8.75 -141.5 10.75 L-137.75 9.5 -103.0 -7.5 -105.75 -3.5 -109.0 -0.5 -112.5 6.5 -118.25 15.5 -119.25 16.0 -123.75 26.5 -124.75 27.0 Q-126.25 42.75 -109.75 74.25 L-101.75 84.25 -96.75 89.25 -83.25 98.25 Q-86.5 100.5 -85.0 101.75 L-67.5 125.5 -37.0 146.0 -27.75 148.25 0.25 153.0 11.5 151.5 38.5 144.75 69.5 125.0 Q92.75 98.25 87.0 91.0 L92.5 87.5 102.25 77.75 109.0 69.0 112.0 63.0 109.75 55.5 102.75 36.75 91.25 9.75 82.25 -8.25 83.0 -8.5 88.25 -1.75 M-164.5 17.0 L-164.5 17.75 -165.25 17.0 -164.5 17.0 M-41.25 -18.0 L-42.0 -18.25 Q-41.55 -18.5 -41.5 -19.15 L-41.25 -18.0" fill="#000000" fill-opacity="0.49803922" fill-rule="evenodd" stroke="none"/>
  </g>
</svg>
