<?xml version="1.0" encoding="UTF-8" standalone="no"?>
<svg xmlns:ffdec="https://www.free-decompiler.com/flash" xmlns:xlink="http://www.w3.org/1999/xlink" ffdec:objectType="shape" height="327.15px" width="266.35px" xmlns="http://www.w3.org/2000/svg">
  <g transform="matrix(1.0, 0.0, 0.0, 1.0, 135.7, 87.0)">
    <path d="M-17.25 -35.25 Q-8.5 -12.5 -14.0 -4.0 -13.5 -3.25 -16.25 -0.75 L-24.0 2.25 Q-74.25 19.5 -83.5 0.75 -86.95 -3.55 -89.25 -8.5 L-89.75 -8.75 Q-94.25 -26.0 -87.0 -37.0 L-87.25 -37.0 Q-84.8 -40.95 -81.95 -44.5 -69.45 -59.7 -51.5 -68.0 L-50.0 -63.5 Q-50.5 -61.0 -46.0 -57.0 L-41.0 -53.75 Q-34.0 -34.25 -17.25 -35.25 M-97.25 98.5 L-84.25 126.5 -76.25 134.75 -86.65 137.45 Q-93.65 139.2 -100.15 137.65 -128.3 131.55 -134.3 99.85 -142.75 55.25 -100.0 43.5 -102.65 60.35 -100.2 77.75 L-97.25 98.5 M-1.5 167.0 L2.0 168.95 Q35.7 187.75 72.5 176.5 68.5 211.25 59.5 222.0 33.25 250.0 -12.25 227.75 -39.5 214.5 -41.0 195.0 -43.75 189.75 -28.5 164.5 L-1.5 167.0" fill="#e58508" fill-rule="evenodd" stroke="none"/>
    <path d="M-51.0 -70.5 Q-51.25 -74.75 -47.75 -81.25 L-42.5 -87.0 -42.25 -87.0 -32.75 -73.75 -33.25 -73.25 -23.5 -63.5 Q-15.2 -54.2 -8.5 -43.75 L-8.95 -42.6 Q-11.1 -36.6 -17.25 -35.25 -34.0 -34.25 -41.0 -53.75 L-46.0 -57.0 Q-50.5 -61.0 -50.0 -63.5 -43.75 -58.5 -44.75 -68.5 -46.75 -77.25 -51.0 -70.5 M-32.75 -45.0 Q-27.5 -55.5 -37.5 -56.25 -42.0 -47.5 -32.75 -45.0" fill="#ffffff" fill-rule="evenodd" stroke="none"/>
    <path d="M-51.5 -68.0 L-51.0 -70.5 Q-46.75 -77.25 -44.75 -68.5 -43.75 -58.5 -50.0 -63.5 L-51.5 -68.0 M-32.75 -45.0 Q-42.0 -47.5 -37.5 -56.25 -27.5 -55.5 -32.75 -45.0" fill="#000000" fill-rule="evenodd" stroke="none"/>
    <path d="M103.45 32.1 L97.25 17.0 Q120.75 68.0 119.5 124.5 L118.5 124.25 117.85 119.35 Q112.45 75.05 103.45 32.1 M-89.4 -14.8 L-88.65 -12.25 Q-85.3 -2.0 -76.9 4.55 -64.75 10.45 -51.2 9.3 -31.05 7.1 -13.75 -4.0 -29.5 24.85 -47.55 52.2 -65.25 79.05 -94.0 85.0 -84.65 105.65 -68.15 121.05 -38.35 148.9 1.85 148.2 2.6 145.65 2.3 143.15 1.65 138.3 -1.0 134.0 7.75 139.2 17.3 142.55 38.3 149.7 60.5 147.0 51.25 107.0 39.25 67.5 L41.15 72.05 Q57.0 112.95 83.0 147.8 77.2 147.65 78.65 152.75 90.6 194.85 110.75 234.75 129.95 194.35 130.4 147.5 132.7 195.8 113.85 240.15 111.85 238.9 110.65 237.15 90.35 208.05 81.25 172.75 L72.75 176.25 Q72.7 187.65 70.0 198.65 62.2 230.95 31.85 234.65 -18.45 241.0 -40.75 197.0 -13.75 236.2 33.25 230.7 63.75 227.4 65.25 198.5 13.25 192.1 -39.25 187.5 L-38.5 184.85 Q-35.4 173.7 -28.25 164.5 -34.85 162.0 -41.25 158.85 -60.15 149.3 -75.75 134.75 -86.75 138.7 -98.4 139.35 -102.95 139.55 -106.6 137.45 -133.8 121.8 -134.75 89.5 -133.7 98.95 -129.95 107.6 -124.85 119.45 -115.25 127.85 -106.0 136.05 -93.5 135.5 -97.85 123.6 -99.6 111.0 -104.85 72.7 -96.6 34.3 -97.3 41.55 -96.75 48.5 L-82.75 2.0 -84.5 0.0 Q-84.35 0.5 -84.35 1.0 -84.6 10.65 -91.75 18.25 L-89.4 -14.8 M-104.25 -51.25 L-102.75 -60.5 -100.35 -58.45 Q-96.5 -55.45 -92.5 -58.5 -94.9 -68.05 -92.55 -77.45 -80.75 -74.75 -69.5 -73.5 -76.85 -57.5 -83.8 -41.3 -84.45 -39.8 -85.6 -38.55 -92.25 -31.45 -100.5 -26.25 L-103.8 -26.85 Q-105.55 -38.6 -104.25 -51.25" fill="#000000" fill-opacity="0.49803922" fill-rule="evenodd" stroke="none"/>
  </g>
</svg>
