<?xml version="1.0" encoding="UTF-8" standalone="no"?>
<svg xmlns:ffdec="https://www.free-decompiler.com/flash" xmlns:xlink="http://www.w3.org/1999/xlink" ffdec:objectType="shape" height="270.05px" width="342.3px" xmlns="http://www.w3.org/2000/svg">
  <g transform="matrix(1.0, 0.0, 0.0, 1.0, 195.15, 68.3)">
    <path d="M18.75 -49.0 Q27.5 -37.5 43.25 -41.5 54.5 -31.0 68.5 -38.0 80.75 -22.25 76.75 -14.75 L75.5 -7.25 71.5 4.0 66.75 12.5 62.3 18.3 Q55.7 27.0 45.35 30.45 39.2 32.4 32.9 31.75 23.8 30.45 15.5 26.65 12.2 25.15 9.65 22.45 0.25 12.65 -2.25 -0.75 L-2.6 -2.5 -3.0 -3.5 -3.5 -13.25 -2.75 -22.75 -0.75 -32.25 Q-1.5 -40.0 18.75 -49.0 M79.5 142.25 Q92.05 137.6 104.0 131.5 106.85 139.6 109.05 147.9 110.15 152.1 110.2 156.45 110.25 165.45 106.2 173.45 101.7 182.45 93.2 187.95 80.45 196.4 65.3 199.3 L58.7 200.5 Q44.85 203.3 31.0 199.9 22.7 198.0 16.2 192.75 15.1 191.8 14.55 190.55 9.6 178.6 8.25 165.75 L28.75 165.75 57.75 158.25 79.5 142.25 M-5.0 165.5 Q-7.2 175.5 -9.7 185.45 -10.15 187.3 -10.9 189.15 -12.1 192.1 -14.6 193.75 L-14.75 194.5 Q-22.75 197.6 -31.05 199.0 -41.5 200.75 -52.25 200.75 L-59.05 199.65 Q-73.55 197.25 -86.45 190.4 -95.55 185.5 -101.3 176.8 -106.15 169.5 -107.3 160.7 -107.85 156.65 -106.75 152.9 -102.9 139.25 -97.6 126.1 -95.0 119.75 -91.5 113.75 L-84.95 115.3 -73.75 117.5 -66.75 130.0 -42.25 149.75 -29.5 156.5 -5.75 165.0 -5.0 165.5" fill="#e58508" fill-rule="evenodd" stroke="none"/>
    <path d="M18.75 -49.0 L18.5 -49.2 Q17.45 -50.8 17.05 -52.5 16.7 -54.05 16.8 -55.55 17.05 -60.7 17.75 -65.75 20.55 -68.05 24.0 -68.25 35.3 -68.85 46.0 -64.25 L45.75 -63.75 Q50.45 -62.35 55.5 -62.25 61.6 -62.05 67.2 -59.6 69.85 -58.5 72.3 -56.95 74.1 -55.75 75.4 -54.0 76.1 -53.0 75.7 -52.1 72.5 -44.9 68.5 -38.0 54.5 -31.0 43.25 -41.5 27.5 -37.5 18.75 -49.0 M66.75 12.5 L67.25 17.5 70.25 35.5 71.0 50.0 73.25 59.75 65.75 100.5 -9.0 100.75 -51.5 102.0 -80.75 103.75 -82.75 89.75 Q-77.75 85.5 -77.75 81.25 L-68.0 76.0 -66.5 73.75 -55.25 64.25 -54.25 62.0 -40.25 47.75 -24.75 27.0 -17.75 15.0 -3.0 -3.5 -2.6 -2.5 -2.25 -0.75 Q0.25 12.65 9.65 22.45 12.2 25.15 15.5 26.65 23.8 30.45 32.9 31.75 39.2 32.4 45.35 30.45 55.7 27.0 62.3 18.3 L66.75 12.5 M28.0 -52.5 Q26.25 -42.75 35.25 -44.25 39.0 -46.5 38.75 -50.0 L36.75 -52.5 Q29.5 -56.5 28.0 -52.5 M58.0 -39.0 Q65.25 -41.5 60.25 -48.0 L53.75 -48.25 Q49.5 -47.25 51.0 -44.25 50.0 -38.5 58.0 -39.0 M-73.75 117.5 L-44.75 122.25 -1.25 128.0 41.25 131.75 51.0 132.0 82.75 131.95 83.85 131.8 91.5 119.5 Q90.0 125.6 87.15 131.0 84.0 137.0 79.5 142.25 L57.75 158.25 28.75 165.75 8.25 165.75 -5.0 165.5 -5.75 165.0 -29.5 156.5 -42.25 149.75 -66.75 130.0 -73.75 117.5" fill="#ffffff" fill-rule="evenodd" stroke="none"/>
    <path d="M58.0 -39.0 Q50.0 -38.5 51.0 -44.25 49.5 -47.25 53.75 -48.25 L60.25 -48.0 Q65.25 -41.5 58.0 -39.0 M28.0 -52.5 Q29.5 -56.5 36.75 -52.5 L38.75 -50.0 Q39.0 -46.5 35.25 -44.25 26.25 -42.75 28.0 -52.5" fill="#000000" fill-rule="evenodd" stroke="none"/>
    <path d="M126.0 -6.0 L126.75 -4.75 124.75 12.25 123.25 35.75 122.75 66.5 Q125.5 65.75 133.25 49.5 151.5 11.5 131.5 -41.0 155.25 16.5 143.0 75.5 139.0 104.5 104.0 131.5 112.75 145.75 109.5 166.5 L105.25 176.25 Q91.5 198.0 47.5 201.5 L33.0 200.75 Q24.75 199.0 19.5 195.75 9.5 186.5 8.5 165.75 L-1.75 165.5 -5.25 165.75 -6.5 175.5 -10.5 188.5 -14.25 194.25 Q-23.75 202.75 -51.25 201.0 -71.5 198.75 -86.75 190.25 -105.75 177.5 -106.75 163.5 -96.5 187.0 -64.25 194.0 L-53.75 195.25 -51.75 196.5 Q-50.75 197.25 -43.5 194.25 L-29.75 194.0 -27.25 195.25 -20.25 193.25 Q-13.0 189.0 -12.75 187.75 -13.5 181.25 -41.5 174.0 L-66.5 155.25 -70.5 150.75 -85.0 125.75 -91.75 120.5 -94.5 119.5 -91.25 113.75 Q-96.0 113.0 -95.75 111.75 L-86.5 113.5 -62.0 116.25 -23.25 119.25 40.75 122.5 63.25 121.4 63.8 120.8 Q65.65 119.65 75.25 120.0 L80.4 119.65 Q84.7 119.35 86.85 119.55 L86.95 119.7 88.25 119.5 88.0 116.5 89.5 114.0 91.0 113.5 90.5 112.75 91.25 112.5 91.5 110.25 107.5 66.0 107.25 65.0 110.75 54.5 115.75 34.75 116.5 34.0 118.25 25.75 119.0 25.0 126.0 -6.0 M77.5 -19.5 L77.25 -2.75 75.0 17.0 74.75 25.5 72.75 40.25 69.25 56.0 Q55.0 95.75 39.75 90.5 -4.0 88.5 -3.0 -3.0 4.5 30.0 36.0 30.5 66.25 27.5 77.5 -19.5 M67.5 136.5 Q73.25 133.5 73.75 130.5 L45.75 132.25 -0.75 128.0 -64.5 119.25 -40.75 139.75 Q-0.75 158.25 7.0 153.5 L31.75 151.5 35.75 150.25 67.75 137.5 67.5 136.5 M24.0 189.5 L22.0 190.25 22.25 191.0 21.25 191.75 23.5 193.5 26.5 194.0 Q54.5 187.75 67.25 194.25 L74.5 191.75 75.0 183.0 78.0 170.75 77.0 170.5 66.75 177.75 38.75 185.75 32.25 188.75 24.0 189.5 M-134.75 -18.25 L-134.5 -18.0 -134.25 -18.25 -134.75 -18.25 M-133.25 -20.25 L-133.75 -23.75 -129.0 -23.75 -109.25 -23.75 -80.75 -27.5 -63.0 -32.0 -77.1 -21.8 Q-91.5 -11.05 -102.3 3.15 -108.15 10.85 -110.5 20.35 -111.25 23.45 -111.05 26.7 -110.4 37.1 -106.7 46.4 -99.65 64.1 -88.7 80.05 L-81.15 91.05 Q-77.25 96.85 -74.5 103.5 L-83.5 104.25 Q-95.2 95.3 -103.35 83.0 -107.6 76.65 -110.15 69.2 -117.55 47.45 -112.1 24.9 -105.95 -0.65 -92.25 -23.25 L-102.0 -21.75 -131.7 -19.25 Q-144.75 0.7 -160.2 19.0 L-185.5 51.75 -193.85 62.0 -194.6 62.0 -193.25 60.5 -193.5 60.0 -195.15 62.0 -162.85 19.95 -158.6 14.05 -155.45 9.4 Q-149.15 0.25 -142.2 -8.1 -139.8 -11.0 -138.5 -13.5 L-138.0 -13.75 -136.6 -16.45 -133.25 -20.25" fill="#000000" fill-opacity="0.49803922" fill-rule="evenodd" stroke="none"/>
  </g>
</svg>
