<?xml version="1.0" encoding="UTF-8" standalone="no"?>
<svg xmlns:ffdec="https://www.free-decompiler.com/flash" xmlns:xlink="http://www.w3.org/1999/xlink" ffdec:objectType="shape" height="270.55px" width="357.75px" xmlns="http://www.w3.org/2000/svg">
  <g transform="matrix(1.0, 0.0, 0.0, 1.0, 217.25, 68.9)">
    <path d="M4.0 -49.75 Q1.35 -53.05 1.25 -57.55 1.1 -62.0 1.5 -66.5 L3.35 -67.65 Q8.5 -69.0 13.75 -68.9 21.1 -68.75 28.4 -67.05 L32.35 -66.55 43.65 -65.05 Q50.25 -64.0 56.35 -61.3 59.0 -60.15 61.25 -58.0 L61.0 -57.0 Q61.35 -53.2 59.2 -49.65 L54.5 -42.75 Q48.25 -34.25 28.75 -44.25 13.5 -39.25 4.0 -49.75 M56.75 7.25 Q59.6 19.0 61.95 30.85 63.0 36.25 63.5 41.75 L71.75 68.25 Q78.75 78.5 84.5 89.4 88.1 96.25 90.5 103.75 L37.5 143.0 10.0 165.0 8.25 165.25 -1.0 165.75 -5.0 164.5 -29.25 158.0 -39.0 153.5 -65.75 134.75 -73.5 123.25 -74.5 122.0 -78.25 116.25 -79.0 115.75 -83.65 100.65 Q-84.4 98.1 -84.75 95.5 L-83.85 94.65 -83.05 93.75 Q-81.55 91.85 -81.0 89.4 L-80.5 86.75 -72.25 82.25 Q-67.25 76.75 -62.7 70.9 -50.15 54.75 -38.95 37.65 -27.4 20.1 -16.8 1.95 L-14.0 -2.75 -12.1 3.3 Q-9.5 10.4 -5.05 16.4 -1.95 20.65 2.3 23.45 L6.6 25.75 Q16.45 29.75 27.0 29.45 39.1 28.7 47.55 20.2 53.2 14.5 56.75 7.25 M12.0 -50.25 L14.25 -47.25 17.0 -46.25 20.25 -46.25 Q25.5 -51.25 22.75 -53.5 18.75 -57.25 16.5 -56.5 L12.75 -55.0 Q11.0 -51.5 12.0 -50.25 M37.75 -43.5 L43.75 -42.75 Q50.5 -46.25 45.25 -52.0 42.75 -54.0 36.25 -50.25 L36.25 -47.0 37.75 -43.5" fill="#ffffff" fill-rule="evenodd" stroke="none"/>
    <path d="M37.75 -43.5 L36.25 -47.0 36.25 -50.25 Q42.75 -54.0 45.25 -52.0 50.5 -46.25 43.75 -42.75 L37.75 -43.5 M12.0 -50.25 Q11.0 -51.5 12.75 -55.0 L16.5 -56.5 Q18.75 -57.25 22.75 -53.5 25.5 -51.25 20.25 -46.25 L17.0 -46.25 14.25 -47.25 12.0 -50.25" fill="#000000" fill-rule="evenodd" stroke="none"/>
    <path d="M54.5 -42.75 Q67.75 -29.25 64.75 -20.25 L64.0 -12.5 60.5 -0.5 56.75 7.25 Q53.2 14.5 47.55 20.2 39.1 28.7 27.0 29.45 16.45 29.75 6.6 25.75 L2.3 23.45 Q-1.95 20.65 -5.05 16.4 -9.5 10.4 -12.1 3.3 L-14.0 -2.75 Q-16.7 -17.35 -13.75 -31.7 L-12.75 -34.8 Q-8.6 -44.1 0.7 -48.35 L4.0 -49.75 Q13.5 -39.25 28.75 -44.25 48.25 -34.25 54.5 -42.75 M10.0 165.0 L8.25 166.5 8.25 165.25 10.0 165.0 M-5.0 164.5 L-8.0 180.0 -14.25 185.5 -23.75 195.0 -24.25 197.0 -23.25 198.75 -31.25 200.75 -39.75 201.5 -52.25 200.75 Q-108.75 192.75 -107.5 153.5 L-107.25 152.75 Q-110.25 146.25 -88.25 108.75 L-85.75 111.0 -79.0 115.75 -78.25 116.25 -74.5 122.0 -73.5 123.25 -65.75 134.75 -39.0 153.5 -29.25 158.0 -5.0 164.5 M11.75 184.5 L74.25 148.25 95.0 135.5 95.75 135.5 103.0 129.25 Q105.5 135.25 107.4 141.45 109.25 147.6 109.95 154.05 110.85 162.05 108.05 169.65 105.05 177.8 98.55 183.7 90.35 191.3 79.7 195.25 62.25 201.55 43.6 201.65 34.75 201.7 26.45 198.85 15.6 195.15 11.75 184.5" fill="#e58508" fill-rule="evenodd" stroke="none"/>
    <path d="M-22.75 194.0 L-24.25 195.75 -23.5 199.0 -28.25 200.25 -39.5 201.5 Q-102.5 196.75 -106.75 163.75 -81.25 204.0 -22.75 194.0 M-11.25 40.75 L-14.25 19.75 -15.25 6.75 -15.0 -7.5 Q-7.5 29.5 27.75 28.25 57.0 23.75 65.25 -24.0 62.25 85.0 29.25 88.0 6.5 87.0 -3.25 67.5 L-7.5 56.75 -11.25 40.75 M-140.5 -0.5 L-141.5 -1.75 -142.25 -6.25 Q-136.3 -7.95 -130.3 -7.85 L-129.5 -7.5 -118.5 -10.0 -91.0 -18.0 -77.25 -23.0 -89.0 -12.25 -89.05 -12.0 -89.2 -11.6 Q-91.35 -8.05 -94.6 -5.05 L-99.25 -1.0 -99.0 -0.5 Q-102.25 3.35 -105.05 7.55 -109.9 14.85 -114.25 22.5 L-115.25 23.0 Q-115.5 25.25 -115.05 27.35 -110.75 48.35 -103.5 68.45 -100.85 75.75 -95.45 81.8 -89.9 88.05 -82.5 91.5 L-68.0 119.75 -61.5 125.75 -39.75 141.5 -5.5 153.0 6.45 152.4 28.75 150.25 8.75 166.25 Q6.35 164.3 3.2 165.2 -1.0 166.3 -5.0 164.5 L-7.5 179.5 -14.0 185.5 -14.4 185.05 -15.7 184.2 Q-26.4 178.5 -38.5 176.5 L-65.5 159.0 -70.25 155.25 -87.25 130.25 -94.15 125.4 Q-95.25 124.55 -96.45 124.3 L-96.85 124.25 -97.2 124.35 Q-97.25 123.65 -96.95 123.15 L-88.25 108.25 Q-96.7 99.45 -104.6 90.25 -108.95 85.2 -111.95 79.1 -118.15 66.4 -119.6 52.25 -120.7 41.7 -119.0 31.5 -115.35 9.65 -105.5 -10.25 L-138.25 -1.75 -160.0 32.0 -191.5 78.0 -214.5 107.0 -217.25 106.75 Q-214.5 104.75 -212.35 102.2 -202.0 90.1 -192.75 77.15 L-182.35 62.35 Q-167.8 41.75 -154.2 20.0 -152.15 16.75 -149.5 14.0 -148.05 12.5 -147.6 10.3 L-147.65 10.15 Q-147.0 9.6 -146.25 9.25 L-146.75 8.5 -140.5 -0.5 M-22.5 199.5 L-13.0 196.0 15.0 179.75 79.5 139.5 81.0 138.15 Q88.0 133.4 97.05 126.15 L110.05 115.4 Q114.0 111.9 119.25 104.15 L122.45 99.4 124.5 64.0 124.0 16.0 122.75 -1.5 123.75 1.25 124.75 15.75 126.5 27.75 127.5 46.0 128.25 47.75 Q139.5 16.15 132.35 -13.75 L137.25 4.75 139.75 24.0 140.5 38.25 140.5 54.0 139.75 61.75 133.25 87.75 Q127.05 95.9 123.7 103.8 L122.5 107.85 121.75 111.25 120.7 114.5 120.4 115.0 120.0 118.25 Q117.5 121.75 110.0 123.0 L103.0 129.0 Q112.5 145.75 109.75 166.0 105.75 194.25 47.5 201.5 17.5 203.25 12.25 184.5 L-9.25 196.0 -20.5 200.5 -22.5 199.5 M89.5 59.5 L90.75 61.75 92.0 68.25 92.0 72.25 92.75 73.75 96.25 101.25 96.25 103.75 Q94.75 103.75 94.25 101.5 L90.5 104.25 90.0 103.15 90.0 103.0 89.95 103.0 Q87.05 95.9 93.5 94.75 L89.5 59.5 M30.5 195.5 L45.25 196.75 Q46.75 186.75 101.0 164.5 L98.5 148.0 95.25 149.0 Q95.5 154.75 68.25 173.75 L34.75 185.75 Q20.75 186.5 19.75 189.25 21.75 194.5 30.5 195.5 M111.6 119.8 L112.0 119.75 112.6 119.15 111.6 119.8" fill="#000000" fill-opacity="0.49803922" fill-rule="evenodd" stroke="none"/>
  </g>
</svg>
