<?xml version="1.0" encoding="UTF-8" standalone="no"?>
<svg xmlns:ffdec="https://www.free-decompiler.com/flash" xmlns:xlink="http://www.w3.org/1999/xlink" ffdec:objectType="shape" height="271.55px" width="353.0px" xmlns="http://www.w3.org/2000/svg">
  <g transform="matrix(1.0, 0.0, 0.0, 1.0, 203.5, 69.7)">
    <path d="M-10.75 -49.5 Q-12.9 -51.45 -13.85 -54.4 -14.4 -56.25 -14.5 -58.0 -14.75 -62.0 -14.5 -66.0 -12.9 -67.4 -11.0 -67.9 -5.4 -69.65 0.5 -69.7 L12.2 -68.75 14.8 -68.2 18.5 -68.0 Q28.0 -69.5 37.55 -66.4 41.1 -65.25 44.35 -63.25 L45.5 -62.25 Q45.0 -57.9 43.6 -53.8 42.25 -50.0 40.0 -46.5 36.25 -37.25 14.25 -46.0 0.25 -39.5 -10.75 -49.5 M46.5 3.0 Q50.25 13.85 53.4 24.9 55.1 30.85 56.25 37.0 L67.5 64.25 Q75.25 73.6 81.6 83.9 86.75 92.25 86.55 101.5 86.25 115.75 82.0 130.0 L63.5 148.75 Q48.1 155.1 32.25 159.8 20.5 163.25 8.25 165.0 L2.0 165.5 -5.0 164.0 -26.25 160.0 -38.25 155.25 -64.25 140.0 -78.0 122.5 -79.5 121.25 -81.0 118.15 -86.5 103.0 -85.65 101.8 -84.85 100.5 Q-82.8 96.95 -83.0 93.0 -78.25 88.6 -74.0 83.8 -68.4 77.5 -63.8 70.4 -53.25 54.1 -44.1 37.05 -34.0 18.35 -24.75 -0.75 -21.65 10.5 -13.55 18.7 -10.95 21.35 -7.55 23.15 4.9 29.5 18.75 27.25 29.2 25.75 36.8 18.35 38.6 16.55 40.0 14.45 43.6 8.9 46.5 3.0 M24.25 -54.5 L21.0 -52.0 Q20.5 -48.75 22.75 -46.0 L27.25 -45.25 Q38.0 -50.75 27.75 -55.25 L24.25 -54.5 M3.5 -47.0 Q15.25 -55.25 0.0 -57.0 -7.75 -49.25 3.5 -47.0" fill="#ffffff" fill-rule="evenodd" stroke="none"/>
    <path d="M40.0 -46.5 Q54.75 -33.5 52.25 -24.75 L51.75 -15.25 46.5 3.0 Q43.6 8.9 40.0 14.45 38.6 16.55 36.8 18.35 29.2 25.75 18.75 27.25 4.9 29.5 -7.55 23.15 -10.95 21.35 -13.55 18.7 -21.65 10.5 -24.75 -0.75 L-27.0 -10.25 -27.75 -22.25 -27.0 -30.25 Q-24.25 -43.75 -10.75 -49.5 0.25 -39.5 14.25 -46.0 36.25 -37.25 40.0 -46.5 M82.0 130.0 Q84.1 129.25 86.0 128.1 92.25 124.35 98.25 120.25 L102.5 128.25 99.7 138.0 99.45 138.75 99.2 139.25 98.75 139.75 Q99.15 141.05 98.35 142.7 97.6 144.1 97.2 145.7 L93.65 159.4 Q89.75 173.75 87.05 188.35 86.75 190.0 87.0 191.75 66.5 202.0 43.6 201.85 31.1 201.8 20.45 195.55 17.75 194.05 15.65 191.75 13.95 189.95 13.15 187.6 9.5 176.5 8.25 165.0 20.5 163.25 32.25 159.8 48.1 155.1 63.5 148.75 L82.0 130.0 M-5.0 164.0 Q-7.2 174.8 -9.7 185.6 -10.15 187.4 -10.9 189.2 -12.05 191.7 -14.0 193.25 -17.0 195.35 -20.35 196.4 -30.0 199.5 -40.1 200.2 -47.85 200.85 -55.65 199.8 L-62.3 199.05 Q-69.8 197.4 -76.9 194.95 -87.6 191.0 -95.85 183.35 -103.1 176.6 -105.8 167.2 -107.4 161.7 -107.35 156.0 -107.35 154.35 -106.9 152.85 -102.5 138.5 -96.8 124.65 -94.4 118.75 -91.0 113.25 L-88.3 115.55 Q-84.3 119.1 -79.5 121.25 L-78.0 122.5 -64.25 140.0 -38.25 155.25 -26.25 160.0 -5.0 164.0 M110.25 161.25 Q109.2 169.25 105.2 176.35 101.95 182.2 96.25 185.75 L110.25 161.25" fill="#e58508" fill-rule="evenodd" stroke="none"/>
    <path d="M24.25 -54.5 L27.75 -55.25 Q38.0 -50.75 27.25 -45.25 L22.75 -46.0 Q20.5 -48.75 21.0 -52.0 L24.25 -54.5 M3.5 -47.0 Q-7.75 -49.25 0.0 -57.0 15.25 -55.25 3.5 -47.0" fill="#000000" fill-rule="evenodd" stroke="none"/>
    <path d="M103.5 35.25 L106.25 38.75 125.25 74.75 126.75 74.0 133.0 83.75 132.0 84.25 123.5 80.0 120.0 80.5 Q120.5 82.0 118.0 83.25 L108.0 113.0 98.5 120.0 102.75 128.25 99.25 139.75 99.0 141.5 94.5 143.25 Q94.75 148.25 70.5 169.5 L38.25 183.0 Q19.75 185.0 18.25 188.0 16.75 190.25 23.5 193.5 L32.75 196.0 42.0 196.75 56.25 196.5 Q83.75 191.5 87.0 185.25 L87.25 184.0 88.0 184.0 87.5 187.5 88.25 187.0 88.25 188.25 89.75 189.0 Q91.25 186.5 92.5 188.0 L95.0 185.5 126.6 122.35 Q126.45 121.8 126.45 120.9 126.45 117.4 126.6 122.35 L138.0 89.1 Q139.4 84.85 145.1 71.5 147.15 66.65 147.55 60.0 L145.0 50.25 145.25 49.0 145.85 51.15 146.45 51.15 Q147.2 52.45 148.4 60.1 L148.45 60.45 148.75 61.5 148.8 62.8 149.5 69.05 149.15 71.35 149.25 74.5 Q148.0 74.75 148.5 79.5 L145.5 85.0 141.0 101.0 126.0 131.25 110.25 160.75 109.75 166.0 105.25 176.25 99.75 183.0 96.0 186.0 91.75 192.25 89.0 192.5 86.75 191.75 83.5 193.75 67.5 199.0 57.75 200.75 47.5 201.5 33.0 200.75 Q24.75 199.0 19.5 195.75 11.0 190.75 8.5 165.25 L3.25 165.5 -4.5 164.0 -8.0 181.75 Q-11.5 192.0 -14.25 194.25 -23.5 202.75 -51.75 201.0 -85.5 196.5 -99.25 179.75 -102.0 178.75 -106.75 163.5 -96.0 187.25 -65.25 193.75 -23.0 201.0 -12.75 188.25 -15.75 181.5 -36.0 178.5 L-68.75 160.0 -70.25 159.0 -89.0 135.25 -99.25 129.75 Q-100.5 129.0 -98.25 125.25 L-91.25 113.5 Q-119.5 88.5 -122.75 68.25 L-124.0 61.0 Q-128.25 32.5 -117.75 4.75 L-141.25 15.0 -164.0 54.75 -181.0 82.75 -194.0 102.0 -198.75 107.5 Q-200.25 108.5 -202.75 107.25 L-203.5 106.25 -203.25 101.0 -203.0 100.5 -202.5 101.25 -201.5 101.0 -201.75 103.25 -200.5 103.0 -200.25 104.0 Q-198.5 104.5 -195.0 102.0 L-195.0 101.0 -186.5 88.5 -174.25 67.25 -172.0 64.5 -172.0 63.5 -170.5 62.0 -170.25 60.5 -168.75 59.0 -168.5 57.5 -166.75 55.5 -159.0 41.25 -158.25 41.0 -158.0 39.5 -151.75 31.0 Q-148.75 23.25 -147.25 23.0 L-145.5 19.0 Q-145.0 17.5 -150.25 12.5 -137.75 6.25 -135.5 8.25 L-123.25 3.25 -89.25 -13.5 -108.0 9.25 -107.75 10.0 -111.0 14.5 -114.5 21.5 -116.25 23.25 -117.5 27.5 -119.5 30.5 -118.0 46.5 -114.0 57.75 -108.25 70.25 -102.25 78.25 -94.25 87.0 -83.25 94.5 -83.25 97.0 -68.25 121.75 -49.75 136.5 -38.75 143.5 -2.5 153.25 9.25 152.25 36.75 147.0 50.25 140.25 68.5 129.75 80.5 116.0 89.0 102.5 Q90.25 98.25 88.25 94.75 L96.5 88.75 111.25 72.5 105.25 48.25 96.5 22.25 97.0 22.0 103.5 35.25 M146.35 52.95 L147.6 57.4 147.6 57.15 Q147.6 55.9 146.7 53.8 L146.35 52.95 M19.5 86.0 Q-4.25 86.0 -13.0 70.75 -28.25 38.75 -27.5 -13.75 -22.0 28.75 18.25 26.75 45.0 23.0 52.5 -23.0 52.5 73.5 19.5 86.0 M-202.75 98.0 L-201.75 98.25 -202.25 100.0 -202.75 98.0 M135.3 107.3 L139.0 99.5 139.8 96.6 135.3 107.3" fill="#000000" fill-opacity="0.49803922" fill-rule="evenodd" stroke="none"/>
  </g>
</svg>
