<?xml version="1.0" encoding="UTF-8" standalone="no"?>
<svg xmlns:ffdec="https://www.free-decompiler.com/flash" xmlns:xlink="http://www.w3.org/1999/xlink" ffdec:objectType="shape" height="359.75px" width="343.5px" xmlns="http://www.w3.org/2000/svg">
  <g transform="matrix(1.0, 0.0, 0.0, 1.0, 187.7, 216.25)">
    <path d="M57.15 -133.2 Q70.4 -128.15 82.65 -121.35 113.8 -104.05 143.0 -84.0 L143.3 -84.05 Q145.7 -83.4 147.25 -81.25 L151.9 -71.55 Q154.35 -66.45 155.4 -61.05 156.45 -55.8 154.7 -50.8 152.75 -45.15 147.25 -42.5 145.7 -39.2 143.25 -36.5 L122.25 -22.0 106.5 -16.25 Q111.7 1.15 113.05 19.1 114.35 36.25 109.75 52.55 106.1 65.65 98.3 76.75 88.35 90.95 74.15 101.15 L71.75 103.25 65.0 110.75 42.75 128.5 19.25 139.0 -11.5 143.5 -38.0 139.5 Q-42.4 137.25 -47.0 135.95 -62.65 131.85 -78.45 128.5 -85.75 126.8 -92.45 123.4 -94.25 122.5 -96.15 122.0 -106.9 118.9 -115.05 111.05 -122.85 103.55 -127.55 93.6 -133.25 81.5 -135.95 68.25 -141.0 43.7 -141.25 18.5 -152.5 18.75 -163.15 16.35 -171.65 14.35 -178.2 8.35 -181.25 5.5 -183.35 1.4 L-185.0 -1.5 Q-187.65 -5.55 -187.7 -10.55 -187.9 -23.7 -182.8 -36.0 L-181.5 -38.3 -172.85 -50.55 -172.2 -51.5 Q-165.5 -61.65 -158.05 -71.3 -146.25 -86.45 -130.65 -97.9 -123.55 -103.15 -115.25 -105.75 -109.1 -125.9 -100.9 -145.45 -93.65 -162.7 -84.0 -178.4 -70.85 -199.8 -52.25 -216.25 -40.2 -214.6 -29.65 -208.2 -15.7 -199.85 -4.1 -188.65 21.35 -164.1 42.0 -135.5 L44.5 -135.65 Q50.95 -135.5 57.15 -133.2" fill="#2e47aa" fill-rule="evenodd" stroke="none"/>
  </g>
</svg>
