<?xml version="1.0" encoding="UTF-8" standalone="no"?>
<svg xmlns:ffdec="https://www.free-decompiler.com/flash" xmlns:xlink="http://www.w3.org/1999/xlink" ffdec:objectType="shape" height="353.25px" width="348.9px" xmlns="http://www.w3.org/2000/svg">
  <g transform="matrix(1.0, 0.0, 0.0, 1.0, 184.65, 205.5)">
    <path d="M34.75 -152.7 Q46.6 -137.75 56.75 -121.75 61.2 -121.8 65.5 -120.0 79.65 -114.25 92.15 -105.4 108.25 -94.05 123.7 -81.7 138.9 -69.6 153.5 -57.0 L153.7 -56.95 Q155.6 -55.5 156.7 -53.55 161.25 -45.75 163.45 -37.0 164.9 -31.3 163.8 -25.45 162.3 -17.6 154.5 -15.5 L150.25 -10.25 128.0 3.25 116.5 6.75 Q118.9 26.2 116.8 45.6 114.75 64.55 105.05 80.8 100.6 88.2 94.3 93.7 88.8 98.6 82.9 102.85 L76.55 107.3 Q74.85 108.5 73.45 109.95 L69.5 113.65 Q55.1 125.25 40.25 136.25 L14.5 145.75 -11.75 147.75 -17.5 147.25 -42.25 141.5 Q-49.4 137.25 -57.1 135.1 -80.05 128.55 -100.25 116.0 -117.65 105.15 -127.0 87.0 -133.85 73.8 -136.05 58.95 -138.3 43.8 -137.5 28.5 L-160.25 27.25 -163.8 26.1 Q-168.3 24.15 -172.55 21.45 -179.0 17.3 -180.3 9.85 -180.45 9.05 -180.85 8.45 -184.9 2.05 -184.65 -5.5 -184.25 -16.15 -179.7 -25.8 L-177.95 -28.8 -166.0 -45.5 -162.6 -50.15 Q-150.05 -67.75 -134.2 -82.7 -121.0 -95.15 -104.25 -102.25 -93.25 -132.85 -75.7 -160.2 -66.55 -174.5 -54.85 -186.85 -45.05 -197.2 -33.75 -205.5 -9.55 -197.0 9.6 -179.7 23.2 -167.3 34.75 -152.7" fill="#2e47aa" fill-rule="evenodd" stroke="none"/>
  </g>
</svg>
