<?xml version="1.0" encoding="UTF-8" standalone="no"?>
<svg xmlns:ffdec="https://www.free-decompiler.com/flash" xmlns:xlink="http://www.w3.org/1999/xlink" ffdec:objectType="shape" height="342.75px" width="353.7px" xmlns="http://www.w3.org/2000/svg">
  <g transform="matrix(1.0, 0.0, 0.0, 1.0, 182.25, 190.25)">
    <path d="M71.25 -104.5 L81.5 -100.75 105.5 -83.0 138.5 -53.0 161.75 -27.25 162.0 -27.2 Q164.45 -26.25 165.55 -23.65 169.45 -14.5 171.15 -4.6 172.25 1.6 169.1 7.0 166.05 12.15 160.55 14.65 158.25 15.75 156.15 17.4 153.6 19.5 150.55 21.1 141.1 26.0 131.45 30.3 127.35 32.1 123.0 33.25 L122.8 36.65 Q122.1 50.3 118.8 63.6 114.3 81.9 101.6 96.05 96.3 101.95 89.7 106.3 L81.4 112.1 80.1 113.15 Q77.0 115.6 74.1 118.4 L72.7 119.95 68.75 125.0 36.75 144.25 11.5 152.5 -18.25 152.25 -45.5 143.75 Q-53.65 138.5 -62.0 133.7 -67.9 130.25 -74.05 127.35 L-76.9 126.05 -93.75 117.25 Q-110.1 108.5 -119.7 92.7 -129.45 76.6 -132.1 57.9 -133.3 49.65 -133.75 41.25 L-150.5 38.75 -152.25 38.5 Q-157.2 37.85 -161.35 36.55 -163.5 35.9 -165.5 34.85 -173.35 30.65 -177.3 22.85 L-178.25 20.4 Q-178.65 18.9 -178.5 17.5 L-179.0 16.75 -179.0 16.25 -179.9 14.9 Q-182.8 9.9 -182.15 4.2 -181.1 -5.15 -176.85 -13.45 L-173.75 -19.5 -157.0 -41.25 -156.1 -42.3 Q-143.95 -58.4 -129.25 -72.05 -113.5 -86.65 -94.0 -96.0 L-92.0 -100.25 Q-83.5 -118.15 -72.95 -134.9 -57.0 -160.15 -33.8 -179.05 -26.25 -185.2 -17.75 -190.25 L-12.35 -188.35 Q4.25 -181.9 17.75 -170.2 36.6 -153.8 51.4 -133.7 61.9 -119.5 71.25 -104.5" fill="#2e47aa" fill-rule="evenodd" stroke="none"/>
  </g>
</svg>
