<?xml version="1.0" encoding="UTF-8" standalone="no"?>
<svg xmlns:ffdec="https://www.free-decompiler.com/flash" xmlns:xlink="http://www.w3.org/1999/xlink" ffdec:objectType="shape" height="334.75px" width="355.0px" xmlns="http://www.w3.org/2000/svg">
  <g transform="matrix(1.0, 0.0, 0.0, 1.0, 180.5, 177.5)">
    <path d="M76.35 -102.75 Q79.35 -98.05 83.05 -94.0 88.25 -88.3 94.25 -83.25 L115.0 -64.0 146.75 -27.75 158.5 -11.25 159.25 -10.25 Q164.6 -3.75 169.55 3.05 172.45 7.05 172.95 11.9 L173.2 13.45 Q175.55 22.45 173.7 31.65 173.15 34.5 171.4 36.55 167.85 40.85 162.0 41.25 L150.95 47.45 150.05 47.9 Q138.6 52.25 127.25 56.75 123.9 78.65 110.6 96.2 107.05 100.95 102.6 104.85 96.35 110.15 89.5 114.75 L84.1 118.25 Q80.75 120.25 77.9 122.75 71.35 128.5 65.5 135.0 L33.25 150.5 7.5 157.25 -24.25 154.0 -49.0 144.0 Q-60.5 134.85 -72.45 126.35 L-81.3 120.65 Q-82.15 120.15 -83.25 120.25 -87.4 117.35 -91.8 115.1 L-98.55 111.1 Q-106.4 105.9 -111.6 98.15 -121.2 83.8 -125.3 66.95 -127.65 57.45 -129.25 47.5 L-135.4 46.75 -149.75 43.5 -150.95 43.3 Q-157.65 44.5 -163.0 40.15 -171.45 33.3 -175.75 23.2 -176.75 20.95 -178.05 18.95 -179.4 16.8 -179.9 14.4 -181.5 7.1 -178.7 0.05 -175.3 -8.65 -170.25 -16.5 L-149.0 -41.0 -117.75 -71.5 -111.65 -76.55 Q-102.4 -84.15 -92.2 -89.95 -87.9 -92.35 -83.0 -92.75 L-77.7 -101.4 Q-64.85 -122.35 -49.0 -141.1 -38.5 -153.45 -25.95 -163.45 -14.5 -172.45 -0.75 -177.5 14.45 -173.05 26.7 -162.75 41.6 -150.15 53.55 -134.9 65.75 -119.4 76.35 -102.75" fill="#2e47aa" fill-rule="evenodd" stroke="none"/>
  </g>
</svg>
