<?xml version="1.0" encoding="UTF-8" standalone="no"?>
<svg xmlns:ffdec="https://www.free-decompiler.com/flash" xmlns:xlink="http://www.w3.org/1999/xlink" ffdec:objectType="shape" height="347.25px" width="351.2px" xmlns="http://www.w3.org/2000/svg">
  <g transform="matrix(1.0, 0.0, 0.0, 1.0, 175.15, 195.25)">
    <path d="M60.75 -153.85 Q72.05 -137.95 81.45 -120.9 88.15 -108.8 94.0 -96.5 99.05 -93.25 103.9 -89.65 L109.85 -84.45 124.0 -70.75 151.0 -37.5 Q158.6 -25.8 166.75 -14.55 168.3 -12.5 170.1 -10.6 173.6 -6.95 174.1 -2.1 174.55 2.45 175.45 6.9 177.2 15.4 173.95 23.4 171.25 30.15 164.0 31.85 L162.95 32.15 Q147.5 38.75 132.0 44.25 132.3 58.0 127.8 70.95 123.2 84.2 114.3 95.15 104.85 106.75 92.45 115.15 85.15 120.1 77.45 124.1 L66.35 129.85 54.45 135.9 50.35 137.9 Q39.95 142.9 29.5 147.5 L2.0 152.0 -27.75 147.0 -53.0 134.75 Q-61.65 126.8 -71.1 119.65 L-78.05 115.0 Q-95.05 105.0 -107.55 89.5 -114.85 80.45 -119.1 69.6 -124.4 56.2 -125.0 41.7 -125.45 30.85 -124.15 19.9 L-123.75 16.75 Q-139.05 15.5 -153.45 9.95 -162.5 6.5 -168.7 -0.7 -171.85 -4.3 -172.6 -8.7 L-172.95 -11.85 Q-173.05 -14.9 -174.35 -18.05 -175.0 -19.65 -175.1 -21.4 -175.45 -27.7 -172.8 -33.4 L-170.9 -37.3 Q-167.85 -42.8 -163.75 -48.0 L-163.75 -48.75 -136.2 -73.3 Q-120.7 -87.1 -102.7 -97.55 -87.5 -106.35 -70.5 -110.75 -63.95 -122.0 -56.55 -132.7 -45.25 -149.1 -31.0 -163.0 -19.25 -174.5 -5.45 -183.45 4.9 -190.25 16.0 -195.25 34.3 -185.1 48.25 -169.5 54.95 -162.1 60.75 -153.85" fill="#2e47aa" fill-rule="evenodd" stroke="none"/>
  </g>
</svg>
