<?xml version="1.0" encoding="UTF-8" standalone="no"?>
<svg xmlns:ffdec="https://www.free-decompiler.com/flash" xmlns:xlink="http://www.w3.org/1999/xlink" ffdec:objectType="shape" height="355.25px" width="344.1px" xmlns="http://www.w3.org/2000/svg">
  <g transform="matrix(1.0, 0.0, 0.0, 1.0, 166.55, 209.0)">
    <path d="M104.0 -102.5 L105.2 -102.0 Q119.3 -93.75 129.1 -80.55 L134.25 -73.8 Q146.2 -58.25 157.1 -41.85 165.05 -29.8 172.5 -17.5 L172.5 -17.0 Q174.25 -14.75 175.1 -12.2 176.65 -7.5 177.15 -2.45 177.75 3.3 177.45 9.05 177.0 16.65 171.3 21.55 168.05 24.35 163.75 24.5 161.55 27.1 158.6 28.0 147.35 31.4 136.0 34.25 138.2 58.8 127.65 81.0 123.15 90.45 116.5 98.4 101.25 116.5 79.0 124.6 L69.4 128.3 Q64.55 130.1 59.85 132.15 56.25 133.7 52.75 135.5 L25.75 144.5 -4.0 146.25 -31.0 140.25 -55.5 126.25 Q-70.75 112.15 -87.3 99.55 -91.1 96.7 -94.5 93.35 -110.1 77.95 -116.65 57.0 -118.35 51.55 -118.5 45.9 -119.1 21.35 -115.1 -2.8 L-113.75 -11.25 -145.25 -18.2 Q-156.25 -20.9 -162.6 -30.25 -165.25 -34.2 -165.6 -39.0 L-166.55 -57.05 Q-166.7 -60.45 -165.1 -63.15 -161.45 -69.0 -157.05 -74.25 -152.8 -79.25 -147.3 -82.95 L-137.3 -90.05 Q-119.05 -103.6 -98.95 -113.75 -89.1 -118.8 -78.5 -121.8 -67.85 -124.8 -57.0 -126.0 -41.05 -151.55 -20.1 -173.1 2.45 -196.4 32.0 -209.0 50.4 -197.65 63.0 -180.3 76.2 -162.15 86.35 -142.15 96.2 -122.7 104.0 -102.5" fill="#2e47aa" fill-rule="evenodd" stroke="none"/>
  </g>
</svg>
