<?xml version="1.0" encoding="UTF-8" standalone="no"?>
<svg xmlns:ffdec="https://www.free-decompiler.com/flash" xmlns:xlink="http://www.w3.org/1999/xlink" ffdec:objectType="shape" height="360.5px" width="337.05px" xmlns="http://www.w3.org/2000/svg">
  <g transform="matrix(1.0, 0.0, 0.0, 1.0, 156.55, 219.0)">
    <path d="M44.15 -218.75 Q55.25 -220.35 62.05 -211.45 75.55 -193.9 86.75 -175.0 L98.5 -149.75 115.25 -105.25 Q122.35 -102.35 127.4 -96.7 130.6 -93.1 133.45 -89.35 146.2 -72.6 157.4 -54.85 167.65 -38.7 176.5 -21.75 L177.0 -21.5 Q178.8 -13.95 180.1 -6.2 181.55 2.5 177.7 10.6 176.6 12.9 174.85 14.85 172.9 17.1 169.95 18.15 166.9 19.2 164.35 21.0 L162.3 22.45 Q161.4 23.1 160.4 23.25 150.3 25.8 140.0 27.0 140.0 35.55 139.2 44.1 138.2 55.35 135.9 66.5 133.55 77.8 128.5 88.25 123.35 99.0 115.25 107.6 112.35 110.6 109.1 113.0 106.1 115.2 102.7 116.95 L97.9 119.55 Q83.6 127.3 67.5 130.55 L56.7 132.7 Q52.65 133.3 49.25 135.0 L22.25 141.5 -6.75 141.0 -34.5 133.0 -55.35 117.75 Q-57.45 116.05 -59.25 114.15 -64.6 108.55 -71.05 104.1 -82.95 95.9 -92.3 84.8 -101.35 74.05 -107.25 61.3 -110.5 54.25 -112.45 46.55 -116.7 29.7 -114.6 12.4 -111.5 -12.85 -100.75 -36.0 L-107.3 -37.15 Q-123.6 -40.4 -139.5 -45.5 -145.95 -47.5 -150.3 -52.8 -157.0 -60.9 -156.5 -71.5 -156.3 -76.2 -156.5 -81.2 -156.6 -84.55 -155.6 -87.8 L-154.5 -90.1 Q-150.7 -95.95 -145.85 -100.85 L-142.05 -104.2 -137.1 -107.55 -126.15 -113.45 -115.05 -119.2 Q-97.55 -128.0 -78.85 -134.15 -60.55 -140.1 -41.5 -138.75 L-21.75 -163.5 Q-8.1 -178.1 6.2 -191.95 L12.4 -198.0 Q23.85 -209.2 37.9 -216.8 40.85 -218.25 44.15 -218.75" fill="#2e47aa" fill-rule="evenodd" stroke="none"/>
  </g>
</svg>
