<?xml version="1.0" encoding="UTF-8" standalone="no"?>
<svg xmlns:ffdec="https://www.free-decompiler.com/flash" xmlns:xlink="http://www.w3.org/1999/xlink" ffdec:objectType="shape" height="350.1px" width="324.45px" xmlns="http://www.w3.org/2000/svg">
  <g transform="matrix(1.0, 0.0, 0.0, 1.0, 168.7, 147.25)">
    <path d="M10.25 -74.0 Q7.3 -66.35 1.55 -60.05 0.9 -59.4 0.15 -58.9 -3.6 -56.25 -8.15 -54.8 -15.9 -52.4 -23.75 -51.0 L-28.75 -51.0 -40.5 -53.5 Q-47.5 -56.5 -53.5 -62.75 L-53.75 -62.75 Q-60.15 -70.6 -63.8 -80.35 -66.35 -87.1 -65.05 -94.3 -63.0 -105.45 -55.5 -114.0 -51.75 -110.0 -31.75 -121.5 L-18.0 -120.5 Q-9.75 -120.75 -8.75 -124.0 2.2 -118.7 7.15 -107.55 14.25 -91.4 10.25 -74.0 M-46.75 135.0 L-41.0 138.25 -38.0 139.5 -11.5 143.5 -3.5 142.5 Q-2.8 162.15 -8.4 181.1 -10.3 187.55 -14.7 192.65 -17.0 195.35 -20.35 196.4 -30.0 199.5 -40.1 200.2 -47.85 200.85 -55.65 199.8 L-62.3 199.05 Q-80.15 195.95 -94.2 184.8 -98.4 181.5 -101.45 176.9 -105.6 170.6 -106.85 162.9 -107.55 158.35 -106.95 153.55 -106.15 147.0 -103.9 140.8 -100.4 131.0 -96.0 121.5 -91.2 124.55 -85.75 126.5 -66.6 133.0 -46.75 135.0 M6.75 141.0 L19.25 139.0 42.75 128.5 65.0 110.75 71.5 103.0 73.75 101.5 74.25 101.25 77.0 99.25 78.5 97.75 81.5 95.5 Q103.5 119.5 110.5 154.0 111.0 193.0 55.25 201.0 30.5 204.25 16.75 193.0 7.25 182.25 6.75 141.0" fill="#e58508" fill-rule="evenodd" stroke="none"/>
    <path d="M10.25 -74.0 L15.0 -64.75 25.25 -46.75 31.75 -31.75 -1.0 -10.25 Q-28.75 5.75 3.5 5.5 L33.25 2.25 50.75 -1.25 Q106.75 46.5 71.5 103.0 L65.0 110.75 42.75 128.5 19.25 139.0 6.75 141.0 -3.5 142.5 -11.5 143.5 -38.0 139.5 -41.0 138.25 -46.75 135.0 -76.0 118.0 -85.0 100.0 Q-86.0 99.0 -84.0 92.0 L-84.25 83.5 -79.75 75.0 -72.25 49.25 -66.0 20.75 -61.75 -7.75 -43.5 -16.0 -12.5 -33.75 -12.25 -33.75 -5.75 -38.0 Q5.25 -42.25 -0.25 -49.25 L-15.5 -50.75 -23.75 -51.0 Q-15.9 -52.4 -8.15 -54.8 -3.6 -56.25 0.15 -58.9 0.9 -59.4 1.55 -60.05 7.3 -66.35 10.25 -74.0 M-45.0 -120.5 Q-33.5 -125.25 -42.0 -131.0 -56.0 -129.75 -45.0 -120.5 M-55.5 -114.0 L-61.2 -120.8 -61.9 -122.1 Q-62.85 -124.7 -63.1 -127.5 L-63.5 -130.5 Q-61.15 -134.15 -57.9 -136.65 -52.75 -140.65 -46.5 -142.7 -43.0 -143.75 -39.25 -144.0 L-38.5 -143.5 Q-37.0 -143.65 -35.65 -144.2 L-32.4 -145.2 Q-27.4 -146.75 -22.2 -147.25 -17.65 -147.4 -13.5 -145.6 -10.25 -144.25 -9.7 -141.35 -8.15 -132.9 -8.75 -124.0 -9.75 -120.75 -18.0 -120.5 L-31.75 -121.5 Q-51.75 -110.0 -55.5 -114.0 M-53.75 -62.75 L-53.5 -62.75 Q-47.5 -56.5 -40.5 -53.5 L-28.75 -51.0 -55.75 -51.25 -55.5 -55.75 -53.75 -62.75 M-20.75 -125.0 Q-12.0 -128.0 -19.5 -136.0 -34.5 -131.5 -20.75 -125.0" fill="#ffffff" fill-rule="evenodd" stroke="none"/>
    <path d="M-45.0 -120.5 Q-56.0 -129.75 -42.0 -131.0 -33.5 -125.25 -45.0 -120.5 M-20.75 -125.0 Q-34.5 -131.5 -19.5 -136.0 -12.0 -128.0 -20.75 -125.0" fill="#000000" fill-rule="evenodd" stroke="none"/>
    <path d="M-52.5 196.5 Q-10.75 202.5 -6.25 171.5 -5.75 202.0 -39.5 201.5 -102.5 196.75 -106.75 163.75 -102.5 185.75 -52.5 196.5 M-130.75 -97.25 L-131.25 -97.5 -130.25 -98.0 -130.75 -97.25 M-127.75 -99.75 L-128.25 -100.0 -127.25 -100.5 -127.75 -99.75 M0.25 -43.5 L1.5 -43.0 1.25 -46.75 Q-0.25 -50.5 -1.75 -49.5 L-20.0 -51.0 -57.25 -51.25 -61.0 -62.25 -63.75 -75.75 -64.95 -86.05 -64.85 -86.05 Q-55.55 -54.75 -25.75 -51.25 13.0 -58.0 11.5 -81.0 14.25 -63.25 7.0 -45.5 7.5 -42.0 -8.0 -30.0 L-14.5 -28.0 -25.75 -26.0 -42.25 -16.5 -88.75 4.75 -127.75 15.75 -135.75 40.25 -134.75 47.25 -134.15 48.9 Q-133.3 54.55 -125.55 66.65 -120.15 75.15 -114.25 82.65 -107.3 91.4 -91.6 99.05 -83.45 103.0 -75.55 105.15 L-57.75 120.5 -22.5 133.0 14.0 131.25 38.5 120.5 48.0 115.5 72.75 92.0 75.75 85.05 Q91.4 72.65 95.4 62.85 L103.8 46.05 Q110.4 32.4 110.4 27.25 L110.4 26.6 110.5 26.5 110.5 12.75 105.75 0.75 98.5 -13.5 79.25 -7.0 36.25 1.75 5.5 5.5 -10.0 5.75 -11.5 4.75 -11.5 4.2 Q-9.7 5.8 -3.25 4.75 L36.25 -1.25 80.25 -11.5 117.75 -24.5 126.0 -29.25 125.7 -29.15 126.75 -29.8 128.5 -30.8 128.5 -30.75 135.5 -35.0 133.85 -34.1 135.85 -35.45 136.25 -35.25 137.25 -36.0 136.1 -35.6 136.15 -35.65 Q142.45 -39.9 145.2 -42.6 L146.7 -44.25 146.75 -44.25 153.25 -56.5 154.75 -68.0 155.75 -60.5 153.5 -50.0 151.25 -43.5 142.0 -35.25 123.75 -23.0 106.5 -16.5 Q127.0 57.0 81.5 95.25 L90.25 107.0 95.5 115.5 94.5 115.0 91.75 115.5 79.75 120.0 74.25 131.0 48.75 151.0 13.25 163.5 Q10.25 164.25 9.25 166.75 L11.25 178.75 16.0 188.75 Q27.25 198.0 51.25 196.75 103.0 189.25 109.75 163.5 L110.0 165.0 109.0 167.75 Q106.25 193.25 47.5 201.5 3.75 212.0 6.75 141.0 L-3.5 142.5 -5.5 169.25 -6.5 166.75 -9.5 165.0 -21.25 165.25 -54.25 157.25 -79.5 139.5 -99.5 143.75 Q-104.75 144.5 -106.0 147.0 L-104.75 140.5 -97.75 124.0 -95.75 121.5 Q-123.25 107.0 -132.75 81.25 L-137.75 66.25 -137.5 64.75 -140.25 51.75 -141.25 37.75 -141.0 18.75 -163.5 19.25 -168.7 16.9 -167.55 16.55 -167.25 16.75 -140.25 16.25 -104.25 7.25 -92.0 3.25 -89.25 3.0 -44.0 -17.0 -13.0 -34.0 Q-0.25 -41.25 0.25 -43.5 M71.5 -55.5 L65.75 -62.75 51.0 -84.5 65.75 -76.0 89.0 -66.0 89.25 -65.5 71.5 -55.5" fill="#000000" fill-opacity="0.49803922" fill-rule="evenodd" stroke="none"/>
  </g>
</svg>
