<?xml version="1.0" encoding="UTF-8" standalone="no"?>
<svg xmlns:ffdec="https://www.free-decompiler.com/flash" xmlns:xlink="http://www.w3.org/1999/xlink" ffdec:objectType="shape" height="333.7px" width="331.2px" xmlns="http://www.w3.org/2000/svg">
  <g transform="matrix(1.0, 0.0, 0.0, 1.0, 166.45, 131.95)">
    <path d="M-44.5 -102.5 Q-47.9 -110.5 -50.35 -118.8 -50.75 -120.15 -49.9 -121.55 -48.5 -123.75 -46.3 -124.95 -40.4 -128.15 -33.85 -129.95 -28.45 -131.25 -23.0 -130.0 L-22.25 -130.5 -19.45 -131.35 Q-11.0 -132.4 -2.55 -131.6 0.0 -132.0 2.2 -130.55 4.1 -129.25 5.0 -127.2 6.5 -123.65 6.65 -119.8 6.7 -118.25 6.25 -116.8 L3.5 -109.75 Q1.5 -103.75 -20.25 -107.75 -34.75 -99.0 -44.5 -102.5 M19.75 -59.25 L23.75 -50.25 33.0 -32.5 37.75 -19.25 41.75 -11.75 1.25 11.5 Q-26.25 28.75 7.0 26.75 L35.25 24.5 61.75 20.25 73.5 32.0 79.75 42.75 85.75 56.25 Q95.75 75.75 74.5 108.25 L73.25 109.75 Q71.6 112.0 69.5 113.65 55.1 125.25 40.25 136.25 L14.5 145.75 7.0 146.25 -3.75 147.0 -11.75 147.75 -17.5 147.25 -42.25 141.5 -56.5 133.0 -77.25 118.25 -85.5 101.0 -86.0 98.25 -84.25 92.75 -84.5 85.5 -78.25 75.75 -71.5 57.25 -62.5 26.5 -58.75 9.25 -37.75 1.75 -9.0 -11.75 -8.75 -11.75 -8.25 -12.0 Q22.0 -28.5 -11.0 -29.5 L-50.5 -33.5 -46.25 -50.5 Q-43.1 -46.2 -39.0 -42.95 -27.9 -34.25 -13.7 -35.85 -5.15 -36.6 3.05 -39.5 7.85 -41.2 10.6 -45.35 L19.75 -59.25 M-31.0 -107.25 Q-21.5 -119.5 -36.0 -117.25 -41.0 -107.0 -31.0 -107.25 M-10.5 -120.75 Q-19.5 -111.25 -8.75 -110.25 1.5 -120.25 -10.5 -120.75" fill="#ffffff" fill-rule="evenodd" stroke="none"/>
    <path d="M3.5 -109.75 Q6.2 -108.65 8.6 -106.65 15.55 -100.75 18.75 -91.95 L20.0 -87.7 Q23.1 -73.45 19.75 -59.25 L10.6 -45.35 Q7.85 -41.2 3.05 -39.5 -5.15 -36.6 -13.7 -35.85 -27.9 -34.25 -39.0 -42.95 -43.1 -46.2 -46.25 -50.5 L-54.45 -68.05 -54.7 -69.0 Q-55.3 -73.85 -55.25 -78.65 -55.1 -92.8 -44.5 -102.5 -34.75 -99.0 -20.25 -107.75 1.5 -103.75 3.5 -109.75 M74.5 108.25 L76.5 107.25 77.0 106.75 83.0 103.0 85.5 100.75 Q105.0 124.5 110.5 154.0 111.0 193.0 55.25 201.0 30.5 204.25 16.75 193.0 8.5 186.75 7.0 146.25 L14.5 145.75 40.25 136.25 Q55.1 125.25 69.5 113.65 71.6 112.0 73.25 109.75 L74.5 108.25 M-3.75 147.0 Q-3.3 161.2 -6.7 175.1 -8.4 182.0 -11.55 188.35 -12.75 190.8 -14.55 192.75 -17.0 195.35 -20.35 196.4 -30.0 199.5 -40.1 200.35 -51.25 201.4 -62.3 199.05 -76.25 196.3 -88.5 189.05 -100.4 182.0 -105.1 169.15 -107.05 163.95 -107.35 158.35 -107.45 155.9 -107.1 153.55 -106.15 147.0 -103.85 140.85 -99.75 129.85 -94.75 119.25 L-89.9 121.8 Q-73.95 129.3 -56.5 133.0 L-42.25 141.5 -17.5 147.25 -11.75 147.75 -3.75 147.0" fill="#e58508" fill-rule="evenodd" stroke="none"/>
    <path d="M-10.5 -120.75 Q1.5 -120.25 -8.75 -110.25 -19.5 -111.25 -10.5 -120.75 M-31.0 -107.25 Q-41.0 -107.0 -36.0 -117.25 -21.5 -119.5 -31.0 -107.25" fill="#000000" fill-rule="evenodd" stroke="none"/>
    <path d="M4.5 -19.25 Q8.25 -19.75 5.25 -26.5 L-6.75 -29.25 -48.0 -33.25 -50.25 -39.25 -52.75 -49.75 -55.75 -74.75 Q-50.75 -44.25 -19.75 -36.0 15.25 -33.25 22.0 -70.5 22.75 -25.5 6.5 -14.5 L-1.0 -9.5 -7.25 -8.0 -19.25 -6.75 -37.75 1.75 -86.25 19.25 -121.25 26.0 Q-123.0 25.75 -124.25 31.25 L-129.75 49.5 -126.0 66.75 -122.5 73.75 -122.2 73.45 Q-120.6 77.1 -111.45 85.25 -102.35 93.4 -93.8 99.85 -85.6 106.0 -78.95 107.85 L-76.1 111.1 Q-69.8 118.0 -67.0 119.6 -61.45 122.8 -51.1 126.95 -39.2 131.75 -34.85 131.75 L-34.3 131.75 -26.75 135.0 -12.75 135.75 -12.7 135.35 -11.15 135.35 Q3.85 135.35 16.65 130.7 22.4 128.6 34.2 126.05 46.0 123.45 56.25 114.25 62.4 108.7 65.4 104.4 L67.4 102.8 Q73.5 98.25 79.6 91.8 L84.45 86.15 Q88.3 83.75 90.6 81.25 L98.1 71.95 100.75 68.3 106.25 61.0 114.0 40.25 115.0 34.5 115.0 32.25 111.0 20.75 106.0 10.0 84.0 16.5 43.75 23.25 5.25 27.0 -8.5 26.75 -10.0 23.5 -7.75 26.0 8.0 25.0 38.75 20.75 81.5 12.0 126.75 -4.0 150.5 -17.25 151.25 -17.75 151.0 -18.5 153.5 -18.0 Q163.5 -27.5 163.5 -39.25 L164.25 -39.5 Q165.5 -34.25 163.75 -29.0 L158.75 -16.0 Q155.25 -18.5 148.75 -9.0 L129.75 2.25 116.5 6.75 Q122.5 80.75 85.5 100.5 L99.0 121.0 107.0 139.0 Q105.75 137.75 103.0 139.0 L45.25 159.25 18.25 166.75 13.5 169.0 10.5 172.5 Q12.25 201.25 55.75 196.5 104.25 187.25 109.75 164.0 L110.0 165.0 105.75 175.0 Q96.25 196.25 47.5 201.5 L33.25 200.75 Q22.75 199.0 17.0 193.75 9.25 190.25 7.25 146.25 L-3.75 147.0 -6.0 172.5 -8.0 181.75 -11.0 189.75 -14.25 194.25 -20.75 198.25 -28.25 200.25 -41.25 201.5 -53.5 200.75 -72.25 196.75 -81.25 193.25 -87.75 189.75 -95.25 184.25 Q-119.5 169.75 -94.75 119.25 -132.75 94.5 -134.75 62.5 L-136.75 49.75 -137.25 28.75 Q-155.0 31.8 -166.45 24.75 L-166.0 24.4 Q-164.7 25.0 -162.8 23.55 L-159.3 24.6 -164.0 24.75 -157.5 24.95 -149.75 25.5 -143.15 25.3 -133.5 25.5 -90.0 18.25 -41.0 1.5 -8.5 -12.75 4.5 -19.25 M61.0 -71.0 L73.5 -61.5 102.75 -44.0 103.0 -43.5 83.25 -33.75 82.5 -33.75 61.0 -71.0 M-105.75 164.75 Q-89.0 196.0 -40.25 196.75 0.75 195.0 -12.25 169.0 L-26.5 168.25 -57.25 158.5 -60.25 156.0 -100.75 161.25 Q-105.25 163.0 -105.75 164.75 M-164.25 22.9 L-162.95 23.5 -165.15 23.7 -164.25 22.9" fill="#000000" fill-opacity="0.49803922" fill-rule="evenodd" stroke="none"/>
  </g>
</svg>
