<?xml version="1.0" encoding="UTF-8" standalone="no"?>
<svg xmlns:ffdec="https://www.free-decompiler.com/flash" xmlns:xlink="http://www.w3.org/1999/xlink" ffdec:objectType="shape" height="317.5px" width="348.2px" xmlns="http://www.w3.org/2000/svg">
  <g transform="matrix(1.0, 0.0, 0.0, 1.0, 176.45, 115.75)">
    <path d="M-34.25 -87.75 Q-36.9 -91.55 -39.1 -95.5 -40.3 -97.75 -40.4 -100.4 L-40.25 -103.95 Q-39.9 -106.9 -37.4 -108.6 -35.0 -110.25 -32.35 -111.4 -22.1 -115.8 -11.25 -112.75 -4.45 -115.85 3.5 -115.75 L9.4 -114.65 Q12.1 -113.9 14.45 -112.3 16.25 -111.15 17.15 -109.25 17.95 -107.5 18.15 -105.45 18.8 -97.9 14.25 -92.25 12.25 -85.25 -9.75 -90.5 -23.0 -82.5 -34.25 -87.75 M28.0 -42.0 L31.5 -33.5 39.5 -16.25 44.5 -1.25 51.0 11.25 26.5 23.0 1.5 36.25 -10.5 43.75 Q-11.25 44.75 -9.0 49.25 -9.0 50.5 -4.5 50.5 L7.75 50.5 37.5 49.0 74.25 44.25 Q76.5 44.75 83.25 58.5 L88.0 70.25 89.25 88.5 84.75 104.5 77.0 114.5 68.75 125.0 36.75 144.25 11.5 152.5 7.25 152.5 -4.25 152.25 -18.25 152.25 -45.5 143.75 -61.75 133.25 -66.0 129.75 -78.75 118.75 -84.5 106.0 -86.5 99.5 Q-83.25 94.25 -84.25 88.0 L-77.5 79.25 -76.25 75.25 -71.0 65.0 -59.75 35.25 -58.25 29.5 -38.5 24.5 -7.0 13.25 -6.5 13.25 -5.75 13.0 Q25.75 0.5 -5.25 -4.75 L-6.0 -5.0 -6.75 -5.0 -47.0 -13.0 -42.5 -27.25 -41.25 -32.75 -39.75 -35.75 Q-27.0 -15.0 -5.5 -17.5 L-4.5 -17.75 -2.75 -17.75 Q19.25 -18.25 28.0 -42.0 M4.25 -102.75 Q0.0 -103.25 -1.25 -101.75 L-4.25 -98.75 Q-4.0 -95.0 -1.75 -92.5 L2.0 -92.25 Q11.75 -98.0 4.25 -102.75 M-21.0 -90.5 Q-10.0 -101.25 -25.25 -100.5 -31.5 -91.25 -21.0 -90.5" fill="#ffffff" fill-rule="evenodd" stroke="none"/>
    <path d="M-34.25 -87.75 Q-23.0 -82.5 -9.75 -90.5 12.25 -85.25 14.25 -92.25 20.05 -90.05 23.5 -85.05 31.4 -73.55 30.9 -59.75 30.55 -50.6 28.0 -42.0 19.25 -18.25 -2.75 -17.75 L-4.5 -17.75 -5.5 -17.5 Q-27.0 -15.0 -39.75 -35.75 L-42.5 -41.5 -42.8 -42.0 -43.35 -43.8 Q-45.5 -53.75 -47.05 -63.85 -47.3 -65.5 -47.0 -67.25 -44.75 -79.95 -34.25 -87.75 M77.0 114.5 L80.0 113.0 80.75 112.5 81.5 112.25 83.5 111.0 89.5 106.0 Q113.75 146.75 110.5 154.0 111.0 193.0 55.25 201.0 30.5 204.25 16.75 193.0 9.0 185.5 7.25 152.5 L11.5 152.5 36.75 144.25 68.75 125.0 77.0 114.5 M-4.25 152.25 Q-4.9 164.25 -6.8 176.05 -7.9 182.6 -10.4 189.0 -11.45 191.7 -14.0 193.25 -17.0 195.35 -20.35 196.4 -30.0 199.5 -40.1 200.35 -51.25 201.4 -62.3 199.05 -76.25 196.3 -88.5 189.05 -98.35 183.25 -103.45 173.15 -107.5 165.1 -107.35 156.0 -107.35 154.35 -106.9 152.85 -102.9 139.25 -97.75 126.05 -96.0 121.5 -93.5 117.25 L-89.0 119.75 -83.05 123.1 Q-75.0 127.65 -66.0 129.75 L-61.75 133.25 -45.5 143.75 -18.25 152.25 -4.25 152.25" fill="#e58508" fill-rule="evenodd" stroke="none"/>
    <path d="M4.25 -102.75 Q11.75 -98.0 2.0 -92.25 L-1.75 -92.5 Q-4.0 -95.0 -4.25 -98.75 L-1.25 -101.75 Q0.0 -103.25 4.25 -102.75 M-21.0 -90.5 Q-31.5 -91.25 -25.25 -100.5 -10.0 -101.25 -21.0 -90.5" fill="#000000" fill-rule="evenodd" stroke="none"/>
    <path d="M170.5 1.0 L163.5 14.25 160.0 14.0 155.5 18.5 132.75 30.5 124.25 33.0 Q121.5 85.5 89.5 105.75 L97.5 119.0 Q91.25 118.25 75.5 145.25 L102.5 133.0 Q106.25 132.5 109.25 146.0 113.25 163.75 105.25 176.25 91.5 198.0 47.5 201.5 L33.25 200.75 Q21.75 198.5 18.0 194.75 7.75 182.5 7.5 152.75 L0.0 152.25 -4.25 152.5 -4.75 163.5 -8.25 182.5 -11.25 190.25 -14.25 194.25 -20.75 198.25 -28.25 200.25 -41.25 201.5 -53.5 200.75 -72.25 196.75 -81.25 193.25 -87.75 189.75 -95.25 184.25 Q-108.25 170.75 -107.25 155.0 -110.0 148.25 -93.75 117.5 -137.0 87.0 -133.5 41.25 L-161.25 37.25 -164.75 35.75 Q-176.0 27.0 -176.25 24.75 L-176.45 22.4 -174.7 22.6 -169.0 29.0 -167.0 30.5 -159.75 31.75 -141.5 33.5 -130.25 35.75 -139.5 36.5 -136.5 37.25 -143.25 37.0 -132.0 38.5 -87.5 34.5 -39.0 22.75 -6.25 12.0 8.25 6.25 8.75 4.0 9.5 5.5 10.25 4.5 10.25 2.25 Q8.25 2.5 9.0 -0.75 L-2.75 -4.5 -39.5 -11.75 -43.75 -24.25 -45.25 -33.25 -47.25 -57.25 Q-39.75 -19.25 -4.5 -17.5 27.25 -20.5 31.0 -59.75 35.75 -17.25 13.5 10.0 L5.0 15.5 -1.75 16.75 Q-14.25 17.75 -15.5 16.5 L-36.0 23.75 -86.75 37.0 -117.0 40.0 -123.25 60.0 Q-116.25 86.0 -92.25 100.5 -86.65 102.0 -85.2 99.0 -84.55 105.8 -80.75 110.85 -74.5 119.15 -58.65 125.35 -46.05 131.3 -35.75 135.05 -16.3 142.15 0.25 142.15 11.75 142.15 18.3 138.75 L20.4 137.5 22.2 137.05 24.75 137.5 Q31.75 137.5 53.5 126.1 68.2 117.7 73.0 109.75 L83.7 94.4 Q87.35 89.0 89.45 85.05 L89.5 86.5 95.75 81.5 95.5 81.0 108.75 65.5 115.75 49.5 112.25 38.25 111.5 36.75 110.25 36.5 84.25 43.0 42.0 48.5 0.75 50.75 -7.5 50.25 Q-8.35 49.3 -8.7 48.15 -7.3 50.7 1.25 49.25 L40.25 44.75 88.75 35.75 132.75 22.75 Q155.0 14.0 156.0 10.0 L158.75 10.75 165.75 4.0 168.0 0.0 Q168.75 -5.5 171.25 -9.0 172.5 -4.5 170.5 1.0 M81.25 -43.75 L114.5 -18.0 114.75 -17.5 93.0 -8.0 92.25 -8.25 70.0 -54.5 81.25 -43.75 M12.75 181.0 Q13.0 177.5 17.0 174.75 L22.5 171.5 Q8.0 174.25 12.75 181.0 M30.75 195.5 L43.25 196.75 51.75 196.75 Q95.75 190.75 105.75 170.5 L96.25 170.75 77.5 176.0 44.25 186.25 33.75 190.5 29.5 194.5 30.75 195.5 M-94.25 -20.25 L-103.5 -21.75 -95.0 -29.5 -95.25 -30.0 -87.25 -38.5 -87.25 -37.0 -94.25 -20.25 M-89.0 183.75 Q-59.5 198.5 -40.25 196.75 -14.5 194.0 -12.75 189.0 -9.75 185.25 -8.0 178.25 L-11.75 175.5 -25.0 175.75 -45.25 178.0 -78.25 179.5 -85.75 181.25 -89.0 183.75" fill="#000000" fill-opacity="0.49803922" fill-rule="evenodd" stroke="none"/>
  </g>
</svg>
