<?xml version="1.0" encoding="UTF-8" standalone="no"?>
<svg xmlns:ffdec="https://www.free-decompiler.com/flash" xmlns:xlink="http://www.w3.org/1999/xlink" ffdec:objectType="shape" height="301.8px" width="351.2px" xmlns="http://www.w3.org/2000/svg">
  <g transform="matrix(1.0, 0.0, 0.0, 1.0, 175.75, 100.05)">
    <path d="M-25.0 -76.5 Q-27.5 -84.9 -29.05 -93.4 -29.25 -94.5 -28.25 -95.5 -26.65 -97.15 -24.55 -98.0 -20.15 -99.65 -15.45 -99.85 -9.4 -100.25 -3.4 -99.0 -1.3 -98.65 1.25 -99.5 L2.0 -99.75 Q8.35 -100.25 14.7 -99.85 19.35 -99.65 23.65 -97.75 26.5 -96.4 27.45 -93.7 28.85 -89.65 28.25 -85.05 27.65 -80.7 24.5 -77.5 21.75 -69.5 -0.5 -76.75 -14.5 -69.5 -25.0 -76.5 M35.0 -27.75 L38.0 -19.25 44.75 -2.5 48.5 11.75 57.25 30.25 16.0 47.0 -9.75 59.5 Q-15.0 59.75 -10.5 67.5 L4.5 68.75 37.75 68.5 81.0 65.0 Q98.25 110.0 77.25 122.0 L65.5 135.0 33.25 150.5 7.5 157.25 -4.5 156.25 -24.25 154.0 -49.0 144.0 Q-55.75 139.85 -61.95 135.05 -68.0 130.25 -73.5 124.75 L-81.25 116.0 -87.25 100.25 -87.25 97.5 -85.0 93.0 -84.5 87.0 Q-77.75 82.75 -70.0 66.5 L-59.5 43.0 -38.75 39.75 -7.0 31.75 Q26.75 22.75 -3.0 14.25 L-3.75 14.0 -4.25 13.75 -4.5 13.75 -44.75 1.75 -34.5 -24.5 -34.25 -24.5 Q-24.25 -3.0 -1.5 -3.0 L1.25 -3.0 Q23.75 -1.75 35.0 -27.75 M11.25 -77.25 Q22.25 -82.25 14.25 -87.5 -1.25 -86.75 11.25 -77.25 M-15.25 -87.5 Q-22.0 -78.75 -11.75 -77.25 0.0 -86.75 -15.25 -87.5" fill="#ffffff" fill-rule="evenodd" stroke="none"/>
    <path d="M11.25 -77.25 Q-1.25 -86.75 14.25 -87.5 22.25 -82.25 11.25 -77.25 M-15.25 -87.5 Q0.0 -86.75 -11.75 -77.25 -22.0 -78.75 -15.25 -87.5" fill="#000000" fill-rule="evenodd" stroke="none"/>
    <path d="M-25.0 -76.5 Q-14.5 -69.5 -0.5 -76.75 21.75 -69.5 24.5 -77.5 33.95 -71.85 37.55 -61.5 L38.3 -58.2 Q38.9 -52.6 38.5 -47.05 37.85 -37.1 35.0 -27.75 23.75 -1.75 1.25 -3.0 L-1.5 -3.0 Q-24.25 -3.0 -34.25 -24.5 L-34.5 -24.5 -35.1 -26.75 Q-36.65 -31.9 -37.5 -37.1 -38.9 -45.75 -39.75 -54.5 -40.2 -58.8 -37.8 -62.35 -32.45 -70.3 -25.0 -76.5 M77.25 122.0 L81.75 120.0 84.25 118.5 84.75 118.25 89.5 114.75 90.0 114.25 93.25 112.0 Q112.0 143.25 110.5 154.0 111.0 193.0 55.25 201.0 30.5 204.25 16.75 193.0 10.5 190.5 7.5 157.25 L33.25 150.5 65.5 135.0 77.25 122.0 M-4.5 156.25 Q-5.45 168.45 -8.05 180.35 L-9.7 186.95 Q-10.85 191.1 -14.0 193.25 -17.0 195.35 -20.35 196.4 -30.0 199.5 -40.1 199.9 -60.45 201.35 -79.4 193.85 -89.65 189.8 -97.4 181.8 -105.0 173.85 -106.85 162.9 -107.45 159.45 -107.4 156.0 -107.35 154.35 -106.9 152.85 -102.9 139.25 -97.5 126.2 -95.0 120.1 -91.5 114.5 L-83.25 120.25 -73.5 124.75 Q-68.0 130.25 -61.95 135.05 -55.75 139.85 -49.0 144.0 L-24.25 154.0 -4.5 156.25" fill="#e58508" fill-rule="evenodd" stroke="none"/>
    <path d="M-90.25 -9.75 L-104.0 -13.25 -91.25 -24.0 -80.25 -35.75 -79.75 -34.75 -90.25 -9.75 M-148.25 -41.25 L-148.75 -41.5 -147.75 -42.0 -148.25 -41.25 M-153.25 -35.75 L-153.75 -36.0 -152.75 -36.5 -153.25 -35.75 M78.75 -38.0 L80.5 -36.75 88.5 -26.75 122.0 6.25 100.25 14.25 99.25 14.25 78.75 -38.0 M0.5 -3.0 Q36.5 -7.0 39.5 -49.0 43.25 1.75 17.0 32.25 L9.5 36.5 2.25 37.25 -9.75 36.5 -15.5 34.0 -38.5 39.75 -85.75 47.0 -112.25 47.5 -112.0 48.5 -116.25 61.0 -116.75 64.75 -111.75 76.25 -96.5 91.75 -91.0 95.5 -87.25 97.5 -86.65 96.45 Q-85.05 103.55 -80.2 110.45 -73.25 120.25 -60.95 128.15 -48.85 135.9 -33.9 140.25 -18.5 144.75 -3.1 144.75 L-2.1 144.75 -0.25 145.0 Q41.25 144.5 68.75 119.0 L86.0 94.5 Q88.55 91.35 88.65 89.45 L89.0 92.0 89.75 92.5 95.0 88.75 101.75 82.0 101.5 81.5 103.0 80.5 102.75 80.0 104.25 79.0 104.0 78.5 Q105.25 78.25 110.25 71.0 L115.0 60.5 114.5 59.5 112.75 59.5 86.25 64.5 38.25 68.5 1.0 68.75 Q-12.25 69.75 -11.25 64.0 -10.75 67.75 -5.25 67.0 L34.75 64.25 87.25 57.0 126.5 49.25 139.5 44.75 138.6 44.85 141.8 44.15 141.75 44.25 142.25 44.05 145.75 43.3 Q154.2 41.4 158.75 37.75 L159.5 37.1 159.75 36.9 160.75 37.5 169.75 30.0 175.0 19.25 Q177.25 30.25 168.25 40.25 L166.25 41.5 162.0 41.25 Q161.75 42.5 155.0 46.0 L134.75 54.75 127.25 56.75 Q120.75 94.25 93.25 111.75 L101.5 125.75 99.75 126.0 92.75 130.25 92.0 134.0 75.25 152.25 73.5 155.0 39.75 172.5 Q14.25 175.5 13.0 180.5 12.0 190.0 26.75 194.25 26.5 192.25 29.0 190.25 L35.0 185.75 64.25 173.25 105.25 157.5 Q115.5 159.25 105.25 176.0 91.5 198.25 47.5 201.5 L33.25 200.75 Q21.75 198.5 18.0 194.75 9.0 186.25 7.75 157.5 L-4.0 156.25 -4.5 157.0 -4.75 163.5 -8.0 181.75 -10.25 188.0 -14.25 194.25 -20.75 198.25 -28.25 200.25 -41.0 201.5 -53.25 200.75 -72.25 196.75 -81.25 193.25 -87.75 189.75 -95.25 184.25 Q-113.25 167.0 -105.25 142.25 -101.25 139.25 -73.0 150.5 L-88.75 133.25 -95.75 129.75 -99.0 129.0 Q-100.0 128.0 -97.75 124.0 L-91.5 114.5 Q-120.25 93.75 -125.25 72.75 L-127.75 62.75 -129.0 47.75 Q-172.25 43.0 -175.75 26.75 -175.35 24.25 -175.7 21.35 L-173.25 22.85 Q-172.15 24.7 -173.5 25.75 L-167.5 33.25 -152.5 37.5 -131.25 42.25 -130.5 42.75 -134.25 43.25 -132.25 44.5 -128.25 45.0 -87.25 44.5 -42.25 38.25 3.75 27.75 Q10.0 26.25 9.5 24.0 L10.0 24.75 9.5 25.75 Q11.0 25.75 11.25 22.5 L10.0 19.25 -6.0 13.0 -33.0 5.0 -37.75 -13.25 -38.75 -21.25 -39.5 -44.25 Q-36.0 -8.0 0.5 -3.0" fill="#000000" fill-opacity="0.49803922" fill-rule="evenodd" stroke="none"/>
  </g>
</svg>
