<?xml version="1.0" encoding="UTF-8" standalone="no"?>
<svg xmlns:ffdec="https://www.free-decompiler.com/flash" xmlns:xlink="http://www.w3.org/1999/xlink" ffdec:objectType="shape" height="322.4px" width="349.85px" xmlns="http://www.w3.org/2000/svg">
  <g transform="matrix(1.0, 0.0, 0.0, 1.0, 172.8, 120.5)">
    <path d="M-15.75 -96.25 Q-17.75 -104.75 -18.7 -113.4 -18.95 -115.9 -16.4 -117.3 -13.9 -118.75 -11.1 -119.05 L2.5 -120.5 Q4.75 -119.9 6.8 -118.85 9.4 -117.65 12.25 -118.75 L13.75 -119.0 Q20.75 -118.9 27.5 -117.35 31.75 -116.5 35.3 -113.9 37.25 -112.5 37.6 -110.3 38.25 -105.75 37.2 -101.15 36.2 -96.8 33.0 -93.75 27.25 -88.0 8.5 -95.75 -13.5 -90.0 -15.75 -96.25 M40.25 -43.5 L43.25 -32.5 49.25 -14.25 52.0 0.5 56.0 11.0 28.5 19.5 0.5 29.25 Q-28.5 40.25 3.5 44.75 L34.75 47.75 74.75 48.75 Q104.75 107.25 69.5 126.5 66.25 129.5 62.5 131.55 46.25 140.0 28.95 145.85 18.35 149.35 7.25 151.25 L2.0 152.0 -4.25 151.0 -27.75 147.0 -53.0 134.75 Q-58.25 130.5 -63.1 125.85 L-71.0 118.5 -82.0 105.25 -87.5 85.75 -84.75 79.25 -84.25 73.5 -76.75 65.5 -75.0 61.25 -68.25 50.75 -65.5 44.0 -54.75 23.5 -50.75 13.5 -37.5 12.0 -5.5 5.0 -5.25 5.0 -4.5 4.75 Q27.75 -3.5 -3.25 -12.75 L-3.75 -13.0 -36.25 -24.5 -27.75 -43.75 Q-21.5 -26.25 2.5 -23.25 L3.0 -23.25 4.75 -23.0 Q25.0 -19.25 40.25 -43.5 M14.75 -103.25 Q14.25 -99.75 16.75 -96.75 L20.25 -96.0 Q31.0 -99.75 22.5 -106.5 L17.5 -105.75 14.75 -103.25 M-2.25 -97.5 Q9.0 -107.0 -5.75 -108.0 -13.5 -99.0 -2.25 -97.5" fill="#ffffff" fill-rule="evenodd" stroke="none"/>
    <path d="M14.75 -103.25 L17.5 -105.75 22.5 -106.5 Q31.0 -99.75 20.25 -96.0 L16.75 -96.75 Q14.25 -99.75 14.75 -103.25 M-2.25 -97.5 Q-13.5 -99.0 -5.75 -108.0 9.0 -107.0 -2.25 -97.5" fill="#000000" fill-rule="evenodd" stroke="none"/>
    <path d="M-15.75 -96.25 Q-13.5 -90.0 8.5 -95.75 27.25 -88.0 33.0 -93.75 34.75 -93.05 36.35 -91.45 42.85 -85.25 44.8 -76.3 L45.5 -71.65 Q45.9 -66.75 45.15 -61.9 43.75 -52.4 40.25 -43.5 25.0 -19.25 4.75 -23.0 L3.0 -23.25 2.5 -23.25 Q-21.5 -26.25 -27.75 -43.75 L-29.65 -50.75 Q-30.5 -54.0 -30.7 -57.25 L-31.5 -74.0 Q-31.65 -78.45 -29.05 -82.15 -23.45 -90.1 -15.75 -96.25 M69.5 126.5 L77.15 123.5 Q86.35 119.6 94.5 113.75 101.85 125.9 107.25 138.95 108.65 142.4 109.5 145.9 111.35 153.3 110.25 161.1 108.7 172.15 101.55 180.55 94.55 188.75 84.65 193.05 66.35 200.85 46.45 201.8 31.2 202.65 18.6 194.3 13.5 190.95 12.0 184.95 7.9 168.45 7.25 151.25 18.35 149.35 28.95 145.85 46.25 140.0 62.5 131.55 66.25 129.5 69.5 126.5 M-4.25 151.0 Q-4.9 162.35 -6.55 173.8 -7.45 180.0 -9.1 186.0 -10.4 190.6 -14.0 193.25 -17.0 195.35 -20.35 196.4 -30.0 199.5 -40.1 200.35 -51.25 201.4 -62.3 199.05 -76.25 196.3 -88.5 189.05 -100.4 182.0 -105.1 169.2 -108.05 161.2 -107.25 152.75 L-107.35 150.7 Q-106.85 144.25 -104.0 138.25 -96.7 122.95 -88.0 108.25 L-85.15 110.4 Q-78.5 115.3 -71.0 118.5 L-63.1 125.85 Q-58.25 130.5 -53.0 134.75 L-27.75 147.0 -4.25 151.0" fill="#e58508" fill-rule="evenodd" stroke="none"/>
    <path d="M102.75 -2.25 L85.75 -45.0 86.5 -45.0 95.0 -33.75 120.5 -7.5 102.75 -2.25 M10.75 -0.25 Q13.75 -3.5 10.5 -7.0 L-2.25 -12.75 -27.25 -21.25 -30.5 -34.25 -31.5 -43.75 -31.75 -59.25 Q-20.25 -18.0 13.0 -23.25 44.25 -33.25 46.5 -66.5 49.5 -27.25 27.5 2.0 L20.75 6.5 13.25 9.75 4.0 9.75 Q-7.25 8.5 -9.5 6.0 L-35.0 11.5 -87.5 18.0 -107.25 17.5 -119.25 48.0 -114.25 61.25 -109.5 70.5 -109.05 70.3 Q-107.55 72.55 -102.55 78.05 -99.1 81.85 -93.45 85.9 -88.2 89.65 -83.8 91.15 -81.85 94.85 -77.35 100.95 -68.75 112.55 -62.5 115.75 -60.3 116.85 -53.25 121.3 L-40.95 128.55 -32.8 132.3 -34.0 132.75 -22.0 136.25 -3.0 140.0 13.25 138.0 13.3 137.95 Q23.6 137.15 42.95 128.15 60.85 119.85 66.25 115.3 L69.2 112.85 Q69.95 113.4 70.25 114.25 L74.0 109.3 78.5 105.8 Q85.25 100.9 89.2 96.75 L89.25 97.5 94.5 94.25 110.0 79.5 113.75 74.5 122.0 58.0 122.5 55.0 120.0 45.5 84.75 49.0 34.0 47.75 0.25 44.5 -11.0 42.25 -11.95 40.2 Q-9.9 43.0 4.25 43.0 L39.75 44.0 86.75 42.5 135.0 35.75 158.5 28.5 159.25 27.5 161.5 28.25 171.5 19.0 Q174.5 9.5 176.5 9.5 179.5 15.75 166.5 32.0 L163.0 31.75 158.25 35.25 132.25 44.25 Q132.5 84.0 94.5 113.75 L101.5 126.25 Q95.0 124.25 73.5 150.0 L100.75 141.5 Q106.5 139.5 108.0 141.25 114.75 153.75 105.25 176.25 91.5 198.0 47.5 201.5 7.75 203.5 9.0 170.25 L8.0 164.75 7.5 151.25 3.0 152.0 -4.0 151.0 Q-5.5 186.5 -15.0 194.75 L-20.75 198.25 -28.25 200.25 -41.0 201.5 -53.25 200.75 -72.25 196.75 -81.25 193.25 -87.75 189.75 -95.25 184.25 -101.75 176.75 -106.25 166.75 -106.75 163.5 Q-98.5 188.25 -52.5 196.5 L-40.75 196.75 -31.0 196.0 -20.5 193.5 Q-11.25 190.25 -15.25 184.0 L-10.0 184.5 -7.5 177.5 -7.75 176.25 Q-24.75 159.75 -106.75 161.75 -113.25 149.75 -87.75 107.75 -132.0 79.0 -123.5 16.75 -165.0 12.5 -170.5 -3.25 L-172.25 -7.25 -172.8 -12.1 -170.5 -10.25 Q-169.6 -8.3 -169.25 -6.0 L-163.5 1.25 -154.5 4.0 -141.0 6.75 -130.0 10.25 -130.25 10.75 -138.75 10.0 -148.5 6.5 -153.5 6.5 -138.25 11.0 -153.5 7.5 -155.0 7.75 -134.0 13.0 -117.25 14.5 -86.5 15.5 -39.75 10.5 6.75 1.0 Q10.25 1.0 10.75 -2.0 L10.75 -0.25 M35.5 196.25 L51.75 196.75 Q80.75 194.25 97.5 179.75 94.0 177.75 90.25 178.5 L78.5 179.25 37.25 185.5 25.5 188.5 Q21.5 190.5 21.5 192.25 L26.0 194.25 35.5 196.25 M-90.75 -40.75 L-83.0 -45.75 -72.25 -54.5 -80.25 -38.0 -90.75 -40.75" fill="#000000" fill-opacity="0.49803922" fill-rule="evenodd" stroke="none"/>
  </g>
</svg>
