<?xml version="1.0" encoding="UTF-8" standalone="no"?>
<svg xmlns:ffdec="https://www.free-decompiler.com/flash" xmlns:xlink="http://www.w3.org/1999/xlink" ffdec:objectType="shape" height="338.4px" width="334.5px" xmlns="http://www.w3.org/2000/svg">
  <g transform="matrix(1.0, 0.0, 0.0, 1.0, 155.55, 136.65)">
    <path d="M-4.5 -112.5 Q-6.0 -121.25 -6.55 -130.1 -6.65 -131.4 -5.5 -132.5 -3.75 -134.25 -1.5 -135.05 2.85 -136.65 7.5 -136.65 12.75 -136.65 17.65 -134.8 20.4 -133.75 23.2 -134.45 L28.5 -134.75 Q33.85 -133.9 38.7 -131.75 44.0 -129.4 48.15 -125.2 49.35 -123.9 49.15 -122.1 48.5 -116.75 46.6 -111.6 45.55 -108.8 43.25 -107.0 39.75 -102.0 19.0 -111.5 L5.5 -109.5 Q-4.5 -109.75 -4.5 -112.5 M47.0 -56.75 L49.75 -43.5 54.75 -23.5 56.5 -8.75 57.5 -6.0 29.75 0.0 3.25 6.75 2.75 7.0 2.5 7.0 Q-28.5 15.25 3.5 23.0 L4.0 23.25 34.5 29.5 70.25 33.75 Q93.0 65.5 87.75 97.75 L79.75 116.0 59.5 131.25 52.75 135.5 25.75 144.5 6.75 146.0 -4.0 146.25 -31.0 140.25 -55.5 126.25 -68.75 112.5 -82.5 94.25 -85.5 80.75 -86.5 72.0 -83.75 67.0 -82.75 60.25 -74.75 52.0 Q-75.75 49.5 -66.0 37.5 L-50.5 8.75 -41.0 -12.5 -19.25 -15.5 1.0 -19.25 13.5 -22.5 Q15.75 -25.5 15.0 -28.5 L14.75 -29.25 3.5 -35.25 -26.0 -47.0 -19.5 -60.0 -19.25 -60.0 Q-8.5 -40.75 8.0 -40.75 L8.75 -40.5 10.0 -40.5 Q31.0 -35.5 47.0 -56.75 M33.5 -121.75 L28.0 -121.25 25.75 -119.5 Q24.5 -115.25 27.0 -112.25 L30.5 -111.25 Q41.5 -114.5 33.5 -121.75 M9.0 -114.25 Q19.0 -124.0 5.75 -125.0 -2.5 -116.5 9.0 -114.25" fill="#ffffff" fill-rule="evenodd" stroke="none"/>
    <path d="M-4.5 -112.5 Q-4.5 -109.75 5.5 -109.5 L19.0 -111.5 Q39.75 -102.0 43.25 -107.0 55.25 -96.25 55.0 -80.75 L54.25 -76.0 51.25 -65.75 51.0 -65.5 51.0 -65.25 47.0 -56.75 Q31.0 -35.5 10.0 -40.5 L8.75 -40.5 8.0 -40.75 Q-8.5 -40.75 -19.25 -60.0 L-19.5 -60.0 Q-23.55 -72.6 -22.1 -85.75 -21.15 -94.45 -16.35 -101.7 -11.8 -108.5 -4.5 -112.5 M59.5 131.25 L70.25 128.25 79.25 125.25 80.0 124.75 93.0 118.5 96.0 116.5 Q108.75 136.5 110.5 154.0 111.0 193.0 55.25 201.0 30.5 204.25 16.75 193.0 7.75 182.25 6.75 146.0 L25.75 144.5 52.75 135.5 59.5 131.25 M-4.0 146.25 Q-2.8 166.95 -10.35 186.0 -12.1 190.45 -15.8 192.9 -22.75 197.6 -31.05 199.0 -41.5 200.75 -52.25 200.75 -58.8 199.9 -65.45 198.3 -79.05 195.35 -90.55 187.7 -101.9 180.2 -106.05 167.25 -108.95 158.0 -106.4 148.75 -104.35 141.3 -101.9 133.95 -96.0 116.5 -84.0 102.75 L-75.45 108.65 -73.75 109.75 -68.75 112.5 -55.5 126.25 -31.0 140.25 -4.0 146.25" fill="#e58508" fill-rule="evenodd" stroke="none"/>
    <path d="M9.0 -114.25 Q-2.5 -116.5 5.75 -125.0 19.0 -124.0 9.0 -114.25 M33.5 -121.75 Q41.5 -114.5 30.5 -111.25 L27.0 -112.25 Q24.5 -115.25 25.75 -119.5 L28.0 -121.25 33.5 -121.75" fill="#000000" fill-rule="evenodd" stroke="none"/>
    <path d="M107.95 -16.25 L106.25 -16.25 93.25 -50.0 120.0 -18.75 107.95 -16.25 M14.75 -29.25 L3.5 -35.25 -19.75 -44.25 -20.5 -45.25 -22.0 -54.25 -22.5 -70.25 Q-13.5 -38.0 18.5 -40.0 50.25 -46.5 55.0 -81.25 56.5 -39.5 33.0 -17.75 L27.0 -14.5 19.25 -12.0 10.75 -12.25 Q-1.25 -14.5 -5.25 -18.0 L-36.0 -12.75 -81.25 -9.0 -99.25 -10.0 -103.75 -1.0 -104.75 -0.25 -104.5 0.5 -110.5 12.5 -112.25 14.75 -112.5 17.0 -113.25 17.5 -113.25 19.0 -116.75 27.25 -116.75 29.25 Q-115.95 27.1 -114.35 25.35 L-114.55 27.9 Q-114.55 34.95 -110.8 46.15 -107.4 56.45 -103.5 62.75 -100.65 67.3 -97.1 71.4 -92.6 76.55 -87.85 79.9 L-83.35 82.5 Q-80.9 87.2 -78.05 91.35 -74.4 96.6 -70.9 99.9 -70.6 101.25 -69.5 102.75 L-41.25 125.0 -28.75 129.5 -17.65 132.55 -16.5 133.05 -14.4 133.55 -13.5 133.65 -6.75 135.5 5.5 135.0 29.75 132.5 27.3 132.5 30.65 131.75 Q46.75 127.6 68.05 113.6 75.75 108.35 79.8 105.75 87.0 101.05 90.0 100.25 93.35 99.3 96.75 97.05 L97.75 97.75 Q124.75 76.0 128.75 48.0 L125.25 35.5 84.0 35.5 38.25 30.0 0.25 22.5 -11.25 19.0 -11.5 17.5 -10.5 18.5 1.5 20.25 2.75 21.0 34.25 26.0 81.0 30.0 134.25 27.0 158.0 21.25 Q161.5 20.25 163.0 21.75 L172.0 13.25 178.25 1.5 Q181.75 8.25 168.0 24.75 165.5 22.0 156.75 29.25 L136.0 34.25 Q136.25 69.75 118.25 96.25 L111.0 104.75 96.0 116.25 Q113.85 141.55 109.4 164.05 L109.5 163.25 Q108.25 160.5 95.75 161.5 L36.5 165.25 30.0 167.75 Q13.0 167.0 11.5 169.75 8.5 170.5 11.25 178.75 L16.5 189.25 Q17.75 188.75 24.25 193.75 L32.75 196.0 51.75 196.75 Q103.15 188.05 108.95 166.0 107.7 171.2 105.25 176.25 91.5 198.0 47.5 201.5 L33.25 200.75 Q22.75 199.0 17.0 193.75 9.0 188.5 6.75 146.0 L-3.75 146.25 -4.75 163.75 -6.25 174.0 -10.25 188.0 -14.25 194.25 -20.75 198.25 -28.25 200.25 -41.25 201.5 -53.5 200.75 -72.25 196.75 -81.25 193.25 -87.75 189.75 -95.25 184.25 -101.75 176.75 -106.25 166.75 -106.75 163.5 Q-98.5 188.25 -52.5 196.5 -10.5 202.0 -6.5 172.5 -7.0 168.75 -12.5 166.75 L-41.0 159.25 -69.0 141.25 -74.75 132.75 -93.75 130.5 Q-100.2 130.0 -100.75 131.25 L-97.75 124.0 -91.5 114.5 -90.75 112.25 -83.75 102.5 Q-112.25 82.0 -119.0 48.0 L-119.75 41.75 -119.25 22.5 -118.25 11.25 -113.75 -11.0 Q-143.25 -14.8 -155.55 -22.45 L-154.75 -23.55 -144.75 -19.75 -131.0 -15.5 -123.35 -14.7 -121.85 -14.55 -121.65 -14.55 -86.25 -11.0 -33.0 -14.75 7.0 -21.5 Q12.95 -22.15 13.7 -24.2 L13.5 -22.75 15.25 -25.5 Q13.5 -27.25 14.75 -29.25" fill="#000000" fill-opacity="0.49803922" fill-rule="evenodd" stroke="none"/>
  </g>
</svg>
