<?xml version="1.0" encoding="UTF-8" standalone="no"?>
<svg xmlns:ffdec="https://www.free-decompiler.com/flash" xmlns:xlink="http://www.w3.org/1999/xlink" ffdec:objectType="shape" height="394.85px" width="325.05px" xmlns="http://www.w3.org/2000/svg">
  <g transform="matrix(1.0, 0.0, 0.0, 1.0, 144.3, 192.0)">
    <path d="M8.0 -125.75 Q6.6 -129.75 6.35 -133.8 6.0 -139.0 7.7 -143.95 9.55 -149.25 15.25 -150.25 18.25 -150.5 21.2 -150.25 26.35 -149.65 30.8 -147.2 34.4 -145.3 38.0 -146.75 43.75 -146.0 49.2 -144.25 53.75 -142.9 57.2 -139.65 60.1 -136.9 61.4 -133.0 62.65 -129.2 61.1 -125.6 L60.05 -123.75 55.0 -117.0 Q51.25 -113.25 30.75 -124.25 L17.5 -123.0 Q8.25 -123.5 8.0 -125.75 M55.0 -67.5 L56.25 -62.75 57.25 -52.0 60.75 -32.5 61.75 -21.0 31.0 -17.0 5.75 -12.75 5.0 -12.5 4.75 -12.5 Q-25.75 -8.0 3.5 3.25 L38.5 14.0 70.25 21.0 Q95.25 69.25 87.0 98.25 L78.25 117.0 51.25 133.75 49.25 135.0 22.25 141.5 6.75 141.25 -3.75 141.0 -6.75 141.0 -34.5 133.0 -52.7 120.35 Q-60.35 114.75 -66.0 107.25 L-66.25 106.75 -82.25 83.25 -84.75 61.25 -81.3 54.85 Q-76.65 46.85 -71.65 39.05 L-60.25 21.25 -47.25 -2.0 Q-46.4 -3.0 -45.8 -4.15 -37.75 -19.65 -30.0 -35.25 L2.25 -39.25 Q9.6 -40.1 16.3 -42.8 18.45 -43.7 19.4 -45.75 20.05 -47.2 19.05 -48.35 15.7 -52.25 11.15 -54.4 L-14.25 -66.0 -9.75 -73.75 Q-2.25 -58.0 15.0 -55.5 L15.5 -55.5 17.25 -55.0 Q38.25 -49.25 55.0 -67.5 M22.75 -127.75 Q31.25 -136.5 18.75 -138.75 9.25 -131.0 22.75 -127.75 M40.75 -133.75 L38.0 -132.0 Q36.5 -121.5 45.0 -123.5 51.0 -128.25 46.75 -133.25 44.75 -134.75 40.75 -133.75" fill="#ffffff" fill-rule="evenodd" stroke="none"/>
    <path d="M8.0 -125.75 Q8.25 -123.5 17.5 -123.0 L30.75 -124.25 Q51.25 -113.25 55.0 -117.0 65.2 -106.35 64.85 -91.55 64.8 -89.15 64.35 -86.85 63.85 -84.0 62.6 -81.45 59.0 -74.4 55.0 -67.5 38.25 -49.25 17.25 -55.0 L15.5 -55.5 15.0 -55.5 Q-2.25 -58.0 -9.75 -73.75 L-11.65 -81.55 Q-12.0 -83.0 -11.9 -84.5 -11.15 -94.4 -8.85 -103.95 -5.35 -118.75 8.0 -125.75 M51.25 133.75 Q62.1 131.85 72.8 129.2 78.5 127.75 83.75 126.0 91.15 123.55 97.75 119.25 102.55 127.35 106.25 136.0 110.4 145.85 110.4 156.45 110.35 167.75 104.1 177.15 98.3 185.7 89.25 190.8 83.4 194.05 77.05 196.25 58.15 202.55 38.3 201.45 28.8 200.55 20.5 195.5 18.55 194.3 17.1 192.65 12.5 187.55 10.95 180.75 6.5 161.4 6.75 141.25 L22.25 141.5 49.25 135.0 51.25 133.75 M-3.75 141.0 Q-3.1 161.95 -8.65 182.2 -9.7 186.05 -11.65 189.35 -13.15 192.0 -15.45 193.3 -22.75 197.6 -31.05 199.0 -41.5 200.75 -52.25 200.75 -58.8 199.9 -65.45 198.3 -79.05 195.35 -90.55 187.7 -101.9 180.2 -106.0 167.25 -108.85 158.1 -106.55 149.1 -105.2 143.6 -103.4 138.25 -97.2 119.55 -85.15 103.85 L-80.0 97.25 Q-76.15 100.4 -71.9 103.35 L-66.0 107.25 Q-60.35 114.75 -52.7 120.35 L-34.5 133.0 -6.75 141.0 -3.75 141.0" fill="#e58508" fill-rule="evenodd" stroke="none"/>
    <path d="M40.75 -133.75 Q44.75 -134.75 46.75 -133.25 51.0 -128.25 45.0 -123.5 36.5 -121.5 38.0 -132.0 L40.75 -133.75 M22.75 -127.75 Q9.25 -131.0 18.75 -138.75 31.25 -136.5 22.75 -127.75" fill="#000000" fill-rule="evenodd" stroke="none"/>
    <path d="M39.75 -33.25 Q27.75 -23.0 0.75 -39.0 L-28.5 -35.25 -75.75 -33.25 -88.5 -34.5 -100.5 -16.5 -99.15 -16.6 -103.5 -1.15 Q-105.6 7.05 -106.05 11.55 -106.25 13.85 -106.25 22.8 -106.25 44.85 -98.75 58.15 L-93.45 67.05 Q-89.75 72.55 -85.9 76.1 L-85.4 76.55 -87.25 78.25 Q-84.7 79.05 -82.6 81.35 -81.05 83.05 -79.75 85.65 L-78.5 88.5 -79.0 86.6 -77.8 88.15 Q-72.4 94.65 -66.85 97.45 L-43.0 119.75 -10.25 131.5 26.5 130.75 30.1 129.45 Q36.0 128.3 45.5 125.35 L60.0 120.5 Q64.8 118.7 68.95 115.45 L74.75 110.65 Q78.9 107.75 83.45 105.25 L84.35 104.6 88.4 102.15 Q91.7 100.25 98.8 95.4 106.45 90.2 108.15 89.15 116.05 84.3 120.85 76.65 L122.0 77.75 Q123.5 78.0 126.5 71.5 L135.0 42.5 130.75 28.0 82.75 23.75 36.25 13.5 6.75 4.5 -9.5 -1.75 -9.5 -3.5 Q-8.75 -1.25 6.0 2.5 L43.5 11.75 84.0 19.5 125.0 23.25 134.5 22.7 Q129.4 22.75 128.0 20.75 L127.5 20.25 135.5 18.75 Q161.0 14.0 164.25 17.5 L175.5 7.0 180.0 -2.0 180.0 -3.25 180.75 -3.5 Q180.0 27.25 140.0 27.0 139.0 101.5 97.75 119.0 L100.5 123.5 108.0 141.25 110.0 150.5 107.25 149.0 68.75 148.5 58.0 156.5 26.75 164.75 13.25 164.75 10.5 165.75 9.5 167.0 9.5 170.75 Q11.5 175.5 11.25 178.75 L16.0 188.75 Q27.25 198.0 51.25 196.75 98.5 188.4 107.8 170.4 L106.25 174.0 Q96.0 196.75 47.5 201.5 3.75 212.0 7.0 141.25 L-3.5 141.0 -5.25 167.5 Q-7.5 161.5 -43.75 151.75 L-70.75 131.75 Q-82.75 107.75 -87.25 107.25 L-80.0 97.25 Q-112.5 68.5 -114.25 38.25 L-114.25 23.75 -112.75 10.5 -106.25 -19.0 -100.75 -35.5 Q-121.25 -34.8 -144.3 -48.7 L-143.85 -49.35 -126.75 -42.0 -91.75 -36.75 -80.75 -36.0 -79.25 -35.25 -32.0 -36.25 -18.75 -37.75 16.25 -42.75 18.4 -45.95 Q17.4 -55.85 -11.0 -64.25 L-11.75 -66.75 -12.25 -80.25 Q-6.0 -54.25 31.0 -54.5 61.0 -64.5 65.0 -90.5 63.0 -48.25 39.75 -33.25 M4.25 -191.0 L5.75 -192.0 4.75 -190.75 4.25 -191.0 M110.75 -26.75 L101.5 -52.5 119.7 -28.0 120.0 -27.5 113.25 -26.75 110.75 -26.75 M-52.5 196.5 Q-10.75 202.5 -6.25 171.5 -5.75 202.0 -39.5 201.5 -102.5 196.75 -106.75 163.75 -102.5 185.75 -52.5 196.5" fill="#000000" fill-opacity="0.49803922" fill-rule="evenodd" stroke="none"/>
  </g>
</svg>
