<?xml version="1.0" encoding="UTF-8" standalone="no"?>
<svg xmlns:ffdec="https://www.free-decompiler.com/flash" xmlns:xlink="http://www.w3.org/1999/xlink" ffdec:objectType="shape" height="350.5px" width="260.25px" xmlns="http://www.w3.org/2000/svg">
  <g transform="matrix(1.0, 0.0, 0.0, 1.0, 130.1, 176.5)">
    <path d="M129.9 -80.0 Q129.4 -75.0 129.4 -66.5 129.4 -58.0 126.9 -37.5 124.4 -16.5 107.9 18.5 104.9 28.0 98.9 44.5 86.9 79.0 78.4 114.5 69.4 149.5 70.4 157.0 81.4 159.5 84.4 165.5 87.35 171.4 85.5 173.9 L50.45 173.9 48.4 172.5 Q47.9 172.5 46.9 167.5 45.9 162.0 42.9 135.5 39.4 108.5 33.4 109.0 L26.4 109.0 23.9 109.0 21.4 109.0 Q11.4 111.5 -8.1 111.5 L-31.6 110.5 -34.1 109.0 Q-35.1 108.5 -38.1 110.5 -41.1 112.5 -48.6 132.0 -56.6 151.5 -59.6 160.5 L-63.6 172.0 -64.75 174.0 -97.1 174.0 Q-98.6 173.0 -98.6 170.0 -98.6 169.0 -97.6 166.5 -97.6 165.5 -95.1 164.5 -93.1 162.5 -86.1 159.0 -79.6 155.0 -79.6 153.5 L-80.6 134.5 Q-82.1 116.5 -92.1 79.5 -103.1 42.5 -106.6 22.5 -130.1 -14.5 -130.1 -57.0 -130.1 -96.5 -109.1 -124.5 -92.6 -147.5 -64.1 -159.5 -30.6 -176.5 20.9 -176.5 80.4 -176.5 110.4 -134.5 127.4 -110.5 129.9 -86.0 130.4 -85.0 129.9 -80.0" fill="#2e47aa" fill-rule="evenodd" stroke="none"/>
  </g>
</svg>
