<?xml version="1.0" encoding="UTF-8" standalone="no"?>
<svg xmlns:ffdec="https://www.free-decompiler.com/flash" xmlns:xlink="http://www.w3.org/1999/xlink" ffdec:objectType="shape" height="353.5px" width="265.5px" xmlns="http://www.w3.org/2000/svg">
  <g transform="matrix(1.0, 0.0, 0.0, 1.0, 132.75, 176.7)">
    <path d="M132.75 -47.95 Q132.75 -19.95 109.75 9.05 97.25 25.05 86.75 31.55 79.75 37.55 64.75 45.05 L64.25 63.55 Q55.25 168.05 50.25 168.05 46.25 168.05 44.25 166.05 38.25 162.05 30.75 142.55 L17.75 106.05 Q15.75 100.55 9.75 78.05 8.75 75.05 8.25 72.05 -1.75 79.05 -26.25 88.55 -30.25 90.05 -34.25 92.05 L-55.25 101.55 Q-56.25 110.05 -61.75 131.55 -64.25 142.05 -69.75 155.55 L-78.15 176.8 -111.4 176.8 -111.75 176.75 -111.75 169.05 Q-110.75 167.05 -108.75 166.05 -103.25 162.55 -96.75 160.05 L-98.25 132.55 Q-99.25 126.05 -99.25 122.55 L-101.75 111.05 Q-108.25 108.05 -115.75 101.05 -125.75 92.05 -128.75 84.55 -132.25 75.05 -132.75 68.55 L-132.75 54.55 Q-132.75 36.55 -128.25 27.05 -118.25 11.05 -108.25 -9.45 -98.75 -28.45 -92.25 -64.95 -91.25 -75.45 -88.75 -86.95 -78.75 -133.45 -40.75 -160.95 4.25 -192.45 57.75 -160.95 102.25 -133.95 123.75 -86.95 132.75 -67.45 132.75 -47.95" fill="#2e47aa" fill-rule="evenodd" stroke="none"/>
  </g>
</svg>
