<?xml version="1.0" encoding="UTF-8" standalone="no"?>
<svg xmlns:ffdec="https://www.free-decompiler.com/flash" xmlns:xlink="http://www.w3.org/1999/xlink" ffdec:objectType="shape" height="354.25px" width="319.5px" xmlns="http://www.w3.org/2000/svg">
  <g transform="matrix(1.0, 0.0, 0.0, 1.0, 159.75, 177.1)">
    <path d="M58.25 -174.85 L66.75 -174.35 Q111.75 -168.85 122.25 -147.35 137.75 -132.85 148.25 -109.35 159.75 -83.35 159.75 -59.35 159.75 -38.35 142.25 -4.85 135.25 8.15 129.75 16.15 125.25 21.65 121.75 25.15 118.25 27.65 115.25 28.65 106.25 33.15 91.75 37.65 93.25 44.65 93.25 48.65 L92.75 50.65 93.25 51.15 Q91.25 54.15 89.25 54.15 84.25 54.15 73.75 42.65 31.75 52.15 0.75 52.15 L-13.75 51.65 Q-17.25 63.65 -36.25 110.15 -39.25 119.65 -43.75 140.65 -45.75 149.15 -58.75 176.65 L-73.25 177.15 -87.75 176.15 Q-88.75 176.15 -90.75 174.65 -92.75 173.15 -91.75 170.65 -90.75 167.65 -84.75 164.15 -78.75 160.15 -73.75 158.65 L-74.75 93.65 Q-74.75 76.15 -81.25 51.65 -92.25 46.65 -113.75 41.15 -136.75 35.15 -145.75 28.15 -152.75 22.65 -156.75 10.15 -159.75 0.15 -159.75 -8.85 -159.75 -31.35 -127.25 -54.85 -75.75 -91.85 -70.75 -96.85 -52.25 -118.35 -30.75 -137.85 11.75 -176.35 39.25 -176.35 50.75 -178.35 58.25 -174.85" fill="#2e47aa" fill-rule="evenodd" stroke="none"/>
  </g>
</svg>
