<?xml version="1.0" encoding="UTF-8" standalone="no"?>
<svg xmlns:ffdec="https://www.free-decompiler.com/flash" xmlns:xlink="http://www.w3.org/1999/xlink" ffdec:objectType="shape" height="280.8px" width="327.55px" xmlns="http://www.w3.org/2000/svg">
  <g transform="matrix(1.0, 0.0, 0.0, 1.0, 163.75, 139.95)">
    <path d="M142.75 -113.55 Q146.75 -110.55 150.25 -106.55 153.75 -101.05 156.25 -95.05 164.25 -75.55 163.75 -53.05 163.25 -32.05 156.25 -14.05 141.75 24.95 114.25 55.45 99.25 71.95 78.75 78.95 69.25 82.95 59.75 85.95 L38.75 87.95 3.25 82.45 Q-9.25 79.95 -20.75 76.45 -47.25 69.45 -67.75 51.45 -74.25 70.45 -81.25 89.45 L-91.75 115.95 Q-95.25 123.95 -99.25 131.95 -101.75 137.45 -105.75 139.95 L-109.85 140.85 -135.75 140.85 Q-137.2 140.45 -138.4 139.65 -140.75 138.2 -139.9 136.45 -138.25 132.95 -135.75 130.45 -129.75 124.45 -120.75 122.45 -119.75 115.95 -119.25 109.95 -118.75 98.95 -118.75 87.95 L-118.75 72.45 Q-119.25 63.95 -119.25 55.95 L-120.25 -2.05 Q-124.25 -8.55 -128.25 -14.05 -140.25 -30.55 -150.25 -46.55 -157.25 -58.05 -160.75 -70.05 -163.75 -81.05 -163.75 -92.05 -164.25 -112.05 -149.75 -123.55 -137.25 -132.55 -119.75 -137.05 -110.25 -139.55 -100.75 -138.05 -96.75 -137.55 -93.25 -135.55 -81.75 -130.55 -69.25 -130.55 -53.75 -130.05 -38.25 -130.05 L-13.25 -131.05 16.25 -134.55 48.25 -138.05 59.25 -138.05 Q108.25 -147.05 142.75 -113.55" fill="#2e47aa" fill-rule="evenodd" stroke="none"/>
  </g>
</svg>
