<?xml version="1.0" encoding="UTF-8" standalone="no"?>
<svg xmlns:ffdec="https://www.free-decompiler.com/flash" xmlns:xlink="http://www.w3.org/1999/xlink" ffdec:objectType="shape" height="309.1px" width="264.0px" xmlns="http://www.w3.org/2000/svg">
  <g transform="matrix(1.0, 0.0, 0.0, 1.0, 132.0, 155.5)">
    <path d="M17.0 -152.0 Q19.5 -151.0 22.0 -149.5 40.5 -144.0 61.5 -120.5 72.0 -109.0 81.0 -96.5 106.5 -80.5 120.0 -52.0 132.0 -26.5 132.0 1.5 132.0 20.5 118.5 45.5 105.0 70.0 88.0 78.5 81.0 83.0 70.5 87.0 70.0 103.0 65.0 130.0 L64.0 136.5 Q75.0 136.5 78.0 146.5 78.95 149.35 79.45 153.5 L45.6 153.5 43.5 153.0 39.0 130.0 Q38.0 119.0 37.5 102.5 L37.5 97.0 27.5 99.0 -50.5 91.5 Q-53.0 100.0 -60.0 121.0 -67.0 141.5 -67.5 145.0 -68.5 148.0 -71.0 153.55 L-71.15 153.6 -99.1 153.6 Q-104.05 152.0 -103.65 148.9 -103.0 144.0 -95.5 139.5 -92.0 137.5 -89.0 136.5 L-88.0 80.0 Q-97.5 75.0 -108.0 63.5 -121.5 48.5 -124.0 40.5 -132.0 12.5 -132.0 -6.0 -132.0 -29.5 -126.0 -45.0 -118.0 -65.5 -97.0 -82.5 -82.0 -94.0 -59.0 -121.0 -48.0 -132.0 -34.5 -139.5 -31.0 -142.5 -25.5 -145.5 -7.5 -155.5 4.5 -155.5 9.5 -155.5 17.0 -152.0" fill="#2e47aa" fill-rule="evenodd" stroke="none"/>
  </g>
</svg>
