<?xml version="1.0" encoding="UTF-8" standalone="no"?>
<svg xmlns:ffdec="https://www.free-decompiler.com/flash" xmlns:xlink="http://www.w3.org/1999/xlink" ffdec:objectType="shape" height="338.5px" width="310.85px" xmlns="http://www.w3.org/2000/svg">
  <g transform="matrix(1.0, 0.0, 0.0, 1.0, 155.4, 169.25)">
    <path d="M48.1 -168.75 Q56.85 -170.55 69.85 -165.7 L87.1 -157.95 Q92.75 -154.55 96.9 -150.1 L103.35 -142.2 111.75 -131.1 Q114.85 -129.0 116.45 -126.3 L120.35 -118.75 Q122.0 -116.35 124.1 -111.55 126.75 -105.5 127.45 -104.2 136.7 -86.85 141.85 -74.95 150.05 -55.8 152.7 -44.65 155.45 -33.0 155.45 -16.45 155.45 -4.8 154.3 2.2 152.45 13.85 146.9 22.75 137.85 37.3 118.35 45.95 114.3 48.45 110.5 50.3 101.9 54.55 92.35 56.65 54.05 65.25 40.55 67.8 -7.0 76.8 -35.9 76.8 L-39.0 76.75 -45.55 82.65 -63.55 101.0 -63.2 104.05 Q-60.3 133.25 -61.75 162.3 L-62.1 164.2 -64.85 167.55 -92.5 169.1 Q-94.6 169.55 -96.6 168.7 L-97.95 168.15 -98.5 167.05 -99.0 165.95 -99.2 164.85 -99.05 162.75 Q-98.4 159.05 -95.35 156.7 L-94.25 155.85 Q-87.55 153.5 -95.7 137.8 -103.85 122.0 -110.15 104.05 -110.7 100.6 -110.7 98.15 -110.7 88.25 -105.05 77.15 L-101.5 71.0 Q-133.85 70.2 -147.2 55.55 -155.4 46.55 -155.4 33.8 -155.4 18.4 -148.0 3.35 -142.15 -8.65 -131.95 -19.75 L-121.75 -31.1 -118.8 -34.15 -118.35 -34.55 -117.95 -34.95 -116.6 -36.2 -115.0 -37.65 -97.55 -53.05 Q-91.9 -58.4 -81.4 -70.25 L-65.1 -88.25 Q-59.95 -93.6 -49.55 -106.15 -39.0 -118.95 -33.05 -125.2 -20.8 -138.1 -7.9 -145.7 15.65 -164.65 48.1 -168.75" fill="#2e47aa" fill-rule="evenodd" stroke="none"/>
  </g>
</svg>
