<?xml version="1.0" encoding="UTF-8" standalone="no"?>
<svg xmlns:ffdec="https://www.free-decompiler.com/flash" xmlns:xlink="http://www.w3.org/1999/xlink" ffdec:objectType="shape" height="240.55px" width="337.8px" xmlns="http://www.w3.org/2000/svg">
  <g transform="matrix(1.0, 0.0, 0.0, 1.0, 167.5, 120.25)">
    <path d="M134.3 -63.8 Q151.6 -46.5 161.3 -23.35 170.3 -1.9 170.3 18.2 170.3 44.3 155.55 65.6 143.05 83.7 120.8 97.2 102.3 108.4 80.1 114.8 61.15 120.3 47.65 120.3 36.85 120.3 28.85 118.55 L28.4 118.55 Q5.15 118.55 -20.35 101.45 -37.4 90.05 -49.7 75.8 L-72.6 48.85 -77.1 52.5 Q-89.4 62.1 -101.75 65.1 L-101.2 65.95 Q-100.0 67.5 -97.25 73.25 L-90.65 87.7 Q-88.3 92.95 -85.7 102.65 -82.7 117.25 -84.75 118.45 -85.15 118.65 -85.7 118.45 L-119.55 118.45 Q-121.1 117.5 -121.25 116.3 -122.0 111.55 -118.4 107.6 -116.7 105.75 -114.5 105.05 -118.6 103.35 -141.0 78.0 -163.4 52.65 -156.95 36.9 -150.55 21.15 -145.45 13.85 L-138.1 3.15 Q-134.15 -2.65 -133.2 -7.2 -161.2 -46.3 -164.35 -52.75 -167.55 -59.25 -167.5 -73.05 -167.5 -86.8 -163.15 -95.1 -151.45 -117.25 -122.7 -119.4 -107.6 -121.85 -89.85 -117.15 40.3 -100.15 58.7 -98.75 77.1 -97.35 99.4 -86.8 121.7 -76.25 134.3 -63.8" fill="#2e47aa" fill-rule="evenodd" stroke="none"/>
  </g>
</svg>
