<?xml version="1.0" encoding="UTF-8" standalone="no"?>
<svg xmlns:ffdec="https://www.free-decompiler.com/flash" xmlns:xlink="http://www.w3.org/1999/xlink" ffdec:objectType="shape" height="300.3px" width="254.0px" xmlns="http://www.w3.org/2000/svg">
  <g transform="matrix(1.0, 0.0, 0.0, 1.0, 127.0, 150.15)">
    <path d="M-32.85 -134.3 Q-16.4 -150.15 8.0 -150.15 35.75 -150.15 48.3 -117.8 52.45 -107.15 54.45 -94.1 L55.05 -90.0 Q56.65 -86.2 58.4 -80.25 L60.65 -71.75 Q68.75 -57.8 68.75 -56.65 L68.75 -56.05 Q89.45 -49.8 96.9 -39.1 100.2 -34.25 101.3 -27.9 102.0 -23.95 102.0 -16.65 102.0 -11.65 98.8 -7.4 105.1 -3.7 110.5 4.3 114.2 9.75 120.75 20.85 125.3 31.75 126.3 37.75 127.0 41.8 127.0 52.85 127.0 70.5 120.55 87.35 114.05 104.2 103.35 113.7 92.65 123.15 69.25 136.65 45.75 150.15 -19.3 150.15 -84.4 150.15 -112.75 108.4 -127.0 87.45 -127.0 60.95 -127.0 56.45 -125.25 46.7 -123.35 36.05 -120.55 26.2 -114.9 6.35 -108.95 1.45 -111.05 -0.15 -112.45 -2.65 -114.75 -6.75 -114.75 -11.55 -114.75 -24.4 -106.05 -35.3 -94.85 -49.35 -73.95 -51.15 L-73.95 -51.1 -72.55 -51.45 -65.9 -61.4 Q-60.0 -69.9 -55.45 -75.6 -52.65 -82.8 -50.75 -92.75 -47.4 -110.35 -46.25 -114.25 -45.35 -117.45 -42.45 -122.25 -38.5 -128.9 -32.85 -134.3 M-51.75 -79.1 L-52.05 -79.2 -52.1 -79.1 -51.75 -79.1" fill="#2e47aa" fill-rule="evenodd" stroke="none"/>
  </g>
</svg>
