<?xml version="1.0" encoding="UTF-8" standalone="no"?>
<svg xmlns:ffdec="https://www.free-decompiler.com/flash" xmlns:xlink="http://www.w3.org/1999/xlink" ffdec:objectType="shape" height="255.65px" width="314.65px" xmlns="http://www.w3.org/2000/svg">
  <g transform="matrix(1.0, 0.0, 0.0, 1.0, 157.3, 127.8)">
    <path d="M-77.05 -73.1 Q-75.05 -77.15 -71.15 -79.85 -59.5 -87.9 -34.95 -81.65 -29.55 -79.75 -21.25 -71.3 L-17.3 -67.1 -17.55 -67.6 Q-18.15 -68.9 -18.15 -69.55 -18.15 -70.25 -17.85 -70.4 L-18.4 -72.95 Q-18.4 -79.25 -13.25 -78.1 -8.3 -76.95 -0.05 -69.3 L7.3 -61.85 11.9 -62.7 12.55 -62.8 16.05 -63.9 24.55 -66.25 Q30.3 -68.65 38.55 -74.65 42.85 -77.75 48.1 -84.05 L49.6 -85.85 Q50.75 -89.2 54.45 -94.2 60.0 -101.6 68.45 -108.7 89.95 -126.75 110.05 -127.25 139.0 -131.65 150.8 -101.25 157.35 -84.45 157.35 -62.95 157.35 -44.05 148.55 -8.15 139.4 29.1 131.2 39.85 128.15 43.85 122.65 52.25 L113.8 65.25 Q102.15 80.75 85.8 91.15 L73.55 99.1 Q62.1 106.15 50.05 111.5 13.2 127.85 -26.95 127.85 -43.85 127.85 -57.8 123.05 L-63.1 121.05 -68.45 119.5 Q-91.35 112.85 -98.65 109.65 -110.95 104.3 -121.7 95.2 -125.7 91.85 -136.9 80.6 -145.25 72.15 -151.55 52.35 -157.3 34.35 -157.3 21.25 -157.3 10.35 -153.45 -1.2 -148.95 -14.55 -140.0 -26.0 -118.65 -53.5 -77.35 -63.85 -78.4 -66.1 -78.4 -68.25 -78.4 -70.3 -77.05 -73.1 M54.2 58.15 L54.2 58.2 54.55 58.15 54.2 58.15 M52.85 55.65 L52.55 55.65 52.85 55.85 52.85 55.65" fill="#2e47aa" fill-rule="evenodd" stroke="none"/>
  </g>
</svg>
