<?xml version="1.0" encoding="UTF-8" standalone="no"?>
<svg xmlns:ffdec="https://www.free-decompiler.com/flash" xmlns:xlink="http://www.w3.org/1999/xlink" ffdec:objectType="shape" height="420.15px" width="220.8px" xmlns="http://www.w3.org/2000/svg">
  <g transform="matrix(1.0, 0.0, 0.0, 1.0, 111.25, 159.65)">
    <path d="M-63.0 -113.0 L-61.75 -115.5 -63.25 -120.0 Q-60.6 -121.35 -58.0 -122.75 -29.0 -175.0 0.75 -153.25 16.65 -145.3 73.25 -24.75 L88.75 1.5 Q133.25 107.5 82.5 161.5 L78.0 191.25 67.5 226.5 58.5 249.25 57.5 251.25 57.25 251.5 57.25 252.0 54.5 257.5 54.25 257.75 Q48.5 265.25 45.0 252.25 L44.75 251.75 39.5 233.0 34.0 208.5 29.5 182.0 28.75 180.25 Q12.65 178.2 -1.35 169.7 -7.65 165.85 -14.25 162.3 L-23.0 157.5 Q-21.25 153.25 -20.9 148.9 -20.7 145.95 -21.25 143.15 -28.55 105.6 -42.4 69.85 -44.2 65.1 -44.75 60.0 -49.35 17.5 -49.0 -25.25 L-42.0 -27.0 -40.25 -30.25 Q-36.0 -40.25 -42.75 -62.75 -37.95 -64.45 -35.9 -69.4 L-35.25 -71.0 -51.5 -96.5 Q-57.55 -104.75 -61.25 -114.25 L-63.0 -113.0 M-72.25 -93.0 L-71.5 -94.5 -71.0 -93.5 -72.25 -93.0" fill="#2e47aa" fill-rule="evenodd" stroke="none"/>
    <path d="M-56.25 148.25 Q-62.5 143.65 -68.95 139.25 -94.8 121.85 -100.5 91.5 -102.9 78.25 -103.55 64.9 -104.15 53.35 -103.0 41.75 -101.25 31.0 -98.95 20.35 -94.5 -0.5 -89.5 -21.25 L-49.0 -25.25 Q-49.35 17.5 -44.75 60.0 -44.2 65.1 -42.4 69.85 -28.55 105.6 -21.25 143.15 -20.7 145.95 -20.9 148.9 -21.25 153.25 -23.0 157.5 -37.75 154.1 -52.3 150.0 -54.4 149.5 -56.25 148.25 M-69.5 -102.25 L-67.75 -107.25 -63.0 -113.0 -61.25 -114.25 Q-57.55 -104.75 -51.5 -96.5 L-35.25 -71.0 -35.9 -69.4 Q-37.95 -64.45 -42.75 -62.75 -59.5 -65.5 -62.5 -77.5 -60.0 -74.25 -57.5 -75.25 L-56.25 -79.75 Q-58.75 -90.25 -63.25 -84.0 L-63.75 -83.0 -63.75 -84.0 Q-68.75 -86.25 -69.75 -92.0 L-68.5 -91.25 -67.5 -92.0 -66.0 -95.75 -67.5 -103.0 -69.5 -102.25" fill="#ffffff" fill-rule="evenodd" stroke="none"/>
    <path d="M34.0 208.5 Q7.75 235.5 -2.5 236.5 -39.25 246.75 -66.0 198.75 -78.0 181.0 -70.25 160.0 L-66.75 155.5 -56.25 148.25 Q-54.4 149.5 -52.3 150.0 -37.75 154.1 -23.0 157.5 L-14.25 162.3 Q-7.65 165.85 -1.35 169.7 12.65 178.2 28.75 180.25 L29.5 182.0 34.0 208.5 M-100.5 91.5 Q-109.7 83.65 -109.75 71.3 -109.8 63.75 -108.1 56.4 -106.4 48.85 -103.0 41.75 -104.15 53.35 -103.55 64.9 -102.9 78.25 -100.5 91.5 M-89.5 -21.25 Q-109.75 -26.2 -111.05 -46.95 -112.0 -62.6 -101.15 -74.1 -88.85 -87.1 -72.25 -93.0 L-71.0 -93.5 -69.75 -92.0 Q-68.75 -86.25 -63.75 -84.0 L-63.75 -83.0 -62.5 -77.5 Q-59.5 -65.5 -42.75 -62.75 -36.0 -40.25 -40.25 -30.25 L-42.0 -27.0 -49.0 -25.25 -89.5 -21.25" fill="#e58508" fill-rule="evenodd" stroke="none"/>
    <path d="M-71.5 -94.5 L-71.75 -99.0 -69.5 -102.25 -67.5 -103.0 -66.0 -95.75 -67.5 -92.0 -68.5 -91.25 -69.75 -92.0 -71.0 -93.5 -71.5 -94.5 M-63.75 -83.0 L-63.25 -84.0 Q-58.75 -90.25 -56.25 -79.75 L-57.5 -75.25 Q-60.0 -74.25 -62.5 -77.5 L-63.75 -83.0" fill="#31333d" fill-rule="evenodd" stroke="none"/>
    <path d="M-110.15 -41.3 Q-111.3 -47.25 -111.25 -53.5 -109.75 -32.1 -90.1 -24.6 L-88.1 -24.1 Q-63.9 -21.6 -40.75 -29.0 L-70.6 5.8 Q-74.0 9.75 -76.45 14.4 -80.8 22.7 -85.9 30.5 L-89.75 35.75 -89.5 37.0 -90.55 38.0 Q-95.75 47.7 -98.4 58.6 -101.5 71.25 -97.65 83.9 -93.2 98.4 -83.3 110.05 -75.05 119.75 -64.35 126.7 -59.75 129.7 -54.85 131.8 -40.5 138.0 -25.5 143.25 L-21.25 142.0 -24.0 127.5 Q-5.1 144.65 18.25 154.25 L2.0 44.25 Q12.9 95.7 33.0 144.5 23.3 148.4 25.55 159.45 L27.05 167.4 Q34.3 209.4 45.8 250.3 46.3 252.2 47.35 254.0 52.1 256.1 54.2 251.65 67.25 223.85 75.4 194.1 69.1 229.0 52.25 260.25 41.15 251.5 39.35 237.0 38.75 232.25 37.8 227.55 35.85 218.1 34.25 208.5 15.25 233.05 -14.9 238.1 -17.95 238.5 -21.0 238.0 -36.7 234.9 -48.15 223.35 -57.05 214.4 -63.75 203.85 -68.35 196.6 -70.35 188.25 -57.5 217.75 -28.45 230.75 -22.65 233.4 -16.45 233.3 2.45 232.9 17.15 220.5 19.85 218.25 22.2 215.65 26.0 211.45 24.45 206.6 22.6 201.05 20.0 195.75 -2.5 188.15 -24.6 180.25 -28.85 178.75 -33.25 177.8 -52.15 174.35 -68.75 165.25 L-72.25 165.25 Q-67.8 153.25 -56.25 147.75 -76.4 127.7 -94.55 105.6 -96.6 103.15 -97.55 100.15 -101.5 87.65 -107.3 76.1 -109.25 72.2 -109.15 67.45 -108.65 43.55 -100.25 20.85 -98.2 15.2 -96.7 9.6 -92.55 -5.65 -89.5 -21.0 -106.85 -23.7 -110.15 -41.3 M-72.4 181.35 L-72.75 181.25 -72.75 180.0 Q-72.4 180.75 -72.4 181.35 M107.75 59.5 Q113.6 98.45 100.25 135.25 95.5 148.4 85.8 158.3 L82.5 161.5 81.9 164.55 82.65 160.05 Q83.95 152.6 82.3 145.25 L81.95 143.8 Q85.95 139.25 89.3 134.35 101.45 116.35 105.0 95.0 L107.75 59.5 M74.5 128.75 L73.0 88.5 Q77.4 108.15 74.7 127.95 L74.5 128.75" fill="#000000" fill-opacity="0.49803922" fill-rule="evenodd" stroke="none"/>
  </g>
</svg>
