<?xml version="1.0" encoding="UTF-8" standalone="no"?>
<svg xmlns:ffdec="https://www.free-decompiler.com/flash" xmlns:xlink="http://www.w3.org/1999/xlink" ffdec:objectType="shape" height="275.85px" width="268.25px" xmlns="http://www.w3.org/2000/svg">
  <g transform="matrix(1.0, 0.0, 0.0, 1.0, 134.1, 137.9)">
    <path d="M-28.1 -125.75 Q-10.6 -137.9 10.65 -137.9 24.9 -137.9 39.95 -123.15 48.85 -114.45 53.2 -106.85 56.6 -100.6 60.0 -90.1 L65.4 -73.5 65.95 -72.0 Q69.55 -70.2 75.45 -66.5 84.5 -60.75 90.4 -58.1 100.35 -53.6 107.4 -47.4 113.7 -41.85 115.9 -36.6 121.7 -22.65 122.55 -1.25 134.15 21.6 134.15 45.4 134.15 56.5 131.2 67.9 127.75 81.05 121.4 90.1 112.8 102.2 99.25 114.7 80.35 132.15 68.4 132.15 L67.2 131.85 Q49.2 137.95 20.4 137.95 -52.9 137.95 -91.5 114.0 -134.1 87.6 -134.1 32.45 -134.1 23.2 -128.35 9.05 L-128.7 4.5 Q-128.7 -3.35 -124.85 -17.8 -120.75 -33.2 -116.85 -37.1 L-107.7 -47.15 Q-101.4 -53.55 -92.8 -57.85 -87.95 -60.3 -72.65 -68.1 -66.8 -70.85 -63.6 -71.65 L-61.6 -77.55 Q-50.45 -110.2 -28.1 -125.75 M-126.9 20.45 L-126.7 20.45 -126.75 19.95 -126.9 20.45" fill="#2e47aa" fill-rule="evenodd" stroke="none"/>
  </g>
</svg>
