<?xml version="1.0" encoding="UTF-8" standalone="no"?>
<svg xmlns:ffdec="https://www.free-decompiler.com/flash" xmlns:xlink="http://www.w3.org/1999/xlink" ffdec:objectType="shape" height="400.0px" width="281.75px" xmlns="http://www.w3.org/2000/svg">
  <g transform="matrix(1.0, 0.0, 0.0, 1.0, 32.4, 215.65)">
    <path d="M180.35 -214.15 Q190.85 -212.15 201.35 -208.15 216.35 -204.15 231.35 -198.15 L248.35 -189.15 249.35 -173.65 240.35 -160.15 232.35 -150.15 Q228.35 -146.15 224.35 -142.65 214.85 -134.15 202.85 -126.15 190.35 -118.15 172.35 -108.15 154.35 -98.65 138.35 -100.65 132.35 -103.65 128.85 -107.65 122.85 -114.15 121.35 -122.65 118.35 -136.15 119.35 -150.15 120.35 -172.15 122.85 -193.65 123.85 -204.65 125.85 -215.65 143.85 -215.65 162.35 -214.65 171.35 -214.65 180.35 -214.15 M71.35 -215.65 L87.35 -215.65 Q91.85 -199.15 94.35 -186.65 96.85 -174.65 98.85 -142.15 100.35 -110.15 88.85 -106.65 L76.85 -103.15 71.85 -103.15 Q43.35 -103.15 5.35 -128.15 -28.65 -150.65 -30.15 -163.65 -32.15 -166.65 -32.15 -172.65 L-32.15 -175.65 Q-32.65 -176.65 -32.15 -178.15 L-31.65 -180.65 -31.65 -182.65 Q-30.65 -185.15 -29.15 -186.15 -21.15 -198.65 10.85 -206.65 41.85 -214.65 71.35 -215.65 M77.9 126.5 Q74.6 124.1 78.35 127.85 80.85 130.35 86.35 130.85 L86.85 131.85 92.35 132.35 95.85 131.85 96.35 130.35 Q100.35 129.85 101.85 128.35 103.85 125.35 104.85 124.35 105.35 125.85 107.35 126.85 108.35 127.85 113.85 128.35 L114.35 131.85 120.85 131.85 123.35 128.85 123.85 128.85 Q129.85 128.85 134.85 125.85 137.85 123.85 138.85 122.35 146.85 156.85 101.85 167.35 93.35 164.85 89.35 162.35 84.85 159.85 83.35 158.35 67.35 142.35 70.35 121.85 71.8 121.85 77.9 126.5" fill="#e58508" fill-rule="evenodd" stroke="none"/>
    <path d="M77.9 126.5 L78.35 126.85 73.35 121.35 94.85 120.35 112.85 120.35 137.85 118.35 Q137.85 118.85 138.85 120.85 L138.85 122.35 Q137.85 123.85 134.85 125.85 129.85 128.85 123.85 128.85 L123.35 128.85 123.85 127.85 Q122.85 126.35 122.85 125.85 114.85 125.85 113.35 127.35 L113.85 128.35 Q108.35 127.85 107.35 126.85 105.35 125.85 104.85 124.35 103.85 125.35 101.85 128.35 100.35 129.85 96.35 130.35 L95.85 127.35 87.35 127.85 Q86.85 127.85 85.85 130.35 L86.35 130.85 Q80.85 130.35 78.35 127.85 74.6 124.1 77.9 126.5" fill="#ffffff" fill-rule="evenodd" stroke="none"/>
    <path d="M86.35 130.85 L85.85 130.35 Q86.85 127.85 87.35 127.85 L95.85 127.35 96.35 130.35 95.85 131.85 92.35 132.35 86.85 131.85 86.35 130.85 M113.85 128.35 L113.35 127.35 Q114.85 125.85 122.85 125.85 122.85 126.35 123.85 127.85 L123.35 128.85 120.85 131.85 114.35 131.85 113.85 128.35" fill="#000000" fill-rule="evenodd" stroke="none"/>
    <path d="M119.85 -146.65 L120.35 -141.65 Q121.35 -137.15 123.85 -131.65 127.85 -124.15 134.85 -120.65 L137.85 -120.15 146.85 -119.15 Q162.35 -119.15 176.35 -128.15 185.85 -134.15 190.35 -136.15 L188.35 -135.15 Q193.35 -127.15 207.85 -131.15 L207.35 -131.65 208.35 -131.65 Q208.35 -132.15 210.85 -132.65 L211.35 -131.65 Q213.85 -130.15 216.35 -124.65 212.35 -121.65 206.85 -116.65 177.85 -92.15 167.35 -89.65 156.35 -87.15 143.85 -85.65 131.35 -84.65 124.85 -96.65 118.35 -109.15 118.35 -128.65 L117.35 -132.65 119.35 -147.15 119.85 -147.15 119.85 -146.65 M98.85 -129.15 L98.85 -127.15 Q98.85 -113.65 92.85 -101.65 86.85 -89.65 63.85 -88.65 40.85 -87.65 21.85 -100.15 2.35 -112.65 0.35 -114.65 -1.65 -117.15 2.85 -120.65 6.85 -124.65 6.85 -126.15 L6.85 -126.65 Q6.85 -127.15 8.35 -127.15 12.35 -124.15 16.35 -124.15 20.35 -124.15 26.85 -128.15 L32.85 -132.15 34.85 -132.65 Q57.35 -119.65 71.85 -119.15 85.85 -119.15 91.85 -128.65 97.85 -138.65 97.85 -147.15 97.85 -148.15 98.85 -147.65 100.35 -145.15 100.35 -138.15 100.35 -133.15 98.85 -129.15 M170.35 95.35 Q166.85 104.35 163.85 114.85 159.85 128.85 152.85 156.35 L151.35 168.35 149.85 159.35 149.85 158.35 Q148.35 144.85 146.85 138.85 146.35 137.85 145.35 129.35 144.85 123.35 141.35 120.85 144.35 116.85 151.85 109.35 159.85 101.85 163.35 97.35 L178.35 76.85 Q178.35 76.35 179.85 74.85 180.85 72.85 184.85 67.85 188.85 62.35 199.85 45.35 L225.35 1.85 Q213.35 28.85 202.85 62.35 196.85 81.35 185.85 119.35 L185.35 119.35 185.35 120.85 Q184.35 125.85 183.35 132.85 L182.85 132.85 Q180.85 138.85 178.85 146.85 179.35 146.35 181.35 139.35 183.35 132.35 179.85 145.35 176.35 158.35 176.35 162.35 176.35 165.85 176.85 167.35 180.35 167.85 184.35 170.35 189.35 173.85 190.35 176.85 L190.35 177.35 Q191.85 179.35 192.85 181.85 L191.35 183.85 Q187.35 178.85 183.85 176.35 177.35 172.85 163.35 174.85 162.85 174.35 162.85 173.35 162.85 172.35 167.85 167.35 172.35 161.85 172.35 155.35 L177.35 136.85 Q180.85 123.35 182.35 118.35 L183.35 113.85 Q183.85 107.35 183.85 102.35 183.85 90.35 176.85 90.35 173.85 90.35 170.85 94.35 170.35 94.85 170.35 95.35 M122.85 49.35 L121.35 49.85 Q114.35 44.85 104.35 44.85 96.85 44.85 95.85 45.85 L92.35 49.85 90.35 49.85 Q94.35 40.85 103.85 38.35 114.35 36.35 122.85 46.35 L122.85 49.35 M1.85 29.35 Q1.85 29.85 2.35 29.85 3.85 33.35 6.85 38.85 L19.35 60.85 Q24.35 69.85 29.35 77.85 35.35 87.85 42.35 96.35 48.35 103.35 55.85 108.35 65.35 114.85 67.85 123.35 65.35 126.35 61.85 134.35 58.35 142.35 48.35 160.85 L48.35 158.35 Q47.85 147.35 45.85 125.85 43.35 103.85 32.85 93.35 21.85 82.35 25.35 104.85 28.35 127.35 29.35 140.35 30.35 159.35 41.85 170.35 L9.35 184.35 Q8.35 182.35 8.85 179.35 8.85 176.35 15.35 172.85 21.35 169.35 26.35 164.35 L26.35 160.85 Q25.85 147.35 24.85 137.85 L22.85 126.35 Q21.35 116.35 18.35 107.85 15.35 99.85 13.35 91.85 L9.35 75.35 Q7.35 68.85 5.85 62.85 3.85 54.35 2.35 45.85 1.35 37.35 -3.15 29.35 -8.15 20.85 -11.15 12.85 -12.65 7.85 -13.65 6.85 L-12.15 5.35 Q-5.15 17.35 -3.15 21.85 -1.65 25.85 1.85 29.35 M151.35 146.35 L151.35 147.75 Q151.35 146.85 151.85 146.35 L151.35 146.35" fill="#000000" fill-opacity="0.49803922" fill-rule="evenodd" stroke="none"/>
  </g>
</svg>
