<?xml version="1.0" encoding="UTF-8" standalone="no"?>
<svg xmlns:ffdec="https://www.free-decompiler.com/flash" xmlns:xlink="http://www.w3.org/1999/xlink" ffdec:objectType="shape" height="388.55px" width="274.0px" xmlns="http://www.w3.org/2000/svg">
  <g transform="matrix(1.0, 0.0, 0.0, 1.0, -3.85, 207.2)">
    <path d="M141.85 -165.15 Q140.85 -170.15 122.85 -167.65 103.85 -165.65 103.85 -167.15 103.35 -169.15 102.85 -173.15 105.85 -181.15 112.85 -184.65 120.35 -191.65 143.85 -198.15 171.35 -205.65 195.85 -207.15 213.35 -208.15 229.85 -191.65 245.85 -176.15 245.85 -163.15 242.85 -148.15 230.85 -147.15 240.85 -142.15 242.35 -141.15 259.85 -131.65 263.85 -125.65 274.35 -106.15 275.35 -103.65 277.85 -98.15 277.85 -86.65 L277.85 -82.15 277.85 -81.15 277.85 -79.15 276.85 -75.65 Q275.35 -70.65 271.35 -64.65 265.85 -55.15 264.85 -55.15 255.85 -55.15 217.85 -74.65 181.35 -93.15 173.85 -100.65 168.35 -105.65 156.35 -124.65 142.85 -146.15 142.85 -153.15 142.85 -160.15 141.85 -165.15 M98.85 89.85 Q100.35 92.35 102.35 94.85 108.85 105.35 111.35 110.35 116.85 121.85 116.85 132.35 116.85 153.85 88.35 153.85 72.35 153.85 57.35 138.35 44.35 124.85 44.35 116.35 44.35 115.85 46.35 114.85 L46.85 114.35 50.35 114.85 Q63.85 114.85 64.35 105.85 L64.85 104.35 68.85 104.35 Q76.35 104.35 80.35 95.85 83.35 89.85 83.35 85.35 83.35 83.35 82.85 82.35 87.35 78.85 96.85 86.85 L98.85 89.85" fill="#e58508" fill-rule="evenodd" stroke="none"/>
    <path d="M184.35 51.35 Q221.35 35.85 237.85 4.35 231.85 38.85 197.85 52.85 191.35 55.35 184.85 56.35 L184.35 51.35 M102.35 94.85 Q100.35 92.35 98.85 89.85 102.85 85.85 127.35 79.35 129.35 79.85 129.35 82.35 129.35 84.35 105.35 96.85 103.85 96.85 102.35 94.85 M82.85 82.35 Q83.35 83.35 83.35 85.35 83.35 89.85 80.35 95.85 76.35 104.35 68.85 104.35 L64.85 104.35 64.35 105.85 Q63.85 114.85 50.35 114.85 L46.85 114.35 46.35 114.85 Q37.35 113.85 35.85 110.35 34.35 106.35 37.85 103.35 41.35 100.35 53.85 93.85 L53.35 91.85 Q61.85 82.35 70.35 80.35 78.35 78.35 80.35 79.85 L82.85 82.35 M73.35 93.35 Q70.85 94.85 70.35 95.85 L70.35 100.35 73.85 101.35 Q74.85 101.35 76.85 99.35 78.85 97.35 78.85 95.35 78.85 93.35 76.35 92.35 75.35 92.35 73.35 93.35 M61.35 107.85 Q61.35 106.35 60.85 105.85 L59.85 105.85 Q56.85 104.85 54.35 106.85 50.85 108.35 51.35 111.85 52.85 113.35 55.85 113.35 61.35 113.35 61.35 107.85" fill="#ffffff" fill-rule="evenodd" stroke="none"/>
    <path d="M73.35 93.35 Q75.35 92.35 76.35 92.35 78.85 93.35 78.85 95.35 78.85 97.35 76.85 99.35 74.85 101.35 73.85 101.35 L70.35 100.35 70.35 95.85 Q70.85 94.85 73.35 93.35 M61.35 107.85 Q61.35 113.35 55.85 113.35 52.85 113.35 51.35 111.85 50.85 108.35 54.35 106.85 56.85 104.85 59.85 105.85 L60.85 105.85 Q61.35 106.35 61.35 107.85" fill="#000000" fill-rule="evenodd" stroke="none"/>
    <path d="M127.85 -168.15 Q118.35 -167.15 114.85 -166.15 111.85 -165.15 107.35 -165.15 104.85 -165.15 104.35 -171.65 L104.85 -172.65 Q104.85 -171.65 109.35 -170.65 L119.85 -169.15 143.85 -170.15 143.85 -169.65 Q144.35 -170.15 144.85 -170.15 L147.85 -169.65 150.35 -169.65 Q152.35 -171.65 154.85 -172.65 L156.35 -172.65 Q156.85 -173.15 156.85 -171.65 156.35 -171.15 156.35 -170.65 156.35 -158.65 164.35 -144.65 172.85 -130.15 187.85 -117.65 219.35 -91.15 251.85 -79.65 275.85 -70.65 275.85 -69.65 270.85 -58.65 267.35 -55.65 266.85 -53.65 263.35 -53.65 258.35 -53.65 248.85 -57.15 L249.85 -52.15 Q252.35 -42.15 252.35 -40.15 L252.35 -35.15 Q252.35 -34.65 252.85 -34.65 252.85 -33.65 251.35 -32.65 250.85 -32.15 249.85 -32.15 L247.85 -32.65 Q242.85 -32.65 222.85 -43.65 204.35 -53.65 197.35 -59.65 182.35 -71.15 167.85 -89.15 142.35 -119.65 142.35 -147.65 142.35 -149.15 142.85 -150.65 L142.35 -151.15 Q141.35 -157.15 142.35 -161.15 142.35 -166.65 134.35 -168.15 L127.85 -168.15 M176.35 -165.65 Q194.35 -161.65 246.35 -165.15 249.35 -157.15 242.85 -151.15 235.85 -144.65 228.85 -148.15 209.35 -153.15 190.35 -160.65 183.35 -162.65 176.35 -165.65 M249.35 -17.15 Q237.35 17.85 222.35 35.85 207.35 53.35 187.85 56.35 L186.35 56.35 185.35 56.85 183.35 88.35 Q183.35 94.35 180.85 115.35 L179.35 127.85 179.35 123.35 177.35 141.35 175.85 141.35 Q173.85 114.85 169.85 105.35 165.35 96.35 165.35 94.85 165.35 92.85 169.35 78.35 173.35 63.85 175.85 57.35 L178.85 45.85 Q178.35 44.35 178.35 43.35 L178.85 43.35 Q179.35 40.85 179.35 38.35 180.35 32.35 181.35 19.35 L181.85 19.35 Q182.85 22.35 182.85 30.35 182.85 35.35 182.35 40.85 L202.35 28.85 Q209.35 24.35 221.85 13.35 227.85 8.85 236.35 -2.65 244.85 -14.15 249.35 -17.15 M95.35 84.85 Q95.35 84.35 95.85 84.35 L93.85 83.35 Q108.35 79.35 116.85 75.85 123.35 72.85 128.35 71.35 L128.35 69.35 128.85 69.35 126.85 57.35 127.35 57.35 Q133.35 69.35 142.35 92.35 L143.85 93.85 Q148.35 100.35 148.35 102.35 L146.35 120.35 148.35 134.85 147.85 137.85 145.85 138.35 Q134.85 102.85 130.35 83.35 126.35 86.85 105.85 97.85 102.35 97.85 95.35 84.85 M14.85 8.35 Q19.85 14.35 30.35 8.85 22.85 13.35 21.35 14.85 13.85 21.35 3.85 24.35 L14.85 8.35 M31.85 128.85 Q30.85 130.85 30.85 138.35 30.85 156.85 43.35 168.35 37.85 173.35 11.35 181.35 12.85 180.35 14.85 179.85 L13.85 179.35 11.85 180.85 Q8.85 180.85 8.85 178.35 8.85 174.85 18.35 169.35 21.85 167.35 21.85 160.35 21.85 149.85 18.85 123.85 L18.85 119.85 18.35 119.85 18.35 118.35 Q28.85 115.85 37.85 115.85 L34.85 117.35 Q33.35 124.35 31.85 128.85" fill="#000000" fill-opacity="0.49803922" fill-rule="evenodd" stroke="none"/>
  </g>
</svg>
