<?xml version="1.0" encoding="UTF-8" standalone="no"?>
<svg xmlns:ffdec="https://www.free-decompiler.com/flash" xmlns:xlink="http://www.w3.org/1999/xlink" ffdec:objectType="shape" height="430.95px" width="220.5px" xmlns="http://www.w3.org/2000/svg">
  <g transform="matrix(1.0, 0.0, 0.0, 1.0, 112.5, 170.45)">
    <path d="M-58.5 -129.75 L-58.5 -131.0 -58.75 -131.25 -58.5 -137.0 -47.0 -139.5 Q-19.25 -188.25 7.25 -160.25 19.35 -152.75 63.75 -51.5 88.9 -11.35 99.25 21.5 126.75 120.25 60.0 173.75 L55.75 197.5 45.0 229.5 35.5 250.5 35.25 251.25 Q28.25 269.0 22.25 252.75 L16.0 231.5 6.5 188.0 6.25 188.0 5.25 181.0 Q-2.65 177.75 -9.4 172.95 -25.65 161.5 -40.75 148.5 L-39.25 148.0 Q-46.55 105.2 -56.1 62.75 -57.0 58.85 -57.3 54.95 -60.9 6.85 -56.25 -41.5 L-50.5 -42.25 -49.25 -45.25 Q-44.5 -52.5 -48.0 -78.0 -45.0 -79.85 -43.0 -82.75 L-41.25 -85.25 Q-53.8 -106.0 -58.5 -129.75" fill="#2e47aa" fill-rule="evenodd" stroke="none"/>
    <path d="M-82.5 123.75 Q-90.0 109.85 -95.9 95.4 -103.9 75.9 -101.85 54.95 -97.0 6.05 -84.75 -41.5 L-56.25 -41.5 Q-60.9 6.85 -57.3 54.95 -57.0 58.85 -56.1 62.75 -46.55 105.2 -39.25 148.0 L-40.75 148.5 Q-55.4 142.6 -68.8 134.7 -76.25 130.25 -82.5 123.75 M-66.0 -120.75 L-64.0 -124.75 -58.5 -129.75 Q-53.8 -106.0 -41.25 -85.25 L-43.0 -82.75 Q-45.0 -79.85 -48.0 -78.0 L-57.25 -82.25 Q-61.0 -84.25 -64.75 -93.75 L-62.25 -92.5 Q-60.75 -93.0 -60.25 -97.5 L-61.25 -103.0 Q-63.5 -105.75 -64.75 -103.75 L-65.5 -102.5 -67.5 -105.5 -68.25 -109.75 Q-64.0 -113.25 -66.0 -120.75" fill="#ffffff" fill-rule="evenodd" stroke="none"/>
    <path d="M6.25 188.0 Q-19.5 213.5 -49.5 221.75 -85.75 227.5 -106.25 173.75 -115.5 154.25 -103.75 134.5 -101.5 131.25 -96.5 129.0 L-82.5 123.75 Q-76.25 130.25 -68.8 134.7 -55.4 142.6 -40.75 148.5 -25.65 161.5 -9.4 172.95 -2.65 177.75 5.25 181.0 L6.25 188.0 M-84.75 -41.5 Q-98.8 -41.6 -108.1 -51.75 -109.15 -52.95 -109.5 -54.4 -111.25 -61.0 -111.8 -67.8 -113.0 -82.35 -102.95 -92.45 -88.7 -106.75 -68.5 -110.25 L-68.25 -109.75 -67.5 -105.5 -65.5 -102.5 -66.25 -100.5 -66.5 -97.25 -64.75 -93.75 Q-61.0 -84.25 -57.25 -82.25 L-48.0 -78.0 Q-44.5 -52.5 -49.25 -45.25 L-50.5 -42.25 -56.25 -41.5 -84.75 -41.5" fill="#e58508" fill-rule="evenodd" stroke="none"/>
    <path d="M-68.5 -110.25 Q-72.75 -116.5 -66.0 -120.75 -64.0 -113.25 -68.25 -109.75 L-68.5 -110.25 M-65.5 -102.5 L-64.75 -103.75 Q-63.5 -105.75 -61.25 -103.0 L-60.25 -97.5 Q-60.75 -93.0 -62.25 -92.5 L-64.75 -93.75 -66.5 -97.25 -66.25 -100.5 -65.5 -102.5" fill="#31333d" fill-rule="evenodd" stroke="none"/>
    <path d="M54.75 86.0 L55.5 88.75 57.0 115.75 56.75 131.0 Q48.5 126.75 54.75 86.0 M103.25 36.5 L100.5 26.5 102.0 29.5 103.25 36.5 M-109.5 154.5 L-110.25 153.5 -109.5 153.5 -109.5 154.5 M-108.75 158.5 Q-110.3 158.2 -109.0 156.75 L-108.75 158.5 M-14.5 43.0 Q-14.0 52.7 -13.25 53.75 -1.65 118.0 7.75 140.25 -1.0 141.75 3.5 169.25 L16.75 228.75 22.25 250.25 23.75 253.75 Q29.0 257.75 34.25 251.5 L44.5 224.0 Q60.9 182.7 61.0 148.25 62.5 148.75 62.25 156.25 82.95 139.15 94.0 115.0 107.25 92.0 106.5 53.0 111.15 64.45 101.25 116.5 86.0 160.5 60.75 173.25 59.6 188.3 35.5 251.25 30.75 260.25 29.0 260.5 18.5 255.75 6.75 188.0 -45.5 236.0 -75.75 217.0 -89.75 208.75 -101.75 186.25 -111.25 162.5 -108.75 159.0 -98.5 208.25 -59.5 217.0 -35.25 216.75 -7.0 193.5 -7.5 188.0 -36.0 171.5 L-41.5 166.0 -46.5 165.75 -74.75 151.25 -90.25 132.75 Q-94.15 128.4 -95.2 128.75 L-82.25 123.5 Q-93.0 121.25 -104.75 68.5 L-103.25 55.05 Q-102.85 72.4 -93.5 92.75 -79.75 120.15 -41.5 135.0 L-45.0 116.5 Q-21.0 147.0 -2.25 156.25 -15.15 54.5 -14.5 43.0 M-102.25 -47.75 L-93.25 -45.0 -77.25 -43.5 -71.5 -42.25 -49.75 -43.25 -55.75 -35.0 Q-68.5 -30.25 -79.5 -14.5 -84.05 -5.35 -96.0 25.0 -97.25 29.25 -98.25 29.25 -99.55 32.15 -100.5 35.2 -94.85 -1.95 -84.75 -41.0 -115.0 -42.0 -112.25 -74.5 -110.25 -51.5 -102.25 -47.75" fill="#000000" fill-opacity="0.49803922" fill-rule="evenodd" stroke="none"/>
  </g>
</svg>
