<?xml version="1.0" encoding="UTF-8" standalone="no"?>
<svg xmlns:ffdec="https://www.free-decompiler.com/flash" xmlns:xlink="http://www.w3.org/1999/xlink" ffdec:objectType="shape" height="395.55px" width="357.55px" xmlns="http://www.w3.org/2000/svg">
  <g transform="matrix(1.0, 0.0, 0.0, 1.0, 48.65, 213.7)">
    <path d="M229.35 -122.65 Q223.85 -144.15 193.85 -160.65 196.85 -188.65 218.35 -200.65 239.35 -213.15 245.35 -213.65 250.85 -214.15 251.35 -210.65 257.35 -205.15 265.85 -194.15 L280.35 -166.65 Q283.85 -158.15 289.35 -141.65 296.35 -118.65 296.35 -112.15 296.35 -104.65 282.85 -91.65 271.35 -81.15 257.85 -77.65 255.85 -87.15 252.85 -96.65 247.85 -110.15 236.35 -119.65 233.35 -121.65 229.35 -122.65 M259.35 -69.15 Q264.35 -70.15 270.35 -70.15 288.35 -67.15 304.35 -53.65 309.35 -38.65 306.35 -22.15 303.85 -9.15 300.35 3.35 296.85 17.85 291.85 31.35 287.85 41.35 281.85 49.85 271.85 63.85 256.85 61.85 241.85 59.85 226.35 45.35 219.85 39.85 215.85 38.35 222.85 33.85 228.35 27.35 239.85 13.85 248.35 -2.65 256.85 -19.15 258.85 -36.65 260.35 -48.65 259.85 -60.65 259.85 -65.15 259.35 -69.15 M33.85 35.35 Q32.85 32.35 32.35 28.35 32.85 27.35 32.85 25.85 32.85 23.35 31.85 22.35 32.35 18.35 33.35 14.35 L34.35 11.1 34.35 -2.15 Q34.35 -8.65 31.35 -11.65 38.35 -24.15 59.85 -24.15 76.85 -24.15 85.85 -10.65 87.85 -7.65 89.35 -4.15 94.35 6.85 94.35 19.35 94.35 28.35 90.85 38.35 L87.85 44.85 Q78.85 65.35 62.35 65.35 43.35 65.35 33.85 36.35 L33.85 35.35" fill="#e58508" fill-rule="evenodd" stroke="none"/>
    <path d="M257.85 -77.65 Q258.35 -73.65 259.35 -69.15 259.85 -65.15 259.85 -60.65 260.35 -48.65 258.85 -36.65 256.85 -19.15 248.35 -2.65 239.85 13.85 228.35 27.35 222.85 33.85 215.85 38.35 212.85 40.35 209.35 41.85 207.85 42.35 206.85 43.35 198.35 46.35 189.35 43.85 181.35 17.85 171.85 -6.65 160.35 -36.15 152.35 -65.65 150.35 -74.15 148.85 -82.65 158.35 -103.15 176.85 -113.15 194.85 -123.65 212.35 -124.15 222.35 -124.65 229.35 -122.65 233.35 -121.65 236.35 -119.65 247.85 -110.15 252.85 -96.65 255.85 -87.15 257.85 -77.65 M33.85 35.35 Q29.85 38.85 22.35 38.85 14.35 38.85 12.35 31.35 9.85 23.35 10.35 17.85 10.35 12.35 7.85 3.85 5.35 -5.15 8.35 -10.65 11.35 -16.15 19.35 -15.65 27.35 -15.65 31.35 -11.65 34.35 -8.65 34.35 -2.15 L34.35 11.1 33.35 14.35 Q32.35 18.35 31.85 22.35 26.85 21.85 25.85 22.85 25.35 23.35 25.35 26.35 L25.85 30.35 28.85 30.35 Q31.35 29.85 32.35 28.35 32.85 32.35 33.85 35.35 M85.85 -10.65 L84.85 -14.15 85.35 -14.15 85.35 -15.15 86.85 -15.15 Q92.35 -19.65 96.35 -22.15 106.35 -29.15 108.85 -28.65 115.85 -22.65 121.85 -15.65 129.85 -5.65 131.85 -3.65 165.85 35.35 172.35 50.85 166.85 56.35 133.85 56.35 129.85 56.35 111.85 50.35 96.35 44.85 89.85 41.85 90.35 41.35 91.35 40.85 90.35 40.35 90.85 38.35 94.35 28.35 94.35 19.35 94.35 6.85 89.35 -4.15 87.85 -7.65 85.85 -10.65 M28.35 1.85 L27.35 1.85 Q22.85 2.35 22.85 6.35 21.35 10.85 27.85 10.85 31.35 10.85 31.35 6.85 31.35 1.85 28.35 1.85" fill="#ffffff" fill-rule="evenodd" stroke="none"/>
    <path d="M32.35 28.35 Q31.35 29.85 28.85 30.35 L25.85 30.35 25.35 26.35 Q25.35 23.35 25.85 22.85 26.85 21.85 31.85 22.35 32.85 23.35 32.85 25.85 32.85 27.35 32.35 28.35 M28.35 1.85 Q31.35 1.85 31.35 6.85 31.35 10.85 27.85 10.85 21.35 10.85 22.85 6.35 22.85 2.35 27.35 1.85 L28.35 1.85" fill="#000000" fill-rule="evenodd" stroke="none"/>
    <path d="M295.35 -120.65 Q296.85 -112.15 296.85 -106.15 284.35 -89.65 267.85 -77.65 L260.85 -77.65 Q252.35 -108.15 226.85 -126.15 L227.35 -131.65 Q265.35 -114.65 277.35 -124.15 288.85 -134.15 291.35 -137.15 293.35 -129.65 295.35 -120.65 M305.35 -50.65 L306.35 -47.15 Q309.35 -41.65 308.85 -31.15 307.85 -21.15 302.85 -2.65 297.35 15.85 293.35 27.35 291.35 35.85 286.35 42.35 284.35 47.35 277.85 53.85 268.85 62.85 260.35 62.85 257.35 62.85 254.35 60.85 251.85 60.85 249.35 58.35 L248.85 58.35 246.35 57.85 246.35 55.85 245.85 55.35 Q271.85 35.85 285.35 3.35 292.85 -15.15 303.35 -49.65 L303.85 -47.65 303.85 -50.65 305.35 -50.65 M256.35 -10.65 Q256.35 -6.65 248.85 17.35 241.35 40.35 237.85 47.35 236.85 48.35 236.35 50.35 L223.85 42.35 220.35 39.35 Q208.85 47.35 195.85 47.35 189.35 47.35 187.85 43.35 L186.85 30.85 185.85 30.85 184.85 30.35 Q187.35 29.85 206.85 23.85 226.35 17.35 239.85 -3.15 252.85 -24.15 257.85 -31.15 L257.85 -29.15 256.35 -10.65 M191.35 30.35 L187.15 30.85 191.35 30.85 191.35 30.35 M170.85 52.85 L165.85 54.85 Q143.35 59.35 121.35 60.35 104.85 60.85 86.35 60.85 85.85 60.85 85.85 61.85 L85.35 61.85 Q77.85 84.35 65.85 105.85 L65.85 106.35 61.85 126.35 Q60.35 133.35 58.35 138.85 52.35 156.35 44.85 172.85 L53.85 113.35 45.85 111.35 40.35 104.35 36.35 118.85 Q32.85 132.85 30.85 147.35 30.35 152.35 31.35 157.35 32.35 163.85 37.85 168.35 36.85 169.35 35.35 169.35 30.85 171.35 24.85 175.35 16.85 181.35 5.85 181.85 4.35 176.35 13.85 172.85 24.35 167.85 24.85 163.35 L24.85 148.85 Q23.85 126.85 24.35 105.85 24.85 80.35 17.35 58.35 L4.85 56.85 Q-4.15 53.85 -13.15 51.35 -32.15 46.85 -46.65 33.85 -47.15 32.85 -48.65 31.35 -35.15 35.85 -20.65 38.35 7.35 45.35 33.85 40.85 34.85 40.35 35.35 40.85 48.85 56.85 69.35 53.35 82.35 50.35 86.35 39.35 89.85 30.35 93.85 22.35 L92.85 28.85 Q100.85 32.35 108.85 35.35 127.35 40.35 148.35 38.85 L125.35 -11.65 148.35 13.35 Q160.35 26.85 169.85 42.35 173.85 48.85 170.85 52.85" fill="#000000" fill-opacity="0.49803922" fill-rule="evenodd" stroke="none"/>
  </g>
</svg>
