<?xml version="1.0" encoding="UTF-8" standalone="no"?>
<svg xmlns:ffdec="https://www.free-decompiler.com/flash" xmlns:xlink="http://www.w3.org/1999/xlink" ffdec:objectType="shape" height="303.25px" width="325.5px" xmlns="http://www.w3.org/2000/svg">
  <g transform="matrix(1.0, 0.0, 0.0, 1.0, 3.15, 123.1)">
    <path d="M52.35 -77.15 Q58.35 -114.65 84.35 -122.15 98.35 -126.15 107.85 -113.15 118.35 -98.65 118.35 -68.65 L118.35 -67.65 117.85 -64.65 Q117.85 -64.15 117.35 -63.65 L117.85 -62.15 Q117.85 -59.65 116.35 -56.15 115.35 -50.15 104.35 -38.65 100.85 -34.65 96.85 -31.65 86.35 -23.15 74.85 -23.15 64.85 -23.15 59.35 -27.65 50.85 -29.65 50.85 -36.15 50.85 -37.15 51.35 -37.65 L50.35 -44.65 50.35 -45.15 50.35 -48.15 50.35 -51.15 50.35 -57.65 51.85 -58.65 51.85 -69.15 Q51.85 -74.65 52.35 -77.15 M289.35 -76.15 L301.35 -77.15 Q305.35 -77.15 307.85 -75.65 318.85 -86.65 321.35 -19.15 320.85 5.35 317.35 27.35 312.85 53.85 305.35 64.85 303.85 74.35 291.35 74.35 273.85 74.35 265.35 26.85 263.85 19.35 262.85 11.35 258.85 -19.65 258.35 -51.65 258.35 -66.65 273.35 -71.65 L273.85 -71.15 Q275.35 -72.15 277.85 -73.15 283.35 -75.15 289.35 -76.15 M251.35 36.85 L245.85 61.85 Q228.85 131.85 195.85 131.85 159.85 131.85 143.85 77.85 135.85 50.85 134.85 20.85 133.35 12.85 135.35 8.35 135.35 6.85 136.35 4.85 140.35 -6.65 170.85 -25.15 205.85 -46.15 225.35 -46.15 244.35 -46.15 246.85 -44.65 L250.35 -40.65 Q256.35 -37.15 256.35 -13.15 256.35 8.85 251.35 36.85" fill="#e58508" fill-rule="evenodd" stroke="none"/>
    <path d="M118.35 -67.65 Q122.85 -69.65 128.35 -70.15 147.35 -72.65 175.85 -85.15 203.85 -98.15 245.35 -96.65 275.35 -96.15 289.35 -76.15 283.35 -75.15 277.85 -73.15 275.35 -72.15 273.85 -71.15 L273.35 -71.65 Q258.35 -66.65 258.35 -51.65 258.85 -19.65 262.85 11.35 263.85 19.35 265.35 26.85 L262.35 28.85 Q256.85 33.35 251.35 36.85 256.35 8.85 256.35 -13.15 256.35 -37.15 250.35 -40.65 L246.85 -44.65 Q244.35 -46.15 225.35 -46.15 205.85 -46.15 170.85 -25.15 140.35 -6.65 136.35 4.85 117.35 -14.15 96.85 -31.65 100.85 -34.65 104.35 -38.65 115.35 -50.15 116.35 -56.15 117.85 -59.65 117.85 -62.15 L117.35 -63.65 Q117.85 -64.15 117.85 -64.65 L118.35 -67.65 M50.35 -45.15 L49.85 -45.15 Q39.85 -45.15 34.35 -57.15 34.35 -63.15 42.85 -70.65 47.35 -75.15 52.35 -77.15 51.85 -74.65 51.85 -69.15 49.35 -69.15 47.35 -63.15 45.35 -57.65 50.35 -57.65 L50.35 -51.15 50.35 -48.15 50.35 -45.15" fill="#ffffff" fill-rule="evenodd" stroke="none"/>
    <path d="M51.85 -69.15 L51.85 -58.65 50.35 -57.65 Q45.35 -57.65 47.35 -63.15 49.35 -69.15 51.85 -69.15" fill="#000000" fill-rule="evenodd" stroke="none"/>
    <path d="M58.35 -27.65 L58.85 -28.15 62.85 -25.15 Q64.85 -24.15 68.35 -24.15 82.85 -24.15 93.85 -30.65 99.85 -34.65 102.35 -38.65 108.85 -43.65 111.35 -48.15 114.85 -53.65 116.35 -52.15 117.85 -51.15 117.85 -47.65 117.85 -37.15 111.85 -29.65 103.85 -19.15 86.35 -18.65 73.85 -18.15 66.35 -20.65 59.35 -23.15 59.35 -26.15 59.35 -26.65 58.35 -27.65 M201.35 -17.15 L203.85 -18.65 Q206.85 -20.15 210.35 -22.15 226.35 -29.65 251.85 -35.15 251.35 -37.65 251.35 -40.15 251.35 -45.15 258.35 -49.65 L258.85 -49.15 Q258.85 -49.65 259.35 -49.65 258.85 -49.65 258.85 -47.65 L258.85 -47.15 Q258.85 -30.65 261.35 -9.65 263.85 4.35 265.85 13.35 267.35 10.85 271.85 6.85 278.35 1.35 283.85 -2.15 L281.35 -43.65 Q281.35 -69.15 289.85 -68.15 294.85 -71.65 311.85 -76.65 L314.35 -77.15 Q315.85 -71.15 315.35 -70.65 318.35 -62.65 320.35 -46.15 L321.85 -23.65 Q322.35 -17.15 322.35 -10.15 L321.85 -3.15 320.35 14.35 Q311.35 65.85 303.35 70.85 302.35 74.85 298.35 74.85 297.35 74.85 296.35 73.85 289.35 73.85 284.35 69.85 279.85 79.35 263.35 97.35 239.35 123.35 218.85 124.85 211.35 131.35 201.85 131.35 L200.35 131.35 Q199.35 131.35 200.35 131.85 L184.85 131.85 180.85 129.85 Q107.85 128.85 80.35 94.35 78.35 101.35 67.85 127.35 54.35 161.35 47.35 172.35 L46.35 174.35 44.85 174.85 44.35 171.85 Q50.85 130.85 50.85 110.85 50.85 94.35 53.85 61.35 53.85 57.85 54.35 55.35 55.85 56.35 57.35 57.85 69.85 70.85 77.85 77.85 90.35 88.85 101.85 95.85 124.35 109.85 146.85 109.85 L156.35 108.85 Q155.35 107.85 154.85 106.85 151.85 102.35 142.85 79.35 L142.85 74.35 Q143.85 73.85 145.35 74.35 L145.35 73.35 145.85 73.35 Q147.85 68.35 154.35 63.35 160.35 57.85 166.85 55.85 165.35 37.35 165.35 19.35 165.35 4.35 173.35 -1.65 178.85 -5.65 201.35 -17.15 M252.35 33.35 Q247.35 60.35 243.35 69.35 L241.35 80.85 Q246.85 74.85 254.35 67.35 260.85 59.85 267.85 54.85 263.85 47.35 259.85 31.35 257.35 22.35 255.35 12.85 254.35 21.85 252.35 33.35 M35.35 38.35 Q35.35 40.85 33.85 44.85 L33.85 45.85 Q32.35 66.35 32.35 76.85 31.35 103.85 30.85 129.85 L29.35 130.85 Q27.85 128.35 27.85 118.85 L27.85 110.35 Q27.85 108.85 27.35 107.85 L26.35 52.85 Q26.35 47.85 27.35 45.85 L-3.15 -1.15 -2.65 -1.15 Q8.35 8.35 17.35 16.85 35.35 33.35 35.35 38.35 M18.35 167.35 Q29.85 161.35 35.35 167.85 25.85 169.85 7.85 179.85 7.35 180.85 7.35 178.35 7.35 173.35 18.35 167.35" fill="#000000" fill-opacity="0.49803922" fill-rule="evenodd" stroke="none"/>
  </g>
</svg>
