<?xml version="1.0" encoding="UTF-8" standalone="no"?>
<svg xmlns:ffdec="https://www.free-decompiler.com/flash" xmlns:xlink="http://www.w3.org/1999/xlink" ffdec:objectType="shape" height="324.4px" width="252.45px" xmlns="http://www.w3.org/2000/svg">
  <g transform="matrix(1.0, 0.0, 0.0, 1.0, 19.65, 140.05)">
    <path d="M81.35 -67.65 Q85.85 -63.15 95.85 -61.65 114.35 -59.15 133.35 -63.15 139.85 -63.65 144.85 -67.15 168.35 -45.65 179.85 -28.65 L186.85 -17.65 Q176.85 -20.65 165.85 -22.65 153.35 -25.65 139.85 -27.15 131.35 -29.15 124.35 -24.65 115.35 -11.65 115.85 3.35 L116.85 30.85 117.85 54.85 109.35 55.35 95.85 54.35 97.85 39.85 Q100.35 24.35 101.35 8.35 102.35 -3.15 100.85 -14.15 100.35 -17.15 97.85 -21.15 92.35 -27.65 81.35 -26.65 L57.85 -23.65 Q43.85 -19.65 30.35 -15.15 31.35 -18.65 33.35 -22.15 43.35 -38.65 60.35 -50.15 71.85 -58.15 81.35 -67.65" fill="#ffffff" fill-rule="evenodd" stroke="none"/>
    <path d="M81.35 -67.65 Q73.85 -74.65 76.35 -87.65 78.85 -100.15 83.35 -112.65 87.35 -122.15 94.35 -130.65 105.35 -143.65 123.85 -138.65 L130.35 -136.15 133.85 -130.65 Q136.85 -125.15 139.35 -119.15 145.35 -103.65 150.35 -86.65 152.85 -78.65 147.35 -69.15 L144.85 -67.15 Q139.85 -63.65 133.35 -63.15 114.35 -59.15 95.85 -61.65 85.85 -63.15 81.35 -67.65 M186.85 -17.65 Q192.35 -16.65 197.35 -14.65 L211.85 -9.15 Q216.35 -6.15 220.35 -2.65 224.85 1.35 225.85 5.85 223.35 27.85 216.85 49.85 211.35 70.35 200.35 90.35 192.35 103.85 182.85 115.35 178.35 120.85 173.85 125.35 169.35 129.35 165.35 132.35 160.85 135.35 152.35 133.35 141.85 131.85 134.85 122.35 127.35 110.85 124.35 99.85 119.85 82.35 118.35 62.85 117.85 58.85 117.85 54.85 L116.85 30.85 115.85 3.35 Q115.35 -11.65 124.35 -24.65 131.35 -29.15 139.85 -27.15 153.35 -25.65 165.85 -22.65 176.85 -20.65 186.85 -17.65 M95.85 54.35 Q93.85 65.85 90.85 77.35 88.35 87.35 84.85 97.35 82.35 104.85 79.35 112.35 76.85 119.85 69.35 123.35 62.35 127.35 55.85 130.35 36.85 129.85 24.85 115.85 13.85 103.35 8.85 87.35 4.35 72.85 1.35 57.85 -1.65 42.85 -4.15 27.35 -7.15 12.35 0.35 -0.15 5.85 -3.65 11.85 -6.65 20.35 -11.15 29.35 -15.15 L30.35 -15.15 Q43.85 -19.65 57.85 -23.65 L81.35 -26.65 Q92.35 -27.65 97.85 -21.15 100.35 -17.15 100.85 -14.15 102.35 -3.15 101.35 8.35 100.35 24.35 97.85 39.85 L95.85 54.35" fill="#e58508" fill-rule="evenodd" stroke="none"/>
    <path d="M116.85 -61.15 Q139.35 -62.15 147.35 -69.15 137.85 -50.65 115.85 -53.65 89.35 -54.15 79.85 -67.15 77.35 -71.15 85.85 -65.65 93.85 -60.15 116.85 -61.15 M98.85 -8.65 Q102.85 18.35 98.35 45.85 95.35 62.85 90.35 79.35 L120.85 81.35 Q117.35 72.85 117.35 55.85 117.35 38.85 116.85 21.85 116.35 4.35 121.85 -9.15 138.35 -9.65 153.85 -6.65 168.85 -4.15 178.35 -0.65 L192.35 4.85 Q208.35 11.85 224.85 19.85 221.35 37.85 215.85 55.85 211.35 72.35 201.35 88.85 219.35 83.35 231.85 69.35 234.35 75.85 230.35 81.35 221.85 93.85 210.35 103.35 204.35 107.35 197.85 109.85 183.35 116.85 171.35 127.85 165.85 132.35 163.35 134.85 161.35 141.85 160.35 148.35 157.35 166.35 154.85 184.35 150.85 176.85 150.85 167.85 150.85 161.35 149.85 154.85 148.85 144.85 150.35 133.85 L143.35 129.35 70.85 123.35 59.35 128.85 41.35 180.85 Q38.85 169.35 40.35 157.35 42.35 143.35 42.85 129.85 31.85 125.85 25.35 116.35 22.35 110.85 16.85 106.85 13.35 104.35 10.85 101.85 0.35 93.35 -6.65 82.85 -13.15 72.85 -15.15 60.85 -17.15 46.35 -19.65 30.85 -17.65 34.85 -16.15 39.35 -14.15 46.35 -10.65 53.35 -4.15 65.85 4.35 77.85 L0.85 23.85 Q5.85 9.35 22.85 5.85 39.85 1.85 61.35 -4.15 82.35 -10.15 89.35 -8.65 95.85 -7.65 98.85 -8.65" fill="#000000" fill-opacity="0.49803922" fill-rule="evenodd" stroke="none"/>
  </g>
</svg>
