<?xml version="1.0" encoding="UTF-8" standalone="no"?>
<svg xmlns:ffdec="https://www.free-decompiler.com/flash" xmlns:xlink="http://www.w3.org/1999/xlink" ffdec:objectType="shape" height="359.25px" width="301.8px" xmlns="http://www.w3.org/2000/svg">
  <g transform="matrix(1.0, 0.0, 0.0, 1.0, 2.15, 174.65)">
    <path d="M235.45 -88.75 L235.1 -89.4 Q229.75 -100.1 226.6 -104.55 L216.55 -118.65 Q209.65 -128.35 201.65 -135.3 193.6 -142.25 173.95 -149.3 174.3 -153.65 188.55 -163.55 202.55 -173.35 208.95 -174.65 216.95 -173.6 222.2 -169.3 225.3 -166.75 228.1 -162.1 L232.55 -154.8 236.75 -147.85 Q239.5 -143.05 245.75 -133.55 251.0 -125.05 252.75 -119.4 L258.1 -107.25 Q263.25 -94.85 263.25 -91.4 263.25 -89.45 256.1 -83.05 250.2 -77.8 245.5 -76.3 241.4 -83.95 235.45 -88.75 M252.1 -60.55 L252.85 -60.7 Q258.1 -61.55 261.15 -63.05 266.1 -65.55 270.6 -64.85 274.8 -64.2 277.9 -60.9 282.15 -57.65 283.8 -53.55 285.0 -49.1 285.75 -47.05 288.15 -41.0 290.15 -33.5 292.25 -25.9 293.2 -19.65 298.95 24.15 298.95 34.55 L299.0 40.75 Q298.6 43.55 296.0 47.75 294.95 49.45 292.85 51.2 290.55 53.15 288.1 54.05 L281.2 56.3 Q275.95 57.8 274.4 57.8 269.9 57.8 261.0 52.6 253.95 48.5 252.75 46.55 256.2 42.9 258.3 37.85 269.75 10.35 263.05 -20.95 258.15 -43.6 252.1 -60.55 M94.15 71.1 L94.2 75.85 Q94.2 80.55 90.55 86.2 86.45 92.45 80.5 93.25 75.9 96.3 71.75 96.3 59.2 96.3 50.5 86.5 L47.4 82.6 46.65 81.45 45.9 80.25 45.1 78.9 Q42.45 74.2 40.25 68.2 34.15 51.5 33.65 34.35 L33.6 31.2 33.7 29.15 33.85 27.7 Q32.35 25.9 32.35 24.4 32.35 22.1 34.65 19.05 37.15 15.65 41.2 13.35 52.0 7.3 65.8 12.75 74.15 16.95 79.3 23.1 L79.5 23.3 Q83.1 27.6 85.8 33.95 90.35 44.45 92.35 54.95 93.8 62.55 94.15 71.1 M174.1 -147.85 L174.0 -148.4 Q175.0 -147.65 174.65 -147.5 L174.1 -147.85" fill="#e58508" fill-rule="evenodd" stroke="none"/>
    <path d="M79.3 23.1 Q81.0 21.85 82.95 20.7 109.35 5.3 129.0 -17.7 L130.5 -19.75 Q132.35 -1.6 132.35 9.7 L132.4 15.35 Q133.1 20.8 136.15 20.8 139.1 20.8 147.3 7.95 155.05 -4.25 163.9 -22.15 173.15 -40.9 178.95 -56.7 185.55 -74.5 185.55 -82.85 L185.55 -83.95 Q203.45 -98.75 218.1 -96.3 228.15 -94.65 235.45 -88.75 241.4 -83.95 245.5 -76.3 L247.3 -72.6 252.1 -60.55 Q258.15 -43.6 263.05 -20.95 269.75 10.35 258.3 37.85 256.2 42.9 252.75 46.55 247.85 51.7 240.15 54.2 207.4 64.75 173.35 68.0 139.25 71.25 117.0 71.7 103.35 71.95 94.15 71.1 93.8 62.55 92.35 54.95 90.35 44.45 85.8 33.95 83.1 27.6 79.5 23.3 L79.3 23.1 M45.1 78.9 Q44.4 81.25 28.45 78.4 12.5 75.5 11.5 71.15 10.5 66.75 11.4 63.55 L12.3 60.2 9.4 56.1 Q6.45 51.8 6.45 50.1 6.45 43.8 19.15 36.1 26.7 31.55 33.7 29.15 L33.6 31.2 33.65 34.35 Q34.15 51.5 40.25 68.2 42.45 74.2 45.1 78.9 M23.35 55.9 Q24.35 57.45 26.65 57.45 33.25 57.45 33.25 52.2 33.25 47.85 28.05 49.2 22.8 50.55 22.8 53.95 22.8 55.0 23.35 55.9 M38.15 72.0 Q38.15 66.45 32.4 67.6 30.2 68.05 28.4 69.3 26.6 70.6 26.6 71.75 26.6 72.9 27.4 73.85 28.95 75.6 32.7 75.6 35.6 75.6 36.8 74.9 38.15 74.1 38.15 72.0" fill="#ffffff" fill-rule="evenodd" stroke="none"/>
    <path d="M38.15 72.0 Q38.15 74.1 36.8 74.9 35.6 75.6 32.7 75.6 28.95 75.6 27.4 73.85 26.6 72.9 26.6 71.75 26.6 70.6 28.4 69.3 30.2 68.05 32.4 67.6 38.15 66.45 38.15 72.0 M23.35 55.9 Q22.8 55.0 22.8 53.95 22.8 50.55 28.05 49.2 33.25 47.85 33.25 52.2 33.25 57.45 26.65 57.45 24.35 57.45 23.35 55.9" fill="#000000" fill-rule="evenodd" stroke="none"/>
    <path d="M120.45 -43.55 Q121.65 -44.45 125.05 -47.9 128.3 -50.85 130.25 -50.8 L130.2 -48.1 129.9 -45.3 Q129.9 -44.4 130.6 -39.85 L131.25 -34.45 Q131.25 -31.8 125.1 -29.85 L114.6 -27.0 109.4 -26.0 104.3 -25.1 90.7 -21.95 89.05 -22.2 Q88.8 -22.3 88.25 -22.8 91.8 -25.45 98.35 -29.35 L110.25 -36.75 115.85 -40.35 120.45 -43.55 M182.5 -67.0 Q175.1 -7.8 163.65 16.2 152.15 40.15 149.6 38.25 147.05 36.35 143.55 25.5 140.05 14.6 157.25 -9.9 171.85 -35.7 181.55 -63.7 L182.5 -67.0 M265.65 -9.6 Q269.05 2.0 271.6 15.05 L274.6 31.55 Q276.6 38.15 282.35 38.15 287.0 38.15 292.1 36.15 L297.55 33.95 Q299.65 34.45 299.65 36.65 299.65 47.05 290.0 53.4 282.25 58.5 274.05 58.5 272.15 58.5 267.2 56.15 L260.1 52.2 253.45 47.85 Q252.7 47.3 252.3 46.5 242.45 59.8 225.95 66.5 198.6 77.5 166.15 82.1 132.85 86.75 99.85 93.3 L84.75 93.75 84.4 92.3 Q101.15 67.35 86.85 37.95 102.6 52.55 107.65 73.7 174.9 76.7 228.25 39.55 238.05 32.7 243.9 22.4 260.6 -7.05 258.55 -40.25 264.1 -24.15 265.55 -9.5 L265.65 -9.6 M292.3 41.05 L292.5 41.45 292.5 40.95 292.3 41.05 M8.9 88.7 L10.4 88.4 10.65 88.35 10.85 88.2 10.95 88.5 12.75 89.05 21.75 89.6 25.1 89.95 29.55 89.85 24.9 93.5 Q17.0 98.45 11.65 106.95 5.8 116.25 5.3 125.5 L6.8 138.85 Q3.75 137.3 2.35 131.15 L1.65 126.75 0.55 124.15 Q-2.15 117.15 -2.15 115.15 -2.15 109.2 1.5 99.9 5.0 90.85 8.95 88.9 L8.9 88.7 M10.2 91.55 L10.25 91.55 10.2 91.5 10.2 91.55 M38.35 91.3 L38.65 90.35 38.15 89.05 Q53.75 87.5 67.0 96.85 55.9 105.45 46.95 121.25 L46.65 164.2 30.15 119.5 Q40.3 109.45 39.0 95.4 L38.35 91.3 M8.05 132.2 L8.2 132.45 8.1 132.6 8.05 132.2 M24.55 173.05 Q24.55 174.05 18.45 179.4 12.5 184.6 11.9 184.6 L10.15 184.25 9.6 183.95 Q9.45 183.8 9.45 182.7 9.45 181.2 10.3 179.7 10.15 179.25 10.15 178.4 10.15 174.35 18.85 171.65 27.25 169.0 33.4 170.45 28.7 171.5 26.3 172.35 L24.55 173.05" fill="#000000" fill-opacity="0.49803922" fill-rule="evenodd" stroke="none"/>
  </g>
</svg>
