<?xml version="1.0" encoding="UTF-8" standalone="no"?>
<svg xmlns:ffdec="https://www.free-decompiler.com/flash" xmlns:xlink="http://www.w3.org/1999/xlink" ffdec:objectType="shape" height="254.7px" width="336.05px" xmlns="http://www.w3.org/2000/svg">
  <g transform="matrix(1.0, 0.0, 0.0, 1.0, 11.2, 67.0)">
    <path d="M52.1 -46.5 L55.0 -49.7 Q71.6 -66.9 86.4 -67.0 101.15 -67.1 105.3 -54.25 109.2 -42.1 108.3 -29.35 L108.2 -28.0 Q106.5 -8.55 96.85 8.3 93.9 13.4 90.6 17.1 75.55 33.7 52.25 22.1 38.25 15.2 36.0 1.2 L35.85 0.05 35.55 -3.5 35.55 -3.7 35.55 -4.05 36.0 -7.95 Q37.5 -19.05 41.3 -28.35 L41.3 -28.45 41.5 -28.9 Q43.7 -34.35 46.7 -39.1 49.15 -43.05 52.1 -46.5 M280.45 15.6 L284.4 12.4 Q289.1 8.75 293.25 6.25 L296.4 4.65 299.05 3.35 Q304.8 0.8 305.9 1.05 307.1 1.3 313.05 3.85 317.55 4.4 320.2 6.3 322.3 7.8 322.3 9.2 L322.25 9.7 Q324.05 11.6 324.6 16.45 325.05 20.05 324.7 23.7 L324.3 30.8 323.4 41.25 Q322.65 48.9 319.75 58.05 L314.1 75.05 Q309.9 87.05 308.25 92.15 303.8 105.85 291.25 126.35 281.55 142.5 278.3 147.05 272.45 155.35 268.35 157.85 268.2 158.9 267.45 159.45 266.3 160.35 263.45 160.35 250.3 160.35 247.05 150.75 245.9 147.3 245.8 142.0 L245.95 133.65 246.1 127.2 239.3 137.25 Q233.3 145.85 228.0 152.45 213.65 170.55 209.65 174.2 202.05 181.05 192.45 181.05 L192.4 181.1 Q192.0 182.15 190.75 182.15 187.7 182.15 182.85 177.0 179.0 172.95 176.55 168.7 174.9 165.8 173.6 161.9 L171.7 155.1 Q170.3 149.6 169.8 142.0 169.5 137.1 169.5 128.55 169.5 115.6 169.85 112.65 170.1 110.45 170.65 107.75 171.8 102.3 174.35 94.65 180.15 76.85 181.25 74.4 182.75 71.0 184.4 68.6 186.3 64.4 197.85 57.8 208.5 51.75 219.85 47.35 249.35 35.95 250.25 35.7 261.05 32.2 263.1 35.0 264.75 35.15 266.1 36.15 266.8 32.85 268.3 29.6 271.35 22.9 277.2 18.2 L280.45 15.6" fill="#e58508" fill-rule="evenodd" stroke="none"/>
    <path d="M36.0 1.2 L34.75 0.2 30.5 -4.05 Q25.45 -9.2 24.2 -11.85 L20.2 -20.05 Q18.6 -24.0 18.6 -27.95 L19.0 -31.45 Q19.45 -34.1 19.9 -34.9 21.8 -37.9 23.8 -38.6 L26.25 -38.8 Q26.1 -39.7 26.25 -40.7 26.25 -43.7 28.05 -45.0 31.4 -47.35 41.55 -47.05 L41.7 -47.05 41.55 -46.2 Q41.55 -43.15 44.85 -43.15 47.75 -43.15 49.0 -43.8 50.35 -44.5 50.35 -46.1 L50.25 -46.7 52.1 -46.5 Q49.15 -43.05 46.7 -39.1 43.7 -34.35 41.5 -28.9 L41.8 -31.1 Q41.8 -34.5 37.25 -34.5 34.45 -34.5 33.4 -33.8 32.3 -33.1 32.3 -31.2 32.3 -26.15 36.15 -26.15 39.35 -26.15 40.7 -27.6 L41.3 -28.35 Q37.5 -19.05 36.0 -7.95 L35.55 -4.05 35.55 -3.7 35.55 -3.5 35.85 0.05 36.0 1.2 M108.3 -29.35 Q113.25 -29.55 118.1 -29.15 139.95 -26.55 161.9 -26.45 196.15 -26.35 228.95 -17.75 261.75 -9.1 280.45 15.6 L277.2 18.2 Q271.35 22.9 268.3 29.6 266.8 32.85 266.1 36.15 264.75 35.15 263.1 35.0 261.05 32.2 250.25 35.7 249.35 35.95 219.85 47.35 208.5 51.75 197.85 57.8 186.3 64.4 184.4 68.6 182.75 71.0 181.25 74.4 180.15 76.85 174.35 94.65 171.8 102.3 170.65 107.75 159.3 99.75 151.15 88.55 123.65 50.5 90.75 17.15 L90.6 17.1 Q93.9 13.4 96.85 8.3 106.5 -8.55 108.2 -28.0 L108.3 -29.35" fill="#ffffff" fill-rule="evenodd" stroke="none"/>
    <path d="M41.7 -47.05 Q42.25 -49.05 45.95 -48.65 49.65 -48.25 50.25 -46.7 L50.35 -46.1 Q50.35 -44.5 49.0 -43.8 47.75 -43.15 44.85 -43.15 41.55 -43.15 41.55 -46.2 L41.7 -47.05 M41.3 -28.35 L40.7 -27.6 Q39.35 -26.15 36.15 -26.15 32.3 -26.15 32.3 -31.2 32.3 -33.1 33.4 -33.8 34.45 -34.5 37.25 -34.5 41.8 -34.5 41.8 -31.1 L41.5 -28.9 41.3 -28.45 41.3 -28.35" fill="#000000" fill-rule="evenodd" stroke="none"/>
    <path d="M324.1 15.05 Q325.35 24.0 324.4 33.05 L323.95 36.8 Q321.95 49.45 318.4 61.8 311.85 84.7 301.25 106.15 290.35 128.2 276.95 148.85 274.1 153.2 270.65 156.95 269.45 158.3 267.95 159.3 263.05 162.55 258.15 159.35 L257.2 159.95 Q255.95 162.1 253.75 163.5 245.75 168.65 236.75 172.25 L222.1 178.5 Q209.05 184.1 194.85 185.5 193.6 185.7 192.5 186.25 189.65 187.7 186.6 186.55 183.05 187.65 179.35 187.6 161.8 188.35 145.1 183.7 L127.75 178.5 Q123.4 177.1 118.05 174.65 107.65 170.0 99.45 162.2 96.6 159.4 93.5 156.8 86.35 150.7 80.45 143.6 L76.8 139.05 68.75 129.0 57.7 115.8 Q53.85 118.0 50.7 121.2 L49.1 122.65 Q46.45 124.55 43.4 126.05 36.2 129.6 28.65 131.95 L30.3 134.2 Q33.7 139.0 35.95 144.35 39.3 152.3 41.2 160.55 43.15 169.0 44.65 177.8 45.25 178.2 45.5 179.1 45.95 180.6 46.05 182.05 L46.0 185.2 Q45.1 185.95 43.65 186.05 L37.5 186.3 Q27.55 186.5 17.9 185.85 L17.95 183.85 Q21.3 182.25 25.1 182.0 29.05 181.45 30.75 178.15 30.3 175.8 29.45 173.6 25.15 162.55 19.7 152.15 L17.35 147.2 Q12.4 135.3 3.95 125.4 -1.0 119.65 -7.35 115.35 L-7.3 114.7 -11.2 114.25 Q-4.25 113.8 2.3 111.8 14.9 107.8 26.6 101.25 30.45 99.1 34.1 96.5 37.3 94.15 41.0 92.45 43.3 91.5 45.6 92.5 51.25 95.2 55.05 100.1 L57.95 103.2 Q70.65 114.35 84.85 123.3 L101.3 133.7 Q114.85 142.25 129.85 147.6 135.5 149.5 141.35 150.65 148.15 151.95 155.15 152.65 L158.2 153.25 166.65 153.7 Q169.25 153.2 170.85 154.8 L172.4 156.75 Q174.8 160.8 176.5 165.15 180.35 174.95 188.45 181.5 L192.1 180.25 Q188.75 173.25 188.35 165.4 187.15 141.4 190.8 117.65 191.95 110.3 193.85 103.2 195.95 95.2 198.35 87.4 199.95 82.25 204.05 79.1 210.7 74.05 218.25 69.95 228.6 64.45 239.75 60.7 L250.45 57.15 272.6 49.4 Q274.05 48.8 275.45 48.8 277.7 55.65 277.6 58.15 277.1 69.9 273.3 81.2 L277.1 70.75 283.65 52.25 Q286.8 43.5 289.05 39.3 291.25 35.05 299.1 28.0 306.9 20.9 314.0 15.2 L321.55 9.1 Q322.05 8.7 322.9 10.55 323.75 12.4 324.1 15.05 M98.15 55.4 Q82.55 54.05 69.7 44.9 56.75 35.7 49.95 21.1 78.2 15.05 102.1 -1.5 L100.1 7.0 Q120.4 17.05 123.35 38.8 118.95 56.5 98.15 55.4" fill="#000000" fill-opacity="0.49803922" fill-rule="evenodd" stroke="none"/>
  </g>
</svg>
