<?xml version="1.0" encoding="UTF-8" standalone="no"?>
<svg xmlns:ffdec="https://www.free-decompiler.com/flash" xmlns:xlink="http://www.w3.org/1999/xlink" ffdec:objectType="shape" height="271.4px" width="253.9px" xmlns="http://www.w3.org/2000/svg">
  <g transform="matrix(1.0, 0.0, 0.0, 1.0, 23.95, 65.95)">
    <path d="M135.4 -45.45 Q133.7 -48.35 131.8 -50.7 L131.8 -50.75 Q124.65 -59.65 114.45 -61.8 L114.35 -61.8 112.75 -62.1 107.65 -62.5 106.4 -62.45 95.25 -60.25 95.0 -60.25 Q86.2 -56.95 79.15 -48.65 L75.95 -44.5 75.85 -46.75 Q75.85 -48.6 77.7 -54.1 79.55 -59.6 85.15 -62.7 90.7 -65.85 100.75 -65.85 102.0 -65.85 102.65 -65.35 L105.1 -65.3 Q107.95 -66.6 116.95 -65.25 L123.4 -64.3 Q129.5 -63.45 132.4 -59.45 L133.6 -57.95 133.7 -57.7 Q137.0 -48.6 135.4 -45.45 M74.55 -7.4 L75.95 -6.75 Q79.85 -3.95 84.2 -2.85 89.65 -1.55 104.85 -0.8 L81.4 0.0 Q76.8 -1.35 73.95 -1.15 L73.1 -1.2 73.0 -2.1 Q73.0 -5.2 74.55 -7.4 M118.85 -0.95 Q124.6 -1.9 131.7 -4.5 134.65 -5.55 136.85 -6.6 137.3 -3.35 134.5 -2.15 131.95 -1.1 118.85 -0.95 M109.05 144.35 Q100.15 144.65 91.5 144.4 94.4 123.85 96.3 99.85 98.0 78.3 98.0 67.0 98.0 54.5 92.7 51.05 L92.75 50.95 Q91.15 48.5 89.4 47.8 87.1 46.8 81.25 46.75 73.0 45.8 58.1 49.0 45.55 51.6 31.9 56.35 L33.05 54.2 Q35.0 51.2 57.4 44.45 61.7 42.35 73.2 37.8 81.8 34.35 86.35 33.15 L89.05 32.55 90.65 32.5 94.5 32.75 Q102.75 33.55 114.95 36.9 126.85 40.1 135.35 43.75 138.1 44.95 147.8 47.75 L148.25 48.0 Q135.0 45.6 126.15 47.15 111.55 49.75 111.8 62.9 108.95 74.55 108.6 84.8 108.45 87.25 108.05 103.25 107.65 120.1 107.75 123.6 L108.3 135.8 Q108.6 140.2 109.05 144.35 M52.0 48.3 L52.15 48.6 52.5 48.05 52.0 48.3" fill="#ffffff" fill-rule="evenodd" stroke="none"/>
    <path d="M75.95 -44.5 L79.15 -48.65 Q86.2 -56.95 95.0 -60.25 L95.25 -60.25 106.4 -62.45 107.65 -62.5 112.75 -62.1 114.35 -61.8 114.45 -61.8 Q124.65 -59.65 131.8 -50.75 L131.8 -50.7 Q133.7 -48.35 135.4 -45.45 L137.3 -41.9 Q140.7 -35.0 142.55 -26.7 143.9 -20.75 143.9 -17.65 143.9 -15.65 143.25 -13.5 L143.3 -12.75 Q143.3 -9.75 136.85 -6.6 134.65 -5.55 131.7 -4.5 124.6 -1.9 118.85 -0.95 L113.4 -0.5 113.15 -0.5 104.85 -0.8 Q89.65 -1.55 84.2 -2.85 79.85 -3.95 75.95 -6.75 L74.55 -7.4 Q71.65 -8.85 69.7 -10.6 68.0 -12.1 67.55 -13.25 67.05 -14.05 66.7 -15.25 66.05 -17.35 66.05 -18.8 66.05 -23.2 68.45 -29.95 71.25 -37.85 75.95 -44.5 M148.25 48.0 Q153.25 48.9 158.9 50.35 176.25 54.85 191.9 62.4 204.2 68.3 206.55 71.6 209.25 72.5 210.4 75.65 211.15 77.85 211.3 82.8 211.5 90.3 204.0 115.25 L195.35 142.4 Q190.8 158.2 172.55 179.25 154.25 200.4 144.95 200.4 L144.2 200.4 Q142.5 201.45 140.75 201.45 120.2 201.45 111.9 162.55 110.1 154.05 109.05 144.35 108.6 140.2 108.3 135.8 L107.75 123.6 Q107.65 120.1 108.05 103.25 108.45 87.25 108.6 84.8 108.95 74.55 111.8 62.9 111.55 49.75 126.15 47.15 135.0 45.6 148.25 48.0 M91.5 144.4 L91.3 145.7 Q87.35 173.05 82.85 186.2 L83.0 186.9 Q83.0 189.4 80.35 192.2 76.7 199.35 72.75 197.85 66.95 200.65 59.5 200.65 28.8 200.65 8.8 146.15 2.1 127.8 -2.25 106.4 -5.6 89.7 -5.6 83.5 -5.6 80.5 -4.95 78.25 L-4.6 77.2 -4.6 76.8 Q-4.6 73.35 5.55 67.65 15.05 62.4 29.65 57.15 L31.9 56.35 Q45.55 51.6 58.1 49.0 73.0 45.8 81.25 46.75 87.1 46.8 89.4 47.8 91.15 48.5 92.75 50.95 L92.7 51.05 Q98.0 54.5 98.0 67.0 98.0 78.3 96.3 99.85 94.4 123.85 91.5 144.4" fill="#e58508" fill-rule="evenodd" stroke="none"/>
    <path d="M67.35 -9.3 Q67.35 -9.95 67.85 -11.1 L68.45 -12.3 72.75 -8.05 Q76.45 -7.2 75.95 -6.75 95.5 1.15 107.7 -0.7 L107.45 -0.55 107.35 0.0 99.35 0.6 90.2 0.2 Q76.3 2.15 70.6 -2.6 67.35 -5.3 67.35 -9.3 M71.8 -5.9 L71.5 -4.45 Q71.45 -3.6 74.6 -3.4 L74.75 -3.4 Q71.85 -4.55 71.85 -5.4 L71.8 -5.9 M144.1 -9.1 L144.35 -8.1 Q144.35 -4.65 140.45 -2.8 135.25 -0.3 123.05 -0.3 L121.7 -0.5 121.5 -0.7 121.7 -0.75 131.4 -4.05 Q140.25 -7.1 143.85 -9.0 L144.1 -9.1 M199.75 66.45 Q193.45 63.15 186.7 60.7 181.3 57.65 175.4 55.8 173.4 55.05 172.95 53.7 L150.15 48.1 149.75 48.6 Q140.2 45.95 130.45 47.05 127.75 47.45 125.15 48.2 L119.85 48.65 Q114.5 47.5 109.55 45.2 99.9 40.85 90.3 37.1 82.0 42.05 73.4 46.05 71.0 47.25 68.3 47.35 L68.1 47.25 68.35 47.15 Q47.4 50.6 27.8 58.55 12.45 64.8 -2.3 72.0 -6.2 77.65 -6.5 84.5 -8.0 86.45 -8.7 88.85 -11.25 97.1 -13.0 105.55 -13.35 107.3 -13.15 109.15 -12.35 116.4 -10.05 123.2 -8.05 129.05 -2.85 131.8 -1.55 132.5 -0.65 133.6 1.4 136.1 4.5 135.75 L4.45 133.0 3.7 132.3 Q1.15 123.3 -1.1 114.4 -3.65 104.25 -4.55 94.05 L-4.75 89.35 -2.7 89.15 0.55 86.9 Q10.0 81.15 19.85 76.45 L23.1 75.45 Q36.95 71.25 43.85 69.5 L73.35 64.7 89.65 62.0 94.9 63.25 Q95.95 63.55 97.75 65.6 L98.35 66.25 Q98.7 79.0 97.3 91.85 L94.35 118.05 Q94.05 120.45 94.7 122.35 98.7 124.3 102.85 122.9 104.1 122.55 104.9 121.6 109.25 116.5 108.35 109.65 107.4 102.45 108.25 94.8 108.9 89.05 109.05 83.2 109.3 74.75 111.35 66.8 L111.95 65.0 112.7 64.55 Q116.7 62.15 122.2 62.15 137.55 62.15 155.1 66.15 160.65 67.35 175.55 71.75 L203.0 80.95 Q207.9 83.3 209.55 87.05 211.15 90.75 210.2 92.75 L209.0 98.45 Q207.25 105.75 205.25 112.1 203.25 118.45 200.3 129.2 L198.8 134.35 199.25 134.35 204.65 134.2 Q208.75 131.75 211.0 127.35 216.7 116.3 217.55 104.2 218.55 90.5 210.8 79.5 211.2 78.15 210.95 76.75 210.75 75.5 209.85 74.5 205.55 69.5 199.75 66.45 M205.4 36.4 L205.5 37.3 206.2 38.15 Q206.7 43.35 203.3 47.1 L203.9 47.75 207.1 51.15 Q214.65 60.15 220.75 70.35 223.9 75.5 225.75 81.35 227.8 87.95 229.05 94.65 230.25 101.3 229.85 108.15 229.45 115.5 228.3 122.8 227.1 130.6 225.4 138.4 224.45 142.7 221.4 145.75 217.4 156.25 210.7 165.4 L208.85 167.85 Q206.9 170.5 204.15 172.6 191.2 182.5 175.9 188.45 L175.5 189.1 173.7 190.95 Q171.75 192.5 169.55 193.4 159.9 197.5 149.75 199.7 134.65 203.0 119.35 204.0 L104.65 204.75 93.35 205.4 Q69.55 205.95 46.6 200.65 29.55 196.85 15.8 185.75 L13.45 185.3 Q7.0 182.65 2.35 177.45 -3.75 170.65 -8.6 163.15 -14.25 154.5 -17.55 144.85 -18.55 142.05 -19.7 139.35 -21.15 135.9 -22.0 132.25 -24.6 121.35 -23.75 110.15 -23.5 107.0 -22.8 103.9 -19.75 90.9 -16.3 78.1 -13.05 66.0 -5.0 56.45 -9.05 52.55 -11.05 47.25 -12.95 42.3 -10.15 37.65 L-9.8 35.5 Q-7.85 37.0 -5.5 37.9 5.95 42.4 18.2 41.1 L35.9 38.2 Q76.65 29.75 117.0 20.05 L103.8 27.1 Q114.6 27.5 125.4 29.55 134.1 31.15 142.7 33.2 L162.95 37.7 181.5 42.2 Q187.35 43.55 193.25 42.3 200.05 40.9 205.4 36.4 M88.7 0.15 L90.05 0.15 88.75 0.0 88.7 0.15" fill="#000000" fill-opacity="0.49803922" fill-rule="evenodd" stroke="none"/>
  </g>
</svg>
