<?xml version="1.0" encoding="UTF-8" standalone="no"?>
<svg xmlns:ffdec="https://www.free-decompiler.com/flash" xmlns:xlink="http://www.w3.org/1999/xlink" ffdec:objectType="shape" height="239.85px" width="331.55px" xmlns="http://www.w3.org/2000/svg">
  <g transform="matrix(1.0, 0.0, 0.0, 1.0, 44.75, 39.35)">
    <path d="M0.45 23.0 Q2.15 20.65 4.15 18.65 9.65 13.3 16.35 9.55 34.3 -0.65 59.6 -6.2 L60.4 -5.5 Q77.95 9.25 95.7 20.1 99.35 22.3 102.8 24.85 108.55 29.1 113.65 33.7 119.45 39.1 124.75 45.1 L124.35 45.95 Q125.5 69.95 128.05 82.2 L130.9 96.95 Q131.2 99.45 130.15 100.6 126.05 105.0 120.8 108.2 113.4 112.65 105.5 116.2 L98.5 119.1 94.35 120.6 96.7 113.5 Q101.0 100.35 101.0 98.1 101.25 94.45 100.8 91.2 L100.25 88.55 100.55 87.25 Q100.55 83.35 87.75 71.8 L72.25 58.55 Q58.8 49.25 52.3 45.25 L48.7 43.2 46.8 41.85 Q41.55 38.4 36.3 37.85 35.45 37.05 31.4 36.95 26.05 36.85 20.05 38.2 11.2 40.15 7.1 43.65 6.7 42.7 5.45 45.3 L5.4 45.4 3.75 35.85 3.75 35.7 Q3.5 29.55 1.75 25.5 L0.45 23.0 M184.4 -28.55 Q185.05 -30.85 186.85 -33.6 190.55 -39.35 196.0 -39.35 201.25 -39.35 209.5 -34.75 215.65 -31.35 216.8 -29.75 223.75 -27.65 228.6 -21.55 234.3 -14.3 234.3 -6.25 234.3 -4.0 231.3 1.25 229.2 4.9 226.8 6.65 226.3 4.85 225.5 3.35 224.95 1.95 223.7 0.65 221.2 -2.0 215.8 -4.2 206.2 -8.15 202.5 -11.85 200.75 -13.3 196.0 -20.75 L194.95 -22.25 195.25 -22.55 195.25 -22.6 194.15 -23.35 Q195.6 -24.6 195.6 -26.0 195.6 -29.4 191.2 -29.9 187.1 -30.35 186.8 -27.75 L186.75 -27.75 186.65 -27.8 186.15 -28.0 184.4 -28.55 M193.05 39.65 L193.1 40.0 192.85 40.3 192.85 40.35 Q192.85 41.2 192.05 41.6 190.7 44.25 185.55 50.2 L182.15 54.05 176.25 42.75 172.4 34.75 172.8 34.75 Q184.2 38.25 193.05 39.65 M203.1 -16.4 L204.0 -14.15 Q205.35 -12.05 207.75 -12.05 209.95 -12.05 211.5 -14.3 212.75 -16.15 212.75 -17.65 212.75 -19.95 211.25 -21.2 209.9 -22.3 207.95 -22.1 203.1 -21.6 203.1 -16.4" fill="#ffffff" fill-rule="evenodd" stroke="none"/>
    <path d="M94.35 120.6 L93.5 123.05 85.05 146.5 83.25 150.8 Q70.2 179.0 61.2 188.65 52.7 197.75 40.35 199.1 37.4 200.5 34.5 200.5 15.9 200.5 8.35 173.6 6.05 165.35 4.55 153.3 L2.8 140.25 Q2.5 139.15 2.15 135.45 L1.75 139.8 Q0.55 148.9 -1.75 157.0 L-2.4 159.3 Q-4.25 160.4 -7.6 161.7 -14.45 164.3 -19.25 164.3 -33.25 164.3 -40.4 104.25 -43.95 74.2 -44.75 43.4 L-44.6 35.6 Q-44.15 31.05 -42.25 28.3 L-42.2 29.25 Q-40.45 26.5 -37.1 24.0 -28.85 17.75 -15.75 17.75 L-14.35 17.8 Q-4.55 16.1 0.0 22.3 L0.05 22.3 0.4 22.9 0.45 23.0 1.75 25.5 Q3.5 29.55 3.75 35.7 L3.75 35.85 5.4 45.4 5.45 45.3 Q6.7 42.7 7.1 43.65 11.2 40.15 20.05 38.2 26.05 36.85 31.4 36.95 35.45 37.05 36.3 37.85 41.55 38.4 46.8 41.85 L48.7 43.2 52.3 45.25 Q58.8 49.25 72.25 58.55 L87.75 71.8 Q100.55 83.35 100.55 87.25 L100.25 88.55 100.8 91.2 Q101.25 94.45 101.0 98.1 101.0 100.35 96.7 113.5 L94.35 120.6 M172.4 34.75 L172.0 34.85 Q169.65 30.9 162.8 21.65 L152.5 7.75 143.2 -3.7 134.45 -14.0 Q133.0 -14.25 133.0 -15.0 133.0 -16.7 136.25 -19.55 139.55 -22.4 144.5 -24.95 156.9 -31.35 166.5 -29.75 L175.0 -29.75 Q180.75 -29.5 184.4 -28.55 L186.15 -28.0 186.65 -27.8 186.75 -27.75 186.8 -27.75 186.95 -27.65 187.3 -27.5 189.4 -26.45 190.05 -26.1 190.1 -26.1 192.8 -24.4 192.95 -24.25 193.6 -23.8 194.15 -23.35 195.25 -22.6 195.25 -22.55 194.95 -22.25 196.0 -20.75 Q200.75 -13.3 202.5 -11.85 206.2 -8.15 215.8 -4.2 221.2 -2.0 223.7 0.65 224.95 1.95 225.5 3.35 226.3 4.85 226.8 6.65 229.25 14.8 222.6 31.4 217.65 43.6 193.05 39.65 184.2 38.25 172.8 34.75 L172.4 34.75 M-1.35 79.0 L-1.1 79.05 -1.05 78.15 -1.35 79.0 M-0.25 157.2 L-0.6 157.9 Q0.1 155.95 -0.25 157.2" fill="#e58508" fill-rule="evenodd" stroke="none"/>
    <path d="M186.8 -27.75 Q187.1 -30.35 191.2 -29.9 195.6 -29.4 195.6 -26.0 195.6 -24.6 194.15 -23.35 L193.6 -23.8 192.95 -24.25 192.8 -24.4 190.1 -26.1 190.05 -26.1 189.4 -26.45 187.3 -27.5 186.95 -27.65 186.8 -27.75 M203.1 -16.4 Q203.1 -21.6 207.95 -22.1 209.9 -22.3 211.25 -21.2 212.75 -19.95 212.75 -17.65 212.75 -16.15 211.5 -14.3 209.95 -12.05 207.75 -12.05 205.35 -12.05 204.0 -14.15 L203.1 -16.4" fill="#000000" fill-rule="evenodd" stroke="none"/>
    <path d="M58.75 -6.55 L59.15 -6.3 59.75 -6.3 59.95 -6.05 60.7 -6.0 61.35 -5.8 61.5 -5.6 61.6 -4.85 Q72.75 1.75 87.7 12.8 102.15 23.55 107.45 28.8 111.65 31.65 114.85 34.5 115.25 35.1 114.0 35.1 L100.9 27.7 Q86.8 19.6 81.5 17.25 71.0 12.65 63.75 7.4 56.6 2.15 51.85 -4.3 52.4 -4.65 55.6 -5.5 L58.95 -6.3 58.75 -6.55 M55.45 -2.3 L55.2 -2.3 55.65 -1.8 55.45 -2.3 M286.8 45.15 Q280.15 68.8 270.0 91.1 260.05 112.95 243.5 130.65 226.95 148.3 205.9 160.35 185.4 172.25 162.5 178.35 140.7 184.0 118.25 186.05 92.45 188.9 70.95 176.65 64.05 186.45 54.15 193.3 44.45 200.0 32.75 200.25 22.9 200.5 17.35 192.9 12.1 185.7 10.1 177.1 5.4 156.5 2.15 135.45 2.2 148.65 -4.8 159.15 -6.4 161.55 -9.65 163.05 -19.4 167.3 -26.95 160.05 -31.55 155.65 -33.2 149.3 -38.75 128.4 -41.55 107.0 -45.1 79.6 -44.55 51.95 -44.35 43.3 -44.75 34.85 -36.8 24.8 -23.65 25.95 -13.4 26.6 -8.95 35.9 -1.85 50.65 -0.35 67.0 -0.95 56.75 5.75 49.65 10.35 44.75 17.1 48.05 33.45 56.3 48.95 65.75 61.3 73.3 70.05 84.9 77.2 94.25 76.45 106.25 74.8 133.35 65.3 158.9 62.8 165.65 69.45 168.8 L72.15 169.7 Q80.55 158.2 86.05 144.95 88.35 139.3 89.7 133.2 L90.4 133.2 90.75 132.6 91.25 133.8 Q105.1 143.0 121.7 145.05 L149.4 146.5 Q140.0 141.5 134.2 132.5 125.9 119.6 126.25 103.65 126.5 93.85 127.55 84.0 L128.6 83.35 128.2 84.2 Q131.35 101.55 140.4 116.8 146.6 127.25 157.25 132.4 165.9 136.7 175.7 135.15 193.85 131.95 211.7 122.75 229.55 113.55 247.2 100.95 264.8 88.35 273.15 69.5 281.5 50.65 286.8 45.15 M210.15 41.8 L210.2 41.75 210.1 41.75 210.15 41.8 M210.4 39.2 L214.75 38.6 215.6 38.85 215.75 38.65 215.85 39.4 Q215.85 40.4 213.5 41.1 211.9 44.45 201.5 48.5 L194.25 51.05 Q193.4 51.7 191.5 52.4 187.7 53.75 182.75 53.75 179.4 53.75 175.8 45.1 172.75 37.9 172.75 35.55 L172.85 35.0 172.85 34.5 187.95 37.35 Q199.5 39.75 206.05 39.75 L210.4 39.2 M230.7 112.9 L230.45 112.9 230.55 113.1 230.7 112.9 M60.15 2.4 L60.25 2.25 59.9 2.25 60.15 2.4" fill="#000000" fill-opacity="0.49803922" fill-rule="evenodd" stroke="none"/>
  </g>
</svg>
