<?xml version="1.0" encoding="UTF-8" standalone="no"?>
<svg xmlns:ffdec="https://www.free-decompiler.com/flash" xmlns:xlink="http://www.w3.org/1999/xlink" ffdec:objectType="shape" height="217.65px" width="354.3px" xmlns="http://www.w3.org/2000/svg">
  <g transform="matrix(1.0, 0.0, 0.0, 1.0, 69.5, 28.25)">
    <path d="M-7.0 42.65 Q-10.15 49.85 -11.1 53.3 -12.2 57.25 -13.3 64.85 L-15.2 76.15 -15.2 76.3 -15.15 76.4 -15.2 76.5 Q-15.05 85.75 -13.95 93.95 -12.3 105.85 -8.85 113.05 -6.6 117.85 1.8 132.55 5.4 138.9 11.35 145.95 L16.5 151.8 4.0 150.0 Q-3.55 146.9 -10.75 142.15 -16.8 138.15 -20.1 134.8 -26.35 128.3 -32.75 119.2 -39.5 109.25 -43.0 104.5 -49.2 96.1 -58.6 76.25 -69.5 53.2 -69.5 43.75 L-68.85 40.25 -68.25 36.75 -68.3 35.55 Q-60.8 25.75 -49.0 15.6 -36.7 5.0 -24.5 -1.9 -11.0 -9.55 -1.25 -10.5 L-1.1 -10.25 -1.0 -9.95 Q5.75 -10.4 10.0 -10.2 14.2 -10.05 16.4 -9.05 17.2 -10.35 19.8 -6.85 L21.3 -4.7 Q16.65 -0.6 12.7 4.35 7.85 10.4 4.1 17.3 L-5.0 34.3 Q-6.85 37.85 -8.4 41.55 L-7.0 42.65 M25.8 -8.3 L25.3 -11.8 Q25.3 -19.05 33.3 -23.25 42.95 -28.25 63.5 -28.25 L74.25 -27.65 80.55 -27.3 80.7 -27.3 74.95 -26.5 60.9 -23.45 Q51.4 -21.4 42.5 -17.75 33.75 -14.15 26.0 -8.45 L25.8 -8.3 M146.9 12.6 L145.85 10.65 Q143.2 4.55 144.5 -3.45 145.75 -11.5 152.85 -17.8 162.5 -26.3 182.0 -25.75 L181.0 -25.75 Q192.2 -24.2 196.75 -22.6 194.85 -20.75 193.1 -18.2 L192.25 -18.3 Q189.9 -18.3 188.25 -15.3 186.85 -12.85 186.85 -10.8 186.85 -9.75 187.1 -9.3 187.35 -8.85 187.85 -8.6 186.35 -4.95 186.35 -2.65 186.25 0.55 187.1 3.6 L187.5 4.9 185.95 7.6 Q178.9 19.85 170.5 33.35 L170.5 33.4 170.85 33.75 Q170.65 34.2 170.25 33.45 L169.95 33.15 Q168.35 31.65 159.15 24.7 150.2 17.95 146.9 12.6" fill="#e58508" fill-rule="evenodd" stroke="none"/>
    <path d="M21.3 -4.7 Q23.5 -6.6 25.8 -8.3 L26.0 -8.45 Q33.75 -14.15 42.5 -17.75 51.4 -21.4 60.9 -23.45 L74.95 -26.5 80.7 -27.3 Q85.05 -27.75 89.55 -27.5 L98.5 -26.8 107.0 -26.15 Q112.8 -25.55 118.8 -23.55 124.75 -21.6 127.9 -21.35 L131.05 -21.0 130.9 -20.7 134.25 -19.8 Q133.1 -19.35 131.7 -19.25 L124.8 -17.9 Q109.05 -14.1 93.7 -8.25 85.2 -4.95 77.3 -0.45 64.45 6.75 54.1 17.4 50.15 21.55 46.75 26.1 45.55 27.7 44.4 29.75 L41.65 34.6 40.1 37.4 Q37.1 43.35 35.5 49.85 34.75 52.9 34.4 56.05 33.5 63.9 35.0 71.6 32.6 71.65 26.75 69.35 20.85 67.05 13.2 61.25 L1.35 51.95 Q-2.5 48.8 -4.5 46.1 -5.7 43.9 -7.0 42.65 L-8.4 41.55 Q-6.85 37.85 -5.0 34.3 L4.1 17.3 Q7.85 10.4 12.7 4.35 16.65 -0.6 21.3 -4.7 M196.75 -22.6 L196.95 -22.85 Q201.45 -27.35 204.2 -25.5 207.5 -23.3 207.5 -12.15 207.5 -6.1 205.4 -0.25 201.75 9.75 193.5 9.75 189.3 9.75 187.5 4.9 L187.1 3.6 Q186.25 0.55 186.35 -2.65 186.35 -4.95 187.85 -8.6 L189.35 -8.3 Q191.85 -8.3 193.6 -11.75 194.85 -14.2 194.85 -15.4 L194.75 -17.0 Q194.35 -18.0 193.1 -18.2 194.85 -20.75 196.75 -22.6 M169.95 33.15 L169.85 33.25 Q166.0 39.65 159.0 47.85 L147.85 47.2 127.9 45.4 Q118.3 45.4 109.0 43.3 L108.7 43.6 112.3 38.05 Q118.3 28.3 127.9 14.0 L146.9 12.6 Q150.2 17.95 159.15 24.7 168.35 31.65 169.95 33.15" fill="#ffffff" fill-rule="evenodd" stroke="none"/>
    <path d="M193.1 -18.2 Q194.35 -18.0 194.75 -17.0 L194.85 -15.4 Q194.85 -14.2 193.6 -11.75 191.85 -8.3 189.35 -8.3 L187.85 -8.6 Q187.35 -8.85 187.1 -9.3 186.85 -9.75 186.85 -10.8 186.85 -12.85 188.25 -15.3 189.9 -18.3 192.25 -18.3 L193.1 -18.2" fill="#000000" fill-rule="evenodd" stroke="none"/>
    <path d="M170.15 33.2 L169.85 33.6 Q169.45 35.55 167.2 39.5 164.0 45.15 161.0 45.15 152.85 45.15 147.7 32.5 146.05 28.55 144.9 23.8 L144.1 19.8 Q144.1 19.25 144.95 17.95 L132.0 18.0 131.0 20.9 Q129.45 26.95 125.35 34.7 119.95 44.75 116.25 44.75 114.25 44.75 113.05 44.05 L112.3 44.1 Q108.95 44.1 108.05 43.15 107.8 42.85 107.8 42.0 107.8 41.55 112.85 34.6 118.4 27.0 119.6 24.45 121.65 20.45 126.05 16.15 127.2 15.0 128.15 14.4 125.0 12.85 143.05 13.0 L147.4 13.0 Q151.5 16.6 151.65 17.15 151.8 17.55 151.0 17.65 154.05 20.4 159.55 24.5 L168.6 31.7 168.6 31.65 169.6 31.9 169.8 31.8 169.95 32.75 169.95 33.0 170.15 33.2 M220.05 131.0 Q245.85 118.85 271.4 99.25 279.85 92.75 284.8 87.35 278.4 104.85 268.65 120.75 259.15 136.25 244.55 146.65 217.55 165.8 185.4 175.0 L149.45 185.35 Q130.45 190.8 111.55 188.95 L118.15 188.5 Q81.0 189.95 47.45 175.05 28.3 166.6 14.7 151.3 -3.35 150.9 -16.25 138.1 -32.95 121.6 -46.25 102.1 -49.6 97.25 -51.15 91.6 L-50.45 91.45 -50.9 90.5 Q-41.55 95.8 -36.75 96.0 -32.0 96.15 -29.9 94.05 -27.8 91.9 -12.7 81.7 0.7 111.45 29.2 102.9 L32.0 100.9 Q34.3 99.1 36.45 96.1 L36.6 95.9 38.15 98.9 Q43.45 108.5 63.75 127.35 83.95 146.15 129.55 149.8 132.15 151.7 163.2 147.45 194.2 143.15 220.05 131.0 M38.1 93.45 L38.05 93.25 38.45 93.65 38.95 93.25 38.8 94.0 38.1 93.45 M35.15 101.1 L34.85 100.8 34.5 101.25 35.15 101.1 M-0.15 101.15 L0.1 100.75 -0.35 100.75 -0.15 101.15" fill="#000000" fill-opacity="0.49803922" fill-rule="evenodd" stroke="none"/>
  </g>
</svg>
