<?xml version="1.0" encoding="UTF-8" standalone="no"?>
<svg xmlns:ffdec="https://www.free-decompiler.com/flash" xmlns:xlink="http://www.w3.org/1999/xlink" ffdec:objectType="shape" height="238.75px" width="268.95px" xmlns="http://www.w3.org/2000/svg">
  <g transform="matrix(1.0, 0.0, 0.0, 1.0, 28.3, 29.85)">
    <path d="M5.85 -13.15 Q8.65 -14.8 18.5 -19.1 24.9 -22.4 31.0 -24.85 43.2 -29.85 49.75 -29.85 L53.55 -29.5 Q54.45 -29.25 54.9 -28.6 L55.75 -27.75 55.8 -26.8 Q55.8 -26.1 52.75 -21.15 49.25 -15.55 48.3 -13.1 L46.55 -6.75 Q45.55 -3.35 43.8 -1.05 L43.8 -1.0 Q43.8 0.7 29.95 6.9 12.45 14.65 10.5 15.8 L9.55 15.55 Q9.25 16.25 9.25 15.0 L9.35 14.5 Q6.05 10.45 4.0 5.05 1.75 -0.75 1.75 -5.75 1.75 -10.75 5.85 -13.15 M165.15 -26.65 Q174.9 -27.7 192.9 -19.65 201.1 -16.0 206.4 -12.2 212.05 -8.1 212.05 -5.4 L212.0 -4.55 211.95 -4.35 212.65 -3.0 Q213.25 -1.45 213.25 0.0 212.4 4.75 211.05 9.3 208.35 18.3 206.0 18.3 204.45 18.3 204.1 17.15 L204.1 17.0 Q201.9 16.65 187.0 8.0 176.65 1.95 172.75 -0.1 171.3 -2.3 171.3 -2.6 L171.35 -3.0 Q169.25 -7.6 166.75 -15.4 163.75 -24.8 163.75 -26.35 L163.8 -27.05 164.0 -27.1 165.15 -26.65" fill="#e58508" fill-rule="evenodd" stroke="none"/>
    <path d="M182.95 23.45 L182.85 23.4 182.85 23.65 182.95 23.45 M201.15 31.1 L199.75 37.1 Q198.3 43.05 198.3 48.15 198.3 52.9 198.45 54.35 198.85 57.95 200.45 60.6 L200.2 61.5 Q200.65 61.9 199.3 61.9 196.7 61.9 191.55 53.2 188.15 47.55 184.25 39.25 183.4 37.5 180.85 28.0 178.7 20.1 178.3 17.55 L182.25 20.2 Q194.25 27.8 198.5 29.6 201.15 30.75 201.15 31.1 M229.75 72.6 Q243.0 96.55 240.15 124.3 237.3 152.15 219.55 173.3 201.95 194.2 175.6 201.7 151.75 208.5 126.7 208.85 101.1 209.25 75.65 205.75 48.5 202.15 24.1 190.0 -0.9 177.6 -15.8 154.2 -31.0 130.35 -27.75 102.55 -26.45 91.55 -22.0 80.9 L-21.2 80.9 Q-25.2 129.3 2.35 149.8 29.9 170.25 78.45 174.6 127.0 178.95 157.25 174.4 187.5 169.85 198.6 160.05 209.7 150.25 215.45 142.45 221.2 134.65 226.5 120.15 231.75 105.65 230.5 93.35 229.25 81.05 228.9 72.0 L229.75 72.6 M35.2 21.65 L35.2 21.5 35.15 21.55 35.2 21.65 M37.85 16.7 Q38.05 16.9 38.05 17.8 38.05 23.7 18.45 57.85 L17.65 57.2 Q17.35 56.75 17.35 55.8 17.35 55.15 17.9 52.15 L18.45 48.45 Q18.45 42.25 17.15 35.95 15.85 29.6 15.85 28.7 17.95 28.1 21.65 26.3 29.15 22.75 37.1 16.5 L37.85 16.7" fill="#000000" fill-opacity="0.49803922" fill-rule="evenodd" stroke="none"/>
  </g>
</svg>
