<?xml version="1.0" encoding="UTF-8" standalone="no"?>
<svg xmlns:ffdec="https://www.free-decompiler.com/flash" xmlns:xlink="http://www.w3.org/1999/xlink" ffdec:objectType="shape" height="380.55px" width="375.55px" xmlns="http://www.w3.org/2000/svg">
  <g transform="matrix(1.0, 0.0, 0.0, 1.0, 201.3, 190.75)">
    <path d="M62.25 -100.5 L85.0 -83.25 118.75 -53.5 150.5 -22.0 150.5 -21.75 153.75 -18.5 161.25 -5.5 161.5 -0.5 165.75 14.5 167.25 28.5 171.75 83.75 174.25 136.25 173.5 150.5 Q173.25 154.25 166.0 151.75 L161.0 138.5 160.75 138.0 154.0 114.0 144.5 73.5 134.0 15.5 133.0 6.75 105.75 -13.0 Q117.0 7.75 115.25 48.25 102.0 95.5 71.5 110.75 46.75 148.75 -18.25 152.25 L-45.5 146.0 -47.5 145.0 -48.25 144.75 -56.25 140.75 -57.0 140.5 -60.0 139.0 -67.0 134.0 -67.75 133.75 -76.0 131.75 -95.5 123.25 -96.25 123.0 -97.75 122.25 Q-141.75 106.5 -142.75 19.25 L-168.75 52.25 -167.0 59.75 -167.0 60.0 -166.0 63.75 -165.75 64.0 -165.75 64.75 -154.25 107.0 -145.75 147.0 -141.5 172.75 -140.25 186.75 Q-142.5 192.0 -148.0 188.25 L-149.25 186.5 -149.5 186.0 -150.0 185.25 -150.25 184.75 -150.75 184.0 -151.0 183.5 -151.5 182.75 -151.75 182.25 -152.25 181.5 -154.0 178.0 -154.25 177.75 -154.75 176.5 -154.75 176.25 -163.5 157.0 -180.0 115.5 -194.5 75.25 -195.0 71.75 -195.0 71.0 -195.25 70.75 -197.75 56.0 -200.5 51.75 Q-201.75 50.0 -201.0 47.0 L-201.0 46.75 -200.75 45.75 -200.5 45.5 -198.5 37.25 -198.5 36.5 -198.25 36.25 -198.25 35.5 -198.0 34.75 -198.0 34.5 -197.75 34.25 -197.75 33.5 -196.75 31.0 -190.25 18.75 -190.25 18.5 -190.0 18.25 -189.5 17.25 -189.0 16.5 -189.0 16.25 -178.5 -3.5 -152.25 -45.25 -134.0 -69.5 -120.75 -82.5 Q-94.75 -163.5 -53.75 -190.75 -17.25 -188.5 50.25 -106.75 L62.25 -100.5" fill="#2e47aa" fill-rule="evenodd" stroke="none"/>
  </g>
</svg>
