<?xml version="1.0" encoding="UTF-8" standalone="no"?>
<svg xmlns:ffdec="https://www.free-decompiler.com/flash" xmlns:xlink="http://www.w3.org/1999/xlink" ffdec:objectType="shape" height="374.05px" width="394.25px" xmlns="http://www.w3.org/2000/svg">
  <g transform="matrix(1.0, 0.0, 0.0, 1.0, 202.0, 192.0)">
    <path d="M69.75 -100.75 L94.25 -84.75 130.5 -57.0 131.25 -56.25 132.0 -55.75 132.5 -55.0 133.0 -54.75 133.25 -54.75 147.25 -42.5 147.75 -42.25 164.0 -28.0 167.5 -24.5 168.75 -23.0 169.0 -22.5 172.75 -17.0 173.0 -16.5 176.25 -11.75 177.25 -9.75 176.75 -6.25 181.75 11.0 187.0 59.75 190.5 99.5 192.25 131.0 191.75 145.25 Q188.0 150.0 184.25 146.75 L179.0 134.0 179.0 133.5 178.75 133.0 172.5 112.75 161.5 70.5 148.25 2.0 105.25 -25.5 Q146.25 63.0 72.0 113.25 19.5 179.75 -68.0 131.25 -154.75 100.0 -138.5 9.25 L-169.25 43.25 -168.25 49.75 -168.25 50.0 -168.0 51.0 -167.75 51.5 -167.75 52.25 -167.5 53.25 -167.25 53.75 -167.25 54.5 -157.0 99.5 -150.75 136.25 -147.0 166.0 -146.5 179.25 Q-148.75 184.25 -154.25 180.25 L-154.75 179.75 -157.0 175.5 -157.5 174.75 -160.0 169.25 -160.25 169.0 -160.5 168.25 -160.5 168.0 -168.0 149.5 -182.25 109.0 -193.25 74.25 -196.5 61.5 -196.5 60.5 -196.75 59.75 -198.75 45.75 -198.75 45.5 -201.0 42.0 Q-202.75 38.0 -201.5 36.5 L-201.5 36.25 -201.25 36.0 -199.75 31.5 -199.75 31.25 -198.5 27.0 -198.25 26.75 -198.25 26.25 -198.0 26.0 -198.0 25.5 -197.75 25.25 -197.75 24.75 -197.5 24.25 -197.5 24.0 -197.25 23.75 -197.25 23.25 -196.0 20.75 -195.75 20.5 -195.25 19.5 -194.75 17.75 -186.75 6.0 -186.75 5.75 -186.25 5.25 -186.25 5.0 -175.0 -12.75 -147.25 -50.5 -125.0 -76.25 -112.25 -86.75 Q-83.25 -165.5 -40.75 -192.0 -1.75 -186.25 58.25 -105.75 L69.75 -100.75" fill="#2e47aa" fill-rule="evenodd" stroke="none"/>
  </g>
</svg>
