<?xml version="1.0" encoding="UTF-8" standalone="no"?>
<svg xmlns:ffdec="https://www.free-decompiler.com/flash" xmlns:xlink="http://www.w3.org/1999/xlink" ffdec:objectType="shape" height="365.8px" width="412.0px" xmlns="http://www.w3.org/2000/svg">
  <g transform="matrix(1.0, 0.0, 0.0, 1.0, 202.0, 193.0)">
    <path d="M77.25 -100.75 L104.75 -85.5 144.5 -59.0 145.0 -58.5 146.0 -57.75 146.25 -57.75 157.75 -49.0 158.0 -49.0 159.0 -48.0 159.75 -47.5 160.25 -47.25 161.25 -46.25 161.75 -46.0 177.5 -34.25 179.25 -32.5 182.5 -30.25 187.5 -23.25 187.75 -22.75 191.25 -18.5 192.0 -17.0 191.5 -12.75 197.0 4.75 202.5 47.5 208.0 98.0 210.0 123.5 209.75 138.5 Q208.0 142.75 202.25 140.0 L196.75 127.5 196.75 127.0 196.5 126.75 188.0 101.25 178.5 67.75 168.25 23.0 163.0 -3.5 106.25 -34.5 Q151.0 73.75 72.75 115.75 16.75 180.5 -68.25 129.0 L-78.75 125.5 -96.5 115.75 Q-142.25 100.5 -133.25 -1.0 L-170.0 33.5 -168.75 39.25 -168.75 40.25 -168.5 40.75 -168.5 41.5 -168.25 42.25 -168.25 43.0 -168.0 43.5 -168.0 44.5 -167.75 45.0 -167.75 46.0 -167.5 47.25 -167.25 47.75 -167.25 48.75 -167.0 49.25 -167.0 50.25 -159.75 89.5 -155.0 127.0 -152.0 159.75 -152.5 170.25 Q-153.25 174.75 -160.25 171.25 L-164.25 163.5 -165.5 160.0 -165.75 159.75 -166.0 159.0 -166.0 158.75 -174.25 135.0 -186.25 95.25 -197.25 54.0 -197.25 51.5 -197.5 50.25 -197.5 49.5 -199.0 35.0 -202.0 28.0 -201.25 25.0 -201.25 24.5 -201.0 24.25 -200.75 23.75 -200.5 23.0 -200.25 22.5 -200.0 21.75 -199.0 19.5 -199.0 19.25 -198.0 16.5 -197.75 16.25 -197.75 16.0 -197.5 15.75 -197.5 15.5 -197.25 14.75 -197.0 14.5 -197.0 14.25 -196.75 14.0 -196.75 13.5 -196.5 13.25 -196.5 13.0 -195.75 11.5 -195.75 11.25 -195.0 10.25 -194.5 9.25 -194.0 8.75 -193.0 6.5 -185.0 -3.5 -184.5 -4.0 -184.0 -4.75 -183.75 -5.25 -183.25 -5.75 -183.0 -6.25 -182.5 -6.75 -171.5 -21.75 -141.5 -56.75 -115.25 -83.0 -103.5 -91.0 Q-71.25 -168.0 -27.25 -193.0 13.25 -183.5 66.5 -104.5 L77.25 -100.75" fill="#2e47aa" fill-rule="evenodd" stroke="none"/>
  </g>
</svg>
