<?xml version="1.0" encoding="UTF-8" standalone="no"?>
<svg xmlns:ffdec="https://www.free-decompiler.com/flash" xmlns:xlink="http://www.w3.org/1999/xlink" ffdec:objectType="shape" height="361.75px" width="383.85px" xmlns="http://www.w3.org/2000/svg">
  <g transform="matrix(1.0, 0.0, 0.0, 1.0, 191.35, 194.0)">
    <path d="M108.25 -80.75 L125.75 -66.75 149.5 -46.25 180.25 -17.0 182.75 -15.75 186.5 -9.75 188.0 -5.75 190.25 -2.0 190.75 -1.5 191.25 2.25 190.25 5.75 192.5 21.75 190.5 66.5 187.75 109.5 184.75 141.75 182.0 156.25 179.25 157.75 Q174.25 158.0 174.5 156.0 L171.25 142.75 167.75 121.0 163.0 78.0 161.25 38.0 161.0 37.5 160.25 10.0 114.25 -22.25 Q151.25 75.25 72.75 118.5 14.5 181.0 -68.75 126.25 L-79.75 122.0 -94.75 113.0 Q-142.25 88.0 -130.0 2.75 L-158.75 30.75 -157.0 37.75 -156.75 38.5 -145.5 84.25 -137.75 124.75 -134.0 152.25 -133.25 164.75 Q-138.5 170.0 -141.0 166.0 L-142.0 164.5 -142.75 163.0 -143.0 162.75 -143.5 161.75 -144.0 161.0 -144.25 160.5 -144.75 159.75 -147.0 155.25 -147.0 155.0 -156.5 132.5 -171.0 93.5 -184.25 53.75 -187.25 34.5 -190.0 30.0 Q-192.25 24.25 -190.75 23.25 L-190.5 22.75 -190.25 22.5 -190.0 21.75 -189.75 21.25 -189.5 20.5 -189.5 20.25 -189.25 19.75 -187.5 15.5 -187.5 15.0 -186.75 13.25 -186.75 13.0 -186.5 12.5 -186.25 11.5 -186.25 11.25 -185.75 10.0 -184.5 7.75 -183.5 6.75 -182.0 3.75 -174.5 -6.0 -174.25 -6.25 -173.75 -7.0 -173.5 -7.25 -173.0 -8.0 -172.75 -8.5 -160.75 -25.25 -129.75 -62.75 -106.25 -86.5 -95.0 -94.5 Q-58.75 -170.75 -14.5 -194.0 21.5 -187.75 76.25 -101.0 L86.75 -96.0 108.25 -80.75" fill="#2e47aa" fill-rule="evenodd" stroke="none"/>
  </g>
</svg>
