<?xml version="1.0" encoding="UTF-8" standalone="no"?>
<svg xmlns:ffdec="https://www.free-decompiler.com/flash" xmlns:xlink="http://www.w3.org/1999/xlink" ffdec:objectType="shape" height="363.2px" width="369.1px" xmlns="http://www.w3.org/2000/svg">
  <g transform="matrix(1.0, 0.0, 0.0, 1.0, 180.35, 194.75)">
    <path d="M98.0 -89.5 L118.75 -70.5 154.75 -32.25 155.25 -31.5 161.75 -23.75 162.75 -22.75 162.75 -22.25 163.75 -21.5 179.25 -2.75 179.75 -2.25 183.0 0.0 Q187.25 9.25 186.5 10.75 L188.25 14.5 188.5 14.75 188.75 18.0 186.5 23.0 185.75 40.25 174.75 89.25 164.75 129.75 157.75 154.0 157.75 154.25 152.75 167.5 Q147.5 170.0 145.25 166.0 L144.25 153.0 144.75 131.0 147.75 85.0 156.25 22.0 122.75 -7.25 122.5 -7.25 Q151.25 76.0 73.0 121.0 32.5 155.5 -8.5 150.5 -59.0 141.25 -68.5 123.5 -138.5 102.25 -126.75 7.75 L-147.0 28.25 -146.25 31.5 -131.0 79.75 -120.75 119.5 -115.5 145.75 -115.5 146.25 -114.5 149.0 -114.0 158.5 Q-116.25 164.0 -121.5 160.5 L-127.75 150.75 -140.25 125.75 -156.75 88.5 -172.25 50.0 -173.0 45.25 -173.25 44.5 -175.5 34.0 -175.5 33.75 -179.0 28.25 Q-181.25 22.5 -179.75 21.5 L-179.5 21.0 -179.25 20.75 -178.25 18.0 -178.25 17.75 -177.25 14.75 -177.0 14.5 -177.0 14.0 -175.75 8.5 -164.25 -7.75 -164.0 -8.0 -163.0 -9.5 -162.75 -10.0 -147.0 -32.5 -121.5 -64.25 -99.25 -88.0 -86.25 -97.75 Q-46.75 -172.75 -1.5 -194.75 37.25 -184.75 86.0 -97.25 L98.0 -89.5" fill="#2e47aa" fill-rule="evenodd" stroke="none"/>
  </g>
</svg>
