<?xml version="1.0" encoding="UTF-8" standalone="no"?>
<svg xmlns:ffdec="https://www.free-decompiler.com/flash" xmlns:xlink="http://www.w3.org/1999/xlink" ffdec:objectType="shape" height="371.5px" width="353.3px" xmlns="http://www.w3.org/2000/svg">
  <g transform="matrix(1.0, 0.0, 0.0, 1.0, 166.3, 194.25)">
    <path d="M112.5 -80.0 L128.5 -60.75 143.0 -41.25 161.5 -14.25 161.75 -13.75 162.25 -13.25 162.25 -13.0 164.5 -9.25 164.5 -9.0 165.25 -8.0 165.25 -7.75 165.5 -7.25 166.0 -6.75 166.0 -6.5 166.25 -6.0 166.5 -5.75 166.5 -5.5 167.0 -5.0 167.0 -4.75 167.75 -3.75 167.75 -3.5 180.0 15.25 180.75 16.75 Q182.25 16.5 184.5 20.0 L186.0 30.75 186.75 33.5 186.75 33.75 187.0 34.25 186.75 38.5 183.5 43.5 180.0 58.25 160.75 101.5 145.5 134.0 129.75 164.75 129.75 165.0 122.25 176.75 Q116.75 178.5 115.25 174.0 L116.75 161.25 117.0 161.0 117.25 159.75 117.25 159.5 122.5 135.5 133.0 97.0 153.5 37.25 132.25 12.75 Q137.25 38.5 127.0 75.0 102.5 119.25 72.75 125.5 30.25 157.5 -8.5 150.25 -56.0 140.0 -68.5 119.5 -92.25 109.5 -111.0 85.0 L-111.75 84.5 -102.5 113.75 -95.25 143.0 -94.75 150.75 Q-96.25 156.5 -101.75 153.25 L-108.5 144.0 -108.75 143.5 -108.75 143.25 -117.25 128.5 -138.75 86.0 -156.75 46.5 -158.5 39.0 -158.75 38.5 -160.5 30.75 -160.75 30.5 -165.25 23.25 Q-167.25 19.0 -165.5 16.5 L-165.5 16.25 -165.0 15.25 -164.75 14.5 -164.75 14.25 -163.25 10.0 -163.0 9.75 -163.0 9.25 -162.0 4.0 Q-161.25 0.75 -158.75 0.0 L-149.25 -13.75 -149.0 -14.0 -148.0 -15.5 -147.75 -16.0 -132.75 -37.25 -107.75 -68.25 -85.0 -92.25 -72.25 -102.0 Q-27.25 -175.0 20.75 -194.25 59.75 -179.0 100.75 -90.25 L112.5 -80.0 M-122.25 12.5 L-132.75 23.0 -124.0 47.5 -124.0 31.25 -122.25 12.5" fill="#2e47aa" fill-rule="evenodd" stroke="none"/>
  </g>
</svg>
