<?xml version="1.0" encoding="UTF-8" standalone="no"?>
<svg xmlns:ffdec="https://www.free-decompiler.com/flash" xmlns:xlink="http://www.w3.org/1999/xlink" ffdec:objectType="shape" height="371.0px" width="335.85px" xmlns="http://www.w3.org/2000/svg">
  <g transform="matrix(1.0, 0.0, 0.0, 1.0, 152.1, 192.0)">
    <path d="M160.25 -9.0 L167.25 6.75 167.5 7.0 167.5 7.5 167.75 7.5 167.5 7.75 168.0 8.25 168.0 8.5 168.25 9.25 168.5 9.25 168.25 9.5 168.75 10.0 168.75 10.25 169.0 11.25 169.25 11.25 169.0 11.5 169.5 11.75 169.5 12.0 170.5 14.25 170.75 14.5 170.75 14.75 179.75 34.75 Q183.25 36.5 183.5 39.0 L183.0 49.75 183.25 51.5 183.25 51.75 183.5 52.75 183.25 53.25 183.75 53.75 182.25 58.0 177.25 63.25 172.0 75.25 141.0 118.5 121.0 145.25 102.75 168.0 92.25 179.0 Q85.75 179.25 86.0 175.0 L89.75 163.25 99.75 140.25 116.25 107.75 149.5 50.75 139.0 35.0 Q130.75 118.5 72.25 130.0 2.0 182.0 -68.25 115.5 L-80.25 108.5 -85.75 104.25 -76.0 135.25 -74.5 144.5 Q-78.25 150.25 -82.0 146.75 L-88.75 138.0 -98.25 123.25 -119.5 85.75 -141.25 43.0 -145.75 28.0 -150.75 20.5 Q-153.0 15.75 -151.5 12.75 L-151.0 12.0 -149.75 8.0 -149.5 7.5 -149.25 6.75 -149.0 6.25 -148.75 6.25 -148.75 4.75 -148.0 -0.25 Q-146.5 -4.0 -144.25 -4.75 L-134.75 -17.75 -134.5 -18.0 -133.5 -19.5 -133.25 -19.75 -132.25 -21.25 -132.0 -21.75 -118.0 -41.5 -93.0 -72.25 -70.25 -96.25 -58.25 -105.0 Q-6.75 -177.0 42.5 -192.0 80.25 -173.75 114.75 -82.75 L124.5 -71.75 142.0 -43.5 160.25 -9.0" fill="#2e47aa" fill-rule="evenodd" stroke="none"/>
  </g>
</svg>
