<?xml version="1.0" encoding="UTF-8" standalone="no"?>
<svg xmlns:ffdec="https://www.free-decompiler.com/flash" xmlns:xlink="http://www.w3.org/1999/xlink" ffdec:objectType="shape" height="363.25px" width="317.3px" xmlns="http://www.w3.org/2000/svg">
  <g transform="matrix(1.0, 0.0, 0.0, 1.0, 137.05, 188.75)">
    <path d="M136.75 -61.25 L149.25 -33.5 163.5 5.75 168.25 21.75 168.5 22.25 168.5 23.0 168.75 23.0 168.75 23.75 169.0 24.75 169.25 24.75 169.25 25.75 169.5 26.0 169.5 26.5 170.75 30.5 170.75 30.75 176.75 51.5 Q179.0 51.75 180.25 55.75 L178.0 67.0 178.0 70.25 Q179.25 73.25 168.75 80.5 L162.25 89.75 115.25 133.0 96.0 150.0 72.75 169.25 64.0 174.5 60.75 174.0 Q57.75 171.5 58.75 169.5 L65.0 158.5 65.5 158.0 65.5 157.75 86.0 129.5 80.0 132.5 71.5 134.5 Q-6.5 176.75 -58.75 122.5 L-59.0 122.5 -55.0 138.5 Q-54.75 143.5 -61.75 141.5 L-69.5 132.75 -80.75 116.5 -103.0 80.75 -124.75 42.0 -130.5 26.25 Q-137.75 20.25 -137.0 9.75 L-136.75 9.25 -136.5 8.25 -136.0 7.0 -135.75 6.75 -135.5 6.0 Q-135.85 5.5 -135.25 5.5 L-135.0 4.75 -135.0 4.5 -134.5 4.0 -134.5 3.25 -133.5 -4.0 Q-132.5 -6.75 -129.5 -7.75 L-118.5 -23.0 -118.25 -23.25 -117.75 -24.0 -117.5 -24.5 -104.0 -43.5 -77.5 -76.0 -55.0 -99.25 -44.25 -107.0 Q16.5 -179.5 63.75 -188.75 101.0 -166.75 128.25 -74.0 L136.75 -61.25 M142.0 58.25 L139.0 67.75 144.0 62.5 142.0 58.25" fill="#2e47aa" fill-rule="evenodd" stroke="none"/>
  </g>
</svg>
