<?xml version="1.0" encoding="UTF-8" standalone="no"?>
<svg xmlns:ffdec="https://www.free-decompiler.com/flash" xmlns:xlink="http://www.w3.org/1999/xlink" ffdec:objectType="shape" height="365.5px" width="302.65px" xmlns="http://www.w3.org/2000/svg">
  <g transform="matrix(1.0, 0.0, 0.0, 1.0, 136.7, 191.5)">
    <path d="M119.25 -77.5 L127.0 -65.25 139.25 -35.0 150.75 -0.25 155.5 17.25 155.5 18.5 155.75 19.25 155.75 19.5 156.0 20.25 156.25 20.5 156.0 21.0 156.5 21.0 156.5 21.75 156.25 22.0 156.75 22.5 156.5 23.0 157.0 23.0 157.0 23.75 156.75 24.0 157.25 24.5 157.0 25.0 157.5 25.0 157.5 25.75 163.0 47.0 163.25 47.5 163.25 48.0 Q168.25 49.0 164.0 63.0 L164.0 67.0 Q164.0 69.25 162.0 71.25 L155.5 76.25 148.25 86.75 108.0 125.75 83.5 148.5 64.0 165.25 63.75 165.25 62.25 166.75 51.75 174.0 48.25 173.0 Q45.5 170.75 46.5 169.0 L52.75 157.5 53.25 157.0 53.5 156.5 70.0 132.75 Q-3.0 171.5 -48.5 133.75 L-48.75 133.75 -45.5 144.5 Q-45.25 149.75 -52.0 148.0 L-60.0 140.0 -72.75 124.25 -94.25 94.75 Q-108.25 80.0 -112.25 68.0 L-123.5 50.25 -129.0 37.0 -134.25 31.0 Q-137.75 24.75 -136.25 22.0 L-136.0 21.5 -135.5 19.0 -135.25 18.75 -134.5 16.0 -134.5 15.5 -134.25 15.0 -134.25 9.5 Q-133.25 4.75 -130.5 4.0 L-122.75 -9.75 -122.75 -10.0 -122.5 -10.25 -121.75 -11.5 -121.75 -11.75 -121.25 -12.75 -120.75 -13.5 -108.0 -36.0 -87.0 -68.0 -67.75 -93.0 -56.0 -104.0 Q0.0 -178.75 47.75 -191.5 87.0 -170.5 119.25 -77.75 L119.25 -77.5" fill="#2e47aa" fill-rule="evenodd" stroke="none"/>
  </g>
</svg>
