<?xml version="1.0" encoding="UTF-8" standalone="no"?>
<svg xmlns:ffdec="https://www.free-decompiler.com/flash" xmlns:xlink="http://www.w3.org/1999/xlink" ffdec:objectType="shape" height="366.75px" width="286.5px" xmlns="http://www.w3.org/2000/svg">
  <g transform="matrix(1.0, 0.0, 0.0, 1.0, 134.75, 193.25)">
    <path d="M111.5 -78.0 L117.25 -68.0 127.5 -40.25 141.25 8.5 141.5 9.0 141.5 9.5 142.75 15.75 142.75 16.75 143.0 17.25 143.0 18.0 143.25 18.5 143.25 19.0 143.5 19.75 143.5 20.0 143.75 21.0 143.75 21.25 144.0 22.0 144.0 22.25 144.75 24.25 149.25 44.75 149.5 44.75 Q151.25 45.75 151.75 49.25 L149.75 59.25 149.5 63.5 Q149.0 67.0 147.25 68.5 L141.75 72.5 135.25 82.75 125.75 92.75 76.25 142.0 50.0 165.75 39.75 173.5 36.5 173.0 Q33.5 171.5 34.25 168.75 L40.25 157.0 51.25 140.25 28.5 149.0 Q-0.75 155.5 -13.5 149.25 L-25.75 147.25 -38.0 141.0 -38.25 141.0 -35.25 149.0 Q-35.5 155.0 -41.75 152.75 L-50.75 145.0 -67.25 127.0 -81.5 110.0 Q-114.0 85.5 -118.5 62.5 L-126.25 47.25 Q-136.75 37.5 -134.25 33.25 L-134.0 30.75 -133.75 29.5 -133.5 29.0 -133.5 28.0 -133.25 27.25 -133.0 25.75 -133.0 25.0 -133.25 24.0 -133.25 20.0 -123.5 -1.5 -123.25 -2.25 -112.75 -26.25 -93.75 -63.0 -78.25 -88.0 -68.75 -99.0 -68.0 -99.75 Q-13.75 -180.0 31.5 -193.25 71.5 -176.5 111.5 -78.25 L111.5 -78.0" fill="#2e47aa" fill-rule="evenodd" stroke="none"/>
  </g>
</svg>
