<?xml version="1.0" encoding="UTF-8" standalone="no"?>
<svg xmlns:ffdec="https://www.free-decompiler.com/flash" xmlns:xlink="http://www.w3.org/1999/xlink" ffdec:objectType="shape" height="374.25px" width="303.1px" xmlns="http://www.w3.org/2000/svg">
  <g transform="matrix(1.0, 0.0, 0.0, 1.0, 148.1, 194.5)">
    <path d="M107.25 -76.5 L122.0 -47.25 139.0 -5.25 139.25 -4.75 139.75 -3.25 140.0 -2.75 140.25 -2.0 140.5 -1.5 140.5 -1.25 143.25 7.75 143.5 8.25 143.5 8.5 143.75 9.0 143.75 9.25 144.0 9.75 144.0 10.0 144.25 10.5 144.25 10.75 144.5 11.25 144.5 11.5 152.0 32.0 152.25 33.5 152.5 33.5 Q154.75 34.75 155.0 38.75 L154.25 47.75 154.75 52.5 Q155.25 54.0 153.5 56.5 L149.25 61.0 144.0 73.25 96.0 141.75 75.25 168.5 74.75 169.0 74.75 169.25 74.5 169.5 73.75 170.5 64.75 179.75 60.75 179.25 Q58.75 178.25 58.75 175.75 L62.75 163.0 82.25 120.75 72.75 124.5 Q7.0 181.75 -68.75 120.5 L-70.75 119.5 -71.0 119.5 -60.25 142.75 -60.25 144.0 -58.75 146.5 -56.25 155.75 Q-57.0 161.5 -63.0 159.25 L-70.75 151.5 -85.75 133.0 -108.75 101.25 -134.25 63.0 -140.75 47.75 -146.75 40.5 Q-148.75 36.75 -147.75 34.5 L-147.5 34.25 -147.5 33.5 -147.25 32.5 -147.25 32.25 -147.0 29.75 -146.75 28.5 -146.5 28.0 -146.25 26.75 -146.25 21.25 -136.75 1.0 -136.5 0.25 -126.75 -21.0 -105.75 -60.0 -89.5 -85.0 -77.0 -99.0 Q-29.75 -177.75 15.25 -194.5 57.25 -178.0 100.25 -86.0 L107.25 -76.5" fill="#2e47aa" fill-rule="evenodd" stroke="none"/>
  </g>
</svg>
