<?xml version="1.0" encoding="UTF-8" standalone="no"?>
<svg xmlns:ffdec="https://www.free-decompiler.com/flash" xmlns:xlink="http://www.w3.org/1999/xlink" ffdec:objectType="shape" height="412.25px" width="230.75px" xmlns="http://www.w3.org/2000/svg">
  <g transform="matrix(1.0, 0.0, 0.0, 1.0, 120.1, 148.0)">
    <path d="M-52.75 -125.5 L-50.25 -129.75 Q-46.25 -138.5 -33.5 -133.25 -13.5 -171.0 40.25 -112.0 L51.25 -106.0 Q64.0 -96.0 64.75 -91.25 74.0 -81.0 71.0 -71.75 L70.75 -71.25 70.5 -70.5 Q132.0 34.5 99.25 110.25 64.25 185.25 -8.75 195.0 L-22.0 195.75 -26.25 194.75 -29.25 209.25 -30.75 216.25 -41.5 241.25 -51.75 257.75 -52.0 258.25 Q-60.0 271.5 -64.0 255.5 L-70.75 224.75 -74.75 204.25 -79.5 176.0 -79.7 172.9 Q-80.75 148.55 -88.25 125.75 L-90.5 117.5 Q-104.5 45.25 -72.75 -47.5 L-71.75 -47.5 -61.75 -77.75 -59.25 -80.0 Q-67.9 -95.25 -60.7 -111.25 -59.5 -114.0 -57.75 -116.5 L-54.75 -117.75 -52.75 -125.5" fill="#2e47aa" fill-rule="evenodd" stroke="none"/>
    <path d="M-52.75 -125.5 L-54.75 -117.75 -57.75 -116.5 Q-59.5 -114.0 -60.7 -111.25 -67.9 -95.25 -59.25 -80.0 L-61.75 -77.75 -64.55 -80.45 Q-71.3 -87.8 -70.25 -97.75 L-69.5 -99.5 -68.75 -99.5 -66.25 -107.75 -62.25 -111.75 -61.5 -115.5 Q-59.5 -120.25 -55.5 -124.0 L-52.75 -125.5 M-72.75 -47.5 Q-104.5 45.25 -90.5 117.5 L-106.75 87.25 Q-109.75 69.95 -106.1 52.95 -94.85 0.3 -80.75 -51.5 L-72.75 -47.5" fill="#ffffff" fill-rule="evenodd" stroke="none"/>
    <path d="M-61.75 -77.75 L-71.75 -47.5 -72.75 -47.5 -80.75 -51.5 Q-99.65 -58.05 -108.5 -75.65 -109.3 -77.2 -109.3 -79.0 -109.4 -90.65 -104.2 -101.0 -101.75 -105.95 -97.7 -109.1 -81.95 -121.1 -62.0 -118.0 L-61.5 -115.5 -62.25 -111.75 -66.25 -107.75 -68.75 -107.0 Q-71.25 -106.0 -71.75 -101.25 L-70.25 -97.75 Q-71.3 -87.8 -64.55 -80.45 L-61.75 -77.75 M-88.25 125.75 Q-80.75 148.55 -79.7 172.9 L-79.5 176.0 -74.75 204.25 -70.75 224.75 Q-101.25 226.25 -118.0 173.5 -124.0 150.0 -113.0 136.25 -109.75 132.75 -105.5 131.25 L-88.25 125.75 M-29.25 209.25 L-26.25 194.75 -22.0 195.75 -8.75 195.0 -18.25 202.5 -29.25 209.25" fill="#e58508" fill-rule="evenodd" stroke="none"/>
    <path d="M-55.5 -124.0 Q-59.5 -120.25 -61.5 -115.5 L-62.0 -118.0 -61.0 -121.25 Q-60.75 -123.0 -55.5 -124.0 M-66.25 -107.75 L-68.75 -99.5 -69.5 -99.5 -70.25 -97.75 -71.75 -101.25 Q-71.25 -106.0 -68.75 -107.0 L-66.25 -107.75" fill="#31333d" fill-rule="evenodd" stroke="none"/>
    <path d="M69.0 -78.0 L71.0 -76.25 69.75 -81.0 Q73.25 -80.5 70.75 -70.75 L69.75 -71.25 67.0 -76.25 Q70.5 -74.0 69.0 -78.0 M65.75 -88.25 L66.25 -77.0 59.0 -87.5 64.5 -90.5 65.75 -88.25 M-70.75 151.0 L-72.75 150.25 -71.25 149.5 -70.75 151.0 M104.9 12.6 L108.25 26.25 Q117.25 80.5 85.25 134.75 L71.25 153.0 54.75 169.0 Q14.0 196.0 -8.75 195.0 L-17.25 201.75 -29.25 209.25 Q-39.75 245.75 -57.5 264.25 -65.75 262.5 -70.5 224.75 -83.5 225.75 -96.5 213.5 -110.25 202.0 -118.25 173.25 -102.0 216.25 -82.0 215.0 L-82.25 202.25 -83.75 192.25 -83.0 177.75 -92.75 160.25 -97.75 140.25 Q-102.0 130.75 -104.25 131.0 L-87.75 125.5 -89.75 118.25 -92.25 114.75 Q-114.35 75.7 -107.75 60.0 -102.3 30.3 -80.5 -51.0 -101.75 -59.25 -107.3 -72.65 -100.2 -59.7 -71.0 -49.25 L-75.25 -39.75 -75.0 -39.0 -83.5 -33.5 Q-84.25 -29.0 -85.5 -29.0 L-85.25 -27.75 -87.25 -23.0 Q-88.0 -15.5 -89.25 -14.75 L-89.0 -13.0 -91.5 -3.5 -92.0 1.5 -96.0 14.25 -98.0 25.5 -98.75 26.0 Q-98.0 27.0 -101.25 34.0 L-104.75 52.25 -105.5 63.5 -102.75 78.25 Q-97.5 94.5 -94.5 95.25 -93.8 33.85 -86.35 4.5 -86.75 7.3 -86.75 11.0 L-87.5 12.0 -87.25 15.0 -89.5 34.75 -89.75 47.0 -88.75 66.25 -86.0 85.25 -81.0 105.75 -78.0 112.25 -77.0 102.0 -75.0 125.25 Q-75.75 147.0 -73.0 149.25 L-74.0 149.5 Q-75.75 145.5 -76.75 146.0 -79.5 147.25 -79.75 164.25 -78.5 178.75 -75.5 182.75 L-73.25 198.0 -72.5 198.75 -68.5 214.25 -67.5 223.5 -63.25 242.75 -62.0 255.75 -61.0 258.5 Q-48.0 253.5 -27.25 198.5 -19.75 158.75 -31.5 155.75 -12.2 97.35 -9.5 60.5 -7.5 72.25 -23.25 174.25 0.0 183.0 53.25 156.75 94.5 128.0 106.75 71.0 107.6 33.3 104.9 12.6" fill="#000000" fill-opacity="0.49803922" fill-rule="evenodd" stroke="none"/>
  </g>
</svg>
