<?xml version="1.0" encoding="UTF-8" standalone="no"?>
<svg xmlns:ffdec="https://www.free-decompiler.com/flash" xmlns:xlink="http://www.w3.org/1999/xlink" ffdec:objectType="shape" height="376.0px" width="320.1px" xmlns="http://www.w3.org/2000/svg">
  <g transform="matrix(1.0, 0.0, 0.0, 1.0, 161.35, 194.75)">
    <path d="M97.75 -82.75 L113.5 -58.5 138.0 -13.5 142.25 -3.75 142.75 -3.5 143.0 -3.0 143.0 -2.25 143.5 -1.0 144.0 -0.75 154.5 21.5 154.5 21.75 156.75 24.75 158.5 39.75 158.75 40.0 157.75 44.5 155.25 48.0 152.0 61.75 130.5 108.5 112.5 145.0 99.75 169.0 99.25 169.5 99.5 169.5 99.0 169.75 91.75 181.0 87.75 181.25 Q84.5 180.0 85.0 178.25 L87.0 164.0 94.75 133.5 106.0 97.25 100.5 103.5 84.25 115.5 73.0 121.0 Q32.5 155.5 -8.5 150.5 -59.0 141.25 -68.5 123.5 L-79.25 119.25 -97.0 107.75 -88.25 128.75 -80.5 150.75 -79.25 153.5 -77.25 163.0 Q-79.25 168.5 -84.25 166.0 L-92.0 157.25 -92.0 157.0 -103.0 141.5 -126.0 105.25 -150.0 63.75 -155.25 48.25 -160.0 42.25 Q-162.0 38.5 -161.0 36.25 L-160.75 36.0 -160.75 35.0 -160.5 34.25 -160.25 33.0 -160.25 31.75 -159.75 29.5 -159.5 29.0 -159.5 28.25 -159.25 27.75 -159.25 27.25 -159.0 26.5 -159.0 26.25 -158.5 22.25 -157.75 21.0 -158.0 20.5 -157.5 20.25 -157.5 19.75 -140.0 -16.75 -116.75 -58.0 -99.0 -84.0 -87.25 -96.25 Q-46.25 -173.5 -1.5 -194.75 35.25 -187.5 88.75 -92.5 L97.75 -82.75" fill="#2e47aa" fill-rule="evenodd" stroke="none"/>
  </g>
</svg>
