<?xml version="1.0" encoding="UTF-8" standalone="no"?>
<svg xmlns:ffdec="https://www.free-decompiler.com/flash" xmlns:xlink="http://www.w3.org/1999/xlink" ffdec:objectType="shape" height="371.95px" width="336.05px" xmlns="http://www.w3.org/2000/svg">
  <g transform="matrix(1.0, 0.0, 0.0, 1.0, 174.8, 194.5)">
    <path d="M105.5 -66.25 L132.25 -28.25 132.5 -27.75 133.5 -26.25 134.0 -25.75 134.0 -25.5 141.25 -14.25 141.25 -14.0 142.5 -12.0 142.75 -11.5 143.25 -10.75 143.5 -10.5 143.75 -10.0 154.25 7.0 154.5 7.5 154.75 8.5 155.0 8.5 157.0 11.0 161.0 25.25 161.0 25.5 161.25 29.0 159.25 32.75 158.25 47.75 155.5 59.0 138.0 122.75 125.25 162.75 125.5 162.75 125.25 163.5 125.0 163.75 124.75 164.5 119.5 176.5 Q116.0 179.0 112.25 175.0 L112.0 161.0 113.5 138.0 117.75 99.75 129.75 30.25 123.5 23.25 Q128.75 90.5 72.75 117.5 15.75 180.75 -68.25 127.0 -132.25 110.75 -133.5 31.25 L-142.0 42.5 -121.25 94.25 -107.0 137.5 -101.0 157.75 -101.0 158.25 -99.75 161.25 -98.5 170.5 Q-99.5 175.5 -105.5 173.25 L-112.75 164.0 -112.75 163.75 -125.75 142.5 -144.0 109.0 -164.75 67.75 -166.5 61.25 -166.75 60.75 -169.75 50.25 -174.0 44.25 Q-175.25 42.5 -174.5 39.25 L-174.5 38.75 -173.75 35.75 -173.75 35.5 -173.5 33.5 -172.75 30.25 -172.5 30.0 -172.5 29.25 -172.25 28.75 -172.25 28.0 -172.0 27.5 -172.0 26.75 -171.25 24.0 -170.5 22.5 -170.25 21.5 -164.75 10.5 -164.0 9.25 -164.0 9.0 -152.75 -13.5 -129.0 -54.0 -111.25 -79.25 -98.5 -92.25 -98.5 -92.5 Q-63.25 -170.5 -18.25 -194.5 21.0 -185.5 76.25 -98.0 L86.25 -89.25 105.5 -66.25" fill="#2e47aa" fill-rule="evenodd" stroke="none"/>
  </g>
</svg>
