<?xml version="1.0" encoding="UTF-8" standalone="no"?>
<svg xmlns:ffdec="https://www.free-decompiler.com/flash" xmlns:xlink="http://www.w3.org/1999/xlink" ffdec:objectType="shape" height="374.85px" width="350.75px" xmlns="http://www.w3.org/2000/svg">
  <g transform="matrix(1.0, 0.0, 0.0, 1.0, 188.0, 193.0)">
    <path d="M128.75 -37.75 L138.0 -26.5 138.0 -26.25 138.75 -25.5 139.0 -25.0 139.75 -24.25 140.0 -23.75 140.5 -23.25 141.0 -22.5 152.75 -7.75 153.0 -7.25 153.5 -6.75 153.5 -6.5 156.5 -2.0 156.5 -1.75 159.0 3.75 159.25 4.5 162.25 10.75 162.5 12.75 161.25 16.5 162.75 29.5 162.25 42.75 158.75 83.5 154.5 123.25 150.5 151.75 150.25 152.5 150.0 152.75 150.0 154.5 147.25 166.5 Q142.0 169.5 139.5 166.0 L137.0 152.5 137.0 152.25 136.75 151.5 134.75 132.25 132.25 93.25 131.5 45.0 132.0 19.0 116.0 4.75 Q127.75 91.25 72.5 113.75 17.5 179.75 -67.75 130.5 -101.5 120.0 -117.25 101.25 -138.0 81.25 -137.75 24.0 L-155.5 47.25 -155.5 48.0 -153.25 54.75 -153.0 55.0 -137.5 101.75 -126.75 141.0 Q-123.55 153.35 -121.25 166.0 L-120.25 169.25 -119.5 178.5 Q-122.25 184.0 -127.0 180.5 L-133.75 170.5 -133.75 170.25 -141.5 155.75 -159.25 118.5 -180.0 70.75 -180.75 66.5 -181.0 65.75 -184.0 52.75 -187.5 47.5 -188.0 43.0 -188.0 42.75 -187.5 40.75 -187.25 40.25 -186.25 36.0 -186.25 35.75 -185.75 33.0 -185.5 33.0 -185.5 32.0 -185.25 32.0 -185.25 31.0 -185.0 31.0 -185.0 30.0 -184.0 27.0 -183.75 26.75 -183.25 25.25 -177.25 13.75 -177.25 13.5 -167.0 -6.5 -140.25 -50.75 -121.0 -77.0 -109.75 -87.75 Q-79.0 -167.25 -36.25 -193.0 7.0 -183.25 63.25 -102.75 L73.25 -96.25 96.5 -74.0 126.0 -41.25 126.5 -40.5 127.25 -39.75 127.5 -39.25 128.75 -38.0 128.75 -37.75" fill="#2e47aa" fill-rule="evenodd" stroke="none"/>
  </g>
</svg>
