<?xml version="1.0" encoding="UTF-8" standalone="no"?>
<svg xmlns:ffdec="https://www.free-decompiler.com/flash" xmlns:xlink="http://www.w3.org/1999/xlink" ffdec:objectType="shape" height="320.95px" width="372.7px" xmlns="http://www.w3.org/2000/svg">
  <g transform="matrix(1.0, 0.0, 0.0, 1.0, 199.15, 118.25)">
    <path d="M-13.0 -95.75 Q11.25 -82.5 6.25 -56.5 L6.0 -55.25 6.0 -54.5 5.75 -53.0 5.75 -52.75 5.25 -48.25 Q-3.25 -21.75 -24.75 -20.5 L-26.5 -20.25 -27.0 -20.0 Q-50.0 -17.25 -61.0 -33.0 L-61.25 -33.0 -65.0 -40.25 Q-80.5 -65.75 -61.25 -87.25 -51.5 -83.0 -37.75 -92.0 -14.5 -88.75 -13.0 -95.75 M71.5 110.75 L71.85 110.6 85.25 101.55 86.05 100.8 Q104.55 126.65 110.5 154.0 111.0 193.0 55.25 201.0 30.5 204.25 16.75 193.0 7.8 187.1 7.15 149.3 51.9 140.8 71.5 110.75 M-8.0 151.45 Q-9.15 178.6 -18.25 194.25 L-19.75 196.0 -23.0 197.75 Q-29.75 203.5 -56.5 202.0 -114.0 193.25 -111.75 154.25 L-111.5 153.75 -111.5 153.5 Q-112.5 145.55 -99.65 121.55 L-97.75 122.25 -96.25 123.0 -95.5 123.25 -76.0 131.75 -67.75 133.75 -67.0 134.0 -60.0 139.0 -57.0 140.5 -56.25 140.75 -48.25 144.75 -47.5 145.0 -45.5 146.0 -18.25 152.25 -16.95 152.2 -8.0 151.45" fill="#e58508" fill-rule="evenodd" stroke="none"/>
    <path d="M5.25 -48.25 L10.5 -37.75 20.75 -21.25 26.25 -8.75 44.75 19.75 51.0 27.0 65.0 38.5 72.5 48.75 79.5 60.75 79.7 61.05 80.5 62.35 80.55 62.45 80.65 62.65 80.7 62.75 80.8 62.95 80.9 63.1 80.95 63.2 81.0 63.3 81.1 63.45 81.2 63.6 81.25 63.75 80.6 92.75 80.3 93.45 74.0 106.55 71.5 110.75 Q51.9 140.8 7.15 149.3 L-8.0 151.45 -16.95 152.2 -18.25 152.25 -45.5 146.0 -47.5 145.0 -48.25 144.75 -56.25 140.75 -57.0 140.5 -60.0 139.0 -67.0 134.0 -81.0 123.5 -89.75 108.0 -90.0 107.75 -90.25 107.25 -90.55 106.95 Q-91.5 105.55 -89.5 100.25 L-90.0 93.0 -84.0 82.0 -84.0 79.5 -79.75 68.25 -78.5 60.5 -72.5 37.5 -67.75 8.0 -68.0 4.0 -66.75 -7.0 -61.25 -33.0 -61.0 -33.0 Q-50.0 -17.25 -27.0 -20.0 L-26.5 -20.25 -24.75 -20.5 Q-3.25 -21.75 5.25 -48.25 M-61.25 -87.25 L-67.5 -95.0 -69.0 -103.0 -69.0 -103.75 -68.0 -106.0 -66.5 -108.0 -64.5 -109.75 -62.25 -111.25 -59.25 -112.75 -56.25 -113.75 -45.25 -115.0 -44.25 -114.75 -44.25 -114.5 -42.5 -114.25 -41.25 -114.25 -39.75 -115.0 -39.0 -115.5 -34.5 -117.0 -27.25 -118.25 -20.25 -118.0 -15.0 -116.25 -13.0 -115.0 -11.5 -113.25 -10.75 -112.0 -10.25 -103.25 -13.0 -95.75 Q-14.5 -88.75 -37.75 -92.0 -51.5 -83.0 -61.25 -87.25 M-25.25 -105.5 Q-40.0 -101.5 -26.75 -94.75 -16.5 -101.5 -25.25 -105.5 M-54.25 -101.0 Q-59.0 -90.5 -49.0 -91.25 -39.0 -102.5 -54.25 -101.0" fill="#ffffff" fill-rule="evenodd" stroke="none"/>
    <path d="M-54.25 -101.0 Q-39.0 -102.5 -49.0 -91.25 -59.0 -90.5 -54.25 -101.0 M-25.25 -105.5 Q-16.5 -101.5 -26.75 -94.75 -40.0 -101.5 -25.25 -105.5" fill="#000000" fill-rule="evenodd" stroke="none"/>
    <path d="M64.25 -50.25 L89.25 -32.0 116.5 -10.25 132.75 1.5 133.5 2.25 133.5 7.25 136.75 28.25 133.75 13.75 133.25 6.75 105.75 -13.0 Q116.25 6.25 115.5 47.0 111.0 76.75 85.25 100.25 L93.5 112.5 Q92.25 111.75 87.5 115.75 L71.0 141.25 Q40.25 170.25 13.25 173.25 11.5 183.5 36.5 189.25 L36.75 196.25 56.25 196.5 Q103.25 186.75 110.0 165.0 101.25 201.5 33.25 200.75 9.0 205.5 7.5 150.75 L-8.0 151.75 Q-5.5 204.75 -43.0 202.5 -79.25 205.0 -105.75 178.25 L-110.0 169.25 Q-112.25 164.75 -110.75 164.0 -96.75 197.0 -44.0 197.75 L-37.5 197.25 -37.0 190.75 Q-16.25 185.5 -14.75 175.25 -16.0 172.25 -30.0 173.0 L-60.5 162.75 Q-96.5 131.75 -105.75 134.25 -102.5 128.25 -103.0 127.25 L-99.5 121.25 -117.5 107.75 -130.25 89.75 -135.0 78.75 -138.0 66.25 -141.5 47.25 -142.5 37.25 -142.5 19.25 -168.0 51.75 Q-170.0 52.75 -169.75 49.75 L-162.25 41.5 -162.5 41.0 -153.5 30.0 -145.25 18.25 -144.0 17.5 -142.25 14.25 -119.75 -15.0 -111.75 -27.0 -112.25 -24.0 -116.25 -14.5 -117.5 -9.5 -118.25 -9.0 -121.75 3.0 -127.75 18.75 -128.0 21.5 -134.0 39.75 Q-131.25 63.0 -114.75 88.75 L-99.75 102.25 -90.75 107.0 -90.0 107.0 Q-91.75 105.75 -89.25 96.0 L-68.25 123.75 -32.75 138.5 -16.25 139.75 4.5 140.0 38.75 128.5 67.75 106.0 77.25 89.5 81.5 79.75 Q83.5 76.25 82.5 75.5 84.25 76.0 84.0 84.25 L89.5 80.5 89.25 80.0 101.25 67.0 109.5 48.75 102.5 29.75 91.75 7.75 70.75 -29.25 53.25 -57.75 52.0 -60.25 52.5 -60.5 64.25 -50.25 M161.5 -1.0 L159.75 -6.0 161.5 -5.25 161.5 -1.0 M164.5 12.0 L165.25 12.5 165.75 16.0 164.5 12.0 M163.0 144.5 L163.75 144.5 163.75 145.25 163.0 144.5 M166.5 152.75 L165.75 151.25 173.25 149.75 Q174.5 152.0 170.5 153.0 L167.5 153.0 166.5 152.75 M137.75 30.75 L140.0 46.25 136.75 30.0 137.75 30.75 M145.25 73.25 L146.5 79.75 144.5 72.5 145.25 73.25 M148.0 86.25 L146.25 80.0 147.0 80.75 148.0 86.25 M148.75 88.25 L149.5 92.75 148.0 87.5 148.75 88.25 M-36.0 -19.75 Q-2.0 -15.75 6.75 -58.0 10.25 6.5 -34.25 14.75 -76.0 0.75 -71.75 -65.5 -65.75 -23.0 -36.0 -19.75 M-151.85 181.2 Q-146.4 188.5 -140.25 186.75 L-140.5 188.0 -143.25 189.75 Q-146.95 188.7 -151.85 181.2 M-196.5 47.25 L-196.0 54.25 -193.75 65.75 -187.5 82.25 -187.75 83.25 -183.75 93.75 -177.25 113.25 -177.5 114.25 -174.75 120.25 -163.5 152.25 Q-159.9 166.0 -155.9 174.3 -165.95 155.65 -180.25 114.75 -204.75 54.5 -197.5 45.5 L-196.5 47.25" fill="#000000" fill-opacity="0.49803922" fill-rule="evenodd" stroke="none"/>
  </g>
</svg>
