<?xml version="1.0" encoding="UTF-8" standalone="no"?>
<svg xmlns:ffdec="https://www.free-decompiler.com/flash" xmlns:xlink="http://www.w3.org/1999/xlink" ffdec:objectType="shape" height="321.45px" width="393.75px" xmlns="http://www.w3.org/2000/svg">
  <g transform="matrix(1.0, 0.0, 0.0, 1.0, 201.75, 118.75)">
    <path d="M-3.75 -95.5 Q16.25 -87.75 14.25 -58.0 L14.0 -55.5 13.75 -54.75 13.75 -54.0 13.25 -51.5 13.0 -50.75 13.0 -50.5 12.75 -47.5 Q1.75 -20.5 -18.25 -20.75 L-19.5 -20.5 -20.5 -20.5 Q-44.25 -18.5 -54.25 -35.0 L-54.5 -35.0 -60.0 -46.5 Q-71.5 -66.75 -52.25 -89.0 -49.0 -83.25 -28.25 -92.75 -6.0 -88.5 -3.75 -95.5 M72.0 113.25 Q80.1 107.8 86.8 101.9 104.65 127.2 110.5 154.0 111.0 193.0 55.25 201.0 30.5 204.25 16.75 193.0 8.05 187.3 7.2 151.4 44.4 148.2 72.0 113.25 M-7.95 151.4 Q-9.15 178.6 -18.25 194.25 L-19.75 196.0 -23.0 197.75 Q-29.75 203.5 -56.5 202.0 -114.0 193.25 -111.75 154.25 L-111.5 153.75 -111.5 153.5 Q-112.5 145.5 -99.5 121.25 L-97.1 117.35 Q-84.4 125.35 -68.0 131.25 -35.6 149.2 -7.95 151.4" fill="#e58508" fill-rule="evenodd" stroke="none"/>
    <path d="M12.75 -47.5 L19.5 -32.75 27.0 -19.5 31.75 -6.75 49.25 22.25 Q72.5 40.25 82.5 66.0 87.15 84.7 83.15 96.85 L82.0 99.75 72.0 113.25 Q44.4 148.2 7.2 151.4 -0.2 152.0 -7.95 151.4 -35.6 149.2 -68.0 131.25 L-81.25 120.75 -90.0 102.5 -88.5 96.5 -88.75 90.0 -83.0 81.0 -82.0 76.5 -76.25 61.5 -69.0 36.0 -63.0 7.25 -61.25 -7.5 -54.5 -35.0 -54.25 -35.0 Q-44.25 -18.5 -20.5 -20.5 L-19.5 -20.5 -18.25 -20.75 Q1.75 -20.5 12.75 -47.5 M-52.25 -89.0 L-57.75 -96.25 -59.25 -105.0 -59.25 -105.75 -58.25 -108.0 -57.0 -109.75 -52.25 -113.0 -46.25 -115.25 -34.75 -116.0 -34.0 -115.5 -31.0 -115.0 -30.5 -115.5 -29.5 -116.0 -28.75 -116.5 -16.5 -118.75 -10.25 -118.0 -7.25 -117.25 -5.0 -116.25 -2.75 -114.75 -1.25 -113.0 -0.75 -111.75 -0.5 -103.25 -3.75 -95.5 Q-6.0 -88.5 -28.25 -92.75 -49.0 -83.25 -52.25 -89.0 M-18.25 -105.75 Q-29.5 -102.25 -16.75 -95.25 -6.0 -102.25 -18.25 -105.75 M-39.5 -92.5 Q-29.5 -103.5 -44.5 -102.0 -50.0 -92.5 -39.5 -92.5" fill="#ffffff" fill-rule="evenodd" stroke="none"/>
    <path d="M-39.5 -92.5 Q-50.0 -92.5 -44.5 -102.0 -29.5 -103.5 -39.5 -92.5 M-18.25 -105.75 Q-6.0 -102.25 -16.75 -95.25 -29.5 -102.25 -18.25 -105.75" fill="#000000" fill-rule="evenodd" stroke="none"/>
    <path d="M75.75 -51.0 L93.25 -40.0 148.5 -2.75 153.0 26.5 152.25 25.25 148.25 1.75 105.25 -25.5 Q122.75 16.5 118.0 52.25 116.0 75.0 87.0 102.5 L95.0 115.0 89.0 118.25 88.25 118.75 88.5 120.0 71.25 143.25 Q41.5 170.0 13.5 173.75 12.5 184.25 36.5 189.25 L36.75 196.25 55.75 196.5 Q104.5 187.0 109.25 164.25 L110.0 163.5 109.75 165.75 Q101.75 201.25 32.75 200.75 9.25 205.25 7.5 151.25 L-8.25 151.5 Q-5.5 205.0 -43.0 202.5 -79.25 205.0 -105.75 178.25 L-110.0 169.25 Q-112.25 164.75 -110.75 164.0 -96.75 197.0 -43.75 197.75 L-39.75 197.25 Q-35.25 197.75 -37.25 189.75 L-34.75 189.75 -26.5 187.5 -20.25 184.0 -16.5 179.25 -14.5 174.5 Q-16.0 172.25 -31.0 172.25 L-61.5 161.0 Q-95.5 129.0 -104.75 131.75 L-102.0 125.25 -98.25 119.0 -98.0 118.5 -99.75 117.75 -117.5 102.75 -130.0 83.25 -133.5 73.25 -138.5 45.75 -139.25 31.25 -138.25 9.0 -168.75 43.0 Q-170.25 43.0 -170.5 39.25 L-151.0 20.0 -151.25 19.5 -141.75 9.5 -142.0 9.0 -129.75 -4.5 -130.0 -5.0 -126.75 -8.0 -127.0 -8.5 -123.75 -11.5 Q-124.0 -13.0 -118.25 -18.75 L-114.25 -22.5 -106.25 -33.75 -106.0 -32.25 -113.0 -16.0 -113.25 -14.0 -114.25 -13.0 -114.25 -11.5 -115.5 -9.75 -115.75 -7.5 -125.0 16.25 -131.75 37.75 -130.0 49.5 -128.0 56.75 -116.5 83.25 -99.25 99.25 -90.75 104.25 -89.25 104.5 Q-91.5 103.0 -88.0 94.5 L-73.25 115.75 -68.0 121.75 -33.25 137.5 Q4.25 146.25 38.5 129.75 L68.5 108.0 Q69.75 104.0 73.75 100.0 L84.0 78.5 Q85.0 94.0 95.0 78.5 108.0 66.5 115.0 38.25 L114.75 35.25 108.25 18.75 95.0 -7.25 61.25 -60.75 60.75 -61.75 61.25 -62.0 75.75 -51.0 M170.75 106.0 L172.0 107.25 174.25 116.75 170.75 106.0 M170.25 104.75 L160.25 64.5 161.0 64.75 171.0 105.5 170.25 104.75 M180.0 136.5 L180.75 136.75 181.0 138.25 180.0 136.5 M186.5 145.25 L192.0 144.5 191.75 146.25 188.0 148.0 185.0 147.75 184.25 146.75 186.5 145.25 M153.25 30.0 L154.0 30.0 155.25 37.75 153.25 30.0 M-63.5 -64.25 L-63.5 -67.0 -62.75 -63.0 -63.5 -64.25 M-24.0 -20.0 Q8.25 -20.0 14.5 -60.25 17.0 10.0 -26.75 14.0 -61.5 10.25 -63.5 -61.75 -61.75 -27.75 -24.0 -20.0 M-146.5 180.0 L-149.5 182.0 Q-157.75 181.75 -169.25 146.25 L-179.0 116.75 -180.25 114.75 -195.25 67.75 Q-197.5 39.75 -201.75 37.25 L-201.25 36.5 Q-197.75 38.0 -197.25 36.5 L-194.75 56.75 -193.75 58.25 -183.0 95.75 -181.75 102.25 -178.25 111.25 -165.25 152.25 Q-159.0 183.25 -146.75 178.75 L-146.5 180.0" fill="#000000" fill-opacity="0.49803922" fill-rule="evenodd" stroke="none"/>
  </g>
</svg>
