<?xml version="1.0" encoding="UTF-8" standalone="no"?>
<svg xmlns:ffdec="https://www.free-decompiler.com/flash" xmlns:xlink="http://www.w3.org/1999/xlink" ffdec:objectType="shape" height="321.35px" width="409.95px" xmlns="http://www.w3.org/2000/svg">
  <g transform="matrix(1.0, 0.0, 0.0, 1.0, 200.2, 118.75)">
    <path d="M5.75 -95.0 Q23.5 -88.0 22.25 -60.5 L22.0 -59.25 21.75 -54.75 20.75 -50.25 20.5 -49.5 20.5 -49.25 20.0 -46.25 Q9.75 -20.5 -11.75 -20.75 L-13.75 -20.75 -14.5 -20.5 Q-36.0 -19.0 -47.5 -36.75 L-47.75 -36.75 -52.5 -48.0 -52.5 -48.25 -52.75 -49.0 Q-63.5 -68.25 -43.25 -90.5 -39.5 -84.75 -19.0 -93.25 3.5 -88.5 5.75 -95.0 M72.75 115.75 Q81.75 110.9 89.15 105.25 105.05 128.95 110.5 154.0 111.0 193.0 55.25 201.0 30.5 204.25 16.75 193.0 8.05 187.3 7.2 151.65 43.85 149.2 72.75 115.75 M-7.95 151.35 Q-9.15 178.55 -18.25 194.25 L-19.75 196.0 -23.0 197.75 Q-29.75 203.5 -56.5 202.0 -114.0 193.25 -111.75 154.25 L-111.5 153.75 -111.5 153.5 Q-112.5 145.5 -99.5 121.25 L-96.2 115.9 -78.75 125.5 -68.25 129.0 Q-36.05 148.5 -7.95 151.35" fill="#e58508" fill-rule="evenodd" stroke="none"/>
    <path d="M-43.25 -90.5 L-48.25 -97.75 -49.5 -106.75 -49.5 -107.5 -48.25 -109.5 -46.5 -111.5 -44.75 -113.0 -42.0 -114.5 -35.5 -116.25 -32.0 -116.75 -24.5 -116.75 -24.0 -116.5 -23.75 -116.25 -22.25 -115.75 -21.0 -115.75 -20.5 -116.0 -17.25 -117.25 -6.0 -118.75 0.0 -118.0 3.0 -117.0 5.25 -115.75 7.25 -114.25 8.75 -112.5 9.25 -111.0 9.0 -102.25 5.75 -95.0 Q3.5 -88.5 -19.0 -93.25 -39.5 -84.75 -43.25 -90.5 M20.0 -46.25 L23.75 -36.5 32.5 -19.0 37.25 -5.25 52.5 23.0 58.25 31.25 72.5 45.25 74.25 49.25 79.25 56.75 84.0 67.5 86.5 88.0 Q86.25 93.4 84.4 98.5 81.05 107.6 72.75 115.75 43.85 149.2 7.2 151.65 -0.25 152.1 -7.95 151.35 -36.05 148.5 -68.25 129.0 L-81.5 117.5 -89.0 100.75 Q-90.25 99.5 -87.5 93.25 L-87.5 86.5 -81.25 78.0 -80.25 73.5 -75.0 62.75 -66.75 36.25 -65.0 32.75 -58.0 5.0 -55.5 -11.0 -47.75 -36.75 -47.5 -36.75 Q-36.0 -19.0 -14.5 -20.5 L-13.75 -20.75 -11.75 -20.75 Q9.75 -20.5 20.0 -46.25 M-34.75 -103.5 Q-40.75 -93.75 -30.0 -93.5 -19.75 -103.75 -34.75 -103.5 M-5.75 -105.75 Q-21.0 -103.0 -7.5 -95.25 2.5 -101.0 -5.75 -105.75" fill="#ffffff" fill-rule="evenodd" stroke="none"/>
    <path d="M-5.75 -105.75 Q2.5 -101.0 -7.5 -95.25 -21.0 -103.0 -5.75 -105.75 M-34.75 -103.5 Q-19.75 -103.75 -30.0 -93.5 -40.75 -93.75 -34.75 -103.5" fill="#000000" fill-rule="evenodd" stroke="none"/>
    <path d="M70.25 -62.5 L88.75 -50.5 100.0 -44.75 163.25 -8.5 164.75 2.25 167.0 11.25 167.25 16.0 166.25 13.75 163.0 -3.75 106.25 -34.5 Q123.5 6.25 121.5 46.75 120.25 79.25 88.75 104.75 L96.75 117.75 Q89.25 116.75 67.75 150.0 L40.25 166.25 20.0 170.5 13.5 173.25 Q12.5 184.5 36.5 189.25 L36.75 196.25 56.0 196.5 Q104.25 187.5 109.5 163.5 111.0 165.25 105.25 176.25 L99.75 183.0 Q74.0 205.5 29.0 199.75 6.75 195.5 7.5 151.75 L-7.5 151.5 Q-5.75 205.0 -43.0 202.5 -94.5 200.5 -107.25 175.25 L-110.75 167.25 Q-111.75 165.75 -110.75 164.0 -96.75 197.0 -44.0 197.75 L-39.75 197.25 Q-35.25 197.75 -37.25 189.75 L-34.75 189.75 -26.5 187.5 -20.25 184.0 -16.75 179.75 -14.25 174.5 Q-17.5 171.25 -31.75 171.5 L-62.75 159.0 Q-93.0 127.25 -103.25 129.0 L-102.0 125.0 -96.5 116.0 -100.0 113.75 -116.5 98.75 -128.25 79.25 -131.75 68.25 -135.5 42.75 -135.5 26.25 -134.75 12.5 -133.0 -1.0 -169.0 33.5 Q-171.25 33.75 -170.5 29.25 L-155.25 14.75 -145.25 7.0 -116.0 -22.0 -116.25 -22.5 -99.5 -40.0 -110.75 -15.0 -113.0 -8.0 -122.0 12.75 -121.75 13.5 -126.0 23.25 -129.25 35.0 -127.25 51.25 -119.0 72.75 -114.75 80.75 -98.25 96.75 -90.25 101.5 -88.5 102.0 Q-90.75 99.25 -87.0 92.5 L-73.0 114.0 Q-67.5 118.25 -67.75 119.75 L-34.25 136.25 -14.25 139.25 3.75 140.25 37.25 131.25 43.5 127.75 68.75 110.5 Q68.0 108.25 77.25 97.0 L85.25 81.0 Q87.0 81.25 86.75 88.0 L87.75 88.25 93.5 83.5 93.25 83.0 95.75 81.0 95.5 80.5 105.0 70.0 115.5 50.0 116.25 47.0 Q133.75 26.5 70.0 -61.75 L70.25 -62.5 M173.25 42.25 L176.5 55.25 176.75 59.0 177.5 59.75 182.5 79.5 186.75 92.75 188.0 99.5 189.0 100.75 193.25 115.75 189.0 104.25 183.0 81.75 181.75 79.25 182.0 78.25 180.75 75.75 181.0 74.75 179.75 72.25 172.5 41.5 173.25 42.25 M205.5 141.25 L204.0 141.25 202.25 140.0 204.5 138.5 209.75 138.0 209.5 139.75 205.5 141.25 M194.75 119.25 L194.75 120.25 194.0 119.0 194.75 119.25 M197.75 128.25 L198.5 130.75 197.0 128.0 197.75 128.25 M198.25 131.0 L199.0 131.25 199.5 133.0 198.25 131.0 M-14.0 -20.5 Q17.75 -22.0 22.5 -63.5 26.0 12.0 -20.75 13.5 -56.0 3.25 -55.5 -63.25 -48.75 -20.75 -14.0 -20.5 M-159.2 170.3 L-158.0 169.5 Q-153.0 168.75 -152.5 170.25 L-152.75 171.5 -155.75 173.0 Q-157.4 172.35 -159.2 170.3 M-195.25 47.75 L-188.75 72.25 -189.5 72.5 Q-190.75 66.5 -191.75 66.25 L-189.0 75.75 -188.25 75.75 Q-189.75 76.25 -187.5 78.25 L-188.25 78.75 -187.0 80.25 -187.25 82.25 -175.75 124.0 -164.75 159.75 -161.6 167.05 Q-171.75 151.2 -186.25 95.25 -206.0 32.5 -197.75 24.0 L-197.0 26.25 -196.75 36.25 -195.25 47.75" fill="#000000" fill-opacity="0.49803922" fill-rule="evenodd" stroke="none"/>
  </g>
</svg>
