<?xml version="1.0" encoding="UTF-8" standalone="no"?>
<svg xmlns:ffdec="https://www.free-decompiler.com/flash" xmlns:xlink="http://www.w3.org/1999/xlink" ffdec:objectType="shape" height="321.65px" width="383.75px" xmlns="http://www.w3.org/2000/svg">
  <g transform="matrix(1.0, 0.0, 0.0, 1.0, 191.25, 119.0)">
    <path d="M15.0 -95.0 Q34.0 -84.5 30.0 -58.5 L29.75 -58.0 29.75 -56.25 29.25 -53.0 29.0 -52.75 29.0 -52.0 28.25 -50.0 28.25 -49.5 28.0 -49.0 28.0 -48.75 27.25 -45.5 Q15.5 -20.0 -5.25 -21.5 L-8.0 -21.5 Q-30.75 -21.0 -40.75 -39.0 L-44.25 -48.25 -44.5 -48.75 -44.75 -49.5 -44.75 -49.75 -45.25 -51.25 Q-55.5 -70.75 -34.0 -92.25 -33.5 -89.25 -22.75 -90.0 L-9.75 -94.25 Q12.5 -88.5 15.0 -95.0 M72.75 118.5 Q82.4 113.2 90.35 107.05 105.25 129.9 110.5 154.0 111.0 193.0 55.25 201.0 30.5 204.25 16.75 193.0 8.05 187.3 7.2 151.75 43.2 150.2 72.75 118.5 M-7.95 151.1 Q-9.1 178.5 -18.25 194.25 L-19.75 196.0 -23.0 197.75 Q-29.75 203.5 -56.5 202.0 -114.0 193.25 -111.75 154.25 L-111.5 153.75 -111.5 153.5 Q-112.5 145.5 -99.5 121.25 L-94.5 113.15 -79.75 122.0 -68.75 126.25 Q-36.5 147.45 -7.95 151.1" fill="#e58508" fill-rule="evenodd" stroke="none"/>
    <path d="M-34.0 -92.25 L-38.75 -99.75 -39.5 -108.75 -39.5 -109.75 -38.25 -111.75 -34.75 -115.0 -29.0 -117.25 -25.75 -118.0 -22.0 -118.25 -14.25 -117.75 -13.5 -117.5 -13.5 -117.25 -11.75 -117.0 -10.75 -116.75 -7.0 -118.0 0.25 -119.0 7.5 -118.75 10.75 -118.0 13.25 -117.0 15.5 -115.75 17.5 -114.0 18.75 -112.25 19.25 -110.75 18.75 -102.5 15.0 -95.0 Q12.5 -88.5 -9.75 -94.25 L-22.75 -90.0 Q-33.5 -89.25 -34.0 -92.25 M27.25 -45.5 L31.0 -34.5 38.75 -17.5 43.5 -2.0 56.25 24.0 62.25 33.75 75.25 47.75 79.5 55.5 86.5 71.75 87.25 93.25 Q86.95 96.95 85.8 100.45 82.55 110.35 72.75 118.5 43.2 150.2 7.2 151.75 L-7.95 151.1 Q-36.5 147.45 -68.75 126.25 L-79.5 116.0 Q-81.75 114.5 -82.5 111.5 L-88.25 97.0 Q-85.25 88.75 -86.25 83.25 L-79.0 73.75 -78.0 70.0 -72.5 59.75 -63.0 33.5 -61.75 31.75 -60.5 26.25 -56.0 14.25 -49.75 -12.75 -40.75 -39.0 Q-30.75 -21.0 -8.0 -21.5 L-5.25 -21.5 Q15.5 -20.0 27.25 -45.5 M4.25 -106.25 Q-11.5 -103.5 2.5 -95.75 11.5 -100.5 4.25 -106.25 M-25.0 -105.0 Q-31.25 -95.25 -20.75 -94.75 -10.25 -105.25 -25.0 -105.0" fill="#ffffff" fill-rule="evenodd" stroke="none"/>
    <path d="M4.25 -106.25 Q11.5 -100.5 2.5 -95.75 -11.5 -103.5 4.25 -106.25 M-25.0 -105.0 Q-10.25 -105.25 -20.75 -94.75 -31.25 -95.25 -25.0 -105.0" fill="#000000" fill-rule="evenodd" stroke="none"/>
    <path d="M116.5 -27.25 L141.5 -8.25 161.0 5.25 161.0 9.75 160.25 10.75 160.25 10.0 114.75 -22.0 Q135.5 21.5 114.0 81.75 L100.75 98.75 90.25 107.25 98.25 120.25 Q91.0 118.75 71.75 148.25 35.75 174.0 13.5 173.5 12.5 184.5 36.5 189.25 L36.75 196.25 56.0 196.5 Q102.0 188.5 109.75 163.5 L110.0 165.0 105.25 176.25 Q84.75 204.0 33.25 200.75 9.0 205.0 7.5 151.75 L-7.75 151.0 Q-5.75 205.25 -43.0 202.5 -107.5 198.0 -111.25 164.0 -106.5 187.5 -57.0 197.5 L-37.5 197.25 -37.25 189.75 Q-14.75 186.25 -14.25 173.5 L-21.0 171.5 -32.5 170.5 -63.25 157.0 Q-91.75 124.25 -102.25 126.25 L-94.75 112.75 Q-120.75 95.0 -127.0 73.75 L-129.5 63.75 -132.5 37.25 -132.0 21.0 -129.5 2.75 -158.0 31.0 -159.5 26.75 -149.75 17.0 -127.5 -3.0 -127.75 -3.5 -121.75 -9.0 -122.0 -9.5 -91.5 -42.0 -92.25 -39.0 -102.75 -16.75 -102.5 -16.0 -103.5 -15.0 -103.75 -13.0 -104.75 -12.0 -105.0 -10.0 -106.0 -9.0 -106.5 -6.5 -113.0 7.75 -112.75 8.5 -116.0 15.5 -119.25 25.5 -120.0 26.0 -125.75 44.0 Q-122.75 63.25 -113.0 78.25 L-96.5 95.25 -88.25 100.25 Q-86.0 99.5 -88.25 95.0 L-86.5 90.25 Q-73.0 114.75 -68.25 115.25 L-67.25 117.75 -34.25 135.5 -16.5 138.5 2.75 140.25 38.25 132.0 69.25 112.5 69.25 111.5 71.25 110.0 79.5 95.25 80.25 95.0 80.5 93.5 82.0 92.0 86.5 83.25 Q86.25 93.5 92.0 88.0 L107.5 71.5 113.0 61.0 Q141.25 39.5 77.75 -55.5 L93.25 -43.25 116.5 -27.25 M191.2 14.9 L191.25 14.95 192.5 20.75 190.5 66.5 187.75 109.75 184.75 142.75 184.25 140.5 187.25 111.5 189.25 78.5 190.25 40.5 191.25 28.0 191.25 15.25 191.2 14.9 M179.25 157.75 L175.0 157.25 174.5 156.25 176.25 155.0 182.25 155.0 182.0 156.5 179.25 157.75 M183.25 148.5 L184.25 143.5 183.75 148.75 183.25 148.5 M-47.25 -63.75 Q-47.0 -31.0 -10.75 -21.5 20.25 -16.75 31.0 -63.0 33.0 13.5 -14.0 12.0 -48.5 0.25 -47.25 -63.75 M-141.2 164.7 Q-147.35 157.55 -157.25 130.75 L-166.75 103.5 -169.25 98.25 -184.75 52.25 -186.5 36.5 -190.25 29.25 Q-192.0 24.25 -190.75 23.0 -186.75 25.0 -186.25 23.0 L-185.5 31.75 -183.0 45.0 -179.25 55.25 -179.25 57.25 -176.25 65.25 -172.25 78.75 -172.5 80.5 -171.5 81.25 -172.0 82.0 -171.25 82.75 -171.5 83.75 -170.75 84.25 -157.75 124.25 -147.25 151.75 -141.2 164.7 M-140.3 165.7 L-133.25 165.0 -134.0 166.5 -137.75 167.25 Q-138.9 167.05 -140.3 165.7" fill="#000000" fill-opacity="0.49803922" fill-rule="evenodd" stroke="none"/>
  </g>
</svg>
