<?xml version="1.0" encoding="UTF-8" standalone="no"?>
<svg xmlns:ffdec="https://www.free-decompiler.com/flash" xmlns:xlink="http://www.w3.org/1999/xlink" ffdec:objectType="shape" height="321.95px" width="368.75px" xmlns="http://www.w3.org/2000/svg">
  <g transform="matrix(1.0, 0.0, 0.0, 1.0, 180.25, 119.25)">
    <path d="M24.0 -94.75 Q41.5 -85.75 37.75 -59.0 L37.75 -57.75 37.5 -57.25 36.75 -52.0 36.5 -51.25 36.25 -51.0 35.5 -48.5 35.5 -48.25 34.25 -44.5 Q23.25 -20.75 1.25 -22.25 L-1.5 -22.25 Q-22.0 -21.25 -33.5 -41.5 L-37.0 -50.75 -37.25 -52.0 -37.5 -52.75 Q-47.0 -74.25 -24.75 -94.0 -20.0 -88.0 -0.5 -95.0 13.0 -88.25 24.0 -94.75 M73.0 121.0 Q83.1 115.2 91.45 108.75 105.45 130.85 110.5 154.0 111.0 193.0 55.25 201.0 30.5 204.25 16.75 193.0 8.0 187.25 7.2 151.0 40.25 148.9 73.0 121.0 M-7.95 150.6 Q-9.0 178.35 -18.25 194.25 L-19.75 196.0 -23.0 197.75 Q-29.75 203.5 -56.5 202.0 -114.0 193.25 -111.75 154.25 L-111.5 153.75 -111.5 153.5 Q-112.5 145.5 -99.5 121.25 L-94.0 112.25 -94.0 112.0 -93.8 111.7 Q-82.9 119.15 -68.5 123.5 -59.0 141.25 -8.5 150.5 L-7.95 150.6" fill="#e58508" fill-rule="evenodd" stroke="none"/>
    <path d="M-24.75 -94.0 L-29.25 -101.75 -29.75 -111.5 -28.5 -113.5 -26.5 -115.25 -24.25 -116.75 -18.75 -118.75 -15.25 -119.25 -7.75 -119.25 -4.0 -118.75 -3.25 -118.25 -2.75 -118.0 -0.5 -117.5 2.0 -118.25 2.0 -118.5 14.5 -119.25 20.75 -118.0 23.75 -116.75 27.5 -113.75 28.75 -111.75 28.75 -110.5 Q29.75 -109.75 28.5 -102.5 L24.0 -94.75 Q13.0 -88.25 -0.5 -95.0 -20.0 -88.0 -24.75 -94.0 M34.25 -44.5 L38.5 -31.5 44.5 -16.75 48.5 -1.25 60.5 26.5 65.75 35.5 78.25 50.25 84.0 62.5 88.25 74.5 88.75 94.75 Q88.1 98.55 86.9 102.0 82.95 113.35 73.0 121.0 40.25 148.9 7.2 151.0 -0.4 151.45 -7.95 150.6 L-8.5 150.5 Q-59.0 141.25 -68.5 123.5 L-81.25 110.75 -86.75 95.0 -87.25 90.5 Q-86.25 90.5 -85.5 86.75 L-84.5 79.5 -77.25 71.0 -76.0 67.25 -70.0 57.0 -59.25 31.0 -57.5 28.25 -47.5 -0.5 -44.0 -14.75 -33.5 -41.5 Q-22.0 -21.25 -1.5 -22.25 L1.25 -22.25 Q23.25 -20.75 34.25 -44.5 M-15.0 -106.25 Q-21.75 -97.0 -11.5 -96.0 -0.25 -106.0 -15.0 -106.25 M13.5 -106.5 Q-1.25 -104.25 11.75 -96.0 21.75 -101.25 13.5 -106.5" fill="#ffffff" fill-rule="evenodd" stroke="none"/>
    <path d="M13.5 -106.5 Q21.75 -101.25 11.75 -96.0 -1.25 -104.25 13.5 -106.5 M-15.0 -106.25 Q-0.25 -106.0 -11.5 -96.0 -21.75 -97.0 -15.0 -106.25" fill="#000000" fill-rule="evenodd" stroke="none"/>
    <path d="M39.0 -64.5 Q39.75 4.25 3.25 11.0 -36.5 14.5 -39.25 -61.5 -35.0 -25.25 3.25 -22.25 35.25 -27.75 39.0 -64.5 M102.25 -31.0 L156.25 16.25 158.0 18.25 157.25 22.0 156.55 23.45 Q157.05 21.55 152.75 18.75 L122.75 -7.25 Q136.5 50.75 115.0 86.5 L100.25 103.75 92.0 109.5 99.75 122.5 Q92.5 121.0 72.0 150.25 32.75 175.5 13.5 173.5 12.5 184.5 36.5 189.25 L36.75 196.25 56.0 196.5 Q102.0 188.5 109.75 163.5 L110.0 165.0 105.25 176.25 Q84.75 204.0 33.25 200.75 9.0 205.0 7.5 151.75 L-8.0 150.75 Q-5.5 205.25 -43.0 202.5 -79.25 205.0 -105.75 178.25 L-109.75 169.75 Q-112.25 164.75 -110.75 164.0 -97.0 197.0 -43.5 197.75 L-39.75 197.25 Q-35.25 197.75 -37.25 189.75 L-34.75 189.75 -26.5 187.5 -19.75 183.5 -17.0 180.0 -14.0 173.5 Q-16.25 170.5 -33.5 169.25 L-63.0 155.25 -86.5 130.25 -94.75 126.5 -98.5 123.75 -100.5 123.5 -100.75 122.75 -93.0 110.75 Q-119.5 90.5 -125.25 68.75 -132.25 41.75 -126.5 8.25 L-127.0 7.75 -146.5 28.0 -147.0 28.25 -148.0 24.25 -137.5 13.25 -120.25 -2.5 -120.5 -3.0 -107.75 -16.0 -108.0 -16.5 -101.75 -22.5 -102.0 -23.0 -90.5 -35.0 -90.75 -35.5 -86.75 -39.5 -83.75 -44.0 -83.0 -44.0 -92.5 -22.75 -92.25 -22.0 -93.5 -20.5 -93.75 -18.5 -102.25 -0.5 -103.0 2.5 -104.5 4.5 -104.5 6.0 -105.25 6.5 -105.25 8.0 -106.0 8.5 -106.0 10.0 -106.75 10.5 -114.5 31.25 -121.75 53.0 Q-119.25 58.5 -120.0 59.5 L-111.0 76.0 -106.5 81.75 -95.25 93.25 -86.25 98.5 Q-88.75 90.25 -85.25 88.0 -76.5 106.75 -68.0 112.25 L-66.75 115.75 -34.25 134.5 -18.75 137.5 2.0 140.25 38.0 133.0 69.0 114.75 80.75 97.5 88.0 84.75 Q90.0 85.0 90.0 92.25 L95.75 88.0 95.5 87.5 109.75 73.0 115.5 62.5 120.0 52.0 Q131.0 36.75 84.75 -46.75 L84.25 -47.75 84.75 -48.5 102.25 -31.0 M186.25 14.75 L188.5 14.5 Q185.5 20.0 186.25 37.5 L177.25 78.5 159.0 150.5 Q154.0 167.5 151.25 168.5 L148.25 168.5 145.25 166.75 Q145.75 164.25 153.0 166.5 L152.75 165.75 157.0 156.5 157.0 154.25 164.5 127.5 170.25 101.5 171.25 99.5 171.0 98.25 172.5 94.0 172.25 92.75 173.75 88.5 173.5 87.25 175.0 83.0 177.25 70.25 186.0 32.5 186.25 14.75 M-39.25 -62.25 L-39.25 -63.5 -38.5 -62.0 -39.25 -62.25 M-155.0 84.75 L-153.0 88.25 -142.5 113.75 Q-139.75 119.25 -140.5 120.25 L-139.5 121.25 -129.25 145.25 -121.25 159.5 Q-120.75 160.5 -114.0 159.5 L-114.5 160.5 -119.5 161.75 -121.75 160.25 -128.25 150.25 -138.75 128.75 -154.75 91.75 -155.75 90.75 -171.75 51.25 Q-173.5 31.25 -179.25 27.0 L-180.25 23.5 -179.75 21.5 -175.5 22.0 -175.25 20.5 -174.0 29.25 -171.0 41.25 -166.75 51.25 -154.75 83.75 -155.0 84.75" fill="#000000" fill-opacity="0.49803922" fill-rule="evenodd" stroke="none"/>
  </g>
</svg>
