<?xml version="1.0" encoding="UTF-8" standalone="no"?>
<svg xmlns:ffdec="https://www.free-decompiler.com/flash" xmlns:xlink="http://www.w3.org/1999/xlink" ffdec:objectType="shape" height="322.45px" width="350.75px" xmlns="http://www.w3.org/2000/svg">
  <g transform="matrix(1.0, 0.0, 0.0, 1.0, 163.25, 119.75)">
    <path d="M39.25 -92.75 Q59.5 -75.0 48.5 -48.75 L47.75 -46.5 46.75 -44.5 46.75 -44.25 45.75 -41.5 Q34.5 -20.0 11.25 -21.75 L10.0 -21.75 8.75 -22.0 Q-14.75 -24.5 -22.25 -43.5 L-25.5 -55.5 Q-33.0 -76.75 -9.75 -95.0 -3.5 -90.25 2.5 -91.75 L14.75 -94.5 Q33.5 -86.5 39.25 -92.75 M72.75 125.5 Q84.35 123.05 95.15 114.9 106.15 134.05 110.5 154.0 111.0 193.0 55.25 201.0 30.5 204.25 16.75 193.0 8.05 187.3 7.2 151.6 38.75 151.1 72.75 125.5 M-7.95 150.35 Q-9.0 178.3 -18.25 194.25 L-19.75 196.0 -23.0 197.75 Q-29.75 203.5 -56.5 202.0 -114.0 193.25 -111.75 154.25 L-111.5 153.75 -111.5 153.5 Q-111.95 149.7 -109.3 142.3 L-108.75 143.25 -108.75 143.5 -108.5 144.0 -101.75 153.25 Q-96.25 156.5 -94.75 150.75 L-95.25 143.0 -100.25 122.7 -99.5 121.25 -94.0 112.25 -94.0 112.0 -93.0 110.25 -90.2 106.5 Q-79.95 114.7 -68.5 119.5 -56.0 140.0 -8.5 150.25 L-7.95 150.35" fill="#e58508" fill-rule="evenodd" stroke="none"/>
    <path d="M-9.75 -95.0 L-13.75 -102.75 Q-14.75 -111.25 -13.75 -112.0 L-12.25 -114.75 -10.25 -116.25 -4.75 -118.75 1.25 -119.75 8.75 -119.25 12.5 -118.5 15.0 -117.25 16.0 -117.0 17.75 -117.5 18.5 -117.5 18.5 -117.75 27.0 -118.0 34.0 -117.25 40.0 -114.75 42.0 -113.25 43.5 -111.5 44.75 -109.5 45.0 -108.0 43.5 -99.5 39.25 -92.75 Q33.5 -86.5 14.75 -94.5 L2.5 -91.75 Q-3.5 -90.25 -9.75 -95.0 M45.75 -41.5 L48.25 -31.0 54.0 -13.25 56.5 1.0 67.25 31.5 71.75 40.5 82.75 55.25 87.75 68.0 91.0 80.0 Q93.95 92.15 88.55 104.35 83.8 114.9 72.75 125.5 38.75 151.1 7.2 151.6 -0.45 151.7 -7.95 150.35 L-8.5 150.25 Q-56.0 140.0 -68.5 119.5 L-80.5 105.75 -84.75 90.5 -85.25 85.25 -83.0 81.25 -81.75 74.5 -74.0 66.5 -72.0 62.0 -64.5 50.75 -62.0 44.75 -51.0 24.75 -42.0 4.5 -34.25 -18.0 -22.25 -43.5 Q-14.75 -24.5 8.75 -22.0 L10.0 -21.75 11.25 -21.75 Q34.5 -20.0 45.75 -41.5 M29.0 -105.25 Q14.75 -104.0 26.5 -94.75 37.25 -99.0 29.0 -105.25 M4.25 -96.25 Q15.5 -105.25 0.75 -106.75 -7.0 -98.25 4.25 -96.25" fill="#ffffff" fill-rule="evenodd" stroke="none"/>
    <path d="M4.25 -96.25 Q-7.0 -98.25 0.75 -106.75 15.5 -105.25 4.25 -96.25 M29.0 -105.25 Q37.25 -99.0 26.5 -94.75 14.75 -104.0 29.0 -105.25" fill="#000000" fill-rule="evenodd" stroke="none"/>
    <path d="M52.0 -67.0 Q56.25 -2.5 16.5 11.75 -18.25 22.5 -26.0 -58.25 -10.5 -14.0 19.0 -22.0 50.5 -30.5 52.0 -67.0 M183.75 20.0 L184.5 20.0 185.0 23.0 183.75 20.0 M184.5 23.5 L185.25 23.5 185.25 24.25 184.5 24.25 185.0 24.0 184.5 23.5 M180.0 48.75 L177.25 54.25 176.75 54.0 181.75 35.75 182.25 36.0 180.0 45.75 180.0 48.75 M182.75 44.5 L183.75 37.75 185.95 30.3 Q184.85 34.3 187.5 36.0 186.5 40.5 183.25 43.75 L180.25 57.75 145.75 133.5 129.25 166.25 Q123.0 177.5 120.75 177.5 L118.5 177.25 Q115.5 176.25 115.25 174.75 119.25 172.5 122.25 175.75 L129.5 165.0 130.0 162.25 145.0 132.0 147.5 125.25 159.25 100.5 160.0 97.5 168.0 81.0 170.5 74.0 171.5 73.0 172.25 70.0 173.25 69.0 174.0 66.0 175.25 64.5 177.75 57.5 178.75 56.5 182.75 44.5 M136.5 12.0 L137.75 14.25 154.5 33.25 Q155.05 32.45 154.05 30.85 L155.25 32.25 156.0 34.25 Q154.75 34.0 154.75 37.5 L152.75 39.75 Q154.25 37.75 153.5 36.75 L132.25 12.75 Q135.5 74.5 117.5 92.25 L101.25 109.75 94.75 114.25 101.75 126.75 Q94.75 125.25 72.0 154.0 32.25 176.0 14.25 174.0 12.0 184.25 36.5 189.25 L36.75 196.25 55.75 196.5 Q104.25 187.5 109.75 163.5 L110.0 165.0 105.25 176.25 Q84.75 204.0 33.25 200.75 9.0 204.75 7.5 152.25 L-8.25 150.5 Q-5.5 205.5 -43.0 202.5 -79.25 205.0 -105.75 178.25 L-109.75 169.75 Q-112.25 164.75 -110.75 164.0 -97.0 197.0 -43.5 197.75 L-39.75 197.25 Q-35.25 197.75 -37.25 189.75 L-34.75 189.75 -26.5 187.5 -20.25 184.0 -16.0 178.5 -14.0 172.75 Q-14.5 171.5 -21.0 170.0 L-34.5 167.75 -62.5 152.75 Q-88.75 117.25 -98.0 119.5 L-98.25 118.75 -90.25 106.5 -97.5 100.75 -111.25 84.75 -115.0 72.25 -123.75 48.25 -124.0 31.75 -123.5 22.0 -121.75 13.0 -122.25 12.5 -132.0 22.5 -132.75 22.75 -134.0 19.25 -120.25 5.5 -120.5 5.0 -103.75 -10.0 -104.0 -10.5 -95.0 -19.5 -95.25 -20.0 -90.0 -25.0 -90.25 -25.5 -85.0 -30.5 -85.25 -31.0 -77.75 -38.5 -78.0 -39.0 -70.25 -47.5 Q-124.0 55.25 -107.75 73.75 L-101.0 81.75 -93.25 89.25 -84.75 94.5 Q-83.0 93.5 -85.25 85.75 L-83.75 84.5 -78.75 95.25 -66.0 112.5 -36.0 132.25 -19.75 136.75 0.25 140.5 37.25 135.0 Q76.0 124.5 90.75 85.0 L91.5 88.25 91.5 95.25 92.25 95.5 95.75 93.25 112.5 76.5 124.0 52.75 125.75 45.5 122.0 31.75 111.0 2.25 94.5 -37.5 126.75 2.75 136.5 12.0 M-118.0 0.0 L-116.0 -1.75 -117.5 0.25 -118.0 0.0 M-135.75 14.5 L-134.75 17.0 -136.75 14.0 -135.75 14.5 M-132.5 16.0 L-132.75 15.5 -118.75 1.5 -133.75 18.0 -134.75 17.5 -132.5 16.0 M-160.0 22.25 L-155.75 37.25 -144.75 62.25 Q-140.75 69.75 -142.0 71.25 L-140.5 72.75 Q-141.5 73.5 -138.75 78.25 L-122.25 114.25 -120.2 119.8 Q-169.85 30.8 -162.25 13.25 L-161.5 14.0 Q-159.25 21.0 -160.0 22.25 M-103.5 148.9 Q-98.8 152.85 -94.25 151.5 L-94.25 152.5 -100.25 154.5 -103.5 148.9 M-75.25 111.5 L-80.0 102.75 -82.0 100.5 -80.5 105.75 -75.25 111.5" fill="#000000" fill-opacity="0.49803922" fill-rule="evenodd" stroke="none"/>
  </g>
</svg>
