<?xml version="1.0" encoding="UTF-8" standalone="no"?>
<svg xmlns:ffdec="https://www.free-decompiler.com/flash" xmlns:xlink="http://www.w3.org/1999/xlink" ffdec:objectType="shape" height="321.65px" width="332.85px" xmlns="http://www.w3.org/2000/svg">
  <g transform="matrix(1.0, 0.0, 0.0, 1.0, 148.95, 119.0)">
    <path d="M53.5 -89.75 Q73.0 -70.25 60.25 -45.0 L59.5 -43.75 58.25 -41.0 58.25 -40.75 57.25 -38.0 Q43.5 -16.75 21.75 -20.75 L20.25 -21.0 19.25 -21.0 Q-3.5 -23.75 -10.5 -44.75 L-12.25 -52.0 -12.25 -52.5 -12.5 -53.0 -12.5 -53.75 -12.75 -54.5 -12.75 -55.0 -13.0 -56.25 Q-19.5 -79.25 5.0 -95.25 6.75 -88.75 29.5 -93.0 50.0 -83.5 53.5 -89.75 M72.25 130.0 Q86.6 127.15 97.95 120.0 101.2 126.15 103.75 132.4 L99.75 140.25 89.75 163.25 86.0 175.0 Q85.75 179.25 92.25 179.0 L102.75 168.0 110.35 158.5 Q107.7 193.45 55.25 201.0 30.5 204.25 16.75 193.0 8.2 187.4 7.2 152.75 39.75 154.05 72.25 130.0 M-7.95 150.75 Q-9.05 178.4 -18.25 194.25 L-19.75 196.0 -23.0 197.75 Q-29.75 203.5 -56.5 202.0 -114.0 193.25 -111.75 154.25 L-111.5 153.75 -111.5 153.5 Q-112.5 145.5 -99.5 121.25 L-99.45 121.15 -88.75 138.0 -82.0 146.75 Q-78.25 150.25 -74.5 144.5 L-76.0 135.25 -85.75 104.25 -80.25 108.5 -68.25 115.5 Q-38.1 144.05 -7.95 150.75" fill="#e58508" fill-rule="evenodd" stroke="none"/>
    <path d="M5.0 -95.25 L1.5 -103.75 2.25 -112.5 4.0 -115.0 6.25 -116.5 8.5 -117.5 11.75 -118.5 18.0 -119.0 25.5 -118.0 28.75 -117.25 29.75 -116.5 31.25 -115.75 32.5 -115.5 34.25 -115.75 35.0 -115.75 35.0 -116.0 43.25 -116.0 50.5 -114.5 53.5 -113.25 56.0 -111.75 58.0 -110.0 59.5 -108.0 60.5 -106.0 60.25 -104.75 Q61.0 -104.0 59.0 -96.75 L53.5 -89.75 Q50.0 -83.5 29.5 -93.0 6.75 -88.75 5.0 -95.25 M57.25 -38.0 L59.5 -24.0 63.25 -9.25 65.0 6.25 73.5 36.5 Q91.5 62.5 93.5 86.25 95.15 96.9 90.5 107.3 85.3 118.8 72.25 130.0 39.75 154.05 7.2 152.75 -0.4 152.45 -7.95 150.75 -38.1 144.05 -68.25 115.5 L-79.75 100.5 -82.75 85.25 -83.0 80.5 -79.75 75.25 -78.5 69.25 -70.25 62.0 -68.0 57.75 -58.5 45.0 -56.75 41.0 -45.0 22.75 -35.5 5.5 -25.0 -19.0 -10.5 -44.75 Q-3.5 -23.75 19.25 -21.0 L20.25 -21.0 21.75 -20.75 Q43.5 -16.75 57.25 -38.0 M16.5 -106.25 Q8.25 -97.75 19.75 -95.5 30.25 -104.75 16.5 -106.25 M38.0 -93.5 L44.0 -92.75 Q54.75 -103.75 37.25 -101.0 35.25 -96.5 38.0 -93.5" fill="#ffffff" fill-rule="evenodd" stroke="none"/>
    <path d="M38.0 -93.5 Q35.25 -96.5 37.25 -101.0 54.75 -103.75 44.0 -92.75 L38.0 -93.5 M16.5 -106.25 Q30.25 -104.75 19.75 -95.5 8.25 -97.75 16.5 -106.25" fill="#000000" fill-rule="evenodd" stroke="none"/>
    <path d="M65.0 -67.0 Q70.0 -3.75 31.0 13.25 -8.5 20.0 -13.0 -55.75 -2.75 -17.0 30.25 -20.5 59.75 -24.75 65.0 -67.0 M104.0 -25.5 L111.5 -12.25 112.75 -11.25 140.25 33.5 149.25 45.75 Q151.0 48.25 152.5 48.25 L150.0 52.0 147.75 53.75 149.75 51.0 139.0 35.0 Q141.75 85.75 97.25 118.25 L100.5 123.5 103.75 131.25 Q96.75 129.5 71.5 157.75 L35.0 172.25 Q18.5 172.0 14.0 174.75 13.75 184.75 36.5 189.25 L36.75 196.25 56.0 196.5 Q104.0 187.25 109.75 164.0 L110.0 165.0 105.25 176.25 Q84.75 204.0 33.25 200.75 9.0 204.75 7.5 152.25 L2.25 152.5 -8.25 150.25 Q-5.5 205.5 -43.0 202.5 -94.25 201.0 -107.75 174.25 L-110.75 167.25 Q-111.75 165.75 -110.75 164.0 -96.75 197.0 -44.0 197.75 L-39.75 197.25 Q-35.25 197.75 -37.25 189.75 L-34.75 189.75 -26.5 187.5 -20.0 183.75 -15.75 178.0 -14.0 173.5 Q-15.25 169.25 -36.0 166.0 L-64.75 148.5 -76.5 132.75 -85.5 103.75 -93.0 83.5 -82.25 91.0 Q-84.25 82.0 -82.5 81.0 L-80.75 85.75 -64.75 110.25 -36.0 131.25 -19.25 136.25 Q-11.0 144.25 36.25 137.0 L62.25 125.25 Q79.25 114.75 93.0 87.0 91.0 110.25 107.0 89.0 L106.75 88.5 115.0 79.5 123.75 62.75 124.75 62.0 128.0 54.0 126.0 44.25 120.75 26.5 103.5 -25.25 104.0 -25.5 M183.25 38.5 Q191.05 62.4 102.3 167.2 102.4 166.7 102.0 166.5 L123.25 139.0 126.25 134.0 127.25 133.5 127.5 132.25 137.25 119.5 144.75 108.0 156.25 93.0 161.75 84.5 163.5 83.0 168.5 75.0 169.5 74.5 170.75 71.5 Q170.0 70.25 168.5 72.25 L182.5 45.0 183.25 38.5 M181.25 49.5 L178.75 53.25 Q177.25 55.0 178.5 55.5 L181.25 49.5 M99.0 170.5 L100.35 169.5 99.2 170.85 99.0 170.5 M89.0 178.25 L86.0 176.0 92.75 177.75 97.6 172.75 92.0 179.25 89.0 178.25 M-87.75 -16.0 L-88.0 -16.5 -71.75 -33.5 -72.0 -34.0 -69.0 -36.5 -69.25 -37.0 -64.0 -42.0 -64.25 -42.5 -57.5 -50.0 -57.25 -48.75 -76.5 -8.25 -76.25 -7.5 -80.0 -0.5 -90.0 22.75 -103.0 56.0 -115.0 26.75 Q-118.5 20.0 -117.5 19.0 L-120.25 15.0 -122.25 10.25 Q-95.6 -10.95 -107.1 1.95 L-99.25 -6.25 -87.75 -16.0 M-103.5 -4.0 L-101.0 -6.25 -103.0 -3.75 -103.5 -4.0 M-79.5 96.75 L-80.5 96.0 -79.25 101.25 -75.0 106.0 -79.5 96.75 M-140.25 33.75 L-129.0 56.75 -129.5 57.5 -132.0 52.5 -132.5 52.75 -128.5 60.75 -126.25 63.5 -126.75 64.0 -125.75 64.5 -126.25 64.75 -105.75 105.25 -96.5 121.25 -93.85 126.9 Q-156.15 28.75 -148.0 9.5 L-146.75 10.75 Q-144.75 16.75 -145.5 17.75 L-140.25 33.75 M-80.25 148.0 L-81.6 145.95 -74.5 145.0 -74.25 145.5 -80.25 148.0" fill="#000000" fill-opacity="0.49803922" fill-rule="evenodd" stroke="none"/>
  </g>
</svg>
