<?xml version="1.0" encoding="UTF-8" standalone="no"?>
<svg xmlns:ffdec="https://www.free-decompiler.com/flash" xmlns:xlink="http://www.w3.org/1999/xlink" ffdec:objectType="shape" height="319.95px" width="317.6px" xmlns="http://www.w3.org/2000/svg">
  <g transform="matrix(1.0, 0.0, 0.0, 1.0, 137.25, 117.25)">
    <path d="M68.25 -85.75 Q86.0 -65.0 71.5 -40.5 L69.75 -37.25 69.75 -37.0 67.75 -33.5 Q51.5 -13.25 32.0 -19.0 L30.25 -19.25 29.5 -19.5 Q8.75 -22.25 1.0 -45.5 L0.0 -52.0 0.0 -52.25 -0.25 -53.25 -0.25 -54.25 -0.5 -55.75 -0.5 -57.0 Q-5.75 -79.5 20.0 -94.25 19.75 -91.5 30.75 -89.5 L44.5 -90.75 Q56.0 -82.0 68.25 -85.75 M71.5 134.5 L80.0 132.5 86.0 129.5 65.5 157.75 65.5 158.0 65.0 158.5 58.75 169.5 Q57.75 171.5 60.75 174.0 L64.0 174.5 72.75 169.25 96.0 150.0 106.8 140.5 Q109.0 147.2 110.5 154.0 111.0 193.0 55.25 201.0 30.5 204.25 16.75 193.0 8.25 187.4 7.25 153.0 36.8 153.3 71.5 134.5 M-8.0 151.55 Q-9.2 178.6 -18.25 194.25 L-19.75 196.0 -23.0 197.75 Q-29.75 203.5 -56.5 202.0 -114.0 193.25 -111.75 154.25 L-111.5 153.75 -111.5 153.5 Q-112.5 145.5 -99.5 121.25 L-94.0 112.25 -94.0 112.0 -93.0 110.25 -88.45 104.15 -80.75 116.5 -69.5 132.75 -61.75 141.5 Q-54.75 143.5 -55.0 138.5 L-59.0 122.5 -58.75 122.5 Q-35.85 146.3 -8.0 151.55" fill="#e58508" fill-rule="evenodd" stroke="none"/>
    <path d="M20.0 -94.25 L17.0 -103.0 18.5 -111.75 18.5 -112.5 22.25 -115.5 25.0 -116.5 31.0 -117.25 34.75 -117.25 41.75 -116.0 45.5 -114.75 46.25 -114.0 47.5 -113.25 48.75 -112.75 50.5 -113.0 51.25 -113.0 51.25 -113.25 56.25 -113.0 63.75 -111.75 66.75 -110.75 69.75 -109.25 72.0 -107.75 75.25 -103.75 76.0 -101.75 76.0 -100.25 73.5 -92.0 68.25 -85.75 Q56.0 -82.0 44.5 -90.75 L30.75 -89.5 Q19.75 -91.5 20.0 -94.25 M67.75 -33.5 L72.0 -5.75 73.0 11.25 78.75 39.5 82.25 50.5 90.75 66.0 94.25 80.25 95.5 91.5 91.75 112.25 Q85.25 127.5 71.5 134.5 36.8 153.3 7.25 153.0 -0.55 152.9 -8.0 151.55 -35.85 146.3 -58.75 122.5 L-59.0 122.5 -78.25 72.25 -76.5 69.5 -75.25 64.25 -71.5 62.0 -65.25 56.5 -63.75 53.5 -55.25 44.25 -51.25 37.75 -37.25 19.0 -26.75 2.25 -14.75 -21.25 1.0 -45.5 Q8.75 -22.25 29.5 -19.5 L30.25 -19.25 32.0 -19.0 Q51.5 -13.25 67.75 -33.5 M60.75 -99.25 L55.25 -99.5 52.0 -97.75 Q50.5 -87.5 59.0 -89.5 66.0 -91.75 60.75 -99.25 M29.5 -103.0 Q26.5 -92.75 36.5 -93.75 44.0 -106.25 29.5 -103.0" fill="#ffffff" fill-rule="evenodd" stroke="none"/>
    <path d="M60.75 -99.25 Q66.0 -91.75 59.0 -89.5 50.5 -87.5 52.0 -97.75 L55.25 -99.5 60.75 -99.25 M29.5 -103.0 Q44.0 -106.25 36.5 -93.75 26.5 -92.75 29.5 -103.0" fill="#000000" fill-rule="evenodd" stroke="none"/>
    <path d="M77.75 -65.0 Q81.75 4.25 41.75 15.5 2.75 16.5 -0.25 -49.75 8.5 -16.5 44.25 -18.75 68.5 -19.25 77.75 -65.0 M173.5 41.0 L174.25 41.5 176.75 51.5 173.5 41.0 M170.75 64.5 L159.75 78.25 Q159.0 77.0 162.75 73.0 L170.75 64.5 M180.25 56.0 Q183.75 82.75 64.0 174.75 L63.0 174.75 58.5 170.5 64.25 173.5 67.25 171.75 67.75 170.5 68.75 170.5 68.5 170.0 79.25 161.5 103.25 140.0 131.5 113.5 161.0 84.5 160.75 84.0 174.75 67.0 Q180.5 60.5 180.25 56.0 M171.0 63.5 L172.0 63.0 171.5 63.75 171.0 63.5 M125.25 17.75 L144.0 59.75 145.0 61.5 147.75 60.0 144.0 63.5 Q144.95 61.25 141.75 58.25 L139.5 68.0 100.25 112.0 100.5 112.5 80.75 136.75 77.5 142.0 72.25 148.25 72.0 149.5 67.5 154.75 67.0 156.5 64.5 159.0 61.75 164.25 33.75 173.75 19.5 174.0 14.25 175.25 Q17.0 186.5 36.5 189.25 L36.75 196.25 55.75 196.5 Q104.25 187.25 109.75 164.0 L110.0 165.0 105.25 176.25 Q84.75 204.0 33.25 200.75 9.0 204.75 7.5 152.25 L0.25 152.75 -7.5 150.5 Q-5.75 205.5 -43.0 202.5 -79.25 205.0 -105.75 178.25 L-111.25 165.75 Q-113.25 154.25 -109.25 143.5 L-107.5 145.25 -97.25 172.25 -95.5 178.75 -95.0 184.25 -87.0 189.0 -77.5 192.75 -67.0 195.5 -58.75 196.25 -57.25 196.5 -57.0 197.5 -37.5 197.25 -37.25 189.75 Q-15.0 186.75 -14.0 172.5 -14.5 170.75 -18.25 169.75 L-37.5 164.0 -63.5 146.25 Q-83.75 109.5 -93.0 111.5 L-93.25 110.5 -88.25 103.75 -92.25 98.25 -92.25 97.25 -93.75 95.75 -113.25 62.75 -126.75 37.75 -129.75 26.75 -131.75 25.25 -136.25 18.25 -137.25 15.25 -137.25 10.5 Q-134.5 7.25 -133.0 13.5 -131.0 10.75 -133.25 7.5 L-132.5 7.5 -130.5 15.25 -124.5 31.25 -114.5 50.0 -114.5 51.0 -122.25 37.75 -123.5 36.0 -123.5 37.25 -107.75 63.75 -91.25 93.25 -90.25 96.25 -76.25 118.75 -74.75 122.25 -62.0 140.75 -56.5 139.75 -54.75 139.25 -54.5 138.5 -57.5 126.0 -64.25 107.5 Q-32.0 145.5 35.0 139.0 76.5 132.25 94.75 90.5 L95.75 91.75 95.5 102.75 99.0 101.5 102.5 98.75 118.25 82.0 126.5 67.5 Q133.25 57.85 112.55 -9.2 L121.5 9.25 124.0 16.25 125.25 17.75 M-131.0 -6.25 Q-132.75 -6.0 -132.75 -3.0 L-133.25 -4.25 -131.5 -6.5 -131.0 -6.25 M-133.25 -3.0 L-133.75 1.75 -134.25 -1.25 -133.25 -3.0 M-86.0 -10.0 L-84.5 -11.25 -85.5 -9.75 -86.0 -10.0 M-47.0 -43.5 L-58.75 -20.5 -71.5 7.0 -88.5 48.0 -101.5 18.75 -104.25 14.75 -107.75 7.25 Q-94.5 8.75 -43.75 -52.0 -43.25 -51.0 -47.25 -44.25 L-47.0 -43.5 M-133.25 6.0 L-134.0 5.75 -134.25 4.0 -133.25 4.75 -133.25 6.0 M-123.5 20.0 L-125.75 15.0 -125.0 15.25 -123.5 20.0 M-58.5 142.5 L-55.25 140.5 -60.0 142.25 -58.5 142.5" fill="#000000" fill-opacity="0.49803922" fill-rule="evenodd" stroke="none"/>
  </g>
</svg>
