<?xml version="1.0" encoding="UTF-8" standalone="no"?>
<svg xmlns:ffdec="https://www.free-decompiler.com/flash" xmlns:xlink="http://www.w3.org/1999/xlink" ffdec:objectType="shape" height="321.45px" width="302.75px" xmlns="http://www.w3.org/2000/svg">
  <g transform="matrix(1.0, 0.0, 0.0, 1.0, 136.6, 118.75)">
    <path d="M8.75 -95.0 Q10.5 -88.75 33.25 -92.5 53.5 -82.5 57.0 -88.75 76.0 -69.0 63.75 -45.5 L63.5 -44.75 61.5 -40.75 61.5 -40.5 60.0 -37.0 Q43.75 -15.5 24.25 -20.25 L21.75 -20.75 Q-0.25 -23.25 -7.5 -45.0 L-7.75 -45.0 -9.25 -52.25 -9.25 -53.0 -9.5 -53.5 -9.5 -54.25 -10.0 -57.0 Q-16.0 -79.0 8.75 -95.0 M70.0 132.75 L53.5 156.5 53.25 157.0 52.75 157.5 46.5 169.0 Q45.5 170.75 48.25 173.0 L51.75 174.0 62.25 166.75 63.75 165.25 64.0 165.25 83.5 148.5 102.95 130.45 Q107.9 142.1 110.5 154.0 111.0 193.0 55.25 201.0 30.5 204.25 16.75 193.0 8.15 187.35 7.2 152.3 35.55 151.05 70.0 132.75 M-8.0 151.7 Q-9.2 178.65 -18.25 194.25 L-19.75 196.0 -23.0 197.75 Q-29.75 203.5 -56.5 202.0 -114.0 193.25 -111.75 154.25 L-111.5 153.75 -111.5 153.5 Q-112.5 145.5 -99.5 121.25 L-94.0 112.25 -94.0 112.0 -93.0 110.25 -87.9 103.45 -72.75 124.25 -60.0 140.0 -52.0 148.0 Q-45.25 149.75 -45.5 144.5 L-48.75 133.75 -48.5 133.75 Q-30.4 148.75 -8.0 151.7" fill="#e58508" fill-rule="evenodd" stroke="none"/>
    <path d="M8.75 -95.0 L5.5 -103.25 6.25 -112.25 6.75 -113.25 10.0 -116.25 12.5 -117.5 15.75 -118.25 22.0 -118.75 33.0 -116.75 35.25 -115.25 36.5 -114.75 38.5 -115.25 39.25 -115.25 40.25 -115.5 47.5 -115.25 51.5 -114.5 57.75 -112.25 60.25 -110.75 62.0 -109.0 63.5 -107.0 64.25 -105.0 64.5 -103.5 62.5 -95.5 57.0 -88.75 Q53.5 -82.5 33.25 -92.5 10.5 -88.75 8.75 -95.0 M60.0 -37.0 L61.75 -24.25 65.5 -8.0 67.0 7.0 74.75 37.25 79.5 48.5 88.25 62.5 91.75 74.5 94.0 89.25 91.75 104.0 91.75 104.25 70.0 132.75 Q35.55 151.05 7.2 152.3 L-8.0 151.7 Q-30.4 148.75 -48.5 133.75 L-48.75 133.75 -60.0 107.5 -78.5 70.0 -77.75 68.0 -68.25 59.5 Q-68.75 57.25 -59.75 48.0 L-42.5 21.0 -27.75 -7.0 -22.25 -20.25 -7.75 -45.0 -7.5 -45.0 Q-0.25 -23.25 21.75 -20.75 L24.25 -20.25 Q43.75 -15.5 60.0 -37.0 M19.25 -96.0 L25.25 -95.25 Q30.5 -110.0 17.75 -103.25 15.5 -98.5 19.25 -96.0 M49.5 -101.75 L45.25 -102.25 40.5 -100.0 Q39.75 -95.75 42.0 -92.75 L47.75 -92.0 51.25 -95.0 Q52.5 -100.75 49.5 -101.75" fill="#ffffff" fill-rule="evenodd" stroke="none"/>
    <path d="M49.5 -101.75 Q52.5 -100.75 51.25 -95.0 L47.75 -92.0 42.0 -92.75 Q39.75 -95.75 40.5 -100.0 L45.25 -102.25 49.5 -101.75 M19.25 -96.0 Q15.5 -98.5 17.75 -103.25 30.5 -110.0 25.25 -95.25 L19.25 -96.0" fill="#000000" fill-rule="evenodd" stroke="none"/>
    <path d="M68.25 -68.0 Q74.0 -4.0 33.75 13.75 -5.5 20.5 -10.0 -56.25 3.5 -13.5 32.75 -20.0 65.5 -26.0 68.25 -68.0 M163.25 48.0 L162.5 47.25 160.25 37.5 161.0 38.0 163.25 48.0 M166.0 51.5 Q170.5 78.5 52.25 174.0 L51.0 174.0 46.25 170.0 52.25 172.5 Q56.5 168.25 57.75 168.75 L58.0 168.25 57.0 168.5 64.5 162.75 82.25 146.25 139.25 90.75 137.25 91.0 146.0 82.5 145.75 82.0 160.0 64.0 Q159.5 62.75 164.5 57.5 L166.0 51.5 M120.0 63.25 L111.75 27.25 100.25 -16.5 130.75 56.25 Q130.75 59.0 134.0 56.5 L133.25 58.0 124.75 65.75 121.5 70.0 120.75 69.25 120.0 63.25 M148.5 69.5 L155.75 61.5 146.0 74.25 Q145.25 73.25 148.5 69.5 M156.0 60.5 L157.0 60.0 156.5 60.75 156.0 60.5 M67.25 137.5 L51.75 159.0 48.25 166.5 Q38.5 174.25 14.5 174.75 14.5 185.25 36.5 189.25 L36.75 196.25 56.0 196.5 Q104.0 187.25 109.75 163.75 110.5 165.5 105.25 176.25 L98.5 184.25 Q73.0 206.5 25.25 198.75 8.5 195.75 7.5 152.25 L1.5 152.5 -8.0 150.25 Q-5.5 205.5 -43.0 202.5 -79.25 205.0 -105.75 178.25 L-111.25 165.75 Q-113.0 152.75 -109.75 144.5 L-108.0 145.75 -97.25 168.75 -93.5 178.75 Q-91.75 184.75 -92.5 185.75 L-87.0 189.0 -77.5 192.75 -67.0 195.5 -58.75 196.25 -57.25 196.5 -57.0 197.5 -37.5 197.25 -37.25 189.75 Q-15.0 186.5 -14.0 173.25 -15.25 169.25 -36.25 165.5 L-63.25 148.75 Q-85.5 112.75 -95.0 114.5 L-95.25 113.75 -87.75 103.25 -92.75 96.0 -97.25 91.75 -105.75 80.75 Q-112.5 70.5 -112.25 67.0 L-123.75 49.75 -128.0 37.75 -132.25 33.75 -135.5 28.0 Q-139.0 19.25 -131.5 22.5 L-133.0 18.5 -132.0 18.75 Q-128.25 26.75 -128.75 28.25 L-123.25 40.25 -117.5 48.75 -98.75 80.75 -88.0 96.25 -77.5 113.25 -59.75 138.25 -52.0 147.25 -46.0 145.75 -45.0 145.25 -45.0 144.25 -49.0 131.75 -56.25 116.0 Q2.75 153.0 35.5 137.5 74.75 130.5 94.0 87.5 L94.0 99.0 94.5 100.0 96.5 99.25 88.75 108.25 76.25 125.5 68.0 135.5 67.25 137.5 M-84.5 -2.0 L-76.5 -11.5 -51.25 -45.5 -53.5 -38.5 -60.75 -22.25 -60.5 -21.5 -71.25 3.75 -76.0 17.5 -76.75 18.0 -76.75 19.5 -80.25 27.25 -88.5 50.5 -100.0 29.0 -107.5 16.75 Q-106.25 16.25 -104.5 20.75 L-103.25 20.5 -103.5 20.0 -100.0 16.5 -93.75 8.0 -84.25 -1.5 -84.5 -2.0 M-133.75 8.25 L-132.25 5.75 -132.75 8.5 -133.75 8.25 M-133.25 9.75 L-133.75 14.75 -134.25 9.5 -133.25 9.75 M-133.75 17.75 L-133.75 16.0 -132.5 18.0 -133.75 17.75 M-125.25 23.75 L-121.5 32.5 -126.0 23.5 -125.25 23.75 M-50.0 148.5 L-48.75 148.75 -45.5 146.5 -50.0 148.5" fill="#000000" fill-opacity="0.49803922" fill-rule="evenodd" stroke="none"/>
  </g>
</svg>
