<?xml version="1.0" encoding="UTF-8" standalone="no"?>
<svg xmlns:ffdec="https://www.free-decompiler.com/flash" xmlns:xlink="http://www.w3.org/1999/xlink" ffdec:objectType="shape" height="322.2px" width="287.3px" xmlns="http://www.w3.org/2000/svg">
  <g transform="matrix(1.0, 0.0, 0.0, 1.0, 134.65, 119.5)">
    <path d="M46.5 -91.25 Q66.25 -71.5 54.75 -48.0 L53.0 -43.75 53.0 -43.5 51.25 -39.75 Q37.0 -17.5 16.5 -21.25 L14.75 -21.5 14.0 -21.5 Q0.5 -19.5 -14.5 -40.25 L-16.25 -44.0 -16.5 -44.0 -18.25 -51.25 -18.5 -52.0 -18.5 -52.75 -18.75 -53.25 -18.75 -54.0 -19.0 -54.5 -19.0 -55.0 -19.25 -56.0 Q-26.25 -78.5 -2.5 -95.25 -2.5 -92.5 8.5 -91.5 L22.25 -94.0 Q42.5 -85.0 46.5 -91.25 M51.25 140.25 L40.25 157.0 34.25 168.75 Q33.5 171.5 36.5 173.0 L39.75 173.5 50.0 165.75 76.25 142.0 98.1 120.3 Q106.75 136.85 110.5 154.0 111.0 193.0 55.25 201.0 30.5 204.25 16.75 193.0 8.15 187.35 7.2 152.2 16.45 151.7 28.5 149.0 L51.25 140.25 M-7.95 151.2 Q-9.1 178.5 -18.25 194.25 L-19.75 196.0 -23.0 197.75 Q-29.75 203.5 -56.5 202.0 -114.0 193.25 -111.75 154.25 L-111.5 153.75 -111.5 153.5 Q-112.5 145.5 -99.5 121.25 L-94.0 112.25 -94.0 112.0 -93.0 110.25 -88.6 104.4 -81.5 110.0 -67.25 127.0 -50.75 145.0 -41.75 152.75 Q-35.5 155.0 -35.25 149.0 L-38.25 141.0 -38.0 141.0 -25.75 147.25 -13.5 149.25 Q-11.05 150.45 -7.95 151.2" fill="#e58508" fill-rule="evenodd" stroke="none"/>
    <path d="M-2.5 -95.25 L-6.0 -103.0 -5.75 -112.25 -4.25 -115.0 -2.25 -116.5 0.25 -117.75 3.5 -118.75 9.5 -119.5 17.0 -118.75 20.75 -118.0 21.5 -117.25 24.25 -116.25 26.0 -116.75 26.75 -116.75 26.75 -117.0 35.0 -117.25 39.25 -116.75 42.25 -116.0 45.5 -114.75 47.75 -113.5 50.0 -111.75 51.5 -110.0 52.5 -107.75 52.5 -106.5 Q53.25 -105.75 51.25 -98.25 L46.5 -91.25 Q42.5 -85.0 22.25 -94.0 L8.5 -91.5 Q-2.5 -92.5 -2.5 -95.25 M51.25 -39.75 L58.25 -12.75 61.0 4.25 70.25 33.75 74.25 42.25 85.25 58.5 89.75 71.5 92.25 82.75 92.25 85.75 70.25 113.75 51.25 140.25 28.5 149.0 Q16.45 151.7 7.2 152.2 -1.7 152.7 -7.95 151.2 -11.05 150.45 -13.5 149.25 L-25.75 147.25 -38.0 141.0 -38.25 141.0 -40.0 137.5 -40.0 137.25 -54.0 110.25 -78.0 69.5 -72.0 64.25 -70.25 59.75 -63.25 50.75 -47.5 23.0 -35.5 -2.5 -29.25 -19.5 -16.5 -44.0 -16.25 -44.0 -14.5 -40.25 Q0.5 -19.5 14.0 -21.5 L14.75 -21.5 16.5 -21.25 Q37.0 -17.5 51.25 -39.75 M36.25 -104.25 Q22.75 -103.5 34.0 -93.75 45.25 -98.0 36.25 -104.25 M8.75 -106.5 Q0.5 -98.0 12.0 -96.0 22.5 -105.5 8.75 -106.5" fill="#ffffff" fill-rule="evenodd" stroke="none"/>
    <path d="M8.75 -106.5 Q22.5 -105.5 12.0 -96.0 0.5 -98.0 8.75 -106.5 M36.25 -104.25 Q45.25 -98.0 34.0 -93.75 22.75 -103.5 36.25 -104.25" fill="#000000" fill-rule="evenodd" stroke="none"/>
    <path d="M58.5 -66.5 Q63.25 -6.0 25.75 12.25 -14.25 21.5 -19.5 -56.75 -4.5 -14.25 24.5 -21.25 55.0 -27.25 58.5 -66.5 M91.0 -16.25 L117.75 54.75 119.75 53.5 118.75 55.5 109.25 65.25 99.75 22.25 89.75 -18.0 91.0 -16.25 M148.75 44.75 L146.75 34.5 147.5 35.25 149.5 45.0 148.75 44.75 M149.0 55.5 L151.5 47.5 Q160.5 65.25 98.5 120.0 L102.75 129.0 Q96.0 127.25 73.0 155.0 L67.5 158.0 52.25 164.25 40.75 173.0 40.05 172.0 50.5 164.0 51.25 162.5 85.0 129.5 132.5 80.75 Q131.0 76.25 149.0 55.5 M144.25 63.0 L144.75 63.25 145.25 61.75 144.25 63.0 M55.0 134.75 L40.5 157.5 39.0 158.75 34.5 167.75 34.25 169.5 35.55 170.15 Q28.7 169.35 13.75 174.25 14.75 185.5 36.5 189.25 L36.75 196.25 56.0 196.5 Q104.25 187.5 109.5 163.5 111.0 165.25 105.25 176.25 L98.75 184.0 Q73.0 206.5 25.25 198.75 8.5 195.75 7.5 152.25 L3.25 152.5 -8.0 150.25 Q-5.5 205.5 -43.0 202.5 -79.25 205.0 -105.75 178.25 L-111.25 165.75 Q-113.0 152.5 -109.75 145.0 L-107.5 146.75 -98.25 163.75 -92.0 176.75 Q-88.5 185.75 -89.25 187.25 L-87.0 189.0 -77.5 192.75 -67.0 195.5 -58.75 196.25 -57.25 196.5 -57.0 197.5 -37.5 197.25 -37.25 189.75 Q-15.0 186.5 -14.0 173.25 -15.5 169.75 -35.75 166.75 L-63.5 150.75 Q-87.75 115.25 -97.0 117.5 L-95.75 114.5 -88.75 104.5 -99.75 94.75 -110.75 80.75 Q-126.5 40.0 -133.5 38.5 -137.0 29.0 -129.75 33.25 L-131.25 29.5 -130.5 29.75 -121.75 47.75 -108.0 66.25 -88.75 94.25 -65.5 124.5 -52.5 139.75 -49.5 144.25 -41.75 152.25 -34.75 149.75 -39.25 137.75 -46.0 125.0 Q-8.0 157.0 63.75 123.0 L55.0 134.75 M-58.75 -38.25 L-58.25 -38.5 -58.75 -35.5 -75.25 11.5 -75.5 14.0 -78.25 20.75 -78.25 22.5 -88.25 52.75 -98.5 36.25 -106.75 25.25 Q-105.5 25.0 -102.5 30.25 L-101.0 29.5 -83.5 3.0 -83.5 2.0 -81.0 -1.0 -81.0 -2.0 -78.25 -5.5 -78.25 -6.5 -58.75 -38.25 M-119.75 42.25 L-124.75 33.0 -124.0 33.0 -119.0 42.5 -119.75 42.25 M-132.25 20.25 Q-133.5 22.5 -132.25 25.5 L-133.25 24.75 -133.25 20.0 -132.25 20.25 M-131.5 16.5 L-132.25 19.5 -132.75 18.5 -131.5 16.5 M-132.0 26.0 L-131.25 28.75 -133.25 26.5 -132.0 26.0 M-133.0 29.25 L-133.25 31.25 -133.75 29.0 -133.0 29.25 M-35.5 151.5 L-39.75 153.5 -39.0 153.75 -35.5 151.5" fill="#000000" fill-opacity="0.49803922" fill-rule="evenodd" stroke="none"/>
  </g>
</svg>
