<?xml version="1.0" encoding="UTF-8" standalone="no"?>
<svg xmlns:ffdec="https://www.free-decompiler.com/flash" xmlns:xlink="http://www.w3.org/1999/xlink" ffdec:objectType="shape" height="322.4px" width="303.55px" xmlns="http://www.w3.org/2000/svg">
  <g transform="matrix(1.0, 0.0, 0.0, 1.0, 147.75, 119.75)">
    <path d="M35.5 -93.25 Q52.75 -83.0 46.5 -54.0 L46.5 -52.0 45.0 -48.25 44.75 -47.75 44.25 -46.25 44.25 -46.0 43.0 -42.5 Q31.5 -19.75 8.75 -22.0 L6.25 -22.0 Q-17.25 -24.25 -25.0 -43.0 L-28.0 -52.5 -28.0 -53.0 -28.5 -55.0 Q-37.0 -75.75 -13.5 -94.75 -13.25 -91.5 -1.75 -91.75 L11.0 -94.75 Q32.5 -86.75 35.5 -93.25 M72.75 124.5 L82.25 120.75 62.75 163.0 58.75 175.75 Q58.75 178.25 60.75 179.25 L64.75 179.75 73.75 170.5 74.5 169.5 74.75 169.25 74.75 169.0 75.25 168.5 96.0 141.75 103.3 131.35 Q108.0 142.55 110.5 154.0 111.0 193.0 55.25 201.0 30.5 204.25 16.75 193.0 8.15 187.35 7.2 152.15 41.15 152.05 72.75 124.5 M-7.95 150.85 Q-9.05 178.45 -18.25 194.25 L-19.75 196.0 -23.0 197.75 Q-29.75 203.5 -56.5 202.0 -114.0 193.25 -111.75 154.25 L-111.5 153.75 -111.5 153.5 Q-112.5 145.5 -99.5 121.25 L-97.1 117.35 -85.75 133.0 -70.75 151.5 -63.0 159.25 Q-57.0 161.5 -56.25 155.75 L-58.75 146.5 -60.25 144.0 -60.25 142.75 -71.0 119.5 -70.75 119.5 -68.75 120.5 Q-37.5 145.75 -7.95 150.85" fill="#e58508" fill-rule="evenodd" stroke="none"/>
    <path d="M-13.5 -94.75 L-18.0 -103.75 -17.75 -111.75 -16.25 -114.5 -12.0 -117.5 -9.25 -118.5 -2.75 -119.75 8.25 -118.75 9.25 -118.0 12.0 -117.25 13.75 -117.75 14.5 -117.75 15.0 -118.0 16.0 -118.25 19.25 -118.5 27.0 -118.25 30.0 -117.75 35.75 -115.5 38.0 -113.75 39.75 -112.0 40.75 -110.0 41.0 -108.75 39.25 -99.5 35.5 -93.25 Q32.5 -86.75 11.0 -94.75 L-1.75 -91.75 Q-13.25 -91.5 -13.5 -94.75 M43.0 -42.5 L46.75 -28.25 51.75 -13.75 54.5 0.25 65.5 30.0 71.25 40.75 82.0 54.5 86.5 65.5 90.25 78.25 89.75 99.0 88.35 104.1 Q84.05 116.75 72.75 124.5 41.15 152.05 7.2 152.15 -0.3 152.2 -7.95 150.85 -37.5 145.75 -68.75 120.5 L-72.5 116.25 -86.0 88.75 Q-86.75 87.5 -83.25 82.0 L-82.5 75.5 -74.75 67.75 -72.75 62.75 -65.5 51.5 -63.25 45.75 -52.0 24.0 -41.25 -2.5 -37.25 -15.75 -25.0 -43.0 Q-17.25 -24.25 6.25 -22.0 L8.75 -22.0 Q31.5 -19.75 43.0 -42.5 M22.75 -105.75 L20.25 -105.0 17.25 -102.25 19.0 -96.0 23.75 -95.25 Q33.75 -105.25 22.75 -105.75 M-3.25 -106.75 Q-10.5 -97.75 0.25 -96.25 11.5 -105.75 -3.25 -106.75" fill="#ffffff" fill-rule="evenodd" stroke="none"/>
    <path d="M22.75 -105.75 Q33.75 -105.25 23.75 -95.25 L19.0 -96.0 17.25 -102.25 20.25 -105.0 22.75 -105.75 M-3.25 -106.75 Q11.5 -105.75 0.25 -96.25 -10.5 -97.75 -3.25 -106.75" fill="#000000" fill-rule="evenodd" stroke="none"/>
    <path d="M48.25 -66.75 Q54.5 -5.5 12.5 11.5 -21.25 22.0 -29.25 -58.25 -21.5 -20.5 16.25 -22.25 47.25 -30.5 48.25 -66.75 M86.0 -25.75 L85.75 -25.0 88.5 -20.75 116.25 34.5 123.25 46.25 124.5 46.0 Q118.5 57.5 116.5 58.0 L111.5 67.5 98.25 17.75 84.75 -27.0 86.0 -25.75 M151.0 49.0 L150.55 50.0 Q153.0 45.35 154.75 45.5 159.25 50.25 144.0 73.25 L120.75 107.25 101.75 133.25 101.5 134.5 94.5 143.25 94.25 144.5 79.0 163.5 74.25 170.5 64.75 180.0 61.75 179.75 Q59.75 179.25 58.5 176.5 59.75 174.0 65.0 178.25 L74.25 169.0 75.25 166.25 93.25 142.5 93.5 141.25 141.75 72.0 150.75 55.0 153.25 48.75 Q151.25 49.0 147.5 58.5 L144.25 66.0 140.75 69.75 140.25 69.25 150.5 48.5 151.0 49.0 M152.75 44.25 Q154.5 43.25 154.25 37.0 L155.0 38.5 Q155.0 44.5 153.75 45.0 L152.75 44.25 M99.5 88.5 L91.5 102.75 72.5 141.0 66.0 157.0 Q34.0 174.5 14.0 174.0 12.25 184.25 36.5 189.25 L36.75 196.25 55.5 196.5 Q104.5 187.0 109.25 164.25 L110.0 163.5 110.0 164.75 105.25 176.25 98.75 184.0 Q73.0 206.5 25.25 198.75 8.5 196.0 7.5 151.75 L5.75 152.25 -8.0 150.5 Q-5.5 205.5 -43.0 202.5 -93.25 203.25 -109.75 169.75 L-111.25 165.75 -110.75 164.0 Q-106.25 179.75 -87.0 189.0 L-77.5 192.75 -67.75 195.25 -57.5 196.5 -57.0 197.5 -37.5 197.25 -37.25 189.75 Q-15.75 186.25 -14.25 174.5 -15.0 169.25 -34.75 168.0 L-55.75 157.0 -58.75 146.5 -68.75 123.25 -85.25 90.25 -85.75 87.75 -84.75 85.0 Q-81.5 96.25 -63.5 115.25 L-35.25 133.25 -18.25 137.25 2.0 140.25 36.75 134.5 67.0 118.5 70.25 116.0 78.0 105.5 78.75 103.5 79.75 103.0 81.5 99.5 90.5 87.0 90.5 84.5 91.0 94.75 94.25 93.0 99.5 88.5 M61.0 177.0 L61.25 176.5 60.5 176.5 61.0 177.0 M-69.25 -35.0 L-90.5 25.0 -100.75 59.5 -101.5 59.5 -114.25 35.5 -115.95 32.7 Q-113.6 32.8 -110.75 27.0 L-69.0 -37.5 -69.25 -35.0 M-144.75 20.5 L-145.75 20.25 -144.25 17.5 -144.75 20.5 M-145.25 21.75 L-145.5 23.25 -146.25 21.5 -145.25 21.75 M-145.5 24.0 L-145.5 26.5 Q-145.7 26.0 -146.1 26.2 -145.3 25.6 -146.25 23.5 L-145.5 24.0 M-145.75 28.75 L-145.75 27.5 -145.0 27.75 -144.75 29.75 -145.75 28.75 M-144.0 30.75 L-135.5 51.25 -134.25 52.25 -106.5 97.5 -86.0 128.25 -80.0 135.75 -70.25 150.25 -63.0 158.25 -56.0 157.0 -61.25 160.25 -62.5 160.0 -69.5 153.25 -80.5 139.75 -91.75 124.25 -96.0 121.25 -98.5 120.5 Q-96.25 112.0 -129.25 70.75 -141.25 42.25 -146.25 41.25 L-147.75 37.75 -147.75 34.75 Q-145.0 33.25 -143.25 34.75 L-144.75 30.5 -144.0 30.75 M-146.75 33.0 L-147.25 31.0 -146.25 31.25 -146.75 33.0 M-138.0 35.5 L-137.25 35.75 -133.25 45.0 -138.0 35.5" fill="#000000" fill-opacity="0.49803922" fill-rule="evenodd" stroke="none"/>
  </g>
</svg>
