<?xml version="1.0" encoding="UTF-8" standalone="no"?>
<svg xmlns:ffdec="https://www.free-decompiler.com/flash" xmlns:xlink="http://www.w3.org/1999/xlink" ffdec:objectType="shape" height="321.95px" width="319.3px" xmlns="http://www.w3.org/2000/svg">
  <g transform="matrix(1.0, 0.0, 0.0, 1.0, 160.25, 119.25)">
    <path d="M24.0 -94.75 Q41.5 -85.75 37.75 -59.0 L37.75 -57.75 37.5 -57.25 36.75 -52.0 36.5 -51.25 36.25 -51.0 35.5 -48.5 35.5 -48.25 34.25 -44.5 Q23.25 -20.75 1.0 -22.25 L-1.5 -22.25 Q-22.0 -21.25 -33.5 -41.5 L-37.0 -50.75 -37.25 -52.0 -37.5 -52.75 Q-47.0 -74.25 -24.75 -94.0 -20.0 -88.0 -0.5 -95.0 13.0 -88.25 24.0 -94.75 M73.0 121.0 L84.25 115.5 92.05 109.75 Q95.6 115.45 98.6 121.2 L94.75 133.5 87.0 164.0 85.0 178.25 Q84.5 180.0 87.75 181.25 L91.75 181.0 99.0 169.75 99.5 169.5 99.25 169.5 99.75 169.0 109.65 150.4 110.5 154.0 Q111.0 193.0 55.25 201.0 30.5 204.25 16.75 193.0 8.0 187.25 7.2 151.0 40.25 148.9 73.0 121.0 M-7.95 150.6 Q-9.0 178.35 -18.25 194.25 L-19.75 196.0 -23.0 197.75 Q-29.75 203.5 -56.5 202.0 -114.0 193.25 -111.75 154.25 L-111.5 153.75 -111.5 153.5 Q-112.15 148.2 -106.65 135.75 L-103.0 141.5 -92.0 157.0 -92.0 157.25 -84.25 166.0 Q-79.25 168.5 -77.25 163.0 L-79.25 153.5 -80.5 150.75 -88.25 128.75 -94.65 113.35 -94.0 112.25 -94.0 112.0 -93.05 110.35 -79.25 119.25 -68.5 123.5 Q-59.0 141.25 -8.5 150.5 L-7.95 150.6" fill="#e58508" fill-rule="evenodd" stroke="none"/>
    <path d="M-24.75 -94.0 L-29.25 -101.75 -29.75 -111.5 -28.5 -113.5 -26.5 -115.25 -24.25 -116.75 -18.75 -118.75 -15.25 -119.25 -7.75 -119.25 -4.0 -118.75 -3.25 -118.25 -2.75 -118.0 -0.5 -117.5 2.0 -118.25 2.0 -118.5 14.5 -119.25 20.75 -118.0 23.75 -116.75 27.5 -113.75 28.75 -111.75 28.75 -110.5 Q29.75 -109.75 28.5 -102.5 L24.0 -94.75 Q13.0 -88.25 -0.5 -95.0 -20.0 -88.0 -24.75 -94.0 M34.25 -44.5 L38.5 -31.5 44.5 -16.75 48.5 -1.25 60.5 26.5 65.75 35.5 78.25 50.25 84.0 62.5 88.25 74.5 88.75 94.75 Q88.1 98.55 86.9 102.0 82.95 113.35 73.0 121.0 40.25 148.9 7.2 151.0 -0.4 151.45 -7.95 150.6 L-8.5 150.5 Q-59.0 141.25 -68.5 123.5 L-81.25 110.75 -86.75 95.0 -87.25 90.5 Q-86.25 90.5 -85.5 86.75 L-84.5 79.5 -77.25 71.0 -76.0 67.25 -70.0 57.0 -59.25 31.0 -57.5 28.25 -47.5 -0.5 -44.0 -14.75 -33.5 -41.5 Q-22.0 -21.25 -1.5 -22.25 L1.0 -22.25 Q23.25 -20.75 34.25 -44.5 M-15.0 -106.25 Q-21.75 -97.0 -11.5 -96.0 -0.25 -106.0 -15.0 -106.25 M13.5 -106.5 Q-1.25 -104.25 11.75 -96.0 21.75 -101.25 13.5 -106.5" fill="#ffffff" fill-rule="evenodd" stroke="none"/>
    <path d="M13.5 -106.5 Q21.75 -101.25 11.75 -96.0 -1.25 -104.25 13.5 -106.5 M-15.0 -106.25 Q-0.25 -106.0 -11.5 -96.0 -21.75 -97.0 -15.0 -106.25" fill="#000000" fill-rule="evenodd" stroke="none"/>
    <path d="M39.0 -64.5 Q39.75 4.25 3.25 11.0 -36.5 14.5 -39.25 -61.5 -35.0 -25.25 3.25 -22.25 35.25 -27.75 39.0 -64.5 M151.75 49.0 L148.5 57.75 148.0 57.5 152.75 41.25 Q153.75 42.0 151.75 49.0 M156.25 25.75 L155.75 23.5 157.0 26.0 156.25 25.75 M116.0 19.75 L128.5 37.75 Q108.25 108.75 92.0 109.5 L97.5 118.5 Q99.75 121.5 98.75 122.5 92.5 121.75 72.5 149.75 L67.0 154.0 37.75 168.75 19.0 171.5 Q15.0 172.0 14.0 173.5 12.25 184.5 36.5 189.25 L36.75 196.25 56.0 196.5 Q102.0 188.5 109.75 163.5 L110.0 165.0 105.25 176.25 Q84.75 204.0 33.25 200.75 9.0 205.0 7.5 151.75 L-8.0 150.75 Q-5.5 205.25 -43.0 202.5 -79.25 205.0 -105.75 178.25 L-109.75 169.75 Q-112.25 164.75 -110.75 164.0 -97.0 197.0 -43.5 197.75 L-39.75 197.25 Q-35.25 197.75 -37.25 189.75 L-34.75 189.75 -26.5 187.5 -20.25 184.0 -15.75 178.0 -14.25 173.5 Q-18.75 170.0 -33.5 169.25 L-64.0 154.75 -86.0 130.75 -88.0 129.75 -94.25 114.25 Q-95.5 113.25 -93.0 110.75 -92.75 109.5 -96.75 107.75 L-109.0 79.25 -108.5 79.0 -95.25 93.25 -86.25 98.5 Q-88.75 90.25 -85.25 88.0 -76.5 106.75 -68.0 112.25 L-66.75 115.75 -35.25 134.0 -20.5 137.25 Q-4.75 145.25 37.75 133.0 L69.0 114.75 80.75 97.5 88.0 84.75 Q90.0 85.0 89.25 92.25 L93.25 90.0 109.75 73.0 112.75 67.5 104.25 36.25 79.0 -35.0 108.5 10.75 116.0 19.75 M150.5 60.0 L153.25 53.0 157.75 34.5 Q162.5 39.0 150.0 66.25 L134.0 101.0 110.0 149.25 110.0 150.5 107.5 154.0 98.75 171.5 93.0 180.0 91.25 181.5 87.5 181.25 Q85.25 180.25 85.0 178.75 86.5 176.5 91.75 180.0 L98.0 171.5 99.5 167.0 122.0 122.0 121.75 121.25 129.5 106.0 129.5 104.75 133.0 98.5 132.75 97.75 150.5 60.0 M-39.25 -62.25 L-39.25 -63.5 -38.5 -62.0 -39.25 -62.25 M-80.0 -33.0 L-103.75 34.0 -103.5 35.0 -109.0 50.75 -113.75 68.5 -129.0 35.75 -121.75 27.0 -113.75 14.5 -112.75 14.0 -112.0 12.0 -106.25 4.5 -79.5 -36.0 -80.0 -33.0 M-157.75 22.0 L-158.25 21.0 -157.5 21.0 -157.75 22.0 M-158.5 27.5 L-159.25 26.5 -158.5 26.5 -158.5 27.5 M-158.5 31.0 L-157.75 31.0 -157.75 31.75 -158.5 31.0 M-158.0 32.0 L-157.0 32.75 -153.75 42.25 -154.0 43.25 -150.0 53.25 -140.5 69.75 -124.25 101.0 -105.25 133.75 -103.7 137.05 Q-164.45 50.7 -158.0 32.0 M-160.25 31.5 L-159.25 31.75 -159.75 33.25 -160.25 31.5 M-150.5 40.5 L-149.75 40.75 -148.0 46.0 -150.5 40.5 M-82.25 166.75 L-85.15 162.8 Q-81.0 165.15 -77.25 163.5 L-77.25 164.25 -82.25 166.75 M-130.0 34.0 L-131.5 32.75 -132.75 30.0 -131.75 30.5 -130.0 34.0" fill="#000000" fill-opacity="0.49803922" fill-rule="evenodd" stroke="none"/>
  </g>
</svg>
