<?xml version="1.0" encoding="UTF-8" standalone="no"?>
<svg xmlns:ffdec="https://www.free-decompiler.com/flash" xmlns:xlink="http://www.w3.org/1999/xlink" ffdec:objectType="shape" height="322.4px" width="336.05px" xmlns="http://www.w3.org/2000/svg">
  <g transform="matrix(1.0, 0.0, 0.0, 1.0, 174.75, 119.75)">
    <path d="M12.0 -95.75 Q29.75 -87.5 27.5 -60.75 L27.25 -60.25 26.75 -54.5 26.5 -53.75 26.5 -53.25 26.0 -51.5 25.75 -51.0 25.75 -50.5 25.5 -50.0 25.5 -49.75 24.5 -46.5 Q15.0 -21.75 -7.5 -22.0 L-9.75 -22.0 Q-33.25 -21.0 -43.0 -39.25 L-47.0 -48.75 -47.25 -49.5 Q-58.5 -71.75 -37.0 -92.25 -27.75 -87.0 -12.75 -94.75 9.75 -88.75 12.0 -95.75 M72.75 117.5 Q82.4 112.85 90.3 107.0 105.25 129.9 110.5 154.0 111.0 193.0 55.25 201.0 30.5 204.25 16.75 193.0 8.05 187.3 7.2 151.6 43.5 149.95 72.75 117.5 M-7.95 151.0 Q-9.1 178.45 -18.25 194.25 L-19.75 196.0 -23.0 197.75 Q-29.75 203.5 -56.5 202.0 -104.4 194.7 -110.8 166.45 L-105.5 173.25 Q-99.5 175.5 -98.5 170.5 L-99.75 161.25 -101.0 158.25 -101.0 157.75 -107.15 136.95 Q-104.3 130.2 -99.5 121.25 L-95.8 115.25 Q-83.9 123.0 -68.25 127.0 -36.15 147.55 -7.95 151.0" fill="#e58508" fill-rule="evenodd" stroke="none"/>
    <path d="M-37.0 -92.25 L-42.25 -100.5 -43.0 -108.75 -42.75 -109.75 -41.5 -111.75 -40.0 -113.5 -38.0 -115.0 -35.0 -116.5 -28.75 -118.25 -21.75 -118.5 -18.0 -118.25 -17.0 -118.0 -16.5 -117.5 -14.0 -117.0 -13.5 -117.5 -11.75 -118.0 -11.25 -118.25 -10.5 -118.5 0.75 -119.75 7.0 -118.75 9.75 -117.75 12.0 -116.5 14.0 -114.75 15.25 -113.0 15.5 -111.5 15.75 -103.75 12.0 -95.75 Q9.75 -88.75 -12.75 -94.75 -27.75 -87.0 -37.0 -92.25 M24.5 -46.5 L28.5 -36.0 36.0 -20.0 41.0 -4.5 55.5 24.25 61.75 33.5 74.5 46.75 80.0 56.75 85.75 70.25 87.25 90.25 Q86.75 95.25 85.25 99.7 81.7 110.15 72.75 117.5 43.5 149.95 7.2 151.6 L-7.95 151.0 Q-36.15 147.55 -68.25 127.0 L-81.25 115.25 -86.5 103.0 -88.75 95.75 -86.75 90.5 -86.5 83.75 -80.0 75.25 -78.75 71.0 -73.25 60.0 -62.75 31.5 -57.5 14.5 -51.5 -13.25 -43.0 -39.25 Q-33.25 -21.0 -9.75 -22.0 L-7.5 -22.0 Q15.0 -21.75 24.5 -46.5 M-28.25 -105.25 Q-34.5 -95.5 -24.0 -95.0 -13.5 -105.5 -28.25 -105.25 M-0.75 -107.0 Q-13.5 -104.5 -1.25 -96.25 9.5 -103.5 -0.75 -107.0" fill="#ffffff" fill-rule="evenodd" stroke="none"/>
    <path d="M-0.75 -107.0 Q9.5 -103.5 -1.25 -96.25 -13.5 -104.5 -0.75 -107.0 M-28.25 -105.25 Q-13.5 -105.5 -24.0 -95.0 -34.5 -95.5 -28.25 -105.25" fill="#000000" fill-rule="evenodd" stroke="none"/>
    <path d="M71.75 -44.0 L94.5 -15.0 101.5 -8.25 122.5 16.75 124.0 18.25 124.75 18.0 125.5 19.0 124.25 18.75 126.0 19.5 131.5 26.0 130.1 33.0 Q130.0 27.35 123.5 23.25 L124.0 36.5 123.25 51.0 121.75 59.75 113.75 80.0 101.75 96.0 89.75 106.25 97.75 119.25 Q90.25 118.0 68.0 150.75 L40.75 166.25 38.5 167.25 19.25 170.75 15.25 172.0 13.75 173.25 Q12.25 184.5 36.5 189.25 L36.75 196.25 56.0 196.5 Q104.5 186.25 108.75 165.75 L110.0 163.5 108.5 169.0 Q98.25 201.5 33.0 200.75 9.25 205.0 7.5 151.75 L-7.75 151.0 Q-5.75 205.25 -43.0 202.5 -77.0 204.5 -103.25 181.25 -102.75 180.25 -105.75 178.25 L-110.5 166.75 -111.75 165.75 -126.75 140.75 -130.5 132.75 -132.75 129.75 -145.25 105.5 -146.25 104.75 -164.25 68.75 -168.75 52.0 Q-174.25 45.5 -174.75 39.75 -168.95 41.45 -170.85 35.4 -167.75 44.3 -168.5 45.75 L-165.0 56.25 -157.25 71.75 -142.25 105.25 -125.25 138.75 -120.25 146.75 -111.75 163.25 -105.5 172.25 -98.25 171.0 Q-103.25 175.0 -106.0 173.45 L-102.0 178.75 Q-94.25 190.25 -57.75 196.5 L-57.0 197.5 -37.5 197.25 -37.25 189.75 Q-24.25 188.0 -20.25 184.0 L-15.75 178.0 -14.25 173.5 -19.75 171.75 -31.75 170.75 -63.75 157.0 -87.0 134.25 -95.0 130.5 -99.5 127.5 -102.25 127.0 -102.0 125.0 -95.25 114.0 Q-120.0 97.0 -127.75 74.75 L-131.5 57.25 -133.5 38.75 -133.0 31.75 Q-135.25 31.75 -141.5 42.5 L-142.5 41.25 -142.75 39.5 -139.25 36.0 -139.5 35.5 -136.0 32.0 Q-134.5 28.0 -130.25 24.0 L-129.5 22.0 -128.5 21.5 -128.25 20.25 -112.0 -2.0 -97.75 -23.25 -95.5 -25.5 -91.5 -32.25 Q-127.0 57.75 -118.25 71.0 -110.0 86.75 -89.75 100.25 L-87.5 101.25 Q-90.5 95.5 -86.5 90.5 -73.25 115.25 -68.5 115.75 L-67.5 118.25 -34.0 135.75 -16.5 138.5 2.25 140.0 23.25 135.5 38.75 131.25 69.25 111.5 69.0 110.5 72.25 107.5 72.5 106.0 82.0 90.5 86.25 81.75 Q88.5 88.5 87.5 89.75 L91.75 87.25 105.0 73.0 108.25 68.5 111.25 62.0 Q112.75 60.5 109.5 51.75 L101.0 26.75 87.5 -6.75 71.0 -43.75 71.75 -44.0 M159.5 20.0 Q164.5 24.25 155.75 58.0 L135.25 132.25 130.8 146.2 131.75 141.0 142.25 103.5 145.25 90.25 146.0 89.5 147.0 83.5 157.5 44.0 158.75 22.75 159.5 20.0 M155.25 9.0 L156.25 9.5 157.25 12.0 155.25 9.0 M114.5 177.25 L112.5 176.25 112.25 175.25 Q118.7 176.7 123.55 168.6 120.05 177.05 118.25 177.5 L114.5 177.25 M-13.0 -21.75 Q19.75 -19.5 28.25 -63.5 31.0 11.0 -16.25 11.5 -50.0 2.25 -49.75 -63.5 -44.25 -25.5 -13.0 -21.75 M-173.0 34.5 L-173.25 36.0 -173.75 34.5 -173.0 34.5 M-173.5 37.0 L-173.75 38.5 -174.25 37.0 -173.5 37.0 M-164.0 46.0 L-163.25 46.5 -162.75 49.0 -164.0 46.0" fill="#000000" fill-opacity="0.49803922" fill-rule="evenodd" stroke="none"/>
  </g>
</svg>
