<?xml version="1.0" encoding="UTF-8" standalone="no"?>
<svg xmlns:ffdec="https://www.free-decompiler.com/flash" xmlns:xlink="http://www.w3.org/1999/xlink" ffdec:objectType="shape" height="321.85px" width="350.5px" xmlns="http://www.w3.org/2000/svg">
  <g transform="matrix(1.0, 0.0, 0.0, 1.0, 187.75, 119.25)">
    <path d="M-49.25 -90.25 L-54.5 -97.25 -56.0 -106.25 -56.0 -107.0 -53.5 -111.0 -51.5 -112.75 -48.75 -114.25 -45.5 -115.5 -42.5 -116.25 -35.0 -117.0 -31.5 -117.0 -30.75 -116.75 -30.25 -116.25 -29.0 -116.25 -27.75 -116.0 -27.0 -116.5 -26.25 -116.75 -24.0 -117.75 -20.75 -118.5 -13.5 -119.25 -9.75 -119.25 -4.0 -118.0 -1.5 -116.75 0.5 -115.25 2.0 -113.5 2.5 -112.0 2.75 -104.25 -0.5 -96.0 Q-2.5 -89.25 -25.25 -93.75 -40.75 -85.0 -49.25 -90.25 M15.0 -47.5 L21.0 -34.25 28.0 -21.5 33.5 -7.25 49.0 20.0 55.5 29.0 69.75 42.25 76.75 53.25 82.75 65.5 Q90.0 77.1 82.3 95.8 78.9 104.05 72.5 113.75 43.9 148.05 7.2 151.25 -0.25 151.85 -7.95 151.25 -35.75 149.0 -67.75 130.5 L-81.0 119.75 -87.5 107.0 -89.75 101.5 Q-87.5 95.25 -88.5 88.75 L-82.5 79.75 -82.0 77.0 -76.75 64.5 -68.25 36.0 -61.75 8.0 -59.25 -10.25 -52.25 -36.25 -52.0 -36.25 Q-42.25 -20.0 -18.75 -21.25 L-17.5 -21.25 -16.0 -21.5 Q6.0 -22.5 15.0 -47.5 M-13.5 -96.0 Q-2.75 -102.5 -15.0 -106.5 -26.25 -103.5 -13.5 -96.0 M-36.5 -93.5 Q-25.75 -103.25 -41.25 -103.5 -47.75 -95.25 -36.5 -93.5" fill="#ffffff" fill-rule="evenodd" stroke="none"/>
    <path d="M-0.5 -96.0 Q16.75 -90.0 17.0 -62.25 L16.75 -61.25 16.5 -55.75 16.25 -54.75 16.25 -54.0 15.75 -51.75 15.5 -51.25 15.5 -51.0 15.0 -47.5 Q6.0 -22.5 -16.0 -21.5 L-17.5 -21.25 -18.75 -21.25 Q-42.25 -20.0 -52.0 -36.25 L-52.25 -36.25 -55.5 -43.0 Q-69.75 -71.0 -49.25 -90.25 -40.75 -85.0 -25.25 -93.75 -2.5 -89.25 -0.5 -96.0 M72.5 113.75 Q81.5 110.1 88.75 104.7 105.0 128.7 110.5 154.0 111.0 193.0 55.25 201.0 30.5 204.25 16.75 193.0 8.0 187.25 7.2 151.25 43.9 148.05 72.5 113.75 M-7.95 151.25 Q-9.15 178.55 -18.25 194.25 L-19.75 196.0 -23.0 197.75 Q-29.75 203.5 -56.5 202.0 -114.0 193.25 -111.75 154.25 L-111.5 153.75 -111.5 153.5 Q-112.5 145.5 -99.5 121.25 L-97.35 117.75 Q-84.85 125.2 -67.75 130.5 -35.75 149.0 -7.95 151.25" fill="#e58508" fill-rule="evenodd" stroke="none"/>
    <path d="M-36.5 -93.5 Q-47.75 -95.25 -41.25 -103.5 -25.75 -103.25 -36.5 -93.5 M-13.5 -96.0 Q-26.25 -103.5 -15.0 -106.5 -2.75 -102.5 -13.5 -96.0" fill="#000000" fill-rule="evenodd" stroke="none"/>
    <path d="M62.5 -52.5 L72.75 -41.5 133.0 14.5 132.5 27.5 132.0 30.0 131.5 29.75 132.0 18.75 116.25 4.75 119.0 18.75 119.75 30.0 119.0 51.75 Q117.25 76.0 87.5 103.25 L95.75 116.0 Q88.0 115.0 68.5 148.0 L41.0 165.0 19.75 170.0 13.25 173.0 Q12.5 184.75 36.5 189.25 L36.75 196.25 56.0 196.5 Q104.25 187.0 109.25 164.25 L110.0 163.5 109.75 166.0 Q101.25 201.0 33.5 200.75 9.0 205.25 7.5 151.25 L-7.75 151.25 Q-5.75 205.0 -43.0 202.5 -107.5 198.0 -111.25 164.0 -106.5 187.5 -57.0 197.5 L-37.5 197.25 -37.25 189.75 Q-14.75 186.0 -14.25 174.25 -20.75 171.25 -30.25 172.0 L-62.25 160.0 Q-94.75 128.0 -104.25 130.75 L-102.0 125.0 -97.5 117.5 -99.25 116.75 -115.75 102.75 -129.0 82.75 -132.5 72.75 -137.5 44.75 -138.0 31.75 -137.5 24.25 -138.25 24.25 -155.0 47.0 -155.5 47.25 -156.5 44.25 -150.0 37.5 -149.0 35.25 -130.5 11.0 -118.5 -6.75 -107.75 -20.5 -101.75 -30.75 -101.25 -30.5 -101.75 -27.5 -102.5 -27.0 -103.0 -24.0 -103.75 -23.5 -104.25 -20.5 -105.0 -20.0 -105.5 -17.0 -106.25 -16.5 -109.75 -5.0 -110.75 -3.75 -111.0 -1.5 -111.75 -1.0 -119.25 20.5 -128.5 51.5 -124.5 63.25 -116.0 82.25 -98.25 99.0 -90.0 103.75 Q-90.75 101.25 -87.75 93.5 L-72.0 116.75 -68.0 120.5 -33.5 137.0 -14.5 139.25 4.25 140.0 38.25 130.0 67.75 109.0 73.75 101.0 84.5 79.0 Q82.75 90.25 90.0 84.5 109.5 65.25 111.0 55.0 L104.75 36.25 94.5 12.25 75.75 -26.25 62.0 -52.25 62.5 -52.5 M159.75 10.5 L161.25 10.0 162.5 11.25 Q159.75 13.5 162.75 34.5 L158.75 83.25 154.75 121.25 150.75 150.75 150.25 149.25 154.0 123.5 158.75 74.5 158.5 70.75 161.5 36.0 161.5 26.5 160.25 16.75 160.25 15.5 161.0 15.25 160.75 14.25 160.0 14.25 159.75 10.5 M147.5 165.0 L147.25 166.75 144.75 168.0 141.25 167.75 139.5 166.25 142.0 165.0 Q146.75 166.0 147.5 165.0 M148.75 160.75 L148.25 160.5 150.25 151.5 148.75 160.75 M-19.25 -21.0 Q9.5 -19.0 17.0 -63.0 22.25 7.0 -25.75 13.0 -58.1 7.9 -60.4 -59.0 -58.45 -28.3 -19.25 -21.0 M-157.0 115.25 L-146.5 140.75 -145.0 142.75 -144.75 144.75 -141.75 149.75 -132.25 170.5 -126.75 179.75 -119.5 179.0 -120.25 180.5 -124.0 181.5 -126.0 181.5 -132.25 173.25 -140.25 157.0 -141.75 155.25 -163.25 109.75 Q-192.0 50.25 -184.5 40.5 L-183.25 43.25 Q-181.5 48.5 -182.5 49.25 L-179.25 61.75 -177.75 63.75 -159.75 110.25 -157.0 115.25 M-186.25 35.0 L-185.25 35.0 -185.0 36.5 -186.25 35.0 M-187.25 42.75 L-187.75 41.5 -187.0 41.5 -187.25 42.75" fill="#000000" fill-opacity="0.49803922" fill-rule="evenodd" stroke="none"/>
  </g>
</svg>
