<?xml version="1.0" encoding="UTF-8" standalone="no"?>
<svg xmlns:ffdec="https://www.free-decompiler.com/flash" xmlns:xlink="http://www.w3.org/1999/xlink" ffdec:objectType="shape" height="312.75px" width="369.9px" xmlns="http://www.w3.org/2000/svg">
  <g transform="matrix(1.0, 0.0, 0.0, 1.0, 185.5, 147.75)">
    <path d="M109.25 -53.0 L135.25 -26.5 152.75 -5.75 156.25 -3.0 159.75 2.25 168.25 17.5 174.75 41.25 181.75 72.5 184.25 89.25 Q185.5 102.25 177.75 95.25 L174.25 91.25 161.0 69.0 142.0 31.25 141.25 30.5 140.75 30.25 137.0 27.75 136.5 27.25 136.25 27.25 135.5 26.75 135.25 26.5 134.75 26.25 131.75 24.25 131.25 23.75 129.75 22.75 126.5 21.0 Q140.5 77.75 95.5 115.25 L87.0 121.75 86.5 122.0 85.75 122.5 82.25 124.25 81.5 125.25 64.75 144.25 36.75 158.75 8.25 165.0 -13.75 162.75 Q-30.25 161.5 -42.0 154.75 L-62.5 144.75 -78.5 127.25 -79.25 127.0 -82.75 125.25 -84.25 124.75 -85.0 124.25 -85.5 124.0 -86.25 123.25 -86.75 123.0 -94.0 118.0 Q-140.5 86.0 -128.0 21.5 L-136.75 27.0 -137.0 27.25 -137.5 27.5 -143.5 31.5 -144.0 33.75 -152.0 48.75 Q-156.45 56.65 -160.0 65.0 L-170.75 83.5 -175.25 90.5 -175.5 91.0 -178.0 94.5 Q-185.75 103.5 -185.5 90.0 L-183.25 74.25 -179.0 54.25 -169.25 17.0 -162.25 4.75 -161.5 3.75 -161.5 3.5 -161.25 3.0 -158.25 -2.0 -154.25 -5.0 -136.0 -27.0 -114.5 -49.0 -94.5 -65.75 -87.0 -69.0 Q-40.5 -138.75 -1.25 -147.75 43.75 -135.75 86.5 -69.25 90.25 -70.0 109.25 -53.0" fill="#2e47aa" fill-rule="evenodd" stroke="none"/>
  </g>
</svg>
