<?xml version="1.0" encoding="UTF-8" standalone="no"?>
<svg xmlns:ffdec="https://www.free-decompiler.com/flash" xmlns:xlink="http://www.w3.org/1999/xlink" ffdec:objectType="shape" height="412.1px" width="264.65px" xmlns="http://www.w3.org/2000/svg">
  <g transform="matrix(1.0, 0.0, 0.0, 1.0, 154.9, 141.1)">
    <path d="M-57.5 -100.0 L-58.25 -106.5 -52.0 -109.0 Q-39.8 -131.6 -16.35 -140.2 -12.5 -141.55 -8.25 -140.85 8.5 -137.55 17.0 -122.05 19.75 -117.15 23.0 -112.45 45.65 -79.9 61.25 -43.5 L86.0 -4.5 Q108.85 42.75 108.0 94.8 107.65 117.2 99.2 137.8 89.15 162.2 68.5 178.75 L61.75 208.75 50.25 238.25 38.25 262.25 Q35.9 268.4 30.1 269.85 29.2 270.05 28.35 269.05 23.4 262.95 22.5 254.7 22.0 250.3 21.0 246.0 L15.75 219.0 11.5 186.0 Q5.9 184.85 0.9 181.6 -15.0 171.35 -30.5 160.5 L-29.0 159.5 Q-34.9 124.3 -45.5 90.25 -46.7 86.35 -47.2 82.35 -52.8 35.6 -50.5 -11.25 L-44.25 -12.25 Q-42.65 -15.5 -42.5 -18.85 -41.75 -32.9 -42.5 -47.0 -39.65 -47.0 -37.9 -49.35 -36.5 -51.25 -35.25 -53.25 -49.9 -74.95 -57.5 -100.0" fill="#2e47aa" fill-rule="evenodd" stroke="none"/>
    <path d="M-67.0 146.0 L-74.35 139.25 Q-99.25 116.85 -103.0 83.5 L-102.85 78.8 Q-100.85 34.85 -88.5 -7.25 L-87.5 -10.0 -79.5 -9.0 -50.5 -11.25 Q-52.8 35.6 -47.2 82.35 -46.7 86.35 -45.5 90.25 -34.9 124.3 -29.0 159.5 L-30.5 160.5 -33.0 161.25 -67.0 146.0 M-65.75 -89.5 L-63.75 -94.0 Q-59.0 -100.25 -57.5 -100.0 -49.9 -74.95 -35.25 -53.25 -36.5 -51.25 -37.9 -49.35 -39.65 -47.0 -42.5 -47.0 L-52.25 -50.25 Q-57.0 -52.25 -61.0 -61.5 -54.0 -57.75 -56.0 -67.25 -56.25 -70.25 -59.75 -71.75 L-62.0 -69.75 -65.5 -74.25 -66.75 -78.5 Q-60.75 -80.0 -65.75 -89.5" fill="#ffffff" fill-rule="evenodd" stroke="none"/>
    <path d="M15.75 219.0 L2.5 227.25 -4.5 230.5 -12.0 232.75 Q-47.0 240.25 -70.25 187.25 -79.75 171.0 -69.5 148.5 L-67.0 146.0 -33.0 161.25 -30.5 160.5 Q-15.0 171.35 0.9 181.6 5.9 184.85 11.5 186.0 L15.75 219.0 M-103.0 83.5 L-129.75 77.0 Q-149.0 69.75 -149.5 66.25 -158.5 61.0 -151.75 26.5 L-151.5 26.0 Q-143.5 -13.25 -101.75 -11.5 L-88.5 -7.25 Q-100.85 34.85 -102.85 78.8 L-103.0 83.5 M-87.5 -10.0 Q-100.75 -12.15 -106.8 -23.7 -114.35 -38.05 -107.3 -52.95 -103.05 -61.95 -95.35 -68.2 -83.35 -77.85 -68.5 -81.75 L-66.75 -78.5 -65.5 -74.25 -62.0 -69.75 -62.5 -64.25 -61.0 -61.5 Q-57.0 -52.25 -52.25 -50.25 L-42.5 -47.0 Q-41.75 -32.9 -42.5 -18.85 -42.65 -15.5 -44.25 -12.25 L-50.5 -11.25 -79.5 -9.0 -87.5 -10.0" fill="#e58508" fill-rule="evenodd" stroke="none"/>
    <path d="M-68.5 -81.75 L-68.75 -85.25 -65.75 -89.5 Q-60.75 -80.0 -66.75 -78.5 L-68.5 -81.75 M-62.0 -69.75 L-59.75 -71.75 Q-56.25 -70.25 -56.0 -67.25 -54.0 -57.75 -61.0 -61.5 L-62.5 -64.25 -62.0 -69.75" fill="#31333d" fill-rule="evenodd" stroke="none"/>
    <path d="M-108.5 -26.25 L-110.75 -35.75 -110.25 -41.0 Q-108.5 -40.5 -107.75 -31.0 L-103.5 -21.25 -94.75 -13.25 Q-71.75 -8.0 -42.0 -14.75 -65.9 10.6 -88.0 53.0 -102.8 69.45 -100.75 78.25 L-91.25 101.75 Q-92.25 107.5 -65.5 131.75 L-36.25 144.0 Q-30.0 145.5 -32.0 140.0 L-39.25 113.5 Q-20.0 138.75 2.0 150.5 L2.5 149.75 -0.75 113.0 -3.75 90.75 -4.5 75.25 -4.25 74.5 -3.5 75.75 Q8.25 150.5 21.0 161.75 L21.5 162.75 Q14.25 159.75 13.25 161.5 9.0 182.25 26.25 262.25 L27.75 265.0 Q32.25 263.75 32.75 265.25 36.25 264.85 41.5 248.0 L42.75 246.5 42.5 245.75 59.0 206.0 Q74.5 163.75 68.0 154.25 81.25 149.25 96.25 121.0 111.25 86.25 107.0 52.5 114.25 73.0 102.25 130.25 L92.0 153.0 Q80.25 171.0 68.5 178.75 48.05 251.8 32.0 271.0 22.25 268.0 16.5 219.25 -14.5 242.0 -38.75 228.75 L-43.25 225.75 -52.75 217.25 Q-66.5 203.5 -73.25 176.5 -57.0 220.75 -32.0 226.75 17.5 230.0 3.5 202.25 -21.7 191.75 -31.25 183.5 -68.4 173.85 -71.0 168.75 L-74.45 168.85 -74.25 157.25 Q-71.75 148.25 -67.25 146.0 -84.0 141.75 -101.75 93.25 L-102.75 88.25 -102.5 83.75 Q-144.5 76.0 -151.75 62.75 L-152.55 59.7 Q-146.45 73.95 -123.5 76.0 -131.75 44.5 -98.0 30.0 L-93.25 10.25 -87.5 -9.25 Q-106.5 -15.0 -108.5 -26.25 M-154.0 39.0 Q-154.8 43.55 -154.75 47.6 -155.3 41.85 -154.0 39.0 M101.25 32.0 L99.25 27.0 100.0 27.5 101.25 32.0 M-73.5 173.0 L-74.25 172.75 -74.25 170.5 -73.5 173.0 M-73.0 176.0 L-73.75 175.75 -73.75 174.0 -73.0 176.0 M63.5 109.25 L63.5 102.0 64.5 106.75 66.25 150.0 63.5 147.5 61.0 149.75 62.5 132.25 63.5 109.25" fill="#000000" fill-opacity="0.49803922" fill-rule="evenodd" stroke="none"/>
  </g>
</svg>
