<?xml version="1.0" encoding="UTF-8" standalone="no"?>
<svg xmlns:ffdec="https://www.free-decompiler.com/flash" xmlns:xlink="http://www.w3.org/1999/xlink" ffdec:objectType="shape" height="308.5px" width="369.15px" xmlns="http://www.w3.org/2000/svg">
  <g transform="matrix(1.0, 0.0, 0.0, 1.0, 184.5, 142.25)">
    <path d="M109.5 -50.25 L136.0 -23.75 152.75 -4.0 156.75 -1.0 164.75 11.0 165.5 13.5 168.75 19.75 176.75 49.5 181.25 70.25 184.5 90.25 Q185.75 102.0 177.75 95.75 L176.0 94.25 168.5 83.0 160.75 69.5 142.5 33.75 134.5 28.25 133.5 27.75 132.75 27.25 132.25 26.75 131.75 26.5 131.0 26.0 130.5 25.75 129.75 25.25 127.25 24.0 Q140.0 79.5 95.75 116.0 L92.75 118.0 91.5 119.25 89.75 120.5 89.0 121.25 87.75 122.25 87.5 122.5 83.25 124.75 82.0 126.0 81.75 126.5 81.25 127.0 65.5 145.5 37.25 160.25 8.25 166.25 -23.0 163.0 -33.0 160.75 -46.5 154.0 -46.75 154.0 -62.25 146.25 -77.25 129.75 -78.0 128.75 -79.75 127.5 -80.25 127.25 -81.75 126.75 -84.75 125.25 -85.5 124.75 -86.0 124.5 -86.75 124.0 -87.25 123.5 -89.75 122.0 -94.5 118.5 Q-139.5 82.5 -129.5 32.25 L-143.75 43.5 -154.25 72.0 -158.0 83.75 -163.0 95.0 -168.25 109.0 -176.0 124.75 -176.5 125.5 Q-184.0 136.75 -184.5 123.5 L-184.0 114.5 -178.25 74.25 -173.5 49.25 -170.0 35.0 -161.5 17.5 -160.25 15.5 -160.0 15.25 -159.5 14.5 -159.5 14.25 -158.75 13.5 -152.25 4.25 -152.0 4.0 -151.5 3.25 -151.25 3.0 -138.0 -14.75 -113.25 -42.5 -96.5 -58.0 -89.5 -62.25 Q-36.5 -137.25 -0.75 -142.25 39.5 -135.0 86.75 -66.0 90.75 -67.0 109.5 -50.25" fill="#2e47aa" fill-rule="evenodd" stroke="none"/>
  </g>
</svg>
