<?xml version="1.0" encoding="UTF-8" standalone="no"?>
<svg xmlns:ffdec="https://www.free-decompiler.com/flash" xmlns:xlink="http://www.w3.org/1999/xlink" ffdec:objectType="shape" height="305.05px" width="368.4px" xmlns="http://www.w3.org/2000/svg">
  <g transform="matrix(1.0, 0.0, 0.0, 1.0, 183.6, 137.55)">
    <path d="M94.25 -59.75 L112.5 -45.25 132.75 -25.5 153.0 -2.0 157.75 1.5 165.0 12.5 166.0 15.5 168.75 20.25 175.5 44.75 182.0 74.0 184.5 90.75 Q186.25 102.0 177.75 96.25 L172.5 89.75 164.25 76.5 143.0 36.5 133.0 29.75 131.5 29.0 131.0 28.5 127.75 26.75 Q139.5 80.75 96.25 116.5 L93.0 119.0 92.0 120.0 89.5 122.0 88.25 122.75 87.75 123.25 87.0 123.75 83.75 125.25 83.5 125.75 82.5 127.0 81.75 127.75 65.75 147.0 37.0 162.0 8.5 167.5 -14.5 165.5 -16.5 165.0 -16.75 165.0 -17.5 164.75 -32.5 162.5 -62.25 147.75 -78.0 130.25 -78.75 129.25 -79.75 128.5 -80.25 128.25 -81.0 128.0 -82.25 127.25 -85.5 125.75 -85.75 125.75 -86.5 125.0 -87.0 124.75 -94.75 119.25 Q-126.0 107.25 -130.25 42.0 L-144.0 54.25 -158.5 107.75 -173.0 150.75 -175.25 156.0 -177.0 159.0 Q-184.5 166.0 -183.5 153.0 L-182.0 130.0 -174.75 70.25 -174.5 69.0 -174.5 67.75 -174.25 67.0 -173.25 58.75 -165.5 37.25 -165.25 36.75 -165.25 36.5 -165.0 36.25 -164.75 35.75 -164.5 35.0 -164.25 34.5 -164.0 33.75 -161.5 27.75 -138.5 -5.0 -116.5 -31.75 -99.75 -49.25 -91.75 -55.5 Q-33.75 -133.5 -3.0 -136.5 21.5 -146.5 87.0 -62.75 L94.25 -59.75" fill="#2e47aa" fill-rule="evenodd" stroke="none"/>
  </g>
</svg>
