<?xml version="1.0" encoding="UTF-8" standalone="no"?>
<svg xmlns:ffdec="https://www.free-decompiler.com/flash" xmlns:xlink="http://www.w3.org/1999/xlink" ffdec:objectType="shape" height="322.25px" width="367.05px" xmlns="http://www.w3.org/2000/svg">
  <g transform="matrix(1.0, 0.0, 0.0, 1.0, 182.5, 132.35)">
    <path d="M94.5 -56.5 L111.5 -43.5 133.75 -22.25 153.25 0.0 Q157.25 -0.5 166.75 18.0 L169.0 22.0 176.0 47.0 181.5 71.75 184.5 91.25 Q185.25 103.5 177.75 96.75 L176.0 95.25 166.25 80.75 160.25 70.75 143.5 38.75 130.0 30.5 128.5 29.75 128.25 29.75 Q137.5 85.0 96.75 117.25 L92.25 120.75 91.0 122.0 88.75 123.5 88.25 123.75 87.75 124.25 86.0 125.25 84.5 125.75 84.0 126.25 83.5 127.25 83.0 127.75 82.75 128.25 81.75 129.25 65.25 148.75 36.25 163.75 8.75 168.75 4.0 169.0 -32.5 164.0 -41.75 159.25 -42.0 159.25 -62.75 148.5 -80.25 129.0 -82.75 128.0 -86.0 126.25 -86.75 126.0 -87.5 125.25 -89.25 124.25 -95.25 120.0 Q-125.25 105.25 -130.25 50.0 L-144.25 63.75 -148.0 81.25 -148.0 82.0 -148.5 83.25 -150.0 91.0 -150.5 92.5 -150.75 94.5 -157.75 127.5 -172.75 181.25 Q-175.5 194.5 -182.0 187.5 L-182.5 180.0 -181.0 147.0 -179.0 119.75 -174.5 76.25 -170.25 60.5 -170.0 60.0 -168.25 53.5 -167.5 51.75 -164.25 41.75 -147.5 15.5 -120.75 -19.5 -100.0 -43.25 -94.5 -47.75 Q-33.25 -128.25 -4.25 -130.75 20.0 -143.25 87.25 -59.5 L94.5 -56.5" fill="#2e47aa" fill-rule="evenodd" stroke="none"/>
  </g>
</svg>
