<?xml version="1.0" encoding="UTF-8" standalone="no"?>
<svg xmlns:ffdec="https://www.free-decompiler.com/flash" xmlns:xlink="http://www.w3.org/1999/xlink" ffdec:objectType="shape" height="344.0px" width="367.0px" xmlns="http://www.w3.org/2000/svg">
  <g transform="matrix(1.0, 0.0, 0.0, 1.0, 182.25, 126.8)">
    <path d="M95.5 -53.0 L112.75 -40.0 132.25 -21.75 153.75 2.0 Q157.75 1.5 167.25 20.0 L169.5 24.0 177.5 53.25 181.75 73.0 184.75 92.0 Q185.0 103.75 178.0 97.5 L176.5 96.5 169.0 86.0 161.75 74.25 144.25 41.5 130.0 33.25 129.5 32.75 128.75 32.75 Q143.0 71.0 97.0 118.25 L90.25 123.5 89.5 124.0 89.0 124.25 88.5 124.75 87.75 125.25 85.0 126.5 84.75 127.0 83.75 128.5 83.25 129.0 82.0 130.75 65.5 150.25 37.0 165.25 9.0 170.0 2.0 170.5 -31.75 165.75 -58.75 152.25 -59.0 152.25 -61.75 150.75 -80.0 130.25 -81.0 129.5 -82.0 129.0 -83.5 128.5 -86.0 127.0 -86.5 126.75 -87.25 126.5 -88.0 126.0 -88.5 125.75 -95.5 120.5 Q-125.5 103.0 -129.75 58.0 L-130.0 58.0 -130.75 58.5 -144.5 73.5 -155.5 136.75 -171.75 206.0 -171.75 206.25 -172.5 207.5 -172.5 208.5 -173.5 211.5 -173.75 212.0 -174.25 213.5 -174.5 213.75 Q-174.75 220.5 -181.75 214.0 L-182.25 205.0 -181.75 179.25 -176.5 93.0 -171.0 69.25 -170.75 68.75 -170.75 68.0 -170.0 66.25 -169.25 63.5 -169.0 63.5 -168.75 62.75 -168.75 62.5 -165.75 53.5 -148.75 26.0 -123.5 -9.0 -99.0 -38.0 -98.5 -38.75 -97.75 -39.5 Q-33.0 -123.25 -3.5 -125.0 20.5 -138.0 88.25 -56.0 L95.5 -53.0" fill="#2e47aa" fill-rule="evenodd" stroke="none"/>
  </g>
</svg>
