<?xml version="1.0" encoding="UTF-8" standalone="no"?>
<svg xmlns:ffdec="https://www.free-decompiler.com/flash" xmlns:xlink="http://www.w3.org/1999/xlink" ffdec:objectType="shape" height="369.5px" width="372.15px" xmlns="http://www.w3.org/2000/svg">
  <g transform="matrix(1.0, 0.0, 0.0, 1.0, 187.5, 138.0)">
    <path d="M96.25 -59.5 L114.75 -44.5 134.5 -24.75 154.0 -1.75 157.75 1.0 165.25 12.0 166.5 15.25 169.75 21.75 176.25 46.25 181.25 69.5 184.5 90.75 Q185.75 102.75 177.75 96.5 L176.25 95.25 166.5 80.0 158.5 65.75 143.75 36.25 134.75 30.25 133.75 29.75 133.0 29.25 132.5 29.0 132.0 28.5 131.5 28.25 130.75 27.75 128.5 26.75 Q139.0 82.5 96.25 117.0 L88.0 123.25 87.5 123.75 85.5 124.75 84.5 125.0 84.0 125.75 82.75 127.25 82.25 128.0 81.25 129.0 66.25 147.0 37.25 162.0 8.5 167.5 -14.5 165.5 -31.25 162.5 -59.5 148.75 -62.0 147.25 -78.5 128.75 -79.5 128.25 -80.25 128.0 -83.5 126.5 -85.0 125.5 -86.0 125.0 -86.25 125.0 -87.0 124.25 -88.75 123.25 -94.5 119.0 Q-127.0 97.0 -129.5 55.75 L-129.75 55.75 -145.75 74.75 -145.75 78.75 -149.5 96.25 -158.25 144.25 -176.25 218.5 -176.25 218.75 -176.5 219.25 -176.5 219.5 -180.25 230.5 -181.0 231.5 -183.0 231.5 -187.0 230.25 -187.5 218.75 -186.25 190.75 -178.25 94.75 -171.0 67.0 -170.75 66.75 -170.5 66.0 -170.5 65.75 -170.25 65.5 -170.25 65.25 -170.0 64.75 -170.0 64.25 -166.75 55.5 -151.25 29.0 -122.75 -12.75 -98.75 -43.25 -98.25 -44.0 Q-27.5 -138.25 -2.0 -136.5 23.0 -148.75 89.0 -62.5 L96.25 -59.5" fill="#2e47aa" fill-rule="evenodd" stroke="none"/>
  </g>
</svg>
