<?xml version="1.0" encoding="UTF-8" standalone="no"?>
<svg xmlns:ffdec="https://www.free-decompiler.com/flash" xmlns:xlink="http://www.w3.org/1999/xlink" ffdec:objectType="shape" height="385.0px" width="375.4px" xmlns="http://www.w3.org/2000/svg">
  <g transform="matrix(1.0, 0.0, 0.0, 1.0, 190.75, 148.25)">
    <path d="M114.25 -51.0 L136.5 -27.5 154.25 -5.25 158.0 -2.5 161.5 3.0 169.5 17.5 176.25 44.0 182.25 73.75 184.5 90.0 Q185.75 102.25 177.75 95.5 L175.25 93.0 160.25 66.5 143.75 31.25 143.25 30.75 142.25 30.25 142.0 30.0 141.5 29.75 141.0 29.25 140.75 29.25 140.25 28.75 139.75 28.5 139.5 28.25 139.0 28.0 138.25 27.5 137.75 27.0 137.25 26.75 137.0 26.5 136.0 26.0 135.75 25.75 128.0 20.75 Q140.25 81.75 95.5 115.75 L87.75 122.0 84.5 123.5 83.75 123.75 83.0 124.75 82.0 125.75 81.5 126.5 81.0 127.0 80.25 128.0 79.25 129.0 66.5 144.0 38.25 158.5 8.25 165.0 -13.75 162.5 Q-17.75 161.6 -21.75 161.75 L-28.25 160.0 -40.0 155.0 -61.75 144.0 -77.0 127.5 -78.0 127.0 -78.75 126.75 -84.0 124.25 -84.5 123.75 -85.5 123.25 -86.0 122.75 -86.5 122.5 -93.75 117.5 Q-125.25 99.25 -129.0 51.5 L-146.5 72.25 -146.5 79.75 -150.25 96.75 -159.5 145.5 -178.75 222.75 -179.0 223.5 -179.25 224.0 -179.25 224.25 -183.5 236.25 -185.75 236.75 -190.5 235.5 -190.75 223.5 -188.75 189.25 -179.0 91.75 -172.25 67.0 -170.25 62.0 -170.0 61.5 -168.25 56.25 -154.0 31.5 -153.5 31.0 -148.0 21.75 -148.0 21.5 -147.5 21.0 -147.5 20.75 -121.5 -18.0 -97.5 -49.75 Q-32.5 -145.0 5.25 -148.25 42.25 -141.75 90.25 -68.75 94.25 -69.5 114.25 -51.0" fill="#2e47aa" fill-rule="evenodd" stroke="none"/>
  </g>
</svg>
