<?xml version="1.0" encoding="UTF-8" standalone="no"?>
<svg xmlns:ffdec="https://www.free-decompiler.com/flash" xmlns:xlink="http://www.w3.org/1999/xlink" ffdec:objectType="shape" height="390.8px" width="376.8px" xmlns="http://www.w3.org/2000/svg">
  <g transform="matrix(1.0, 0.0, 0.0, 1.0, 192.25, 158.8)">
    <path d="M98.0 -71.0 L98.25 -71.0 98.75 -70.5 115.0 -56.25 135.75 -33.5 155.5 -7.75 158.5 -5.75 162.25 1.25 162.75 2.0 164.5 5.25 165.0 6.0 169.5 14.5 176.0 41.0 181.5 68.25 184.5 89.25 Q185.0 103.25 176.25 93.25 L163.5 70.5 151.5 45.0 143.75 26.5 135.0 20.0 134.75 20.0 134.25 19.5 133.75 19.25 133.0 18.75 132.5 18.25 128.0 15.25 Q142.5 75.0 95.0 114.75 L89.25 119.0 88.5 119.75 87.5 120.5 86.0 121.25 85.25 121.5 83.5 122.5 82.75 122.75 79.75 126.0 79.0 127.0 78.0 128.0 71.5 135.75 65.75 141.5 39.0 155.0 32.5 156.75 32.0 156.75 31.5 157.0 7.75 162.5 -22.25 159.0 -45.5 149.5 -61.25 141.0 -74.0 127.25 -75.25 126.25 -83.5 122.5 -92.25 116.5 -92.75 116.0 -93.0 116.0 Q-126.25 96.25 -128.75 46.25 L-143.25 64.25 -146.25 67.0 -146.5 76.5 -161.25 147.25 -179.5 216.5 -179.5 217.25 -179.75 218.0 -180.0 218.25 -180.25 219.25 -184.5 231.0 -185.0 232.0 -187.5 232.0 -192.0 230.75 -192.25 217.75 -190.25 187.75 -180.5 96.75 -179.0 85.5 -172.25 61.75 -169.0 54.75 -167.75 51.0 -167.5 50.75 -167.0 49.75 -166.75 49.0 -161.25 39.75 -161.0 39.25 -160.5 38.5 -160.5 38.25 -160.25 38.0 -159.75 37.25 -159.75 37.0 -144.5 11.5 -119.75 -25.25 -96.0 -56.25 -95.5 -57.0 Q-24.5 -160.75 5.5 -158.75 48.0 -148.25 91.25 -75.0 L98.0 -71.0" fill="#2e47aa" fill-rule="evenodd" stroke="none"/>
  </g>
</svg>
