<?xml version="1.0" encoding="UTF-8" standalone="no"?>
<svg xmlns:ffdec="https://www.free-decompiler.com/flash" xmlns:xlink="http://www.w3.org/1999/xlink" ffdec:objectType="shape" height="386.0px" width="376.6px" xmlns="http://www.w3.org/2000/svg">
  <g transform="matrix(1.0, 0.0, 0.0, 1.0, 192.25, 169.25)">
    <path d="M117.0 -59.5 L134.25 -39.75 156.75 -10.0 Q171.25 10.5 170.75 17.5 L171.0 18.25 177.25 45.0 181.75 68.75 184.25 87.75 Q185.25 102.75 176.25 92.5 L170.0 81.75 157.75 56.5 143.5 22.0 129.0 10.5 128.0 10.0 Q140.75 81.0 94.25 113.75 L87.5 118.75 85.0 120.0 82.75 121.5 80.75 122.5 79.5 123.75 79.25 124.25 67.0 138.0 37.75 152.25 7.75 159.75 -22.0 156.5 -49.0 145.25 -59.75 138.75 -72.25 126.0 -73.0 125.5 -74.0 125.25 -75.25 124.5 -76.25 124.25 -83.5 120.5 -92.0 114.75 Q-127.25 93.5 -128.5 39.0 L-142.25 56.0 -145.25 58.5 -145.5 67.75 -157.75 122.0 -160.25 135.5 -169.5 168.5 -170.5 174.25 -173.5 182.5 -176.0 191.25 -176.5 192.5 -177.5 196.0 -178.0 197.25 -179.0 201.75 -179.25 202.5 -179.5 203.0 -180.0 204.5 Q-191.5 230.75 -192.25 200.75 L-190.0 170.5 -180.0 84.5 -178.25 73.0 -171.75 52.5 -169.25 47.0 -168.75 46.25 -166.0 40.25 -165.75 40.0 -165.5 39.5 -165.0 38.75 -165.0 38.5 -164.75 38.0 -164.25 37.25 -164.0 36.75 -148.5 10.75 -122.25 -28.0 -113.0 -40.75 -97.0 -61.5 -92.75 -66.0 -92.25 -66.75 Q-25.75 -167.5 7.5 -169.25 50.75 -155.25 92.0 -80.75 L96.0 -78.5 97.75 -77.25 98.75 -76.75 117.0 -59.5" fill="#2e47aa" fill-rule="evenodd" stroke="none"/>
  </g>
</svg>
