<?xml version="1.0" encoding="UTF-8" standalone="no"?>
<svg xmlns:ffdec="https://www.free-decompiler.com/flash" xmlns:xlink="http://www.w3.org/1999/xlink" ffdec:objectType="shape" height="388.3px" width="376.25px" xmlns="http://www.w3.org/2000/svg">
  <g transform="matrix(1.0, 0.0, 0.0, 1.0, 192.0, 158.5)">
    <path d="M89.5 -75.0 L95.25 -72.25 115.5 -54.25 134.5 -33.75 150.0 -13.75 150.5 -13.25 151.75 -11.5 152.25 -11.0 152.75 -10.25 153.25 -9.75 153.5 -9.25 154.25 -8.5 157.25 -6.25 164.75 6.75 165.0 7.0 168.75 14.0 174.5 36.5 181.0 66.75 184.25 88.5 Q184.5 103.0 176.5 93.25 L174.75 91.25 163.0 70.0 142.75 26.5 134.75 20.5 134.5 20.5 133.75 19.75 133.5 19.75 132.75 19.25 132.25 18.75 127.0 15.25 Q142.0 76.0 95.0 114.5 L87.25 120.25 83.5 122.25 82.0 122.75 81.5 123.5 80.0 125.0 79.5 125.75 78.5 126.75 71.0 135.5 65.5 141.25 38.0 155.25 7.75 162.5 -22.25 159.25 -29.75 156.5 -46.25 149.5 -61.75 141.25 -76.0 126.0 -77.75 125.5 -83.75 122.5 -84.75 122.25 -85.25 121.75 -92.75 116.5 -93.0 116.5 Q-126.5 98.0 -129.25 44.25 L-129.5 44.25 -147.0 65.0 -146.5 71.0 -156.0 116.5 -160.0 138.25 -170.5 181.0 -179.5 215.0 -179.5 215.25 -179.75 215.75 -179.75 216.0 -184.5 229.25 Q-194.0 232.5 -191.5 216.0 L-189.5 183.75 -179.5 85.0 -172.25 58.5 -170.0 53.75 -168.5 49.5 -168.25 49.0 -168.25 48.75 -167.75 47.75 -161.75 37.75 -161.75 37.5 -161.5 37.0 -161.0 36.75 -161.0 36.25 -160.75 35.75 -160.25 35.5 -160.25 35.0 -160.0 34.5 -159.5 33.75 -159.0 33.25 -158.75 32.5 -158.5 32.25 -158.0 31.25 -157.75 31.0 -157.75 30.75 -157.5 30.5 -157.0 29.5 -156.5 29.0 -156.5 28.75 -156.25 28.25 -156.0 28.0 -156.0 27.75 -155.75 27.5 -155.25 26.5 -154.75 26.0 -154.75 25.75 -154.5 25.25 -154.25 25.0 -154.0 24.5 -153.75 24.25 -153.75 24.0 -153.5 23.5 -153.0 22.75 -152.5 21.75 -152.0 21.0 -151.75 20.75 -151.25 20.0 -151.25 19.75 -151.0 19.5 -148.75 15.5 -118.25 -30.0 -100.25 -53.75 -97.0 -57.0 -96.5 -57.75 Q-28.75 -158.5 2.0 -158.5 38.75 -154.5 89.5 -75.0" fill="#2e47aa" fill-rule="evenodd" stroke="none"/>
  </g>
</svg>
