<?xml version="1.0" encoding="UTF-8" standalone="no"?>
<svg xmlns:ffdec="https://www.free-decompiler.com/flash" xmlns:xlink="http://www.w3.org/1999/xlink" ffdec:objectType="shape" height="356.25px" width="368.15px" xmlns="http://www.w3.org/2000/svg">
  <g transform="matrix(1.0, 0.0, 0.0, 1.0, 183.75, 147.75)">
    <path d="M109.25 -53.0 L135.25 -26.5 152.75 -5.75 156.25 -3.0 159.75 2.25 168.25 17.5 174.75 41.25 181.75 72.5 184.25 89.25 Q185.5 102.25 177.75 95.25 L174.25 91.25 161.0 69.0 142.0 31.25 141.25 30.5 140.75 30.25 137.0 27.75 136.5 27.25 136.25 27.25 135.5 26.75 135.25 26.5 134.75 26.25 131.75 24.25 131.25 23.75 129.75 22.75 126.5 21.0 Q140.5 77.75 95.5 115.25 L87.0 121.75 86.5 122.0 85.75 122.5 82.25 124.25 81.5 125.25 64.75 144.25 36.75 158.75 8.25 165.0 -13.75 162.75 Q-30.25 161.5 -42.0 154.75 L-62.5 144.75 -78.5 127.25 -79.25 127.0 -82.75 125.25 -84.25 124.75 -85.0 124.25 -85.5 124.0 -86.25 123.25 -86.75 123.0 -94.0 118.0 Q-129.25 96.5 -130.5 44.75 L-145.25 61.25 -145.0 63.25 -155.75 120.75 -165.0 164.25 -173.25 197.0 -173.5 197.75 -173.5 198.0 -177.25 208.5 Q-184.75 208.75 -183.25 204.75 L-183.75 196.5 -183.0 168.75 -177.25 81.25 -170.25 53.75 -170.0 53.5 -169.75 52.75 -169.75 52.5 -167.0 44.25 -166.25 42.75 -166.25 42.5 -164.25 39.25 -164.0 38.75 -150.25 15.5 -122.75 -24.0 -102.5 -49.25 -96.75 -55.0 Q-35.5 -145.75 -1.25 -147.75 43.75 -135.75 86.5 -69.25 90.25 -70.0 109.25 -53.0" fill="#2e47aa" fill-rule="evenodd" stroke="none"/>
  </g>
</svg>
