<?xml version="1.0" encoding="UTF-8" standalone="no"?>
<svg xmlns:ffdec="https://www.free-decompiler.com/flash" xmlns:xlink="http://www.w3.org/1999/xlink" ffdec:objectType="shape" height="327.25px" width="368.6px" xmlns="http://www.w3.org/2000/svg">
  <g transform="matrix(1.0, 0.0, 0.0, 1.0, 185.0, 125.5)">
    <path d="M8.5 -55.75 L5.75 -53.0 Q5.5 -49.5 8.0 -47.25 L12.25 -46.75 Q22.5 -52.25 13.5 -56.75 L8.5 -55.75 M-25.75 -48.25 Q-32.5 -56.0 -30.5 -64.25 L-29.0 -66.25 -27.5 -67.25 -25.25 -68.25 -22.5 -69.0 -16.0 -70.0 -12.25 -70.0 -4.0 -69.25 -0.5 -68.25 3.5 -69.25 6.75 -69.5 7.25 -69.75 15.25 -70.0 21.5 -69.25 26.75 -67.5 28.5 -66.25 29.5 -65.0 30.0 -64.0 29.0 -55.75 25.5 -49.0 Q19.75 -39.25 -0.5 -46.5 -18.5 -39.25 -25.75 -48.25 M36.0 -1.0 L38.25 5.25 45.0 20.0 50.5 36.75 62.0 58.75 Q83.25 75.75 88.5 94.25 L89.25 107.75 88.75 112.0 82.25 124.25 81.5 125.25 64.75 144.25 36.75 158.75 8.25 165.0 -4.75 163.75 -13.75 162.75 Q-30.25 161.5 -42.0 154.75 L-62.5 144.75 -78.5 127.25 -80.75 124.75 -87.25 110.5 -87.5 107.5 Q-84.25 105.0 -85.0 99.5 -57.0 68.25 -37.25 6.0 L-35.5 2.0 -34.75 3.75 Q-23.0 28.25 -1.5 27.25 L1.0 27.25 Q24.0 27.75 34.0 4.0 L34.0 3.75 36.0 -1.0 M-15.5 -56.5 Q-22.75 -48.0 -11.25 -46.75 -0.25 -55.5 -15.5 -56.5" fill="#ffffff" fill-rule="evenodd" stroke="none"/>
    <path d="M8.5 -55.75 L13.5 -56.75 Q22.5 -52.25 12.25 -46.75 L8.0 -47.25 Q5.5 -49.5 5.75 -53.0 L8.5 -55.75 M-15.5 -56.5 Q-0.25 -55.5 -11.25 -46.75 -22.75 -48.0 -15.5 -56.5" fill="#000000" fill-rule="evenodd" stroke="none"/>
    <path d="M25.5 -49.0 Q40.0 -39.0 39.5 -28.25 L39.75 -19.5 36.0 -1.0 34.0 3.75 34.0 4.0 Q24.0 27.75 1.0 27.25 L-1.5 27.25 Q-23.0 28.25 -34.75 3.75 L-35.5 2.0 -38.5 -8.0 -40.25 -20.75 -40.0 -27.75 Q-42.25 -35.0 -25.75 -48.25 -18.5 -39.25 -0.5 -46.5 19.75 -39.25 25.5 -49.0 M82.25 124.25 L85.75 122.5 86.5 122.0 87.0 121.75 95.5 115.25 Q111.0 141.75 110.5 154.0 111.0 193.0 55.25 201.0 30.5 204.25 16.75 193.0 11.5 189.75 8.25 165.0 L36.75 158.75 64.75 144.25 81.5 125.25 82.25 124.25 M-4.75 163.75 L-8.5 183.5 Q-12.25 192.5 -14.0 193.25 L-14.75 194.5 -20.0 197.5 -30.75 200.75 -40.0 201.5 -52.25 200.75 Q-108.75 192.75 -107.5 153.5 L-107.25 152.75 -104.75 140.5 -97.75 124.0 -94.0 118.0 -86.75 123.0 -86.25 123.25 -85.5 124.0 -85.0 124.25 -84.25 124.75 -82.75 125.25 -79.25 127.0 -78.5 127.25 -62.5 144.75 -42.0 154.75 Q-30.25 161.5 -13.75 162.75 L-4.75 163.75" fill="#e58508" fill-rule="evenodd" stroke="none"/>
    <path d="M-41.25 -124.5 L-39.75 -125.5 -40.75 -124.25 -41.25 -124.5 M-48.75 -116.5 L-46.75 -118.0 -48.25 -116.25 -48.75 -116.5 M-57.75 -105.75 L-58.25 -106.0 -57.25 -106.5 -57.75 -105.75 M-54.75 -110.0 L-52.75 -111.5 -54.25 -109.75 -54.75 -110.0 M-134.25 -28.25 L-134.75 -28.5 -133.25 -29.5 -134.25 -28.25 M-100.75 -1.0 L-104.0 2.75 -113.75 18.0 -114.75 18.5 -122.75 36.5 -121.0 46.75 -111.75 70.75 -104.5 80.25 -96.75 88.75 -83.25 97.75 Q-86.0 99.0 -84.75 101.25 L-68.0 124.75 -36.5 146.25 0.0 153.25 Q40.5 151.0 69.0 125.75 L86.5 102.0 Q90.0 97.25 87.25 91.5 103.25 80.0 107.0 72.5 L112.75 63.0 118.0 52.0 122.5 35.25 114.75 18.75 100.25 -2.5 104.5 0.75 106.75 1.5 110.75 5.25 112.0 5.5 127.0 16.5 139.25 23.75 141.5 23.5 153.75 30.75 Q151.5 27.5 157.75 27.0 155.25 33.75 147.5 36.25 L148.0 36.75 147.5 39.5 Q156.75 54.25 159.75 54.5 L164.25 62.75 Q168.75 68.25 172.25 69.5 L175.25 70.75 175.75 65.0 175.5 53.0 174.5 49.25 Q175.25 44.0 173.0 37.25 L173.5 37.0 Q189.25 90.5 180.5 97.75 L176.0 93.75 168.5 82.25 154.25 56.25 142.25 32.25 142.25 30.75 140.5 30.25 126.75 21.0 Q143.25 69.0 95.5 115.0 L99.75 122.25 104.25 132.25 102.5 132.0 Q96.75 137.0 92.75 138.0 94.25 143.25 72.75 164.5 L41.25 180.0 Q22.5 181.75 16.75 188.5 23.5 200.5 67.25 194.25 98.75 188.25 109.25 164.25 L110.0 163.5 109.75 166.0 Q105.75 194.25 47.5 201.5 L33.0 200.75 Q24.75 199.0 19.5 195.75 9.0 185.75 8.5 165.25 L-4.25 163.75 Q-6.75 184.5 -14.25 194.25 -23.75 202.75 -51.25 201.0 -75.0 198.0 -87.75 189.75 -105.25 177.75 -106.75 163.5 -96.0 187.25 -65.25 193.75 -23.0 201.0 -13.0 188.25 -18.25 181.75 -34.5 180.0 L-69.0 163.5 -89.75 140.5 Q-100.5 134.0 -102.25 134.75 L-97.75 124.0 -93.75 117.75 Q-121.75 97.0 -126.0 77.0 L-127.5 71.5 Q-133.25 42.25 -128.25 22.5 L-127.75 22.0 -128.25 21.5 -142.75 31.0 -158.0 61.5 -163.75 71.9 -163.65 70.45 -163.0 64.45 Q-161.8 63.05 -161.8 61.05 L-161.75 56.1 Q-158.8 52.0 -155.0 50.0 L-150.5 41.0 -149.75 40.5 -150.5 42.25 -148.5 40.5 -148.75 39.25 -149.5 39.25 -148.5 37.25 Q-156.5 33.75 -158.5 28.0 L-154.75 29.0 -155.0 30.75 Q-143.25 23.0 -140.75 24.25 L-128.25 17.0 -112.75 6.25 -108.25 2.0 -106.5 1.75 -100.0 -3.0 -100.75 -1.0 M-155.0 46.5 L-151.25 38.75 -151.0 39.5 -154.5 46.75 -155.0 46.5 M-174.0 37.5 Q-176.5 44.25 -175.25 50.0 L-176.25 52.0 -176.5 65.25 -176.0 70.25 -174.75 70.05 -174.8 71.2 -173.85 78.65 Q-172.85 82.95 -171.15 84.65 L-176.75 93.5 -181.5 98.0 Q-191.0 90.75 -174.75 37.0 L-174.0 37.5 M152.25 43.0 L150.0 39.0 151.0 39.75 152.25 43.0 M-40.25 -21.5 Q-36.0 26.5 2.0 27.0 34.5 25.5 40.0 -22.0 39.0 85.5 2.0 85.0 -39.75 89.0 -40.25 -21.5" fill="#000000" fill-opacity="0.49803922" fill-rule="evenodd" stroke="none"/>
  </g>
</svg>
