<?xml version="1.0" encoding="UTF-8" standalone="no"?>
<svg xmlns:ffdec="https://www.free-decompiler.com/flash" xmlns:xlink="http://www.w3.org/1999/xlink" ffdec:objectType="shape" height="314.75px" width="369.0px" xmlns="http://www.w3.org/2000/svg">
  <g transform="matrix(1.0, 0.0, 0.0, 1.0, 184.75, 113.0)">
    <path d="M-25.0 -43.0 Q-26.5 -43.25 -29.5 -50.5 L-30.0 -59.0 -28.75 -60.75 -26.75 -62.0 -21.75 -63.5 -15.25 -64.5 -3.5 -63.75 -2.75 -63.25 -2.25 -63.0 -0.75 -63.0 0.25 -62.75 2.0 -63.25 2.75 -63.25 2.75 -63.5 4.25 -63.75 15.5 -64.5 22.25 -63.75 25.0 -63.0 29.25 -61.0 30.25 -59.75 30.25 -59.0 Q31.0 -54.0 29.5 -50.25 L26.0 -43.75 Q22.25 -34.0 0.25 -41.25 -12.25 -33.5 -25.0 -43.0 M36.75 3.75 L38.75 9.5 46.0 25.25 50.25 39.0 62.5 62.25 Q83.25 78.25 89.0 97.0 L89.0 113.5 83.25 124.75 82.0 126.0 81.75 126.5 81.25 127.0 65.5 145.5 37.25 160.25 8.25 166.25 -5.0 165.0 -23.0 163.0 -33.0 160.75 -46.5 154.0 -46.75 154.0 -62.25 146.25 -77.25 129.75 -78.0 128.75 -79.0 128.0 -81.5 124.5 -87.25 111.75 Q-84.0 105.5 -84.75 101.25 -54.75 68.75 -36.75 10.25 L-35.25 6.5 -34.0 9.5 Q-25.0 31.75 -1.25 32.75 L1.75 32.75 Q27.5 30.5 34.25 10.0 L34.25 9.75 35.0 7.75 35.25 7.25 35.5 6.5 35.5 6.25 36.75 3.75 M-15.0 -51.0 Q-22.25 -43.0 -10.5 -41.25 0.25 -50.0 -15.0 -51.0 M8.5 -49.5 L6.5 -47.5 Q6.25 -44.0 8.75 -41.75 L13.0 -41.25 Q23.75 -48.5 12.25 -51.0 L8.5 -49.5" fill="#ffffff" fill-rule="evenodd" stroke="none"/>
    <path d="M8.5 -49.5 L12.25 -51.0 Q23.75 -48.5 13.0 -41.25 L8.75 -41.75 Q6.25 -44.0 6.5 -47.5 L8.5 -49.5 M-15.0 -51.0 Q0.25 -50.0 -10.5 -41.25 -22.25 -43.0 -15.0 -51.0" fill="#000000" fill-rule="evenodd" stroke="none"/>
    <path d="M26.0 -43.75 Q39.5 -36.0 40.0 -23.5 L40.5 -15.75 39.0 -4.25 36.75 3.75 35.5 6.25 35.5 6.5 35.25 7.25 35.0 7.75 34.25 9.75 34.25 10.0 Q27.5 30.5 1.75 32.75 L-1.25 32.75 Q-25.0 31.75 -34.0 9.5 L-35.25 6.5 -38.0 -2.75 -39.75 -15.5 -39.75 -23.0 Q-34.75 -40.5 -25.0 -43.0 -12.25 -33.5 0.25 -41.25 22.25 -34.0 26.0 -43.75 M83.25 124.75 L87.5 122.5 87.75 122.25 89.0 121.25 89.75 120.5 91.5 119.25 92.75 118.0 95.75 116.0 Q110.75 141.25 110.5 154.0 111.0 193.0 55.25 201.0 30.5 204.25 16.75 193.0 12.0 190.75 8.25 166.25 L37.25 160.25 65.5 145.5 81.25 127.0 81.75 126.5 82.0 126.0 83.25 124.75 M-5.0 165.0 L-8.5 183.25 Q-12.25 192.75 -14.0 193.25 L-14.75 194.5 -20.0 197.5 -30.75 200.75 -40.0 201.5 -52.25 200.75 Q-108.75 192.75 -107.5 153.5 L-107.25 152.75 -104.75 140.5 -99.5 128.0 -94.5 118.5 -89.75 122.0 -87.25 123.5 -86.75 124.0 -86.0 124.5 -85.5 124.75 -84.75 125.25 -81.75 126.75 -80.25 127.25 -79.75 127.5 -79.0 128.0 -78.0 128.75 -77.25 129.75 -62.25 146.25 -46.75 154.0 -46.5 154.0 -33.0 160.75 -23.0 163.0 -5.0 165.0" fill="#e58508" fill-rule="evenodd" stroke="none"/>
    <path d="M-57.25 -102.5 L-55.25 -104.0 -56.75 -102.25 -57.25 -102.5 M-50.25 -110.0 L-46.75 -113.0 -49.75 -109.75 -50.25 -110.0 M-113.75 -42.0 L-110.75 -44.5 -113.25 -41.75 -113.75 -42.0 M-98.75 4.75 L-102.25 12.0 Q-107.5 19.0 -107.0 20.5 L-107.75 20.75 -109.0 24.0 -109.75 24.25 -111.0 27.5 -111.75 27.75 -111.75 29.0 -120.25 46.75 -111.25 69.25 -104.25 79.75 -96.0 88.5 -81.25 98.0 Q-85.5 101.0 -84.75 102.25 L-67.75 125.75 -36.5 146.75 -14.25 151.75 2.75 154.25 38.25 146.0 54.75 136.5 69.25 127.0 Q93.75 99.25 86.5 91.5 L92.25 87.5 97.25 82.5 108.75 69.0 118.25 51.5 122.0 37.5 116.25 24.25 100.5 0.5 128.75 20.0 139.0 25.75 140.0 25.0 154.25 33.0 154.75 32.25 154.0 31.0 158.25 29.5 Q155.5 36.25 148.75 38.75 L148.25 39.0 Q149.75 42.0 148.75 42.75 L149.75 43.0 155.0 52.0 159.5 55.5 Q163.5 63.5 167.5 66.0 175.75 72.5 175.75 60.0 L175.5 53.5 174.25 47.75 174.5 43.75 172.5 35.75 173.0 35.0 181.75 72.5 184.25 87.25 184.25 96.5 Q170.5 96.25 142.5 33.25 L127.25 24.0 Q140.0 79.5 95.75 115.75 L100.5 123.5 104.75 133.5 102.5 133.75 Q98.25 137.75 93.0 139.5 94.25 142.25 90.5 146.0 L71.75 166.75 40.25 182.25 Q22.0 184.0 18.75 189.5 39.75 202.25 73.75 192.5 98.5 186.75 110.0 164.0 L105.25 176.25 Q99.5 184.25 94.5 187.25 80.0 199.0 47.5 201.5 7.75 203.5 9.0 170.25 L8.5 166.25 -5.0 165.0 -8.0 181.75 Q-11.5 192.0 -14.25 194.0 L-17.0 196.0 Q-19.0 198.25 -28.25 200.25 L-41.25 201.5 -53.5 200.75 -72.25 196.75 -81.25 193.25 -87.75 189.75 -95.25 184.25 -101.75 176.75 -106.25 166.75 -106.75 163.5 Q-73.5 209.75 -14.5 189.5 -16.0 184.25 -38.5 179.5 -53.35 172.4 -68.25 165.25 -94.0 133.25 -102.75 135.75 L-98.25 126.5 -97.75 124.0 -94.25 118.5 Q-117.25 102.5 -125.5 79.25 L-128.0 71.25 -130.5 45.75 -129.25 32.25 -143.5 43.25 -157.5 82.5 -175.0 123.75 -179.0 130.0 -180.0 130.75 -182.25 130.75 -183.75 128.25 Q-183.75 122.25 -184.75 122.0 L-182.25 100.0 -178.25 74.5 -173.75 52.0 -172.75 52.25 -173.75 53.25 Q-172.25 55.0 -176.0 68.25 L-175.5 69.25 Q-176.75 69.75 -176.25 77.5 L-177.25 80.5 -176.5 81.25 -176.75 84.25 -179.75 99.0 -180.0 103.5 -181.5 108.5 -181.25 110.5 -183.5 123.5 -183.5 125.25 Q-182.5 124.0 -179.75 127.25 L-173.5 113.0 -166.0 92.75 -163.25 87.5 -157.5 71.25 Q-154.25 62.0 -152.0 62.0 L-148.75 54.5 Q-146.5 50.75 -157.0 44.0 L-156.0 44.0 -149.75 39.5 -149.0 39.5 -148.5 41.0 -146.25 39.75 -135.75 30.5 -135.25 30.75 -136.75 32.0 -135.0 31.25 -128.25 25.75 -121.5 21.5 -95.75 -0.5 -98.0 4.5 -98.75 4.75 M-157.25 41.75 L-159.0 41.25 -157.0 41.0 -157.25 41.75 M-134.5 29.5 L-133.5 29.0 -134.0 29.75 -134.5 29.5 M152.75 46.75 L150.5 41.5 153.5 47.0 152.75 46.75 M38.75 30.25 L37.25 36.0 36.75 43.25 33.75 57.5 Q19.25 100.0 3.75 94.5 -40.25 98.75 -39.75 -16.75 -35.0 32.0 1.5 31.5 36.75 30.5 40.75 -18.5 L40.25 18.0 38.75 30.25" fill="#000000" fill-opacity="0.49803922" fill-rule="evenodd" stroke="none"/>
  </g>
</svg>
