<?xml version="1.0" encoding="UTF-8" standalone="no"?>
<svg xmlns:ffdec="https://www.free-decompiler.com/flash" xmlns:xlink="http://www.w3.org/1999/xlink" ffdec:objectType="shape" height="307.75px" width="366.9px" xmlns="http://www.w3.org/2000/svg">
  <g transform="matrix(1.0, 0.0, 0.0, 1.0, 182.65, 106.0)">
    <path d="M-24.75 -37.75 Q-31.5 -45.5 -29.5 -53.75 L-28.25 -55.5 -26.5 -56.5 -21.5 -58.0 -14.75 -58.75 -3.25 -58.25 -2.0 -57.75 -1.75 -57.5 -0.25 -57.25 0.75 -57.25 2.5 -57.5 3.25 -57.75 3.5 -57.75 4.75 -58.0 7.75 -58.25 8.5 -58.5 16.25 -58.75 25.75 -57.5 27.75 -56.75 29.5 -55.75 31.0 -54.5 31.25 -53.5 30.5 -45.75 Q27.5 -38.75 26.25 -38.5 21.5 -28.5 0.75 -35.75 -13.5 -28.0 -24.75 -37.75 M37.25 8.75 L39.25 14.0 46.5 29.5 49.75 41.25 62.75 65.5 Q84.0 81.5 89.25 99.25 L89.25 115.25 83.75 125.25 83.5 125.75 82.5 127.0 81.75 127.75 65.75 147.0 37.0 162.0 8.5 167.5 -5.5 166.25 -14.5 165.5 -16.5 165.0 -16.75 165.0 -17.5 164.75 -32.5 162.5 -62.25 147.75 -78.0 130.25 -78.75 129.25 -79.75 128.5 -80.25 128.25 -87.0 113.75 Q-84.25 107.75 -84.75 103.5 -54.0 70.75 -36.5 14.75 L-35.0 11.25 -33.75 14.25 Q-25.5 36.75 -0.5 38.0 L2.25 38.0 Q27.5 36.25 34.75 15.25 L34.75 15.0 35.5 13.0 35.75 12.5 35.75 12.25 37.25 8.75 M16.0 -45.25 Q-0.5 -43.75 12.75 -35.5 23.5 -40.25 16.0 -45.25 M-14.5 -45.25 Q-22.25 -39.75 -11.0 -35.5 1.25 -44.75 -14.5 -45.25" fill="#ffffff" fill-rule="evenodd" stroke="none"/>
    <path d="M-24.75 -37.75 Q-13.5 -28.0 0.75 -35.75 21.5 -28.5 26.25 -38.5 37.5 -34.5 40.75 -18.75 L41.25 -16.5 40.75 -8.75 39.5 1.0 37.25 8.75 35.75 12.25 35.75 12.5 35.5 13.0 34.75 15.0 34.75 15.25 Q27.5 36.25 2.25 38.0 L-0.5 38.0 Q-25.5 36.75 -33.75 14.25 L-35.0 11.25 -37.75 1.5 -39.5 -12.25 -39.25 -18.25 Q-41.5 -25.5 -24.75 -37.75 M83.75 125.25 L87.0 123.75 87.75 123.25 88.25 122.75 89.5 122.0 92.0 120.0 93.0 119.0 96.25 116.5 Q110.5 141.0 110.5 154.0 111.0 193.0 55.25 201.0 30.5 204.25 16.75 193.0 11.75 190.0 8.5 167.5 L37.0 162.0 65.75 147.0 81.75 127.75 82.5 127.0 83.5 125.75 83.75 125.25 M-5.5 166.25 Q-7.25 187.25 -14.0 193.25 L-14.75 194.5 -20.0 197.5 -30.75 200.75 -40.0 201.5 -52.25 200.75 Q-108.75 192.75 -107.5 153.5 L-107.25 152.75 -104.75 140.5 -97.75 124.0 -94.75 119.25 -87.0 124.75 -86.5 125.0 -85.75 125.75 -85.5 125.75 -82.25 127.25 -81.0 128.0 -80.25 128.25 -79.75 128.5 -78.75 129.25 -78.0 130.25 -62.25 147.75 -32.5 162.5 -17.5 164.75 -16.75 165.0 -16.5 165.0 -14.5 165.5 -5.5 166.25" fill="#e58508" fill-rule="evenodd" stroke="none"/>
    <path d="M16.0 -45.25 Q23.5 -40.25 12.75 -35.5 -0.5 -43.75 16.0 -45.25 M-14.5 -45.25 Q1.25 -44.75 -11.0 -35.5 -22.25 -39.75 -14.5 -45.25" fill="#000000" fill-rule="evenodd" stroke="none"/>
    <path d="M-51.75 -103.5 L-48.75 -106.0 -51.25 -103.25 -51.75 -103.5 M-71.25 -81.5 L-70.25 -82.0 -70.75 -81.25 -71.25 -81.5 M-56.25 -99.0 L-53.75 -101.0 -55.75 -98.75 -56.25 -99.0 M-144.75 48.25 L-136.0 40.75 Q-131.5 36.0 -129.75 37.25 L-92.25 2.0 Q-126.25 57.0 -110.0 68.5 L-95.75 87.5 -91.0 91.25 -79.0 98.5 -78.75 99.25 -84.0 103.25 -84.75 103.25 -83.75 105.25 -67.5 126.75 -35.75 147.5 -18.75 151.5 1.5 155.0 18.75 151.75 38.75 146.75 56.0 137.0 69.5 128.25 80.75 114.0 88.25 101.0 Q89.75 99.25 85.25 90.25 112.5 72.75 121.5 40.0 L115.25 25.75 100.75 3.5 129.75 23.0 137.5 27.25 139.25 27.0 154.25 35.0 155.0 35.0 154.75 33.5 158.5 31.75 Q156.0 39.5 149.5 41.25 148.25 41.75 150.0 44.25 L149.5 44.5 156.0 54.75 Q163.0 63.5 170.0 67.0 179.25 65.25 173.5 38.5 L176.0 46.75 182.0 74.0 184.25 87.5 184.25 97.0 Q170.75 97.0 143.25 36.25 L127.75 26.75 Q143.5 68.75 96.25 116.5 L99.75 122.25 105.25 134.75 103.75 134.5 Q97.5 140.0 93.0 141.25 L93.0 144.5 71.75 168.25 Q33.0 189.5 24.25 187.5 L20.5 191.0 Q36.0 201.75 75.5 192.0 100.15 181.85 107.25 171.1 L105.25 176.25 97.5 185.0 Q81.5 199.25 47.5 201.5 L33.0 200.75 Q24.75 199.0 19.5 195.75 10.25 188.5 8.75 167.75 L-4.25 166.25 Q-5.75 204.5 -41.25 201.5 L-53.5 200.75 -72.25 196.75 -81.25 193.25 -87.75 189.75 -95.25 184.25 -101.75 176.75 -106.25 166.75 -106.75 163.5 Q-99.25 183.5 -70.75 192.25 -38.0 202.25 -16.25 190.25 -17.0 185.75 -35.75 182.0 L-69.5 166.0 -89.5 143.5 Q-100.75 136.25 -102.75 137.0 L-103.0 136.25 -94.75 118.75 Q-120.25 100.5 -126.75 76.75 -126.0 75.75 -128.25 71.25 L-130.5 47.25 -130.25 42.0 -144.0 54.0 -155.0 95.75 -163.0 122.25 -173.75 153.75 -177.25 160.5 Q-178.75 162.5 -181.5 161.25 L-182.1 160.25 -181.95 154.25 Q-180.45 158.25 -176.5 156.25 L-175.75 154.5 -174.75 154.5 -174.25 151.25 -169.0 136.5 -164.75 120.5 -159.75 105.5 -155.0 86.75 -154.25 86.0 -154.25 84.0 -150.0 73.0 Q-151.0 72.25 -149.0 69.5 L-149.5 69.25 -148.5 68.5 Q-147.0 58.0 -156.5 56.25 L-153.5 56.0 -153.75 55.5 -138.25 40.5 -137.75 40.75 -144.75 47.5 -144.75 48.25 M-171.65 57.9 L-171.7 58.9 -172.5 60.75 Q-172.9 61.2 -173.1 62.25 L-173.65 64.0 Q-174.25 62.75 -173.25 59.0 L-172.05 55.95 -171.65 57.9 M-177.0 95.5 L-176.25 97.5 -178.75 118.5 -180.25 125.25 -180.0 128.0 -182.05 144.75 -182.65 140.15 -181.75 127.75 -175.75 76.5 -174.75 76.75 Q-177.25 82.0 -176.0 94.25 L-177.0 95.5 M158.85 28.5 L159.0 28.75 158.75 28.5 158.85 28.5 M152.0 44.75 L155.0 52.0 150.5 43.5 152.0 44.75 M-39.25 -11.5 Q-34.5 35.75 1.0 36.5 38.25 36.0 41.25 -16.5 41.75 104.0 2.75 105.0 -40.25 107.25 -39.25 -11.5" fill="#000000" fill-opacity="0.49803922" fill-rule="evenodd" stroke="none"/>
  </g>
</svg>
