<?xml version="1.0" encoding="UTF-8" standalone="no"?>
<svg xmlns:ffdec="https://www.free-decompiler.com/flash" xmlns:xlink="http://www.w3.org/1999/xlink" ffdec:objectType="shape" height="290.25px" width="366.5px" xmlns="http://www.w3.org/2000/svg">
  <g transform="matrix(1.0, 0.0, 0.0, 1.0, 182.25, 88.5)">
    <path d="M-24.25 -32.5 Q-25.75 -33.0 -29.0 -40.75 L-29.25 -48.25 -27.75 -50.0 -23.75 -51.75 -14.0 -53.0 -2.75 -52.5 -1.5 -52.0 -1.25 -51.75 0.25 -51.5 1.5 -51.5 2.25 -51.75 3.0 -51.75 3.75 -52.0 4.25 -52.0 5.25 -52.25 13.25 -53.0 23.5 -52.5 26.0 -52.0 28.75 -51.0 30.25 -50.25 31.5 -49.0 31.5 -48.25 Q32.25 -39.25 27.0 -33.25 21.25 -23.0 1.25 -30.25 -13.0 -22.25 -24.25 -32.5 M38.0 13.75 L39.75 18.5 47.25 34.5 50.0 44.5 62.75 68.25 Q84.25 84.5 89.5 101.5 L89.25 117.0 84.5 125.75 84.0 126.25 83.5 127.25 83.0 127.75 82.75 128.25 81.75 129.25 65.25 148.75 36.25 163.75 8.75 168.75 4.0 169.0 -5.75 167.75 -32.5 164.0 -41.75 159.25 -42.0 159.25 -62.75 148.5 -80.25 129.0 -87.0 115.25 Q-88.0 113.75 -84.25 105.5 -54.5 75.25 -36.0 19.0 L-34.75 16.0 -31.25 23.75 -31.0 24.0 -31.0 24.25 Q-15.0 46.5 0.0 43.5 L2.75 43.5 Q27.5 42.0 35.25 20.5 L35.25 20.25 36.25 18.25 38.0 13.75 M-14.0 -39.25 Q-21.25 -32.0 -9.75 -30.0 1.75 -38.0 -14.0 -39.25 M10.0 -30.5 L14.0 -30.0 Q24.0 -34.75 15.75 -39.75 L10.5 -38.75 7.75 -36.75 Q7.0 -32.5 10.0 -30.5" fill="#ffffff" fill-rule="evenodd" stroke="none"/>
    <path d="M10.0 -30.5 Q7.0 -32.5 7.75 -36.75 L10.5 -38.75 15.75 -39.75 Q24.0 -34.75 14.0 -30.0 L10.0 -30.5 M-14.0 -39.25 Q1.75 -38.0 -9.75 -30.0 -21.25 -32.0 -14.0 -39.25" fill="#000000" fill-rule="evenodd" stroke="none"/>
    <path d="M27.0 -33.25 Q40.75 -25.75 41.25 -13.75 L41.5 -5.75 40.0 6.25 38.5 10.5 38.25 11.5 38.0 13.75 36.25 18.25 35.25 20.25 35.25 20.5 Q27.5 42.0 2.75 43.5 L0.0 43.5 Q-15.0 46.5 -31.0 24.25 L-31.0 24.0 -31.25 23.75 -34.75 16.0 -37.5 5.75 -38.75 -4.0 -38.75 -13.25 Q-41.0 -20.75 -24.25 -32.5 -13.0 -22.25 1.25 -30.25 21.25 -23.0 27.0 -33.25 M84.5 125.75 L86.0 125.25 87.75 124.25 88.25 123.75 88.75 123.5 91.0 122.0 92.25 120.75 96.75 117.25 Q110.25 140.75 110.5 154.0 111.0 193.0 55.25 201.0 30.5 204.25 16.75 193.0 11.75 189.5 8.75 168.75 L36.25 163.75 65.25 148.75 81.75 129.25 82.75 128.25 83.0 127.75 83.5 127.25 84.0 126.25 84.5 125.75 M-5.75 167.75 Q-7.25 186.0 -14.0 193.25 L-14.75 194.5 -20.0 197.5 -30.75 200.75 -40.0 201.5 -52.25 200.75 Q-108.75 192.75 -107.5 153.5 L-107.25 152.75 -104.75 140.5 -98.5 125.75 -95.25 120.0 -89.25 124.25 -87.5 125.25 -86.75 126.0 -86.0 126.25 -82.75 128.0 -80.25 129.0 -62.75 148.5 -42.0 159.25 -41.75 159.25 -32.5 164.0 -5.75 167.75" fill="#e58508" fill-rule="evenodd" stroke="none"/>
    <path d="M42.25 -0.25 L41.5 29.75 38.25 58.0 34.75 76.5 Q22.75 120.0 3.75 115.5 -40.75 117.25 -39.0 -6.75 -33.0 41.25 -0.25 40.75 38.25 42.75 41.75 -10.5 L42.25 -0.25 M159.85 30.4 L160.05 30.85 159.75 31.25 159.25 31.0 159.85 30.4 M162.0 61.5 Q165.25 64.75 168.5 65.5 L170.0 67.5 Q179.0 65.75 173.75 39.0 L181.5 71.75 184.25 87.5 184.0 98.0 Q171.25 97.75 144.0 39.25 L134.25 32.75 128.25 29.75 Q143.0 70.5 96.75 117.0 L100.5 123.5 105.75 136.0 104.25 136.0 Q97.75 141.5 93.25 142.75 L93.25 146.5 72.0 169.5 48.5 180.75 40.75 185.25 27.5 188.5 23.25 190.75 23.5 191.5 22.5 192.25 Q84.25 205.25 110.0 165.0 L105.25 176.25 98.75 184.0 94.0 187.75 Q79.25 199.25 47.5 201.5 L33.0 200.75 Q24.75 199.0 19.5 195.75 10.75 189.0 9.0 168.75 L3.75 169.0 -4.25 167.75 Q-5.75 203.75 -41.25 201.5 L-53.5 200.75 -72.25 196.75 -81.25 193.25 -87.75 189.75 -95.25 184.25 -101.75 176.75 Q-104.0 170.0 -105.0 169.75 L-107.0 163.0 Q-84.25 205.75 -17.75 191.25 L-21.0 188.0 -28.5 185.0 -37.0 183.25 -42.5 180.0 -68.25 168.0 -89.75 144.5 -101.75 138.0 -103.25 138.0 -103.5 137.25 -100.0 130.5 -97.75 124.0 -95.25 120.0 Q-119.5 101.0 -125.75 80.75 L-128.25 72.25 -130.25 50.0 -144.0 63.5 -154.5 114.0 -164.25 153.25 -171.5 176.75 -171.25 177.75 -172.25 179.25 -168.5 164.75 -167.75 164.0 -157.0 120.5 -153.5 102.25 -147.25 78.0 Q-149.5 72.5 -148.5 71.75 L-155.75 67.75 -147.0 59.25 Q-140.25 53.0 -138.5 53.75 L-89.0 4.0 Q-115.5 57.25 -110.25 66.0 L-95.75 84.75 -83.25 94.0 -76.0 98.25 Q-75.5 100.5 -84.25 105.75 L-67.5 127.5 -35.75 148.0 -14.0 153.0 2.5 155.5 11.5 154.25 38.25 148.0 Q80.0 127.0 79.25 117.5 95.0 101.25 83.5 89.75 110.75 73.75 121.0 41.5 L116.0 30.25 100.75 6.5 127.5 24.0 136.0 28.75 143.0 31.0 154.5 37.25 155.25 37.0 154.75 36.25 159.0 34.5 Q156.0 41.25 150.0 44.0 L149.75 45.75 154.0 53.75 Q155.25 53.25 160.5 58.75 L162.0 61.5 M152.0 46.75 L154.75 53.0 153.75 52.25 151.0 46.0 152.0 46.75 M-87.25 -58.0 L-86.25 -58.5 -86.75 -57.75 -87.25 -58.0 M-85.25 -60.5 L-84.25 -61.0 -84.75 -60.25 -85.25 -60.5 M-62.25 -87.5 L-60.75 -88.5 -61.75 -87.25 -62.25 -87.5 M-73.25 -75.0 L-71.75 -76.0 -72.75 -74.75 -73.25 -75.0 M-64.75 -84.0 L-65.75 -82.75 -66.25 -83.0 -64.75 -84.0 M-69.25 -79.0 L-69.75 -78.25 -70.25 -78.5 -69.25 -79.0 M-79.75 -66.25 L-80.25 -66.5 -79.25 -67.0 -79.75 -66.25 M-158.0 66.5 L-155.75 66.0 -156.75 67.25 -158.0 66.5 M-177.0 100.5 L-176.75 101.5 -175.75 101.75 -176.5 103.25 -176.0 105.75 -178.0 123.5 -179.25 145.0 -180.25 148.75 -181.75 178.75 -181.75 159.0 -178.75 117.25 Q-178.5 104.25 -176.5 103.25 L-177.25 102.75 -177.0 100.5 M-172.9 181.7 Q-176.45 187.85 -175.75 189.25 L-177.75 190.5 -181.25 189.25 -182.25 179.0 Q-179.4 192.35 -172.9 181.7" fill="#000000" fill-opacity="0.49803922" fill-rule="evenodd" stroke="none"/>
  </g>
</svg>
