<?xml version="1.0" encoding="UTF-8" standalone="no"?>
<svg xmlns:ffdec="https://www.free-decompiler.com/flash" xmlns:xlink="http://www.w3.org/1999/xlink" ffdec:objectType="shape" height="305.2px" width="367.65px" xmlns="http://www.w3.org/2000/svg">
  <g transform="matrix(1.0, 0.0, 0.0, 1.0, 183.15, 88.0)">
    <path d="M-23.5 -27.25 Q-25.0 -27.75 -28.25 -35.5 L-28.25 -43.0 -28.0 -43.5 -27.0 -44.5 -19.75 -46.75 -9.5 -47.25 -1.75 -46.75 0.0 -46.0 1.0 -45.75 2.25 -45.75 3.25 -46.0 4.0 -46.0 4.75 -46.25 5.0 -46.25 14.25 -47.25 24.75 -46.75 27.25 -46.25 31.5 -44.5 32.5 -43.5 32.0 -35.0 28.25 -28.0 Q25.25 -17.75 2.25 -24.5 -12.5 -16.75 -23.5 -27.25 M38.75 18.75 L47.5 37.5 51.25 49.75 64.5 73.25 Q83.75 86.0 89.75 103.5 L89.5 118.75 85.0 126.5 84.75 127.0 83.75 128.5 83.25 129.0 82.0 130.75 65.5 150.25 37.0 165.25 9.0 170.0 2.0 170.5 -5.75 169.25 -31.75 165.75 -58.75 152.25 -59.0 152.25 -61.75 150.75 -80.0 130.25 -81.0 129.5 -86.75 117.0 Q-83.5 111.0 -84.25 107.75 -53.75 78.75 -35.5 23.5 L-34.25 20.75 -34.0 20.75 -30.25 29.5 -30.0 29.75 -30.0 30.0 Q-14.75 51.25 0.5 49.0 L3.25 49.0 Q16.5 52.75 33.75 30.5 L33.75 30.25 34.0 30.0 35.0 28.0 35.0 27.75 36.0 25.75 38.75 18.75 M-13.0 -33.75 Q-20.25 -26.75 -9.5 -24.25 2.75 -33.25 -13.0 -33.75 M16.5 -34.0 Q1.5 -32.0 14.5 -24.25 25.5 -28.5 16.5 -34.0" fill="#ffffff" fill-rule="evenodd" stroke="none"/>
    <path d="M16.5 -34.0 Q25.5 -28.5 14.5 -24.25 1.5 -32.0 16.5 -34.0 M-13.0 -33.75 Q2.75 -33.25 -9.5 -24.25 -20.25 -26.75 -13.0 -33.75" fill="#000000" fill-rule="evenodd" stroke="none"/>
    <path d="M28.25 -28.0 Q43.75 -17.75 42.0 -8.75 L42.5 -6.75 42.0 2.5 40.5 12.75 38.75 18.75 36.0 25.75 35.0 27.75 35.0 28.0 34.0 30.0 33.75 30.25 33.75 30.5 Q16.5 52.75 3.25 49.0 L0.5 49.0 Q-14.75 51.25 -30.0 30.0 L-30.0 29.75 -30.25 29.5 -34.0 20.75 -34.25 20.75 -36.75 11.0 -38.0 1.5 -38.25 -8.5 Q-36.25 -21.25 -23.5 -27.25 -12.5 -16.75 2.25 -24.5 25.25 -17.75 28.25 -28.0 M85.0 126.5 L87.75 125.25 88.5 124.75 89.0 124.25 89.5 124.0 90.25 123.5 97.0 118.25 Q110.25 140.25 110.5 154.0 111.0 193.0 55.25 201.0 30.5 204.25 16.75 193.0 11.5 188.75 9.0 170.0 L37.0 165.25 65.5 150.25 82.0 130.75 83.25 129.0 83.75 128.5 84.75 127.0 85.0 126.5 M-5.75 169.25 L-8.75 184.25 Q-12.25 192.25 -14.0 193.25 L-14.75 194.5 -20.0 197.5 -30.75 200.75 -40.0 201.5 -52.25 200.75 Q-108.75 192.75 -107.5 153.5 L-107.25 152.75 -104.75 140.5 -98.5 125.75 -95.5 120.5 -88.5 125.75 -88.0 126.0 -87.25 126.5 -86.5 126.75 -86.0 127.0 -83.5 128.5 -82.0 129.0 -81.0 129.5 -80.0 130.25 -61.75 150.75 -59.0 152.25 -58.75 152.25 -31.75 165.75 -5.75 169.25" fill="#e58508" fill-rule="evenodd" stroke="none"/>
    <path d="M-83.25 -59.0 L-81.75 -60.0 -82.75 -58.75 -83.25 -59.0 M-86.25 -55.5 L-84.75 -56.5 -85.75 -55.0 -86.25 -55.5 M-57.75 -87.5 L-56.75 -88.0 -57.25 -87.25 -57.75 -87.5 M-63.75 -81.0 L-62.25 -82.0 -63.25 -80.75 -63.75 -81.0 M-79.75 -63.0 L-78.75 -63.5 -79.25 -62.75 -79.75 -63.0 M-76.25 -66.25 L-76.75 -66.5 -75.25 -67.5 -76.25 -66.25 M-96.75 17.5 L-86.25 5.25 -86.25 7.0 -94.75 25.75 -95.75 30.0 -102.75 47.5 -108.75 66.25 Q-93.75 87.75 -73.0 96.75 L-76.75 103.0 Q-83.75 106.25 -83.5 107.75 L-67.25 128.75 -36.0 148.5 -23.0 152.0 1.75 156.25 Q39.0 157.5 76.0 123.5 L88.0 104.0 Q90.5 101.0 81.75 88.75 113.0 70.5 120.25 44.0 L116.25 33.75 101.0 9.5 136.5 31.5 Q137.0 30.0 133.25 28.5 L139.0 30.5 143.25 33.75 155.0 39.5 Q156.25 36.75 159.5 37.0 157.0 44.0 150.5 46.75 L151.5 47.75 150.5 48.75 154.5 55.5 154.4 55.15 Q158.55 60.3 169.75 67.5 178.75 65.75 173.75 39.0 L181.5 71.75 184.25 87.75 184.5 97.75 Q170.75 98.75 144.25 41.25 L129.0 32.75 Q143.0 70.5 97.0 118.0 L100.5 123.5 106.25 137.25 Q98.0 135.75 73.0 170.5 L53.0 180.0 40.75 187.0 30.5 189.75 Q25.25 191.75 25.0 193.5 90.5 202.25 110.0 164.75 L105.25 176.25 98.75 184.0 93.0 188.5 Q79.75 199.0 47.5 201.5 L33.5 200.75 23.75 198.25 Q13.0 197.0 9.25 170.25 L2.75 170.5 -5.0 169.25 Q-8.0 186.75 -14.25 194.25 -23.5 202.75 -51.75 201.0 L-60.25 199.75 -72.25 196.75 -86.75 190.25 Q-103.4 180.25 -106.7 164.6 -103.3 178.75 -73.25 191.5 -35.0 202.0 -20.0 191.25 -21.0 188.25 -36.0 185.0 L-68.75 169.0 -88.75 146.75 Q-101.75 138.25 -104.0 139.25 L-97.75 124.0 -95.5 120.75 Q-121.5 99.5 -125.75 81.0 L-128.0 74.25 -129.5 58.25 -132.25 60.25 -144.25 73.0 -146.75 88.0 Q-147.75 83.75 -146.75 83.5 L-149.25 80.25 -152.75 79.75 -156.0 77.25 -150.0 72.0 -148.75 73.0 -148.0 72.5 -136.5 60.5 -136.75 60.0 -134.25 58.0 Q-134.75 56.75 -129.75 52.25 L-124.25 47.5 -124.5 47.0 -116.75 39.5 -117.0 39.0 -106.5 29.0 -106.75 28.5 -96.5 18.0 -96.75 17.5 M-158.75 76.25 L-157.5 75.75 -157.75 76.5 -158.75 76.25 M-157.25 143.5 L-151.75 110.0 -147.5 90.5 -154.25 130.25 -164.75 179.5 -165.25 178.5 -164.5 177.5 -164.75 176.25 -157.25 143.5 M-175.75 95.0 L-176.25 91.5 -175.25 91.75 -175.75 95.0 M-175.75 95.75 L-176.25 99.25 -176.75 95.5 -175.75 95.75 M-176.75 108.0 L-176.5 112.25 -177.25 115.75 -177.25 124.5 -180.25 167.0 -180.75 159.5 -178.25 118.0 -176.75 108.0 M-180.25 167.75 L-181.25 193.25 -181.75 180.0 -181.0 167.5 -180.25 167.75 M-179.35 213.45 Q-181.8 210.15 -183.15 206.4 -183.3 201.9 -182.25 195.5 -180.25 196.75 -181.25 209.5 L-179.35 213.45 M159.5 33.75 L160.8 32.3 161.1 32.9 160.25 34.0 159.5 33.75 M-176.2 217.2 L-178.35 214.75 -177.0 214.75 Q-174.0 207.5 -172.25 207.75 L-174.75 215.0 -176.2 217.2 M42.5 34.75 L39.25 67.5 36.25 82.0 36.5 83.5 Q23.75 131.75 6.0 126.75 -41.75 128.5 -38.25 -2.0 -32.75 46.75 1.75 45.25 38.25 46.75 42.5 -3.0 L43.0 0.0 42.5 34.75" fill="#000000" fill-opacity="0.49803922" fill-rule="evenodd" stroke="none"/>
  </g>
</svg>
