<?xml version="1.0" encoding="UTF-8" standalone="no"?>
<svg xmlns:ffdec="https://www.free-decompiler.com/flash" xmlns:xlink="http://www.w3.org/1999/xlink" ffdec:objectType="shape" height="308.75px" width="366.75px" xmlns="http://www.w3.org/2000/svg">
  <g transform="matrix(1.0, 0.0, 0.0, 1.0, 182.25, 107.0)">
    <path d="M-22.25 -38.0 Q-23.75 -38.5 -27.0 -46.5 L-27.0 -54.0 -25.75 -55.75 -24.0 -56.75 -18.75 -58.25 -12.0 -59.0 -0.75 -58.5 0.75 -58.0 1.0 -57.75 2.25 -57.5 3.5 -57.5 5.25 -57.75 5.75 -58.25 10.5 -58.5 11.25 -58.75 19.25 -59.0 28.25 -57.75 30.75 -56.75 32.25 -55.75 33.5 -54.5 33.0 -46.0 29.25 -38.75 Q24.0 -28.75 3.25 -36.0 -11.0 -28.25 -22.25 -38.0 M39.5 9.0 L48.5 30.25 52.25 42.75 64.25 65.5 Q85.0 81.25 89.75 98.5 L89.75 115.5 84.5 125.0 84.0 125.75 82.75 127.25 82.25 128.0 81.25 129.0 66.25 147.0 37.25 162.0 8.5 167.5 -5.5 166.25 -14.5 165.5 -31.25 162.5 -59.5 148.75 -62.0 147.25 -78.5 128.75 -80.0 127.5 -86.5 113.25 Q-84.0 108.0 -83.75 103.5 -54.5 73.5 -34.5 14.5 L-32.75 10.75 -31.5 13.75 Q-20.75 38.0 1.75 37.75 L4.5 37.75 Q25.25 37.5 35.0 19.25 L35.0 19.0 35.75 17.75 35.75 17.5 39.5 9.0 M-14.0 -44.0 Q-15.0 -34.75 -7.25 -36.0 3.5 -46.75 -14.0 -44.0 M18.75 -45.5 Q2.25 -44.5 15.5 -35.75 25.75 -41.0 18.75 -45.5" fill="#ffffff" fill-rule="evenodd" stroke="none"/>
    <path d="M18.75 -45.5 Q25.75 -41.0 15.5 -35.75 2.25 -44.5 18.75 -45.5 M-14.0 -44.0 Q3.5 -46.75 -7.25 -36.0 -15.0 -34.75 -14.0 -44.0" fill="#000000" fill-rule="evenodd" stroke="none"/>
    <path d="M29.25 -38.75 Q43.25 -29.5 43.0 -18.75 L43.25 -11.25 41.75 1.0 40.25 5.25 39.5 9.0 35.75 17.5 35.75 17.75 35.0 19.0 35.0 19.25 Q25.25 37.5 4.5 37.75 L1.75 37.75 Q-20.75 38.0 -31.5 13.75 L-32.75 10.75 -35.5 1.0 -37.25 -12.5 -37.0 -18.5 Q-39.5 -25.75 -22.25 -38.0 -11.0 -28.25 3.25 -36.0 24.0 -28.75 29.25 -38.75 M84.5 125.0 L85.5 124.75 87.5 123.75 88.0 123.25 96.25 117.0 Q108.5 136.25 110.5 154.0 111.0 193.0 55.25 201.0 30.5 204.25 16.75 193.0 11.75 190.0 8.5 167.5 L37.25 162.0 66.25 147.0 81.25 129.0 82.25 128.0 82.75 127.25 84.0 125.75 84.5 125.0 M-5.5 166.25 Q-7.25 187.25 -14.0 193.25 L-14.75 194.5 -20.0 197.5 -30.75 200.75 -40.0 201.5 -52.25 200.75 Q-108.75 192.75 -107.5 153.5 L-107.25 152.75 -104.75 140.5 -98.5 125.75 -94.5 119.0 -88.75 123.25 -87.0 124.25 -86.25 125.0 -86.0 125.0 -85.0 125.5 -83.5 126.5 -80.25 128.0 -79.5 128.25 -78.5 128.75 -62.0 147.25 -59.5 148.75 -31.25 162.5 -14.5 165.5 -5.5 166.25" fill="#e58508" fill-rule="evenodd" stroke="none"/>
    <path d="M-50.75 -102.5 L-45.75 -107.0 -50.25 -102.25 -50.75 -102.5 M-97.5 -44.5 L-95.5 -46.0 -97.0 -44.25 -97.5 -44.5 M-83.75 -3.25 L-83.25 -2.25 -92.5 19.25 -92.75 21.5 -93.5 22.0 -94.0 25.0 -94.75 25.5 -95.25 28.5 -96.0 29.0 -96.5 32.0 -97.25 32.5 -97.75 35.5 -100.0 40.0 -103.75 52.5 -106.25 58.25 -109.25 68.5 -109.25 70.75 -101.25 81.75 -95.5 88.25 -78.25 99.0 Q-84.75 102.0 -83.75 104.25 L-67.25 126.25 -35.5 147.5 -28.25 149.5 1.75 155.0 14.5 152.75 39.5 146.5 Q78.5 126.75 81.25 114.0 L89.0 100.5 Q90.5 98.75 86.0 89.75 113.5 71.5 122.0 39.0 L121.25 35.75 116.5 26.0 102.5 3.5 130.5 22.75 138.5 27.25 140.25 27.0 155.5 35.25 Q154.0 32.75 159.5 31.75 157.25 39.25 150.0 41.5 L150.25 44.0 Q151.75 52.25 171.0 67.25 178.75 64.0 174.25 38.5 L181.75 72.0 184.5 89.0 184.25 97.25 Q170.75 97.25 143.75 35.75 L128.5 26.75 Q142.5 73.25 96.25 116.75 L100.25 123.25 105.25 135.0 103.5 135.0 Q98.75 139.5 93.75 141.0 95.25 146.25 73.5 167.5 33.0 190.0 24.25 187.5 L20.5 191.0 Q81.75 207.25 110.0 164.25 L105.25 176.25 97.5 185.0 Q81.5 199.25 47.5 201.5 L33.0 200.75 Q24.75 199.0 19.5 195.75 10.25 188.5 8.75 167.75 L-3.25 166.25 -5.25 166.25 -6.5 175.25 -10.5 188.5 -14.25 194.25 -20.75 198.25 -28.25 200.25 -41.25 201.5 -56.75 200.25 Q-83.25 197.75 -101.75 176.75 -104.0 170.0 -105.0 169.75 L-107.0 163.0 Q-99.25 183.75 -70.75 192.25 -37.75 202.5 -16.0 189.75 -17.0 185.5 -37.0 181.25 L-67.75 166.5 -89.0 143.25 Q-100.75 135.75 -102.75 136.5 L-97.75 124.0 -94.75 119.0 Q-117.25 102.5 -125.75 78.75 -125.0 77.5 -127.75 71.25 L-129.0 55.75 Q-144.4 67.95 -147.75 80.2 -149.6 77.6 -154.5 76.75 L-155.0 76.5 -154.0 76.0 -152.75 76.25 -153.0 75.5 -151.25 74.5 -151.5 74.0 -150.0 73.0 -150.25 72.5 -140.5 61.5 -139.8 60.55 -140.25 62.0 -134.75 55.75 -123.25 45.0 -123.5 44.5 -111.0 30.5 -111.25 30.0 -109.75 29.0 -110.0 28.5 Q-108.75 28.25 -103.5 20.75 L-96.5 13.5 -96.75 13.0 -94.5 11.0 -84.25 -2.75 -83.75 -3.25 M-54.25 -99.0 L-51.75 -101.0 -53.75 -98.75 -54.25 -99.0 M-60.25 -91.25 L-60.75 -91.5 -59.75 -92.0 -60.25 -91.25 M-70.75 -80.0 L-69.75 -80.5 -70.25 -79.75 -70.75 -80.0 M-66.75 -84.0 L-67.25 -83.25 -67.75 -83.5 -66.75 -84.0 M-136.0 56.25 L-139.35 59.85 -137.25 56.75 -136.25 55.75 -136.0 56.25 M-148.25 91.75 L-157.5 140.75 -167.25 184.5 -167.75 183.5 -159.5 149.0 -148.75 90.75 -148.25 91.75 M-181.25 135.5 L-181.75 132.0 -180.75 132.25 -181.25 135.5 M-181.75 141.25 L-182.25 137.5 -181.25 137.75 -181.75 141.25 M-182.2 143.15 L-181.75 143.25 -182.0 145.4 -182.2 143.15 M152.5 44.25 L155.75 52.0 151.75 44.0 152.5 44.25 M-37.0 -9.5 Q-31.25 35.75 3.5 36.5 39.5 36.0 43.5 -14.5 44.25 104.0 5.5 104.75 -36.75 107.25 -37.0 -9.5" fill="#000000" fill-opacity="0.49803922" fill-rule="evenodd" stroke="none"/>
  </g>
</svg>
