<?xml version="1.0" encoding="UTF-8" standalone="no"?>
<svg xmlns:ffdec="https://www.free-decompiler.com/flash" xmlns:xlink="http://www.w3.org/1999/xlink" ffdec:objectType="shape" height="361.55px" width="374.1px" xmlns="http://www.w3.org/2000/svg">
  <g transform="matrix(1.0, 0.0, 0.0, 1.0, 190.25, 126.0)">
    <path d="M11.0 -54.0 Q10.5 -49.75 13.0 -47.75 L16.75 -47.0 Q27.25 -52.0 19.75 -57.0 L14.25 -56.25 11.0 -54.0 M-20.75 -48.75 Q-22.5 -49.0 -25.5 -57.0 L-25.5 -64.75 -24.0 -66.75 -22.5 -67.75 -20.0 -68.75 -10.5 -70.5 1.0 -69.75 2.5 -69.0 3.5 -69.0 5.0 -68.75 6.5 -69.25 7.25 -69.25 7.25 -69.5 20.25 -70.25 27.0 -69.5 29.5 -68.75 33.25 -66.75 34.5 -65.25 34.5 -64.5 Q35.5 -63.75 34.25 -56.75 L30.25 -49.25 Q27.0 -40.0 4.75 -47.0 -10.0 -39.25 -20.75 -48.75 M40.25 -0.5 L49.25 22.0 52.75 34.5 64.25 58.0 Q85.5 76.25 90.5 95.25 L90.25 111.5 83.75 123.75 83.0 124.75 82.0 125.75 81.5 126.5 81.0 127.0 80.25 128.0 79.25 129.0 66.5 144.0 38.25 158.5 8.25 165.0 -4.75 163.75 -13.75 162.5 Q-17.75 161.6 -21.75 161.75 L-28.25 160.0 -40.0 155.0 -61.75 144.0 -77.0 127.5 -80.0 124.0 -85.75 110.75 -86.0 108.0 Q-83.0 104.25 -83.25 99.25 -52.25 64.5 -33.25 5.5 L-31.25 0.75 -30.25 3.25 Q-20.75 26.25 2.75 27.0 L5.5 27.0 Q31.0 25.25 38.25 4.25 L38.25 4.0 40.25 -0.5 M-10.25 -57.0 Q-18.0 -49.0 -6.0 -47.25 4.5 -56.5 -10.25 -57.0" fill="#ffffff" fill-rule="evenodd" stroke="none"/>
    <path d="M11.0 -54.0 L14.25 -56.25 19.75 -57.0 Q27.25 -52.0 16.75 -47.0 L13.0 -47.75 Q10.5 -49.75 11.0 -54.0 M-10.25 -57.0 Q4.5 -56.5 -6.0 -47.25 -18.0 -49.0 -10.25 -57.0" fill="#000000" fill-rule="evenodd" stroke="none"/>
    <path d="M30.25 -49.25 Q47.0 -33.75 43.75 -28.5 L44.25 -21.25 41.25 -4.0 40.25 -0.5 38.25 4.0 38.25 4.25 Q31.0 25.25 5.5 27.0 L2.75 27.0 Q-20.75 26.25 -30.25 3.25 L-31.25 0.75 -34.25 -9.5 -35.75 -20.25 -35.75 -28.25 -33.0 -37.0 Q-31.75 -41.75 -20.75 -48.75 -10.0 -39.25 4.75 -47.0 27.0 -40.0 30.25 -49.25 M83.75 123.75 L84.5 123.5 87.75 122.0 95.5 115.75 Q111.0 141.5 110.5 154.0 111.0 193.0 55.25 201.0 30.5 204.25 16.75 193.0 11.5 189.75 8.25 165.0 L38.25 158.5 66.5 144.0 79.25 129.0 80.25 128.0 81.0 127.0 81.5 126.5 82.0 125.75 83.0 124.75 83.75 123.75 M-4.75 163.75 L-8.5 183.5 Q-12.25 192.5 -14.0 193.25 L-14.75 194.5 -20.0 197.5 -30.75 200.75 -40.0 201.5 -52.25 200.75 Q-108.75 192.75 -107.5 153.5 L-107.25 152.75 -104.75 140.5 -97.75 124.0 -93.75 117.5 -86.5 122.5 -86.0 122.75 -85.5 123.25 -84.5 123.75 -84.0 124.25 -78.75 126.75 -78.0 127.0 -77.0 127.5 -61.75 144.0 -40.0 155.0 -28.25 160.0 -21.75 161.75 Q-17.75 161.6 -13.75 162.5 L-4.75 163.75" fill="#e58508" fill-rule="evenodd" stroke="none"/>
    <path d="M-54.25 -106.0 L-53.25 -106.5 -53.75 -105.75 -54.25 -106.0 M-50.75 -110.0 L-48.75 -111.5 -50.25 -109.5 -50.75 -110.0 M-39.25 -122.0 L-38.25 -122.5 -38.75 -121.75 -39.25 -122.0 M-35.75 -125.5 L-34.75 -126.0 -35.25 -125.25 -35.75 -125.5 M-80.75 -10.5 L-91.25 14.75 -92.25 19.0 -93.0 19.5 -93.0 21.0 -93.75 21.5 -93.75 23.0 -99.75 37.75 -109.5 67.75 -110.5 72.75 -101.75 83.75 -95.0 90.5 -83.25 98.0 Q-82.25 98.25 -83.5 101.25 L-66.75 124.75 -40.5 143.25 -34.75 146.25 0.5 153.0 16.0 150.75 40.25 144.5 50.75 138.5 70.0 125.75 84.5 107.0 89.5 97.75 Q90.75 93.75 88.75 90.5 97.25 87.75 113.5 62.0 L118.75 51.5 123.5 34.0 123.0 31.25 117.75 19.75 105.75 1.75 104.0 -2.0 107.75 1.0 109.75 1.5 113.0 4.75 131.25 17.75 140.75 23.5 141.75 24.0 143.5 23.5 155.75 31.0 156.25 30.25 155.5 29.0 158.6 27.95 159.15 29.1 Q156.7 34.3 149.5 36.5 L149.25 40.0 Q158.25 54.75 161.25 55.0 L165.5 63.25 167.0 63.75 169.0 66.5 Q173.5 68.5 175.0 65.5 L176.0 54.5 175.75 49.75 174.25 43.75 Q175.5 41.75 173.75 36.5 L174.25 36.0 Q189.5 90.75 180.5 98.0 L176.25 94.25 170.5 85.25 164.5 73.25 162.0 69.75 149.75 44.75 147.0 37.75 144.5 33.75 144.0 31.25 128.25 20.75 Q144.5 68.25 95.5 115.5 L99.75 122.25 104.25 132.75 103.0 132.5 94.75 137.5 94.25 141.0 73.5 164.75 44.0 179.25 Q18.0 183.25 16.75 188.5 71.75 211.25 108.75 165.75 L110.0 163.5 109.0 167.75 Q106.25 193.25 47.5 201.5 7.75 203.5 9.0 170.25 L8.25 165.5 -4.75 163.75 -8.25 182.75 Q-10.75 191.75 -16.25 195.5 -20.25 198.75 -26.25 199.75 L-41.25 201.5 -53.25 200.75 -72.25 196.75 -81.25 193.25 -87.75 189.75 -95.25 184.25 -101.75 176.75 Q-104.0 170.0 -105.0 169.75 L-107.0 163.0 Q-96.0 186.5 -69.0 192.75 -21.25 201.5 -12.75 188.25 -13.25 183.25 -33.25 180.0 -50.6 171.65 -68.0 163.25 L-88.25 141.0 Q-99.75 133.0 -102.0 134.25 L-97.5 123.5 -93.5 117.5 Q-119.0 98.25 -124.5 78.5 L-127.25 69.25 -129.0 51.5 -146.25 71.75 -146.25 78.25 -149.05 90.75 Q-149.95 86.1 -147.25 81.25 -149.0 80.5 -147.0 75.75 L-152.25 72.75 -146.75 65.75 Q-142.75 61.5 -139.75 61.0 L-140.0 60.5 -118.25 34.5 -115.5 30.25 -95.0 6.5 -95.25 6.0 -81.0 -12.0 -80.75 -10.5 M-150.0 91.5 L-149.1 91.1 -149.35 92.15 -150.0 91.5 M-152.0 102.5 L-151.25 102.0 Q-150.95 98.15 -149.8 94.5 L-150.25 99.0 -155.2 122.2 -151.5 103.0 -152.0 102.5 M-160.25 149.5 L-169.0 185.5 -166.0 170.25 -159.2 142.55 -160.25 149.5 M-183.25 130.5 L-182.5 130.5 -182.75 133.25 -183.25 130.5 M-183.75 135.0 L-182.75 135.25 -183.1 137.85 -183.6 135.95 -183.75 135.0 M-190.25 235.25 L-190.25 234.1 -189.6 235.55 -190.25 235.25 M-35.75 -20.0 Q-33.25 23.0 7.0 26.5 40.25 24.0 44.5 -22.5 49.25 69.0 7.75 84.5 -33.75 89.25 -35.75 -20.0" fill="#000000" fill-opacity="0.49803922" fill-rule="evenodd" stroke="none"/>
  </g>
</svg>
