<?xml version="1.0" encoding="UTF-8" standalone="no"?>
<svg xmlns:ffdec="https://www.free-decompiler.com/flash" xmlns:xlink="http://www.w3.org/1999/xlink" ffdec:objectType="shape" height="367.35px" width="376.0px" xmlns="http://www.w3.org/2000/svg">
  <g transform="matrix(1.0, 0.0, 0.0, 1.0, 191.75, 136.5)">
    <path d="M-19.25 -59.0 L-23.75 -67.0 -24.0 -75.25 -22.5 -77.25 -20.75 -78.5 -18.0 -79.75 -15.5 -80.5 -9.0 -81.5 2.75 -80.75 3.5 -80.25 4.0 -80.0 5.25 -79.75 6.5 -79.75 8.25 -80.25 9.0 -80.25 9.0 -80.5 21.75 -81.25 25.25 -81.0 31.0 -79.5 33.0 -78.5 34.75 -77.25 36.0 -75.75 36.25 -74.75 35.5 -67.0 31.25 -59.25 Q29.25 -50.5 6.25 -57.75 -8.5 -50.25 -19.25 -59.0 M41.0 -9.5 L50.0 13.0 53.75 27.25 65.5 52.25 Q86.25 71.5 90.75 90.5 L90.5 108.5 84.75 120.25 82.75 122.75 79.75 126.0 79.0 127.0 78.0 128.0 71.5 135.75 65.75 141.5 39.0 155.0 32.5 156.75 32.0 156.75 31.5 157.0 7.75 162.5 -5.0 161.0 -22.25 159.0 -45.5 149.5 -61.25 141.0 -74.0 127.25 -75.25 126.25 -80.0 120.75 -85.5 106.75 -85.75 104.0 Q-82.25 100.75 -82.75 94.5 -51.75 58.75 -32.0 -3.25 L-29.75 -8.75 -29.5 -8.75 -29.25 -8.5 -29.25 -8.25 -29.0 -7.75 -27.5 -4.0 Q-16.5 16.0 4.25 16.25 L7.25 16.25 Q30.0 16.25 39.5 -6.0 L39.5 -6.25 40.25 -8.25 40.5 -8.5 40.75 -9.25 41.0 -9.5 M14.75 -58.5 L18.5 -58.0 Q28.75 -62.5 21.0 -68.0 L16.75 -67.75 12.5 -64.5 Q11.75 -61.25 14.75 -58.5 M-8.75 -68.0 Q-16.5 -61.75 -5.25 -58.0 7.0 -67.25 -8.75 -68.0" fill="#ffffff" fill-rule="evenodd" stroke="none"/>
    <path d="M14.75 -58.5 Q11.75 -61.25 12.5 -64.5 L16.75 -67.75 21.0 -68.0 Q28.75 -62.5 18.5 -58.0 L14.75 -58.5 M-8.75 -68.0 Q7.0 -67.25 -5.25 -58.0 -16.5 -61.75 -8.75 -68.0" fill="#000000" fill-rule="evenodd" stroke="none"/>
    <path d="M31.25 -59.25 Q46.25 -48.0 45.0 -38.0 L45.25 -29.25 42.75 -16.0 41.0 -9.5 40.75 -9.25 40.5 -8.5 40.25 -8.25 39.5 -6.25 39.5 -6.0 Q30.0 16.25 7.25 16.25 L4.25 16.25 Q-16.5 16.0 -27.5 -4.0 L-29.0 -7.75 -29.25 -8.25 -29.25 -8.5 -29.5 -8.75 -29.75 -8.75 -29.5 -9.25 -30.5 -11.75 -30.75 -12.25 -32.5 -18.0 -32.5 -18.25 -34.25 -30.0 -34.25 -37.75 Q-36.25 -45.25 -19.25 -59.0 -8.5 -50.25 6.25 -57.75 29.25 -50.5 31.25 -59.25 M82.75 122.75 L83.5 122.5 85.25 121.5 86.0 121.25 87.5 120.5 88.5 119.75 89.25 119.0 95.0 114.75 Q111.75 143.5 110.5 154.0 111.0 193.0 55.25 201.0 30.5 204.25 16.75 193.0 14.75 192.75 11.5 183.25 L7.75 162.5 31.5 157.0 32.0 156.75 32.5 156.75 39.0 155.0 65.75 141.5 71.5 135.75 78.0 128.0 79.0 127.0 79.75 126.0 82.75 122.75 M-5.0 161.0 Q-7.5 189.75 -14.0 193.25 L-14.75 194.5 -20.0 197.5 -30.75 200.75 -40.0 201.5 -52.25 200.75 Q-108.75 192.75 -107.5 153.5 L-107.25 152.75 -104.75 140.5 -97.75 124.0 -93.0 116.0 -92.75 116.0 -92.25 116.5 -83.5 122.5 -75.25 126.25 -74.0 127.25 -61.25 141.0 -45.5 149.5 -22.25 159.0 -5.0 161.0" fill="#e58508" fill-rule="evenodd" stroke="none"/>
    <path d="M-51.75 -115.5 L-50.75 -116.0 -51.25 -115.25 -51.75 -115.5 M-48.25 -119.5 L-46.75 -120.5 -47.75 -119.25 -48.25 -119.5 M-34.25 -134.75 L-31.75 -136.5 -33.75 -134.5 -34.25 -134.75 M-78.0 -22.0 L-77.5 -21.25 -88.25 4.75 -105.0 50.25 -105.0 52.0 -109.0 62.75 -108.75 64.0 Q-110.0 64.5 -111.25 72.75 -92.0 100.5 -82.75 99.0 L-65.75 124.0 -54.25 132.5 -33.5 143.75 2.25 150.25 34.25 144.5 42.0 142.0 70.0 123.25 Q92.25 97.25 90.25 90.25 L97.5 85.0 97.25 84.5 101.25 81.0 101.0 80.5 111.25 69.0 Q131.0 25.5 121.0 18.5 L113.5 5.25 105.0 -7.5 131.75 12.75 143.5 20.5 145.5 20.0 156.0 26.75 Q157.5 26.25 156.0 24.0 L156.55 23.85 157.9 26.5 Q155.1 29.8 148.25 33.75 L150.0 38.25 151.0 38.75 164.0 57.75 167.5 64.75 Q171.25 67.5 172.75 71.75 L176.0 74.75 177.25 71.0 175.75 61.25 176.0 50.0 174.25 40.75 Q172.75 33.25 174.0 32.5 L176.75 44.0 184.0 84.5 184.25 95.5 Q183.5 98.0 179.75 97.25 L176.0 93.25 170.75 83.25 169.0 81.25 158.75 60.75 149.5 39.25 148.25 37.75 147.5 34.75 146.25 33.25 144.0 26.75 128.25 15.25 Q144.75 68.0 95.0 114.5 L99.75 122.25 103.5 130.5 102.0 130.5 95.0 134.5 Q95.25 137.75 93.25 140.0 L73.5 162.0 41.75 177.5 Q16.0 179.5 15.0 185.75 25.5 201.75 66.0 194.5 99.5 187.75 109.0 165.0 L110.0 163.5 109.75 166.0 Q105.75 194.25 47.5 201.5 L33.25 200.75 Q21.75 198.5 18.0 194.75 10.0 187.75 7.75 162.25 L-4.5 161.0 Q-5.75 207.25 -41.25 201.5 L-56.75 200.25 Q-83.25 197.75 -101.75 176.75 L-106.25 166.75 Q-107.75 163.25 -106.5 163.0 -101.0 187.0 -52.5 196.5 -13.25 197.25 -11.25 185.0 -14.0 179.25 -31.75 178.25 L-63.25 163.0 Q-92.75 129.75 -100.75 132.0 L-98.5 125.75 -92.75 116.0 Q-117.25 98.75 -124.75 75.25 L-126.75 67.25 -128.25 54.75 -128.25 46.25 -146.0 66.75 -145.75 69.5 -146.5 67.75 -149.75 65.5 -146.75 64.0 -147.0 63.5 -133.25 47.0 -126.0 37.0 -122.25 33.25 -122.0 32.0 -120.5 31.5 -119.5 30.0 -120.0 29.5 -118.0 28.5 -118.25 28.0 -107.25 14.75 -102.25 10.0 -102.5 9.5 -83.0 -14.5 -78.0 -22.0 M-147.75 81.5 Q-148.0 73.5 -146.5 72.5 L-146.0 74.25 -158.75 136.5 -159.25 135.5 -152.25 102.75 Q-151.25 100.5 -152.25 100.0 -151.6 100.15 -151.5 99.5 L-148.75 86.5 -149.5 85.75 -148.5 85.0 Q-150.0 83.25 -147.75 81.5 M-183.75 133.25 L-184.05 134.55 -184.6 133.05 -183.75 133.25 M-183.5 128.5 L-183.75 131.0 -184.25 128.5 -183.5 128.5 M-170.0 180.5 L-160.25 142.5 -169.5 181.5 -170.0 180.5 M-191.75 230.75 L-191.75 230.45 -191.6 230.85 -191.75 230.75 M171.25 21.5 L170.25 19.05 170.6 18.9 170.75 19.0 171.25 21.5 M-34.25 -27.75 Q-29.75 12.0 6.75 16.25 46.25 9.75 45.5 -36.0 49.75 56.5 8.75 66.75 -29.5 72.5 -34.25 -27.75" fill="#000000" fill-opacity="0.49803922" fill-rule="evenodd" stroke="none"/>
  </g>
</svg>
