<?xml version="1.0" encoding="UTF-8" standalone="no"?>
<svg xmlns:ffdec="https://www.free-decompiler.com/flash" xmlns:xlink="http://www.w3.org/1999/xlink" ffdec:objectType="shape" height="361.0px" width="368.7px" xmlns="http://www.w3.org/2000/svg">
  <g transform="matrix(1.0, 0.0, 0.0, 1.0, 185.25, 154.0)">
    <path d="M-18.0 -68.75 L-22.5 -76.5 Q-24.0 -84.5 -22.75 -85.25 L-22.75 -86.0 -19.75 -89.0 -17.25 -90.25 -11.25 -91.75 -7.75 -92.25 0.0 -92.0 3.75 -91.5 4.5 -91.0 5.0 -90.75 7.5 -90.25 8.0 -90.5 9.25 -90.75 9.75 -91.0 14.75 -91.75 22.75 -92.0 28.75 -91.0 31.75 -90.0 35.5 -87.5 36.75 -85.75 37.0 -84.75 36.25 -76.75 32.0 -69.25 Q24.75 -60.75 7.0 -68.25 -9.5 -61.25 -18.0 -68.75 M41.25 -19.0 L41.5 -19.0 43.75 -12.0 50.5 5.0 54.75 21.0 65.5 45.25 Q86.25 65.0 91.0 86.5 L90.75 105.0 Q84.5 120.25 80.75 122.5 L79.5 123.75 79.25 124.25 67.0 138.0 37.75 152.25 7.75 159.75 -4.5 158.25 -22.0 156.5 -49.0 145.25 -59.75 138.75 -72.25 126.0 -73.0 125.5 -79.75 118.0 -85.25 103.0 -85.25 100.25 Q-81.75 95.5 -82.5 90.5 L-74.75 83.25 Q-75.25 81.0 -67.0 71.0 L-53.5 45.0 -44.5 23.25 -39.0 5.0 -28.5 -18.25 -28.25 -18.25 Q-18.0 5.75 5.25 5.5 L6.0 5.5 7.5 5.75 8.0 5.5 Q30.25 6.5 40.5 -16.75 L40.5 -17.0 40.75 -17.25 41.0 -17.75 41.25 -18.75 41.25 -19.0 M0.75 -72.25 L0.5 -76.5 -4.0 -79.0 -7.25 -79.0 Q-15.75 -72.75 -4.25 -68.75 -0.75 -68.5 0.75 -72.25 M19.25 -79.0 Q15.5 -78.25 13.5 -75.75 L13.75 -72.0 16.25 -69.0 20.0 -68.75 Q30.25 -75.75 19.25 -79.0" fill="#ffffff" fill-rule="evenodd" stroke="none"/>
    <path d="M19.25 -79.0 Q30.25 -75.75 20.0 -68.75 L16.25 -69.0 13.75 -72.0 13.5 -75.75 Q15.5 -78.25 19.25 -79.0 M0.75 -72.25 Q-0.75 -68.5 -4.25 -68.75 -15.75 -72.75 -7.25 -79.0 L-4.0 -79.0 0.5 -76.5 0.75 -72.25" fill="#000000" fill-rule="evenodd" stroke="none"/>
    <path d="M32.0 -69.25 Q48.25 -55.5 45.5 -47.0 L46.0 -39.5 44.5 -28.5 41.25 -19.0 41.25 -18.75 41.0 -17.75 40.75 -17.25 40.5 -17.0 40.5 -16.75 Q30.25 6.5 8.0 5.5 L7.5 5.75 6.0 5.5 5.25 5.5 Q-18.0 5.75 -28.25 -18.25 L-28.5 -18.25 -28.5 -19.0 -31.25 -27.0 -31.25 -27.5 -31.5 -28.25 -33.25 -39.25 -33.25 -47.25 Q-31.5 -61.0 -18.0 -68.75 -9.5 -61.25 7.0 -68.25 24.75 -60.75 32.0 -69.25 M80.75 122.5 L82.75 121.5 85.0 120.0 87.5 118.75 94.25 113.75 Q111.5 142.5 110.5 154.0 111.0 193.0 55.25 201.0 30.5 204.25 16.75 193.0 10.75 190.0 7.75 159.75 L37.75 152.25 67.0 138.0 79.25 124.25 79.5 123.75 80.75 122.5 M-4.5 158.25 Q-8.25 191.0 -14.0 193.25 L-14.75 194.5 -20.0 197.5 -30.75 200.75 -40.0 201.5 -52.25 200.75 Q-108.75 192.75 -107.5 153.5 L-107.25 152.75 -104.75 140.5 -98.5 125.75 -92.0 114.75 -83.5 120.5 -76.25 124.25 -75.25 124.5 -74.0 125.25 -73.0 125.5 -72.25 126.0 -59.75 138.75 -49.0 145.25 -22.0 156.5 -4.5 158.25" fill="#e58508" fill-rule="evenodd" stroke="none"/>
    <path d="M120.5 -0.75 L126.5 3.0 133.5 9.0 136.25 10.0 140.75 14.25 146.0 17.75 Q147.75 15.75 154.9 20.55 L156.2 23.1 Q151.75 28.55 149.0 26.5 L147.75 28.75 151.0 36.25 154.75 41.25 159.0 49.75 166.0 60.75 178.0 83.75 180.5 86.75 180.5 80.75 179.0 70.0 176.5 58.25 176.0 46.5 173.75 35.75 174.0 30.5 Q189.0 89.0 180.25 96.75 L177.0 93.75 170.0 81.75 157.5 55.75 143.5 21.75 127.75 9.75 Q133.5 31.25 128.25 64.25 123.25 91.0 94.25 113.5 L99.75 122.25 102.25 127.75 Q93.75 130.0 91.25 139.25 L74.0 158.75 41.0 174.75 20.25 178.5 15.5 180.75 13.5 184.0 16.0 188.75 Q23.75 200.25 67.25 194.25 98.75 188.25 109.25 164.25 L110.0 163.5 109.75 165.75 Q105.75 194.25 47.5 201.5 L33.25 200.75 Q21.75 198.5 18.0 194.75 9.5 186.5 8.0 159.75 L-3.75 158.25 Q-6.0 208.5 -41.25 201.5 L-56.75 200.25 Q-83.25 197.75 -101.75 176.75 L-106.25 166.75 Q-107.75 163.25 -106.5 163.0 -101.0 187.0 -52.5 196.5 -11.5 197.25 -9.75 183.75 -10.25 177.0 -30.75 176.0 -45.85 168.9 -61.0 161.75 -91.75 127.25 -100.0 129.75 L-97.75 124.0 -93.0 117.0 -92.0 114.25 Q-118.5 95.5 -124.25 73.5 L-126.5 64.25 -128.25 47.75 -128.0 39.25 -129.25 39.75 -144.5 58.25 -145.5 59.0 Q-144.75 58.0 -147.25 55.75 -136.95 39.6 -129.15 32.2 L-129.5 32.0 -128.5 31.5 -128.55 31.65 Q-124.4 27.8 -121.0 26.5 L-121.25 26.0 -111.75 15.0 -112.0 14.5 -107.75 10.0 -108.0 9.5 -105.75 7.5 -106.0 7.0 -91.0 -11.0 -90.25 -12.75 -87.75 -15.0 -76.0 -31.5 -75.75 -29.5 -87.5 -1.25 -89.25 5.0 -96.25 21.5 -101.5 37.5 -103.75 42.25 -105.0 47.5 -108.0 54.75 -107.75 56.0 -109.75 60.75 -112.5 72.0 Q-92.0 101.5 -82.5 96.5 L-65.75 122.75 -32.5 141.25 Q32.0 156.0 70.25 120.75 90.75 96.2 90.95 88.9 L91.25 91.0 96.25 87.25 111.25 70.0 112.0 67.5 116.25 60.5 Q130.5 20.25 122.5 14.5 L119.0 7.25 106.0 -12.5 120.5 -0.75 M9.5 50.25 Q-27.75 55.5 -33.25 -36.75 -29.75 -0.25 7.75 5.75 43.5 1.25 46.0 -41.5 45.75 51.5 9.5 50.25 M-21.75 -153.5 L-20.75 -154.0 -21.25 -153.25 -21.75 -153.5 M-25.25 -150.5 L-24.25 -151.0 -24.75 -150.25 -25.25 -150.5 M-33.75 -143.0 L-31.0 -145.0 -33.25 -142.75 -33.75 -143.0 M-127.75 30.5 L-128.25 31.25 -128.75 31.0 -127.75 30.5 M-145.25 66.25 L-157.5 123.0 -158.0 122.0 -153.25 102.0 -152.5 96.0 -151.75 95.0 -151.0 89.0 -150.25 88.0 Q-151.25 87.25 -149.5 84.5 L-150.0 82.75 -148.75 81.0 Q-150.5 79.75 -147.25 73.5 L-148.0 72.5 -147.0 72.0 Q-148.75 70.75 -145.5 64.0 L-145.25 66.25 M-179.75 88.5 L-180.25 86.5 -179.5 86.5 -179.75 88.5 M-184.75 126.75 L-185.25 126.0 -184.5 126.0 -184.75 126.75 M-184.0 122.0 L-184.25 124.5 -184.75 122.0 -184.0 122.0 M-169.5 167.5 L-161.7 139.05 -169.75 171.25 Q-171.0 170.75 -169.5 167.5 M-180.75 207.0 L-181.25 206.75 -180.5 205.25 -180.75 207.0" fill="#000000" fill-opacity="0.49803922" fill-rule="evenodd" stroke="none"/>
  </g>
</svg>
