<?xml version="1.0" encoding="UTF-8" standalone="no"?>
<svg xmlns:ffdec="https://www.free-decompiler.com/flash" xmlns:xlink="http://www.w3.org/1999/xlink" ffdec:objectType="shape" height="337.65px" width="368.4px" xmlns="http://www.w3.org/2000/svg">
  <g transform="matrix(1.0, 0.0, 0.0, 1.0, 184.75, 135.5)">
    <path d="M-21.75 -58.75 Q-23.25 -59.25 -26.5 -67.25 L-26.5 -75.0 -25.25 -77.0 -23.5 -78.25 -18.25 -80.25 -11.75 -81.25 -0.5 -80.75 1.0 -80.5 0.75 -80.0 1.25 -79.75 2.5 -79.75 3.75 -79.5 5.5 -80.0 6.25 -80.0 6.75 -80.25 7.75 -80.5 18.75 -81.0 22.25 -80.75 28.0 -79.5 32.25 -77.0 33.25 -75.5 33.25 -74.5 Q34.25 -73.75 33.0 -66.75 L28.75 -59.25 Q22.25 -50.25 3.5 -57.5 -11.0 -50.0 -21.75 -58.75 M38.75 -10.0 L48.0 13.0 52.0 27.25 64.0 52.25 Q85.0 71.25 90.0 90.75 L89.75 108.5 84.5 119.75 82.0 122.75 81.5 123.5 80.0 125.0 79.5 125.75 78.5 126.75 71.0 135.5 65.5 141.25 38.0 155.25 7.75 162.5 -5.0 161.0 -22.25 159.25 -29.75 156.5 -46.25 149.5 -61.75 141.25 -76.0 126.0 -80.25 121.25 -86.0 107.25 -86.25 104.25 Q-83.0 100.25 -83.75 95.0 -53.25 59.0 -34.0 -3.0 L-31.75 -8.25 -31.5 -7.75 -29.75 -3.5 Q-21.75 14.75 1.75 16.5 L3.25 16.25 3.5 16.25 4.75 16.5 Q27.25 17.0 37.5 -6.5 L37.75 -7.75 38.5 -9.25 38.75 -10.0 M17.5 -68.0 Q3.0 -65.75 15.5 -57.75 26.5 -63.25 17.5 -68.0 M-11.5 -67.75 Q-19.0 -59.25 -6.75 -58.0 3.0 -67.75 -11.5 -67.75" fill="#ffffff" fill-rule="evenodd" stroke="none"/>
    <path d="M17.5 -68.0 Q26.5 -63.25 15.5 -57.75 3.0 -65.75 17.5 -68.0 M-11.5 -67.75 Q3.0 -67.75 -6.75 -58.0 -19.0 -59.25 -11.5 -67.75" fill="#000000" fill-rule="evenodd" stroke="none"/>
    <path d="M28.75 -59.25 Q42.25 -50.75 42.75 -37.75 L43.0 -29.5 40.25 -15.25 38.75 -10.0 38.5 -9.25 37.75 -7.75 37.5 -6.5 Q27.25 17.0 4.75 16.5 L3.5 16.25 3.25 16.25 1.75 16.5 Q-21.75 14.75 -29.75 -3.5 L-31.5 -7.75 -31.75 -8.25 -32.0 -9.0 -32.25 -9.5 -32.25 -9.75 -35.0 -18.75 -36.5 -29.25 -36.5 -37.5 Q-39.0 -45.0 -21.75 -58.75 -11.0 -50.0 3.5 -57.5 22.25 -50.25 28.75 -59.25 M82.0 122.75 L83.5 122.25 87.25 120.25 95.0 114.5 Q111.25 142.0 110.5 154.0 111.0 193.0 55.25 201.0 30.5 204.25 16.75 193.0 14.75 192.75 11.5 183.25 L7.75 162.5 38.0 155.25 65.5 141.25 71.0 135.5 78.5 126.75 79.5 125.75 80.0 125.0 81.5 123.5 82.0 122.75 M-5.0 161.0 Q-7.5 189.75 -14.0 193.25 L-14.75 194.5 -20.0 197.5 -30.75 200.75 -40.0 201.5 -52.25 200.75 Q-108.75 192.75 -107.5 153.5 L-107.25 152.75 -104.75 140.5 -97.75 124.0 -93.0 116.5 -92.75 116.5 -85.25 121.75 -84.75 122.25 -83.75 122.5 -77.75 125.5 -76.0 126.0 -61.75 141.25 -46.25 149.5 -29.75 156.5 -22.25 159.25 -5.0 161.0" fill="#e58508" fill-rule="evenodd" stroke="none"/>
    <path d="M-35.0 -135.5 L-37.25 -133.25 -37.75 -133.5 -35.0 -135.5 M-82.5 -18.25 L-81.75 -18.5 -81.5 -17.75 -91.25 4.75 -91.0 5.5 -101.25 30.0 -101.25 31.5 -108.25 49.25 -108.0 50.25 -113.5 68.25 Q-92.75 100.75 -83.25 99.0 L-66.75 123.75 -53.5 133.25 -34.25 143.75 1.0 150.25 20.25 147.25 39.0 143.25 70.0 123.0 87.0 100.0 Q91.0 94.5 89.75 90.75 L94.0 88.0 110.0 71.0 120.0 49.5 124.25 28.5 117.5 13.75 103.5 -7.5 130.75 12.75 141.75 20.0 Q144.0 18.25 154.75 26.5 156.75 26.0 154.75 24.0 L156.45 23.6 157.5 25.75 Q155.0 29.4 148.5 31.25 L147.5 32.25 147.5 34.25 149.0 37.75 151.0 40.0 151.5 40.75 152.0 40.0 154.75 45.75 162.5 55.75 166.75 64.25 169.5 67.0 Q172.5 73.5 176.25 76.75 L178.0 74.25 177.5 67.75 175.75 59.75 176.25 55.5 173.75 39.75 Q175.15 39.05 173.95 34.2 189.2 89.8 180.5 97.25 L176.5 93.75 169.5 82.25 163.75 70.25 159.5 63.25 157.25 57.25 148.25 39.25 147.0 35.25 143.5 28.75 143.25 26.75 127.25 15.25 Q144.25 68.25 95.0 114.25 L99.75 122.25 103.25 130.25 102.0 130.5 102.25 130.0 93.75 135.0 Q94.5 136.75 93.0 139.5 L73.25 161.75 41.5 177.25 Q16.0 179.75 15.0 185.75 25.0 201.75 66.0 194.5 99.5 187.75 109.0 165.0 L110.0 163.5 109.75 166.0 Q105.75 194.25 47.5 201.5 L33.25 200.75 Q21.75 198.5 18.0 194.75 10.25 188.25 8.25 163.25 L6.75 162.25 -4.5 161.0 Q-5.75 207.25 -41.25 201.5 L-53.25 200.75 -72.25 196.75 -81.25 193.25 -87.75 189.75 -95.25 184.25 -101.75 176.75 Q-104.0 170.0 -105.0 169.75 L-107.0 163.0 Q-97.0 187.25 -63.25 194.25 -20.75 201.5 -11.25 185.75 -11.75 180.0 -31.75 178.25 L-62.0 164.0 -68.5 160.25 -88.25 138.5 -98.75 132.5 -101.25 132.25 Q-97.25 125.0 -97.75 124.0 L-92.75 116.5 Q-120.75 95.25 -125.0 75.75 L-127.5 66.25 -129.25 44.0 -146.75 64.75 -146.5 70.75 -150.5 89.75 -147.0 71.0 Q-145.0 67.75 -152.5 64.75 L-149.0 61.5 Q-144.5 60.0 -144.0 58.5 L-144.25 58.0 -133.5 45.5 -129.75 40.0 -128.25 39.0 -121.5 29.75 -94.5 -2.0 -82.5 -18.25 M-160.75 142.5 L-169.25 177.75 -169.75 176.75 -160.5 139.0 -160.75 142.5 M-183.0 123.5 L-183.25 126.25 -183.75 123.5 -183.0 123.5 M-183.25 128.25 L-183.75 131.5 -184.25 128.0 -183.25 128.25 M-184.0 134.75 L-184.7 132.8 -184.75 132.5 -183.75 132.75 -184.0 134.75 M-170.0 181.0 L-170.5 180.75 -169.75 178.0 -170.0 181.0 M-36.5 -28.75 Q-33.5 11.5 4.25 16.5 41.25 13.5 43.25 -35.5 42.75 68.75 5.75 67.0 -33.25 71.25 -36.5 -28.75" fill="#000000" fill-opacity="0.49803922" fill-rule="evenodd" stroke="none"/>
  </g>
</svg>
