<?xml version="1.0" encoding="UTF-8" standalone="no"?>
<svg xmlns:ffdec="https://www.free-decompiler.com/flash" xmlns:xlink="http://www.w3.org/1999/xlink" ffdec:objectType="shape" height="334.25px" width="367.45px" xmlns="http://www.w3.org/2000/svg">
  <g transform="matrix(1.0, 0.0, 0.0, 1.0, 183.75, 125.5)">
    <path d="M8.5 -55.75 L5.75 -53.0 Q5.5 -49.5 8.0 -47.25 L12.25 -46.75 Q22.5 -52.25 13.5 -56.75 L8.5 -55.75 M-25.75 -48.25 Q-32.5 -56.0 -30.5 -64.25 L-29.0 -66.25 -27.5 -67.25 -25.25 -68.25 -22.5 -69.0 -16.0 -70.0 -12.25 -70.0 -4.0 -69.25 -0.5 -68.25 3.5 -69.25 6.75 -69.5 7.25 -69.75 15.25 -70.0 21.5 -69.25 26.75 -67.5 28.5 -66.25 29.5 -65.0 30.0 -64.0 29.0 -55.75 25.5 -49.0 Q19.75 -39.25 -0.5 -46.5 -18.5 -39.25 -25.75 -48.25 M36.0 -1.0 L38.25 5.25 45.0 20.0 50.5 36.75 62.0 58.75 Q83.25 75.75 88.5 94.25 L89.25 107.75 88.75 112.0 82.25 124.25 81.5 125.25 64.75 144.25 36.75 158.75 8.25 165.0 -4.75 163.75 -13.75 162.75 Q-30.25 161.5 -42.0 154.75 L-62.5 144.75 -78.5 127.25 -80.75 124.75 -87.25 110.5 -87.5 107.5 Q-84.25 105.0 -85.0 99.5 -57.0 68.25 -37.25 6.0 L-35.5 2.0 -34.75 3.75 Q-23.0 28.25 -1.5 27.25 L1.0 27.25 Q24.0 27.75 34.0 4.0 L34.0 3.75 36.0 -1.0 M-15.5 -56.5 Q-22.75 -48.0 -11.25 -46.75 -0.25 -55.5 -15.5 -56.5" fill="#ffffff" fill-rule="evenodd" stroke="none"/>
    <path d="M8.5 -55.75 L13.5 -56.75 Q22.5 -52.25 12.25 -46.75 L8.0 -47.25 Q5.5 -49.5 5.75 -53.0 L8.5 -55.75 M-15.5 -56.5 Q-0.25 -55.5 -11.25 -46.75 -22.75 -48.0 -15.5 -56.5" fill="#000000" fill-rule="evenodd" stroke="none"/>
    <path d="M25.5 -49.0 Q40.0 -39.0 39.5 -28.25 L39.75 -19.5 36.0 -1.0 34.0 3.75 34.0 4.0 Q24.0 27.75 1.0 27.25 L-1.5 27.25 Q-23.0 28.25 -34.75 3.75 L-35.5 2.0 -38.5 -8.0 -40.25 -20.75 -40.0 -27.75 Q-42.25 -35.0 -25.75 -48.25 -18.5 -39.25 -0.5 -46.5 19.75 -39.25 25.5 -49.0 M82.25 124.25 L85.75 122.5 86.5 122.0 87.0 121.75 95.5 115.25 Q111.0 141.75 110.5 154.0 111.0 193.0 55.25 201.0 30.5 204.25 16.75 193.0 11.5 189.75 8.25 165.0 L36.75 158.75 64.75 144.25 81.5 125.25 82.25 124.25 M-4.75 163.75 L-8.5 183.5 Q-12.25 192.5 -14.0 193.25 L-14.75 194.5 -20.0 197.5 -30.75 200.75 -40.0 201.5 -52.25 200.75 Q-108.75 192.75 -107.5 153.5 L-107.25 152.75 -104.75 140.5 -97.75 124.0 -94.0 118.0 -86.75 123.0 -86.25 123.25 -85.5 124.0 -85.0 124.25 -84.25 124.75 -82.75 125.25 -79.25 127.0 -78.5 127.25 -62.5 144.75 -42.0 154.75 Q-30.25 161.5 -13.75 162.75 L-4.75 163.75" fill="#e58508" fill-rule="evenodd" stroke="none"/>
    <path d="M-41.25 -124.5 L-39.75 -125.5 -40.75 -124.25 -41.25 -124.5 M-48.75 -116.5 L-46.75 -118.0 -48.25 -116.25 -48.75 -116.5 M-57.75 -105.75 L-58.25 -106.0 -57.25 -106.5 -57.75 -105.75 M-54.75 -110.0 L-52.75 -111.5 -54.25 -109.75 -54.75 -110.0 M-119.0 27.5 L-99.0 5.5 -99.25 5.0 -97.75 4.0 -98.0 3.5 -88.75 -7.75 Q-121.75 59.75 -111.5 71.25 L-96.75 88.75 -83.25 97.75 Q-86.0 99.0 -84.75 101.25 L-68.0 124.75 -36.5 146.25 -0.25 153.25 Q40.5 151.0 69.25 125.5 L86.5 102.0 Q90.0 97.25 87.25 91.5 92.75 88.75 97.25 83.75 L107.25 72.5 118.0 52.25 122.5 35.0 118.0 25.0 110.5 12.25 100.25 -2.5 104.5 0.75 106.75 1.5 110.75 5.25 112.0 5.5 127.0 16.5 139.25 23.75 141.5 23.5 153.75 30.75 Q151.5 27.5 157.75 27.0 155.25 33.75 147.5 36.25 L148.0 38.5 147.25 39.5 Q167.25 70.25 175.0 70.75 L175.75 66.5 175.25 64.0 175.75 56.5 174.5 49.25 Q173.5 44.5 174.5 44.0 L173.0 37.25 173.5 37.0 Q189.25 90.5 180.5 97.75 L176.0 93.75 168.5 82.25 154.25 56.25 142.25 32.25 142.25 30.75 140.5 30.25 126.75 21.0 Q143.25 69.0 95.5 115.0 L99.75 122.25 104.25 132.25 102.5 132.0 Q96.75 137.0 92.75 138.0 94.25 143.25 72.75 164.5 L41.25 180.0 Q22.5 181.75 16.75 188.5 23.5 200.5 67.25 194.25 98.75 188.25 109.25 164.25 L110.0 163.5 109.75 166.0 Q105.75 194.25 47.5 201.5 L33.0 200.75 Q24.75 199.0 19.5 195.75 9.0 185.75 8.5 165.25 L-4.25 163.75 Q-5.75 205.75 -41.25 201.5 L-56.75 200.25 Q-83.25 197.75 -101.75 176.75 L-106.25 166.75 Q-107.75 163.25 -106.5 163.0 -101.0 187.0 -52.5 196.5 -26.25 199.0 -13.0 188.25 -18.25 181.75 -34.5 180.0 L-69.0 163.5 -89.75 140.5 Q-100.5 134.0 -102.25 134.75 L-98.25 126.5 -97.75 124.0 -94.0 118.0 Q-120.0 98.75 -126.0 77.25 L-128.25 69.25 -129.75 55.75 -130.0 44.75 -144.5 60.25 -146.75 73.25 -147.25 68.75 Q-149.75 65.25 -155.25 65.25 L-150.75 62.0 -151.0 61.5 -138.75 48.0 -136.0 44.0 -134.5 43.0 -135.5 43.75 -135.25 44.5 -127.0 36.0 -127.25 35.5 -118.75 28.0 -119.0 27.5 M-157.5 128.0 L-147.5 75.5 -156.25 126.25 -165.75 169.5 -166.25 168.5 -165.5 167.5 -165.75 166.25 -157.25 129.5 -157.5 128.0 M-177.75 87.5 L-177.0 87.5 -177.25 89.5 -177.75 87.5 M-177.25 82.0 L-176.5 79.0 -175.75 79.25 -176.75 85.75 -177.25 82.0 M-178.75 101.75 Q-177.5 100.25 -177.5 95.5 L-177.25 99.75 -178.25 105.5 -178.0 109.5 -181.25 152.5 -181.75 146.25 -178.75 101.75 M-181.75 164.25 L-182.25 175.0 -182.3 173.25 -182.2 164.15 -181.75 164.25 M-182.05 158.1 L-181.95 155.1 -181.25 155.25 -181.75 163.5 -182.05 158.1 M-182.75 191.25 Q-183.75 201.0 -180.75 207.25 L-178.5 207.25 Q-175.5 198.75 -173.5 199.0 L-176.75 208.0 -178.0 208.75 Q-182.75 208.5 -182.75 206.75 L-183.75 191.0 -182.75 191.25 M-182.45 179.8 L-182.75 184.0 -182.95 180.3 -182.45 179.8 M-182.35 176.25 L-182.25 176.25 -182.35 177.8 -182.35 176.25 M152.25 43.0 L150.0 39.0 151.0 39.75 152.25 43.0 M2.0 85.0 Q-39.75 89.0 -40.25 -21.5 -36.0 26.5 2.0 27.0 34.5 25.5 40.0 -22.0 39.0 85.5 2.0 85.0" fill="#000000" fill-opacity="0.49803922" fill-rule="evenodd" stroke="none"/>
  </g>
</svg>
