<?xml version="1.0" encoding="UTF-8" standalone="no"?>
<svg xmlns:ffdec="https://www.free-decompiler.com/flash" xmlns:xlink="http://www.w3.org/1999/xlink" ffdec:objectType="shape" height="316.95px" width="361.5px" xmlns="http://www.w3.org/2000/svg">
  <g transform="matrix(1.0, 0.0, 0.0, 1.0, 130.25, 153.2)">
    <path d="M81.75 -78.75 Q124.0 -78.0 202.0 -36.75 L204.0 -35.75 204.25 -35.75 214.75 -30.75 219.0 -27.75 219.25 -27.75 228.0 -18.5 229.0 -17.25 230.75 -15.5 231.0 -14.75 231.25 -14.75 228.25 1.0 225.0 7.75 Q228.0 34.5 172.75 76.25 L169.75 78.0 165.5 79.0 165.0 79.25 160.75 78.5 Q158.75 77.5 159.75 74.0 L161.5 65.25 161.75 64.75 168.75 46.5 184.75 11.5 172.5 8.25 120.0 -7.5 Q147.0 80.25 95.0 114.75 L91.75 117.25 91.25 117.75 88.25 120.0 87.5 120.75 86.0 121.5 85.25 122.0 91.0 124.75 91.5 125.25 92.75 126.0 93.25 126.5 93.75 126.5 94.75 127.0 103.75 132.5 Q103.75 136.0 101.75 138.25 L99.75 138.5 85.5 138.25 77.25 137.5 77.0 137.5 76.5 137.25 70.25 136.75 66.25 141.5 63.75 143.5 35.75 157.5 8.0 163.75 -22.75 160.75 -31.25 158.0 -32.0 158.0 -32.5 157.75 -32.75 157.75 -60.25 144.5 -63.75 142.0 -77.0 127.5 -78.5 126.5 -83.0 124.5 -87.0 122.0 -87.5 121.75 -87.75 121.75 -88.5 121.0 -93.25 117.5 -96.25 115.75 Q-139.5 86.5 -127.75 18.75 -128.25 -28.25 -48.0 -121.25 -8.25 -160.0 6.25 -151.75 39.5 -140.0 81.75 -78.75" fill="#2e47aa" fill-rule="evenodd" stroke="none"/>
  </g>
</svg>
