<?xml version="1.0" encoding="UTF-8" standalone="no"?>
<svg xmlns:ffdec="https://www.free-decompiler.com/flash" xmlns:xlink="http://www.w3.org/1999/xlink" ffdec:objectType="shape" height="317.9px" width="355.65px" xmlns="http://www.w3.org/2000/svg">
  <g transform="matrix(1.0, 0.0, 0.0, 1.0, 131.9, 154.9)">
    <path d="M220.5 -0.5 L217.25 6.5 Q217.25 39.75 156.25 70.0 L155.75 70.25 155.0 70.5 154.25 70.5 152.0 71.0 151.0 71.0 150.5 71.25 149.25 71.25 Q143.25 72.25 144.0 65.75 L144.0 65.5 144.25 65.25 145.5 61.0 145.5 60.5 153.5 43.5 172.75 9.0 164.75 6.75 117.25 -8.75 Q145.5 72.5 93.5 112.5 L90.75 114.75 90.0 115.25 86.25 118.25 85.5 118.5 85.0 118.75 84.25 119.25 81.75 120.5 79.5 123.5 79.0 124.0 78.5 124.75 77.5 125.75 76.5 127.25 77.25 127.75 84.5 131.5 86.5 133.25 86.75 133.25 93.75 137.75 93.75 138.0 94.25 138.25 96.25 139.5 96.5 140.25 96.5 141.5 95.5 144.0 94.5 145.25 92.5 145.75 78.75 144.75 61.75 142.0 38.5 155.0 32.5 156.75 32.0 156.75 31.5 157.0 8.0 163.0 -21.75 160.75 -30.5 158.25 -48.5 150.75 -61.0 145.0 -76.75 129.0 -78.5 128.5 -83.0 126.75 -84.5 126.0 -87.5 124.0 -88.0 123.75 -89.0 123.0 -89.5 122.75 -97.25 117.75 -97.5 117.75 Q-140.5 95.0 -129.75 15.25 L-122.5 -13.0 -113.75 -36.0 -101.25 -58.5 -86.5 -81.0 -71.25 -102.5 -50.25 -128.5 Q-19.5 -159.75 -2.0 -154.0 28.25 -145.0 75.25 -82.5 119.5 -81.25 198.75 -36.5 L207.75 -32.0 211.5 -29.25 211.75 -29.25 223.0 -16.75 223.5 -15.75 223.75 -15.75 220.5 -0.5" fill="#2e47aa" fill-rule="evenodd" stroke="none"/>
  </g>
</svg>
