<?xml version="1.0" encoding="UTF-8" standalone="no"?>
<svg xmlns:ffdec="https://www.free-decompiler.com/flash" xmlns:xlink="http://www.w3.org/1999/xlink" ffdec:objectType="shape" height="319.0px" width="350.7px" xmlns="http://www.w3.org/2000/svg">
  <g transform="matrix(1.0, 0.0, 0.0, 1.0, 134.95, 156.75)">
    <path d="M122.5 -72.75 L169.75 -50.5 191.75 -37.25 192.5 -37.25 193.0 -36.75 203.75 -30.5 204.0 -30.5 204.5 -30.0 205.0 -29.75 215.5 -17.0 215.75 -16.5 212.0 -0.25 209.25 5.5 Q208.5 15.5 195.25 33.75 L195.25 34.0 192.25 37.25 175.0 51.0 154.75 60.0 140.25 63.5 132.75 63.75 Q126.5 63.75 128.25 57.5 L132.75 48.25 Q137.3 41.6 141.0 34.5 L160.25 6.5 146.25 2.0 114.5 -9.25 Q144.0 64.0 92.25 110.0 L87.0 114.5 82.75 117.0 82.0 117.25 77.75 123.0 77.25 123.5 69.5 133.5 74.5 136.75 75.25 137.0 88.25 147.25 88.25 148.75 87.25 151.0 86.25 152.25 84.75 152.75 71.25 151.25 50.0 147.0 38.5 153.5 10.5 162.25 -17.5 161.0 -29.0 158.5 -29.5 158.25 -30.0 158.25 Q-40.1 154.4 -50.25 150.5 L-60.0 146.25 -76.0 131.25 -80.25 130.0 -83.25 128.75 -89.0 125.5 -90.0 124.75 -90.5 124.5 -91.25 124.0 -98.75 119.75 Q-118.75 106.0 -127.75 85.0 -138.75 53.5 -133.0 19.5 L-129.0 -1.0 -125.75 -13.25 -118.5 -33.75 -108.5 -53.5 -94.5 -77.25 -77.5 -103.5 -58.75 -128.5 Q-29.0 -161.25 -11.5 -156.0 20.25 -147.25 68.75 -86.0 L87.5 -84.25 122.5 -72.75" fill="#2e47aa" fill-rule="evenodd" stroke="none"/>
  </g>
</svg>
