<?xml version="1.0" encoding="UTF-8" standalone="no"?>
<svg xmlns:ffdec="https://www.free-decompiler.com/flash" xmlns:xlink="http://www.w3.org/1999/xlink" ffdec:objectType="shape" height="319.85px" width="345.35px" xmlns="http://www.w3.org/2000/svg">
  <g transform="matrix(1.0, 0.0, 0.0, 1.0, 137.35, 158.85)">
    <path d="M62.25 -89.75 Q74.5 -96.0 153.25 -57.75 L162.0 -53.5 182.5 -40.75 182.75 -40.75 183.75 -40.0 184.25 -39.75 185.0 -39.25 185.5 -39.0 185.75 -39.0 186.5 -38.25 187.0 -38.25 187.5 -37.75 187.75 -37.75 188.25 -37.25 188.75 -37.25 189.25 -36.75 193.25 -34.5 193.5 -34.5 196.25 -32.5 196.5 -32.25 198.25 -31.25 207.25 -19.25 207.5 -18.25 208.0 -17.0 204.25 -3.0 201.0 4.0 198.0 14.75 190.5 26.25 184.0 33.75 Q166.5 51.0 124.75 54.25 L121.25 54.5 Q119.5 80.75 90.75 107.75 L88.0 110.25 82.0 114.25 81.75 114.25 81.25 114.75 77.0 121.0 76.5 121.5 75.25 123.5 67.25 134.0 61.0 137.75 74.5 148.25 78.75 152.0 79.25 153.5 79.0 154.75 77.25 157.25 75.5 158.0 61.5 155.75 41.0 150.75 40.75 150.75 12.0 161.0 -17.5 160.75 -25.75 158.75 -26.25 158.75 -51.25 150.5 -59.5 146.75 -74.25 133.75 -82.25 131.25 -90.25 127.0 -91.0 126.5 -91.5 126.25 -93.5 125.0 -94.75 124.5 -96.5 123.5 -96.75 123.5 -99.5 121.75 -99.75 121.75 Q-118.25 109.75 -128.75 88.5 -140.75 56.25 -136.0 22.75 L-131.5 -3.25 -123.25 -31.5 -112.25 -55.5 -100.25 -77.25 -85.25 -102.5 -65.75 -130.75 Q-39.75 -162.0 -20.75 -158.5 14.25 -148.5 62.25 -89.75 M146.5 3.0 L111.5 -10.25 119.5 15.75 121.5 27.0 121.5 32.75 146.5 3.0" fill="#2e47aa" fill-rule="evenodd" stroke="none"/>
  </g>
</svg>
