<?xml version="1.0" encoding="UTF-8" standalone="no"?>
<svg xmlns:ffdec="https://www.free-decompiler.com/flash" xmlns:xlink="http://www.w3.org/1999/xlink" ffdec:objectType="shape" height="323.5px" width="339.1px" xmlns="http://www.w3.org/2000/svg">
  <g transform="matrix(1.0, 0.0, 0.0, 1.0, 139.6, 162.0)">
    <path d="M55.5 -94.0 L78.5 -91.25 105.0 -81.75 147.25 -60.75 148.25 -60.0 148.5 -60.0 156.0 -56.25 170.75 -46.5 173.5 -45.0 173.75 -44.75 174.75 -44.25 175.0 -44.0 175.25 -44.0 175.75 -43.5 176.25 -43.25 176.5 -43.25 177.0 -42.75 179.0 -41.75 179.75 -41.25 180.25 -41.0 187.75 -36.25 188.25 -35.75 190.75 -34.0 199.5 -21.25 199.25 -16.25 196.25 -6.5 193.0 1.0 189.5 12.75 186.0 17.75 175.75 29.25 Q150.0 45.5 119.25 43.5 118.75 79.0 89.0 105.5 L86.5 107.75 84.5 109.0 83.0 110.25 81.25 111.25 80.75 111.75 80.25 112.75 75.5 119.75 75.25 120.25 69.75 128.25 68.75 130.0 54.5 139.75 52.25 141.0 61.5 148.75 61.75 149.25 68.75 156.5 69.0 158.25 66.25 161.5 61.0 161.0 51.75 159.0 30.5 152.75 16.0 159.25 14.0 159.5 -17.25 160.25 -43.0 153.75 -58.75 147.25 -72.0 136.5 -72.5 136.0 -79.5 134.0 -90.75 128.75 -91.5 128.25 -92.0 128.25 -92.5 127.75 -93.25 127.5 -95.5 126.25 -97.5 125.5 -100.75 123.25 Q-145.25 95.0 -138.75 24.5 L-135.25 -0.25 -128.0 -29.0 -117.75 -54.0 -106.75 -76.0 -94.0 -99.75 -73.75 -132.0 Q-47.0 -165.75 -30.25 -161.5 5.25 -152.5 55.5 -94.0 M108.0 -11.75 L116.0 10.25 116.0 12.0 131.5 -2.5 108.0 -11.75" fill="#2e47aa" fill-rule="evenodd" stroke="none"/>
  </g>
</svg>
