<?xml version="1.0" encoding="UTF-8" standalone="no"?>
<svg xmlns:ffdec="https://www.free-decompiler.com/flash" xmlns:xlink="http://www.w3.org/1999/xlink" ffdec:objectType="shape" height="329.5px" width="332.9px" xmlns="http://www.w3.org/2000/svg">
  <g transform="matrix(1.0, 0.0, 0.0, 1.0, 141.65, 164.0)">
    <path d="M116.0 -8.25 L105.5 -12.25 109.25 -3.25 116.0 -8.25 M49.0 -97.0 L50.75 -97.75 Q63.0 -104.0 139.0 -64.5 L139.75 -64.0 140.75 -63.5 141.75 -62.75 142.0 -62.75 148.25 -59.5 162.25 -50.25 162.5 -50.0 163.0 -49.75 163.25 -49.5 163.5 -49.5 164.25 -49.0 164.5 -48.75 164.75 -48.75 165.25 -48.25 166.75 -47.5 167.5 -47.0 168.0 -46.75 177.75 -40.75 182.25 -37.5 191.25 -24.0 191.25 -19.5 184.75 -2.0 184.75 -1.5 184.0 0.25 Q181.5 34.0 116.75 34.75 119.75 72.5 87.5 103.25 L83.25 106.5 81.75 108.0 80.5 108.5 80.25 109.0 79.75 109.75 79.5 110.25 74.25 118.5 74.0 119.25 71.5 123.25 68.25 127.25 43.75 145.0 51.5 153.0 52.75 153.75 57.25 159.75 58.0 162.0 Q56.5 165.75 54.75 165.5 L45.0 163.5 Q43.5 162.5 41.75 162.5 L21.25 155.25 16.0 157.75 -9.0 159.75 -17.25 160.0 -40.5 154.5 -56.5 148.75 Q-63.85 143.4 -71.25 138.0 L-74.75 137.25 -81.75 135.0 -85.0 133.5 -86.25 132.75 -87.25 132.5 -92.25 130.0 -93.0 130.0 -93.75 129.5 -98.0 127.5 -98.25 127.5 -102.0 125.0 Q-144.25 101.0 -141.5 27.5 L-139.75 8.75 -137.75 -3.75 -132.5 -26.75 -122.75 -53.25 -112.25 -76.5 -99.25 -103.0 -82.75 -131.25 Q-58.25 -167.0 -38.75 -163.75 -5.25 -156.5 49.0 -97.0" fill="#2e47aa" fill-rule="evenodd" stroke="none"/>
  </g>
</svg>
