<?xml version="1.0" encoding="UTF-8" standalone="no"?>
<svg xmlns:ffdec="https://www.free-decompiler.com/flash" xmlns:xlink="http://www.w3.org/1999/xlink" ffdec:objectType="shape" height="277.6px" width="361.25px" xmlns="http://www.w3.org/2000/svg">
  <g transform="matrix(1.0, 0.0, 0.0, 1.0, 130.25, 75.0)">
    <path d="M-25.5 -52.75 Q-27.0 -53.25 -30.0 -60.5 L-30.5 -69.0 -29.25 -71.0 -27.25 -72.25 -25.0 -73.25 -22.5 -74.0 -16.0 -75.0 -4.5 -74.5 -3.25 -74.0 -3.0 -73.75 -0.25 -73.25 0.25 -73.5 1.25 -73.75 2.0 -74.25 3.5 -74.25 11.25 -75.0 18.75 -74.75 24.25 -73.5 28.25 -71.25 29.5 -69.75 29.75 -68.75 29.25 -61.0 25.25 -53.5 Q22.5 -44.5 -0.25 -51.5 -13.25 -44.0 -25.5 -52.75 M35.75 -5.25 L45.5 17.5 49.75 31.75 61.5 55.0 Q63.25 60.75 78.75 73.25 L84.75 83.25 88.25 91.75 88.75 109.5 83.5 121.25 25.75 94.75 -22.25 75.25 -22.75 75.0 -31.5 72.0 -33.0 71.25 -33.25 71.25 -48.0 65.5 -48.25 30.0 -44.5 18.0 -35.25 -2.25 -34.5 -0.75 Q-22.0 24.0 -1.75 22.5 L1.25 22.5 Q23.25 22.5 34.0 -0.75 L34.0 -1.0 34.25 -1.25 34.5 -1.75 34.75 -2.75 35.25 -3.75 35.75 -5.25 M14.25 -61.75 Q11.0 -62.25 8.5 -60.75 L6.0 -58.75 Q5.0 -54.75 8.0 -52.25 L12.25 -51.75 Q22.25 -56.75 14.25 -61.75 M-15.5 -61.5 Q-22.75 -53.5 -11.0 -51.75 -0.25 -60.5 -15.5 -61.5 M-78.5 126.5 L-80.5 123.75 -82.5 120.0 -87.0 109.5 -87.5 106.0 Q-84.25 103.75 -85.0 97.5 L-80.75 94.25 -79.75 95.0 -76.0 98.75 -76.0 99.0 -75.75 99.25 -74.0 101.75 -72.75 102.25 -72.5 102.5 -70.5 103.5 -70.0 104.0 -45.25 115.25 5.5 127.5 48.75 134.25 70.25 136.75 66.25 141.5 63.75 143.5 35.75 157.5 8.0 163.75 -9.25 162.25 -22.75 160.75 -31.25 158.0 -32.0 158.0 -32.5 157.75 -32.75 157.75 -60.25 144.5 -63.75 142.0 -77.0 127.5 -78.5 126.5" fill="#ffffff" fill-rule="evenodd" stroke="none"/>
    <path d="M14.25 -61.75 Q22.25 -56.75 12.25 -51.75 L8.0 -52.25 Q5.0 -54.75 6.0 -58.75 L8.5 -60.75 Q11.0 -62.25 14.25 -61.75 M-15.5 -61.5 Q-0.25 -60.5 -11.0 -51.75 -22.75 -53.5 -15.5 -61.5" fill="#000000" fill-rule="evenodd" stroke="none"/>
    <path d="M25.25 -53.5 Q46.75 -42.75 37.0 -10.0 L36.75 -9.25 36.75 -8.25 35.75 -5.25 35.25 -3.75 34.75 -2.75 34.5 -1.75 34.25 -1.25 34.0 -1.0 34.0 -0.75 Q23.25 22.5 1.25 22.5 L-1.75 22.5 Q-22.0 24.0 -34.5 -0.75 L-35.25 -2.25 -35.25 -2.5 -38.25 -12.25 Q-47.75 -37.5 -25.5 -52.75 -13.25 -44.0 -0.25 -51.5 22.5 -44.5 25.25 -53.5 M-78.5 126.5 L-77.0 127.5 -63.75 142.0 -60.25 144.5 -32.75 157.75 -32.5 157.75 -32.0 158.0 -31.25 158.0 -22.75 160.75 -9.25 162.25 Q-11.75 190.75 -18.25 194.25 L-19.75 196.0 -23.0 197.75 Q-29.75 203.5 -56.5 202.0 -114.0 193.25 -111.75 154.25 L-111.5 153.75 -111.5 153.5 Q-113.25 145.25 -96.25 115.75 L-93.25 117.5 -88.5 121.0 -87.75 121.75 -87.5 121.75 -87.0 122.0 -83.0 124.5 -78.5 126.5 M8.0 163.75 L35.75 157.5 63.75 143.5 66.25 141.5 70.25 136.75 76.5 137.25 77.0 137.5 77.25 137.5 85.5 138.25 99.75 138.5 101.75 138.25 Q103.75 136.0 103.75 132.5 L94.75 127.0 93.75 126.5 93.25 126.5 92.75 126.0 91.5 125.25 91.0 124.75 85.25 122.0 86.0 121.5 87.5 120.75 88.25 120.0 91.25 117.75 91.75 117.25 95.0 114.75 Q111.75 143.5 110.5 154.0 111.0 193.0 55.25 201.0 30.5 204.25 16.75 193.0 11.5 190.5 8.0 163.75" fill="#e58508" fill-rule="evenodd" stroke="none"/>
    <path d="M93.25 -22.0 L117.0 -12.5 157.0 0.5 186.0 8.75 184.75 11.5 168.0 7.25 120.25 -7.5 Q133.0 29.25 127.5 64.75 123.25 92.25 95.0 114.5 L100.5 123.5 103.5 130.25 103.5 131.0 101.75 131.25 89.5 124.0 74.75 117.25 86.25 101.5 Q89.75 97.5 88.0 91.25 92.75 88.75 96.25 85.0 L108.5 72.0 118.5 52.0 123.0 32.5 115.0 13.75 105.75 -3.25 93.25 -22.0 M223.75 -8.0 Q224.0 1.0 225.25 2.0 L231.0 -14.25 228.5 -0.25 225.25 7.25 222.5 18.0 217.5 32.5 199.25 56.25 Q184.75 72.25 165.25 79.25 L162.5 79.25 Q160.0 78.5 159.5 76.5 172.75 81.75 206.0 34.0 L219.5 13.5 219.0 13.0 219.5 12.25 218.75 12.0 215.25 14.75 219.25 8.0 220.25 3.25 223.25 -4.0 223.75 -8.0 M38.75 144.0 L53.0 134.75 5.5 127.5 -35.5 118.0 -47.5 114.5 -51.75 112.5 -52.5 134.75 -51.75 135.5 -45.0 140.25 Q-40.6 142.65 -36.25 145.0 L-0.5 151.5 23.5 148.0 38.75 144.0 M8.25 163.75 L-8.75 162.25 -12.5 183.25 Q-14.5 190.75 -18.5 195.25 L-25.0 199.25 -33.25 201.5 -43.0 202.5 Q-94.5 204.25 -111.25 165.75 L-110.75 164.0 Q-110.25 169.0 -102.0 178.75 L-95.5 184.0 -94.5 184.0 -95.5 172.75 -98.25 159.25 -100.75 133.5 -103.0 131.75 -104.75 131.25 Q-103.75 130.75 -101.75 124.5 L-96.25 115.5 Q-117.5 101.0 -126.0 75.25 L-128.25 67.75 -129.75 53.75 -130.25 38.25 -129.25 27.0 -125.25 7.25 -121.75 -3.0 Q-133.0 52.0 -97.5 88.75 L-96.75 88.5 -95.75 61.5 -93.75 -33.5 -92.75 -29.75 -93.25 -26.25 -92.5 -19.75 -92.5 3.25 -91.25 9.75 -87.5 47.5 Q-82.0 92.25 -74.75 95.75 L-72.0 93.0 Q-70.25 95.3 -65.5 95.1 -61.7 96.7 -61.25 97.75 L-40.25 106.75 2.5 118.25 64.25 132.25 89.25 136.75 102.5 137.0 101.5 138.5 92.5 138.5 92.75 139.25 91.0 142.25 74.0 161.0 72.5 163.5 41.0 178.75 24.5 181.75 18.25 184.0 16.25 186.0 15.75 187.5 16.25 188.5 Q23.75 200.5 67.25 194.25 99.75 187.5 110.0 163.5 105.75 195.5 47.5 201.5 L33.0 200.75 Q24.75 199.0 19.5 195.75 9.0 186.5 8.25 163.75 M3.5 76.5 Q-39.75 81.0 -40.0 -26.0 -36.5 20.0 1.0 22.5 36.0 20.75 40.0 -28.0 42.75 64.75 3.5 76.5 M-54.25 169.5 L-53.75 189.25 Q-44.25 190.25 -34.0 197.0 -14.25 192.5 -16.75 185.0 L-20.5 182.5 Q-30.75 182.75 -54.25 169.5" fill="#000000" fill-opacity="0.49803922" fill-rule="evenodd" stroke="none"/>
  </g>
</svg>
