<?xml version="1.0" encoding="UTF-8" standalone="no"?>
<svg xmlns:ffdec="https://www.free-decompiler.com/flash" xmlns:xlink="http://www.w3.org/1999/xlink" ffdec:objectType="shape" height="280.35px" width="356.5px" xmlns="http://www.w3.org/2000/svg">
  <g transform="matrix(1.0, 0.0, 0.0, 1.0, 132.75, 77.75)">
    <path d="M-31.25 -54.25 Q-33.0 -54.5 -36.25 -62.0 L-36.75 -70.25 -35.5 -72.25 -34.0 -73.5 -31.5 -74.75 -28.5 -75.75 -18.5 -77.0 -11.0 -76.75 -9.25 -76.0 -8.0 -75.75 -7.0 -75.75 -5.25 -76.25 -4.5 -76.25 -3.25 -76.75 4.5 -77.75 12.0 -77.75 17.75 -76.5 19.75 -75.75 21.75 -74.5 23.0 -73.0 23.5 -72.0 23.0 -64.25 19.25 -56.75 Q17.75 -47.75 -6.25 -53.75 -20.5 -45.5 -31.25 -54.25 M31.25 -8.25 L41.25 12.5 45.75 25.75 59.5 51.5 66.25 60.0 77.5 69.5 83.5 79.0 88.0 88.75 88.75 105.75 83.75 118.25 81.75 120.5 79.5 123.5 79.0 124.0 78.5 124.75 77.5 125.75 76.5 127.25 52.75 114.25 17.25 96.25 -22.5 77.5 -30.75 74.0 -32.25 73.5 -33.0 73.0 -33.5 73.0 -47.75 66.5 -49.75 66.25 -51.0 29.75 -47.75 17.5 -39.25 -3.5 -39.0 -2.75 -33.5 6.75 Q-18.0 22.75 -4.75 20.25 L-4.0 20.0 -2.0 20.0 Q21.0 19.25 29.75 -3.75 L29.75 -4.0 30.0 -4.25 31.25 -8.25 M8.0 163.0 L-9.0 161.75 -21.75 160.75 -30.5 158.25 -48.5 150.75 -61.0 145.0 -76.75 129.0 Q-96.0 108.75 -81.25 96.0 L-79.75 97.5 -79.25 98.25 -78.5 99.0 -78.25 99.5 -77.25 100.5 -77.25 100.75 -76.25 101.75 -75.25 102.25 -75.0 102.5 -74.5 102.75 -74.25 103.0 -74.0 103.0 -73.5 103.5 -67.25 106.5 -66.5 107.0 -64.0 108.25 -63.25 108.75 -60.75 110.0 -60.0 110.5 -57.0 112.0 -56.5 112.5 -52.25 114.75 -42.0 118.25 0.75 130.5 43.5 139.25 61.75 142.0 38.5 155.0 32.5 156.75 32.0 156.75 31.5 157.0 8.0 163.0 M6.25 -54.5 Q16.0 -60.0 8.5 -64.5 4.5 -65.0 2.5 -63.5 L-0.25 -60.75 Q-0.5 -57.25 2.0 -55.0 L6.25 -54.5 M-17.0 -53.75 Q-6.75 -63.5 -21.5 -63.5 -28.25 -54.5 -17.0 -53.75" fill="#ffffff" fill-rule="evenodd" stroke="none"/>
    <path d="M6.25 -54.5 L2.0 -55.0 Q-0.5 -57.25 -0.25 -60.75 L2.5 -63.5 Q4.5 -65.0 8.5 -64.5 16.0 -60.0 6.25 -54.5 M-17.0 -53.75 Q-28.25 -54.5 -21.5 -63.5 -6.75 -63.5 -17.0 -53.75" fill="#000000" fill-rule="evenodd" stroke="none"/>
    <path d="M19.25 -56.75 Q41.0 -47.0 32.5 -13.25 L31.25 -8.25 30.0 -4.25 29.75 -4.0 29.75 -3.75 Q21.0 19.25 -2.0 20.0 L-4.0 20.0 -4.75 20.25 Q-18.0 22.75 -33.5 6.75 L-39.0 -2.75 -39.25 -3.5 -39.75 -4.5 Q-54.5 -41.75 -31.25 -54.25 -20.5 -45.5 -6.25 -53.75 17.75 -47.75 19.25 -56.75 M81.75 120.5 L84.25 119.25 85.0 118.75 85.5 118.5 86.25 118.25 90.0 115.25 90.75 114.75 93.5 112.5 Q112.0 143.0 110.5 154.0 111.0 193.0 55.25 201.0 30.5 204.25 16.75 193.0 10.5 188.25 8.0 163.0 L31.5 157.0 32.0 156.75 32.5 156.75 38.5 155.0 61.75 142.0 78.75 144.75 92.5 145.75 94.5 145.25 95.5 144.0 96.5 141.5 96.5 140.25 96.25 139.5 94.25 138.25 93.75 138.0 93.75 137.75 86.75 133.25 86.5 133.25 84.5 131.5 77.25 127.75 76.5 127.25 77.5 125.75 78.5 124.75 79.0 124.0 79.5 123.5 81.75 120.5 M-9.0 161.75 Q-12.0 191.0 -18.25 194.25 L-19.75 196.0 -23.0 197.75 Q-29.75 203.5 -56.5 202.0 -114.0 193.25 -111.75 154.25 L-111.5 153.75 -111.5 153.5 Q-112.0 142.75 -97.5 117.75 L-97.25 117.75 -89.5 122.75 -89.0 123.0 -88.0 123.75 -87.5 124.0 -84.5 126.0 -83.0 126.75 -78.5 128.5 -76.75 129.0 -61.0 145.0 -48.5 150.75 -30.5 158.25 -21.75 160.75 -9.0 161.75" fill="#e58508" fill-rule="evenodd" stroke="none"/>
    <path d="M88.0 -24.0 L110.5 -14.25 149.75 -1.0 174.75 6.25 174.5 7.5 172.75 9.0 157.25 4.75 117.25 -8.75 125.75 25.0 127.0 35.5 125.5 62.5 Q121.5 89.0 93.5 112.25 L99.75 122.25 102.5 128.25 Q100.5 127.0 92.0 133.75 L92.25 136.5 68.5 122.75 70.0 122.0 88.25 95.0 88.0 89.5 92.5 86.5 107.75 70.0 117.0 51.5 120.25 36.0 118.0 29.25 110.0 11.75 99.25 -7.25 88.0 -24.0 M220.75 -9.5 L223.75 -15.5 Q216.5 19.25 202.25 38.75 166.0 72.75 148.5 71.5 L146.25 71.25 143.75 68.5 Q155.75 74.75 194.25 33.0 L211.25 11.0 212.55 7.45 Q214.6 2.9 216.1 -2.3 216.4 0.9 217.25 1.5 L220.75 -9.5 M14.25 66.0 L6.75 71.0 -11.75 73.0 Q-44.75 60.0 -45.0 -26.25 -38.75 18.5 -4.5 20.0 33.25 16.0 34.75 -28.0 39.25 -3.5 25.5 46.75 L19.25 59.0 14.25 66.0 M-56.75 169.0 L-55.5 189.25 Q-44.75 190.5 -37.0 197.25 -14.25 193.0 -16.5 184.75 L-19.25 182.75 -24.0 181.25 -31.75 180.25 -56.75 169.0 M-83.25 91.75 L-82.25 89.5 -83.5 90.5 -83.25 91.75 M26.75 180.0 L18.25 182.75 15.5 185.75 16.0 188.75 Q39.75 202.75 74.5 192.25 107.15 179.45 109.85 164.55 104.8 195.6 47.5 201.5 L33.0 200.75 Q24.75 199.0 19.5 195.75 11.0 191.75 8.25 163.25 L-9.0 161.75 Q-11.25 188.5 -18.5 195.25 L-25.0 199.25 -33.25 201.5 -43.0 202.5 Q-94.5 204.25 -111.25 165.75 L-110.75 164.0 Q-110.25 169.0 -102.0 178.75 L-97.75 182.25 -96.75 182.0 -104.5 134.0 -105.75 133.75 -101.75 124.5 -97.25 117.5 Q-120.75 102.0 -128.5 75.0 L-129.75 71.25 -131.75 56.75 -132.75 45.75 -132.25 33.75 -129.75 15.0 -126.75 4.75 -125.75 -1.5 -124.7 -3.95 -124.4 -3.95 Q-133.45 52.6 -100.5 88.0 L-99.5 67.5 -99.5 30.0 -98.25 -7.0 -98.75 -32.0 -97.75 -31.75 -96.25 1.0 -95.0 12.75 -93.75 17.75 -89.75 48.25 -86.5 61.25 -86.75 63.25 -85.0 68.75 -81.75 83.25 -82.0 84.75 -80.25 87.25 -81.5 90.25 -80.75 91.75 Q-78.25 95.0 -77.5 92.0 L-75.25 96.0 -74.0 94.5 Q-73.4 95.5 -67.4 95.05 L-63.25 97.75 -41.25 108.5 -2.5 120.75 56.5 137.25 83.0 143.5 95.25 144.0 Q94.5 147.0 85.25 145.5 L73.5 160.0 73.0 161.0 41.0 177.5 26.75 180.0 M31.0 145.25 L39.5 142.75 44.25 139.25 -2.25 129.75 -42.25 118.25 -54.5 114.0 -55.0 133.25 -43.75 141.0 -34.75 145.5 -2.0 150.75 2.0 150.25 2.25 151.25 3.0 151.25 31.0 145.25" fill="#000000" fill-opacity="0.49803922" fill-rule="evenodd" stroke="none"/>
  </g>
</svg>
