<?xml version="1.0" encoding="UTF-8" standalone="no"?>
<svg xmlns:ffdec="https://www.free-decompiler.com/flash" xmlns:xlink="http://www.w3.org/1999/xlink" ffdec:objectType="shape" height="283.1px" width="350.75px" xmlns="http://www.w3.org/2000/svg">
  <g transform="matrix(1.0, 0.0, 0.0, 1.0, 134.75, 80.5)">
    <path d="M-37.25 -55.25 Q-38.75 -55.75 -42.25 -62.75 L-43.25 -71.0 -43.0 -71.75 -42.0 -73.25 -38.0 -75.75 -35.0 -77.0 -32.25 -77.75 -24.75 -78.5 -17.25 -78.5 -16.5 -78.25 -16.5 -78.0 -14.75 -77.75 -13.5 -77.75 -13.0 -78.0 -12.0 -78.25 -11.0 -78.75 -6.5 -79.5 -6.0 -79.75 1.5 -80.5 8.25 -80.0 13.0 -78.5 15.25 -77.25 16.5 -76.0 16.5 -75.0 Q17.5 -74.25 16.5 -66.25 L13.25 -59.5 Q4.25 -49.5 -12.0 -55.75 -34.75 -47.25 -37.25 -55.25 M27.0 -11.75 L37.5 9.0 42.75 23.25 56.75 47.0 Q59.75 54.0 75.75 65.5 L82.5 75.5 87.25 85.25 88.5 102.0 84.75 112.5 82.0 117.25 77.75 123.0 77.25 123.5 69.5 133.5 51.75 122.25 13.75 100.0 -22.0 80.5 -22.25 80.5 -23.0 80.0 -47.25 67.75 -51.25 67.0 -54.0 30.5 -51.0 17.5 -43.25 -4.0 -42.5 -2.5 Q-28.25 21.0 -8.0 18.0 L-6.75 18.0 -5.25 17.75 Q18.75 15.25 25.75 -7.5 L25.75 -7.75 26.0 -8.0 26.75 -10.5 26.75 -11.0 27.0 -11.75 M7.75 162.0 L-9.0 161.25 -17.5 161.0 -29.0 158.5 -29.5 158.25 -30.0 158.25 Q-40.1 154.4 -50.25 150.5 L-60.0 146.25 -76.0 131.25 -80.0 127.5 -87.5 112.75 Q-85.0 106.75 -85.5 101.5 L-82.25 98.0 -80.75 100.25 -78.0 102.25 -77.5 102.75 -77.0 103.0 -76.5 103.5 -55.0 116.0 -54.75 116.0 -53.75 116.5 -53.5 116.5 -53.0 116.75 -52.25 117.0 -51.75 117.25 -51.0 117.5 -50.5 117.75 -49.75 118.0 -47.5 119.0 -4.25 133.75 50.0 147.0 38.5 153.5 10.5 162.25 7.75 162.0 M-1.25 -67.0 L-4.25 -65.5 -6.5 -63.0 Q-6.5 -59.5 -3.75 -57.25 L0.5 -57.0 Q10.75 -65.75 -1.25 -67.0 M-27.75 -65.0 Q-34.5 -56.5 -23.5 -55.25 -12.0 -64.5 -27.75 -65.0" fill="#ffffff" fill-rule="evenodd" stroke="none"/>
    <path d="M13.25 -59.5 Q36.25 -48.0 28.25 -17.0 L28.0 -16.5 27.0 -11.75 26.75 -11.0 26.75 -10.5 26.0 -8.0 25.75 -7.75 25.75 -7.5 Q18.75 15.25 -5.25 17.75 L-6.75 18.0 -8.0 18.0 Q-28.25 21.0 -42.5 -2.5 L-43.25 -4.0 -44.25 -6.0 Q-59.25 -41.5 -37.25 -55.25 -34.75 -47.25 -12.0 -55.75 4.25 -49.5 13.25 -59.5 M82.0 117.25 L82.75 117.0 87.0 114.5 92.25 110.0 Q112.5 144.25 110.5 154.0 111.0 193.0 55.25 201.0 30.5 204.25 16.75 193.0 14.75 192.75 11.5 183.25 L7.75 162.0 10.5 162.25 38.5 153.5 50.0 147.0 71.25 151.25 84.75 152.75 86.25 152.25 87.25 151.0 88.25 148.75 88.25 147.25 75.25 137.0 74.5 136.75 69.5 133.5 77.25 123.5 77.75 123.0 82.0 117.25 M-9.0 161.25 Q-12.0 191.25 -18.25 194.25 L-19.75 196.0 -23.0 197.75 Q-29.75 203.5 -56.5 202.0 -114.0 193.25 -111.75 154.25 L-111.5 153.75 -111.5 153.5 Q-113.0 146.25 -98.75 119.75 L-91.25 124.0 -90.5 124.5 -90.0 124.75 -89.0 125.5 -83.25 128.75 -80.25 130.0 -76.0 131.25 -60.0 146.25 -50.25 150.5 Q-40.1 154.4 -30.0 158.25 L-29.5 158.25 -29.0 158.5 -17.5 161.0 -9.0 161.25" fill="#e58508" fill-rule="evenodd" stroke="none"/>
    <path d="M-27.75 -65.0 Q-12.0 -64.5 -23.5 -55.25 -34.5 -56.5 -27.75 -65.0 M-1.25 -67.0 Q10.75 -65.75 0.5 -57.0 L-3.75 -57.25 Q-6.5 -59.5 -6.5 -63.0 L-4.25 -65.5 -1.25 -67.0" fill="#000000" fill-rule="evenodd" stroke="none"/>
    <path d="M30.0 -5.25 L29.25 6.0 26.25 24.5 24.25 33.5 21.25 42.25 Q15.75 67.75 -14.0 70.0 -46.55 65.3 -49.9 -25.2 L-49.7 -25.2 Q-44.3 15.35 -6.0 18.0 29.3 9.4 30.0 -27.05 L30.0 -5.25 M82.25 -26.0 L108.0 -14.5 152.5 1.0 153.25 0.75 151.25 0.25 152.0 0.0 162.75 3.75 161.25 6.0 160.0 6.5 150.5 3.75 114.5 -9.25 122.75 20.5 124.5 32.5 123.75 57.5 Q120.0 86.25 92.25 109.75 L100.75 124.25 101.0 125.25 Q99.25 124.5 91.5 130.75 L91.75 134.5 84.5 143.75 78.0 138.75 60.0 127.25 70.75 119.0 84.75 97.0 87.5 91.5 87.5 88.0 92.25 85.0 92.0 84.5 106.5 68.5 116.0 50.0 118.0 39.5 114.5 29.75 105.5 11.5 94.0 -8.75 82.25 -26.0 M-59.25 168.5 L-57.75 189.25 Q-41.75 193.5 -40.0 197.5 -21.25 197.75 -15.75 185.0 L-20.5 182.0 -30.5 180.5 -59.25 168.5 M-84.0 87.75 L-84.25 87.0 -86.25 89.5 -86.0 91.25 -84.0 87.75 M28.0 178.5 L19.25 181.25 Q17.0 181.5 14.75 185.5 L16.0 188.75 Q39.75 202.75 74.5 192.25 107.15 179.45 109.85 164.55 104.8 195.6 47.5 201.5 L33.0 200.75 Q24.75 199.0 19.5 195.75 11.25 192.25 8.0 162.25 L-8.25 161.5 Q-11.75 188.5 -18.5 195.25 L-25.0 199.25 -33.25 201.5 -43.0 202.5 Q-92.75 204.5 -110.75 167.25 L-111.25 165.75 -110.75 164.0 -107.75 171.75 Q-101.75 180.25 -99.5 180.0 L-100.25 172.75 -103.0 162.25 -107.25 137.5 -101.75 124.5 -98.5 119.25 Q-120.5 104.25 -127.5 85.0 L-130.75 76.25 -132.75 65.25 -134.75 50.75 -134.75 36.75 -132.75 17.75 -129.25 0.25 Q-128.55 -4.25 -127.65 -6.3 L-126.45 -6.3 Q-134.55 54.2 -104.0 87.0 L-103.25 73.5 -103.5 32.25 -102.75 -9.0 -103.5 -30.5 -102.5 -29.75 -100.0 1.0 -98.5 8.25 -97.75 17.5 -95.25 28.25 -92.0 49.0 -87.0 67.25 -87.25 68.75 -82.0 86.25 -83.75 88.25 Q-83.0 89.25 -84.5 91.25 -82.25 89.75 -79.0 94.75 L-78.5 92.5 -75.75 96.25 Q-75.15 94.25 -64.75 98.4 L-44.5 109.75 -5.5 124.25 48.5 142.25 75.0 150.0 87.25 150.75 85.5 152.75 78.5 152.0 Q77.0 151.75 73.75 158.0 L42.5 175.5 28.0 178.5 M33.25 143.5 L33.0 143.0 -6.0 133.25 -47.5 119.25 -56.0 115.5 -57.0 115.75 -57.0 132.5 -43.0 141.5 -32.75 146.0 -0.25 150.25 3.5 149.5 4.25 150.5 33.25 143.5 M207.8 -1.25 L207.8 -1.3 208.75 1.25 212.25 -9.25 Q214.5 -16.0 216.0 -16.0 208.0 19.5 194.75 35.0 L175.5 50.75 155.5 59.75 137.5 64.0 130.75 63.75 Q128.75 63.25 127.75 60.5 138.0 67.25 182.0 33.0 L191.2 22.95 Q197.6 19.05 203.5 8.0 L204.0 7.1 Q207.95 1.25 207.8 -1.25 M186.6 -26.05 L187.25 -26.05 187.0 -25.75 186.5 -26.0 186.6 -26.05" fill="#000000" fill-opacity="0.49803922" fill-rule="evenodd" stroke="none"/>
  </g>
</svg>
