<?xml version="1.0" encoding="UTF-8" standalone="no"?>
<svg xmlns:ffdec="https://www.free-decompiler.com/flash" xmlns:xlink="http://www.w3.org/1999/xlink" ffdec:objectType="shape" height="286.35px" width="345.25px" xmlns="http://www.w3.org/2000/svg">
  <g transform="matrix(1.0, 0.0, 0.0, 1.0, 137.25, 83.5)">
    <path d="M-42.75 -56.75 Q-50.5 -63.5 -49.5 -72.5 L-49.25 -73.25 -48.5 -74.75 -46.75 -76.25 -41.75 -78.75 -35.5 -80.5 -24.0 -81.0 -21.5 -80.25 -20.25 -80.25 -16.5 -81.75 -5.25 -83.5 1.5 -83.25 4.25 -82.75 6.25 -82.0 8.5 -80.75 9.75 -79.5 10.25 -78.5 10.5 -70.75 7.25 -62.75 Q-2.25 -52.5 -18.0 -58.5 -31.25 -49.5 -42.75 -56.75 M22.5 -15.5 L22.75 -15.5 27.0 -6.25 35.5 8.75 40.25 20.75 54.75 44.0 63.0 53.0 74.5 61.75 80.5 70.25 86.25 81.0 88.0 98.5 Q84.0 113.25 81.75 114.25 L81.25 114.75 77.0 121.0 76.5 121.5 75.25 123.5 67.25 134.0 61.0 137.75 44.5 125.75 11.0 103.25 -23.0 82.0 -36.25 74.75 -47.0 68.25 -52.0 67.0 -52.75 67.0 -56.75 29.5 -54.25 17.25 -47.25 -5.0 -47.0 -5.0 -47.0 -4.75 -44.5 -0.5 Q-34.25 16.25 -11.5 15.25 L-10.75 15.0 -8.75 15.0 Q12.5 14.25 21.5 -11.5 L21.5 -11.75 22.25 -13.75 22.25 -14.5 22.5 -15.5 M7.75 161.0 L-9.0 160.75 -17.5 160.75 -25.75 158.75 -26.25 158.75 -51.25 150.5 -59.5 146.75 -74.25 133.75 -79.75 129.0 -87.25 115.0 Q-85.0 107.75 -85.75 103.25 L-83.0 100.0 -80.75 101.5 -80.0 102.25 -75.75 105.0 -75.25 105.25 -62.5 114.5 -53.0 118.75 -52.75 119.0 -52.25 119.0 -51.25 119.5 -12.25 135.0 31.0 148.25 40.75 150.75 12.0 161.0 7.75 161.0 M-5.75 -60.0 Q3.5 -65.0 -4.25 -70.25 -6.75 -71.25 -10.5 -68.5 L-12.5 -66.0 Q-13.0 -62.5 -9.75 -60.25 L-5.75 -60.0 M-25.0 -65.0 L-29.75 -67.5 -34.0 -67.25 Q-39.75 -57.75 -29.5 -57.5 -23.75 -58.75 -25.0 -65.0" fill="#ffffff" fill-rule="evenodd" stroke="none"/>
    <path d="M7.25 -62.75 Q30.5 -52.25 23.5 -20.0 L23.25 -19.5 22.5 -15.5 22.25 -14.5 22.25 -13.75 21.5 -11.75 21.5 -11.5 Q12.5 14.25 -8.75 15.0 L-10.75 15.0 -11.5 15.25 Q-34.25 16.25 -44.5 -0.5 L-47.0 -4.75 -47.0 -5.0 -47.25 -5.0 -47.25 -5.5 -47.5 -5.75 -51.5 -14.75 Q-63.5 -38.25 -42.75 -56.75 -31.25 -49.5 -18.0 -58.5 -2.25 -52.5 7.25 -62.75 M81.75 114.25 L82.0 114.25 88.0 110.25 90.75 107.75 Q111.25 141.0 110.5 154.0 111.0 193.0 55.25 201.0 30.5 204.25 16.75 193.0 10.75 189.25 7.75 161.0 L12.0 161.0 40.75 150.75 41.0 150.75 61.5 155.75 75.5 158.0 77.25 157.25 79.0 154.75 79.25 153.5 78.75 152.0 74.5 148.25 61.0 137.75 67.25 134.0 75.25 123.5 76.5 121.5 77.0 121.0 81.25 114.75 81.75 114.25 M-9.0 160.75 Q-12.0 191.5 -18.25 194.25 L-19.75 196.0 -23.0 197.75 Q-29.75 203.5 -56.5 202.0 -114.0 193.25 -111.75 154.25 L-111.5 153.75 -111.5 153.5 Q-112.5 145.25 -99.75 121.75 L-99.5 121.75 -96.75 123.5 -96.5 123.5 -94.75 124.5 -93.5 125.0 -91.5 126.25 -91.0 126.5 -90.25 127.0 -82.25 131.25 -74.25 133.75 -59.5 146.75 -51.25 150.5 -26.25 158.75 -25.75 158.75 -17.5 160.75 -9.0 160.75" fill="#e58508" fill-rule="evenodd" stroke="none"/>
    <path d="M-25.0 -65.0 Q-23.75 -58.75 -29.5 -57.5 -39.75 -57.75 -34.0 -67.25 L-29.75 -67.5 -25.0 -65.0 M-5.75 -60.0 L-9.75 -60.25 Q-13.0 -62.5 -12.5 -66.0 L-10.5 -68.5 Q-6.75 -71.25 -4.25 -70.25 3.5 -65.0 -5.75 -60.0" fill="#000000" fill-rule="evenodd" stroke="none"/>
    <path d="M113.0 -12.25 L148.75 0.5 Q147.5 2.75 146.0 2.75 L111.5 -10.25 Q129.25 35.0 115.5 41.5 L110.0 27.75 100.75 9.75 95.25 1.75 88.5 -10.25 76.0 -28.5 94.75 -19.5 113.0 -12.25 M149.5 -0.75 L149.5 0.0 147.75 -0.75 149.5 -0.75 M200.75 -1.0 L204.5 -12.25 Q206.5 -18.0 208.0 -18.0 L204.25 -3.0 201.25 3.25 198.0 14.75 185.5 32.75 Q167.5 51.25 121.25 54.5 118.5 82.5 90.75 107.5 L99.75 122.25 98.25 122.5 91.5 127.25 91.25 131.5 77.5 150.5 52.5 131.25 70.75 117.0 76.25 107.0 77.75 105.5 78.0 104.0 79.5 102.5 79.75 101.0 81.25 99.5 84.75 92.25 85.5 92.0 87.25 88.5 86.75 87.0 94.5 80.5 94.25 80.0 97.0 77.5 96.75 77.0 98.25 76.0 98.0 75.5 105.25 66.75 112.5 52.0 111.75 50.5 Q116.75 56.75 146.25 43.0 L169.0 31.5 171.05 30.05 Q183.5 26.45 192.3 13.3 196.6 6.95 199.2 -0.55 L199.55 -1.55 199.75 -0.75 200.75 -1.0 M5.75 149.5 L21.0 145.0 -12.25 135.0 -53.0 119.0 -59.0 116.0 -59.75 116.25 -59.75 131.25 -43.75 141.0 -32.5 146.0 5.75 149.5 M20.25 179.75 Q10.75 184.75 16.0 188.75 39.75 202.75 74.5 192.25 108.25 179.0 110.0 163.5 108.5 195.5 42.0 201.5 10.0 206.75 7.75 161.5 L-8.5 160.75 Q-9.75 206.75 -43.0 202.5 -92.75 204.5 -110.75 167.25 L-111.25 165.75 -110.75 164.0 -108.0 170.5 Q-103.75 177.75 -102.0 177.75 L-107.75 149.75 -109.75 144.5 -108.25 139.25 -107.25 138.25 -101.75 124.5 -99.75 121.5 Q-118.5 109.5 -128.5 88.25 L-132.25 78.75 -136.75 54.25 -137.25 39.75 -136.25 25.25 -134.25 11.25 -130.75 -6.5 -129.95 -10.25 -128.65 -10.25 Q-135.4 56.65 -107.25 86.0 L-106.75 12.0 -107.75 -25.5 -108.5 -27.75 -108.0 -29.5 -107.25 -28.75 -103.75 1.25 -100.75 14.25 -100.0 22.75 -94.0 47.75 -94.25 49.75 -93.5 50.25 -87.75 69.75 -87.25 73.75 -84.0 82.75 -83.75 84.25 Q-85.75 83.5 -87.5 89.5 L-86.25 90.0 -85.25 92.0 -83.0 92.25 -79.5 95.5 -79.5 92.75 -78.5 92.5 -76.5 95.75 -75.5 94.0 -72.95 94.2 -46.25 110.75 -9.5 126.5 44.25 147.25 66.75 155.0 Q68.0 153.5 78.25 156.0 78.0 159.25 70.0 157.5 L42.5 174.0 20.25 179.75 M13.25 45.5 Q5.0 64.75 -19.25 66.0 -52.5 58.0 -54.75 -31.5 -47.5 15.5 -11.5 15.25 18.25 14.0 24.75 -27.5 26.5 20.0 13.25 45.5 M-61.5 168.0 L-59.25 188.5 Q-47.5 190.75 -40.0 197.5 L-32.0 196.5 -24.5 194.5 -16.75 189.5 Q-13.75 185.0 -16.0 184.25 L-20.0 182.0 -29.75 180.25 -61.5 168.0 M-89.0 88.25 L-88.75 89.5 -86.0 84.0 Q-87.25 83.75 -89.0 88.25" fill="#000000" fill-opacity="0.49803922" fill-rule="evenodd" stroke="none"/>
  </g>
</svg>
