<?xml version="1.0" encoding="UTF-8" standalone="no"?>
<svg xmlns:ffdec="https://www.free-decompiler.com/flash" xmlns:xlink="http://www.w3.org/1999/xlink" ffdec:objectType="shape" height="290.15px" width="339.25px" xmlns="http://www.w3.org/2000/svg">
  <g transform="matrix(1.0, 0.0, 0.0, 1.0, 139.25, 87.25)">
    <path d="M-48.5 -59.0 Q-57.0 -66.5 -55.75 -74.5 L-55.5 -75.25 -54.5 -77.0 -53.0 -78.5 -50.75 -80.0 -45.5 -82.25 -38.5 -83.75 -30.25 -84.0 -29.25 -83.5 -26.75 -83.5 -26.0 -84.0 -25.25 -84.25 -24.25 -84.75 -19.75 -86.0 -12.0 -87.25 -5.75 -87.25 -2.75 -86.75 1.75 -84.75 3.25 -83.5 3.75 -82.5 4.0 -74.5 1.0 -66.5 Q-1.75 -57.5 -23.75 -61.5 -37.5 -52.25 -48.5 -59.0 M18.0 -19.5 L30.0 1.25 36.0 15.0 51.75 38.75 Q55.5 46.0 72.0 56.75 L79.25 66.25 85.0 76.25 Q91.75 94.25 81.25 111.25 L80.75 111.75 80.25 112.75 75.5 119.75 75.25 120.25 69.75 128.25 68.75 130.0 54.5 139.75 52.25 141.0 37.5 128.5 8.5 106.0 -22.0 84.25 -22.25 84.0 -22.75 83.75 -23.25 83.25 -23.75 83.0 -28.0 79.75 -41.5 71.75 -42.0 71.5 -49.0 67.25 -52.75 66.25 -54.5 66.25 -59.5 28.25 -57.5 16.0 -51.25 -7.0 -50.75 -6.75 -50.75 -6.5 Q-35.0 16.25 -14.5 11.75 L-12.25 11.25 Q10.0 9.5 17.25 -16.25 L17.25 -16.75 18.0 -19.0 18.0 -19.5 M7.75 159.75 L-9.0 160.25 -17.25 160.25 -43.0 153.75 -58.75 147.25 -72.0 136.5 -72.5 136.0 Q-96.25 115.5 -83.0 100.75 L-80.75 102.25 -80.25 102.75 -80.0 102.75 -66.25 113.75 -58.5 117.5 -58.25 117.75 -58.0 117.75 -57.75 118.0 -57.5 118.0 -57.25 118.25 -56.5 118.5 -18.0 136.0 30.5 152.75 16.0 159.25 14.0 159.5 7.75 159.75 M-16.75 -72.0 L-18.75 -69.5 Q-18.75 -66.0 -15.75 -63.75 L-11.5 -63.75 Q-1.25 -70.25 -13.0 -74.0 L-16.75 -72.0 M-36.0 -70.5 L-40.25 -70.0 Q-46.25 -61.5 -35.25 -60.5 -32.0 -60.5 -30.75 -64.5 L-31.5 -68.5 -36.0 -70.5" fill="#ffffff" fill-rule="evenodd" stroke="none"/>
    <path d="M1.0 -66.5 Q24.0 -57.5 19.0 -25.75 L18.0 -20.0 18.0 -19.5 18.0 -19.0 17.25 -16.75 17.25 -16.25 Q10.0 9.5 -12.25 11.25 L-14.5 11.75 Q-35.0 16.25 -50.75 -6.5 L-50.75 -6.75 -51.25 -7.0 -51.5 -7.75 -55.5 -16.0 Q-68.5 -40.0 -48.5 -59.0 -37.5 -52.25 -23.75 -61.5 -1.75 -57.5 1.0 -66.5 M81.25 111.25 L83.0 110.25 84.5 109.0 86.5 107.75 89.0 105.5 100.75 124.0 108.0 141.25 109.75 147.5 110.5 154.0 Q111.0 193.0 55.25 201.0 30.5 204.25 16.75 193.0 10.75 190.0 7.75 159.75 L14.0 159.5 16.0 159.25 30.5 152.75 51.75 159.0 61.0 161.0 66.25 161.5 69.0 158.25 68.75 156.5 61.75 149.25 61.5 148.75 52.25 141.0 54.5 139.75 68.75 130.0 69.75 128.25 75.25 120.25 75.5 119.75 80.25 112.75 80.75 111.75 81.25 111.25 M-9.0 160.25 Q-12.0 191.75 -18.25 194.25 L-19.75 196.0 -23.0 197.75 Q-29.75 203.5 -56.5 202.0 -114.0 193.25 -111.75 154.25 L-111.5 153.75 -111.5 153.5 -111.0 148.5 -109.0 141.5 -100.75 123.25 -97.5 125.5 -95.5 126.25 -93.25 127.5 -92.5 127.75 -92.0 128.25 -91.5 128.25 -90.75 128.75 -79.5 134.0 -72.5 136.0 -72.0 136.5 -58.75 147.25 -43.0 153.75 -17.25 160.25 -9.0 160.25" fill="#e58508" fill-rule="evenodd" stroke="none"/>
    <path d="M-36.0 -70.5 L-31.5 -68.5 -30.75 -64.5 Q-32.0 -60.5 -35.25 -60.5 -46.25 -61.5 -40.25 -70.0 L-36.0 -70.5 M-16.75 -72.0 L-13.0 -74.0 Q-1.25 -70.25 -11.5 -63.75 L-15.75 -63.75 Q-18.75 -66.0 -18.75 -69.5 L-16.75 -72.0" fill="#000000" fill-rule="evenodd" stroke="none"/>
    <path d="M118.0 -9.75 L133.5 -4.5 133.75 -4.0 131.5 -2.5 108.5 -11.5 116.5 12.0 104.75 24.25 91.0 0.75 69.75 -31.5 86.0 -23.25 118.0 -9.75 M194.5 -4.0 Q197.25 -20.0 200.0 -21.0 192.0 18.25 177.0 28.25 150.25 45.5 119.5 43.5 120.75 74.5 89.0 105.25 L98.0 119.5 97.25 120.0 97.0 119.5 91.0 123.75 90.75 128.0 75.75 149.75 74.75 151.5 68.5 155.75 59.75 147.0 45.25 135.0 54.75 128.0 71.25 114.0 81.5 94.25 82.5 93.5 85.75 86.0 93.75 78.75 104.0 66.0 110.75 51.25 Q114.0 44.75 113.0 43.75 L99.75 41.5 Q95.75 40.75 95.5 37.5 103.0 45.25 158.0 27.5 L182.5 11.5 182.7 11.25 Q186.3 8.5 189.45 3.7 191.4 0.7 192.9 -2.65 L194.5 -4.0 M11.5 146.25 L-18.0 136.0 -58.85 117.65 -60.9 117.9 -61.95 117.85 -61.5 130.75 -45.25 140.25 -30.0 146.0 7.0 148.25 12.0 146.75 11.5 146.25 M16.0 188.75 Q39.75 202.75 74.5 192.25 108.25 179.0 110.0 163.5 108.0 195.5 42.75 201.5 8.5 206.75 8.0 159.75 L-8.25 160.25 Q-10.0 207.0 -43.0 202.5 -92.75 204.5 -110.75 167.25 L-111.25 165.75 -110.75 164.0 -108.0 170.5 Q-106.75 174.75 -104.75 173.75 L-110.25 151.75 -111.25 151.25 -110.75 147.75 -108.25 139.25 -100.75 123.25 Q-120.25 113.5 -133.75 80.25 L-137.25 64.75 -139.25 47.75 -138.75 24.75 -136.25 5.5 -133.75 -7.5 Q-133.25 -13.0 -131.5 -13.0 -136.75 58.0 -110.0 85.5 L-110.25 45.25 -111.0 36.25 -110.75 11.25 -112.75 -29.0 -111.75 -28.25 -107.5 0.25 -106.0 4.75 -100.5 32.25 -96.25 49.0 -85.5 80.75 Q-87.25 80.5 -90.25 87.25 L-87.25 92.25 -85.25 94.0 -84.25 94.0 -86.0 90.5 -85.0 91.75 -83.0 92.25 -79.5 96.0 -80.0 91.0 -72.85 96.7 Q-70.3 96.9 -67.2 98.15 -62.15 100.15 -58.5 103.6 L-54.25 106.25 -48.75 111.0 4.75 136.25 51.25 156.25 57.5 158.5 Q58.5 157.0 68.25 159.25 67.75 161.0 59.75 161.25 L44.5 171.5 19.25 179.0 Q10.25 183.0 16.0 188.75 M8.25 41.25 Q-1.0 59.0 -23.25 60.75 -56.5 54.0 -60.0 -34.0 -53.0 5.75 -23.25 11.25 13.75 12.25 19.75 -28.0 22.5 8.75 8.25 41.25 M-60.0 -35.75 L-60.0 -37.5 -59.25 -35.0 -60.0 -35.75 M-89.0 82.0 L-90.75 84.0 -90.25 84.25 -89.0 82.0 M-61.0 186.5 Q-39.5 192.5 -37.0 197.25 L-24.5 194.5 Q-13.75 189.5 -15.0 184.5 L-17.5 182.25 Q-21.75 180.25 -27.0 180.75 L-63.75 167.5 -61.0 186.5" fill="#000000" fill-opacity="0.49803922" fill-rule="evenodd" stroke="none"/>
  </g>
</svg>
