<?xml version="1.0" encoding="UTF-8" standalone="no"?>
<svg xmlns:ffdec="https://www.free-decompiler.com/flash" xmlns:xlink="http://www.w3.org/1999/xlink" ffdec:objectType="shape" height="293.7px" width="333.0px" xmlns="http://www.w3.org/2000/svg">
  <g transform="matrix(1.0, 0.0, 0.0, 1.0, 141.25, 90.75)">
    <path d="M-55.25 -8.5 Q-40.5 12.75 -18.25 8.5 L-18.25 8.25 -15.75 8.0 Q5.5 6.0 12.75 -20.25 L12.75 -20.75 13.25 -22.5 13.25 -23.25 13.5 -23.25 17.25 -16.0 27.25 -0.75 33.75 13.0 49.75 35.75 56.0 42.25 70.5 52.75 77.0 61.0 83.0 70.75 Q91.75 87.25 80.5 108.5 L80.25 109.0 79.75 109.75 79.5 110.25 74.25 118.5 74.0 119.25 71.5 123.25 68.25 127.25 43.75 145.0 3.0 107.25 -22.5 86.5 -23.25 85.5 -23.75 85.25 -28.0 81.25 -46.0 69.0 -46.5 68.75 -50.5 66.25 -54.5 65.5 -55.75 65.5 -62.25 27.5 -60.75 15.5 -55.25 -8.5 M-5.25 -70.0 Q-8.0 -60.75 -29.75 -64.5 -45.5 -54.5 -54.25 -60.75 -61.5 -65.75 -62.0 -76.0 L-62.25 -76.75 -61.0 -78.75 -59.75 -80.25 -55.0 -83.25 -48.75 -85.5 -44.75 -86.25 -37.25 -86.75 -36.5 -86.5 -36.0 -86.25 -33.5 -86.25 -32.75 -86.75 -32.0 -87.0 -29.75 -88.0 -22.5 -90.0 -15.25 -90.75 -9.5 -90.25 -7.25 -89.5 -5.0 -88.25 -3.5 -87.0 -3.0 -86.0 -2.5 -77.25 -5.25 -70.0 M-37.5 -65.75 L-37.25 -70.75 -42.0 -73.0 -46.0 -72.5 Q-52.0 -63.0 -41.25 -63.0 -37.25 -64.75 -37.5 -65.75 M-25.0 -72.5 Q-24.75 -69.0 -21.75 -67.0 L-17.75 -67.0 Q-7.5 -74.0 -19.5 -77.25 L-23.0 -75.25 -25.0 -72.5 M-71.25 138.0 L-78.25 132.5 -87.25 117.25 Q-87.25 102.75 -83.25 102.0 L-72.75 111.5 -63.5 116.75 -63.0 117.25 -26.5 136.25 12.25 152.25 21.25 155.25 16.0 157.75 7.5 158.5 -9.0 159.75 -17.25 160.0 -40.5 154.5 -56.5 148.75 Q-63.85 143.4 -71.25 138.0" fill="#ffffff" fill-rule="evenodd" stroke="none"/>
    <path d="M13.5 -23.25 L13.25 -23.25 13.25 -22.5 12.75 -20.75 12.75 -20.25 Q5.5 6.0 -15.75 8.0 L-18.25 8.25 -18.25 8.5 Q-40.5 12.75 -55.25 -8.5 L-55.25 -9.25 -55.75 -9.75 -60.0 -17.75 Q-74.0 -40.25 -54.25 -60.75 -45.5 -54.5 -29.75 -64.5 -8.0 -60.75 -5.25 -70.0 19.5 -59.75 14.0 -27.25 L13.5 -23.25 M43.75 145.0 L68.25 127.25 71.5 123.25 74.0 119.25 74.25 118.5 79.5 110.25 79.75 109.75 80.25 109.0 80.5 108.5 81.75 108.0 83.25 106.5 87.5 103.25 100.75 124.0 108.0 141.25 109.75 147.5 110.5 154.0 Q111.0 193.0 55.25 201.0 30.5 204.25 16.75 193.0 10.75 190.5 7.5 158.5 L16.0 157.75 21.25 155.25 41.75 162.5 Q43.5 162.5 45.0 163.5 L54.75 165.5 Q56.5 165.75 58.0 162.0 L57.25 159.75 52.75 153.75 51.5 153.0 43.75 145.0 M-9.0 159.75 Q-12.0 192.0 -18.25 194.25 L-19.75 196.0 -23.0 197.75 Q-29.75 203.5 -56.5 202.0 -114.0 193.25 -111.75 154.25 L-111.5 153.75 -111.5 153.5 -109.75 144.0 -102.0 125.0 -98.25 127.5 -98.0 127.5 -93.75 129.5 -93.0 130.0 -92.25 130.0 -87.25 132.5 -86.25 132.75 -85.0 133.5 -81.75 135.0 -74.75 137.25 -71.25 138.0 Q-63.85 143.4 -56.5 148.75 L-40.5 154.5 -17.25 160.0 -9.0 159.75" fill="#e58508" fill-rule="evenodd" stroke="none"/>
    <path d="M-25.0 -72.5 L-23.0 -75.25 -19.5 -77.25 Q-7.5 -74.0 -17.75 -67.0 L-21.75 -67.0 Q-24.75 -69.0 -25.0 -72.5 M-37.5 -65.75 Q-37.25 -64.75 -41.25 -63.0 -52.0 -63.0 -46.0 -72.5 L-42.0 -73.0 -37.25 -70.75 -37.5 -65.75" fill="#000000" fill-rule="evenodd" stroke="none"/>
    <path d="M63.0 -34.5 L77.25 -26.5 117.25 -9.75 117.5 -9.25 115.5 -8.25 105.75 -12.25 109.25 -3.0 92.5 10.5 76.25 -15.25 63.0 -34.5 M184.05 -2.5 L184.75 -4.0 Q189.25 -11.5 189.5 -21.25 L191.75 -24.0 Q184.0 17.0 167.25 25.0 L158.5 29.0 139.0 34.25 116.75 34.75 Q118.75 75.0 87.5 103.0 L96.25 117.0 95.0 117.0 90.0 120.25 89.75 125.0 75.75 146.0 74.75 148.5 59.0 159.5 58.0 161.0 52.25 153.25 36.25 137.25 43.5 134.75 62.75 119.5 71.5 111.5 82.25 90.0 85.0 83.0 Q91.75 82.5 110.25 48.0 L105.0 34.25 92.5 32.25 81.75 29.0 80.0 27.75 79.25 25.5 84.5 28.75 114.5 28.5 142.0 25.0 149.75 22.75 148.75 22.0 172.75 9.25 181.25 1.5 181.5 1.15 Q182.95 -0.35 184.05 -2.5 M8.0 158.75 L-8.25 159.5 Q-10.0 207.5 -43.0 202.5 -92.75 204.5 -110.75 167.25 -116.25 155.0 -101.75 124.75 -122.75 115.0 -135.75 79.75 L-139.75 63.75 -141.25 51.25 -141.25 27.5 -140.25 13.75 -137.75 -3.75 -135.25 -14.75 -134.5 -15.0 Q-137.75 60.25 -113.25 85.0 L-114.75 11.25 -117.25 -29.0 -116.25 -27.25 -111.25 -0.25 -103.75 27.5 -103.5 31.25 -97.75 50.25 -87.5 77.25 -93.0 84.5 Q-94.0 86.25 -87.5 93.75 -83.5 94.75 -86.25 90.5 L-80.0 96.0 -79.75 93.75 -80.7 90.15 Q-79.75 93.4 -71.1 97.7 L-71.85 97.75 Q-71.3 98.0 -70.7 98.35 -61.8 104.55 -60.1 105.2 -54.65 108.1 -51.05 112.55 L-49.65 114.45 -8.0 135.0 22.75 150.75 46.25 161.75 Q47.25 160.5 57.0 162.5 L58.25 161.5 58.0 163.0 55.75 165.25 51.5 165.0 Q49.75 170.0 18.75 178.0 10.0 181.5 16.0 188.75 39.75 202.75 74.5 192.25 108.25 179.0 110.0 163.5 107.5 195.5 43.75 201.5 L32.75 200.75 Q22.0 198.5 18.0 194.75 9.0 185.5 8.0 158.75 M-64.0 130.0 L-46.5 139.75 -30.0 145.75 0.25 147.25 -26.5 136.25 -64.5 116.75 -64.0 130.0 M-26.75 55.75 Q-60.5 52.5 -65.25 -40.25 -55.25 6.25 -27.25 8.25 3.75 13.0 14.5 -28.5 16.0 52.75 -26.75 55.75 M-66.0 167.0 L-62.75 185.0 Q-38.25 191.75 -37.5 197.0 L-34.0 197.0 Q-11.75 192.0 -16.0 182.75 -18.0 180.75 -26.0 180.5 L-66.0 167.0" fill="#000000" fill-opacity="0.49803922" fill-rule="evenodd" stroke="none"/>
  </g>
</svg>
