<?xml version="1.0" encoding="UTF-8" standalone="no"?>
<svg xmlns:ffdec="https://www.free-decompiler.com/flash" xmlns:xlink="http://www.w3.org/1999/xlink" ffdec:objectType="shape" height="156.4px" width="185.15px" xmlns="http://www.w3.org/2000/svg">
  <g transform="matrix(1.0, 0.0, 0.0, 1.0, 93.15, 74.15)">
    <path d="M76.0 -3.15 L77.7 -1.9 79.7 1.0 83.7 8.1 87.85 23.1 90.55 35.55 92.0 44.55 Q92.25 50.85 88.55 47.25 L87.7 46.55 83.1 39.4 81.7 36.25 79.25 32.55 71.0 15.55 70.7 15.25 70.25 15.0 69.0 14.1 68.55 13.85 67.7 13.25 67.25 13.0 66.0 12.1 65.55 11.85 65.0 11.4 64.1 10.85 63.7 10.55 63.0 10.25 Q71.55 33.85 47.4 57.4 L43.55 60.55 43.1 60.85 41.85 61.4 41.1 61.55 41.0 61.85 40.55 62.4 40.1 62.7 40.0 63.0 39.55 63.4 39.1 64.0 33.25 70.55 32.55 71.7 31.85 72.0 18.0 79.1 3.85 82.25 -11.6 80.7 -14.9 79.85 Q-23.15 76.0 -31.45 72.1 L-38.6 64.4 -39.0 63.85 -39.45 63.4 -40.0 63.25 -42.45 62.1 -42.6 62.0 -42.75 62.0 -43.0 61.85 -43.15 61.55 -43.75 61.25 -45.0 60.25 -47.3 58.85 Q-70.75 42.0 -64.45 10.7 L-72.0 15.4 -72.3 16.7 -82.3 35.55 -82.9 36.4 -86.15 42.25 -86.45 42.7 -86.6 43.0 -87.0 43.4 -89.15 46.85 Q-92.6 51.7 -93.15 44.85 L-91.6 35.1 -89.75 28.0 -89.45 25.25 -86.15 13.4 -86.15 12.85 -86.0 12.85 -85.9 12.1 -84.9 8.1 -82.75 4.25 -81.9 3.0 -81.75 2.85 -79.45 -1.15 -78.45 -1.75 -77.15 -3.0 -67.6 -14.6 -57.15 -25.15 -48.6 -32.3 -44.0 -34.6 Q-19.75 -70.6 -0.75 -74.15 20.85 -68.75 43.0 -34.9 44.7 -35.3 53.55 -27.45 L66.85 -14.15 71.0 -9.15 71.4 -8.3 72.4 -7.45 76.0 -3.15" fill="#2e47aa" fill-rule="evenodd" stroke="none"/>
  </g>
</svg>
