<?xml version="1.0" encoding="UTF-8" standalone="no"?>
<svg xmlns:ffdec="https://www.free-decompiler.com/flash" xmlns:xlink="http://www.w3.org/1999/xlink" ffdec:objectType="shape" height="169.75px" width="166.5px" xmlns="http://www.w3.org/2000/svg">
  <g transform="matrix(1.0, 0.0, 0.0, 1.0, 84.75, 86.15)">
    <path d="M65.35 -7.75 L66.85 -5.5 70.75 2.5 70.75 2.6 70.85 2.85 73.5 7.75 74.5 10.6 74.6 11.0 74.6 11.35 78.25 21.6 80.35 42.85 81.75 68.1 81.6 68.85 81.6 70.0 81.5 70.35 81.35 71.75 Q79.6 76.6 77.35 70.75 L77.35 70.6 77.25 70.35 76.85 69.6 74.35 61.85 70.5 46.6 70.0 45.75 66.5 29.85 66.35 29.6 66.25 29.0 66.1 28.5 63.85 17.85 63.75 17.6 63.75 17.5 63.25 16.85 63.1 16.85 Q64.1 40.5 45.6 54.6 L44.1 56.0 43.1 56.5 42.35 57.0 42.0 57.1 41.75 57.35 41.35 57.85 41.1 58.1 40.85 58.6 39.0 61.1 38.75 61.35 38.5 61.75 35.35 65.85 21.85 73.85 7.75 78.6 -8.9 78.25 -19.75 74.6 -20.0 74.6 -22.15 73.85 -28.9 70.0 -34.15 65.35 -38.15 64.0 -39.4 63.35 -39.75 63.1 -40.75 62.75 -42.25 61.85 -42.5 61.75 -42.9 61.5 -43.0 61.5 -43.4 61.25 -43.5 61.1 -43.65 61.1 -45.9 59.75 -46.0 59.75 -47.15 59.0 -47.4 59.0 Q-69.5 42.75 -65.75 18.0 L-70.75 23.85 -70.75 26.35 -70.65 26.6 -70.65 29.0 -70.5 30.0 -70.5 31.75 -70.4 32.0 -69.5 51.1 -69.65 78.35 -69.75 79.0 -69.9 79.35 -69.9 80.25 -70.0 80.5 -70.4 83.25 -71.25 83.6 -72.75 83.35 -74.15 80.0 -74.15 79.85 -74.25 79.6 -74.4 79.35 -74.65 78.75 -76.9 70.0 -80.25 52.85 -80.75 51.75 -84.4 29.1 -84.75 28.1 -84.5 20.35 -84.4 19.85 -84.0 16.0 -83.75 15.25 -83.75 15.1 -83.65 14.75 -83.15 13.75 -83.15 13.6 -83.0 13.35 -82.5 12.0 -81.0 10.85 -80.9 10.75 -76.9 4.5 -74.5 -0.15 -61.4 -19.4 -50.15 -33.4 -47.15 -35.9 Q-19.15 -82.5 -1.25 -86.15 16.5 -85.0 46.25 -37.15 L47.1 -36.4 55.1 -24.9 65.25 -8.0 65.35 -7.75" fill="#2e47aa" fill-rule="evenodd" stroke="none"/>
  </g>
</svg>
