<?xml version="1.0" encoding="UTF-8" standalone="no"?>
<svg xmlns:ffdec="https://www.free-decompiler.com/flash" xmlns:xlink="http://www.w3.org/1999/xlink" ffdec:objectType="shape" height="191.45px" width="160.85px" xmlns="http://www.w3.org/2000/svg">
  <g transform="matrix(1.0, 0.0, 0.0, 1.0, 83.6, 97.0)">
    <path d="M-66.3 24.0 L-67.3 25.1 -67.15 25.25 -67.15 25.4 -66.3 26.55 -66.0 24.85 -66.3 24.0 M64.1 -7.3 L67.0 -0.75 67.25 0.0 67.4 0.1 67.4 0.25 67.7 0.85 67.7 1.4 68.0 1.55 68.0 1.7 72.0 11.4 72.7 14.7 73.25 15.55 76.0 28.1 77.0 51.55 77.25 84.85 77.0 89.4 76.1 90.25 73.85 90.1 72.25 85.4 69.55 74.1 64.85 50.7 60.85 24.0 60.7 24.0 Q62.0 33.7 43.7 52.0 L42.25 53.1 37.55 60.0 37.0 60.25 22.0 70.25 10.1 75.0 -2.45 75.55 -6.3 75.4 -19.15 72.1 -27.6 66.7 -27.75 66.7 -37.9 63.85 -38.6 63.4 -39.9 63.0 -40.6 62.55 -44.3 61.0 -44.45 61.0 -45.0 60.55 -45.15 60.55 -45.9 60.0 -46.0 60.0 -47.3 59.1 -47.45 59.1 -54.0 54.1 -54.45 53.85 -52.0 59.85 -51.9 60.55 -50.45 64.1 -50.15 64.4 -48.45 68.7 -48.15 69.25 -48.15 69.4 -48.0 69.7 -47.9 70.25 -47.15 71.85 -46.75 73.1 -46.6 73.4 -46.45 73.85 -46.0 74.7 -45.9 75.25 -45.6 75.7 -41.15 88.25 -41.15 88.4 Q-37.9 99.1 -45.75 90.85 L-46.0 90.55 -46.75 89.85 -49.75 85.85 -50.3 84.4 -51.75 83.0 -52.0 82.0 -53.9 80.0 -59.9 70.85 -59.9 70.25 -61.45 68.4 -61.75 67.4 -65.45 62.25 -79.0 39.0 -83.15 27.55 -83.3 26.1 -83.3 25.55 -83.6 23.4 -83.6 22.0 -83.45 21.1 -81.45 20.1 -74.6 4.85 -63.9 -15.3 -52.45 -34.0 -49.75 -37.3 -49.45 -37.9 -49.15 -38.15 Q-20.9 -92.15 -3.45 -97.0 14.7 -97.6 48.1 -38.45 L48.1 -38.3 53.55 -28.9 63.25 -9.15 63.4 -8.9 64.0 -7.6 64.1 -7.3" fill="#2e47aa" fill-rule="evenodd" stroke="none"/>
  </g>
</svg>
