<?xml version="1.0" encoding="UTF-8" standalone="no"?>
<svg xmlns:ffdec="https://www.free-decompiler.com/flash" xmlns:xlink="http://www.w3.org/1999/xlink" ffdec:objectType="shape" height="197.75px" width="157.75px" xmlns="http://www.w3.org/2000/svg">
  <g transform="matrix(1.0, 0.0, 0.0, 1.0, 80.0, 106.5)">
    <path d="M40.85 -53.9 L43.85 -50.0 52.1 -36.4 62.6 -16.15 68.85 -1.9 69.0 -1.65 69.35 -0.75 69.5 -0.5 71.5 4.1 72.0 7.25 72.0 7.35 72.1 7.6 72.25 7.85 72.5 8.6 72.6 8.75 72.6 9.1 73.1 11.35 73.25 11.6 73.25 12.0 75.0 19.85 76.85 48.25 77.75 85.0 77.35 90.6 74.6 91.25 74.1 91.25 72.0 84.5 71.85 84.25 69.0 72.85 63.75 48.1 60.5 25.85 60.35 25.5 60.35 25.1 60.25 24.6 60.25 24.25 60.1 23.75 60.1 22.85 59.85 21.85 59.35 18.5 59.1 17.85 Q55.1 40.35 42.5 48.85 L41.1 51.25 40.6 51.85 39.6 53.75 39.25 54.0 39.0 54.25 38.6 54.5 35.85 56.6 35.1 57.35 24.25 65.75 13.25 70.75 -2.25 72.5 -11.0 70.85 -11.15 70.85 -10.9 71.35 -8.15 75.35 Q-7.15 76.6 -10.25 78.0 L-16.65 75.0 -16.9 74.85 -17.0 74.85 -34.25 64.75 -39.15 63.1 -39.65 63.0 -39.9 62.85 -43.15 61.75 -43.25 61.75 -43.75 61.35 -45.0 60.6 -45.15 60.6 -52.65 55.85 Q-59.25 50.1 -61.0 46.1 L-68.5 39.85 -68.9 39.6 -74.0 33.85 -74.15 33.75 -74.4 33.35 -77.15 30.25 -77.25 30.0 -77.75 29.35 -78.25 28.85 -80.0 23.35 -77.0 20.35 -76.9 18.6 -70.65 0.6 -64.4 -13.9 -63.9 -14.4 -63.65 -15.65 -63.0 -16.4 -61.25 -21.15 -51.75 -39.5 Q-22.75 -102.0 -6.25 -106.5 13.6 -102.9 40.85 -54.0 L40.85 -53.9" fill="#2e47aa" fill-rule="evenodd" stroke="none"/>
  </g>
</svg>
