<?xml version="1.0" encoding="UTF-8" standalone="no"?>
<svg xmlns:ffdec="https://www.free-decompiler.com/flash" xmlns:xlink="http://www.w3.org/1999/xlink" ffdec:objectType="shape" height="176.65px" width="141.65px" xmlns="http://www.w3.org/2000/svg">
  <g transform="matrix(1.0, 0.0, 0.0, 1.0, 67.8, 103.15)">
    <path d="M68.5 -14.75 L68.6 -14.5 68.75 -14.25 68.85 -14.0 69.0 -13.75 69.1 -13.5 69.25 -13.25 70.1 -11.5 70.25 -11.25 70.35 -11.15 71.1 -7.9 71.75 -6.75 73.6 3.1 73.85 6.25 73.35 25.75 71.0 61.75 71.0 62.25 Q68.1 76.6 64.25 63.5 L61.0 48.25 59.0 35.25 57.85 23.0 57.35 25.0 52.6 35.85 46.25 44.6 44.85 45.75 41.35 53.1 39.35 54.75 39.0 55.1 38.6 55.35 34.85 58.5 34.25 59.1 27.35 64.75 15.0 71.25 0.85 73.5 -2.15 73.1 -2.25 73.1 -14.0 71.5 -19.4 68.75 -19.65 68.6 -30.15 67.35 -39.15 64.75 -39.9 64.6 -43.25 63.25 -43.4 63.1 -43.5 63.1 -43.65 63.0 -43.75 63.0 -45.0 62.25 -45.65 62.0 -45.75 62.0 -48.25 60.6 -48.4 60.6 Q-68.15 49.25 -66.4 20.35 -69.5 16.25 -65.65 11.0 L-65.65 10.75 -64.4 2.5 -61.75 -9.5 -57.25 -23.4 -51.25 -37.25 -49.5 -40.5 -49.5 -41.15 Q-23.0 -95.9 -9.0 -102.25 5.6 -109.4 35.75 -61.25 47.6 -55.4 68.5 -14.75" fill="#2e47aa" fill-rule="evenodd" stroke="none"/>
  </g>
</svg>
