<?xml version="1.0" encoding="UTF-8" standalone="no"?>
<svg xmlns:ffdec="https://www.free-decompiler.com/flash" xmlns:xlink="http://www.w3.org/1999/xlink" ffdec:objectType="shape" height="169.1px" width="136.2px" xmlns="http://www.w3.org/2000/svg">
  <g transform="matrix(1.0, 0.0, 0.0, 1.0, 66.0, 91.85)">
    <path d="M2.0 -91.75 Q17.25 -87.45 38.85 -53.75 50.4 -49.45 65.4 -17.3 L66.0 -16.15 Q73.4 1.55 67.7 7.7 L66.0 14.1 58.85 27.25 58.85 27.4 58.4 29.1 53.4 39.55 46.1 48.4 42.0 56.55 41.55 57.25 41.55 57.85 41.4 58.1 40.25 59.25 39.25 60.0 38.55 60.7 38.25 60.85 37.85 61.25 29.4 68.1 15.85 75.0 14.0 75.7 0.25 77.25 -6.15 76.4 -6.3 76.4 -14.45 75.0 -24.15 69.7 -25.45 69.55 -34.6 67.7 -42.0 65.1 -42.6 64.7 -43.9 64.1 -44.3 64.0 -44.45 63.85 -44.75 63.7 -44.9 63.7 -45.45 63.25 -48.0 61.7 -48.3 61.4 -48.75 61.25 Q-72.6 49.55 -63.45 5.55 L-60.75 -4.6 -53.6 -23.0 -49.15 -31.6 -48.6 -32.0 -47.45 -34.9 -38.75 -49.75 -30.9 -62.15 -22.0 -74.75 Q-6.9 -93.15 2.0 -91.75" fill="#2e47aa" fill-rule="evenodd" stroke="none"/>
  </g>
</svg>
