<?xml version="1.0" encoding="UTF-8" standalone="no"?>
<svg xmlns:ffdec="https://www.free-decompiler.com/flash" xmlns:xlink="http://www.w3.org/1999/xlink" ffdec:objectType="shape" height="188.3px" width="134.45px" xmlns="http://www.w3.org/2000/svg">
  <g transform="matrix(1.0, 0.0, 0.0, 1.0, 71.35, 77.9)">
    <path d="M58.55 -13.45 Q71.55 23.25 47.4 50.85 L44.55 56.55 44.25 57.0 43.7 58.1 43.4 59.0 42.85 59.7 42.7 60.0 42.4 60.4 41.4 62.7 41.1 63.25 41.0 63.55 40.85 63.85 40.4 64.1 40.0 64.55 28.85 73.55 26.85 74.4 26.1 74.55 7.1 95.1 3.4 98.55 3.4 98.7 2.7 99.4 2.1 99.85 1.7 100.25 1.4 100.4 1.0 100.85 0.1 101.55 -0.3 102.0 -0.75 102.25 -0.9 102.55 Q4.85 109.1 -0.15 110.4 L-7.15 106.7 -16.9 100.1 -36.3 85.25 -41.3 81.85 -47.6 76.1 -47.75 75.85 -49.0 74.85 -49.3 74.4 -49.6 74.25 -61.6 62.4 -68.6 52.55 -68.75 52.4 -69.3 51.4 -71.3 44.7 Q-71.75 43.85 -68.9 40.7 L-68.45 39.0 -68.3 38.85 -68.15 38.25 -68.15 38.0 -65.0 27.7 -65.15 27.0 Q-63.0 -1.3 -45.45 -27.45 -17.9 -72.3 5.55 -77.9 31.0 -71.0 58.55 -13.45 M7.4 80.25 L-1.15 81.0 -6.0 80.0 -6.75 80.0 -16.3 77.85 -19.45 76.55 -19.6 76.55 -7.3 93.25 -7.0 93.85 -3.75 98.55 3.55 86.85 4.25 85.0 5.0 84.55 Q4.7 83.7 7.4 80.25" fill="#2e47aa" fill-rule="evenodd" stroke="none"/>
  </g>
</svg>
