<?xml version="1.0" encoding="UTF-8" standalone="no"?>
<svg xmlns:ffdec="https://www.free-decompiler.com/flash" xmlns:xlink="http://www.w3.org/1999/xlink" ffdec:objectType="shape" height="174.4px" width="138.95px" xmlns="http://www.w3.org/2000/svg">
  <g transform="matrix(1.0, 0.0, 0.0, 1.0, 72.6, 45.35)">
    <path d="M-54.6 61.25 L-54.75 61.25 -56.6 64.7 -50.45 75.0 -50.15 75.25 -50.0 75.7 -49.15 77.0 -48.9 77.85 -48.6 78.1 -48.45 78.55 -48.0 79.25 -47.75 79.55 -47.6 80.0 -47.3 80.25 -47.15 80.7 -38.3 95.55 -37.9 96.55 -29.45 111.55 -29.45 111.85 -29.15 112.1 -28.75 112.85 -28.75 113.1 -28.0 114.55 -27.6 115.1 -12.6 99.25 -1.75 89.0 -6.9 89.0 -9.0 88.25 -9.15 88.25 Q-9.7 88.0 -10.3 87.7 L-11.0 87.55 -22.6 83.55 -34.15 73.85 -34.45 73.25 -34.6 73.25 -39.75 71.55 -45.75 68.25 -46.0 68.0 -46.75 67.7 -47.9 67.0 -48.3 66.85 -50.0 65.25 -50.45 65.0 -54.6 61.25 M14.4 -45.0 Q34.85 -43.15 61.55 -1.0 75.1 27.7 50.25 57.0 L47.85 62.1 47.4 62.25 47.1 63.25 46.4 64.4 46.1 64.7 45.85 65.1 45.85 65.25 45.4 65.85 44.85 67.1 44.25 67.55 42.85 70.1 39.0 74.7 26.7 84.0 22.7 85.1 8.1 96.25 7.7 96.1 -6.3 106.25 -19.0 114.7 -19.15 114.85 -19.6 115.1 -20.45 115.7 -25.6 118.55 -23.75 122.55 Q-18.45 134.1 -28.75 125.1 L-34.9 118.1 -50.75 98.4 -50.6 98.1 -51.3 97.7 -64.6 80.0 -68.9 72.0 -71.45 69.25 Q-72.75 67.55 -71.9 65.0 L-72.45 62.55 -72.6 60.0 -71.9 58.85 -70.6 58.1 -64.45 41.55 -64.45 41.25 Q-66.0 15.25 -44.3 -9.15 -2.0 -49.0 14.4 -45.0" fill="#2e47aa" fill-rule="evenodd" stroke="none"/>
  </g>
</svg>
