<?xml version="1.0" encoding="UTF-8" standalone="no"?>
<svg xmlns:ffdec="https://www.free-decompiler.com/flash" xmlns:xlink="http://www.w3.org/1999/xlink" ffdec:objectType="shape" height="157.15px" width="141.65px" xmlns="http://www.w3.org/2000/svg">
  <g transform="matrix(1.0, 0.0, 0.0, 1.0, 74.5, 28.65)">
    <path d="M-3.25 -25.9 Q1.1 -28.75 15.85 -28.65 51.35 -16.25 62.85 8.5 75.75 34.5 50.1 61.85 L49.5 62.25 48.85 64.5 48.6 65.0 47.6 66.5 47.25 67.25 46.85 67.6 46.35 68.35 46.25 68.6 46.0 68.85 42.5 74.25 41.85 75.1 41.5 75.85 41.0 76.5 39.6 77.85 37.25 79.6 36.25 81.5 34.0 82.5 28.5 88.5 -4.4 111.85 -20.15 122.0 -20.25 122.1 -20.9 122.5 -25.5 124.75 -27.0 124.0 Q-25.0 132.1 -31.5 125.6 L-32.0 125.25 -41.0 115.25 -63.25 87.85 -63.4 87.6 -63.75 87.25 -64.15 86.75 -64.25 86.5 -64.5 86.25 -67.25 82.75 -69.4 78.35 Q-74.5 76.35 -73.65 69.1 L-73.65 68.75 -74.0 67.35 Q-75.65 63.6 -71.75 61.25 L-66.4 48.6 -64.15 44.5 -64.15 43.85 Q-69.4 28.85 -48.65 1.85 L-36.75 -8.5 -3.25 -25.9 M-51.0 66.35 L-54.0 63.35 -57.4 68.25 -57.65 68.5 -58.65 70.0 -54.15 76.5 -51.4 81.25 -51.0 81.6 -50.75 82.25 -50.4 82.6 -50.4 82.85 -50.15 83.25 -49.75 83.6 -49.75 83.85 -42.4 95.5 -42.15 95.75 -33.25 111.85 -32.9 112.6 -32.65 112.85 -32.15 113.75 -32.15 114.0 -32.0 114.25 -31.9 114.5 -31.65 114.75 -31.5 115.0 -27.65 122.6 -27.5 122.75 -24.4 118.85 -24.4 118.75 -23.65 117.85 -12.15 106.1 2.0 92.85 -9.0 92.5 -17.65 89.1 -17.75 89.1 -17.9 89.0 -18.25 88.85 -18.65 88.6 -19.0 88.5 -19.25 88.35 -24.4 86.35 -35.4 76.25 -36.65 74.5 -36.9 74.25 -39.25 73.5 -42.75 71.85 -45.25 70.25 -45.9 69.75 -46.15 69.6 -46.5 69.5 -46.75 69.35 -47.0 69.1 -47.5 68.85 -47.65 68.75 -47.75 68.75 -48.0 68.35 -48.25 68.25 -49.15 67.75 -51.0 66.35" fill="#2e47aa" fill-rule="evenodd" stroke="none"/>
  </g>
</svg>
