<?xml version="1.0" encoding="UTF-8" standalone="no"?>
<svg xmlns:ffdec="https://www.free-decompiler.com/flash" xmlns:xlink="http://www.w3.org/1999/xlink" ffdec:objectType="shape" height="163.5px" width="146.2px" xmlns="http://www.w3.org/2000/svg">
  <g transform="matrix(1.0, 0.0, 0.0, 1.0, 80.05, 40.55)">
    <path d="M-39.0 -14.9 Q-7.6 -42.15 11.85 -40.45 43.55 -29.15 62.0 4.85 73.85 35.4 51.85 57.85 L50.85 63.0 50.85 63.4 49.7 66.1 49.7 66.4 49.25 66.85 49.4 66.85 49.25 67.1 49.25 67.4 49.0 68.25 48.7 68.7 48.7 69.1 48.55 69.1 48.55 69.25 48.1 70.4 48.0 70.85 47.25 72.4 47.0 73.25 45.55 76.25 45.4 77.0 31.1 99.1 31.0 99.7 17.85 119.1 17.25 119.7 15.85 121.4 Q14.85 124.1 12.0 122.1 L13.0 118.0 13.0 117.85 13.1 117.55 13.1 117.0 19.4 100.4 24.0 90.0 24.1 89.25 25.1 87.85 25.7 85.85 26.4 84.4 23.0 86.55 6.4 90.55 5.25 90.4 -11.0 89.4 -12.6 88.7 -13.15 88.4 -15.9 87.25 -16.15 87.1 -16.6 87.0 -25.6 83.1 -26.0 83.0 -26.6 82.7 -35.9 73.7 -37.6 71.55 -37.9 71.4 -38.45 71.25 -41.45 70.0 -44.45 68.1 -44.9 68.0 -45.0 67.85 -45.3 67.7 -45.6 67.4 -46.0 67.1 -46.3 67.0 -46.75 67.0 -47.0 66.4 -47.45 66.1 -48.0 65.85 -50.15 64.4 -57.9 56.7 -59.45 54.0 -59.6 54.0 -63.6 59.55 -55.6 73.0 -53.9 75.4 -53.75 75.7 -48.9 83.7 -48.15 84.25 -31.9 113.7 -31.75 113.85 -31.75 114.0 -31.15 115.4 Q-29.75 124.1 -36.15 116.55 L-49.15 102.0 -65.0 82.55 -65.3 81.7 -67.15 79.85 -67.45 79.0 -68.15 78.55 -68.15 78.1 -71.9 73.85 -75.0 67.85 -77.9 65.85 Q-80.0 62.7 -79.45 61.1 L-79.3 60.7 -79.15 59.55 -79.15 59.1 -79.45 58.0 -79.45 57.7 -79.6 57.1 -79.75 57.0 Q-81.0 52.85 -76.75 51.55 L-70.0 37.55 -67.15 33.1 -64.3 27.4 Q-58.15 -0.6 -39.0 -14.9" fill="#2e47aa" fill-rule="evenodd" stroke="none"/>
  </g>
</svg>
