<?xml version="1.0" encoding="UTF-8" standalone="no"?>
<svg xmlns:ffdec="https://www.free-decompiler.com/flash" xmlns:xlink="http://www.w3.org/1999/xlink" ffdec:objectType="shape" height="162.4px" width="150.85px" xmlns="http://www.w3.org/2000/svg">
  <g transform="matrix(1.0, 0.0, 0.0, 1.0, 85.3, 52.15)">
    <path d="M54.1 -12.3 Q71.85 20.25 62.1 40.7 L62.25 41.55 62.25 44.55 63.85 54.85 62.4 73.55 58.85 101.1 58.4 102.7 Q56.85 108.7 54.25 102.0 L54.0 101.0 51.55 81.25 Q52.1 80.7 51.55 76.55 L50.85 74.1 51.0 73.55 51.0 73.4 50.85 73.4 50.85 73.1 50.7 72.85 50.7 72.25 50.85 72.1 50.85 71.0 50.7 70.85 50.55 63.7 50.4 62.7 50.4 58.1 50.1 57.4 47.0 60.55 46.25 61.1 45.85 61.1 45.4 61.55 44.7 62.55 44.55 63.0 44.1 63.25 42.55 65.55 42.25 65.85 35.55 75.25 21.4 84.1 4.7 87.7 -11.6 86.25 -16.0 84.7 -16.6 84.4 -16.75 84.4 -28.15 79.25 -38.45 68.85 -38.6 68.55 -38.75 68.4 -40.75 67.7 -42.15 67.0 -42.75 66.85 -43.6 66.4 -43.75 66.1 -44.9 65.55 -45.15 65.25 -45.3 65.25 -46.15 64.55 -47.6 63.7 -49.3 62.4 Q-61.3 52.85 -63.6 43.0 L-63.75 42.85 -68.75 49.1 -68.15 49.7 -67.9 50.25 -67.6 50.55 -67.45 51.0 -66.3 52.7 -66.3 52.85 -65.9 53.4 -65.9 53.55 -64.9 55.1 -64.75 55.25 -64.45 55.85 -64.15 56.25 -64.0 56.4 -63.9 56.7 -53.6 73.25 -53.6 73.55 -52.9 74.55 -43.3 91.4 -42.6 92.4 -36.45 104.25 -36.15 105.0 -36.0 105.1 -34.6 108.85 -34.6 109.25 -35.9 110.25 -37.45 110.1 -47.6 99.55 -62.6 81.7 -62.45 81.4 -63.15 81.0 -76.3 64.1 -77.75 61.7 -78.3 61.4 -80.75 56.7 Q-85.3 53.85 -84.3 49.55 L-84.15 49.25 -84.3 49.1 -84.3 49.0 -84.6 46.85 Q-87.0 43.7 -81.45 41.4 L-73.45 27.0 -68.0 19.1 -68.0 18.55 -66.45 16.7 -66.45 16.1 -59.9 6.0 -59.75 5.7 Q-57.75 -6.75 -26.75 -35.15 -8.15 -53.9 9.1 -52.0 25.7 -48.9 54.1 -12.3" fill="#2e47aa" fill-rule="evenodd" stroke="none"/>
  </g>
</svg>
