<?xml version="1.0" encoding="UTF-8" standalone="no"?>
<svg xmlns:ffdec="https://www.free-decompiler.com/flash" xmlns:xlink="http://www.w3.org/1999/xlink" ffdec:objectType="shape" height="152.95px" width="159.65px" xmlns="http://www.w3.org/2000/svg">
  <g transform="matrix(1.0, 0.0, 0.0, 1.0, 82.85, 63.5)">
    <path d="M55.5 -11.85 L55.65 -11.5 66.3 9.0 73.3 27.3 75.3 36.15 76.3 49.65 76.8 73.8 76.65 74.5 76.65 75.0 75.8 78.15 Q74.0 79.3 72.8 76.15 L72.65 75.8 72.0 75.0 69.0 65.8 63.65 44.8 63.65 44.65 63.15 42.5 63.0 42.15 62.8 41.5 62.8 40.65 62.5 40.0 62.3 39.15 62.0 38.8 59.5 45.3 Q52.3 56.0 47.8 58.5 L46.3 59.5 45.8 60.0 44.8 60.65 44.5 60.8 43.8 61.3 43.3 61.5 43.15 61.8 42.15 63.3 41.65 63.8 41.5 64.15 41.0 64.8 40.65 65.15 33.5 74.0 20.0 81.65 4.3 84.65 -14.85 82.8 -22.85 79.0 -23.0 79.0 -29.7 75.8 -29.85 75.8 -38.5 66.65 -40.0 65.5 -40.7 65.15 -41.7 64.8 -42.0 64.65 -42.2 64.65 -43.5 63.8 -44.35 63.5 -44.5 63.3 -44.7 63.3 -45.35 62.65 -48.35 60.65 Q-62.5 52.5 -65.35 30.15 L-65.5 30.15 -69.0 33.65 -65.35 54.15 -61.7 84.8 Q-61.2 93.5 -66.2 86.0 L-70.2 76.15 -79.7 46.8 -79.85 46.65 -81.35 41.8 -81.85 37.0 -82.85 34.15 -82.5 29.5 -82.35 29.0 -82.35 28.3 -82.7 28.15 -82.0 25.8 -81.85 25.5 -81.35 22.65 -80.2 21.15 -78.85 20.65 -73.0 11.15 -58.35 -9.2 -48.0 -21.0 Q-17.7 -62.85 3.3 -63.5 23.5 -61.0 55.5 -12.0 L55.5 -11.85" fill="#2e47aa" fill-rule="evenodd" stroke="none"/>
  </g>
</svg>
