<?xml version="1.0" encoding="UTF-8" standalone="no"?>
<svg xmlns:ffdec="https://www.free-decompiler.com/flash" xmlns:xlink="http://www.w3.org/1999/xlink" ffdec:objectType="shape" height="148.95px" width="166.4px" xmlns="http://www.w3.org/2000/svg">
  <g transform="matrix(1.0, 0.0, 0.0, 1.0, 84.65, 48.0)">
    <path d="M-11.4 -35.15 L-13.75 -38.65 Q-14.75 -42.65 -14.15 -43.15 L-14.25 -43.5 -13.5 -44.4 -12.65 -45.15 -11.25 -45.9 -8.4 -46.9 -6.5 -47.15 -0.9 -47.25 -0.5 -47.15 -0.4 -47.0 0.35 -46.75 0.85 -46.75 1.35 -47.0 1.75 -47.0 2.25 -47.25 2.85 -47.4 8.35 -48.0 11.5 -47.65 12.85 -47.25 14.0 -46.75 14.85 -46.15 15.35 -45.4 15.35 -40.75 13.5 -36.9 Q12.5 -32.75 1.25 -35.5 -10.15 -31.75 -11.4 -35.15 M19.6 -11.25 L24.0 -1.15 26.25 6.35 32.85 19.75 Q43.35 29.1 45.85 39.35 L46.1 48.6 45.35 49.75 43.5 54.85 42.0 57.1 41.75 57.35 41.35 57.85 41.1 58.1 40.85 58.6 39.0 61.1 38.75 61.35 38.5 61.75 35.35 65.85 21.85 73.85 7.75 78.6 3.5 78.75 -2.65 78.6 -8.9 78.25 -19.75 74.6 -20.0 74.6 -22.15 73.85 -28.9 70.0 -34.15 65.35 -38.15 61.75 -39.15 60.0 -41.0 55.5 Q-42.75 53.25 -40.5 47.35 L-36.65 43.5 -36.4 42.5 -31.9 34.75 -28.9 27.6 -26.65 23.35 -22.0 10.35 -20.15 2.6 -16.65 -6.0 -15.9 -8.5 -15.15 -9.65 -14.9 -9.5 -12.65 -5.75 -11.4 -4.4 -8.15 -1.65 -5.65 -0.25 -0.5 1.25 4.25 1.1 Q15.85 -0.65 18.5 -8.5 L18.5 -8.65 19.1 -10.15 19.25 -10.25 19.25 -10.5 19.35 -10.9 19.6 -11.25 M4.5 -39.5 L4.75 -37.75 5.5 -36.5 7.35 -36.25 Q12.75 -38.4 8.0 -41.5 L5.6 -40.75 4.5 -39.5 M-5.9 -40.65 Q-10.15 -36.25 -4.0 -35.65 1.1 -40.75 -5.9 -40.65" fill="#ffffff" fill-rule="evenodd" stroke="none"/>
    <path d="M4.5 -39.5 L5.6 -40.75 8.0 -41.5 Q12.75 -38.4 7.35 -36.25 L5.5 -36.5 4.75 -37.75 4.5 -39.5 M-5.9 -40.65 Q1.1 -40.75 -4.0 -35.65 -10.15 -36.25 -5.9 -40.65" fill="#1f001f" fill-rule="evenodd" stroke="none"/>
    <path d="M13.5 -36.9 Q19.1 -34.25 20.75 -26.25 L21.0 -23.9 20.6 -16.15 20.0 -12.9 19.75 -12.0 19.6 -11.75 19.6 -11.25 19.35 -10.9 19.25 -10.5 19.25 -10.25 19.1 -10.15 18.5 -8.65 18.5 -8.5 Q15.85 -0.65 4.25 1.1 L-0.5 1.25 -5.65 -0.25 -8.15 -1.65 -11.4 -4.4 -12.65 -5.75 -14.9 -9.5 -15.15 -9.65 -15.5 -11.15 -15.5 -11.25 -16.15 -12.4 -16.25 -12.75 -16.4 -13.0 -16.5 -13.4 -16.5 -13.5 -17.0 -14.75 -18.0 -18.65 Q-19.0 -23.25 -18.5 -23.75 -19.9 -27.4 -11.4 -35.15 -10.15 -31.75 1.25 -35.5 12.5 -32.75 13.5 -36.9 M42.0 57.1 L42.35 57.0 43.1 56.5 44.1 56.0 45.6 54.6 Q52.6 64.0 55.0 76.75 55.25 96.25 27.35 100.25 15.0 101.85 8.1 96.25 5.1 95.1 3.5 78.75 L7.75 78.6 21.85 73.85 35.35 65.85 38.5 61.75 38.75 61.35 39.0 61.1 40.85 58.6 41.1 58.1 41.35 57.85 41.75 57.35 42.0 57.1 M-2.65 78.6 L-2.75 79.75 Q-4.15 93.85 -7.25 96.35 L-7.4 96.85 -10.25 98.5 Q-16.15 101.1 -26.5 100.1 -54.5 96.1 -54.0 76.5 L-52.65 70.0 -49.15 61.75 -47.4 59.0 -47.15 59.0 -46.0 59.75 -45.9 59.75 -43.65 61.1 -43.5 61.1 -43.4 61.25 -43.0 61.5 -42.9 61.5 -42.5 61.75 -42.25 61.85 -40.75 62.75 -39.75 63.1 -39.4 63.35 -38.15 64.0 -34.15 65.35 -28.9 70.0 -22.15 73.85 -20.0 74.6 -19.75 74.6 -8.9 78.25 -2.65 78.6" fill="#e58508" fill-rule="evenodd" stroke="none"/>
    <path d="M49.25 -3.9 L54.35 2.85 56.35 4.6 Q59.1 7.35 59.0 8.1 L60.6 9.5 66.75 17.6 67.1 17.85 67.85 17.5 70.75 20.0 Q64.6 19.5 65.0 22.85 L63.85 17.5 63.25 17.0 Q64.25 40.0 45.75 54.5 L50.0 61.6 50.1 62.0 48.1 62.25 47.75 64.35 39.35 75.75 22.6 85.6 Q7.5 88.1 6.75 90.85 6.35 98.75 27.75 98.0 46.35 94.6 51.85 86.75 L52.75 85.5 53.35 85.5 52.6 87.25 Q47.85 97.85 23.5 100.5 L16.35 100.1 Q11.6 99.25 8.75 97.1 5.0 95.25 3.6 78.75 L-1.65 78.6 Q-3.65 104.1 -20.75 100.5 L-26.15 100.25 -30.15 99.6 Q-43.9 97.25 -51.15 88.1 L-53.4 83.1 -53.65 82.1 -53.15 82.0 Q-51.5 92.6 -26.5 98.0 -5.0 98.35 -5.15 90.75 -6.4 88.25 -14.15 88.0 L-28.9 82.1 Q-44.9 66.1 -50.9 66.35 -49.9 62.85 -48.9 61.85 L-49.0 61.5 -47.4 59.1 -47.4 58.75 -48.75 58.1 -57.4 50.1 -62.25 41.75 Q-67.4 27.25 -65.5 18.1 L-65.9 18.1 -70.75 23.5 -70.5 26.5 -71.25 26.0 -76.0 26.0 -70.9 20.85 -69.25 20.35 -53.25 2.75 -53.4 2.5 -49.65 -1.25 -49.75 -1.5 -45.65 -6.25 -45.5 -6.65 -45.0 -6.15 -45.4 -6.0 Q-46.25 -3.0 -48.15 -0.65 L-49.25 2.35 -49.65 2.5 -49.5 2.85 -49.9 3.0 -49.75 3.35 -50.15 3.5 -50.0 3.85 -54.0 11.35 -53.9 11.85 -54.25 12.0 -54.15 12.35 -54.5 12.5 -54.4 12.85 -57.5 19.35 -60.9 28.5 Q-61.5 28.85 -60.15 32.1 L-55.4 41.6 -52.0 45.0 -46.4 49.6 -41.65 52.0 -41.25 51.85 -40.9 50.5 -40.4 50.5 -31.0 63.1 -14.65 70.75 -4.4 72.25 3.0 72.85 Q27.1 69.6 33.25 60.35 L37.6 56.75 38.5 54.85 39.1 54.35 39.0 54.0 41.5 50.35 41.35 50.0 42.1 49.25 42.25 48.5 44.1 45.85 44.0 45.5 Q45.6 43.75 45.75 42.5 L45.85 42.0 46.85 41.85 48.5 40.35 53.75 33.35 54.75 31.5 55.25 31.25 58.1 24.75 59.25 20.75 57.35 15.25 53.85 7.6 54.0 7.25 48.0 -5.0 49.25 -3.9 M81.0 63.1 L80.85 57.25 79.0 34.5 79.6 34.5 81.5 63.35 81.0 63.1 M81.75 68.75 L81.35 68.6 81.1 65.0 81.6 65.0 81.75 68.75 M74.6 13.0 L75.1 13.0 75.35 13.75 75.1 13.85 74.6 13.0 M81.5 69.5 L81.35 72.85 80.85 73.6 79.75 74.0 79.1 73.85 78.75 72.85 78.1 72.6 78.35 72.35 77.6 71.1 78.35 71.0 79.5 71.75 80.6 71.5 80.6 70.35 81.35 70.25 81.5 69.5 M71.1 19.5 L70.85 19.1 71.6 19.0 72.0 19.5 71.1 19.5 M78.35 23.25 L78.0 23.1 77.5 20.35 77.1 20.0 77.75 20.0 78.35 23.25 M66.85 27.85 L67.85 32.1 68.5 33.25 71.0 46.0 77.35 70.1 77.0 70.1 73.0 57.1 73.0 56.1 69.1 42.1 65.75 26.5 66.5 26.6 66.5 27.6 66.85 27.85 M65.85 25.85 L65.25 24.5 65.85 24.75 65.85 25.85 M54.75 81.85 L53.6 85.0 Q52.75 84.25 54.75 81.85 M5.25 22.75 Q-13.25 27.0 -18.25 -18.5 -13.75 -0.25 3.1 1.25 20.25 -1.15 21.35 -20.0 22.6 20.35 5.25 22.75 M-45.0 -6.75 L-45.25 -7.0 -44.9 -7.0 -45.0 -6.75 M-18.0 -18.75 L-18.25 -19.0 -17.9 -19.0 -18.0 -18.75 M-77.65 25.5 L-76.0 25.0 -76.9 25.75 -77.65 25.5 M-76.15 67.0 L-73.75 79.0 Q-71.9 82.85 -70.15 80.6 L-69.9 80.35 -70.15 82.75 -71.25 83.6 Q-73.75 83.5 -74.4 79.6 L-79.15 59.6 -84.25 31.6 Q-85.25 21.0 -83.75 20.0 L-84.4 19.5 -83.25 19.5 Q-83.5 23.5 -80.75 25.75 -80.75 28.1 -82.9 27.5 L-82.75 33.6 -82.4 34.25 -82.4 35.6 Q-81.4 43.6 -79.75 44.1 L-77.9 54.25 -76.15 67.0 M-69.75 80.25 L-70.0 80.1 -69.9 79.85 -69.75 80.25" fill="#000000" fill-opacity="0.49803922" fill-rule="evenodd" stroke="none"/>
  </g>
</svg>
