<?xml version="1.0" encoding="UTF-8" standalone="no"?>
<svg xmlns:ffdec="https://www.free-decompiler.com/flash" xmlns:xlink="http://www.w3.org/1999/xlink" ffdec:objectType="shape" height="161.3px" width="160.7px" xmlns="http://www.w3.org/2000/svg">
  <g transform="matrix(1.0, 0.0, 0.0, 1.0, 83.6, 60.15)">
    <path d="M6.25 -53.15 L5.0 -51.6 6.0 -48.6 8.0 -48.45 Q13.0 -51.0 8.7 -53.75 L7.4 -53.75 6.25 -53.15 M-10.75 -45.45 L-13.6 -49.6 -14.0 -53.45 -13.75 -54.0 -13.15 -55.0 -10.9 -56.9 -8.0 -58.15 -4.3 -58.9 -0.75 -59.0 -0.45 -58.9 -0.3 -58.75 1.1 -58.45 1.55 -58.9 2.0 -59.0 3.1 -59.45 4.7 -59.75 10.1 -60.15 11.55 -59.9 12.7 -59.45 13.7 -58.9 15.0 -57.3 15.1 -52.6 Q14.55 -49.0 13.4 -48.45 11.85 -45.0 2.0 -47.3 L-4.6 -44.75 Q-10.3 -44.0 -10.75 -45.45 M20.25 -21.45 L21.4 -19.3 25.55 -9.75 27.25 -3.45 34.0 10.25 Q44.4 20.4 46.85 31.55 50.0 41.4 42.25 53.1 L37.55 60.0 37.0 60.25 22.0 70.25 10.1 75.0 3.25 75.25 -2.45 75.55 -6.3 75.4 -19.15 72.1 -27.6 66.7 -27.75 66.7 -36.0 60.55 -38.9 54.0 -39.75 51.1 Q-37.9 48.25 -38.3 44.85 L-34.45 40.25 -34.15 39.0 -30.6 32.4 -29.3 28.4 -25.0 18.55 -20.75 5.25 -18.45 -5.45 -15.15 -14.75 -14.45 -17.6 -13.15 -20.3 Q-4.0 -8.75 6.0 -11.15 L7.1 -11.3 Q13.55 -10.15 20.0 -20.45 L20.0 -20.6 20.25 -21.3 20.25 -21.45 M-5.15 -52.3 Q-9.15 -47.6 -3.6 -47.15 2.0 -52.75 -5.15 -52.3" fill="#ffffff" fill-rule="evenodd" stroke="none"/>
    <path d="M-10.75 -45.45 Q-10.3 -44.0 -4.6 -44.75 L2.0 -47.3 Q11.85 -45.0 13.4 -48.45 17.55 -46.45 20.0 -40.75 L21.0 -37.6 21.7 -26.6 20.85 -23.15 20.25 -21.45 20.25 -21.3 20.0 -20.6 20.0 -20.45 Q13.55 -10.15 7.1 -11.3 L6.0 -11.15 Q-4.0 -8.75 -13.15 -20.3 L-15.3 -24.15 -15.45 -25.15 -15.45 -25.3 -15.6 -25.45 -16.45 -27.75 -16.45 -27.9 -16.6 -28.15 -17.3 -30.0 -17.6 -33.15 Q-16.75 -41.0 -10.75 -45.45 M42.25 53.1 L43.7 52.0 Q51.0 59.85 54.7 75.55 L54.7 75.85 54.85 76.55 Q56.55 95.55 27.4 100.25 15.0 101.85 8.1 96.25 4.7 94.7 3.25 75.25 L10.1 75.0 22.0 70.25 37.0 60.25 37.55 60.0 42.25 53.1 M-2.45 75.55 L-3.75 87.85 Q-5.15 93.85 -6.9 95.85 L-7.15 96.1 -8.0 97.1 -8.45 97.4 -8.75 97.55 -9.15 97.85 -9.45 98.0 Q-12.15 100.85 -26.45 100.1 -49.3 98.4 -53.9 80.0 L-52.0 82.0 -51.75 83.0 -50.3 84.4 -49.75 85.85 -46.75 89.85 -46.0 90.55 -45.75 90.85 Q-37.9 99.1 -41.15 88.4 L-41.15 88.25 -45.6 75.7 -45.9 75.25 -46.0 74.7 -46.45 73.85 -46.6 73.4 -46.75 73.1 -47.15 71.85 -47.9 70.25 -48.0 69.7 -48.15 69.4 -48.15 69.25 -48.45 68.7 -50.15 64.4 -50.45 64.1 -50.0 64.0 -49.0 61.4 -47.45 59.1 -47.3 59.1 -46.0 60.0 -45.9 60.0 -45.15 60.55 -45.0 60.55 -44.45 61.0 -44.3 61.0 -40.6 62.55 -39.9 63.0 -38.6 63.4 -37.9 63.85 -27.75 66.7 -27.6 66.7 -19.15 72.1 -6.3 75.4 -2.45 75.55" fill="#e58508" fill-rule="evenodd" stroke="none"/>
    <path d="M6.25 -53.15 L7.4 -53.75 8.7 -53.75 Q13.0 -51.0 8.0 -48.45 L6.0 -48.6 5.0 -51.6 6.25 -53.15 M-5.15 -52.3 Q2.0 -52.75 -3.6 -47.15 -9.15 -47.6 -5.15 -52.3" fill="#1f001f" fill-rule="evenodd" stroke="none"/>
    <path d="M21.85 -26.75 Q24.0 3.55 7.7 5.85 -11.0 8.4 -17.15 -29.15 -10.45 -12.45 3.7 -10.9 16.85 -9.9 21.85 -26.75 M44.0 -11.45 L44.4 -11.6 55.1 5.4 55.7 7.0 58.7 9.7 64.0 17.85 64.25 18.55 60.1 18.7 61.1 23.85 60.7 24.0 59.0 31.55 57.25 35.55 51.7 44.25 43.85 51.85 48.55 59.4 48.0 59.4 47.1 60.4 41.55 69.7 26.4 80.85 7.55 86.4 5.25 87.85 Q6.4 100.1 27.55 98.0 48.4 93.45 53.35 85.65 L52.85 86.85 Q46.85 98.85 22.4 100.55 3.25 105.1 3.4 75.25 L-2.3 75.55 -2.6 81.0 -3.9 88.55 -5.3 86.85 Q-6.3 86.0 -9.6 86.1 L-25.15 81.25 -38.75 70.55 -43.75 69.1 -49.3 66.25 -50.15 64.1 Q-49.0 60.85 -47.3 59.1 L-54.45 53.7 -62.3 35.0 -65.9 27.55 -65.9 26.7 -66.3 26.7 -66.0 24.1 -66.3 24.0 -67.0 25.0 -66.75 25.7 -69.3 25.85 Q-65.45 22.1 -66.3 21.0 L-65.3 20.85 -63.6 18.0 -58.45 11.85 -44.6 -9.0 -40.9 -15.9 -40.45 -15.9 -41.15 -13.45 -44.0 -7.0 -45.9 -1.45 -50.75 9.4 -51.15 11.4 -54.3 19.1 -60.0 36.55 -59.9 37.4 -53.0 46.85 -48.3 50.4 -43.9 53.1 -39.0 55.0 -38.6 54.85 -39.6 51.1 Q-37.75 49.7 -34.75 55.25 L-27.6 62.0 -10.75 68.85 -3.0 69.4 6.7 69.4 Q28.7 64.7 37.0 54.25 L40.0 51.25 46.25 37.55 46.7 35.85 Q47.25 38.85 49.0 37.1 L54.1 30.0 55.7 27.0 56.85 23.4 55.4 17.85 51.7 7.1 44.25 -11.15 44.0 -11.45 M75.85 27.25 L75.85 30.0 75.25 27.0 75.85 27.25 M62.55 33.1 L62.1 33.1 62.1 32.55 62.55 32.55 62.55 33.1 M62.7 33.85 L62.7 34.25 62.25 33.85 62.7 33.85 M62.4 34.7 L62.85 34.7 62.85 35.1 62.4 34.7 M63.0 35.55 L63.0 36.0 62.55 35.55 63.0 35.55 M63.1 36.4 L63.1 37.0 62.7 37.0 62.7 36.4 63.1 36.4 M63.4 39.0 L63.0 38.55 63.4 38.55 63.4 39.0 M63.55 39.85 L63.1 39.4 63.55 39.4 63.55 39.85 M63.55 42.4 L64.0 42.4 64.0 42.85 63.55 42.4 M65.25 49.1 L65.4 50.4 65.0 50.4 64.55 48.85 65.25 49.1 M76.1 41.1 L76.55 41.1 76.55 41.85 76.1 41.7 76.1 41.1 M76.85 49.1 L76.4 49.0 76.4 47.55 76.85 47.55 76.85 49.1 M76.25 44.55 L76.7 44.55 76.7 45.7 76.25 45.55 76.25 44.55 M77.0 51.85 L77.0 53.0 76.55 52.85 76.55 51.85 77.0 51.85 M66.0 54.4 L65.55 54.0 66.0 54.0 66.0 54.4 M65.25 52.7 L65.7 52.7 65.85 53.7 65.4 53.7 65.25 52.7 M65.55 52.25 L65.1 51.85 65.55 51.85 65.55 52.25 M65.85 55.85 L65.7 54.85 66.1 54.85 66.25 55.85 65.85 55.85 M66.55 57.0 L66.7 58.0 66.25 58.0 66.1 57.0 66.55 57.0 M66.4 56.1 L66.4 56.55 66.0 56.1 66.4 56.1 M66.4 58.25 L66.85 58.25 66.85 58.7 66.4 58.25 M67.0 59.1 L67.1 60.1 66.7 60.1 66.55 59.1 67.0 59.1 M66.85 60.4 L67.25 60.4 67.25 61.0 66.85 61.0 66.85 60.4 M67.4 61.7 L67.0 61.25 67.4 61.25 67.4 61.7 M67.85 63.4 L67.85 63.85 67.4 63.4 67.85 63.4 M67.55 62.1 L67.55 62.55 67.1 62.1 67.55 62.1 M67.55 64.25 L68.0 64.25 68.0 64.7 67.55 64.25 M68.1 67.4 L68.0 66.4 68.4 66.4 68.55 67.4 68.1 67.4 M68.7 67.7 L68.7 68.25 68.25 68.25 68.25 67.7 68.7 67.7 M69.0 69.4 L69.1 70.4 68.7 70.4 68.55 69.4 69.0 69.4 M68.85 68.55 L68.85 69.0 68.4 68.55 68.85 68.55 M69.25 71.1 L68.85 70.7 69.25 70.7 69.25 71.1 M69.55 72.4 L69.1 72.0 69.55 72.0 69.55 72.4 M69.4 73.25 L69.85 73.25 69.85 73.7 69.4 73.25 M77.1 87.25 L76.85 89.85 75.4 90.4 74.0 90.1 72.7 86.1 Q75.1 93.0 77.1 87.25 M-35.75 60.4 L-36.0 60.0 -36.45 60.1 -35.75 60.4 M-77.3 34.7 L-77.3 35.4 -78.3 35.55 -78.15 36.1 -74.0 43.7 Q-76.75 37.55 -75.45 36.7 L-73.0 43.55 -67.6 52.55 -66.6 55.0 -55.45 74.0 -55.15 75.1 -47.3 87.55 -43.75 92.25 Q-32.0 98.4 -20.45 98.1 -7.6 98.7 -4.0 89.55 -3.45 99.0 -19.0 100.4 -34.75 101.55 -48.75 91.0 L-51.45 87.55 -53.6 82.25 Q-48.9 90.25 -45.9 90.7 L-48.15 88.0 -58.15 73.4 -61.75 67.4 -65.45 62.25 -75.75 44.4 -76.15 44.25 -76.75 42.7 -77.15 42.55 -79.6 37.85 -79.9 36.1 -83.45 26.7 -83.6 23.25 Q-83.4 26.35 -81.6 25.4 L-81.75 28.4 -80.45 30.1 -77.6 32.1 -75.75 31.1 -75.15 31.25 -75.6 32.4 -76.75 33.25 -76.45 34.7 -77.3 34.7 M-83.0 20.7 L-81.3 20.1 -81.3 21.0 -82.75 21.25 -83.15 21.25 -83.0 20.7" fill="#000000" fill-opacity="0.49803922" fill-rule="evenodd" stroke="none"/>
  </g>
</svg>
