<?xml version="1.0" encoding="UTF-8" standalone="no"?>
<svg xmlns:ffdec="https://www.free-decompiler.com/flash" xmlns:xlink="http://www.w3.org/1999/xlink" ffdec:objectType="shape" height="171.75px" width="153.5px" xmlns="http://www.w3.org/2000/svg">
  <g transform="matrix(1.0, 0.0, 0.0, 1.0, 79.75, 71.15)">
    <path d="M-11.15 -55.0 Q-12.75 -56.15 -14.0 -58.9 L-14.65 -62.9 -14.4 -63.5 -13.75 -64.65 -12.9 -65.75 -11.5 -66.9 -10.15 -67.75 -8.5 -68.5 -5.15 -69.4 -1.4 -69.5 -1.4 -69.4 -1.15 -69.25 -0.4 -69.25 0.1 -69.15 0.5 -69.5 1.6 -69.9 2.0 -70.15 3.6 -70.65 5.5 -71.0 8.75 -71.15 9.85 -70.9 11.25 -70.4 12.25 -69.75 12.85 -69.0 13.35 -68.0 13.5 -67.15 Q14.6 -63.75 12.25 -59.0 11.35 -56.4 1.6 -58.0 L-4.9 -55.15 -11.15 -55.0 M20.25 -31.15 L25.25 -20.15 27.35 -13.0 34.1 1.0 Q44.5 11.35 47.25 25.0 51.1 32.75 42.5 48.85 L42.0 49.75 41.1 51.25 40.6 51.85 39.6 53.75 39.25 54.0 39.0 54.25 38.6 54.5 35.85 56.6 35.1 57.35 24.25 65.75 13.25 70.75 3.0 72.0 -2.25 72.5 -11.0 70.85 -11.15 70.85 -11.5 70.5 -36.0 41.75 -32.15 36.1 -32.0 35.1 -27.9 25.75 -23.25 12.25 -19.9 0.5 -17.25 -13.5 -14.4 -23.0 -13.9 -25.9 Q-13.25 -26.25 -12.25 -30.5 L-10.9 -29.0 Q-3.75 -21.0 7.6 -22.75 L8.25 -23.0 8.75 -23.0 Q15.5 -23.0 20.25 -31.15 M9.5 -64.15 L8.85 -64.25 8.25 -65.0 6.6 -64.9 6.1 -64.5 Q2.35 -60.25 7.5 -59.65 11.0 -61.15 9.5 -64.15 M-5.65 -62.75 Q-8.75 -57.5 -3.5 -57.9 1.25 -63.75 -5.65 -62.75" fill="#ffffff" fill-rule="evenodd" stroke="none"/>
    <path d="M12.25 -59.0 Q13.5 -59.25 18.0 -53.4 L20.1 -48.15 Q22.25 -43.5 21.25 -34.65 L20.85 -33.0 20.6 -32.4 20.6 -32.25 20.25 -31.15 Q15.5 -23.0 8.75 -23.0 L8.25 -23.0 7.6 -22.75 Q-3.75 -21.0 -10.9 -29.0 L-12.25 -30.5 -16.0 -36.4 -17.0 -39.15 -17.4 -41.9 Q-17.0 -49.9 -11.15 -55.0 L-4.9 -55.15 1.6 -58.0 Q11.35 -56.4 12.25 -59.0 M42.0 49.75 Q51.6 60.25 54.75 75.75 L54.85 76.25 Q56.85 95.5 27.35 100.25 15.0 101.85 8.1 96.25 3.6 91.25 3.0 72.0 L13.25 70.75 24.25 65.75 35.1 57.35 35.85 56.6 38.6 54.5 39.0 54.25 39.25 54.0 39.6 53.75 40.6 51.85 41.1 51.25 42.0 49.75 M-2.25 72.5 L-2.75 79.75 Q-4.15 93.85 -7.25 96.35 L-7.4 96.85 -10.25 98.5 Q-16.15 101.1 -26.5 100.1 -54.5 96.1 -54.0 76.5 L-52.65 70.0 -49.5 62.6 -47.5 59.25 -45.15 60.6 -45.0 60.6 -43.75 61.35 -43.25 61.75 -43.15 61.75 -39.9 62.85 -39.65 63.0 -39.15 63.1 -34.25 64.75 -17.0 74.85 -16.9 74.85 -16.65 75.0 -10.25 78.0 Q-7.15 76.6 -8.15 75.35 L-10.9 71.35 -11.15 70.85 -11.0 70.85 -2.25 72.5" fill="#e58508" fill-rule="evenodd" stroke="none"/>
    <path d="M9.5 -64.15 Q11.0 -61.15 7.5 -59.65 2.35 -60.25 6.1 -64.5 L6.6 -64.9 8.25 -65.0 8.85 -64.25 9.5 -64.15 M-5.65 -62.75 Q1.25 -63.75 -3.5 -57.9 -8.75 -57.5 -5.65 -62.75" fill="#1f001f" fill-rule="evenodd" stroke="none"/>
    <path d="M39.75 -21.0 L58.25 7.85 58.35 8.6 60.35 10.35 59.35 10.85 59.5 11.35 58.75 11.5 59.5 17.6 59.0 18.6 58.0 25.25 56.5 29.85 51.25 39.6 45.35 46.35 42.1 49.25 42.1 49.75 44.5 52.75 47.1 57.0 Q43.6 66.1 29.5 75.75 L13.35 81.85 6.5 82.85 5.35 83.5 4.85 84.5 4.25 84.5 3.75 82.1 3.25 72.1 -2.15 72.5 -2.5 79.6 -3.25 85.25 Q-3.4 84.0 -7.65 83.0 L-22.65 79.6 Q-34.65 68.6 -50.75 66.0 L-49.4 62.35 -47.4 59.1 -52.9 55.6 Q-61.15 44.0 -68.9 39.6 L-70.15 38.6 -77.9 29.25 -79.75 24.1 -79.0 24.25 -78.0 26.85 -77.65 26.75 -78.15 25.6 -77.5 25.5 -77.65 25.0 Q-72.15 24.35 -69.15 27.5 L-67.0 25.6 Q-69.75 33.6 -73.65 31.0 L-69.65 35.6 -65.15 39.75 -57.15 46.1 -28.75 66.25 -16.75 74.1 -10.5 77.1 -9.0 77.5 Q-6.4 74.1 -16.65 64.0 -10.15 69.25 11.75 65.85 L28.5 58.25 41.75 45.5 Q43.1 42.85 42.75 42.5 L43.1 42.35 43.1 41.5 43.6 40.85 43.6 40.0 44.1 39.35 44.1 38.5 44.6 37.85 44.6 37.0 45.0 36.85 45.0 36.0 45.5 35.35 45.5 34.5 47.25 29.6 47.5 28.5 48.0 28.6 48.1 33.0 48.25 34.0 48.6 34.25 50.75 31.35 50.6 31.0 51.0 30.85 50.85 30.5 52.35 28.35 52.25 28.0 52.6 27.85 52.5 27.5 52.85 27.35 Q52.5 26.6 55.25 22.75 L54.75 19.85 49.75 4.75 43.85 -10.75 42.75 -12.9 42.85 -13.25 40.75 -17.9 40.85 -18.25 39.5 -20.9 39.75 -21.0 M21.85 -35.5 Q25.25 -13.15 9.1 -8.9 -8.0 -5.15 -16.75 -38.0 -5.4 -21.65 3.35 -22.5 18.85 -22.25 21.85 -35.5 M60.85 27.35 L60.5 27.0 60.85 27.0 60.85 27.35 M60.75 29.1 L60.75 28.5 61.1 28.5 61.1 29.1 60.75 29.1 M61.35 29.6 L61.5 31.0 61.0 30.6 60.85 29.5 61.35 29.6 M62.0 34.0 L61.6 33.85 61.5 33.5 61.85 33.35 62.0 34.0 M61.35 33.1 L61.25 31.5 61.75 31.6 61.75 33.1 61.35 33.1 M62.25 35.1 L62.5 37.5 62.0 37.1 61.75 35.0 62.25 35.1 M62.75 38.1 L62.85 40.35 62.5 40.1 62.25 38.0 62.75 38.1 M63.6 45.0 L63.6 45.35 63.25 45.0 63.6 45.0 M63.5 46.5 L63.85 46.5 63.85 46.85 63.5 46.5 M4.85 86.5 L4.85 87.1 4.5 87.1 4.5 86.5 4.85 86.5 M4.75 86.35 L4.35 86.0 4.75 86.0 4.75 86.35 M25.6 98.1 Q46.75 95.1 53.35 85.5 50.75 97.0 23.5 100.5 4.85 101.1 4.6 87.5 7.85 100.1 25.6 98.1 M54.75 81.85 L53.6 85.0 Q52.75 84.25 54.75 81.85 M73.1 87.0 L73.1 87.35 72.75 87.0 73.1 87.0 M73.75 89.0 L73.25 88.5 73.6 88.5 73.75 89.0 M-41.65 -17.5 Q-39.75 -20.5 -40.0 -21.0 L-39.65 -21.15 -39.75 -21.65 -39.0 -22.65 -38.9 -23.5 -38.5 -23.65 -38.4 -24.5 -37.9 -24.65 -40.15 -16.65 -40.75 -15.5 -41.9 -11.15 -42.75 -9.5 -42.75 -8.65 -43.65 -7.0 -43.65 -6.15 -44.15 -5.5 -44.65 -3.15 -45.5 -1.5 -46.5 2.35 -47.9 5.5 -47.9 6.35 -49.5 10.5 -49.4 11.0 -53.4 23.1 -60.0 17.25 -60.0 16.5 -59.65 16.35 -59.75 16.0 -58.25 13.85 Q-58.65 13.25 -56.75 10.5 L-56.4 10.35 -56.5 10.0 -54.75 7.35 Q-55.15 6.85 -53.5 4.35 L-52.9 3.85 -53.0 3.5 -52.65 3.35 -52.75 3.0 -52.4 2.85 -52.5 2.5 -52.15 2.35 -51.9 1.35 Q-51.25 1.25 -49.75 -2.5 L-49.4 -2.65 -49.5 -3.0 Q-48.9 -3.15 -47.9 -6.0 L-47.5 -6.15 -47.65 -6.5 Q-45.65 -9.0 -46.0 -9.5 L-44.5 -11.65 -44.65 -12.0 Q-44.0 -12.25 -42.4 -16.15 L-41.5 -17.15 -41.65 -17.5 M-37.75 -25.0 L-37.9 -24.75 -38.15 -25.0 -37.75 -25.0 M-64.9 36.1 L-62.4 39.6 -64.4 38.1 -69.5 32.0 Q-68.65 31.85 -64.9 36.1 M-3.75 87.85 L-4.0 87.5 -3.65 87.5 -3.75 87.85 M-22.75 98.0 Q-7.9 99.25 -4.0 89.5 -2.75 98.75 -20.0 100.5 -51.4 101.1 -53.9 75.5 -29.0 88.6 -22.75 98.0" fill="#000000" fill-opacity="0.49803922" fill-rule="evenodd" stroke="none"/>
  </g>
</svg>
