<?xml version="1.0" encoding="UTF-8" standalone="no"?>
<svg xmlns:ffdec="https://www.free-decompiler.com/flash" xmlns:xlink="http://www.w3.org/1999/xlink" ffdec:objectType="shape" height="169.05px" width="141.7px" xmlns="http://www.w3.org/2000/svg">
  <g transform="matrix(1.0, 0.0, 0.0, 1.0, 67.75, 68.45)">
    <path d="M-9.5 -51.9 Q-13.25 -54.9 -13.0 -59.65 L-13.0 -60.15 -12.15 -61.4 -10.0 -63.5 -8.65 -64.4 -5.25 -65.75 -3.4 -66.25 -1.5 -66.5 0.1 -66.5 1.75 -66.15 2.35 -66.65 3.6 -67.25 7.0 -68.25 8.5 -68.4 11.35 -68.25 12.6 -67.9 13.6 -67.25 14.6 -65.65 14.85 -64.9 Q15.25 -57.4 13.75 -56.65 13.5 -54.9 10.1 -54.65 L3.35 -55.0 Q-6.5 -49.65 -9.5 -51.9 M22.35 -27.9 L22.75 -27.5 26.85 -18.5 29.0 -11.65 34.6 -0.15 38.1 5.75 43.75 12.25 46.35 18.35 48.0 23.85 Q51.25 33.6 44.85 45.75 L42.5 50.35 41.35 53.1 39.35 54.75 39.0 55.1 38.6 55.35 34.85 58.5 34.25 59.1 27.35 64.75 15.0 71.25 3.25 73.1 0.85 73.5 -2.15 73.1 -2.25 73.1 -14.0 71.5 -19.4 68.75 -19.65 68.6 -23.9 66.5 -32.15 61.25 -35.65 52.5 Q-33.75 47.75 -34.0 45.35 L-29.4 48.0 -5.4 57.85 9.35 62.85 9.5 62.85 16.35 64.75 17.1 64.0 18.75 61.85 14.6 56.85 -0.9 40.5 -22.75 19.6 -20.75 14.5 -16.65 -1.4 -15.25 -10.15 -12.4 -20.0 -11.9 -22.9 -10.15 -27.75 -9.4 -26.75 Q0.35 -17.0 10.75 -20.0 L11.85 -20.15 Q19.1 -21.0 22.35 -27.9 M10.0 -62.25 Q2.85 -60.0 9.1 -56.75 13.85 -60.0 10.0 -62.25 M0.5 -56.9 L0.35 -58.9 -1.0 -59.75 -3.0 -59.9 -3.9 -59.5 -5.0 -58.25 -4.9 -55.65 -3.25 -54.65 -1.9 -54.65 -0.25 -55.25 0.5 -56.9" fill="#ffffff" fill-rule="evenodd" stroke="none"/>
    <path d="M0.5 -56.9 L-0.25 -55.25 -1.9 -54.65 -3.25 -54.65 -4.9 -55.65 -5.0 -58.25 -3.9 -59.5 -3.0 -59.9 -1.0 -59.75 0.35 -58.9 0.5 -56.9 M10.0 -62.25 Q13.85 -60.0 9.1 -56.75 2.85 -60.0 10.0 -62.25" fill="#1f001f" fill-rule="evenodd" stroke="none"/>
    <path d="M13.75 -56.65 Q18.0 -54.9 21.6 -46.25 L21.75 -45.9 23.5 -39.9 23.85 -33.5 23.5 -32.65 23.1 -30.0 23.0 -29.9 22.35 -27.9 Q19.1 -21.0 11.85 -20.15 L10.75 -20.0 Q0.35 -17.0 -9.4 -26.75 L-10.15 -27.75 -14.25 -33.4 -15.4 -35.75 -15.15 -35.9 -15.65 -37.15 -15.65 -38.5 Q-15.5 -46.4 -9.5 -51.9 -6.5 -49.65 3.35 -55.0 L10.1 -54.65 Q13.5 -54.9 13.75 -56.65 M42.5 50.35 Q51.25 59.35 55.0 76.75 55.25 96.25 27.35 100.25 15.0 101.85 8.1 96.25 4.25 94.0 3.25 73.1 L15.0 71.25 27.35 64.75 34.25 59.1 34.85 58.5 38.6 55.35 39.0 55.1 39.35 54.75 41.35 53.1 42.5 50.35 M-2.25 73.1 L-2.75 79.75 Q-4.15 93.85 -7.25 96.35 L-7.4 96.85 -10.25 98.5 Q-16.15 101.1 -26.5 100.1 -54.5 96.1 -54.0 76.5 L-52.65 70.0 -48.4 60.6 -48.25 60.6 -45.75 62.0 -45.65 62.0 -45.0 62.25 -43.75 63.0 -43.65 63.0 -43.5 63.1 -43.4 63.1 -43.25 63.25 -39.9 64.6 -39.15 64.75 -30.15 67.35 -19.65 68.6 -19.4 68.75 -14.0 71.5 -2.25 73.1" fill="#e58508" fill-rule="evenodd" stroke="none"/>
    <path d="M34.75 -27.0 L41.6 -17.65 42.85 -15.4 44.25 -14.15 57.35 2.1 57.1 3.1 58.25 22.25 Q55.75 34.25 42.6 50.25 L45.5 54.1 47.5 57.6 Q46.25 58.25 45.35 61.85 L42.85 65.0 31.25 75.75 15.6 82.35 6.75 83.75 5.5 84.5 5.6 84.75 4.75 85.5 4.75 86.35 Q4.0 86.0 3.75 82.1 L3.35 73.25 1.1 73.5 -2.15 73.1 -2.5 80.0 -3.4 86.75 Q-4.0 85.1 -5.75 84.25 L-19.9 81.5 -31.5 74.75 -33.75 73.0 -38.25 72.25 -50.65 67.5 -51.65 67.6 -48.4 60.35 Q-59.5 54.1 -64.15 41.6 L-65.75 35.1 Q-67.4 21.25 -65.5 19.85 -67.65 17.35 -67.75 15.6 -35.4 52.25 16.85 64.1 16.0 65.25 10.35 63.25 L-7.75 57.1 -30.25 47.6 -46.75 38.0 -48.0 38.0 -50.4 50.0 -50.5 51.75 -48.9 53.1 -39.5 57.5 -34.0 58.85 -33.4 58.85 Q-35.65 54.25 -34.65 53.5 L-21.25 63.1 -4.25 67.85 2.5 67.6 14.75 65.85 30.75 57.6 37.1 51.25 Q44.5 48.6 48.35 27.0 L48.85 27.1 Q48.75 30.6 49.5 31.0 L50.5 29.85 52.35 25.85 51.5 21.25 47.5 8.25 47.0 7.6 44.35 -0.75 43.85 -1.4 43.1 -4.25 42.25 -5.9 38.1 -17.65 35.6 -23.4 Q33.75 -26.5 34.75 -27.0 M11.6 -4.9 Q-5.0 -1.65 -15.15 -35.5 -3.9 -19.4 5.75 -19.5 21.6 -19.75 24.0 -32.0 27.85 -8.9 11.6 -4.9 M-61.75 -9.4 L-61.65 -10.0 -61.15 -10.0 -61.0 -9.5 -61.65 -8.25 -61.75 -9.4 M-61.15 -11.5 L-60.65 -11.4 -60.75 -10.5 -61.25 -10.5 -61.15 -11.5 M-61.75 -3.5 L-62.4 -3.5 -61.9 -3.15 -62.5 -3.0 -62.0 -2.65 -62.5 -2.5 -62.15 -2.0 -62.65 -2.0 -62.25 -1.25 -62.9 -1.0 -62.65 -0.75 -62.9 -0.4 -62.5 -0.25 -63.0 -0.15 -62.65 0.25 -63.15 1.0 -62.9 1.25 -63.25 1.5 -63.0 2.1 -63.4 2.25 -63.15 2.6 -64.75 10.0 Q-66.25 7.85 -61.65 -7.5 L-62.15 -5.0 -61.75 -3.5 M-60.4 -12.75 L-60.65 -13.0 -60.25 -13.0 -60.4 -12.75 M-44.75 -0.65 L-44.9 -1.0 -44.15 -2.15 -44.25 -2.5 -34.5 -25.75 -33.9 -28.5 -33.5 -29.5 -33.15 -29.5 -35.5 -16.25 -40.5 4.5 -47.15 0.1 -46.65 0.0 -45.75 0.5 -45.25 0.35 -45.15 -0.5 -44.75 -0.65 M-65.65 10.5 L-65.25 10.5 -65.4 10.75 -65.65 10.5 M-66.65 19.0 L-66.25 19.0 -66.25 19.35 -66.65 19.0 M-65.0 20.75 L-65.75 20.5 -65.25 22.1 -64.15 23.0 -65.0 20.75 M-42.4 76.1 L-23.75 89.25 -18.15 93.85 Q-15.5 96.85 -15.9 97.75 -4.4 95.1 -4.0 89.5 -2.75 98.75 -20.0 100.5 -59.9 97.35 -52.9 71.0 -51.25 70.1 -42.4 76.1 M-4.0 87.5 L-3.65 87.5 -3.75 87.85 -4.0 87.5 M73.35 23.0 L73.25 26.35 73.0 23.0 73.35 23.0 M73.1 18.6 L73.6 6.5 Q74.1 6.75 73.85 9.75 L73.35 18.85 73.1 18.6 M59.25 37.1 L59.25 36.5 59.6 36.5 59.6 37.1 59.25 37.1 M59.0 35.0 L59.35 35.0 59.35 35.35 59.0 35.0 M60.1 40.0 L60.1 40.35 59.75 40.0 60.1 40.0 M59.85 38.85 L59.5 38.5 59.85 38.35 59.85 38.85 M59.75 37.5 L59.75 37.85 59.35 37.5 59.75 37.5 M60.25 41.1 L59.85 41.1 59.85 40.5 60.25 40.5 60.25 41.1 M60.35 41.85 L60.0 41.5 60.35 41.5 60.35 41.85 M73.1 30.0 L73.0 31.35 72.75 30.0 73.1 30.0 M73.25 27.0 L73.1 29.25 72.85 27.0 73.25 27.0 M72.5 35.5 L72.85 35.5 72.75 35.85 72.5 35.5 M61.25 47.35 L60.85 47.0 61.25 47.0 61.25 47.35 M61.35 48.35 L61.0 48.0 61.35 48.0 61.35 48.35 M72.25 40.5 L72.6 40.5 72.5 40.75 72.25 40.5 M4.85 86.5 L4.85 87.1 4.5 87.1 4.5 86.5 4.85 86.5 M25.6 98.1 Q46.75 95.1 53.35 85.5 50.75 97.0 23.5 100.5 4.85 101.1 4.6 87.5 7.85 100.1 25.6 98.1 M62.25 53.0 L62.25 53.35 61.85 53.0 62.25 53.0 M69.5 69.25 L69.0 69.5 66.6 69.5 66.0 68.85 69.75 68.5 69.5 69.25 M53.6 85.0 Q52.75 84.25 54.75 81.85 L53.6 85.0" fill="#000000" fill-opacity="0.49803922" fill-rule="evenodd" stroke="none"/>
  </g>
</svg>
