<?xml version="1.0" encoding="UTF-8" standalone="no"?>
<svg xmlns:ffdec="https://www.free-decompiler.com/flash" xmlns:xlink="http://www.w3.org/1999/xlink" ffdec:objectType="shape" height="156.05px" width="135.6px" xmlns="http://www.w3.org/2000/svg">
  <g transform="matrix(1.0, 0.0, 0.0, 1.0, 65.9, 55.45)">
    <path d="M-6.9 -39.9 L-9.45 -43.15 -10.15 -47.6 -10.15 -48.0 -8.45 -50.0 -5.45 -51.75 -3.9 -52.45 -2.0 -53.0 1.7 -53.6 3.4 -53.6 3.7 -53.45 4.55 -53.3 5.1 -53.3 5.7 -53.75 6.4 -54.0 7.0 -54.3 8.55 -54.75 12.25 -55.45 14.85 -55.45 16.25 -55.15 17.25 -54.6 17.85 -54.0 18.25 -53.15 18.25 -52.6 Q19.4 -47.0 17.1 -44.3 16.4 -42.45 13.85 -41.9 L6.4 -42.3 Q0.4 -37.6 -6.9 -39.9 M25.25 -15.9 Q39.25 19.55 45.4 21.1 L38.4 39.7 36.0 48.1 35.85 48.4 35.85 48.55 35.7 49.0 35.55 49.1 35.55 49.25 Q32.4 58.1 39.0 55.4 L42.0 52.4 42.25 51.85 44.0 49.7 44.4 49.1 47.0 45.85 46.1 48.4 44.1 52.4 42.0 56.55 41.55 57.25 41.55 57.85 41.4 58.1 40.25 59.25 39.25 60.0 38.55 60.7 38.25 60.85 37.85 61.25 29.4 68.1 15.85 75.0 14.0 75.7 3.4 76.85 0.25 77.25 -2.6 77.0 -6.15 76.4 -6.3 76.4 -14.45 75.0 -24.15 69.7 Q-44.75 57.4 -29.45 43.1 L-26.0 44.85 0.25 54.25 17.25 58.7 17.55 58.85 17.7 58.85 25.85 60.25 27.55 57.55 23.85 52.55 22.7 51.7 7.25 36.7 -9.75 21.25 -17.6 14.7 -15.45 7.85 -14.0 0.25 -8.75 -15.75 -4.45 -11.0 -1.15 -8.6 Q4.1 -4.9 12.55 -6.15 L12.7 -6.3 13.7 -6.45 Q20.4 -6.6 24.7 -14.75 L25.25 -15.9 M10.7 -48.3 L9.4 -46.6 9.85 -45.75 9.55 -45.3 10.55 -44.3 10.55 -43.75 12.55 -43.75 Q16.85 -46.9 13.1 -49.0 L10.7 -48.3 M-0.75 -46.6 Q-4.75 -41.75 1.4 -41.75 6.4 -47.45 -0.75 -46.6" fill="#ffffff" fill-rule="evenodd" stroke="none"/>
    <path d="M17.1 -44.3 Q21.1 -43.45 24.55 -34.6 L26.25 -27.6 26.4 -20.45 25.4 -16.75 25.25 -15.9 24.7 -14.75 Q20.4 -6.6 13.7 -6.45 L12.7 -6.3 12.55 -6.15 Q4.1 -4.9 -1.15 -8.6 L-4.45 -11.0 -8.75 -15.75 -12.9 -24.0 -13.0 -24.45 -13.15 -24.75 -13.45 -27.3 Q-13.0 -34.75 -6.9 -39.9 0.4 -37.6 6.4 -42.3 L13.85 -41.9 Q16.4 -42.45 17.1 -44.3 M44.1 52.4 Q51.55 60.7 55.0 76.7 56.4 95.4 27.4 100.25 15.0 101.85 8.1 96.25 4.85 95.0 3.4 76.85 L14.0 75.7 15.85 75.0 29.4 68.1 37.85 61.25 38.25 60.85 38.55 60.7 39.25 60.0 40.25 59.25 41.4 58.1 41.55 57.85 41.55 57.25 42.0 56.55 44.1 52.4 M-2.6 77.0 L-2.6 78.25 -3.75 87.85 Q-5.15 93.85 -6.9 95.85 L-7.15 96.1 -8.0 97.1 -8.45 97.4 -8.75 97.55 -9.15 97.85 -9.45 98.0 Q-12.15 100.85 -26.45 100.1 -55.0 96.1 -53.9 76.0 L-52.75 70.4 -48.75 61.25 -48.3 61.4 -48.0 61.7 -45.45 63.25 -44.9 63.7 -44.75 63.7 -44.45 63.85 -44.3 64.0 -43.9 64.1 -42.6 64.7 -42.0 65.1 -34.6 67.7 -25.45 69.55 -24.15 69.7 -14.45 75.0 -6.3 76.4 -6.15 76.4 -2.6 77.0" fill="#e58508" fill-rule="evenodd" stroke="none"/>
    <path d="M10.7 -48.3 L13.1 -49.0 Q16.85 -46.9 12.55 -43.75 L10.55 -43.75 10.55 -44.3 9.55 -45.3 9.85 -45.75 9.4 -46.6 10.7 -48.3 M-0.75 -46.6 Q6.4 -47.45 1.4 -41.75 -4.75 -41.75 -0.75 -46.6" fill="#1f001f" fill-rule="evenodd" stroke="none"/>
    <path d="M26.55 -20.3 Q31.7 7.7 13.4 13.4 -1.9 18.1 -12.75 -23.75 -6.45 -9.0 8.25 -5.9 22.55 -5.3 26.55 -20.3 M35.0 -19.75 L44.25 -6.15 52.0 4.4 52.7 4.7 46.1 19.7 45.7 19.4 42.1 5.85 34.1 -20.15 35.0 -19.75 M69.1 -1.9 Q73.55 6.7 44.25 51.85 L44.1 52.4 49.1 60.1 47.25 63.0 45.25 67.7 30.7 80.0 15.4 86.1 8.1 87.25 6.55 88.1 6.4 88.7 Q5.7 99.7 27.7 98.0 46.55 95.25 53.25 84.55 L53.85 83.0 54.7 82.25 53.25 85.1 53.4 85.55 Q46.55 99.4 22.4 100.55 L15.55 100.0 Q12.1 99.4 8.55 97.0 3.55 90.7 3.55 76.85 L0.55 77.25 -1.9 77.0 Q-3.45 92.4 -7.45 97.0 -12.9 101.25 -25.75 100.25 -37.15 100.0 -48.75 91.0 -59.3 81.7 -48.9 61.25 -61.9 53.4 -65.15 37.85 L-65.9 22.85 -65.15 15.1 -63.45 5.7 -61.6 -1.3 -60.9 -1.15 -62.75 7.1 -63.15 11.25 -63.9 13.25 -62.3 17.4 -62.45 18.0 -62.9 17.0 -63.6 16.7 -63.6 24.55 -62.15 33.1 Q-58.9 24.45 -60.35 21.9 L-55.9 26.0 -47.15 32.55 -25.3 43.85 -0.3 53.1 14.4 57.4 25.55 59.85 27.4 57.7 27.7 58.1 25.7 60.4 18.85 59.25 -0.3 54.1 -24.15 45.55 -41.75 36.55 -42.9 36.4 -45.9 54.4 -40.6 57.1 -35.45 58.7 Q-34.45 58.1 -35.9 55.85 L-35.3 55.25 Q-25.75 68.7 -2.6 71.0 L12.0 70.0 Q13.25 70.1 16.85 68.4 L30.4 62.1 Q37.4 58.1 35.0 55.4 L34.7 54.85 39.1 55.1 42.0 51.4 42.55 50.85 42.4 50.1 44.25 47.85 48.85 39.85 49.25 39.7 58.0 23.4 Q59.3 20.75 61.1 18.4 L60.55 18.1 61.4 17.85 Q60.55 16.25 66.0 7.4 L68.25 0.7 68.55 -1.45 69.1 -1.9 M67.0 -2.45 L65.55 1.55 65.25 1.4 66.7 -2.6 67.0 -2.45 M55.85 -1.45 L54.55 0.7 54.25 0.25 55.7 -2.15 55.85 -1.45 M55.85 -2.6 L56.25 -2.6 56.1 -2.3 55.85 -2.6 M53.55 3.0 L53.4 3.25 53.1 3.0 53.55 3.0 M54.0 2.0 L53.85 1.4 54.25 1.25 54.0 2.0 M-61.3 -2.0 L-61.15 -3.0 -60.6 -2.9 -60.9 -1.75 -61.3 -2.0 M-7.0 -39.3 Q-7.5 -39.45 -8.35 -41.05 L-4.5 -39.1 -7.0 -39.3 M-30.15 -25.6 L-30.6 -22.45 -31.3 -20.15 -32.6 -11.6 -35.45 0.55 -40.9 -2.45 -34.9 -15.15 -35.0 -15.6 -31.75 -21.9 -30.6 -25.75 -30.15 -25.6 M-49.3 29.55 L-57.0 22.4 -52.0 26.0 -46.3 31.1 -49.3 29.55 M-47.9 71.1 L-49.15 75.4 -35.6 83.4 -23.3 92.7 Q-20.0 98.4 -18.45 98.0 -2.3 95.7 -5.6 88.55 -7.15 87.1 -10.6 86.55 L-21.45 84.0 -35.45 74.85 -40.75 73.7 Q-46.9 70.4 -47.9 71.1" fill="#000000" fill-opacity="0.49803922" fill-rule="evenodd" stroke="none"/>
  </g>
</svg>
