<?xml version="1.0" encoding="UTF-8" standalone="no"?>
<svg xmlns:ffdec="https://www.free-decompiler.com/flash" xmlns:xlink="http://www.w3.org/1999/xlink" ffdec:objectType="shape" height="151.3px" width="133.75px" xmlns="http://www.w3.org/2000/svg">
  <g transform="matrix(1.0, 0.0, 0.0, 1.0, 71.15, 40.9)">
    <path d="M28.1 -2.6 L30.1 1.1 32.7 9.1 36.55 16.1 36.55 16.25 39.0 25.7 39.1 26.4 39.55 27.85 39.55 28.0 39.7 28.25 39.7 28.55 39.85 29.0 39.85 29.1 40.0 29.4 40.0 29.7 40.1 30.1 40.1 30.25 40.25 30.55 40.25 30.85 40.4 31.25 40.4 31.4 40.55 31.7 40.55 32.0 40.7 32.4 37.7 37.25 36.7 38.1 32.0 45.25 24.55 55.0 7.4 80.25 3.7 80.55 -1.15 81.0 -2.75 80.7 -6.0 80.0 -6.75 80.0 -16.3 77.85 -19.45 76.55 -19.6 76.55 -34.6 57.0 -34.3 54.85 Q-30.3 52.55 -26.45 45.1 L-19.45 31.55 -14.6 18.85 -12.75 11.25 -7.15 -2.9 Q-0.3 8.55 10.55 9.0 L14.4 8.7 14.55 8.55 15.4 8.4 Q22.25 7.4 26.25 1.1 L26.25 1.0 26.4 0.7 26.55 0.55 26.7 0.25 26.7 0.1 26.85 0.0 27.4 -1.6 28.1 -2.6 M-4.15 -26.45 L-7.0 -30.15 -7.3 -34.0 -6.45 -35.15 -4.0 -36.75 -1.0 -37.9 3.0 -38.75 6.7 -38.9 7.0 -38.75 8.25 -38.75 9.85 -39.3 10.4 -39.6 17.4 -40.9 19.7 -40.6 20.7 -40.3 21.85 -39.15 21.85 -38.75 Q22.4 -36.9 21.7 -33.3 L20.55 -30.6 Q18.7 -25.75 9.4 -27.75 3.25 -23.0 -4.15 -26.45 M15.25 -28.9 Q20.1 -31.75 16.4 -34.0 9.0 -32.0 15.25 -28.9 M4.0 -27.0 Q9.4 -32.75 2.25 -31.9 -1.75 -27.0 4.0 -27.0 M26.1 74.55 L29.25 71.4 29.1 71.1 47.4 50.25 48.4 48.55 45.7 54.4 44.55 56.55 44.25 57.0 43.7 58.1 43.4 59.0 42.85 59.7 42.7 60.0 42.4 60.4 41.4 62.7 41.1 63.25 41.0 63.55 40.85 63.85 40.4 64.1 40.0 64.55 28.85 73.55 26.85 74.4 26.1 74.55" fill="#ffffff" fill-rule="evenodd" stroke="none"/>
    <path d="M20.55 -30.6 Q22.0 -30.6 25.55 -26.3 L27.4 -21.6 28.85 -14.0 28.85 -6.0 28.4 -4.9 28.1 -2.6 27.4 -1.6 26.85 0.0 26.7 0.1 26.7 0.25 26.55 0.55 26.4 0.7 26.25 1.0 26.25 1.1 Q22.25 7.4 15.4 8.4 L14.55 8.55 14.4 8.7 10.55 9.0 Q-0.3 8.55 -7.15 -2.9 L-8.45 -5.9 -8.75 -6.45 -9.0 -7.15 -9.15 -7.45 -9.9 -9.3 -10.0 -9.45 -10.9 -11.45 -11.0 -11.9 -11.15 -12.3 -11.3 -14.75 Q-11.75 -19.75 -4.15 -26.45 3.25 -23.0 9.4 -27.75 18.7 -25.75 20.55 -30.6 M7.4 80.25 Q4.7 83.7 5.0 84.55 L4.25 85.0 3.7 80.55 7.4 80.25 M-2.75 80.7 L-3.45 86.7 -4.6 91.25 -6.15 95.0 -7.0 93.85 -7.3 93.25 -19.6 76.55 -19.45 76.55 -16.3 77.85 -6.75 80.0 -6.0 80.0 -2.75 80.7 M-47.6 76.1 L-41.3 81.85 -36.3 85.25 -16.9 100.1 -19.6 100.4 -26.45 100.1 Q-55.0 96.1 -53.9 76.0 L-52.9 71.25 -49.6 74.25 -49.3 74.4 -49.0 74.85 -47.75 75.85 -47.6 76.1 M45.7 54.4 Q55.85 71.4 55.0 76.7 56.4 95.4 27.4 100.25 15.0 101.85 8.1 96.25 L7.1 95.1 26.1 74.55 26.85 74.4 28.85 73.55 40.0 64.55 40.4 64.1 40.85 63.85 41.0 63.55 41.1 63.25 41.4 62.7 42.4 60.4 42.7 60.0 42.85 59.7 43.4 59.0 43.7 58.1 44.25 57.0 44.55 56.55 45.7 54.4" fill="#e58508" fill-rule="evenodd" stroke="none"/>
    <path d="M4.0 -27.0 Q-1.75 -27.0 2.25 -31.9 9.4 -32.75 4.0 -27.0 M15.25 -28.9 Q9.0 -32.0 16.4 -34.0 20.1 -31.75 15.25 -28.9" fill="#1f001f" fill-rule="evenodd" stroke="none"/>
    <path d="M33.4 -1.45 L37.1 16.0 38.85 22.1 Q40.7 28.0 39.7 28.85 L40.25 29.0 Q39.55 30.25 41.1 32.4 L38.7 35.55 38.25 35.25 38.25 33.25 37.55 30.55 32.85 -1.9 33.4 -1.45 M60.1 -4.45 L58.4 -12.9 Q71.0 29.85 45.7 54.1 59.25 75.4 53.4 85.55 48.0 96.4 33.4 99.25 12.4 103.0 7.25 95.1 L3.55 98.85 -0.9 102.4 2.25 108.1 -0.15 110.4 -5.6 107.7 -16.6 100.1 -25.75 100.25 -30.75 99.55 -40.0 96.7 Q-41.85 95.8 -43.75 94.85 L-47.9 91.85 Q-56.6 84.1 -52.75 71.0 L-60.45 64.0 -69.3 51.4 Q-69.9 45.0 -71.15 44.7 L-70.3 44.55 -69.3 46.1 -69.0 45.4 -68.0 45.4 -67.3 45.1 -67.45 44.85 -63.9 44.55 -61.45 45.4 -59.9 47.1 Q-66.0 47.7 -66.45 48.7 L-68.6 49.0 -59.3 61.4 -39.75 79.7 -19.45 96.4 -7.15 105.7 -3.3 107.85 -2.9 107.85 Q-2.75 105.25 -1.45 103.1 L-2.75 103.0 -4.75 101.1 -4.0 101.1 -1.75 102.55 2.85 98.85 3.4 97.7 13.4 87.0 14.1 85.7 15.25 84.85 16.0 83.55 34.0 62.4 33.85 62.1 46.55 47.1 53.25 36.0 55.55 35.85 56.85 26.55 Q55.4 22.0 56.1 20.55 57.4 20.4 58.25 15.1 L60.0 5.85 60.1 -4.45 M55.7 10.7 L55.7 11.25 55.1 10.7 55.7 10.7 M55.4 9.0 L55.0 8.55 55.4 8.55 55.4 9.0 M55.85 13.25 L55.25 13.0 55.7 12.85 55.4 12.4 55.85 12.4 55.85 13.25 M56.1 17.1 L55.55 16.7 56.1 16.7 56.1 17.1 M56.25 19.0 L55.7 19.0 56.0 18.7 56.25 19.0 M41.55 32.1 L41.1 32.1 41.55 31.55 41.85 31.7 41.55 32.1 M44.7 45.0 L45.1 45.0 45.0 45.25 44.7 45.0 M45.0 44.55 L45.4 44.55 45.25 44.85 45.0 44.55 M45.55 44.4 Q45.0 43.0 50.1 37.25 L45.55 44.4 M3.7 81.0 L3.7 80.55 -2.6 80.7 -3.6 87.85 -4.45 91.4 -5.9 94.7 -6.6 94.25 -6.3 93.4 -6.6 92.4 -9.9 89.7 -12.6 85.55 Q-19.9 75.55 -27.5 65.85 -22.3 70.25 -6.6 74.25 L11.55 74.1 4.85 84.85 4.1 84.55 3.7 81.0 M8.25 93.85 Q11.1 97.25 16.25 97.7 L25.7 98.1 27.85 98.0 27.7 97.55 28.1 97.4 33.4 96.85 38.1 95.55 43.1 93.25 Q44.1 89.1 46.1 87.25 L43.0 75.0 31.0 84.1 Q9.1 89.7 8.25 93.85 M15.7 36.1 Q-1.9 39.1 -10.9 -11.15 -4.75 5.4 9.85 8.55 25.55 9.55 29.1 -7.75 34.7 31.7 15.7 36.1 M-31.6 -8.15 L-31.15 -8.15 -35.75 14.0 -38.9 26.85 -42.75 46.4 -52.45 36.1 -51.75 36.0 Q-52.75 34.0 -46.0 25.25 L-34.0 -1.15 -31.6 -8.15 M-62.9 17.1 L-62.6 19.85 -64.75 26.55 Q-65.75 17.85 -61.15 6.85 L-62.9 17.1 M-61.3 6.4 L-61.15 5.55 -60.75 5.55 -60.9 6.4 -61.3 6.4 M-68.9 40.25 L-68.45 40.25 -68.6 40.55 -68.9 40.25 M-55.45 61.25 L-56.0 61.25 -57.0 60.1 -62.0 53.0 -57.0 58.55 -55.45 61.25 M-46.75 76.7 L-47.45 76.7 Q-55.6 88.4 -45.6 91.4 -31.0 98.85 -20.45 98.1 L-20.0 97.85 -39.9 82.85 -46.75 76.7" fill="#000000" fill-opacity="0.49803922" fill-rule="evenodd" stroke="none"/>
  </g>
</svg>
