<?xml version="1.0" encoding="UTF-8" standalone="no"?>
<svg xmlns:ffdec="https://www.free-decompiler.com/flash" xmlns:xlink="http://www.w3.org/1999/xlink" ffdec:objectType="shape" height="151.25px" width="137.8px" xmlns="http://www.w3.org/2000/svg">
  <g transform="matrix(1.0, 0.0, 0.0, 1.0, 73.35, 24.65)">
    <path d="M-1.9 -11.6 L-4.45 -14.9 -4.9 -18.9 -3.9 -19.75 -2.9 -20.3 0.25 -21.45 7.4 -22.6 9.55 -22.6 9.85 -22.45 11.25 -22.45 12.0 -22.75 12.25 -23.0 15.0 -23.6 15.25 -23.75 20.25 -24.45 21.7 -24.6 23.85 -24.3 25.0 -23.6 25.0 -23.15 Q25.55 -22.75 24.7 -17.9 L23.55 -15.45 Q22.1 -10.15 12.0 -11.9 2.25 -6.9 -1.9 -11.6 M30.25 10.85 L31.25 12.25 29.85 25.0 30.0 49.4 29.4 49.7 27.0 51.85 26.25 52.4 1.25 74.1 -8.9 83.7 -21.6 80.0 -32.75 71.55 -34.15 69.55 -35.6 66.55 -36.3 64.25 Q-34.45 63.1 -34.45 60.1 L-30.15 57.4 -29.15 55.55 -24.9 50.4 -24.15 48.7 -18.9 40.7 -13.6 29.4 -11.45 22.4 -5.9 10.85 -5.45 11.0 -5.45 11.1 -5.15 11.7 -4.75 12.25 -4.75 12.4 -4.6 13.1 -4.15 13.4 -2.6 16.1 Q5.85 26.4 15.85 24.25 L16.0 24.25 16.85 24.1 17.0 24.1 Q22.7 23.25 26.55 18.85 L26.55 18.7 26.85 18.4 28.1 16.55 28.25 16.4 30.25 10.85 M4.85 -15.6 Q0.4 -11.15 6.7 -11.0 12.1 -16.0 4.85 -15.6 M19.4 -17.6 Q11.7 -15.75 18.25 -12.75 22.85 -15.15 19.4 -17.6 M8.4 84.25 L30.7 68.1 39.1 59.55 41.25 59.25 41.7 58.1 41.85 58.0 43.25 53.85 43.25 53.7 43.7 53.0 43.85 52.1 43.85 52.0 44.0 51.55 44.1 51.0 44.1 50.55 45.55 40.25 45.7 40.0 45.7 39.4 45.85 38.85 45.85 38.4 46.0 37.85 46.0 37.4 46.1 36.7 Q53.0 43.0 49.55 53.0 L47.25 57.1 45.1 60.85 44.85 61.55 44.4 62.0 44.1 62.4 44.0 62.85 43.0 64.4 42.85 64.85 42.25 65.85 42.0 66.4 40.25 69.1 28.1 78.85 11.85 84.25 8.4 84.25" fill="#ffffff" fill-rule="evenodd" stroke="none"/>
    <path d="M23.55 -15.45 L26.85 -13.45 Q29.25 -11.15 29.4 -9.0 L30.0 -7.3 31.25 1.7 30.85 7.85 30.25 10.85 28.25 16.4 28.1 16.55 26.85 18.4 26.55 18.7 26.55 18.85 Q22.7 23.25 17.0 24.1 L16.85 24.1 16.0 24.25 15.85 24.25 Q5.85 26.4 -2.6 16.1 L-4.15 13.4 -4.6 13.1 -4.75 12.4 -4.75 12.25 -5.15 11.7 -5.45 11.1 -5.45 11.0 -5.9 10.85 -6.15 9.7 -6.9 8.25 -7.6 6.25 -7.75 6.0 -8.0 5.1 -8.15 4.85 -8.3 4.25 -8.75 3.1 -8.9 2.85 -9.15 2.0 -9.45 -1.0 Q-8.75 -7.45 -1.9 -11.6 2.25 -6.9 12.0 -11.9 22.1 -10.15 23.55 -15.45 M-8.9 83.7 L-10.0 84.7 -11.3 86.25 -11.75 86.25 -25.9 100.25 -26.45 100.1 -32.75 99.0 -33.0 99.0 -46.45 74.55 -46.75 74.1 -46.9 73.7 -47.15 73.4 -47.6 72.55 -47.9 72.1 -48.0 71.7 -48.3 71.4 -48.3 71.25 -48.6 70.7 -48.9 70.4 -48.9 70.25 -49.0 70.1 -49.15 69.7 -51.0 66.4 -51.15 66.25 -49.9 63.55 -49.6 63.7 -48.15 65.0 -47.15 65.4 -46.3 66.0 -46.3 66.1 -46.0 66.1 -45.9 66.25 -45.0 66.55 -44.45 67.0 -44.15 67.1 -43.9 67.25 -43.0 67.55 -35.6 70.85 -32.75 71.55 -21.6 80.0 -8.9 83.7 M-5.75 94.0 L-6.9 95.85 -7.15 96.1 -8.0 97.1 -8.45 97.4 -8.75 97.55 -9.15 97.85 -9.45 98.0 -10.75 98.85 -14.15 99.7 -5.75 94.0 M8.4 84.25 L11.85 84.25 28.1 78.85 40.25 69.1 42.0 66.4 42.25 65.85 42.85 64.85 43.0 64.4 44.0 62.85 44.1 62.4 44.4 62.0 44.85 61.55 45.1 60.85 47.25 57.1 Q55.4 71.0 55.0 76.7 56.4 95.4 27.4 100.25 15.0 101.85 8.1 96.25 L6.55 94.1 4.4 87.0 8.4 84.25" fill="#e58508" fill-rule="evenodd" stroke="none"/>
    <path d="M19.4 -17.6 Q22.85 -15.15 18.25 -12.75 11.7 -15.75 19.4 -17.6 M4.85 -15.6 Q12.1 -16.0 6.7 -11.0 0.4 -11.15 4.85 -15.6" fill="#1f001f" fill-rule="evenodd" stroke="none"/>
    <path d="M49.1 -7.6 L49.7 -7.6 49.7 2.55 51.0 27.7 Q64.4 11.25 61.1 -4.75 72.0 30.4 47.25 57.0 L49.7 61.0 53.7 70.1 53.25 70.25 53.0 71.85 52.85 75.25 51.1 86.55 Q52.5 87.1 54.6 82.55 L52.25 88.0 Q47.1 98.25 22.4 100.55 4.7 101.0 4.55 87.0 L-5.45 93.85 -7.45 97.0 -10.6 98.85 -14.45 99.85 -22.0 105.0 -28.0 108.1 -26.0 112.4 -29.3 111.25 Q-30.45 110.1 -30.6 107.55 L-30.15 107.1 -29.0 107.85 -25.15 106.1 -6.9 93.25 12.0 79.0 13.25 78.7 25.7 69.7 24.4 69.4 33.1 61.4 34.0 60.7 34.1 61.0 32.85 62.1 33.0 62.4 33.7 62.0 37.0 59.0 37.25 58.25 38.0 58.1 38.55 58.55 38.1 59.25 39.25 59.25 41.1 56.85 42.85 51.85 43.7 51.4 43.25 51.1 Q44.25 50.4 44.55 43.25 L45.0 43.25 44.7 42.4 Q45.1 36.7 46.0 36.25 L45.7 35.25 Q46.55 34.55 46.1 32.1 L46.55 32.0 46.25 31.25 46.7 31.1 46.4 30.1 46.85 29.85 46.7 28.0 47.1 27.7 49.0 4.7 49.25 -6.75 49.1 -7.6 M30.25 49.25 L12.25 64.7 Q-1.75 62.4 -9.15 2.55 -3.0 21.7 10.4 22.85 28.4 24.0 31.55 5.7 L32.25 18.4 32.0 23.55 30.0 34.25 30.25 49.25 M35.25 59.85 L35.0 59.55 35.4 59.55 35.25 59.85 M38.4 57.25 L38.0 57.1 38.85 56.1 39.1 56.25 38.4 57.25 M36.0 61.1 L36.7 59.85 30.1 65.55 30.55 65.85 36.0 61.1 M29.25 66.55 L29.7 66.55 29.4 66.25 29.25 66.55 M-32.75 8.7 L-39.15 34.4 -42.45 50.1 -42.3 51.1 -37.9 53.1 -28.9 55.25 -29.45 56.85 Q-34.75 59.55 -34.45 60.85 L-34.45 61.4 -24.45 69.85 -7.45 76.55 -1.75 77.0 -17.15 91.7 -24.9 89.55 Q-39.75 76.85 -44.3 77.7 L-45.15 76.85 -48.15 71.0 -51.0 66.55 -49.9 63.25 -54.15 60.1 -56.75 56.25 -57.9 56.1 -58.45 56.55 -59.6 56.25 Q-57.0 54.55 -56.15 52.1 L-48.45 37.1 -40.9 23.85 -40.6 22.7 -40.15 22.55 -39.9 21.4 -38.75 20.0 -33.3 8.55 -32.75 8.7 M14.25 96.0 L14.0 97.1 16.1 97.7 23.4 98.1 Q23.85 94.85 32.85 89.85 L32.85 87.85 32.0 87.85 30.55 89.0 20.0 92.55 15.7 94.7 14.25 96.0 M27.4 70.4 L27.85 70.7 31.55 68.4 31.7 67.55 Q30.85 67.25 27.4 70.4 M-61.75 15.0 L-61.6 13.7 -61.0 13.85 -61.3 15.0 -61.75 15.0 M-64.15 31.55 Q-66.45 29.0 -61.45 15.4 -63.0 23.1 -61.45 25.1 L-64.15 31.55 M-73.3 53.25 L-73.15 52.85 -71.45 51.85 -71.45 52.55 -72.0 52.55 -72.9 53.4 -73.3 53.25 M-63.45 67.4 Q-62.0 67.55 -58.75 76.0 L-60.0 74.7 Q-61.75 72.0 -61.15 71.55 L-63.45 67.4 M-63.3 67.0 L-63.9 66.4 -63.45 66.4 -63.3 67.0 M-67.75 63.25 L-66.6 62.7 -65.45 62.85 Q-67.45 65.4 -66.15 66.1 L-58.6 78.1 -56.55 80.65 Q-58.95 77.5 -58.0 76.7 L-42.6 100.0 -40.0 103.1 -31.75 115.4 Q-26.0 124.55 -21.6 126.0 L-22.45 126.55 Q-23.75 127.1 -26.9 123.1 L-37.3 110.7 -53.45 89.7 -56.75 84.55 -62.6 76.85 Q-75.15 58.0 -73.15 54.4 -71.3 54.4 -70.3 61.85 L-68.45 63.1 -67.75 63.25 M-23.6 98.0 L-25.75 100.25 -32.6 99.1 -34.15 96.55 Q-27.15 96.85 -26.45 98.0 L-23.6 98.0" fill="#000000" fill-opacity="0.49803922" fill-rule="evenodd" stroke="none"/>
  </g>
</svg>
