<?xml version="1.0" encoding="UTF-8" standalone="no"?>
<svg xmlns:ffdec="https://www.free-decompiler.com/flash" xmlns:xlink="http://www.w3.org/1999/xlink" ffdec:objectType="shape" height="136.55px" width="139.05px" xmlns="http://www.w3.org/2000/svg">
  <g transform="matrix(1.0, 0.0, 0.0, 1.0, 72.85, 7.15)">
    <path d="M-0.75 4.1 L-2.9 1.1 -3.3 -2.75 -2.3 -3.3 -1.15 -3.75 3.7 -4.6 4.85 -4.9 11.0 -5.3 11.7 -5.15 11.85 -5.0 12.7 -5.15 13.1 -5.15 14.0 -5.45 14.25 -5.6 17.1 -6.15 17.4 -6.3 17.55 -6.3 23.0 -7.15 26.1 -7.15 26.7 -7.0 27.1 -6.75 27.1 -3.75 Q26.7 -0.6 25.7 0.7 20.7 8.0 13.4 4.85 7.0 9.7 -0.75 4.1 M31.85 25.0 L32.4 25.55 29.85 39.25 29.25 60.85 28.85 61.4 24.25 65.4 23.85 65.85 20.85 68.55 20.25 69.0 19.4 69.85 18.1 70.85 18.1 71.0 17.55 71.4 -1.75 89.0 -4.15 89.0 -6.9 89.0 -9.0 88.25 -9.15 88.25 Q-9.7 88.0 -10.3 87.7 L-11.0 87.55 -22.6 83.55 -34.15 73.85 -34.45 73.25 -34.6 73.25 -34.75 72.85 -36.75 69.1 -36.75 68.1 Q-16.15 52.1 -7.0 27.55 L-6.15 25.4 -5.6 25.0 -5.15 25.25 -5.15 25.4 -3.0 29.7 -2.9 30.0 -1.9 31.25 -1.75 31.55 -0.45 33.7 4.7 38.25 6.4 39.0 Q7.7 40.0 11.7 40.55 L16.0 40.4 17.0 40.25 17.4 40.25 18.1 40.0 Q20.25 40.1 23.85 38.0 L27.1 35.0 27.4 34.55 27.7 34.25 29.4 32.0 31.85 25.0 M10.4 2.4 Q4.4 -0.15 4.55 4.55 11.0 7.25 10.4 2.4 M22.7 85.1 L31.1 78.85 37.1 72.25 38.7 72.0 39.4 71.25 42.0 65.7 42.1 65.4 42.7 64.7 42.7 63.7 42.55 63.7 46.4 45.7 Q52.7 51.1 50.25 57.0 L49.0 59.85 47.85 62.1 47.4 62.25 47.1 63.25 46.4 64.4 46.1 64.7 45.85 65.1 45.85 65.25 45.4 65.85 44.85 67.1 44.25 67.55 42.85 70.1 39.0 74.7 26.7 84.0 22.7 85.1 M20.0 4.4 Q24.4 2.1 21.25 -0.15 13.0 1.55 20.0 4.4" fill="#ffffff" fill-rule="evenodd" stroke="none"/>
    <path d="M25.7 0.7 Q28.55 1.85 30.1 3.85 L31.7 7.7 32.4 12.4 32.25 21.25 31.85 25.0 29.4 32.0 27.7 34.25 27.4 34.55 27.1 35.0 23.85 38.0 Q20.25 40.1 18.1 40.0 L17.4 40.25 17.0 40.25 16.0 40.4 11.7 40.55 Q7.7 40.0 6.4 39.0 L4.7 38.25 -0.45 33.7 -1.75 31.55 -1.9 31.25 -2.9 30.0 -3.0 29.7 -5.15 25.4 -5.15 25.25 -5.6 25.0 -5.6 24.85 -8.15 16.55 -8.3 13.25 Q-5.9 5.55 -0.75 4.1 7.0 9.7 13.4 4.85 20.7 8.0 25.7 0.7 M-4.15 89.0 L-4.9 91.85 -12.6 99.25 -14.9 100.0 -19.15 100.4 -26.45 100.1 -31.6 99.4 -36.9 97.85 -37.15 97.85 -37.9 96.55 -38.3 95.55 -47.15 80.7 -47.3 80.25 -47.6 80.0 -47.75 79.55 -48.0 79.25 -48.45 78.55 -48.6 78.1 -48.9 77.85 -49.15 77.0 -50.0 75.7 -50.15 75.25 -50.45 75.0 -52.9 70.7 -50.45 65.0 -50.0 65.25 -48.3 66.85 -47.9 67.0 -46.75 67.7 -46.0 68.0 -45.75 68.25 -39.75 71.55 -34.6 73.25 -34.45 73.25 -34.15 73.85 -22.6 83.55 -11.0 87.55 -10.3 87.7 Q-9.7 88.0 -9.15 88.25 L-9.0 88.25 -6.9 89.0 -4.15 89.0 M22.7 85.1 L26.7 84.0 39.0 74.7 42.85 70.1 44.25 67.55 44.85 67.1 45.4 65.85 45.85 65.25 45.85 65.1 46.1 64.7 46.4 64.4 47.1 63.25 47.4 62.25 47.85 62.1 49.0 59.85 53.7 70.25 55.0 76.7 Q56.4 95.4 27.4 100.25 15.0 101.85 8.1 96.25 L22.7 85.1" fill="#e58508" fill-rule="evenodd" stroke="none"/>
    <path d="M10.4 2.4 Q11.0 7.25 4.55 4.55 4.4 -0.15 10.4 2.4 M20.0 4.4 Q13.0 1.55 21.25 -0.15 24.4 2.1 20.0 4.4" fill="#1f001f" fill-rule="evenodd" stroke="none"/>
    <path d="M45.85 45.25 L49.4 19.85 50.25 8.85 50.85 9.1 50.85 20.7 51.25 25.1 Q63.55 15.4 63.1 3.85 73.55 30.4 49.0 59.7 L53.1 68.55 54.85 75.0 54.85 75.4 54.25 75.4 52.55 84.4 53.75 84.55 52.25 88.0 Q49.1 94.85 32.85 99.4 15.25 102.7 8.0 96.1 L-17.75 114.0 -25.3 118.25 -25.6 118.85 -23.15 123.85 -25.0 122.85 -27.15 122.85 -28.45 120.1 -28.15 117.85 -27.3 118.25 -22.9 116.4 -5.3 103.55 3.1 96.85 20.85 84.25 21.1 83.7 24.85 81.25 24.55 80.85 24.0 81.0 24.0 81.4 23.4 81.25 23.0 81.7 22.55 81.4 31.0 73.25 Q32.1 75.1 26.0 80.25 L30.1 77.0 35.0 71.85 Q36.0 71.85 39.1 68.85 L42.0 63.1 42.55 59.1 45.85 45.25 M32.1 47.4 Q31.25 47.7 31.0 52.1 L30.0 54.4 29.85 61.55 28.7 61.7 27.4 62.55 23.7 66.25 20.1 69.0 2.85 84.55 -0.45 88.1 -1.6 89.0 -4.0 89.0 -4.6 92.0 -11.75 98.85 -14.75 100.0 -19.0 100.4 -25.6 100.25 -30.45 99.55 -36.6 98.0 -38.45 95.1 Q-24.9 99.7 -17.75 97.1 -24.15 95.55 -35.9 84.55 L-40.75 83.1 Q-42.9 86.25 -43.6 86.25 L-52.6 71.25 Q-47.75 63.4 -53.9 61.55 -58.0 64.0 -55.45 66.4 L-57.15 66.0 Q-59.35 66.1 -60.25 67.15 -54.45 59.4 -55.15 57.85 L-54.15 57.7 -53.15 55.55 -48.0 48.4 -47.9 47.55 -47.45 47.4 -46.15 44.55 -37.15 29.4 -32.6 20.0 -32.15 19.25 -31.75 19.25 -31.75 19.85 -35.15 33.4 -37.0 43.85 -30.6 45.0 -16.45 45.7 -18.6 49.55 -19.9 50.55 -20.0 51.4 Q-24.9 56.1 -24.6 57.25 L-26.45 59.4 -29.15 61.55 -29.9 63.0 -32.45 64.4 -32.75 65.0 Q-30.75 70.7 -1.9 78.55 L-1.6 77.85 -2.45 74.7 -3.6 66.1 -8.15 18.55 Q-1.9 36.4 10.7 37.55 31.4 38.25 32.7 18.85 L33.55 28.1 33.55 37.25 32.1 47.4 M36.0 70.25 L31.7 74.4 Q31.1 73.4 34.25 71.1 L36.0 70.25 M25.0 80.7 L25.25 80.85 25.1 80.4 25.0 80.7 M-7.75 17.1 L-7.75 17.55 -8.15 17.1 -7.75 17.1 M-61.3 20.55 L-61.75 20.1 -61.3 20.1 -61.3 20.55 M-64.0 41.1 Q-65.6 27.4 -61.6 21.0 -62.9 27.0 -59.6 31.1 L-64.0 41.1 M-70.45 58.25 L-70.75 59.85 -71.75 59.85 -72.3 60.85 Q-73.3 59.55 -70.45 58.25 M-64.9 72.55 L-59.15 82.55 -46.45 98.85 -29.3 122.7 -25.75 126.85 Q-22.45 129.4 -21.75 127.25 L-21.6 128.1 -23.15 129.4 -24.75 129.1 -29.15 124.85 -29.0 124.55 -36.45 116.25 -36.3 116.0 -37.15 115.4 -37.0 115.1 -38.6 113.7 -38.45 113.4 -45.0 105.1 -47.45 102.55 -47.3 102.25 -49.15 100.4 -49.0 100.1 -50.15 99.1 -50.0 98.85 -62.15 83.25 Q-75.0 66.25 -72.45 62.55 -70.75 63.0 -69.6 69.55 L-68.0 71.0 -65.15 71.1 -64.9 72.55 M-58.0 79.1 L-56.9 80.85 -56.15 82.85 -57.0 82.0 -57.6 80.4 -58.45 79.4 -58.0 79.1 M-59.0 77.85 L-58.3 79.0 -58.6 78.85 -59.0 77.85" fill="#000000" fill-opacity="0.49803922" fill-rule="evenodd" stroke="none"/>
  </g>
</svg>
