<?xml version="1.0" encoding="UTF-8" standalone="no"?>
<svg xmlns:ffdec="https://www.free-decompiler.com/flash" xmlns:xlink="http://www.w3.org/1999/xlink" ffdec:objectType="shape" height="118.6px" width="141.35px" xmlns="http://www.w3.org/2000/svg">
  <g transform="matrix(1.0, 0.0, 0.0, 1.0, 73.9, -10.0)">
    <path d="M-2.4 19.5 L-4.4 16.25 -4.5 13.0 -3.75 12.75 10.5 11.85 11.0 12.1 11.5 12.0 11.85 12.0 12.1 11.85 12.85 11.85 13.25 11.75 13.5 11.6 13.75 11.6 14.25 11.5 14.35 11.5 15.35 11.35 15.75 11.25 16.35 11.25 16.35 11.1 17.0 11.1 17.85 10.85 18.25 10.85 19.35 10.75 19.5 10.6 20.0 10.6 21.0 10.5 21.35 10.35 22.25 10.25 22.75 10.25 23.25 10.1 23.85 10.1 24.25 10.0 26.35 10.0 Q26.75 12.1 26.1 14.1 L25.0 16.75 Q19.75 24.75 11.85 21.25 6.1 25.1 -0.15 21.5 L-2.4 19.5 M30.5 37.85 L31.5 39.25 30.25 45.1 Q29.25 49.5 28.6 49.85 L28.1 54.5 28.1 54.85 28.0 56.0 28.0 56.35 27.85 57.5 27.85 58.0 27.75 58.6 27.75 59.75 27.6 59.75 27.6 61.1 27.5 61.5 27.5 62.6 27.35 63.35 27.25 65.35 27.1 65.75 27.1 67.35 27.0 68.1 27.0 68.85 26.85 69.6 26.85 70.85 25.85 71.5 25.6 71.6 25.5 71.75 2.0 92.85 -5.15 92.6 -9.0 92.5 -17.65 89.1 -17.75 89.1 -17.9 89.0 -18.25 88.85 -18.65 88.6 -19.0 88.5 -19.25 88.35 -24.4 86.35 -35.4 76.25 -36.65 74.5 -36.9 74.25 -37.25 73.6 -37.9 72.75 -38.5 71.6 -37.0 70.75 -36.5 69.35 -32.65 68.35 -27.4 64.6 -20.75 58.1 -15.25 50.5 -12.9 45.25 -8.75 39.75 -7.9 38.25 -7.75 38.25 -4.65 45.35 -3.15 47.75 -2.9 48.0 -1.9 49.25 -1.75 49.35 -1.65 49.75 -1.4 50.0 Q4.5 56.6 13.25 55.85 L13.5 55.75 14.35 55.75 14.5 55.6 14.85 55.6 19.25 54.5 21.85 53.35 23.0 52.25 Q23.2 52.15 23.35 52.0 L24.35 51.1 25.6 49.6 25.85 49.35 Q26.6 49.1 28.75 44.85 L30.5 37.85 M6.6 22.5 L8.25 21.85 8.5 21.25 9.1 21.0 8.85 19.35 6.25 18.5 5.0 18.5 Q4.15 18.95 3.25 19.35 1.5 21.75 6.6 22.5 M21.35 19.35 L21.1 17.6 19.75 17.25 18.25 17.35 15.5 18.85 15.6 20.35 16.6 21.0 16.5 21.25 18.25 21.5 Q20.6 20.75 21.35 19.35 M37.25 79.6 L37.85 78.35 41.1 73.0 40.75 71.75 41.35 68.85 41.35 68.75 41.5 68.35 41.85 66.85 41.85 66.6 44.35 57.85 44.85 54.6 Q46.1 54.0 49.6 58.85 L49.5 62.25 48.85 64.5 48.6 65.0 47.6 66.5 47.25 67.25 46.85 67.6 46.35 68.35 46.25 68.6 46.0 68.85 42.5 74.25 41.85 75.1 41.5 75.85 41.0 76.5 39.6 77.85 37.25 79.6" fill="#ffffff" fill-rule="evenodd" stroke="none"/>
    <path d="M25.0 16.75 L28.85 19.0 Q29.6 19.0 30.75 22.85 L30.75 25.25 31.1 26.1 30.85 35.0 30.5 37.85 28.75 44.85 Q26.6 49.1 25.85 49.35 L25.6 49.6 24.35 51.1 23.35 52.0 Q23.2 52.15 23.0 52.25 L21.85 53.35 19.25 54.5 14.85 55.6 14.5 55.6 14.35 55.75 13.5 55.75 13.25 55.85 Q4.5 56.6 -1.4 50.0 L-1.65 49.75 -1.75 49.35 -1.9 49.25 -2.9 48.0 -3.15 47.75 -4.65 45.35 -7.75 38.25 -7.9 38.25 -9.4 31.85 Q-10.4 27.6 -9.9 27.1 -10.9 24.1 -2.4 19.5 L-0.15 21.5 Q6.1 25.1 11.85 21.25 19.75 24.75 25.0 16.75 M-5.15 92.6 L-6.15 95.0 -7.25 96.35 -7.4 96.85 -10.25 98.5 Q-16.15 101.1 -26.5 100.1 L-31.15 99.5 -36.0 98.25 -42.0 95.75 -42.15 95.75 -42.4 95.5 -49.75 83.85 -49.75 83.6 -50.15 83.25 -50.4 82.85 -50.4 82.6 -50.75 82.25 -51.0 81.6 -51.4 81.25 -54.15 76.5 -54.0 76.5 -53.9 76.1 -53.25 72.25 -51.0 66.35 -49.15 67.75 -48.25 68.25 -48.0 68.35 -47.75 68.75 -47.65 68.75 -47.5 68.85 -47.0 69.1 -46.75 69.35 -46.5 69.5 -46.15 69.6 -45.9 69.75 -45.25 70.25 -42.75 71.85 -39.25 73.5 -36.9 74.25 -36.65 74.5 -35.4 76.25 -24.4 86.35 -19.25 88.35 -19.0 88.5 -18.65 88.6 -18.25 88.85 -17.9 89.0 -17.75 89.1 -17.65 89.1 -9.0 92.5 -5.15 92.6 M49.5 62.25 L50.1 61.85 53.75 70.35 54.6 73.5 55.0 76.75 Q55.25 96.25 27.35 100.25 L20.6 100.5 16.1 100.1 13.35 99.35 28.5 88.5 34.0 82.5 36.25 81.5 37.25 79.6 39.6 77.85 41.0 76.5 41.5 75.85 41.85 75.1 42.5 74.25 46.0 68.85 46.25 68.6 46.35 68.35 46.85 67.6 47.25 67.25 47.6 66.5 48.6 65.0 48.85 64.5 49.5 62.25" fill="#e58508" fill-rule="evenodd" stroke="none"/>
    <path d="M21.35 19.35 Q20.6 20.75 18.25 21.5 L16.5 21.25 16.6 21.0 15.6 20.35 15.5 18.85 18.25 17.35 19.75 17.25 21.1 17.6 21.35 19.35 M6.6 22.5 Q1.5 21.75 3.25 19.35 4.15 18.95 5.0 18.5 L6.25 18.5 8.85 19.35 9.1 21.0 8.5 21.25 8.25 21.85 6.6 22.5" fill="#1f001f" fill-rule="evenodd" stroke="none"/>
    <path d="M64.1 12.5 Q75.1 32.6 50.1 61.75 59.0 79.1 52.35 87.85 42.0 102.6 13.6 99.35 L-17.65 120.6 -25.15 124.75 -26.0 124.6 -26.9 123.85 -22.25 122.35 -11.5 114.75 3.0 103.5 15.85 94.75 18.75 92.1 21.85 90.35 25.75 87.35 32.0 81.25 32.35 80.35 Q34.5 78.35 36.0 78.35 37.0 78.0 37.85 73.0 L38.6 72.75 40.75 64.5 42.85 58.35 42.85 57.5 43.35 56.85 43.35 55.5 43.85 54.35 49.25 26.25 Q64.0 23.35 64.1 12.5 M41.1 26.85 L37.35 30.5 34.0 35.0 Q34.25 35.6 32.0 38.35 L32.35 48.1 31.5 61.85 28.75 74.0 Q24.85 82.35 2.35 92.75 L-4.9 92.6 Q-7.4 97.75 -9.0 97.85 -10.15 99.0 -13.4 99.6 L-20.0 100.5 Q-30.9 100.85 -42.4 95.6 L-42.5 94.85 -54.0 76.6 Q-53.15 69.5 -50.9 66.35 L-53.75 63.5 -54.4 63.85 -58.4 69.75 -55.75 74.0 Q-58.85 71.1 -64.95 75.05 L-62.25 71.5 -61.5 71.75 -61.0 71.35 -58.25 67.0 -57.5 66.35 -53.65 60.0 -51.75 57.85 -51.15 56.5 -46.9 50.25 -44.9 48.0 -40.9 41.5 -40.15 40.85 -40.25 40.5 Q-39.75 40.35 -38.15 37.5 L-33.9 30.0 -33.4 30.0 -33.4 30.5 -35.5 40.25 -24.75 38.75 -18.0 37.35 -9.75 33.75 -9.75 30.5 Q-5.25 46.1 0.75 49.6 L4.85 51.35 14.0 51.5 Q33.65 49.4 30.95 26.0 L34.75 26.0 34.75 24.75 41.25 26.1 41.1 26.85 M19.1 90.5 L20.85 88.5 27.25 82.85 27.35 83.35 24.5 86.0 Q21.6 88.5 21.85 89.25 L19.35 90.85 19.1 90.5 M28.0 82.0 L28.35 82.0 28.25 82.25 28.0 82.0 M-10.4 42.0 Q-12.25 45.25 -12.9 45.25 -14.9 51.6 -20.4 57.5 L-20.25 57.85 -19.65 57.85 -18.75 57.75 -17.5 56.85 -15.4 55.0 -9.15 51.0 -9.25 44.75 -9.75 41.75 -10.4 42.0 M-62.15 24.5 Q-63.0 30.25 -58.5 33.35 L-63.9 43.85 Q-66.25 38.75 -62.15 24.5 M-71.65 61.5 L-71.9 62.85 -73.25 63.5 -73.75 63.35 -73.15 62.1 -72.4 61.5 -71.65 61.5 M-73.5 68.1 L-73.9 68.0 -73.4 68.0 -72.65 68.75 Q-72.9 72.6 -70.25 75.35 L-69.65 75.35 -69.25 76.0 -67.65 75.85 -66.75 74.5 -66.0 74.5 -66.75 75.75 -66.5 76.0 -66.2 75.9 -67.15 76.6 -64.75 79.75 -64.4 80.35 -64.75 80.5 -66.65 77.6 -67.4 77.5 -63.15 84.6 -62.15 85.75 -61.35 85.85 Q-62.65 85.55 -62.9 81.5 L-60.4 85.35 -58.4 89.5 -31.0 124.6 -28.75 126.5 -27.9 126.5 -27.5 126.85 -27.15 126.5 -26.0 126.5 -25.9 127.5 -27.4 128.6 -28.15 128.6 -32.65 124.6 -42.75 113.1 -62.75 88.6 -62.65 88.35 -66.25 84.1 -69.4 78.25 -71.4 77.1 -73.25 74.6 -73.75 73.1 -73.5 68.1 M-32.9 96.6 L-28.5 97.25 Q-30.9 90.25 -40.25 89.0 -43.0 92.85 -41.4 93.75 L-32.9 96.6 M-60.9 86.5 L-61.5 86.5 -60.5 87.85 -60.15 87.85 -60.9 87.1 -60.65 86.75 -60.9 86.5 M-64.25 81.5 L-63.65 81.75 -63.4 82.6 -64.25 81.5" fill="#000000" fill-opacity="0.49803922" fill-rule="evenodd" stroke="none"/>
  </g>
</svg>
