<?xml version="1.0" encoding="UTF-8" standalone="no"?>
<svg xmlns:ffdec="https://www.free-decompiler.com/flash" xmlns:xlink="http://www.w3.org/1999/xlink" ffdec:objectType="shape" height="124.9px" width="145.35px" xmlns="http://www.w3.org/2000/svg">
  <g transform="matrix(1.0, 0.0, 0.0, 1.0, 79.5, 1.9)">
    <path d="M-5.45 7.85 L-7.45 4.55 -7.75 0.7 -7.15 0.4 -6.15 0.1 1.85 -0.75 7.0 -0.75 7.1 -0.45 8.4 -0.45 9.4 -0.75 9.7 -0.75 12.25 -1.15 12.85 -1.3 18.4 -1.9 22.1 -1.9 23.0 -1.6 23.0 1.25 Q22.55 3.55 21.55 5.7 18.85 12.1 8.4 9.4 -1.3 13.55 -5.45 7.85 M27.0 28.1 Q30.0 31.55 31.25 37.55 L36.0 44.25 36.1 44.55 36.1 44.85 37.85 60.4 33.55 69.1 33.7 69.4 33.55 69.7 33.4 69.85 31.55 73.85 31.4 74.0 31.4 74.1 26.4 84.4 23.0 86.55 6.4 90.55 5.25 90.4 -4.3 89.85 -11.0 89.4 -12.6 88.7 -13.15 88.4 -15.9 87.25 -16.15 87.1 -16.6 87.0 -25.6 83.1 -26.0 83.0 -26.6 82.7 -35.9 73.7 -37.6 71.55 -37.9 71.4 -38.0 70.85 -39.3 68.7 -39.9 67.0 -38.6 66.1 -38.15 64.4 -34.15 62.85 -28.75 57.55 -28.45 56.7 -23.0 50.55 -17.75 41.85 -15.75 36.7 -10.75 28.4 -10.6 28.4 -8.3 33.85 -7.75 34.85 -7.45 35.25 -7.3 35.55 -7.15 35.7 -6.9 36.25 -6.6 36.55 -6.45 36.85 -6.3 37.0 -5.75 37.7 Q2.1 46.25 8.85 44.85 L10.1 44.85 10.7 44.7 11.1 44.7 15.0 43.85 15.25 43.7 18.55 42.1 21.0 40.55 21.1 40.0 21.25 39.85 23.0 37.85 24.0 36.1 24.1 35.85 26.25 31.55 27.0 28.1 M15.0 9.4 Q19.85 7.55 16.1 5.0 8.1 6.4 15.0 9.4 M5.25 6.85 Q-0.75 4.4 -0.45 8.7 6.25 11.85 5.25 6.85" fill="#ffffff" fill-rule="evenodd" stroke="none"/>
    <path d="M21.55 5.7 Q25.1 7.25 26.25 9.1 L27.55 13.0 28.0 16.4 27.25 26.55 27.0 28.1 26.25 31.55 24.1 35.85 24.0 36.1 23.0 37.85 21.25 39.85 21.1 40.0 21.0 40.55 18.55 42.1 15.25 43.7 15.0 43.85 11.1 44.7 10.7 44.7 10.1 44.85 8.85 44.85 Q2.1 46.25 -5.75 37.7 L-6.3 37.0 -6.45 36.85 -6.6 36.55 -6.9 36.25 -7.15 35.7 -7.3 35.55 -7.45 35.25 -7.75 34.85 -8.3 33.85 -10.6 28.4 -10.75 28.4 -12.45 21.25 Q-13.45 16.55 -12.75 16.1 -14.15 13.1 -5.45 7.85 -1.3 13.55 8.4 9.4 18.85 12.1 21.55 5.7 M26.4 84.4 L25.7 85.85 25.1 87.85 24.1 89.25 24.0 90.0 19.4 100.4 Q9.85 99.55 8.1 96.25 L7.0 95.0 5.25 90.4 6.4 90.55 23.0 86.55 26.4 84.4 M-4.3 89.85 L-5.9 94.7 -8.0 97.1 -8.45 97.4 -8.75 97.55 -9.15 97.85 -9.45 98.0 Q-12.15 100.85 -26.45 100.1 L-35.45 98.4 -41.45 96.0 -41.6 96.0 -48.15 84.25 -48.9 83.7 -53.75 75.7 -53.9 75.4 -53.75 75.1 -52.75 70.25 -50.15 64.4 -48.0 65.85 -47.45 66.1 -47.0 66.4 -46.75 67.0 -46.3 67.0 -46.0 67.1 -45.6 67.4 -45.3 67.7 -45.0 67.85 -44.9 68.0 -44.45 68.1 -41.45 70.0 -38.45 71.25 -37.9 71.4 -37.6 71.55 -35.9 73.7 -26.6 82.7 -26.0 83.0 -25.6 83.1 -16.6 87.0 -16.15 87.1 -15.9 87.25 -13.15 88.4 -12.6 88.7 -11.0 89.4 -4.3 89.85 M49.25 67.4 L49.25 67.1 49.4 66.85 49.25 66.85 49.7 66.4 49.7 66.1 50.85 63.4 53.85 70.85 55.0 76.7 Q54.4 96.0 31.0 99.7 L31.1 99.1 45.4 77.0 45.55 76.25 47.0 73.25 47.25 72.4 48.0 70.85 48.1 70.4 48.55 69.25 48.55 69.1 48.7 69.1 48.7 68.7 49.0 68.25 49.25 67.4" fill="#e58508" fill-rule="evenodd" stroke="none"/>
    <path d="M15.0 9.4 Q8.1 6.4 16.1 5.0 19.85 7.55 15.0 9.4 M5.25 6.85 Q6.25 11.85 -0.45 8.7 -0.75 4.4 5.25 6.85" fill="#1f001f" fill-rule="evenodd" stroke="none"/>
    <path d="M65.85 20.55 L65.4 33.25 62.1 44.0 Q55.25 56.1 51.85 57.85 L50.85 62.55 Q56.0 72.85 54.7 82.4 52.1 94.85 31.25 99.7 L18.25 118.7 14.4 123.0 12.55 122.7 12.1 122.25 12.25 120.4 Q13.4 122.55 17.0 119.0 L25.85 105.0 26.25 103.7 27.0 103.1 28.1 100.7 28.55 100.55 29.7 98.1 30.4 97.55 31.55 95.1 39.4 83.1 42.1 76.1 Q39.55 83.85 43.85 77.0 L46.4 71.4 47.1 68.85 47.85 68.0 48.0 67.4 46.1 67.0 Q52.85 62.7 52.1 17.7 L52.4 17.55 52.7 18.25 53.1 26.25 54.25 26.0 56.7 23.85 Q64.55 14.7 62.7 7.7 L64.55 14.0 65.85 20.55 M35.1 34.4 L36.4 34.4 35.7 38.4 36.0 41.25 37.4 46.55 37.25 48.0 38.0 50.0 39.1 61.25 39.25 61.85 40.7 62.7 41.1 65.55 Q39.1 65.7 37.7 60.55 L36.25 44.7 32.4 39.1 31.0 36.1 30.85 35.55 35.1 34.4 M28.1 19.25 L29.7 50.25 30.0 69.0 30.25 69.25 Q34.0 66.55 34.85 67.0 L25.0 87.4 24.85 88.55 23.4 91.1 23.55 91.55 23.0 92.1 19.85 100.25 Q7.0 100.0 5.55 90.85 L5.25 90.4 -3.9 89.85 Q-3.45 98.85 -19.0 100.4 -31.0 100.7 -41.3 96.1 L-43.15 93.0 Q-32.15 98.0 -20.6 98.1 -20.15 95.55 -29.0 92.25 L-38.45 83.85 Q-41.7 82.45 -45.0 81.0 -46.45 79.85 -48.75 83.55 L-53.45 76.0 Q-54.75 74.25 -50.15 64.1 L-51.75 63.1 -57.9 56.7 -59.15 54.1 Q-60.3 54.0 -63.6 59.4 L-61.9 62.55 Q-64.6 60.55 -68.45 63.0 L-61.15 52.7 -60.6 52.55 -60.9 52.25 -60.3 52.1 -60.6 51.85 -60.0 51.85 -60.15 51.4 -59.45 51.25 -58.9 50.4 -59.3 50.1 -58.45 50.0 -56.3 46.7 -52.0 42.0 -51.45 40.7 -43.9 30.7 -36.9 19.7 -36.45 19.7 -39.9 32.1 -41.3 39.1 -30.15 41.1 -17.9 41.85 Q-19.9 47.0 -22.45 49.25 L-22.45 50.0 -27.75 56.0 -28.45 57.4 -33.15 61.7 -34.6 63.55 -27.45 68.7 -16.15 72.7 -12.15 74.7 -10.3 75.0 -10.0 73.55 -10.6 69.55 -10.9 61.25 -13.3 57.1 Q-9.45 53.4 -12.9 20.55 -7.6 40.4 4.55 41.25 28.1 43.1 28.1 19.25 M34.0 95.1 L33.1 96.4 33.4 96.85 34.1 96.7 34.4 95.1 34.0 95.1 M42.85 75.7 L42.55 75.25 42.85 74.55 43.25 74.55 42.85 75.7 M12.55 120.25 L12.25 120.0 12.7 120.0 12.55 120.25 M13.0 118.7 L12.85 119.0 12.55 118.7 13.0 118.7 M-12.3 20.4 L-12.75 20.4 -12.9 19.7 -12.45 19.7 -12.3 20.4 M-61.75 23.4 L-63.75 27.25 Q-65.15 25.55 -61.6 17.55 -62.45 19.7 -61.75 23.4 M-77.0 53.0 L-79.3 54.25 Q-80.3 52.7 -76.75 51.85 L-77.0 53.0 M-79.3 58.25 L-78.3 58.4 Q-78.9 62.0 -76.6 64.85 L-75.15 65.55 -71.0 65.1 -71.15 65.85 -71.75 66.0 -72.3 67.0 -67.45 75.25 -54.45 91.4 -52.6 93.1 -39.9 110.25 -34.3 116.85 -34.45 117.1 Q-30.9 119.55 -30.0 117.85 L-29.9 118.85 -30.6 119.7 -31.75 120.1 -33.9 118.85 -42.0 110.25 -41.9 110.0 -43.15 109.0 -43.0 108.7 -46.15 105.55 -46.0 105.25 -54.0 96.1 -70.15 76.0 Q-75.3 65.4 -78.75 64.4 L-79.3 63.1 Q-78.45 60.85 -79.3 58.25 M-70.0 64.4 L-69.3 63.85 -68.75 64.0 -69.15 64.4 -70.0 64.4 M-66.45 72.25 L-64.0 76.1 -63.3 78.1 -63.75 78.1 -67.15 72.0 -66.45 72.25" fill="#000000" fill-opacity="0.49803922" fill-rule="evenodd" stroke="none"/>
  </g>
</svg>
