<?xml version="1.0" encoding="UTF-8" standalone="no"?>
<svg xmlns:ffdec="https://www.free-decompiler.com/flash" xmlns:xlink="http://www.w3.org/1999/xlink" ffdec:objectType="shape" height="124.0px" width="150.25px" xmlns="http://www.w3.org/2000/svg">
  <g transform="matrix(1.0, 0.0, 0.0, 1.0, 84.9, 13.75)">
    <path d="M-8.3 -3.6 L-10.3 -6.9 -10.6 -11.0 -9.9 -11.6 -8.9 -12.0 -6.15 -12.6 1.0 -13.0 1.4 -12.9 3.7 -12.9 3.85 -12.6 5.1 -12.6 5.85 -12.75 6.4 -12.75 9.25 -13.3 15.1 -13.75 16.1 -13.6 17.4 -13.6 18.7 -13.3 19.4 -13.0 20.0 -12.45 19.7 -8.75 18.0 -5.0 Q13.4 1.25 5.1 -2.15 -3.0 1.85 -8.3 -3.6 M23.7 18.4 Q28.0 24.7 28.85 30.25 L34.7 39.85 Q45.25 47.1 45.25 49.4 L47.0 52.85 Q47.55 60.4 45.85 61.1 L45.4 61.55 44.7 62.55 44.55 63.0 44.1 63.25 42.55 65.55 42.25 65.85 35.55 75.25 21.4 84.1 4.7 87.7 -3.6 87.0 -11.6 86.25 -16.0 84.7 -16.6 84.4 -16.75 84.4 -28.15 79.25 -38.45 68.85 -38.6 68.55 -38.75 68.4 -39.15 67.4 -41.3 63.4 Q-39.45 61.4 -39.9 59.4 -23.6 46.85 -14.15 20.55 L-13.3 18.85 -12.75 19.4 -12.15 21.55 -11.6 22.7 -11.15 23.4 -11.0 23.7 -10.9 24.0 -10.9 24.1 -10.45 24.55 -10.45 24.7 -10.3 25.0 -9.9 25.55 -9.75 25.7 Q-1.6 35.7 5.85 34.0 L7.25 34.0 Q15.4 32.85 17.85 29.25 L19.85 27.1 19.85 27.0 21.1 25.0 23.1 20.85 23.7 18.4 M12.85 -6.9 Q4.7 -5.75 11.85 -2.3 16.7 -4.6 12.85 -6.9 M-3.6 -3.15 Q3.1 -0.15 1.85 -5.3 -3.0 -8.3 -3.9 -3.45 L-3.6 -3.15" fill="#ffffff" fill-rule="evenodd" stroke="none"/>
    <path d="M12.85 -6.9 Q16.7 -4.6 11.85 -2.3 4.7 -5.75 12.85 -6.9 M-3.6 -3.15 L-3.9 -3.45 Q-3.0 -8.3 1.85 -5.3 3.1 -0.15 -3.6 -3.15" fill="#1f001f" fill-rule="evenodd" stroke="none"/>
    <path d="M-8.3 -3.6 Q-3.0 1.85 5.1 -2.15 13.4 1.25 18.0 -5.0 24.25 -2.45 24.7 3.25 L24.85 5.7 24.55 14.1 23.7 18.4 23.1 20.85 21.1 25.0 19.85 27.0 19.85 27.1 17.85 29.25 Q15.4 32.85 7.25 34.0 L5.85 34.0 Q-1.6 35.7 -9.75 25.7 L-9.9 25.55 -10.3 25.0 -10.45 24.7 -10.45 24.55 -10.9 24.1 -10.9 24.0 -11.0 23.7 -11.15 23.4 -11.6 22.7 -12.15 21.55 -12.75 19.4 -13.3 18.85 -13.3 18.55 -15.15 11.1 Q-16.15 6.1 -15.45 5.55 -16.75 2.1 -8.3 -3.6 M45.85 61.1 L46.25 61.1 47.0 60.55 48.4 59.1 50.4 62.7 50.55 63.7 50.7 70.85 50.85 71.0 50.85 72.1 50.7 72.25 50.7 72.85 50.85 73.1 50.85 73.4 51.0 73.4 51.0 73.55 50.85 74.1 51.55 76.55 Q52.1 80.7 51.55 81.25 L52.25 88.0 Q44.25 98.4 27.55 100.1 15.0 102.0 8.1 96.25 L6.55 94.1 4.7 87.7 21.4 84.1 35.55 75.25 42.25 65.85 42.55 65.55 44.1 63.25 44.55 63.0 44.7 62.55 45.4 61.55 45.85 61.1 M-3.6 87.0 L-4.6 91.4 Q-6.0 95.55 -6.9 95.85 L-7.15 96.1 -8.0 97.1 -8.45 97.4 -8.75 97.55 -9.15 97.85 -9.45 98.0 Q-12.15 100.85 -26.45 100.1 L-35.45 98.4 -40.45 96.55 -42.6 92.4 -43.3 91.4 -52.9 74.55 -53.6 73.55 -53.6 73.25 -52.3 69.0 -49.3 62.4 -47.6 63.7 -46.15 64.55 -45.3 65.25 -45.15 65.25 -44.9 65.55 -43.75 66.1 -43.6 66.4 -42.75 66.85 -42.15 67.0 -40.75 67.7 -38.75 68.4 -38.6 68.55 -38.45 68.85 -28.15 79.25 -16.75 84.4 -16.6 84.4 -16.0 84.7 -11.6 86.25 -3.6 87.0" fill="#e58508" fill-rule="evenodd" stroke="none"/>
    <path d="M64.25 13.4 L65.25 19.0 65.25 23.55 Q66.0 31.85 62.1 40.7 L62.55 46.25 62.4 46.7 61.85 46.7 61.4 48.7 60.4 49.1 Q62.55 35.7 58.4 20.25 63.25 16.25 61.85 4.7 L64.25 13.4 M58.1 18.85 L58.55 18.85 58.55 19.25 58.1 18.85 M43.7 28.1 Q51.55 52.1 57.7 51.85 L55.25 53.0 53.25 53.1 52.4 52.25 51.4 52.4 Q49.1 52.4 50.55 57.4 L48.55 59.0 Q53.4 62.0 53.85 95.7 L53.25 96.1 52.4 88.0 Q49.7 94.7 31.4 99.7 L22.4 100.55 16.25 100.1 11.25 98.7 Q6.7 97.55 4.85 87.7 L-2.15 87.0 Q-4.75 86.55 -5.6 94.1 L-7.45 97.0 Q-13.0 101.25 -25.6 100.25 L-30.6 99.55 -39.3 97.0 -40.3 96.55 -41.75 93.85 Q-24.45 100.25 -15.3 97.25 -17.15 93.7 -31.0 88.7 L-41.45 78.55 Q-51.15 71.85 -53.15 73.7 -53.9 73.0 -52.3 69.0 L-49.15 62.4 Q-61.6 52.85 -63.3 43.0 -70.3 48.1 -67.45 50.7 L-70.6 50.55 Q-74.15 53.1 -74.9 52.85 L-73.9 52.1 -69.6 46.25 -69.0 46.25 -69.3 45.85 -68.15 45.25 -67.0 44.0 -67.6 43.7 -66.6 43.55 -65.15 41.55 -61.0 37.25 -60.45 37.1 -60.6 36.85 -46.15 19.1 -39.9 10.25 -39.15 10.4 -43.15 21.85 -47.45 37.7 Q-45.3 41.55 -27.75 46.85 L-30.3 50.85 -34.75 55.7 -35.3 57.0 -38.45 58.7 Q-37.9 68.25 -7.15 77.55 L-6.75 77.55 -7.0 76.4 -8.6 72.55 -10.45 64.85 -11.75 55.0 -12.3 53.25 -14.3 33.1 -15.6 10.0 Q-12.9 28.4 2.25 31.1 23.0 34.7 24.85 8.55 L25.25 8.7 25.85 29.1 25.25 49.55 23.4 66.25 21.1 75.1 Q59.4 55.0 35.7 40.85 L44.7 35.85 Q42.4 29.0 43.7 28.1 M62.7 48.4 L63.85 54.85 62.4 73.7 59.25 99.4 Q58.4 105.55 56.7 105.55 L55.55 105.1 54.4 102.1 Q57.1 103.85 58.1 101.55 L60.25 77.1 Q61.0 76.85 61.4 72.7 L62.55 63.1 62.1 59.7 63.0 59.55 63.25 57.7 63.25 54.55 62.4 48.55 62.7 48.4 M20.7 98.1 L25.7 98.1 Q63.0 91.7 49.4 73.7 43.25 86.85 21.0 96.0 L20.4 97.25 20.7 98.1 M58.85 50.7 L59.1 50.4 59.4 50.55 59.1 50.85 58.85 50.7 M53.4 96.4 L54.1 96.7 54.25 100.25 53.85 100.0 53.4 96.4 M54.0 100.7 L54.4 100.7 54.4 101.1 54.0 100.7 M-5.35 0.25 L0.3 0.25 -0.15 0.55 -5.35 0.25 M-77.3 57.0 L-76.9 57.0 -77.15 56.7 -77.3 57.0 M-77.15 57.85 L-77.6 57.85 -76.6 58.85 -77.15 57.85 M-78.3 61.4 L-80.3 57.1 -84.0 53.25 Q-84.9 51.4 -84.0 49.25 L-84.75 46.7 -84.0 46.7 -83.75 48.1 -83.15 48.25 Q-83.75 48.55 -83.15 51.85 L-81.75 54.4 -78.75 54.7 Q-77.15 53.25 -75.15 53.0 -74.6 53.7 -77.0 55.7 L-71.3 65.7 -57.75 82.55 -43.45 102.1 -39.15 107.25 -36.15 109.0 Q-33.0 108.25 -35.9 110.25 L-37.3 110.25 -41.9 106.0 -50.6 96.1 -71.45 70.4 -71.3 70.1 -78.3 61.4 M-67.75 66.0 L-68.15 66.0 -70.45 62.1 -69.75 62.4 -67.75 66.0 M-81.45 41.55 L-81.75 42.7 Q-85.15 43.55 -84.6 44.85 -85.9 42.4 -81.45 41.55" fill="#000000" fill-opacity="0.49803922" fill-rule="evenodd" stroke="none"/>
  </g>
</svg>
