<?xml version="1.0" encoding="UTF-8" standalone="no"?>
<svg xmlns:ffdec="https://www.free-decompiler.com/flash" xmlns:xlink="http://www.w3.org/1999/xlink" ffdec:objectType="shape" height="125.2px" width="159.5px" xmlns="http://www.w3.org/2000/svg">
  <g transform="matrix(1.0, 0.0, 0.0, 1.0, 82.7, 24.7)">
    <path d="M9.3 -18.0 Q13.65 -15.5 8.65 -13.2 2.0 -16.85 9.3 -18.0 M-1.35 -16.7 Q0.0 -10.85 -6.7 -14.5 L-7.0 -14.85 Q-6.2 -19.7 -1.35 -16.7" fill="#1f001f" fill-rule="evenodd" stroke="none"/>
    <path d="M-10.7 -14.2 Q-11.7 -14.2 -13.0 -17.7 L-13.5 -22.0 -12.7 -22.7 -11.85 -23.2 -10.5 -23.7 -5.85 -24.35 1.0 -24.2 1.0 -24.0 1.8 -23.85 2.15 -23.7 2.8 -24.0 3.15 -24.0 3.15 -24.2 5.8 -24.35 6.3 -24.5 12.0 -24.7 13.5 -24.5 15.65 -23.85 16.3 -23.5 17.15 -22.7 Q17.3 -18.7 16.5 -18.2 L15.0 -15.0 Q11.3 -9.7 2.15 -13.0 -6.2 -9.2 -10.7 -14.2 M20.65 9.0 L21.3 10.15 24.8 17.65 26.5 23.65 32.65 34.5 Q43.3 42.15 45.3 49.5 L45.5 57.8 43.3 61.5 43.15 61.8 42.15 63.3 41.65 63.8 41.5 64.15 41.0 64.8 40.65 65.15 33.5 74.0 20.0 81.65 4.3 84.65 -3.2 84.15 -14.85 82.8 -22.85 79.0 -23.0 79.0 -29.7 75.8 -29.85 75.8 -38.5 66.65 -40.0 65.5 -40.0 64.8 -42.0 60.65 -42.7 58.3 Q-41.7 57.8 -41.35 54.5 -25.7 39.65 -16.7 11.5 L-15.85 9.8 -15.7 9.8 -14.7 12.5 -14.5 12.65 -14.35 13.0 -14.0 13.3 -13.85 13.8 -13.5 14.5 -13.0 15.0 Q-5.85 24.65 1.15 23.5 L1.3 23.65 3.5 23.65 3.5 23.5 3.8 23.5 Q11.0 23.8 16.8 16.65 L16.8 16.5 18.0 14.8 18.15 14.65 18.65 13.65 18.65 13.3 18.8 13.15 19.5 11.8 20.15 9.3 20.65 9.0 M9.3 -18.0 Q2.0 -16.85 8.65 -13.2 13.65 -15.5 9.3 -18.0 M-1.35 -16.7 Q-6.2 -19.7 -7.0 -14.85 L-6.7 -14.5 Q0.0 -10.85 -1.35 -16.7" fill="#ffffff" fill-rule="evenodd" stroke="none"/>
    <path d="M15.0 -15.0 Q19.15 -15.2 22.0 -5.7 L20.65 9.0 20.15 9.3 19.5 11.8 18.8 13.15 18.65 13.3 18.65 13.65 18.15 14.65 18.0 14.8 16.8 16.5 16.8 16.65 Q11.0 23.8 3.8 23.5 L3.5 23.5 3.5 23.65 1.3 23.65 1.15 23.5 Q-5.85 24.65 -13.0 15.0 L-13.5 14.5 -13.85 13.8 -14.0 13.3 -14.35 13.0 -14.5 12.65 -14.7 12.5 -15.7 9.8 -15.85 9.8 Q-17.85 7.0 -18.0 -4.5 -17.35 -11.0 -10.7 -14.2 -6.2 -9.2 2.15 -13.0 11.3 -9.7 15.0 -15.0 M43.3 61.5 L43.8 61.3 44.5 60.8 44.8 60.65 45.8 60.0 46.3 59.5 47.8 58.5 49.3 60.3 52.8 67.8 54.65 75.65 54.65 75.8 54.8 76.5 Q55.15 96.5 27.3 100.3 L16.3 100.15 Q11.3 99.65 8.15 96.3 L6.15 93.15 5.15 90.15 4.3 84.65 20.0 81.65 33.5 74.0 40.65 65.15 41.0 64.8 41.5 64.15 41.65 63.8 42.15 63.3 43.15 61.8 43.3 61.5 M-3.2 84.15 L-4.5 91.0 Q-6.2 96.0 -7.2 96.15 L-7.5 96.65 -8.0 97.15 -8.35 97.3 -9.7 98.15 Q-14.2 101.15 -25.5 100.15 L-26.5 100.15 Q-55.85 95.5 -53.85 75.8 L-52.7 70.0 -48.35 60.65 -45.35 62.65 -44.7 63.3 -44.5 63.3 -44.35 63.5 -43.5 63.8 -42.2 64.65 -42.0 64.65 -41.7 64.8 -40.7 65.15 -40.0 65.5 -38.5 66.65 -29.85 75.8 -29.7 75.8 -23.0 79.0 -22.85 79.0 -14.85 82.8 -3.2 84.15" fill="#e58508" fill-rule="evenodd" stroke="none"/>
    <path d="M49.0 15.65 L48.3 13.65 48.8 13.5 Q63.8 34.65 68.3 34.65 66.15 36.5 63.15 36.8 L63.0 39.8 66.15 47.3 68.8 57.65 74.15 74.65 74.65 75.0 75.15 74.5 74.3 59.65 75.0 52.3 74.65 45.65 Q74.65 40.8 75.65 40.5 L76.8 62.3 76.8 72.5 76.3 77.5 75.5 78.3 73.8 78.15 72.3 75.65 68.65 64.65 68.65 63.3 65.65 53.65 62.65 39.65 62.0 39.0 59.8 44.8 Q52.3 56.15 48.0 58.15 L49.8 61.15 52.65 67.8 51.3 68.0 Q50.5 69.3 47.5 70.5 L47.65 72.3 37.65 83.8 26.0 89.8 22.15 92.3 15.0 94.15 11.8 96.3 Q35.15 102.5 52.5 86.0 51.3 92.15 42.0 96.3 L33.3 99.3 24.5 100.5 16.3 100.15 11.15 98.65 Q5.8 97.15 4.3 84.65 L-1.85 84.15 Q-4.35 84.3 -5.5 94.15 L-7.7 97.15 Q-12.2 101.3 -26.7 100.15 -38.0 99.3 -48.2 91.65 L-51.2 88.15 -53.7 82.0 Q-41.2 102.15 -9.5 96.0 L-11.35 94.3 -16.5 92.65 -32.7 85.3 -43.85 74.0 -48.5 71.8 -51.0 70.0 -52.35 69.8 -51.7 67.5 -48.2 60.5 Q-59.7 52.3 -63.35 41.15 L-64.35 37.65 -65.35 30.0 -68.85 33.5 -67.75 39.65 Q-68.9 34.45 -79.85 39.0 L-79.0 39.8 -78.2 46.5 Q-76.0 55.5 -74.0 55.8 L-64.85 86.0 -64.35 87.0 -62.35 87.0 -62.0 86.15 Q-61.35 86.3 -61.85 89.0 L-63.85 89.5 -64.85 88.65 -66.7 85.15 -68.85 78.65 -70.2 76.15 -78.35 51.65 -78.35 50.5 -81.35 41.65 -81.7 36.65 -82.7 34.65 -82.35 29.0 Q-82.5 36.5 -76.85 36.5 -74.85 37.5 -68.5 30.15 L-67.35 29.8 -51.35 13.3 -44.35 5.3 -44.2 6.5 -46.85 11.5 -52.35 26.0 -52.85 26.3 -54.7 32.0 -54.85 34.15 -46.35 43.65 -40.85 47.3 -36.35 49.5 Q-35.7 51.15 -41.2 54.5 L-32.35 65.15 -16.7 74.5 -10.35 76.0 2.15 77.8 Q21.8 76.8 37.5 62.5 L45.0 49.8 44.15 46.65 Q41.3 43.3 41.8 42.65 L47.0 39.3 52.5 33.8 54.65 30.8 51.5 20.8 49.0 15.65 M75.15 34.5 L75.5 39.8 Q73.5 36.0 74.65 34.5 L75.15 34.5 M73.8 30.65 L73.5 29.5 74.0 29.5 74.3 30.8 73.8 30.65 M71.8 28.0 L71.65 28.5 71.15 28.0 71.8 28.0 M68.0 33.15 L69.8 33.0 68.8 33.8 68.0 33.15 M70.5 31.15 L70.3 31.5 70.0 31.15 70.5 31.15 M54.3 83.3 L54.15 82.3 54.65 82.5 54.3 83.3 M53.65 84.8 L53.3 84.3 53.65 83.5 54.15 83.5 53.65 84.8 M-82.7 28.0 L-82.2 28.0 -82.2 28.5 -82.7 28.0 M2.8 22.0 Q19.0 22.8 22.5 -0.35 24.15 57.8 5.15 62.0 -18.2 63.8 -18.0 1.0 -13.85 22.65 2.8 22.0" fill="#000000" fill-opacity="0.49803922" fill-rule="evenodd" stroke="none"/>
  </g>
</svg>
