<?xml version="1.0" encoding="UTF-8" standalone="no"?>
<svg xmlns:ffdec="https://www.free-decompiler.com/flash" xmlns:xlink="http://www.w3.org/1999/xlink" ffdec:objectType="shape" height="135.75px" width="184.85px" xmlns="http://www.w3.org/2000/svg">
  <g transform="matrix(1.0, 0.0, 0.0, 1.0, 93.0, 35.15)">
    <path d="M-13.0 -24.3 L-15.3 -28.0 -15.6 -32.3 -15.45 -32.75 -14.15 -33.9 Q-13.5 -34.15 -12.9 -34.45 L-11.45 -34.75 -4.45 -35.15 -2.45 -34.9 -1.75 -34.75 -1.0 -34.45 -0.45 -34.45 0.0 -34.6 0.25 -34.75 0.85 -34.75 1.55 -34.9 8.85 -35.15 10.55 -34.9 12.0 -34.45 14.0 -33.45 14.55 -32.75 14.4 -28.45 12.25 -24.75 Q9.4 -19.9 -0.6 -23.45 -10.45 -20.0 -13.0 -24.3 M17.7 -0.6 L22.4 10.1 24.7 17.55 30.7 29.1 Q41.4 37.7 44.1 47.1 L44.1 55.7 41.1 61.55 41.0 61.85 40.55 62.4 40.1 62.7 40.0 63.0 39.55 63.4 39.1 64.0 33.25 70.55 32.55 71.7 31.85 72.0 18.0 79.1 3.85 82.25 -2.9 81.7 -11.6 80.7 -14.9 79.85 Q-23.15 76.0 -31.45 72.1 L-38.6 64.4 -39.0 63.85 -39.45 63.4 -40.0 63.25 -43.3 56.4 -44.0 53.7 Q-42.45 52.4 -42.75 49.4 -28.15 33.0 -18.9 2.7 L-18.0 1.0 -17.9 1.0 -17.6 1.85 -17.15 2.55 -16.9 3.1 -16.75 3.25 -16.9 3.25 -15.45 5.85 -13.75 8.1 -9.6 11.25 Q-7.85 12.0 -6.15 12.7 L-0.9 13.4 0.1 13.4 Q11.4 13.25 16.25 2.7 16.25 2.55 16.4 2.55 L16.55 2.25 16.55 2.0 16.7 1.7 17.4 -0.15 17.4 -0.3 17.7 -0.6 M6.85 -28.6 Q-1.15 -27.45 5.7 -23.6 10.85 -25.45 6.85 -28.6 M-9.6 -25.6 L-9.3 -25.15 Q-2.75 -21.6 -3.75 -27.15 -9.45 -30.6 -9.6 -25.6" fill="#ffffff" fill-rule="evenodd" stroke="none"/>
    <path d="M6.85 -28.6 Q10.85 -25.45 5.7 -23.6 -1.15 -27.45 6.85 -28.6 M-9.6 -25.6 Q-9.45 -30.6 -3.75 -27.15 -2.75 -21.6 -9.3 -25.15 L-9.6 -25.6" fill="#1f001f" fill-rule="evenodd" stroke="none"/>
    <path d="M12.25 -24.75 Q18.0 -22.3 19.55 -14.3 L19.7 -10.6 18.4 -3.6 18.4 -3.45 18.25 -2.9 18.1 -2.75 17.7 -0.6 17.4 -0.3 17.4 -0.15 16.7 1.7 16.55 2.0 16.55 2.25 16.4 2.55 Q16.25 2.55 16.25 2.7 11.4 13.25 0.1 13.4 L-0.9 13.4 -6.15 12.7 Q-7.85 12.0 -9.6 11.25 L-13.75 8.1 -15.45 5.85 -16.9 3.25 -16.75 3.25 -16.9 3.1 -17.15 2.55 -17.6 1.85 -17.9 1.0 -18.0 1.0 -19.6 -4.15 -20.45 -11.0 -20.3 -14.15 Q-19.15 -21.15 -13.0 -24.3 -10.45 -20.0 -0.6 -23.45 9.4 -19.9 12.25 -24.75 M41.1 61.55 L41.85 61.4 43.1 60.85 43.55 60.55 47.4 57.4 Q53.85 67.4 55.0 76.7 56.4 95.4 27.4 100.25 15.0 101.85 8.1 96.25 7.1 96.1 5.4 91.1 L3.85 82.25 18.0 79.1 31.85 72.0 32.55 71.7 33.25 70.55 39.1 64.0 39.55 63.4 40.0 63.0 40.1 62.7 40.55 62.4 41.0 61.85 41.1 61.55 M-2.9 81.7 Q-4.45 94.1 -6.9 95.85 L-7.15 96.1 -8.0 97.1 -8.45 97.4 -8.75 97.55 -9.15 97.85 -9.45 98.0 Q-12.15 100.85 -26.45 100.1 -55.0 96.1 -53.9 76.0 L-52.75 70.25 -49.0 61.4 -47.3 58.85 -45.0 60.25 -43.75 61.25 -43.15 61.55 -43.0 61.85 -42.75 62.0 -42.6 62.0 -42.45 62.1 -40.0 63.25 -39.45 63.4 -39.0 63.85 -38.6 64.4 -31.45 72.1 Q-23.15 76.0 -14.9 79.85 L-11.6 80.7 -2.9 81.7" fill="#e58508" fill-rule="evenodd" stroke="none"/>
    <path d="M-50.6 -1.3 L-51.0 -0.15 -57.9 9.4 -61.6 17.85 -60.75 23.25 -56.6 33.25 -56.15 35.25 -48.75 44.0 -42.15 48.4 -42.0 49.1 -42.9 49.25 -42.75 50.25 -33.9 62.4 -18.45 72.85 0.55 76.25 Q19.85 74.85 32.85 63.7 46.4 49.55 43.4 45.4 L44.7 44.85 48.25 41.85 53.85 35.4 58.85 26.0 61.1 17.4 57.4 9.55 50.0 -1.3 52.0 0.1 53.1 0.4 55.0 2.25 68.7 11.25 70.55 11.55 76.55 15.1 77.0 14.55 Q76.5 14.45 76.4 14.0 L78.55 13.25 Q77.55 16.7 73.55 17.85 L73.85 18.25 73.55 19.4 74.85 20.85 Q74.4 21.4 76.85 24.55 78.55 24.55 84.25 33.55 L85.55 33.85 86.25 34.7 87.55 34.55 87.55 26.1 Q86.7 25.55 86.85 20.55 L86.55 20.1 87.1 20.4 91.85 43.1 91.85 47.85 Q84.85 47.55 70.85 15.1 L63.1 10.4 Q70.7 36.7 47.4 57.25 L49.25 60.25 51.85 66.0 50.4 66.1 Q49.4 67.7 46.1 68.7 L46.0 70.7 36.0 82.1 19.7 90.1 Q11.1 90.55 8.1 93.7 34.55 105.85 54.7 82.4 L52.25 88.0 49.85 91.0 45.7 94.4 Q39.25 99.25 22.4 100.55 L16.4 100.1 Q10.55 98.85 9.1 97.4 5.4 95.4 4.0 82.4 L-1.6 81.7 Q-4.15 82.1 -5.0 92.85 L-7.45 97.0 Q-13.0 101.25 -25.45 100.25 L-34.3 98.7 -37.15 97.85 -44.45 94.4 Q-51.3 90.1 -53.6 82.25 -35.0 105.25 -6.75 93.85 -10.45 90.1 -16.6 90.1 L-34.9 81.4 -45.0 70.25 -49.9 67.4 -51.15 67.1 -49.3 62.1 -47.15 58.85 Q-58.3 51.0 -62.6 40.0 L-64.3 34.85 -65.6 21.1 -65.0 14.25 -64.15 10.85 -64.75 10.7 -71.45 15.1 -80.0 32.0 -88.6 46.4 -90.9 48.7 -92.3 48.55 Q-94.9 45.25 -88.15 20.1 L-87.45 19.7 -88.0 21.7 -87.75 22.1 Q-88.9 26.85 -88.3 28.7 L-88.75 29.55 -88.15 31.0 -88.3 34.85 -85.0 33.7 Q-80.3 26.0 -78.45 25.7 -79.15 24.7 -76.15 21.4 L-75.6 20.55 -74.45 20.0 Q-73.15 18.1 -78.15 15.4 L-77.8 15.2 -79.6 13.7 -78.0 14.1 -77.75 15.2 -73.6 12.7 Q-70.15 12.0 -68.0 10.55 L-56.45 2.85 -54.45 0.85 -53.3 0.55 -51.75 -0.9 -50.6 -1.3 M-76.6 21.25 L-76.9 21.1 -76.6 20.7 -76.3 20.55 -76.6 21.25 M-76.3 19.7 L-75.9 19.7 -76.0 20.0 -76.3 19.7 M-77.3 21.85 L-76.9 21.85 -77.0 22.1 -77.3 21.85 M0.55 42.25 Q-17.7 44.05 -20.0 0.75 L-20.3 -8.9 Q-19.85 -3.4 -18.1 0.75 -13.45 12.1 0.7 13.25 12.6 12.25 17.2 0.75 19.05 -3.9 19.7 -10.3 L19.35 0.75 Q16.95 42.8 0.55 42.25" fill="#000000" fill-opacity="0.49803922" fill-rule="evenodd" stroke="none"/>
  </g>
</svg>
