<?xml version="1.0" encoding="UTF-8" standalone="no"?>
<svg xmlns:ffdec="https://www.free-decompiler.com/flash" xmlns:xlink="http://www.w3.org/1999/xlink" ffdec:objectType="shape" height="309.7px" width="481.45px" xmlns="http://www.w3.org/2000/svg">
  <g transform="matrix(1.0, 0.0, 0.0, 1.0, 184.75, 147.3)">
    <path d="M178.5 -89.25 Q185.2 -97.15 196.0 -96.05 248.0 -92.1 294.5 -66.5 298.15 -64.5 295.75 -63.15 243.25 -34.05 184.5 -41.0 141.5 -28.85 96.75 -25.75 112.0 3.45 118.45 35.65 128.45 85.4 93.6 112.05 85.45 118.25 74.9 123.25 51.6 154.9 12.6 160.9 L9.85 161.3 -6.55 162.4 Q-51.8 162.5 -85.25 128.75 -88.6 127.5 -91.55 125.6 L-97.8 121.35 Q-145.15 87.15 -139.25 24.0 L-155.0 37.25 Q-162.95 72.8 -181.15 103.85 -182.5 106.1 -182.7 104.7 -189.1 59.25 -175.6 14.95 -173.5 8.05 -169.0 2.25 -151.75 -19.9 -132.55 -39.95 -113.8 -59.45 -102.45 -84.15 -82.85 -126.95 -41.65 -146.8 L-37.95 -147.0 Q13.75 -127.1 51.0 -83.25 113.5 -100.0 178.5 -89.25" fill="#2e47aa" fill-rule="evenodd" stroke="none"/>
  </g>
</svg>
