<?xml version="1.0" encoding="UTF-8" standalone="no"?>
<svg xmlns:ffdec="https://www.free-decompiler.com/flash" xmlns:xlink="http://www.w3.org/1999/xlink" ffdec:objectType="shape" height="356.6px" width="375.45px" xmlns="http://www.w3.org/2000/svg">
  <g transform="matrix(1.0, 0.0, 0.0, 1.0, 187.25, 192.15)">
    <path d="M73.25 122.55 L71.75 123.5 Q57.1 143.25 36.4 153.5 24.25 159.5 10.0 162.25 L8.4 162.55 Q0.65 163.9 -6.7 164.3 -34.5 165.75 -57.3 153.5 -73.4 144.8 -87.0 129.25 L-97.0 114.5 -87.5 129.25 -100.0 122.0 -106.3 117.0 Q-146.25 83.05 -142.75 25.0 L-157.5 38.5 Q-165.1 73.2 -179.5 105.6 -180.6 108.1 -181.05 106.85 -191.95 75.35 -183.65 39.15 -169.95 -20.4 -121.25 -60.5 -102.75 -112.45 -59.35 -143.45 -56.0 -145.85 -52.2 -144.75 4.45 -129.4 44.5 -82.75 L72.5 -90.5 82.5 -93.25 89.0 -95.0 92.0 -95.8 92.45 -95.95 Q93.7 -100.15 95.8 -104.05 122.9 -154.55 171.25 -187.4 191.05 -200.75 187.75 -176.6 185.35 -159.05 182.4 -141.55 L178.65 -120.55 Q175.0 -101.1 165.0 -87.2 157.25 -76.45 145.75 -69.0 134.75 -59.25 121.85 -52.5 108.55 -45.6 93.25 -41.8 L92.0 -41.5 89.0 -40.85 83.25 -39.75 Q100.65 -16.25 111.75 10.7 135.2 67.5 91.9 109.35 L91.75 109.5 86.75 113.75 82.6 117.0 Q78.1 120.25 73.1 122.85 L73.25 122.55 73.25 122.6 73.95 122.15 73.25 122.55 M-1.0 -6.5 L-1.15 -6.0 -1.25 -5.7 -0.5 -5.4 -0.65 -5.8 -1.0 -6.5" fill="#2e47aa" fill-rule="evenodd" stroke="none"/>
    <path d="M73.25 122.55 L73.95 122.15 73.25 122.6 73.25 122.55 M-1.0 -6.5 L-0.65 -5.8 -0.5 -5.4 -1.25 -5.7 -1.15 -6.0 -1.0 -6.5" fill="#ffffff" fill-rule="evenodd" stroke="none"/>
  </g>
</svg>
