<?xml version="1.0" encoding="UTF-8" standalone="no"?>
<svg xmlns:ffdec="https://www.free-decompiler.com/flash" xmlns:xlink="http://www.w3.org/1999/xlink" ffdec:objectType="shape" height="10.6px" width="10.6px" xmlns="http://www.w3.org/2000/svg">
  <g transform="matrix(1.0, 0.0, 0.0, 1.0, 5.3, 5.3)">
    <path d="M-4.3 -2.15 L-3.4 -3.4 Q-2.0 -4.85 0.0 -4.8 1.95 -4.85 3.4 -3.4 4.8 -2.0 4.8 0.0 4.8 1.75 3.65 3.1 -3.0 3.95 -4.3 -2.15" fill="#ffffff" fill-rule="evenodd" stroke="none"/>
    <path d="M3.65 3.1 L3.4 3.4 Q1.95 4.8 0.0 4.8 -2.0 4.8 -3.4 3.4 -4.8 1.95 -4.8 0.0 -4.8 -1.2 -4.3 -2.15 -3.0 3.95 3.65 3.1" fill="#cccccc" fill-rule="evenodd" stroke="none"/>
    <path d="M-4.3 -2.15 L-3.4 -3.4 Q-2.0 -4.85 0.0 -4.8 1.95 -4.85 3.4 -3.4 4.8 -2.0 4.8 0.0 4.8 1.75 3.65 3.1 L3.4 3.4 Q1.95 4.8 0.0 4.8 -2.0 4.8 -3.4 3.4 -4.8 1.95 -4.8 0.0 -4.8 -1.2 -4.3 -2.15 Z" fill="none" stroke="#666666" stroke-linecap="round" stroke-linejoin="round" stroke-width="1.0"/>
  </g>
</svg>
