<?xml version="1.0" encoding="UTF-8" standalone="no"?>
<svg xmlns:ffdec="https://www.free-decompiler.com/flash" xmlns:xlink="http://www.w3.org/1999/xlink" ffdec:objectType="shape" height="104.7px" width="99.3px" xmlns="http://www.w3.org/2000/svg">
  <g transform="matrix(1.0, 0.0, 0.0, 1.0, 49.65, 52.35)">
    <path d="M-8.5 -34.95 L2.8 -37.95 Q-2.25 -39.95 -7.65 -40.7 L-7.85 -42.05 -7.65 -43.4 0.85 -44.85 2.5 -44.25 2.9 -44.05 Q4.9 -41.95 6.05 -39.15 L6.15 -38.85 10.1 -39.9 11.95 -39.35 Q20.45 -36.15 26.95 -28.95 L22.35 -28.95 Q23.85 -27.25 21.05 -24.35 L20.75 -24.2 Q18.9 -24.0 17.9 -25.45 17.8 -26.0 18.05 -26.55 L18.25 -27.05 16.6 -28.95 8.35 -28.95 9.4 -34.75 0.7 -30.5 2.9 -27.1 Q5.15 -23.7 5.15 -19.6 L4.8 -16.05 -7.45 -23.85 -9.35 -23.2 -21.6 -7.0 -22.95 -8.0 -22.35 -12.95 Q-20.6 -13.45 -21.1 -14.3 L-23.3 -20.1 Q-23.8 -21.55 -25.15 -21.8 L-25.35 -21.8 Q-22.8 -24.9 -19.9 -27.35 L-9.0 -29.15 -6.3 -32.9 -8.5 -34.95 M-24.0 -12.35 L-24.85 -10.9 -27.75 0.15 -28.25 2.05 -31.3 0.85 -31.2 -10.55 -24.0 -12.35 M-37.3 -15.5 L-38.15 -14.7 -38.8 -13.0 -40.3 -13.1 -40.5 -13.45 -40.5 -17.5 -38.7 -19.65 -38.55 -19.3 -37.3 -15.5 M-11.05 -43.9 L-10.95 -43.4 Q-11.2 -41.7 -13.0 -41.3 -14.35 -41.05 -14.75 -42.3 -14.05 -44.2 -12.15 -44.85 -11.3 -44.75 -11.05 -43.9 M-23.5 -34.15 L-23.75 -32.7 Q-26.7 -27.75 -31.85 -25.1 L-32.85 -24.7 -28.45 -37.0 -18.0 -39.2 -17.95 -38.35 Q-20.25 -38.35 -21.95 -36.65 L-22.45 -36.1 -22.5 -36.05 Q-23.2 -35.25 -23.5 -34.15 M-39.75 -7.4 Q-39.35 -8.35 -38.5 -8.4 -37.25 -7.3 -37.15 -5.25 L-37.05 -4.95 -35.8 -3.9 Q-35.8 -1.8 -37.65 -0.3 L-37.75 -0.1 Q-38.5 0.7 -39.5 0.25 -41.3 -3.25 -39.75 -7.4" fill="#ffe0ae" fill-rule="evenodd" stroke="none"/>
    <path d="M-22.35 -12.95 L-22.95 -8.0 -21.6 -7.0 -9.35 -23.2 -7.45 -23.85 4.8 -16.05 5.15 -19.6 Q5.15 -23.7 2.9 -27.1 L0.7 -30.5 9.4 -34.75 8.35 -28.95 16.6 -28.95 18.25 -27.05 18.05 -26.55 Q17.8 -26.0 17.9 -25.45 18.9 -24.0 20.75 -24.2 L21.05 -24.35 Q23.85 -27.25 22.35 -28.95 L26.95 -28.95 Q20.45 -36.15 11.95 -39.35 L10.1 -39.9 6.15 -38.85 6.05 -39.15 Q4.9 -41.95 2.9 -44.05 L2.5 -44.25 0.85 -44.85 -7.65 -43.4 -7.85 -42.05 -7.65 -40.7 Q-2.25 -39.95 2.8 -37.95 L-8.5 -34.95 -10.35 -35.45 -10.7 -35.95 -12.55 -38.85 -17.95 -38.35 -18.0 -39.2 -28.45 -37.0 -32.85 -24.7 -31.85 -25.1 Q-26.7 -27.75 -23.75 -32.7 L-23.3 -27.6 -19.9 -27.35 Q-22.8 -24.9 -25.35 -21.8 L-27.95 -22.6 Q-33.5 -24.1 -39.3 -23.5 L-39.85 -23.2 -39.7 -22.75 -38.7 -19.65 -40.5 -17.5 -40.5 -13.45 -40.3 -13.1 -38.8 -13.0 -38.15 -14.7 -37.3 -15.5 -35.55 -10.25 -31.2 -10.55 -31.3 0.85 -28.25 2.05 -27.75 0.15 -24.85 -10.9 -24.0 -12.35 -22.35 -12.95 M-11.05 -43.9 Q-11.3 -44.75 -12.15 -44.85 -14.05 -44.2 -14.75 -42.3 -14.35 -41.05 -13.0 -41.3 -11.2 -41.7 -10.95 -43.4 L-11.05 -43.9 M2.25 -5.65 L2.1 -4.1 3.95 -2.25 6.7 -2.05 Q9.25 1.15 12.65 2.2 L15.05 2.2 Q17.15 -5.35 12.55 -11.45 L11.3 -12.95 10.0 -12.05 4.1 -7.5 3.25 -6.85 2.25 -5.65 M33.85 -22.35 L33.95 -22.85 21.55 -19.9 18.75 -19.25 18.8 -19.15 18.95 -18.55 Q21.2 -9.8 26.75 -3.1 27.3 -2.6 28.15 -2.25 L29.85 -2.55 33.85 -22.35 M40.15 -20.2 L39.55 -17.2 35.65 -18.75 34.1 -18.05 Q36.4 -14.2 38.0 -10.0 L38.75 -7.8 Q38.5 -4.3 37.3 -1.1 36.5 -2.6 35.1 -3.8 L34.9 -3.65 Q34.65 -2.4 33.6 -2.45 L33.25 -2.25 Q32.85 -1.95 32.75 -1.45 L32.8 -1.2 Q33.1 0.05 34.1 1.0 L34.2 1.8 Q34.0 3.95 34.95 5.85 35.4 6.5 36.2 6.6 L36.6 6.3 38.2 3.95 38.2 3.7 38.2 3.2 40.7 0.2 Q42.95 15.1 35.15 27.45 35.0 27.2 34.5 27.25 34.05 27.25 34.1 26.7 34.2 25.35 33.75 24.2 L33.75 24.35 34.15 16.5 34.3 14.15 30.0 13.8 25.1 20.6 25.85 21.6 Q27.5 23.7 29.8 25.3 L27.1 31.75 31.2 32.75 Q28.25 36.05 24.85 38.55 L24.75 38.4 24.95 38.15 Q27.5 35.4 25.35 33.35 L25.35 33.45 Q23.25 36.0 21.05 39.3 L4.55 39.95 4.5 39.7 Q4.6 38.35 3.35 38.5 3.05 38.7 3.05 39.05 2.95 40.0 3.1 40.95 L4.1 41.55 5.5 41.7 -0.05 43.3 -0.1 43.45 Q6.35 46.7 9.15 42.0 13.2 42.25 17.25 42.1 L17.6 42.4 17.8 42.6 Q12.15 45.05 5.5 45.65 -14.9 47.8 -27.6 35.65 L-27.05 36.15 Q-26.6 35.75 -26.5 35.15 -26.3 33.85 -26.85 32.75 L-26.6 32.45 Q-26.2 32.15 -26.15 31.65 L-26.35 31.2 Q-27.75 29.15 -28.55 26.8 -28.7 26.65 -28.85 26.6 L-30.55 25.95 Q-31.5 26.05 -31.5 27.15 -31.55 29.55 -31.1 31.85 -33.3 29.1 -35.25 25.85 -36.8 29.8 -34.9 33.9 L-36.65 33.8 Q-45.8 19.9 -46.45 3.4 -47.35 -13.3 -38.8 -27.95 -30.15 -43.45 -13.1 -47.85 2.75 -51.8 17.05 -44.15 32.4 -35.95 40.15 -20.2 M24.95 7.8 Q23.95 8.35 24.2 9.55 L23.7 9.95 23.45 10.2 Q21.5 14.15 20.15 17.75 22.8 17.25 24.3 15.25 L24.3 15.5 Q24.45 17.05 25.35 17.85 L25.7 17.5 Q26.9 13.1 26.45 8.4 L26.25 8.15 25.35 7.65 24.95 7.8 M33.7 29.1 Q32.9 30.6 33.65 29.15 L33.7 29.1 M8.4 24.05 Q5.75 25.65 2.75 27.05 L2.55 27.35 2.35 28.15 5.0 28.2 Q8.8 26.4 8.4 24.05 M15.05 31.1 L15.15 32.75 Q15.4 33.65 16.35 33.35 L18.85 30.65 18.95 30.45 Q19.95 29.1 18.7 28.2 16.75 29.0 15.0 30.3 L15.05 31.1 M2.7 13.05 Q1.85 16.15 -0.85 17.95 0.3 18.95 2.3 18.55 L2.45 18.3 Q4.4 14.9 2.4 12.65 L2.7 13.05 M-9.7 25.55 L-10.55 23.0 -12.75 21.6 -15.5 23.0 -15.6 23.45 -16.55 28.05 Q-17.45 26.65 -18.65 25.6 -20.1 25.6 -21.25 26.25 L-21.25 26.5 Q-21.2 27.25 -20.45 27.6 L-20.4 28.4 Q-19.65 30.6 -18.3 32.45 L-17.5 32.55 -18.35 36.6 -7.3 41.55 -5.45 38.85 -9.7 25.55 M-39.75 -7.4 Q-41.3 -3.25 -39.5 0.25 -38.5 0.7 -37.75 -0.1 L-37.65 -0.3 Q-35.8 -1.8 -35.8 -3.9 L-37.05 -4.95 -37.15 -5.25 Q-37.25 -7.3 -38.5 -8.4 -39.35 -8.35 -39.75 -7.4" fill="#ffcc66" fill-rule="evenodd" stroke="none"/>
    <path d="M-8.5 -34.95 L-6.3 -32.9 -9.0 -29.15 -19.9 -27.35 -23.3 -27.6 -23.75 -32.7 -23.5 -34.15 -21.45 -33.65 -21.2 -33.55 -21.0 -33.4 -20.75 -33.1 Q-17.7 -32.15 -14.75 -33.1 L-14.45 -33.6 -14.25 -34.1 Q-12.6 -35.35 -10.7 -35.95 L-10.35 -35.45 -8.5 -34.95 M-25.15 -21.8 Q-23.8 -21.55 -23.3 -20.1 L-21.1 -14.3 Q-20.6 -13.45 -22.35 -12.95 L-24.0 -12.35 -31.2 -10.55 -35.55 -10.25 -37.3 -15.5 -38.55 -19.3 Q-35.05 -17.45 -30.65 -17.25 L-30.45 -17.4 -25.25 -21.7 -25.15 -21.8 M2.25 -5.65 L2.25 -5.45 10.3 -5.95 10.5 -6.2 12.55 -11.45 Q17.15 -5.35 15.05 2.2 L12.65 2.2 Q9.25 1.15 6.7 -2.05 L3.95 -2.25 2.1 -4.1 2.25 -5.65 M18.95 -18.55 Q22.1 -17.2 25.8 -16.9 29.2 -19.55 32.95 -21.8 L33.85 -22.35 29.85 -2.55 28.15 -2.25 Q27.3 -2.6 26.75 -3.1 21.2 -9.8 18.95 -18.55 M29.8 25.3 Q27.5 23.7 25.85 21.6 L28.6 21.0 Q31.6 19.1 34.15 16.5 L33.75 24.35 33.6 27.4 Q32.2 26.9 31.2 26.2 L29.8 25.3 M-15.6 23.45 L-15.65 23.8 -12.05 28.15 -11.45 28.2 -10.8 28.15 -9.85 25.9 -9.7 25.55 -5.45 38.85 -7.3 41.55 -18.35 36.6 -17.5 32.55 -16.55 28.05 -15.6 23.45" fill="#663300" fill-rule="evenodd" stroke="none"/>
    <path d="M-38.7 -19.65 L-39.7 -22.75 -39.85 -23.2 -39.3 -23.5 Q-33.5 -24.1 -27.95 -22.6 L-25.35 -21.8 -25.25 -21.7 -30.45 -17.4 -30.65 -17.25 Q-35.05 -17.45 -38.55 -19.3 L-38.7 -19.65 M-10.7 -35.95 Q-12.6 -35.35 -14.25 -34.1 L-14.45 -33.6 -14.75 -33.1 Q-17.7 -32.15 -20.75 -33.1 L-21.0 -33.4 -21.2 -33.55 -21.45 -33.65 -23.5 -34.15 Q-23.2 -35.25 -22.5 -36.05 L-22.45 -36.1 -21.95 -36.65 Q-20.25 -38.35 -17.95 -38.35 L-12.55 -38.85 -10.7 -35.95 M12.55 -11.45 L10.5 -6.2 10.3 -5.95 2.25 -5.45 2.25 -5.65 3.25 -6.85 4.1 -7.5 10.0 -12.05 11.3 -12.95 12.55 -11.45 M33.85 -22.35 L32.95 -21.8 Q29.2 -19.55 25.8 -16.9 22.1 -17.2 18.95 -18.55 L18.8 -19.15 18.75 -19.25 21.55 -19.9 33.95 -22.85 33.85 -22.35 M25.85 21.6 L25.1 20.6 30.0 13.8 34.3 14.15 34.15 16.5 Q31.6 19.1 28.6 21.0 L25.85 21.6 M-15.6 23.45 L-15.5 23.0 -12.75 21.6 -10.55 23.0 -9.7 25.55 -9.85 25.9 -10.8 28.15 -11.45 28.2 -12.05 28.15 -15.65 23.8 -15.6 23.45" fill="#894401" fill-rule="evenodd" stroke="none"/>
    <path d="M-25.35 -21.8 L-25.15 -21.8 -25.25 -21.7 -25.35 -21.8" fill="#a35101" fill-rule="evenodd" stroke="none"/>
    <path d="M33.75 24.35 L33.75 24.2 Q34.2 25.35 34.1 26.7 34.05 27.25 34.5 27.25 35.0 27.2 35.15 27.45 42.95 15.1 40.7 0.2 L38.2 3.2 38.2 3.7 38.2 3.95 36.6 6.3 36.2 6.6 Q35.4 6.5 34.95 5.85 34.0 3.95 34.2 1.8 L34.1 1.0 Q33.1 0.05 32.8 -1.2 L32.75 -1.45 Q32.85 -1.95 33.25 -2.25 L33.6 -2.45 Q34.65 -2.4 34.9 -3.65 L35.1 -3.8 Q36.5 -2.6 37.3 -1.1 38.5 -4.3 38.75 -7.8 L38.0 -10.0 Q36.4 -14.2 34.1 -18.05 L35.65 -18.75 39.55 -17.2 40.15 -20.2 Q48.75 -0.9 43.8 19.05 42.45 24.85 39.9 30.15 35.8 38.5 27.45 42.9 6.65 54.85 -15.65 46.65 -27.4 42.25 -36.65 33.8 L-34.9 33.9 Q-36.8 29.8 -35.25 25.85 -33.3 29.1 -31.1 31.85 -31.55 29.55 -31.5 27.15 -31.5 26.05 -30.55 25.95 L-28.85 26.6 Q-28.7 26.65 -28.55 26.8 -27.75 29.15 -26.35 31.2 L-26.15 31.65 Q-26.2 32.15 -26.6 32.45 L-26.85 32.75 Q-26.3 33.85 -26.5 35.15 -26.6 35.75 -27.05 36.15 L-27.6 35.65 Q-14.9 47.8 5.5 45.65 12.15 45.05 17.8 42.6 L17.6 42.4 17.25 42.1 Q13.2 42.25 9.15 42.0 6.35 46.7 -0.1 43.45 L-0.05 43.3 5.5 41.7 4.1 41.55 3.1 40.95 Q2.95 40.0 3.05 39.05 3.05 38.7 3.35 38.5 4.6 38.35 4.5 39.7 L4.55 39.95 21.05 39.3 Q23.25 36.0 25.35 33.45 L25.35 33.35 Q27.5 35.4 24.95 38.15 L24.75 38.4 24.85 38.55 Q28.25 36.05 31.2 32.75 L27.1 31.75 29.8 25.3 31.2 26.2 Q32.2 26.9 33.6 27.4 L33.75 24.35 M24.95 7.8 L25.35 7.65 26.25 8.15 26.45 8.4 Q26.9 13.1 25.7 17.5 L25.35 17.85 Q24.45 17.05 24.3 15.5 L24.3 15.25 Q22.8 17.25 20.15 17.75 21.5 14.15 23.45 10.2 L23.7 9.95 24.2 9.55 Q23.95 8.35 24.95 7.8 M15.05 31.1 L15.0 30.3 Q16.75 29.0 18.7 28.2 19.95 29.1 18.95 30.45 L18.85 30.65 16.35 33.35 Q15.4 33.65 15.15 32.75 L15.05 31.1 M8.4 24.05 Q8.8 26.4 5.0 28.2 L2.35 28.15 2.55 27.35 2.75 27.05 Q5.75 25.65 8.4 24.05 M33.7 29.1 L33.65 29.15 Q32.9 30.6 33.7 29.1 M2.7 13.05 L2.4 12.65 Q4.4 14.9 2.45 18.3 L2.3 18.55 Q0.3 18.95 -0.85 17.95 1.85 16.15 2.7 13.05 M-17.5 32.55 L-18.3 32.45 Q-19.65 30.6 -20.4 28.4 L-20.45 27.6 Q-21.2 27.25 -21.25 26.5 L-21.25 26.25 Q-20.1 25.6 -18.65 25.6 -17.45 26.65 -16.55 28.05 L-17.5 32.55" fill="#cc9933" fill-rule="evenodd" stroke="none"/>
    <path d="M40.15 -20.2 Q32.4 -35.95 17.05 -44.15 2.75 -51.8 -13.1 -47.85 -30.15 -43.45 -38.8 -27.95 -47.35 -13.3 -46.45 3.4 -45.8 19.9 -36.65 33.8 -27.4 42.25 -15.65 46.65 6.65 54.85 27.45 42.9 35.8 38.5 39.9 30.15 42.45 24.85 43.8 19.05 48.75 -0.9 40.15 -20.2 M-21.95 -48.4 Q-4.75 -55.2 13.15 -50.25 30.35 -43.8 40.25 -27.8 52.3 -8.35 48.9 14.8 48.4 18.55 47.05 22.3 43.3 32.7 35.3 41.2 32.9 43.6 30.2 45.45 20.45 51.75 8.7 51.8 -3.4 53.65 -15.3 49.4 -21.25 46.85 -26.7 43.6 -46.65 31.65 -49.2 8.7 -50.9 -6.3 -46.45 -21.15 -40.5 -41.05 -21.95 -48.4" fill="#330000" fill-rule="evenodd" stroke="none"/>
  </g>
</svg>
