<?xml version="1.0" encoding="UTF-8" standalone="no"?>
<svg xmlns:ffdec="https://www.free-decompiler.com/flash" xmlns:xlink="http://www.w3.org/1999/xlink" ffdec:objectType="shape" height="162.2px" width="172.5px" xmlns="http://www.w3.org/2000/svg">
  <g transform="matrix(1.0, 0.0, 0.0, 1.0, 86.25, 81.1)">
    <path d="M51.5 -62.05 Q51.9 -62.45 51.7 -62.9 L51.5 -63.2 Q50.85 -63.25 50.75 -63.85 L50.3 -65.25 50.05 -65.45 48.75 -65.75 40.65 -64.5 Q45.0 -61.7 51.5 -62.05 M44.2 -55.85 L46.8 -58.25 47.15 -59.1 47.15 -59.7 47.05 -59.95 Q46.8 -60.9 45.75 -61.0 40.6 -60.45 36.0 -58.9 33.95 -60.45 32.25 -62.35 31.2 -60.55 31.85 -57.4 L31.8 -57.45 31.0 -58.0 28.65 -56.85 28.65 -57.9 28.95 -58.15 Q29.75 -58.65 29.9 -59.6 L29.65 -60.15 28.2 -62.15 27.6 -62.3 27.25 -62.35 19.9 -58.35 Q20.75 -57.95 21.0 -56.95 L20.6 -56.1 20.35 -55.8 Q16.6 -53.2 12.6 -52.5 L12.7 -52.6 12.75 -52.65 15.15 -54.5 15.45 -54.75 15.4 -54.7 19.1 -57.8 19.45 -58.1 33.1 -69.8 57.45 -68.65 Q61.8 -67.55 66.8 -67.7 68.25 -66.35 72.55 -66.85 L72.55 -66.65 71.1 -64.85 71.15 -64.55 68.6 -61.9 66.05 -63.95 65.4 -64.05 64.25 -64.3 64.25 -64.25 Q63.2 -64.35 62.75 -63.45 L59.2 -61.45 58.2 -61.75 57.5 -60.9 54.05 -61.55 Q52.65 -61.2 52.55 -59.6 52.45 -57.95 53.0 -56.45 L53.65 -56.4 53.75 -56.4 53.1 -55.45 51.25 -55.35 51.15 -54.05 40.9 -52.8 40.35 -53.0 43.7 -55.45 45.8 -55.6 44.2 -55.85 M70.05 -60.2 L73.55 -63.1 74.0 -63.5 Q74.2 -62.4 74.75 -61.25 72.8 -57.8 72.75 -55.2 L70.9 -53.5 Q67.75 -55.0 65.45 -57.35 L70.0 -60.15 70.1 -60.15 70.05 -60.2 M62.75 -63.45 L62.5 -60.65 62.5 -60.35 60.2 -61.15 62.75 -63.45 M57.8 -37.45 L60.2 -39.3 Q59.95 -32.25 59.0 -23.9 58.35 -18.0 60.05 -14.3 L56.7 -10.5 Q57.5 -18.5 57.9 -26.9 58.2 -32.3 57.8 -37.45" fill="#cccccc" fill-rule="evenodd" stroke="none"/>
    <path d="M36.0 -58.9 Q40.6 -60.45 45.75 -61.0 46.8 -60.9 47.05 -59.95 L47.15 -59.7 47.15 -59.1 46.8 -58.25 44.2 -55.85 43.05 -56.05 39.75 -56.9 39.5 -57.0 39.25 -57.1 38.95 -57.2 Q37.8 -57.55 36.75 -58.35 L36.0 -58.9 M43.7 -55.45 L40.35 -53.0 Q38.45 -53.75 36.6 -54.85 L36.8 -55.35 37.45 -55.9 38.45 -55.75 43.7 -55.45 M40.9 -52.8 L51.15 -54.05 50.9 -52.1 50.55 -51.3 49.45 -51.25 41.4 -52.6 40.85 -52.8 40.9 -52.8 M53.75 -56.4 L53.65 -56.4 53.0 -56.45 Q52.45 -57.95 52.55 -59.6 52.65 -61.2 54.05 -61.55 L57.5 -60.9 57.3 -60.65 54.3 -57.1 53.75 -56.4 M62.75 -63.45 Q63.2 -64.35 64.25 -64.25 L64.25 -64.3 65.4 -64.05 66.05 -63.95 68.6 -61.9 67.1 -60.35 66.95 -60.2 65.8 -59.0 62.5 -60.35 62.5 -60.65 62.75 -63.45 M12.7 -52.6 L12.6 -52.5 Q16.6 -53.2 20.35 -55.8 L20.6 -56.1 21.0 -56.95 Q20.75 -57.95 19.9 -58.35 L27.25 -62.35 27.6 -62.3 28.2 -62.15 29.65 -60.15 29.9 -59.6 Q29.75 -58.65 28.95 -58.15 L28.65 -57.9 28.65 -56.85 31.0 -58.0 31.8 -57.45 31.85 -57.4 31.9 -57.05 Q32.3 -55.2 31.85 -53.35 L28.25 -52.75 28.2 -52.8 27.15 -53.0 Q26.45 -53.8 25.45 -54.1 L25.35 -54.4 Q24.7 -55.75 24.4 -56.95 23.25 -56.8 22.45 -56.0 L22.35 -55.7 22.15 -55.15 21.85 -54.9 Q20.05 -53.75 19.3 -51.95 L17.8 -51.9 17.75 -51.9 17.2 -51.95 13.05 -52.4 12.45 -52.45 12.7 -52.6 M57.15 -54.85 Q56.0 -54.65 55.2 -55.55 55.2 -56.35 58.35 -59.35 L62.0 -57.3 62.0 -57.15 Q60.9 -56.25 59.35 -55.75 L58.95 -55.65 Q58.05 -55.8 57.15 -54.85 M70.9 -53.5 L66.75 -49.85 64.95 -49.15 63.15 -47.25 61.45 -45.45 60.9 -44.8 60.9 -44.85 Q60.55 -48.8 62.05 -52.55 63.1 -55.15 65.0 -57.15 L65.25 -57.25 65.45 -57.35 Q67.75 -55.0 70.9 -53.5" fill="#b3b3b3" fill-rule="evenodd" stroke="none"/>
    <path d="M51.5 -62.05 Q45.0 -61.7 40.65 -64.5 L48.75 -65.75 50.05 -65.45 50.3 -65.25 50.75 -63.85 Q50.85 -63.25 51.5 -63.2 L51.7 -62.9 Q51.9 -62.45 51.5 -62.05 M44.2 -55.85 L45.8 -55.6 43.7 -55.45 38.45 -55.75 37.45 -55.9 36.8 -55.35 36.6 -54.85 Q38.45 -53.75 40.35 -53.0 L40.9 -52.8 40.85 -52.8 41.4 -52.6 49.45 -51.25 50.55 -51.3 50.9 -52.1 51.15 -54.05 51.25 -55.35 53.1 -55.45 53.75 -56.4 54.3 -57.1 57.3 -60.65 57.5 -60.9 58.2 -61.75 59.2 -61.45 62.75 -63.45 60.2 -61.15 62.5 -60.35 65.8 -59.0 63.15 -56.4 65.0 -57.15 Q63.1 -55.15 62.05 -52.55 60.55 -48.8 60.9 -44.85 L60.35 -44.25 60.25 -44.6 60.25 -44.1 57.45 -40.75 56.8 -44.8 56.1 -45.1 39.4 -47.1 Q28.85 -50.5 17.8 -51.9 L19.3 -51.95 Q20.05 -53.75 21.85 -54.9 L22.15 -55.15 22.35 -55.7 22.45 -56.0 Q23.25 -56.8 24.4 -56.95 24.7 -55.75 25.35 -54.4 L25.45 -54.1 Q26.45 -53.8 27.15 -53.0 L28.2 -52.8 28.25 -52.75 31.85 -53.35 Q32.3 -55.2 31.9 -57.05 L31.85 -57.4 Q31.2 -60.55 32.25 -62.35 33.95 -60.45 36.0 -58.9 L36.75 -58.35 Q37.8 -57.55 38.95 -57.2 L39.25 -57.1 39.5 -57.0 39.75 -56.9 43.05 -56.05 44.2 -55.85 M57.15 -54.85 Q58.05 -55.8 58.95 -55.65 L59.35 -55.75 Q60.9 -56.25 62.0 -57.15 L62.0 -57.3 58.35 -59.35 Q55.2 -56.35 55.2 -55.55 56.0 -54.65 57.15 -54.85 M70.0 -60.15 L70.05 -60.2 70.1 -60.15 70.0 -60.15" fill="#999999" fill-rule="evenodd" stroke="none"/>
    <path d="M44.55 -77.7 Q40.05 -75.25 35.9 -72.1 51.6 -72.05 66.75 -69.75 L74.8 -69.25 76.35 -70.85 Q78.65 -73.15 81.25 -74.95 L81.3 -75.2 81.25 -75.25 Q70.2 -77.7 58.5 -78.4 L44.55 -77.7 M68.6 -61.9 L71.15 -64.55 71.1 -64.85 72.55 -66.65 72.75 -66.9 72.55 -66.85 Q68.25 -66.35 66.8 -67.7 61.8 -67.55 57.45 -68.65 L33.1 -69.8 19.45 -58.1 19.1 -57.8 15.4 -54.7 15.45 -54.75 15.15 -54.5 12.75 -52.65 12.7 -52.6 12.45 -52.45 13.05 -52.4 17.2 -51.95 17.75 -51.9 17.8 -51.9 Q28.85 -50.5 39.4 -47.1 L56.1 -45.1 56.8 -44.8 57.45 -40.75 60.25 -44.1 60.25 -44.6 60.35 -44.25 60.9 -44.85 60.9 -44.8 61.45 -45.45 63.15 -47.25 64.95 -49.15 66.75 -49.85 70.9 -53.5 72.75 -55.2 Q72.8 -57.8 74.75 -61.25 74.2 -62.4 74.0 -63.5 L73.55 -63.1 70.05 -60.2 70.0 -60.15 65.45 -57.35 65.25 -57.25 65.0 -57.15 63.15 -56.4 65.8 -59.0 66.95 -60.2 67.1 -60.35 68.6 -61.9 M76.65 -65.05 L76.6 -64.85 Q77.25 -63.35 77.4 -61.45 L77.6 -60.9 77.15 -59.4 81.05 -63.25 81.25 -64.15 84.9 -74.5 81.25 -71.8 78.25 -69.05 76.8 -66.65 76.65 -65.05 M75.05 -51.25 L75.0 -51.15 74.75 -50.6 75.05 -51.25 M8.0 -53.85 L7.8 -53.8 8.35 -53.3 9.75 -53.4 19.25 -61.9 Q31.2 -72.5 43.6 -80.95 63.0 -81.85 81.25 -78.0 L86.25 -76.5 83.95 -62.5 81.25 -59.55 69.9 -47.55 Q70.65 -42.95 69.1 -38.05 L69.1 -37.55 69.25 -33.25 69.85 -32.85 69.25 -32.15 Q69.1 -26.65 67.85 -21.65 L66.65 -17.6 Q65.45 -13.6 59.95 -8.6 54.4 -3.65 55.7 -1.8 L55.2 1.85 Q54.85 1.85 52.4 5.1 L52.2 5.35 Q51.1 7.9 47.8 10.55 40.1 16.8 32.8 23.75 8.4 47.0 -17.3 68.4 -27.2 78.2 -31.6 79.95 L-31.8 80.35 Q-42.3 83.0 -61.7 76.45 -71.5 73.55 -80.8 69.5 -82.9 60.35 -84.05 51.0 L-84.05 49.95 Q-88.2 37.05 -84.55 23.9 L-84.4 22.85 -79.75 18.9 -79.45 18.75 Q-53.1 -8.35 -23.8 -32.1 -10.1 -43.25 3.35 -53.6 L3.25 -53.65 3.5 -53.7 4.55 -54.55 8.0 -53.85 M-50.95 29.25 L-50.9 29.25 -50.45 29.15 -49.7 29.0 -31.1 30.6 Q-2.05 5.15 25.55 -20.95 32.15 -27.8 40.05 -33.35 L40.2 -33.4 Q18.75 -12.6 -2.05 8.45 L-2.3 8.9 Q-15.95 21.8 -29.5 32.65 L-29.6 32.75 -29.25 32.95 Q-28.65 38.05 -28.7 43.25 -28.75 46.55 -29.1 49.8 -29.3 62.4 -30.75 74.2 -0.5 49.35 28.35 21.8 40.1 10.6 52.3 0.6 L52.55 1.25 52.65 0.6 52.65 0.4 52.55 -0.85 52.45 -2.9 Q52.2 -10.25 53.2 -17.45 54.85 -29.55 53.95 -41.9 L4.4 -51.5 Q1.05 -49.65 -1.8 -47.0 L-5.4 -44.1 Q-34.6 -18.4 -62.6 9.05 -70.4 16.65 -78.6 22.05 L-80.4 23.2 Q-74.8 25.85 -68.3 26.1 L-65.8 27.35 -66.6 27.3 -66.9 27.25 -80.2 26.35 Q-80.05 26.95 -80.2 27.7 L-80.25 28.25 Q-75.3 38.75 -69.0 48.35 -60.7 51.15 -51.9 52.05 L-51.85 52.05 -51.7 52.05 -51.5 52.25 -51.65 52.3 -52.6 52.4 -53.9 52.5 Q-61.55 52.9 -67.4 49.75 L-67.45 49.7 -68.45 49.15 -68.3 49.4 -68.5 49.25 -68.8 48.95 -69.6 48.4 -69.4 48.35 -70.7 47.05 -72.75 44.8 Q-78.2 38.65 -81.8 31.2 -82.55 48.45 -77.7 65.5 L-77.35 66.6 Q-63.6 71.45 -49.5 74.3 -37.6 77.35 -36.15 75.45 -33.2 62.9 -31.45 35.5 L-31.85 35.1 Q-35.85 39.5 -40.85 43.25 L-40.9 43.3 -43.65 45.3 -46.1 46.85 -46.25 46.95 -46.8 47.25 -46.3 46.7 -45.95 46.3 Q-40.3 40.0 -32.55 34.5 -33.6 33.7 -35.05 33.2 -44.0 33.3 -50.95 29.25 M-31.45 35.5 Q-31.7 46.25 -31.55 42.0 L-31.45 35.5 M66.65 -44.65 L61.45 -40.3 62.3 -36.3 64.4 -39.2 Q65.25 -39.85 66.25 -40.1 66.3 -41.85 66.5 -43.6 L66.65 -44.65 M66.3 -36.6 Q65.15 -35.55 62.45 -35.2 63.0 -31.7 63.15 -28.0 63.9 -30.4 65.65 -32.65 L66.5 -33.4 66.35 -35.5 66.3 -36.6 M63.15 -18.75 L64.9 -19.85 Q66.3 -24.25 66.55 -29.2 L63.25 -25.5 63.2 -25.4 62.85 -18.75 62.8 -18.25 63.15 -18.75 M57.8 -37.45 Q58.2 -32.3 57.9 -26.9 57.5 -18.5 56.7 -10.5 L60.05 -14.3 Q58.35 -18.0 59.0 -23.9 59.95 -32.25 60.2 -39.3 L57.8 -37.45" fill="#000000" fill-rule="evenodd" stroke="none"/>
    <path d="M44.55 -77.7 L58.5 -78.4 Q70.2 -77.7 81.25 -75.25 L81.3 -75.2 81.25 -74.95 Q78.65 -73.15 76.35 -70.85 L74.8 -69.25 66.75 -69.75 Q51.6 -72.05 35.9 -72.1 40.05 -75.25 44.55 -77.7 M76.65 -65.05 L76.8 -66.65 78.25 -69.05 81.25 -71.8 84.9 -74.5 81.25 -64.15 81.05 -63.25 77.15 -59.4 77.6 -60.9 77.4 -61.45 Q77.25 -63.35 76.6 -64.85 L76.65 -65.05 M62.85 -18.75 L63.2 -25.4 63.25 -25.5 66.55 -29.2 Q66.3 -24.25 64.9 -19.85 L63.15 -18.75 62.85 -18.75 M66.3 -36.6 L66.35 -35.5 66.5 -33.4 65.65 -32.65 Q63.9 -30.4 63.15 -28.0 63.0 -31.7 62.45 -35.2 65.15 -35.55 66.3 -36.6 M66.65 -44.65 L66.5 -43.6 Q66.3 -41.85 66.25 -40.1 65.25 -39.85 64.4 -39.2 L62.3 -36.3 61.45 -40.3 66.65 -44.65" fill="#ffcccc" fill-rule="evenodd" stroke="none"/>
    <path d="M-29.5 32.65 Q-15.95 21.8 -2.3 8.9 L-2.05 8.45 Q18.75 -12.6 40.2 -33.4 L40.05 -33.35 Q32.15 -27.8 25.55 -20.95 -2.05 5.15 -31.1 30.6 L-49.7 29.0 -50.45 29.15 -50.9 29.25 -50.95 29.25 -65.8 27.4 -65.8 27.35 -68.3 26.1 Q-74.8 25.85 -80.4 23.2 L-78.6 22.05 Q-70.4 16.65 -62.6 9.05 -34.6 -18.4 -5.4 -44.1 L-1.8 -47.0 Q1.05 -49.65 4.4 -51.5 L53.95 -41.9 Q54.85 -29.55 53.2 -17.45 52.2 -10.25 52.45 -2.9 L52.55 -0.85 52.65 0.4 52.65 0.6 52.3 0.6 Q40.1 10.6 28.35 21.8 -0.5 49.35 -30.75 74.2 -29.3 62.4 -29.1 49.8 -28.75 46.55 -28.7 43.25 -28.65 38.05 -29.25 32.95 L-29.5 32.65" fill="#79f101" fill-rule="evenodd" stroke="none"/>
    <path d="M-29.5 32.65 L-29.25 32.95 -29.6 32.75 -29.5 32.65 M-65.8 27.35 L-65.8 27.4 -66.6 27.3 -65.8 27.35" fill="#99ff33" fill-rule="evenodd" stroke="none"/>
    <path d="M-65.8 27.4 L-50.95 29.25 Q-44.0 33.3 -35.05 33.2 -33.6 33.7 -32.55 34.5 -40.3 40.0 -45.95 46.3 L-46.3 46.7 -46.3 46.55 -46.1 46.35 -49.75 50.2 -51.95 51.9 -51.85 52.05 -51.9 52.05 Q-60.7 51.15 -69.0 48.35 -75.3 38.75 -80.25 28.25 L-80.2 27.7 Q-80.05 26.95 -80.2 26.35 L-66.9 27.25 -66.6 27.3 -65.8 27.4 M-46.25 46.95 L-46.1 46.85 -43.65 45.3 -40.9 43.3 -40.85 43.25 Q-35.85 39.5 -31.85 35.1 L-31.45 35.5 Q-33.2 62.9 -36.15 75.45 -37.6 77.35 -49.5 74.3 -63.6 71.45 -77.35 66.6 L-77.7 65.5 Q-82.55 48.45 -81.8 31.2 -78.2 38.65 -72.75 44.8 L-70.7 47.05 -71.25 49.15 -72.5 53.2 Q-73.6 55.15 -74.25 61.4 L-73.85 60.85 Q-70.45 55.35 -67.4 49.75 -61.55 52.9 -53.9 52.5 L-52.6 52.4 -51.65 52.3 Q-50.85 53.4 -50.15 54.95 L-46.9 60.9 -41.2 69.15 -41.55 68.2 Q-41.3 68.55 -42.2 64.4 L-46.25 46.95" fill="#66cc00" fill-rule="evenodd" stroke="none"/>
    <path d="M-46.3 46.7 L-46.8 47.25 -46.25 46.95 -42.2 64.4 Q-41.3 68.55 -41.55 68.2 L-41.2 69.15 -46.9 60.9 -50.15 54.95 Q-50.85 53.4 -51.65 52.3 L-51.5 52.25 -51.7 52.05 -51.85 52.05 -51.95 51.9 -49.75 50.2 -46.1 46.35 -46.3 46.55 -46.3 46.7 M-70.7 47.05 L-69.4 48.35 -69.6 48.4 -68.8 48.95 -68.5 49.25 -68.3 49.4 -68.45 49.15 -67.45 49.7 -67.4 49.75 Q-70.45 55.35 -73.85 60.85 L-74.25 61.4 Q-73.6 55.15 -72.5 53.2 L-71.25 49.15 -70.7 47.05" fill="#339900" fill-rule="evenodd" stroke="none"/>
  </g>
</svg>
