<?xml version="1.0" encoding="UTF-8" standalone="no"?>
<svg xmlns:ffdec="https://www.free-decompiler.com/flash" xmlns:xlink="http://www.w3.org/1999/xlink" ffdec:objectType="shape" height="15.5px" width="15.5px" xmlns="http://www.w3.org/2000/svg">
  <g transform="matrix(1.0, 0.0, 0.0, 1.0, 7.75, 7.75)">
    <path d="M0.0 -7.0 Q2.9 -7.0 4.95 -4.95 7.0 -2.9 7.0 0.0 7.0 2.9 4.95 4.95 2.9 7.0 0.0 7.0 -2.9 7.0 -4.95 4.95 -7.0 2.9 -7.0 0.0 -7.0 -2.9 -4.95 -4.95 -2.9 -7.0 0.0 -7.0" fill="url(#gradient0)" fill-rule="evenodd" stroke="none"/>
    <path d="M0.0 -7.0 Q-2.9 -7.0 -4.95 -4.95 -7.0 -2.9 -7.0 0.0 -7.0 2.9 -4.95 4.95 -2.9 7.0 0.0 7.0 2.9 7.0 4.95 4.95 7.0 2.9 7.0 0.0 7.0 -2.9 4.95 -4.95 2.9 -7.0 0.0 -7.0 Z" fill="none" stroke="#003366" stroke-linecap="round" stroke-linejoin="round" stroke-width="1.5"/>
  </g>
  <defs>
    <radialGradient cx="0" cy="0" gradientTransform="matrix(0.0158, 0.0, 0.0, -0.0158, -1.5, 1.2)" gradientUnits="userSpaceOnUse" id="gradient0" r="819.2" spreadMethod="pad">
      <stop offset="0.3058823529411765" stop-color="#ffffff"/>
      <stop offset="1.0" stop-color="#0099cc"/>
      <stop offset="1.0" stop-color="#5cdfff"/>
    </radialGradient>
  </defs>
</svg>
