<?xml version="1.0" encoding="UTF-8" standalone="no"?>
<svg xmlns:ffdec="https://www.free-decompiler.com/flash" xmlns:xlink="http://www.w3.org/1999/xlink" ffdec:objectType="shape" height="87.25px" width="117.55px" xmlns="http://www.w3.org/2000/svg">
  <g transform="matrix(1.0, 0.0, 0.0, 1.0, 59.55, 44.4)">
    <path d="M-44.0 -10.8 L-37.85 -14.55 Q-29.35 -19.6 -20.15 -21.7 -2.5 -19.85 15.05 -16.15 L20.95 -15.15 Q40.0 -12.7 53.9 -0.15 55.85 1.6 56.7 4.05 60.45 14.9 53.4 24.6 44.25 37.15 28.9 39.65 L9.25 42.6 Q5.65 43.1 2.05 42.65 -18.0 40.1 -36.95 33.2 -41.2 31.65 -44.8 29.0 -59.75 17.9 -53.5 1.05 -50.75 -6.45 -44.0 -10.8 M6.45 24.05 L7.75 24.4 Q6.65 23.55 5.25 23.5 L4.9 23.6 6.45 24.05" fill="#000000" fill-opacity="0.4" fill-rule="evenodd" stroke="none"/>
    <path d="M-28.55 -25.2 L-26.8 -23.55 -35.2 -11.95 -35.4 -12.1 Q-38.15 -14.95 -35.8 -18.4 -33.85 -23.6 -28.55 -25.2 M24.25 -29.35 Q33.3 -25.25 37.5 -16.1 37.8 -15.4 38.6 -15.3 L39.95 -16.2 37.5 -24.3 Q41.45 -19.55 42.75 -13.3 43.2 -11.1 42.3 -8.9 L42.55 -5.4 41.25 -5.0 40.95 -6.95 Q39.85 -9.1 39.0 -11.3 37.85 -14.4 36.0 -17.15 31.2 -24.2 24.25 -29.35" fill="#ffc2c2" fill-rule="evenodd" stroke="none"/>
    <path d="M-28.55 -25.2 Q-33.85 -23.6 -35.8 -18.4 -38.15 -14.95 -35.4 -12.1 L-35.2 -11.95 -26.8 -23.55 -28.55 -25.2 M51.75 6.1 Q40.0 9.2 28.95 14.45 17.45 19.75 4.7 20.0 -8.35 20.3 -20.6 15.2 -28.75 11.95 -35.55 6.8 L-45.5 -1.15 Q-49.55 -4.4 -52.95 -8.2 -55.1 -10.6 -57.9 -12.25 -55.8 -25.15 -44.25 -32.2 -34.4 -38.15 -23.15 -40.85 L-15.0 -42.35 6.4 -42.9 Q15.7 -41.8 24.15 -37.65 35.85 -31.85 45.05 -22.65 51.5 -16.15 53.3 -7.25 L53.55 -5.85 52.9 5.35 51.75 6.1 M37.5 -24.3 Q31.7 -34.6 20.1 -36.3 L19.65 -36.15 17.2 -34.65 Q17.0 -33.35 18.0 -32.3 19.95 -30.3 22.7 -29.9 L24.25 -29.35 Q31.2 -24.2 36.0 -17.15 37.85 -14.4 39.0 -11.3 39.85 -9.1 40.95 -6.95 L41.25 -5.0 42.55 -5.4 42.3 -8.9 Q43.2 -11.1 42.75 -13.3 41.45 -19.55 37.5 -24.3 M-25.2 -13.05 L-24.7 -8.05 -23.15 -6.9 -22.25 -6.25 -22.95 -5.8 -18.65 -2.85 Q-23.4 -1.65 -23.3 3.35 L-23.2 4.6 -6.2 9.95 -6.85 8.55 -6.9 8.45 Q-8.3 4.6 -5.1 2.25 L-4.15 1.6 Q8.45 5.35 21.45 3.55 23.9 3.1 25.85 1.4 L25.4 0.85 27.0 0.35 30.45 -1.95 Q32.05 -10.5 26.6 -17.15 L22.45 -20.7 Q14.95 -25.3 6.4 -25.3 L-15.0 -21.45 Q-18.75 -20.2 -22.35 -18.5 L-25.2 -13.05 M-22.35 -18.5 L-19.65 -21.4 -22.35 -18.5 M27.0 0.35 L25.85 1.4 27.0 0.35 M-22.95 -5.8 L-24.7 -8.05 -22.95 -5.8" fill="#ff0000" fill-rule="evenodd" stroke="none"/>
    <path d="M-54.95 3.1 L-55.65 1.5 Q-58.65 -5.0 -57.9 -12.25 -55.1 -10.6 -52.95 -8.2 -49.55 -4.4 -45.5 -1.15 L-35.55 6.8 Q-28.75 11.95 -20.6 15.2 -8.35 20.3 4.7 20.0 17.45 19.75 28.95 14.45 40.0 9.2 51.75 6.1 L52.8 5.8 48.7 11.95 Q38.35 17.7 27.25 21.1 L20.1 22.55 7.75 23.1 -6.5 21.3 -19.55 19.8 Q-23.45 19.0 -27.15 17.5 -32.4 15.5 -37.45 13.15 L-45.05 9.55 -48.2 7.45 Q-51.4 4.95 -54.95 3.1 M-44.85 5.95 L-46.5 4.3 Q-50.0 1.05 -51.55 -3.7 -50.0 1.05 -46.5 4.3 L-44.85 5.95 M22.45 -20.7 L17.95 -15.65 Q12.2 -17.0 6.4 -17.45 L-10.7 -16.8 -15.0 -16.2 Q-19.8 -15.4 -23.95 -13.65 L-25.2 -13.05 -22.35 -18.5 Q-18.75 -20.2 -15.0 -21.45 L6.4 -25.3 Q14.95 -25.3 22.45 -20.7 M-23.15 -6.9 L-20.85 -7.05 -22.25 -6.25 -23.15 -6.9 M30.15 18.6 L29.1 19.1 Q20.3 23.1 10.45 22.25 20.3 23.1 29.1 19.1 L30.15 18.6 M33.8 16.3 Q35.75 16.3 37.1 15.6 38.45 14.9 38.45 13.95 38.45 14.9 37.1 15.6 35.75 16.3 33.8 16.3" fill="#bd0000" fill-rule="evenodd" stroke="none"/>
    <path d="M-54.95 3.1 Q-51.4 4.95 -48.2 7.45 L-45.05 9.55 -37.45 13.15 Q-32.4 15.5 -27.15 17.5 -23.45 19.0 -19.55 19.8 L-6.5 21.3 7.75 23.1 20.1 22.55 27.25 21.1 Q38.35 17.7 48.7 11.95 L48.65 12.0 Q40.2 21.65 29.15 28.1 20.05 33.45 9.6 34.7 -3.4 36.05 -15.7 31.75 -27.85 27.4 -38.9 20.7 -49.45 14.3 -54.9 3.2 L-54.95 3.1 M52.8 5.8 L51.75 6.1 52.9 5.35 52.8 5.8 M-25.2 -13.05 L-23.95 -13.65 Q-19.8 -15.4 -15.0 -16.2 L-10.7 -16.8 6.4 -17.45 Q12.2 -17.0 17.95 -15.65 L22.45 -20.7 26.6 -17.15 Q32.05 -10.5 30.45 -1.95 L27.0 0.35 25.4 0.85 Q17.0 -7.45 -2.6 -10.1 L-15.0 -10.1 Q-18.0 -8.8 -20.85 -7.05 L-23.15 -6.9 -24.7 -8.05 -25.2 -13.05 M26.6 -17.15 L28.95 -8.75 Q30.35 -3.55 27.0 0.35 30.35 -3.55 28.95 -8.75 L26.6 -17.15" fill="#8c0000" fill-rule="evenodd" stroke="none"/>
    <path d="M24.25 -29.35 L22.7 -29.9 Q19.95 -30.3 18.0 -32.3 17.0 -33.35 17.2 -34.65 L19.65 -36.15 20.1 -36.3 Q31.7 -34.6 37.5 -24.3 L39.95 -16.2 38.6 -15.3 Q37.8 -15.4 37.5 -16.1 33.3 -25.25 24.25 -29.35" fill="#ffffff" fill-rule="evenodd" stroke="none"/>
    <path d="M-18.65 -2.85 L-4.15 1.6 -5.1 2.25 Q-8.3 4.6 -6.9 8.45 L-6.85 8.55 -6.2 9.95 -23.2 4.6 -23.3 3.35 Q-23.4 -1.65 -18.65 -2.85" fill="#e33535" fill-rule="evenodd" stroke="none"/>
    <path d="M-57.9 -12.25 Q-58.65 -5.0 -55.65 1.5 L-54.95 3.1 M48.7 11.95 L52.8 5.8 52.9 5.35 53.55 -5.85 53.3 -7.25 Q51.5 -16.15 45.05 -22.65 35.85 -31.85 24.15 -37.65 15.7 -41.8 6.4 -42.9 L-15.0 -42.35 -23.15 -40.85 Q-34.4 -38.15 -44.25 -32.2 -55.8 -25.15 -57.9 -12.25 M-54.9 3.2 Q-49.45 14.3 -38.9 20.7 -27.85 27.4 -15.7 31.75 -3.4 36.05 9.6 34.7 20.05 33.45 29.15 28.1 40.2 21.65 48.65 12.0 M-51.55 -3.7 Q-50.0 1.05 -46.5 4.3 L-44.85 5.95 M-25.2 -13.05 L-24.7 -8.05 -22.95 -5.8 -18.65 -2.85 -4.15 1.6 Q8.45 5.35 21.45 3.55 23.9 3.1 25.85 1.4 L27.0 0.35 Q30.35 -3.55 28.95 -8.75 L26.6 -17.15 M-20.85 -7.05 Q-18.0 -8.8 -15.0 -10.1 L-2.6 -10.1 Q17.0 -7.45 25.4 0.85 L25.85 1.4 M-22.35 -18.5 L-25.2 -13.05 M-19.65 -21.4 L-22.35 -18.5 M-22.25 -6.25 L-20.85 -7.05 M-22.25 -6.25 L-22.95 -5.8 M-6.9 8.45 Q-8.3 4.6 -5.1 2.25 L-4.15 1.6 M-18.65 -2.85 Q-23.4 -1.65 -23.3 3.35 L-23.2 4.6 -6.2 9.95 -6.85 8.55 M38.45 13.95 Q38.45 14.9 37.1 15.6 35.75 16.3 33.8 16.3 M10.45 22.25 Q20.3 23.1 29.1 19.1 L30.15 18.6" fill="none" stroke="#000000" stroke-linecap="round" stroke-linejoin="round" stroke-width="3.0"/>
  </g>
</svg>
