<?xml version="1.0" encoding="UTF-8" standalone="no"?>
<svg xmlns:ffdec="https://www.free-decompiler.com/flash" xmlns:xlink="http://www.w3.org/1999/xlink" ffdec:objectType="shape" height="46.05px" width="40.55px" xmlns="http://www.w3.org/2000/svg">
  <g transform="matrix(1.0, 0.0, 0.0, 1.0, 20.25, 23.0)">
    <path d="M2.65 -15.45 Q-3.4 -13.65 -8.35 -9.9 -7.7 -6.95 -7.9 -3.8 L-9.3 18.25 Q-0.8 14.65 7.6 10.7 L11.25 9.05 12.2 8.6 Q15.2 7.2 16.65 4.15 18.0 1.35 18.2 -1.9 L18.55 -7.4 18.65 -12.9 18.6 -18.45 18.45 -21.25 12.2 -18.8 2.65 -15.45 M-10.85 11.2 L-10.1 -2.65 Q-9.95 -5.45 -10.5 -8.1 -10.95 -10.2 -9.45 -11.45 -6.05 -14.25 -1.9 -15.65 L12.2 -20.6 18.8 -23.0 19.4 -22.8 20.25 -18.1 Q20.55 -15.95 19.6 -4.65 L19.25 -0.2 18.3 3.5 17.65 4.75 12.2 9.95 8.25 12.55 8.2 12.6 Q7.8 14.85 7.65 17.15 L9.35 17.05 Q10.05 16.9 10.55 17.3 L10.65 17.4 10.6 17.5 Q9.4 18.4 7.5 18.05 L6.5 18.6 Q5.7 18.85 5.1 19.4 3.35 20.95 1.5 20.85 L1.45 20.75 2.45 19.7 2.8 19.35 2.8 15.3 0.5 16.3 -7.95 20.0 Q-9.75 20.65 -11.15 19.95 L-10.85 11.2 M3.65 14.9 Q3.9 16.75 3.6 18.7 5.0 17.75 6.7 17.35 6.35 15.15 6.85 13.35 L3.65 14.9" fill="#000000" fill-rule="evenodd" stroke="none"/>
    <path d="M2.65 -15.45 L12.2 -18.8 18.45 -21.25 18.6 -18.45 18.65 -12.9 18.55 -7.4 18.2 -1.9 Q18.0 1.35 16.65 4.15 15.2 7.2 12.2 8.6 L11.25 9.05 7.6 10.7 Q-0.8 14.65 -9.3 18.25 L-7.9 -3.8 Q-7.7 -6.95 -8.35 -9.9 -3.4 -13.65 2.65 -15.45 M9.3 -13.75 L9.1 -8.35 -4.7 -3.3 -4.3 4.75 8.0 -0.5 7.3 5.6 Q9.0 5.5 11.55 2.45 14.1 -0.65 16.65 -6.3 L9.3 -13.75" fill="#01a2de" fill-rule="evenodd" stroke="none"/>
    <path d="M9.3 -13.75 L16.65 -6.3 Q14.1 -0.65 11.55 2.45 9.0 5.5 7.3 5.6 L8.0 -0.5 -4.3 4.75 -4.7 -3.3 9.1 -8.35 9.3 -13.75" fill="#ffffff" fill-rule="evenodd" stroke="none"/>
    <path d="M-10.85 11.2 L-11.15 19.95 Q-9.75 20.65 -7.95 20.0 L0.5 16.3 2.8 15.3 2.8 19.35 2.45 19.7 0.05 18.05 -3.0 19.3 Q-5.8 20.35 -10.8 23.05 -15.0 19.35 -19.9 15.85 L-20.25 15.6 -10.85 11.2" fill="#000000" fill-opacity="0.4" fill-rule="evenodd" stroke="none"/>
    <path d="M3.65 14.9 L6.85 13.35 Q6.35 15.15 6.7 17.35 5.0 17.75 3.6 18.7 3.9 16.75 3.65 14.9" fill="#cccccc" fill-rule="evenodd" stroke="none"/>
    <path d="M9.3 -13.75 L16.65 -6.3 Q14.1 -0.65 11.55 2.45 9.0 5.5 7.3 5.6 L8.0 -0.5 -4.3 4.75 -4.7 -3.3 9.1 -8.35 9.3 -13.75 Z" fill="none" stroke="#000000" stroke-linecap="round" stroke-linejoin="round" stroke-width="1.0"/>
  </g>
</svg>
