<?xml version="1.0" encoding="UTF-8" standalone="no"?>
<svg xmlns:ffdec="https://www.free-decompiler.com/flash" xmlns:xlink="http://www.w3.org/1999/xlink" ffdec:objectType="shape" height="83.75px" width="70.15px" xmlns="http://www.w3.org/2000/svg">
  <g transform="matrix(1.0, 0.0, 0.0, 1.0, 35.2, 41.5)">
    <path d="M32.5 -33.5 L32.55 -33.5 32.45 -38.55 Q23.3 -38.75 14.0 -38.6 L-30.8 -36.75 -32.3 -0.55 Q-32.5 11.4 -33.1 23.3 -33.45 31.0 -31.2 38.4 -7.9 38.25 15.5 39.55 22.55 40.0 28.5 36.85 27.65 22.05 29.1 7.3 31.1 -13.0 32.5 -33.5 M28.65 -36.2 L29.85 -36.1 30.7 -35.3 30.85 -33.95 30.2 -33.6 29.15 -33.6 28.0 -32.9 27.5 -33.1 Q28.7 -33.7 28.55 -34.5 L28.65 -36.2 M34.4 -40.85 Q35.9 -25.4 33.35 -10.05 32.65 -5.7 32.35 -1.25 30.9 18.95 31.45 39.0 20.3 43.55 8.2 41.7 L5.2 41.55 Q-14.15 40.95 -33.55 41.75 -35.8 30.95 -35.0 19.9 -34.65 15.5 -34.7 11.15 -34.95 -8.6 -34.4 -28.3 -34.2 -34.75 -32.65 -40.9 L16.35 -41.5 Q22.35 -41.55 28.4 -41.2 L34.4 -40.85 M22.4 17.7 L19.7 15.05 18.75 16.15 Q17.5 17.5 15.75 17.3 L14.5 16.05 12.6 16.85 Q4.85 18.3 -3.3 16.85 L-4.7 15.7 -5.7 16.1 Q-8.15 16.35 -10.4 15.6 -13.15 18.1 -17.2 17.65 L-17.7 15.15 Q-21.3 16.3 -25.0 16.1 L-16.7 13.85 -16.4 16.15 -11.8 15.25 -10.85 13.75 -3.05 15.2 Q6.9 14.45 16.65 15.4 L19.3 12.95 20.25 13.5 Q22.3 14.8 23.2 17.0 L22.4 17.7 M20.85 10.5 L-3.4 11.65 5.05 8.35 Q12.5 10.7 20.5 10.05 L20.85 10.5 M7.95 33.85 L7.75 32.8 Q-0.65 34.8 -9.35 33.15 -11.65 35.85 -15.25 35.05 -16.6 34.85 -17.9 34.25 -19.0 33.7 -20.25 33.5 -22.05 34.75 -24.2 34.85 L-25.85 34.9 -26.7 34.65 -22.05 33.15 -22.55 33.85 Q-21.0 32.25 -18.85 32.3 L-16.4 32.55 -15.75 33.35 Q-9.05 31.0 -1.9 31.5 3.05 31.75 8.1 31.25 L9.45 32.9 15.85 33.65 Q12.9 35.5 9.8 34.4 L7.95 33.85 M21.95 29.25 Q11.75 31.6 1.8 28.5 L-4.05 28.75 -4.4 28.5 Q-6.9 30.4 -9.65 29.4 L-10.3 28.95 -10.2 27.85 -14.6 29.25 Q-13.1 27.55 -11.15 26.8 L-9.8 26.25 -8.75 28.1 -7.7 28.3 -4.45 26.15 -3.3 26.5 -3.0 27.8 21.1 28.2 21.95 29.25 M-29.7 -31.55 L-30.15 -31.95 Q-30.15 -34.05 -28.15 -34.95 L-27.4 -34.5 -27.7 -33.0 -26.35 -30.95 -28.2 -32.3 -29.15 -31.55 -29.7 -31.55 M-3.6 11.7 L-6.0 11.1 Q-8.5 10.45 -10.2 8.55 L-15.6 10.9 -14.35 9.85 Q-12.4 8.2 -10.05 7.3 L-3.6 11.7 M-19.6 23.7 L-21.3 23.3 -21.3 21.2 -25.6 22.25 Q-24.1 21.35 -22.5 20.7 L-20.6 20.0 -20.0 22.1 -16.2 21.0 -14.0 18.55 Q-12.45 18.65 -11.25 19.45 L-8.6 21.15 -6.9 21.2 -5.05 20.2 Q-2.25 18.7 0.7 19.65 L-1.25 20.15 Q-4.15 21.05 -6.65 22.8 L-9.35 22.1 Q-11.55 21.65 -13.15 20.2 L-14.2 20.45 -15.5 22.7 -18.15 22.75 -19.6 23.7" fill="#000000" fill-rule="evenodd" stroke="none"/>
    <path d="M32.5 -33.5 Q31.1 -13.0 29.1 7.3 27.65 22.05 28.5 36.85 22.55 40.0 15.5 39.55 -7.9 38.25 -31.2 38.4 -33.45 31.0 -33.1 23.3 -32.5 11.4 -32.3 -0.55 L-28.9 -8.75 Q-26.25 -14.8 -22.2 -20.15 L-7.65 -21.65 Q1.25 -22.75 9.85 -24.9 L9.9 -25.9 -2.45 -28.15 32.5 -33.5 M21.95 29.25 L21.1 28.2 -3.0 27.8 -3.3 26.5 -4.45 26.15 -7.7 28.3 -8.75 28.1 -9.8 26.25 -11.15 26.8 Q-13.1 27.55 -14.6 29.25 L-10.2 27.85 -10.3 28.95 -9.65 29.4 Q-6.9 30.4 -4.4 28.5 L-4.05 28.75 1.8 28.5 Q11.75 31.6 21.95 29.25 M7.95 33.85 L9.8 34.4 Q12.9 35.5 15.85 33.65 L9.45 32.9 8.1 31.25 Q3.05 31.75 -1.9 31.5 -9.05 31.0 -15.75 33.35 L-16.4 32.55 -18.85 32.3 Q-21.0 32.25 -22.55 33.85 L-22.05 33.15 -26.7 34.65 -25.85 34.9 -24.2 34.85 Q-22.05 34.75 -20.25 33.5 -19.0 33.7 -17.9 34.25 -16.6 34.85 -15.25 35.05 -11.65 35.85 -9.35 33.15 -0.65 34.8 7.75 32.8 L7.95 33.85 M20.85 10.5 L20.5 10.05 Q12.5 10.7 5.05 8.35 L-3.4 11.65 20.85 10.5 M22.4 17.7 L23.2 17.0 Q22.3 14.8 20.25 13.5 L19.3 12.95 16.65 15.4 Q6.9 14.45 -3.05 15.2 L-10.85 13.75 -11.8 15.25 -16.4 16.15 -16.7 13.85 -25.0 16.1 Q-21.3 16.3 -17.7 15.15 L-17.2 17.65 Q-13.15 18.1 -10.4 15.6 -8.15 16.35 -5.7 16.1 L-4.7 15.7 -3.3 16.85 Q4.85 18.3 12.6 16.85 L14.5 16.05 15.75 17.3 Q17.5 17.5 18.75 16.15 L19.7 15.05 22.4 17.7 M-19.6 23.7 L-18.15 22.75 -15.5 22.7 -14.2 20.45 -13.15 20.2 Q-11.55 21.65 -9.35 22.1 L-6.65 22.8 Q-4.15 21.05 -1.25 20.15 L0.7 19.65 Q-2.25 18.7 -5.05 20.2 L-6.9 21.2 -8.6 21.15 -11.25 19.45 Q-12.45 18.65 -14.0 18.55 L-16.2 21.0 -20.0 22.1 -20.6 20.0 -22.5 20.7 Q-24.1 21.35 -25.6 22.25 L-21.3 21.2 -21.3 23.3 -19.6 23.7 M-3.6 11.7 L-10.05 7.3 Q-12.4 8.2 -14.35 9.85 L-15.6 10.9 -10.2 8.55 Q-8.5 10.45 -6.0 11.1 L-3.6 11.7" fill="#ffcc00" fill-rule="evenodd" stroke="none"/>
    <path d="M28.65 -36.2 L28.55 -34.5 Q28.7 -33.7 27.5 -33.1 L28.0 -32.9 29.15 -33.6 30.2 -33.6 30.85 -33.95 30.7 -35.3 29.85 -36.1 28.65 -36.2 M-32.3 -0.55 L-30.8 -36.75 14.0 -38.6 Q23.3 -38.75 32.45 -38.55 L32.55 -33.5 32.5 -33.5 -2.45 -28.15 9.9 -25.9 9.85 -24.9 Q1.25 -22.75 -7.65 -21.65 L-22.2 -20.15 Q-26.25 -14.8 -28.9 -8.75 L-32.3 -0.55 M-29.7 -31.55 L-29.15 -31.55 -28.2 -32.3 -26.35 -30.95 -27.7 -33.0 -27.4 -34.5 -28.15 -34.95 Q-30.15 -34.05 -30.15 -31.95 L-29.7 -31.55" fill="#ffff00" fill-rule="evenodd" stroke="none"/>
  </g>
</svg>
