<?xml version="1.0" encoding="UTF-8" standalone="no"?>
<svg xmlns:ffdec="https://www.free-decompiler.com/flash" xmlns:xlink="http://www.w3.org/1999/xlink" ffdec:objectType="shape" height="46.55px" width="57.35px" xmlns="http://www.w3.org/2000/svg">
  <g transform="matrix(1.0, 0.0, 0.0, 1.0, 29.65, 21.8)">
    <path d="M24.65 16.6 Q20.2 23.55 11.4 24.4 -7.15 26.15 -24.7 19.7 -32.05 17.0 -28.5 10.4 -26.2 6.15 -21.85 3.85 -12.7 -0.95 -3.0 -3.0 8.25 -5.35 17.0 0.8 17.85 1.4 18.25 2.5 31.75 5.6 24.65 16.6 M12.3 5.6 Q7.85 0.25 0.0 2.25 -3.6 2.8 -7.45 4.35 L-10.5 5.75 Q-22.9 5.45 -19.35 15.75 -18.1 19.4 -14.2 19.8 L3.95 20.45 Q16.2 20.0 13.25 9.75 13.8 7.45 12.3 5.6" fill="#9c6229" fill-opacity="0.5019608" fill-rule="evenodd" stroke="none"/>
    <path d="M12.3 5.6 Q13.8 7.45 13.25 9.75 16.2 20.0 3.95 20.45 L-14.2 19.8 Q-18.1 19.4 -19.35 15.75 -22.9 5.45 -10.5 5.75 L-7.45 4.35 Q-3.6 2.8 0.0 2.25 7.85 0.25 12.3 5.6" fill="#9c6229" fill-opacity="0.8" fill-rule="evenodd" stroke="none"/>
    <path d="M-15.0 -0.6 L-15.3 -0.65 -15.5 -0.65 -15.85 -0.65 Q-18.3 -0.5 -20.55 -1.5 L-22.8 -2.95 Q-24.35 -4.15 -25.35 -5.85 L-26.2 -7.8 -25.85 -9.6 -25.6 -10.2 Q-24.8 -11.45 -23.55 -12.3 L-20.7 -14.25 Q-18.3 -15.95 -15.5 -16.8 L-9.15 -18.6 -4.8 -19.8 -4.6 -19.8 Q-1.2 -19.5 2.25 -19.9 L3.15 -19.9 6.85 -19.75 7.25 -19.7 7.7 -19.65 11.0 -19.3 11.65 -19.25 Q12.55 -19.15 13.25 -18.55 14.7 -18.45 16.2 -17.8 16.9 -17.55 16.65 -16.85 16.35 -16.15 15.6 -15.95 L15.45 -15.85 17.05 -15.5 Q17.5 -15.25 17.4 -14.8 L16.85 -13.5 Q16.85 -12.4 15.65 -12.05 L13.9 -11.5 12.45 -10.8 Q12.05 -9.35 10.6 -8.95 L6.85 -7.9 Q5.6 -7.5 4.45 -6.9 L3.55 -6.55 -3.55 -4.45 -14.15 -0.9 -15.0 -0.6" fill="#ad8a7c" fill-rule="evenodd" stroke="none"/>
    <path d="M7.25 -19.7 L6.85 -19.75 3.15 -19.9 2.25 -19.9 Q-1.2 -19.5 -4.6 -19.8 L-4.8 -19.8 -9.15 -18.6 -15.5 -16.8 Q-18.3 -15.95 -20.7 -14.25 L-23.55 -12.3 Q-24.8 -11.45 -25.6 -10.2 L-25.85 -9.6 -26.2 -7.8 -25.35 -5.85 Q-24.35 -4.15 -22.8 -2.95 L-20.55 -1.5 Q-18.3 -0.5 -15.85 -0.65 L-15.5 -0.65 -15.3 -0.65 -15.0 -0.6 -12.3 -0.25 -9.35 0.05 -8.8 0.05 -8.45 0.05 -8.4 0.05 -0.65 -0.55 -0.35 -0.6 5.7 -1.9 6.55 -2.1 Q9.15 -2.7 11.7 -3.6 L14.1 -4.25 15.65 -4.6 19.85 -5.9 Q21.5 -6.4 22.95 -7.3 24.0 -7.95 24.65 -8.95 L25.25 -10.4 25.4 -11.35 25.45 -12.85 Q25.3 -14.85 23.6 -16.05 L22.8 -16.6 21.2 -17.5 17.5 -18.45 12.75 -19.25 7.25 -19.7 M-24.85 -2.55 L-24.8 -2.25 -22.55 2.05 Q-21.05 3.35 -18.95 3.3 L-17.0 3.25 -12.3 3.6 -11.9 3.65 -6.7 3.9 -3.65 3.6 0.65 3.0 Q6.1 2.2 11.3 0.45 L13.3 -0.05 13.75 -0.1 20.05 -2.0 Q21.35 -2.35 22.35 -3.15 L22.65 -3.35 25.15 -5.05 25.4 -5.35 25.7 -5.7 Q26.05 -6.6 25.9 -7.6 L25.2 -6.9 Q22.65 -4.6 19.25 -3.75 L15.1 -2.9 13.95 -2.65 10.3 -1.5 7.05 -0.6 0.4 0.85 -2.0 1.3 -8.8 1.7 -11.7 1.55 -12.15 1.55 -13.25 1.4 -13.45 1.35 -14.85 1.15 -19.0 0.6 Q-22.45 -0.1 -24.8 -2.55 L-24.9 -2.65 -24.85 -2.55 M-27.4 -6.35 L-27.7 -8.25 Q-27.6 -10.75 -25.75 -12.35 -23.25 -14.6 -20.35 -16.35 -19.75 -16.7 -19.1 -17.0 L-16.35 -18.1 -9.85 -19.9 -3.55 -21.2 -1.05 -21.45 3.15 -21.7 9.35 -21.5 13.05 -21.1 Q16.35 -20.85 19.6 -19.9 21.9 -19.25 23.9 -18.1 27.15 -16.2 27.2 -12.6 L27.2 -11.7 Q27.9 -11.15 27.6 -10.1 27.2 -8.7 27.6 -7.3 L27.7 -6.6 Q27.7 -5.25 26.85 -4.2 L25.0 -2.45 24.55 -2.2 Q22.55 -0.95 20.35 -0.2 L18.7 0.35 18.35 0.45 18.4 1.25 Q18.0 4.75 19.1 8.0 19.65 9.6 19.8 11.3 19.95 13.45 18.3 14.75 L17.1 14.85 Q15.8 14.35 15.5 13.0 L15.4 12.5 14.1 7.55 13.45 4.75 Q13.15 3.4 13.1 2.0 L13.05 1.85 10.65 2.55 4.2 4.15 -1.8 5.2 -4.15 5.5 -4.3 6.0 Q-5.1 7.6 -5.3 9.35 L-5.45 10.75 -6.3 17.5 Q-6.55 19.5 -7.75 21.15 -8.45 22.0 -9.65 21.7 -11.7 21.15 -11.7 18.9 -11.8 17.2 -11.45 15.55 L-11.15 13.0 Q-11.0 10.7 -10.25 8.55 L-9.6 6.45 -9.35 5.7 -12.65 5.7 -14.35 5.4 -14.65 5.9 Q-14.8 7.6 -16.05 8.8 -17.2 9.95 -18.4 9.0 -19.65 8.05 -19.35 6.4 L-19.15 5.75 -18.8 5.0 -22.25 4.3 Q-23.9 3.7 -24.55 2.1 L-25.0 1.05 -25.1 0.7 Q-26.9 -2.25 -27.35 -5.65 L-27.4 -6.35 M17.25 8.8 L17.15 8.5 16.35 4.6 16.25 3.2 Q16.15 2.0 16.35 0.95 L14.6 1.4 Q15.1 4.65 16.05 7.8 L16.15 7.95 16.35 8.7 16.35 8.95 16.4 9.1 Q16.75 10.9 17.5 12.55 18.0 11.1 17.5 9.5 L17.25 8.8 M-7.9 13.05 L-7.9 13.0 -7.85 12.4 -7.25 8.0 -7.2 7.45 -6.5 5.65 -6.75 5.65 -7.9 5.7 -7.9 5.85 Q-8.1 7.8 -8.9 9.6 L-9.15 10.45 -9.4 12.75 -9.85 15.45 -10.05 16.55 Q-10.35 18.25 -9.55 19.65 L-9.45 19.65 -9.25 19.65 -9.1 19.4 -8.95 19.2 Q-8.1 16.2 -7.9 13.05 M-16.65 5.8 L-16.45 5.1 -16.85 5.1 -17.15 5.6 Q-17.65 6.4 -17.45 7.3 -16.8 6.9 -16.75 6.05 L-16.65 5.8" fill="#000000" fill-rule="evenodd" stroke="none"/>
    <path d="M-24.8 -2.55 L-24.85 -2.55 -24.8 -2.55" fill="#cb795f" fill-rule="evenodd" stroke="none"/>
    <path d="M-24.85 -2.55 L-24.8 -2.55 Q-22.45 -0.1 -19.0 0.6 L-14.85 1.15 -13.45 1.35 -13.25 1.4 -12.15 1.55 -11.7 1.55 -11.7 2.0 -11.8 3.2 -11.9 3.65 -12.3 3.6 -17.0 3.25 -18.95 3.3 Q-21.05 3.35 -22.55 2.05 L-24.8 -2.25 -24.85 -2.55" fill="#88432d" fill-rule="evenodd" stroke="none"/>
    <path d="M-15.0 -0.6 L-14.15 -0.9 -3.55 -4.45 3.55 -6.55 4.45 -6.9 Q5.6 -7.5 6.85 -7.9 L10.6 -8.95 Q12.05 -9.35 12.45 -10.8 L13.9 -11.5 15.65 -12.05 Q16.85 -12.4 16.85 -13.5 L17.4 -14.8 Q17.5 -15.25 17.05 -15.5 L15.45 -15.85 15.6 -15.95 Q16.35 -16.15 16.65 -16.85 16.9 -17.55 16.2 -17.8 14.7 -18.45 13.25 -18.55 12.55 -19.15 11.65 -19.25 L11.0 -19.3 7.7 -19.65 7.25 -19.7 12.75 -19.25 17.5 -18.45 21.2 -17.5 22.8 -16.6 22.85 -16.5 23.25 -15.2 Q23.5 -13.15 21.95 -11.5 L21.5 -11.1 Q20.7 -10.4 19.65 -10.0 L17.25 -8.8 Q16.45 -8.25 15.6 -8.0 L9.3 -5.75 6.0 -4.8 Q3.7 -4.2 1.95 -2.8 L-1.5 -1.75 -4.85 -0.65 -5.85 -0.35 -6.1 -0.3 -8.4 0.05 -8.45 0.05 -8.8 0.05 -9.35 0.05 -12.3 -0.25 -15.0 -0.6" fill="#97715f" fill-rule="evenodd" stroke="none"/>
    <path d="M22.8 -16.6 L23.6 -16.05 Q25.3 -14.85 25.45 -12.85 L25.4 -11.35 25.25 -10.4 24.65 -8.95 Q24.0 -7.95 22.95 -7.3 21.5 -6.4 19.85 -5.9 L15.65 -4.6 14.1 -4.25 11.7 -3.6 Q9.15 -2.7 6.55 -2.1 L5.7 -1.9 -0.35 -0.6 -0.65 -0.55 -8.4 0.05 -6.1 -0.3 -5.85 -0.35 -4.85 -0.65 -1.5 -1.75 1.95 -2.8 Q3.7 -4.2 6.0 -4.8 L9.3 -5.75 15.6 -8.0 Q16.45 -8.25 17.25 -8.8 L19.65 -10.0 Q20.7 -10.4 21.5 -11.1 L21.95 -11.5 Q23.5 -13.15 23.25 -15.2 L22.85 -16.5 22.8 -16.6" fill="#765649" fill-rule="evenodd" stroke="none"/>
    <path d="M-11.9 3.65 L-11.8 3.2 -11.7 2.0 -11.7 1.55 -8.8 1.7 -2.0 1.3 0.4 0.85 7.05 -0.6 10.3 -1.5 13.95 -2.65 15.1 -2.9 19.25 -3.75 Q22.65 -4.6 25.2 -6.9 L25.9 -7.6 Q26.05 -6.6 25.7 -5.7 L25.4 -5.35 25.15 -5.05 22.65 -3.35 22.35 -3.15 Q21.35 -2.35 20.05 -2.0 L13.75 -0.1 13.3 -0.05 11.3 0.45 Q6.1 2.2 0.65 3.0 L-3.65 3.6 -6.7 3.9 -11.9 3.65" fill="#6e3623" fill-rule="evenodd" stroke="none"/>
    <path d="M16.35 8.95 L16.35 8.7 16.15 7.95 16.05 7.8 Q15.1 4.65 14.6 1.4 L16.35 0.95 Q16.15 2.0 16.25 3.2 L16.35 4.6 17.15 8.5 17.25 8.8 Q16.95 9.15 16.5 9.0 L16.35 8.95 M-9.4 12.75 L-9.15 10.45 -8.9 9.6 Q-8.1 7.8 -7.9 5.85 L-7.9 5.7 -6.75 5.65 -6.5 5.65 -7.2 7.45 -7.25 8.0 -7.85 12.4 -7.9 13.0 -7.9 13.05 -7.9 13.2 Q-8.3 13.55 -9.1 13.2 L-9.4 12.85 -9.4 12.75" fill="#4a4e55" fill-rule="evenodd" stroke="none"/>
    <path d="M16.35 8.95 L16.5 9.0 Q16.95 9.15 17.25 8.8 L17.5 9.5 Q18.0 11.1 17.5 12.55 16.75 10.9 16.4 9.1 L16.35 8.95 M-9.4 12.75 L-9.4 12.85 -9.1 13.2 Q-8.3 13.55 -7.9 13.2 L-7.9 13.05 Q-8.1 16.2 -8.95 19.2 L-9.1 19.4 -9.25 19.65 -9.45 19.65 -9.55 19.65 Q-10.35 18.25 -10.05 16.55 L-9.85 15.45 -9.4 12.75" fill="#888c99" fill-rule="evenodd" stroke="none"/>
  </g>
</svg>
