<?xml version="1.0" encoding="UTF-8" standalone="no"?>
<svg xmlns:ffdec="https://www.free-decompiler.com/flash" xmlns:xlink="http://www.w3.org/1999/xlink" ffdec:objectType="shape" height="23.6px" width="50.95px" xmlns="http://www.w3.org/2000/svg">
  <g transform="matrix(1.0, 0.0, 0.0, 1.0, 25.45, 11.8)">
    <path d="M9.7 -11.75 Q14.65 -12.15 18.4 -9.05 L23.25 -4.6 24.65 -2.8 Q26.6 0.15 23.95 2.35 L21.5 4.0 Q16.2 6.75 10.25 7.55 4.4 8.35 -1.35 9.7 L-6.4 10.55 Q-8.0 10.7 -9.5 11.3 L-14.2 11.4 Q-16.7 10.5 -18.65 8.7 -20.4 7.05 -22.4 5.9 L-22.85 5.55 Q-25.2 3.3 -25.4 0.15 -25.55 -2.0 -25.1 -4.0 -24.8 -5.1 -23.85 -5.7 -18.7 -8.7 -12.7 -9.35 L-9.25 -9.95 2.35 -11.45 9.7 -11.75 M13.35 -8.85 Q15.45 -7.75 16.8 -5.6 L17.1 -5.1 17.55 -4.6 17.55 -4.45 17.45 -4.25 16.4 -4.45 16.4 -4.5 15.3 -4.95 13.7 -6.3 13.4 -6.65 12.8 -7.2 11.15 -8.45 11.1 -8.65 11.1 -8.7 11.1 -8.8 10.95 -8.95 10.85 -9.1 10.85 -9.2 6.85 -9.35 7.2 -9.25 7.7 -9.0 7.8 -8.9 Q7.7 -7.55 5.9 -7.65 L5.7 -7.6 Q5.85 -6.7 5.15 -6.2 4.6 -5.8 4.15 -6.4 L4.0 -7.35 4.1 -8.55 Q4.4 -9.15 5.05 -9.3 L5.65 -9.35 5.05 -9.35 2.85 -9.35 -8.9 -7.75 -17.35 -5.9 -18.35 -5.65 Q-20.85 -4.9 -23.0 -3.45 -23.4 -1.65 -23.2 -0.05 -23.0 1.6 -22.0 2.9 -20.75 4.55 -18.85 5.55 -18.2 5.9 -17.7 6.4 -15.8 8.35 -13.4 8.95 L-13.3 8.95 -11.6 9.2 -11.55 9.2 -11.4 9.2 -10.9 9.1 -10.8 9.05 -10.75 9.05 -9.65 8.65 -6.15 7.85 -5.65 7.75 -4.6 7.6 -2.4 7.25 2.55 6.2 9.55 4.75 Q14.05 4.0 18.15 2.25 L22.0 0.4 22.65 0.05 22.8 -0.25 22.9 -0.4 22.8 -0.6 21.05 -3.15 19.75 -4.45 Q16.85 -7.1 13.45 -9.0 L13.05 -9.05 13.35 -8.85 M12.2 -3.8 L12.2 -3.75 12.0 -3.1 11.95 -3.05 12.2 -3.8 M8.65 -2.45 Q6.65 -3.4 7.45 -5.25 L7.9 -5.75 9.3 -6.5 11.2 -6.15 Q12.0 -5.7 12.2 -4.7 11.8 -5.6 10.05 -5.85 8.9 -5.75 8.65 -4.55 8.35 -3.15 9.1 -2.55 L8.8 -2.4 8.65 -2.45 M-11.3 5.0 L-12.4 4.45 -12.85 4.0 Q-13.9 3.25 -15.05 2.7 -17.35 1.6 -19.1 -0.05 -19.9 -0.05 -20.35 -0.6 L-20.35 -0.75 -20.25 -1.05 Q-18.7 -1.6 -17.4 -0.45 L-16.7 0.0 Q-14.65 1.1 -12.8 2.45 -11.0 3.7 -8.8 3.35 L5.55 1.25 Q11.8 0.5 17.4 -2.3 L17.8 -2.45 18.2 -2.3 18.65 -1.7 18.65 -1.55 Q17.25 0.6 14.45 1.35 7.95 3.05 1.2 3.85 -2.65 4.25 -6.35 5.25 L-11.3 5.0 M6.05 -4.05 L5.95 -3.75 5.35 -3.55 4.05 -3.95 3.05 -3.95 2.85 -3.8 2.6 -3.65 2.6 -3.5 2.6 -3.35 2.6 -3.15 2.9 -2.85 3.4 -2.4 3.5 -2.25 3.45 -2.1 3.35 -1.95 3.15 -1.65 3.1 -1.65 1.8 -1.75 Q1.35 -1.85 1.0 -2.25 L0.9 -3.0 0.9 -3.05 0.9 -3.15 0.95 -3.75 0.95 -4.4 1.85 -5.3 Q2.45 -5.7 3.05 -5.7 4.65 -5.7 5.9 -4.65 L6.0 -4.5 6.05 -4.4 6.05 -4.35 6.05 -4.05 M-0.8 -8.45 L-0.75 -8.45 0.4 -8.0 0.5 -7.9 0.5 -7.75 0.35 -7.5 Q-0.4 -7.4 -0.95 -6.85 L-0.65 -6.4 -0.6 -6.25 -0.9 -5.55 Q-1.45 -5.0 -2.45 -6.05 L-2.55 -6.2 Q-3.05 -7.75 -1.7 -8.2 L-1.05 -8.4 -0.8 -8.45 M-4.05 -0.7 L-4.85 -0.85 Q-5.4 -0.9 -5.65 -1.35 L-5.65 -1.5 -5.65 -1.65 -5.8 -1.8 -5.9 -2.0 -5.9 -2.15 -5.9 -2.6 -5.85 -3.05 Q-4.8 -4.5 -2.95 -4.45 -0.5 -4.65 -0.15 -2.35 L-0.1 -2.2 -0.2 -2.05 -0.35 -1.7 -0.5 -1.45 -0.55 -1.4 -0.75 -1.35 -1.1 -1.65 -1.45 -2.25 -1.55 -2.65 -1.55 -2.7 -1.65 -2.85 -1.8 -3.0 -1.9 -3.1 -4.2 -2.9 -4.35 -2.8 -4.6 -2.6 -4.6 -2.45 -4.55 -2.3 -4.45 -2.0 -3.95 -1.75 Q-3.45 -1.55 -3.15 -1.15 L-3.2 -1.05 Q-3.55 -0.75 -4.0 -0.7 L-4.05 -0.7 M-6.75 -4.65 Q-8.05 -3.85 -8.7 -5.8 -9.1 -7.1 -7.95 -7.45 L-7.35 -7.35 -6.85 -7.3 -6.65 -7.2 -6.6 -7.05 -6.5 -6.75 -6.7 -6.3 -7.0 -6.0 -6.45 -5.35 -6.3 -5.05 -6.35 -5.0 -6.75 -4.65 M-17.45 -2.85 Q-18.3 -3.7 -17.9 -5.1 L-17.15 -5.65 -16.05 -5.9 Q-12.75 -5.65 -9.9 -3.8 L-9.8 -3.75 Q-6.85 -3.0 -6.7 -0.05 L-6.95 0.75 Q-7.7 1.75 -9.05 1.9 L-9.2 1.85 -9.15 1.85 -9.35 1.8 -9.4 1.75 -9.75 1.5 -9.75 0.95 -9.5 0.65 -8.3 -0.35 -8.35 -0.5 -8.75 -1.3 -8.85 -1.45 Q-12.2 -3.6 -16.05 -4.15 L-16.15 -4.0 -16.1 -3.85 Q-16.0 -3.7 -15.9 -3.7 -15.1 -3.55 -14.55 -3.0 -15.0 -1.55 -16.7 -2.35 L-17.45 -2.85" fill="#000000" fill-rule="evenodd" stroke="none"/>
    <path d="M16.4 -4.45 L17.45 -4.25 17.55 -4.45 17.55 -4.6 17.1 -5.1 16.8 -5.6 Q15.45 -7.75 13.35 -8.85 L13.45 -9.0 Q16.85 -7.1 19.75 -4.45 L21.05 -3.15 20.85 -3.15 18.2 -2.3 17.8 -2.45 17.4 -2.3 Q11.8 0.5 5.55 1.25 L-8.8 3.35 Q-11.0 3.7 -12.8 2.45 -14.65 1.1 -16.7 0.0 L-17.4 -0.45 Q-18.7 -1.6 -20.25 -1.05 L-20.35 -0.75 -20.35 -0.6 Q-19.9 -0.05 -19.1 -0.05 -17.35 1.6 -15.05 2.7 -13.9 3.25 -12.85 4.0 L-12.4 4.45 -11.3 5.0 Q-12.55 5.7 -13.4 6.9 -14.1 8.0 -13.4 8.95 -15.8 8.35 -17.7 6.4 -18.2 5.9 -18.85 5.55 -20.75 4.55 -22.0 2.9 -23.0 1.6 -23.2 -0.05 -23.4 -1.65 -23.0 -3.45 -20.85 -4.9 -18.35 -5.65 L-17.35 -5.9 -8.9 -7.75 2.85 -9.35 5.05 -9.35 5.05 -9.3 Q4.4 -9.15 4.1 -8.55 L4.0 -7.35 4.15 -6.4 Q4.6 -5.8 5.15 -6.2 L5.15 -6.15 Q5.75 -5.75 7.0 -5.9 7.85 -6.05 8.15 -6.8 8.7 -8.25 7.9 -8.9 L7.2 -9.25 6.85 -9.35 10.85 -9.2 10.85 -9.1 10.95 -8.95 11.1 -8.8 11.1 -8.7 11.05 -8.65 Q9.8 -7.7 10.95 -6.5 L11.2 -6.15 9.3 -6.5 7.9 -5.75 7.45 -5.25 Q6.65 -3.4 8.65 -2.45 L8.8 -2.35 9.05 -2.25 Q10.25 -1.85 11.5 -2.9 L11.65 -3.0 11.7 -3.0 11.95 -3.05 12.0 -3.1 12.2 -3.75 12.2 -3.8 12.2 -3.85 12.25 -3.95 Q13.3 -2.85 15.4 -3.25 L15.85 -3.5 16.4 -4.45 M3.25 -1.55 L3.7 -1.6 Q5.45 -1.35 6.5 -2.5 6.9 -2.95 6.65 -3.45 L6.25 -4.15 6.05 -4.4 6.0 -4.5 5.9 -4.65 Q4.65 -5.7 3.05 -5.7 2.45 -5.7 1.85 -5.3 L0.95 -4.4 0.95 -3.75 0.8 -3.15 Q0.8 -2.6 0.95 -2.2 1.3 -1.0 3.1 -1.5 L3.25 -1.55 M-0.9 -5.55 Q0.65 -4.65 2.1 -5.85 L2.6 -6.75 Q3.1 -9.1 0.35 -8.9 L-0.85 -8.55 -1.05 -8.4 -1.7 -8.2 Q-3.05 -7.75 -2.55 -6.2 L-2.45 -6.05 Q-1.45 -5.0 -0.9 -5.55 M-1.45 -2.25 L-1.1 -1.65 -0.75 -1.35 -0.55 -1.4 -0.5 -1.45 -0.35 -1.7 -0.2 -2.05 -0.1 -2.2 -0.15 -2.35 Q-0.5 -4.65 -2.95 -4.45 -4.8 -4.5 -5.85 -3.05 L-5.9 -2.6 -5.9 -2.15 -5.9 -2.0 -5.8 -1.8 -5.65 -1.65 -5.65 -1.5 -5.65 -1.35 Q-5.4 -0.9 -4.85 -0.85 L-4.05 -0.7 -4.4 -0.75 -4.15 -0.65 -4.1 -0.65 -2.95 -0.65 Q-2.25 -0.75 -1.9 -1.3 L-1.45 -2.25 M22.0 0.4 L22.35 0.2 22.8 -0.6 22.9 -0.4 22.8 -0.25 22.65 0.05 22.0 0.4 M-6.75 -4.65 L-7.0 -4.5 Q-6.5 -4.2 -5.65 -4.1 -4.1 -3.85 -3.45 -5.3 -2.4 -7.7 -5.25 -7.8 L-6.5 -7.75 Q-7.05 -7.7 -7.35 -7.35 L-7.95 -7.45 Q-9.1 -7.1 -8.7 -5.8 -8.05 -3.85 -6.75 -4.65 M-9.2 1.85 L-9.05 1.9 Q-7.7 1.75 -6.95 0.75 L-6.7 -0.05 Q-6.85 -3.0 -9.8 -3.75 L-9.9 -3.8 Q-12.75 -5.65 -16.05 -5.9 L-17.15 -5.65 -17.9 -5.1 Q-18.3 -3.7 -17.45 -2.85 L-17.5 -2.85 Q-17.8 -2.35 -17.45 -1.9 L-15.25 0.3 Q-12.9 1.95 -10.1 2.05 L-9.2 1.85 M-11.4 9.2 L-10.8 9.05 -10.9 9.1 -11.4 9.2" fill="#ffcc00" fill-rule="evenodd" stroke="none"/>
    <path d="M16.4 -4.45 L15.85 -3.5 15.4 -3.25 Q13.3 -2.85 12.25 -3.95 L12.2 -3.85 12.2 -3.8 11.95 -3.05 11.7 -3.0 11.65 -3.0 11.5 -2.9 Q10.25 -1.85 9.05 -2.25 L9.1 -2.55 Q8.35 -3.15 8.65 -4.55 8.9 -5.75 10.05 -5.85 11.8 -5.6 12.2 -4.7 12.0 -5.7 11.2 -6.15 L10.95 -6.5 Q9.8 -7.7 11.05 -8.65 L11.1 -8.65 11.15 -8.45 12.8 -7.2 13.4 -6.65 13.7 -6.3 15.3 -4.95 16.4 -4.5 16.4 -4.45 M7.9 -8.9 Q8.7 -8.25 8.15 -6.8 7.85 -6.05 7.0 -5.9 5.75 -5.75 5.15 -6.15 L5.15 -6.2 Q5.85 -6.7 5.7 -7.6 L5.9 -7.65 Q7.7 -7.55 7.8 -8.9 L7.9 -8.9 M-13.4 8.95 Q-14.1 8.0 -13.4 6.9 -12.55 5.7 -11.3 5.0 L-6.35 5.25 Q-2.65 4.25 1.2 3.85 7.95 3.05 14.45 1.35 17.25 0.6 18.65 -1.55 L18.65 -1.7 18.2 -2.3 20.85 -3.15 21.05 -3.15 22.8 -0.6 22.35 0.2 22.0 0.4 18.15 2.25 Q14.05 4.0 9.55 4.75 L2.55 6.2 -2.4 7.25 -4.6 7.6 -5.65 7.75 -6.15 7.85 -9.65 8.65 -10.75 9.05 -10.8 9.05 -11.4 9.2 -11.55 9.2 -11.6 9.2 -13.3 8.95 -13.4 8.95 M3.15 -1.65 L3.35 -1.95 3.45 -2.1 3.5 -2.25 3.4 -2.4 2.9 -2.85 2.6 -3.15 2.6 -3.35 2.6 -3.5 2.6 -3.65 2.85 -3.8 3.05 -3.95 4.05 -3.95 5.35 -3.55 5.95 -3.75 6.05 -4.05 6.25 -4.15 6.65 -3.45 Q6.9 -2.95 6.5 -2.5 5.45 -1.35 3.7 -1.6 L3.25 -1.55 3.15 -1.65 M-0.9 -5.55 L-0.6 -6.25 -0.65 -6.4 -0.95 -6.85 Q-0.4 -7.4 0.35 -7.5 L0.5 -7.75 0.5 -7.9 0.4 -8.0 -0.75 -8.45 -0.8 -8.45 -0.85 -8.55 0.35 -8.9 Q3.1 -9.1 2.6 -6.75 L2.1 -5.85 Q0.65 -4.65 -0.9 -5.55 M-1.45 -2.25 L-1.9 -1.3 Q-2.25 -0.75 -2.95 -0.65 L-4.1 -0.65 -4.05 -0.7 -4.0 -0.7 Q-3.55 -0.75 -3.2 -1.05 L-3.15 -1.15 Q-3.45 -1.55 -3.95 -1.75 L-4.45 -2.0 -4.55 -2.3 -4.6 -2.45 -4.6 -2.6 -4.35 -2.8 -4.2 -2.9 -1.9 -3.1 -1.8 -3.0 -1.65 -2.85 -1.55 -2.7 -1.55 -2.65 -1.45 -2.25 M-7.35 -7.35 Q-7.05 -7.7 -6.5 -7.75 L-5.25 -7.8 Q-2.4 -7.7 -3.45 -5.3 -4.1 -3.85 -5.65 -4.1 -6.5 -4.2 -7.0 -4.5 L-6.75 -4.65 -6.35 -5.0 -6.3 -5.05 -6.45 -5.35 -7.0 -6.0 -6.7 -6.3 -6.5 -6.75 -6.6 -7.05 -6.65 -7.2 -6.85 -7.3 -7.35 -7.35 M-9.2 1.85 L-10.1 2.05 Q-12.9 1.95 -15.25 0.3 L-17.45 -1.9 Q-17.8 -2.35 -17.5 -2.85 L-17.45 -2.85 -16.7 -2.35 Q-15.0 -1.55 -14.55 -3.0 -15.1 -3.55 -15.9 -3.7 -16.0 -3.7 -16.1 -3.85 L-16.15 -4.0 -16.05 -4.15 Q-12.2 -3.6 -8.85 -1.45 L-8.75 -1.3 -8.35 -0.5 -8.3 -0.35 -9.5 0.65 -9.75 0.95 -9.75 1.5 -9.4 1.75 -9.35 1.8 -9.15 1.85 -9.2 1.85" fill="#cc6600" fill-rule="evenodd" stroke="none"/>
    <path d="M9.05 -2.25 L8.8 -2.35 8.65 -2.45 8.8 -2.4 9.1 -2.55 9.05 -2.25 M11.05 -8.65 L11.1 -8.7 11.1 -8.65 11.05 -8.65 M7.2 -9.25 L7.9 -8.9 7.8 -8.9 7.7 -9.0 7.2 -9.25 M3.15 -1.65 L3.25 -1.55 3.1 -1.5 Q1.3 -1.0 0.95 -2.2 0.8 -2.6 0.8 -3.15 L0.95 -3.75 0.9 -3.15 0.9 -3.05 0.9 -3.0 1.0 -2.25 Q1.35 -1.85 1.8 -1.75 L3.1 -1.65 3.15 -1.65 M6.25 -4.15 L6.05 -4.05 6.05 -4.35 6.05 -4.4 6.25 -4.15 M-0.85 -8.55 L-0.8 -8.45 -1.05 -8.4 -0.85 -8.55 M-4.1 -0.65 L-4.15 -0.65 -4.4 -0.75 -4.05 -0.7 -4.1 -0.65" fill="#ff9900" fill-rule="evenodd" stroke="none"/>
  </g>
</svg>
