<?xml version="1.0" encoding="UTF-8" standalone="no"?>
<svg xmlns:ffdec="https://www.free-decompiler.com/flash" xmlns:xlink="http://www.w3.org/1999/xlink" ffdec:objectType="shape" height="15.7px" width="41.1px" xmlns="http://www.w3.org/2000/svg">
  <g transform="matrix(1.0, 0.0, 0.0, 1.0, 19.1, 12.65)">
    <path d="M7.25 -9.1 L9.1 -9.05 Q10.75 -10.65 8.6 -11.3 L8.3 -11.25 7.55 -11.05 Q6.15 -10.25 7.25 -9.1 M11.6 -9.35 L11.5 -9.2 10.6 -8.05 Q8.1 -5.9 6.25 -8.1 5.75 -8.65 5.9 -9.4 6.5 -12.25 9.45 -12.65 11.6 -12.35 11.9 -11.05 L11.7 -10.9 Q10.9 -10.1 11.6 -9.35 M13.6 -11.25 Q14.35 -12.25 15.75 -12.55 19.15 -12.6 18.6 -9.4 L18.5 -8.85 19.3 -9.05 Q22.45 -8.8 21.9 -6.0 21.65 -4.75 20.55 -4.0 18.3 -2.6 16.55 -4.6 15.7 -5.6 16.3 -6.8 L16.0 -6.75 15.15 -6.6 14.7 -5.35 Q14.35 -4.6 13.55 -4.2 11.0 -2.85 10.05 -5.25 9.55 -6.45 10.3 -7.5 11.1 -8.55 12.2 -8.8 12.95 -8.45 13.5 -9.4 14.25 -10.65 13.6 -11.25 M1.7 -11.35 Q4.65 -11.45 4.6 -8.8 L4.3 -7.75 4.3 -7.7 Q6.1 -7.5 5.95 -5.85 L8.0 -6.4 Q10.5 -5.65 9.45 -3.15 8.7 -1.3 6.65 -1.1 5.4 -0.95 4.55 -1.8 L3.95 -2.75 2.2 -2.5 Q0.7 -2.6 0.4 -3.9 0.2 -4.75 0.6 -5.5 L0.9 -5.95 0.3 -6.1 -0.15 -6.5 Q-1.6 -8.45 0.05 -10.45 0.7 -11.25 1.7 -11.35 M0.15 -8.2 Q0.05 -7.85 0.25 -7.65 1.95 -5.95 3.4 -8.2 4.7 -10.2 2.3 -10.6 0.6 -10.05 0.15 -8.2 M5.55 -4.45 Q5.85 -5.9 4.2 -6.4 L4.2 -6.35 3.9 -6.35 Q3.4 -6.15 3.05 -5.75 1.75 -4.4 3.2 -3.3 4.55 -2.25 5.25 -3.65 L5.3 -3.7 Q5.3 -3.25 5.85 -2.9 7.1 -2.0 8.1 -3.15 9.6 -4.9 7.55 -5.65 6.3 -5.6 5.55 -4.45 M19.1 -8.3 Q18.05 -8.05 17.5 -6.95 17.0 -6.05 17.75 -5.3 18.9 -4.15 19.9 -5.45 21.4 -7.35 19.1 -8.3 M16.7 -8.7 Q18.15 -10.8 15.75 -11.3 14.35 -11.0 13.9 -9.45 13.75 -8.95 14.1 -8.6 15.45 -6.95 16.7 -8.7 M11.75 -8.4 L11.1 -8.1 Q10.35 -7.5 10.25 -6.6 10.05 -4.5 12.3 -4.85 13.05 -4.95 13.4 -5.65 14.6 -8.05 11.75 -8.4 M-17.7 -6.05 Q-17.05 -6.8 -16.15 -6.95 -13.15 -6.75 -13.7 -3.8 L-13.9 -3.2 -14.05 -2.9 -13.45 -2.75 Q-12.6 -4.2 -10.7 -4.7 -7.65 -3.35 -9.65 -0.5 -10.8 1.1 -12.05 1.05 L-12.95 2.0 Q-15.45 3.75 -18.15 2.6 -19.1 2.2 -19.1 1.15 -19.15 -0.45 -18.1 -1.65 L-18.4 -2.05 Q-19.1 -3.2 -18.55 -4.6 L-17.7 -6.05 M-15.35 -2.1 Q-17.25 -1.9 -17.65 -0.1 -17.75 0.4 -17.5 0.75 -16.4 2.5 -14.45 1.2 L-13.55 0.15 Q-12.65 -2.15 -15.35 -2.1 M-17.85 -3.0 Q-16.55 -1.9 -15.55 -3.25 -14.1 -5.25 -16.6 -6.25 -18.0 -5.85 -18.3 -4.3 -18.45 -3.5 -17.85 -3.0 M-11.55 -3.95 L-11.55 -3.9 -11.8 -3.85 -11.9 -3.85 -13.15 -2.25 Q-13.4 -1.8 -13.05 -1.45 -11.85 -0.1 -10.8 -1.7 -9.65 -3.45 -11.55 -3.95 M-2.9 -4.95 L-2.5 -5.0 Q0.5 -4.4 -0.7 -1.7 -1.35 -0.2 -2.9 0.15 -4.8 0.65 -5.3 -1.15 -5.6 -2.25 -5.05 -3.3 L-4.5 -4.05 Q-6.05 -3.45 -7.4 -4.95 L-7.45 -5.05 -7.95 -4.85 Q-9.75 -4.25 -10.5 -5.9 -11.2 -7.25 -10.55 -8.65 -9.65 -10.6 -7.55 -10.95 -5.8 -10.4 -5.45 -9.2 L-5.05 -9.35 Q-1.9 -9.35 -2.4 -6.4 -2.55 -5.55 -3.2 -4.9 -4.0 -4.7 -4.4 -3.85 -5.05 -2.5 -3.75 -1.95 -2.5 -1.35 -1.75 -2.55 -0.55 -4.5 -2.9 -4.95 M-3.3 -7.2 Q-3.4 -8.25 -4.4 -8.4 -5.8 -8.1 -5.9 -6.65 L-5.6 -6.0 Q-4.0 -5.0 -3.3 -7.05 L-3.3 -7.2 M-6.45 -6.9 Q-5.25 -9.0 -7.75 -9.35 -9.65 -8.8 -9.75 -6.8 L-9.5 -6.3 Q-7.65 -4.7 -6.45 -6.9" fill="#000000" fill-rule="evenodd" stroke="none"/>
    <path d="M7.25 -9.1 Q6.15 -10.25 7.55 -11.05 L8.3 -11.25 8.6 -11.3 Q10.75 -10.65 9.1 -9.05 L7.25 -9.1 M5.55 -4.45 Q6.3 -5.6 7.55 -5.65 9.6 -4.9 8.1 -3.15 7.1 -2.0 5.85 -2.9 5.3 -3.25 5.3 -3.7 L5.55 -4.45 M-15.35 -2.1 Q-12.65 -2.15 -13.55 0.15 L-14.45 1.2 Q-16.4 2.5 -17.5 0.75 -17.75 0.4 -17.65 -0.1 -17.25 -1.9 -15.35 -2.1" fill="#00cc00" fill-rule="evenodd" stroke="none"/>
    <path d="M19.1 -8.3 Q21.4 -7.35 19.9 -5.45 18.9 -4.15 17.75 -5.3 17.0 -6.05 17.5 -6.95 18.05 -8.05 19.1 -8.3 M11.75 -8.4 Q14.6 -8.05 13.4 -5.65 13.05 -4.95 12.3 -4.85 10.05 -4.5 10.25 -6.6 10.35 -7.5 11.1 -8.1 L11.75 -8.4 M-6.45 -6.9 Q-7.65 -4.7 -9.5 -6.3 L-9.75 -6.8 Q-9.65 -8.8 -7.75 -9.35 -5.25 -9.0 -6.45 -6.9" fill="#cc0000" fill-rule="evenodd" stroke="none"/>
    <path d="M0.15 -8.2 Q0.6 -10.05 2.3 -10.6 4.7 -10.2 3.4 -8.2 1.95 -5.95 0.25 -7.65 0.05 -7.85 0.15 -8.2 M16.7 -8.7 Q15.45 -6.95 14.1 -8.6 13.75 -8.95 13.9 -9.45 14.35 -11.0 15.75 -11.3 18.15 -10.8 16.7 -8.7 M-17.85 -3.0 Q-18.45 -3.5 -18.3 -4.3 -18.0 -5.85 -16.6 -6.25 -14.1 -5.25 -15.55 -3.25 -16.55 -1.9 -17.85 -3.0 M-3.2 -4.9 L-2.95 -4.95 -2.9 -4.95 Q-0.55 -4.5 -1.75 -2.55 -2.5 -1.35 -3.75 -1.95 -5.05 -2.5 -4.4 -3.85 -4.0 -4.7 -3.2 -4.9" fill="#00ccff" fill-rule="evenodd" stroke="none"/>
    <path d="M11.9 -11.05 L12.4 -11.55 12.5 -11.6 12.8 -11.6 12.8 -11.65 13.6 -11.25 Q14.25 -10.65 13.5 -9.4 12.95 -8.45 12.2 -8.8 L11.7 -9.2 11.6 -9.35 Q10.9 -10.1 11.7 -10.9 L11.9 -11.05 M5.3 -3.7 L5.25 -3.65 Q4.55 -2.25 3.2 -3.3 1.75 -4.4 3.05 -5.75 3.4 -6.15 3.9 -6.35 L4.2 -6.35 4.2 -6.4 Q5.85 -5.9 5.55 -4.45 L5.3 -3.7 M-11.55 -3.95 Q-9.65 -3.45 -10.8 -1.7 -11.85 -0.1 -13.05 -1.45 -13.4 -1.8 -13.15 -2.25 L-11.9 -3.85 -11.8 -3.85 -11.55 -3.9 -11.55 -3.95 M-3.3 -7.2 L-3.3 -7.05 Q-4.0 -5.0 -5.6 -6.0 L-5.9 -6.65 Q-5.8 -8.1 -4.4 -8.4 -3.4 -8.25 -3.3 -7.2" fill="#ff6600" fill-rule="evenodd" stroke="none"/>
  </g>
</svg>
