<?xml version="1.0" encoding="UTF-8" standalone="no"?>
<svg xmlns:ffdec="https://www.free-decompiler.com/flash" xmlns:xlink="http://www.w3.org/1999/xlink" ffdec:objectType="shape" height="49.7px" width="36.85px" xmlns="http://www.w3.org/2000/svg">
  <g transform="matrix(1.0, 0.0, 0.0, 1.0, 18.4, 24.85)">
    <path d="M1.35 -22.4 L5.95 -7.35 -2.9 -4.6 Q-4.8 -3.95 -6.8 -3.75 L-11.25 -3.2 -13.4 -2.85 -17.9 -13.55 1.35 -22.4" fill="#faf180" fill-rule="evenodd" stroke="none"/>
    <path d="M-13.4 -2.85 L-11.25 -3.2 -6.8 -3.75 Q-4.8 -3.95 -2.9 -4.6 L5.95 -7.35 12.5 14.15 12.6 14.35 12.7 14.65 12.8 15.05 13.05 15.85 -2.05 24.35 -13.25 -2.5 -13.4 -2.85" fill="#fff8ae" fill-rule="evenodd" stroke="none"/>
    <path d="M5.95 -7.35 L1.35 -22.4 5.55 -24.35 17.05 13.55 12.55 14.1 12.7 14.65 12.6 14.35 12.5 14.15 5.95 -7.35" fill="#706c6b" fill-rule="evenodd" stroke="none"/>
    <path d="M12.7 14.65 L12.55 14.1 17.05 13.55 17.95 16.5 -2.05 24.35 13.05 15.85 12.8 15.05 12.7 14.65" fill="#000000" fill-rule="evenodd" stroke="none"/>
    <path d="M5.95 -7.35 L1.35 -22.4 -17.9 -13.55 -13.4 -2.85 M5.95 -7.35 L12.5 14.15 12.6 14.35 M17.05 13.55 L5.55 -24.35 1.35 -22.4 M-2.05 24.35 L-13.25 -2.5 M17.05 13.55 L17.95 16.5 -2.05 24.35 13.05 15.85 12.8 15.05" fill="none" stroke="#000000" stroke-linecap="round" stroke-linejoin="round" stroke-width="1.0"/>
    <path d="M3.3 3.05 L0.25 4.35 -2.05 -3.6 1.7 -5.1 2.0 -4.2 2.55 -2.5 2.6 -1.85 Q3.8 -0.5 3.55 1.3 L3.3 2.3 3.6 2.95 3.3 3.05" fill="#706969" fill-rule="evenodd" stroke="none"/>
    <path d="M3.3 3.05 L3.6 2.95 3.3 2.3 3.55 1.3 Q3.8 -0.5 2.6 -1.85 L2.55 -2.5 2.0 -4.2 1.7 -5.1 3.35 -5.8 6.0 1.9 3.3 3.05" fill="#888080" fill-rule="evenodd" stroke="none"/>
    <path d="M1.7 -5.1 L-2.05 -3.6 0.25 4.35 3.3 3.05 6.0 1.9 3.35 -5.8 1.7 -5.1 Z" fill="none" stroke="#000000" stroke-linecap="round" stroke-linejoin="round" stroke-width="1.0"/>
  </g>
</svg>
