<?xml version="1.0" encoding="UTF-8" standalone="no"?>
<svg xmlns:ffdec="https://www.free-decompiler.com/flash" xmlns:xlink="http://www.w3.org/1999/xlink" ffdec:objectType="shape" height="480.0px" width="760.0px" xmlns="http://www.w3.org/2000/svg">
  <g transform="matrix(1.0, 0.0, 0.0, 1.0, 0.0, 0.0)">
    <path d="M700.0 260.0 Q658.5 298.8 605.5 299.4 L599.1 298.85 Q549.5 281.25 534.55 232.75 524.75 228.35 513.5 224.5 L445.5 209.5 Q379.5 190.75 307.5 204.5 237.6 222.05 179.5 270.5 L178.75 271.1 Q142.85 298.45 100.0 260.0 50.0 218.8 0.0 240.0 L0.0 0.0 760.0 0.0 760.0 240.0 Q730.0 236.65 700.0 260.0 M760.0 480.0 L540.0 480.0 Q661.9 421.9 760.0 340.0 L760.0 480.0 M0.0 480.0 L0.0 280.0 140.0 400.0 Q203.2 451.95 280.0 480.0 L0.0 480.0" fill="#000000" fill-opacity="0.5019608" fill-rule="evenodd" stroke="none"/>
  </g>
</svg>
