<?xml version="1.0" encoding="UTF-8" standalone="no"?>
<svg xmlns:ffdec="https://www.free-decompiler.com/flash" xmlns:xlink="http://www.w3.org/1999/xlink" ffdec:objectType="shape" height="55.45px" width="66.4px" xmlns="http://www.w3.org/2000/svg">
  <g transform="matrix(1.0, 0.0, 0.0, 1.0, 6.25, 37.75)">
    <path d="M27.4 -26.05 L27.7 -25.85 Q30.8 -23.6 34.05 -21.6 34.7 -21.2 34.9 -21.7 36.1 -25.4 38.45 -28.2 39.0 -28.85 39.8 -29.2 44.7 -31.45 48.4 -28.25 L47.6 -24.95 44.4 -24.5 Q42.8 -24.1 41.5 -23.1 39.9 -21.95 41.25 -20.5 L41.7 -20.4 42.55 -20.7 43.0 -21.1 43.5 -21.1 Q44.35 -21.0 44.95 -20.4 L45.95 -19.45 46.5 -19.0 Q48.55 -19.5 50.8 -20.45 L51.75 -20.5 Q57.3 -19.8 58.6 -14.4 59.35 -11.15 57.1 -8.85 54.5 -6.15 50.65 -6.1 L48.1 -6.4 Q47.25 -6.35 47.3 -5.5 47.45 -0.85 46.15 3.6 44.25 10.0 38.3 13.0 29.45 17.7 19.85 15.9 17.5 15.6 15.65 14.45 8.45 9.9 8.5 1.55 8.5 -2.1 11.2 -4.1 L13.9 -3.5 Q15.2 -3.0 15.9 -1.9 15.1 2.45 17.2 6.15 18.5 8.35 20.85 9.0 28.45 10.85 35.05 6.95 38.8 4.75 39.4 0.35 40.8 -10.2 31.4 -15.45 L27.15 -17.95 22.0 -21.45 21.55 -21.35 20.9 -20.7 20.55 -20.1 20.5 -19.9 15.85 -16.2 Q15.25 -16.2 14.9 -16.7 14.45 -17.3 13.5 -17.25 L13.15 -17.05 12.85 -16.35 Q12.6 -12.35 10.4 -9.05 9.1 -7.0 7.05 -6.75 0.45 -10.1 -5.35 -14.45 -4.5 -22.45 2.5 -26.35 L4.45 -26.6 Q7.15 -26.0 8.7 -27.65 L8.8 -28.4 13.45 -31.85 13.95 -31.65 Q15.15 -30.05 16.15 -27.9 17.05 -26.1 18.25 -24.4 L18.9 -23.9 19.65 -24.45 Q20.0 -24.65 19.95 -24.95 19.3 -29.55 21.8 -33.4 24.6 -37.6 29.7 -35.95 33.7 -34.95 36.85 -32.55 L35.8 -30.8 34.65 -29.35 33.85 -29.6 Q30.65 -31.1 28.45 -29.25 26.8 -27.85 27.4 -26.05 M53.65 -13.4 Q53.65 -14.25 53.05 -14.85 52.45 -15.45 51.6 -15.45 50.75 -15.45 50.15 -14.85 49.55 -14.25 49.55 -13.4 49.55 -12.55 50.15 -11.95 50.75 -11.35 51.6 -11.35 52.45 -11.35 53.05 -11.95 53.65 -12.55 53.65 -13.4 M0.8 -16.95 Q2.55 -15.45 4.5 -14.25 4.85 -14.05 5.3 -13.95 L6.35 -14.6 6.45 -15.05 Q7.4 -18.65 5.15 -21.2 2.15 -21.0 0.6 -18.15 0.25 -17.4 0.8 -16.95" fill="#ffff00" fill-rule="evenodd" stroke="none"/>
    <path d="M-5.95 -14.95 Q-6.4 -15.7 -6.2 -16.85 -5.2 -22.45 -1.0 -26.05 1.45 -28.1 4.5 -28.5 L7.4 -28.05 Q9.2 -32.0 13.65 -32.9 14.2 -32.9 14.6 -32.45 L17.2 -28.45 18.9 -25.25 Q17.95 -31.35 22.2 -35.7 22.9 -36.45 23.9 -36.9 27.9 -38.65 32.2 -36.85 35.65 -35.55 38.2 -32.9 37.85 -29.75 35.0 -28.0 L30.15 -29.05 Q29.05 -28.65 28.65 -27.5 L28.4 -26.85 34.3 -22.65 Q35.05 -27.75 39.35 -30.15 40.95 -31.1 42.8 -31.55 47.0 -31.65 49.4 -28.6 L49.6 -27.75 Q49.5 -25.7 48.45 -24.2 48.2 -23.85 47.75 -23.65 44.6 -24.05 42.05 -22.35 44.75 -22.75 46.4 -20.9 L46.8 -20.3 Q52.15 -23.9 57.1 -19.7 60.3 -17.0 60.15 -12.8 60.05 -10.05 58.0 -8.0 53.9 -3.7 48.3 -5.15 49.4 5.45 41.7 12.25 39.25 14.5 36.0 15.75 27.0 19.1 17.9 16.65 10.95 14.8 8.35 8.0 6.1 1.95 8.95 -3.65 L9.9 -4.75 10.8 -5.4 Q14.35 -5.75 16.7 -3.05 L17.25 -2.25 Q16.3 1.95 18.35 5.4 19.75 7.85 22.6 8.35 29.8 8.9 35.45 4.8 37.35 3.45 37.9 1.3 39.6 -5.3 35.2 -10.6 32.3 -14.1 28.1 -15.9 24.55 -17.45 21.9 -20.15 20.25 -16.95 17.15 -15.4 15.15 -14.3 13.85 -16.0 13.75 -9.85 8.7 -6.2 8.0 -5.7 7.15 -5.45 L6.8 -5.45 Q1.25 -8.2 -3.25 -12.25 1.45 -8.75 6.8 -6.25 L7.55 -6.35 Q10.8 -7.55 12.3 -10.85 13.1 -12.55 13.2 -14.6 13.25 -15.5 13.45 -16.4 L13.7 -16.6 15.85 -15.55 Q18.75 -16.8 20.85 -19.4 L21.35 -20.45 21.95 -20.8 Q24.75 -18.2 28.4 -16.5 32.6 -14.55 35.7 -11.0 40.4 -5.6 38.25 1.4 36.7 6.5 31.25 8.1 26.05 9.75 21.1 8.3 19.75 7.8 18.6 6.9 17.05 5.55 16.7 3.45 16.3 0.95 16.55 -2.0 15.65 -3.45 14.2 -4.15 12.7 -4.8 11.0 -4.75 7.25 -1.9 7.85 3.2 8.3 7.1 10.5 10.5 14.2 16.1 21.2 16.9 32.35 18.25 41.4 11.9 44.25 9.85 45.65 6.6 48.1 0.75 47.8 -5.55 L48.2 -5.8 Q50.8 -4.75 53.4 -5.7 57.15 -6.85 58.8 -10.45 60.05 -13.15 58.75 -16.1 56.75 -20.65 51.85 -21.45 L50.75 -21.25 46.85 -19.65 45.45 -20.85 Q44.7 -21.65 43.5 -21.75 L42.55 -21.7 42.2 -21.15 41.35 -21.25 41.55 -22.75 Q44.4 -24.6 47.75 -24.3 L48.25 -24.55 49.05 -28.5 Q44.8 -32.25 39.45 -29.95 37.6 -29.05 36.7 -27.15 35.6 -24.95 34.95 -22.5 L34.35 -22.0 27.8 -26.6 Q27.95 -27.95 28.9 -28.8 L30.0 -29.65 34.9 -28.7 37.65 -32.3 Q34.75 -35.65 29.9 -36.55 25.3 -38.05 22.1 -34.8 21.2 -33.85 20.7 -32.7 18.95 -28.9 19.35 -24.7 L18.65 -24.65 14.1 -32.0 13.5 -32.5 Q13.0 -32.4 12.6 -32.1 10.4 -30.6 8.3 -28.9 L7.95 -27.65 7.6 -27.4 Q2.15 -28.8 -1.55 -24.3 L-3.6 -21.6 Q-5.75 -18.65 -5.95 -14.95 M1.15 -17.8 Q2.45 -20.05 4.9 -20.6 L5.75 -18.75 Q6.25 -16.6 5.55 -14.75 L5.45 -14.6 4.85 -14.8 1.1 -17.35 1.15 -17.8 M52.6 -12.4 Q52.2 -12.0 51.6 -12.0 51.0 -12.0 50.6 -12.4 50.2 -12.8 50.2 -13.4 50.2 -14.0 50.6 -14.4 51.0 -14.8 51.6 -14.8 52.2 -14.8 52.6 -14.4 53.0 -14.0 53.0 -13.4 53.0 -12.8 52.6 -12.4" fill="#ffff00" fill-opacity="0.32941177" fill-rule="evenodd" stroke="none"/>
    <path d="M-3.25 -12.25 L-5.7 -14.6 -5.95 -14.95 Q-5.75 -18.65 -3.6 -21.6 L-1.55 -24.3 Q2.15 -28.8 7.6 -27.4 L7.95 -27.65 8.3 -28.9 Q10.4 -30.6 12.6 -32.1 13.0 -32.4 13.5 -32.5 L14.1 -32.0 18.65 -24.65 19.35 -24.7 Q18.95 -28.9 20.7 -32.7 21.2 -33.85 22.1 -34.8 25.3 -38.05 29.9 -36.55 34.75 -35.65 37.65 -32.3 L34.9 -28.7 30.0 -29.65 28.9 -28.8 Q27.95 -27.95 27.8 -26.6 L34.35 -22.0 34.95 -22.5 Q35.6 -24.95 36.7 -27.15 37.6 -29.05 39.45 -29.95 44.8 -32.25 49.05 -28.5 L48.25 -24.55 47.75 -24.3 Q44.4 -24.6 41.55 -22.75 L41.35 -21.25 42.2 -21.15 42.55 -21.7 43.5 -21.75 Q44.7 -21.65 45.45 -20.85 L46.85 -19.65 50.75 -21.25 51.85 -21.45 Q56.75 -20.65 58.75 -16.1 60.05 -13.15 58.8 -10.45 57.15 -6.85 53.4 -5.7 50.8 -4.75 48.2 -5.8 L47.8 -5.55 Q48.1 0.75 45.65 6.6 44.25 9.85 41.4 11.9 32.35 18.25 21.2 16.9 14.2 16.1 10.5 10.5 8.3 7.1 7.85 3.2 7.25 -1.9 11.0 -4.75 12.7 -4.8 14.2 -4.15 15.65 -3.45 16.55 -2.0 16.3 0.95 16.7 3.45 17.05 5.55 18.6 6.9 19.75 7.8 21.1 8.3 26.05 9.75 31.25 8.1 36.7 6.5 38.25 1.4 40.4 -5.6 35.7 -11.0 32.6 -14.55 28.4 -16.5 24.75 -18.2 21.95 -20.8 L21.35 -20.45 20.85 -19.4 Q18.75 -16.8 15.85 -15.55 L13.7 -16.6 13.45 -16.4 Q13.25 -15.5 13.2 -14.6 13.1 -12.55 12.3 -10.85 10.8 -7.55 7.55 -6.35 L6.8 -6.25 Q1.45 -8.75 -3.25 -12.25 M27.4 -26.05 Q26.8 -27.85 28.45 -29.25 30.65 -31.1 33.85 -29.6 L34.65 -29.35 35.8 -30.8 36.85 -32.55 Q33.7 -34.95 29.7 -35.95 24.6 -37.6 21.8 -33.4 19.3 -29.55 19.95 -24.95 20.0 -24.65 19.65 -24.45 L18.9 -23.9 18.25 -24.4 Q17.05 -26.1 16.15 -27.9 15.15 -30.05 13.95 -31.65 L13.45 -31.85 8.8 -28.4 8.7 -27.65 Q7.15 -26.0 4.45 -26.6 L2.5 -26.35 Q-4.5 -22.45 -5.35 -14.45 0.45 -10.1 7.05 -6.75 9.1 -7.0 10.4 -9.05 12.6 -12.35 12.85 -16.35 L13.15 -17.05 13.5 -17.25 Q14.45 -17.3 14.9 -16.7 15.25 -16.2 15.85 -16.2 L20.5 -19.9 20.55 -20.1 20.9 -20.7 21.55 -21.35 22.0 -21.45 27.15 -17.95 31.4 -15.45 Q40.8 -10.2 39.4 0.35 38.8 4.75 35.05 6.95 28.45 10.85 20.85 9.0 18.5 8.35 17.2 6.15 15.1 2.45 15.9 -1.9 15.2 -3.0 13.9 -3.5 L11.2 -4.1 Q8.5 -2.1 8.5 1.55 8.45 9.9 15.65 14.45 17.5 15.6 19.85 15.9 29.45 17.7 38.3 13.0 44.25 10.0 46.15 3.6 47.45 -0.85 47.3 -5.5 47.25 -6.35 48.1 -6.4 L50.65 -6.1 Q54.5 -6.15 57.1 -8.85 59.35 -11.15 58.6 -14.4 57.3 -19.8 51.75 -20.5 L50.8 -20.45 Q48.55 -19.5 46.5 -19.0 L45.95 -19.45 44.95 -20.4 Q44.35 -21.0 43.5 -21.1 L43.0 -21.1 42.55 -20.7 41.7 -20.4 41.25 -20.5 Q39.9 -21.95 41.5 -23.1 42.8 -24.1 44.4 -24.5 L47.6 -24.95 48.4 -28.25 Q44.7 -31.45 39.8 -29.2 39.0 -28.85 38.45 -28.2 36.1 -25.4 34.9 -21.7 34.7 -21.2 34.05 -21.6 30.8 -23.6 27.7 -25.85 L27.4 -26.05 M1.15 -17.8 L1.1 -17.35 4.85 -14.8 5.45 -14.6 5.55 -14.75 Q6.25 -16.6 5.75 -18.75 L4.9 -20.6 Q2.45 -20.05 1.15 -17.8 M0.8 -16.95 Q0.25 -17.4 0.6 -18.15 2.15 -21.0 5.15 -21.2 7.4 -18.65 6.45 -15.05 L6.35 -14.6 5.3 -13.95 Q4.85 -14.05 4.5 -14.25 2.55 -15.45 0.8 -16.95 M53.65 -13.4 Q53.65 -12.55 53.05 -11.95 52.45 -11.35 51.6 -11.35 50.75 -11.35 50.15 -11.95 49.55 -12.55 49.55 -13.4 49.55 -14.25 50.15 -14.85 50.75 -15.45 51.6 -15.45 52.45 -15.45 53.05 -14.85 53.65 -14.25 53.65 -13.4 M52.6 -12.4 Q53.0 -12.8 53.0 -13.4 53.0 -14.0 52.6 -14.4 52.2 -14.8 51.6 -14.8 51.0 -14.8 50.6 -14.4 50.2 -14.0 50.2 -13.4 50.2 -12.8 50.6 -12.4 51.0 -12.0 51.6 -12.0 52.2 -12.0 52.6 -12.4" fill="#ffff00" fill-opacity="0.6627451" fill-rule="evenodd" stroke="none"/>
  </g>
</svg>
