<?xml version="1.0" encoding="UTF-8" standalone="no"?>
<svg xmlns:ffdec="https://www.free-decompiler.com/flash" xmlns:xlink="http://www.w3.org/1999/xlink" ffdec:objectType="shape" height="13.0px" width="27.35px" xmlns="http://www.w3.org/2000/svg">
  <g transform="matrix(1.0, 0.0, 0.0, 1.0, 58.6, 3.25)">
    <path d="M-40.25 -0.5 Q-39.85 -2.25 -38.3 -2.95 -35.25 -4.2 -34.7 -0.15 L-32.2 0.6 Q-31.55 0.8 -31.35 1.65 -30.9 3.6 -32.35 4.95 -32.1 6.4 -32.85 7.45 -34.35 9.55 -37.1 8.4 -38.65 9.25 -40.3 9.7 -42.05 10.0 -43.25 8.7 -45.05 6.7 -43.3 4.75 -44.75 3.9 -45.15 2.55 -45.35 1.95 -45.05 1.3 -44.15 -0.9 -41.45 -0.3 L-40.25 -0.5 M-53.7 -1.05 L-52.2 -0.9 Q-51.15 -0.5 -50.45 0.4 L-49.65 0.95 Q-48.6 0.65 -47.75 1.2 -45.35 2.85 -47.15 5.5 L-47.15 6.2 Q-47.9 10.1 -51.95 8.4 -53.5 9.65 -55.45 9.3 -56.9 9.2 -57.45 7.6 L-58.3 5.35 Q-59.2 3.35 -57.45 2.05 -55.35 0.6 -53.7 -1.05" fill="#fefbf8" fill-rule="evenodd" stroke="none"/>
  </g>
</svg>
