<?xml version="1.0" encoding="UTF-8" standalone="no"?>
<svg xmlns:ffdec="https://www.free-decompiler.com/flash" xmlns:xlink="http://www.w3.org/1999/xlink" ffdec:objectType="shape" height="22.5px" width="100.3px" xmlns="http://www.w3.org/2000/svg">
  <g transform="matrix(1.0, 0.0, 0.0, 1.0, 58.6, 12.2)">
    <path d="M-27.5 -0.35 L-25.85 -2.75 -24.3 -3.5 -23.05 -3.3 Q-20.8 -1.9 -20.95 0.9 L-19.05 1.5 -18.5 1.95 Q-16.35 4.85 -19.8 6.6 L-19.55 7.65 Q-19.3 8.85 -20.1 9.45 -23.35 11.6 -26.25 8.4 L-29.2 9.0 Q-30.75 9.3 -31.6 7.95 -31.95 7.45 -31.8 6.8 -31.4 4.95 -30.65 3.85 L-30.75 3.5 Q-31.15 0.05 -27.5 -0.35 M-40.25 -0.5 Q-39.85 -2.25 -38.3 -2.95 -35.25 -4.2 -34.7 -0.15 L-32.2 0.6 Q-31.55 0.8 -31.35 1.65 -30.9 3.6 -32.35 4.95 -32.1 6.4 -32.85 7.45 -34.35 9.55 -37.1 8.4 -38.65 9.25 -40.3 9.7 -42.05 10.0 -43.25 8.7 -45.05 6.7 -43.3 4.75 -44.75 3.9 -45.15 2.55 -45.35 1.95 -45.05 1.3 -44.15 -0.9 -41.45 -0.3 L-40.25 -0.5 M-53.7 -1.05 L-52.2 -0.9 Q-51.15 -0.5 -50.45 0.4 L-49.65 0.95 Q-48.6 0.65 -47.75 1.2 -45.35 2.85 -47.15 5.5 L-47.15 6.2 Q-47.9 10.1 -51.95 8.4 -53.5 9.65 -55.45 9.3 -56.9 9.2 -57.45 7.6 L-58.3 5.35 Q-59.2 3.35 -57.45 2.05 -55.35 0.6 -53.7 -1.05 M23.3 -1.5 Q21.35 -3.1 23.3 -5.1 L29.45 -5.35 30.8 -8.25 Q31.7 -9.9 33.75 -9.8 34.6 -9.95 35.25 -9.25 37.1 -7.25 36.85 -4.25 L40.15 -2.85 Q41.85 -2.25 41.7 -0.4 41.5 2.8 38.0 2.8 L38.4 4.6 38.25 5.95 Q37.4 7.9 35.45 8.25 32.65 8.0 31.35 5.05 27.7 7.45 23.55 6.6 22.15 6.25 22.1 5.0 22.0 1.65 25.2 0.0 L23.3 -1.5 M7.95 -7.75 L9.9 -11.2 Q11.0 -12.75 12.95 -11.95 L13.4 -11.35 15.2 -7.2 17.65 -6.7 Q21.05 -6.55 20.65 -3.4 20.55 -2.55 19.6 -2.0 L17.2 -1.35 Q17.75 0.25 17.95 2.15 L17.9 3.25 17.7 4.4 16.5 5.35 Q15.35 5.5 14.55 4.95 L10.25 2.05 Q8.2 3.8 5.9 4.0 4.45 3.7 4.2 2.2 3.85 0.3 5.15 -1.75 L3.95 -2.95 Q1.0 -3.15 1.0 -5.8 1.0 -6.7 1.65 -7.05 4.7 -8.6 7.95 -7.75" fill="#fefbf8" fill-rule="evenodd" stroke="none"/>
  </g>
</svg>
