<?xml version="1.0" encoding="UTF-8" standalone="no"?>
<svg xmlns:ffdec="https://www.free-decompiler.com/flash" xmlns:xlink="http://www.w3.org/1999/xlink" ffdec:objectType="shape" height="16.35px" width="16.6px" xmlns="http://www.w3.org/2000/svg">
  <g transform="matrix(1.0, 0.0, 0.0, 1.0, -41.7, 4.05)">
    <path d="M48.05 -0.95 L49.25 -0.65 53.0 -3.6 53.75 -3.95 Q55.1 -4.3 55.85 -3.2 57.15 -1.2 56.5 1.2 57.65 1.4 58.05 2.4 59.15 5.35 55.75 6.75 L55.65 10.1 Q55.7 10.8 55.0 11.45 53.15 13.3 51.45 11.2 L49.15 8.15 48.25 8.5 45.65 8.9 Q43.5 9.45 42.3 8.0 40.95 6.4 42.55 4.85 L44.5 3.0 44.25 2.45 Q43.35 -1.65 48.05 -0.95" fill="#fefbf8" fill-rule="evenodd" stroke="none"/>
  </g>
</svg>
