<?xml version="1.0" encoding="UTF-8" standalone="no"?>
<svg xmlns:ffdec="https://www.free-decompiler.com/flash" xmlns:xlink="http://www.w3.org/1999/xlink" ffdec:objectType="shape" height="53.6px" width="37.1px" xmlns="http://www.w3.org/2000/svg">
  <g transform="matrix(1.0, 0.0, 0.0, 1.0, 19.05, 23.55)">
    <path d="M-2.1 24.7 L-0.6 24.1" fill="none" stroke="#000000" stroke-linecap="round" stroke-linejoin="round" stroke-width="1.0"/>
    <path d="M-0.8 23.6 L-16.25 -17.5 4.1 -23.05 17.55 16.75 -0.6 24.1 -0.8 23.6" fill="#7c5652" fill-rule="evenodd" stroke="none"/>
    <path d="M-0.6 24.1 L17.55 16.75 4.1 -23.05 -16.25 -17.5 -0.8 23.6" fill="none" stroke="#000000" stroke-linecap="round" stroke-linejoin="round" stroke-width="1.0"/>
    <path d="M-5.0 -15.65 L10.1 24.9 7.5 24.1 -0.65 3.15 -6.95 -13.1 -17.55 -13.25 -18.55 -15.8 -18.15 -16.0 -5.2 -15.65 -5.0 -15.65" fill="#545050" fill-rule="evenodd" stroke="none"/>
    <path d="M-5.0 -15.65 L-5.05 -15.7 -2.3 -17.1 -5.05 -15.7 -5.2 -15.65 -18.15 -16.0 -15.6 -17.25 -2.3 -17.1 14.5 28.45 11.8 29.55 10.1 24.9 -5.0 -15.65" fill="#706969" fill-rule="evenodd" stroke="none"/>
    <path d="M-17.55 -13.25 L-6.95 -13.1 -0.65 3.15 -6.15 2.4 -11.7 1.7 -17.55 -13.25" fill="#faf180" fill-rule="evenodd" stroke="none"/>
    <path d="M10.1 24.9 L11.8 29.55 -2.85 24.35 -3.8 21.9 8.05 25.55 7.5 24.1 10.1 24.9" fill="#000000" fill-rule="evenodd" stroke="none"/>
    <path d="M-11.7 1.7 L-6.15 2.4 -0.65 3.15 7.5 24.1 8.05 25.55 -3.8 21.9 -11.7 1.7" fill="#fff8ae" fill-rule="evenodd" stroke="none"/>
    <path d="M-5.0 -15.65 L10.1 24.9 11.8 29.55 14.5 28.45 -2.3 -17.1 -5.05 -15.7 -5.2 -15.65 -5.0 -15.65 M-17.55 -13.25 L-18.55 -15.8 -18.15 -16.0 -15.6 -17.25 -2.3 -17.1 M-0.65 3.15 L-6.95 -13.1 -17.55 -13.25 -11.7 1.7 -3.8 21.9 8.05 25.55 7.5 24.1 -0.65 3.15 M-18.15 -16.0 L-5.2 -15.65 M-3.8 21.9 L-2.85 24.35 11.8 29.55" fill="none" stroke="#000000" stroke-linecap="round" stroke-linejoin="round" stroke-width="1.0"/>
    <path d="M-6.95 3.6 L-2.1 4.15 0.3 11.45 -4.1 10.8 -6.95 3.6" fill="#706969" fill-rule="evenodd" stroke="none"/>
    <path d="M-6.95 3.6 L-2.1 4.15 0.3 11.45 -4.1 10.8 -6.95 3.6 Z" fill="none" stroke="#000000" stroke-linecap="round" stroke-linejoin="round" stroke-width="1.0"/>
  </g>
</svg>
