<?xml version="1.0" encoding="UTF-8" standalone="no"?>
<svg xmlns:ffdec="https://www.free-decompiler.com/flash" xmlns:xlink="http://www.w3.org/1999/xlink" ffdec:objectType="shape" height="56.8px" width="41.3px" xmlns="http://www.w3.org/2000/svg">
  <g transform="matrix(1.0, 0.0, 0.0, 1.0, 25.1, 26.8)">
    <path d="M15.45 -13.05 L14.0 -14.05 15.7 -14.05 15.45 -13.05 M8.65 -17.6 L1.35 -22.55 7.0 -22.55 7.0 -20.05 Q7.75 -18.75 8.65 -17.6 M-0.9 -24.05 L-10.7 -3.45 -12.75 0.9 -13.6 0.9 Q-15.2 0.85 -15.6 -0.65 L-15.8 -0.65 -15.45 -1.35 -3.8 -26.3 -1.25 -26.3 -0.9 -24.05 M8.7 -0.45 L14.15 -6.05 13.65 -0.9 12.05 1.15 7.15 1.1 8.7 -0.45" fill="#a896c2" fill-rule="evenodd" stroke="none"/>
    <path d="M13.65 -0.9 L13.5 2.35 Q1.8 15.4 -7.15 29.5 L-24.6 18.0 -23.85 16.4 Q-20.0 19.1 -15.85 21.3 -11.85 23.45 -8.55 26.55 -6.45 21.3 -2.6 17.0 L-0.9 15.35 Q2.1 12.75 4.3 9.6 5.9 7.25 8.0 5.35 L12.05 1.15 13.65 -0.9" fill="#614981" fill-rule="evenodd" stroke="none"/>
    <path d="M14.0 -14.05 L15.45 -13.05 Q14.65 -9.55 14.15 -6.05 L8.7 -0.45 9.2 -1.0 5.05 -1.75 Q-2.25 -3.3 -9.65 -3.45 L-10.7 -3.45 -0.9 -24.05 -0.5 -22.55 1.35 -22.55 8.65 -17.6 Q10.4 -15.5 12.85 -14.05 L14.0 -14.05" fill="#faf180" fill-rule="evenodd" stroke="none"/>
    <path d="M-10.7 -3.45 L-9.65 -3.45 Q-2.25 -3.3 5.05 -1.75 L9.2 -1.0 8.7 -0.45 7.15 1.1 2.95 5.35 -17.75 11.35 -12.75 0.9 -10.7 -3.45 M-8.6 23.65 L-19.35 16.65 -0.45 12.55 -8.6 23.65" fill="#fff8ae" fill-rule="evenodd" stroke="none"/>
    <path d="M-23.85 16.4 L-15.8 -0.65 -15.6 -0.65 Q-15.2 0.85 -13.6 0.9 L-12.75 0.9 -17.75 11.35 2.95 5.35 7.15 1.1 12.05 1.15 8.0 5.35 Q5.9 7.25 4.3 9.6 2.1 12.75 -0.9 15.35 L-2.6 17.0 Q-6.45 21.3 -8.55 26.55 -11.85 23.45 -15.85 21.3 -20.0 19.1 -23.85 16.4 M-8.6 23.65 L-0.45 12.55 -19.35 16.65 -8.6 23.65" fill="#7d5ca3" fill-rule="evenodd" stroke="none"/>
    <path d="M15.45 -13.05 L15.7 -14.05 14.0 -14.05 12.85 -14.05 Q10.4 -15.5 8.65 -17.6 7.75 -18.75 7.0 -20.05 L7.0 -22.55 M-0.5 -22.55 L-0.9 -24.05 -1.25 -26.3 -3.8 -26.3 M14.15 -6.05 Q14.65 -9.55 15.45 -13.05 M14.15 -6.05 L13.65 -0.9 13.5 2.35 Q1.8 15.4 -7.15 29.5 L-24.6 18.0" fill="none" stroke="#000000" stroke-linecap="round" stroke-linejoin="round" stroke-width="1.0"/>
    <path d="M8.65 -17.6 L1.35 -22.55 -0.5 -22.55 M-0.9 -24.05 L-10.7 -3.45 -12.75 0.9 -17.75 11.35 2.95 5.35 7.15 1.1 8.7 -0.45 14.15 -6.05 M1.35 -22.55 L7.0 -22.55 M-24.6 18.0 L-23.85 16.4 -15.8 -0.65 M-15.45 -1.35 L-3.8 -26.3 M-8.6 23.65 L-19.35 16.65 -0.45 12.55 -8.6 23.65 Z" fill="none" stroke="#000000" stroke-linecap="round" stroke-linejoin="round" stroke-width="1.0"/>
    <path d="M-0.95 3.4 Q-2.0 3.95 -2.5 5.1 -3.05 6.45 -4.0 7.6 L-7.5 11.8 -8.15 12.55 -9.6 11.6 -4.9 1.55 -0.95 3.4" fill="#888080" fill-rule="evenodd" stroke="none"/>
    <path d="M-0.95 3.4 L1.25 4.4 -5.25 14.5 -8.15 12.55 -7.5 11.8 -4.0 7.6 Q-3.05 6.45 -2.5 5.1 -2.0 3.95 -0.95 3.4" fill="#706969" fill-rule="evenodd" stroke="none"/>
    <path d="M-9.6 11.6 L-4.9 1.55" fill="none" stroke="#000000" stroke-linecap="round" stroke-linejoin="round" stroke-width="1.0"/>
    <path d="M-8.15 12.55 L-5.25 14.5 1.25 4.4 -0.95 3.4 -4.9 1.55 M-8.15 12.55 L-9.6 11.6" fill="none" stroke="#000000" stroke-linecap="round" stroke-linejoin="round" stroke-width="1.0"/>
  </g>
</svg>
