<?xml version="1.0" encoding="UTF-8" standalone="no"?>
<svg xmlns:ffdec="https://www.free-decompiler.com/flash" xmlns:xlink="http://www.w3.org/1999/xlink" ffdec:objectType="shape" height="68.4px" width="43.4px" xmlns="http://www.w3.org/2000/svg">
  <g transform="matrix(1.0, 0.0, 0.0, 1.0, 27.2, 25.95)">
    <path d="M-0.5 -22.55 L3.2 -22.55 7.0 -20.05 Q9.15 -16.25 12.85 -14.05 L15.7 -14.05 Q13.9 -6.8 13.55 0.45 L-8.85 33.05 -25.7 24.1 -25.7 22.7 -1.0 -23.25 -0.5 -22.55" fill="#faf180" fill-rule="evenodd" stroke="none"/>
    <path d="M-0.5 -22.55 L-1.0 -23.25 M-25.7 24.1 L-8.85 33.05 M13.55 0.45 Q13.9 -6.8 15.7 -14.05 L12.85 -14.05 Q9.15 -16.25 7.0 -20.05" fill="none" stroke="#000000" stroke-linecap="round" stroke-linejoin="round" stroke-width="1.0"/>
    <path d="M7.0 -20.05 L3.2 -22.55 -0.5 -22.55 M-1.0 -23.25 L-25.7 22.7 M-8.85 33.05 L13.55 0.45" fill="none" stroke="#000000" stroke-linecap="round" stroke-linejoin="round" stroke-width="1.0"/>
    <path d="M6.45 -7.1 L6.55 -6.95 -4.85 12.05 -5.0 12.35 Q-4.85 14.05 -3.35 15.05 L-3.15 15.2 -19.1 41.95 -22.85 41.95 -23.9 36.1 Q-23.45 35.45 -23.3 34.3 -22.15 33.05 -21.55 31.45 L-21.4 31.15 -24.05 22.85 -22.85 22.45 -23.95 21.75 -22.6 19.55 -20.2 19.55 -22.85 22.45 -19.6 30.85 -12.95 19.55 -17.3 19.55 -17.6 18.25 Q-16.75 17.1 -16.25 15.85 L-11.25 15.7 -5.6 6.1 1.5 -5.95 -2.45 -13.15 1.4 -15.55 6.45 -7.1 M10.0 -7.15 L10.15 -7.15 10.05 -6.95 10.0 -7.15 M2.55 5.6 Q4.65 1.05 7.6 -2.95 L7.8 -3.2 2.55 5.6 M-26.0 24.6 L-26.15 23.85 -25.95 23.45 -26.1 24.05 -26.0 24.6 M-15.8 5.6 L-14.35 6.3 -19.4 15.9 -20.6 15.35 -15.8 5.6 M-18.7 15.9 L-19.95 15.95 -19.4 15.9 -18.7 15.9 M-19.6 30.85 L-20.9 32.8 -21.4 31.15 -20.9 32.8 -19.6 30.85 M-22.85 41.95 L-5.0 12.35 -22.85 41.95" fill="#7d5ca3" fill-rule="evenodd" stroke="none"/>
    <path d="M6.55 -7.1 L6.45 -7.1 1.4 -15.55 -4.3 -25.0 -0.9 -25.45 10.15 -7.15 10.0 -7.15 10.05 -6.95 7.8 -3.2 7.6 -2.95 Q4.65 1.05 2.55 5.6 L-3.15 15.2 -3.35 15.05 Q-4.85 14.05 -5.0 12.35 L-4.85 12.05 6.55 -6.95 6.55 -7.1 10.0 -7.15 6.55 -7.1" fill="#a896c2" fill-rule="evenodd" stroke="none"/>
    <path d="M-4.3 -25.0 L1.4 -15.55 -2.45 -13.15 -3.35 -14.75 -4.65 -17.1 -15.8 5.6 -20.6 15.35 -19.4 15.9 -19.95 15.95 -18.7 15.9 -18.1 15.9 -16.25 15.85 Q-16.75 17.1 -17.6 18.25 L-17.3 19.55 -20.2 19.55 -22.6 19.55 -23.95 21.75 -22.85 22.45 -24.05 22.85 -24.25 22.2 -23.95 21.75 -24.25 22.2 -24.05 22.85 -21.4 31.15 -21.55 31.45 Q-22.15 33.05 -23.3 34.3 -23.45 35.45 -23.9 36.1 L-26.0 24.6 -26.1 24.05 -25.95 23.45 -26.15 23.85 -26.7 21.0 -4.3 -25.0 M-20.6 15.35 L-20.9 15.95 -19.95 15.95 -20.9 15.95 -20.6 15.35" fill="#614981" fill-rule="evenodd" stroke="none"/>
    <path d="M-3.35 -14.75 L-2.45 -13.15 1.5 -5.95 -5.6 6.1 -14.35 6.3 -3.35 -14.75 M-18.1 15.9 L-18.7 15.9 -19.4 15.9 -18.1 15.9" fill="#faf180" fill-rule="evenodd" stroke="none"/>
    <path d="M-19.4 15.9 L-14.35 6.3 -5.6 6.1 -11.25 15.7 -16.25 15.85 -18.1 15.9 -19.4 15.9 M-20.2 19.55 L-17.3 19.55 -12.95 19.55 -19.6 30.85 -22.85 22.45 -20.2 19.55" fill="#fff8ae" fill-rule="evenodd" stroke="none"/>
    <path d="M-15.8 5.6 L-4.65 -17.1 -3.35 -14.75 -14.35 6.3 -15.8 5.6" fill="#9383a9" fill-rule="evenodd" stroke="none"/>
    <path d="M6.45 -7.1 L6.55 -6.95 M-4.3 -25.0 L1.4 -15.55 6.45 -7.1" fill="none" stroke="#000000" stroke-linecap="round" stroke-linejoin="round" stroke-width="1.0"/>
    <path d="M6.55 -7.1 L6.45 -7.1 M6.55 -7.1 L10.0 -7.15 10.15 -7.15 -0.9 -25.45 -4.3 -25.0 -26.7 21.0 -26.15 23.85 -26.0 24.6 -23.9 36.1 -22.85 41.95 -19.1 41.95 -3.15 15.2 2.55 5.6 7.8 -3.2 10.05 -6.95 10.15 -7.15 M-15.8 5.6 L-4.65 -17.1 -3.35 -14.75 -2.45 -13.15 1.5 -5.95 -5.6 6.1 -11.25 15.7 -16.25 15.85 -18.1 15.9 -18.7 15.9 -19.4 15.9 -14.35 6.3 -3.35 -14.75 M-15.8 5.6 L-20.6 15.35 -20.9 15.95 -19.95 15.95 -19.4 15.9 M-17.3 19.55 L-20.2 19.55 -22.85 22.45 -19.6 30.85 -12.95 19.55 -17.3 19.55 M-23.95 21.75 L-24.25 22.2 -24.05 22.85 -21.4 31.15 -20.9 32.8 -19.6 30.85 M-23.95 21.75 L-22.6 19.55 -20.2 19.55 M-5.0 12.35 L-22.85 41.95 M6.55 -6.95 L-4.85 12.05" fill="none" stroke="#000000" stroke-linecap="round" stroke-linejoin="round" stroke-width="1.0"/>
    <path d="M-17.6 23.3 Q-13.9 18.5 -10.75 13.25 L-9.75 12.4 -8.1 14.05 -15.75 25.7 -17.6 23.3" fill="#706969" fill-rule="evenodd" stroke="none"/>
    <path d="M-9.75 12.4 L-10.75 13.25 Q-13.9 18.5 -17.6 23.3 L-18.95 21.5 -18.95 21.0 -12.2 9.95 -9.75 12.4" fill="#888080" fill-rule="evenodd" stroke="none"/>
    <path d="M-17.6 23.3 L-15.75 25.7 -8.1 14.05 -9.75 12.4 -12.2 9.95 -18.95 21.0 M-18.95 21.5 L-17.6 23.3" fill="none" stroke="#000000" stroke-linecap="round" stroke-linejoin="round" stroke-width="1.0"/>
  </g>
</svg>
