<?xml version="1.0" encoding="UTF-8" standalone="no"?>
<svg xmlns:ffdec="https://www.free-decompiler.com/flash" xmlns:xlink="http://www.w3.org/1999/xlink" ffdec:objectType="shape" height="72.8px" width="117.15px" xmlns="http://www.w3.org/2000/svg">
  <g transform="matrix(1.0, 0.0, 0.0, 1.0, 58.55, 36.35)">
    <path d="M31.0 -21.95 Q30.3 -21.8 29.4 -22.35 L28.1 -22.9 Q25.25 -23.6 24.0 -25.1 22.75 -26.65 24.15 -29.25 25.5 -31.9 26.5 -32.1 L27.65 -32.3 29.9 -32.25 30.05 -32.25 30.2 -32.15 30.8 -31.45 30.8 -31.4 Q28.5 -31.75 27.1 -29.6 L27.05 -29.6 27.05 -29.55 26.35 -28.75 26.3 -28.65 26.3 -28.6 26.2 -27.95 26.1 -28.1 26.05 -27.95 26.0 -27.7 26.05 -27.6 25.95 -27.5 25.95 -27.45 26.05 -26.95 26.05 -26.85 26.1 -26.65 26.1 -26.6 26.1 -26.05 26.0 -25.6 27.55 -24.4 28.85 -23.3 Q29.75 -22.65 31.0 -21.95 M34.85 -14.3 Q35.5 -15.5 35.5 -16.95 35.55 -18.3 34.5 -19.1 33.0 -20.25 31.7 -21.55 33.9 -20.35 37.05 -19.0 38.15 -17.65 40.25 -17.45 44.15 -13.85 45.45 -8.7 L45.65 -7.75 45.7 -7.6 44.5 -6.55 44.45 -6.45 43.5 -2.35 Q42.7 1.1 40.35 3.55 L40.3 3.65 40.2 3.95 39.65 4.35 39.55 4.35 39.25 4.2 39.2 4.15 39.15 3.95 39.15 3.85 39.15 3.8 39.2 3.75 Q40.1 1.95 40.4 -0.25 41.55 -8.9 34.85 -14.3 M38.75 -27.55 Q41.6 -30.85 47.45 -28.1 L47.05 -25.95 Q42.9 -26.35 40.95 -24.4 40.45 -26.55 38.75 -27.55 M41.6 -20.0 Q42.7 -19.95 44.35 -20.6 44.7 -18.95 44.3 -17.9 L41.15 -17.4 41.5 -17.45 41.55 -17.45 41.55 -17.55 41.6 -20.0 M14.75 -19.65 L15.4 -18.95 15.5 -18.7 15.85 -18.0 16.55 -17.95 16.6 -17.85 17.55 -18.6 Q17.1 -20.65 15.85 -22.5 L14.95 -24.3 Q13.8 -27.55 11.0 -29.2 L9.85 -28.3 10.8 -27.2 10.9 -26.4 9.55 -28.1 13.4 -31.1 Q15.2 -24.85 19.6 -20.2 L15.75 -17.2 14.75 -19.65 M6.95 -12.9 Q8.5 -19.8 5.55 -22.55 2.35 -22.15 0.5 -19.7 L-0.5 -18.1 -2.15 -18.15 Q-2.5 -19.6 -2.45 -21.0 L-2.0 -21.65 -0.35 -23.5 -0.1 -23.7 0.0 -23.8 1.75 -25.2 Q7.55 -29.35 11.05 -19.15 12.85 -11.5 7.0 -7.6 L6.45 -7.9 6.45 -7.95 5.8 -8.3 5.2 -8.7 5.1 -9.35 5.0 -10.4 Q4.9 -11.55 5.1 -12.6 L6.6 -11.65 6.85 -12.6 6.95 -12.9 M50.9 -19.75 L51.65 -19.85 52.85 -19.55 55.0 -18.65 56.7 -16.95 Q58.15 -14.85 57.75 -12.35 57.6 -11.45 57.15 -10.7 55.6 -8.05 52.9 -7.45 L50.95 -7.05 Q50.5 -8.65 51.0 -10.45 L51.6 -10.4 Q52.85 -10.4 53.75 -11.25 54.6 -12.15 54.6 -13.4 54.6 -14.65 53.75 -15.5 52.9 -16.35 51.7 -16.4 51.9 -17.5 51.35 -18.55 L51.3 -18.85 50.9 -19.75 M50.1 -10.8 L50.15 -10.75 50.05 -10.75 50.1 -10.8 M-2.45 -21.0 L-2.0 -21.65 -2.45 -21.0" fill="#b67334" fill-rule="evenodd" stroke="none"/>
    <path d="M30.8 -31.4 L30.8 -31.45 30.2 -32.15 30.05 -32.25 29.9 -32.25 27.65 -32.3 26.5 -32.1 Q25.5 -31.9 24.15 -29.25 22.75 -26.65 24.0 -25.1 25.25 -23.6 28.1 -22.9 L29.4 -22.35 Q30.3 -21.8 31.0 -21.95 L31.7 -21.55 Q33.0 -20.25 34.5 -19.1 35.55 -18.3 35.5 -16.95 35.5 -15.5 34.85 -14.3 L33.95 -15.0 Q32.25 -16.2 30.15 -17.25 18.85 -22.8 21.25 -30.6 L21.5 -31.25 Q24.55 -39.45 36.0 -32.25 L34.0 -29.95 Q32.25 -31.15 30.8 -31.4 M27.55 -24.4 L26.0 -25.6 26.1 -26.05 26.1 -26.6 26.1 -26.65 26.4 -25.8 Q26.75 -25.15 27.55 -24.4 M26.05 -26.85 L26.05 -26.95 25.95 -27.45 25.95 -27.5 26.05 -27.6 26.1 -27.4 26.05 -26.85 M26.2 -27.95 L26.3 -28.6 26.3 -28.65 26.35 -28.75 27.05 -29.55 27.05 -29.6 27.1 -29.6 27.05 -29.55 26.7 -28.95 26.45 -28.4 26.25 -27.85 26.2 -27.95 M37.05 -19.0 Q35.9 -20.5 36.75 -23.5 L37.35 -25.2 Q37.9 -26.6 38.75 -27.55 40.45 -26.55 40.95 -24.4 L40.55 -23.95 39.9 -22.9 39.75 -22.45 39.75 -22.5 39.5 -21.65 Q39.75 -20.95 40.2 -20.55 L40.3 -20.5 40.7 -20.25 41.6 -20.0 41.55 -17.55 41.55 -17.45 41.5 -17.45 41.15 -17.4 41.0 -17.4 40.4 -17.45 40.3 -17.45 40.25 -17.45 Q38.15 -17.65 37.05 -19.0 M45.7 -7.6 L46.05 -3.8 Q46.2 8.8 35.65 13.25 31.9 14.85 26.85 15.4 19.05 15.85 14.8 13.25 8.75 9.6 9.75 -0.1 10.35 -5.6 15.05 -1.6 12.75 7.6 21.5 10.55 35.35 10.85 39.15 3.85 L39.15 3.95 39.2 4.15 39.25 4.2 39.55 4.35 39.65 4.35 40.2 3.95 40.3 3.65 40.35 3.55 Q42.7 1.1 43.5 -2.35 L44.45 -6.45 44.5 -6.55 45.7 -7.6 M10.9 -26.4 L10.8 -27.2 9.85 -28.3 11.0 -29.2 Q13.8 -27.55 14.95 -24.3 L15.85 -22.5 Q17.1 -20.65 17.55 -18.6 L16.6 -17.85 16.55 -17.95 15.85 -18.0 15.5 -18.7 15.4 -18.95 14.75 -19.65 Q13.0 -23.55 10.9 -26.4 M-0.5 -18.1 L-1.1 -16.6 5.1 -12.6 Q4.9 -11.55 5.0 -10.4 L5.1 -9.35 5.2 -8.7 -4.7 -14.85 Q-4.35 -18.25 -2.45 -21.0 -2.5 -19.6 -2.15 -18.15 L-0.5 -18.1 M39.9 -22.9 L39.75 -22.5 39.9 -22.9 M50.9 -19.75 L51.3 -18.85 51.35 -18.55 Q51.9 -17.5 51.7 -16.4 L51.6 -16.4 Q50.6 -16.4 49.85 -15.8 L49.5 -15.5 Q48.6 -14.65 48.6 -13.4 48.6 -12.3 49.25 -11.5 L49.5 -11.25 50.1 -10.8 50.05 -10.75 50.15 -10.75 51.0 -10.45 Q50.5 -8.65 50.95 -7.05 50.4 -7.3 49.3 -7.9 L47.35 -9.35 Q46.5 -10.2 46.05 -11.3 45.6 -12.4 45.6 -13.6 45.6 -14.8 46.05 -15.9 46.5 -17.05 47.35 -17.9 L48.8 -18.95 Q49.75 -19.55 50.9 -19.75" fill="#b52a08" fill-rule="evenodd" stroke="none"/>
    <path d="M52.1 31.15 L51.8 34.4 51.8 35.7 49.25 31.7 46.8 31.65 Q45.4 32.25 42.45 32.3 L46.9 29.0 44.55 26.9 46.6 26.9 48.25 27.4 52.9 23.75 52.75 28.4 54.85 29.1 52.1 31.15 M29.45 22.5 L31.25 18.25 32.65 18.0 33.35 22.7 Q33.85 23.2 37.7 24.75 L38.1 24.9 38.0 25.7 33.65 26.8 34.95 30.8 33.75 31.5 33.15 31.3 30.55 27.5 28.75 28.7 26.95 29.7 26.0 30.0 22.7 30.2 22.8 29.5 27.3 25.45 23.1 22.35 29.45 22.5 M17.25 21.45 Q14.45 22.15 12.7 23.1 14.35 25.85 14.3 28.75 L8.9 25.0 4.7 27.35 6.35 23.35 3.65 20.6 1.65 20.1 7.8 20.1 10.4 15.55 12.0 20.4 17.25 21.45 M-50.1 28.7 L-50.2 29.5 -51.0 30.05 -50.75 32.05 -51.3 32.35 Q-52.35 32.1 -53.3 31.4 L-56.15 32.8 -57.0 32.55 -57.15 31.95 -56.55 30.8 -57.35 30.55 -57.8 29.75 -55.6 28.55 -54.4 26.65 Q-52.85 29.3 -50.1 28.7 M-34.8 28.0 L-36.35 30.15 -36.1 30.6 Q-36.0 31.0 -36.05 31.45 L-36.25 32.05 -36.9 32.1 Q-37.85 32.1 -38.4 31.15 -40.4 32.85 -43.15 32.95 L-43.45 32.25 -41.6 30.05 -44.65 27.55 -42.7 27.55 -40.2 27.15 -38.8 24.35 -37.95 27.4 -34.8 28.0 M-25.95 24.65 L-25.15 24.05 -24.35 28.2 -21.2 29.25 -21.7 29.8 Q-22.65 30.55 -23.95 30.4 L-23.2 33.75 Q-25.65 33.7 -26.65 31.45 L-31.15 32.4 -29.2 29.7 -30.25 28.15 -29.7 27.75 -27.75 27.55 -25.95 24.65" fill="#ffff66" fill-rule="evenodd" stroke="none"/>
    <path d="M30.8 -31.4 Q32.25 -31.15 34.0 -29.95 L36.0 -32.25 Q24.55 -39.45 21.5 -31.25 L21.25 -30.6 Q18.85 -22.8 30.15 -17.25 32.25 -16.2 33.95 -15.0 L34.85 -14.3 Q41.55 -8.9 40.4 -0.25 40.1 1.95 39.2 3.75 L39.15 3.8 39.15 3.85 Q35.35 10.85 21.5 10.55 12.75 7.6 15.05 -1.6 10.35 -5.6 9.75 -0.1 8.75 9.6 14.8 13.25 19.05 15.85 26.85 15.4 31.9 14.85 35.65 13.25 46.2 8.8 46.05 -3.8 L45.7 -7.6 M31.7 -21.55 L31.0 -21.95 Q29.75 -22.65 28.85 -23.3 L27.55 -24.4 Q26.75 -25.15 26.4 -25.8 L26.1 -26.65 26.05 -26.85 26.1 -27.4 26.1 -27.5 26.45 -28.4 26.7 -28.95 27.05 -29.55 27.1 -29.6 Q28.5 -31.75 30.8 -31.4 M37.05 -19.0 Q35.9 -20.5 36.75 -23.5 L37.35 -25.2 Q37.9 -26.6 38.75 -27.55 41.6 -30.85 47.45 -28.1 L47.05 -25.95 Q42.9 -26.35 40.95 -24.4 L40.55 -23.95 39.9 -22.9 39.75 -22.5 39.5 -21.65 Q39.75 -20.95 40.2 -20.55 L40.3 -20.5 40.7 -20.25 41.6 -20.0 Q42.7 -19.95 44.35 -20.6 44.7 -18.95 44.3 -17.9 L41.15 -17.4 41.0 -17.4 40.4 -17.45 40.3 -17.45 40.25 -17.45 Q44.15 -13.85 45.45 -8.7 L45.65 -7.75 M14.75 -19.65 L15.75 -17.2 19.6 -20.2 Q15.2 -24.85 13.4 -31.1 L9.55 -28.1 10.9 -26.4 Q13.0 -23.55 14.75 -19.65 M6.85 -12.6 L6.95 -12.9 Q8.5 -19.8 5.55 -22.55 2.35 -22.15 0.5 -19.7 L-0.5 -18.1 -1.1 -16.6 5.1 -12.6 6.6 -11.65 6.85 -12.6 M6.45 -7.9 L5.8 -8.3 5.2 -8.7 -4.7 -14.85 Q-4.35 -18.25 -2.45 -21.0 L-2.0 -21.65 -0.35 -23.5 -0.1 -23.7 0.0 -23.8 1.75 -25.2 Q7.55 -29.35 11.05 -19.15 12.85 -11.5 7.0 -7.6 L6.45 -7.9 M37.05 -19.0 Q33.9 -20.35 31.7 -21.55 M40.25 -17.45 Q38.15 -17.65 37.05 -19.0 M50.95 -7.05 L52.9 -7.45 Q55.6 -8.05 57.15 -10.7 57.6 -11.45 57.75 -12.35 58.15 -14.85 56.7 -16.95 L55.0 -18.65 52.85 -19.55 51.65 -19.85 50.9 -19.75 Q49.75 -19.55 48.8 -18.95 L47.35 -17.9 Q46.5 -17.05 46.05 -15.9 45.6 -14.8 45.6 -13.6 45.6 -12.4 46.05 -11.3 46.5 -10.2 47.35 -9.35 L49.3 -7.9 Q50.4 -7.3 50.95 -7.05 M51.7 -16.4 Q52.9 -16.35 53.75 -15.5 54.6 -14.65 54.6 -13.4 54.6 -12.15 53.75 -11.25 52.85 -10.4 51.6 -10.4 L51.0 -10.45 50.15 -10.75 50.1 -10.8 49.5 -11.25 49.25 -11.5 Q48.6 -12.3 48.6 -13.4 48.6 -14.65 49.5 -15.5 L49.85 -15.8 Q50.6 -16.4 51.6 -16.4 L51.7 -16.4 M52.1 31.15 L51.8 34.4 51.8 35.7 49.25 31.7 46.8 31.65 Q45.4 32.25 42.45 32.3 L46.9 29.0 44.55 26.9 46.6 26.9 48.25 27.4 52.9 23.75 52.75 28.4 54.85 29.1 52.1 31.15 M29.45 22.5 L31.25 18.25 32.65 18.0 33.35 22.7 Q33.85 23.2 37.7 24.75 L38.1 24.9 38.0 25.7 33.65 26.8 34.95 30.8 33.75 31.5 33.15 31.3 30.55 27.5 28.75 28.7 26.95 29.7 26.0 30.0 22.7 30.2 22.8 29.5 27.3 25.45 23.1 22.35 29.45 22.5 M17.25 21.45 Q14.45 22.15 12.7 23.1 14.35 25.85 14.3 28.75 L8.9 25.0 4.7 27.35 6.35 23.35 3.65 20.6 1.65 20.1 7.8 20.1 10.4 15.55 12.0 20.4 17.25 21.45 M-25.95 24.65 L-27.75 27.55 -29.7 27.75 -30.25 28.15 -29.2 29.7 -31.15 32.4 -26.65 31.45 Q-25.65 33.7 -23.2 33.75 L-23.95 30.4 Q-22.65 30.55 -21.7 29.8 L-21.2 29.25 -24.35 28.2 -25.15 24.05 -25.95 24.65 M-34.8 28.0 L-37.95 27.4 -38.8 24.35 -40.2 27.15 -42.7 27.55 -44.65 27.55 -41.6 30.05 -43.45 32.25 -43.15 32.95 Q-40.4 32.85 -38.4 31.15 -37.85 32.1 -36.9 32.1 L-36.25 32.05 -36.05 31.45 Q-36.0 31.0 -36.1 30.6 L-36.35 30.15 -34.8 28.0 M-50.1 28.7 Q-52.85 29.3 -54.4 26.65 L-55.6 28.55 -57.8 29.75 -57.35 30.55 -56.55 30.8 -57.15 31.95 -57.0 32.55 -56.15 32.8 -53.3 31.4 Q-52.35 32.1 -51.3 32.35 L-50.75 32.05 -51.0 30.05 -50.2 29.5 -50.1 28.7 Z" fill="none" stroke="#000000" stroke-linecap="round" stroke-linejoin="round" stroke-width="1.5"/>
  </g>
</svg>
