<?xml version="1.0" encoding="UTF-8" standalone="no"?>
<svg xmlns:ffdec="https://www.free-decompiler.com/flash" xmlns:xlink="http://www.w3.org/1999/xlink" ffdec:objectType="shape" height="24.5px" width="116.9px" xmlns="http://www.w3.org/2000/svg">
  <g transform="matrix(1.0, 0.0, 0.0, 1.0, 58.45, 12.25)">
    <path d="M-25.7 -2.8 L-24.15 -3.55 -22.9 -3.35 Q-20.65 -1.95 -20.8 0.85 L-18.9 1.45 Q-18.55 1.6 -18.35 1.9 -16.2 4.8 -19.65 6.55 L-19.4 7.6 Q-19.15 8.8 -19.95 9.4 -23.2 11.55 -26.1 8.35 L-29.05 8.95 Q-30.6 9.25 -31.45 7.9 -31.8 7.4 -31.65 6.75 -31.25 4.9 -30.5 3.8 L-30.6 3.45 Q-31.0 0.0 -27.35 -0.4 L-25.7 -2.8 M-38.15 -3.0 Q-35.1 -4.25 -34.55 -0.2 L-32.05 0.55 Q-31.4 0.75 -31.2 1.6 -30.75 3.55 -32.2 4.9 -31.95 6.35 -32.7 7.4 -34.2 9.5 -36.95 8.35 -38.5 9.2 -40.15 9.65 -41.9 9.95 -43.1 8.65 -44.9 6.65 -43.15 4.7 -44.6 3.85 -45.0 2.5 -45.2 1.9 -44.9 1.25 -44.0 -0.95 -41.3 -0.35 L-40.1 -0.55 Q-39.7 -2.3 -38.15 -3.0 M-53.55 -1.1 L-52.05 -0.95 Q-51.0 -0.55 -50.3 0.35 L-49.5 0.9 Q-48.45 0.6 -47.6 1.15 -45.2 2.8 -47.0 5.45 L-47.0 6.15 Q-47.75 10.05 -51.8 8.35 -53.35 9.6 -55.3 9.25 -56.75 9.15 -57.3 7.55 L-58.15 5.3 Q-59.05 3.3 -57.3 2.0 L-53.55 -1.1 M49.4 -0.7 L53.15 -3.65 53.9 -4.0 Q55.25 -4.35 56.0 -3.25 57.3 -1.25 56.65 1.15 57.8 1.35 58.2 2.35 59.3 5.3 55.9 6.7 L55.8 10.05 Q55.85 10.75 55.15 11.4 53.3 13.25 51.6 11.15 L49.3 8.1 48.4 8.45 45.8 8.85 Q43.65 9.4 42.45 7.95 41.1 6.35 42.7 4.8 L44.65 2.95 44.4 2.4 Q43.5 -1.7 48.2 -1.0 L49.4 -0.7 M29.6 -5.4 L30.95 -8.3 Q31.85 -9.95 33.9 -9.85 34.75 -10.0 35.4 -9.3 37.25 -7.3 37.0 -4.3 L40.3 -2.9 Q42.0 -2.3 41.85 -0.45 41.65 2.75 38.15 2.75 L38.55 4.55 38.4 5.9 Q37.55 7.85 35.6 8.2 32.8 7.95 31.5 5.0 27.85 7.4 23.7 6.55 22.3 6.2 22.25 4.95 22.15 1.6 25.35 -0.05 L23.45 -1.55 Q21.5 -3.15 23.45 -5.15 L29.6 -5.4 M5.3 -1.8 L4.1 -3.0 Q1.15 -3.2 1.15 -5.85 1.15 -6.75 1.8 -7.1 4.85 -8.65 8.1 -7.8 L10.05 -11.25 Q11.15 -12.8 13.1 -12.0 L13.55 -11.4 15.35 -7.25 17.8 -6.75 Q21.2 -6.6 20.8 -3.45 20.7 -2.6 19.75 -2.05 L17.35 -1.4 Q17.9 0.2 18.1 2.1 L18.05 3.2 17.85 4.35 16.65 5.3 Q15.5 5.45 14.7 4.9 L10.4 2.0 Q8.35 3.75 6.05 3.95 4.6 3.65 4.35 2.15 4.0 0.25 5.3 -1.8" fill="#fefbf8" fill-rule="evenodd" stroke="none"/>
  </g>
</svg>
