<?xml version="1.0" encoding="UTF-8" standalone="no"?>
<svg xmlns:ffdec="https://www.free-decompiler.com/flash" xmlns:xlink="http://www.w3.org/1999/xlink" ffdec:objectType="shape" height="24.5px" width="57.35px" xmlns="http://www.w3.org/2000/svg">
  <g transform="matrix(1.0, 0.0, 0.0, 1.0, -1.0, 12.2)">
    <path d="M48.65 -0.85 L49.25 -0.65 53.0 -3.6 53.75 -3.95 Q55.1 -4.3 55.85 -3.2 57.15 -1.2 56.5 1.2 57.1 1.45 57.7 1.85 L58.15 2.45 Q59.1 5.4 55.75 6.75 L55.65 10.1 Q55.7 10.8 55.0 11.45 53.15 13.3 51.45 11.2 L49.15 8.15 48.25 8.5 45.65 8.9 Q43.5 9.45 42.3 8.0 40.95 6.4 42.55 4.85 L44.5 3.0 43.95 1.8 Q43.65 0.8 44.35 0.05 46.1 -1.7 48.65 -0.85 M23.3 -1.5 Q21.35 -3.1 23.3 -5.1 L29.45 -5.35 30.8 -8.25 Q31.7 -9.9 33.75 -9.8 34.6 -9.95 35.25 -9.25 37.1 -7.25 36.85 -4.25 L40.15 -2.85 Q41.85 -2.25 41.7 -0.4 41.5 2.8 38.0 2.8 L38.4 4.6 38.25 5.95 Q37.4 7.9 35.45 8.25 32.65 8.0 31.35 5.05 27.7 7.45 23.55 6.6 22.15 6.25 22.1 5.0 22.0 1.65 25.2 0.0 L23.3 -1.5 M7.95 -7.75 L9.9 -11.2 Q11.0 -12.75 12.95 -11.95 L13.4 -11.35 15.2 -7.2 17.65 -6.7 Q21.05 -6.55 20.65 -3.4 20.55 -2.55 19.6 -2.0 L17.2 -1.35 Q17.75 0.25 17.95 2.15 L17.9 3.25 17.7 4.4 16.5 5.35 Q15.35 5.5 14.55 4.95 L10.25 2.05 Q8.2 3.8 5.9 4.0 4.45 3.7 4.2 2.2 3.85 0.3 5.15 -1.75 L3.95 -2.95 Q1.0 -3.15 1.0 -5.8 1.0 -6.7 1.65 -7.05 4.7 -8.6 7.95 -7.75" fill="#fefbf8" fill-rule="evenodd" stroke="none"/>
  </g>
</svg>
