<?xml version="1.0" encoding="UTF-8" standalone="no"?>
<svg xmlns:ffdec="https://www.free-decompiler.com/flash" xmlns:xlink="http://www.w3.org/1999/xlink" ffdec:objectType="shape" height="134.5px" width="137.45px" xmlns="http://www.w3.org/2000/svg">
  <g transform="matrix(1.0, 0.0, 0.0, 1.0, 68.75, 55.45)">
    <path d="M60.1 63.25 Q44.5 74.5 25.15 76.9 5.9 79.25 -13.55 79.05 -33.95 78.85 -51.55 69.05 L-53.95 67.4 Q-62.75 60.2 -67.4 49.85 -70.65 42.55 -66.1 35.6 -62.7 30.45 -56.4 28.0 -37.65 20.75 -17.85 17.2 L-12.2 16.25 Q7.35 19.15 27.25 20.45 41.45 21.35 54.55 26.5 71.15 33.0 68.3 50.25 66.95 58.35 60.1 63.25" fill="#000000" fill-opacity="0.4" fill-rule="evenodd" stroke="none"/>
    <path d="M-54.65 13.2 Q-53.05 11.3 -51.05 9.7 -48.65 7.8 -45.7 6.3 L-42.95 4.95 -23.55 -2.3 Q16.95 -11.45 28.6 -7.35 40.25 -3.25 51.3 4.75 54.65 7.15 57.2 10.05 56.15 13.35 54.35 16.45 47.7 28.05 38.05 37.55 35.6 39.95 32.4 41.25 24.25 44.65 15.45 45.95 L3.6 46.85 5.9 41.65 9.1 41.95 Q22.4 42.8 33.55 36.0 L37.0 33.55 Q38.5 33.1 39.8 32.25 L41.15 29.7 Q42.05 27.45 41.7 25.55 44.85 13.75 32.8 7.5 24.8 3.35 15.25 5.35 L0.55 6.1 Q-5.45 6.65 -11.3 7.95 -16.0 9.0 -18.65 13.1 -22.05 18.25 -21.05 23.4 -20.75 25.1 -19.95 26.8 L-18.35 29.3 -18.25 29.4 -18.05 30.8 Q-17.45 32.7 -15.2 33.2 L-14.5 33.7 Q-10.5 36.55 -6.05 38.45 L-12.85 43.8 -6.25 46.1 Q-19.4 44.2 -31.35 37.3 L-37.4 33.55 -44.55 28.45 Q-52.6 22.25 -54.65 13.2 M-21.05 23.4 Q-22.05 26.85 -18.05 30.8 -22.05 26.85 -21.05 23.4" fill="#5172af" fill-rule="evenodd" stroke="none"/>
    <path d="M-15.2 33.2 Q-17.45 32.7 -18.05 30.8 L-16.3 32.35 -15.2 33.2 M41.7 25.55 Q42.05 27.45 41.15 29.7 L39.8 32.25 Q38.5 33.1 37.0 33.55 L38.0 32.6 37.0 33.55 38.0 32.6 38.7 31.85 39.6 30.75 39.9 30.3 39.05 29.8 32.45 27.45 32.45 27.4 32.95 26.9 32.45 26.4 31.95 25.9 Q23.0 24.0 14.75 25.35 9.5 25.6 4.0 26.75 L0.95 26.65 -14.65 31.2 -15.55 31.8 -15.6 31.8 -16.3 32.35 -18.05 30.8 -18.25 29.4 -17.9 26.7 Q-17.25 24.1 -14.8 22.45 -1.55 13.65 14.55 13.2 29.15 12.6 39.65 22.1 40.95 23.3 41.5 24.7 L41.7 25.55 M64.0 21.95 L64.85 25.05 64.85 25.2 64.9 25.35 Q67.75 38.35 58.15 47.35 49.15 55.75 37.9 60.5 27.9 64.7 17.7 67.35 16.6 67.25 15.4 67.75 L14.45 68.15 13.45 68.35 5.45 69.8 4.9 69.85 4.8 69.85 5.45 69.8 4.8 69.85 -0.25 69.35 -3.2 69.3 -17.75 69.8 Q-26.5 68.45 -34.55 64.45 -45.85 58.85 -53.85 48.95 -60.0 41.3 -60.4 32.0 -54.0 36.45 -47.15 40.4 -37.5 45.9 -27.2 49.65 L-22.7 51.1 -15.3 52.65 0.85 53.45 4.2 53.1 7.35 52.65 Q18.4 44.95 31.9 43.15 L33.65 42.75 Q43.25 39.35 51.25 32.9 52.15 32.2 53.35 31.75 L55.85 30.75 63.65 20.95 64.0 21.95 M13.2 53.15 Q9.75 54.4 5.85 54.7 -6.4 55.6 -18.8 52.3 L-22.7 51.1 -18.8 52.3 Q-6.4 55.6 5.85 54.7 9.75 54.4 13.2 53.15 M41.5 24.7 L41.3 26.85 Q40.95 28.65 39.9 30.3 40.95 28.65 41.3 26.85 L41.5 24.7 M-14.65 31.2 L-15.6 31.8 -14.65 31.2" fill="#385493" fill-rule="evenodd" stroke="none"/>
    <path d="M-54.65 13.2 Q-52.6 22.25 -44.55 28.45 L-37.4 33.55 -31.35 37.3 Q-19.4 44.2 -6.25 46.1 L-5.35 46.4 2.55 49.15 3.5 47.1 3.6 46.85 15.45 45.95 Q24.25 44.65 32.4 41.25 35.6 39.95 38.05 37.55 47.7 28.05 54.35 16.45 56.15 13.35 57.2 10.05 61.8 15.2 64.0 21.95 L63.65 20.95 55.85 30.75 53.35 31.75 Q52.15 32.2 51.25 32.9 43.25 39.35 33.65 42.75 L31.9 43.15 Q18.4 44.95 7.35 52.65 L4.2 53.1 0.85 53.45 -15.3 52.65 -22.7 51.1 -27.2 49.65 Q-37.5 45.9 -47.15 40.4 -54.0 36.45 -60.4 32.0 -60.55 28.95 -60.1 25.7 L-59.7 23.7 -59.15 21.45 -59.1 21.3 -59.05 21.1 -59.0 20.95 -54.9 13.55 -54.65 13.2 M-21.05 23.4 Q-22.05 18.25 -18.65 13.1 -16.0 9.0 -11.3 7.95 -5.45 6.65 0.55 6.1 L15.25 5.35 Q24.8 3.35 32.8 7.5 44.85 13.75 41.7 25.55 L41.5 24.7 Q40.95 23.3 39.65 22.1 29.15 12.6 14.55 13.2 -1.55 13.65 -14.8 22.45 -17.25 24.1 -17.9 26.7 L-18.25 29.4 -18.35 29.3 -19.95 26.8 Q-20.75 25.1 -21.05 23.4 -20.2 20.4 -15.55 17.7 -20.2 20.4 -21.05 23.4 M17.7 67.35 L14.45 68.15 15.4 67.75 Q16.6 67.25 17.7 67.35 M4.8 69.85 L-11.6 70.4 -17.75 69.8 -3.2 69.3 -0.25 69.35 4.8 69.85 M34.6 13.75 Q36.6 14.75 37.85 16.35 41.3 20.75 41.5 24.7 41.3 20.75 37.85 16.35 36.6 14.75 34.6 13.75 M14.75 25.35 Q23.0 24.0 31.95 25.9 L32.45 26.4 32.95 26.9 32.45 27.4 32.45 27.45 29.9 26.5 29.6 26.45 29.25 26.35 Q22.3 24.95 14.75 25.35 M-47.6 29.1 Q-44.9 38.75 -32.45 46.5 -27.95 49.3 -22.7 51.1 -27.95 49.3 -32.45 46.5 -44.9 38.75 -47.6 29.1 M-5.35 46.4 L-6.25 46.1 -6.2 46.1 -5.35 46.4" fill="#486aa9" fill-rule="evenodd" stroke="none"/>
    <path d="M-6.25 46.1 L-12.85 43.8 -6.05 38.45 Q-0.45 40.8 5.9 41.65 L3.6 46.85 3.5 47.1 2.55 49.15 -5.35 46.4 -6.2 46.1 -6.25 46.1" fill="#798cb5" fill-rule="evenodd" stroke="none"/>
    <path d="M57.2 10.05 Q54.65 7.15 51.3 4.75 40.25 -3.25 28.6 -7.35 16.95 -11.45 -23.55 -2.3 L-42.95 4.95 -45.7 6.3 Q-48.65 7.8 -51.05 9.7 -53.05 11.3 -54.65 13.2 M-6.25 46.1 L-12.85 43.8 -6.05 38.45 Q-10.5 36.55 -14.5 33.7 L-15.2 33.2 -16.3 32.35 -15.6 31.8 -14.65 31.2 0.95 26.65 4.0 26.75 Q9.5 25.6 14.75 25.35 22.3 24.95 29.25 26.35 L29.6 26.45 29.9 26.5 32.45 27.45 39.05 29.8 39.9 30.3 39.6 30.75 38.7 31.85 38.0 32.6 37.0 33.55 33.55 36.0 Q22.4 42.8 9.1 41.95 L5.9 41.65 3.6 46.85 M-18.05 30.8 Q-22.05 26.85 -21.05 23.4 -20.2 20.4 -15.55 17.7 M57.2 10.05 Q61.8 15.2 64.0 21.95 L64.85 25.05 64.85 25.2 64.9 25.35 Q67.75 38.35 58.15 47.35 49.15 55.75 37.9 60.5 27.9 64.7 17.7 67.35 L14.45 68.15 13.45 68.35 5.45 69.8 4.8 69.85 -11.6 70.4 -17.75 69.8 Q-26.5 68.45 -34.55 64.45 -45.85 58.85 -53.85 48.95 -60.0 41.3 -60.4 32.0 -60.55 28.95 -60.1 25.7 L-59.7 23.7 -59.15 21.45 -59.1 21.3 -59.05 21.1 -59.0 20.95 -54.9 13.55 M-22.7 51.1 L-18.8 52.3 Q-6.4 55.6 5.85 54.7 9.75 54.4 13.2 53.15 M41.5 24.7 Q41.3 20.75 37.85 16.35 36.6 14.75 34.6 13.75 M39.9 30.3 Q40.95 28.65 41.3 26.85 L41.5 24.7 M-18.05 30.8 L-16.3 32.35 M-22.7 51.1 Q-27.95 49.3 -32.45 46.5 -44.9 38.75 -47.6 29.1 M-5.35 46.4 L2.55 49.15 3.5 47.1 M-6.25 46.1 L-5.35 46.4 M-6.05 38.45 Q-0.45 40.8 5.9 41.65" fill="none" stroke="#000000" stroke-linecap="round" stroke-linejoin="round" stroke-width="3.0"/>
    <path d="M63.1 12.65 Q61.75 21.4 54.3 26.75 42.6 35.2 28.05 38.7 L17.45 40.8 11.85 41.5 Q-3.9 42.75 -19.45 40.95 L-30.55 39.8 Q-52.35 38.0 -62.45 19.6 -64.5 15.75 -64.45 11.4 -64.25 -1.4 -53.05 -8.5 L-43.2 -15.0 Q-26.8 -26.3 -6.5 -26.15 L-4.85 -26.25 Q14.8 -25.1 33.8 -19.7 39.0 -18.2 43.65 -15.2 44.95 -14.35 46.4 -13.7 57.55 -8.65 62.05 2.85 63.85 7.5 63.1 12.65 M-41.3 24.8 Q-40.85 24.9 -40.45 25.1 -42.6 23.1 -46.0 21.7 L-46.15 21.75 Q-44.15 23.95 -41.3 24.8 M-47.7 20.75 L-46.65 21.25 -51.5 16.4 Q-51.9 15.95 -52.0 16.4 -50.15 18.9 -47.7 20.75" fill="#000000" fill-opacity="0.4" fill-rule="evenodd" stroke="none"/>
    <path d="M63.25 -14.4 L62.05 -2.25 Q57.05 0.65 52.4 4.0 33.5 17.55 11.15 18.35 6.9 18.45 2.5 18.15 -10.2 17.55 -22.7 17.9 -50.25 18.75 -65.45 -3.2 L-65.75 -6.15 Q-66.7 -18.6 -59.45 -28.8 -57.9 -4.85 -38.6 4.75 -30.4 8.9 -21.15 11.1 12.25 18.85 40.8 3.4 53.55 -3.5 63.25 -14.4 M25.95 -15.05 L27.9 -21.25 28.25 -18.55 27.9 -21.25 27.8 -23.3 Q29.05 -21.55 28.55 -19.5 L28.25 -18.55 25.95 -15.05 M20.8 -29.4 Q16.3 -26.65 14.65 -21.6 -3.4 -30.9 -23.25 -25.75 L-23.15 -26.65 Q-22.9 -31.1 -27.2 -32.85 -4.95 -40.5 17.85 -30.8 L20.8 -29.4 M-27.6 12.35 L-30.7 11.85 Q-42.95 9.05 -50.35 -1.0 -42.95 9.05 -30.7 11.85 L-27.6 12.35" fill="#bd0000" fill-rule="evenodd" stroke="none"/>
    <path d="M-65.45 -3.2 Q-50.25 18.75 -22.7 17.9 -10.2 17.55 2.5 18.15 6.9 18.45 11.15 18.35 33.5 17.55 52.4 4.0 57.05 0.65 62.05 -2.25 51.8 27.25 18.75 30.85 -1.1 33.25 -21.0 31.3 -55.85 28.1 -65.45 -3.2 M-32.0 -17.0 Q-34.55 -20.85 -33.95 -25.3 L-33.55 -27.8 -28.55 -33.0 -33.55 -27.8 Q-33.55 -29.95 -32.05 -31.45 -30.6 -33.0 -28.55 -33.0 L-27.2 -32.85 Q-22.9 -31.1 -23.15 -26.65 L-23.25 -25.75 Q-3.4 -30.9 14.65 -21.6 16.3 -26.65 20.8 -29.4 L21.6 -29.75 Q24.15 -29.75 26.0 -27.85 27.8 -25.95 27.8 -23.3 L27.9 -21.25 25.95 -15.05 22.65 -10.3 21.8 -9.8 22.65 -10.3 Q21.25 -7.05 17.2 -6.95 L15.75 -6.9 21.8 -9.8 20.7 -10.95 Q-3.55 -29.95 -32.0 -17.0 M21.6 -29.75 L23.4 -28.3 Q26.65 -25.4 27.9 -21.25 26.65 -25.4 23.4 -28.3 L21.6 -29.75 M47.95 9.05 Q46.6 9.85 45.2 10.6 32.75 17.55 18.55 18.4 32.75 17.55 45.2 10.6 46.6 9.85 47.95 9.05 M11.15 18.35 L9.55 18.9 Q5.95 19.6 2.5 18.15 5.95 19.6 9.55 18.9 L11.15 18.35" fill="#8c0000" fill-rule="evenodd" stroke="none"/>
    <path d="M63.25 -14.4 Q53.55 -3.5 40.8 3.4 12.25 18.85 -21.15 11.1 -30.4 8.9 -38.6 4.75 -57.9 -4.85 -59.45 -28.8 -53.25 -36.35 -45.0 -41.4 -17.2 -58.3 15.05 -52.4 50.15 -45.95 63.25 -14.4 M-33.8 -39.1 L-34.95 -39.95 Q-47.25 -35.4 -50.65 -22.9 L-48.65 -25.05 -47.65 -25.45 Q-42.7 -28.3 -39.1 -33.0 -35.4 -35.1 -33.8 -39.1 M-33.55 -27.8 L-33.95 -25.3 Q-34.55 -20.85 -32.0 -17.0 L-32.4 -16.8 -33.25 -17.85 Q-36.7 -22.6 -33.55 -27.8 -36.7 -22.6 -33.25 -17.85 L-32.4 -16.8 Q-12.2 -0.5 12.9 -6.1 L15.75 -6.9 17.2 -6.95 Q21.25 -7.05 22.65 -10.3 L25.95 -15.05 28.25 -18.55 28.55 -19.5 Q29.05 -21.55 27.8 -23.3 27.8 -25.95 26.0 -27.85 24.15 -29.75 21.6 -29.75 L20.8 -29.4 17.85 -30.8 Q-4.95 -40.5 -27.2 -32.85 L-28.55 -33.0 Q-30.6 -33.0 -32.05 -31.45 -33.55 -29.95 -33.55 -27.8 M-11.55 -37.1 Q-19.7 -38.4 -26.85 -34.1 L-28.55 -33.0 -26.85 -34.1 Q-19.7 -38.4 -11.55 -37.1 M46.25 -20.7 L46.25 -18.2 Q36.0 -2.5 17.7 2.7 L18.2 5.1 20.15 5.0 Q46.5 2.2 51.2 -20.15 L49.3 -22.4 46.25 -20.7 M22.65 -10.3 Q27.05 -12.7 28.1 -17.4 L28.25 -18.55 28.1 -17.4 Q27.05 -12.7 22.65 -10.3" fill="#ff0000" fill-rule="evenodd" stroke="none"/>
    <path d="M-33.8 -39.1 Q-35.4 -35.1 -39.1 -33.0 -42.7 -28.3 -47.65 -25.45 L-48.65 -25.05 -50.65 -22.9 Q-47.25 -35.4 -34.95 -39.95 L-33.8 -39.1 M46.25 -20.7 L49.3 -22.4 51.2 -20.15 Q46.5 2.2 20.15 5.0 L18.2 5.1 17.7 2.7 Q36.0 -2.5 46.25 -18.2 L46.25 -20.7" fill="#ffc2c2" fill-rule="evenodd" stroke="none"/>
    <path d="M62.05 -2.25 L63.25 -14.4 Q50.15 -45.95 15.05 -52.4 -17.2 -58.3 -45.0 -41.4 -53.25 -36.35 -59.45 -28.8 -66.7 -18.6 -65.75 -6.15 L-65.45 -3.2 Q-55.85 28.1 -21.0 31.3 -1.1 33.25 18.75 30.85 51.8 27.25 62.05 -2.25 M-33.55 -27.8 Q-36.7 -22.6 -33.25 -17.85 L-32.4 -16.8 -32.0 -17.0 Q-3.55 -29.95 20.7 -10.95 L21.8 -9.8 22.65 -10.3 Q27.05 -12.7 28.1 -17.4 L28.25 -18.55 27.9 -21.25 Q26.65 -25.4 23.4 -28.3 L21.6 -29.75 M-28.55 -33.0 L-33.55 -27.8 M-28.55 -33.0 L-26.85 -34.1 Q-19.7 -38.4 -11.55 -37.1 M-50.35 -1.0 Q-42.95 9.05 -30.7 11.85 L-27.6 12.35 M15.75 -6.9 L12.9 -6.1 Q-12.2 -0.5 -32.4 -16.8 M18.55 18.4 Q32.75 17.55 45.2 10.6 46.6 9.85 47.95 9.05 M15.75 -6.9 L21.8 -9.8 M2.5 18.15 Q5.95 19.6 9.55 18.9 L11.15 18.35" fill="none" stroke="#000000" stroke-linecap="round" stroke-linejoin="round" stroke-width="3.0"/>
  </g>
</svg>
