<?xml version="1.0" encoding="UTF-8" standalone="no"?>
<svg xmlns:ffdec="https://www.free-decompiler.com/flash" xmlns:xlink="http://www.w3.org/1999/xlink" ffdec:objectType="shape" height="480.0px" width="760.0px" xmlns="http://www.w3.org/2000/svg">
  <g transform="matrix(1.0, 0.0, 0.0, 1.0, 0.0, 0.0)">
    <path d="M570.5 89.5 Q380.8 68.85 262.5 74.5 106.7 149.05 136.5 184.5 157.95 192.5 153.5 200.5 147.7 208.5 119.5 216.5 126.1 226.1 96.5 228.5 48.25 216.95 0.0 228.4 L0.0 0.0 760.0 0.0 760.0 344.5 731.5 344.5 728.95 340.95 Q725.55 336.75 721.65 333.1 712.85 324.95 701.4 321.0 689.55 316.9 677.1 317.25 L676.55 309.6 Q673.8 274.5 665.6 240.5 L702.5 240.5 702.5 145.5 601.95 121.35 Q587.7 105.45 570.5 89.5 M33.5 265.5 Q51.0 291.4 100.0 298.0 15.35 349.75 79.5 401.5 L179.5 427.5 267.5 329.5 281.5 329.5 265.5 372.5 Q261.15 400.2 317.5 416.5 349.55 428.4 393.5 416.5 421.5 444.7 460.5 443.5 497.05 443.85 526.5 419.5 572.0 431.8 617.5 419.5 684.55 374.3 759.5 368.5 L760.0 368.5 760.0 480.0 0.0 480.0 0.0 249.5 Q44.5 248.25 33.5 265.5" fill="#000000" fill-opacity="0.4" fill-rule="evenodd" stroke="none"/>
  </g>
</svg>
