<?xml version="1.0" encoding="UTF-8" standalone="no"?>
<svg xmlns:ffdec="https://www.free-decompiler.com/flash" xmlns:xlink="http://www.w3.org/1999/xlink" ffdec:objectType="shape" height="8.65px" width="10.6px" xmlns="http://www.w3.org/2000/svg">
  <g transform="matrix(1.0, 0.0, 0.0, 1.0, 5.3, 2.85)">
    <path d="M-4.15 0.05 L-3.4 -0.95 Q-1.95 -2.35 0.0 -2.35 2.0 -2.35 3.4 -0.95 4.75 0.4 4.8 2.45 L4.8 2.75 Q-4.15 3.7 -4.15 0.05" fill="#ffffff" fill-rule="evenodd" stroke="none"/>
    <path d="M4.8 2.75 Q4.7 4.1 3.65 4.55 -0.15 6.15 -3.55 4.4 -4.85 3.75 -4.8 2.45 -4.8 1.1 -4.15 0.05 -4.15 3.7 4.8 2.75" fill="#cccccc" fill-rule="evenodd" stroke="none"/>
    <path d="M-4.15 0.05 L-3.4 -0.95 Q-1.95 -2.35 0.0 -2.35 2.0 -2.35 3.4 -0.95 4.75 0.4 4.8 2.45 L4.8 2.75 Q4.7 4.1 3.65 4.55 -0.15 6.15 -3.55 4.4 -4.85 3.75 -4.8 2.45 -4.8 1.1 -4.15 0.05 Z" fill="none" stroke="#666666" stroke-linecap="round" stroke-linejoin="round" stroke-width="1.0"/>
  </g>
</svg>
