<?xml version="1.0" encoding="UTF-8" standalone="no"?>
<svg xmlns:ffdec="https://www.free-decompiler.com/flash" xmlns:xlink="http://www.w3.org/1999/xlink" ffdec:objectType="shape" height="216.45px" width="286.0px" xmlns="http://www.w3.org/2000/svg">
  <g transform="matrix(1.0, 0.0, 0.0, 1.0, 143.0, 107.95)">
    <path d="M-85.75 -20.25 L-73.95 -30.15 Q-67.25 -35.45 -60.2 -40.4 L-45.6 -49.85 Q-38.05 -54.45 -30.2 -58.45 -22.5 -62.45 -14.55 -65.95 -9.5 -68.25 -4.3 -70.3 L6.1 -74.35 16.6 -78.25 27.15 -82.1 37.85 -85.7 48.55 -89.05 Q57.6 -92.0 66.8 -94.55 L83.3 -98.6 98.45 -101.4 116.75 -103.0 Q125.65 -103.25 134.65 -102.6 L141.5 -101.95 139.65 -75.5 Q133.9 -60.95 125.95 -47.4 124.1 -44.25 121.8 -41.45 115.45 -33.65 110.65 -25.25 107.65 -19.95 102.85 -16.25 L87.25 -4.55 Q78.35 2.05 69.25 8.4 66.05 10.6 63.6 13.5 57.4 20.65 50.65 27.15 43.8 33.65 36.3 39.6 30.35 44.3 23.95 48.5 L11.1 56.65 Q1.3 62.65 -9.2 67.4 -13.1 69.15 -14.15 73.05 L-16.5 72.9 Q-25.5 72.0 -34.0 69.6 -41.35 67.45 -48.75 65.65 L-60.85 63.0 -78.65 58.55 Q-85.3 56.85 -91.5 53.7 -97.8 50.45 -104.4 47.85 -107.75 46.6 -111.15 45.75 -113.55 45.3 -114.65 47.3 L-114.45 49.3 -113.45 49.8 Q-110.1 51.1 -106.8 52.55 L-104.6 53.55 -100.7 55.1 Q-96.85 56.75 -93.1 58.65 -90.55 59.95 -88.1 61.5 L-86.8 62.3 -84.0 63.5 Q-65.55 69.15 -46.75 73.8 -34.95 76.85 -23.35 81.4 L-30.3 87.95 -30.5 88.25 -30.5 88.05 -47.4 86.3 -63.4 83.45 -78.6 80.3 Q-85.9 78.5 -92.95 76.05 L-106.3 70.9 Q-112.9 68.3 -118.95 65.2 -124.85 62.05 -130.55 58.4 L-141.5 51.05 -135.5 45.05 Q-138.2 41.35 -137.25 36.8 -135.7 29.15 -131.0 23.1 -125.15 15.65 -118.0 9.05 L-90.85 -15.75 Q-96.45 -10.2 -100.7 -3.55 -103.15 0.3 -105.9 3.8 -107.9 6.45 -110.6 8.35 -118.05 13.8 -121.5 22.55 -123.7 28.1 -123.8 34.1 -123.9 40.45 -118.05 42.65 -115.65 43.5 -114.0 41.25 -112.55 39.3 -112.35 36.95 -109.25 39.45 -105.5 41.25 -97.05 45.35 -87.5 45.05 L-79.5 49.5 -75.05 51.55 Q-66.1 55.4 -56.45 57.25 -48.9 58.8 -41.5 59.05 L-35.0 62.35 Q-24.65 66.95 -13.5 65.05 -9.05 56.9 -1.75 51.2 6.15 45.05 15.75 42.3 L16.5 42.05 54.35 11.05 57.65 8.25 74.8 -6.6 51.5 -12.7 42.5 -14.95 43.5 -19.55 44.15 -22.5 44.2 -22.7 44.3 -23.2 47.45 -37.95 48.5 -42.95 57.5 -50.95 70.1 -49.3 76.75 -48.1 86.5 -45.85 103.7 -40.3 107.45 -38.75 111.1 -37.15 Q113.4 -38.65 115.15 -41.9 L119.45 -49.5 Q123.15 -56.2 125.25 -63.65 L127.25 -74.2 127.35 -74.95 127.5 -81.95 126.35 -83.2 Q128.9 -84.75 127.65 -87.85 L127.2 -88.9 Q129.45 -91.75 126.8 -94.25 L125.75 -94.9 Q95.95 -99.45 67.15 -91.15 60.25 -89.25 53.2 -87.85 39.65 -84.95 26.5 -80.0 17.2 -76.4 8.4 -72.0 L5.5 -70.95 Q4.35 -71.05 3.35 -70.55 2.0 -69.95 1.2 -68.6 -0.25 -66.2 1.9 -64.65 3.35 -63.65 5.05 -63.0 L6.1 -62.45 Q10.0 -60.45 14.05 -59.1 22.55 -56.25 31.5 -54.95 L33.25 -43.95 33.25 -43.9 37.45 -20.9 38.5 -14.95 32.05 -9.0 25.5 -2.95 25.5 -25.95 9.5 -25.95 10.55 -28.2 15.85 -40.0 18.45 -45.75 16.85 -46.45 14.4 -47.15 1.25 -49.6 -13.25 -52.0 -20.6 -52.75 -29.65 -53.0 Q-34.2 -52.2 -37.2 -48.6 L-38.75 -47.5 Q-41.6 -46.0 -44.7 -44.75 -53.45 -41.3 -61.65 -36.65 -68.25 -32.9 -74.65 -28.55 -80.4 -24.65 -85.75 -20.25 M120.5 -14.95 L118.15 -5.5 110.7 4.0 75.25 44.75 66.85 53.4 Q60.5 59.85 53.4 65.45 46.45 70.9 38.9 75.8 31.55 80.6 23.7 84.75 15.75 88.95 7.2 91.15 L2.6 92.15 Q-7.15 94.15 -17.0 93.8 L-27.9 92.05 -21.75 88.6 -21.5 89.05 -11.1 89.5 Q-2.65 89.15 5.15 86.45 13.2 83.6 20.8 80.1 29.05 76.3 36.7 71.2 44.75 65.8 51.95 59.5 L55.25 56.7 69.2 44.15 Q76.1 37.65 82.55 30.7 L93.45 18.45 98.75 12.2 120.5 -14.95 M115.55 4.85 Q112.5 16.95 108.9 28.85 107.75 32.6 105.95 36.15 101.55 44.7 96.15 52.55 90.8 60.15 84.45 66.9 78.3 73.5 71.05 79.35 63.85 85.2 55.95 89.9 47.8 94.7 39.15 98.5 30.1 102.4 20.4 104.6 L10.4 106.3 Q17.5 99.95 25.5 94.35 32.2 89.65 37.85 84.05 43.9 78.0 50.85 72.85 L64.95 62.9 Q71.2 58.6 76.9 53.7 84.45 47.3 90.95 39.65 L99.9 28.35 Q105.5 20.7 110.55 12.8 L115.55 4.85 M-106.85 78.5 Q-114.25 75.95 -121.6 72.55 -130.0 68.65 -137.8 63.55 L-141.5 61.05 -141.5 51.05 -130.55 58.4 Q-124.85 62.05 -118.95 65.2 -112.9 68.3 -106.3 70.9 L-92.95 76.05 Q-85.9 78.5 -78.6 80.3 L-63.4 83.45 -47.4 86.3 -30.5 88.05 -30.5 88.25 -31.5 94.05 -42.6 93.05 -53.8 91.25 -87.15 84.4 -88.5 84.05 Q-97.8 81.7 -106.85 78.5 M-33.5 -52.95 L-29.65 -53.0 -33.5 -52.95 M-28.5 -35.45 L-22.5 -33.95 -35.35 -25.65 -48.35 -16.3 -61.35 -5.55 -74.6 6.4 -79.25 4.85 -80.75 4.5 -78.05 3.45 -79.25 4.85 -78.05 3.45 -76.85 2.15 -34.95 -33.1 -30.9 -35.65 -30.5 -35.95 -28.5 -35.45 M16.85 -46.45 L18.5 -45.95 18.45 -45.75 18.5 -45.95 16.85 -46.45 M48.5 -42.95 L65.9 -39.55 Q75.4 -37.4 84.65 -33.95 91.75 -31.25 98.5 -27.95 L74.8 -6.6 98.5 -27.95 Q91.75 -31.25 84.65 -33.95 75.4 -37.4 65.9 -39.55 L48.5 -42.95 M31.5 -54.95 L18.5 -45.95 31.5 -54.95 M14.4 -47.15 Q6.0 -49.45 -2.75 -50.9 L-20.6 -52.75 -2.75 -50.9 Q6.0 -49.45 14.4 -47.15 M-16.5 72.9 L-16.5 71.05 -16.5 72.9 M-30.5 88.05 L-30.3 87.95 -30.5 88.05 M-127.5 37.05 L-135.5 45.05 -127.5 37.05" fill="#ffffff" fill-rule="evenodd" stroke="none"/>
    <path d="M98.15 -87.85 L96.55 -87.95 83.35 -85.8 Q71.5 -84.75 60.65 -80.25 L58.95 -79.4 57.25 -78.45 58.0 -76.6 59.05 -76.25 Q61.55 -75.8 64.4 -76.15 L66.2 -76.45 68.5 -77.05 65.55 -74.6 66.5 -73.95 95.85 -81.55 96.6 -83.4 94.5 -67.95 83.25 -65.2 94.5 -67.95 96.6 -83.4 98.15 -87.85 99.5 -90.95 98.15 -87.85 M17.45 -69.15 Q25.15 -71.8 32.95 -74.25 40.7 -76.8 48.55 -79.0 L67.55 -83.9 86.65 -88.45 99.5 -90.95 102.25 -90.85 101.35 -89.95 101.5 -88.85 124.0 -82.1 Q122.35 -72.1 116.75 -63.75 L115.5 -61.95 112.85 -62.3 115.5 -61.95 116.75 -63.75 Q122.35 -72.1 124.0 -82.1 L124.4 -84.55 124.45 -84.85 126.35 -83.2 127.5 -81.95 127.35 -74.95 125.0 -77.95 Q123.1 -77.2 122.65 -75.1 L121.55 -70.35 Q120.15 -65.1 122.9 -61.0 L125.25 -63.65 Q123.15 -56.2 119.45 -49.5 L115.15 -41.9 Q113.4 -38.65 111.1 -37.15 112.5 -38.65 113.25 -40.4 114.15 -42.6 114.5 -44.8 L116.1 -47.35 Q118.3 -51.85 119.7 -56.8 L119.9 -57.7 Q120.9 -61.25 118.0 -63.45 L117.25 -63.3 115.35 -60.0 113.8 -54.45 113.95 -56.95 113.6 -60.1 113.0 -60.35 112.1 -59.7 111.65 -58.65 Q102.65 -57.7 95.15 -53.0 L93.35 -51.95 93.4 -51.2 Q94.45 -49.55 96.5 -50.2 L109.85 -54.7 103.7 -40.3 86.5 -45.85 89.5 -55.95 89.3 -57.5 89.7 -57.15 92.15 -57.1 Q100.0 -60.45 108.5 -61.55 L110.75 -61.75 111.5 -62.55 112.85 -62.3 Q116.05 -64.95 117.8 -69.2 L118.95 -71.4 Q121.4 -75.65 120.25 -79.95 120.05 -80.55 119.35 -80.8 112.75 -83.95 105.75 -85.6 L102.4 -85.45 Q101.65 -85.15 101.15 -84.45 99.65 -82.15 98.9 -79.75 96.9 -73.55 96.15 -67.1 95.3 -67.5 94.5 -67.95 L91.8 -65.75 94.5 -67.95 Q95.3 -67.5 96.15 -67.1 L96.95 -66.7 97.3 -66.6 91.8 -65.75 Q91.35 -65.75 91.05 -65.3 90.7 -64.9 90.7 -64.3 L89.25 -59.0 90.7 -64.3 96.15 -62.6 89.25 -59.0 89.25 -58.65 87.0 -59.7 69.25 -49.45 70.1 -49.3 57.5 -50.95 48.5 -42.95 47.45 -37.95 33.5 -44.0 39.5 -46.35 40.35 -46.7 Q40.8 -50.85 38.4 -54.3 32.95 -62.05 24.15 -65.75 L22.0 -66.6 6.1 -62.45 5.05 -63.0 3.6 -63.85 17.45 -69.15 Q24.8 -70.5 30.05 -65.5 38.45 -57.5 46.4 -49.05 L49.9 -51.05 46.4 -49.05 Q38.45 -57.5 30.05 -65.5 24.8 -70.5 17.45 -69.15 M77.4 -63.4 Q73.95 -64.85 74.4 -68.3 L74.6 -69.1 Q69.25 -73.45 62.6 -72.3 L56.55 -71.6 Q51.65 -72.05 46.75 -73.85 L46.5 -74.8 33.4 -69.65 Q33.05 -67.15 35.45 -66.0 L37.5 -65.1 Q37.65 -62.35 40.45 -61.65 L42.35 -61.45 Q43.3 -59.45 45.25 -58.0 45.8 -57.55 46.05 -56.7 47.0 -53.1 49.9 -51.05 L60.35 -56.45 58.75 -51.85 Q62.65 -52.35 66.55 -53.9 72.95 -56.5 79.65 -58.35 85.3 -59.85 89.0 -64.6 L88.0 -65.8 83.25 -65.2 77.4 -63.4 M16.1 41.75 L16.5 42.05 15.75 42.3 15.9 41.85 Q15.95 41.75 16.1 41.75 M46.4 -49.05 L39.5 -46.35 46.4 -49.05 M107.1 -63.4 L106.65 -63.5 107.0 -63.6 107.1 -63.4 M103.45 -64.5 L102.85 -64.4 102.95 -64.7 103.45 -64.5 M110.75 -61.75 L115.5 -61.95 115.35 -60.0 115.5 -61.95 110.75 -61.75 M92.15 -57.1 L89.5 -55.95 92.15 -57.1" fill="#ff0000" fill-rule="evenodd" stroke="none"/>
    <path d="M96.6 -83.4 L95.85 -81.55 66.5 -73.95 65.55 -74.6 68.5 -77.05 66.2 -76.45 64.4 -76.15 Q61.55 -75.8 59.05 -76.25 L58.0 -76.6 57.25 -78.45 58.95 -79.4 60.65 -80.25 Q71.5 -84.75 83.35 -85.8 L96.55 -87.95 98.15 -87.85 96.6 -83.4 M77.4 -63.4 L83.25 -65.2 88.0 -65.8 89.0 -64.6 Q85.3 -59.85 79.65 -58.35 72.95 -56.5 66.55 -53.9 62.65 -52.35 58.75 -51.85 L60.35 -56.45 77.4 -63.4 M90.7 -64.3 Q90.7 -64.9 91.05 -65.3 91.35 -65.75 91.8 -65.75 L97.3 -66.6 102.95 -64.7 102.85 -64.4 96.15 -62.6 90.7 -64.3 91.8 -65.75 90.7 -64.3 M124.0 -82.1 L101.5 -88.85 101.35 -89.95 102.25 -90.85 Q109.7 -90.5 116.45 -88.6 120.75 -87.35 124.45 -84.85 L124.4 -84.55 124.0 -82.1 M125.25 -63.65 L122.9 -61.0 Q120.15 -65.1 121.55 -70.35 L122.65 -75.1 Q123.1 -77.2 125.0 -77.95 L127.35 -74.95 127.25 -74.2 125.25 -63.65 M109.85 -54.7 L96.5 -50.2 Q94.45 -49.55 93.4 -51.2 L93.35 -51.95 95.15 -53.0 Q102.65 -57.7 111.65 -58.65 L109.85 -54.7" fill="#f96263" fill-rule="evenodd" stroke="none"/>
    <path d="M49.9 -51.05 Q47.0 -53.1 46.05 -56.7 45.8 -57.55 45.25 -58.0 43.3 -59.45 42.35 -61.45 L40.45 -61.65 Q37.65 -62.35 37.5 -65.1 L35.45 -66.0 Q33.05 -67.15 33.4 -69.65 L46.5 -74.8 46.75 -73.85 Q51.65 -72.05 56.55 -71.6 L62.6 -72.3 Q69.25 -73.45 74.6 -69.1 L74.4 -68.3 Q73.95 -64.85 77.4 -63.4 L60.35 -56.45 49.9 -51.05 M33.25 -43.95 L31.5 -54.95 Q22.55 -56.25 14.05 -59.1 10.0 -60.45 6.1 -62.45 L22.0 -66.6 24.15 -65.75 Q32.95 -62.05 38.4 -54.3 40.8 -50.85 40.35 -46.7 L39.5 -46.35 33.5 -44.0 33.25 -43.95 M33.25 -43.9 L33.5 -44.0 47.45 -37.95 44.3 -23.2 44.0 -23.1 39.1 -21.45 37.45 -20.9 33.25 -43.9 M70.1 -49.3 L69.25 -49.45 87.0 -59.7 89.25 -58.65 89.25 -59.0 96.15 -62.6 102.85 -64.4 103.45 -64.5 106.65 -63.5 103.45 -64.5 102.95 -64.7 97.3 -66.6 96.95 -66.7 96.15 -67.1 Q96.9 -73.55 98.9 -79.75 99.65 -82.15 101.15 -84.45 101.65 -85.15 102.4 -85.45 L105.75 -85.6 Q112.75 -83.95 119.35 -80.8 120.05 -80.55 120.25 -79.95 121.4 -75.65 118.95 -71.4 L117.8 -69.2 Q116.05 -64.95 112.85 -62.3 L111.5 -62.55 110.75 -61.75 108.5 -61.55 Q100.0 -60.45 92.15 -57.1 L89.7 -57.15 89.3 -57.5 89.5 -55.95 86.5 -45.85 76.75 -48.1 70.1 -49.3 M111.1 -37.15 L107.45 -38.75 103.7 -40.3 109.85 -54.7 111.65 -58.65 112.1 -59.7 113.0 -60.35 113.6 -60.1 113.95 -56.95 113.8 -54.45 115.35 -60.0 117.25 -63.3 118.0 -63.45 Q120.9 -61.25 119.9 -57.7 L119.7 -56.8 Q118.3 -51.85 116.1 -47.35 L114.5 -44.8 Q114.15 -42.6 113.25 -40.4 112.5 -38.65 111.1 -37.15 M76.75 -48.1 Q79.65 -49.0 82.1 -50.65 L89.5 -55.95 82.1 -50.65 Q79.65 -49.0 76.75 -48.1 M107.1 -63.4 L111.5 -62.55 107.1 -63.4 107.0 -63.6 106.65 -63.5 107.1 -63.4 M89.3 -57.75 L89.25 -58.65 89.3 -57.75 M107.45 -38.75 L111.7 -46.7 113.8 -54.45 111.7 -46.7 107.45 -38.75 M-68.3 9.75 L-68.1 9.7 -66.6 10.65 -68.3 9.75" fill="#860a0d" fill-rule="evenodd" stroke="none"/>
    <path d="M139.65 -75.5 L133.65 -48.55 Q126.75 -42.95 122.3 -34.95 117.6 -26.55 111.1 -19.45 L97.85 -5.05 86.6 7.35 Q80.65 14.05 73.1 18.75 64.8 23.85 57.7 30.6 L48.4 39.55 Q43.25 44.6 38.25 49.8 34.35 53.8 29.7 57.1 L26.2 59.25 12.65 65.75 Q3.75 70.0 -5.6 72.75 L-11.75 74.15 Q-14.3 74.65 -16.5 76.2 L-16.5 79.6 -30.3 87.95 -23.35 81.4 Q-34.95 76.85 -46.75 73.8 -65.55 69.15 -84.0 63.5 L-86.8 62.3 -88.1 61.5 Q-90.55 59.95 -93.1 58.65 -96.85 56.75 -100.7 55.1 L-104.6 53.55 -106.8 52.55 Q-110.1 51.1 -113.45 49.8 L-114.45 49.3 -114.65 47.3 Q-113.55 45.3 -111.15 45.75 -107.75 46.6 -104.4 47.85 -97.8 50.45 -91.5 53.7 -85.3 56.85 -78.65 58.55 L-60.85 63.0 -48.75 65.65 Q-41.35 67.45 -34.0 69.6 -25.5 72.0 -16.5 72.9 L-14.15 73.05 Q-13.1 69.15 -9.2 67.4 1.3 62.65 11.1 56.65 L23.95 48.5 Q30.35 44.3 36.3 39.6 43.8 33.65 50.65 27.15 57.4 20.65 63.6 13.5 66.05 10.6 69.25 8.4 78.35 2.05 87.25 -4.55 L102.85 -16.25 Q107.65 -19.95 110.65 -25.25 115.45 -33.65 121.8 -41.45 124.1 -44.25 125.95 -47.4 133.9 -60.95 139.65 -75.5 M118.15 -5.5 L115.55 4.85 110.55 12.8 Q105.5 20.7 99.9 28.35 L90.95 39.65 Q84.45 47.3 76.9 53.7 71.2 58.6 64.95 62.9 L50.85 72.85 Q43.9 78.0 37.85 84.05 32.2 89.65 25.5 94.35 17.5 99.95 10.4 106.3 L-7.75 107.0 -25.6 106.2 -43.25 104.7 -60.75 101.45 -59.2 99.4 Q-51.0 101.8 -42.5 102.4 -32.65 103.1 -22.65 101.95 -13.95 100.95 -5.35 98.45 0.35 96.75 5.15 93.5 6.45 92.6 7.2 91.15 15.75 88.95 23.7 84.75 31.55 80.6 38.9 75.8 46.45 70.9 53.4 65.45 60.5 59.85 66.85 53.4 L75.25 44.75 110.7 4.0 118.15 -5.5 M-90.85 -15.75 L-85.75 -20.25 Q-80.4 -24.65 -74.65 -28.55 -68.25 -32.9 -61.65 -36.65 -53.45 -41.3 -44.7 -44.75 -41.6 -46.0 -38.75 -47.5 L-37.2 -48.6 Q-34.2 -52.2 -29.65 -53.0 L-20.6 -52.75 -13.25 -52.0 1.25 -49.6 14.4 -47.15 16.85 -46.45 18.45 -45.75 15.85 -40.0 16.05 -40.5 12.65 -41.4 Q12.1 -42.55 11.0 -42.85 -3.3 -45.4 -17.65 -46.95 -22.3 -44.55 -27.65 -45.35 L-29.7 -45.1 Q-34.6 -44.3 -38.9 -42.45 L-47.6 -38.35 Q-51.95 -39.05 -55.25 -36.5 L-59.1 -33.7 -65.1 -28.95 Q-86.1 -11.65 -103.55 9.4 L-113.0 19.5 -115.95 24.55 Q-116.65 25.85 -116.85 27.3 -117.7 33.5 -112.35 36.95 -112.55 39.3 -114.0 41.25 -115.65 43.5 -118.05 42.65 -123.9 40.45 -123.8 34.1 -123.7 28.1 -121.5 22.55 -118.05 13.8 -110.6 8.35 -107.9 6.45 -105.9 3.8 -103.15 0.3 -100.7 -3.55 -96.45 -10.2 -90.85 -15.75 M99.5 -90.95 L86.65 -88.45 67.55 -83.9 48.55 -79.0 Q40.7 -76.8 32.95 -74.25 25.15 -71.8 17.45 -69.15 L3.6 -63.85 5.05 -63.0 Q3.35 -63.65 1.9 -64.65 -0.25 -66.2 1.2 -68.6 2.0 -69.95 3.35 -70.55 4.35 -71.05 5.5 -70.95 L8.4 -72.0 Q17.2 -76.4 26.5 -80.0 39.65 -84.95 53.2 -87.85 60.25 -89.25 67.15 -91.15 95.95 -99.45 125.75 -94.9 L126.8 -94.25 Q129.45 -91.75 127.2 -88.9 L127.65 -87.85 Q128.9 -84.75 126.35 -83.2 L124.45 -84.85 Q120.75 -87.35 116.45 -88.6 109.7 -90.5 102.25 -90.85 L99.5 -90.95 M-3.8 -29.25 L6.95 -28.25 10.55 -28.2 9.5 -25.95 -3.8 -29.25 M93.45 18.45 L91.8 17.5 98.75 12.2 93.45 18.45 M-16.5 76.2 L-16.5 72.9 -16.5 76.2" fill="#dadada" fill-rule="evenodd" stroke="none"/>
    <path d="M133.65 -48.55 L127.55 -31.95 Q124.2 -23.4 120.5 -14.95 L98.75 12.2 91.8 17.5 93.45 18.45 82.55 30.7 Q76.1 37.65 69.2 44.15 L55.25 56.7 51.95 59.5 Q51.7 57.85 50.05 56.75 L48.65 55.9 27.2 68.65 Q25.4 69.7 23.4 70.35 10.05 75.3 -4.1 77.9 L-15.1 79.4 -16.5 79.6 -16.5 76.2 Q-14.3 74.65 -11.75 74.15 L-5.6 72.75 Q3.75 70.0 12.65 65.75 L26.2 59.25 29.7 57.1 Q34.35 53.8 38.25 49.8 43.25 44.6 48.4 39.55 L57.7 30.6 Q64.8 23.85 73.1 18.75 80.65 14.05 86.6 7.35 L97.85 -5.05 111.1 -19.45 Q117.6 -26.55 122.3 -34.95 126.75 -42.95 133.65 -48.55 M-103.55 9.4 Q-86.1 -11.65 -65.1 -28.95 L-59.1 -33.7 -55.25 -36.5 Q-51.95 -39.05 -47.6 -38.35 L-38.9 -42.45 Q-34.6 -44.3 -29.7 -45.1 L-27.65 -45.35 Q-22.3 -44.55 -17.65 -46.95 -3.3 -45.4 11.0 -42.85 12.1 -42.55 12.65 -41.4 L16.05 -40.5 15.85 -40.0 10.55 -28.2 6.95 -28.25 -3.8 -29.25 -16.4 -32.4 -22.5 -33.95 -28.5 -35.45 Q-24.5 -39.2 -29.0 -42.0 L-30.5 -42.9 Q-32.55 -42.65 -34.25 -41.45 -53.35 -28.65 -71.0 -14.1 L-79.8 -6.2 -88.05 2.25 -88.8 3.3 -93.3 3.7 Q-98.9 5.5 -103.55 9.4 M-59.2 99.4 L-58.6 97.75 -56.4 97.1 Q-39.75 98.45 -23.05 97.6 -20.65 97.55 -18.65 95.95 -17.55 95.1 -17.0 93.8 -7.15 94.15 2.6 92.15 L7.2 91.15 Q6.45 92.6 5.15 93.5 0.35 96.75 -5.35 98.45 -13.95 100.95 -22.65 101.95 -32.65 103.1 -42.5 102.4 -51.0 101.8 -59.2 99.4" fill="#c1c1c1" fill-rule="evenodd" stroke="none"/>
    <path d="M17.25 -1.45 L3.5 -5.95 -1.0 -3.25 3.5 -5.95 17.25 -1.45 25.5 3.05 Q20.85 6.35 16.6 10.25 9.75 16.5 4.5 24.05 -5.55 23.55 -14.95 20.25 -19.05 18.8 -22.5 16.05 -19.2 11.95 -15.3 8.15 -8.75 1.75 -1.0 -3.25 -10.05 -1.7 -18.3 2.4 -25.25 5.9 -31.45 10.8 -35.45 14.0 -39.25 17.7 L-48.3 15.4 Q-41.75 8.75 -34.4 3.0 -26.9 -2.9 -18.75 -7.2 -13.15 -10.15 -7.25 -12.2 -4.2 -13.25 -0.85 -13.5 L5.6 -13.55 8.55 -12.55 Q17.95 -9.35 25.5 -2.95 L32.05 -9.0 31.4 -8.35 36.65 -5.9 Q44.5 -2.15 51.5 3.4 L51.5 5.05 54.65 6.7 54.35 11.05 16.5 42.05 16.1 41.75 12.25 38.6 11.65 38.1 Q15.2 36.8 18.45 35.2 29.6 29.7 38.5 21.25 L44.25 15.4 Q46.4 13.15 47.95 10.3 40.95 6.1 32.95 3.1 25.3 0.15 17.25 -1.45 M44.0 -23.1 L44.15 -22.95 44.2 -22.7 44.15 -22.5 43.5 -19.55 39.1 -21.45 44.0 -23.1 M-6.5 17.05 L-6.5 12.05 -0.5 11.05 -0.5 17.05 -0.5 11.05 -6.5 17.05 -0.5 17.05 -6.5 17.05 -0.5 11.05 -6.5 12.05 -6.5 17.05" fill="#464646" fill-rule="evenodd" stroke="none"/>
    <path d="M-22.5 -33.95 L-16.4 -32.4 -3.8 -29.25 9.5 -25.95 25.5 -25.95 25.5 -2.95 Q17.95 -9.35 8.55 -12.55 L5.6 -13.55 -0.85 -13.5 Q-4.2 -13.25 -7.25 -12.2 -13.15 -10.15 -18.75 -7.2 -26.9 -2.9 -34.4 3.0 -41.75 8.75 -48.3 15.4 L-57.5 14.25 -62.5 14.05 -66.6 10.65 -68.1 9.7 -68.3 9.75 -74.6 6.4 -61.35 -5.55 -48.35 -16.3 -35.35 -25.65 -22.5 -33.95 M54.35 11.05 L54.65 6.7 51.5 5.05 51.5 3.4 Q44.5 -2.15 36.65 -5.9 L31.4 -8.35 32.05 -9.0 38.5 -14.95 37.45 -20.9 39.1 -21.45 43.5 -19.55 42.5 -14.95 51.5 -12.7 74.8 -6.6 57.65 8.25 54.35 11.05 M-16.4 -32.4 L-14.5 -16.95 Q-20.7 -13.6 -26.7 -9.95 -32.55 -6.5 -38.1 -2.65 -46.1 2.95 -53.0 9.8 L-57.5 14.25 -53.0 9.8 Q-46.1 2.95 -38.1 -2.65 -32.55 -6.5 -26.7 -9.95 -20.7 -13.6 -14.5 -16.95 L-16.4 -32.4 M-14.5 -16.95 L-9.0 -16.4 Q-1.5 -15.55 5.6 -13.55 -1.5 -15.55 -9.0 -16.4 L-14.5 -16.95 M54.65 6.7 L57.65 8.25 54.65 6.7 M51.5 -12.7 L51.5 3.4 51.5 -12.7" fill="#2d2d2d" fill-rule="evenodd" stroke="none"/>
    <path d="M17.25 -1.45 Q25.3 0.15 32.95 3.1 40.95 6.1 47.95 10.3 46.4 13.15 44.25 15.4 L38.5 21.25 Q29.6 29.7 18.45 35.2 15.2 36.8 11.65 38.1 L12.25 38.6 6.8 34.95 Q0.15 31.05 -7.35 28.9 -15.2 26.8 -23.5 26.05 L-31.15 21.15 -39.25 17.7 Q-35.45 14.0 -31.45 10.8 -25.25 5.9 -18.3 2.4 -10.05 -1.7 -1.0 -3.25 -8.75 1.75 -15.3 8.15 -19.2 11.95 -22.5 16.05 -19.05 18.8 -14.95 20.25 -5.55 23.55 4.5 24.05 9.75 16.5 16.6 10.25 20.85 6.35 25.5 3.05 L17.25 -1.45 M44.2 -22.7 L44.15 -22.95 44.0 -23.1 44.3 -23.2 44.2 -22.7" fill="#808080" fill-rule="evenodd" stroke="none"/>
    <path d="M-60.75 101.45 Q-69.8 99.3 -78.55 96.25 -86.7 93.5 -94.45 89.35 -102.05 85.4 -106.85 78.5 -97.8 81.7 -88.5 84.05 L-87.15 84.4 -53.8 91.25 -42.6 93.05 -31.5 94.05 -27.9 92.05 -31.5 94.05 -30.5 88.25 -30.3 87.95 -16.5 79.6 -15.1 79.4 -4.1 77.9 Q10.05 75.3 23.4 70.35 25.4 69.7 27.2 68.65 L48.65 55.9 50.05 56.75 Q51.7 57.85 51.95 59.5 44.75 65.8 36.7 71.2 29.05 76.3 20.8 80.1 13.2 83.6 5.15 86.45 -2.65 89.15 -11.1 89.5 L-21.5 89.05 -21.75 88.6 -27.9 92.05 -17.0 93.8 Q-17.55 95.1 -18.65 95.95 -20.65 97.55 -23.05 97.6 -39.75 98.45 -56.4 97.1 L-58.6 97.75 -59.2 99.4 -60.75 101.45 M-88.8 3.3 L-88.05 2.25 -79.8 -6.2 -71.0 -14.1 Q-53.35 -28.65 -34.25 -41.45 -32.55 -42.65 -30.5 -42.9 L-29.0 -42.0 Q-24.5 -39.2 -28.5 -35.45 L-30.5 -35.95 -30.9 -35.65 -34.95 -33.1 -76.85 2.15 -78.05 3.45 -80.75 4.5 -88.8 3.3 M-15.5 85.05 L-21.75 88.6 -15.5 85.05" fill="#9f9f9f" fill-rule="evenodd" stroke="none"/>
    <path d="M-85.75 -20.25 L-73.95 -30.15 Q-67.25 -35.45 -60.2 -40.4 L-45.6 -49.85 Q-38.05 -54.45 -30.2 -58.45 -22.5 -62.45 -14.55 -65.95 -9.5 -68.25 -4.3 -70.3 L6.1 -74.35 16.6 -78.25 27.15 -82.1 37.85 -85.7 48.55 -89.05 Q57.6 -92.0 66.8 -94.55 L83.3 -98.6 98.45 -101.4 116.75 -103.0 Q125.65 -103.25 134.65 -102.6 L141.5 -101.95 139.65 -75.5 133.65 -48.55 127.55 -31.95 Q124.2 -23.4 120.5 -14.95 L118.15 -5.5 115.55 4.85 Q112.5 16.95 108.9 28.85 107.75 32.6 105.95 36.15 101.55 44.7 96.15 52.55 90.8 60.15 84.45 66.9 78.3 73.5 71.05 79.35 63.85 85.2 55.95 89.9 47.8 94.7 39.15 98.5 30.1 102.4 20.4 104.6 L10.4 106.3 -7.75 107.0 -25.6 106.2 -43.25 104.7 -60.75 101.45 Q-69.8 99.3 -78.55 96.25 -86.7 93.5 -94.45 89.35 -102.05 85.4 -106.85 78.5 -114.25 75.95 -121.6 72.55 -130.0 68.65 -137.8 63.55 L-141.5 61.05 -141.5 51.05 -135.5 45.05 Q-138.2 41.35 -137.25 36.8 -135.7 29.15 -131.0 23.1 -125.15 15.65 -118.0 9.05 L-90.85 -15.75 -85.75 -20.25 M-29.65 -53.0 L-33.5 -52.95 M98.15 -87.85 L99.5 -90.95 86.65 -88.45 67.55 -83.9 48.55 -79.0 Q40.7 -76.8 32.95 -74.25 25.15 -71.8 17.45 -69.15 24.8 -70.5 30.05 -65.5 38.45 -57.5 46.4 -49.05 L49.9 -51.05 60.35 -56.45 77.4 -63.4 83.25 -65.2 94.5 -67.95 96.6 -83.4 98.15 -87.85 M5.05 -63.0 L3.6 -63.85 17.45 -69.15 M6.1 -62.45 L5.05 -63.0 M6.1 -62.45 Q10.0 -60.45 14.05 -59.1 22.55 -56.25 31.5 -54.95 L33.25 -43.95 33.25 -43.9 33.5 -44.0 39.5 -46.35 46.4 -49.05 M47.45 -37.95 L48.5 -42.95 57.5 -50.95 70.1 -49.3 76.75 -48.1 86.5 -45.85 89.5 -55.95 82.1 -50.65 Q79.65 -49.0 76.75 -48.1 M89.25 -58.65 L89.25 -59.0 90.7 -64.3 91.8 -65.75 94.5 -67.95 Q95.3 -67.5 96.15 -67.1 M112.85 -62.3 L115.5 -61.95 116.75 -63.75 Q122.35 -72.1 124.0 -82.1 M102.25 -90.85 L99.5 -90.95 M15.85 -40.0 L18.45 -45.75 18.5 -45.95 16.85 -46.45 14.4 -47.15 Q6.0 -49.45 -2.75 -50.9 L-20.6 -52.75 -29.65 -53.0 M-28.5 -35.45 L-22.5 -33.95 -16.4 -32.4 -3.8 -29.25 9.5 -25.95 10.55 -28.2 15.85 -40.0 M-1.0 -3.25 L3.5 -5.95 17.25 -1.45 25.5 3.05 Q20.85 6.35 16.6 10.25 9.75 16.5 4.5 24.05 -5.55 23.55 -14.95 20.25 -19.05 18.8 -22.5 16.05 -19.2 11.95 -15.3 8.15 -8.75 1.75 -1.0 -3.25 M16.1 41.75 L16.5 42.05 54.35 11.05 57.65 8.25 54.65 6.7 51.5 5.05 51.5 3.4 51.5 -12.7 74.8 -6.6 98.5 -27.95 Q91.75 -31.25 84.65 -33.95 75.4 -37.4 65.9 -39.55 L48.5 -42.95 M32.05 -9.0 L25.5 -2.95 Q17.95 -9.35 8.55 -12.55 L5.6 -13.55 Q-1.5 -15.55 -9.0 -16.4 L-14.5 -16.95 -16.4 -32.4 M37.45 -20.9 L38.5 -14.95 32.05 -9.0 M39.1 -21.45 L37.45 -20.9 33.25 -43.9 M9.5 -25.95 L25.5 -25.95 25.5 -2.95 M44.2 -22.7 L44.3 -23.2 44.0 -23.1 39.1 -21.45 M43.5 -19.55 L44.15 -22.5 44.2 -22.7 M43.5 -19.55 L42.5 -14.95 51.5 -12.7 M47.45 -37.95 L44.3 -23.2 M18.5 -45.95 L31.5 -54.95 M127.35 -74.95 L127.5 -81.95 126.35 -83.2 124.45 -84.85 124.4 -84.55 M127.25 -74.2 L125.25 -63.65 Q123.15 -56.2 119.45 -49.5 L115.15 -41.9 Q113.4 -38.65 111.1 -37.15 L107.45 -38.75 103.7 -40.3 86.5 -45.85 M102.25 -90.85 Q109.7 -90.5 116.45 -88.6 120.75 -87.35 124.45 -84.85 M97.3 -66.6 L96.95 -66.7 M89.5 -55.95 L89.3 -57.5 M92.15 -57.1 Q100.0 -60.45 108.5 -61.55 L110.75 -61.75 115.5 -61.95 115.35 -60.0 113.8 -54.45 111.7 -46.7 107.45 -38.75 M111.5 -62.55 L107.1 -63.4 106.65 -63.5 103.45 -64.5 102.95 -64.7 97.3 -66.6 M89.25 -58.65 L89.3 -57.75 M89.5 -55.95 L92.15 -57.1 M111.5 -62.55 L112.85 -62.3 M-16.5 76.2 L-16.5 79.6 -30.3 87.95 -30.5 88.05 -47.4 86.3 -63.4 83.45 -78.6 80.3 Q-85.9 78.5 -92.95 76.05 L-106.3 70.9 Q-112.9 68.3 -118.95 65.2 -124.85 62.05 -130.55 58.4 L-141.5 51.05 M51.95 59.5 L55.25 56.7 69.2 44.15 Q76.1 37.65 82.55 30.7 L93.45 18.45 98.75 12.2 120.5 -14.95 M-22.5 -33.95 L-35.35 -25.65 -48.35 -16.3 -61.35 -5.55 -74.6 6.4 M-57.5 14.25 L-53.0 9.8 Q-46.1 2.95 -38.1 -2.65 -32.55 -6.5 -26.7 -9.95 -20.7 -13.6 -14.5 -16.95 M-78.05 3.45 L-76.85 2.15 -34.95 -33.1 -30.9 -35.65 -30.5 -35.95 -28.5 -35.45 M-0.5 17.05 L-0.5 11.05 -6.5 17.05 -0.5 17.05 M-0.5 11.05 L-6.5 12.05 -6.5 17.05 M-68.3 9.75 L-66.6 10.65 M-80.75 4.5 L-79.25 4.85 -78.05 3.45 M-17.0 93.8 L-27.9 92.05 -31.5 94.05 -42.6 93.05 -53.8 91.25 -87.15 84.4 -88.5 84.05 Q-97.8 81.7 -106.85 78.5 M-30.5 88.25 L-30.5 88.05 M-16.5 71.05 L-16.5 72.9 -16.5 76.2 M-21.75 88.6 L-27.9 92.05 M-31.5 94.05 L-30.5 88.25 M51.95 59.5 Q44.75 65.8 36.7 71.2 29.05 76.3 20.8 80.1 13.2 83.6 5.15 86.45 -2.65 89.15 -11.1 89.5 L-21.5 89.05 M-21.75 88.6 L-15.5 85.05 M-135.5 45.05 L-127.5 37.05 M7.2 91.15 L2.6 92.15 Q-7.15 94.15 -17.0 93.8 M74.8 -6.6 L57.65 8.25 M7.2 91.15 Q15.75 88.95 23.7 84.75 31.55 80.6 38.9 75.8 46.45 70.9 53.4 65.45 60.5 59.85 66.85 53.4 L75.25 44.75 110.7 4.0 118.15 -5.5" fill="none" stroke="#000000" stroke-linecap="round" stroke-linejoin="round" stroke-width="3.0"/>
    <path d="M-35.5 -55.95 L-34.5 -74.95 Q-59.15 -52.95 -67.5 -30.95 L-35.5 -55.95 M-31.5 -57.95 Q-5.0 -57.85 14.5 -50.95 L10.5 -70.95 Q0.7 -78.65 -30.5 -77.95 L-31.5 -57.95 M21.5 -47.95 L18.5 -45.95 Q-4.4 -51.8 -33.5 -52.95 -51.65 -36.45 -75.5 -19.95 -72.4 -48.6 -32.5 -81.95 -2.55 -84.75 14.5 -77.95 20.15 -63.65 21.5 -47.95" fill="#ffffff" fill-rule="evenodd" stroke="none"/>
    <path d="M-35.5 -55.95 L-67.5 -30.95 Q-59.15 -52.95 -34.5 -74.95 L-35.5 -55.95 M-31.5 -57.95 L-30.5 -77.95 Q0.7 -78.65 10.5 -70.95 L14.5 -50.95 Q-5.0 -57.85 -31.5 -57.95" fill="#ffffff" fill-opacity="0.4" fill-rule="evenodd" stroke="none"/>
    <path d="M-35.5 -55.95 L-67.5 -30.95 Q-59.15 -52.95 -34.5 -74.95 L-35.5 -55.95 M-31.5 -57.95 Q-5.0 -57.85 14.5 -50.95 L10.5 -70.95 Q0.7 -78.65 -30.5 -77.95 L-31.5 -57.95 M21.5 -47.95 Q20.15 -63.65 14.5 -77.95 -2.55 -84.75 -32.5 -81.95 -72.4 -48.6 -75.5 -19.95 -51.65 -36.45 -33.5 -52.95 -4.4 -51.8 18.5 -45.95 L21.5 -47.95 Z" fill="none" stroke="#000000" stroke-linecap="round" stroke-linejoin="round" stroke-width="3.0"/>
    <path d="M-20.0 -38.3 L-18.5 -37.95 -15.9 -22.85 -15.2 -18.8 -13.5 -8.95 -21.5 5.05 -24.55 -10.75 -21.5 5.05 -13.5 -8.95 -15.2 -18.8 Q-14.55 -19.4 -13.75 -19.4 -9.75 -17.75 -6.0 -15.35 L-5.4 -14.7 0.5 -18.95 Q8.3 -20.35 5.5 -5.95 L-21.5 5.05 -49.5 -4.95 -53.15 -18.25 Q-45.05 -17.2 -37.15 -15.15 -30.65 -13.45 -24.55 -10.75 L-28.5 -30.95 Q-25.1 -38.85 -20.0 -38.3 M-5.4 -14.7 L-13.5 -8.95 -5.4 -14.7" fill="#860a0d" fill-rule="evenodd" stroke="none"/>
    <path d="M-20.0 -38.3 Q-25.1 -38.85 -28.5 -30.95 L-24.55 -10.75 Q-30.65 -13.45 -37.15 -15.15 -45.05 -17.2 -53.15 -18.25 L-57.5 -33.95 Q-58.15 -48.7 -49.5 -44.95 L-20.0 -38.3 M-15.2 -18.8 L-15.9 -22.85 0.5 -18.95 -5.4 -14.7 -6.0 -15.35 Q-9.75 -17.75 -13.75 -19.4 -14.55 -19.4 -15.2 -18.8 M-42.2 -37.95 L-41.6 -38.1 -41.45 -38.15 -41.55 -38.25 -42.05 -38.65 -42.1 -38.85 -42.35 -39.3 Q-44.2 -42.05 -48.15 -41.5 L-48.25 -41.55 Q-50.35 -42.95 -52.95 -42.5 -56.85 -41.5 -56.15 -37.35 L-55.65 -36.25 Q-52.25 -32.1 -47.85 -35.55 L-44.7 -36.05 Q-42.8 -36.15 -42.2 -37.95" fill="#ff0000" fill-rule="evenodd" stroke="none"/>
    <path d="M-42.2 -37.95 Q-42.8 -36.15 -44.7 -36.05 L-47.85 -35.55 Q-52.25 -32.1 -55.65 -36.25 L-56.15 -37.35 Q-56.85 -41.5 -52.95 -42.5 -50.35 -42.95 -48.25 -41.55 L-48.15 -41.5 Q-44.2 -42.05 -42.35 -39.3 L-42.1 -38.85 -42.05 -38.65 -41.55 -38.25 -41.45 -38.15 -41.6 -38.1 -42.2 -37.95" fill="#f96263" fill-rule="evenodd" stroke="none"/>
    <path d="M-15.9 -22.85 L-18.5 -37.95 -20.0 -38.3 Q-25.1 -38.85 -28.5 -30.95 L-24.55 -10.75 -21.5 5.05 -13.5 -8.95 -15.2 -18.8 -15.9 -22.85 0.5 -18.95 Q8.3 -20.35 5.5 -5.95 L-21.5 5.05 -49.5 -4.95 -53.15 -18.25 -57.5 -33.95 Q-58.15 -48.7 -49.5 -44.95 L-20.0 -38.3 M-5.4 -14.7 L0.5 -18.95 M-13.5 -8.95 L-5.4 -14.7" fill="none" stroke="#000000" stroke-linecap="round" stroke-linejoin="round" stroke-width="2.0"/>
    <path d="M126.5 -106.95 L125.05 -105.45 123.7 -103.95 121.3 -100.9 120.75 -100.0 Q119.1 -101.05 117.2 -99.95 116.35 -99.45 115.75 -98.8 L117.65 -101.35 119.9 -103.7 Q121.05 -104.7 122.35 -105.45 L125.1 -106.5 126.5 -106.95 M117.65 -93.8 L118.1 -95.15 118.2 -95.65 118.65 -95.8 118.9 -96.45 117.9 -93.5 117.65 -93.8" fill="#ffff00" fill-rule="evenodd" stroke="none"/>
    <path d="M121.3 -100.9 L123.7 -103.95 125.05 -105.45 126.5 -106.95 132.95 -104.35 133.5 -103.95 130.7 -102.25 128.05 -100.45 126.85 -99.3 121.3 -100.9 M117.75 -92.8 L117.5 -92.95 117.65 -93.1 117.65 -93.15 117.9 -93.5 118.9 -96.45 119.0 -96.65 Q119.4 -96.2 119.2 -95.75 L118.6 -94.55 117.75 -92.8" fill="#ffffff" fill-rule="evenodd" stroke="none"/>
    <path d="M128.05 -100.45 L130.7 -102.25 133.5 -103.95 135.25 -101.95 136.4 -99.6 136.95 -96.8 137.0 -93.45 135.65 -92.75 134.25 -92.2 132.95 -95.55 131.7 -97.45 129.25 -99.7 128.05 -100.45" fill="#00cc00" fill-rule="evenodd" stroke="none"/>
    <path d="M126.85 -99.3 L128.05 -100.45 129.25 -99.7 131.7 -97.45 132.95 -95.55 134.25 -92.2 132.45 -91.55 132.35 -91.6 132.3 -91.5 129.5 -90.75 126.75 -90.45 124.1 -90.5 121.5 -90.95 122.55 -93.25 Q123.3 -94.9 124.5 -96.45 L126.85 -99.3" fill="#009900" fill-rule="evenodd" stroke="none"/>
    <path d="M132.45 -91.55 L132.3 -91.5 132.35 -91.6 132.45 -91.55" fill="#006600" fill-rule="evenodd" stroke="none"/>
    <path d="M120.75 -100.0 L121.3 -100.9 126.85 -99.3 124.5 -96.45 Q123.3 -94.9 122.55 -93.25 L121.5 -90.95 Q119.65 -91.9 117.75 -92.8 L118.6 -94.55 119.2 -95.75 Q119.4 -96.2 119.0 -96.65 L120.75 -100.0" fill="#cccccc" fill-rule="evenodd" stroke="none"/>
    <path d="M115.75 -98.8 Q116.35 -99.45 117.2 -99.95 119.1 -101.05 120.75 -100.0 L119.0 -96.65 118.9 -96.45 118.65 -95.8 118.2 -95.65 118.1 -95.15 117.65 -93.8 117.5 -93.95 Q115.55 -94.9 115.45 -97.0 L115.5 -98.15 115.75 -98.8" fill="#ffcc00" fill-rule="evenodd" stroke="none"/>
    <path d="M121.3 -100.9 L123.7 -103.95 125.05 -105.45 126.5 -106.95 125.1 -106.5 122.35 -105.45 Q121.05 -104.7 119.9 -103.7 L117.65 -101.35 115.75 -98.8 115.5 -98.15 115.45 -97.0 Q115.55 -94.9 117.5 -93.95 L117.65 -93.15 117.9 -93.5 117.65 -93.15 117.65 -93.1 117.5 -92.95 117.5 -93.15 117.5 -93.95 117.65 -93.1 117.5 -93.15 M120.75 -100.0 L121.3 -100.9 M126.85 -99.3 L128.05 -100.45 130.7 -102.25 133.5 -103.95 132.95 -104.35 126.5 -106.95 M133.5 -103.95 L135.25 -101.95 136.4 -99.6 136.95 -96.8 137.0 -93.45 135.65 -92.75 134.25 -92.2 132.45 -91.55 132.3 -91.5 129.5 -90.75 126.75 -90.45 124.1 -90.5 121.5 -90.95 Q119.65 -91.9 117.75 -92.8 L117.5 -92.95 M126.85 -99.3 L124.5 -96.45 Q123.3 -94.9 122.55 -93.25 L121.5 -90.95 M118.9 -96.45 L119.0 -96.65 120.75 -100.0 M118.9 -96.45 L117.9 -93.5 117.65 -93.8 117.5 -93.95 M117.65 -93.15 L117.65 -93.1" fill="none" stroke="#000000" stroke-linecap="round" stroke-linejoin="round" stroke-width="2.0"/>
    <path d="M34.0 -26.3 L35.5 -25.95 38.1 -10.85 38.8 -6.8 40.5 3.05 32.5 17.05 29.45 1.25 32.5 17.05 40.5 3.05 38.8 -6.8 Q39.45 -7.4 40.25 -7.4 44.25 -5.75 48.0 -3.35 L48.6 -2.7 54.5 -6.95 Q62.3 -8.35 59.5 6.05 L32.5 17.05 4.5 7.05 0.85 -6.25 Q8.95 -5.2 16.85 -3.15 23.35 -1.45 29.45 1.25 L25.5 -18.95 Q28.9 -26.85 34.0 -26.3 M48.6 -2.7 L40.5 3.05 48.6 -2.7" fill="#860a0d" fill-rule="evenodd" stroke="none"/>
    <path d="M34.0 -26.3 Q28.9 -26.85 25.5 -18.95 L29.45 1.25 Q23.35 -1.45 16.85 -3.15 8.95 -5.2 0.85 -6.25 L-3.5 -21.95 Q-4.15 -36.7 4.5 -32.95 L34.0 -26.3 M38.8 -6.8 L38.1 -10.85 54.5 -6.95 48.6 -2.7 48.0 -3.35 Q44.25 -5.75 40.25 -7.4 39.45 -7.4 38.8 -6.8 M11.8 -25.95 L12.4 -26.1 12.55 -26.15 12.45 -26.25 11.95 -26.65 11.9 -26.85 11.65 -27.3 Q9.8 -30.05 5.85 -29.5 L5.75 -29.55 Q3.65 -30.95 1.05 -30.5 -2.85 -29.5 -2.15 -25.35 L-1.65 -24.25 Q1.75 -20.1 6.15 -23.55 L9.3 -24.05 Q11.2 -24.15 11.8 -25.95" fill="#ff0000" fill-rule="evenodd" stroke="none"/>
    <path d="M11.8 -25.95 Q11.2 -24.15 9.3 -24.05 L6.15 -23.55 Q1.75 -20.1 -1.65 -24.25 L-2.15 -25.35 Q-2.85 -29.5 1.05 -30.5 3.65 -30.95 5.75 -29.55 L5.85 -29.5 Q9.8 -30.05 11.65 -27.3 L11.9 -26.85 11.95 -26.65 12.45 -26.25 12.55 -26.15 12.4 -26.1 11.8 -25.95" fill="#f96263" fill-rule="evenodd" stroke="none"/>
    <path d="M38.1 -10.85 L35.5 -25.95 34.0 -26.3 Q28.9 -26.85 25.5 -18.95 L29.45 1.25 32.5 17.05 40.5 3.05 38.8 -6.8 38.1 -10.85 54.5 -6.95 Q62.3 -8.35 59.5 6.05 L32.5 17.05 4.5 7.05 0.85 -6.25 -3.5 -21.95 Q-4.15 -36.7 4.5 -32.95 L34.0 -26.3 M48.6 -2.7 L54.5 -6.95 M40.5 3.05 L48.6 -2.7" fill="none" stroke="#000000" stroke-linecap="round" stroke-linejoin="round" stroke-width="2.0"/>
    <path d="M65.25 -38.0 L33.5 -43.95 35.5 -74.95 82.5 -64.95 99.5 -21.95 32.5 37.05 26.5 34.05 65.25 -38.0 65.3 -38.05 67.95 -43.0 76.5 -58.95 39.5 -67.95 39.5 -46.95 67.95 -43.0 65.3 -38.05 65.25 -38.0 M64.5 -25.95 L38.5 24.05 70.5 -2.95 64.5 -25.95 M67.5 -31.95 L74.5 -6.95 93.5 -22.95 Q89.7 -38.95 81.5 -54.95 L67.5 -31.95" fill="#ffffff" fill-rule="evenodd" stroke="none"/>
    <path d="M67.95 -43.0 L39.5 -46.95 39.5 -67.95 76.5 -58.95 67.95 -43.0 M64.5 -25.95 L70.5 -2.95 38.5 24.05 64.5 -25.95 M67.5 -31.95 L81.5 -54.95 Q89.7 -38.95 93.5 -22.95 L74.5 -6.95 67.5 -31.95" fill="#ffffff" fill-opacity="0.4" fill-rule="evenodd" stroke="none"/>
    <path d="M65.25 -38.0 L26.5 34.05 32.5 37.05 99.5 -21.95 82.5 -64.95 35.5 -74.95 33.5 -43.95 65.25 -38.0 65.3 -38.05 67.95 -43.0 39.5 -46.95 39.5 -67.95 76.5 -58.95 67.95 -43.0 M64.5 -25.95 L38.5 24.05 70.5 -2.95 64.5 -25.95 M67.5 -31.95 L81.5 -54.95 Q89.7 -38.95 93.5 -22.95 L74.5 -6.95 67.5 -31.95 Z" fill="none" stroke="#000000" stroke-linecap="round" stroke-linejoin="round" stroke-width="3.0"/>
    <path d="M-39.05 48.0 Q-30.4 53.0 -20.5 54.2 -16.5 54.4 -13.3 52.15 L-9.5 49.55 Q-5.05 40.95 2.85 35.5 L5.1 34.0 6.8 34.95 12.25 38.6 16.1 41.75 Q15.95 41.75 15.9 41.85 L15.75 42.3 Q6.15 45.05 -1.75 51.2 -9.05 56.9 -13.5 65.05 -24.65 66.95 -35.0 62.35 L-41.5 59.05 -39.05 48.0 -41.5 59.05 Q-48.9 58.8 -56.45 57.25 -66.1 55.4 -75.05 51.55 L-79.5 49.5 -87.5 45.05 Q-97.05 45.35 -105.5 41.25 -109.25 39.45 -112.35 36.95 -117.7 33.5 -116.85 27.3 -116.65 25.85 -115.95 24.55 L-113.0 19.5 Q-107.35 26.7 -98.7 29.3 L-93.15 30.3 Q-86.35 18.15 -74.05 11.75 -71.4 10.3 -68.3 9.75 L-66.6 10.65 -62.5 14.05 Q-70.85 17.65 -77.1 24.1 -80.6 27.7 -83.05 32.0 -73.4 33.95 -63.85 36.3 -54.6 38.5 -45.9 42.4 L-42.75 36.7 Q-37.95 28.2 -31.15 21.15 L-23.5 26.05 Q-30.25 31.7 -34.8 39.15 -37.35 43.35 -39.05 48.0 M-83.05 32.0 Q-86.2 38.05 -87.45 44.75 L-87.5 45.05 -87.45 44.75 Q-86.2 38.05 -83.05 32.0" fill="#860a0d" fill-rule="evenodd" stroke="none"/>
    <path d="M6.8 34.95 L5.1 34.0 2.85 35.5 Q-5.05 40.95 -9.5 49.55 L-13.3 52.15 Q-16.5 54.4 -20.5 54.2 -30.4 53.0 -39.05 48.0 -37.35 43.35 -34.8 39.15 -30.25 31.7 -23.5 26.05 -15.2 26.8 -7.35 28.9 0.15 31.05 6.8 34.95 M-62.5 14.05 L-57.5 14.25 -48.3 15.4 -39.25 17.7 -31.15 21.15 Q-37.95 28.2 -42.75 36.7 L-45.9 42.4 Q-54.6 38.5 -63.85 36.3 -73.4 33.95 -83.05 32.0 -80.6 27.7 -77.1 24.1 -70.85 17.65 -62.5 14.05 M-23.7 30.6 Q-20.2 33.8 -15.3 33.95 -12.6 34.2 -10.2 32.85 L-8.95 31.95 -8.9 31.35 Q-9.55 29.7 -11.35 28.95 -16.0 27.0 -21.0 27.15 -23.7 27.4 -23.75 30.2 L-23.7 30.6 M-43.35 21.45 Q-52.2 16.6 -62.15 17.35 -63.05 17.5 -63.65 18.3 L-63.75 19.4 Q-58.05 22.6 -51.0 23.55 L-48.45 24.05 Q-44.8 25.35 -43.15 22.05 L-43.35 21.45 M-79.25 4.85 L-74.6 6.4 -68.3 9.75 Q-71.4 10.3 -74.05 11.75 -86.35 18.15 -93.15 30.3 L-98.7 29.3 Q-107.35 26.7 -113.0 19.5 L-103.55 9.4 Q-98.9 5.5 -93.3 3.7 L-88.8 3.3 -80.75 4.5 -79.25 4.85 M-78.55 11.7 Q-84.55 7.1 -92.5 6.55 L-95.15 7.8 -95.25 8.9 Q-92.05 11.55 -87.6 12.25 -86.7 12.3 -85.95 12.85 -81.8 15.9 -78.25 12.8 L-78.55 11.7" fill="#ff0000" fill-rule="evenodd" stroke="none"/>
    <path d="M-43.35 21.45 L-43.15 22.05 Q-44.8 25.35 -48.45 24.05 L-51.0 23.55 Q-58.05 22.6 -63.75 19.4 L-63.65 18.3 Q-63.05 17.5 -62.15 17.35 -52.2 16.6 -43.35 21.45 M-23.7 30.6 L-23.75 30.2 Q-23.7 27.4 -21.0 27.15 -16.0 27.0 -11.35 28.95 -9.55 29.7 -8.9 31.35 L-8.95 31.95 -10.2 32.85 Q-12.6 34.2 -15.3 33.95 -20.2 33.8 -23.7 30.6 M-78.55 11.7 L-78.25 12.8 Q-81.8 15.9 -85.95 12.85 -86.7 12.3 -87.6 12.25 -92.05 11.55 -95.25 8.9 L-95.15 7.8 -92.5 6.55 Q-84.55 7.1 -78.55 11.7" fill="#f96263" fill-rule="evenodd" stroke="none"/>
    <path d="M-39.05 48.0 L-41.5 59.05 -35.0 62.35 Q-24.65 66.95 -13.5 65.05 -9.05 56.9 -1.75 51.2 6.15 45.05 15.75 42.3 L16.5 42.05 M16.1 41.75 L12.25 38.6 6.8 34.95 Q0.15 31.05 -7.35 28.9 -15.2 26.8 -23.5 26.05 -30.25 31.7 -34.8 39.15 -37.35 43.35 -39.05 48.0 M-62.5 14.05 L-57.5 14.25 -48.3 15.4 -39.25 17.7 -31.15 21.15 -23.5 26.05 M-66.6 10.65 L-62.5 14.05 Q-70.85 17.65 -77.1 24.1 -80.6 27.7 -83.05 32.0 -86.2 38.05 -87.45 44.75 L-87.5 45.05 Q-97.05 45.35 -105.5 41.25 -109.25 39.45 -112.35 36.95 -117.7 33.5 -116.85 27.3 -116.65 25.85 -115.95 24.55 L-113.0 19.5 -103.55 9.4 Q-98.9 5.5 -93.3 3.7 L-88.8 3.3 -80.75 4.5 M-79.25 4.85 L-74.6 6.4 -68.3 9.75 M-41.5 59.05 Q-48.9 58.8 -56.45 57.25 -66.1 55.4 -75.05 51.55 L-79.5 49.5 -87.5 45.05" fill="none" stroke="#000000" stroke-linecap="round" stroke-linejoin="round" stroke-width="3.0"/>
  </g>
</svg>
