<?xml version="1.0" encoding="UTF-8" standalone="no"?>
<svg xmlns:ffdec="https://www.free-decompiler.com/flash" xmlns:xlink="http://www.w3.org/1999/xlink" ffdec:objectType="shape" height="121.5px" width="51.4px" xmlns="http://www.w3.org/2000/svg">
  <g transform="matrix(1.0, 0.0, 0.0, 1.0, 25.65, 55.25)">
    <path d="M-11.3 -54.5 L-10.95 -54.45 25.0 -50.5 8.25 54.1 -24.45 52.3 -11.3 -54.5" fill="#e0e4e9" fill-rule="evenodd" stroke="none"/>
    <path d="M-10.95 -54.45 L25.0 -50.5 8.25 54.1 -24.45 52.3 -11.3 -54.5" fill="none" stroke="#000000" stroke-linecap="round" stroke-linejoin="round" stroke-width="1.5"/>
    <path d="M-12.4 -52.3 L-12.45 -52.3 -13.0 -52.25 Q-13.7 -52.15 -14.15 -51.6 L-15.05 -50.4 -14.85 -53.0 -14.6 -52.9 -12.4 -52.3 M-20.15 5.4 Q-18.9 5.9 -17.7 5.0 L-16.55 4.0 -17.2 9.95 Q-17.7 10.15 -18.05 10.6 -20.35 13.15 -20.45 16.8 -20.55 18.55 -19.55 19.9 -18.65 21.2 -17.5 21.9 L-19.45 41.5 -19.6 41.7 Q-22.05 45.6 -17.6 47.85 -14.2 49.6 -10.15 50.2 L-4.45 50.6 Q-3.25 50.55 -2.6 49.75 L-4.55 65.45 -4.55 65.5 -24.45 52.35 -20.15 5.4 M1.0 -9.65 L0.9 -8.85 Q3.0 -7.55 4.65 -8.35 L4.0 -3.4 Q3.05 -4.7 1.05 -5.35 L0.5 -5.25 0.45 -4.9 1.0 -9.65" fill="#9d806a" fill-rule="evenodd" stroke="none"/>
    <path d="M9.25 -46.25 L9.35 -46.25 4.65 -8.35 9.35 -46.25 15.05 -46.95 0.8 65.5 -4.55 65.45 -2.6 49.75 4.0 -3.4 4.65 -8.35 Q3.0 -7.55 0.9 -8.85 L1.0 -9.65 4.7 -41.65 1.75 -42.2 -7.75 -43.9 -11.15 -44.55 -16.55 4.0 -11.15 -44.55 -7.75 -43.9 -13.1 9.6 -8.05 11.4 -7.95 11.4 -7.5 11.55 -1.7 13.6 -2.05 16.4 -17.35 11.05 -17.2 9.95 -16.55 4.0 -17.7 5.0 Q-18.9 5.9 -20.15 5.4 L-15.1 -50.2 -15.05 -50.4 -14.15 -51.6 Q-13.7 -52.15 -13.0 -52.25 L-12.45 -52.3 -12.4 -52.3 -12.05 -52.2 -11.65 -52.1 9.25 -46.25 M-17.5 21.9 L-17.45 21.45 -17.2 18.95 -14.5 19.9 -16.05 32.1 -17.0 39.5 -10.9 42.7 -6.2 45.2 -6.7 49.1 -19.5 42.0 -19.45 41.5 -17.5 21.9" fill="#714f35" fill-rule="evenodd" stroke="none"/>
    <path d="M9.35 -46.25 L9.25 -46.25 -11.65 -52.1 -12.05 -52.2 -12.4 -52.3 -14.6 -52.9 -8.45 -54.45 15.05 -46.95 9.35 -46.25 M-1.7 13.6 L0.45 -4.9 0.5 -5.25 1.05 -5.35 Q3.05 -4.7 4.0 -3.4 L-2.6 49.75 Q-3.25 50.55 -4.45 50.6 L-10.15 50.2 Q-14.2 49.6 -17.6 47.85 -22.05 45.6 -19.6 41.7 L-19.45 41.5 -19.5 42.0 -6.7 49.1 -6.2 45.2 -5.1 36.6 -4.1 28.9 -4.15 28.9 -3.5 23.85 -8.65 22.0 -9.7 21.65 -14.5 19.9 -17.2 18.95 -17.45 21.45 -17.5 21.9 Q-18.65 21.2 -19.55 19.9 -20.55 18.55 -20.45 16.8 -20.35 13.15 -18.05 10.6 -17.7 10.15 -17.2 9.95 L-17.35 11.05 -2.05 16.4 -1.7 13.6" fill="#c5b4a5" fill-rule="evenodd" stroke="none"/>
    <path d="M1.75 -42.2 L4.7 -41.65 1.0 -9.65 0.45 -4.9 -1.7 13.6 -7.5 11.55 -6.6 3.45 Q-5.45 -6.75 -3.5 -16.8 L-1.25 -26.9 Q0.35 -33.15 1.35 -39.5 L1.75 -42.2 M-8.65 22.0 L-3.5 23.85 -4.15 28.9 -9.1 26.5 -8.85 24.05 -8.65 22.0 M-5.1 36.6 L-6.2 45.2 -10.9 42.7 -10.7 40.55 -10.1 35.4 -7.4 35.85 -5.4 36.45 -5.1 36.6" fill="#d3d9e0" fill-rule="evenodd" stroke="none"/>
    <path d="M-7.75 -43.9 L1.75 -42.2 1.35 -39.5 Q0.35 -33.15 -1.25 -26.9 L-3.5 -16.8 Q-5.45 -6.75 -6.6 3.45 L-7.5 11.55 -7.95 11.4 -8.05 11.4 -13.1 9.6 -7.75 -43.9 M-9.7 21.65 L-8.65 22.0 -8.85 24.05 -9.1 26.5 -9.25 26.45 -9.4 25.95 Q-9.85 25.0 -9.7 24.05 -9.5 22.7 -9.7 21.65 M-10.1 35.4 L-10.7 40.55 -10.9 42.7 -17.0 39.5 -16.05 32.1 Q-13.6 34.5 -10.1 35.4" fill="#a6b2c0" fill-rule="evenodd" stroke="none"/>
    <path d="M-14.5 19.9 L-9.7 21.65 Q-9.5 22.7 -9.7 24.05 -9.85 25.0 -9.4 25.95 L-9.25 26.45 -9.1 26.5 -4.15 28.9 -4.1 28.9 -5.1 36.6 -4.15 28.9 -5.1 36.6 -5.4 36.45 -7.4 35.85 -10.1 35.4 Q-13.6 34.5 -16.05 32.1 L-14.5 19.9" fill="#8e9eaf" fill-rule="evenodd" stroke="none"/>
    <path d="M9.25 -46.25 L9.35 -46.25 9.25 -46.25 -11.65 -52.1 M-12.05 -52.2 L-12.4 -52.3 -14.6 -52.9 -14.85 -53.0 -15.05 -50.4 M-15.1 -50.2 L-20.15 5.4 -24.45 52.35 -4.55 65.5 -4.55 65.45 0.8 65.5 15.05 -46.95 -8.45 -54.45 -14.6 -52.9 M-16.55 4.0 L-11.15 -44.55 -7.75 -43.9 1.75 -42.2 4.7 -41.65 1.0 -9.65 0.45 -4.9 -1.7 13.6 -2.05 16.4 -17.35 11.05 -17.2 9.95 -16.55 4.0 M4.65 -8.35 L9.35 -46.25 15.05 -46.95 M-7.5 11.55 L-1.7 13.6 M4.65 -8.35 L4.0 -3.4 -2.6 49.75 -4.55 65.45 M-7.95 11.4 L-8.05 11.4 -13.1 9.6 -7.75 -43.9 M-17.45 21.45 L-17.2 18.95 -14.5 19.9 -9.7 21.65 -8.65 22.0 -3.5 23.85 -4.15 28.9 -5.1 36.6 -6.2 45.2 -6.7 49.1 -19.5 42.0 -19.45 41.5 -17.5 21.9 M-10.9 42.7 L-6.2 45.2 M-10.9 42.7 L-17.0 39.5 -16.05 32.1 -14.5 19.9" fill="none" stroke="#000000" stroke-linecap="round" stroke-linejoin="round" stroke-width="1.5"/>
    <path d="M-13.45 -4.5 L-12.65 -4.85 -10.6 -5.45 Q-9.85 -5.6 -9.2 -6.1 L-6.5 -7.75 -3.3 -9.3 -3.1 -9.35 -2.9 -9.4 -3.1 -3.35 -3.55 -3.35 -3.85 -3.3 -4.9 -2.55 Q-5.8 -1.5 -6.8 -1.1 L-8.15 0.05 -8.6 0.45 -11.2 1.5 Q-12.0 1.85 -12.8 2.5 L-13.05 2.75 -13.45 3.0 -13.45 -4.5" fill="#de7142" fill-rule="evenodd" stroke="none"/>
    <path d="M-2.9 -9.4 L-3.1 -9.35 -3.3 -9.3 -6.5 -7.75 -9.2 -6.1 Q-9.85 -5.6 -10.6 -5.45 L-12.65 -4.85 -13.45 -4.5 -13.45 -6.4 -10.75 -8.15 Q-8.7 -9.35 -6.75 -9.95 L-2.85 -10.7 -2.9 -9.4 M-13.45 3.0 L-13.05 2.75 -12.8 2.5 Q-12.0 1.85 -11.2 1.5 L-8.6 0.45 -8.15 0.05 -6.8 -1.1 Q-5.8 -1.5 -4.9 -2.55 L-3.85 -3.3 -3.55 -3.35 -3.1 -3.35 -3.2 0.05 Q-8.4 1.6 -13.45 6.5 L-13.45 3.0" fill="#ea4b11" fill-rule="evenodd" stroke="none"/>
    <path d="M-2.9 -9.4 L-2.85 -10.7 -6.75 -9.95 Q-8.7 -9.35 -10.75 -8.15 L-13.45 -6.4 -13.45 -4.5 -13.45 3.0 -13.45 6.5 Q-8.4 1.6 -3.2 0.05 L-3.1 -3.35 -2.9 -9.4 M-10.75 -8.15 L-8.85 -17.1 M-6.75 -9.95 L-6.75 -18.2" fill="none" stroke="#000000" stroke-linecap="round" stroke-linejoin="round" stroke-width="1.5"/>
    <path d="M-7.45 -5.8 L-6.6 -4.15 Q-5.95 -2.6 -6.65 -1.25 L-7.05 -0.8 Q-7.7 -0.35 -7.7 -1.55 L-7.55 -1.9 -7.05 -2.35 -6.9 -2.65 -6.9 -2.7 -6.9 -2.8 Q-7.25 -4.1 -7.9 -5.0 L-8.05 -5.5 Q-8.1 -6.8 -7.4 -6.95 -6.85 -7.15 -6.6 -6.4 L-6.6 -6.35 Q-6.8 -5.7 -7.25 -5.8 L-7.45 -5.8 M-9.0 -4.3 Q-9.2 -3.15 -8.95 -1.95 L-8.95 -1.9 -8.75 -1.55 Q-8.55 -2.85 -8.8 -4.05 L-8.8 -4.1 -9.0 -4.3 M-7.95 -3.3 Q-7.9 -1.65 -8.4 -0.45 -8.6 0.1 -8.95 -0.2 -9.4 -0.6 -9.5 -1.5 L-9.65 -3.75 -9.6 -4.65 Q-9.4 -5.55 -8.9 -5.75 -8.0 -5.1 -7.95 -3.3 M-5.0 -6.65 L-5.05 -6.7 -5.05 -6.8 -5.05 -6.85 -5.0 -6.95 -4.75 -7.3 -4.5 -7.4 Q-3.55 -6.9 -3.55 -4.85 L-3.6 -3.95 Q-3.65 -2.65 -4.3 -2.05 -4.5 -1.85 -4.65 -1.95 L-4.7 -1.95 -4.85 -2.15 -4.9 -2.5 -4.95 -2.3 Q-5.25 -1.3 -5.75 -1.45 L-5.9 -1.7 Q-6.45 -3.7 -6.35 -6.0 L-6.15 -6.75 -6.05 -6.85 -5.9 -6.65 -5.55 -6.85 Q-5.0 -6.75 -5.3 -5.95 L-5.4 -5.8 -5.75 -5.55 -5.75 -5.45 -5.75 -5.15 -5.4 -5.35 Q-4.9 -4.9 -5.35 -4.15 L-5.7 -3.8 -5.55 -3.0 Q-5.15 -3.75 -4.95 -2.85 L-4.9 -3.35 -4.9 -4.6 -4.95 -5.2 -4.95 -6.5 -5.0 -6.65 M-4.4 -6.2 L-4.3 -3.65 -4.15 -4.05 Q-4.1 -4.8 -4.2 -5.55 L-4.4 -6.2 M-10.4 -3.55 L-10.4 -0.55 Q-9.95 -0.9 -9.6 -0.45 L-9.5 -0.05 Q-9.55 0.8 -10.05 0.8 L-10.2 0.85 Q-10.6 1.85 -10.9 0.65 L-11.05 -0.55 -11.05 -4.75 -10.8 -5.25 Q-10.4 -4.7 -10.4 -3.55 M-12.1 -1.95 L-11.9 0.1 Q-11.2 -0.1 -11.2 1.0 -11.2 1.25 -11.35 1.35 -12.1 2.15 -12.5 0.7 L-12.8 -1.35 -12.85 -1.9 Q-12.85 -3.4 -12.4 -4.55 L-11.8 -5.2 Q-11.3 -5.05 -11.55 -4.25 L-11.65 -4.05 Q-12.15 -3.25 -12.1 -1.95" fill="#000000" fill-rule="evenodd" stroke="none"/>
    <path d="M-10.35 -42.2 L-10.45 -41.65 -6.45 -40.85 -5.9 -40.8 -4.25 -40.7 4.2 -39.45 4.3 -39.4 4.65 -42.05 -10.15 -43.25 -10.35 -42.2 M4.05 -37.6 L-10.65 -39.35 -11.05 -37.05 -10.25 -37.0 -9.65 -36.95 -6.55 -36.45 -4.95 -36.35 -1.8 -36.5 3.15 -36.1 Q3.35 -36.1 3.55 -36.45 L3.55 -36.55 3.95 -36.55 4.05 -37.6 M3.65 -34.25 L-10.85 -35.95 -11.05 -35.0 -10.65 -34.45 Q-8.4 -33.35 -5.9 -33.25 L-4.5 -33.25 -2.1 -33.2 1.25 -32.65 3.4 -32.75 3.65 -34.25 M-12.1 -27.85 L-11.95 -28.75 -7.9 -28.2 -5.6 -28.05 -2.45 -27.85 -0.85 -27.85 Q1.05 -28.05 2.6 -26.9 L2.6 -26.85 2.85 -28.6 2.75 -28.6 -12.2 -30.5 -12.7 -28.15 -12.8 -28.0 -12.1 -27.85 -12.45 -26.05 -9.35 -25.55 -8.3 -25.45 -6.8 -25.4 -6.15 -25.35 -2.65 -24.9 1.05 -24.2 1.25 -24.1 2.15 -23.8 2.45 -25.45 -12.1 -27.85 M-12.65 -25.05 L-12.95 -25.15 -12.95 -25.1 -13.3 -22.6 -12.7 -22.45 -12.45 -23.95 -10.7 -23.85 Q-8.1 -23.85 -6.0 -22.2 L-5.35 -21.9 -3.35 -21.3 -3.05 -21.25 1.75 -20.4 2.1 -23.05 2.0 -23.05 -12.25 -25.0 -12.65 -25.05 M-12.9 -21.6 L-13.3 -19.2 -5.9 -17.4 -5.4 -17.25 -5.25 -17.2 -2.05 -16.6 -1.5 -16.6 0.5 -16.9 1.35 -17.0 1.55 -18.8 -8.85 -21.5 -9.15 -21.55 -9.4 -21.6 -12.8 -22.0 -12.9 -21.6 M3.2 -30.8 L3.2 -31.25 -10.85 -33.5 -11.1 -33.55 -11.7 -33.6 -11.95 -33.65 -12.55 -31.3 -11.25 -31.35 -7.9 -31.1 -0.3 -29.8 1.75 -29.65 Q2.55 -29.65 3.1 -30.3 L3.2 -30.8" fill="#a3693c" fill-rule="evenodd" stroke="none"/>
    <path d="M4.3 -39.4 L4.2 -39.45 -4.25 -40.7 -5.9 -40.8 -6.45 -40.85 -10.45 -41.65 -10.35 -42.2 -11.0 -39.4 -10.65 -39.35 4.05 -37.6 4.3 -39.4 M3.95 -36.55 L3.55 -36.55 3.55 -36.45 Q3.35 -36.1 3.15 -36.1 L-1.8 -36.5 -4.95 -36.35 -6.55 -36.45 -9.65 -36.95 -10.25 -37.0 -11.05 -37.05 -11.25 -36.0 -10.85 -35.95 3.65 -34.25 3.95 -36.55 M3.4 -32.75 L1.25 -32.65 -2.1 -33.2 -4.5 -33.25 -5.9 -33.25 Q-8.4 -33.35 -10.65 -34.45 L-11.05 -35.0 -11.3 -33.6 -11.4 -33.6 -11.7 -33.6 -11.1 -33.55 -10.85 -33.5 3.2 -31.25 3.4 -32.75 M2.6 -26.85 L2.6 -26.9 Q1.05 -28.05 -0.85 -27.85 L-2.45 -27.85 -5.6 -28.05 -7.9 -28.2 -11.95 -28.75 -12.1 -27.85 2.45 -25.45 2.6 -26.85 M-12.2 -30.5 L2.75 -28.6 3.2 -30.8 3.1 -30.3 Q2.55 -29.65 1.75 -29.65 L-0.3 -29.8 -7.9 -31.1 -11.25 -31.35 -12.55 -31.3 -12.7 -30.6 -12.2 -30.5 M-12.45 -26.05 L-12.65 -25.05 -12.25 -25.0 2.0 -23.05 2.15 -23.8 1.25 -24.1 1.05 -24.2 -2.65 -24.9 -6.15 -25.35 -6.8 -25.4 -8.3 -25.45 -9.35 -25.55 -12.45 -26.05 M-12.7 -22.45 L-12.9 -21.6 -12.8 -22.0 -9.4 -21.6 -9.15 -21.55 -12.7 -22.45 -9.15 -21.55 -8.85 -21.5 1.55 -18.8 1.75 -20.4 -3.05 -21.25 -3.35 -21.3 -5.35 -21.9 -6.0 -22.2 Q-8.1 -23.85 -10.7 -23.85 L-12.45 -23.95 -12.7 -22.45 M-13.3 -19.2 L-13.6 -17.25 1.15 -15.85 1.35 -17.0 0.5 -16.9 -1.5 -16.6 -2.05 -16.6 -5.25 -17.2 -5.4 -17.25 -5.9 -17.4 -13.3 -19.2 M-11.1 -33.55 L-11.3 -33.6 -11.1 -33.55" fill="#ddb18d" fill-rule="evenodd" stroke="none"/>
    <path d="M-10.35 -42.2 L-10.15 -43.25 4.65 -42.05 M4.05 -37.6 L-10.65 -39.35 -11.0 -39.35 -11.0 -39.4 -10.35 -42.2 M3.65 -34.25 L-10.85 -35.95 -11.25 -36.0 -11.05 -37.05 -10.65 -39.35 M-12.1 -27.85 L-12.8 -28.0 -12.7 -28.15 -12.2 -30.5 2.75 -28.6 M2.45 -25.45 L-12.1 -27.85 -12.45 -26.05 -12.65 -25.05 -12.95 -25.15 -12.95 -25.1 -13.3 -22.6 -12.7 -22.45 -12.9 -21.6 -13.3 -19.2 -13.6 -17.25 1.15 -15.85 M2.1 -23.05 L2.0 -23.05 -12.25 -25.0 -12.65 -25.05 M-12.55 -31.3 L-11.95 -33.65 -11.7 -33.6 -11.4 -33.6 -10.85 -35.95 M-11.1 -33.55 L-10.85 -33.5 3.2 -31.25 M-11.3 -33.6 L-11.4 -33.6 M-11.3 -33.6 L-11.1 -33.55 M-12.55 -31.3 L-12.7 -30.6 -12.2 -30.5 M-12.7 -22.45 L-9.15 -21.55 M1.55 -18.8 L-8.85 -21.5" fill="none" stroke="#000000" stroke-linecap="round" stroke-linejoin="round" stroke-width="1.5"/>
    <path d="M-16.1 -33.15 L-17.45 -18.35 -20.05 -18.35 -18.75 -33.15 -16.1 -33.15" fill="#6e6660" fill-rule="evenodd" stroke="none"/>
    <path d="M-23.85 32.1 L-20.75 32.1 -22.4 45.65 -24.9 45.65 -23.85 32.1" fill="#c8c2c0" fill-rule="evenodd" stroke="none"/>
    <path d="M-16.1 -33.15 L-17.45 -18.35 -20.05 -18.35 -18.75 -33.15 -16.1 -33.15 M-23.85 32.1 L-20.75 32.1 -22.4 45.65 -24.9 45.65 -23.85 32.1 Z" fill="none" stroke="#000000" stroke-linecap="round" stroke-linejoin="round" stroke-width="1.5"/>
    <path d="M-8.8 9.95 L-8.65 9.65 -4.9 11.05 -5.15 13.1 -5.65 16.65 -5.65 16.55 Q-6.5 15.45 -8.55 14.95 L-9.2 15.1 -9.05 13.1 -8.8 9.95" fill="#000000" fill-rule="evenodd" stroke="none"/>
    <path d="M-8.65 9.65 L-8.8 9.95 -9.05 13.1 -11.55 13.15 -11.45 12.0 -11.35 11.2 -10.95 6.05 -2.05 8.6 -2.6 13.1 -5.15 13.1 -4.9 11.05 -8.65 9.65" fill="#b7b2b1" fill-rule="evenodd" stroke="none"/>
    <path d="M-9.2 15.1 L-8.55 14.95 Q-6.5 15.45 -5.65 16.55 L-5.65 16.65 -6.7 24.55 -9.9 23.5 -9.2 15.1" fill="#7f7271" fill-rule="evenodd" stroke="none"/>
    <path d="M-9.05 13.1 L-9.2 15.1 -9.9 23.5 -6.7 24.55 -5.65 16.65 -5.15 13.1 -2.6 13.1 -4.85 30.25 -12.75 27.1 -11.55 13.15 -9.05 13.1" fill="#5a5154" fill-rule="evenodd" stroke="none"/>
    <path d="M-8.8 9.95 L-9.05 13.1 -9.2 15.1 -9.9 23.5 -6.7 24.55 -5.65 16.65 -5.15 13.1 -4.9 11.05 -8.65 9.65 M-11.35 11.2 L-10.95 6.05 -2.05 8.6 -2.6 13.1 -4.85 30.25 -12.75 27.1 -11.55 13.15 -11.45 12.0" fill="none" stroke="#000000" stroke-linecap="round" stroke-linejoin="round" stroke-width="1.5"/>
  </g>
</svg>
