<?xml version="1.0" encoding="UTF-8" standalone="no"?>
<svg xmlns:ffdec="https://www.free-decompiler.com/flash" xmlns:xlink="http://www.w3.org/1999/xlink" ffdec:objectType="shape" height="56.0px" width="49.55px" xmlns="http://www.w3.org/2000/svg">
  <g transform="matrix(1.0, 0.0, 0.0, 1.0, 24.75, 28.0)">
    <path d="M17.15 -11.75 L16.1 -10.9 Q15.95 -10.65 15.55 -10.65 L16.25 -11.25 17.15 -11.75 M-6.2 -17.3 L-6.15 -17.35 -6.15 -17.4 Q-5.45 -15.75 -6.8 -13.85 L-7.95 -12.65 Q-6.15 -14.55 -6.15 -17.25 L-6.15 -17.35 -6.15 -17.25 -6.2 -17.3 M1.8 22.35 L1.9 22.35 1.95 22.4 1.8 22.35 M2.35 22.6 L2.55 22.65 2.7 22.75 3.6 23.25 2.35 22.6" fill="#dbb8af" fill-rule="evenodd" stroke="none"/>
    <path d="M19.95 -16.7 L19.7 -16.05 19.45 -15.45 Q18.6 -13.45 17.15 -11.75 L16.25 -11.25 15.55 -10.65 15.3 -9.45 16.4 -7.9 Q12.25 -9.4 7.9 -10.3 L-0.5 -11.0 -0.7 -10.8 -3.5 -10.2 -3.9 -10.1 -3.55 -10.55 -4.6 -10.4 -4.95 -10.75 Q-7.45 -10.45 -8.1 -12.55 L-7.95 -12.65 -6.8 -13.85 Q-5.45 -15.75 -6.15 -17.4 L-6.15 -17.45 Q-6.5 -20.3 -5.5 -22.75 -5.1 -20.65 -4.05 -18.6 -3.45 -18.2 -2.85 -18.0 L-1.3 -17.75 Q-1.2 -16.95 -0.45 -16.8 L1.2 -16.25 6.4 -16.55 11.65 -17.6 14.85 -17.35 Q17.35 -17.4 19.35 -18.6 L20.05 -17.45 19.95 -16.7 M16.75 -15.15 Q17.0 -13.1 16.25 -11.25 17.0 -13.1 16.75 -15.15 M-20.15 8.45 Q-21.2 4.7 -19.95 1.0 L-19.3 -0.85 Q-16.75 -0.3 -14.6 -1.5 L-13.9 -1.85 -14.0 -1.6 -14.2 -0.85 Q-15.5 1.45 -15.2 3.9 -15.1 5.0 -15.6 6.05 -16.95 8.85 -20.15 8.45 M13.5 -14.75 Q13.95 -12.65 13.25 -10.65 13.95 -12.65 13.5 -14.75" fill="#a0543a" fill-rule="evenodd" stroke="none"/>
    <path d="M-8.25 -5.2 L-6.4 -4.65 -6.1 -4.3 -3.1 -3.55 -0.25 -4.1 2.25 -4.85 Q5.15 -6.0 8.35 -5.25 L9.8 -3.0 9.1 -2.4 Q9.2 -1.5 8.8 -0.95 L7.5 -3.2 7.6 -1.35 7.65 -0.2 5.2 0.3 3.8 8.05 3.8 7.55 3.4 7.95 2.5 7.85 -0.95 1.35 2.5 7.85 3.0 8.75 2.55 8.8 2.15 8.45 2.1 7.6 -0.95 1.35 -1.4 0.45 -1.5 0.3 Q-2.8 -0.3 -4.3 -0.1 L-4.4 -0.3 -4.4 -0.15 Q-6.45 -0.5 -8.05 -2.0 -8.65 -2.55 -9.45 -2.55 L-9.65 -2.45 Q-10.05 -0.9 -12.0 0.2 L-13.4 0.3 -14.45 0.4 -14.2 -0.85 -14.0 -1.6 -10.8 -4.9 -10.1 -5.2 -9.45 -5.55 -8.25 -5.2 M3.85 -2.85 L3.8 7.55 3.85 -2.85" fill="#f0cda9" fill-rule="evenodd" stroke="none"/>
    <path d="M16.4 -7.9 Q17.4 -6.3 18.85 -5.15 L20.1 -4.2 21.3 2.65 18.85 5.7 Q18.2 5.8 17.6 6.05 L16.6 6.8 15.4 2.85 Q15.75 -2.45 11.55 -5.85 L9.65 -7.7 Q8.5 -9.05 6.9 -9.75 3.25 -11.4 -0.7 -10.8 L-0.5 -11.0 7.9 -10.3 Q12.25 -9.4 16.4 -7.9 M17.45 21.0 Q17.3 22.35 16.7 23.7 16.25 24.65 15.25 24.8 L9.15 25.9 4.15 23.55 3.6 23.25 2.7 22.75 2.55 22.65 2.35 22.6 1.95 22.4 1.9 22.35 1.8 22.35 Q-1.0 22.45 -3.4 21.6 L-4.4 21.15 -6.95 19.65 -7.15 19.15 -9.7 17.85 -12.55 17.2 -13.9 16.9 Q-14.5 16.6 -14.5 16.15 L-15.25 14.6 -16.55 13.75 Q-17.35 11.0 -20.05 10.45 L-19.5 9.95 -20.15 8.45 Q-16.95 8.85 -15.6 6.05 -15.1 5.0 -15.2 3.9 -15.5 1.45 -14.2 -0.85 L-14.45 0.4 Q-14.65 2.15 -14.15 3.9 -12.9 8.6 -10.7 12.4 -10.0 13.55 -8.6 14.35 -6.1 15.8 -3.2 16.6 L-1.9 16.9 0.15 16.75 Q4.3 20.2 9.5 21.4 L9.75 21.25 9.5 21.4 13.2 22.0 17.45 21.0 M-16.0 9.85 L-15.85 12.65 -15.25 14.6 -15.85 12.65 -16.0 9.85 M-0.45 21.7 L1.8 22.35 -0.45 21.7" fill="#73533b" fill-rule="evenodd" stroke="none"/>
    <path d="M6.6 -7.15 Q6.05 -6.9 5.6 -7.3 2.6 -6.35 -0.6 -6.7 -1.85 -6.85 -2.7 -7.7 L-4.05 -9.15 -4.05 -9.45 -4.0 -9.8 -3.65 -9.9 -3.5 -10.2 -0.7 -10.8 Q3.25 -11.4 6.9 -9.75 8.5 -9.05 9.65 -7.7 L11.55 -5.85 Q15.75 -2.45 15.4 2.85 L15.3 3.45 15.25 3.75 14.25 6.35 14.1 6.65 13.8 7.15 Q13.85 3.95 11.95 1.55 L9.8 -3.0 8.35 -5.25 6.6 -7.15 6.75 -7.2 6.6 -7.15 M-4.05 -9.85 L-5.55 -8.25 -5.6 -8.15 Q-5.85 -5.5 -8.25 -5.3 L-8.55 -5.9 -8.85 -6.25 -8.5 -7.5 -7.85 -8.3 -6.5 -9.2 -3.9 -10.1 -4.05 -9.85" fill="#fefbfd" fill-rule="evenodd" stroke="none"/>
    <path d="M-4.0 -9.8 L-4.05 -9.45 -4.05 -9.15 -2.7 -7.7 Q-1.85 -6.85 -0.6 -6.7 2.6 -6.35 5.6 -7.3 6.05 -6.9 6.6 -7.15 L8.35 -5.25 Q5.15 -6.0 2.25 -4.85 L-0.25 -4.1 -3.1 -3.55 -6.1 -4.3 -6.4 -4.65 -8.25 -5.2 -8.25 -5.3 Q-5.85 -5.5 -5.6 -8.15 L-5.55 -8.25 -4.05 -9.85 -4.0 -9.8" fill="#cab57f" fill-rule="evenodd" stroke="none"/>
    <path d="M-4.6 -10.4 L-3.55 -10.55 -3.9 -10.1 -6.5 -9.2 Q-5.75 -10.15 -4.6 -10.4" fill="#ddddc0" fill-rule="evenodd" stroke="none"/>
    <path d="M7.65 -0.2 L7.6 -1.35 7.5 -3.2 8.8 -0.95 Q9.2 -1.5 9.1 -2.4 L9.8 -3.0 11.95 1.55 Q13.85 3.95 13.8 7.15 L13.85 7.15 7.05 15.75 5.85 16.2 0.15 16.75 -1.9 16.9 -3.2 16.6 Q-6.1 15.8 -8.6 14.35 -10.0 13.55 -10.7 12.4 -12.9 8.6 -14.15 3.9 -14.65 2.15 -14.45 0.4 L-13.4 0.3 -12.0 0.2 Q-10.05 -0.9 -9.65 -2.45 L-9.45 -2.55 Q-8.65 -2.55 -8.05 -2.0 -6.45 -0.5 -4.4 -0.15 L-4.4 -0.1 -4.3 -0.1 Q-2.8 -0.3 -1.5 0.3 L-1.4 0.45 -0.95 1.35 2.1 7.6 2.15 8.45 2.55 8.8 3.0 8.75 3.8 10.0 3.8 8.05 5.2 0.3 7.65 -0.2 7.85 4.25 7.65 -0.2 M-4.4 -0.1 L-4.3 10.0 -1.8 7.7 -4.3 -0.1 -1.8 7.7 -0.05 11.1 -1.8 7.7 -4.3 10.0 -4.4 -0.1 M-9.8 0.1 Q-6.1 4.4 -6.75 10.1 L-7.7 10.85 -8.3 10.85 -7.7 10.85 -6.75 10.1 Q-6.1 4.4 -9.8 0.1 M11.85 4.9 L10.6 2.4 8.8 -0.95 10.6 2.4 11.85 4.9 M7.85 4.25 L7.75 4.35 7.85 4.45 8.7 3.8 7.85 4.25 M7.75 8.15 L7.85 4.45 7.75 8.15 M10.6 2.4 L8.7 3.8 10.6 2.4" fill="#cd955d" fill-rule="evenodd" stroke="none"/>
    <path d="M21.3 2.65 L21.25 4.4 21.15 5.45 Q20.5 10.55 17.35 14.55 L16.55 15.5 Q17.65 18.15 17.45 21.0 L13.2 22.0 9.5 21.4 Q4.3 20.2 0.15 16.75 L5.85 16.2 7.05 15.75 13.85 7.15 14.1 6.65 14.25 6.35 15.25 3.75 15.3 3.45 15.4 2.85 16.6 6.8 17.6 6.05 Q18.2 5.8 18.85 5.7 L21.3 2.65 M9.75 21.25 L9.5 21.4 9.75 21.25 9.85 21.2 11.05 20.6 13.75 20.45 11.05 20.6 9.85 21.2 9.75 21.25" fill="#514c40" fill-rule="evenodd" stroke="none"/>
    <path d="M17.15 -11.75 Q18.6 -13.45 19.45 -15.45 L19.7 -16.05 19.95 -16.7 20.05 -17.45 19.35 -18.6 Q17.35 -17.4 14.85 -17.35 L11.65 -17.6 6.4 -16.55 1.2 -16.25 -0.45 -16.8 Q-1.2 -16.95 -1.3 -17.75 L-2.85 -18.0 -2.3 -20.65 -2.85 -18.0 Q-3.45 -18.2 -4.05 -18.6 -5.1 -20.65 -5.5 -22.75 L-4.85 -24.05 -4.7 -24.3 Q-1.25 -29.9 2.95 -24.5 L5.65 -24.55 Q12.35 -24.55 17.6 -20.9 L22.15 -22.6 22.95 -22.25 Q24.45 -18.15 23.7 -13.75 22.95 -9.35 20.75 -5.3 L20.4 -4.65 20.1 -4.2 18.85 -5.15 Q17.4 -6.3 16.4 -7.9 L15.3 -9.45 15.55 -10.65 Q15.95 -10.65 16.1 -10.9 L17.15 -11.75 M-0.8 -24.0 L2.95 -24.5 -0.8 -24.0 M9.15 25.9 L7.05 26.3 3.45 27.1 1.55 26.95 Q-3.0 25.35 -7.05 23.15 -12.25 20.4 -17.8 18.25 -22.35 16.4 -23.9 11.7 -22.0 11.55 -20.25 10.55 L-20.05 10.45 Q-17.35 11.0 -16.55 13.75 L-15.65 15.15 -14.5 16.15 Q-14.5 16.6 -13.9 16.9 L-12.55 17.2 -9.7 17.85 -7.15 19.15 -6.95 19.65 -4.4 21.15 -3.4 21.6 Q-1.0 22.45 1.8 22.35 L1.95 22.4 2.35 22.6 3.6 23.25 4.15 23.55 9.15 25.9 M-19.3 -0.85 Q-17.35 -5.85 -14.65 -10.5 -13.25 -12.95 -11.15 -14.6 -8.8 -16.35 -6.2 -17.3 L-6.15 -17.25 Q-6.15 -14.55 -7.95 -12.65 L-8.1 -12.55 Q-7.45 -10.45 -4.95 -10.75 L-4.6 -10.4 Q-5.75 -10.15 -6.5 -9.2 L-9.5 -7.65 -9.45 -5.55 -10.1 -5.2 -10.8 -4.9 -13.15 -3.15 -13.9 -1.85 -14.6 -1.5 Q-16.75 -0.3 -19.3 -0.85 M-7.65 19.85 L-9.7 17.85 -7.65 19.85" fill="#dda793" fill-rule="evenodd" stroke="none"/>
    <path d="M19.95 -16.7 L19.7 -16.05 19.45 -15.45 Q18.6 -13.45 17.15 -11.75 L16.1 -10.9 Q15.95 -10.65 15.55 -10.65 M20.1 -4.2 L20.4 -4.65 20.75 -5.3 Q22.95 -9.35 23.7 -13.75 24.45 -18.15 22.95 -22.25 L22.15 -22.6 17.6 -20.9 Q12.35 -24.55 5.65 -24.55 L2.95 -24.5 -0.8 -24.0 M15.4 2.85 Q15.75 -2.45 11.55 -5.85 L9.65 -7.7 Q8.5 -9.05 6.9 -9.75 3.25 -11.4 -0.7 -10.8 L-3.5 -10.2 -3.9 -10.1 -6.5 -9.2 -9.5 -7.65 -9.45 -5.55 -10.1 -5.2 -10.8 -4.9 -13.15 -3.15 -13.9 -1.85 -14.0 -1.6 -14.2 -0.85 -14.45 0.4 Q-14.65 2.15 -14.15 3.9 -12.9 8.6 -10.7 12.4 -10.0 13.55 -8.6 14.35 -6.1 15.8 -3.2 16.6 L-1.9 16.9 0.15 16.75 5.85 16.2 7.05 15.75 13.85 7.15 14.1 6.65 14.25 6.35 15.25 3.75 15.3 3.45 15.4 2.85 M7.65 -0.2 L7.6 -1.35 7.5 -3.2 8.8 -0.95 10.6 2.4 11.85 4.9 M17.15 -11.75 L16.25 -11.25 Q17.0 -13.1 16.75 -15.15 M20.1 -4.2 L21.3 2.65 21.25 4.4 21.15 5.45 Q20.5 10.55 17.35 14.55 L16.55 15.5 Q17.65 18.15 17.45 21.0 17.3 22.35 16.7 23.7 16.25 24.65 15.25 24.8 L9.15 25.9 7.05 26.3 3.45 27.1 1.55 26.95 Q-3.0 25.35 -7.05 23.15 -12.25 20.4 -17.8 18.25 -22.35 16.4 -23.9 11.7 -22.0 11.55 -20.25 10.55 L-20.05 10.45 -19.5 9.95 -20.15 8.45 Q-21.2 4.7 -19.95 1.0 L-19.3 -0.85 Q-17.35 -5.85 -14.65 -10.5 -13.25 -12.95 -11.15 -14.6 -8.8 -16.35 -6.2 -17.3 L-6.15 -17.35 -6.15 -17.4 -6.15 -17.45 Q-6.5 -20.3 -5.5 -22.75 L-4.85 -24.05 -4.7 -24.3 Q-1.25 -29.9 2.95 -24.5 M13.25 -10.65 Q13.95 -12.65 13.5 -14.75 M-6.15 -17.25 L-6.15 -17.35 M-6.15 -17.25 Q-6.15 -14.55 -7.95 -12.65 M-2.85 -18.0 L-2.3 -20.65 M-4.4 -0.15 L-4.4 -0.3 -4.3 -0.1 -1.8 7.7 -0.05 11.1 M-1.4 0.45 L-0.95 1.35 2.5 7.85 3.0 8.75 3.8 10.0 3.8 8.05 3.8 7.55 3.85 -2.85 M-4.4 -0.1 L-4.4 -0.15 M-8.3 10.85 L-7.7 10.85 -6.75 10.1 Q-6.1 4.4 -9.8 0.1 M-1.8 7.7 L-4.3 10.0 -4.4 -0.1 M-16.55 13.75 L-15.25 14.6 -15.85 12.65 -16.0 9.85 M-12.55 17.2 L-9.7 17.85 -7.65 19.85 M-4.4 21.15 L-3.4 21.6 M1.8 22.35 L-0.45 21.7 M-15.25 14.6 L-14.5 16.15 M9.75 21.25 L9.85 21.2 11.05 20.6 13.75 20.45 M7.85 4.45 L7.85 4.25 7.75 4.35 7.85 4.45 8.7 3.8 7.85 4.25 7.65 -0.2 M7.85 4.45 L7.75 8.15 M1.8 22.35 L1.95 22.4 2.35 22.6 3.6 23.25 4.15 23.55 M9.5 21.4 L9.75 21.25 M8.7 3.8 L10.6 2.4" fill="none" stroke="#000000" stroke-linecap="round" stroke-linejoin="round" stroke-width="1.75"/>
  </g>
</svg>
