<?xml version="1.0" encoding="UTF-8" standalone="no"?>
<svg xmlns:ffdec="https://www.free-decompiler.com/flash" xmlns:xlink="http://www.w3.org/1999/xlink" ffdec:objectType="shape" height="59.6px" width="56.95px" xmlns="http://www.w3.org/2000/svg">
  <g transform="matrix(1.0, 0.0, 0.0, 1.0, 25.25, 26.95)">
    <path d="M9.9 -14.6 L9.95 -14.8 10.2 -14.95 10.45 -15.05 10.45 -15.1 Q10.9 -14.9 11.3 -14.65 L10.7 -14.15 9.9 -14.6 M-12.15 16.75 L-12.0 16.8 -8.5 18.05 -10.0 17.9 -10.95 17.45 -11.1 17.35 -11.95 16.85 -12.1 16.8 -12.15 16.75 M-3.3 -18.35 L-3.05 -18.4 -3.15 -18.35 Q-2.95 -17.65 -3.0 -16.6 -3.0 -16.25 -3.3 -16.0 L-3.55 -15.9 Q-3.9 -17.05 -3.3 -18.35" fill="#dbb8af" fill-rule="evenodd" stroke="none"/>
    <path d="M25.9 4.9 L26.15 6.5 25.85 4.9 25.9 4.9 M16.95 18.85 L16.95 18.9 17.25 19.4 14.85 19.35 15.35 19.25 16.95 18.85 M-20.75 10.1 L-22.25 7.75 Q-23.7 5.2 -23.65 2.35 L-23.6 1.45 Q-20.55 1.85 -17.95 0.55 L-17.55 1.65 -17.25 3.35 Q-17.65 7.3 -18.9 11.05 L-19.1 10.95 Q-19.95 10.55 -20.75 10.1 M-3.3 -26.1 L-0.1 -21.8 Q1.0 -20.15 1.45 -17.1 -0.65 -17.4 -2.05 -18.55 L-3.3 -18.35 Q-3.0 -19.1 -3.35 -19.9 L-3.95 -21.8 -3.95 -21.85 Q-4.5 -23.85 -3.8 -25.75 L-3.3 -26.1 M10.15 -13.7 L12.0 -11.7 Q12.25 -11.55 12.45 -11.5 L13.1 -11.55 13.25 -11.4 13.35 -11.2 13.45 -10.95 13.75 -10.5 13.95 -10.2 Q14.8 -9.25 15.25 -8.05 16.1 -5.8 16.3 -3.35 L16.85 -2.45 16.95 -2.2 15.85 -2.55 Q13.4 -3.35 11.0 -4.45 9.65 -6.05 7.5 -6.4 4.4 -6.35 1.6 -4.95 L2.25 -8.1 Q2.35 -8.6 2.7 -8.9 L8.35 -12.5 10.15 -13.7 M17.8 -0.8 L18.1 -0.4 17.3 -0.95 17.8 -0.8 M-0.85 -1.0 L-1.6 -1.4 -5.3 -3.45 -7.8 -2.75 Q-9.55 -2.8 -10.75 -4.1 -11.1 -4.5 -11.6 -4.65 L-12.95 -4.75 Q-11.2 -10.55 -14.75 -15.45 L-14.8 -15.65 -14.9 -15.85 -14.9 -15.95 -15.0 -16.05 -15.1 -16.2 -13.8 -16.25 -13.05 -16.1 Q-9.75 -14.2 -6.05 -14.0 -4.9 -14.7 -4.0 -15.75 L-3.8 -15.8 -3.55 -15.9 -3.55 -15.85 -2.1 -11.15 Q-1.45 -9.25 -1.25 -7.2 L-0.9 -3.05 -0.85 -1.0 M-15.9 8.0 L-15.95 8.0 -15.95 7.85 -15.9 8.0" fill="#a0543a" fill-rule="evenodd" stroke="none"/>
    <path d="M1.6 -4.95 Q4.4 -6.35 7.5 -6.4 9.65 -6.05 11.0 -4.45 L11.4 -3.85 12.3 -2.5 14.25 0.65 15.9 3.6 16.1 4.05 16.35 4.8 16.3 5.65 15.7 5.85 Q13.05 5.2 11.4 2.5 L10.85 1.7 Q8.55 -0.95 5.5 -2.15 L5.65 -2.05 5.65 -2.0 5.55 -1.9 2.1 -1.7 1.55 -1.75 1.7 -2.45 1.75 -3.2 1.6 -4.95 M-1.6 -1.4 Q-1.95 -0.3 -3.0 0.9 -5.65 3.85 -9.6 2.05 L-12.65 0.5 -16.3 -1.7 -15.65 -2.75 -14.8 -4.95 -13.7 -4.85 -12.95 -4.75 -11.6 -4.65 Q-11.1 -4.5 -10.75 -4.1 -9.55 -2.8 -7.8 -2.75 L-5.3 -3.45 -1.6 -1.4" fill="#fefbfd" fill-rule="evenodd" stroke="none"/>
    <path d="M25.5 1.0 L25.9 4.9 25.85 4.9 26.15 6.5 Q21.3 4.8 16.35 4.8 L16.1 4.05 15.9 3.6 14.25 0.65 12.3 -2.5 11.4 -3.85 11.0 -4.45 Q13.4 -3.35 15.85 -2.55 L16.95 -2.2 17.65 -1.0 17.8 -0.8 17.3 -0.95 18.1 -0.4 Q19.3 0.25 20.85 0.45 L22.15 0.6 22.95 1.3 25.5 1.0 M17.95 19.65 L19.9 20.85 20.6 21.45 Q21.55 22.45 20.95 23.85 L20.3 24.2 22.6 25.75 Q23.5 26.5 23.25 27.35 L13.7 28.5 9.35 28.6 Q10.15 25.8 13.1 25.6 L13.7 25.55 13.9 25.55 14.3 25.95 14.85 25.35 Q15.75 24.4 16.75 24.05 L12.3 22.95 9.45 23.0 6.1 23.5 5.55 23.45 Q2.95 23.15 0.85 21.1 0.6 20.85 -0.95 20.35 L-2.5 19.85 -7.15 18.45 -8.5 18.05 -12.0 16.8 -12.15 16.75 Q-14.65 15.65 -14.75 14.75 -14.9 13.2 -15.4 12.9 L-16.9 12.0 -17.55 11.7 -18.9 11.05 Q-17.65 7.3 -17.25 3.35 L-17.2 3.55 -17.15 3.75 -16.95 4.55 -16.75 5.3 -15.95 7.85 -15.95 8.0 -15.9 8.0 Q-15.35 9.4 -14.1 10.2 L-8.7 13.25 -6.4 14.3 -0.6 16.45 2.7 16.6 3.05 16.6 5.1 16.05 Q6.7 16.9 8.55 17.2 L8.65 17.25 8.6 17.4 8.55 17.5 8.45 17.6 8.0 17.7 10.85 18.95 11.9 19.2 14.85 19.35 9.45 19.8 8.85 19.65 9.45 19.8 14.85 19.35 17.25 19.4 17.95 19.65 M1.45 -17.1 L3.55 -16.9 Q6.6 -16.4 9.4 -15.35 L9.9 -14.6 10.7 -14.15 10.15 -13.7 8.35 -12.5 2.7 -8.9 Q2.35 -8.6 2.25 -8.1 L1.6 -4.95 1.75 -3.2 1.7 -2.45 1.3 -1.15 -0.2 2.85 -1.5 6.3 -0.85 -1.0 -0.9 -3.05 -1.25 -7.2 Q-1.45 -9.25 -2.1 -11.15 L-3.55 -15.85 -3.55 -15.9 -3.3 -16.0 Q-3.0 -16.25 -3.0 -16.6 -2.95 -17.65 -3.15 -18.35 L-3.05 -18.4 -3.3 -18.35 -2.05 -18.55 Q-0.65 -17.4 1.45 -17.1 M6.35 -14.9 L7.5 -14.05 6.35 -14.9 M4.1 -14.45 L3.8 -14.9 3.5 -15.1 Q1.85 -15.6 0.7 -14.45 1.85 -15.6 3.5 -15.1 L3.8 -14.9 4.1 -14.45 M15.85 -2.55 Q16.45 -1.6 17.3 -0.95 16.45 -1.6 15.85 -2.55 M5.25 21.4 Q4.55 22.45 5.55 23.45 4.55 22.45 5.25 21.4 M20.3 24.2 L16.75 24.05 20.3 24.2 M4.5 29.5 L4.55 31.4 Q2.55 32.15 0.75 31.45 L0.4 30.25 1.1 29.75 Q2.45 28.5 4.0 29.3 L4.5 29.5 M-15.55 22.45 L-14.7 22.7 -13.8 25.15 Q-17.15 25.4 -20.45 24.2 L-16.75 22.75 -15.55 22.45 M-9.4 25.7 L-9.5 25.9 Q-9.95 26.8 -11.2 26.85 L-12.0 26.6 Q-12.7 26.5 -13.0 25.8 L-12.65 25.0 Q-11.15 23.05 -9.7 24.85 L-9.4 25.7" fill="#73533b" fill-rule="evenodd" stroke="none"/>
    <path d="M15.7 5.85 L16.3 5.65 16.25 5.9 16.15 6.25 15.8 7.15 15.4 7.95 15.35 7.95 Q14.5 9.3 13.05 10.3 L10.75 11.95 6.1 15.5 5.1 16.05 3.05 16.6 2.7 16.6 -0.6 16.45 -6.4 14.3 -8.7 13.25 -14.1 10.2 Q-15.35 9.4 -15.9 8.0 L-15.95 7.85 -16.75 5.3 -16.95 4.55 -17.15 3.75 -16.05 3.65 Q-13.55 4.0 -11.4 3.15 L-9.8 2.3 Q-7.95 3.1 -7.75 5.5 L-7.65 6.75 -7.5 6.9 -7.25 7.15 -7.2 7.2 Q-6.35 7.4 -5.75 8.1 L-5.7 8.15 -5.65 8.1 -5.65 7.7 -5.6 7.35 -5.35 6.95 -5.3 6.85 -5.3 6.7 -5.25 6.45 -5.05 6.25 -4.75 6.0 -4.7 6.05 -4.65 6.05 Q-2.85 6.95 -1.85 9.15 L-4.7 6.05 -1.85 9.15 -1.8 9.25 -1.75 9.25 Q0.15 9.65 1.7 8.7 L2.0 8.15 2.45 10.35 2.6 10.1 3.1 9.1 4.1 6.45 4.15 6.4 4.25 6.0 Q4.65 5.75 5.15 5.6 L6.0 4.95 6.4 3.9 Q7.05 3.45 7.7 3.2 L7.8 2.45 8.0 -0.1 8.85 2.9 Q10.75 2.75 12.15 5.1 12.65 5.95 13.5 6.45 L15.7 5.85 M15.35 7.95 L15.8 7.15 15.35 7.95 M10.45 8.8 L9.75 6.2 8.85 2.9 9.75 6.2 10.45 8.8 M7.7 3.2 L7.4 5.1 7.2 6.3 6.95 7.6 6.15 9.8 6.95 7.6 7.2 6.3 7.4 5.1 7.7 3.2 M6.95 7.6 L9.75 6.2 6.95 7.6 M1.0 12.1 L0.1 11.4 -0.15 11.1 -1.75 9.25 -0.15 11.1 0.1 11.4 1.0 12.1 M-9.9 5.05 L-9.95 4.4 -10.3 4.6 -9.9 5.05 -9.85 5.1 Q-8.75 6.25 -8.3 7.65 L-8.15 8.4 -8.2 8.8 -9.4 8.9 -8.2 8.8 -8.15 8.4 -8.3 7.65 Q-8.75 6.25 -9.85 5.1 L-9.9 5.05 M-10.3 4.6 L-11.4 3.15 -10.3 4.6 M-3.85 11.8 L-5.0 9.6 -5.6 7.35 -5.0 9.6 -2.5 9.55 -5.0 9.6 -3.85 11.8" fill="#cd955d" fill-rule="evenodd" stroke="none"/>
    <path d="M1.7 -2.45 L1.55 -1.75 2.1 -1.7 5.55 -1.9 5.65 -2.0 5.65 -2.05 5.5 -2.15 Q8.55 -0.95 10.85 1.7 L11.4 2.5 Q13.05 5.2 15.7 5.85 L13.5 6.45 Q12.65 5.95 12.15 5.1 10.75 2.75 8.85 2.9 L8.0 -0.1 7.8 2.45 7.7 3.2 Q7.05 3.45 6.4 3.9 L6.0 4.95 5.15 5.6 Q4.65 5.75 4.25 6.0 4.9 3.2 5.0 0.3 4.9 3.2 4.25 6.0 L4.15 6.4 4.1 6.45 3.1 9.1 2.6 10.1 2.45 10.35 2.0 8.15 1.7 8.7 Q0.15 9.65 -1.75 9.25 L-1.85 9.15 Q-2.85 6.95 -4.65 6.05 L-4.7 6.05 -7.5 3.1 -6.9 4.15 -5.6 7.35 -5.65 7.7 -5.65 8.1 -5.75 8.1 Q-6.35 7.4 -7.2 7.2 L-7.25 7.15 -7.5 6.9 -7.65 6.75 -7.75 5.5 Q-7.95 3.1 -9.8 2.3 L-11.4 3.15 Q-12.2 2.05 -12.65 0.5 -12.2 2.05 -11.4 3.15 -13.55 4.0 -16.05 3.65 L-17.15 3.75 -17.2 3.55 -17.25 3.35 -17.55 1.65 -17.95 0.55 -18.1 0.3 Q-17.05 -0.6 -16.3 -1.7 L-12.65 0.5 -9.6 2.05 Q-5.65 3.85 -3.0 0.9 -1.95 -0.3 -1.6 -1.4 L-0.85 -1.0 -1.5 6.3 -0.2 2.85 1.3 -1.15 1.7 -2.45 M1.65 6.45 L2.0 8.15 1.65 6.45" fill="#f0cda9" fill-rule="evenodd" stroke="none"/>
    <path d="M26.15 6.5 L26.15 6.55 26.35 7.45 26.8 10.15 26.6 11.75 25.35 15.65 Q25.05 16.45 24.3 16.75 22.1 17.85 19.9 18.25 L16.95 18.85 15.35 19.25 14.85 19.35 11.9 19.2 10.85 18.95 8.0 17.7 8.45 17.6 8.55 17.5 8.6 17.4 8.65 17.25 8.55 17.2 Q6.7 16.9 5.1 16.05 L6.1 15.5 10.75 11.95 13.05 10.3 Q14.5 9.3 15.35 7.95 L15.4 7.95 15.8 7.15 16.15 6.25 16.25 5.9 16.3 5.65 16.35 4.8 Q21.3 4.8 26.15 6.5" fill="#514c40" fill-rule="evenodd" stroke="none"/>
    <path d="M11.3 -14.65 L12.45 -15.75 14.95 -16.4 15.8 -18.8 Q18.55 -16.85 20.05 -14.05 L22.5 -9.7 Q23.95 -7.25 26.0 -5.25 29.3 -2.1 30.85 2.15 L30.25 2.6 28.9 2.4 28.7 2.4 Q26.9 2.1 25.5 1.0 L22.95 1.3 22.15 0.6 20.85 0.45 Q19.3 0.25 18.1 -0.4 L17.8 -0.8 17.65 -1.0 16.95 -2.2 16.85 -2.45 16.3 -3.35 Q16.1 -5.8 15.25 -8.05 14.8 -9.25 13.95 -10.2 L13.75 -10.5 13.45 -10.95 13.35 -11.2 13.25 -11.4 13.1 -11.55 12.45 -11.5 Q12.25 -11.55 12.0 -11.7 L10.15 -13.7 10.7 -14.15 11.3 -14.65 M14.85 25.35 L9.8 25.9 4.85 26.8 2.35 27.15 Q-0.55 26.4 -2.95 25.2 L-7.05 22.85 Q-8.8 21.7 -14.9 19.75 -21.0 17.8 -24.4 12.5 -22.15 12.6 -20.75 10.35 L-19.1 10.95 -18.9 11.05 -17.55 11.7 -16.9 12.0 -15.4 12.9 Q-14.9 13.2 -14.75 14.75 -14.65 15.65 -12.15 16.75 L-12.1 16.8 -11.95 16.85 -11.1 17.35 -10.95 17.45 -10.0 17.9 -8.5 18.05 -7.15 18.45 -2.5 19.85 -0.95 20.35 Q0.6 20.85 0.85 21.1 2.95 23.15 5.55 23.45 L6.1 23.5 9.45 23.0 12.3 22.95 16.75 24.05 Q15.75 24.4 14.85 25.35 M-23.6 1.45 L-23.55 0.65 -22.9 -3.15 Q-22.1 -5.95 -20.45 -8.45 L-17.6 -12.2 -15.9 -14.6 -15.1 -16.2 -14.85 -16.85 Q-15.8 -17.8 -16.8 -18.55 L-16.85 -18.6 -19.4 -20.1 -19.3 -20.55 -18.5 -21.75 Q-17.55 -22.75 -16.25 -22.55 -14.05 -22.35 -12.05 -23.1 L-10.8 -23.75 Q-8.0 -25.2 -5.8 -25.75 L-3.3 -26.1 -3.8 -25.75 Q-4.5 -23.85 -3.95 -21.85 L-3.95 -21.8 -3.35 -19.9 Q-3.0 -19.1 -3.3 -18.35 -3.9 -17.05 -3.55 -15.9 L-3.8 -15.8 -4.0 -15.75 Q-4.9 -14.7 -6.05 -14.0 -9.75 -14.2 -13.05 -16.1 L-13.8 -16.25 -15.1 -16.2 -15.0 -16.05 -14.9 -15.95 -14.9 -15.85 -14.8 -15.65 -14.75 -15.45 Q-11.2 -10.55 -12.95 -4.75 L-13.7 -4.85 -14.8 -4.95 -16.3 -1.7 Q-17.05 -0.6 -18.1 0.3 L-17.95 0.55 Q-20.55 1.85 -23.6 1.45 M-14.05 16.75 L-12.1 16.8 -14.05 16.75" fill="#dda793" fill-rule="evenodd" stroke="none"/>
    <path d="M11.3 -14.65 L12.45 -15.75 14.95 -16.4 15.8 -18.8 Q18.55 -16.85 20.05 -14.05 L22.5 -9.7 Q23.95 -7.25 26.0 -5.25 29.3 -2.1 30.85 2.15 L30.25 2.6 28.9 2.4 28.7 2.4 Q26.9 2.1 25.5 1.0 L25.9 4.9 26.15 6.5 26.15 6.55 26.35 7.45 26.8 10.15 26.6 11.75 25.35 15.65 Q25.05 16.45 24.3 16.75 22.1 17.85 19.9 18.25 L16.95 18.85 15.35 19.25 14.85 19.35 9.45 19.8 8.85 19.65 M16.95 18.9 L17.95 19.65 19.9 20.85 20.6 21.45 Q21.55 22.45 20.95 23.85 L20.3 24.2 22.6 25.75 Q23.5 26.5 23.25 27.35 L13.7 28.5 9.35 28.6 Q10.15 25.8 13.1 25.6 L13.7 25.55 13.9 25.55 14.3 25.95 14.85 25.35 9.8 25.9 4.85 26.8 2.35 27.15 Q-0.55 26.4 -2.95 25.2 L-7.05 22.85 Q-8.8 21.7 -14.9 19.75 -21.0 17.8 -24.4 12.5 -22.15 12.6 -20.75 10.35 L-20.75 10.1 -22.25 7.75 Q-23.7 5.2 -23.65 2.35 L-23.6 1.45 -23.55 0.65 -22.9 -3.15 Q-22.1 -5.95 -20.45 -8.45 L-17.6 -12.2 -15.9 -14.6 -15.1 -16.2 -14.85 -16.85 Q-15.8 -17.8 -16.8 -18.55 L-16.85 -18.6 -19.4 -20.1 -19.3 -20.55 -18.5 -21.75 Q-17.55 -22.75 -16.25 -22.55 -14.05 -22.35 -12.05 -23.1 L-10.8 -23.75 Q-8.0 -25.2 -5.8 -25.75 L-3.3 -26.1 -0.1 -21.8 Q1.0 -20.15 1.45 -17.1 L3.55 -16.9 Q6.6 -16.4 9.4 -15.35 L9.9 -14.6 10.7 -14.15 11.3 -14.65 M10.7 -14.15 L10.15 -13.7 8.35 -12.5 2.7 -8.9 Q2.35 -8.6 2.25 -8.1 L1.6 -4.95 Q4.4 -6.35 7.5 -6.4 9.65 -6.05 11.0 -4.45 L11.4 -3.85 12.3 -2.5 14.25 0.65 15.9 3.6 16.1 4.05 16.35 4.8 16.3 5.65 16.25 5.9 16.15 6.25 15.8 7.15 15.35 7.95 Q14.5 9.3 13.05 10.3 L10.75 11.95 6.1 15.5 5.1 16.05 3.05 16.6 2.7 16.6 -0.6 16.45 -6.4 14.3 -8.7 13.25 -14.1 10.2 Q-15.35 9.4 -15.9 8.0 L-15.95 7.85 -16.75 5.3 -16.95 4.55 -17.15 3.75 -17.2 3.55 M18.1 -0.4 Q19.3 0.25 20.85 0.45 L22.15 0.6 22.95 1.3 25.5 1.0 M0.7 -14.45 Q1.85 -15.6 3.5 -15.1 L3.8 -14.9 4.1 -14.45 M7.5 -14.05 L6.35 -14.9 M1.6 -4.95 L1.75 -3.2 1.7 -2.45 1.3 -1.15 -0.2 2.85 -1.5 6.3 -0.85 -1.0 -1.6 -1.4 -5.3 -3.45 -7.8 -2.75 Q-9.55 -2.8 -10.75 -4.1 -11.1 -4.5 -11.6 -4.65 L-12.95 -4.75 -13.7 -4.85 -14.8 -4.95 -16.3 -1.7 Q-17.05 -0.6 -18.1 0.3 M-12.65 0.5 Q-12.2 2.05 -11.4 3.15 L-10.3 4.6 -9.9 5.05 -9.85 5.1 Q-8.75 6.25 -8.3 7.65 L-8.15 8.4 -8.2 8.8 -9.4 8.9 M-5.6 7.35 L-6.9 4.15 -7.5 3.1 -4.7 6.05 -1.85 9.15 -1.75 9.25 -0.15 11.1 0.1 11.4 1.0 12.1 M2.0 8.15 L1.65 6.45 M17.3 -0.95 Q16.45 -1.6 15.85 -2.55 M17.3 -0.95 L18.1 -0.4 M8.85 2.9 L9.75 6.2 10.45 8.8 M7.7 3.2 L7.8 2.45 8.0 -0.1 8.85 2.9 M6.15 9.8 L6.95 7.6 7.2 6.3 7.4 5.1 7.7 3.2 M5.0 0.3 Q4.9 3.2 4.25 6.0 M4.15 6.4 L4.1 6.45 3.1 9.1 2.6 10.1 2.45 10.35 2.0 8.15 M9.75 6.2 L6.95 7.6 M-18.9 11.05 L-17.55 11.7 -16.9 12.0 M-2.5 19.85 L-0.95 20.35 M5.55 23.45 Q4.55 22.45 5.25 21.4 M16.75 24.05 L20.3 24.2 M5.55 23.45 L6.1 23.5 M17.25 19.4 L16.95 18.9 M17.25 19.4 L17.95 19.65 M4.5 29.5 L4.55 31.4 Q2.55 32.15 0.75 31.45 L0.4 30.25 1.1 29.75 Q2.45 28.5 4.0 29.3 L4.5 29.5 M16.75 24.05 Q15.75 24.4 14.85 25.35 M-3.3 -18.35 Q-3.0 -19.1 -3.35 -19.9 L-3.95 -21.8 -3.95 -21.85 Q-4.5 -23.85 -3.8 -25.75 L-3.3 -26.1 M-3.3 -18.35 Q-3.9 -17.05 -3.55 -15.9 L-3.55 -15.85 -2.1 -11.15 Q-1.45 -9.25 -1.25 -7.2 L-0.9 -3.05 -0.85 -1.0 M1.45 -17.1 Q-0.65 -17.4 -2.05 -18.55 L-3.3 -18.35 M-17.95 0.55 L-17.55 1.65 -17.25 3.35 M-5.6 7.35 L-5.0 9.6 -2.5 9.55 M-5.0 9.6 L-3.85 11.8 M-19.1 10.95 L-18.9 11.05 M-12.1 16.8 L-11.95 16.85 -11.1 17.35 -10.95 17.45 -10.0 17.9 -8.5 18.05 M-12.1 16.8 L-14.05 16.75 M-15.55 22.45 L-14.7 22.7 -13.8 25.15 Q-17.15 25.4 -20.45 24.2 L-16.75 22.75 -15.55 22.45 M-9.4 25.7 L-9.7 24.85 Q-11.15 23.05 -12.65 25.0 L-13.0 25.8 Q-12.7 26.5 -12.0 26.6 L-11.2 26.85 Q-9.95 26.8 -9.5 25.9 L-9.4 25.7 M-19.1 10.95 Q-19.95 10.55 -20.75 10.1" fill="none" stroke="#000000" stroke-linecap="round" stroke-linejoin="round" stroke-width="1.75"/>
  </g>
</svg>
