<?xml version="1.0" encoding="UTF-8" standalone="no"?>
<svg xmlns:ffdec="https://www.free-decompiler.com/flash" xmlns:xlink="http://www.w3.org/1999/xlink" ffdec:objectType="shape" height="59.65px" width="44.8px" xmlns="http://www.w3.org/2000/svg">
  <g transform="matrix(1.0, 0.0, 0.0, 1.0, 22.4, 29.85)">
    <path d="M17.85 -1.0 L17.85 -19.55 20.2 -19.55 21.4 27.4 17.85 28.8 17.85 8.9 17.85 -1.0" fill="#773f2d" fill-rule="evenodd" stroke="none"/>
    <path d="M20.2 -19.55 L17.85 -19.55 17.85 -1.0 16.65 -0.55 Q14.1 0.0 11.7 0.95 6.1 3.1 2.05 7.55 L-2.35 12.0 -5.05 14.95 -5.6 15.75 -6.55 15.45 -7.5 15.15 -7.5 21.85 -21.4 16.9 -17.0 -28.85 20.2 -19.55" fill="#000000" fill-rule="evenodd" stroke="none"/>
    <path d="M-5.05 14.95 L-2.35 12.0 2.05 7.55 Q6.1 3.1 11.7 0.95 14.1 0.0 16.65 -0.55 L17.85 -1.0 17.85 8.9 Q15.25 10.4 12.95 12.3 L10.6 14.3 Q8.25 16.45 6.7 19.3 L6.55 19.55 6.1 19.4 -5.2 15.9 -5.1 15.1 -5.05 14.95" fill="#9f543a" fill-rule="evenodd" stroke="none"/>
    <path d="M-6.55 15.45 L-5.6 15.75 -5.05 14.95 -5.1 15.1 -5.2 15.9 -6.55 15.45 M17.85 8.9 L17.85 28.8 9.5 25.0 9.5 20.45 6.55 19.55 6.7 19.3 Q8.25 16.45 10.6 14.3 L12.95 12.3 Q15.25 10.4 17.85 8.9" fill="#d0653d" fill-rule="evenodd" stroke="none"/>
    <path d="M17.85 -1.0 L17.85 -19.55 20.2 -19.55 -17.0 -28.85 -21.4 16.9 -7.5 21.85 -7.5 15.15 -6.55 15.45 -5.2 15.9 6.1 19.4 M17.85 -1.0 L17.85 8.9 17.85 28.8 21.4 27.4 20.2 -19.55 M6.55 19.55 L9.5 20.45 9.5 25.0 17.85 28.8" fill="none" stroke="#000000" stroke-linecap="round" stroke-linejoin="round" stroke-width="2.0"/>
  </g>
</svg>
