<?xml version="1.0" encoding="UTF-8" standalone="no"?>
<svg xmlns:ffdec="https://www.free-decompiler.com/flash" xmlns:xlink="http://www.w3.org/1999/xlink" ffdec:objectType="shape" height="72.5px" width="65.7px" xmlns="http://www.w3.org/2000/svg">
  <g transform="matrix(1.0, 0.0, 0.0, 1.0, 33.1, 65.95)">
    <path d="M28.9 -56.2 L13.1 -17.25 13.35 -17.9 Q13.1 -19.95 10.9 -20.4 4.2 -21.75 -2.6 -22.1 L-13.6 -20.75 -17.15 -20.05 -20.65 -19.55 Q-25.0 -19.15 -28.85 -17.4 L-4.75 -64.95 28.9 -56.2 M-7.65 -0.25 L-7.5 -0.55 -7.5 -0.5 -7.65 -0.25" fill="#f48352" fill-rule="evenodd" stroke="none"/>
    <path d="M13.1 -17.25 L4.0 5.05 -7.65 -0.25 -7.5 -0.5 -7.5 -0.55 -4.6 -6.1 -13.95 -11.3 -17.45 -13.25 -21.45 -5.05 -32.1 -11.05 -28.85 -17.4 Q-25.0 -19.15 -20.65 -19.55 L-17.15 -20.05 -13.6 -20.75 -2.6 -22.1 Q4.2 -21.75 10.9 -20.4 13.1 -19.95 13.35 -17.9 L13.1 -17.25" fill="#f06534" fill-rule="evenodd" stroke="none"/>
    <path d="M28.9 -56.2 L31.6 -54.35 8.8 5.55 4.0 5.05 13.1 -17.25 28.9 -56.2 M-13.95 -11.3 L-17.2 -5.05 -21.45 -5.05 -17.45 -13.25 -13.95 -11.3" fill="#a65739" fill-rule="evenodd" stroke="none"/>
    <path d="M4.0 5.05 L8.8 5.55 31.6 -54.35 28.9 -56.2 13.1 -17.25 4.0 5.05 -7.65 -0.25 -7.5 -0.55 -4.6 -6.1 -13.95 -11.3 -17.2 -5.05 -21.45 -5.05 -32.1 -11.05 -28.85 -17.4 -4.75 -64.95 28.9 -56.2 M-21.45 -5.05 L-17.45 -13.25 -13.95 -11.3" fill="none" stroke="#000000" stroke-linecap="round" stroke-linejoin="round" stroke-width="2.0"/>
    <path d="M5.05 -10.6 L-19.85 -21.2 -2.25 -59.05 21.8 -52.5 5.05 -10.6" fill="#e4423f" fill-rule="evenodd" stroke="none"/>
    <path d="M5.05 -10.6 L-19.85 -21.2 -2.25 -59.05 21.8 -52.5 5.05 -10.6 Z" fill="none" stroke="#000000" stroke-linecap="round" stroke-linejoin="round" stroke-width="2.0"/>
    <path d="M3.95 -53.55 L4.75 -53.6 5.05 -53.4 6.15 -53.3 6.35 -53.15 8.5 -53.2 9.1 -53.0 12.1 -52.6 12.55 -52.55 15.35 -51.6 Q15.95 -51.3 15.6 -50.8 15.3 -50.35 14.75 -50.55 L10.05 -51.6 9.05 -51.75 6.85 -51.9 4.9 -51.8 4.1 -51.7 3.15 -51.7 2.75 -51.95 Q1.3 -51.75 -0.05 -52.4 -0.8 -51.25 -1.7 -52.15 L-1.85 -52.5 Q-1.9 -53.45 -1.25 -53.95 L-0.75 -54.05 -0.3 -54.1 Q0.55 -53.6 1.45 -53.75 L2.05 -53.55 3.75 -53.75 3.95 -53.55 M1.4 -49.9 Q2.5 -50.2 2.5 -49.2 L2.25 -48.8 1.05 -48.2 0.3 -48.25 0.0 -48.55 -0.4 -48.55 -2.65 -48.5 Q-4.0 -48.15 -4.1 -49.5 L-3.85 -49.95 -3.3 -50.15 -1.6 -49.85 -1.5 -49.8 1.0 -49.95 1.4 -49.9 M15.3 -48.0 L16.85 -47.4 17.0 -47.1 Q16.8 -46.3 15.9 -46.4 L14.15 -46.8 13.9 -47.0 13.9 -47.25 Q13.15 -47.45 13.4 -48.15 L13.85 -48.55 14.0 -48.55 Q14.9 -48.8 15.25 -48.1 L15.3 -48.0 M15.6 -44.1 Q15.0 -43.3 13.9 -43.75 L13.15 -43.95 Q12.6 -44.05 12.65 -44.6 12.75 -45.45 13.65 -45.3 L14.0 -45.35 14.15 -45.4 15.6 -44.45 Q15.8 -44.3 15.6 -44.1 M11.95 -47.45 Q12.1 -45.85 11.3 -44.45 10.15 -42.3 8.65 -40.3 L9.6 -40.5 Q11.7 -40.25 13.05 -38.7 13.45 -38.3 13.45 -37.7 13.3 -34.75 11.75 -32.15 L10.6 -30.5 Q8.6 -28.3 5.95 -26.95 3.3 -25.6 0.35 -25.15 -2.6 -24.65 -5.4 -25.6 -7.1 -26.15 -8.55 -27.25 -9.8 -28.2 -10.1 -29.75 -10.4 -31.1 -10.15 -32.5 L-9.65 -33.4 Q-8.75 -35.5 -6.65 -36.4 L-6.8 -37.3 Q-7.0 -39.0 -6.3 -40.4 L-6.05 -41.25 Q-4.8 -43.9 -1.95 -45.2 -0.05 -46.1 2.05 -46.6 L2.6 -46.75 2.65 -46.95 3.4 -47.6 3.65 -47.75 6.45 -49.3 Q7.5 -49.75 8.65 -49.65 10.35 -49.95 11.35 -48.8 11.85 -48.2 11.95 -47.45 M10.55 -48.05 Q10.05 -48.6 9.2 -48.6 6.4 -48.4 4.3 -46.75 L5.25 -46.25 5.6 -45.95 6.1 -45.45 7.15 -46.3 7.6 -46.5 9.1 -47.2 Q10.4 -47.3 10.75 -46.25 L10.85 -46.8 Q10.95 -47.5 10.55 -48.05 M-5.05 -33.0 L-5.85 -34.2 -6.3 -35.15 -6.3 -35.2 -7.35 -34.3 -8.25 -33.15 Q-8.9 -32.05 -8.8 -30.8 -8.7 -29.65 -7.85 -28.85 -5.4 -26.55 -2.05 -26.6 L1.2 -27.0 4.2 -27.9 Q6.4 -28.75 8.1 -30.35 L10.3 -33.0 11.0 -34.35 Q11.7 -35.85 11.3 -37.45 L11.0 -37.8 8.55 -38.95 8.2 -37.4 8.0 -36.85 7.8 -36.4 Q7.0 -34.65 5.65 -33.3 L4.3 -32.05 Q3.85 -31.65 3.25 -31.45 0.65 -30.55 -2.1 -30.85 L-2.5 -30.9 -2.8 -31.0 Q-4.15 -31.4 -4.85 -32.65 L-5.05 -33.0 M10.0 -45.3 L10.0 -46.1 10.0 -46.15 9.55 -46.35 9.45 -46.4 Q7.85 -45.9 6.4 -45.0 6.95 -44.15 7.05 -43.2 7.9 -42.75 8.15 -41.65 L8.75 -42.5 9.4 -43.35 9.5 -43.75 9.65 -44.75 9.7 -44.85 9.9 -45.0 10.0 -45.3 M1.9 -39.8 L2.55 -40.05 3.9 -40.6 4.2 -40.75 5.25 -41.5 5.55 -42.45 Q5.7 -43.3 5.2 -44.0 L4.4 -44.65 2.75 -45.05 Q2.35 -45.1 2.1 -45.4 L2.05 -45.4 -0.8 -44.5 -2.3 -43.7 -2.45 -43.25 -2.55 -43.0 Q-2.7 -42.25 -2.45 -41.5 -1.55 -40.35 -0.15 -39.75 L1.9 -39.8 M4.75 -34.25 L5.3 -34.7 5.85 -35.4 6.85 -37.35 7.25 -39.35 7.1 -39.6 7.15 -39.95 7.25 -40.1 7.05 -41.05 6.95 -41.4 6.3 -40.4 Q5.75 -39.5 4.9 -38.95 L4.7 -38.8 2.7 -37.65 0.65 -36.85 -1.2 -36.45 Q-3.45 -36.05 -5.25 -37.3 -5.15 -36.1 -4.55 -34.9 L-3.7 -33.75 -3.65 -33.5 -3.0 -32.75 -2.9 -32.6 2.0 -32.45 3.3 -32.95 Q3.9 -33.2 4.3 -33.8 L4.75 -34.25 M-2.9 -47.25 Q-1.8 -47.1 -2.3 -46.15 L-2.75 -45.8 Q-3.4 -45.7 -3.95 -46.05 -5.15 -45.95 -5.2 -47.05 L-4.9 -47.5 -4.6 -47.55 -3.0 -47.3 -2.9 -47.25 M-13.35 -26.35 L-13.05 -26.35 -12.8 -26.45 -12.55 -26.55 -11.85 -26.2 -11.8 -26.15 -11.75 -26.1 -11.65 -26.1 Q-10.8 -26.65 -10.35 -25.8 L-10.3 -25.75 Q-9.85 -25.7 -9.5 -25.3 L-9.45 -25.2 Q-8.7 -25.15 -8.25 -24.5 L-8.0 -24.3 -6.5 -23.95 Q-5.15 -23.95 -5.2 -22.8 L-5.35 -22.55 -7.15 -22.35 -8.8 -22.9 -9.4 -23.3 -10.6 -23.5 Q-11.35 -23.2 -11.9 -23.85 L-12.0 -24.0 Q-12.85 -23.8 -13.3 -24.55 L-13.4 -24.7 Q-14.35 -24.8 -14.3 -25.6 -14.2 -26.4 -13.35 -26.35 M-9.75 -19.4 L-10.45 -19.95 Q-11.1 -19.95 -11.6 -20.4 -12.7 -20.1 -13.15 -21.2 L-13.25 -21.35 Q-14.1 -21.25 -14.65 -21.95 -16.1 -22.05 -15.8 -23.3 -15.7 -23.75 -15.25 -23.8 L-14.8 -23.65 -14.15 -23.85 -14.0 -23.9 Q-13.35 -23.9 -13.15 -23.25 L-13.1 -23.2 Q-12.2 -23.2 -11.85 -22.3 L-11.8 -22.15 Q-11.05 -22.3 -10.5 -21.75 L-10.45 -21.7 Q-9.45 -21.9 -9.1 -20.95 -7.25 -20.65 -6.0 -19.4 -5.85 -19.2 -5.95 -19.0 -6.4 -18.25 -7.3 -18.55 L-9.1 -19.15 -9.75 -19.4" fill="#000000" fill-rule="evenodd" stroke="none"/>
    <path d="M8.0 -36.85 Q8.35 -36.4 8.3 -35.65 L8.1 -34.35 Q7.55 -32.2 5.9 -30.65 L5.0 -29.9 3.25 -28.9 Q0.5 -27.75 -2.55 -28.15 -5.6 -28.55 -6.35 -31.4 L-6.25 -32.05 Q-5.75 -32.95 -5.05 -33.0 L-4.85 -32.65 Q-4.15 -31.4 -2.8 -31.0 -3.25 -31.1 -3.65 -31.35 L-3.4 -30.95 Q-2.8 -30.15 -1.8 -30.0 1.25 -29.6 4.1 -30.6 5.35 -31.0 6.3 -31.9 L6.5 -32.05 8.0 -34.8 Q8.6 -35.85 7.8 -36.4 L8.0 -36.85 M-0.8 -44.5 Q0.95 -44.25 1.5 -42.55 1.9 -41.4 1.9 -40.2 L1.9 -39.8 -0.15 -39.75 Q-1.55 -40.35 -2.45 -41.5 -2.7 -42.25 -2.55 -43.0 L-2.45 -43.25 -2.3 -43.7 -0.8 -44.5 M4.7 -38.8 L4.5 -38.65 4.65 -37.95 4.75 -37.15 Q4.75 -35.85 4.3 -34.65 4.2 -34.3 4.4 -34.0 L4.45 -33.95 4.75 -34.25 4.3 -33.8 Q3.9 -33.2 3.3 -32.95 L2.0 -32.45 1.85 -32.6 Q1.15 -33.25 1.8 -34.05 2.45 -34.8 2.05 -35.8 L2.0 -35.95 1.85 -36.15 1.7 -36.3 Q0.6 -36.15 0.65 -36.85 L2.7 -37.65 4.7 -38.8" fill="#c7c8ca" fill-rule="evenodd" stroke="none"/>
    <path d="M-2.8 -31.0 L-2.5 -30.9 -2.1 -30.85 Q0.65 -30.55 3.25 -31.45 3.85 -31.65 4.3 -32.05 L5.65 -33.3 Q7.0 -34.65 7.8 -36.4 8.6 -35.85 8.0 -34.8 L6.5 -32.05 6.3 -31.9 Q5.35 -31.0 4.1 -30.6 1.25 -29.6 -1.8 -30.0 -2.8 -30.15 -3.4 -30.95 L-3.65 -31.35 Q-3.25 -31.1 -2.8 -31.0 M4.75 -34.25 L4.45 -33.95 4.4 -34.0 Q4.2 -34.3 4.3 -34.65 4.75 -35.85 4.75 -37.15 L4.65 -37.95 4.5 -38.65 4.7 -38.8 4.9 -38.95 Q5.75 -39.5 6.3 -40.4 L6.95 -41.4 7.05 -41.05 7.25 -40.1 7.15 -39.95 7.1 -39.6 7.25 -39.35 6.85 -37.35 5.85 -35.4 5.3 -34.7 4.75 -34.25" fill="#666666" fill-rule="evenodd" stroke="none"/>
    <path d="M8.0 -36.85 L8.2 -37.4 8.55 -38.95 11.0 -37.8 11.3 -37.45 Q11.7 -35.85 11.0 -34.35 L10.3 -33.0 8.1 -30.35 Q6.4 -28.75 4.2 -27.9 L1.2 -27.0 -2.05 -26.6 Q-5.4 -26.55 -7.85 -28.85 -8.7 -29.65 -8.8 -30.8 -8.9 -32.05 -8.25 -33.15 L-7.35 -34.3 -6.3 -35.2 -6.3 -35.15 -5.85 -34.2 -5.05 -33.0 Q-5.75 -32.95 -6.25 -32.05 L-6.35 -31.4 Q-5.6 -28.55 -2.55 -28.15 0.5 -27.75 3.25 -28.9 L5.0 -29.9 5.9 -30.65 Q7.55 -32.2 8.1 -34.35 L8.3 -35.65 Q8.35 -36.4 8.0 -36.85 M10.55 -48.05 Q10.95 -47.5 10.85 -46.8 L10.75 -46.25 Q10.4 -47.3 9.1 -47.2 L7.6 -46.5 7.15 -46.3 6.1 -45.45 5.6 -45.95 5.25 -46.25 4.3 -46.75 Q6.4 -48.4 9.2 -48.6 10.05 -48.6 10.55 -48.05 M-0.8 -44.5 L2.05 -45.4 2.1 -45.4 Q2.35 -45.1 2.75 -45.05 L4.4 -44.65 5.2 -44.0 Q5.7 -43.3 5.55 -42.45 L5.25 -41.5 4.2 -40.75 3.9 -40.6 2.55 -40.05 1.9 -39.8 1.9 -40.2 Q1.9 -41.4 1.5 -42.55 0.95 -44.25 -0.8 -44.5 M0.65 -36.85 Q0.6 -36.15 1.7 -36.3 L1.85 -36.15 2.0 -35.95 2.05 -35.8 Q2.45 -34.8 1.8 -34.05 1.15 -33.25 1.85 -32.6 L2.0 -32.45 -2.9 -32.6 -3.0 -32.75 -3.65 -33.5 -3.7 -33.75 -4.55 -34.9 Q-5.15 -36.1 -5.25 -37.3 -3.45 -36.05 -1.2 -36.45 L0.65 -36.85" fill="#ffffff" fill-rule="evenodd" stroke="none"/>
    <path d="M6.7 -19.7 Q6.95 -16.95 6.6 -14.2 L5.9 -8.35 Q5.85 -7.65 5.15 -7.55 L2.35 -7.7 0.3 -8.0 -4.75 -8.35 Q-5.35 -8.4 -5.85 -8.7 L-6.2 -9.3 Q-6.2 -12.25 -6.55 -15.2 L-6.65 -16.65 -6.25 -20.6 -5.75 -22.5 -5.35 -23.75 -4.75 -24.3 -4.25 -24.05 -4.2 -24.0 5.7 -23.95 5.9 -23.8 6.15 -21.85 6.45 -20.75 6.7 -19.7 M5.55 -19.25 L5.1 -21.15 5.0 -21.4 4.9 -22.2 4.9 -22.95 -4.05 -23.1 -4.7 -20.35 Q-5.35 -17.45 -5.0 -14.5 L-4.8 -12.1 -4.75 -9.8 -4.1 -9.7 2.8 -9.1 3.1 -9.05 4.7 -8.9 Q4.85 -11.8 5.3 -14.65 L5.6 -17.55 5.55 -19.25 M-2.85 -10.7 L-3.35 -11.0 -3.4 -11.05 -3.45 -11.1 Q-3.4 -11.7 -2.95 -11.9 L-2.1 -12.0 -2.05 -12.0 0.15 -11.85 1.45 -12.0 2.9 -11.75 Q3.4 -11.45 3.1 -11.0 2.9 -10.65 2.5 -10.65 0.1 -10.4 -2.35 -10.6 L-2.75 -10.65 -2.85 -10.7 M-1.55 -13.8 L-2.4 -13.85 -2.75 -13.9 Q-3.4 -13.95 -3.2 -14.6 L-2.55 -15.05 0.65 -15.1 1.95 -15.2 Q3.2 -15.25 2.8 -14.25 L2.55 -14.1 -1.55 -13.8 M2.85 -17.05 Q0.15 -16.8 -2.6 -17.1 -3.45 -17.2 -3.05 -17.9 L-2.65 -18.15 2.9 -18.35 Q3.65 -18.3 3.75 -17.9 L3.8 -17.8 3.7 -17.35 3.35 -17.1 2.85 -17.05 M3.35 -21.55 Q3.85 -21.5 3.85 -21.05 3.9 -20.5 3.35 -20.45 L-2.55 -20.25 -2.85 -20.5 Q-3.0 -21.4 -1.95 -21.4 L1.15 -21.65 3.35 -21.55" fill="#000000" fill-rule="evenodd" stroke="none"/>
    <path d="M-4.1 -9.7 L-4.75 -9.8 -4.8 -12.1 -5.0 -14.5 Q-5.35 -17.45 -4.7 -20.35 L-4.05 -23.1 4.9 -22.95 4.9 -22.2 5.0 -21.4 5.1 -21.15 5.55 -19.25 3.8 -17.8 3.75 -17.9 Q3.65 -18.3 2.9 -18.35 L-2.65 -18.15 -3.05 -17.9 Q-3.45 -17.2 -2.6 -17.1 0.15 -16.8 2.85 -17.05 L0.65 -15.1 -2.55 -15.05 -3.2 -14.6 Q-3.4 -13.95 -2.75 -13.9 L-2.4 -13.85 -1.55 -13.8 -0.7 -13.8 -2.1 -12.0 -2.95 -11.9 Q-3.4 -11.7 -3.45 -11.1 L-3.4 -11.05 -3.35 -11.0 -2.85 -10.7 -3.1 -10.2 Q-3.3 -9.8 -3.75 -9.75 L-4.1 -9.7 M3.35 -21.55 L1.15 -21.65 -1.95 -21.4 Q-3.0 -21.4 -2.85 -20.5 L-2.55 -20.25 3.35 -20.45 Q3.9 -20.5 3.85 -21.05 3.85 -21.5 3.35 -21.55" fill="#ffffff" fill-rule="evenodd" stroke="none"/>
    <path d="M-4.1 -9.7 L-3.75 -9.75 Q-3.3 -9.8 -3.1 -10.2 L-2.85 -10.7 -2.75 -10.65 -2.35 -10.6 Q0.1 -10.4 2.5 -10.65 2.9 -10.65 3.1 -11.0 3.4 -11.45 2.9 -11.75 L1.45 -12.0 0.15 -11.85 -2.05 -12.0 -2.1 -12.0 -0.7 -13.8 -1.55 -13.8 2.55 -14.1 2.8 -14.25 Q3.2 -15.25 1.95 -15.2 L0.65 -15.1 2.85 -17.05 3.35 -17.1 3.7 -17.35 3.8 -17.8 5.55 -19.25 5.6 -17.55 5.3 -14.65 Q4.85 -11.8 4.7 -8.9 L3.1 -9.05 2.8 -9.1 -4.1 -9.7" fill="#c7c8ca" fill-rule="evenodd" stroke="none"/>
  </g>
</svg>
