<?xml version="1.0" encoding="UTF-8" standalone="no"?>
<svg xmlns:ffdec="https://www.free-decompiler.com/flash" xmlns:xlink="http://www.w3.org/1999/xlink" ffdec:objectType="shape" height="30.0px" width="42.2px" xmlns="http://www.w3.org/2000/svg">
  <g transform="matrix(1.0, 0.0, 0.0, 1.0, 22.5, 24.2)">
    <path d="M-11.95 -11.65 L-11.8 -11.9 -11.65 -12.05 -7.85 -13.65 -6.5 -14.1 Q-3.35 -15.2 -0.4 -16.65 L1.2 -17.35 Q2.35 -17.4 3.15 -16.4 5.35 -16.2 6.95 -14.55 L7.75 -13.75 8.5 -13.05 9.8 -12.25 10.1 -12.1 12.15 -10.8 Q13.3 -10.0 14.7 -9.5 15.7 -9.15 16.4 -8.25 L16.45 -8.2 17.25 -7.15 17.5 -6.8 17.8 -6.0 17.8 -5.85 Q17.95 -3.6 17.55 -1.45 17.35 -0.35 16.15 -0.15 L15.15 -0.05 10.6 1.15 7.4 2.25 4.85 3.15 2.3 4.2 0.8 4.8 -1.0 5.6 Q-2.55 6.25 -3.45 4.95 -3.9 4.2 -3.95 3.35 L-3.85 1.7 -3.7 0.95 -3.5 0.1 -3.4 -0.7 -3.3 -1.15 -3.45 -2.05 -3.55 -2.3 -3.6 -2.4 -4.7 -3.7 -5.85 -4.75 -7.25 -6.0 -8.8 -7.75 -10.1 -9.15 -11.6 -10.4 Q-12.3 -11.0 -11.95 -11.65 M11.65 -9.35 L11.05 -9.75 10.45 -10.3 Q9.55 -10.7 8.75 -11.2 L8.5 -11.4 8.4 -11.5 Q7.2 -12.05 6.35 -13.0 L6.25 -13.1 4.95 -14.25 4.55 -14.65 Q3.3 -14.75 2.25 -15.35 2.05 -15.45 1.95 -15.5 L1.45 -15.95 1.35 -15.95 1.3 -15.9 Q-0.85 -14.9 -3.05 -14.05 L-7.45 -12.4 -10.35 -11.15 -8.15 -9.0 -7.65 -8.5 -6.35 -7.0 -5.45 -6.2 Q-4.5 -5.5 -3.7 -4.6 L-2.7 -3.35 Q-2.1 -2.55 -1.95 -1.7 -1.8 -0.85 -2.05 0.05 L-2.25 0.75 -2.35 1.8 -2.35 3.05 Q-2.35 3.8 -1.9 4.35 L-0.05 3.7 Q0.65 3.3 1.5 3.05 L3.6 2.1 4.75 1.65 9.35 0.1 12.5 -0.95 14.15 -1.3 15.95 -1.65 16.2 -1.75 16.45 -3.85 16.4 -5.55 16.35 -5.75 15.7 -6.8 15.65 -6.85 15.4 -7.1 14.95 -7.7 Q14.4 -8.25 13.65 -8.4 L13.45 -8.6 Q12.45 -8.85 11.65 -9.35 M-3.15 -5.5 L-3.2 -5.55 -3.2 -5.7 -3.2 -5.8 -2.9 -6.0 -1.6 -6.5 -0.75 -6.7 0.3 -7.0 0.5 -7.05 2.15 -7.45 5.1 -8.05 Q6.15 -8.0 5.65 -7.1 L5.3 -6.85 4.9 -6.8 3.05 -6.55 2.45 -6.45 Q1.65 -6.3 0.95 -6.45 L-0.85 -6.0 -1.45 -5.9 -2.65 -5.45 Q-2.75 -5.35 -2.9 -5.35 -3.1 -5.35 -3.15 -5.5 M11.3 -6.0 L10.35 -5.95 8.15 -5.55 3.95 -4.75 0.7 -3.75 -1.0 -3.0 Q-1.3 -2.85 -1.45 -3.15 L-1.5 -3.5 Q0.05 -4.6 1.95 -5.1 L4.1 -5.8 Q5.95 -6.5 8.0 -6.55 L9.25 -6.7 10.9 -7.1 Q11.75 -7.2 12.15 -6.55 L12.2 -6.5 11.9 -6.1 11.4 -6.0 11.3 -6.0 M14.35 -4.3 L9.65 -3.25 8.9 -3.05 4.5 -1.4 0.15 0.2 -1.0 0.05 Q-1.05 -0.45 -0.4 -0.6 0.75 -0.95 1.95 -1.45 L5.65 -2.9 8.3 -3.9 Q10.2 -4.65 12.3 -5.0 L14.1 -5.45 14.75 -5.1 14.7 -4.6 14.35 -4.3 M0.4 1.15 L2.6 0.3 5.95 -0.8 7.6 -1.25 9.45 -1.65 Q10.45 -1.85 11.4 -2.2 L11.85 -2.35 14.35 -2.85 Q15.2 -2.9 14.95 -2.2 L14.65 -1.9 11.3 -1.15 11.05 -1.1 6.5 0.05 Q4.15 0.6 2.0 1.5 L0.15 2.25 -0.4 2.1 Q-0.35 1.4 0.4 1.15" fill="#000000" fill-rule="evenodd" stroke="none"/>
    <path d="M8.5 -13.05 Q8.45 -13.65 8.85 -14.2 L10.3 -15.6 11.35 -15.95 11.65 -15.95 Q13.85 -15.25 15.9 -14.0 L17.95 -12.65 18.2 -12.55 Q19.65 -12.15 19.7 -10.85 L19.3 -9.8 17.8 -8.7 16.45 -8.2 16.4 -8.25 Q15.7 -9.15 14.7 -9.5 13.3 -10.0 12.15 -10.8 L10.1 -12.1 9.8 -12.25 8.5 -13.05 M-3.45 -2.05 Q-3.85 -1.45 -4.7 -1.25 L-4.95 -1.2 Q-6.85 -0.25 -8.85 -0.65 -12.55 -1.4 -15.25 -3.9 L-15.55 -4.35 -15.6 -4.4 -15.9 -4.45 -16.05 -4.5 Q-17.25 -3.65 -18.65 -3.75 -19.75 -3.85 -20.4 -4.5 -21.15 -4.7 -21.45 -5.4 L-21.55 -6.0 -21.3 -7.7 Q-22.1 -7.85 -22.4 -8.65 L-22.5 -9.4 Q-22.45 -10.2 -21.75 -10.8 L-21.2 -11.25 Q-20.1 -12.1 -18.75 -12.55 L-14.0 -12.15 -11.95 -11.65 Q-12.3 -11.0 -11.6 -10.4 L-10.1 -9.15 -8.8 -7.75 -7.25 -6.0 -5.85 -4.75 -4.7 -3.7 -3.6 -2.4 -3.55 -2.3 -3.45 -2.05" fill="#6b3924" fill-rule="evenodd" stroke="none"/>
    <path d="M6.25 -13.1 L6.35 -13.0 Q7.2 -12.05 8.4 -11.5 L8.5 -11.4 8.75 -11.2 Q9.55 -10.7 10.45 -10.3 L11.05 -9.75 11.65 -9.35 9.35 -7.65 7.85 -6.85 7.4 -6.7 5.0 -6.75 4.9 -6.8 5.3 -6.85 5.65 -7.1 Q6.15 -8.0 5.1 -8.05 L2.15 -7.45 0.5 -7.05 0.3 -7.0 -0.8 -7.1 -2.35 -7.05 -2.9 -6.0 -3.2 -5.8 -3.2 -5.7 -3.2 -5.55 -3.15 -5.5 -3.5 -4.85 -3.7 -4.6 Q-4.5 -5.5 -5.45 -6.2 L-6.35 -7.0 -3.5 -9.45 -2.05 -10.4 Q-0.1 -11.6 2.15 -12.15 L3.75 -12.6 6.25 -13.1 M15.65 -6.85 L15.7 -6.8 16.35 -5.75 16.4 -5.55 16.45 -3.85 16.2 -1.75 15.95 -1.65 14.15 -1.3 12.5 -0.95 9.35 0.1 4.75 1.65 3.6 2.1 1.5 3.05 Q0.65 3.3 -0.05 3.7 L-1.9 4.35 Q-2.35 3.8 -2.35 3.05 L-2.35 1.8 -2.25 0.75 -2.05 0.05 Q-1.8 -0.85 -1.95 -1.7 0.05 -2.6 2.2 -3.2 L7.4 -4.8 11.3 -5.95 11.4 -6.0 11.9 -6.1 12.1 -6.15 15.65 -6.85 M14.35 -4.3 L14.7 -4.6 14.75 -5.1 14.1 -5.45 12.3 -5.0 Q10.2 -4.65 8.3 -3.9 L5.65 -2.9 1.95 -1.45 Q0.75 -0.95 -0.4 -0.6 -1.05 -0.45 -1.0 0.05 L0.15 0.2 4.5 -1.4 8.9 -3.05 9.65 -3.25 14.35 -4.3 M0.4 1.15 Q-0.35 1.4 -0.4 2.1 L0.15 2.25 2.0 1.5 Q4.15 0.6 6.5 0.05 L11.05 -1.1 11.3 -1.15 14.65 -1.9 14.95 -2.2 Q15.2 -2.9 14.35 -2.85 L11.85 -2.35 11.4 -2.2 Q10.45 -1.85 9.45 -1.65 L7.6 -1.25 5.95 -0.8 2.6 0.3 0.4 1.15" fill="#a99d98" fill-rule="evenodd" stroke="none"/>
    <path d="M6.25 -13.1 L3.75 -12.6 2.15 -12.15 Q-0.1 -11.6 -2.05 -10.4 L-3.5 -9.45 -6.35 -7.0 -7.65 -8.5 -8.15 -9.0 -10.35 -11.15 -7.45 -12.4 -3.05 -14.05 Q-0.85 -14.9 1.3 -15.9 L1.35 -15.95 1.45 -15.95 1.95 -15.5 Q2.05 -15.45 2.25 -15.35 3.3 -14.75 4.55 -14.65 L4.95 -14.25 6.25 -13.1 M-3.7 -4.6 L-3.5 -4.85 -3.15 -5.5 Q-3.1 -5.35 -2.9 -5.35 -2.75 -5.35 -2.65 -5.45 L-1.45 -5.9 -0.85 -6.0 0.95 -6.45 Q1.65 -6.3 2.45 -6.45 L3.05 -6.55 4.9 -6.8 5.0 -6.75 7.4 -6.7 7.85 -6.85 9.35 -7.65 11.65 -9.35 Q12.45 -8.85 13.45 -8.6 L13.65 -8.4 Q14.4 -8.25 14.95 -7.7 L15.4 -7.1 15.65 -6.85 12.1 -6.15 11.9 -6.1 12.2 -6.5 12.15 -6.55 Q11.75 -7.2 10.9 -7.1 L9.25 -6.7 8.0 -6.55 Q5.95 -6.5 4.1 -5.8 L1.95 -5.1 Q0.05 -4.6 -1.5 -3.5 L-1.45 -3.15 Q-1.3 -2.85 -1.0 -3.0 L0.7 -3.75 3.95 -4.75 8.15 -5.55 10.35 -5.95 11.3 -6.0 11.3 -5.95 7.4 -4.8 2.2 -3.2 Q0.05 -2.6 -1.95 -1.7 -2.1 -2.55 -2.7 -3.35 L-3.7 -4.6 M-2.9 -6.0 L-2.35 -7.05 -0.8 -7.1 0.3 -7.0 -0.75 -6.7 -1.6 -6.5 -2.9 -6.0" fill="#ffffff" fill-rule="evenodd" stroke="none"/>
    <path d="M4.75 -22.6 Q6.05 -22.2 6.55 -21.1 L6.9 -21.2 7.7 -21.5 7.4 -21.65 5.5 -22.55 4.75 -22.6 M3.5 -23.7 L4.7 -24.2 Q7.25 -24.1 8.75 -22.05 L8.85 -22.0 8.8 -21.85 10.6 -22.4 14.05 -22.25 Q15.0 -22.2 15.5 -21.35 16.3 -19.85 16.15 -18.05 L16.0 -16.55 16.2 -16.6 17.1 -16.7 Q19.7 -15.75 19.3 -13.1 L19.0 -12.45 Q18.4 -10.45 16.4 -9.7 13.45 -8.65 10.3 -8.55 L7.1 -8.9 6.05 -9.15 Q3.5 -9.8 3.5 -12.25 3.5 -13.8 4.85 -14.5 L4.8 -14.6 Q4.4 -14.6 3.85 -14.95 2.9 -15.7 2.35 -16.6 1.2 -18.15 1.25 -20.05 1.3 -21.65 2.25 -22.75 L3.5 -23.7 M2.85 -20.0 L2.8 -19.8 Q2.95 -18.75 3.4 -17.8 L4.1 -17.0 4.35 -18.0 4.55 -18.2 Q4.6 -19.6 5.55 -20.4 L5.0 -20.9 4.3 -21.45 Q3.2 -21.25 2.85 -20.0 M-8.2 -17.75 Q-7.45 -18.35 -6.5 -18.5 -5.35 -18.75 -4.45 -18.1 L-4.2 -17.6 Q-4.15 -16.8 -4.55 -16.15 L-4.6 -15.6 -4.45 -15.55 -2.9 -14.8 Q-1.5 -14.0 -1.8 -12.65 -1.45 -12.35 -1.4 -11.75 L-1.45 -11.0 0.3 -10.55 Q1.25 -10.1 1.6 -9.15 L1.75 -8.4 Q1.85 -6.55 0.4 -5.35 -1.05 -4.2 -2.8 -3.75 L-4.6 -3.35 -6.05 -3.1 Q-7.85 -2.8 -9.6 -3.15 L-10.05 -3.25 -12.3 -4.0 Q-14.65 -5.0 -15.7 -7.2 L-15.8 -7.7 -15.35 -9.25 Q-14.9 -10.2 -13.9 -10.7 L-14.25 -11.15 Q-14.95 -12.25 -14.35 -13.1 L-14.45 -13.45 -14.3 -14.35 Q-13.45 -15.45 -12.15 -16.05 L-10.3 -16.5 -8.9 -16.5 Q-8.85 -17.2 -8.2 -17.75 M-9.05 -11.2 L-12.0 -11.9 -12.45 -11.9 -9.85 -9.3 -9.0 -8.65 -8.15 -8.4 -7.6 -8.35 -5.9 -8.7 Q-5.1 -8.95 -4.4 -9.45 L-3.45 -10.1 -3.4 -10.3 -3.25 -10.5 -3.2 -10.6 -3.25 -11.2 -3.3 -11.15 -6.4 -10.9 -8.45 -11.1 -9.05 -11.2 M-8.65 -14.75 L-10.1 -14.85 -10.35 -13.85 -10.65 -13.35 -9.15 -13.1 -7.05 -12.9 -5.5 -12.85 -3.65 -12.95 -3.5 -13.1 -4.05 -13.5 Q-4.15 -13.5 -4.25 -13.6 L-6.25 -14.3 -8.65 -14.75 M-13.0 -8.9 L-13.7 -8.3 -13.75 -8.15 -13.75 -7.8 -13.0 -7.1 -12.15 -6.5 Q-10.95 -5.75 -9.5 -5.4 L-7.95 -5.15 -5.3 -5.5 -3.45 -6.1 -3.3 -6.15 -1.9 -6.6 -1.45 -6.85 -0.35 -8.0 -0.35 -8.2 -0.4 -8.35 -0.45 -8.55 -0.7 -8.85 -1.95 -8.95 -2.15 -9.0 Q-2.8 -8.05 -4.05 -7.5 L-5.0 -7.1 Q-5.95 -6.65 -6.9 -6.5 L-8.9 -6.6 Q-10.05 -6.8 -10.85 -7.6 L-12.3 -9.0 -12.5 -9.15 -12.7 -9.05 -13.0 -8.9 M6.15 -13.1 L5.85 -13.4 5.3 -12.85 5.3 -12.45 5.35 -11.95 5.6 -11.65 5.8 -11.5 6.25 -11.35 6.3 -11.35 8.0 -10.9 10.9 -10.65 12.1 -10.75 14.85 -11.45 Q16.05 -11.95 17.05 -12.75 17.55 -13.5 17.2 -14.25 L16.7 -14.85 15.7 -15.15 15.55 -14.5 15.35 -13.95 15.1 -13.25 Q14.75 -12.4 13.85 -12.15 12.8 -11.45 11.35 -11.5 L9.5 -11.7 Q8.25 -11.9 7.25 -12.4 L6.15 -13.1 M-5.9 -16.6 L-5.8 -16.8 -5.8 -16.9 -6.4 -16.9 -7.05 -16.3 -5.95 -16.05 -5.9 -16.6 M12.9 -20.55 L10.5 -20.65 10.1 -20.5 9.8 -20.4 9.7 -19.35 9.7 -19.25 Q10.5 -18.65 10.8 -17.65 L10.7 -17.05 11.2 -17.15 Q12.55 -17.4 13.75 -18.15 L14.5 -18.65 14.3 -19.95 Q14.2 -20.5 13.65 -20.5 L12.9 -20.55 M9.95 -13.5 L11.35 -13.4 Q12.45 -13.45 13.35 -14.1 13.7 -14.3 13.85 -14.7 L14.15 -15.35 14.4 -16.5 13.1 -15.9 10.9 -15.35 8.85 -15.4 Q7.3 -15.65 5.85 -16.45 6.6 -14.95 7.85 -14.2 8.75 -13.65 9.95 -13.5 M8.85 -17.0 L8.75 -17.15 8.45 -17.4 8.05 -17.1 8.1 -17.1 8.85 -17.0" fill="#000000" fill-rule="evenodd" stroke="none"/>
    <path d="M4.75 -22.6 L5.5 -22.55 7.4 -21.65 7.7 -21.5 6.9 -21.2 6.55 -21.1 Q6.05 -22.2 4.75 -22.6 M-9.85 -9.3 L-12.45 -11.9 -12.0 -11.9 -9.05 -11.2 -9.4 -10.65 -9.6 -10.1 -9.85 -9.3 M-6.25 -14.3 L-4.25 -13.6 Q-4.15 -13.5 -4.05 -13.5 L-3.5 -13.1 -3.65 -12.95 -5.5 -12.85 -7.05 -12.9 -7.05 -13.0 -6.5 -13.8 -6.25 -14.3 M-1.95 -8.95 L-0.7 -8.85 -0.45 -8.55 -0.4 -8.35 -0.35 -8.2 -0.35 -8.0 -1.45 -6.85 -1.9 -6.6 -3.3 -6.15 -3.3 -6.2 Q-1.65 -7.2 -1.95 -8.95 M6.25 -11.35 L5.8 -11.5 5.6 -11.65 5.35 -11.95 5.3 -12.45 5.3 -12.85 5.85 -13.4 6.15 -13.1 Q5.6 -12.45 6.25 -11.4 L6.25 -11.35 M15.55 -14.5 L15.7 -15.15 16.7 -14.85 17.2 -14.25 Q17.55 -13.5 17.05 -12.75 16.05 -11.95 14.85 -11.45 L15.45 -12.2 Q16.4 -13.6 15.55 -14.5 M-5.9 -16.6 L-5.95 -16.05 -7.05 -16.3 -6.4 -16.9 -5.8 -16.9 -5.8 -16.8 -5.9 -16.6 M10.1 -20.45 Q9.8 -19.0 11.4 -19.25 L11.45 -19.2 11.55 -19.1 11.65 -19.0 11.7 -18.4 11.55 -17.9 11.2 -17.15 10.7 -17.05 10.8 -17.65 Q10.5 -18.65 9.7 -19.25 L9.7 -19.35 9.8 -20.4 10.1 -20.5 10.1 -20.45 M13.75 -18.15 L13.75 -18.55 Q13.65 -19.9 12.9 -20.55 L13.65 -20.5 Q14.2 -20.5 14.3 -19.95 L14.5 -18.65 13.75 -18.15 M7.85 -14.2 Q6.6 -14.95 5.85 -16.45 7.3 -15.65 8.85 -15.4 L8.45 -15.05 7.85 -14.2" fill="#ffffff" fill-rule="evenodd" stroke="none"/>
    <path d="M-6.4 -10.9 L-3.3 -11.15 Q-3.2 -10.9 -3.25 -10.5 L-3.4 -10.3 -3.45 -10.1 -4.4 -9.45 Q-5.1 -8.95 -5.9 -8.7 L-7.6 -8.35 -7.65 -8.65 -7.55 -8.85 -6.7 -10.05 Q-6.4 -10.55 -6.4 -10.9 M-9.15 -13.1 L-10.65 -13.35 -10.35 -13.85 -10.1 -14.85 -8.65 -14.75 Q-9.2 -14.1 -9.15 -13.1 M-12.3 -9.0 L-10.85 -7.6 Q-10.05 -6.8 -8.9 -6.6 L-6.9 -6.5 -7.15 -6.35 -8.9 -5.55 -9.5 -5.4 Q-10.95 -5.75 -12.15 -6.5 -12.85 -7.45 -12.4 -8.75 L-12.3 -9.0 M7.25 -12.4 Q8.25 -11.9 9.5 -11.7 L11.35 -11.5 Q12.8 -11.45 13.85 -12.15 14.75 -12.4 15.1 -13.25 L15.35 -13.95 Q15.55 -13.45 14.95 -12.75 14.0 -11.65 12.7 -11.15 L10.9 -10.65 8.0 -10.9 Q7.15 -11.3 7.25 -12.4 M10.9 -15.35 L13.1 -15.9 14.4 -16.5 14.15 -15.35 13.85 -14.7 Q13.7 -14.3 13.35 -14.1 12.45 -13.45 11.35 -13.4 L9.95 -13.5 10.05 -13.65 10.65 -14.55 10.9 -15.35" fill="#607288" fill-rule="evenodd" stroke="none"/>
    <path d="M-9.85 -9.3 L-9.6 -10.1 -9.4 -10.65 -9.05 -11.2 -8.45 -11.1 -6.4 -10.9 Q-6.4 -10.55 -6.7 -10.05 L-7.55 -8.85 -8.15 -8.4 -9.0 -8.65 -9.85 -9.3 M-9.15 -13.1 Q-9.2 -14.1 -8.65 -14.75 L-6.25 -14.3 -6.5 -13.8 -7.05 -13.0 -7.05 -12.9 -9.15 -13.1 M-13.0 -7.1 L-13.05 -7.25 -13.1 -8.2 -13.0 -8.9 -12.7 -9.05 -12.5 -9.15 -12.3 -9.0 -12.4 -8.75 Q-12.85 -7.45 -12.15 -6.5 L-13.0 -7.1 M-6.9 -6.5 Q-5.95 -6.65 -5.0 -7.1 L-4.05 -7.5 Q-2.8 -8.05 -2.15 -9.0 L-1.95 -8.95 Q-1.65 -7.2 -3.3 -6.2 L-3.45 -6.1 -5.3 -5.5 -7.95 -5.15 -9.5 -5.4 -8.9 -5.55 -7.15 -6.35 -6.9 -6.5 M6.25 -11.4 Q5.6 -12.45 6.15 -13.1 L7.25 -12.4 Q7.15 -11.3 8.0 -10.9 L6.3 -11.35 6.25 -11.4 M15.35 -13.95 L15.55 -14.5 Q16.4 -13.6 15.45 -12.2 L14.85 -11.45 12.1 -10.75 10.9 -10.65 12.7 -11.15 Q14.0 -11.65 14.95 -12.75 15.55 -13.45 15.35 -13.95 M10.1 -20.5 L10.5 -20.65 12.9 -20.55 Q13.65 -19.9 13.75 -18.55 L13.75 -18.15 Q12.55 -17.4 11.2 -17.15 L11.55 -17.9 11.7 -18.4 11.65 -19.0 11.55 -19.1 11.45 -19.2 11.4 -19.25 Q9.8 -19.0 10.1 -20.45 L10.1 -20.5 M10.9 -15.35 L10.65 -14.55 10.05 -13.65 9.95 -13.5 Q8.75 -13.65 7.85 -14.2 L8.45 -15.05 8.85 -15.4 10.9 -15.35" fill="#b4bdca" fill-rule="evenodd" stroke="none"/>
  </g>
</svg>
