<?xml version="1.0" encoding="UTF-8" standalone="no"?>
<svg xmlns:ffdec="https://www.free-decompiler.com/flash" xmlns:xlink="http://www.w3.org/1999/xlink" ffdec:objectType="shape" height="51.5px" width="21.0px" xmlns="http://www.w3.org/2000/svg">
  <g transform="matrix(1.0, 0.0, 0.0, 1.0, 10.5, 25.75)">
    <path d="M6.55 -24.9 L6.15 -24.65 5.7 -24.05 Q4.85 -21.3 6.3 -18.6 L4.6 -18.55 3.7 -18.2 2.95 -17.8 2.0 -17.7 Q1.4 -17.75 1.0 -18.05 -1.7 -20.15 1.7 -20.2 1.45 -21.55 2.1 -22.75 2.8 -25.9 6.2 -25.05 L6.55 -24.9 M1.95 -13.0 L1.4 -13.05 1.05 -12.4 0.85 -11.35 Q0.75 -10.05 1.45 -9.0 L1.5 -8.35 1.5 -7.8 Q0.25 -7.45 -0.75 -6.55 -1.45 -5.85 -1.15 -4.9 -0.75 -3.45 0.6 -3.3 L-0.05 -2.65 Q-0.7 -1.45 -0.1 -0.1 L-0.9 0.05 Q-2.3 0.25 -3.0 1.4 L-3.15 1.4 -3.25 1.35 Q-3.6 0.9 -4.15 0.75 -4.85 0.55 -5.45 1.0 L-7.55 2.8 -9.2 2.75 Q-9.75 1.8 -9.9 0.7 -10.45 -2.65 -7.25 -4.1 -7.65 -6.05 -7.25 -8.45 -6.3 -11.45 -3.25 -11.8 -3.1 -12.35 -2.35 -12.65 L1.95 -13.0 M-7.25 4.95 Q-5.25 5.3 -3.95 3.45 -4.2 6.05 -1.55 5.2 L-1.25 6.05 -1.95 7.4 -2.2 8.95 Q-3.3 9.6 -4.55 10.0 -5.8 10.4 -5.9 11.7 L-5.8 12.5 -5.45 12.6 Q-6.75 12.4 -7.25 11.55 -8.75 11.0 -8.9 10.3 -9.55 7.75 -7.25 4.95 M-4.65 13.4 L-4.55 13.4 Q-2.75 13.65 -1.35 12.85 L-1.05 13.4 -0.85 13.9 -0.9 14.05 -1.1 14.6 -1.2 14.95 -1.4 15.25 -1.8 16.4 Q-2.2 19.5 0.2 21.25 L0.25 21.4 0.25 21.9 0.2 22.45 -0.05 22.65 Q-1.4 23.55 -3.05 24.05 -2.5 21.8 -2.5 19.0 -2.5 17.8 -4.5 18.1 -7.45 18.55 -5.3 16.8 -4.95 15.75 -4.85 14.3 L-4.65 13.4" fill="#ffffff" fill-rule="evenodd" stroke="none"/>
    <path d="M2.95 -17.8 L3.7 -18.2 4.6 -18.55 6.3 -18.6 Q4.85 -21.3 5.7 -24.05 L6.15 -24.65 6.55 -24.9 7.3 -24.7 Q11.1 -24.05 9.0 -21.4 10.7 -20.65 9.5 -19.35 L9.0 -18.6 Q9.1 -16.55 8.5 -15.65 8.1 -15.05 7.4 -14.9 L6.05 -15.05 Q6.05 -16.15 6.0 -15.05 2.8 -14.45 3.05 -17.9 L2.95 -17.8 M-9.2 2.75 L-7.55 2.8 -5.45 1.0 Q-4.85 0.55 -4.15 0.75 -3.6 0.9 -3.25 1.35 L-3.15 1.4 -3.0 1.4 Q-2.3 0.25 -0.9 0.05 L-0.1 -0.1 Q-0.7 -1.45 -0.05 -2.65 L0.6 -3.3 Q-0.75 -3.45 -1.15 -4.9 -1.45 -5.85 -0.75 -6.55 0.25 -7.45 1.5 -7.8 L1.5 -8.35 1.45 -9.0 Q0.75 -10.05 0.85 -11.35 L1.05 -12.4 1.4 -13.05 1.95 -13.0 2.7 -12.8 2.8 -12.8 Q6.25 -11.85 5.4 -8.0 4.8 -5.45 1.65 -5.1 L3.8 -4.2 Q4.6 -3.65 4.2 -3.0 L3.45 -2.4 Q5.4 -2.15 5.9 -0.65 6.9 2.3 4.3 2.1 3.1 1.95 2.95 2.6 2.6 4.4 1.3 4.9 4.15 4.95 4.7 8.15 4.8 8.75 4.5 9.1 3.35 10.35 1.15 10.4 L2.4 11.3 Q4.5 14.4 0.55 14.6 0.9 14.65 1.25 14.85 0.75 16.4 -0.8 17.05 0.85 17.75 1.85 19.7 2.55 21.2 1.35 21.9 -1.6 23.55 -3.25 24.85 L-3.15 24.45 -3.05 24.05 Q-1.4 23.55 -0.05 22.65 L0.2 22.45 0.25 21.9 0.25 21.4 0.2 21.25 Q-2.2 19.5 -1.8 16.4 L-1.4 15.25 -1.2 14.95 -1.1 14.6 -0.9 14.05 -0.85 13.9 -1.05 13.4 -1.35 12.85 Q-2.75 13.65 -4.55 13.4 L-4.65 13.4 -4.25 12.6 -4.5 12.65 -5.45 12.6 -5.8 12.5 -5.9 11.7 Q-5.8 10.4 -4.55 10.0 -3.3 9.6 -2.2 8.95 L-1.95 7.4 -1.25 6.05 -1.55 5.2 Q-4.2 6.05 -3.95 3.45 -5.25 5.3 -7.25 4.95 -8.55 4.0 -9.2 2.75 M1.3 4.9 L-0.95 4.95 -1.55 5.2 -0.95 4.95 1.3 4.9 M-3.45 12.5 L-2.55 12.15 Q-3.65 11.95 -4.25 12.6 L-3.45 12.5" fill="#aabfc4" fill-rule="evenodd" stroke="none"/>
    <path d="M6.55 -24.9 L6.2 -25.05 Q2.8 -25.9 2.1 -22.75 1.45 -21.55 1.7 -20.2 -1.7 -20.15 1.0 -18.05 1.4 -17.75 2.0 -17.7 L2.95 -17.8 3.05 -17.9 Q2.8 -14.45 6.0 -15.05 6.05 -16.15 6.05 -15.05 L7.4 -14.9 Q8.1 -15.05 8.5 -15.65 9.1 -16.55 9.0 -18.6 L9.5 -19.35 Q10.7 -20.65 9.0 -21.4 11.1 -24.05 7.3 -24.7 L6.55 -24.9 M-9.2 2.75 Q-8.55 4.0 -7.25 4.95 -5.25 5.3 -3.95 3.45 -4.2 6.05 -1.55 5.2 L-0.95 4.95 1.3 4.9 Q2.6 4.4 2.95 2.6 3.1 1.95 4.3 2.1 6.9 2.3 5.9 -0.65 5.4 -2.15 3.45 -2.4 L4.2 -3.0 Q4.6 -3.65 3.8 -4.2 L1.65 -5.1 Q4.8 -5.45 5.4 -8.0 6.25 -11.85 2.8 -12.8 L2.7 -12.8 1.95 -13.0 -2.35 -12.65 Q-3.1 -12.35 -3.25 -11.8 -6.3 -11.45 -7.25 -8.45 -7.65 -6.05 -7.25 -4.1 -10.45 -2.65 -9.9 0.7 -9.75 1.8 -9.2 2.75 M-3.15 24.45 L-3.25 24.85 Q-1.6 23.55 1.35 21.9 2.55 21.2 1.85 19.7 0.85 17.75 -0.8 17.05 0.75 16.4 1.25 14.85 0.9 14.65 0.55 14.6 4.5 14.4 2.4 11.3 L1.15 10.4 Q3.35 10.35 4.5 9.1 4.8 8.75 4.7 8.15 4.15 4.95 1.3 4.9 M-4.65 13.4 L-4.85 14.3 Q-4.95 15.75 -5.3 16.8 -7.45 18.55 -4.5 18.1 -2.5 17.8 -2.5 19.0 -2.5 21.8 -3.05 24.05 M-5.45 12.6 Q-6.75 12.4 -7.25 11.55 -8.75 11.0 -8.9 10.3 -9.55 7.75 -7.25 4.95 M-3.45 12.5 L-2.55 12.15 Q-3.65 11.95 -4.25 12.6 L-3.45 12.5 M-4.65 13.4 L-4.25 12.6 -4.5 12.65 -5.45 12.6 M-3.25 24.85 L-3.4 24.95 Q-3.4 25.6 -3.3 24.95 L-3.25 24.85 Z" fill="none" stroke="#000000" stroke-linecap="round" stroke-linejoin="round" stroke-width="1.0"/>
  </g>
</svg>
