<?xml version="1.0" encoding="UTF-8" standalone="no"?>
<svg xmlns:ffdec="https://www.free-decompiler.com/flash" xmlns:xlink="http://www.w3.org/1999/xlink" ffdec:objectType="shape" height="57.0px" width="19.9px" xmlns="http://www.w3.org/2000/svg">
  <g transform="matrix(1.0, 0.0, 0.0, 1.0, 9.7, 29.6)">
    <path d="M7.5 -28.0 L6.7 -28.65 6.0 -28.1 Q4.05 -26.2 5.1 -23.75 5.05 -22.4 5.8 -21.2 6.3 -20.35 7.05 -19.8 L2.15 -20.0 Q1.7 -22.65 2.2 -23.75 L2.5 -24.95 Q2.6 -28.4 5.4 -29.1 6.65 -28.9 7.5 -28.0 M-7.2 -0.3 Q-7.95 -0.85 -7.1 -2.1 L-8.75 -4.35 Q-10.2 -6.85 -7.2 -7.7 -6.1 -8.05 -6.7 -9.3 -8.4 -12.85 -4.45 -12.85 -3.55 -12.85 -2.75 -13.45 -1.45 -14.45 0.0 -14.8 L4.0 -15.15 Q3.35 -13.65 3.3 -11.9 L2.7 -11.5 Q1.55 -10.45 1.8 -8.8 1.1 -8.65 0.55 -8.2 0.0 -7.8 -0.55 -7.55 -1.4 -7.2 -2.3 -6.95 -4.9 -6.1 -3.85 -3.55 -5.6 -3.3 -6.4 -1.85 L-7.2 -0.3 M6.0 -2.1 Q5.3 -1.35 5.1 0.0 L5.05 0.1 Q5.1 -0.75 5.45 -1.55 L5.65 -1.6 6.0 -2.1 M2.0 1.45 Q2.95 1.85 3.9 2.5 L1.6 2.0 1.65 1.95 1.9 1.55 2.0 1.45 M-0.35 18.5 Q-2.35 18.55 -2.3 17.95 L-2.3 17.4 -1.35 18.1 -0.35 18.5 M-2.85 15.85 Q-3.65 14.7 -5.55 14.35 -6.1 12.3 -7.75 11.15 -9.0 10.25 -8.3 8.6 -7.6 7.0 -7.75 5.4 -8.2 1.65 -4.75 1.6 L-4.35 1.3 Q-3.75 1.9 -3.5 2.65 -3.3 3.2 -2.25 3.3 L-0.6 3.25 -1.5 3.35 -3.1 4.6 Q-3.65 5.15 -3.85 5.85 L-4.25 7.95 Q-4.35 10.6 -2.65 12.45 L-2.95 14.15 -2.85 15.85 M0.15 24.15 L0.0 24.5 -1.25 25.1 -0.6 24.8 -0.55 24.55 0.15 24.15 M-4.05 26.5 Q-6.55 27.65 -4.85 25.5 -4.6 25.25 -4.45 24.45 -5.2 20.7 -1.95 21.5 L-1.65 21.6 Q-2.25 21.75 -2.6 22.25 -4.0 24.15 -4.05 26.5" fill="#ffffff" fill-rule="evenodd" stroke="none"/>
    <path d="M7.05 -19.8 Q6.3 -20.35 5.8 -21.2 5.05 -22.4 5.1 -23.75 4.05 -26.2 6.0 -28.1 L6.7 -28.65 7.5 -28.0 8.1 -27.1 8.15 -27.0 8.2 -26.95 8.25 -26.85 8.3 -26.7 9.3 -24.55 Q10.5 -22.35 8.2 -20.0 L7.3 -20.0 7.05 -19.8 M4.0 -15.15 L6.0 -15.0 Q7.9 -14.7 7.85 -12.7 7.85 -10.8 6.95 -9.45 6.45 -8.8 5.75 -8.45 L7.0 -7.4 Q7.35 -6.9 7.2 -6.25 8.2 -4.2 6.7 -2.65 L6.0 -2.1 5.65 -1.6 5.45 -1.55 Q5.1 -0.75 5.05 0.1 L3.15 0.2 3.0 0.1 2.8 0.05 2.7 0.0 2.0 1.45 1.9 1.55 1.65 1.95 1.6 2.0 3.9 2.5 3.95 2.5 4.0 2.55 Q3.3 3.55 3.85 4.35 6.2 7.75 1.95 9.2 3.5 10.3 4.05 12.15 4.3 13.05 3.45 13.15 1.4 13.45 0.0 14.8 1.25 18.05 0.0 18.45 L-0.3 18.5 -0.35 18.5 -1.35 18.1 -2.3 17.4 Q-2.4 16.45 -2.85 15.85 L-2.95 14.15 -2.65 12.45 Q-4.35 10.6 -4.25 7.95 L-3.85 5.85 Q-3.65 5.15 -3.1 4.6 L-1.5 3.35 -0.6 3.25 0.65 2.8 1.6 2.0 0.65 2.8 -0.6 3.25 -2.25 3.3 Q-3.3 3.2 -3.5 2.65 -3.75 1.9 -4.35 1.3 -5.05 0.5 -6.3 0.0 L-7.2 -0.3 -6.4 -1.85 Q-5.6 -3.3 -3.85 -3.55 -4.9 -6.1 -2.3 -6.95 -1.4 -7.2 -0.55 -7.55 0.0 -7.8 0.55 -8.2 1.1 -8.65 1.8 -8.8 1.55 -10.45 2.7 -11.5 L3.3 -11.9 Q3.35 -13.65 4.0 -15.15 M3.9 2.5 L4.0 2.55 3.9 2.5 M0.15 24.15 L-0.55 24.55 -0.6 24.8 -1.25 25.1 -2.2 25.55 -3.75 26.35 -4.05 26.5 Q-4.0 24.15 -2.6 22.25 -2.25 21.75 -1.65 21.6 -0.9 21.9 0.0 22.85 0.3 23.4 0.15 24.15" fill="#aabfc4" fill-rule="evenodd" stroke="none"/>
    <path d="M7.05 -19.8 L7.3 -20.0 8.2 -20.0 Q10.5 -22.35 9.3 -24.55 L8.3 -26.7 8.25 -26.85 8.2 -26.95 8.15 -27.0 8.1 -27.1 7.5 -28.0 Q6.65 -28.9 5.4 -29.1 2.6 -28.4 2.5 -24.95 L2.2 -23.75 Q1.7 -22.65 2.15 -20.0 L7.05 -19.8" fill="none" stroke="#000000" stroke-linecap="round" stroke-linejoin="round" stroke-width="1.0"/>
    <path d="M-7.2 -0.3 Q-7.95 -0.85 -7.1 -2.1 L-8.75 -4.35 Q-10.2 -6.85 -7.2 -7.7 -6.1 -8.05 -6.7 -9.3 -8.4 -12.85 -4.45 -12.85 -3.55 -12.85 -2.75 -13.45 -1.45 -14.45 0.0 -14.8 L4.0 -15.15 6.0 -15.0 Q7.9 -14.7 7.85 -12.7 7.85 -10.8 6.95 -9.45 6.45 -8.8 5.75 -8.45 L7.0 -7.4 Q7.35 -6.9 7.2 -6.25 8.2 -4.2 6.7 -2.65 L6.0 -2.1 Q5.3 -1.35 5.1 0.0 L5.05 0.1 3.15 0.2 3.0 0.1 2.8 0.05 2.7 0.0 2.0 1.45 Q2.95 1.85 3.9 2.5 L4.0 2.55 Q3.3 3.55 3.85 4.35 6.2 7.75 1.95 9.2 3.5 10.3 4.05 12.15 4.3 13.05 3.45 13.15 1.4 13.45 0.0 14.8 1.25 18.05 0.0 18.45 L-0.3 18.5 -0.35 18.5 Q-2.35 18.55 -2.3 17.95 L-2.3 17.4 Q-2.4 16.45 -2.85 15.85 -3.65 14.7 -5.55 14.35 -6.1 12.3 -7.75 11.15 -9.0 10.25 -8.3 8.6 -7.6 7.0 -7.75 5.4 -8.2 1.65 -4.75 1.6 M-4.35 1.3 Q-5.05 0.5 -6.3 0.0 L-7.2 -0.3 M1.6 2.0 L0.65 2.8 -0.6 3.25 -2.25 3.3 Q-3.3 3.2 -3.5 2.65 -3.75 1.9 -4.35 1.3 M2.0 1.45 L1.9 1.55 1.65 1.95 1.6 2.0 M-1.25 25.1 L0.0 24.5 0.15 24.15 Q0.3 23.4 0.0 22.85 -0.9 21.9 -1.65 21.6 L-1.95 21.5 Q-5.2 20.7 -4.45 24.45 -4.6 25.25 -4.85 25.5 -6.55 27.65 -4.05 26.5 L-3.75 26.35 -2.2 25.55 -1.25 25.1 Z" fill="none" stroke="#000000" stroke-linecap="round" stroke-linejoin="round" stroke-width="1.0"/>
  </g>
</svg>
