<?xml version="1.0" encoding="UTF-8" standalone="no"?>
<svg xmlns:ffdec="https://www.free-decompiler.com/flash" xmlns:xlink="http://www.w3.org/1999/xlink" ffdec:objectType="shape" height="61.7px" width="19.55px" xmlns="http://www.w3.org/2000/svg">
  <g transform="matrix(1.0, 0.0, 0.0, 1.0, 9.95, 34.65)">
    <path d="M8.0 -31.55 Q9.6 -30.2 8.9 -27.45 7.6 -25.35 4.9 -27.6 3.55 -28.0 3.35 -29.25 2.7 -32.6 5.1 -34.15 6.0 -34.25 6.8 -33.7 7.9 -33.35 8.0 -31.55 M5.7 -14.5 L5.1 -14.55 3.4 -13.55 2.9 -13.0 Q2.05 -11.15 1.8 -9.15 L1.2 -8.85 -0.65 -7.4 -2.0 -7.75 Q-2.75 -7.8 -3.3 -7.3 -4.85 -5.9 -5.25 -3.8 -5.7 -5.25 -7.35 -6.25 -8.65 -7.05 -8.6 -8.9 -8.6 -12.1 -5.4 -11.9 -5.7 -14.5 -4.0 -14.85 -3.2 -15.0 -3.3 -15.9 -2.0 -18.2 1.5 -17.0 3.45 -16.3 3.65 -14.5 L5.7 -14.5 M-0.75 0.3 L-0.6 -0.1 -0.3 -0.15 -0.75 0.3 M-7.8 11.4 L-8.0 11.2 Q-11.2 8.4 -7.45 7.0 -7.95 5.95 -7.6 4.65 -6.65 1.35 -3.8 3.5 L-2.7 3.3 Q0.75 3.15 0.0 5.25 2.15 5.15 2.8 6.15 L-1.15 5.8 Q-2.25 5.85 -2.5 6.9 -2.75 7.75 -3.35 8.45 L-4.1 9.85 Q-5.95 9.85 -7.35 11.0 L-7.8 11.4 M-0.4 14.7 Q-0.95 15.45 -1.75 15.1 L-1.1 14.7 -0.75 14.45 -0.4 14.7 M-4.45 24.15 Q-3.8 22.45 -3.7 20.0 -3.7 21.15 -3.45 20.0 -4.4 17.45 -0.65 17.95 L-1.55 18.45 -2.1 19.05 Q-2.6 20.45 -2.75 22.0 L-3.05 22.35 -3.3 23.15 -3.3 23.25 -3.75 23.85 -3.95 23.95 -4.45 24.15 M2.75 19.9 L2.75 20.0 Q2.65 21.0 1.15 20.5 L2.75 19.9" fill="#ffffff" fill-rule="evenodd" stroke="none"/>
    <path d="M5.7 -14.5 L6.95 -13.9 Q7.4 -13.4 7.35 -12.45 L7.35 -12.4 7.35 -12.3 7.3 -12.2 7.3 -12.05 7.25 -11.95 7.25 -11.85 7.2 -11.7 6.95 -10.75 Q6.85 -10.0 7.25 -9.25 9.2 -5.65 5.4 -5.75 4.05 -5.8 4.25 -3.6 4.35 -2.6 3.3 -1.9 2.15 -1.15 0.0 -1.9 0.05 -0.75 -0.3 -0.15 L-0.6 -0.1 -0.75 0.3 -2.0 0.4 -3.0 0.1 -3.1 0.1 -3.15 0.05 -3.3 0.0 Q-4.95 -1.1 -5.1 -3.05 L-5.25 -3.8 Q-4.85 -5.9 -3.3 -7.3 -2.75 -7.8 -2.0 -7.75 L-0.65 -7.4 1.2 -8.85 1.8 -9.15 Q2.05 -11.15 2.9 -13.0 L3.4 -13.55 5.1 -14.55 5.7 -14.5 M2.8 6.15 Q3.3 6.95 2.8 8.45 3.6 9.55 3.6 11.75 3.65 13.2 2.55 13.2 0.95 13.15 0.0 13.95 L-0.05 14.1 -0.2 14.4 -0.4 14.7 -0.75 14.45 -1.1 14.7 -1.75 15.1 -2.7 14.45 Q-4.8 15.8 -6.0 13.4 L-6.7 12.35 -7.8 11.4 -7.35 11.0 Q-5.95 9.85 -4.1 9.85 L-3.35 8.45 Q-2.75 7.75 -2.5 6.9 -2.25 5.85 -1.15 5.8 L2.8 6.15 M1.15 20.5 L0.0 20.0 Q-1.7 21.55 0.0 23.95 L-1.5 25.15 Q-3.7 26.45 -6.15 26.55 -5.1 25.6 -4.45 24.15 L-3.95 23.95 -3.75 23.85 -3.3 23.25 -3.3 23.15 -3.05 22.35 -2.75 22.0 Q-2.6 20.45 -2.1 19.05 L-1.55 18.45 -0.65 17.95 0.0 18.05 Q-1.1 18.1 -0.05 18.3 L0.0 18.15 Q2.8 17.55 2.75 19.9 L1.15 20.5 M-0.05 18.3 Q-0.2 18.75 0.0 18.3 L-0.05 18.3" fill="#aabfc4" fill-rule="evenodd" stroke="none"/>
    <path d="M8.0 -31.55 Q7.9 -33.35 6.8 -33.7 6.0 -34.25 5.1 -34.15 2.7 -32.6 3.35 -29.25 3.55 -28.0 4.9 -27.6 7.6 -25.35 8.9 -27.45 9.6 -30.2 8.0 -31.55" fill="none" stroke="#000000" stroke-linecap="round" stroke-linejoin="round" stroke-width="1.0"/>
    <path d="M-0.3 -0.15 Q0.05 -0.75 0.0 -1.9 2.15 -1.15 3.3 -1.9 4.35 -2.6 4.25 -3.6 4.05 -5.8 5.4 -5.75 9.2 -5.65 7.25 -9.25 6.85 -10.0 6.95 -10.75 L7.2 -11.7 7.25 -11.85 7.25 -11.95 7.3 -12.05 7.3 -12.2 7.35 -12.3 7.35 -12.4 7.35 -12.45 Q7.4 -13.4 6.95 -13.9 L5.7 -14.5 3.65 -14.5 Q3.45 -16.3 1.5 -17.0 -2.0 -18.2 -3.3 -15.9 -3.2 -15.0 -4.0 -14.85 -5.7 -14.5 -5.4 -11.9 -8.6 -12.1 -8.6 -8.9 -8.65 -7.05 -7.35 -6.25 -5.7 -5.25 -5.25 -3.8 L-5.1 -3.05 Q-4.95 -1.1 -3.3 0.0 L-3.15 0.05 -3.1 0.1 -3.0 0.1 -2.0 0.4 -0.75 0.3 -0.3 -0.15 M-7.8 11.4 L-8.0 11.2 Q-11.2 8.4 -7.45 7.0 -7.95 5.95 -7.6 4.65 -6.65 1.35 -3.8 3.5 L-2.7 3.3 Q0.75 3.15 0.0 5.25 2.15 5.15 2.8 6.15 3.3 6.95 2.8 8.45 3.6 9.55 3.6 11.75 3.65 13.2 2.55 13.2 0.95 13.15 0.0 13.95 L-0.05 14.1 -0.2 14.4 M-0.4 14.7 Q-0.95 15.45 -1.75 15.1 L-2.7 14.45 Q-4.8 15.8 -6.0 13.4 L-6.7 12.35 -7.8 11.4 M1.15 20.5 L0.0 20.0 Q-1.7 21.55 0.0 23.95 L-1.5 25.15 Q-3.7 26.45 -6.15 26.55 -5.1 25.6 -4.45 24.15 -3.8 22.45 -3.7 20.0 -3.7 21.15 -3.45 20.0 -4.4 17.45 -0.65 17.95 L0.0 18.05 Q-1.1 18.1 -0.05 18.3 L0.0 18.15 Q2.8 17.55 2.75 19.9 L2.75 20.0 Q2.65 21.0 1.15 20.5 M-0.05 18.3 Q-0.2 18.75 0.0 18.3 L-0.05 18.3 Z" fill="none" stroke="#000000" stroke-linecap="round" stroke-linejoin="round" stroke-width="1.0"/>
  </g>
</svg>
