<?xml version="1.0" encoding="UTF-8" standalone="no"?>
<svg xmlns:ffdec="https://www.free-decompiler.com/flash" xmlns:xlink="http://www.w3.org/1999/xlink" ffdec:objectType="shape" height="66.3px" width="20.65px" xmlns="http://www.w3.org/2000/svg">
  <g transform="matrix(1.0, 0.0, 0.0, 1.0, 9.95, 38.8)">
    <path d="M6.35 -32.95 L6.05 -33.5 Q4.6 -33.5 4.1 -34.85 3.0 -38.1 6.7 -38.3 L8.35 -37.15 7.3 -36.6 Q5.4 -35.3 6.4 -33.05 L6.35 -32.95 M6.6 -17.25 Q5.25 -17.5 3.85 -17.25 2.35 -17.25 1.25 -16.3 L0.7 -15.8 Q-0.65 -14.55 -1.4 -12.9 L-4.9 -13.3 Q-6.2 -13.1 -6.65 -11.9 -7.0 -11.0 -6.95 -10.2 L-6.7 -9.8 -7.0 -10.25 Q-8.9 -13.1 -6.7 -15.35 -6.15 -15.85 -6.15 -16.2 -6.2 -18.2 -4.7 -20.0 -2.2 -21.0 0.0 -20.0 2.15 -19.4 3.55 -17.95 5.2 -17.9 6.6 -17.25 M2.45 -4.9 L2.85 -4.95 3.5 -5.1 3.55 -4.85 3.55 -4.8 2.45 -4.9 M8.15 -14.1 L8.15 -14.6 8.2 -14.7 8.55 -15.4 8.6 -15.9 Q9.55 -14.9 8.15 -14.1 M-8.95 0.25 L-8.95 0.05 -8.9 0.0 Q-7.95 -3.75 -4.75 -2.55 -2.3 -4.15 0.0 0.0 2.3 -1.85 4.7 0.0 L4.95 0.75 4.45 0.8 Q3.65 0.0 2.55 0.3 0.75 0.75 -0.2 2.35 L-0.7 2.0 Q-3.9 -0.25 -7.8 -0.35 -8.6 -0.3 -8.95 0.25 M-4.8 9.35 L-6.9 9.25 -4.8 9.35 M-9.45 3.05 L-9.2 2.3 -9.2 2.45 -9.3 2.6 -9.45 3.05 M1.65 11.75 L0.9 11.7 -0.2 12.4 -1.0 13.15 Q-3.1 15.55 -2.0 18.6 L-2.8 19.45 -3.65 21.25 -4.55 20.0 Q-4.45 17.3 -4.0 16.0 -6.75 12.8 -3.0 12.25 -1.9 12.1 -2.05 13.2 -0.2 11.3 1.65 11.75 M-3.5 23.05 L-3.7 23.35 -3.75 23.35 -3.5 23.05" fill="#ffffff" fill-rule="evenodd" stroke="none"/>
    <path d="M6.35 -32.95 L6.4 -33.05 Q5.4 -35.3 7.3 -36.6 L8.35 -37.15 8.55 -36.95 9.1 -36.3 9.7 -35.35 10.05 -34.65 10.05 -34.6 Q10.45 -33.5 9.85 -32.8 8.65 -31.35 7.6 -31.75 6.95 -32.0 6.35 -32.95 M-6.7 -9.8 L-6.95 -10.2 Q-7.0 -11.0 -6.65 -11.9 -6.2 -13.1 -4.9 -13.3 L-1.4 -12.9 Q-0.65 -14.55 0.7 -15.8 L1.25 -16.3 Q2.35 -17.25 3.85 -17.25 5.25 -17.5 6.6 -17.25 L6.85 -17.1 6.6 -17.25 6.65 -17.25 6.85 -17.1 6.9 -17.1 Q8.05 -16.45 8.6 -15.9 L8.55 -15.4 8.2 -14.7 8.15 -14.6 8.15 -14.1 7.55 -13.8 6.7 -13.55 6.65 -13.5 6.55 -13.5 8.1 -11.65 Q9.6 -9.05 7.65 -8.1 8.15 -6.75 7.25 -5.65 5.8 -3.9 3.65 -4.8 L3.55 -4.8 3.55 -4.85 3.5 -5.1 2.85 -4.95 2.45 -4.9 1.8 -4.65 Q-1.15 -2.5 -2.1 -6.55 -4.8 -6.8 -6.35 -9.3 L-6.4 -9.35 -6.7 -9.8 M8.15 -14.1 L7.55 -13.8 8.15 -14.1 M-8.95 0.25 Q-8.6 -0.3 -7.8 -0.35 -3.9 -0.25 -0.7 2.0 L-0.2 2.35 Q0.75 0.75 2.55 0.3 3.65 0.0 4.45 0.8 L4.95 0.75 5.3 2.4 Q5.15 4.55 2.4 5.1 3.15 5.75 3.25 6.7 3.35 7.45 3.0 8.0 1.7 9.85 0.0 8.1 -0.75 9.5 -2.5 9.15 L-4.45 9.2 -4.5 9.25 -4.8 9.35 -6.9 9.25 Q-7.65 8.65 -7.8 7.1 L-7.85 6.9 Q-8.8 6.3 -9.2 5.5 L-9.45 3.05 -9.3 2.6 -9.2 2.45 -9.2 2.3 -9.05 1.9 -9.05 1.8 -8.95 0.25 M-3.65 21.25 L-2.8 19.45 -2.0 18.6 Q-3.1 15.55 -1.0 13.15 L-0.2 12.4 0.9 11.7 1.65 11.75 2.4 12.05 2.45 12.1 Q2.7 14.9 0.0 15.25 3.85 18.15 0.0 20.0 -0.55 23.9 -3.3 25.5 L-5.2 26.5 -5.65 26.25 -4.95 25.15 -3.75 23.35 -3.7 23.35 -3.5 23.05 -3.3 22.7 Q-3.0 22.25 -3.3 21.8 L-3.65 21.25" fill="#aabfc4" fill-rule="evenodd" stroke="none"/>
    <path d="M8.35 -37.15 L6.7 -38.3 Q3.0 -38.1 4.1 -34.85 4.6 -33.5 6.05 -33.5 L6.35 -32.95 M8.55 -36.95 L9.1 -36.3 9.7 -35.35 10.05 -34.65 10.05 -34.6 Q10.45 -33.5 9.85 -32.8 8.65 -31.35 7.6 -31.75" fill="none" stroke="#000000" stroke-linecap="round" stroke-linejoin="round" stroke-width="1.0"/>
    <path d="M6.6 -17.25 Q5.2 -17.9 3.55 -17.95 2.15 -19.4 0.0 -20.0 -2.2 -21.0 -4.7 -20.0 -6.2 -18.2 -6.15 -16.2 -6.15 -15.85 -6.7 -15.35 -8.9 -13.1 -7.0 -10.25 L-6.7 -9.8 -6.4 -9.35 -6.35 -9.3 Q-4.8 -6.8 -2.1 -6.55 -1.15 -2.5 1.8 -4.65 L2.45 -4.9 3.55 -4.8 3.65 -4.8 Q5.8 -3.9 7.25 -5.65 8.15 -6.75 7.65 -8.1 9.6 -9.05 8.1 -11.65 L6.55 -13.5 6.65 -13.5 6.7 -13.55 7.55 -13.8 8.15 -14.1 Q9.55 -14.9 8.6 -15.9 8.05 -16.45 6.9 -17.1 L6.85 -17.1 6.6 -17.25 M4.95 0.75 L4.7 0.0 Q2.3 -1.85 0.0 0.0 -2.3 -4.15 -4.75 -2.55 -7.95 -3.75 -8.9 0.0 L-8.95 0.05 -8.95 0.25 -9.05 1.8 -9.05 1.9 -9.2 2.3 -9.45 3.05 -9.2 5.5 Q-8.8 6.3 -7.85 6.9 L-7.8 7.1 Q-7.65 8.65 -6.9 9.25 L-4.8 9.35 M4.95 0.75 L5.3 2.4 Q5.15 4.55 2.4 5.1 3.15 5.75 3.25 6.7 3.35 7.45 3.0 8.0 1.7 9.85 0.0 8.1 -0.75 9.5 -2.5 9.15 L-4.45 9.2 -4.5 9.25 M-3.65 21.25 L-3.3 21.8 Q-3.0 22.25 -3.3 22.7 L-3.5 23.05 -3.75 23.35 -4.95 25.15 -5.65 26.25 -6.15 27.0 -5.2 26.5 -3.3 25.5 Q-0.55 23.9 0.0 20.0 3.85 18.15 0.0 15.25 2.7 14.9 2.45 12.1 L2.4 12.05 1.65 11.75 Q-0.2 11.3 -2.05 13.2 -1.9 12.1 -3.0 12.25 -6.75 12.8 -4.0 16.0 -4.45 17.3 -4.55 20.0 L-3.65 21.25 Z" fill="none" stroke="#000000" stroke-linecap="round" stroke-linejoin="round" stroke-width="1.0"/>
  </g>
</svg>
