<?xml version="1.0" encoding="UTF-8" standalone="no"?>
<svg xmlns:ffdec="https://www.free-decompiler.com/flash" xmlns:xlink="http://www.w3.org/1999/xlink" ffdec:objectType="shape" height="67.25px" width="20.7px" xmlns="http://www.w3.org/2000/svg">
  <g transform="matrix(1.0, 0.0, 0.0, 1.0, 10.15, 41.0)">
    <path d="M7.15 -40.0 Q8.4 -41.0 8.7 -40.0 9.3 -37.65 7.75 -37.0 6.3 -36.4 5.85 -37.6 4.85 -40.45 7.15 -40.0 M6.95 -20.0 L6.9 -20.0 Q6.7 -19.85 6.45 -19.8 3.5 -18.9 2.7 -16.05 1.4 -15.55 1.4 -14.2 L1.35 -13.2 Q-0.55 -12.75 -0.55 -10.8 L-0.7 -9.35 -0.75 -8.7 -0.15 -8.45 Q-3.05 -9.4 -2.8 -13.1 -5.1 -13.5 -5.0 -15.75 -4.8 -19.05 -1.55 -20.0 L0.0 -20.0 Q0.7 -23.45 3.35 -20.0 L4.0 -20.05 4.0 -20.0 4.0 -20.05 Q3.75 -22.15 4.65 -22.2 5.5 -22.2 5.7 -21.5 6.1 -20.15 6.95 -20.0 M0.95 -3.0 L0.0 -3.25 0.0 -3.35 0.95 -3.0 M-1.55 -6.5 Q-2.85 -5.9 -3.0 -4.15 L-3.1 -3.95 Q-3.7 -1.5 -1.5 -0.05 L-1.85 0.55 Q-2.25 1.5 -2.15 2.6 L-2.25 2.7 -2.8 3.15 -5.35 2.9 -6.6 3.6 Q-7.45 3.55 -8.2 4.0 L-8.55 4.4 -9.5 2.45 -9.65 -2.4 Q-9.65 -3.05 -9.05 -3.35 -7.8 -3.9 -7.5 -4.8 L-7.0 -6.05 Q-5.5 -8.65 -2.7 -6.5 L-1.55 -6.5 M-5.1 7.05 L-3.5 7.0 Q-2.9 7.1 -2.95 7.8 L-2.85 7.8 Q-0.85 5.25 1.25 6.7 L1.5 6.75 1.45 6.85 1.25 6.7 0.55 7.3 -0.8 7.55 Q-3.6 8.95 -2.3 11.7 -2.65 12.25 -2.65 12.95 -2.75 14.65 -1.15 15.45 L-1.55 16.05 -1.65 16.85 Q-2.65 17.3 -2.7 18.35 L-2.7 20.3 -3.75 20.65 -4.15 21.4 -3.4 20.0 Q-3.75 18.95 -5.3 18.45 -5.85 18.25 -5.55 17.55 -4.85 15.95 -3.45 15.9 -6.0 14.8 -7.25 12.5 -8.35 10.5 -7.6 9.4 -7.05 7.6 -5.5 7.15 L-5.1 7.05 M4.25 3.05 L4.1 3.1 4.15 2.85 4.25 3.05 M4.6 -2.2 L3.75 -2.45 1.9 -2.8 2.55 -2.75 Q4.0 -2.75 4.6 -2.2 M-2.85 7.8 L-3.0 7.95 -2.95 7.8 -3.0 7.95 -2.85 7.8" fill="#ffffff" fill-rule="evenodd" stroke="none"/>
    <path d="M-0.15 -8.45 L-0.75 -8.7 -0.7 -9.35 -0.55 -10.8 Q-0.55 -12.75 1.35 -13.2 L1.4 -14.2 Q1.4 -15.55 2.7 -16.05 3.5 -18.9 6.45 -19.8 6.7 -19.85 6.9 -20.0 L6.95 -20.0 7.15 -20.0 Q12.05 -18.55 8.7 -14.9 10.8 -12.25 7.95 -11.55 6.45 -11.15 6.85 -10.05 7.25 -8.95 6.25 -7.7 3.85 -5.55 0.0 -8.4 L-0.05 -8.4 -0.15 -8.45 M0.0 -3.35 L0.0 -3.25 0.95 -3.0 1.75 -2.8 1.9 -2.8 3.75 -2.45 4.6 -2.2 4.9 -1.65 4.6 -0.3 4.5 -0.1 4.45 0.0 Q4.1 0.65 3.4 0.0 3.2 1.55 3.5 1.9 L3.55 2.0 4.15 2.85 4.1 3.1 4.25 3.05 Q5.2 5.05 2.0 5.35 1.6 5.4 1.8 6.35 L1.5 6.75 1.25 6.7 Q-0.85 5.25 -2.85 7.8 L-2.95 7.8 Q-2.9 7.1 -3.5 7.0 L-5.1 7.05 Q-5.25 6.6 -5.7 6.5 -7.4 6.15 -8.55 4.4 L-8.2 4.0 Q-7.45 3.55 -6.6 3.6 L-5.35 2.9 -2.8 3.15 -2.25 2.7 -2.15 2.6 Q-2.25 1.5 -1.85 0.55 L-1.5 -0.05 Q-3.7 -1.5 -3.1 -3.95 L-3.0 -4.15 Q-2.85 -5.9 -1.55 -6.5 0.6 -6.3 0.15 -3.95 L0.0 -3.35 M4.6 -2.2 L4.9 -1.65 4.6 -2.2 M1.45 6.85 L1.65 7.0 Q5.7 8.6 2.9 10.95 1.9 11.8 0.0 12.25 L0.0 12.55 Q2.7 15.0 0.0 17.7 0.9 18.15 0.0 20.0 0.55 21.6 0.0 22.85 L-3.5 24.3 -4.8 25.0 -5.35 25.0 -5.25 24.5 -5.25 24.4 -5.2 24.25 -4.15 21.4 -3.75 20.65 -2.7 20.3 -2.7 18.35 Q-2.65 17.3 -1.65 16.85 L-1.55 16.05 -1.15 15.45 Q-2.75 14.65 -2.65 12.95 -2.65 12.25 -2.3 11.7 -3.6 8.95 -0.8 7.55 L0.55 7.3 1.25 6.7 1.45 6.85" fill="#aabfc4" fill-rule="evenodd" stroke="none"/>
    <path d="M7.15 -40.0 Q4.85 -40.45 5.85 -37.6 6.3 -36.4 7.75 -37.0 9.3 -37.65 8.7 -40.0 8.4 -41.0 7.15 -40.0" fill="none" stroke="#000000" stroke-linecap="round" stroke-linejoin="round" stroke-width="1.0"/>
    <path d="M6.95 -20.0 Q6.1 -20.15 5.7 -21.5 5.5 -22.2 4.65 -22.2 3.75 -22.15 4.0 -20.05 L4.0 -20.0 4.0 -20.05 Q3.65 -21.1 3.35 -20.0 0.7 -23.45 0.0 -20.0 L-1.55 -20.0 Q-4.8 -19.05 -5.0 -15.75 -5.1 -13.5 -2.8 -13.1 -3.05 -9.4 -0.15 -8.45 L-0.05 -8.4 0.0 -8.4 Q3.85 -5.55 6.25 -7.7 7.25 -8.95 6.85 -10.05 6.45 -11.15 7.95 -11.55 10.8 -12.25 8.7 -14.9 12.05 -18.55 7.15 -20.0 L6.95 -20.0 M0.0 -3.35 L0.15 -3.95 Q0.6 -6.3 -1.55 -6.5 L-2.7 -6.5 Q-5.5 -8.65 -7.0 -6.05 L-7.5 -4.8 Q-7.8 -3.9 -9.05 -3.35 -9.65 -3.05 -9.65 -2.4 L-9.5 2.45 -8.55 4.4 Q-7.4 6.15 -5.7 6.5 -5.25 6.6 -5.1 7.05 L-3.5 7.0 Q-2.9 7.1 -2.95 7.8 L-3.0 7.95 -2.85 7.8 Q-0.85 5.25 1.25 6.7 L1.45 6.85 1.65 7.0 Q5.7 8.6 2.9 10.95 1.9 11.8 0.0 12.25 0.65 12.3 0.0 12.55 2.7 15.0 0.0 17.7 0.9 18.15 0.0 20.0 0.55 21.6 0.0 22.85 L-3.5 24.3 -4.8 25.0 Q-5.3 25.3 -5.4 25.75 L-5.35 25.0 -5.25 24.5 -5.25 24.4 -5.2 24.25 -4.15 21.4 -3.4 20.0 Q-3.75 18.95 -5.3 18.45 -5.85 18.25 -5.55 17.55 -4.85 15.95 -3.45 15.9 -6.0 14.8 -7.25 12.5 -8.35 10.5 -7.6 9.4 -7.05 7.6 -5.5 7.15 L-5.1 7.05 M1.8 6.35 Q1.6 5.4 2.0 5.35 5.2 5.05 4.25 3.05 L4.15 2.85 3.55 2.0 3.5 1.9 Q3.2 1.55 3.4 0.0 4.1 0.65 4.45 0.0 L4.5 -0.1 4.6 -0.3 4.9 -1.65 4.6 -2.2 Q4.0 -2.75 2.55 -2.75 L1.9 -2.8 1.75 -2.8 0.95 -3.0 0.0 -3.35" fill="none" stroke="#000000" stroke-linecap="round" stroke-linejoin="round" stroke-width="1.0"/>
  </g>
</svg>
