<?xml version="1.0" encoding="UTF-8" standalone="no"?>
<svg xmlns:ffdec="https://www.free-decompiler.com/flash" xmlns:xlink="http://www.w3.org/1999/xlink" ffdec:objectType="shape" height="108.65px" width="51.35px" xmlns="http://www.w3.org/2000/svg">
  <g transform="matrix(1.0, 0.0, 0.0, 1.0, 25.65, 54.3)">
    <path d="M6.9 -42.25 Q5.45 -38.6 4.85 -34.7 4.2 -33.75 4.35 -32.6 4.5 -31.35 4.2 -30.2 2.35 -23.1 0.9 -15.95 L-0.5 -8.4 -0.9 -7.45 -1.45 -3.8 Q-2.05 1.0 -1.8 5.95 -2.25 6.55 -2.25 7.3 L-2.3 12.0 -2.7 11.9 Q-2.05 9.05 -5.1 8.1 -7.55 8.3 -7.8 10.75 L-7.8 11.1 -16.35 9.75 -15.4 0.9 -15.35 0.5 -15.35 0.45 -13.8 -13.65 -12.25 -27.95 -10.6 -43.35 6.9 -42.25 M-17.6 36.45 L-17.2 29.05 -16.75 19.3 -15.4 19.5 -13.7 19.7 -8.6 20.4 Q-9.15 22.35 -9.15 24.5 -9.2 26.9 -8.5 29.1 L-8.05 29.55 -5.55 30.25 -6.0 32.65 -6.6 37.8 -17.6 36.45" fill="#a6b2c0" fill-rule="evenodd" stroke="none"/>
    <path d="M-2.3 12.0 L-2.25 7.3 Q-2.25 6.55 -1.8 5.95 -2.05 1.0 -1.45 -3.8 L-0.9 -7.45 -0.5 -8.4 0.9 -15.95 Q2.35 -23.1 4.2 -30.2 4.5 -31.35 4.35 -32.6 4.2 -33.75 4.85 -34.7 5.45 -38.6 6.9 -42.25 L7.25 -42.2 14.3 -41.8 7.05 13.45 4.95 13.15 -2.3 12.0 M-5.55 30.25 L4.15 31.9 4.4 31.95 4.35 32.3 3.2 39.0 -0.65 38.55 -6.6 37.8 -6.0 32.65 -5.55 30.25 M5.2 27.0 Q0.8 25.85 -3.85 25.45 L-3.7 23.65 Q-3.45 22.1 -3.75 21.0 L-2.4 21.2 6.0 22.3 5.2 27.0" fill="#d3d9e0" fill-rule="evenodd" stroke="none"/>
    <path d="M6.9 -42.25 L-10.6 -43.35 -12.25 -27.95 Q-12.9 -28.45 -13.8 -28.75 -14.8 -28.7 -15.6 -27.9 -16.75 -26.75 -17.35 -25.2 L-14.95 -53.55 24.95 -50.5 19.2 -16.95 19.4 -20.25 Q19.55 -22.45 17.45 -23.0 L15.8 -23.05 18.3 -41.55 14.3 -41.8 7.25 -42.2 6.9 -42.25 M-13.8 -13.65 L-15.35 0.45 -15.15 -6.25 Q-15.0 -10.05 -13.85 -13.6 L-13.8 -13.65 M-23.9 50.95 L-19.8 51.05 -19.35 51.1 -19.1 51.45 -23.9 51.05 -23.9 50.95 M-17.2 29.05 L-17.95 28.6 -17.95 28.4 Q-17.95 23.55 -16.7 19.0 -16.35 18.8 -15.85 19.15 L-15.7 19.45 -15.4 19.5 -16.75 19.3 -17.2 29.05 M10.05 16.95 L9.75 18.0 Q8.95 20.25 8.6 22.65 L7.95 22.55 6.0 22.3 -2.4 21.2 -2.6 19.2 -2.3 15.25 0.6 15.65 10.05 16.95" fill="#714f35" fill-rule="evenodd" stroke="none"/>
    <path d="M-12.25 -27.95 L-13.8 -13.65 -13.85 -13.6 Q-15.0 -10.05 -15.15 -6.25 L-15.35 0.45 -15.35 0.5 -15.4 0.9 -16.35 9.75 -16.75 13.2 -11.4 13.95 Q-13.85 16.3 -13.7 19.7 L-15.4 19.5 -15.7 19.45 -15.85 19.15 Q-16.35 18.8 -16.7 19.0 -17.95 23.55 -17.95 28.4 L-17.95 28.6 -17.2 29.05 -17.6 36.45 -17.75 39.25 -15.9 39.45 -16.25 39.55 Q-19.45 40.45 -17.9 43.35 L-17.0 43.95 -3.9 45.45 7.55 45.85 8.45 45.5 7.65 50.1 7.55 50.65 7.5 50.95 7.05 53.6 -19.1 51.45 -19.35 51.1 -19.8 51.05 -23.9 50.95 -17.35 -25.2 Q-16.75 -26.75 -15.6 -27.9 -14.8 -28.7 -13.8 -28.75 -12.9 -28.45 -12.25 -27.95 M15.8 -23.05 L17.45 -23.0 Q19.55 -22.45 19.4 -20.25 L19.2 -16.95 17.8 -8.85 Q17.15 -9.5 16.05 -9.85 L14.85 -9.5 Q14.1 -9.1 13.85 -8.3 L13.75 -7.95 15.75 -22.7 15.8 -23.05 M-15.4 0.9 L-15.35 0.45 -15.4 0.9 M9.45 39.6 L9.4 38.55 9.65 38.6 9.45 39.6" fill="#9d806a" fill-rule="evenodd" stroke="none"/>
    <path d="M4.95 13.15 L7.05 13.45 14.3 -41.8 18.3 -41.55 15.8 -23.05 15.75 -22.7 13.75 -7.95 13.75 -7.9 13.65 -7.1 10.35 17.0 10.05 16.95 0.6 15.65 2.5 15.5 Q4.7 15.25 4.95 13.15 M7.15 33.35 L5.75 41.85 -3.9 40.8 -2.8 40.55 Q-0.75 40.0 -0.65 38.55 L3.2 39.0 4.35 32.3 Q4.95 33.8 7.15 33.35 M7.95 22.55 L8.6 22.65 8.85 22.7 7.95 22.55" fill="#665247" fill-rule="evenodd" stroke="none"/>
    <path d="M8.45 45.5 L7.55 45.85 -3.9 45.45 -17.0 43.95 -17.9 43.35 Q-19.45 40.45 -16.25 39.55 L-15.9 39.45 -15.85 39.45 -3.9 40.8 5.75 41.85 7.15 33.35 8.85 22.7 8.85 22.65 8.6 22.65 Q8.95 20.25 9.75 18.0 L10.05 16.95 10.35 17.0 13.65 -7.1 13.75 -7.9 13.75 -7.95 13.85 -8.3 Q14.1 -9.1 14.85 -9.5 L16.05 -9.85 Q17.15 -9.5 17.8 -8.85 L9.65 38.6 9.4 38.55 9.45 39.6 8.5 45.2 8.45 45.5 M-13.7 19.7 Q-13.85 16.3 -11.4 13.95 L-2.3 15.25 -2.6 19.2 -2.4 21.2 -3.75 21.0 -3.8 21.0 -8.1 20.45 -8.6 20.4 -13.7 19.7 M13.65 -7.1 L13.75 -7.95 13.65 -7.1" fill="#c5b4a5" fill-rule="evenodd" stroke="none"/>
    <path d="M8.85 22.7 L7.15 33.35 Q4.95 33.8 4.35 32.3 L4.4 31.95 5.2 27.0 6.0 22.3 7.95 22.55 8.85 22.7" fill="#000000" fill-rule="evenodd" stroke="none"/>
    <path d="M-16.35 9.75 L-7.8 11.1 -3.0 11.85 -2.7 11.9 -2.3 12.0 4.95 13.15 Q4.7 15.25 2.5 15.5 L0.6 15.65 -2.3 15.25 -11.4 13.95 -16.75 13.2 -16.35 9.75 M-15.9 39.45 L-17.75 39.25 -17.6 36.45 -6.6 37.8 -0.65 38.55 Q-0.75 40.0 -2.8 40.55 L-3.9 40.8 -15.85 39.45 -15.9 39.45" fill="#997e70" fill-rule="evenodd" stroke="none"/>
    <path d="M-7.8 11.1 L-7.8 10.75 Q-7.55 8.3 -5.1 8.1 -2.05 9.05 -2.7 11.9 L-3.0 11.85 -7.8 11.1 M-8.6 20.4 L-8.1 20.45 -3.8 21.0 -3.75 21.0 Q-3.45 22.1 -3.7 23.65 L-3.85 25.45 Q0.8 25.85 5.2 27.0 L4.4 31.95 4.15 31.9 -5.55 30.25 -8.05 29.55 -8.5 29.1 Q-9.2 26.9 -9.15 24.5 -9.15 22.35 -8.6 20.4" fill="#8e9eaf" fill-rule="evenodd" stroke="none"/>
    <path d="M6.9 -42.25 L-10.6 -43.35 -12.25 -27.95 -13.8 -13.65 -15.35 0.45 -15.4 0.9 -16.35 9.75 -7.8 11.1 -3.0 11.85 M-2.7 11.9 L-2.3 12.0 4.95 13.15 7.05 13.45 14.3 -41.8 7.25 -42.2 M14.3 -41.8 L18.3 -41.55 15.8 -23.05 M19.2 -16.95 L24.95 -50.5 -14.95 -53.55 -17.35 -25.2 -23.9 50.95 -23.9 51.05 -19.1 51.45 7.05 53.6 7.5 50.95 M7.55 50.65 L7.65 50.1 8.45 45.5 M-15.9 39.45 L-17.75 39.25 -17.6 36.45 -17.2 29.05 -16.75 19.3 -15.4 19.5 -13.7 19.7 -8.6 20.4 M-11.4 13.95 L-16.75 13.2 -16.35 9.75 M15.75 -22.7 L13.75 -7.95 13.65 -7.1 10.35 17.0 10.05 16.95 0.6 15.65 -2.3 15.25 -11.4 13.95 M17.8 -8.85 L19.2 -16.95 M8.6 22.65 L8.85 22.65 8.85 22.7 7.15 33.35 5.75 41.85 -3.9 40.8 -15.85 39.45 -15.9 39.45 M6.0 22.3 L7.95 22.55 8.6 22.65 M4.4 31.95 L5.2 27.0 6.0 22.3 -2.4 21.2 -3.75 21.0 -3.8 21.0 -8.1 20.45 M4.35 32.3 L3.2 39.0 -0.65 38.55 -6.6 37.8 -17.6 36.45 M8.5 45.2 L9.45 39.6 9.65 38.6 17.8 -8.85" fill="none" stroke="#000000" stroke-linecap="round" stroke-linejoin="round" stroke-width="1.5"/>
    <path d="M-4.8 11.2 L-4.45 7.05 8.35 7.55 7.95 11.6 5.15 11.55 5.2 10.95 5.2 10.8 5.25 10.35 -2.35 9.85 -2.5 11.35 -4.75 11.2 -4.8 11.2" fill="#b7b2b1" fill-rule="evenodd" stroke="none"/>
    <path d="M-4.8 11.2 L-4.75 11.2 -2.5 11.35 -2.6 12.9 -3.45 23.4 -0.35 23.75 3.7 24.2 4.85 13.85 4.9 13.65 5.2 10.95 5.15 11.55 7.95 11.6 6.95 21.85 6.9 22.1 6.3 28.25 -6.25 27.0 -4.8 11.2" fill="#5a5154" fill-rule="evenodd" stroke="none"/>
    <path d="M-2.5 11.35 L-2.35 9.85 5.25 10.35 5.2 10.8 5.2 10.95 4.9 13.65 4.85 13.85 1.7 13.4 -2.6 12.9 -2.5 11.35" fill="#000000" fill-rule="evenodd" stroke="none"/>
    <path d="M1.7 13.4 L1.15 15.5 Q0.05 19.55 -0.35 23.75 L-3.45 23.4 -2.6 12.9 1.7 13.4" fill="#7f7271" fill-rule="evenodd" stroke="none"/>
    <path d="M1.7 13.4 L4.85 13.85 3.7 24.2 -0.35 23.75 Q0.05 19.55 1.15 15.5 L1.7 13.4" fill="#998d8e" fill-rule="evenodd" stroke="none"/>
    <path d="M7.95 11.6 L8.35 7.55 -4.45 7.05 -4.8 11.2 -6.25 27.0 6.3 28.25 6.9 22.1 M-2.5 11.35 L-2.35 9.85 5.25 10.35 5.2 10.8 5.2 10.95 4.9 13.65 M7.95 11.6 L6.95 21.85 M-0.35 23.75 L3.7 24.2 4.85 13.85 M-2.6 12.9 L-3.45 23.4 -0.35 23.75 M-2.6 12.9 L-2.5 11.35" fill="none" stroke="#000000" stroke-linecap="round" stroke-linejoin="round" stroke-width="1.5"/>
    <path d="M7.25 -3.35 L6.3 -3.35 5.75 -3.3 Q4.5 -3.15 3.55 -2.55 1.75 -1.5 -0.25 -1.1 -1.7 -0.8 -2.9 0.05 -3.3 0.35 -3.8 0.45 L-9.05 1.5 -12.25 2.5 -12.75 2.75 -13.55 3.0 -13.55 -4.5 -12.0 -4.85 -7.85 -5.45 -5.05 -6.1 0.4 -7.75 6.8 -9.3 7.2 -9.35 7.65 -9.4 7.25 -3.35" fill="#de7142" fill-rule="evenodd" stroke="none"/>
    <path d="M-13.55 3.0 L-12.75 2.75 -12.25 2.5 -9.05 1.5 -3.8 0.45 Q-3.3 0.35 -2.9 0.05 -1.7 -0.8 -0.25 -1.1 1.75 -1.5 3.55 -2.55 4.5 -3.15 5.75 -3.3 L6.3 -3.35 7.25 -3.35 7.0 0.05 Q-3.45 1.6 -13.55 6.5 L-13.55 3.0 M7.65 -9.4 L7.2 -9.35 6.8 -9.3 0.4 -7.75 -5.05 -6.1 -7.85 -5.45 -12.0 -4.85 -13.55 -4.5 -13.55 -6.4 -8.2 -8.15 Q-4.05 -9.35 -0.1 -9.95 L7.7 -10.7 7.65 -9.4" fill="#ea4b11" fill-rule="evenodd" stroke="none"/>
    <path d="M-13.55 3.0 L-13.55 6.5 Q-3.45 1.6 7.0 0.05 L7.25 -3.35 7.65 -9.4 7.7 -10.7 -0.1 -9.95 Q-4.05 -9.35 -8.2 -8.15 L-13.55 -6.4 -13.55 -4.5 -13.55 3.0 M-0.1 -9.95 L-0.1 -18.2 M-8.2 -8.15 L-4.3 -17.1" fill="none" stroke="#000000" stroke-linecap="round" stroke-linejoin="round" stroke-width="1.5"/>
    <path d="M-1.45 -5.8 L0.25 -4.15 Q1.55 -2.6 0.1 -1.25 -0.25 -0.95 -0.65 -0.8 -1.95 -0.35 -1.95 -1.55 L-1.65 -1.9 Q-1.15 -2.05 -0.7 -2.35 L-0.35 -2.65 -0.35 -2.7 -0.35 -2.8 Q-1.1 -4.1 -2.4 -5.0 L-2.7 -5.5 Q-2.75 -6.8 -1.4 -6.95 -0.3 -7.15 0.25 -6.4 L0.25 -6.35 Q-0.2 -5.7 -1.1 -5.8 L-1.45 -5.8 M-4.6 -4.3 Q-5.0 -3.15 -4.5 -1.95 L-4.5 -1.9 -4.1 -1.55 Q-3.65 -2.85 -4.15 -4.05 L-4.2 -4.1 -4.55 -4.3 -4.6 -4.3 M-2.5 -3.3 Q-2.4 -1.65 -3.35 -0.45 -3.8 0.1 -4.45 -0.2 -5.4 -0.6 -5.6 -1.5 L-5.9 -3.75 -5.75 -4.65 Q-5.35 -5.55 -4.4 -5.75 -2.6 -5.1 -2.5 -3.3 M3.95 -7.3 L4.45 -7.4 Q6.4 -6.9 6.4 -4.85 L6.3 -3.95 Q6.15 -2.65 4.9 -2.05 L4.2 -1.95 4.1 -1.95 3.8 -2.15 3.65 -2.5 3.6 -2.3 Q3.0 -1.3 1.95 -1.45 L1.6 -1.7 Q0.55 -3.7 0.75 -6.0 0.8 -6.45 1.15 -6.75 L1.35 -6.85 1.6 -6.65 2.35 -6.85 Q3.45 -6.75 2.9 -5.95 L2.65 -5.8 2.0 -5.55 2.0 -5.45 2.0 -5.15 2.65 -5.35 Q3.65 -4.9 2.8 -4.15 L2.1 -3.8 2.35 -3.0 Q3.2 -3.75 3.6 -2.85 L3.65 -3.35 3.65 -4.6 3.55 -5.2 3.55 -6.5 3.45 -6.65 3.4 -6.7 3.4 -6.8 3.4 -6.85 3.45 -6.95 3.95 -7.3 M4.7 -6.2 L4.9 -3.65 5.15 -4.05 5.05 -5.55 4.7 -6.2 M-10.85 -1.95 Q-10.8 -0.85 -10.4 0.1 -9.05 -0.1 -9.05 1.0 L-9.3 1.35 Q-10.85 2.15 -11.65 0.7 -12.25 -0.25 -12.25 -1.35 L-12.3 -1.9 Q-12.35 -3.4 -11.45 -4.55 L-10.25 -5.2 Q-9.2 -5.05 -9.7 -4.25 L-9.9 -4.05 Q-10.9 -3.25 -10.85 -1.95 M-7.4 -3.55 L-7.4 -0.55 -5.75 -0.45 Q-5.5 -0.35 -5.55 -0.05 -5.7 0.8 -6.7 0.8 L-6.95 0.85 Q-7.85 1.85 -8.45 0.65 L-8.7 -0.55 -8.7 -4.75 Q-8.7 -5.2 -8.25 -5.25 -7.45 -4.7 -7.4 -3.55" fill="#000000" fill-rule="evenodd" stroke="none"/>
    <path d="M-10.6 -39.75 L-10.35 -42.4 16.05 -40.8 16.1 -39.75 16.1 -39.2 Q12.45 -39.05 8.8 -39.15 L7.8 -39.2 4.9 -39.4 -10.4 -39.75 -10.6 -39.75 M15.65 -34.55 L14.15 -34.65 13.1 -34.7 7.55 -34.8 4.6 -35.0 -0.85 -35.7 -9.65 -36.3 Q-10.0 -36.35 -10.2 -36.7 L-10.25 -36.8 -10.9 -36.85 -10.8 -37.9 15.65 -36.9 15.65 -34.55 M-11.1 -34.55 L14.9 -33.5 14.9 -32.5 Q14.6 -32.15 14.0 -32.05 L5.25 -31.8 2.75 -32.05 -1.4 -32.4 -7.45 -32.5 -11.25 -33.0 -11.1 -34.55 M16.2 -28.65 L14.0 -28.9 8.1 -29.3 Q1.15 -29.3 -5.8 -29.45 L-9.4 -29.65 Q-10.8 -29.8 -11.45 -30.55 L-11.45 -31.1 -11.4 -31.5 14.1 -31.1 14.5 -31.1 15.55 -31.05 15.95 -31.05 16.2 -28.65 M-11.5 -28.85 L15.35 -27.85 15.55 -25.5 15.6 -25.35 14.3 -25.35 14.3 -23.5 8.65 -23.55 6.9 -23.65 4.2 -23.9 3.05 -23.95 -3.2 -24.15 -9.95 -24.15 -10.4 -24.1 -12.0 -24.0 -12.0 -25.7 14.3 -25.35 14.35 -26.2 7.05 -26.45 2.95 -26.7 -2.55 -27.1 -5.4 -27.4 -11.8 -27.1 -11.85 -27.05 -11.7 -28.85 -11.5 -28.85 M14.3 -22.45 L14.9 -22.45 14.9 -22.4 14.7 -19.95 13.6 -19.9 13.6 -21.4 10.5 -21.65 Q6.0 -22.1 1.7 -20.9 L0.5 -20.7 -3.2 -20.5 -3.75 -20.5 -12.5 -20.6 -12.25 -23.25 -12.0 -23.25 13.6 -22.5 14.3 -22.45 M13.6 -19.0 L13.5 -16.55 -0.05 -16.2 -0.95 -16.15 -1.35 -16.1 -7.1 -16.1 -8.0 -16.2 -11.45 -16.9 -12.85 -17.2 -12.65 -18.95 6.5 -19.65 7.05 -19.65 7.5 -19.65 13.6 -19.4 13.6 -19.0" fill="#a3693c" fill-rule="evenodd" stroke="none"/>
    <path d="M-10.6 -39.75 L-10.4 -39.75 4.9 -39.4 7.8 -39.2 8.8 -39.15 Q12.45 -39.05 16.1 -39.2 L16.1 -39.75 16.2 -36.9 15.65 -36.9 -10.8 -37.9 -10.6 -39.75 M-10.9 -36.85 L-10.25 -36.8 -10.2 -36.7 Q-10.0 -36.35 -9.65 -36.3 L-0.85 -35.7 4.6 -35.0 7.55 -34.8 13.1 -34.7 14.15 -34.65 15.65 -34.55 15.65 -33.5 14.9 -33.5 -11.1 -34.55 -10.9 -36.85 M-11.25 -33.0 L-7.45 -32.5 -1.4 -32.4 2.75 -32.05 5.25 -31.8 14.0 -32.05 Q14.6 -32.15 14.9 -32.5 L14.9 -31.1 14.5 -31.1 14.1 -31.1 -11.4 -31.5 -11.25 -33.0 M-11.45 -31.1 L-11.45 -30.55 Q-10.8 -29.8 -9.4 -29.65 L-5.8 -29.45 Q1.15 -29.3 8.1 -29.3 L14.0 -28.9 16.2 -28.65 16.25 -27.85 15.35 -27.85 -11.5 -28.85 -11.45 -31.1 M15.55 -31.05 L14.5 -31.1 14.9 -31.1 15.05 -31.1 15.55 -31.05 M-11.85 -27.05 L-11.8 -27.1 -5.4 -27.4 -2.55 -27.1 2.95 -26.7 7.05 -26.45 14.35 -26.2 14.3 -25.35 -12.0 -25.7 -11.85 -27.05 M-12.0 -24.0 L-10.4 -24.1 -9.95 -24.15 -3.2 -24.15 3.05 -23.95 4.2 -23.9 6.9 -23.65 8.65 -23.55 14.3 -23.5 14.3 -22.5 13.6 -22.5 -12.0 -23.25 -12.0 -24.0 M13.6 -19.9 L13.6 -19.0 13.6 -19.4 7.5 -19.65 7.05 -19.65 13.6 -19.9 7.05 -19.65 6.5 -19.65 -12.65 -18.95 -12.5 -20.6 -3.75 -20.5 -3.2 -20.5 0.5 -20.7 1.7 -20.9 Q6.0 -22.1 10.5 -21.65 L13.6 -21.4 13.6 -19.9 M13.5 -16.55 L13.4 -14.6 -12.95 -16.0 -12.85 -17.2 -11.45 -16.9 -8.0 -16.2 -7.1 -16.1 -1.35 -16.1 -0.95 -16.15 -0.05 -16.2 13.5 -16.55" fill="#ddb18d" fill-rule="evenodd" stroke="none"/>
    <path d="M16.1 -39.75 L16.05 -40.8 -10.35 -42.4 M-11.1 -34.55 L14.9 -33.5 15.65 -33.5 15.65 -34.55 15.65 -36.9 -10.8 -37.9 M16.2 -28.65 L15.95 -31.05 15.55 -31.05 15.05 -31.1 14.9 -31.1 14.5 -31.1 14.1 -31.1 -11.4 -31.5 M-11.5 -28.85 L15.35 -27.85 16.25 -27.85 16.2 -28.65 M14.3 -25.35 L15.6 -25.35 15.55 -25.5 15.35 -27.85 M15.05 -31.1 L14.9 -33.5 M15.65 -36.9 L16.2 -36.85 16.2 -36.9 16.1 -39.75 M14.3 -23.5 L14.3 -25.35 -12.0 -25.7 M14.3 -23.5 L14.3 -22.5 14.3 -22.45 14.9 -22.45 14.9 -22.4 14.7 -19.95 13.6 -19.9 13.6 -19.0 13.5 -16.55 13.4 -14.6 -12.95 -16.0 M-12.25 -23.25 L-12.0 -23.25 13.6 -22.5 14.3 -22.45 M13.6 -19.9 L7.05 -19.65 M-12.65 -18.95 L6.5 -19.65" fill="none" stroke="#000000" stroke-linecap="round" stroke-linejoin="round" stroke-width="1.5"/>
    <path d="M-16.1 -33.15 L-17.45 -18.35 -20.05 -18.35 -18.75 -33.15 -16.1 -33.15" fill="#6e6660" fill-rule="evenodd" stroke="none"/>
    <path d="M-23.85 32.1 L-20.75 32.1 -22.4 45.65 -24.9 45.65 -23.85 32.1" fill="#c8c2c0" fill-rule="evenodd" stroke="none"/>
    <path d="M-16.1 -33.15 L-17.45 -18.35 -20.05 -18.35 -18.75 -33.15 -16.1 -33.15 M-23.85 32.1 L-20.75 32.1 -22.4 45.65 -24.9 45.65 -23.85 32.1 Z" fill="none" stroke="#000000" stroke-linecap="round" stroke-linejoin="round" stroke-width="1.5"/>
  </g>
</svg>
